<svg xmlns="http://www.w3.org/2000/svg" width="82" height="82" viewBox="0 0 82 82">
  <defs>
    <linearGradient id="baselayer-logo-icon-gradient" x1="0" x2="100%" y1="100%" y2="0" gradientUnits="objectBoundingBox">
      <stop offset="0" stop-color="#4080ff"/>
      <stop offset="1" stop-color="#0af"/>
    </linearGradient>
  </defs>
  <path fill="url(#baselayer-logo-icon-gradient)" d="M37.08,80.933l-29.029-16.709c-1.235-.711-2.197-1.662-2.887-2.852-.69-1.191-1.035-2.498-1.035-3.921V24.551c0-1.423.345-2.731,1.035-3.921.69-1.19,1.652-2.141,2.887-2.852L37.08,1.069C38.314.357,39.621.001,41,.001s2.686.356,3.92,1.068l29.029,16.709c1.235.711,2.197,1.662,2.887,2.852.69,1.191,1.035,2.498,1.035,3.921v32.899c0,1.423-.345,2.731-1.035,3.921-.69,1.19-1.652,2.141-2.887,2.852l-29.029,16.709c-1.234.712-2.541,1.068-3.92,1.068s-2.686-.356-3.92-1.068h0Z" />
  <path fill="#fff" d="M21.452,41.001l7.007,7.007c.317.341.481.745.493,1.214s-.153.873-.493,1.214c-.341.341-.744.511-1.208.511s-.867-.17-1.208-.511l-7.985-7.985c-.414-.414-.622-.898-.622-1.45s.207-1.036.622-1.45l7.985-7.985c.341-.341.744-.511,1.208-.511s.867.17,1.208.511.511.745.511,1.214-.17.873-.511,1.214l-7.007,7.007ZM34.443,57.931c-.22-.422-.257-.857-.11-1.307l10.083-32.288c.147-.45.427-.784.842-1.005.414-.22.846-.257,1.295-.11.45.147.788.427,1.016.842.228.414.268.846.121,1.295l-10.105,32.31c-.147.45-.427.784-.842,1.005-.414.22-.846.257-1.295.11-.45-.147-.784-.431-1.005-.852ZM60.549,41.001l-7.007-7.007c-.341-.341-.511-.745-.511-1.214s.17-.873.511-1.214c.341-.341.744-.511,1.208-.511s.867.17,1.208.511l7.985,7.985c.414.414.622.898.622,1.45s-.207,1.036-.622,1.45l-7.985,7.985c-.341.341-.744.511-1.208.511s-.867-.17-1.208-.511c-.341-.341-.511-.745-.511-1.214s.17-.873.511-1.214l7.007-7.007Z" />
</svg>