<svg xmlns="http://www.w3.org/2000/svg" width="450px" height="300px" viewBox="0 0 450 300">
  <path fill="#BF0000" d="M0,0h450v300H0V0z" />
  <path fill="#FFFFFF" d="M158.678,187.04c0.503-0.279,1.453-2.658,2.452-3.919c3.86-4.872,5.803-10.252,1.495-17.853c-0.998-2.8-1.581-6.257-1.382-7.651c0.714-5.011,6.338-3.117,9.651,3.249l1.295,2.134h25.913l0.078-6.283l0.078-4.717h8.138v2.513c0,1.902,0.515,4.42,1.145,5.597l1.145,2.89h33.305l-2.051-4.346c-1.15-2.437-4.038-4.609-7.844-6.294l-6.096-2.7v-7.419l4.452,0.726c8.723,1.423,18.132,9.135,19.601,15.823l0.71,3.231l6.21,0.074l6.21,0.074l-2.402-1.682c-2.629-1.841-3.045-5.25-1.227-10.034c1.494-3.929,2.847-4.757,7.811-4.778c7.608-0.032,10.419,1.09,12.526,5.002c1.898,3.524,1.908,5.15,0.062,9.635l-0.797,1.935h5.016c7.808,0,8.159-0.413,10.268-13.347c0.692-4.242,1.509-16.471,1.521-21.15c0.012-4.678,0.478-8.788,1.036-9.133s3.219-0.929,5.914-1.298l4.9-0.672l4.111,7.456c-7.413,3.728-6.534,6.701-6.656,20.29c-0.569,19.06-6.972,27.605-16.259,27.605h-5.13h-32.133c0,3.009,3.286,4.834,9.724,5.417L268,178.04v5.223h-5.787c-9.62,0-19.319-5.181-19.319-10.32V172h-68.295l-0.689,3.649c-0.878,4.649-6.163,11.23-9.928,11.23C162.42,186.948,158.075,188.246,158.678,187.04L158.678,187.04z M272.816,158.267l1.539-2.876l-2.117-1.548c-1.164-0.851-2.759-1.548-3.543-1.548c-2.04,0-3.097,5.227-1.457,7.203C269.245,161.917,271.079,161.512,272.816,158.267L272.816,158.267z M119.023,184.693c-3.735-1.365-6.636-5.187-6.636-8.741c0-4.891,1.364-7.957,5.757-12.939l3.714-4.212l2.73,1.084c4.355,1.73,8.43,6.264,10.499,11.681l1.917,5.019l-1.353,3.266C133.752,184.439,125.165,186.938,119.023,184.693L119.023,184.693z M126.14,179.972c3.418-1.3,3.745-4.888,0.901-9.885c-2.215-3.891-3.168-4.143-5.996-1.584c-3.351,3.032-2.255,12.547,1.445,12.547C122.938,181.051,124.58,180.565,126.14,179.972L126.14,179.972z M198.185,182.249c-3.599-3.977,1.984-9.195,5.778-5.401c1.803,1.803,1.667,3.705-0.411,5.783C201.306,184.877,200.513,184.821,198.185,182.249L198.185,182.249z M212.509,182.388c-1.535-4.001,2.025-7.593,6.209-6.265c1.388,0.441,2.056,1.706,2.056,3.896c0,3.446-0.033,3.473-4.646,3.804C214.346,183.951,212.887,183.373,212.509,182.388L212.509,182.388z M330.264,167.041c-0.002-6.59-0.329-21.299-0.727-32.687l-0.724-20.705l1.835-0.704c1.009-0.387,2.974-0.418,4.366-0.069l2.531,0.635l1.337,7.799c1.613,9.408,1.708,29.778,0.187,40.3c-1.105,7.647-4.809,16.113-7.421,16.963C330.602,178.914,330.267,176.128,330.264,167.041L330.264,167.041z M110.331,151.929c-1.445-1.741-0.712-4.715,1.359-5.509c0.739-0.284,2.307,0.189,3.485,1.05c1.686,1.233,1.886,1.971,0.941,3.471C114.54,153.443,111.954,153.885,110.331,151.929z M127.988,151.882c-1.527-1.84-0.598-4.696,1.831-5.628c2.39-0.917,6.093,2.871,5.166,5.285C134.124,153.782,129.743,153.997,127.988,151.882z M265.26,131.771c-3.986-2.792-2.968-9.338,1.452-9.338c2.77,0,6.044,2.626,6.044,4.847c0,1.137-3.9,6.213-4.774,6.213C267.837,133.493,266.612,132.718,265.26,131.771L265.26,131.771z" />
</svg>
