<svg xmlns="http://www.w3.org/2000/svg" width="450px" height="300px" viewBox="0 0 450 300">
  <path fill="#FFFFFF" d="M0,0h450v300H0V0z" />
  <path fill="#000000" d="M328.77,200.985c7.388-3.032,14.75-6.107,22.14-9.132c-0.39,1.119-0.902,2.398-2.214,2.963c-7.285,2.918-14.487,6.073-21.805,8.88c0.449-0.766,0.872-1.542,1.305-2.312C328.288,201.168,328.547,201.082,328.77,200.985L328.77,200.985z M305.765,190.445c4.239,2.442,7.296,7.162,5.247,11.871c-0.101,0.226-0.315,0.395-0.497,0.576c1.165-4.023-1.08-7.99-4.967-9.719C305.588,192.22,305.707,191.259,305.765,190.445L305.765,190.445z M244.817,189.119c0.99-0.71,2.365-0.779,3.604-0.777c1.244,0.073,2.56,0.12,3.657,0.683c0.519,0.512,0.026,1.117-0.506,1.439c-2.157,1.32-4.533,2.465-6.284,4.199c-1.141,1.763,2.248,1.84,3.328,1.79c3.061-0.118,5.751-1.354,8.244-2.897c-2.327,2.282-5.032,4.612-8.424,5.141c-2.296,0.363-5.983-0.795-5.025-3.651c1.228-2.268,3.774-3.432,5.973-4.709c-1.724-0.017-3.784-0.41-5.111,0.921C244.116,190.525,244.112,189.657,244.817,189.119z M200.363,187.282c2.154-0.842,4.103,0.375,3.792,2.727c-0.521,0.588-1.121,1.13-1.557,1.771c-1.318,0.204-3.119-0.161-4.016,1.047c-0.282,0.576-0.151,1.215-0.031,1.811c0.576,2.755,2.095,5.75,0.749,8.483c-0.603-3.285-2.25-6.462-2.245-9.87c-0.089-0.836,0.478-1.556,1.051-2.186c0.845-1.002,2.36-1.295,3.705-1.512c-0.983-0.996-2.175-0.398-2.873,0.548C198.865,189.058,199.202,187.825,200.363,187.282z M264.83,186.878c0.064-0.056,0.149-0.078,0.254-0.064c-1.159,1.628-2.68,3.545-2.47,5.606c0.024,0.741,0.515,1.699,1.537,1.693c0.499-0.211,0.628-0.751,0.878-1.139c-0.031,1.156-0.232,2.56-1.513,3.222C259.369,195.377,262.679,188.669,264.83,186.878L264.83,186.878z M74.012,171.486c0.609-0.921,1.182-1.924,2.247-2.532c-1.294,2.452-4.624,7.131-2.774,9.72c0.554,0.504,1.443,0.596,2.202,0.44c1.15-0.215,1.686-1.236,2.161-2.046c0.364,0.604-0.013,1.256-0.18,1.858c-0.785,2.588-2.891,5.039-5.792,3.3C68.773,179.765,72.471,174.124,74.012,171.486L74.012,171.486z M167.801,161.609c0.375-0.605,1.112-1.323,2.015-1.02c1.086,0.278,2.378,1.008,2.205,2.103c-0.291,0.373-0.664,0.693-0.994,1.041c-0.352-0.565-0.745-1.287-1.57-1.407c-2.975,1.126-2.699,5.366-3.123,7.957c-0.26,0.117-0.519,0.233-0.784,0.339c0.007-1.816-0.458-3.745-1.896-5.152c-0.326-0.467-1.049-0.233-1.539-0.457c-0.913-0.278-1.244-1.122-1.465-1.844c-0.11-0.488-0.307-1.075,0.077-1.51c0.808-0.197,1.441,0.404,2.017,0.783c1.483,1.195,2.509,2.734,3.348,4.3C166.446,164.992,166.82,163.198,167.801,161.609L167.801,161.609z M322.124,156.816c2.967-0.946,8.012,4.206,7.734,6.971c-0.405,3.662-2.639,1.972-4.824,0.996c-2.528,5.378-11.55,9.612-17.389,9.85c0.764-0.037,1.368-0.457,2.012-0.757c4.959-2.604,10.382-5.106,13.91-9.474c-0.69-0.126-1.382-0.236-2.08-0.315c-0.561-1.384-0.567-3.077,0.644-4.222C321.301,159.299,320.872,157.144,322.124,156.816 M325.135,160.244c0.228,1.025,0.296,2.07,0.315,3.113C331.37,164.695,327.856,161.849,325.135,160.244 M321.93,161.917c0.484,0.76,1.581,0.953,2.477,1.197c0.184-0.49,0.421-1.003,0.331-1.523c-0.324-0.537-0.764-1.239-1.577-1.236C322.459,160.661,322.181,161.329,321.93,161.917L321.93,161.917z M259.835,155.372c0.558-0.612,1.502-0.91,2.393-0.933c1.543,0.147,1.473,3.063,0.795,4.046c0.302,0.186,0.606,0.374,0.915,0.559c-0.081,0.648-0.138,1.3-0.153,1.952c-0.615-0.279-1.088-0.724-1.614-1.098c-2.511,3.708-7.321,6.935-12.155,6.429c4.413-1.344,8.603-3.41,11.117-7.209c-0.467-0.423-1.027-0.785-1.391-1.279C259.45,157.046,259.237,156.1,259.835,155.372 M260.748,156.152c0.241,0.579,0.703,1.056,1.183,1.506c0.202-0.501,0.467-1.045,0.171-1.56C261.648,156.022,261.191,156.065,260.748,156.152L260.748,156.152z M74.205,162.421c6.674-3.553,13.375-7.073,20.062-10.607c-0.191,1.234-0.69,2.662-2.093,3.28c-6.376,3.268-12.653,6.785-19.077,9.928C73.491,164.163,73.791,163.272,74.205,162.421L74.205,162.421z M213.925,143.654c0.514-0.63,1.093-1.234,1.743-1.771c-0.748,1.897,0.455,4.069,1.003,5.909c0.267,0.755,1.289,1.02,2.106,1.169c0.49,0.133,1.09-0.176,0.9-0.651c-0.451-1.223-1.027-2.411-1.686-3.562c0.234-0.772,0.499-1.537,0.723-2.311c0.309,0,0.622,0.003,0.937,0.006c0.271,1.431,1.075,2.729,1.815,4.015c0.002,1.39-0.096,2.84-0.677,4.158c-0.388,0.935-1.688,1.225-2.737,1.15c-1.393-0.228-2.317-1.247-3.135-2.142c-0.679,2.21-4.5,3.631-6.018,1.431c-1.379-1.759-1.024-7.274,1.76-7.519c-0.074,0.028-0.225,0.083-0.298,0.111c-1.907,2.829-0.238,8.306,3.455,4.692C213.835,146.776,213.828,145.212,213.925,143.654L213.925,143.654z M82.251,140.391c2.983-0.645,7.729,4.209,7.541,6.979c-0.36,3.716-2.604,2.019-4.821,1.052c-2.613,5.397-11.556,9.641-17.471,9.828c0.361-0.072,0.745-0.095,1.075-0.253c3.295-1.577,6.508-3.289,9.503-5.252c2.023-1.381,4.031-2.843,5.466-4.698c-0.698-0.134-1.399-0.261-2.111-0.318c-0.561-1.387-0.578-3.075,0.606-4.239C81.182,142.756,80.763,140.677,82.251,140.391 M85.048,143.844c0.265,1.034,0.291,2.097,0.34,3.15C91.375,148.307,87.684,145.465,85.048,143.844 M82.598,144.289c-0.328,0.412-0.709,0.886-0.657,1.406c0.58,0.618,1.559,0.875,2.444,1.011c0.086-0.296,0.19-0.587,0.258-0.885C85.005,144.968,83.366,143.326,82.598,144.289L82.598,144.289z M193.73,139.198c3.064,2.839,4.723,6.86,6.761,10.399c3.061,5.684,5.074,11.752,6.182,17.923c1.423,10.087-0.352,16.014,8.807,23.192c2.286,1.228,1.281-0.79,1.873-2.426c1.076-2.752,3.662-4.839,6.366-6.095c5.408-2.253,11.021-4.218,16.803-5.389c-10.76,0.064-21.519,0.139-32.279,0.243c0.537-2.216,1.084-4.43,1.638-6.642c1.141-1.27,2.577-2.314,3.994-3.352c6.169-4.316,13.292-7.51,20.506-10.37c-0.845-1.122-2.019-2.167-2.205-3.545c-0.436-1.935,0.512-3.848,1.704-5.458c0.707-0.914,1.368-1.913,2.455-2.542c1.091-0.641,2.568-0.684,3.762-0.228c4.395,1.776,8.853,4.481,12.065,7.44c-0.718,1.971-1.476,3.934-2.172,5.912c-3.18,0.602-6.377,1.178-9.477,2.044c0.315,1.665,0.876,3.481,0.033,5.094c-0.294-0.034-0.694-0.078-0.744-0.384c-0.12-1.4-0.915-2.673-1.732-3.865c-6.878,2.444-14.513,4.667-19.911,9.636c16.542,0.005,33.087,0.005,49.63,0c-1.06,1.975-2.194,3.924-3.274,5.891c-10.831,2.237-21.643,4.629-32.15,7.809c-4.41,1.37-8.816,2.877-12.727,5.112c-3.141,2.498,11.92,5.382,13.493,5.914c-0.131,2.367-0.153,4.74-0.322,7.104c-3.817-0.25-7.762-0.481-11.478-1.379c-11.934-3.047-16.987-15.574-17.701-26.676c-0.162-0.019-0.201,0.861-0.357,0.847c-0.458,1.947-0.997,3.676-1.765,5.554c-0.145,0.446-0.532,0.786-0.872,1.133c-2.463,2.425-5.089,4.73-7.835,6.921c-6.647,5.322-25.986,18.769-29.938,4.609c-3.703,2.26-7.205,4.866-11.371,6.287c-8.768,2.641-17.929,4.204-26.966,5.798c13.028-6.099,26.145-12.475,38.391-19.845c1.218-4.948,3.186-9.925,6.997-13.896c0.048-0.011,0.145-0.034,0.193-0.045c-0.304,0.548-0.449,1.148-0.762,1.693c-2.297,3.411-3.929,7.181-4.508,11.086c6.468-4.045,12.901-8.249,18.23-13.656c0.545-0.573,1.285-1.064,1.491-1.816c0.09-0.489,0.039-0.791-0.289-1.806c-2.31-5.412-5.588-12.165-7.765-16.924c0.745-2.404,1.436-4.821,2.188-7.224c1.003,0.56,1.656,1.44,2.371,2.236c2.083,2.808,4.751,5.493,5.131,9.084c-0.988-0.754-1.677-1.776-2.774-2.42c4.717,8.539,7.471,19.012-0.913,26.258c-4.803,4.779-10.434,8.898-16.152,12.865c0.007,0.231,0.317,0.293,0.501,0.42c2.047,1.083,4.607,0.974,6.893,0.637c6.233-0.779,11.475-4.776,16.307-8.316c4.568-3.525,8.871-7.293,12.976-11.203c-2.158-6.274-4.149-12.614-6.709-18.747c-1.563-2.768-3.065-5.569-4.427-8.41c0.55-2.171,1.242-4.317,1.829-6.483 M235.363,150.362c-0.501,0.168-0.92,0.637-0.71,1.106c0.077,0.356,0.536,0.479,0.777,0.743c1.003,0.988,1.953,2.016,2.825,3.091c2.177-0.671,4.388-1.253,6.585-1.869C242.345,151.394,238.775,149.121,235.363,150.362L235.363,150.362z M283.531,147.509c6.705-3.52,13.374-7.088,20.088-10.594c-0.19,1.094-0.559,2.292-1.62,3.013c-6.501,3.437-13.038,6.828-19.537,10.271C282.739,149.282,283.177,148.407,283.531,147.509L283.531,147.509z M249.702,134.241c0.62-0.304,1.529-0.282,1.949,0.273c2.68,3.813-5.568,9.769-9.147,9.991c1.857-1.329,4.125-2.332,5.788-3.915c0.668-0.655,1.391-1.364,1.511-2.261c0.046-0.752-0.758-1.395-1.579-1.52c-1.196,0.179-1.942,1.056-2.822,1.673c-0.21-0.545,0.352-0.927,0.683-1.326C247.14,136.069,248.202,134.904,249.702,134.241L249.702,134.241z M162.371,130.596c2.05-1.072,4.06-2.205,6.136-3.241c-0.204,1.106-0.628,2.387-1.896,2.938c-4.535,2.353-9.02,4.776-13.572,7.104c0.508-0.882,1.009-1.772,1.568-2.631C157.173,133.35,159.787,131.989,162.371,130.596L162.371,130.596z M359.876,123.704c5.698,3.108,9.55,9.463,7.032,15.712c-0.143,0.326-0.451,0.571-0.708,0.833c1.601-5.389-1.505-10.496-6.666-12.853C359.69,126.168,359.725,124.932,359.876,123.704z M287.849,124.942c0.513-0.532,1.014-1.073,1.577-1.568c-0.536,1.061-0.127,2.214,0.127,3.289c0.289,0.985,0.567,1.978,1.005,2.924c0.547,0.607,1.506,0.916,2.389,0.892c0.41-0.001,0.606-0.409,0.464-0.701c-0.432-1.186-0.994-2.337-1.633-3.453c0.123-0.819,0.482-1.607,0.734-2.406c0.306,0.023,0.617,0.045,0.929,0.072c0.204,1.453,1.101,2.74,1.804,4.044c-0.184,1.684,0.097,4.113-1.708,5.016c-1.878,0.823-3.783-0.492-4.845-1.927c-0.708,2.111-4.226,3.614-5.886,1.64c-1.608-1.974-1.245-6.877,1.443-7.797c-2.094,2.787-0.493,8.563,3.32,4.895c-0.015-1.34,0.055-2.677,0.057-4.018C287.674,125.542,287.565,125.179,287.849,124.942z M125.43,114.063c4.283,2.293,7.112,6.982,5.354,11.642c-0.09,0.31-0.366,0.543-0.613,0.771c1.263-4.017-1.197-7.938-4.99-9.638C125.288,115.914,125.342,114.987,125.43,114.063z M204.374,112.057c0.554-0.582,1.049-1.251,1.785-1.676c-0.486,0.626-0.282,1.398-0.166,2.088c0.272,1.287,0.677,2.554,1.156,3.798c0.151,0.52,0.782,0.741,1.303,0.941c0.471,0.15,1.038,0.289,1.517,0.089c0.302-0.225,0.16-0.609,0.053-0.886c-0.46-1.089-0.931-2.181-1.579-3.202l0.744-2.375c0.324,0.022,0.648,0.041,0.977,0.058c0.149,1.462,1.097,2.738,1.78,4.051c-0.172,1.696,0.097,4.009-1.638,4.995c-1.881,0.832-3.824-0.404-4.892-1.887c-0.72,1.952-3.96,3.555-5.695,1.807c-1.928-1.866-1.468-6.943,1.191-8.006c-1.952,2.804-0.531,8.57,3.313,4.951C204.35,115.223,204.27,113.634,204.374,112.057z M285.761,110.056c3.539-1.298,7.078-2.609,10.699-3.732c-0.111,0.697-0.409,1.493-1.209,1.826c-5.14,1.86-10.301,3.689-15.333,5.754c-0.999,0.468-2.026,0.949-2.805,1.67c0.556,0.52,1.388,0.715,2.139,0.949c-0.009,0.504-0.007,1.008-0.007,1.513c-1.064-0.218-2.129-0.548-2.954-1.176c0.048-0.716,0.033-1.437,0.149-2.149c0.12-0.646,0.898-0.95,1.461-1.301C280.394,112.092,283.094,111.089,285.761,110.056L285.761,110.056z M126.488,103.775l0.145,0.123c-0.32,0.345-0.156,0.8-0.105,1.197c0.175,0.853,0.425,1.699,0.771,2.515c0.114,0.365,0.561,0.54,0.942,0.662c0.333,0.059,0.872,0.198,1.01-0.179c-0.228-0.885-0.777-1.674-1.115-2.523c0.16-0.49,0.236-1.016,0.51-1.47c0.184,0.003,0.372,0.009,0.559,0.02c0.184,0.952,0.768,1.79,1.187,2.668c-0.024,0.903-0.057,1.841-0.458,2.69c-0.25,0.574-1.047,0.727-1.688,0.719c-0.937-0.112-1.552-0.783-2.106-1.367c-0.637,1.674-3.512,2.393-4.222,0.365c-0.428-1.513-0.365-3.742,1.349-4.442c-1.321,1.758-0.416,5.522,2.098,3.256c0.118-1.02-0.024-2.05,0.125-3.069C125.722,104.502,126.182,104.177,126.488,103.775z M155.818,102.016c4.393,2.127,7.72,7.955,4.835,12.383c-0.017-0.034-0.05-0.105-0.068-0.139c1.202-3.961-1.242-7.821-4.986-9.485C155.651,103.855,155.735,102.934,155.818,102.016L155.818,102.016z M173.518,100.409c0.495-1.022,1.793-1.88,3.145-1.684c1.915,0.51,1.945,2.949,1.767,4.533c2.393,2.115,2.984,4.238,1.599,7.146c-0.39,1.492-3.723,5.755-1.568,6.627c0.935-0.234,1.08-1.176,1.272-1.863c1.701-0.351,0.553,1.962,0.201,2.721c-0.578,1.32-2.172,2.171-3.077,0.593c-0.766-1.317-0.525-2.879,0.116-4.194c1.34-2.806,3.71-6.553,0.926-9.179c-1.169,2.676-3.059,5.088-5.236,7.248c-2.291,2.134-5.586,3.228-8.546,4.275c4.831-3.109,10.401-6.635,12.35-12.175l-0.048-0.137C174.768,103.516,172.796,102.515,173.518,100.409 M174.569,100.703c-0.697,0.503,1.783,1.194,2.163,1.445C176.921,100.582,175.987,99.629,174.569,100.703L174.569,100.703z M286.619,99.397c0.353-0.523,0.9-1.167,1.71-1.077c0.859,0.164,1.701,0.555,2.229,1.167c0.269,0.382,0.491,0.966,0.015,1.303c-0.25,0.207-0.429,0.559-0.738,0.663c-0.432-0.479-0.768-1.334-1.642-1.309c-2.902,1.194-2.616,5.301-3.059,7.875c-0.217,0.19-0.51,0.296-0.771,0.432c0-1.936-0.53-4.01-2.166-5.44c-0.788-0.083-1.725-0.162-2.166-0.81c-0.538-0.825-0.924-1.844-0.552-2.774c0.834-0.139,1.509,0.392,2.076,0.832c1.498,1.166,2.466,2.709,3.341,4.242C285.265,102.76,285.637,100.978,286.619,99.397z M73.495,100.026c0.457-0.683,0.961-1.387,1.752-1.826c-1.234,2.51-4.56,7.006-2.724,9.64c0.589,0.629,1.66,0.64,2.494,0.42c0.933-0.317,1.368-1.166,1.804-1.872c0.195,0.005,0.236,0.2,0.329,0.317c-0.491,1.637-0.966,3.412-2.422,4.653c-1.353,1.212-4.022,0.588-4.686-0.917c-0.482-1.083-0.322-2.281-0.039-3.386C70.699,104.567,72.017,102.24,73.495,100.026L73.495,100.026z M200.435,97.431c4.436,2.415,7.636,7.828,4.855,12.462c-0.088-0.25-0.029-0.505,0.026-0.754c0.904-3.746-1.652-7.349-5.107-8.88C200.24,99.314,200.349,98.374,200.435,97.431L200.435,97.431z M234.288,96.161c2.909,1.765,4.395,5.164,6.127,7.909c0.112,0.269,0.118,0.603,0.197,1.498c-0.692-0.638-1.502-1.254-2.531-1.442c-0.182,0.342-0.18,0.71-0.026,1.059c2.002,5.714,5.378,11.256,5.717,17.391c-0.04,4.374-1.278,9.135-5.117,11.838c-4.926,3.274-11.93,0.699-15.019-3.885l0.274-0.055c-0.075,0.008-0.225,0.023-0.3,0.031c-1.59-2.272-2.77-4.751-3.451-7.33c0.061-0.334-0.69-0.306-0.615,0.027c-1.584,5.975-4.715,12.537-10.915,15.133c-10.997,3.523-17.308-3.688-16.403-14.347c0.37-2.749,1.18-5.438,1.971-8.117c0.267-0.824,0.504-1.71,0.16-2.546c-0.11-0.048-0.329-0.145-0.438-0.193c-2.724,1.587-4.06,4.749-5.141,7.419c-0.696,1.936-1.239,3.913-1.603,5.915c-0.805,4.472-2.081,11.424-7.38,12.691c-12.079,0.507-9.052-16.261-7.197-23.785c0.18-0.014,0.363-0.025,0.548-0.034c-1.037,5.903-3.215,17.035,3.694,20.033c3.492,1.257,6.346-0.371,7.429-3.75c1.062-2.96,1.531-6.038,2.365-9.045c2.046-6.403,5.038-13.14,10.485-17.43c0.118,0.005,0.35,0.016,0.467,0.02c0.378,2.684-0.583,5.353-1.331,7.914c-0.512,1.854-0.95,3.723-1.388,5.59c-2.354,7.677,0.65,13.864,9.269,14.183c15.584,1.262,16.826-16.616,12.302-27.522c-1.173-2.305,0.517-5.056,1.45-7.247c0.054-0.195,0.33-0.209,0.495-0.309c3.397,7.292,3.275,15.36,4.925,23.054c1.632,6.754,9.903,11.65,16.324,7.759c1.031-0.596,2.1-1.601,1.758-2.738c-3.263-7.277-5.947-14.729-8.613-22.173c-0.177-0.615-0.513-1.203-0.569-1.835C232.559,99.872,233.372,97.984,234.288,96.161L234.288,96.161z M143.109,102.277c1.115-2.135,2.229-4.271,3.368-6.396c2.203,4.297,3.996,8.744,5.339,13.289c0.158,0.919-0.162,1.843-0.123,2.766c-0.769-1.158-1.653-2.258-2.459-3.397c1.896,14.374,3.517,28.798,4.87,43.228c2.956-1.731,3.348-5.112,5.535-7.51c0.511-0.793,2.145-1.606,2.433-0.17c0.197,1.159-0.838,2.159-0.661,3.309c0.048,0.944,0.918,1.754,1.953,2.039c1.789,0.548,3.733,0.303,5.567,0.083c0.828-0.154,1.863-0.287,2.266-1.016c-0.431-1.17-0.909-2.328-1.452-3.464c1.048-2.036,1.927-4.217,3.158-6.135c1.265,4.976,1.818,10.49-1.235,15.03c-3.086,4.96-11.257,4.135-13.178-1.407c-0.964,1.879-2.233,3.654-3.847,5.182c0.188,2.437,0.398,4.873,0.541,7.312c0.107,2.72-0.716,5.385-1.668,7.959c-0.462,1.106-0.917,2.219-1.487,3.289c-5.072,7.028-11.777,13.253-19.822,17.901c-11.511,6.626-34.406,14.5-44.453,2.085c-5.93,0.52-11.895,0.805-17.859,0.818c5.319-1.616,10.585-3.362,15.762-5.285c-2.054-9.277,1.65-18.69,5.331-27.141c1.162-2.592,1.62-3.783,3.838-6.841c-5.58,8.731-9.236,22.836-3.926,31.963c13.902-5.775,28.158-12.267,38.784-23.036c0.51-0.509,0.261-1.235,0.096-1.813c-0.385-0.972-0.821-1.929-1.264-2.88c-6.962,2.558-20.129,3.808-17.347-7.507c0.791-4.369,4.132-8.672,8.932-9.24c5.17,0.033,8.917,4.315,10.903,8.517c4.239-1.743,6.6-5.468,10.659-7.435c2.213-1.084,1.937,1.202,1.423,2.584c-0.626,1.186,0.131,2.534,1.066,3.44c1.301,1.245,3.44,1.365,5.253,1.086c-1.899-16.547-3.83-33.092-5.731-49.639C143.635,103.291,143.352,102.784,143.109,102.277 M117.242,153.086c-0.931,0.34-2.096,0.844-2.234,1.794c0.219,0.722,1.22,0.946,1.973,1.1c2.42,0.398,4.936,0.39,7.355-0.013C122.799,154.049,119.826,152.636,117.242,153.086 M133.091,159.845c0.221,4.493-0.572,9.493-3.361,13.202c-8.852,9.708-21.292,16.268-33.522,21.316c3.857,1.68,8.217,1.386,12.296,0.858c15.31-1.997,28.937-9.708,39.494-20.304c1.342-1.442,2.993-2.851,3.32-4.748c-0.32-3.219-0.744-6.43-1.097-9.647c-5.472,1.977-9.456-1.274-10.101-6.609C138.139,156.171,135.807,158.218,133.091,159.845L133.091,159.845z M248.003,97.696c0.521-0.733,1.018-1.543,1.907-2.005c-1.256,2.381-4.981,7.668-2.481,9.953c1.841,0.851,3.397-0.279,4.092-1.902c0.127,0.337,0.212,0.686,0.075,1.033c-0.418,1.457-0.974,2.983-2.231,4.086c-1.415,1.286-4.27,0.546-4.809-1.102C243.739,104.123,246.213,100.715,248.003,97.696L248.003,97.696z M98.864,101.804c1.255-2.063,2.461-4.146,3.685-6.221c1.988,4.402,3.561,8.939,4.653,13.56c0.072,0.841-0.199,1.679-0.287,2.515c-0.898-1.03-1.437-2.27-2.352-3.298c0.965,7.967,1.386,15.986,2.048,23.983c12.186-2.141,12.137-17.286,8.772-26.481c-0.289-0.864-0.821-1.701-0.81-2.617c0.195-1.702,0.867-3.334,1.577-4.924c0.18-0.371,0.298-0.844,0.828-0.955c3.36,7.3,3.276,15.364,4.908,23.058c1.712,7.185,11.042,12.211,17.355,6.994c0.578-0.524,0.975-1.292,0.729-2.01c-2.617-5.712-4.754-11.571-6.915-17.416c-0.738-2.033-1.463-4.071-2.187-6.107c-0.206-0.516,0.063-1.049,0.162-1.559c0.455-1.557,1.044-3.1,1.857-4.548c0.885,0.36,1.46,1.073,2.037,1.718c1.743,2.128,3.133,4.447,4.41,6.795c-0.061,0.3-0.12,0.601-0.167,0.903c-0.648-0.682-1.48-1.293-2.521-1.467c-0.166,0.334-0.158,0.699-0.015,1.038c1.845,5.005,5.443,12.132,5.717,17.021c-0.301,7.326-3.472,14.985-12.24,13.5c-6.315-1.103-9.926-7.161-11.422-12.705c-0.129,0.003-0.386,0.013-0.515,0.017c-1.642,6.179-4.68,12.776-11.154,15.397c0.563,7.912,1.152,15.823,1.555,23.743c0.059,3.905-0.127,7.809-0.355,11.71c-0.004,0.531-0.265,1.022-0.46,1.518c-0.809,1.938-1.378,4.037-2.475,5.842c-0.362-14.018-2.055-27.988-3.035-41.976c-9.042,0.077-12.191-7.763-11.407-15.536c0.442-2.883,1.312-5.703,2.142-8.521c0.111-0.57,0.353-1.711-0.291-1.994c-0.387-0.042-0.674,0.203-0.935,0.401c-3.99,3.62-5.343,9.176-6.21,14.214c-0.855,3.92-1.842,8.4-5.503,10.777c-3.271,1.794-7.951-0.332-9.225-3.583c-2.563-6.289-1.115-13.236,0.368-19.617c0.173-0.031,0.348-0.061,0.521-0.089c-0.928,5.65-2.202,11.831,0.425,17.201c1.324,2.772,5.583,4.312,8.317,2.559c1.373-0.931,2.023-2.387,2.525-3.77c1.182-3.503,1.625-7.152,2.849-10.646c1.871-5.289,4.592-10.52,8.662-14.562c0.431-0.381,0.863-0.922,1.548-0.928c0.375,0.204,0.241,0.652,0.25,0.972c-0.191,1.576-0.21,3.188-0.766,4.712c-1.016,3.128-1.701,6.326-2.446,9.505c-1.642,6.604,1.618,11.79,8.625,12.468c-0.677-8.834-1.447-17.664-2.148-26.498C99.389,104.524,99.496,103.106,98.864,101.804L98.864,101.804z M372.275,101.838c1.106-2.225,2.129-4.476,3.249-6.697c1.715,4.792,3.39,9.598,4.789,14.462c0.21,0.838,0.484,1.67,0.587,2.523c-0.145,0.676-0.388,1.339-0.409,2.033c-0.611-0.999-1.226-1.994-1.846-2.986c0.78,12.447,1.723,24.887,2.775,37.321c1.043,11.38,2.395,23.101-1.673,34.137c-2.305,6.378-6.455,11.662-12.831,14.702c-6.316,3.222-13.546,4.898-20.765,5.933c-0.409,0.126-0.574-0.276-0.806-0.459c6.44-2.629,12.632-5.719,18.411-9.288c5.942-3.668,12.188-8.477,13.994-15.38c1.047-3.495,0.687-7.132,0.457-10.69c-0.604-8.201-1.351-16.394-1.988-24.593c-0.981-12.635-1.969-25.272-2.952-37.907c-0.208-0.888-0.861-1.649-1.163-2.514C372.023,102.223,372.21,102.033,372.275,101.838L372.275,101.838z M355.963,104.007c3.764-3.35,7.414-6.792,11.03-10.259c0.083,6.036-5.636,10.25-10.011,13.685c0.555,1.605,0.685,3.189,0.271,4.846c-0.812-1.08-1.391-2.284-2.319-3.295c1.306,13.921,1.993,27.895,2.901,41.845c-0.037,0.268,0.241,0.438,0.419,0.629c2.678,2.525,5.345,5.058,7.852,7.708c5.684,6.494,12.082,15.156,8.862,24.105c-2.668-11.021-9.297-17.407-16.675-24.707c0.587,8.492,0.903,16.995,0.314,25.497c0.002,0.907-0.48,1.735-0.729,2.601c-0.72,1.944-1.299,3.935-2.221,5.82c-0.425-12.961-1.562-25.923-2.511-38.84c-5.703-5.44-11.649-10.601-17.784-15.598c0.978,12.011,2.44,24.003,2.943,36.041c0.053,3.272,0.015,6.545-0.072,9.816c0.011,2.064,0.044,4.197-0.819,6.16c-1.277,2.431-3.569,4.461-6.332,5.714c-6.488,2.942-14.024,1.721-17.315-5.009c-0.802-1.54-1.379-3.167-1.69-4.832c-0.18-0.729-0.372-1.571-1.139-2.027c-0.611-0.35-1.342-0.07-1.933,0.164c-5.943,2.441-8.563,9.119-9.867,14.714c-0.851,3.212-2.914,7.183-6.749,7.464c-4.01-0.094-7.765-3.115-9.249-6.524c-1.653-3.091-2.124-7.998-1.784-12.726c0.114-0.348-0.311-0.474-0.545-0.668c-0.928-0.674-1.307-1.744-1.294-2.752c-0.214-8.443,3.508-13.352,9-19.281c-5.312-4.816-10.761-9.524-15.886-14.55c0.441,7.997,1.144,15.999,1.184,24.008c0.013,3.434-0.169,6.865-0.335,10.295c-0.573,2.892-1.853,5.692-2.934,8.471c-0.596-15.953-2.065-31.891-3.134-47.829c-4.31-4.487-8.956-8.882-12.615-13.893c-2.774-4.232-5.888-8.34-9.733-11.935c-0.219-0.175-0.151-0.435-0.149-0.658c0.133-2.326,0.237-4.653,0.374-6.979c3.144,1.793,15.209,8.855,14.511,12.595c-1.34-0.335-2.543-1.006-3.882-1.279c-0.057,0.651,0.466,1.164,0.858,1.676c3.166,4.027,6.695,7.838,10.003,11.773c-0.619-10.192-1.432-20.378-2.118-30.568c-0.079-0.924-0.026-1.877-0.464-2.746c-0.212-0.346,0.101-0.663,0.274-0.963c1.047-1.716,2.06-3.45,3.053-5.191c0.048-0.122,0.278-0.435,0.348-0.134c1.883,4.149,3.348,8.433,4.43,12.782c0.333,1.041-0.077,2.102-0.201,3.142c-0.703-1.178-1.5-2.312-2.28-3.454c0.999,10.861,1.579,21.749,2.328,32.622c6.44,6.624,13.446,12.803,20.272,19.12c4.605-4.334,9.256-8.635,13.923-12.921c0.202-0.159,0.34-0.354,0.269-0.596c-1.404-13.52-2.811-27.041-4.217-40.561c-0.179-1.367-0.131-2.774-0.736-4.072c1.15-2.096,2.411-4.149,3.554-6.249c1.94,3.871,3.348,8.034,4.506,12.175c0.524,1.283,0.28,2.58,0.066,3.896c-0.769-1.102-1.507-2.219-2.282-3.317c1.1,10.889,2.217,24.6,3.215,34.704c5.36-4.884,10.802-9.698,16.132-14.609c-2.365-2.695-4.572-5.486-6.773-8.277c-2.284-3.012-4.233-6.164-7.314-8.563c-0.184-2.628-0.284-5.261-0.416-7.893c4.962,3.676,10.003,7.28,14.826,11.091c0.462,0.351,0.83,0.782,1.088,1.262c-0.569-4.469-0.72-9.046-1.463-13.461c-0.124-0.362-0.464-0.749-0.188-1.119c1.141-1.989,2.218-4.005,3.346-6.001c1.975,3.963,3.514,8.079,4.732,12.254c0.515,1.236,0.268,2.495,0.101,3.774c-0.806-1.14-1.621-2.28-2.418-3.422c0.629,4.704,1.045,9.427,1.537,14.143c5.202-4.719,10.672-9.25,16.145-13.668c-0.151-1.826-0.237-3.654-0.407-5.478c-0.031-0.579-0.659-1.162-0.219-1.716c1.187-1.913,2.312-3.855,3.42-5.804c1.298,2.528,2.174,5.199,3.113,7.835 M334.31,126.924c0.057,0.738,0.131,1.476,0.21,2.212c5.76,5.987,12.08,11.432,18.137,17.132c-0.747-11.126-1.587-22.251-2.328-33.379C344.883,117.48,339.541,122.157,334.31,126.924 M324.035,116.832c1.526,2.022,3.114,4.015,4.807,5.939c-0.136-1.783-0.34-3.565-0.525-5.346c-0.092,0.158-0.191,0.315-0.269,0.476C326.898,117.189,325.494,116.631,324.035,116.832 M314.254,145.613c-0.986,0.985-2.085,1.893-3.013,2.916c0.219,3.155,0.694,6.302,0.986,9.455c0.144,5.213-0.878,10.746-4.658,15.012c0.138-3.011,0.108-6.045,0.164-9.067c0.016-1.791,0.065-8.597-0.578-11.562c-3.905,3.657-7.868,7.236-11.89,10.777c5.51,4.96,6.915,13.576,1.476,19.112c-3.574,3.383-9.587,5.685-14.689,4.701c0.609,5.719,3.986,18.516,11.894,12.78c1.053-0.8,1.54-1.961,1.984-3.066c1.334-3.253,1.785-6.748,3.55-9.877c1.835-3.946,5.043-7.449,9.035-9.519c0.977-0.496,2.161-0.91,3.311-0.619c5.861,2.243,2.073,13.838,13.716,13.475c3.537-0.128,9.355-2.572,9.65-3.262c0.306-0.716-0.502-6.141-0.817-9.207c-1.54-14.983-3.013-29.97-4.518-44.954c-0.052-0.412-0.488-0.691-0.703-1.041C324.097,136.246,319.196,140.946,314.254,145.613 M291.203,167.109c-1.697,1.781-9.844,9.927-8.514,12.022c0.481,0.671,1.508,0.771,2.35,0.772c3.722-0.126,7.193-1.539,10.215-3.302c1.01-0.423,1.96-1.359,1.579-2.375c-1.142-2.737-3.399-4.968-5.433-7.131C291.351,167.1,291.253,167.106,291.203,167.109L291.203,167.109z" />
</svg>
