<svg xmlns="http://www.w3.org/2000/svg" width="450px" height="300px" viewBox="0 0 450 300">
  <path fill="#012169" d="M0,0h450v300H0V0z" />
  <path fill="#FFFFFF" d="M225,12.578L175.156,37.5H225V75h-49.844L225,99.922V112.5l0,0h-25.156L131.25,78.203V112.5h-37.5V78.203L25.156,112.5H0V99.922L49.844,75H0V37.5h49.844L0,12.578V0h25.156L93.75,34.297V0h37.5v34.297L199.844,0H225l0,0V12.578z" />
  <path fill="#C8102E" d="M166.771,75L225,104.115v8.385L150,75H166.771z M225,0h-16.771l-75,37.5H150L225,0z M0,112.5h16.771l75-37.5H75L0,112.5z M75,37.5L0,0v8.385L58.229,37.5H75z M123.75,0h-22.5v45H0v22.5h101.25v45h22.5v-45H225V45H123.75V0z" />
  <g>
    <path fill="#FFFFFF" d="M294.3,96c0,56.629,6.567,76.141,19.711,89.289c7.842,7.783,11.316,10.713,23.489,18.713c12.173-8.001,15.647-10.93,23.489-18.713C374.133,172.146,380.7,152.63,380.7,96c-9.561,4.095-15.008,6.077-22.895,5.955c-7.053-0.109-14.527-3.383-20.305-5.955c-5.778,2.572-13.253,5.846-20.305,5.955C309.308,102.078,303.861,100.096,294.3,96L294.3,96z" />
    <path fill="#FF9900" d="M366.663,139.35c-3.139-4.572-5.919-9.787-12.622-11.139c-5.089-1.025-4.708,0.308-7.969-1.81c-2.032-1.506-8.2-4.359-7.211-2.046l0,0c2.032,4.554,8.54,9.579,10.327,12.042c-2.277,2.463-2.735,2.195-2.436,6.771c3.959-3.95,4.032-4.363,6.576-3.764c5.579,5.306,0.998,16.709-3.615,19.189c-4.608,2.644-3.773-0.091-10.685,3.22c3.17,2.581,6.839-0.381,9.837,0.413c1.628,1.846-0.776,5.202,0.49,8.368c2.653-0.245,2.331-5.347,2.948-7.198c1.937-6.78,13.579-11.506,14.173-17.724c2.454-1.098,4.907-0.345,7.896,1.256C372.9,141.105,367.983,141.169,366.663,139.35z M352.44,130.542c-0.585,0-1.061-0.454-1.061-1.011s0.476-1.011,1.061-1.011s1.061,0.454,1.061,1.011S353.025,130.542,352.44,130.542z M321.123,136.629c-0.449,2.417-0.209,8.944,1.474,7.034l0,0c3.275-3.837,4.894-11.674,6.345-14.332c3.347,0.771,3.311,1.279,7.415-1.111c-5.515-1.492-5.928-1.361-6.563-3.787c2.318-7.184,15.03-8.649,19.484-5.919c4.608,2.649,1.678,3.225,7.978,7.502c0.916-3.878-3.547-5.588-4.213-8.486c0.948-2.236,5.189-1.778,7.533-4.322c-1.465-2.123-6.046,0.531-8.05,0.875c-7.193,1.533-17.017-6.073-23.058-3.665c-2.168-1.556-2.612-3.978-2.526-7.239c-4.708,3.973-2.354,8.091-3.424,10.051c-2.776,4.78-6.313,9.561-4.436,15.842C320.506,133.835,321.567,132.892,321.123,136.629z M320.561,128.91c0.517-0.263,1.161-0.073,1.433,0.422c0.272,0.494,0.077,1.107-0.44,1.365s-1.161,0.073-1.433-0.422C319.844,129.785,320.044,129.173,320.561,128.91z M343.641,151.201c2.399-0.884,8.141-4.454,5.551-4.839l0,0c-5.139-0.685-13.012,2.045-16.146,2.236c-1.043-3.129-0.567-3.365-4.835-5.479c1.51,5.27,1.846,5.542-0.005,7.316c-7.647,1.828-15.538-7.792-15.389-12.835c-0.005-5.13,2.027-3.034,2.603-10.391c-3.955,1.261-3.184,5.783-5.438,7.828c-2.499,0.381-4.281-3.315-7.778-3.91c-1.147,2.29,3.606,4.658,4.953,6.118c5.098,5.075,3.352,17.026,8.635,20.709c-0.277,2.572-2.218,4.186-5.193,5.805c6.005,1.787,8.481-2.268,10.794-2.408c5.728-0.209,11.847,0.204,16.518-4.576C341.451,153.151,340.054,152.775,343.641,151.201z M338.457,155.31c-0.304,0.481-0.952,0.635-1.456,0.345c-0.503-0.29-0.662-0.907-0.363-1.388c0.304-0.481,0.952-0.635,1.456-0.345C338.598,154.213,338.757,154.83,338.457,155.31z" />
    <path fill="#99CCFF" d="M305.136,173.271c2.522,4.785,5.474,8.617,8.876,12.014c7.842,7.783,11.316,10.713,23.489,18.713c12.173-8.001,15.647-10.93,23.489-18.713c3.402-3.402,6.354-7.234,8.876-12.014H305.136z" />
    <path fill="#FDC301" d="M292.5,93.751c0,58.988,6.839,79.316,20.532,93.008c8.168,8.109,11.788,11.157,24.469,19.493c12.681-8.336,16.3-11.384,24.469-19.493c13.692-13.692,20.532-34.02,20.532-93.008c-9.96,4.263-15.634,6.331-23.847,6.204c-7.347-0.113-15.13-3.524-21.153-6.204c-6.019,2.68-13.806,6.091-21.153,6.204C308.134,100.082,302.46,98.014,292.5,93.751z M295.198,96.898c9.361,4.027,14.699,5.978,22.419,5.86c6.907-0.109,14.223-3.329,19.883-5.86c5.66,2.531,12.976,5.751,19.883,5.86c7.719,0.118,13.057-1.832,22.419-5.86c0,55.686-6.431,74.871-19.303,87.801c-7.678,7.651-11.08,10.531-22.999,18.4c-11.919-7.869-15.321-10.749-22.999-18.4C301.63,171.774,295.198,152.585,295.198,96.898L295.198,96.898z" />
  </g>
</svg>
