<svg xmlns="http://www.w3.org/2000/svg" width="450px" height="300px" viewBox="0 0 450 300">
  <path fill="#012169" d="M0,0h450v300H0V0z" />
  <path fill="#FFFFFF" d="M225,37.5h-49.843L225,12.578V0h-25.157L131.25,34.297V0h-37.5v34.297L25.157,0H0v12.578L49.843,37.5H0V75h49.843L0,99.922V112.5l0,0h25.156L93.75,78.203V112.5h37.5V78.203l68.594,34.297H225V99.922L175.157,75H225V37.5z" />
  <path fill="#C8102E" d="M91.77,75l-75,37.5H0l0,0L75,75H91.77z M58.23,37.5H75L0,0v8.385L58.23,37.5z M123.75,112.5v-45H225V45H123.75V0h-22.5v45H0v22.5h101.25v45H123.75z M225,0h-16.77l-75,37.5H150L225,0z M166.77,75H150l75,37.5v-8.385L166.77,75z" />
  <path fill="#FFFFFF" d="M320.475,76.968h13.006l4.019-12.369l4.019,12.369h13.006l-10.522,7.645l4.019,12.369L337.5,89.338l-10.522,7.645l4.019-12.369L320.475,76.968z M387.849,123.117l9.363-6.803h-11.574l-3.576-11.007l-3.576,11.007h-11.574l9.363,6.803l-3.576,11.007l9.363-6.803l9.363,6.803L387.849,123.117z M289.53,129.275l-4.019-12.369l-4.019,12.369h-13.006l10.522,7.645l-4.019,12.37l10.522-7.645l10.522,7.645l-4.019-12.369l10.522-7.645H289.53z M341.962,211.359l-4.462-13.732l-4.462,13.732H318.6l11.681,8.487l-4.462,13.732l11.681-8.487l11.681,8.487l-4.462-13.732l11.681-8.487H341.962z" />
  <path fill="#C8102E" d="M326.25,78.845h8.594l2.656-8.174l2.656,8.174h8.594l-6.953,5.052l2.656,8.174l-6.953-5.052l-6.953,5.052l2.656-8.174L326.25,78.845z M385.643,122.401l5.794-4.21h-7.162l-2.213-6.811l-2.213,6.811h-7.162l5.794,4.21l-2.213,6.811l5.794-4.21l5.794,4.21L385.643,122.401z M288.167,131.151l-2.656-8.174l-2.656,8.174h-8.594l6.953,5.052l-2.656,8.174l6.953-5.052l6.953,5.052l-2.656-8.174l6.953-5.052H288.167z M340.598,213.235L337.5,203.7l-3.098,9.536h-10.027l8.112,5.893l-3.098,9.536l8.112-5.894l8.112,5.894l-3.098-9.536l8.112-5.893H340.598z" />
</svg>
