<svg xmlns="http://www.w3.org/2000/svg" width="450px" height="300px" viewBox="0 0 450 300">
  <path fill="#000066" d="M0,0h450v300H0V0z" />
  <path fill="#BD1021" d="M0,150L450,0v300L0,150z" />
  <path fill="#FFFFFF" d="M48.213,150L450,16.074v267.852" />
  <path fill="#000000" d="M438.359,95.923c-1.743-1.279-2.324-1.586-3.076-1.765c0,0-0.683-2.482-7.519-3.044c0,0-3.008-1.586-6.562-0.46c0,0-3.007-1.075-7.28,0.358c-4.272,1.432-8.134,3.095-10.971,5.039c-2.837,1.944-5.674,3.991-7.759,2.225c0,0,7.588-3.352,9.775-8.237c0,0-7.28,2.123-8.203,1.381c0,0-0.274-0.307,4.99-2.277c5.263-1.97,9.536-5.372,10.459-9.746c0,0-11.313,5.141-15.38,4.604c0,0,5.845-4.477,5.059-6.754c0,0-4.546,3.198-5.23,2.482c-0.683-0.716,1.504-2.456,2.734-3.249c1.231-0.793,2.666-2.558,1.162-3.889c0,0,10.288-6.011,11.313-11.435c0,0-1.606,0.947-2.563,0.921c0,0,5.503-4.375,4.648-9.337c0,0-0.889,1.049-2.085,1.228c0,0,3.076-4.784-0.308-7.7c0,0-9.228,6.446-11.21,7.521c0,0-0.239-1.202-0.649-1.867c0,0,3.794-1.765,3.589-6.37c0,0-12.1,7.214-15.449,10.309c0,0,0.307-2.098-0.274-3.479c0,0-20.268,16.551-40.843,23.765c0,0,0.205-1.33-0.752-3.172c0,0-3.623,2.865-11.142,6.191c-7.519,3.326-8.476,4.758-8.613,4.861c0,0-0.616-1.535-1.367-2.405c0,0,0.137,2.558-12.919,8.237c-13.056,5.679-20.644,19.033-10.117,21.539c0,0-7.841,6.145-5.845,14.735c0,0,0.239,2.098,2.974,2.968c0,0,2.7,1.151,6.631-2.277c3.931-3.428,8.135-3.632,8.647-3.428c0,0-0.923,0.818-2.426,2.865c0,0-0.274-0.154-0.376-0.384c0,0-1.914,2.2-3.247,4.937c0,0-1.469-0.435-1.504-3.121c0,0-6.774,8.753-11.621,14.069c-3.964,4.349-7.826,7.316-7.889,11.058c-0.093,5.533-0.929,5.467-1.772,7.062c0,0-2.278,3.411,0,5.321c2.278,1.91,6.745,1.296,8.203,0c0,0,8.932-4.912,10.025-8.936c0,0,2.096,0.409,5.833-3.206s8.294-5.935,9.57-6.685c1.276-0.751,4.01-2.183,8.567-2.115c0,0,3.099-0.136,4.648,0.546c0,0,0.638-0.682,0.911-1.296c0,0,2.825,0.478,3.19,0.955c0,0,0.365-1.091,0-1.364c0,0,3.737,0.682,2.643-0.478c0,0,4.466-0.478,5.013,0.341c0.547,0.819,3.554-3.074,3.828-0.479c0.274,2.594,1.55,6.824,3.972,9.748c0,0,1.041,2.192,3.593,3.488c2.552,1.296,2.188,1.16-2.096,11.392c0,0-10.048-1.433-11.416,5.653c0,0-3.567-1.034-6.836-3.351c-3.44-2.438-5.32-3.01-7.132,1.927l-14.161-0.316c0,0,0.137-3.965-3.862-4.272l0,0l-3.178-0.173c0,0-2.803,1.023-3.213,5.193c0,0-10.835-0.179-22.353-7.086c0,0-11.039,5.807-31.922,8.084c0,0,13.466,1.995,30.658,10.795c0,0,8.442-5.423,23.617-5.653c0,0,0.034,4.937,2.837,6.421l5.024-0.256c0,0,2.221-1.151,2.461-4.067l13.796-0.025c0,0,0.182,7.631,6.505,3.785c7.079-4.306,7.588-4.093,8.579-4.528c0,0,1.709,1.458,2.529,1.561c0.82,0.103,2.426,0.052,3.383,1.075c0,0-4.102,3.352-9.502,4.579c-5.4,1.228-6.289,3.505-7.553,5.398c0,0-19.584,2.66-21.943,3.172c0,0-2.768,1.075-6.118-0.435c-3.349-1.51-7.109,1.407-7.553,1.739c0,0-2.153-1.433-3.281-0.281c-1.128,1.151-1.128,0.997-2.837,1.1c-1.709,0.103-3.298,1.117-3.497,2.722c-0.137,1.1-7.747,2.582-5.013,7.178c0,0,0.501,0.384-1.196,2.047c-1.946,1.907,0.034,5.525,2.153,6.805c2.119,1.279,2.427,1.483,4.033,3.965s3.999,5.014,9.262,4.016c0,0,6.118,6.754,13.09,3.632c0,0,1.436,0.409,2.188,0.409c0,0,3.862,4.169,10.459,2.865c0,0,3.178-1.151,4.375,0.077c0,0,3.085,1.868,2.085,3.326c-1.299,1.893,0.068,2.686,0.82,3.351c0,0-0.547-1.177,0.034-2.098c0.581-0.92,0.957-0.997,0.991-1.867c0,0,0.137,2.123,1.914,2.225c0,0-0.786-0.358-0.512-1.433c0.274-1.075-0.445-1.714-2.051-3.249c0,0,0.171-0.818,0.991-0.844c0,0,2.837,3.095,12.509,1.765c9.673-1.33,12.954,0.767,12.851,3.479c-0.103,2.712-3.52,1.407-3.657,4.016c0,0,1.914-1.612,3.247-1.356c0,0,0.342,2.532,2.871,2.072c0,0-2.871-1.56-0.854-2.711c0,0,5.468-2.533,1.469-6.805c0,0,3.658-0.87,7.759,1.79s6.015,2.098,7.177,3.223c0,0,0.239-1.177-1.948-2.84c0,0,4.717,0.767,5.434-1.177c0,0-3.965,1.739-9.673-3.607c0,0,2.119-1.816,4.956-1.867c2.837-0.051,8.887,1.304,6.084,4.426c0,0,2.29-0.383,2.461-2.66c0,0,1.982,0.589,2.905,2.277c0,0,0.82-2.072-1.333-2.891c-2.153-0.819-1.634,0.003-4.409-1.279c-1.965-0.908-3.547-1.685-4.221-2.11c-0.871-0.55-3.931-1.19-4.973-1.036c0,0,2.597-3.991,5.639-0.154c0,0,2.017-1.228-0.103-2.686c0,0,0.991-0.998,4.34-1.177c0,0-2.051-1.688-6.05-0.895c-3.999,0.793-3.418,0.691-5.093,0.818c-1.675,0.128-3.076,0.358-5.093,0.998c0,0-0.034-0.998,2.392-1.816c2.427-0.818,11.587-2.737,3.999-6.983c0,0,0.581,1.637-0.308,2.609c0,0-0.957-1.356-3.316-1.996c0,0,0.239,2.276-0.103,3.197c0,0-9.194-3.914-11.142-4.118s-4.614-0.358-12.099,1.177c0,0-3.76,0.677-1.025-1.151c0,0,1.367-0.652,1.538-1.688c0,0-1.88,1.049-2.956,0.972c0,0-0.752-0.627-0.41-2.034c0,0-1.248,0.409-1.436,1.842c-0.188,1.433-1.145,2.021-3.931,1.036c-2.785-0.985-7.263-2.111-8.869-2.123c-1.606-0.013-5.297-0.243-9.057,1.561c-3.76,1.804-7.126,3.454-8.972,1.458c-1.846-1.996,1.838-2.478,1.658-5.347c-0.171-2.712-1.418-3.965-2.068-4.413c0,0,2.33-2.298,1.555-3.287c0,0,0.706-0.682,1.732-1.04l21.715-2.251c0,0-0.182,2.592,1.96,3.513c2.141,0.921,3.782,1.399,6.38,0.273c0,0,1.96,2.149,5.97-0.58c0,0,3.281,0.341,4.329-0.375c1.048-0.716,3.099-1.945,2.871-3.889c0,0,2.871,0.17,3.6-1.876l34.406-3.752c0,0,4.876-0.409,4.056-2.968c-0.82-2.558-2.825-2.66-4.648-2.49S354.7,188.47,354.7,188.47s-5.742,0.58-3.691-2.763s3.372-2.149,4.648,1.705c0,0,2.233-1.774,3.145-3.138c0,0,5.696,3.786,6.107,0.273c0.41-3.513-0.091-1.841,1.413-2.626s1.367-1.569,1.367-1.569l28.573,0.682c0,0,2.324-0.137,2.279-2.968c-0.046-2.831-1.595-3.001-1.96-3.035l-26.113-0.648c0,0-0.775-0.239-0.456-0.716c0.319-0.478,1.048-0.512,3.053-0.103c0,0-0.775-3.923-0.365-6.719c0,0,3.099-1.945,4.785-5.185c0,0,1.595,0.443,1.732,2.183c0,0,3.236-3.241,3.919-6.037c0,0,0.137-1.774,2.78-0.443c0,0-0.067-4.398,0.365-7.47c0,0,0.137-2.319,3.874,0.273c0,0,0.547-1.313-0.091-2.609c-0.638-1.296-1.025-1.569,1.117-2.268c2.142-0.699,5.059-2.968,5.765-5.031c0,0-2.917,0.205-4.466,0c0,0,4.01-4.826,2.894-7.879c0,0-2.119-0.785-5.628,1.347c0,0-1.846-0.818,0.82-2.592c0,0-4.17,1.194-6.927,0c-2.757-1.194-3.327-1.006-0.16-3.053c3.167-2.047,8.704-7.197,9.57-8.237c0,0,2.689,0.751,7.975-3.598c5.286-4.349,2.939-0.648,7.382-2.848c0,0,1.042-0.512,1.914-0.512c0,0,5.446,0.051,16.007,0s12.27-4.656,12.27-5.398c0-0.742,0.034-1.355,0.376-1.893c0.342-0.538,0.889-0.538,0.957-2.482C439.999,101.167,440.102,97.202,438.359,95.923z M292.247,164.249c0,0-1.914-0.921,0.239-2.098c2.153-1.177,4.477-2.302,4.785-2.788C297.271,159.362,296.246,160.82,292.247,164.249z M294.1,152.363l0.172-0.561c0.226-0.08,0.503-0.152,0.843-0.209c1.64-0.273,1.709-1.057,1.504-1.399c-0.205-0.341-1.185-0.341,0.41-2.149c0,0,0.569,0.154,0.957,0.597c0.312,0.357,1.54,2.926-1.586,3.69C295.643,152.518,294.1,152.363,294.1,152.363z" />
  <path fill="#FFC221" d="M343.948,190.256c0,0,0.319-0.58,1.914-0.682c1.391-0.089,2.392,0.853,2.392,0.853c-2.062,0.819-2.062,1.637-2.062,1.637C345.679,190.857,343.948,190.256,343.948,190.256z M341.145,192.912c1.153-0.022-0.434-1.987-0.434-1.987l-0.94,0.158c0.188,0.154,0.496,0.409,0.667,0.98C340.609,192.635,340.244,192.93,341.145,192.912z M339.996,192.678c0.014-0.153,0.202-1.316-1.563-1.705c-1.777-0.392-2.666,0.341-2.666,0.341c2.096,0.46,1.709,1.705,1.709,1.705C338.615,192.626,339.996,192.678,339.996,192.678z M345.542,192.439c0,0-1.196-2.677-4.432-1.765c0,0,1.162,1.313,0.923,2.055C342.034,192.729,344.462,192.304,345.542,192.439z M309.575,196.353c0.136,1.075,1.675,0.818,1.675,0.818s14.526-1.816,20.029-2.459c5.503-0.643,5.824-1.286,5.639-2.145c-0.171-0.795-1.379-0.793-1.379-0.793s-22.786,3.249-24.529,3.505C309.268,195.535,309.575,196.353,309.575,196.353z M351.307,188.67c0,0-2.005-1.075-4.307,0.597c0,0,1.276,0.324,2.074,1.006C349.074,190.273,350.284,188.953,351.307,188.67z M335.084,199.073c3.184,0.463,4.278-0.199,5.127-1.875c0.223-0.44,1.199-3.806-0.214-4.063c-0.556-0.101-1.541-0.043-2.246,0.258c-1.098,0.469-2.117,1.019-1.754,1.569c0.775,1.177,0.926,1.45,0.638,1.535c-0.787,0.233-1.366-0.458-1.526-0.938c-0.2-0.598,0.434-0.982-1.709-0.665c-0.876,0.13-1.596,0.103-1.596,0.478h0C331.802,195.373,331.802,198.596,335.084,199.073z M351.397,178.87L351.397,178.87c-1.141,0.22-2.955,0.035-2.954,0.035c-0.566-0.065-1.039-0.022-0.917,0.487c0,0,0.41,1.658,1.504,1.98c1.094,0.322,1.117,0.51,1.891-0.411c0.775-0.921,2.168-0.476,1.561-1.723C352.319,178.908,351.871,178.779,351.397,178.87z M352.834,193.94c0.615-0.059,3.145-0.597,2.449-2.268c-0.695-1.672-1.39-2.26-2.563-2.669c-1.174-0.409-1.469,0.145-2.472,0.904c-0.001,0-0.73,0.443-0.137,0.75c0,0,2.336,1.674,2.324,2.171C352.424,193.325,352.219,193.999,352.834,193.94z M332.697,191.237c0,0-0.564,0.701,0.496,0.537c1.291-0.2,1.042,0.043,2.461-0.917c0,0,0.872-0.925,2.495-0.349c0,0,1.367,0.448,2.478-0.089c1.111-0.537,1.367-0.499,1.965-0.448c0.598,0.051,0.558,0.18,1.356-0.403c0.797-0.583,2.182-0.135,3.053-0.864c0.872-0.729,1.965-0.115,0-1.522c0,0-0.41-0.409-0.376-0.755c0,0,0.752,0.217,1.35,0.755c0.598,0.537,1.589,0.371,1.76,0.281c0,0,0.103-1.753,1.846-3.364c1.743-1.612,1.76-1.739,0.735-1.753c-1.025-0.013-2.752-0.409-3.332,0c-0.581,0.409-5.691,3.76-8.664,4.323C337.345,187.233,334.611,188.077,332.697,191.237z M364.55,173.497c0.359,0.397,0.839,0.627-0.298,0.64c-1.137,0.013-3.581,0-3.581,0s-1.658,0.14-0.82-0.537c0.838-0.678,0.718-1.484,0.29-1.535s-0.034,0.409-0.29,0.729c-0.256,0.32-0.838,0.614-1.418,0.601c-0.581-0.013-1.094,0.421-0.171,0.754c0.923,0.333-0.103,0.551-0.581,0.538c-0.478-0.013-2.786,0.179-0.444,0.46c2.341,0.281-0.211,0.214,1.504,1.193c1.897,1.084,0.53,3.386-0.188,3.59c0,0-0.786,0.428,0.205,0.31c0.991-0.118,1.538-0.259,0.838,0.278c-0.701,0.537-2.102,2.328-4.05,0.959c0,0-0.889-0.422,0.701-0.499s-1.299-0.416-1.777-0.739c-0.478-0.323-2.307-2.19-1.162-1.96c1.145,0.23,0.735-0.435,0.051-0.678c-0.684-0.243-0.82-1.292-0.051-1.061c0.769,0.23,1.675,0.659,2.29,0.63c0.615-0.029,0.445-0.285-0.872-0.694c-1.316-0.409-1.863-0.473-1.555-1.586c0.308-1.112,1.743,0.435,1.402-0.397c-0.341-0.832-1.589-0.422-0.923-1.522c0.667-1.1,0.82-0.627,1.128-0.486c0.308,0.141,0.8,0.036-0.068-0.614c-0.548-0.41,0.049-0.965,0.204-1.101v0c0,0,2.949-2.776,5.414-0.895c2.465,1.88,2.704,2.162,2.738,2.2c0.034,0.038,0.29,0.243-0.376,0.832c-0.667,0.589-0.017,0.575,0.718,0.217C364.14,172.768,364.191,173.1,364.55,173.497z M358.091,170.963c-0.154,0.077-0.017,0.333-0.547,0.269c-0.53-0.064-0.512,0.307-0.512,0.307c0.12,0.316,0.84,0.434,1.298,0.268C359.57,171.358,358.244,170.887,358.091,170.963z M351.495,181.925c0.872,0.051,1.333,0.217,1.606-0.25c0.274-0.467,1.453-0.275,0.667-0.928c-0.786-0.652-1.316-0.281-2.512,0.679v0C351.256,181.426,350.623,181.874,351.495,181.925z M340.775,199.346c0,0,2.06,0.617,4.22-1.109c2.005-1.603,2.132-5.15,0.456-5.343c-1.732-0.2-3.248,0.116-3.25,0.116c-0.556,0.119-0.949,0.413-0.807,0.776c0.445,1.133,0.069,2.763-0.729,3.974C339.823,199.039,339.686,198.886,340.775,199.346z M349.507,175.471c1.276,0.017,2.415-0.17,2.495-0.597c0.08-0.427,0.388-0.921-0.615-0.767c-1.003,0.154-2.267,0.196-2.768-0.008c-0.502-0.205-0.839-0.276-0.923-0.086c0,0-0.239,0.443-0.205,0.87C347.525,175.309,348.231,175.453,349.507,175.471z M347.251,175.973L347.251,175.973c0,0-0.034,0.972,0.946,1.1s2.2,0.123,2.708,0.023c0.388-0.077,1.086-0.218,1.143-0.79c0.057-0.571,0.217-0.998-0.991-0.699c-1.208,0.298-2.666,0.103-2.814,0.068C348.094,175.641,347.274,175.393,347.251,175.973z M348.103,178.631c0.626,0.051,2.447,0.209,3.529-0.14c0,0,0.399-0.079,0.22-0.784c0,0-0.014-0.457-0.989-0.272c-0.974,0.185-2.384,0-2.854-0.103c-0.47-0.102-0.852,0.009-0.61,0.874h0C347.399,178.207,347.476,178.58,348.103,178.631z M367.952,214.166c0,0-0.843-1.075-2.131-1.586c0-0.001,0.262,1.142-0.046,2.464C365.776,215.045,367.451,214.968,367.952,214.166z M364.04,225.593c0,0,0.137,1.049,4.17,0.959c0,0-1.06,1.19-2.974,0.947c0,0,1.282,1.483,6.391,4.604c0,0-1.008,0.128-2.461-0.128c0,0,0.154,0.499,0.512,0.703c0.359,0.205,1.942,1.169,2.033,1.739c0,0-2.974-0.64-4.631-2.021c-1.658-1.381-3.691-2.123-5.11-2.328c-1.418-0.205-3.76-0.397-5.879-0.128c0,0,4.375,2.878,2.136,5.436c0,0-0.41-2.251-2.341-3.172c0,0,0.325,0.985-0.034,1.957c0,0-1.128-1.279-1.982-1.688c0,0,0.53-2.763-3.691-3.505c0,0-5.845-0.818-8.545,1.049c0,0,0.479,1.049,1.162,1.33c0,0-1.846,0.256-2.426-0.128c-0.581-0.384-0.718-0.896-1.538-0.87c0,0,0.204,1.102-0.445,1.561c0,0-2.392,0.589-4.443-1.369c0,0,0.308,0.448,0,1.087c0,0-2.81-1.279-3.862-2.251c0,0-1.606,0.512-1.982,1.688c0,0-0.923-0.052-1.162-0.972c-0.239-0.92-1.367-2.251-2.632-3.197c0,0,0.41-0.154,5.742,1.1c5.332,1.253,8.989,0.947,11.108,0c2.119-0.947,3.316-0.764,3.828-0.587c0,0-0.445-0.858-3.179-0.52c-2.734,0.338-5.605-1.262-7.485-1.639s-2.768-0.402-2.768-0.402s-1.352,0.173-2.689-1.07c0,0-0.968-1.258-5.907-0.331c0,0-3.709,0.672,1.179-1.681c0,0-3.674,0.767-4.682-1.369c0,0-0.803,1.817-5.657,0.665c0,0,3.383,2.724-3.435,2.021c0,0-0.718,0.153-3.316-1.919c0,0-1.333-0.959,1.025-0.269c0,0,0.667,0.371,1.795,0.205c0,0-0.667-0.346-3.025-0.998c-2.358-0.652-4.221-2.213-5.178-3.575c0,0,0.53,3.077,3.929,4.536c0,0,3.214,1.661,4.291,2.736c0,0,2.444,3.607,8.459,2.903c0,0,0.615,1.996,5.041,3.095c0,0-6.853,1.727-9.604-0.409c-2.751-2.136-1.897-2.251-2.956-2.213c-1.06,0.038-1.897,0-2.102-0.375s-0.205-0.597,0.683-0.529c0.889,0.068,1.481,0.171,1.891,0.068c0.41-0.103,0.524-0.657-1.412-0.584c-1.937,0.073-8.225-0.729-12.236-4.669c0,0,2.005,4.366,8.659,4.997c0,0,1.751,0.134,1.846,0.307c0,0,0.319,1.04-1.481,1.279c-1.8,0.239-5.888,0.878-10.322-3.974c0,0-2.233-2.456-4.58-3.274c0,0,1.759,1.441,2.597,2.183c0.892,0.789,1.048,0.938-0.706,0.938s-4.124-0.034-6.357-3.24c0,0-1.78-2.73-2.829-3.601c-1.253-1.04-4.257-1.941-4.439-6.182c0,0-0.114-0.415,1.071-1.609c1.184-1.194,1.139-1.961,0.752-2.763c-0.38-0.786-1.169-2.183,3.195-4.742l0,0c0.292-0.171,1.504-0.937,1.846-0.464c0.464,0.643-0.291,1.471-1.948,3.134c-1.657,1.663-1.179,2.903-1.179,2.903c0.205-0.806,1.35-1.931,1.35-1.931c0.171,0.409,0.171,0.844,0.034,1.599c-0.137,0.755,0.393,1.369,0.393,1.369c0.444-0.716,0.547-1.561,0.188-2.66c-0.359-1.1,0.051-1.381,1.213-2.545c1.162-1.163,0.523-2.126,0.523-2.126c-0.575-0.818-0.114-1.565-0.114-1.565c0.521-0.929,2.025-1.319,3.02-1.412c1.094-0.102,1.914-0.409,2.324-0.853c0.41-0.443,0.945-1.602,3.281,0.188c0,0,3.817-3.683,7.93-1.79c0,0,1.367,0.682,3.851,0.58c0,0,0.615-0.103,0.866,0.529c0.25,0.631,0.729,0.699-0.342,1.177c-1.071,0.478-2.074,0.46-1.436,1.296c0.638,0.836,0.182,1.262-1.686,3.189c0,0,2.028,1.228,2.142,3.292c0.113,2.064,0,2.456-1.367,3.889s-0.57,3.035,0.706,3.616c1.276,0.58,3.374,1.16,7.633-1.177c4.259-2.337,9.182-2.729,12.19-2.012c3.008,0.716,7.838,2.984,9.912,2.132c2.074-0.853,2.278,0.136,2.643,0.46c0.365,0.324,0.889,0.733,4.945-0.119s8.408-1.603,11.883-0.154c3.475,1.45,5.708,2.49,8.123,3.308c2.415,0.818,5.491-0.29,5.651-2.729c0,0,2.415,1.501,0.752,2.626c-1.663,1.126-4.922,3.513-12.441-0.324c0,0-0.137,0.529,0.843,1.142c0,0-0.889,1.518-3.988-0.341c-3.099-1.859-7.36-2.916-11.507-0.46c0,0,2.461-0.29,7.177,2.183c4.717,2.473,6.631,1.166,9.091-1.148c0,0,2.188,1.012,4.557,1.506c0,0-1.937,0.665-4.717,2.32c0,0,0.684,0.869,3.213,0.375c2.529-0.494,3.235-0.904,4.511-0.597c0,0-1.23,1.484-5.446,2.081c0,0,2.416,0.545,5.081-1.16c2.666-1.705,5.696-1.262,6.334,0c0,0-2.626-0.435-4.54,0.883c-1.914,1.318-3.571,1.177-5.263,1.19c-1.691,0.013-2.05,0.371-2.392,0.537c0,0,0.838,0.281,2.99,0.166c2.153-0.115,8.903-0.589,10.646,2.213c0,0-3.349-0.486-5.759-0.013C366.364,226.181,364.535,225.733,364.04,225.593z M328.92,218.762c15.669,9.644,28.095,3.299,28.095,3.3c-5.127-0.665,2.392-2.762-5.059-2.072c-7.451,0.691-8.305,0.588-6.562-0.507c1.743-1.096-1.756-0.503-4.99-0.312C335.14,219.484,328.92,218.762,328.92,218.762z M289.764,219.744c0,0-2.074-1.586-1.823-3.786c0.251-2.2,0.209-2.473-0.021-2.933c0,0-0.378,0.219-0.367,1.075c0.011,0.803-0.103,1.637-0.182,1.79c0,0-1.071-1.825-1.504-2.166c0,0,0.365-1.91-0.228-2.729c-0.592-0.818-1.166-0.87-1.846-0.614c-0.941,0.354-1.651,1.228,1.51,3.82c0,0,1.178,0.938,1.999,3.019C288.124,219.301,289.491,219.625,289.764,219.744z M299.338,219.483c-1.47-0.366-2.375-1.514-2.752-2.282c-0.376-0.767-1.333-2.187-3.11-2.98c-1.777-0.793-1.846-1.407-1.846-1.407h-0.068c-3.435,2.366-1.304,4.716-1.304,4.716C293.068,220.792,299.338,219.483,299.338,219.483z M303.664,199.869c0,0,1.504-1.289,1.846-1.818c0,0-2.415,1.296-3.988,1.944c-1.572,0.648-7.588,3.598-6.266,5.576c1.322,1.978,1.185,2.081,0.98,2.899c0,0-3.577-1.893-2.324-4.963c0,0,0.568-1.237,2.074-2.626c1.367-1.262,0.547,0.273,3.326-1.313c0,0,2.21-1.313,3.372-3.087c0,0-1.458,0.921-1.982,1.075c0,0-3.213,0.58-4.511,1.944c-1.299,1.364-4.056,3.735-3.122,6.378c0,0-3.213-0.392-3.942-3.735c0,0-5.947,7.333,6.539,10.744c0.001,0.001,2.279,0.607,4.376,0.769c0,0-0.16-1.245,0.957-3.445s0.447-3.835,0.196-4.381c-0.251-0.546-0.401-0.343,0.725-1.289C303.305,203.378,301.385,201.909,303.664,199.869z M332.258,216.475c0.026,0.003,0.051,0.006,0.08,0.01C332.338,216.485,332.307,216.481,332.258,216.475c-1.175-0.14,0.463,0.466-5.422-1.986c-6.016-2.507-9.502,0.384-9.502,0.384c-0.002-0.82-0.786-2.059-0.786-2.059c-1.025,1.599-2.734,2.674-6.767,2.801c-4.033,0.128-7.416-2.801-7.417-2.801v0h0l0,0c-0.137,7.712,15.551,8.651,21.566,5.896C329.215,216.29,331.805,216.426,332.258,216.475z M346.625,224.981c-1.094,0.077-4.136,0.767-11.45-1.97c-7.314-2.737-10.185-2.277-10.185-2.277c5.093,2.047,5.469,1.1,11.119,3.589C342.499,227.136,346.625,224.981,346.625,224.981z M362.996,227.101c-5.468-0.383-5.981-2.379-10.322-2.379c-4.341,0-5.845,2.688-5.845,2.688c0.479-0.305,2.632-1.042,5.024-0.155C356.429,228.952,362.996,227.101,362.996,227.101z M347.433,198.186c1.481-0.119,4.785-1.705,4.443-3.735c0,0-0.114-0.494-0.98-0.443c-0.866,0.051-0.16-0.478,0.205-0.58c0.365-0.102,1.492-0.52-1.435-2.405c0,0-0.483-0.435-1.048-0.256c-0.446,0.142-2.006,0.781-2.006,1.688c0.001,0.372,0.297,0.751,0.297,0.751h0c0,0,1.196,1.505-0.297,4.28C346.612,197.487,345.952,198.305,347.433,198.186z M253.352,172.904C253.352,172.904,253.352,172.904,253.352,172.904L253.352,172.904L253.352,172.904z M370.777,219.095c0,0,1.67-0.057,2.643,0.401c0,0,0.638-0.546,2.165-0.708C375.585,218.788,374.582,217.781,370.777,219.095z M285.821,160.693c0.41-0.614,1.538-2.711,1.709-3.709c0.171-0.997-0.068-0.946,0.923-1.228c0.991-0.281,7.041-0.946,8.716-0.409c1.675,0.538-0.479,0.922-3.11,2.2c-2.632,1.279-4.751,0.46-4.751,0.46c0.786,2.149,5.912-0.154,7.246-0.793s1.573-0.896,1.162,0.614c-0.41,1.51-2.017,1.996-5.639,3.812c-3.623,1.816,0.41,3.505,0.41,3.505c-1.45,0.895-4.375,0.972-6.22-0.154C284.42,163.865,285.411,161.306,285.821,160.693z M290.162,156.83c0.171,0.358,0.412,0.307,0.753,0.332c0.341,0.025,0.854-0.179,0.922-0.409c0.068-0.23-0.579-0.485-0.922-0.409v0C290.915,156.344,289.991,156.472,290.162,156.83z M395.944,175.529c0,0.001-18.661-0.434-36.092-0.844l0,0c0,0-0.997,0.508-0.094,1.553c0.769,0.892,0.765,1.174,0.701,1.767c-0.065,0.593,34.084,0.951,34.084,0.951S394.483,176.764,395.944,175.529z M389.108,184.1c-2.456,0.249-29.482,4.333-34.145,5.038l0,0c-0.71,0.107-0.286,0.569-0.286,0.57c0.371,0.449,0.91,1.134,1.189,1.649c0,0,0.353,0.603,1.934,0.421l32.219-3.653c0,0,4.694-0.034,3.691-2.49C392.827,183.468,391.797,183.827,389.108,184.1z M260.871,173.526c0,0,10.071-0.307,20.735,4.537c0,0,5.14-4.408,21.682-3.043c0,0,0.032-1.461,0.146-2.585c0,0-11.621-0.341-22.285-6.821c0-0.001-9.547,4.698-27.798,7.291c0.002,0.001,9.126,2.353,11.176,3.343C264.528,176.246,265.018,174.72,260.871,173.526z M328.453,179.836c0,0-0.457-8.084,1.094-10.164s1.868-1.672,4.511,0c2.643,1.671,6.061,3.479,6.608,3.683c0.547,0.205,1.322,0.409,1.322,1.876c0,1.467,0.274,1.91-2.005,0.068c-0.341-0.276-1.407-1.251-2.176-1.496c-2.042-0.652,0.491,0.457,1.219,1.496c0.617,0.881,1.094,0.784-0.501,1.194C336.93,176.904,331.415,178.745,328.453,179.836L328.453,179.836z M334.236,174.048c0.308,0.517,2.478,3.835,2.221,2.185c-0.256-1.65-0.376-4.387-1.897-4.042S334.236,174.048,334.236,174.048z M313.3,177.517h-0.433c0,0-0.319-2.336,0.091-5.833h-1.959l0-0.001c0,0-0.775,4.468,0.205,7.231l16.52,0.307c0,0-0.205-3.206,0.046-7.538h-2.347c0,0-0.319,3.598-0.023,5.815l-0.387,0.008c0,0-0.296-3.112,0.022-5.823h-1.937c0,0-0.319,3.326-0.068,5.849h-0.365c0,0-0.274-2.916,0.046-5.849h-1.914c0,0-0.352,3.012,0.025,5.808l-0.457-0.01c0,0-0.388-3.053,0.023-5.798h-2.119c0,0-0.524,2.814-0.023,5.833h-0.433c0,0-0.478-2.882,0.046-5.833h-2.119c0,0-0.501,3.189-0.068,5.833h-0.41c0,0-0.342-3.087,0.114-5.833h-1.982C313.391,171.685,312.868,174.379,313.3,177.517z M342.797,176.485c0,0,0.422,3.078,3.065,3.859c0,0,1.526,0.379,1.208-0.968c0,0-0.262-1.126-0.478-1.595c-0.217-0.469-1.276-0.767-1.39-0.818c-0.114-0.051-0.251-0.375,0.479-0.136c0.729,0.239,0.843,0.265,0.786-0.247c-0.057-0.512-0.486-0.306-1.156-0.633c-0.257-0.126,0.028-0.296,0.301-0.236c0.274,0.059,0.923,0.256,0.934-0.802c0,0,0.145-0.588-0.661-0.631c-0.877-0.047-0.809-0.439-0.535-0.499s1.192,0.577,1.447-0.469c0.262-1.075-1.265-0.456-1.06-1.01c0.205-0.554,1.287,0.317,1.377-0.341c0.087-0.64,0.961-0.918-0.527-1.124c-0.706-0.098-0.053-0.411,0.74-0.299c0.849,0.119,1.361-0.929,1.852-1.271c0.49-0.341,3.259-1.995-0.433-1.45c-3.692,0.545-4.774,2.336-5.013,2.695C343.492,170.866,342.466,172.98,342.797,176.485L342.797,176.485z M350.846,169.517c-1.333,0.026-1.333,0.14-1.469,0.346c-0.137,0.205-0.017,0.384,0.222,0.397c0.239,0.013,0.752,0.524-0.068,0.499c-0.82-0.026-1.402-0.154-1.16,0.718c0,0,0.015,0.19,0.494,0.241c0.478,0.051,0.649,0.55-0.239,0.55c-0.57,0.001-0.627,0.222-0.644,0.278h0c0,0-0.308,0.895,0.331,1.075c0.638,0.179,1.732,0.375,3.179,0.145c0,0,0.729,0.051,0.98-0.725c0.251-0.776,0.225-0.341-1.835-0.751c0,0-0.649-0.189,1.232-0.196c0,0,1.048,0.034,1.208-0.145c0.16-0.179,1.549-1.279-0.251-1.211c-1.8,0.068-0.911-0.316,0-0.316c0.911,0,1.196,0.188,1.492-0.103c0.296-0.29,0.023-0.094-0.467-0.589c-0.49-0.494-0.148-0.35,0.205-0.077s0.569,0.358,0.968,0.008c0.399-0.35-0.308-0.861,0-0.802c0.308,0.059,0.456,0.644,1.618,0.081s2.734-0.269,3.161,0.051c0.427,0.32,1.64,0.729,2.375-0.026c0.735-0.755-0.872-1.369-0.188-1.471c0.684-0.103,1.162,0.14,1.436-0.409c0.274-0.55-1.06-1.075,0.222-1.42c1.282-0.346,0.205-3.94-0.239-4.272c0,0-1.435,0.844-3.008,3.389c-1.573,2.545-2.495,4.029-4.631,3.249c-3.082-1.126-4.657,0.493-5.134,0.784C349.894,169.27,352.178,169.492,350.846,169.517z M309.131,177.005c0.105,1.532,0.307,2.486,0.478,3.06l0.649-1.237c-0.159-1.22-0.22-2.262-0.193-3.546c0.114-5.201,0.977-4.739,1.319-4.091l1.78,0.032c0,0-1.299-5.867-2.825-2.439C308.839,172.153,308.948,174.345,309.131,177.005z M296.174,161.462c-2.666,2.482-3.11,2.866-3.11,2.866h0c0,0,0.752,0.358,2.529-1.075c1.777-1.433,6.802-4.63,7.28-7.189c0.478-2.558-1.606-2.711-3.247-1.97c-1.64,0.742-0.957,2.174-0.889,2.635C298.805,157.19,298.84,158.981,296.174,161.462z M306.35,178.54c2.393,0,2.096-1.075,2.096-1.075c-0.752-6.668,2.074-10.028,2.074-10.028c-1.824-0.28-3.509-0.29-3.509-0.29s-3.577,0.835-2.939,10.164C304.072,177.312,303.996,178.54,306.35,178.54z" />
  <path fill="#5A3719" d="M288.966,203.796c0,0-3.486,7.342,10.219,9.158c0,0,0.034-0.818,0.581-1.97s1.743-3.479,0.615-4.988c-1.128-1.51,0.923-0.716,1.231-2.686s-0.205-1.688,0.752-2.968c0,0-4.306,1.561-5.947,3.454c-1.64,1.893,2.222,3.326-0.068,5.398c0,0-1.914-0.691-3.042-2.763C293.307,206.431,290.641,206.482,288.966,203.796L288.966,203.796z M296.758,199.858c0,0,1.521,0.23,3.042-1.484C299.8,198.374,297.749,198.758,296.758,199.858z M285.265,213.493c0,0-2.828-2.225-1.016-2.66C284.249,210.832,285.539,210.628,285.265,213.493z M303.868,214.771c0,0,6.494,3.94,12.27-0.332c0,0,0.479,0.46,0.889,1.509c0,0,4.375-4.222,12.202,0.332c0,0-0.962-0.107-4.648,1.484C319.777,219.836,307.764,221.192,303.868,214.771z M345.257,214.797c0,0,3.657-1.33,7.041,0.256c3.383,1.586,2.871,1.714,5.127,1.944c0,0-1.572,2.251-5.297,0.435C348.402,215.615,347.415,215.265,345.257,214.797z M349.325,226.027c0,0,3.588-1.79,7.555,0.071c0.496,0.233,1.579,0.682,2.596,0.901c0,0-3.039,0.942-6.152-0.026C352.029,226.571,350.999,226.258,349.325,226.027L349.325,226.027z M331.586,219.606c0,0,7.998,0.742,12.338-0.123c0,0-5.024,2.425,7.588,1.3c0,0,2.803-0.307,2.461,0.128c-0.342,0.435-0.547,0.767,0.82,1.177C354.793,222.088,345.428,226.283,331.586,219.606L331.586,219.606z M340.986,227.28c0,0-2.495-0.154-5.879-1.33c-3.383-1.177-4.273-0.179-6.186-1.612c-1.914-1.433-5.776-0.537-6.494-0.435c-0.718,0.103-2.768,0-0.205-1.663c0,0-2.051-0.051-2.837-1.075c0,0-0.923,0.895-4.375,0.563c0,0,1.538,2.416-4.648,1.72c0,0,1.846,2.143,4.067,2.578s3.148,0.291,4.58-0.128c0,0-0.41,1.867,2.461,2.584s3.452,1.279,4.922,1.867c0,0,0.205-1.202-3.623-3.991c0,0,2.051-0.103,4.99,0.614C330.698,227.689,337.363,229.403,340.986,227.28L340.986,227.28z M342.535,230.145c0,0,0.615,1.433,2.506,1.109s5.002-0.878,8.009,0.656c0,0,0.512-2.558-5.525-2.737C347.525,229.173,343.743,229.378,342.535,230.145L342.535,230.145z M291.404,213.722c0,0-2.324,1.91-0.217,3.897c1.925,1.815,4.899,1.654,6.323,1.603c0,0-0.854-0.486-1.606-1.612c-0.752-1.126-0.778-1.886-2.359-2.609C291.905,214.251,291.712,214.055,291.404,213.722z M288.966,203.797c0,0-3.486,7.342,10.219,9.158c0,0,0.034-0.818,0.581-1.97c0.547-1.151,1.743-3.479,0.615-4.988c-1.128-1.51,0.923-0.716,1.231-2.686c0.308-1.97-0.205-1.688,0.752-2.968c0,0-4.306,1.561-5.947,3.454c-1.64,1.893,2.222,3.326-0.068,5.398c0,0-1.914-0.691-3.042-2.763C293.307,206.431,290.641,206.483,288.966,203.797L288.966,203.797z M294.177,174.838c5.152,0.689,7.982,2.713,7.982,2.713c-1.435-0.179-4.99,0.179-8.442,0.716c-3.452,0.537-1.871,0.932-5.024,0.358c-3.154-0.575-8.784,4.195-8.784,4.195c-4.614-2.712-12.441-5.551-12.441-5.551c7.211-2.328,14.184,1.561,14.184,1.561c1.975-1.311,4.432-2.444,6.264-3.206C289.597,175.266,291.663,174.973,294.177,174.838z M279.908,182.821L279.908,182.821L279.908,182.821L279.908,182.821z M308.72,180.041c0.42,0.993,1.526,3.087,1.8,3.326l-4.01,0.119h0c0,0-1.732-1.774-1.914-3.82c0,0-0.046-0.529,1.709-0.478C308.059,179.239,308.288,179.02,308.72,180.041z M310.258,178.829l-0.648,1.236c0,0,1.891,6.829,3.554-0.502l-1.526-0.034C311.638,179.529,310.817,180.757,310.258,178.829z M342.352,177.819c0.154,0.959-1.128,1.403-1.128,1.403c-2.546,0.955-6.22,3.304-6.22,3.304c-6.221,4.454-6.477-1.906-6.477-1.906c3.804-0.906,3.065-1.431,2.362-1.652c1.697-0.59,3.594-1.226,5.126-1.717c0.667,0.722,1.981,2.637,3.619,1.168c1.811-1.624-0.154-0.844-0.598-0.524c-0.445,0.32-0.718,0.601-1.624-0.499c-0.167-0.203-0.263-0.362-0.307-0.489c0.598-0.185,1.093-0.33,1.419-0.414c0.206-0.053,0.376-0.097,0.517-0.136c0.205,0.161,0.353,0.331,0.353,0.331c0.676,0.247,1.726,0.222,1.726,0.222C342.455,176.689,342.352,177.819,342.352,177.819z M334.715,180.351c-1.129,0.179-2.701,0.742-2.701,0.742s-1.777,0.652-0.615,1.228S335.843,180.172,334.715,180.351z M334.424,178.599L334.424,178.599c-1.196,0.089-0.086,0.473,0.154,0.622c0.239,0.149,0.803,0.58,1.111-0.098C335.996,178.445,334.424,178.599,334.424,178.599z M394.543,178.958c0,0-0.017,0.889,0.683,1.765l-35.417-1.017c0,0,0.517-0.32,0.649-1.699L394.543,178.958L394.543,178.958z M395.124,178.357c0,0,0.139-1.85,1.162-2.464c0.564-0.338,1.308-0.141,1.633,1.351c0.462,2.122-1.336,3.926-2.171,3.121C394.953,179.597,395.124,178.357,395.124,178.357L395.124,178.357z" />
  <path fill="#7B3C20" d="M355.992,186.336c0,0,2.273-1.931,2.615-2.801c0,0,6.152,4.358,5.776,0.356c0,0,0.017-1.073,0.188-2.096c0,0,2.224,0.218,2.563-1.558l-5.742-0.169c0,0-0.598-0.128-1.487,0.832s-2.717,2.009-4.426,1.094c0,0-0.715-0.621-1.443-0.097s-0.762,0.678-0.164,1.241C354.471,183.701,355.753,185.428,355.992,186.336L355.992,186.336z M369.202,174.3l-3.367-0.128c0,0-1.231-1.727-3.623-3.646c0,0-0.701-0.307,0.649-1.381c1.35-1.075,1.743-2.225,1.795-2.75c0.052-0.524-0.085-1.343,0.427-0.716c0.512,0.627,3.999,3.773,4.495,2.84c0.496-0.934,0.581-1.369,0.667-1.65c0.086-0.281,0.205-1.151,0.701-0.243s0.836,0.676,0.854,3.031c0,0,0.085,2.328,0.445,3.172C372.244,172.829,367.835,171.417,369.202,174.3L369.202,174.3z M354.59,167.137c0,0,2.563,1.433,3.828-0.512c1.265-1.944,2.119-2.251,1.162-4.118c-0.957-1.867,0.026-2.737,0.748-3.505s1.337-0.64,1.439-3.607s2.153-3.965,3.076-4.886s3.247-2.328-0.274-2.916c-3.52-0.589-10.493-2.405-12.304-5.116c-1.811-2.711-2.632-1.1-2.666-0.998c-0.034,0.103-0.615,2.098,1.196,5.705c1.811,3.607,3.349,5.926,5.093,7.094c1.743,1.168,3.316,1.808,2.426,4.213C357.427,160.895,355.889,165.193,354.59,167.137z M367.368,127.668c0,0,1.094-0.179,2.939,0.972c1.846,1.151,3.657-1.228,1.606-1.842c-2.051-0.614,0.034-1.33,1.88,0.154c1.846,1.484,2.563,0.742,3.247,0.23c0.684-0.511,1.504-0.793,0.239-1.663c-1.265-0.87,0.854-0.46,1.811,0.154c0.957,0.614,0.581,1.253,0.445,1.433c-0.136,0.179-0.239,2.174,1.64,0.307c1.88-1.867,2.803-3.735,2.768-4.656c0,0,1.025,0.64,1.162,1.816s1.572-0.64,2.051-1.279c0.478-0.64,1.299-2.254,1.196-3.467c0,0,1.265,1.956,3.145,0c1.88-1.956,1.06-0.728,3.316-1.316c2.256-0.589,5.093-2.251,6.631-4.118c1.538-1.867,1.64-0.614,3.623-1.075c1.982-0.46,5.981-3.223,6.357-4.733c0.376-1.509,0.308-2.43-0.274-1.919c-0.581,0.511-0.342,0.103-1.196-0.435c-0.854-0.537-2.119,0.691-2.119,0.691s1.265,0.972,0.308,1.381c-0.957,0.409-1.88,1.765-3.691,1.253c-1.811-0.512-3.691,1.663-3.691,1.663s1.572,1.304-0.547,2.123c-2.119,0.818-1.777,1.1-3.076,0.205c0,0-2.256,2.865-3.554,3.454c0,0-0.615-0.051-1.025-0.589c0,0-1.469,1.663-2.222,1.996c0,0-0.923-0.895-1.777-1.177c0,0-1.777,2.2-3.281,2.891c0,0-0.445-0.818-1.402-1.381c0,0-0.473,2.878-3.623,4.579c0,0,0.205-0.767-1.367-1.816c0,0-3.896,3.377-5.434,3.709c-1.538,0.332-0.103-0.716,0.103-1.151s1.162-1.867-0.718-2.456c-1.88-0.589-1.572,0.409-1.982,0.589c-0.41,0.179-0.445-0.332-1.709-0.154c-1.265,0.179-1.06,0.742-1.606,0.947c-0.547,0.205-2.734-0.358-2.632,1.1c0.103,1.458,1.128,2.456-0.786,3.3C362.207,128.231,364.839,128.052,367.368,127.668L367.368,127.668z M394.716,99.48c0,0,5.879-0.154,8.305,1.484s3.589,2.711,4.306,2.942c0,0-0.103,2.225-3.862,0.64c0,0,0.205,1.075-0.205,2.123c0,0-1.402-0.921-3.008-1.33c0,0-0.274,0.844-0.786,1.33c0,0-1.675-1.688-3.554-2.2c0,0-0.376,0.844-0.718,1.151c0,0-2.017-1.151-3.554-1.126c0,0,0.308,1.228,0,1.714c0,0-4.273-3.351-8.066-2.916c0,0,1.846,2.686,3.042,4.016c0,0-7.69-0.614-6.425-4.758c1.265-4.144-0.103-3.103,4.922-3.074S394.716,99.48,394.716,99.48z M312.89,132.016c0,0,2.918-1.372,5.366-1.202c0,0-0.957-3.454,0.752-2.865c1.709,0.589,1.231,0.358,1.572,0.332c0,0,0.103-2.277-0.342-3.172c0,0,1.743,0.409,3.52,0.435c0,0-1.675-3.274,0.171-5.525c0,0,1.013,2.149,3.292,2.686c0,0,0.011-0.921,0-1.893c0,0,1.356-0.154,2.416,0.409c1.06,0.563,1.948-5.935-1.196-7.367c0,0-0.752,1.228-3.691,1.842c-2.939,0.614-2.915,1.204-4.124,3.416c-1.208,2.212-2.267,2.237-4.729,3.823c-2.461,1.586-3.956,4.809-4.097,5.09C311.801,128.026,313.096,129.611,312.89,132.016L312.89,132.016z M329.4,82.668c0,0-3.725,1.996-2.392,3.249c1.333,1.253,3.316,0.87,4.136,0.512c0.82-0.358,2.392-0.742,2.632-0.818c0.239-0.077,3.486-0.998,4.306-2.507c0.82-1.509,3.008-3.249,4.751-4.502s2.358-2.507,2.119-3.402C344.951,75.199,330.28,82.129,329.4,82.668z M307.252,99.884c0,0,2.574-1.531,6.187-0.563c0,0-0.171-0.88-0.718-1.336c0,0,4.375-1.146,5.332-3.09c0.957-1.944,1.162-1.535,2.017-2.098c0.854-0.563,6.767-5.321,6.084-6.344c-0.683-1.024-0.82-2.353-1.333-2.891c0,0-1.231,1.688-6.973,4.477s-12.133,4.886-16.781,11.153c-4.648,6.268-4.17,9.9,1.504,11.486c0,0,3.999-2.507,13.74-1.637c9.741,0.87,13.056,4.528,13.672,5.193c0.615,0.665,2.597,3.07,0.683,7.137c0,0,1.948,0.844,2.119-1.023c0.171-1.867,0.274-1.433,0.718-1.151c0.445,0.281,0.991,0.332,0.786-1.1c-0.205-1.433-0.889-4.63-1.777-5.73c-0.889-1.1,0.103-0.614,0.683-0.384c0.581,0.23,2.632,1.893,1.402-1.177c-1.231-3.07-1.538-1.561-1.572-1.407c-0.034,0.154-0.274,0.921-2.939-1.075c-2.666-1.996-5.093-2.968-6.904-3.479c-1.811-0.511-0.547-0.512,0.512-0.895c1.06-0.384,2.495-0.614,2.974-1.79c0,0-1.06,0.256-3.008-0.435s-5.845-0.767-8.989,1.586c0,0,0.991-3.632-1.88-3.428s-4.888,0.128-7.93,2.533c0,0-0.171-3.658,2.7-5.551c2.871-1.893,2.495-0.742,4.102-1.228c1.607-0.486,1.743-2.098,1.06-2.609c0,0,3.76,0.64,10.082-4.604c0,0-3.397,4.451-7.526,5.347c0,0-0.654,2.369-4.402,2.891C307.127,97.183,307.218,99.347,307.252,99.884L307.252,99.884z" />
  <path fill="#5A3719" d="M369.627,163.049c0.41,2.379-0.615,4.784-0.615,4.784c-4.511-2.2-4.956-8.364-4.956-8.365c-1.127,1.126-3.247,3.172-3.248,3.173c-1.367-3.172,2.358-3.632,2.392-6.497c0.034-2.866,2.29-4.502,3.11-5.219c0.82-0.716,1.298-1.51,2.666-3.581c1.367-2.072,0.205-0.281-4.58-0.767c-4.785-0.486-9.911-3.454-11.074-4.707c-1.162-1.253,3.862-1.407-2.188-1.279c-6.05,0.128-0.513-2.481-5.024-0.537c-4.511,1.944-3.076-0.102-11.928,2.328c-8.852,2.43-8.1,0.384-10.459-0.281c-2.359-0.665,7.759-4.298,0.957-3.326c-6.802,0.972,0.615-3.223,3.691-4.553c3.076-1.33-2.359,0.818,1.675-2.123c4.033-2.942,4.238-1.433,4.58-0.614c0.341,0.819-0.239,1.842,0.547,0.87c0.786-0.972,1.402-0.818,2.017,0.667c0.616,1.486,3.042-1.869,3.042-1.869c2.29,3.377,3.316,1.484,3.316,1.484c2.119-2.712,1.093,0.767,0.752,1.304c-0.341,0.537-2.119,2.993,0.289,1.458c2.408-1.535,2.822-0.947,3.164-0.23c0.342,0.716,0.581,0.435,2.768-1.177c2.188-1.612-0.068,3.121,2.7,0.844c2.768-2.276,2.017-0.153,1.982,0.384c-0.034,0.537-0.513,1.637,1.504,0.409c2.017-1.228,2.393-0.537,3.042,0.128c0.649,0.665,2.29-0.563,2.939-0.844c0.649-0.281,1.709-1.1,1.675,0c-0.034,1.1-0.034,1.1,0.82,0.614c0.854-0.486,1.47-0.128,1.268,0.665c-0.202,0.793-0.208,0.768,0.339,0.793c0.547,0.025,4.511-0.665,1.538,0.895s4.273-0.179,1.299,2.2c-2.974,2.379,0.786,1.663,2.529,1.739c1.743,0.077,3.52,1.612,2.017,1.867c-1.504,0.256-0.478,0.793,1.06,0.972c1.538,0.179,0.547,0.92-1.504,1.509c-2.051,0.589-1.572,1.075-0.068,1.535c1.504,0.461-0.991,1.919-2.495,1.919c-1.504,0-1.537,1.074-0.478,1.944c1.059,0.87,1.333,1.816-0.445,1.356c-1.777-0.46-1.64,0.64-1.128,1.364c0.512,0.725,0.752,1.526,0,1.987c-0.752,0.46-1.777,4.477,0.342,5.129c2.119,0.653,2.051,2.443,2.051,2.443C371.096,163.177,369.627,163.049,369.627,163.049z M390.252,140.914c5.195-5.048,4.124-7.742,4.124-7.742c-2.119-0.239-5.856,1.91-5.856,1.91c0.046-1.177-1.117-2.302-1.117-2.302c-2.179,1.426-2.597,2.422-2.597,2.422c0.889,0.205,2.005,0.034,2.005,0.034c-0.57,0.989-2.985,3.07-2.985,3.07c2.939,1.671,4.375,3.394,4.375,3.394c-1.641,0.153-3.19,1.226-3.19,1.226c1.185,0.56,2.142,2.713,2.142,2.713c-3.235-0.171-3.532,1.193-4.443,2.387c-0.911,1.193-0.866,2.217-0.661,3.479c0.205,1.262,0.661,1.45-1.868,3.94c-2.529,2.49-0.889,2.183-2.415,3.189c-1.527,1.006-3.008,1.842-3.008,1.842c1.732-3.104,1.549-3.19,2.962-3.445c1.412-0.256-0.616-0.734,0.706-1.075c1.322-0.341,0.98-2.711,0.98-2.711c0.524-0.154,1.64-0.17,1.64-0.17c0.114-0.392-0.137-1.637-0.274-2.183c-0.137-0.546-0.775-1.364,0-1.518c0.775-0.154,0.706-0.546,0.706-1.518c0-0.972,0.661,0.154,0.957-1.501c0.296-1.654,2.506-1.381,2.506-1.381c-0.296-1.279-1.162-2.268-1.162-2.268c0.501-0.87,2.483-1.484,2.483-1.484c-0.524-1.075-3.782-2.899-3.782-2.899c1.174-1,1.412-1.825,1.412-1.825c-0.433-0.102-1.139-0.46-1.139-0.46c0.137-1.126,1.754-2.268,1.754-2.268c-6.152-0.631-7.907,2.268-7.907,2.268c7.291-0.119,5.127,0.989,3.874,1.79c-1.253,0.802,3.099,2.217,1.823,3.462c-1.276,1.245,1.071,1.399-0.182,2.609c-1.253,1.211-0.319,0.972-1.39,2.166c-1.07,1.194,0.479,1.978-0.592,2.814c-1.071,0.836-0.98,0.58-0.934,1.688c0.046,1.109-0.023,1.279-2.028,3.121s-2.939,3.94-2.939,3.94c-0.137-4.297,3.236-4.127,3.782-5.73c0.547-1.603-0.866-2.95,0.342-3.07c1.208-0.119,0.866-0.307,0.911-1.535c0.046-1.228,0.41-1.995,1.754-3.513c1.345-1.518-1.025-1.057-0.091-2.132c0.934-1.074,0.068-1.364-1.185-2.149c-1.253-0.785-0.729-2.251-0.729-2.251c-1.003-0.409-3.033-0.136-3.033-0.136c-0.367-1.381-2.231-2.507-2.231-2.507c0.615-0.478,2.164-1.057,5.263-1.262s5.856-1.279,5.856-1.279c-1.299,0.034-3.236-0.273-5.719-1.927c-2.484-1.654-3.327-1.501-4.967-0.818c-1.64,0.682-2.278,0.904-4.511-0.085c-2.233-0.989-6.129-0.512-7.519,0.205c-1.39,0.716-4.111,1.747-2.279,0.409c1.832-1.337,2.301-1.91,0.797-3.803c-1.504-1.893-2.324-0.819-3.623,0.29c-1.299,1.109-2.141-1.177-4.033,0s-1.481,0.835-1.436-0.546c0.046-1.382-3.509-1.501-5.286-0.512c-1.777,0.989-1.686,0.733-1.705-0.324c-0.019-1.058-1.256-1.518-1.804-1.518c-0.547,0-1.459,0.323-0.365-0.751c1.094-1.074,0.068-1.603-0.638-2.063c-0.706-0.46-0.843-0.358,0.274-1.126c1.117-0.767,0.342-1.466-0.478-1.688c-0.82-0.221-0.797-0.512-0.296-1.347c0.501-0.835-0.046-2.149-0.046-2.149s1.39,0.29,1.299,1.603c-0.091,1.313-0.205,1.279,0.934,0.853c1.139-0.426,0.182,0.785-0.228,1.927c-0.41,1.143-0.82,0.631,0.16,2.371c0.98,1.74,1.412,1.655,2.643,1.194s0.889,0.17,0.319,0.529s-2.028,1.211-0.729,1.569c1.299,0.358,2.301-0.665,4.808-2.711c2.507-2.047-1.8-2.063-3.554-2.063c-1.755,0-2.826,0.648-0.456-1.484c2.37-2.132,2.78-3.445,2.074-3.565c-0.706-0.119-4.192,0.188-1.549-0.563c2.643-0.751,4.283,1.535,4.283,1.535c0.319-0.392,1.436-1.399,2.233-1.075c0.797,0.324-1.549,0.495-1.595,2.081c-0.046,1.586-1.549,0.376-1.914,0.222c-0.365-0.154-2.666-0.341-1.937,1.296c0.73,1.637,3.897,1.5,6.016,1.228c2.119-0.272-1.413,1.262-2.279,1.996c-0.866,0.733-2.233,1.296-0.729,2.746c1.504,1.45,3.304-0.119,3.304-0.119c-0.137,0.904,0.091,2.626,2.871,1.177c2.78-1.45,3.646-0.682,4.261-0.188c0.615,0.495,0.182,1.757,1.777,1.961c1.595,0.205,1.572-1.996,0.934-2.882c-0.638-0.887,0.205-1.671,2.074-1.978c1.868-0.307,1.982-1.211,1.937-1.501c-0.046-0.29,0.045-0.358,0.957-1.672c0.912-1.313,0.684-1.825,0.41-2.098c-0.273-0.272-0.364-1.057-2.438,0.512c-2.074,1.569-5.924,0.818-5.924,0.818c2.028-1.126,4.762-1.535,6.608-2.524c1.846-0.989,2.415-1.705,0.661-2.95c-1.754-1.245-3.828,1.279-3.828,1.279c2.917,0.836,3.031,1.058-0.228,1.109c-3.259,0.051-6.084,1.808-6.084,1.808c0.205,0.256,0.982,2.08-0.82,3.411c-1.686,1.245-0.957,0.051-0.957,0.051c3.779-4.144-1.549-3.359-1.549-3.359c0.16-0.154,0.023,0.188,2.119-2.183s-1.412-3.53-1.412-3.53c1.982-0.631,7.451-4.604,9.319-6.361c1.868-1.757,1.321-1.893,1.458-3.019c0.136-1.126,2.461-2.729,3.44-3.513c0.98-0.785,3.874-3.65,5.127-5.014c1.253-1.364,1.025-2.098,3.122-2.371s7.702-4.366,8.773-5.185c1.071-0.818,7.679-6.157,10.345-8.186c2.666-2.029,3.913-3.634,2.78-4.144c-1.133-0.511-5.674,2.234-7.36,4.383c-1.686,2.149-5.605,4.69-7.519,6.071c-1.914,1.382-8.02,4.775-9.593,5.662c-1.573,0.887-1.754,1.979-2.188,2.644c-0.433,0.665,0.159,0.119-3.259,2.865c-3.418,2.746-3.896,2.848-5.651,5.849c-1.754,3.002-7.588,6.976-8.773,7.555c-1.185,0.58-1.846,1.347-2.279,2.336c-0.433,0.989-3.532,2.746-3.942,2.353c-0.41-0.392,0.724-0.929,0.724-0.929c5.224-3.539,0.803-5.705,0.803-5.705c3.093-0.511,3.947-2.686,5.263-4.08c1.316-1.394,1.145-3.236-1.179-3.223c-2.324,0.013-3.982,3.607-3.982,3.607c7.964-3.466-7.81,5.782-7.485,6.114c0.325,0.333,0.649,0.499,1.88,1.19c1.23,0.691-1.658,0.55-0.308,1.369c1.35,0.818-0.257,1.56-0.735,1.586c-0.478,0.026-0.461-1.177,0.101-1.97c0.562-0.793-0.408-1.279-0.408-1.279s-0.701-0.409-2.119-0.895c-1.418-0.486-0.427-0.23,1.213-1.944c1.64-1.714-2.153-2.75-2.153-2.75c1.06,3.671-2.752,4.566-2.752,4.566c1.316,1.228,4.58,2.021,4.58,2.021c-0.889,1.663-3.435,2.482-5.041,2.366c-1.607-0.115,2.239-1.893,1.64-1.919c-0.598-0.026-2.478-1.279-2.837-1.369c-0.359-0.089,0.052-0.947,0-3.338c-0.052-2.392,1.64,0.627,1.64,0.627c0.393-0.205,1.282-1.318,1.709-2.2c0.427-0.883,1.282-2.546,0.359-3.364c-0.923-0.818-1.18-0.192-2.786-0.358c-1.606-0.166,2.119-2.353,3.435-4.195s-1.726-2.635-3.076-2.609c-1.35,0.026-4.289,1.778-4.495,3.121c-0.205,1.343-0.512,2.251,0.667,1.714c1.179-0.537,3.64-2.891,3.401-2.29c-0.239,0.601-0.239,0.959-1.795,2.251c-1.555,1.292-1.538,0.627-2.786,1.279c-1.248,0.652-1.009,1.637-0.308,1.701c0.701,0.064,0.889-0.115,0.854,0.665c-0.034,0.78,0.325,1.049,1.999,0.294c1.675-0.755,1.076-0.435,0.974,1.202c-0.103,1.637-0.974,0.908-1.042,0.371c-0.068-0.538-0.649-0.627-1.572-0.55c-0.923,0.077-1.282-0.013-1.418-0.703c-0.137-0.691-0.615-0.768-1.094-0.921c-0.479-0.153-0.137-0.537-0.308-1.509c-0.171-0.972-0.376-1.458,0.274-1.893c0.649-0.435,0.923-1.382,0.889-1.842c-0.034-0.46-0.615-0.281,0.957-1.407c1.572-1.125,7.929-4.835,8.305-8.314c0.376-3.479-3.418-0.205-6.836,1.228c-3.418,1.433-3.828,2.149-6.186,4.298c-2.358,2.149,0.547,0.947,3.11,1.688c2.563,0.742-2.905,0.23-6.05,0.665c-3.145,0.435,1.709-2.149,2.666-3.3c0.957-1.151,3.008-2.762,8.339-4.963c5.332-2.2,7.28-5.449,8.476-7.342c1.196-1.893,0.137-1.586-0.649-1.151c-0.786,0.435-3.828,2.456-4.99,4.451c-1.162,1.995-4.033,2.482-7.895,3.837c-3.862,1.355-5.332-0.512-5.332-0.512c0.854,3.53-5.366,7.828-8.51,10.258c-3.145,2.431-2.717,2.699-1.231,2.366c1.487-0.332,5.264-2.84,2.871-0.959c-2.393,1.88-2.444,2.609-2.444,2.609c2.837,0.64,3.418-1.548,6.186-0.358c3.505,1.505,5.52-0.601,5.52-0.601c0.496,1.075-0.308,2.788-2.017,4.067c-1.709,1.279,2.359,1.854,4.426,3.479c2.068,1.625,2.478-0.217,2.478-0.217c1.828,1.087,2.597,3.632,2.597,3.632c3.042,8.416-1.435,0.077-0.683,5.653c0.752,5.576,0.103,4.732-1.094,4.809c-1.196,0.077-0.341,1.842-3.418,1.33c-3.076-0.512-2.084,0.588-2.632,1.1c-0.547,0.512-3.999-1.535-3.999-1.535s-0.41,0,0.478,2.635c0.889,2.635-0.376,1.637-2.358,1.688c-1.982,0.051-0.103,2.328-0.889,2.533s-2.051,0.026-2.051,0.026c0.068,1.612,1.64,1.79,1.64,1.79c-1.573,0.972-2.188,2.916-2.188,2.916c2.495-0.461,8.51-0.103,8.51-0.103c0.786-2.123,7.143-5.628,7.143-5.628c-0.034,1.739,0.991,2.942,0.991,2.942c0.376-0.256,0.581-0.844,0.581-0.844c0.137,0.537,1.299,1.535,1.299,1.535s0.854-0.179,1.538-2.353c0.684-2.174,0.684-1.714,1.367-0.46c0.683,1.253,2.632,3.146,2.632,3.146c1.06-0.281,2.905-2.891,2.905-2.891s1.128,0.486,0.82,2.814s0.103,1.51,0.718,1.178c0.616-0.331,1.299-1.153,1.196,0c-0.103,1.153,0.718,0.808,0.718,0.808c0.98-0.614,2.256-2.422,2.256-2.422c0.661,1.774,1.458,2.251,1.458,2.251c5.924-3.701,6.061-2.336,5.15-1.654c-0.911,0.682-1.345,2.371-1.345,2.371c3.805-1.211,4.01-0.835,4.284-0.46c0.273,0.375,0.615,0.443,0.615,0.443c1.595-1.211,5.036-1.978,5.036-1.978c0,0.887-1.162,1.893-1.162,1.893c1.982,0.188,3.554-0.324,3.554-0.324c-0.091,0.938-1.231,1.723-1.231,1.723c0.957,0.494,3.805,0.29,3.805,0.29c-1.117,1.109-1.299,1.996-1.299,1.996c1.481,0.221,1.868,0.716,1.048,1.586c-0.821,0.87-1.504,1.569,0.592,1.075c2.096-0.494,2.643,0.478,3.962,1.552c1.319,1.075,0,1.723,0,1.723c1.114,0.222,2.623,0.068,2.623,0.068c-0.228,0.427-0.433,0.631-1.96,1.723c-1.526,1.092-3.236,0.819-1.526,1.876c1.709,1.057-3.575,3.359-3.575,3.359s0.637,0.751,1.466,1.211c0.83,0.46,1.084,0.853-0.784,1.177c-1.868,0.324-1.937,0.375-0.997,1.62c0.94,1.245,0.746,1.552-0.371,1.569c-1.117,0.017-2.756,3.002,0.536,4.127c3.293,1.125,0.536,4.246,0.536,4.246c-0.296-0.495-1.071-0.631-1.071-0.631c-0.023,1.364,1.071,2.132,1.071,2.132h0c3.194-2.195,5.173-5.952,5.176-5.955c1.399,0.486,2.324,1.313,2.324,1.313c0.342-0.29,2.051-0.938,1.982-4.025c-0.068-3.087,3.122-2.047,3.122-2.047c0.091-0.563-0.046-2.644-0.16-4.673c-0.114-2.029-1.344-3.402,2.643-3.104c3.987,0.298-0.752-1.416,3.145-2.882c3.896-1.466,4.671-3.956,4.671-3.956C393.465,141.221,390.252,140.914,390.252,140.914z M378.446,107.56c-2.819,3.07-0.034-0.358,3.316,2.2c3.349,2.558-3.828,4.502-5.81,4.681c-1.982,0.179-2.461,0.614-2.461,0.614c11.45,3.428-1.196,5.602-2.222,5.705c-1.025,0.103-1.07,1.313-1.88,0.281c-0.809-1.032,0.445-1.996,0.445-1.996l0,0c0,0,0.957-0.845,3.828-0.742c2.871,0.103-0.649-0.818-1.948-0.563c-1.299,0.256-1.128-0.869-1.88-2.225c-0.752-1.356,4.511-4.272,4.272-5.065c-0.239-0.793-1.948,2.737-4.443,1.919c-2.495-0.818-0.376-2.379,1.094-3.197c1.469-0.818,8.134-5.27,8.134-5.27S380.702,105.104,378.446,107.56z M374.412,112.679c0,0-1.162,0.817,0.376,0.407c1.538-0.409,4.614-1.075,4.033-1.867C378.239,110.426,376.189,111.376,374.412,112.679z M408.349,104.29c-0.512,2.353-4.306,1.228-4.306,1.228c0.274,1.432-0.478,2.43-0.478,2.43c-0.581-0.716-2.871-1.663-2.871-1.663c-0.171,1.049-1.231,1.97-1.231,1.97c-0.786-1.305-3.076-2.533-3.076-2.533c0.171,0.512-0.274,1.433-0.274,1.433c-0.82-0.793-3.486-1.535-3.486-1.535c0.103,1.484-0.683,2.302-0.683,2.302c-3.726-3.632-6.187-3.632-6.187-3.632c0.308,0.716,0.137,0.563,2.051,3.019s-5.537-0.409-6.152-0.64c-0.615-0.23-2.905,1.535-2.584,1.484c0.321-0.051,2.447-0.716,4.635,2.251c2.187,2.967-7.075,4.886-7.075,4.886c7.793,3.94-2.529,5.525-2.529,5.525c1.606,0.895,1.162,2.736,1.162,2.737c2.495-1.517,3.657-3.377,3.656-3.377c1.47,0.589,1.948,1.561,1.948,1.561c2.29-1.51,2.461-4.451,2.461-4.451c1.162,0.358,2.256,1.433,2.256,1.433c1.162-0.742,3.042-2.916,3.042-2.916c1.196,0.614,1.948,1.612,1.948,1.612c0.957-0.921,1.701-2.149,1.701-2.149c0.505,0.511,1.17,0.895,1.17,0.895s1.333-1.356,2.188-2.686c0.854-1.33,0.854-1.919,2.085-0.64c1.231,1.279,2.306-1.328,3.202-1.015c1.219,0.426,2.637-1.646,5.173-3.411c3.27-2.276,0.404,0.104,3.592-1.805C412.165,105.117,408.349,104.29,408.349,104.29z M375.264,123.552L375.264,123.552L375.264,123.552L375.264,123.552z M378.75,99.336c0,0-1.128,0.524-2.222,0s-0.752-2.878,1.88-4.285c2.632-1.407,7.417-3.505,9.844-3.812c0,0-0.342,3.044-7.895,5.602C380.356,96.842,380.835,98.427,378.75,99.336z M358.656,110.928c0,0-0.889,0.724,0,1.339c0.889,0.614,3.931-1.586,4.34-1.893c0.41-0.307,1.504-0.256,0,0.87c-1.504,1.126-3.042,2.353-3.999,3.581c0,0,5.093-1.381,8.408-4.246c3.315-2.865-0.154-1.009,5.503-3.735s8.613-7.112,5.571-6.651c-3.042,0.46-5.776,3.94-8.134,5.27c-2.358,1.33-3.691,1.509-3.316,0.742c0.376-0.767,2.119-0.46,5.366-3.07c3.247-2.609,2.529-2.43,2.563-3.351c0.034-0.921-1.231-3.197,3.657-5.756c4.888-2.558,20.097-11.461,21.395-14.504c0,0-4.443,0.486-10.288,4.809c-5.845,4.323-8.974,6.344-10.588,6.881c-1.614,0.537-1.409,0.179-2.468,1.433c-1.06,1.253-6.836,6.83-7.895,7.649c-1.06,0.818-1.367,1.356-1.458,3.025C367.274,104.08,360.673,109.052,358.656,110.928L358.656,110.928z M322.345,110.751c-1.801-0.58-4.672-1.705-13.717-1.006c-10.323,0.798-12.167,11.821-12.167,11.821h0c0,0-0.319,1.53,0.296,4.21c0.718,3.125,4.283,4.058,7.542,1.262c3.258-2.797,5.628-3.803,8.18-4.213c2.552-0.409,2.438-0.341,4.58-1.466c2.142-1.126,2.871-2.507,3.008-3.308c0.137-0.802-0.547-0.529-1.071-0.375c-0.524,0.154-1.641,0.119-0.342-0.802c1.299-0.921,2.21,0.136,2.21,0.136c0.889-0.716,1.003-1.825,1.253-2.746c0.251-0.921,0.41-2.012,2.21-1.637c1.8,0.375-0.182,2.575-0.182,2.575s0.98,0.256,2.689-1.16S324.145,111.331,322.345,110.751z M320.239,115.337c-0.205,0.256-0.512,0.742-1.025,0.691c-0.512-0.051-1.162-0.179-1.811,0.972c-0.649,1.151-1.039,2.149-2.126,2.916c0,0,1.271-3.581-1.873-4.426c0,0-2.597,1.535-4.58,1.612c0,0.001,2.53,2.354-0.547,4.12v0h0c0,0,0,0,0,0c0,0,0.991-2.174-0.786-3.172c0,0-5.435,0.932-7.041-0.716c0,0,5.913-0.307,9.57-1.739c3.657-1.433,2.563-2.43,1.299-2.66c-1.265-0.23-3.589,0.332-3.828,1.484c0,0-0.718-1.228,0.205-2.047c0.923-0.819,2.359-0.972,3.657-0.589c1.299,0.384,2.461,0.947,6.733-1.279c0,0,2.461,0.563,2.529,2.225C320.683,114.39,320.444,115.081,320.239,115.337z M313.95,114.647c0,0-1.196-1.318,0.376-1.458c1.572-0.14,3.657,1.01,3.247,1.982C317.163,116.143,315.317,116.105,313.95,114.647L313.95,114.647z M316.704,113.058c0,0,1.367,0.409,1.709,1.369c0.341,0.959,1.196-0.422,1.162-0.857c-0.034-0.435-0.872-2.353-2.359-1.458S316.475,112.975,316.704,113.058L316.704,113.058z M354.522,105.384c0,0-1.811,1.279-1.06,1.919c0.752,0.64,2.047,0.767,4.8-1.535c2.753-2.302,9.418-8.033,5.207-8.263c0,0-5.393-0.332-5.207,2.968C358.451,103.805,354.793,105.175,354.522,105.384z M342.081,103.439c0,0,3.554,2.072,2.222,3.786c0,0,10.903-9.26,7.827-11.256c-3.076-1.996-5.503,1.765-4.751,2.149c0.752,0.384,2.358-0.332,1.777,0.384S342.765,103.133,342.081,103.439L342.081,103.439z M339.244,100.447c0,0,2.392,0.716,2.495,1.739c0.103,1.023,7.211-5.014,5.332-7.546c-0.862-1.161-4.819-1.637-4.99,0.64s3.554-0.23,2.256,1.407C342.634,98.833,339.757,100.088,339.244,100.447z M364.829,95.402c0,0-1.523,1.105-0.156,1.771s2.256-0.384,2.939-0.998c0.683-0.614,4.067-3.095,4.853-4.681c0.786-1.586,1.948-2.072,3.179-2.891c1.231-0.818,9.912-5.142,15.244-9.926c5.332-4.784,3.11-3.556,8.647-6.626c5.537-3.07,9.16-5.884,10.322-9.209c0,0-2.563,0.844-4.819,2.302c-2.256,1.458-7.348,4.656-8.374,5.09c-1.025,0.434-2.461,0.512-3.213,1.304c-0.752,0.793-0.683,1.739-3.35,3.94c-2.666,2.2-16.44,11.921-18.115,13.302C370.313,90.163,364.829,95.402,364.829,95.402L364.829,95.402z" />
  <path fill="#AA5323" d="M381.42,97.356c0,0,0.22,0.749,0,1.433c0,0,14.047,1.356,21.293-7.189c0,0-9.946,0.921-13.91,3.3c0,0,2.495-3.121,9.946-5.705c7.451-2.584,10.493-5.782,11.142-7.546c0,0-9.423,3.3-13.91,3.3c0,0-0.889-0.026-1.743,0.46s-6.87,4.861-8.476,5.602c0,0,3.383-0.281,4.58-1.381C390.341,89.63,387.989,95.954,381.42,97.356L381.42,97.356z M353.748,98.622c0,0,1.504-0.829,4.329-0.636c2.825,0.193,13.99-10.619,17.226-12.802s13.352-9.482,14.72-10.813c1.367-1.33,1.595-2.763,2.78-3.547c1.185-0.784,2.279-0.682,5.013-2.251c2.734-1.569,15.859-9.414,15.084-13.984c0,0-19.55,11.733-24.062,15.553c-4.511,3.82-17.044,12.484-19.277,13.882s-4.01,3.82-7.747,6.856S354.386,96.473,353.748,98.622L353.748,98.622z M349.644,94.464c0,0,3.618-0.37,4.102,1.399c0,0,7.747-5.321,9.524-7.504s-0.592-0.921,3.828-3.82c4.42-2.899,19.094-13.166,21.191-15.008c2.096-1.842,6.061-4.264,9.251-6.412c3.19-2.149,15.677-8.254,14.264-13.268c0,0-9.16,6.139-11.21,7.47c-2.051,1.33-2.917,0.58-5.013,2.217s-6.699,4.912-7.519,5.935c-0.82,1.023-7.838,6.412-11.256,8.698c-3.418,2.285-11.074,6.719-14.765,9.926C358.348,87.301,351.193,93.236,349.644,94.464L349.644,94.464z M338.37,93.414c0,0,1.831,0.026,2.377,0.743c0,0,3.384-2.968,6.984-0.035c0,0,13.216-8.936,14.537-11.188c1.322-2.251,3.463-2.285,8.613-6.037s8.385-5.321,11.803-7.981c3.418-2.66,6.289-5.662,8.75-7.265c2.461-1.603,8.659-5.662,7.61-9.175c0,0-5.013,2.865-8.294,6.446c-3.281,3.581-3.008,0.512-6.334,3.513c-3.327,3.002-8.476,7.094-12.76,9.209c-4.284,2.115-1.686,1.876-4.785,3.854c-3.099,1.978-2.871,1.672-4.01,1.944c-1.139,0.273-2.871,1.091-4.01,2.422c-1.139,1.33-4.193,3.138-7.519,5.014C348.005,86.755,339.825,91.624,338.37,93.414L338.37,93.414z M342.354,86.556c0,0-0.718-1.484,0.547-2.533c1.265-1.049,3.554-3.812,3.931-5.551c0.376-1.739,0.103-1.458,3.76-2.968c3.657-1.509,11.962-5.398,16.645-8.288c4.682-2.891,11.792-7.546,13.261-8.672s5.036-3.632,6.482-4.809c0,0,0.695,1.97-0.877,3.326c-1.572,1.356-7.622,5.602-8.613,6.268c-0.991,0.665-6.562,4.4-8.271,5.347s-5.947,3.095-7.451,4.349s-1.31,1.637-8.021,4.912c-6.71,3.274-7.018,3.607-6.813,3.863c0.205,0.256,3.213-1.049,4.648-1.893c1.436-0.844,6.938-3.351,8.579-4.656c1.64-1.304,4.409-3.351,5.605-4.016c1.196-0.665,11.108-6.6,13.945-8.698c2.837-2.098,3.623-2.788,4.238-2.43c0.615,0.358,1.606,0.384,0.342,1.586c-1.265,1.202-5.297,4.733-6.836,5.756c-1.538,1.023-6.357,3.889-7.69,4.579c-1.333,0.691-1.846,1.97-2.597,2.507s-2.939,2.098-5.605,2.711c-2.666,0.614-3.145,2.609-4.888,3.735c-1.743,1.126-14.147,7.802-14.524,8.135C342.151,89.114,342.901,88.346,342.354,86.556L342.354,86.556z M385.278,58.7c0,0-0.683,0.605-0.308,0.947c0.496,0.45,2.222,1.663,4.375-0.473c2.153-2.136,7.938-6.792,9.814-7.892c1.876-1.1,2.764-2.149,2.696-3.658C401.855,47.624,392.968,52.357,385.278,58.7z M397.514,57.882c0,0,1.367-2.277,4.717-4.426c3.349-2.149,8.378-5.277,9.057-6.037c0,0,1.196,1.356-1.435,3.019c-2.632,1.663-7.759,5.065-8.374,5.551C400.864,56.475,399.838,57.217,397.514,57.882z" />
  <path fill="#FFFFFF" d="M316.445,134.839l0.056-2.14l-5.237,0.957l-0.563-2.647l-3.379,3.322l-2.123-2.896c-3.064,4.35-12.925,14.604-15.107,16.798c-2.392,2.405-2.191,7.146-2.191,7.146c0.907-0.201,1.92-0.342,1.919-0.343c0.615-1.177,1.535-2.199,3.757-3.887c2.222-1.688,2.666-2.993,3.281-4.681c0.615-1.688,1.675-2.277,1.675-2.277c-0.034,0.179,0.274,0.103-1.025,1.996c-1.299,1.893,2.119,1.049,1.709,4.246c-0.41,3.197-5.092,2.558-6.254,2.507c-1.162-0.051-2.426,1.97-2.426,1.97c1.777-0.256,7.382-0.332,7.382-0.332c1.265-1.356,3.076-1.714,4.648-1.202c1.572,0.511,1.094,2.149,1.094,2.149c2.119,0.102,4.102-2.021,5.161-3.095c1.06-1.074,3.931-3.197,5.127-4.195c1.196-0.998,1.326-2.047,1.326-2.047c0.028,1.177,0.417,1.356,0.417,1.356c2.577-1.96,5.545-3.012,7.437-3.529c1.169-0.32-5.558-1.403-5.558-1.403l5.679-2.422l-4.497-1.295l4.79-3.833L316.445,134.839z M437.95,105.388c-0.854,0.55-0.957,1.867-0.957,1.867c-0.274,2.968-3.247,3.198-5.537,3.94c-2.29,0.742-13.193,0.537-15.004,0.486c-1.811-0.051-0.342-0.486,1.06-1.202c1.401-0.716-0.137-0.793-1.06-0.256s-2.119,0.947-3.52,1.714c-1.402,0.767-3.042,0.179-1.982-1.151c1.059-1.33,1.435-2.098,1.469-4.042c0.034-1.945-1.982-2.66-3.931-3.172c-1.948-0.512-3.247-2.047-5.913-3.812c-2.666-1.765,0.205-2.584,0.205-2.584h0c0,0,1.207-0.529,2.074-1.227c0.866-0.699,3.463-2.336,4.694-2.592c1.231-0.256-0.364,0.29,3.122-1.313c3.486-1.603,6.927-1.245,7.519-1.142c0.592,0.102-3.275,1.492-6.813,2.507c-0.272,0.077-0.545,0.013-0.769,0.022c-2.737,0.111-0.672,0.483-1.658,0.844c-1.919,0.703-2.495,1.471-2.495,1.471c1.412-0.597,2.575-1.228,5.423-1.842c2.848-0.614,1.345-0.307,4.876-1.705s3.212-1.143,4.306-1.313c1.094-0.17,2.53,0.068,3.167,0.358c0.638,0.29-2.324,1.893-8.111,3.632c-5.788,1.739-7.087,4.366-7.087,4.366c1.869-1.143,3.373-1.723,6.175-3.172c2.803-1.45,4.785-1.842,5.468-1.91c0.683-0.068,1.071-0.324,3.44-1.381c2.369-1.057,2.643-0.802,3.668-0.58c1.025,0.222,2.644,1.04,4.147,1.961c1.504,0.92-13.193,7.265-13.193,7.265c3.805-0.085,10.162-3.189,12.464-5.116c2.301-1.927,2.506-1.774,4.283,0s-0.638,1.825-3.19,3.155c-2.552,1.33-0.955,1.678-7.474,3.82c-6.518,2.143-5.651,0-8.317,2.285c-2.666,2.285-3.668,0.529-3.668,0.529c-0.455,0.308-0.638,2.558,1.982,1.108c2.62-1.45,4.147-1.978,6.608-2.477c2.461-0.499,3.851-1.053,5.674-1.48c1.823-0.427,5.759-3.13,7.759-4.178c1.999-1.049,1.538,0.742,1.076,1.343c-0.461,0.601,0.478,0.946,0.925,1.42c0.446,0.473,0.528,0.268-0.31,1.509c-0.838,1.24-1.35,0.844-2.256,1.266s-0.838,0.601-0.598,0.857c0.239,0.256,1.196-0.179,2.444-1.036C439.385,103.571,438.804,104.837,437.95,105.388z" />
  <path fill="#999999" d="M410.946,94.272c1.069-0.187-1.079-0.733,1.658-0.844c0.223-0.009,0.497,0.056,0.769-0.022c3.538-1.015,7.405-2.405,6.813-2.507c-0.592-0.103-4.033-0.46-7.519,1.142c-3.486,1.603-1.891,1.057-3.122,1.313c-1.231,0.256-3.828,1.893-4.694,2.592s-2.074,1.228-2.074,1.228s-2.871,0.818-0.205,2.584c2.666,1.765,3.965,3.3,5.913,3.812c1.948,0.512,3.965,1.228,3.931,3.172c-0.034,1.944-0.41,2.711-1.469,4.042c-1.06,1.33,0.581,1.919,1.982,1.151c1.402-0.767,2.597-1.177,3.52-1.714s2.461-0.46,1.06,0.256c-1.402,0.716-2.871,1.151-1.06,1.202c1.811,0.051,12.715,0.256,15.004-0.486c2.29-0.742,5.263-0.972,5.537-3.94c0,0,0.103-1.318,0.957-1.867c0.854-0.55,1.436-1.816,0.188-0.959c-1.247,0.857-2.204,1.292-2.444,1.036c-0.239-0.256-0.308-0.435,0.598-0.857c0.906-0.422,1.418-0.026,2.256-1.266c0.838-1.241,0.755-1.036,0.31-1.509c-0.229-0.243-0.588-0.452-0.821-0.679c0,0-0.656-0.574-1.42-0.088c-0.763,0.486-4.113,1.901-5.457,2.063c-1.345,0.162-2.734,0.733-5.15,1.91c-2.416,1.177-6.425,3.573-7.064,1.347c0,0-1.749,0.624-2.131,0.818c-2.693,1.373-2.458-0.575-1.982-1.108c0,0-1.412,1.586-1.356,0.145c0.057-1.441,0.968-1.194,2.54-1.654c1.572-0.46,4.056-1.484,3.031-2.336s-2.108,0.847-3.247,1.366c-1.139,0.519-3.418,0.979-3.771-0.675c-0.353-1.654-0.342-2.806-3.429-2.984s-2.974-2.106-2.131-2.933S408.052,94.779,410.946,94.272L410.946,94.272z M289.354,149.166c0.085,3.159,4.225,1.985,4.225,1.985c-1.475,1.121-2.377,1.948-2.996,2.722c0.274-1.535-2.335-1.919-2.335-1.919C288.464,151.016,288.807,150.023,289.354,149.166z M304.577,132.283c0.599-0.784,1.054-1.444,1.307-1.927c0,0,1.504,1.045,1.572,2.964c0,0,1.948-3.355,3.486-4.619c0,0,1.367,1.396,1.128,4.184c0,0,2.803-1.484,7.143-1.509c0,0-1.606,1.893-1.675,2.993c0,0,6.016-0.665,9.16-0.154c0,0-8.271,4.63-5.947,5.039c2.324,0.409,4.751-0.026,4.751-0.026s-2.632,2.686-6.836,3.223c0,0,5.332-0.077,6.391,1.126c0,0-1.518,0.232-3.571,0.946c0,0-1.533-1.44-5.976-1.235c0,0,3.456-1.934,6.197-2.558c0,0-1.208-1.586-3.099-0.136c0,0-3.76-2.592-0.661-4.792c0,0-2.188-0.46-3.623,0.563c0,0,0.068-1.774,1.663-2.575c0,0-4.216-0.682-5.263,2.422c0,0-0.797-1.279-0.433-2.729c0,0-2.552,1.468-3.714,3.13C306.579,136.613,306.194,133.46,304.577,132.283 M296.407,152.333c-0.757,0.186-1.769,0.266-3.112,0.182c0,0,0.115-0.409,0.983-0.713C294.278,151.802,294.527,152.32,296.407,152.333" />
  <path fill="#000000" d="M420.758,109.232c0,0,4.808-2.217,9.228-3.257s0.957,0.136,0.205,0.375c-0.752,0.239-7.633,2.507-9.251,3.257C419.322,110.357,419.656,109.715,420.758,109.232L420.758,109.232z M421.874,110.204c0,0,5.4-1.79,6.403-1.04c1.003,0.751,0.182,0.375-1.003,0.546c-1.185,0.17-4.443,0.716-5.309,0.699C421.099,110.392,421.874,110.204,421.874,110.204z M430.533,108.328c0,0,1.025-0.188,1.139,0.188c0.114,0.375-0.456,0.427-1.025,0.358C430.077,108.806,429.576,108.481,430.533,108.328z M304.072,140.381c0,0,1.914,1.509,2.597,2.43c0,0,1.743-1.228,2.392-2.225c0,0,1.367,0.895,1.846,2.225c0,0,0.957-0.665,1.162-1.586c0,0,2.413,0.512,3.206,1.304c0,0,0.369-2.328,0-3.786c0,0,1.682,0.128,2.707,0.563c0,0-0.953-1.535,3.915-3.505c0,0-3.682,0.79-5.077,2.405c0,0-1.572,0.077-2.256-0.409c0,0,0.103,2.353,0.034,3.479c0,0-0.949-0.384-2.798-0.818c0,0-0.448,0.767-0.756,0.946c0,0-1.162-0.921-1.675-2.098c0,0-1.778,1.615-2.461,2.302C306.909,141.609,305.234,140.432,304.072,140.381L304.072,140.381z" />
</svg>
