<svg xmlns="http://www.w3.org/2000/svg" width="450px" height="300px" viewBox="0 0 450 300">
  <path fill="#00247D" d="M450,300H0V0h450V300z" />
  <path fill="#FFFFFF" d="M450,19.565L304.973,116.25H450v67.5H304.973L450,280.435V300h-29.348l-170.34-113.56V300h-50.625V186.44L29.348,300H0v-19.565l145.027-96.685H0v-67.5h145.027L0,19.566V0h29.348l170.339,113.56V0h50.625v113.56L420.652,0H450V19.565z" />
  <path fill="#FFE800" stroke="#00247D" stroke-width="7.7315" d="M309.199,150.301c0.008,46.668-37.817,84.506-84.484,84.514c-46.668,0.008-84.506-37.817-84.514-84.484c0-0.01,0-0.02,0-0.03c-0.008-46.668,37.817-84.506,84.484-84.514s84.506,37.817,84.514,84.484C309.199,150.281,309.199,150.291,309.199,150.301z" />
  <path fill="#00247D" d="M214.523,218.462c-14.166-2.116-32.572-11.32-41.205-20.604c-4.235-4.554-11.152-14.558-11.152-16.128c0-0.976,1.872-1.307,7.381-1.307h7.381l7.535,7.607c4.144,4.184,8.71,8.198,10.146,8.922c2.332,1.175,2.932,1.087,5.617-0.825c2.783-1.98,4.142-4.402,11.831-21.081c2.847-6.175,6.856-19.322,7.488-24.552c0.317-2.628,0.851-4.997,1.187-5.266c1.242-0.995,0.76-4.697-0.546-4.196c-1.755,0.673-1.633-1.145,0.177-2.647c0.807-0.669,1.467-2.111,1.467-3.204c0-1.925-0.061-1.932-1.956-0.218c-2.654,2.401-2.46,1.126,0.489-3.212c2.676-3.935,3.52-8.067,0.957-4.681c-0.784,1.036-1.701,1.609-2.037,1.274c-0.336-0.336,0.314-1.785,1.444-3.221c1.13-1.436,1.777-3.059,1.439-3.606c-0.354-0.573-1.378-0.005-2.41,1.337c-2.755,3.581-2.17,0.555,0.852-4.408c3.169-5.204,4.788-6.097,7.164-3.948c7.095,6.418,6.122,20.055-2.056,28.804c-3.42,3.659-3.679,4.369-5.348,14.636c-0.393,2.42-1.121,4.903-1.617,5.519s-0.782,1.495-0.635,1.955c0.273,0.855-1.602,6.325-3.214,9.377c-0.493,0.934-0.897,2.557-0.897,3.608c0,1.051-0.447,2.187-0.994,2.525c-0.547,0.338-0.76,0.993-0.473,1.457s0.046,1.136-0.533,1.494c-0.854,0.527-2.378,3.379-3.382,6.327c-0.799,2.347-1.964,4.502-2.702,4.999c-0.49,0.33-0.962,2.031-1.049,3.781c-0.148,2.966,0.14,3.271,4.242,4.502c2.42,0.726,8.032,1.615,12.471,1.975c5.561,0.451,8.07,1.043,8.07,1.905c0,0.688-0.55,1.436-1.223,1.663c-0.756,0.255-1.223,2.244-1.223,5.214v4.802l-3.423,0.147C221.905,219.269,217.736,218.942,214.523,218.462L214.523,218.462z M224.577,138.847c-0.301-0.301-0.848,0.242-1.215,1.206c-0.531,1.393-0.418,1.506,0.548,0.547C224.578,139.937,224.878,139.148,224.577,138.847z M237.481,214.717c0-1.709,0.683-4.426,1.518-6.04c2.138-4.133,1.021-6.418-4.508-9.218c-6.157-3.119-7.216-6.222-3.459-10.142c1.592-1.661,2.366-3.314,1.999-4.27c-0.414-1.078,0.317-2.033,2.366-3.092c2.461-1.272,7.131-1.533,27.467-1.533c13.476,0,24.502,0.354,24.502,0.786c0,1.693-6.219,10.455-11.051,15.572c-9.546,10.107-24.19,18.702-34.733,20.387C237.489,217.822,237.481,217.818,237.481,214.717L237.481,214.717z M244.73,196.799c-0.381-0.672-1.495-2.117-2.476-3.211c-2.382-2.657-1.52-8.627,1.453-10.066c2.063-0.999,2.064-1.012,0.075-1.077c-3.21-0.105-5.209,2.069-5.882,6.398c-0.555,3.566-0.311,4.31,2.158,6.599C242.932,198.105,245.97,198.988,244.73,196.799z M251.302,193.774c-0.761-0.916-0.352-2.21,1.534-4.859c1.414-1.986,2.318-3.863,2.009-4.172c-0.765-0.765-5.626,6.511-5.626,8.421c0,1.972,2.283,4.366,2.77,2.905C252.181,195.493,251.872,194.46,251.302,193.774z M158.3,173.212c-1.832-4.816-3.092-10.641-2.588-11.956c0.288-0.75,1.464-1.364,2.614-1.364c5.572,0,14.84-3.522,24.38-9.264c12.268-7.384,20.494-11.267,23.871-11.267c1.866,0,3.449,1.315,6.42,5.335c2.169,2.934,3.943,5.876,3.943,6.537c0,2.638-3.33,14.334-5.458,19.168l-2.259,5.133h-50.04L158.3,173.212L158.3,173.212z M218.293,174.014c0.326-0.85,1.553-4.924,2.727-9.055c1.174-4.131,2.314-7.731,2.535-7.999c0.22-0.269,1.202,0.499,2.181,1.705c1.301,1.604,1.643,3.212,1.272,5.977c-0.426,3.176-0.141,4.04,1.777,5.383c1.257,0.88,3.712,1.6,5.456,1.6s5.209,0.692,7.7,1.537c2.491,0.845,4.689,1.376,4.886,1.179c0.197-0.197,0.111-1.3-0.191-2.453c-0.661-2.526-4.924-4.174-10.8-4.174c-3.547,0-4.431-0.38-5.119-2.2c-1.129-2.986-0.46-3.761,2.331-2.7c4.052,1.54,9.147-0.538,18.021-7.349c6.039-4.635,12.256-6.926,16.147-5.95c1.389,0.348,5.94,3.381,10.114,6.739c4.174,3.358,9.44,7.303,11.701,8.766l4.111,2.66l-1.275,3.682l-1.275,3.682l-36.446,0.256C221.266,175.534,217.758,175.408,218.293,174.014L218.293,174.014z M235.299,150.542c-0.357-0.357,0.047-1.713,0.899-3.012c0.852-1.299,1.245-2.666,0.874-3.037s-1.067-0.04-1.546,0.735c-0.479,0.775-1.169,1.113-1.533,0.749c-0.364-0.363,0.532-2.695,1.989-5.181c1.458-2.486,2.368-4.803,2.022-5.148c-0.346-0.346-1.021,0.006-1.5,0.782c-1.727,2.792-2.166-0.005-0.612-3.89c1.942-4.85,1.943-4.909,0.122-4.909c-1.722,0-1.935-3.166-0.405-6.023c0.931-1.74,0.821-1.907-0.899-1.361c-1.427,0.453-2.13,0.092-2.579-1.324c-0.34-1.071-1.897-3.314-3.459-4.986c-2.413-2.582-3.145-2.878-4.855-1.963c-1.601,0.856-2.132,0.768-2.593-0.431c-1.048-2.73-2.287-1.574-1.789,1.669c0.449,2.921,0.396,3-0.663,0.978c-1.86-3.552-2.807-2.542-2.292,2.444c0.435,4.214,0.156,4.292-1.119,0.315c-0.382-1.191-0.663-1.18-1.921,0.077c-1.196,1.195-1.286,2.288-0.477,5.795c1.218,5.282,1.277,6.766,0.269,6.766c-0.426,0-1.305-1.98-1.953-4.399c-1.732-6.472-3.539-5.705-2.88,1.222c0.489,5.146,0.009,5.146-1.616,0c-0.649-2.057-2.558-2.286-2.558-0.308c0,0.772,0.429,2.531,0.954,3.911c0.525,1.379,0.572,2.508,0.105,2.508c-1.471,0-2.038-2.867-1.998-10.101c0.038-6.91,0.099-7.074,4.378-11.72c4.042-4.39,4.623-4.691,8.489-4.399c3.321,0.251,4.219-0.029,4.497-1.398c0.29-1.431-0.386-1.711-4.126-1.711c-4.119,0-4.473-0.193-4.473-2.444c0-1.344-0.37-2.444-0.821-2.444s-1.322,1.1-1.935,2.444c-0.613,1.344-1.564,2.444-2.113,2.444c-1.282,0-1.297-1.656-0.021-2.444c1.235-0.763,1.286-3.422,0.066-3.422c-0.502,0-1.192,0.88-1.533,1.955c-0.81,2.551-2.418,2.551-1.751,0c0.286-1.093,0.03-1.955-0.581-1.955c-0.601,0-1.092,0.854-1.092,1.898s-0.508,2.212-1.129,2.595c-0.7,0.432-0.864,0.268-0.431-0.431c0.415-0.672,0.071-1.129-0.851-1.129c-0.852,0-2.031,1.21-2.62,2.689c-0.649,1.63-1.257,2.184-1.544,1.407c-0.363-0.981-0.939-0.866-2.455,0.489c-1.741,1.556-1.673,1.159,0.558-3.266c2.86-5.671,6.172-8.683,11.024-10.022c3.014-0.832,3.922-0.501,10.402,3.79c6.925,4.585,10.31,5.527,7.092,1.972c-1.464-1.617-1.47-2.025-0.067-4.736c1.663-3.214,0.451-5.269-1.394-2.365c-0.925,1.457-1.01,1.305-0.531-0.957c0.612-2.889-0.246-3.428-2.333-1.466c-1.069,1.005-1.187,0.744-0.666-1.466c0.479-2.031,0.271-2.689-0.852-2.689c-0.817,0-1.434-0.33-1.37-0.733c0.303-1.92-0.246-2.331-1.605-1.203c-1.245,1.033-1.389,0.973-0.873-0.369c0.719-1.873,0.056-2.009-2.676-0.548c-1.087,0.581-2.226,0.807-2.531,0.502c-0.954-0.954,6.355-3.514,10.03-3.514c6.174,0,11.397,7.803,10.559,15.776c-0.681,6.485,1.105,6.757,4.174,0.636c3.8-7.579,4.961-8.591,9.853-8.591c3.511,0,4.93,0.617,8.188,3.559c2.168,1.957,3.703,3.797,3.412,4.088s-2.057-0.95-3.924-2.759c-3.504-3.394-6.056-3.448-2.991-0.063c0.949,1.048,1.533,2.479,1.299,3.181c-0.28,0.84-0.828,0.525-1.602-0.921c-0.657-1.227-2.101-2.197-3.269-2.197c-2.083,0-2.082,0.011,0.205,2.444c1.661,1.767,1.898,2.444,0.855,2.444c-0.793,0-1.921-0.478-2.505-1.063c-0.711-0.711-1.267-0.733-1.679-0.068c-0.338,0.547-0.168,1.272,0.379,1.609c1.944,1.201,0.955,2.481-1.451,1.878c-1.507-0.378-2.445-0.197-2.445,0.47c0,0.596,0.55,1.112,1.223,1.146c0.672,0.034,0.24,0.457-0.962,0.94c-1.415,0.569-1.981,1.408-1.607,2.382c0.703,1.832,1.445,1.845,7.845,0.142c2.767-0.736,6.157-1.124,7.531-0.861c1.375,0.263,4.943,3.038,7.929,6.166l5.429,5.689l-0.116,7.16c-0.087,5.368-0.303,6.426-0.862,4.228c-0.559-2.196-0.811-2.442-1.001-0.978c-0.14,1.075-0.522,0.23-0.849-1.879c-0.327-2.109-1.191-4.031-1.92-4.271c-0.958-0.315-1.143,0.138-0.668,1.634c0.41,1.292,0.233,2.071-0.471,2.071c-0.724,0-1.01-1.457-0.8-4.066c0.354-4.38-1.643-6.537-2.397-2.589c-0.4,2.092-0.441,2.069-0.564-0.313c-0.073-1.413-0.793-3.117-1.6-3.786c-1.259-1.044-1.483-0.68-1.58,2.569l-0.112,3.786l-0.713-3.677c-0.857-4.416-1.99-5.879-2.011-2.596c-0.008,1.299-0.442,3.023-0.963,3.829c-0.705,1.091-0.952,0.527-0.963-2.2c-0.008-2.016-0.455-3.666-0.993-3.666s-0.978,1.126-0.978,2.502c0,1.419-0.423,2.24-0.978,1.898c-0.538-0.332-0.978-1.458-0.978-2.502c0-1.044-0.44-1.898-0.978-1.898c-0.538,0-0.978,0.66-0.978,1.466s-0.619,1.466-1.376,1.466c-0.894,0-1.197-0.684-0.864-1.955c0.691-2.64-1.795-2.572-3.462,0.095c-1.54,2.465-1.496,2.516,5.518,6.239l5.563,2.953l0.798,8.196c0.532,5.468,0.443,9.048-0.269,10.754C244.935,141.599,236.142,151.385,235.299,150.542L235.299,150.542z" />
</svg>
