<svg xmlns="http://www.w3.org/2000/svg" width="450px" height="300px" viewBox="0 0 450 300">
  <path fill="#012169" d="M0,0h450v300H0V0z" />
  <path fill="#FFFFFF" d="M225,50h-49.844L225,16.771V0h-25.156L131.25,45.729V0h-37.5v45.729L25.156,0H0v16.771L49.844,50H0v50h49.844L0,133.229V150l0,0h25.155l68.595-45.73V150h37.5v-45.73L199.845,150H225l0,0v-16.771L175.156,100H225V50z" />
  <path fill="#E4002B" d="M0,11.18V0l75,50H58.229L0,11.18z M123.75,150V90H225V60H123.75V0h-22.5v60H0v30h101.25v60H123.75z M75,100L0,150h16.771l75-50H75z M166.77,100H150l75,50l0,0v-11.18L166.77,100z M133.23,50H150l75-50l0,0h-16.77L133.23,50z" />
  <path fill="#FFFFFF" d="M337.5,82.85c36.81,0,66.65,29.84,66.65,66.65s-29.84,66.65-66.65,66.65s-66.65-29.84-66.65-66.65S300.69,82.85,337.5,82.85z" />
  <path fill="#000000" d="M362.086,179.802c-1.066,0.688-2.148,1.451-2.052,2.858c-1.11-1.143-1.427-2.78-0.806-4.25c-1.385,0.186-2.07,1.388-2.345,2.638c-0.336-1.452-0.973-3.822,0.953-4.397c-0.256-1.241-1.466,0.639-1.546,1.301c-0.585,2.38-0.534-0.437-0.653-1.448c-0.09-0.961,0.541-1.804,1.319-2.198c0.946-1.877,3.385-1.226,5.056-1.099c1.215,0.149,2.971-0.267,2.743-1.834c0.147-2.115,0.048-5.214-2.45-5.86c-1.679-0.611-1.803,0.615-1.497,1.991c0.345,1.477-0.299,0.991-1.214,0.794c-0.873,0.042,0.259,1.544-0.711,2.092c-0.38,0.615-1.936-1.247-2.001-0.26c-0.168,1.084-0.717,2.664-2.125,2.198c-0.44,0.885-0.561,1.96-1.246,2.785c-1.19,1.777-3.188,2.69-5.056,3.444c-1.675,0.07-2.064,1.987-1.979,3.371c-0.687-1.352-1.915-3.229-0.586-4.543c-1.266,0.34-1.966,1.665-1.486,2.933c0.57,1.798-1.006-0.607-1.372-1.248c-0.787-0.673,0.318-2.578-0.366-2.418c-0.989,0.645-0.931,1.904-1.026,3.005c-0.439-1.311-1.546-3.231-0.073-4.25c0.041-2.323,2.823-2.644,4.617-2.565c1.591,0.403,1.975-1.527,3.005-2.345c0.823-1.404,2.253-2.448,2.931-3.884c0.265-2.142-2.611-2.525-3.518-4.104c-0.826-0.539-0.532-2.252-1.539-2.198c-2.646-0.059-5.263,0.643-7.695,1.539c-1.665,0.706-3.604-0.277-5.203,0.22c0.57,0.883-0.998,2.858-1.246,1.099c-0.525-0.566-0.456,2.65-1.319,1.172c-1.165-0.103,0.255,1.417-0.531,2.11c-0.134,1.107-1.552-1.295-1.814-0.205c0.287,0.985-0.318,2.962-1.246,1.466c-1.328-0.792-0.48,0.705-0.877,1.459c-0.792,2.014-0.562,0.215-1.468-0.506c0.369,0.589,0.051,2.69-0.66,1.832c-1.202-0.153-1.09,0.368-0.66,1.246c0.02,2.034-0.761,0.415-1.612,0.953c0.833,1.089-0.26,1.833-1.172,1.099c-1.743,0.293-2.675,2.199-2.858,3.884c-1.181,1.739-3.486,2.61-5.496,1.905c-0.9,0.786-0.819,2.432-2.198,2.785c-1.587,0.857-0.891-0.203-0.879-1.319c0.184-1.346-0.971-1.06-1.551-0.208c-0.782,0.657-1.11,2.652-1.525,0.654c-0.428-0.884-0.002-1.899,0.218-2.645c-0.354-0.993-1.243,1.059-1.383,1.658c-0.24,0.967-0.793-1.755-0.596-2.317c0.876-1.476,1.285-3.83,3.298-4.324c1.859-0.092,3.76,0.062,5.643,0c0.724-1.844,1.408-3.699,1.786-5.624c0.304-1.653,1.708-2.933,1.365-4.709c-0.046-0.94-1.597,1.522-1.099-0.806c-0.081-0.585-2.484,2.53-1.507,0.483c0.412-0.771,0.484-2.545-0.24-0.963c-0.95,1.25-2.59,1.475-4.042,1.653c1.104-0.633,2.694-1.637,2.565-2.858c-0.666,0.623-2.131,2.743-2.014,0.658c-0.182-1.225-0.498-2.828-0.697-3.809c-1.331,0.382-2.684,0.101-4.031-0.147c0.717-0.346,1.892-2.004,0.44-1.979c-1.345,0.437-1.733-0.59-2.923-0.17c-0.721-0.736-2.062-0.421-3.086-0.197c0.492-1.513-1.383-0.934-1.392,0.147c-0.795,0.682-0.735,2.099-1.979,2.345c-0.536,0.266-2.814,1.142-2.2,0.465c0.944-0.394,1.366-2.664,0.096-2.083c-0.927,0.722-1.315,1.695-1.121,2.864c-1.048-1.003-2.004-2.578-1.099-3.957c-0.997,0.436-1.692,1.243-2.198,2.198c-0.336-1.654-0.967-3.744,0.366-5.056c-1.212,0.377-1.441,1.991-1.905,3.078c-0.012-1.687-0.768-4.212,1.026-5.203c1.077-0.412,1.467-1.865,2.638-2.345c1.588-1.312,3.965-1.007,5.569,0.147c0.961,0.397,1.876,0.47,2.931,0.366c2.17-0.107,4.447,0.113,6.449,1.026c0.138-0.712,1.909-1.926,0.513-1.979c-1.606-0.327,0.267-1.31,0.44-2.198c0.767-1.264-0.156-2.571,0.147-3.884c0.403-1.347,2.18-1.507,2.858-2.638c0.468-1.252-1.149-0.169-1.759-0.22c-1.026,0.615-2.656-0.425-1.685-1.539c0.033-1.096-0.7-2.948-2.052-2.345c-1.903,0.193-4.267-0.23-4.837-2.345c-0.324-1.1,0.56-2.93,1.832-1.905c1.207,0.747,1.954,2.304,3.591,1.905c1.02-0.06,2.009-0.273,3.005-0.513c-0.762-0.749-1.679-1.561-2.785-0.953c-1.703,0.414-2.823-1.359-2.345-2.858c-0.034-0.952,0.088-2.834,1.539-2.272c1.27-0.143-1.355-0.598-1.246-1.392c0.26-1.424,2.265-0.955,3.224-1.685c1.86-0.838,3.256-2.991,5.569-2.711c1.151-1.114,3.009-1.08,4.543-1.173c-0.24-1.197,0.229-2.433,0.879-3.444c0.662,0.628,1.242,2.587,2.125,2.052c0.975-0.706-0.965-1.473,0.806-1.685c1.38-0.374,2.364,1.043,2.418,2.272c0.947-0.045,1.916,0.622,1.979,1.612c1.211-1.362,3.2-1.037,4.69-0.366c-0.395,0.422-1.159,2.759-0.293,1.539c0.613-0.944,2.945-0.669,2.345,0.66c-0.27,1.734,0.838-0.394,1.752,0.364c1.492-0.069-0.394,0.958,0.3,1.688c0.931,0.597,0.975,2.03,2.198,2.418c0.987,0.407,2.226,0.734,0.806,1.685c-1.089,0.64-1.601,0.739-0.293,1.612c1.396,1.286,0.072,3.691,1.979,4.617c0.64,0.725,2.497,0.543,1.099,1.612c-0.842,0.643-1.437,0.894-0.808,2.045c0.067,0.806,1.923,1.669,1.058,2.095c-0.869,0.316-1.917,0.777-2.741,0.184c-0.851,1.53,1.107,2.406,2.346,2.455c6.324-1.082,12.714-2.462,19.05-3.829c3.139-0.767,6.666-0.162,9.044,2.173c1.654,1.469,4.313,0.079,4.339-2.046c0.465-2.564-2.36-4.121-4.599-3.862c-5.197-0.502-10.435-0.459-15.597-1.267c-3.071-0.645-5.797-3.025-6.2-6.229c-0.686-3.37,0.891-7.346,4.368-8.427c3.422-1.38,7.332-1.083,10.626,0.513c2.264,0.377,4.284-0.867,6.302-1.685c2.287-0.78,4.808,0.268,6.082,2.272c1.298-0.801,2.923-0.411,4.25,0.147c-1.083,0.496-2.422,0.902-3.078,1.905c0.812,0.906,1.676,1.888-0.147,1.759c-1.068,0.225-2.3,0.373-3.005,1.319c-3.077,0.029-6.534-0.067-8.94-2.198c-1.822,0.064-3.467-0.772-5.13-1.319c-2.56-0.391-6.279-0.246-7.182,2.711c-0.738,1.908-0.263,4.299,1.685,5.276c3.858,1.896,8.348,1.379,12.531,1.685c3.946,0.258,8.463,0.402,11.505,3.298c2.249,2.198,2.017,5.916,0.032,8.206c-1.011,1.228-2.245,2.275-3.623,3.079c0.933,2.555,2.831,5.127,1.832,7.914c-0.032,1.361-1.823,1.974-1.539,3.371c-0.135,1.969-0.932,4.029-2.638,5.13c1.625,0.811,0.855,1.022-0.124,1.872c-0.418,0.608,1.599,0.492,1.923,1.33c1.551,1.068-0.521,0.474-1.139,1.048c0.419,0.161,1.53,2.792-0.073,2.198c-1.487-0.078-0.248,1.338-0.733,2.125c-0.465,1.547-2.05,2.766-2.052,4.543c-0.338,1.851-1.599,4.213-3.815,3.737C364.048,178.579,363.252,179.924,362.086,179.802L362.086,179.802z" />
  <path fill="#E4002B" d="M373.005,145.506L373.005,145.506c0.659,1.466,1.319,3.005,1.979,4.543c0.586,2.565-0.073,4.397-1.539,5.789c0,2.711-0.733,5.056-3.444,6.449c0.66-0.147,1.173,0,1.685,0.586c-0.66,0.147-1.099,0.879-1.539,1.685c0.953-0.147,1.905,0.147,2.711,1.026c-0.66,0-1.392,0.293-2.052,0.879c0.879,0.147,1.539,0.513,1.319,1.685c-0.586-0.22-1.173,0-1.759,0.586c0.513,0.733,0.366,1.466,0.147,2.198c-0.513,0.806-1.026,1.612-1.539,2.418c-0.66,2.418-0.879,6.082-4.617,5.056c-0.66,0.513-1.392,1.026-2.711,1.099c-1.466-0.22-1.612,0-2.198-1.392c-1.172-0.66-1.246-0.586-1.246-1.905c-0.953-0.66-0.953-1.319-0.879-1.979c0.953-1.099,2.418-1.026,3.884-0.733c2.052,0.147,3.884,0.073,3.884-1.905c0.366-5.789-1.832-6.815-4.763-6.449c0.073,1.026,0.147,2.052,0.147,3.005c-0.366-0.147-0.806-0.293-1.832,0c0.366,0.586,0.66,1.173,0,2.052c-0.44-0.293-1.172-0.586-2.052-0.879c-0.073,1.026-0.147,2.125-1.026,2.711c-1.026-0.293-1.466,0.073-1.392,1.172c-1.172,2.565-2.785,3.957-4.763,4.47c-0.513,0.44-1.026,0.806-1.685,0.44c-1.026,0.22-1.466-0.513-1.759-1.319c-0.66,1.172-2.785,0.733-2.711-0.586c-1.099-0.073-1.539-0.513-1.319-1.319c0.293-1.319,2.125-1.905,5.496-1.685c1.319-1.685,2.638-3.371,4.031-5.056c1.685-1.539,1.392-3.005-1.026-4.397c-1.466-1.026-2.272-2.272-2.565-3.737c-2.931-0.22-5.423,0.366-7.768,1.246c-1.026,0.44-2.125,0.733-4.177,0.293c-0.953,0.073-1.832,0.073-2.711,0.147c0.953,0.44,1.026,0.953,0.293,1.759c-0.147-0.586-0.733-0.879-1.759-0.733c0.293,0.366,0.879,0.66,0.293,1.392c0-0.147-0.513-0.147-1.612,0c0.44,0.586,0.733,1.246,0.293,2.198c-0.44-0.586-1.172-0.659-1.979-0.733c0.366,0.733,0.366,1.539,0,2.272c-0.733-0.659-1.466-0.879-2.198-0.513c0.513,0.586,0.513,1.319,0,2.125c-0.147-0.879-0.733-1.246-1.392-1.466c0.366,1.026,0.44,1.832,0.147,2.345c-0.366-0.366-1.026-0.293-2.052,0.293c0.66,0.44,0.953,1.026,0.586,1.832c-0.513-0.66-1.026-0.586-1.539,0.293c0.44,0.366,0.513,0.66,0.293,1.026c-0.879-0.44-1.759-0.586-2.638,0.586c-0.66,0.22-1.172,1.319-1.539,3.151c-1.392,1.759-3.151,2.345-5.349,1.685c-0.879,1.172-1.905,1.319-3.151,0.44c-0.953,0.147-1.905,0.22-2.125-0.733c-0.22-0.147-0.293-0.44-0.293-0.806c-1.319-0.147-1.612-0.66-1.026-1.466c0.586-1.685,1.612-2.785,3.444-2.418h4.617c0.44-1.392,0.953-2.711,1.392-4.031c0.22-1.466,0.66-3.005,1.612-4.617c0.44-1.392,0.147-2.785-0.147-4.177c-0.073,0.66,0.073,1.246-0.733,1.905c0-0.66-0.22-1.392-0.586-2.052c0.073,0.66-0.22,1.246-0.806,1.759c0.293-0.806,0.147-1.759,0-2.785c-0.66,1.685-1.612,2.858-3.224,3.078c1.026-0.586,1.539-1.539,1.319-3.298c-0.586,1.026-1.246,1.612-1.832,2.125c-0.293-1.612-0.586-3.151-0.879-4.763c-1.099,0.513-2.272,0.44-3.591,0.147c0.733-0.586,0.953-1.099,0.733-1.685c-0.366-0.22-0.293-0.586-2.492-0.293c-0.073-0.513-0.586-0.586-1.392-0.293c-0.366-0.44-1.246-0.586-2.785-0.293c0.22-0.733-0.293-0.953-1.539-0.733c-0.22,0.806-0.66,1.466-1.319,2.052c-1.172,0.293-1.832,0-1.979-0.879c-2.125,0.733-2.492-0.073-2.638-1.026c-1.979-0.293-2.052-1.392-2.125-2.418c-0.586-0.806-0.586-1.539,0-2.345c1.832-2.125,3.957-3.151,6.742-1.392c0.513,0.147,0.953,0.366,1.466,0.586c2.785-0.22,5.569-0.293,8.281,0.953c0.586-0.806,1.173-1.685,1.759-2.565c-0.513,0.147-1.026,0.073-1.612-0.293c0.733-0.806,1.246-1.832,1.466-3.151c-0.44-1.392-0.66-2.711,0.44-3.151c0.66-0.513,1.319-0.953,1.979-1.466c0.44-0.953,0.293-1.392-0.293-1.392c-0.66,0.147-1.392,0.366-2.125,0.513c-1.172,0-1.392-0.366-0.879-1.099c0.22-1.026-0.22-2.052-1.246-3.005c-4.104,0.586-5.203-0.586-5.643-2.198c0-1.905,0.733-2.418,3.151,0.293c1.392,0.733,3.884,0.147,6.522-0.586c-1.759,0.513-2.272-2.125-3.957-1.246c-2.345,0.366-2.565-0.953-2.418-2.492c0.073-1.099,0.147-2.272,0.879-1.979c0.879,0.22,1.539-0.147,1.246-0.586c-1.612-0.733-2.125-1.099-1.539-1.612c0.806-0.22,1.612-0.44,2.418-0.66c1.026-0.513,1.905-1.026,2.638-1.759c1.099-0.953,2.198-1.172,3.298-1.172c0.586-0.733,2.198-1.099,4.763-1.099c-0.147-1.099-0.147-2.125,0.513-3.151c0.586,0.66,1.099,1.392,1.612,2.125c1.246-0.586,1.539-1.246,0.879-1.832c1.392-0.733,2.272,0,2.565,1.979c1.612,0,2.198,0.733,1.832,2.272c1.026-1.246,2.125-2.198,4.617-1.099c-0.513,0.953-0.66,1.905-0.44,2.858c0.733-1.466,1.612-2.272,2.785-1.466c-0.22,0.953,0,1.905,0.513,2.858c-0.22-1.466,0.293-1.979,1.612-1.539c-0.586,0.733-0.366,1.466,0.586,2.125c0.22,1.319,1.466,1.905,2.858,2.492c-0.586,0.806-1.539,1.319-2.858,1.392c2.052,0.586,2.931,1.905,2.711,4.031c0.366,1.246,1.246,2.125,2.711,2.565c-0.44,0.586-0.953,1.466-1.392,0.733c-0.293,1.246,0.147,2.492,1.392,3.737c-1.246,0.586-2.198,0.586-2.711,0c-1.026,1.905-0.073,3.005,2.711,3.298c2.785-0.513,5.496-1.026,8.208-1.539c3.591-0.806,7.182-1.539,10.772-2.345c2.858-0.44,5.643-0.586,8.501,2.052c4.763,3.518,7.988-5.569,1.319-6.302c-4.983-0.366-9.966-0.733-14.95-1.026c-4.91-0.66-7.475-3.078-7.768-7.182c-0.293-4.543,2.052-7.182,7.182-7.914c2.492-0.293,4.983,0,7.475,1.319c1.392,0.147,2.858-0.147,4.324-0.733c3.444-2.052,6.082-1.539,7.988,1.392c0.879-0.513,1.832-0.879,3.444-0.293c-1.392,0.66-2.272,1.246-2.565,1.905c0.366,0.44,0.66,0.879,1.026,1.319c-1.392,0.22-2.931,0.293-3.884,1.392c-4.617,0.147-7.108-0.733-8.647-2.125c-1.759-0.073-3.298-0.513-4.69-1.319c-5.35-0.733-8.794,0.513-8.354,5.936c0.733,2.492,3.224,3.884,9.307,4.104c4.544,0.366,9.014,0,13.557,1.466C379.673,134.734,380.333,141.183,373.005,145.506z M359.521,178.776L359.521,178.776c-0.44,1.099-0.366,2.125,0.293,3.005c0.073-0.66,0.733-1.319,1.759-1.979C360.547,179.875,359.814,179.509,359.521,178.776z M357.836,177.018c-0.953,0.293-1.173,1.246-0.879,2.785c0.22-0.733,0.806-1.319,1.832-1.612C357.909,178.043,357.543,177.677,357.836,177.018z M357.469,175.845c-0.44-0.293-0.586-0.659-0.513-1.099l0,0c-1.026,0.366-1.026,1.612-0.879,2.931C356.297,176.944,356.663,176.211,357.469,175.845z M346.037,177.824c-0.659,0.513-0.586,1.466,0.22,2.858c0-0.953,0.44-1.685,1.173-2.125C346.843,178.483,346.33,178.337,346.037,177.824z M343.179,177.164c-0.366,0.733-0.073,1.685,0.806,2.711c-0.22-0.733,0-1.466,0.66-2.272C344.132,177.75,343.692,177.603,343.179,177.164z M341.64,175.771c-0.586,0.44-0.586,1.246-0.22,2.345c0.073-0.586,0.366-1.246,1.099-1.832C342.227,176.211,341.934,176.284,341.64,175.771z M310.276,180.168c0.22,0.66,0.293,1.319,0,2.125c1.099-0.22,1.685-0.953,1.979-1.979C311.595,180.535,310.935,180.608,310.276,180.168z M307.638,179.142L307.638,179.142c-0.513,0.66-0.586,1.539-0.073,2.638c0.22-0.586,0.733-1.172,1.466-1.759C308.297,180.022,307.784,179.802,307.638,179.142z M305.805,179.875c0.22-0.879,0.66-1.392,1.173-1.759c-0.293-0.073-0.66-0.147-1.026-0.44C305.439,177.97,305.512,178.849,305.805,179.875z M296.279,156.278c0.513,0.586,0.073,1.246-0.44,1.832c1.539-0.366,2.345-0.879,2.492-1.539C297.671,156.791,297.012,156.718,296.279,156.278z M293.494,155.179c-0.733,0.879-0.586,1.905,0.293,3.005c0-0.66,0.44-1.392,1.319-2.198C294.374,155.986,293.787,155.766,293.494,155.179z M291.296,152.834c-0.733,0.586-0.66,1.905-0.293,3.664c0.44-0.66,1.099-1.246,2.052-1.685C291.955,154.373,291.589,153.64,291.296,152.834z M290.709,150.416c-1.099,0.293-1.319,1.612-1.173,3.371c0.293-0.953,0.879-1.539,1.612-1.832C290.783,151.442,290.709,150.929,290.709,150.416z" />
  <path fill="#000000" d="M323.613,134.954c-0.22-1.539-0.879-3.078-1.979-4.617C322.953,131.216,323.613,132.755,323.613,134.954z M326.031,125.647c1.685,1.612,3.078,3.151,3.957,4.69C329.256,127.919,327.79,126.526,326.031,125.647z M323.833,128.358c1.832,2.345,3.005,4.983,3.078,8.061C327.497,132.169,325.958,129.97,323.833,128.358z M322.807,129.824c1.905,2.345,2.785,4.91,2.272,7.695C325.885,133.708,325.079,131.143,322.807,129.824z M313.709,121.76c0.371-0.124,0.595-0.229,0.941-0.254l0,0c0.269-0.02,0.619,0.006,1.196,0.102c0.428,0.039,1.26,0.056,1.705,0.254c0.019,0.009,0.059,0.016,0.076,0.025c0.006,0.003,0.02,0.022,0.025,0.025c0.021,0.014,0.058,0.035,0.076,0.051c0.004,0.004,0.022,0.021,0.025,0.025c0.004,0.004,0.022,0.021,0.025,0.025c0.007,0.009,0.02,0.042,0.025,0.051c0.01,0.019,0.019,0.055,0.025,0.076c0.001,0.005-0.001,0.02,0,0.025c0.002,0.017,0.026,0.058,0.025,0.076c-0.002,0.019-0.021,0.056-0.025,0.076c-0.009,0.034-0.033,0.09-0.051,0.127c-0.078,0.152-0.217,0.342-0.458,0.56C316.149,124.106,313.196,123.885,313.709,121.76z M317.525,122.193c-0.806,0.293-1.827,0.521-2.926,0.814C316.724,123.3,317.452,122.925,317.525,122.193z M313.938,122.371c0.046,0.118,0.151,0.253,0.305,0.407c0.011-0.007,0.038-0.018,0.051-0.025c0.422-0.211,1.929-0.493,2.697-0.763c-0.857-0.182-1.66-0.279-2.239-0.229l0,0c-0.216,0.019-0.42,0.071-0.56,0.127c-0.02,0.009-0.058,0.016-0.076,0.025c-0.047,0.026-0.096,0.069-0.127,0.102c-0.004,0.004-0.022,0.021-0.025,0.025c-0.006,0.009-0.02,0.042-0.025,0.051c-0.007,0.014-0.021,0.036-0.025,0.051c-0.003,0.01,0.001,0.04,0,0.051c0,0.011,0,0.039,0,0.051c0.001,0.012-0.002,0.039,0,0.051C313.916,122.313,313.931,122.351,313.938,122.371z M359.888,178.117C359.888,178.116,359.888,178.116,359.888,178.117C359.888,178.116,359.888,178.116,359.888,178.117L359.888,178.117z M361.133,176.871c-1.392-0.22-1.392,0.513-1.246,1.246c0.22-0.733,0.66-1.172,1.539-0.953c2.345,0.366,3.591-0.22,3.811-1.759C364.724,176.578,363.552,177.31,361.133,176.871z M358.495,175.992L358.495,175.992L358.495,175.992L358.495,175.992z M360.694,175.332c2.931,0.44,3.664-0.22,4.031-1.026c-0.806,0.66-2.125,1.099-4.177,0.806c-1.172-0.147-1.979,0-2.052,0.879C359.008,175.405,359.741,175.259,360.694,175.332z M347.649,175.698c-1.026-0.44-1.612-0.147-1.539,0.806c0.147-0.586,0.806-0.806,1.832-0.586c1.539,0,2.198-0.806,2.638-1.905C350.141,175.112,349.335,175.845,347.649,175.698z M347.943,173.5c-0.586,0.513-1.392,0.806-2.565,0.879c-1.246-0.22-1.979,0.293-2.052,1.685c0.366-1.026,1.539-1.466,3.005-1.685C347.65,174.526,347.87,174.086,347.943,173.5z M313.207,178.923c-0.293-1.246,0.366-1.759,1.466-1.905C313.5,176.944,312.474,177.091,313.207,178.923z M314.599,175.845c-2.052-0.513-3.884-0.586-5.496-0.073c-0.879,0.293-1.392,1.026-1.539,2.125c0.293-0.879,0.806-1.466,1.612-1.759C310.789,175.625,312.694,175.625,314.599,175.845z M310.496,177.237c-1.172,0.073-1.099,1.026-0.806,2.198c0-0.953,0.073-1.832,0.953-1.905c0.879-0.66,2.418-0.879,4.104-0.953l0,0C313.134,176.504,311.522,176.504,310.496,177.237z M367.802,118.685c-1.759,1.173-3.664,2.125-6.156,2.418C364.431,121.25,366.336,120.297,367.802,118.685z M369.268,120.151c-1.466-0.147,2.565,0.953,2.565,0.953C371.539,120.517,370.66,120.37,369.268,120.151z M365.897,122.862c2.565,1.539,4.837,1.466,6.962,0.293C370.513,123.961,368.242,123.595,365.897,122.862z M375.423,120.737c-2.418,1.319-5.056,0.879-7.695-0.22C370.367,122.422,373.005,123.082,375.423,120.737z M373.687,120.47c-1.575-2.068-4.633-2.224-7.417,0.047C368.908,119.198,371.576,119.071,373.687,120.47z M365.31,121.176c2.858,1.832,6.009,2.272,9.38,1.099C371.246,123.008,368.095,122.569,365.31,121.176z M335.412,161.115c1.319,0.073,2.125-0.44,1.685-2.272C336.731,160.382,336.071,160.822,335.412,161.115z M348.089,159.943c4.03,1.026,7.108,0.659,8.867-1.979C354.171,160.016,351.167,160.309,348.089,159.943z M359.961,164.853c-2.638-3.444-2.492-7.035-1.099-10.699C356.883,158.184,356.59,161.848,359.961,164.853z M319.509,117.073c0.513,1.246,0.293,2.418-0.22,3.664C320.242,119.198,320.535,117.879,319.509,117.073z M311.155,127.552c-0.22,0.733-1.172,0.733-2.931,0C310.642,129.091,311.009,128.431,311.155,127.552z M313.207,132.242c1.979-0.806,0.147-1.246-3.298-1.612C311.961,131.07,314.16,131.51,313.207,132.242z M297.744,149.683c-2.785-0.953-4.837-0.293-6.009,2.052C293.421,149.903,295.473,149.39,297.744,149.683z M293.788,153.934c1.246-1.905,3.078-2.785,5.056-3.151C296.426,150.709,294.52,151.296,293.788,153.934z M296.059,155.179c0.733-1.685,2.125-2.638,4.031-2.931C297.964,151.662,296.719,152.834,296.059,155.179z M310.203,146.752c1.246-2.565,2.638-5.056,4.543-7.401C311.448,141.109,310.642,143.894,310.203,146.752z M318.264,139.351c-0.806-1.392-0.586-2.711,0-4.104C317.458,136.639,317.238,137.958,318.264,139.351z M316.578,136.199c0,0.733-0.366,1.392-1.099,2.125C316.651,137.518,317.018,136.786,316.578,136.199z M314.599,135.906c0.22,0.806,0.366,1.612-0.073,2.418C315.479,137.519,315.112,136.712,314.599,135.906z M313.28,135.687c0.22,0.953,0.073,1.905-0.366,2.785C313.94,137.592,314.013,136.639,313.28,135.687z M311.009,129.677c-3.444-1.905-4.177-1.319-3.664,0.293C307.125,128.798,308.371,128.651,311.009,129.677z M308.664,125.573c1.246,0.44,1.905,0.953,2.565,1.612C311.009,125.866,310.129,125.354,308.664,125.573z M308.151,133.855c2.345,0.073,4.617-0.66,6.742-1.905C312.694,132.902,310.422,133.561,308.151,133.855z M316.212,135.686c3.664-3.298,2.198-5.423-2.785-6.669C316.945,130.63,318.63,132.682,316.212,135.686z M327.168,120.69c0.806-0.513,2.015-0.832,3.334-0.905C328.816,119.198,327.681,119.517,327.168,120.69z M328.084,124.255c-2.052,0.66-3.371,0.22-4.031-1.173C324.566,125.28,325.958,125.647,328.084,124.255z M328.084,123.595c-1.173-1.612-2.418-2.785-4.031-0.879C325.519,121.616,326.838,122.276,328.084,123.595z M322.786,122.238c1.832-1.759,4.151-1.495,6.423,0.704C327.011,120.524,324.765,119.6,322.786,122.238z M321.488,121.909c2.345-1.026,2.931-2.125,2.711-3.371C323.833,119.638,323.1,120.81,321.488,121.909z M322.587,116.853c-0.513,1.392-1.466,2.785-2.858,4.177C322.221,119.784,323.393,118.392,322.587,116.853z M337.024,126.6c-1.979-2.492-3.444-2.711-4.324-0.733C334.019,124.548,335.485,125.427,337.024,126.6z M330.722,126.087c0.22-1.173,0.879-2.418,1.979-3.664C330.795,123.595,330.135,124.768,330.722,126.087z M328.743,125.5c0.66-1.246,1.832-2.492,3.591-3.811C330.062,122.422,328.816,123.668,328.743,125.5z M332.334,127.479c-0.073,1.099,4.91,0.44,5.423-0.44C335.925,127.552,334.166,127.845,332.334,127.479z M337.683,134.807c-0.073-4.104-1.389-6.157-4.247-6.23C336.221,129.896,337.537,131.876,337.683,134.807z M335.045,131.802c0,2.931,1.466,5.35,4.983,7.035C337.39,136.639,335.924,134.221,335.045,131.802z M328.23,134.441c1.612,2.125,2.418,4.397,2.931,6.815C331.308,137.592,330.501,135.174,328.23,134.441z M327.937,132.535c1.392,0.44,2.418,1.466,2.931,3.224C330.868,133.268,329.915,132.169,327.937,132.535z M329.109,126.599c2.492,2.198,4.324,4.543,5.276,7.035C333.58,129.164,331.674,127.259,329.109,126.599z M324.915,127.479c3.298,2.198,5.659,4.397,7.418,6.669C331.015,131.656,328.653,129.458,324.915,127.479z M323.027,144.187c0.879-4.837-0.806-7.548-4.104-8.867C321.488,137.445,323.027,140.303,323.027,144.187z M334.678,153.787c1.246,2.565,1.319,5.056-1.246,7.475C337.17,159.137,336.877,156.572,334.678,153.787z M314.819,160.016c1.392-0.513,2.345-1.246,1.539-2.858C316.651,158.55,315.845,159.283,314.819,160.016z M309.397,154.52c-1.246-1.392-1.466-2.858-1.173-4.25C307.345,152.028,307.418,153.567,309.397,154.52z M310.569,156.792c-0.147-2.052,0.073-4.104,0.879-6.156C310.056,152.101,309.983,154.227,310.569,156.792z M313.207,159.356c-0.073-3.151,1.172-6.229,2.858-9.38C313.867,152.321,312.548,155.253,313.207,159.356z M320.022,156.059c1.026,1.612,1.832,3.224,1.685,4.837c-3.151-0.22-4.031-2.492-4.983-4.763c0.44,3.591,1.979,6.082,5.936,5.936C323.027,158.917,321.708,157.378,320.022,156.059z M324.053,158.404c-1.759-1.685-2.345-3.518-2.785-5.423C321.195,154.813,321.268,156.572,324.053,158.404z M317.311,142.208c-0.513,3.737-2.125,6.522-4.47,8.721C315.845,149.39,317.677,146.825,317.311,142.208z M315.112,140.01L315.112,140.01c-0.293,1.759-1.172,3.591-2.785,5.423c-0.953,1.026-0.953,3.005,0,5.936c-0.147-2.272-0.22-4.397,0.953-5.569C315.112,143.381,315.699,141.476,315.112,140.01z M317.677,140.083c0.586,3.151,0.66,6.302-0.44,9.38c-0.806,2.345-0.66,4.543,1.685,6.669c-1.759-2.565-1.759-4.763-1.026-6.888C319.07,145.946,318.484,142.942,317.677,140.083z M324.199,147.778L324.199,147.778L324.199,147.778L324.199,147.778z M324.053,153.86c-0.953-2.125-0.22-4.177,0.146-6.082c-1.319,2.785-1.759,5.496-0.366,7.914c0.953-2.272,1.979-4.543,2.931-6.888C325.372,150.27,323.833,151.808,324.053,153.86z M319.216,155.693c0.66-6.522,6.669-9.014,0.073-15.609C324.419,147.705,317.824,149.903,319.216,155.693z M321.708,133.561c2.492,3.811,3.224,8.208,2.125,13.191C326.032,140.523,324.419,136.712,321.708,133.561z M333.36,134.441c2.125,2.565,3.371,5.203,3.444,7.768C337.39,139.277,335.851,136.713,333.36,134.441z M336.951,143.307c-2.565-1.246-4.104-4.397-5.056-8.281C332.554,139.424,334.019,142.648,336.951,143.307z M331.381,146.532c2.492-3.371,1.759-6.669,0.073-10.04C332.26,139.864,332.553,143.161,331.381,146.532z M325.372,137.519c1.099,1.759,1.759,3.518,1.979,5.276C327.79,140.89,327.131,139.131,325.372,137.519z M325.225,143.234c1.759,2.785,2.785,5.789,3.151,8.794C328.816,148.364,327.717,145.359,325.225,143.234z M326.837,137.005c3.298,5.056,4.763,10.113,1.905,15.243C332.114,146.825,332.04,141.695,326.837,137.005z" />
</svg>
