<svg xmlns="http://www.w3.org/2000/svg" width="450px" height="300px" viewBox="0 0 450 300">
  <path fill="#00008B" d="M0,0h450v300H0V0z" />
  <path fill="#FFFFFF" d="M132,220.549l15.684-23.606l-26.505,10.038L112.501,180l-8.678,26.98l-26.505-10.038l15.684,23.606L68.63,235.013l28.235,2.456l-3.888,28.074L112.502,245l19.525,20.543l-3.888-28.074l28.235-2.456L132,220.549z M362.558,254.768l-13.445,1.17l1.851,13.368l-9.297-9.783l-9.297,9.783l1.852-13.368l-13.445-1.17l11.606-6.888l-7.468-11.241l12.621,4.78l4.132-12.848l4.132,12.848l12.621-4.78l-7.468,11.241L362.558,254.768z M287.558,136.018l-13.445,1.17l1.851,13.368l-9.297-9.783l-9.297,9.783l1.852-13.368l-13.445-1.17l11.606-6.887l-7.468-11.241l12.621,4.78l4.132-12.848l4.132,12.848l12.621-4.78l-7.468,11.241L287.558,136.018z M320.776,54.769l11.606-6.888l-7.468-11.241l12.621,4.78l4.132-12.848l4.132,12.848l12.621-4.78l-7.468,11.241l11.606,6.888l-13.445,1.17l1.851,13.368l-9.297-9.783l-9.297,9.783l1.852-13.368L320.776,54.769z M415.779,117.188l1.851,13.368l-9.297-9.783l-9.297,9.783l1.852-13.368l-13.445-1.17l11.606-6.887l-7.468-11.241l12.621,4.78l4.132-12.848l4.132,12.848l12.621-4.78l-7.468,11.241l11.606,6.887L415.779,117.188z M383.555,158.637l-6.605,5.579l2.064,8.396l-7.347-4.557l-7.347,4.557l2.064-8.396l-6.605-5.579l8.623-0.632l3.265-8.005l3.265,8.005L383.555,158.637z M225,16.771L175.156,50H225v49.999h-49.846L225,133.23V150l0,0h-25.155l-68.595-45.729V150H93.751v-45.73L25.155,150H0.001v-16.771l49.845-33.23H0.001V50h49.844L0.001,16.771V0h25.154l68.596,45.731V0.002h37.499V45.73L199.845,0H225v0.001V16.771z" />
  <path fill="#FF0000" d="M150,50h-16.771l75-50H225L150,50z M75,50L0,0l0,0v11.181L58.229,50H75z M0,150h16.771l75.001-50.001h-16.77L0,150z M149.998,99.999L225,150v-11.181l-58.23-38.82H149.998z M123.75,0h-22.5v60H0.001v30h101.25v60h22.5V90H225V60H123.75V0z" />
</svg>
