<svg xmlns="http://www.w3.org/2000/svg" width="450px" height="300px" viewBox="0 0 450 300">
  <path fill="#00267F" d="M0,0h450v300H0V0z" />
  <path fill="#FFC726" d="M150,0h150v300H150V0z" />
  <path fill="#000000" d="M288.131,98.175c-11.925,1.856-24.206,8.119-32.606,16.819c-0.975,1.2,5.194-1.312,5.756-1.388c4.612-1.388-1.369,6.487-1.706,8.55c-4.725,15.094-8.831,29.681-10.35,47.044c0,1.2-0.188,2.081-0.75,2.138l-15.787-2.344v-55.913c3.713-0.094,9.487,0.881,12.787,1.969c-10.631-10.594-15.6-24.431-20.475-37.725c-4.875,13.294-9.844,27.131-20.475,37.725c3.3-1.087,9.075-2.062,12.787-1.969v55.913l-15.787,2.344c-0.562-0.056-0.75-0.938-0.75-2.138c-1.519-17.362-5.625-31.95-10.35-47.044c-0.337-2.062-6.319-9.938-1.706-8.55c0.562,0.075,6.731,2.587,5.756,1.388c-8.4-8.7-20.681-14.963-32.606-16.819c-1.05-0.263-1.669,0.263-0.731,1.481c15.825,24.356,29.062,53.1,28.95,87.206c6.15,0,21.056-3.638,27.225-3.638v39.45h15.375v-39.45c6.169,0,21.075,3.638,27.225,3.638c-0.112-34.106,13.125-62.85,28.95-87.206C289.8,98.438,289.181,97.912,288.131,98.175z" />
</svg>
