<svg xmlns="http://www.w3.org/2000/svg" width="450px" height="300px" viewBox="0 0 450 300">
  <path fill="#FFFFFF" d="M0.094,0.094h450v300h-450V0.094z" />
  <g>
    <g>
      <path fill="#EABE4E" stroke="#000000" stroke-width="0.2812" d="M149.389,231.719c-0.013,0.056,0.336,0.508,0.776,1.005c1.197,1.351,2.249,1.926,5.986,3.268c1.742,0.626,3.845,1.476,4.674,1.889c1.648,0.822,2.581,1.55,3.68,1.529c0.782-0.015,2.747-0.311,2.788-0.489c0.033-0.145-2.742-2.194-4.002-2.997c-2.2-1.4-4.104-1.994-6.98-2.179c-2.684-0.173-4.319-0.674-6.857-2.104C149.432,231.628,149.402,231.663,149.389,231.719z M300.798,231.344c0.013,0.056-0.336,0.508-0.776,1.005c-1.197,1.351-2.249,1.926-5.986,3.268c-1.742,0.626-3.845,1.476-4.674,1.889c-1.648,0.822-2.581,1.55-3.68,1.529c-0.782-0.015-2.747-0.311-2.788-0.489c-0.033-0.145,2.742-2.194,4.002-2.997c2.199-1.4,4.104-1.994,6.98-2.179c2.684-0.173,4.319-0.674,6.857-2.104C300.756,231.253,300.786,231.288,300.798,231.344z" />
      <path fill="#E20909" stroke="#000000" stroke-width="0.2812" d="M166.18,239.181c-1.547,0.42-2.668,0.321-5.631-0.5c-4.969-1.377-7.225-1.662-7.518-0.951c-0.168,0.409,0.145,1.16,0.614,1.471c1.533,1.017,5.797,2.31,9.236,2.801c1.95,0.279,5.891,0.706,6.353,0.689c0.386-0.014,0.4-0.229,0.08-1.271c-0.289-0.942-0.657-1.509-1.337-2.063C167.426,238.908,167.248,238.891,166.18,239.181z M284.007,238.806c1.547,0.42,2.668,0.321,5.631-0.5c4.969-1.377,7.225-1.662,7.518-0.951c0.168,0.409-0.145,1.16-0.614,1.471c-1.533,1.017-5.797,2.31-9.236,2.801c-1.95,0.279-5.891,0.706-6.353,0.689c-0.386-0.014-0.4-0.229-0.081-1.271c0.289-0.942,0.657-1.509,1.337-2.063C282.762,238.533,282.939,238.516,284.007,238.806z" />
      <path fill="#EABE4E" stroke="#000000" stroke-width="0.2812" d="M173.837,243.066c-0.669-0.032-3.006-0.108-7.646-0.607c-4.598-0.494-8.878-1.473-11.429-2.613c-1.174-0.525-1.624-1.218-1.392-0.705c0.225,0.497,0.674,4.09,0.64,5.451c-0.06,2.429-1.133,5.937-2.303,7.537c-0.306,0.418-0.342,0.558-0.183,0.707c1.668,1.566,4.655,1.475,4.655,1.475c2.517-0.065,12.935-0.334,15.304,3.422c1.482,2.35-0.694,5.387,0.01,5.677c0.769,0.317,3.809-2.997,3.489-6.263c-0.132-1.347-0.734-1.649-0.727-3.36c0.008-1.821,0.695-2.569,0.148-3.653c-0.064-0.121-0.138-0.235-0.222-0.342c-0.093-0.121-0.402-0.523-0.72-0.63c-0.451-0.153-0.761,0.341-1.484,0.615c-0.893,0.339-1.954,0.166-2.007-0.068c-0.08-0.355,2.072-1.231,3.907-1.686c1.732-0.477,3.538-0.627,5.324-0.44c2.923,0.338,4.314,1.507,6.556,1.239c1.359-0.162,2.212-0.67,2.279-0.957c0.044-0.186,0.46-0.7,0.659-0.869c0.329-0.28-0.155-0.371-0.396-0.667c-0.625-0.765-1.258-0.92-1.834-1.193C183.017,243.503,173.837,243.066,173.837,243.066z M276.351,242.691c0.669-0.032,3.006-0.108,7.646-0.607c4.598-0.494,8.878-1.473,11.429-2.613c1.174-0.525,1.624-1.218,1.392-0.705c-0.225,0.497-0.674,4.09-0.64,5.451c0.06,2.429,1.133,5.937,2.303,7.537c0.306,0.418,0.342,0.558,0.183,0.707c-1.668,1.566-4.655,1.475-4.655,1.475c-2.517-0.065-12.935-0.334-15.304,3.422c-1.482,2.35,0.694,5.387-0.01,5.677c-0.769,0.317-3.809-2.997-3.489-6.263c0.132-1.347,0.734-1.649,0.727-3.36c-0.008-1.821-0.695-2.569-0.148-3.653c0.064-0.121,0.138-0.235,0.222-0.342c0.093-0.121,0.402-0.523,0.72-0.63c0.451-0.153,0.761,0.341,1.484,0.615c0.893,0.339,1.954,0.166,2.007-0.068c0.08-0.355-2.072-1.231-3.907-1.686c-1.732-0.478-3.538-0.627-5.324-0.44c-2.923,0.338-4.314,1.507-6.556,1.239c-1.359-0.162-2.212-0.67-2.279-0.957c-0.043-0.186-0.46-0.7-0.659-0.869c-0.329-0.28,0.155-0.371,0.396-0.667c0.625-0.765,1.258-0.92,1.834-1.193C267.171,243.128,276.351,242.691,276.351,242.691z" />
      <path fill="#E20909" stroke="#000000" stroke-width="0.2812" d="M188.446,247c-0.518-0.078-0.707,1.103-1.85,1.665c-0.692,0.34-1.373,0.277-2.224,0.148c-2.767-0.42-3.513-0.963-5.17-1.231c-2.07-0.334-3.727,0.053-5.324,0.44c-0.972,0.235-3.933,0.91-3.907,1.686c0.03,0.891,3.985,1.553,6.407,1.744c1.828,0.145,2.236-0.022,3.69,0.11c2.26,0.219,4.454,0.888,6.452,1.966l1.97,0.378l0.368-0.816c0.356-0.532,0.634-2.592,0.496-3.675C189.298,248.992,189.089,247.097,188.446,247z M261.742,246.625c0.518-0.078,0.707,1.103,1.85,1.665c0.692,0.34,1.373,0.277,2.224,0.148c2.767-0.42,3.513-0.963,5.17-1.231c2.07-0.334,3.727,0.053,5.324,0.44c0.972,0.235,3.933,0.91,3.907,1.686c-0.03,0.891-3.985,1.553-6.407,1.744c-1.828,0.145-2.236-0.022-3.69,0.11c-2.26,0.219-4.454,0.888-6.452,1.966l-1.97,0.378l-0.368-0.816c-0.356-0.532-0.634-2.592-0.496-3.675C260.889,248.617,261.099,246.722,261.742,246.625z" />
      <path fill="#EABE4E" stroke="#000000" stroke-width="0.2812" d="M147.026,239.534c0.737,1.112,2.263,2.202,4.085,2.917c2.277,0.894,2.973,1.13,2.757-0.262l-0.237-1.005l-2.53-0.504c-1.765-0.406-2.185-0.55-3.146-1.072c-0.378-0.223-0.772-0.417-1.179-0.58C146.738,239.041,146.85,239.269,147.026,239.534z M303.161,239.159c-0.737,1.112-2.263,2.202-4.085,2.917c-2.277,0.894-2.973,1.13-2.757-0.262l0.237-1.005l2.53-0.504c1.765-0.406,2.185-0.55,3.146-1.072c0.378-0.223,0.772-0.417,1.179-0.58C303.449,238.666,303.337,238.894,303.161,239.159z" />
      <path fill="#EABE4E" stroke="#000000" stroke-width="0.2812" d="M212.986,249.59c-2.431,0.17-6.532,0.504-9.112,0.743c-19.488,1.806-25.24,1.738-32.851-0.193c-0.525-0.133-0.993-0.242-1.04-0.242s0.038,0.208,0.19,0.462c0.485,0.812,0.826,2.08,1.038,3.863c0.244,2.05-0.009,4.947-0.61,6.978c-0.529,1.789-0.538,1.73,0.293,2.021c7.98,0.249,16.572-1.091,24.86-1.509c17.308-0.802,34.878-0.802,52.599,0.001c5.79,0.263,10.683,0.588,18.237,1.213c3.82,0.335,9.347,1.202,11.988-0.007c0.058-0.128-0.125-0.554-0.176-0.976c-0.382-3.175-0.564-7.315,0.422-10.26c0.205-0.612,1.576-2.568,1.374-2.376c-0.447,0.426-1.493,0.627-1.694,0.702c-7.017,1.24-9.154,1.177-16.339,1.049c-7.395-0.19-11.282,0.044-21.03-0.781c-5.588-0.473-13.041-0.961-16.149-1.057C222.209,249.135,217.371,249.284,212.986,249.59z" />
    </g>
    <g>
      <path fill="#666666" d="M270.95,131.894h-92.059v6.518h92.059V131.894z" />
      <path fill="none" stroke="#552200" stroke-width="0.2812" d="M270.95,131.894h-92.059v6.518h92.059V131.894z" />
      <path fill="#EACE24" stroke="#806600" stroke-width="0.2812" d="M178.891,138.412l-10.42-24.52l-1.751,0.532l-3.825-8.763l7.027-2.076l1.591,4.114l3.392-1.006l-1.452-4.033l7.157-1.651l1.272,4.201l3.523-0.678l-1.219-4.242l7.177-1.251l0.983,4.274l4.748-0.673l0.412,2.16l1.762-0.223l-0.362-2.149l3.638-0.473l0.371,2.186l1.779-0.179l-0.268-2.204l3.614-0.33l0.304,2.202l3.515-0.27l-0.641-6.52l7.282-0.372l0.238,4.29l3.473-0.053l-0.063-4.33l7.312,0l-0.112,4.383l3.535,0.072l0.257-4.362l7.265,0.319l-0.663,6.612l3.514,0.243l0.305-2.179l3.603,0.331l-0.286,2.183l1.817,0.178l0.329-2.129l3.625,0.388l-0.348,2.175l1.795,0.249l0.434-2.174l4.695,0.694l0.995-4.309l7.168,1.251l-1.112,4.321l3.383,0.664l1.311-4.254l7.144,1.618l-1.487,4.197l3.404,0.93l1.645-4.2l7.053,2.012l-3.825,8.763l-3.019-0.994l-10.611,25.053C241.967,129.981,207.188,129.946,178.891,138.412" />
      <path fill="#5E520E" stroke="#552200" stroke-width="0.2812" d="M222.757,118.129v-7.771c0-3.108,5.592-3.108,5.592,0v7.771 M181.932,123.409l-2.412-7.506c-0.965-3.002,4.437-4.209,5.402-1.206l2.412,7.506 M263.318,121.916l2.412-7.506c0.966-3.003,6.366-1.796,5.402,1.206l-2.413,7.506" />
      <path fill="none" stroke="#806600" stroke-width="0.2812" d="M241.009,126.685l-0.318,2.701 M177.691,135.507c30.678-8.993,64.092-9.127,94.872-0.379 M176.578,133.043c31.366-9.209,65.535-9.351,97.011-0.406 M175.587,130.544c32.055-9.399,66.971-9.529,99.125-0.367 M174.573,128.257c32.644-9.581,68.203-9.729,100.961-0.422 M253.186,128.117l-0.56,2.636 M269.25,131.544l-0.907,2.463 M262.47,129.894l-0.767,2.502 M252.792,125.421l-0.531,2.599 M258.378,126.361l-0.686,2.494 M264.746,127.653l-0.765,2.491 M271.897,129.426l-0.947,2.467 M263.243,124.822l-0.682,2.275 M271.405,126.672l-0.883,2.381 M268.314,125.945l-0.789,2.296 M256.032,123.528l-0.566,2.363 M251.833,122.735l-0.51,2.484 M237.109,126.445l-0.24,2.612 M246.473,127.27l-0.43,2.55 M235.027,123.635l-0.183,2.639 M239.831,123.903l-0.28,2.605 M247.987,124.835l-0.447,2.516 M246.206,122.074l-0.38,2.376 M241.373,121.639l-0.297,2.441 M233.924,121.017l-0.154,2.437 M188.817,129.99l0.747,2.419 M231.74,126.127l-0.124,2.694 M183.97,131.117l0.872,2.47 M212.501,126.529l0.275,2.642 M219.106,126.238l0.138,2.56 M204.691,127.247l0.451,2.616 M223.554,126.127l0.047,2.6 M195.179,128.695l0.627,2.58 M186.347,127.76l0.818,2.529 M192.601,126.47l0.675,2.502 M196.5,125.785l0.591,2.585 M202.178,124.927l0.482,2.552 M209.999,124.156l0.329,2.617 M216.144,123.69l0.205,2.68 M221.619,123.504l0.086,2.602 M229.328,123.344l-0.073,2.601 M180.391,129.24l0.952,2.522 M227.901,120.912l-0.041,2.501 M222.354,120.979l0.064,2.402 M217.284,121.177l0.159,2.405 M207.854,121.904l0.341,2.437 M200.485,122.735l0.467,2.346 M195.334,123.493l0.576,2.39 M189.286,124.609l0.671,2.296 M180.278,126.54l0.905,2.446 M255.466,120.486l2.797-12.985 M173.514,125.572c33.389-9.786,69.757-9.917,103.246-0.374 M238.166,108.66c6.489,0.405,12.995,1.121,19.386,2.145 M240.582,103.459l-0.24,2.016l0,0c-9.616-0.666-19.266-0.667-28.883-0.005l0,0l-0.257-2.059 M193.766,110.811c6.328-1.015,12.913-1.729,19.338-2.137 M192.945,107.558l2.982,12.957 M214.058,118.499l-1.266-13.117 M238.343,105.356l-0.702,13.152 M193.227,103.189l0.908,4.217l0,0c-9.389,1.448-18.44,4.303-27.416,7.018 M257.565,103.115l-0.88,4.176c9.628,1.454,19.019,4.279,28.216,7.063" />
    </g>
    <g>
      <path fill="#1353B4" stroke="#554400" stroke-width="0.2812" d="M178.891,138.411c-0.245,15.696-0.245,31.393,0,47.09c0.221,15.122,0.963,26.923,7.621,36.15c8.02,11.115,21.382,19.136,38.569,27.017c17.187-7.881,30.549-15.902,38.569-27.017c6.657-9.228,7.399-21.029,7.621-36.15c0.231-15.696,0.231-31.392,0-47.09H178.891z" />
      <path fill="#CE0F25" d="M269.984,205.132c0.031-3.924,0.847-5.788,0.847-9.712c0.407-7.876,0.563-15.697,0.44-23.546h-92.381c-0.123,7.848,0.033,15.6,0.439,23.546c0.001,3.924,0.841,5.788,0.871,9.712H269.984z" />
      <path fill="none" stroke="#554400" stroke-width="0.2812" d="M178.759,171.669h92.645 M180.141,205.132h89.843" />
      <path fill="#FFFFFF" stroke="#000000" stroke-width="0.2812" d="M213.569,193.317l11.218-4.57l-4.57,11.218l4.986-3.323l4.986,3.323l-4.571-11.218l11.218,4.57l-3.324-4.986l3.324-4.986l-11.218,4.57l4.571-11.218l-4.986,3.324l-4.986-3.324l4.57,11.218l-11.218-4.57l3.324,4.986L213.569,193.317z" />
    </g>
    <g>
      <path fill="#EACE24" stroke="#806600" stroke-width="0.2812" d="M151.012,223.591c-0.12,13.596-0.24,14.077-0.24,14.077c5.955,5.836,6.662,7.973,8.422,9.867c2.286-3.309,5.835-1.986,5.835-1.986c0.722-3.128,4.513-5.835,4.513-5.835c-5.294-0.421-14.438-3.129-15.16-4.211c-2.398-3.596,0.902-14.498,0.902-14.498L151.012,223.591z" />
      <path fill="#EACE24" d="M164.07,244.887l-5.87-4.509l6.976,4.168" />
      <path fill="none" stroke="#806600" stroke-width="0.2812" d="M164.07,244.887l-5.87-4.509l6.976,4.168" />
      <path fill="#EACE24" stroke="#806600" stroke-width="0.2812" d="M155.357,217.143c0,0,7.355-3.003,14.894,2.287c0.593,0.17,1.219,0.186,1.819,0.049c1.457-1.563,4.762-6.156,7.315-5.56c0.188-3.881-0.255-19.398-0.255-19.398c-1.105-0.043-1.489,2.127-1.489,2.127c0.638,4.424-1.914,31.309-12.379,13.527l-7.402,0.766L155.357,217.143z" />
      <path fill="#EACE24" stroke="#806600" stroke-width="0.2812" d="M151.33,154.954c6.317,2.286,6.396,3.494,12.652,9.028c4.993,1.986,12.43,6.854,12.851,7.938l-0.405,1.581c0.963,0.601,1.872-1.616,1.872-1.616c-0.962-5.475-18.544-21.965-18.544-21.965l-7.744,1.631L151.33,154.954z" />
      <path fill="#DFDFDF" stroke="#000000" stroke-width="0.2812" d="M153.605,147.842c-0.085-6.551,7.658-10.89,7.658-11.485c-0.766-4.669-11.826,6.466-12.422,7.912c-0.684,2.111,0.851,4.679,0.851,4.679" />
      <path fill="#DFDFDF" stroke="#000000" stroke-width="0.2812" d="M150.032,147.757c-0.936-6.296,3.829-11.741,3.488-11.911c-2.928-1.464-6.722,6.295-7.827,8.848l1.446,8.678" />
      <path fill="#DFDFDF" stroke="#000000" stroke-width="0.2812" d="M147.564,151.075c-1.532-1.531-0.085-12.506-0.511-12.506c-3.233,0-4.934,10.549-4.254,12.762c2.208,7.175,3.998,8.423,3.998,8.423" />
      <path fill="#DFDFDF" stroke="#000000" stroke-width="0.2812" d="M146.799,159.158c-4.083-3.829-4.792-14.101-5.359-15.144c-4.369,0.851-2.127,11.741-2.127,11.741c0.085,0.851,5.785,7.657,5.785,7.657" />
      <path fill="none" stroke="#000000" stroke-width="0.2812" d="M157.269,152.504l19.792,18.168l0.422,1.323 M161.6,159.242c1.985,3.49,5.656,4.753,5.656,4.753 M155.732,139.249c-2.297,1.872-4.169,7.997-4.169,7.997 M148.5,142.568c-1.191,3.063,0.085,7.231,0.085,7.231 M144.672,147.332c-0.255,3.233,2.297,7.232,2.297,7.232 M140.928,150.82c-1.446,2.893,5.105,11.486,5.105,11.486" />
      <path fill="#FFFFFF" stroke="#000000" stroke-width="0.2812" d="M151.904,183.49c0,0-1.106-14.803,0.765-17.015l-5.53-8.168l-7.146,14.208l6.466,11.826L151.904,183.49z" />
      <path fill="#DFDFDF" stroke="#000000" stroke-width="0.2812" d="M151.904,183.49c0,0-1.106-14.803,0.765-17.015l-5.53-8.168l-7.146,14.208l6.466,11.826L151.904,183.49z" />
      <path fill="#DFDFDF" stroke="#000000" stroke-width="0.2812" d="M146.698,215.75c2.425,3.105,3.61,10.107,3.61,10.107l0.722-2.287c0.34,0.213,0.547,1.986,1.023,1.986c0.213,0,0.175-1.828,0.662-1.926c0.213-0.042,0.072,2.527,0.542,2.527c0.383,0,0.414-1.83,0.541-1.745c0.301,0.2,0.36,2.429,0.602,1.264c-0.34-11.953,23.092-21.735,22.62-35.134c0.596-13.867-14.318-19.13-23.462-30.801c0,0-2.569-7.653,2.165-4.271c3.829-0.596,3.489-4.391,3.489-4.391h2.106c0.936-8.167-7.279-6.256-7.279-6.256c-7.614,0-8.302,7.881-8.302,7.881c-1.957,10.252,11.327,22.462,11.327,22.462c1.957,4.254-0.017,11.589-0.017,11.589l-18.488,17.418" />
      <path fill="#DFDFDF" stroke="#000000" stroke-width="0.2812" d="M138.771,204.033c-1.021,1.234-6.266,7.45-7.543,9.619c-1.807,1.992,1.706,1.432,1.706,1.432s-5.194,5.491-7.717,7.097c0.774,2.323,5.756-1.042,5.756-1.042s-4.85,2.978-4.594,3.573c1.48,1.129,5.785-2.041,5.785-2.041s-1.028,1.446-0.17,1.957c1.447,0,4.764-2.637,4.764-2.637s-0.68,1.531,0.085,1.786c1.383-0.872,10.04-8.083,10.04-8.083" />
      <path fill="#DFDFDF" stroke="#000000" stroke-width="0.2812" d="M141.749,191.452c-2.106,4.091-4.793,10.836-1.865,13.836c0.963,0.301,3.531-9.61,5.535-10.528c0.301-1.022,1.624-5.534,1.624-5.534" />
      <path fill="#DFDFDF" stroke="#000000" stroke-width="0.2812" d="M145.9,191.753c-1.624,7.64-0.12,9.264,0.542,9.325c0.962-0.482,2.647-7.461,4.572-7.882" />
      <path fill="#DFDFDF" stroke="#000000" stroke-width="0.2812" d="M137.658,156.379c-6.737-6.317-7.64-13.535-8.362-13.596c-3.18-0.265,1.083,12.815,1.083,12.815l8.061,6.437" />
      <path fill="#DFDFDF" stroke="#000000" stroke-width="0.2812" d="M137.658,160.952c-9.986-5.535-11.19-14.558-12.032-14.258c-3.075,1.214,0.842,9.506,0.842,9.506c0.542,2.286,8.483,9.445,8.483,9.445" />
      <path fill="#DFDFDF" stroke="#000000" stroke-width="0.2812" d="M134.59,164.982c-11.972-6.617-12.212-14.198-13.536-13.716c-2.843,7.706,7.58,14.979,14.919,20.454" />
      <path fill="#DFDFDF" stroke="#000000" stroke-width="0.2812" d="M135.733,171.539c-10.408-3.309-15.432-13.008-16.725-12.513c-3.008,1.143,3.309,9.264,3.309,9.264c5.113,4.753,13.536,8.242,13.536,8.242" />
      <path fill="#DFDFDF" stroke="#000000" stroke-width="0.2812" d="M135.793,175.931c-16.664-5.355-17.326-10.588-18.89-10.167c-2.967,2.257,6.557,9.746,6.557,9.746c1.203,1.804,13.355,5.114,13.355,5.114" />
      <path fill="#DFDFDF" stroke="#000000" stroke-width="0.2812" d="M136.575,180.564c-15.942-3.369-18.288-8.062-19.552-7.76c-1.992,2.708,7.641,8.602,7.641,8.602c5.956,3.429,14.017,3.91,14.017,3.91" />
      <path fill="#DFDFDF" stroke="#000000" stroke-width="0.2812" d="M136.094,191.031c-4.451,4.091-6.978,11.729-4.692,12.213c1.263,0.06,4.692-8.904,9.686-10.167l3.188-2.768" />
      <path fill="#DFDFDF" stroke="#000000" stroke-width="0.2812" d="M133.748,187.301c-6.497,4.873-8.576,10.636-7.64,10.949c1.443,0.481,7.221-5.524,9.325-5.896c1.023-0.18,7.099-3.429,7.099-3.429" />
      <path fill="#DFDFDF" stroke="#000000" stroke-width="0.2812" d="M138.38,185.196c-7.099,0.842-19.552-6.738-19.792-6.076c-3.091,3.62,10.287,9.686,13.235,9.385l10.467,0.662" />
      <path fill="none" stroke="#000000" stroke-width="0.2812" d="M142.113,200.352c0,0-2.587,3.429-0.842,2.888 M145.012,190.977c1.104,0-2.209,2.212-3.404,5.275 M136.59,157.967c0,0-3.232-2.467-4.934-5.785 M135.739,163.582c-2.978-2.356-5.563-5.17-7.657-8.338 M135.229,168.261c0,0-5.445-1.957-8.849-7.146 M135.994,173.026c0,0-7.232-1.361-11.146-5.36 M137.1,176.769c0,0-8.423,0.17-11.996-2.723 M138.376,182.469c0,0-5.615,0.17-9.189-1.786 M142.46,189.871c1.104,0-5.783,2.127-6.977,5.19 M137.696,187.914c1.104,0-4.507,1.957-5.7,5.02 M141.183,187.233c0,0-8.593,0.086-12.507-1.701" />
      <path fill="#DFDFDF" stroke="#000000" stroke-width="0.2812" d="M160.666,186.043c0,0,0-3.999-1.957-4.169c-3.129-0.174-6.267-0.003-9.358,0.511c-11.286-6.738-2.445-15.392-3.999-18.377c-0.51-4.594-8.082-11.486-8.082-11.486c-0.766,0.681,0.154,4.97-0.426,4.68c-1.531-0.765-0.587,2.605-1.021,3.488c-1.446-0.51-1.372,1.679-1.021,3.318c-1.191,0.171-0.766,2.212-0.511,3.659c-2.336-1.285,0.707,3.642-0.085,3.488c-3.573-0.511,0.511,3.404,0.511,3.404c-2.042,0.766-1.088,2.284,0.341,2.893c-1.787,1.276,0.042,3.313,0.68,3.404c-1.616,0.85,0.182,2.08,1.106,2.978c-1.446,1.361,1.191,1.943,2.468,2.467c-1.021,1.617,0.179,1.966,1.276,2.467c-0.681,1.276,0.994,1.181,2.041,1.022c-1.276,1.361,0.851,1.957,1.702,1.786c0,0,0.454,1.766,1.957,1.107c-0.425,1.362,2.638,1.191,2.638,1.191c0,1.362,4.509,0.851,4.509,0.851" />
      <path fill="none" stroke="#000000" stroke-width="0.2812" d="M138.713,162.935c0,0,0.936,2.467,2.042,2.467 M137.015,157.116c0,0,1.191,4.169,2.297,4.169 M135.994,160.349c0,0,0.34,2.722,1.446,2.722 M134.803,163.837c0,0,0.936,2.467,2.041,2.467 M134.207,167.41c0,0,1.021,2.212,2.127,2.212 M134.293,170.984c0,0,1.702,2.722,2.807,2.722 M134.633,174.642c0,0,1.786,1.532,2.893,1.532 M135.058,177.534c0,0,1.786,1.532,2.893,1.532 M135.484,180.682c0,0,2.637,1.276,3.743,1.276 M136.674,183.66c0,0,2.978,0.255,4.084,0.255 M139.102,186.103c0,0,2.497-0.106,3.602-0.106 M140.546,188.509c0,0,2.136-0.588,3.482-0.106 M142.532,189.893c0,0,2.135-0.588,3.482-0.106 M144.096,191.517c0,0,2.076-0.285,3.542-0.888 M146.201,192.6c0,0,0.872,0.255,2.339-0.346 M148.728,193.682c0,0,0.752-0.045,2.219-0.646 M159.31,151.116c-1.744-3.309-3.55-2.947-3.55-2.947c-0.902,0-1.203,0.601-2.226,0.601c-1.264,0-0.962-1.324-0.962-1.324" />
      <path fill="#DFDFDF" stroke="#000000" stroke-width="0.2812" d="M133.483,214.886c-0.553,0.893,2,1.131,2.68,0.085c0,1.447,1.972,1.502,2.68,0.808c0.298,0.936,1.675,0.697,2.552-0.17c0.149,0.404,1.397,1.269,1.858,1.103c0.902-0.325,4.424-5.31,5.19-5.735 M129.901,221.829c0,0,4.046-3.94,6.692-6.045 M131.284,223.273c0,0,5.322-4.918,7.969-7.024 M136.398,222.311c0,0,3.535-3.642,6.182-5.748 M132.879,214.98c0,0,3.953-4.711,6.6-6.817 M135.963,215.105c0,0,3.323-3.813,7.118-6.513 M138.993,215.674c0,0,1.566-3.003,6.34-6.682 M141.418,215.632c1.335-2.145,3.066-4.015,5.102-5.51 M141.21,216.054c-2.707,2.767-4.873,4.633-4.873,4.633 M137.301,216.295c-1.736,1.759-3.563,3.426-5.474,4.993 M134.653,215.513c-2.707,2.767-3.429,3.008-3.429,3.008 M137.312,206.041c-0.553,0.893,0.697,3.056,3.363,1.77c-0.842,2.228,0.408,1.622,2.139,0.809c-0.485,1.898,1.675,0.696,2.552-0.171c0.149,0.404,0.194,1.391,1.016,1.465c0.955,0.087,1.957-2.663,2.723-3.088 M140.587,207.852l4.834-4.431 M138.015,208.085l2.353-3.581 M142.76,208.591l2.902-3.185 M145.277,208.524l1.529-1.674 M140.609,209.015c-0.602,0.662-1.985,1.685-1.985,1.685 M143.196,209.678c-1.324,1.023-2.466,2.106-2.466,2.106 M147.407,210.7c-2.707,2.767-2.106,2.045-2.106,2.045 M145.963,209.557c-0.736,0.561-1.439,1.163-2.106,1.805 M148.67,202.819c-3.85,4.813,1.685,0.962,1.685,0.962 M143.709,205.113c0,0-2.258,0.414,0.329-2.715 M148.069,200.112l-0.722,1.143 M147.224,168.432c-0.68,1.957,1.191,3.914,1.191,3.914 M145.778,169.538c-0.681,1.957,2.466,5.19,2.466,5.19 M145.182,172.855c-0.68,1.957,2.808,3.573,2.808,3.573 M146.714,177.79c0.17,1.446,2.722,1.106,2.722,1.106 M143.072,161.914c0.216,1.333,0.558,2.643,1.023,3.911c-1.264,1.263-1.504,3.188-1.504,3.188 M138.713,162.935c0,0,0.936,2.467,2.042,2.467 M138.172,166.003c0,0,0.936,2.467,2.042,2.467 M137.149,168.59c0,0,1.177,1.625,2.282,1.625 M137.57,171.838c0,0,1.177,1.625,2.283,1.625 M138.412,175.267c0.789,0.177,1.594,0.278,2.403,0.301 M139.195,177.674c0.458,0.058,0.919,0.079,1.38,0.061 M140.518,160.709c0,0-0.147,1.385,0.959,1.385 M141.807,182.773c0,0,1.383-0.161,1.139-1.24 M139.762,180.848c0,0,2.405-0.703,2.163-1.781 M144.815,185.54c0,0,0.42-2.808,0.177-3.887 M148.124,187.766c0,0-0.422-3.711-1.267-4.188 M151.794,188.668c-0.902-3.128-2.106-4.553-2.951-4.849 M155.343,188.488c-0.571-2.111-2.114-3.823-4.155-4.609 M159.554,188.608c-0.57-2.111-2.113-3.823-4.154-4.608 M156.608,192.775c-3.249,1.203-4.752,4.151-4.752,4.151 M152.24,153.116c-0.851,0-1.106,0.51-1.106,0.51 M149.432,158.136c-0.361,1.023,0.776,2.428,0.596,2.127 M149.488,149.889c-0.843,0-0.903,1.624-0.903,1.624 M154.06,163.966l1.203,1.564 M154.661,168.538l1.263,1.443 M159.955,173.411l1.504,1.624" />
      <path fill="#000000" d="M156.483,148.228c-0.361,1.564-1.51,1.868-1.51,1.868s0.249,1.493,1.209,1.561c1.763,0.316,2.339-1.27,1.504-2.647C157.386,148.649,156.483,148.228,156.483,148.228 M167.694,179.147c0,0,0.715,1.975,1.225,2.145c0,0,0.58,0.195,0.963-0.06c0.348-0.233,0-0.722,0-0.722C169.415,179.829,167.694,179.147,167.694,179.147 M164.65,180.138c0,0-0.118,2.097,0.285,2.454c0,0,0.457,0.407,0.909,0.322c0.412-0.077,0.284-0.664,0.284-0.664C165.964,181.44,164.65,180.138,164.65,180.138 M166.734,187.539c0,0-0.118,2.097,0.285,2.454c0,0,0.457,0.406,0.909,0.322c0.411-0.077,0.283-0.664,0.283-0.664C168.048,188.841,166.734,187.539,166.734,187.539 M171.882,189.641l-0.045,0.105h-0.115c-0.071,0-0.138-0.032-0.183-0.086c-0.221-0.251-0.125-1.38-0.04-2.08c-0.218-0.285-0.722-0.993-0.656-1.372c0.014-0.094,0.069-0.178,0.15-0.229l0.11-0.069l0.098,0.086c0.128,0.113,1.254,1.125,1.333,1.679C172.579,187.996,172.046,189.261,171.882,189.641L171.882,189.641z M160.508,195.791c-0.382,0-0.721,1.156-0.469,1.632c0,0,0.284,0.541,0.737,0.621c0.413,0.073,0.499-0.522,0.499-0.522C161.407,196.706,161.276,195.791,160.508,195.791 M158.21,212.694c-0.164,0.286-0.822,0.685-0.952,0.762l-0.102,0.061l-0.094-0.073c-0.234-0.184-0.102-0.669,0.393-1.44c0.002-0.345,0.037-1.243,0.329-1.506c0.07-0.066,0.164-0.098,0.259-0.088l0.129,0.014l0.023,0.128C158.226,210.719,158.489,212.209,158.21,212.694L158.21,212.694z M152.807,214.268c-0.093,0.15-0.263,0.235-0.439,0.22c-0.142-0.003-0.283-0.032-0.415-0.087l-0.04-0.024c-0.285-0.223-0.152-0.925-0.075-1.24c0-0.319,0.028-1.265,0.329-1.536c0.07-0.065,0.164-0.098,0.259-0.088l0.121,0.013l0.029,0.119C152.664,212,153.083,213.788,152.807,214.268L152.807,214.268z M157.274,206.058c-0.091,0.149-0.258,0.235-0.432,0.222c-0.144-0.004-0.287-0.034-0.42-0.088l-0.041-0.024c-0.292-0.229-0.146-0.958-0.07-1.261c0.061-0.176,0.367-0.976,0.881-0.922l0.134,0.014l0.02,0.133C157.367,204.278,157.551,205.575,157.274,206.058L157.274,206.058z M164.252,200.002c0,0-0.848,1.921-0.597,2.397c0,0,0.284,0.542,0.738,0.622c0.412,0.073,0.499-0.522,0.499-0.522C165.024,201.683,164.252,200.002,164.252,200.002 M161.782,204.965c-1.26,0.416-1.525,1.91-1.431,2.438c0,0,0.104,0.603,0.511,0.818c0.37,0.197,0.635-0.343,0.635-0.343C161.872,207.143,162.675,205.646,161.782,204.965 M154.976,197.545c-0.85,0.573-0.852,1.074-0.858,1.611c0,0-0.008,0.611,0.353,0.898c0.328,0.26,1.453-0.222,1.453-0.222C156.428,199.178,155.019,199.161,154.976,197.545 M164.079,189.335c-0.85,0.573-0.852,0.477-0.858,1.61c0,0,0.29,0.91,0.651,1.196c0.327,0.26,0.687-0.562,0.687-0.562C165.064,190.926,164.802,189.547,164.079,189.335 M170.335,193.877c-0.383,0-0.721,1.156-0.469,1.631c0,0,0.285,0.542,0.738,0.622c0.413,0.073,0.499-0.522,0.499-0.522C171.234,194.792,171.102,193.877,170.335,193.877 M167.697,197.152c-0.547,1.768-1.188,2.305-0.937,2.78c0,0,0.624,0.158,1.078,0.238c0.413,0.073,0.498-0.521,0.498-0.521C168.469,198.834,167.825,199.066,167.697,197.152 M152.808,217.749c-0.383,0-0.721,1.155-0.469,1.631c0,0,0.284,0.541,0.738,0.621c0.413,0.073,0.498-0.522,0.498-0.522C153.707,218.665,153.575,217.749,152.808,217.749" />
      <path fill="#FFFFFF" d="M157.576,150.034c0.057,0.193-0.235,0.463-0.653,0.603c-0.418,0.141-0.803,0.097-0.86-0.096l0-0.001c-0.057-0.193,0.235-0.463,0.653-0.603c0.418-0.14,0.803-0.096,0.86,0.096V150.034" />
    </g>
    <g>
      <path fill="#EACE24" stroke="#806600" stroke-width="0.2812" d="M294.904,221.005c0,0,3.3,10.902,0.902,14.498c-0.722,1.083-9.866,3.791-15.16,4.211c0,0,3.79,2.707,4.513,5.835c0,0,3.549-1.323,5.835,1.986c1.76-1.894,2.467-4.031,8.422-9.867c0,0-0.12-0.481-0.24-14.077L294.904,221.005z" />
      <path fill="#EACE24" d="M285.011,244.546l6.976-4.168l-5.87,4.509" />
      <path fill="none" stroke="#806600" stroke-width="0.2812" d="M285.011,244.546l6.976-4.168l-5.87,4.509" />
      <path fill="#EACE24" stroke="#806600" stroke-width="0.2812" d="M292.328,210.94l-7.402-0.766c-10.464,17.782-13.017-9.103-12.379-13.527c0,0-0.383-2.17-1.489-2.127c0,0-0.443,15.517-0.255,19.398c2.552-0.596,5.857,3.998,7.315,5.56c0.601,0.137,1.227,0.12,1.819-0.049c7.538-5.289,14.894-2.287,14.894-2.287L292.328,210.94z" />
      <path fill="#EACE24" stroke="#806600" stroke-width="0.2812" d="M298.177,151.55l-7.744-1.631c0,0-17.582,16.49-18.544,21.965c0,0,0.909,2.218,1.872,1.616l-0.405-1.581c0.421-1.083,7.858-5.952,12.851-7.938c6.256-5.534,6.335-6.742,12.652-9.028L298.177,151.55z" />
      <path fill="#DFDFDF" stroke="#000000" stroke-width="0.2812" d="M300.496,148.949c0,0,1.535-2.568,0.851-4.679c-0.596-1.447-11.656-12.582-12.422-7.912c0,0.596,7.742,4.934,7.658,11.485" />
      <path fill="#DFDFDF" stroke="#000000" stroke-width="0.2812" d="M303.049,153.372l1.446-8.678c-1.105-2.553-4.9-10.312-7.827-8.848c-0.34,0.17,4.424,5.615,3.488,11.911" />
      <path fill="#DFDFDF" stroke="#000000" stroke-width="0.2812" d="M303.389,159.753c0,0,1.791-1.247,3.998-8.423c0.681-2.212-1.021-12.762-4.254-12.762c-0.425,0,1.021,10.975-0.511,12.506" />
      <path fill="#DFDFDF" stroke="#000000" stroke-width="0.2812" d="M305.09,163.412c0,0,5.7-6.806,5.785-7.657c0,0,2.243-10.89-2.127-11.741c-0.568,1.042-1.276,11.315-5.359,15.144" />
      <path fill="none" stroke="#000000" stroke-width="0.2812" d="M272.705,171.995l0.422-1.323l19.792-18.168 M282.932,163.994c0,0,3.67-1.263,5.656-4.753 M298.624,147.247c0,0-1.871-6.126-4.169-7.997 M301.602,149.799c0,0,1.276-4.169,0.085-7.231 M303.219,154.564c0,0,2.552-3.998,2.297-7.232 M304.155,162.306c0,0,6.551-8.593,5.105-11.486" />
      <path fill="#FFFFFF" stroke="#000000" stroke-width="0.2812" d="M303.729,184.341l6.466-11.826l-7.146-14.208l-5.53,8.168c1.872,2.212,0.765,17.015,0.765,17.015L303.729,184.341z" />
      <path fill="#DFDFDF" stroke="#000000" stroke-width="0.2812" d="M303.729,184.341l6.466-11.826l-7.146-14.208l-5.53,8.168c1.872,2.212,0.765,17.015,0.765,17.015L303.729,184.341z" />
      <path fill="#DFDFDF" stroke="#000000" stroke-width="0.2812" d="M311.63,204.171l-18.488-17.418c0,0-1.974-7.335-0.017-11.589c0,0,13.284-12.209,11.327-22.462c0,0-0.687-7.881-8.302-7.881c0,0-8.215-1.911-7.279,6.256h2.106c0,0-0.339,3.796,3.489,4.391c4.735-3.382,2.165,4.271,2.165,4.271c-9.144,11.671-24.058,16.934-23.462,30.801c-0.472,13.399,22.96,23.18,22.62,35.134c0.242,1.165,0.301-1.063,0.602-1.264c0.128-0.085,0.158,1.745,0.541,1.745c0.47,0,0.329-2.569,0.542-2.527c0.486,0.098,0.449,1.926,0.662,1.926c0.476,0,0.682-1.773,1.023-1.986l0.722,2.287c0,0,1.185-7.002,3.61-10.107" />
      <path fill="#DFDFDF" stroke="#000000" stroke-width="0.2812" d="M303.305,215.694c0,0,8.656,7.211,10.04,8.083c0.766-0.255,0.085-1.786,0.085-1.786s3.318,2.637,4.764,2.637c0.858-0.511-0.17-1.957-0.17-1.957s4.305,3.171,5.785,2.041c0.256-0.596-4.594-3.573-4.594-3.573s4.981,3.366,5.756,1.042c-2.523-1.606-7.717-7.097-7.717-7.097s3.512,0.56,1.706-1.432c-1.276-2.169-6.521-8.385-7.543-9.619" />
      <path fill="#DFDFDF" stroke="#000000" stroke-width="0.2812" d="M303.145,189.226c0,0,1.323,4.512,1.624,5.534c2.004,0.918,4.572,10.829,5.535,10.528c2.928-3,0.24-9.745-1.865-13.836" />
      <path fill="#DFDFDF" stroke="#000000" stroke-width="0.2812" d="M299.174,193.197c1.925,0.421,3.61,7.4,4.572,7.882c0.662-0.061,2.166-1.685,0.542-9.325" />
      <path fill="#DFDFDF" stroke="#000000" stroke-width="0.2812" d="M311.748,162.034l8.061-6.437c0,0,4.263-13.079,1.083-12.815c-0.722,0.061-1.625,7.279-8.362,13.596" />
      <path fill="#DFDFDF" stroke="#000000" stroke-width="0.2812" d="M315.237,165.644c0,0,7.941-7.159,8.483-9.445c0,0,3.917-8.291,0.842-9.506c-0.842-0.3-2.045,8.723-12.032,14.258" />
      <path fill="#DFDFDF" stroke="#000000" stroke-width="0.2812" d="M314.214,171.72c7.34-5.475,17.763-12.748,14.919-20.454c-1.323-0.482-1.564,7.099-13.536,13.716" />
      <path fill="#DFDFDF" stroke="#000000" stroke-width="0.2812" d="M314.334,176.533c0,0,8.423-3.489,13.536-8.242c0,0,6.317-8.121,3.309-9.264c-1.292-0.495-6.317,9.205-16.725,12.513" />
      <path fill="#DFDFDF" stroke="#000000" stroke-width="0.2812" d="M313.371,180.624c0,0,12.153-3.309,13.355-5.114c0,0,9.525-7.489,6.557-9.746c-1.564-0.421-2.226,4.813-18.89,10.167" />
      <path fill="#DFDFDF" stroke="#000000" stroke-width="0.2812" d="M311.507,185.316c0,0,8.061-0.481,14.017-3.91c0,0,9.633-5.894,7.641-8.602c-1.264-0.301-3.61,4.391-19.552,7.76" />
      <path fill="#DFDFDF" stroke="#000000" stroke-width="0.2812" d="M305.912,190.309l3.188,2.768c4.994,1.263,8.422,10.226,9.686,10.167c2.286-0.484-0.241-8.122-4.692-12.213" />
      <path fill="#DFDFDF" stroke="#000000" stroke-width="0.2812" d="M307.656,188.925c0,0,6.076,3.248,7.099,3.429c2.104,0.372,7.881,6.378,9.325,5.896c0.936-0.313-1.143-6.076-7.64-10.949" />
      <path fill="#DFDFDF" stroke="#000000" stroke-width="0.2812" d="M307.897,189.166l10.467-0.662c2.948,0.301,16.325-5.764,13.235-9.385c-0.241-0.662-12.693,6.918-19.792,6.076" />
      <path fill="none" stroke="#000000" stroke-width="0.2812" d="M308.917,203.24c1.745,0.541-0.842-2.888-0.842-2.888 M308.579,196.251c-1.194-3.062-4.508-5.275-3.404-5.275 M318.533,152.182c-1.702,3.318-4.934,5.785-4.934,5.785 M322.106,155.244c-2.094,3.168-4.679,5.982-7.657,8.338 M323.808,161.115c-3.403,5.19-8.849,7.146-8.849,7.146 M325.339,167.665c-3.914,3.999-11.146,5.36-11.146,5.36 M325.083,174.047c-3.573,2.893-11.996,2.723-11.996,2.723 M321,180.682c-3.574,1.957-9.189,1.786-9.189,1.786 M314.704,195.061c-1.194-3.063-8.08-5.19-6.977-5.19 M318.192,192.934c-1.193-3.064-6.804-5.02-5.7-5.02 M321.511,185.532c-3.914,1.786-12.507,1.701-12.507,1.701" />
      <path fill="#DFDFDF" stroke="#000000" stroke-width="0.2812" d="M296.753,194.721c0,0,4.509,0.511,4.509-0.851c0,0,3.063,0.171,2.638-1.191c1.503,0.66,1.957-1.107,1.957-1.107c0.851,0.171,2.977-0.425,1.702-1.786c1.047,0.16,2.722,0.254,2.041-1.022c1.096-0.501,2.297-0.851,1.276-2.467c1.277-0.524,3.914-1.106,2.468-2.467c0.923-0.897,2.722-2.127,1.106-2.978c0.638-0.09,2.467-2.127,0.68-3.404c1.429-0.608,2.383-2.127,0.341-2.893c0,0,4.084-3.914,0.511-3.404c-0.792,0.155,2.25-4.773-0.085-3.488c0.255-1.447,0.68-3.488-0.511-3.659c0.351-1.639,0.425-3.828-1.021-3.318c-0.434-0.883,0.51-4.254-1.021-3.488c-0.58,0.29,0.34-3.998-0.426-4.68c0,0-7.572,6.892-8.082,11.486c-1.554,2.984,7.287,11.639-3.999,18.377c-3.091-0.514-6.23-0.685-9.358-0.511c-1.957,0.17-1.957,4.169-1.957,4.169" />
      <path fill="none" stroke="#000000" stroke-width="0.2812" d="M309.433,165.402c1.106,0,2.042-2.467,2.042-2.467 M310.875,161.285c1.106,0,2.297-4.169,2.297-4.169 M312.747,163.071c1.106,0,1.446-2.722,1.446-2.722 M313.343,166.304c1.105,0,2.041-2.467,2.041-2.467 M313.853,169.622c1.106,0,2.127-2.212,2.127-2.212 M313.088,173.706c1.105,0,2.807-2.722,2.807-2.722 M312.662,176.174c1.106,0,2.893-1.532,2.893-1.532 M312.237,179.066c1.106,0,2.893-1.532,2.893-1.532 M310.961,181.959c1.106,0,3.743-1.276,3.743-1.276 M309.43,183.916c1.106,0,4.084-0.255,4.084-0.255 M307.483,185.997c1.105,0,3.602,0.106,3.602,0.106 M306.159,188.404c1.346-0.482,3.482,0.106,3.482,0.106 M304.174,189.787c1.347-0.482,3.482,0.106,3.482,0.106 M302.55,190.629c1.466,0.603,3.542,0.888,3.542,0.888 M301.648,192.254c1.467,0.601,2.339,0.346,2.339,0.346 M299.241,193.036c1.467,0.601,2.219,0.646,2.219,0.646 M297.615,147.446c0,0,0.301,1.324-0.962,1.324c-1.023,0-1.324-0.601-2.226-0.601c0,0-1.805-0.361-3.55,2.947" />
      <path fill="#DFDFDF" stroke="#000000" stroke-width="0.2812" d="M301.744,210.978c0.765,0.425,4.288,5.41,5.19,5.735c0.461,0.166,1.709-0.7,1.858-1.103c0.877,0.867,2.255,1.106,2.552,0.17c0.708,0.693,2.68,0.638,2.68-0.808c0.68,1.046,3.233,0.808,2.68-0.085 M313.595,215.784c2.646,2.105,6.692,6.045,6.692,6.045 M310.934,216.249c2.647,2.106,7.969,7.024,7.969,7.024 M307.608,216.563c2.647,2.105,6.182,5.748,6.182,5.748 M310.709,208.163c2.647,2.106,6.6,6.817,6.6,6.817 M307.106,208.592c3.795,2.7,7.118,6.513,7.118,6.513 M304.855,208.992c4.774,3.678,6.34,6.682,6.34,6.682 M303.668,210.122c2.036,1.496,3.767,3.366,5.102,5.51 M313.85,220.687c0,0-2.166-1.865-4.873-4.633 M318.361,221.288c-1.911-1.567-3.738-3.234-5.474-4.993 M318.963,218.521c0,0-0.722-0.241-3.429-3.008 M301.082,206.828c0.766,0.425,1.769,3.175,2.723,3.088c0.822-0.075,0.867-1.061,1.016-1.465c0.876,0.867,3.036,2.068,2.552,0.171c1.731,0.813,2.981,1.419,2.139-0.809c2.666,1.286,3.917-0.877,3.363-1.77 M304.766,203.421l4.834,4.431 M309.819,204.504l2.353,3.581 M304.525,205.406l2.902,3.185 M303.382,206.85l1.529,1.674 M311.564,210.7c0,0-1.384-1.023-1.985-1.685 M309.458,211.783c0,0-1.142-1.083-2.466-2.106 M304.886,212.745c0,0,0.602,0.722-2.106-2.045 M306.33,211.362c-0.667-0.642-1.37-1.244-2.106-1.805 M299.833,203.782c0,0,5.535,3.85,1.685-0.962 M306.15,202.398c2.587,3.128,0.329,2.715,0.329,2.715 M302.841,201.255l-0.722-1.143 M301.772,172.345c0,0,1.872-1.957,1.191-3.914 M301.943,174.727c0,0,3.147-3.233,2.466-5.19 M302.198,176.429c0,0,3.488-1.616,2.808-3.573 M300.752,178.896c0,0,2.552,0.34,2.722-1.106 M307.596,169.013c0,0-0.24-1.925-1.504-3.188c0.465-1.268,0.807-2.577,1.023-3.911 M309.433,165.402c1.106,0,2.042-2.467,2.042-2.467 M309.974,168.47c1.106,0,2.042-2.467,2.042-2.467 M310.756,170.215c1.106,0,2.282-1.625,2.282-1.625 M310.335,173.464c1.106,0,2.283-1.625,2.283-1.625 M309.372,175.569c0.809-0.023,1.613-0.124,2.403-0.301 M309.613,177.734c0.461,0.018,0.923-0.003,1.38-0.061 M308.71,162.094c1.107,0,0.959-1.385,0.959-1.385 M307.241,181.533c-0.244,1.078,1.139,1.24,1.139,1.24 M308.263,179.067c-0.243,1.078,2.163,1.781,2.163,1.781 M305.195,181.653c-0.243,1.079,0.177,3.887,0.177,3.887 M303.33,183.578c-0.844,0.477-1.267,4.188-1.267,4.188 M301.345,183.819c-0.845,0.297-2.049,1.722-2.951,4.849 M298.999,183.879c-2.04,0.786-3.584,2.498-4.155,4.609 M294.787,184c-2.04,0.785-3.584,2.497-4.154,4.608 M298.332,196.926c0,0-1.504-2.948-4.752-4.151 M299.054,153.627c0,0-0.255-0.51-1.106-0.51 M300.16,160.263c-0.181,0.301,0.956-1.104,0.596-2.127 M301.603,151.513c0,0-0.06-1.624-0.903-1.624 M294.924,165.531l1.203-1.564 M294.263,169.982l1.263-1.443 M288.728,175.036l1.504-1.624" />
      <path fill="#000000" d="M293.705,148.228c0,0-0.903,0.421-1.203,0.782c-0.835,1.377-0.259,2.963,1.504,2.647c0.96-0.068,1.209-1.561,1.209-1.561S294.066,149.793,293.705,148.228 M282.494,179.147c0,0-1.721,0.682-2.188,1.363c0,0-0.348,0.49,0,0.722c0.383,0.255,0.963,0.06,0.963,0.06C281.779,181.122,282.494,179.147,282.494,179.147 M285.538,180.138c0,0-1.314,1.302-1.477,2.112c0,0-0.128,0.587,0.284,0.664c0.452,0.085,0.909-0.322,0.909-0.322C285.656,182.235,285.538,180.138,285.538,180.138 M283.453,187.539c0,0-1.314,1.302-1.478,2.112c0,0-0.128,0.587,0.283,0.664c0.452,0.084,0.909-0.322,0.909-0.322C283.571,189.636,283.453,187.539,283.453,187.539 M278.306,189.641c-0.164-0.38-0.697-1.645-0.651-1.966c0.079-0.554,1.205-1.566,1.333-1.679l0.098-0.086l0.11,0.069c0.081,0.051,0.135,0.135,0.15,0.229c0.066,0.379-0.438,1.087-0.656,1.372c0.085,0.701,0.181,1.83-0.04,2.08c-0.046,0.054-0.113,0.085-0.183,0.086h-0.115L278.306,189.641L278.306,189.641z M289.679,195.791c-0.767,0-0.899,0.916-0.768,1.731c0,0,0.087,0.595,0.499,0.522c0.453-0.08,0.737-0.621,0.737-0.621C290.4,196.946,290.062,195.791,289.679,195.791 M291.978,212.694c-0.279-0.485-0.016-1.975,0.014-2.144l0.023-0.128l0.129-0.014c0.095-0.01,0.19,0.023,0.259,0.088c0.292,0.263,0.327,1.162,0.329,1.506c0.495,0.772,0.627,1.256,0.393,1.44l-0.094,0.073l-0.102-0.061C292.8,213.379,292.142,212.98,291.978,212.694L291.978,212.694z M297.38,214.268c-0.276-0.48,0.143-2.268,0.23-2.622l0.029-0.119l0.121-0.013c0.095-0.009,0.189,0.023,0.259,0.088c0.301,0.271,0.329,1.217,0.329,1.536c0.077,0.315,0.21,1.016-0.075,1.24l-0.04,0.024c-0.132,0.055-0.272,0.084-0.415,0.087C297.643,214.503,297.474,214.418,297.38,214.268L297.38,214.268z M292.914,206.058c-0.277-0.483-0.093-1.78-0.072-1.926l0.02-0.133l0.134-0.014c0.514-0.054,0.82,0.746,0.881,0.922c0.076,0.303,0.222,1.032-0.07,1.261l-0.041,0.024c-0.134,0.054-0.276,0.084-0.42,0.088C293.171,206.293,293.005,206.207,292.914,206.058L292.914,206.058z M285.936,200.002c0,0-0.772,1.681-0.64,2.496c0,0,0.086,0.595,0.499,0.522c0.453-0.079,0.738-0.622,0.738-0.622C286.784,201.923,285.936,200.002,285.936,200.002 M288.406,204.965c-0.893,0.681-0.09,2.178,0.285,2.913c0,0,0.265,0.54,0.635,0.343c0.406-0.215,0.511-0.818,0.511-0.818C289.931,206.874,289.666,205.38,288.406,204.965 M295.212,197.545c-0.042,1.616-1.452,1.633-0.947,2.287c0,0,1.125,0.482,1.453,0.222c0.36-0.287,0.353-0.898,0.353-0.898C296.064,198.618,296.061,198.118,295.212,197.545 M286.108,189.335c-0.723,0.212-0.984,1.591-0.48,2.244c0,0,0.36,0.822,0.687,0.562c0.361-0.286,0.651-1.196,0.651-1.196C286.961,189.812,286.958,189.908,286.108,189.335 M279.853,193.877c-0.767,0-0.899,0.915-0.768,1.731c0,0,0.087,0.595,0.499,0.522c0.453-0.08,0.738-0.622,0.738-0.622C280.573,195.033,280.236,193.877,279.853,193.877 M282.49,197.152c-0.127,1.914-0.772,1.682-0.639,2.497c0,0,0.086,0.595,0.498,0.521c0.453-0.08,1.078-0.238,1.078-0.238C283.678,199.457,283.037,198.92,282.49,197.152 M297.38,217.749c-0.767,0-0.899,0.916-0.767,1.731c0,0,0.086,0.595,0.498,0.522c0.454-0.08,0.738-0.621,0.738-0.621C298.1,218.905,297.763,217.749,297.38,217.749" />
      <path fill="#FFFFFF" d="M292.611,150.034v-0.001c0.057-0.193,0.442-0.236,0.86-0.096c0.417,0.14,0.71,0.41,0.653,0.603l0,0.001c-0.057,0.193-0.442,0.237-0.86,0.096C292.846,150.497,292.554,150.227,292.611,150.034" />
    </g>
    <g>
      <path fill="#EACE24" stroke="#806600" stroke-width="0.2812" d="M257.906,159.838c-0.107-1.038-0.05-2.995,0.479-3.884c0.179-0.3,0.618-0.651,0.959-0.636c0.336,0.015,0.799,0.117,0.958,0.423c0.158,0.38,0.228,0.79,0.205,1.201c-0.048,0.44-0.548,1.342-0.548,1.342s1.791-0.37,2.397-0.847c0.599-0.472,1.246-1.366,1.437-2.119c0.208-0.683,0.208-1.412-0.002-2.094c-0.261-0.663-0.667-1.26-1.188-1.747c-1.141-1.012-3.355-0.718-3.808-0.467c-0.599,0.333-1.329,1.041-1.575,1.695c-0.275,0.834-0.504,1.683-0.685,2.543c-0.169,0.863-0.284,1.735-0.342,2.613c-0.06,0.761-0.225,1.443-0.069,2.189c0.085,0.402,0.189,1.324,0.417,1.931c0.182,0.465,0.488,0.872,0.884,1.176c0.619,0.552,2.602,0.848,2.602,0.848s-1.089-1.418-1.369-2.048C258.327,161.208,257.991,160.658,257.906,159.838 M197.344,159.838c-0.107-1.038-0.05-2.995,0.479-3.884c0.179-0.3,0.618-0.651,0.959-0.636c0.336,0.015,0.799,0.117,0.958,0.423c0.158,0.38,0.228,0.79,0.205,1.201c-0.048,0.44-0.548,1.342-0.548,1.342s1.791-0.37,2.397-0.847c0.599-0.472,1.246-1.366,1.437-2.119c0.208-0.683,0.208-1.412-0.002-2.094c-0.261-0.663-0.667-1.26-1.188-1.747c-1.141-1.012-3.355-0.718-3.808-0.467c-0.599,0.333-1.329,1.041-1.575,1.695c-0.275,0.834-0.504,1.683-0.685,2.543c-0.169,0.863-0.284,1.735-0.342,2.613c-0.06,0.761-0.225,1.443-0.069,2.189c0.085,0.402,0.189,1.324,0.417,1.931c0.182,0.465,0.488,0.872,0.884,1.176c0.619,0.552,2.602,0.848,2.602,0.848s-1.089-1.418-1.369-2.048C197.764,161.208,197.429,160.658,197.344,159.838 M227.625,159.838c-0.107-1.038-0.05-2.995,0.479-3.884c0.179-0.3,0.618-0.651,0.959-0.636c0.336,0.015,0.799,0.117,0.958,0.423c0.158,0.38,0.228,0.79,0.205,1.201c-0.048,0.44-0.548,1.342-0.548,1.342s1.791-0.37,2.397-0.847c0.599-0.472,1.246-1.366,1.437-2.119c0.208-0.683,0.208-1.412-0.002-2.094c-0.261-0.663-0.667-1.26-1.188-1.747c-1.141-1.012-3.355-0.718-3.808-0.467c-0.599,0.333-1.329,1.041-1.575,1.695c-0.275,0.834-0.504,1.683-0.685,2.543c-0.169,0.863-0.284,1.735-0.342,2.613c-0.06,0.761-0.225,1.443-0.069,2.189c0.085,0.402,0.189,1.324,0.417,1.931c0.182,0.465,0.488,0.872,0.884,1.176c0.619,0.552,2.602,0.848,2.602,0.848s-1.089-1.418-1.369-2.048C228.045,161.208,227.71,160.658,227.625,159.838 M253.052,159.838c0.108-1.038,0.05-2.995-0.479-3.884c-0.179-0.3-0.617-0.651-0.959-0.636c-0.336,0.015-0.8,0.117-0.958,0.423c-0.158,0.38-0.228,0.79-0.205,1.201c0.048,0.44,0.547,1.342,0.547,1.342s-1.79-0.37-2.396-0.847c-0.599-0.472-1.246-1.366-1.438-2.119c-0.208-0.683-0.208-1.412,0.002-2.094c0.261-0.664,0.667-1.26,1.189-1.747c1.14-1.012,3.354-0.718,3.808-0.467c0.598,0.333,1.328,1.041,1.574,1.695c0.275,0.834,0.504,1.683,0.685,2.543c0.17,0.863,0.284,1.735,0.342,2.613c0.06,0.761,0.225,1.443,0.068,2.189c-0.084,0.402-0.188,1.324-0.416,1.931c-0.182,0.465-0.488,0.872-0.884,1.176c-0.62,0.552-2.601,0.848-2.601,0.848s1.089-1.418,1.369-2.048C252.631,161.208,252.967,160.658,253.052,159.838 M192.489,159.838c0.108-1.038,0.05-2.995-0.479-3.884c-0.179-0.3-0.617-0.651-0.959-0.636c-0.336,0.015-0.8,0.117-0.958,0.423c-0.158,0.38-0.228,0.79-0.205,1.201c0.048,0.44,0.547,1.342,0.547,1.342s-1.79-0.37-2.396-0.847c-0.599-0.472-1.246-1.366-1.438-2.119c-0.208-0.683-0.208-1.412,0.002-2.094c0.261-0.664,0.667-1.26,1.189-1.747c1.14-1.012,3.354-0.718,3.808-0.467c0.598,0.333,1.328,1.041,1.574,1.695c0.275,0.834,0.504,1.683,0.685,2.543c0.17,0.863,0.284,1.735,0.342,2.613c0.06,0.761,0.225,1.443,0.068,2.189c-0.084,0.402-0.188,1.324-0.416,1.931c-0.182,0.465-0.488,0.872-0.884,1.176c-0.62,0.552-2.601,0.848-2.601,0.848s1.089-1.418,1.369-2.048C192.069,161.208,192.405,160.658,192.489,159.838 M222.77,159.838c0.108-1.038,0.05-2.995-0.479-3.884c-0.179-0.3-0.617-0.651-0.959-0.636c-0.336,0.015-0.8,0.117-0.958,0.423c-0.158,0.38-0.228,0.79-0.205,1.201c0.048,0.44,0.547,1.342,0.547,1.342s-1.79-0.37-2.396-0.847c-0.599-0.472-1.246-1.366-1.438-2.119c-0.208-0.683-0.208-1.412,0.002-2.094c0.261-0.664,0.667-1.26,1.189-1.747c1.14-1.012,3.354-0.718,3.808-0.467c0.598,0.333,1.328,1.041,1.574,1.695c0.275,0.834,0.504,1.683,0.685,2.543c0.17,0.863,0.284,1.735,0.342,2.613c0.06,0.761,0.225,1.443,0.068,2.189c-0.084,0.402-0.188,1.324-0.416,1.931c-0.182,0.465-0.488,0.872-0.884,1.176c-0.62,0.552-2.601,0.848-2.601,0.848s1.089-1.418,1.369-2.048C222.35,161.208,222.686,160.658,222.77,159.838" />
      <path fill="#EACE24" stroke="#806600" stroke-width="0.2812" d="M255.467,167.547c0,0,1.599-1.353,1.864-2.884c0.238-1.378-0.822-2.99-0.903-3.639c-0.321-2.595,0.36-6.051,0.421-6.333c0.145-0.687,0.385-1.35,0.714-1.97c0.237-0.449,0.501-0.883,0.79-1.3c0.193-0.293,0.622-0.837,0.841-1.392c0.174-0.482,0.259-0.992,0.251-1.504c0.001-0.492-0.078-0.982-0.234-1.448c-0.228-0.616-0.646-1.143-1.194-1.505c-0.677-0.427-1.224-0.77-1.432-0.905c-0.687-0.449-1.111-1.924-1.119-1.924s-0.432,1.475-1.119,1.924c-0.208,0.136-0.73,0.479-1.407,0.905c-0.548,0.362-0.966,0.889-1.193,1.505c-0.157,0.467-0.236,0.956-0.234,1.448c-0.009,0.512,0.076,1.022,0.251,1.504c0.219,0.554,0.648,1.099,0.841,1.392c0.289,0.417,0.553,0.851,0.789,1.3c0.329,0.62,0.569,1.283,0.714,1.97c0.061,0.282,0.742,3.739,0.421,6.333c-0.08,0.649-1.165,2.261-0.927,3.639C253.867,166.193,255.466,167.547,255.467,167.547 M194.904,167.547c0,0,1.599-1.353,1.864-2.884c0.238-1.378-0.822-2.99-0.903-3.639c-0.321-2.595,0.36-6.051,0.421-6.333c0.145-0.687,0.385-1.35,0.714-1.97c0.237-0.449,0.501-0.883,0.79-1.3c0.193-0.293,0.622-0.837,0.841-1.392c0.174-0.482,0.259-0.992,0.251-1.504c0.001-0.492-0.078-0.982-0.234-1.448c-0.228-0.616-0.646-1.143-1.194-1.505c-0.677-0.427-1.224-0.77-1.432-0.905c-0.687-0.449-1.111-1.924-1.119-1.924s-0.432,1.475-1.119,1.924c-0.208,0.136-0.73,0.479-1.407,0.905c-0.548,0.362-0.966,0.889-1.193,1.505c-0.157,0.467-0.236,0.956-0.234,1.448c-0.009,0.512,0.076,1.022,0.251,1.504c0.219,0.554,0.648,1.099,0.841,1.392c0.289,0.417,0.553,0.851,0.789,1.3c0.329,0.62,0.569,1.283,0.714,1.97c0.061,0.282,0.742,3.739,0.421,6.333c-0.08,0.649-1.165,2.261-0.927,3.639C193.304,166.193,194.904,167.547,194.904,167.547 M225.185,167.547c0,0,1.599-1.353,1.864-2.884c0.238-1.378-0.822-2.99-0.903-3.639c-0.321-2.595,0.36-6.051,0.421-6.333c0.145-0.687,0.385-1.35,0.714-1.97c0.237-0.449,0.501-0.883,0.79-1.3c0.193-0.293,0.622-0.837,0.841-1.392c0.174-0.482,0.259-0.992,0.251-1.504c0.001-0.492-0.078-0.982-0.234-1.448c-0.228-0.616-0.646-1.143-1.194-1.505c-0.677-0.427-1.224-0.77-1.432-0.905c-0.687-0.449-1.111-1.924-1.119-1.924s-0.432,1.475-1.119,1.924c-0.208,0.136-0.73,0.479-1.407,0.905c-0.548,0.362-0.966,0.889-1.193,1.505c-0.157,0.467-0.236,0.956-0.234,1.448c-0.009,0.512,0.076,1.022,0.251,1.504c0.219,0.554,0.648,1.099,0.841,1.392c0.289,0.417,0.553,0.851,0.789,1.3c0.329,0.62,0.569,1.283,0.714,1.97c0.061,0.282,0.742,3.739,0.421,6.333c-0.08,0.649-1.165,2.261-0.927,3.639C223.586,166.193,225.185,167.547,225.185,167.547" />
      <path fill="#EACE24" stroke="#806600" stroke-width="0.2812" d="M259.06,159.224l-0.77-1.1h-5.62l-0.772,1.1l0.772,1.094h5.62L259.06,159.224z M198.498,159.224l-0.77-1.1h-5.62l-0.772,1.1l0.772,1.094h5.62L198.498,159.224z M228.779,159.224l-0.77-1.1h-5.62l-0.772,1.1l0.772,1.094h5.62L228.779,159.224z" />
    </g>
    <g>
      <path fill="#EACE24" stroke="#806600" stroke-width="0.2812" stroke-miterlimit="4.8" d="M233.805,218.808h16.946v3.966h-16.946V218.808z M233.805,217.945c-0.028-3.725-0.552-7.565-2.141-10.836c1.148-0.343,2.357,0.311,2.7,1.459c0.143,0.479,0.116,0.993-0.076,1.454c1.086-0.506,2.377-0.036,2.882,1.051c0.506,1.086,0.036,2.377-1.051,2.882c-0.287,0.133-0.599,0.203-0.915,0.203c-0.152,0-0.304-0.016-0.453-0.048c0.163,1.464,0.914,2.573,1.816,2.573c0.696,0,1.302-0.66,1.618-1.635c0.315,0.974,0.922,1.635,1.618,1.635c0.969,0,1.764-1.281,1.842-2.909c-0.986,0.679-2.337,0.431-3.016-0.556c-0.679-0.986-0.431-2.337,0.556-3.016c0.357-0.246,0.78-0.379,1.214-0.383c-0.596-1.039-0.237-2.365,0.802-2.961c1.039-0.596,2.365-0.237,2.961,0.802c0.384,0.669,0.384,1.491,0,2.16c1.198,0.008,2.163,0.985,2.155,2.184c-0.008,1.198-0.985,2.163-2.184,2.155c-0.435-0.003-0.86-0.137-1.218-0.384c0.077,1.627,0.872,2.909,1.842,2.909c0.696,0,1.302-0.66,1.618-1.635c0.315,0.974,0.921,1.635,1.617,1.635c0.903,0,1.653-1.109,1.816-2.573c-0.149,0.032-0.301,0.048-0.454,0.048c-1.198-0.001-2.169-0.973-2.168-2.171c0.001-1.198,0.973-2.169,2.171-2.168c0.316,0,0.628,0.069,0.914,0.203c-0.46-1.107,0.063-2.377,1.17-2.837c0.461-0.192,0.975-0.219,1.454-0.076c-1.589,3.271-2.113,7.111-2.141,10.836H233.805z M199.605,218.808h16.946v3.966h-16.946V218.808z M199.605,217.945c-0.028-3.725-0.552-7.565-2.141-10.836c1.148-0.343,2.357,0.311,2.7,1.459c0.143,0.479,0.116,0.993-0.076,1.454c1.086-0.506,2.377-0.036,2.882,1.051c0.506,1.086,0.036,2.377-1.051,2.882c-0.287,0.133-0.599,0.203-0.915,0.203c-0.152,0-0.304-0.016-0.453-0.048c0.163,1.464,0.914,2.573,1.816,2.573c0.696,0,1.302-0.66,1.618-1.635c0.315,0.974,0.922,1.635,1.618,1.635c0.969,0,1.764-1.281,1.842-2.909c-0.986,0.679-2.337,0.431-3.016-0.556c-0.679-0.986-0.431-2.337,0.556-3.016c0.357-0.246,0.78-0.379,1.214-0.383c-0.596-1.039-0.237-2.365,0.802-2.961c1.039-0.596,2.365-0.237,2.961,0.802c0.384,0.669,0.384,1.491,0,2.16c1.198,0.008,2.163,0.985,2.155,2.184c-0.008,1.198-0.986,2.163-2.184,2.155c-0.435-0.003-0.86-0.137-1.218-0.384c0.077,1.627,0.872,2.909,1.842,2.909c0.696,0,1.302-0.66,1.618-1.635c0.315,0.974,0.921,1.635,1.617,1.635c0.903,0,1.653-1.109,1.816-2.573c-0.149,0.032-0.301,0.048-0.454,0.048c-1.198-0.001-2.169-0.973-2.168-2.171c0.001-1.198,0.973-2.169,2.171-2.168c0.316,0,0.628,0.069,0.914,0.203c-0.46-1.107,0.063-2.377,1.17-2.837c0.461-0.192,0.975-0.219,1.454-0.076c-1.589,3.271-2.113,7.111-2.141,10.836H199.605z M216.705,237.989h16.946v3.966h-16.946V237.989z M216.705,237.126c-0.028-3.725-0.552-7.565-2.141-10.836c1.148-0.343,2.357,0.311,2.7,1.459c0.143,0.479,0.116,0.993-0.076,1.454c1.086-0.506,2.377-0.036,2.882,1.051c0.506,1.086,0.036,2.377-1.051,2.882c-0.287,0.133-0.599,0.203-0.915,0.203c-0.152,0-0.304-0.016-0.453-0.048c0.163,1.464,0.914,2.573,1.816,2.573c0.696,0,1.302-0.66,1.618-1.635c0.315,0.974,0.922,1.635,1.618,1.635c0.969,0,1.764-1.281,1.842-2.909c-0.986,0.679-2.337,0.431-3.016-0.556c-0.679-0.986-0.431-2.337,0.556-3.016c0.357-0.246,0.78-0.379,1.214-0.383c-0.596-1.039-0.237-2.365,0.802-2.961c1.039-0.596,2.365-0.237,2.961,0.802c0.384,0.669,0.384,1.491,0,2.16c1.198,0.008,2.163,0.985,2.155,2.184c-0.008,1.198-0.986,2.163-2.184,2.155c-0.435-0.003-0.86-0.137-1.218-0.384c0.077,1.627,0.872,2.909,1.842,2.909c0.696,0,1.302-0.66,1.618-1.635c0.315,0.974,0.921,1.635,1.617,1.635c0.903,0,1.653-1.109,1.816-2.573c-0.149,0.032-0.301,0.048-0.454,0.048c-1.198-0.001-2.169-0.973-2.168-2.171c0.001-1.198,0.973-2.169,2.171-2.168c0.316,0,0.628,0.069,0.914,0.203c-0.46-1.107,0.063-2.377,1.17-2.837c0.461-0.192,0.975-0.219,1.454-0.076c-1.589,3.271-2.113,7.111-2.141,10.836H216.705z" />
      <path fill="#806600" d="M225.676,231.16l2.309-0.362l-2.426-0.381l-0.381-2.426l-0.38,2.426l-2.426,0.381l2.31,0.362H225.676z M216.628,238.642c0.092-0.001,0.18,0.036,0.244,0.101c0.034,0.035,0.061,0.076,0.078,0.122l0.4,0.879c0.04,0.09,0.04,0.193,0,0.283h0l-0.408,0.898c-0.056,0.124-0.179,0.203-0.315,0.202L216.628,238.642L216.628,238.642z M216.828,231.772l2.214-0.749l-2.455,0.036l-0.787-2.326l0.59,2.924L216.828,231.772z M216.203,230.628h0.023c0.022,0.001,0.04,0.003,0.055,0.005c0.044,0.005,0.087,0.022,0.122,0.049l0.001,0.001l0.002,0.001c0.041,0.03,0.079,0.062,0.116,0.096l0.012,0.013c0.036,0.033,0.069,0.068,0.1,0.105l0.012,0.015c0.177,0.221,0.273,0.495,0.273,0.778h0.001v0.003h-0.001c0,0.108-0.014,0.216-0.042,0.32l-0.003,0.01l-0.01,0.035c-0.002,0.007-0.005,0.013-0.007,0.02l-0.001,0.003l-0.001,0.003c-0.025,0.076-0.057,0.149-0.097,0.219c-0.021,0.037-0.051,0.068-0.088,0.089h0l-0.002,0.001l-0.001,0l-0.002,0.002c-0.016,0.009-0.035,0.02-0.057,0.032l-0.045,0.022c-0.112-0.615-0.246-1.223-0.404-1.821l0.015-0.001v0h0.002c0.01,0,0.02,0,0.029,0.001L216.203,230.628z M233.529,231.772l-2.214-0.749l2.454,0.036l0.787-2.326l-0.59,2.924L233.529,231.772z M234.155,230.628h-0.024c-0.021,0.001-0.04,0.003-0.054,0.005c-0.044,0.005-0.087,0.022-0.122,0.049l-0.001,0.001l-0.001,0.001c-0.041,0.03-0.079,0.062-0.116,0.096l-0.013,0.013c-0.035,0.033-0.068,0.068-0.099,0.105l-0.012,0.015c-0.177,0.221-0.273,0.495-0.273,0.778h0v0.003h0c0,0.108,0.015,0.216,0.043,0.32l0.004,0.01l0.01,0.035c0.002,0.007,0.004,0.013,0.007,0.02l0.001,0.003l0.001,0.003c0.025,0.076,0.058,0.149,0.097,0.219c0.021,0.037,0.051,0.068,0.087,0.089l0.001,0.001l0.002,0l0.001,0.002c0.016,0.009,0.035,0.02,0.057,0.032l0.045,0.022c0.113-0.615,0.246-1.223,0.404-1.821l-0.015-0.001v0h-0.002c-0.01,0-0.02,0-0.029,0.001L234.155,230.628z M233.729,238.642c-0.092-0.001-0.18,0.036-0.245,0.101c-0.034,0.035-0.061,0.076-0.078,0.122l-0.4,0.879c-0.04,0.09-0.04,0.193,0.001,0.283h-0.001l0.408,0.898c0.056,0.124,0.179,0.203,0.315,0.202L233.729,238.642z M208.576,211.979l2.309-0.362l-2.426-0.381l-0.381-2.426l-0.38,2.426l-2.426,0.381l2.31,0.362H208.576z M199.528,219.46c0.092-0.001,0.18,0.036,0.244,0.101c0.034,0.035,0.061,0.076,0.078,0.122l0.4,0.879c0.04,0.09,0.04,0.193,0,0.283h0l-0.408,0.898c-0.056,0.124-0.179,0.203-0.315,0.202L199.528,219.46L199.528,219.46z M199.728,212.591l2.214-0.749l-2.455,0.036l-0.787-2.326l0.59,2.924L199.728,212.591z M199.103,211.447h0.023c0.022,0.001,0.04,0.003,0.055,0.005c0.044,0.005,0.087,0.022,0.122,0.049l0.001,0.001l0.002,0.001c0.041,0.03,0.079,0.062,0.116,0.096l0.012,0.013c0.036,0.033,0.069,0.068,0.1,0.105l0.012,0.015c0.177,0.221,0.273,0.495,0.273,0.778h0.001v0.003h-0.001c0,0.108-0.014,0.216-0.042,0.32l-0.003,0.01l-0.01,0.035c-0.002,0.007-0.005,0.013-0.007,0.02l-0.001,0.003l-0.001,0.003c-0.025,0.076-0.057,0.149-0.097,0.219c-0.021,0.037-0.051,0.068-0.088,0.089h0l-0.002,0.001l-0.001,0l-0.002,0.002c-0.016,0.009-0.035,0.02-0.057,0.032l-0.045,0.022c-0.112-0.615-0.246-1.223-0.404-1.821l0.015-0.001v0h0.002c0.01,0,0.02,0,0.029,0.001L199.103,211.447z M216.429,212.591l-2.214-0.749l2.454,0.036l0.787-2.326l-0.59,2.924L216.429,212.591z M217.055,211.447h-0.024c-0.021,0.001-0.04,0.003-0.054,0.005c-0.044,0.005-0.087,0.022-0.122,0.049l-0.001,0.001l-0.001,0.001c-0.041,0.03-0.079,0.062-0.116,0.096l-0.013,0.013c-0.035,0.033-0.068,0.068-0.099,0.105l-0.012,0.015c-0.177,0.221-0.273,0.495-0.273,0.778h0v0.003h0c0,0.108,0.015,0.216,0.043,0.32l0.004,0.01l0.01,0.035c0.002,0.007,0.004,0.013,0.007,0.02l0.001,0.003l0.001,0.003c0.025,0.076,0.058,0.149,0.097,0.219c0.021,0.037,0.051,0.068,0.087,0.089l0.001,0.001l0.002,0l0.001,0.002c0.016,0.009,0.035,0.02,0.057,0.032l0.045,0.022c0.113-0.615,0.246-1.223,0.404-1.821l-0.015-0.001v0h-0.002c-0.01,0-0.02,0-0.029,0.001L217.055,211.447z M216.629,219.46c-0.092-0.001-0.18,0.036-0.245,0.101c-0.034,0.035-0.061,0.076-0.078,0.122l-0.4,0.879c-0.04,0.09-0.04,0.193,0.001,0.283h-0.001l0.408,0.898c0.056,0.124,0.179,0.203,0.315,0.202L216.629,219.46z M242.776,211.979l2.309-0.362l-2.426-0.381l-0.381-2.426l-0.38,2.426l-2.426,0.381l2.31,0.362H242.776z M233.728,219.46c0.092-0.001,0.18,0.036,0.244,0.101c0.034,0.035,0.061,0.076,0.078,0.122l0.4,0.879c0.04,0.09,0.04,0.193,0,0.283h0l-0.408,0.898c-0.056,0.124-0.179,0.203-0.315,0.202L233.728,219.46L233.728,219.46z M233.928,212.591l2.214-0.749l-2.455,0.036l-0.787-2.326l0.59,2.924L233.928,212.591z M233.303,211.447h0.023c0.022,0.001,0.04,0.003,0.055,0.005c0.044,0.005,0.087,0.022,0.122,0.049l0.001,0.001l0.002,0.001c0.041,0.03,0.079,0.062,0.116,0.096l0.012,0.013c0.036,0.033,0.069,0.068,0.1,0.105l0.012,0.015c0.177,0.221,0.273,0.495,0.273,0.778h0.001v0.003h-0.001c0,0.108-0.014,0.216-0.042,0.32l-0.003,0.01l-0.01,0.035c-0.002,0.007-0.005,0.013-0.007,0.02l-0.001,0.003l-0.001,0.003c-0.025,0.076-0.057,0.149-0.097,0.219c-0.021,0.037-0.051,0.068-0.088,0.089h0l-0.002,0.001l-0.001,0l-0.002,0.002c-0.016,0.009-0.035,0.02-0.057,0.032l-0.045,0.022c-0.112-0.615-0.246-1.223-0.404-1.821l0.015-0.001v0h0.002c0.01,0,0.02,0,0.029,0.001L233.303,211.447z M250.629,212.591l-2.214-0.749l2.454,0.036l0.787-2.326l-0.59,2.924L250.629,212.591z M251.255,211.447h-0.024c-0.021,0.001-0.04,0.003-0.054,0.005c-0.044,0.005-0.087,0.022-0.122,0.049l-0.001,0.001l-0.001,0.001c-0.041,0.03-0.079,0.062-0.116,0.096l-0.013,0.013c-0.035,0.033-0.068,0.068-0.099,0.105l-0.012,0.015c-0.177,0.221-0.273,0.495-0.273,0.778h0v0.003h0c0,0.108,0.015,0.216,0.043,0.32l0.004,0.01l0.01,0.035c0.002,0.007,0.004,0.013,0.007,0.02l0.001,0.003l0.001,0.003c0.025,0.076,0.058,0.149,0.097,0.219c0.021,0.037,0.051,0.068,0.087,0.089l0.001,0.001l0.002,0l0.001,0.002c0.016,0.009,0.035,0.02,0.057,0.032l0.045,0.022c0.112-0.615,0.246-1.223,0.404-1.821l-0.015-0.001v0h-0.002c-0.01,0-0.02,0-0.029,0.001L251.255,211.447z M250.829,219.46c-0.092-0.001-0.18,0.036-0.245,0.101c-0.034,0.035-0.061,0.076-0.078,0.122l-0.4,0.879c-0.04,0.09-0.04,0.193,0.001,0.283h-0.001l0.408,0.898c0.056,0.124,0.179,0.203,0.315,0.202L250.829,219.46z" />
      <path fill="none" stroke="#9E7800" stroke-width="0.2812" stroke-linejoin="round" d="M223.563,239.92l1.519-0.898l1.519,0.898l-1.519,0.898L223.563,239.92z M206.463,220.739l1.519-0.898l1.519,0.898l-1.519,0.898L206.463,220.739z M240.663,220.739l1.519-0.898l1.519,0.898l-1.519,0.898L240.663,220.739z" />
      <path fill="#FF8080" d="M223.563,239.92l1.519-0.898l1.519,0.898l-1.519,0.898L223.563,239.92z M223.563,239.92l1.519-0.898l1.519,0.898l-1.519,0.898L223.563,239.92z M206.463,220.739l1.519-0.898l1.519,0.898l-1.519,0.898L206.463,220.739z M206.463,220.739l1.519-0.898l1.519,0.898l-1.519,0.898L206.463,220.739z M240.663,220.739l1.519-0.898l1.519,0.898l-1.519,0.898L240.663,220.739z M240.663,220.739l1.519-0.898l1.519,0.898l-1.519,0.898L240.663,220.739z" />
      <path fill="#BA0028" d="M226.601,239.92l-1.493,0.882l-0.026,0.016v-0.898H226.601z M225.082,239.92v0.898l-1.52-0.898H225.082z M209.501,220.739l-1.493,0.882l-0.026,0.016v-0.898H209.501z M207.982,220.739v0.898l-1.52-0.898H207.982z M243.701,220.739l-1.493,0.882l-0.026,0.016v-0.898H243.701z M242.182,220.739v0.898l-1.52-0.898H242.182z" />
      <path fill="#FF99CC" d="M215.808,239.889l0.897-0.897l0.409,0.897l-0.409,0.898L215.808,239.889z M198.708,220.708l0.897-0.897l0.409,0.897l-0.409,0.898L198.708,220.708z M232.908,220.708l0.897-0.897l0.409,0.897l-0.409,0.898L232.908,220.708z" />
      <path fill="#FF083C" d="M225.082,239.022v0.898h1.519l-0.036-0.021l-1.375-0.812L225.082,239.022z M215.808,239.889h1.306l-0.409,0.898L215.808,239.889z M207.982,219.84v0.898h1.519l-0.036-0.021l-1.375-0.812L207.982,219.84z M242.182,219.84v0.898h1.519l-0.036-0.021l-1.375-0.812L242.182,219.84z M198.708,220.708h1.306l-0.409,0.898L198.708,220.708z M232.908,220.708h1.306l-0.409,0.898L232.908,220.708z" />
      <path fill="#CCCCCC" d="M199.075,211.689c0.027,0,0.053,0.002,0.08,0.005c0.419,0.297,0.545,0.862,0.291,1.309c-0.334,0.205-0.771,0.101-0.976-0.233c-0.205-0.334-0.101-0.771,0.233-0.976C198.814,211.726,198.943,211.689,199.075,211.689 M217.084,211.689c-0.027,0-0.054,0.001-0.081,0.005c-0.418,0.297-0.544,0.862-0.291,1.309c0.334,0.205,0.771,0.101,0.976-0.233c0.205-0.334,0.101-0.771-0.233-0.976C217.343,211.726,217.215,211.689,217.084,211.689 M216.175,230.871c0.027,0,0.053,0.002,0.08,0.005c0.419,0.297,0.545,0.862,0.291,1.309c-0.334,0.205-0.771,0.101-0.976-0.233c-0.205-0.334-0.101-0.771,0.233-0.976C215.914,230.907,216.043,230.87,216.175,230.871 M234.184,230.871c-0.027,0-0.054,0.001-0.081,0.005c-0.418,0.297-0.544,0.862-0.291,1.309c0.334,0.205,0.771,0.101,0.976-0.233c0.205-0.334,0.101-0.771-0.233-0.976C234.443,230.907,234.315,230.871,234.184,230.871 M233.275,211.689c0.027,0,0.053,0.002,0.08,0.005c0.419,0.297,0.545,0.862,0.291,1.309c-0.334,0.205-0.771,0.101-0.976-0.233c-0.205-0.334-0.101-0.771,0.233-0.976C233.014,211.726,233.143,211.689,233.275,211.689 M251.284,211.689c-0.027,0-0.054,0.001-0.081,0.005c-0.418,0.297-0.544,0.862-0.291,1.309c0.334,0.205,0.771,0.101,0.976-0.233c0.205-0.334,0.101-0.771-0.233-0.976C251.543,211.726,251.415,211.689,251.284,211.689" />
      <path fill="#FF083C" d="M217.449,220.708l-0.898-0.897l-0.409,0.897l0.409,0.898L217.449,220.708z M234.549,239.889l-0.898-0.897l-0.409,0.897l0.409,0.898L234.549,239.889z M251.649,220.708l-0.898-0.897l-0.409,0.897l0.409,0.898L251.649,220.708z" />
      <path fill="#BA0028" d="M217.449,220.708h-1.306l0.409,0.898L217.449,220.708z M234.549,239.889h-1.306l0.409,0.898L234.549,239.889z M251.649,220.708h-1.306l0.409,0.898L251.649,220.708z" />
      <path fill="none" stroke="#9E7800" stroke-width="0.2812" d="M216.175,230.871c0.027,0,0.053,0.002,0.08,0.005c0.419,0.297,0.545,0.862,0.291,1.309c-0.334,0.205-0.771,0.101-0.976-0.233c-0.205-0.334-0.101-0.771,0.233-0.976C215.914,230.907,216.043,230.87,216.175,230.871L216.175,230.871z M234.184,230.871c-0.027,0-0.054,0.001-0.081,0.005c-0.418,0.297-0.544,0.862-0.291,1.309c0.334,0.205,0.771,0.101,0.976-0.233c0.205-0.334,0.101-0.771-0.233-0.976C234.443,230.907,234.315,230.871,234.184,230.871L234.184,230.871z M199.075,211.689c0.027,0,0.053,0.002,0.08,0.005c0.419,0.297,0.545,0.862,0.291,1.309c-0.334,0.205-0.771,0.101-0.976-0.233c-0.205-0.334-0.101-0.771,0.233-0.976C198.814,211.726,198.943,211.689,199.075,211.689L199.075,211.689z M217.084,211.689c-0.027,0-0.054,0.001-0.081,0.005c-0.418,0.297-0.544,0.862-0.291,1.309c0.334,0.205,0.771,0.101,0.976-0.233c0.205-0.334,0.101-0.771-0.233-0.976C217.343,211.726,217.215,211.689,217.084,211.689L217.084,211.689z M233.275,211.689c0.027,0,0.053,0.002,0.08,0.005c0.419,0.297,0.545,0.862,0.291,1.309c-0.334,0.205-0.771,0.101-0.976-0.233c-0.205-0.334-0.101-0.771,0.233-0.976C233.014,211.726,233.143,211.689,233.275,211.689L233.275,211.689z M251.284,211.689c-0.027,0-0.054,0.001-0.081,0.005c-0.418,0.297-0.544,0.862-0.291,1.309c0.334,0.205,0.771,0.101,0.976-0.233c0.205-0.334,0.101-0.771-0.233-0.976C251.543,211.726,251.415,211.689,251.284,211.689L251.284,211.689z" />
      <path fill="#CCCCCC" stroke="#9E7800" stroke-width="0.2812" d="M208.079,210.825c0.44,0,0.796,0.356,0.796,0.796s-0.356,0.796-0.796,0.796s-0.796-0.356-0.796-0.796S207.64,210.825,208.079,210.825z M225.179,230.006c0.44,0,0.796,0.356,0.796,0.796s-0.356,0.796-0.796,0.796s-0.796-0.356-0.796-0.796S224.74,230.006,225.179,230.006z M221.205,238.547c0.321,0,0.581,0.26,0.581,0.581c0,0.321-0.26,0.581-0.581,0.581c-0.321,0-0.581-0.26-0.581-0.581C220.625,238.807,220.885,238.547,221.205,238.547z M221.205,240.236c0.321,0,0.581,0.26,0.581,0.581s-0.26,0.581-0.581,0.581c-0.321,0-0.581-0.26-0.581-0.581S220.885,240.236,221.205,240.236z M229.239,238.547c0.321,0,0.581,0.26,0.581,0.581c0,0.321-0.26,0.581-0.581,0.581s-0.581-0.26-0.581-0.581C228.659,238.807,228.919,238.547,229.239,238.547z M229.239,240.236c0.321,0,0.581,0.26,0.581,0.581s-0.26,0.581-0.581,0.581s-0.581-0.26-0.581-0.581S228.919,240.236,229.239,240.236z M204.105,219.366c0.321,0,0.581,0.26,0.581,0.581s-0.26,0.581-0.581,0.581s-0.581-0.26-0.581-0.581S203.785,219.366,204.105,219.366z M204.105,221.055c0.321,0,0.581,0.26,0.581,0.581s-0.26,0.581-0.581,0.581s-0.581-0.26-0.581-0.581S203.785,221.055,204.105,221.055z M212.139,219.366c0.321,0,0.581,0.26,0.581,0.581s-0.26,0.581-0.581,0.581s-0.581-0.26-0.581-0.581S211.819,219.366,212.139,219.366z M212.139,221.055c0.321,0,0.581,0.26,0.581,0.581s-0.26,0.581-0.581,0.581s-0.581-0.26-0.581-0.581S211.819,221.055,212.139,221.055z M242.279,210.825c0.44,0,0.796,0.356,0.796,0.796s-0.356,0.796-0.796,0.796s-0.796-0.356-0.796-0.796S241.84,210.825,242.279,210.825z M238.305,219.366c0.321,0,0.581,0.26,0.581,0.581s-0.26,0.581-0.581,0.581s-0.581-0.26-0.581-0.581S237.985,219.366,238.305,219.366z M238.305,221.055c0.321,0,0.581,0.26,0.581,0.581s-0.26,0.581-0.581,0.581s-0.581-0.26-0.581-0.581S237.985,221.055,238.305,221.055z M246.339,219.366c0.321,0,0.581,0.26,0.581,0.581s-0.26,0.581-0.581,0.581s-0.581-0.26-0.581-0.581S246.019,219.366,246.339,219.366z M246.339,221.055c0.321,0,0.581,0.26,0.581,0.581s-0.26,0.581-0.581,0.581s-0.581-0.26-0.581-0.581S246.019,221.055,246.339,221.055z" />
      <path fill="#FFFFFF" d="M232.934,211.971c0.187,0,0.339,0.152,0.339,0.339c0,0.187-0.152,0.339-0.339,0.339c-0.187,0-0.339-0.152-0.339-0.339c0,0,0,0,0,0C232.596,212.123,232.747,211.971,232.934,211.971 M251.408,211.837c-0.187,0-0.338,0.152-0.338,0.339c0,0.187,0.152,0.338,0.339,0.338c0.187,0,0.338-0.152,0.338-0.338C251.747,211.989,251.596,211.837,251.408,211.837 M198.734,211.971c0.187,0,0.339,0.152,0.339,0.339c0,0.187-0.152,0.339-0.339,0.339c-0.187,0-0.339-0.152-0.339-0.339c0,0,0,0,0,0C198.396,212.123,198.547,211.971,198.734,211.971 M217.208,211.837c-0.187,0-0.338,0.152-0.338,0.339c0,0.187,0.152,0.338,0.339,0.338c0.187,0,0.338-0.152,0.338-0.338C217.547,211.989,217.396,211.837,217.208,211.837 M215.834,231.152c0.187,0,0.339,0.152,0.339,0.339c0,0.187-0.152,0.339-0.339,0.339c-0.187,0-0.339-0.152-0.339-0.339c0,0,0,0,0,0C215.496,231.304,215.647,231.152,215.834,231.152 M234.308,231.018c-0.187,0-0.338,0.152-0.338,0.339c0,0.187,0.152,0.338,0.339,0.338c0.187,0,0.338-0.152,0.338-0.338C234.647,231.17,234.496,231.018,234.308,231.018 M225.036,230.217c0.187,0,0.339,0.152,0.339,0.339s-0.152,0.339-0.339,0.339c-0.187,0-0.339-0.152-0.339-0.339S224.849,230.217,225.036,230.217z M221.106,238.721c0.13,0,0.236,0.106,0.236,0.236s-0.106,0.236-0.236,0.236s-0.236-0.106-0.236-0.236S220.976,238.721,221.106,238.721z M221.106,240.41c0.13,0,0.236,0.106,0.236,0.236s-0.106,0.236-0.236,0.236s-0.236-0.106-0.236-0.236S220.976,240.41,221.106,240.41z M229.14,238.721c0.13,0,0.236,0.106,0.236,0.236s-0.106,0.236-0.236,0.236s-0.236-0.106-0.236-0.236S229.01,238.721,229.14,238.721z M229.14,240.41c0.13,0,0.236,0.106,0.236,0.236s-0.106,0.236-0.236,0.236s-0.236-0.106-0.236-0.236S229.01,240.41,229.14,240.41z M242.136,211.036c0.187,0,0.339,0.152,0.339,0.339c0,0.187-0.152,0.339-0.339,0.339c-0.187,0-0.339-0.152-0.339-0.339C241.797,211.188,241.949,211.036,242.136,211.036z M238.206,219.54c0.13,0,0.236,0.106,0.236,0.236s-0.106,0.236-0.236,0.236s-0.236-0.106-0.236-0.236S238.076,219.54,238.206,219.54z M238.206,221.229c0.13,0,0.236,0.106,0.236,0.236s-0.106,0.236-0.236,0.236s-0.236-0.106-0.236-0.236S238.076,221.229,238.206,221.229z M246.24,219.54c0.13,0,0.236,0.106,0.236,0.236s-0.106,0.236-0.236,0.236s-0.236-0.106-0.236-0.236S246.11,219.54,246.24,219.54z M246.24,221.229c0.13,0,0.236,0.106,0.236,0.236s-0.106,0.236-0.236,0.236s-0.236-0.106-0.236-0.236S246.11,221.229,246.24,221.229z M207.936,211.036c0.187,0,0.339,0.152,0.339,0.339c0,0.187-0.152,0.339-0.339,0.339c-0.187,0-0.339-0.152-0.339-0.339C207.597,211.188,207.749,211.036,207.936,211.036z M204.006,219.54c0.13,0,0.236,0.106,0.236,0.236s-0.106,0.236-0.236,0.236s-0.236-0.106-0.236-0.236S203.876,219.54,204.006,219.54z M204.006,221.229c0.13,0,0.236,0.106,0.236,0.236s-0.106,0.236-0.236,0.236s-0.236-0.106-0.236-0.236S203.876,221.229,204.006,221.229z M212.04,219.54c0.13,0,0.236,0.106,0.236,0.236s-0.106,0.236-0.236,0.236s-0.236-0.106-0.236-0.236S211.91,219.54,212.04,219.54z M212.04,221.229c0.13,0,0.236,0.106,0.236,0.236s-0.106,0.236-0.236,0.236s-0.236-0.106-0.236-0.236S211.91,221.229,212.04,221.229z" />
    </g>
    <path fill="#000000" d="M194.665,252.987L194.665,252.987L194.665,252.987L194.665,252.987z M196.936,253.983c0.641,0.665,0.988,1.561,0.961,2.485c0.03,0.944-0.318,1.861-0.968,2.547c-1.228,1.299-3.276,1.356-4.575,0.128c-0.036-0.034-0.07-0.068-0.104-0.103c-0.63-0.659-0.946-1.511-0.946-2.557c-0.033-0.989,0.365-1.944,1.092-2.616c0.612-0.578,1.427-0.894,2.269-0.879C195.529,252.983,196.354,253.344,196.936,253.983z M196.76,256.601c0-1.152-0.227-2.011-0.68-2.577c-0.367-0.452-0.927-0.702-1.509-0.675v0c-0.562-0.019-1.1,0.23-1.45,0.67c-0.453,0.556-0.68,1.37-0.68,2.442c0,1.099,0.235,1.944,0.705,2.537c0.341,0.441,0.873,0.692,1.43,0.675c0.609,0.011,1.188-0.263,1.566-0.74C196.554,258.442,196.76,257.664,196.76,256.601z M204.6,252.82l0.253,0c0.215-0.016,0.426,0.064,0.576,0.218c0.093,0.106,0.139,0.369,0.139,0.789v2.725c0,0.715-0.064,1.222-0.191,1.522c-0.146,0.32-0.398,0.58-0.712,0.737c-0.363,0.196-0.769,0.295-1.181,0.288c-0.301,0.009-0.6-0.054-0.871-0.184c-0.218-0.106-0.405-0.267-0.543-0.467c-0.144-0.241-0.233-0.51-0.261-0.789c-0.045-0.297-0.069-0.598-0.072-0.899v-2.934c0-0.377,0.042-0.625,0.124-0.745c0.139-0.185,0.365-0.285,0.596-0.263h0.258v-0.184h-2.909v0.184h0.253c0.204-0.019,0.406,0.052,0.554,0.194c0.114,0.129,0.171,0.4,0.171,0.814v2.631c0,0.811,0.053,1.364,0.159,1.658c0.151,0.421,0.435,0.782,0.809,1.028c0.381,0.255,0.938,0.382,1.673,0.382c0.675,0,1.209-0.133,1.601-0.4c0.359-0.226,0.636-0.562,0.789-0.958c0.153-0.509,0.221-1.04,0.201-1.571v-2.73c0-0.374,0.035-0.612,0.104-0.715c0.128-0.214,0.362-0.341,0.611-0.333h0.253v-0.184H204.6V252.82z M215.118,258.69c0.183,0.145,0.409,0.224,0.643,0.226v0.184h-2.656v-0.184c0.19,0.008,0.379-0.038,0.543-0.134c0.089-0.065,0.141-0.168,0.142-0.278c-0.025-0.24-0.093-0.473-0.199-0.69l-0.407-0.968h-2.606l-0.457,1.062c-0.092,0.183-0.149,0.382-0.169,0.586c0.003,0.108,0.057,0.209,0.146,0.271c0.194,0.104,0.412,0.156,0.633,0.151v0.184h-2.12v-0.184c0.196-0.017,0.384-0.083,0.546-0.194c0.245-0.285,0.436-0.613,0.561-0.968l2.368-5.54h0.174l2.343,5.6C214.715,258.138,214.89,258.436,215.118,258.69z M213.045,256.479l-1.142-2.72l-1.172,2.72H213.045z M222.302,252.208h0.233c0.215-0.019,0.427,0.057,0.581,0.208c0.093,0.103,0.139,0.361,0.139,0.774v3.882l-4.115-5.049h-1.827v0.184c0.147-0.005,0.294,0.01,0.437,0.045c0.157,0.045,0.307,0.114,0.444,0.204c0.163,0.135,0.312,0.286,0.444,0.452v4.681c0,0.377-0.036,0.619-0.109,0.725c-0.146,0.185-0.376,0.282-0.611,0.258h-0.233v0.184h2.343v-0.184h-0.238c-0.215,0.018-0.427-0.058-0.581-0.208c-0.089-0.103-0.134-0.361-0.134-0.774v-4.145l4.438,5.421h0.179v-5.674c0-0.377,0.036-0.619,0.109-0.725c0.145-0.184,0.373-0.281,0.606-0.258h0.238v-0.184h-2.343V252.208z M232.704,258.478c0.183,0.145,0.409,0.224,0.643,0.226v0.184h-2.656v-0.184c0.19,0.008,0.379-0.038,0.543-0.134c0.089-0.065,0.141-0.168,0.142-0.278c-0.025-0.24-0.093-0.473-0.199-0.69l-0.407-0.968h-2.606l-0.457,1.062c-0.091,0.183-0.149,0.382-0.169,0.586c0.003,0.108,0.057,0.209,0.146,0.271c0.194,0.104,0.412,0.156,0.633,0.151v0.184h-2.12v-0.184c0.196-0.017,0.384-0.083,0.546-0.194c0.245-0.285,0.435-0.613,0.561-0.968l2.368-5.54h0.174l2.343,5.6C232.301,257.925,232.475,258.223,232.704,258.478z M230.631,256.266l-1.142-2.721l-1.172,2.721H230.631z M241.296,257.161c-0.122,0.331-0.297,0.64-0.516,0.916c-0.154,0.181-0.35,0.32-0.571,0.405c-0.354,0.094-0.721,0.132-1.087,0.114h-0.491c-0.259,0.015-0.519-0.002-0.774-0.05c-0.077-0.028-0.142-0.083-0.184-0.154c-0.066-0.181-0.093-0.374-0.079-0.566v-4.23c-0.019-0.256,0.008-0.513,0.079-0.76c0.066-0.118,0.17-0.211,0.295-0.263c0.241-0.084,0.497-0.118,0.752-0.099v-0.184h-3.048v0.184h0.253c0.215-0.016,0.426,0.064,0.576,0.218c0.093,0.106,0.139,0.369,0.139,0.789v4.344c0,0.384-0.035,0.629-0.104,0.735c-0.14,0.194-0.372,0.3-0.611,0.278h-0.253v0.184h5.213l0.576-1.827L241.296,257.161L241.296,257.161z M250.29,259.115c0.183,0.145,0.409,0.224,0.643,0.226v0.184h-2.656v-0.184c0.19,0.008,0.379-0.038,0.544-0.134c0.089-0.065,0.141-0.168,0.141-0.278c-0.025-0.24-0.092-0.473-0.199-0.69l-0.407-0.968h-2.606l-0.457,1.062c-0.091,0.183-0.149,0.382-0.169,0.586c0.003,0.108,0.057,0.209,0.146,0.271c0.194,0.104,0.412,0.156,0.633,0.151v0.184h-2.12v-0.184c0.196-0.017,0.384-0.083,0.546-0.194c0.245-0.285,0.436-0.613,0.561-0.968l2.368-5.54h0.174l2.343,5.6C249.887,258.563,250.061,258.861,250.29,259.115z M248.217,256.904l-1.142-2.721l-1.172,2.721H248.217z M259.448,256.467c0.03,0.944-0.318,1.861-0.968,2.547c-1.228,1.299-3.276,1.356-4.575,0.128c-0.036-0.034-0.07-0.068-0.104-0.103c-0.63-0.659-0.946-1.511-0.946-2.557c-0.033-0.989,0.365-1.944,1.092-2.616c0.612-0.578,1.427-0.894,2.269-0.879c0.864-0.004,1.689,0.357,2.271,0.995C259.128,254.648,259.474,255.544,259.448,256.467z M258.311,256.601c0-1.152-0.227-2.011-0.68-2.577c-0.367-0.452-0.927-0.702-1.509-0.675v0c-0.562-0.019-1.1,0.23-1.45,0.67c-0.453,0.556-0.68,1.37-0.68,2.442c0,1.099,0.235,1.944,0.705,2.537c0.341,0.441,0.873,0.692,1.43,0.675c0.609,0.011,1.188-0.263,1.566-0.74C258.105,258.442,258.311,257.664,258.311,256.601z M256.216,252.987L256.216,252.987L256.216,252.987L256.216,252.987z M320.77,38.411L320.77,38.411L320.77,38.411L320.77,38.411z M324.62,35.986c1.157-0.748,1.464-1.487,1.464-2.141c0-0.817-0.547-1.501-1.258-1.501c-0.558,0-1.055,0.343-1.885,1.392c-0.912,1.133-1.864,2.328-2.796,3.546l0.625,1.129C322.049,37.626,323.332,36.818,324.62,35.986z M165.671,61.696l1.882,0.29v1.633h-5.019l0,0h-2.931v-1.633l2.419-0.394l-1.33-5.26h-5.972l-1.325,5.158l2.405,0.457v1.672h-6.116v-1.672l2.26-0.433l5.733-21.626h2.253L165.671,61.696z M160.221,54.472l-2.493-9.857l-2.531,9.857H160.221z M84.906,61.735l-6.127,0c-0.046-3.014-0.047-6.076-0.047-9.303h3.564l0.335,3.069h1.417v-8.046h-1.417l-0.356,3.104h-3.544c0-2.922,0.003-5.82,0.047-8.661h5.578l0.571,4.335h1.921l-0.192-6.233H72.814v1.672L75.126,42c0.045,3.011,0.046,6.036,0.046,9.038v1.545c0,3.049,0,6.075-0.045,9.038l-2.312,0.327v1.672h14.392l0.192-6.233h-1.921L84.906,61.735z M144.208,49.822l-1.182-0.652c-1.814-0.971-2.809-2.118-2.809-4.178c0-2.304,1.439-3.641,3.289-3.641c0.725-0.008,1.437,0.197,2.047,0.589l0.551,4.12h2.091l0.195-4.811c-1.326-1.198-3.053-1.857-4.84-1.848c-3.831,0-6.496,2.545-6.496,6.73c0,3.788,1.893,5.879,4.916,7.552l1.104,0.612c2.016,1.08,2.906,2.021,2.906,4.113c0,2.346-1.388,3.86-3.664,3.86c-0.984,0.021-1.952-0.245-2.787-0.766l-0.546-4.299h-2.112l-0.165,5.141c1.425,1.15,3.591,1.874,5.651,1.874c4.237,0,6.835-2.773,6.835-6.974C149.194,53.768,147.773,51.755,144.208,49.822z M112.682,51.793c0,7.56-3.964,11.826-9.636,11.826h-7.614v-1.672l2.313-0.327c0.045-2.971,0.045-6.038,0.045-9.308v-1.275c0-3.002-0.001-6.027-0.046-9.038l-2.311-0.326v-1.672h8.133C109.106,40.001,112.682,44.32,112.682,51.793z M108.84,51.82c0-6.494-2.15-9.972-5.722-9.972h-1.721c-0.047,3.012-0.047,6.089-0.047,9.19v1.261c0,3.289,0,6.406,0.048,9.473h1.574C106.689,61.772,108.84,58.142,108.84,51.82z M68.495,61.708h-5.545c-0.046-2.992-0.046-5.954-0.046-8.492v-2.179c0-3.015,0.001-6.037,0.046-9.026l2.423-0.339v-1.672h-8.386v1.672L59.296,42c0.045,2.981,0.046,6.006,0.046,9.038v1.924c0,2.709,0,5.677-0.045,8.659l-2.312,0.327v1.672h6.001l7.943,0l0.275-6.837h-1.93L68.495,61.708z M126.239,61.735l-6.126,0c-0.046-3.014-0.047-6.076-0.047-9.303h3.564l0.336,3.069h1.417v-8.046h-1.417l-0.356,3.104h-3.543c0-2.922,0.002-5.82,0.046-8.661h5.578l0.571,4.335h1.921l-0.192-6.233h-13.843v1.672L116.458,42c0.045,3.011,0.046,6.036,0.046,9.038v1.545c0,3.049,0,6.075-0.045,9.038l-2.312,0.327v1.672h14.392l0.192-6.233h-1.921L126.239,61.735z M46.569,41.673L48.88,42c0.045,3.011,0.046,6.036,0.046,9.038v1.545c0,3.049,0,6.075-0.045,9.038l-2.313,0.327v1.672h2.275h6.011v-1.672l-2.321-0.324c-0.045-3.012-0.046-6.04-0.046-9.053v-1.532c0-3.05,0-6.076,0.045-9.04l2.323-0.325v-1.672h-8.286V41.673z M168.781,41.673L171.093,42c0.045,3.011,0.046,6.036,0.046,9.038v1.545c0,3.049,0,6.075-0.045,9.038l-2.312,0.327v1.672h2.275v0h6.01v-1.672l-2.321-0.324c-0.045-3.012-0.046-6.04-0.046-9.053v-1.532c0-3.05,0-6.076,0.045-9.04l2.323-0.325v-1.672h-8.285V41.673z M342.104,61.708h-5.545c-0.046-2.992-0.046-5.954-0.046-8.492v-2.179c0-3.015,0.001-6.037,0.046-9.026l2.422-0.339v-1.672h-8.386v1.672L332.906,42c0.045,2.981,0.046,6.006,0.046,9.038v1.924c0,2.709,0,5.677-0.045,8.659l-2.312,0.327v1.672h6.001l7.943,0l0.275-6.837h-1.93L342.104,61.708z M326.224,61.735l-6.127,0c-0.046-3.014-0.047-6.076-0.047-9.303h3.564l0.336,3.069h1.417v-8.046h-1.417l-0.356,3.104h-3.543c0-2.922,0.002-5.82,0.046-8.661h5.578l0.571,4.335h1.921l-0.192-6.233h-13.843v1.672L316.444,42c0.045,3.011,0.046,6.036,0.046,9.038v1.545c0,3.049,0,6.075-0.045,9.038l-2.313,0.327v1.672h14.392l0.192-6.233h-1.921L326.224,61.735z M309.641,52.583v-1.545c0-3.05,0-6.075,0.045-9.039l2.292-0.325v-1.672h-8.185v1.672l2.241,0.318c0.043,2.859,0.046,5.731,0.046,8.584h-7.431c0-2.897,0.002-5.77,0.045-8.587l2.242-0.316v-1.672h-8.185v1.672l2.291,0.33c0.045,3.009,0.046,6.034,0.046,9.035v1.545c0,3.048,0,6.072-0.045,9.034l-2.292,0.33v1.672h8.185v-1.672l-2.241-0.316c-0.044-2.933-0.045-5.932-0.045-9.195h7.431c0,3.306-0.001,6.305-0.045,9.193l-2.242,0.318v1.672h2.204l0,0h5.98v-1.672l-2.291-0.325C309.642,58.611,309.641,55.585,309.641,52.583z M275.411,40.001l-0.159,6.481h1.921l0.564-4.583h3.626c0.047,3.044,0.047,6.104,0.047,9.139v1.545c0,3.041,0,6.059-0.044,9.015l-2.588,0.349v1.672h8.835v-1.672l-2.596-0.347c-0.045-3.004-0.046-6.025-0.046-9.03v-1.532c0-3.084,0-6.144,0.046-9.139h3.638l0.564,4.583h1.911l-0.149-6.481H275.411z M358.516,61.735l-6.127,0c-0.046-3.014-0.047-6.076-0.047-9.303h3.564l0.335,3.069h1.417v-8.046h-1.417l-0.356,3.104h-3.543c0-2.922,0.002-5.82,0.046-8.661h5.578l0.571,4.335h1.921l-0.193-6.233h-13.843v1.672L348.735,42c0.045,3.011,0.046,6.036,0.046,9.038v1.545c0,3.049,0,6.075-0.045,9.038l-2.313,0.327v1.672h14.392l0.192-6.233h-1.921L358.516,61.735z M383.094,52.583v-1.545c0-3.033,0.001-6.059,0.046-9.041l2.261-0.324v-1.672h-6.145l-5.056,17.735l-5.347-17.735h-6.114v1.672l2.442,0.383v19.441l-2.563,0.45v1.672h6.417v-1.672l-2.262-0.447V51.486l-0.138-6.993l5.774,19.126h1.739l5.453-19.094l-0.033,8.436c-0.008,2.717-0.003,5.68-0.046,8.645l-2.173,0.341v1.672h2.136v0h5.966v-1.672l-2.312-0.326C383.094,58.627,383.094,55.602,383.094,52.583z M397.624,40.001v1.672l2.2,0.417l-3.563,9.863l-3.488-9.925l2.351-0.356v-1.672h-8.286v1.672l1.865,0.257l4.727,12.494c-0.001,2.893-0.006,5.082-0.04,7.173l-2.592,0.35v1.672h8.835v-1.672l-2.602-0.348c-0.036-2.257-0.04-4.582-0.04-7.737l4.419-11.735l2.209-0.454v-1.672H397.624z M190.357,41.673l3.015,0.46v13.962l-9.038-16.095h-5.179v1.685l1.92,0.268l0.328,0.584v18.979l-2.335,0.429v1.672h6.925v-1.672l-3.015-0.481V45.343l10.354,18.435h1.615l0-21.653l2.335-0.451v-1.672h-6.925V41.673z M198.93,40.001l-0.159,6.481h1.921l0.564-4.583h3.626c0.047,3.044,0.048,6.104,0.048,9.139v1.545c0,3.041,0,6.059-0.044,9.015l-2.588,0.349v1.672h8.835v-1.672l-2.596-0.347c-0.045-3.004-0.046-6.025-0.046-9.03v-1.532c0-3.084,0-6.144,0.047-9.139h3.638l0.564,4.583h1.911l-0.149-6.481H198.93z M214.71,56.005h6.721v-2.749h-6.721V56.005z M239.181,57.078c0,3.109-1.868,6.541-7.896,6.541h-7.677v-1.672l2.312-0.326c0.045-2.986,0.046-6.028,0.046-9.103v-1.401c0-3.028-0.001-6.08-0.046-9.116l-2.311-0.326v-1.672h8.404c4.217,0,6.182,2.395,6.182,5.669c0,2.482-1.15,4.663-4.456,5.491C237.604,51.814,239.181,54.061,239.181,57.078z M229.485,50.469h1.12c2.844,0,4.108-1.428,4.108-4.468c0-2.949-1.224-4.153-3.71-4.153h-1.471C229.488,44.676,229.485,47.56,229.485,50.469z M235.493,57.052c0-3.272-1.484-4.814-4.765-4.814v0h-1.243c0,3.344,0,6.465,0.048,9.535h1.314C233.893,61.772,235.493,60.12,235.493,57.052z M255.371,61.696l1.882,0.29v1.633h-5.019h-2.931v-1.633l2.419-0.394l-1.33-5.26h-5.972l-1.325,5.158l2.405,0.457v1.672h-6.116v-1.672l2.26-0.433l5.734-21.626h2.253L255.371,61.696z M249.921,54.472l-2.492-9.857l-2.531,9.857H249.921z M273.346,61.641l2.11,0.306v1.672c-0.799,0.303-1.648,0.451-2.502,0.434c-2.026,0-3.09-0.726-3.389-2.939l-0.814-4.954c-0.408-2.635-1.253-3.435-3.21-3.435h-1.182c0,3.057,0.002,5.993,0.045,8.889l2.352,0.332v1.672h-8.276v-1.672l2.313-0.327c0.045-2.963,0.045-5.989,0.045-9.038v-1.545c0-3.002-0.001-6.027-0.046-9.038l-2.311-0.326v-1.672h8.284c4.263,0,6.695,2.262,6.695,6.083c0,2.586-1.381,5.09-4.761,5.826c2.334,0.486,3.275,2.03,3.807,5.095l0,0L273.346,61.641z M269.943,46.28c0-2.925-1.216-4.432-3.76-4.432h-1.776c-0.046,2.931-0.047,5.861-0.047,9.081h1.613C268.817,50.928,269.943,48.863,269.943,46.28z" />
  </g>
</svg>
