<svg xmlns="http://www.w3.org/2000/svg" width="450px" height="300px" viewBox="0 0 450 300">
  <path fill="#C8102E" d="M0,0h450v300H0V0z" />
  <path fill="#012169" d="M0,0h225v112.5H0V0z" />
  <path fill="#FFFFFF" d="M225,37.5h-49.843L225,12.578V0h-25.157L131.25,34.297V0h-37.5v34.297L25.157,0H0v12.578L49.843,37.5H0V75h49.843L0,99.922V112.5l0,0h25.156L93.75,78.203V112.5h37.5V78.203l68.594,34.297H225V99.922L175.157,75H225V37.5z" />
  <path fill="#C8102E" d="M91.77,75l-75,37.5H0l0,0L75,75H91.77z M58.23,37.5H75L0,0v8.385L58.23,37.5z M123.75,112.5v-45H225V45H123.75V0h-22.5v45H0v22.5h101.25v45H123.75z M225,0h-16.77l-75,37.5H150L225,0z M166.77,75H150l75,37.5v-8.385L166.77,75z" />
  <g>
    <path fill="#FFFFFF" d="M389.412,85.499v95.282c0,25.451-50.878,33.72-50.878,33.72s-50.878-8.269-50.878-33.72V85.499H389.412z" />
    <path fill="#2F8F22" d="M389.412,180.78c0,25.451-50.878,33.72-50.878,33.72s-50.878-8.269-50.878-33.72c0,0,0-2.05,1.035-3.215c0,0-0.561,4.233,2.691,7.435c0,0-2.551-4.517-0.056-8.955c0,0-0.925,5.711,2.635,8.991c0,0-1.962-4.665,0.252-9.867c0,0-1.093,8.51,2.776,10.206c0,0,1.065-4.891-0.477-8.029c0,0,2.664,1.074,2.523,8.171c0,0,0.841-1.046,1.065-6.164c0,0,0.112,5.852,2.131,7.209c0,0,0.617-0.594-0.224-3.251c-0.841-2.658,0.365-3.591,0.561-3.534c0,0-0.442,2.94,2.022,5.146c0,0-1.068-4.608,0.418-5.23c0,0-0.308,3.902,2.776,4.778c0,0,0.224-1.131-0.449-2.403c0,0-0.589-1.509-0.14-2.663c0,0,0.981,3.539,2.327,4.133c0,0-0.813-2.074-0.056-4.133c0,0,0.168,2.946,2.803,4.161c0,0-1.736-2.28-1.05-4.788l16.947,0.829l8.775,0.418l26.326-1.86l4.542-3.902c0,0,1.794,2.488-1.037,6.418c0,0,2.803-0.509,3.701-4.891c0,0,1.149,2.431-0.421,5.117c0,0,3.112-3.11,3.56-6.644c0,0,1.206,3.421-1.738,7.096c0,0,2.635-0.877,3.757-4.778c0,0,0.897,2.35-1.654,5.67c0,0,4.766-2.532,4.626-7.762c0,0,1.99,2.884-0.28,6.842c0,0,2.439-2.177,2.664-5.428c0,0,1.346,1.47-0.112,5.513c0,0,2.972-2.799,3.42-5.824c0,0,0.645,2.799-1.907,6.333c0,0,1.738-0.424,3.393-3.873c0,0,0.449,1.357-1.065,3.845c0,0,1.626-0.283,2.719-3.393c0,0,0.196,1.866-0.28,3.534c0,0,1.262-0.82,1.542-4.354c0,0,0.705,1.159,0.717,2.601C389.425,181.727,389.413,180.78,389.412,180.78L389.412,180.78z" />
    <path fill="#C8102E" stroke="#000000" stroke-width="0.3739" stroke-linejoin="round" d="M363.213,125.7c0,0-1.768,0.301-4.039-0.391c-2.271-0.692-3.189-0.411-3.893,0c0,0,0.922-1.825-1.321-3.266c0,0,0.729,1.842-0.28,2.703c0,0-0.449,0.422-0.981-0.214c0,0-0.785-0.806-1.612-1.428c0,0,1.907-0.664,1.556-2.601c-0.351-1.937-1.388-2.191-1.948-2.431c0,0,0.196,0.877,0,1.47c0,0-2.074-1.159,0.743-2.799c2.817-1.64,2.299-2.601,1.794-3.435c-0.504-0.834-1.584-1.753-2.117-2.078c0,0,0.561,0.877,0.463,1.626s-1.374,1.23-1.121-0.085c0.252-1.315-0.014-1.089-0.042-2.488c0,0,2.509,0.848,3.491-1.598c0,0,0.967-2.53-2.201-3.789c0,0,0.771,1.032,0.392,1.809c0,0-0.673,1.272-1.472,0.24c-0.799-1.032-1.304-1.23-1.22-2.446c0,0,2.874,0.396,2.089-2.728c0,0-0.463,2.078-4.191-0.721c0,0,2.425-2.488,1.486-4.496c0,0-0.294-0.919-2.93-0.382c0,0,2.285-1.442,1.318-2.672c0,0-0.491-0.82-2.621,0.254c0,0,0.827-1.428-1.262-2.969c0,0-1.402,0.735-2.145,1.413c0,0-1.43-1.809-2.341-2.53c0,0-1.654,0.636-2.074,2.53c0,0-0.771-0.919-2.523-1.343c0,0-0.841,1.555,0.252,2.912c0,0-0.813-0.028-2.299-0.679c0,0-1.696-0.806-1.444,0.65c0.252,1.456,0.378,1.781,0.715,2.46c0,0-3.806-0.884-3.645,1.173c0.112,1.428,0.645,2.658,1.822,3.69c0,0-2.131,2.785-3.953,0.693c0,0-0.631,0.679,0.729,2.46c0,0,1.36,1.499,0.239,2.446c0,0-1.5,1.201-2.229-1.131c0,0-2.425,2.417,0.435,4.269c0,0,1.836,1.046,3.715-0.566c0,0-0.575,4.637-2.369,3.746c0,0-1.08-0.792,0.855-1.739c0,0-2.79-0.353-3.238,2.347c0,0-0.344,2.148,2.088,2.926c0,0,1.878,0.679-0.07,2.135c0,0-1.374,1.046-0.477,2.601c0,0,1.08,1.71-1.654,1.88c0,0-1.486-0.014-2.019-0.212c0,0-0.599,1.115-0.18,2.388c0,0-1.361-1.014-4.46,0.108c-3.098,1.123-2.86,0.331-3.112,0.671c-0.252,0.339-0.855,1.484-0.855,1.484s1.626,1.979,1.654,1.937c0.028-0.042-0.308,2.262-0.308,2.262l0.799,0.382l6.378-2.841l6.476-3.375l5.207,0.319l3.302,0.786l4.338,0.316l3.106-1.657h4.5l4.949,2.466l5.648,3.37l2.944,0.516l2.268-0.121v-4.575L363.213,125.7z" />
    <path fill="#C8102E" stroke="#000000" stroke-width="0.3739" stroke-linejoin="round" d="M311.838,131.049c0,0,2.467,1.258,3.497-0.269c0,0,1.346-2.566-1.609-3.456c0,0,1.609-1.93-0.116-3.711c0,0-0.904-0.954-2.481-0.254c0,0-0.652-1.357-2.187-1.315c0,0-1.345-0.021-1.808,1.463c0,0-1.85-0.763-2.881,0.339c0,0-1.703,1.908,0.673,3.414l1.71,0.156l1.682-0.778l1.878,0.537C310.198,127.175,309.715,129.077,311.838,131.049L311.838,131.049z M364.809,131.049c0,0-2.467,1.258-3.497-0.269c0,0-1.345-2.566,1.609-3.456c0,0-1.609-1.93,0.116-3.711c0,0,0.904-0.954,2.481-0.254c0,0,0.652-1.357,2.187-1.315c0,0,1.345-0.021,1.808,1.463c0,0,1.85-0.763,2.88,0.339c0,0,1.703,1.908-0.673,3.414l-1.71,0.156l-1.682-0.778l-1.878,0.537C366.449,127.175,366.933,129.077,364.809,131.049L364.809,131.049z" />
    <path fill="#C8102E" stroke="#000000" stroke-width="0.3739" stroke-linejoin="round" d="M321.918,182.731c0,0-2.145,0.127-3.238,0.679c-1.093,0.551-1.935,1.145-3.196,1.951c0,0-0.589,0.784-3.07,0.307c0,0-4.289-1.028-4.289,2.322c0,0-5.13,0.424-3.028,4.919c0,0,1.43,3.52,4.374,1.018c0,0-1.892,2.714,1.766,3.775c0,0,2.607,0.636,3.364-2.036c0,0,0.421-1.06-0.589-2.375c0,0,1.262-0.254,2.145-1.611c0,0-2.691,3.402,0.252,4.627c0,0,3.699,0.928,3.91-2.931c0,0-0.302-1.781,1.132-2.417c0,0,2.948-0.679,4.293-3.965C325.746,186.993,321.507,184.736,321.918,182.731L321.918,182.731z M354.814,182.731c0,0,2.145,0.127,3.238,0.679c1.094,0.551,1.935,1.145,3.196,1.951c0,0,0.589,0.784,3.07,0.307c0,0,4.289-1.028,4.289,2.322c0,0,5.13,0.424,3.028,4.919c0,0-1.43,3.52-4.374,1.018c0,0,1.892,2.714-1.766,3.775c0,0-2.607,0.636-3.364-2.036c0,0-0.421-1.06,0.589-2.375c0,0-1.262-0.254-2.145-1.611c0,0,2.691,3.402-0.252,4.627c0,0-3.699,0.928-3.91-2.931c0,0,0.302-1.781-1.132-2.417c0,0-2.948-0.679-4.293-3.965C350.987,186.993,355.226,184.736,354.814,182.731L354.814,182.731z M313.257,148.906c0,0-3.308-1.524-4.878,0c0,0-2.187-1.354-4.486,0c0,0-2.187,1.429-3.701,3.003c0,0-1.065,0.912-0.673,3.788c0,0,0.561,2.027,0.224,3.045c0,0-0.729-0.144-2.187,1.583c0,0-1.85,2.143-3.476,0.252c0,0,0.504,2.633,3.56,2.208c0,0-1.486,1.159-0.196,4.156c0,0,0.953,2.12-0.561,4.778c0,0,2.664-1.074,2.551-4.212c0,0-0.224-2.12,0.561-3.619c0,0-0.785,1.363,1.037,4.269c0,0,1.402,2.092,0.252,4.269c0,0,2.635-0.961,2.383-4.156c-0.252-3.195-1.85-1.866-0.813-4.806c0,0,0.252,1.506,1.037,2.266c0.785,0.76,1.794,2.032,1.374,4.152c0,0,1.57-1.951,1.206-3.958c-0.365-2.007-0.757-2.615-0.757-2.615l4.962-2.814l2.467-4.467L313.257,148.906z M363.547,148.906c0,0,3.308-1.524,4.878,0c0,0,2.187-1.354,4.486,0c0,0,2.187,1.429,3.701,3.003c0,0,1.065,0.912,0.673,3.788c0,0-0.561,2.027-0.224,3.045c0,0,0.729-0.144,2.187,1.583c0,0,1.85,2.143,3.476,0.252c0,0-0.504,2.633-3.56,2.208c0,0,1.486,1.159,0.196,4.156c0,0-0.953,2.12,0.561,4.778c0,0-2.664-1.074-2.551-4.212c0,0,0.224-2.12-0.561-3.619c0,0,0.785,1.363-1.037,4.269c0,0-1.402,2.092-0.252,4.269c0,0-2.635-0.961-2.383-4.156c0.252-3.195,1.85-1.866,0.813-4.806c0,0-0.252,1.506-1.037,2.266c-0.785,0.76-1.794,2.032-1.374,4.152c0,0-1.57-1.951-1.206-3.958c0.365-2.007,0.757-2.615,0.757-2.615l-4.962-2.814l-2.467-4.467L363.547,148.906z" />
    <path fill="#64B4D1" stroke="#000000" stroke-width="0.2803" d="M366.912,126.537c2.972-0.28,4.022,2.228,4.022,2.228c1.558,3.655-1.751,5.606-1.751,5.606c0.252,0.82,0.28,1.894,0.28,1.894c4.654,0.566,3.84,5.796,3.84,5.796l-1.541-1.272c-2.691-1.046-5.467,1.244-7.457,5.089c-1.99,3.845-1.037,5.655-0.701,10.206c0.337,4.552,7.738,7.266,7.738,7.266s-3.505,9.019-5.775,14.815s-7.009,3.393-8.383,2.172c-1.374-1.221-1.717-0.543-2.411,0c-0.694,0.543,3.112,3.511-3.813,6.31c-6.925,2.799-8.131,4.948-9.28,5.655c-1.149,0.707-5.944,0.226-6.42-0.368c-0.477-0.594-0.196-0.594-1.99-1.697c-1.794-1.102-4.822-2.064-8.131-3.676c-3.308-1.611-3.224-3.676-3.196-4.099c0.028-0.424,1.149-3.873-2.725-1.131c-3.875,2.742-7.172-1.306-7.172-1.306c-0.757-0.995-3.981-9.635-3.981-9.635c-0.869-3.223-2.579-6.984-2.579-6.984c0.084-0.028-0.168,0.396,2.691-1.244c2.86-1.64,4.14-4.368,5.13-7.068c0.99-2.7,0.028-7.322-0.337-8.256c-0.365-0.933-2.495-5.211-5.134-6.107c-2.638-0.896-4.408,1.329-4.408,1.329s-0.814-5.23,3.84-5.796c0,0,0.028-1.074,0.28-1.894c0,0-3.308-1.951-1.751-5.606c0,0,1.049-2.508,4.022-2.228l-0.719,1.36c0,0-0.748,7.464,10.177,2.46c10.926-5.004,10.597-5.937,16.821-2.799l4.542-0.085c0,0,6.561-3.035,8.663-1.729c2.103,1.305,9.672,5.546,9.672,5.546s7.317,2.744,8.747-2.318L366.912,126.537z" />
    <path fill="#FFFFFF" stroke="#012169" stroke-width="0.3738" stroke-miterlimit="10" d="M334.04,158.897c0,0-0.38-2.291-0.779-3.775c0,0-0.811-2.328,0.572-3.963l1.715-1.974c0,0,1.066-1.434,2.386-1.629c0,0,1.32-0.039,1.446-0.308c0.126-0.269,1.57-2.645,5.004,0c0,0,1.094-1.753,2.776-2.05c0,0,1.817-0.551,2.696,0.806c0,0,2.042-1.548,3.794,0.944c0,0,2.425-1.364,4.191,1.348c0,0,2.397-1.169,3.869,1.323c1.472,2.492,1.178,3.51,1.178,3.51l1.093,3.958l3.87,4.778l-9,3.393h-4.037l-8.074,2.163l-14.34,1.102l-3.995-4.707L334.04,158.897z" />
    <path fill="#784421" stroke="#000000" stroke-width="0.2803" d="M342.184,160.892l-8.198-28.311l-0.3,0.081l7.244,28.654L342.184,160.892z" />
    <path fill="#F5CE00" stroke="#000000" stroke-width="0.3738" stroke-miterlimit="2.613" d="M331.495,124.44c0,0,2.208,0.677,3.406,1.165c0,0,3.196,1.442,7.254,0c0,0,2.745-1.087,3.11-1.165l-2.102,3.201l-0.105,1.654l1.315,1.93c0,0-0.789,0.318-3.144-1.124c0,0-2.607-2.014-5.72,0c0,0-1.703,1.154-3.133,1.124l2.019-2.254l-0.778-2.03L331.495,124.44z" />
    <path fill="#E4CB5E" stroke="#000000" stroke-width="0.2803" stroke-miterlimit="2.613" d="M311.706,143.63c0,0,0-4.41,0-5.301c0-0.416,0.003-0.763,0.634-1.272c0.63-0.509,1.304-1.315,2.271,0.976c0,0,1.892-1.993,2.523-2.29c0,0,1.093-0.933,1.85,0.424c0,0,1.009-1.527,1.808-1.908c0,0,1.892-1.23,1.976,2.46l1.472-1.357c0,0,1.135-0.933,2.397,0.339c0,0,2.145,2.078,2.439,2.672c0,0,0.473,0.643,0.51,1.657c0,0-0.005,1.142,0.583,1.777c0,0,0.672,0.594,1.324,0.721c0,0,1.535,0.042,2.082,1.484c0,0,0.252-0.25,1.009,6.66v12.593L326.09,173.4l-13.626-3.902l-5.425-2.248l-1.219-3.987l5.257-3.393l2.86-7.718l-0.925-5.428L311.706,143.63z" />
    <path fill="#784421" stroke="#000000" stroke-width="0.2803" d="M349.249,150.316l0.645-0.961l1.542-1.188c0,0,2.355,6.18,2.467,7.529v1.918c0,0,3.533,0.901,4.149,6.33l-2.916,5.372l-4.57-2.545l-1.318-0.961L349.249,150.316L349.249,150.316z" />
    <path fill="none" stroke="#000000" stroke-width="0.2804" stroke-miterlimit="10" d="M321.077,142.591l3.5,28.251 M321.886,142.53l3.925,26.334 M322.622,142.408l4.521,26.117 M331.026,165.852l-8.199-28.311l-0.3,0.081l7.245,28.655L331.026,165.852z M325.13,141.37l8.279,20.92 M324.577,141.709l7.99,21.853" />
    <path fill="#784421" stroke="#000000" stroke-width="0.1712" d="M349.894,149.355l-15.713,4.961l-0.857,6.999c-3.729,5.401-11.306,6.36-11.306,6.36l5.895,6.277l11.327,2.375l5.944-4.58l5.383-4.976c-0.561-2.658-0.252-6.602-0.252-6.602c0-0.664,0.252-2.219,0.252-2.219S349.641,151.561,349.894,149.355L349.894,149.355z" />
    <path fill="none" stroke="#000000" stroke-width="0.2803" stroke-miterlimit="10" d="M325.503,141.086l8.127,18.168 M323.169,142.272l5.236,25.7 M333.54,159.557c0,0,10.349-3.231,16.52-5.826 M328.572,165.456c0,0,12.911-2.332,21.994-7.506l3.336-2.254 M353.903,157.614l-3.589,2.555c0,0-14.439,6.658-25.432,6.836 M350.311,164.901c0,0-11.099,5.715-17.464,5.801" />
    <path fill="#FFFFFF" stroke="#012169" stroke-width="0.3738" stroke-miterlimit="10" d="M307.336,166.785c0,0,0.463-2.191,2.565-1.329c0,0,0.715-3.591,4.542-3.717c3.827-0.127,4.037,3.732,4.037,3.987c0,0,1.124-1.657,3.001-1.465c0,0,3.236-0.191,2.031,5.005l0.612,0.652c0,0,2.472-5.804,7.561-4.277c0,0,4.962,1.512,1.724,6.319c0,0,2.449,3.181,4.526,2.884c2.077-0.297,3.927-0.933,5.988-4.58c2.061-3.647,6.855-4.198,8.074-3.987c1.22,0.212,2.183,1.004,2.382,1.866c0,0,2.538-8.472,11.664-7.141l3.659,1.84l1.388,0.636l-2.069,5.838l-5.04,11.391l-3.826,1.176l-3.995-2.29l-1.388,0.744l-0.113,3.412l-5.27,3.793l-3.659,1.508l-4.037,2.757l-0.939,2.464c0,0-2.23-0.939-4.746,0l-0.833-2.04l-2.355-2.248l-9.148-4.316l-1.653-5.331l-1.67-0.744l-1.869,2.141l-2.733,0.319l-4.079-2.757L307.336,166.785z" />
    <path fill="#F5CE00" stroke="#000000" stroke-width="0.3738" stroke-miterlimit="2.613" d="M331.494,129.055c0,0,0.062,0.509,0.567,0.566c0,0,0.526,0.17,0.833-0.486c0,0,0.036-0.148,0.044-0.221c0.035-0.306,0.14-1.188-0.813-1.908c0,0-1.556-1.272-4.528,0.269c0,0-2.355,1.131-3.981,2.092c0,0-4.205,2.262-4.71,2.431c0,0-1.85,0.933-4.682,1.046c0,0-3.869,0.283-5.509-2.431c0,0-1.247-2.064,0-3.379c0,0,0.504-0.594,1.334-0.484c0.348,0.046,0.733,0.206,1.105,0.64c0,0,0.603,0.877-0.098,1.527c0,0-0.911,0.558-1.233-0.622c0,0-0.014-0.085-0.042,0.021c-0.018,0.068-0.224,0.968,0.259,1.732c0,0,2.334,3.532,8.754-0.128l8.467-4.749c0,0,4.248-2.177,6.785,1.23c0,0,2.047,2.827-0.589,4.679c0,0-1.962,1.173-3.196-0.693c0,0-1.023-1.838,0.589-2.643c0,0,1.416-0.664,1.976,0.749c0.561,1.413-1.094,1.781-1.247,0.778C331.578,129.07,331.536,128.829,331.494,129.055L331.494,129.055z M345.268,129.056c0,0-0.062,0.509-0.567,0.566c0,0-0.527,0.17-0.833-0.486c0,0-0.036-0.148-0.044-0.221c-0.035-0.306-0.14-1.188,0.813-1.908c0,0,1.556-1.272,4.528,0.269c0,0,2.355,1.131,3.981,2.092c0,0,4.205,2.262,4.71,2.431c0,0,1.85,0.933,4.682,1.046c0,0,3.869,0.283,5.509-2.431c0,0,1.247-2.064,0-3.379c0,0-0.504-0.594-1.334-0.484c-0.348,0.046-0.733,0.206-1.105,0.64c0,0-0.603,0.877,0.098,1.527c0,0,0.911,0.558,1.233-0.622c0,0,0.014-0.085,0.042,0.021c0.018,0.068,0.224,0.968-0.259,1.732c0,0-2.334,3.532-8.754-0.128l-8.467-4.749c0,0-4.248-2.177-6.785,1.23c0,0-2.047,2.827,0.589,4.679c0,0,1.962,1.173,3.196-0.693c0,0,1.023-1.838-0.589-2.643c0,0-1.416-0.664-1.976,0.749c-0.561,1.413,1.094,1.781,1.247,0.778C345.184,129.07,345.226,128.829,345.268,129.056L345.268,129.056z M365.997,161.316c-3.74-2.122-4.559-6.829-4.559-6.829c-0.904-4.686,0.925-8.397,0.925-8.397c2.418-5.11,6.562-6.061,6.562-6.061s-4.059,2.817-5.195,6.612c0,0-0.883,3.202-0.378,6.361c0.504,3.159,0.315,2.354,1.094,4.792L365.997,161.316z M310.765,161.316c3.74-2.122,4.559-6.829,4.559-6.829c0.904-4.686-0.925-8.397-0.925-8.397c-2.418-5.11-6.562-6.061-6.562-6.061s4.059,2.817,5.195,6.612c0,0,0.883,3.202,0.378,6.361c-0.504,3.159-0.315,2.354-1.094,4.792L310.765,161.316z" />
    <path fill="#F5CE00" stroke="#000000" stroke-width="0.3738" stroke-miterlimit="2.613" d="M370.143,163.753c-6.077-1.866-7.738-8.397-7.738-8.397c-1.241-4.898,0.757-9.181,0.757-9.181c2.776-6.518,7.472-6.517,7.472-6.517c2.355-0.063,2.637,1.951,2.637,1.951c0.222,1.428-0.78,1.944-0.78,1.944c-1.612,0.877-2.628-0.311-2.628-0.311c-0.673-0.877-0.154-1.654-0.154-1.654c0.414-0.58,1.206-0.325,1.206-0.325c0.627,0.194,0.561,0.979,0.561,0.979c0.004,0.021,0.018,0.021,0.018,0.021c0.028-0.007,0.018-0.018,0.018-0.018s0.14-0.961-0.799-1.06c0,0-1.829-0.396-3.974,2.276c0,0-2.824,3.605-2.817,8.27c0,0-0.357,8.757,8.768,11.026c0,0-0.988,1.421-2.733,6.552c0,0-1.976,6.595-3.863,10.16c0,0-2.508,5.086-8.101,3.008c0,0-3.33-1.463-3.322-3.88c0,0-0.231-2.205,1.766-2.375c0,0,1.956-0.148,1.935,1.527c0,0,0.053,1.813-2.082,1.399c0,0-0.747-0.159-0.61-0.891c0,0,0.119-0.657,1.02-0.371c0,0,0.028,0.004,0.031-0.011c0,0,0.01-0.016-0.021-0.025c0,0-0.348-0.156-0.716-0.027c0,0-0.33,0.11-0.356,0.624c0,0-0.021,0.414,0.421,0.647c0,0,0.536,0.191,0.957,0.148c0,0,0.566,1.142,1.845,1.529c1.782,0.539,3.249,0.02,4.147-0.697c0.977-0.779,1.609-2.142,1.798-2.475s1.829-4.008,3.063-7.959c0,0,1.08-3.407,1.941-5.188L370.143,163.753z M306.619,163.753c6.077-1.866,7.738-8.397,7.738-8.397c1.241-4.898-0.757-9.181-0.757-9.181c-2.776-6.518-7.472-6.517-7.472-6.517c-2.355-0.063-2.637,1.951-2.637,1.951c-0.222,1.428,0.78,1.944,0.78,1.944c1.612,0.877,2.628-0.311,2.628-0.311c0.673-0.877,0.154-1.654,0.154-1.654c-0.414-0.58-1.206-0.325-1.206-0.325c-0.627,0.194-0.561,0.979-0.561,0.979c-0.004,0.021-0.018,0.021-0.018,0.021c-0.028-0.007-0.018-0.018-0.018-0.018s-0.14-0.961,0.799-1.06c0,0,1.829-0.396,3.974,2.276c0,0,2.824,3.605,2.817,8.27c0,0,0.357,8.757-8.768,11.026c0,0,0.988,1.421,2.733,6.552c0,0,1.976,6.595,3.863,10.16c0,0,2.508,5.086,8.101,3.008c0,0,3.33-1.463,3.322-3.88c0,0,0.231-2.205-1.766-2.375c0,0-1.956-0.148-1.935,1.527c0,0-0.053,1.813,2.082,1.399c0,0,0.747-0.159,0.61-0.891c0,0-0.119-0.657-1.02-0.371c0,0-0.028,0.004-0.032-0.011c0,0-0.01-0.016,0.021-0.025c0,0,0.348-0.156,0.716-0.027c0,0,0.33,0.11,0.356,0.624c0,0,0.021,0.414-0.421,0.647c0,0-0.536,0.191-0.957,0.148c0,0-0.566,1.142-1.845,1.529c-1.782,0.539-3.249,0.02-4.147-0.697c-0.977-0.779-1.609-2.142-1.798-2.475s-1.829-4.008-3.063-7.959c0,0-1.08-3.407-1.941-5.188L306.619,163.753z" />
    <path fill="#F5CE00" stroke="#000000" stroke-width="0.3738" stroke-miterlimit="2.613" d="M352.995,180.356c0,0,1.135-0.154,1.135,0.859c0,0-0.069,1.479-1.872,1.156c0,0-1.777-0.389-1.146-2.375c0,0,0.421-1.4,2.103-1.198c0,0,1.629,0.074,2.345,2.301c0,0,0.547,1.877-0.389,3.488c-1.044,1.798-3.687,2.979-4.962,3.502c0,0-5.11,2.007-6.634,3.156c0,0-2.337,1.735-1.304,3.35c0,0,0.4,0.615,0.999,0.615c0,0,0.684,0.032,0.799-0.668c0,0,0.004-0.014-0.007-0.032c0,0-0.01,0-0.014,0.018c0,0-0.049,0.428-0.421,0.587c0,0-0.498,0.251-1.02-0.191c0,0-0.553-0.53-0.091-1.354c0,0,0.606-1.014,2.019-0.414c0,0,1.244,0.615,0.733,1.937c0,0-0.455,1.216-1.956,1.213c0,0-1.129-0.037-1.852-0.795c-1.127-1.182-1.188-3.483-0.195-4.674c0,0,0.939-1.265,2.825-2.036c1.092-0.446,3.154-1.343,5.299-2.184c1.508-0.591,2.888-1.299,3.785-2.361c0,0,0.799-0.891,1.03-2.417c0,0,0.221-1.145-0.477-1.396c0,0-0.354-0.159-0.743-0.106c0,0-0.01,0-0.013,0.007C352.972,180.346,352.956,180.363,352.995,180.356z M323.766,180.356c0,0-1.135-0.154-1.135,0.859c0,0,0.069,1.479,1.872,1.156c0,0,1.777-0.389,1.146-2.375c0,0-0.421-1.4-2.103-1.198c0,0-1.629,0.074-2.345,2.301c0,0-0.547,1.877,0.389,3.488c1.044,1.798,3.687,2.979,4.962,3.502c0,0,5.11,2.007,6.634,3.156c0,0,2.337,1.735,1.304,3.35c0,0-0.4,0.615-0.999,0.615c0,0-0.684,0.032-0.799-0.668c0,0-0.004-0.014,0.007-0.032c0,0,0.01,0,0.014,0.018c0,0,0.049,0.428,0.421,0.587c0,0,0.498,0.251,1.02-0.191c0,0,0.553-0.53,0.091-1.354c0,0-0.606-1.014-2.019-0.414c0,0-1.244,0.615-0.733,1.937c0,0,0.455,1.216,1.956,1.213c0,0,1.129-0.037,1.852-0.795c1.127-1.182,1.188-3.483,0.195-4.674c0,0-0.939-1.265-2.825-2.036c-1.092-0.446-3.154-1.343-5.299-2.184c-1.508-0.591-2.888-1.299-3.785-2.361c0,0-0.799-0.891-1.03-2.417c0,0-0.221-1.145,0.477-1.396c0,0,0.354-0.159,0.743-0.106c0,0,0.01,0,0.013,0.007C323.79,180.345,323.806,180.363,323.766,180.356z" />
    <path fill="none" stroke="#000000" stroke-width="0.3738" stroke-miterlimit="2.613" d="M347.175,125.309c0,0-3.492-0.155-3.365,3.464 M353.09,180.349c0,0,1.255-0.226,2.039,1.265c0,0,0.463,0.961,0.537,1.517 M356.076,177.799c0,0-1.256,0.218-0.609,1.995c0.61,1.675,1.742,2.225,2.079,2.458 M329.587,125.309c0,0,3.492-0.155,3.365,3.464" />
    <path fill="#784421" stroke="#000000" stroke-width="0.1712" d="M331.916,138.159l6.019-2.29l0.142,0.403l-6.02,2.286L331.916,138.159z" />
    <path fill="none" stroke="#000000" stroke-width="0.2804" d="M319.531,149.016c0,0,1.142,1.23,1.013,3.308 M315.746,147.701c0,0,1.262,0.608,1.179,3.958c0,0-0.127,2.446,1.765,3.676 M315.575,156.197c0,0,3.949-0.431,4.166,2c0,0,0.084,2.332,1.43,2.587c0,0,2.016,0.191,2.415,2.057 M316.818,158.897c0,0,0.694,1.039,1.367,1.484 M321.886,156.331c0,0,1.003,1.52,1.192,2.41 M326.232,138.032c0,0,0.925,1.258,1.823,1.852 M329.932,145.482c0,0,1.962,0.961,1.626,5.909c0,0-0.252,2.902,0.561,4.485 M320.688,142.125l0.126,0.467c0,0,3.519,0.148,5.418-2.248l-0.203-0.459C326.028,139.884,322.958,139.728,320.688,142.125L320.688,142.125z M333.363,161.001c0,0,12.169-3.628,16.859-5.743 M332.568,138.364l3.995,19.586 M333.261,138.101l4.576,19.496 M334.04,137.805l5.004,19.353 M336.001,137.06l6.822,14.527 M336.904,136.717l7.275,14.442 M337.572,136.464l7.87,14.297 M336.293,158.105l3.088-1.017 M333.955,156.168c0,0,9.051-2.644,15.902-5.407 M333.833,157.159c0,0,11.471-3.035,16.023-5.25 M337.334,166.488l0.601,1.838l1.642-0.526l-0.561-1.821 M341.967,165.168l0.601,1.837l1.642-0.525l-0.561-1.821 M334.181,154.316l-0.142-2.486l15.041-4.567l0.813,2.092 M340.418,149.893l0.819,2.195 M345.677,148.297l0.958,2.088 M346.923,147.918l0.896,1.975 M348.114,147.557l0.942,2.063 M349.081,147.263l1.654-0.933l0.701,1.837 M349.894,146.805l0.842,1.902 M318.059,147.15c0,0,0.421-1.697-1.514-4.665c0,0-1.262-2.714-1.935-4.453 M318.984,136.166c0,0,1.095,2.668,1.472,3.863c0,0,1.359,3.347,1.647,4.025" />
    <path fill="none" stroke="#000000" stroke-width="0.3738" stroke-miterlimit="11" d="M323.672,180.349c0,0-1.255-0.226-2.039,1.265c0,0-0.463,0.961-0.537,1.517 M320.686,177.799c0,0,1.256,0.218,0.609,1.995c-0.61,1.675-1.742,2.225-2.079,2.458 M335.343,128.569c0,0,3.038-1.902,6.14,0.204 M312.592,175.437c0,0-2.944-2.981,0-5.901c0,0-3.196-1.563-2.691-4.079 M317.849,177.799c0,0-3.049,0.415-2.145-5.521c0,0-1.262,2.354-1.697,3.563c-0.325,0.905-0.11,2.367,1.18,3.157c0.516,0.316,3.249,1.028,4.132-0.783 M314.442,168.715c0,0-1.241,1.145-0.357,3.244 M315.725,168.99c0,0,0.147,2.036,1.156,3.181 M316.597,168.185c0,0-0.009,2.396,1.714,3.88 M317.454,167.358c0,0,0.016,2.693,2.014,4.347 M327.374,171.302c0,0,1.009-2.205,3.133-2.099c0,0-1.03,0.467-1.009,1.499c0,0-0.126,1.703,1.703,1.873c0,0,1.472,0.191,2.208-0.615 M332.4,181.374c0,0-5.236-2.46-4.689-6.001c0,0,0.21-2.163,2.325-3.181 M328.93,174.44c0,0-0.463,1.527,0.568,2.587 M330.107,173.401c0,0-0.631,1.675,0.421,2.926 M331.368,172.588c0,0-0.756,1.386,0.148,2.637 M326.596,181.734c0,0,2.86,2.481,5.089,2.502 M325.692,182.519c0,0,2.673,2.163,4.343,2.481 M324.683,183.131c0,0,3.303,2.907,5.352,3.119 M338.119,188.923c0,0-3.247,1.75-0.73,3.6 M336.058,186.993c0,0,3.68-1.93,5.278-2.65 M337.383,187.99c0,0,5.32-3.244,6.897-3.944 M340.116,188.202c0,0,4.542-3.032,6.981-4.347 M343.123,188.096c0,0,3.133-2.46,6.161-4.241 M350.357,180.78c0,0-1.535-2.248-6.581,0c0,0,1.85-1.679,5.509-2.981 M354.379,168.142c0,0,0.414,1.823-0.028,2.926 M346.193,176.985c0,0,1.051-1.548,3.722-2.311c0,0,0.72,1.802,2.797,1.399c0,0,3.133-0.615,2.187-4.05c0,0-0.652-2.566-4.23-2.82 M361.312,164.901c0,0,3.638,0.655,3.575,3.623c0,0,0.294,4.453-4.395,5.322 M364.37,166.729c0,0,0.999-2.17,3.228-3.061 M364.89,162.396c0,0,0.994,1.593,1.673,1.825 M364.37,163.668c0,0,0.936,1.144,1.252,1.336 M364.066,164.771c0,0,0.493,0.729,0.93,0.958 M345.352,147.557c0,0,0.708-1.149,2.467-0.661 M355.004,156.168c0,0,1.115-4.649,5.004-2.932 M358.431,152.855c0,0,0.4-2.143-0.568-3.235 M355.781,152.705c0,0,0.495,0.887,0.072,1.611" />
    <path fill="#64B4D1" stroke="#012169" stroke-width="0.2803" stroke-miterlimit="2.613" d="M306.821,197.15c0,0-3.07-1.93-1.409-5.174c0,0,0.484-0.933,1.409-0.742c0,0,1.913,0.594,0.421,3.245C307.242,194.478,306.485,196.196,306.821,197.15L306.821,197.15z M313.045,200.204c0,0-4.374-1.993-3.028-5.386c0,0,0.416-1.145,1.386-1.06c0,0,1.687,0.085,1.349,2.332C312.752,196.09,312.246,198.295,313.045,200.204L313.045,200.204z M316.01,199.356c0,0,3.427-0.869,2.797-4.41c0,0-0.337-1.548-1.787-1.336c0,0-1.748,0.446-0.61,2.697C316.409,196.306,317.082,197.914,316.01,199.356L316.01,199.356z M363.688,200.203c0,0,4.374-1.993,3.028-5.386c0,0-0.416-1.145-1.386-1.06c0,0-1.687,0.085-1.349,2.332C363.981,196.09,364.487,198.295,363.688,200.203L363.688,200.203z M369.912,197.15c0,0,3.07-1.93,1.409-5.174c0,0-0.484-0.933-1.409-0.742c0,0-1.913,0.594-0.421,3.245C369.491,194.478,370.248,196.196,369.912,197.15L369.912,197.15z M360.723,199.356c0,0-3.427-0.869-2.797-4.41c0,0,0.337-1.548,1.787-1.336c0,0,1.748,0.446,0.61,2.697C360.323,196.306,359.65,197.913,360.723,199.356L360.723,199.356z M369.51,129.744c0,0,0.481-0.655,0.284-2.619s1.509-2.191,2.165-1.626c0,0,0.678,0.587,0.054,1.833C371.655,128.051,371.08,128.982,369.51,129.744z M368.965,129.03c0,0-0.05-0.792-1.419-2.138c-1.369-1.346-0.243-2.586,0.595-2.576c0,0,0.868,0.014,1.181,1.337C369.503,126.417,369.656,127.474,368.965,129.03L368.965,129.03z M367.106,128.434c0,0-0.358-0.645-2.048-1.245c-1.691-0.6-1.234-2.077-0.522-2.393c0,0,0.738-0.325,1.529,0.665C366.521,126.033,367.07,126.861,367.106,128.434L367.106,128.434z M368.166,129.08c0,0-0.788,0.221-2.599-0.652c-1.81-0.873-2.603,0.647-2.286,1.46c0,0,0.332,0.841,1.733,0.694C365.823,130.497,366.907,130.285,368.166,129.08z M307.138,129.744c0,0-0.481-0.655-0.284-2.619s-1.509-2.191-2.165-1.626c0,0-0.678,0.587-0.054,1.833C304.993,128.051,305.568,128.982,307.138,129.744z M307.682,129.03c0,0,0.05-0.792,1.419-2.138c1.369-1.346,0.243-2.586-0.595-2.576c0,0-0.868,0.014-1.181,1.337C307.145,126.417,306.992,127.474,307.682,129.03L307.682,129.03z M309.541,128.434c0,0,0.358-0.645,2.048-1.245c1.691-0.6,1.234-2.077,0.522-2.393c0,0-0.738-0.325-1.529,0.665C310.127,126.033,309.577,126.861,309.541,128.434L309.541,128.434z M308.482,129.08c0,0,0.788,0.221,2.599-0.652c1.81-0.873,2.603,0.647,2.286,1.46c0,0-0.332,0.841-1.733,0.694C310.824,130.497,309.741,130.285,308.482,129.08z" />
    <path fill="#FFFFFF" d="M317.335,195.125c0,0,0.126-0.17-0.021-0.244c0,0-0.147-0.063-0.252,0.143c0,0-0.357,0.567-0.055,1.344c0,0,0.286,0.538,0.147,1.1c0,0-0.019,0.159,0.108,0.18c0,0,0.121-0.042,0.144-0.159c0,0,0.171-0.549-0.123-1.085C317.282,196.404,316.925,195.571,317.335,195.125L317.335,195.125z M305.969,192.75c0,0,0.168-0.223,0.053-0.318c0,0-0.074-0.106-0.273,0.148c0,0-0.929,1.038-0.189,2.635c0,0,0.084,0.228,0.231,0.153c0,0,0.126-0.063,0.01-0.254C305.802,195.115,305.139,193.8,305.969,192.75z M311.461,198.196c0,0-0.961-0.921-0.827-2.573c0,0,0.056-0.353-0.12-0.402c0,0-0.188-0.078-0.216,0.332c0,0-0.266,1.725,0.897,2.714c0,0,0.079,0.099,0.208,0.071C311.403,198.338,311.54,198.307,311.461,198.196z M359.398,195.125c0,0-0.126-0.17,0.021-0.244c0,0,0.147-0.063,0.252,0.143c0,0,0.357,0.567,0.055,1.344c0,0-0.286,0.538-0.147,1.1c0,0,0.019,0.159-0.108,0.18c0,0-0.121-0.042-0.144-0.159c0,0-0.171-0.549,0.123-1.085C359.451,196.404,359.808,195.571,359.398,195.125L359.398,195.125z M370.679,192.75c0,0-0.168-0.223-0.053-0.318c0,0,0.074-0.106,0.273,0.148c0,0,0.929,1.038,0.189,2.635c0,0-0.084,0.228-0.231,0.153c0,0-0.126-0.063-0.01-0.254C370.847,195.114,371.51,193.8,370.679,192.75z M365.272,198.196c0,0,0.961-0.921,0.827-2.573c0,0-0.056-0.353,0.12-0.402c0,0,0.188-0.079,0.216,0.331c0,0,0.266,1.725-0.897,2.714c0,0-0.079,0.099-0.208,0.071C365.33,198.338,365.192,198.307,365.272,198.196z M370.152,128.277c0,0,0.639-0.688,0.334-2.18c0,0-0.002-0.147,0.082-0.157c0,0,0.155-0.039,0.181,0.108c0,0,0.343,1.591-0.378,2.456c0,0-0.132,0.128-0.22,0C370.152,128.503,370.054,128.412,370.152,128.277L370.152,128.277z M368.753,127.307c0,0,0.024-0.97-1.215-1.983c0,0-0.101-0.118-0.043-0.18c0,0,0.092-0.132,0.211-0.03c0,0,1.335,1.068,1.367,2.234c0,0-0.015,0.189-0.168,0.142C368.905,127.49,368.769,127.479,368.753,127.307L368.753,127.307z M366.366,127.248c0,0-0.384-0.89-1.932-1.279c0,0-0.141-0.064-0.115-0.145c0,0,0.028-0.159,0.179-0.117c0,0,1.657,0.399,2.175,1.442c0,0,0.066,0.177-0.093,0.2C366.58,127.349,366.453,127.397,366.366,127.248L366.366,127.248z M363.956,129.657c0,0,0.821,0.506,2.31-0.07c0,0,0.152-0.029,0.176,0.053c0,0,0.068,0.146-0.08,0.199c0,0-1.584,0.632-2.602,0.077c0,0-0.155-0.107-0.038-0.218C363.722,129.699,363.8,129.585,363.956,129.657L363.956,129.657z M306.496,128.277c0,0-0.639-0.688-0.334-2.18c0,0,0.002-0.147-0.082-0.157c0,0-0.155-0.039-0.181,0.108c0,0-0.343,1.591,0.378,2.456c0,0,0.132,0.128,0.22,0C306.496,128.503,306.594,128.412,306.496,128.277L306.496,128.277z M307.895,127.307c0,0-0.024-0.97,1.215-1.983c0,0,0.101-0.118,0.043-0.18c0,0-0.092-0.132-0.211-0.03c0,0-1.335,1.068-1.367,2.234c0,0,0.015,0.189,0.168,0.142C307.743,127.49,307.879,127.479,307.895,127.307L307.895,127.307z M310.282,127.248c0,0,0.384-0.89,1.932-1.279c0,0,0.141-0.064,0.115-0.145c0,0-0.028-0.159-0.179-0.117c0,0-1.657,0.399-2.175,1.442c0,0-0.066,0.177,0.093,0.2C310.067,127.349,310.195,127.397,310.282,127.248L310.282,127.248z M312.691,129.657c0,0-0.821,0.506-2.31-0.07c0,0-0.152-0.029-0.176,0.053c0,0-0.068,0.146,0.08,0.199c0,0,1.584,0.632,2.602,0.077c0,0,0.155-0.107,0.038-0.218C312.925,129.699,312.848,129.585,312.691,129.657L312.691,129.657z" />
    <path fill="none" stroke="#000000" stroke-width="0.3738" stroke-miterlimit="10" d="M305.716,161.512c0,0-2.047-0.141-2.383-1.725 M299.744,158.742c0,0,0.713-0.028,1.358,0.622c0,0,0.492,0.735,1.193,0.65 M319.746,191.708c0,0,0.14-0.481-0.196-0.99c0,0-0.224-0.368-0.14-0.848 M322.769,136.717c0,0,0.013,1.326,0.391,2.301c0.378,0.976,1.656,2.663,1.741,3.574 M356.987,191.708c0,0-0.14-0.481,0.196-0.99c0,0,0.224-0.368,0.14-0.848 M371.089,161.512c0,0,2.047-0.141,2.383-1.725 M377.061,158.742c0,0-0.713-0.028-1.358,0.622c0,0-0.492,0.735-1.193,0.65 M365.517,123.359c0,0,0.904,0.438,0.694,1.498 M369.512,123.507c0,0,0.354,1.12-0.037,1.723 M311.13,123.359c0,0-0.904,0.438-0.694,1.498 M307.135,123.507c0,0-0.354,1.12,0.037,1.723" />
    <path fill="#FFFFFF" d="M340.222,99.101c0,0,0.862-1.512,3.491-1.212C343.712,97.889,342.997,99.991,340.222,99.101z M336.923,99.101c0,0-0.862-1.512-3.491-1.212C333.432,97.889,334.147,99.991,336.923,99.101z" />
    <path fill="#784421" d="M335.11,97.973c0.287,0,0.52,0.295,0.52,0.659c0,0.364-0.233,0.659-0.52,0.659s-0.52-0.295-0.52-0.659C334.59,98.268,334.823,97.973,335.11,97.973z M342.035,97.973c0.287,0,0.52,0.295,0.52,0.659c0,0.364-0.233,0.659-0.52,0.659s-0.52-0.295-0.52-0.659C341.515,98.268,341.748,97.973,342.035,97.973z" />
    <path fill="#000000" d="M308.743,155.49c0,0-1.065,0-1.654-0.509c0,0-0.617-0.424-0.981,0.254c0,0-0.561,0.961,0.477,1.386c0,0,1.29,0.65-0.757,1.951c0,0,2.439-0.877,1.458-2.064c0,0-1.065-0.763-0.673-1.046c0,0,0.112-0.226,0.533,0.057C307.566,155.801,308.407,155.688,308.743,155.49z M313.634,192.653c0,0-1.935-1.087-3.532,0.185c0,0,0.163-0.707,1.386-1.018c0,0,0.661-1.866,2.511-1.697c0,0-0.757,0.905-1.766,1.668C312.232,191.792,313.298,191.903,313.634,192.653z M312.12,187.542c0,0-1.314,0.971-1.849,1.621c0,0-0.535-0.664-1.235-1.067c0,0,0.807-0.106,1.235,0.257C310.271,188.353,310.942,187.702,312.12,187.542z M363.183,192.653c0,0,1.935-1.087,3.532,0.185c0,0-0.163-0.707-1.386-1.018c0,0-0.661-1.866-2.511-1.697c0,0,0.757,0.905,1.766,1.668C364.585,191.792,363.519,191.903,363.183,192.653z M364.613,187.542c0,0,1.314,0.971,1.849,1.621c0,0,0.535-0.664,1.235-1.067c0,0-0.807-0.106-1.235,0.257C366.462,188.353,365.79,187.702,364.613,187.542z M368.061,155.49c0,0,1.065,0,1.654-0.509c0,0,0.617-0.424,0.981,0.254c0,0,0.561,0.961-0.477,1.386c0,0-1.29,0.65,0.757,1.951c0,0-2.439-0.877-1.458-2.064c0,0,1.065-0.763,0.673-1.046c0,0-0.112-0.226-0.533,0.057C369.239,155.801,368.397,155.688,368.061,155.49z M346.383,113.223c0,0,0.573,1.635,0.326,3.117c-0.221,1.325,0.081,1.668,0.559,1.93c0.414,0.227,1.375-0.17,1.49-1.209c0,0,1.135,2.216-1.072,3.711c0,0-1.588,0.976-2.933-0.328c-0.474-0.459-0.684-1.728-0.452-2.905c0,0,0.347-1.596-0.231-3.234c0,0,0.904,0.965,0.673,2.889c0,0-0.463,3.451,2.092,3.282c0,0,1.766-0.021,1.819-2.163c0,0-0.662,0.763-1.482,0.509c-0.581-0.18-1.115-0.742-1.02-1.628C346.25,116.264,346.509,114.644,346.383,113.223L346.383,113.223z M343.488,118.891c0,0-0.14,2.728-2.635,3.393c0,0,0.351-0.495-0.21-1.852c0,0-0.547-0.792-0.504-2.021c0,0-0.794,0.621,0.112,2.262c0.547,0.99,0.07,2.177-0.098,2.219C339.983,122.934,344.273,122.326,343.488,118.891L343.488,118.891z M340.25,116.177c0,0-0.603-0.679-0.645-2.248c-0.042-1.569-0.337-1.951-0.547-2.135c0,0,0.308,1.357,0.224,2.191c-0.084,0.834,0.056,1.315,0.168,1.71c0,0-1.36,0.212-2.215-1.767c-0.817-1.892-1.64-1.739-2.047-1.725c0,0,0.474,0.053,1.43,1.781C337.573,115.712,337.838,116.064,340.25,116.177z M333.886,112.078c0,0,0.785,1.88,0.813,2.87c0,0-1.822-0.608-2.313-2.191c0,0-1.949,0.664-1.233,2.912c0,0-1.682-0.594-2.439-1.965c0,0,0.939,0.707,1.808,1.018c0,0-0.098-1.809,2.173-2.488c0,0,0.338,1.621,1.472,2.007C334.166,114.241,334.082,113.223,333.886,112.078L333.886,112.078z M336.885,108.855c0,0,0.631,0.919,1.921,0.961c0.616,0.02,1.28-0.119,1.921-0.961c0,0-0.084,1.598-1.921,1.611C338.806,110.466,336.885,110.537,336.885,108.855z M328.941,119.775c0,0,0.957,0.869,1.157,1.156c0,0,0.673,0.657,1.251-0.193c0,0,0.737-1.359,1.641-1.323c0,0-0.641,0.446-1.362,1.731c0,0-0.194,0.474-0.73,0.527c-0.251,0.025-0.568,0.106-1.047-0.395C329.849,121.278,329.435,120.772,328.941,119.775z M338.806,102.451c-1.921-0.001-0.302,1.484-0.302,1.484c0.042,2.354-1.847,3.078-3.133,2.396c-1.286-0.682-0.28-2.396-0.28-2.396s-1.451,0.954-0.526,2.332c0.925,1.378,3.35,0.763,4.24-0.509c0.89,1.272,3.315,1.887,4.24,0.509c0.925-1.378-0.526-2.332-0.526-2.332s1.006,1.714-0.28,2.396c-1.286,0.682-3.175-0.042-3.133-2.396C339.107,103.935,340.726,102.45,338.806,102.451z M339.969,99.906c0,0,0.673,1.145,0.526,2.884C340.495,102.79,341.105,101.051,339.969,99.906z M334.082,102.599c0,0-0.147-1.251-1.367-1.357C332.715,101.242,333.745,101.985,334.082,102.599z M343.544,102.599c0,0,0.147-1.251,1.367-1.357C344.911,101.242,343.88,101.985,343.544,102.599z M332.147,104.508c0,0,0.967,0.297,1.556-0.424C333.703,104.084,332.589,104.38,332.147,104.508z M329.014,96.832c0,0,1.125-0.127,2.25,1.548c0,0-1.115,0.594-1.388,0.954c0,0,0-0.551,0.547-1.039C330.423,98.295,330.213,97.447,329.014,96.832L329.014,96.832z M347.855,96.832c0,0-1.125-0.127-2.25,1.548c0,0,1.115,0.594,1.388,0.954c0,0,0-0.551-0.547-1.039C346.446,98.295,346.656,97.447,347.855,96.832L347.855,96.832z M339.17,98.082c0,0,1.009,0.277,2.271-0.423c0,0,1.556-0.827,2.544,0c0,0-0.862-0.384-2.523,0.423C341.462,98.082,339.801,98.993,339.17,98.082z M334.586,95.878c0,0,1.661,0.106,2.67,0.742c0,0,1.072,0.636,2.292-0.276c0,0,1.326-0.763,2.177-1.823c0,0-2.03,1.4-2.787,1.611c0,0-0.694-0.53-0.967-1.293c0,0,0.105-0.572,1.198-1.633c0,0-1.472,0.446-1.766,1.697c0,0,0.273,0.763,0.841,1.357c0,0-0.273,0.127-0.988-0.318C337.257,95.941,335.701,95.411,334.586,95.878L334.586,95.878z M338.806,105.854c-1.437,1.241,0,1.113,0,1.113S340.243,107.095,338.806,105.854z M337.974,98.082c0,0-1.009,0.277-2.271-0.423c0,0-1.556-0.827-2.544,0c0,0,0.862-0.384,2.523,0.423C335.682,98.082,337.343,98.993,337.974,98.082z M342.035,98.228c0.17,0,0.309,0.181,0.309,0.404c0,0.223-0.138,0.404-0.309,0.404s-0.309-0.181-0.309-0.404C341.726,98.408,341.864,98.228,342.035,98.228z M335.11,98.228c0.17,0,0.309,0.181,0.309,0.404c0,0.223-0.138,0.404-0.309,0.404c-0.171,0-0.309-0.181-0.309-0.404C334.801,98.408,334.94,98.228,335.11,98.228z" />
    <path fill="none" stroke="#000000" stroke-width="0.9" d="M389.575,85.499v95.282c0,25.451-50.878,33.72-50.878,33.72s-50.878-8.269-50.878-33.72V85.499H389.575z" />
  </g>
</svg>
