<svg xmlns="http://www.w3.org/2000/svg" width="450px" height="300px" viewBox="0 0 450 300">
  <path fill="#F7E017" d="M0,0h450v300H0V0z" />
  <path fill="#FFFFFF" d="M450,130.2L0,36.5V162l450,46.9V130.2z" />
  <path fill="#000000" d="M450,201L0,107.3v62.5l450,93.7V201z" />
  <path fill="#CF1126" d="M294.9,226.9c0,0.9-0.1,1.5-0.2,1.5s-1.1-0.3-2.1-0.8c-2.9-1.2-4.6-1.5-8-1.5c-2.6,0-3.5,0.1-5.3,0.7c-2.8,0.9-5.7,2.6-8.1,4.8c-2.7,2.4-4.3,3.1-6.9,3.1c-2.4,0-4-0.7-4.9-2.1c-0.5-0.7-0.5-1.2-0.4-2.8c0.1-1.1,0.1-2,0-2s-1,0.6-2.1,1.3c-2.8,1.9-4.5,2.8-7.7,4.1c-9.7,3.8-23.6,5.5-34.3,4.1l0,0c-8.1-1.1-15.5-3.6-20.6-7.2c-1-0.7-1.9-1.2-2.1-1.2c-0.2,0-0.3,0.8-0.3,1.7c0,2.7-1.1,4-3.8,4.7c-2.6,0.7-6.5-0.7-9.7-3.3c-3.3-2.7-7.1-4.8-10.3-5.6c-2.6-0.7-6.2-0.6-8.7,0.3c-1.2,0.4-2.5,1-3,1.2c-0.5,0.3-1,0.5-1.1,0.5c-0.5,0-0.4-2.9,0.1-3.8c0.6-1.2,2.2-2.4,3.9-3c0.9-0.3,1.6-0.8,1.6-0.9s-0.3-0.9-0.7-1.5c-1.2-2.1-0.7-4.2,1.4-5.8c2.2-1.7,5.8-1.9,9-0.7c0.8,0.3,1.6,0.6,1.7,0.6c0.4,0,0.2-0.6-1-2.3c-1.3-2-1.6-3-1.5-5.3c0.2-3,2.6-5.4,5.6-5.6c2.4-0.2,3.9,0.6,7.5,4.1c10.7,10.2,22.3,15.8,35.9,17.3c3.4,0.4,10.3,0.2,14.3-0.4c12.2-1.8,24.5-8,34.1-17c2.7-2.5,3.9-3.2,6.1-3.2c1.9,0,3.2,0.6,4.6,2.1c1.2,1.4,1.7,2.7,1.5,4.8c-0.1,1.3-0.3,2-1.1,3.3c-1.2,1.9-1,2.1,1.3,1.2c3.1-1.2,7-0.7,9.1,1.3c1.8,1.7,2,3.5,0.6,5.9c-0.5,0.9-0.9,1.7-0.9,1.8c0,0.2,0.4,0.4,2.3,0.7C293.5,222.2,294.9,224.1,294.9,226.9z M219.3,218.8L219.3,218.8c8.4,0.4,17-0.4,25-3c17.7-5.6,31.1-21,36.5-38.5c3.9-13.8,3.6-29.3-3-42.2c-1.9-3.6-5.2-8.9-7.7-10.3c4.5,9.1,6.1,19.5,4.7,29.5c-1.6,18.5-14.9,35.1-32.4,41.3c-7.9,2.6-16.5,5.1-24.8,2.7c-21-3-38.5-20.6-42.2-41.3c-2.4-10.4-0.9-21.4,3.6-31c-5.7,5.4-9,13-10.6,20.6c-3.1,16.7,0.1,35,10.3,48.9C187.9,208.9,203.2,217.3,219.3,218.8z M159.9,197.9c0.5-0.9-0.4-1.8-1.3-1.6c-1.3,0.3-2.5,0.9-3.7,1.2c-2.7,0.8-5.6,1.1-8.5,0.8c-2.1-0.3-4.1-0.9-6-1.7c-0.7-0.3-1.3-0.7-2-0.8l0,0c-1.1-0.2-2.2,0.9-1.8,2c0.8,1.1,2.1,1.6,3.2,2.2c2.7,1.1,5.7,1.5,8.6,1.5c0.1,0,0.8,0,1.1,0c2.4,0,4.8-0.4,7.1-1.2C157.8,199.7,159.4,199.3,159.9,197.9z M146.6,194c-1.8-0.2-3.5-0.9-5.2-1.7c-0.6-0.3-1.2-0.8-1.9-0.9l0,0c-1.1-0.2-2,1.1-1.5,2c0.8,1.2,2.2,1.8,3.5,2.4c2.2,0.9,4.7,1.3,7.1,1.2c-0.9,0,0.3,0,0.7,0c2,0,4.1-0.4,6-1.2c1.2-0.4,2.6-0.9,3.1-2.2c0.4-0.7,0.1-1.7-0.8-1.8c-0.8,0-1.5,0.5-2.2,0.7C152.5,193.8,149.5,194.3,146.6,194z M154.7,188.4c-2,1-4.2,1.6-6.5,1.6c-1.9,0.1-3.8-0.7-5.4-1.6c-0.6-0.3-1.1-0.9-1.8-1l0,0c-0.9-0.1-1.5,0.9-1.4,1.7c0.1,0.7,0.8,1.2,1.3,1.7c2.2,1.6,5,2.3,7.8,2.2c-1.1,0,1.4,0,0.7,0c1.7,0,3.4-0.4,5-1.2c1-0.5,2.3-1,2.6-2.2c0.2-0.6,0.3-1.3-0.4-1.7C155.9,187.6,155.2,188.1,154.7,188.4z M125.6,126.1L125.6,126.1L125.6,126.1L125.6,126.1L125.6,126.1z M139.9,160.2c1.2,2.1,0.7,4.7,1,7.1c0.2,6.4,0.1,12.8,0,19.2c2.9,1.5,6,2.9,9.4,2.4c2-0.5,5.6-0.8,6-2.7c-0.2-11-0.3-22.1-0.4-33.1c-1.1-3.4-4.6-5.1-7.1-7.3c-2.1-2.1-4.1-4.3-5.9-6.7c-1.1-1.8-5.4-2.5-3.8,0.7c0.9,2.8,3.2,4.8,3.8,7.8c0.1,1.6,2,4.5,0.4,5.5c-1-1.8-2.5-3.3-4.5-4.1c-1.8-1.4-4.9-2-5.6-4.4c-0.5-3.4-2.3-6.6-4.5-9.2c0.6-3.1,0-7-2.7-9l-0.4-0.1c-1.4,1.4-0.3,3.9-0.4,5.6c0.7,5.5,1.6,11,3.6,16.2C131.4,153,136.7,155.7,139.9,160.2z M129.6,134.9c2.2,2.6,3.9,5.6,4.4,9c0,1.3,1.3,1.7,2.2,2.3c2,1.3,4.3,2.2,6.1,3.8c0.4,0.4,0.7,0.8,0.4,0c-0.3-1.1-0.4-2.2-1.3-3c-1.1-1.2-2.6-2.3-4.2-2.7c-0.1-1.7-1-3.3-1.7-4.8c-0.8-1.4-1.7-3-3.1-3.9c0.1-2.5,0-5.2-1.1-7.6c-0.3-0.6-0.8-1.3-1.5-1.4l0,0c-1.2,0.2-1.2,1.8-0.6,2.6C129.8,131.1,129.9,133.1,129.6,134.9z M133.2,135.2c1.6,1.3,2.6,3.1,3.5,4.8c0.6,1.2,1.1,2.4,1.3,3.7c1.3,0.4,2.4,1.2,3.4,2.1c-0.4-1.2-1.3-2.1-1.9-3.2c-0.6-1.1-1.3-2.3-1.5-3.6c-1.2-1.3-1.9-3.2-1.6-5c0.1-2-0.6-4-1.9-5.5c-0.3-0.3-0.7-0.7-1.2-0.7l0,0c-0.9,0.3-0.7,1.3-0.4,2C133.2,131.5,133.3,133.4,133.2,135.2z M137.2,134.7c0,1,0.3,2.1,0.9,2.9c0.2-0.7,0.8-1.1,1.4-1.2c0.2,0,0.6,0.1,0.4-0.3c-0.2-2-0.5-4-1.2-5.9c-0.3-0.7-0.6-1.4-1.2-1.8c-0.1-0.1-0.3-0.2-0.4-0.1l0,0c-0.5,0.1-0.8,0.5-1,0.9c-0.1,0.4,0.3,0.8,0.4,1.1C137.1,131.7,137.3,133.2,137.2,134.7z M311.7,195.8L311.7,195.8c-0.7,0.1-1.4,0.5-2,0.8c-1.9,0.8-3.9,1.5-6,1.7c-2.8,0.2-5.7-0.1-8.5-0.8c-1.3-0.3-2.5-0.9-3.7-1.2c-0.9-0.2-1.8,0.7-1.3,1.6c0.5,1.4,2.1,1.8,3.4,2.2c2.3,0.8,4.7,1.2,7.1,1.2c0.3,0,1,0,1.1,0c2.9,0,5.9-0.4,8.6-1.5c1.2-0.5,2.5-1.1,3.2-2.2C313.9,196.7,312.7,195.6,311.7,195.8z M294.9,195.9c1.9,0.8,3.9,1.2,6,1.2c0.3,0,1.6,0,0.7,0c2.4,0.1,4.8-0.3,7.1-1.2c1.3-0.6,2.7-1.2,3.5-2.4c0.4-1-0.5-2.2-1.5-2l0,0c-0.7,0.1-1.3,0.6-1.9,0.9c-1.6,0.8-3.4,1.4-5.2,1.7c-2.9,0.3-5.9-0.2-8.6-1.3c-0.7-0.2-1.4-0.7-2.2-0.7c-0.9,0.1-1.2,1.1-0.8,1.8C292.3,195,293.7,195.5,294.9,195.9z M295.7,191.8c1.6,0.7,3.3,1.2,5,1.2c-0.8,0,1.7,0,0.7,0c2.7,0.1,5.5-0.6,7.8-2.2c0.5-0.4,1.2-0.9,1.3-1.7c0.2-0.8-0.5-1.9-1.4-1.7l0,0c-0.7,0.1-1.2,0.7-1.8,1c-1.7,0.9-3.5,1.7-5.4,1.6c-2.2,0-4.5-0.6-6.5-1.6c-0.6-0.2-1.2-0.8-1.9-0.4c-0.6,0.3-0.5,1.1-0.4,1.7C293.5,190.8,294.7,191.3,295.7,191.8z M324.4,126.1L324.4,126.1L324.4,126.1L324.4,126.1L324.4,126.1z M324.4,126.1l-0.4,0.1c-2.7,2-3.3,5.9-2.7,9c-2.3,2.6-4,5.7-4.5,9.2c-0.7,2.4-3.7,3-5.6,4.4c-1.9,0.9-3.4,2.4-4.5,4.1c-1.6-0.9,0.3-3.9,0.4-5.5c0.6-2.9,2.9-5,3.8-7.8c1.5-3.2-2.7-2.5-3.8-0.7c-1.8,2.4-3.8,4.6-5.9,6.7c-2.6,2.2-6,3.9-7.1,7.3c-0.1,11-0.3,22.1-0.4,33.1c0.4,2,4.1,2.3,6,2.7c3.3,0.6,6.5-0.9,9.4-2.4c-0.1-6.4-0.2-12.8,0-19.2c0.2-2.3-0.2-4.9,1-7.1c3.2-4.5,8.5-7.2,11.1-12.2c2-5.2,2.9-10.7,3.6-16.2C324.7,130,325.7,127.5,324.4,126.1z M314.5,139.6c-0.8,1.5-1.6,3.1-1.7,4.8c-1.7,0.4-3.1,1.5-4.2,2.7c-0.8,0.8-1,2-1.3,3c-0.3,0.8,0,0.4,0.4,0c1.8-1.6,4.1-2.6,6.1-3.8c0.9-0.6,2.2-1,2.2-2.3c0.5-3.4,2.2-6.4,4.4-9c-0.3-1.9-0.2-3.8,0.4-5.6c0.6-0.8,0.6-2.4-0.6-2.6l0,0c-0.8,0-1.2,0.8-1.5,1.4c-1.1,2.3-1.1,5-1.1,7.6C316.2,136.6,315.3,138.1,314.5,139.6z M312,139c-0.3,1.3-0.9,2.5-1.5,3.6s-1.5,2-1.9,3.2c1-0.9,2.1-1.7,3.4-2.1c0.2-1.3,0.8-2.5,1.3-3.7c0.9-1.8,1.9-3.6,3.5-4.8c0-1.8,0-3.7,0.4-5.5c0.3-0.6,0.4-1.7-0.4-2l0,0c-0.5,0-0.9,0.4-1.2,0.7c-1.3,1.5-2,3.6-1.9,5.5C313.9,135.8,313.2,137.7,312,139z M312,137.6c0.5-0.9,0.9-1.9,0.9-2.9c-0.2-1.5,0-3,0.6-4.3c0.1-0.4,0.5-0.8,0.4-1.1c-0.3-0.4-0.5-0.8-1-0.9l0,0c-0.1,0-0.3,0.1-0.4,0.1c-0.6,0.5-0.9,1.2-1.2,1.8c-0.7,1.9-1,3.9-1.2,5.9c-0.1,0.4,0.2,0.2,0.4,0.3C311.2,136.5,311.8,137,312,137.6z M228.7,198.1c3.1-0.5,5.8-2.2,7.8-4.5c1.2-1.5,2.4-3.2,3.1-5.1c-0.3-0.7-1.5,0.5-2.1,0.7c-1.3,0.7-2.8,0.8-4,1.7c-1.4,1.2-2.8,2.4-4.4,3.1c-1.4,0.6-1-1.3-0.5-1.9c0.5-1.7-0.5-3.4-1.4-4.7c-0.6-0.6-1.2-2.4-2.1-2.1c-1.2,1.4-2.4,2.9-3.2,4.7c-0.5,1-0.1,2.1,0.5,2.9c0.4,1.6-1.9,0.6-2.5,0.1c-1.4-0.8-2.3-2.2-3.8-2.9c-1.2-0.1-2.3-0.5-3.3-1.1c-0.5-0.1-1.7-1.5-1.8-0.6c1.7,5.4,6.8,9.5,12.4,10l0,0C225,198.5,226.9,198.4,228.7,198.1z M229.8,191.8L229.8,191.8L229.8,191.8L229.8,191.8z M217.8,176.4c-1.1,2.7-1.6,5.6-1.5,8.6c-0.1,1.8,0.7,3.5,1.7,5c0.5,0.6,1.8,2.5,2.5,1.5c0.1-2.2,1.6-4.1,2.8-5.8c0.8-0.6,1.4-2.8,2.6-2.2c1.2,1.6,2.5,3.2,3.4,5c0.6,1,0.8,2.2,0.7,3.3c0.1,0.3,0.4,0.3,0.6,0.2c1.6-1.1,2.9-2.8,3.3-4.7c0.9-4.4-0.5-8.8-2.3-12.7c-1-2-1.5-4.2-1.1-6.4c0.2-1.8,1.3-3.2,2.6-4.4c0.9-0.8-0.3-1.1-1-0.7c-1.7,0.3-2.7,1.9-4,2.9c-1.1-0.1-0.4-2-1.1-2.8c-0.3-0.9-1.3-2.8-2.3-1.5c-1,0.9-1.1,2.2-1.6,3.4c-1.2,0.5-1.9-1.6-3.2-1.7c-0.8-0.6-3.2-0.4-1.7,0.8c1.5,1.3,1.9,3.4,1.8,5.3C219.9,171.8,218.6,174.1,217.8,176.4z M232.7,137.3c-1-0.5-2.3-0.4-3.2,0.2c-0.9,0.5-1.4,1.6-2.4,2c-1.1-0.6-0.2-2.4-1-3.3c-0.5-1.4-1.9-0.1-1.9,0.9c-0.3,0.7,0,2.2-0.8,2.4c-1-0.9-1.9-2.1-3.3-2.5c-0.6-0.1-2.3-0.5-2.4,0.2c1.3,1.7,3,3.1,3.6,5.2c0.4,1.8,0.6,3.9-0.1,5.7c-1.1,2.9-2.4,5.8-2.3,9c0,2,0.3,4.3,2.2,5.4c1.2,1.1,1.7-0.3,2.2-1.2c0.7-0.7,1.3-1.9,2.3-1.9c1,0.7,1.8,1.8,2.4,2.9l0,0c0.2,0.4,0.4,0.8,0.7,1.1c1.3-0.6,2.5-1.5,2.8-2.9c0.6-2.3,0.6-4.8,0.2-7.1c-0.4-2.1-1.4-4-1.9-6c-0.7-2.6-0.1-5.5,1.6-7.5C231.6,139,233,138.2,232.7,137.3z M181.7,119.7c2.7,0.2,4.1-0.3,9.2-2.8c4-2,6.2-2.7,7.7-2.5c1.1,0.1,1.1,0.7-0.1,0.9c-2.6,0.4-3.7,0.8-7.5,2.7c-2.4,1.2-4.9,2.2-6.2,2.6c-1.2,0.3-2.2,0.6-2.3,0.7s0.1,0.6,0.4,1.1c1.7,3.1,6.9,3.4,10.4,0.5c3-2.4,7.9-4.8,10.4-4.9c1.3-0.1,1.7,0.5,0.6,0.8c-3.6,0.8-8.2,2.9-10.6,5.1c-0.6,0.5-1.4,1.1-1.9,1.4s-0.9,0.6-0.9,0.7c0,0.6,1.7,2.2,2.6,2.5c1.3,0.4,4.3,0.2,5.8-0.5c0.7-0.3,2-1.2,2.8-2c3-2.8,7-5.4,8.2-5.4c1,0,0.6,0.5-0.9,1.2c-1.8,0.9-5.5,3.6-6.7,4.8c-0.5,0.5-1.3,1.2-1.8,1.5c-1.1,0.7-1.1,1.3-0.2,2.4c1.8,2.1,5.7,1.7,9.8-1.1c0.7-0.5,2.9-2.5,4.8-4.4c2.4-2.4,3.5-3.4,3.7-3.2c0.2,0.2-0.2,0.8-1.1,2c-1.2,1.5-1.4,1.9-1.4,2.8c0.1,1.9,1.1,2.4,3.3,1.8c1.4-0.4,1.5,0,0.6,1.4c-0.7,0.9-0.8,1.4-0.8,2.4c0,1.9,0.5,2.9,1.9,3.9l0,0c0.7,0.5,1.3,0.9,1.3,0.9s0.4-0.5,0.8-1.2c1.2-1.9,2.3-2,3.6,0c0.4,0.5,0.8,1,1,1s0.8-0.4,1.4-1c2-1.7,2.2-4.1,0.6-6.1c-1.1-1.3-0.8-1.7,0.8-1.3s2.4,0.2,2.9-1c0.5-1.3,0.3-2.2-1.1-3.7c-1.1-1.3-1.5-2.1-0.9-2.1c0.2,0,1.7,1.5,3.4,3.2c4.4,4.6,7.2,6.3,10.8,6.7c1.8,0.2,3.2-0.3,4-1.4c0.8-1.1,0.9-1.7,0.1-2.1c-0.3-0.2-1.3-0.9-2.1-1.7c-1.8-1.6-4.2-3.3-6.6-4.6c-1.8-1-2.3-1.5-1.2-1.5c1.2,0,5.2,2.5,9.3,6c2,1.6,3.9,2.3,6,2.1c1.7-0.2,3.2-1.1,3.9-2.2c0.4-0.7,0.4-0.8-0.1-1.1c-0.3-0.2-1.4-1-2.4-1.7c-3.4-2.6-6.8-4.2-9.6-4.6c-0.8-0.1-1.2-0.3-1.3-0.7c-0.3-1.6,7.9,1.4,11.2,4.2c2,1.6,3.2,2.1,5.4,2.1c2.3,0,3.9-0.7,4.9-2.1c0.9-1.3,0.9-1.9-0.1-1.9c-1.3,0-3.6-0.8-7.6-2.7c-3.7-1.8-6.4-2.7-7.8-2.7c-0.4,0-0.6-0.2-0.6-0.4c0-1.2,4.8,0,8.7,2.1c6.4,3.4,10.9,3.5,14.4,0c1.9-1.9,3.5-5,2.6-5c-0.2,0-1.2,0.2-2.2,0.4c-2.6,0.6-7.6,0.4-10.5-0.4c-2.8-0.8-7.6-3.2-10-5c-2.3-1.8-4.8-3.2-7-4c-5.2-1.8-11.8-1.8-15.5,0.1c-1.7,0.9-3.4,2.3-3.8,3.4c-0.1,0.2-0.2,0.3-0.3,0.4v-9.6l-2.1,1.7l-1.9-1.4v9.4c-0.3-0.3-0.7-0.6-1.1-1.1c-2.9-2.9-6.2-4.1-11.3-4.1c-5.6,0-10,1.6-15.3,5.7c-2.8,2.1-6.9,4.2-10,5.1c-1.8,0.5-2.8,0.6-6.2,0.6c-2.5,0-4.5-0.1-5.2-0.4c-0.6-0.2-1.2-0.3-1.3-0.2c-0.4,0.4,1.5,3.5,2.8,4.7C177.9,119,179.3,119.6,181.7,119.7z M218.6,98.1l3.5-3.9l3.6,3.3l3.4-3.4l3.5,4.2l3.1-3.4l5.2,3.8c-1.9-4.2-4.5-7.8-4.1-13.7c-5.1,3.8-17.1,4.4-22.3,0.2c-0.4,5.5-1.8,9.3-3.7,13.5l4.6-4.3L218.6,98.1z M236.5,84.1c-1-0.7-2.1-1.1-3.4-1.4c-1.7-0.3-3.6-0.4-5.4-0.4c0,1,0,2,0,2.9h-4v-2.9c-1.9,0-3.8,0.1-5.6,0.4c-1.2,0.2-2.3,0.6-3.3,1.3C215,87.6,232,89,236.5,84.1z M224.4,64.4v20.3h2.7V75l9.1,4.4l-5.1-6.9l7-2.3l-11-5.7v-0.2c0.9-0.2,1.5-0.6,1.5-1.1c0-0.7-1.1-1.3-2.7-1.3c-1.5,0-2.7,0.6-2.7,1.3C223.2,63.8,223.7,64.2,224.4,64.4z" />
  <path fill="#F7E017" d="M225.1,229.2c0.1,0.3-0.2,1.3-0.5,2.2c-0.7,1.9-1.6,3-3.3,3.5l0,0c-1.3,0.4-5.6,0.6-6.8,0.3c-0.5-0.1-1.1-0.4-1.3-0.6c-0.8-0.6,0-0.8,2.1-0.6c1.1,0.1,2.4,0.2,2.8,0.2c4.4-0.5,5.2-1.1,4.8-3.4c-0.2-0.9-0.1-1.2,0.5-1.6C224.2,228.6,224.9,228.6,225.1,229.2z M231.2,226.6c-0.7,1.2-0.7,1.2,0.3,1.5c0.5,0.1,1.1,0.5,1.3,1c1.1,1.9,0.8,3.1-0.9,3.1c-1.5,0-1.9,0.2-2.3,1.2c-0.2,0.5-0.4,1-0.4,1.2c0,0.4,0.6,0.3,1.1-0.1l0,0c0.2-0.2,1.1-0.6,1.9-0.9c1.1-0.3,1.6-0.7,2.1-1.4c1.3-1.9,1.1-3.6-0.8-5.8C232.5,225.2,232.1,225.3,231.2,226.6z M227.6,223.4c-0.2-0.2-1.5,0.5-1.6,1.1c-0.1,0.3,0.1,0.9,0.3,1.4c0.4,0.7,0.4,1.4,0.3,4.4c-0.2,3.7,0.1,4.3,0.9,2.2l0,0c0.3-0.8,0.4-2.1,0.4-5C227.8,225.3,227.7,223.4,227.6,223.4z M219.4,232.7c0.4-0.4,0.8-1.4,1-2.1c0.1-0.7,0.3-2.1,0.4-3.1c0.1-1,0.3-2.3,0.5-2.9c0.4-1.4,0-1.8-1.1-1l-0.8,0.6l0.2,2.1c0.2,1.9-0.1,5.3-0.6,6.7C218.8,233.3,218.9,233.2,219.4,232.7z M214.1,231.6L214.1,231.6c1.5-1.3,1.3-3.4,1.7-5.2c0-1.2,0.8-2.6,0.2-3.6c-1.4,0.3-2.3,1.6-1.6,2.9c0.1,1.6,0,3.3-0.8,4.6c-0.7,0.9-2.7,0.7-2.6-0.6c0.5-1.9-1.8-1-2.7-0.5c-0.7,0.5-2.2,0.5-1.7-0.7c-0.3-1.6-2.4-0.6-3.5-0.6s-0.1-2.2-1.6-1.8c-2.8-0.2-6,0-8.4-1.7c-1.4-0.7-1.2-2.4-0.5-3.5c0.9-1.5,1.1-3.4,2.6-4.6c1.4-1.3-1.3-0.8-1.9-0.3c-1.4,0.7-0.1,2.7-1.2,3.7c-0.7,1.1-1.5,2.6-3,2.4c-2.2-0.4-3.4-2.4-5-3.8c-1.3-0.3-0.6,2.2,0.1,2.7c1.4,1,3,1.8,4.6,2.2c1.6-0.3,1.7,1.9,3.1,2.2c2.6,1.2,5.5,1.6,8.3,1.7c1.1,0.1,0.5,2.1,1.9,1.7c0.8,0.2,2.6-0.3,2.7,0.6c-1.2,1.5,1.2,1.4,2.1,1.2c1.1-0.2,2.6-0.6,2.9,1c1,1,2.7,0.9,3.9,0.3C213.8,231.8,214,231.7,214.1,231.6z M191.2,213.1c-0.6,0.1-0.9,0.4-1,0.9c-0.4,1.8-1,3.6-1.6,4.4c-1,1.5-1.1,1.6-0.6,1.6c0.2,0,0.8-0.5,1.2-1.1c0.5-0.6,1.2-1.8,1.5-2.6c0.4-0.9,1-1.9,1.3-2.2C192.8,213.4,192.3,212.9,191.2,213.1z M183.6,216.4c-0.7,0.4-1.5,0.7-1.6,0.7s-0.3-0.5-0.3-1.2l-0.1-1.1l-1.9-0.2c-2.9-0.3-3.6-0.6-4.7-2.8c-0.4-0.8-0.8-1.2-1.4-1.4c-1.1-0.4-1.1-1.1,0.1-1.1c0.9,0,2,0.9,3,2.5c1.2,2,3.5,2.3,5.6,0.8c0.7-0.5,1.5-0.8,2-0.8c1,0,2.1,0.7,2.1,1.4C186.2,214,184.9,215.7,183.6,216.4z M184.2,214.5c0.3-0.8,0.2-1.2-0.4-1.2c-0.6,0-0.9,0.6-0.7,1.2C183.3,215,184,215,184.2,214.5z M264.4,219.9c-0.9,1.8-3.2,4.1-4.9,5c-1.3,0.6-2.3,0.8-2.1,0.2c0.1-0.2,0.7-0.8,1.5-1.3c2.8-1.9,5.4-5.4,5.4-7.3c0-0.7-0.2-0.7-1.6-0.2c-1,0.4-1,0.4-1.5-0.2c-0.7-0.9-0.7-3.4,0.1-4.6c0.5-0.7,0.7-0.9,1.5-0.9c0.1,0,0.2,0,0.4,0c1.1,0,1.2,0.1,1.7,1c0.4,0.8,0.5,1.5,0.4,3.8C265.2,218,265.1,218.5,264.4,219.9z M263.7,213.3c-0.1-0.8-0.2-1-0.7-1c-1,0-1.4,1.2-0.7,2.2c0.5,0.7,0.5,0.7,1,0.2C263.6,214.4,263.7,214,263.7,213.3z M254,222.8c-0.7,0-0.9-0.5-0.6-1.9c0.3-1.3-0.1-3-0.6-3c-0.2,0-0.6,0.3-0.8,0.7c-0.4,0.6-0.4,0.8-0.1,1.7c0.4,1.3,0.1,2.2-1,3c-0.5,0.4-0.8,0.8-0.8,1.3c0,0.4,0,0.7,0.1,0.7s0.6-0.3,1.3-0.7l1.2-0.7l0.7,0.6c0.4,0.3,0.7,0.8,0.7,1.1c0,1.5-4.2,4-7.1,4.2c-1.5,0.1-1.8,0.1-2.3-0.5c-0.4-0.4-0.6-0.8-0.5-1.3c0.1-0.4,0.2-1.1,0.3-1.6c0.3-1.3-0.3-1.1-1.2,0.4c-0.8,1.2-1,2.6-0.6,3.3c0.4,0.6,2.8,1.1,4.5,1c1.1-0.1,2.1-0.4,3.2-0.9l0,0c2.4-1.2,3.9-2.5,4.8-4.5c0.4-0.9,0.8-1.8,0.8-2C255.9,223.3,254.7,222.8,254,222.8z M272.1,208.9c-0.5,0.7-1.2,1.1-3.8,2.3c-0.6,0.3-0.7,0.5-0.8,3.1c-0.2,3.1-0.6,4.3-2.3,6.4c-1.1,1.3-1.1,1.5-0.4,1.5c0.3,0,1.1-0.5,1.7-1.2c1.5-1.5,2.2-3.4,2.2-6.3v-2.2l1.3-0.6c1.6-0.8,3.2-2.3,3.2-3.2C273.2,207.9,272.8,208,272.1,208.9z M248.8,218.9c-0.2,0.2-0.2,0.4-0.1,0.6c0.2,0.4,1,0.3,1.2-0.2l0,0C250,218.9,249.2,218.5,248.8,218.9z M271.8,212.9c-0.2,0.2-0.2,0.4-0.1,0.6c0.2,0.4,1,0.3,1.2-0.2C273,212.9,272.2,212.6,271.8,212.9z M242.6,213.8c-0.7,0.3-1.6,0.5-2.4,0.3c-0.6-0.6-0.5-1.5-0.7-2.3h-2.3c-0.2,0-0.6,0.1-0.7-0.1c0-0.9-0.1-1.8,0.2-2.6c0.7-0.4,0.7,1.1,1.4,1.1c1.2,0.1,2-0.9,3.2-1c1.3,0,2.5,0.3,3.8,0.4c0.8,0.2,1.3-0.5,1.5-1.1c0.5-1.8-0.1-3.6-0.6-5.2c-0.5-1.4-0.9-3-2-4.1c-0.2-0.2-0.4-0.4-0.1-0.6c0.4-0.5,0.7-1.1,1.3-1.4l0,0c0.1,0,0.2,0.1,0.2,0.1c0.4,1,0.6,2,1,3c0.7,2.3,1.6,4.5,1.7,6.9c0.1,1.6-0.9,3.1-2.4,3.6c-0.6,0.3-1.7,0.1-1.9,0.9C243.5,212.5,243.4,213.4,242.6,213.8z M241.4,210.8L241.4,210.8c-0.8-0.1-1.1,0.7-0.7,1.3c0.2,0.7,1.4,1.3,1.7,0.3C242.6,211.8,242.2,210.8,241.4,210.8z M238.1,207.5c-0.9,0.2-1.6,0.4-1.7,0.6c-0.4,1.3-3.3,3-5.4,3.2c-0.7,0.1-1.7,0-2.6-0.3c-1.2-0.4-1.8-0.4-4.5-0.2c-2.9,0.3-3.1,0.2-3.5-0.2c-0.3-0.4-0.7-0.5-1.5-0.5c-0.6,0-1.9-0.1-2.9-0.2c-1.8-0.2-1.8-0.2-1.8-0.9c0-0.9,0-1-2-1.2l-1.6-0.2l-1.4,1.5c-0.9,0.9-1.9,1.7-2.7,2.1c-1.8,0.8-4.5,0.9-6.7,0.4c-2.1-0.5-2.9-1-3.2-1.9c-0.2-0.9,0-1.1,1.1-0.7c4.2,1.7,6.4,1.9,8.9,0.6c1.7-0.9,2-1.5,0.9-2c-1.5-0.7-0.9-2.5,1.3-4.1c0.4-0.3,0.8-0.4,1.2-0.4l0,0c0.8,0,1.5,0.7,1.5,1.8c0,1.9,0.7,2.2,3.1,1.6c1-0.3,1.3-0.3,1.6,0s0.3,0.5,0,0.9c-0.3,0.5-0.3,0.6,0.1,1.1c0.5,0.5,0.7,0.5,3.1,0.4c2.2-0.1,2.6-0.1,2.6,0.2c0,0.7,0.5,0.7,2,0.1l1.5-0.6l0.7,0.6c0.4,0.4,0.7,0.5,0.8,0.3c0.3-0.4,1.7-0.4,2.6,0.1c0.6,0.3,1.2,0.4,1.9,0.3c1.1-0.2,3.6-1.3,3.9-1.8c0.1-0.1-0.2-0.5-0.6-0.8c-0.6-0.5-1-0.6-2.2-0.4c-1.3,0.1-1.4,0.1-1.4-0.4c0-0.7,1-1.4,2.1-1.4c0.5,0,1.5,0.2,2.2,0.5s2,0.6,2.9,0.7C240.3,206.6,240.2,207.1,238.1,207.5z M209.8,205c-0.2-0.2-0.3-0.2-0.4-0.2c-0.1,0-0.3,0.1-0.5,0.2c-0.3,0.2-0.4,0.5-0.3,0.8c0.2,0.6,1.2,0.6,1.5,0C210.1,205.6,210,205.2,209.8,205z M195.2,198.4c-3.1,3.5-3.4,4.2-1.8,5.2c1.2,0.8,2.8,0.7,4.1-0.1l1-0.7v1.2c0,1.6,0.3,2.2,1.6,2.8c1.6,0.8,3.5,0.7,5-0.3c1.5-0.9,1.4-0.9,1.6-3.5c0.1-1.8,0.1-2-0.4-2c-0.7,0-1.1,0.8-1.1,2.3c0,1-0.2,1.4-0.7,1.9c-1.2,1.2-4.3,0.7-4.6-0.9c-0.1-0.5,0-1,0.7-1.9c1.3-1.9,1-2.4-0.6-0.9c-1.1,1-1.3,1-1.1,0.2s-0.2-1.1-1.1-0.9c-0.5,0.1-0.7,0.4-0.8,1s-0.4,0.9-0.8,1c-0.7,0.2-2-0.5-2-1.1c0-0.4,1.9-2.7,4.3-5.2c0.9-1,1.7-1.8,1.7-2s-0.5-0.2-1.1-0.2c-0.9,0-1.1,0.1-1.1,0.5C197.9,195.1,196.7,196.7,195.2,198.4z M256.7,206.8c-1,0.6-0.9-0.5-0.2-0.9c1.6-1.4,3.3-2.9,3.9-5c0.2-1,1-2.4,0.4-3.3c-1.2-0.4-2.6-0.4-3.9-0.6c0,1.1,0.2,2.2,0.1,3.3c-0.6,1.5-1.8,2.9-3.5,3.1c-1.1,0.3-2.4-0.2-3.4-0.1c-0.4,1.2,0.1,2.5-0.4,3.6c-0.7-0.3-0.4-1.7-0.6-2.5c-0.4-1.8-0.9-3.7-2-5.2c-0.3-0.8,0.4-2.2,1.2-2.3c0.7,0.8,0.4,2.1,1,3.1c0.8,1.1,0.8-0.9,1.3-1.3c1,0.1,0.3,2,1.4,2.6c1.1,1.1,3,0.2,3.5-1c0.6-1.1,0-2.2-0.6-3.1c-0.7-0.8-1.2-2.6,0.2-2.8c0.9,0.2,1.1,1.3,1.5,2c0.3-0.9,0.5-2,1.2-2.7c1-1,2.5-0.3,3.3,0.5c0.9,1.5,1.8,0,2.2-1c0.7-1.5,1.9-3,3.6-3.3c1.2-0.2,2.9-0.6,3.4-1.9c-0.2-1-1.1-2.4,0.1-3.1l0,0c1,0.1,1,1.5,1.1,2.3c0.1,1.5-0.9,2.8-2.2,3.5c-1,0.5-2.4,1.1-2,2.5c0.4,1.2-0.6,2.6-1.8,2.6c-1.2,0-2.7-0.3-3.4,1c-0.4,1.7,0.1,3.5-0.6,5.1C260.4,203.9,258.8,205.9,256.7,206.8z M264.7,194c0.7,1.7,2.4-1,1-1.3C265,192.7,264.5,193.4,264.7,194z M259.2,194.6c-0.9,0-1.2,0.9-0.4,1.3C260.4,197.1,261,194.5,259.2,194.6z M192.9,205.2c0.2,0.4,0.8,0.2,0.9-0.4c0-0.3-0.1-0.5-0.3-0.5C193,204.3,192.7,204.8,192.9,205.2z M214.4,203c0.4,0,0.6-0.2,0.6-0.6c0-0.4-0.1-0.5-0.5-0.5C213.8,202.1,213.7,203,214.4,203z M187.1,190.9c0.3-0.7,0.8-1.4,1.7-1.2l0,0c0.3,0,0.5,0,0.8,0.1c0.7,0.5-0.4,0.9-0.7,1.2c-1.1,1.2-2.2,2.4-3.2,3.6c-0.5,0.4-1.1,1.7,0,1.7c1.6-0.1,2.7-1.4,4.3-1.6c0.6,0,1.5,0.1,1.8,0.7c-0.3,0.7-0.9,1.2-1.4,1.7c-0.2,0.4-1.3,0.6-0.9,1c0.9,0.2,1.9,0.4,2.8,0c1.2-0.9,2.2-2.1,3.2-3.3c0.6-0.6,0.8-1.5,1.6-1.8c0.9-0.5,1.4,1.2,0.5,1.4c-1.2,1-2.1,2.3-3.2,3.4c-0.8,0.9-1.8,1.6-3,1.6c-1.7,0.1-3.3-0.2-5-0.2c-0.2,0.3-0.4,0.6-0.7,0.9c-0.3,0.3-0.8,1.3-1.2,0.9c-0.2-0.9,0.1-1.8,0.5-2.5s0.1-1.8-0.8-1.8c-0.8,0.3-1.1-0.5-1.1-1.2c-0.3-0.8-1.2-1-1.9-1.4c-0.8-0.4-1.7-1-1.6-2c0-0.7,1.1-1.4,1.7-0.9c0.4,0.7,0.2,1.7,1,2.1c0.7,0.4,1.6,0.7,2.4,0.5C185.7,193.1,186.5,192,187.1,190.9z M188.5,197c0.5,0.1,1.8-0.6,1-1.1c-0.4,0-0.8,0.2-1.1,0.4C187.8,196.5,187.8,197.2,188.5,197z M187.6,198.3c0.9-0.3-0.1-0.7-0.5-0.7C186.3,197.8,187,198.7,187.6,198.3z M205.3,199.1c0.3,0,0.6-0.3,0.6-0.5c0-0.6-1.1-0.5-1.2,0.1C204.7,199.1,204.8,199.2,205.3,199.1z M252,195.1c0.3,0,0.5-0.3,0.6-0.6l0,0c0.1-0.6-0.7-0.9-1.1-0.5S251.5,195.2,252,195.1z M176.6,188.6c1.7,1,2.3,1,3.3,0.1c0.7-0.6,0.7-0.7,0.4-2.1c-0.5-1.9-0.4-2.1,0.3-2.3c0.9-0.2,3.3,1,3.8,2c0.4,0.8,0.4,0.8-0.3,1.5s-0.7,1.5,0,1.5c0.6,0,2.3-1.6,2.3-2.2c0-0.8-1.9-2.7-3.4-3.4c-0.9-0.4-1.8-0.6-2.9-0.6c-1.9,0-2.2,0.4-1.7,2.6c0.6,2.6-0.2,3-2.3,1c-1.6-1.5-2.2-3-2.2-5.4c0-2.6,1-3.8,3.2-4.1c1.5-0.2,1.4-0.5-0.1-0.8c-2.2-0.3-4.1,1.1-4.8,3.8C171.6,183.2,173.4,186.8,176.6,188.6z M265.4,183.6c0.7,0.4,0.8,0.6,0.7,1.2c-0.2,1,0.2,1.4,0.9,0.7l0,0c0.2-0.2,0.3-0.6,0.3-0.9s0.3-1,0.7-1.5c0.4-0.5,0.7-1,0.7-1.1c0-0.5-0.8-0.5-1.5,0s-1.2,0.5-1.2,0c0-0.1,0.3-0.4,0.7-0.6c1-0.5,1.1-1,0.2-1.3c-1.1-0.5-2.2,0.4-2.3,1.9C264.5,183,264.6,183.2,265.4,183.6z M278.7,177.5c-0.3-0.8-1.3-1.9-3.4-3.8c-1.6-1.5-3.2-2.7-3.3-2.7c-0.6,0-0.5,2.1,0.1,2.3c1.1,0.3,1.7,0.8,3.4,2.3c2,1.8,2.9,3.4,2.4,4.3c-0.5,0.9-1.1,0.6-2.8-1.2c-0.9-1-1.8-1.8-2-1.8s-0.3,0.4-0.3,0.8c0,0.6,0.3,1.2,1.2,2.2c1.5,1.6,1.6,2.6,0.5,3.4c-0.4,0.3-0.8,0.6-0.9,0.6s-0.4-0.5-0.7-1.1c-0.6-1.2-4.3-5.2-4.9-5.2c-0.3,0-0.4,0.3-0.4,0.9c0,0.8,0.1,1,0.8,1.3c0.7,0.4,2.6,2.2,4.4,4.4c0.5,0.6,1,1.1,1.2,1.2c0.1,0,0.7-0.4,1.3-1c0.6-0.5,1.1-1.2,1.1-1.4s0.5-0.7,1.2-1.2C279.2,180.8,279.5,179.5,278.7,177.5z M273.6,170.8c0.4,0.1,1.7,1.1,2.9,2.3c1.2,1.1,2.2,2,2.3,1.9c0.1-0.1,0.1-0.4,0-0.8l0,0c-0.2-0.8-5.2-5.9-5.7-5.9c-0.3,0-0.4,0.3-0.3,1.1C272.8,170.4,272.9,170.6,273.6,170.8z M248.2,231.4c-0.4,0-0.7,0.3-0.7,0.7s0.3,0.7,0.7,0.7s0.7-0.3,0.7-0.7C249,231.7,248.6,231.4,248.2,231.4z M250.8,230.5c-0.4,0-0.7,0.3-0.7,0.7s0.3,0.7,0.7,0.7s0.7-0.3,0.7-0.7S251.2,230.5,250.8,230.5z" />
</svg>
