<svg xmlns="http://www.w3.org/2000/svg" width="450px" height="300px" viewBox="0 0 450 300">
  <g>
    <path fill="#007934" d="M0,0h450v300H0V0z" />
    <path fill="#F9E300" d="M0,0h450v200H0V0z" />
    <path fill="#D52B1E" d="M0,0h450v100H0V0z" />
  </g>
  <g>
    <path fill="#A05A2C" stroke="#000000" stroke-width="0.0868" d="M255.4,131.7c-0.4,0.3-61,60.9-61.3,61.2c-0.2-0.2-0.6-0.5-0.8-0.6c0.2-0.3,60.9-60.8,61.3-61.2C254.4,130.9,255.6,131.9,255.4,131.7L255.4,131.7z M189.8,135.9c0.4,0.3,70.3,53,70.6,53.3c0.2-0.2,0.5-0.5,0.7-0.7c-0.3-0.2-70.2-52.9-70.6-53.2C190.6,135,189.5,136.1,189.8,135.9L189.8,135.9z M266.9,139.2c-0.5,0.2-78.2,44.1-78.5,44.3c-0.1-0.2-0.4-0.6-0.6-0.8c0.3-0.2,78.1-44,78.5-44.3C266.2,138.3,267.1,139.5,266.9,139.2L266.9,139.2z M194.6,131.7c0.4,0.3,61,60.9,61.3,61.2c0.2-0.2,0.6-0.5,0.8-0.6c-0.2-0.3-60.9-60.8-61.3-61.2C195.6,130.9,194.4,131.9,194.6,131.7L194.6,131.7z M260.2,135.9c-0.4,0.3-70.3,53-70.6,53.3c-0.2-0.2-0.5-0.5-0.7-0.7c0.3-0.2,70.2-52.9,70.6-53.2C259.4,135,260.5,136.1,260.2,135.9L260.2,135.9z M183.1,139.2c0.5,0.2,78.2,44.1,78.5,44.3c0.1-0.2,0.4-0.6,0.6-0.8c-0.3-0.2-78.1-44-78.5-44.3C183.8,138.3,182.9,139.5,183.1,139.2L183.1,139.2z" />
    <path fill="#E7E7E7" stroke="#000000" stroke-width="0.0868" d="M259.2,127.8c-0.2,0.4-0.9,1.5-0.6,2.3c-0.5-0.3-0.7-0.6-1.2-0.9c0.3,0.6,0.2,0.9-0.1,1.1c-0.2,0.3-0.9,0.2-1.3,0.1c0.4,0.3,0.9,0.5,1.5,0.6s0.8,0,1.2,0.1c-0.4,0.2-1.3,0.5-2,0.6c-0.3,0.1-1,0.1-1.3-0.1c-0.4,0.3-1.2-0.2-0.8-0.6c-0.2-0.2-0.2-0.5-0.2-0.9s0.1-1.2,0.4-1.9c0.1,0.4,0.2,0.7,0.3,1.1c0.1,0.3,0.4,0.6,0.7,0.9c-0.2-0.3-0.3-0.8,0.1-1.1c0.3-0.3,0.8-0.3,1.2-0.2c-0.4-0.3-0.7-0.5-1.2-0.8c0.5,0,2-0.6,2.6-0.9c0.5-0.3,2.1-1.6,3.1-2.4C260.7,125.8,259.4,127.4,259.2,127.8L259.2,127.8z M185.4,132.6c0.3,0.4,1.1,1.4,1,2.2c0.4-0.4,0.6-0.6,1.1-1c-0.2,0.6-0.1,0.9,0.3,1.1c0.2,0.2,0.9,0.1,1.3,0c-0.4,0.3-0.8,0.6-1.4,0.8c-0.6,0.1-0.8,0.1-1.2,0.2c0.4,0.2,1.4,0.4,2.1,0.4c0.3,0,1,0,1.3-0.2c0.4,0.3,1.1-0.4,0.7-0.7c0.1-0.2,0.1-0.5,0.1-0.9s-0.2-1.2-0.7-1.8c0,0.4,0,0.7-0.1,1.1c-0.1,0.3-0.3,0.6-0.5,1c0.1-0.3,0.1-0.8-0.2-1.1c-0.4-0.3-0.8-0.2-1.2,0c0.3-0.3,0.6-0.6,1-1c-0.5,0.1-2.1-0.4-2.7-0.6c-0.6-0.2-2.4-1.3-3.4-2C183.5,130.7,185.1,132.2,185.4,132.6L185.4,132.6z M271.8,136.4c-0.4,0.4-1.3,1.3-1.4,2.1c-0.4-0.4-0.5-0.7-0.9-1.2c0.1,0.6-0.1,0.9-0.4,1c-0.3,0.2-0.9,0-1.3-0.2c0.3,0.4,0.7,0.7,1.3,0.9s0.8,0.2,1.1,0.3c-0.4,0.1-1.4,0.2-2.1,0.1c-0.3,0-1-0.1-1.2-0.4c-0.5,0.2-1-0.5-0.6-0.8c-0.1-0.2,0-0.5,0.1-0.9s0.4-1.1,1-1.7c-0.1,0.4-0.1,0.7,0,1.1c0,0.4,0.2,0.7,0.4,1c-0.1-0.3,0-0.8,0.4-1s0.9-0.1,1.2,0.1c-0.3-0.4-0.5-0.6-0.8-1.1c0.5,0.1,2.2-0.1,2.7-0.3c0.6-0.2,2.6-1,3.7-1.6C274,134.9,272.1,136.1,271.8,136.4L271.8,136.4z M190.8,127.8c0.2,0.4,0.9,1.5,0.6,2.3c0.5-0.3,0.7-0.6,1.2-0.9c-0.3,0.6-0.2,0.9,0.1,1.1c0.2,0.3,0.9,0.2,1.3,0.1c-0.4,0.3-0.9,0.5-1.5,0.6s-0.8,0-1.2,0.1c0.4,0.2,1.3,0.5,2,0.6c0.3,0.1,1,0.1,1.3-0.1c0.4,0.3,1.2-0.2,0.8-0.6c0.2-0.2,0.2-0.5,0.2-0.9s-0.1-1.2-0.4-1.9c-0.1,0.4-0.2,0.7-0.3,1.1c-0.1,0.3-0.4,0.6-0.7,0.9c0.2-0.3,0.3-0.8-0.1-1.1c-0.3-0.3-0.8-0.3-1.2-0.2c0.4-0.3,0.7-0.5,1.2-0.8c-0.5,0-2-0.6-2.6-0.9c-0.5-0.3-2.1-1.6-3.1-2.4C189.3,125.8,190.6,127.4,190.8,127.8L190.8,127.8z M264.6,132.6c-0.3,0.4-1.1,1.4-1,2.2c-0.4-0.4-0.6-0.6-1.1-1c0.2,0.6,0.1,0.9-0.3,1.1c-0.2,0.2-0.9,0.1-1.3,0c0.4,0.3,0.8,0.6,1.4,0.8c0.6,0.1,0.8,0.1,1.2,0.2c-0.4,0.2-1.4,0.4-2.1,0.4c-0.3,0-1,0-1.3-0.2c-0.4,0.3-1.1-0.4-0.7-0.7c-0.1-0.2-0.1-0.5-0.1-0.9s0.2-1.2,0.7-1.8c0,0.4,0,0.7,0.1,1.1c0.1,0.3,0.3,0.6,0.5,1c-0.1-0.3-0.1-0.8,0.2-1.1c0.4-0.3,0.8-0.2,1.2,0c-0.3-0.3-0.6-0.6-1-1c0.5,0.1,2.1-0.4,2.7-0.6c0.6-0.2,2.4-1.3,3.4-2C266.5,130.7,264.9,132.2,264.6,132.6L264.6,132.6z M178.2,136.4c0.4,0.4,1.3,1.3,1.4,2.1c0.4-0.4,0.5-0.7,0.9-1.2c-0.1,0.6,0.1,0.9,0.4,1c0.3,0.2,0.9,0,1.3-0.2c-0.3,0.4-0.7,0.7-1.3,0.9s-0.8,0.2-1.1,0.3c0.4,0.1,1.4,0.2,2.1,0.1c0.3,0,1-0.1,1.2-0.4c0.5,0.2,1-0.5,0.6-0.8c0.1-0.2,0-0.5-0.1-0.9s-0.4-1.1-1-1.7c0.1,0.4,0.1,0.7,0,1.1c0,0.4-0.2,0.7-0.4,1c0.1-0.3,0-0.8-0.4-1s-0.9-0.1-1.2,0.1c0.3-0.4,0.5-0.6,0.8-1.1c-0.5,0.1-2.2-0.1-2.7-0.3c-0.6-0.2-2.6-1-3.7-1.6C176,134.9,177.9,136.1,178.2,136.4L178.2,136.4z" />
  </g>
  <g>
    <path fill="#A05A2C" stroke="#000000" stroke-width="0.0944" d="M216.5,172.6c0.1,0.5-6.8,7.5-9.6,12.1c0.1-0.1,5.2,3.2,6.6,3.2c0,0,1.9-3.6,2.3-3.9c0.3-0.6,3-5.9,3-5.8C219,177.5,218.4,169.3,216.5,172.6z M231.6,178.3c0.1-0.1,2.7,5.3,3,5.8c0.4,0.3,2.3,3.9,2.3,3.9c1.3,0,6.5-3.3,6.6-3.2c-2.9-4.6-9.8-11.7-9.6-12.1C231.9,169.3,231.3,177.5,231.6,178.3z" />
    <path fill="#A05A2C" stroke="#000000" stroke-width="0.0952" d="M213.2,174.3c0.1,0.4-6.5,7.5-9.3,12.2c0.1-0.1,5.2,3.1,6.6,3.1c0,0,1.8-3.6,2.2-3.9c0.3-0.6,2.8-5.9,2.9-5.8c0.3-0.8,1.6-0.6,1.9-1.3C217.4,178.3,215,171,213.2,174.3z M232.9,178.6c0.3,0.6,1.7,0.5,1.9,1.3c0.1-0.1,2.6,5.2,2.9,5.8c0.4,0.3,2.2,3.9,2.2,3.9c1.3,0,6.5-3.2,6.6-3.1c-2.8-4.6-9.5-11.7-9.3-12.2C235.3,171,232.9,178.3,232.9,178.6z" />
    <path fill="none" stroke="#000000" stroke-width="0.0944" d="M215.1,183.2l5.1-8.4 M212.1,184.8l4.9-8.4 M230.1,174.8l5.1,8.4 M233.4,176.5l4.9,8.4" />
    <path fill="#CCE5E5" stroke="#000000" stroke-width="0.0944" d="M249.5,116.4l-7.9,13.6c-0.2,0.5-0.1,0.9,0.5,1l1.7,0.7c-1.3,2.6-6.3,11.9-6.3,11.9s-12,27.1-11.2,26.5l18.9-38.7c0-0.2-2.5-0.9-2.2-1.6L249.5,116.4z M244.8,118.2l-7.6,13.6c-0.2,0.5-0.1,0.9,0.5,1l1.7,0.7c-1.2,2.6-17.3,38.8-16.5,38.2l17.9-38.5c0-0.2-1.9-0.8-1.9-0.8c-0.2-0.1-0.6-0.1-0.3-0.7L244.8,118.2z M207.3,129.9c0.3,0.7-2.2,1.3-2.2,1.6l18.9,38.7c0.8,0.6-11.2-26.5-11.2-26.5s-5-9.3-6.3-11.9l1.7-0.7c0.5-0.1,0.7-0.5,0.5-1l-7.9-13.6L207.3,129.9z M211.7,131.6c0.3,0.7-0.2,0.6-0.3,0.7c0,0-1.9,0.6-1.9,0.8l17.9,38.5c0.8,0.6-15.3-35.6-16.5-38.2l1.7-0.7c0.5-0.1,0.7-0.5,0.5-1l-7.6-13.6L211.7,131.6z" />
    <path fill="#A05A2C" stroke="#000000" stroke-width="0.0868" d="M222,156.7c0.3-0.4,22-23.4,22.2-23.7c-0.2-0.2-0.7-0.4-0.9-0.6c-0.2,0.3-21.9,23.3-22.3,23.7C220.9,156,222.3,156.9,222,156.7z" />
    <path fill="#E7E7E7" stroke="#000000" stroke-width="0.1436" d="M245.1,131.5c0.6,0.5,0.9,0.5,1.7,1c0.9,0.5,2-0.7,2.6-1.1c0,0,0.6,2.1-0.7,3.5s-2.8,1.7-4.1,1.3c0,0,1.6-1.6,1-2.3s-0.9-0.7-1.5-1.1 M243.6,132.6c-0.8-0.6-2.2-1.4-3.1-1.1c-0.3-1.3,1.6-2.7,2.4-2.5c-0.2,1.5,2,2.4,1.9,2.4L243.6,132.6z" />
    <path fill="#E7E7E7" stroke="#000000" stroke-width="0.1436" d="M245.9,131.5l-1.8,1.9l-1.2-0.8l1.8-1.9L245.9,131.5z" />
  </g>
  <g>
    <path fill="#007934" stroke="#000000" stroke-width="0.0769" d="M217.6,181.4L217,187c0,0,0.9-1.1,1.1-1.4c0.2-0.4,1-1.3,1.1-4.6c0,0-0.6-1.8-0.9-1.8C217.9,179,217.6,181.4,217.6,181.4L217.6,181.4z M219,168.9c0,0-1.5,9.1-1.7,9.9c0,0.3,0.8,1,1.3-0.7l0.9-6.6C219.6,171.4,219.2,169.7,219,168.9z M232.4,181.4l0.6,5.6c0,0-0.9-1.1-1.1-1.4c-0.2-0.4-1-1.3-1.1-4.6c0,0,0.6-1.8,0.9-1.8C232.1,179,232.4,181.4,232.4,181.4L232.4,181.4z M231,168.9c0,0,1.5,9.1,1.7,9.9c0,0.3-0.8,1-1.3-0.7l-0.9-6.6C230.4,171.4,230.8,169.7,231,168.9z" />
    <path fill="#FFE000" stroke="#000000" stroke-width="0.0769" d="M217,187.1c0,0,2.1-1.8,2.2-6l0.3-1.2c0,0,0,0.9,0.5,0.2c0.4-0.9,0.4-1.8,0.4-1.8s0.8-1,1,0.2c0,0-0.7,5.5-0.8,6c-0.1,0.6-0.2,1.3-0.2,1.3s-0.4-0.7-0.8,0C219.1,186.6,218.4,187.5,217,187.1z M219.6,171.4l-0.9,6.6c0,0,0.7,0.3,0.9,1.9c0.1,0.7,0.3,0.3,0.5,0.2c0.2-0.5,0-1.4,0-1.4l0.4-4.6C220.4,174.1,219.6,172,219.6,171.4z M233,187.1c0,0-2.1-1.8-2.2-6l-0.3-1.2c0,0,0,0.9-0.5,0.2c-0.4-0.9-0.4-1.8-0.4-1.8s-0.8-1-1,0.2c0,0,0.7,5.5,0.8,6c0.1,0.6,0.2,1.3,0.2,1.3s0.4-0.7,0.8,0C230.9,186.6,231.6,187.5,233,187.1z M230.4,171.4l0.9,6.6c0,0-0.7,0.3-0.9,1.9c-0.1,0.7-0.3,0.3-0.5,0.2c-0.2-0.5,0-1.4,0-1.4l-0.4-4.6C229.6,174.1,230.4,172,230.4,171.4z M218.8,186.7l-0.1,1.6c0,0,0.6,0,1-0.7c0.5-0.7,0.7-1.8,0.7-1.8s-0.5-0.7-0.8,0C219.2,186.5,218.8,186.7,218.8,186.7z M220,180.1c0.3-0.6,0.4-1.7,0.4-1.8l-0.4,0.4C220.1,179.4,220,180.1,220,180.1z M231.2,186.7l0.1,1.6c0,0-0.6,0-1-0.7c-0.5-0.7-0.7-1.8-0.7-1.8s0.5-0.7,0.8,0C230.8,186.5,231.2,186.7,231.2,186.7z M230,180.1c-0.3-0.6-0.4-1.7-0.4-1.8l0.4,0.4C229.9,179.4,230,180.1,230,180.1z" />
    <path fill="#D52B1E" stroke="#000000" stroke-width="0.0769" d="M222.4,177.9c-0.4-0.5-0.8-1-0.9-1.3l-0.2,2c0,0,1.3,0.9,1.1,2.7l0.2-0.4l0.1-0.7c0,0,0.3-1.2,0.3-1.9C223,178.3,222.8,178.2,222.4,177.9z M227.6,177.9c0.4-0.5,0.8-1,0.9-1.3l0.2,2c0,0-1.3,0.9-1.1,2.7l-0.2-0.4l-0.1-0.7c0,0-0.3-1.2-0.3-1.9C227,178.3,227.2,178.2,227.6,177.9z M222,179.5c-0.3-0.6-0.8-0.9-0.8-0.9l-0.9,7.4c0,0-0.3,1.9-1.4,2.4c0,0,0.7,6.5,2.8,4.7c0.3-0.2,0.7-2.2,0.6-3.4c-0.1-1.3-0.5-3-0.5-3.8s0.1-1.7,0.3-3c0.1-0.5,0.3-1.5,0.4-1.6C222.5,181.1,222.3,180.2,222,179.5L222,179.5z M228,179.5c0.3-0.6,0.8-0.9,0.8-0.9l0.9,7.4c0,0,0.3,1.9,1.4,2.4c0,0-0.7,6.5-2.8,4.7c-0.3-0.2-0.7-2.2-0.6-3.4c0.1-1.3,0.5-3,0.5-3.8s-0.1-1.7-0.3-3c-0.1-0.5-0.3-1.5-0.4-1.6C227.5,181.1,227.7,180.2,228,179.5L228,179.5z M223,178.3c0,0,0.6,0.6,0.7,0.6c0.1,0-1.5,12.1-1.5,12.1s0.1-1.3-0.4-3.7c-0.4-2,0.1-4.7,0.5-6C222.4,181.3,222.9,180.9,223,178.3L223,178.3z M227,178.3c0,0-0.6,0.6-0.7,0.6c-0.1,0,1.5,12.1,1.5,12.1s-0.1-1.3,0.4-3.7c0.4-2-0.1-4.7-0.5-6C227.6,181.3,227.1,180.9,227,178.3L227,178.3z" />
    <path fill="#007934" stroke="#000000" stroke-width="0.0769" d="M219.5,179.9c0,0-0.3-3.8-2.2-1.1c-0.1,0-0.2,1.5-0.1,1.9c0.1,0.5,0.6,1.1,0.8,1.4c0.4,0.6,0.8-0.1,0.8-0.1S219.3,181.3,219.5,179.9z M230.5,179.9c0,0,0.3-3.8,2.2-1.1c0.1,0,0.2,1.5,0.1,1.9c-0.1,0.5-0.6,1.1-0.8,1.4c-0.4,0.6-0.8-0.1-0.8-0.1S230.7,181.3,230.5,179.9z" />
    <path fill="#D52B1E" stroke="#000000" stroke-width="0.0769" d="M192.2,168.8c-0.9-2.7,0.3-8,0.2-11.3c-0.1-2.2,1.5-10.4,1.5-12.8l-8.8-5.5c0,0-0.4,9-1.4,18.7c-0.9,5-0.9,9.6-0.3,13.4c0.9,5.4,1.9,7.7,4.1,10c3.9,4,12.3,1.7,12.3,1.7c7.1-1.5,11.1-5.9,11.1-5.9s-2.3,0.5-6,0.9c-8.2-0.6-11.4,1.5-11.6-6.9 M257.8,168.8c0.9-2.7-0.3-8-0.2-11.3c0.1-2.2-1.5-10.4-1.5-12.8l8.8-5.5c0,0,0.4,9,1.4,18.7c0.9,5,0.9,9.6,0.3,13.4c-0.9,5.4-1.9,7.7-4.1,10c-3.9,4-12.3,1.7-12.3,1.7c-7.1-1.5-11.1-5.9-11.1-5.9s2.3,0.5,6,0.9c8.2-0.6,11.4,1.5,11.6-6.9" />
    <path fill="none" stroke="#000000" stroke-width="0.0769" d="M187.5,144.1c0.7,1.2,5.1,7.9,7.5,9.1 M188.2,148.4c0.7,1.3,6.1,8.7,8.5,9.1 M187,159.8c1.2,1.5,2.4,4.4,6.1,6.2 M188.7,168.1c2.4,2.3,8.5,7.3,14.3,7.5 M188.7,171.9c1.2,1.5,3.9,8.3,15,5.2 M187,173.1c0.7,1.6,6.3,10.8,16.2,7.3 M262.5,144.1c-0.7,1.2-5.1,7.9-7.5,9.1 M261.8,148.4c-0.7,1.3-6.1,8.7-8.5,9.1 M263,159.8c-1.2,1.5-2.4,4.4-6.1,6.2 M261.3,168.1c-2.4,2.3-8.5,7.3-14.3,7.5 M261.3,171.9c-1.2,1.5-3.9,8.3-15,5.2 M263,173.1c-0.7,1.6-6.3,10.8-16.2,7.3" />
    <path fill="#D52B1E" stroke="#000000" stroke-width="0.077" d="M204.9,148.1c-0.1-2.2-0.8-5.8-0.8-8.3l-7.5-7.6c0,0-0.9,6.2-3.7,9.7L204.9,148.1 M245.1,148.1c0.1-2.2,0.8-5.8,0.8-8.3l7.5-7.6c0,0,0.9,6.2,3.7,9.7L245.1,148.1" />
    <path fill="#D52B1E" stroke="#000000" stroke-width="0.0769" d="M198.6,165.5c-0.9-2.7,0.3-8,0.2-11.3c-0.1-2.2,0.9-9.7,0.9-12.2l-8.2-6.2c0,0-0.4,9-1.4,18.7c-0.9,5-1.6,11.1-0.9,15c1.1,6.3,4.1,8,4.7,8.5c4.2,3.8,13.7,3.4,14.7,3c6.8-2.4,9.8-6.7,9.8-6.7s-3.2-0.1-6.9,0.3c-8.2-0.6-12.3-0.2-12.5-8.6 M251.4,165.5c0.9-2.7-0.3-8-0.2-11.3c0.1-2.2-0.9-9.7-0.9-12.2l8.2-6.2c0,0,0.4,9,1.4,18.7c0.9,5,1.6,11.1,0.9,15c-1.1,6.3-4.1,8-4.7,8.5c-4.2,3.8-13.7,3.4-14.7,3c-6.8-2.4-9.8-6.7-9.8-6.7s3.2-0.1,6.9,0.3c8.2-0.6,12.3-0.2,12.5-8.6" />
    <path fill="#FFE000" stroke="#000000" stroke-width="0.077" d="M205.4,148.3c0.3-1.5,0.7-3.2,0.9-6.4l-4.8-4.8c0,2-2.2,5.1-2.4,8.8 M244.6,148.3c-0.3-1.5-0.7-3.2-0.9-6.4l4.8-4.8c0,2,2.2,5.1,2.4,8.8" />
    <path fill="#FFE000" stroke="#000000" stroke-width="0.0769" d="M227.8,170.9l-0.1-0.1c1.5,0.6,3.7,1.2,3.7,1.2l5,0.4c10.8,0.3,9.4-6.4,9-17.2c-0.1-4.1-0.2-7.8,0-9.6l6.5-4.7c2.4,6.7,1.7,10.4,2.2,13.8c0.2,3.7,1,10.8-0.2,14c-1.7,7.3-7.4,7-15.1,6.3c-3.8-0.3-5.9-1.3-5.9-1.3L227.8,170.9 M222.2,170.9l0.1-0.1c-1.5,0.6-3.7,1.2-3.7,1.2l-5,0.4c-10.8,0.3-9.4-6.4-9-17.2c0.1-4.1,0.2-7.8,0-9.6l-6.5-4.7c-2.4,6.7-1.7,10.4-2.2,13.8c-0.2,3.7-1,10.8,0.2,14c1.7,7.3,7.4,7,15.1,6.3c3.8-0.3,5.9-1.3,5.9-1.3L222.2,170.9" />
    <path fill="#007934" stroke="#000000" stroke-width="0.077" d="M209.6,152.9c0.6-2.7-0.8-3,1.2-6.7l-4.5-4.3c-0.8,2.5-1.4,4.1-1.3,6.3l3.8,2.7 M240.4,152.9c-0.6-2.7,0.8-3-1.2-6.7l4.5-4.3c0.8,2.5,1.4,4.1,1.3,6.3l-3.8,2.7" />
    <path fill="#007934" stroke="#000000" stroke-width="0.0769" d="M222.4,170.8c-1.5,0.8-3.7,1.3-3.7,1.3l-5,0.5c-7.8,0.7-12.4-4.8-11.4-17.3c0-4.4-0.1-4.7,1.4-10.5c2.4,1.6,7,5.5,7,5.5s-1.2,1.8-1,4.2C209.7,164.5,213.7,169.5,222.4,170.8l0.8-8.1 M227.6,170.8c1.5,0.8,3.7,1.3,3.7,1.3l5,0.5c7.8,0.7,12.4-4.8,11.4-17.3c0-4.4,0.1-4.7-1.4-10.5c-2.4,1.6-7,5.5-7,5.5s1.2,1.8,1,4.2C240.3,164.5,236.3,169.5,227.6,170.8l-0.8-8.1" />
    <path fill="none" stroke="#000000" stroke-width="0.0769" d="M193.8,140.8c0.7,1.2,5.1,7.9,7.5,9.1 M194.6,145.1c0.7,1.3,6.1,8.7,8.5,9.1 M193.3,156.6c1.2,1.5,2.4,4.4,6.1,6.2 M195,164.9c2.4,2.3,8.5,7.3,14.3,7.5 M195,168.6c1.2,1.5,3.9,8.3,15,5.2 M193.3,169.8c0.7,1.6,6.3,10.8,16.2,7.3 M256.2,140.8c-0.7,1.2-5.1,7.9-7.5,9.1 M255.4,145.1c-0.7,1.3-6.1,8.7-8.5,9.1 M256.7,156.6c-1.2,1.5-2.4,4.4-6.1,6.2 M255,164.9c-2.4,2.3-8.5,7.3-14.3,7.5 M255,168.6c-1.2,1.5-3.9,8.3-15,5.2 M256.7,169.8c-0.7,1.6-6.3,10.8-16.2,7.3" />
    <path fill="#E8A30E" stroke="#000000" stroke-width="0.0769" d="M185.1,140c0,0-0.4,3.2-0.4,3.7c-0.2,2.8-0.1,4.8,0,6.1c0,0.1,0.5,3.4,0.3,3.6c-0.6,0.7-0.7,0.8-1.3,0.3c-0.1-0.1,0.3-3.5,0.3-3.9c0.1-0.5,0.2-4.4,0.2-6.2c0-0.7,0.6-4,0.6-4S185,138.9,185.1,140 M185,138.9c0,0-0.7,3.8-0.8,6c-0.1,2.6-0.2,3.4-0.2,4.9c0,0.1-0.3,2-0.3,2.8c-0.1,0.4,0.1,0.1,0,0.1c-0.5,0.3-0.9,0.1-1.2-0.2c-0.1-0.1,0.9-2.4,0.9-2.8c0.5-6.7,1.5-10.7,1.5-10.7S184.5,141.4,185,138.9L185,138.9L185,138.9z M184.7,149.7c0,0-0.6,0.3-0.6,0.1 M184.1,149c0,0,0.5,0,0.6-0.2 M184.6,148.2c0,0-0.4,0.2-0.5,0.1 M184.6,147.2h-0.3 M184.6,146.3h-0.4 M184.6,145c0,0-0.2,0.1-0.2,0 M184.6,143.9h-0.3 M184,149.8c0,0-0.6,0.1-0.6-0.1 M184.1,148.5c0,0-0.6,0-0.6-0.1 M184.1,147.6h-0.5 M184.2,146.7h-0.5 M184.2,145.6h-0.3 M184.3,144.7c0,0-0.3,0.1-0.3-0.1 M184.3,143.6c0,0-0.3,0.2-0.2,0 M184.1,149.2c0,0-0.6,0-0.5-0.2 M191.5,136.7c0,0-0.4,3.2-0.4,3.7c-0.2,2.8-0.1,4.8,0,6.1c0,0.1,0.5,3.4,0.3,3.6c-0.6,0.7-0.7,0.8-1.3,0.3c-0.1-0.1,0.3-3.5,0.3-3.9c0.1-0.5,0.2-4.4,0.2-6.2c0-0.7,0.6-4,0.6-4S191.4,135.6,191.5,136.7 M191.4,135.6c0,0-0.7,3.8-0.8,6c-0.1,2.6-0.2,3.4-0.2,4.9c0,0.1-0.3,2-0.3,2.8c-0.1,0.4,0.1,0.1,0,0.1c-0.5,0.3-0.9,0.1-1.2-0.2c-0.1-0.1,0.9-2.4,0.9-2.8c0.5-6.7,1.5-10.7,1.5-10.7L191.4,135.6L191.4,135.6L191.4,135.6z M191.1,146.4c0,0-0.6,0.3-0.6,0.1 M190.4,145.7c0,0,0.5,0,0.6-0.2 M191,144.9c0,0-0.4,0.2-0.5,0.1 M191,144h-0.3 M191,143h-0.4 M190.9,141.7c0,0-0.2,0.1-0.2,0 M191,140.6h-0.3 M190.4,146.6c0,0-0.6,0.1-0.6-0.1 M190.4,145.3c0,0-0.6,0-0.6-0.1 M190.5,144.3H190 M190.5,143.4H190 M190.5,142.4h-0.3 M190.7,141.4c0,0-0.3,0.1-0.3-0.1 M190.7,140.4c0,0-0.3,0.2-0.2,0 M190.4,145.9c0,0-0.6,0-0.5-0.2 M264.9,140c0,0,0.4,3.2,0.4,3.7c0.2,2.8,0.1,4.8,0,6.1c0,0.1-0.6,4.7-0.4,3.6c0.6,0.7,0.8,1,1.4,0.5c0.1-0.1-0.3-3.7-0.3-4.1c-0.1-0.5-0.2-4.4-0.2-6.2c0-0.7-0.6-4-0.6-4S265,138.9,264.9,140L264.9,140z M265,138.9c0,0,0.7,3.8,0.8,6c0.1,2.6,0.2,3.4,0.2,4.9c0,0.1,0.3,2,0.3,2.8c0.1,0.4-0.1,0.1,0,0.1c0.5,0.3,0.9,0.1,1.2-0.2c0.1-0.1-0.9-2.4-0.9-2.8c-0.5-6.7-1.5-10.7-1.5-10.7S265.5,141.4,265,138.9L265,138.9L265,138.9z M265.3,149.7c0,0,0.6,0.3,0.6,0.1 M265.9,149c0,0-0.5,0-0.6-0.2 M265.4,148.2c0,0,0.4,0.2,0.5,0.1 M265.4,147.2h0.3 M265.4,146.3h0.4 M265.4,145c0,0,0.2,0.1,0.2,0 M265.4,143.9h0.3 M266,149.8c0,0,0.6,0.1,0.6-0.1 M265.9,148.5c0,0,0.6,0,0.6-0.1 M265.9,147.6h0.5 M265.8,146.7h0.5 M265.8,145.6h0.3 M265.7,144.7c0,0,0.3,0.1,0.3-0.1 M265.7,143.6c0,0,0.3,0.2,0.2,0 M265.9,149.2c0,0,0.6,0,0.5-0.2 M258.5,136.7c0,0,0.4,3.2,0.4,3.7c0.2,2.8,0.1,4.8,0,6.1c0,0.1-0.6,4.7-0.4,3.6c0.6,0.7,0.8,1,1.4,0.5c0.1-0.1-0.3-3.7-0.3-4.1c-0.1-0.5-0.2-4.4-0.2-6.2c0-0.7-0.6-4-0.6-4S258.6,135.6,258.5,136.7L258.5,136.7z M258.6,135.6c0,0,0.7,3.8,0.8,6c0.1,2.6,0.2,3.4,0.2,4.9c0,0.1,0.3,2,0.3,2.8c0.1,0.4-0.1,0.1,0,0.1c0.5,0.3,0.9,0.1,1.2-0.2c0.1-0.1-0.9-2.4-0.9-2.8c-0.5-6.7-1.5-10.7-1.5-10.7L258.6,135.6L258.6,135.6L258.6,135.6z M258.9,146.4c0,0,0.6,0.3,0.6,0.1 M259.6,145.7c0,0-0.5,0-0.6-0.2 M259,144.9c0,0,0.4,0.2,0.5,0.1 M259,144h0.3 M259,143h0.4 M259.1,141.7c0,0,0.2,0.1,0.2,0 M259,140.6h0.3 M259.6,146.6c0,0,0.6,0.1,0.6-0.1 M259.6,145.3c0,0,0.6,0,0.6-0.1 M259.5,144.3h0.5 M259.5,143.4h0.5 M259.5,142.4h0.3 M259.3,141.4c0,0,0.3,0.1,0.3-0.1 M259.3,140.4c0,0,0.3,0.2,0.2,0 M259.6,145.9c0,0,0.6,0,0.5-0.2 M196.5,132c0,0,0.3,3.2,0.1,5c-0.2,2.2-0.2,2.8-0.4,4.1c0,0.1,0,1.7,0,2.4c0,0.4-0.1,0.1,0,0.1c0.5,0.3,0.9,0.1,1.3-0.1c0.1-0.1-0.6-2-0.6-2.4c0.2-5.6-0.3-9-0.3-9L196.5,132L196.5,132z M196.2,141.2c0,0,0.5,0.1,0.6,0 M196.4,140.1c0,0,0.6,0.1,0.6-0.1 M196.4,139.4c0,0,0.4,0,0.5,0 M196.4,138.6h0.5 M196.6,137.7h0.3 M196.6,136.9c0,0,0.2,0.1,0.3,0 M196.6,136.1c0,0,0.2,0.2,0.2,0 M196.3,140.7c0,0,0.6,0.1,0.6-0.1 M253.5,132c0,0-0.3,3.2-0.1,5c0.2,2.2,0.2,2.8,0.4,4.1c0,0.1,0,1.7,0,2.4c0,0.4,0.1,0.1,0,0.1c-0.5,0.3-0.9,0.1-1.3-0.1c-0.1-0.1,0.6-2,0.6-2.4c-0.2-5.6,0.3-9,0.3-9L253.5,132L253.5,132z M253.8,141.2c0,0-0.5,0.1-0.6,0 M253.6,140.1c0,0-0.6,0.1-0.6-0.1 M253.6,139.4c0,0-0.4,0-0.5,0 M253.6,138.6h-0.5 M253.4,137.7h-0.3 M253.4,136.9c0,0-0.2,0.1-0.3,0 M253.4,136.1c0,0-0.2,0.2-0.2,0 M253.7,140.7c0,0-0.6,0.1-0.6-0.1" />
  </g>
  <g>
    <path fill="#D52B1E" stroke="#000000" stroke-width="0.0769" d="M207.3,134.7c0-1.3,1.2-2.1,1.4-2.2c0.6-0.4,1-0.8,2.3-0.9c0,0,0.1,0.3,0.1,0.5s-0.3,1-1.3,1.7C208.8,134.4,207.3,134.7,207.3,134.7z" />
    <path fill="#A05A2C" stroke="#000000" stroke-width="0.0769" d="M207.3,134.2l18.5,24l0.9-0.9l-18.9-24.4L207.3,134.2z" />
    <path fill="#D52B1E" stroke="#000000" stroke-width="0.0769" d="M207,129.5c0,0,2-0.2,1.7-1.4c-0.3-1.1-1.6-1.1-2.2-1.2c-0.6,0-2.4,0.4-3,0.9c-0.6,0.6-1.7,1.5-1.3,3.1c0.4,1.6,0.8,2.7,1.4,3.7c0.6,1,0.4,2,0.3,2.5c0,0.2-0.2,0.8,0.3,1c0.7,0.3,0.9,0.3,1.6-0.4c0.7-0.7,1.5-1.8,1.5-3.1s1.2-2.1,1.4-2.2c0.6-0.4,1-0.8,2.3-0.9c0,0-0.5-0.8-1.2-0.7C209.2,130.8,207.7,130.2,207,129.5z" />
    <path fill="none" stroke="#000000" stroke-width="0.0769" d="M207,129.5c-0.3,0-1.1-0.3-1.6-0.1s-1.7,0.9-1.5,1.8 M210.4,131c0,0-1.2,0.5-2,1c-0.3,0.2-1.5,1.3-2.2,2c-0.6,0.6-0.8,1.5-2.2,2.4 M209.7,130.8c-0.2,0.2-0.5,0.4-0.9,0.6c-0.4,0.2-0.5,0.5-0.8,0.8" />
  </g>
  <g>
    <path fill="#E8A30E" stroke="#000000" stroke-width="0.08" d="M207.6,177.6c-0.1,1.9-4.6,4.1-7.9,0.1c-3.6-2.8-2.8-7.1,0-7.7l34.1-33.3c1.4-0.7,1.5-1.5,2.2-2.2c1.4,1.5,4.4,4.3,6,5.6c-1,0.8-1.8,1.6-2,2.2L207.6,177.6z M242.4,177.6c0.1,1.9,4.6,4.1,7.9,0.1c3.6-2.8,2.8-7.1,0-7.7l-34.1-33.3c-1.4-0.7-1.5-1.5-2.2-2.2c-1.4,1.5-4.4,4.3-6,5.6c1,0.8,1.8,1.6,2,2.2L242.4,177.6z" />
    <path fill="#E7E7E7" stroke="#000000" stroke-width="0.08" stroke-linejoin="round" d="M236.1,134.4c1.6-2.2,8,3.6,6.3,5.4C240.7,141.6,234.6,136.7,236.1,134.4z M213.9,134.4c-1.6-2.2-8,3.6-6.3,5.4C209.3,141.6,215.4,136.7,213.9,134.4z" />
    <path fill="#CCCCCF" stroke="#000000" stroke-width="0.08" d="M241.9,139.3c-1.2,0.9-5.8-3-5-4.5C238.1,133.5,243.1,138.5,241.9,139.3z M208.1,139.3c1.2,0.9,5.8-3,5-4.5C211.9,133.5,206.9,138.5,208.1,139.3z" />
    <path fill="#E8A30E" stroke="#000000" stroke-width="0.08" d="M197.7,178.3c0,0.6,0.5,1,1.1,1s1.1-0.5,1.1-1c0-0.6-0.5-1-1.1-1s-1.1,0.6-1.1,1.2 M252.3,178.3c0,0.6-0.5,1-1.1,1s-1.1-0.5-1.1-1s0.5-1,1.1-1s1.1,0.6,1.1,1.2" />
    <path fill="none" stroke="#000000" stroke-width="0.08" d="M209.5,175.4c-3.6-1.1-6.5-3.7-7.6-7.6 M208,177c-3.6-1.1-6.5-3.8-7.6-7.6 M199.6,178.1c-0.2,0.8-0.6,1.1-1.3,0.9 M206.9,177.8c-1.4,2.1-2.9,1.5-4.1,1.5 M199.7,178c-0.2,0.8-0.6,1.1-1.3,0.9 M206.9,177.8c-1.4,2.1-2.9,1.5-4.1,1.5 M240.5,175.4c3.6-1.1,6.5-3.7,7.6-7.6 M242,177c3.6-1.1,6.5-3.8,7.6-7.6 M250.4,178.1c0.2,0.8,0.6,1.1,1.3,0.9 M243.1,177.8c1.4,2.1,2.9,1.5,4.1,1.5 M250.3,178c0.2,0.8,0.6,1.1,1.3,0.9 M243.1,177.8c1.4,2.1,2.9,1.5,4.1,1.5" />
  </g>
  <g>
    <path fill="#007934" stroke="#000000" stroke-width="0.0769" d="M237.3,109.7c1.1,1.8,2.8,5,3.2,7.4c0.8,4.5-0.5,9.5-4.4,13.1c-3.2,2.9-8.3,3.8-10.4,4.2c-2.1,0.4-3.6,1.1-4,1.6c0-0.3-0.1-0.7,0.3-1c1-0.4,2.6-0.7,4.9-1.2c4.5-0.9,9.3-2.6,11.9-7.6C242.2,119.8,240.2,114.8,237.3,109.7C237.2,109.7,237.3,109.7,237.3,109.7z" />
    <path fill="#007934" stroke="#000000" stroke-width="0.0769" d="M241.6,128.1c-0.7,0.4-1.3,0.5-1.9,0.7c-0.4,0.1-1.1,0.4-1.4,0.5c-0.2,0.1-0.6,0.3-0.9,0.4c-0.5,0.2-1,0.8-1,0.8s0.8,0.8,1.7,0.7c0.7-0.1,1.1-0.3,1.4-0.5c0.4-0.2,0.4-0.4,0.9-0.8C241,129.5,241.4,128.7,241.6,128.1z M238.1,128.8c-0.2,0.3-0.7,0.3-1,0.3l-0.1,0.2C237.3,129.3,237.9,129.3,238.1,128.8C238.1,128.9,238.1,128.8,238.1,128.8L238.1,128.8z M241.6,128.1c-0.6,0.6-1.7,1.3-2.9,1.7c-1.1,0.5-2.5,0.6-3.1,0.6l-0.2,0.2c0.9-0.1,2.1-0.3,3.2-0.7C239.9,129.4,241.1,128.7,241.6,128.1L241.6,128.1z M240.1,131c-1.2,0-1.9,0.3-3,0.6c-1.1,0.2-2.3-0.3-3,0.7C236.9,134,238.9,132.8,240.1,131z" />
    <path fill="#007934" stroke="#000000" stroke-width="0.0769" d="M237.6,133.5c-0.5-0.4-5-2-5.8-0.3C233,134.4,236.1,134.7,237.6,133.5z M238.5,127c-0.1-1.3-0.7,0.5-2-2.4c-0.4-0.8-0.4-1.4-0.6-2.7c0.7,1.1,1.9,1.4,2.3,2.2C238.7,125,238.6,126.3,238.5,127z M236.5,123.2c0.8,1.1,1.9,2.4,1.9,3.7h0.1c-0.2-1.8-1.2-2.6-1.9-3.5L236.5,123.2z M243.3,124.9c-0.6,0.5-1.2,0.7-1.7,0.9c-0.4,0.2-0.7,0.4-0.9,0.5s-0.6,0.2-0.8,0.3c-0.4,0.3-1.3,1.3-1.3,1.3s0.8,0.7,1.3,0.6c1.5-0.3,1.9-0.9,2.6-1.4C243.1,126.7,243.2,125.5,243.3,124.9z M243.8,122.1c-0.5,0.6-1.1,0.8-1.5,1.2c-0.3,0.2-0.6,0.5-0.8,0.7c-0.2,0.1-0.5,0.3-0.8,0.5c-0.4,0.3-1,1.4-1,1.4s0.4,0.4,0.9,0.2c1.5-0.2,1.9-0.9,2.5-2.2C243.5,123.2,243.8,122.7,243.8,122.1z M239.8,108.8c1.3,2.3,1.6,3.7,0.1,5.2c0,0-0.8-0.7-1-2.1C238.8,110.8,239.7,109.4,239.8,108.8z M237.3,110c-2.1,0.2-1.3-1.6-1.9-3.3C236.6,107.6,238.3,108,237.3,110z M238.6,112.8c-0.6-2.7-2.5-1.7-3.5-2.9C235.7,111.7,236.4,112.9,238.6,112.8z M239.5,115.3c-1.6-0.1-3-0.9-3.9-2.7C237.3,113.3,239.2,113.4,239.5,115.3z" />
    <path fill="#007934" stroke="#000000" stroke-width="0.0769" d="M239.1,126l-0.1,0.2c1.8-0.8,4.1-2.4,4.9-4.1C242.8,123.9,241,125.1,239.1,126z M243.6,117.6c-0.3,0.6-0.7,0.9-1,1.3c-0.2,0.3,0.7,0.8,0.9,0.4C243.8,118.7,243.7,118.2,243.6,117.6z M240.9,116.9c-0.2,0.3-0.2,0.7-0.3,1v-0.2C240.6,117.4,240.7,117.1,240.9,116.9C240.8,116.9,240.9,116.9,240.9,116.9z M239.5,114.1c-0.2-0.2-0.5-0.4-0.8-0.5c0,0,0,0,0,0.1c0.3,0.2,0.6,0.4,0.8,0.6V114.1z M242.9,114.3c-0.7,1.5-2.4,2.5-1.7,4.7C243,120.6,243.1,116.2,242.9,114.3z M241.3,111c-0.3,1.5-1.6,2.8-0.8,4.8C243,116.5,241.9,113.1,241.3,111z M237.8,107.4c0.3,1.5-0.9,2.2,0.9,4.1C239.9,109.9,239.3,109.5,237.8,107.4z M239.7,117.7c-0.6-0.7-0.7-1.2-0.9-1.7c-0.4-0.8-0.8-1.6-1.9-2.3C236.9,115.6,237.2,117.8,239.7,117.7z M240.1,119.7c-1-1.4-1.9-2.6-3.5-3.6C237.3,117.5,237,120.1,240.1,119.7z M236.7,128.8c-2.4-1.9-1-3.5-0.8-4.9C236.6,125.5,238.3,126.9,236.7,128.8z M237.7,110.6c-0.8-1.5-1.3-2.3-2.3-3.8c1.2,1.7,1.7,2.8,2.4,4 M235.1,127c0.8,2-0.3,3.4-1.6,4.3C232.5,128.4,234.6,128.7,235.1,127z M232.9,128.8c0.3,1.9-0.8,3.5-2.5,4C229.9,130.3,232.2,130.2,232.9,128.8z M230.3,130.5c-0.1,0.8-0.7,1.5-1.3,2s-0.6,0.7-1.4,1C226.9,131.8,229.5,131.4,230.3,130.5z" />
    <path fill="#007934" stroke="#000000" stroke-width="0.0769" d="M236.6,134.7c-0.5-0.1-1-0.2-1.6-0.2c-0.6-0.1-0.8-0.2-1.2-0.2c-0.7-0.1-1.4-1-3.8-0.3C230.9,136,234,136.4,236.6,134.7z M237.6,133.5c-2.4,0.5-5.2,0-6.3-0.7l-0.2,0.1C233.6,134.1,236.1,133.9,237.6,133.5z M240.1,131c-1.4,0.9-3.2,1.7-7.1,1.1l-0.1,0.1C238.2,132.7,238.8,131.7,240.1,131z M236.6,134.7c-1.9,0.1-2.9,0.9-6.4-0.8c-0.3-0.1-0.7-0.2-0.9-0.3l-0.3,0.1c0.2,0.1,0.6,0.1,0.9,0.2C234.2,135.8,234,134.9,236.6,134.7z M229.5,132.7c-0.4,0.1-0.5,0.6-0.6,0.9l-0.2,0.1C228.8,133.2,229,132.7,229.5,132.7C229.5,132.6,229.5,132.6,229.5,132.7L229.5,132.7z M235.9,122c0,0,0.6,1.5,1.5,2.5s1.1,2.3,1.1,2.3 M237.9,128l-0.1,0.2c0.8-0.1,2.2-0.9,3.1-1.3c1.2-0.6,1.9-1.1,2.4-1.9c-0.6,0.9-1.3,1.4-2.5,1.9C239.9,127.3,238.5,128.1,237.9,128z M239.2,125.6c-0.1-0.3-0.1-0.6-0.3-0.8h-0.1c0.2,0.3,0.3,0.6,0.3,0.9L239.2,125.6z M236.8,129.3c0.1-1.9-0.4-3.6-0.8-5.3c0.3,1.8,0.8,3.7,0.6,5.5L236.8,129.3z M240.6,120.3c-1.1-1.6-2.6-2.2-4-4.1c1.3,1.9,3,2.8,4,4.4V120.3z M240.6,118.2c-1.2-0.5-2.4-1.9-3.7-4.5c0.8,1.9,1.9,3.6,3.7,4.8V118.2z M240,115.6c-1.4-1.1-3.1-1.8-4.4-3.1c1.1,1.2,3.1,2.1,4.5,3.3L240,115.6z M239,113c-1.4-0.9-2.7-1.2-3.9-3C236,111.7,237.5,112.2,239,113L239,113z M242.9,114.3c-0.5,1.9-0.9,3.9-2.2,5.2v-0.3C241.3,119,242.3,117,242.9,114.3z M241.3,111.1c-0.1,2-0.1,4.1-1.1,5.2l-0.1-0.2C241.2,115.2,241.1,113,241.3,111.1z M239.9,108.9c0.4,1.7,0.4,3.4-0.1,6l-0.1-0.2C240,113.1,240.3,111.5,239.9,108.9z M237.8,107.5c0.7,1.5,1.2,3,0.8,4.6l-0.1-0.2C239,110.4,238.4,108.9,237.8,107.5z M235.1,127c0.1,1.2-1.2,2.6-1.6,4.7l-0.2,0.2C233.9,129.3,235.2,128.3,235.1,127z M239.7,114.3c0-0.3,0-0.6,0-0.9c0,0,0,0-0.1,0c0,0.4,0.1,0.7,0,1.1L239.7,114.3z M239.5,114c-0.1-0.2-0.2-0.5-0.3-0.7l0,0c0.1,0.3,0.2,0.5,0.3,0.8V114z M240.5,117.9c0-0.3-0.1-0.6-0.2-0.9c0,0,0,0-0.1,0c0.1,0.4,0.2,0.7,0.2,1L240.5,117.9z M240.5,117.9c-0.2-0.2-0.5-0.4-0.7-0.6c0,0,0,0,0,0.1c0.3,0.2,0.6,0.4,0.8,0.7L240.5,117.9z M239.3,125.5c0.1-0.3,0.1-0.6,0.1-0.9c0,0,0,0-0.1,0c0,0.4-0.1,0.7-0.2,1L239.3,125.5z M239.2,125.7c0.2-0.2,0.5-0.4,0.8-0.5c0,0,0,0,0,0.1c-0.3,0.2-0.6,0.4-0.8,0.6V125.7z M237.2,128.8c0.2-0.2,0.4-0.5,0.6-0.8c0,0,0,0-0.1,0c-0.2,0.3-0.4,0.6-0.6,0.8H237.2z M237.1,128.2c-0.1,0.4,0,0.5,0,0.7l-0.1,0.2c-0.1-0.2-0.2-0.5-0.1-0.9C237.1,128.1,237.1,128.1,237.1,128.2z M229.5,134c-0.4,0-0.6-0.2-0.8-0.4h-0.2c0.2,0.3,0.5,0.6,1,0.6C229.6,134.1,229.6,134.1,229.5,134L229.5,134z M232.9,128.8c-0.6,1.5-1.5,2.9-3,4.5h-0.3C231.3,132,232.2,130.3,232.9,128.8z M230.3,130.5c-0.8,1.6-2.2,2.4-2.9,3.4h-0.1C228.3,132.5,229.2,132.2,230.3,130.5z" />
    <path fill="#D52B1E" stroke="#000000" stroke-width="0.0768" d="M238.6,128.5c0.1,0.1,0.1,0.3-0.1,0.4s-0.3,0.2-0.5,0.1c-0.1-0.1-0.1-0.3,0.1-0.4S238.5,128.4,238.6,128.5z M229.8,132.7c0.2-0.1,0.3-0.3,0.2-0.4c-0.1-0.1-0.3-0.2-0.5-0.1c-0.2,0.1-0.3,0.3-0.2,0.4C229.4,132.8,229.6,132.8,229.8,132.7z M241,116.4c-0.1,0-0.3,0.1-0.4,0.3s0,0.4,0.2,0.4s0.3-0.1,0.4-0.3S241.2,116.4,241,116.4z M238.6,124.2c-0.1,0.1-0.2,0.3-0.1,0.4c0.1,0.2,0.3,0.3,0.4,0.2c0.1-0.1,0.2-0.3,0.1-0.4C238.9,124.3,238.7,124.2,238.6,124.2z M238.7,113.6c0.1-0.1,0.1-0.2,0-0.3c-0.1-0.1-0.3-0.1-0.3,0s-0.1,0.2,0,0.3C238.5,113.7,238.6,113.7,238.7,113.6z M239.6,113.5c0.1,0,0.2-0.1,0.2-0.2s-0.1-0.3-0.2-0.3c-0.1,0-0.2,0.1-0.2,0.2C239.4,113.3,239.5,113.5,239.6,113.5z M239.3,113.1c0-0.1-0.1-0.2-0.2-0.1c-0.1,0-0.1,0.2-0.1,0.3c0,0.1,0.1,0.2,0.2,0.1C239.2,113.3,239.3,113.2,239.3,113.1z M240.2,116.5c-0.1,0-0.2,0.1-0.2,0.3c0,0.1,0.1,0.3,0.2,0.3c0.1,0,0.2-0.1,0.2-0.3S240.3,116.5,240.2,116.5z M239.4,117c-0.1,0.1-0.1,0.2,0,0.4c0.1,0.1,0.2,0.1,0.3,0.1c0.1-0.1,0.1-0.2,0-0.4C239.7,116.9,239.5,116.9,239.4,117z M239.5,124.1c-0.1,0-0.2,0-0.3,0.2c0,0.1,0,0.3,0.1,0.3s0.2,0,0.3-0.2C239.6,124.3,239.6,124.2,239.5,124.1z M240,124.9c-0.1,0.1-0.1,0.2,0,0.3c0.1,0.1,0.2,0.1,0.3,0s0.1-0.2,0-0.3C240.2,124.8,240.1,124.8,240,124.9z M238,127.7c-0.1-0.1-0.2-0.1-0.3,0s-0.1,0.3-0.1,0.3c0.1,0.1,0.2,0.1,0.3,0C238.1,128,238.1,127.8,238,127.7z M237.1,127.5c-0.2,0-0.3,0.1-0.3,0.3c0,0.2,0.1,0.4,0.2,0.4c0.2,0,0.3-0.1,0.3-0.3C237.4,127.7,237.3,127.5,237.1,127.5z M229.7,133.9c-0.2,0-0.4,0-0.4,0.2c0,0.1,0.1,0.3,0.3,0.3s0.4,0,0.4-0.2C230,134.1,229.9,134,229.7,133.9z M229.6,132.9c-0.2,0-0.2,0.2-0.2,0.3c0.1,0.1,0.3,0.2,0.4,0.2s0.2-0.2,0.2-0.3C230,132.9,229.8,132.8,229.6,132.9z" />
  </g>
  <g>
    <path fill="#007934" stroke="#000000" stroke-width="0.0769" d="M212.8,109.7c-1.1,1.8-2.8,5-3.2,7.4c-0.8,4.5,0.5,9.5,4.4,13.1c3.2,2.9,8.3,3.8,10.4,4.2c2.1,0.4,3.6,1.1,4,1.6c0-0.3,0.1-0.7-0.3-1c-1-0.4-2.6-0.7-4.9-1.2c-4.5-0.9-9.3-2.6-11.9-7.6C207.9,119.8,209.9,114.8,212.8,109.7L212.8,109.7z" />
    <path fill="#007934" stroke="#000000" stroke-width="0.0769" d="M221.3,133.5c-0.1,0.3-2.5,2.3-4.7,2.2c-1.6-0.1-1.8-0.5-1.8-0.5s-0.1-0.4,1.3-0.7C217.5,134.2,219.9,133.2,221.3,133.5z M212.1,110.9c0.1,0,1.7-0.5,2.4-1.3c0.5-0.6,0.5-0.8,0.5-0.8s-0.1-0.1-0.7,0.3C213.7,109.6,212.5,110.3,212.1,110.9z M212.7,109.9c0-0.2,0.2-2.1,1.3-2.8c0.8-0.5,1.1-0.3,1.1-0.3s0.2,0.2-0.3,0.8C214.2,108.2,213.4,109.6,212.7,109.9z M219.5,130.4c0.2,0,2.1,1,2.9,2.3c0.5,1,0.5,1.2,0.5,1.2s-0.1,0.2-0.8-0.6C221.3,132.5,219.9,131.3,219.5,130.4z M212.1,110.9c-0.1-0.1-0.6-1.8-0.1-3c0.4-0.8,0.6-0.9,0.6-0.9s0.2,0,0.1,0.8C212.5,108.7,212.5,110.2,212.1,110.9z M210.8,113.5c-0.2-0.1-1.4-1.8-1.3-3.3c0.1-1.1,0.3-1.2,0.3-1.2s0.2-0.1,0.4,0.9S211,112.6,210.8,113.5z M211.4,112.2c-0.1-0.1-0.8-1.9-0.5-3.3c0.2-1,0.4-1.1,0.4-1.1s0.2,0,0.2,0.9C211.4,109.7,211.6,111.4,211.4,112.2z M210.1,115.1c-0.1-0.1-1.4-1.6-1.5-2.9c-0.1-1,0.1-1.1,0.1-1.1s0.2-0.1,0.4,0.8C209.4,112.7,210.1,114.2,210.1,115.1z M210.2,115.1c0.2,0,2.1-0.1,3.1-1.1c0.7-0.7,0.7-1,0.7-1s-0.1-0.2-0.9,0.2C212.3,113.8,210.8,114.4,210.2,115.1z M210.8,113.5c0.2,0,2,0,2.9-0.9c0.7-0.6,0.6-0.9,0.6-0.9s-0.1-0.2-0.8,0.2C212.8,112.4,211.3,112.9,210.8,113.5z M211.4,112.3c0.2,0,2-0.2,2.8-1.1c0.6-0.7,0.6-0.9,0.6-0.9s-0.1-0.2-0.8,0.3C213.3,111,211.9,111.6,211.4,112.3z M209.7,116.8c-0.1-0.1-1.5-1.6-1.8-3c-0.2-1,0-1.2,0-1.2s0.2-0.1,0.5,0.8C208.7,114.3,209.6,115.9,209.7,116.8z M209.4,118.5c-0.2-0.1-2.1-1.4-2.4-2.8c-0.2-1,0-1.3,0-1.3s0.2-0.1,0.7,0.8S209.3,117.6,209.4,118.5z M209.7,116.8c0.2,0,2.2-0.2,3.1-1.3c0.7-0.8,0.6-1,0.6-1s-0.1-0.2-0.9,0.3C211.8,115.3,210.3,116.1,209.7,116.8z M209.5,118.5c0.2,0,2.2-0.6,3.1-1.7c0.7-0.8,0.6-1,0.6-1s-0.1-0.2-0.9,0.4C211.6,116.9,210,117.8,209.5,118.5z M209.4,120.7c-0.2,0-2.3-1.1-2.8-2.5c-0.4-1-0.2-1.3-0.2-1.3s0.2-0.2,0.8,0.6C207.8,118.4,209.2,119.8,209.4,120.7z M210.2,124.5c-0.3,0-2.9-0.8-3.9-2.4c-0.7-1.2-0.5-1.5-0.5-1.5s0.2-0.3,1.1,0.6C207.8,122.1,209.7,123.4,210.2,124.5z M212.6,128.6c0.2-0.1,1.6-1.9,1.7-3.5c0.1-1.1-0.1-1.3-0.1-1.3s-0.2-0.1-0.5,0.9C213.4,125.7,212.6,127.6,212.6,128.6z M212.5,128.5c-0.3,0.1-3.3,0-4.7-1.3c-1.1-1-1-1.4-1-1.4s0.1-0.3,1.3,0.3C209.3,126.7,211.6,127.6,212.5,128.5z M211.4,126.9c-0.2,0-3-0.6-4.3-2c-1-1-0.9-1.3-0.9-1.3s0.1-0.2,1.2,0.5C208.5,124.9,210.6,126,211.4,126.9z M211.5,126.8c0.2-0.1,2.2-1.7,2.5-3.5c0.2-1.3-0.1-1.5-0.1-1.5s-0.3-0.2-0.7,0.9C212.7,123.9,211.5,125.7,211.5,126.8z M213.6,129.7c-0.2,0.1-2.7,0.7-4.2-0.1c-1.2-0.6-1.2-0.9-1.2-0.9s0-0.3,1.2,0C210.5,128.9,212.6,129.1,213.6,129.7z M213.8,129.7c0.1-0.1,1.2-1.6,1.2-3c0-1-0.2-1.2-0.2-1.2s-0.2-0.1-0.4,0.8C214.2,127.2,213.7,128.8,213.8,129.7z M216.1,131.4c0.1-0.2,0.8-2.4,0-3.5c-0.6-0.8-0.9-0.8-0.9-0.8s-0.3,0.1-0.1,1C215.4,129,215.5,130.8,216.1,131.4z M216,131.5c-0.2,0.1-3.2,0.9-5,0.2c-1.3-0.6-1.4-0.9-1.4-0.9s0-0.3,1.4-0.1C212.3,130.8,214.9,130.9,216,131.5z M217.7,132.4c-0.2,0.2-2.6,1.8-4.6,1.4c-1.5-0.3-1.6-0.7-1.6-0.7s-0.1-0.4,1.3-0.5C214,132.6,216.4,132,217.7,132.4z M218.4,132.6c0.1-0.2,0.5-2.5-0.6-3.5c-0.8-0.7-1.1-0.7-1.1-0.7s-0.3,0.1,0.1,1S217.7,132.1,218.4,132.6z" />
    <path fill="none" stroke="#000000" stroke-width="0.0769" d="M214.9,135.2c1.7,0.2,3.4-0.5,4.8-1 M211.2,108c-0.2,1-0.1,2.2,0,3.1 M215,106.8c-0.9,0.4-1.4,1.4-1.8,2.1 M215,108.8c-0.5,0.7-1.4,1.2-2.1,1.6 M208.7,111.1c0.1,1.1,0.6,2.1,1,3 M209.8,109.1c-0.1,1.1,0.3,2.3,0.6,3.3 M212.5,107.1c-0.4,0.9-0.4,1.9-0.4,2.8 M214.8,110.3c-0.6,0.7-1.6,1.2-2.4,1.5 M214.3,111.8c-0.7,0.7-1.7,1.1-2.5,1.4 M213.9,113.1c-0.7,0.8-1.8,1.2-2.6,1.6 M213.2,115.9c-0.7,0.9-1.8,1.5-2.7,2 M207.9,112.7c0.1,1.1,0.7,2.2,1.2,3 M213.5,114.5c-0.7,0.9-1.8,1.4-2.6,1.8 M207,114.5c0.2,1.1,1,2.2,1.6,3 M206.4,117c0.4,1.1,1.3,2.1,2,2.8 M214.2,123.8c-0.1,1.2-0.6,2.5-1.1,3.5 M206.8,125.9c1.1,1.1,2.8,1.7,4.1,2.1 M206.2,123.7c1,1.1,2.5,1.9,3.7,2.5 M208.2,128.7c1.2,0.7,2.7,0.8,3.9,0.9 M214.7,125.5c0.1,1.1-0.3,2.3-0.6,3.1 M215.2,127.1c0.6,0.9,0.7,2.1,0.8,3.1 M209.7,130.7c1.4,0.6,3.2,0.7,4.6,0.7 M211.5,133.2c1.5,0.4,3.2,0,4.6-0.4 M216.8,128.5c0.9,0.8,1.2,2,1.4,2.9" />
    <path fill="#007934" stroke="#000000" stroke-width="0.08" d="M210.5,114.4c0,0-0.2-0.3-0.2-0.7c0-0.3,0.1-0.5,0.1-0.5l-0.1-0.1c0,0-0.1,0.3-0.1,0.5s0,0.2,0,0.2s-0.2-0.2-0.3-0.3s-0.1-0.3-0.1-0.3h-0.1c0,0,0.1,0.3,0.2,0.4c0.3,0.2,0.5,0.7,0.5,0.7 M210.5,114.3c0,0,0.4-0.2,0.6-0.4c0.2-0.2,0.2-0.4,0.2-0.4h0.1c0,0-0.2,0.3-0.3,0.4s-0.1,0.2-0.1,0.2s0.3,0,0.4-0.1c0.1-0.1,0.3-0.1,0.3-0.1l0.1,0.1c0,0-0.3,0.2-0.4,0.2c-0.4,0-0.8,0.2-0.8,0.2 M210.9,125.9c0,0-0.4-0.2-0.7-0.5c-0.2-0.3-0.3-0.5-0.3-0.5h-0.2c0,0,0.2,0.4,0.3,0.5s0.2,0.2,0.2,0.2s-0.4,0-0.5-0.1s-0.3-0.2-0.3-0.2l-0.1,0.1c0,0,0.4,0.3,0.5,0.3c0.5,0,1,0.3,1,0.3 M211,125.9c0,0,0.2-0.4,0.2-0.8s-0.1-0.6-0.1-0.6l0.2-0.1c0,0,0.1,0.4,0.1,0.6s0,0.3,0,0.3s0.3-0.2,0.3-0.4c0.1-0.1,0.1-0.3,0.1-0.3l0.1,0.1c0,0-0.1,0.4-0.2,0.5c-0.4,0.3-0.6,0.8-0.6,0.8 M214.6,130.4c0,0-0.4,0.3-0.8,0.1c-0.4-0.2-0.5-0.4-0.5-0.4l-0.2,0.1c0,0,0.4,0.3,0.6,0.4s0.3,0.1,0.3,0.1s-0.4,0.1-0.6,0.1s-0.4-0.1-0.4-0.1v0.2c0,0,0.5,0.1,0.6,0.1c0.2,0,1-0.3,1-0.3 M214.7,130.6c0,0,0.3-0.3,0.1-0.7s-0.4-0.6-0.4-0.6l0.1-0.2c0,0,0.3,0.4,0.4,0.6c0.1,0.2,0.1,0.3,0.1,0.3s0.2-0.4,0.1-0.6c0-0.2,0-0.4,0-0.4h0.2c0,0,0,0.5,0,0.6c0,0.2-0.4,0.9-0.4,0.9 M219.2,132.8c0,0-0.3,0.4-0.8,0.3c-0.5-0.1-0.7-0.3-0.7-0.3l-0.2,0.2c0,0,0.5,0.2,0.8,0.3s0.3,0.1,0.3,0.1s-0.4,0.3-0.6,0.3c-0.2,0-0.5,0.1-0.5,0.1v0.2c0,0,0.5-0.1,0.7-0.2s0.9-0.7,0.9-0.7 M219.6,133.2c0,0,0.1-0.5-0.3-0.8c-0.4-0.3-0.7-0.4-0.7-0.4v-0.2c0,0,0.5,0.2,0.7,0.4s0.3,0.2,0.3,0.2s0-0.5-0.1-0.6c-0.1-0.2-0.2-0.4-0.2-0.4l0.2-0.1c0,0,0.3,0.5,0.3,0.6c0.1,0.2,0.1,1.2,0.1,1.2" />
    <path fill="#000000" stroke="#000000" stroke-width="0.0769" d="M209.7,112.7c0.1,0,0.2,0.1,0.3,0.3c0,0.2-0.1,0.3-0.2,0.4c-0.1,0-0.2-0.1-0.3-0.3C209.5,112.9,209.6,112.7,209.7,112.7z M210.5,112.7c0.1,0,0.2,0.2,0.1,0.4c-0.1,0.2-0.2,0.3-0.3,0.2c-0.1,0-0.2-0.2-0.1-0.4S210.4,112.6,210.5,112.7z M212.1,113.5c-0.1-0.1-0.3-0.1-0.4,0.1c-0.1,0.1-0.2,0.3-0.1,0.4c0.1,0.1,0.3,0.1,0.4-0.1C212.2,113.8,212.2,113.6,212.1,113.5z M211.5,113c-0.1,0-0.3,0.1-0.3,0.2c-0.1,0.2,0,0.4,0.1,0.4s0.3-0.1,0.3-0.2C211.7,113.3,211.6,113.1,211.5,113z M208.9,124.9c0.1-0.1,0.3-0.1,0.5,0.1s0.2,0.4,0.1,0.5c-0.1,0.1-0.3,0.1-0.5-0.1S208.8,125,208.9,124.9z M209.6,124.3c0.1,0,0.3,0.1,0.4,0.3c0.1,0.2,0,0.4-0.1,0.5s-0.3-0.1-0.4-0.3C209.4,124.5,209.5,124.3,209.6,124.3z M212,123.9c-0.2,0-0.3,0.1-0.3,0.4c0,0.2,0.1,0.4,0.2,0.4s0.3-0.1,0.3-0.4C212.2,124.1,212.1,123.9,212,123.9z M211,123.8c-0.1,0-0.2,0.3-0.1,0.5c0.1,0.2,0.2,0.4,0.4,0.3c0.1,0,0.2-0.3,0.1-0.5S211.2,123.8,211,123.8z M212.2,130.5c0.1-0.2,0.3-0.2,0.6-0.1c0.2,0.1,0.4,0.3,0.3,0.5s-0.3,0.2-0.6,0.1C212.2,130.8,212.1,130.6,212.2,130.5z M212.7,129.5c0.1-0.1,0.4,0,0.6,0.2c0.2,0.2,0.2,0.5,0.1,0.6c-0.1,0.1-0.4,0-0.6-0.2S212.6,129.6,212.7,129.5z M214.8,128.2c-0.2,0.1-0.2,0.3-0.1,0.6c0.1,0.2,0.3,0.4,0.5,0.3s0.2-0.3,0.1-0.6C215.2,128.3,215,128.1,214.8,128.2z M213.8,128.7c-0.1,0.1-0.1,0.4,0.1,0.6c0.2,0.2,0.4,0.2,0.6,0.1c0.1-0.1,0.1-0.4-0.1-0.6S214,128.6,213.8,128.7z M216.6,133.8c0-0.2,0.3-0.3,0.6-0.3s0.5,0.2,0.5,0.4s-0.3,0.3-0.6,0.3S216.6,134,216.6,133.8z M216.9,132.6c0.1-0.2,0.4-0.2,0.7,0s0.4,0.4,0.3,0.6s-0.4,0.2-0.7,0C216.9,133,216.7,132.7,216.9,132.6z M218.5,130.6c-0.1,0.2-0.1,0.4,0.2,0.6s0.5,0.3,0.7,0.1s0.1-0.4-0.2-0.6S218.7,130.4,218.5,130.6z M217.8,131.6c-0.1,0.2,0.1,0.4,0.4,0.5c0.3,0.1,0.6,0,0.6-0.2c0.1-0.2-0.1-0.4-0.4-0.5S217.9,131.4,217.8,131.6z" />
  </g>
  <g>
    <path fill="#452C25" stroke="#000000" stroke-width="0.08" d="M224.4,130.6c0,0-1.5,3.4-1,3.7c0,0,1.5-2.6,2.8-3.6c0.7-0.6,1.1,0,1.2-0.6c0.1-0.6-1.8-1.4-1.8-1.4l-1.2,1.7" />
    <path fill="#452C25" stroke="#000000" stroke-width="0.08" d="M219.7,132.2c0,0-2.2,3.6-1.7,3.7c0.6,0.1,3-4.6,3-4.6l-0.8,0.1L219.7,132.2z" />
    <path fill="#452C25" stroke="#000000" stroke-width="0.08" d="M220.9,130.9c0,0-3,3-2.4,3.2c0.5,0.2,3.9-3.8,3.9-3.8l-0.8-0.1L220.9,130.9z" />
    <path fill="#452C25" stroke="#000000" stroke-width="0.08" d="M221,129.8c0,0-2.6,3.4-2,3.5c0.5,0.1,3.4-4.3,3.4-4.3h-0.8L221,129.8z" />
    <path fill="#452C25" stroke="#000000" stroke-width="0.08" d="M220.3,132.7c0,0-2.5,3.4-2,3.5s3.3-4.4,3.3-4.4h-0.8L220.3,132.7z" />
    <path fill="#452C25" stroke="#000000" stroke-width="0.08" d="M221.7,132.1c0,0-1.5,2.8-1.3,2.9c0.2,0.1,2-1.6,2.9-3.3S221.7,132,221.7,132.1" />
    <path fill="#452C25" stroke="#000000" stroke-width="0.08" d="M221.1,131.5c0,0-3,3-2.4,3.2c0.5,0.2,3.9-3.8,3.9-3.8l-0.8-0.1L221.1,131.5z" />
    <path fill="#452C25" stroke="#000000" stroke-width="0.08" d="M221.6,132.4c0,0-3,3-2.4,3.2c0.5,0.2,3.9-3.8,3.9-3.8l-0.8-0.1L221.6,132.4z" />
    <path fill="#452C25" stroke="#000000" stroke-width="0.08" d="M221.8,128.2c0,0-2.2,2.8-1.9,3.3s2.3-1.3,3-2.5C223.5,127.7,221.9,128.1,221.8,128.2 M221.8,131.2c0,0-1.9,3.6-1.4,3.4c0.5-0.2,2.4-2.9,2.6-3.5c0.2-0.6,0.1-1.2,0.1-1.2l-1.5,0.9l0.1,0.7" />
    <path fill="#452C25" stroke="#000000" stroke-width="0.08" d="M221.8,130c0,0,1.6-2.9,0,0.5c-1.6,3.4-2.2,2.9-2.2,2.9c-0.1-0.2,1.4-2.5,1.4-2.5s1.1-1.8,1.4-2 M223.5,129.6c0,0,1.7-2.9,0,0.5c-1.7,3.4-2.4,2.8-2.4,2.8c-0.1-0.2,1.5-2.5,1.5-2.5s1.2-1.8,1.5-1.9 M223.2,131.4c0,0-1.5,3.4-1,3.7c0,0,1.8-2.1,2.3-3.7c0.5-1.6,0-0.1,0-0.1l-0.1-1.8l-1.2,1.7" />
    <path fill="#452C25" stroke="#000000" stroke-width="0.08" d="M222.8,128.4c0,0-2.2,2.8-1.9,3.3s2.3-1.3,3-2.5C224.5,127.9,222.8,128.3,222.8,128.4 M223.5,129.8c0,0-1.8,3.7-1.4,4c0,0,1.5-1.7,1.8-3c0.4-1.3,0-0.1,0-0.1l0.5-2.4 M225.3,129c0,0-1.8,3.7-1.4,4c0,0,1.5-1.7,1.8-3c0.4-1.3,0-0.1,0-0.1l0.5-2.4" />
  </g>
  <g>
    <path fill="#E8A30E" d="M245.5,156.9c0,12.7-9.2,23.1-20.5,23.1s-20.5-10.3-20.5-23.1l0,0c0-12.7,9.2-23.1,20.5-23.1S245.5,144.2,245.5,156.9z" />
    <path fill="#007934" stroke="#EEEEEE" stroke-width="0.0513" d="M204.5,158.1c0.6,12.2,9.5,21.9,20.5,21.9s19.9-9.7,20.5-21.9H204.5z" />
    <path fill="#D52B1E" stroke="#000000" stroke-width="0.0769" d="M221.6,140.9c-0.2,0.9,0,1.6,0.5,2.3c0.3,0.5,0.6,1.1,0.5,1.7c-0.2,0.1-0.3,0.2-0.4,0.3l-3.5-2.3l2.3,3.4c0,0.1-0.1,0.1-0.1,0.2c-0.7-0.3-1.3-0.4-1.9-0.2c-0.8,0.2-1.5,0-2.3-0.5c0.5,0.8,1.2,1.1,1.9,1.3c0.6,0.1,1.2,0.4,1.6,0.8c0,0.2-0.1,0.3-0.1,0.5l-4.1,0.8l4.1,0.8c0,0.1,0,0.1,0,0.2c-0.7,0.3-1.2,0.7-1.5,1.2c-0.5,0.7-1.1,1.1-1.9,1.3c0.9,0.2,1.6,0,2.3-0.5c0.5-0.3,1.1-0.6,1.7-0.5c0.1,0.2,0.2,0.3,0.3,0.4c0,0,3,2,3.2,2l4.8-2c0-0.1,0.1-0.1,0.1-0.2c0.7,0.3,1.3,0.4,1.9,0.2c0.8-0.2,1.5,0,2.3,0.5c-0.5-0.8-1.2-1.1-1.9-1.3c-0.6-0.1-1.2-0.4-1.6-0.8c0-0.2,0.1-0.3,0.1-0.5l4.1-0.8l-4.1-0.8c0-0.1,0-0.1,0-0.2c0.7-0.3,1.2-0.7,1.5-1.2c0.5-0.7,1.1-1.1,1.9-1.3c-0.9-0.2-1.6,0-2.3,0.5c-0.5,0.3-1.1,0.5-1.7,0.5c-0.1-0.2-0.2-0.3-0.3-0.4l2.3-3.5l-3.4,2.3c-0.1,0-0.1-0.1-0.2-0.1c0.3-0.7,0.4-1.3,0.2-1.9c-0.2-0.8,0-1.5,0.5-2.3c-0.8,0.5-1.1,1.2-1.3,1.9c-0.1,0.6-0.4,1.2-0.8,1.6c-0.2,0-0.3-0.1-0.5-0.1l-0.8-4.1l-0.8,4.1c-0.1,0-0.1,0-0.2,0c-0.3-0.7-0.7-1.2-1.2-1.5C222.2,142.3,221.8,141.7,221.6,140.9z" />
    <path fill="#000000" d="M225.8,149.9c0,0-0.1,0-0.2,0.1c-0.4-0.9-0.5-1.7-0.2-2.5c1-0.8,2.3-0.9,3.3,0.4c-1-0.9-2.3-1-3-0.4C225.1,148.3,225.2,149.1,225.8,149.9z M227.1,147.7c-0.6,0-0.7,0.1-1,0.4c-0.3,0.2-0.4,0.2-0.4,0.2s0,0.2,0.1,0.1c0.1,0,0.3-0.1,0.5-0.4c0.3-0.2,0.5-0.2,0.8-0.2c0.8,0,1.2,0.7,1.3,0.6C228.5,148.4,227.9,147.7,227.1,147.7z M226,148.5c0.4-0.7,1.5-0.7,2.1,0c-0.3,0.2-0.7,0.3-1.1,0.4l0,0l0,0C226.6,148.8,226.2,148.7,226,148.5z M227.2,148.1c0.1,0.1,0.2,0.2,0.2,0.3s-0.1,0.3-0.2,0.3c0.2,0,0.4-0.2,0.6-0.3C227.7,148.2,227.5,148.1,227.2,148.1z M226.2,148.5c0.2,0.1,0.4,0.2,0.6,0.3c-0.1-0.1-0.2-0.2-0.2-0.3s0.1-0.2,0.2-0.3C226.5,148.1,226.3,148.2,226.2,148.5z M226.3,148.8c-0.4-0.2-0.4-0.3-0.5-0.3s-0.1,0.1,0.4,0.4s1.2,0.3,2-0.3C227.2,149,226.7,149,226.3,148.8z M221.3,147.9c1-0.9,2.3-1,3-0.4c0.5,0.7,0.5,1.5-0.1,2.4c0,0,0.1,0,0.2,0.1c0.4-0.9,0.5-1.7,0.2-2.5C223.7,146.7,222.3,146.6,221.3,147.9z M223.8,148c0.3,0.2,0.4,0.3,0.5,0.4c0.1,0,0.1-0.1,0.1-0.1s-0.2,0-0.4-0.2c-0.3-0.2-0.4-0.4-1-0.4c-0.9,0-1.4,0.7-1.3,0.8c0.1,0,0.5-0.6,1.3-0.6C223.2,147.8,223.5,147.8,223.8,148z M224,148.5c-0.2,0.2-0.6,0.3-1,0.3l0,0l0,0c-0.4,0-0.8-0.1-1.1-0.4C222.5,147.8,223.6,147.8,224,148.5z M222.8,148.7c-0.1-0.1-0.2-0.2-0.2-0.3s0.1-0.3,0.2-0.3c-0.3,0-0.5,0.2-0.6,0.3C222.4,148.6,222.6,148.7,222.8,148.7z M223.3,148.1c0.1,0.1,0.2,0.2,0.2,0.3c0,0.2-0.1,0.3-0.2,0.3c0.2,0,0.4-0.1,0.6-0.3C223.7,148.2,223.5,148.1,223.3,148.1z M224.2,148.6c-0.1,0-0.2,0.1-0.5,0.3c-0.4,0.2-0.9,0.2-1.8-0.2c0.8,0.6,1.5,0.5,2,0.3S224.3,148.6,224.2,148.6z" />
    <path fill="#007934" stroke="#000000" stroke-width="0.08" stroke-linecap="round" d="M227,161.5c1,0.1,2,0.1,3-0.2c0.8-0.3,1.7-0.5,2.6-0.4c0-0.1,0.3-0.2,0.1-0.3c-0.3-0.2-0.7-0.2-1.1-0.4c-0.7-0.3-1.1-0.8-1.7-1.2c-0.1,0-0.4-0.2-0.4-0.4c1.4,2,4.7,1,7.5,0.8c0.3,0.1,0.9-0.1,1.5-0.3c0.7-0.2,2.3,0,2.7-0.3c0.1,0-0.7-0.5-0.8-0.6c-0.4-0.5-1.4-0.4-1.9-1c-0.8-0.9-2-1.1-3-1.9c-0.2-0.1-0.7-0.1-1-0.2c-0.4-0.3,0-0.3-3.1-2.9c-2.8-1.2-2.7-2-4.4-2.7c-0.6-0.3-1.2-0.9-1.7-0.7c-0.9,0.3-3,1.3-3.9,1.8c-0.8,0.5-1.7,1.3-2.4,1.8c-0.2,0.1-2.2,1.8-4.4,3.1c-2.2,1.2-5.5,2.9-5.8,2.9C213.9,158.2,204.3,159.9,227,161.5L227,161.5z" />
    <path fill="#007934" stroke="#000000" stroke-width="0.08" d="M214.6,155.7c1.3-0.7,6.2-3.4,7.7-5.3c-0.2,0,0.4,0.6,0.4,0.8c0.5,0,0.2-0.5,0.6-0.6c0.3,0,0.5-0.1,0.8-0.2c0.3-0.1,0.1,0.1,0.1,0.2c-0.4,0.8-1.3,1.2-2,1.8c0.1,0.1,0.2,0.1,0.1,0.2c0.3,0,0.6,0,0.7-0.1c0,0,0-0.1,0-0.2c0.3,0.1,0.2,0.3,0.1,0.4c-0.2,0.4-0.9,0.3-1.2,0.7s-0.5,0.7-0.9,1c0.3-0.3,0.7-0.6,1.1-0.6c0.6,0,0.8-0.4,1.4-0.6c0.6-0.1,0.9-0.6,1.4-0.9c-0.2,0.3-0.5,0.5-0.4,0.8c0,0,0.2,0.1,0.4,0.1c-0.4,0.5-1.2,0.9-1.5,1.5c-0.3-0.1-0.4,0.1-0.6,0.1c-0.3,0.1-0.2,0.5-0.4,0.6c-0.8,0.4-1.1,1.1-1.5,1.7c0,0.1-0.6,0.4-0.8,0.4c-0.4,0.2-2.9,2.1-2.9,1.8c-0.2-1.3-2.7,1-8.3-1 M227.9,158.5c0-0.1-0.1-0.1-0.1-0.1c0.1-0.2-0.3-0.2-0.3-0.4c0.7,0,1.1,0.8,1.6,0.3c0.1-0.1-0.2-0.3,0.2-0.4c0.1,0-0.1-0.1,0-0.2c-0.2,0-0.4,0-0.5,0c-0.2-0.1-0.3-0.1-0.5-0.2c-0.2-0.1-0.3-0.3,0-0.4c0.6-0.1,1.2,0.3,1.6,0.1c0.4-0.2,0.7-0.2,1.1-0.3c0.2,0,0.7,0,0.6,0.2c-0.1,0.1-0.4,0.1-0.6,0.1c-0.3,0.1-0.6,0.2-0.9,0.3c0.2,0,0.2,0.2,0.4,0.2c0.4-0.1,0.8-0.2,1.2-0.3c0-0.1,0.1-0.2,0.1-0.3h0.1c-0.2-0.3,0.4-0.2,0.6-0.4c0,0,0,0.1,0.1,0.1c-0.3,0.1-0.2,0.3-0.3,0.5c0,0-0.2,0.1-0.1,0.1c0.2,0.1,0.2-0.1,0.3,0c0.1,0,0.3,0.1,0.4,0.1c0.2,0,0.4-0.1,0.3-0.3c-0.2-0.2-0.3-0.3-0.3-0.5c0,0,0-0.1-0.1-0.1c0.3,0,0.6,0.1,0.7,0.3c0.2,0.2,0.2,0.4,0.5,0.4c0.5,0.1,0.5-0.2,0.5-0.4c0.4,0,0.9,0.2,0.9,0.4c0,0.1-0.4,0.3-0.7,0.3c-0.2,0-0.1,0.2-0.2,0.2c-0.3,0-0.6,0-0.7,0.1c-0.1,0.1,0,0.5,0.2,0.6c0.3,0.1,0.8,0,1.2,0c0-0.2,0.3-0.3,0.5-0.4c0.3-0.1-0.1-0.3-0.3-0.4c-0.2-0.1,0-0.1,0.1-0.2c0.1-0.1,0.5,0,0.6-0.1s-0.1-0.4,0.1-0.5c0.1-0.1,0.3,0.1,0.2,0.2c0.2,0,0.2-0.1,0.4-0.1s0.3,0.2,0.2,0.2c-0.3,0.2-0.5,0.3-0.4,0.5c0,0.1-0.3,0.2-0.2,0.3c0.3,0.2,0.2,0.4,0.3,0.6c0.1,0.2,0.6,0.3,1,0.2c-0.2-0.4,0.8-0.2,1.3-0.3v-0.1c-0.2-0.1-0.3-0.2-0.2-0.4l-0.1-0.1c0.6,0.2,1.8,0.5,2.3,0.9c-0.6,0.1-1.8-0.2-2.4,0c-0.7,0.2-1.5,0.4-2.3,0.4c-0.3,0-0.7-0.2-1-0.2 M228.2,158.6c0.1,0-0.2,0-0.3-0.1" />
    <path fill="#007934" stroke="#000000" stroke-width="0.08" d="M225.7,162c1.2-0.1,1.4,0.9,2.2,0.1c0.7,0.1,1.4-0.1,1.4-0.2c1.7,0.4,6.9-0.1,6.6-0.5c-0.5-0.6-1.4-0.9-2.1-1.4c-0.2-0.1-0.5-0.2-0.7-0.2c-0.4-0.1-0.9,0-1.3-0.2c-0.5-0.3-1.1-0.6-1.6-1c-0.3-0.2-0.4-0.6-0.7-0.8c-0.4-0.3-0.9-0.3-1.2-0.5c-0.6-0.2-0.9-0.8-1.4-1.1c-0.2-0.1-0.5-0.1-0.7-0.3c-0.4-0.2-0.8-0.7-1.2-0.7c-0.7,0.1-1.1,0.7-1.8,1c-0.6,0.3-0.8,0.7-1.3,1c-0.1,0.1-1.6,1.1-3.3,1.8s-3.9,1.5-4.1,1.5c0,0,1.5,1.1,5,0.9l2.1,0.7l1.2-0.2C222.7,162,225.7,162,225.7,162L225.7,162z" />
    <path fill="#007934" stroke="#000000" stroke-width="0.08" d="M218.6,159.3c0.8-0.4,3.8-1.8,4.7-2.8c-0.1,0,0.3,0.3,0.2,0.4c0.3,0,0.1-0.3,0.4-0.3c0.2,0,0.3-0.1,0.5-0.1s0.1,0.1,0.1,0.1c-0.2,0.4-0.8,0.6-1.2,1c0.1,0,0.1,0.1,0.1,0.1c0.2,0,0.3,0,0.5-0.1v-0.1c0.2,0.1,0.1,0.2,0,0.2c-0.1,0.2-0.6,0.2-0.7,0.4c-0.2,0.2-0.3,0.4-0.6,0.5c0.2-0.1,0.4-0.3,0.6-0.3c0.4,0,0.5-0.2,0.8-0.3s0.6-0.3,0.8-0.5c-0.1,0.1-0.3,0.3-0.2,0.4c0,0,0.1,0.1,0.2,0.1c-0.2,0.3-0.8,0.4-0.9,0.8c-0.2-0.1-0.3,0-0.4,0.1c-0.2,0-0.1,0.3-0.2,0.3c-0.5,0.2-0.7,0.6-0.9,0.9c0,0-0.4,0.2-0.5,0.2c-0.2,0.1-1.7,1.1-1.8,1c-0.1-0.7-1.6,0.3-5-0.7" />
    <path fill="#00A6DE" stroke="#000000" stroke-width="0.16" d="M225,133.8c-11.3,0-20.5,10.3-20.5,23.1S213.7,180,225,180s20.5-10.3,20.5-23.1S236.3,133.8,225,133.8z M225,139c8.3,0,15.4,7.7,15.4,17.9s-7.2,17.9-15.4,17.9s-15.4-7.7-15.4-17.9S216.7,139,225,139z" />
  </g>
  <g>
    <path fill="#E8A30E" stroke="#000000" stroke-width="0.0768" d="M228,166.7c0,0.1,0,0.1-0.3,0.2c-0.2,0-0.3,0-0.3-0.1s0-0.1,0.3-0.2C227.9,166.6,228,166.6,228,166.7z" />
    <path fill="#E8A30E" stroke="#000000" stroke-width="0.0768" d="M228,166.7c0,0.1-0.1,0.1-0.3,0.1s-0.3,0-0.3,0c0-0.1,0.1-0.1,0.3-0.1S228,166.7,228,166.7z M226.2,172.4c0.5-1.3,0.6-2.3-0.1-3.8c1.2-1.1,2-0.7,2.8,0.1c-0.7,1.4-0.6,2.4-0.1,3.7C227.9,172.9,227.1,172.8,226.2,172.4z" />
    <path fill="#E8A30E" stroke="#000000" stroke-width="0.0768" d="M227.8,167.9c-0.2,1.5-0.3,3-0.2,4.8h0.1C227.6,170.9,227.7,169.4,227.8,167.9L227.8,167.9z M228.2,166.4c-0.2,0.2-0.3,0.2-0.2,0.6C228.2,166.8,228.2,166.7,228.2,166.4z" />
    <path fill="#E8A30E" stroke="#000000" stroke-width="0.0768" d="M227.5,167.9L227.5,167.9c0,1.6-0.1,3.2-0.1,4.8h0.1C227.6,171.1,227.7,169.5,227.5,167.9L227.5,167.9z M228.1,167.9c-0.2,0.1-0.3,0.1-0.3,0.5C228,168.1,228,168.2,228.1,167.9z M228.3,168.1c-0.4,1.3-0.5,2.5-0.5,4.6h0.1C227.9,170.6,227.9,169.4,228.3,168.1L228.3,168.1z M229,166.7c-0.3,0.2-0.4,0.2-0.3,0.5C228.9,167.1,228.9,167,229,166.7z" />
    <path fill="#E8A30E" stroke="#000000" stroke-width="0.0768" d="M228.6,168.1c-0.2,0-0.3,0-0.4,0.4C228.5,168.4,228.5,168.4,228.6,168.1z M228.7,168.4c-0.6,1.2-0.7,2.2-0.4,4.2h0.1C228.1,170.7,228.2,169.6,228.7,168.4L228.7,168.4z M229.7,167c-0.3,0.1-0.4,0.1-0.4,0.5C229.5,167.4,229.6,167.3,229.7,167z M229.1,168.4c-0.2,0-0.3,0-0.4,0.3C228.9,168.6,228.9,168.6,229.1,168.4z M227.2,167.9L227.2,167.9c0.1,1.5,0.2,3,0.2,4.8c0,0,0,0,0.1,0C227.6,170.9,227.4,169.4,227.2,167.9z M226.8,166.3c0.2,0.2,0.3,0.2,0.2,0.6C226.8,166.8,226.8,166.6,226.8,166.3z" />
    <path fill="#E8A30E" stroke="#000000" stroke-width="0.0768" d="M227.7,166.5c0.1,0.1,0.3,0.2,0.2,0.6C227.7,166.9,227.7,166.9,227.7,166.5z M227.7,166.9c0.2,0.1,0.3,0.2,0.2,0.5C227.7,167.2,227.7,167.2,227.7,166.9z M227.6,167.1c0.1,0.1,0.3,0.2,0.2,0.6C227.6,167.5,227.6,167.5,227.6,167.1z M227.5,167.8c0.2,0.1,0.4,0.2,0.3,0.6C227.5,168.1,227.5,168.1,227.5,167.8z M228.3,166.7c-0.1,0.1-0.4,0.1-0.4,0.5C228.2,167,228.2,167,228.3,166.7z M228.3,167c-0.1,0.1-0.4,0.1-0.4,0.4C228.2,167.2,228.2,167.3,228.3,167z M228.2,167.2c-0.1,0.1-0.4,0.1-0.4,0.5C228.2,167.5,228.2,167.5,228.2,167.2z M228.2,167.6c-0.1,0-0.4,0-0.4,0.4C228.1,167.9,228,167.8,228.2,167.6z M228.6,168.1c0.1,0.2,0.3,0.3,0,0.6C228.5,168.4,228.5,168.4,228.6,168.1z M229.7,167.3c-0.1,0-0.4,0-0.5,0.3C229.5,167.6,229.5,167.6,229.7,167.3z M227.4,167.1c-0.1,0.1-0.3,0.2-0.2,0.6C227.4,167.5,227.4,167.5,227.4,167.1z M227.5,167.8c-0.2,0.1-0.4,0.2-0.3,0.6C227.4,168.1,227.5,168.1,227.5,167.8z M226.7,166.7c0.1,0.1,0.4,0.1,0.4,0.5C226.7,167,226.7,167,226.7,166.7z" />
    <path fill="#E8A30E" stroke="#000000" stroke-width="0.0768" d="M226.7,168.1C226.7,168.2,226.7,168.2,226.7,168.1c0.3,1.3,0.5,2.5,0.4,4.6h0.1C227.3,170.6,227.2,169.4,226.7,168.1z M226,166.6c0.3,0.2,0.4,0.2,0.3,0.5C226.1,167,226,166.9,226,166.6z" />
    <path fill="#E8A30E" stroke="#000000" stroke-width="0.0768" d="M226.3,168.4C226.3,168.5,226.3,168.5,226.3,168.4c0.5,1.2,0.5,2.2,0.4,4.1l0,0h0.1C227,170.7,226.9,169.7,226.3,168.4z M225.3,166.9c0.3,0.2,0.4,0.1,0.4,0.5C225.4,167.3,225.4,167.2,225.3,166.9z" />
    <path fill="#E8A30E" stroke="#000000" stroke-width="0.0768" d="M225.9,168.3c0.2,0,0.3,0,0.4,0.3C226,168.5,226,168.6,225.9,168.3z M227.2,166.3c0.2,0.3,0.3,0.3,0.2,0.6C227.2,166.7,227.2,166.6,227.2,166.3z" />
    <path fill="#E8A30E" stroke="#000000" stroke-width="0.0768" d="M227.2,167.8c0.2,0.1,0.3,0.1,0.3,0.5C227.3,168.1,227.3,168.1,227.2,167.8z M227,168C227,168,226.9,168,227,168c0.3,1.5,0.4,2.9,0.3,4.7l0,0l0,0C227.5,171.1,227.4,169.5,227,168z M226.4,166.5c0.2,0.2,0.4,0.2,0.3,0.6C226.4,166.9,226.4,166.8,226.4,166.5z" />
    <path fill="#E8A30E" stroke="#000000" stroke-width="0.0768" d="M227.8,167.8c-0.2,0.1-0.4,0.2-0.3,0.5C227.8,168.1,227.8,168.1,227.8,167.8z M227.1,166.6c0.1,0.1,0.4,0.1,0.3,0.5C227.1,166.9,227.1,167,227.1,166.6z M227.2,167.8c-0.1,0.1-0.4,0.3-0.2,0.6C227.2,168.2,227.3,168.2,227.2,167.8z M226.3,166.9c0.1,0.1,0.4,0,0.4,0.4C226.4,167.1,226.4,167.2,226.3,166.9z M226.3,167.1c0.1,0.1,0.4,0,0.5,0.4C226.4,167.4,226.4,167.4,226.3,167.1z M226.4,167.4c0.1,0.1,0.4,0,0.5,0.4C226.5,167.7,226.5,167.7,226.4,167.4z M226.5,167.7c0.1,0,0.4-0.1,0.5,0.4C226.7,168.1,226.7,167.9,226.5,167.7z" />
    <path fill="#E8A30E" stroke="#000000" stroke-width="0.0768" d="M226.7,168c0.2,0.1,0.3,0,0.4,0.4C226.8,168.3,226.8,168.3,226.7,168z M226.2,168.6L226.2,168.6c0.4,0.9,0.5,1.6,0.4,2.3l0,0c0,0.5-0.1,1-0.2,1.5h0.1l0,0C226.9,170.9,226.8,169.7,226.2,168.6z" />
    <path fill="#E8A30E" stroke="#000000" stroke-width="0.0768" d="M226.6,168.3C226.5,168.3,226.5,168.3,226.6,168.3c0.4,1.4,0.5,2.6,0.4,4.4h0.1l0,0C227.2,170.9,227.1,169.6,226.6,168.3z M225.7,166.8c0.3,0.2,0.4,0.1,0.4,0.5C225.8,167.2,225.7,167,225.7,166.8z" />
    <path fill="#E8A30E" stroke="#000000" stroke-width="0.0768" d="M226.2,168.2c0.2,0,0.3,0,0.4,0.4C226.3,168.4,226.3,168.5,226.2,168.2z M225,167.1c0.3,0.1,0.4,0.1,0.5,0.4C225.2,167.5,225.1,167.4,225,167.1z M225.7,168.5c0.2,0,0.3-0.1,0.5,0.3C225.9,168.7,225.9,168.7,225.7,168.5z M228.1,168c-0.4,1.5-0.5,3.1-0.4,4.7h0.1C227.7,170.9,227.8,169.5,228.1,168L228.1,168z M228.7,166.6c-0.2,0.2-0.4,0.2-0.3,0.5C228.7,167,228.7,166.9,228.7,166.6z M228.4,168c-0.2,0-0.3,0-0.4,0.4C228.3,168.3,228.3,168.3,228.4,168z M228.5,168.2c-0.6,1.3-0.7,2.6-0.5,4.4h0.1C228,170.8,228.1,169.6,228.5,168.2C228.6,168.3,228.5,168.3,228.5,168.2z M229.4,166.8c-0.3,0.2-0.4,0.1-0.4,0.5C229.3,167.3,229.3,167.1,229.4,166.8z" />
    <path fill="#E8A30E" stroke="#000000" stroke-width="0.0768" d="M226.1,166.8c-0.1,0.2-0.3,0.3,0,0.6C226.3,167.2,226.3,167.1,226.1,166.8z M226.3,167.2c-0.1,0.2-0.3,0.2-0.1,0.5C226.3,167.5,226.4,167.5,226.3,167.2z M226.4,167.4c-0.1,0.2-0.3,0.3,0,0.6C226.6,167.7,226.5,167.7,226.4,167.4z M226.6,167.6c-0.1,0.2-0.3,0.3-0.1,0.6C226.7,168,226.6,167.9,226.6,167.6z M226.7,167.9c-0.1,0.2-0.3,0.3-0.1,0.6C226.8,168.3,226.8,168.3,226.7,167.9z M225.6,167.1c0.1,0.1,0.4,0,0.5,0.4C225.8,167.4,225.8,167.4,225.6,167.1z M225.7,167.4c0.1,0.1,0.4,0,0.5,0.3C225.9,167.6,225.9,167.6,225.7,167.4z M225.8,167.6c0.1,0.1,0.4,0,0.5,0.4C226,167.9,226,167.9,225.8,167.6z M225.9,167.9c0.1,0,0.4-0.2,0.5,0.3C226.2,168.2,226.2,168.1,225.9,167.9z M227.8,167.8c0.1,0.2,0.4,0.3,0.2,0.6C227.8,168.2,227.8,168.2,227.8,167.8z M228.8,166.9c-0.1,0.1-0.4,0-0.4,0.4C228.7,167.2,228.7,167.2,228.8,166.9z M228.7,167.2c-0.1,0.1-0.4,0-0.5,0.4C228.6,167.4,228.6,167.5,228.7,167.2z M228.7,167.4c-0.1,0.1-0.4,0-0.5,0.4C228.6,167.7,228.5,167.7,228.7,167.4z M228.6,167.8c-0.1,0-0.4-0.1-0.5,0.4C228.4,168.1,228.4,167.9,228.6,167.8z M229.4,167.4c-0.1,0-0.4,0-0.5,0.3C229.2,167.7,229.2,167.7,229.4,167.4z M229.3,167.7c-0.1,0.1-0.4,0-0.5,0.3C229.1,167.9,229.1,168,229.3,167.7z M229.1,168c-0.1,0-0.4-0.2-0.5,0.3C228.9,168.3,228.9,168.2,229.1,168z M228.9,168.2c-0.2,0-0.3,0-0.4,0.3C228.8,168.5,228.8,168.5,228.9,168.2z M228.9,168.6c-0.7,1.2-0.6,2.5-0.3,3.9h0.1c-0.1-0.6-0.2-1.2-0.2-1.8l0,0C228.5,170.1,228.6,169.4,228.9,168.6C229,168.6,228.9,168.6,228.9,168.6z M230.1,167.3c-0.3,0.1-0.4,0.1-0.5,0.4C229.9,167.6,230,167.5,230.1,167.3z" />
    <path fill="#E8A30E" stroke="#000000" stroke-width="0.0768" d="M227.7,166.5c-0.1,0.1-0.4,0.2-0.2,0.6C227.7,166.9,227.7,166.9,227.7,166.5z M227.7,166.9c-0.2,0.1-0.4,0.1-0.3,0.5C227.6,167.2,227.7,167.2,227.7,166.9z M227.8,167.1c-0.1,0.1-0.3,0.2-0.2,0.6C227.8,167.5,227.7,167.5,227.8,167.1z M227.8,167.4c-0.2,0.1-0.4,0.2-0.3,0.6C227.8,167.8,227.7,167.7,227.8,167.4z M227.1,166.9c0.1,0.1,0.4,0.1,0.4,0.5C227.1,167.2,227.1,167.2,227.1,166.9z M227.1,167.2c0.1,0.1,0.4,0.1,0.4,0.5C227.2,167.5,227.2,167.5,227.1,167.2z M227.1,167.5c0.1,0.1,0.4,0,0.4,0.5C227.3,167.9,227.3,167.7,227.1,167.5z M226.9,166.6c-0.1,0.2-0.3,0.3-0.1,0.6C227,167,226.9,167,226.9,166.6z M227,167c-0.2,0.1-0.3,0.2-0.2,0.5C226.9,167.3,227,167.3,227,167z M227,167.2c-0.1,0.2-0.3,0.2-0.1,0.6C227.1,167.6,227.1,167.6,227,167.2z M227.2,167.5c-0.1,0.2-0.4,0.3-0.2,0.6C227.2,167.9,227.1,167.8,227.2,167.5z M225.5,167.1c-0.1,0.2-0.2,0.3,0.1,0.6C225.7,167.4,225.6,167.4,225.5,167.1z M225.7,167.4c-0.1,0.2-0.2,0.3,0,0.5C225.8,167.7,225.8,167.7,225.7,167.4z M225.8,167.6c-0.1,0.2-0.2,0.3,0.1,0.6C226,167.9,226,167.9,225.8,167.6z M226,167.9c-0.1,0.2-0.3,0.4,0,0.6C226.2,168.2,226.1,168.2,226,167.9z M226.2,168.1c-0.1,0.2-0.3,0.4,0,0.6C226.3,168.5,226.3,168.4,226.2,168.1z M225,167.5c0.1,0,0.4-0.1,0.5,0.3C225.2,167.7,225.2,167.8,225,167.5z M225.1,167.7c0.1,0,0.4-0.1,0.6,0.2C225.3,168,225.3,168,225.1,167.7z M225.3,168c0.1,0,0.4-0.1,0.6,0.3C225.5,168.2,225.5,168.2,225.3,168z M225.5,168.3c0.1,0,0.4-0.2,0.6,0.2C225.8,168.5,225.7,168.4,225.5,168.3z M228.2,166.6c0.1,0.2,0.3,0.3,0.1,0.6C228.1,167,228.2,167,228.2,166.6z M228.1,167c0.2,0.2,0.3,0.2,0.1,0.5C228.1,167.3,228.1,167.4,228.1,167z M228,167.2c0.1,0.2,0.3,0.3,0.1,0.6C227.9,167.6,228,167.6,228,167.2z M227.9,167.5c0.1,0.2,0.4,0.3,0.2,0.6C227.8,167.9,228,167.8,227.9,167.5z M228.9,166.8c0.1,0.2,0.3,0.3,0,0.6C228.8,167.2,228.8,167.2,228.9,166.8z M228.8,167.2c0.1,0.2,0.3,0.3,0.1,0.5C228.7,167.5,228.7,167.5,228.8,167.2z M228.7,167.4c0.1,0.2,0.3,0.3,0,0.6C228.5,167.8,228.5,167.7,228.7,167.4z M228.5,167.7c0.1,0.2,0.3,0.3,0.1,0.6C228.4,168,228.5,168,228.5,167.7z M228.4,168c0.1,0.2,0.3,0.3,0.1,0.6C228.3,168.3,228.3,168.3,228.4,168z M229.5,167.2c-0.1,0.1-0.4,0-0.5,0.3C229.3,167.5,229.3,167.5,229.5,167.2z M229.6,167.2c0.1,0.2,0.2,0.3-0.1,0.6C229.4,167.5,229.4,167.5,229.6,167.2z M229.4,167.5c0.1,0.2,0.2,0.3,0,0.5C229.3,167.8,229.2,167.8,229.4,167.5z M229.3,167.7c0.1,0.2,0.2,0.3-0.1,0.6C229,168,229.1,168,229.3,167.7z M229,167.9c0.1,0.2,0.3,0.4,0,0.6C228.9,168.2,229,168.2,229,167.9z M228.9,168.2c0.1,0.2,0.3,0.4,0,0.6C228.7,168.5,228.7,168.5,228.9,168.2z M230.1,167.6c-0.1,0-0.4-0.1-0.5,0.2C229.9,167.8,229.9,167.9,230.1,167.6z M229.9,167.9c-0.1,0-0.4-0.1-0.6,0.2C229.8,168.1,229.7,168.1,229.9,167.9z M229.8,168.1c-0.1,0-0.4-0.1-0.6,0.2C229.6,168.3,229.6,168.3,229.8,168.1z M229.6,168.3c-0.1,0-0.4-0.2-0.6,0.2C229.3,168.6,229.3,168.5,229.6,168.3z" />
    <path fill="#E8A30E" stroke="#000000" stroke-width="0.0768" d="M229.3,168.5c-0.2,0-0.3-0.1-0.5,0.3C229.2,168.8,229.2,168.8,229.3,168.5z M227.2,170.3h0.7c0.4,0,0.8,0.1,0.8,0.2c0,0.1-0.3,0.2-0.8,0.2h-0.7c-0.4,0-0.8-0.1-0.8-0.2C226.4,170.3,226.7,170.2,227.2,170.3z" />
    <path fill="#E8A30E" stroke="#000000" stroke-width="0.0768" d="M226.7,170.2l-0.2,0.4h0.1h0.1l0.2-0.4H226.7z M227.2,170.3l-0.2,0.4h0.3l0.2-0.4H227.2z M227.8,170.3l-0.2,0.4h0.3l0.2-0.4H227.8z M228.3,170.3l-0.2,0.4h0.3l0.2-0.4l-0.1-0.1L228.3,170.3z" />
  </g>
  <g>
    <path fill="#E7E7E7" stroke="#000000" stroke-width="0.0768" d="M222.8,168c0,0,0.2,1.1,0.3,1.7c0,0.1,0.1,0.1,0.1,0.2c0,0.1,0,0.1,0,0.2l0,0c0,0.1-0.1,0.2-0.1,0.3s0.1,0.1,0.1,0.1c0.1,0.3,0.2,0.7,0.2,1c0,0.1,0,0,0.2,0.3h0.1h0.1l0.1,0.1l-0.1,0.1l-0.4,0.1l-0.2-0.1c0,0,0.1-0.1,0-0.2c0,0-0.1,0-0.1-0.1s0-0.3,0-0.3l0,0c0,0-0.3-0.4-0.5-0.6c-0.1-0.1-0.1-0.3-0.1-0.4c0-0.1-0.1-0.1-0.2-0.2c-0.3-0.6-0.7-1.8-0.7-1.8 M217.7,167.9l1.1,0.3l-0.3,1.6c-0.2,0.5-0.2,0.5-0.1,0.7c0.1,0.3,0.2,0.7,0.7,1.4c0.2,0.2,0.3,0.2,0.4,0.2c0,0.1,0.2,0.2,0.3,0.2h0.3c0.1-0.1,0.1-0.1,0.1-0.1c0-0.1-0.2,0-0.3-0.1c-0.1-0.2-0.3-0.5-0.4-0.7c-0.1-0.5-0.1-0.5-0.1-0.9c0-0.2,0.2-0.8,0.3-1.1c0.2-0.3,0.3-0.8,0.3-1.2l-0.5-1.1l-0.3-0.4 M218.2,165.9c-1.8,0.6-1,2.2-0.5,2.2 M223.5,163l0.3-0.6v-0.2l0,0l-0.5,0.6l0,0" />
    <path fill="#E7E7E7" stroke="#000000" stroke-width="0.0768" d="M224.5,164c0.1,0,0.3,0.1,0.3,0s0-0.1,0-0.2c0,0,0-0.1,0-0.2c-0.3-0.2-0.5-0.2-0.6-0.4v-0.1c0-0.2-0.5-0.2-0.6-0.3c0,0-0.2-0.1-0.3-0.1h-0.1c-0.5,0-0.7,0.5-0.7,0.8c0,0-0.1,1.3-0.3,1.9c0,0.1-0.1,0.1-0.1,0.1l-0.1,0.1c-1.3-0.1-2.1-0.1-2.6-0.1s-1.1,0.4-1.1,0.5c0,0-0.6,0.4-0.7,1c0,0.2,0,0.4,0.1,0.7c0.6,1.6,1.1,0,1.3,0h0.3c0.3,0,0.8,0.9,1.7,1.1c2.5,0.5,3.2-0.8,3.1-3.7l0,0V165l0.1-0.2v-0.3v-0.2v-0.1l0.7-0.1l0.1-0.1" />
    <path fill="#E7E7E7" stroke="#000000" stroke-width="0.0768" d="M223.3,163.2l0.3-0.7v-0.2v-0.1l-0.5,0.7l0,0 M217.4,167.6c0.2,0.5,0.4,1,0.4,1.1c0,0.3-0.2,0.4-0.2,0.4l-0.1,0.1c-0.1,0.1-0.1,0.2-0.2,0.3c0,0.1-0.1,0.2-0.1,0.4c0.1,0.5,0.3,1.4,0.3,1.4s0.2,0.1,0.2,0.2c0,0.1,0,0.2,0,0.3s-0.1,0.4-0.1,0.4v0.1l0.2,0.1h0.3l-0.2-0.2v-0.1c0-0.1,0.1-0.2,0.2-0.3c0-0.1,0-0.2,0-0.2c0-0.1-0.1-0.1-0.1-0.1c0-0.2,0-0.3,0-0.5s0-0.7,0-0.7l0.1-0.1l0.1-0.1c0,0,0.4-0.2,0.6-0.4c0.2-0.2,0.5-0.6,0.5-0.6s0.1-0.2,0.1-0.3v-0.1c0-0.2-0.1-0.4-0.2-0.6c-0.1-0.2-0.2-0.3-0.3-0.5l0,0 M222.8,168.6c-0.3,0.2-1.1,0.4-1.1,0.6c0,0,0,1-0.1,1.4c0,0.2-0.1,0.2-0.2,0.4c-0.1,0.2-0.1,0.3-0.1,0.4c-0.1,0.2-0.2,0.3-0.2,0.6v0.2l0.2,0.1l-0.3,0.1l-0.4-0.2v-0.4l0.1-0.4v-0.1l-0.1-0.2l-0.1-0.8l0.1-0.6l-0.1-2.3 M223.5,164.1c0.2,0.1,0.4,0.2,0.8,0.1c0.1,0.1,0.2,0.1,0.4-0.1 M224.5,163.7l0.1,0.1c0,0,0.1-0.1,0-0.1C224.6,163.7,224.6,163.7,224.5,163.7L224.5,163.7z" />
    <path fill="#000000" d="M223.6,163.4C223.6,163.4,223.7,163.4,223.6,163.4c0.1,0.2,0.3,0.2,0.4,0.1c0,0,0,0,0.1,0c0,0,0,0-0.1,0C223.9,163.3,223.7,163.4,223.6,163.4C223.7,163.4,223.6,163.4,223.6,163.4z" />
    <path fill="#E7E7E7" stroke="#000000" stroke-width="0.0769" stroke-miterlimit="1.8171" d="M230.7,170.6L230.7,170.6c0,0.2,0,0.3,0,0.5s0,0.3,0,0.5c0,0.1,0,0.3,0,0.4c0,0.1,0,0.3,0,0.4c0.2,0.1,0.6,0.1,0.8,0c0-0.1,0-0.3,0-0.4c0-0.1,0-0.3,0-0.4c0-0.1,0-0.3,0-0.5c0-0.1,0-0.3,0-0.5c0-0.1,0-0.3,0-0.5c0-0.1,0-0.3,0-0.5c0-0.1,0-0.3,0-0.5l0,0c0-0.1,0-0.3,0-0.5s0-0.3,0-0.5s0-0.3,0-0.5c0-0.1,0-0.3,0-0.5s0-0.3,0-0.5l0,0c0-0.2,0-0.3,0-0.5s0-0.3,0-0.5s0-0.3,0-0.5s0-0.3,0-0.5c0-0.1,0-0.3,0-0.5s0-0.3,0-0.5s0-0.3,0-0.5s0-0.3,0-0.5s0-0.3,0-0.5s0-0.3,0-0.4c0,0,0-0.1,0-0.2H231c0,0,0,0.1,0,0.2c0,0.1,0,0.4,0,0.4c0,0.1,0,0.3,0,0.5s0,0.3,0,0.5s0,0.3,0,0.5s0,0.3,0,0.5s0,0.3,0,0.5s0,0.3,0,0.5s0,0.3,0,0.5s0,0.3,0,0.5s0,0.3,0,0.5s-0.1,0.3,0,0.5c0,0.2,0,0.3,0,0.5s0,0.3,0,0.5s0,0.3,0,0.5s0,0.3,0,0.5s0,0.3,0,0.5s0,0.3,0,0.5C230.7,170.3,230.7,170.4,230.7,170.6L230.7,170.6z" />
    <path fill="#E7E7E7" stroke="#000000" stroke-width="0.0768" stroke-linejoin="round" stroke-miterlimit="1.8171" d="M230.7,171c0.2,0.1,0.6,0.1,0.8,0 M230.7,170.6c0.2,0.1,0.6,0.1,0.8,0 M230.7,170.1c0.2,0.1,0.6,0.1,0.7,0 M230.7,169.6c0.2,0.1,0.6,0.1,0.7,0 M230.7,169.1c0.2,0.1,0.5,0.1,0.7,0 M230.7,168.6c0.2,0,0.5,0.1,0.7,0 M230.8,168.1c0.2,0,0.5,0.1,0.7,0 M230.8,167.7c0.2,0.1,0.5,0,0.7,0 M230.8,167.2c0.2,0.1,0.5,0.1,0.6,0 M230.8,166.7c0.2,0.1,0.5,0,0.6,0 M230.8,166.2c0.2,0,0.5,0,0.6,0 M230.8,165.7c0.2,0,0.5,0,0.6,0 M230.8,165.2c0.2,0.1,0.5,0,0.6,0 M230.8,164.7c0.2,0,0.5,0,0.6,0 M230.8,164.2c0.2,0,0.5,0,0.6,0 M230.9,163.7c0.2,0,0.5,0,0.5,0 M230.9,163.3c0.2,0,0.4,0,0.5,0 M230.9,162.8c0.2,0,0.4,0,0.5,0 M230.9,162.3c0.2,0,0.4,0,0.5,0 M230.9,161.8c0.1,0,0.5,0,0.5,0 M230.7,171.5c0.2,0.1,0.7,0.1,0.8,0 M230.7,171.9c0.2,0.1,0.7,0.1,0.8,0" />
    <path fill="#007934" stroke="#E7E7E7" stroke-width="0.0769" stroke-miterlimit="1.8171" d="M232.2,160.7c0.3-0.1,0.7-0.1,1.3-0.1c-0.1,0-0.3-0.1-0.5-0.2c0.3,0,1.2,0,1.4,0c-0.1-0.1-0.5-0.2-0.6-0.2c0.5-0.1,1,0,1.4,0.1c-0.2-0.1-0.4-0.2-0.6-0.3c0.5,0,0.8,0,1.3,0.1c-0.1-0.1-0.3-0.2-0.6-0.3c0.6-0.1,0.9-0.1,1.5-0.1c-1.7-0.8-3.8-0.4-5,0.5c0.1-0.2,0.4-0.5,0.7-0.7c-0.1,0-0.3,0-0.4,0c0.2-0.2,0.5-0.5,0.8-0.6c-0.2,0-0.3,0-0.5,0c0.2-0.2,0.6-0.4,0.9-0.6c-0.2,0-0.4,0-0.5,0c0.2-0.3,0.6-0.6,1-0.7c-0.2,0-0.4,0-0.6,0c0.3-0.3,0.7-0.6,1.2-0.8c-2.1,0.2-3.2,1.7-3.3,3c-0.6-1.2-2.1-2.3-4.1-2.2c0.6,0.2,1.1,0.4,1.5,0.7c-0.2,0-0.4,0-0.6,0c0.4,0.1,0.9,0.3,1.2,0.6c-0.2,0-0.4,0-0.6,0.1c0.3,0.1,0.8,0.3,1.1,0.5c-0.2,0-0.3,0-0.5,0.1c0.3,0.1,0.7,0.3,0.9,0.5c-0.2,0-0.3,0-0.5,0c0.6,0.2,0.7,0.4,0.8,0.4c-1.3-0.3-3.2,0.2-4.6,1.8c0.2-0.2,1.1-0.5,1.4-0.6c-0.1,0.2-0.2,0.3-0.3,0.5c0.3-0.3,0.8-0.5,1.3-0.7c-0.1,0.1-0.2,0.3-0.3,0.5c0.3-0.2,0.4-0.2,1.1-0.6c-0.1,0.1-0.2,0.3-0.3,0.4c0.2-0.1,0.7-0.3,1.1-0.4c0,0-0.2,0.2-0.3,0.4c0.1,0,0.6-0.2,0.6-0.2c-1.1,0.8-1.9,2-1.7,3.6c0.1-0.2,0.4-0.9,0.5-1.2c0,0.2,0,0.5,0.1,0.6c0.2-0.5,0.3-0.8,0.6-1.2c0,0.2,0,0.5,0,0.6c0.1-0.3,0.3-0.6,0.6-1.3c0,0.1,0,0.4,0,0.6c0.1-0.3,0.4-0.8,0.7-1.2c0,0.1,0,0.4,0,0.5c0-0.1,0.1-0.2,0.2-0.3c0.2-0.2,0.3-0.5,0.4-0.6c0,0,0.1,0.1,0.1,0.2c0.2,0.3,0.3,0.7,0.3,1.1c0.1-0.2,0.1-0.4,0.1-0.5c0.2,0.4,0.4,1.1,0.4,1.5c0.1-0.2,0.1-0.3,0.1-0.6c0.2,0.3,0.4,1.1,0.4,1.5c0.1-0.1,0.1-0.3,0.2-0.6c0.2,0.4,0.3,1,0.3,1.4c0.5-1.8-0.2-3-1.1-4c0.2,0.1,0.5,0.4,0.8,0.7c0-0.1-0.1-0.4-0.2-0.5c0.3,0.2,0.8,0.7,0.9,0.9c0-0.2,0-0.3-0.1-0.5c0.4,0.3,0.7,0.7,0.9,1c0-0.1,0-0.3-0.1-0.6c0.4,0.3,0.7,0.8,0.9,1.1c0-0.2-0.1-0.4-0.1-0.6c0.5,0.4,0.7,0.8,0.8,1.1C235.9,162.3,234,160.8,232.2,160.7L232.2,160.7z" />
  </g>
  <g>
    <path fill="none" stroke="#E7E7E7" stroke-width="0.0768" d="M231.4,160.7c2-0.3,4.5,1.4,4.5,3.3c-0.2-0.3-0.3-0.7-0.8-1.1c0,0.2,0.1,0.4,0.1,0.6c-0.2-0.3-0.5-0.8-0.9-1.1c0.1,0.3,0.1,0.5,0.1,0.6c-0.2-0.3-0.5-0.7-0.9-1c0.1,0.2,0.1,0.3,0.1,0.5c-0.1-0.1-0.6-0.6-0.9-0.9c0.1,0.1,0.1,0.4,0.2,0.5c-0.3-0.3-0.6-0.5-0.8-0.7 M231,160.7c-1.2-0.8-3.7-0.6-5.5,1.5c0.2-0.2,1.1-0.5,1.4-0.6c-0.1,0.2-0.2,0.3-0.3,0.5c0.3-0.3,0.8-0.5,1.3-0.7c-0.1,0.1-0.2,0.3-0.3,0.5c0.3-0.2,0.4-0.2,1.1-0.6c-0.1,0.1-0.2,0.3-0.3,0.4c0.2-0.1,0.7-0.3,1.1-0.4c0,0-0.2,0.2-0.3,0.4c0.1,0,0.6-0.2,0.6-0.2 M231.1,160.4c-0.2-1.4-1.9-3-4.3-2.9c0.6,0.2,1.1,0.4,1.5,0.7c-0.2,0-0.4,0-0.6,0c0.4,0.1,0.9,0.3,1.2,0.6c-0.2,0-0.4,0-0.6,0.1c0.3,0.1,0.8,0.3,1.1,0.5c-0.2,0-0.3,0-0.5,0.1c0.3,0.1,0.7,0.3,0.9,0.5c-0.2,0-0.3,0-0.5,0c0.6,0.2,0.7,0.4,0.8,0.4 M231.1,160.9c-1.6,0.5-3.2,2.1-3,4.2c0.1-0.2,0.4-0.9,0.5-1.2c0,0.2,0,0.5,0.1,0.6c0.2-0.5,0.3-0.8,0.6-1.2c0,0.2,0,0.5,0,0.6c0.1-0.3,0.3-0.6,0.6-1.3c0,0.1,0,0.4,0,0.6c0.1-0.3,0.4-0.8,0.7-1.2c0,0.1,0,0.4,0,0.5c0.1-0.1,0.5-0.9,0.6-0.9 M230.2,161.7c-0.1,0.3-0.2,0.7-0.2,0.9 M229.6,162.1c-0.1,0.3-0.2,0.8-0.3,1.1 M229,162.7c-0.2,0.4-0.3,0.9-0.4,1.2 M231.2,161.6v-0.4 M232.9,163.3c0,0.3,0.1,0.5,0.1,0.9 M232.2,162.3c0.1,0.3,0.1,0.6,0.1,1 M231.7,161.6c0.1,0.2,0.1,0.5,0.1,0.8 M234.7,162.1c0.2,0.3,0.3,0.6,0.4,0.8 M233.9,161.5c0.2,0.3,0.4,0.7,0.5,0.9 M233.1,161.3c0.2,0.2,0.3,0.5,0.4,0.8 M226.9,161.6c0.2-0.2,0.5-0.5,1.1-0.7 M227.9,161.4c0.2-0.3,0.4-0.5,1-0.8 M228.8,161.3c0.2-0.3,0.5-0.5,1-0.7 M229.6,161.3c0.3-0.3,0.6-0.4,1-0.6 M228.3,158.2c0.4,0,1,0.2,1.4,0.4 M228.9,158.8c0.4,0,0.9,0.1,1.2,0.3 M229.4,159.3c0.4,0,0.9,0.2,1.2,0.4 M229.8,159.8c0.5,0,0.9,0.2,1.1,0.4 M231.4,160.3c1.2-1,3.5-1.6,5.3-0.7c-0.6,0-0.9,0-1.5,0.1c0.2,0.1,0.5,0.2,0.6,0.3c-0.5-0.1-0.7-0.1-1.3-0.1c0.3,0.1,0.5,0.2,0.6,0.3c-0.4-0.1-0.9-0.1-1.4-0.1c0.1,0,0.4,0.2,0.6,0.2c-0.2,0-1,0-1.4,0c0.2,0.1,0.4,0.1,0.5,0.2c-0.6,0-1,0-1.3,0.1 M235.2,159.7c-0.4-0.1-1-0.2-1.3-0.2 M234.5,159.9c-0.7-0.2-1.3-0.2-1.6-0.2 M233.8,160.1c-0.6-0.2-1.2-0.2-1.6-0.1 M233,160.4c-0.6-0.1-0.9-0.1-1.3-0.1 M232.2,161c0.2,0.2,0.4,0.4,0.5,0.7 M230.9,159.7c0.1-1.3,1.2-2.8,3.3-3c-0.5,0.3-0.9,0.5-1.2,0.8c0.2,0,0.4,0,0.6,0c-0.4,0.2-0.8,0.4-1,0.7c0.2,0,0.4,0,0.5,0c-0.3,0.1-0.6,0.4-0.9,0.6c0.2,0,0.3,0,0.5,0c-0.2,0.1-0.6,0.4-0.8,0.6c0.2,0,0.3,0,0.4,0c-0.3,0.2-0.5,0.5-0.7,0.7 M233,157.6c-0.3,0.1-0.7,0.2-1,0.4 M232.6,158.3c-0.3,0-0.6,0.2-0.9,0.3 M232.2,158.8c-0.3,0.1-0.6,0.2-0.9,0.4 M231.9,159.4c-0.5,0.1-0.7,0.3-0.9,0.5 M230.8,161.4c-0.1,0.2-0.2,0.5-0.2,0.7 M231.3,160.8c1.2,1,2.6,2.3,1.9,4.7c0-0.4-0.1-0.9-0.3-1.4c0,0.3-0.1,0.4-0.2,0.6c0-0.3-0.2-1.1-0.4-1.5c0,0.3-0.1,0.4-0.1,0.6c0-0.4-0.2-1.1-0.4-1.5c0,0.1-0.1,0.3-0.1,0.5c0-0.5-0.2-1.1-0.5-1.3" />
    <path fill="#E8A30E" stroke="#000000" stroke-width="0.0769" stroke-linecap="square" stroke-linejoin="round" d="M216,140.4c0-0.5-0.1-0.9-0.4-1.3c-0.3-0.4-0.7-0.6-1.2-0.6c-0.4,0-0.9,0.1-1.3,0.5c-0.4,0.3-0.6,0.7-0.6,1.2s0.1,0.9,0.4,1.3c0.3,0.4,0.7,0.6,1.1,0.6c0.5,0,0.9-0.1,1.3-0.5C215.8,141.3,216,140.9,216,140.4z M214.4,141.5c-0.3-0.1-0.6-0.3-0.9-0.6c-0.6-0.7-0.7-1.3-0.2-1.6c0.3-0.2,0.6-0.3,0.8-0.2c0.3,0.1,0.6,0.3,0.9,0.7c0.3,0.4,0.5,0.7,0.5,0.9c0,0.3-0.1,0.5-0.3,0.7C215,141.5,214.7,141.6,214.4,141.5z M208.4,146.8l1.1,0.6c0.4,0.2,0.6,0.4,0.9,0.5l0,0l0.2-0.4c0.1-0.1,0.1-0.2,0.2-0.4c0.1-0.2,0.2-0.3,0.2-0.4c0.2-0.4,0.3-0.8,0.2-1.1s-0.2-0.5-0.4-0.6s-0.4-0.1-0.6-0.1c-0.2,0.1-0.4,0.2-0.6,0.4c0-0.2,0-0.3-0.1-0.5s-0.2-0.3-0.3-0.3s-0.2-0.1-0.3-0.1s-0.2,0-0.3,0s-0.2,0.1-0.4,0.2c-0.1,0.1-0.2,0.3-0.3,0.5c0,0-0.1,0.1-0.2,0.3c-0.1,0.2-0.2,0.3-0.2,0.4c-0.1,0.1-0.1,0.2-0.2,0.4l0,0C207.8,146.5,208.1,146.7,208.4,146.8z M209.6,146.1c0.2-0.4,0.6-0.5,1-0.2c0.1,0.1,0.2,0.1,0.2,0.1s0.1,0.1,0.1,0.2c0,0.1,0,0.2,0,0.3s-0.1,0.2-0.2,0.4c-0.1,0.2-0.2,0.2-0.2,0.3c-0.1,0-0.1,0-0.2,0l-1-0.5L209.6,146.1z M208.3,145.4c0.1-0.1,0.2-0.2,0.3-0.2s0.3,0,0.5,0.1s0.3,0.2,0.3,0.3s0,0.2-0.1,0.4l-0.2,0.4l-0.8-0.4c-0.1,0-0.1-0.1-0.1-0.2C208.2,145.7,208.2,145.6,208.3,145.4z M220.1,138.8c0-0.2-0.1-0.6-0.2-1l-0.3-1.2c-0.1-0.4-0.2-0.7-0.3-1l0,0c0.2,0,0.3-0.1,0.4-0.1l0.4-0.1l0,0c0,0.2,0.1,0.6,0.2,1l0.3,1.2c0.1,0.3,0.2,0.5,0.2,0.6c0.2-0.1,0.4-0.1,0.6-0.2c0.2-0.1,0.4-0.2,0.5-0.2l0.2-0.1l0,0c0,0.1,0,0.1,0.1,0.3c0,0,0,0.1,0.1,0.2l0,0c-0.1,0-0.2,0-0.3,0.1l-1.5,0.4L220.1,138.8L220.1,138.8z M238.9,146.7c0,0.1,0.1,0.2,0.1,0.2c0.3,0,0.7-0.1,1.2-0.1l0,0c0.1,0.2,0.2,0.4,0.3,0.6c0.1,0.1,0.1,0.3,0.2,0.5c-0.3,0.4-0.6,0.6-0.9,0.8c0,0,0.1,0.2,0.2,0.4c0.1,0.2,0.2,0.4,0.2,0.4c0.4-0.5,1.2-1.4,2.5-2.7l-0.2-0.4c-0.7,0-2,0-3.7,0C238.8,146.5,238.9,146.5,238.9,146.7z M241.8,146.7L241.8,146.7c-0.2,0.3-0.5,0.6-0.8,0.9c-0.1-0.2-0.1-0.3-0.2-0.4c-0.1-0.2-0.2-0.4-0.2-0.5H241.8z M236.7,143.5c-0.1-0.1-0.2-0.2-0.3-0.3c0,0-0.1-0.1-0.3-0.3l0,0c0.2-0.2,0.5-0.4,0.8-0.6l0.9-0.8c0.3-0.3,0.5-0.5,0.7-0.7l0,0c0.1,0.1,0.2,0.2,0.3,0.3c0,0,0.1,0.1,0.3,0.3l0,0c-0.2,0.2-0.5,0.4-0.8,0.6l-0.9,0.8C237.1,143,236.9,143.3,236.7,143.5L236.7,143.5z M232.1,139.8l-0.3-0.2c0-0.3,0.1-0.7,0.1-1.3c0.1-0.6,0.1-1.1,0.1-1.5s0.1-0.7,0.1-0.9c0,0,0.2,0.1,0.4,0.3c0.2,0.1,0.3,0.2,0.3,0.2c-0.2,0.7-0.3,1.5-0.4,2.5c1-0.8,1.7-1.4,2-1.7c0,0,0.1,0.1,0.3,0.2c0.1,0.1,0.2,0.1,0.2,0.1C233.5,138.7,232.6,139.4,232.1,139.8z M226.5,138c0,0-0.1,0-0.4,0l0,0c0.1-0.3,0.1-0.6,0.2-1l0.1-1.2c0-0.4,0.1-0.7,0.1-1l0,0c0.2,0,0.3,0,0.4,0.1c0,0,0.1,0,0.4,0l0,0c-0.1,0.3-0.1,0.6-0.2,1L227,137c0,0.4-0.1,0.7,0,1l0,0C226.8,138.1,226.6,138,226.5,138z M206.2,161l0.4-1.4l-1.2-0.9h1.5l0.5-1.4l0.5,1.4h1.5l-1.2,0.9l0.4,1.4l-1.2-0.8L206.2,161z M243.3,164.8l-1.2,0.9l0.4,1.4l-1.2-0.8l-1.2,0.8l0.4-1.4l-1.2-0.9h1.5l0.5-1.4l0.5,1.4H243.3z M243.4,159.6l0.4,1.4l-1.2-0.8l-1.2,0.8l0.4-1.4l-1.2-0.9h1.5l0.5-1.4l0.5,1.4h1.5L243.4,159.6z M209.8,167.1l-1.2-0.8l-1.2,0.8l0.4-1.4l-1.2-0.9h1.5l0.5-1.4l0.5,1.4h1.5l-1.2,0.9L209.8,167.1z M230,176.8l-1.2,0.9l0.4,1.4l-1.2-0.8l-1.2,0.8l0.4-1.4l-1.2-0.9h1.5l0.5-1.4l0.5,1.4H230z M235.7,174.4l-1.2,0.9l0.4,1.4l-1.2-0.8l-1.2,0.8l0.4-1.4l-1.2-0.9h1.5l0.5-1.4l0.5,1.4H235.7z M223.9,176.8l-1.2,0.9l0.4,1.4l-1.2-0.8l-1.2,0.8l0.4-1.4l-1.2-0.9h1.5l0.5-1.4l0.5,1.4H223.9z M213.5,169.9l-1.2,0.9l0.4,1.4l-1.2-0.8l-1.2,0.8l0.4-1.4l-1.2-0.9h1.5l0.5-1.4l0.5,1.4H213.5z M240.4,169.9l-1.2,0.9l0.4,1.4l-1.2-0.8l-1.2,0.8l0.4-1.4l-1.2-0.9h1.5l0.5-1.4l0.5,1.4H240.4z M218.2,174.4l-1.2,0.9l0.4,1.4l-1.2-0.8l-1.2,0.8l0.4-1.4l-1.2-0.9h1.5l0.5-1.4l0.5,1.4H218.2z" />
  </g>
  <g>
    <path fill="#452C25" stroke="#000000" stroke-width="0.075" d="M248,122.3l2.1,1.2c0,0,0.5,0.4-0.6,0.2c-1.1-0.2-3.5-1.1-8-4c-2-1.3-2.7-1.3-2.7-1.3l0.9-1.1L248,122.3L248,122.3z" />
    <path fill="#452C25" stroke="#000000" stroke-width="0.075" d="M248.7,121.7l2.1,1.2c0,0,0.5,0.4-0.6,0.2c-1.1-0.2-3.5-1.1-8-4c-2-1.3-0.4,1.1-0.4,1.1l0.3-1.6L248.7,121.7z M239.2,123.8l0.8,1.2c0,0-0.3,1.1-3.2-1.1s-2.7-2-2.7-2l1.6-0.2L239.2,123.8 M235.4,124.4c0,0,1.3,1.8,1,2s-3-1.7-3-1.7l0.1-2.8L235.4,124.4" />
    <path fill="#452C25" stroke="#000000" stroke-width="0.073" d="M252.2,122.9c0,0-2.5-0.5-3.4-1.1c0,0,0.2,0.3-1.1-0.3c0,0,0.5,1.1-3-1.3c-3.4-2.3-2.2-1.2-2.2-1.2l0.3-0.8c0,0,5.6,2.3,6.1,2.5C249.5,120.9,252.2,122.9,252.2,122.9L252.2,122.9z M236.8,123.6c0,0,1.3,1.7,1.2,2s-2,0.1-3.4-1.6c-1.5-1.7-0.2-2.2-0.2-2.2L236.8,123.6z" />
    <path fill="#452C25" stroke="#000000" stroke-width="0.083" d="M244.2,122.6c0,0,3.7,1.6,1,1.5c0,0-5.4-1.4-8.1-3.8l0.8-1L244.2,122.6 M240.3,123.3c0,0,1.4,1.2,1.3,1.3c-0.2,0.1-3.1-0.3-5.4-2.1l0.3-1.1L240.3,123.3" />
    <path fill="#452C25" stroke="#000000" stroke-width="0.083" d="M246.1,122.2c0,0,2,1.2,2.1,1.7s-6.2-1.2-9.6-4l1.5-0.7L246.1,122.2z M242.8,123.1c0,0,1.4,1,1.1,1.1c-0.3,0.1-1.4,1-6.7-2.1l-0.6-0.3l0.8-1.3L242.8,123.1z" />
    <path fill="#452C25" stroke="#000000" stroke-width="0.083" d="M237.3,120.2c0,0,1.7,1.5,1.5,1.8c-0.2,0.2-2.3-0.3-3.2-0.9c-0.9-0.7-1.6-1.5-1.6-1.5l1.9-0.4L237.3,120.2z M233.3,126.5c0,0,0.6,1.5,0.2,1.6c-0.3,0.1-1.2-0.1-1.9-1.5c-0.7-1.4,0.5-0.8,0.5-0.8L233.3,126.5z" />
    <path fill="#452C25" stroke="#000000" stroke-width="0.083" d="M235.3,117.7l3.1,1.9c0,0,2.6,1.8,2.3,2s-2.3-0.5-3.7-1.3s-3.1-2.5-3.1-2.5 M234.3,125.6c0,0,0.9,1.5,0.7,1.6c-0.2,0.2-1.4,0.7-2.6-1.2c-1.3-1.9,1.3-1.5,1.3-1.5L234.3,125.6z" />
    <path fill="#452C25" stroke="#000000" stroke-width="0.083" d="M231.8,119c0,0,2.9,5.8,2.6,6.1c-0.2,0.3-1.4,0-2.1-1.5c-0.7-1.5-1.2-3.5-1.2-3.5v-1.3L231.8,119z M235.2,120.4c0,0,2.5,2.2,2,2.4c-0.5,0.3-1.5,0.2-3-1.3C232.7,120.1,235.2,120.4,235.2,120.4z M234,120.5c0,0,1.8,3.3,1.6,3.6c-0.2,0.3-1.6-0.8-2.2-1.7c-0.7-0.8-1.2-2.1-1.2-2.1 M220.6,127.2c0,0-0.1,1.9,0,2.1c0.1,0.1,1.1,0.1,1.1-1.3c0.1-1.4-0.2-1.5-0.2-1.5L220.6,127.2" />
    <path fill="#452C25" stroke="#000000" stroke-width="0.083" d="M221.1,124.9c0,0-0.7,2.2,0,2.6s1.2-2.1,1.2-2.7C222.4,124.2,221.1,124.9,221.1,124.9z M221.6,127.7c0,0,0.1,2,0.5,2.1s1-0.6,1-1.1s-0.6-1.7-0.6-1.7L221.6,127.7" />
    <path fill="#452C25" stroke="#000000" stroke-width="0.083" d="M221.6,125.3c0,0-0.7,2.2,0,2.6s1.2-2.1,1.2-2.7C222.9,124.6,221.6,125.3,221.6,125.3z M221.7,121.8c0,0-1,1-1,1.6s1.5-0.8,1.6-1C222.5,122.1,221.7,121.8,221.7,121.8z M232.2,124.1c0,0,0.5,2,0.1,2.2c-0.8,0.4-1.2-1.4-1.3-2.1S232.2,124.1,232.2,124.1L232.2,124.1z M230.6,127.3c0,0,0.1,1.5-0.1,1.6c-0.2,0.1-0.7,0.2-1.3-1.1c-0.6-1.3-0.3-0.8-0.3-0.8l1.5-0.7l0.3,0.8" />
    <path fill="#452C25" stroke="#000000" stroke-width="0.083" d="M232.1,127c0,0,0.2,1.6-0.1,1.6s-1.2-0.5-1.5-1.5c-0.4-1.1,1.5-0.8,1.5-0.8L232.1,127z M230.6,122.1c0,0,1.6,3.7,1.4,4.2c-0.5,1-2-2.2-2.5-3.5C229,121.4,230.6,122.1,230.6,122.1L230.6,122.1z" />
    <path fill="#452C25" stroke="#000000" stroke-width="0.083" d="M221,121.2c0,0-0.8,1.5-0.6,1.9c0.2,0.5,1-0.3,1.4-0.9C222.1,121.7,221,121.2,221,121.2z M232.2,119.2c0,0,1.3,2.4,0.9,2.5s-0.9-0.5-1.4-1.2C231.2,119.9,232.2,119.2,232.2,119.2z M229.8,122.7c0,0,2.2,4,1.3,4.1s-2.7-2.9-2.9-3.6C227.9,122.5,229.8,122.7,229.8,122.7z" />
    <path fill="#452C25" stroke="#000000" stroke-width="0.083" d="M229.7,123.5c0,0,1.1,3.9,0.4,3.5c-0.7-0.3-1.6-3.3-1.7-3.9C228.3,122.6,229.7,123.5,229.7,123.5z M233.6,118c0,0,1.7,2.6,1.1,2.7c-0.6,0.4-2.8-2.4-2.8-2.7C231.9,117.7,233.6,118,233.6,118z" />
    <path fill="#452C25" stroke="#000000" stroke-width="0.083" d="M232.1,117.6c0,0,2.6,3.6,1.9,3.7s-0.7-0.3-0.7-0.3s-1.7-1.6-1.8-1.9c-0.1-0.5,0.1-1.7,0.2-1.6L232.1,117.6z M234.7,118c0,0,1.4,1.7,1,2.3c-0.4,0.5-2.8-2.1-3-2.5c-0.3-0.3,0.9-0.7,0.9-0.7L234.7,118z M230.8,119.8c0,0,2.6,5.2,2.2,5.6c-0.4,0.5-3.8-4.4-3.9-4.9C229,120,230.8,119.8,230.8,119.8z" />
    <path fill="#452C25" stroke="#000000" stroke-width="0.0969" d="M229.3,120.3c0,0,1.4,1.9,1.3,2.6c-0.1,0.8-1.4-1.3-1.6-1.7C228.4,120.7,229.3,120.3,229.3,120.3z M231.1,119.5c0,0,1.2,2,1,2.5s-1.3-1.2-1.7-1.7C230.1,119.7,231.1,119.5,231.1,119.5z M228,121.1c0,0,1.4,1.7,1.3,2.4s-2.5-2.2-2.7-2.5C226.5,120.7,227.8,120.5,228,121.1z M235.5,117.1c0,0,2,2.2,1.7,2.4c-0.3,0.2-2.7-1.5-3-1.8C233.8,117.4,235.5,117.1,235.5,117.1z M234.4,117.6l1.2,1.2c0,0,1.3,0.9,1.1,1.1s-2.2-0.7-2.6-1.1c-0.4-0.4-0.3-0.9-0.3-0.9L234.4,117.6z M238.5,117.5c0,0,5.5,2.6,5.3,3.1s-5.5-1.7-6.3-2.3c-0.8-0.5,0.6-0.9,0.7-0.9" />
    <path fill="#452C25" stroke="#000000" stroke-width="0.083" d="M239,118.7c0,0,3.9,2.2,3.5,2.4c-0.5,0.2-3.3-0.5-4.7-1.5c-1.5-1-2.6-2.4-2.6-2.4l2.3,0.3L239,118.7z M228.9,120.7c0,0,1.2,2.1,0.9,2.6c-0.2,0.5-1.7-1.6-2.1-2.2C227.4,120.6,228.9,120.7,228.9,120.7z M229.5,124.7c0,0,0.6,2.2-0.1,2.6c-0.7,0.4-1.1-2.2-1.1-2.8C228.3,124,229.5,124.7,229.5,124.7z M219.2,121.5c0,0-0.5,2-0.1,2.2c0.8,0.4,1.3-1.4,1.4-2.1C220.5,120.8,219.2,121.5,219.2,121.5z" />
    <path fill="#452C25" stroke="#000000" stroke-width="0.0832" d="M229.5,125.9c0,0-0.2-0.8-0.3-1c-0.1-0.1,0.1-0.2,0.1-0.2s-0.3-0.8-0.6-1c-0.2-0.1,0-0.3,0-0.3s-0.4-0.6-0.6-0.8c-0.3-0.2,0-0.2,0-0.2s-0.3-0.8-0.9-1.1c0,0-0.4-0.5-0.9-0.6c-0.4-0.1-1.4-0.4-2.7-0.4c-1.4,0-2,0.7-2,0.7l-0.2,1.6l0.2-0.1l-0.3,1.4c0,0.3,0.2,0.9,0.3,1.5c0,0.2,0,0.4,0,0.7c0.1,0.6,0.2,1.2,0.5,1.8c0,0,0,0.2,0.1,0.1c0.1-0.1,0.2,0.4,0.4,0.6c0,0,0.1,0.7,0.1,0.4c0-0.1,0.2,0.4,0.4,0.7c0,0.1,0.3,0.9,0.3,0.5s0.2,0.8,0.2,1l0.3-0.5l0.2,0.5h0.3l-0.1,0.5c0,0,0.7-0.6,0.8-0.8c0-0.2,0.1-0.4,0.1-0.4l0.2-0.2l0.4-0.6c0,0,0.9,0.7,1,1s0.2,0.5,0.2,0.5l0.2-0.2l0.2,0.5l0.1-0.3l0.1,0.4l0,0l0.1,0.2c0.1,0.1,0.2,0.1,0.5-0.4c0.4-0.7,0.4-1.2,0.4-1.3s0.2,0.2,0.2,0.2s0.3-0.6,0.3-1c-0.1-0.4,0.2-0.3,0.2-0.3s0.1-1.1,0-1.3c-0.1-0.3,0.2-0.2,0.2-0.2s-0.1-1.3-0.2-1.4C229.3,125.9,229.5,125.9,229.5,125.9L229.5,125.9z M220.4,121.4c0,0-1,1-1,1.6s1.5-0.8,1.6-1S220.4,121.4,220.4,121.4z M203.2,121.6c0,0-2.1,1-2.3,1.5c-0.2,0.4,6.3-0.7,9.8-3.2l-1.4-0.9L203.2,121.6z" />
    <path fill="#452C25" stroke="#000000" stroke-width="0.083" d="M205.6,122c0,0-3.8,1.4-1.1,1.5c0,0,5.4-1.1,8.3-3.3l-0.7-1.1L205.6,122z M211.2,118.2c0,0-4,2.1-3.6,2.3s3.3-0.4,4.8-1.3s2.1-1.4,2.1-1.4l-1.8-0.5L211.2,118.2z M209.7,122.7c0,0-1.4,1.2-1.3,1.3c0.2,0.1,3.1-0.3,5.4-2.1l-0.3-1.1L209.7,122.7" />
    <path fill="#452C25" stroke="#000000" stroke-width="0.083" d="M207.2,122.4c0,0-1.4,1.1-1.1,1.2c0.3,0.1,1.5,0.9,6.6-2.4l0.6-0.4l-0.9-1.3L207.2,122.4z M215.6,125.3c0,0-0.9,1.4-0.7,1.6s1.3,0.7,2.7-1.1c1.3-1.8-1.2-1.5-1.2-1.5L215.6,125.3z" />
    <path fill="#452C25" stroke="#000000" stroke-width="0.083" d="M216.6,126.3c0,0-0.6,1.5-0.3,1.6s1.2-0.1,2-1.4c0.7-1.3-0.3-0.7-0.3-0.7L216.6,126.3z M214.6,124.1c0,0-1.4,1.7-1.1,1.9c0.3,0.2,1.9,0.2,3.1-1.5c1.2-1.7,0-0.1,0-0.1l-0.3-1.5L214.6,124.1" />
    <path fill="#452C25" stroke="#000000" stroke-width="0.083" d="M213.2,123.2c0,0-1.4,1.6-1.2,1.9c0.1,0.3,2,0.2,3.5-1.4s0.3-2.2,0.3-2.2L213.2,123.2 M201.4,121.5l-1.9,0.8c0,0-0.4,0.4,0.7,0.4c1.1,0,3.4-0.3,7.4-2.5c1.8-1,2.9-2,2.9-2l-1.4-0.5L201.4,121.5z" />
    <path fill="#452C25" stroke="#000000" stroke-width="0.083" d="M210.8,123.3l-0.9,1.2c0,0,0.2,1.1,3.2-0.9c3-2.1,2.8-1.9,2.8-1.9l-1.6-0.3L210.8,123.3z M206.5,120.3l6.6-3.4l-1.6-0.2c0,0-10.8,4.3-11.4,4.5c-0.6,0.2-1.9,1.7-1.9,1.7s2.7-0.3,3.8-1c0,0-0.2,0.3,1.2-0.2C203.1,121.5,202.4,122.7,206.5,120.3z M217.8,126.2c0,0-0.3,2.1,0.1,2.2c0.3,0.1,1.2-0.6,1.6-1.9c0.4-1.3-1.5-1.2-1.5-1.2L217.8,126.2" />
    <path fill="#452C25" stroke="#000000" stroke-width="0.083" d="M219.2,127.1c0,0-0.2,1.6,0.1,1.7c0.2,0.1,0.7,0.2,1.4-1c0.6-1.2,0.3-0.8,0.3-0.8l-1.4-0.8L219.2,127.1z M219.6,124.4c0,0-1.2,2.5-0.5,2.5s1.6-1.9,1.7-2.4C221,124.1,219.6,124.4,219.6,124.4z" />
    <path fill="#452C25" stroke="#000000" stroke-width="0.083" d="M219.5,124.4c0,0-0.4,2.8,0.2,2.6c0.6-0.2,1-2.3,1-2.8S219.5,124.4,219.5,124.4z M220.5,124.6c0,0-0.7,2.2,0,2.6s1.2-2.1,1.2-2.7C221.7,124,220.5,124.6,220.5,124.6z M217.8,123.9c0,0-0.7,2-0.3,2.2c0.8,0.4,1.4-1.4,1.5-2.1S217.8,123.9,217.8,123.9z M212.8,119.8c0,0-1.8,1.5-1.6,1.7s2.3-0.2,3.2-0.8c0.9-0.6,1.3-1,1.3-1l-1.6-1L212.8,119.8z" />
    <path fill="#452C25" stroke="#000000" stroke-width="0.083" d="M214.4,118.3c0,0-1.1,0.9-0.9,1.2c0.2,0.2,2.3-0.6,2.6-1c0.4-0.4,0.3-0.8,0.3-0.8L214.4,118.3z" />
    <path fill="#452C25" stroke="#000000" stroke-width="0.083" d="M215.5,118.2c0,0-1.5,1.3-1.2,1.7c0.4,0.5,2.5-1.6,2.8-1.8c0.3-0.3-1.8,0.1-1.8,0.1 M214.9,117.6l-3.1,1.5c0,0-2.6,1.7-2.4,1.9c0.3,0.2,2.3-0.4,3.8-1.1s3.1-1.9,3.1-1.9L214.9,117.6z M215.7,119.3c0,0-3.6,2.9-3.1,3.2c0.5,0.3,3-0.9,4.5-2.3L215.7,119.3z" />
    <path fill="#452C25" stroke="#000000" stroke-width="0.083" d="M216.1,120.2c0,0-1.9,3.2-1.7,3.5s1.6-0.8,2.3-1.6c0.7-0.8,1.2-2,1.2-2L216.1,120.2z" />
    <path fill="#452C25" stroke="#000000" stroke-width="0.083" d="M217.2,120.5c0,0-2.1,3.8-1.8,4.1c0.2,0.3,1.4,0.1,2.1-1.4c0.7-1.5,0.7-2.5,0.7-2.5L217.2,120.5z M216.6,118c0,0-1.7,2.3-1.2,2.4s2.6-1.5,2.6-1.8C218,118.3,216.6,118,216.6,118z" />
    <path fill="#452C25" stroke="#000000" stroke-width="0.083" d="M218.4,120.7c0,0-2.3,4.7-1.8,5.2s3-3.6,3.1-4.2C219.9,120.7,218.4,120.6,218.4,120.7 M213.6,117.6c0,0-2.1,1-1.6,1.2c0.4,0.2,2.4-0.7,2.6-0.8C214.9,117.9,213.6,117.6,213.6,117.6z M218,119c0,0-1.4,2.3-1,2.5c0.3,0.1,0.9-0.4,1.5-1.1C219,119.7,218,119,218,119z" />
    <path fill="#452C25" stroke="#000000" stroke-width="0.083" d="M213.9,117.9c0,0-1.3,1-1,1.3s2.2-0.8,2.6-1.1C215.9,117.7,213.9,117.9,213.9,117.9z M217.4,118.5c0,0-1.9,2.3-1.3,2.5c0.5,0.1,0.6-0.2,0.6-0.2s1.5-1.2,1.6-1.5C218.3,118.9,217.4,118.5,217.4,118.5 M218.3,120.1c0,0-0.8,1.5-0.6,1.9c0.2,0.5,1-0.3,1.4-0.9S218.3,120.1,218.3,120.1z M218.6,124.2c0,0-0.5,2-0.1,2.2c0.8,0.4,1.3-1.4,1.4-2.1C219.9,123.6,218.6,124.2,218.6,124.2z M211.4,117.5c0,0-5.3,1.9-5.1,2.4s5.5-1.5,6.4-2C213.5,117.4,211.5,117.5,211.4,117.5" />
    <path fill="#BD8759" stroke="#000000" stroke-width="0.083" d="M222.9,133.7c0,0-0.6,0.5-0.7,0.7c-0.1,0.2-0.1,0.4-0.1,0.4s0.5-0.1,0.5,0.2c0,0,0.2,0.1,0.5-0.5s0.5-0.9,0.7-0.9s0.4,0.2,0.6,0.3c0.1,0.1,0.3,0.2,0.5,0.2c0,0-0.2-0.4-0.1-0.4c0.1-0.1,0.4-0.1,0.4-0.1s-0.2-0.4-0.6-0.5c-0.4-0.1-0.7-0.2-0.6-0.3c0.1-0.2,0.6-1.5,0.6-1.5l-0.7-1l-0.3,0.9c0,0,0.1,0.5,0.1,0.6s-0.5,1.2-0.6,1.3s-1.5,0.6-1.7,0.7c-0.2,0.1-0.5,0.5-0.5,0.5v0.3c0,0,0.2-0.2,0.3-0.1c0,0,0.2-0.2,0.3-0.1s0.1,0.1,0.1,0.1s0.3-0.2,0.3-0.3s0.1-0.1,0.1-0.1s0.1,0,0.3-0.1 M227,130.6c0,0,0,1.2,0,1.4s0,0.5-0.1,0.7s-0.2,0.3-0.4,0.3s-0.7,0-0.8,0.2s-0.2,0.3-0.2,0.3s0.3-0.2,0.4,0c0,0.2-0.1,0.3-0.1,0.3s0.3,0.1,0.6-0.1c0.3-0.2,0.4-0.2,0.5-0.2s0.2,0.1,0.2,0.1s0.1,0.4,0,0.6c0,0.2-0.1,0.7,0.2,0.7c0,0,0.1-0.2,0.2-0.3c0.1,0,0.4,0.2,0.3,0.3c0,0,0-0.5,0-0.8c-0.1-0.3-0.1-0.6-0.1-0.6s0.8,0.3,0.9,0.4c0.1,0.1,0.3,0.3,0.3,0.3c0.1,0,0-0.3,0.1-0.3c0.1-0.1,0.2,0.1,0.2,0.1s-0.2-0.6-0.6-0.7c-0.4-0.2-0.6-0.2-0.7-0.3c-0.1-0.2-0.2-0.3-0.2-0.5s0-1.8,0-1.8L227,130.6L227,130.6z" />
    <path fill="#DCDDDE" d="M221.9,123.3c0,0-0.1-0.8,0.1-0.9c0,0,0.1-0.7,1.1-0.6c0,0,0.3-0.5,0.9-0.3c0,0,0.5-0.2,0.8-0.1s0.7,0.4,0.7,0.4s0.4-0.1,0.6,0.1c0.2,0.2,0.1,0.7,0.1,0.7s0.5,0.4,0.5,0.7s0,0.5-0.1,0.5c0,0,0.2,0.2,0.2,0.4c0,0.2-0.2,0.6-0.3,0.6s0,0.6-0.2,0.9c-0.2,0.2-0.4,0.3-0.5,0.3s-0.3,0.4-0.6,0.4c-0.2,0-0.5-0.3-0.6-0.5c0-0.1-0.3-0.2-0.3-0.2s-0.7,0.7-1.2,0.6s-0.7-0.5-0.7-0.6s-0.2-0.6-0.2-0.6s-0.5-0.3-0.5-0.6c0-0.3,0.3-0.6,0.3-0.6L221.9,123.3z" />
    <path fill="none" stroke="#000000" stroke-width="0.083" d="M223.6,132.5c-0.1,0-0.1,0-0.1,0 M223.9,131.9c-0.1,0-0.1,0-0.2-0.1 M223.6,132.2h0.1 M223.1,133.1C223.2,133.1,223.2,133.1,223.1,133.1 M227.3,132.5c0.1,0,0.2,0.1,0.3,0.1 M227.4,132.3c-0.1,0-0.1,0-0.2-0.1 M227.5,131.9c-0.1,0-0.2,0-0.3,0 M227.1,133.1c0.1,0,0.2,0.1,0.3,0.1 M227.2,133.4h0.1 M227.2,134.4c0.1,0,0.1,0,0.2,0 M224.2,133.1c-0.1,0-0.1,0.1-0.2,0.1 M224.7,133.2c-0.1,0.1-0.2,0.1-0.2,0.3 M221.7,133.7c0.1,0.1,0.2,0.1,0.3,0.2 M228.1,133.3c-0.1,0-0.1,0.1-0.1,0.2 M228.5,133.4l-0.1,0.1" />
    <path fill="#D9C0B9" stroke="#000000" stroke-width="0.083" d="M220.9,134.4l0.3-0.1l0,0c0,0-0.2,0.4-0.2,0.5C221.2,135,220.8,134.7,220.9,134.4z M222.2,134.7c0,0-0.4,0.6,0.1,1c0,0,0-0.6,0.4-0.7L222.2,134.7z M224.7,134.1l-0.1-0.3l0.1-0.2h0.3l0.1,0.1c0,0,0.2,0.5,0,0.8c0,0-0.1-0.3-0.2-0.3C225,134,224.8,134,224.7,134.1z M225.6,133.4h0.2l0.1,0.2v0.2l-0.2,0.1c0,0-0.3-0.1-0.2,0.3C225.4,134.2,225.3,133.5,225.6,133.4z M227.2,134.9l0.2-0.3l0.3,0.1l-0.1,0.7c0,0.1,0,0.1,0,0.1s0-0.1-0.1-0.2C227.3,135.3,227.2,134.9,227.2,134.9z M228.7,134.2c0,0,0.4,0.5,0.3,0.6c0,0,0.4-0.4-0.1-0.9L228.7,134.2z" />
    <path fill="#DBA05F" stroke="#000000" stroke-width="0.083" d="M224.1,122.6c0,0-1.1,0.2-1.3,0.2c-0.3,0.1-0.9,0.1-1.1,0.1c-0.2,0-0.6-0.2-0.8-0.2s-1-0.1-1.3,0.2s-0.5,0.4-0.5,0.5c-0.1,0.1-0.4,0.4-0.5,0.6c0,0.1,0.1,0.4,0.3,0.4s0.6,0.4,0.6,0.5s0.5,0.3,0.9,0.3c0.8,0,1.2-0.4,2.5-0.3c0.7,0.1,1.9-0.5,2.2-0.8c0.2-0.3,0.4-0.7,0.1-1C224.8,122.6,224.1,122.6,224.1,122.6z" />
    <path fill="#C6262C" stroke="#000000" stroke-width="0.083" d="M220.5,122.8c0,0,0-0.3-0.3-0.5c-0.3-0.1-0.7-0.1-0.8-0.1s-0.2,0.1-0.3,0.1c-0.2,0-0.3,0.1-0.3,0.1s0,0-0.1,0.1c-0.1,0.2-0.2,0.2-0.2,0.4c0.1,0.1,0,0.2,0.1,0.2s0,0,0,0s-0.6,0.2-0.4,0.5c0.1,0.4,0.3,0.2,0.3,0.2l0.3-0.2l0.5-0.4c0,0,0.5-0.2,0.6-0.2s0.3,0,0.3,0L220.5,122.8z" />
    <path fill="#000000" d="M222.5,127.4C222.5,127.4,222.4,127.4,222.5,127.4c-0.2-0.2-0.2-0.4-0.4-0.7l0,0v-0.1C222.2,126.8,222.3,127.1,222.5,127.4z M222.5,127.7C222.5,127.7,222.5,127.8,222.5,127.7c0.1,0.3,0.2,0.5,0.3,0.7v-0.1C222.7,128.1,222.6,127.9,222.5,127.7z M222.1,126.1C222.1,126.1,222.1,126,222.1,126.1c-0.1-0.2-0.1-0.4-0.2-0.6v0.1l0,0C222,125.8,222.1,126,222.1,126.1z M224.9,126.9L224.9,126.9L224.9,126.9c0,0.2,0,0.2,0.1,0.3v-0.1C224.9,127,224.9,126.9,224.9,126.9C224.9,126.8,224.9,126.9,224.9,126.9z M220.3,123.4c-0.1,0-0.1,0-0.3,0C220.2,123.4,220.3,123.4,220.3,123.4z M222.8,126.5L222.8,126.5c0.1,0.1,0.2,0.4,0.3,0.3v-0.1C223,126.7,223,126.5,222.8,126.5z M221.9,126.2L221.9,126.2L221.9,126.2c0,0.2,0,0.5,0.1,0.7v-0.1C221.9,126.7,221.8,126.5,221.9,126.2z M223.6,129.6L223.6,129.6L223.6,129.6c0,0.3,0.1,0.5,0.2,0.7v-0.1C223.7,130,223.6,129.8,223.6,129.6z M224.3,129.3C224.3,129.3,224.3,129.4,224.3,129.3L224.3,129.3c0.1,0.2,0.1,0.4,0.1,0.5l0,0c0,0,0,0,0-0.1C224.4,129.6,224.4,129.5,224.3,129.3z M224.5,127.8c-0.2-0.1-0.4-0.2-0.6-0.3v0.1C224.1,127.7,224.3,127.8,224.5,127.8C224.5,127.9,224.5,127.8,224.5,127.8z M223.2,128.8L223.2,128.8c0.1,0.2,0.1,0.4,0.2,0.5v-0.1C223.3,129,223.3,128.9,223.2,128.8z M220.3,123.4C220.3,123.4,220.4,123.4,220.3,123.4C220.4,123.4,220.3,123.4,220.3,123.4z M224.4,128.7c-0.1-0.1-0.2-0.2-0.3-0.3v0.1C224.2,128.5,224.3,128.6,224.4,128.7L224.4,128.7z M223.3,128C223.3,128,223.2,128,223.3,128c0.1,0.2,0.2,0.4,0.3,0.6v-0.1C223.5,128.3,223.4,128.1,223.3,128z M223.9,129c0,0.1,0.1,0.3,0.1,0.4l0,0C224,129.2,223.9,129.1,223.9,129S223.9,129,223.9,129z M221.8,125.2L221.8,125.2L221.8,125.2c0,0.1,0,0.3,0,0.4l0,0c0,0,0,0,0-0.1C221.8,125.5,221.8,125.4,221.8,125.2z M223.8,126.8C223.8,126.8,223.8,126.9,223.8,126.8c0.2,0.1,0.3,0.2,0.5,0.3V127C224.1,126.9,223.9,126.9,223.8,126.8z M221.9,122.5L221.9,122.5C221.9,122.5,221.9,122.4,221.9,122.5L221.9,122.5C221.9,122.4,221.9,122.4,221.9,122.5L221.9,122.5L221.9,122.5z M223.2,121.5C223.2,121.5,223.2,121.4,223.2,121.5c-0.2-0.1-0.4-0.1-0.6,0v0.1C222.9,121.5,223.1,121.5,223.2,121.5z M224.3,121.4C224.3,121.4,224.3,121.3,224.3,121.4c-0.2-0.1-0.4-0.1-0.5,0v0.1C223.9,121.4,224.1,121.4,224.3,121.4z M227.6,127.5c0-0.2,0-0.5,0-0.7c0,0,0,0,0,0.1S227.6,127.2,227.6,127.5C227.6,127.4,227.6,127.5,227.6,127.5z M227.5,126L227.5,126c0-0.1,0-0.3,0-0.4l0,0c0,0,0,0,0,0.1l0,0C227.5,125.7,227.5,125.8,227.5,126C227.5,125.9,227.5,125.9,227.5,126z M227.1,122.4c0.1,0,0.1,0.1,0.1,0.1l0,0l0,0C227.2,122.4,227.1,122.4,227.1,122.4C227.1,122.3,227,122.4,227.1,122.4L227.1,122.4z M220.2,123.6L220.2,123.6L220.2,123.6c0,0,0,0-0.1,0c0,0,0,0-0.1,0.1l0,0c0-0.1,0.1-0.1,0.1-0.2s-0.1-0.1-0.2-0.1c-0.1,0.1-0.2,0.2-0.2,0.2c0,0.1,0.1,0.1,0.2,0.1l0,0l0,0l-0.2,0.1l0.2-0.1c0,0-0.2,0-0.2,0.1l0,0l0,0l0,0l0,0l0,0l0,0C219.8,123.9,220,123.9,220.2,123.6L220.2,123.6C220.2,123.7,220.3,123.7,220.2,123.6L220.2,123.6z M220.3,123.4L220.3,123.4L220.3,123.4z M219.8,123.5c0,0.1-0.1,0.1-0.1,0.1c-0.1,0.1-0.1,0.1-0.1,0.1l0,0l0,0l0,0l0,0l0,0c0.2-0.1,0.2-0.4,0.4-0.4c0.1,0,0.2,0,0.2,0h0.1h-0.1l0,0l0,0l0,0h0.1H220h0.4c0,0-0.2,0-0.3,0C219.9,123.4,219.8,123.6,219.8,123.5z M220,123.4L220,123.4L220,123.4L220,123.4z M220,123.4L220,123.4L220,123.4C220.1,123.4,220,123.4,220,123.4z M219.9,123.9L219.9,123.9L219.9,123.9L219.9,123.9z M219.8,123.9L219.8,123.9L219.8,123.9z M219.9,123.9c-0.1,0-0.1,0-0.1,0.1C219.8,123.9,219.8,123.9,219.9,123.9z M227.1,123.7L227.1,123.7c0.1,0.1,0.2,0.3,0.3,0.4V124C227.3,123.9,227.3,123.8,227.1,123.7L227.1,123.7z M228.4,128.5L228.4,128.5L228.4,128.5L228.4,128.5z M228.2,129.1L228.2,129.1c0.1-0.1,0.2-0.3,0.2-0.5v-0.1C228.4,128.7,228.3,128.9,228.2,129.1z M228.1,125.3L228.1,125.3c0,0.2,0,0.5,0,0.7c0,0,0,0,0-0.1C228.2,125.8,228.2,125.6,228.1,125.3C228.2,125.3,228.1,125.3,228.1,125.3z M228.2,124.9c0-0.5,0-0.9-0.4-1.3v0.1l0,0C228.2,124,228.2,124.4,228.2,124.9C228.2,124.8,228.2,124.9,228.2,124.9z M228,126.9L228,126.9c0,0.2,0,0.5,0,0.7l0,0C228,127.4,228,127.1,228,126.9L228,126.9z M228.1,126.3L228.1,126.3c0,0.2,0,0.4-0.1,0.7v0.1C228.1,126.8,228.1,126.6,228.1,126.3L228.1,126.3z M228.2,130.2c0,0.3-0.1,0.6-0.1,0.8c0,0,0,0.1,0,0C228.1,130.8,228.1,130.5,228.2,130.2L228.2,130.2L228.2,130.2z M229,126.7L229,126.7L229,126.7c0.1,0.2,0.2,0.3,0.2,0.5l0,0c0,0,0,0,0-0.1C229.2,126.9,229.1,126.8,229,126.7z M228,123.3c-0.1-0.2-0.2-0.4-0.4-0.4v0.1l0,0C227.9,123,228,123.2,228,123.3C228,123.3,228.1,123.3,228,123.3z M228.8,129.2L228.8,129.2c0,0.1,0,0.2,0,0.3s0,0,0,0C228.9,129.4,228.8,129.3,228.8,129.2C228.8,129.1,228.8,129.2,228.8,129.2z M229.2,125.3c-0.1-0.1-0.2-0.2-0.3-0.3v0.1C229.1,125.2,229.1,125.3,229.2,125.3C229.2,125.4,229.2,125.4,229.2,125.3z M228.6,128c0.1,0.3,0.1,0.5,0.1,0.8l0,0C228.7,128.5,228.7,128.2,228.6,128C228.6,127.9,228.6,127.9,228.6,128z M225,128.4L225,128.4L225,128.4c0,0.2,0,0.3,0,0.4v0.1C225,128.7,225,128.5,225,128.4C225,128.3,225,128.4,225,128.4z M228.8,125.6L228.8,125.6c0,0.2-0.1,0.4-0.1,0.7v0.1C228.8,126.1,228.8,125.9,228.8,125.6C228.8,125.7,228.8,125.6,228.8,125.6z M228.8,125.1c0-0.4,0-0.8-0.2-1.1v0.1l0,0C228.8,124.4,228.8,124.8,228.8,125.1C228.8,125.2,228.8,125.2,228.8,125.1z M228.6,127.3c0-0.2,0-0.4,0-0.6c0,0,0,0,0,0.1S228.6,127.1,228.6,127.3C228.6,127.2,228.6,127.3,228.6,127.3z M226.2,126.6C226.2,126.7,226.2,126.7,226.2,126.6c0.1,0,0.1-0.1,0.2-0.2v-0.1C226.3,126.4,226.3,126.5,226.2,126.6z M226.4,126.3L226.4,126.3L226.4,126.3L226.4,126.3z M226.5,121.7c-0.1-0.1-0.1-0.1-0.2-0.2c-0.1-0.1-0.3-0.1-0.4-0.2l0.1,0.1c0.1,0,0.1,0.1,0.2,0.1C226.2,121.6,226.3,121.7,226.5,121.7C226.4,121.8,226.5,121.8,226.5,121.7C226.5,121.8,226.5,121.7,226.5,121.7z M225.7,129.1c-0.2-0.2-0.3-0.5-0.2-0.8v-0.1C225.4,128.6,225.5,128.9,225.7,129.1L225.7,129.1L225.7,129.1z M226.4,129.6C226.4,129.6,226.4,129.7,226.4,129.6c0.1-0.1,0.1-0.2,0.2-0.3v-0.1C226.6,129.4,226.5,129.5,226.4,129.6z M226.1,127.3L226.1,127.3c0,0.1-0.1,0.1-0.2,0.2l0,0l0,0C226,127.5,226,127.4,226.1,127.3L226.1,127.3z M226,128.7C226,128.7,226,128.8,226,128.7c0.1,0,0.1-0.1,0.2-0.2l0,0l0,0C226.2,128.5,226.1,128.6,226,128.7z M227.1,127.2L227.1,127.2c0,0.1,0,0.3,0,0.4v0.1C227.1,127.6,227.1,127.4,227.1,127.2L227.1,127.2z M227.6,128.1L227.6,128.1c0,0.2-0.1,0.4-0.3,0.5v0.1C227.4,128.6,227.6,128.4,227.6,128.1C227.6,128.2,227.6,128.1,227.6,128.1z M227.4,130.1C227.4,130.1,227.4,130.2,227.4,130.1c0.1-0.1,0.2-0.2,0.3-0.4v-0.1C227.6,129.8,227.5,129.9,227.4,130.1z M227.2,124.9L227.2,124.9c0,0.2,0,0.4-0.1,0.5v0.1C227.2,125.3,227.2,125.1,227.2,124.9L227.2,124.9z M227,126.3L227,126.3c0,0.2,0,0.3,0,0.5v0.1C227,126.7,227,126.5,227,126.3L227,126.3z M226.6,129.2L226.6,129.2L226.6,129.2L226.6,129.2z M227.2,123c-0.1-0.1-0.2-0.2-0.3-0.3v0.1C227,122.9,227.1,123,227.2,123C227.2,123.1,227.2,123,227.2,123z M227.7,129.6L227.7,129.6L227.7,129.6L227.7,129.6z" />
    <path fill="#D9C0B9" stroke="#000000" stroke-width="0.083" d="M217.9,125.1c0,0-0.4-0.8,0.8-1.1c0,0,0.4,0.2,0.5,0.3c0,0-0.2,0.4-0.9,0.5C218.2,124.8,217.9,124.9,217.9,125.1z" />
    <path fill="#D9C0B9" stroke="#000000" stroke-width="0.083" d="M218,125c0,0,0.5,0.1,0.8-0.1s0.4-0.1,0.4-0.1s0-0.3-0.2-0.4c0,0-0.4,0.3-0.6,0.4C218.3,124.8,218.1,124.8,218,125z" />
    <path fill="#7A2E26" d="M219.5,123.7L219.5,123.7L219.5,123.7L219.5,123.7z M219.4,124.7C219.4,124.7,219.4,124.8,219.4,124.7c0.1,0.1,0.2,0.1,0.3,0.1v-0.1C219.6,124.7,219.5,124.7,219.4,124.7z M220.1,124L220.1,124L220.1,124L220.1,124z M219.4,123.9c0.1-0.1,0.2-0.1,0.2-0.2l0,0l0,0l0,0C219.6,123.7,219.5,123.7,219.4,123.9C219.4,123.8,219.4,123.9,219.4,123.9z M220.1,123.9C220.1,123.9,220.1,124,220.1,123.9c0.1,0,0.2,0,0.2-0.1l0,0l0,0C220.2,123.8,220.2,123.9,220.1,123.9z M219.8,124.8C219.8,124.8,219.8,124.9,219.8,124.8c0.2,0.1,0.4,0.1,0.6,0v-0.1C220.2,124.8,220,124.8,219.8,124.8z M219.5,123.6C219.5,123.6,219.5,123.7,219.5,123.6c0,0,0.1-0.1,0.2-0.1v-0.1C219.6,123.5,219.5,123.5,219.5,123.6L219.5,123.6z M220,124C220,124,219.9,123.9,220,124c0,0-0.1,0-0.2,0v0.1C219.9,124.1,219.9,124.1,220,124L220,124z M221.4,124c-0.1,0.3-0.3,0.5-0.6,0.7v0.1l0,0C221.1,124.6,221.3,124.4,221.4,124C221.4,124.1,221.4,124,221.4,124z M224.8,123.7L224.8,123.7L224.8,123.7L224.8,123.7z M221,124.3L221,124.3L221,124.3c0.2,0,0.3-0.2,0.4-0.4v-0.1C221.3,124,221.2,124.1,221,124.3z M224.7,122.9L224.7,122.9c0.1,0.3,0.2,0.6,0.1,0.8v0.1C225,123.4,224.9,123.1,224.7,122.9z M221.8,123.3L221.8,123.3L221.8,123.3c0.2,0.2,0.6,0.5,0.5,0.8v0.1C222.5,123.8,222,123.4,221.8,123.3z M223.1,124.5C223.1,124.6,223.1,124.6,223.1,124.5C223.1,124.6,223.1,124.6,223.1,124.5c0,0,0-0.1,0-0.2c0,0,0,0,0-0.1l0,0C223.2,124.4,223.2,124.5,223.1,124.5z M219.1,123.6L219.1,123.6C219.1,123.7,219.1,123.7,219.1,123.6C219.2,123.7,219.1,123.6,219.1,123.6c0.1-0.1,0.1-0.1,0.1-0.1C219.1,123.5,219.2,123.6,219.1,123.6z M221.3,123.3L221.3,123.3c-0.1-0.2-0.3-0.3-0.4-0.3v0.1C221,123.1,221.2,123.2,221.3,123.3z M224,124.4l-0.3,0.1C223.8,124.5,223.9,124.4,224,124.4z M218.7,124.2c-0.2,0.1-0.5,0.1-0.6,0.4l0,0C218.2,124.3,218.5,124.3,218.7,124.2L218.7,124.2L218.7,124.2z M220.2,122.6c-0.2-0.3-0.8-0.2-1.1-0.1v0.1C219.4,122.4,220,122.4,220.2,122.6C220.2,122.7,220.2,122.6,220.2,122.6z M219.3,123.1c0-0.1-0.1-0.3-0.2-0.4v0.1C219.2,122.9,219.3,123,219.3,123.1S219.3,123.2,219.3,123.1L219.3,123.1L219.3,123.1z M218.5,123.2C218.5,123.2,218.5,123.3,218.5,123.2c0.1,0.1,0.2,0.1,0.2,0.2c0,0,0,0,0,0.1l0,0c0-0.1,0-0.1,0-0.2S218.6,123.2,218.5,123.2z M218.9,123.2c0,0.1,0.1,0.1,0,0.2v0.1C219,123.3,219,123.2,218.9,123.2C218.9,123.1,218.9,123.2,218.9,123.2z M219.6,123L219.6,123c0-0.1,0-0.3-0.1-0.4v0.1C219.6,122.8,219.6,122.9,219.6,123L219.6,123C219.6,123,219.6,123.1,219.6,123z M218.4,123.6C218.4,123.7,218.4,123.7,218.4,123.6C218.4,123.7,218.4,123.7,218.4,123.6L218.4,123.6c0.1,0,0-0.1,0-0.2C218.4,123.5,218.4,123.6,218.4,123.6L218.4,123.6z M218.4,123.8L218.4,123.8L218.4,123.8L218.4,123.8z M224.3,123.4c0.1,0.1,0,0.3,0,0.4v0.1C224.3,123.7,224.3,123.5,224.3,123.4L224.3,123.4z M224,123.7L224,123.7c0,0.1,0,0.2,0,0.3v0.1C224,123.9,224,123.8,224,123.7C224,123.6,224,123.6,224,123.7z M224.5,123.2L224.5,123.2c0.1,0.1,0.1,0.3,0.1,0.4v0.1C224.6,123.5,224.6,123.2,224.5,123.2C224.5,123.1,224.5,123.1,224.5,123.2z M221.4,124.7L221.4,124.7L221.4,124.7L221.4,124.7z M221.9,124.4L221.9,124.4c0,0.1,0,0.1-0.1,0.1l0,0l0,0C221.9,124.6,221.9,124.5,221.9,124.4C221.9,124.5,221.9,124.4,221.9,124.4z M221.6,124.3c0,0.1-0.1,0.2-0.2,0.3v0.1C221.5,124.6,221.5,124.5,221.6,124.3C221.6,124.4,221.6,124.4,221.6,124.3L221.6,124.3z M221.8,124.6L221.8,124.6L221.8,124.6L221.8,124.6z" />
    <path fill="#DCDDDE" stroke="#000000" stroke-width="0.08" d="M221.5,121.8c-1.1,0.1-2.1-0.7-2.1-0.7c-1.3-0.3-1.4-1.5-1.4-1.5c-0.5-0.2-1-1.6-1-1.6c-0.8,0.5-1.9,0-1.9,0s0-0.2-0.9,0s-0.8-0.2-0.8-0.2s0.4-0.4-1.3,0c-1.6,0.4,0.1-0.5,0.1-0.5c-0.5,0.1-2,0.3-2,0.3c-0.6,0-1.2,0.3-1.8,0.5c-0.4,0.1-1.1,0.2-1.4,0.4c-0.9,0.4-2.7,1.2-4.3,1.8c-2,0.8-3.6,1.4-3.5,1.3c0.1,0,2.2-1.3,4.7-2.5c2.4-1.1,5.1-2.1,6.4-2.5c1.8-0.6,3.2-0.3,4.1,0c0.4,0.1,2.6-0.1,3.6,0s1.1,1.7,1.1,1.7c0.2,0.1,0.3,1.6,0.3,1.6s-0.5,0,0.1,0.1s1.8,1,1.8,1c0.4,0,0.4,0,0.4,0s0.2-0.3,0.5-0.4s0.6-0.2,1-0.3c0.4,0,0.9,0,1.2,0c0.4,0,0.8,0,1.3,0.1s0.6,0.1,0.7,0.2c0.2,0.1,0.3,0,0.3,0c0.7-0.3,1.9-0.8,2.2-0.7c0,0,0.5-0.1,0.7-0.3c0.2-0.2,0.8-0.7,0.8-0.7s-0.4-2.7,2.4-2.5c2.8,0.3,6.5,0.6,7.2,0.7s3.4,0.9,4,1.2c0.6,0.3,2.5,1.1,3.3,1.5c0.3,0.1,1.6,0.7,2.5,1.1c1.4,0.6,2.4,1.5,2.4,1.5c-0.9-0.4-1.6-0.8-2.3-1.1c-0.6-0.2-1.1-0.4-1.6-0.6c-1-0.4-1.7-0.8-2.3-1.1c-2.2-1-2.1-1-3-1.1c-0.6,0,0.4,0.7,0.4,0.7s-2-0.8-2.6-1c-0.6-0.3-1.2-0.4-1.8-0.3c-0.6,0-1.1-0.1-1.4-0.2c-0.4-0.1-2.4-0.2-2.7-0.2c-0.4,0-0.5,0.1-0.5,0.1l-1-0.2l-0.3,0.4c0,0-1,0.2-1-0.1c-0.1-0.3-0.6,1.4-0.8,1.9s-1.4,0.3-1.7,0.6s-0.9,0.5-1,0.6s-0.6,0-0.8,0c-0.4,0-0.1,0-0.7,0.1c0,0-0.5,0-0.7-0.1s-0.6-0.2-0.9-0.3c-0.3-0.1-2-0.1-2.2-0.1s-0.6,0.1-0.9,0.2c-0.3,0.1-0.7,0.4-0.7,0.5L221.5,121.8z" />
  </g>
</svg>
