<svg xmlns="http://www.w3.org/2000/svg" width="450px" height="300px" viewBox="0 0 450 300">
  <path fill="#012A87" d="M0,0h450v300H0V0z" />
  <path fill="#FFFFFF" d="M225,78.54L97.393,150L225,221.46L352.607,150L225,78.54z" />
  <path fill="#F9D90F" d="M225,99.75l4.034,12.413l13.052,0l-10.559,7.672l4.033,12.414L225,124.578l-10.56,7.672l4.033-12.414l-10.559-7.672l13.052,0L225,99.75z" />
  <path fill="#008830" d="M140.739,168.426c1.356-4.424,4.307-6.385,8.297-5.497c2.469-9.365,13.869-11.036,18.393-6.429l11.136,11.185c2.419,1.125,6.104,1.547,8.663,1.547c3.165,0.05,2.811,1.503,5.455,1.553c7.048,0.135,25.571,0.229,28.929,0c1.375-0.094,32.067-33.929,32.067-33.929c2.56-3.155,9.226-4.167,12.857-1.607c3.393,3.214,6.964,3.571,9.464,1.429c2.202-3.274,7.196-3.655,10.357-1.786l34.725,26.907l-18.829,15.477L274.248,188h-98.529l-20.571-5.64L140.739,168.426z" />
  <path fill="#DC171D" d="M0,0v300h450V0H0z M10,10h209v64L94,144H10V10z M219,290H10V156h84l125,70V290z M107.846,150L225,84.393L342.155,150L225,215.607L107.846,150z M440,290H231v-64l125-70h84V290z M440,144h-84L231,74V10h209V144z" />
</svg>
