<svg xmlns="http://www.w3.org/2000/svg" width="450px" height="300px" viewBox="0 0 450 300">
  <path fill="#CE1126" d="M0,0h450v300H0V0z" />
  <path fill="#003F87" d="M0,21.4h450v257.1H0V21.4z" />
  <path fill="#FFFFFF" d="M225,32.1c65.114,0,117.9,52.786,117.9,117.9S290.114,267.9,225,267.9S107.1,215.114,107.1,150S159.886,32.1,225,32.1z" />
  <g>
    <path fill="#730000" stroke="#000000" stroke-width="0.305" d="M243.2,75.2c0,0,0.4-0.9,1-0.4s0.8,2.6,0.8,2.6l-1,0.5C244,77.9,244.6,77.2,243.2,75.2L243.2,75.2z M237.6,94.4c0,0,0.5-0.7-0.2-2.1l1-0.3c0,0,0.4,1.2-0.1,2.4H237.6 M254.5,91l-2.3,1.4l1.2,0.5l2.8-1.6L254.5,91 M223.4,100.1c-0.6,0.5-0.7,1.3-1,1.8s-1.2,1.2-1.3,1.9c-0.1,0.7-0.2,1.2,0.1,2.2c0.4,1,1.9,5.3,1.3,8.6c-0.7,3.3-0.4,4.7-0.2,5.2s1,1.8,1.4,1.8c1-0.1,0.5-0.4,0.9-1c0.9-1.6,0-13.9-0.4-17.3c-0.3-2.6-1.5-5-1.6-5.2c-0.1-0.3-0.4-1.1-0.6-1.6c-0.9-2.2-2-4.1-2-8.7c0,0-3,0.7-5.6-5.1c-1.3-2.9-3.3-2.6-5.6-3.6l1-0.7c0,0,2,1,2.9,1c1,0,0.7-2,0.7-2l1-1v4.3c0,2,2.7,4.6,4.3,5.4c1,0.5,2.3-1.5,2-3.5s0-4.6,0-4.6l1.3,0.8c0,0-0.5,0.9-0.4,1.3c0.2,0.5,0.9-0.5,1.3-1c0,0,0.1,0.1,0.6,0.1c0,0-1,1.6-1.5,2.5c-0.5,0.8-0.5,3.9-0.5,5.1s0.4,3.8,0.4,4.7c0,0.6,1.2,3.1,2.1,4.6c0.3,0.6,1,2.2,1,2.2c0.7,1.2,0.8,2,1.2,2.9c0.2,0.5,0.7,1.9,1,4.3c0.1,0.6,0.2,2.9,0.4,4.5c0.2,1.5,1.4,0.3,2.9-0.7c1.5-1.1,1.5-3.7,1.5-3.7s1.2-1,1-0.4c-0.1,0.6,0.6,1.2,0.6,1.2c-0.9,2.1-0.4,1.8,0.5,1.8c0.9-0.1,4.1-2.5,4.1-2.5c0.4-0.1,2.3-0.1,2,0c-0.4,0.2-0.9,1.1-0.9,1.1l2.1-0.2c-0.7,0.6-3.5,2.1-4.1,2.5c-0.7,0.4-4,2-5.4,2.6s-4.2,2-4.3,3.4s0.2,5.2,0,6.4c-0.1,1.2-0.6,6.7-0.6,6.7h-6.5c0,0,1.3-4.8-0.1-6c-1.3-1.3-4.3-5.3-6.2-6.6c-2-1.3,1.3-0.3,1.3-0.3V114l3,3.6c0,0,5.2-4.6,0-10.8c-1.6-2-3.3-4.9-4.6-5.3s-2-0.7-4.3,0s-7.9,0.7-10.2-3l2-0.3l1.6-0.7c0,0-0.7,2.3,4,2.3c4.6,0,5.2,0,4.9-4.3l1.3-0.7l1,1c0,0-0.7,2.3-0.3,3.3c0.3,1,2,1.6,3.2,2.6c0.6,0.4,1,0.5,1.3,0.5c0.5-0.1,0.7-0.1,1.4-0.8c1.1-1.2,0.9-1.2,2-2.1c0,0,0.5-0.9,0.7-1L223.4,100.1L223.4,100.1z M224.4,96.9c0.2-0.2,0.7-1.2,1.2-2c0.7-1.2,1.6-2,2.6-3.5c0.9-1.4,1.3-3.5,0.9-4.9L230,87l0.1,2.3c0,0,1.2-1,1.6-1.2l0.5,0.2c0,0-3.7,3.8-7.1,9.9L224.4,96.9L224.4,96.9z M192.3,84.2c0.5,0.9,1,2.5,2.4,3.8l1-0.3c0,0-2.3-2.6-2.3-3.8L192.3,84.2 M198.1,82.7c0,0,0.3,3.1-0.5,4.3l1-0.5c0,0,0.7-2.1,0.5-3.3L198.1,82.7L198.1,82.7z M230.2,72.9c0,0-0.2,4.4,0.7,7.1l1.2-0.4c0,0-0.2-0.8,0.8-1.2c1-0.3,3.3-1.3,4.5-2.3l-0.4-1c0,0-1.8,1.4-2.6,1.8c-0.8,0.3-1.3,0.7-2,0.5s-1.5-1.3-1-3.8L230.2,72.9z M243.2,93.4c0,0-0.3,3.1-0.1,4.5l1,0.2c0,0-0.2-3.7,0.4-4L243.2,93.4 M247.8,95.7c0,0-1.2,2-2.5,2.2l2.1-0.4c0,0,0.6-0.3,1.5-1.3L247.8,95.7" />
    <path fill="#289400" stroke="#003300" stroke-width="0.3054" d="M265.5,87.5c-0.6,0-1.2,1-1.2,1s-0.7,0.3-1.3,1.2c-0.7,0.9-1,2.9-0.9,2.9l-0.5,0.6c-0.2-0.8-2.8-2.2-2.3-1.8c0.5,0.5-0.9,1.2-0.9,1.2c0-0.7-2-2-2-2l0.1,0.6c0,0-1.5-0.2-2.2-0.4c-0.7-0.2-2-2.2-2.2-1.7s0.1,1.7,0.7,2.2c0.6,0.5-0.2,1-0.2,1L240.8,86c-0.9-0.4-3.5-2.1-5.1,0.6c-0.9,1.7,0.5,3.3,3.7,4.8h-0.1c0,0-0.2,0.5-0.7,0.5s-1.5,0.9-1.5,0.9l-1.3-1.2l-1.2,1c0-0.7,0.2-2,0.2-2h-0.7l-0.5-2c0,0,0,0.8-0.8,0.1c-1.1-0.7-2-1.6-2-1.6l-0.9-0.1l-0.8-0.5l-0.7-0.9l-1.4,0.7c0,0,0-0.1,0.1-0.3c-0.3,0.4-1.3,0.8-1.3,0.8l-0.1-0.3c-0.1,0.1-0.1,0.2-0.2,0.3c-0.7,0.7-1.7,0.4-1.7,0.4c0-0.7,1.3-1.7,1.3-1.7s-0.9,0.3-0.7-0.2s0.7-0.7,0.7-0.7l-1.1-0.4c0.3-0.9,1.5-1.2,1.5-1.2s-1-1-0.7-1.2s2.3,0.4,2.3,0.4s-0.8-0.5-0.2-0.7c0.5-0.2,1.6,0,1.6,0s-1.3-0.2-0.2-0.5s1.5,0.1,1.5,0.1l-0.4-0.6c0.6-0.3,1.8-0.1,1.8-0.1s-1.4-0.6-0.6-0.8c0.7-0.2,1.5-0.3,1.5-0.3c0.1-1.4,1.4-1.3,1.3-1.3c-0.7,0,0,1.6,0,1.6s1.1-0.9,1-0.7c-0.1,0.2,0.2,0.5,0.2,0.5l0.6-0.4c-0.4-0.7,0.5-1.6,0.5-1.6c-0.5,0.6,0.5,1.4,0.5,1.4s-0.6-1,0.1-0.7c0.4,0.2,0.7,0.6,0.8,0.8c-0.1-0.3-0.2-0.7,0.2-0.5c0.6,0.1,0.9,0.7,0.9,0.7l1-0.6c0.2-0.8,1.5-0.1,1.5-0.1c0,1.3,1.6,1.2,1.6,1.2l-0.3-0.7c0.6-0.2,1.4,0.2,1.4,0.2l-0.1-0.5c0.7-0.1,0.9-0.4,0.9-0.4s-0.6,0.2,0-0.7c0.6-0.8,1.3,0,1.3,0c0-0.7,0.9-1.5,0.9-1.5c0.6-1.6,1.5-2.1,1.5-2.1l-0.1,1.5l0.7-1.1c0,0,0.2,1.1,0.4,1.3c0.3,0.5,1.5-1,1.5-1l0.2,0.6c0.3-0.6,1.2-1.1,1.2-1.1c0.8,0.7,0.5,2.1,0.5,2.1c0.8-0.2,2,0.6,2,0.6s-1.2-1-0.3-1s1.6,0.7,1.6,0.7c0-0.6,0.8-0.7,0.8-0.7c0.9,0.6,0.7,1.5,0.7,1.5c2-0.3,2.7,0.4,2.7,0.4l-0.9,0.4c1.4-0.4,2.4,0.9,2.4,0.9c-0.5,0.1-1,0.7-1,0.7c0.9,0.1,1.8,1.8,1.8,1.8h-0.5c1.2,0.1,1.3,1.7,1.3,1.7c1,0.1,2.4,1.3,2.4,1.3s-0.3,0-0.5,0.4c-0.3,0.3-1.2,1-1.2,1s0.7,0.2,1,0.7S265.5,87.5,265.5,87.5z M188.3,85.3c0.2-0.4,0.4-0.7,0.4-0.7l0.1,1c0,0,0.8-1.1,0.9-1.5c0.1-0.4,1.3,0.4,1.3,0.4v-0.6c0,0,1.1,0.4,1.5,0.4c0.4,0.1,0.5-0.2,0.5-0.2l1-0.1l-0.2,0.9c0,0,0.7-0.5,0.9-1c0.1-0.5,0.5,0,0.5,0l0.5-2l0.9-0.1c0,0,2.6,1.3,2.6,1.9c0,0,0.7-1.3,0.3-1.8l1,0.7c0,0,0.3-1.2-0.1-1.6c-0.3-0.3,2.2-1.3,2.7,0.3c0,0,1.5-1.6-1.4-2.9c0,0-0.2-1,1.5-0.7c0,0-0.1-0.6-0.6-0.9h1.7c0,0-1-0.9-2.6-1.1c-1.5-0.2-0.6-0.4-0.6-0.7c-0.1-0.3,0-1.4,0-1.4s-0.9-0.3-1.5,0.1l0.2-0.3c0,0-1.6-0.4-2.2-0.1c0,0-0.9-0.4-0.8-1.3c0,0-0.9-0.1-1.3,0.9c0,0-0.9,1-2,1c-0.2,0-1.1-0.5-1.1-0.5l-0.7,1.7l-1.2-0.1l0.4,0.7c0,0-1.8-0.5-2.3,0c0,0,0.7,1,0.5,1.8c0,0-1.4,0.2-1.7,0.5c-0.4,0.2,0.5,0.4,0.5,0.4s-1.6,0.5-2,1l0.6,0.5l-0.7,1l0.6,0.1c0,0-1,0.3-1.6,0.5c-0.5,0.2,1,0.3,1,0.3l-0.7,0.7l1.2,0.2c0,0-0.9,2.4-1,3.6c0,0,1.4-1.7,1.8-1.8l-1.1,1.8C186,86.3,188.1,85.6,188.3,85.3z M205.2,76.2l-0.4,0.5c0,0,0.8,0.8,0.4,1c-0.5,0.2-0.7,1.3-0.7,1.3l0.4,0.2v0.6l1-0.7c0,0-0.3,0.7,0.3,0.6s0.9-0.9,0.9-0.9s-0.2,0.6,0.3,0.6c0.6,0,1.3-1.2,1.3-1.2s-0.5,1.2,0,1.1c0.5-0.2,1.3-0.9,1.3-0.9l0.9,0.2l0.5-0.8l1,0.4l0.7-1.1l0.2,0.7l1.2-1.3l0.6,0.3l1-1c0.2,1,1.7,1.5,1.9,1.1l0.2-1c0,0.2,0.7,1.5,0.7,1.5s0.7-1,0.6-0.7c-0.1,0.3,0.2,1,0.2,1l1.4-1c0,0-0.1,0.6-0.1,1s1.3,1.1,1.3,1.1l0.9-0.5l0.1,0.6c0.5,0,1,0.7,1,0.7l0.7-0.1l1.1,0.7l0.6-1.3c0.7,0.1,1.6,1,1.6,1l0.2-0.4c0-0.6-0.4-2.5-0.4-2.5c0.3-0.6,1-1,1-1c-0.2-0.5-3.3-1.5-3.3-1.5c0-0.4-0.2-2.1-0.2-2.1c-0.6-0.1-2.4,0.4-2.4,0.4c0-0.3,0.5-1.9,0.5-1.9c-0.3-0.2-2.9-1-2.9-1c0-0.5,0.1-2,0.1-2l-2.2-0.2l-1.5-1.7l-2,1l-2.4-0.6l-0.6,1.3l-3-0.2l-0.2,1.4l-2,1.2c0,0,1.1,1.3,0.2,1.4c-0.7,0.1-1.6,0.8-1.6,0.8l-0.1,1.8c-0.9,0.4-1.5,2-1.5,2C204,75.9,205.2,76.2,205.2,76.2z M226.1,71.2c-0.1,0.5-0.1,1.3,0.5,1.3s1.5-1.2,1.5-1.2l1,1.2l1,1.2c0,0-0.5-1,0.2-0.9c0.6,0.2,1.1,0.9,1.1,0.9l1.6-0.5c0.3,0.4,1.8,2.1,1.8,2.1c0-1.2,1.3-1,1.3-1l3,2c-0.5-0.5,0.3-1.5,0.3-1.5c0.7,0.6,2.3,1.5,2.3,1.5l0.5-1.8c0,0,0.5,1.4,1,0.7c0.5-0.7,3.1-1,3.1-1l-1.6-2.6c0.6-0.1,0.6-0.8-0.7-1.6c-1.3-0.8-4.3-1.2-4.3-1.2s1.2-0.7,0.4-1c-0.9-0.3-3.5-0.5-3.5-0.5L237,66c-0.8-0.3-3.7,0.4-3.7,0.4c-0.5-0.5-2-1.2-2-1.2l-0.5,1.3l-3.1-0.4l0.3,1.3l-2.4,0.7c-2.2,0.7-1.6,3.1-1.6,3.1C224.1,70.6,226.3,70.7,226.1,71.2z M197.2,92.8l1.6-0.9L200,95l-1.2,0.7c0.1,1,1.3,2.9,1.3,2.9l1.5-0.4l1.6-0.6c0,0,0.1,0.9,0.1,0.6c0-0.2,1.8-0.9,1.8-0.9L206,98c0.6-0.1,1.7-1.5,1.7-1.5L209,97c0,0,0.4-0.7,0.4-1.3c0-0.5,1.6-0.5,1.6-0.5l1.1,0.8l1.4-1.2c0,0,0.4,0.9,1,1s2.1,1.2,2.1,1s0.7-1.6,0.7-1.6l2.6,1c-0.4-1.2-1.2-2.6-1.2-2.6s1.2-1,1-1.2s-1,0-1,0l0.7-1.5h-1l0.3-0.4l-1.6-0.7l0.9-1.7c-0.4-0.4-4.6-1.3-4.6-1.3l1-0.9c0,0-0.5-0.7-1-0.7s-3.1,0.1-3.2-0.2c-0.1-0.2-1.1-1.2-1.1-1.2l-1.6,1.2l-0.8-0.2l-1.4,0.6c0,0,0,0.8-0.2,0.2c-0.2-0.5-1.5-1.8-1.5-1.8c-0.2,0.4-1.9,2.4-1.9,2.4s-0.2,1-0.8,0.3s-1.9-1.5-2.1-0.9c-0.2,0.7-1.3,1.3-1.6,1.1c-0.2-0.2-1.6-0.1-1.7,0.3c-0.1,0.4-1.5,1.5-1.5,1.5c-0.9-0.4-2.4-0.2-2.4-0.2s-0.4,0.7-0.5,1.2l-2.9,1l1,2c-0.8,0.1-2,1-2,1c0.2,3.4-0.7,3.2-0.7,3.2c0.2,0.6-0.2,1.7-0.2,1.7l4.9-2.9l0.1-0.3l5.7-2.7L197.2,92.8z M222.2,108.6c-0.5-0.4-1.2-0.4-1.2-0.4s-1.3-1.3-2.1-1.6c-0.8-0.3-1.3,0.4-1.3,0.4s-0.5-1-1.3-1.2s-0.8,0.7-0.8,0.7s-0.6-0.6-1.4-0.9c-0.8-0.4-0.2,0.7-0.2,0.7l-2.8-0.9l0.4,0.9l-2.6-0.7l0.3,1l-1.8-0.3l-0.1,0.8l-2.6,0.5l0.5,0.9l-1.6-0.7v1.2l-1.8,0.7l0.7,0.6c0,0-2.4,1.2-2.9,1.5s1,1,1,1l-2.6-0.4l1,0.9l-2.3,2.1l1.6,1.2l-1,1.5l2.4,0.5l1,1.6l2-0.4v1.8l2.9-2.3c0,0,2.1,1.9,2.3,1.3c0.1-0.5,0.1-2.1,0.1-2.1h1v-1.6l0.8,0.7l1.3-2l1.8,2.4l1.3-3.1l1.6,0.3v-1.3l1.5,1l0.9-1l1.1,1.1l0.7-1.1v1.8l1.6-1.5l1,0.4v-1.4c0,0,1.2-2,0.7-2.3l1-0.3C224.3,110.6,222.7,109,222.2,108.6z M256.3,105c-1.4-0.4-2.1-2-2.1-2c0.7-0.4,0.2-1.6,0.2-1.6h-0.5c-1,0-2.3-0.5-2.3-0.5l0.5-0.5l-2.4-1.1l0.6-0.7h-1.8l-0.5-0.8l-2,0.1l-1.5,0.5l-1.5-0.3l-2.1-0.2l1.2-1.6c-1-0.7-3.1-0.4-3.1-0.4l-0.7-1.3h-0.6c0,0-1.5,1.6-2,1.1l-2.9-0.5l-0.5,1.3l-4.1-0.1l-1.8,1.7l-1,0.7l-0.2,1.2l1,0.5l-0.5,2.6l1.3,0.2l-0.4,2.6l0.9-0.9l0.3,2.8c0.2-1,0.8-3.1,1.4-2.2c0.6,0.3,1.3,1.5,1.3,1.5l0.8-1.5l0.7,1.5c0,0,0.9-2.2,1.2-1.2s0.5,1.2,0.5,1.2l1.9-2.1l1.5,1l0.4-1.8l0.5,2.1h2.2l-0.8,1l2-0.2l2.1,2.1l1.2-0.8l2,1.6l0.3-1.3l2.3,2c0,0-0.2-1.8,0.7-1.6c0.8,0.1,2.9,2.9,2.9,2.9c0-0.7,0.9-1.7,0.9-1.7l1,0.7c0.2-0.4,1.5-1.6,1.5-1.6v-1.7c1.6,0,1.8-1.7,1.6-2C257.8,105.3,257.8,105.3,256.3,105z M247.5,114.3l-2.3-0.3c0,0-0.3-2.1-0.5-1.6s-2.6,0.3-2.6,0.3l-0.2-1.3h-1l-1.2-0.9l-0.7,0.9l-1.3-1.7l-0.9,1.6l-0.7-1.2l-1.5,0.7l-2.9,1.1l-3.5,1.3l-0.1,1c-1,2.3-0.2,4.6-0.2,4.6s1.5-1.5,2-1s0.3,2,0.3,2c1.5-0.6,3.5-2.9,3.5-2.9s1.2,0.6,1.2,1.3c0,0.6,1.3,2.7,1.3,2.7s0.2-2,1-1s2.8,3.3,2.8,3.3s0-2,0.7-2s2,2,2,2l1.3-2.4c0,0,3,1,3.1,0.5c0.2-0.5,0.4-2.3,0.4-2.3s1,2.3,1.3,1.3c0.4-1-0.8-3.4-0.8-3.4L247.5,114.3z" />
    <path fill="none" stroke="#004B00" stroke-width="0.306" d="M244.3,77.8l0.3,1.2c0,0,1.1-0.2,1.8-0.2c0,0-0.2,1-0.4,1.4c0,0,1.5-0.2,2.1,0.2l-0.3,0.7l1.7,0.7l-1.6,1.3c0,0,2.6,0.9,3.1,1.6c0,0-1.6,1.2-1.9,1.1c-0.2-0.1-0.1,0.5,0.4,1l-1.4-0.1c0,0,0.5,1.3,0.5,1.8c-0.1,0.5-2.3,0.4-2.3,0.4 M255,85.8c0,0,0.4-2.4-0.2-3.1c0,0,1.6,1.3,2.6,1.4c1.1,0.1-0.1-2-0.1-2s1.5,0.8,2.3,1c0.7,0.1-0.5-1.5-0.5-1.5s0.4-0.8,1.6-0.1 M232.3,71.8c0,0,0.1-0.5-0.2-0.9c-1.5-2,1.5,1.5,2.1,1.6 M237.1,72.6c0,0,1,0.7,1.5,0.7s-0.3-2-0.5-2.2s1.8,0.8,2.5,0.9c0.7,0.2,0.9-1.2,0.9-1.2s2.3,0.4,2.7,0.7 M228.4,71.1c0,0-0.2-1.3-0.2-1.8 M213,77.2c-0.1-0.2,0.6-1.3,0.3-1.8c0,0,0.4,0.4,0.9,0.4c0.4,0.1,0.2-1.4,0.2-1.4l0.5,0.2c0,0,1.3-0.6,1-1.1c-0.2-0.5,0.9,0.7,0.9,0.7s0.7-0.7,0.7-1s0.9,0.7,0.9,0.7s0.9-0.2,0.9-0.7s1.2,0.2,1.2,0.2s0.5-0.7,0.4-1.1 M208.6,78.3c0,0,0.5-1.3-0.1-2.1 M193.7,82.3c0.1-0.6,0.4-2.3,0.1-2.5c-0.3-0.2,0.6,0.2,1.3,0.4 M200.9,80c-0.7-0.7-1.2-1.1-2.3-1.1 M188.5,84.1c0.2-0.4,0.5-1.5,0.3-2.1 M204.5,114.4l0.8-1.6l1,2.3l0.7-1.5l0.2,0.5l1.5-1.6l1.6,2.4 M235.7,104.6l1-2.1l1.4,0.7l0.7-2l1.5,0.9l0.9-1.9l1.6,0.4l0.1-1.3c0,0,1.2,0.7,1.5,1.2c0.4,0.5,0-1.6,0-1.6l1.3,0.6c0,0,1-1-0.4-1.5 M239.7,101.9l1.5,2.1l1.2-1.4l1.1,2.4l1.4-0.9l2,1.2l0.9-0.7l2.2,1.6l0.9-1.9l2,0.6l1.3-2.2 M201.5,97c0,0,0.9-1.5,0.5-2.1c-0.4-0.7,1.8,1.2,1.8,1.2s0.5-1.5,0.2-2.1c-0.4-0.7,2.4,2,2.4,2s0.5-2.3,0-2.7c-0.5-0.5,2.7,0.7,2.7,0.7s1.3-0.4,0.8-1c-0.5-0.7,2.1,1,2.1,1s0.6-1.6,0-2.3c-0.7-0.7,2,0.8,2,0.8l-1-1.8l2.1,0.1l-0.2-2 M233.9,116.8l1.4-0.7l1.2,1.2l1.3-2.1l1.6,1.6l0.2-1.6l1.8,0.7l0.4-1l2,1l0.2-1.5l1,0.3l0.2-1" />
  </g>
  <path fill="#9DD7FF" d="M202,186.3c-1.5-2.6-2.8-5.3-3.7-8.1l26.4-23.3l26.4,23.2c-0.9,2.7-2.1,5.6-3.8,8.3l-0.2,0.3c-0.7-0.3-1.3-0.5-2-0.8c0,0-0.9,0.8-1.5,0.9c-0.9,0.1-1.7-0.8-1.7-0.8s-1.2,1-2.3,0.8c-1.2-0.1-1.6-0.9-1.6-0.9s-1.2,1-2.1,0.8c-0.8-0.2-1.3-0.7-1.3-0.7s-0.7,0.9-1.8,0.7c-1-0.2-1.9-0.7-1.9-0.7s-1.5,0.7-2.5,0.8c-1,0.2-1.8-0.9-1.8-0.9s-1.3,0.9-1.8,0.9s-2.3-0.9-2.3-0.9s-1.9,0.6-2.6,0.6c-0.6,0-2.5-0.8-2.5-0.8s-1.8,0.5-2.6,0.5c-0.9,0-2.1-0.5-2.1-0.5s-1.5,0.7-2.3,0.5c-0.5-0.1-1-0.3-1.5-0.5c0,0-1.6,0.7-2.6,0.5s-2.1-0.9-2.1-0.9S203.9,185.9,202,186.3L202,186.3" />
  <path fill="#FFFFFF" stroke="#000000" stroke-width="0.4272" d="M224.7,128.2v26.7l-26.4,23.4c-2.6-7.4-2.7-14.1-2.7-17v-33.2L224.7,128.2" />
  <path fill="#FFD83C" stroke="#000000" stroke-width="0.4272" d="M224.7,128.2v26.7l26.4,23.4c2.6-7.4,2.7-14.1,2.7-17v-33.2L224.7,128.2" />
  <g>
    <path fill="#730000" stroke="#000000" stroke-width="0.3054" d="M207.6,180.8c2,1.1,1.3,0.7,5.4,2.2c3.4,1.2,7.3,1.7,12.9,1.7c5,0,7.8-0.4,9.3-0.8c1.6-0.5,2-1.1,2-1.1l-4.1,4.2c0,0-16.4,0.9-19.4-1C212.7,185.2,210.2,183.2,207.6,180.8L207.6,180.8z" />
    <path fill="none" stroke="#000000" stroke-width="0.3054" d="M231.7,173c0,0,5.2,3,0,8.7 M208.1,181.1l7.6-7.2l-0.9,9.6 M218.8,184.4v-16.1 M231.7,184.4v-17.1 M225.2,184.7v-18.4" />
    <path fill="#FF0018" stroke="#000000" stroke-width="0.3054" d="M218.8,169.1l-3.4,1.1l3.4,0.4V169.1 M225.2,166.6l-3.6,1.3l3.6,0.1V166.6z M231.7,167.6l-3.6,1.3l3.6,0.2V167.6L231.7,167.6z M233.9,175.3c-0.2-0.7,2.1-0.7,2.1-0.7s0.7,2.4,0,4l-2-0.4C234,178.3,234.2,176.6,233.9,175.3L233.9,175.3z" />
    <path fill="#FFFFFF" stroke="#000000" stroke-width="0.3054" d="M209.3,180.1l6.4-6.2l-0.3,3.7c0,0-3.3,2.1-3.3,3.7L209.3,180.1 M212.7,181.4c0,0,0.7-2,2.5-2.9l-0.2,3.9L212.7,181.4L212.7,181.4z M221.9,170.6c0,0,2.6-0.4,4.6,0c0,0-0.3,2.6,0,3.1c0,0-3.6-0.9-5.1,0.5C221.4,174.2,220.9,171.7,221.9,170.6L221.9,170.6z M216.3,171.2c0,0,2.6-0.4,4.6,0c0,0-0.5,2.9-0.2,3.4c0,0-2.9-1.6-4.4-0.3C216.3,174.4,215.4,172.3,216.3,171.2L216.3,171.2z" />
    <path fill="#FFFFFF" stroke="#000000" stroke-width="0.3054" d="M216.2,174.7c0,0,2.6-0.3,4.6,0c0,0-0.3,2.6,0,3.1c0,0-3.4-0.8-4.9,0.5C215.9,178.3,215.2,175.8,216.2,174.7z M221.4,174.2c0,0,3.8-0.5,5.7-0.2c0,0-0.8,2.1,0.2,3.6c0,0-4.1-1.1-5.6,0.2C221.7,177.8,220.4,175.3,221.4,174.2L221.4,174.2z M215.9,178.3l5.1,0.4c0,0-0.5,3.7-0.2,4.2c0,0-4.1-1-4.9,0.4C215.9,183.2,214.5,179.8,215.9,178.3L215.9,178.3L215.9,178.3z M221.6,178.3c0,0,4.4-0.3,6.4,0c0,0-1.2,2.8,0.1,5.2c0,0-5.7-1.6-6.5-0.3C221.6,183.2,220.3,179.8,221.6,178.3L221.6,178.3z M228.3,170.6c0,0,2.6-0.4,4.6,0c0,0-0.3,2.6,0,3.1c0,0-3.6-0.9-5.1,0.5C227.8,174.2,227.3,171.7,228.3,170.6z M228.3,174.2c0,0,2.6-0.3,4.6,0c0,0-0.3,2.6,0,3.1c0,0-3.6-0.8-5.1,0.5C227.8,177.8,227.3,175.3,228.3,174.2L228.3,174.2z M228.6,178c0,0,2.6-0.4,4.6,0c0,0-0.7,4.1-0.4,4.6c0,0-3-1.4-4.4-0.2C228.5,182.3,227.6,179.1,228.6,178L228.6,178z" />
    <path fill="#FFFFFF" stroke="#000000" stroke-width="0.3054" d="M234,178.3c0,0,0.9,3.1,2,3.5l-1.5,1.8c0,0-1.8-1.3-2-2.7C232.6,180.8,233.7,179.4,234,178.3L234,178.3z" />
  </g>
  <g>
    <path fill="#006AC8" d="M247.1,186.7c-4.2,7-11.1,13.6-22.5,17.7c-11.5-4.1-18.6-11-22.7-18l0.1-0.1c1.9-0.4,2.1-0.9,2.1-0.9s1.2,0.7,2.1,0.9c1,0.2,2.6-0.5,2.6-0.5s0.7,0.3,1.5,0.5s2.3-0.5,2.3-0.5s1.2,0.5,2.1,0.5c0.8,0,2.6-0.5,2.6-0.5s1.9,0.8,2.5,0.8c0.7,0,2.6-0.6,2.6-0.6s1.8,0.9,2.3,0.9s1.8-0.9,1.8-0.9s0.9,1,1.8,0.9c1-0.1,2.5-0.8,2.5-0.8s0.9,0.6,1.9,0.7c1,0.2,1.8-0.7,1.8-0.7s0.5,0.6,1.3,0.7c0.9,0.2,2.1-0.8,2.1-0.8s0.5,0.7,1.6,0.9c1.2,0.2,2.3-0.8,2.3-0.8s0.8,0.9,1.7,0.8c0.7-0.1,1.5-0.9,1.5-0.9S246.6,186.5,247.1,186.7" />
    <path fill="none" stroke="#000000" stroke-width="0.3054" d="M246.1,188.3c-0.9,0.1-1-0.5-1-0.5s-1.2,1-2.4,0.9c-1.2-0.2-1.8-1-1.8-1s-1.3,1-2.1,0.9c-0.9-0.1-1.5-0.7-1.5-0.7s-0.8,0.9-1.8,0.7c-1-0.1-2-0.7-2-0.7s-1.6,0.7-2.7,0.9c-1,0.2-1.9-1-1.9-1s-2.4,0.8-2.9,0.8c-0.6,0-2.3-0.8-2.3-0.8s-1.2,0.7-1.8,0.7c-0.7,0-2.7-0.9-2.7-0.9s-1.8,0.5-2.7,0.5s-2.1-0.5-2.1-0.5s-1.6,0.7-2.4,0.5c-0.9-0.2-1.5-0.5-1.5-0.5s-1.7,0.7-2.7,0.5s-2.3-0.9-2.3-0.9s-0.2,0.4-2.2,0.9h-0.1" />
    <path fill="#5AC800" stroke="#000000" stroke-width="0.366" d="M208.2,190.8c0,0-0.2,0.4-1.8,0.8l-0.4,0.1c0.1,0,0.3,0,0.4-0.1c-0.1,0.1-0.3,0.1-0.4,0.1c1.8,2.6,4.5,5,7.3,6.9s6,4.2,11.5,5.8c5.8-2.3,7.3-3.1,11.1-5.6c3.8-2.8,5.7-4.5,7.9-7.3c-1.6,0.9-1.4,0.9-2.3,0.8c-0.9-0.2-1.5-0.8-1.5-0.8s-0.8,0.9-1.8,0.8c-1-0.2-1.9-0.8-1.9-0.8s-1.4,0.9-2.7,0.9c-1-0.1-1.9-1-1.9-1s-2.4,0.8-2.9,0.8c-0.6,0-2.2-0.8-2.2-0.8s-1.2,0.7-1.8,0.7c-0.7,0-2.7-0.9-2.7-0.9s-1.8,0.5-2.7,0.5s-2.1-0.5-2.1-0.5s-1.5,0.7-2.4,0.5s-1.5-0.5-1.5-0.5s-1.7,0.7-2.7,0.5C209.4,191.4,208.2,190.8,208.2,190.8L208.2,190.8z" />
    <path fill="#FFD800" stroke="#000000" stroke-width="0.366" d="M224.8,204.3c6-2.5,7.1-3.2,10.7-5.4c-0.6,0-2.5-0.6-1.8-0.8c0,0-0.7,0.7-1.5,0.7c-0.7,0-2.6-0.9-2.6-0.9s-1.8,0.5-2.7,0.5s-2.1-0.5-2.1-0.5s-1.6,0.7-2.4,0.5c-0.9-0.2-1.5-0.5-1.5-0.5s-1.8,0.7-2.7,0.5c-1-0.2-2.3-0.9-2.3-0.9s-1.5,0.8-2.4,0.9C216.2,200.6,219.2,202.7,224.8,204.3L224.8,204.3z" />
  </g>
  <g>
    <path fill="#B34B00" stroke="#000000" stroke-width="0.3054" d="M220.7,155.6c1.2-1,1.9-1.9,1.5-2.6c-0.4-0.6-1.1,0.4-1.9,0.2c0,0-1.2-0.7-1.5-1.3c-0.7-0.8-1.6-1.5-2.1-2.1s-2.6-3.3-5.7-6.4c-0.9-0.6-0.7-2.8-1.3-3.5c-0.1-0.5-6.2-6.6-8.4-8.8c-0.9-0.7-1.4-1.1-2.9,0.3c-1.2,1.1-1.7,2.3-0.1,3.6l8,7.3c1.2,1.1,2.8,1.3,3.5,1.9l8.1,8.3c1,0.9,1.5,1.5,0.9,2.3c-0.6,1.2,0,1.4,0.2,1.5c0.1,0.1,0.7,0.1,1.1-0.2L220.7,155.6z" />
    <path fill="none" stroke="#000000" stroke-width="0.3" d="M200.4,133.8l8.4,8.3" />
    <path fill="#FFFFFF" stroke="#000000" stroke-width="0.3426" d="M211.8,137.5c0.1-0.2,0.4-0.9,0.7-1.6c0.1-0.3,2.4-3.9,3.5-4c0,0,7,5.1,7,5.2c0,0.3-3,4.9-3.3,4.5C219.7,141.7,211.5,138.2,211.8,137.5L211.8,137.5z" />
    <path fill="#CCB8C8" d="M216.2,138.7c-1-0.7-2.5-1.5-3.8-2.3l-0.6,1.2c0.5,0.5,6.3,3.2,7.2,3.8C219.1,141.4,218,140.1,216.2,138.7L216.2,138.7z" />
    <path fill="none" stroke="#000000" stroke-width="0.24" d="M212.4,136.3c0.8,0.5,2.2,1.4,3.1,1.9c1.7,1.2,2.8,2.5,4.1,3.2" />
    <path fill="#782121" stroke="#000000" stroke-width="0.3054" d="M198.2,158.1l16-19.7c0.3-0.3,1.8-0.3,2,1.2L201,160.2C201,160.2,199.3,160,198.2,158.1L198.2,158.1z" />
    <path fill="#730000" stroke="#000000" stroke-width="0.3054" d="M251.7,158.3c-0.6,0.4-1.5,0.5-1.5,0.5c-1-1.2-1.9-2.5-3.4-4.1l-15.9-19.6l1.6-1.6l14.3,16.8c0.4,0.4,2.9,3.1,5.3,6.2C252.2,156.5,252.4,157.7,251.7,158.3L251.7,158.3z" />
    <path fill="#FFFFFF" stroke="#000000" stroke-width="0.3054" d="M236.3,137.7l-2.6-3.1c0,0-2,0.2-2.3,1.3c0,0-1.4,2.3-5.1,2.6c0,0,1,4.3,5.4,6.7c0,0,1.6-4.5,3.1-5.3C234.8,139.9,236.4,138.7,236.3,137.7L236.3,137.7z" />
    <path fill="#730000" stroke="#000000" stroke-width="0.3054" d="M229.9,151.2c-0.4-0.1-0.7,0-1.3,0.3c-0.5,0.3-1.1,0.2-1-0.4c0.1-0.5,0-0.5,0.7-0.9c1-0.6,2.3-0.6,3.1-0.3L229.9,151.2 M247.3,133.9c-0.1-0.4-0.2-0.9,0.2-1.4s0.4-1.3-0.6-0.9c-1,0.4-1.4,1.6-0.5,3.4L247.3,133.9L247.3,133.9z" />
    <path fill="#FFFFFF" stroke="#000000" stroke-width="0.3054" d="M229.6,151.6l18.1-17.9l4.5,4.8c0,0-0.9-0.4-1.3-0.1c-0.3,0.2,0.4,1.2,0.4,1.2s-0.9-0.3-1.2-0.1c-0.4,0.2,0,1.3,0,1.3s-0.7-0.5-1.1-0.3c-0.3,0.2,0,1.4,0,1.4s-1-0.3-1.2-0.1s0,1.3,0,1.3s-1-0.5-1.5,0s0.2,1.2,0.2,1.2s-1.2-0.5-1.7,0.2s0.1,1.4,0.1,1.4s-1-0.5-1.2-0.2c-0.2,0.2,0,1.4,0,1.4s-0.9-0.5-1.4,0.1c-0.6,0.7,0.1,1.2,0.1,1.2s-0.8-0.5-1.2-0.2c-0.4,0.2,0.1,1.4,0.1,1.4s-0.8-0.6-1.3,0s0,1.2,0,1.2s-0.7-0.6-1.3,0c-0.6,0.7,0,1.3,0,1.3s-1-0.5-1.3,0c-0.4,0.5,0.1,1.2,0.1,1.2s-0.7-0.4-1.2-0.2s0,1.3,0,1.3s-0.7-0.8-1-0.4c-0.4,0.4,0.1,1.5,0.1,1.5s-0.7-0.8-1-0.4c-0.4,0.4,0.2,1.3,0.2,1.3s-1.2-0.5-0.9-0.5L229.6,151.6z" />
    <path fill="#7E4B7E" d="M246.6,135.1l-1.4,1.4l0.3,4.8c0,0,0.3-1.4,0.7-0.4c0,0,0.1-1.2,0.4-1C246.4,139.8,246.6,135.1,246.6,135.1 M244,137.7l-1,1l0.4,4.8c0,0,0.3-1.8,0.7-0.4c0,0-0.1-1.2-0.1-1.6C244,141.8,244,137.7,244,137.7 M233,148.5l-1,1l0.2,2.9c0,0,0.3-1.9,0.7-0.4c0,0-0.1-1.2-0.1-1.6C232.9,150.7,233,148.5,233,148.5" />
    <path fill="none" stroke="#7E4B7E" stroke-width="0.5496" d="M231.8,136.4c0.7,0.7,2.6,3.1,2.6,3.1 M232.7,137.8c-0.1,0.4-0.4,1.4-0.9,2 M233,138c-0.1,0.2-0.1,1-0.9,1.8 M233.3,138.4c-0.1,0.4-0.2,0.7-0.5,1 M233.5,138.8c0,0.3-0.2,0.4-0.2,0.6 M231.2,137.6c-0.2,0.2-2,1.4-3,1.8 M230.7,138.3c-0.2,0.2-1.3,1.1-2,1.3 M230.5,139c-0.4,0.2-1,0.9-1.5,1 M230.2,139.7c-0.2,0.3-0.6,0.6-0.9,0.7" />
    <path fill="none" stroke="#7E4B7E" stroke-width="0.5496" stroke-linecap="square" d="M219.6,140.4c0.2-0.4,0.5-1.1,1-1.8c0.6-0.8,0.8-1,1.1-1.3" />
  </g>
  <path fill="#289400" stroke="#006600" stroke-width="0.3054" d="M160.6,189.6c0.9,0.4,0-3,0.3-4.3c0.4-1.3,3,3.3,4.3,3.9c1.3,0.7,9.5-3.2,9.5-3.2l2-3.7l1,3c0,0,2.3-2.6,2.9-3.6s0,2-0.7,2.9c-0.7,1,2,1.3,1.6,3.3c-0.3,2,2.6-1.3,2.6-1.3l7.6,0.7c0,0,1.3-4.6,3.3-7.2l0.6,2.9l3.1-3.2c3.5,9.2,10.8,19.1,25.8,24.5c14.1-5.1,21.4-14.2,25.1-22.9l4.2,4.3c0,0,3.3-1,3.9-1.3c0.7-0.3,7.8,2.5,7.8,2.5s1.3,0.5,2,1s0.2-2.1,0.2-2.1s3.6,0.7,3.3,2.6c0,0,0.8-1.8,1.5-2.1s2.3,1.6,2.6,2.3c0.3,0.6,8.1,1.6,9.2,2.3c0,0,0.9,1,0.9,1.6c0,0,1.6-0.2,2.9-0.2c0,0-1,0.5-1,1.5s-0.5,1.8-1.5,2.3s0,0.9,1.3,1c1.3,0.2,0,1.8-2.6,2.8c0,0-0.6,1.5,0.5,2c0,0-2.3,0.2-2.6-0.5c0,0-0.8,1.5-0.8,2.3c0,0-2.4-0.8-3.1-1.2c0,0-1,1-0.3,1.5c0,0-4.5-0.5-5.3-2.1c0,0-1.6,0.5-1.3,1c0,0-3.1-2.1-4.1-2.1l-0.7,1.1c0,0-2.1-1.3-2.8-1.3c-0.6,0-0.1,1-0.1,1l-3-1.8l-1.2,1.8c0,0-2.4-1.2-3.1-1.6c-0.6-0.5-0.8,1-1.3,1.2c0,0-1-1.3-2.3-1.2c0,0-0.5,1.6-0.3,2.1c0,0-3.8-0.8-4.5-1s-0.3,0.8,0,1.5c0,0-2.8-0.8-3.4-1.3l-0.2,1.3c0,0-2.3-0.2-2.8-0.7l-1.5,2H238l-0.5,1.8c0,0-4.1-1.2-4.5-0.5c-0.3,0.7,0.2,1.6,0.2,1.6l-3.6-0.5l-0.3,1.5c0,0-4.2-1.3-5.1-0.7c0,0-1.3,1.3-2.1,1.6c-0.8,0.4,0-0.5,0-0.5l-1.3-1.8c0,0-1.5,0.8-2.3,0.5c-0.8-0.4-3.4,1.3-4.3,0.8c0,0,0-1.2-0.7-1.5c-0.6-0.3-1.8-0.3-2.3,0.5c0,0-0.5-0.7-1.3-2s-2,0.1-2,0.1l-0.2-1.6l-2.3-0.2c-1.3-0.2-1.6-1.3-1.6-1.3s-3.5,0.4-4,0.2l0.9-0.8c0,0-4.8,1-5.7,0.6c-1-0.3,1.1-1.6,1.1-1.6s-4.4-1.1-5.2-1.3s-5.6,0.8-6.2,0.8c-0.7,0-1-1.1-1-1.1s-1.2,1-2.1,1.3c0,0-0.8-2-0.3-2.1c0,0-3.1,0.9-3.3,1.6c0,0-0.8-1.3-0.7-1.8c0,0-1.5,2.3-2.1,2.8c-0.7,0.5-0.1-1.2-0.1-1.2s-1.8,2.3-2.5,2.5V200c0,0-5.2,2.8-6.7,2.4c0,0,0-1.2,0.5-1.5l-3.3-0.2c-0.8-0.1-1.8-0.5-2.6-0.7c-0.8-0.1,1.2-1,2.5-0.6c0,0-3.7-1.3-4.8-0.7c0,0-0.5-1.3,1.5-1.8c0,0-2.5-2.4-4-2.3c0,0,1.6-1,3-0.5c0,0-1.5-4.1-2.5-4.6C156.2,189.7,159.7,189.1,160.6,189.6L160.6,189.6z" />
  <g>
    <path fill="#730000" stroke="#000000" stroke-width="0.3054" d="M155.6,118L200,95c0.2-1.2-0.5-2.1-1.2-3.1c-12.7,6.2-24.3,13.8-38.4,18.4c-0.8,0.3-7.8,3.2-11.4,7.6c-1.1,1.1-1.2,2.8-1.2,2.8s0.1,1.9,0.5,2.5c0,0,0.1,0.5,0.8,1c0,0,0.4,0.2,0.7,0.1c0.3,0.1,0.8,0.1,1.6-1.2C152.1,121.8,154.5,119,155.6,118L155.6,118z" />
    <path fill="#FFFFFF" stroke="#000000" stroke-width="0.3054" d="M191.3,95.2l5.7-2.7c0,0,2,1.5,1.8,3.1c0,0,0.4,3.8,5.1,6.4c0,0-4,4.9-10.9,5.4c0,0,0.8-6.5-0.7-8.4c0,0-0.2,0.2-0.1-0.1c0.2-0.6-0.1-2.8-1-3.3C191.1,95.5,191.3,95.3,191.3,95.2L191.3,95.2z" />
    <path fill="none" stroke="#7E4B7E" stroke-width="0.4885" d="M198.1,96c-1.2,0.5-5.2,2.6-5.2,2.6 M196.2,97.2c-0.1,0.6-0.4,2.1,0,3.1 M195.6,97.4c0,0.3-0.5,1.4,0.1,2.9 M195,97.7c-0.1,0.6-0.2,1,0,1.7 M194.5,98.1c-0.1,0.4,0,0.6,0,0.8 M198.1,97.9c0.2,0.5,1.8,3.1,2.8,4.1 M198.4,99.1c0.2,0.5,1.1,2.3,1.8,2.9 M198.2,100.1c0.2,0.6,0.7,1.7,1.2,2.3 M198.2,101.3c0.1,0.5,0.4,1.1,0.7,1.5" />
    <radialGradient id="Gradient_BZ_1" cx="3.7846" cy="345.8028" r="17.987" gradientTransform="matrix(2.119 0 0 1.4092 173.8025 -370.7218)" gradientUnits="userSpaceOnUse">
      <stop offset="0" style="stop-color:#FFEF5D" />
      <stop offset="1" style="stop-color:#EA5700" />
    </radialGradient>
    <path fill="url(#Gradient_BZ_1)" stroke="#000000" stroke-width="0.4398" stroke-miterlimit="6.912" d="M185.88,99.12c-0.12,0.36-0.48,0.12-0.48,0.24c-0.24,1.32-0.24,1.92-0.48,2.64c-0.48,0.84-1.92,1.68-1.92,1.56c-1.2,0.36-2.64,1.8-5.04,0.48c-0.12-0.12-0.24-0.24-0.36-0.36c0,0,0.72,2.52-1.8,3.72c-0.84,0.48-9.48,4.92-9.48,4.92s-0.96,1.68-0.36,3.96c0.12,0.36,0.24,0.72-0.24,0.96c-0.6,0.48-1.56,1.68-2.16,3.6c0,0-1.8-0.84-1.8-1.92c0-1.2,0.72-1.8,0.96-2.64s0.72-2.76,0.48-3.36c-0.24-0.72-1.32-0.96-1.8-1.2c-0.36-0.24-0.84,0.24-0.84,0.84c0.12,0.6,0.48,0.48,0.96,0.6c0,0-0.6,1.2-0.48,2.04l-5.52,2.88c0,0,0.72,0.96,0.96,1.44s0.84,6.12,2.4,8.76c1.68,2.64,2.16,1.92,2.52,2.28s0.84,0.84,1.2,1.2c0.48,0.36,2.28,0.48,2.64-0.6c0.48-0.96,0.72-1.56,1.92-2.52c1.2-0.96,3.48-3.24,3.48-4.32c0,0,1.44,4.08,1.2,7.44c0,0,5.16,1.08,9.72,1.2s6.84-0.96,6.84-0.96s0.6-3.84,0.36-4.56c0,0,0.72,2.52,1.32,3.36c0.6,1.08,1.32,3.12,2.64,3.24c1.32,0.12,2.4-1.32,2.52-1.8v-4.08h5.16c0-0.12,2.28,0.84,3,0.72s1.2-0.72,0.48-0.96l-0.24-0.24c0.72,0,1.56,0.48,1.56,0.48h2.52c0.12-0.12,0-0.24-0.12-0.36c-0.24-0.72-1.56-1.32-2.52-1.8c-0.96-0.36-2.04-0.84-2.76-0.84c-1.2-0.12-1.92-0.12-3.72,0.24c-0.48,0.12-2.28,0.24-3.48,0.84c-0.36,0.24-0.6,0.24-0.48-0.6c0.24-0.84,0.12-4.68-0.84-6.36c-0.72-1.2-0.6-2.16-0.48-3.12c0.12-0.96,0.12-4.32,0-5.28c-0.24-0.96-1.56-2.28-3.96-2.64c-2.28-0.36-4.32-2.16-4.44-3.72C185.16,103.08,185.64,100.32,185.88,99.12" />
    <radialGradient id="Gradient_BZ_2" cx="112.2526" cy="271.5256" r="5.2933" gradientTransform="matrix(1.6177 0 0 1.8458 -0.7365 -403.1268)" gradientUnits="userSpaceOnUse">
      <stop offset="0" style="stop-color:#FFEF5D" />
      <stop offset="1" style="stop-color:#EA5700" />
    </radialGradient>
    <path fill="url(#Gradient_BZ_2)" stroke="#000000" stroke-width="0.4398" stroke-miterlimit="6.912" d="M175.44,92.16c-0.48,1.92-0.48,3.72-0.36,5.52c0.12,1.32,0.72,2.76,1.2,4.08c0.36,0.84,0.84,1.8,1.68,2.28c2.16,1.44,4.2-0.12,5.28-0.6c0.6-0.24,1.44-0.96,1.68-1.44c0.36-0.72,0.24-1.32,0.48-2.64c-0.12,0.12,0.48-0.24,0.48-0.24c0.6-0.96,0.48-1.2,0.72-1.8c0.36-0.6-0.36-1.32-1.08-1.2c0.36-1.2,0.6-2.4,0.24-3.6c-0.12-0.36,0.36-1.32-0.36-1.08c-2.76,1.08-6,0.84-8.88,0.84c-0.24,0-0.48-0.48-0.84-0.48C175.56,91.92,175.56,92.04,175.44,92.16" />
    <path fill="#000000" stroke="#000000" stroke-width="0.4398" stroke-miterlimit="6.912" d="M175.2,93.24c-0.36-0.24-0.36-0.84,0-1.92c0.48-1.2,0-1.2,0.72-1.92s0.48-0.96,0.96-1.2c0.48-0.12,1.68-0.12,2.16-0.36c0.36-0.24,0.96-0.48,1.8-0.6c0.96-0.24,2.76-0.12,3.6,0.36c0.96,0.48,1.56,1.68,2.04,2.16c0.6,0.48,0.96,2.16,0.84,4.8c-0.24,2.52-0.72,2.04-0.72,2.04s-0.72-1.2-1.32-0.24c0,0,0-0.96,0.12-1.68s-0.36-2.04,0.12-3c0,0-3.48,1.08-5.28,1.08c-1.8-0.12-4.44-0.6-4.56-0.96L175.2,93.24" />
    <path fill="#FFFFFF" stroke="#FFFFFF" stroke-width="0.4398" stroke-miterlimit="6.912" d="M177,91.08c-0.24-0.36-1.08-1.68-0.36-2.16c0.72-0.36,0.24,1.68,1.2,2.04C177.84,90.96,177.48,91.92,177,91.08L177,91.08z" />
    <path fill="none" stroke="#000000" stroke-width="0.4398" stroke-miterlimit="6.912" d="M179.04,96.12c-0.36,1.08-0.48,1.32-0.6,1.92 M184.8,99c0.12,0.36,0.24,0.24,0.6,0.24 M185.64,96.84c0.36-0.36,0.72-0.24,0.48,0.72" />
    <path fill="none" stroke="#000000" stroke-width="0.4398" stroke-miterlimit="6.912" d="M175.44,94.56c0.6,0.24,1.08,0.36,1.68,0.6c0.96,0.36,0.36,1.68,0.12,2.52c-0.12,0.48-0.6,1.2-0.36,1.56c0.36,0.48,0.72,0.24,1.2,0.24c0-0.24,0.36-0.36,0.48-0.36c0.48-0.12,0.72,0.36,0.96,0.24c0.36-0.24,0.36-0.72,0.24-1.08 M179.64,95.76c0.12-0.24,0.6-0.48,0.96-0.6c1.32-0.24,2.16-0.48,3.24,0.36 M180.36,102.12c-1.08,0.24-2.16,0.48-3.12-0.12 M177.24,101.52c0.48-0.24,0.72-0.48,1.32-0.24c0-0.12,0.72-0.24,0.72-0.24c0.48,0,0.84,0.24,1.32,0.48 M177.24,101.76c0.6-0.24,2.04-0.24,3.24,0.12" />
    <path fill="#FFFFFF" stroke="#000000" stroke-width="0.2635" stroke-miterlimit="6.912" d="M175.44,96.12c0.48-0.12,0.96-0.6,1.92,0.24c0.72,0.48-1.08,0.84-0.84,0.84c-0.84,0.12-1.08-0.36-1.08-0.72C175.44,96.24,175.32,96.12,175.44,96.12L175.44,96.12z M180.36,96.6c0.48-0.84,1.08-0.72,1.68-0.48c0.6,0.24,0.48,0.12,0.96,0.36c-0.72,0.12-0.48,0.24-0.96,0.48c-0.6,0.24-1.08,0.36-1.44,0.12c-0.12-0.12-0.48-0.36-0.48-0.6C180.24,96.48,180.36,96.6,180.36,96.6L180.36,96.6z" />
    <path fill="#000000" stroke="#000000" stroke-width="0.2635" stroke-miterlimit="6.912" d="M176.28,96.84c0.24,0,0.48-0.24,0.48-0.48c0-0.36-0.24-0.6-0.48-0.6c-0.36,0-0.48,0.24-0.48,0.6C175.8,96.6,175.92,96.84,176.28,96.84z M181.44,96.96c0.24,0,0.48-0.24,0.48-0.6s-0.24-0.48-0.48-0.48s-0.48,0.24-0.48,0.48C180.96,96.72,181.2,96.96,181.44,96.96L181.44,96.96z" />
    <path fill="none" stroke="#000000" stroke-width="0.4398" stroke-miterlimit="6.912" d="M207.48,128.16c-0.36-0.48-0.6-0.6-1.08-0.84c-0.36-0.24-0.84-0.48-1.2-0.6c-0.48-0.24-1.08-0.36-1.44-0.6 M204,127.8c-0.24-0.12-0.36-0.24-0.48-0.36c-0.24-0.12-0.48-0.12-0.6-0.12s-0.12-0.12-0.12-0.12c-0.6-0.12-1.08-0.36-1.44-0.84 M163.68,120.84c0.6,0.48,1.92,1.32,2.04,3.12c0.12,0.96,0.6,1.8,0.6,1.8 M158.4,121.08c0.36,1.08,0.36,4.44,3.6,8.04 M159,116.4c-0.24,0.72-0.6,1.32,0.12,1.8 M167.88,124.56c0.72-1.56,2.76-1.44,2.76-2.88" />
    <path fill="none" stroke="#000000" stroke-width="0.4398" stroke-miterlimit="6.912" d="M170.88,124.32c-0.24-1.68-0.6-2.64-0.24-5.16c0.12-0.72,0.24-3.48,0-4.92c0,0,0.96,4.68-2.16,5.64 M189.12,127.44c0-2.4,0.6-3.72,0.6-3.72c0.72-3.36-0.72-4.68-0.12-5.52c0.48-0.72,1.2-2.28,0.24-5.28c0,0,1.68,6.24-2.64,6.24c-4.44,0-4.32-1.68-4.32-1.68" />
    <path fill="none" stroke="#000000" stroke-width="0.4398" stroke-miterlimit="6.912" d="M170.64,114.24c0,1.32,0,5.04,5.4,5.04c1.68,0,3.36-1.2,4.44-1.92 M181.8,115.68c-0.24-1.2-0.24-2.64-0.24-4.2 M173.4,109.56c1.44-0.24,2.64-0.36,5.4-0.36 M179.04,105.36c0.36,1.32-0.24,3.48,2.28,3.84 M183.96,104.88c-0.36,0.96-0.36,1.92-0.48,2.64 M183.6,109.2c1.08,0,3-0.72,5.4-0.24 M189.84,122.64c0.48,0.96,0.6,2.28,2.16,3.72 M172.92,119.52c0.12,0.84-1.08,3.36-0.24,5.52c0.84,2.16,0.72,4.56-0.72,6.6 M176.04,120.36c-0.48,0.96-1.32,1.92-1.56,2.76 M178.56,122.16c0,0.6-1.68,5.28-2.76,6.48c0,0,2.16,0.84,1.8,3.96 M181.92,120c0,0.84-0.12,0.96,0.6,1.44 M183.96,121.44c0.84,0.96,3.24,3.96,2.76,5.52 M182.28,123.12c0.24,0.6,0.24,3.84-0.36,5.4 M180.6,128.4c-0.72,0-1.68,0.48-1.8,1.68 M184.08,128.16c0.72-0.24,2.04,0.96,2.04,4.32 M195.48,126.36c-1.32,0.36-1.8,1.08-1.44,0.72c-0.72,0.6-1.32,0.96-1.32,0.96" />
    <path fill="#000000" stroke="#000000" stroke-width="0.2635" stroke-miterlimit="6.912" d="M173.88,118.8c0.36,0,0.72-0.24,0.72-0.6c0-0.24-0.36-0.48-0.72-0.48s-0.6,0.24-0.6,0.48C173.28,118.56,173.52,118.8,173.88,118.8L173.88,118.8z M187.68,118.92c0.36,0,0.6-0.24,0.6-0.6s-0.36-0.48-0.6-0.48c-0.36,0-0.72,0.24-0.72,0.48C187.08,118.68,187.32,118.92,187.68,118.92L187.68,118.92z" />
    <path fill="#FFFFFF" stroke="#000000" stroke-width="0.4398" stroke-miterlimit="6.912" d="M168.36,143.88c0.72-4.8,3-8.76,3-9.12c0,0,2.28,0.48,6.36,0.84c3.96,0.48,5.04,0.24,6.84,0.12c1.8-0.24,4.08-0.48,4.08-0.48s0.72,1.44,0.84,2.88c0.24,3.12,1.32,16.56,1.44,20.16c0,0,0.48,2.16,0.48,7.44c0,5.76,1.56,17.4,1.56,23.64l-1.56,0.36c0,0-8.64,0.72-8.64-0.48c0-1.32-0.48-16.2,0.84-25.32c0,0-0.36-1.8-0.84-3.24s-2.64-6-2.64-7.08c0,0-3.36,9.6-3.6,11.28c-0.24,1.56-0.72,23.04-0.96,24.84c0,0-4.92,3.84-5.64,4.2s-5.4-2.04-5.52-2.64c-0.24-0.72,0.48-7.92,2.76-19.92c0.84-4.32,0.36-5.04,0.36-6.24C167.52,163.92,167.64,148.68,168.36,143.88L168.36,143.88z" />
    <path fill="none" stroke="#000000" stroke-width="0.4398" stroke-miterlimit="6.912" d="M176.52,165c-0.36,1.32-0.96,2.64-2.16,3.48 M172.8,136.2c-0.24,0.84-1.32,4.44-4.32,6.48 M177,136.92c-0.72,2.16-3.24,13.56-3.84,27.24 M173.04,168.48c-0.12,1.32-0.84,10.8-0.96,12.48 M171.6,182.76c-0.36,0.72-1.68,6.24-1.68,11.16 M189.36,172.32c-0.12,1.2-0.6,9.36,2.16,16.8 M180.36,137.52c-0.24,1.32-0.48,9.96-0.48,10.68s0.96,1.68,1.44,1.8c0,0-0.96,0.36-1.2,3.6 M177.72,145.92c-0.24,1.08-1.2,5.16-1.8,6.72 M183.72,137.4c0,0,2.88,0.6,3.12,0c0,0,0.96,17.76,2.28,27.48 M182.52,139.68c0,1.2-0.36,9.84-0.36,9.84 M183.6,150.84c0,0,1.2,1.68,0.84,2.4 M173.76,136.44c0.96,0.36,1.8,0.48,1.8,0.48 M178.68,137.88c-0.24,0.48-0.36,2.76-0.36,2.76 M183.6,163.92c0.36,0.48,0.84,1.2,0.48,2.64" />
    <path fill="#9B5F00" stroke="#000000" stroke-width="0.4398" stroke-miterlimit="6.912" d="M171,134.64c0,0,0-1.92,0.72-2.88c0,0,2.04,0.48,5.04,0.72c3,0.36,5.4,0.6,7.56,0.36s4.44-0.84,4.44-0.84s0.6,2.88,0.36,3.24c0,0-2.4,0.48-5.04,0.6c-2.64,0.24-7.2-0.24-8.64-0.48C173.28,135.12,171.6,134.76,171,134.64L171,134.64z" />
    <path fill="#FFFFFF" stroke="#000000" stroke-width="0.4398" stroke-miterlimit="6.912" d="M172.8,134.88l0.36-2.88l0.6,0.12l-0.12,3L172.8,134.88z M186.12,132.48l0.12,3.24l0.72-0.12l-0.12-3.36L186.12,132.48z M176.64,132.48l-0.24,3.12h0.48l0.48-3.12H176.64z" />
    <path fill="#FFA54B" stroke="#000000" stroke-width="0.4398" stroke-miterlimit="6.912" d="M166.08,192.48c-0.24,0.84-0.48,1.92-0.6,3.24c0,0.36-0.36,1.92,0.6,2.04c0.72,0.12,0.84-1.68,0.84-1.68s-0.6,1.92,0.24,2.16c1.08,0.24,1.2-2.16,1.2-2.16c-0.12,0.72-0.84,2.4,0.24,2.52c1.08,0.24,1.44-2.28,1.44-2.28s-0.96,2.52,0.24,2.52c1.08,0.12,1.08-2.4,1.08-2.4s-0.6,3,0.96,2.76c0.84-0.12,0.96-1.2,1.2-1.8c0.24-0.96,0.84-2.04,0.12-3.96c-0.48-1.44-0.36-1.8-0.36-1.8s-1.68,1.32-3,2.16C169.32,194.28,166.08,192.48,166.08,192.48L166.08,192.48z M183.84,189.84c-0.36-0.24-0.24,1.08-0.36,1.68c-0.12,0.6,0.12,1.92,2.16,1.8c2.04-0.24,4.08-0.6,5.28-0.36c1.32,0.36,3.12,0.48,4.2,0.48s1.68-0.12,2.16-0.36c0.48-0.24,1.32,0.24,1.8,0.24s1.08-0.72,1.08-1.08c-0.12-0.84-0.84-0.84-1.8-0.84c-0.96-0.12-2.28-0.36-3-0.6s-1.92-0.96-3.36-1.2c0,0-2.88,0.12-3.48,0.12C187.8,189.84,184.2,190.08,183.84,189.84L183.84,189.84z" />
    <path fill="#FFB366" stroke="#000000" stroke-width="0.4398" stroke-miterlimit="6.912" d="M153.48,113.88c-0.36,0.24-0.72-1.2,0.24-1.8c0,0,0.24-1.2,1.2-1.32c0,0,0.84-1.08,1.92-0.96c0,0,1.32-0.96,1.8-0.84s1.68,1.32,1.8,1.68c0.12,0.48,0,1.2-0.36,1.44c-0.36,0.36-0.6-0.12-0.72-0.6c0,0,0.24,0.96-0.48,1.32c-0.72,0.48-0.72,0.12-0.72-0.36c0,0-0.24,0.96-0.72,1.08c-0.48,0.24-0.84-0.24-1.2-0.24c0,0,0.6,0.48,0.24,0.84c-0.48,0.36-0.96,0.24-1.2-0.12C155.04,114,154.68,113.16,153.48,113.88L153.48,113.88z" />
    <path fill="none" stroke="#000000" stroke-width="0.4398" stroke-miterlimit="6.912" d="M159.36,111.6c-0.36-0.96-1.32-1.8-2.4-1.68 M158.28,112.56c-0.24-0.24-0.24-0.48-0.48-0.72c-0.6-0.96-1.68-0.84-2.64-1.08 M156.72,113.52c-0.36-0.24-0.48-0.72-0.84-0.96c-0.6-0.24-1.2-0.6-1.92-0.48" />
  </g>
  <g>
    <path fill="#B34B00" stroke="#000000" stroke-width="0.3665" stroke-miterlimit="4.8" d="M238.9,92.7l16.3,8c3.3,1.6,4.4,0.1,6.3,0.9l32.2,16.4c2.8,1.2,4.3,1.6,3.9,3c-0.1,2.3,1.1,2.3,1.4,2.3c0.2,0.1,1.3-0.1,1.8-0.7c0.3-0.4,0.4-0.4,0.4-0.4c0.4-0.4,0.3-0.4,0.4-0.6c1.4-1.9,2.1-3.6,0.7-4.7c-1.6-0.8-1.8,1-3.5,0.8c0,0-3.1-1.2-4.2-2c-2-1.1-4.9-2.4-5.5-3.1c-2.1-0.4-17.5-9.1-26.3-13.5c-0.9-0.8-1.5-3.7-3.3-4.7c-0.5-0.8-12.4-6.2-18.6-9.3c-2.3-0.9-3.6-1.4-5.2,1.4C234.199,89.3,234.6,90.8,238.9,92.7L238.9,92.7z" />
    <path fill="none" stroke="#000000" stroke-width="0.3665" stroke-miterlimit="4.8" d="M240.3,89.3l18.3,9.1" />
    <radialGradient id="Gradient_BZ_3" cx="66.5433" cy="321.0923" r="18.0306" gradientTransform="matrix(2.5385 0 0 1.6937 98.5608 -427.3115)" gradientUnits="userSpaceOnUse">
      <stop offset="0" style="stop-color:#952D1A" />
      <stop offset="1" style="stop-color:#570A00" />
    </radialGradient>
    <path fill="url(#Gradient_BZ_3)" stroke="#000000" stroke-width="0.5278" stroke-miterlimit="8.2944" d="M263.525,99.116c0.48-0.24,0.36,0.36,0.36,0.6c0.24,0.84,0.24,1.68,0.48,2.4c0.36,0.72,0.48,0.96,1.08,1.2c0.96,0.6,3.84,2.16,5.88,0.84c0.12-0.12,0.36-0.24,0.48-0.36c0,0-0.72,2.52,1.8,3.72c0.84,0.48,9.36,4.92,9.36,4.92s0.96,1.68,0.36,3.96c-0.12,0.36-0.24,0.72,0.12,0.96c0.6,0.48,1.56,1.68,2.28,3.6c0,0,1.8-0.84,1.8-1.92c0-1.2-0.72-1.8-0.96-2.64c-0.12-0.84-0.6-2.76-0.36-3.36c0.24-0.72,1.32-0.96,1.68-1.2c0.48-0.24,0.96,0.24,0.84,0.84c-0.12,0.6-0.48,0.48-0.96,0.6c0,0,0.6,1.2,0.48,2.04l5.64,2.88c0,0-0.72,0.96-0.96,1.44c-0.36,0.48-0.84,6.12-2.52,8.76c-1.68,2.64-2.16,1.92-2.52,2.28s-0.84,0.84-1.32,1.2c-0.36,0.36-2.28,0.48-2.64-0.6c-0.48-0.96-0.72-1.56-1.92-2.52c-1.2-0.96-3.48-3.24-3.48-4.32c0,0-1.44,4.08-1.2,7.44c0,0-5.04,1.08-9.72,1.2c-4.56,0.12-6.84-0.96-6.84-0.96s-0.6-3.84-0.36-4.56c0,0-0.72,2.52-1.2,3.36c-0.72,1.08-1.32,3.12-2.64,3.24c-1.32,0.12-2.4-1.32-2.52-1.8v-4.08h-5.16c0-0.12-2.28,0.84-3,0.72c-0.72-0.12-1.08-0.72-0.48-0.96l0.24-0.24c-0.72,0-1.56,0.48-1.56,0.48h-2.88c0-0.12,0.12-0.24,0.12-0.36c0.24-0.72,1.56-1.32,2.52-1.8c0.96-0.36,2.04-0.84,2.76-0.84c1.2-0.12,1.92-0.12,3.72,0.24c0.48,0.12,2.4,0.24,3.48,0.84c0.36,0.24,0.72,0.24,0.48-0.6c-0.24-0.84-0.72-3.36,0.24-5.04c0.6-1.2,0.6-2.16,0.48-3.12c-0.12-1.08-0.72-3.36-0.72-4.44c0-3.36,2.64-4.8,4.92-5.52c2.52-0.84,4.32-1.68,4.2-3.12C263.285,102.956,263.765,100.316,263.525,99.116" />
    <radialGradient id="Gradient_BZ_4" cx="158.9663" cy="263.0618" r="5.3701" gradientTransform="matrix(1.9823 0 0 2.1692 -46.5862 -472.6354)" gradientUnits="userSpaceOnUse">
      <stop offset="0" style="stop-color:#952D1A" />
      <stop offset="1" style="stop-color:#570A00" />
    </radialGradient>
    <path fill="url(#Gradient_BZ_4)" stroke="#000000" stroke-width="0.5278" stroke-miterlimit="8.2944" d="M273.845,92.156c0.6,2.04,0.72,2.52,0.72,3.12c0,0.72-0.36,0.84-0.12,1.68c0.48,1.44-0.48,3-1.44,4.8c-0.48,0.84-0.84,1.8-1.68,2.28c-2.04,1.32-4.44-0.24-5.76-0.84c-0.72-0.36-1.08-0.84-1.2-1.32c-0.24-0.72-0.36-1.44-0.48-2.4c0-0.24,0.12-0.72-0.36-0.6c-0.72-0.84-0.6-1.2-0.96-1.8c-0.36-0.6,0.6-1.32,1.2-1.2c-0.36-1.2-0.6-2.4-0.24-3.6c0.12-0.36-0.36-1.32,0.36-1.08c2.76,1.08,6,0.84,8.88,0.84c0.24,0,0.48-0.48,0.84-0.48C273.725,91.916,273.725,92.036,273.845,92.156" />
    <path fill="#000000" stroke="#000000" stroke-width="0.5278" stroke-miterlimit="8.2944" d="M274.085,93.236c0.36-0.24,0.12-1.44-0.24-2.64c-0.12-0.6-0.6-0.84-1.32-1.56s-0.96-0.72-1.32-0.84c-0.36-0.12-1.2-0.12-1.68-0.36c-0.36-0.24-1.32-0.12-2.28,0.12c-1.2,0.24-1.92,0.12-2.76,0.6c-0.96,0.48-1.68,1.08-1.92,1.92c-0.24,0.72-0.72,1.56-0.48,4.08c0.12,2.52,0.6,2.04,0.6,2.04s0.72-0.96,1.08-0.36c0,0-0.12-1.32-0.24-2.16c-0.12-0.72,0-1.68,0.36-2.76c0,0,2.76,1.08,5.4,1.08c1.8,0,4.2-0.24,4.32-0.6L274.085,93.236L274.085,93.236z" />
    <path fill="none" stroke="#000000" stroke-width="0.5278" stroke-miterlimit="8.2944" d="M270.245,96.116c0.36,1.08,0.12,0.72,0.24,1.44 M264.365,98.756c0,0.48-0.36,0.36-0.6,0.36" />
    <path fill="none" stroke="#000000" stroke-width="0.5278" stroke-miterlimit="8.2944" d="M274.085,95.276c-0.6-0.48-1.56-0.12-2.04,0.12c-0.96,0.48-0.48,1.32-0.12,2.16c0.12,0.48,0.6,1.08,0.36,1.44c-0.24,0.48-0.48,0.24-0.96,0.36c0.12-0.24-0.48,0-0.72,0c-0.36-0.12-0.6,0.24-0.84,0.12c-0.36-0.24-0.36-0.72-0.24-1.08 M269.645,95.756c0-0.24-0.84-0.48-1.68-0.6c-1.32-0.12-1.44,0.12-2.52,0.84 M272.285,101.276c-0.24-0.36-0.6-0.6-1.32-0.24c0-0.12-0.96-0.24-0.96-0.24c-0.48,0-0.84,0.24-1.32,0.48 M272.165,101.636c-0.6-0.36-1.92-0.12-3.36-0.12 M268.925,101.996c1.08,0.36,2.04,0.48,3.12,0" />
    <path fill="#FFFFFF" stroke="#000000" stroke-width="0.3162" stroke-miterlimit="8.2944" d="M273.845,96.116c-0.48-0.12-0.6-0.6-1.92,0.24c-0.72,0.36,1.08,0.84,0.84,0.84c0.72,0.12,0.96-0.36,1.08-0.72C273.845,96.236,273.965,96.116,273.845,96.116L273.845,96.116z M268.805,96.596c0-0.48-1.08-0.72-1.68-0.48c-0.6,0.24-0.36,0.12-0.96,0.36c0.6,0.12,0.48,0.24,0.96,0.48c0.6,0.24,0.72,0.48,1.44,0.12c0.24-0.12,0.48-0.36,0.48-0.6C269.045,96.476,268.925,96.596,268.805,96.596L268.805,96.596z" />
    <path fill="#000000" stroke="#000000" stroke-width="0.3162" stroke-miterlimit="8.2944" d="M273.125,96.836c-0.24,0-0.48-0.24-0.48-0.48l0,0c0-0.36,0.24-0.6,0.48-0.6c0.24,0,0.48,0.24,0.48,0.6C273.485,96.596,273.365,96.836,273.125,96.836z M267.845,96.956c-0.24,0-0.48-0.24-0.48-0.6c0-0.36,0.24-0.48,0.48-0.48s0.48,0.24,0.48,0.48C268.325,96.716,268.085,96.956,267.845,96.956z" />
    <path fill="none" stroke="#000000" stroke-width="0.5278" stroke-miterlimit="8.2944" d="M245.664,126.116c-0.36,0.24-0.96,0.36-1.44,0.6c-0.36,0.12-0.84,0.36-1.2,0.6c-0.48,0.24-0.72,0.36-1.08,0.84 M248.064,126.356c-0.36,0.48-0.84,0.72-1.44,0.84c0,0,0,0.12-0.12,0.12s-0.36,0-0.6,0.12c-0.12,0.12-0.24,0.24-0.48,0.36 M283.104,125.756c0,0,0.48-0.84,0.6-1.8c0.12-1.8,1.44-2.64,2.04-3.12 M287.424,129.116c3.24-3.6,3.24-6.96,3.6-8.04 M290.304,118.196c0.72-0.48,0.36-1.08,0.12-1.8 M278.784,121.676c0,1.44,2.04,1.32,2.76,2.88" />
    <path fill="none" stroke="#000000" stroke-width="0.5278" stroke-miterlimit="8.2944" d="M280.944,119.876c-3.12-0.96-2.16-5.64-2.16-5.64c-0.24,1.44-0.12,4.2,0,4.92c0.36,2.52,0,3.48-0.24,5.16 M266.544,117.476c0,0,0.12,1.68-4.32,1.68c-4.32,0-2.64-6.24-2.64-6.24c-0.96,3-0.24,4.56,0.24,5.28c0.6,0.84-0.84,2.16-0.12,5.52c0,0,0.6,1.32,0.6,3.72" />
    <path fill="none" stroke="#000000" stroke-width="0.5278" stroke-miterlimit="8.2944" d="M268.944,117.356c1.08,0.72,2.76,1.92,4.44,1.92c5.4,0,5.4-3.72,5.4-5.04 M267.864,111.596c0,1.56,0,3-0.24,4.2 M270.624,109.196c2.76,0,3.96,0.12,5.4,0.36 M268.104,109.196c2.52-0.36,1.92-2.52,2.28-3.84 M265.944,107.516c-0.12-0.72-0.12-1.68-0.48-2.64 M260.424,108.956c2.4-0.48,4.32,0.24,5.4,0.24 M257.424,126.356c1.56-1.44,1.68-2.76,2.16-3.72 M277.464,131.636c-1.44-2.04-1.56-4.44-0.72-6.6s-0.36-4.68-0.24-5.52 M274.944,123.116c-0.24-0.84-1.08-1.8-1.56-2.76 M271.824,132.596c-0.36-3.12,1.8-3.96,1.8-3.96c-1.08-1.2-2.76-5.88-2.76-6.48 M266.904,121.436c0.72-0.48,0.6-0.6,0.6-1.44 M262.704,126.956c-0.48-1.56,1.92-4.56,2.76-5.52 M267.504,128.516c-0.6-1.56-0.6-4.8-0.36-5.4 M270.624,130.076c-0.12-1.2-1.08-1.68-1.8-1.68 M263.304,132.476c0-3.36,1.32-4.56,2.04-4.32 M256.704,128.036c0,0-0.6-0.36-1.32-0.96c0.36,0.36-0.12-0.36-1.44-0.72" />
    <path fill="#000000" stroke="#000000" stroke-width="0.3162" stroke-miterlimit="8.2944" d="M275.544,118.796c0.36,0,0.6-0.24,0.6-0.6c0-0.24-0.24-0.48-0.6-0.48c-0.36,0-0.72,0.24-0.72,0.48C274.824,118.556,275.184,118.796,275.544,118.796L275.544,118.796z M261.744,119.036c0.36,0,0.6-0.36,0.72-0.6c0-0.24-0.36-0.48-0.72-0.48c-0.24,0-0.6,0.12-0.6,0.48C261.144,118.796,261.384,119.036,261.744,119.036L261.744,119.036z" />
    <path fill="#FFFFFF" stroke="#000000" stroke-width="0.5278" stroke-miterlimit="8.2944" d="M281.064,143.876c0.72,4.8,0.84,20.04,0.84,21.24s-0.48,1.92,0.36,6.24c2.28,12,3,19.2,2.76,19.92c-0.12,0.6-4.8,3-5.52,2.64s-5.64-4.2-5.64-4.2c-0.24-1.8-0.72-23.28-0.96-24.84c-0.24-1.68-3.6-11.28-3.6-11.28c0,1.08-2.16,5.64-2.64,7.08c-0.48,1.44-0.84,3.24-0.84,3.24c1.32,9.12,0.84,24,0.84,25.32c0,1.2-8.64,0.48-8.64,0.48l-1.56-0.36c0-6.24,1.56-17.88,1.56-23.64c0-5.28,0.48-7.44,0.48-7.44c0.12-3.6,1.2-17.04,1.44-20.16c0.12-1.44,0.84-2.88,0.84-2.88s2.28,0.24,4.08,0.48c1.8,0.12,2.88,0.36,6.84-0.12c4.08-0.36,6.36-0.84,6.36-0.84C278.064,135.116,280.344,139.076,281.064,143.876L281.064,143.876z" />
    <path fill="none" stroke="#000000" stroke-width="0.5278" stroke-miterlimit="8.2944" d="M275.064,168.476c-1.2-0.84-1.8-2.16-2.16-3.48 M280.944,142.676c-3-2.04-4.08-5.64-4.32-6.48 M276.264,164.156c-0.6-13.68-3.12-25.08-3.84-27.24 M277.344,180.956c-0.12-1.68-0.84-11.16-0.96-12.48 M279.504,193.916c0-4.92-1.32-10.44-1.68-11.16 M257.904,189.116c2.76-7.44,2.28-15.6,2.16-16.8 M269.304,153.596c-0.24-3.24-1.2-3.6-1.2-3.6c0.48-0.12,1.44-1.08,1.44-1.8c0-0.72-0.24-9.36-0.48-10.68 M273.504,152.636c-0.6-1.56-1.56-5.64-1.8-6.72 M260.304,164.876c1.32-9.72,2.28-27.48,2.28-27.48c0.24,0.6,3.12,0,3.12,0 M267.264,149.516c0,0-0.36-8.64-0.36-9.84 M264.984,153.236c-0.36-0.72,0.84-2.4,0.84-2.4 M273.864,136.916c0,0,0.84-0.12,1.8-0.48 M271.104,140.636c0,0-0.12-2.28-0.36-2.76 M265.344,166.556c-0.36-1.44,0.12-2.16,0.48-2.64" />
    <path fill="#9B5F00" stroke="#000000" stroke-width="0.5278" stroke-miterlimit="8.2944" d="M278.424,134.636c-0.6,0.12-2.28,0.48-4.44,0.72c-1.44,0.24-6,0.72-8.64,0.48c-2.64-0.12-5.04-0.6-5.04-0.6c-0.24-0.36,0.36-3.24,0.36-3.24s2.28,0.6,4.44,0.84c2.16,0.24,4.56,0,7.56-0.36c3-0.24,5.04-0.72,5.04-0.72C278.424,132.716,278.424,134.636,278.424,134.636L278.424,134.636z" />
    <path fill="#FFFFFF" stroke="#000000" stroke-width="0.5278" stroke-miterlimit="8.2944" d="M275.784,135.116l-0.12-3l0.6-0.12l0.36,2.88L275.784,135.116z M262.584,132.236l-0.12,3.36l0.72,0.12l0.12-3.24L262.584,132.236z M272.064,132.476l0.48,3.12h0.48l-0.24-3.12H272.064z" />
    <path fill="#730000" stroke="#000000" stroke-width="0.5278" stroke-miterlimit="8.2944" d="M283.344,192.476c0,0-3.24,1.8-4.2,1.32c-1.32-0.84-3-2.16-3-2.16s0.12,0.36-0.36,1.8c-0.72,1.92-0.12,3,0.12,3.96c0.24,0.6,0.36,1.68,1.2,1.8c1.56,0.24,0.96-2.76,0.96-2.76s0,2.52,1.08,2.4c1.2,0,0.24-2.52,0.24-2.52s0.36,2.52,1.44,2.28c1.08-0.12,0.36-1.8,0.24-2.52c0,0,0.12,2.4,1.2,2.16c0.84-0.24,0.24-2.16,0.24-2.16s0.12,1.8,0.84,1.68c0.96-0.12,0.6-1.68,0.6-2.04C283.824,194.396,283.584,193.316,283.344,192.476L283.344,192.476z M265.584,189.836c-0.36,0.24-3.96,0-4.68-0.12c-0.6,0-3.48-0.12-3.48-0.12c-1.44,0.24-2.64,0.96-3.36,1.2c-0.72,0.24-2.04,0.48-3,0.6c-0.96,0-1.68,0-1.8,0.84c0,0.36,0.6,1.08,1.08,1.08s1.32-0.48,1.8-0.24c0.48,0.24,1.08,0.36,2.16,0.36c1.08,0,2.88-0.12,4.2-0.48c1.2-0.24,3.24,0.12,5.28,0.36c2.04,0.12,2.28-1.2,2.16-1.8C265.824,190.916,265.944,189.596,265.584,189.836L265.584,189.836z" />
    <path fill="#730000" stroke="#000000" stroke-width="0.5278" stroke-miterlimit="8.2944" d="M294.965,116.156c0.36,0.12,1.2-1.2,0.36-1.8c0,0-0.36-1.2-1.32-1.2c0,0-0.84-1.2-1.92-0.96c0,0-1.32-0.96-1.8-0.84c-0.6,0.12-1.8,1.32-1.8,1.8c-0.12,0.36,0,1.08,0.36,1.44c0.36,0.36,0.6-0.12,0.72-0.6c0,0-0.24,0.96,0.48,1.32c0.72,0.48,0.72,0.12,0.72-0.48c0,0,0.24,0.96,0.72,1.2s0.84-0.24,1.2-0.24c0,0-0.6,0.48-0.24,0.84c0.48,0.36,0.96,0.24,1.2-0.12C293.885,116.156,293.645,115.316,294.965,116.156L294.965,116.156z" />
    <path fill="none" stroke="#000000" stroke-width="0.5278" stroke-miterlimit="8.2944" d="M289.445,113.876c0.36-1.08,1.32-1.92,2.4-1.68 M290.645,114.716c0.12-0.24,0.24-0.48,0.36-0.72c0.6-0.96,1.8-0.96,2.76-1.08 M292.205,115.676c0.36-0.24,0.48-0.72,0.84-0.84c0.6-0.36,1.32-0.6,1.92-0.48" />
    <path fill="#730000" d="M289.445,112.076c-0.48,0.48-1.08,1.08-1.2,1.32c-0.12,0.36,0,1.08,0.24,1.44c0.36,0.24,0.6,0,0.6-0.48c0,0.24,0,0.84,0.48,1.2c0.72,0.48,0.72,0,0.72-0.48c0,0,0.24,0.96,0.72,1.2c0.48,0.24,0.84-0.24,1.2-0.24c0,0-0.6,0.48-0.24,0.84c0.48,0.36,0.96,0.24,1.2,0c0.36-0.24,0.12-1.08,1.44-0.24c0.12,0.12,0.48-0.24,0.6-0.72l-4.56-3.36L289.445,112.076z" />
    <path fill="none" stroke="#000000" stroke-width="0.5278" stroke-miterlimit="8.2944" d="M288.365,112.916c-0.96,1.56,0.24,2.52,0.72,1.56c-0.12,1.44,0.96,1.32,1.32,0.96c0.36,1.56,1.08,0.84,1.8,0.72c-0.72,1.32,0.84,0.96,1.32,0.6c0.6-0.84,0.84-0.12,1.2-0.24l0.72-0.72 M290.645,112.316c-0.96,0.48-1.56,1.32-1.56,2.16 M292.085,113.276c-0.96,0.48-1.56,1.32-1.56,2.16 M293.765,114.356c-0.96,0.48-1.08,1.08-1.44,1.68" />
  </g>
  <path fill="#5AC800" stroke="#006600" stroke-width="0.306" d="M174.1,194.2l-0.1-2.8l1.2,1l0.3-2.1c0.5-0.1,1.3,0.9,1.3,0.9l-0.1-2.1l1.8,2c0,0-0.1-1.6,0.5-2.6c0,0,1.3,1.2,1.3,2.5c0,1.2,1.2-1.6,1.2-1.6c0.3,1,1,3.1,1,3.1l0.8-1.2l0.7,2.4l1.5-2.1l1.2,2.5l2.6-0.2l0.3,1.5l1.2-1.3l1.5,1c0,0,1.3-0.4,2-0.4s1.5,0.9,1.5,0.9s0.5-0.9,1-1.2s1.2,0.5,1.3,1l1-1.8c0,0,1.3,1.3,1.5,1.8c0,0,0.2-1.5,0.5-2s0.8,0.2,1.2,0.8l0.8-2.6c0,0,0.9,0.2,1.5,1.2c0.7,1,0.7-1.5,0.7-1.5s1.5,2,1.8,3.3c0,0-10.1,3.5-17.2,2.5C181,195.8,174.1,194.2,174.1,194.2 M243.3,193.9c0,0,0.5-1.3,1.2-2c0,0,1.3,1.5,1.3,2c0,0,0.4-0.2,1-0.7l1,1l1.2-0.8l1.1,1l2-0.9l0.8,0.9l3.1-0.4l1.2,0.5l1.1-1.4l1,1.1l1.6-1.6c0,0,0.8,0.7,1,1.2c0,0,1.3-0.7,1.6-1.2c0,0,1.3-0.5,1.5,0.3c0,0,0.8-0.6,0.7-1.3c-0.1-0.7,0.9-0.2,1.2,0.7c0,0,0.4-1.3,1.3-1.5c0,0,0.7,0.8,0.5,2.3c0,0,1.5-1.2,2.1-1.3c0,0,0.3,1.6-0.2,3.1c0,0,1.5-2.5,1.8-1.6c0.1,0.5,0.5,2.1,0.1,3.3l1.3-0.9l0.5,1.6l1.5-0.3c0,0-8.7,1.3-16.8,0.5C251,196.8,243.3,193.9,243.3,193.9 M237.3,199.9c0.4-0.2-2.7,6.4-10.3,6.8c-10.5,0.5-19.5-4.8-19.5-4.8s1.1-1.8,1.8-2.3c0,0,1.5,1.2,2,2.6c0,0,0.2-1,0.7-1.8c0,0,1.8,0.9,2.1,2c0,0,0.7-1.2,1.2-1.5c0.5-0.4,1,1.3,1,2.3c0,0,1.2-1.2,1.8-1.3c0,0,1.3,0.6,1.6,2.7c0,0,1.2-1.2,1.6-1c0,0,1.5,1,1.1,2.3c-0.2,0.7,1.5-0.9,3.5-1.3l1.8,1.3c0,0,1.6-2.2,2.1-2.9c0,0,1.3,0.5,1.3,1.3c0,0,0.6-2.3,1.1-2.6s1.2,0.7,1.2,1.4c0,0,0.2-1.8,1.2-2.1c0,0,1,0.7,1,1.3C235.5,202.5,236.5,200.4,237.3,199.9L237.3,199.9z" />
  <path fill="#6699FF" d="M194.6,215.9c0,0-6.5,1.6-9,1.6s-6.8-1.2-6.6-3.8c0.1-1.7,3-2.4,4.9-2.6C185.4,211,187.3,211.2,194.6,215.9 M254.7,215.9c0,0,6.5,1.6,9,1.6c2.4,0,6.7-1.2,6.5-3.8c-0.1-1.7-3-2.4-4.9-2.6C263.9,211,262,211.2,254.7,215.9 M202.6,210.1c-0.7-0.5-1.3-1-2-1.5c-0.9-0.7-1.8-1.3-2.8-2c0,0,1.3-1.7,2-1.9c1-0.4,2.3,0.2,2.6,2.4C202.6,208.8,202.6,210.1,202.6,210.1 M198.1,227.3c1.2,0.7,2.4,0.6,3.2,0.6c2.3-0.1,4.1-1.3,4-5.6c0,0,2.8,1.4,7.4,2.5c0,0,0.7,0.9,0.9,2.7c0.2,1.5-0.9,3.2-2.1,3.1c0,0-6.4-1.2-10.3-1.8C199,228.3,198.1,227.3,198.1,227.3 M246.7,210.1c0.7-0.5,1.3-1,2-1.5c0.9-0.7,1.8-1.3,2.7-2c0,0-1.3-1.7-2-1.9c-1-0.4-2.3,0.2-2.5,2.4C246.8,208.8,246.7,210.1,246.7,210.1 M251.2,227.3c-1.2,0.7-2.4,0.6-3.2,0.6c-2.3-0.1-4-1.3-4-5.6c0,0-2.8,1.4-7.3,2.5c0,0-0.8,0.9-0.9,2.7c-0.1,1.5,0.9,3.2,2.1,3.1c0,0,6.5-1.2,10.3-1.8C250.3,228.3,251.2,227.3,251.2,227.3" />
  <path fill="#FFFFFF" stroke="#000000" stroke-width="0.4272" d="M224.7,226.2c13.7,0.1,21.9-4.9,26.3-7.9c10.4-7,12.6-7.3,14.3-7.1c2,0.2,4.8,0.9,4.9,2.6c0.2,2.6-4.1,3.8-6.5,3.8c-2.5,0-9-1.6-9-1.6l-1.7,1c1.2,0.6,14.5,5,17.1,0.8c2.6-4.3,5.2-11.2,5.2-11.2s-2.9-5.3-9.5-5.3s-13,4.2-17.3,7.3s-9.6,7.4-23.9,7.4c-14.3,0-19.7-4.3-24-7.4c-4.3-3.1-10.7-7.3-17.2-7.3c-6.6,0-9.5,5.3-9.5,5.3s2.6,6.9,5.2,11.2c2.6,4.2,15.9-0.2,17.1-0.8l-1.6-1.2c0,0-6.6,1.6-9,1.6c-2.5,0-6.8-1.2-6.6-3.8c0.1-1.7,3-2.4,4.9-2.6c1.7-0.1,3.9,0.1,14.3,7.1C202.8,221.3,210.9,226.1,224.7,226.2L224.7,226.2z" />
  <path fill="none" stroke="#000000" stroke-width="0.4272" d="M194.6,215.9c0,0-6.5,1.6-9,1.6s-6.8-1.2-6.6-3.8c0.1-1.7,3-2.4,4.9-2.6C185.4,211,187.3,211.2,194.6,215.9L194.6,215.9z M254.7,215.9c0,0,6.5,1.6,9,1.6c2.4,0,6.7-1.2,6.5-3.8c-0.1-1.7-3-2.4-4.9-2.6C263.9,211,262,211.2,254.7,215.9L254.7,215.9z M202.6,210.1c-0.7-0.5-1.3-1-2-1.5c-0.9-0.7-1.8-1.3-2.8-2c0,0,1.3-1.7,2-1.9c1-0.4,2.3,0.2,2.6,2.4C202.6,208.8,202.6,210.1,202.6,210.1L202.6,210.1z M198.1,227.3c1.2,0.7,2.4,0.6,3.2,0.6c2.3-0.1,4.1-1.3,4-5.6c0,0,2.8,1.4,7.4,2.5c0,0,0.7,0.9,0.9,2.7c0.2,1.5-0.9,3.2-2.1,3.1c0,0-6.4-1.2-10.3-1.8C199,228.3,198.1,227.3,198.1,227.3L198.1,227.3z M246.7,210.1c0.7-0.5,1.3-1,2-1.5c0.9-0.7,1.8-1.3,2.7-2c0,0-1.3-1.7-2-1.9c-1-0.4-2.3,0.2-2.5,2.4C246.8,208.1,246.8,209.1,246.7,210.1L246.7,210.1L246.7,210.1z M202.6,210c0,0,0-1.2-0.2-2.9c-0.2-2.2-1.5-2.7-2.6-2.4c-0.7,0.2-2,1.9-2,1.9v0.1c-0.6-0.4-1.2-0.8-1.9-1.2c0.5-0.6,3.3-2.3,4-2.3c0.6,0,9,3.4,11.7,5.7c0.7,0.6,1.2,4.4,0.8,5.6C207.9,213.4,204.9,211.7,202.6,210 M198.5,218.6c0,0-1.8,1.8-1.9,5.2c-0.1,4,2.8,4.2,4.7,4.1c2.3-0.1,4.1-1.3,4-5.6C205.4,222.3,201.7,220.7,198.5,218.6L198.5,218.6z M246.7,210c0,0,0.1-1.2,0.2-2.9c0.2-2.2,1.5-2.7,2.5-2.4c0.7,0.2,2,1.9,2,1.9v0.1c0.6-0.4,1.2-0.8,1.9-1.2c-0.5-0.6-3.3-2.3-3.9-2.3c-0.7,0-9.1,3.4-11.8,5.7c-0.6,0.6-1.1,4.4-0.8,5.6C241.5,213.4,244.3,211.7,246.7,210 M250.7,218.6c0,0,1.8,1.8,1.9,5.2c0.1,4-2.8,4.2-4.7,4.1c-2.3-0.1-4-1.3-4-5.6C243.9,222.3,247.6,220.7,250.7,218.6L250.7,218.6z M200.1,219.5c0,0-1.5,1.5-1.7,4c-0.1,2,1.2,3.1,2.8,2.9c2.3-0.1,3.2-3.3,2.1-5.1L200.1,219.5z M249.2,219.5c0,0,1.5,1.5,1.7,4c0.2,2-1.2,3.1-2.8,2.9c-2.3-0.1-3.2-3.3-2.1-5.1L249.2,219.5z M251.2,227.3c-1.2,0.7-2.4,0.6-3.2,0.6c-2.3-0.1-4-1.3-4-5.6c0,0-2.8,1.4-7.3,2.5c0,0-0.8,0.9-0.9,2.7c-0.1,1.5,0.9,3.2,2.1,3.1c0,0,6.5-1.2,10.3-1.8C250.3,228.3,251.2,227.3,251.2,227.3L251.2,227.3z" />
  <path fill="none" stroke="#FFFFFF" stroke-width="0.427" d="M212.3,225.9c0,0,2,1.5-0.4,3.3 M206.2,224.9l6.2,2.7 M207.3,226.3l4.5,2 M208.9,225.1l3.4,1.5 M237.1,225.9c0,0-2.1,1.5,0.4,3.3 M243,224.9l-6.2,2.7 M242.1,226.3l-4.5,2 M240.4,225.1l-3.4,1.5" />
  <path fill="#000000" stroke="#000000" stroke-width="0.42" d="M188.1,207.1c0.1,0.1,0.1,0.3,0.2,0.4c0,0.2,0,0.3,0,0.5c-0.1,0.5-0.3,0.8-0.7,1s-0.9,0.3-1.4,0.2c-0.2,0-0.5-0.1-0.7-0.2c-0.2-0.1-0.4-0.2-0.6-0.4c-0.1,0.1-0.1,0.2-0.2,0.2c-0.1,0-0.2,0-0.3-0.1c0.1-0.6,0.2-1.2,0.3-1.8c0.1,0,0.2,0,0.3,0.1c0,0.2,0.1,0.4,0.1,0.6c0,0.2,0.1,0.4,0.2,0.6c0.1,0.2,0.2,0.3,0.4,0.4c0.2,0.1,0.3,0.2,0.6,0.2c0.2,0,0.3,0,0.5,0c0.1,0,0.2-0.1,0.3-0.1c0.1-0.1,0.2-0.1,0.2-0.2c0.1-0.1,0.1-0.2,0.1-0.4s0-0.4-0.1-0.6c-0.1-0.2-0.2-0.4-0.4-0.5s-0.3-0.2-0.5-0.3s-0.3-0.2-0.5-0.3c-0.3-0.2-0.5-0.4-0.6-0.6c-0.1-0.2-0.2-0.5-0.1-0.9c0-0.2,0.1-0.4,0.2-0.5c0.1-0.2,0.3-0.3,0.4-0.4c0.2-0.1,0.4-0.2,0.6-0.2c0.2,0,0.4,0,0.6,0c0.2,0,0.4,0.1,0.6,0.2c0.2,0.1,0.3,0.2,0.5,0.4l0.2-0.2c0.1,0,0.2,0,0.3,0.1l-0.3,1.7c-0.1,0-0.2,0-0.3-0.1c0-0.2,0-0.4-0.1-0.6c0-0.2-0.1-0.4-0.2-0.5c-0.1-0.2-0.2-0.3-0.3-0.4c-0.1-0.1-0.3-0.2-0.5-0.2s-0.4,0-0.6,0.1c-0.2,0.1-0.3,0.3-0.3,0.5s0,0.4,0.1,0.6c0.1,0.2,0.2,0.3,0.4,0.4c0.2,0.1,0.3,0.2,0.5,0.3s0.3,0.2,0.5,0.3c0.1,0.1,0.3,0.2,0.4,0.3C188,206.9,188.1,207,188.1,207.1 M195.6,208.1c-0.1,0-0.2-0.1-0.3-0.1s-0.2-0.1-0.3-0.1s-0.2,0.1-0.3,0.2c-0.1,0.2-0.3,0.4-0.4,0.5c-0.4,0.7-0.7,1.3-1.1,2c-0.1,0.3-0.3,0.4-0.5,0.6c-0.2,0.1-0.4,0.2-0.7,0.2c-0.2,0-0.5,0-0.7,0c-0.2-0.1-0.4-0.1-0.6-0.2c-0.3-0.2-0.5-0.3-0.7-0.5s-0.3-0.4-0.4-0.6c-0.1-0.2-0.1-0.4-0.1-0.6c0-0.2,0.1-0.4,0.2-0.6l1.5-2.7c0-0.1,0.1-0.1,0.1-0.2c0-0.1,0-0.1-0.1-0.2c0-0.1-0.1-0.1-0.2-0.2c-0.1-0.1-0.1-0.1-0.2-0.1l0.1-0.2c0.6,0.4,1.3,0.7,1.9,1.1l-0.1,0.2c-0.1,0-0.2-0.1-0.2-0.1c-0.1,0-0.2-0.1-0.2-0.1c-0.1,0-0.2,0-0.2,0.1c-0.1,0-0.1,0.1-0.1,0.2c-0.5,0.8-0.9,1.7-1.4,2.5c-0.1,0.1-0.1,0.3-0.2,0.4c-0.1,0.1-0.1,0.3,0,0.5c0,0.2,0.1,0.3,0.2,0.5c0.1,0.2,0.3,0.3,0.5,0.4c0.2,0.1,0.5,0.2,0.7,0.2s0.4,0,0.5-0.1s0.3-0.2,0.4-0.3c0.1-0.1,0.2-0.2,0.3-0.4l1-1.9c0.1-0.2,0.2-0.4,0.3-0.6c0.1-0.2,0.1-0.3,0-0.4c0-0.1-0.1-0.2-0.2-0.3c-0.1-0.1-0.2-0.2-0.3-0.2l0.1-0.2c0.6,0.3,1.3,0.7,1.9,1L195.6,208.1 M198.3,212.8c0.1,0.2,0.1,0.4,0.1,0.5c0,0.2-0.1,0.4-0.2,0.6c-0.1,0.2-0.3,0.4-0.5,0.5s-0.4,0.2-0.6,0.2c-0.2,0-0.4,0-0.6-0.1c-0.2-0.1-0.4-0.1-0.6-0.2l-2.2-1.3l0.1-0.2c0.1,0,0.1,0.1,0.2,0.1c0.1,0,0.2,0.1,0.2,0.1c0.1,0,0.1,0,0.2,0c0.1,0,0.1-0.1,0.2-0.2c0.6-1.1,1.3-2.2,1.9-3.3c0-0.1,0.1-0.1,0.1-0.2c0-0.1,0-0.2-0.1-0.2c0-0.1-0.1-0.1-0.2-0.2c-0.1-0.1-0.1-0.1-0.2-0.1c0-0.1,0.1-0.2,0.1-0.2c0.7,0.4,1.4,0.8,2.1,1.2c0.2,0.1,0.3,0.2,0.4,0.3c0.1,0.1,0.2,0.3,0.3,0.4c0.1,0.1,0.1,0.3,0.1,0.5s0,0.4-0.1,0.5s-0.2,0.3-0.3,0.4c-0.1,0.1-0.3,0.2-0.4,0.2c-0.1,0-0.3,0-0.5,0s-0.3,0-0.5-0.1l0,0c0.1,0.1,0.3,0.2,0.4,0.4C198.1,212.5,198.2,212.7,198.3,212.8L198.3,212.8z M197.9,211.7c0.1,0,0.2-0.1,0.3-0.2c0.1-0.1,0.2-0.2,0.3-0.4s0.2-0.5,0.1-0.7c-0.1-0.2-0.2-0.4-0.5-0.6c-0.1,0-0.2-0.1-0.3-0.1c-0.1-0.1-0.2-0.1-0.3-0.1l-1,1.7c0.1,0.1,0.3,0.2,0.4,0.2c0.2,0.1,0.3,0.2,0.5,0.2C197.7,211.7,197.8,211.7,197.9,211.7L197.9,211.7z M197.5,213.4c0.2-0.2,0.2-0.5,0.1-0.8c-0.1-0.3-0.3-0.5-0.6-0.7c-0.1-0.1-0.2-0.1-0.4-0.2c-0.1-0.1-0.2-0.1-0.2-0.1c-0.3,0.5-0.6,1.1-0.9,1.6c-0.1,0.1-0.1,0.3,0,0.4c0.1,0.1,0.2,0.3,0.4,0.4c0.3,0.2,0.6,0.2,0.9,0.1C197.1,214,197.3,213.7,197.5,213.4L197.5,213.4z M209.4,216.1c-0.1,0-0.2-0.1-0.3-0.1s-0.2,0-0.4,0c-0.1,0-0.2,0.1-0.3,0.3s-0.2,0.4-0.3,0.6l-0.9,2.1c-0.1,0.3-0.3,0.5-0.5,0.6s-0.4,0.2-0.7,0.3c-0.2,0-0.5,0.1-0.7,0c-0.2,0-0.4-0.1-0.6-0.2c-0.3-0.1-0.5-0.3-0.7-0.4c-0.2-0.2-0.3-0.4-0.4-0.6c-0.1-0.2-0.1-0.4-0.2-0.6c0-0.2,0-0.4,0.1-0.6l1.2-2.8c0-0.1,0-0.1,0-0.2c0-0.1,0-0.2-0.1-0.2c-0.1-0.1-0.1-0.1-0.2-0.2c-0.1-0.1-0.1-0.1-0.2-0.1c0-0.1,0.1-0.2,0.1-0.2l2,0.9c0,0.1-0.1,0.2-0.1,0.2c-0.1,0-0.2-0.1-0.3-0.1s-0.2,0-0.2,0c-0.1,0-0.2,0-0.2,0.1c-0.1,0.1-0.1,0.1-0.1,0.2c-0.4,0.9-0.8,1.8-1.1,2.7c-0.1,0.1-0.1,0.3-0.1,0.4c0,0.2,0,0.3,0,0.5s0.1,0.3,0.2,0.5c0.1,0.1,0.3,0.3,0.6,0.4c0.3,0.1,0.5,0.2,0.7,0.2s0.4,0,0.5-0.1s0.3-0.2,0.4-0.3c0.1-0.1,0.2-0.2,0.2-0.4c0.3-0.7,0.6-1.3,0.8-2c0.1-0.3,0.2-0.5,0.2-0.6c0-0.2,0-0.3,0-0.4c-0.1-0.1-0.1-0.2-0.3-0.3c-0.1-0.1-0.2-0.1-0.3-0.2l0.1-0.2l2,0.9C209.4,215.9,209.4,216,209.4,216.1 M215.1,222.8c-0.8-0.2-1.5-0.4-2.3-0.7l0.1-0.3c0.1,0,0.2,0,0.3,0.1c0.1,0,0.2,0,0.3,0s0.1-0.1,0.2-0.1c0.1-0.1,0.1-0.1,0.1-0.2l1.1-3.7c0,0,0,0-0.1,0c-1,1.3-2,2.5-3,3.8c-0.1,0-0.1,0-0.2-0.1c-0.1-1.6-0.3-3.2-0.4-4.9l0,0c-0.3,1-0.6,2-0.9,3c-0.1,0.3-0.1,0.5-0.1,0.7s0,0.3,0.1,0.4c0,0.1,0.1,0.1,0.3,0.2c0.2,0.1,0.3,0.1,0.3,0.2l-0.1,0.3l-2.1-0.6c0-0.1,0-0.2,0.1-0.3c0.1,0,0.2,0,0.4,0c0.1,0,0.2,0,0.3,0s0.2-0.1,0.3-0.3c0.1-0.1,0.2-0.4,0.2-0.7l0.7-2.6c0-0.1,0.1-0.3,0.1-0.4c0-0.1,0-0.2-0.1-0.3s-0.1-0.2-0.2-0.2c-0.1-0.1-0.2-0.1-0.3-0.1l0.1-0.3l1.7,0.5c0.1,1.4,0.3,2.8,0.4,4.2c0.7-0.9,1.4-1.9,2.2-2.8c0.1-0.1,0.2-0.2,0.2-0.3s0.1-0.2,0.1-0.2c0.6,0.2,1.1,0.3,1.7,0.5l-0.1,0.3c-0.1,0-0.2,0-0.3,0s-0.2,0-0.2,0c-0.1,0-0.2,0-0.2,0.1s-0.1,0.1-0.1,0.2l-1.1,3.6c0,0.1,0,0.1,0,0.2c0,0.1,0.1,0.1,0.1,0.2c0,0,0.1,0.1,0.2,0.1c0.1,0.1,0.2,0.1,0.3,0.1C215.2,222.7,215.1,222.7,215.1,222.8 M220.6,221.2c0.1,0.1,0.3,0.3,0.3,0.5c0.1,0.2,0.1,0.4,0.1,0.6c0,0.2-0.1,0.4-0.2,0.6c-0.1,0.2-0.3,0.3-0.5,0.4c-0.2,0.1-0.4,0.2-0.6,0.2c-0.2,0-0.4,0-0.7,0c-0.8-0.1-1.7-0.2-2.5-0.3v-0.3c0.1,0,0.1,0,0.3,0c0.1,0,0.2,0,0.3,0s0.1-0.1,0.2-0.1c0-0.1,0.1-0.1,0.1-0.2c0.2-1.2,0.3-2.5,0.5-3.7c0-0.1,0-0.2,0-0.2c0-0.1-0.1-0.1-0.2-0.2c-0.1,0-0.2-0.1-0.2-0.1c-0.1,0-0.2-0.1-0.2-0.1V218l2.4,0.3c0.2,0,0.4,0.1,0.5,0.1c0.2,0.1,0.3,0.1,0.5,0.3c0.1,0.1,0.2,0.2,0.3,0.4s0.1,0.3,0.1,0.6s-0.2,0.6-0.5,0.8c-0.1,0.1-0.3,0.1-0.4,0.2c-0.2,0.1-0.3,0.1-0.5,0.1l0,0c0.1,0,0.3,0.1,0.5,0.2C220.3,220.9,220.4,221,220.6,221.2L220.6,221.2z M219.8,220.3c0.1-0.1,0.2-0.2,0.2-0.3c0.1-0.1,0.1-0.3,0.1-0.4c0-0.3,0-0.5-0.2-0.7c-0.1-0.2-0.4-0.3-0.7-0.3c-0.1,0-0.2,0-0.3,0h-0.3c-0.1,0.7-0.2,1.3-0.3,2c0.2,0,0.3,0,0.5,0.1c0.2,0,0.4,0,0.5,0C219.5,220.4,219.7,220.4,219.8,220.3L219.8,220.3z M220.1,222c0-0.3,0-0.6-0.2-0.8s-0.5-0.4-0.9-0.4c-0.2,0-0.3,0-0.4,0c-0.1,0-0.2,0-0.2,0c-0.1,0.6-0.2,1.2-0.2,1.8c0,0.1,0,0.3,0.1,0.4c0.1,0.1,0.3,0.2,0.5,0.2c0.4,0,0.7,0,0.9-0.2C219.9,222.7,220,222.4,220.1,222L220.1,222z M227.2,223.6h-1.4c-0.3-0.5-0.6-0.9-0.9-1.3c-0.3-0.4-0.5-0.7-0.8-1.1h-0.5v1.7c0,0.1,0,0.2,0,0.2c0,0.1,0.1,0.1,0.2,0.2c0,0,0.1,0,0.2,0c0.1,0,0.2,0,0.3,0v0.3H222v-0.3c0.1,0,0.1,0,0.3,0c0.1,0,0.2,0,0.2,0c0.1,0,0.1-0.1,0.2-0.1c0-0.1,0.1-0.2,0-0.2v-3.8c0-0.1,0-0.2,0-0.2c0-0.1-0.1-0.1-0.2-0.1c-0.1,0-0.2,0-0.2-0.1c-0.1,0-0.2,0-0.3,0v-0.3h2.5c0.2,0,0.4,0,0.6,0.1c0.2,0,0.4,0.1,0.5,0.2c0.2,0.1,0.3,0.2,0.4,0.4c0.1,0.2,0.1,0.4,0.1,0.6c0,0.2,0,0.4-0.1,0.5c-0.1,0.2-0.2,0.3-0.3,0.4c-0.1,0.1-0.2,0.2-0.4,0.3s-0.3,0.1-0.5,0.2c0.3,0.3,0.5,0.6,0.7,0.9c0.2,0.2,0.4,0.5,0.6,0.9c0.1,0.2,0.3,0.4,0.6,0.5c0.1,0,0.1,0.1,0.2,0.1C227,223.6,227.1,223.6,227.2,223.6C227.2,223.5,227.2,223.6,227.2,223.6L227.2,223.6z M225.2,219.7c0-0.3-0.1-0.6-0.3-0.8s-0.4-0.3-0.8-0.3h-0.6v2.2h0.5c0.3,0,0.6-0.1,0.9-0.3C225.1,220.4,225.3,220.1,225.2,219.7L225.2,219.7z M233.3,223.3l-2.2,0.2c0-0.1,0-0.2,0-0.3c0.2,0,0.4-0.1,0.5-0.1s0.2-0.1,0.2-0.1s0,0,0-0.1v-0.1c-0.2-0.4-0.4-0.8-0.5-1.1l-1.9,0.1c-0.1,0.2-0.1,0.3-0.1,0.5c0,0.1-0.1,0.3-0.1,0.4c0,0.1,0,0.2,0,0.3s0,0.1,0,0.2c0,0.1,0.1,0.2,0.3,0.2s0.3,0.1,0.5,0.1v0.3l-2,0.2c0-0.1,0-0.2,0-0.3c0.1,0,0.2,0,0.2-0.1c0.1,0,0.2-0.1,0.2-0.1c0.1-0.1,0.2-0.1,0.2-0.2c0.1-0.1,0.1-0.2,0.1-0.3c0.2-0.7,0.5-1.4,0.7-2.3c0.3-0.8,0.5-1.6,0.7-2.2h0.3c0.7,1.5,1.4,2.9,2.1,4.4c0,0.1,0.1,0.2,0.1,0.2c0.1,0.1,0.1,0.1,0.2,0.2c0.1,0,0.1,0.1,0.2,0.1c0.1,0,0.2,0,0.2,0C233.3,223.1,233.3,223.2,233.3,223.3L233.3,223.3z M231,221.3c-0.3-0.7-0.6-1.3-1-2c-0.2,0.7-0.4,1.4-0.6,2.1L231,221.3z M240.9,217.1l-0.3,0.1c-0.1-0.2-0.3-0.3-0.5-0.5s-0.4-0.2-0.6-0.2c-0.1,0-0.2,0-0.3,0.1c-0.1,0-0.2,0.1-0.4,0.1l-0.9,0.2c0.2,0.7,0.4,1.4,0.6,2c0.2-0.1,0.4-0.1,0.6-0.2c0.2,0,0.3-0.1,0.4-0.2c0.1-0.1,0.2-0.1,0.2-0.2c0-0.1,0.1-0.2,0.1-0.3s0-0.3,0-0.4l0.3-0.1c0.2,0.7,0.4,1.3,0.5,2c-0.1,0-0.2,0-0.3,0.1c0-0.1-0.1-0.2-0.2-0.3c-0.1-0.1-0.2-0.2-0.2-0.2c-0.1-0.1-0.2-0.1-0.3-0.1s-0.3,0-0.4,0.1l-0.6,0.2l0.5,1.7c0,0.1,0.1,0.1,0.1,0.2c0,0.1,0.1,0.1,0.2,0.1c0,0,0.1,0,0.3,0c0.1,0,0.2,0,0.3,0l0.1,0.3l-2.2,0.6l-0.1-0.3c0.1,0,0.2-0.1,0.3-0.1s0.2-0.1,0.2-0.1c0.1,0,0.1-0.1,0.1-0.2c0-0.1,0-0.2,0-0.2l-1-3.6c0-0.1-0.1-0.1-0.1-0.2c0-0.1-0.1-0.1-0.2-0.1c-0.1,0-0.2,0-0.3,0s-0.2,0-0.3,0l-0.1-0.3c1.3-0.4,2.7-0.7,4-1.1L240.9,217.1 M246.8,216.7c0.2,0.5,0.4,1,0.6,1.5l-3.7,1.8l-0.1-0.2c0.1,0,0.1-0.1,0.2-0.1c0.1-0.1,0.2-0.1,0.2-0.1c0.1-0.1,0.1-0.1,0.1-0.2c0-0.1,0-0.2-0.1-0.2c-0.5-1.1-1.1-2.3-1.6-3.4c0-0.1-0.1-0.1-0.1-0.2c-0.1,0-0.1-0.1-0.2-0.1c-0.1,0-0.2,0-0.3,0s-0.2,0-0.3,0.1c0-0.1-0.1-0.2-0.1-0.2l2-1l0.1,0.2c-0.1,0-0.2,0.1-0.2,0.1c-0.1,0-0.1,0.1-0.2,0.2c-0.1,0.1-0.1,0.1-0.1,0.2c0,0.1,0,0.2,0.1,0.2l1.5,3.2c0.1,0.1,0.1,0.3,0.2,0.3c0,0.1,0.1,0.1,0.2,0.1c0.1,0,0.2,0,0.3,0s0.3-0.1,0.4-0.2c0.1,0,0.2-0.1,0.3-0.1s0.2-0.1,0.2-0.1c0.1-0.1,0.1-0.1,0.2-0.2c0,0,0.1-0.1,0.1-0.2c0-0.1,0.1-0.4,0.1-0.6c0-0.3,0-0.5,0-0.6C246.6,216.8,246.7,216.7,246.8,216.7 M249.6,211.5c0.3,0.1,0.6,0.3,0.9,0.5c0.3,0.2,0.6,0.5,0.7,0.9c0.2,0.4,0.3,0.7,0.4,1.1c0.1,0.4,0,0.7,0,1c-0.1,0.3-0.2,0.6-0.4,0.9c-0.2,0.3-0.5,0.5-0.7,0.7c-0.3,0.2-0.6,0.3-1,0.3c-0.3,0-0.7,0-1-0.1s-0.6-0.3-0.9-0.5c-0.3-0.2-0.5-0.5-0.7-0.8s-0.3-0.7-0.4-1.1c-0.1-0.3,0-0.7,0-1c0.1-0.3,0.2-0.6,0.4-0.9c0.2-0.3,0.4-0.5,0.7-0.7s0.6-0.3,1-0.3C248.9,211.4,249.3,211.4,249.6,211.5L249.6,211.5z M251,215c0-0.3,0-0.6-0.1-0.8c-0.1-0.3-0.2-0.6-0.4-0.9c-0.2-0.3-0.4-0.6-0.6-0.8c-0.2-0.2-0.4-0.4-0.7-0.5c-0.2-0.1-0.5-0.2-0.7-0.2s-0.5,0.1-0.7,0.2c-0.3,0.2-0.4,0.3-0.6,0.6c-0.1,0.2-0.2,0.5-0.2,0.7c0,0.3,0.1,0.5,0.1,0.8c0.1,0.3,0.2,0.6,0.4,0.8c0.2,0.3,0.4,0.5,0.6,0.8c0.2,0.2,0.4,0.4,0.6,0.5c0.2,0.1,0.5,0.2,0.7,0.2s0.5-0.1,0.7-0.2c0.2-0.1,0.4-0.3,0.5-0.5C250.9,215.5,251,215.3,251,215L251,215z M257.6,211.4c-0.4,0.3-0.8,0.6-1.2,0.8c-0.5-0.2-1-0.4-1.4-0.5s-0.9-0.3-1.3-0.4c-0.1,0.1-0.3,0.2-0.4,0.3l1,1.4c0,0.1,0.1,0.1,0.2,0.2c0.1,0,0.1,0,0.2,0c0,0,0.1,0,0.2-0.1c0.1-0.1,0.2-0.1,0.2-0.1l0.2,0.2c-0.6,0.4-1.2,0.9-1.8,1.3c-0.1-0.1-0.1-0.1-0.2-0.2c0,0,0.1-0.1,0.2-0.2c0.1-0.1,0.1-0.1,0.2-0.2c0-0.1,0.1-0.1,0.1-0.2c0-0.1,0-0.2-0.1-0.2c-0.7-1-1.5-2.1-2.2-3.1c0-0.1-0.1-0.1-0.2-0.2c-0.1,0-0.1,0-0.2,0c-0.2,0-0.3,0.1-0.5,0.2l-0.2-0.2c0.7-0.5,1.3-0.9,2-1.4c0.2-0.1,0.4-0.2,0.6-0.3c0.2-0.1,0.4-0.1,0.6-0.1c0.2,0,0.4,0,0.5,0.1c0.2,0.1,0.3,0.2,0.4,0.4c0.1,0.2,0.2,0.3,0.2,0.5s0,0.3,0,0.5s-0.1,0.3-0.2,0.5c-0.1,0.2-0.2,0.3-0.3,0.5c0.4,0.1,0.8,0.2,1,0.3c0.3,0.1,0.6,0.2,1,0.3c0.2,0.1,0.5,0.1,0.7,0.1c0.1,0,0.1,0,0.2-0.1c0.1,0,0.2-0.1,0.2-0.1C257.5,211.3,257.5,211.3,257.6,211.4L257.6,211.4z M253.7,209.4c-0.2-0.3-0.4-0.4-0.7-0.5c-0.3,0-0.5,0-0.8,0.2l-0.5,0.4c0.4,0.6,0.9,1.2,1.3,1.8l0.4-0.3c0.3-0.2,0.5-0.5,0.5-0.8C254,210,253.9,209.7,253.7,209.4L253.7,209.4z M261.9,208.1c0.1,0.5,0.3,1,0.4,1.5l-4.1,1.5c0-0.1-0.1-0.2-0.1-0.2c0.1,0,0.2-0.1,0.3-0.1c0.1-0.1,0.2-0.1,0.2-0.1c0.1-0.1,0.1-0.1,0.1-0.2c0-0.1,0-0.2,0-0.2c-0.4-1.2-0.9-2.4-1.3-3.5c0-0.1-0.1-0.1-0.1-0.2c0,0-0.1-0.1-0.2-0.1s-0.2,0-0.3,0c-0.1,0-0.2,0-0.3,0.1c0-0.1-0.1-0.2-0.1-0.2l3.9-1.4l0.4,1.2c-0.1,0-0.2,0.1-0.3,0.1c-0.1-0.2-0.3-0.3-0.5-0.4c-0.2-0.1-0.4-0.2-0.6-0.2c-0.1,0-0.2,0-0.3,0.1c-0.1,0-0.2,0.1-0.3,0.1c-0.3,0.1-0.5,0.2-0.8,0.3c0.2,0.6,0.5,1.3,0.7,1.9c0.2-0.1,0.4-0.1,0.6-0.2c0.2-0.1,0.3-0.1,0.4-0.2c0.1-0.1,0.1-0.2,0.2-0.2c0-0.1,0-0.2,0-0.3s0-0.2,0-0.3c0.1,0,0.2-0.1,0.3-0.1c0.2,0.6,0.5,1.3,0.7,1.9c-0.1,0-0.2,0.1-0.3,0.1c-0.1-0.1-0.1-0.2-0.2-0.3s-0.2-0.2-0.2-0.2c-0.1-0.1-0.2-0.1-0.3-0.1c-0.1,0-0.3,0-0.4,0.1l-0.6,0.2c0.2,0.5,0.4,1,0.5,1.5c0.1,0.1,0.1,0.3,0.2,0.3c0,0.1,0.1,0.1,0.2,0.1s0.2,0,0.3,0c0.1,0,0.3-0.1,0.5-0.1c0.1,0,0.2-0.1,0.3-0.1c0.1,0,0.2-0.1,0.3-0.1c0.1,0,0.2-0.1,0.3-0.2c0.1-0.1,0.1-0.1,0.2-0.2c0.1-0.1,0.1-0.4,0.2-0.6c0-0.3,0.1-0.5,0-0.6C261.8,208.2,261.9,208.2,261.9,208.1 M266.4,204.5c0.3,0.2,0.5,0.5,0.7,0.8s0.3,0.7,0.3,1.1c0.1,0.4,0,0.8-0.1,1.1s-0.2,0.7-0.4,0.9c-0.2,0.3-0.4,0.5-0.7,0.6c-0.3,0.2-0.6,0.3-0.9,0.3c-0.4,0-0.7,0-1-0.1s-0.6-0.2-0.9-0.5c-0.3-0.2-0.5-0.5-0.6-0.8c-0.2-0.3-0.3-0.7-0.3-1.1c-0.1-0.4,0-0.8,0.1-1.2c0.1-0.3,0.2-0.7,0.4-0.9c0.4-0.5,1-0.9,1.7-1c0.3,0,0.7,0,1,0.1C265.8,204.1,266.1,204.3,266.4,204.5L266.4,204.5z M266.3,208.2c0.1-0.3,0.2-0.5,0.2-0.8s0-0.6,0-0.9c0-0.3-0.1-0.7-0.2-1s-0.2-0.5-0.4-0.7c-0.2-0.2-0.4-0.3-0.6-0.4c-0.2-0.1-0.5-0.1-0.7-0.1c-0.3,0-0.5,0.1-0.7,0.3s-0.3,0.4-0.4,0.6c-0.1,0.2-0.2,0.5-0.2,0.8s0,0.6,0,0.9c0,0.3,0.1,0.7,0.2,0.9c0.1,0.3,0.2,0.5,0.4,0.7c0.2,0.2,0.4,0.3,0.6,0.4c0.2,0.1,0.5,0.1,0.8,0.1s0.5-0.1,0.7-0.3C266.1,208.7,266.2,208.5,266.3,208.2L266.3,208.2z" />
  <path fill="none" stroke="#000000" stroke-width="0.61" d="M253.8,128.2v33.1c0,6.6-0.9,32.8-29.1,43c-28.3-10.2-29.2-36.4-29.2-43v-33.1L253.8,128.2L253.8,128.2z" />
  <path fill="none" stroke="#552300" stroke-width="2.462" d="M225,51.7c53.958,0,97.7,43.742,97.7,97.7s-43.742,97.7-97.7,97.7s-97.7-43.742-97.7-97.7S171.042,51.7,225,51.7z"/>
  <path fill="#007F00" d="M213.7,45.7c8.8-9.5,16.8,1.5,16.6,6.6s-9.1,16.4-17.2,7.3c8.4,2.1,10.9-7.2,15.1-7.3C224,52.5,222.3,43.2,213.7,45.7L213.7,45.7z M121.8,120.1c-4.6-12.1,8.8-14.3,13.3-11.8s10.8,15.4-1,18.5c5.6-6.5-1.7-12.8,0.1-16.6C132.4,113.9,123.3,111.4,121.8,120.1L121.8,120.1z M320,108.1c12.1,4.7,4.7,16.1-0.2,17.8c-4.9,1.7-18.8-2.5-13.1-13.2c1,8.5,10.7,7.4,12.3,11.3C317.4,120.1,325.4,115.1,320,108.1L320,108.1z M161.8,235.9c-12.9-1.3-9-14.2-4.7-17.1c4.3-2.9,18.7-2.7,16.3,9.2c-3.3-7.9-12.3-4.3-14.9-7.5C161,223.7,154.6,230.6,161.8,235.9L161.8,235.9z M292.6,226.5c0.2,12.9-13.2,10.4-16.6,6.6c-3.4-3.9-4.8-18.2,7.4-17.1c-7.5,4.2-2.9,12.6-5.9,15.6C280.5,228.7,288.1,234.2,292.6,226.5L292.6,226.5z M131.2,95.5c-1.2-12.9,12.4-11.4,16.1-7.8c3.7,3.6,6.2,17.7-6,17.6c7.2-4.7,1.9-12.8,4.6-16C143.1,92.5,135,87.6,131.2,95.5L131.2,95.5z M145.1,216.2c-12.8-2.2-8-14.8-3.5-17.4c4.4-2.6,18.9-1.4,15.6,10.3c-2.8-8.1-12-5.1-14.4-8.5C145.1,204,138.3,210.4,145.1,216.2L145.1,216.2z M246.4,46.3c11.7-5.7,15.2,7.3,13.2,12s-14.4,12.2-18.7,0.8c7,4.9,12.7-2.9,16.7-1.5C253.6,56.2,255.3,46.9,246.4,46.3L246.4,46.3z M271.2,242.7c-5.8,11.6-16.6,3.3-17.8-1.7c-1.3-5,4.1-18.3,14.4-11.9c-8.6,0.3-8.4,10-12.4,11.2C259.5,239.1,263.7,247.5,271.2,242.7L271.2,242.7z M327.8,131c9.8,8.5-1,16.7-6.2,16.7c-5.2-0.1-16.8-8.6-7.9-16.9c-1.9,8.3,7.5,10.6,7.8,14.8C321.3,141.4,330.6,139.4,327.8,131L327.8,131z M163.4,63c2.9-12.6,15.3-7,17.7-2.5s0.3,18.8-11.2,14.8c8.3-2.3,5.8-11.6,9.4-13.8C175.7,63.8,169.6,56.6,163.4,63L163.4,63z M125,170.8c-11.4-6.2-2.6-16.6,2.4-17.6c5.1-1,18.3,4.8,11.3,14.8c0.1-8.6-9.7-8.7-10.8-12.8C129.1,159.3,120.5,163.2,125,170.8L125,170.8z M289.7,71.1c12.9-1.9,12.1,11.6,8.7,15.5s-17.5,7.1-18-5c5.1,6.9,13,1.2,16.3,3.7C293.4,82.7,297.9,74.5,289.7,71.1L289.7,71.1z M216.4,255.1c-11.9,5.3-14.9-7.9-12.7-12.6c2.2-4.6,14.9-11.6,18.7,0c-6.8-5.2-12.8,2.4-16.8,0.8C209.7,244.9,207.6,254,216.4,255.1z M323,183c5.4,11.8-7.9,14.8-12.6,12.6s-11.7-14.7-0.1-18.6c-5.2,6.8,2.5,12.7,0.9,16.6C312.8,189.8,322,191.8,323,183L323,183z M119.8,145.2c-7.5-10.6,5-16,10-14.7s14.3,12.3,3.6,18.2c3.9-7.6-4.8-12.1-4-16.2C128.6,136.6,119.1,136.3,119.8,145.2L119.8,145.2z M190,247.2c-12.2,4.5-14.3-8.9-11.8-13.4s15.7-10.5,18.7,1.2c-6.5-5.7-13,1.5-16.8-0.3C183.9,236.6,181.2,245.6,190,247.2L190,247.2z M186.5,51c7.2-10.7,16.8-1.2,17.4,3.9c0.6,5.1-6.4,17.7-15.8,9.9c8.6,0.8,9.6-8.8,13.7-9.5C197.7,56,194.5,47.2,186.5,51L186.5,51z M311.6,208.6c0.8,12.9-12.7,11-16.3,7.3c-3.6-3.7-5.7-17.9,6.6-17.4c-7.3,4.5-2.3,12.8-5.1,15.8C299.6,211.3,307.5,216.4,311.6,208.6L311.6,208.6z M308.2,87c12.8,2.6,7.5,15,3,17.5s-18.9,0.8-15.3-10.7c2.5,8.2,11.8,5.4,14.1,9C307.8,99.3,314.9,93,308.2,87L308.2,87z M146.7,78c0.1-12.9,13.5-10.1,16.8-6.2s4.4,18.3-7.8,16.9c7.6-4,3.2-12.6,6.2-15.5C158.9,76.1,151.4,70.4,146.7,78L146.7,78z M130.6,194.3c-11.6-5.8-3.2-16.5,1.8-17.7s18.4,4.2,11.8,14.4c-0.2-8.6-10-8.4-11.2-12.4C134.3,182.7,125.8,186.9,130.6,194.3L130.6,194.3z M270,56.9c12.2-4.6,14.4,8.8,11.9,13.3s-15.6,10.7-18.7-1.1c6.5,5.6,13-1.6,16.8,0.2C276.2,67.5,278.8,58.4,270,56.9L270,56.9z M244.2,253.6c-9.5,8.9-16.7-2.6-16.1-7.7c0.6-5.1,10.2-15.8,17.7-6.2c-8.2-2.7-11.3,6.5-15.5,6.3C234.4,246.2,235.5,255.6,244.2,253.6L244.2,253.6z M327.1,154.9c8.9,9.4-2.7,16.5-7.8,16s-15.9-10.2-6.1-17.5c-2.8,8.1,6.4,11.3,6.2,15.5C319.6,164.6,329,163.5,327.1,154.9L327.1,154.9z" />
  <path fill="#005800" d="M213.1,59.7c8.4,2.1,10.4-7.1,14.7-7.2C225.3,55.5,218.9,63,213.1,59.7z M213.7,45.7c8.8-9.5,16.8,1.5,16.6,6.6C223.2,39.8,220.9,41.8,213.7,45.7L213.7,45.7z M134.1,126.8c5.6-6.5-1.8-12.4,0-16.2C135.7,114,139.6,123.1,134.1,126.8z M121.8,120.1c-4.6-12.1,8.8-14.3,13.3-11.8C120.6,109.1,121.4,111.9,121.8,120.1z M306.7,112.7c1,8.5,10.4,7.1,12.1,11C315.1,122.4,305.7,119.2,306.7,112.7z M320,108.1c12.1,4.7,4.7,16.1-0.2,17.8C328.9,114.7,326.3,113.4,320,108.1z M173.3,227.9c-3.3-7.9-12-4-14.6-7.3C162.6,220.8,172.5,221.4,173.3,227.9z M161.8,235.9c-12.9-1.3-9-14.2-4.7-17.1C151.3,232,154.2,232.6,161.8,235.9z M283.3,216c-7.5,4.2-2.6,12.3-5.6,15.2C277.4,227.5,276.9,217.6,283.3,216z M292.6,226.5c0.2,12.9-13.2,10.4-16.6,6.6C289.8,237.3,290.1,234.3,292.6,226.5z M141.2,105.3c7.2-4.7,1.7-12.4,4.4-15.6C146.2,93.5,147.6,103.2,141.2,105.3z M131.2,95.5c-1.2-12.9,12.4-11.4,16.1-7.8C133.1,84.6,133,87.6,131.2,95.5z M157.1,209c-2.8-8.1-11.7-4.8-14.1-8.3C146.9,201.2,156.7,202.4,157.1,209z M145.1,216.2c-12.8-2.2-8-14.8-3.5-17.4C134.9,211.6,137.8,212.4,145.1,216.2z M240.9,59.1c7,4.9,12.3-2.9,16.3-1.5C253.8,59.4,245.1,64.2,240.9,59.1L240.9,59.1z M246.4,46.3c11.7-5.7,15.2,7.3,13.2,12C257.4,44.1,254.6,45.1,246.4,46.3z M267.8,229.2c-8.6,0.3-8,9.7-12,11C257.3,236.6,261.3,227.6,267.8,229.2z M271.2,242.7c-5.8,11.6-16.6,3.3-17.8-1.7C263.9,251,265.5,248.5,271.2,242.7z M313.7,130.8c-1.9,8.3,7.4,10.2,7.6,14.4C318.3,142.8,310.6,136.6,313.7,130.8z M327.8,131c9.8,8.5-1,16.7-6.2,16.7C334,140.2,332,138.1,327.8,131z M169.9,75.4c8.3-2.3,5.5-11.3,9.1-13.5C178.4,65.7,176.6,75.4,169.9,75.4z M163.4,63c2.9-12.6,15.3-7,17.7-2.5C168.7,53.3,167.7,56,163.4,63z M138.7,168c0.1-8.6-9.5-8.4-10.6-12.4C131.7,157.3,140.5,161.7,138.7,168z M125,170.8c-11.4-6.2-2.6-16.6,2.4-17.6C116.9,163.2,119.3,164.9,125,170.8z M280.4,81.6c5.1,6.9,12.6,1,16,3.6C292.6,85.9,282.8,87.7,280.4,81.6z M289.7,71.1c12.9-1.9,12.1,11.6,8.7,15.5C300.8,72.4,297.8,72.5,289.7,71.1z M222.5,242.5c-6.8-5.2-12.4,2.4-16.3,0.9C209.6,241.6,218.5,237.2,222.5,242.5z M216.4,255.1c-11.9,5.3-14.9-7.9-12.7-12.6C205.4,256.8,208.3,255.9,216.4,255.1z M310.3,177.1c-5.2,6.8,2.5,12.3,1,16.2C309.5,189.9,305,181.1,310.3,177.1z M323,183c5.4,11.8-7.9,14.8-12.6,12.6C324.8,194,323.9,191.2,323,183z M133.4,148.7c3.9-7.6-4.8-11.6-4-15.8C131.8,135.9,137.9,143.8,133.4,148.7z M119.8,145.2c-7.5-10.6,5-16,10-14.7C116,134.8,117.4,137.3,119.8,145.2z M196.9,235.1c-6.5-5.7-12.6,1.6-16.4-0.2C184.1,233.4,193.2,229.6,196.9,235.1z M190,247.2c-12.2,4.5-14.3-8.9-11.8-13.4C178.9,248.2,181.8,247.5,190,247.2z M188.1,64.8c8.6,0.8,9.2-8.6,13.4-9.4C199.5,58.7,194.3,67.2,188.1,64.8L188.1,64.8z M186.5,51c7.2-10.7,16.8-1.2,17.4,3.9C194.9,43.7,192.9,45.9,186.5,51L186.5,51z M301.8,198.5c-7.3,4.5-2.1,12.4-4.9,15.5C296.5,210.2,295.4,200.4,301.8,198.5z M311.6,208.6c0.8,12.9-12.7,11-16.3,7.3C309.3,219.4,309.5,216.5,311.6,208.6z M295.9,93.8c2.5,8.2,11.5,5.2,13.8,8.7C305.9,102,296.1,100.4,295.9,93.8z M308.2,87c12.8,2.6,7.5,15,3,17.5C318.2,92,315.4,91.1,308.2,87z M155.7,88.7c7.6-4,2.9-12.2,6-15.1C161.9,77.4,162.2,87.2,155.7,88.7z M146.7,78c0.1-12.9,13.5-10.1,16.8-6.2C149.7,67.3,149.4,70.2,146.7,78z M144.3,191.1c-0.2-8.6-9.7-8-11-12C136.8,180.6,145.9,184.7,144.3,191.1z M130.6,194.3c-11.6-5.8-3.2-16.5,1.8-17.7C122.3,187,124.8,188.6,130.6,194.3z M263.2,69.1c6.5,5.6,12.5-1.7,16.4,0.1C276,70.7,266.9,74.6,263.2,69.1z M270,56.9c12.2-4.6,14.4,8.8,11.9,13.3C281.1,55.8,278.2,56.5,270,56.9z M245.7,239.8c-8.2-2.7-10.9,6.4-15.1,6.2C233.2,243.2,240.2,236.1,245.7,239.8L245.7,239.8z M244.2,253.6c-9.5,8.9-16.7-2.6-16.1-7.7C234.3,258.9,236.7,257.1,244.2,253.6z M313.1,153.3c-2.8,8.1,6.4,10.9,6.1,15C316.5,165.7,309.4,158.8,313.1,153.3z M327.1,154.9c8.9,9.4-2.7,16.5-7.8,16C332.4,164.6,330.6,162.3,327.1,154.9z" />
</svg>
