<svg xmlns="http://www.w3.org/2000/svg" width="450px" height="300px" viewBox="0 0 450 300">
  <path fill="#FFFFFF" d="M0,0h450v300H0V0z" />
  <path fill="#FF0000" d="M71.759,108.245c-1.171,0.048-1.828-0.214-1.458-0.584c0.369-0.369,1.328-0.409,2.13-0.088C73.317,107.929,73.054,108.192,71.759,108.245z M416.56,57.296c-1.208,27.098-19.816,49.336-37.56,68.218c-7.528,8.38-14.453,17.564-20.027,27.403c-2.422,5.116-4.309,10.48-6.674,15.615c-24.336,46.517-70.126,80.329-122.723,79.46c-48.6,0.669-112.284-32.555-131.872-79.46c-1.871-5.358-4.59-10.347-6.674-15.615c-6.231-9.204-12.186-19.462-20.027-27.403c-18.371-18.679-35.766-41.051-36.873-68.218c0.059-2.182,0.756,0.477,1.642,5.903c7.308,44.644,50.692,74.403,81.664,36.397c2.06-2.528,3.939-6.277,5.167-7.652c2.262-2.535,6.288-3.424,6.288-1.389c0,0.611-1.242,1.111-2.759,1.111c-2.209,0-3.343,1.152-5.687,5.778c-2.708,5.343-14.057,16.849-16.148,17.556c-1.743,0.589-0.587,1.976,3.76,4.257c9.728,5.104,13.091,7.335,23.219,15.402c10.819,8.962,23.591,16.024,37.997,16.339c12.955-2.709,21.135-2.985,29.013,4.596c4.155,3.998,12.473,4.962,26.715,4.962c14.242,0,22.465-1.066,26.716-4.962c8.271-7.58,16.058-7.305,29.013-4.596c14.683-0.077,26.848-7.729,37.997-16.339c10.129-8.068,13.491-10.298,23.219-15.402c4.347-2.281,6.093-4.257,3.76-4.257c-2.207,0-13.44-12.212-16.148-17.556c-2.344-4.626-3.478-5.778-5.687-5.778c-1.517,0-2.759-0.5-2.759-1.111c0-2.035,4.026-1.146,6.288,1.389c1.227,1.375,3.552,4.818,5.167,7.652c34.702,41.559,75.432,1.8,82.351-36.397C415.762,57.766,416.5,55.114,416.56,57.296z M187.778,153.954c1.032-4.408-6.308-2.596-3.83,0.993C185.01,156.653,187.996,156.296,187.778,153.954z M262.236,154.572c0.589,2.111,3.605,1.798,4.072-0.24C267.514,150.341,260.593,150.266,262.236,154.572z M36.226,61.045l-0.641-5.49l1.558,5.36c3.254,11.196,12.517,20.743,22.002,22.676c7.056,1.438,13.28,3.716,15.747,5.763c1.543,1.281,2.119,1.234,3.828-0.312c1.296-1.173,3.978-1.82,7.548-1.82c4.895,0,5.83,0.397,8.066,3.421c1.391,1.881,2.806,3.143,3.145,2.805c0.339-0.339-0.016-1.378-0.789-2.31c-1.028-1.238-1.055-1.694-0.102-1.694c0.717,0,1.991,1.644,2.831,3.654c1.888,4.519,7.013,9.188,9.527,9.188c7.733-2.717,8.75-14.769,17.596-15.404c2.992,0.151,2.993,0.153,0.224,0.657c-3.829,0.697-5.289,4.736-10.173,10.962C85.819,137.724,42.884,103.398,36.226,61.045L36.226,61.045z M73.889,107.222c0-2.503-5.428-2.172-5.916,0.361c-0.316,1.64,0.213,1.959,2.763,1.667C72.637,109.032,73.889,108.227,73.889,107.222z M87.376,93.333C87.728,94.25,88.748,95,89.643,95c1.411,0,1.406-0.221-0.04-1.667c-0.917-0.917-1.937-1.667-2.267-1.667C87.006,91.666,87.024,92.416,87.376,93.333z M82.535,107.397l-6.424,0.175l5.556,0.659c3.055,0.362,5.401,1.159,5.213,1.77c-0.189,0.611-1.189,0.971-2.222,0.8c-1.034-0.171-3.879-0.537-6.324-0.813l-4.444-0.502l3.889,1.184c2.139,0.651,4.639,1.613,5.556,2.137c2.239,1.28,2.458,1.254,4.862-0.565C92.085,109.295,89.641,107.203,82.535,107.397z M74.445,99.141c-3.303,4.199-2.73,4.791,2.29,2.366c3.825-1.848,4.46-2.635,4.167-5.167c-0.385-3.325-4.235-5.029-4.235-1.874C76.667,95.483,75.667,97.587,74.445,99.141z M66.72,89.444c0.714,0,0.999,0.773,0.634,1.724c-0.379,0.987-0.193,1.435,0.435,1.047c0.603-0.373,1.018,0.226,0.922,1.331c-0.348,4.011,0.198,8.12,1.08,8.12c0.496,0,1.973-1.448,3.281-3.217c2.297-3.107,2.306-3.236,0.262-3.771c-1.164-0.304-2.322,0.018-2.573,0.717c-0.251,0.699-1.187,2.531-1.72,2.031c-0.534-0.502,0.462-3.436,1.859-4.49c1.394-1.051,2.182-2.263,1.752-2.692c-0.43-0.43-1.546-0.16-2.48,0.598c-1.416,1.149-1.584,1.071-1.006-0.473c0.755-2.017-1.979-3.778-3.085-1.988C65.72,88.966,66.007,89.444,66.72,89.444z M64.725,95.555c0.012,2.444,0.24,3.314,0.506,1.931c0.266-1.382,0.256-3.382-0.022-4.444C64.93,91.98,64.712,93.111,64.725,95.555z M63.343,101.666c0.585,0,0.072-1.765-1.14-3.923c-2.624-4.673-2.826-8.622-0.537-10.522c1.99-1.652,2.154-0.751,0.38,2.09c-0.755,1.209-0.92,2.924-0.4,4.152c0.76,1.792,0.998,1.601,1.665-1.339c0.428-1.887,1.105-3.959,1.504-4.606c1.057-1.71-2.604-2.783-4.402-1.291C57.433,88.702,59.892,101.666,63.343,101.666z M323.6,86.959c8.845,0.635,9.863,12.687,17.596,15.404c2.514,0,7.639-4.669,9.527-9.188c0.84-2.01,2.114-3.654,2.831-3.654c0.953,0,0.926,0.455-0.102,1.693c-0.773,0.931-1.128,1.971-0.789,2.31c0.339,0.339,1.754-0.923,3.145-2.805c2.236-3.024,3.171-3.421,8.066-3.421c3.57,0,6.251,0.647,7.548,1.82c1.708,1.546,2.285,1.593,3.828,0.312c2.466-2.047,8.69-4.325,15.747-5.763c9.485-1.933,18.748-11.48,22.002-22.676l1.558-5.36l-0.641,5.49h0c-6.658,42.353-49.594,76.678-80.365,37.456c-4.885-6.226-6.344-10.265-10.174-10.962C320.607,87.113,320.608,87.11,323.6,86.959z M382.014,107.513c-0.43-2.235-3.949-3.244-5.59-1.603c-1.671,1.671,0,3.534,3.168,3.534C381.647,109.444,382.287,108.934,382.014,107.513z M385.184,87.519c0.4,0.647,1.077,2.719,1.504,4.606c0.667,2.939,0.905,3.131,1.665,1.339c0.521-1.228,0.355-2.942-0.4-4.152c-1.774-2.841-1.61-3.742,0.38-2.09c2.289,1.9,2.088,5.849-0.537,10.522c-1.212,2.157-1.725,3.923-1.14,3.923c0.585,0,1.826-1.475,2.759-3.278c2.109-4.078,2.198-10.477,0.169-12.161C387.788,84.736,384.127,85.81,385.184,87.519z M384.725,95.555c0.012,2.444,0.24,3.314,0.506,1.931c0.266-1.382,0.256-3.382-0.022-4.444l0,0C384.93,91.98,384.713,93.111,384.725,95.555z M376.928,98.449c2.976,4.024,4.134,4.067,4.359,0.162h0c0.097-1.681,0.098-3.96,0.002-5.065c-0.096-1.105,0.319-1.704,0.923-1.331c0.628,0.388,0.814-0.059,0.435-1.047c-0.365-0.951-0.081-1.724,0.634-1.724c0.712,0,1-0.478,0.639-1.063c-1.107-1.79-3.84-0.029-3.085,1.988c0.578,1.544,0.41,1.623-1.006,0.473c-0.935-0.759-2.051-1.028-2.48-0.598c-0.43,0.43,0.359,1.641,1.752,2.692c1.398,1.054,2.099,2.319,1.565,2.82c-0.533,0.5-1.174,0.337-1.425-0.362c-0.251-0.699-1.409-1.022-2.573-0.717C374.622,95.212,374.631,95.342,376.928,98.449z M372.986,101.423c2.33,1.134,4.451,1.897,4.713,1.695c0.262-0.202-0.613-1.841-1.945-3.642c-1.331-1.801-2.421-4.082-2.421-5.068c0-3.119-3.855-1.346-4.237,1.949C368.805,98.88,369.428,99.691,372.986,101.423z M361.805,112.24c2.526,1.913,2.243,1.874,4.599,0.632c1.061-0.559,3.679-1.55,5.818-2.202l3.889-1.185l-4.444,0.502c-2.445,0.276-5.29,0.642-6.324,0.813c-1.034,0.171-2.033-0.189-2.222-0.8c-0.189-0.611,2.157-1.408,5.213-1.77l5.556-0.659l-6.424-0.175C360.36,107.203,357.916,109.295,361.805,112.24z M360.358,95c0.895,0,1.915-0.75,2.267-1.667c0.352-0.917,0.37-1.667,0.039-1.667c-0.33,0-1.35,0.75-2.267,1.667C358.952,94.779,358.947,95,360.358,95z M379.098,107.574c-0.802-0.321-1.76-0.282-2.13,0.088c-0.369,0.369,0.287,0.632,1.458,0.584C379.721,108.192,379.984,107.929,379.098,107.574z" />
</svg>
