<svg xmlns="http://www.w3.org/2000/svg" width="450px" height="300px" viewBox="0 0 450 300">
  <path fill="#DC0000" d="M0,0h450v300H0V0z" />
  <path fill="#009B00" d="M0,0h225v150H0V0z" />
  <path fill="#FFFFFF" stroke="#000000" stroke-width="0.562" stroke-miterlimit="3.2" d="M91.084,94.364l56.764-62.792l6.81,6.751L94.911,98.102L91.084,94.364z M87.599,91.081l10.067,10.067l-3.974,3.974L83.625,95.055L87.599,91.081z M75.97,106.093c-1.278-0.672-3.06-0.323-4.34,0.958c-1.28,1.28-1.623,3.069-0.952,4.347l6.767,6.768c1.267,0.58,3.015,0.188,4.251-1.048s1.627-2.982,1.046-4.25L75.97,106.093z" />
  <path fill="#FFFFFF" stroke="#000000" stroke-width="0.562" stroke-miterlimit="3.2" d="M133.916,94.364L77.153,31.572l-6.81,6.751l59.747,59.779L133.916,94.364z M137.401,91.081l-10.067,10.067l3.974,3.974l10.067-10.067L137.401,91.081z M149.03,106.093c1.278-0.672,3.06-0.323,4.34,0.958c1.28,1.28,1.623,3.069,0.952,4.347l-6.767,6.768c-1.267,0.58-3.015,0.188-4.251-1.048c-1.236-1.236-1.627-2.982-1.046-4.25L149.03,106.093z" />
  <path fill="#FFFFFF" stroke="#000000" stroke-width="0.562" stroke-miterlimit="3.2" d="M87.243,94.82c-1.278-0.672-3.06-0.323-4.34,0.958c-1.28,1.28-1.623,3.069-0.952,4.347l6.767,6.768c1.267,0.58,3.015,0.188,4.251-1.048s1.627-2.982,1.046-4.25L87.243,94.82z M137.757,94.82c1.278-0.672,3.06-0.323,4.34,0.958c1.28,1.28,1.623,3.069,0.952,4.347l-6.767,6.768c-1.267,0.58-3.015,0.188-4.251-1.048c-1.236-1.236-1.627-2.982-1.046-4.25L137.757,94.82z" />
  <path fill="#FFFFFF" stroke="#000000" stroke-width="0.562" stroke-miterlimit="3.2" d="M88.079,100.292c-1.716-1.273-6.032,0.914-6.854,1.12c-0.865,0.217-4.899,5.081-4.347,6.382l4.089,4.062c1.3,0.551,6.171-3.489,6.388-4.354c0.212-0.847,2.565-5.342,1.023-6.936C88.346,100.532,88.148,100.315,88.079,100.292z M136.921,100.292c1.716-1.273,6.032,0.914,6.854,1.12c0.865,0.217,4.899,5.081,4.347,6.382l-4.089,4.062c-1.3,0.551-6.171-3.489-6.388-4.354c-0.212-0.847-2.565-5.342-1.023-6.936C136.654,100.532,136.852,100.315,136.921,100.292z" />
</svg>
