<svg xmlns="http://www.w3.org/2000/svg" width="450px" height="300px" viewBox="0 0 450 300">
  <path fill="#002B7F" d="M0,0h450v300H0V0z" />
  <path fill="#FFFFFF" d="M0,50h450v200H0V50z" />
  <path fill="#CE1126" d="M0,100h450v100H0V100z" />
  <path fill="#FFFFFF" d="M125,106.2c20.711,0,37.5,19.61,37.5,43.8s-16.789,43.8-37.5,43.8S87.5,174.19,87.5,150S104.289,106.2,125,106.2z" />
  <path fill="#CEA849" stroke="#000000" stroke-width="0.2307" stroke-linecap="round" stroke-linejoin="round" d="M101.1,144.1l0.8-1.6l-2-0.6l-0.6,1.4L101.1,144.1z M148.9,144.1l-0.8-1.6l2-0.6l0.6,1.4L148.9,144.1z" />
  <path fill="#DBB777" stroke="#000000" stroke-width="0.2307" stroke-linecap="round" stroke-linejoin="round" d="M124.5,124.3l-3.1,0.1c-2,0.2-2.7,0.9-1.5,2.4c-3.2,0.5-6.3,1.2-9.2,2.7c-0.8-0.1-1.7,0.3-2,1.1c-0.2,0.6,0.3,1.3,1.3,1c-0.6,1.7-8.2,1.5-8.4,4.3c0.6-0.5,1.2-0.9,1.8-0.5l-0.4,1.3c-1.1,0.3-1.9,0.5-2.3,1.7c-0.5,1.2-1.2,3.1-1.6,4c-0.3,0.4-0.4,0.9-0.4,1.1c0,0.5,0.4,1.3,1.2,1.3c0.9,0,1.3-0.6,1.3-1.1c0-0.4-0.2-0.8-1.1-0.8c1.6-0.4,2.9,0.2,3.8,0.7c1.3,0.9,1.6,2.7,0.8,4.2c-0.7,1.4-2.5,2.3-5.3,1.2c-2.2-0.9-4.4,0.3-5.2,2.2c-3.3,9,2.5,16.3,9.1,20.6c6.9,4.4,8.1,5.6,9.9,7.8s3.6,4.6,6.3,4.6c0.4,0,0.8-0.1,1.2-0.3c1.7,0,1.8,0.6,4.1,0.7l0,0h0.1h0.1l0,0c2.3,0,2.4-0.7,4.1-0.7c0.4,0.2,0.8,0.3,1.2,0.3c2.7,0,4.5-2.5,6.3-4.6c1.8-2.2,3.1-3.4,9.9-7.8c6.6-4.3,12.4-11.6,9.1-20.6c-0.7-2-3-3.1-5.2-2.2c-2.7,1.1-4.5,0.2-5.3-1.2c-0.7-1.5-0.4-3.3,0.8-4.2c0.9-0.6,2.3-1.1,3.8-0.7c-0.9,0-1.1,0.4-1.1,0.8c0,0.6,0.4,1.1,1.3,1.1c0.9,0,1.2-0.7,1.2-1.3c0-0.2-0.1-0.7-0.4-1.1c-0.5-0.9-1.2-2.8-1.6-4c-0.5-1.2-1.2-1.4-2.3-1.7l-0.4-1.3c0.6-0.4,1.3,0,1.8,0.5c-0.2-2.8-7.8-2.6-8.4-4.3c1,0.3,1.5-0.4,1.3-1c-0.3-0.8-1.2-1.2-2-1.1c-2.9-1.5-6-2.2-9.2-2.7c1.2-1.4,0.5-2.2-1.5-2.4l-3.1-0.1h-0.5H124.5L124.5,124.3z" />
  <path fill="none" stroke="#000000" stroke-width="0.231" d="M121.1,124.4c3,0,2.3,3.6-0.4,3.7c-3.3,0.4-7.4,0.3-9.6,1.2 M103.5,134c2.6-0.7,5.3-0.1,7-0.9c1.7-0.8,2-3.3,0.2-3.6 M119.8,126.7c0.6-0.1,1.2-0.2,1.5-0.4c0.3-0.3,0.4-0.8-0.3-0.9 M110,131.6c0.6-0.9,0.4-1.6-0.4-1.1 M128.9,124.4c-3,0-2.3,3.6,0.4,3.7c3.3,0.4,7.4,0.3,9.6,1.2 M146.5,134c-2.6-0.7-5.3-0.1-7-0.9c-1.7-0.8-2-3.3-0.2-3.6 M130.2,126.7c-0.6-0.1-1.2-0.2-1.5-0.4c-0.3-0.3-0.4-0.8,0.3-0.9 M140,131.6c-0.6-0.9-0.4-1.6,0.4-1.1 M109.8,174.3c4.8,3.4,5.4,7.7,10.4,7.9 M120.2,183c-2.9,0.6-4.8-1-7.1-4.4c-1.2-1.7-4.2-4.2-9.4-7.4c-8.2-5.1-10.6-14.1-8-19c0.7-1.2,2.3-1.7,3.3-1.4c2.5,0.7,6.8,0,6.8-4.1c0-2.3-1.9-5-4.3-5c-1.5,0-2.3,0.5-2.7,1 M119.9,181.2c0-0.2,0.2-0.5,0.5-0.5s0.5,0.2,0.5,0.6c0,0.7-0.4,1-1.2,0.9c-0.7-0.1-1-0.9-0.7-1.6c0.3-0.7,1.2-1.2,2.3-0.7c1,0.5,0.9,2,0.6,2.9c-0.2,0.5-0.6,1-1.1,1.2 M140.2,174.3c-4.8,3.4-5.4,7.7-10.4,7.9 M129.8,183c2.9,0.6,4.8-1,7.1-4.4c1.2-1.7,4.2-4.2,9.4-7.4c8.2-5.1,10.6-14.1,8-19c-0.7-1.2-2.3-1.7-3.3-1.4c-2.5,0.7-6.8,0-6.8-4.1c0-2.3,1.9-5,4.3-5c1.5,0,2.3,0.5,2.7,1 M131.1,181.1c0-2-3.4-2.7-6.1-2.7c-2.6,0-6.1,0.6-6.1,2.7 M130.1,181.2c0-0.2-0.2-0.5-0.5-0.5s-0.5,0.2-0.5,0.6c0,0.7,0.4,1,1.2,0.9c0.7-0.1,1-0.9,0.7-1.6c-0.3-0.7-1.2-1.2-2.3-0.7c-1,0.5-0.9,2-0.6,2.9c0.2,0.5,0.6,1,1.1,1.2 M128.4,183.2c-1.4,0-1.3,1.5-3.4,1.5c-2,0-2-1.5-3.3-1.5" />
  <path fill="#825123" stroke="#000000" stroke-width="0.2307" d="M104.8,138.2c0.2,0,0.3,0,0.5,0.1c0.3,0.1,0.5,0.3,0.6,0.6l0,0c2.5,6.8,1.1,9.7-1,14.1c-3.2,6.4-0.9,15.8,6.2,19.9c3.5,2,6.1,2.7,8.2,3.2c1,0.3,1.9,0.5,2.6,0.8s1.4,0.8,1.9,1.5c-0.7,0.1-1.9,0.2-2.4,0.4c-0.8-1-2.9-2-5-2.7s-4.4-1.2-5.6-1.5l0,0c-3.9-1.1-7.6-3.7-10.4-7c-2.9-3.4-4.4-8.2-3.8-12.9c0.1-1.1,0.6-1.8,1.2-2.1c0.6-0.4,1.4-0.4,2.2-0.4c1.5,0.1,3-0.3,4.3-1.2c1.7-1.1,2.4-3,2.4-5s-0.8-4.2-2-5.9c-0.4-0.6-0.6-1-0.6-1.4c0-0.3,0.2-0.6,0.5-0.6c0.1,0,0.1,0,0.2,0C104.7,138.2,104.8,138.2,104.8,138.2L104.8,138.2z M145.2,138.2c-0.2,0-0.3,0-0.5,0.1c-0.3,0.1-0.5,0.3-0.6,0.6l0,0c-2.5,6.8-1.1,9.7,1,14.1c3.2,6.4,0.9,15.8-6.2,19.9c-3.5,2-6.1,2.7-8.2,3.2c-1,0.3-1.9,0.5-2.6,0.8c-0.7,0.3-1.4,0.8-1.9,1.5c0.7,0.1,1.9,0.2,2.4,0.4c0.8-1,2.9-2,5-2.7s4.4-1.2,5.6-1.5l0,0c3.9-1.1,7.6-3.7,10.4-7c2.9-3.4,4.4-8.2,3.8-12.9c-0.1-1.1-0.6-1.8-1.2-2.1c-0.6-0.4-1.4-0.4-2.2-0.4c-1.5,0.1-3-0.3-4.3-1.2c-1.7-1.1-2.4-3-2.4-5s0.8-4.2,2-5.9c0.4-0.6,0.6-1,0.6-1.4c0-0.3-0.2-0.6-0.5-0.6c-0.1,0-0.1,0-0.2,0C145.3,138.2,145.2,138.2,145.2,138.2L145.2,138.2z" />
  <path fill="#E0B85F" stroke="#000000" stroke-width="0.1538" d="M125.5,183.5c0,0.6-0.9,0.6-0.9,0C124.6,182.8,125.5,182.8,125.5,183.5z M123.2,181.2c-0.6,0-0.6,0.9,0,0.9C123.8,182.1,123.8,181.2,123.2,181.2z M126.8,181.2c-0.6,0-0.6,0.9,0,0.9S127.4,181.2,126.8,181.2z M125,180.9c-1,0-1,1.5,0,1.5S126,180.9,125,180.9z M125.5,179.9c0-0.6-0.9-0.6-0.9,0S125.5,180.5,125.5,179.9z M98.6,154.6c1.2,0,1.2-1.8,0-1.8S97.4,154.6,98.6,154.6z M100.8,154.5c1.2,0,1.2-1.8,0-1.8C99.6,152.7,99.6,154.5,100.8,154.5z M103,154.6c1.2,0,1.2-1.8,0-1.8S101.8,154.6,103,154.6z M97.8,156.5c1.2,0,1.2-1.8,0-1.8C96.6,154.8,96.6,156.5,97.8,156.5z M99.9,156.5c1.2,0,1.2-1.8,0-1.8C98.8,154.8,98.8,156.5,99.9,156.5z M102.1,154.8c-1.2,0-1.2,1.8,0,1.8C103.3,156.5,103.3,154.8,102.1,154.8z M97.7,156.8c-1.2,0-1.2,1.8,0,1.8C98.9,158.6,98.9,156.8,97.7,156.8z M99.7,158.5c1.2,0,1.2-1.8,0-1.8C98.6,156.7,98.6,158.5,99.7,158.5z M101.9,158.5c1.2,0,1.2-1.8,0-1.8C100.7,156.7,100.7,158.5,101.9,158.5z M98,158.9c-1.1,0-1.1,1.7,0,1.7C99.1,160.6,99.1,158.9,98,158.9z M100.1,160.6c1.1,0,1.1-1.7,0-1.7C98.9,158.9,98.9,160.6,100.1,160.6z M102.1,158.9c-1.1,0-1.1,1.7,0,1.7S103.3,158.9,102.1,158.9z M98.4,161.1c-1.1,0-1,1.6,0.1,1.6S99.5,161,98.4,161.1z M100.4,162.4c1.1,0,1-1.6-0.1-1.6C99.2,160.9,99.3,162.5,100.4,162.4z M102.3,160.8c-1.1,0-1,1.6,0.1,1.6C103.4,162.3,103.4,160.7,102.3,160.8z M99.2,162.9c-1,0.1-0.9,1.6,0.1,1.5C100.3,164.4,100.2,162.9,99.2,162.9z M101,164.1c1-0.1,0.9-1.5-0.1-1.4C99.9,162.8,100,164.2,101,164.1z M102.7,162.6c-0.8,0-0.7,1.2,0.1,1.2C103.6,163.7,103.5,162.6,102.7,162.6z M100,164.6c-1,0.1-0.9,1.5,0.1,1.4C101,166,100.9,164.5,100,164.6z M101.7,165.4c0.8-0.1,0.7-1.3-0.1-1.2S100.9,165.5,101.7,165.4z M103.2,164c-0.7,0-0.6,1,0.1,1C103.9,165,103.8,164,103.2,164z M100.7,166.1c-0.9,0.2-0.6,1.5,0.3,1.3C101.8,167.2,101.5,165.9,100.7,166.1z M102.3,166.6c0.7-0.2,0.5-1.3-0.2-1.1C101.4,165.7,101.6,166.8,102.3,166.6z M103.5,165.1c-0.6,0.1-0.4,1.1,0.2,0.9C104.3,165.9,104.1,165,103.5,165.1z M101.6,167.5c-0.8,0.3-0.4,1.4,0.4,1.2C102.8,168.4,102.4,167.2,101.6,167.5z M103.2,167.7c0.7-0.2,0.3-1.2-0.3-1C102.2,167,102.6,168,103.2,167.7z M104.4,167.1c0.5-0.2,0.2-1-0.3-0.8C103.6,166.4,103.9,167.3,104.4,167.1z M102.4,168.6c-0.7,0.3-0.2,1.3,0.5,1S103.1,168.3,102.4,168.6z M103.9,168.7c0.6-0.2,0.2-1.1-0.4-0.8C103,168.1,103.4,169,103.9,168.7z M104.6,167.3c-0.5,0.2-0.1,0.9,0.3,0.7C105.4,167.8,105.1,167.1,104.6,167.3z M103.5,169.6c-0.6,0.3-0.1,1.2,0.4,0.8C104.5,170.1,104,169.3,103.5,169.6z M104.7,169.6c0.5-0.2,0.1-1-0.4-0.7C103.9,169.1,104.3,169.9,104.7,169.6z M105.5,169c0.4-0.2,0.1-0.8-0.3-0.6C104.9,168.6,105.2,169.2,105.5,169z M104.3,170.4c-0.5,0.3,0,1.1,0.5,0.7C105.3,170.8,104.8,170.1,104.3,170.4z M105.5,170.3c0.4-0.3,0-0.9-0.4-0.6C104.7,170,105.1,170.6,105.5,170.3z M106.2,169.7c0.3-0.2,0-0.7-0.3-0.5C105.5,169.4,105.8,169.9,106.2,169.7z M105.2,171.1c-0.5,0.3,0,1.1,0.5,0.7C106.1,171.5,105.7,170.8,105.2,171.1z M106.3,171c0.4-0.3,0-0.9-0.4-0.6C105.5,170.7,105.9,171.3,106.3,171z M106.9,170.4c0.3-0.2,0-0.8-0.3-0.5C106.2,170.1,106.6,170.6,106.9,170.4z M107.5,171c0.3-0.2,0-0.7-0.3-0.5C106.9,170.8,107.2,171.2,107.5,171z M107,171.7c0.3-0.2,0-0.7-0.3-0.5C106.3,171.4,106.7,171.9,107,171.7z M106.1,171.8c-0.4,0.2,0,0.8,0.4,0.6C106.8,172.1,106.4,171.5,106.1,171.8z M108.2,171.7c0.3-0.2,0-0.6-0.3-0.4C107.7,171.5,107.9,171.9,108.2,171.7z M107.8,172.3c0.3-0.2,0-0.7-0.3-0.5C107.2,172.1,107.5,172.5,107.8,172.3z M107,172.4c-0.3,0.2,0,0.7,0.3,0.5C107.6,172.6,107.3,172.1,107,172.4z M108.9,172.2c0.2-0.2,0-0.6-0.3-0.4C108.4,171.9,108.6,172.4,108.9,172.2z M108.5,172.7c0.3-0.2,0-0.6-0.3-0.4C107.9,172.5,108.2,172.9,108.5,172.7z M107.7,172.9c-0.3,0.2,0,0.7,0.3,0.4C108.3,173.1,108,172.6,107.7,172.9z M109.4,172.6c0.2-0.2,0-0.5-0.3-0.4C108.9,172.4,109.2,172.8,109.4,172.6z M108.8,172.7c-0.3,0.2,0,0.6,0.3,0.4C109.3,172.9,109.1,172.5,108.8,172.7z M108.5,173.2c-0.3,0.2,0,0.6,0.3,0.4C109,173.4,108.7,173,108.5,173.2z M110,172.9c0.2-0.2-0.1-0.5-0.2-0.3C109.5,172.7,109.8,173,110,172.9z M109.4,173.1c-0.2,0.2,0.1,0.5,0.3,0.3C109.9,173.2,109.6,172.9,109.4,173.1z M109.1,173.5c-0.2,0.2,0.1,0.5,0.3,0.3C109.7,173.7,109.4,173.3,109.1,173.5z M110.5,173.1c0.2-0.2-0.1-0.4-0.2-0.3C110.1,173,110.4,173.3,110.5,173.1z M110.1,173.3c-0.2,0.2,0.1,0.5,0.3,0.3C110.5,173.4,110.3,173.1,110.1,173.3z M109.8,173.8c-0.2,0.2,0.1,0.5,0.3,0.3C110.3,173.9,110,173.6,109.8,173.8z M110.8,173.2c-0.1,0.2,0.1,0.4,0.2,0.2C111.2,173.3,111,173,110.8,173.2z M110.6,173.6c-0.2,0.2,0.1,0.4,0.3,0.2C111,173.7,110.8,173.4,110.6,173.6z M110.4,174c-0.2,0.2,0.1,0.4,0.3,0.2C110.9,174.1,110.6,173.8,110.4,174z M104.2,152.8c0.8,0,0.8-1.2,0-1.2C103.4,151.6,103.4,152.8,104.2,152.8z M151.4,154.6c1.2,0,1.2-1.8,0-1.8S150.2,154.6,151.4,154.6z M149.2,154.5c1.2,0,1.2-1.8,0-1.8S148,154.5,149.2,154.5z M147,154.6c1.2,0,1.2-1.8,0-1.8S145.9,154.6,147,154.6z M152.2,156.5c1.2,0,1.2-1.8,0-1.8C151,154.8,151.1,156.5,152.2,156.5z M150.1,156.5c1.2,0,1.2-1.8,0-1.8C148.9,154.8,148.9,156.5,150.1,156.5z M147.9,154.8c-1.2,0-1.2,1.8,0,1.8C149,156.5,149,154.8,147.9,154.8z M152.3,156.8c-1.2,0-1.2,1.8,0,1.8S153.5,156.8,152.3,156.8z M150.3,156.7c-1.2,0-1.2,1.8,0,1.8S151.4,156.7,150.3,156.7z M148.1,156.7c-1.2,0-1.2,1.8,0,1.8C149.2,158.5,149.2,156.7,148.1,156.7z M152,158.9c-1.1,0-1.1,1.7,0,1.7C153.1,160.6,153.1,158.9,152,158.9z M150,158.9c-1.1,0-1.1,1.7,0,1.7C151.1,160.6,151.1,158.9,150,158.9z M147.9,160.6c1.1,0,1.1-1.7,0-1.7C146.7,158.9,146.8,160.6,147.9,160.6z M151.6,161.1c-1.1-0.1-1.1,1.5-0.1,1.6C152.6,162.7,152.6,161.1,151.6,161.1z M149.7,160.9c-1.1,0-1.1,1.5-0.1,1.6C150.7,162.5,150.8,160.9,149.7,160.9z M147.6,162.3c1.1,0,1.1-1.5,0.1-1.6C146.6,160.7,146.6,162.3,147.6,162.3z M150.8,162.9c-1-0.1-1.1,1.4-0.1,1.5S151.8,163,150.8,162.9z M149.1,162.7c-1-0.1-1.1,1.4-0.1,1.4C150,164.2,150.1,162.8,149.1,162.7z M147.2,163.8c0.8,0.1,0.8-1.1,0.1-1.2C146.5,162.6,146.4,163.7,147.2,163.8z M150,164.6c-1-0.1-1.1,1.4-0.1,1.4C150.9,166.1,151,164.7,150,164.6z M148.4,164.2c-0.8-0.1-0.9,1.2-0.1,1.2C149.1,165.5,149.2,164.3,148.4,164.2z M146.8,165c0.7,0,0.7-1,0.1-1C146.2,164,146.1,165,146.8,165z M149.4,166.1c-0.9-0.2-1.2,1.1-0.3,1.3C149.9,167.6,150.2,166.3,149.4,166.1z M147.9,165.5c-0.7-0.2-1,0.9-0.2,1.1C148.4,166.8,148.6,165.7,147.9,165.5z M146.3,166c0.6,0.2,0.8-0.8,0.2-0.9C145.9,165,145.7,165.9,146.3,166z M148.4,167.5c-0.8-0.3-1.2,0.9-0.4,1.2C148.8,168.9,149.2,167.7,148.4,167.5z M147.1,166.8c-0.7-0.2-1,0.8-0.3,1C147.4,168,147.8,167,147.1,166.8z M145.6,167.1c0.5,0.2,0.8-0.6,0.3-0.8C145.4,166,145.1,166.9,145.6,167.1z M147.6,168.6c-0.7-0.3-1.2,0.7-0.5,1C147.8,170,148.3,168.9,147.6,168.6z M146.1,168.7c0.6,0.3,1-0.6,0.4-0.8C145.9,167.6,145.5,168.5,146.1,168.7z M145.1,168c0.5,0.2,0.8-0.5,0.3-0.7C144.9,167.1,144.6,167.8,145.1,168z M146.6,169.6c-0.6-0.3-1,0.6-0.4,0.8C146.7,170.7,147.1,169.9,146.6,169.6z M145.3,169.6c0.5,0.3,0.8-0.5,0.4-0.7C145.2,168.7,144.8,169.4,145.3,169.6z M144.5,169c0.4,0.2,0.7-0.4,0.3-0.6C144.4,168.1,144.1,168.8,144.5,169z M145.7,170.4c-0.5-0.3-1,0.4-0.5,0.7C145.7,171.5,146.2,170.7,145.7,170.4z M144.9,169.7c-0.4-0.3-0.8,0.3-0.4,0.6C144.9,170.6,145.3,170,144.9,169.7z M143.8,169.7c0.3,0.2,0.7-0.3,0.3-0.5C143.8,168.9,143.5,169.4,143.8,169.7z M144.8,171.1c-0.5-0.3-1,0.4-0.5,0.7C144.8,172.2,145.3,171.4,144.8,171.1z M144.1,170.4c-0.4-0.3-0.8,0.3-0.4,0.6C144.1,171.3,144.5,170.7,144.1,170.4z M143.1,170.4c0.3,0.2,0.7-0.3,0.3-0.5C143.1,169.6,142.8,170.1,143.1,170.4z M142.5,171c0.3,0.2,0.6-0.3,0.3-0.5C142.5,170.4,142.2,170.8,142.5,171z M143.3,171.2c-0.3-0.2-0.7,0.3-0.3,0.5C143.3,171.9,143.7,171.4,143.3,171.2z M143.6,172.4c0.4,0.3,0.7-0.3,0.4-0.6C143.6,171.5,143.2,172.1,143.6,172.4z M142.1,171.3c-0.3-0.2-0.6,0.2-0.3,0.4S142.4,171.5,142.1,171.3z M142.5,171.8c-0.3-0.2-0.6,0.3-0.3,0.5S142.8,172.1,142.5,171.8z M143,172.4c-0.3-0.2-0.7,0.3-0.3,0.5C143,173.1,143.4,172.6,143,172.4z M141.4,171.8c-0.3-0.2-0.5,0.2-0.3,0.4C141.4,172.4,141.6,171.9,141.4,171.8z M141.8,172.3c-0.3-0.2-0.6,0.2-0.3,0.4S142.1,172.5,141.8,172.3z M142.3,172.9c-0.3-0.2-0.6,0.2-0.3,0.4C142.3,173.5,142.6,173.1,142.3,172.9z M140.8,172.2c-0.2-0.2-0.5,0.2-0.3,0.4C140.8,172.8,141.1,172.4,140.8,172.2z M141.2,172.7c-0.2-0.2-0.5,0.2-0.3,0.4C141.2,173.3,141.4,172.9,141.2,172.7z M141.2,173.6c0.3,0.2,0.6-0.2,0.3-0.4C141.3,173,141,173.4,141.2,173.6z M140.3,172.6c-0.2-0.2-0.4,0.1-0.2,0.3C140.2,173,140.5,172.7,140.3,172.6z M140.6,173.1c-0.2-0.2-0.5,0.1-0.3,0.3S140.8,173.2,140.6,173.1z M140.6,173.9c0.2,0.2,0.5-0.1,0.3-0.3C140.6,173.3,140.3,173.7,140.6,173.9z M139.7,172.9c-0.2-0.2-0.4,0.1-0.2,0.3C139.6,173.3,139.9,173,139.7,172.9z M139.9,173.3c-0.2-0.2-0.5,0.1-0.3,0.3C139.8,173.8,140.1,173.5,139.9,173.3z M139.9,174.1c0.2,0.2,0.5-0.1,0.3-0.3S139.7,173.9,139.9,174.1z M139.2,173.2c-0.2-0.2-0.4,0.1-0.2,0.2C139.1,173.6,139.3,173.3,139.2,173.2z M139.4,173.6c-0.2-0.2-0.4,0.1-0.2,0.2C139.3,174,139.5,173.8,139.4,173.6z M139.3,174.3c0.2,0.2,0.4-0.1,0.3-0.2C139.4,173.8,139.1,174.1,139.3,174.3z M145.8,152.8c0.8,0,0.8-1.2,0-1.2S145,152.8,145.8,152.8z" />
  <path fill="#89C5E3" stroke="#000000" stroke-width="4.294577e-05" d="M107,150.6c0.9-2.9,1.3-6.6,0.1-11.4c5.4-3.5,9.2-6.7,18-6.7s12.9,2.4,18,6.7c-1.2,4.8-0.8,8.5,0.1,11.4H107" />
  <path fill="#FCDD09" d="M111.1,143.5l-0.4,4.4l0,0l-1.6-4.3l0.7,4.6l0,0l-1.7-2.3l1,2.7l-1.3-0.9l0.8,1.4l0,0l-0.9-0.1l0.6,0.8c-0.1,0.3-0.2,0.7-0.2,1l0,0h6l0,0c0-0.4-0.1-0.7-0.2-1l1.2-1.1l-1.5,0.5c0,0,0,0,0-0.1c0.2-0.3,2.5-3,2.4-3s-2.8,2.3-2.9,2.4l0,0l2.1-4.7l-3,4.2l0,0l0.9-4.5l-1.6,4.3L111.1,143.5L111.1,143.5z" />
  <path fill="#0F47AF" stroke="#000000" stroke-width="4.294577e-05" d="M107,150.6c-0.5,1.6-1.1,3-1.6,4.1c-1.4,3.1-1.6,10.2,3.4,15.2c7.4,7.4,13.1,4.4,16,8.5h0.6c2.8-4.1,8.5-1.1,16-8.5c5-5,4.8-12.2,3.4-15.2c-0.5-1.2-1.1-2.5-1.6-4.1H107" />
  <path fill="#FFFFFF" d="M117.9,143.7c-0.1-0.4-1.1-0.3-1-1c-0.6-0.1-0.5-1.3,0.7-1.2c0.1-0.2,1.6-0.8,1.4,0c0.7-0.6,1.3-0.1,0.9,0.2c0.3,0.3,0.4,0.9-0.4,0.9c0.3,0.6-0.4,0.6-1,0.4c0,0.2,0,0.4-0.3,0.3c-0.2,0.1,0,0.3,0,0.4L117.9,143.7z M131.3,144.2c0-0.5-1-0.4-1-1c-0.5-0.1-0.5-1.2,0.6-1.1c-0.1-0.3,1.5-0.7,1.4,0c0.5-0.6,1.1,0,0.8,0.2c0.3,0.3,0.6,0.7-0.4,0.8c0.4,0.4-0.4,0.5-0.9,0.4c0,0.2-0.1,0.3-0.4,0.2c-0.2,0.1,0.1,0.4,0.1,0.5C131.5,144.2,131.3,144.2,131.3,144.2z M139,146c0.1-0.4-0.8-0.4-0.8-0.8c-0.4-0.1-0.4-0.9,0.5-0.9c0-0.2,1.1-0.7,1-0.1c0.4-0.4,0.9,0,0.6,0.2c0.2,0.2,0.5,0.6-0.3,0.6c0.3,0.3-0.3,0.4-0.7,0.3c0,0.2,0,0.2-0.3,0.2c-0.1,0.1,0.2,0.3,0.2,0.4L139,146L139,146z" />
  <path fill="#509164" stroke="#000000" stroke-width="0.1538" d="M135.9,153.6c0.2-1.2,1.2-2.2,1.3-3.2c0.1-0.8,0.3-1.2,0.7-2s0.7-1.3,0.8-1.9c0.2-0.8,0.7-0.9,1-0.2c0.3,0.8,0.8,2.8,1,3.2c0.3,0.5,0.5,1.1,0.5,1.4c0,0.3,0.3,0.4,0.6,0.7c0.2,0.2,0.3,0.9,0.9,1.6c0.7,0.6,1.4,1.1,2,1.4c0.6,1.2,0.9,3.1,0.8,5.3h-41.1c0-0.6,0-1.1,0-1.7c3.6-0.9,5-3.3,6.6-3.2c0.8-1.2,1.9-2.4,2.6-3.1c0.8-0.8,2.5-3.8,2.9-5.6s1-2.8,1.5-2.7s0.7,0.2,1.2,1.9c0.8,2.3,1.3,2.6,1.9,4.2c0.5,1.4,1.6,4,3.2,5.3c1-0.8,2.2-1.6,2.6-2.2c0.3-0.5,0.8-1.3,1.4-1.7c0.3-0.8,0.6-2.1,0.8-2.4c0.3-0.3,0.4-0.6,0.4-1.1s0.4-1.6,1-2.6c0.6-0.9,1.3-1.2,1.6,0s1,3.8,1.7,5.3c0.3,0.7,0.8,2,2,3.3l0.1,0.2C135.9,153.7,135.9,153.7,135.9,153.6L135.9,153.6z" />
  <path fill="#034418" d="M131.2,157.9c-0.8-0.7-2-0.6-2.6-1.2c-0.6-0.6-1.6-0.2-3.6-1.2c-0.3-0.1-0.5-0.3-0.8-0.5c-1.6-1.3-2.7-3.9-3.2-5.3c-0.6-1.6-1.1-1.9-1.9-4.2c-0.4-1.2-0.6-1.6-0.9-1.7c0.7,0.8,0.3,2,0.9,3.2c0.2,0.5-0.2,0.5-0.3,0.3c-0.1-0.2-0.4-0.2-0.6-0.2c0.3,0.3,0.3,0.9,0.6,1.6c0.3,0.7-0.2,0.6,0.4,1.6c0.2,0.3,0.2,0.7,0,0.8c-0.3,0.2-0.4-0.5-0.8-0.2c0.1,0.2,0.5,0.7,0.8,0.9c0.3,0.3,0,0.4-0.2,0.3c-0.2-0.1-0.6-0.2-0.7-0.4c0,0.2,0.2,0.4,0.6,0.7c0.3,0.3,0.1,0.5-0.7,0.5c0.1,0.2,0.1,0.6-0.3,0.7c0.5,0,0.9,0.9,1.5,1c0.6,0,0.7,0.5,0.1,0.6s-1.8-0.8-2.4-1.4c-0.2,0.2-0.5,0.3-0.7,0.2c0,0.3,0.1,1,0.3,1.4c-0.3-0.1-0.7-0.5-1-1c-0.4-0.4-0.6,0.2-0.3,0.6c0.3,0.4,0.5,0.7,0,1s-0.8,0.2-1.2-0.3c-0.5,0.4-0.7,0.5-1.1,0.4c0,0.2-0.4,0.8-0.6,1.3C112.1,158.1,131.8,159.9,131.2,157.9 M145.4,158c-5.2-0.4-8-2.4-9.6-4.4c-1.2-1.3-1.7-2.7-2-3.3c-0.7-1.6-1.4-4.1-1.7-5.3c-0.1-0.4-0.3-0.6-0.4-0.7c-0.3-0.1-0.1,0.3,0.1,0.6c0.2,0.2,0.2,0.4-0.1,0.3s-0.4,0.2-0.2,0.5c0.2,0.4,0.6,0.8,0.7,1.2c0.1,0.4,0.1,0.7,0.3,0.9s-0.5,0.2-0.8-0.2c0,0.3,0.1,0.7,0.3,0.7s0.2,0.1,0,0.6c-0.3,0.4-0.2,0.6-0.1,0.8c0.1,0.3,0.5-0.9,0.7-0.2c0.1,0.3,0.3,0.7,0.4,1s0.2,0.4-0.1,0.4s-0.4-0.6-0.5-0.1c0,0.5,0.4,0.7,0.8,0.6c0.4,0,0.4,0.1,0.4,0.3s0.1,0.4,0.3,0.4c0.2-0.1,0.5,0.1,0.7,0.6s-0.1,0.7-0.6,0.4c-0.4-0.4-1.1-0.7-1.1-1c0-0.2-0.2,0.1,0,0.4c0.2,0.3,0.3,0.5,0.5,0.6s0,0.6-0.4,0.3s-0.6-0.2-0.7,0.1c-0.2,0.6-0.8,0.4-0.6,0.7s0.1,0.8-0.2,0.9c-0.3,0.1-0.6-0.1-0.6-0.6c-0.1,0.1-0.4,0.2-0.6,0.1c0,0.7-0.2,1-0.7,0.8c0,0.2,0,0.4-0.3,0.7c0.5-0.1,0.6,0.3,0.6,0.5s0.1,0.2,0.4,0.2c0.3,0,0.6,0.4,0.1,0.3c-0.5-0.1-1.3,0.1-1.8-0.2c0.5,0.4,1.8,0.4,2.4,1c4.1,1.7,11.4,2.3,14.3,1.5c0-0.3,0-1.1-0.1-1.4 M139.4,145.9c0.1,0.1,0.2,0.2,0.3,0.5c0.3,0.8,0.8,2.8,1,3.2c0.3,0.5,0.5,1.1,0.5,1.4c0,0.3,0.3,0.4,0.6,0.7c0.2,0.2,0.3,0.9,0.9,1.6c0.7,0.6,1.4,1.1,2,1.4c0.4,0.8,0.7,2,0.8,3.3c-1.8-0.1-4-0.7-5.1-1.2c0-0.2,0-0.4,0-0.7c-0.1-0.3,0-0.6,0.3-0.8c0.3-0.3,0.2-0.8,0-1.1s-0.2-0.4,0-0.6c0.1-0.2,0.1-0.4-0.2-0.7s-0.1-0.6,0.1-0.9c0.2-0.3,0.4-0.7,0.3-1.3c-0.2-0.6-0.5,0.1-0.7-0.1c-0.2-0.2-0.2-0.4-0.1-0.7c0.2-0.2,0.1-0.7-0.1-1c0.4-0.1-0.3-1.4-0.4-1.9C139.4,146.4,139.6,146.1,139.4,145.9" />
  <path fill="#509164" d="M120.5,150.8c0,0.3-0.1,0.7-0.2,0.8c0.2,0.3,0.4,0.9,0.4,1c0.2-0.2,0.7,0,0.8,0.6c0.1,0.6,0.2,1.2,0.2,1.6c0.2,0.2,0.7,0.5,0.7,0.8c0.1,0.3,0.3,0.3,0.5,0.2c0.7-0.1,0.6,0.7,1.4,0.6c1-0.2,0.4,0.7,1.4,0.6c0.6,0,1.4,0.1,1.8,0.7c0.5-0.6,0.9-0.4,1.3-0.2s0.9,0.1,0.5-0.2c-0.5-0.3-1.4-0.4-1.8-0.3c-0.4,0.1-1,0-1.5-0.4c-0.4-0.4-1.2-0.7-1.6-0.7s-0.6,0-0.9-0.6c-0.3-0.5-0.9-0.4-1.1-0.5c-0.3,0-0.4-0.3-0.2-0.7c0.4-0.5-0.2-0.5,0-0.8s0.1-0.7-0.5-0.7s-0.4-0.2-0.3-0.7C121.8,151.1,120.4,151.3,120.5,150.8 M144,156.1c0.1-0.6-0.4-0.9-0.5-1.3c-0.1-0.5-0.8-0.5-1-0.3c0.1,0.1,0,0.4-0.1,0.5s-0.1,0.2,0.1,0.3c0.2,0,0.4,0.1,0.4,0.2c0,0.2,0.1,0,0.2-0.2c0.1-0.2,0.6,0.2,0.6,0.6C143.7,156.3,143.9,156.6,144,156.1 M141.6,155.5c0.1,0.2,0.4,0.5,0.6,0.5s0.4,0.1,0.5,0.3c0,0.2,0.2,0.4,0.4,0.5c0.2,0,0.1,0.2-0.2,0.2s-0.6-0.2-0.7-0.3c0.1,0.4,0,0.5-0.3,0.3c-0.2-0.2-0.3-0.6-0.6-0.7c0.2,0,0.3-0.1,0.2-0.3C141.4,155.7,141.5,155.1,141.6,155.5" />
  <path fill="#078930" stroke="#000000" stroke-width="0.1538" d="M104.5,159.2c0.5-0.2,1.2-0.2,1.5,0.1c0.2-0.3,0.4-0.5,0.8-0.4c0.4-0.4,0.7-0.6,0.9-0.4c0.2-0.4,0.9-0.5,1.2-0.2c0.2-0.4,0.8-0.6,1.1-0.4c0.4-0.6,1.2-0.8,1.7-0.5c0.4-0.3,0.9-0.2,1.1,0s0.7-0.2,0.8,0.2c0.3-0.1,0.9-0.1,1,0.2c0.1-0.2,0.3-0.3,0.5-0.2c0-0.7,0.5-1.2,1.2-1c0.3-0.5,0.9-0.7,1.2-0.5c0.3-0.3,0.9-0.1,1.1,0.3c0.6,0,0.8,0.2,1.1,0.7c0.3,0.5,1.1,0.8,1.6,0.6s1-0.3,1.2,0c0.3-0.3,0.7-0.2,0.9,0c0.4,0.3,0.7-0.2,0.9,0c0.3,0.3,0.6-0.3,1.2,0s1.7,0.9,2.6,0.9c0.9,0,1.6-1.1,2.1-0.3c0.6-0.4,1.4-0.6,2-0.2c0.3-0.3,1.1-0.4,1.4-0.1c0.3-0.5,0.9-0.8,1.4-0.6c0.3-0.5,1.4-0.6,1.8,0.1c0.3,0,0.7,0.2,0.7,0.6c0.3,0,0.7,0.2,0.7,0.5c0.3-0.1,0.7,0.1,0.8,0.5c0.6,0,1.1,0.2,1.4,0.7c0.2-0.2,0.1-0.6,0.6-0.7c0.5-0.1,0.6,0.1,0.8,0.2c0.5-0.4,1.2-0.3,1.9,0.2c0.4-0.2,0.9-0.1,1,0.1c0.2-0.2,0.5-0.2,0.8-0.2c0,1-0.1,2.1-0.3,3.2h-40.4C104.5,161.4,104.4,160.3,104.5,159.2" />
  <path fill="#FFFFFF" d="M125,136.1l-0.4,1.3h-1.4l1.1,0.8l-0.4,1.3l1.1-0.8l1.1,0.8l-0.4-1.3l1.1-0.8h-1.4L125,136.1 M119.8,136.5l-0.2,1.3l-1.3,0.2l1.2,0.6l-0.2,1.3l1-1l1.2,0.6l-0.6-1.2l1-1l-1.3,0.2L119.8,136.5 M114.7,137.8v1.4l-1.3,0.4l1.3,0.4v1.4l0.8-1.1l1.3,0.4l-0.8-1.1l0.8-1.1l-1.3,0.4L114.7,137.8 M109.9,139.9l0.2,1.3l-1.2,0.6l1.4,0.2l0.2,1.3l0.6-1.2l1.3,0.2l-1-1l0.6-1.2l-1.2,0.6L109.9,139.9 M130.2,136.5l0.2,1.3l1.3,0.2l-1.2,0.6l0.2,1.3l-1-1l-1.2,0.6l0.6-1.2l-1-1l1.3,0.2L130.2,136.5 M135.3,137.8v1.4l1.3,0.4l-1.3,0.4v1.4l-0.8-1.1l-1.3,0.4l0.8-1.1l-0.8-1.1l1.3,0.4L135.3,137.8 M140.1,139.9l-0.2,1.3l1.2,0.6l-1.4,0.2l-0.2,1.3l-0.6-1.2l-1.3,0.2l1-1l-0.6-1.2l1.2,0.6L140.1,139.9" />
  <path fill="none" stroke="#000000" stroke-width="0.25" d="M143,139.1c-1.9,7.5,0.2,12.2,1.7,15.5c1.4,3.1,1.6,10.2-3.4,15.2c-7.4,7.4-13.1,4.4-16,8.5 M124.7,178.4c-2.8-4.1-8.5-1.1-16-8.5c-5-5-4.8-12.2-3.4-15.2c1.5-3.3,3.6-8,1.7-15.5" />
  <g>
    <path fill="#704D25" stroke="#000000" stroke-width="0.1538" stroke-linecap="round" stroke-linejoin="round" d="	M122.7,169l0.2-10c0-0.5,0.1-0.6,0.1,0v10.1 M126.1,169l0.2-10c0-0.5,0.1-0.6,0.1,0v10.1 M129.3,169.5l0.2-10c0-0.5,0.1-0.6,0.1,0	v10.1" />
    <path fill="#704D25" stroke="#000000" stroke-width="0.154" d="M130.5,170.7c-0.3,0-0.8-0.2-0.9-0.4	c-0.2,0.2-1.3,0.4-1.7,0c-0.3,0.2-1.2,0.4-1.6,0.1c-0.4,0.3-1.4,0.3-2,0c-0.2,0.2-0.9,0.4-1.2,0.4c-0.5-0.7-1.8-1.8-2.7-2.2	c-0.9-0.5-2.8-1.4-3.8-1.8c-0.6-0.2-1.1-0.7,0-0.2c1.2,0.5,3.1,1.3,4.4,1.8c1.8,0.8,9.2,0.7,10.4,0.6c0.6,0,1.5-0.5,2-0.9	c0.4-0.3,0.5-0.1,0,0.1c-0.5,0.2-1,0.4-1.4,1C131.5,169.9,130.8,170.2,130.5,170.7L130.5,170.7z" />
    <path fill="#FFFFFF" stroke="#000000" stroke-width="0.1538" stroke-linecap="round" stroke-linejoin="round" d="	M131.2,161.2l-2.4-0.3c-0.4,0.7-0.5,1.6-0.2,2.2c0.8-0.7,2.1-0.3,2.8,0C131.1,162.6,130.8,161.7,131.2,161.2	C131.2,161.3,131.2,161.2,131.2,161.2z M131.3,163.2c-0.7,0-2.4,0-2.9,0c-0.6,0.7-0.2,1.8-0.1,2.3c0.6-1,2.6-0.5,3.4,0.2	C131.3,164.9,131,164.3,131.3,163.2L131.3,163.2z M131.7,165.7c-0.7-0.1-2.9-0.3-3.3-0.4c-0.4,0.7-0.7,1.7-0.8,2.6	c1.1-1.2,3.6-0.3,4.1,0.8C131.1,167.8,130.6,166.3,131.7,165.7L131.7,165.7L131.7,165.7z" />
    <path fill="#FFFFFF" stroke="#000000" stroke-width="0.1538" stroke-linecap="round" stroke-linejoin="round" d="	M128.7,160.5l-3.1-0.4c-0.4,0.5-0.8,1.4-0.7,2.5c0.7-0.6,3.1-0.4,3.7,0.5C128.3,162.2,128,161,128.7,160.5L128.7,160.5L128.7,160.5	z M128.5,163.2l-3.5-0.5c-0.6,0.7-0.5,1.7-0.4,2.8c0.8-0.7,3.4-0.3,4,0.6C128.2,164.8,127.9,164.1,128.5,163.2L128.5,163.2z	 M128.6,166.1l-3.5-0.4c-0.6,0.7-0.9,1.4-0.8,2.4c0.6-0.9,2.9-0.2,3.9,0.8C127.5,168.1,127.5,167,128.6,166.1z" />
    <path fill="#FFFFFF" stroke="#000000" stroke-width="0.1538" stroke-linecap="round" stroke-linejoin="round" d="	M122.8,160.5c-0.4,0.3-1,1.3-1.1,1.6c0.7-0.3,2-0.3,2.9,0.3c-0.2-0.5-0.3-1.4-0.1-1.7C124.2,160.6,123.3,160.5,122.8,160.5	L122.8,160.5L122.8,160.5z M121.4,162.6c0.9,0,2.8,0.2,3.6,0.4c-0.5,0.7-0.4,1.9-0.2,2.7c-1.2-1.2-3.3-1.2-4.5-0.8	C120.5,164.4,121,163.2,121.4,162.6L121.4,162.6z M125,166c-0.9,0-3.1-0.4-4.2-0.9c-0.4,1-0.5,2.6-0.6,3.2c1-1.3,3.4-0.6,4.2,0.8	C124.4,168.4,124.2,166.6,125,166L125,166z" />
    <path fill="#FFFFFF" stroke="#000000" stroke-width="0.1538" stroke-linecap="round" stroke-linejoin="round" d="	M123,159c0.3-0.3,1.1,0.4,1.6,0.1c-0.3,1-1.5,0.2-1.6,0.6V159 M126.4,159c0.3-0.3,1.1,0.4,1.6,0.1c-0.3,1-1.5,0.2-1.6,0.6V159	 M129.6,159.5c0.3-0.3,1.1,0.4,1.6,0.1c-0.3,1-1.5,0.2-1.6,0.6V159.5L129.6,159.5z M122.8,160.5c-2.5,1.5-4.4,4.5-5.1,6.6	c0.7,0,1.6,0.2,1.9,0.8C120.4,165,121.4,162.2,122.8,160.5L122.8,160.5z" />
    <path fill="none" stroke="#000000" stroke-width="0.1538" stroke-linecap="round" stroke-linejoin="round" d="	M122.9,159.1c-2,2-4.9,5.7-6,7.7 M131.2,161.2c0.6,2.7,0.7,6.3,0.5,7.6" />
    <path fill="#002B7F" d="M134.1,167.5c-0.6,0.3-1.8-0.6-2.4-0.2v-1.8c0.6-0.4,1.7,0.5,2.4,0.2V167.5L134.1,167.5z" />
    <path fill="#FFFFFF" d="M134.1,167.2c-0.6,0.3-1.8-0.6-2.4-0.2v-1.1c0.6-0.4,1.7,0.5,2.4,0.2" />
    <path fill="#CE1126" d="M134.1,166.8c-0.6,0.3-1.8-0.6-2.4-0.2v-0.4c0.6-0.4,1.7,0.5,2.4,0.2V166.8" />
  </g>
  <g>
    <path fill="#704D25" stroke="#000000" stroke-width="0.0542" stroke-linecap="round" stroke-linejoin="round" d="	M124,151.1l0.1-3.5c0-0.2,0-0.2,0,0v3.6 M125.2,151.1l0.1-3.5c0-0.2,0-0.2,0,0v3.6 M126.3,151.3l0.1-3.5c0-0.2,0-0.2,0,0v3.6" />
    <path fill="#704D25" stroke="#000000" stroke-width="0.0542" d="M126.7,151.7c-0.1,0-0.3-0.1-0.3-0.2	c-0.1,0.1-0.5,0.1-0.6,0c-0.1,0.1-0.4,0.1-0.6,0c-0.1,0.1-0.5,0.1-0.7,0c-0.1,0.1-0.3,0.1-0.4,0.2c-0.2-0.2-0.6-0.6-0.9-0.8	s-1-0.5-1.3-0.6c-0.2-0.1-0.4-0.2,0-0.1c0.4,0.2,1.1,0.4,1.5,0.7c0.6,0.3,3.2,0.2,3.7,0.2c0.2,0,0.5-0.2,0.7-0.3s0.2,0,0,0	c-0.2,0.1-0.4,0.2-0.5,0.3C127.1,151.4,126.8,151.5,126.7,151.7L126.7,151.7z" />
    <path fill="#FFFFFF" stroke="#000000" stroke-width="0.0542" stroke-linecap="round" stroke-linejoin="round" d="	M126.9,148.4l-0.8-0.1c-0.1,0.2-0.2,0.6-0.1,0.8c0.3-0.3,0.8-0.1,1,0C126.9,148.8,126.8,148.5,126.9,148.4L126.9,148.4z M127,149	c-0.2,0-0.8,0-1,0c-0.2,0.3-0.1,0.6,0,0.8c0.2-0.4,0.9-0.2,1.2,0.1C127,149.7,126.9,149.4,127,149L127,149z M127.1,149.9	c-0.2,0-1-0.1-1.2-0.1c-0.1,0.3-0.2,0.6-0.3,0.9c0.4-0.4,1.3-0.1,1.4,0.3C126.9,150.7,126.7,150.1,127.1,149.9L127.1,149.9	L127.1,149.9z" />
    <path fill="#FFFFFF" stroke="#000000" stroke-width="0.0542" stroke-linecap="round" stroke-linejoin="round" d="	M126.1,148.1L125,148c-0.2,0.2-0.3,0.5-0.3,0.9c0.2-0.2,1.1-0.1,1.3,0.2C125.9,148.7,125.8,148.3,126.1,148.1L126.1,148.1	L126.1,148.1z M126,149.1l-1.2-0.2c-0.2,0.2-0.2,0.6-0.1,1c0.3-0.2,1.2-0.1,1.4,0.2C125.9,149.6,125.8,149.4,126,149.1L126,149.1z	 M126,150.1l-1.2-0.1c-0.2,0.2-0.3,0.5-0.3,0.9c0.2-0.3,1-0.1,1.4,0.3C125.7,150.8,125.6,150.4,126,150.1z" />
    <path fill="#FFFFFF" stroke="#000000" stroke-width="0.0542" stroke-linecap="round" stroke-linejoin="round" d="	M124,148.1c-0.1,0.1-0.3,0.5-0.4,0.6c0.2-0.1,0.7-0.1,1,0.1c-0.1-0.2-0.1-0.5,0-0.6C124.5,148.1,124.2,148.1,124,148.1L124,148.1	L124,148.1z M123.5,148.8c0.3,0,1,0.1,1.3,0.2c-0.2,0.3-0.1,0.7-0.1,1c-0.4-0.4-1.2-0.4-1.6-0.3	C123.2,149.5,123.4,149.1,123.5,148.8L123.5,148.8z M124.8,150c-0.3,0-1.1-0.1-1.5-0.3c-0.1,0.3-0.2,0.9-0.2,1.1	c0.4-0.5,1.2-0.2,1.5,0.3C124.6,150.9,124.5,150.2,124.8,150L124.8,150z" />
    <path fill="#FFFFFF" stroke="#000000" stroke-width="0.0542" stroke-linecap="round" stroke-linejoin="round" d="	M124.1,147.6c0.1-0.1,0.4,0.1,0.6,0c-0.1,0.3-0.5,0.1-0.6,0.2V147.6 M125.3,147.6c0.1-0.1,0.4,0.1,0.6,0c-0.1,0.3-0.5,0.1-0.6,0.2	V147.6 M126.4,147.8c0.1-0.1,0.4,0.1,0.6,0c-0.1,0.3-0.5,0.1-0.6,0.2V147.8L126.4,147.8z M124,148.1c-0.9,0.5-1.5,1.6-1.8,2.3	c0.2,0,0.6,0.1,0.7,0.3C123.1,149.7,123.5,148.7,124,148.1L124,148.1z" />
    <path fill="none" stroke="#000000" stroke-width="0.0542" stroke-linecap="round" stroke-linejoin="round" d="	M124,147.6c-0.7,0.7-1.7,2-2.1,2.7 M126.9,148.4c0.2,0.9,0.2,2.2,0.2,2.7" />
    <path fill="#002B7F" d="M128,150.6c-0.2,0.1-0.6-0.2-0.8-0.1v-0.6c0.2-0.1,0.6,0.2,0.8,0.1V150.6L128,150.6z" />
    <path fill="#FFFFFF" d="M128,150.4c-0.2,0.1-0.6-0.2-0.8-0.1V150c0.2-0.1,0.6,0.2,0.8,0.1" />
    <path fill="#CE1126" d="M128,150.3c-0.2,0.1-0.6-0.2-0.8-0.1v-0.1c0.2-0.1,0.6,0.2,0.8,0.1V150.3" />
  </g>
  <g>
    <path fill="#89C5E3" stroke="#000000" stroke-width="0.2307" stroke-linecap="round" stroke-linejoin="round" d="	M125.9,120.3c0.1,0.5,0.2,1.8-0.5,2c1.3,1.6,3.2,1.8,6.5,1.8c2.1,0,3.8,0,5,0c0,0.4-0.1,0.9-0.1,1.4s0.5,0.7,1.3,0.6	c0.8-0.2,2.4-0.7,3.3,0.1c1.5,1.3,4.2,1.6,4.9,2.4c-0.2-1-1.2-2-2.2-2.9c1-0.1,2.3,0,2.8,0.3c-1.1-1.2-3.2-1.3-4.2-1.9	s-2-1.1-2.8-1.3c0-0.3,0-0.6-0.3-0.8c-0.7-0.5-1.9-0.6-3-0.7c0.2-0.2,0.2-0.3,0.2-0.6V119c0-0.6,0.1-0.7-0.6-1.1	c-2.5-1.5-5.5-2.6-11-2.6s-8.5,1.1-11,2.6c-0.7,0.4-0.6,0.5-0.6,1.1v1.6c0,0.3,0,0.5,0.2,0.6c-1,0-2.3,0.2-3,0.7	c-0.3,0.2-0.3,0.5-0.3,0.8c-0.8,0.2-1.8,0.7-2.8,1.3c-1,0.6-3.1,0.6-4.2,1.9c0.4-0.3,1.7-0.5,2.7-0.3c-1,0.8-2,1.8-2.2,2.9	c0.7-0.8,3.4-1.1,4.9-2.4c0.9-0.8,2.5-0.3,3.3-0.1c0.8,0.2,1.3,0,1.3-0.6c0-0.5-0.1-1-0.1-1.4c1.2,0,2.9,0,5,0	c3.3,0,5.2-0.2,6.5-1.8c-0.7-0.2-0.6-1.5-0.5-2c-1.6-0.3-2.3-0.9-3.6-0.9c-1.2,0-1.5,0.7-1.5,0.9v0.2c-1,0-2.4-0.2-2.7-0.9	c1.9-0.8,4.8-1.5,8.6-1.5c3.9,0,6.7,0.7,8.6,1.5c-0.3,0.6-1.7,0.9-2.7,0.9v-0.2c0-0.2-0.2-0.9-1.5-0.9	C128.2,119.4,127.5,119.9,125.9,120.3L125.9,120.3L125.9,120.3z" />
    <path fill="none" stroke="#000000" stroke-width="0.231" d="M113,124.2c-1,0-1.7,0.1-2,0.2	c-0.6,0.2-0.7,0.5-0.3,0.7 M119.1,120.5v0.8c0,0.5,0.5,1.1,1.3,1.1c2,0,2.4-0.3,3.8-0.3 M124.2,122c-1.4-0.2-2.5-1-3.7-1	s-1.4,0.5-1.2,0.8 M110.2,122.8v1.5c0,0.4,0.3,1,1.4,0.8c0.9-0.2,1.6,0,1.6,0.4 M113.6,121.3c0.2,0.2,0.7,0.4,1.8,0.8	c2,0.7,6.6,1.2,9.6-0.1 M133.6,119.6c0.4,0.2,0.8,0.3,1.1,0.5c1.9,0.9,2,1.2,1.3,1.5 M136.9,124.2c1,0,1.7,0.1,2,0.2	c0.6,0.2,0.7,0.5,0.3,0.7 M130.9,120.5v0.8c0,0.5-0.5,1.1-1.3,1.1c-2,0-2.4-0.3-3.8-0.3 M125.7,122c1.4-0.2,2.5-1,3.7-1	s1.4,0.5,1.2,0.8 M139.7,122.8v1.5c0,0.4-0.3,1-1.4,0.8c-0.9-0.2-1.6,0-1.6,0.4 M136.4,121.3c-0.2,0.2-0.7,0.4-1.8,0.8	c-2,0.7-6.6,1.2-9.6-0.1" />
    <path fill="#89C5E3" stroke="#000000" stroke-width="0.2307" stroke-linecap="round" stroke-linejoin="round" d="	M125,122.4c0.9,0,0.9-0.7,0.9-1.3c0-0.6,0-1.3-0.9-1.3s-0.9,0.7-0.9,1.3C124.1,121.6,124.1,122.4,125,122.4z" />
    <path fill="none" stroke="#000000" stroke-width="0.2307" stroke-linecap="round" stroke-linejoin="round" d="	M116.4,119.6c-0.4,0.2-0.8,0.3-1.1,0.5c-1.9,0.9-2,1.2-1.4,1.5" />
  </g>
  <g>
    <path fill="#078930" stroke="#000000" stroke-width="0.1538" d="M122.76,132c1.3-0.8,2.8-2.2,3.4-3.1	c0.8-1.3,0.9-0.6,1.5-0.7c-1.4,1.5-3.2,3.2-4.4,4L122.76,132 M112.36,135.1c-3.1-1.8-4.3,0.1-5.1,0.2	C108.16,135.4,108.86,136.8,112.36,135.1z" />
    <path fill="#078930" stroke="#000000" stroke-width="0.1538" d="M127.26,132l-0.5,0.2c-1.2-0.9-3-2.5-4.4-4	c0.6,0.1,0.7-0.5,1.5,0.7C124.46,129.9,126.06,131.2,127.26,132 M142.86,135.2c-0.7-0.1-1.9-2-5.1-0.2	C141.26,136.8,141.96,135.4,142.86,135.2z" />
    <path fill="#078930" stroke="#000000" stroke-width="0.1538" d="M113.76,134c-3-2-4.3-0.3-5.1-0.2	C109.46,134.1,110.16,135.5,113.76,134z M115.86,132.8c-2.9-2.1-4.3-0.3-5.1-0.3C111.66,132.8,112.26,134.3,115.86,132.8z	 M117.56,131.8c-2.7-2.4-4.3-0.8-5-0.9C113.46,131.3,113.86,132.8,117.56,131.8z M119.86,131c-2.6-2.5-4.2-1-4.9-1.1	C115.76,130.3,116.06,131.8,119.86,131z M122.26,130.8c-2.1-2.9-4-1.7-4.7-1.9C118.26,129.4,118.36,131,122.26,130.8z	 M122.66,130.9c-0.1-0.6-1.3-1.5-1.4-1.8c0.3,0,0.4-0.4,0.2-0.5c-0.1-0.1-0.4,0-0.5,0.1c-0.1,0.2-0.3,0.6,0.2,0.9	c0.4,0.3,1,0.9,1.2,1.4 M141.46,133.8c-0.7,0-2.1-1.8-5.1,0.2C139.96,135.5,140.56,134.1,141.46,133.8z M139.36,132.5	c-0.7,0-2.1-1.8-5.1,0.3C137.86,134.3,138.46,132.8,139.36,132.5z M137.46,130.9c-0.7,0.1-2.3-1.5-5,0.9	C136.26,132.8,136.66,131.3,137.46,130.9z M135.16,129.9c-0.7,0.1-2.4-1.4-4.9,1.1C134.06,131.8,134.36,130.3,135.16,129.9z	 M132.56,128.9c-0.7,0.2-2.6-1-4.7,1.9C131.76,131,131.86,129.4,132.56,128.9z M127.86,130.9c0.2-0.4,0.8-1,1.2-1.4	c0.4-0.3,0.3-0.7,0.2-0.9c-0.1-0.1-0.4-0.2-0.5-0.1c-0.1,0.1-0.1,0.5,0.2,0.5c-0.1,0.3-1.3,1.2-1.4,1.8" />
    <path fill="#078930" stroke="#000000" stroke-width="0.1538" stroke-linecap="round" stroke-linejoin="round" d="	M109.46,135.3c0.8-0.3,1.9-0.1,2.7-0.2 M110.86,134c0.9-0.2,1.9,0,2.7,0 M112.96,132.8c0.9-0.2,1.9,0,2.7,0 M114.76,131.4	c0.9-0.1,1.9,0.3,2.7,0.3 M117.06,130.5c0.9,0,1.9,0.3,2.6,0.5 M119.56,129.8c0.9,0.1,1.8,0.7,2.5,0.9 M137.96,135.1	c0.8,0.1,1.8,0,2.7,0.2 M136.56,134c0.8,0,1.8-0.2,2.7,0 M134.46,132.8c0.8,0,1.8-0.2,2.7,0 M132.66,131.7c0.8-0.1,1.8-0.4,2.7-0.3	 M130.46,130.9c0.8-0.1,1.8-0.5,2.6-0.5 M128.06,130.6c0.7-0.2,1.6-0.8,2.5-0.9" />
    <path fill="#FFFFFF" stroke="#000000" stroke-width="0.2307" stroke-linecap="round" stroke-linejoin="round" d="	M125,131.9c0.7,0,1.3,0,1.7-0.1v-1c0-0.3,1.2-0.7,2.9-0.4c6.9,1.3,7.8,4.5,13.1,6.3c0.1,0,0.3,0.1,0.5,0.1c0.1-0.3,0.3-0.6,0.4-1	c0.1-0.3,0.8-0.3,1.5,0c0.8,0.4,1.1,0.8,1,1c-0.1,0.3-0.3,0.6-0.4,0.9c1.2,0.4,3.4,1.1,2.7,4c-0.6-0.6-1.9-1.2-2.8-1.2	c-1,0-2-0.4-1.7-1.4c-0.2-0.1-0.5-0.2-0.7-0.3c0,0.1-0.1,0.2-0.1,0.3c-0.2,0.6-1.2,0.8-2.2,0.4c-5.5-1.9-7.2-6-13.6-6v0.2	c0,0.5-0.7,1-2.5,1s-2.5-0.5-2.5-1v-0.2c-6.4,0-8.1,4.2-13.6,6c-1,0.3-1.9,0.1-2.2-0.4c0-0.1-0.1-0.2-0.1-0.3	c-0.2,0-0.5,0.2-0.7,0.3c0.3,1-0.7,1.4-1.7,1.4c-0.8,0-2.2,0.6-2.8,1.2c-0.7-2.9,1.5-3.6,2.7-4c-0.1-0.3-0.2-0.5-0.4-0.9	c-0.1-0.2,0.2-0.7,1-1c0.7-0.3,1.4-0.3,1.5,0c0.2,0.4,0.3,0.7,0.4,1c0.2,0,0.4-0.1,0.5-0.1c5.2-1.8,6.2-4.9,13.1-6.3	c1.8-0.3,2.9,0,2.9,0.4v1C123.7,131.9,124.3,131.9,125,131.9L125,131.9z" />
    <path fill="#FFFFFF" stroke="#000000" stroke-width="0.2307" stroke-linecap="round" stroke-linejoin="round" d="	M123.3,131.8c-0.5,0-0.7-0.2-0.7-0.3c0-0.4,0.7-0.3,0.7-0.7 M105.7,136.7c0.3,0.6,0.6,1.5,0.9,2.2 M105,137.1	c0.3,0.6,0.8,1.7,0.9,2.2 M122.5,131.5v2.1 M126.7,131.8c0.4,0,0.7-0.2,0.7-0.3c0-0.4-0.7-0.3-0.7-0.7 M144.3,136.7	c-0.3,0.6-0.6,1.5-0.9,2.2 M145,137.1c-0.3,0.6-0.8,1.7-0.9,2.2" />
    <path fill="none" stroke="#000000" stroke-width="0.2307" stroke-linecap="round" stroke-linejoin="round" d="	M103.8,136.9c0.2,0.3,1.1-0.2,1.2,0.2c0.1,0.3-0.2,0.5-0.8,0.7 M106.3,135.8c0.1,0.4-0.8,0.6-0.6,0.9c0.1,0.2,0.6,0.2,1.1,0.1	 M146.2,136.9c-0.2,0.3-1.1-0.2-1.2,0.2c-0.1,0.3,0.2,0.5,0.8,0.7 M143.7,135.8c-0.1,0.4,0.8,0.6,0.6,0.9c-0.1,0.2-0.6,0.2-1.1,0.1	 M127.5,131.5v2.1" />
  </g>
  <path fill="#000000" d="M108.7,138.9l-0.6-2.1l0.7-0.2c0.2,0,0.3-0.1,0.4-0.1s0.2,0.1,0.2,0.1c0.1,0.1,0.1,0.2,0.2,0.3c0,0.2,0,0.3,0,0.4c0,0.1-0.1,0.2-0.3,0.3c0.1,0,0.2,0.1,0.2,0.1c0.1,0,0.2,0.1,0.3,0.3l0.3,0.3l-0.4,0.1l-0.4-0.4c-0.1-0.1-0.2-0.2-0.3-0.3c0,0-0.1,0-0.1-0.1c0,0-0.1,0-0.2,0h-0.1l0.2,0.9L108.7,138.9z M108.7,137.6l0.2-0.1c0.2,0,0.2-0.1,0.3-0.1l0.1-0.1c0,0,0-0.1,0-0.2c0-0.1,0-0.1-0.1-0.2h-0.1c0,0-0.1,0-0.3,0.1l-0.3,0.1L108.7,137.6z M110.6,138.4l-1-1.9l1.2-0.6l0.2,0.3l-0.8,0.4l0.2,0.4l0.8-0.4l0.2,0.3l-0.8,0.4l0.3,0.5l0.9-0.4l0.2,0.3L110.6,138.4z M112.1,137.5l-1.2-1.8l0.5-0.3c0.2-0.1,0.3-0.2,0.4-0.2s0.2,0,0.3,0c0.1,0.1,0.2,0.2,0.3,0.3c0.1,0.1,0.1,0.3,0.1,0.4c0,0.1,0,0.2-0.1,0.3c0,0.1-0.2,0.2-0.4,0.3l-0.2,0.1l0.4,0.7L112.1,137.5z M111.4,135.8l0.3,0.5l0.2-0.1c0.1-0.1,0.2-0.1,0.2-0.2c0,0,0-0.1,0-0.2c0-0.1,0-0.1-0.1-0.2c0-0.1-0.1-0.1-0.1-0.1s-0.1,0-0.2,0c0,0-0.1,0.1-0.3,0.1V135.8z M112.2,134.9l0.3-0.2l0.7,1c0.1,0.2,0.2,0.2,0.2,0.3c0.1,0.1,0.1,0.1,0.2,0.1s0.2,0,0.2-0.1c0.1,0,0.1-0.1,0.1-0.2c0-0.1,0-0.1,0-0.2s-0.1-0.2-0.2-0.4l-0.7-1l0.3-0.2l0.6,0.9c0.2,0.2,0.3,0.4,0.3,0.5s0,0.2,0,0.4c0,0.1-0.1,0.2-0.3,0.3c-0.2,0.1-0.3,0.2-0.4,0.2s-0.2,0-0.3-0.1c-0.1-0.1-0.2-0.2-0.4-0.5L112.2,134.9z M113.7,133.8l0.6-0.4c0.2-0.1,0.3-0.2,0.4-0.2s0.2,0,0.3,0c0.1,0,0.2,0.1,0.2,0.2c0.1,0.1,0.1,0.2,0.1,0.3s0,0.2,0,0.2c0.1,0,0.2,0,0.3,0c0.1,0,0.2,0.1,0.2,0.2c0.1,0.1,0.1,0.3,0.1,0.4c0,0.1,0,0.2-0.1,0.3c0,0-0.2,0.2-0.4,0.3l-0.5,0.3L113.7,133.8z M114.2,133.9l0.3,0.4l0.2-0.1c0.1-0.1,0.2-0.1,0.2-0.2l0.1-0.1c0,0,0-0.1,0-0.2l-0.1-0.1h-0.1c0,0-0.1,0.1-0.3,0.2L114.2,133.9z M114.7,134.7l0.3,0.5l0.3-0.2c0.1-0.1,0.2-0.1,0.2-0.2v-0.1c0,0,0-0.1-0.1-0.2c0-0.1-0.1-0.1-0.1-0.1s-0.1,0-0.2,0c0,0-0.1,0.1-0.3,0.1L114.7,134.7z M116.3,134.7l-1-1.9l0.3-0.2l0.8,1.6l0.8-0.4l0.2,0.3L116.3,134.7z M117.6,134l-0.8-2l0.3-0.1l0.8,2L117.6,134z M119,132.7h0.4c0,0.2,0,0.4-0.1,0.6c-0.1,0.1-0.2,0.2-0.4,0.3c-0.2,0.1-0.4,0-0.6-0.1c-0.2-0.2-0.4-0.4-0.5-0.7c-0.1-0.4-0.1-0.6,0-0.9c0.1-0.2,0.2-0.4,0.5-0.4c0.2-0.1,0.4,0,0.5,0c0.1,0.1,0.2,0.2,0.3,0.4l-0.3,0.2c-0.1-0.1-0.1-0.2-0.2-0.2s-0.2,0-0.2,0c-0.1,0-0.2,0.1-0.3,0.3c0,0.1,0,0.3,0,0.6c0.1,0.3,0.2,0.4,0.3,0.5c0.1,0.1,0.2,0.1,0.4,0.1c0.1,0,0.2-0.1,0.2-0.2C119,133,119,132.9,119,132.7z M121.3,133l-0.4,0.1l-0.2-0.4l-0.7,0.1v0.5l-0.4,0.1l0.3-2.2l0.4-0.1L121.3,133z M120.5,132.3l-0.4-0.7l-0.1,0.8L120.5,132.3z M123.5,132.2h0.6c0.2,0,0.3,0,0.4,0.1c0.1,0,0.2,0.1,0.2,0.2s0.1,0.2,0.1,0.3s0,0.3,0,0.5s0,0.3-0.1,0.5c0,0.1-0.1,0.2-0.2,0.3s-0.2,0.1-0.2,0.2c-0.1,0-0.2,0-0.4,0h-0.6L123.5,132.2z M123.9,132.5l-0.1,1.4h0.3c0.1,0,0.2,0,0.2,0s0.1,0,0.1-0.1c0,0,0.1-0.1,0.1-0.2c0-0.1,0-0.2,0.1-0.4c0-0.2,0-0.3,0-0.4c0-0.1,0-0.2-0.1-0.2c0,0-0.1-0.1-0.2-0.1c0,0-0.1,0-0.3,0H123.9z M125.3,134.4l-0.1-2.1l1.3-0.1v0.4l-0.9,0.1v0.5l0.9-0.1v0.4l-0.9,0.1v0.6l1-0.1v0.4L125.3,134.4z M129.2,132.4l0.3,0.2c-0.1,0.2-0.2,0.4-0.3,0.5s-0.3,0.2-0.5,0.1c-0.2,0-0.4-0.1-0.5-0.3c-0.2-0.2-0.2-0.5-0.2-0.8c0-0.4,0.1-0.6,0.3-0.8s0.4-0.2,0.6-0.2c0.2,0,0.4,0.1,0.5,0.2c0.1,0.1,0.2,0.2,0.2,0.4l-0.4,0.1c0-0.1-0.1-0.2-0.1-0.3c-0.1-0.1-0.1-0.1-0.2-0.1c-0.1,0-0.2,0-0.3,0.2s-0.1,0.3-0.2,0.6c0,0.3,0,0.5,0.1,0.6s0.2,0.2,0.3,0.2s0.2,0,0.2-0.1C129.1,132.6,129.2,132.5,129.2,132.4L129.2,132.4z M130,132.2c0.1-0.2,0.2-0.4,0.3-0.6c0.1-0.1,0.2-0.2,0.4-0.3c0.1,0,0.3,0,0.5,0c0.2,0.1,0.4,0.2,0.5,0.4s0.1,0.5,0,0.9s-0.2,0.6-0.4,0.8c-0.2,0.1-0.4,0.2-0.6,0.1c-0.2-0.1-0.4-0.2-0.5-0.4C129.9,132.8,129.9,132.5,130,132.2z M130.4,132.2c-0.1,0.2-0.1,0.4,0,0.6s0.2,0.2,0.3,0.3c0.1,0,0.3,0,0.4-0.1c0.1-0.1,0.2-0.3,0.3-0.5s0.1-0.4,0-0.6c-0.1-0.1-0.2-0.2-0.3-0.3c-0.1,0-0.3,0-0.4,0.1C130.5,131.8,130.4,132,130.4,132.2z M131.8,133l0.3,0.1c-0.1,0.3,0,0.4,0.2,0.5c0.1,0,0.2,0,0.3,0s0.1-0.1,0.2-0.2v-0.1c0,0,0-0.1-0.1-0.1c0,0-0.1-0.1-0.2-0.2c-0.1-0.1-0.2-0.2-0.2-0.3s-0.1-0.2-0.1-0.3s0-0.2,0-0.3s0.1-0.2,0.2-0.3c0.1-0.1,0.2-0.1,0.3-0.1s0.2,0,0.4,0.1s0.3,0.2,0.4,0.3c0.1,0.2,0.1,0.3,0,0.5l-0.3-0.1c0-0.1,0-0.2,0-0.3s-0.1-0.1-0.2-0.2c-0.1,0-0.2,0-0.2,0c-0.1,0-0.1,0-0.1,0.1s0,0.1,0,0.2c0,0.1,0.1,0.1,0.2,0.2c0.1,0.1,0.2,0.2,0.3,0.3c0,0.1,0.1,0.2,0.1,0.3s0,0.2-0.1,0.3c-0.1,0.2-0.2,0.3-0.3,0.4c-0.2,0.1-0.3,0.1-0.6,0C131.8,133.8,131.7,133.5,131.8,133z M133.5,134.6l0.9-1.6l-0.5-0.3l0.2-0.3l1.2,0.7l-0.2,0.3l-0.5-0.3l-0.9,1.6L133.5,134.6z M135.8,136l-0.3-0.2l0.1-0.5l-0.6-0.4l-0.4,0.3l-0.3-0.2l1.8-1.4l0.3,0.2L135.8,136z M135.7,134.9l0.2-0.8l-0.6,0.5L135.7,134.9z M136.5,136.5l1.2-1.8l0.6,0.4c0.2,0.1,0.3,0.2,0.3,0.3s0.1,0.2,0,0.3c0,0.1-0.1,0.2-0.1,0.3c-0.1,0.1-0.2,0.2-0.3,0.3c-0.1,0-0.3,0-0.4,0c0,0.1,0,0.2,0,0.3s0,0.2,0,0.4l-0.1,0.5l-0.4-0.2l0.1-0.5c0-0.2,0-0.3,0-0.4c0-0.1,0-0.1,0-0.1l-0.1-0.1h-0.1l-0.5,0.7L136.5,136.5z M137.5,135.7l0.2,0.2c0.1,0.1,0.2,0.1,0.3,0.2h0.1l0.1-0.1c0,0,0.1-0.1,0.1-0.2v-0.1c0,0-0.1-0.1-0.2-0.2l-0.2-0.2L137.5,135.7z M138,137.5l1.2-1.8l0.3,0.2l-1.2,1.8L138,137.5z M139.9,137.8l0.2,0.3c-0.2,0.2-0.3,0.3-0.5,0.3s-0.3,0-0.5-0.1s-0.3-0.3-0.4-0.5c0-0.3,0-0.5,0.2-0.8s0.4-0.5,0.6-0.6c0.2-0.1,0.4-0.1,0.6,0c0.2,0.1,0.3,0.2,0.3,0.4c0,0.1,0,0.3,0,0.5l-0.4-0.1c0-0.1,0-0.2,0-0.3s-0.1-0.2-0.2-0.2c-0.1-0.1-0.2-0.1-0.4,0c-0.1,0.1-0.3,0.2-0.4,0.4c-0.1,0.2-0.2,0.4-0.2,0.6c0,0.1,0.1,0.2,0.2,0.3c0.1,0,0.2,0.1,0.3,0C139.7,138,139.8,137.9,139.9,137.8z M141.6,139.3l-0.4-0.1v-0.5l-0.7-0.2l-0.3,0.4l-0.4-0.1l1.4-1.8l0.4,0.1V139.3z M141.2,138.3v-0.8l-0.5,0.7L141.2,138.3z M116.6,119l-0.3,0.1l-0.3-0.3l-0.5,0.2l0.1,0.4l-0.3,0.1l-0.2-1.9l0.3-0.1L116.6,119z M115.8,118.6l-0.5-0.5l0.1,0.7L115.8,118.6z M116.8,119l-0.6-1.7l0.4-0.1l0.6,1.1l-0.1-1.3l0.4-0.1l0.6,1.7l-0.3,0.1l-0.4-1.4l0.2,1.4l-0.3,0.1l-0.7-1.3l0.4,1.4L116.8,119z M118.4,118.5l-0.4-1.8l1.1-0.3l0.1,0.3l-0.8,0.2l0.1,0.4l0.7-0.2l0.1,0.3l-0.7,0.2l0.1,0.5l0.8-0.2l0.1,0.3L118.4,118.5z M119.8,118.2l-0.3-1.8l0.6-0.1c0.2,0,0.3,0,0.4,0s0.1,0.1,0.2,0.1c0.1,0.1,0.1,0.2,0.1,0.3c0,0.1,0,0.3,0,0.4s-0.1,0.2-0.3,0.2c0.1,0,0.1,0.1,0.2,0.1s0.1,0.1,0.2,0.3l0.2,0.3l-0.4,0.1l-0.3-0.4c-0.1-0.1-0.2-0.2-0.2-0.2s-0.1,0-0.1-0.1c0,0-0.1,0-0.2,0h-0.1l0.1,0.8L119.8,118.2z M119.9,117.1h0.2c0.1,0,0.2,0,0.2-0.1c0,0,0.1,0,0.1-0.1s0-0.1,0-0.2s0-0.1-0.1-0.1c0,0-0.1,0-0.1-0.1c0,0-0.1,0-0.2,0h-0.2L119.9,117.1z M121.2,117.9l-0.2-1.8h0.3l0.2,1.8H121.2z M122.7,117.1l0.3,0.1c0,0.2-0.1,0.4-0.2,0.5s-0.2,0.2-0.4,0.2c-0.2,0-0.4,0-0.5-0.2c-0.2-0.2-0.2-0.4-0.3-0.7c0-0.3,0-0.6,0.1-0.7c0.1-0.2,0.3-0.3,0.5-0.3s0.3,0,0.4,0.1s0.2,0.2,0.2,0.3l-0.3,0.1c0-0.1-0.1-0.2-0.1-0.2c-0.1,0-0.1-0.1-0.2-0.1s-0.2,0.1-0.3,0.2c-0.1,0.1-0.1,0.3-0.1,0.5s0.1,0.4,0.2,0.5s0.2,0.1,0.3,0.1c0.1,0,0.1,0,0.2-0.1C122.7,117.3,122.7,117.2,122.7,117.1L122.7,117.1z M124.7,117.6h-0.3l-0.2-0.4h-0.6l-0.1,0.4h-0.3l0.5-1.8h0.3L124.7,117.6z M124.1,116.9l-0.2-0.7l-0.2,0.7H124.1z M126.4,117l0.3,0.1c0,0.2-0.1,0.4-0.2,0.4c-0.1,0.1-0.2,0.1-0.4,0.1c-0.2,0-0.4-0.1-0.5-0.2c-0.1-0.2-0.2-0.4-0.2-0.7c0-0.3,0.1-0.6,0.2-0.7c0.1-0.2,0.3-0.2,0.5-0.2s0.3,0.1,0.4,0.2s0.1,0.2,0.2,0.4l-0.3,0.1c0-0.1,0-0.2-0.1-0.2c0,0-0.1-0.1-0.2-0.1s-0.2,0-0.3,0.1s-0.1,0.2-0.1,0.5c0,0.2,0,0.4,0.1,0.5s0.2,0.2,0.3,0.2c0.1,0,0.2,0,0.2-0.1C126.3,117.2,126.3,117.1,126.4,117L126.4,117z M126.9,117.7l0.2-1.8l1.1,0.1v0.3l-0.8-0.1v0.4l0.7,0.1v0.3l-0.7-0.1v0.5l0.8,0.1v0.3L126.9,117.7z M128.3,117.8l0.3-1.8h0.3l0.4,1.3l0.2-1.2h0.3l-0.3,1.8h-0.3l-0.4-1.3l-0.2,1.2H128.3z M130.1,118.1l0.3-1.5l-0.4-0.1l0.1-0.3l1.2,0.2l-0.1,0.3l-0.4-0.1l-0.3,1.5H130.1z M131,118.3l0.5-1.8l0.6,0.2c0.2,0,0.3,0.1,0.3,0.1c0.1,0,0.1,0.1,0.1,0.2s0,0.2,0,0.3c0,0.1-0.1,0.2-0.2,0.3c-0.1,0.1-0.2,0.1-0.3,0.1c0,0.1,0.1,0.1,0.1,0.2s0.1,0.2,0.1,0.3l0.1,0.4l-0.4-0.1l-0.1-0.4c0-0.2-0.1-0.3-0.1-0.3s0-0.1-0.1-0.1c0,0-0.1,0-0.1-0.1h-0.1l-0.2,0.7L131,118.3z M131.6,117.4l0.2,0.1c0.1,0,0.2,0,0.3,0s0.1,0,0.1,0l0.1-0.1v-0.1c0,0,0-0.1-0.1-0.1c0,0-0.1,0-0.2-0.1l-0.2-0.1L131.6,117.4z M133.7,119.1l-0.3-0.1v-0.4l-0.6-0.2l-0.2,0.4l-0.3-0.1l1.1-1.5l0.3,0.1V119.1z M133.4,118.3v-0.7l-0.4,0.6L133.4,118.3z M133.9,119.2l0.7-1.6l0.3,0.1l-0.6,1.4l0.7,0.3l-0.1,0.3L133.9,119.2z" />
</svg>
