<svg xmlns="http://www.w3.org/2000/svg" width="450px" height="300px" viewBox="0 0 450 300">
  <path fill="#FFFFFF" d="M0,0h450v300H0V0z" />
  <path fill="#E30A17" d="M213.407,190.068C200.113,211.061,176.686,225,150,225c-41.421,0-75-33.579-75-75s33.579-75,75-75c26.686,0,50.113,13.939,63.407,34.932C202.422,97.698,186.486,90,168.75,90c-33.137,0-60,26.863-60,60s26.863,60,60,60C186.486,210,202.422,202.302,213.407,190.068z M250.676,136.377l-16.014-22.042v27.245L208.75,150l25.912,8.419v27.245l16.014-22.042l25.912,8.419L260.574,150l16.014-22.042L250.676,136.377z M0,270h450v-30H0V270z M0,30v30h450V30H0z" />
</svg>
