<svg xmlns="http://www.w3.org/2000/svg" width="450px" height="300px" viewBox="0 0 450 300">
  <path fill="#FFFFFF" d="M0,0h450v300H0V0z" />
  <path fill="#4E5B31" d="M162.322,218.271c-0.002-0.004-0.003-0.007-0.005-0.011c0.001,0,0.002,0.001,0.003,0.001L162.322,218.271z M150.406,206.156c-0.215,0.007-0.429,0.032-0.639,0.077h-0.007c0.414,4.69,3.805,7.708,6.577,9.415c1.866,1.137,3.877,2.016,5.98,2.611c-2.154-4.859-4.562-8.326-7.17-10.314c-2.051-1.559-3.746-1.792-4.574-1.792C150.515,206.154,150.456,206.156,150.406,206.156z M147.867,210.624h0.004c-0.133-1.3-0.697-2.518-1.603-3.461c-1.461-1.593-4.598-3.533-11.239-3.728h-0.006c0.165,1.076,0.468,2.128,0.9,3.127c0.643,1.462,1.859,3.288,4.007,3.678c1.84,0.321,3.703,0.48,5.57,0.476l-0.003-0.001C146.922,210.714,147.857,210.624,147.867,210.624z M147.085,213.728c-0.06,0.631,0.035,1.267,0.277,1.853c0.243,0.562,1.068,1.87,3.478,1.87l-0.001,0.001c0.915,0,1.505-0.205,1.765-0.61c0.323-0.514-0.068-1.171-0.195-1.361c-0.965-1.247-2.466-1.959-4.042-1.921h-0.082c-0.405,0.007-0.807,0.059-1.2,0.157L147.085,213.728L147.085,213.728z M149.384,198.149c0,1.042,0.728,2.32,1.514,3.542c0.749,1.164,1.508,2.103,1.517,2.114l-0.001,0.001h0.005v-0.005c0.004-0.037,0.372-3.806,0.372-7.544s-3.986-5.234-4.154-5.296h-0.007c0.015,0.108,0.196,1.386,0.375,2.879C149.147,195.016,149.384,197.141,149.384,198.149z M156.711,219.328c-1.41-0.279-2.845-0.418-4.282-0.415c-0.122,0-0.243,0.003-0.362,0.003c-1.764,0.016-3.52,0.24-5.232,0.664l-0.016,0.005c-0.018,0.179-0.012,0.359,0.016,0.536c0.077,0.455,0.253,0.887,0.516,1.267c0.609,0.916,2.031,2.181,5.345,3.01c1.957,0.482,3.965,0.723,5.98,0.716l-0.005-0.003c2.042,0.013,4.077-0.225,6.06-0.71h0.007v-0.004C162.759,221.797,159.909,219.997,156.711,219.328z M141.589,201.031c2.286,1.312,4.359,2.212,5.536,2.409c0.042,0.007,0.083,0.01,0.125,0.01l-0.002,0.001c0.076,0.001,0.15-0.015,0.22-0.045c0.087-0.051,0.155-0.13,0.193-0.224c0.087-0.29,0.087-0.6,0-0.891c-0.23-0.992-0.569-1.956-1.012-2.873c-0.885-1.993-2.021-4.042-2.154-4.279l-0.016-0.02c-1.128-1.392-2.329-2.723-3.6-3.986c-1.001-1.01-2.086-1.932-3.245-2.757c-1.271-0.876-2.212-1.273-3.094-1.287c-0.223-0.002-0.445,0.032-0.658,0.1c-0.113,1.19-0.128,2.389-0.044,3.582c0.19,2.634,0.84,4.607,1.94,5.863C136.984,198.013,139.048,199.574,141.589,201.031z M195.3,228.874c0.411,0.436,0.986,0.678,1.585,0.667l0.001-0.004c0.493,0.033,0.957-0.238,1.17-0.685c0.143-0.511,0.094-1.056-0.137-1.534c-0.424-1.079-1.414-2.168-2.669-2.168h-0.056c-0.269,0.01-0.534,0.07-0.781,0.177c-0.044,0.707,0.016,1.418,0.176,2.108C194.701,227.967,194.945,228.462,195.3,228.874z M171.784,219.126c0.414,0.43,0.99,0.666,1.586,0.65l0.001,0.003c0.492,0.034,0.952-0.241,1.155-0.69c0.148-0.503,0.105-1.043-0.121-1.517c-0.426-1.079-1.417-2.169-2.669-2.169h-0.056c-0.269,0.01-0.534,0.07-0.781,0.177c-0.044,0.703,0.015,1.408,0.176,2.092C171.184,218.209,171.428,218.709,171.784,219.126z M188.011,233.428c0.415,0.842,1.052,1.556,1.843,2.062c1.86,1.26,4.683,1.9,8.391,1.9l-0.004,0.001c1.928-0.017,3.854-0.156,5.765-0.42h0.005l-0.005-0.004c-4.599-4.455-8.957-5.39-11.823-5.39c-0.202,0.001-0.396,0.006-0.587,0.015c-1.332,0.045-2.647,0.324-3.883,0.825C187.759,232.768,187.859,233.109,188.011,233.428z M216.034,239.111l0.006,0.003l-0.004-0.007c-5.685-10.76-11.591-11.921-13.9-11.921c-0.447-0.003-0.893,0.047-1.329,0.147H200.8v0.007c-0.134,1.761,0.331,3.515,1.317,4.98C203.676,234.733,207.355,237.871,216.034,239.111z M191.175,228.156l0.003-0.004h-0.005c-2.961-8.881-8.743-10.323-11.927-10.392c-0.094-0.004-0.187-0.004-0.277-0.004c-0.089,0-0.177,0.004-0.262,0.004c-0.656,0.009-1.31,0.088-1.95,0.234c0.549,1.624,1.438,3.114,2.607,4.369C181.258,224.474,184.845,227.192,191.175,228.156z M182.63,228.951c-0.001,0-0.002,0-0.003,0v0.004L182.63,228.951z M168.201,220.373h-0.184c-0.658,0.001-1.312,0.099-1.943,0.29l-0.01,0.004c0.105,0.422,0.257,0.831,0.454,1.219c0.527,1.034,1.247,1.958,2.12,2.724c2.042,1.828,6.123,4.064,13.989,4.341v-0.001C176.257,221.487,170.855,220.373,168.201,220.373z M169.537,217.998l0.015,0.005l-0.005-0.016c-1.775-5.655-3.862-9.802-6.2-12.326c-2.035-2.197-3.871-2.698-5.077-2.732c-0.079-0.004-0.157-0.004-0.232-0.004c-0.053,0-0.103,0.001-0.153,0.004c-0.5,0.025-0.99,0.147-1.443,0.359c1.815,4.5,4.681,8.5,8.358,11.665c1.423,1.238,3.018,2.262,4.734,3.042L169.537,217.998z M201.918,239.448c-2.829,0.011-4.579,0.863-5.55,1.575c-0.582,0.411-1.072,0.939-1.439,1.55v0.004h0.004c3.011,1.791,6.444,2.751,9.947,2.784c3.266,0.015,6.475-0.858,9.283-2.527c-4.737-2.246-8.836-3.385-12.186-3.385h-0.059V239.448z M188.561,237.714h-0.056c-0.269,0.01-0.534,0.07-0.781,0.177c-0.044,0.708,0.016,1.418,0.176,2.109c0.112,0.532,0.355,1.027,0.71,1.439c0.41,0.436,0.986,0.678,1.585,0.667l0.003-0.005c0.493,0.033,0.957-0.239,1.17-0.685c0.143-0.511,0.094-1.056-0.137-1.533C190.806,238.803,189.817,237.714,188.561,237.714z M168.518,229.592c0.119-0.437,0.087-0.901-0.09-1.318c-0.177-0.499-0.466-0.951-0.844-1.322c-0.34-0.354-0.804-0.561-1.294-0.579c-0.21,0.003-0.418,0.049-0.609,0.138v0.009c-0.031,0.616,0.018,1.233,0.146,1.837c0.082,0.458,0.272,0.891,0.554,1.261c0.305,0.37,0.76,0.585,1.24,0.583l-0.002-0.004C168.014,230.201,168.372,229.96,168.518,229.592z M184.505,233.225c-1.869-1.402-4.675-2.113-8.341-2.113c-0.247,0.001-0.493,0.004-0.737,0.01c-2.615,0.084-5.215,0.43-7.762,1.031h-0.01l0.004,0.004c3.35,3.349,8.721,4.543,12.632,4.543l0.004,0.009l0.3-0.01c2.127-0.034,3.631-0.373,4.473-1.008c0.365-0.229,0.57-0.646,0.528-1.075C185.415,234.035,185.027,233.539,184.505,233.225z M287.678,218.271c0.002-0.004,0.003-0.007,0.005-0.011c-0.001,0-0.002,0.001-0.003,0.001L287.678,218.271z M297.591,215.481c-0.128,0.189-0.518,0.847-0.195,1.361c0.26,0.405,0.85,0.61,1.765,0.61l-0.001-0.001c2.411,0,3.236-1.307,3.479-1.87c0.242-0.586,0.337-1.223,0.277-1.853v-0.01c-0.392-0.098-0.796-0.15-1.2-0.157h-0.083C300.057,213.522,298.556,214.234,297.591,215.481z M297.581,203.807h0.005l-0.001-0.001c0.009-0.011,0.767-0.95,1.516-2.114c0.786-1.223,1.514-2.5,1.514-3.542c0-1.008,0.237-3.133,0.379-4.309c0.179-1.492,0.36-2.77,0.375-2.879h-0.007c-0.169,0.061-4.154,1.557-4.154,5.296s0.369,7.507,0.372,7.544L297.581,203.807L297.581,203.807z M287.683,218.26c2.103-0.595,4.114-1.474,5.98-2.611c2.772-1.707,6.163-4.725,6.576-9.415h-0.007c-0.211-0.045-0.424-0.07-0.639-0.077c-0.05,0-0.109-0.003-0.167-0.003c-0.828,0-2.523,0.233-4.573,1.792C292.245,209.934,289.837,213.401,287.683,218.26z M267.373,228.949v0.001c7.866-0.277,11.947-2.514,13.989-4.341c0.873-0.765,1.592-1.69,2.12-2.724c0.197-0.388,0.349-0.797,0.454-1.219l-0.01-0.004c-0.63-0.191-1.285-0.289-1.943-0.29h-0.184C279.145,220.373,273.743,221.487,267.373,228.949z M276.629,219.779l0.001-0.003c0.596,0.016,1.173-0.22,1.586-0.65c0.355-0.417,0.6-0.917,0.71-1.454c0.16-0.685,0.219-1.39,0.176-2.092c-0.247-0.107-0.512-0.167-0.781-0.177h-0.056c-1.253,0-2.244,1.09-2.669,2.169c-0.227,0.474-0.27,1.014-0.122,1.517C275.677,219.538,276.137,219.812,276.629,219.779z M253.114,229.537l0.001,0.004c0.599,0.012,1.174-0.23,1.585-0.667c0.355-0.412,0.599-0.907,0.711-1.439c0.16-0.69,0.22-1.401,0.176-2.108c-0.247-0.107-0.512-0.167-0.781-0.177h-0.056c-1.255,0-2.245,1.089-2.669,2.168c-0.231,0.478-0.28,1.023-0.137,1.534C252.156,229.298,252.62,229.57,253.114,229.537z M270.636,222.363c1.169-1.255,2.057-2.745,2.607-4.369c-0.64-0.147-1.294-0.225-1.95-0.234c-0.085,0-0.172-0.004-0.262-0.004c-0.089,0-0.182,0-0.276,0.004c-3.184,0.069-8.967,1.512-11.928,10.392h-0.005l0.004,0.004C265.156,227.192,268.742,224.474,270.636,222.363z M267.373,228.954v-0.004c-0.001,0-0.002,0-0.003,0L267.373,228.954z M245.989,236.971h0.005c1.91,0.264,3.836,0.404,5.765,0.42l-0.004-0.001c3.708,0,6.531-0.64,8.391-1.9c0.791-0.507,1.428-1.22,1.843-2.062c0.152-0.319,0.251-0.661,0.297-1.012c-1.236-0.501-2.55-0.78-3.883-0.825c-0.191-0.009-0.384-0.014-0.587-0.015c-2.866,0-7.224,0.935-11.823,5.39L245.989,236.971z M293.557,203.289c-0.453-0.212-0.943-0.334-1.443-0.359c-0.05-0.003-0.1-0.004-0.153-0.004c-0.075,0-0.152,0-0.232,0.004c-1.206,0.034-3.042,0.535-5.077,2.732c-2.338,2.523-4.425,6.67-6.2,12.326l-0.005,0.016l0.015-0.005l0.002-0.002c1.717-0.78,3.311-1.805,4.734-3.042C288.877,211.789,291.743,207.789,293.557,203.289z M303.166,219.581c-1.712-0.424-3.468-0.648-5.232-0.664c-0.12,0-0.24-0.003-0.363-0.003c-1.438-0.003-2.872,0.137-4.282,0.415c-3.199,0.668-6.049,2.469-8.027,5.07v0.004h0.007c1.983,0.485,4.018,0.724,6.06,0.71l-0.004,0.003c2.015,0.007,4.023-0.234,5.98-0.716c3.315-0.829,4.737-2.095,5.346-3.01c0.262-0.38,0.438-0.812,0.516-1.267c0.027-0.178,0.033-0.358,0.016-0.536L303.166,219.581z M316.118,187.191c-0.212-0.068-0.435-0.102-0.658-0.1c-0.882,0.014-1.824,0.411-3.095,1.287c-1.158,0.824-2.244,1.747-3.245,2.757c-1.271,1.263-2.473,2.593-3.6,3.986l-0.016,0.02c-0.133,0.237-1.268,2.285-2.154,4.279c-0.443,0.918-0.782,1.881-1.012,2.873c-0.087,0.29-0.087,0.6,0,0.891c0.037,0.094,0.105,0.173,0.193,0.224c0.069,0.03,0.145,0.046,0.22,0.045l-0.002-0.001c0.042,0,0.083-0.004,0.125-0.01c1.178-0.197,3.25-1.097,5.536-2.409c2.541-1.457,4.604-3.018,5.81-4.396c1.1-1.256,1.75-3.229,1.94-5.863C316.246,189.579,316.23,188.381,316.118,187.191z M284.319,226.51c-0.191-0.088-0.398-0.135-0.608-0.138c-0.491,0.018-0.954,0.225-1.294,0.579c-0.379,0.371-0.667,0.823-0.844,1.322c-0.177,0.417-0.209,0.88-0.09,1.318c0.146,0.368,0.503,0.609,0.9,0.605l-0.002,0.004c0.48,0.001,0.935-0.214,1.24-0.583c0.282-0.37,0.472-0.802,0.554-1.261c0.128-0.604,0.176-1.221,0.145-1.837L284.319,226.51L284.319,226.51z M303.732,207.163c-0.905,0.943-1.47,2.161-1.603,3.461h0.005c0.01,0,0.945,0.09,2.37,0.09l-0.004,0.001c1.867,0.005,3.731-0.155,5.57-0.476c2.147-0.391,3.364-2.216,4.007-3.678c0.432-0.999,0.734-2.051,0.9-3.127h-0.006C308.33,203.63,305.194,205.57,303.732,207.163z M253.632,241.023c-0.97-0.712-2.721-1.564-5.55-1.575h-0.059c-3.35,0-7.45,1.139-12.186,3.385c2.808,1.669,6.017,2.542,9.283,2.527c3.504-0.032,6.936-0.992,9.948-2.784h0.003v-0.004C254.704,241.962,254.214,241.434,253.632,241.023z M247.882,232.319c0.987-1.465,1.451-3.219,1.317-4.98v-0.007h-0.007c-0.436-0.1-0.882-0.15-1.329-0.147c-2.309,0-8.215,1.161-13.9,11.921l-0.003,0.007l0.006-0.003C242.645,237.871,246.324,234.733,247.882,232.319z M229.189,243.883l2.836-1.322l-1.515-1.703l-5.204,2.228L225,243.149l-0.305-0.063l-5.204-2.228l-1.515,1.703l2.835,1.322l0.43,0.133l-7.001,5.149l0.005,0.004c0.014,0.012,1.044,0.869,2.068,1.8c0.456,0.415,1.032,0.95,1.439,1.391c0.167,0.18,0.323,0.37,0.465,0.57c0.085,0.142,0.163,0.289,0.232,0.44l0,0c0.066-0.028,0.125-0.07,0.173-0.122l0.062-0.059c0.278-0.259,0.542-0.534,0.791-0.822c0.666-0.757,1.56-1.864,2.345-2.842c1.557-1.941,2.845-3.614,3.087-3.929l0.091-0.118l0.091,0.118c0.243,0.315,1.53,1.987,3.087,3.929c0.786,0.979,1.679,2.086,2.345,2.842c0.249,0.288,0.513,0.562,0.791,0.822l0.062,0.059c0.048,0.052,0.107,0.095,0.173,0.122l0,0c0.07-0.151,0.147-0.298,0.233-0.44c0.142-0.2,0.297-0.391,0.465-0.57c0.406-0.441,0.982-0.977,1.439-1.391c1.023-0.931,2.053-1.788,2.068-1.8l0.005-0.004l-7.001-5.149L229.189,243.883z M274.574,231.122c-0.244-0.006-0.49-0.009-0.738-0.01c-3.666,0-6.472,0.711-8.341,2.113c-0.522,0.314-0.91,0.809-1.089,1.391c-0.042,0.43,0.163,0.846,0.528,1.075c0.842,0.635,2.346,0.974,4.473,1.008l0.3,0.01l0.004-0.009c3.91,0,9.281-1.194,12.632-4.543l0.003-0.004h-0.01C279.789,231.552,277.189,231.206,274.574,231.122z M261.495,237.714h-0.056c-1.255,0-2.245,1.089-2.669,2.169c-0.231,0.477-0.28,1.022-0.137,1.533c0.213,0.446,0.677,0.717,1.17,0.685l0.002,0.005c0.599,0.012,1.174-0.23,1.585-0.667c0.354-0.412,0.598-0.908,0.71-1.439c0.16-0.691,0.22-1.401,0.176-2.109C262.029,237.784,261.764,237.724,261.495,237.714z" />
  <path fill="#D57800" d="M363.566,51.984c-2.242,0.668-5.042,1.062-6.877,2.911c-3.804-0.046-0.985,0.31-3.32,2.121c-1.117,0.037-2.595,0.372-3.487,1.016c-1.113,0.021-2.09-0.953-3.04-0.178c-1.418,1.36-2.81,2.75-4.852,2.249c-4.431,2.573-2.02-0.571-5.321,4.06c-1.052,0.125-1.617-0.519-1.637,1.021c-1.282,0.81-2.8,2.186-4.452,1.932c-0.542,0.53-2.254,0.754-2.988,0.744c-0.632,0.625-1.227,1.156-1.99,1.539c-0.749-0.155-1.841,0.645-2.129-0.239c-0.99,0.905-2.179,0.005-3.167-0.386c-0.818-0.064-0.575,0.636-0.77,1.154c-1.603,1.541-3.84,4.005-5.43,5.72c-2.952,1.178-6.425,3.296-9.316,4.717c-6.394,3.111-14.276,6.413-21.319,6.855c-1.524,0.771-4.18-0.178-5.829,0.118c-3.765,0.814-7.517,3.644-10.772,5.482c-0.947,0.124-2.792,1.587-2.366-0.285c-1.478,0.469-3.516,1.06-5.046,0.547c-4.964,1.534-10.981,2.796-16.074,2.728c-5.127,0.459-10.941,0.112-15.86-1.064c-0.916-0.438-2.068-0.375-2.953,0.001c-0.835-0.405-2.068-0.677-2.914-0.096c-4.078-2.398-5.711-0.512-9.419-1.296c-5.002-2.259-5.259-0.035-9.693,0.226c-2.01-0.366-4.029-1.989-6.161-1.301c-2.958-1.277-6.346-4.335-9.54-4.962c-0.1,1.313,0.769,3.07,0.428,4.495c3.366,7.101,0.985,16.024-1.61,23.337c-3.134,3.07-7.789,6.402-12.136,3.816c-0.662-0.715-2.428-1.513-3.416-1.533c-0.954-0.377-2.492-1.995-3.556-1.856c-1.861-0.835-4.415-0.51-6.088-1.591c-1.833-1.048-3.599,1.06-5.083,0.309c-1.068-0.192-1.069,1.443-1.885,1.51c-1.826-0.384-3.291,1.848-4.793,0.618c-2.435-1.116-0.121,1.523-3.682,3.539c-2.365,5.172-5.619,10.796-11.129,12.214c-7.65,3.195-12.983-8.543-15.528-6.354c-1.095,3.202-0.408,6.864,1.828,8.947c2.074,4.325,2.915,5.048,1.334,8.83c5.36,4.877-1.087,5.281,1.965,7.599c1.782,0.932,1.805,3.179,3.003,3.927c1.132-0.318,2.001,0.534,2.739,0.967c1.384,0.268,1.082,2.374,1.19,2.924c0.898,2.079,1.032,4.186,1.651,5.679c-0.22,1.43-0.446,3.1,1.255,2.487c1.549,0.122,1.753,2.818,3.265,2.129c2.069,0.87,4.435,5.097,6.386,3.516c2.896,0.654,6.649,1.383,9.023,3.137c2.505,2.276,5.989,2.658,8.613,3.828c2.073,0.296,4.063,2.084,5.425,0.329c2.532,0.452,3.367-0.658,4.927-1.536c2.281-0.35,4.575-0.061,6.067-1.038c1.073,0.555,2.332,0.158,2.818-0.056c1.268,0.147,3.206,0.698,3.643,1.209c0.55,0.891,1.373,1.035,1.864,1.009c-0.979,1.271,2.26,2.822,2.117,3.945c0.393,2.449,3.06,4.324,1.09,6.071c-0.019,0.713,0.619,0.047,0.888-0.01c0.406-0.001,1.407-0.098,1.621,0.031c1.368,0.185,2.523-1.39,3.62-0.329c1.682-0.134,6.177,2.506,3.771-0.837c-7.403-7.628,4.215-14.179,10.641-15.752c2.504-1.428,14.941,2.574,15.634-1.131c1.566-1.119,3.271-0.296,4.513-0.079c1.641-0.622,3.242-1.56,4.758-1.541c1.418-1.109,3.82-2.086,5.134-2.584c2.135-0.923,3.896-2.829,5.658-2.95c1.551-0.153,3.608,0.013,3.829-1.297c1.119,0.059,1.81-0.609,2.198-1.13c3.778-3.432,3.489-2.984,8.56-2.435c0.645,0.032,0.843-2.625,1.086-2.683c1.137-0.661,2.88-3.242,2.607-4.308c-0.264-8.604,2.106-13.136,11.17-12.291c11.919-1.316,9.763,9.081,16.859,1.257c1.277-1.89,5.22-0.535,6.278-2.463c1.453,0.352,3.024,0.37,4.192,0.687c1.337-0.409,2.547,0.007,3.338,0.75c1.572-0.063,3.359,2.504,4.841,1.56c0.234,0.974,1.813,0.367,1.153-0.448c-0.901-0.016-1.847-1.269-1.944-1.875c1.514-0.938-0.074-1.833-0.55-2.592c-2.294-4.892-7.599-7.486-10.536-11.638c-1.059-2.958-4.359-5.143-5.828-7.771c-0.729-0.578-2.4,0.08-1.019-0.961c1.697-0.039-0.425-3.146-0.336-3.77c-0.455-4.168,2.264-8.743,4.295-11.732c2.369-4.906,7.402-2.173,10.972-2.847c2.817-0.233,2.792-3.086,3.443-4.762c2.099-3.634,6.733-7.025,9.662-9.051c5.173-3.4,14.233-5.687,17.373-10.5c5.246-3.215,7.455-3.189,9.87-8.746c3.682-3.284,10.963-5.851,14.973-7.143c0.974-0.869,0.146-2.421,0.544-3.085c0.808-0.564,0.392-1.485,0.732-1.982C362.92,52.607,363.703,52.489,363.566,51.984z" />
</svg>
