<svg xmlns="http://www.w3.org/2000/svg" width="450px" height="300px" viewBox="0 0 450 300">
  <path fill="#FFFFFF" d="M195,0h60l195,120v60L255,300h-60L0,180v-60L195,0z" />
  <path fill="#002D62" d="M0,0h195v120H0V0z M255,180h195v120H255V180z" />
  <path fill="#CE1126" d="M0,180h195v120H0V180z M255,0h195v120H255V0z" />
  <path fill="#201B18" d="M216.7,122.9c-4.1-0.1-8.3,0.9-11.8,3c-1.6,1-2,1.3-1.1,2.9c-0.2,0.1-1.7,0.6-2,0.7c-1.3,0.5-2.7,1-3.8,1.7c-0.7,0.4-1,0.7-1.5,1.3l3.3-0.3c-0.1,0.2-0.3,0.5-0.5,0.7c-0.6,0.8-0.9,1.5-1.4,2.3c0.9-0.6,1.8-1.2,2.9-1.8c2.4-1.2,6.6-1.2,8.4-3.3c0.4-0.5,0.2-0.8-0.2-1.7c1.3-0.4,1.8-0.7,3.3-1.1c3.8-0.8,6.4,0.2,8.2-0.3c0.6-0.1,1.1-0.5,1.2-1.1l-0.3-1.9h6.2c0,1.1-1,2.5,0.9,3c1.7,0.5,5.2-0.5,8.2,0.3l3.3,1.1c0,0.2-0.3,0.6-0.3,0.8c-0.1,0.4-0.1,0.6,0.1,0.9c0.3,0.4,0.8,0.7,1.3,1c1,0.6,2.3,0.9,3.5,1.2c3.5,0.8,3.8,1.1,6.5,2.9c-0.2-0.5-1.4-2.4-1.9-3l3.3,0.3c-0.6-0.9-2.3-1.8-3.3-2.2l-4-1.5c0.4-0.7,0.7-1.3,0.3-1.9c-0.6-0.8-3.9-2.5-4.7-2.7c-1.4-0.4-2.9-0.7-4.4-0.9c-1.4-0.2-4.2-0.4-4.2-0.4c-0.2-0.2,0.4-1.3-0.5-2.1c-0.5-0.4-1.3-0.6-2-0.6c-3.1-0.3-7.2-0.2-10.3,0c-0.9,0.1-1.5,0.2-2,0.6C216.7,121.5,216.6,121.8,216.7,122.9L216.7,122.9z" />
  <path fill="#002D62" d="M228.5,124c-1.3-0.1-2.7-0.1-4-0.1c-1.7,0-4.1,0-5.7,0.5c-0.7,0.2-0.8,0.4-1.2,0.8l0,0c-0.2-0.3-0.6-2-0.6-2.5c-0.1-1,0.5-1.6,1.3-1.9s4.9-0.3,6.1-0.3c1.8,0,4.5,0,6.1,0.3c1,0.2,1.6,0.5,1.6,1.6c0,1-0.2,1.8-0.4,2.8C230.7,124.3,229.9,124.1,228.5,124z M205.5,130.4L205.5,130.4L205.5,130.4L205.5,130.4z M217.9,126.3c-0.5-0.2-0.6-0.9-0.8-1.4l-0.5-1.7c-2.6-0.3-7,0.7-9.3,1.8c-1.1,0.5-2.8,1.4-3.5,2.1c-0.6,0.6,0,1.5,0.3,1.9c0.4,0.5,1,1.2,1.3,1.5c0.3-0.3,0.1-0.5,1.4-1.2c1.6-0.9,3.9-1.7,5.8-2.1c1.6-0.3,3.3-0.3,5-0.2c0.7,0.1,1.7,0.2,2.5,0.1c0,0,0.8-0.2,1-0.4c0.3-0.3,0.3-0.9,0.3-0.9C220.9,125.3,219.3,126.8,217.9,126.3z M242.8,129.7l0.6,0.7c0.2-0.1,1.1-1.2,1.3-1.5c0.4-0.5,0.9-1.3,0.3-1.9c-0.5-0.6-2.6-1.7-3.5-2.1c-1.3-0.5-3.2-1-4.8-1.3s-4.7-0.5-4.7-0.5s-0.2,2.9-1,3.2c-1.6,0.5-2.3-0.8-3.5-0.6c-0.1,0.9,0.5,1.2,1.3,1.3c1.6,0.2,4.1-0.5,7.4,0.1c1.4,0.3,2.8,0.7,4,1.2C240.8,128.5,242.5,129.3,242.8,129.7z M208.1,129.5c0.4-0.3,0.4-0.3,0.9-0.5l-0.2-0.4c-0.4,0.1-1.3,0.6-1.7,0.8c-0.5,0.3-1.1,0.7-1.3,1.2l0,0C206.2,131.4,207.4,130,208.1,129.5z M251.7,132.1l-0.1-0.1c-1.4-1.2-4.9-2.3-6.6-2.9c-0.5,0.6-1,1.2-1.5,1.7c-0.2,0.2-0.4,0.3-0.8,0.2c-0.5-0.2-1-0.6-1.3-0.9c-0.3-0.3-1-0.8-1.4-0.9l0,0c-0.1,0.5-0.3,0.5,0.5,1.2c1.9,1.6,5.2,1.7,7.2,2.6c1,0.5,1.6,0.8,2.5,1.4c-0.1-0.3-1.3-2-1.6-2.4C249.6,132,250.8,132,251.7,132.1z M227.9,124.2l-0.2,1.2c1,0.1,1.1,0.3,1.9,0.6c0.3,0.1,0.7,0.2,1.1,0.2c0.5,0,0.6-0.1,0.7-0.5c0.2-0.6-0.8-1-1.3-1.1L227.9,124.2z M218.4,126.1c1.3,0.1,1.5-0.7,3-0.7l-0.2-1.2c-0.7-0.1-3.7,0.4-3.5,1.4C217.8,126,217.9,126.1,218.4,126.1z M209,129.3c-0.4,0-1.1,0.6-1.4,0.9c-0.3,0.3-0.7,0.8-1.3,0.9c-0.4,0.1-0.6,0-0.8-0.2s-0.8-0.9-1-1.2c-0.2-0.2-0.3-0.4-0.5-0.6c-1.8,0.6-5.2,1.7-6.6,2.9c-0.1,0-0.1,0.1-0.1,0.1c0.9-0.1,2.1-0.1,3-0.1c-0.3,0.5-1.5,2.2-1.6,2.4c0.9-0.6,1.5-0.9,2.5-1.4c2-0.9,5.3-1,7.2-2.6C209.3,129.8,209.1,129.8,209,129.3L209,129.3z M240.3,128.6c-0.1,0.1-0.2,0.2-0.3,0.4c0.1,0.1,0.3,0.1,0.5,0.2c1,0.6,2.2,2.1,2.6,1.5c0.3-0.4-0.8-1.1-1.1-1.3L240.3,128.6z" />
  <path fill="#EAC102" d="M209.4,124.9c-0.3,0-0.5,0.1-0.8,0.2c-0.1,0-0.3,0.1-0.1,0.2c0.1,0.1,0.1,0.2,0.2,0.3c0.1,0.2,0.1,0.4,0.2,0.6c0.1,0.3,0.2,0.6,0.3,0.9c0,0.1-0.1,0.3,0.1,0.2c0.2-0.1,0.3-0.1,0.5-0.2s0.4-0.2,0.5-0.4c0.1-0.1,0.1-0.2,0.1-0.3c0-0.1,0-0.2,0-0.3c0-0.1,0-0.3-0.1-0.4c-0.1-0.2-0.1-0.3-0.3-0.5c-0.1-0.1-0.2-0.2-0.4-0.3C209.6,124.9,209.5,124.9,209.4,124.9L209.4,124.9z M209.3,125.1c0.2,0,0.3,0.2,0.4,0.3c0.1,0.2,0.1,0.3,0.2,0.5c0.1,0.2,0.2,0.5,0.1,0.8c0,0.1-0.2,0.2-0.3,0.3c-0.1,0.1-0.2,0-0.2-0.2c0-0.1-0.1-0.2-0.1-0.4c-0.1-0.2-0.1-0.4-0.2-0.7c-0.1-0.1-0.1-0.3-0.1-0.4C209,125.1,209.2,125.1,209.3,125.1L209.3,125.1L209.3,125.1z M210.4,124.5c0,0.1,0.2,0.1,0.2,0.2s0.1,0.3,0.1,0.4s0.1,0.2,0.1,0.3c0,0.1,0.1,0.3,0.1,0.4s0.1,0.3,0.1,0.4s0.1,0.2,0,0.3v0.1c0.1,0,0.2-0.1,0.3-0.1s0.2,0,0.2-0.1c-0.1-0.1-0.2-0.1-0.2-0.2c0-0.2-0.1-0.3-0.1-0.5c0-0.1-0.1-0.2-0.1-0.3c0-0.1,0-0.2-0.1-0.3c-0.1-0.2-0.1-0.4-0.2-0.5c0-0.1-0.1-0.2,0-0.2c0-0.1-0.1,0-0.2,0C210.6,124.4,210.5,124.5,210.4,124.5z M212.2,124c-0.2,0-0.3,0.1-0.4,0.2c-0.1,0.1-0.2,0.3-0.2,0.5s0,0.3,0,0.5c0.1,0.3,0.2,0.5,0.3,0.7c0.1,0.1,0.3,0.2,0.4,0.3c0.1,0,0.3,0,0.4,0c0.2-0.1,0.4-0.2,0.4-0.5c0.1-0.1,0.1-0.3,0.1-0.4s-0.1-0.3-0.1-0.4c0-0.2-0.1-0.3-0.2-0.4c-0.1-0.1-0.2-0.2-0.3-0.3C212.5,124.1,212.4,124,212.2,124L212.2,124L212.2,124z M212.2,124.2c0.2,0,0.3,0.2,0.4,0.3c0.1,0.2,0.2,0.5,0.2,0.7c0,0.1,0,0.2,0.1,0.3c0,0.1,0,0.3,0,0.4c-0.1,0.1-0.3,0.2-0.4,0.1c-0.1-0.1-0.2-0.2-0.2-0.3c0-0.2-0.1-0.3-0.1-0.5c0-0.1-0.1-0.2-0.1-0.4c0-0.2-0.1-0.4,0-0.6C212,124.2,212.1,124.2,212.2,124.2L212.2,124.2z M213.7,123.8c-0.1,0.1-0.1,0.2-0.2,0.3c0,0.1,0,0.3,0,0.4s0.1,0.2,0.2,0.3c0.2,0.1,0.4,0.2,0.5,0.3c0.1,0,0.3,0.1,0.3,0.3c0,0.1,0,0.2,0,0.3c0,0.1-0.1,0.2-0.3,0.2c-0.1,0-0.2,0-0.3-0.1s-0.2-0.2-0.2-0.4c0-0.1-0.1,0-0.1,0.1s0,0.2,0,0.3c0.1,0.1,0.2,0.1,0.3,0.2s0.2,0.1,0.3,0.1s0.2,0,0.3-0.1s0.2-0.1,0.3-0.2s0.1-0.3,0.1-0.5s-0.2-0.4-0.4-0.5c-0.1-0.1-0.2-0.1-0.4-0.2c-0.1-0.1-0.3-0.2-0.3-0.3c0-0.1,0-0.3,0.1-0.3c0.1-0.1,0.2,0,0.3,0.1s0.1,0.2,0.2,0.2c0,0.1,0.2,0.1,0.1,0c0-0.1,0.1-0.2,0-0.3c-0.1-0.1-0.2-0.1-0.3-0.1s-0.3,0-0.4,0.1C213.7,123.8,213.7,123.8,213.7,123.8L213.7,123.8z M220.6,121.1c-0.2,0-0.4,0-0.5,0.1s-0.3,0-0.3,0.1c0.1,0.1,0.1,0.2,0.1,0.3c0,0.2,0,0.3,0,0.5c0,0.1,0,0.2,0,0.4c0,0.2,0,0.4,0,0.5s0.1,0.3,0,0.3c-0.1,0.1,0.1,0.1,0.1,0.1c0.1,0,0.3,0,0.4,0c0.1,0,0-0.1,0-0.1c-0.1-0.1-0.1-0.3-0.1-0.4s0-0.2,0-0.3c0.1-0.1,0.3,0,0.4-0.1c0.2-0.1,0.5-0.2,0.5-0.5c0.1-0.2-0.1-0.5-0.2-0.6C220.9,121.2,220.8,121.1,220.6,121.1L220.6,121.1z M220.6,121.3c0.2,0,0.3,0.1,0.3,0.3c0,0.1,0,0.2,0,0.4c0,0.2-0.2,0.3-0.3,0.3s-0.2,0-0.2-0.1s0-0.3,0-0.4s-0.1-0.3,0-0.4C220.4,121.3,220.5,121.3,220.6,121.3L220.6,121.3z M222.2,121c-0.1,0-0.2,0.1-0.2,0.2s0,0.3-0.1,0.4c0,0.2-0.1,0.4-0.1,0.6c-0.1,0.3-0.1,0.5-0.2,0.8c0,0.1-0.2,0.2-0.1,0.2c0.1,0,0.3,0,0.4,0c0.1,0-0.1-0.1-0.1-0.2s0-0.2,0-0.3c0-0.1,0-0.1,0.1-0.1h0.5c0,0.1,0.1,0.3,0.1,0.4s-0.1,0.2,0,0.2c0.2,0,0.3-0.1,0.4,0c0.1,0,0-0.1-0.1-0.2s-0.1-0.3-0.1-0.4c0-0.2-0.1-0.4-0.1-0.5s-0.1-0.2-0.1-0.3c-0.1-0.2-0.1-0.4-0.2-0.6C222.4,121,222.3,121,222.2,121L222.2,121z M222.1,121.5c0.1,0.3,0.1,0.5,0.2,0.8c0.1,0.1,0,0.2-0.1,0.1c-0.1,0-0.3,0.1-0.3-0.1c0-0.1,0.1-0.2,0.1-0.3c0-0.1,0.1-0.3,0.1-0.4C222.1,121.6,222.1,121.6,222.1,121.5L222.1,121.5z M223.9,121h-0.8c0,0.1,0,0.2,0,0.2v0.3c0.1,0,0.1-0.1,0.2-0.1c0.1-0.1,0.2-0.2,0.3-0.2s0.2,0,0.1,0.1c0,0.1,0,0.2,0,0.3c0,0.5,0,1,0,1.4c0,0.1-0.1,0.1-0.1,0.1h0.2c0.1,0,0.2,0,0.4,0c0.1,0,0.1-0.1,0-0.1c0-0.1,0-0.2,0-0.3c0-0.5,0-1,0-1.5c0.1,0,0.1-0.1,0.2,0c0.1,0,0.1,0.1,0.2,0.1l0.1,0.2c0,0,0.1,0.1,0.1,0s0-0.2,0-0.3c0-0.1,0-0.2-0.1-0.2C224.4,120.9,224.1,121,223.9,121L223.9,121z M225.7,120.9c-0.2,0-0.3,0-0.5,0c-0.1,0-0.2,0-0.1,0.1c0.1,0.1,0.1,0.2,0.1,0.3c0,0.5,0,1,0,1.5c0,0.1,0,0.2-0.1,0.2c0,0.1,0.2,0,0.2,0c0.1,0,0.3,0,0.4,0c0-0.1-0.1-0.1-0.1-0.2v-0.7c0.1,0,0.2,0,0.2,0.2c0,0.1,0.1,0.2,0.1,0.3c0.1,0.1,0.1,0.2,0.2,0.3c0.1,0.1,0.2,0.2,0.3,0.2s0.2,0,0.2,0.1c0-0.1-0.1-0.2-0.1-0.2c-0.1-0.1-0.1-0.3-0.2-0.5c0-0.1-0.1-0.2-0.1-0.3c-0.1-0.1,0.1-0.1,0.1-0.1c0.1-0.1,0.2-0.2,0.3-0.3c0.1-0.1,0.1-0.3,0.1-0.4s-0.1-0.2-0.1-0.3c-0.1-0.1-0.2-0.1-0.3-0.2c-0.1,0-0.2-0.1-0.4-0.1C225.8,120.9,225.7,120.9,225.7,120.9L225.7,120.9z M225.8,121.1c0.1,0,0.2,0.1,0.3,0.1c0.1,0.1,0.1,0.2,0.1,0.3c0,0.1,0,0.2,0,0.3c0,0.1-0.1,0.2-0.3,0.3c-0.1,0-0.2,0-0.3,0c0-0.1,0-0.2,0-0.2c0-0.2,0-0.4,0-0.6C225.6,121.1,225.7,121.1,225.8,121.1L225.8,121.1z M227.2,121.3c0,0.1,0,0.2,0,0.3c0,0.2,0,0.3,0,0.5c0,0.3,0,0.6,0,0.9c0,0.1,0,0.2-0.1,0.2c0,0-0.1,0.1,0,0.1s0.2,0,0.2,0c0.1,0,0.2,0,0.3,0s-0.1-0.1,0-0.1c-0.1-0.1,0-0.2,0-0.4c0-0.3,0-0.5,0-0.8c0-0.2,0-0.3,0-0.5c0-0.1,0-0.2,0.1-0.3c0,0,0.1-0.1,0-0.1s-0.2,0-0.4,0c-0.1,0-0.2,0-0.2,0S227.2,121.2,227.2,121.3L227.2,121.3z M228.8,121.2c0,0.2-0.1,0.3-0.2,0.5c0,0.1-0.1,0.2-0.1,0.3c-0.1,0.2-0.1,0.3-0.2,0.5c-0.1,0.2-0.1,0.4-0.3,0.6c-0.1,0-0.1,0.2,0,0.1c0.1,0,0.2,0,0.3,0s0.1-0.1,0-0.1c-0.1-0.1-0.1-0.2,0-0.3c0-0.1,0.1-0.2,0.2-0.2c0.1,0,0.2,0,0.4,0c0,0.1,0.1,0.2,0.1,0.4c0,0.1-0.1,0.2,0,0.2s0.3,0,0.4,0c0.1,0,0.1,0,0.1-0.1c-0.1-0.2-0.1-0.4-0.1-0.6s-0.1-0.4-0.1-0.6s-0.1-0.4-0.1-0.6c0-0.1,0-0.2-0.1-0.3c0-0.1-0.1-0.1-0.1-0.1C228.9,121.2,228.9,121.2,228.8,121.2L228.8,121.2z M228.8,121.7c0.1,0.1,0,0.3,0.1,0.4c0,0.2,0,0.3,0.1,0.5c0,0.2-0.2,0.1-0.3,0.1s-0.2,0-0.2-0.1s0.1-0.2,0.1-0.3c0-0.1,0.1-0.2,0.1-0.3C228.8,121.9,228.7,121.8,228.8,121.7L228.8,121.7L228.8,121.7z M232.8,123.9c0,0.1,0.1,0.1,0.1,0.2c0,0.2,0,0.5,0,0.7c0,0.4,0,0.7,0,1.1c0,0.1,0,0.1-0.1,0.1c-0.1,0.1,0,0.1,0.1,0.1h1.1c0-0.2,0.1-0.3,0.1-0.5c0-0.1-0.1,0-0.1,0c-0.1,0.1-0.2,0.3-0.4,0.3c-0.1,0-0.2,0-0.3,0c0-0.1,0-0.2,0-0.3c0-0.5,0-1,0-1.5c0-0.1,0-0.2,0.1-0.3L232.8,123.9z M234.2,126h0.6c0-0.1-0.1,0-0.1-0.2c0-0.1,0-1.7,0-1.8c0-0.2,0.1-0.1,0.1-0.2h-0.6c0,0.2,0.1,0,0.1,0.2c0,0.1,0,0.2,0,0.3c0,0.3,0,1.3,0,1.5S234.2,125.9,234.2,126L234.2,126z M235.2,123.8c0,0.1,0.1,0.1,0.1,0.2c0,0.2,0,0.5,0,0.7c0,0.3,0,0.6,0,0.9c0,0.1,0,0.2-0.1,0.3c0,0-0.1,0.1,0,0.1c0.2,0,0.5,0,0.7,0.1c0.2,0,0.4,0,0.5-0.1c0.2-0.1,0.3-0.4,0.2-0.7c0-0.1-0.1-0.2-0.2-0.3c-0.1-0.1-0.1-0.1-0.2-0.2c0.2,0,0.4-0.2,0.4-0.4c0-0.2,0-0.3-0.1-0.5l-0.1-0.1c-0.1-0.1-0.2-0.1-0.3-0.1C235.7,123.8,235.4,123.8,235.2,123.8L235.2,123.8z M235.7,124c0.1,0,0.2,0,0.3,0.1s0.1,0.4,0,0.6c0,0.1-0.1,0.1-0.2,0.1c-0.1,0-0.2,0-0.3,0c0-0.2,0-0.4,0-0.6C235.6,124.2,235.6,124.1,235.7,124L235.7,124z M235.6,125c0.2,0,0.3,0,0.5,0.2c0.1,0.1,0.1,0.3,0.1,0.5s-0.2,0.4-0.4,0.3c-0.1,0-0.2-0.1-0.2-0.2C235.5,125.5,235.5,125.2,235.6,125L235.6,125z M236.6,126.2c0,0.1,0.2,0.1,0.2,0.1c0.2,0,0.4,0.1,0.5,0.1c0.2,0,0.3,0.1,0.5,0.1c0-0.1,0.1-0.2,0.1-0.3c0.1-0.1-0.1-0.1-0.1-0.1c-0.1,0.1-0.4,0.2-0.5,0.1c-0.1,0-0.2-0.1-0.2-0.2c0-0.3,0-0.5,0.1-0.8c0.1,0,0.2,0,0.3,0s0.2,0.2,0.2,0.3c0.1,0.1,0.1-0.1,0.1-0.2c0-0.2,0-0.3,0-0.4c-0.1,0-0.2,0.2-0.3,0.1c-0.1,0-0.3,0-0.3-0.1c0-0.2,0.1-0.3,0.1-0.5c0.2-0.1,0.4,0,0.5,0.2c0.1,0.1,0.1,0.2,0.2,0.2c0-0.1,0-0.3,0-0.5c-0.1-0.1-0.2-0.1-0.3-0.1c-0.3-0.1-0.6-0.1-0.8-0.2c-0.2,0,0.1,0.1,0,0.2c-0.1,0.3-0.1,0.7-0.1,1s-0.1,0.5-0.1,0.8C236.7,126.1,236.7,126.2,236.6,126.2L236.6,126.2z M238.5,124.4c0.1,0.1,0.1,0.3,0,0.4c-0.1,0.3-0.2,0.7-0.2,1c0,0.2-0.1,0.4-0.1,0.6c0,0.1-0.2,0.2-0.1,0.2c0.1,0.1,0.3,0.1,0.4,0.1c0.1,0,0-0.1,0-0.2c0-0.2,0.1-0.3,0.1-0.4s0-0.2,0.1-0.2s0.1,0.2,0.1,0.3c0,0.2,0.1,0.5,0.2,0.7c0.1,0.1,0.2,0.2,0.3,0.3c0-0.1-0.1-0.2-0.1-0.3c0-0.2,0-0.3-0.1-0.5V126c0.1,0,0.3-0.1,0.4-0.2c0.1-0.2,0.2-0.4,0.1-0.6c-0.1-0.2-0.2-0.4-0.4-0.5s-0.5-0.1-0.7-0.2C238.6,124.5,238.5,124.4,238.5,124.4L238.5,124.4z M239,124.7c0.2,0,0.3,0.1,0.4,0.2c0.1,0.2,0.1,0.5-0.1,0.7c-0.1,0.1-0.2,0.1-0.3,0.1s-0.2,0-0.2-0.2s0.1-0.4,0.1-0.6C238.9,124.8,238.9,124.8,239,124.7L239,124.7z M239.9,125.5c0.1,0,0.2-0.1,0.3-0.1s0.2-0.1,0.3,0s0,0.2,0,0.3c0,0.1-0.1,0.3-0.1,0.4l-0.2,1c0,0.1,0,0.2-0.2,0.2c-0.1,0.1,0.1,0.1,0.2,0.2c0.1,0.1,0.2,0.1,0.4,0.1c0-0.1-0.1-0.2,0-0.3c0-0.3,0.1-0.5,0.2-0.8c0.1-0.3,0.2-0.6,0.2-0.9c0.1,0,0.2,0.1,0.3,0.2c0,0.1,0.1,0.2,0.1,0.3c0.1-0.1,0.1-0.2,0.1-0.3v-0.2c-0.2-0.1-0.4-0.1-0.5-0.2s-0.3-0.1-0.4-0.2l-0.4-0.2C240,125.1,240,125.3,239.9,125.5C239.9,125.4,239.9,125.4,239.9,125.5L239.9,125.5z M242,125.9c-0.1,0.1-0.1,0.2-0.2,0.2c-0.1,0.1-0.1,0.2-0.2,0.3c-0.2,0.3-0.4,0.6-0.5,0.9c-0.1,0.1-0.2,0.2-0.3,0.3c-0.1,0.1,0.1,0.1,0.2,0.2c0.1,0,0.2,0.1,0.2,0.1c0-0.1-0.1-0.2,0-0.3c0-0.1,0.1-0.3,0.2-0.2c0.1,0.1,0.3,0.1,0.4,0.2c0,0.1,0,0.2,0,0.3c0,0.1-0.1,0.2-0.1,0.3c0.1,0.1,0.2,0.1,0.3,0.2c0.1,0,0.2,0.1,0.2,0s0-0.3,0-0.4c0.1-0.1,0-0.2,0-0.3c0-0.2,0-0.3,0-0.5c0-0.3,0-0.5,0.1-0.8c0-0.1,0.1-0.2,0-0.3C242.2,126,242.1,125.9,242,125.9L242,125.9z M241.9,126.3v0.1c0,0.3-0.1,0.5-0.1,0.8c0,0.1-0.2,0-0.2,0c-0.1-0.1-0.2-0.1-0.1-0.2c0.1-0.1,0.2-0.3,0.3-0.4C241.8,126.5,241.8,126.4,241.9,126.3L241.9,126.3z M243.2,126.6c0,0.1,0,0.3-0.1,0.4s-0.1,0.3-0.2,0.4c-0.1,0.1-0.1,0.3-0.2,0.4c-0.1,0.2-0.2,0.4-0.3,0.6c-0.1,0-0.2,0-0.1,0.1c0.1,0.1,0.2,0.2,0.3,0.3s0.3,0.2,0.4,0.4c0.2,0.1,0.5,0.2,0.7,0.1c0.1-0.1,0.2-0.2,0.3-0.3s0.1-0.3,0.2-0.4c0.1-0.2,0.1-0.4,0.1-0.6c0-0.3-0.2-0.6-0.4-0.8c-0.1-0.1-0.3-0.2-0.4-0.3C243.3,126.7,243.3,126.7,243.2,126.6L243.2,126.6z M243.6,127.2c0.2,0.1,0.3,0.3,0.3,0.5c0,0.3-0.2,0.6-0.3,0.9c-0.1,0.2-0.2,0.3-0.4,0.4c-0.1,0-0.3-0.1-0.4-0.2c-0.1-0.1,0-0.3,0.1-0.4c0.2-0.3,0.3-0.5,0.5-0.8C243.4,127.4,243.4,127.3,243.6,127.2C243.5,127.2,243.6,127.2,243.6,127.2L243.6,127.2z" />
  <path fill="#006300" d="M217.2,174.4c0.4,0.1,1.2,0.5,1.5,0.7l1.1,2.1c0.4,0.3,0.4,0.2,0.9,0.4l-2.7,1.1c-0.8,0.3-0.5,1-0.1,1.1s1.2-0.2,1.5-0.4c1.3-0.6,2.6-1.2,3.8-2c0.2-0.1,1.1-0.7,1.3-0.7l4.8,2.7c0.3,0.2,1,0.6,1.4,0.3c0.2-0.1,0.4-0.3,0.3-0.6c-0.1-0.3-0.3-0.3-0.5-0.4c-0.4-0.2-2.5-1.1-2.6-1.1l0.6-0.2c0.2-0.1-0.1-0.5,0.1-0.4l1.2-1.9l1.5-0.5C231.2,173.2,220.1,172.3,217.2,174.4z" />
  <path fill="#FFFF00" d="M217.9,179c-0.4,0.1-0.3,0.9,0.5,0.6C219,179.4,218.6,178.8,217.9,179L217.9,179z M229.7,179c-0.1,0.3-0.1,0.4,0.2,0.5s0.5,0.1,0.7-0.1c0.3-0.3,0.1-0.4-0.2-0.5c-0.2-0.1-0.1-0.1-0.2-0.1C230,179,229.9,179,229.7,179z" />
  <g>
    <path fill="#FFFFFF" d="M211.4,136.9c0,0.2,0,19.6,0,21.6c0,1.9,0,3.1,0.9,4.3c0.7,1,2,1.9,3.2,2.2c0.9,0.2,4.1,0.1,5.2,0.1c2.5-0.1,2.8,0.4,3.7,1.7c1.1-1.7,2.2-1.7,4.4-1.7c1.1,0,3.5,0.1,4.5-0.1c1.2-0.3,2.1-0.8,2.9-1.8c1.3-1.4,1.2-3.2,1.2-5.1v-20.4c0-0.9-0.1-0.7,0.4-1.2l3.1-3.2h-32.8L211.4,136.9L211.4,136.9z" />
    <path fill="#CE1126" d="M227.1,146.5v-13.2H241l-3.5,3.8v9.4H227.1z M221.7,151.9h-10.3v8.3c0.5,3.6,3.1,4.9,5.6,4.9c1.6,0,2.2,0,4.8,0v-13.2H221.7z" />
    <path fill="#002D62" d="M221.7,146.5v-13.2h-13.6l3.4,3.6v9.6L221.7,146.5L221.7,146.5z M227.1,151.9h10.5v8.2c-0.2,3.6-3.107,5.118-5.607,5.118L227,165.212L227.1,151.9z" />
    <path fill="none" stroke="#000000" stroke-width="0.2418" stroke-miterlimit="4.2614" d="M211.5,136.9c0,0.2,0,19.6,0,21.6c0,1.9,0,3.1,1,4.4c0.8,1,1.8,1.9,3.2,2.1c0.9,0.2,4.1,0.1,5.2,0.1c1.4,0,2.1-0.1,3,0.9c0.3,0.3,0.4,0.4,0.6,0.8c0.1-0.1,0.1-0.1,0.2-0.2c0.3-0.6,0.8-1,1.4-1.2c0.7-0.3,2-0.2,2.9-0.2c1.1,0,3.5,0.1,4.5-0.1c1.2-0.3,2.2-1,2.9-1.8c1.3-1.4,1.2-3.2,1.2-5.1v-20.4c0-0.9-0.1-0.7,0.4-1.2l3.1-3.2h-32.8L211.5,136.9L211.5,136.9z" />
    <path fill="#EAC102" stroke="#000000" stroke-width="0.1454" stroke-miterlimit="4.2614" d="M223.9,136.5v1.5h-1.5v1.2h1.5v5.3h1.2v-5.3h1.5V138h-1.5v-1.5H223.9z" />
    <g>
      <path fill="#FFFFFF" d="M215.3,138.5v2.4l-1-1l0.2,17c0,2.5,1.7,4.6,4,4.6c2.2,0,4-2,4.1-4.5l-0.2-8.8l-1.1-1.1v-0.9L215.3,138.5z	 M233.7,138.5v2.4l1-1l-0.199,16.9c0,2.5-1.701,4.7-4.001,4.7c-2.2,0-4-2-4.1-4.5l0.2-8.8l1.1-1.1v-0.9L233.7,138.5z" />
      <path fill="#002D62" d="M215.3,138.172V141l-1-1l0.1,9.7l4.4,4.2v-9.599l-0.2-0.235v-1.6L215.3,138.172z M222.6,157.4	c-1.7,1.2-2.1-0.6-2.1-0.6c1.2-0.1,1.8-0.9,2.1-1.6V157.4z M233.7,138.6v2.4l1-1l-0.1,9.7l-4.4,4.2v-9.3l0.2-0.2v-1.6L233.7,138.6	z M226.4,157.4c1.7,1.2,2.1-0.6,2.1-0.6c-1.2-0.1-1.8-0.9-2.1-1.6V157.4z" />
      <path fill="#CE1126" d="M220.1,144.6l1.3,1.6v0.6l-1.3-1.3V144.6z M222.5,148.3l0.1,6.1c-0.6,1.2-1.9,0.5-1.9,0.5v-8.4	L222.5,148.3z M214.5,152.1c2.3,2.6,4.2,4,4.2,4c0.5,4.1,2.9,2.7,3.8,2.1c-0.5,1.9-2.1,3.3-3.9,3.3c-2.3,0-4.1-2.1-4.1-4.6V152.1z	 M229,144.6l-1.3,1.6v0.6l1.3-1.3V144.6z M226.6,148.3l-0.3,5.736c0.6,1.2,2.1,0.864,2.1,0.864v-8.598L226.6,148.3z M234.6,152.1	c-2.3,2.6-4.2,4-4.2,4c-0.5,4.1-2.9,2.7-3.8,2.1c0.1,1.8,2.1,3.3,3.9,3.3c2.3,0,4-2.1,4-4.6L234.6,152.1z" />
      <path fill="none" stroke="#000000" stroke-width="0.1396" stroke-miterlimit="4.2614" d="M221.4,146.8v-0.6l-6-7.7v2.1	L221.4,146.8z M214.3,139.9l0.2,17c0,2.5,1.8,4.6,4.1,4.6c2.2,0,4-2,4.1-4.5l-0.2-8.8L214.3,139.9z M227.7,146.8v-0.6l6-7.7v2.1	L227.7,146.8z M234.7,139.9l-0.2,17c0,2.5-1.8,4.6-4.1,4.6c-2.2,0-4-2-4.1-4.5l0.2-8.8L234.7,139.9z" />
      <path fill="#EAC102" stroke="#000000" stroke-width="0.0341" stroke-miterlimit="4.2614" d="M217.6,137c-0.4-0.8-0.3-1.1,0-1.4	L216,134l0.4,2.2C216.9,136.1,217.2,136.2,217.6,137z M214.9,137.5c-0.5-0.7-0.5-1.1-0.2-1.4l-1.8-1.4l0.7,2.2	C214.1,136.7,214.4,136.8,214.9,137.5z M214.4,139.7c-0.6-0.7-0.6-1-0.4-1.4l-1.9-1.2l0.9,2.1C213.5,139,213.9,139,214.4,139.7z	 M231.4,137c0.4-0.8,0.3-1.1,0-1.4l1.6-1.6l-0.4,2.2C232.2,136.1,231.8,136.2,231.4,137z M234.2,137.5c0.5-0.7,0.5-1.1,0.2-1.4	l1.8-1.4l-0.7,2.2C235,136.7,234.7,136.8,234.2,137.5z M234.6,139.7c0.6-0.7,0.6-1,0.4-1.4l1.9-1.2l-0.9,2.1	C235.5,139,235.2,139,234.6,139.7z" />
      <path fill="#EAC102" stroke="#000000" stroke-width="0.0341" stroke-miterlimit="4.2614" d="M216,134l1.6,3 M212.9,134.7l2,2.8	 M212.2,137.2l2.3,2.5 M233,134l-1.6,3 M236.2,134.7l-2,2.8 M236.9,137.2l-2.3,2.5" />
      <path fill="#EAC102" stroke="#000000" stroke-width="0.0341" stroke-miterlimit="4.2614" d="M224,147.4l-0.4,0.2l-6.4-10.9	l0.4-0.2L224,147.4z M222.5,147l-0.4,0.2l-7.7-10l0.3-0.3L222.5,147z M222.7,148.5l-8.7-9l0.3-0.3l8.8,9.1L222.7,148.5z	 M225.1,147.4l0.4,0.2l6.4-10.9l-0.4-0.2L225.1,147.4z M226.6,147l0.4,0.2l7.7-10l-0.3-0.3L226.6,147z M226.4,148.5l8.7-9	l-0.3-0.3l-8.8,9.1L226.4,148.5z" />
      <path fill="#EAC102" stroke="#000000" stroke-width="0.0341" stroke-miterlimit="4.2614" d="M217,136.6c-0.1-0.1,0.1-0.3,0.2-0.4	c0.2-0.1,0.4-0.1,0.4,0c0.1,0.1-0.1,0.3-0.2,0.4S217.1,136.7,217,136.6L217,136.6z M214.2,137.2c-0.1-0.1,0-0.3,0.2-0.4	c0.2-0.1,0.4-0.2,0.4-0.1c0.1,0.1,0,0.3-0.2,0.4C214.5,137.3,214.3,137.3,214.2,137.2z M213.7,139.5c-0.1-0.1,0-0.3,0.2-0.4	s0.4-0.2,0.4-0.1c0.1,0.1,0,0.3-0.2,0.4C214,139.6,213.8,139.6,213.7,139.5z M232.1,136.6c0.1-0.1-0.1-0.3-0.2-0.4	c-0.2-0.1-0.4-0.1-0.4,0c-0.1,0.1,0.1,0.3,0.2,0.4S232,136.7,232.1,136.6L232.1,136.6z M234.9,137.2c0.1-0.1,0-0.3-0.2-0.4	c-0.2-0.1-0.4-0.2-0.4-0.1c-0.1,0.1,0,0.3,0.2,0.4C234.6,137.3,234.8,137.3,234.9,137.2z M235.3,139.5c0.1-0.1,0-0.3-0.2-0.4	c-0.2-0.2-0.4-0.2-0.4-0.1c-0.1,0.1,0,0.3,0.2,0.4S235.2,139.6,235.3,139.5z" />
    </g>
    <g>
      <path fill="#CE1126" stroke="#000000" stroke-width="0.1257" stroke-miterlimit="4.2614" d="M223.3,154.7l-0.3,5.4	c-0.3,0-1-0.1-1-0.5c0-0.2,0.7-4.7,0.7-5.1C222.8,154.6,223,154.7,223.3,154.7L223.3,154.7z" />
      <path fill="#002D62" stroke="#000000" stroke-width="0.1257" stroke-miterlimit="4.2614" d="M222.7,154.5c0,0.2-0.2,1.5-0.1,1.6	c0.1,0.5,0.7,0.4,1.1,0.5l0.1-2.8C223.7,153.9,222.9,154.4,222.7,154.5z" />
      <path fill="#002D62" stroke="#000000" stroke-width="0.1257" stroke-miterlimit="4.2614" d="M222.8,161.4c0.9-1.1,2.5-0.3,2.5-0.3	c1.8,0.4,1.4-1.7,1.4-1.7c-0.4-4.2-0.8-7-0.8-7l-2.7,1.8L222.8,161.4z" />
      <path fill="#002D62" stroke="#000000" stroke-width="0.1001" stroke-miterlimit="4.2614" d="M222.8,161.4c-0.2,1.2,1,1.1,1,1.1	c1.5,0,1-1.6,1-1.6C223.3,160.5,222.8,161.4,222.8,161.4z" />
      <path fill="#CE1126" stroke="#000000" stroke-width="0.1257" stroke-miterlimit="4.2614" d="M223.8,153.7	c-0.1,4.3-0.1,4.7-0.1,4.7c0.1,1.2,1.3,0.5,1.3,0.5c0.3-0.1,0.6,0,0.6,0l-0.1-1.5c2.1-0.2,1.6-1.4,1.6-1.4	c-0.9-4.1-0.9-3.9-0.9-3.9L223.8,153.7z" />
      <path fill="none" stroke="#000000" stroke-width="0.1199" stroke-miterlimit="4.2614" d="M225.7,157.5c-1.4,0-1.9,0.5-1.9,0.5	l-0.1,0.1" />
      <path fill="#FFFFFF" stroke="#000000" stroke-width="0.1113" stroke-miterlimit="4.2614" d="M225.5,161.1L225,153l0.9-0.6l0.8,7.6	v0.1C226.8,161.4,225.5,161.1,225.5,161.1z" />
    </g>
    <g>
      <path fill="#000000" stroke="#000000" stroke-width="0.0224" stroke-miterlimit="4.2614" d="M218.7,148.1l3.6,6.6l7.8-5.2l-4.1-6L218.7,148.1z" />
      <path fill="#FFFFFF" stroke="#000000" stroke-width="0.1449" stroke-miterlimit="4.2614" d="M218.9,148.1l7.3-4.3l4,5.8l-7.7,5	L218.9,148.1z" />
      <path fill="#000000" stroke="#000000" stroke-width="0.0208" stroke-miterlimit="4.2614" d="M222.6,154.2l7.3-4.7l-0.6-0.9l-3.7-5l-2.6,2.1	l-3.4,1.9l-0.6-0.4l0.1,0.8L222.6,154.2z" />
      <path fill="#FFFFFF" stroke="#000000" stroke-width="0.0788" stroke-miterlimit="4.2614" d="M223,145.8c-1.1-0.5-2.3,1.1-2.7,1.4	c-0.4,0.3-1.1,0.1-1.1,0.1l3.3,5.9c1,0.4,1.6-0.9,2-1.2c0.8-0.7,1.8-0.7,1.8-0.7L223,145.8z M223.1,145.8c0-1.3,1.6-1.7,2-1.9	s0.6-1,0.6-1l3.7,5.6c-0.1,1.1-1.4,1.2-1.9,1.5c-0.9,0.5-1.1,1.3-1.1,1.3L223.1,145.8z M222.3,153.3c-2.1-3.9-3.3-5.9-3.3-5.9	c0,0.7,0,0.7,0,0.7c2.5,4,3.5,6.1,3.5,6.1C222.5,153.8,222.4,153.5,222.3,153.3z" />
      <path fill="none" stroke="#000000" stroke-width="0.1" stroke-miterlimit="4.2614" d="M224.5,147.4l2.6-1.7 M227.8,147.6l-2.3,1.4	 M225.7,149.4l2.6-1.6 M226,149.8l1.3-0.8 M220.3,148.3l1.2-0.8 M220.5,148.8l1.4-0.9 M220.8,149.2l2.4-1.5 M224.8,147.8l1.5-1	 M223.9,148.9l-2.4,1.5 M221.9,151.3l2.6-1.7 M224.6,150.3l-2.4,1.5 M222.4,152.3l2-1.3 M225.9,146l-1.6,1 M225.7,145.6l-1.6,1	 M223.8,146.2l1.2-0.8" />
    </g>
  </g>
  <g>
    <path fill="#006300" stroke="#808000" stroke-width="0.1415" d="M241.1,134.9c0,0.1-0.1,0,0,0.2c1,2,0.6,1.1,1.5,3.7c-0.2-0.2-0.4-0.4-0.5-0.7c-0.4-0.6-0.8-1.2-1.2-1.9c-0.1-0.2-0.1-0.2-0.3-0.4c-0.1,0.2,0.3,1.3,0.4,1.5c0.4,1.3,1.4,2.8,2.1,3.9c-0.2-0.1-0.3-0.3-0.5-0.4c-0.6-0.5-0.5-0.4-0.8-1c-0.4-0.6-0.6-1.3-0.9-1.9c-0.2-0.5-0.4-0.9-0.5-1.4c-0.1,0.1,0-0.1-0.1,0.1c-0.1,0.2,0,0.4,0,0.6c0.1,0.8,0.2,1.5,0.3,2.3c-0.5-0.2-1-0.6-1.5-0.8c-0.1-0.1-0.2-0.1-0.4-0.2h-0.1c-0.1,0.3,0.9,1.1,1,1.3c0.2,0.2,1.2,0.9,1.3,1.1c0.4,0.9,0.7,1.6,1.3,2.3l0.5,0.7l-1.2-1.2c-0.8-0.8-1.2-1.1-2.1-1.8c0,0.3,0.4,0.5,0.5,0.7l1.5,1.6c0.5,0.6,1,1.1,1.4,1.7l0.9,1.5c-0.1-0.2-0.4-0.5-0.5-0.7l-1.4-1.7c-0.5-0.6-1-1-1.7-1.5c-0.5-0.4-0.9-0.7-1.5-1c0,0.2,0.2,0.3,0.3,0.4c0.7,0.6,1.3,1.2,2,1.9c0.3,0.2,0.5,0.5,0.8,0.8c0.2,0.3,0.5,0.5,0.7,0.8c0.4,0.6,0.8,1.2,1.2,1.9l0.6,1c-0.4-0.2-2.5-2.5-3-3c-0.4-0.4-0.6-0.6-1.1-0.9c0,0.3,1.4,1.8,1.7,2.2c0.1,0.1,0.2,0.2,0.3,0.4l0.6,0.7c0.4,0.5,1.1,1.3,1.4,1.9l0.4,0.9c0-0.1-0.8-1.1-0.9-1.3c-0.2-0.2-0.3-0.4-0.5-0.6c-0.5-0.5-1.2-1.4-1.8-1.7l-1.4-0.8c-0.1,0.1,0.2,0.4,0.4,0.5l0.5,0.5c0.6,0.5,1.5,1.5,2,2.1c0.3,0.4,0.6,0.8,0.9,1.2c-0.2-0.1-0.3-0.3-0.4-0.4c-0.2-0.2-0.3-0.3-0.5-0.4c-0.3-0.3-0.6-0.5-1-0.8l-2.3-1.1c0,0.2,0.8,0.6,1,0.8c0.4,0.3,1.2,0.8,1.6,1.2c0.2,0.2,0.3,0.3,0.4,0.5c0.3,0.3,0.6,0.6,0.8,1s0.5,0.7,0.7,1.1c0.3,0.4,0.4,0.8,0.6,1.2l0.8,2.9c-0.2-0.9-0.7-2-1.1-2.9c-0.3-0.7-0.8-2.4-1.7-2.1c-0.3,0.1-0.5,0.5-0.6,0.8c-0.2,0.4-0.5-0.1-1.2,1.3c-0.4,0.8-0.6,1.7-0.8,2.6c0,0.1,0,0.3,0,0.4c0.2-0.1,0.3-0.6,0.4-0.8c0.4-0.9,0.7-1.4,1.2-2.2l-0.7,3c0.2,0,0.3-0.4,0.4-0.6c0.3-0.8,0.6-1.5,0.8-2.3c1,0.7,1.3,4.5,1.5,5.8c-0.1-0.5-0.5-1.5-0.7-1.9l-1-1.7c-0.6,0.1-0.7,0.8-0.8,1.3c-0.2-0.2-0.4-0.6-0.8-0.6c-0.4,0-0.5,0.4-0.6,0.9c-0.1,0.4,0,0.9,0,1.3c0,0.1,0.1,1,0.2,1l0.1,0.1l0.2-2.6c0.4,0.2,1.1,1.9,1,2.5c-0.4,2.5-0.6,3.3-1.9,5.3c-0.2,0.4-0.5,0.7-0.7,1.1c-0.1,0.2-0.2,0.3-0.4,0.5L238,167c0.7-1.2,1-1.7,1.5-3c0.4-1,0.6-2.1,0.8-3.2c0-0.2,0-0.3,0-0.5c-0.1,0.1-0.2,0.3-0.2,0.4c-1.2,3.6-1.3,3.7-3.2,6.9l0.4-2c-0.2,0-0.1,0.1-0.2,0.3c-0.1,0.1-0.1,0.3-0.2,0.4c-0.3,0.8-0.5,1.6-0.9,2.3c0-0.2,0.2-0.5,0.2-0.7c0.2-0.7,0.3-1.4,0.4-2.1v-0.5c-0.2,0-0.2,0.4-0.3,0.6c-0.2,0.7-0.6,1.4-0.9,2.1v-0.2c0.1-0.4,0.2-1.1,0.1-1.6c0,0,0.1,0.1-0.1-0.2c-0.2,0.1-0.2,0.4-0.2,0.6c-0.1,0.2-0.1,0.4-0.2,0.6c-0.4,1.2-1,2-1.6,3.1c-0.4,0-0.1,0,0.1,0c-0.1,0-0.1,0-0.1,0c0.3,0,0.2,0,0.1,0c0.5,0.1,3.5,0.7,3.5,0.7c1.7-0.1,2.9-0.2,4.6,0c0.3,0,1.3,0.2,1.5,0.1c-0.5-0.3-1-0.4-1.6-0.6l-1.6-0.4l4.7-0.1l-0.4-0.2c-0.8-0.3-2.9-0.4-3.7-0.5c1.5-0.1,2.7-0.3,4.2-0.3c0.4-0.1,1.8,0.3,1.2-0.3c-0.5-0.4-2.3-0.4-2.9-0.4l2.8-0.1c0.4-0.1,3.3,0.6,2.3-0.1c-0.8-0.4-2.5-0.8-3.4-0.9c0.5-0.3,0.9-0.6,1.5-0.8c1.1-0.4,2.2-0.8,3.3-1.1c1.2-0.2,2.2-0.8,0.5-0.5c-1,0.1-2.2,0.4-3.1,0.5l0.8-0.4c0.8-0.4,1.7-0.6,2.5-0.8c0.2-0.1,0.1,0,0.2-0.1l-0.1-0.1c-0.2,0-0.3,0.1-0.5,0.1c0.5-0.3,1.9-0.6,2.4-0.7c0.6-0.1,1.3-0.3,1.9-0.5c0.2-0.1,0.5-0.1,0.6-0.2l-0.1-0.1c-0.2-0.1-3.6,0.4-4,0.5c-0.3,0.1-1,0.2-1.2,0.2c1-0.4,2.1-0.9,3.1-1.2c0.2-0.1,1-0.2,1.1-0.4c-0.2-0.1-0.4,0-0.7,0c-1,0.2-2,0.4-3,0.7c-0.3,0.1-0.8,0.3-1.1,0.4c3.5-1.3,2.2-1,5.4-1.6c0.4-0.1,0.7,0,0.7-0.3l-1.9-0.1c-0.6,0-1.2,0.2-1.8,0.2l1.4-1.2c0.4-0.3,0.2-0.4,0.9-0.4c0.3,0,1.1,0,1.2-0.1c-0.5-0.5-0.6-0.2-1.1-0.5l0.6-0.7c0.1-0.2,0.3-0.3,0.4-0.6c0.1-0.1,0.1-0.1,0-0.2h-0.2l-1.4,1.2c-0.2,0.2-0.2,0.2-0.6,0.2c-0.6,0.1-1.2,0.2-1.8,0.4c0.7-0.5,1.1-0.9,1.9-1.3c0.3-0.2,0.7-0.4,1-0.6c0.3-0.1,1-0.4,1-0.6l-2.2,0.6c-0.4,0.2-1.6,0.7-1.9,1c1-1.1,2.5-2.4,3.6-3.2c0.1-0.1,0.5-0.3,0.5-0.4c-0.1,0-0.1-0.1-0.2,0c-0.6,0.1-2,1.1-2.5,1.4c-0.8,0.5-1.6,1.1-2.4,1.7c0.4-0.4,0.8-0.9,1.3-1.3c0.1-0.1,0.2-0.2,0.4-0.3c0.1-0.1,0.2-0.2,0.3-0.3c0.2-0.2,0.4-0.4,0.7-0.6c0.5-0.4,0.9-0.8,1.4-1.2l0.7-0.6c0.2-0.1,0.6-0.4,0.6-0.7c-1,0.5-1.9,1.1-2.8,1.8c-0.5,0.3-0.9,0.6-1.3,0.9c-0.3,0.2-1,0.8-1.3,1c0.5-0.9,1.1-1.8,1.8-2.5c0.9-1,1.9-1.9,2.9-2.7c0.3-0.2,0.5-0.5,0.8-0.7V150c-0.2,0-1,0.5-1.2,0.7c-1.1,0.8-2.1,1.6-3,2.5c-0.2,0.2-0.3,0.3-0.4,0.5c-0.5,0.4-0.9,1-1.3,1.5c-0.5,0.7-1,1.5-1.5,2.2c0.3-1.4,1.3-2.4,2-3.2l1.7-1.9c0.1-0.1,0.2-0.2,0.3-0.3c1.1-1.2,1.7-2.2,1.9-3.6c-0.2,0.3-0.5,0.6-0.9,1.1c-0.1,0.2-0.2,0.3-0.4,0.5l-3.4,3.9c0.2-0.6,0.8-1.7,1.1-2.2c0.4-0.7,0.9-1.3,1.3-1.9c0.3-0.5,1.8-2.4,2.2-2.7l0.2-0.2c0-0.2,0.2-0.4,0.5-0.6c0.3-0.2,0.3-0.4,0.7-0.5c-0.3-0.3-1.5,0.4-1.7,0.6c-1.5,1-2.6,2.4-3.6,3.8c0.1-0.8,1-3,1.5-3.6c0.4-0.5,0.7-1.1,1-1.5l1-1.5c-0.2,0-0.5,0.4-0.6,0.5l-0.3,0.3c-1.3,1.4-2.1,3-3,4.7c0.1-0.9,0.8-2.3,1.2-3c0.5-0.9,1.2-1.7,1.7-2.6c-0.3-0.1-1.2,1-1.4,1.3c-0.4,0.5-0.8,1-1.2,1.6c-0.6,1.1-1.2,2.2-1.7,3.4l-0.1,0.3c0.1-1.1,1.2-3.8,1.7-4.7c0.3-0.5,0.6-0.9,1-1.4c0.1-0.2,0.2-0.3,0.4-0.5c0.2-0.3,0.5-0.6,0.7-0.9l0.7-0.9c-0.4-0.2-2,1.6-2.3,2c-0.4,0.5-0.7,1-1.1,1.5c0.2-0.9,0.8-2.1,1.3-2.8c0.4-0.6,0.9-1.2,1.3-1.7c0.2-0.2,0.3-0.4,0.4-0.6c-0.5-0.1-2.5,2.3-2.9,2.8c-0.2,0.2-0.3,0.4-0.5,0.7l-0.7,1.1c0,0.1-0.1,0.1-0.1,0.2l-0.1,0.2c0.1-0.8,0.6-2.6,0.9-3.3c0.4-1,0.9-1.8,1.3-2.8c-0.4-0.1-1,0.8-1.2,1.1l-0.8,1.5c0.1-0.7,1.2-3.1,1.5-4c-0.2,0.1-0.3,0.4-0.5,0.7c-0.5,0.8-0.9,1.5-1.4,2.3c0.1-0.8,0.6-1.6,0.9-2.3c-0.6,0.3-1.7,2.6-2,3.3c-0.1,0.3-0.2,0.7-0.3,1l-0.1,0.4c0-1.8,0.3-3.6,0.6-5.3c-0.2,0-0.2,0.2-0.3,0.4l-0.2,0.4c-0.1,0.3-0.2,0.6-0.4,1l-0.5,2.1c-0.8-1.1-0.9-3-2.4-5.2C241.9,135.4,241.8,135.4,241.1,134.9L241.1,134.9z M241.9,156.1c0.6,1.7,0.9,2.3,1.3,4.1c-0.1,0-0.1,0.1-0.2,0.2c-0.1,0.2-0.1,0.5-0.3,0.8l-0.5-1.6c-0.2-0.6,0.1-1.7-0.1-1.9c-0.2,0.3-0.1,0.4-0.2,0.9c-0.1-0.1-0.2-0.5-0.3-0.7c-0.4-1-0.4-0.7-0.2-1.2C241.7,156.5,241.8,156.2,241.9,156.1L241.9,156.1z" />
    <path fill="#008F4C" d="M247,152.7c-0.3,0.9-0.5,1.7-0.5,1.6c0,0,0-0.6,0-1.2l0,0c0.2-2.4,3.2-8,4-8.1c0.1,0-1,1.6-1.7,3.1C248.1,149.7,247.3,151.8,247,152.7z M252.9,151.7L252.9,151.7L252.9,151.7L252.9,151.7z M253.5,161.1L253.5,161.1c0,0-1.3,0.3-2.7,0.5c-0.3,0-0.6,0.1-0.9,0.2c-0.4,0.4-0.9,0.7-1.3,1c0.4-0.1,0.8-0.2,1.1-0.3c1.6-0.4,2.5-0.6,2.4-0.5c0,0-1.2,0.4-2.7,0.8c-0.4,0.1-0.9,0.2-1.3,0.4c-0.2,0.2-0.5,0.4-0.7,0.5c1-0.2,2.1-0.3,2.9-0.5c1.9-0.3,3-0.4,2.8-0.3l0,0c0,0-1.5,0.3-3.2,0.6c-1,0.2-2.2,0.4-3.2,0.6c-2.7,2-4.4,2.9-5.2,2.6c-0.2-0.1,1.5-1.1,3.3-2.2c-1.5,0.3-1.8,0.4-1.9,0.2c-0.1-0.1-0.1-0.2-0.1-0.2s0,0,0.1,0v-0.1c0,0-0.1,0-0.1,0.1c-0.4,0.1-0.8,0.3-0.9,0.2c0,0,0.3-0.2,0.8-0.4c0.1,0,0.1-0.1,0.2-0.1c-0.4-1.6-0.7-2.9-1-3.9c-0.1,1.2-0.4,2.4-0.8,3.6c-0.4,1.2-2.2,3.8-2.6,4c-0.2,0.1-0.2,0,0.3-0.6c1.7-2,2.8-4.8,3-7.5c-1.7-5.8-1.9-0.4-1.9-0.4c-0.1-3.3,0.6-2.8,0.6-2.8c0.6,0.5,1,1.4,1.4,2.5c0-0.1,0-0.1,0-0.2c-0.1-1.6,0-1.8,0.1-0.5c0,0.4,0,0.7,0,1.1c0.5,1.7,0.9,3.7,1,4.6c0.3-0.1,0.5-0.3,0.8-0.4c0-8.4-0.8-10.6-1.7-10.6c-0.3,0.6-0.6,1.3-0.8,1.9c0.2-0.8,0.4-1.4,0.6-1.9c-0.9,0.3-1.8,3-1.8,3c1-3.6,1.8-3.9,2.2-3.8c0.4-0.9,0.5-0.9,0.5-0.9c2.3,0.5,2.2,10.6,2.2,10.6c-0.5-9.1-1.5-10.4-2.4-9.5c2.3,2.5,1.5,9.4,1.3,11.1l0.1-0.1c0.2-0.3,0.4-0.5,0.7-0.9l0,0c0-0.2,0.2-0.4,0.5-0.6c0.5-1.5,1.3-3.1,2.2-4.7l0,0c0-0.6-0.1-0.8-0.1-1c-0.1-0.2-0.1-0.4,0-0.5c0,0,0-0.1,0.1,0.5l0,0c0.1,0.2,0.1,0.5,0.2,0.8c1.1-1.7,2.4-3.3,3.6-4.4c0.9-0.7,1.7-1.3,1.7-1.1c0,0-0.5,0.6-1.2,1.2c-1.4,1.3-2.9,3.1-4.1,5.1c0,0.3,0,0.7,0,1c0.7-0.8,1.6-1.4,3.3-2.5c1.8-1.1,2.4-1.5,2.4-1.3c0,0.1-0.3,0.4-0.6,0.6c-1.3,0.7-3.8,3-5.5,4.6l0,0c1.4-1.1,2.9-2.2,4-2.6l0,0c0.7-0.3,1.3-0.5,1.3-0.4c0.1,0-0.7,0.5-1.6,1.1c-0.6,0.4-1.5,1.1-2.5,1.9c1.4-0.6,2.9-1.1,4-1.3c0.9-0.8,1.5-1.4,1.5-1.3c0,0.1-0.3,0.6-0.7,1.2c0.6,0,1.1,0,1.2,0c0,0-0.7,0.3-1.6,0.5c-0.9,0.7-1.7,1.4-2.4,2c0.3,0,0.6-0.1,0.8-0.1C252.8,161.1,253.7,161,253.5,161.1z M251.6,159.8c-1.1,0.4-2.6,1-3.8,1.7c-0.5,0.2-0.9,0.5-1.3,0.6c0.8-0.2,1.9-0.3,2.9-0.5C250.2,161,251,160.3,251.6,159.8z M245.6,161.8L245.6,161.8c0.2-0.3,0.3-0.6,0.6-0.9l0,0c0.4-0.6,0.7-1,1-1.4c0.1-0.4,0.2-0.8,0.2-1.1c-0.7,1.1-1.2,2.1-1.6,3.1C245.7,161.6,245.6,161.7,245.6,161.8z M243.8,164.4c-0.1-0.1-0.1-0.1-0.1-0.2c0,0,0,0,0.1,0v-0.1c-0.2,0.1-0.5,0.2-0.7,0.3c0,0.1,0,0.1,0,0.1C243.2,164.5,243.4,164.4,243.8,164.4z M246.2,163.8c-0.3,0.1-0.6,0.2-0.8,0.3c-0.1,0-0.3,0.1-0.4,0.1c0.3,0,0.5-0.1,0.8-0.2C246,163.9,246.1,163.8,246.2,163.8L246.2,163.8z M248.8,162c-0.9,0.2-1.7,0.3-2.2,0.4c-0.3,0.1-0.5,0.1-0.7,0.1c-0.4,0.4-0.7,0.7-1.1,0.9c0,0.1-0.1,0.1-0.1,0c-0.3,0.2-0.5,0.4-0.7,0.6c0.6-0.2,1.7-0.5,2.9-0.9C247.6,162.8,248.2,162.4,248.8,162z M243.7,141c0,0.2,0.1,0.4,0.2,0.4c0.1,0,0-0.4-0.3-1.6c-0.5-1.9-0.7-2.4-1.6-3.6l0,0c-0.3-0.4-0.6-0.7-0.7-0.7c0,0,0.1,0.3,0.4,0.7C242.3,137.3,243.5,140,243.7,141z M245.8,148.5c0.1,0.1,0.7-0.9,1.3-2.2c0.7-1.3,1.6-3,2.2-3.6c0.5-0.7,0.9-1.2,0.8-1.2c0,0-0.4,0.3-0.8,0.6C247.9,143.4,245.5,147.8,245.8,148.5z M250,143.2c-1.7,1.5-4.4,6.4-4,7.2c0.1,0.1,0.8-1,1.5-2.5c0.8-1.5,1.8-3.3,2.4-4.1c0.6-0.7,1-1.3,0.9-1.3C250.9,142.5,250.5,142.8,250,143.2L250,143.2z M241.4,141.1c0.2,0.3,0.5,0.7,0.8,1.1c0.7,1,1,1.4,1.1,1.3c0-0.1-0.1-0.3-0.2-0.4c-0.3-0.4-0.7-1-1-1.7c0.2,0.1,0.5,0.2,0.8,0.3c0.7,0.2,1.1,0.3,1.3,0.4c0.1,0.1,0.1,0.1,0.1,0l0,0c0.1,0,0.1,0,0.1,0s-0.1-0.1-0.2-0.2c0-0.1-0.1-0.1-0.2-0.2c-0.8-0.8-2.4-3.2-2.9-4.3c-0.2-0.4-0.3-0.7-0.4-0.7c0,0,0.1,0.4,0.2,1l0,0c0.4,1.4,0.7,1.9,2.1,3.3c0.3,0.3,0.5,0.6,0.7,0.8c-0.5-0.2-1.3-0.5-2.1-0.9c-0.4-0.9-0.8-1.8-1-2.3c-0.1-0.4-0.3-0.7-0.3-0.7s0,0.4,0.1,1l0,0c0.1,0.7,0.2,1.2,0.5,1.7c-0.6-0.4-1.2-0.7-1.5-1c-0.3-0.2-0.6-0.4-0.6-0.4s0.3,0.3,0.6,0.7C240.1,140.4,240.6,140.8,241.4,141.1z M239.2,163.9c0.1-0.5,0.2-1,0.1-1c0,0-0.3,0.5-0.6,1.3s-1.2,2.4-1.9,3.6c-0.8,1.2-1.3,2.3-1.2,2.3C236.4,170,238.8,165.8,239.2,163.9z M236.1,170.2c0,0.1,1,0,2.3-0.1c1.3-0.2,3-0.2,3.8-0.2c0.7,0,1.3,0.1,1.3,0c0,0-0.4-0.1-0.9-0.2C240.9,169.3,236.5,169.7,236.1,170.2z M238.1,169.1c0,0.1,1,0.1,2.3,0s3-0.1,3.8-0.1c0.7,0.1,1.3,0.1,1.3,0.1s-0.4-0.1-0.9-0.3C242.9,168.3,238.4,168.6,238.1,169.1z M235.8,170.7c0,0.1,0.9,0.1,2,0.1c1.2,0,2.6,0.1,3.3,0.2c0.6,0.1,1.1,0.2,1.1,0.2s-0.4-0.2-0.7-0.3C240,170.3,236.1,170.2,235.8,170.7z M248.5,165.3c-3.7,1-8.1,1.7-8.4,2.6h0.1c-0.1,0-0.2,0.1-0.3,0.2c-0.1,0.1,1,0.1,2.3,0.1c1.3-0.1,3,0,3.8,0.1c0.7,0.1,1.3,0.1,1.3,0.1s-0.4-0.2-0.9-0.3l0,0c-1.2-0.3-3.6-0.4-5.1-0.3c0.6-0.1,1.2-0.3,1.9-0.6c1.6-0.6,3.7-1.3,4.7-1.5c0.9-0.2,1.7-0.4,1.7-0.5C249.7,165.1,249.1,165.3,248.5,165.3L248.5,165.3z M252.1,162L252.1,162L252.1,162L252.1,162z M246.8,154.8c0,0.6-0.2,1.6-0.2,1.6s0.1-0.3,0.3-0.7l0,0c0.8,0.2,4.6-3.6,5.6-5.6l0,0c0.2-0.5,0.4-1,0.4-1s-0.4,0.5-1,1.2s-1.9,2.2-3.1,3.3c-1,0.9-1.7,1.7-1.9,2c0.2-0.4,0.4-1,0.6-1.5c0.4-0.5,0.9-1.2,1.5-2.1c1.2-1.7,2.8-3.7,3.6-4.5s1.4-1.4,1.3-1.4c-0.1,0-0.6,0.3-1.2,0.7l0,0c-1.2,0.9-3,2.9-4.3,4.7c0.4-1.1,1-2.7,1.7-4c0.8-1.6,1.8-3.1,1.7-3.1C251.1,144.5,247,152.4,246.8,154.8L246.8,154.8z M243.6,150.6c-1.4-1.3-1.8-1.5-0.6-0.3c1.1,1.1,2.5,3,3,4.1c0.2,0.5,0.4,0.8,0.5,0.8s0-0.4-0.2-0.9l0,0c-0.1-0.5-0.4-1-0.7-1.5c0-0.2-0.1-0.5-0.2-0.8c-0.4-1.3-1.5-2.8-3.1-4.1c-1.5-1.4-2-1.6-0.7-0.3c1.2,1.1,2.7,3.2,3.3,4.4C244.6,151.6,244.1,151.1,243.6,150.6z M245.5,146.6c0,0.7,0,1.2,0.1,1.2s0.2-0.5,0.2-1.1c0.2-1.8,1.4-5.8,2.1-7.2c0.1-0.3,0.2-0.6,0.2-0.7c-0.1-0.1-0.4,0.4-1.2,2.1c-1.1,2.4-1.4,3.2-1.4,5c-0.3-1.4-0.3-4.7,0-5.9c0.1-0.3,0-0.5,0-0.6c-0.1-0.1-0.3,0.4-0.6,1.9c-0.5,2.3-0.5,2.9,0.2,4.5C245.3,146.1,245.4,146.4,245.5,146.6z M241.2,155.9c0.1-0.3,0.2-0.6,0.2-0.8C241.2,155.5,241.2,155.9,241.2,155.9L241.2,155.9z M240.4,143.4c1.8,1.7,4,4.7,4.8,6.5c0.3,0.7,0.7,1.3,0.7,1.3c0.1,0,0-0.7-0.3-1.5c-0.6-1.8-2.1-3.9-4.3-5.8C239.1,141.9,238.4,141.6,240.4,143.4z M236.6,166.6c0,0-0.1,0.3-0.2,0.7c-0.1,0.4-0.5,1.3-0.8,1.9c-0.3,0.7-0.6,1.2-0.5,1.2c0.4,0,1.4-2.3,1.6-3.3C236.6,166.9,236.6,166.6,236.6,166.6z M245.1,148.3c0.3,0.6,0.5,1,0.6,1s0-0.5-0.2-1.1l0,0c-0.4-1.4-1.6-3-3.3-4.5s-2.2-1.8-0.7-0.3C242.7,144.6,244.5,146.9,245.1,148.3z M236.1,166.5c0-0.3,0-0.5,0-0.5s-0.1,0.3-0.2,0.7c-0.1,0.4-0.5,1.3-0.8,1.9c-0.3,0.7-0.6,1.2-0.5,1.2C234.9,169.7,236,167.5,236.1,166.5L236.1,166.5z M235.2,167c0-0.3,0-0.5,0-0.5s-0.1,0.3-0.2,0.7c-0.1,0.4-0.5,1.3-0.8,1.9c-0.3,0.7-0.6,1.2-0.5,1.2C234,170.3,235.1,168.1,235.2,167L235.2,167z" />
  </g>
  <g>
    <path fill="#FF0000" stroke="#006300" stroke-width="0.1669" stroke-miterlimit="10" d="M201.8,142.2c0,0.3-0.2,0.5-0.5,0.5s-0.5-0.2-0.5-0.5l0,0c0-0.3,0.2-0.5,0.5-0.5C201.5,141.7,201.8,141.9,201.8,142.2z M202.6,155c0,0.3-0.2,0.5-0.5,0.5s-0.5-0.2-0.5-0.5l0,0c0-0.3,0.2-0.5,0.5-0.5C202.4,154.5,202.6,154.7,202.6,155z M201.3,159.8c0,0.3-0.2,0.5-0.5,0.5s-0.5-0.2-0.5-0.5l0,0c0-0.3,0.2-0.5,0.5-0.5C201,159.2,201.3,159.5,201.3,159.8z M200.6,162c0,0.3-0.2,0.5-0.5,0.5s-0.5-0.2-0.5-0.5l0,0c0-0.3,0.2-0.5,0.5-0.5C200.4,161.5,200.6,161.7,200.6,162z M201.4,162.9c0,0.3-0.2,0.5-0.5,0.5s-0.5-0.2-0.5-0.5l0,0c0-0.3,0.2-0.5,0.5-0.5C201.2,162.3,201.4,162.6,201.4,162.9z M211.4,167.4c0,0.2-0.2,0.4-0.4,0.4s-0.4-0.2-0.4-0.4l0,0c0-0.2,0.2-0.4,0.4-0.4S211.4,167.2,211.4,167.4z M212,168.1c0,0.2-0.2,0.4-0.4,0.4s-0.4-0.2-0.4-0.4l0,0c0-0.2,0.2-0.4,0.4-0.4C211.8,167.7,212,167.9,212,168.1z" />
    <path fill="none" stroke="#006300" stroke-width="0.334" stroke-miterlimit="4.2614" d="M201.1,149.1l-0.5-0.4 M201.6,146.2c-0.4-0.5-0.4-0.5-0.4-0.5 M200.3,152.9c-0.1-1.1-0.8-1.5-0.8-1.5 M205.5,167.4c-2.9-3.2-3.8-8.9-3.8-8.9c0.9-2.4,2.2-3,2.2-3 M201.7,158.4c-0.9-3.7-0.7-7.6-0.7-7.6c0.3-4.8,1.8-9,1.8-9 M201,152.2c0.8-3.5,3.7-3.1,3.7-3.1 M200.9,152.8c2.6-1.1,2.3-3.3,2.8-4.3c0.7-1.4,1.2-1.8,1.2-1.8 M203.5,164.2c-0.9-2.2,0.2-2.7,0.2-2.7 M203.2,163.5c-1.1-1.5-2.6-1.4-2.6-1.4 M202.7,156.7c0.7-1.3,0-2.5,0-2.5 M203,162.8l-2-2.6 M202.2,144c0.3-1-0.5-1.5-0.5-1.5 M203,155.8c-0.1-0.5-0.6-0.7-0.6-0.7 M210.3,168c0.8,0.6,1.1,0.2,1.1,0.2" />
    <path fill="#006300" d="M207.5,149.4c0.1,0,0.1,0.1,0.2,0.1c0.2,0.2,1,0,1.1,0.1c0,0,0.1,0.3-1.5,1l0,0c-0.6,0.3-2.1,0.4-2.6-0.9c0,0,0,0,0-0.1c-0.2-0.2-0.4-0.4-0.6-0.6c0,0-0.3-0.1,1.1-1.1c0,0,1.2-0.8,2.4,0c0.3,0.2,1.1-0.2,1.3-0.1C208.8,147.9,208.9,148.2,207.5,149.4z M201.1,148.7c1.7,0.6,2.8-0.9,3-1.6c0.5-2,0.2-2.2,0.2-2.2c-0.2,0-0.7,0.8-1,0.9c-1.4,0.1-1.9,1.4-1.9,1.4C200.9,148.8,201.1,148.7,201.1,148.7z M204.9,143.9L204.9,143.9c0.6-2,0.3-2.2,0.3-2.2c-0.2,0-0.7,0.8-1,0.8c-1.4,0.1-2,1.4-2,1.4c-0.6,1.6-0.3,1.5-0.3,1.5C203.6,146.1,204.6,144.6,204.9,143.9z M201.7,141c0.5,1.4,0.6,0.6,0.7,1.5c0,0,0.3-0.9,1.7-1.3c0,0,0.9,0.2,1.6-0.3c0,0,1.9-1.5,2.1-3c0,0-0.4,0.2-1.4,0.3l0.1-1.2c0,0-1.3,0.2-2.9,1.8c-0.2-0.7-0.4-1.4-0.6-2.1C203,136.6,201.1,139.1,201.7,141L201.7,141z M207.1,143.2c-0.1-1.4-0.4-1.2-0.4-1.2c-0.2,0.3-0.6,0.6-0.6,0.6c-1.3,1.3-1.3,1.8-1.3,1.8c0.1,1.5-0.3,2.9-0.3,2.9c0.9-1.1,2.2-0.6,2.2-0.6c1.2,0.1,2.3-1.2,2.3-1.2c0.6-0.9,0.9-1.1,0.9-1.1c0-0.3-0.3-0.3-0.3-0.3c-0.7,0.2-0.7,0.2-0.7,0.2c0.6-2.1,0.3-2.1,0.3-2.1c-0.2,0-0.3,0.1-0.3,0.1C208.4,143.2,207.1,143.2,207.1,143.2z M204.5,147.3L204.5,147.3L204.5,147.3L204.5,147.3z M203.4,155.4L203.4,155.4L203.4,155.4L203.4,155.4z M204,165.9c0.4,0.1,0.7,0.5,0.7,0.5c-0.1-1.2-1.6-2.8-1.6-2.8c-2.2-0.9-3.5,0.1-3.5,0.1c-0.1,0.1,0.1,0.2,0.1,0.2c1.4,0.2,0.9,0.1,1.5,0.9C202.3,166.2,204,165.9,204,165.9z M198.2,151.7L198.2,151.7c0,0,0.7-0.3,1.6,0.1c0,0,0-0.7,0.2-1.6c0,0,0.2-0.2,0-1.6c0.3,0.2,0.6,0.3,1,0.4c0,0,0.2,0.1,0.2-1.3c0,0,0-1.2-1.1-1.7c-0.2-0.1-0.3-0.5-0.4-0.7c0.4,0.4,0.9,0.7,1.6,0.8c0,0,0.2,0.2,0.3-1.5c0,0,0-1.4-1.3-2c-0.3-0.1-0.4-1.1-0.6-1.2c0,0-0.4,0.1-0.6,2.2c0,0.4,0.1,1,0.4,1.5c-0.1,0-0.3,0.3-0.5,1.8l0,0c0,0,0,0.3,0.2,0.6c-0.2-0.3-0.4-0.6-0.6-0.9c0,0-0.3-0.3-0.5,0.8c0,0,0-0.3-0.5-0.9c0,0-0.9-0.5-1.2-1.3c0,0-0.1-0.7-0.4-0.4c0,0-1.5,3.1,0.8,4.4c0,0-0.8-0.1-1.2-0.5c0,0-0.2-0.2-0.3-0.2c0,0-0.5,0.6,0.9,2.4C196.2,150.9,197.1,151.9,198.2,151.7z M215.1,166.8c-0.3,0.1-1.1,1.4-1.1,1.4c-1-1.8-2.3-2.1-2.3-2.1c-0.3,0.1,0,0.5,0,0.5c0.4,1-0.1,1.7-0.1,1.7c-0.1,0.7,0,0.9,0,0.9c-0.2-0.1-0.3-0.2-0.5-0.2l-0.2-1.4c0,0-0.1,0.3,0.2,1.4c-0.1,0-0.1,0-0.1-0.1c0-0.4-0.1-1-0.5-1.6c0,0-1.1-1.3-3.1-1.5c0,0-0.4,0-0.2,0.3c0,0,0.7,0,0.9,0.9c0,0-0.3-0.2-1.1-0.2c0-0.1,0-0.2,0-0.4c0,0-0.3-0.7,0.2-1.1c0.3-0.2,1.6,0.5,2.3-2.4c0,0-0.4,0-1.3,0.4V163c0,0-0.2-0.6-0.1-1.5c0,0,0.4-0.7,0.5-1c0,0-0.8-0.3-2.5,1.8c0,0-0.1-0.4-1.2-1.1c0.4,0,0.7,0.2,0.7,0.2c1.6,0.2,2.1-1.6,2.1-1.6c0.4-0.7,0.6-1.1,0.6-1.1c0.1-0.4-0.7-0.1-0.7-0.1c-1.4,0.3-1.4,0.5-1.4,0.5c0-0.1,0-0.2,0-0.4h0.1c1.9-0.2,1.7-0.5,1.7-0.5c-1.1-1-0.8-0.9-1.2-1.3c-0.3-0.3-0.7-0.5-1.1-0.7c0.6,0.1,2.8,0.2,3.3-2.4c0,0-0.5,0.6-1.8,0.3c0,0,0.9-1.3,0.8-2.3c0,0-0.4,0.1-2,0.5c0,0,0.1-0.7-0.6-1.8c0,0-1.8,1.2-1.9,2.5c-0.2-0.3-0.5-0.5-0.8-0.5l0,0c-0.1,0-0.2,0-0.2,0l0,0c0,0,0.2-0.7-1-3.1c0,0-1.1,1.5-1.2,3c-0.3-0.2-0.6-0.4-1-0.6c0,0-0.5-0.4-3,0.3c0,0,1.6,1.8,3.2,1.8l0,0c0.4,0,0.6-0.2,1-0.3c0.3,0.4,0.7,0.7,0.9,1.7c0,0,0.2-0.4,0.5-1.1c0.2,0.3,0.5,0.5,0.8,0.5c0.5,0,0.8-0.3,0.9-0.8c0.1,0.4,0.1,1.1-0.2,1.5c0,0,0.8,0.1,1.9,0.8c-0.4-0.1-0.6-0.1-0.6-0.1c-1.5,0.2-1.8-0.1-1.8-0.1c-0.5,0.3-0.4,0.6-0.4,0.6l0,0c1,0.5,1.1,1.1,1.1,1.1c0.1,0.2,0.3,0.4,0.5,0.5c-0.3,0.4-0.4,0.6-0.4,0.6l-0.8-1.5c-0.3-0.6-0.4,0.1-0.4,0.1c-0.4,1.8-0.2,2-0.2,2c0.3,1,0.5,1.3,0.5,1.3c0.5,0.6,0.5,0.8,0.5,0.8l0.4,0.2c0.3-0.3,0.6-0.5,0.9-0.5c-0.1,0.4-0.6,1.9-0.3,2.8c0.3,0.8,0.3,1.1,1.1,1.7c0,0,0.6,0.3,0.8,1.1c-0.2,0-0.5,0.1-0.8,0.1c-0.2-0.2-1-0.8-1.7-0.7c-0.6,0.1-0.8,0.2-1.4,0c-0.4-0.2-0.7-0.4-0.6,0.1c0,0,1.2,2.8,3.3,2.5c0.4-0.1,0.6-0.2,0.8-0.3c0.2,0.5,0.6,1,1.1,1.4c0,0-0.3,0.3-1,0.7c0,0-0.2,0.2,0.7,0.5c0,0,2.8,1,3.5,0c0,0,0.1-0.5,0.8-0.8c0.3,0.5,0.5,0.9,0.5,0.9c2.6-0.7,2.8-0.6,2.8-0.6c1-0.1,0.9-0.2,0.9-0.2C215.7,168.3,215.1,166.8,215.1,166.8z M199.5,158c0.4,0.7,0.6,0.8,0.6,0.8c1.5,0.4,1.8,1.3,1.8,1.3c0-1.6-0.6-3.6-0.6-3.6c-0.5-0.7-2-1.6-2-1.6l0,0c-0.4-0.3-0.3,0.3-0.3,0.3c-0.9-1.6-3.3-1.7-3.3-1.7c-0.2,0-0.3-0.2-0.3-0.2c-0.4,0,0.1,0.8,0.1,0.8c0.7,1.9,1.4,2.2,1.4,2.2c-0.8,0.5-2.1-0.6-1.8,0.2c1.3,1.3,2.1,1.5,2.1,1.5C198.8,158.4,199.5,158,199.5,158z M201.4,161.2c0.3,0.1,0.3-0.2,0-0.4c0,0-0.1-0.2-0.8-0.6c-0.3-0.2-0.2-0.6-1-1.1c0,0-0.4-0.3-2-0.3c0,0-1.2,0-1.2,0.2c0,0,0.3,0.7,1.6,1.9c0,0,1,0.7,1.6,0.4C199.7,161.2,200.3,160.9,201.4,161.2z" />
    <path fill="#00863D" d="M201.6,154c-0.1,0.1-0.2,0.5-0.2,0.5l0,0v-1.3c0-0.1,0.2-0.4,0.2-0.5c0.1-0.2,0.2-0.3,0.1-0.4l-0.3,0.5v-0.9c0-0.1,0-0.2-0.1-0.3c-0.1,0.2-0.1,0.1-0.1,0.3c0,0.1,0,0.3,0,0.4c0,0.6,0,2,0,2.3c-0.1-0.2-0.2-0.3-0.3-0.5c-0.3-0.5-0.6-0.7-0.4-1.7c0.1-0.4,0.2-0.8,0.3-1.2c0.1-0.3,0.3-0.7,0.5-1l0.7,2.1C202.2,152.8,201.8,153.5,201.6,154z M205.9,153.8c-0.2,0.1-0.4,0.3-0.7,0.4l-1.2,1c1.1-0.3,0.9-0.1,1.4-0.2c1.2-0.2,1.7-1.8,2.1-2.8c-0.8,0.2-1.6,0.3-2.2,0.7c-0.8,0.5-0.7,1-1.2,1.8l0,0c0.2-0.2,0.6-0.5,0.9-0.7c0.3-0.2,0.2-0.1,0.3-0.4c0.1-0.3,0.1-0.2,0.3-0.5l-0.2,0.6c0.3-0.2,0.4-0.3,0.8-0.5C206.5,153.5,206.1,153.6,205.9,153.8z M196.9,154.5c0.4,0.3,1.1,0.9,1.5,1.1l0.7,0.4c0-0.4-0.7-1.5-1.2-1.8l-2.3-0.6c0.1,0.4,0.7,1.4,0.9,1.8c0.7,0.9,0.7,0.6,1.2,0.5c0.2,0,0.4,0,0.7,0c-0.2-0.2-0.4-0.3-0.6-0.5c-0.2-0.1-0.2-0.1-0.4-0.1l-0.4-0.1h0.5c-0.1,0-0.1-0.1-0.2-0.2c-0.3-0.3-0.4-0.3-0.6-0.6C196.7,154.3,196.7,154.4,196.9,154.5z M200.8,145.5c-0.1-0.3-0.2-0.5-0.3-0.8s0-0.2-0.2-0.3L200,144l0.3,0.2c-0.1-0.2-0.1-0.3-0.3-0.5c-0.2-0.3-0.1-0.1-0.3-0.5c0.4,0,0.8,1.1,0.8,1.4c0.3,0.9,0.2,0.8,0.7,1.4c0-0.1-0.2-0.3-0.2-0.5c-0.1-0.5,0.4-1.1-0.1-2.1c-0.3-0.6-0.9-0.7-1.2-1.2l-0.3-0.5c-0.1,0.2-0.2,0.9-0.3,1.1c0,0.7,0.1,1.7,0.6,2.2C200.1,145.2,200.5,145.4,200.8,145.5z M199.5,150.8l-0.9-2.8c0.2,0.1,0.1,0.2,0.2,0.6l0.2,0.6c0.1-0.2,0,0,0.2-0.4c0.1,0.1,0,0.4-0.1,0.6c-0.1,0.3-0.1,0.2,0,0.5l0.4,1c0-0.2,0-0.4,0-0.6c0.1-0.7,0.2-1.1-0.1-1.8c-0.3-0.6-0.8-1.1-1.2-1.6c-0.1,0.1-0.2,0.9-0.2,1.1c-0.1,0.7,0,1.7,0.5,2.2C199.2,150.5,198.9,150.2,199.5,150.8z M204.4,139.6l-1,1.2c0.2-0.1,0.4-0.1,0.6-0.2c0.7-0.1,0.9-0.2,1.4-0.9c0.4-0.7,0.6-1.6,0.7-2.4c-0.9,0.4-1.9,0.8-2.4,1.6c-0.2,0.3-0.1,0.6-0.1,1.2l0,0c0.1-0.1,0.3-0.4,0.5-0.5l0.5-0.4l-0.1-0.5c0.1,0,0.1,0,0.2,0.3c0.1-0.1,0.5-0.7,0.6-0.9c0.1,0.1-0.2,0.6-0.3,0.7C204.8,139.2,204.7,139.4,204.4,139.6z M198.4,155.9L198.4,155.9L198.4,155.9L198.4,155.9z M196.6,148.6c0.2,0.1,0.3,0.2,0.5,0.3c0.1,0.1,0.2,0.1,0.2,0.1c0.1,0.1,0.1,0.1,0.2,0.2c-0.3-0.7-1-1.5-1.1-1.9l-0.1-0.8c0.2,0,0.1,0,0.1,0.1c0,0,0,0.5,0.1,0.6l0.3,0.6c0-0.4-0.1-0.2,0.1-0.5c0.2,0.2-0.1,0.6,0.2,1c0.1,0.2,0.3,0.5,0.5,0.7c0-0.6,0.4-1.5-0.3-2.3c-0.2-0.3-0.5-0.4-0.8-0.6l-0.5-0.9C195.6,146.1,195.7,148,196.6,148.6z M202.3,141.6C202.3,141.7,202.3,141.7,202.3,141.6L202.3,141.6c0.1-0.2,0.2-1.5,0.1-1.6l-0.1-0.2l-0.1-0.5c0.2,0,0.1,0.1,0.2,0.3l0.1,0.1v-0.4c0-0.3,0-0.1,0.1-0.4c0.1,0.1,0,0,0.1,0.1c0,0.1,0,0.1,0,0.2c-0.1,0.9-0.1,1.8-0.2,2.7c0.1-0.1,0.1-0.4,0.2-0.5c0.2-0.4,0.6-1.2,0.6-1.7l-0.5-2.6c-0.2,0.3-0.4,0.7-0.5,1c-0.3,0.7-0.6,1.7-0.4,2.5L202.3,141.6z M200.5,156.6c0,0.7,0,0.5,0.4,1.3l0.8,1.4c0-0.2-0.2-0.4-0.2-0.6c-0.2-0.9,0.3-1.9-1.9-3.2l-0.5-0.3c0,1.1,0.2,2.8,1.1,3.4c0.2,0.1,0.4,0.1,0.6,0.2c0.2,0.1,0.3,0.2,0.5,0.3l0,0c-0.1-0.2-0.3-0.5-0.4-0.7c-0.3-0.6-0.3-0.7-0.8-1.4c-0.3-0.4-0.2-0.2-0.3-0.7c0.2,0,0.4,0.5,0.5,0.7v-0.7C200.5,156.3,200.5,156.4,200.5,156.6z M204.1,161L204.1,161L204.1,161L204.1,161z M197.5,151.3c0.1,0,1.2-0.1,1.4-0.1c-0.1-0.1-0.4-0.4-0.5-0.5c-0.3-0.2-0.3-0.2-0.8-0.3l-1.3-0.7c0.2-0.1,0.2,0.1,0.5,0.3l0.6,0.3l-0.1-0.3c0.1,0,0.1,0,0.2,0.1v0.2c0.6,0,0.5,0.1,1,0.4c-0.1-0.3-0.1-0.2-0.3-0.4c-0.1-0.1-0.2-0.2-0.3-0.3c-0.2-0.2,0,0.1-0.3-0.3c-0.5-0.7-1-0.4-1.4-0.5l-0.9-0.4c0.1,0.7,0.5,1.4,1.1,1.9C196.8,150.9,197.1,151.2,197.5,151.3z M204.9,160.8l-0.6,0.3c0.7-0.1,0.6,0,1.2,0.1c1.2,0.2,1.5-1,1.9-1.7l0.3-0.5c-0.7,0.1-1.5,0.5-2,0.8c-0.4,0.2-0.5,0.3-0.8,0.6c-0.1,0.1-0.2,0.2-0.4,0.3s-0.3,0.2-0.4,0.3c0.2-0.1,0.4-0.2,0.6-0.3c0.9-0.3,0.6,0.2,1.2-0.6l-0.2,0.4c0.4-0.1,0.5-0.4,0.9-0.7c0.1,0.2-0.2,0.4-0.3,0.5C205.7,160.8,205.2,160.6,204.9,160.8z M206.7,142.3c-0.4,0.3-1,0.9-1.2,1.3c-0.4,0.7-0.4,1.3-0.2,2.2l0,0l0.4-0.7c0.2-0.4-0.1-0.4,0-0.9c0.1,0,0.1,0,0.2,0.5l0.4-1c0.1,0.3-0.6,1.6-0.7,2l-0.2,0.7c0.3-0.4,0.7-0.6,0.9-0.9c0,0.2-0.1,0.5-0.2,0.8l0.5-0.6c0.2-0.3,1-1.6,1.4-1.7l-0.7,1c0.4-0.2,0.4-0.2,0.5-0.1c-0.4,0.4-0.6,0.1-0.8,0.5l-0.4,0.7l0,0c0.9-0.4,1.5-0.7,1.9-1.4c0.3-0.5,0.5-1.3,0.6-1.9l-2.3,1.4L206.7,142.3z M203.2,144.4c-0.3,0.1-0.9,0.8-1.1,1c0.2,0,0.3-0.1,0.5-0.2c0.5-0.1,0.9,0,1.5-0.7c0.5-0.6,0.7-1.4,0.9-2.2c-0.8,0.2-1.7,0.6-2.1,1c-0.6,0.6-0.6,1.1-0.8,1.6c-0.1,0.2-0.2,0.3-0.3,0.5c0.4-0.3,0.3-0.4,1.1-1.1c0.2-0.2,0.4-0.3,0.6-0.6c0.3-0.3,0.2-0.2,0.5-0.6c0.1,0.2-0.5,0.8-0.7,1h0.4C203.7,144.4,203.5,144.3,203.2,144.4z M201.9,145.4L201.9,145.4L201.9,145.4L201.9,145.4z M199.6,160.3c-0.5-0.2-0.5-0.1-1.2,0c0-0.2,0.2-0.1,0.6-0.2c-0.2-0.1-0.9-0.3-0.9-0.3l-0.1-0.1c0,0,0-0.1,0.1,0c0,0,0.1,0,0.2,0.1c1.1,0.4,1.4,0.5,2.5,0.9c-0.3-0.3-0.4-0.3-0.7-0.7c-1-1.2-2-0.8-3.2-0.8l0,0c0.1,0.2,1.2,1.4,1.4,1.5l2.4,0.1C200.4,160.7,199.9,160.5,199.6,160.3z M199.3,157.6l-0.2-0.5c-0.2,0-0.4,0.1-0.6,0.1c-0.2,0-0.5,0-0.7-0.1c-0.2,0-0.4-0.1-0.7-0.1c-0.4-0.1-0.3,0-0.5-0.2l1.2,0.2c-0.3-0.2-0.2-0.1-0.4-0.4c0.2,0,0.5,0.3,0.7,0.4h1l-0.1-0.6c-0.5-0.2-1.2-0.2-1.8,0c-1.1,0.4-0.7,0.3-1.7,0.2c0.2,0.2,0.5,0.5,0.7,0.6c0.4,0.3,1.4,0.7,1.9,0.7L199.3,157.6z M204,160.8c0.2-0.1,0.6-0.4,0.7-0.6c0.1-0.1,0.2-0.2,0.4-0.3c0.1-0.1,0.3-0.2,0.4-0.2l0.4-2.3c-0.4,0.2-1.4,0.9-1.7,1.2c-0.6,0.8-0.6,1-0.5,2.3l1-1.6v-0.8c0.1,0,0.1-0.1,0.2,0.4c0.3-0.5,0.1-0.4,0.5-0.7c0,0.1-0.4,0.9-0.4,1C204.6,159.8,204.4,160.2,204,160.8z M203,159.1l0.4,1.9c0-0.7,0.3-1.2,0.1-1.9l-0.7-1.4c-0.1,0.3-0.2,1.3-0.2,1.7c0,0.6,0.2,0.8,0.5,1.2c0.1,0.1,0.1,0.1,0.1,0.1l-0.3-2.1C203,158.6,202.9,158.7,203,159.1z M203.8,160.8L203.8,160.8L203.8,160.8L203.8,160.8z M206,155.2L206,155.2L206,155.2L206,155.2z M206.9,154.4c-0.2,0.2-0.3,0.3-0.6,0.6c-0.1,0.1-0.2,0.1-0.3,0.2l1.3-0.1c0,0.2-0.2,0.2-0.6,0.2c-0.6,0.1-1.6,0.1-2.3,0.1c0.2,0.1,0.4,0.2,0.5,0.3c0.2,0.1,0.3,0.2,0.5,0.3c0.4,0.2,0.9,0.2,1.3,0l1.7-1.6C207.6,154.6,208,154.7,206.9,154.4z M204,154.6L204,154.6c0.4-0.4,0.3-1.3,0.6-1.9c0.1-0.1,0.1-0.2,0.2-0.2c0.1-0.1,0.1-0.1,0.2-0.1c0,0.1-0.2,0.2-0.3,0.4l-0.2,0.6c0,0,0,0,0.1-0.1c0,0,0,0,0.1-0.1c0.3-0.4,0.6-0.5,1-0.8l-0.4-1.5l-0.7,0.6c-0.2,0.2-0.5,0.5-0.6,0.8C203.4,153.3,203.9,153.8,204,154.6z M207,148.7c-0.5,0-0.8,0.1-1.2,0.1L204,149c1.1,0.4,1.3,1,2.5,0.5c1-0.4,1.2-0.8,1.8-1.5c-1.5,0.4-1.7-0.9-3.2,0c-0.2,0.1-0.6,0.5-0.7,0.7l0,0c0.4,0,1.6,0,1.9-0.2l0.5-0.2c0,0.1,0,0.1-0.2,0.2c0.5,0,0.3-0.1,0.7,0C207.3,148.7,207.4,148.7,207,148.7z M201.6,148.6L201.6,148.6L201.6,148.6L201.6,148.6z M200.3,147.9c0.2,0.2,0.2,0.2,0.5,0.6c0.2-0.6,0.2-1.4-0.2-1.8l-1.1-1.2c-0.3,0.4-0.2,1.5-0.1,2.1c0.2,0.6,0.5,0.7,0.9,0.9c0.2,0.1,0.2,0.2,0.4,0.2l0,0c-0.1-0.4-0.6-0.8-0.7-1l-0.3-1.3c0.2,0,0.2,0.4,0.2,0.5l0.2,0.6c0.1-0.4-0.1-0.1,0.2-0.5C200.4,147.3,200.1,147.7,200.3,147.9z M200,153.2C199.9,153.1,200,153.2,200,153.2c-0.1-0.1-0.1-0.1-0.2-0.1c-0.7-0.1-0.8-0.1-1.6,0l0.3-0.2c-0.2,0-0.4-0.1-0.6-0.1c-0.3-0.1-0.3-0.1-0.5-0.2c0.1-0.1,0.1-0.1,0.2,0c1,0.3,1.2,0.3,2.3,0.5c-0.1-0.3-0.9-0.7-1.4-0.8c-0.7-0.1-0.9,0.3-1.7-0.1c0.4,0.7,1.4,1.6,2.4,1.5C199.7,153.6,199.7,153.4,200,153.2z M206.2,139.3l0.3-0.2c0,0.2-0.2,0.4-0.4,0.6c-0.2,0.3-0.4,0.4-0.5,0.5c-0.5,0.6-0.4,0.5-1.2,0.8c1.5,0.1,2.4-1.5,3-2.6c-1.5,0.2-1.2,0.3-1.3,0.7c-0.1,0.2-0.2,0.4-0.2,0.5C206,139.5,206.1,139.4,206.2,139.3z M196.9,152.1L196.9,152.1L196.9,152.1L196.9,152.1z M203.4,147.9c0.4-0.5,0.8-1.7,0.7-2.2l-1.6,0.9c-0.6,0.3-0.8,1.2-0.9,1.9c0.4-0.3,0.4-0.3,0.7-0.5s0.1-0.7,0.4-0.9c0.1,0.5,0,0.1,0,0.6l0.4-0.5c0.1-0.2,0.2-0.5,0.4-0.5l-0.8,1.3c-0.2,0.2-0.8,0.4-1.1,0.8c0.2,0,0.3-0.1,0.5-0.1C202.6,148.5,202.9,148.5,203.4,147.9z M207.6,169.3l0.8-0.3c-0.4-0.2-0.5-0.4-0.7-0.4c-0.6,0-0.2,0.1-1-0.1c0.1-0.1,0-0.1,0.5-0.1h0.5c-0.3-0.3-0.7-0.5-1-0.7l1,0.5v-0.7c0.3,0,0.1,0.4,0.2,0.8c0.1,0.2,0.4,0.4,0.6,0.5c0.3,0.2,0.5,0.1,0.8,0.2l0.8,0.3c-0.3-0.5-0.2,0.1-0.7-1.1c-0.2-0.5-0.4-0.8-0.8-1c-0.9-0.6-2.1-0.2-3.2-0.2l0,0l0.7,1.4l1,1.2C207.2,169.6,207.4,169.5,207.6,169.3z M206.6,165.3c0.1-0.1,0.1-0.1,0.2-0.2c0.1-0.1,0.1-0.1,0.2-0.2c0.1-0.1,0.2-0.2,0.3-0.4c0.8-1.3,0.3-2,0.3-2.4l0.2-1.2c-0.3,0.1-0.9,0.6-1.1,0.8c-0.6,0.6-1.2,1.8-0.9,2.7c0.1,0.2,0.2,0.4,0.3,0.6c0.1,0.2,0.2,0.5,0.3,0.7l0,0c0-0.6,0-1.1,0-1.7c0-0.3-0.1-1-0.2-1.4c0.1,0,0.1,0.1,0.1,0.3l0.1,0.4c0.1-0.6,0.2-0.6,0.5-1c0.1,0.1-0.3,0.6-0.4,1.3L206.6,165.3z M206,158.6l1.5-0.2c-0.5-0.6-0.8-0.9-1.3-1.4c0,0.2-0.1,0.4-0.1,0.6l0,0l0.3,0.3c-0.1,0-0.2,0-0.3-0.1L206,158.6z M204.3,158.1l0.9-0.7c-0.2-0.2-0.6-0.2-0.9-0.3l-0.8-0.3c0.2,0.3,0.2,0.2,0.4,0.6C203.9,157.7,204,158,204.3,158.1z M205.9,149.9h-1.1c0.4,0.5,0.9,0.7,1.8,0.6c0.8-0.1,1-0.3,1.7-0.7l-1.2-0.4l-0.6,0.3c0.4,0,0.2,0,0.6,0.2C206.9,150,206.2,149.9,205.9,149.9z M204.5,157.1c1.1,0.2,0.4,0.5,1.5-0.2c-0.1-0.1-0.4-0.2-0.5-0.3c-0.7-0.3-1.2,0-1.6,0l-0.8-0.1C203.3,156.7,204.1,157,204.5,157.1z M208.7,144.6c-0.1,0.1-0.1,0.2-0.2,0.3c-0.2,0.3-0.1,0.1,0,0.3c-0.4,0.2-0.6,0.6-1.1,0.7c-0.6,0.2-1.2,0-1.5,0.4c1-0.1,1.6,0.3,2.3-0.4c0.5-0.4,0.9-1.1,1.2-1.6C209.3,144.4,208.8,144.5,208.7,144.6z M206,156.9L206,156.9L206,156.9L206,156.9z M210.9,168.9c0.1,0.4,0.2,0.7,0.3,1.1c0.1,0.4,0.2,0.7,0.4,1l0,0l0.7-0.2c-0.1-0.1-0.4-0.4-0.5-0.6c-0.3-0.4-0.3-0.5-0.2-0.7c0,0.1,0,0,0,0.1s0,0.2,0.1,0.3s0.1,0.2,0.2,0.3c0.2,0.2,0.3,0.4,0.5,0.5c0-0.4-0.1-0.5,0-0.7c0.1,0,0,0,0.1,0.1v0.6l0.8-0.2C212.8,169.6,211.8,169.2,210.9,168.9z M210.5,168.5c0.2-0.6-0.4-1.5-0.6-1.7l-2.2-1c0.3,0.2,0.4,0.4,0.6,0.8c0.1,0.3,0.2,0,0.8,0.7c0.6,0.6,0.6,1.4,1.2,1.7c-0.1-0.2-0.2-0.4-0.4-0.7c-0.3-0.5-0.2-0.8-0.7-1.3c-0.1-0.1-0.2-0.2-0.3-0.3c-0.1,0-0.2-0.1-0.2-0.2l0,0v-0.1c0.2,0,0.5,0.4,0.6,0.5c0.3,0.3,1,1.8,1.2,2.2C210.6,168.9,210.5,168.7,210.5,168.5z M212,166.2c0.1,0.4,0.2,0.6,0.1,1.1c0,0.4-0.2,0.6-0.2,1c-0.1,0.8,0.2,0.8,0.3,0.9c0.3,0.2,0.5,0.3,0.7,0.5l0,0v-0.8c-0.3-0.3-0.3-0.3-0.5-0.7c0.2,0,0.3,0.3,0.5,0.5c0-0.4-0.2-1-0.3-1.4c0.2,0,0.3,0.5,0.3,0.7c0.2,0.9,0,1.6,0.2,1.9l0.4,0.6c0.1-0.6,0.8-1,0-2.5C213.2,166.9,212.8,166.8,212,166.2z M206.1,165.9c-0.4-1.1-0.9-1.6-1.1-2.3c-0.1-0.5-0.1-0.5,0-0.9c0.2,0.3-0.2,0.5,0.5,1.6c0-0.4-0.1-0.5-0.1-1c0-0.2,0.2-0.8,0.2-0.9c0-0.2-0.8-0.9-1.1-1.2c-0.1,1-0.4,1.9,0,2.9C204.9,165.3,205.5,165,206.1,165.9z M208.3,170.1c0.9-0.1,1.1-0.3,2.1-0.4c0.1,0,0.1,0,0.2-0.1c-1.5,0-1.9-1-3.7,0.3l-0.9,0.7c0.1,0.1,0.9,0.3,1.1,0.4c0.7,0.2,1.9,0.3,2.4-0.4c0.3-0.4,0.5-0.5,0.8-0.8c-0.6,0-0.9,0.2-1.4,0.3c-0.4,0.1-0.4,0.3-0.7,0.6L208,171c0-0.2,0.3-0.5,0.5-0.7h-1.1C207.5,170.1,207.8,170.1,208.3,170.1z M203.5,165c-0.7-0.7-0.6-0.7-1-0.6l-0.7,0.1c0-0.1,0.5-0.2,0.8-0.2c-0.1-0.1-0.3-0.1-0.5-0.1c-0.4-0.1-0.1,0-0.5-0.1c0.2-0.2,1.1,0.1,1.5,0.5c0.3,0.3,0.7,0.8,1,1.1l-0.5-1.1c-0.5-0.9-1.8-1.2-2.8-1.1c-0.2,0-0.5,0.1-0.7,0.2l0,0h0.1c0,0,0,0,0.1,0c0.3,0.1,0.5,0.2,0.7,0.5c0.3,0.3,0.3,0.4,0.7,0.8c0.6,0.5,1.3,0.5,2.2,0.6C203.9,165.3,203.7,165.1,203.5,165z M203.5,167.3c-0.2-0.2-0.2-0.1-0.3-0.4l1,0.6c-0.1-0.1-0.2-0.2-0.4-0.6c0,0,0-0.1,0.1,0l0.1,0.1l0.5,0.6l0.7-0.1c0-0.1-0.1-0.3-0.2-0.4c-0.1-0.2,0-0.3-0.2-0.4c-0.2-0.2-0.5-0.3-0.8-0.3c-0.4,0-0.7,0.1-1,0.1l-1-0.2c0,0.2,0.4,0.8,0.5,1c0.4,0.6,1.6,1.5,2.5,1.1c0.1-0.1,0.4-0.1,0.6-0.2l-0.2-0.5C204.6,167.7,204.4,167.9,203.5,167.3z M209,163.1c-0.2,0-0.8,0.2-0.9,0.3c-0.1,0.1-0.1,0-0.1,0.2c0,0.1,0,0.1-0.1,0.2c0,0.2-0.1,0.3-0.2,0.4c0.2-0.1,0.5-0.5,0.7-0.7c0.1,0.2-0.3,0.6-0.4,0.7c-0.4,0.3-0.1,0-0.6,0.6C208.3,165,208.7,163.7,209,163.1z M214.9,167l-0.6,0.8c-0.3,0.5-0.1,0.2,0,1.1c0-0.1,0.1-0.2,0.1-0.3c0.1-0.2,0-0.1,0.2-0.3c0.1,0.1,0,0.2-0.1,0.5c-0.2,0.5-0.3,1-0.4,1.5c0.5-0.1,0.5-0.1,0.7-0.4c0.1-0.2,0.2-0.5,0.3-0.8L214.9,167z" />
  </g>
  <g>
    <path fill="#CE1126" stroke="#000000" stroke-width="0.1476" d="M216.5,176.1l1.2,0.6L217,178c0.5-0.1,2.3-0.7,2.9-0.9c-0.1-0.4-0.2-0.5-0.1-1l-0.2-0.9l-1.4,0.5C217.5,175.8,217,176,216.5,176.1L216.5,176.1z M232,175.9l-1.2,0.6l0.7,1.3c-0.5-0.1-2.3-0.7-2.9-0.9c0.1-0.4,0.2-0.5,0.1-1l0.2-0.9l1.4,0.5C230.9,175.6,231.4,175.8,232,175.9L232,175.9z" />
    <path fill="#CE1126" stroke="#000000" stroke-width="0.1504" d="M220.7,177.9c1.3-0.2,2.5-0.9,2.5-0.9c0.2,0.2,1.3,0.1,1.3,0.1c0.5-0.1,0.7-0.2,0.7-0.2c1.3,0.8,2.3,1,2.3,1c1.2-0.1,1.2-1,1.2-1c0-0.8-0.1-0.8-0.1-0.8c0.6-1,0-1.8,0-1.8c-0.3-0.4-2.1,0.2-2.1,0.2c-1.2,0.6-1.3,0.3-1.3,0.3c-0.3-0.5-1.6-0.4-2.2,0c-1.3-0.3-1.5-0.4-1.5-0.4c-1.4-0.5-1.6-0.2-1.6-0.2c-0.5,0.6-0.3,1.2-0.3,1.2c0,0.3,0.1,0.6,0.1,0.6C219.4,177.9,220.7,177.9,220.7,177.9L220.7,177.9z" />
    <path fill="none" stroke="#000000" stroke-width="0.1193" d="M225.2,176.5c2.9,0.7,2.7,1.1,2.7,1.1c-0.2,0.3-1-0.1-1-0.1C224.6,176.7,225.2,176.5,225.2,176.5L225.2,176.5z M223.4,176.5c-2.9,0.7-2.7,1.1-2.7,1.1c0.2,0.3,1-0.1,1-0.1C224,176.7,223.4,176.5,223.4,176.5L223.4,176.5z M225.3,175.2c3.3,0,3.1-0.6,3.1-0.6 M225.3,176.2c3.3,0.4,2.9,0.9,2.9,0.9 M223.3,176.1c-3.1,0.7-2.8,1.2-2.8,1.2 M222.9,175.1c-3.1,0.2-2.8-0.3-2.8-0.3" />
    <path fill="#AA241E" stroke="#000000" stroke-width="0.1115" d="M223.5,174.5c-1.3,0.2-0.3,1.2-0.2,1.7c0,0.3-0.3,0.8,0,1c0.3,0.1,1,0,1.3,0c0.5,0,0.8,0,0.8-0.6c0-0.5-0.2-0.6-0.2-1.2c0-0.4,0.1-0.9-0.4-0.9C224.5,174.4,223.8,174.4,223.5,174.5L223.5,174.5z" />
  </g>
  <g>
    <path fill="#000000" d="M211.1,171.4c-1.7,0.5-2.8,0.9-4.4,1.9c-0.6-0.9-1.4-2.3-2-3c-0.3-0.4-0.8-0.9-1.4-1.2c-0.9-0.4-1.2-0.3-1.8,0.2l-0.4-0.8c-0.8-1.4-1.7-2.1-2.6-3.2l-0.8-0.9c-0.1-0.1-0.1-0.2-0.3-0.3c0.3,1.1,0.6,2.2,0.8,3.5c-0.5-0.3-1-0.5-1.5-0.8c-0.4-0.1-1.4-0.4-1.9-0.3l0.6,0.5c1,0.9,1.7,2.1,2.1,3.4c0.4,1.4,1.5,3,2.6,4c0.2,0.2,0.8,0.8,1.3,0.9c1.2,0.4,1.2,0,1.6-0.2c0.9,1.6,1.5,2.4,2.6,3.6c1.2,1.2,3,1.6,4.6,1.2c0.7-0.2,1.2-0.4,1.8-0.7c2.2-1.2,1.1-2.2,0.9-3.2c0.7-0.2,3.4-1,4.4-1.2c3.5-0.6,9.9-0.7,14-0.1c0.4,0.1,4.5,1.2,4.9,1.4c-0.3,0.7-0.4,1-0.4,1.8c0.1,0.7,0.7,1.1,1.2,1.4c0.6,0.3,1,0.5,1.8,0.7c0.7,0.2,1.5,0.2,2.2,0.1c1.5-0.3,2.4-1.1,3-2c1.1-1.3,1.4-2,2-2.9c0,0,0.3,0.3,0.5,0.4c0.2,0.1,0.9-0.1,1.1-0.1c0.5-0.2,0.9-0.6,1.2-0.9c1.1-1.1,2.1-2.5,2.6-4.1c0.6-1.8,1.3-2.7,2.6-3.9c-1.7,0.1-2.3,0.5-3.3,1.1l0.4-1.8c0.1-0.5,0.4-1.2,0.4-1.7c-0.8,0.8-1.5,1.7-2.2,2.5c-0.3,0.4-0.7,0.8-1,1.3c-0.7,1.1-0.6,1.1-0.8,1.5c-2.4-1.4-3.5,1.9-5.2,4c-3.1-1.7-5.7-2.3-9.3-2.9c-0.8-0.1-1.5-0.2-2.2-0.3c-4.5-0.5-9.5-0.5-14,0.2C214.6,170.4,213.2,170.9,211.1,171.4L211.1,171.4z" />
    <path fill="#CE1126" d="M239.9,177.1c-2.1-1-3.6-1.5-5.8-2.1c-1.4-0.4-3-0.7-4.5-0.8c-0.7-0.1-1.5-0.2-2.3-0.2c-2-0.1-3.2-0.1-5.2,0c-1.4,0.1-1.6,0.1-2.3,0.2c-1.5,0.2-3,0.5-4.5,0.8c-2.5,0.7-3.6,1.1-5.9,2.1c-0.7,0.3-1,0.5-1.3,1.3l0,0c-0.3-0.3-0.6-0.6-0.9-1c-0.2-0.3-0.4-0.7-0.7-1.2c-0.2-0.4-1-1.4-0.5-2c0.1-0.2,0.3-0.3,0.5-0.4c1.3-1,3.2-1.8,5.1-2.3c7.8-2.2,18.6-2.2,26.4,0c1.8,0.5,4,1.4,5.1,2.4c0.3,0.3,0.7,0.5,0.5,1.1c-0.1,0.4-0.4,0.9-0.6,1.2c-0.4,0.7-0.9,1.6-1.6,2.1C240.7,177.5,240.8,177.5,239.9,177.1z M210.6,178.8c-1.4,0.9-1.9,0.6-2.9-0.3c-0.8-0.7-1.2-1.5-1.7-2.5c-0.2-0.4-0.6-1-0.5-1.6l1-1.1c-0.4-0.7-0.9-1.4-1.3-2c-0.5-0.8-0.8-1.3-1.5-1.8c-0.4-0.3-1.2-0.8-1.7-0.4c-0.5,0.4-0.8,0.8-1.2,1.3c-0.2,0.3-0.5,0.6-0.6,1l0,0c0.9,0.2,1.2,0.4,1.8,1.2c1.3,1.8,1.3,3,3.5,5.4c0.5,0.5,0.9,1,1.6,1.3c0.8,0.3,1.6,0.5,2.6,0.3c0.9-0.1,1.5-0.3,2.2-0.7c0,0,0.8-0.5,1-0.7c0.2-0.3,0.2-0.9,0.2-0.9C212.5,177,211.3,178.3,210.6,178.8z M211.8,177.4c0.3-0.3,0.7-0.5,1.3-0.5l0,0l-0.4-0.9c-0.5,0.1-3.1,1.2-3.8,1.6c-0.2,0.1-0.9,0.7-0.6,1.1C209.4,179.7,210.9,178.1,211.8,177.4z M201.6,174c-0.5-0.3-0.9-0.6-1.3-0.9c-1-1-0.2-2.2,0.5-3l0.5-0.6c0.1-0.4-0.7-1.5-1.1-2.1c-0.4-0.5-1.6-1.8-2.1-2.4c0.1,0.5,0.2,1.1,0.3,1.6c0.1,0.3,0.3,1.2,0.4,1.5c-0.2-0.1-0.9-0.6-1.3-0.8l-1.6-0.5c0.2,0.3,0.4,0.4,0.9,1c1,1.3,1,2.4,1.8,3.9c0.3,0.5,0.8,1.2,1.2,1.7c0.3,0.3,1.2,1.2,1.5,1.4c0.6,0.5,1.2,0.5,1.5,0.1C202.7,174.7,202,174.2,201.6,174z M200.4,171.7c0,0-0.3,0.1-0.3,0.4c-0.1,0.4,0.4,0.8,0.4,0.8c0.2,0.3,1.6,0.9,1.8,1.1c0.6,0.4,0.6,0.8,0.7,0.8C203,174.7,201.6,171.7,200.4,171.7z M249,171.5c-0.1-0.4-0.4-0.7-0.6-1c-0.4-0.5-0.7-0.9-1.2-1.3c-0.6-0.3-1.3,0.1-1.7,0.4c-0.7,0.5-1,1-1.5,1.8c-0.4,0.6-0.9,1.3-1.3,2l1,1.1c0.1,0.6-0.3,1.2-0.5,1.6c-0.6,0.9-0.9,1.7-1.7,2.5c-1,0.9-1.5,1.2-2.9,0.3c-0.8-0.5-1.9-1.8-2.6-1.6c0,0,0,0.7,0.2,0.9c0.2,0.3,1,0.7,1,0.7c0.7,0.4,1.3,0.6,2.2,0.7c0.9,0.1,1.8,0,2.6-0.3s1.1-0.8,1.6-1.3c2.2-2.4,2.2-3.6,3.5-5.4C247.8,171.9,248.1,171.6,249,171.5z M249,171.5L249,171.5L249,171.5L249,171.5z M251.8,167.3c-0.4,0.2-1.1,0.7-1.3,0.8l0,0c0.1-0.5,0.2-1,0.4-1.5c0.1-0.5,0.2-1.1,0.3-1.5c-0.5,0.6-1.6,1.8-2.1,2.4c-0.4,0.6-1,1.3-1.1,2.1l0.5,0.6c0.7,0.8,1.5,2,0.5,3c-0.3,0.3-0.8,0.6-1.3,0.9c-0.4,0.2-1.1,0.7-1.1,1c0.2,0.3,0.9,0.3,1.5-0.1c0.2-0.2,1.2-1.1,1.5-1.4c0.4-0.5,0.9-1.2,1.2-1.7c0.8-1.6,0.8-2.6,1.8-3.9c0.4-0.5,0.7-0.7,0.9-1L251.8,167.3z M240.3,177.7c-0.6-0.4-3.2-1.5-3.8-1.6l-0.4,0.9l0,0c0.6,0,1,0.3,1.3,0.5c0.9,0.7,2.4,2.3,3.4,1.2C241.2,178.3,240.5,177.8,240.3,177.7z M247,174c0.2-0.2,1.6-0.9,1.8-1.1c0,0,0.4-0.3,0.4-0.8c0-0.3-0.3-0.4-0.3-0.4c-1.2,0-2.6,3-2.6,3.1C246.4,174.8,246.4,174.5,247,174z" />
    <path fill="#EAC102" d="M210.7,173.1c-0.1,0-0.3,0-0.4,0.1c-0.2,0.1-0.4,0.2-0.6,0.2c-0.1,0-0.1,0.1,0,0.1c0.1,0.1,0.1,0.2,0.1,0.3s0.1,0.3,0.1,0.4c0,0.2,0.1,0.3,0.1,0.5s0.1,0.3,0.1,0.5c0,0.1-0.1,0.2,0,0.2s0.3-0.1,0.4-0.1c0.1,0,0.2-0.1,0-0.1c-0.1-0.1-0.1-0.2-0.2-0.4c0-0.1-0.1-0.2-0.1-0.4c0-0.1,0.2,0,0.2,0.1c0.1,0.1,0.2,0.2,0.3,0.3s0.2,0.2,0.4,0.2c0.1,0,0.2,0,0.3,0c-0.1-0.1-0.3-0.2-0.4-0.4c-0.1-0.1-0.2-0.3-0.3-0.4c0.1-0.1,0.3-0.3,0.3-0.5s-0.1-0.4-0.3-0.5C210.9,173.1,210.8,173.1,210.7,173.1L210.7,173.1z M210.5,173.3c0.1,0,0.2,0.1,0.3,0.2c0.1,0.1,0.1,0.3,0.1,0.4c0,0.1-0.1,0.2-0.2,0.3c-0.1,0.1-0.3,0.2-0.3,0c-0.1-0.2-0.1-0.4-0.2-0.6c0-0.1,0.1-0.2,0.2-0.2C210.4,173.3,210.5,173.3,210.5,173.3L210.5,173.3z M211.4,172.8c0,0.1,0.1,0.1,0.1,0.3s0.1,0.3,0.1,0.5c0,0.1,0.1,0.3,0.1,0.4c0,0.1,0.1,0.2,0.1,0.3s0.1,0.3,0.1,0.4c0,0.1-0.1,0.2,0,0.2c0.4-0.1,0.8-0.2,1.1-0.3c0.1,0,0.1-0.1,0.1-0.1v-0.3c-0.1,0-0.1,0.2-0.2,0.2c-0.1,0.1-0.3,0.2-0.5,0.3c-0.1,0-0.2-0.1-0.2-0.2c0-0.1,0-0.2-0.1-0.3c0-0.1-0.1-0.3-0.1-0.4c0.1-0.1,0.3-0.1,0.4-0.1c0.1,0,0.1,0.1,0.2,0.1c0-0.1,0-0.2-0.1-0.3c0,0,0-0.2-0.1-0.2c0,0.1-0.1,0.2-0.1,0.2c-0.1,0.1-0.2,0.1-0.3,0.1c-0.1-0.1-0.1-0.2-0.1-0.3s-0.1-0.3,0.1-0.3c0.2-0.1,0.4-0.1,0.5,0c0.1,0,0.2,0.2,0.2,0c-0.1-0.1-0.1-0.3-0.2-0.4c-0.1,0-0.2,0.1-0.3,0.1C212,172.7,211.7,172.7,211.4,172.8L211.4,172.8z M213.9,172.1c-0.2,0-0.3,0-0.4,0.1c-0.2,0-0.3,0.1-0.5,0.2c-0.1,0.1,0.1,0.1,0.1,0.2c0,0.1,0,0.2,0.1,0.3c0,0.1,0,0.2,0.1,0.3c0,0.2,0.1,0.3,0.1,0.5c0,0.1,0.1,0.3,0.1,0.4c0,0.1,0,0.2-0.1,0.3c0.2,0,0.3-0.1,0.5-0.1c0.1,0,0.1-0.1,0-0.1c-0.1-0.1-0.1-0.2-0.1-0.4c0-0.1-0.1-0.3-0.1-0.4c0.2-0.1,0.5-0.1,0.6-0.3c0.1-0.1,0.2-0.3,0.2-0.4c0-0.2,0-0.3-0.1-0.4c-0.1-0.1-0.1-0.1-0.2-0.2C214.1,172.1,214,172.1,213.9,172.1L213.9,172.1z M213.8,172.3c0.1,0,0.3,0.1,0.3,0.2c0.1,0.1,0.1,0.3,0.1,0.4c0,0.1-0.1,0.2-0.2,0.2c-0.1,0-0.2,0.1-0.3,0.1c-0.1-0.1,0-0.2-0.1-0.3c0-0.2-0.1-0.3-0.1-0.5c0-0.1,0.1-0.2,0.2-0.2C213.7,172.3,213.7,172.3,213.8,172.3L213.8,172.3z M215.8,171.8c0.1,0.1,0.1,0.1,0.2,0.2c0.1,0.1,0,0.2,0.1,0.3c0,0.1,0,0.3,0.1,0.4c0,0.1,0,0.2,0,0.3s0,0.3,0,0.4c0,0.2-0.2,0.4-0.4,0.3c-0.1,0-0.2-0.1-0.2-0.2c-0.1-0.1-0.1-0.2-0.1-0.3s-0.1-0.3-0.1-0.4c0-0.1,0-0.3-0.1-0.4c0-0.1,0-0.2-0.1-0.3c0-0.1,0.1-0.2,0-0.2c-0.2,0-0.3,0.1-0.5,0.1c-0.1,0.1,0.1,0.1,0.1,0.2c0,0.1,0,0.2,0,0.3c0,0.2,0.1,0.4,0.1,0.7c0,0.1,0,0.2,0.1,0.3c0,0.1,0.1,0.2,0.1,0.3c0.1,0.1,0.2,0.2,0.3,0.2c0.2,0,0.5,0,0.7-0.2c0.1-0.1,0.1-0.2,0.1-0.3c0-0.2,0-0.3,0-0.5s0-0.3-0.1-0.5c0-0.1,0-0.3-0.1-0.4c0-0.1,0-0.1,0-0.2c0-0.1,0.1-0.1,0.1-0.2c-0.1,0-0.2,0-0.3,0C215.9,171.7,215.8,171.7,215.8,171.8L215.8,171.8z M217.4,171.4c-0.2,0-0.4,0-0.7,0.1c-0.1,0-0.2,0-0.3,0.1c0.1,0.1,0.1,0.1,0.1,0.2c0,0.2,0.1,0.5,0.1,0.7c0,0.1,0.1,0.3,0.1,0.4c0,0.2,0,0.3,0,0.5c0,0.1-0.1,0.2,0,0.2s0.2,0,0.3,0s0.2,0,0.4-0.1c0.1,0,0.3-0.1,0.4-0.1c0.1-0.1,0.2-0.1,0.2-0.2c0.1-0.1,0.1-0.2,0.1-0.2c0-0.2,0-0.3-0.1-0.4c-0.1-0.1-0.2-0.1-0.3-0.1s-0.2-0.1,0-0.1c0.1-0.1,0.2-0.2,0.3-0.3c0-0.1,0-0.3-0.1-0.4c0-0.1-0.2-0.2-0.3-0.2C217.5,171.5,217.5,171.5,217.4,171.4L217.4,171.4z M217.1,171.6c0.1,0,0.3,0,0.4,0.1c0.1,0.1,0,0.2,0,0.4c0,0.1-0.1,0.2-0.2,0.2c-0.1,0-0.3,0.1-0.2,0c0-0.1,0-0.2,0-0.3s0-0.2,0-0.3V171.6z M217.3,172.5c0.1,0,0.2,0,0.3,0.1s0.1,0.2,0.1,0.4c0,0.1,0,0.2-0.1,0.3s-0.2,0.1-0.4,0.1c-0.1-0.1-0.1-0.2-0.1-0.3s0-0.2-0.1-0.3C217.1,172.7,217,172.5,217.3,172.5C217.2,172.5,217.2,172.5,217.3,172.5z M218.3,171.3c0,0.1,0.1,0.1,0.1,0.2c0,0.1,0,0.2,0,0.3s0,0.2,0,0.3s0,0.3,0,0.4c0,0.1,0,0.3,0,0.4c0,0.1,0,0.3-0.1,0.4c0,0.1,0.1,0,0.2,0c0.2,0,0.3,0,0.5,0c0.1,0,0.2,0,0.3,0h0.3c0-0.1,0.1-0.3,0.1-0.4c0-0.1,0-0.1-0.1-0.1c0,0.1-0.1,0.2-0.1,0.2c-0.1,0-0.1,0.1-0.2,0.1c-0.1,0-0.2,0.1-0.2,0c-0.1,0-0.2,0-0.2-0.1s0-0.3,0-0.4c0-0.2,0-0.5-0.1-0.7c0-0.1-0.1-0.3,0-0.5c0-0.1,0.2-0.2,0-0.2c-0.1,0-0.2,0-0.2,0C218.5,171.2,218.4,171.3,218.3,171.3L218.3,171.3L218.3,171.3z M219.8,171.1c0,0.1,0.1,0,0.1,0.1s0,0.2,0,0.3s0,0.2,0,0.3l0.1,0.9c0,0.1,0,0.2,0,0.2c0,0.1-0.1,0.1-0.1,0.2c0.2,0,0.4,0,0.6-0.1c0.1,0,0-0.1,0-0.1c-0.1-0.1-0.1-0.2-0.1-0.2c0-0.1,0-0.3,0-0.4c0-0.1,0-0.2,0-0.4s0-0.3,0-0.5c0-0.1,0-0.2,0-0.3c0,0,0.1-0.1,0-0.1C220.2,171,220,171,219.8,171.1C219.9,171.1,219.8,171.1,219.8,171.1L219.8,171.1z M222.3,172.4c-0.1,0-0.1,0.1-0.2,0.2c-0.1,0.1-0.2,0.1-0.3,0.2c-0.1,0-0.2-0.1-0.3-0.1c-0.1-0.1-0.1-0.2-0.2-0.3c0-0.1-0.1-0.2-0.1-0.3c0-0.2,0-0.3,0-0.5c0-0.1,0.1-0.2,0.2-0.3c0.1-0.1,0.3,0,0.4,0.1c0.1,0.1,0.1,0.2,0.2,0.3c0.1,0.1,0.1-0.1,0.1-0.1c0-0.1,0.1-0.2,0-0.2c-0.1-0.1-0.2-0.1-0.3-0.2c-0.2-0.1-0.5,0-0.7,0.1c-0.1,0.1-0.1,0.1-0.2,0.2c-0.1,0.1-0.1,0.2-0.1,0.2c0,0.1,0,0.2-0.1,0.3c0,0.3,0,0.5,0.1,0.7c0.1,0.1,0.2,0.2,0.3,0.3s0.2,0.1,0.3,0.1s0.3,0,0.4-0.1c0.1-0.1,0.2-0.2,0.2-0.3C222.2,172.6,222.3,172.5,222.3,172.4L222.3,172.4L222.3,172.4z M223.1,170.8c-0.1,0-0.2,0-0.3,0c0,0.2-0.1,0.3-0.1,0.5c0,0.1-0.1,0.2-0.1,0.3c-0.1,0.3-0.1,0.5-0.2,0.8c-0.1,0.1-0.1,0.3-0.2,0.4c-0.1,0,0,0.1,0,0.1h0.4c0-0.1-0.1-0.1-0.1-0.2c0-0.1,0-0.2,0-0.3s0.2,0,0.2-0.1h0.3c0,0.1,0.1,0.2,0.1,0.3s-0.1,0.2,0,0.2c0.2,0,0.3,0,0.5,0c0.1,0,0-0.1,0-0.2c0-0.2-0.1-0.3-0.1-0.5c-0.1-0.2-0.1-0.4-0.2-0.7C223.2,171.2,223.2,171,223.1,170.8C223.2,170.9,223.2,170.8,223.1,170.8L223.1,170.8L223.1,170.8z M222.9,171.3c0.1,0.3,0.2,0.5,0.2,0.8c0,0.1-0.1,0.1-0.1,0.1c-0.1,0-0.2,0-0.3,0c-0.1-0.1,0-0.2,0-0.3s0.1-0.2,0.1-0.4C222.9,171.5,222.9,171.4,222.9,171.3L222.9,171.3z M225.6,170.7H225c0,0.1,0.1,0.1,0.1,0.2c0,0.2,0,0.3,0,0.5c0,0.4,0,0.9,0,1.3c0,0.1-0.2,0.2,0,0.2c0.3,0,0.6,0,0.9,0c0.1,0,0.2-0.1,0.2-0.1c0.1-0.1,0.2-0.2,0.2-0.3c0.1-0.1,0.1-0.3,0.1-0.4c0-0.1,0-0.3,0-0.4c0-0.1-0.1-0.2-0.1-0.4c-0.1-0.1-0.1-0.2-0.2-0.2c-0.1-0.1-0.2-0.1-0.3-0.2C225.8,170.8,225.7,170.7,225.6,170.7L225.6,170.7z M225.6,170.9c0.1,0,0.3,0.1,0.3,0.2c0,0.1,0.1,0.2,0.1,0.3s0,0.2,0,0.3c0,0.2,0,0.4,0,0.6c0,0.1,0,0.3-0.1,0.4c0,0.1-0.1,0.1-0.2,0.2c-0.1,0-0.2,0-0.3-0.1c0-0.1,0-0.2,0-0.4c0-0.4,0-0.8,0-1.3C225.4,170.9,225.5,170.9,225.6,170.9L225.6,170.9z M227.5,170.8c-0.1,0-0.3,0-0.4,0.1c-0.1,0.1-0.2,0.2-0.3,0.3c-0.1,0.2-0.1,0.3-0.1,0.5s0,0.3,0,0.5c0,0.1,0.1,0.2,0.1,0.3s0.1,0.3,0.3,0.4c0.1,0.1,0.2,0.1,0.3,0.1c0.2,0,0.4-0.1,0.5-0.3c0.1-0.1,0.2-0.3,0.2-0.4c0-0.1,0.1-0.3,0.1-0.4c0-0.1,0-0.2,0-0.3s-0.1-0.3-0.1-0.4c-0.1-0.1-0.2-0.3-0.3-0.4C227.7,170.8,227.6,170.8,227.5,170.8L227.5,170.8z M227.5,170.9c0.2,0,0.3,0.2,0.3,0.3s0,0.2,0.1,0.3c0,0.2,0,0.4,0,0.6c0,0.1,0,0.3-0.1,0.4c0,0.1-0.1,0.2-0.2,0.3c-0.1,0.1-0.2,0.1-0.3,0s-0.1-0.2-0.1-0.3c-0.1-0.2,0-0.3,0-0.5s0-0.5,0-0.7c0-0.1,0-0.2,0.1-0.3C227.3,171,227.4,170.9,227.5,170.9L227.5,170.9z M228.3,173.1c0.1,0,0.3,0,0.4,0c0.1-0.1-0.1-0.2-0.1-0.3s0-0.3,0.1-0.4c0-0.1,0-0.2,0.1-0.4c0-0.1,0-0.2,0.1-0.4c0-0.1,0-0.3,0.1-0.3c0.1,0.1,0,0.2,0.1,0.3c0,0.1,0,0.3,0.1,0.4c0,0.1,0,0.3,0.1,0.4c0,0.1,0,0.2,0.1,0.4c0,0.1,0,0.3,0.1,0.2c0.1,0,0.1-0.1,0.1-0.2c0-0.2,0.1-0.4,0.1-0.6c0-0.1,0.1-0.2,0.1-0.3c0-0.2,0.1-0.4,0.2-0.5c0,0.5,0,1,0,1.6c0,0.1-0.2,0.2,0,0.2c0.1,0,0.3,0,0.4,0c0.1,0,0.1-0.1,0-0.1c-0.1-0.1,0-0.3,0-0.4c0-0.3,0-0.5,0-0.8c0-0.2,0-0.5,0-0.7c0,0,0.1-0.1,0-0.1h-0.5c0,0.1-0.1,0.2-0.1,0.4c0,0.1-0.1,0.3-0.1,0.4c0,0.1-0.1,0.3-0.1,0.4c0,0.1-0.1,0.1-0.1,0s-0.1-0.2,0-0.3c0-0.1-0.1-0.2,0-0.3c0-0.2-0.1-0.4-0.1-0.6c0-0.1-0.2,0-0.2-0.1c-0.1,0-0.2,0-0.3,0c0,0.1,0.1,0.3,0,0.4c0,0.1,0,0.2-0.1,0.3c0,0.3-0.1,0.5-0.1,0.8c0,0.1,0,0.2-0.1,0.3C228.4,172.9,228.3,173,228.3,173.1C228.3,173,228.3,173,228.3,173.1L228.3,173.1z M230.3,173.3c0.1,0,0.2,0,0.3,0.1c0.1,0,0.2,0.1,0.2,0s-0.1-0.1-0.1-0.2c0-0.1,0-0.2,0-0.4c0-0.1,0-0.2,0-0.3c0-0.2,0-0.5,0.1-0.7c0-0.1,0-0.2,0-0.3s0-0.1,0.1-0.1c0-0.1-0.1-0.1-0.2-0.1c-0.1,0-0.2,0-0.4,0c0,0.1,0.1,0.1,0.1,0.2c0,0.1,0,0.2,0,0.3s0,0.3,0,0.4c0,0.1,0,0.3,0,0.4c0,0.1,0,0.2,0,0.3s0,0.2,0,0.3C230.4,173.1,230.4,173.2,230.3,173.3L230.3,173.3L230.3,173.3z M231,173.4c0.1,0,0.2,0,0.3,0s0.2,0.1,0.1,0c-0.1-0.1-0.1-0.2-0.1-0.3c0-0.2,0-0.4,0-0.5s0-0.3,0-0.4c0-0.1,0-0.2,0-0.3c0.1,0.1,0.1,0.2,0.1,0.3c0.2,0.4,0.3,0.8,0.5,1.3c0,0.1,0.1,0.2,0.2,0.2c0.1,0.1,0.1-0.1,0.1-0.2c0-0.1,0.1-0.2,0-0.3c0-0.1,0-0.2,0-0.4c0-0.1,0-0.2,0-0.4c0-0.1,0-0.2,0-0.3s0-0.2,0.1-0.4c0-0.1,0.2-0.2,0.1-0.2c-0.1,0-0.3-0.1-0.4,0c0,0.1,0.1,0.2,0.1,0.3c0,0.2-0.1,0.5,0,0.7c0,0.1,0,0.2-0.1,0.4c-0.1-0.1-0.1-0.2-0.1-0.3c-0.1-0.1-0.1-0.3-0.2-0.4c0-0.1-0.1-0.2-0.1-0.3c-0.1-0.1-0.1-0.3-0.2-0.4c-0.1,0-0.3,0-0.4-0.1c-0.1,0.1,0.1,0.2,0,0.2c0,0.2,0,0.3,0,0.5c0,0.1,0,0.2,0,0.3s0,0.2,0,0.4c0,0.1,0,0.3-0.1,0.4C231.2,173.3,231.1,173.3,231,173.4L231,173.4L231,173.4z M232.9,171.6c0,0.1,0.1,0.1,0.1,0.2c0,0.1,0,0.2,0,0.3s0,0.2,0,0.3c0,0.2,0,0.3,0,0.5c0,0.1,0,0.2,0,0.3s0,0.1,0,0.2c0,0.1,0,0.1,0,0.2c0,0,0,0.1-0.1,0.1c0,0.1,0.1,0.1,0.2,0.1c0.1,0,0.2,0,0.3,0.1c0.1,0,0.1-0.1,0-0.1c-0.1-0.1,0-0.2,0-0.3s0-0.2,0-0.2c0-0.1,0-0.2,0-0.3s0-0.2,0-0.3s0-0.2,0-0.3s0-0.2,0-0.3s0-0.2,0.1-0.2c-0.1,0-0.2-0.1-0.2-0.1C233.1,171.7,233.1,171.6,232.9,171.6L232.9,171.6L232.9,171.6z M233.6,173.1c0,0.1,0,0.2,0,0.3c0,0.2,0.1,0.3,0.2,0.4c0.1,0.1,0.2,0.1,0.3,0.2c0.1,0.1,0.3,0.1,0.4,0c0.1,0,0.2-0.1,0.2-0.1c0.1-0.1,0.2-0.2,0.2-0.3c-0.1-0.1-0.1,0.1-0.2,0.1c-0.1,0.1-0.3,0.1-0.4,0c-0.1-0.1-0.1-0.2-0.2-0.3c0-0.1-0.1-0.2-0.1-0.3s0-0.3,0-0.4c0.1-0.1,0-0.2,0.1-0.3c0-0.1,0.1-0.2,0.1-0.3c0.1-0.1,0.1-0.1,0.2-0.1c0.1,0,0.2,0.1,0.2,0.2c0.1,0.1,0.1,0.2,0.1,0.3s0.1,0.2,0.1,0.1c0-0.1,0.1-0.2,0.1-0.3s-0.1-0.1-0.2-0.2c-0.1-0.1-0.1-0.1-0.2-0.1c-0.1,0-0.3-0.1-0.4,0c-0.1,0-0.2,0.1-0.2,0.2c-0.1,0.1-0.1,0.2-0.2,0.4c-0.1,0.1-0.1,0.3-0.1,0.4C233.6,173,233.6,173.1,233.6,173.1L233.6,173.1z M235.7,172.3c-0.1,0.3-0.2,0.6-0.4,0.8c0,0.1-0.1,0.2-0.1,0.3c-0.1,0.1-0.1,0.3-0.2,0.4c-0.1,0.1-0.1,0.2-0.2,0.3c-0.1,0-0.1,0.1,0,0.1s0.2,0.1,0.3,0.1c0.1-0.1,0-0.1,0-0.2c0-0.1,0-0.2,0.1-0.3s0.2,0,0.3,0s0.2,0,0.2,0.1s0,0.3,0,0.4c-0.1,0-0.1,0.1,0,0.1s0.2,0.1,0.3,0.1s0.2,0,0.1,0c-0.1-0.1,0-0.3-0.1-0.5c0-0.1,0-0.3,0-0.4c0-0.1,0-0.2,0-0.3c0-0.2,0-0.5,0-0.7c0-0.1,0-0.2,0-0.3C235.9,172.4,235.8,172.3,235.7,172.3L235.7,172.3L235.7,172.3z M235.7,172.8v1c-0.1,0-0.2-0.1-0.4-0.1c-0.1-0.1,0.1-0.2,0.1-0.3c0.1-0.1,0.1-0.3,0.2-0.4C235.6,172.9,235.6,172.8,235.7,172.8L235.7,172.8z M236.6,174.8c0-0.1-0.1-0.2-0.1-0.4s0-0.3,0.1-0.5c0-0.1,0.1-0.2,0.1-0.3s0.1-0.3,0.1-0.4c0-0.1,0.1,0,0.1,0.1c0.1,0.2,0.1,0.4,0.2,0.7c0,0.1,0,0.2,0.1,0.3c0.1,0.2,0.1,0.4,0.2,0.6c0,0.1,0.1,0.3,0.2,0.2c0.1-0.1,0.1-0.3,0.1-0.4c0-0.1,0-0.2,0.1-0.4c0-0.2,0.1-0.4,0.1-0.6c0-0.2,0.1-0.3,0.1-0.5c0-0.1,0.2-0.2,0.1-0.2c-0.1,0-0.2-0.1-0.3-0.1c0,0.1,0.1,0.2,0.1,0.3s0,0.2,0,0.4c0,0.1-0.1,0.2-0.1,0.3s0,0.3-0.1,0.4c-0.1-0.1-0.1-0.2-0.1-0.3s-0.1-0.3-0.1-0.4c0-0.1-0.1-0.3-0.1-0.4c0-0.1-0.1-0.2-0.1-0.3c-0.1-0.1-0.2-0.1-0.3-0.2c-0.1-0.1-0.2,0-0.1,0.1c0.1,0.2,0,0.4,0,0.7c0,0.2-0.1,0.4-0.1,0.6c0,0.1-0.1,0.2-0.1,0.4c0,0.1-0.1,0.2-0.2,0.3c-0.1,0.1,0.1,0.1,0.2,0.1C236.5,174.8,236.6,174.8,236.6,174.8L236.6,174.8z M238.7,173.4c-0.1,0.2-0.2,0.3-0.2,0.5c-0.1,0.2-0.2,0.3-0.2,0.4c-0.1,0.3-0.3,0.5-0.5,0.8c-0.1,0-0.2,0.1,0,0.2c0.1,0,0.2,0.1,0.3,0.1s0-0.1,0-0.2c0-0.1,0-0.2,0.1-0.3c0.1,0,0.2,0.1,0.2,0.1c0.1,0.1,0.3,0,0.2,0.2c0,0.1,0,0.3,0,0.4c-0.1,0-0.1,0.1,0,0.1s0.2,0.1,0.2,0.1c0.1,0,0.2,0.1,0.2,0.1c0-0.1-0.1-0.2-0.1-0.3c0-0.2,0-0.3,0-0.5c0-0.1,0-0.2,0-0.3v-1.1C238.9,173.5,238.8,173.4,238.7,173.4L238.7,173.4z M238.7,173.8v1c-0.1,0-0.2-0.1-0.2-0.1c-0.1,0-0.2-0.1-0.1-0.2c0.1-0.1,0.1-0.3,0.2-0.4C238.5,174,238.6,173.9,238.7,173.8L238.7,173.8z" />
  </g>
</svg>
