<svg xmlns="http://www.w3.org/2000/svg" width="450px" height="300px" viewBox="0 0 450 300">
  <path fill="#006233" d="M0,0h250v300H0V0z" />
  <path fill="#FFFFFF" d="M225,0h225v300H225V0z" />
  <path fill="#D31F36" d="M289.904,186.013c-43.308,69.294-139.28,34.993-139.28-36.61c0-72.412,95.856-104.518,138.125-38.458c-32.221-41.807-105.442-19.518-105.442,38.111C183.423,200.45,247.751,233.364,289.904,186.013z M266.691,157.719l25.754-8.315l-25.754-8.315v-27.024l-15.938,21.827l-25.754-8.315l15.938,21.827l-15.938,21.827l25.754-8.315l15.938,21.827V157.719z" />
</svg>
