<svg xmlns="http://www.w3.org/2000/svg" width="450px" height="300px" viewBox="0 0 450 300">
  <path fill="#000000" d="M0,0h450v150H0V0z" />
  <path fill="#007A3D" d="M0,150h450v150H0V150z" />
  <path fill="#FFFFFF" d="M0,100h450v100H0V100z" />
  <path fill="#C4111B" d="M0,0l200,150L0,300V0z M275,150c0-19.5,14-35.8,32.5-39.3c-2.4-0.5-4.9-0.7-7.5-0.7c-22.1,0-40,17.9-40,40s17.9,40,40,40c2.6,0,5.1-0.3,7.5-0.7C289,185.8,275,169.5,275,150z M289.3,174.2L289.3,174.2L289.3,174.2L289.3,174.2z M333.9,142.1l-21-0.2l-6.4-20l-6.6,19.9l-21-0.1l16.9,12.5l-6.5,19.9l17.1-12.2l16.9,12.4l-6.3-20L333.9,142.1z" />
</svg>
