<svg xmlns="http://www.w3.org/2000/svg" width="450px" height="300px" viewBox="0 0 450 300">
  <path fill="#FCDD09" d="M0,0h450v300H0V0z" />
  <path fill="#DA121A" d="M0,33.333h450v33.333H0V33.333z M0,100h450v33.333H0V100z M0,166.667h450V200H0V166.667z M0,233.333h450v33.333H0V233.333z" />
  <path fill="#40104C" d="M0,0h225v150H0V0z" />
  <path fill="#FFFFFF" d="M110.364,53.667c-0.159-0.352-0.342-0.644-0.549-0.876l0.456-0.883c0.284,0.34,0.538,0.739,0.767,1.196L110.364,53.667z M116.182,52.17v-1.417c-0.366,0.182-0.697,0.415-1.001,0.693l0.488,0.944C115.829,52.291,116,52.218,116.182,52.17z M120.582,53.524l-0.738-0.003c0.197,0.487,0.348,0.965,0.469,1.4c0.038,0.138-0.026,0.283-0.153,0.348l-1.259,0.64v3.23l1.681-0.013V53.524z M115.201,52.791l-0.456-0.883c-0.284,0.34-0.538,0.739-0.767,1.196l0.674,0.563C114.81,53.314,114.993,53.023,115.201,52.791z M104.417,46.637v6.287l1.023-0.004c0.582-1.186,1.487-2.33,2.982-2.906c0.013-0.005,0.028-0.002,0.041-0.005c0.023-0.006,0.044-0.009,0.068-0.009c0.023,0,0.045,0.003,0.068,0.009c0.014,0.003,0.028,0,0.042,0.005c1.486,0.572,2.389,1.705,2.971,2.883h1.792c0.582-1.178,1.486-2.311,2.971-2.883c0.014-0.005,0.028-0.002,0.042-0.005c0.023-0.006,0.044-0.009,0.068-0.009c0.023,0,0.045,0.003,0.068,0.009c0.014,0.003,0.028,0,0.042,0.005c1.495,0.576,2.4,1.72,2.982,2.906l1.006,0.004v-6.287H104.417z M112.84,54.306c0.085-0.263,0.183-0.535,0.295-0.81l-0.295-0.001V54.306z M112.84,59.186l1.254-0.01l0.003-3.252l-1.256-0.638L112.84,59.186L112.84,59.186z M114.426,54.259l-0.706-0.59c-0.15,0.362-0.291,0.748-0.418,1.177l0.864,0.439C114.239,54.909,114.326,54.568,114.426,54.259z M106.452,54.246l-0.687-0.573c-0.15,0.362-0.291,0.746-0.417,1.174l0.841,0.428C106.264,54.897,106.351,54.555,106.452,54.246z M108.833,52.17c0.182,0.048,0.353,0.121,0.513,0.221l0.488-0.944c-0.304-0.278-0.635-0.511-1.001-0.693V52.17z M107.238,52.773l-0.447-0.865c-0.284,0.341-0.539,0.74-0.768,1.199l0.656,0.548C106.841,53.298,107.027,53.005,107.238,52.773z M106.118,55.911l-1.263-0.642c-0.127-0.065-0.191-0.21-0.153-0.348c0.121-0.434,0.272-0.913,0.469-1.4l-0.755,0.003v5.603l1.699,0.013L106.118,55.911z M111.714,54.847c-0.127-0.429-0.268-0.814-0.418-1.177l-0.706,0.59c0.1,0.309,0.187,0.65,0.26,1.026L111.714,54.847z M112.175,55.285l-1.252,0.636v3.254l1.252,0.01V55.285z M108.23,52.162v-1.409c-0.366,0.182-0.697,0.415-1.001,0.693l0.482,0.933C107.873,52.281,108.045,52.208,108.23,52.162z M112.175,53.495l-0.295,0.001c0.112,0.275,0.21,0.547,0.295,0.811V53.495z M119.667,54.847c-0.127-0.428-0.267-0.813-0.417-1.174l-0.687,0.573c0.101,0.309,0.188,0.651,0.262,1.029L119.667,54.847z M112.839,86.12c0.446,0.079,0.858,0.238,1.233,0.483l1.03-1.78l0.037,0.022c-0.679-0.58-1.441-1.035-2.301-1.374L112.839,86.12L112.839,86.12z M117.513,88.037l-1.57,1.167c0.219,0.571,0.402,1.221,0.551,1.946l1.916-0.868C118.141,89.456,117.843,88.712,117.513,88.037z M120.582,96.685h-4.008v5.565h4.008V96.685z M112.175,65.958l-7.759,0.004v5.59h7.759V65.958z M112.179,78.377l-7.762-0.008v5.397l5.917-0.004c0.546-0.363,1.161-0.675,1.845-0.927V78.377z M119.055,90.55c-0.027,0.072-0.079,0.134-0.154,0.168l-2.327,1.055v4.312h4.008V90.55H119.055z M108.445,96.685h-4.029v5.565h4.027L108.445,96.685z M115.701,88.637l1.532-1.139c-0.488-0.891-1.042-1.642-1.675-2.266l-1.012,1.748C114.993,87.393,115.377,87.946,115.701,88.637z M118.992,53.106c-0.229-0.458-0.484-0.858-0.768-1.199l-0.447,0.865c0.211,0.233,0.398,0.526,0.559,0.881L118.992,53.106z M118.901,59.74v1.056h-4.809l0.001-1.02h-3.17v1.02h-4.809l0.001-1.056l-1.699-0.013v5.635h16.165v-5.635L118.901,59.74z M116.786,52.162c0.184,0.046,0.357,0.119,0.519,0.217l0.482-0.933c-0.304-0.278-0.635-0.511-1.001-0.693V52.162z M112.837,78.377v4.458c0.683,0.253,1.299,0.564,1.845,0.927l5.9,0.004v-5.397L112.837,78.377z M115.47,84.363c1.887,1.596,2.864,3.781,3.462,5.587h1.65v-5.584L115.47,84.363z M112.84,65.958v5.594h7.741v-5.59L112.84,65.958z M112.775,72.153L112.775,72.153h-0.268h-0.268l0,0h-7.823v5.617l8.055,0.008h0.065l8.045-0.008v-5.617H112.775z M87.797,45.765H69.98l0.783,1.221h16.205L87.797,45.765z M70.81,89.95h16.165v-5.573l-16.165,0.01V89.95z M79.19,96.085h7.786V90.55H79.19V96.085z M79.19,83.781l7.786-0.005v-5.425l-7.786-0.008V83.781z M70.81,102.25h16.165v-5.565H70.81V102.25z M80.401,65.818c0.264,0.25,0.496,0.567,0.697,0.951l0.921-0.639c-0.3-0.494-0.636-0.922-1.014-1.282L80.401,65.818z M70.81,108.342h7.779v-5.492H70.81V108.342z M79.19,108.342h7.786v-5.492H79.19V108.342z M83.511,67.97c0.05,0.149-0.023,0.311-0.168,0.372l-1.592,0.672v2.537h5.224v-5.589h-4.35C83.028,66.652,83.304,67.355,83.511,67.97z M82.851,67.898c-0.163-0.454-0.345-0.862-0.539-1.243l-0.964,0.669c0.125,0.322,0.233,0.68,0.324,1.072L82.851,67.898z M112.84,46.096l7.741-0.059v-5.928l-7.741,0.125V46.096z M79.19,63.062c1.409,0.501,2.371,1.358,3.046,2.301h4.739v-5.637H79.19V63.062z M70.81,59.125h16.165v-5.6H70.81V59.125z M79.193,65.176c0.26,0.055,0.503,0.147,0.728,0.278l0.621-0.999c-0.407-0.308-0.851-0.564-1.349-0.758V65.176z M81.751,77.745l5.224,0.005v-5.599h-5.224V77.745z M78.589,90.55H70.81v5.535h7.779V90.55z M79.19,52.925h7.786V47.6H79.19V52.925z M70.81,65.362h4.737c0.675-0.942,1.635-1.798,3.042-2.299v-3.338H70.81V65.362z M103.816,60.692h-1.774v1.542h-2.819v-1.542H97.11v1.542h-2.819v-1.542h-2.113v1.542H89.36v-1.542h-1.774v3.01h16.229L103.816,60.692L103.816,60.692z M88.282,42.154H86.15v1.542h-3.153v-1.542h-2.522v1.542h-3.153v-1.542H74.8v1.542h-3.153v-1.542h-2.132v3.01h18.766L88.282,42.154L88.282,42.154z M121.892,31.565h-2.131v1.542h-3.153v-1.542h-2.522v1.542h-3.153v-1.542h-2.522v1.542h-3.153v-1.542h-2.132v3.01h18.766C121.892,34.575,121.892,31.565,121.892,31.565z M104.417,39.509l8.091,0.13l8.074-0.13v-2.374h-16.165C104.417,37.135,104.417,39.509,104.417,39.509z M112.177,86.12v-2.649c-0.86,0.339-1.622,0.794-2.301,1.374l0.037-0.022l1.031,1.78C111.319,86.358,111.731,86.198,112.177,86.12z M112.175,46.096v-5.862l-7.759-0.125v5.928L112.175,46.096z M120.569,36.535l0.857-1.359h-17.86l0.811,1.359H120.569z M70.81,83.786l7.779-0.005v-5.439l-7.779-0.008V83.786z M70.81,77.734l5.184,0.005l0.003-5.588h-5.188v5.583H70.81z M78.591,63.697c-0.499,0.195-0.944,0.451-1.351,0.761l0.61,0.981c0.229-0.129,0.476-0.22,0.742-0.271L78.591,63.697L78.591,63.697z M70.81,71.551h5.188L76,69.001l-1.56-0.659c-0.144-0.061-0.217-0.223-0.168-0.372c0.206-0.615,0.483-1.318,0.885-2.007H70.81V71.551z M74.932,67.898l1.145,0.484c0.092-0.395,0.201-0.754,0.328-1.078l-0.934-0.648C75.277,67.037,75.095,67.444,74.932,67.898z M78.589,52.925V47.6H70.81v5.325H78.589z M77.366,65.798l-0.589-0.948c-0.377,0.36-0.712,0.787-1.012,1.28l0.893,0.62C76.862,66.364,77.098,66.047,77.366,65.798z M54.006,89.95h16.185v-5.563l-16.185,0.01C54.006,84.397,54.006,89.95,54.006,89.95z M44.981,59.725h-7.784v5.637h4.738c0.675-0.943,1.637-1.799,3.046-2.301V59.725z M37.197,83.806l7.784-0.005v-5.494l-7.784-0.008V83.806z M44.981,90.55h-7.784v5.535h7.784V90.55z M37.197,77.699l5.189,0.005l0.003-5.555h-5.193v5.55H37.197z M37.197,71.549h5.193l0.002-2.547l-1.564-0.661c-0.144-0.061-0.217-0.223-0.168-0.372c0.206-0.615,0.483-1.318,0.885-2.007h-4.348V71.549z M37.197,108.342h7.784v-5.492h-7.784V108.342z M44.978,65.168v-1.472c-0.498,0.195-0.942,0.45-1.349,0.758l0.611,0.984C44.469,65.31,44.715,65.22,44.978,65.168z M41.32,67.898l1.148,0.485c0.092-0.395,0.201-0.754,0.328-1.077l-0.937-0.65C41.664,67.037,41.483,67.444,41.32,67.898z M37.197,89.95h16.165v-5.553l-16.165,0.01V89.95z M45.58,65.175c0.262,0.054,0.506,0.148,0.732,0.279l0.619-0.996c-0.407-0.309-0.853-0.566-1.351-0.761C45.58,63.697,45.58,65.175,45.58,65.175z M45.581,83.801l7.781-0.005v-5.48l-7.781-0.008V83.801z M49.238,67.898c-0.163-0.454-0.345-0.862-0.539-1.243l-0.96,0.666c0.125,0.323,0.233,0.68,0.324,1.073L49.238,67.898z M45.581,108.342h7.781v-5.492h-7.781V108.342z M45.581,96.085h7.781V90.55h-7.781V96.085z M42.153,66.129l0.896,0.622c0.204-0.386,0.44-0.704,0.709-0.954l-0.591-0.95C42.789,65.208,42.453,65.635,42.153,66.129z M46.792,65.817c0.263,0.25,0.495,0.566,0.696,0.949l0.918-0.637c-0.3-0.493-0.635-0.92-1.012-1.28L46.792,65.817z M48.143,77.711l5.219,0.005V72.15h-5.219C48.143,72.15,48.143,77.711,48.143,77.711z M28.76,102.25h7.792v-5.565H28.76V102.25z M20.367,96.085h16.185V90.55H20.367V96.085z M20.367,84.417v5.533h7.793v-5.538L20.367,84.417z M28.76,89.95h7.792v-5.543l-7.792,0.005C28.76,84.412,28.76,89.95,28.76,89.95z M44.981,52.925V47.6h-7.784v5.325H44.981z M20.367,108.35h16.185v-5.5H20.367V108.35z M20.367,96.685v5.565h7.793v-5.565H20.367z M36.575,60.692h-2.132v1.542H31.29v-1.542h-2.522v1.542h-3.153v-1.542h-2.522v1.542H19.94v-1.542h-2.132v2.958h18.766L36.575,60.692L36.575,60.692z M20.367,83.816l16.185-0.01v-5.508l-16.185-0.017C20.367,78.281,20.367,83.816,20.367,83.816z M20.05,65.343h16.525v-1.041H18.938L20.05,65.343z M54.184,45.765H36.367l0.783,1.221h16.205L54.184,45.765z M54.671,42.154h-2.132v1.542h-3.153v-1.542h-2.522v1.542h-3.153v-1.542H41.19v1.542h-3.153v-1.542h-2.132v3.01h18.766C54.671,45.164,54.671,42.154,54.671,42.154z M20.367,71.548l16.185,0.001v-5.516H20.367V71.548z M20.367,72.148v5.533l7.793,0.008v-5.541H20.367z M28.76,77.69l7.792,0.008v-5.549H28.76C28.76,72.149,28.76,77.69,28.76,77.69z M53.962,65.692H70.21v-1.389H53.962V65.692z M62.398,83.791l7.794-0.005v-5.453l-7.794-0.008C62.398,78.325,62.398,83.791,62.398,83.791z M54.006,83.796l7.791-0.005v-5.467l-7.791-0.008V83.796z M65.202,77.728l4.989,0.005V72.15h-4.989V77.728z M62.398,72.15v5.575l2.204,0.002V72.15H62.398z M103.817,64.302H87.575v1.389h16.241v-1.389H103.817z M61.798,66.292h-7.791v5.258h7.791V66.292z M61.798,77.725V72.15h-2.205v5.572L61.798,77.725z M54.006,77.717l4.986,0.005V72.15h-4.986V77.717z M109.545,84.363l-5.128,0.003v5.584h1.667C106.681,88.144,107.658,85.959,109.545,84.363z M62.398,71.55h7.794v-5.259h-7.794C62.398,66.291,62.398,71.55,62.398,71.55z M109.072,89.204l-1.57-1.167c-0.33,0.675-0.628,1.419-0.897,2.245l1.916,0.869C108.67,90.425,108.854,89.776,109.072,89.204z M108.447,91.776l-2.332-1.057c-0.075-0.034-0.127-0.096-0.154-0.168h-1.544v5.535h4.029L108.447,91.776z M110.468,86.98l-1.012-1.748c-0.633,0.624-1.187,1.375-1.675,2.266l1.533,1.139C109.638,87.946,110.023,87.393,110.468,86.98z M68.438,62.233h-2.819v-1.542h-2.113v1.542h-2.819v-1.542h-2.113v1.542h-2.819v-1.542h-1.773v3.01H70.21v-3.01h-1.773v1.542H68.438z M49.898,67.97c0.05,0.149-0.023,0.311-0.168,0.372l-1.588,0.671v2.537h5.219v-5.587h-4.349C49.415,66.652,49.692,67.355,49.898,67.97z M137.429,60.692h-1.774v1.542h-2.819v-1.542h-2.113v1.542h-2.819v-1.542h-2.113v1.542h-2.819v-1.542H121.2v3.01h16.229V60.692z M54.006,108.35h4.516l0.003-5.5h-4.519C54.006,102.85,54.006,108.35,54.006,108.35z M56.34,98.368c0.176-0.524,0.391-1.098,0.669-1.683h-3.002v5.565h4.52l0.002-2.657l-2.02-0.853C56.363,98.679,56.29,98.517,56.34,98.368z M56.999,98.296l1.606,0.678c0.125-0.554,0.275-1.056,0.453-1.5l-1.314-0.912C57.472,97.087,57.223,97.661,56.999,98.296z M45.581,52.925h7.781V47.6h-7.781V52.925z M62.398,92.202c2.275,0.793,3.626,2.327,4.48,3.883h3.313V90.55h-7.794L62.398,92.202L62.398,92.202z M37.197,59.125h16.165v-5.6H37.197V59.125z M58.037,96.036l1.275,0.885c0.274-0.536,0.595-0.973,0.966-1.304l-0.836-1.345C58.914,94.762,58.448,95.346,58.037,96.036z M45.581,63.063c1.407,0.501,2.368,1.357,3.042,2.299h4.738v-5.637H45.58L45.581,63.063L45.581,63.063z M65.632,108.35h4.559v-5.5h-4.559V108.35z M66.453,96.565L65.105,97.5c0.176,0.442,0.324,0.941,0.447,1.491l1.644-0.694C66.973,97.662,66.725,97.089,66.453,96.565z M67.856,98.368c0.05,0.149-0.023,0.311-0.168,0.372l-2.056,0.868v2.642h4.559v-5.565h-3.005C67.464,97.27,67.68,97.845,67.856,98.368z M64.756,94.274l-0.852,1.37c0.364,0.332,0.68,0.767,0.949,1.3l1.306-0.906C65.749,95.349,65.284,94.764,64.756,94.274z M54.006,96.085h3.311c0.854-1.555,2.205-3.09,4.48-3.883V90.55h-7.791V96.085z M60.763,95.261c0.316-0.189,0.661-0.316,1.034-0.381v-2.047c-0.703,0.263-1.331,0.608-1.894,1.044L60.763,95.261z M62.398,92.833v2.053c0.37,0.07,0.712,0.203,1.025,0.396l0.872-1.403C63.731,93.442,63.102,93.096,62.398,92.833z M37.197,102.25h16.165v-5.565H37.197V102.25z M163.218,72.15v5.574l2.205-0.002V72.15H163.218z M154.824,83.786l7.794,0.005v-5.466l-7.794,0.008V83.786z M163.218,83.791l7.792,0.005v-5.479l-7.792,0.008L163.218,83.791L163.218,83.791z M163.218,71.55h7.792v-5.258h-7.792L163.218,71.55L163.218,71.55z M166.023,77.722l4.986-0.005V72.15h-4.986L166.023,77.722L166.023,77.722z M162.617,66.292h-7.794v5.259h7.794V66.292z M162.617,77.725V72.15h-2.204v5.577L162.617,77.725z M154.824,77.733l4.989-0.005V72.15h-4.989V77.733z M171.653,90.55v5.535h7.781V90.55H171.653z M154.824,89.95h16.185v-5.554l-16.185-0.01V89.95z M171.653,102.25h16.165v-5.565h-16.165L171.653,102.25L171.653,102.25z M180.034,96.085h7.784V90.55h-7.784V96.085z M154.805,65.692h16.248v-1.389h-16.248V65.692z M189.11,42.154h-2.132v1.542h-3.153v-1.542h-2.522v1.542h-3.153v-1.542h-2.522v1.542h-3.153v-1.542h-2.132v3.01h18.766v-3.01H189.11z M180.034,108.342h7.784v-5.492h-7.784V108.342z M171.653,108.342h7.781v-5.492h-7.781V108.342z M154.824,108.35h4.56l0.003-5.5h-4.563V108.35z M171.653,89.95h16.165v-5.544l-16.165-0.01L171.653,89.95L171.653,89.95z M157.16,98.368c0.176-0.524,0.391-1.098,0.669-1.683h-3.005v5.565h4.564l0.002-2.639l-2.062-0.871C157.183,98.679,157.11,98.517,157.16,98.368z M158.855,96.038l1.306,0.906c0.269-0.533,0.586-0.967,0.949-1.3l-0.852-1.37C159.732,94.764,159.267,95.348,158.855,96.038z M157.819,98.296l1.644,0.695c0.123-0.55,0.271-1.049,0.447-1.491l-1.347-0.935C158.291,97.088,158.043,97.662,157.819,98.296z M138.04,47.6v5.325h7.786V47.6H138.04z M146.426,52.925h7.779V47.6h-7.779V52.925z M137.218,45.765l0.828,1.221h16.205l0.783-1.221H137.218z M167.271,96.563l-1.314,0.912c0.178,0.444,0.328,0.946,0.453,1.5l1.606-0.678C167.792,97.661,167.544,97.087,167.271,96.563z M166.494,108.35h4.516v-5.5h-4.516V108.35z M168.675,98.368c0.05,0.149-0.023,0.311-0.168,0.372l-2.014,0.851v2.659h4.516v-5.565h-3.003C168.284,97.27,168.5,97.845,168.675,98.368z M161.592,95.282c0.314-0.193,0.655-0.327,1.026-0.396v-2.053c-0.704,0.263-1.333,0.609-1.897,1.046L161.592,95.282z M163.218,92.202c2.275,0.793,3.626,2.327,4.48,3.883h3.311V90.55h-7.792L163.218,92.202L163.218,92.202z M154.824,96.085h3.313c0.854-1.555,2.205-3.09,4.48-3.883V90.55h-7.794v5.535H154.824z M163.218,92.833v2.047c0.373,0.065,0.718,0.192,1.034,0.381l0.86-1.384C164.549,93.441,163.921,93.096,163.218,92.833z M165.573,94.272l-0.836,1.345c0.371,0.331,0.692,0.768,0.966,1.304l1.275-0.885C166.567,95.346,166.101,94.761,165.573,94.272z M171.653,65.362h4.738c0.675-0.942,1.635-1.798,3.042-2.299v-3.338h-7.781L171.653,65.362L171.653,65.362z M196.855,102.25h7.793v-5.565h-7.793V102.25z M196.855,89.95h7.793v-5.533l-7.793-0.005V89.95z M188.463,84.407v5.543h7.792v-5.538L188.463,84.407z M180.034,52.925h7.784V47.6h-7.784V52.925z M170.831,45.765l0.828,1.221h16.205l0.783-1.221H170.831z M188.463,108.35h16.185v-5.5h-16.185V108.35z M188.463,96.685v5.565h7.792v-5.565H188.463z M188.463,96.085h16.185V90.55h-16.185V96.085z M201.922,60.692H199.4v1.542h-3.153v-1.542h-2.522v1.542h-3.153v-1.542h-2.132v2.958h18.766v-2.958h-2.132v1.542h-3.153v-1.542H201.922z M188.441,65.343h16.525l1.112-1.041h-17.636L188.441,65.343L188.441,65.343z M196.855,77.69l7.793-0.008v-5.533h-7.793V77.69z M188.463,71.549l16.185-0.001v-5.515h-16.185V71.549z M188.463,72.149v5.549l7.792-0.008v-5.542L188.463,72.149z M188.463,83.807l16.185,0.01v-5.535l-16.185,0.017V83.807z M138.04,59.125h16.165v-5.6H138.04V59.125z M171.653,71.55h5.223l0.002-2.535l-1.593-0.673c-0.144-0.061-0.217-0.223-0.168-0.372c0.206-0.615,0.483-1.318,0.885-2.007h-4.349V71.55z M180.034,83.802l7.784,0.005V78.3l-7.784,0.008V83.802z M171.653,83.797l7.781,0.005v-5.493l-7.781,0.008V83.797z M171.653,77.716l5.219-0.005l0.004-5.561h-5.222L171.653,77.716L171.653,77.716z M175.777,67.898l1.175,0.496c0.091-0.393,0.199-0.75,0.324-1.073l-0.96-0.666C176.122,67.037,175.94,67.444,175.777,67.898z M179.435,65.175v-1.478c-0.499,0.195-0.944,0.451-1.352,0.761l0.619,0.996C178.93,65.323,179.174,65.229,179.435,65.175z M178.223,65.818l-0.602-0.968c-0.377,0.36-0.712,0.787-1.012,1.28l0.918,0.637C177.728,66.384,177.96,66.067,178.223,65.818z M183.695,67.898c-0.163-0.454-0.345-0.862-0.539-1.243l-0.937,0.65c0.127,0.324,0.236,0.683,0.328,1.077L183.695,67.898z M180.034,63.062c1.409,0.501,2.371,1.358,3.046,2.301h4.738v-5.637h-7.784L180.034,63.062L180.034,63.062z M184.355,67.97c0.05,0.149-0.023,0.311-0.168,0.372L182.629,69v2.549h5.189v-5.587h-4.348C183.873,66.652,184.149,67.355,184.355,67.97z M181.258,65.798c0.269,0.25,0.505,0.568,0.709,0.954l0.896-0.622c-0.301-0.494-0.636-0.922-1.014-1.282L181.258,65.798z M171.653,59.125h16.165v-5.6h-16.165L171.653,59.125L171.653,59.125z M182.629,77.764l5.189-0.065v-5.55h-5.189V77.764z M171.653,47.6v5.325h7.781V47.6H171.653z M180.037,65.168c0.263,0.052,0.509,0.142,0.737,0.27l0.611-0.984c-0.407-0.308-0.851-0.564-1.349-0.758v1.472H180.037z M100.056,96.563l-1.347,0.935c0.176,0.443,0.325,0.942,0.448,1.493l1.644-0.694C100.576,97.662,100.328,97.087,100.056,96.563z M104.417,102.85v5.489h4.025l0.002-5.489H104.417z M116.573,102.85v5.489h4.008v-5.489H116.573z M121.224,108.35h4.556l0.003-5.5h-4.559V108.35z M123.556,98.368c0.176-0.524,0.391-1.098,0.669-1.683h-3.001v5.565h4.559l0.002-2.639l-2.061-0.871C123.579,98.679,123.506,98.517,123.556,98.368z M124.215,98.296l1.644,0.694c0.123-0.551,0.272-1.051,0.448-1.493l-1.347-0.935C124.687,97.087,124.439,97.661,124.215,98.296z M96.002,83.771l7.79-0.005v-5.398l-7.79-0.008V83.771z M96.002,71.552h7.79v-5.26h-7.79V71.552z M98.804,77.758h-0.6v-5.606h-2.202v5.608l7.79,0.008v-5.616h-4.987L98.804,77.758L98.804,77.758z M121.224,96.085h3.309c0.854-1.555,2.205-3.09,4.48-3.883V90.55h-7.79L121.224,96.085L121.224,96.085z M133.668,96.565l-1.314,0.912c0.178,0.443,0.328,0.945,0.452,1.498l1.606-0.678C134.188,97.662,133.94,97.089,133.668,96.565z M131.972,94.274l-0.836,1.345c0.37,0.331,0.691,0.767,0.964,1.304l1.275-0.885C132.964,95.348,132.499,94.764,131.972,94.274z M132.889,108.35h4.52v-5.5h-4.52V108.35z M129.614,92.833v2.047c0.374,0.065,0.72,0.193,1.037,0.383l0.86-1.384C130.947,93.442,130.318,93.096,129.614,92.833z M127.991,95.28c0.313-0.192,0.653-0.325,1.022-0.394v-2.053c-0.703,0.263-1.331,0.608-1.894,1.044L127.991,95.28z M125.252,96.036l1.306,0.906c0.27-0.533,0.586-0.968,0.951-1.3l-0.852-1.37C126.13,94.761,125.664,95.346,125.252,96.036z M87.606,89.95h16.185v-5.584l-16.185,0.01V89.95z M91.64,96.038l1.275,0.885c0.273-0.536,0.594-0.973,0.965-1.304l-0.836-1.345C92.516,94.764,92.051,95.349,91.64,96.038z M89.944,98.368c0.176-0.524,0.391-1.098,0.669-1.683h-3.007v5.565h4.524l0.002-2.657l-2.02-0.853C89.967,98.679,89.894,98.517,89.944,98.368z M90.603,98.297l1.606,0.678c0.125-0.553,0.274-1.055,0.452-1.498l-1.314-0.912C91.075,97.089,90.827,97.662,90.603,98.297z M87.606,108.35h4.52l0.003-5.5h-4.523C87.606,102.85,87.606,108.35,87.606,108.35z M95.402,66.292h-7.796v5.259h7.796V66.292z M87.606,72.152v5.6l4.988,0.005v-5.605L87.606,72.152z M95.402,72.152h-2.207v5.606l2.207,0.002V72.152z M96.002,92.202c2.275,0.793,3.626,2.327,4.481,3.883h3.309V90.55h-7.79V92.202z M135.071,98.368c0.05,0.149-0.023,0.311-0.168,0.372l-2.014,0.851v2.659h4.52v-5.565h-3.007C134.68,97.27,134.896,97.845,135.071,98.368z M99.236,108.35h4.555v-5.5h-4.555V108.35z M94.365,95.263c0.317-0.19,0.663-0.318,1.037-0.383v-2.047c-0.704,0.263-1.333,0.609-1.897,1.047L94.365,95.263z M87.606,83.776l7.796-0.005V78.36l-7.796-0.008V83.776z M101.46,98.368c0.05,0.149-0.023,0.311-0.168,0.372l-2.056,0.868v2.641h4.555v-5.565h-3C101.069,97.27,101.284,97.845,101.46,98.368z M87.606,96.085h3.315c0.854-1.555,2.206-3.09,4.48-3.883V90.55h-7.796L87.606,96.085L87.606,96.085z M96.002,92.833v2.053c0.369,0.069,0.709,0.202,1.022,0.394l0.872-1.403C97.333,93.441,96.705,93.096,96.002,92.833z M98.358,94.272l-0.852,1.37c0.365,0.332,0.681,0.767,0.951,1.3l1.306-0.906C99.351,95.346,98.886,94.762,98.358,94.272z M147.649,65.797c0.268,0.249,0.504,0.567,0.708,0.952l0.893-0.62c-0.3-0.493-0.635-0.92-1.012-1.28L147.649,65.797z M138.04,77.751l5.224-0.005l0.003-5.594h-5.227V77.751z M138.04,71.551h5.228l0.002-2.535l-1.597-0.675c-0.144-0.061-0.217-0.223-0.168-0.372c0.206-0.615,0.483-1.318,0.885-2.007h-4.349L138.04,71.551L138.04,71.551z M145.823,65.176v-1.479c-0.498,0.195-0.942,0.45-1.349,0.758l0.621,0.999C145.32,65.323,145.563,65.23,145.823,65.176z M145.826,59.725h-7.786v5.637h4.739c0.675-0.943,1.637-1.8,3.046-2.301L145.826,59.725L145.826,59.725z M138.04,89.95h16.165v-5.564l-16.165-0.01L138.04,89.95L138.04,89.95z M142.165,67.898l1.179,0.498c0.091-0.392,0.199-0.749,0.324-1.072l-0.964-0.669C142.509,67.037,142.327,67.444,142.165,67.898z M144.615,65.817l-0.603-0.97c-0.378,0.361-0.714,0.788-1.014,1.282l0.921,0.639C144.118,66.385,144.351,66.068,144.615,65.817z M138.04,83.776l7.786,0.005v-5.438l-7.786,0.008V83.776z M149.021,77.739l5.184-0.005v-5.583h-5.184V77.739z M146.426,96.085h7.779V90.55h-7.779V96.085z M150.743,67.97c0.05,0.149-0.023,0.311-0.168,0.372l-1.554,0.657v2.553h5.184v-5.588h-4.347C150.26,66.652,150.536,67.355,150.743,67.97z M146.426,83.781l7.779,0.005v-5.452l-7.779,0.008V83.781z M146.426,63.063c1.407,0.501,2.367,1.357,3.042,2.299h4.737v-1.06h-0.001v-4.211h0.001v-0.366h-7.779V63.063z M146.425,65.168c0.265,0.051,0.513,0.142,0.742,0.271l0.61-0.981c-0.407-0.309-0.853-0.566-1.352-0.761V65.168z M150.083,67.898c-0.163-0.454-0.345-0.862-0.539-1.243l-0.934,0.648c0.127,0.324,0.236,0.683,0.328,1.078L150.083,67.898z M121.224,77.768l7.79-0.008v-5.608h-2.202v5.606h-0.6v-5.605h-4.987L121.224,77.768L121.224,77.768z M121.224,83.766l7.79,0.005V78.36l-7.79,0.008C121.224,78.368,121.224,83.766,121.224,83.766z M129.613,83.771l7.796,0.005v-5.424l-7.796,0.008V83.771z M129.613,72.152v5.608l2.207-0.002v-5.605L129.613,72.152z M132.421,77.757l4.988-0.005v-5.6h-4.988V77.757z M138.04,90.55v5.535h7.786V90.55H138.04z M129.613,92.202c2.275,0.793,3.626,2.327,4.48,3.883h3.315V90.55h-7.796v1.652H129.613z M129.013,66.292h-7.79v5.26h7.79V66.292z M121.224,89.95h16.185v-5.574l-16.185-0.01V89.95z M138.04,108.342h7.786v-5.492h-7.786V108.342z M146.426,108.342h7.779v-5.492h-7.779V108.342z M138.04,102.25h16.165v-5.565H138.04V102.25z M129.613,71.552h7.796v-5.259h-7.796V71.552z M121.182,65.692h16.258v-1.389h-16.258C121.182,64.303,121.182,65.692,121.182,65.692z M154.805,63.702h16.228v-3.01h-1.774v1.542h-2.819v-1.542h-2.113v1.542h-2.819v-1.542h-2.113v1.542h-2.819v-1.542h-1.773v3.01H154.805z M155.499,42.154h-2.132v1.542h-3.153v-1.542h-2.522v1.542h-3.153v-1.542h-2.522v1.542h-3.153v-1.542h-2.132v3.01h18.766v-3.01H155.499z" />
</svg>
