<svg xmlns="http://www.w3.org/2000/svg" width="450px" height="300px" viewBox="0 0 450 300">
  <path fill="#C1272D" d="M0,0h450v300H0V0z" />
  <path fill="#FFFFFF" d="M0,0h225v150H0V0z" />
  <path fill="#006233" d="M0,0h220v145H0V0z" />
  <path fill="#FFFFFF" d="M131.541,101.823L110,86.35l-21.541,15.473l8.228-25.036L75.11,61.289h26.67L110,36.277l8.22,25.012h26.67l-21.576,15.498L131.541,101.823z M112.97,84.216l11.959,8.59l-4.568-13.899L112.97,84.216z M99.638,78.907L95.07,92.806l11.959-8.59L99.638,78.907z M100.773,75.455L110,82.083l9.227-6.628l-3.517-10.7h-11.421L100.773,75.455z M119.359,64.755l2.82,8.58l11.945-8.58H119.359z M85.876,64.755l11.945,8.58l2.82-8.58H85.876z M105.428,61.289h9.144L110,47.378L105.428,61.289z" />
</svg>
