<svg xmlns="http://www.w3.org/2000/svg" width="450px" height="300px" viewBox="0 0 450 300">
  <path fill="#012169" d="M0,0h450v300H0V0z" />
  <path fill="#FFFFFF" d="M225,16.8L175.2,50H225v50h-49.8l49.8,33.2V150l0,0h-25.2l-68.6-45.7V150H93.8v-45.7L25.2,150H0v-16.8L49.8,100H0V50h49.8L0,16.8V0h25.2l68.6,45.7V0h37.4v45.7L199.8,0H225l0,0V16.8z" />
  <path fill="#C8102E" d="M150,50h-16.8l75-50H225L150,50z M75,50L0,0l0,0v11.2L58.2,50H75z M0,150h16.8l75-50H75L0,150z M150,100l75,50v-11.2L166.8,100H150z M123.8,0h-22.5v60H0v30h101.2v60h22.5V90H225V60H123.8V0z" />
  <g>
    <path fill="#FFFFFF" stroke="#FFFFFF" stroke-width="6" stroke-linejoin="bevel" d="M404,220.6c0-1.475-0.204-5.36-4.964-6.155c0.098-1.008-0.08-1.885-0.536-2.645c-1.194-1.99-2.688-4.675-5.462-8.052c-1.805-3.894-4.981-10.299-6.938-10.648c-2.8-0.5-9,0.9-9,1.4c0,0.033-0.013,0.148-0.035,0.327L364.8,206.4c0,0.337,0.637,8.74,2.944,16.181c-8.246,3.003-18.381,5.119-30.244,5.119c-11.869,0.034-22.008-2.074-30.257-5.079c2.317-7.45,2.957-15.883,2.957-16.221l-12.265-11.573c-0.022-0.179-0.035-0.295-0.035-0.327c0-0.5-6.2-1.9-9-1.4c-1.958,0.35-5.135,6.757-6.94,10.651c-2.774,3.475-4.366,6.159-5.46,8.049c-0.46,0.766-0.635,1.638-0.531,2.644c-4.765,0.793-4.969,4.68-4.969,6.156c0,1.5,0.5,2.2,0.5,2.2l2.904,5.429c2.646,5.435,6.352,12.275,8.496,12.871c3.195,0.887,11.346-2.168,17.474-7.338c9.999,4.123,22.797,7.538,37.125,7.538c14.318,0,27.127-3.411,37.136-7.529c6.128,5.165,14.271,8.216,17.464,7.329c2.144-0.596,5.849-7.435,8.495-12.87l2.905-5.43C403.5,222.8,404,222.1,404,220.6z M292.9,207.5c1.608-0.23,3.381,1.105,4.833,2.613c-0.041,0.236-0.085,0.467-0.133,0.687c-0.38,1.74-1.021,4.04-1.921,6.419c-3.475-2.04-6.314-4.153-8.487-6.128C288.525,209.681,290.654,207.812,292.9,207.5z M286.2,228.9c-1.069,0.25-2.196,0.206-3.333-0.033c-0.336-0.865-0.6-1.947-0.667-3.367c-0.031-0.661-0.044-1.254-0.05-1.815c1.635,1.252,3.768,2.697,6.35,4.216C287.775,228.366,287.008,228.71,286.2,228.9z M377.4,210.8c-0.048-0.22-0.091-0.452-0.133-0.687c1.451-1.508,3.224-2.842,4.833-2.613c2.241,0.311,4.365,2.172,5.698,3.582c-2.174,1.968-5.014,4.074-8.489,6.108C378.415,214.821,377.778,212.532,377.4,210.8z M386.52,227.915c2.575-1.513,4.701-2.953,6.33-4.203c-0.006,0.553-0.019,1.138-0.05,1.788c-0.068,1.419-0.331,2.502-0.667,3.367c-1.137,0.24-2.264,0.284-3.333,0.033C387.999,228.712,387.239,228.374,386.52,227.915z" />
    <path fill="#D1AC99" stroke="#000000" stroke-width="0.9" stroke-linejoin="bevel" d="M300.7,213.9c0,0-4.3-6.9-7.8-6.4c-3.6,0.5-6.9,5-7.1,5.2s-5.5-5.7-5.2-6c0.2-0.2,5.5-13.1,8.3-13.6s9,0.9,9,1.4S300.7,213.9,300.7,213.9L300.7,213.9z M374.3,213.9c0,0,4.3-6.9,7.8-6.4c3.6,0.5,6.9,5,7.1,5.2s5.5-5.7,5.2-6c-0.2-0.2-5.5-13.1-8.3-13.6s-9,0.9-9,1.4S374.3,213.9,374.3,213.9L374.3,213.9z" />
    <path fill="#C29077" stroke="#000000" stroke-width="0.9" stroke-linejoin="bevel" d="M310.2,206.4c0,0.5-1.4,18.8-7.6,25.3c-6.2,6.4-16.1,10.4-19.7,9.4s-11.6-19.6-11.6-19.6s8.5,8.9,14.9,7.4s10.2-12.6,11.4-18.1c1.2-5.5,0.2-16.1,0.2-16.1L310.2,206.4L310.2,206.4z M364.8,206.4c0,0.5,1.4,18.8,7.6,25.3c6.2,6.4,16.1,10.4,19.7,9.4s11.6-19.6,11.6-19.6s-8.5,8.9-14.9,7.4s-10.2-12.6-11.4-18.1c-1.2-5.5-0.2-16.1-0.2-16.1L364.8,206.4L364.8,206.4z" />
    <path fill="#BC8366" stroke="#000000" stroke-width="0.9" stroke-linejoin="bevel" d="M282,203.7c-2.8,3.5-4.4,6.2-5.5,8.1c-1.2,2-0.5,4.7,2.2,8.7c3,4.2,27.2,20.8,58.8,20.8s55.9-16.6,58.8-20.8c2.7-3.9,3.4-6.7,2.2-8.7c-1.2-2-2.7-4.7-5.5-8.1c0,5.2-20.1,24-55.5,24C302.1,227.8,282,208.9,282,203.7z" />
    <path fill="#D1AC99" stroke="#000000" stroke-width="0.9" stroke-linejoin="bevel" d="M391.6,238.4c0.5-0.7,5.5-9.4,5.5-9.4l-2.7-2c-0.8,2.5-3.9,3.3-4.4,6.2S392.1,239.1,391.6,238.4L391.6,238.4z M283.4,238.4c-0.5-0.7-5.5-9.4-5.5-9.4l2.7-2c0.8,2.5,3.9,3.3,4.4,6.2S282.9,239.1,283.4,238.4L283.4,238.4z" />
    <path fill="#D1AC99" stroke="#000000" stroke-width="0.9" stroke-linejoin="bevel" d="M396.6,235.7c0,0,0.9-4.2-2.1-4.7c-3.1-0.5-4.7,2.4-4.3,1.2c0.5-1.2,2.4-2.5,2.6-6.7s-0.2-6.4-0.2-6.4s1.2-5.5,6.2-4.7c5,0.7,5.2,4.7,5.2,6.2s-0.5,2.2-0.5,2.2L396.6,235.7L396.6,235.7z M278.4,235.7c0,0-0.9-4.2,2.1-4.7c3.1-0.5,4.7,2.4,4.3,1.2c-0.5-1.2-2.4-2.5-2.6-6.7s0.2-6.4,0.2-6.4s-1.2-5.5-6.2-4.7c-5,0.7-5.2,4.7-5.2,6.2s0.5,2.2,0.5,2.2L278.4,235.7L278.4,235.7z" />
    <path fill="#000000" d="M294.2,219.3L294.2,219.3l-2.6-1.8l-0.3,0.5l0.5,0.4v0.3l-3.3,5.2l-0.2,0.1l-0.6-0.3l-0.3,0.5l2.6,1.8c0.9,0.6,1.6,0.9,2.5,0.8c1.1-0.1,2-0.7,2.8-1.9C296.6,222.7,296.3,220.7,294.2,219.3z M294,223.8c-1.2,1.8-2.4,2.3-3.8,1.3l-0.5-0.4l3.4-5.4l0.5,0.4C295.1,220.6,295.2,222,294,223.8z M301.7,225.3l0.3-1l-0.1-0.2l-1.9-1l-1.1,2.5l1.2,0.6l0.2-0.1l0.4-0.7l0.6,0.3l-1.1,2.4l-0.6-0.3l0.3-0.8l-0.1-0.2l-1.2-0.6l-1.2,2.7l2.2,1.1l0.2-0.1l0.7-1l0.6,0.3l-0.9,1.9l-5.1-2.6l0.2-0.5l0.6,0.2l0.2-0.1l2.6-5.6l-0.1-0.2L298,222l0.2-0.5l4.8,2.4l-0.8,1.7L301.7,225.3z M295.1,228.6L295.1,228.6L295.1,228.6L295.1,228.6z M306.7,229.2c0.5,0.6,0.6,1.3,0.4,2c-0.4,1.3-1.7,1.9-3.4,1.4c-0.6-0.2-1.3-0.6-1.8-1l0,0l0.6-2l0.8,0.3l-0.2,1.4l0.1,0.2c0.3,0.2,0.5,0.3,0.8,0.5c0.8,0.3,1.4,0,1.6-0.6s-0.1-1.1-0.7-1.8c-0.3-0.4-0.8-0.7-1.1-1.3c-0.3-0.6-0.4-1.2-0.2-1.8c0.4-1.2,1.6-1.9,3.1-1.4c0.6,0.2,1.2,0.6,1.8,1l-0.6,1.8l-0.7-0.2l0.2-1.2l-0.1-0.2c-0.2-0.2-0.4-0.3-0.7-0.4c-0.7-0.2-1.3,0-1.5,0.7c-0.2,0.5,0,0.9,0.4,1.5C305.7,228.2,306.2,228.6,306.7,229.2z M312.4,227.7l-0.7-0.2l-0.2,0.1l-1.8,5.9l0.1,0.2l0.7,0.3l-0.2,0.5l-3-1l0,0l0.2-0.5l0.7,0.2l0.2-0.1l1.8-5.9L310,227l-0.6-0.3l0.2-0.5l3,1L312.4,227.7z M317.9,234.9c-0.1-0.6,0-1.2-0.3-1.8c-0.2-0.4-0.5-0.7-0.9-0.9c1.2,0,2-0.5,2.2-1.6c0.3-1.3-0.4-2.1-2-2.5l-3.1-0.7l0,0l-0.1,0.6l0.6,0.2l0.1,0.2l-1.3,6.1l-0.2,0.1l-0.6-0.1l-0.1,0.6l2.9,0.6l0.1-0.6l-0.6-0.2l-0.1-0.2l0.5-2.6c0.1,0,0.1,0,0.2,0c1,0.2,1.2,0.8,1.3,1.9c0.1,0.6,0,1.1,0.5,1.7c0.2,0.3,0.6,0.5,1,0.6c0.3,0.1,0.7,0.1,1.1,0.1l0.1-0.5c-0.1,0-0.1,0-0.1,0C318.3,235.8,318,235.6,317.9,234.9z M315.5,231.6c-0.1,0-0.2-0.1-0.4-0.1l0.6-3l0,0l0.5,0.1c1,0.2,1.4,0.9,1.2,1.8C317.2,231.5,316.6,231.8,315.5,231.6z M325.3,235.1h0.7l-0.1,2.1l-5.7-0.3l0,0v-0.6h0.6l0.2-0.2l0.3-6.2l-0.2-0.2l-0.6-0.1V229l5.3,0.3l-0.1,1.8H325l-0.1-1l-0.1-0.2l-2.1-0.1l-0.1,2.8l1.4,0.1l0.2-0.2l0.1-0.8h0.6l-0.1,2.7h-0.6l-0.1-0.8l-0.1-0.2l-1.4-0.1l-0.1,3l2.5,0.1l0.1-0.2L325.3,235.1z M330.3,230.4l6.3,0.1v2.1h-0.7l-0.2-1.3l-0.2-0.2h-1.3l-0.1,6.3l0.2,0.2l0.7,0.1v0.6h-3.2v-0.6h0.7l0.2-0.2l0.1-6.3h-1.3l-0.2,0.1l-0.2,1.2h-0.7L330.3,230.4z M344.6,237.7v0.6l-3.1,0.1v-0.6l0.7-0.1l0.2-0.2l-0.1-2.9l-3.1,0.1l0.1,2.9l0.2,0.2h0.7v0.6l-3.1,0.1v-0.6l0.6-0.1l0.2-0.2l-0.1-6.2l-0.2-0.2H337v-0.6l3.1-0.1v0.6l-0.7,0.1l-0.2,0.2v2.6l3.1-0.1v-2.6l-0.2-0.2h-0.7v-0.6l3.1-0.1v0.6l-0.6,0.1l-0.2,0.2l0.1,6.2l0.2,0.2H344.6z M351.2,235.6l0.2,2.1l-5.8,0.5l0,0v-0.6l0.7-0.1l0.2-0.2l-0.5-6.2l-0.2-0.1h-0.7v-0.6l5.5-0.5l0.2,1.8l-0.8,0.1l-0.2-1l-0.2-0.1l-2.2,0.2l0.2,2.8l1.4-0.1l0.1-0.2v-0.8l0.6-0.1l0.2,2.7l-0.6,0.1l-0.2-0.8l-0.2-0.1l-1.4,0.1l0.3,3l2.5-0.2l0.1-0.2l0.1-1.2L351.2,235.6z M362.3,235.1c-0.8,0.1-1.1,0-1.5-0.6c-0.3-0.5-0.5-1.1-0.9-1.6c-0.3-0.3-0.7-0.5-1.3-0.5c1.3-0.5,1.8-1.2,1.7-2.3c-0.2-1.3-1.2-1.8-3-1.5l-3.5,0.6l0,0l0.1,0.6l0.7-0.1l0.2,0.1l1,6.1l-0.2,0.2l-0.7,0.2l0.1,0.6l3.2-0.5l-0.1-0.6l-0.7,0.1l-0.2-0.2l-0.4-2.6c0.1,0,0.1,0,0.2,0c1.2-0.2,1.5,0.2,2.1,1.3c0.3,0.5,0.5,1,1.1,1.4c0.3,0.2,0.8,0.2,1.2,0.2c0.4-0.1,0.7-0.2,1.1-0.3l-0.1-0.6C362.4,235.1,362.3,235.1,362.3,235.1z M357.1,232.4c-0.1,0-0.3,0-0.4,0.1l-0.5-3l0.5-0.1c1.1-0.2,1.8,0.2,1.9,1.2C358.8,231.6,358.3,232.2,357.1,232.4z M366.5,233.7l0.2,0.5l-3.3,1l-0.2-0.5l0.7-0.3l0.1-0.2l-1.8-5.9l-0.2-0.1l-0.7,0.2l-0.2-0.5l3.3-1l0.2,0.5l-0.7,0.3l-0.1,0.2l1.8,5.9l0.2,0.1L366.5,233.7z M373,228.7l-0.1,0.2l0.7,2.6c-0.8,0.6-1.5,1-2.3,1.2c-2.3,0.7-4.4-0.4-5-2.7c-0.7-2.3,0.5-4.3,2.9-5.1c0.7-0.2,1.6-0.4,2.4-0.4l0.5,1.9l-0.8,0.3l-0.6-1.1l-0.2-0.1c-0.3,0-0.6,0-1,0.1c-1.7,0.5-2.3,2-1.8,4c0.6,2,2,2.9,3.7,2.3c0.1,0,0.3-0.1,0.6-0.2l-0.7-2.3l-0.2-0.1l-0.8,0.2l-0.2-0.5l3.2-1l0.2,0.5L373,228.7z M382.4,226.8l0.2,0.5l-2.9,1.5l-0.2-0.5l0.6-0.4l0.1-0.2l-1.3-2.6l-3,1.6l1.3,2.6l0.2,0.1l0.6-0.3l0.2,0.5l-2.9,1.5l-0.2-0.5l0.6-0.4l0.1-0.3l-2.7-5.5l-0.2-0.1l-0.6,0.3l-0.2-0.5l2.9-1.5l0.2,0.5l-0.6,0.4l-0.1,0.3l1.1,2.3l3-1.6l-1.1-2.3l-0.2-0.1l-0.6,0.3l-0.2-0.5l2.9-1.5l0.2,0.5l-0.6,0.4l-0.1,0.3l2.7,5.5l0.2,0.1L382.4,226.8z M387.5,224l-3,1.9l-0.3-0.5l0.6-0.5l0.1-0.3l-3.1-5.4l-1.2,0.7l-0.1,0.2l0.5,1.2l-0.7,0.4l-1-1.8l0,0l5.7-3.6l1,1.8l-0.7,0.4l-0.8-1h-0.2l-1.2,0.7l3.1,5.4l0.3,0.1l0.7-0.4L387.5,224z" />
  </g>
  <g>
    <path fill="#0072C4" stroke="#FFFFFF" stroke-width="3" d="M337.5,224.2c0,0-57.2-16.9-56.9-81l0.4-84.8h113l0.4,84.3C394.7,206.8,337.5,224.2,337.5,224.2L337.5,224.2z" />
    <path fill="#BCBCBC" d="M288.9,77.5c0.1,0,0.8-0.7,1.4-1.2c0.9-0.4,1.7-1.1,2.6-1.5c0.7-0.4,2-0.7,2.6-1c0.8-0.4,1.5-0.9,2.1-1.7c0.1-1.1,0.2-1.9,0.2-3.2c0.9-0.5,1.8-0.9,2.6-1.2c1.2-0.3,1.4-0.8,2.6-1c0.7-0.3,2-0.2,3.1-0.2c1.2,0,1.9,0.8,3,1c1.3,0.5,1.8,0.9,2.8,1.7c0.6,0.7,0.9,1.3,1.9,1.8c0.8,0.4,1.5,1,2.4,1.2c1,0.6,1.8,0.9,2.6,1.7c0.7,0.5,1,1.2,1.7,1.7c0.8,0.6,1.5,1.2,2.4,1.7c1,0.7,2,1.2,3.7,1c0.9-0.1,1.8-0.2,2.8,0c1.2,0,2.3,0,3.3,0.2c1.2,0,2.2,0.2,3.3,0.2c1.1,0.2,2.1,0.2,3.3,0.2c1,0.3,2.2,0.2,3.3,0.2h3.3h3.3c1.2,0,2.4,0,3.3,0.2c1.2,0,2.2-0.1,3.3-0.2c1.3,0,2.3-0.2,3.6-0.2h4c1,0.3,2.4,0.5,3.1,1c0.9,0.3,1.4,0.7,2.4,1c0.7,0.4,1.8,1,2.4,1.7c0.7,0.7,1.4,1.7,1.9,2.7c0.7,1,0.9,2,1.4,3.2c0.3,1.1,0.5,2.2,0.5,3.5c0.3,1.1,0.2,2.3,0.2,3.5c-0.3,1.1-0.3,2.4-0.7,3.5c0,1.2-0.3,2.3-0.5,3.2c-0.2,1-0.5,1.7-0.5,3v3.5c-0.1,1.1-0.3,2-0.5,3.2c-0.6,1.1-1.1,2.3-1.7,3.7c-0.8,0.5-1.5,1.3-1.9,2c-0.5,0.3-0.8,0.8-0.7,1c0.9,0.3,0.7,1,0.7,2.2c0.1,1,0.2,2.1,0.5,3.2c0.1,1.2,0.3,1.9,0.7,2.7c0.4,0.5,0.4,0.2-0.5,0.2c-0.7,0.5-1.4,0.3-1.7-0.7c-0.6-0.7-0.7-1.5-0.9-2.7c-0.1-1.1-0.3-2.3-0.7-3c-0.1-1.4-0.5-1.4-1.9-1.5c-0.7-0.6-1.5-0.7-2.8-0.7s-1.4-0.1-1.4,1.2v3.5c-0.2,1-0.7,1.8-0.9,2.7c-0.7,0.5-1.1,1.4-1.9,2c-0.4,1.1-1,1.3-2.1,1.5c-0.4-0.5-1.1-1.2-1.4-1.7c0.7-1.1,1.2-1.3,1.7-2.5c0.5-1,0.8-1.6,1.2-2.5c-0.5-0.8-1-1.1-1.4-2.2c-0.4-0.6-0.9-1.9-1.2-2.7c-0.8-0.3-2-0.3-2.6-0.7c-1.2-0.3-1.5,1-2.8,1H346c-1.5,0-1.8,0.8-3.1,0.7c-0.4,0.1-1.3-0.1-2.6,0c-1,0.3-2.2,0.2-3.3,0.2c-1.2,0-2.2-0.3-3.1-0.5c-1.1-0.3-2.2-0.6-3.3-0.7c-1.4,0-1.9,0.1-2.8,0.7c-0.7,0.4-1.8,1.4-2.6,2c-0.3,0.8-0.5,2.2-0.9,3.2c-0.3,1-0.7,1.6-0.9,2.5c-0.3,0.8-0.6,1.7-0.7,3c-0.1,1.7-0.4,1.5-1.4,1c-0.4-0.7-1.1-1.5-1.4-2.2c0.2-1.3,0.5-1.9,0.5-3.2c-0.2-1-0.8-0.9-1.4-0.2c0,1.3,0.1,2.3-0.5,3c-0.3,1-0.7,1.5-1.4,2c-0.4,0.9-1.1,1.3-1.9,1.7c-0.1,0,0-0.3,0-1c-0.6-1.1,0-2.1,0-3.5c0-1.3-0.1-2.1,0.3-3.2c0-1.2-0.6-2.3-0.7-3.2c-0.4-0.9-0.7-1.4-1.9-1.7c-0.8-0.3-2.1-0.8-2.6-1.5c-0.7-0.9-1.1-1.3-2.1-1.7c-1.1-0.4-1.6-0.8-2.4-1.2c-0.7-0.8-1.3-1.2-1.7-2.2c-0.5-0.8-0.6-2.2-0.9-3.2c-0.1-1.1-0.4-2.1-0.7-3c-0.1-1.1-0.3-1.9-0.7-3c-0.1-1-0.4-2.1-0.7-3.2c0-1.2,0-2.4-0.2-3.5v-3.5c-0.2-1-0.2-2.5-0.5-3.2c0-1.3-0.1-2.1-0.5-3c-0.5-0.9-0.6-1.3-1.4-1.5c-0.6,0.8-1.6,1.1-2.8,1.2c-0.9-0.2-2.1-0.3-3.1-0.7c-1-0.2-1.6-0.6-2.4-1c-0.4-0.6-0.9-1.4-1.4-2c-0.1-1.3-0.4-2-0.5-3.2C287.9,78.3,288,78.8,288.9,77.5L288.9,77.5z" />
    <path fill="#FEFEFE" d="M302.9,86.5c1.5-0.5,4.8-2.9,6.7-4.5c2.2-1.4,6.6,0.1,6.7-3.6c-0.3,1.1-2.8,3.9-4.1,5.5c-2.7,1.7,1.3,3.5,2,1c1.4-2.5,3.2-5.1,6.1-6.1c-0.5,1.8-0.9,3.6,0.3,5.3c0.4-0.8,0.6-4.1,0.5-1.4c-0.9,1.5,1.3,6.1,1.4,2.5c0.4-2.2,0.2,2.4,0.9,3.1c1.4,2.7,1.3-2.5,1.6-3.6c0.2-2,0.3-1.4,0,0c-0.3,1.8,0.3-3.7,0.4-0.7c0.2,1.6,0,5.9,1.5,2.5c1.2-2,1.5-2.1,0.2-0.3c-0.4,0.7,2-3.7,1-0.6c-0.1,2.2,0,5.5,1.2,6.9c0.9-1.1,0.4-7,1.3-3c0.4,1.1,0,4.3,1.5,1.9c1.6-1.9,2.5-3.5,2.3-6.1c0.2-1.3,1-3.5,1.7-1.1c-0.5,3.1,2.7,5,2.3,7.9c1.4-2.2,0.8-5.6-0.2-7.7c-0.2-2.5,3.9-1,2.9,1.2c-0.1,1.6,2.2,5.8,2.4,1.9c0.3-1.8,1.3-2,1.1,0.1c0.4,1.3,2.2,5.2,2,1.8c0.2-1.8-0.3-3.8,0.5-5.5c0.6,1.1,0.6,2.8,1.3,0.7c1.4,0,0.6,3.9,2.3,4.7c0.7,1.4,2.5,3.7,2,0.7c0.3-1.6-1.2-5-0.6-5.5c1.9,2.4,2.6,5.5,5.1,7.4c2.4,1.2,0.3-3.4,0.2-4.6c-1.4-0.8-2.6-3.9-0.6-1.5c1.2,2.1,4.7,4,5.8,4.4c-1.1-0.8-2-1.1-0.2,0c1.3,0.5-0.8-3.3-1.6-4c-0.7-1.2-4-3-3.1-3.9c2.6,0.6,3.4,3.4,5,5.2c1,0.8,3.4,2.6,2,0c0.7-0.3,4.4,3.8,3.6,0.5c-0.6-1.4-3.8-4-3.5-4.1c1.1,1.6,0.4,0.5-0.4-0.4c3.2,0.4,5.1,3.5,7.1,5.6c0.3,1,1,5.7,0,2.6c-2.1-0.9,0.8,4.2-1.5,3.6c-0.1-1.1-2.1-3.5-1.1-1.2c1.7,3.4,0.4,7.2,0.6,10.8c0,1.8,0,3.5-0.2,5.3c0.1-1.3,0.2-3.5,0-0.6c-0.1,2-0.8-2.9-1.8-3.1c-0.2-0.9-1-5.5-1.6-2.7c0,2.7,2.6,5.5,0.5,7.8c-0.7,0.6-1.1,2.5-1.4,0.6c-1-2.3-1.7-4.7-3.4-6.6c-0.7-1.5-3.3-5-2.6-1.3c0.4,1.7,0.7,3.4,0.6,5.1c-1-2.6-2.4-5-3.7-7.4c0.2,1.1,1.5,5.9,0.4,2.8c-0.8-2.5-2.1-5.1-4.7-6.2c-0.7-0.1,1.7,4.5,0.8,4.5c-0.2-1.5-1.6-4.7-2.9-4.1c0.1,2.6,1.1,5.1,0.5,7.7c0.1,2.6-1.6-2.6-2.2-3.3c-2.6-1.6,0.2,4.4-1.8,2.1c-1.6-1.1-2.5-2.4-2.3-4.6c-3-0.5-1.9,2.7-2,4.5c-0.3,1.4-1,4-1.9,4.4c-0.4-2-0.1-4.1-0.2-6.1c0.5-1.2,0-4.2-1.5-2.8c-0.2,2.6,1.5,6-0.5,8.2c-1,1.2-3-1.9-4.8-1c-2.3-1.2-1.4-4.9-2.9-6.8c-1.6-1.6-0.8,6.5-1.9,2.7c0.7-2.5-3.8-3.4-2.9-0.8c1.1,1.1,1.3,2.5,1.2,4c0.3,1.7-1,2.3-1.3,0.3c-0.1-2.2-3.8-3.1-3.1-0.2c-1.9-1.2-0.1,4.9-2.5,3c-2.7-1.9-4.4,1.7-7.3,1c-1.7,0.3-5.7,0.7-3.2-1.7c2.3-1.4,3.2-5.5,6.4-3.4c2.4-0.1,5-1.8,6.9-3.4c1.6-1.1,0.9-3.8-1.1-2.1c-1.6,2.5-6.3,2.5-7.8,2.3c1.4-1.3,5.7-1.5,4.6-3.8c-1.6,0.1-4.3,2.5-5.2,1.1c0.5-0.6,2.4-2.3,0.3-1.5c-2.6,0.9-5.5,0.6-8.2,0.4c-2.7-2.7,4-1.9,3.9-3.7c-0.7-0.1-3.3,0.3-2.1-0.7c2.2,0,4.4,0.2,6-1.9c1-1,4.3-3.3,3.5-4.1c-2.4,1.4-5,3.8-8.1,2.4c2.6-2-1-2.1-2.7-1.9c-1.2,0.4-4.6-1-1.7-0.9c2,0.4,3.9-2.3,0.9-1.8C304.3,86.4,303.6,86.5,302.9,86.5L302.9,86.5z M288.4,82.5c-0.1-1.3-0.6-2.6-0.4-3.8c0.6-0.9,1.5-1.6,2.3-2.4c1.5-0.8,2.8-1.8,4.5-2.2c1.1-0.3,2.1-1.1,2.9-2c0.4-1.1-0.3-2.9,0.8-3.5c1.3-0.7,2.7-1.2,4-1.8c1.4-0.5,3-0.5,4.4-0.4c1.2,0.5,2.4,1,3.5,1.5s1.8,1.4,2.6,2.3c0.8,0.8,1.9,1.3,2.9,1.8c0.8,0.1,0.5,1.1,0,1.1c-0.3,1.6-2.3,0.2-2.7-0.7c0.3-0.6,0.2,1.4-0.4,1.4c-1.1,0.5-1.1-1.4-1.2-2.1c0.1-0.6-0.3-1.3-0.6-0.4c-0.7,0.8,0.8,2.6-0.8,2.1c-1.2-0.2-2.5-0.4-3.6,0.4c-0.9,0.9,0.9,1.3,1.5,1.7c0.8,0.7,1.8,0,2.7-0.1c1.2-0.4,2.6-0.2,3.7,0.4c0.5,1.1-0.5,2.2-1.5,2.7c-0.9,0.5-2,0.7-3,0.8c-1.5,0.1-1.2,2-2.7,2.1c-0.9,0.4-2,0.5-3,0.4c-0.2-0.5,1-1.4,1.1-2.2c1.1-1.3-1.6-1.1-1.2,0.2c0.2,0.8-1.6,2.1-1,0.6c0-0.8,0.8-1.9-0.5-1.4c-0.7,0-2.2,0-1.8,1.1c-0.9,0.2-2.1,0.2-2.8-0.2c-0.5-1.2-1.9-1.8-2.8-0.7c-0.9,1.2-2.2-0.4-3,0.2c0,1.1,1.1,1.7,2.2,1.7c1-0.1,2.1-0.3,3.1-0.1c1,1.1-0.9,1.5-1.8,1.3c-1.2,0-2.3-0.7-3.5-0.6c-0.6-0.1-1.9,0.6-0.7,0.7c0.9,0.2,2.8,0.1,2.4,1.6c-0.7,0.3-1.6,0-2.5,0.3c-0.5-0.1-1.9,0.3-1.1-0.1C289.8,83.5,289,83.1,288.4,82.5L288.4,82.5z" />
    <path fill="#BCBCBC" d="M313.8,93.8c0.3-0.2,1.3-1.3,1.8-1.8c0.6-0.8,1.1-1.4,1.7-1.8c0.5-0.8,1.1-1.3,1.5-1.9c0.5-0.6,0.8-1.1,1.3-1.8c0,0.8-0.1,1.8,0.2,2.3c0,1.1-0.1,1.3-0.5,2.1c-0.4,0.6-0.7,1-1.5,1.4s-1.2,0.6-1.8,1.1c-0.5,0.3-1,0.6-1.5,0.9S314.8,94.5,313.8,93.8L313.8,93.8z M293.7,76.6c-0.1,0-0.6,0.3-1,0.7c-0.7,0.4-1.5,1.1-2,1.4c-0.4,0.3-0.4,0.4-0.8,0.5c0.8-0.1,1.2-0.3,1.8-0.7c0.9-0.1,1.7-0.3,2.2-0.7C294.3,77.7,293.9,77,293.7,76.6L293.7,76.6z M301.4,68.4c0.1,0,0.3,0.5,0.7,0.9c0.2,0.7,0.5,1.1,0.5,1.9c0.2-0.9,0.6-1.5,0.7-2.5c-0.3-0.5-0.3-0.7-1-0.7C302.3,68.5,302.3,68.2,301.4,68.4z M304.4,68.6v0.2c0-0.5,0-0.2,0.2,0.7c0.3,0.6,0.3,1.2,0.3,2.1c0.4-0.3,0.8-1,1-1.6C306,68.6,305.8,68.7,304.4,68.6z M310.7,88.7h0.2c-0.5,0-0.2,0,0.7-0.5c0.6-0.4,1-1,1.8-1.2c0.8-0.6,1.4-0.9,2.2-1.2c0.4-0.2,0.7-0.5,1.2-0.2c-0.1,0.9-0.3,1.2-1,1.6c-0.4,0.5-1,0.8-1.5,1.1c-0.5,0.3-1.1,0.3-1.3,0.9C311.9,89.5,311.8,89.4,310.7,88.7L310.7,88.7z M308.6,97.8h0.2c-0.5,0-0.2,0,0.7-0.5c0.7-0.7,1.3-1,2.2-1.4c0.7-0.1,1.5-0.2,2-0.5c0.4-0.1,0.7-0.3,1,0c0.5,0.7,0.7,1-0.2,1.4c-0.4,0.4-1.1,0.7-1.7,0.9c-0.4,0.4-1.2,0.4-2,0.5c-0.7,0-1.1,0.1-1.3-0.4l1.3,0.4C310.1,98.2,309.8,98.3,308.6,97.8z M315.8,97.8v-0.2c0,0.5,0,0.2,0.3-0.7c0.6-1,0.9-1.5,1.7-1.8c0.4-0.5,1-0.6,1.8-0.9c0.3,0.5,0.1,1.1,0,1.8c-0.2,0.7-0.8,1.1-1.2,1.6c-0.5,0.4-0.7,0.7-1.5,0.9C316.4,98.5,316.7,98.5,315.8,97.8z" />
    <path fill="#C4C4C2" stroke="#000000" stroke-width="0.6789" d="M296.2,75.6c-0.4,0,0.7-0.4,1-0.5c0.3-0.6,0.5-1,1-1.4c0.8,0.1,1.3,0.3,1.7,0.9c0.7,0.2,1,0.6,1.8,0.7c0.3,0.3,0.8,0.3,0,0.5c-0.5,0.3-1.2,0.4-2,0.4c-0.9,0.1-1.5,0.3-2,0.5C296.6,76.6,296.8,76.7,296.2,75.6L296.2,75.6z" />
    <path fill="#000000" d="M298.6,74.2c0.442,0,0.8,0.403,0.8,0.9s-0.358,0.9-0.8,0.9s-0.8-0.403-0.8-0.9S298.158,74.2,298.6,74.2z" />
    <path fill="#005121" stroke="#002B0E" stroke-width="0.9698" d="M301.4,124h0.7c-2.1,0-0.8-0.1,2.7,2.8c1.5-1.3,1.5-1.5,2.7,0.7c0.7,1.2,0.9-0.1,2-1.4c0.5,2.5,0.9,5.2,2.7,2.8c2.1,0,4.2-0.2,5.4,0.7c1.4,2.6,0.9-0.4,2,0.7c3,0.4,2.9-2.6,6.1-3.4c2,2.6,2.9,0.6,5.4-0.7c1.8,0.5,3.6,3.5,3.9,0.6c1.5-2.6,1.6-2.4,2.7,0c1.5,1.4,2.1-0.7,3.4-1.4c2.2,1.4,4.7,1.6,8,0.7c0.6,2.3,2,1.3,3.4,0.7c3,1.3,4,1.7,7.4,0c1.7-2.1,0.7,0.1,2,1.4c2.5-0.8,1.8-1,4.7-0.7c2.9,0,3.1-0.1,4-2.1c1.5,1.5,2,2.6,4,0.7c3.1,0.1,2.2,0.4,4-0.7c1.4,3.2,1.7,0.9,3.4,2.1c-1.1,2.9-2.8,4.2-4.7,5.6c-1.3,2.2-2.1,4.6-4.7,5.6c-1.9,2-3.9,3.2-6,4.9c-2.9,0.8-6.1,0.7-9.4,0.7h-9.4h-9.4H329c-2,1-5.3,1.5-8,2.1c-3.1,0-6.6,0-8.7-0.7c-1.4-1.5-4-3.2-5.4-4.9c-1.4-1.2-1.5-3.5-2.7-4.9c-1.1-2-1.5-5.1-2.7-7L301.4,124L301.4,124z" />
    <path fill="#005121" stroke="#002B0E" stroke-width="0.9698" d="M366.5,130.3v0.7c0-2,0.1-0.9-1.3,2.8c-0.3,0.9-0.9,1.1-2,1.4 M360.4,133.1h0.7c-2.5,2.5-4.2,3.6-4.7,6.3l4.7-6.3c-2.5,2.5-4.2,3.6-4.7,6.3 M351.1,129.6c0,0.1-0.1,2.5-0.7,3.5 M348.4,134.5v0.7V134.5z M343,130.3h0.7H343z M305.5,130.3c0.3,0,1.6,2.2,3.4,3.5c-0.4,2.1-1.1,4.4,0,6.3 M310.8,134.5c0.3,0,1.6,2.2,3.4,3.5L310.8,134.5c0.3,0,1.6,2.2,3.4,3.5v0.7c0-2.2-0.2-4.4,0.7-5.6c0.7,1.3,1.7,3.4,2,1.4c3.8-0.1,5.6-1.3,8-2.1c0,1-0.2,0.5,0.7,1.4 M371.2,131h0.7c-1.3,1.1-2.2,3.3-3.4,4.9 M343.7,128.9h5.4" />
    <path fill="#FFFFFF" d="M394.4,142.6L394.4,142.6c0,6-0.4,11.6-1.3,16.9c-7.4-0.6-10.2-8.4-17.9-8.4c-8.1,0-10.8,8.4-18.8,8.4s-10.8-8.4-18.8-8.4s-10.8,8.4-18.8,8.4c-8.1,0-10.8-8.4-18.8-8.4c-7.8,0-10.6,7.9-18,8.4c-0.8-5.1-1.3-10.5-1.3-16.4v-0.5c0.2,0,0.3,0,0.5,0c8.1,0,10.7-8.4,18.8-8.4c8.1,0,10.8,8.4,18.8,8.4s10.8-8.4,18.8-8.4c8.1,0,10.8,8.4,18.8,8.4s10.8-8.4,18.8-8.4c8.1,0,10.7,8.4,18.8,8.4C394.1,142.6,394.3,142.6,394.4,142.6z M356.3,175.5c-8.1,0-10.8-8.4-18.8-8.4s-10.8,8.4-18.8,8.4s-10.8-8.4-18.8-8.4c-6.3,0-9.3,5.1-14.1,7.4c1.7,4.6,3.7,8.9,6,12.8c2.3-1.7,4.7-3.2,8.1-3.2c8.1,0,10.8,8.4,18.8,8.4c8.1,0,10.8-8.4,18.8-8.4s10.8,8.4,18.8,8.4s10.8-8.4,18.8-8.4c3.3,0,5.7,1.4,8,3.1c2.3-3.9,4.3-8.1,6-12.7c-4.7-2.3-7.8-7.3-14-7.3C367.1,167.1,364.4,175.5,356.3,175.5z M337.5,200c-8.1,0-10.8,8.4-18.8,8.4c-7.6,0-10.5-7.6-17.6-8.4c9.5,10.6,20.3,17,27.6,20.5c2.5-1.9,5.1,2.3,8.8,2.3c3.7,0,6.2-4.3,8.7-2.4c7.3-3.5,17.9-10,27.3-20.4c-6.9,1-9.7,8.3-17.2,8.3C348.3,208.5,345.6,200,337.5,200z" />
    <path fill="none" stroke="#522108" stroke-width="0.369" d="M287.6,171.4c1.3-0.5,7.7-2.5,7.9-2.3c0.2,0.2,12.4,12.5,12.4,12.5l-10.1,2.1L287.6,171.4L287.6,171.4z M311.7,187.4c0.2-2.9,5.6-19.4,5.6-19.4 M313.5,187.6c0-0.2,4.3-19.4,4.3-19.4 M315,187.6c0.2-1.1,3.6-19.4,3.6-19.4 M313.2,182.1c0.9,0,2.8-0.7,2.8-0.7 M313.7,180c0-0.2,2.8-0.7,2.8-0.7 M314.1,177.3l3-0.5 M315.4,174.9c0,0.2,2.1,0.2,2.1,0.2 M344.9,200.2c-0.2-5-6.6-33.1-6.6-33.1 M342.7,199.3c0-0.3-5.1-31.9-5.1-31.9 M340.5,196.8c-0.2-1.9-3.7-29.4-3.7-29.4 M344.7,196.2c-1.1-0.9-4.4-2.2-4.4-2.2 M343.2,191.2c-1.1,0-3.3-1.2-3.3-1.2 M342.5,187.5c0-0.3-3.3-1.2-3.3-1.2 M342.1,182.8l-3.5-0.9 M340.5,178.8c0,0.3-2.4,0.3-2.4,0.3 M339.9,175.1c-0.4,0-2.4,0.6-2.4,0.6 M361.9,186.3c-1.1,0-3.3-0.9-3.3-0.9 M363.7,193c-0.2-3.7-6.6-24.7-6.6-24.7 M361.5,192.3c0-0.2-5.1-23.8-5.1-23.8 M359.2,190.5c-0.2-1.4-3.7-21.9-3.7-21.9 M361.2,183.6c0-0.2-3.3-0.9-3.3-0.9 M360.8,180.1l-3.5-0.7 M359.2,177.1c0,0.2-2.4,0.2-2.4,0.2 M358.6,174.3c-0.4,0-2.4,0.5-2.4,0.5" />
    <path fill="#DD8B59" stroke="#522108" stroke-width="0.3686" d="M335.2,195.8c0-0.2,0.7-57.9,0.7-57.9s2-0.2,2,0s-0.2,57.7-0.4,57.9C337.2,196.1,335,196.3,335.2,195.8z M356.8,140.5c0,0.5-0.4,48.7-0.4,48.7l-1.5,1.8l0.4-50.5H356.8L356.8,140.5z M318.4,184.8c0.2-1.4,0.2-43.1,0.2-43.1l-1.3-0.2l-0.2,42.7L318.4,184.8L318.4,184.8z" />
    <path fill="#DD8B59" stroke="#522108" stroke-width="0.3686" d="M310.1,169.1c0.9,0,15.9-2.5,15.9-2.5l-0.2,2.5l-14.8,1.6L310.1,169.1L310.1,169.1z M310.3,155.7c0.9,0.2,18.1-4.8,18.1-4.8s0,1.6-0.2,1.6s-17.9,4.8-17.9,4.8V155.7L310.3,155.7z M310.9,149c-0.2,0.9,0.2,2.1,0.2,2.1l14.3-5.1c0,0,0.7-1.2,0-1.2S310.7,149.5,310.9,149L310.9,149z M329.9,145.8c0.4,0,14.8-4.8,14.8-4.8s0.2,2.1,0,2.1s-13.5,4.2-13.5,4.2L329.9,145.8L329.9,145.8z M328.8,151.8c0,0-0.4,2.1-0.2,2.1c0.2,0,18.7-5.1,18.7-5.1v-1.4L328.8,151.8L328.8,151.8z M329.5,168.1v1.6l15.9-2.3l-0.4-1.2L329.5,168.1L329.5,168.1z M347.8,169.3l0.2,1.4c0,0,15.9-2.1,15.9-2.3s0-1.6-0.2-1.6C363.4,166.8,348,169.5,347.8,169.3z M347.6,154.5l0.2,1.6l18.7-5.3c0,0,0.4-1.4,0.2-1.4S348,155.2,347.6,154.5L347.6,154.5z M349.5,147.2c0,0-0.2,1.4,0,1.4s13.9-3.5,13.9-3.7s1.3-1.6,0.2-1.4C362.6,143.7,350,147.9,349.5,147.2z" />
    <path fill="#FECF3E" stroke="#522108" stroke-width="0.3686" d="M312.7,150.1c2.1,0,11.6-3.6,12-3.8s-0.2,2.5-1.1,3.5c-0.9,0.9-2.4-0.2-2.9-0.2c-0.4,0,0.9,1.6-1.1,2.3C317.8,152.4,313.9,150.6,312.7,150.1z M350.2,148.5L350.2,148.5L350.2,148.5L350.2,148.5z M352.4,150.9c1.1-0.5,2.2-1.4,2.2-1.4s0.9,2.3,2.4,1.8s2.4-3,2.4-3s1.5,0.5,2.2,0.2c0.7-0.2,1.5-3.9,1.5-3.9l-13,3.9C350.2,148.5,351.3,151.3,352.4,150.9z M348.9,170.9c-0.2,0.5,1.1,1.6,2.2,1.6s1.5-1.6,1.8-1.2c0.2,0.5,0.2,2.5,3.1,1.8c1.9-0.5,2.6-1.6,2.8-2.2c0.1,0.1,0.5,0.3,1.2,0.4c2,0.2,4-3,3.7-3C363.4,168.4,349.3,171.1,348.9,170.9z M349.1,168.4c0.2,0,2.6-4.6,5.3-4.8s7.5,2.5,7.5,2.5s-0.7-5.5-0.4-8.1c0.2-2.5,4-6.9,4-6.9l-16.5,4.8l0,0c0,0-2.2,2.5-1.5,6C348,165.4,348.9,168.4,349.1,168.4z M310.7,170.9L310.7,170.9C310.8,170.9,310.7,170.9,310.7,170.9z M310.8,171c0.1,0.3,0.1,2,1.7,1.6c1.8-0.5,2.2-1.6,2.2-1.6s0.4,2.5,2.9,2.3c2.4-0.2,3.7-3,3.7-3s0.2,2.1,1.8,1.4s2-2.3,2-2.3l-13.9,2.1L310.8,171z M310.7,157.3c0,0-2,0.7-1.3,4.8s2.2,6.5,2.4,6.5c0.2,0,2-3.9,4.6-4.6c2.6-0.7,7.3,2.1,7.3,2.1s-0.4-3.7,0.2-7.1c0.7-3.5,2.9-6,2.9-6S311.4,157.3,310.7,157.3L310.7,157.3z M333.7,148.5c0.9-0.5,2.2-1.8,2.2-1.8s-0.2,2.8,1.5,2.3c1.8-0.5,2-2.3,2-2.3s1.3,0.7,2.4,0s2.2-4.2,1.8-4.2c-0.4,0-12.8,4.2-13.2,3.9C331.2,146.7,332.8,149,333.7,148.5z M343.8,165.4C343.8,165.4,343.8,165.3,343.8,165.4C343.8,165.3,343.8,165.4,343.8,165.4z M330.6,167.5c0.2,0,3.5-3.7,6.4-4.4c2.6-0.6,6.2,1.7,6.8,2.2c-0.3-0.6-1-3.6-1-5.9c0-2.5,3.3-10.4,3.3-10.4l-16.1,4.2l0,0c0,0.5-2.2,4.2-1.5,7.6S330.4,167.5,330.6,167.5z M329.9,169.8c0,0.2,0.7,1.8,2.2,1.8s1.8-1.6,1.8-1.6s-0.2,2.8,2.2,2.5c2.4-0.2,3.3-2.8,3.3-2.8s0.2,1.4,2.2,0.7s4.6-3,4.4-3C345.8,167.5,330.1,170.5,329.9,169.8z M329.9,169.8L329.9,169.8L329.9,169.8L329.9,169.8z" />
    <path fill="#DD8B59" stroke="#522108" stroke-width="0.3686" d="M379.2,183.9c-0.2-0.7-0.8-3.1-0.8-3.1V178l1.2-2.8c0,0-19.2,2.9-19.2,3.1c0-0.3-0.1,5.5-0.1,5.5L379.2,183.9L379.2,183.9z M286.9,171.1l16.8,8.5l-0.4,1.2c0,0-16.1-7.8-16.1-8.1C287.1,172.5,287.3,171.6,286.9,171.1z" />
    <path fill="#DD8B59" stroke="#522108" stroke-width="0.3686" d="M310.7,186.4c0,0,2.2,23.8,27.6,23.1s32.4-24,32.4-24s-10.8-0.5-11-0.5s-8.8,11.1-19.8,10.8c-11-0.2-14.6-3-17-5.3s-4.6-5.8-4.6-5.8l-12.8-5.3l0.7,5.1L310.7,186.4L310.7,186.4z M375.6,178.1l-0.4,4.8h3.1l-0.2-4.8H375.6L375.6,178.1z M372.3,178.3l-0.2,5.1l2-0.2l0.2-4.8L372.3,178.3L372.3,178.3z M369,183.4v-3.9l2-0.7l0.2,3.9L369,183.4z M365.2,183.1l0.4-3.5l2.2,0.2l0.2,3.7L365.2,183.1L365.2,183.1z M361,183.1l0.2-3l2.2-0.2v3.5L361,183.1z M358.8,185l21,0.5l0.2-1.6l-21.6-0.2L358.8,185z M359.7,179.2c2.4,0,20.7-3.7,20.7-3.7s0.7-2.3,0-2.3s-20.7,4.4-20.7,4.4V179.2L359.7,179.2z M294.6,168.6c0,0.7,2.4,14.8,2.4,14.8s1.5,0.2,1.5,0s-2.6-14.5-2.6-14.5L294.6,168.6L294.6,168.6z" />
    <path fill="#B6B6B4" stroke="#522108" stroke-width="0.3685" d="M305,179.7c0,0-4.4-0.7-4.2,0.5c0.2,1.2,2.2,2.3,2.4,3c0.2,0.7-0.7,3.2,0.7,3c1.3-0.2,2.6-1.2,2.6-1.8s-0.2-3.9-0.2-3.9L305,179.7L305,179.7z" />
    <path fill="none" stroke="#522108" stroke-width="0.3756" d="M328.5,194.7c0.2-3.8,6.6-25.6,6.6-25.6 M330.7,194.9c0-0.2,5.1-25.7,5.1-25.7 M332.5,195c0.2-1.4,4.2-25.7,4.2-25.7 M328.7,191.5c1.1-0.7,4.4-1.7,4.4-1.7 M330.3,187.7c1.1,0,3.3-1,3.3-1 M330.9,184.8c0-0.2,3.3-1,3.3-1 M331.4,181.2l3.5-0.7 M332.9,178.1c0,0.2,2.4,0.2,2.4,0.2 M333.6,175.2c0.4,0,2.4,0.5,2.4,0.5 M347.2,194.5c0.2-3.7,6.6-24.7,6.6-24.7 M349.4,193.8c0-0.2,5.1-23.8,5.1-23.8 M351.6,192c0.2-1.4,3.7-21.9,3.7-21.9 M347.5,191.5c1.1-0.7,4.4-1.6,4.4-1.6 M349,187.8c1.1,0,3.3-0.9,3.3-0.9 M349.7,185c0-0.2,3.3-0.9,3.3-0.9 M350.1,181.6l3.5-0.7 M351.6,178.6c0,0.2,2.4,0.2,2.4,0.2 M352.3,175.8c0.4,0,2.4,0.5,2.4,0.5 M326.1,192c-0.2-3.7-6.6-24.8-6.6-24.8 M323.9,191.3c0-0.2-5.1-23.9-5.1-23.9 M321.7,189.5c-0.2-1.4-3.7-22-3.7-22 M325.9,189c-1.1-0.7-4.4-1.6-4.4-1.6 M324.3,185.3c-1.1,0-3.3-0.9-3.3-0.9 M323.6,182.5c0-0.2-3.3-0.9-3.3-0.9 M323.2,179l-3.5-0.7 M321.7,176c0,0.2-2.4,0.2-2.4,0.2 M321,173.2c-0.4,0-2.4,0.5-2.4,0.5 M309.8,186.1c0.7,0,5.7,1.2,5.7,1.2l5.3,7.4 M313.6,187.1c0.2,0.2,4.6,15.7,25.8,15.7s26.2-17.5,26.2-17.5 M369,185.7c0,0-10.1,23.1-29.6,21.4c-19.4-1.6-22.5-9.2-24-13.1c-1.5-3.9-2.4-7.1-2.4-7.1 M363.4,167c0.2-0.7,0.9-14.5,0.9-14.5 M378.9,173.9l-13.7-22.6 M337.4,138.6c0-0.2,6.8,3,6.8,3.2s24.3,33.9,24.5,33.9 M356.6,141.9l6.2,2.8l2,5.1 M318.2,141.4c-0.2,0,6.8,5.5,6.8,5.5l0.9,4.6 M294.2,175.1c3.1-1.4,24.5-21,24.5-21 M288.5,171.4c2.6-2.3,24-21.2,24-21.2 M328.6,153.4l22.7,39.4 M348.6,169.7c0,0,2.7,9.3,5.3,10.7c2.6,1.4,5.7,3.7,5.7,3.7 M348.3,169.9c0,0,1.9,10.9,4.5,13s5.3,4.4,5.3,4.4 M330,169.1c0,0,2.6,15.2,7.9,18.7s9.7,6.5,9.7,6.5 M329.8,168.9c0,0,5.7,12,10.6,15.7s11.5,7.1,11.5,7.1 M311.3,169.8c1.5,2.8,1.3,8.1,3.1,9.9c1.8,1.8,4.4,6,4.4,6 M311.7,170c0.9,1.4,3.3,8.3,4.9,10.4c1.1,1.8,12.4,13.6,12.4,13.6" />
    <path fill="#000000" stroke="#522108" stroke-width="0.2375" d="M325.2,194.6c0,1-0.7,1.7-1.7,1.7s-1.7-0.8-1.7-1.7s0.7-1.7,1.7-1.7S325.2,193.7,325.2,194.6z M331.9,196.8c-0.8,0-1.4,0.7-1.4,1.5s0.6,1.5,1.4,1.5s1.4-0.7,1.4-1.5S332.7,196.8,331.9,196.8z M342.3,197.7c-0.8,0-1.4,0.7-1.4,1.5s0.6,1.5,1.4,1.5s1.4-0.7,1.4-1.5C343.7,198.4,343.1,197.7,342.3,197.7z M351.5,194.4c-0.7,0-1.3,0.6-1.3,1.3s0.6,1.3,1.3,1.3c0.7,0,1.3-0.6,1.3-1.3C352.9,194.9,352.3,194.4,351.5,194.4z M358.6,189.7c-0.7,0-1.2,0.7-1.2,1.5s0.5,1.5,1.2,1.5s1.2-0.7,1.2-1.5S359.3,189.7,358.6,189.7z" />
    <path fill="#FF0101" stroke="#522108" stroke-width="0.3686" d="M317.2,141.7c0,0.5-0.2,3.9,0,4.6c0.2,0.7-8.6-1.8-10.1-1.6C305.5,144.9,316.6,142.1,317.2,141.7z M329.4,140.8c0.2,0,7.3,2.1,7.1,1.6c-0.2-0.5-0.2-3.5-0.4-4.2C335.5,138.2,329.1,140.8,329.4,140.8z M348.6,142.8c1.3,0.2,6.4,2.1,6.4,1.6s0-3.7,0.2-3.9C354.7,140.8,347.2,142.6,348.6,142.8z" />
    <path fill="#BE1017" stroke="#522108" stroke-width="0.2907" d="M333.1,158.7c0,0.7-0.6,1.2-1.2,1.2s-1.1-0.6-1.1-1.3s0.6-1.2,1.2-1.2C332.6,157.5,333.1,158.1,333.1,158.7z M339.9,155.3c-0.6,0-1.2,0.5-1.2,1.2s0.5,1.2,1.1,1.3c0.6,0,1.2-0.5,1.2-1.2C341,155.9,340.5,155.4,339.9,155.3z M335.9,159.7c-0.6,0-1.2,0.5-1.2,1.2s0.5,1.2,1.1,1.3c0.6,0,1.2-0.5,1.2-1.2S336.6,159.8,335.9,159.7z M335.9,153.1c-0.6,0-1.2,0.5-1.2,1.2s0.5,1.2,1.1,1.3c0.6,0,1.2-0.5,1.2-1.2C337.1,153.7,336.6,153.1,335.9,153.1z M335.9,156.4c-0.6,0-1.2,0.5-1.2,1.2s0.5,1.2,1.1,1.3c0.6,0,1.2-0.5,1.2-1.2C337.1,157,336.6,156.4,335.9,156.4z" />
  </g>
</svg>
