<svg xmlns="http://www.w3.org/2000/svg" width="450px" height="300px" viewBox="0 0 450 300">
  <path fill="#FFFFFF" d="M0,0h450v300H0V0z" />
  <path fill="#C8102E" d="M450,120H255V0h-60v120H0v60h195v120h60V180h195V120z" />
  <path fill="#EBEAE3" stroke="#000000" stroke-width="0.326" d="M247,91.631c1.926-3.012,0.774-4.958-2.138-5.559c0,0-9.292,2.978-19.327,3.305s-21.958-2.524-21.958-2.524c-2.138,1.342-1.616,4.526-0.556,6.513c0,0,10.505,3.49,22.464,3.147c7.596-0.218,14.794-2.156,18.832-3.441c2.319-0.738,2.683-1.409,2.682-1.443L247,91.631z" />
  <path fill="#FFFFFF" stroke="#161111" d="M225,223.47l-19.286-40.066l-44.341,3.331L186.428,150l-25.055-36.735l44.341,3.331L225,76.53l19.286,40.066l44.341-3.331L263.572,150l25.055,36.735l-44.341-3.331L225,223.47z" />
  <path fill="#B02320" stroke="#000000" stroke-width="0.8149" d="M224.71,76.392c24.227,3.993,23.362,5.125,23.362,5.125l6.323-18.903c0,0,0.666-3.727-1.065-5.99s-6.589-0.998-6.589-0.998s-0.666-3.062-2.795-3.794c-2.13-0.732-10.05,2.862-12.513,3.661s-3.727,1.597-7.188,1.531c-3.461-0.067-9.651-3.128-10.782-3.727c-1.132-0.599-2.795-1.198-4.326-1.132c-1.531,0.067-3.128,0.466-3.927,1.531s-0.799,2.396-0.799,2.396s-1.265-0.799-3.261-0.799c-1.997,0-3.128,0.266-4.06,1.331c-0.932,1.065-2.13,4.06-2.13,4.06l2.263,5.125l0.133,7.055l4.726,7.454L224.71,76.392L224.71,76.392z" />
  <path fill="#EBEAE3" stroke="#000000" stroke-width="0.326" d="M247.3,87.072c0,0,1.22,1.454,1.173,1.971s-0.563,0.985-0.563,0.985s0.375,0.375,0.282,0.938s-0.845,0.61-0.845,0.61s0.141,0.516-0.328,0.751s-2.393,0.657-2.393,0.657s-9.384-2.674-19.424-2.674s-21.864,3.237-21.864,3.237s-1.22-0.422-1.267-1.22c-0.047-0.798,0.141-1.361,0.141-1.361s-0.668,0.07-0.845-0.516c-0.247-0.819,0.094-1.454,0.094-1.454s-0.465,0.15,0.047-0.938c0.375-0.798,0.938-1.079,0.938-1.079s10.51-3.753,22.474-3.8C236.884,83.131,247.3,86.978,247.3,87.072L247.3,87.072z" />
  <path fill="#FEDD00" stroke="#000000" stroke-width="0.7497" d="M256.14,66.624l-3.639,7.529l-1.43,0.251c0,0-0.873-0.524-3.363-0.351c-1.782,0.125-2.309,0.577-2.309,0.577l3.237-7.504c0,0,0.252,1.612,0.627,2.56c0.477,1.205,2.284,2.334,2.284,2.334s0.25-1.441-0.226-3.187c-0.527-1.932-1.757-4.542-1.757-4.542L256.14,66.624L256.14,66.624z" />
  <path fill="#121116" stroke="#121116" stroke-width="0.7311" stroke-linejoin="round" d="M222.81,43.225h4.073v17.309h-4.073V43.225z" />
  <path fill="#FEDD00" stroke="#000000" stroke-width="0.6194" d="M197.85,75.147l2.616,5.596c0,0,11.132-4.339,24.271-4.258c19.709,0.122,25.305,4.076,25.305,4.076l2.92-6.935l-2.19,1.277l-2.251,1.399l-2.555,0.973l-3.102-0.243l-2.737-2.007l-1.399-2.92l-2.311,2.129l-4.076,0.912l-4.015-1.034l-3.528-4.441c0,0-2.628,4.936-5.961,5.231c-4.806,0.426-7.604-2.312-7.604-2.312s-1.786,4.015-4.745,4.745C201.804,78.493,197.911,75.147,197.85,75.147L197.85,75.147z" />
  <path fill="#FFFFFF" stroke="#1E1E1E" stroke-width="0.73" d="M242.78,41.028c0,1.176-0.939,2.13-2.099,2.132s-2.103-0.948-2.107-2.124s0.931-2.133,2.091-2.14s2.107,0.939,2.116,2.115 M237.67,43.418c0,1.176-0.939,2.13-2.099,2.132s-2.103-0.948-2.107-2.124s0.931-2.133,2.091-2.14s2.107,0.939,2.116,2.115 M248.71,39.628c0,1.176-0.939,2.13-2.099,2.132s-2.103-0.948-2.107-2.124s0.931-2.133,2.091-2.14s2.107,0.939,2.116,2.115 M255.39,40.973c0,1.176-0.939,2.13-2.099,2.132s-2.103-0.948-2.107-2.124s0.931-2.133,2.091-2.14s2.107,0.939,2.116,2.115 M260.49,45.169c0,1.176-0.939,2.13-2.099,2.132s-2.103-0.948-2.107-2.124s0.931-2.133,2.091-2.14s2.107,0.939,2.116,2.115 M262.69,52.056c0,1.176-0.939,2.13-2.099,2.132s-2.103-0.948-2.107-2.124s0.931-2.133,2.091-2.14s2.107,0.939,2.116,2.115 M261.87,59.023c0,1.176-0.939,2.13-2.099,2.132s-2.103-0.948-2.107-2.124s0.931-2.133,2.091-2.14s2.107,0.939,2.116,2.115 M258.78,65.135c0,1.176-0.939,2.13-2.099,2.132s-2.103-0.948-2.107-2.124s0.931-2.133,2.091-2.14s2.107,0.939,2.116,2.115 M232.7,45.251c0,1.176-0.939,2.13-2.099,2.132s-2.103-0.948-2.107-2.124s0.931-2.133,2.091-2.14s2.107,0.939,2.116,2.115 M226.511,46.501c0,0.983-0.785,1.781-1.755,1.783c-0.97,0.002-1.759-0.793-1.762-1.776c-0.004-0.983,0.778-1.784,1.749-1.79c0.97-0.006,1.762,0.786,1.769,1.769L226.511,46.501L226.511,46.501z M226.49,50.183c0,0.983-0.785,1.781-1.755,1.783c-0.97,0.002-1.759-0.793-1.762-1.776c-0.004-0.983,0.778-1.784,1.749-1.79c0.97-0.006,1.762,0.786,1.769,1.769L226.49,50.183L226.49,50.183z M226.717,54.161c0,1.063-0.849,1.926-1.898,1.928c-1.049,0.002-1.902-0.857-1.906-1.921c-0.004-1.063,0.842-1.93,1.891-1.936c1.049-0.006,1.905,0.85,1.913,1.913V54.161z M226.94,58.29c0,1.176-0.939,2.13-2.099,2.132s-2.103-0.948-2.107-2.124s0.931-2.133,2.091-2.14s2.107,0.939,2.116,2.115L226.94,58.29z M220.97,45.194c0,1.176-0.939,2.13-2.099,2.132s-2.103-0.948-2.107-2.124s0.931-2.133,2.091-2.14s2.107,0.939,2.116,2.115 M215.75,43.138c0,1.176-0.939,2.13-2.099,2.132s-2.103-0.948-2.107-2.124s0.931-2.133,2.091-2.14s2.107,0.939,2.116,2.115 M210.76,40.788c0,1.176-0.939,2.13-2.099,2.132s-2.103-0.948-2.107-2.124s0.931-2.133,2.091-2.14s2.107,0.939,2.116,2.115 M205.03,39.539c0,1.176-0.939,2.13-2.099,2.132s-2.103-0.948-2.107-2.124s0.931-2.133,2.091-2.14s2.107,0.939,2.116,2.115 M198.27,41.155c0,1.176-0.939,2.13-2.099,2.132s-2.103-0.948-2.107-2.124s0.931-2.133,2.091-2.14s2.107,0.939,2.116,2.115 M193.5,45.928c0,1.176-0.939,2.13-2.099,2.132s-2.103-0.948-2.107-2.124s0.931-2.133,2.091-2.14s2.107,0.939,2.116,2.115 M191.52,52.612c0,1.176-0.939,2.13-2.099,2.132s-2.103-0.948-2.107-2.124s0.931-2.133,2.091-2.14s2.107,0.939,2.116,2.115 M192.4,59.59c0,1.176-0.939,2.13-2.099,2.132s-2.103-0.948-2.107-2.124s0.931-2.133,2.091-2.14s2.107,0.939,2.116,2.115 M195.63,65.906c0,1.176-0.939,2.13-2.099,2.132s-2.103-0.948-2.107-2.124s0.931-2.133,2.091-2.14s2.107,0.939,2.116,2.115" />
  <path fill="#FEDD00" stroke="#000000" stroke-width="0.326" d="M199.98,81.335c0,0,1.389,1.296,1.759,2.454c0.37,1.157,0.926,4.259,0.926,4.259s14.536-4.028,21.666-3.704c7.129,0.324,23.564,3.935,23.564,3.935s0.278-1.759,0.602-3.611s1.667-3.889,1.667-3.889s-15.694-4.907-25.601-4.444s-14.861,1.528-17.083,2.222C205.257,79.252,199.841,81.381,199.98,81.335L199.98,81.335z" />
  <path fill="#FEDD00" stroke="#000000" stroke-width="0.7311" d="M221.66,22.53h6.252c0,0-1.543,1.067-1.857,2.084c-0.27,0.875-0.189,2.311-0.189,2.311s1.705,0,2.463-0.644s2.349-1.781,2.349-1.781v7.957c0,0-1.534-1.484-2.463-1.97c-1.115-0.584-2.236-0.796-2.236-0.796s0,1.288,0.53,2.046c0.53,0.758,2.652,3.638,2.652,3.638l-8.943,0.341c0,0,2.121-2.237,2.993-3.865c0.568-1.061,0.341-2.16,0.341-2.16s-1.516,0-2.273,0.531c-0.758,0.53-2.084,2.122-2.084,2.122V24.69c0,0,0.568,1.478,1.819,2.046s2.425,0.265,2.425,0.265s0.243-1.523-0.265-2.463C222.652,23.569,221.546,22.492,221.66,22.53L221.66,22.53z M221.17,47.78c0,0-4.448-0.054-8.253-2.304c-3.805-2.251-7.642-4.608-13.29-3.269c-1.157,0.274-5.412,2.144-7.288,8.199c-1.316,4.249,0.214,9.378,1.554,11.682s3.5,4.64,3.5,4.64l2.298-1.556c0,0-5.851-4.959-5.155-11.39c0.697-6.431,3.912-7.931,3.912-7.931s3.966-3.108,9.271-0.161c5.305,2.947,10.503,4.287,10.503,4.287s2.996,0.806,3.425,0.753C222.076,50.676,221.062,47.726,221.17,47.78L221.17,47.78z M229.19,47.696c0,0,4.448-0.054,8.253-2.304c3.805-2.251,7.642-4.608,13.29-3.269c1.157,0.274,5.412,2.144,7.288,8.199c1.316,4.249-0.214,9.378-1.554,11.682s-2.251,3.66-2.251,3.66l-2.762-0.992c0,0,5.066-4.544,4.369-10.974c-0.697-6.431-3.912-7.931-3.912-7.931s-3.966-3.108-9.271-0.161c-5.305,2.947-10.503,4.287-10.503,4.287s-4.876,1.179-5.305,1.125C226.404,50.965,229.298,47.642,229.19,47.696L229.19,47.696z" />
  <path fill="#FEDD00" stroke="#000000" stroke-width="0.7497" d="M196.57,71.9l-2.363-4.645l7.09-2.771c0,0-1.711,2.282-2.119,3.912c-0.498,1.991-0.326,3.667-0.326,3.667s0.652-0.489,1.467-1.793c0.618-0.989,1.63-4.564,1.63-4.564l3.178,10.187c0.025,0.027-1.634-1.634-2.8-1.831c-1.314-0.222-2.905,0.201-2.905,0.201l-1.874,0.57L196.57,71.9L196.57,71.9z" />
  <path fill="#FEDD00" stroke="#121116" stroke-width="0.7311" stroke-linejoin="round" d="M226.89,43.295h1.857v17.317h-1.857V43.295z M220.638,43.219h2.198v17.317h-2.198V43.219z" />
  <path fill="#FEDD00" stroke="#121116" stroke-width="0.7311" stroke-linejoin="round" d="M230.76,39.202c0,3.072-2.707,5.564-6.051,5.57s-6.062-2.476-6.075-5.548s2.683-5.574,6.027-5.592c3.344-0.018,6.072,2.454,6.099,5.526V39.202z M219.32,60.467l10.426-0.086c0,0-1.223,0.729-2.274,2.596c-1.051,1.866-0.901,3.046-0.901,3.046s1.587-0.021,2.703-0.837s2.36-2.338,2.36-2.338l-0.043,9.611c0,0-0.751-1.223-1.995-1.952c-1.244-0.729-3.003-0.729-3.003-0.729h-3.561c0,0-1.628,0.096-2.36,0.579c-1.032,0.681-2.317,1.995-2.317,1.995l-0.172-9.074c0,0,0.515,1.588,2.188,2.231c1.673,0.644,2.617,0.558,2.617,0.558s0-2.038-0.858-3.089C221.272,61.926,219.32,60.51,219.32,60.467L219.32,60.467z" />
  <path fill="#FEDD00" stroke="#000000" stroke-width="0.5867" d="M225.13,68.013c0,0,1.525,3.559,3.299,5.13c1.033,0.914,4.137,1.603,5.54,1.245c3.154-0.805,5.322-3.329,5.322-3.329s-0.113,2.765,1.862,4.288s3.554,1.918,5.19,1.467s7.026-4.358,7.026-4.358l-0.141,1.173c0,0-2.317,2.715-5.106,4.083c-1.436,0.704-5.794,0.313-7.204-0.816c-1.41-1.128-2.248-3.862-2.248-3.862s-0.868,1.758-2.73,2.378s-4.42,0.594-6.796-0.101c-1.599-0.467-3.676-2.673-4.071-3.406s-0.282-1.128-0.282-1.128s-1.172,3.358-3.611,4.274c-2.303,0.865-4.929,0.872-7.16,0.231c-2.255-0.648-2.431-1.91-2.431-1.91s-0.169,3.554-5.078,4.57c-4.908,1.016-9.038-2.542-9.038-2.542l0.088-1.197c0,0,3.59,3.231,7.822,2.949c4.231-0.282,5.642-5.698,5.642-5.698s1.862,2.821,6.827,2.877s6.375-6.432,6.375-6.432L225.13,68.013L225.13,68.013z" />
  <path fill="#FEDD00" stroke="#000000" stroke-width="0.7497" d="M212.89,70.083c0,0,0.037-1.728,0.409-2.247c0.527-0.736,1.243-0.766,1.609-0.664c0.451,0.126,0.919,0.536,0.843,1.736c-0.077,1.2-0.409,1.787-0.051,2.247c0.357,0.46,0.409,0.766,1.098,0.664c0.689-0.102,0.996-0.332,0.843-0.97s-0.357,0.051-0.485-0.485s0.667-2.853,0.536-4.29c-0.128-1.404-0.664-2.528-1.736-2.809c-1.008-0.264-1.864-0.255-2.809,0.434c-0.906,0.661-2.068,2.834-2.068,2.834l-0.026,4.647l1.89-0.102L212.89,70.083L212.89,70.083z M209.37,71.334c0,0-0.723-1.57-1.27-1.898c-0.777-0.465-1.446-0.207-1.74,0.032c-0.363,0.296-0.629,0.858-0.081,1.928s1.087,1.477,0.942,2.04c-0.145,0.564-0.069,0.865-0.742,1.047c-0.673,0.181-1.046,0.092-1.16-0.554c-0.114-0.647,0.348-0.096,0.252-0.638c-0.097-0.543-1.749-2.351-2.202-3.721c-0.443-1.339-0.399-2.583,0.473-3.268c0.819-0.644,1.608-0.977,2.749-0.721c1.095,0.245,3.027,1.775,3.027,1.775l1.876,4.252l-1.774,0.659L209.37,71.334L209.37,71.334z M241.01,70.779c0,0,0.641-1.605,1.171-1.961c0.751-0.505,1.433-0.282,1.739-0.058c0.378,0.277,0.673,0.825,0.18,1.922c-0.493,1.097-1.009,1.531-0.836,2.087c0.174,0.556,0.114,0.861,0.795,1.007s1.049,0.038,1.129-0.613c0.08-0.652-0.353-0.078-0.284-0.624c0.068-0.547,1.625-2.438,2.007-3.829c0.373-1.36,0.265-2.6-0.641-3.239c-0.851-0.601-1.656-0.893-2.783-0.578c-1.081,0.302-2.931,1.929-2.931,1.929l-1.654,4.343l1.805,0.567L241.01,70.779L241.01,70.779z M237.28,70.716c0,0-0.126-1.724-0.524-2.223c-0.564-0.708-1.281-0.701-1.641-0.58c-0.444,0.15-0.89,0.583-0.752,1.778s0.5,1.764,0.167,2.242c-0.333,0.477-0.368,0.786-1.062,0.72s-1.012-0.28-0.892-0.926c0.12-0.645,0.36,0.033,0.459-0.51c0.1-0.542-0.813-2.814-0.757-4.257c0.055-1.409,0.532-2.559,1.589-2.895c0.993-0.316,1.848-0.351,2.828,0.288c0.939,0.614,2.212,2.724,2.212,2.724l0.266,4.64l-1.892-0.004L237.28,70.716L237.28,70.716z" />
  <path fill="#FEDD00" stroke="#000000" stroke-width="0.7171" d="M209.01,57.571c0,0-1.839,3.09-1.43,5.465c0.409,2.375,2.86,7.482,2.86,7.482l0.026,0.689l1.323-0.143l-0.301-0.7c0,0,0.661-6.114,0.255-8.044C211.441,60.886,209.035,57.596,209.01,57.571L209.01,57.571z M211.947,71.718c0,0,0.919,1.099,2.017,1.634c1.2,0.584,1.694,0.588,2.171,0.23c0.349-0.263,0.23-1.379-0.179-1.685s-0.872-0.151-0.945,0.153c-0.123,0.513-0.29,0.479-0.664,0.281c-0.546-0.289-1.813-1.073-1.813-1.073L211.947,71.718L211.947,71.718z M210.524,71.968c0,0-0.387,1.379-1.169,2.318c-0.855,1.025-1.303,1.231-1.885,1.1c-0.426-0.096-0.775-1.163-0.529-1.61c0.247-0.447,0.733-0.495,0.924-0.248c0.323,0.418,0.461,0.318,0.721-0.016c0.379-0.488,1.213-1.722,1.213-1.722L210.524,71.968L210.524,71.968z M241.77,57.7c0,0-2.805,2.249-3.255,4.616c-0.45,2.367,0.055,8.01,0.055,8.01l-0.218,0.655l1.289,0.33l-0.037-0.761c0,0,2.763-5.494,3.06-7.443C242.884,61.657,241.785,57.733,241.77,57.7L241.77,57.7z M239.559,71.978c0,0,0.475,1.352,1.316,2.238c0.919,0.968,1.38,1.145,1.952,0.976c0.419-0.123,0.699-1.211,0.424-1.641c-0.275-0.43-0.764-0.447-0.939-0.188c-0.295,0.438-0.44,0.347-0.72,0.03c-0.41-0.462-1.322-1.64-1.322-1.64L239.559,71.978L239.559,71.978z M238.139,71.713c0,0-0.846,1.156-1.908,1.761c-1.16,0.661-1.652,0.696-2.151,0.369c-0.366-0.24-0.318-1.361,0.07-1.693s0.861-0.207,0.953,0.092c0.156,0.504,0.32,0.459,0.681,0.237c0.526-0.324,1.74-1.187,1.74-1.187L238.139,71.713L238.139,71.713z" />
  <path fill="#FEDD00" stroke="#000000" stroke-width="0.7171" stroke-linejoin="round" d="M213.99,70.863c0.068,0.403-1.148,0.943-2.718,1.207c-1.569,0.264-2.9,0.153-2.973-0.249c-0.074-0.402,1.137-0.942,2.706-1.208s2.904-0.156,2.984,0.244L213.99,70.863z M241.79,71.906c-0.078,0.401-1.406,0.48-2.968,0.177s-2.769-0.874-2.697-1.276c0.072-0.402,1.395-0.484,2.958-0.182c1.563,0.301,2.774,0.872,2.709,1.275L241.79,71.906z" />
  <path fill="#FEDD00" stroke="#000000" stroke-width="0.326" d="M199.43,81.169c0,0,0.304,1.277,1.034,0.608s10.767-4.623,24.94-4.623s23.48,3.893,24.028,4.136c0.547,0.243,0.791,0.547,1.277,0c0.487-0.547-0.487-1.399-0.487-1.399s-9.854-4.197-25.244-4.136s-25.366,4.441-25.366,4.441S198.944,80.682,199.43,81.169L199.43,81.169z" />
  <path fill="#000000" d="M217.4,87.065c0,0,0.452-1.257,1.242-1.499c0.63-0.193,1.624,0.426,1.624,0.426s-1.198-0.11-1.573,0.103c-0.339,0.192-0.441,0.764-0.441,0.764s0.257-0.456,1.176-0.411c0.918,0.044,1.021,0.044,1.021,0.044s-1.558,0.118-1.918,0.566c-0.36,0.448,1.47,0.654,1.47,0.654s-2.8,0.015-3.167-0.154s-0.603-0.742-1.227-0.566s-1.264,0.735-1.264,0.735s0.713-1.198,1.161-1.205s0.713-0.029,1.117,0.154S217.4,87.065,217.4,87.065L217.4,87.065z M206.932,89.333c0,0,0.212-1.319,0.943-1.703c0.583-0.306,1.675,0.119,1.675,0.119s-1.197,0.113-1.526,0.392c-0.297,0.252-0.292,0.833-0.292,0.833s0.168-0.495,1.079-0.622s1.012-0.146,1.012-0.146s-1.509,0.404-1.78,0.911s1.565,0.371,1.565,0.371s-2.749,0.532-3.141,0.434c-0.392-0.098-0.729-0.618-1.311-0.329c-0.581,0.289-1.106,0.956-1.106,0.956s0.479-1.309,0.918-1.399c0.439-0.09,0.695-0.161,1.126-0.055C206.526,89.2,206.932,89.333,206.932,89.333L206.932,89.333z M226.229,86.6c0,0,0.524-1.229,1.327-1.424c0.64-0.156,1.596,0.52,1.596,0.52s-1.189-0.179-1.576,0.012c-0.349,0.173-0.484,0.737-0.484,0.737s0.283-0.44,1.198-0.343c0.914,0.097,1.017,0.103,1.017,0.103s-1.562,0.027-1.947,0.454c-0.385,0.427,1.429,0.738,1.429,0.738s-2.796-0.148-3.153-0.338c-0.357-0.19-0.559-0.776-1.192-0.636s-1.304,0.66-1.304,0.66s0.781-1.154,1.229-1.136c0.448,0.019,0.713,0.012,1.106,0.219S226.229,86.6,226.229,86.6L226.229,86.6z M235.069,87.6c0,0,0.664-1.159,1.484-1.26c0.654-0.08,1.525,0.702,1.525,0.702s-1.16-0.317-1.566-0.172c-0.367,0.131-0.567,0.676-0.567,0.676s0.333-0.404,1.229-0.201c0.897,0.203,0.998,0.221,0.998,0.221s-1.554-0.155-1.987,0.223c-0.433,0.379,1.333,0.9,1.333,0.9s-2.759-0.473-3.092-0.703c-0.332-0.23-0.464-0.836-1.11-0.771c-0.646,0.065-1.372,0.504-1.372,0.504s0.91-1.055,1.353-0.985c0.443,0.071,0.707,0.095,1.073,0.346C234.735,87.332,235.069,87.6,235.069,87.6L235.069,87.6z M243.846,89.167c0,0,0.618-0.883,1.285-0.904c0.531-0.017,1.174,0.676,1.174,0.676s-0.909-0.34-1.246-0.253c-0.304,0.078-0.505,0.502-0.505,0.502s0.297-0.3,1.003-0.071c0.706,0.229,0.786,0.251,0.786,0.251s-1.238-0.239-1.613,0.034c-0.375,0.273,1.006,0.821,1.006,0.821s-2.183-0.582-2.433-0.791s-0.312-0.706-0.835-0.701c-0.524,0.005-1.14,0.304-1.14,0.304s0.809-0.781,1.159-0.692c0.351,0.089,0.561,0.128,0.837,0.357C243.598,88.928,243.846,89.167,243.846,89.167L243.846,89.167z" />
  <path fill="#2C5234" stroke="#000000" stroke-width="0.4354" stroke-linejoin="round" d="M215.64,81.076c0.211,1.047-1.021,2.178-2.751,2.524c-1.73,0.347-3.302-0.222-3.511-1.27c-0.211-1.047,1.021-2.178,2.751-2.524C213.859,79.46,215.431,80.028,215.64,81.076L215.64,81.076z M240.09,82.344c-0.319,1.02-1.943,1.418-3.626,0.889c-1.683-0.529-2.788-1.784-2.467-2.802c0.319-1.02,1.943-1.418,3.626-0.889C239.306,80.07,240.411,81.325,240.09,82.344z" />
  <path fill="#012169" stroke="#000000" stroke-width="0.6194" stroke-linejoin="round" d="M221.63,78.715h6.337v3.195h-6.337V78.715z" />
  <path fill="#9F1209" stroke="#000000" stroke-width="0.326" d="M203.72,81.909l1.047,3.09l-1.938,1.048c0,0-0.89,0.628-1.781,0.157c-0.89-0.471-1.416-1.883-0.943-2.462C201.044,82.594,203.72,81.857,203.72,81.909L203.72,81.909z M246.17,82.312l-1.04,2.752l2.467,1.292c0,0,1.091,0.487,1.779-0.117c0.588-0.516,0.722-1.712,0.252-2.316C249.182,83.351,246.137,82.295,246.17,82.312L246.17,82.312z" />
  <path fill="none" stroke="#000000" stroke-width="0.7171" d="M197.844,63.259c0,0-0.604-1.186,0.277-2.388s2.484-1.122,2.965-0.881c0.481,0.24,0.401,0.801,1.042,0.962s1.122-0.321,1.122-0.321 M247.48,55.582c0,0-1.282,1.202-2.805,1.202s-2.404-0.641-2.885-0.962c-0.481-0.321,0.16-1.282,0.16-1.282 M220.56,57.986c0,0-2.324-0.401-3.285-0.721c-0.962-0.321-0.721-0.962-1.843-0.881c-1.122,0.08-2.244,0.881-2.003,2.003c0.24,1.122,1.042,1.282,1.843,1.042s0.561-1.603-0.481-1.522c-1.042,0.08-0.16,0.962-0.16,0.962 M204.53,56.223c0,0,0.641,0.962,2.324,0.801c1.683-0.16,2.324-1.042,2.404-1.442c0.08-0.401,0-1.122-0.321-1.442c-0.321-0.321-1.442-0.481-1.442-0.481" />
  <path fill="#C8102E" stroke="#161111" stroke-width="1.006" stroke-linecap="round" stroke-linejoin="round" d="M237.193,169.174c1.564-1.539,3.844-2.211,5.402-6.238c1.308-3.467,2.304-8.943,3.193-12.244c0.328-1.163,0.767-3.413,1.163-5.063c0.346-1.443,0.963-2.936,1.139-3.532c0.342-1.158,0.458-2.509,0.608-3.454c0.327-2.056,0.607-3.485-0.943-3.332c-1.62,0.16-2.091,0.4-2.759,1.376c-0.616,0.9-1.409,2.196-1.875,3.648c-0.637,2.1-1.096,3.994-1.663,5.459c-0.659,1.703-0.78,1.469-1.738,3.492c-1.323-1.759-1.417-3.178-1.744-5.625c-0.325-2.435-0.593-5.025-0.685-7.814c-0.174-5.246-0.479-10.743-0.543-12.78c-0.172-2.69,0.014-6.56-0.617-8.548c-0.294-0.927-0.94-2.203-2.177-2.165c-1.434,0.011-2.349,1.138-2.543,2.31c-0.14,0.926-0.209,2.702-0.265,3.902c-0.082,1.743-0.071,3.237-0.004,4.953c0.073,1.886,0.016,7.668-0.021,9.549c-0.069,3.473-0.501,3.664-1.145,3.62c-0.497-0.415-0.245-7.093-0.442-12.859c-0.075-2.187-0.132-5.078-0.171-7.087c-0.031-1.624-0.03-3.567-0.204-4.828c-0.297-2.153-0.931-3.54-2.492-3.54c-1.053,0-1.925,0.035-2.407,2.43c-0.26,1.29-0.371,4.439-0.336,6.164c0.04,1.927,0.047,3.062,0.099,5.713c0.095,4.843,0.512,13.636-0.643,13.856c-1.012-0.217-0.862-2.119-1.039-6.72c-0.07-1.812-0.222-4.914-0.319-7.004c-0.116-2.5-0.255-6.139-0.318-7.807c-0.17-1.54-0.32-3.606-2.259-3.431c-1.018-0.124-1.764,0.652-2.197,3.395c-0.242,1.528-0.077,7.617,0.015,9.643c0.184,4.032,0.125,5.017,0.148,7.556c0.022,2.463,0.26,5.819-0.658,5.877c-1.105-0.016-0.788-1.796-0.969-4.618c-0.178-2.768-0.29-6.3-0.268-5.489c0-1.425-0.176-3.52-0.305-5.271c-0.101-1.367-0.038-2.876-1.521-2.755c-1.505,0.122-2.429,0.631-2.741,3.208c-0.202,1.669-0.257,5.279-0.301,6.587c0.162,3.328-0.651,10.097-1.054,12.303c-0.11,1.563-0.803,4.586-1.064,6.765c-0.562,4.69-0.784,7.934-0.164,10.745c0.488,2.453,0.834,4.37,1.783,6.338c0.881,1.827,2.53,3.577,2.892,5.079c0.708,2.931,0.377,8.589,0.377,10.966s2.065,2.505,6.339,1.585c6.989-1.506,10.808,1.505,16.579-0.713c-0.732-6.576,0.694-10.53,0.657-12.907L237.193,169.174z" />
  <path fill="none" stroke="#161111" stroke-width="1.0066" d="M227.648,162.813c0.159-8.125,7.528-16.984,10.359-18.727 M217.15,149.47c6.715-2.369,13.653-4.653,20.706-5.751 M212.946,170.574c0.385,0.695,2.413,0.455,3.066,0.53c0.949-0.014,1.562-0.015,2.511,0.003c1.118-0.076,5.638-1.003,7.345-0.445 M224.601,170.468c0.155,0.127,1.535,0.119,2.551,0.433c0.896,0.277,1.523,0.334,1.688,0.399c0.626,0.068,0.213,0.4,3.715,0.118c2.172,0.139,4.096-1.737,4.638-2.244" />
</svg>
