<svg xmlns="http://www.w3.org/2000/svg" width="450px" height="300px" viewBox="0 0 450 300">
  <path fill="#00B140" d="M0,0h450v300H0V0z" />
  <path fill="#FFFFFF" d="M0,0h450v150H0V0z" />
  <path fill="#C8102E" stroke="#000000" stroke-width="0.6505" d="M138.748,79.022c-14.614,2.215-51.649,5.694-66.099,3.322l2.824,6.802c23.915-2.215,46.833,5.536,68.092-2.531L138.748,79.022z" />
  <path fill="#C8102E" stroke="#000000" stroke-width="0.6505" d="M82.117,95.631c-9.135-2.688-24.248-18.348-26.738-27.84c7.141,4.903,24.247,11.231,30.392,10.598c-1.993,1.424-6.976,5.219-10.796,5.694C76.802,87.564,80.289,91.992,82.117,95.631z" />
  <path fill="#C8102E" stroke="#000000" stroke-width="0.6505" d="M111.511,90.885L111.511,90.885c2.658,3.638,16.608,2.136,23.666-2.293l-1.91-3.085l-1.411,2.61l-2.242-2.451l-0.581,3.875l-3.903-2.847l-0.665,3.401l-2.491-3.006l-0.913,3.718l-3.654-2.848l-1.411,3.876c-1.102-1.308-1.719-2.956-1.745-4.666C112.84,87.722,111.678,89.541,111.511,90.885z M112.674,79.101c0,0.949,1.162,3.718,3.322,4.507c0.083-1.185-1.413-3.954-0.499-5.14l1.91,1.74l0.582-3.322l2.574,1.819l0.248-3.875l2.657,1.74V72.3C119.151,72.694,113.836,77.678,112.674,79.101z" />
  <path fill="#C8102E" stroke="#000000" stroke-width="0.6505" d="M382.174,122.205c-1.121-2.531-4.609-5.615-7.681-7.513c1.199-2.808,3.07-7.253,4.938-11.854c-4.65,0.95-14.321,1.652-19.968,1.019c10.629-10.123,32.883-31.004,40.191-40.495c-2.657,12.971-0.664,42.076,4.65,52.2c-5.647-2.214-12.174-6.8-15.827-11.862c-2.155,7.267-4.797,15.185-6.261,18.427" />
  <path fill="#C8102E" stroke="#000000" stroke-width="0.6505" d="M174.787,66.684c0.664,3.322,0.829,5.853,3.321,6.802c2.491,0.95,7.971,2.847,11.459,8.542c-4.152-1.107-9.965-2.689-10.463,1.107c-0.474,3.613,1.19,3.507,3.986,4.112c3.653,0.791,7.141,5.062,7.308,10.757c-2.991-1.74-7.142-3.163-9.799-3.163s-3.405,0.474-4.068,3.637c-1.096,5.218,0.914,5.537,3.405,5.853c2.492,0.316,7.806,2.689,8.138,11.389c-2.824-2.373-8.487-3.695-11.958-4.27c-1.91-0.316-2.242,0.632-2.49,3.954c-0.25,3.322,0.165,4.429,3.486,5.378c3.322,0.95,7.142,3.322,8.138,8.384c-3.156-1.424-8.138-0.949-9.633-0.316c-1.494,0.633-2.304,4.168,0.852,10.969c6.792-2.191,13.801-3.641,20.904-4.326c15.697-1.574,11.958-12.021,11.958-28.472s34.543-34.8,87.024-63.905c-12.622,30.687,4.651,27.84,14.282,24.36c9.633-3.481,32.219-12.338,49.824-19.615c-24.248,15.501-36.538,31.953-15.279,39.229c-27.237,8.225-39.859,30.687-24.912,44.923c-10.193-3.439-24.318,3.049-30.234,12.084c10.629-0.95,31.23,1.52,43.852,5c12.019,3.313,31.86-0.567,33.73-10.776c0.099-0.515,0.149-1.038,0.151-1.562c0-3.559-0.916-6.246-2.32-8.204c-3.087-4.309-8.496-5.241-11.464-5.241c-4.318,0-8.802,1.74-8.802,4.745c0,3.006,2.657,4.271,7.972,4.271c2.906,0,7.386,0.481,12.295-3.775c1.404,1.958,2.32,4.645,2.32,8.204c-0.004,0.517-0.057,1.033-0.158,1.54c-4.647,2.508-9.842,3.827-15.123,3.838c-10.629,0-20.592-4.113-20.592-15.185s11.957-17.4,21.59-17.4c13.286,0,31.886,5.062,31.886,25.309c0,25.626-35.276,37.611-56.203,37.611c3.509,2.804,7.46,5.415,11.695,6.996c14.821,5.537,27.901,12.338,32.551,22.779c-5.646,0-14.947-4.429-19.266-8.859c11.958,13.921-2.545,39.527-0.996,48.088c1.66,9.174,12.954,3.479,12.954,10.598c0,6.327-6.644,5.219-9.134,2.372c-2.492-2.847-10.478-5.239-14.615-2.372c-3.653,2.531-9.299,3.796-11.791,1.265c-2.491-2.531-11.625-1.582-15.444,1.898c-3.82,3.479-9.155,3.751-10.795,1.107c-1.756-2.831-1.307-6.273,5.797-7.465c-3.156-3.165-12.773,2.244-14.433-3.766c-1.194-4.319,1.328-6.328,9.631-5.695c-0.831-2.056-6.974-3.005-6.145-7.276c0.831-4.271,5.631-6.914,11.294-0.632c15.112,16.767,22.088,7.435,27.236,0.159c-1.66-3.797,0.167-6.328,3.322-8.7c-1.661-2.69-0.665-6.485,0.497-9.016c-2.491-1.424-3.985-7.751-1.328-9.966c-2.16,0-5.481-2.373-5.481-6.485c-2.963,1.801-6.761,1.414-9.299-0.949c-3.156,1.74-11.459,2.056-15.114-1.741c-4.983,1.898-13.785,1.423-16.108-2.215c-4.385,1.109-12.457-2.531-14.117-6.485c-2.562-0.186-5.05-0.942-7.281-2.213c-6.642,4.746-15.637,13.919-6.67,20.879c8.969,6.96,27.569,1.265,27.901,18.665c-4.319-3.479-12.29-2.531-14.947-6.01c-8.968,12.654-21.921,24.201-41.02,28.947c2.823,1.74,7.972,1.899,9.964,1.74c4.141-0.329,7.639,3.006,4.485,6.96c-3.156,3.956-9.633,0.633-13.452-2.688c-5.497-4.781-9.134-2.057-10.629-0.95c-1.494,1.107-3.488,1.741-6.145-0.791c-2.657-2.531-5.149-0.79-6.477,0.791c-2.159,2.571-7.141-3.322-15.113,3.638c-3.833,3.347-12.954-0.949-9.301-5.853c-3.82,0.95-10.575-4.335-4.982-9.49c5.149-4.745,14.947,6.169,22.919,3.005c-1.791-2.171-5.525-6.194-13.286-7.118c-3.986-0.475-4.692-4.891-2.824-8.068c2.325-3.954,9.467-1.265,14.283,4.904c3.794,4.86,8.802,4.903,13.95,3.954c3.617-2.297,9.218-2.373,11.709-1.582c0-2.372,3.902-4.429,6.891-4.429c-0.165-3.163,0.831-6.01,5.648-6.801c0.401-0.066,0.816-0.13,1.245-0.169c-3.355,0.153-6.607-1.18-8.889-3.645c-6.653,1.623-14.023-1.505-15.106-7.488c-10.516-0.733-11.561-11.344-8.97-14.798c0.211-0.285,0.448-0.551,0.708-0.792c-3.13,2.353-7.129,3.442-12.075,1.728c-4.649,6.32-12.741,9.079-20.282,6.914c-2.091,3.16-5.276,5.436-8.943,6.391c0.31,3.834-0.517,8.178-5.577,13.282c1.328-6.96-7.972-9.175-5.978-20.563c-0.665,8.225-25.742,21.829-29.729,39.861c3.654,1.582,7.641,2.688,10.131,2.214c6.265-1.193,8.304,5.062,6.477,7.593s-6.976,3.796-9.134,1.581c-2.159-2.213-6.644,0.791-8.802-3.321c-2.158-4.113-8.138-2.689-10.629,0c-2.491,2.688-10.795-3.481-16.774,2.688c-2.237,2.308-9.798,4.746-14.283,3.481c-4.484-1.266-7.141-5.695-5.646-8.067c-2.989-2.69-3.031-5.983-0.165-8.859c-1.081-4.034,2.441-12.005,8.387-8.857c3.737,1.977,16.981,11.31,28.523,0.632c10.008-9.373,4.178-16.884,10.587-17.875c-0.78-3.806,1.661-8.541,4.319-9.491c-0.773-1.578-0.913-3.392-0.392-5.07c-1.509-0.117-2.995-0.442-4.415-0.967c-4.977,1.41-10.117,2.163-15.289,2.242c0,3.796-4.649,12.97-8.636,17.4c-1.328-34.8-34.543-38.281-39.028-65.961c-0.165,4.112-4.65,8.225-5.148,11.705c-0.499,3.481-2.657,6.169-6.644,4.588c-3.985-1.582-4.982-8.226-0.996-9.175c3.986-0.95,3.239-7.277,5.73-8.068s2.906-3.322,1.91-6.485c-0.997-3.163,0.498-6.96,1.495-9.332c0.996-2.373-0.499-6.328-3.986-7.751c-3.487-1.424-4.649-4.903-3.321-7.909c-3.653-2.531-2.612-8.001,2.325-9.016c6.145-1.266,5.978,8.383,9.466,9.491c-0.497-1.898,0.167-5.537,1.661-7.91c-1.993-4.113,0.499-7.434,4.484-7.434c6.976,0,4.65,11.072,2.989,14.553c2.325-3.164,5.98-6.803,8.802-4.271c2.824,2.529,2.363,7.816-0.664,10.122c-2.492,1.898-7.639,4.904-6.145,8.226c2.989,5.062,4.816,11.072,5.149,18.824c4.152,3.006,6.809,6.485,6.809,9.332c2.739,0.159,7.987,2.324,8.719,5.379c3.321-0.317,8.281,0.317,9.715,3.243c1.081-0.554,3.962-0.739,5.706-0.582c0.006-2.471,0.865-4.864,2.432-6.774c-5.646-6.012-5.481-15.501,0.332-19.298c-1.655-3.941-0.996-11.231,4.484-15.028c-0.118-3.956,0.997-9.174,6.477-12.496c-0.831-4.272,1.993-10.123,5.481-10.44c-0.831-4.113-0.203-9.19,4.612-11.563c-1.134-1.19-1.724-2.797-1.629-4.438c-8.448,1.74-11.75,6.664-14.443,11.256c-0.332-1.899-0.831-4.429-1.993-6.328c0,4.903-3.82,6.644-3.985,13.445c-2.824-2.847-3.82-7.435-3.654-10.598c0.133-2.532-4.317-4.903-2.989-9.332c6.644,5.853,20.096-6.96,31.721-2.847c-11.459-22.936-19.763-11.865-25.576-7.909c-5.813,3.955-9.965-1.898-9.299-5.695c-7.806-1.74-17.107-1.424-27.237,0.475c7.473-9.334,25.077-13.446,38.031-12.497c5.646-9.965,12.456-8.541,19.099-7.593c4.343,0.621,9.415,0.635,14.449,0.393c3.156-8.384,21.589-9.251,23.417-15.895c1.661,1.265,0.652,6.025-1.009,10.137c4.801-1.369,8.925-2.831,10.308-5.708c0.831,2.688-0.497,9.965-2.325,12.179c1.894-0.505,3.854-0.718,5.813-0.633c-5.813,3.163-13.119,7.909-14.282,8.7C172.462,63.52,171.797,65.101,174.787,66.684c-3.322,0.633-12.622,3.797-16.442,1.266" />
  <path fill="#C8102E" stroke="#000000" stroke-width="0.6505" d="M48.569,109.472c4.4-3.006,10.418-0.784,11.708,3.638c0.831,2.847-4.214,4.961-4.65,2.294C55.046,111.845,52.638,109.63,48.569,109.472z M65.827,100.276c5.122-1.678,10.217,2.093,10.122,6.682c-0.061,2.954-5.531,3.601-5.145,0.928C71.319,104.317,69.678,101.538,65.827,100.276z M84.874,108.373c4.885,2.226,5.739,8.318,2.291,11.526c-2.22,2.065-6.594-1.128-4.35-2.778C85.81,114.923,86.688,111.845,84.874,108.373z M45.975,172.308c4.262,3.181,10.373,1.206,11.86-3.161c0.957-2.811-3.99-5.127-4.544-2.48C52.552,170.199,50.047,172.314,45.975,172.308z M75.971,236.275c1.785-4.87,8.05-6.35,11.776-3.44c2.398,1.875-0.452,6.368-2.419,4.424C82.701,234.667,79.394,234.175,75.971,236.275z M70.367,249.372c0.297-5.15,7.543-8.386,11.971-6.574c2.851,1.167,1.422,6.237-1.035,4.889C78.026,245.891,73.045,246.45,70.367,249.372z M78.242,261.525c-1.858-4.845,2.002-9.77,6.822-9.766c3.102,0.003,3.886,5.198,1.072,4.882C82.381,256.218,79.495,257.834,78.242,261.525z M156.352,257.199c0.642-5.121-4.304-9.071-8.993-8.014c-3.019,0.681-2.53,5.909,0.133,4.986C151.046,252.94,154.244,253.881,156.352,257.199z M186.315,258.835c-1.112-5.048,3.449-9.397,8.218-8.737c3.071,0.424,3.067,5.673,0.328,4.978C191.208,254.146,188.11,255.352,186.315,258.835z M261.031,257.601c0.415-5.144-4.7-8.892-9.339-7.648c-2.987,0.801-2.268,6.005,0.353,4.977C255.543,253.558,258.779,254.37,261.031,257.601z M177.444,248.124c-0.794-5.101,4.52-9.492,9.239-8.563c3.039,0.599,2.217,6.145-0.474,5.296C182.621,243.722,179.452,244.75,177.444,248.124z M184.4,233.447c0.297-5.15,6.43-8.433,10.858-6.62c2.85,1.167,0.874,6.444-1.582,5.097C190.4,230.125,187.079,230.526,184.4,233.447z M298.749,261.523c-1.112-5.048,3.449-9.397,8.217-8.737c3.071,0.425,3.067,5.674,0.328,4.979C303.641,256.836,300.543,258.041,298.749,261.523z M372.96,259.108c1.149-5.04-3.38-9.42-8.154-8.792c-3.073,0.404-3.108,5.653-0.365,4.975C368.102,254.387,371.193,255.612,372.96,259.108z M289.19,249.824c-0.782-5.103,4.053-9.175,8.77-8.235c3.037,0.605,2.691,5.844,0.004,4.987C294.377,245.434,291.206,246.455,289.19,249.824z M291.954,235.896c0.1-5.157,5.567-8.425,10.06-6.766c2.893,1.068,1.657,6.183-0.849,4.922C297.822,232.368,294.519,232.884,291.954,235.896z" />
  <path fill="#FFFFFF" d="M127.428,62.326c0,0-0.475,1.9,1.135,4.118c1.192,1.641,3.768,2.877,7.196,1.062s1.926-3.714,2.076-3.67S127.428,62.326,127.428,62.326z" />
  <path fill="none" stroke="#000000" stroke-width="0.6505" d="M310.636,67.475c-12.622,4.113-61.448,22.462-70.416,25.309c-8.967,2.847-13.618,3.481-18.932,15.185 M287.054,53.871c-31.886,19.615-57.794,36.698-65.101,52.833c-7.307,16.134-6.809,25.941-24.58,28.788 M146.222,165.864c7.972-8.858,24.579-19.614,40.522-20.247c-3.108,4.812-5.776,9.894-7.972,15.185 M178.44,166.812c3.986-5.062,13.95-15.818,20.261-20.247c-2.989,8.543-7.971,28.789-5.314,42.709c1.66-13.287,8.967-33.85,16.607-45.556c5.647,12.971,13.286,31.32,13.286,43.026c1.661-13.92-1.66-37.964-6.642-48.404c13.618,6.643,30.558,25.625,37.866,37.331c-4.982-16.451-21.922-36.382-30.891-42.71c22.255,3.797,54.474,17.401,66.431,27.525c-19.596-17.4-43.512-31.004-60.451-37.332c26.572-2.214,76.395,3.481,90.677,8.859c-20.926-11.39-64.106-17.4-90.013-15.818c27.237-11.073,75.731-23.728,114.925-29.106c-29.894,1.581-68.424,9.175-107.949,17.716c17.604-11.39,72.077-32.901,85.031-36.698 M154.194,59.882c2.372-7.466,12.05-9.448,19.916-11.692 M167.313,65.419c-6.642-0.475-7.823-2.723-4.152-5.221c2.325-1.582,7.141-4.113,10.464-4.429c-0.831-0.157-3.156-0.791-4.319-0.949c3.488-1.424,9.301-3.481,11.293-5.379 M159.59,53.397c-2.541,0.219-5.209,0.422-7.888,0.551 M142.402,90.569c-1.62,0.081-3.233,0.284-4.822,0.609 M115.391,171.214c-0.064,4.55,1.573,8.96,4.591,12.365c2.657,2.847,18.934,3.797,19.597-1.582 M117.822,164.44c5.646,6.01,23.915,2.372,23.915-2.056 M118.155,145.142c1.993,4.745,23.251,9.016,23.583,3.479 M122.638,130.114c0.167,5.537,19.526,9.133,20.096,5.062 M129.115,117.619c0.831,4.271,13.619,8.384,15.446,6.485 M134.596,107.179c0.605,3,9.798,5.694,12.954,4.587 M139.209,95.616c1.884,2.179,5.54,4.206,11.829,5.235 M107.36,73.169c0.165-3.322,3.486-3.796,2.989-7.118 M142.236,86.773c1.163,1.74,4.152,5.378,4.484,8.067c1.661-1.266,2.989-3.956,3.488-5.22c1.586,1.319,2.743,3.081,3.321,5.062c0.665-1.898,1.828-5.22,1.993-7.276c2.379,0.527,4.598,1.612,6.477,3.163c0.332-2.056-0.664-4.745-2.325-5.853c1.836,0.076,3.662-0.304,5.314-1.107c-1.163-1.581-2.989-3.638-4.816-4.587c1.661-0.475,3.985-2.372,4.982-3.163c-1.495-0.632-4.152-2.057-5.813-2.847c0.996-0.95,1.827-2.847,2.325-4.272 M114.667,61.069c-1.079,0-1.578,2.372,0.415,3.875c1.433,1.081,1.411,5.537-1.162,6.644 M153.528,94.682c-7.306,16.134-14.033,46.742-11.708,68.888 M149.709,193.862c0,3.322,5.481,3.955,5.314-3.954 M154.526,193.862c0.664,2.847,6.31,3.48,5.148-4.904 M152.2,196.077c0.332,6.169,4.484,5.853,4.816,0 M159.84,191.805c1.66,3.797,6.31,1.898,4.982-6.485 M164.988,188.958c1.828,3.165,6.145,0.634,6.644-4.903 M143.398,171.4c-2.85,2.972-6.119,9.645-2.16,15.976c2.326,3.716,8.72,5.774,9.384,3.559 M141.239,187.377c-2.574,0.396-6.36,5.651-4.484,10.677c1.329,3.559,8.969,5.695,10.131,3.085 M219.295,191.805c8.303,0.95,19.265-4.428,19.929-15.185 M238.227,181.681c4.651,2.847,14.283,3.797,18.268-3.48 M242.546,183.896c-4.319,9.491-8.231,19.575,0.664,26.891c7.307,6.012,12.735-2.95,21.591,6.012c2.657,2.688-0.499,7.75-27.237,22.462 M109.684,171.796c1.745,3.559,1.578,10.519-1.743,9.569 M83.445,250.491c5.646-8.225,12.313-1.579,17.106-3.006 M127.539,62.491c-0.997,2.294,1.42,5.431,4.152,5.775c2.906,0.316,7.058-1.503,6.145-4.429 M124.632,62.729c1.494-1.978,18.933,4.271,25.908-0.159 M68.165,121.732c-0.664,1.422-0.415,5.615,2.16,7.909 M191.394,249.225c1.329-1.581,6.247-3.178,9.882-2.293c3.571,0.869,9.965-0.316,14.116-1.899 M153.528,94.682c-1.66,15.502,2.077,39.309,11.626,49.907 M148.514,108.445c0.273,13.794,3.82,30.171,10.83,39.186 M144.675,123.478c1.38,10.439,4.488,20.935,9.398,27.753 M142.268,139.321c1.659,6.195,3.994,11.88,7.027,16.156 M141.413,154.313c0.933,1.994,2.04,3.902,3.308,5.702 M153.196,104.331c-0.497,4.904-3.653,8.7-6.477,10.914 M153.528,111.133c-0.497,4.903-3.985,9.332-8.552,11.468 M154.526,117.935c-0.499,4.903-5.481,10.914-11.127,13.603 M155.854,124.736c-0.497,4.904-6.974,12.338-13.568,14.724 M157.93,131.538c-1.91,6.644-9.549,14.395-16.275,16.135 M160.919,138.34c-0.499,4.903-10.712,14.869-19.514,17.716 M99.969,168.553c1.079,4.507-2.492,8.621-4.318,7.513 M118.985,184.213c-17.272-3.481-30.114-9.279-37.201-22.779c-1.828-3.479,2.989-4.429,2.657-7.592 M79.293,135.018c-2.989-5.062-3.654-10.598-1.993-14.078 M91.251,163.174c0,2.848-3.571,6.485-4.817,5.141 M119.981,183.58c-1.991,4.605,1.859,13.4,10.307,16.424 M136.755,198.053c-0.997,0.71-1.721,1.74-2.052,2.918 M143.565,207.465c-1.496,2.373-7.308,0.634-8.47-1.424 M120.189,233.407c-7.042,6.594-14.215,6.966-22.794,7.909c-8.637,0.95-11.044-2.768-14.116,0.316 M176.447,183.896c0.997,4.43,0.664,8.859-3.321,15.503c-2.2,3.666-0.116,7.62,0.263,12.343 M214.689,196.708c3.807-2.862,6.319-7.583,7.595-11.23 M202.614,198.436c4.331-5.644,5.007-13.285,1.734-19.602 M182.332,205.351c2.553-3.755,4.08-9.103,4.08-16.077 M130.776,215.533c0.664,3.242,5.813,4.666,6.644,3.085 M171.963,177.411c0,3.163-3.321,5.537-5.813,3.638c0.332,4.587-3.154,6.012-5.646,3.797c0.499,6.485-5.148,7.118-8.802,2.056c-4.152,19.456-18.102,34.009-19.099,43.5c-0.332,2.215-9.217,1.582-6.892-4.903 M232.249,195.286c-4.982-0.593-13.745-2.051-17.56,1.422 M234.242,210.155c-4.605,1.74-8.325,2.351-11.291,2.144 M246.946,223.431c4.589-0.171,9.323-3.078,11.211-10.271 M238.057,219.787c3.851-0.915,7.12-3.445,8.973-6.943 M260.647,225.024c-2.891-0.871-8.995-2.019-13.701-1.592 M244.207,235.622c1.827-0.95-1.163-5.221-4.153-5.221 M209.331,242.74c4.229-1.727,8.288-3.845,12.123-6.327 M233.163,234.831c2.255,0.717,5.563,3.479,4.4,4.429 M254.504,175.671c2.657,4.429,7.638,7.276,14.282,4.429c0.467,1.334,2.047,2.703,4.013,3.797 M291.206,174.564c3.322,2.531-2.491,11.863-11.126,11.547 M337.707,231.668c1.152,2.632,5.481,2.372,7.142,0c1.897-2.711,5.314-11.073,3.321-27.841c-1.993-16.766-18.932-18.981-38.53-22.778c-19.598-3.796-24.58-9.807-28.565-20.879 M341.029,222.968c1.66,2.688,6.31,2.056,6.974-0.634 M341.526,213.951c2.492,1.423,7.307,0.949,7.141-2.215 M340.199,203.986c2.158,0,7.971,0.316,7.639-2.215 M334.717,197.5c1.827-1.266,6.976-6.644,4.152-8.226 M325.418,196.552c3.154-1.741,6.642-10.757,2.823-11.548 M310.304,194.811c4.982-1.899,9.633-11.706,6.311-12.338 M294.196,192.596c8.137-2.056,10.629-12.496,7.473-13.445 M305.322,239.418c8.475,0.646,13.121,4.904,16.442,6.644 M303.33,153.525c7.722-0.712,15.313,10.537,25.838,18.945 M388.477,103.699c1.453-4.901,2.67-9.505,3.205-12.181 M310.123,248.879c1.982-0.313,3.987-0.462,5.994-0.444 M385.371,87.722c-1.122,3.028-3.535,9.191-5.939,15.116 M176.468,139.819c-14.648,4.81-29.816,14.045-39.547,31.107c5.314,1.265,15.611,0,20.261-1.582c0.332,4.113,0.332,9.491,0.332,12.972c4.65-3.481,10.297-8.543,14.615-9.807c-0.333,4.112-0.333,11.388-0.333,14.236c6.312-6.328,18.268-6.96,21.591,2.53c2.657-13.919,24.578-14.552,29.893-2.53c5.98-11.073,21.259-15.187,31.223-11.073c4.317-11.706,23.249-18.032,35.539-15.185c-4.074-5.363-3.346-11.293-0.008-16.389" />
  <path fill="#000000" stroke="#000000" stroke-width="0.9515" stroke-linejoin="round" d="M129.504,63.032l6.514,1.147C136.018,64.18,131.433,70.031,129.504,63.032z" />
</svg>
