<svg xmlns="http://www.w3.org/2000/svg" width="450px" height="300px" viewBox="0 0 450 300">
  <path fill="#CE1126" d="M0,0h450v300H0V0z" />
  <path fill="#007A5E" d="M42,42h366v216H42V42z" />
  <path fill="#FCD116" d="M42,42h366L42,258h366L42,42z" />
  <path fill="#CE1126" d="M225,114c19.882,0,36,16.118,36,36s-16.118,36-36,36s-36-16.118-36-36S205.118,114,225,114z M67.749,150.41c4.504,8.39,13.265,17.52,20.916,20.73c0.123-8.52-2.9-19.44-7.034-28.14L67.749,150.41z" />
  <path fill="#FCD116" d="M60.112,121.63c6.529,13.61-16.933,46.08,22.156,53.69c-4.822-6.58-7.931-17.44-6.755-26.16c8.201,3.12,16.83,12.25,20.317,19.23C106.06,131.24,69.59,133.5,60.112,121.63L60.112,121.63z M143.546,272.974l-11.462,8.327l4.378,13.474L125,286.448l-11.462,8.327l4.378-13.474l-11.462-8.327h14.168L125,259.5l4.378,13.474H143.546z M243.545,272.974l-11.462,8.327l4.378,13.474L225,286.448l-11.462,8.327l4.378-13.474l-11.462-8.327h14.168L225,259.5l4.378,13.474H243.545z M336.462,294.776L325,286.448l-11.462,8.327l4.378-13.474l-11.462-8.327h14.168L325,259.5l4.378,13.474h14.168l-11.462,8.327L336.462,294.776z M306.454,14.974h14.167L325,1.5l4.378,13.474h14.167l-11.462,8.327l4.378,13.474L325,28.448l-11.462,8.327l4.378-13.474L306.454,14.974z M206.454,14.974h14.168L225,1.5l4.378,13.474h14.168l-11.462,8.327l4.378,13.474L225,28.448l-11.462,8.327l4.378-13.474L206.454,14.974z M106.454,14.974h14.168L125,1.5l4.378,13.474h14.168l-11.462,8.327l4.378,13.474L125,28.448l-11.462,8.327l4.378-13.474L106.454,14.974z M256.385,139.802l-19.397,14.093l7.409,22.802L225,162.605l-19.397,14.093l7.409-22.802l-19.397-14.093h23.976L225,117l7.409,22.802H256.385z" />
</svg>
