<svg xmlns="http://www.w3.org/2000/svg" width="450px" height="300px" viewBox="0 0 450 300">
  <path fill="#00993E" d="M0,0h450v300H0V0z" />
  <path fill="#FFFFFF" d="M450,42.857v42.857H0V42.857H450z M0,171.428h450v-42.857H0V171.428z M0,257.143h450v-42.857H0V257.143z" />
  <path fill="#C8312A" d="M0,0h228v128.571H0V0z" />
  <path fill="#FFFFFF" d="M143.96,71.859c-6.648,7.968-4.989,16.223-8.301,20.268c-3.08,6.636-10.266,11.031-12.079,14.876c-0.738,1.565-1.083,6.514-1.083,6.514l-19.056-0.078l-2.009-7.992c0,0-4.6-4.206-5.699-17.117c-1.346-15.686,0.619-16.509,0.619-16.509c0.382-6.961,1.197-12.444,1.715-19.162c0.359-4.645,4.164-4.885,4.33-1.636c0.176,5.402,0.957,18.195,0.957,18.195l0.618-23.36c0.067-4.968,3.693-7.686,5.073-3.1l0.928,24.008l0.219-24.767c0.221-5.579,5.314-6.577,5.769,0.155l1.071,23.786l0.541-20.595c0.374-5.195,4.854-4.887,5.073,0.231c0.308,7.866,1.749,18.172,2.082,21.152c3.361,10.054,4.481,15.226,4.481,15.226c0.291,2.991,3.374-0.453,4.041-4.572c0.991-2.138,2.912-5.198,6.843-7.805C140.093,69.577,147.261,67.902,143.96,71.859z M110.419,21.159l-2.213,6.811L114,23.761l5.794,4.209l-2.213-6.811l5.793-4.209h-7.161L114,10.138l-2.213,6.812h-7.162L110.419,21.159z M149.681,24.063l-2.213-6.811l-2.213,6.811h-7.161l5.793,4.209l-2.213,6.812l5.794-4.21l5.794,4.21l-2.214-6.812l5.794-4.209H149.681z M179.682,49.46l5.794-4.209h-7.162l-2.213-6.811l-2.213,6.811h-7.161l5.793,4.209l-2.213,6.812l5.794-4.21l5.794,4.21L179.682,49.46z M196.271,79.386l5.793-4.209h-7.161l-2.213-6.811l-2.213,6.811h-7.162l5.794,4.21l-2.213,6.811l5.794-4.21l5.794,4.21L196.271,79.386z M82.745,24.063l-2.213-6.811l-2.213,6.811h-7.162l5.794,4.21l-2.213,6.811l5.794-4.21l5.794,4.21l-2.213-6.811l5.794-4.21H82.745z M54.111,45.251l-2.213-6.811l-2.213,6.811h-7.161l5.793,4.209l-2.213,6.812l5.794-4.21l5.794,4.21l-2.214-6.812l5.794-4.209H54.111z M37.523,75.177l-2.213-6.811l-2.213,6.811h-7.162l5.794,4.21l-2.213,6.811l5.794-4.21l5.794,4.21l-2.213-6.811l5.794-4.21H37.523z" />
</svg>
