<svg xmlns="http://www.w3.org/2000/svg" width="450px" height="300px" viewBox="0 0 450 300">
  <path fill="#FFFFFF" d="M0,0h450v300H0V0z" />
  <path fill="#FF0000" d="M450,180H255v120h-60V180H0v-60h195V0h60v120h195V180z M105.189,52.311c0.38-7.71,1.333-15.398,2.859-23.001c-7.002,0.92-14.094,0.92-21.096,0c1.526,7.603,2.478,15.291,2.859,23.001c-7.71-0.38-15.398-1.333-23.001-2.859c0.92,7.002,0.92,14.094,0,21.096c7.603-1.526,15.291-2.478,23.001-2.859c-0.38,7.71-1.333,15.398-2.859,23.001c7.002-0.92,14.094-0.92,21.096,0c-1.526-7.603-2.478-15.291-2.859-23.001c7.71,0.38,15.398,1.333,23.001,2.859c-0.92-7.002-0.92-14.094,0-21.096C120.587,50.978,112.899,51.93,105.189,52.311z M383.19,49.452c-7.603,1.526-15.291,2.478-23.001,2.859c0.38-7.71,1.333-15.398,2.859-23.001c-7.002,0.92-14.094,0.92-21.096,0c1.526,7.603,2.478,15.291,2.859,23.001c-7.71-0.38-15.398-1.333-23.001-2.859c0.92,7.002,0.92,14.094,0,21.096c7.603-1.526,15.291-2.478,23.001-2.859c-0.38,7.71-1.333,15.398-2.859,23.001c7.002-0.92,14.094-0.92,21.096,0c-1.526-7.603-2.478-15.291-2.859-23.001c7.71,0.38,15.398,1.333,23.001,2.859C382.27,63.546,382.27,56.454,383.19,49.452z M105.189,232.311c0.38-7.71,1.333-15.398,2.859-23.001c-7.002,0.92-14.094,0.92-21.096,0c1.526,7.603,2.478,15.291,2.859,23.001c-7.71-0.38-15.398-1.333-23.001-2.859c0.92,7.002,0.92,14.094,0,21.096c7.603-1.526,15.291-2.478,23.001-2.859c-0.38,7.71-1.333,15.398-2.859,23.001c7.002-0.92,14.094-0.92,21.096,0c-1.526-7.603-2.478-15.291-2.859-23.001c7.71,0.38,15.398,1.333,23.001,2.859c-0.92-7.002-0.92-14.094,0-21.096C120.587,230.978,112.899,231.93,105.189,232.311z M383.19,229.452c-7.603,1.526-15.291,2.478-23.001,2.859c0.38-7.71,1.333-15.398,2.859-23.001c-7.002,0.92-14.094,0.92-21.096,0c1.526,7.603,2.478,15.291,2.859,23.001c-7.71-0.38-15.398-1.333-23.001-2.859c0.92,7.002,0.92,14.094,0,21.096c7.603-1.526,15.291-2.478,23.001-2.859c-0.38,7.71-1.333,15.398-2.859,23.001c7.002-0.92,14.094-0.92,21.096,0c-1.526-7.603-2.478-15.291-2.859-23.001c7.71,0.38,15.398,1.333,23.001,2.859C382.27,243.546,382.27,236.454,383.19,229.452z" />
</svg>
