<svg xmlns="http://www.w3.org/2000/svg" width="450px" height="300px" viewBox="0 0 450 300">
  <path fill="#DA000C" d="M0,201l224.5-35L450,201v99H0V201z" />
  <path fill="#FFFFFF" d="M0,0h450v201H0V0z" />
  <path fill="#000000" d="M294.6,136.3v51.6H155.4v-51.6L294.6,136.3L294.6,136.3z M164.7,110.1h21.7V70.3h-21.7V110.1z M207.2,107.4h34.4V44.9h-34.4L207.2,107.4L207.2,107.4z M285.3,110.1h-21.7V70.3h21.7V110.1z" />
  <path fill="#DA000C" stroke="#000000" stroke-width="1.172" d="M194.3,180.3h-45.8l-10.1,6.7v7.1h55.9 M255.7,180.3h45.8l10.1,6.7v7.1h-55.9" />
  <path fill="#DA000C" stroke="#000000" stroke-width="1.172" d="M257.2,183.8h-64.4l-11.4,5.5v8.2h87.2v-8.2L257.2,183.8z" />
  <path fill="#DA000C" stroke="#000000" stroke-width="1.172" d="M311.6,187h-47.3 M138.4,187h47.3 M268.6,189.3h-87.2" />
  <path fill="#F8D80E" stroke="#000000" stroke-width="0.9" stroke-linecap="round" d="M245.3,175.8c-3.1,1-5.9,2.8-8.8,4.4c-3.6,2.1-7.2,4.5-10.4,7.1c-1.2,0.8-2.3,1.6-3.2,2.7c-1.2,1-2.4,2.4-2.2,4.1c0.1,0.8,1-0.9,1.7-1c1.1-0.6,2.4-0.8,3.7-0.6c1.5-1.6,3.4-2.6,5.1-4c3.5-2.6,7.3-4.9,11.2-7c1.3-0.7,2.7-1.4,4.1-1.9C246.1,178.5,245.7,177.1,245.3,175.8L245.3,175.8z" />
  <path fill="#F8D80E" stroke="#000000" stroke-width="0.9" stroke-linecap="round" d="M205,176c-0.5,1.3-0.9,2.6-1.4,3.9c6.5,2.5,12.7,5.7,18.5,9.4c2,1.3,4.1,2.7,5.6,4.5c0.3,1-0.6,1.7-1.5,1.5c-0.9-0.3-1.7-0.6-2.6,0c-1.3,0.6-2.5,2.5-0.5,3.2c2.7,1.8,7.1,1,8.4-2.2c0.7-1.6,0.7-3.7-0.6-5.1c-2.4-2.8-5.6-4.7-8.7-6.6C216.7,181.2,211,178.2,205,176L205,176z" />
  <path fill="#F8D80E" stroke="#000000" stroke-width="1.172" stroke-linecap="round" d="M230.2,184.4v4.6 M233,182.4v4.6 M235.8,180.7v4.5 M238.7,178.9v4.7 M222.7,185.2l-0.4,3.9 M226,187.2l-1,3.8 M229.5,189.9l-2.1,3 M230.5,197.1l-3.1-1.6 M231.5,193.9l-3.5,0.3 M227,198.9l-0.2-3.1 M225.7,195.4l-2.9,2.1 M211.7,179.2v3.7 M219.1,183.1v4.1 M215.4,181.2v3.9" />
  <path fill="#F8D80E" stroke="#000000" stroke-width="1.172" d="M201.3,266.7v9.4h5.9v-4.7h8v4.7h6.3v-9.4H201.3z M201.3,279.6v9.4h20.3v-9.4h-6.3v4.7h-8v-4.7H201.3z M221.5,226.9h5.8V295h-5.8V226.9z" />
  <path fill="#F8D80E" stroke="#000000" stroke-width="1.172" d="M221.5,232.8h5.8v58.7h-5.8V232.8z M224.5,210.2l12.5,7.3l-12.5,7.2l-12.5-7.2L224.5,210.2z M207.8,214.9h-3.3v5.2h3.3l16.7,9.7l16.7-9.7h3.3v-5.2h-3.3l-16.7-9.7L207.8,214.9z" />
  <path fill="#F8D80E" stroke="#000000" stroke-width="1.172" d="M224.2,192.5c-2.8,0.4-5,3.2-4.8,6c0,4.4,0,8.8,0,13.1c0.2,2.8,2.6,5.4,5.5,5.4c2.3,0.2,4.7-1.1,5.6-3.3c-0.7-0.4-1.3-0.8-2-1.2c-0.5,1.4-2,2.2-3.5,2.1c-1.9,0.1-3.5-1.8-3.3-3.7c0-4.4,0-8.7,0-13.1c0.1-1.8,1.8-3.2,3.6-3c0.7-0.2,1.7,0.8,2.2-0.1c0.7-1-0.7-1.8-1.3-2.3C225.5,192.4,225,192.5,224.2,192.5L224.2,192.5z M231.2,197.1c-0.5,0.9-1.6,1.4-2.3,1.9v8.8c0.8,0.5,1.6,0.9,2.3,1.4c0-3.8,0-11.3,0-11.3V197.1z" />
  <path fill="#DA000C" stroke="#000000" stroke-width="1.172" d="M175.2,150.7c6.6,0,12,5.5,12,12.3v17.3h5.9V120h-7v-5.4h-37.5v65.6h14.6V163C163.2,156.5,168.5,150.7,175.2,150.7z M182.8,103.9h-15.5v-6.7h-13.9v6.7H144v-6.7h-5.6v12.2h44.5 M144,109.4h38.9v5.3H144V109.4z M160.2,55.8v41.3h7.1V85.8c0-4.3,3-7.7,7.2-7.9c0.1,0,0.3,0,0.4,0c4.4,0,7.9,3.6,7.9,7.9v11.4h6.8V55.8H160.2z M157.7,50.2v5.6H192v-5.6H157.7z M274.8,150.7c-6.6,0-12,5.5-12,12.3v17.3H257V120h7v-5.4h37.5v65.6h-14.6V163C286.8,156.5,281.5,150.7,274.8,150.7z M267.2,103.9h15.5v-6.7h13.9v6.7h9.4v-6.7h5.6v12.2h-44.5 M306,109.4h-38.9v5.3H306V109.4z M289.8,55.8v41.3h-7.1V85.8c0-4.3-3-7.7-7.2-7.9c-0.1,0-0.3,0-0.4,0c-4.4,0-7.9,3.6-7.9,7.9v11.4h-6.8V55.8H289.8z M204.8,45v52.2h10.9V81.7c0-3.6,2.3-8.5,9.3-8.5s9.3,5,9.3,8.5v15.5h10.9V45H204.8z M223.3,50.8h3.4v17.9h-3.4V50.8z M213.6,54.3h3.4v13.1h-3.4V54.3z M232.9,54.3h3.4v13.1h-3.4V54.3z M201.1,37.5v7.4h47.8v-7.4H201.1z M193,120v63.7h15v-23.8c0-11.2,7.5-16.5,17-16.5c9.1,0,17,5.3,17,16.5v23.8h15V120H193z M186,114.7v5.4h78v-5.4H186z M292.3,50.2v5.6H258v-5.6H292.3z M153.3,39.5v10.7h41.1V39.5H188V45h-7.7v-5.5h-11.7V45h-7.7v-5.5H153.3z M296.7,39.5v10.7h-41.1V39.5h6.3V45h7.7v-5.5h11.7V45h7.7v-5.5H296.7z M196.6,28.8v8.6h56.8v-8.6h-7.1v4.8h-8.1v-4.8H229v4.8h-8v-4.8h-9.2v4.8h-8.1v-4.8C203.7,28.8,196.6,28.8,196.6,28.8z M182.8,97.2v17.5h84.3V97.2h-8v6.7h-10.6v-6.7h-14.2v6.7h-18.6v-6.7h-14.2v6.7h-10.6v-6.7H182.8z" />
</svg>
