<svg xmlns="http://www.w3.org/2000/svg" width="450px" height="300px" viewBox="0 0 450 300">
  <path fill="#00247D" d="M0,0h450v300H0V0z" />
  <g>
    <path fill="#F9C93F" stroke="#A85305" stroke-width="1.5" stroke-linejoin="round" d="M230.579,107.159c0,22.778-18.469,41.246-41.247,41.246c-22.785,0-41.254-18.469-41.254-41.246c0-22.785,18.469-41.254,41.254-41.254C212.11,65.906,230.579,84.375,230.579,107.159L230.579,107.159z" />
    <path fill="#F9C93F" stroke="#A85305" stroke-width="1.5" stroke-linejoin="round" d="M227.514,107.159c0,21.088-17.095,38.184-38.182,38.184c-21.094,0-38.191-17.096-38.191-38.184s17.098-38.189,38.191-38.189C210.419,68.97,227.514,86.071,227.514,107.159L227.514,107.159z" />
    <path fill="#F9C93F" stroke="#A85305" stroke-width="1.7324" d="M117.712,115.411c0,0-4.577,2.557-4.962,4.425c-0.25,1.216,0.618,2.515,1.702,3.254c0.927,0.63,4.07,0.281,4.07,0.281l-1.512,0.544l1.256,3.93l5.994,2.638l-5.841-2.289l-0.58,2.424c-1.264-0.421-2.466-0.592-3.301-0.245c-1.031,0.428-1.245,3.236-1.245,3.236l1.105,5.585c0,0,2.581,1.911,3.881,1.812c1.325-0.102,3.131-1.476,4.444-2.625l-1.783,1.667l2.247,5.169l4.003-0.268c-2.001,0.189-5.346,0.682-6.36,1.923c-0.621,0.762,0.049,3.156,0.049,3.156l5.519,5.62c0,0,3.765-0.036,4.87-0.945c0.83-0.69,1.482-2.014,1.976-3.461c-0.354,2.473-0.475,5.114,0.281,6.641c0.58,1.185,2.93,1.599,3.79,2.636c0.671,0.8,0.654,2.326,1.355,3.101c0.941,1.056,4.156,2.501,4.156,2.501s-2.606,2.314-3.295,3.566c-0.679,1.208-1.344,3.051-1.166,4.4c0.299,2.215,1.714,5.389,3.76,6.634c1.368,0.836,4.029,1.13,5.488,0.439c0.701-0.324,1.306-2.069,1.306-2.069s-2.674,0.63-3.505,0.055c-0.786-0.549-0.904-1.989-0.83-2.886c0.061-0.624,0.519-1.435,0.934-1.943c0.464-0.561,1.971-1.495,1.971-1.495s3.215,3.633,4.833,4.975c1.85,1.526,6.262,4.413,6.262,4.413s-1.056,2.82-1.257,4.107c-0.274,1.757,0.146,3.394,1.227,4.876c1.176,1.624,3.13,3.778,5.083,4.573c1.856,0.756,6.745,0.384,6.745,0.384s-3.284-1.751-4.315-2.856c-0.951-1.025-2.234-2.668-2.173-4.01c0.084-1.819,3.436-5.219,3.436-5.219s5.268,3.375,7.896,3.961c5.206,1.16,12.813,1.245,17.854-0.391c8.869-2.881,19.995-9.564,30.988-17.29l-10.474-24.11l-30.041,18.488c0,0-10.975-10.785-16.175-14.943c-4.083-3.27-9.717-7.556-14.454-10.004c-3.089-1.599-7.905-2.454-11.005-4.048c-3.259-1.665-7.342-4.376-9.98-6.792c-2.264-2.076-6.341-7.837-6.341-7.837s1.154-2.644,0.855-3.76c-0.368-1.331-1.251-2.479-2.631-3.048C122.199,113.624,117.712,115.411,117.712,115.411L117.712,115.411z" />
    <path fill="#F9C93F" stroke="#A85305" stroke-width="1.7324" d="M132.134,134.094c0,0-0.542-6.75,1.233-8.911c0.537-0.653,1.783-0.372,2.76-1.092c1.05-0.781,3.455-2.331,3.307-3.551c-0.145-1.245-2.905-3.249-2.905-3.249s-4.981-1.55-7.069-1.092c-2.276,0.506-6.244,4.268-6.244,4.268l0.899,5.767L132.134,134.094z M250.574,221.094c0,0-8.545,1.179-10.553-0.671c-0.622-0.574-0.164-1.464-0.525-2.204c-0.432-0.868-1.068-1.611-2.111-1.715c-1.661-0.17-3.254,1.764-4.114,3.06c-1.154,1.726-1.264,6.219-1.264,6.219l3.37,4.016l10.351-0.659L250.574,221.094z" />
    <path fill="#F9C93F" d="M263.525,224.206c0.397,0.368,1.173,1.173,0.91,1.844c-0.024,0.074-0.104,0.128-0.189,0.182c0.038-0.036,0.068-0.08,0.08-0.123C264.594,225.432,263.892,224.584,263.525,224.206L263.525,224.206z M261.462,214.533c2.43,0.568,6.348,1.306,6.348,1.306s-1.763,0.36-2.52,0.256C264.062,215.924,262.707,215.02,261.462,214.533L261.462,214.533z M254.938,155.463l-27.229,5.555v24.738c23.036-7.05,43.476-15.314,43.476-15.314s2.495,4.883,2.539,7.134c0.018,1.117-0.679,2.535-1.124,3.572c-0.41,0.958-0.849,2.386-1.704,3.058c-1.41,1.111-4.188,1.099-5.895,1.787c-1.418,0.567-3.271,1.446-4.505,2.301c-2.289,1.575-4.981,4.076-6.751,6.121c-1.402,1.618-3.943,5.871-3.943,5.871s-5.793,0.292-8.167-0.256c-0.549-0.13-1.349-0.361-1.69-0.776c-0.61-0.744-0.714-2.136-0.543-3.057c0.225-1.281,2.232-3.808,2.232-3.808s-4.474,1.726-5.901,3.051c-0.995,0.934-2.251,2.514-2.251,3.814c-0.006,1.649,1.569,3.644,2.807,4.848c1.416,1.38,3.906,2.801,5.908,3.314c0.896,0.232,2.43-0.592,3.094,0c0.179,0.165-0.091,0.561,0,0.775c0.586,1.355,2.149,3.051,3.656,3.57c0.794,0.269,1.984-0.346,2.82-0.256c2.526,0.281,5.492,1.776,8.02,2.576c-1.331-0.256-2.869-0.409-4.071-0.275c-0.72,0.08-1.649,0.409-2.258,0.75c-1.677,0.954-3.509,2.724-4.774,4.095c-1.886,2.026-3.113,5.676-5.346,7.386c-2.111,1.611-8.454,3.314-8.454,3.314s-4.046-2.331-5.914-2.033c-0.88,0.146-2.234,1.776-2.234,1.776l2.523,9.705c0,0,2.965,2.289,4.503,2.801c0.8,0.269,2.057,0.611,2.807,0.256c1.539-0.726,2.826-4.584,2.826-4.584l3.369-1.031c0,0-1.044,3.108-0.568,4.348c0.311,0.818,2.258,2.025,2.258,2.025l8.722-0.494c0,0,3.064-0.544,3.369-1.531c0.435-1.393-2.801-4.091-2.801-4.091v-3.826l0.416-0.262c0,0,2.776,3.87,4.358,4.864c0.982,0.618,3.944,0.501,3.944,0.501l6.744-3.064c0,0,1.172-1.971,0.855-2.795c-0.343-0.916-2.001-1.399-3.333-2.197c-1.837-1.111-3.467-1.612-3.413-2.875c0,0.36,0.794,0.91,0.794,0.91l2.49,1.806l3.746,0.567c0,0-0.872-3.705-1.269-5.101c-0.025-0.086-0.049-0.152-0.074-0.226c0.483,0.317,1.062,0.599,1.342,0.982c0.514,0.707,0.448,1.977,0.923,2.71c0.861,1.319,2.424,2.936,3.906,3.662c0.97,0.47,3.608,0.599,3.608,0.599c0.292,0.055,1.892,0.22,3.223-0.102c1.356-0.33,1.856-1.393,2.026-1.63c0.324-0.458,1.05-1.216,1.099-1.998c0.092-1.44-0.72-2.985-0.72-2.985s-0.5,0.982-0.646,1.423c-0.176,0.531-1.476,1.001-2.025,1.239c-0.844,0.368-1.911-0.182-2.711-0.621c-1.05-0.562-0.951-1.203-1.08-2.301c-0.092-0.818,0.994-1.726,1.121-2.545c0.22-1.448-0.123-3.442-0.574-4.839c-0.207-0.659-1.117-2.051-1.117-2.051s2.076,0.611,2.539,1.275c0.764,1.105,1.136,2.631,1.173,3.931c0.031,0.769-0.055,2.668-0.055,2.668s2.943-1.905,3.832-3.199c0.659-0.964,0.624-3.503,0.624-3.503s2.319,1.501,3.485,1.702c1.556,0.263,3.87,0.152,5.231-0.568c1.85-0.982,4.211-5.225,4.211-5.225s-4.656,2.545-6.641,1.941c-2.161-0.666-3.539-3.754-4.32-5.706c-0.698-1.758-1.155-4.395-0.624-6.201c0.611-2.056,2.936-4.255,4.53-5.824c6.695-6.574,25.269-19.068,25.269-19.068l-6.05-13.451l-22.496-8.539L254.938,155.463z" />
    <path fill="none" stroke="#A85305" stroke-width="1.7324" stroke-linejoin="round" d="M263.525,224.206c0.397,0.368,1.173,1.173,0.91,1.844c-0.024,0.074-0.104,0.128-0.189,0.182c0.038-0.036,0.068-0.08,0.08-0.123C264.594,225.432,263.892,224.584,263.525,224.206L263.525,224.206z M261.462,214.533c2.43,0.568,6.348,1.306,6.348,1.306s-1.763,0.36-2.52,0.256C264.062,215.924,262.707,215.02,261.462,214.533L261.462,214.533z M254.938,155.463l-27.229,5.555v24.738c23.036-7.05,43.476-15.314,43.476-15.314s2.495,4.883,2.539,7.134c0.018,1.117-0.679,2.535-1.124,3.572c-0.41,0.958-0.849,2.386-1.704,3.058c-1.41,1.111-4.188,1.099-5.895,1.787c-1.418,0.567-3.271,1.446-4.505,2.301c-2.289,1.575-4.981,4.076-6.751,6.121c-1.402,1.618-3.943,5.871-3.943,5.871s-5.793,0.292-8.167-0.256c-0.549-0.13-1.349-0.361-1.69-0.776c-0.61-0.744-0.714-2.136-0.543-3.057c0.225-1.281,2.232-3.808,2.232-3.808s-4.474,1.726-5.901,3.051c-0.995,0.934-2.251,2.514-2.251,3.814c-0.006,1.649,1.569,3.644,2.807,4.848c1.416,1.38,3.906,2.801,5.908,3.314c0.896,0.232,2.43-0.592,3.094,0c0.179,0.165-0.091,0.561,0,0.775c0.586,1.355,2.149,3.051,3.656,3.57c0.794,0.269,1.984-0.346,2.82-0.256c2.526,0.281,5.492,1.776,8.02,2.576c-1.331-0.256-2.869-0.409-4.071-0.275c-0.72,0.08-1.649,0.409-2.258,0.75c-1.677,0.954-3.509,2.724-4.774,4.095c-1.886,2.026-3.113,5.676-5.346,7.386c-2.111,1.611-8.454,3.314-8.454,3.314s-4.046-2.331-5.914-2.033c-0.88,0.146-2.234,1.776-2.234,1.776l2.523,9.705c0,0,2.965,2.289,4.503,2.801c0.8,0.269,2.057,0.611,2.807,0.256c1.539-0.726,2.826-4.584,2.826-4.584l3.369-1.031c0,0-1.044,3.108-0.568,4.348c0.311,0.818,2.258,2.025,2.258,2.025l8.722-0.494c0,0,3.064-0.544,3.369-1.531c0.435-1.393-2.801-4.091-2.801-4.091v-3.826l0.416-0.262c0,0,2.776,3.87,4.358,4.864c0.982,0.618,3.944,0.501,3.944,0.501l6.744-3.064c0,0,1.172-1.971,0.855-2.795c-0.343-0.916-2.001-1.399-3.333-2.197c-1.837-1.111-3.467-1.612-3.413-2.875c0,0.36,0.794,0.91,0.794,0.91l2.49,1.806l3.746,0.567c0,0-0.872-3.705-1.269-5.101c-0.025-0.086-0.049-0.152-0.074-0.226c0.483,0.317,1.062,0.599,1.342,0.982c0.514,0.707,0.448,1.977,0.923,2.71c0.861,1.319,2.424,2.936,3.906,3.662c0.97,0.47,3.608,0.599,3.608,0.599c0.292,0.055,1.892,0.22,3.223-0.102c1.356-0.33,1.856-1.393,2.026-1.63c0.324-0.458,1.05-1.216,1.099-1.998c0.092-1.44-0.72-2.985-0.72-2.985s-0.5,0.982-0.646,1.423c-0.176,0.531-1.476,1.001-2.025,1.239c-0.844,0.368-1.911-0.182-2.711-0.621c-1.05-0.562-0.951-1.203-1.08-2.301c-0.092-0.818,0.994-1.726,1.121-2.545c0.22-1.448-0.123-3.442-0.574-4.839c-0.207-0.659-1.117-2.051-1.117-2.051s2.076,0.611,2.539,1.275c0.764,1.105,1.136,2.631,1.173,3.931c0.031,0.769-0.055,2.668-0.055,2.668s2.943-1.905,3.832-3.199c0.659-0.964,0.624-3.503,0.624-3.503s2.319,1.501,3.485,1.702c1.556,0.263,3.87,0.152,5.231-0.568c1.85-0.982,4.211-5.225,4.211-5.225s-4.656,2.545-6.641,1.941c-2.161-0.666-3.539-3.754-4.32-5.706c-0.698-1.758-1.155-4.395-0.624-6.201c0.611-2.056,2.936-4.255,4.53-5.824c6.695-6.574,25.269-19.068,25.269-19.068l-6.05-13.451l-22.496-8.539L254.938,155.463z" />
    <path fill="#F9C93F" stroke="#A85305" stroke-width="1.7324" d="M274.024,173.645c-2.545,0.921-5.231,3.411-7.031,5.28c-0.97,1.019-2.606,3.82-2.606,3.82s3.949-0.409,5.621-0.726c3.301-0.629,7.47-2.562,10.839-2.735c2.985-0.146,6.964,0.707,9.833,1.465c3.271,0.855,10.444,3.997,10.444,3.997s-6.751-10.174-11.645-12.005C285.181,171.13,278.345,172.089,274.024,173.645L274.024,173.645z M147.516,221.369c0.482-0.58,1.355-1.226,2.106-1.46c0.599-0.182,1.501-0.164,2.105,0c1.619,0.439,3.131,2.246,4.7,2.808c2.558,0.902,9.035,1.337,9.035,1.337l-6.868,7.299l-10.889,0.899l-1.976-3.089c0,0-0.275-2.49-0.068-3.535C145.934,224.28,146.606,222.467,147.516,221.369L147.516,221.369z M327.49,225.324c0,0-5.451,0.567-7.429-0.385c-1.344-0.646-1.715-3.045-3.083-3.681c-1.3-0.61-3.551-0.664-4.895-0.129c-1.013,0.409-2.38,2.539-2.38,2.539l2.52,6.476l3.499,0.506l5.969-0.103L327.49,225.324z" />
    <path fill="#F9C93F" d="M172.29,228.771c1.147-0.176-0.111,1.679-0.251,3.455c0.099,0.349,0.191,0.695,0.251,0.945c0.244,1.081,1.361,2.253,2.062,3.388c-0.884-0.792-1.924-1.989-2.257-3.35c-0.074-0.311-0.08-0.646-0.056-0.982C171.637,230.818,171.13,228.949,172.29,228.771L172.29,228.771z M369.476,70.934c-2.289-0.03-4.584,0.185-6.464,0.586c-3.705,0.794-8.361,3.095-11.181,5.414c-3.29,2.699-6.379,7.476-8.204,11.145c-1.434,2.875-2.381,7.019-2.655,10.156c-0.256,2.949,0.457,6.868,0.781,9.807c0.464,4.364,1.489,14.551,1.489,14.551s-2.551-7.349-4.852-9.808c-1.562-1.674-4.326-3.778-6.725-4.071c-1.758-0.208-4.37,0.544-5.591,1.702c-1.124,1.069-1.497,4.743-1.497,4.743s2.663-2.514,4.108-2.374c0.476,0.049,0.983,0.596,1.124,1.012c0.33,0.995-0.855,2.356-0.739,3.387c0.319,2.85,1.814,6.811,4.091,8.795c1.377,1.197,5.969,2.026,5.969,2.026s-7.025-1.441-9.326,0c-1.569,0.989-3.265,3.851-3.656,5.549c-0.432,1.891,0.281,4.493,1.038,6.293c0.514,1.201,1.942,2.93,3.358,3.039c1.367,0.111,3.736-2.374,3.736-2.374s-2.057,0.506-2.619,0c-0.708-0.64-0.349-2.186,0-3.041c0.42-1.006,1.538-2.264,2.619-2.715c0.914-0.372,2.435-0.372,3.356,0c1.38,0.556,2.776,2.136,3.375,3.387c1.105,2.337,1.611,6.055,0.739,8.465c-0.921,2.539-3.595,5.376-6.237,7.062c-0.013,0.005-0.025,0.018-0.038,0.018c-0.439,0.179-0.867,0.391-1.232,0.659c-0.086,0.061-0.195,0.14-0.299,0.201c-3.4,1.556-8.723,1.995-13.624,2.301c-4.425,0.346-8.1-0.33-12.091-1.069c-8.496-1.636-12.55-3.993-21.18-4.944c-3.332-0.366-8.825-0.756-12.189-0.843c-5.706-0.134-14.611,0.421-20.294-0.086c-9.619-0.849-31.426-2.869-31.426-2.869l-12.409-2.831l-6.335,5.738l-42.176,68.348l-4.845,10.815l-3.736,0.676c0,0-4.736-1.429-6.726-1.019c-1.336,0.275-3.716,2.375-3.716,2.375l4.095,8.454c0,0,1.989,1.294,2.996,1.355c1.055,0.074,3.35-1.014,3.35-1.014l1.501-3.045c0-0.373,3.558-3.106,6.349-4.889c0.225-0.28,0.488-0.567,0.853-0.879c0.909-0.788,1.532-2.161,1.984-2.014c0.421,0.146,0.432,1.232,0,1.343c-0.544,0.134-1.624,0.769-2.838,1.55c-0.531,0.636-0.806,1.173-1.216,1.471c-2.239,1.654-2.056,1.922-2.539,4.095c-0.208,0.939,1.136,3.039,1.136,3.039l11.944,1.355c0,0,3.743-1.909,4.091-3.388c0.158-0.648-0.111-1.324-0.525-2.008c0.683,0.618,1.281,1.001,1.281,1.001l4.834,0.342c0,0,5.335-4.03,6.354-6.445c0.16-0.38,0.269-1.014,0-1.338c-1.269-1.507-6.707-1.696-6.707-1.696s-0.225-0.788,0.109-1.239c0.751-1.006,3.62-0.445,3.62-0.445l1.117-7.118l1.861,4.401c0,0,2.594-3.205,3.235-5.17c0.482-1.458,0.531-3.644,0-5.085c-0.346-0.964,0.342-1.05,0.342-1.05s1.764,1.062,2.638,2.752c0.525,1.014,0.134,4.279,0.134,4.279s1.586-1.733,1.989-2.611c0.855-1.875,1.679-4.626,1.361-6.636c-0.244-1.574,2.221-5.224,1.143-6.481c-1.27-1.47-1.747-1.905-1.747-1.905s0.788,0.08,1.936,0.812c1.262,0.805-0.794,4.089,0.17,5.549c0.941,1.416,1.117,5.408,1.117,5.408l1.954-3.467l0.659-3.986l-1.489-8.776c0,0,5.499-6.318,8.959-7.118c3.999-0.921,9.295,2.844,13.423,2.716c3.961-0.123,8.996-2.081,12.695-3.381c5.926-2.094,13.189-6.17,19.031-8.452c4.394-1.72,10.247-4.131,14.915-5.091c5.151-1.05,12.494-2.721,17.555-1.355c3.131,0.849,7.019,3.498,8.587,6.099c2.362,3.943,0.676,10.144,0.739,14.624c0.005,0.75-1.453,1.745-1.295,4.107c0.171,2.452,1.954,6.286,1.216,6.97c-1.283,1.201-5.079,1.855-5.079,1.855s1.842,1.446,4.076,1.741c1.77,0.231,3.961-0.611,4.412-0.995c1.117-0.964,2.026-2.862,2.259-3.265c0.318-0.561,0.464-1.399,0.513-2.301c-0.47-2.812-0.513-5.486-0.513-5.486s0.629,3.033,0.513,5.486c0.366,2.221,1,4.548,2.105,5.683c1.094,1.136,3.057,1.146,3.98,2.411c0.982,1.355,1.917,2.905,0.714,4.12c-1.745,1.764-4.967,3.199-4.967,3.199s2.94,0.865,5.651,0.237c1.691-0.391,3.161-1.459,3.949-2.869c1.533-2.77,2.301-6.97,2.026-10.291c-2.014-2.911-3.509-7.306-3.509-7.306s2.996,4.085,3.356,6.099c0.068,0.391,0.117,0.792,0.152,1.208c0.652,0.946,1.355,1.745,2.081,2.184c2.062,1.235,6.482,0.96,6.482,0.96s-2.149,3.667-2.746,5.786c-0.948,3.363,1.121,11.518,1.121,11.518s-4.87,1.794-7.092,2.026c-1.445,0.152-3.545-0.94-4.851-0.343c-0.947,0.432-1.856,2.716-1.856,2.716l5.212,8.455c0,0,2.974,1.128,4.107,0.664c1.93-0.781,2.155-3.917,3.644-5.425c1.471-1.489,5.311-3.694,5.311-3.694l-2.619,8.106l1.874,2.369h8.588c0,0,2.686-2.9,2.612-4.401c-0.086-2.05-4.108-5.755-4.108-5.755s2.221,0.2,3.314,0.756c1.361,0.695,2.656,2.973,2.656,2.973h4.106l4.86-3.381c0,0,0.72-2.807,0-3.711c-1.281-1.592-6.904-2.044-6.904-2.044l4.285-4.731l-2.619-4.053c0,0,5.904,3.144,8.588,2.705c1.722-0.288,3.675-1.978,4.475-3.388c0.664-1.173,0.372-4.4,0.372-4.4s-1.226,2.264-2.235,2.716c-0.896,0.409-2.68,0.666-3.369,0c-1.306-1.257,0.379-5.756,0.379-5.756s4.456-0.964,5.969-2.026c1.081-0.756,2.583-2.149,2.619-3.388c0.031-1.317-2.619-3.721-2.619-3.721s0.38,1.976-0.378,2.728c-0.769,0.769-2.661,1.732-3.717,1.343c-2.014-0.744-4.113-5.414-4.113-5.414s3.955-1.787,4.724-3.57c0.299-0.701,0.256-2.496-0.513-3.467c-1.166-1.464-2.087-1.88-2.087-1.88s0.811,2.35-0.263,3.169c-1.092,0.818-3.064,1.458-4.48,1.355c-2.393-0.182-5.462-1.776-7.086-3.381c-1.96-1.954-2.735-4.719-3.864-7.149c-0.336-0.714-0.8-2.081-0.8-2.081s4.029-0.263,5.651-0.976c1.136-0.506,2.863-2.539,3.125-3.661c0.397-1.685-0.676-4.425-2.276-5.34c-1.324-0.769-3.881-0.16-3.881-0.16s1.837,1.501,2.443,2.32c0.439,0.586-0.71,2.13-1.118,2.735c-0.33,0.488-1.465,0.462-2.087,0.34c-3.058-0.602-5.775-3.363-7.636-5.651c-1.306-1.611-2.215-6.292-2.234-6.391c2.906-0.091,4.987-0.775,7.149-0.921c3.27-0.561,6.622-2.783,9.485-4.326c2.587-1.399,5.225-4.632,5.225-4.632c2.239-3.485,7.519-5.114,10.631-3.314c0.648,0.445,1.251,1.783,0.757,2.374c-0.47,0.569-4.475,1.686-4.475,1.686s0.966,1.574,2.595,2.367c1.3,0.63,3.497-0.151,4.857-0.666c1.025-0.395,2.466-1.135,2.99-2.025c0.951-1.619,1.207-4.511,0.817-6.312c-0.5-2.312-2.204-4.742-4.174-6.286c-1.418-1.117-4.096-2.136-5.97-2.301c-1.006-0.091-3.576,0.135-3.576,0.135s1.216-11.54,0.964-17.041c-0.25-5.499-2.355-13.47-2.617-19.294c-0.105-2.435-0.165-5.719,0.384-8.105c0.818-3.619,2.356-8.594,4.845-11.517c1.179-1.38,3.425-2.716,5.219-3.364c2.307-0.836,5.621-1.043,7.867-0.065c1.758,0.762,3.24,2.399,3.711,4.119c0.489,1.776,0.732,4.547-0.379,6.086c-0.549,0.756-2.014,1.531-2.996,1.355c-1.013-0.183-1.971-1.47-2.239-2.375c-0.288-1,0.762-3.381,0.762-3.381s-2.057-0.451-3.224,0.342c-1.525,1.044-2.471,3.693-2.233,5.414c0.213,1.593,1.812,3.875,3.161,4.913c1.989,1.532,6.409,2.869,6.409,2.869s-0.921,8.32-0.361,11.842c0.72,4.541,1.587,9.289,3.925,13.36c1.287,2.252,3.418,5.786,5.744,7.196c2.587,1.581,6.714,2.264,9.759,1.636c2.71-0.556,4.779-2.637,5.536-5.068c0.574-1.855-1.172-5.236-1.172-5.236s-0.312,3.026-1.124,4.052c-0.855,1.074-2.051,2.294-3.449,2.661c-0.648,0.17-2.643-0.294-3.224-0.605c-1.207-0.646-1.954-1.978-2.562-3.125c-0.88-1.685-0.964-4.321-0.976-6.183c-0.025-2.507,2.368-6.385,3.026-8.814c0.489-1.781-0.074-6.689-0.074-6.689s4.768,3.199,6.574,3.217c2.272,0.03,5.378-0.129,7.094-1.479c1.244-0.981,2.331-2.924,2.611-4.4c0.251-1.312,0.3-2.27-0.818-3.144c-0.679-0.525-2.033-1.398-2.911-1.25c-1.294,0.2-2.033,0.737-2.033,0.737s1.258,0.708,2.033,1.63c0.401,0.489,0.391,1.539,0,2.026c-0.415,0.525-2.301,1.476-2.996,1.361c-2.27-0.378-4.829-3.784-5.964-5.603c-1.745-2.776-0.006-6.939-0.951-10.016c-1.014-3.284-2.526-7.8-4.853-10.48c-2.239-2.564-6.292-5.37-9.71-6.426C374.043,71.248,371.76,70.973,369.476,70.934L369.476,70.934z" />
    <path fill="none" stroke="#A85305" stroke-width="1.7324" d="M172.29,228.771c1.147-0.176-0.111,1.679-0.251,3.455c0.099,0.349,0.191,0.695,0.251,0.945c0.244,1.081,1.361,2.253,2.062,3.388c-0.884-0.792-1.924-1.989-2.257-3.35c-0.074-0.311-0.08-0.646-0.056-0.982C171.637,230.818,171.13,228.949,172.29,228.771L172.29,228.771z M369.476,70.934c-2.289-0.03-4.584,0.185-6.464,0.586c-3.705,0.794-8.361,3.095-11.181,5.414c-3.29,2.699-6.379,7.476-8.204,11.145c-1.434,2.875-2.381,7.019-2.655,10.156c-0.256,2.949,0.457,6.868,0.781,9.807c0.464,4.364,1.489,14.551,1.489,14.551s-2.551-7.349-4.852-9.808c-1.562-1.674-4.326-3.778-6.725-4.071c-1.758-0.208-4.37,0.544-5.591,1.702c-1.124,1.069-1.497,4.743-1.497,4.743s2.663-2.514,4.108-2.374c0.476,0.049,0.983,0.596,1.124,1.012c0.33,0.995-0.855,2.356-0.739,3.387c0.319,2.85,1.814,6.811,4.091,8.795c1.377,1.197,5.969,2.026,5.969,2.026s-7.025-1.441-9.326,0c-1.569,0.989-3.265,3.851-3.656,5.549c-0.432,1.891,0.281,4.493,1.038,6.293c0.514,1.201,1.942,2.93,3.358,3.039c1.367,0.111,3.736-2.374,3.736-2.374s-2.057,0.506-2.619,0c-0.708-0.64-0.349-2.186,0-3.041c0.42-1.006,1.538-2.264,2.619-2.715c0.914-0.372,2.435-0.372,3.356,0c1.38,0.556,2.776,2.136,3.375,3.387c1.105,2.337,1.611,6.055,0.739,8.465c-0.921,2.539-3.595,5.376-6.237,7.062c-0.013,0.005-0.025,0.018-0.038,0.018c-0.439,0.179-0.867,0.391-1.232,0.659c-0.086,0.061-0.195,0.14-0.299,0.201c-3.4,1.556-8.723,1.995-13.624,2.301c-4.425,0.346-8.1-0.33-12.091-1.069c-8.496-1.636-12.55-3.993-21.18-4.944c-3.332-0.366-8.825-0.756-12.189-0.843c-5.706-0.134-14.611,0.421-20.294-0.086c-9.619-0.849-31.426-2.869-31.426-2.869l-12.409-2.831l-6.335,5.738l-42.176,68.348l-4.845,10.815l-3.736,0.676c0,0-4.736-1.429-6.726-1.019c-1.336,0.275-3.716,2.375-3.716,2.375l4.095,8.454c0,0,1.989,1.294,2.996,1.355c1.055,0.074,3.35-1.014,3.35-1.014l1.501-3.045c0-0.373,3.558-3.106,6.349-4.889c0.225-0.28,0.488-0.567,0.853-0.879c0.909-0.788,1.532-2.161,1.984-2.014c0.421,0.146,0.432,1.232,0,1.343c-0.544,0.134-1.624,0.769-2.838,1.55c-0.531,0.636-0.806,1.173-1.216,1.471c-2.239,1.654-2.056,1.922-2.539,4.095c-0.208,0.939,1.136,3.039,1.136,3.039l11.944,1.355c0,0,3.743-1.909,4.091-3.388c0.158-0.648-0.111-1.324-0.525-2.008c0.683,0.618,1.281,1.001,1.281,1.001l4.834,0.342c0,0,5.335-4.03,6.354-6.445c0.16-0.38,0.269-1.014,0-1.338c-1.269-1.507-6.707-1.696-6.707-1.696s-0.225-0.788,0.109-1.239c0.751-1.006,3.62-0.445,3.62-0.445l1.117-7.118l1.861,4.401c0,0,2.594-3.205,3.235-5.17c0.482-1.458,0.531-3.644,0-5.085c-0.346-0.964,0.342-1.05,0.342-1.05s1.764,1.062,2.638,2.752c0.525,1.014,0.134,4.279,0.134,4.279s1.586-1.733,1.989-2.611c0.855-1.875,1.679-4.626,1.361-6.636c-0.244-1.574,2.221-5.224,1.143-6.481c-1.27-1.47-1.747-1.905-1.747-1.905s0.788,0.08,1.936,0.812c1.262,0.805-0.794,4.089,0.17,5.549c0.941,1.416,1.117,5.408,1.117,5.408l1.954-3.467l0.659-3.986l-1.489-8.776c0,0,5.499-6.318,8.959-7.118c3.999-0.921,9.295,2.844,13.423,2.716c3.961-0.123,8.996-2.081,12.695-3.381c5.926-2.094,13.189-6.17,19.031-8.452c4.394-1.72,10.247-4.131,14.915-5.091c5.151-1.05,12.494-2.721,17.555-1.355c3.131,0.849,7.019,3.498,8.587,6.099c2.362,3.943,0.676,10.144,0.739,14.624c0.005,0.75-1.453,1.745-1.295,4.107c0.171,2.452,1.954,6.286,1.216,6.97c-1.283,1.201-5.079,1.855-5.079,1.855s1.842,1.446,4.076,1.741c1.77,0.231,3.961-0.611,4.412-0.995c1.117-0.964,2.026-2.862,2.259-3.265c0.318-0.561,0.464-1.399,0.513-2.301c-0.47-2.812-0.513-5.486-0.513-5.486s0.629,3.033,0.513,5.486c0.366,2.221,1,4.548,2.105,5.683c1.094,1.136,3.057,1.146,3.98,2.411c0.982,1.355,1.917,2.905,0.714,4.12c-1.745,1.764-4.967,3.199-4.967,3.199s2.94,0.865,5.651,0.237c1.691-0.391,3.161-1.459,3.949-2.869c1.533-2.77,2.301-6.97,2.026-10.291c-2.014-2.911-3.509-7.306-3.509-7.306s2.996,4.085,3.356,6.099c0.068,0.391,0.117,0.792,0.152,1.208c0.652,0.946,1.355,1.745,2.081,2.184c2.062,1.235,6.482,0.96,6.482,0.96s-2.149,3.667-2.746,5.786c-0.948,3.363,1.121,11.518,1.121,11.518s-4.87,1.794-7.092,2.026c-1.445,0.152-3.545-0.94-4.851-0.343c-0.947,0.432-1.856,2.716-1.856,2.716l5.212,8.455c0,0,2.974,1.128,4.107,0.664c1.93-0.781,2.155-3.917,3.644-5.425c1.471-1.489,5.311-3.694,5.311-3.694l-2.619,8.106l1.874,2.369h8.588c0,0,2.686-2.9,2.612-4.401c-0.086-2.05-4.108-5.755-4.108-5.755s2.221,0.2,3.314,0.756c1.361,0.695,2.656,2.973,2.656,2.973h4.106l4.86-3.381c0,0,0.72-2.807,0-3.711c-1.281-1.592-6.904-2.044-6.904-2.044l4.285-4.731l-2.619-4.053c0,0,5.904,3.144,8.588,2.705c1.722-0.288,3.675-1.978,4.475-3.388c0.664-1.173,0.372-4.4,0.372-4.4s-1.226,2.264-2.235,2.716c-0.896,0.409-2.68,0.666-3.369,0c-1.306-1.257,0.379-5.756,0.379-5.756s4.456-0.964,5.969-2.026c1.081-0.756,2.583-2.149,2.619-3.388c0.031-1.317-2.619-3.721-2.619-3.721s0.38,1.976-0.378,2.728c-0.769,0.769-2.661,1.732-3.717,1.343c-2.014-0.744-4.113-5.414-4.113-5.414s3.955-1.787,4.724-3.57c0.299-0.701,0.256-2.496-0.513-3.467c-1.166-1.464-2.087-1.88-2.087-1.88s0.811,2.35-0.263,3.169c-1.092,0.818-3.064,1.458-4.48,1.355c-2.393-0.182-5.462-1.776-7.086-3.381c-1.96-1.954-2.735-4.719-3.864-7.149c-0.336-0.714-0.8-2.081-0.8-2.081s4.029-0.263,5.651-0.976c1.136-0.506,2.863-2.539,3.125-3.661c0.397-1.685-0.676-4.425-2.276-5.34c-1.324-0.769-3.881-0.16-3.881-0.16s1.837,1.501,2.443,2.32c0.439,0.586-0.71,2.13-1.118,2.735c-0.33,0.488-1.465,0.462-2.087,0.34c-3.058-0.602-5.775-3.363-7.636-5.651c-1.306-1.611-2.215-6.292-2.234-6.391c2.906-0.091,4.987-0.775,7.149-0.921c3.27-0.561,6.622-2.783,9.485-4.326c2.587-1.399,5.225-4.632,5.225-4.632c2.239-3.485,7.519-5.114,10.631-3.314c0.648,0.445,1.251,1.783,0.757,2.374c-0.47,0.569-4.475,1.686-4.475,1.686s0.966,1.574,2.595,2.367c1.3,0.63,3.497-0.151,4.857-0.666c1.025-0.395,2.466-1.135,2.99-2.025c0.951-1.619,1.207-4.511,0.817-6.312c-0.5-2.312-2.204-4.742-4.174-6.286c-1.418-1.117-4.096-2.136-5.97-2.301c-1.006-0.091-3.576,0.135-3.576,0.135s1.216-11.54,0.964-17.041c-0.25-5.499-2.355-13.47-2.617-19.294c-0.105-2.435-0.165-5.719,0.384-8.105c0.818-3.619,2.356-8.594,4.845-11.517c1.179-1.38,3.425-2.716,5.219-3.364c2.307-0.836,5.621-1.043,7.867-0.065c1.758,0.762,3.24,2.399,3.711,4.119c0.489,1.776,0.732,4.547-0.379,6.086c-0.549,0.756-2.014,1.531-2.996,1.355c-1.013-0.183-1.971-1.47-2.239-2.375c-0.288-1,0.762-3.381,0.762-3.381s-2.057-0.451-3.224,0.342c-1.525,1.044-2.471,3.693-2.233,5.414c0.213,1.593,1.812,3.875,3.161,4.913c1.989,1.532,6.409,2.869,6.409,2.869s-0.921,8.32-0.361,11.842c0.72,4.541,1.587,9.289,3.925,13.36c1.287,2.252,3.418,5.786,5.744,7.196c2.587,1.581,6.714,2.264,9.759,1.636c2.71-0.556,4.779-2.637,5.536-5.068c0.574-1.855-1.172-5.236-1.172-5.236s-0.312,3.026-1.124,4.052c-0.855,1.074-2.051,2.294-3.449,2.661c-0.648,0.17-2.643-0.294-3.224-0.605c-1.207-0.646-1.954-1.978-2.562-3.125c-0.88-1.685-0.964-4.321-0.976-6.183c-0.025-2.507,2.368-6.385,3.026-8.814c0.489-1.781-0.074-6.689-0.074-6.689s4.768,3.199,6.574,3.217c2.272,0.03,5.378-0.129,7.094-1.479c1.244-0.981,2.331-2.924,2.611-4.4c0.251-1.312,0.3-2.27-0.818-3.144c-0.679-0.525-2.033-1.398-2.911-1.25c-1.294,0.2-2.033,0.737-2.033,0.737s1.258,0.708,2.033,1.63c0.401,0.489,0.391,1.539,0,2.026c-0.415,0.525-2.301,1.476-2.996,1.361c-2.27-0.378-4.829-3.784-5.964-5.603c-1.745-2.776-0.006-6.939-0.951-10.016c-1.014-3.284-2.526-7.8-4.853-10.48c-2.239-2.564-6.292-5.37-9.71-6.426C374.043,71.248,371.76,70.973,369.476,70.934L369.476,70.934z" />
    <path fill="#FFFFFF" stroke="#A85305" stroke-width="1.3745" d="M311.895,223.389c-0.525-0.618-1.714-0.592-2.459-0.476c-0.874,0.14-1.258,0.299-1.983,0.874c-0.636,0.5-1.551,1.232-1.85,2.05c-0.324,0.867,0,3.15,0,3.15s1.501-2.246,2.393-2.839c0.97-0.641,1.905,0.012,2.943-0.481c0.378-0.179,0.989-0.368,1.165-0.781C312.274,224.469,312.176,223.712,311.895,223.389L311.895,223.389z M328.375,239.136c0,0,1.556-0.758,2.289-0.842c0.404-0.049,0.666-0.049,1.008,0.151c0.731,0.421,1.489,1.434,1.525,2.221c0.049,1.056-1.179,2.235-1.776,3.144c-0.414,0.622-1.182,1.989-1.182,1.989s-1.96-4.021-2.07-4.845C328.039,239.959,328.332,239.216,328.375,239.136L328.375,239.136z M345.482,230.768c0.592-0.176,1.514-0.145,2.081,0.08c0.71,0.281,1.569,0.995,1.825,1.655c0.367,0.915,0.025,2.319-0.34,3.227c-0.489,1.22-2.699,3.553-2.699,3.553s0.055-2.051-0.086-2.919c-0.084-0.536-0.158-1.306-0.519-1.739c-0.445-0.513-1.726-0.531-2.088-1.099c-0.231-0.366-0.206-1.031,0-1.416C343.957,231.531,344.812,230.969,345.482,230.768L345.482,230.768z M313.3,233.216c-0.537-0.311-1.434-0.495-2.045-0.404c-0.756,0.11-1.751,0.605-2.161,1.19c-0.568,0.805-0.555,2.245-0.401,3.222c0.195,1.294,1.806,4.071,1.806,4.071s0.414-2.004,0.75-2.814c0.208-0.5,0.458-1.239,0.91-1.569c0.55-0.409,1.801-0.123,2.283-0.599c0.311-0.299,0.439-0.958,0.33-1.38C314.606,234.307,313.902,233.563,313.3,233.216L313.3,233.216z M147.131,223.339c-0.549-0.635-1.794-0.61-2.564-0.494c-0.904,0.14-1.3,0.311-2.056,0.91c-0.659,0.519-1.605,1.276-1.917,2.124c-0.335,0.905,0,3.271,0,3.271s1.558-2.331,2.49-2.943c1.007-0.664,1.971,0.006,3.051-0.5c0.391-0.183,1.026-0.379,1.204-0.811C147.516,224.469,147.419,223.669,147.131,223.339L147.131,223.339z M162.836,239.283c0,0,1.605-0.781,2.367-0.874c0.421-0.049,0.698-0.049,1.056,0.159c0.758,0.439,1.539,1.489,1.581,2.306c0.049,1.099-1.22,2.32-1.85,3.259c-0.426,0.654-1.226,2.069-1.226,2.069s-2.038-4.18-2.149-5.028C162.481,240.143,162.787,239.368,162.836,239.283L162.836,239.283z M181.934,232.849c0.61-0.182,1.567-0.151,2.165,0.08c0.739,0.294,1.624,1.038,1.893,1.723c0.379,0.951,0.025,2.405-0.36,3.356c-0.508,1.264-2.795,3.681-2.795,3.681s0.049-2.125-0.099-3.027c-0.086-0.549-0.164-1.355-0.537-1.794c-0.462-0.55-1.794-0.556-2.173-1.155c-0.239-0.379-0.208-1.068,0-1.47C180.346,233.643,181.231,233.056,181.934,232.849L181.934,232.849z M147.583,235.492c-0.561-0.324-1.495-0.512-2.13-0.421c-0.781,0.121-1.819,0.636-2.24,1.239c-0.586,0.836-0.574,2.337-0.42,3.351c0.201,1.342,1.874,4.236,1.874,4.236s0.439-2.087,0.787-2.936c0.214-0.519,0.47-1.276,0.939-1.624c0.575-0.421,1.875-0.129,2.375-0.618c0.33-0.317,0.451-1,0.342-1.434C148.938,236.633,148.211,235.851,147.583,235.492L147.583,235.492z M234.705,221.026c-0.299-0.806-1.501-1.22-2.289-1.386c-0.928-0.189-1.368-0.164-2.313,0.14c-0.819,0.263-2.004,0.654-2.606,1.361c-0.641,0.751-1.173,3.156-1.173,3.156s2.337-1.697,3.455-1.954c1.207-0.281,1.896,0.714,3.119,0.615c0.439-0.036,1.121,0,1.451-0.36C234.674,222.253,234.864,221.459,234.705,221.026L234.705,221.026z M246.119,240.589c0,0,1.654-0.812,2.435-0.905c0.435-0.055,0.707-0.049,1.081,0.165c0.775,0.451,1.586,1.537,1.624,2.369c0.055,1.128-1.257,2.386-1.899,3.356c-0.439,0.666-1.258,2.124-1.258,2.124s-2.105-4.29-2.216-5.175C245.751,241.467,246.069,240.674,246.119,240.589L246.119,240.589z M264.795,232.77c0.635-0.189,1.611-0.16,2.221,0.084c0.756,0.3,1.671,1.062,1.954,1.77c0.391,0.976,0.024,2.473-0.374,3.443c-0.525,1.3-2.874,3.79-2.874,3.79s0.055-2.191-0.099-3.113c-0.092-0.574-0.17-1.399-0.555-1.85c-0.47-0.555-1.837-0.574-2.221-1.179c-0.256-0.391-0.22-1.111,0-1.519C263.166,233.581,264.081,232.982,264.795,232.77L264.795,232.77z M230.018,234.265c-0.574-0.33-1.532-0.525-2.184-0.435c-0.806,0.123-1.875,0.646-2.307,1.276c-0.599,0.861-0.592,2.405-0.426,3.443c0.206,1.38,1.929,4.345,1.929,4.345s0.445-2.143,0.806-3.01c0.219-0.531,0.488-1.318,0.964-1.671c0.586-0.432,1.923-0.129,2.441-0.635c0.33-0.324,0.464-1.02,0.349-1.471C231.414,235.438,230.664,234.638,230.018,234.265L230.018,234.265z" />
    <path fill="#F9C93F" d="M205.309,141.938c0,0,0.923,0.58,3.137-0.281c4.181-1.63,10.786-5.658,13.599-8.282c2.826-2.624,8.974-11.114,11.055-17.681c-0.336-13.55,0.018-25.019,1.72-31.836c12.762-20.782,31.695-23.005,47.332-27.74c12.538-4.076,21.656-5.145,33.619-0.666c-2.557,2.094-3.314,3.993-7.342,5.792c-4.03,1.808-11.335,3.509-14.363,4.92c0,0,15.211,0.75,17.511,3.332c2.301,2.581-7.22,5.163-7.22,5.163s15.65-1.751,22.4-1.208c6.744,0.537,14.191,3.051,14.191,3.051s-2.985,4.95-8.93,7.312c-5.42,2.037-13.391,4.388-19.794,5.243c0,0,13.495,3.369,14.943,6.561c1.447,3.18-2.234,3.419-4.852,5.256c-2.624,1.836-14.825,2.831-14.825,2.831s11.932,4.132,12.494,6.8c-1.38,6.299-15.826,6.256-22.644,7.17c0,0,12.145,4.2,12.372,7.306c0.225,3.107-8.746,4.87-8.746,4.87l-18.725,0.849c0,0,14.245,4.321,13.336,9.076c-0.909,4.761-14.612,4.981-26.776,2.85c0,0,9.557,5.261,2.161,8.369c-7.391,3.1-16.431,0.404-16.431,0.404s6.134,8.409,3.749,11.669c-5.255,2.894-11.895-0.414-17.213-2.924c0,0,6.019,8.19,3.583,9.87c-2.435,1.685-14.55-2.064-19.592-4.616c0,0,4.62,6.537,2.033,8.869c-7.838,3.107-10.84-4.181-14.446-8.581l-8.344-6.682c-0.201-1.556-55.926,9.686,4.614-5.651c4.767-1.209,13.312-3.284,13.464-5.158c0.061-0.677-18.309-1.971-18.212-2.576c0.305-1.88,0.646-1.758,1.636-3.754" />
    <path fill="none" stroke="#A85305" stroke-width="1.9526" stroke-linejoin="round" d="M205.309,141.938c0,0,0.923,0.58,3.137-0.281c4.181-1.63,10.786-5.658,13.599-8.282c2.826-2.624,8.974-11.114,11.055-17.681c-0.336-13.55,0.018-25.019,1.72-31.836c12.762-20.782,31.695-23.005,47.332-27.74c12.538-4.076,21.656-5.145,33.619-0.666c-2.557,2.094-3.314,3.993-7.342,5.792c-4.03,1.808-11.335,3.509-14.363,4.92c0,0,15.211,0.75,17.511,3.332c2.301,2.581-7.22,5.163-7.22,5.163s15.65-1.751,22.4-1.208c6.744,0.537,14.191,3.051,14.191,3.051s-2.985,4.95-8.93,7.312c-5.42,2.037-13.391,4.388-19.794,5.243c0,0,13.495,3.369,14.943,6.561c1.447,3.18-2.234,3.419-4.852,5.256c-2.624,1.836-14.825,2.831-14.825,2.831s11.932,4.132,12.494,6.8c-1.38,6.299-15.826,6.256-22.644,7.17c0,0,12.145,4.2,12.372,7.306c0.225,3.107-8.746,4.87-8.746,4.87l-18.725,0.849c0,0,14.245,4.321,13.336,9.076c-0.909,4.761-14.612,4.981-26.776,2.85c0,0,9.557,5.261,2.161,8.369c-7.391,3.1-16.431,0.404-16.431,0.404s6.134,8.409,3.749,11.669c-5.255,2.894-11.895-0.414-17.213-2.924c0,0,6.019,8.19,3.583,9.87c-2.435,1.685-14.55-2.064-19.592-4.616c0,0,4.62,6.537,2.033,8.869c-7.838,3.107-10.84-4.181-14.446-8.581l-8.344-6.682c-0.201-1.556-55.926,9.686,4.614-5.651c4.767-1.209,13.312-3.284,13.464-5.158c0.061-0.677-18.309-1.971-18.212-2.576c0.305-1.88,0.646-1.758,1.636-3.754 M294.068,66.162c-17.211,1.214-30.475,7.025-43.676,12.914 M304.357,74.658c-20.569,1.143-49.389,14.77-54.785,21.753c-5.391,6.989-2.026,29.601-11.981,41.083c-9.089,10.474-21.746,15.363-34.045,16.387 M312.225,89.056c-16.749-1.715-41.039,3.986-45.726,6.08c-4.688,2.094-3.822,12.725-6,23.857c-1.507,7.715-6.806,17.437-6.806,17.437 M307.489,103.705c-16.559-3.003-32.3-3.474-45.452,4.101 M297.339,117.675c-11.107-2.338-22.32-4.425-36.793,1.081 M282.239,130.7c-8.27-2.837-16.797-2.466-25.427-0.731 M268.799,142.633c-2.789-0.732-5.566-1.482-7.201-3.949 M254.527,151.399c-7.745-1.954-7.396-5.525-4.967-9.51" />
    <path fill="none" stroke="#A85305" stroke-width="1.4436" d="M158.696,182.698c0,0,1.386-2.741,1.85-3.857c0.379-0.91,0.945-2.106,1.562-2.899c0.372-0.476,1.514-1.392,1.514-1.392 M147.381,172.887c0,0,1.55-1.275,2.326-1.685c1.135-0.592,3.1-0.652,4.07-1.451c1.166-0.966,1.905-2.894,2.38-4.261c0.319-0.916,0.507-3.161,0.507-3.161 M137.451,150.935c0,0,5.126,7.58,9.246,8.928c2.905,0.952,8.093,0.044,8.093,0.044 M245.13,207.006c0,0,2.136-0.592,2.952-1.019c0.751-0.397,2.253-1.66,2.253-1.66 M255.255,204.713c0,0-2.026,0.384-2.667,0.89c-0.731,0.568-1.47,1.685-1.55,2.551c-0.086,0.926,1.124,2.93,1.124,2.93 M257.367,205.86c0,0-1.831,0.941-2.113,1.655c-0.414,1.061,0.239,2.655,0.704,3.705c0.256,0.555,1.269,1.654,1.269,1.654 M261.304,206.494c0,0-1.697,1.459-1.964,2.295c-0.251,0.775-0.05,1.929,0.28,2.686c0.427,0.982,2.394,2.801,2.394,2.801 M253.564,232.636c0,0,0.25-2.18,0.427-2.936c0.231-1.031,2.674-2.545,2.674-2.545 M243.299,235.438c0,0-0.061-1.508,0.287-2.039c0.475-0.726,2.533-1.655,2.533-1.655 M327.229,165.02c0,0-4.052-1.679-6.141-2.155c-1.849-0.42-4.492,0.397-6.341,0c-1.557-0.334-4.761-2.159-4.761-2.159 M310.188,168.25c0,0,4.131,0.689,5.546,1.624c2.138,1.402,2.82,4.7,4.604,6.462c1.165,1.155,2.85,2.131,3.582,3.218c0.622,0.921,1.525,3.333,1.525,3.333s1.075-2.6,1.031-3.967c-0.011-0.519-0.036-3.839-0.036-3.839s3.656,4.711,5.945,5.926c0.682,0.366,2.575,0.543,2.575,0.543 M340.991,196.977c0,0,2.735,1.491,4.035,1.825c1.105,0.281,3.815,0.3,3.815,0.3 M350.957,211.091c0,0-1.05-3.125-1.899-4.274c-0.945-1.262-2.575-2.782-4.034-3.545c-0.549-0.287-2.02-0.506-2.02-0.506 M340.1,207.127c0,0,3.406,1.143,4.364,2.229c1.421,1.613,1.971,4.475,3.021,6.3c0.536,0.92,1.195,2.22,2.02,2.94c0.641,0.556,2.575,1.325,2.575,1.325 M343.574,217.988c0,0-3.058-4.341-3.809-5.28c-0.635-0.788-2.473-1.825-2.473-1.825 M331.592,203.675l-2.045,2.69l-4.626,2.779c0,0,0.69,1,1.423,1.41c0.47,0.25,1.556,0.445,2.076,0.292c0.97-0.299,2.281-0.866,2.918-1.586c0.317-0.368,0.519-1.471,0.519-1.471 M315.515,193.145c0,0,0.641,3.509,1.66,4.645c0.954,1.069,2.942,1.844,4.376,2.258c1.233,0.361,2.405,0.624,3.619,0.207c1.069-0.366,3.249-2.325,3.249-2.325s-0.8,2.74-1.661,3.619c-1.141,1.166-3.295,2.235-4.98,2.539c-1.1,0.195-2.638-0.086-3.694-0.414c-1.421-0.441-4.303-2.326-4.303-2.326 M307.146,200.8c0,0,0.16,3.533,1.056,4.791c0.695,0.982,2.319,1.721,3.089,2.668c0.725,0.88,1.355,1.899,1.739,2.943c0.41,1.111,1.124,4.724,1.124,4.724 M320.276,166.461c0,0,3.094,2.551,4.034,3.913c1.019,1.465,2.306,5.36,2.306,5.36 M231.152,177.716c0,0,2.197,2.186,3.471,2.589c1.154,0.366,2.649,0.781,3.851,0.945c1.075,0.146,3.193,0.22,3.193,0.22 M236.335,176.69c0,0,1.226,1.275,1.899,1.55c0.865,0.349,2.313,0.336,3.235,0.519c0.89,0.179,3.039,0,3.039,0 M241.656,175.66c0,0,3.193,0.5,4.559,0.689c0.794,0.111,2.661,0.342,2.661,0.342 M248.304,173.938c0,0,4.4,0.245,6.269,0.512c0.982,0.146,3.228,0.697,3.228,0.697 M253.809,171.699c0,0,4.29,0.592,6.079,1.031c1.287,0.324,4.181,1.38,4.181,1.38 M261.793,170.149c0,0,2.955,0.366,4.181,0.689c1.135,0.305,2.68,0.762,3.656,1.386c0.945,0.596,2.605,2.575,2.605,2.575 M379.284,84.606c0,0,0.617,4.12,0.574,5.89c-0.042,1.989-0.536,4.114-1.531,5.889c-0.751,1.344-2.869,3.527-4.462,3.962c-0.609,0.17-2.099-0.342-2.099-0.342 M379.284,102.619c0,0-3.009,4.79-3.98,6.97c-0.83,1.849-1.941,8.264-1.941,8.264 M379.857,114.734c0,0-2.215,3.405-2.674,5.028c-0.555,1.96-0.384,6.751-0.384,6.751 M387.878,106.256c0,0-2.105-3.058-2.674-4.505c-0.407-1.044-1.031-2.551-0.762-3.638c0.17-0.689,1.526-1.905,1.526-1.905 M353.394,135.925c0,0,0.207,2.001,0,2.839c-0.69,2.758-4.48,8.52-4.48,8.52s4.669-1.331,6.719-1.216c1.911,0.111,4.604,0.69,6.044,1.825c1.135,0.893,1.899,2.735,2.239,4.059c0.092,0.355,0,1.22,0,1.22 M329.249,112.849c0,0,2.783,1.05,3.68,1.982c1.001,1.025,1.911,3.809,2.551,5.055c0.426,0.83,1.136,1.982,2.014,2.441c0.531,0.269,2.014,0.195,2.014,0.195 M343.237,129.194l-5.549-1.619" />
    <path fill="#F9C93F" d="M161.329,105.401c0,0-0.812-2.68-0.592-3.826c0.427-2.215,3.23-4.298,3.826-6.476c0.396-1.451,0-5.005,0-5.005s4.268,0.391,5.896,1.179c1.349,0.654,2.985,2.039,2.985,2.039s0.14-1.751,0.549-2.924c0.47-1.361,1.971-2.522,2.4-3.9c0.372-1.19,0.25-3.761,0.25-3.761s3.711,1.38,4.711,2.656c0.397,0.5,0.586,2.056,0.586,2.056s2.791-3.271,2.949-5.005c0.099-1.031-1.179-3.24-1.179-3.24s4.236,0.981,5.305,2.355c0.982,1.276,0.885,5.305,0.885,5.305s0.958-2.856,1.764-3.833c1.245-1.514,5.299-3.826,5.299-3.826l-0.586,5.889c0,0,2.484-1.19,3.533-0.884c2.461,0.72,4.713,3.912,5.89,6.189c0.416,0.799,0.586,2.941,0.586,2.941s2.331-3.204,3.832-3.826c1.063-0.439,3.826,0,3.826,0s-0.805,3.101-0.586,4.419c0.421,2.533,3.546,5.103,3.829,7.655c0.123,1.093-0.886,3.539-0.886,3.539s4.12,6.342,5.011,9.419c1.007,3.497-0.384,8.05,1.361,11.236c0.427,0.781,1.479,1.721,2.356,1.77c1.025,0.055,2.466-0.927,2.466-0.927s-0.182,2.699-0.885,3.535c-0.684,0.824-3.24,1.47-3.24,1.47s0.513,2.161,0.586,3.534c0.079,1.38-0.454,4.406,0.432,5.835c0.811,1.312,2.363,2.273,3.869,1.949c0.374-0.086,1.399,0.049,1.795-0.386c0.842-0.91,0.976-2.684,0.976-2.684s0.683,2.545,0.292,3.532c-0.525,1.338-1.378,2.205-2.575,2.996c-1.214,0.819-4.681,1.02-5.376,2.307c-1.19,2.198,1.63,5.786,1.176,8.245c-0.327,1.795-2.698,3.499-2.94,5.299c-0.22,1.531,0.079,3.248,0.933,4.527c0.666,1.001,1.581,2.229,2.759,2.479c0.8,0.165,2.301-0.03,2.893-0.592c0.732-0.695,1.173-1.893,1.367-2.88c0.146-0.788,0.294-2.65,0.294-2.65s1.399,2.564,1.404,3.829c0.006,1.068-0.432,2.415-1.111,3.24c-0.97,1.173-2.704,2.411-4.125,2.943c-1.581,0.596-3.937,0.915-5.591,0.59c-1.479-0.286-4.419-2.355-4.419-2.355s-0.099,2.283-0.294,3.24c-0.292,1.367-0.439,3.485-1.476,4.419c-0.941,0.842-4.12,0.88-4.12,0.88s1.275,5.079,2.643,6.78c0.605,0.739,1.754,1.448,2.656,1.764c1.006,0.349,2.526,0.636,3.533,0.294c1.245-0.421,2.57-1.819,3.242-2.943c0.372-0.629,0.586-2.363,0.586-2.363s0.695,4.072,0,5.598c-0.825,1.825-3.108,3.777-5.005,4.419c-1.257,0.435-3.144,0.08-4.42-0.292c-0.872-0.256-1.775-1.214-2.649-1.471c-1.361-0.395-4.713-0.292-4.713-0.292s0.41,2.887,0.294,4.12c-0.128,1.367-0.756,3.113-1.177,4.419c-0.231,0.714-0.641,1.642-0.404,2.356c0.464,1.391,2.174,2.63,3.644,2.649c1.031,0.019,2.466-0.849,2.949-1.764c0.568-1.105-0.294-4.126-0.294-4.126s2.155,3.175,2.057,4.713c-0.067,1.031-0.94,2.337-1.764,2.943c-1.173,0.872-3.259,1.117-4.712,1.185c-1.165,0.055-2.757-0.141-3.832-0.592c-1.22-0.513-2.613-1.698-3.533-2.65c-1.497-1.55-3.131-3.978-4.126-5.889c-0.47-0.916-1.831-2.496-1.831-2.496s-1.806-0.08-2.881-0.151c-1.195-0.08-2.886-0.435-3.826-1.178c-0.964-0.769-1.544-2.424-2.062-3.535c-0.556-1.196-1.471-4.126-1.471-4.126s-4.509,2.967-5.298,5.005c-0.415,1.075-0.111,2.754,0.292,3.835c0.415,1.121,1.544,2.35,2.35,3.235c0.635,0.695,2.362,2.069,2.362,2.069s-3.974,0.415-5.597,0c-2.143-0.549-5.615-2.776-7.184-4.345c-1.421-1.421-2.594-3.614-3.339-5.488c-0.775-1.954-0.964-6.372-0.964-6.372l0.495-4.114c0,0-1.942,1.959-2.26,3.23c-0.286,1.115,0,3.826,0,3.826s-2.191-4.639-2.655-6.769c-0.342-1.563-0.615-3.743-0.292-5.305c0.238-1.16,1.764-3.533,1.764-3.533s-2.79-4.816-3.527-7.069c-0.96-2.893-1.959-6.964-1.77-10.015c0.146-2.399,2.356-7.654,2.356-7.654l-3.243,0.885c0,0-3.735-3.772-4.125-5.895c-0.5-2.785,1.294-6.508,2.363-9.125c0.536-1.325,1.787-2.82,2.349-4.126c0.732-1.696,1.77-5.889,1.77-5.889s-3.1-1.222-3.826-2.356c-0.811-1.276-0.586-5.005-0.586-5.005s2.13,1.739,3.235,2.056c0.849,0.25,2.228-0.958,2.228-0.958s-1.685-3.437-1.935-5.519c-0.134-1.154,0.061-2.795,0.592-3.826C159.18,107.056,161.329,105.401,161.329,105.401L161.329,105.401z" />
    <path fill="none" stroke="#A85305" stroke-width="1.6494" d="M161.329,105.401c0,0-0.812-2.68-0.592-3.826c0.427-2.215,3.23-4.298,3.826-6.476c0.396-1.451,0-5.005,0-5.005s4.268,0.391,5.896,1.179c1.349,0.654,2.985,2.039,2.985,2.039s0.14-1.751,0.549-2.924c0.47-1.361,1.971-2.522,2.4-3.9c0.372-1.19,0.25-3.761,0.25-3.761s3.711,1.38,4.711,2.656c0.397,0.5,0.586,2.056,0.586,2.056s2.791-3.271,2.949-5.005c0.099-1.031-1.179-3.24-1.179-3.24s4.236,0.981,5.305,2.355c0.982,1.276,0.885,5.305,0.885,5.305s0.958-2.856,1.764-3.833c1.245-1.514,5.299-3.826,5.299-3.826l-0.586,5.889c0,0,2.484-1.19,3.533-0.884c2.461,0.72,4.713,3.912,5.89,6.189c0.416,0.799,0.586,2.941,0.586,2.941s2.331-3.204,3.832-3.826c1.063-0.439,3.826,0,3.826,0s-0.805,3.101-0.586,4.419c0.421,2.533,3.546,5.103,3.829,7.655c0.123,1.093-0.886,3.539-0.886,3.539s4.12,6.342,5.011,9.419c1.007,3.497-0.384,8.05,1.361,11.236c0.427,0.781,1.479,1.721,2.356,1.77c1.025,0.055,2.466-0.927,2.466-0.927s-0.182,2.699-0.885,3.535c-0.684,0.824-3.24,1.47-3.24,1.47s0.513,2.161,0.586,3.534c0.079,1.38-0.454,4.406,0.432,5.835c0.811,1.312,2.363,2.273,3.869,1.949c0.374-0.086,1.399,0.049,1.795-0.386c0.842-0.91,0.976-2.684,0.976-2.684s0.683,2.545,0.292,3.532c-0.525,1.338-1.378,2.205-2.575,2.996c-1.214,0.819-4.681,1.02-5.376,2.307c-1.19,2.198,1.63,5.786,1.176,8.245c-0.327,1.795-2.698,3.499-2.94,5.299c-0.22,1.531,0.079,3.248,0.933,4.527c0.666,1.001,1.581,2.229,2.759,2.479c0.8,0.165,2.301-0.03,2.893-0.592c0.732-0.695,1.173-1.893,1.367-2.88c0.146-0.788,0.294-2.65,0.294-2.65s1.399,2.564,1.404,3.829c0.006,1.068-0.432,2.415-1.111,3.24c-0.97,1.173-2.704,2.411-4.125,2.943c-1.581,0.596-3.937,0.915-5.591,0.59c-1.479-0.286-4.419-2.355-4.419-2.355s-0.099,2.283-0.294,3.24c-0.292,1.367-0.439,3.485-1.476,4.419c-0.941,0.842-4.12,0.88-4.12,0.88s1.275,5.079,2.643,6.78c0.605,0.739,1.754,1.448,2.656,1.764c1.006,0.349,2.526,0.636,3.533,0.294c1.245-0.421,2.57-1.819,3.242-2.943c0.372-0.629,0.586-2.363,0.586-2.363s0.695,4.072,0,5.598c-0.825,1.825-3.108,3.777-5.005,4.419c-1.257,0.435-3.144,0.08-4.42-0.292c-0.872-0.256-1.775-1.214-2.649-1.471c-1.361-0.395-4.713-0.292-4.713-0.292s0.41,2.887,0.294,4.12c-0.128,1.367-0.756,3.113-1.177,4.419c-0.231,0.714-0.641,1.642-0.404,2.356c0.464,1.391,2.174,2.63,3.644,2.649c1.031,0.019,2.466-0.849,2.949-1.764c0.568-1.105-0.294-4.126-0.294-4.126s2.155,3.175,2.057,4.713c-0.067,1.031-0.94,2.337-1.764,2.943c-1.173,0.872-3.259,1.117-4.712,1.185c-1.165,0.055-2.757-0.141-3.832-0.592c-1.22-0.513-2.613-1.698-3.533-2.65c-1.497-1.55-3.131-3.978-4.126-5.889c-0.47-0.916-1.831-2.496-1.831-2.496s-1.806-0.08-2.881-0.151c-1.195-0.08-2.886-0.435-3.826-1.178c-0.964-0.769-1.544-2.424-2.062-3.535c-0.556-1.196-1.471-4.126-1.471-4.126s-4.509,2.967-5.298,5.005c-0.415,1.075-0.111,2.754,0.292,3.835c0.415,1.121,1.544,2.35,2.35,3.235c0.635,0.695,2.362,2.069,2.362,2.069s-3.974,0.415-5.597,0c-2.143-0.549-5.615-2.776-7.184-4.345c-1.421-1.421-2.594-3.614-3.339-5.488c-0.775-1.954-0.964-6.372-0.964-6.372l0.495-4.114c0,0-1.942,1.959-2.26,3.23c-0.286,1.115,0,3.826,0,3.826s-2.191-4.639-2.655-6.769c-0.342-1.563-0.615-3.743-0.292-5.305c0.238-1.16,1.764-3.533,1.764-3.533s-2.79-4.816-3.527-7.069c-0.96-2.893-1.959-6.964-1.77-10.015c0.146-2.399,2.356-7.654,2.356-7.654l-3.243,0.885c0,0-3.735-3.772-4.125-5.895c-0.5-2.785,1.294-6.508,2.363-9.125c0.536-1.325,1.787-2.82,2.349-4.126c0.732-1.696,1.77-5.889,1.77-5.889s-3.1-1.222-3.826-2.356c-0.811-1.276-0.586-5.005-0.586-5.005s2.13,1.739,3.235,2.056c0.849,0.25,2.228-0.958,2.228-0.958s-1.685-3.437-1.935-5.519c-0.134-1.154,0.061-2.795,0.592-3.826C159.18,107.056,161.329,105.401,161.329,105.401L161.329,105.401z" />
    <path fill="none" stroke="#A85305" stroke-width="1.3745" d="M172.144,123.645c0.488,3.087-2.856,6.902-2.807,10.027c0.019,1.599,1.844,2.111,1.581,3.693c-0.165,0.97-1.936,4.046-1.936,4.046s3.65-2.124,4.744-3.516c0.676-0.855,1.41-3.345,1.41-3.345s-1.173,5.212-0.701,7.386c0.513,2.38,2.643,5.36,2.643,5.36s0.208-2.205,0.666-3.387c0.33-0.831,2.674-1.27,2.674-1.27s-0.788,2.314-0.88,3.345c-0.068,0.682-0.074,1.648,0.171,2.289c0.439,1.121,1.569,2.355,2.466,3.167c0.366,0.336,1.404,0.879,1.404,0.879s-0.849-2.331-0.701-3.344c0.109-0.769,1.232-2.283,1.232-2.283s0.525,3.387,1.056,4.749c0.262,0.676,0.818,1.55,1.044,2.251c0.531,1.668,0.115,2.478-0.129,4.218c-0.099,0.72-0.88,2.845-0.88,2.845s3.304-1.674,4.085-3.034c0.519-0.91,0.676-2.611,0.725-3.667c0.025-0.708,0.031-0.745,0.031-0.745s1.208,1.38,1.41,2.112c0.263,0.964,0.093,1.195-0.134,2.173c-0.305,1.338-1.038,2.246-1.055,3.62c-0.012,1.012,0.567,2.393,1.232,3.161c1.349,1.569,5.286,3.002,5.286,3.002s-1.562-2.996-1.764-4.4c-0.146-1.05,0.683-2.106,1.049-3.101c0.544-1.451,2.418-2.783,2.992-4.224c0.414-1.038,0.574-2.569,0.53-3.686c-0.049-1.196-0.426-2.771-0.879-3.876c-0.495-1.208-2.289-3.693-2.289-3.693s-0.355-0.244,0.605,0.556c0.737,0.616,2.783,2.214,3.094,2.789c0.519,0.988,1.13,3.32,1.13,3.32s1.092-2.735,1.154-4.206c0.055-1.312-1.423-3.894-1.423-3.894l-0.689-1.732c0,0,2.399,1.605,2.991,2.643c0.695,1.209,1.349,4.107,1.349,4.107s1.929-3.546,1.782-5.17c-0.086-0.89-0.421-1.909-0.8-2.727c-0.361-0.769-1.8-2.545-1.8-2.545s2.344,0.508,2.886,1.179c0.624,0.77,1.88,3.29,1.88,3.29s1.27-2.26,1.485-4.645c0.151-1.855-1.179-5.243-1.911-5.78l-4.846-3.534 M166.9,93.664c0,0,1.587,1.319,1.674,2.125c0.091,0.916-1.575,1.842-1.367,2.735c0.164,0.726,1.935,0.769,1.97,1.512c0.08,1.68-4.095,3.796-4.095,3.796s2.081-4.785,2.276-6.976C167.438,95.892,166.9,93.664,166.9,93.664L166.9,93.664z M211.194,92.536c0,0-0.794,4.381,0.33,5.944c0.812,1.143,2.033,3.169,2.033,3.169s-1.081,0-1.454-0.226c-0.921-0.58-0.976-1.368-1.507-2.539c-0.372-0.817-1.226-2.239-1.397-3.474C209.051,94.368,211.194,92.536,211.194,92.536L211.194,92.536z M158.875,123.382c0,0,2.191,0.426,3.075,0.164c1.831-0.542,4.041-2.185,5.158-3.735c0.239-0.349,0.415-1.338,0.415-1.338 M156.794,148.658c0,0-0.618-3.938-0.25-5.574c0.329-1.451,1.336-3.283,2.331-4.4c2.014-2.27,8.312-5.738,8.312-5.738 M167.524,138.599c0,0-4.463,3.73-5.901,5.738c-0.709,0.989-1.752,3.656-1.752,3.656 M167.938,148.406c0,0-2.325,3.101-3.075,4.577c-0.923,1.795-1.869,4.345-2.331,6.318c-0.421,1.783-0.714,4.243-0.666,6.067c0.055,2.02,1,7.232,1,7.232 M166.23,181.024c0,0,2.96-2.911,2.973-5.48c0.012-1.88-2.301-4.389-2.643-6.239c-0.342-1.83,0.28-5.054,1.135-6.707c0.324-0.622,1.697-1.599,1.697-1.599 M182.617,187.824c0,0,2.588-3.186,2.551-4.823c-0.074-3.54-3.876-6.794-3.307-10.296c0.115-0.707,1.275-1.935,1.537-3.266c0.189-0.964-0.17-2.684-0.311-3.058c-0.397-1.092-3.211-1.982-3.211-1.982 M178.809,201.459c0,0-3.382-2.875-4.713-4.658c-1.226-1.636-2.02-3.449-2.094-4.394c-0.141-1.734-0.129-3.083,0.214-4.786c0.682-3.442,4.169-7.178,4.681-10.65c0.152-1.02-0.629-2.484-0.214-3.431c0.368-0.842,1.88-1.159,2.356-1.934c0.451-0.732,0.745-1.935,0.648-2.789c-0.074-0.574-0.861-1.715-0.861-1.715 M174.104,157.232c0,0-1.27,2.331-1.495,3.43c-0.226,1.075-0.501,2.674,0,3.65c0.537,1.069,2.674,1.294,3.216,2.363c0.519,1.031,0.519,2.825,0,3.864c-0.432,0.859-2.575,1.935-2.575,1.935s-1.179-4.188-1.075-6.012c0.044-0.672,0.646-2.149,0.646-2.149 M199.86,170.105c0,0,1.886,4.139,1.556,5.994c-0.238,1.361-2.197,2.693-2.149,4.076c0.025,0.611,1.075,1.721,1.075,1.721s-1.533,0.666-2.143,0.426c-0.819-0.318-1.417-1.538-1.715-2.361c-0.561-1.514,0.146-3.254-0.707-4.626c-0.391-0.641-2.57-1.795-2.57-1.795s2.289,7.684,1.471,10.351c-0.531,1.728-3.705,1.251-4.261,3.388c-0.33,1.257-0.208,3.304,0.648,4.29c0.701,0.819,2.283,1.19,3.247,0.704c0.905-0.464,1.715-1.837,1.715-1.837s0.659,2.619,0.092,3.551c-0.457,0.758-2.064,2.215-2.064,2.215 M204.029,184.119c0,0-0.824,2.05-0.683,2.949c0.311,1.954,3.394,5.651,3.394,5.651 M210.364,180.505l-0.909-4.301l-0.452-7.015 M211.719,159.68c0,0-1.08,3.681-0.678,5.206c0.72,2.717,5.659,7.466,5.659,7.466 M216.925,139.997c0,0,0.134,3.375,0.904,4.521c1.092,1.63,6.11,3.174,6.11,3.174 M212.629,146.106c0,0,5.194,5.488,6.561,8.368c1.338,2.839,2.26,10.188,2.26,10.188" />
    <path fill="none" stroke="#A85305" stroke-width="1.3608" d="M175.055,109.644c0.14,0.916,1.423,1.556,2.728,1.55l4.395-0.03c1.324-0.006,2.27,0.036,2.594-0.349c0.586-0.701-2.087-2.6-4.169-2.526l-3.43,0.129C176.124,108.452,174.939,108.844,175.055,109.644L175.055,109.644z M204.645,109.589c-0.14,0.916-1.423,1.556-2.728,1.55l-4.395-0.031c-1.325-0.006-2.27,0.037-2.594-0.346c-0.586-0.701,2.087-2.6,4.169-2.522l3.43,0.124C203.57,108.399,204.761,108.789,204.645,109.589L204.645,109.589z M173.846,106.275c5.676,0.158,12.981-0.159,14.092,3.113c-1-1.63,0.58-3.15-3.93-5.164h-10.243C173.304,104.908,172.254,105.59,173.846,106.275L173.846,106.275z M206.811,106.263c-5.675,0.158-12.981-0.16-14.092,3.112c1-1.624-0.58-3.144,3.93-5.164h10.243C207.355,104.895,208.405,105.577,206.811,106.263L206.811,106.263z M186.169,121.6c0,0-1.812,2.692-0.036,3.589c1.776,0.896,5.389,0.927,7.154,0c1.757-0.927-0.109-3.705-0.109-3.705 M194.63,106.58c-2.289,1.838-3.169,5.376-3.277,9.832 M185.444,133.966c2.741,0.55,5.548,0.794,8.399,0c1.47-0.408,0.898-1.435,0-1.745c-2.301-0.794-5.769-0.83-8.399,0C184.436,132.544,184.576,133.795,185.444,133.966L185.444,133.966z" />
    <path fill="none" stroke="#A85305" stroke-width="2.2906" d="M181.396,109.65c0,0.61-0.556,1.105-1.245,1.105c-0.684,0-1.239-0.495-1.239-1.105c0-0.605,0.555-1.099,1.239-1.099C180.841,108.551,181.396,109.045,181.396,109.65L181.396,109.65z M198.304,109.601c0,0.603,0.555,1.099,1.245,1.099c0.684,0,1.239-0.495,1.239-1.099c0-0.611-0.556-1.106-1.239-1.106C198.859,108.495,198.304,108.991,198.304,109.601L198.304,109.601z" />
  </g>
  <g>
    <path fill="#F9C93F" stroke="#A85305" stroke-width="1.25" d="M99.318,55.212c0,0-0.409,4.913-1.306,10.656c-0.895,5.744-2.289,12.317-2.289,12.317c0.959-3.539,2.736-4.725,4.651-7.154l1.042-0.464l0.037-0.019l1.044-0.456c2.21,1.274,4.28,0.311,6.128,2.728c0,0-2.82-4.505-5.145-8.913C101.149,59.509,99.318,55.212,99.318,55.212L99.318,55.212z M119.599,54.389c0,0-1.257,4.766-3.137,10.264c-1.885,5.499-4.4,11.73-4.4,11.73c1.556-3.312,3.516-4.175,5.822-6.231l1.112-0.275l0.036-0.012l1.113-0.275c1.958,1.649,4.156,1.05,5.559,3.755c0,0-1.989-4.925-3.52-9.669C120.655,58.935,119.599,54.389,119.599,54.389L119.599,54.389z M139.106,56.964c0,0-2.039,4.493-4.821,9.594c-2.783,5.101-6.311,10.823-6.311,10.823c2.093-3.01,4.168-3.522,6.794-5.164l1.135-0.086l0.042,0.001l1.143-0.086c1.649,1.954,3.917,1.739,4.847,4.632c0,0-1.136-5.189-1.844-10.119C139.38,61.626,139.106,56.964,139.106,56.964L139.106,56.964z M157.202,62.518c0,0-2.735,4.097-6.318,8.68c-3.57,4.584-7.985,9.656-7.985,9.656c2.557-2.625,4.688-2.801,7.544-3.993l1.136,0.103h0.044l1.135,0.105c1.311,2.191,3.589,2.35,4.029,5.358c0,0-0.274-5.305-0.169-10.284C156.72,67.162,157.202,62.518,157.202,62.518L157.202,62.518z M79.467,59.557c0,0,0.458,4.906,0.574,10.719c0.111,5.809-0.115,12.53-0.115,12.53c0.33-3.65,1.874-5.132,3.338-7.855l0.948-0.636l0.031-0.024l0.951-0.635c2.399,0.872,4.268-0.439,6.507,1.617c0,0-3.56-3.942-6.615-7.874C82.019,63.47,79.467,59.557,79.467,59.557L79.467,59.557z M62.052,66.584c0,0,1.241,4.771,2.289,10.493c1.049,5.72,1.904,12.385,1.904,12.385c-0.262-3.656,1.025-5.364,2.033-8.287l0.83-0.783l0.03-0.03l0.836-0.781c2.51,0.481,4.139-1.119,6.677,0.555c0,0-4.144-3.32-7.794-6.708C65.205,70.037,62.052,66.584,62.052,66.584L62.052,66.584z M45.532,76.666c0,0,2.014,4.499,3.999,9.967c1.982,5.463,3.93,11.895,3.93,11.895c-0.866-3.558,0.123-5.456,0.63-8.51l0.689-0.907l0.025-0.03l0.695-0.91c2.55,0.055,3.894-1.789,6.676-0.569c0,0-4.639-2.588-8.801-5.323C49.206,79.549,45.532,76.666,45.532,76.666L45.532,76.666z" />
    <path fill="none" stroke="#A85305" stroke-width="1.25" d="M99.591,56.945l1.854,13.612 M119.567,56.14l-0.537,13.728 M138.788,58.69l-2.85,13.441 M156.611,64.168l-4.994,12.796 M80.049,61.213l4.194,13.079 M62.89,68.128l6.25,12.236 M46.613,78.051l8.192,11.03" />
    <path fill="#F9C93F" stroke="#A85305" stroke-width="1.25" d="M103.369,73.376l-0.781-2.66l-2.069,0.878l0.03,3.034L103.369,73.376z M117.933,70.729l-0.494,2.988l2.996-0.736l-0.31-2.761L117.933,70.729z M134.716,72.798l-0.993,2.862l3.075-0.226l0.158-2.772L134.716,72.798z M151.93,80.365l0.603-2.71l-2.234-0.231l-1.442,2.66L151.93,80.365z M86.626,76.739l-1.239-2.489l-1.88,1.231l0.555,2.98L86.626,76.739z M71.881,82.393l-1.617-2.254l-1.661,1.513l1.031,2.85L71.881,82.393z M54.487,90.442l1.488,2.635l1.867-2.452l-1.971-1.952L54.487,90.442z" />
    <path fill="#F9C93F" stroke="#A85305" stroke-width="1.3314" d="M119.494,212.852L101.313,75.251l1.598-0.905l18.183,137.604L119.494,212.852z M119.811,73.857l-6.017,138.667l-1.734,0.61l6.019-138.664L119.811,73.857z M136.036,76.198L106.725,211.86l-1.813,0.31L134.224,76.5L136.036,76.198z M98.284,210.12l50.935-129.114l1.836-0.012l-50.934,129.113L98.284,210.12z M126.77,211.28L84.925,78.942l1.415-1.164l41.853,132.336L126.77,211.28z M133.159,208.721L70.556,84.845l1.215-1.386l62.604,123.877L133.159,208.721z M57.909,91.699l82.284,111.778l-0.972,1.565L56.945,93.263L57.909,91.699z" />
    <path fill="#F9C93F" stroke="#A85305" stroke-width="1.25" stroke-linejoin="round" d="M94.429,195.283c-2.081-2.466,2.282-4.956,5.132-7.44l49.683-10.798l-15.235-70.099l-50.89,11.059c0.052,0.25-5.92,1.739-6.679,6.793c0.093,0.594,0.423,0.964,1.069,1.037l2.446,11.28c-0.621,0.556-0.683,1.3-0.599,2.1c0.355,0.776,0.685,1.173,1.312,1.166l2.307,10.626c-0.567,0.799-0.915,1.519-0.707,2.288c0.262,1.062,0.905,1.404,1.659,1.429l2.192,10.113c-0.439,0.439-0.923,0.844-0.787,2.185c0.275,1.081,1.001,1.239,1.619,1.619l2.245,10.339c-1.429,1.476-0.519,2.943,1.269,3.241l2.081,9.809c-0.524,0.475-0.476,1.812-0.231,2.588c0.244,0.774,0.989,1.935,1.946,1.831l51.695-11.236l-1.544-7.118" />
    <path fill="#F9C93F" d="M99.664,187.849c-6.714,4.779-6.25,6.213-5.28,7.409l50-10.857c-0.122-0.165-0.231-0.324-0.33-0.483c-0.11-0.182-0.212-0.36-0.292-0.531c-0.134-0.281-0.226-0.549-0.281-0.8c-0.061-0.311-0.074-0.602-0.03-0.872c0.042-0.349,0.158-0.659,0.33-0.964c0.206-0.38,0.506-0.726,0.843-1.056c0.335-0.33,0.708-0.641,1.086-0.947c0.488-0.395,0.983-0.793,1.409-1.208L99.664,187.849z" />
    <path fill="none" stroke="#A85305" stroke-width="1.25" stroke-linejoin="round" d="M80.041,137.145c1.503-2.661,4.357-4.249,6.959-5.536 M82.935,151.012c3.174-3.576,5.053-4.114,7.238-5.354 M86.139,164.837c1.643-2.24,4.183-3.99,6.874-5.676 M89.207,178.98c1.911-2.674,4.162-4.261,6.494-5.584 M92.534,192.169c1.532-2.331,3.607-4.241,6.092-5.854 M83.693,122.009c0.701-0.979,1.143-0.714,1.649-0.902 M84.424,125.397c0.708-0.983,1.14-0.72,1.647-0.91 M85.162,128.779c0.7-0.976,1.14-0.714,1.643-0.905 M86.78,136.224c0.707-0.982,1.14-0.714,1.643-0.904 M87.519,139.613c0.701-0.982,1.141-0.72,1.641-0.91 M88.25,142.992c0.708-0.981,1.14-0.72,1.643-0.904 M89.721,149.761c0.708-0.981,1.135-0.719,1.643-0.902 M90.459,153.143c0.701-0.976,1.136-0.713,1.643-0.904 M91.193,156.53c0.702-0.982,1.143-0.72,1.644-0.904 M92.736,163.636c0.708-0.976,1.143-0.714,1.649-0.904 M93.469,167.016c0.708-0.976,1.143-0.714,1.643-0.899 M94.207,170.405c0.708-0.976,1.143-0.714,1.643-0.905 M95.751,177.507c0.707-0.976,1.136-0.713,1.643-0.904 M96.491,180.889c0.7-0.975,1.136-0.714,1.643-0.904 M97.224,184.276c0.701-0.976,1.143-0.714,1.641-0.91 M99.664,187.849c-6.713,4.78-6.25,6.213-5.28,7.409l50-10.857c-0.122-0.165-0.232-0.324-0.331-0.483c-0.109-0.182-0.214-0.361-0.292-0.531c-0.134-0.28-0.226-0.549-0.28-0.8c-0.061-0.311-0.074-0.602-0.031-0.872c0.043-0.349,0.158-0.659,0.33-0.964c0.208-0.378,0.506-0.727,0.843-1.057c0.335-0.33,0.708-0.64,1.086-0.945c0.487-0.396,0.982-0.794,1.411-1.207L99.664,187.849z M104.169,180.827l37.683-8.19l-12.658-58.264l-37.683,8.185L104.169,180.827z M102.331,183.611l42.354-9.21l-13.655-62.812l-42.351,9.205L102.331,183.611z M111.206,135.144l-2.172-10.181l5.084-1.142l2.178,10.182l10.189-2.272l1.084,5.09l-10.18,2.278l4.352,20.375l-5.096,1.14l-4.351-20.373l-10.183,2.277l-1.086-5.098L111.206,135.144z" />
    <path fill="#F9C93F" stroke="#A85305" stroke-width="0.9945" d="M75.294,155.268c1.941,6.176,0.885,13.396-2.144,18.347l-0.7-0.104l0.567,0.311c-0.519,0.824-1.086,1.58-1.709,2.253l4.761-0.592l3.119,1.702c0.189,0.22,0.355,0.448,0.624,0.342c1.019-0.349,1.47-1.751,1.677-2.745c0.435-2.192,0.647-4.651,0.52-6.372c-0.201-5.464-1.368-9.193-2.991-12.105L75.294,155.268z" />
    <path fill="#F9C93F" d="M80.584,159.974c-1.159-3.083-2.757-4.62-5.323-3.73c-4.552,0.976-8.606,5.231-11.164,6.488c-3.241,1.507-3.692,0.281-4.443-0.481l-1.166-3.887l7.531-11.005c-0.201,0.708-0.659,2.837,1.031,2.149c2.619-1.35,5.164-3.755,8.094-1.715c1.336,1.275,0.305,4.298,3.851,8.424C79.857,157.409,80.219,158.69,80.584,159.974L80.584,159.974z" />
    <path fill="none" stroke="#A85305" stroke-width="0.9945" d="M80.584,159.974c-1.159-3.081-2.757-4.62-5.323-3.73c-4.555,0.976-8.606,5.231-11.162,6.488c-3.243,1.507-3.694,0.281-4.444-0.482l-1.165-3.888l7.531-11.005c-0.201,0.71-0.658,2.837,1.033,2.149c2.619-1.35,5.162-3.754,8.094-1.715c1.336,1.275,0.306,4.298,3.851,8.424C79.857,157.411,80.218,158.69,80.584,159.974L80.584,159.974z M66.064,148.821c-0.22,0.708-0.726,2.839,1.074,2.136c2.801-1.38,5.531-3.809,8.619-1.806" />
    <path fill="#F9C93F" d="M59.711,162.34c-1.3-5.194,2.356-8.08,2.38-8.288c3.687-3.956,7.05-8.081,10.761-12.762c2.442-4.005,5.86-8.471,4.73-10.675c-2.741-5.091-7.099-4.327-10.798-5.964c0.239,1.795,1.479,3.566,0.562,5.385c-4.67,9.161-11.426,11.601-13.948,19.074c-0.427,2.264,0.08,3.686,1.124,5.163C56.756,156.744,58.111,159.595,59.711,162.34L59.711,162.34z" />
    <path fill="none" stroke="#A85305" stroke-width="0.9945" d="M59.711,162.342c-1.3-5.194,2.355-8.081,2.381-8.289c3.686-3.954,7.05-8.08,10.759-12.761c2.442-4.005,5.861-8.471,4.73-10.676c-2.74-5.091-7.099-4.327-10.796-5.962c0.237,1.794,1.476,3.562,0.561,5.381c-4.669,9.161-11.425,11.604-13.945,19.074c-0.428,2.264,0.079,3.688,1.122,5.164C56.756,156.744,58.111,159.595,59.711,162.342L59.711,162.342z M76.264,156.103c2.405,7.537,0.28,16.339-4.419,21.276 M79.089,176.861c0.537,0.019,0.861-0.401,1.221-1.209c1.094-2.525,1.263-5.505,1.019-8.599c-0.129-3.254-0.586-5.89-1.275-8.113 M78.039,155.065c-0.83-0.549-1.812-0.666-3.007-0.25c-4.56,0.976-8.612,5.231-11.169,6.488c-3.243,1.507-3.694,0.287-4.438-0.481 M68.59,126.842c0.855,0.556,0.72,2.887-0.256,4.499c-4.662,9.159-11.425,11.596-13.939,19.074c-0.427,2.264,0.079,3.688,1.124,5.158 M58.751,161.225c-1.306-5.188,2.356-8.081,2.375-8.283c3.692-3.956,7.056-8.083,10.768-12.769c1.817-2.99,4.192-6.245,4.801-8.611c0.092-0.531,0.105-1.081,0.149-1.649" />
    <path fill="#F9C93F" stroke="#A85305" stroke-width="1.1204" d="M82.641,194.525c-2.075-5.654-4.608-10.908-4.113-18.874l-7.21-3.766c-0.346-0.214-1.294,0.72-1.16,2.246c0.868,13,4.309,14.905,6.463,22.357c-1.39-5.846-3.38-11.458-2.044-18.371C75.494,186.768,79.768,189.399,82.641,194.525L82.641,194.525z M79.175,177.184c-0.318-0.537-0.146-1.916-0.648-1.434 M72.029,172.345c-0.33,0.084-1.025,0.781-0.957,2.008c0.871,13,2.906,12.744,5.061,20.198 M82.22,193.75c-2.014-4.438-5.244-10.632-4.749-18.64" />
    <path fill="#F9C93F" stroke="#A85305" stroke-width="1.1515" d="M77.801,132.196c-0.646-3.186-3.583-4.145-5.28-4.486l-7.8-1.099c-0.878-0.17-1.233-1.111-1.336-1.978l-0.812-4.669l4.181-6.389c-0.05,0.86-0.38,2.393,0.299,2.77c2.514,1.1,4.772-0.389,7.324,3.255c0.836,1.099,1.575,5.878,2.941,9.93C77.894,131.105,77.825,132.239,77.801,132.196L77.801,132.196z M77.624,130.738c-0.647-3.193-3.583-4.15-5.279-4.486l-7.8-1.099c-0.64-0.085-1.232-1.115-1.337-1.982 M66.329,115.686c-0.025,0.714,0.055,1.386,0.482,1.636c2.82,1.319,5.315-0.366,8.209,3.906" />
    <path fill="#F9C93F" d="M99.414,85.87c-3.131,0.426-6.33,0.976-9.656,1.649c-1.239,0.207-2.685,0.475-4.211,0.842c-14.776,3.509-40.863,13.586-39.008,19.225l9.113,9.412l7.905,8.361C63.051,118,89.15,110.235,95.368,108.245c10.925-2.569,16.566-3.583,24.268-3.881c12.214-0.531,20.642,0.439,30.024,0.457c-0.036-7.368,0.189-13.495,1.283-19.256C137.994,85.144,121.062,82.893,99.414,85.87L99.414,85.87z" />
    <path fill="none" stroke="#A85305" stroke-width="0.9945" d="M99.414,85.87c-3.131,0.426-6.33,0.976-9.656,1.646c-1.239,0.207-2.685,0.476-4.211,0.843c-14.776,3.509-40.864,13.586-39.01,19.226l9.112,9.411l7.904,8.361c-0.506-7.359,25.592-15.125,31.811-17.114c10.925-2.569,16.566-3.582,24.268-3.881c12.214-0.531,20.644,0.441,30.025,0.457c-0.037-7.367,0.189-13.494,1.281-19.255C137.994,85.144,121.064,82.893,99.414,85.87L99.414,85.87z M149.584,87.096c-12.616-0.555-28.875-2.562-49.488,0.245c-3.089,0.42-6.316,0.939-9.601,1.605c-13.099,2.209-44.634,13.722-42.571,19.946 M149.584,87.096c0.331,0.019,0.677,0.061,1.007,0.074c0.013-0.098,0.055-0.189,0.074-0.288L149.584,87.096z M141.333,103.337c-6.685-0.256-13.441-0.645-22.303-0.261c-2.887,0.11-5.524,0.323-8.221,0.682c-4.493,0.605-9.218,1.594-16.045,3.2c-6.226,1.989-32.831,9.856-32.325,17.218 M141.333,103.337c2.727,0.111,5.527,0.208,8.331,0.195" />
    <path fill="#A85305" d="M70.618,110.326c-0.074-0.176-0.085-0.36-0.043-0.536c0.043-0.185,0.134-0.306,0.293-0.361l0.368-0.14c0.324-0.122,0.525-0.299,0.605-0.531c0.061-0.164,0.018-0.439-0.127-0.824l-2.221-5.841c-0.105-0.275-0.214-0.457-0.318-0.537c-0.146-0.043-0.319-0.025-0.525,0.055l-1.05,0.398c-0.275,0.105-0.451,0.14-0.525,0.109c-0.055-0.042-0.208-0.384-0.451-1.025c0-0.067,0.244-0.225,0.744-0.464c0.495-0.244,0.915-0.506,1.27-0.787c0.445-0.34,0.794-0.708,1.05-1.093c0.25-0.391,0.506-0.635,0.775-0.732c0.451-0.17,0.794,0.025,1.013,0.605l3.125,8.223c0.128,0.343,0.281,0.568,0.458,0.665c0.214,0.141,0.427,0.164,0.63,0.091l0.395-0.151c0.402-0.153,0.69,0.006,0.874,0.475c0.189,0.507,0.099,0.831-0.287,0.976l-5.188,1.971C71.094,111.018,70.806,110.834,70.618,110.326L70.618,110.326z M86.493,99.011c-0.096,0.031-0.359,0.013-0.786-0.055c-0.423-0.061-0.855-0.238-1.295-0.531c-0.433-0.286-0.737-0.732-0.914-1.33c-0.232-1.1,0.085-1.99,0.957-2.674c0.865-0.69,1.959-1.222,3.271-1.6c1.349-0.366,2.533-0.439,3.564-0.212c1.031,0.225,1.665,0.775,1.921,1.646c0.336,1.27-0.189,2.276-1.586,3.021c0.836-0.055,1.586,0.091,2.257,0.439c0.665,0.349,1.136,0.904,1.403,1.661c0.409,1.429,0.245,2.581-0.487,3.449c-0.732,0.865-2.039,1.586-3.919,2.149c-1.739,0.5-3.144,0.555-4.218,0.164c-1.075-0.391-1.776-1.165-2.106-2.319c-0.141-0.58-0.134-1.105,0.013-1.581c0.146-0.476,0.359-0.874,0.628-1.19c0.275-0.317,0.544-0.561,0.806-0.737C86.268,99.126,86.426,99.03,86.493,99.011L86.493,99.011z M88.47,99.17c-0.055,0.018-0.25,0.176-0.586,0.488c-0.343,0.311-0.628,0.684-0.861,1.124c-0.238,0.439-0.299,0.891-0.183,1.361c0.171,0.599,0.58,0.989,1.226,1.173c0.64,0.183,1.38,0.152,2.202-0.086c0.745-0.244,1.338-0.574,1.776-0.994c0.439-0.415,0.618-0.904,0.519-1.465c-0.25-0.885-0.855-1.397-1.8-1.531C89.812,99.104,89.05,99.084,88.47,99.17L88.47,99.17z M90.826,94.97c-0.116-0.398-0.385-0.641-0.812-0.733c-0.426-0.084-0.945-0.049-1.556,0.13c-1.512,0.463-2.155,1.121-1.909,1.976c0.129,0.432,0.542,0.677,1.262,0.732c0.714,0.055,1.198,0.049,1.447-0.025c0.214-0.061,0.561-0.299,1.044-0.72C90.779,95.911,90.955,95.454,90.826,94.97L90.826,94.97z M114.289,94.458c0.145,1.136,0.096,2.186-0.141,3.15c-0.245,0.97-0.739,1.787-1.489,2.459c-0.758,0.677-1.783,1.099-3.076,1.269c-1.911,0.245-3.381-0.157-4.406-1.214c-1.032-1.05-1.661-2.466-1.892-4.242c-0.146-1.135-0.099-2.191,0.145-3.161c0.245-0.97,0.739-1.795,1.489-2.459c0.751-0.673,1.776-1.088,3.076-1.257c1.3-0.165,2.399-0.025,3.296,0.433c0.898,0.457,1.58,1.13,2.063,2.008C113.831,92.321,114.143,93.328,114.289,94.458L114.289,94.458z M108.21,90.693c-0.88,0.115-1.454,0.641-1.709,1.587c-0.263,0.939-0.318,2.014-0.158,3.204c0.151,1.19,0.469,2.209,0.964,3.058c0.488,0.843,1.178,1.209,2.056,1.1c0.886-0.118,1.46-0.643,1.716-1.575c0.256-0.934,0.305-2.004,0.153-3.211c-0.16-1.214-0.476-2.241-0.965-3.076C109.784,90.942,109.094,90.576,108.21,90.693L108.21,90.693z M132.556,94.396c-0.019,1.143-0.22,2.174-0.599,3.095c-0.379,0.926-0.989,1.665-1.825,2.22c-0.843,0.556-1.916,0.825-3.229,0.806c-1.924-0.031-3.32-0.641-4.188-1.838c-0.868-1.189-1.281-2.68-1.251-4.474c0.019-1.143,0.22-2.18,0.599-3.106c0.379-0.921,0.989-1.667,1.831-2.215c0.836-0.556,1.911-0.819,3.221-0.8c1.313,0.025,2.375,0.324,3.199,0.909c0.819,0.58,1.405,1.342,1.751,2.282C132.41,92.219,132.575,93.256,132.556,94.396L132.556,94.396z M127.087,89.789c-0.891-0.013-1.532,0.426-1.924,1.324c-0.395,0.899-0.603,1.949-0.621,3.15c-0.019,1.196,0.152,2.253,0.513,3.162c0.368,0.91,0.989,1.372,1.88,1.384c0.892,0.019,1.533-0.42,1.924-1.306c0.391-0.891,0.592-1.941,0.616-3.155c0.019-1.226-0.151-2.282-0.506-3.186C128.607,90.266,127.979,89.808,127.087,89.789L127.087,89.789z" />
  </g>
</svg>
