<svg xmlns="http://www.w3.org/2000/svg" width="450px" height="300px" viewBox="0 0 450 300">
  <path fill="#0073CF" d="M0,0h450v300H0V0z" />
  <path fill="#FFFFFF" d="M0,100h450v100H0V100z" />
  <path fill="#0073CF" d="M240.851,144.85l-9.796,7.117l3.742,11.516L225,156.366l-9.796,7.118l3.742-11.516l-9.796-7.117h12.109L225,133.333l3.742,11.516h12.109V144.85z M302.279,125.301l-3.742,11.516l9.796-7.118l9.796,7.118l-3.742-11.516l9.796-7.118h-12.109l-3.742-11.516l-3.742,11.516h-12.109L302.279,125.301z M312.075,168.183l-3.742-11.516l-3.742,11.516h-12.109l9.796,7.118l-3.742,11.516l9.796-7.118l9.796,7.118l-3.742-11.516l9.796-7.118H312.075z M141.667,106.667l-3.742,11.516h-12.109l9.796,7.118l-3.742,11.516l9.796-7.118l9.796,7.118l-3.742-11.516l9.796-7.118h-12.109L141.667,106.667z M145.409,168.183l-3.742-11.516l-3.742,11.516h-12.109l9.796,7.118l-3.742,11.516l9.796-7.118l9.796,7.118l-3.742-11.516l9.796-7.118H145.409z" />
</svg>
