<svg xmlns="http://www.w3.org/2000/svg" width="450px" height="300px" viewBox="0 0 450 300">
  <path fill="#FFD018" d="M0,0h450v300H0V0z" />
  <g>
    <path fill="#FFFFFF" stroke="#000000" stroke-width="1.6454" d="M176.958,55.749c-5.606,7.003-12.501,13.686-23.079,15.091l0.915,74.104c4.454,56.895,51.199,99.463,70.205,99.463s65.751-42.568,70.205-99.463l0.915-74.104c-10.579-1.403-17.474-8.088-23.08-15.091c-16.479,6.095-33.477,9.28-48.04,9.412c-14.563-0.133-31.562-3.318-48.04-9.412H176.958z" />
    <path fill="#D20000" stroke="#000000" stroke-width="1.6454" d="M178.197,60.266c-4.227,5.255-11.46,11.297-20.365,13.527l0.873,70.898c2.162,27.439,14.576,51.605,28.757,68.83c7.095,8.617,14.629,15.486,21.386,20.113c6.757,4.627,12.859,6.853,16.148,6.853s9.391-2.226,16.148-6.853c6.757-4.627,14.291-11.497,21.386-20.113c14.182-17.224,26.597-41.39,28.757-68.83l0.873-70.898c-8.904-2.229-15.379-7.691-20.362-13.527c-16.062,5.638-32.433,8.685-46.768,8.815h-0.071C210.624,68.95,195.236,66.148,178.197,60.266z" />
    <radialGradient id="Gradient_ID_KA_1" cx="137.9948" cy="57.8851" r="7.8111" gradientTransform="matrix(7.6969 0 0 -9.2835 -837.131 687.3762)" gradientUnits="userSpaceOnUse">
      <stop offset="0" style="stop-color:#7BD26C" />
      <stop offset="1" style="stop-color:#48AF36" />
    </radialGradient>
    <path fill="url(#Gradient_ID_KA_1)" d="M208.944,83.396c-6.382,12.71-11.059,8.897-27.872,20.085c-38.169,25.397,3.365,79.801,18.736,98.676l-5.388,9.497c6.388,4.314,15.679,9.192,30.578,10.359c14.9-1.165,24.192-6.045,30.578-10.359l-5.388-9.497c15.371-18.876,56.905-73.279,18.736-98.676c-16.813-11.188-21.492-7.374-27.874-20.085c-1.886-4.353-10.4-5.408-16.054-5.408s-14.073,1.53-16.054,5.408H208.944z" />
    <path fill="#FFFFFF" stroke="#DADADA" stroke-width="0.8257" stroke-linejoin="round" d="M199.508,203.455l-4.295,8.553c9.094,5.261,19.38,8.15,29.707,8.15c10.327,0,20.613-2.889,29.707-8.15l-4.295-8.553c-7.805,4.542-16.538,6.92-25.41,6.92c-8.873,0-17.606-2.379-25.412-6.921L199.508,203.455z" />
    <path fill="#000000" d="M199.655,211.334l2.015-4.82l0.905,0.438l-2.015,4.82L199.655,211.334z M202.179,210.687l0.935,0.276c-0.061,0.347-0.036,0.631,0.074,0.852c0.113,0.221,0.311,0.389,0.592,0.505c0.298,0.122,0.546,0.147,0.744,0.074c0.201-0.075,0.333-0.203,0.397-0.385c0.041-0.117,0.044-0.229,0.008-0.336c-0.033-0.109-0.119-0.226-0.256-0.352c-0.094-0.085-0.316-0.258-0.665-0.52c-0.449-0.336-0.74-0.642-0.873-0.917c-0.186-0.387-0.21-0.776-0.071-1.167c0.089-0.252,0.238-0.459,0.447-0.623c0.211-0.166,0.461-0.255,0.75-0.267c0.291-0.012,0.613,0.054,0.965,0.198c0.576,0.236,0.961,0.549,1.155,0.939c0.196,0.392,0.221,0.818,0.076,1.277l-0.942-0.336c0.05-0.27,0.029-0.487-0.064-0.652c-0.09-0.166-0.265-0.302-0.526-0.409c-0.269-0.11-0.501-0.137-0.695-0.08c-0.125,0.036-0.211,0.119-0.256,0.247c-0.041,0.117-0.031,0.236,0.032,0.356c0.08,0.154,0.325,0.38,0.735,0.679c0.41,0.299,0.701,0.555,0.873,0.767c0.174,0.21,0.283,0.446,0.329,0.709c0.048,0.262,0.018,0.548-0.092,0.861c-0.1,0.283-0.267,0.518-0.5,0.705c-0.233,0.187-0.505,0.286-0.815,0.298c-0.309,0.009-0.663-0.068-1.062-0.23c-0.58-0.237-0.974-0.564-1.183-0.979c-0.208-0.417-0.245-0.914-0.111-1.491L202.179,210.687z M206.574,214.261l1.371-5.074l3.495,1.094l-0.232,0.859l-2.544-0.795l-0.305,1.124l2.367,0.741l-0.23,0.855l-2.367-0.741l-0.373,1.382l2.633,0.824l-0.23,0.855L206.574,214.261z M211.437,215.723l0.964-5.182l0.945,0.205l1.326,3.885l0.644-3.461l0.903,0.194l-0.964,5.182l-0.976-0.211l-1.312-3.797l-0.629,3.379L211.437,215.723z M219.088,217.12l0.295-5.276l1.48,0.095l0.688,3.656l1.08-3.541l1.485,0.097l-0.295,5.276l-0.92-0.059l0.232-4.153l-1.205,4.089l-0.953-0.062l-0.736-4.215l-0.232,4.153L219.088,217.12z M225.067,212.141l0.991-0.044l0.108,2.859c0.017,0.454,0.04,0.747,0.07,0.88c0.051,0.214,0.158,0.384,0.321,0.509c0.166,0.122,0.387,0.177,0.664,0.165c0.281-0.012,0.49-0.083,0.629-0.212c0.138-0.131,0.219-0.287,0.241-0.468c0.022-0.182,0.025-0.481,0.009-0.898l-0.111-2.921l0.991-0.044l0.105,2.773c0.024,0.634,0.014,1.083-0.03,1.347c-0.043,0.264-0.134,0.489-0.273,0.676c-0.136,0.186-0.323,0.338-0.559,0.458c-0.237,0.116-0.55,0.183-0.938,0.2c-0.469,0.02-0.827-0.022-1.074-0.126c-0.245-0.107-0.442-0.25-0.589-0.429c-0.147-0.181-0.247-0.372-0.3-0.574c-0.076-0.3-0.125-0.745-0.147-1.336L225.067,212.141z M230.708,217.094l-0.615-5.2l0.983-0.135l0.511,4.317l2.445-0.335l0.105,0.883L230.708,217.094z M239.621,215.421l-1.055,0.242l-0.652-1.077l-1.92,0.441l-0.164,1.265l-1.029,0.236l0.845-5.598l1.026-0.235L239.621,215.421z M237.43,213.787l-1.042-1.765l-0.268,2.067L237.43,213.787z M240.583,215.126l-1.442-5.051l0.921-0.305l2.885,2.738l-0.964-3.373l0.88-0.291l1.442,5.051l-0.95,0.315l-2.833-2.668l0.941,3.294L240.583,215.126z M247.166,210.627l-0.314-0.824l1.977-0.87l0.741,1.948c-0.116,0.285-0.328,0.584-0.635,0.898c-0.306,0.311-0.646,0.549-1.02,0.714c-0.476,0.209-0.931,0.285-1.365,0.227c-0.435-0.061-0.818-0.251-1.147-0.57c-0.33-0.322-0.584-0.718-0.762-1.188c-0.194-0.509-0.267-1.006-0.218-1.489c0.047-0.483,0.223-0.914,0.526-1.294c0.229-0.291,0.561-0.532,0.995-0.723c0.565-0.248,1.054-0.314,1.467-0.197c0.414,0.113,0.752,0.375,1.014,0.785l-0.841,0.585c-0.156-0.212-0.348-0.348-0.579-0.408c-0.229-0.063-0.476-0.036-0.739,0.08c-0.401,0.177-0.668,0.454-0.802,0.832c-0.131,0.378-0.095,0.835,0.109,1.373c0.22,0.581,0.506,0.964,0.856,1.15c0.349,0.184,0.719,0.19,1.108,0.02c0.192-0.085,0.369-0.21,0.53-0.374c0.163-0.168,0.291-0.34,0.386-0.517l-0.236-0.621L247.166,210.627z" />
    <g>
      <path fill="#FFDE00" stroke="#A07843" stroke-width="0.9091" stroke-linejoin="round" d="M218.452,223.336l-12.203,6.126c3.606,3.289,8.242,0.189,12.383-1.765c3.63-1.714,6.738-2.041,10.339-3.212c-3.32-0.708-5.73-2.982-10.52-1.15V223.336z" />
      <path fill="#FFDE00" stroke="#A07843" stroke-width="0.9091" stroke-linejoin="round" d="M212.294,220.05l4.254,0.236c3.362,9.456,18.566,4.608,16.544,0.236l5.042-0.788c-0.017,5.733-5.183,9.947-12.683,9.847c-4.191-0.055-11.645-2.945-13.156-9.532H212.294z" />
      <path fill="#FFDE00" stroke="#A07843" stroke-width="0.9091" stroke-linejoin="round" d="M225.4,225.718c5.82,1.735,10.336,9.153,17.615,4.524c-8.486-1.753-9.157-3.723-12.839-5.609C227.562,224.118,226.608,225.027,225.4,225.718z M210.4,81.938c0.67-3.871,3.056-4.97,6.404-4.52C215.536,80.018,213.799,82.024,210.4,81.938z M215.999,80.185c1.358-3.683,3.904-4.324,7.115-3.267C221.397,79.241,219.326,80.894,215.999,80.185z M222.165,79.017c2.039-3.348,4.661-3.482,7.606-1.817C227.641,79.144,225.291,80.362,222.165,79.017z" />
      <path fill="#FFDE00" stroke="#A07843" stroke-width="0.9091" stroke-linejoin="round" d="M228.529,78.809c2.439-3.065,5.056-2.865,7.773-0.841C233.947,79.627,231.464,80.54,228.529,78.809z" />
      <path fill="#FFDE00" stroke="#A07843" stroke-width="0.9091" stroke-linejoin="round" d="M234.639,79.34c3.708-1.533,6.117-0.088,7.801,3.02C239.445,82.688,236.665,82.294,234.639,79.34L234.639,79.34z" />
      <path fill="#FFDE00" stroke="#A07843" stroke-width="0.9091" stroke-linejoin="round" d="M238.02,82.306c4.765-0.312,6.945,2,7.685,5.779C242.197,87.4,239.201,86.043,238.02,82.306z M241.956,88.253c4.727-0.726,7.127,1.258,8.226,4.758C246.613,92.682,243.494,91.673,241.956,88.253z" />
      <path fill="#FFDE00" stroke="#A07843" stroke-width="0.9091" stroke-linejoin="round" d="M247.73,93.741c4.415-1.836,7.221-0.483,9.126,2.65C253.313,96.926,250.042,96.692,247.73,93.741z M254.803,97.412c3.383-1.391,7.856-0.342,10.654,2.595C261.321,100.532,257.501,100.303,254.803,97.412z M261.942,100.771c3.515-1.008,7.845,0.527,10.303,3.758C268.077,104.592,264.306,103.944,261.942,100.771z M268.716,104.921c4.241-0.264,8.77,2.561,10.75,6.835C274.721,110.786,270.604,109.107,268.716,104.921z" />
      <path fill="#FFDE00" stroke="#A07843" stroke-width="0.9091" stroke-linejoin="round" d="M274.54,111.054c3.724-0.267,7.701,2.591,9.439,6.915C279.811,116.989,276.196,115.289,274.54,111.054z" />
      <path fill="#FFDE00" stroke="#A07843" stroke-width="0.9091" stroke-linejoin="round" d="M279.31,116.063c3.606,0.971,6.424,4.976,6.647,9.632C282.342,123.4,279.486,120.609,279.31,116.063z" />
      <path fill="#FFDE00" stroke="#A07843" stroke-width="0.9091" stroke-linejoin="round" d="M282.108,123.025c3.241,1.855,4.951,6.442,3.985,11.003C283.18,130.892,281.124,127.466,282.108,123.025z M282.478,130.089c2.976,2.256,4.082,7.026,2.536,11.424C282.528,138.027,280.931,134.366,282.478,130.089z" />
      <path fill="#FFDE00" stroke="#A07843" stroke-width="0.9091" stroke-linejoin="round" d="M282.549,137.78c2.685,2.595,3.211,7.464,1.151,11.645C281.649,145.666,280.502,141.842,282.549,137.78z M281.558,145.402c2.345,2.906,2.268,7.803-0.291,11.698C279.695,153.119,279.027,149.181,281.558,145.402z M279.443,152.415c2.047,3.124,1.486,7.988-1.445,11.612C276.825,159.908,276.549,155.924,279.443,152.415z M276.337,160.874c2.039,3.339,0.921,8.215-2.794,11.63C272.604,168.234,272.678,164.176,276.337,160.874z" />
      <path fill="#FFDE00" stroke="#A07843" stroke-width="0.9091" stroke-linejoin="round" d="M272.474,167.973c1.751,3.498,0.229,8.264-3.759,11.354C268.136,174.995,268.549,170.957,272.474,167.973z" />
      <path fill="#FFDE00" stroke="#A07843" stroke-width="0.9091" stroke-linejoin="round" d="M268.042,176.684c1.751,3.498,0.229,8.264-3.759,11.354C263.704,183.705,264.118,179.667,268.042,176.684z" />
      <path fill="#FFDE00" stroke="#A07843" stroke-width="0.9091" stroke-linejoin="round" d="M263.493,184.278c1.448,3.635-0.473,8.253-4.709,10.995C258.575,190.905,259.331,186.919,263.493,184.278L263.493,184.278z" />
      <path fill="#FFDE00" stroke="#A07843" stroke-width="0.9091" stroke-linejoin="round" d="M258.237,189.985c1.448,3.635-0.473,8.253-4.709,10.995C253.319,196.612,254.075,192.626,258.237,189.985L258.237,189.985z" />
      <path fill="#FFDE00" stroke="#A07843" stroke-width="0.9091" stroke-linejoin="round" d="M252.313,196.441c-2.708,1.933-3.468,4.374-3.782,6.933c1.976-0.348,3.538-0.28,4.885,0C253.168,201.031,253.597,198.503,252.313,196.441L252.313,196.441z M248.139,203.57c8.823-1.839,8.467,3.882,8.98,5.554C250.23,208.09,249.566,205.853,248.139,203.57L248.139,203.57z" />
      <path fill="#FFDE00" stroke="#A07843" stroke-width="0.9091" stroke-linejoin="round" d="M251.291,207.706c2.408,2.317,1.788,5.215,1.576,8.035c2.6-0.748,5.656-2.906,4.412-5.988L251.291,207.706z M206.543,89.258c3.521-1.506,4.015-5.176,3.398-9.636C206.709,80.997,206.237,84.786,206.543,89.258z M202.031,93.824c5.017-0.541,4.679-4.239,4.011-8.133C203.679,87.274,202.968,90.674,202.031,93.824z M194.12,98.505c5.324-0.991,7.453-3.735,8.189-7.242C199.744,92.48,197.256,93.142,194.12,98.505L194.12,98.505z" />
      <path fill="#FFDE00" stroke="#A07843" stroke-width="0.9091" stroke-linejoin="round" d="M188.326,100.732c2.521-5.286,5.32-5.715,8.133-5.904C194.437,98.12,192.249,101.092,188.326,100.732z M182.088,104.798c1.203-5.026,4.338-6.67,7.465-6.964C187.788,101.291,185.181,104.142,182.088,104.798z" />
      <path fill="#FFDE00" stroke="#A07843" stroke-width="0.9091" stroke-linejoin="round" d="M176.798,109.082c0.659-5.126,3.601-7.095,6.677-7.721C182.09,104.985,179.801,108.1,176.798,109.082z M171.737,115.209c-0.191-5.165,2.388-7.589,5.321-8.712C176.285,110.3,174.54,113.747,171.737,115.209z" />
      <path fill="#FFDE00" stroke="#A07843" stroke-width="0.9091" stroke-linejoin="round" d="M168.66,123.06c-1.821-5.683,0.348-9.164,3.324-11.304C172.29,116.218,171.382,120.583,168.66,123.06z" />
      <path fill="#FFDE00" stroke="#A07843" stroke-width="0.9091" stroke-linejoin="round" d="M166.598,130.73c-2.779-5.282-1.244-9.086,1.315-11.71C168.989,123.362,168.849,127.816,166.598,130.73z M166.375,139.454c-3.817-4.588-3.108-8.629-1.148-11.727C167.181,131.75,167.972,136.137,166.375,139.454z" />
      <path fill="#FFDE00" stroke="#A07843" stroke-width="0.9091" stroke-linejoin="round" d="M168.916,148.098c-4.936-3.353-5.374-7.43-4.35-10.951C167.558,140.471,169.532,144.468,168.916,148.098z" />
      <path fill="#FFDE00" stroke="#A07843" stroke-width="0.9091" stroke-linejoin="round" d="M171.131,156.219c-5.22-2.892-6.024-6.914-5.324-10.512C169.087,148.748,171.416,152.549,171.131,156.219z M175.684,165.161c-6.392-2.211-8.111-6.651-8.071-10.927C171.881,157.025,175.248,160.892,175.684,165.161z" />
      <path fill="#FFDE00" stroke="#A07843" stroke-width="0.9091" stroke-linejoin="round" d="M180.193,172.682c-6.604-1.458-8.826-5.671-9.28-9.921C175.475,165.042,179.266,168.492,180.193,172.682z" />
      <path fill="#FFDE00" stroke="#A07843" stroke-width="0.9091" stroke-linejoin="round" d="M185.094,180.704c-6.604-1.458-8.826-5.671-9.28-9.921C180.376,173.063,184.167,176.513,185.094,180.704z" />
      <path fill="#FFDE00" stroke="#A07843" stroke-width="0.9091" stroke-linejoin="round" d="M189.885,188.279c-6.604-1.458-8.826-5.671-9.28-9.921C185.167,180.638,188.958,184.088,189.885,188.279z" />
      <path fill="#FFDE00" stroke="#A07843" stroke-width="0.9091" stroke-linejoin="round" d="M193.949,194.011c-5.962-1.18-7.967-4.594-8.377-8.036C189.69,187.822,193.112,190.617,193.949,194.011z" />
      <path fill="#FFDE00" stroke="#A07843" stroke-width="0.9091" stroke-linejoin="round" d="M199.803,199.909c-6.053-0.559-8.398-3.747-9.162-7.129C194.929,194.193,198.62,196.62,199.803,199.909L199.803,199.909z" />
      <path fill="#FFDE00" stroke="#A07843" stroke-width="0.9091" stroke-linejoin="round" d="M193.897,198.272c0.418,1.326,0.492,2.556,2.173,4.233c1.147,0.9,2.867,1.571,4.345,2.339c0.377-1.506,1.108-2.473-1.448-5.07L193.897,198.272z" />
      <path fill="#FFDE00" stroke="#A07843" stroke-width="0.9091" stroke-linejoin="round" d="M195.847,202.952c-1.205,1.005-1.871,2.806-1.894,4.233c0,0,2.785,1.95,2.953,1.615c0.168-0.335,3.008-3.732,3.008-3.732L195.847,202.952z" />
      <path fill="#FFDE00" stroke="#A07843" stroke-width="0.9091" stroke-linejoin="round" d="M194.064,207.296c-2.006,2.044-2.83,3.989-1.282,5.738c1.968,1.505,8.394-0.874,7.742-0.389c-0.608,0.451-5.567-1.614-3.732-3.788L194.064,207.296z M194.647,214.48c8.259-2.568,8.639,1.311,12.762,2.127C202.161,217.453,196.643,218.717,194.647,214.48L194.647,214.48z M201.781,218.479c8.829-3.608,9.598,0.658,14.197,1.182C210.296,221.082,204.356,222.991,201.781,218.479z" />
      <path fill="#FFDE00" stroke="#A07843" stroke-width="0.9091" stroke-linejoin="round" d="M209.991,221.649c9.242-5,10.98-1.032,16.285-1.324C220.144,222.676,213.823,225.542,209.991,221.649z M221.026,223.173c5.674,1.859,9.245-0.486,12.423-3.621C229.435,219.827,225.47,219.746,221.026,223.173z" />
      <path fill="#FFDE00" stroke="#A07843" stroke-width="0.9091" stroke-linejoin="round" d="M229.389,223.699c3.48-5.101,7.961-5.115,12.21-6.303C240.126,220.577,237.068,223.1,229.389,223.699z M239.63,221.256c1.823-2.311,1.248-4.621,8.114-6.933C246.894,219.602,243.404,220.656,239.63,221.256z M246.706,219.15c0.012-4.042,3.829-6.661,6.448-7.806C252.441,216.582,248.833,218.153,246.706,219.15L246.706,219.15z" />
    </g>
    <g>
      <path fill="#000000" stroke="#808080" stroke-width="0.3151" d="M194.314,109.865l15.156,1.335c2.395,0.311,3.78-0.05,6.204,3.455c3.058,5.044,6.215,2.536,9.321,3.77v8.976l-8.974,1.803c-0.985-0.068-2.348,0.167-1.642-1.239c-1.792,0.174-4.153,0.777-3.338-1.021c-1.838-0.435-3.953-0.836-1.885-1.727c-4.124-0.239-2.859-0.974-2.003-1.727c-1.115-0.333-3.448-0.4-1.453-1.414c-0.848-0.562-2.973-0.897-1.132-1.939c-1.544-0.171-2.786-0.7-1.444-1.527c-2.236-0.842-2.738-1.468-2.471-1.998c-1.541-0.153-2.197-1.341-1.55-2.191c-1.964-0.235-2.879-1.1-2.748-2.591c-1.324-0.244-1.867-0.988-2.042-1.964L194.314,109.865z M255.677,109.867l-15.156,1.335c-2.395,0.311-3.78-0.05-6.204,3.455c-3.058,5.044-6.215,2.536-9.321,3.77v8.976l8.974,1.803c0.985-0.068,2.348,0.167,1.642-1.239c1.792,0.174,4.153,0.777,3.338-1.021c1.838-0.435,3.953-0.836,1.885-1.727c4.124-0.239,2.859-0.974,2.003-1.727c1.115-0.333,3.448-0.4,1.453-1.414c0.848-0.562,2.973-0.897,1.132-1.939c1.544-0.171,2.786-0.7,1.444-1.527c2.236-0.842,2.738-1.468,2.471-1.998c1.541-0.153,2.197-1.341,1.55-2.191c1.964-0.235,2.879-1.1,2.748-2.591c1.324-0.244,1.867-0.988,2.042-1.964L255.677,109.867z" />
      <path fill="#808080" d="M214.324,127.818l0.105,0.297l2.708-0.944L214.324,127.818z M210.982,126.8l0.118,0.289l3.455-1.412L210.982,126.8z M209.103,125.069l0.105,0.294l3.848-1.373L209.103,125.069z M207.12,123.336l0.065,0.309l4.005-0.865L207.12,123.336z M205.661,121.924l0.076,0.305l4.044-1.02L205.661,121.924z M204.544,119.983l0.048,0.309l4.154-0.652L204.544,119.983z M203.111,118.453l0.027,0.314l4.359-0.386L203.111,118.453z M200.655,116.612l5.526-0.027L200.655,116.612z M200.655,116.454l0.003,0.315l5.526-0.027L200.655,116.454z M199.105,114.263l-0.003,0.314l5.52,0.027L199.105,114.263z M235.667,127.818l-0.105,0.297l-2.708-0.944L235.667,127.818z M239.009,126.8l-0.118,0.289l-3.455-1.412L239.009,126.8z M240.888,125.069l-0.105,0.294l-3.848-1.373L240.888,125.069z M242.871,123.336l-0.065,0.309l-4.005-0.865L242.871,123.336z M244.33,121.924l-0.076,0.305l-4.044-1.02L244.33,121.924z M245.447,119.983l-0.048,0.309l-4.154-0.652L245.447,119.983z M246.88,118.453l-0.027,0.314l-4.359-0.386L246.88,118.453z M249.336,116.454l-0.003,0.315l-5.526-0.027L249.336,116.454z M250.886,114.263l0.003,0.314l-5.52,0.027L250.886,114.263z" />
      <path fill="none" stroke="#696969" stroke-width="0.3151" d="M196.356,111.829l8.741,0.452c-0.417,0.712,0.294,1.22,1.5,1.638c-0.791,1.056,0.721,1.991,1.944,2.361c-1.082,1.162,0.995,2.477,1.832,2.417c-0.62,1.182,0.65,1.835,1.721,1.917c-0.15,0.691-0.174,1.33,1.638,1.221c-0.233,1.835,1.479,1.401,2.248,1.333c-1.003,0.564,0.347,1.829,1.471,1.444c0.42,1.45,1.412,1.179,2.329,1.138 M253.635,111.829l-8.741,0.452c0.417,0.712-0.294,1.22-1.5,1.638c0.791,1.056-0.721,1.991-1.944,2.361c1.082,1.162-0.995,2.477-1.832,2.417c0.62,1.182-0.65,1.835-1.721,1.917c0.15,0.691,0.174,1.33-1.638,1.221c0.233,1.835-1.479,1.401-2.248,1.333c1.003,0.564-0.347,1.829-1.471,1.444c-0.42,1.45-1.412,1.179-2.329,1.138" />
      <path fill="#696969" d="M206.608,113.762l-0.023,0.314l4.639,0.345L206.608,113.762z M208.54,116.121v0.315l3.795-0.014L208.54,116.121z M210.353,118.538l0.036,0.311l3.612-0.426L210.353,118.538z M212.062,120.456l0.064,0.306l3.07-0.612L212.062,120.456z M213.715,121.675l0.032,0.311l2.532-0.265L213.715,121.675z M215.953,123.009l0.056,0.309l2.951-0.538L215.953,123.009z M217.429,124.451l0.048,0.311l2.383-0.373l-2.432,0.064V124.451z M243.383,113.762l0.023,0.314l-4.639,0.345L243.383,113.762z M241.451,116.121v0.315l-3.795-0.014L241.451,116.121z M239.638,118.538l-0.036,0.311l-3.612-0.426L239.638,118.538z M237.929,120.456l-0.064,0.306l-3.07-0.612L237.929,120.456z M236.276,121.675l-0.032,0.311l-2.532-0.265L236.276,121.675z M234.039,123.009l-0.056,0.309l-2.951-0.538L234.039,123.009z M232.564,124.451l-0.048,0.311l-2.383-0.373l2.432,0.064L232.564,124.451z" />
      <path fill="#000000" stroke="#808080" stroke-width="0.4015" d="M224.402,104.059c-0.177,0.003-0.353,0.028-0.524,0.074c-2.42,1.509-2.505,3.377-2.238,5.301c1.071,0.353,1.506,1.153,1.532,2.238c-2.371,4.644-3.391,9.541-3.392,14.63h5.1h0.118h5.1c-0.003-5.073-1.017-9.954-3.373-14.586c1.851-2.959,0.233-7.692-2.323-7.654V104.059z" />
      <path fill="#EDFF84" d="M213.808,108.698c2.995-2.042,5.261-1.72,7.885-0.748c1.012,0.373,0.794,1.592-0.277,1.305C215.811,107.704,215.496,108.242,213.808,108.698z" />
      <linearGradient id="Gradient_ID_KA_2" gradientUnits="userSpaceOnUse" x1="13.908" y1="240.1642" x2="14.4749" y2="240.1591" gradientTransform="matrix(7.6969 0 0 -7.6969 110.3283 1955.6166)">
        <stop offset="0" style="stop-color:#EDFF84" />
        <stop offset="1" style="stop-color:#FF8953" />
      </linearGradient>
      <path fill="url(#Gradient_ID_KA_2)" d="M213.923,108.433c2.658-2.785,5.326-3.3,7.932-2.003c0.762,0.43,0.405,1.798-0.844,1.276C218.161,106.514,215.391,107.544,213.923,108.433L213.923,108.433z" />
      <linearGradient id="Gradient_ID_KA_3" gradientUnits="userSpaceOnUse" x1="14.2495" y1="240.5805" x2="14.5741" y2="240.5084" gradientTransform="matrix(7.6969 0 0 -7.6969 110.3283 1955.6166)">
        <stop offset="0" style="stop-color:#EC4A00" />
        <stop offset="1" style="stop-color:#FF6018" />
      </linearGradient>
      <path fill="url(#Gradient_ID_KA_3)" d="M218.471,101.314c-0.315,4.076,1.918,4.451,3.803,5.33c0.889,0.205,2.561-1.079,1.917-2.638C220.955,103.851,219.191,102.873,218.471,101.314L218.471,101.314z" />
      <path fill="#FFFFFF" d="M224.465,108.07c0,0.363-0.294,0.658-0.658,0.658c-0.363,0-0.658-0.294-0.658-0.658s0.294-0.658,0.658-0.658C224.171,107.412,224.465,107.706,224.465,108.07z" />
      <path fill="#3D3D3D" d="M224.241,108.07c0,0.239-0.194,0.433-0.433,0.433c-0.239,0-0.433-0.194-0.433-0.433l0,0c0-0.239,0.194-0.433,0.433-0.433C224.047,107.636,224.241,107.83,224.241,108.07z" />
      <path fill="#000000" d="M224.124,108.07c0,0.156-0.141,0.282-0.315,0.282c0,0,0,0,0,0c-0.174,0-0.315-0.126-0.315-0.282l0,0c0-0.156,0.141-0.282,0.315-0.282c0,0,0,0,0,0C223.983,107.788,224.124,107.914,224.124,108.07L224.124,108.07z" />
      <path fill="#171717" d="M223.445,106.959c0.753-0.405,1.579-1.097,1.771-2.162c2.383,2.032,1.479,3.148,1.291,4.517c-0.523-1.462-1.873-2.614-3.064-2.356L223.445,106.959z" />
      <path fill="#DCDCDC" stroke="#ACACAC" stroke-width="0.4015" d="M196.891,123.692c0.267,6.291,2.908,9.532,6.37,14.244l33.119,36.916l1.691-1.703L196.891,123.692z" />
      <path fill="#FFFFFF" d="M198.353,126.585c0.006,0.998,2.861,4.106,3.798,5.238l34.471,40.913l-0.683,0.526l-31.315-34.707c-2.886-3.424-6.194-9.138-6.27-11.971L198.353,126.585z" />
      <path fill="none" stroke="#ACACAC" stroke-width="0.4015" d="M236.624,172.735l-34.471-40.913c-0.938-1.132-3.792-4.239-3.798-5.238" />
      <path fill="#000000" d="M242.435,179.058c0.374,0.229,4.248-0.903,3.238-6.23l-0.055,1.25c-0.191-1.95-1.109-2.895-1.724-4.261c0.003,1.423,0.276,1.829,0.008,4.282c-0.365-0.485-0.409-0.991-0.559-1.489c0.023,0.585,0.026,1.171,0.161,1.75c-0.373-0.306-0.448-0.956-0.47-1.671c-0.477,0.556-0.312,2.283,0.009,3.944c-0.024,0.732-0.497,0.905-0.891,1.174c-0.229,0.433-0.298,0.898,0.283,1.253V179.058z" />
      <path fill="#4E270B" stroke="#391C08" stroke-width="0.4015" d="M239.029,174.713l-1.855,1.641c1.347,1.468,2.812,2.955,3.73,4.348c-1.029,0.668-2.856,1.591-2.751,2c0.955,1.035,2.988-0.17,4.112-1.208c0.123-0.114,1.029,0.226,1.142,0.105c0.635-0.67,0.364-2.006,0.461-2.488c-1.345,0.286-3.22-2.88-4.842-4.398H239.029z" />
      <path fill="#6E3710" d="M239.047,175.625l-0.456,0.621c1.579,1.392,3.274,2.723,3.667,4.721C241.956,179.71,242.935,179.326,239.047,175.625z" />
      <path fill="#4E270B" stroke="#391C08" stroke-width="0.4015" d="M237.747,172.604l-1.986,1.792c-1.332,2.001,1.036,2.845,1.694,2.355l2.336-1.592c1.465-1.185-0.176-3.432-2.045-2.555H237.747z" />
      <path fill="#6E3710" d="M236.774,174.396c1.05-1.458,2.108-2.044,3.186-0.433C238.989,173.581,237.932,173.692,236.774,174.396z" />
      <linearGradient id="Gradient_ID_KA_4" gradientUnits="userSpaceOnUse" x1="33.9795" y1="22.659" x2="34.6027" y2="22.659" gradientTransform="matrix(2.3249 1.7382 2.7314 -3.3592 84.8893 171.766)">
        <stop offset="0" style="stop-color:#241205" />
        <stop offset="0.5" style="stop-color:#8B4513" />
        <stop offset="1" style="stop-color:#241205" />
      </linearGradient>
      <path fill="url(#Gradient_ID_KA_4)" stroke="#000000" stroke-width="0.2667" d="M245.269,130.742l1.447,1.082l-38.822,47.745l-1.606-0.889L245.269,130.742z" />
      <path fill="#000000" d="M244.851,130.277l-0.083,0.102l-4.935,6.07l2.439,1.824l5.018-6.171L244.851,130.277z M244.897,130.642l2.012,1.505l-4.683,5.761l-2.012-1.505L244.897,130.642z" />
      <linearGradient id="Gradient_ID_KA_5" gradientUnits="userSpaceOnUse" x1="115.6835" y1="223.5391" x2="116.0419" y2="223.1807" gradientTransform="matrix(5.5268 -0.6561 -0.6842 -5.2996 -243.9646 1394.0034)">
        <stop offset="0" style="stop-color:#BE5E1A" />
        <stop offset="0.505" style="stop-color:#E9965B" />
        <stop offset="1" style="stop-color:#BE5E1A" />
      </linearGradient>
      <path fill="url(#Gradient_ID_KA_5)" d="M244.874,130.46l2.226,1.665l-4.851,5.967l-2.226-1.665L244.874,130.46z" />
      <linearGradient id="Gradient_ID_KA_6" gradientUnits="userSpaceOnUse" x1="116.3879" y1="174.7078" x2="116.9436" y2="174.7078" gradientTransform="matrix(4.3918 3.2835 3.4242 -4.2113 -867.0322 486.9259)">
        <stop offset="0" style="stop-color:#EBC3A8;stop-opacity:0.5" />
        <stop offset="0.525" style="stop-color:#FFFFFF;stop-opacity:0.502" />
        <stop offset="1" style="stop-color:#EBC3A8;stop-opacity:0.5" />
      </linearGradient>
      <path fill="url(#Gradient_ID_KA_6)" d="M244.418,131.021l2.226,1.664l-3.897,4.794l-2.226-1.664L244.418,131.021z" />
      <path fill="#DCDCDC" stroke="#ACACAC" stroke-width="0.1455" d="M253.416,122.154l-7.927,5.792l-0.609,2.505l1.112,0.832l1.112,0.832l2.385-1.179L253.416,122.154z" />
      <path fill="#FFFFFF" d="M253.047,122.609l-6.614,5.894l-0.882,2.077l0.63,0.471l0.63,0.471l1.886-1.327L253.047,122.609z" />
      <path fill="none" stroke="#ACACAC" stroke-width="0.2333" d="M252.368,123.444l-6.186,7.607" />
      <path fill="#FFFFFF" d="M224.995,124.08l-14.6,9.414v43.5l14.6,9.412V124.08z" />
      <path fill="#DCDCDC" d="M224.995,124.08l14.6,9.414v43.5l-14.6,9.412V124.08z" />
      <path fill="none" stroke="#DBDBDB" stroke-width="0.253" d="M213.02,134.993l-2.624,2.229l2.624,2.229 M213.02,139.451l-2.624,2.229l2.624,2.229 M213.02,144.098l-2.624,2.229l2.624,2.229 M213.02,148.555l-2.624,2.229l2.624,2.229 M213.02,153.013l-2.624,2.229l2.624,2.229 M213.02,157.471l-2.624,2.229l2.624,2.229 M213.02,162.119l-2.624,2.229l2.624,2.229 M213.02,166.576l-2.624,2.229l2.624,2.229 M213.02,171.034l-2.624,2.229l2.624,2.229 M213.02,134.993l0.527-3.532l3.053,1.224l0.527-3.532l3.053,1.224l0.527-3.532l3.053,1.224l1.235-3.989 M212.897,175.451l0.527,3.532l3.053-1.224l0.527,3.532l3.053-1.224l0.527,3.532l3.053-1.224l1.235,3.989" />
      <path fill="none" stroke="#C6C6C6" stroke-width="0.253" d="M236.973,134.993l2.624,2.229l-2.624,2.229 M236.973,139.451l2.624,2.229l-2.624,2.229 M236.973,144.099l2.624,2.229l-2.624,2.229 M236.973,148.557l2.624,2.229l-2.624,2.229 M236.973,153.014l2.624,2.229l-2.624,2.229 M236.973,157.472l2.624,2.229l-2.624,2.229 M236.973,162.119l2.624,2.229l-2.624,2.229 M236.973,166.576l2.624,2.229l-2.624,2.229 M236.973,171.036l2.624,2.229l-2.624,2.229 M236.973,134.993l-0.527-3.532l-3.053,1.224l-0.527-3.532l-3.053,1.224l-0.527-3.532l-3.053,1.224l-1.235-3.989 M237.094,175.452l-0.527,3.532l-3.053-1.224l-0.527,3.532l-3.053-1.224l-0.527,3.532l-3.053-1.224l-1.235,3.989" />
      <path fill="none" stroke="#ACACAC" stroke-width="0.4909" d="M224.995,124.08l-14.6,9.414v16.095v11.307v16.097l14.6,9.412l14.6-9.412v-16.097v-11.307v-16.095L224.995,124.08z" />
      <path fill="#DA251D" d="M224.995,127.274l11.976,7.72v40.498l-11.976,7.721V127.274z" />
      <path fill="#E5453D" d="M224.995,127.274l-11.976,7.72v40.498l11.976,7.721V127.274z" />
      <path fill="#FFFFFF" d="M224.995,129.163v8.268c-1.914-0.83-0.691-3.07-0.894-5.171c-4.265,2.588-2.136,6.427-3.992,7.083C214.95,133.186,222.733,133.321,224.995,129.163z M214.809,143.493c-0.621-1.735,2.861-2.674,0.703,0.923c-3.92,6.529,4.494,5.338,2.395,1.647c-0.523,2.498-3.88,2.185-1.161-1.282c1.645-2.098,0.656-3.811-0.571-3.948c-1.373-0.153-3.162,1.273-1.365,2.662L214.809,143.493z M220.78,144.548c1.732-2.273,3.468,1.809,0.256,1.647c-4.612-0.232-1.242-8.097,3.961-3.526v10.574c-0.633-0.6-1.026-1.465-1.021-2.767l-3.738,3.229c0.364-1.662,1.341-3.824,3.992-4.842c0.056-2.165-0.047-6.117-2.442-6.045c-1.082,0.032-1.67,1.292-1.006,1.729L220.78,144.548z M224.995,158.061l-1.626,0.203l0.677,1.374l0.948-0.014V158.061z M224.995,163.919v1.779c-1.867-0.267-2.403,0.292-3.514,0.494c2.973-1.414,1.253-3.538,1.405-5.338l1.405,0.232c-0.097,1.068-0.932,2.414,0.703,2.833H224.995z M218.267,154.839c0.456,1.314,1.671,2.395,1.22,3.983c-5.694,1.442-1.097,5.727,0.339,5.288c2.127-1.011,0.491-2.491-0.994-1.536c-2.097-1.711,0.742-4.215,2.914-2.167c-0.189-2.408-1.547-4.151-3.477-5.567L218.267,154.839z M218.236,168.467c-7.164,6.291,2.389,7.65,3.248,9.553c0.126,0.28-0.091,1.974,0.952,2.001c0.845,0.095,0.753-3.227-0.797-4.067c-3.538-1.918-5.75-2.201-3.404-7.486L218.236,168.467z M218.48,172.222c2.248,3.424,4.023-1.858,5.589-2.965C222.48,169.451,220.455,171.457,218.48,172.222z M224.995,170.673c-1.861,3.508-0.291,5.247,0,7.644V170.673z" />
      <path fill="#EEEEEE" d="M224.995,129.163v8.268c1.914-0.83,0.691-3.07,0.894-5.171c4.265,2.588,2.136,6.427,3.992,7.083C235.041,133.186,227.258,133.321,224.995,129.163z M235.182,143.493c0.621-1.735-2.861-2.674-0.703,0.923c3.92,6.529-4.494,5.338-2.395,1.647c0.523,2.498,3.88,2.185,1.161-1.282c-1.645-2.098-0.656-3.811,0.571-3.948c1.373-0.153,3.162,1.273,1.365,2.662L235.182,143.493z M229.211,144.548c-1.732-2.273-3.468,1.809-0.256,1.647c4.612-0.232,1.242-8.097-3.961-3.526v10.574c0.633-0.6,1.026-1.465,1.021-2.767l3.738,3.229c-0.364-1.662-1.341-3.824-3.992-4.842c-0.056-2.165,0.047-6.117,2.442-6.045c1.082,0.032,1.67,1.292,1.006,1.729L229.211,144.548z M224.995,158.061v1.564l0.609-0.009c1.562-0.164,1.053-1.706,0-1.63L224.995,158.061z M224.995,163.919v1.779c0.6,0.086,1.092-0.011,1.436-0.362c0.848,1.4,1.942,1.656,3.13,1.482c-1.395-1.22-1.126-1.383-1.532-1.976c1.598,0.277,3.573-0.397,6.611-3.788c-1.868-1.032-2.417-2.065-2.683-3.097l-1.245,1.318c0.459,0.511,0.447,1.241,1.756,1.35c-0.927,1.365-1.665,2.883-4.567,2.636l-0.83-2.241c-0.829,0.129-1.277,0.388-1.597,0.692c1.162,0.191,1.488,2.526-0.479,2.208V163.919z M227.806,160.033l1.245,0.132c0.238-3.573,1.476-4.612,2.618-5.897c-1.383,1.342-3.1,0.668-3.865,5.765H227.806z M231.754,168.467c7.164,6.291-2.389,7.65-3.248,9.553c-0.126,0.28,0.091,1.974-0.952,2.001c-0.845,0.095-0.753-3.227,0.797-4.067c3.538-1.918,5.75-2.201,3.405-7.486L231.754,168.467z M231.511,172.222c-2.248,3.424-4.023-1.858-5.589-2.965C227.511,169.451,229.536,171.457,231.511,172.222z M224.995,170.673c1.861,3.508,0.292,5.247,0,7.644V170.673z" />
    </g>
    <g>
      <path fill="#343434" stroke="#A9A9A9" stroke-width="0.0773" d="M218.609,188.653c-1.912,0.273-5.968,0.72-5.968,1.935c0,1.633,8.55,1.995,12.357,1.995c3.808,0,12.357-0.362,12.357-1.995c0-1.217-4.056-1.661-5.968-1.935l-6.389,0.809L218.609,188.653z" />
      <path fill="#2D2D2D" d="M233.283,189.463c0,0.702-3.709,1.271-8.285,1.271c-4.576,0-8.285-0.569-8.285-1.271c0-0.702,3.709-1.271,8.285-1.271C229.574,188.191,233.283,188.761,233.283,189.463z" />
      <path fill="#191919" stroke="#C0C0C0" stroke-width="0.0773" d="M228.001,189.147c-1.061,0.63-5,0.483-6.004-0.027C221.997,186.225,228.001,186.164,228.001,189.147z" />
      <path fill="#282828" d="M224.295,187.372c-1.442,0.58-1.306,0.936-1.656,1.361c1.047-0.45,1.655-1.179,4.126-0.723C226.108,187.705,225.806,187.205,224.295,187.372L224.295,187.372z" />
      <path fill="#202020" stroke="#A9A9A9" stroke-width="0.0773" d="M212.641,190.588c0,2.556,2.364,6.362,4.188,8.251c3.364,0.88,5.567,0.692,8.17,0.874c2.603-0.18,4.808,0.006,8.17-0.874c1.824-1.888,4.188-5.695,4.188-8.251c0,1.633-8.55,1.995-12.357,1.995S212.641,192.222,212.641,190.588z" />
      <path fill="#1C1C1C" d="M213.999,192.15c0.417,2.848,1.656,4.276,2.885,5.721c2.342,0.091,5.233-0.192,8.97-1.908c-1.601,0.268-3.242,0.662-4.485-0.179c3.065,0.067,5.456-0.567,7.997-1.044h-5.806c3.294-0.28,5.759-1.097,8.344-1.835C226.189,193.449,220.233,194.497,213.999,192.15z" />
      <path fill="#292929" d="M222.029,198.769c3.533-0.264,5.703,0.014,10.882-0.971c1.264-1.427,2.114-2.939,2.92-4.461c-2.458,0.723-4.761,1.965-7.753,2.339c1.218,0.341,2.226,0.029,3.268-0.179c-2.018,1.277-3.661,1.258-5.423,1.655c1.112,0.091,2.562,0.006,4.415-0.288c-2.342,1.005-5.461,1.339-8.309,1.908L222.029,198.769z" />
    </g>
    <g>
      <path fill="#A07843" d="M219.103,100.094c-0.234-0.002-0.423-0.193-0.421-0.428c0-0.038,0.006-0.076,0.016-0.113l1.989-6.697l-5.477-4.048c-0.147-0.108-0.208-0.298-0.15-0.471c0.058-0.173,0.218-0.289,0.4-0.289h0.002l6.811,0.015l2.324-6.661c0.059-0.17,0.218-0.282,0.397-0.282l0,0c0.179,0,0.338,0.114,0.397,0.282l2.333,6.661l6.806-0.015h0.002c0.183,0,0.345,0.118,0.402,0.292c0.056,0.174-0.006,0.365-0.156,0.471l-5.565,3.973l2.062,6.451c0.026,0.055,0.041,0.117,0.041,0.183c0,0.232-0.188,0.421-0.421,0.421c-0.038,0-0.076-0.005-0.111-0.015c-0.045-0.011-0.088-0.03-0.129-0.058l-5.653-3.817l-5.653,4.065c-0.071,0.053-0.158,0.077-0.244,0.077L219.103,100.094z M216.746,88.893l4.683,3.462c0.142,0.106,0.205,0.289,0.153,0.459l-1.723,5.798l4.88-3.509c0.146-0.105,0.341-0.111,0.492-0.015l4.889,3.301l-1.803-5.641c-0.055-0.173,0.006-0.362,0.153-0.468l4.742-3.386l-5.77,0.012h-0.002c-0.179,0-0.355-0.114-0.414-0.282l-2.03-5.808l-2.023,5.795c-0.059,0.17-0.223,0.292-0.402,0.292h-0.002L216.746,88.893z" />
      <path fill="#F5C742" d="M222.577,88.473l2.401,2.977l-9.479-2.956l-0.036-0.026l7.109,0.015L222.577,88.473z M234.523,88.474l-9.531,2.97l2.454-2.96h-0.017l-2.433-6.944l-0.011,0.032v9.88l3.736,1.165L234.523,88.474z M219.103,99.671l0.044-0.029l5.818-8.176l-3.788,1.226L219.103,99.671z M224.985,91.459l0,3.985l0.011-0.009l5.898,3.982l-0.005-0.012L224.985,91.459z" />
      <path fill="#FFEBA3" d="M234.533,88.468l-0.011,0.008l-9.532,2.97l2.454-2.962L234.533,88.468z M228.721,92.617l-3.736-1.165v-9.88l-2.408,6.901l2.401,2.977l-9.48-2.956l5.682,4.189l-0.002,0.009l3.806-1.233l5.904,7.945l-2.17-6.786L228.721,92.617z M219.147,99.642l5.838-4.198v-3.985l-0.02,0.008L219.147,99.642z" />
    </g>
    <g>
      <path fill="#E9E9E9" stroke="#BDBDBD" stroke-width="0.3061" d="M191.641,101.126c-0.335-0.567,1.048-1.53,2.086-1.32c0.623-0.624,1.664-0.786,2.345,0.003c0.9-0.768,1.553,0.845,1.162,1.073c0.788,0.611,0.45,1.297,0.211,1.501c0.315,1.392-0.845,1.944-1.801,1.98l-3.961,0.352L191.641,101.126z" />
      <path fill="#41723D" stroke="#3A6737" stroke-width="0.3061" d="M191.799,100.453c0.241,0.594,0.406,1.205,0.253,1.879c0.527-0.395,1.071-0.479,1.617-0.545c-0.191,0.488-0.4,0.976-0.248,1.448c0.892,0.162,0.958-0.182,1.356-0.323c-0.071,0.429,0.097,0.856-0.465,1.282c0.782,0.424,1.48,0.145,2.201,0.053c-1.839,0.974-2.058,2.855-6.409,2.424c0.114-1.461-1.455-3.027,1.697-6.22L191.799,100.453z" />
      <path fill="#E9E9E9" stroke="#BDBDBD" stroke-width="0.3061" d="M184.547,105.615c-0.411-0.514,0.826-1.662,1.882-1.597c0.53-0.705,1.538-1.011,2.323-0.323c0.783-0.886,1.656,0.621,1.3,0.902c0.865,0.495,0.627,1.221,0.418,1.458c0.506,1.335-0.565,2.044-1.508,2.212l-3.873,0.9L184.547,105.615z" />
      <path fill="#41723D" stroke="#3A6737" stroke-width="0.3061" d="M184.61,104.927c0.321,0.555,0.57,1.135,0.512,1.826c0.467-0.465,0.994-0.624,1.524-0.765c-0.121,0.509-0.261,1.023-0.044,1.468c0.906,0.035,0.923-0.314,1.297-0.508c-0.011,0.433,0.215,0.835-0.282,1.333c0.833,0.311,1.485-0.062,2.186-0.253c-1.686,1.221-1.641,3.114-6.009,3.292c-0.091-1.462-1.861-2.795,0.815-6.395V104.927z" />
      <path fill="#E9E9E9" stroke="#BDBDBD" stroke-width="0.3227" d="M180.234,112.383c-0.414-0.564,0.832-1.823,1.897-1.751c0.535-0.773,1.55-1.108,2.342-0.355c0.791-0.971,1.67,0.682,1.311,0.988c0.871,0.542,0.632,1.339,0.421,1.598c0.509,1.464-0.57,2.241-1.52,2.426l-3.904,0.986L180.234,112.383z" />
      <path fill="#41723D" stroke="#3A6737" stroke-width="0.3227" d="M180.296,111.629c0.324,0.608,0.574,1.245,0.517,2.001c0.471-0.511,1.003-0.683,1.538-0.839c-0.121,0.558-0.262,1.121-0.044,1.611c0.914,0.039,0.93-0.344,1.308-0.558c-0.011,0.476,0.217,0.915-0.285,1.462c0.841,0.341,1.498-0.068,2.205-0.277c-1.7,1.338-1.655,3.414-6.059,3.611c-0.092-1.603-1.877-3.065,0.821-7.012V111.629z" />
      <path fill="#E9E9E9" stroke="#BDBDBD" stroke-width="0.3227" d="M174.928,121.021c-0.518-0.47,0.453-1.951,1.511-2.094c0.37-0.864,1.298-1.394,2.224-0.814c0.582-1.109,1.771,0.335,1.482,0.708c0.962,0.358,0.886,1.186,0.732,1.483c0.791,1.333-0.114,2.309-1.008,2.679l-3.63,1.744L174.928,121.021z" />
      <path fill="#41723D" stroke="#3A6737" stroke-width="0.3227" d="M174.838,120.269c0.438,0.532,0.811,1.106,0.905,1.859c0.361-0.594,0.847-0.87,1.339-1.129c-0.008,0.571-0.035,1.152,0.277,1.586c0.903-0.144,0.844-0.521,1.171-0.806c0.085,0.468,0.395,0.853,0.012,1.489c0.891,0.167,1.455-0.365,2.106-0.711c-1.4,1.65-0.941,3.674-5.22,4.744c-0.409-1.553-2.448-2.63-0.591-7.035V120.269z" />
      <path fill="#E9E9E9" stroke="#BDBDBD" stroke-width="0.3227" d="M176.244,130.175c-0.633-0.295-0.144-1.998,0.824-2.447c0.098-0.935,0.829-1.715,1.885-1.435c0.227-1.232,1.792-0.203,1.624,0.238c1.026,0.058,1.197,0.873,1.136,1.2c1.148,1.039,0.574,2.239-0.17,2.858l-2.953,2.739L176.244,130.175z" />
      <path fill="#41723D" stroke="#3A6737" stroke-width="0.3227" d="M175.937,129.483c0.576,0.379,1.102,0.817,1.414,1.509c0.168-0.674,0.551-1.082,0.947-1.474c0.161,0.548,0.308,1.109,0.733,1.435c0.82-0.405,0.652-0.748,0.88-1.117c0.22,0.423,0.629,0.698,0.452,1.42c0.902-0.105,1.282-0.779,1.801-1.301c-0.85,1.989,0.186,3.789-3.585,6.074c-0.85-1.362-3.117-1.789-2.642-6.547V129.483z" />
      <path fill="#E9E9E9" stroke="#BDBDBD" stroke-width="0.3348" d="M176.555,139.477c-0.747-0.164-0.685-1.927,0.217-2.558c-0.145-0.933,0.415-1.844,1.605-1.777c-0.089-1.25,1.835-0.555,1.776-0.089c1.097-0.147,1.495,0.617,1.52,0.95c1.489,0.789,1.203,2.077,0.583,2.83l-2.382,3.265L176.555,139.477z" />
      <path fill="#41723D" stroke="#3A6737" stroke-width="0.3348" d="M176.046,138.86c0.708,0.256,1.379,0.58,1.892,1.197c-0.002-0.692,0.294-1.168,0.605-1.63c0.317,0.505,0.62,1.024,1.156,1.258c0.758-0.558,0.488-0.861,0.63-1.267c0.344,0.37,0.85,0.559,0.855,1.3c0.923-0.28,1.144-1.017,1.553-1.63c-0.365,2.117,1.208,3.671-2.159,6.654c-1.261-1.165-3.764-1.133-4.533-5.883L176.046,138.86z" />
      <path fill="#E9E9E9" stroke="#BDBDBD" stroke-width="0.3576" d="M178.928,147.681c-0.812-0.059-1.012-1.933-0.159-2.738c-0.294-0.965,0.159-2.012,1.42-2.123c-0.283-1.309,1.848-0.865,1.856-0.364c1.132-0.321,1.667,0.424,1.742,0.773c1.686,0.609,1.58,2.014,1.042,2.905l-2.014,3.815L178.928,147.681z" />
      <path fill="#41723D" stroke="#3A6737" stroke-width="0.3576" d="M178.299,147.107c0.785,0.164,1.539,0.405,2.174,0.977c-0.108-0.732,0.132-1.279,0.389-1.815c0.409,0.486,0.808,0.989,1.408,1.155c0.712-0.705,0.383-0.985,0.473-1.436c0.418,0.339,0.98,0.462,1.097,1.244c0.929-0.436,1.05-1.248,1.388-1.961c-0.064,2.294,1.827,3.698-1.265,7.367c-1.503-1.041-4.133-0.626-5.664-5.532V147.107z" />
      <path fill="#E9E9E9" stroke="#BDBDBD" stroke-width="0.3576" d="M182.394,155.875c-0.812-0.059-1.012-1.933-0.159-2.738c-0.294-0.965,0.159-2.012,1.42-2.123c-0.283-1.309,1.848-0.865,1.856-0.364c1.132-0.321,1.667,0.424,1.742,0.773c1.686,0.609,1.58,2.014,1.042,2.905l-2.014,3.815L182.394,155.875z" />
      <path fill="#41723D" stroke="#3A6737" stroke-width="0.3576" d="M181.766,155.299c0.785,0.164,1.539,0.405,2.174,0.977c-0.106-0.732,0.132-1.279,0.389-1.815c0.409,0.486,0.808,0.989,1.408,1.155c0.712-0.705,0.383-0.985,0.473-1.436c0.418,0.339,0.98,0.462,1.097,1.244c0.929-0.436,1.05-1.248,1.388-1.961c-0.064,2.294,1.827,3.698-1.265,7.367c-1.503-1.041-4.133-0.626-5.664-5.532V155.299z" />
      <path fill="#E9E9E9" stroke="#BDBDBD" stroke-width="0.3667" d="M185.802,162.863c-0.855-0.003-1.203-1.856-0.368-2.718c-0.38-0.941,0.018-2.017,1.33-2.217c-0.392-1.285,1.873-0.992,1.917-0.494c1.162-0.4,1.777,0.306,1.883,0.648c1.812,0.488,1.805,1.897,1.306,2.821l-1.827,3.944L185.802,162.863z" />
      <path fill="#41723D" stroke="#3A6737" stroke-width="0.3667" d="M185.102,162.334c0.833,0.108,1.642,0.295,2.348,0.821c-0.167-0.723,0.044-1.285,0.274-1.836c0.464,0.455,0.92,0.929,1.559,1.051c0.694-0.753,0.329-1.009,0.388-1.464c0.462,0.308,1.061,0.391,1.241,1.162c0.939-0.502,1.008-1.318,1.309-2.051c0.103,2.289,2.186,3.558-0.782,7.43c-1.652-0.93-4.376-0.333-6.341-5.115L185.102,162.334z" />
      <path fill="#E9E9E9" stroke="#BDBDBD" stroke-width="0.3667" d="M190.732,172.461c-0.852,0.076-1.367-1.739-0.614-2.673c-0.464-0.903-0.165-2.011,1.124-2.327c-0.508-1.244,1.774-1.158,1.865-0.665c1.121-0.505,1.798,0.142,1.933,0.474c1.848,0.321,1.97,1.724,1.556,2.691l-1.462,4.094L190.732,172.461z" />
      <path fill="#41723D" stroke="#3A6737" stroke-width="0.3667" d="M189.985,171.999c0.839,0.032,1.664,0.144,2.414,0.605c-0.23-0.705-0.073-1.283,0.106-1.855c0.503,0.411,1,0.842,1.648,0.906c0.623-0.812,0.236-1.035,0.255-1.494c0.488,0.265,1.091,0.294,1.341,1.045c0.891-0.585,0.883-1.405,1.117-2.162c0.309,2.271,2.5,3.344-0.103,7.47c-1.729-0.777-4.389,0.065-6.779-4.518L189.985,171.999z" />
      <path fill="#E9E9E9" stroke="#BDBDBD" stroke-width="0.3258" d="M169.981,129.294c-0.645-0.368-0.039-1.962,0.995-2.277c0.155-0.897,0.959-1.565,2.045-1.156c0.305-1.17,1.88,0.03,1.682,0.438c1.067,0.186,1.201,1,1.12,1.312c1.141,1.158,0.476,2.251-0.335,2.759l-3.232,2.291L169.981,129.294z" />
      <path fill="#41723D" stroke="#3A6737" stroke-width="0.3258" d="M169.699,128.58c0.58,0.441,1.105,0.935,1.391,1.647c0.214-0.633,0.635-0.982,1.068-1.314c0.138,0.555,0.259,1.118,0.686,1.489c0.877-0.289,0.721-0.645,0.98-0.974c0.205,0.439,0.618,0.761,0.392,1.438c0.945,0.012,1.38-0.595,1.951-1.038c-0.997,1.829-0.015,3.711-4.074,5.456c-0.812-1.433-3.153-2.136-2.395-6.706V128.58z" />
      <path fill="#E9E9E9" stroke="#BDBDBD" stroke-width="0.3258" d="M169.34,139.237c-0.729-0.142-0.665-1.847,0.215-2.476c-0.141-0.898,0.409-1.789,1.568-1.75c-0.085-1.206,1.791-0.573,1.733-0.123c1.07-0.165,1.458,0.564,1.48,0.885c1.452,0.732,1.171,1.982,0.565,2.721l-2.329,3.203L169.34,139.237z" />
      <path fill="#41723D" stroke="#3A6737" stroke-width="0.3258" d="M168.845,138.651c0.691,0.233,1.345,0.533,1.845,1.117c-0.002-0.668,0.288-1.133,0.592-1.586c0.308,0.48,0.603,0.977,1.126,1.191c0.739-0.555,0.477-0.842,0.617-1.236c0.335,0.35,0.829,0.523,0.832,1.238c0.9-0.291,1.117-1.005,1.517-1.608c-0.359,2.051,1.173,3.521-2.117,6.473c-1.227-1.098-3.671-1.017-4.414-5.588H168.845z" />
      <path fill="#E9E9E9" stroke="#BDBDBD" stroke-width="0.3258" d="M171.405,146.454c-0.739-0.07-0.847-1.771-0.033-2.485c-0.23-0.88,0.227-1.821,1.385-1.898c-0.205-1.191,1.726-0.748,1.712-0.295c1.048-0.271,1.508,0.415,1.562,0.733c1.518,0.583,1.362,1.855,0.833,2.651l-1.997,3.42L171.405,146.454z" />
      <path fill="#41723D" stroke="#3A6737" stroke-width="0.3258" d="M170.855,145.922c0.711,0.162,1.391,0.395,1.947,0.926c-0.068-0.665,0.173-1.158,0.43-1.638c0.355,0.448,0.698,0.912,1.239,1.073c0.68-0.626,0.391-0.885,0.491-1.292c0.368,0.315,0.877,0.436,0.952,1.148c0.867-0.379,1.011-1.112,1.348-1.751c-0.153,2.077,1.518,3.386-1.459,6.651c-1.332-0.971-3.755-0.644-4.951-5.12L170.855,145.922z" />
      <path fill="#E9E9E9" stroke="#BDBDBD" stroke-width="0.3576" d="M174.113,154.698c-0.797-0.003-1.067-1.895-0.262-2.774c-0.326-0.961,0.077-2.059,1.308-2.264c-0.329-1.312,1.777-1.014,1.805-0.505c1.097-0.409,1.65,0.312,1.738,0.661c1.676,0.498,1.627,1.936,1.135,2.88l-1.824,4.027L174.113,154.698z" />
      <path fill="#41723D" stroke="#3A6737" stroke-width="0.3576" d="M173.475,154.158c0.774,0.109,1.524,0.302,2.168,0.838c-0.133-0.738,0.079-1.311,0.311-1.876c0.42,0.465,0.83,0.948,1.424,1.074c0.67-0.768,0.336-1.03,0.406-1.495c0.423,0.315,0.977,0.4,1.123,1.186c0.892-0.512,0.98-1.345,1.282-2.095c0.027,2.338,1.933,3.632-0.952,7.586c-1.512-0.95-4.074-0.339-5.764-5.221L173.475,154.158z" />
      <path fill="#E9E9E9" stroke="#BDBDBD" stroke-width="0.3576" d="M177.732,162.749c-0.788,0.127-1.362-1.695-0.712-2.695c-0.479-0.895-0.261-2.044,0.921-2.447c-0.538-1.241,1.588-1.289,1.697-0.792c1.015-0.583,1.679,0.038,1.823,0.368c1.735,0.217,1.921,1.644,1.589,2.656l-1.141,4.271L177.732,162.749z" />
      <path fill="#41723D" stroke="#3A6737" stroke-width="0.3576" d="M177.014,162.32c0.782-0.018,1.553,0.048,2.276,0.473c-0.252-0.706-0.136-1.306,0-1.901c0.489,0.389,0.974,0.8,1.58,0.827c0.536-0.868,0.164-1.071,0.156-1.541c0.468,0.241,1.03,0.235,1.301,0.988c0.797-0.65,0.747-1.488,0.923-2.276c0.409,2.303,2.501,3.267,0.302,7.639c-1.647-0.691-4.074,0.332-6.539-4.209H177.014z" />
      <path fill="#E9E9E9" stroke="#BDBDBD" stroke-width="0.3576" d="M182.932,171.02c-0.788,0.127-1.362-1.695-0.712-2.695c-0.479-0.895-0.261-2.044,0.921-2.447c-0.538-1.241,1.588-1.289,1.697-0.792c1.015-0.583,1.679,0.038,1.823,0.368c1.735,0.217,1.921,1.644,1.589,2.656l-1.141,4.271L182.932,171.02z" />
      <path fill="#41723D" stroke="#3A6737" stroke-width="0.3576" d="M182.214,170.592c0.782-0.018,1.553,0.048,2.276,0.473c-0.252-0.706-0.136-1.306,0-1.901c0.489,0.389,0.974,0.8,1.58,0.827c0.536-0.868,0.164-1.071,0.156-1.541c0.468,0.241,1.03,0.235,1.301,0.988c0.797-0.65,0.747-1.488,0.923-2.276c0.409,2.303,2.501,3.267,0.302,7.639c-1.647-0.691-4.074,0.332-6.539-4.209H182.214z" />
      <path fill="#E9E9E9" stroke="#BDBDBD" stroke-width="0.4015" d="M188.393,180.498c-0.836,0.256-1.729-1.747-1.17-2.98c-0.652-0.956-0.583-2.3,0.641-2.924c-0.767-1.342,1.535-1.695,1.727-1.142c1.017-0.808,1.829-0.191,2.033,0.167c1.917,0.006,2.329,1.611,2.117,2.814l-0.612,5.041L188.393,180.498z" />
      <path fill="#41723D" stroke="#3A6737" stroke-width="0.4015" d="M187.55,180.108c0.847-0.13,1.694-0.162,2.541,0.223c-0.377-0.771-0.339-1.474-0.279-2.173c0.589,0.377,1.176,0.779,1.838,0.724c0.455-1.067,0.021-1.247-0.056-1.783c0.544,0.211,1.153,0.124,1.559,0.947c0.77-0.855,0.592-1.805,0.668-2.73c0.782,2.574,3.197,3.385,1.448,8.689c-1.891-0.559-4.377,0.947-7.721-3.898L187.55,180.108z" />
      <path fill="#FFFFFF" d="M192.367,100.594c0.568-0.156,1.12-0.733,1.632-0.188c0.548-1.3,1.594-0.538,1.526,0.13c0.745-0.62,1.386,0.456,0.986,0.897c0.856,0.018,0.674,0.782,0.186,1.105c0.78,0.395-0.473,2.03-1.715,1.382c0.079-0.241,0.415-0.868,0.503-1.441c-0.448-0.003-0.815-0.161-1.391,0.065l0.329-1.398c-0.908,0.252-0.718,0.259-1.691,0.465c-0.377-0.826,0.003-0.567-0.367-1.015L192.367,100.594z M185.191,104.988c0.541-0.235,1.006-0.882,1.589-0.414c0.362-1.364,1.503-0.755,1.529-0.085c0.652-0.718,1.436,0.259,1.102,0.752c0.85-0.102,0.776,0.68,0.339,1.068c0.827,0.283-0.185,2.076-1.506,1.606c0.044-0.25,0.289-0.918,0.298-1.497c-0.445,0.059-0.83-0.045-1.368,0.258l0.13-1.43c-0.864,0.374-0.674,0.356-1.609,0.697C185.207,105.177,185.62,105.382,185.191,104.988L185.191,104.988z M180.884,111.697c0.545-0.258,1.015-0.967,1.603-0.453c0.365-1.494,1.515-0.829,1.542-0.092c0.658-0.788,1.448,0.285,1.112,0.824c0.856-0.111,0.782,0.745,0.342,1.171c0.835,0.311-0.186,2.276-1.518,1.762c0.044-0.273,0.292-1.006,0.3-1.641c-0.448,0.065-0.836-0.048-1.379,0.282l0.132-1.568c-0.871,0.411-0.68,0.391-1.623,0.764c-0.494-0.839-0.077-0.615-0.509-1.045L180.884,111.697z M175.428,120.218c0.483-0.361,0.802-1.15,1.48-0.764c0.061-1.538,1.321-1.114,1.492-0.397c0.488-0.903,1.476-0.009,1.253,0.586c0.818-0.279,0.915,0.574,0.568,1.08c0.88,0.138,0.27,2.268-1.138,2.029c-0.011-0.277,0.086-1.045-0.032-1.668c-0.427,0.153-0.829,0.118-1.295,0.552l-0.183-1.564c-0.773,0.576-0.589,0.518-1.438,1.071c-0.65-0.724-0.198-0.588-0.706-0.924L175.428,120.218z M176.485,129.26c0.356-0.488,0.426-1.335,1.189-1.167c-0.397-1.486,0.933-1.453,1.309-0.821c0.198-1.006,1.408-0.445,1.37,0.189c0.698-0.509,1.044,0.279,0.862,0.864c0.882-0.129,0.927,2.088-0.488,2.274c-0.092-0.261-0.226-1.024-0.524-1.585c-0.362,0.273-0.758,0.358-1.074,0.909l-0.636-1.439c-0.568,0.779-0.409,0.67-1.058,1.448c-0.835-0.5-0.362-0.503-0.948-0.674L176.485,129.26z M176.564,138.533c0.245-0.547,0.094-1.391,0.942-1.377c-0.815-1.376,0.595-1.608,1.161-1.062c-0.059-1.024,1.365-0.715,1.495-0.086c0.602-0.636,1.176,0.065,1.139,0.674c0.895-0.3,1.535,1.859,0.092,2.323c-0.167-0.238-0.512-0.958-0.976-1.447c-0.309,0.338-0.703,0.5-0.891,1.103l-1.055-1.282c-0.391,0.874-0.253,0.736-0.729,1.627c-1.014-0.323-0.517-0.42-1.179-0.471L176.564,138.533z M178.796,146.683c0.176-0.617-0.112-1.485,0.783-1.6c-1.067-1.332,0.383-1.791,1.062-1.3c-0.217-1.074,1.329-0.964,1.561-0.318c0.536-0.764,1.247-0.109,1.301,0.541c0.897-0.455,1.897,1.732,0.45,2.441c-0.212-0.226-0.683-0.935-1.245-1.382c-0.274,0.405-0.665,0.636-0.771,1.301l-1.305-1.195c-0.279,0.983-0.156,0.817-0.521,1.832c-1.117-0.188-0.608-0.365-1.314-0.32H178.796z M182.261,154.877c0.176-0.617-0.112-1.485,0.783-1.6c-1.067-1.332,0.383-1.791,1.062-1.3c-0.217-1.074,1.329-0.964,1.561-0.318c0.536-0.764,1.247-0.109,1.301,0.541c0.897-0.455,1.897,1.732,0.45,2.441c-0.212-0.226-0.683-0.935-1.245-1.382c-0.274,0.405-0.665,0.636-0.771,1.301l-1.305-1.195c-0.279,0.983-0.156,0.817-0.521,1.832c-1.117-0.188-0.608-0.365-1.314-0.32H182.261z M185.59,161.877c0.138-0.626-0.227-1.473,0.703-1.65c-1.215-1.251,0.27-1.812,1.015-1.37c-0.306-1.055,1.321-1.053,1.612-0.427c0.506-0.798,1.298-0.197,1.403,0.447c0.906-0.515,2.115,1.592,0.652,2.401c-0.238-0.211-0.785-0.883-1.406-1.289c-0.258,0.423-0.648,0.68-0.711,1.352l-1.455-1.1c-0.22,1-0.103,0.826-0.411,1.862c-1.183-0.109-0.664-0.321-1.398-0.226H185.59z M190.431,171.499c0.08-0.636-0.361-1.445,0.55-1.706c-1.324-1.136,0.105-1.829,0.888-1.458c-0.402-1.023,1.22-1.168,1.567-0.571c0.43-0.841,1.276-0.314,1.438,0.318c0.855-0.595,2.251,1.394,0.867,2.332c-0.256-0.188-0.862-0.808-1.518-1.156c-0.218,0.444-0.585,0.736-0.585,1.411l-1.548-0.964c-0.127,1.017-0.027,0.83-0.239,1.891c-1.188-0.002-0.689-0.261-1.414-0.098L190.431,171.499z M170.282,128.433c0.398-0.429,0.518-1.245,1.305-0.985c-0.332-1.497,1.053-1.297,1.411-0.632c0.264-0.955,1.492-0.255,1.42,0.359c0.756-0.406,1.074,0.403,0.852,0.95c0.926-0.014,0.853,2.148-0.633,2.151c-0.082-0.265-0.18-1.024-0.459-1.609c-0.392,0.22-0.811,0.253-1.171,0.748l-0.585-1.482c-0.635,0.686-0.464,0.598-1.183,1.276c-0.844-0.592-0.35-0.535-0.952-0.776L170.282,128.433z M169.351,138.325c0.239-0.533,0.092-1.345,0.921-1.35c-0.792-1.312,0.583-1.565,1.135-1.05c-0.056-0.988,1.333-0.718,1.459-0.114c0.588-0.627,1.147,0.039,1.111,0.627c0.874-0.309,1.495,1.764,0.088,2.241c-0.162-0.226-0.498-0.914-0.948-1.377c-0.302,0.333-0.686,0.498-0.87,1.083l-1.027-1.217c-0.382,0.853-0.248,0.717-0.714,1.586c-0.989-0.291-0.503-0.395-1.15-0.432L169.351,138.325z M171.325,145.546c0.185-0.555-0.042-1.348,0.782-1.435c-0.92-1.226,0.424-1.615,1.024-1.159c-0.155-0.977,1.255-0.848,1.441-0.259c0.521-0.682,1.144-0.076,1.168,0.514c0.838-0.394,1.664,1.605,0.311,2.221c-0.185-0.209-0.586-0.859-1.082-1.276c-0.267,0.362-0.633,0.564-0.758,1.165l-1.144-1.108c-0.295,0.886-0.176,0.738-0.551,1.65c-1.014-0.191-0.541-0.342-1.188-0.314H171.325z M173.945,153.69c0.147-0.639-0.168-1.503,0.705-1.685c-1.097-1.277,0.306-1.85,0.989-1.4c-0.255-1.077,1.264-1.076,1.517-0.436c0.495-0.817,1.217-0.2,1.295,0.456c0.861-0.526,1.926,1.626,0.536,2.451c-0.217-0.214-0.706-0.902-1.274-1.317c-0.253,0.432-0.626,0.695-0.703,1.38l-1.324-1.123c-0.235,1.021-0.12,0.842-0.439,1.901c-1.102-0.111-0.609-0.329-1.298-0.23L173.945,153.69z M177.401,161.783c0.041-0.655-0.412-1.456,0.42-1.777c-1.291-1.082,0-1.874,0.747-1.542c-0.427-1.021,1.071-1.268,1.426-0.679c0.356-0.886,1.168-0.397,1.353,0.238c0.764-0.661,2.167,1.289,0.929,2.332c-0.248-0.176-0.844-0.774-1.473-1.091c-0.179,0.467-0.505,0.788-0.468,1.477l-1.491-0.891c-0.065,1.045,0.018,0.852-0.123,1.947c-1.105,0.071-0.655-0.224-1.318-0.015L177.401,161.783z M182.6,170.055c0.041-0.655-0.412-1.456,0.42-1.777c-1.291-1.082,0-1.874,0.747-1.542c-0.427-1.021,1.071-1.268,1.426-0.679c0.356-0.886,1.168-0.397,1.353,0.238c0.764-0.661,2.167,1.289,0.929,2.332c-0.248-0.176-0.844-0.774-1.473-1.091c-0.179,0.467-0.505,0.788-0.468,1.477l-1.491-0.891c-0.065,1.045,0.018,0.852-0.123,1.947c-1.105,0.071-0.655-0.224-1.318-0.015L182.6,170.055z M187.891,179.44c-0.052-0.755-0.661-1.606,0.195-2.089c-1.561-1.056-0.276-2.142,0.585-1.867c-0.614-1.108,0.977-1.598,1.448-0.974c0.256-1.062,1.211-0.617,1.505,0.083c0.732-0.861,2.542,1.171,1.352,2.535c-0.295-0.167-1.03-0.767-1.759-1.041c-0.126,0.559-0.432,0.971-0.292,1.753l-1.75-0.811c0.083,1.205,0.145,0.97,0.153,2.242c-1.189,0.235-0.744-0.165-1.435,0.167L187.891,179.44z" />
      <path fill="#41723D" stroke="#376134" stroke-width="0.2803" d="M203.962,194.369c-3.597-1.723-5.811-0.85-10.918-5.403l1.17-0.389c-1.341-0.652-1.873-1.42-2.506-2.173l1.17,0.167c-1.121-1.615-1.774-3.23-1.95-4.847c1.008,0.591,1.106,1.638,3.23,1.671c-0.423-0.758,0.079-0.9,0.223-1.282l0.835,1.282c0.944-0.747,0.842-0.797,1.226-1.17c0.471,1.359,1.286,2.033,2.061,2.785v-1.114c2.755,3.003,5.097,6.221,5.459,10.473L203.962,194.369z" />
      <path fill="#376134" d="M196.611,189.563c0.688-0.276,3.036,0.661,5.909,1.418c-1.597-0.012-5.006-5.341-4.688-5.318c0.4,1.079,0.395,1.985,1.458,3.348c-1.668-1.247-2.573-2.495-2.876-3.742l0.236,2.206c-0.118-0.236-3.388-3.112-3.388-3.112l2.797,3.506l-2.009-0.473l4.136,1.93L196.611,189.563z" />
      <path fill="#41723D" stroke="#376134" stroke-width="0.2803" d="M194.882,176.822c0.576,0.556,1.192,1.362,1.671,1.336c-0.271-1.467-0.139-2.629,0-3.788l1.003,1.783c0.095-1.821,0.292-3.629,1.114-5.348c0.906,1.488,1.638,3.092,2.229,4.791l1.114-1.114c-0.558,1.527,0.13,2.915,0.445,4.345l0.78-1.336c0.356,3.774,1.261,6.541-0.78,14.706c-3.741-4.75-7.25-9.529-7.576-15.374V176.822z" />
      <path fill="#376134" d="M198.461,182.816c1.626,2.183,2.239,4.492,3.073,6.776c0.036-2.064-0.638-4.215,0.158-6.185l-0.709,0.512c-0.758-1.782-0.945-3.586-0.709-5.515l-0.512,0.748c-0.435-1.336-0.533-2.589-0.551-3.821c-0.38,1.326-0.379,2.651-0.236,3.979l-0.709-0.276c0.889,1.514,1.591,2.979,1.733,4.924L198.461,182.816z" />
      <path fill="#41723D" stroke="#376134" stroke-width="0.2803" d="M200.397,183.451c0.576,0.556,1.192,1.362,1.671,1.336c-0.271-1.467-0.139-2.629,0-3.788l1.003,1.783c0.095-1.821,0.292-3.629,1.114-5.348c0.906,1.488,1.638,3.092,2.229,4.791l1.114-1.114c-0.558,1.527,0.13,2.915,0.445,4.345l0.78-1.336c0.356,3.774,1.261,6.541-0.78,14.706c-3.741-4.75-7.25-9.529-7.576-15.374V183.451z" />
      <path fill="#376134" d="M203.976,189.444c1.626,2.183,2.239,4.492,3.073,6.776c0.036-2.064-0.638-4.215,0.158-6.185l-0.709,0.512c-0.758-1.782-0.945-3.586-0.709-5.515l-0.512,0.748c-0.435-1.336-0.533-2.589-0.551-3.821c-0.38,1.326-0.379,2.651-0.236,3.979l-0.709-0.276c0.889,1.514,1.591,2.979,1.733,4.924L203.976,189.444z" />
      <path fill="#41723D" stroke="#376134" stroke-width="0.2803" d="M197.779,191.361l2.618,0.445l-0.111-0.335c2.303,0.083,3.426,1.165,5.124,2.562l0.724-0.612c1.712,3.294,6.553,6.676,11.364,7.967c6.13,0.75,6.708,1.394,19.683,2.276l-2.521,2.994l-22.609-5.436c-5.254-0.091-9.379-2.727-13.471-5.436h1.182c-0.447-0.208-2.251-0.956-2.915-2.364h0.945L197.779,191.361z" />
      <path fill="#376134" d="M201.065,195.844c3.079,0.468,5.588,2.124,8.273,3.592c-0.995-1.209-2.688-2.374-2.618-3.648l-0.335,0.92c-1.974-0.959-3.464-2.032-4.177-3.286l0.529,1.309l-3.398-1.727l2.618,1.838l-2.144-0.502c-0.139,0,3.286,1.588,3.286,1.588L201.065,195.844z" />
    </g>
    <g>
      <path fill="#F5C742" stroke="#A07843" stroke-width="0.253" d="M250.424,96.88c0.592,0.802,0.183,1.971,1.697,2.982c1.641,1.095,1.945,1.229,2.38,2.077l-0.032-0.021c-2.465-2.08-4.064-1.555-5.883-1.7c1.459,0.801,1.891,2.218,5.151,1.939l2.518,1.78c-0.608-0.079-1.212-0.185-1.467-0.333c-0.826-0.892-1.712-1.109-2.62-1.092s-1.836,0.267-2.745,0.306c1.632,1.036,3.23,2.276,5.385,1.562c0.452-0.052,1.468,0.252,2.314,0.423c0.585,0.306,1.103,0.644,1.6,1.464l0.011,0.02c-0.511-0.085-0.968-0.189-1.192-0.32c-2.02-2.183-4.338-1.061-6.564-0.962c1.997,1.267,3.951,2.783,6.586,1.912c0.405-0.045,1.182,0.141,1.976,0.327c0.548,0.626,1.197,1.245,2.135,1.712c-0.347-0.092-0.655-0.189-0.817-0.289c-1.9-2.115-4.336-1.308-6.606-1.406c1.941,1.297,3.823,2.814,6.564,2.255c0.524-0.009,1.626,0.359,2.609,0.632c0.668,0.58,1.159,1.183,1.614,1.811l0.053,0.068l0.071,0.052l0.552,0.417c-0.833-0.233-1.68-0.506-2.006-0.747c-1.876-2.461-4.583-1.805-7.033-2.112c1.991,1.577,3.897,3.388,6.914,3.027c0.706,0.045,2.329,0.809,3.495,1.167c0.648,0.738,1.258,1.589,1.847,2.501c-0.652-0.286-1.248-0.583-1.492-0.815c-1.57-2.674-4.338-2.355-6.733-2.964c1.789,1.812,3.468,3.844,6.506,3.858c0.533,0.102,1.548,0.682,2.5,1.177l1.691,2.985l-0.041,0.597c-0.786-0.509-1.624-1.094-1.886-1.453c-1.065-2.921-3.842-3.121-6.089-4.164c1.435,2.114,2.723,4.423,5.706,5c0.542,0.214,1.532,1.073,2.429,1.764c0.205,0.624,0.644,1.398,1.388,2.405l0.333,1.7c-0.715-0.615-1.474-1.314-1.688-1.708c-0.67-3.041-3.395-3.621-5.485-4.964c1.142,2.291,2.114,4.758,4.994,5.739c0.57,0.318,1.585,1.524,2.45,2.362l0.152,0.93c0.108,0.753,0.153,1.445,0.12,2.03c-0.535-0.586-1.033-1.182-1.177-1.526c-0.352-3.095-3.001-3.965-4.941-5.524c0.898,2.401,1.609,4.958,4.371,6.244c0.392,0.279,0.976,1.055,1.564,1.818l-0.017,0.052l-0.009,0.024l-0.009,0.024c-0.261,0.903-0.129,1.712,0.105,2.403c0.162,0.48,0.361,0.912,0.527,1.324c-0.515-0.635-1.001-1.283-1.126-1.647c-0.168-3.112-2.762-4.142-4.604-5.818c0.756,2.453,1.314,5.047,3.995,6.501c0.489,0.394,1.251,1.658,1.944,2.618c0.026,1.342-0.039,2.627-0.568,3.862c-0.544-0.905-1.206-2.073-1.295-2.598c0.342-3.097-2.047-4.554-3.589-6.518c0.344,2.547,0.47,5.2,2.876,7.089c0.424,0.477,0.977,1.888,1.512,2.959l-0.038,0.062l-0.114,0.167l0.033,0.2c0.315,2.059,0.217,3.848-0.183,5.489c-0.424-1.098-0.888-2.411-0.9-2.982c0.867-3.447-1.497-5.592-2.859-8.142c-0.032,2.962-0.32,6.001,1.992,8.642c0.42,0.689,0.832,2.671,1.288,4.027c-0.388,1.033-0.892,2.02-1.488,2.992c-0.297-1.042-0.427-1.897-0.361-2.529c1.274-3.041-0.832-5.283-1.889-7.773c-0.383,2.7-1.226,5.176,0.77,7.864c0.371,0.745,0.785,1.864,1.189,2.901l-0.333,0.509l-0.038,0.055l-0.021,0.067c-0.48,1.4-0.92,2.764-1.605,4.058l0.021-0.062c-0.209-1.136-0.255-2.042-0.117-2.691c1.582-2.886-0.279-5.342-1.073-7.932c-0.662,2.642-1.756,5.014-0.05,7.901c0.314,0.841,0.633,2.123,0.95,3.264c-0.235,0.404-0.496,0.791-0.782,1.161l-0.03,0.036l-0.021,0.039l-0.808,1.377c-0.245-0.977-0.33-1.768-0.229-2.345c1.392-2.677-0.521-4.753-1.411-7.015c-0.514,2.401-1.461,4.588,0.324,7.059c0.332,0.708,0.688,1.78,1.038,2.753c-0.47,0.758-0.945,1.576-1.423,2.776c-0.097-0.586-0.121-1.089-0.052-1.485c1.392-2.677-0.521-4.753-1.411-7.017c-0.514,2.401-1.459,4.588,0.326,7.059c0.273,0.582,0.562,1.409,0.85,2.227l-0.138,0.386l-0.003,0.006v0.009c-0.356,1.198-0.648,2.27-1.653,3.373c-0.161-0.976-0.18-1.759-0.036-2.318c1.602-2.553-0.141-4.78-0.847-7.109c-0.703,2.351-1.821,4.451-0.238,7.062c0.264,0.703,0.521,1.742,0.782,2.708l-0.1,0.1c-0.656,0.606-1.208,1.323-1.691,2.106c-0.079-0.708-0.068-1.292,0.047-1.735c1.601-2.553-0.141-4.78-0.848-7.109c-0.703,2.352-1.82,4.451-0.238,7.062c0.233,0.623,0.462,1.509,0.692,2.376c-0.4,0.721-0.748,1.491-1.077,2.274c-0.095-0.538-0.126-1.005-0.071-1.377c1.324-2.712-0.642-4.738-1.589-6.976c-0.453,2.414-1.342,4.626,0.505,7.048c0.268,0.536,0.558,1.288,0.847,2.045l-1.541,3.867l-0.103,0.233c-0.121-0.812-0.127-1.483,0.009-1.982c1.859-2.726-0.239-5.132-1.112-7.638c-0.798,2.517-2.091,4.762-0.176,7.579c0.311,0.727,0.62,1.788,0.929,2.792l-0.798,1.485l-1.909,3.194l0.471-1.606c3.024-3.806,0.294-6.132,0.082-8.573c-0.629,2.905-1.815,4.562-1.292,9.424c-0.103,1.003-0.274,1.908-0.551,2.738l-0.336,0.503l-1.72,2.364l0.253-0.438c2.564-3.106,1.597-5.874,2.001-8.327c-0.855,1.88-2.323,3.082-2.494,5.717c-0.632,2.639-1.259,4.677-2.389,6.233c-1.012,1.109-2.059,2.118-3.108,2.954l1.864-2.409c3.006-2.661,2.476-5.548,3.25-7.907c-1.13,1.723-2.765,2.676-3.336,5.251c-1.355,3.308-2.544,5.586-4.758,6.909l-0.021,0.015l0.374,0.951v0.002c3.514-1.444,6.947-5.248,9.742-9.073l1.17-1.653l3.585-5.761c1.68-2.159,1.791-2.333,5.832-4.001c3.18-1.312,2.929-3.474,4.344-4.695c-3.186,0.477-5.356,1.559-7.054,4.118l-1.797,1.953l1.518-3.748c0.992-0.92,1.691-1.2,4.648-2.061c2.948-0.859,2.921-2.744,4.289-3.676c-2.877,0.136-4.964,1.02-6.706,3.08l-1.695,1.376c0.36-0.843,0.782-1.659,1.264-2.439c1.533-1.442,1.714-1.588,5.233-2.535c2.823-0.761,2.795-2.432,4.108-3.256c-2.756,0.121-4.645,0.874-6.314,2.7l-1.035,0.745c0.711-0.829,1.109-1.668,1.394-2.476c0.861-0.961,1.474-1.286,4.227-2.42c2.708-1.114,2.477-2.768,3.676-3.754c-2.72,0.471-4.47,1.005-5.9,3.027l-1.615,1.932c0.436-1.32,0.867-2.206,1.303-2.965c0.759-0.689,1.539-1.03,3.988-1.923c2.748-1.003,2.583-2.665,3.821-3.6c-2.735,0.359-4.183,1-5.692,2.962l-1.139,0.955l0.548-0.956c0.452-0.591,0.849-1.222,1.185-1.885c0.756-0.679,1.724-1.156,4.155-2.239c3.097-1.38,2.762-3.253,4.114-4.424c-3.138,0.65-4.759,1.503-6.338,3.865l-1.186,1.135l0.541-1.498c0.897-1.332,1.486-1.765,4.598-3.548c2.947-1.689,2.429-3.518,3.661-4.821c-3.058,0.965-4.588,1.98-5.927,4.492l-0.814,0.953c0.448-0.845,0.824-1.727,1.121-2.636c0.57-0.691,1.429-1.409,3.171-2.788c2.67-2.114,1.892-3.845,2.921-5.32c-2.885,1.415-4.25,2.65-5.211,5.335l-0.352,0.561c0.097-0.619,0.153-1.244,0.168-1.871c0.491-0.956,1.223-1.72,3.253-3.656c2.47-2.353,1.541-4.005,2.433-5.57c-2.745,1.677-3.995,3.033-4.712,5.795l-1.009,1.986l-0.127-1.265c0.52-0.838,0.82-1.694,0.992-2.548c0.456-0.679,1.158-1.442,2.495-2.832c2.206-2.291,1.388-3.871,2.188-5.386c-2.448,1.644-3.565,2.962-4.215,5.629l-0.261,0.555l-0.005-1.298c0.333-0.868,0.912-1.724,2.314-3.635c1.886-2.571,0.868-4.026,1.464-5.635c-2.212,1.962-3.145,3.42-3.439,6.151l-0.574,1.806l-0.506-1.248l0.129-0.867l0.121,0.115l-0.033-0.479c0.249-0.95,0.742-1.735,2.229-3.835c1.761-2.488,0.603-3.755,1.1-5.273c-2.141,1.95-3,3.353-3.105,5.882l-0.302,1.108c0.014-0.646-0.027-1.292-0.123-1.93c0.22-0.721,0.624-1.595,1.403-3.17c1.321-2.676,0.129-3.83,0.411-5.404c-1.727,2.174-2.351,3.67-2.164,6.218l-0.023,0.171l-0.042-0.226l0.02,0.041l-0.074-0.318l-0.197-1.011c-0.123-0.944,0.07-1.659,0.865-3.927c0.871-2.486-0.623-3.279-0.636-4.662c-1.4,2.124-1.765,3.495-1.061,5.633l0.092,1.358c-0.527-0.785-0.761-1.323-0.852-1.712c-0.117-0.5-0.032-0.826-0.018-1.373l0.003-0.138l-0.014-0.024c0.097-0.558,0.264-1.255,0.53-2.277c0.665-2.551-0.888-3.214-1.014-4.592c-0.88,1.611-1.253,2.786-1.068,4.091l-0.238-0.398c-0.141-0.642-0.1-1.388,0.073-3.106c0.23-2.308-1.135-2.671-1.411-3.851c-0.73,2.111-0.764,3.358,0.218,5.038l0.071,0.239l-0.956-1.347c-0.156-0.565-0.22-1.318-0.305-2.744c-0.136-2.315-1.542-2.45-2.001-3.57c-0.352,1.998-0.239,3.203,0.705,4.527l-0.711-0.624c-0.314-0.626-0.421-1.347-0.611-3.189c-0.238-2.306-1.648-2.379-2.156-3.476c-0.289,2.218-0.071,3.445,1.227,4.885l0.195,0.368c-0.365-0.412-0.786-0.821-1.289-1.218c-0.217-0.526-0.394-1.244-0.676-2.547c-0.489-2.265-1.898-2.174-2.523-3.208c-0.045,2.236,0.308,3.432,1.756,4.714l0.092,0.135c-0.341-0.151-0.663-0.341-0.961-0.565l0.108,0.006l-0.898-1.059l-0.259-0.026c-0.439-0.674-0.53-1.067-0.677-2.921c-0.139-1.765-1.164-1.827-1.517-2.67c-0.244,1.694-0.103,2.633,0.821,3.741l0.252,0.517c-0.553-0.683-1.158-1.041-1.718-1.332c-0.138-0.389-0.276-0.905-0.471-1.697c-0.442-1.795-1.592-1.695-2.121-2.506c0.005,1.518,0.235,2.427,1.045,3.277l-0.648-0.439l-1.868-2.85c-0.571-1.565-1.347-2.177-2.97-2.726L250.424,96.88z M263.384,115.556l-0.001-0.002L263.384,115.556z M256.672,109.636h-0.003H256.672z M274.433,132.856l0.079,0.739C274.451,133.353,274.425,133.105,274.433,132.856z" />
      <path fill="#FFEBA3" d="M255.036,176.779c0.733,1.174,1.555,3.083-0.245,4.864C255.257,180.043,255.127,178.046,255.036,176.779z M258.959,171.496c0.495-2.205-0.221-3.023-0.873-3.914C258.431,168.901,258.756,170.213,258.959,171.496z M257.115,175.592c0.827-2.288,0.073-3.251-0.6-4.283C256.777,172.758,257.015,174.198,257.115,175.592z M249.525,187.416c-0.515,1.282-1.238,3.241-2.029,4.409C248.935,190.74,249.339,188.722,249.525,187.416z M251.542,187.267c1.256-1.3,1.347-3.358,1.33-4.677C252.56,183.937,252.144,185.988,251.542,187.267z M267.401,121.259c1.071,0.912,2.121,1.832,3.062,2.795C269.483,121.915,268.44,121.636,267.401,121.259z M267.401,121.259C267.401,121.259,267.401,121.259,267.401,121.259L267.401,121.259L267.401,121.259z M271.593,128.515c-0.755-2.233-1.762-2.623-2.756-3.109C269.809,126.427,270.757,127.456,271.593,128.515z M267.672,149.189c0.249,1.503,0.474,2.998,0.58,4.448C268.943,151.233,268.272,150.248,267.672,149.189z M268.837,125.406C268.837,125.406,268.837,125.406,268.837,125.406C268.837,125.406,268.837,125.406,268.837,125.406L268.837,125.406z M265.393,153.372c0.311,1.326,0.6,2.647,0.771,3.935C266.718,155.118,266.022,154.28,265.393,153.372z M267.672,149.189L267.672,149.189L267.672,149.189L267.672,149.189z M269.54,129.901c0.908,1.079,1.794,2.164,2.567,3.273C271.487,130.898,270.504,130.448,269.54,129.901z M266.557,109.148c0.421,1.083,0.818,2.201,1.1,3.488C268.093,110.744,267.313,109.956,266.557,109.148z M269.306,111.554c0.245,1.138,0.461,2.308,0.535,3.624C270.569,113.382,269.924,112.477,269.306,111.554z M264.904,116.863c1.18,0.758,2.342,1.524,3.403,2.35C267.053,117.227,265.983,117.094,264.904,116.863z M263.845,106.373c0.468,1.062,0.915,2.162,1.253,3.435C265.451,107.897,264.636,107.147,263.845,106.373z M277.315,125.398c-0.502,1.452-1.053,2.918-1.845,4.467C277.402,128.271,277.339,126.836,277.315,125.398z M278.198,129.1c-0.594,1.536-1.238,3.088-2.12,4.709C278.063,132.219,278.112,130.66,278.198,129.1z M269.731,133.924c0.718,1.22,1.415,2.439,1.995,3.664C271.487,135.237,270.592,134.627,269.731,133.924z M278.716,137.63c-0.88,1.488-1.82,2.985-3.035,4.515C278.121,140.815,278.396,139.219,278.716,137.63z M275.865,121.98c-0.292,1.508-0.63,3.036-1.177,4.67C276.266,124.854,276.048,123.421,275.865,121.98z M278.686,133.334c-0.789,1.442-1.63,2.892-2.718,4.379C278.142,136.407,278.395,134.869,278.686,133.334z M270.139,148.766c0.436-2.465-0.333-3.371-1.039-4.361C269.503,145.874,269.883,147.336,270.139,148.766z M269.828,139.18c0.586,1.532,1.148,3.061,1.583,4.571C271.527,141.033,270.651,140.156,269.828,139.18z M271.733,119.175c1.168-1.885,0.558-3.021-0.017-4.173C271.813,116.327,271.869,117.682,271.733,119.175z M273.918,118.109c-0.012,1.329-0.067,2.683-0.323,4.159C274.913,120.489,274.396,119.304,273.918,118.109z M265.643,173.955c-1.376,1.148-2.809,2.276-4.512,3.312C263.903,177.013,264.754,175.47,265.643,173.955z M255.989,107.841c1.264,0.229,2.515,0.474,3.7,0.805C257.945,107.394,256.988,107.657,255.989,107.841z M276.227,152.449c-1.317,1.105-2.691,2.197-4.336,3.227C274.625,155.251,275.407,153.84,276.227,152.449z M273.616,151.411c2.68-0.702,3.318-2.185,3.998-3.653C276.413,148.992,275.152,150.218,273.616,151.411z M262.978,113.342c1.244,0.644,2.47,1.3,3.6,2.023C265.151,113.504,264.074,113.471,262.978,113.342z M250.85,103.215c1.024,0.114,2.039,0.244,3.006,0.456C252.385,102.662,251.636,102.974,250.85,103.215z M250.85,103.215L250.85,103.215C250.85,103.215,250.85,103.215,250.85,103.215C250.85,103.215,250.85,103.215,250.85,103.215z M271.68,161.381c-1.167,0.927-2.382,1.842-3.83,2.695C270.216,163.789,270.931,162.575,271.68,161.381z M269.633,166.376c-1.271,0.773-2.589,1.524-4.13,2.186C267.886,168.579,268.743,167.466,269.633,166.376z M267.357,170.236c-1.327,0.871-2.705,1.721-4.314,2.468C265.531,172.722,266.428,171.466,267.357,170.236z M260.622,168.219c0.726-2.138,0.098-3.029-0.456-3.986C260.372,165.581,260.556,166.922,260.622,168.219z M273.242,157.787c-1.203,0.879-2.453,1.744-3.933,2.536C271.684,160.133,272.446,158.949,273.242,157.787z M250.125,101.085c1.024,0.114,2.039,0.244,3.006,0.456C251.66,100.532,250.912,100.844,250.125,101.085z M258.594,110.271c1.348,0.361,2.683,0.738,3.938,1.202C260.751,109.962,259.691,110.162,258.594,110.271z M260.93,104.611c0.582,1.003,1.147,2.044,1.621,3.27C262.692,105.941,261.8,105.288,260.93,104.611z M263.871,157.46c0.311,1.326,0.6,2.647,0.771,3.935C265.195,159.205,264.5,158.367,263.871,157.46z M262.215,161.101c0.206,1.348,0.389,2.689,0.456,3.986C263.397,162.949,262.769,162.058,262.215,161.101z M258.316,101.948c0.326,0.815,0.633,1.658,0.861,2.633C259.462,103.123,258.88,102.545,258.316,101.948z M278.284,142.698c-1.011,1.4-2.079,2.803-3.426,4.215C277.407,145.815,277.824,144.252,278.284,142.698z M253.23,99.862c-0.768-0.726-1.382-1.477-1.962-2.235C251.545,98.544,251.798,99.473,253.23,99.862z M255.272,100.67c0.494,0.788,0.974,1.606,1.386,2.574C256.738,101.695,255.997,101.192,255.272,100.67z M256.398,106.05c-1.8-1.235-2.715-0.855-3.677-0.559C253.974,105.632,255.216,105.789,256.398,106.05z" />
      <linearGradient id="Gradient_ID_KA_7" gradientUnits="userSpaceOnUse" x1="138.1129" y1="231.4899" x2="137.4966" y2="230.3383" gradientTransform="matrix(7.6969 0 0 -7.6969 -816.3455 1955.6166)">
        <stop offset="0" style="stop-color:#355D32" />
        <stop offset="1" style="stop-color:#41723D" />
      </linearGradient>
      <path fill="url(#Gradient_ID_KA_7)" stroke="#376134" stroke-width="0.2803" d="M253.05,175.119c0.28,0.745-2.08,4.833-2.68,5.682c-3.555,6.051-7.214,12.027-11.371,17.63c-0.153,0.57-0.544,0.898-0.989,1.168c-10.853,1.33-21.388,3.341-27.9,3.803l2.694,3.251l26.074-5.901l0.045-0.008c0.776,0.038,1.233-0.059,1.938-0.214c3.859-1.021,7.541-2.391,10.124-5.93c3.123-3.547,6.064-8.77,8.423-10.988l5.829-5.573c-5.592,3.235-7.812,6.497-11.957,11.967c-2.648,3.468-6.404,8.726-12.835,9.214l-0.111-0.352c3.859-1.021,7.541-2.391,10.124-5.93c2.806-3.547,5.456-8.479,8.536-10.695l8.242-8.026c-5.65,4.735-11.1,8.403-14.486,14.129c-2.62,3.43-5.064,8.321-11.292,8.888c3.75-5.023,6.874-11.268,10.382-16.321c0.445-0.971,1.058-1.845,1.485-2.823c0.1-1.018,0.236-1.814,0.167-2.856L253.05,175.119z" />
      <path fill="#41723D" stroke="#376134" stroke-width="0.2803" d="M245.326,181.494c1.742-2.5,2.721-6.303,5.05-8.72c1.479-1.514,2.767-0.482,3.371,0.735c0.489,0.985-0.18,4.879-0.421,4.577c-0.452-2.382-0.718-5.9-3.582-3.15C248.607,176.028,248.104,179.149,245.326,181.494L245.326,181.494z M249.851,178.726c-2.173,5.718-8.354,4.732-7.964,15.521l1.464-2.029c-0.77-6.791,6.824-9.642,6.501-13.491L249.851,178.726z" />
    </g>
  </g>
</svg>
