<svg xmlns="http://www.w3.org/2000/svg" width="450px" height="300px" viewBox="0 0 450 300">
  <path fill="#0D9542" d="M0,0h450v300H0V0z" />
  <g>
    <path fill="#CEC969" stroke="#B9B33D" stroke-width="0.1969" d="M225,55.602c-44.13-0.218-69.76,16.768-82.825,24.949C132.018,171.795,176.747,221.392,225,244.4c48.253-23.008,92.982-72.605,82.825-163.849C294.76,72.37,269.13,55.384,225,55.602z" />
    <path fill="#24A849" stroke="#B9B33D" stroke-width="0.1969" d="M224.971,61.548c-40.35-0.199-63.488,13.954-77.105,22.51C139.36,169.63,179.975,215.3,225,237.718c45.026-22.418,85.64-68.088,77.134-153.66c-13.617-8.556-36.754-22.709-77.105-22.509C225.01,61.549,224.99,61.549,224.971,61.548z" />
    <path fill="#DA271E" d="M225,78.049c33.206,0,60.08,26.873,60.08,60.08s-26.873,60.08-60.08,60.08s-60.08-26.873-60.08-60.08S191.793,78.049,225,78.049z" />
    <path fill="#CEC969" stroke="#B9B33D" stroke-width="0.2035" d="M225,73.719c-35.547,0-64.41,28.863-64.41,64.41S189.452,202.54,225,202.54s64.41-28.864,64.41-64.412S260.548,73.719,225,73.719z M225,78.049c33.206,0,60.08,26.873,60.08,60.08s-26.873,60.08-60.08,60.08s-60.08-26.873-60.08-60.08S191.793,78.049,225,78.049z" />
    <path fill="#E3E0A9" d="M225,75.208c-34.741,0-62.921,28.179-62.921,62.921s28.179,62.922,62.921,62.922s62.921-28.181,62.921-62.922S259.741,75.208,225,75.208z M225,76.56c34.01,0,61.569,27.559,61.569,61.569S259.01,199.698,225,199.698s-61.569-27.559-61.569-61.569S190.99,76.56,225,76.56z" />
    <path fill="#F7E926" stroke="#C3BB00" stroke-width="0.0984" d="M183.634,155.883c7.928-4.852,13.625,3.656,19.901,5.496C197.441,159.854,195.61,167.525,183.634,155.883z M199.399,142.335c8.013,4.711,3.189,13.742,4.519,20.145C202.395,156.386,194.765,158.382,199.399,142.335z M177.071,146.027c8.607-3.509,12.857,5.807,18.753,8.636C190.056,152.175,187.011,159.45,177.071,146.027z M192.847,127.07c6.055,7.087-1.942,13.692-2.998,20.018C190.604,140.979,182.462,140.168,192.847,127.07z M196.413,134.649c6.456,7.004-0.632,14.045-1.076,20.54C195.513,148.925,187.617,148.405,196.413,134.649z M173.266,136.656c8.308-3.173,10.946,5.853,16.443,8.913C184.322,142.854,182.213,150.468,173.266,136.656z M174.35,123.216c9.072,1.072,6.116,11.119,10.949,15.488C182.498,136.532,174.244,139.745,174.35,123.216z M191.641,121.57c1.4,9.219-4.78,11.833-7.192,17.33C186.629,133.479,182.001,129.486,191.641,121.57z M195.347,113.552c-3.135,10.376-9.214,9.465-13.501,13.638C185.83,122.916,183.742,114.393,195.347,113.552z M178.439,109.617c9.255,5.463,2.921,14.467,4.097,21.197C181.11,124.39,171.882,125.902,178.439,109.617z M198.898,106.195c-3.941,8.451-10.855,7.243-15.908,10.483C187.807,113.373,186.487,107.445,198.898,106.195z M187.126,97.264c5.322,8.33-2.66,14.498-4.039,21.178C184.168,111.96,176.491,110.136,187.126,97.264z M197.852,87.914c3.092,8.195-5.479,11.769-8.143,17.159C192.06,99.789,185.451,96.631,197.852,87.914z M206.62,98.344c-5.413,8.354-11.986,5.658-17.542,8.15C194.414,103.885,194.198,97.204,206.62,98.344z M213.797,92.933c-6.335,7.298-11.944,3.495-17.458,4.987C201.67,96.273,202.556,89.646,213.797,92.933z M208.456,82.833c0.446,8.974-7.313,9.877-10.786,14.354C200.866,92.719,196.35,87.618,208.456,82.833z M219.342,86.206c-5.545,7.915-11.518,4.712-16.849,6.766C207.626,90.783,207.821,84.1,219.342,86.206z" />
    <path fill="#F8ED74" d="M185.048,155.971c6.269-2.207,9.761,2.287,14.258,4.355C194.691,158.775,190.38,157.003,185.048,155.971z M199.986,143.624c4.898,4.492,2.578,9.688,2.87,14.63C202.053,153.452,201.586,148.814,199.986,143.624z M178.451,146.343c6.543-1.166,9.264,3.832,13.369,6.599C187.516,150.666,183.547,148.222,178.451,146.343z M192.945,128.454c3.11,5.81-1.049,9.767-2.578,14.395C191.347,138.172,192.595,133.762,192.945,128.454z M196.632,136.057c3.511,5.811-0.128,10.006-1.179,14.786C195.974,146.034,196.774,141.486,196.632,136.057z M174.566,137.026c6.26-0.91,8.66,4.194,12.457,7.122C183.018,141.703,179.338,139.104,174.566,137.026z M175.272,124.157c5.988,2.129,5.157,7.811,6.794,12.207C179.971,132.301,178.247,128.253,175.272,124.157z M191.3,122.912c0.097,6.773-3.395,8.733-5.587,12.435C187.609,131.367,189.58,127.751,191.3,122.912z M194.297,114.63c-2.348,6.354-6.311,6.926-9.689,9.59C187.81,121.19,190.951,118.526,194.297,114.63z M179.056,110.994c5.554,5.01,2.453,10.224,2.484,15.364C180.89,121.325,180.631,116.487,179.056,110.994z M198.293,106.42c-3.671,5.693-7.664,5.39-11.54,7.258C190.536,111.415,194.18,109.496,198.293,106.42z M187.136,98.764c2.604,6.612-1.579,10.381-3.305,15.18C185.041,109.029,186.487,104.432,187.136,98.764z M197.545,89.191c0.978,6.166-3.626,8.496-6.209,12.214C193.473,97.479,195.759,93.874,197.545,89.191z M205.984,98.466c-4.645,5.424-8.512,4.294-12.662,5.537C197.452,102.314,201.383,100.969,205.984,98.466z M213.192,92.942c-5.153,4.542-8.527,2.755-12.545,3.258C204.72,95.253,208.553,94.611,213.192,92.942z M207.893,83.992c-0.745,6.343-5.015,7.23-8.009,10.092C202.571,90.883,205.299,88.041,207.893,83.992z M218.742,86.278c-4.655,5.051-8.196,3.622-12.141,4.539C210.554,89.453,214.3,88.417,218.742,86.278z" />
    <path fill="none" stroke="#C3BB00" stroke-width="0.0394" d="M187.19,156.428c6.986,3.473,11.859,4.44,16.346,4.951 M190.772,155.725c1.461,2.036,3.829,3.519,5.534,4.291 M190.262,159.641c3.462,0.688,3.926,0.254,5.318,0.165 M200.592,145.729c0.225,7.798,1.665,12.553,3.327,16.752 M202.898,148.558c-1.108,2.247-1.302,5.035-1.18,6.902 M199.203,149.952c1.022,3.378,1.625,3.584,2.357,4.77 M180.492,147.139c6.334,4.555,10.987,6.296,15.333,7.524 M184.14,147.024c1.113,2.245,3.211,4.091,4.769,5.127 M183.005,150.807c3.305,1.238,3.834,0.884,5.222,1.022 M192.761,130.592c-2.641,7.222-2.986,12.076-2.912,16.497 M193.963,133.981c-1.9,1.675-3.111,4.162-3.677,5.915 M189.863,133.981c-0.246,3.449,0.264,3.845,0.54,5.185 M196.648,138.245c-1.886,7.469-1.78,12.435-1.311,16.944 M198.108,141.659c-1.675,1.781-2.613,4.364-3,6.174 M194.17,141.812c0.075,3.528,0.6,3.913,0.987,5.271 M176.475,137.901c5.849,4.803,9.116,6.235,13.2,7.632 M179.946,137.929c0.974,2.288,2.899,4.217,4.34,5.314 M178.727,141.667c3.094,1.367,3.61,1.034,4.923,1.226 M176.437,125.835c2.354,7.033,5.154,9.207,7.918,12.372 M179.452,127.49c-0.461,2.5,0.524,4.804,1.153,6.46 M176.245,130.254c1.918,2.674,2.874,2.311,3.91,3.098 M190.583,124.843c-3.567,5.669-4.698,9.802-5.923,13.987 M190.293,128.536c-1.557,0.77-2.956,2.596-3.78,4.002 M187.969,126.802c-1.128,3.136-0.953,3.724-1.18,5.1 M192.934,116.173c-5.369,4.005-8.438,7.552-11.088,11.016 M191.333,119.514c-1.73,0.158-3.692,1.357-4.967,2.373 M189.79,117.06c-2.181,2.52-2.229,3.131-2.937,4.333 M179.643,113.219c-0.232,8.094,1.18,13.124,2.893,17.595 M182.212,116.318c-1.466,2.247-1.876,5.121-1.851,7.064 M177.716,117.493c1.003,3.574,1.708,3.83,2.506,5.113 M196.627,107.63c-6.11,2.744-9.876,5.54-13.215,8.346 M194.339,110.544c-1.723-0.221-3.899,0.523-5.364,1.238 M193.365,107.814c-2.676,1.986-2.856,2.573-3.807,3.593 M186.834,101.041c-2.937,7.458-3.554,12.638-3.748,17.402 M187.773,104.827c-1.903,1.579-3.2,4.113-3.842,5.931 M183.883,104.347c-0.439,3.68,0.021,4.166,0.203,5.639 M196.79,91.064c-4.247,5.726-5.901,10-7.081,14.01 M196.846,94.479c-2.066,0.944-3.781,2.827-4.75,4.238 M193.404,93.257c-1.176,3.037-0.859,3.546-1.003,4.837 M204.126,99.442c-6.503,1.742-10.714,4.012-14.506,6.378 M201.347,102.136c-1.653-0.586-3.926-0.217-5.496,0.263 M200.888,98.985c-2.992,1.612-3.275,2.211-4.396,3.123 M211.325,93.581c-6.265,0.586-10.506,2.093-14.378,3.766 M208.332,95.755c-1.425-0.865-3.576-0.897-5.098-0.697 M208.421,92.567c-3.013,1.069-3.371,1.611-4.55,2.316 M206.823,85.599c-4.826,4.326-7.212,8.015-9.154,11.588 M206.021,88.965c-1.891,0.299-3.733,1.624-4.86,2.714 M203.564,86.722c-1.696,2.621-1.569,3.216-2.005,4.438 M216.95,87.106c-6.171,1.232-10.233,3.168-13.911,5.234 M214.198,89.578c-1.507-0.713-3.65-0.522-5.143-0.166 M213.957,86.398c-2.887,1.376-3.187,1.951-4.286,2.774" />
    <path fill="#F7E926" stroke="#C3BB00" stroke-width="0.0984" d="M203.783,92.196c-11.823,8.256-18.046,16.119-20.558,24.48s-1.257,16.397,1.747,23.379s7.747,12.933,12.288,17.265c1.989,1.921,4.142,3.664,6.434,5.209c1.943,1.283,3.57,2.097,4.858,2.347l0.311-1.597c-0.848-0.165-2.426-0.888-4.273-2.107c-2.212-1.492-4.289-3.175-6.208-5.029c-4.411-4.208-9.027-10.013-11.918-16.731s-4.069-14.322-1.682-22.266c2.387-7.944,7.831-16.492,19.439-24.599L203.783,92.196z" />
    <path fill="#24A849" stroke="#047A35" stroke-width="0.0327" d="M255.387,109.854c4.093,1.922,5.782,3.062,9.136,1.69l0.985,2.568C259.472,115.631,257.74,111.971,255.387,109.854z M254.67,153.993c4.694,0.044,9.49-0.901,16.974-4.729c-1.057,5.261-13.605,9.885-19.526,7.797L254.67,153.993z M257.673,119.465c3.229,3.824,5.808,6.302,9.819,6.75l-0.6,2.348C260.112,126.892,259.059,122.586,257.673,119.465L257.673,119.465z M253.925,106.27c3.776,1.5,5.35,2.426,8.295,1.043l1.015,2.228C257.888,111.188,256.146,108.03,253.925,106.27z M235.222,87.745c4.413,0.667,2.378,0.782,13.037,4.048C245.338,92.486,242.054,92.657,235.222,87.745z" />
    <path fill="#24A849" stroke="#047A35" stroke-width="0.0295" d="M256.875,151.063c3.219,0.554,9.861-0.333,17.743-6.661c-1.233,6.816-14.027,10.96-19.947,9.591L256.875,151.063z M262.68,141.724c2.523,0.295,6.812-1.859,13.883-9.028c-0.03,4.844-10.597,12.407-15.238,11.603L262.68,141.724z M267.517,122.625c1.367,0.06,4.303-3.608,5.526-8.744c2.145,4.185-3.185,11.375-5.748,11.041L267.517,122.625z M265.577,114.473c0.955-0.187,2.411-3.609,2.45-7.906c2.142,2.961-0.417,9.596-2.243,9.771L265.577,114.473z M249.17,141.728c0.346,5.888,1.492,10.815,4.636,13.345l-1.475,2.107C247.399,151.962,248.642,145.543,249.17,141.728z M257.821,120.619c2.459,4.359,4.799,7.453,8.658,8.641l-1.028,2.195C259.102,128.549,258.601,123.944,257.821,120.619L257.821,120.619z M257.962,124.016c1.342,4.948,3.493,8.667,7.236,10.178l-1.21,2.099C257.909,132.859,258.035,127.377,257.962,124.016z M257.978,126.292c0.874,5.052,2.736,8.942,6.321,10.796l-1.401,1.977C257.165,135.079,257.738,129.645,257.978,126.292L257.978,126.292z M257.933,118.707c3.805,3.251,5.774,4.808,9.805,4.6l-0.213,2.414C260.565,125.17,259.807,121.563,257.933,118.707L257.933,118.707z M256.99,114.717c4.134,2.821,5.943,4.612,9.929,3.97l0.365,1.966C260.305,120.858,259.161,117.354,256.99,114.717z M255.746,111.271c4.194,2.419,5.884,3.761,9.66,2.821l0.767,2.67C259.487,117.512,258.04,113.666,255.746,111.271z M252.908,104.79c3.76,1.224,5.345,2.023,8.131,0.531l1.115,2.077C257.046,109.279,255.171,106.352,252.908,104.79z M249.831,100.828c3.551,1.1,5.055,1.847,7.634,0.261l1.092,2.042C253.809,105.183,251.986,102.315,249.831,100.828z M246.6,97.316c3.551,1.1,4.571,2.058,7.15,0.472l1.7,1.645C250.702,101.485,248.755,98.803,246.6,97.316L246.6,97.316z M242.041,93.334c3.381,1.018,4.33,1.823,6.863,0.659l2.038,1.626C248.871,98.017,244.065,94.606,242.041,93.334L242.041,93.334z M263.936,110.709c0.848-0.332,1.615-3.603,0.933-7.397c2.468,2.236,1.222,8.532-0.43,9.005L263.936,110.709z M261.791,106.998c0.808-0.299,1.162-3.248-0.003-6.668c2.757,2.016,2.306,7.692,0.71,8.118L261.791,106.998z M259.609,103.193c0.28-1.13,0.006-3.454-1.184-5.949c2.462,1.393,3.031,5.535,2.282,7.263L259.609,103.193z M256.553,100.032c0.28-1.13-1.199-4.522-2.389-7.017c2.462,1.393,4.235,6.603,3.486,8.331L256.553,100.032z M253.693,97.133c0.165-1.152-1.646-4.379-3.079-6.742c2.589,1.139,4.875,6.145,4.303,7.94L253.693,97.133z M246.583,92.731c-0.76-1.303-2.903-3.348-4.618-4.893c2.377,0.291,5.346,3.299,6.182,5.358L246.583,92.731z" />
    <path fill="#24A849" stroke="#047A35" stroke-width="0.0295" d="M252.117,157.06c3.989,1.143,12.487,0.037,18.472-5.057c-0.18,5.156-12.191,10.178-19.947,7.165L252.117,157.06z M247.482,143.715c0.346,5.888,1.492,10.815,4.636,13.345l-1.475,2.107C245.711,153.949,246.953,147.53,247.482,143.715z M259.039,147.7c2.947,0.59,8.859-0.325,16.073-7.07c-0.035,6.891-12.692,11.731-18.112,10.272L259.039,147.7z M261.107,144.434c2.754,0.439,8.091-1.146,14.834-8.646c-0.033,7.217-11.852,13.109-16.918,11.911L261.107,144.434z M263.843,139.115c2.273,0.316,6.137-1.993,12.507-9.681c-0.027,5.194-9.547,13.305-13.728,12.442L263.843,139.115z M264.915,135.933c2.053,0.319,5.543-2.011,11.297-9.77c-0.025,5.242-8.623,13.427-12.4,12.557L264.915,135.933z M266.286,132.371c1.74,0.325,4.698-2.053,9.575-9.97c-0.021,5.35-7.309,13.703-10.51,12.815L266.286,132.371z M266.677,129.449c1.569,0.112,4.234-2.26,8.63-9.666c-0.019,4.68-6.587,12.706-9.473,12.246L266.677,129.449z M267.045,126.043c1.339,0.304,4.989-3.499,7.243-9.319c1.27,5.281-5.464,12.808-7.931,11.977L267.045,126.043z M266.944,120.53c1.227,0.054,3.865-3.242,4.963-7.856c1.927,3.76-2.861,10.22-5.163,9.92L266.944,120.53z M266.599,118.268c1.115,0.05,3.51-3.019,4.507-7.317c1.75,3.502-2.598,9.518-4.689,9.239L266.599,118.268z M266.423,115.958c1.099-0.192,2.774-3.707,2.819-8.118c2.466,3.041-0.48,9.855-2.581,10.034L266.423,115.958z M265.06,112.324c0.848-0.332,1.615-3.603,0.933-7.397c2.468,2.236,1.222,8.532-0.43,9.005L265.06,112.324z M257.784,122.002c1.757,4.816,4.29,8.454,8.149,9.641l-1.028,2.195C258.556,130.932,258.143,125.345,257.784,122.002z M257.067,129.957c0.346,5.888,1.604,10.367,4.748,12.898l-1.587,2.554C255.296,140.192,256.539,133.773,257.067,129.957L257.067,129.957z M252.498,137.01c0.346,5.888,1.492,10.815,4.636,13.345l-1.475,2.107C250.727,147.244,251.969,140.825,252.498,137.01z M250.859,139.642c0.346,5.888,1.492,10.815,4.636,13.345l-1.475,2.107C249.089,149.876,250.331,143.457,250.859,139.642z M255.577,132.59c0.346,5.888,1.492,10.815,4.636,13.345l-1.475,2.107C253.807,142.824,255.049,136.405,255.577,132.59z M254.087,134.974c0.346,5.888,1.492,10.815,4.636,13.345l-1.475,2.107C252.317,145.208,253.559,138.789,254.087,134.974z M257.785,128.622c0.618,5.089,2.197,9.322,5.685,11.354l-1.499,1.904C256.448,137.609,257.376,131.959,257.785,128.622L257.785,128.622z M257.271,117.035c4.135,2.821,6.26,4.156,10.245,3.513l0.05,2.423C260.586,123.175,259.442,119.671,257.271,117.035L257.271,117.035z M256.423,112.568c4.206,2.713,5.838,4.66,9.805,3.915l0.533,2.315C259.79,119.183,258.662,115.148,256.423,112.568L256.423,112.568z M254.493,108.107c4.195,1.689,5.945,2.732,9.217,1.174l1.128,2.509C258.896,113.645,256.961,110.089,254.493,108.107z M251.749,102.892c3.519,1.199,5.002,1.988,7.624,0.474l1.034,2.072C255.604,107.357,253.862,104.439,251.749,102.892z M248.461,99.142c3.551,1.1,4.571,2.058,7.15,0.472l1.7,1.645C252.564,103.311,250.616,100.629,248.461,99.142L248.461,99.142z M244.177,95.384c3.551,1.1,4.571,2.058,7.15,0.472l1.7,1.645C248.279,99.554,246.332,96.872,244.177,95.384L244.177,95.384z M240.324,91.09c3.251,1.377,4.109,2.279,6.752,1.396l1.423,1.542C243.735,94.969,242.199,92.573,240.324,91.09L240.324,91.09z M263.014,108.879c0.829-0.332,1.408-3.603,0.507-7.397c2.597,2.236,1.713,8.532,0.089,9.005L263.014,108.879z M260.662,105.37c0.772-0.381,0.82-3.351-0.692-6.632c2.95,1.72,3.089,7.412,1.546,8.001L260.662,105.37z M257.853,101.367c0.28-1.13,0.006-3.454-1.184-5.949c2.462,1.393,3.031,5.535,2.282,7.263L257.853,101.367z M254.906,98.328c0.07-0.939,0.479-2.164-0.566-4.082c1.408,1.369,2.224,3.992,2.005,5.584L254.906,98.328z M252.31,96.31c0.105-1.159-1.874-4.286-3.43-6.571c2.646,1.001,5.192,5.88,4.715,7.702L252.31,96.31z M250.109,94.544c0.008-1.164-2.224-4.116-3.964-6.263c2.72,0.778,5.663,5.428,5.339,7.284L250.109,94.544z M248.081,93.611c-0.548-1.406-2.344-3.76-3.798-5.554c2.303,0.658,4.766,4.093,5.27,6.257L248.081,93.611z" />
    <path fill="#44AE51" d="M256.953,111.057c2.909,0.579,3.969,2.674,8,1.078l0.191,0.534C259.546,114.154,259.964,111.736,256.953,111.057z M251.801,157.446l-0.289,0.572c3.151,1.794,12.684,0.068,18.103-4.867C267.636,154.818,257.951,159.61,251.801,157.446z M247.412,147.192c1.362,3.607-0.531,6.042,4.101,10.826l0.289-0.572C248.064,154.369,248.787,150.623,247.412,147.192z M254.106,154.67l-0.64,0.769c-3.709-3.073-2.994-6.81-4.366-10.234c1.362,3.607-0.531,6.042,4.101,10.826l0.247-0.49c3.804,1.239,11.865-0.06,17.259-4.974C268.728,152.236,260.677,156.026,254.106,154.67z M256.659,151.361l-0.713,0.943c3.783,0.807,12.497-1.059,17.916-6.654C270.007,148.812,262.485,152.712,256.659,151.361z M258.473,148.544l-0.09,0.139c-3.708-3.073-2.993-6.81-4.366-10.233c1.355,3.587-0.504,6.017,4.03,10.749l-0.227,0.35c3.464,0.86,11.639-1.625,16.6-7.589C270.891,145.331,263.807,149.984,258.473,148.544z M260.476,145.248l-0.592,1.061c-3.721-3.075-3.002-6.816-4.376-10.242c1.362,3.607-0.531,6.042,4.101,10.826l0.278-0.55c3.247,0.674,10.781-2.587,15.408-9.119C271.995,140.967,265.46,146.432,260.476,145.248z M275.971,133.659c-3.965,4.797-8.569,7.75-13.533,8.793l-0.559,0.733C264.844,143.649,273.411,138.648,275.971,133.659z M263.625,139.896l-0.503,0.786c2.671,0.498,10.39-4.865,12.696-10.215C272.245,135.61,268.097,138.777,263.625,139.896z M264.717,136.721l-0.455,0.793c2.413,0.502,9.384-4.91,11.467-10.309C272.503,132.397,268.757,135.593,264.717,136.721z M266.119,133.175l-0.385,0.81c2.045,0.513,7.954-5.011,9.719-10.52C272.718,128.762,269.543,132.023,266.119,133.175z M266.526,130.169l-0.347,0.746c1.843,0.246,7.169-5.169,8.76-10.162C272.474,125.657,269.612,128.823,266.526,130.169z M267.168,126.673c-4.697-0.608-6.16-2.819-8.477-5.318l0,0c2.139,2.294,2.234,4.335,8.095,5.806l-0.148,0.391c1.575,0.479,6.228-4.543,7.524-9.692C272.183,122.656,269.7,125.519,267.168,126.673z M267.527,123.264l-0.153,0.667c1.628,0.17,5.341-4.649,5.738-9.093C271.948,119.224,269.911,121.999,267.527,123.264z M266.953,121.104l-0.084,0.368c-4.315,0.478-5.129-1.718-8.111-2.888c3.19,1.338,2.238,3.671,8.725,3.405l-0.074-0.417c1.62-0.744,4.246-4.52,4.559-8.039C270.924,117.474,269.095,119.967,266.953,121.104z M266.607,118.803l-0.08,0.358c-4.263,0.451-5.083-1.731-8.05-2.895c3.19,1.338,2.238,3.671,8.725,3.405l-0.086-0.482c1.477-0.794,3.767-4.229,4.046-7.437C270.214,115.423,268.553,117.744,266.607,118.803z M266.545,117.05c1.327-0.148,3.413-4.74,2.925-8.441c-0.133,3.789-1.253,6.415-2.924,7.869L266.545,117.05z M265.244,112.752l0.092,0.491c1.038-0.328,1.958-4.587,0.965-7.69C266.812,108.826,266.343,111.25,265.244,112.752z M266.243,129.676c-4.603-1.47-5.534-4.549-7.774-7.01l-0.001,0c2.269,2.612,1.676,4.94,7.611,7.572L266.243,129.676z M265.696,132.06c-4.604-1.469-5.148-4.724-7.388-7.185c2.268,2.612,1.289,5.116,7.224,7.748L265.696,132.06z M256.997,133.434c1.363,3.607-0.742,5.856,3.89,10.64l0.438-0.646C257.587,140.351,258.372,136.866,256.997,133.434z M256.817,150.742c-3.737-3.077-3.014-6.823-4.39-10.255c1.362,3.607-0.531,6.042,4.101,10.826L256.817,150.742z M255.178,153.373c-3.737-3.077-3.014-6.823-4.39-10.255c1.362,3.607-0.531,6.042,4.101,10.826L255.178,153.373z M264.928,134.588c-4.462-1.855-4.389-4.881-6.411-7.524c2.038,2.795,0.51,4.944,6.201,8.07L264.928,134.588z M258.077,129.023c1.172,3.183,0.281,5.313,5.656,8.957l0.261-0.525C259.724,135.192,259.511,132.369,258.077,129.023z M263.147,140.328c-4.15-2.476-4.231-5.78-5.345-8.651v0c0.915,2.988-0.125,5.251,5.058,9.161L263.147,140.328z M267.55,124.735l-0.039-0.585c-4.828,0.2-5.319-2.2-8.267-3.743C262.27,122.083,261.072,124.299,267.55,124.735z M265.802,114.732c-4.532,1.078-5.434-1.132-8.505-2.071c3.122,1.034,2.476,3.318,8.386,2.651l0,0.225c1.153-0.144,2.966-4.616,2.542-8.22c-0.112,3.565-1.029,6.062-2.399,7.504L265.802,114.732z M266.339,117.467l-0.117-0.574c-4.759,0.843-5.46-1.82-8.588-2.955C260.857,115.193,259.861,117.901,266.339,117.467z M264.392,110.369l-0.22-0.522c-3.935,1.82-5.111-0.212-8.048-0.627C259.168,109.729,258.887,112.167,264.392,110.369z M262.636,107.816c-3.541,1.616-4.6-0.188-7.243-0.556c2.74,0.452,2.487,2.616,7.442,1.02L262.636,107.816z M259.98,104.254l-0.203-0.432c-3.155,1.774-4.209,0.111-6.64-0.075C255.66,104.007,255.533,106.098,259.98,104.254z M258.097,101.959l-0.215-0.426c-3.104,1.862-4.204,0.229-6.639,0.111C253.772,101.832,253.704,103.927,258.097,101.959z M256.442,100.497l-0.414-0.439c-3.104,1.861-3.719,0.017-6.155-0.1l0,0.001C252.402,100.147,252.049,102.465,256.442,100.497z M254.581,98.671l-0.414-0.439c-3.104,1.861-3.719,0.017-6.155-0.1l0,0.001C250.541,98.321,250.187,100.639,254.581,98.671z M252.157,96.74l-0.414-0.439c-3.104,1.861-3.719,0.017-6.155-0.1l0,0.001C248.118,96.39,247.764,98.708,252.157,96.74z M249.674,94.731l-0.384-0.367c-3.047,1.362-3.579-0.133-5.918-0.323l0,0C245.799,94.292,245.383,96.127,249.674,94.731z M247.762,93.302l-0.342-0.406c-3.176,1.026-3.543-0.519-5.848-0.96l0,0C243.957,92.447,243.345,94.227,247.762,93.302z M264.12,111.136l0.092,0.491c1.038-0.328,1.958-4.587,0.965-7.69C265.688,107.211,265.219,109.635,264.12,111.136z M263.342,109.798c1.019-0.328,1.694-4.587,0.522-7.69c0.699,3.273,0.371,5.697-0.642,7.199L263.342,109.798z M262.183,107.826c0.998-0.296,1.381-4.135-0.008-6.933c0.927,2.951,0.765,5.136-0.147,6.49L262.183,107.826z M260.938,105.729l0.118,0.25c-3.031,1.4-4.181-0.129-6.663-0.324c2.692,0.278,2.569,2.367,7.299,0.558l-0.213-0.421c0.582-1.094,0.372-4.263-1.066-6.534C261.64,102.098,261.705,104.288,260.938,105.729z M259.906,103.291l0.205,0.422c0.184-2.342,0.469-3.338-1.237-5.954C260.139,100.582,260.145,101.77,259.906,103.291z M258.151,101.465l0.205,0.422c0.184-2.342,0.469-3.338-1.236-5.954C258.384,98.756,258.389,99.944,258.151,101.465z M256.851,100.131l0.205,0.422c0.184-2.342-0.227-3.884-1.932-6.5C256.389,96.875,257.09,98.61,256.851,100.131z M255.203,98.492l0.18,0.324c0.162-1.801,0.693-2.162-0.805-4.174C255.689,96.813,255.413,97.323,255.203,98.492z M254.246,97.601c-0.051-2.349-0.615-3.842-2.573-6.274c1.541,2.682,2.412,4.338,2.327,5.875L254.246,97.601z M252.887,96.747c-0.175-2.343-0.816-3.804-2.9-6.13c1.68,2.597,2.637,4.205,2.633,5.744L252.887,96.747z M250.72,94.932c-0.369-2.32-1.129-3.723-3.399-5.868c1.89,2.448,2.977,3.971,3.101,5.506L250.72,94.932z M246.29,91.624c0.286,0.391,0.518,0.77,0.678,1.149l0.193-0.054c-0.705-1.664-1.735-2.799-3.913-4.29c1.32,1.247,2.31,2.22,2.981,3.115c-5.591-1.79-8.443-3.09-9.269-3.102C239.839,89.628,242.097,91.15,246.29,91.624z M248.653,93.689c-0.437-1.754-1.277-3.036-3.195-4.848c1.63,2.112,2.663,3.536,2.996,4.872L248.653,93.689z" />
    <path fill="#24A849" stroke="#047A35" stroke-width="0.0295" d="M243.189,162.637l4.854,2.291c15.824-17.979,20.249-31.783,19.65-42.32c-0.546-9.602-4.436-16.198-11.111-22.739c-1.743-1.708-4.401-4.152-6.339-5.494c-1.062-0.738-2.175-1.398-3.332-1.977l-0.448,0.179c3.147,1.836,6.754,4.512,9.764,7.969c5.268,6.05,10.16,12.662,9.986,22.183C266.018,133.364,261.303,146.348,243.189,162.637L243.189,162.637z" />
    <path fill="#44AE51" d="M246.874,161.594c9.321-11.079,38.635-42.573,1.102-68.292c24.35,17.309,27.094,36.602,0.09,69.086L246.874,161.594z" />
    <path fill="#FFFFFF" stroke="#A6A6A6" stroke-width="0.1969" d="M261.927,173.029c-3.517,0.031-5.483,0.204-6.954,0.421c1.812,2.377,2.012,5.291,2.81,8.007c-5.688-4.38-10.934-6.433-15.874-6.883l1.545-9.482C251.741,166.109,256.724,169.653,261.927,173.029L261.927,173.029z M188.068,173.074c3.518,0.031,5.483,0.204,6.954,0.421c-1.812,2.377-2.012,5.291-2.81,8.007c5.688-4.38,10.934-6.433,15.874-6.883l-1.545-9.482C198.253,166.154,193.271,169.698,188.068,173.074L188.068,173.074z" />
    <path fill="#BFBEBF" stroke="#A6A6A6" stroke-width="0.1969" d="M198.821,163.463l7.72,1.674l1.545,9.482c0.166-1.622-6.45-0.959-6.253-2L198.821,163.463z M251.174,163.419l-7.72,1.674l-1.545,9.482c-0.166-1.622,6.45-0.959,6.253-2L251.174,163.419z" />
    <path fill="#FFFFFF" stroke="#A6A6A6" stroke-width="0.1969" d="M225,158.647c-7.066,0.353-17.157,1.418-26.179,4.817l3.012,9.155c6.214-2.398,15.405-3.604,23.168-3.788c7.763,0.184,16.953,1.39,23.166,3.788l3.013-9.155C242.157,160.065,232.065,159,225,158.647z" />
    <path fill="#010101" d="M203.56,168.296l0.753-0.3c0.105,0.264,0.271,0.5,0.484,0.689c0.224,0.169,0.491,0.271,0.77,0.294c0.339,0.035,0.681-0.001,1.006-0.104c0.284-0.08,0.551-0.211,0.787-0.389c0.189-0.136,0.335-0.323,0.418-0.54c0.069-0.188,0.075-0.394,0.018-0.586c-0.051-0.185-0.165-0.346-0.321-0.456c-0.2-0.126-0.432-0.196-0.669-0.2c-0.398-0.011-0.797,0-1.194,0.031c-0.438,0.039-0.878,0.029-1.314-0.03c-0.307-0.05-0.596-0.179-0.837-0.376c-0.214-0.189-0.369-0.435-0.448-0.709c-0.094-0.312-0.093-0.644,0.003-0.955c0.104-0.339,0.31-0.638,0.591-0.855c0.318-0.253,0.683-0.441,1.074-0.553c0.413-0.133,0.849-0.181,1.281-0.14c0.369,0.03,0.721,0.172,1.007,0.407c0.277,0.234,0.484,0.541,0.597,0.886l-0.769,0.295c-0.12-0.337-0.372-0.611-0.698-0.759c-0.38-0.128-0.793-0.119-1.168,0.024c-0.496,0.149-0.831,0.349-1.004,0.601c-0.165,0.215-0.218,0.496-0.142,0.757c0.057,0.212,0.206,0.387,0.406,0.477c0.201,0.096,0.657,0.121,1.368,0.073c0.496-0.05,0.995-0.057,1.493-0.02c0.36,0.037,0.703,0.174,0.989,0.395c0.252,0.208,0.434,0.488,0.522,0.802c0.099,0.333,0.098,0.687-0.003,1.019c-0.111,0.361-0.323,0.682-0.612,0.926c-0.326,0.278-0.708,0.482-1.12,0.599c-0.478,0.159-0.984,0.22-1.486,0.179c-0.409-0.043-0.796-0.206-1.113-0.468c-0.315-0.268-0.549-0.62-0.673-1.014L203.56,168.296z M210.409,168.618l-1.237-6.353l0.841-0.163l1.237,6.353L210.409,168.618z M213.859,167.997l-2.425-6.242l0.873-0.098l1.449,4.107c0.155,0.43,0.294,0.859,0.419,1.286c0.087-0.706,0.139-1.113,0.157-1.221l0.739-4.48l1.027-0.115l1.285,3.153c0.301,0.723,0.554,1.465,0.755,2.222c0.037-0.416,0.091-0.894,0.164-1.436l0.547-4.246l0.856-0.096l-1.045,6.629l-0.821,0.092l-1.904-4.75c-0.16-0.397-0.255-0.641-0.286-0.732c-0.034,0.303-0.069,0.561-0.104,0.776l-0.817,5.053L213.859,167.997z M220.193,167.351l2.328-6.53l0.922-0.022l2.805,6.406l-0.975,0.024l-0.802-1.941l-2.706,0.066l-0.663,1.977L220.193,167.351z M221.995,164.649l2.194-0.053l-0.719-1.775c-0.219-0.539-0.383-0.983-0.492-1.331c-0.074,0.422-0.18,0.839-0.319,1.244L221.995,164.649z M226.906,167.245l0.241-6.468l0.856,0.032l-0.213,5.704l3.185,0.119l-0.028,0.764L226.906,167.245z M232.116,167.502l0.529-6.45l0.854,0.07l-0.529,6.45L232.116,167.502z M234.463,167.642l0.982-6.398l1.274,0.196l0.818,4.762c0.075,0.444,0.128,0.775,0.16,0.994c0.109-0.222,0.274-0.546,0.498-0.973l2.215-4.216l1.139,0.175l-0.982,6.398l-0.816-0.125l0.822-5.355l-2.681,5.069l-0.764-0.117l-1.014-5.73l-0.836,5.446L234.463,167.642z M241.253,168.665l4.24-5.485l0.884,0.265l0.677,6.96l-0.934-0.28l-0.16-2.095l-2.593-0.778l-1.244,1.674L241.253,168.665z M243.805,166.656l2.102,0.631l-0.132-1.911c-0.041-0.581-0.059-1.053-0.054-1.417c-0.201,0.379-0.431,0.741-0.689,1.084L243.805,166.656z" />
    <path fill="#A99A15" d="M224.994,82.179c-0.229,0.003-0.433,0.141-0.521,0.353c-0.878,2.123-2.999,3.745-3.903,6.099c-0.452,1.177-0.542,2.554,0.047,4.133c0.589,1.579,1.822,3.369,3.976,5.557c0.221,0.225,0.583,0.227,0.807,0.006l0.006-0.006c2.154-2.189,3.387-3.979,3.976-5.557c0.589-1.579,0.5-2.955,0.047-4.133c-0.905-2.354-3.025-3.977-3.903-6.099c-0.089-0.216-0.3-0.355-0.534-0.353H224.994z" />
    <path fill="#FEE929" d="M225,97.92c-8.481-8.62-1.912-10.55,0-15.171V97.92z" />
    <path fill="#C3B101" d="M225,97.92c8.481-8.62,1.912-10.55,0-15.171V97.92z" />
    <path fill="#FEE929" stroke="#A99A15" stroke-width="0.1378" d="M223.415,100.819h3.169v8.378h-3.169V100.819z" />
    <path fill="#FEE929" stroke="#A99A15" stroke-width="0.1969" d="M208.875,100.804l1.962,0.472l-0.621,2.558c4.675-3.564,9.454-6.312,14.784-4.768v-2.285C219.626,95.875,214.251,96.563,208.875,100.804L208.875,100.804z" />
    <path fill="#FEE929" stroke="#A99A15" stroke-width="0.1378" d="M225,94.97c1.746,0,3.161,1.415,3.161,3.161c0,1.746-1.415,3.161-3.161,3.161s-3.161-1.415-3.161-3.161C221.839,96.385,223.254,94.97,225,94.97z" />
    <path fill="#FFFFFF" stroke="#A8A8A8" stroke-width="0.1969" d="M225,103.585c-7.246,0.628-14.433,1.594-20.943,6.457c6.578,15.629,6.151,26.662,3.894,36.496c-0.541,1.93-1.2,3.826-1.973,5.675c5.344,3.652,13.738,4.662,19.022,4.662c5.284,0,13.679-1.01,19.022-4.662c-0.773-1.85-1.432-3.745-1.973-5.675c-2.258-9.834-2.684-20.868,3.894-36.496C239.433,105.179,232.246,104.213,225,103.585z" />
    <path fill="#0F9842" stroke="#14853A" stroke-width="0.1969" d="M209.225,129.348l0.267,2.539l0.046,4.491l-0.195,2.27h31.316l-0.193-2.243l0.043-4.495l0.214-2.189l-4.988-4.997c-0.576-0.577-1.51-0.578-2.087-0.002c-0.085,0.085-0.159,0.179-0.221,0.282l-2.199,3.644c-0.378,0.626-1.192,0.828-1.818,0.45c-0.132-0.079-0.248-0.181-0.345-0.301l-3.198-3.945c-0.485-0.598-1.364-0.69-1.962-0.204c-0.107,0.087-0.201,0.19-0.278,0.305l-2.517,3.744c-0.447,0.665-1.349,0.841-2.014,0.394c-0.104-0.07-0.199-0.153-0.281-0.248l-3.536-4.037c-0.577-0.659-1.58-0.726-2.239-0.148c-0.069,0.06-0.132,0.126-0.189,0.197L209.225,129.348z" />
    <path fill="#FFFFFF" stroke="#A3A3A2" stroke-width="0.0787" d="M213.552,128.396c-0.299,0.009-0.535,0.259-0.527,0.558c0.002,0.081,0.023,0.16,0.059,0.231l0.971,1.901l-1.901,0.97c-0.267,0.136-0.373,0.463-0.237,0.73c0.136,0.267,0.463,0.373,0.73,0.237l0,0l1.901-0.97c6.014,16.449,19.626,5.909,19.905,1.38c-3.612,1.863-13.835,6.665-18.938-1.874l1.901-0.97c0.268-0.135,0.375-0.462,0.24-0.729c-0.135-0.268-0.462-0.375-0.729-0.24c-0.002,0.001-0.003,0.002-0.005,0.003l-1.901,0.97l-0.97-1.901C213.957,128.505,213.763,128.389,213.552,128.396L213.552,128.396z" />
    <path fill="#E3E3E2" d="M216.076,134.675c6.137,10.313,15.172,3.484,16.638,1.689C227.392,139.839,219.874,140.507,216.076,134.675z" />
    <path fill="#E52521" stroke="#C81517" stroke-width="0.0591" d="M224.521,124.251c-5.404-0.366-9.574-4.256-9.573-8.931c0.001-4.675,4.169-8.564,9.573-8.93c-2.829,0.635-4.93,4.44-4.931,8.93S221.691,123.615,224.521,124.251z M225.479,106.39c2.829,0.635,4.93,4.44,4.931,8.93s-2.102,8.296-4.931,8.931c5.404-0.366,9.574-4.256,9.573-8.931C235.051,110.645,230.883,106.756,225.479,106.39z M226.048,113.072c-0.314-0.011-0.656-0.048-1.048-0.141c-0.391,0.107-0.734,0.152-1.047,0.163v5.034c0.273,1.075,0.517,1.295,1.048,2.024c0.531-0.729,0.774-0.949,1.048-2.024V113.072z M224.999,108.526c1.613,0,1.379,1.286,2.327,1.502c1.465,0.334,1.554,3.822-2.327,2.903c-3.644,0.993-3.791-2.569-2.326-2.903C223.621,109.811,223.387,108.526,224.999,108.526L224.999,108.526z" />
    <path fill="#E84342" d="M219.635,109.533c-1.769,1.592-2.855,3.617-2.856,5.786c-0.001,2.169,1.085,4.2,2.857,5.793C218.128,117.4,218.128,113.246,219.635,109.533L219.635,109.533z M230.364,109.533c1.769,1.592,2.855,3.617,2.856,5.786c0.001,2.169-1.085,4.2-2.857,5.793C231.871,117.4,231.872,113.246,230.364,109.533L230.364,109.533z M223.34,110.253l1.85,0.496c-0.467,0.36-0.941,0.715-0.608,1.85C223.435,112.534,221.558,112.007,223.34,110.253z M226.461,110.133l-0.43,0.439c0.814-0.034,1.305,0.353,1.905,0.597C227.543,110.835,227.999,110.611,226.461,110.133L226.461,110.133z M223.45,109.887c0.44-0.465,0.78-1.069,1.55-1.071c0.384,0.275,0.71,0.625,0.957,1.027l-0.957,0.36C224.399,110.316,223.829,110.041,223.45,109.887L223.45,109.887z M224.333,113.431c-0.407,5.097,0.284,5.633,0.667,6.183c-0.385-1.693-0.325-3.928-0.257-6.171L224.333,113.431z" />
    <path fill="#F7E926" d="M213.634,144.347l0.859-1.791c0.277-0.389,0.789-0.529,1.225-0.337l1.371,0.606c0.438,0.193,0.945,0.143,1.337-0.132l0.179-0.125c0.661-0.463,1.519-0.535,2.247-0.188l0.552,0.263c0.542,0.258,1.167,0.274,1.722,0.045l0.996-0.411c0.363-0.15,0.779-0.083,1.076,0.174l0.276,0.238c0.406,0.35,0.974,0.443,1.471,0.242l1.251-0.507c0.554-0.224,1.185-0.143,1.663,0.216l0.295,0.221c0.403,0.302,0.944,0.344,1.389,0.109l1.004-0.53c0.514-0.272,1.142-0.205,1.586,0.17l0.61,0.576c-1.308,0.178-2.115,1.149-3.167,1.733c-0.747,0.452-1.683,0.454-2.431,0.003l-0.461-0.296c-0.288-0.185-0.665-0.15-0.914,0.084l-0.368,0.345c-0.349,0.327-0.868,0.393-1.288,0.163l-0.973-0.532c-0.387-0.212-0.867-0.147-1.185,0.159l-0.062,0.06c-0.252,0.243-0.633,0.291-0.937,0.117l-0.519-0.296c-0.802-0.457-1.787-0.454-2.586,0.008l-1.229,0.711c-0.503,0.29-1.143,0.153-1.483-0.317l-0.665-0.92c-0.428-0.591-1.231-0.768-1.867-0.41L213.634,144.347z" />
    <path fill="#F7E926" stroke="#C3BB00" stroke-width="0.1969" d="M207.952,146.538c-0.541,1.93-1.2,3.826-1.973,5.675c5.344,3.652,13.738,4.662,19.022,4.662s13.679-1.01,19.022-4.662c-0.773-1.85-1.432-3.745-1.973-5.675c-5.635,3.534-12.216,3.955-17.049,3.955S213.586,150.072,207.952,146.538z M209.762,148.913h0.003c0.843,0.001,1.525,0.684,1.524,1.527c-0.001,0.843-0.684,1.525-1.527,1.524c-0.843-0.001-1.525-0.684-1.524-1.527C208.239,149.595,208.921,148.913,209.762,148.913z M240.236,148.913h0.003c0.845,0.001,1.529,0.686,1.529,1.531s-0.686,1.529-1.531,1.529s-1.529-0.686-1.529-1.531C238.709,149.597,239.393,148.913,240.236,148.913z M213.485,150.704h0.004c0.843,0.001,1.526,0.685,1.524,1.529c-0.001,0.843-0.685,1.526-1.529,1.524c-0.843-0.001-1.526-0.685-1.524-1.529C211.961,151.387,212.643,150.705,213.485,150.704z M236.513,150.704h0.004c0.845,0.001,1.528,0.687,1.527,1.531c-0.001,0.845-0.687,1.528-1.531,1.527c-0.845-0.001-1.528-0.687-1.527-1.531C234.987,151.388,235.67,150.705,236.513,150.704z M218.016,151.722h0.003c0.843,0.001,1.525,0.684,1.524,1.527c-0.001,0.843-0.684,1.525-1.527,1.524s-1.525-0.684-1.524-1.527C216.492,152.405,217.174,151.723,218.016,151.722z M231.984,151.722h0.003c0.845,0.001,1.529,0.686,1.529,1.531c-0.001,0.845-0.686,1.529-1.531,1.529s-1.529-0.686-1.529-1.531C230.456,152.407,231.14,151.723,231.984,151.722z M222.686,152.073h0.004c0.843,0.001,1.526,0.685,1.524,1.529c-0.001,0.843-0.685,1.526-1.528,1.524c-0.843-0.001-1.526-0.685-1.524-1.528C221.163,152.756,221.845,152.075,222.686,152.073z M227.312,152.073h0.004c0.845,0.001,1.528,0.687,1.527,1.531c-0.001,0.845-0.687,1.528-1.531,1.527c-0.845-0.001-1.528-0.687-1.527-1.531C225.786,152.758,226.47,152.075,227.312,152.073z" />
  </g>
</svg>
