<svg xmlns="http://www.w3.org/2000/svg" width="450px" height="300px" viewBox="0 0 450 300">
  <path fill="#FFFFFF" d="M0,0h450v300H0V0z" />
  <path fill="#CD1125" d="M0,0h450v100H0V0z" />
  <path fill="#000000" d="M0,200h450v100H0V200z" />
  <path fill="#017B3D" d="M222.121,171.023h-73.295c-0.575,5.164-5.902,8.95-11.9,8.455c-0.652-0.054-1.296-0.158-1.926-0.311c10.265-5.038,9.621-10.152,3.144-21.515c3.598-1.288,4.167-1.629,7.803-4.091c-2.576,7.803,6.667,6.856,13.485,6.856c0-2.727,0.265-5.833-1.78-6.25c2.652-0.947,2.879-1.25,7.083-4.811v10.492h50.568v-7.197c0-0.837-0.678-1.515-1.515-1.515s-1.515,0.678-1.515,1.515v4.167c0,0.628-0.509,1.136-1.136,1.136l0,0H172.5v-6.818l29.015-28.03c-0.189,1.439,2.803,5.303,4.053,5.947c-0.947,0.152-2.008-0.038-2.689,0.644l-23.75,22.955h26.326c0-6.098,5.682-6.098,8.333-8.258c2.652,2.159,8.333,2.159,8.333,8.258V171.023z M227.614,171.023v-47.917c2.689,1.477,4.773,3.182,8.106,4.015c-0.152,1.894-1.856,2.5-1.856,3.826v29.47c3.712,0.833,4.545-1.326,6.326-2.424c0.455,4.697,3.447,9.318,3.333,13.03H227.614z M277.689,139.015l5.871-4.924v25.758h4.167v-29.28c2.045-1.705,4.697-3.561,5.871-5.72v46.174h-36.932c-0.53-9.545-0.53-19.356,10.606-17.235v-3.902c0-0.909-1.364-0.189-1.364-1.023l7.614-6.364v17.348h4.167L277.689,139.015L277.689,139.015z M275.758,125.833c-0.72,0.038-1.818-3.902-1.553-4.659c0.265-0.871,1.25-0.871,1.667-0.455C276.553,121.364,276.477,125.795,275.758,125.833z M268.902,131.174c-2.083-1.212-1.742-1.705,0.076-1.174c3.144,0.947,4.735,0.152,7.008-2.159l1.705,0.871c2.235,1.136,3.598,0.644,4.394-2.083c0.227-0.833,0.909-0.606,1.098,0.341c0.72,3.788-2.159,4.962-5.076,3.902c-1.591-0.53-1.856-0.53-2.651,0.076C273.712,132.311,271.212,132.538,268.902,131.174z M299.091,171.023v-47.917c2.689,1.477,4.773,3.182,8.106,4.015c-0.152,1.894-1.856,2.5-1.856,3.826v29.47c3.712,0.833,4.545-1.326,6.326-2.424c0.455,4.697,3.447,9.318,3.333,13.03H299.091z M155.492,176.326c0-1.234,1.001-2.235,2.235-2.235s2.235,1.001,2.235,2.235s-1.001,2.235-2.235,2.235C156.493,178.561,155.492,177.56,155.492,176.326z M263.864,158.902c0,0.711,0.763,1.288,1.705,1.288s1.705-0.577,1.705-1.288s-0.763-1.288-1.705-1.288S263.864,158.19,263.864,158.902z" />
</svg>
