<svg xmlns="http://www.w3.org/2000/svg" width="450px" height="300px" viewBox="0 0 450 300">
  <path fill="#FFF100" d="M0,300V0h450v300H0z" />
  <path fill="#EC1B23" d="M0,0h450v300L0,0z" />
  <path fill="#FFC8A0" stroke="#000000" stroke-width="1.6875" stroke-linecap="round" stroke-linejoin="round" stroke-miterlimit="10" d="M313.56,102.545c1.256,2.996-6.861,5.896-8.619,8.079c-2.072,2.769-11.192,11.061-11.352,13.611c-0.513,8.152,4.039,15.877,7.471,29.696c3.088,12.435,4.273,21.98,5.639,24.819c0.98,2.036,4.852,7.652,4.394,11.282c-0.586,4.658-4.663,8.322-7.617,8.661c-2.955,0.339-9.179-2.207-11.402-2.596c-2.221-0.388-23.462-2.863-34.766-7.569c-10.34-4.305-27.515-18.73-27.515-18.73l10.254-17.468c0,0,18.475,4.851,29.224,10.118c6.412,3.141,21.68,16.74,21.68,16.74s-7.91-8.661-9.302-16.231c-1.047-5.696,1.734-25.742-1.465-33.408c-1.252-3-6.641-8.443-5.273-12.228c1.367-3.785,7.324-2.183,11.279-4.585c2.144-1.302,6.654-7.801,12.329-9.802c4.541-1.601,5.786,0.485,7.617,0.194C309.067,100.992,312.583,100.216,313.56,102.545L313.56,102.545z M220.05,244.242c-4.327-0.593-0.881-8.237-1.905-10.842c-1.055-2.173-4.375-11.683-6.85-14.267c-5.667-5.916-16.364-4.754-30.122-8.71c-12.38-3.56-21.292-7.313-24.449-7.556c-2.264-0.174-9.467-0.447-12.401-2.655c-3.766-2.833-4.921-8.173-3.74-10.886c1.182-2.712,6.514-6.797,7.963-8.514c1.45-1.718,13.671-15.75,26.076-23.88c9.358-6.134,37.215-13.639,37.215-13.639l5.807,19.672c0,0-10.812,9.333-21.379,14.95c-11.35,6.033-32.77,11.686-32.77,11.686s12.225-2.981,19.517-0.394c5.488,1.947,21.566,14.363,29.847,15.444c3.24,0.423,10.677-1.493,13.293,1.575c2.615,3.068-1.759,7.395-1.644,12c0.063,2.496,3.968,7.362,2.875,13.247c-0.875,4.709-3.843,6.031-4.505,7.753C222.451,241.417,221.529,244.445,220.05,244.242L220.05,244.242z M138.769,98.079c2.363-2.442,5.078,1.359,10.351,4.173c4.237,2.261,18.75,3.202,21.68,1.456c7.048-4.202,11.649-10.995,21.976-20.858c9.293-8.874,16.433-15.25,18.224-17.846c1.284-1.862,4.029-7.206,7.419-8.628c4.353-1.825,9.584-0.149,11.357,2.225c1.772,2.372,4.25,8.62,5.023,10.726c0.772,2.106,5.822,13.637,7.39,28.327c1.847,17.311-3.695,39.081-3.695,39.081l-23.491-1.574c0,0-3.167-20.983-1.848-28.851c0.843-5.026,6.82-27.893,6.82-27.893s-5.487,13.389-11.388,18.371c-4.44,3.75-23.299,10.215-28.382,16.801c-1.988,2.576-3.547,9.48-8.381,10.063c-5.398,0.65-9.375-2.621-12.891-7.715c-3.662-0.873-8.257-2.491-12.012-4.513c-3.516-1.892-4.147-5-4.102-6.842C140.432,103.511,136.992,99.914,138.769,98.079L138.769,98.079z" />
  <path fill="#EBB437" stroke="#000000" stroke-width="1.125" stroke-linecap="round" stroke-linejoin="round" stroke-miterlimit="10" d="M237.938,145.536c-0.195,8.249,5.469,14.654,5.469,14.654s2.866-3.251,4.834-3.251c2.295,0,16.993,7.57,19.629,7.085c1.02-0.188-1.459-10.98-3.565-16.595c-2.002-5.338-5.713-10.433-9.814-12.276c-2.437-1.095-9.375-1.747-12.305,0.195C239.256,137.288,238.004,142.723,237.938,145.536L237.938,145.536z M211.641,145.246c0.03,7.036-5.243,15.042-5.243,15.042s-3.091-3.638-5.06-3.638c-2.294,0-17.743,8.248-20.379,7.763c-1.02-0.188,2.21-11.659,4.315-17.274c2.002-5.337,5.713-10.433,9.814-12.276c2.437-1.096,9.375-1.747,12.305,0.194C210.322,136.997,211.629,142.431,211.641,145.246L211.641,145.246z" />
  <path fill="#000000" stroke="#000000" stroke-width="0.5625" stroke-linecap="round" stroke-linejoin="round" d="M189.405,139.762c-4.331,0.168-9.292,3.884-13.23,5.282c0.675-2.683,3.718-5.365,4.392-8.048c-1.856-0.194-6.797,2.059-8.203,3.008c-1.238,2.069-4.346,7.91-5.566,11.16c-0.83-1.844,0.381-4.634-1.025-3.348c-1.631,1.397-4.834,5.628-8.545,7.085c0.39-1.504,2.639-5.002,1.514-4.61c-0.675,0.503-6.469,3.849-7.031,4.464c-0.683-1.261,1.365-3.318-0.098-3.542c-0.675,0.447-6.998,2.885-7.617,3.444c-0.9-0.671,2.804-3.259,1.904-3.93c-1.8,0.503-5.754,2.512-7.178,2.281c-0.544-0.088,2.392-2.202,0.732-2.231c-2.851-0.051-6.308,0.482-6.933-0.001c1.969-1.118,10.243-3.888,11.199-5.901c0.619-0.894-4.067-1.274-4.461-2.058c1.181-0.615,6.104-2.329,7.617-2.523c0.562-0.838,0.395-0.554,0.732-1.504c-1.807-0.728-5.538-0.325-6.494-0.437c2.194-1.174,8.935-3.445,12.109-3.785c-1.744-1.174-4.379-1.329-6.348-1.553c1.799-0.838,4.662-0.606,6.631-0.494c2.982,0.223,4.011-0.129,6.992-0.185c-1.8-0.727-3.661-1.39-5.518-1.892c7.293-1.237,10.986,3.785,18.888,2.971c-2.775-1.322-4.646-3.864-5.265-5.931c7.275,2.377,14.014,1.068,19.238,1.31c3.262,0.056,9.579,1.724,12.842,1.892c1.367-5.386,4.98-8.564,11.768-8.685c2.051-2.475,7.031-7.521,13.233-2.717c5.322-4.658,8.178,0.8,10.375,0.8c8.496,0,11.694,5.654,12.476,8.274c1.757-1.844,2.197-3.93,3.027-5.143c0.684-1.068,1.27-1.795,2.442-2.814c0.112-1.118-0.196-2.232,0.537-4.124c0.488-1.552,0.928-2.717,0.782-3.979c-0.781-1.31-2.197-2.669-2.002-4.464c-1.406-2.236-2.705-5.372-2.93-8.055c-0.338-4.527-0.089-6.016,0.586-10.432c0.439,1.941,1.147,2.993,1.367,2.717c0.483-0.606,0.098-6.824,0.635-7.958c0.537,1.31,1.684,2.632,2.099,1.698c0.489-1.1,0.372-6.791,0.586-8.152c0.169,0,0.553,6.261,1.905,7.375c-0.282-1.397,0.418-5.205,1.318-6.211c0.439,0.776,0.789,2.569,1.465,2.96c0.586-0.825,2.055-7.333,1.999-8.898c1.069,2.012,1.322,6.326,1.225,8.704c0.781,1.068,1.758,2.717,2.099,5.192c0.684-1.019,1.904-2.937,1.904-4.949c1.465,5.968-0.586,11.549,0.439,12.228c0.307-0.187,1.66-1.407,2.393-4.319c0.634,6.502-0.342,9.414-1.123,11.209c0.293,0.097,1.66-0.437,2.246-1.019c-0.976,3.639-3.027,6.793-6.493,8.249c-0.781,3.542-2.512,2.937-4.2,4.949c0.146,2.766-0.293,6.987-1.465,9.608c0.537-0.679,7.862-6.502,12.598-13.053c-0.146,3.979-2.051,8.152-4.248,12.373c-1.465,2.426-3.833,5.287-5.127,6.405c-3.076,2.863-6.249,5.458-9.692,6.478c-4.322,2.766-0.043,8.454-3.443,12.082c-1.978,2.111-4.76,2.984-7.764,1.965c0.142,2.765,1.416,6.066,4.687,8.588c-0.879,11.427-9.619,15.867-13.843,18.779c0.976,1.844,0.888,3.879,0.806,4.222c-0.45,1.453-0.531,0.976-0.419,2.485c0.563,2.572,2.588,4.416,4.501,6.093c-0.956-0.112-1.856-0.224-2.812-0.335c0.787,1.565,1.8,3.186,3.656,3.577c2.812,0.671,7.381,2.447,9.967,3.901c-2.587,1.397-7.151-0.167-9.57,1.456c1.367,1.747,3.818,3.221,5.565,3.643c2.698,0.727,5.567,0.895,8.323,0.783c1.181,0.056,4.273,0.476,5.641,0.961c4.248,1.407,6.224,3.177,9.375,5.58c-0.787-0.056-2.978-0.169-3.765-0.225c1.181,1.566,8.095,3.908,9.332,5.417c-2.003,0.485-3.555,1.252-2.149,2.426c1.238,0.615,3.995,1.416,5.176,2.087c-1.068-0.279-4.315,0.188-5.384-0.035c2.015,1.345,6.264,2.413,8.803,3.286c-2.003,0.582-6.541,0.26-7.666-0.243c1.123,1.311,1.905,2.233,3.076,3.3c-3.223-0.534-6.623-2.177-7.862-2.96c0.049,0.97,1.416,2.621,2.393,4.076c-1.519,0.056-8.295-2.828-9.082-3.834c-0.843,0.336,0.917,2.871,1.367,3.543c-1.911-0.559-5.957-3.397-7.178-4.271c0.147,1.504,0.537,3.3,0.293,3.93c-2.393-3.59-11.182-6.308-11.963-12.567c-1.631-1.118-2.669-2.199-3.119-4.155c-0.169-1.119-1.588-2.683-2.545-3.075c-0.024,3.416-1.003,8.686-1.172,8.686c-1.575-5.367-3.168-8.305-6.543-12.665c-1.074-0.971-2.252-3.87-3.32-3.591c-0.787,0.169-1.92,2.666-2.539,2.329c-1.102-0.092,0.884-3.494,0.196-4.561c-0.578-0.895-3.907,0.485-5.273-0.485c-0.901-3.466-0.818-6.523-0.537-10.044c0.281-1.286-1.416-2.135-1.709-3.93c-0.394-1.788,1.254-4.083,0.634-5.871c-6.982-3.445-12.476-7.885-13.208-17.638c0,0,0.561-4.149,3.149-7.788c-3.223-1.019-6.811-3.615-7.691-8.37c-4.321,6.478-11.206,7.206-14.502,6.915C185.596,144.76,188.38,140.611,189.405,139.762L189.405,139.762z" />
  <path fill="none" stroke="#000000" stroke-width="0.5625" stroke-linecap="round" stroke-linejoin="round" stroke-miterlimit="10" d="M203.811,149.416c-1.856,2.766-2.296,7.182-2.296,7.182 M201.853,146.895c-2.441,3.494-3.32,10.19-3.32,10.19 M199.463,144.709c-2.832,4.513-4.102,13.781-4.102,13.781 M195.997,145.732c-4.834,7.86-4.639,14.703-4.639,14.703 M191.014,148.644c-4.834,7.666-4.248,13.78-4.248,13.78 M244.873,150.489c2.002,2.475,2.344,6.502,2.344,6.502 M247.118,149.516c1.904,2.183,3.076,7.667,3.076,7.667 M249.412,147.526c2.93,3.543,3.955,10.821,3.955,10.821 M251.708,144.76c5.42,7.569,5.615,15.236,5.615,15.236 M257.079,146.554c4.834,7.666,4.785,15.673,4.785,15.673" />
  <path fill="#FFC8A0" stroke="#000000" stroke-width="1.125" stroke-linecap="round" stroke-linejoin="round" stroke-miterlimit="10" d="M224.758,136.218c5.86,0,15.811,2.742,16.553,13.586c1.074,15.721-11.914,25.038-16.504,25.038c-5.225,0-17.48-9.122-16.406-25.475C209.107,138.619,218.992,136.218,224.758,136.218L224.758,136.218z" />
  <path fill="#000000" stroke="#000000" stroke-width="0.5625" stroke-linecap="round" stroke-linejoin="round" stroke-miterlimit="10" d="M235.89,152.669c0,0-1.758-1.043-3.418-1.018c-1.66,0.024-3.418,1.164-3.418,1.164s2.075,1.213,3.589,1.214C234.156,154.029,235.89,152.669,235.89,152.669L235.89,152.669z M220.753,152.719c0,0-2.002-1.286-3.101-1.456c-1.099-0.169-3.735,0.873-3.735,0.873s2.027,1.552,3.394,1.699C218.678,153.982,220.753,152.719,220.753,152.719L220.753,152.719z" />
  <path fill="none" stroke="#000000" stroke-width="0.5625" stroke-linecap="round" stroke-linejoin="round" stroke-miterlimit="10" d="M236.863,149.175c0,0-1.856-1.626-5.078-1.528c-3.223,0.097-4.809,2.038-5.2,2.839c-0.249,0.51-0.146,6.526,0.049,7.279s2.099,2.717,1.855,3.688c-0.244,0.971-1.196,0.534-1.88,0.921c-0.683,0.389-1.245,0.873-1.709,0.873c-0.879,0-1.001-0.51-1.953-0.8c-0.861-0.263-1.954,0-2.246-0.801c-0.291-0.796,0.903-1.795,0.903-1.795 M221.484,149.271c0,0-1.343-1.552-4.492-1.625s-5.102,1.917-5.322,2.621c-0.219,0.704,0.269,1.407,0.269,1.407 M236.526,154.95c0,0-1.929,1.893-4.053,1.893s-5.029-2.183-5.029-2.183 M221.023,155.168c0,0-2.442,1.601-4.004,1.601c-1.563,0-2.54-0.606-2.54-0.606" />
  <path fill="#000000" d="M224.708,167.784c-0.501,0-1.328-0.361-1.328-0.361c-0.564-0.063-2.212-0.027-3.103-0.197c-0.948-0.181-2.102-1.088-2.21-1.237c-0.094-0.13,0.21-0.385,0.341-0.479c0.132-0.093,0.384-0.093,0.41,0.067c0.092,0.582,1.073,1.131,1.569,1.214c1.318,0.219,3.164-0.553,3.237-0.498l1.079,0.248l1.065-0.279c0.069-0.056,2.139,0.602,3.652,0.48c0.466-0.037,1.392-0.522,1.604-1.178c0.049-0.153,0.287-0.144,0.412-0.042c0.125,0.101,0.332,0.392,0.23,0.518c-0.116,0.142-1.208,0.934-2.136,1.152c-0.836,0.197-2.771,0.182-3.516,0.279C226.014,167.469,225.294,167.784,224.708,167.784L224.708,167.784z" />
  <path fill="none" stroke="#000000" stroke-width="0.8438" stroke-linecap="round" stroke-linejoin="round" stroke-miterlimit="10" d="M227.638,169.36c0,0-1.941,0.837-2.856,0.837c-1.136,0-3.052-0.837-3.052-0.837" />
  <path fill="#EBB437" stroke="#000000" stroke-width="1.125" stroke-linecap="round" stroke-linejoin="round" stroke-miterlimit="10" d="M235.839,141.266c-2.037,0.279-5.979-0.448-7.617-1.674c-0.979-0.733-5.306-4.786-7.471-5.168c-2.527-0.446-5.86,3.057-8.266,0.448c-1.038-1.125,2.112-2.342,3.433-2.697c1.32-0.354,5.127-0.953,6.738-0.517s5.066,3.459,6.519,4.684C230.626,137.568,234.814,140.441,235.839,141.266L235.839,141.266z M232.667,138.549c1.28,0.058,4.709-0.5,5.42-0.097c0.712,0.403,3.092,3.874,3.32,4.852c0.227,0.978,0.032,2.475-0.595,3.193C238.331,144.178,234.913,140.053,232.667,138.549z M221.484,134.86c1.244,0,3.516,2.329,3.516,2.329s-3.75,2.088-5.546,2.535c-1.797,0.447-4.78,0.624-6.497,1.15c-1.717,0.525-3.254,4.68-4.813,4.601s-1.083-2.704-1.083-2.704s0.449-2.915,2.431-4.071c1.982-1.155,5.18-1.182,7.214-1.601C218.74,136.678,219.661,134.86,221.484,134.86L221.484,134.86z" />
  <path fill="#EBB437" stroke="#000000" stroke-width="0.5625" stroke-linecap="round" stroke-linejoin="round" stroke-miterlimit="10" d="M242.758,131.254c1.905,0.737-2.096,5.509-2.964,6.018c-1.7,0.998-6.734,1.293-7.863,0.726c-1.317-0.661-3.173-2.311-3.173-2.311s6.326,1.017,8.74,0.048C240.288,134.617,241.585,130.801,242.758,131.254L242.758,131.254z M202.106,138.885c-1.067-0.735-1.641,0.977-1.641,2.447c0,1.768,0.903,3.725,2.435,5.384s5.255,2.607,5.255,2.607l0.512-3.106c0,0-3.466,0.094-5.084-1.894C202.079,142.474,203.173,139.619,202.106,138.885z" />
  <path fill="#EBB437" stroke="#EBB437" stroke-width="0.2812" stroke-linecap="round" stroke-linejoin="round" stroke-miterlimit="10" d="M241.408,130.226c-0.488,0.024-1.318-1.48-1.318-2.621c0-1.14-0.097-2.183-0.928-3.008c-0.636-0.631-1.807-0.728-2.734-0.691c-0.928,0.036-2.685,0.304-2.71-0.655c-0.025-0.958,1.697-2.098,3.467-2.098s3.271,1.007,3.93,1.941c0.659,0.934,1.106,2.585,1.148,3.518C242.311,127.679,242.207,130.187,241.408,130.226L241.408,130.226z M212.693,123.473c0.146,0.497-3.511,2.724-4.614,3.494c-1.721,1.201-3.271,2.73-2.93,4.768c0.268,1.598,1.446,2.385,2.49,2.644c1.465,0.364,3.345-0.145,3.345-0.145s0.159,0.934,0.781,1.335c0.623,0.4,1.953,0.897,1.953,0.897s-2.454,1.055-5.273,0.91c-2.82-0.146-5.383-1.893-5.603-4.331c-0.22-2.438,0.147-4.258,1.465-5.932c0.899-1.141,2.673-2.621,4.248-3.239C209.771,123.395,212.546,122.976,212.693,123.473z M212.708,132.356c-0.627,0.406-1.292,0.496-1.485,0.201s0.159-0.863,0.786-1.268c0.627-0.406,1.292-0.496,1.485-0.201C213.687,131.382,213.335,131.95,212.708,132.356z M220.275,127.621c0,0-3.479-0.036-4.687,0.873c-1.016,0.765-1.245,1.456-1.025,1.965c0.22,0.51,0.989,0.983,2.527,0.364C218.838,130.12,220.275,127.621,220.275,127.621z M220.427,126.564c-1.47,0.51-2.862,0.355-3.109-0.347s0.745-1.685,2.215-2.195s2.862-0.355,3.109,0.347C222.889,125.071,221.897,126.054,220.427,126.564z M224.156,122.523c1.025-1.129-0.382-3.603-3.674-3.603c-3.076,0-5.966,4.716-6.709,5.526c-1.227,1.339-3.728,3.683-6.438,5.31c-1.636,1.136,0.048,3.065,1.55,2.811c0.618-0.105,4.683-3.725,5.676-4.804c1.172-1.274,2.497-3.152,3.039-3.93c0.659-0.946,1.856-2.074,2.71-2.074C222.178,121.759,223.324,123.439,224.156,122.523L224.156,122.523z M233.274,121.612c0.404-0.727-0.049-2.329-3.052-2.329c-2.637,0-5.514,4.913-6.067,5.823c-0.916,1.504-2.038,3.615-4.749,5.459c2.783,0.146,4.529,0,4.529,0s1.684-1.492,2.343-2.766c0.659-1.274,1.208-3.202,1.722-3.967c0.512-0.764,1.256-1.623,2.014-1.819C230.857,121.794,232.688,122.667,233.274,121.612L233.274,121.612z M230.372,123.239c0.341-0.437,1.978,0.291,2.27,0.582c0.293,0.291,1.441,3.008,2.758,3.906c1.318,0.898,2.711,1.213,3.199,1.432s1.441,1.723,1.343,2.572c-0.098,0.849-3.076,2.766-3.076,2.766s0.489-2.621-1.123-3.664c-1.281-0.829-3.662-0.558-4.517-0.704c-0.854-0.145-3.687-1.14-3.662-1.941c0.024-0.801,1.196-2.669,1.196-2.669s2.245,2.183,2.783,1.626C232.081,126.587,230.03,123.676,230.372,123.239L230.372,123.239z M243.967,124.854c1.172-0.255,1.722,3.239,1.794,4.913c0.073,1.674-0.512,5.24-1.099,5.24s-0.952-1.019-0.952-1.019s0.622-2.293-0.513-3.312c0.22-0.873,0.55-1.674,0.439-2.802C243.528,126.746,243.179,125.025,243.967,124.854L243.967,124.854z M242.721,135.845c0.518-0.301,1.442,0.313,2.065,1.372c0.622,1.058,0.707,2.16,0.189,2.461s-1.442-0.313-2.065-1.372C242.288,137.248,242.203,136.146,242.721,135.845z M240.318,137.608c0.407-0.25,1.013-0.01,1.353,0.537s0.286,1.193-0.121,1.443s-1.013,0.01-1.353-0.537S239.911,137.858,240.318,137.608z M247.168,129.645c-0.025,2.984-1.123,5.459-1.05,6.26c0.073,0.8,0.879,1.431,1.709,1.916c0.831,0.486,1.905,0.873,2.197,0.607c0.293-0.267,0.342-1.14,0.074-1.626c-0.269-0.485-1.27-0.607-1.514-1.383s0.025-1.674-0.146-2.766C248.266,131.561,247.535,130.106,247.168,129.645L247.168,129.645z M242.212,140.517c-1.122,0.291,0.586,3.348,0.513,4.076c-0.074,0.728-1.148,1.625-1.123,1.989s2.246,1.868,3.613,1.868c1.124,0,3.369-1.722,3.736-2.547s0.732-2.79,0.464-4.221c-0.269-1.432-2.589-2.935-2.589-2.935s-0.61,1.164-0.634,2.062c-0.025,0.897,0.708,1.989,0.806,2.717s-0.415,1.99-0.684,2.305c-0.269,0.315-1.733,0.631-2.172,0.291s0.927-1.868,0.927-3.008C245.069,142.094,243.335,140.226,242.212,140.517L242.212,140.517z M206.589,138.985c0,0-0.415,1.917-0.903,2.208c-0.489,0.291-3.003-2.523-2.93-3.834C202.83,136.046,206.589,138.985,206.589,138.985L206.589,138.985z M203.882,141.665c0.247-0.193,0.865,0.178,1.381,0.829s0.733,1.336,0.486,1.529c-0.247,0.193-0.865-0.178-1.381-0.829C203.853,142.542,203.635,141.858,203.882,141.665z M202.151,135.76c-2.051,1.432-2.856,4.197-2.856,4.197s-1.001-3.833-0.976-5.313c0.024-1.48,0.928-3.324,2.051-3.226C201.492,131.514,201.102,134.28,202.151,135.76z M195.508,136.559c1.318,0,1.904,4.318,1.855,4.998c-0.049,0.68-1.758,2.717-3.711,3.93c-1.954,1.213-4.858,1.99-5.713,1.31c-0.855-0.68,1.219-4.575,2.417-6.138C191.602,139.034,194.19,136.559,195.508,136.559L195.508,136.559z M241.076,157.387c0.169,0.579,0.924,0.651,1.857,0.382s1.242-1.077,1.073-1.655c-0.169-0.579-0.753-0.71-1.685-0.442C241.388,155.94,240.906,156.808,241.076,157.387L241.076,157.387z M244.704,158.589c0,0-2.234,0.837-3.882,0.776c0,0.461-1.025,2.378-1.025,2.378s3.552,0.146,4.394-0.606C245.034,160.384,244.704,158.589,244.704,158.589z M244.777,162.446c0,0-3.589,0.655-5.42,0.412c-0.11,0.534-0.732,1.262-0.732,1.262s2.661,2.038,3.955,1.528C243.874,165.138,244.778,162.446,244.777,162.446L244.777,162.446z M242.139,166.811c0,0-3.039-0.582-4.358-1.383c-0.256,0.655-1.025,1.456-1.025,1.456s1.392,1.783,2.747,1.747C240.858,168.594,242.139,166.811,242.139,166.811z M239.794,169.651c0,0-3.186-0.728-3.992-1.347c-0.256,0.509-1.612,1.783-1.612,1.783s1.172,1.419,2.381,1.31S239.794,169.651,239.794,169.651z M232.982,171.328l3.296,1.238c0,0-1.794,1.565-3.369,1.638s-2.161-0.91-2.161-0.91L232.982,171.328z M208.226,155.386c0.073,0.873-0.404,0.723-1.337,0.454c-0.933-0.269-1.551-0.956-1.382-1.536c0.169-0.579,0.834-0.716,1.767-0.448C208.207,154.126,208.176,154.785,208.226,155.386L208.226,155.386z M204.857,155.967c0,0,1.839,1.87,4.117,2.24c-0.087,0.453,0.79,2.782,0.79,2.782s-3.232-0.751-4.248-1.71C204.5,158.32,204.857,155.967,204.857,155.967z M205.515,161.21c0,0,2.794,1.016,5.017,1.601c0.147,0.728,0.769,2.111,0.769,2.111s-3.186,0.328-4.175-0.291C205.692,163.734,205.515,161.21,205.515,161.21L205.515,161.21z M207.714,166.157c0,0,3.098,0.376,4.834,0.437c0.073,0.618,1.172,1.71,1.172,1.71s-2.305,1.428-3.662,0.618C208.701,168.113,207.714,166.157,207.714,166.157z M211.376,170.456c0,0,2.527-0.546,3.332-1.164c0.256,0.509,1.318,1.528,1.318,1.528s-1.099,1.347-2.307,1.238S211.376,170.456,211.376,170.456L211.376,170.456z M217.238,172.167l-2.044,0.873c0,0,0.578,1.149,2.154,1.201c1.099,0.036,1.574-0.801,1.574-0.801L217.238,172.167L217.238,172.167z M229.613,174.24c-1.245,1.018-3.296,1.492-3.296,1.492s4.213,6.768,5.42,5.568C233.567,179.481,231.004,175.259,229.613,174.24L229.613,174.24z M223.498,176.096c0,0-1.063,0.946-1.905,1.383c1.758,0.801,4.322,5.313,5.127,3.275C227.526,178.716,223.498,176.096,223.498,176.096L223.498,176.096z M228.004,181.407c0,0-0.68,1.436-0.55,2.256c0.33,2.074,5.127,4.513,5.164,2.693C232.654,184.536,228.004,181.407,228.004,181.407z M220.056,174.313l1.648,1.019c0,0-1.136,1.892-2.417,1.31C218.005,176.06,220.056,174.313,220.056,174.313z M219.999,178.349c0.9,0,1.63,0.986,1.63,2.202s-0.73,2.202-1.63,2.202c-0.9,0-1.63-0.986-1.63-2.202S219.099,178.349,219.999,178.349z M223.391,181.261c-0.439,0.691-1.099,1.711-1.099,1.711s0.989,1.601,1.281,3.093c0.806,0.073,1.794-0.728,1.794-2.183C225.368,182.863,224.051,181.334,223.391,181.261z M226.794,185.811l-0.696,0.837c0,0,1.685,3.53,2.747,4.767C229.578,187.703,226.794,185.811,226.794,185.811z M230.496,188.539c-0.257,0.437-0.183,2.329,0.257,3.311s2.313,2.969,3.845,3.458c3.076,0.983,9.961,0.546,9.961,0.546s-5.64-2.402-8.277-3.785c-2.119-1.111-3.516-3.748-3.516-3.748S230.752,188.103,230.496,188.539L230.496,188.539z M220.787,183.956c-0.879,0-1.501,0.946-1.501,2.11c0,0.873,0.806,2.693,1.831,2.766c1.025,0.073,1.136-2.329,1.136-2.329S221.666,183.956,220.787,183.956z M224.595,187.265c0,0-0.969,1.255-0.769,2.329c0.512,2.766,3.275,7.175,4.614,8.407c1.501,1.383,3.003,3.744,3.516,4.549c1.392,2.183,4.028,7.716,4.028,7.716s0.293-4.076-0.732-7.133c-0.357-1.063-2.161-3.457-2.93-4.513c-0.769-1.055-2.527-2.402-3.698-4.003S224.595,187.265,224.595,187.265L224.595,187.265z M222.362,190.032c0.22,1.674,1.538,3.64,1.538,3.64s-2.57,0.034-3.296-1.129c-0.659-1.055-0.293-2.293-0.293-2.293S221.41,190.141,222.362,190.032L222.362,190.032z M196.802,132.02c0,0-2.307-1.055-4.175-1.383c-1.867-0.328-8.899-0.219-11.499-0.291c-2.6-0.073-8.423-0.764-9.961-1.383c0,0.546,0.037,2.002,2.71,3.13c2.673,1.129,11.023,0.437,13.623,0.51s8.313,1.819,8.862,1.528C196.913,133.84,196.802,132.02,196.802,132.02z M192.443,135.151c0-0.437-3.259-0.983-4.505-0.728c-1.245,0.255-3.536,1.561-5.2,3.02c-1.868,1.638-3.955,4.768-3.955,4.768s5.457-2.984,10.913-4.331C190.685,137.334,192.443,135.587,192.443,135.151z M185.012,133.882c0,0-2.014,1.638-3.149,1.928c-1.135,0.291-3.589-0.182-5.969,0.655c-2.381,0.837-5.578,4.611-6.36,5.775c-0.293-3.057-1.978-6.806-3.223-8.443c1.318-0.036,3.064,0.594,3.064,0.594s1.135,1.092,2.197,1.019c1.062-0.073,1.794-1.019,3.113-1.201C176.003,134.027,185.012,133.882,185.012,133.882L185.012,133.882z" />
  <path fill="#EBB437" stroke="#EBB437" stroke-width="0.5625" stroke-linecap="round" stroke-linejoin="round" stroke-miterlimit="10" d="M235.541,132.903c-0.02-0.527-3.39-1.63-5.03-1.657s-4.038,0.464-4.264,1.494c-0.192,0.869,1.969,2.581,2.652,2.581s1.12-1.386,2.159-1.685C232.096,133.337,235.596,134.37,235.541,132.903L235.541,132.903z M233.786,197.421c-0.952,0.691,6.568,7.315,9.278,13.721c0.476-0.182,2.331-2.294,2.844-4.95c1.208,0.582,2.747,0.873,4.54,0.983c1.794,0.109,4.358-0.109,4.358-0.109s-0.989-3.13-3.076-3.712s-4.249,0.291-6.08-0.073C243.821,202.917,234.377,196.992,233.786,197.421L233.786,197.421z M254.919,204.336l1.867,2.766l3.039,0.073c0,0-0.622-1.71-2.087-2.475C257.028,204.329,254.919,204.336,254.919,204.336 M258.694,210.412l-2.419-1.928h-3.701l2.053,1.895L258.694,210.412z M259.279,208.411l2.452,2.365l3.223,0.145l-2.931-2.549L259.279,208.411z M252.394,210.446l-2.273-1.962l-3.184-0.112l3.077,2.985l2.452,0.218L252.394,210.446z M248.766,212.38l-2.891-2.225l-1.356,1.856l2.199,2.443l2.413,0.218L248.766,212.38z M254.149,214.705l-1.609-1.856h-1.761l-0.073,1.968l2.014,1.71l1.468-0.073L254.149,214.705z M252.501,218.529l-2.486-2.583l-1.941,0.106l0.073,1.459l3.038,2.543l1.316-0.034V218.529z M258.362,213.252l-1.907-1.459l-2.048-0.034l0.034,1.056l1.907,1.638l2.087,0.034L258.362,213.252z M262.828,211.938l-3.369,0.073l3.628,2.37h1.682v-1.168L262.828,211.938z M263.565,216.416l-2.419-2.18l-1.468-0.039l0.146,1.526l1.648,1.934l2.053,0.106L263.565,216.416z M256.787,217.802l-0.039-1.565l1.946,0.106l2.194,2.292l-0.073,1.822l-1.901-0.218L256.787,217.802z M254.959,218.238l-1.249-0.039l1.721,2.364l1.868,0.112l-2.014-3.605L254.959,218.238z M269.567,215.505l-2.121-1.889l-1.429,0.034l-0.039,1.783l1.98,1.202l1.648,0.33L269.567,215.505z M265.759,220.781l-2.272-1.817l-1.463,0.034v1.565l2.272,1.565l1.648,0.039L265.759,220.781z M269.64,219.473l-3.223-2.655l-1.536-0.039l0.034,1.71l2.97,2.146l2.121,0.184L269.64,219.473z M269.533,114.289c-8.057,9.511-18.994,18.05-18.994,18.05s1.595,1.454,3.856,0.874c3.027-0.776,9.507-8.464,11.035-10.53C267.189,120.306,268.752,117.297,269.533,114.289z M254.346,122.389c0.341,0.97,0.586,3.348,0.195,4.319c-0.39,0.97-4.785,4.173-4.785,4.173l-0.341-1.99C249.414,128.891,252.538,125.786,254.346,122.389z M263.379,108.565c-1.929,0.255-6.274,0.328-8.106,0c-0.269,1.395,1.751,3.011,1.66,4.076c-0.171,2.013-1.44,3.943-1.562,5.532c-0.123,1.589,1.074,6.599,1.074,6.599s1.929-2.827,2.539-4.949c0.61-2.123,0.318-5.204,0.635-6.453C259.937,112.119,263.587,111.113,263.379,108.565z M267.367,100.505l-3.112,2.875v3.785c0,0,2.27-1.565,2.893-2.948C267.557,103.31,267.368,100.505,267.367,100.505L267.367,100.505z M262.867,102.802c0,0,0.22,3.348-0.33,4.003s-1.318,0.328-1.318,0.328l-0.073-3.13L262.867,102.802z M259.571,106.877l-0.036-4.949c0,0-1.502,0.437-1.502,1.347S259.571,106.877,259.571,106.877z M257.445,106.877L255.651,102l-2.051,2.038c0,0,0.073,2.511,0.952,2.948S257.445,106.877,257.445,106.877L257.445,106.877z M267.48,98.47l-2.087,1.492l-0.771-4.366l2.126-1.856L267.48,98.47z M263.233,96.871l0.951,3.891l-0.771,0.872l-1.097-3.164L263.233,96.871z M260.561,95.848l0.696,6.187c0,0-1.428-1.528-1.575-2.584C259.536,98.396,260.561,95.848,260.561,95.848L260.561,95.848z M257.226,94.976l1.468,3.712l-1.721,2.365l-0.883-3.348L257.226,94.976z M252.208,100.326l0.039-2.801l0.951-1.565l1.794,1.565v3.058l-1.721,1.487L252.208,100.326z M254.334,89.627l1.316,0.984l0.624,3.203l-1.17,1.56l-1.761-1.235l-0.107-2.583L254.334,89.627z M259.059,90.354l-0.956-2.51l-1.057,2.253l0.585,3.499l1.502,1.09L259.059,90.354z M262.429,91.589l-1.322-2.471l-0.804,1.347l-0.034,3.276l2.048,1.599L262.429,91.589z M265.354,90.611l-0.619-1.822l-1.209,2.258l0.107,3.639l1.395-1.129L265.354,90.611z M260.415,84.713l0.107,2.873l2.346,1.274l1.17-2.146l-1.316-3.673l-1.283-1.056L260.415,84.713z M164.211,142.507l3.15-2.37l0.585,2.879l-1.834,2.074l-1.867-0.073L164.211,142.507z M166.112,137.884l1.356,0.397l-4.213,3.276l-1.721-0.145l-0.034-1.71L166.112,137.884z M165.786,136.246l-4.321,1.601l-0.037-1.565c0,0,1.721-2.038,2.674-2.038C165.053,134.245,165.786,136.246,165.786,136.246L165.786,136.246z M161.938,149.494l2.931-2.985l-2.599-0.766l-2.385,1.817l-0.034,2.007L161.938,149.494z M159.446,146.397l2.97-2.325v-1.241l-2.233-0.073l-2.053,1.638v1.968L159.446,146.397z M155.97,141.814l2.565-1.856l1.243-0.039l-0.073,1.532l-2.565,2.074l-1.136-0.184L155.97,141.814z M158.057,137.118l2.16-0.112v1.096l-4.247,2.035l-1.395-0.218L158.057,137.118z M155.931,134.061l3.409-0.509l2.16,0.33l-1.356,1.599l-4.101,0.911l-1.794-0.363L155.931,134.061z M154.429,137.7c-1.318-0.437-2.124-1.419-2.124-1.419s-2.417,1.019-3.076,2.038c-0.127,0.196-0.586,1.674-0.11,1.965s2.014,0.219,2.014,0.219S153.257,139.264,154.429,137.7z M154.654,143.267l-0.113-2.001l-2.16-0.073l-1.502,1.056l0.253,0.766L154.654,143.267z M154.614,147.308l2.126-1.274l-0.219-1.274l-1.868-0.145l-1.395,1.274l-0.073,1.565L154.614,147.308z M153.737,148.728l2.852-1.275l1.614,0.291l-0.039,1.274l-2.891,1.381h-1.828L153.737,148.728z M147.544,149.349l2.312-1.789l1.721,0.184l-0.113,1.75l-2.492,1.381l-1.389,0.034L147.544,149.349z M148.573,145.089l2.048-1.129l1.761,0.257l-0.332,1.124l-1.828,0.95l-1.614,0.073L148.573,145.089z M145.058,143.015l2.059-2.018l1.052,0.028l-0.124,1.068l1.271-0.173l-0.084,0.95l-2.014,1.744l-2.199-0.034L145.058,143.015z M141.396,148.18l3.004-2.219l2.526,0.184v1.783l-2.931,2.146l-2.964-0.693L141.396,148.18z" />
</svg>
