<svg xmlns="http://www.w3.org/2000/svg" width="450px" height="300px" viewBox="0 0 450 300">
  <path fill="#FFFFFF" d="M0,0h450v300H0V0z" />
  <path fill="#CF142B" d="M450,0L450,0h-29.155L225,130.563L29.155,0H0l0,0v19.437L195.845,150L0,280.563V300h29.156L225,169.437L420.844,300H450v-19.437L254.156,150L450,19.437V0z" />
  <path fill="#CF142B" stroke="#800000" stroke-width="0.2929" d="M249.828,44.249c6.107,26.56,2.758,59.364-24.827,77.564c-27.587-18.2-30.936-51.004-24.827-77.564C206.676,37.9,236.231,33.985,249.828,44.249L249.828,44.249z" />
  <g>
    <path fill="#FFD700" stroke="#806600" stroke-width="0.0971" d="M212.503,60.126c0,0-1.081-0.008-1.514-0.244c-0.471-0.256-0.975-1.164-0.975-1.164s-1.191,0.18-1.739,0.07c-0.572-0.116-1.391-0.726-1.391-0.726c0.547-0.076,0.956-0.153,1.486-0.552c0,0-1.055-0.053-1.656-0.267c-0.523-0.188-1.377-0.809-1.377-0.809c0.488-0.113,1.015-0.098,1.399-0.543c0,0-1.033,0.008-1.501-0.15c-0.467-0.159-1.209-0.772-1.209-0.772c0.568-0.046,1.108-0.144,1.473-0.572c0,0-1.046,0.033-1.49-0.13c-0.612-0.224-1.549-0.97-1.549-0.97c0.589-0.041,1.175-0.089,1.62-0.4l-0.331-0.627c-0.4-0.756-1.236-0.489-1.793-0.698c-0.547-0.205-0.853-0.763-0.882-1.075c-0.053-0.552,0.25-1.394,1.587-1.219c-0.665-0.943,0.028-1.621,0.734-1.893c0.679-0.261,1.279-0.189,1.74,0.843c0,0,0.62-0.467,0.956-0.537c0.468-0.097,0.995,0.047,1.161,0.456c0.069,0.168,0.093,0.518-0.021,0.727c-0.181,0.331-0.581,0.558-0.711,1.043c-0.148,0.548,0.396,1.505,0.396,1.505s2.569,1.896,3.751,2.934c0.629,0.553,1.771,1.749,1.771,1.749l0.063-0.034h2.546l0.227,4.003L212.503,60.126L212.503,60.126z M225.104,61.964c-0.449-0.123-0.997-0.672-1.473-0.669c-0.501,0.003-0.855,0.263-1.107,0.614c-0.12,0.167,0.069,0.792,0.256,0.913l0.864,0.553c0,0-0.54,0.579-0.582,0.904c-0.035,0.283,0.118,0.51,0.334,0.733c0.284,0.292,0.353,0.404,0.806,0.466c0.27,0.036,0.909-0.074,0.909-0.074s-0.015,0.464,0.143,0.679c0.286,0.389,0.772,0.73,1.327,0.675c0.434-0.043,0.574-0.103,0.803-0.405c0.182-0.238,0.146-0.847,0.44-1.098l1.2-1.02c0.518,0.292,0.504,0.727,0.44,1.176c0,0,0.769-0.453,0.999-0.778c0.239-0.338,0.333-1.137,0.333-1.137c0.488,0.41,0.649,0.775,0.544,1.265c0,0,0.784-0.456,1.036-0.778c0.284-0.363,0.529-1.146,0.529-1.146c0.357,0.324,0.432,0.784,0.296,1.346c0,0,0.876-0.547,1.11-0.987c0.185-0.348,0.296-0.957,0.296-0.957c1.064,0.072,1.752-0.359,1.798-0.806c0.037-0.347-0.385-0.819-1.242-0.956c0,0-0.316-0.44-0.436-0.766c-0.082-0.224-0.088-0.478,0-0.7c0.177-0.444,0.589-0.818,1.011-1.138c0.579-0.44,1.84-0.991,1.84-0.991l-0.369-1.72l-4.294-0.613l-4.746,1.09c0.865,0.369,2.803,1.634,2.645,2.113c-0.06,0.179-0.472,0.349-0.669,0.589c-0.146,0.177-0.035,0.459,0.109,0.642c0.2,0.256,0.676,0.314,0.83,0.554c0.137,0.216,0.201,0.409,0.037,0.613c-0.325,0.402-1.418,0.571-1.949,0.788c-0.966,0.395-2.602,1.256-2.602,1.256C226.061,62.257,225.573,62.092,225.104,61.964L225.104,61.964z" />
    <path fill="#FFD700" stroke="#806600" stroke-width="0.0971" d="M233.784,56.549c0,0-0.082,1.431-0.724,1.797c-0.276,0.157-0.663,0.223-0.965,0.113c-0.292-0.108-0.496-0.399-0.603-0.674c-0.069-0.176-0.181-0.618-0.181-0.618s-0.981-0.418-1.507-0.45c-0.775-0.046-2.291,0.393-2.291,0.393c0.259-0.75,0.955-1.363,1.688-1.965l2.532-0.169L233.784,56.549L233.784,56.549z" />
    <path fill="#FFD700" stroke="#806600" stroke-width="0.0971" d="M238.688,47.037c0.599-0.074,1.83-0.35,2.242-0.805c0.192-0.212,0.732-0.805,0.732-0.805c-0.114,1.339-0.723,2.207-2.014,2.794c-1.03,0.469-2.219,0.578-3.341,0.473c-0.706-0.066-2.014-0.473-2.014-0.473c0.717,0.867,0.353,1.479-0.549,1.894c0,0,0.134-0.83-0.137-0.947c-0.585-0.252-1.243,0.077-1.863,0.461c-0.458,0.285-1.153,0.417-1.62,0.411c-0.779-0.01-1.21-0.02-1.938-0.305c-0.439-0.173-1.201-0.829-1.523-0.764c-0.697,0.141-1.577,0.22-1.973,0.83c-0.137,0.211-0.121,0.543,0,0.766c0.271,0.499,0.88,0.76,1.418,0.894c1.601,0.397,2.907,0.394,4.486,0.143c1.628-0.26,3.529-0.779,5.157-1.093c1.614-0.311,3.693-0.899,4.916-1.183c2.161-0.502,3.13-0.571,4.748-0.544c2.832,0.047,3.759,1.603,3.673,3.301c-0.088,1.745-1.795,2.534-3.256,3.024c-2.569,0.86-6.095,0.37-8.312,0.311c0,0,0.743,0.644,1.08,0.938c0.395,0.345,0.592,1.066,1.08,1.242c0.669,0.241,1.693-0.237,2.4-0.279c0.989-0.059,2.671,0.063,2.671,0.063c0.257-0.271,0.424-0.459,0.692-0.54c0.192-0.059,0.494-0.063,0.647-0.001c0.305,0.121,0.51,0.492,0.382,1.182c0,0,0.211,0.306,0.534,0.376c0.341,0.076,0.74,0.009,0.933,0.072c0.321,0.105,0.84,0.434,0.84,0.434s-0.55,0.181-0.779,0.325c-0.156,0.098-0.366,0.426-0.366,0.426s0.754,0.014,1.069,0.157c0.337,0.156,0.649,0.592,0.649,0.592s-0.454-0.033-0.67,0.108c-0.166,0.108-0.437,0.405-0.437,0.405s0.882-0.074,1.184,0.198c0.266,0.24,0.572,0.672,0.572,0.672s-0.476-0.011-0.701,0.057c-0.146,0.044-0.405,0.22-0.405,0.22s0.61,0.329,0.879,0.711c0.214,0.305,0.267,0.988,0.267,0.988s-0.36-0.279-0.58-0.381c-0.139-0.064-0.451-0.054-0.451-0.054l0.143,1.401c0.035,0.344,0.502,0.717,0.585,0.984c0.105,0.336,0.079,0.463-0.109,0.757c-0.241,0.377-0.74,0.454-1.17,0.379c-0.237-0.043-0.572-0.353-0.572-0.353s-0.243,0.465-0.408,0.608c-0.275,0.239-0.407,0.305-0.766,0.291c-0.275-0.011-0.505-0.16-0.695-0.366c-0.219-0.237-0.371-0.945-0.371-0.945l-0.845,0.173c-0.183,0.037-0.74-0.252-0.801-0.435c-0.13-0.383-0.143-0.769,0.109-1.08c0.24-0.295,0.902-0.31,1.24-0.472c0.432-0.208,0.848-0.81,0.848-0.81s-1.412-1.124-2.023-1.823c-0.336-0.384-0.914-1.283-0.914-1.283s-1.8,0.561-2.479,0.675c-1.674,0.281-3.458,0-3.458,0c-2.559,0-4.262-4.067-6.589-4.996c-0.71-0.283-1.044-0.239-1.787-0.067c-2.697,0.623-5.575,4.158-8.246,4.888c-1.097,0.299-3.392,0.405-3.392,0.405s-0.376,0.838-0.731,1.077c-0.387,0.26-1.357,0.277-1.357,0.277s-0.248,1.002-0.533,1.382c-0.297,0.398-1.114,0.783-1.114,0.783c0.121-0.457,0.192-0.807,0.021-1.385c0,0-0.406,0.799-0.801,1.178c-0.343,0.33-1.182,0.737-1.182,0.737c0.067-0.426,0.26-0.831,0-1.314c0,0-0.345,0.808-0.645,1.106c-0.299,0.298-1.091,0.622-1.091,0.622c0.153-0.461,0.251-0.921,0-1.382c0,0-0.328,0.828-0.622,1.106c-0.406,0.384-1.382,0.804-1.382,0.804c0.166-0.476,0.323-0.951,0.202-1.426l-0.664-0.002c-0.801-0.002-0.853,0.76-1.226,1.107c-0.366,0.34-0.962,0.348-1.248,0.242c-0.504-0.187-0.951-0.845-0.34-1.813c-1.057,0.127-1.607-0.617-1.605-1.28c0.002-0.637,0.208-1.198,1.275-1.13c0,0-0.137-0.551-0.085-0.841c0.076-0.404,0.382-0.754,0.798-0.715c0.17,0.016,0.488,0.143,0.633,0.318c0.23,0.278,0.293,0.682,0.675,0.984c0.432,0.341,1.459,0.314,1.459,0.314s1.997-1.215,3.314-1.705c0.701-0.261,2.691-0.655,2.691-0.655l0.062-5.499c1.196,0.083,0.682,0.095,1.693,0.06c1.453-0.049,5.27,0.614,5.27,0.614l2.717-0.209c0,0,4.533-0.769,6.689-1.01c1.086-0.121,2.184-0.208,3.275-0.144c1.643,0.097,3.055,0.555,4.599,0.649c1.299,0.079,2.185,0.228,3.484,0.144c1.854-0.12,5.167,0.021,6.221-1.864c0.273-0.489,0.134-1.159-0.275-1.536c-0.538-0.497-0.921-0.684-1.639-0.514c-0.379,0.09-0.859,0.389-0.907,0.757c-0.027,0.199,0.006,0.376,0.169,0.611c0.279,0.405,0.592,0.601,0.592,0.601s-0.934,0.047-1.301-0.255c-0.385-0.319-0.601-1.259-0.601-1.259c-0.181,0.259-0.314,0.542-0.284,0.911c0.027,0.318-0.001,0.516,0.343,0.998c0,0-0.85-0.063-1.258-0.545c-0.274-0.325-0.498-1.302-0.498-1.302c-0.241,0.247-0.389,0.646-0.399,0.94c-0.015,0.425,0.163,0.611,0.253,1.059c0,0-0.839-0.255-1.17-0.727c-0.257-0.366-0.395-1.327-0.395-1.327c-0.965,0.249-2.806,0.601-4.812,1.046c-1.413,0.314-3.57,0.796-5.095,0.995c-2.619,0.34-4.525,0.164-6.134-0.543c-0.837-0.368-1.215-0.722-1.431-1.557c-0.123-0.474,0.058-1.146,0.474-1.669c0.579-0.729,1.587-1.275,2.711-1.563c0,0,2.979-0.827,4.714-0.995c2.781-0.267,3.913,0.134,5.075,0.286c0.756,0.098,1.569-0.063,1.806-0.357c0.2-0.247,0.531-0.514,0.085-1.11c0,0,0.566,0.011,0.94,0.73c0.153,0.294-0.035,0.972-0.035,0.972l0,0L238.688,47.037z" />
    <path fill="#FFD700" d="M218.546,54.868c0.646,0.374,1.355-0.116,1.501-0.166c0,0-0.309-0.201-0.518-0.684c-0.14-0.325-0.189-0.898-0.202-1.168c-0.047-0.999,0.379-1.154,0.394-1.078c0,0,0.711-0.227,1.005-0.439c0.279-0.2,0.408-0.548,0.485-0.868c0.116-0.48-0.088-1.186-0.088-1.186c-1.033-0.056-1.295,0.072-1.537,0.366c0,0-0.021-0.491-0.166-0.939c-0.072-0.224-0.237-0.556-0.406-0.772c-0.174-0.221-0.351-0.322-0.351-0.322c-0.006,0.255-0.253,0.488-0.378,0.666c0,0-0.105-0.976-0.367-1.327c-0.203-0.27-0.762-0.63-0.758-0.628c0.004,0.002-0.636,0.034-0.962,0.16c-0.424,0.164-1.077,0.933-1.077,0.933c-0.003-0.213-0.076-0.533,0.067-0.75c0,0-0.208-0.004-0.482,0.095c-0.267,0.097-0.598,0.294-0.788,0.447c-0.38,0.305-0.682,0.708-0.682,0.708c-0.017-0.385-0.158-0.608-1.083-1.08c0,0-0.579,0.492-0.759,0.955c-0.12,0.308-0.212,0.666-0.093,0.975c0.127,0.326,0.594,0.874,0.594,0.874c0.056-0.057,0.327,0.289-0.292,1.106c-0.167,0.22-0.54,0.679-0.846,0.882c-0.456,0.302-0.833,0.316-0.833,0.316c0.23,0.557,0.293,0.785,1.169,0.894c-1.997,1.335-2.223,3.464-0.69,5.278c0.1-0.218,0.442-0.712,0.644-0.902c-0.021-0.016,0.027,1.048,0.595,1.59c0.185,0.176,0.275,1.154,0.542,1.462c0.243,0.281,0.586,0.586,0.586,0.586s0.266-0.775,0.656-0.897c0.392-0.121,1.125-0.317,1.367-0.388c0.486-0.143,1.353-1.109,1.353-1.109l-0.153,1.181C218.619,58.77,219.218,57.109,218.546,54.868L218.546,54.868z" />
    <path fill="#504416" d="M213.454,51.855c0.114,0.7-0.245,2.085-0.529,2.463l1.707,0.638l1.685,0.181c-0.137-0.643,0.537-1.899,0.874-2.326l-1.238,0.024l-0.553-0.514l-1.011,0.209L213.454,51.855L213.454,51.855z" />
    <path fill="#FFFFFF" d="M213.791,52.252c-0.223,0.753-0.095,0.891-0.053,1.188l0.492-0.982L213.791,52.252L213.791,52.252z M216.181,52.976l-0.139,1.077c0.204-0.232,0.392-0.287,0.628-1.036L216.181,52.976L216.181,52.976z M213.741,53.735c-0.161,0.184-0.313,0.256-0.486,0.651l0.377,0.196L213.741,53.735z M215.888,54.306l-0.373,0.745l0.418,0.045C216.008,54.677,215.921,54.541,215.888,54.306L215.888,54.306z M213.957,49.099c-0.32-0.016-0.545,0.092-0.617,0.328c-0.097,0.316,0.14,0.656,0.643,0.789c0.502,0.133,0.991-0.105,1.087-0.421c0.097-0.316-0.261-0.505-0.763-0.638C214.181,49.124,214.063,49.105,213.957,49.099L213.957,49.099z M217.473,50.047c-0.251-0.009-0.434,0.059-0.495,0.256c-0.097,0.316,0.183,0.758,0.685,0.891s0.896-0.037,0.993-0.354c0.097-0.316-0.167-0.571-0.669-0.704C217.8,50.085,217.624,50.052,217.473,50.047L217.473,50.047z" />
    <path fill="#D1B948" d="M213.96,49.02c-0.116-0.005-0.224,0.005-0.318,0.03c-0.189,0.051-0.327,0.176-0.382,0.356c-0.056,0.181-0.012,0.37,0.111,0.529c0.123,0.157,0.324,0.29,0.589,0.36c0.541,0.144,1.071-0.107,1.185-0.479c0.056-0.186-0.028-0.352-0.185-0.466c0,0-0.292-0.067-0.654-0.192C214.176,49.122,214.076,49.025,213.96,49.02L213.96,49.02z M213.954,49.175c0.1,0.005,0.211,0.024,0.331,0.056c0.246,0.066,0.447,0.153,0.57,0.243c0.123,0.092,0.167,0.169,0.127,0.298c-0.079,0.259-0.514,0.495-0.977,0.372c-0.236-0.063-0.403-0.172-0.5-0.296s-0.127-0.265-0.086-0.399c0.04-0.134,0.13-0.214,0.274-0.253c0.072-0.02,0.16-0.026,0.26-0.021L213.954,49.175z M217.477,49.971c-0.053-0.002-0.105,0.001-0.155,0.006c-0.198,0.021-0.364,0.12-0.421,0.305c-0.114,0.372,0.194,0.846,0.735,0.99c0.266,0.07,0.511,0.057,0.704-0.016c0.194-0.074,0.339-0.213,0.394-0.394c0.056-0.181,0.009-0.355-0.123-0.492c-0.132-0.136-0.077-0.124-0.337-0.193C218.132,50.227,217.638,50.13,217.477,49.971L217.477,49.971z M217.468,50.131c0.139,0.003,0.309,0.03,0.494,0.079c0.241,0.064,0.421,0.157,0.521,0.26c0.1,0.103,0.13,0.215,0.089,0.35c-0.04,0.134-0.146,0.24-0.298,0.297c-0.153,0.057-0.356,0.069-0.592,0.005c-0.463-0.123-0.699-0.537-0.62-0.796c0.04-0.13,0.12-0.174,0.277-0.191C217.377,50.131,217.422,50.129,217.468,50.131L217.468,50.131z" />
    <path fill="#806600" d="M212.925,54.133l-0.072,0.164c-0.246,0.553-0.191,1.065,0.046,1.458c0.236,0.394,0.646,0.664,1.102,0.792c0.456,0.127,0.96,0.113,1.396-0.097c0.436-0.211,0.785-0.625,0.924-1.231l0.042-0.172l-0.193-0.011c-0.94-0.06-1.906-0.218-3.083-0.82l-0.16-0.083l0,0H212.925z M213.035,54.386c1.037,0.494,2.281,0.737,3.123,0.807c-0.14,0.421-0.421,0.924-0.727,1.071c-0.347,0.168-1.019,0.212-1.4,0.105c-0.381-0.107-0.874-0.548-1.062-0.861C212.805,55.232,212.9,54.791,213.035,54.386L213.035,54.386L213.035,54.386z" />
    <path fill="#377BC8" stroke="#2C5AA0" stroke-width="0.0971" d="M214.467,52.535c-0.442,1.359-0.826,2.895-0.527,4.31c1.056-1.055,1.596-2.536,1.991-3.907c0.002-0.056-0.29-0.178-0.327-0.221c-0.092-0.108-0.247-0.362-0.247-0.362s-0.295,0.173-0.462,0.211C214.753,52.597,214.468,52.534,214.467,52.535L214.467,52.535z" />
    <path fill="#FFD700" d="M217.129,46.315c0.004,0.002-0.636,0.034-0.962,0.16c-0.424,0.164-1.076,0.933-1.076,0.933c-0.003-0.213-0.076-0.533,0.067-0.751c0,0-0.208-0.004-0.482,0.095c-0.267,0.097-0.598,0.294-0.788,0.446c-0.38,0.305-0.682,0.708-0.682,0.708c0.335-0.011,1.079-0.637,1.368-0.576c0.244,0.051,0.076,0.661,0.311,0.688c0.322,0.037,0.608-0.431,1.008-0.759c0.355-0.291,0.848-0.513,1.084-0.44c0.237,0.072,0.532,0.504,0.657,0.926c0.148,0.499,0.257,1.037,0.504,1.148c0.244,0.111,0.456-0.507,0.705-0.43c0.295,0.092,0.432,1.034,0.714,1.172c0,0-0.021-0.491-0.166-0.939c-0.072-0.224-0.237-0.556-0.406-0.772c-0.174-0.221-0.351-0.322-0.351-0.322c-0.006,0.255-0.252,0.488-0.378,0.666c0,0-0.105-0.976-0.367-1.327C217.685,46.674,217.126,46.314,217.129,46.315L217.129,46.315z M212.871,49.799c-0.364,0.576,0.093,1.127,0.83,1.25l-0.285,0.676l0.418,0.763l0.762,0.247l0.721-0.266l0.479,0.606l0.669,0.141l0.861-0.482l0.344-0.543l0.537-0.031l0.459-0.205l0.163-0.534c-0.427,0.285-0.849,0.564-1.715,0.229c-0.024,0.427-0.137,0.692-0.295,0.843c-0.189,0.181-0.446,0.199-0.699,0.137c-0.316-0.077-0.587-0.411-0.712-0.587c-0.313,0.175-0.58,0.308-0.774,0.248c-0.405-0.123-0.631-0.347-0.698-0.606c-0.07-0.274,0.04-0.587,0.309-0.859C212.643,50.433,213.218,50.036,212.871,49.799L212.871,49.799C212.87,49.799,212.871,49.799,212.871,49.799z M212.044,49.992c-0.167,0.22-0.982,1.433-1.288,1.636c-0.456,0.302-0.833,0.316-0.833,0.316c0.23,0.557,0.292,0.785,1.169,0.894c-1.997,1.335-2.223,3.464-0.69,5.278c0.1-0.218,0.442-0.712,0.644-0.902c-0.021-0.016,0.027,1.049,0.596,1.59c0.185,0.176,0.275,1.154,0.542,1.462c0.243,0.281,0.586,0.586,0.586,0.586s0.266-0.775,0.656-0.897c0.392-0.121,1.125-0.317,1.367-0.388c0.486-0.143,1.353-1.109,1.353-1.109l-0.151,1.182c2.626-0.867,3.226-2.529,2.553-4.77c0.646,0.374,1.355-0.116,1.501-0.166c0,0-0.309-0.201-0.518-0.685c-0.14-0.325-0.179-0.899-0.202-1.168l-0.062-0.736c0,0-0.297,0.826-0.367,1.056s0.024,1.047,0.024,1.047c-0.427-0.141-0.856-0.27-1.233-0.575c0,0,0.451,1.659,0.5,2.449c0.027,0.427-0.131,1.185-0.307,1.58c-0.187,0.418-1.099,1.06-1.099,1.06s0.219-1.062,0.214-1.426c-0.006-0.517-0.227-1.831-0.227-1.831s-0.315,1.346-0.566,1.748c-0.285,0.456-0.808,1.262-0.808,1.262c0.146-1.288,0.074-1.362-0.105-1.849c0,0-0.327,1.602-0.935,2.291c-0.151,0.172-0.727,0.31-1.056,0.469c-0.365,0.177-0.478,0.368-0.478,0.368s-0.344-0.896-0.44-1.104c-0.212-0.459-0.633-0.94-0.776-1.421c-0.211-0.707,0.806-2.227,0.806-2.227c-0.377,0.006-0.753,0.418-1.16,0.872c-0.332,0.371-0.711,0.763-0.894,1.046c0,0-0.325-1.104-0.32-1.432c0.008-0.464,0.195-0.93,0.451-1.328c0.416-0.646,2.244-1.974,2.244-1.974c-0.503,0.126-0.959,0.293-1.913,0.034c0,0,0.755-0.825,0.879-1.019C212.083,50.617,211.94,50.392,212.044,49.992L212.044,49.992z M215.45,50.67c-0.379-0.006-0.854,0.041-0.854,0.041l0.051,0.305l0.343,0.124l0.465,0.645l1.184-0.295l0.158-0.253c0,0-0.668-0.463-1.022-0.537c-0.082-0.018-0.198-0.026-0.324-0.027L215.45,50.67z" />
    <path fill="none" stroke="#806600" stroke-width="0.0971" d="M218.546,54.868c0.646,0.374,1.355-0.116,1.501-0.166c0,0-0.309-0.201-0.518-0.684c-0.14-0.325-0.189-0.898-0.202-1.168c-0.047-0.999,0.379-1.154,0.394-1.078c0,0,0.711-0.227,1.005-0.439c0.279-0.2,0.408-0.548,0.485-0.868c0.116-0.48-0.088-1.186-0.088-1.186c-1.033-0.056-1.295,0.072-1.537,0.366c0,0-0.021-0.491-0.166-0.939c-0.072-0.224-0.237-0.556-0.406-0.772c-0.174-0.221-0.351-0.322-0.351-0.322c-0.006,0.255-0.253,0.488-0.378,0.666c-0.116-0.901-0.332-1.415-1.126-1.955c-0.921,0.02-1.454,0.437-2.039,1.093c-0.003-0.213-0.076-0.533,0.067-0.75c0,0-0.208-0.004-0.482,0.095c-0.267,0.097-0.598,0.294-0.788,0.447c-0.38,0.305-0.682,0.708-0.682,0.708c-0.017-0.385-0.158-0.608-1.083-1.08c0,0-0.579,0.492-0.759,0.955c-0.12,0.308-0.212,0.666-0.093,0.975c0.127,0.326,0.594,0.874,0.594,0.874c0.056-0.057,0.327,0.289-0.292,1.106c-0.167,0.22-0.54,0.679-0.846,0.882c-0.456,0.302-0.833,0.316-0.833,0.316c0.23,0.557,0.292,0.785,1.169,0.894c-1.997,1.335-2.223,3.464-0.69,5.278c0.1-0.218,0.442-0.712,0.644-0.902c-0.021-0.016,0.027,1.048,0.595,1.59c0.185,0.176,0.275,1.154,0.542,1.462c0.243,0.281,0.586,0.586,0.586,0.586s0.266-0.775,0.656-0.897c0.392-0.121,1.125-0.317,1.367-0.388c0.486-0.143,1.353-1.109,1.353-1.109l-0.153,1.181C218.619,58.77,219.218,57.109,218.546,54.868L218.546,54.868z" />
    <path fill="#806600" d="M212.153,47.503c0,0-0.421,0.606-0.359,1.001c0.05,0.314,0.629,1.02,0.629,1.02s0.356-1.025,0.3-1.406C212.683,47.838,212.153,47.503,212.153,47.503z M213.576,48.812c-0.496,0.029-0.866,0.601-0.085,0.206c0.319-0.039,0.598,0.3,0.99,0.385c0.806,0.243,1.56-0.456,1.077,0.431c-0.24,0.144-0.859,0.459-0.993,0.792c-0.086,0.286-0.021,0.336-0.024,0.479c0.408,0.097,0.579,0.258,0.663,0.567c0.015,0.068,0.11,0.114,0.16,0.154c0.118,0.076,0.247,0.031,0.377,0.046c0.258-0.211,0.407-0.326,0.833-0.224c0.123,0.034,0.099,0.031,0.173-0.059c0,0,0.139-0.146,0.182-0.336c-0.044-0.714-0.569-1.087-0.264-1.688c0.181,0.131,0.587,0.574,1.029,0.69c0.381,0.12,0.817-0.029,1.059,0.159l0.314,0.37c0.067-0.217-0.013-0.356-0.105-0.493c-0.243-0.287-0.889-0.124-1.175-0.223c-0.687-0.229-0.914-0.611-1.131-0.752c-0.143,0.231-0.26,0.238-0.279,0.854c0.047,0.298,0.346,0.81,0.331,1.133c-0.008,0.036-0.046,0.087-0.077,0.137c-0.437-0.09-0.819,0.218-1.123,0.286c-0.15-0.26-0.417-0.694-0.805-0.841c0.001-0.059-0.002-0.12,0.011-0.156c0.163-0.286,0.717-0.541,0.938-0.754c0.332-0.537,0.238-0.598,0.243-0.863c-0.267,0.01-0.627,0.227-1.336,0.085C214.305,49.144,213.915,48.804,213.576,48.812z M212.893,49.652c-0.503,0.618-0.218,1.287,0.558,1.491c-0.54,0.926,0.727,2.18,1.777,1.518c0.446,1.024,2.297,0.693,2.367-0.386c0.8,0.232,1.359-0.296,1.327-1.009c-0.247,0.116-0.027,0.458-0.567,0.77c-0.236,0.187-0.766,0.075-1.011-0.192c-0.001,0.22,0.049,0.313-0.045,0.579c-0.103,0.598-0.949,0.885-1.502,0.54c-0.317-0.26-0.336-0.481-0.408-0.753c-0.853,1.053-2.346-0.152-1.635-1.092l0.143-0.172c-0.369,0.078-0.843-0.145-0.953-0.379C212.585,50.197,212.91,49.93,212.893,49.652z M220.688,49.773c0,0-0.639,0.024-0.832,0.242c-0.263,0.296-0.541,1.341-0.541,1.341s0.891-0.314,1.111-0.556C220.702,50.495,220.688,49.773,220.688,49.773z" />
    <path fill="#2B2200" d="M214.234,49.311c-0.16-0.002-0.3,0.097-0.343,0.24c-0.053,0.176,0.056,0.358,0.243,0.408l0,0c0.188,0.05,0.384-0.051,0.438-0.227c0.053-0.176-0.055-0.358-0.243-0.408C214.298,49.315,214.266,49.311,214.234,49.311L214.234,49.311z M217.769,50.253c-0.156,0.003-0.29,0.1-0.333,0.24c-0.053,0.176,0.055,0.358,0.243,0.408c0,0,0,0,0.001,0c0.189,0.05,0.385-0.052,0.438-0.227l0,0c0.053-0.176-0.055-0.358-0.243-0.408C217.841,50.257,217.805,50.253,217.769,50.253L217.769,50.253z" />
    <path fill="#377BC8" stroke="#2C5AA0" stroke-width="0.0971" d="M205.416,46.91c0.487,0.563,0.542,0.821,0.431,1.477c0.23,0.224,0.452,0.278,0.643,0.224c0.385-0.11,0.564-0.395,0.474-0.79C206.679,47.654,206.633,47.152,205.416,46.91z M202.508,47.208c-0.201-0.007-0.446,0.013-0.749,0.076c0.693,0.324,0.858,0.537,1.049,1.178c0.309,0.114,0.534,0.079,0.684-0.044c0.301-0.247,0.338-0.576,0.081-0.902C203.322,47.484,203.11,47.229,202.508,47.208L202.508,47.208z M201.646,49.753c-0.322,0.092-0.759-0.205-1.752,0.494c0.775,0.026,1.02,0.156,1.481,0.663c0.332-0.016,0.521-0.136,0.602-0.306C202.14,50.262,202.025,49.949,201.646,49.753z M204.586,60.459c-0.26,0.113-0.638-0.156-1.413,0.606c0.64-0.024,0.85,0.089,1.261,0.566c0.272-0.037,0.421-0.169,0.477-0.344C205.025,60.935,204.91,60.63,204.586,60.459L204.586,60.459z M222.789,61.434c-0.314,0.113-0.774-0.153-1.71,0.612c0.775-0.027,1.03,0.085,1.529,0.561c0.331-0.039,0.508-0.171,0.576-0.347C223.32,61.909,223.183,61.604,222.789,61.434L222.789,61.434z M202.159,63.753c0.579-0.308,0.812-0.298,1.356-0.043c0.237-0.156,0.327-0.343,0.318-0.529c-0.019-0.374-0.231-0.604-0.588-0.616C203.244,62.565,202.604,62.708,202.159,63.753z M223.172,64.186c-0.227,0.232-0.765,0.186-1.234,1.259c0.68-0.347,0.962-0.353,1.636-0.136c0.277-0.173,0.372-0.366,0.349-0.55C223.876,64.387,223.606,64.172,223.172,64.186L223.172,64.186z M204.652,65.066c-0.105-0.005-0.221,0.026-0.34,0.095c-0.081,0.3-0.501,0.472-0.446,1.63c0.376-0.585,0.585-0.701,1.172-0.773c0.143-0.266,0.14-0.479,0.053-0.637C204.978,65.184,204.828,65.075,204.652,65.066L204.652,65.066z M244.244,65.191c-0.076,0.004-0.155,0.023-0.238,0.059c-0.109,0.289-0.544,0.408-0.601,1.565c0.43-0.534,0.65-0.625,1.239-0.624c0.167-0.247,0.185-0.459,0.114-0.626C244.649,65.312,244.47,65.181,244.244,65.191L244.244,65.191z M225.894,65.974c-0.128,0.008-0.262,0.053-0.398,0.134c-0.063,0.308-0.55,0.53-0.352,1.674c0.387-0.626,0.625-0.767,1.323-0.908c0.14-0.281,0.114-0.493-0.008-0.639C226.303,66.05,226.108,65.961,225.894,65.974L225.894,65.974z M248.877,66.052c-0.214-0.018-0.403,0.108-0.534,0.372c0.081,0.3-0.183,0.707,0.434,1.633c0.024-0.722,0.139-0.95,0.591-1.378c-0.014-0.31-0.12-0.485-0.271-0.561C249.023,66.081,248.949,66.058,248.877,66.052L248.877,66.052z M246.343,66.388c-0.137,0.011-0.272,0.089-0.397,0.234c0.008,0.314-0.34,0.629,0.042,1.705c0.19-0.69,0.354-0.876,0.889-1.156c0.058-0.303-0.003-0.504-0.132-0.621C246.617,66.431,246.479,66.376,246.343,66.388L246.343,66.388z" />
  </g>
  <g>
    <path fill="#FFD700" stroke="#806600" stroke-width="0.094" d="M211.99,81.605c0,0-1.049-0.008-1.469-0.236c-0.457-0.248-0.946-1.127-0.946-1.127s-1.156,0.174-1.688,0.068c-0.556-0.112-1.351-0.702-1.351-0.702c0.531-0.073,0.928-0.147,1.442-0.534c0,0-1.024-0.05-1.607-0.259c-0.508-0.182-1.336-0.783-1.336-0.783c0.473-0.109,0.985-0.095,1.358-0.525c0,0-1.003,0.008-1.457-0.146c-0.453-0.153-1.174-0.746-1.174-0.746c0.551-0.044,1.075-0.14,1.43-0.553c0,0-1.016,0.032-1.446-0.125c-0.594-0.217-1.503-0.939-1.503-0.939c0.572-0.04,1.14-0.085,1.572-0.387l-0.321-0.606c-0.388-0.731-1.201-0.473-1.74-0.675c-0.53-0.198-0.827-0.738-0.856-1.04c-0.051-0.534,0.243-1.349,1.54-1.178c-0.645-0.913,0.027-1.569,0.713-1.831c0.659-0.253,1.241-0.183,1.689,0.816c0,0,0.601-0.452,0.928-0.519c0.453-0.093,0.966,0.046,1.127,0.441c0.066,0.163,0.091,0.501-0.021,0.704c-0.176,0.321-0.563,0.54-0.69,1.008c-0.143,0.53,0.385,1.456,0.385,1.456s2.494,1.834,3.64,2.839c0.61,0.534,1.719,1.691,1.719,1.691l0.062-0.034h2.471l0.221,3.872L211.99,81.605L211.99,81.605z M224.219,83.384c-0.436-0.119-0.967-0.65-1.43-0.647c-0.486,0.003-0.83,0.255-1.075,0.594c-0.116,0.162,0.066,0.767,0.249,0.883l0.838,0.535c0,0-0.524,0.559-0.564,0.875c-0.034,0.274,0.114,0.493,0.324,0.71c0.276,0.282,0.343,0.391,0.782,0.45c0.262,0.035,0.882-0.071,0.882-0.071s-0.015,0.449,0.138,0.656c0.278,0.376,0.749,0.707,1.288,0.654c0.421-0.041,0.557-0.1,0.779-0.391c0.176-0.231,0.142-0.82,0.427-1.062l1.164-0.988c0.502,0.282,0.489,0.704,0.427,1.138c0,0,0.747-0.438,0.969-0.753c0.231-0.327,0.324-1.1,0.324-1.1c0.473,0.396,0.63,0.75,0.528,1.224c0,0,0.76-0.441,1.005-0.753c0.276-0.35,0.513-1.108,0.513-1.108c0.347,0.313,0.42,0.758,0.287,1.302c0,0,0.85-0.529,1.077-0.955c0.179-0.337,0.287-0.926,0.287-0.926c1.033,0.069,1.7-0.348,1.746-0.78c0.036-0.335-0.373-0.792-1.205-0.924c0,0-0.307-0.426-0.424-0.74c-0.08-0.217-0.085-0.463,0-0.677c0.172-0.43,0.572-0.792,0.981-1.101c0.563-0.425,1.786-0.959,1.786-0.959l-0.358-1.665l-4.167-0.592l-4.606,1.054c0.84,0.358,2.72,1.581,2.566,2.044c-0.058,0.173-0.457,0.337-0.649,0.57c-0.142,0.171-0.034,0.444,0.106,0.621c0.194,0.247,0.656,0.304,0.805,0.537c0.133,0.209,0.195,0.395,0.036,0.592c-0.315,0.389-1.376,0.553-1.891,0.762c-0.937,0.382-2.526,1.215-2.526,1.215c-0.494,0.06-0.967-0.098-1.423-0.222L224.219,83.384z" />
    <path fill="#FFD700" stroke="#806600" stroke-width="0.094" d="M232.644,78.145c0,0-0.08,1.385-0.702,1.739c-0.268,0.152-0.643,0.216-0.937,0.109c-0.283-0.105-0.482-0.386-0.585-0.652c-0.066-0.17-0.176-0.598-0.176-0.598s-0.952-0.405-1.462-0.434c-0.752-0.044-2.223,0.38-2.223,0.38c0.251-0.725,0.927-1.319,1.638-1.901l2.458-0.163L232.644,78.145L232.644,78.145z" />
    <path fill="#FFD700" stroke="#806600" stroke-width="0.094" d="M237.403,68.943c0.582-0.071,1.775-0.338,2.176-0.779c0.187-0.205,0.711-0.779,0.711-0.779c-0.111,1.295-0.701,2.134-1.954,2.703c-1,0.454-2.154,0.559-3.242,0.458c-0.685-0.063-1.954-0.458-1.954-0.458c0.696,0.839,0.342,1.431-0.533,1.833c0,0,0.13-0.804-0.133-0.917c-0.567-0.243-1.206,0.075-1.808,0.446c-0.445,0.275-1.118,0.403-1.572,0.398c-0.756-0.009-1.175-0.019-1.881-0.295c-0.426-0.166-1.166-0.802-1.479-0.739c-0.676,0.137-1.53,0.213-1.915,0.802c-0.133,0.205-0.118,0.526,0,0.741c0.263,0.483,0.854,0.735,1.376,0.864c1.553,0.384,2.821,0.381,4.354,0.138c1.58-0.251,3.425-0.754,5.005-1.058c1.565-0.301,3.584-0.869,4.771-1.144c2.097-0.485,3.038-0.553,4.607-0.527c2.749,0.046,3.648,1.55,3.564,3.194c-0.085,1.688-1.742,2.452-3.16,2.926c-2.493,0.833-5.916,0.359-8.067,0.301c0,0,0.721,0.623,1.048,0.908c0.383,0.334,0.575,1.031,1.048,1.201c0.65,0.234,1.643-0.23,2.329-0.27c0.96-0.057,2.591,0.06,2.591,0.06c0.25-0.263,0.411-0.445,0.672-0.523c0.186-0.057,0.479-0.06,0.628-0.001c0.295,0.118,0.495,0.476,0.371,1.143c0,0,0.205,0.296,0.518,0.364c0.331,0.073,0.717,0.008,0.906,0.069c0.311,0.102,0.815,0.421,0.815,0.421s-0.534,0.175-0.756,0.314c-0.152,0.095-0.355,0.412-0.355,0.412s0.732,0.013,1.037,0.152c0.327,0.15,0.63,0.573,0.63,0.573s-0.44-0.032-0.65,0.105c-0.16,0.105-0.424,0.392-0.424,0.392s0.856-0.071,1.149,0.191c0.259,0.233,0.556,0.65,0.556,0.65s-0.462-0.01-0.681,0.056c-0.142,0.043-0.394,0.213-0.394,0.213s0.592,0.318,0.853,0.688c0.208,0.295,0.26,0.956,0.26,0.956s-0.349-0.269-0.563-0.369c-0.135-0.062-0.437-0.053-0.437-0.053l0.138,1.356c0.034,0.334,0.487,0.695,0.568,0.952c0.102,0.325,0.077,0.447-0.106,0.733c-0.234,0.365-0.717,0.44-1.136,0.366c-0.231-0.041-0.555-0.341-0.555-0.341s-0.236,0.45-0.395,0.588c-0.266,0.231-0.395,0.295-0.743,0.281c-0.267-0.011-0.49-0.155-0.675-0.354c-0.212-0.229-0.36-0.914-0.36-0.914l-0.82,0.167c-0.178,0.037-0.718-0.244-0.778-0.421c-0.126-0.37-0.138-0.745,0.106-1.045c0.232-0.285,0.875-0.3,1.203-0.457c0.42-0.201,0.823-0.784,0.823-0.784s-1.37-1.087-1.962-1.763c-0.326-0.372-0.886-1.241-0.886-1.241s-1.747,0.543-2.406,0.653c-1.625,0.272-3.355,0-3.355,0c-2.484,0-4.136-3.935-6.395-4.833c-0.689-0.274-1.014-0.231-1.734-0.065c-2.616,0.602-5.41,4.023-8.003,4.728c-1.064,0.289-3.292,0.392-3.292,0.392s-0.365,0.811-0.71,1.042c-0.376,0.252-1.317,0.268-1.317,0.268s-0.241,0.969-0.517,1.337c-0.289,0.385-1.081,0.758-1.081,0.758c0.118-0.442,0.187-0.78,0.021-1.34c0,0-0.394,0.773-0.777,1.14c-0.334,0.318-1.147,0.713-1.147,0.713c0.065-0.412,0.252-0.804,0-1.27c0,0-0.335,0.782-0.626,1.07s-1.059,0.601-1.059,0.601c0.148-0.446,0.244-0.891,0-1.337c0,0-0.318,0.801-0.604,1.07c-0.394,0.371-1.342,0.778-1.342,0.778c0.16-0.46,0.314-0.92,0.195-1.379l-0.645-0.002c-0.778-0.002-0.827,0.735-1.19,1.071c-0.356,0.33-0.933,0.337-1.211,0.234c-0.488-0.181-0.923-0.817-0.33-1.753c-1.026,0.124-1.56-0.597-1.558-1.238c0.002-0.616,0.202-1.159,1.236-1.094c0,0-0.133-0.534-0.082-0.814c0.073-0.391,0.371-0.73,0.774-0.692c0.166,0.015,0.473,0.138,0.614,0.307c0.223,0.269,0.284,0.66,0.654,0.952c0.419,0.33,1.417,0.304,1.417,0.304s1.938-1.175,3.216-1.65c0.68-0.253,2.612-0.634,2.612-0.634l0.06-5.319c1.161,0.081,0.662,0.092,1.643,0.059c1.41-0.047,5.114,0.594,5.114,0.594l2.638-0.202c0,0,4.399-0.744,6.492-0.977c1.054-0.118,2.12-0.201,3.178-0.14c1.594,0.093,2.965,0.537,4.464,0.628c1.26,0.076,2.121,0.221,3.381,0.14c1.799-0.116,5.015,0.021,6.037-1.804c0.265-0.473,0.13-1.121-0.266-1.486c-0.522-0.481-0.894-0.662-1.59-0.497c-0.367,0.087-0.834,0.376-0.88,0.732c-0.026,0.193,0.006,0.363,0.164,0.591c0.27,0.392,0.575,0.581,0.575,0.581s-0.907,0.046-1.262-0.247c-0.374-0.308-0.584-1.218-0.584-1.218c-0.176,0.25-0.305,0.524-0.276,0.881c0.026,0.307-0.001,0.499,0.332,0.965c0,0-0.826-0.06-1.221-0.527c-0.266-0.314-0.483-1.259-0.483-1.259c-0.234,0.238-0.377,0.625-0.387,0.91c-0.015,0.411,0.159,0.592,0.245,1.024c0,0-0.814-0.247-1.136-0.703c-0.25-0.354-0.383-1.284-0.383-1.284c-0.937,0.24-2.723,0.581-4.67,1.012c-1.371,0.304-3.465,0.77-4.944,0.962c-2.542,0.33-4.392,0.159-5.953-0.525c-0.813-0.356-1.179-0.698-1.389-1.507c-0.12-0.459,0.056-1.108,0.459-1.614c0.563-0.705,1.54-1.233,2.631-1.513c0,0,2.891-0.801,4.575-0.962c2.7-0.259,3.797,0.13,4.925,0.277c0.734,0.095,1.522-0.06,1.753-0.345c0.195-0.24,0.516-0.497,0.082-1.074c0,0,0.549,0.011,0.913,0.706C237.585,68.286,237.403,68.942,237.403,68.943L237.403,68.943L237.403,68.943z" />
    <path fill="#FFD700" d="M217.855,76.519c0.627,0.362,1.315-0.112,1.457-0.161c0,0-0.3-0.195-0.503-0.662c-0.137-0.314-0.184-0.869-0.196-1.13c-0.046-0.966,0.369-1.117,0.382-1.043c0,0,0.69-0.22,0.975-0.424c0.271-0.194,0.396-0.53,0.471-0.84c0.113-0.465-0.085-1.147-0.085-1.147c-1.002-0.054-1.257,0.069-1.491,0.354c0,0-0.021-0.475-0.16-0.908c-0.07-0.216-0.23-0.538-0.394-0.746c-0.169-0.214-0.341-0.312-0.341-0.312c-0.006,0.247-0.245,0.472-0.367,0.644c0,0-0.102-0.944-0.356-1.283c-0.197-0.261-0.74-0.609-0.736-0.608c0.004,0.002-0.617,0.034-0.934,0.155c-0.411,0.159-1.045,0.903-1.045,0.903c-0.003-0.206-0.073-0.515,0.065-0.726c0,0-0.202-0.004-0.468,0.092c-0.26,0.093-0.581,0.284-0.765,0.432c-0.369,0.295-0.662,0.685-0.662,0.685c-0.017-0.373-0.153-0.588-1.051-1.045c0,0-0.563,0.476-0.737,0.924c-0.116,0.298-0.206,0.644-0.091,0.943c0.123,0.315,0.576,0.846,0.576,0.846c0.054-0.056,0.317,0.279-0.283,1.07c-0.162,0.213-0.524,0.657-0.821,0.853c-0.442,0.292-0.808,0.306-0.808,0.306c0.223,0.54,0.284,0.76,1.134,0.864c-1.937,1.291-2.157,3.351-0.67,5.105c0.097-0.211,0.429-0.689,0.625-0.873c-0.021-0.015,0.026,1.014,0.578,1.538c0.179,0.17,0.266,1.117,0.526,1.414c0.237,0.272,0.569,0.567,0.569,0.567s0.258-0.75,0.636-0.867c0.381-0.118,1.092-0.307,1.327-0.376c0.472-0.138,1.313-1.072,1.313-1.072l-0.148,1.143C217.926,80.294,218.508,78.688,217.855,76.519L217.855,76.519z" />
    <path fill="#504416" d="M212.914,73.603c0.111,0.677-0.238,2.017-0.514,2.383l1.657,0.617l1.635,0.175c-0.133-0.622,0.522-1.837,0.848-2.25l-1.202,0.024l-0.537-0.498l-0.982,0.202L212.914,73.603L212.914,73.603z" />
    <path fill="#FFFFFF" d="M213.241,73.988c-0.217,0.728-0.092,0.862-0.051,1.15l0.478-0.95L213.241,73.988L213.241,73.988z M215.561,74.689l-0.135,1.042c0.198-0.224,0.38-0.278,0.61-1.002L215.561,74.689L215.561,74.689z M213.191,75.422c-0.156,0.178-0.304,0.248-0.472,0.63l0.366,0.189L213.191,75.422z M215.275,75.975l-0.362,0.721l0.405,0.044C215.392,76.333,215.308,76.202,215.275,75.975L215.275,75.975z M213.401,70.937c-0.311-0.016-0.529,0.089-0.599,0.318c-0.094,0.305,0.137,0.634,0.624,0.763c0.487,0.128,0.962-0.102,1.055-0.407c0.094-0.305-0.253-0.488-0.74-0.617C213.619,70.962,213.505,70.943,213.401,70.937L213.401,70.937z M216.814,71.855c-0.243-0.009-0.421,0.057-0.48,0.247c-0.094,0.305,0.178,0.733,0.665,0.862c0.487,0.128,0.87-0.037,0.964-0.343c0.094-0.305-0.162-0.552-0.649-0.682C217.131,71.891,216.961,71.86,216.814,71.855L216.814,71.855z" />
    <path fill="#D1B948" d="M213.405,70.861c-0.113-0.005-0.217,0.004-0.309,0.028c-0.184,0.049-0.318,0.169-0.371,0.345c-0.054,0.176-0.011,0.359,0.108,0.511c0.12,0.152,0.314,0.28,0.572,0.349c0.525,0.14,1.04-0.103,1.15-0.463c0.054-0.18-0.027-0.34-0.179-0.451c0,0-0.284-0.066-0.635-0.185C213.614,70.961,213.518,70.865,213.405,70.861L213.405,70.861z M213.399,71.012c0.097,0.005,0.205,0.024,0.321,0.054c0.239,0.063,0.434,0.147,0.553,0.235c0.12,0.089,0.162,0.164,0.123,0.289c-0.077,0.25-0.499,0.479-0.949,0.359c-0.229-0.06-0.391-0.166-0.485-0.286c-0.094-0.121-0.123-0.256-0.084-0.386c0.039-0.13,0.126-0.208,0.266-0.245c0.07-0.019,0.155-0.025,0.252-0.021L213.399,71.012z M216.817,71.782c-0.051-0.002-0.102,0.001-0.15,0.006c-0.192,0.021-0.353,0.116-0.409,0.295c-0.111,0.36,0.189,0.818,0.714,0.958c0.258,0.068,0.495,0.056,0.684-0.016c0.189-0.071,0.329-0.206,0.382-0.382c0.054-0.176,0.008-0.343-0.12-0.476c-0.128-0.131-0.075-0.12-0.327-0.187C217.453,72.029,216.974,71.936,216.817,71.782L216.817,71.782z M216.809,71.936c0.135,0.003,0.3,0.028,0.479,0.076c0.234,0.062,0.408,0.152,0.506,0.252c0.097,0.1,0.126,0.208,0.087,0.338s-0.142,0.231-0.29,0.288c-0.148,0.056-0.346,0.066-0.575,0.005c-0.449-0.119-0.679-0.52-0.601-0.77c0.039-0.125,0.116-0.169,0.269-0.185C216.722,71.936,216.765,71.935,216.809,71.936L216.809,71.936z" />
    <path fill="#806600" d="M212.399,75.808l-0.07,0.159c-0.238,0.536-0.185,1.03,0.044,1.411c0.229,0.381,0.627,0.642,1.069,0.766c0.443,0.124,0.932,0.109,1.355-0.093c0.423-0.204,0.762-0.605,0.896-1.191l0.041-0.166l-0.188-0.011c-0.912-0.059-1.85-0.211-2.992-0.793L212.399,75.808L212.399,75.808L212.399,75.808z M212.507,76.053c1.007,0.478,2.213,0.713,3.031,0.781c-0.137,0.407-0.409,0.893-0.705,1.036c-0.337,0.163-0.988,0.205-1.359,0.102c-0.369-0.103-0.849-0.53-1.03-0.833C212.283,76.871,212.376,76.444,212.507,76.053L212.507,76.053L212.507,76.053z" />
    <path fill="#377BC8" stroke="#2C5AA0" stroke-width="0.094" d="M213.897,74.262c-0.429,1.315-0.801,2.801-0.511,4.17c1.025-1.02,1.549-2.452,1.932-3.78c0.002-0.054-0.282-0.172-0.318-0.214c-0.089-0.105-0.24-0.35-0.24-0.35s-0.286,0.168-0.448,0.204C214.174,74.322,213.897,74.262,213.897,74.262L213.897,74.262z" />
    <path fill="#FFD700" d="M216.481,68.244c0.004,0.002-0.617,0.034-0.934,0.155c-0.411,0.159-1.045,0.903-1.045,0.903c-0.003-0.206-0.073-0.515,0.065-0.726c0,0-0.202-0.004-0.468,0.092c-0.26,0.093-0.581,0.284-0.765,0.431c-0.369,0.295-0.662,0.685-0.662,0.685c0.325-0.011,1.048-0.616,1.327-0.557c0.237,0.049,0.073,0.639,0.301,0.666c0.312,0.037,0.59-0.417,0.979-0.734c0.344-0.282,0.823-0.496,1.052-0.426c0.231,0.069,0.516,0.488,0.638,0.896c0.143,0.482,0.25,1.002,0.489,1.111c0.237,0.108,0.443-0.491,0.684-0.415c0.287,0.089,0.42,1,0.693,1.134c0,0-0.021-0.475-0.16-0.908c-0.07-0.216-0.23-0.538-0.394-0.746c-0.169-0.214-0.341-0.311-0.341-0.311c-0.006,0.247-0.245,0.472-0.366,0.644c0,0-0.102-0.944-0.356-1.283C217.02,68.592,216.477,68.244,216.481,68.244L216.481,68.244z M212.348,71.614c-0.353,0.556,0.091,1.091,0.805,1.21l-0.277,0.654l0.406,0.738l0.74,0.239l0.7-0.256l0.465,0.586l0.649,0.137l0.835-0.466l0.334-0.525l0.522-0.03l0.446-0.198l0.159-0.516c-0.414,0.276-0.824,0.546-1.664,0.221c-0.024,0.413-0.133,0.669-0.287,0.816c-0.184,0.175-0.432,0.192-0.679,0.133c-0.307-0.075-0.569-0.397-0.692-0.568c-0.304,0.169-0.563,0.297-0.751,0.24c-0.392-0.119-0.613-0.336-0.677-0.586c-0.068-0.265,0.039-0.568,0.301-0.83c-1.556-0.382-0.998-0.766-1.334-0.995L212.348,71.614L212.348,71.614z M211.545,71.801c-0.162,0.213-0.953,1.387-1.25,1.583c-0.442,0.292-0.808,0.306-0.808,0.306c0.223,0.54,0.284,0.76,1.134,0.865c-1.938,1.291-2.157,3.351-0.67,5.105c0.097-0.211,0.429-0.689,0.625-0.873c-0.021-0.015,0.026,1.014,0.579,1.538c0.179,0.17,0.267,1.116,0.526,1.414c0.237,0.272,0.569,0.567,0.569,0.567s0.258-0.75,0.636-0.867c0.381-0.118,1.091-0.307,1.327-0.376c0.472-0.138,1.313-1.073,1.313-1.073l-0.147,1.143c2.549-0.839,3.131-2.446,2.478-4.615c0.627,0.362,1.315-0.112,1.457-0.161c0,0-0.3-0.195-0.503-0.662c-0.137-0.314-0.174-0.869-0.196-1.13l-0.06-0.711c0,0-0.288,0.799-0.356,1.021c-0.068,0.222,0.024,1.013,0.024,1.013c-0.414-0.137-0.83-0.262-1.196-0.556c0,0,0.438,1.604,0.485,2.369c0.026,0.413-0.126,1.146-0.298,1.529c-0.182,0.405-1.067,1.025-1.067,1.025s0.213-1.027,0.208-1.379c-0.006-0.501-0.22-1.772-0.22-1.772s-0.306,1.303-0.549,1.691c-0.276,0.442-0.784,1.22-0.784,1.22c0.142-1.246,0.072-1.317-0.102-1.788c0,0-0.318,1.549-0.908,2.216c-0.147,0.166-0.705,0.299-1.025,0.454c-0.354,0.172-0.463,0.356-0.463,0.356s-0.334-0.867-0.427-1.067c-0.206-0.443-0.614-0.909-0.753-1.375c-0.205-0.684,0.782-2.155,0.782-2.155c-0.366,0.006-0.731,0.405-1.126,0.844c-0.322,0.359-0.69,0.738-0.867,1.011c0,0-0.316-1.069-0.311-1.385c0.008-0.45,0.189-0.899,0.438-1.285c0.404-0.625,2.178-1.91,2.178-1.91c-0.489,0.122-0.93,0.283-1.856,0.034c0,0,0.733-0.798,0.853-0.985C211.583,72.406,211.445,72.188,211.545,71.801L211.545,71.801z M214.851,72.458c-0.367-0.006-0.829,0.04-0.829,0.04l0.05,0.295l0.334,0.121l0.451,0.624l1.149-0.286l0.153-0.244c0,0-0.648-0.447-0.991-0.52c-0.08-0.018-0.192-0.025-0.315-0.027L214.851,72.458z" />
    <path fill="none" stroke="#806600" stroke-width="0.094" d="M217.855,76.519c0.627,0.362,1.315-0.112,1.457-0.161c0,0-0.3-0.195-0.503-0.662c-0.137-0.314-0.184-0.869-0.196-1.13c-0.046-0.966,0.369-1.117,0.382-1.043c0,0,0.69-0.22,0.975-0.424c0.271-0.194,0.396-0.53,0.471-0.84c0.113-0.465-0.085-1.147-0.085-1.147c-1.002-0.054-1.257,0.069-1.491,0.354c0,0-0.021-0.475-0.16-0.908c-0.07-0.216-0.23-0.538-0.394-0.746c-0.169-0.214-0.341-0.312-0.341-0.312c-0.006,0.247-0.245,0.472-0.367,0.644c-0.113-0.872-0.322-1.369-1.092-1.891c-0.895,0.019-1.411,0.424-1.979,1.057c-0.003-0.206-0.073-0.515,0.065-0.726c0,0-0.202-0.004-0.468,0.092c-0.26,0.093-0.581,0.284-0.765,0.432c-0.369,0.295-0.662,0.685-0.662,0.685c-0.017-0.373-0.153-0.588-1.051-1.045c0,0-0.563,0.476-0.737,0.924c-0.116,0.298-0.206,0.644-0.091,0.943c0.123,0.315,0.576,0.846,0.576,0.846c0.054-0.056,0.317,0.279-0.283,1.07c-0.162,0.213-0.524,0.657-0.821,0.853c-0.442,0.292-0.808,0.306-0.808,0.306c0.223,0.54,0.284,0.76,1.134,0.864c-1.938,1.291-2.157,3.351-0.67,5.105c0.097-0.211,0.429-0.689,0.625-0.873c-0.021-0.015,0.026,1.014,0.578,1.538c0.179,0.17,0.267,1.117,0.526,1.414c0.237,0.272,0.569,0.567,0.569,0.567s0.258-0.75,0.636-0.867c0.381-0.118,1.092-0.307,1.327-0.376c0.472-0.138,1.313-1.072,1.313-1.072l-0.148,1.143C217.926,80.293,218.508,78.687,217.855,76.519L217.855,76.519z" />
    <path fill="#806600" d="M211.651,69.394c0,0-0.408,0.586-0.348,0.968c0.048,0.303,0.61,0.986,0.61,0.986s0.346-0.991,0.292-1.36C212.164,69.717,211.651,69.395,211.651,69.394z M213.032,70.659c-0.482,0.028-0.841,0.582-0.082,0.199c0.31-0.037,0.581,0.291,0.961,0.373c0.782,0.235,1.514-0.44,1.046,0.418c-0.233,0.14-0.834,0.443-0.964,0.766c-0.083,0.277-0.021,0.325-0.023,0.463c0.395,0.094,0.563,0.25,0.643,0.549c0.015,0.066,0.107,0.11,0.155,0.149c0.115,0.073,0.24,0.03,0.366,0.044c0.25-0.204,0.395-0.315,0.808-0.216c0.119,0.033,0.096,0.03,0.167-0.057c0,0,0.135-0.141,0.177-0.325c-0.043-0.691-0.552-1.052-0.256-1.633c0.176,0.127,0.569,0.556,0.998,0.668c0.369,0.115,0.792-0.027,1.027,0.153l0.305,0.358c0.065-0.21-0.012-0.343-0.102-0.477c-0.235-0.278-0.863-0.119-1.14-0.215c-0.667-0.221-0.886-0.591-1.098-0.727c-0.139,0.224-0.252,0.231-0.272,0.826c0.045,0.289,0.336,0.784,0.321,1.097c-0.008,0.035-0.044,0.084-0.075,0.133c-0.424-0.088-0.795,0.211-1.089,0.277c-0.145-0.252-0.405-0.671-0.782-0.814c0.001-0.057-0.002-0.116,0.011-0.15c0.158-0.277,0.696-0.524,0.911-0.73c0.322-0.52,0.231-0.578,0.236-0.835c-0.26,0.009-0.608,0.22-1.296,0.082C213.739,70.981,213.361,70.653,213.032,70.659z M212.37,71.473c-0.488,0.598-0.211,1.245,0.541,1.442c-0.524,0.896,0.705,2.109,1.724,1.469c0.433,0.991,2.229,0.67,2.297-0.373c0.776,0.224,1.319-0.286,1.288-0.976c-0.24,0.112-0.026,0.443-0.551,0.745c-0.229,0.181-0.743,0.073-0.982-0.185c-0.001,0.213,0.047,0.303-0.044,0.56c-0.1,0.579-0.921,0.856-1.458,0.521c-0.308-0.252-0.326-0.465-0.396-0.729c-0.828,1.018-2.278-0.147-1.586-1.056l0.138-0.166c-0.358,0.076-0.818-0.14-0.924-0.367C212.07,72,212.386,71.742,212.37,71.473z M219.934,71.59c0,0-0.62,0.024-0.808,0.234c-0.256,0.286-0.525,1.298-0.525,1.298s0.866-0.305,1.078-0.538C219.948,72.288,219.934,71.59,219.934,71.59z" />
    <path fill="#2B2200" d="M213.671,71.143c-0.155-0.001-0.291,0.094-0.334,0.232c-0.052,0.169,0.053,0.347,0.237,0.395l0,0c0.182,0.048,0.373-0.05,0.425-0.219s-0.053-0.347-0.236-0.395C213.733,71.147,213.702,71.143,213.671,71.143L213.671,71.143z M217.102,72.055c-0.151,0.003-0.282,0.097-0.324,0.231c-0.052,0.169,0.053,0.347,0.236,0.395c0,0,0,0,0.001,0c0.182,0.048,0.373-0.05,0.425-0.22l0,0c0.052-0.169-0.053-0.347-0.236-0.395C217.171,72.058,217.136,72.054,217.102,72.055L217.102,72.055z" />
    <path fill="#377BC8" stroke="#2C5AA0" stroke-width="0.094" d="M205.113,68.82c0.472,0.544,0.526,0.794,0.418,1.429c0.224,0.216,0.438,0.269,0.624,0.216c0.373-0.106,0.547-0.382,0.46-0.764C206.338,69.54,206.293,69.054,205.113,68.82z M202.289,69.108c-0.195-0.007-0.432,0.012-0.727,0.073c0.672,0.314,0.833,0.52,1.018,1.14c0.3,0.111,0.518,0.076,0.664-0.043c0.292-0.24,0.328-0.558,0.079-0.872C203.08,69.376,202.875,69.128,202.289,69.108L202.289,69.108z M201.453,71.571c-0.313,0.089-0.737-0.198-1.701,0.478c0.752,0.025,0.99,0.15,1.437,0.642c0.323-0.015,0.506-0.131,0.585-0.296C201.933,72.063,201.821,71.76,201.453,71.571z M204.307,81.927c-0.252,0.109-0.62-0.15-1.372,0.586c0.621-0.024,0.825,0.085,1.224,0.547c0.265-0.037,0.408-0.164,0.463-0.334C204.732,82.388,204.622,82.093,204.307,81.927L204.307,81.927z M221.973,82.871c-0.305,0.109-0.751-0.147-1.659,0.592c0.752-0.027,1,0.082,1.484,0.543c0.321-0.038,0.494-0.166,0.559-0.335C222.489,83.33,222.355,83.035,221.973,82.871L221.973,82.871z M201.951,85.113c0.562-0.298,0.788-0.288,1.317-0.041c0.231-0.15,0.317-0.332,0.308-0.512c-0.019-0.362-0.224-0.584-0.571-0.595C203.004,83.965,202.383,84.103,201.951,85.113z M222.345,85.532c-0.22,0.224-0.743,0.18-1.198,1.218c0.659-0.336,0.933-0.341,1.588-0.131c0.269-0.166,0.362-0.353,0.338-0.532C223.028,85.727,222.766,85.52,222.345,85.532L222.345,85.532z M204.37,86.384c-0.102-0.005-0.214,0.025-0.331,0.092c-0.079,0.29-0.486,0.457-0.433,1.577c0.365-0.566,0.568-0.679,1.137-0.748c0.138-0.257,0.137-0.463,0.051-0.616C204.687,86.498,204.542,86.393,204.37,86.384L204.37,86.384z M242.797,86.505c-0.073,0.003-0.15,0.022-0.231,0.057c-0.106,0.279-0.527,0.395-0.583,1.514c0.418-0.517,0.63-0.605,1.202-0.604c0.162-0.239,0.18-0.443,0.111-0.605C243.189,86.622,243.015,86.495,242.797,86.505L242.797,86.505z M224.987,87.262c-0.124,0.008-0.254,0.05-0.387,0.13c-0.062,0.298-0.534,0.512-0.342,1.62c0.376-0.605,0.607-0.742,1.284-0.879c0.137-0.272,0.111-0.477-0.008-0.618C225.383,87.336,225.194,87.25,224.987,87.262L224.987,87.262z M247.292,87.338c-0.208-0.018-0.391,0.105-0.518,0.36c0.079,0.291-0.177,0.684,0.422,1.58c0.024-0.698,0.135-0.92,0.573-1.333c-0.013-0.299-0.116-0.469-0.263-0.543C247.433,87.366,247.362,87.344,247.292,87.338L247.292,87.338z M244.833,87.663c-0.133,0.011-0.264,0.085-0.385,0.226c0.008,0.304-0.33,0.608,0.041,1.649c0.185-0.667,0.344-0.848,0.863-1.119c0.056-0.293-0.003-0.488-0.128-0.601S244.965,87.651,244.833,87.663L244.833,87.663z" />
  </g>
  <g>
    <path fill="#FFD700" stroke="#806600" stroke-width="0.0688" d="M215.498,100.908c0,0-0.714-0.006-0.999-0.185c-0.311-0.195-0.643-0.886-0.643-0.886s-0.787,0.137-1.148,0.053c-0.378-0.089-0.919-0.552-0.919-0.552c0.361-0.057,0.631-0.116,0.981-0.42c0,0-0.696-0.04-1.093-0.204c-0.345-0.143-0.909-0.616-0.909-0.616c0.322-0.086,0.67-0.075,0.924-0.413c0,0-0.682,0.007-0.991-0.114c-0.308-0.121-0.798-0.587-0.798-0.587c0.375-0.035,0.731-0.11,0.972-0.435c0,0-0.691,0.025-0.984-0.098c-0.404-0.17-1.022-0.739-1.022-0.739c0.389-0.031,0.775-0.067,1.069-0.305l-0.218-0.477c-0.264-0.576-0.817-0.372-1.184-0.531c-0.36-0.156-0.563-0.58-0.582-0.818c-0.035-0.42,0.165-1.061,1.047-0.927c-0.439-0.718,0.018-1.234,0.485-1.44c0.448-0.198,0.844-0.144,1.149,0.642c0,0,0.409-0.356,0.631-0.408c0.308-0.073,0.656,0.036,0.766,0.347c0.045,0.127,0.062,0.395-0.014,0.554c-0.12,0.252-0.383,0.424-0.469,0.793c-0.098,0.418,0.262,1.146,0.262,1.146s1.696,1.443,2.476,2.233c0.415,0.421,1.169,1.33,1.169,1.33l0.042-0.026h1.681l0.15,3.046L215.498,100.908L215.498,100.908z M223.816,102.307c-0.296-0.093-0.658-0.511-0.972-0.509c-0.331,0.002-0.564,0.201-0.73,0.467c-0.079,0.127,0.045,0.603,0.169,0.695l0.57,0.421c0,0-0.356,0.44-0.384,0.688c-0.023,0.215,0.078,0.389,0.221,0.558c0.188,0.221,0.234,0.308,0.532,0.354c0.179,0.027,0.6-0.056,0.6-0.056s-0.01,0.353,0.094,0.517c0.189,0.295,0.51,0.556,0.876,0.514c0.286-0.032,0.379-0.079,0.53-0.308c0.12-0.182,0.096-0.645,0.291-0.836l0.791-0.777c0.342,0.222,0.333,0.553,0.29,0.895c0,0,0.508-0.345,0.659-0.592c0.157-0.257,0.22-0.866,0.22-0.866c0.322,0.311,0.428,0.59,0.36,0.962c0,0,0.518-0.347,0.684-0.592c0.188-0.276,0.349-0.872,0.349-0.872c0.236,0.247,0.285,0.596,0.195,1.024c0,0,0.578-0.416,0.733-0.751c0.122-0.265,0.195-0.729,0.195-0.729c0.703,0.055,1.156-0.273,1.187-0.614c0.024-0.263-0.254-0.623-0.82-0.727c0,0-0.209-0.335-0.288-0.582c-0.054-0.17-0.058-0.364,0-0.533c0.117-0.338,0.389-0.623,0.667-0.866c0.382-0.334,1.214-0.755,1.214-0.755l-0.243-1.31l-2.835-0.466l-3.133,0.83c0.571,0.282,1.85,1.243,1.746,1.608c-0.04,0.137-0.311,0.266-0.441,0.449c-0.096,0.134-0.023,0.35,0.072,0.488c0.132,0.195,0.447,0.239,0.548,0.422c0.091,0.165,0.133,0.311,0.024,0.466c-0.214,0.306-0.937,0.434-1.286,0.599c-0.638,0.301-1.718,0.956-1.718,0.956C224.448,102.53,224.126,102.405,223.816,102.307L223.816,102.307z" />
    <path fill="#FFD700" stroke="#806600" stroke-width="0.0688" d="M229.546,98.186c0,0-0.054,1.089-0.478,1.368c-0.182,0.12-0.438,0.169-0.637,0.086c-0.192-0.082-0.327-0.304-0.398-0.513c-0.045-0.134-0.12-0.47-0.12-0.47s-0.647-0.318-0.995-0.342c-0.511-0.035-1.512,0.299-1.512,0.299c0.171-0.57,0.63-1.037,1.114-1.496l1.672-0.128L229.546,98.186L229.546,98.186z" />
    <path fill="#FFD700" stroke="#806600" stroke-width="0.0688" d="M232.783,90.946c0.395-0.056,1.207-0.266,1.48-0.613c0.127-0.162,0.483-0.613,0.483-0.613c-0.076,1.019-0.477,1.679-1.329,2.126c-0.68,0.357-1.465,0.44-2.205,0.36c-0.466-0.05-1.329-0.36-1.329-0.36c0.473,0.66,0.233,1.126-0.363,1.442c0,0,0.089-0.632-0.091-0.721c-0.385-0.192-0.821,0.059-1.23,0.351c-0.302,0.217-0.76,0.318-1.069,0.313c-0.514-0.008-0.799-0.015-1.279-0.232c-0.29-0.131-0.793-0.631-1.006-0.582c-0.46,0.107-1.041,0.168-1.303,0.631c-0.091,0.161-0.08,0.414,0,0.583c0.179,0.38,0.581,0.579,0.937,0.68c1.056,0.302,1.919,0.3,2.961,0.108c1.075-0.198,2.329-0.593,3.404-0.832c1.065-0.237,2.438-0.684,3.245-0.9c1.427-0.382,2.066-0.434,3.134-0.414c1.869,0.036,2.481,1.22,2.424,2.513c-0.058,1.328-1.185,1.929-2.149,2.301c-1.696,0.655-4.024,0.282-5.487,0.237c0,0,0.491,0.49,0.713,0.714c0.261,0.263,0.391,0.811,0.713,0.946c0.442,0.184,1.117-0.181,1.585-0.213c0.653-0.045,1.763,0.047,1.763,0.047c0.17-0.206,0.28-0.35,0.456-0.411c0.127-0.045,0.326-0.047,0.427-0.001c0.201,0.092,0.337,0.374,0.252,0.899c0,0,0.14,0.233,0.352,0.286c0.225,0.057,0.489,0.007,0.617,0.055c0.211,0.08,0.554,0.33,0.554,0.33s-0.363,0.137-0.514,0.247c-0.103,0.075-0.241,0.324-0.241,0.324s0.498,0.01,0.705,0.12c0.223,0.118,0.428,0.451,0.428,0.451s-0.3-0.025-0.443,0.082c-0.109,0.082-0.289,0.308-0.289,0.308s0.582-0.056,0.782,0.15c0.176,0.183,0.378,0.511,0.378,0.511s-0.314-0.008-0.463,0.044c-0.096,0.034-0.268,0.167-0.268,0.167s0.403,0.25,0.579,0.541c0.141,0.232,0.176,0.752,0.176,0.752s-0.237-0.212-0.383-0.29c-0.092-0.049-0.298-0.041-0.298-0.041l0.094,1.066c0.023,0.263,0.331,0.547,0.386,0.749c0.069,0.256,0.052,0.352-0.072,0.576c-0.16,0.287-0.488,0.346-0.772,0.288c-0.157-0.032-0.378-0.268-0.378-0.268s-0.16,0.354-0.269,0.463c-0.181,0.182-0.269,0.232-0.505,0.221c-0.182-0.008-0.334-0.122-0.459-0.279c-0.144-0.18-0.245-0.719-0.245-0.719l-0.558,0.131c-0.121,0.029-0.488-0.192-0.529-0.331c-0.086-0.292-0.094-0.586,0.072-0.822c0.158-0.224,0.595-0.236,0.818-0.359c0.285-0.158,0.559-0.617,0.559-0.617s-0.932-0.856-1.335-1.388c-0.221-0.292-0.603-0.976-0.603-0.976s-1.188,0.427-1.636,0.514c-1.105,0.214-2.282,0-2.282,0c-1.689,0-2.813-3.096-4.349-3.803c-0.469-0.216-0.689-0.182-1.18-0.051c-1.78,0.474-3.68,3.165-5.444,3.72c-0.724,0.227-2.239,0.308-2.239,0.308s-0.248,0.637-0.482,0.82c-0.255,0.198-0.896,0.211-0.896,0.211s-0.164,0.763-0.352,1.052c-0.196,0.303-0.735,0.596-0.735,0.596c0.08-0.348,0.127-0.614,0.014-1.053c0,0-0.268,0.608-0.528,0.896c-0.227,0.25-0.78,0.561-0.78,0.561c0.044-0.324,0.172-0.632,0-0.999c0,0-0.227,0.614-0.426,0.842c-0.198,0.227-0.721,0.473-0.721,0.473c0.101-0.35,0.166-0.701,0-1.053c0,0-0.217,0.63-0.411,0.842c-0.268,0.292-0.913,0.612-0.913,0.612c0.109-0.362,0.213-0.724,0.133-1.085l-0.438-0.001c-0.529-0.002-0.563,0.579-0.809,0.843c-0.242,0.26-0.635,0.265-0.824,0.184c-0.332-0.143-0.627-0.643-0.224-1.379c-0.698,0.097-1.062-0.47-1.059-0.974c0.002-0.485,0.137-0.912,0.841-0.86c0,0-0.091-0.42-0.056-0.64c0.05-0.308,0.252-0.574,0.527-0.544c0.112,0.012,0.322,0.108,0.418,0.242c0.151,0.211,0.193,0.519,0.445,0.749c0.285,0.26,0.963,0.239,0.963,0.239s1.318-0.925,2.188-1.298c0.463-0.198,1.776-0.498,1.776-0.498l0.04-4.184c0.789,0.063,0.45,0.073,1.117,0.046c0.959-0.037,3.478,0.467,3.478,0.467l1.794-0.16c0,0,2.992-0.585,4.416-0.769c0.717-0.092,1.442-0.159,2.162-0.11c1.085,0.073,2.017,0.422,3.036,0.494c0.857,0.06,1.443,0.174,2.3,0.11c1.224-0.091,3.411,0.016,4.106-1.419c0.18-0.372,0.089-0.882-0.182-1.169c-0.355-0.379-0.608-0.521-1.082-0.391c-0.25,0.069-0.568,0.296-0.598,0.576c-0.018,0.152,0.005,0.285,0.111,0.465c0.184,0.308,0.391,0.457,0.391,0.457s-0.617,0.036-0.859-0.194c-0.254-0.243-0.397-0.958-0.397-0.958c-0.12,0.197-0.208,0.412-0.188,0.693c0.018,0.241-0.001,0.392,0.226,0.759c0,0-0.562-0.047-0.83-0.414c-0.181-0.247-0.328-0.991-0.328-0.991c-0.16,0.188-0.256,0.492-0.263,0.716c-0.01,0.324,0.108,0.466,0.167,0.805c0,0-0.553-0.194-0.772-0.553c-0.17-0.279-0.26-1.011-0.26-1.011c-0.637,0.189-1.852,0.457-3.176,0.796c-0.933,0.239-2.357,0.606-3.363,0.757c-1.729,0.26-2.987,0.125-4.05-0.413c-0.553-0.28-0.802-0.55-0.945-1.185c-0.082-0.361,0.038-0.872,0.313-1.27c0.382-0.555,1.047-0.97,1.79-1.19c0,0,1.966-0.63,3.112-0.757c1.836-0.204,2.583,0.102,3.35,0.218c0.498,0.075,1.035-0.047,1.192-0.272c0.132-0.189,0.351-0.391,0.056-0.845c0,0,0.373,0.009,0.621,0.556c0.101,0.224-0.023,0.74-0.023,0.74l0,0L232.783,90.946z" />
    <path fill="#FFD700" d="M219.487,96.907c0.427,0.285,0.895-0.089,0.991-0.127c0,0-0.205-0.153-0.342-0.521c-0.093-0.247-0.125-0.684-0.134-0.888c-0.031-0.76,0.25-0.879,0.26-0.821c0,0,0.469-0.172,0.663-0.334c0.185-0.153,0.269-0.417,0.321-0.661c0.076-0.366-0.058-0.903-0.058-0.903c-0.682-0.043-0.855,0.055-1.014,0.279c0,0-0.014-0.373-0.109-0.714c-0.047-0.17-0.156-0.424-0.268-0.587c-0.115-0.169-0.232-0.245-0.232-0.245c-0.005,0.194-0.166,0.371-0.25,0.507c0,0-0.069-0.743-0.243-1.01c-0.134-0.205-0.503-0.479-0.501-0.479c0.003,0.001-0.42,0.026-0.636,0.122c-0.28,0.124-0.711,0.71-0.711,0.71c-0.002-0.162-0.05-0.405,0.044-0.571c0,0-0.137-0.003-0.318,0.073c-0.176,0.073-0.395,0.224-0.521,0.34c-0.251,0.233-0.45,0.539-0.45,0.539c-0.011-0.294-0.105-0.463-0.715-0.822c0,0-0.382,0.375-0.501,0.727c-0.079,0.235-0.14,0.507-0.062,0.742c0.084,0.248,0.392,0.665,0.392,0.665c0.037-0.044,0.215,0.22-0.193,0.842c-0.11,0.168-0.356,0.517-0.558,0.672c-0.301,0.23-0.55,0.24-0.55,0.24c0.152,0.424,0.193,0.598,0.772,0.68c-1.318,1.016-1.467,2.636-0.456,4.017c0.066-0.166,0.292-0.542,0.425-0.687c-0.014-0.012,0.018,0.798,0.393,1.211c0.122,0.134,0.182,0.879,0.358,1.112c0.161,0.214,0.387,0.446,0.387,0.446s0.176-0.591,0.433-0.682c0.259-0.092,0.743-0.241,0.902-0.295c0.321-0.108,0.893-0.844,0.893-0.844l-0.101,0.899c1.733-0.66,2.13-1.925,1.685-3.631L219.487,96.907z" />
    <path fill="#504416" d="M216.126,94.613c0.076,0.533-0.162,1.587-0.349,1.875l1.127,0.485l1.112,0.137c-0.091-0.489,0.355-1.445,0.577-1.77l-0.817,0.018l-0.365-0.392l-0.668,0.16L216.126,94.613L216.126,94.613z" />
    <path fill="#FFFFFF" d="M216.348,94.915c-0.147,0.572-0.063,0.679-0.035,0.904l0.325-0.748L216.348,94.915L216.348,94.915z M217.926,95.467l-0.092,0.82c0.134-0.176,0.259-0.218,0.415-0.788L217.926,95.467L217.926,95.467z M216.315,96.044c-0.107,0.14-0.207,0.195-0.321,0.495l0.249,0.149L216.315,96.044z M217.732,96.478l-0.247,0.566l0.276,0.034C217.812,96.761,217.754,96.658,217.732,96.478L217.732,96.478z M216.458,92.516c-0.211-0.012-0.36,0.069-0.408,0.25c-0.064,0.24,0.093,0.499,0.424,0.601c0.331,0.101,0.654-0.08,0.717-0.32c0.064-0.24-0.173-0.384-0.504-0.485C216.606,92.535,216.528,92.52,216.458,92.516L216.458,92.516z M218.779,93.237c-0.166-0.007-0.287,0.045-0.327,0.195c-0.064,0.24,0.121,0.577,0.453,0.679c0.331,0.101,0.592-0.029,0.656-0.269c0.064-0.24-0.11-0.434-0.441-0.536C218.994,93.267,218.879,93.241,218.779,93.237L218.779,93.237z" />
    <path fill="#D1B948" d="M216.46,92.455c-0.076-0.004-0.147,0.003-0.21,0.022c-0.125,0.039-0.216,0.134-0.253,0.271c-0.037,0.138-0.008,0.282,0.073,0.402c0.082,0.12,0.214,0.221,0.389,0.275c0.357,0.11,0.707-0.081,0.782-0.365c0.037-0.142-0.018-0.268-0.122-0.355c0,0-0.193-0.051-0.432-0.146C216.602,92.534,216.536,92.459,216.46,92.455L216.46,92.455z M216.456,92.574c0.066,0.004,0.139,0.018,0.219,0.043c0.163,0.05,0.295,0.116,0.376,0.185c0.082,0.069,0.11,0.129,0.084,0.227c-0.052,0.197-0.34,0.376-0.645,0.282c-0.156-0.047-0.266-0.131-0.33-0.225c-0.064-0.095-0.084-0.201-0.056-0.304c0.027-0.102,0.086-0.163,0.181-0.192C216.333,92.575,216.391,92.57,216.456,92.574L216.456,92.574z M218.781,93.18c-0.035-0.001-0.069,0.001-0.102,0.005c-0.131,0.016-0.24,0.091-0.279,0.232c-0.076,0.283,0.128,0.644,0.485,0.753c0.176,0.053,0.337,0.044,0.465-0.012c0.128-0.056,0.224-0.162,0.26-0.3c0.037-0.138,0.006-0.27-0.082-0.374c-0.087-0.104-0.051-0.094-0.223-0.147C219.214,93.374,218.887,93.3,218.781,93.18L218.781,93.18z M218.776,93.301c0.092,0.002,0.204,0.022,0.326,0.06c0.159,0.049,0.277,0.12,0.344,0.198c0.066,0.079,0.086,0.164,0.06,0.266s-0.096,0.182-0.197,0.226c-0.101,0.044-0.235,0.053-0.391,0.005c-0.305-0.093-0.461-0.409-0.409-0.606c0.027-0.098,0.079-0.133,0.183-0.145C218.715,93.301,218.745,93.3,218.776,93.301L218.776,93.301z" />
    <path fill="#806600" d="M215.776,96.347l-0.047,0.125c-0.163,0.421-0.126,0.811,0.031,1.11c0.156,0.3,0.427,0.505,0.727,0.603c0.301,0.097,0.634,0.086,0.921-0.073c0.288-0.16,0.518-0.476,0.61-0.937l0.028-0.131l-0.127-0.008c-0.621-0.046-1.259-0.166-2.035-0.624l-0.105-0.063l0,0L215.776,96.347z M215.849,96.539c0.685,0.376,1.506,0.561,2.062,0.614c-0.093,0.32-0.279,0.703-0.479,0.815c-0.229,0.127-0.672,0.162-0.924,0.08c-0.251-0.081-0.577-0.418-0.701-0.655C215.698,97.184,215.76,96.848,215.849,96.539L215.849,96.539L215.849,96.539z" />
    <path fill="#377BC8" stroke="#2C5AA0" stroke-width="0.0688" d="M216.794,95.13c-0.292,1.034-0.545,2.204-0.348,3.281c0.697-0.803,1.053-1.93,1.314-2.974c0.002-0.043-0.192-0.135-0.216-0.169c-0.06-0.082-0.163-0.276-0.163-0.276s-0.195,0.132-0.305,0.16C216.983,95.178,216.794,95.13,216.794,95.13L216.794,95.13z" />
    <path fill="#FFD700" d="M218.551,90.397c0.003,0.001-0.42,0.026-0.635,0.122c-0.28,0.124-0.711,0.71-0.711,0.71c-0.002-0.162-0.05-0.405,0.044-0.572c0,0-0.137-0.003-0.318,0.073c-0.176,0.073-0.395,0.224-0.521,0.34c-0.251,0.233-0.45,0.539-0.45,0.539c0.221-0.008,0.713-0.485,0.903-0.438c0.161,0.039,0.05,0.503,0.205,0.524c0.212,0.029,0.401-0.328,0.666-0.578c0.234-0.221,0.559-0.39,0.715-0.335c0.156,0.055,0.351,0.384,0.434,0.704c0.098,0.379,0.17,0.788,0.332,0.874c0.161,0.085,0.301-0.386,0.466-0.327c0.195,0.069,0.285,0.787,0.472,0.892c0,0-0.014-0.373-0.109-0.714c-0.047-0.17-0.156-0.423-0.268-0.587c-0.115-0.169-0.232-0.245-0.232-0.245c-0.005,0.194-0.166,0.371-0.25,0.507c0,0-0.069-0.743-0.243-1.01C218.919,90.67,218.549,90.397,218.551,90.397L218.551,90.397z M215.741,93.048c-0.24,0.437,0.062,0.858,0.547,0.952l-0.189,0.514l0.276,0.581l0.503,0.188l0.475-0.202l0.316,0.461l0.441,0.107l0.568-0.367l0.227-0.413l0.355-0.024l0.303-0.156l0.108-0.406c-0.282,0.217-0.56,0.43-1.132,0.174c-0.016,0.325-0.091,0.527-0.195,0.642c-0.125,0.137-0.294,0.151-0.462,0.105c-0.209-0.059-0.388-0.312-0.47-0.447c-0.207,0.133-0.383,0.234-0.511,0.189c-0.267-0.093-0.417-0.264-0.46-0.461c-0.047-0.208,0.027-0.447,0.205-0.653C215.591,93.531,215.97,93.229,215.741,93.048L215.741,93.048z M215.195,93.196c-0.11,0.168-0.648,1.091-0.85,1.246c-0.301,0.23-0.55,0.24-0.55,0.24c0.152,0.424,0.193,0.598,0.772,0.68c-1.318,1.016-1.467,2.636-0.456,4.017c0.066-0.166,0.292-0.542,0.425-0.687c-0.014-0.012,0.018,0.798,0.393,1.211c0.122,0.134,0.182,0.878,0.358,1.112c0.161,0.214,0.387,0.446,0.387,0.446s0.176-0.591,0.433-0.682c0.259-0.092,0.743-0.241,0.902-0.295c0.321-0.108,0.893-0.844,0.893-0.844l-0.1,0.899c1.733-0.66,2.13-1.925,1.685-3.631c0.427,0.285,0.895-0.089,0.991-0.127c0,0-0.205-0.153-0.342-0.521c-0.093-0.247-0.118-0.684-0.134-0.888l-0.04-0.559c0,0-0.196,0.629-0.243,0.804s0.016,0.797,0.016,0.797c-0.282-0.107-0.565-0.206-0.814-0.437c0,0,0.298,1.262,0.331,1.864c0.018,0.325-0.086,0.902-0.202,1.203c-0.124,0.318-0.726,0.807-0.726,0.807s0.144-0.808,0.142-1.085c-0.004-0.394-0.15-1.394-0.15-1.394s-0.208,1.025-0.373,1.33c-0.189,0.347-0.534,0.96-0.534,0.96c0.096-0.98,0.049-1.037-0.069-1.407c0,0-0.216,1.219-0.617,1.743c-0.1,0.131-0.48,0.236-0.697,0.357c-0.241,0.135-0.315,0.28-0.315,0.28s-0.227-0.682-0.29-0.84c-0.14-0.349-0.418-0.715-0.513-1.082c-0.139-0.538,0.532-1.695,0.532-1.695c-0.249,0.005-0.498,0.318-0.766,0.664c-0.219,0.282-0.469,0.581-0.59,0.796c0,0-0.214-0.84-0.211-1.09c0.005-0.353,0.129-0.708,0.298-1.011c0.275-0.492,1.482-1.502,1.482-1.502c-0.332,0.096-0.633,0.223-1.262,0.026c0,0,0.498-0.628,0.58-0.775C215.22,93.671,215.127,93.499,215.195,93.196L215.195,93.196z M217.444,93.712c-0.25-0.005-0.564,0.031-0.564,0.031l0.034,0.232l0.227,0.095l0.307,0.491l0.782-0.225l0.105-0.192c0,0-0.441-0.352-0.675-0.409C217.604,93.72,217.527,93.714,217.444,93.712L217.444,93.712z" />
    <path fill="none" stroke="#806600" stroke-width="0.0688" d="M219.487,96.907c0.427,0.285,0.895-0.089,0.991-0.127c0,0-0.205-0.153-0.342-0.521c-0.093-0.247-0.125-0.684-0.134-0.888c-0.031-0.76,0.25-0.879,0.26-0.821c0,0,0.469-0.172,0.663-0.334c0.185-0.153,0.269-0.417,0.321-0.661c0.076-0.366-0.058-0.903-0.058-0.903c-0.682-0.043-0.855,0.055-1.014,0.279c0,0-0.014-0.373-0.109-0.714c-0.047-0.17-0.156-0.424-0.268-0.587c-0.115-0.169-0.232-0.245-0.232-0.245c-0.005,0.194-0.166,0.371-0.25,0.507c-0.076-0.685-0.219-1.077-0.743-1.488c-0.608,0.015-0.959,0.333-1.346,0.832c-0.002-0.162-0.05-0.405,0.044-0.571c0,0-0.137-0.003-0.318,0.073c-0.176,0.073-0.395,0.224-0.521,0.34c-0.251,0.233-0.45,0.539-0.45,0.539c-0.011-0.294-0.105-0.463-0.715-0.822c0,0-0.382,0.375-0.501,0.727c-0.079,0.235-0.14,0.507-0.062,0.742c0.084,0.248,0.392,0.665,0.392,0.665c0.037-0.044,0.215,0.22-0.193,0.842c-0.11,0.168-0.356,0.517-0.558,0.672c-0.301,0.23-0.55,0.24-0.55,0.24c0.152,0.424,0.193,0.598,0.772,0.68c-1.318,1.016-1.467,2.636-0.456,4.017c0.066-0.166,0.292-0.542,0.425-0.687c-0.014-0.012,0.018,0.798,0.393,1.211c0.122,0.134,0.182,0.879,0.358,1.112c0.161,0.214,0.387,0.446,0.387,0.446s0.176-0.591,0.433-0.682c0.259-0.092,0.743-0.241,0.902-0.295c0.321-0.108,0.893-0.844,0.893-0.844l-0.101,0.899C219.534,99.876,219.931,98.613,219.487,96.907L219.487,96.907z" />
    <path fill="#806600" d="M215.267,91.301c0,0-0.278,0.461-0.237,0.761c0.033,0.239,0.415,0.776,0.415,0.776s0.235-0.78,0.198-1.07C215.617,91.556,215.267,91.302,215.267,91.301z M216.207,92.297c-0.327,0.022-0.572,0.458-0.056,0.156c0.211-0.029,0.395,0.228,0.653,0.293c0.532,0.185,1.03-0.347,0.711,0.328c-0.159,0.11-0.568,0.349-0.656,0.603c-0.056,0.218-0.015,0.256-0.015,0.365c0.269,0.074,0.382,0.196,0.437,0.431c0.01,0.051,0.073,0.087,0.105,0.118c0.079,0.057,0.163,0.023,0.249,0.035c0.17-0.16,0.269-0.248,0.55-0.17c0.081,0.026,0.066,0.023,0.114-0.045c0,0,0.092-0.111,0.121-0.256c-0.029-0.543-0.376-0.827-0.174-1.285c0.119,0.1,0.387,0.437,0.679,0.525c0.251,0.091,0.539-0.022,0.699,0.121l0.207,0.282c0.044-0.165-0.008-0.27-0.069-0.376c-0.16-0.218-0.587-0.094-0.775-0.169c-0.453-0.174-0.603-0.465-0.746-0.572c-0.095,0.176-0.172,0.182-0.185,0.65c0.031,0.227,0.228,0.617,0.218,0.862c-0.005,0.027-0.031,0.066-0.051,0.105c-0.288-0.069-0.54,0.166-0.741,0.218c-0.099-0.198-0.275-0.527-0.531-0.64c0-0.045-0.002-0.091,0.008-0.118c0.108-0.218,0.474-0.412,0.619-0.574c0.219-0.409,0.157-0.455,0.16-0.657c-0.176,0.008-0.414,0.173-0.882,0.065C216.687,92.55,216.43,92.292,216.207,92.297z M215.756,92.937c-0.332,0.47-0.143,0.979,0.368,1.134c-0.356,0.704,0.479,1.659,1.173,1.156c0.294,0.779,1.516,0.527,1.562-0.294c0.528,0.176,0.897-0.225,0.875-0.768c-0.163,0.089-0.018,0.349-0.375,0.586c-0.156,0.143-0.505,0.056-0.668-0.146c0,0.167,0.032,0.238-0.03,0.441c-0.068,0.456-0.626,0.674-0.992,0.411c-0.209-0.198-0.221-0.366-0.269-0.574c-0.563,0.801-1.549-0.116-1.079-0.831l0.094-0.131c-0.243,0.06-0.556-0.111-0.629-0.289C215.552,93.351,215.767,93.148,215.756,92.937z M220.901,93.029c0,0-0.422,0.018-0.55,0.184c-0.174,0.225-0.357,1.02-0.357,1.02s0.588-0.24,0.733-0.424C220.911,93.578,220.901,93.029,220.901,93.029z" />
    <path fill="#2B2200" d="M216.641,92.677c-0.105-0.001-0.198,0.074-0.227,0.182c-0.035,0.134,0.037,0.272,0.161,0.311l0,0c0.124,0.038,0.253-0.039,0.289-0.173c0.035-0.134-0.037-0.272-0.16-0.311C216.683,92.68,216.662,92.677,216.641,92.677L216.641,92.677z M218.974,93.395c-0.102,0.002-0.192,0.076-0.22,0.182c-0.036,0.134,0.037,0.272,0.16,0.311l0,0c0.124,0.038,0.253-0.039,0.289-0.173l0,0c0.035-0.134-0.037-0.272-0.16-0.311C219.022,93.397,218.998,93.394,218.974,93.395L218.974,93.395z" />
    <path fill="#377BC8" stroke="#2C5AA0" stroke-width="0.0688" d="M210.819,90.85c0.321,0.428,0.358,0.624,0.285,1.124c0.152,0.17,0.298,0.211,0.424,0.17c0.254-0.083,0.372-0.3,0.313-0.601C211.653,91.416,211.622,91.034,210.819,90.85z M208.9,91.077c-0.133-0.005-0.294,0.01-0.495,0.057c0.457,0.247,0.566,0.409,0.692,0.897c0.204,0.087,0.353,0.06,0.452-0.034c0.199-0.189,0.224-0.439,0.053-0.687C209.437,91.287,209.298,91.092,208.9,91.077L208.9,91.077z M208.33,93.013c-0.213,0.069-0.501-0.156-1.157,0.376c0.511,0.02,0.673,0.118,0.978,0.505c0.219-0.012,0.344-0.104,0.398-0.233C208.656,93.401,208.582,93.163,208.33,93.013z M210.271,101.162c-0.172,0.086-0.421-0.118-0.933,0.461c0.422-0.018,0.561,0.067,0.832,0.43c0.18-0.029,0.278-0.129,0.315-0.262C210.562,101.524,210.486,101.292,210.271,101.162L210.271,101.162z M222.288,101.904c-0.208,0.086-0.511-0.116-1.128,0.466c0.511-0.021,0.68,0.065,1.009,0.427c0.218-0.03,0.336-0.131,0.38-0.263C222.639,102.265,222.548,102.033,222.288,101.904L222.288,101.904z M208.669,103.668c0.382-0.234,0.537-0.227,0.895-0.032c0.156-0.118,0.216-0.261,0.209-0.403c-0.013-0.285-0.152-0.459-0.389-0.469C209.386,102.765,208.963,102.873,208.669,103.668z M222.541,103.998c-0.15,0.177-0.505,0.142-0.815,0.959c0.449-0.264,0.635-0.269,1.081-0.104c0.182-0.131,0.246-0.278,0.231-0.419C223.005,104.152,222.827,103.988,222.541,103.998L222.541,103.998z M210.315,104.668c-0.069-0.004-0.146,0.02-0.224,0.073c-0.053,0.228-0.331,0.359-0.295,1.24c0.248-0.445,0.386-0.534,0.773-0.588c0.094-0.202,0.093-0.364,0.035-0.485C210.531,104.758,210.431,104.675,210.315,104.668L210.315,104.668z M236.452,104.763c-0.05,0.003-0.102,0.018-0.157,0.045c-0.072,0.219-0.359,0.311-0.397,1.191c0.284-0.407,0.429-0.476,0.817-0.476c0.11-0.188,0.123-0.349,0.076-0.476C236.719,104.855,236.6,104.755,236.452,104.763L236.452,104.763z M224.338,105.358c-0.085,0.006-0.173,0.04-0.263,0.102c-0.042,0.234-0.363,0.403-0.232,1.274c0.256-0.476,0.413-0.584,0.873-0.692c0.093-0.214,0.076-0.375-0.006-0.486C224.608,105.417,224.479,105.349,224.338,105.358L224.338,105.358z M239.509,105.419c-0.141-0.014-0.266,0.082-0.353,0.283c0.053,0.228-0.121,0.538,0.287,1.243c0.016-0.55,0.092-0.724,0.39-1.049c-0.009-0.236-0.079-0.369-0.179-0.427C239.605,105.441,239.557,105.423,239.509,105.419L239.509,105.419z M237.837,105.674c-0.091,0.009-0.179,0.067-0.263,0.178c0.005,0.239-0.224,0.479,0.028,1.298c0.125-0.525,0.234-0.667,0.587-0.88c0.038-0.231-0.002-0.383-0.087-0.473C238.018,105.706,237.927,105.665,237.837,105.674L237.837,105.674z" />
  </g>
  <g>
    <path fill="#FFD700" stroke="#806600" stroke-width="0.3" d="M254.1,25.3c-1.559,3.744-2.808,7.4-4.032,11.161h-6.564h-18.57h-19.168H199.8c-1.183-3.636-2.389-7.547-3.877-11.161c0,0,3.128,4.702,5.471,5.839c1.301,0.632,2.929,0.82,4.275,0.306c1.773-0.677,4.132-4.132,4.132-4.132s2.121,2.666,3.562,3.367c1.352,0.657,2.934,0.684,4.417,0.612c1.312-0.064,2.766-0.117,3.847-0.918c1.637-1.213,3.277-5.356,3.277-5.356s1.587,3.259,2.85,4.438c1.042,0.973,2.351,1.699,3.705,1.989c1.354,0.291,2.833,0.197,4.132-0.306c1.761-0.682,4.56-3.52,4.56-3.52s1.926,2.566,3.277,3.214c1.308,0.627,2.881,0.811,4.275,0.459c1.475-0.373,2.714-1.52,3.847-2.602C252.562,27.725,254.1,25.3,254.1,25.3L254.1,25.3z" />
    <path fill="#FFD700" stroke="#806600" stroke-width="0.3" d="M225.121,32.956c-8.862-0.005-17.723,0.511-26.546,1.561l1.615,8.342c8.775-0.846,15.959-1.072,24.832-1.147h-0.018c8.873,0.075,16.056,0.301,24.832,1.147l1.615-8.342c-8.823-1.05-17.684-1.566-26.546-1.561H225.121z" />
    <path fill="#FFD700" stroke="#806600" stroke-width="0.3" d="M207.845,33.156l-0.007,0.006h-0.007c-3.151,0.244-6.799,0.509-9.981,0.975c-0.45,0.578-0.487,1.105,0.331,1.526c3.056-0.447,6.658-0.719,9.812-0.963c4.277-0.266,8.59-0.433,12.891-0.478h8.25c2.573,0,8.007,0.169,12.891,0.484c4.862,0.314,9.827,0.957,9.827,0.957c0.847-0.465,0.755-0.985,0.295-1.526c0,0-5.011-0.66-9.974-0.981c-4.941-0.319-10.368-0.484-13.038-0.484h-8.25C216.531,32.686,212.186,32.906,207.845,33.156z M209.05,41.767l-0.007,0.006h-0.007c-2.93,0.244-6.322,0.509-9.281,0.975c-0.418,0.578-0.453,1.105,0.308,1.526c2.841-0.447,6.191-0.719,9.123-0.963c3.977-0.266,7.987-0.345,11.986-0.39h7.671c2.392,0,7.445,0.08,11.986,0.396c4.52,0.314,9.137,0.957,9.137,0.957c0.788-0.465,0.702-0.985,0.274-1.526c0,0-4.659-0.66-9.274-0.981c-4.594-0.319-9.64-0.396-12.123-0.396h-7.671C217.126,41.385,213.086,41.517,209.05,41.767z" />
    <path fill="#FFD700" stroke="#806600" stroke-width="0.5" d="M220.706,35.243h8.684c0.173,0,0.313,0.115,0.313,0.257v4.545c0,0.142-0.14,0.257-0.313,0.257h-8.684c-0.173,0-0.313-0.115-0.313-0.257V35.5C220.393,35.359,220.533,35.243,220.706,35.243z M209.635,35.999l2.884-0.304c1.201-0.127,2.327,0.701,2.515,1.848l0.036,0.218c0.189,1.147-0.632,2.18-1.832,2.307l-2.884,0.304c-1.201,0.127-2.327-0.701-2.515-1.848l-0.036-0.218C207.614,37.159,208.434,36.126,209.635,35.999z M199.667,41.877l4.06-3.681l-4.956-1.833l-0.076,3.02L199.667,41.877z M240.391,35.999l-2.884-0.304c-1.201-0.127-2.327,0.701-2.515,1.848l-0.036,0.218c-0.189,1.147,0.632,2.18,1.832,2.307l2.884,0.304c1.201,0.127,2.327-0.701,2.515-1.848l0.036-0.218C242.412,37.159,241.591,36.126,240.391,35.999z M250.358,41.877l-4.06-3.681l4.956-1.833l0.076,3.02L250.358,41.877z" />
    <path fill="#FFD700" stroke="#806600" stroke-width="0.3" d="M217.33,35.272c0.492,0,0.891,0.436,0.891,0.973s-0.399,0.973-0.891,0.973s-0.891-0.436-0.891-0.973C216.438,35.708,216.837,35.272,217.33,35.272z M217.512,38.324c0.492,0,0.891,0.436,0.891,0.973s-0.399,0.973-0.891,0.973s-0.891-0.436-0.891-0.973C216.621,38.76,217.02,38.324,217.512,38.324z M205.338,35.977c0.492,0,0.891,0.436,0.891,0.973s-0.399,0.973-0.891,0.973s-0.891-0.436-0.891-0.973S204.846,35.977,205.338,35.977z M205.52,39.029c0.492,0,0.891,0.436,0.891,0.973s-0.399,0.973-0.891,0.973s-0.891-0.436-0.891-0.973C204.629,39.464,205.028,39.029,205.52,39.029z M232.695,35.272c-0.492,0-0.891,0.436-0.891,0.973s0.399,0.973,0.891,0.973s0.891-0.436,0.891-0.973C233.587,35.708,233.188,35.272,232.695,35.272z M232.513,38.324c-0.492,0-0.891,0.436-0.891,0.973s0.399,0.973,0.891,0.973s0.891-0.436,0.891-0.973C233.405,38.76,233.005,38.324,232.513,38.324z M244.687,35.977c-0.492,0-0.891,0.436-0.891,0.973s0.399,0.973,0.891,0.973s0.891-0.436,0.891-0.973S245.179,35.977,244.687,35.977z M244.505,39.029c-0.492,0-0.891,0.436-0.891,0.973s0.399,0.973,0.891,0.973s0.891-0.436,0.891-0.973C245.396,39.464,244.997,39.029,244.505,39.029z M225.003,28.681c-1.454,1.643-3.162,3.009-4.966,3.394c-1.291,0.275-2.77,0.271-4.084,0.194c-1.271-0.075-2.297-0.471-3.442-1.067c-0.996-0.518-2.864-2.027-2.864-2.027c-0.771,1.075-2.358,2.598-3.293,3.156c-1.195,0.713-2.596,0.719-3.837,0.647c-1.703-0.099-3.506-1.676-5.051-3.751c-0.561-0.753-0.7-1.154-1.176-1.991c-0.154-0.271-0.266-1.138-0.416-1.41c1.665-0.391,2.288,3.974,6.503,5.329c1.325,0.426,3.646-0.281,4.428-1.202c1.689-1.987,1.668-4.451,1.975-5.835c0.351,1.124,0.847,2.225,2.82,4.101c1.008,0.958,2.377,2.01,4.879,2.376c1.896,0.277,4.429-0.338,5.993-1.815c1.265-1.195,2.045-2.841,2.531-5.024c0.486,2.183,1.266,3.829,2.531,5.024c1.564,1.478,4.097,2.093,5.993,1.815c2.502-0.366,3.871-1.418,4.879-2.376c1.973-1.876,2.469-2.977,2.82-4.101c0.307,1.384,0.286,3.848,1.975,5.835c0.783,0.921,3.103,1.628,4.428,1.202c4.215-1.355,4.838-5.72,6.503-5.329c-0.15,0.273,0.125,0.723-0.029,0.994c-1.788,3.142-4.294,6.023-6.615,6.158c-1.241,0.072-2.642,0.067-3.837-0.647c-0.935-0.558-2.522-2.081-3.293-3.156c0,0-1.868,1.508-2.864,2.027c-1.145,0.596-2.171,0.992-3.442,1.067c-1.314,0.077-2.793,0.081-4.084-0.194C228.165,31.69,226.457,30.324,225.003,28.681L225.003,28.681z" />
    <path fill="#FFD700" stroke="#806600" stroke-width="0.3" d="M199.078,28.737l-0.732-2.428c-0.099-0.305-0.082-0.878,0.187-1.021c0.257-0.137,0.533,0.01,0.746,0.157c0.482,0.333,0.621,1.039,0.998,1.503c0.416,0.512,0.918,0.827,1.546,0.905c0.523,0.065,1.524-0.372,1.524-0.372l-0.883-1.128c-0.623-0.796-0.372-1.756-0.58-2.771c-0.134-0.653-0.356-1.347-0.805-1.812c-0.485-0.502-1.181-0.877-1.855-0.864c-0.246,0.005-0.494,0.116-0.708,0.246c-0.302,0.184-1.092,0.999-1.092,0.999s-0.129-1.436-0.422-1.971c-0.355-0.649-1.08-1.737-1.614-2.224c-1.273-1.16-2.547-1.33-3.82-1.214l5.486,13.023L199.078,28.737z M250.947,28.737l0.732-2.428c0.099-0.305,0.082-0.878-0.187-1.021c-0.257-0.137-0.533,0.01-0.746,0.157c-0.482,0.333-0.62,1.039-0.998,1.503c-0.416,0.512-0.918,0.827-1.546,0.905c-0.523,0.065-1.524-0.372-1.524-0.372l0.883-1.128c0.623-0.796,0.372-1.756,0.58-2.771c0.134-0.653,0.356-1.347,0.805-1.812c0.485-0.502,1.181-0.877,1.855-0.864c0.246,0.005,0.494,0.116,0.708,0.246c0.302,0.184,1.092,0.999,1.092,0.999s0.129-1.436,0.422-1.971c0.354-0.649,1.08-1.737,1.614-2.224c1.273-1.16,2.547-1.33,3.82-1.214l-5.486,13.023L250.947,28.737z M223.313,25.733c-0.225,0.184,3.399,0,3.399,0l0.177-2.746c0.015-0.348,0.266-0.915,0.623-0.945c0.34-0.028,0.586,0.236,0.762,0.475c0.398,0.539,0.265,1.305,0.494,1.931c0.253,0.69,0.68,1.219,1.345,1.564c0.553,0.287,1.839,0.275,1.839,0.275l-0.519-1.506c-0.366-1.063,0.302-1.919,0.484-3.025c0.117-0.712,0.153-1.502-0.155-2.159c-0.333-0.71-0.952-1.381-1.703-1.654c-0.274-0.1-0.594-0.094-0.884-0.054c-0.41,0.056-1.616,0.538-1.616,0.538s0.441-1.495,0.334-2.156c-0.129-0.801-0.436-2.231-0.883-2.916c-0.741-1.137-1.875-2.164-1.997-2.276c-0.122,0.112-1.256,1.139-1.997,2.276c-0.446,0.685-0.754,2.114-0.883,2.916c-0.106,0.661,0.334,2.156,0.334,2.156s-1.206-0.482-1.616-0.538c-0.29-0.04-0.61-0.045-0.884,0.054c-0.751,0.273-1.37,0.944-1.703,1.654c-0.308,0.656-0.272,1.446-0.155,2.159c0.182,1.107,0.85,1.963,0.484,3.025l-0.519,1.506c0,0,1.286,0.012,1.839-0.275c0.664-0.345,1.092-0.874,1.345-1.564c0.229-0.626,0.096-1.392,0.494-1.931c0.176-0.238,0.422-0.503,0.762-0.475c0.357,0.029,0.608,0.596,0.623,0.945C223.332,26.422,223.538,25.549,223.313,25.733L223.313,25.733z M238.091,23.441c0,1.955,1.441,3.541,3.219,3.541s3.22-1.585,3.22-3.541c0.003-0.959-0.359-1.81-0.943-2.504c-0.349-0.432-1.163-0.982-1.984-1.015c-1.236-0.095-1.987,0.432-2.569,1.015C238.415,21.613,238.126,22.497,238.091,23.441z M212.04,23.441c0,1.955-1.441,3.541-3.22,3.541c-1.778,0-3.22-1.585-3.22-3.541c-0.003-0.959,0.359-1.81,0.943-2.504c0.349-0.432,1.163-0.982,1.984-1.015c1.236-0.095,1.987,0.432,2.569,1.015C211.716,21.613,212.005,22.497,212.04,23.441z" />
    <path fill="#FFD700" stroke="#806600" stroke-width="0.3" d="M196.093,29.074l3.838-1.012l1.106,0.659l-0.696,1.135l-3.838,1.012l-1.106-0.659L196.093,29.074z M253.932,29.074l-3.838-1.012l-1.106,0.659l0.696,1.135l3.838,1.012l1.106-0.659L253.932,29.074z M223.037,25.254h3.952l0.928,0.924l-0.928,0.924h-3.952l-0.928-0.924L223.037,25.254z" />
  </g>
</svg>
