<svg xmlns="http://www.w3.org/2000/svg" width="450px" height="300px" viewBox="0 0 450 300">
  <path fill="#FFFFFF" d="M0,0h450v300H0V0z" />
  <path fill="#30539B" d="M224.995,59.995C175.289,59.998,134.997,100.294,135,150c0,0.004,0,0.007,0,0.011c0.003,49.706,40.3,89.998,90.005,89.995c49.706-0.003,89.998-40.3,89.995-90.005c0-0.004,0-0.007,0-0.011C314.997,100.284,274.7,59.992,224.995,59.995z M193.469,212.5c-10.591,0-35.969-15.314-35.969-42.031c0-8.479,6.984-25.243,6.984-35.5c0-10.662-6-15.969-6-15.969c13.649,0,36.484,9.082,36.484,40.938c0,8.295-2.438,29.849-2.438,40.016C192.531,205.228,193.469,212.5,193.469,212.5z M257.5,221.5c-7.375,0-51-10.5-60-78.5c-5-30.875-10-62.25-23-64.75c6.344-4.594,15.721-5.001,17.969-5.031c0.321-0.004,0.5,0,0.5,0c36.75,2,46.161,47.401,50.016,74.281c2.25,36.5,21.641,63.625,34.516,72.75C273.719,222.375,260.877,221.5,257.5,221.5z M292.5,129.297c0,25.109-15.516,43.282-15.516,57.438c0,6.897,5.531,10.266,5.531,10.266c-24.403-4.95-34.016-24.172-34.016-41.516c0-26.163,16.031-39.358,16.031-56.859c0-6.016-4.031-11.125-4.031-11.125C293.38,94.394,292.5,129.297,292.5,129.297z M192.641,77.875c1.586,0,2.875,1.289,2.875,2.875s-1.289,2.875-2.875,2.875s-2.875-1.289-2.875-2.875S191.055,77.875,192.641,77.875z M173.188,123.969c-5.908,0-7,5.219-7.688,16.031c0,0,9.281-5.188,18-6.5C177.188,123.5,173.188,123.969,173.188,123.969z M173.172,134.156c-2.268,0-4.109-1.841-4.109-4.109s1.841-4.109,4.109-4.109s4.109,1.841,4.109,4.109S175.44,134.156,173.172,134.156z M176.031,130.047c0,1.578-1.281,2.859-2.859,2.859s-2.859-1.281-2.859-2.859s1.281-2.859,2.859-2.859S176.031,128.469,176.031,130.047z M186.734,80.5c0,0,0.219,6.781,1.75,15c0,0,3.766-7.938,13.984-15c-3.594-2.594-7.044-6.516-9.484-6.516C190.575,73.984,186.734,77.294,186.734,80.5z M196.922,80.75c0,2.366-1.915,4.297-4.281,4.297s-4.281-1.931-4.281-4.297s1.915-4.281,4.281-4.281S196.922,78.384,196.922,80.75z M276.953,101.516c0,1.647-1.337,2.984-2.984,2.984c-1.647,0-2.984-1.337-2.984-2.984s1.337-2.984,2.984-2.984S276.953,99.868,276.953,101.516z M273.719,95.688c-1.619,0-3.896,1.814-4.781,3.469c-2.875,5.375-6.312,12.781-5.469,13.344c0,0,11.357-6.812,19.031-6C279.312,98.625,277.347,95.688,273.719,95.688z M273.969,105.75c-2.337,0-4.234-1.897-4.234-4.234s1.897-4.234,4.234-4.234s4.234,1.897,4.234,4.234S276.306,105.75,273.969,105.75z" />
</svg>
