<svg xmlns="http://www.w3.org/2000/svg" width="450px" height="300px" viewBox="0 0 450 300">
  <path fill="#FFFFFF" d="M0,0h450v300H0V0z" />
  <path fill="#000000" d="M0,0h450v90H0V0z" />
  <path fill="#006600" d="M0,210h450v90H0V210z" />
  <path fill="#FFFFFF" d="M262.249,89.233c5.123-1.373,7.935-6.244,10.748-11.115c1.875-3.248,9.375-16.238,12.625-33.118c-12.993,11.255-20.493,24.245-22.368,27.493c-2.812,4.871-5.625,9.743-4.252,14.865L225,146.25l-34.001-58.892c1.373-5.123-1.44-9.994-4.252-14.865c-1.875-3.248-9.375-16.238-22.368-27.493c3.25,16.88,10.75,29.87,12.625,33.118c2.812,4.871,5.625,9.743,10.748,11.115L222.835,150l-51.42,89.062l3.248,1.875L225,153.75l50.338,87.188l3.248-1.875L227.165,150L262.249,89.233z" />
  <path fill="#BB0000" d="M260.625,105C255,90,236.25,60,225,60s-30,30-35.625,45H0v90h189.375C195,210,213.75,240,225,240s30-30,35.625-45H450v-90H260.625z" />
  <path fill="#000000" d="M260.625,195c5.625-15,9.375-30,9.375-45s-3.75-30-9.375-45c-5.625,15-9.375,30-9.375,45S255,180,260.625,195z M189.375,195C183.75,180,180,165,180,150s3.75-30,9.375-45c5.625,15,9.375,30,9.375,45S195,180,189.375,195z" />
  <path fill="#FFFFFF" d="M225,161.25c-4.142,0-7.5-5.037-7.5-11.25s3.358-11.25,7.5-11.25s7.5,5.037,7.5,11.25S229.142,161.25,225,161.25z M226.875,239.719c0,0,7.5-15,7.5-39.375s-7.5-39.375-7.5-39.375V239.719z M223.125,60.281c0,0-7.5,15-7.5,39.375s7.5,39.375,7.5,39.375V60.281z M223.125,239.719v-78.75c0,0-7.5,15-7.5,39.375S223.125,239.719,223.125,239.719z M226.875,60.281v78.75c0,0,7.5-15,7.5-39.375S226.875,60.281,226.875,60.281z" />
</svg>
