<svg xmlns="http://www.w3.org/2000/svg" width="450px" height="300px" viewBox="0 0 450 300">
  <path fill="#032EA1" d="M0,0h450v300H0V0z" />
  <path fill="#E00025" d="M0,75h450v150H0V75z" />
  <path fill="#FFFFFF" stroke="#000000" stroke-width="0.72" stroke-linejoin="bevel" d="M182.7,141.4h85.4v32.8h-85.4L182.7,141.4L182.7,141.4z" />
  <path fill="#FFFFFF" stroke="#000000" stroke-width="0.72" stroke-linejoin="bevel" d="M263.7,159.6h2.7V172h-2.7V159.6z M182.7,153.5h85.4v3.8h-85.4L182.7,153.5L182.7,153.5z M182.7,148.3h85.4v3.4h-85.4L182.7,148.3L182.7,148.3z M182.7,143.1h85.4v3.3h-85.4L182.7,143.1L182.7,143.1z M205.2,159.6h2.7V172h-2.7V159.6z M241.9,159.6h2.7V172h-2.7V159.6z M183.4,159.6h2.7V172h-2.7V159.6z M188.7,159.6h2.7V172h-2.7V159.6z M194.3,159.6h2.7V172h-2.7V159.6z M199.9,159.6h2.7V172h-2.7V159.6z M247,159.6h2.7V172H247V159.6z M252.6,159.6h2.7V172h-2.7V159.6z M258.3,159.6h2.7V172h-2.7V159.6z" />
  <path fill="#FFFFFF" stroke="#000000" stroke-width="0.72" d="M149.3,176c1.3-0.7,2.8-2.2,3.3-4h144.8c0.5,1.8,2,3.3,3.3,4H149.3z" />
  <path fill="#FFFFFF" stroke="#000000" stroke-width="0.72" d="M223.2,91.4c0,0-0.1-3.1,1.7-3.1s1.7,3.1,1.7,3.1H223.2z M213.8,132.3v-4.2c-0.1-2.1-2.1-2.2-2.1-3.7c0,0-0.3-2.3,0.3-3.3c0.8,3,2.3,2.5,2.3,1.2c0-1.1-0.8-2.1-2.6-4.7c-0.5-0.8-0.2-3.5,0.6-4.4c0.3,2.3,0.6,3.4,1.6,3.4c0.6,0,1.1-0.4,1.1-1.5c0-1.5-1-2.2-1.5-3.5c-0.6-1.6-0.2-3.1,0.8-4c0.4,2.3,0.3,3.2,1.3,3.2c2-0.6,0-3.6-0.4-4.3c-0.5-0.9,0.7-2.6,0.7-2.6c0.6,2,0.9,2.2,1.6,2c0.9-0.2,0.8-1.5-0.3-2.6c-0.7-0.7-0.6-1.7,0.1-2.5c0.7,1.4,1.7,1.3,1.8,0.5l-0.6-3.3h12.9l-0.6,3.2c-0.2,0.9,1,1.1,1.8-0.4c0.7,0.8,0.8,1.8,0.1,2.5c-1.1,1.1-1.2,2.4-0.3,2.6c0.7,0.2,0.9,0,1.6-2c0,0,1.1,1.2,0.7,2.6c-0.4,0.7-2.5,3.7-0.4,4.3c1,0,0.9-0.9,1.3-3.2c0.9,0.9,1.3,2.5,0.8,4c-0.5,1.3-1.5,2.1-1.5,3.5c0,1.2,0.5,1.5,1.1,1.5c1,0,1.3-1.1,1.6-3.4c0.8,0.9,1.1,3.6,0.6,4.4c-1.7,2.6-2.6,3.7-2.6,4.7c0,1.2,1.5,1.8,2.3-1.2c0.6,1,0.3,3.3,0.3,3.3c-0.1,1.5-2.1,1.7-2.1,3.7v4.2H213.8z M219.2,97.8l-0.3-2.3h11.9l-0.3,2.3H219.2z M220,95.4l-0.3-1.9h10.2l-0.3,1.9H220z M221.7,93.4l-0.2-1.9h6.8l-0.2,1.9H221.7z M246.4,176c-1.5-0.6-3.7-2.2-3.7-3.8V154l2-2.5h-39.6l1.9,2.5v18.2c0,1.6-1.5,3.2-3,3.8H246.4z" />
  <path fill="#FFFFFF" stroke="#000000" stroke-width="0.72" stroke-linejoin="bevel" d="M212.1,159.6h2.7V172h-2.7V159.6z M234.9,159.6h2.7V172h-2.7V159.6z M204.4,130.7v20.7h40.5v-4.5l0.1-16.3c-1.7,0.7-1.9,2.2-1.9,2.2v8.8h-36.7v-8.8C206.4,132.9,206,131.4,204.4,130.7L204.4,130.7z" />
  <path fill="#FFFFFF" stroke="#000000" stroke-width="0.72" d="M239.4,176c-1.3-0.6-4.2-2.2-4.2-3.8v-20.4c0.3-1.1,1.8-1.8,2.8-2.5h-26.9c1.3,0.7,2.7,1.2,3.2,2.5v20.4c0,1.6-2.3,3.2-3.6,3.8H239.4z" />
  <path fill="#FFFFFF" stroke="#000000" stroke-width="0.72" d="M243,149.5v-14.7h-3.7v-1.4h-29.1v1.4h-3.7v14.7H243z M233.6,176c-1.3-0.6-3.2-2.2-3.2-3.8v-17.4l1.1-1.6h-13.3l1.1,1.6v17.4c0,1.6-1.9,3.2-3.2,3.8H233.6z M152.6,172.1v-15.4c-0.5-2-2.2-3.7-3.4-4v-14.4c1.9,0,2.8,2.5,2.8,2.5l3.2,14.1v17.2L152.6,172.1z M297.3,172.1v-15.4c0.5-2,2.2-3.7,3.4-4v-14.4c-1.9,0-2.8,2.5-2.8,2.5l-3.2,14.1v17.2L297.3,172.1z" />
  <path fill="#FFFFFF" stroke="#000000" stroke-width="0.72" d="M221.5,153.2h6.7V176h-6.7V153.2z M150.6,176c1.3-0.6,3.2-2.2,3.2-3.8V153l-0.9-1.6h32.6l-1.3,1.6v19.2c0,1.6,1.3,3.2,2.6,3.8H150.6z M299.3,176c-1.3-0.6-3.2-2.2-3.2-3.8V153l0.9-1.6h-32.6l1.3,1.6v19.2c0,1.6-1.3,3.2-2.6,3.8H299.3z" />
  <path fill="#FFFFFF" stroke="#000000" stroke-width="0.72" stroke-linejoin="bevel" d="M231.7,148.2c0-1.5,4.4-1.6,6.6-2.8h-27c2.2,1.3,6.5,1.4,6.5,2.8l0.9,2.9l11.2,0.4L231.7,148.2z M180.3,176c-1.3-0.6-3.2-2.2-3.2-3.8V154l2.7-2.5h-22.2l2.7,2.5v18.2c0,1.6-1.9,3.2-3.2,3.8H180.3z M269.6,176c1.3-0.6,3.2-2.2,3.2-3.8V154l-2.7-2.5h22.2l-2.7,2.5v18.2c0,1.6,1.9,3.2,3.2,3.8H269.6z" />
  <path fill="#FFFFFF" stroke="#000000" stroke-width="0.72" d="M237,132.3c0-3.7,0.2-5.1,1.3-5.1v11.7c-2.8,1-4.7,4.5-4.7,4.5h-17.5c0,0-2-3.5-4.7-4.5v-11.7c1.4,0,1.4,1.5,1.4,5.1L237,132.3L237,132.3z M238.3,130.8c0-4.2,3.6-4.7,3.6-4.7v3.8c-1.4-0.1-2.1,1.2-2.1,3s1.1,1.9,1.1,1.9v10.6h-2.7L238.3,130.8z M211.4,130.8c0-4.2-3.6-4.7-3.6-4.7v3.8c1.4-0.1,2.1,1.2,2.1,3s-1.1,1.9-1.1,1.9v10.6h2.7L211.4,130.8z M218.6,101.8h12.8 M217,105.8h15.7 M215.5,110.7h18.7 M213.9,116.6h22.2 M213.4,123.4h22.8 M206.5,145.5H243 M218.1,145.5h13.5v5h-13.5V145.5z M177.2,176c-1.3-0.6-3.2-2.2-3.2-3.8v-16.5l1.8-2.5h-14.1l1.8,2.5v16.5c0,1.6-1.9,3.2-3.2,3.8H177.2z M272.7,176c1.3-0.6,3.2-2.2,3.2-3.8v-16.5l-1.8-2.5h14.1l-1.8,2.5v16.5c0,1.6,1.9,3.2,3.2,3.8H272.7z" />
  <path fill="#FFFFFF" stroke="#000000" stroke-width="0.72" stroke-linejoin="bevel" d="M156.2,159.6h2.7V172h-2.7V159.6z M179.3,159.6h2.7V172h-2.7V159.6z M153.9,138.7h3.2v12.7h-3.2V138.7z M153.9,136.3h3.2v2.4h-3.2V136.3z M180.6,141.4h4.6v9.8h-4.6V141.4z M293.7,159.6H291V172h2.7V159.6z M270.7,159.6H268V172h2.7V159.6z M296,138.7h-3.2v12.7h3.2V138.7z M296,136.3h-3.2v2.4h3.2V136.3z M269.4,141.4h-4.6v9.8h4.6V141.4z" />
  <path fill="#FFFFFF" stroke="#000000" stroke-width="0.72" d="M165.4,153.2h6.7V176h-6.7V153.2z M157.1,151.3v-21.7c0.9,0,1.1,3.2,3.2,3.2c1.1,0,1-1.3,0.4-2.4c-0.5-1-1.2-2.3-0.3-4.7c0.6,1.9,2.3,2.5,2,1.3c-0.5-2-2.1-2.3-0.9-5.5c0.4,2.6,2.1,2.5,1.7,1c-0.5-1.7-1.4-2.4-0.2-4.8c0.7,2.7,1.5,2.6,1.5,0.9c0-2.5-0.1-5.2,3.2-6.2c0,0,0.2-2.3,1.4-2.3s1.4,2.3,1.4,2.3c3.2,1,3.2,3.7,3.2,6.2c0,1.7,0.9,1.9,1.5-0.9c1.2,2.4,0.2,3.1-0.2,4.8c-0.4,1.5,1.3,1.6,1.7-1c1.2,3.1-0.4,3.5-0.9,5.5c-0.3,1.2,1.4,0.6,2-1.3c0.9,2.4,0.2,3.8-0.3,4.7c-0.6,1.1-0.7,2.4,0.4,2.4c2.1,0,2.3-3.2,3.2-3.2v21.7H157.1z M152,134.9v16.6h1.9v-16.6C153.2,134.5,152.6,134.5,152,134.9L152,134.9z M284.6,153.2h-6.7V176h6.7V153.2z M292.8,151.3v-21.7c-0.9,0-1.1,3.2-3.2,3.2c-1.1,0-1-1.3-0.4-2.4c0.5-1,1.2-2.3,0.3-4.7c-0.6,1.9-2.3,2.5-2,1.3c0.5-2,2.1-2.3,0.9-5.5c-0.4,2.6-2.1,2.5-1.7,1c0.5-1.7,1.4-2.4,0.2-4.8c-0.7,2.7-1.5,2.6-1.5,0.9c0-2.5,0.1-5.2-3.2-6.2c0,0-0.2-2.3-1.4-2.3c-1.2,0-1.4,2.3-1.4,2.3c-3.2,1-3.2,3.7-3.2,6.2c0,1.7-0.9,1.9-1.5-0.9c-1.2,2.4-0.2,3.1,0.2,4.8c0.4,1.5-1.3,1.6-1.7-1c-1.2,3.1,0.4,3.5,0.9,5.5c0.3,1.2-1.4,0.6-2-1.3c-0.9,2.4-0.2,3.8,0.3,4.7c0.6,1.1,0.7,2.4-0.4,2.4c-2.1,0-2.3-3.2-3.2-3.2v21.7H292.8z M297.9,134.9v16.6H296v-16.6C296.7,134.5,297.3,134.5,297.9,134.9L297.9,134.9z" />
  <path fill="#FFFFFF" stroke="#000000" stroke-width="0.72" d="M216.4,134.5c2.2,2.7,2,7.3,2,10h13c0-2.7-0.2-7.3,2-10H216.4z M223.7,103.7l-1.8-0.9v-2.7c0.7,0.2,1.5,0.3,1.6,1.5c0.3-1.7,0.7-1.6,1.4-2.2c0.7,0.6,1.2,0.6,1.4,2.2c0.1-1.2,0.9-1.3,1.6-1.5v2.6l-1.8,0.9L223.7,103.7z M170.6,120.3l1.4-1.1v-1.5c-0.5,0-0.8,0.2-1.1,0.7c-0.3-1-1-1.7-1.9-2.2c-0.9,0.5-1.6,1.2-1.9,2.2c-0.4-0.5-0.6-0.6-1.1-0.7v1.5l1.4,1.1H170.6z M279.4,120.3l-1.4-1.1v-1.5c0.5,0,0.8,0.2,1.1,0.7c0.3-1,1-1.7,1.9-2.2c0.9,0.5,1.6,1.2,1.9,2.2c0.4-0.5,0.6-0.6,1.1-0.7v1.5l-1.4,1.1H279.4z" />
  <path fill="#FFFFFF" stroke="#000000" stroke-width="0.72" d="M223.6,108l-3-2v-2.4c1,0.2,2.2,0.3,2.3,1.6c0.4-1.8,1-2.8,2-3.5c1,0.7,1.7,1.6,2,3.5c0.1-1.3,1.3-1.4,2.3-1.6v2.4l-3,2H223.6z M171.3,124l0.6-1.4v-1.9c-0.5,0.1-0.8,0.2-1.1,0.7c-0.3-1-1-1.8-1.9-2.2c-0.9,0.5-1.6,1.2-1.9,2.2c-0.4-0.5-0.6-0.6-1.1-0.7v1.9l0.6,1.4H171.3z M278.6,124l-0.6-1.4v-1.9c0.5,0.1,0.8,0.2,1.1,0.7c0.3-1,1-1.8,1.9-2.2c0.9,0.5,1.6,1.2,1.9,2.2c0.4-0.5,0.6-0.6,1.1-0.7v1.9l-0.6,1.4H278.6z" />
  <path fill="#FFFFFF" stroke="#000000" stroke-width="0.72" d="M223.4,114.7l-3.4-3v-3.6c1.2,0.4,2.5,0.5,2.7,2.4c0.4-2.7,1.2-4,2.3-5.1c1.2,1,1.9,2.4,2.3,5.1c0.1-1.9,1.5-2,2.7-2.4v3.6l-3.4,3H223.4z M229.6,118.7l-3.1,4.3h-3.4l-3.1-4.3H229.6z M218.2,125.8c1.5,0.8,2.1,2.5,2.3,5.7h8.7c0.2-3.1,0.7-4.8,2.3-5.7H218.2z M171.4,128.9l2-2.5V124c-0.7,0.1-1.1,0.4-1.7,1.2c-0.5-1.7-1.5-2-2.9-2.8c-1.4,0.8-2.4,1.1-2.9,2.8c-0.5-0.8-0.9-1.1-1.7-1.1v2.4l2,2.5h5.2L171.4,128.9L171.4,128.9z M278.5,128.9l-2-2.5V124c0.7,0.1,1.1,0.4,1.7,1.2c0.5-1.7,1.5-2,2.9-2.8c1.4,0.8,2.4,1.1,2.9,2.8c0.5-0.8,0.9-1.1,1.7-1.1v2.4l-2,2.5h-5.2V128.9z" />
  <path fill="#FFFFFF" stroke="#000000" stroke-width="0.72" stroke-linejoin="bevel" d="M231.6,118.7v-4.3c-1.5,0.4-2.4,1.3-2.8,2.4c0-1.4-1.9-4.7-3.9-6.3c-2,1.8-3.9,4.8-3.9,6.3c-0.3-1.1-1.4-2-2.8-2.4v4.3H231.6z M172,133.8c0,0,2.4-2.1,2.5-3.2V128c-0.9,0.1-1.8,0.3-2.5,1.4c-0.6-2.2-1.5-2.8-3.2-3.8c-1.7,1-2.6,1.6-3.2,3.8c-0.7-1.1-1.5-1.3-2.5-1.4v2.6c0.3,1.1,2.5,3.2,2.5,3.2L172,133.8L172,133.8z M278,133.8c0,0-2.4-2.1-2.5-3.2V128c0.9,0.1,1.8,0.3,2.5,1.4c0.6-2.2,1.5-2.8,3.2-3.8c1.7,1,2.6,1.6,3.2,3.8c0.7-1.1,1.5-1.3,2.5-1.4v2.6c-0.3,1.1-2.5,3.2-2.5,3.2L278,133.8L278,133.8z" />
  <path fill="#FFFFFF" stroke="#000000" stroke-width="0.72" stroke-linejoin="bevel" d="M232.2,125.8v-4.3c-1.6,0.4-2.6,1.3-3.1,2.4c0-1.4-2-4.7-4.3-6.3c-2.2,1.8-4.3,4.8-4.3,6.3c-0.4-1.1-1.5-2-3.1-2.4v4.3H232.2z M173,142.8c0,0,3.2-3.6,3.3-5v-4.1c-1.2,0.2-2.3,1-3.2,2.7c-0.8-3.4-1.9-5.7-4.2-7.3c-2.2,1.6-3.4,4-4.2,7.3c-0.9-1.7-2-2.5-3.2-2.7v4.1c0.2,1.4,3.3,5,3.3,5H173z M276.9,142.8c0,0-3.2-3.6-3.3-5v-4.1c1.2,0.2,2.3,1,3.2,2.7c0.8-3.4,1.9-5.7,4.2-7.3c2.2,1.6,3.4,4,4.2,7.3c0.9-1.7,2-2.5,3.2-2.7v4.1c-0.2,1.4-3.3,5-3.3,5H276.9z" />
  <path fill="#FFFFFF" stroke="#000000" stroke-width="0.72" stroke-linejoin="bevel" d="M234,134.6v-4.9c-2,0.5-3.2,2-3.9,2.9c0-2.7-3-6.7-5.3-8.1c-2.4,1.4-5.3,5.6-5.3,8.1c-0.6-0.9-1.9-2.3-3.9-2.9v4.9H234z M173,148.2c0,0,2.8-2.8,3.3-4v-4.1c-1.2,0.2-2.3,1-3.2,2.7c-0.8-3.4-1.9-5.3-4.2-6.9c-2.2,1.6-3.4,3.5-4.2,6.9c-0.9-1.7-2-2.5-3.2-2.7v4.1c0.7,1.2,3.3,4,3.3,4H173z M276.9,148.2c0,0-2.8-2.8-3.3-4v-4.1c1.2,0.2,2.3,1,3.2,2.7c0.8-3.4,1.9-5.3,4.2-6.9c2.2,1.6,3.4,3.5,4.2,6.9c0.9-1.7,2-2.5,3.2-2.7v4.1c-0.7,1.2-3.3,4-3.3,4H276.9z" />
  <path fill="#FFFFFF" stroke="#000000" stroke-width="0.72" d="M145.5,175.8v4.6h158.9v-4.6H145.5z M142.6,180.5v6h164.7v-6H142.6z M307.3,186.5H142.6h-4.8v8h174.3v-8H307.3z M133,194.5v9.4h184v-9.4H133z M317,203.9L317,203.9H133l0,0h-4.9v9.4h193.7v-9.4H317z" />
  <path fill="#FFFFFF" stroke="#000000" stroke-width="0.72" stroke-linejoin="bevel" d="M232.9,145.5v-5.1c-1.8,0.7-2.3,2.4-2.8,3.5c0.2-5.1-2.9-10.7-5.3-12.1c-2.4,1.4-5.5,7.1-5.3,12.1c-0.6-1.1-1.1-2.8-2.8-3.5v5.1H232.9z M152.1,145.6c2.3,1.2,4.6,2.6,5.2,5.8h-5.2V145.6z M184.5,140.6v10.8h1.5v-10.8C185.5,140.4,184.9,140.4,184.5,140.6z M174.1,151.3c-0.8-3.5-1.5-6.1-5.4-8.7c-3.9,2.6-4.6,5.2-5.4,8.7H174.1z M297.8,145.6c-2.3,1.2-4.6,2.6-5.2,5.8h5.2V145.6z M265.5,140.6v10.8H264v-10.8C264.4,140.4,265.1,140.4,265.5,140.6z M275.8,151.3c0.8-3.5,1.5-6.1,5.4-8.7c3.9,2.6,4.6,5.2,5.4,8.7H275.8z M162.7,175.8h12v37.5h-12V175.8z M218.7,175.8h12v37.5h-12V175.8z M275.1,175.8h12v37.5h-12V175.8z" />
  <path fill="#FFFFFF" stroke="#000000" stroke-width="0.72" d="M231.7,153.2v-5.1c-1.8,0.4-2,1.1-2.5,2.3c0.2-3.1-2-6.6-4.3-8c-2.4,1.4-4.5,4.9-4.3,8c-0.6-1.1-0.7-1.8-2.5-2.3v5.1H231.7z M186,145.5c-2.3,1.2-4.6,2.6-5.2,5.8h5.2V145.5z M176.1,153.2v-5.1c-1.8,0.7-3.4,1.7-3.9,2.8c-0.7-2.8-1.9-4.1-3.5-5.8c-1.6,1.7-2.6,2.9-3.3,5.8c-0.6-1.1-2.2-2.2-3.9-2.8v5.1H176.1z M263.9,145.5c2.3,1.2,4.6,2.6,5.2,5.8h-5.2V145.5z M273.8,153.2v-5.1c1.8,0.7,3.4,1.7,3.9,2.8c0.7-2.8,1.9-4.1,3.5-5.8c1.6,1.7,2.6,2.9,3.3,5.8c0.6-1.1,2.2-2.2,3.9-2.8v5.1H273.8z M165.4,175.8h6.7v37.5h-6.7V175.8z M221.5,175.8h6.7v37.5h-6.7V175.8z M277.7,175.8h6.7v37.5h-6.7V175.8z" />
  <path fill="none" stroke="#000000" stroke-width="0.72" d="M152.6,172h144.8 M165.3,208.6h6.9 M165.3,203.9h6.9 M165.3,199.2h6.9 M165.3,194.5h6.9 M165.3,189.8h6.9 M165.3,185.1h6.9 M165.3,180.4h6.9 M221.5,208.6h6.5 M221.5,203.9h6.5 M221.5,199.2h6.5 M221.5,194.5h6.5 M221.5,189.8h6.5 M221.5,185.1h6.5 M221.5,180.4h6.5 M277.6,208.6h6.9 M277.6,203.9h6.9 M277.6,199.2h6.9 M277.6,194.5h6.9 M277.6,189.8h6.9 M277.6,185.1h6.9 M277.6,180.4h6.9" />
</svg>
