<svg xmlns="http://www.w3.org/2000/svg" width="450px" height="300px" viewBox="0 0 450 300">
  <path fill="#012169" d="M0,0h450v300H0V0z" />
  <path fill="#FFFFFF" d="M225,37.5h-49.843L225,12.578V0h-25.157L131.25,34.297V0h-37.5v34.297L25.157,0H0v12.578L49.843,37.5H0V75h49.843L0,99.922V112.5l0,0h25.156L93.75,78.203V112.5h37.5V78.203l68.594,34.297H225V99.922L175.157,75H225V37.5z" />
  <path fill="#C8102E" d="M91.77,75l-75,37.5H0l0,0L75,75H91.77z M58.23,37.5H75L0,0v8.385L58.23,37.5z M123.75,112.5v-45H225V45H123.75V0h-22.5v45H0v22.5h101.25v45H123.75z M225,0h-16.77l-75,37.5H150L225,0z M166.77,75H150l75,37.5v-8.385L166.77,75z" />
  <g>
    <path fill="#FFFFFF" d="M337.5,93.75c31.066,0,56.25,25.184,56.25,56.25s-25.184,56.25-56.25,56.25s-56.25-25.184-56.25-56.25S306.434,93.75,337.5,93.75z" />
    <path fill="#C8102E" d="M364.212,155.798c-48.48,0-13.288-0.26-53.668-0.26l-0.575-2.623l-0.19-44.115h55.276l-0.033,44.54L364.212,155.798z" />
    <path fill="#FEDD00" stroke="#000000" stroke-width="0.1823" d="M319.441,151.437l-5.242-2.642l7.843-2.27l-5.449-5.284l8.793,0.413l-3.22-6.687l6.605,2.89l-0.083-7.348l5.738,4.665l1.899-6.399l3.88,6.564l4.211-5.573l1.445,7.802l5.573-4.004l-0.908,7.926l6.523-1.693l-4.004,7.059l7.431,0.743l-4.913,3.674L319.441,151.437z" />
    <path fill="#FEDD00" stroke="#000000" stroke-width="0.1823" d="M324.404,153.842l-10.625-2.101l10.625-0.934l0.27-1.388l-8.968-5.384l10.205,2.549l0.713-1.1l-7.183-8.63l9.516,5.955l0.71-0.526l-3.95-10.479l6.852,8.87l0.759-0.286l-0.431-11.649l3.696,11.093l0.844-0.048l3.691-11.25v11.55l7.647-9.011l-3.984,10.804l0.755,0.549l9.943-6.158l-7.627,8.363l0.806,1.122l11.142-1.984l-9.626,4.986l0.283,1.128l11.094,1.68l-10.45,1.576L324.404,153.842z" />
    <path fill="#FEDD00" stroke="#000000" stroke-width="0.1823" d="M350.905,153.135c0.001,7.38-5.981,13.363-13.361,13.363s-13.362-5.984-13.361-13.363c-0.001-7.38,5.981-13.363,13.361-13.363C344.924,139.772,350.907,145.755,350.905,153.135z" />
    <path fill="#00205B" d="M364.165,156.845c-2.555,6.044-2.72,6.943-6.523,11.766c-4.417,5.769-11.075,10.271-18.521,10.47c-7.26,0.365-14.19-2.92-19.643-7.505c-5.621-5.113-6.749-8.715-8.987-15.962L364.165,156.845z" />
    <path fill="none" stroke="#000000" stroke-width="0.1823" d="M365.118,151.716c-0.062,3.898-2.395,10.743-7.377,16.706c-4.298,5.144-11.168,10.188-18.521,10.47c-7.354,0.282-14.105-2.655-19.643-7.505c-6.136-4.889-9.754-15.298-9.7-19.905c0.043-3.655,0-42.6,0-42.6h55.275C365.151,108.882,365.35,148.599,365.118,151.716L365.118,151.716z" />
    <path fill="#FEDD00" stroke="#000000" stroke-width="0.1823" d="M359.98,113.681c-3.62,3.445-12.201,2.89-12.201,2.89c-2.16,4.057-4.992,3.824-4.992,3.824c1.693,0.058,3.97-1.956,3.97-1.956l6.013,0.496h6.918c0.846,1.255-2.919,1.781-2.919,1.781h-3.065c-0.087,1.43-1.926,1.896-1.926,1.896h-4.669c-5.035,4.432-10.743,3.679-10.743,3.679c-5.342-0.117-9.399-4.962-9.399-4.962c-1.317-1.576-1.803-0.854-4.643-1.439c-3.948-0.814-0.312-1.842-0.312-1.842c2.561-0.41,3.238,0.155,4.166-0.337c1.219-1.455,3.369-1.368,4.978-0.696c2.034,1.119,4.677,1.662,6.784,0.419c2.766-2.185,6.681-5.956,8.438-6.406c2.325-0.595,9.437-0.428,17.689,0C364.066,111.025,363.955,113.883,359.98,113.681L359.98,113.681z M321.45,114.469c-2.896-0.376-5.951-0.802-8.485-2.385c-0.455-0.286-1.177-0.911-0.402-0.963c7.199,0.206,11.371,0.14,17.044,0.526c2.975,0.218,6.164,1.226,7.998,3.725c0.405,0.671,1.303,1.615,0.068,2.158c-0.671,0.315-1.898,0.944-2.242-0.127c-0.682-1.595-1.828-2.463-3.36-2.241c-1.691,0.171-3.304,0.12-5.103,0.003C324.852,114.99,325.136,114.965,321.45,114.469L321.45,114.469z" />
    <path fill="none" stroke="#000000" stroke-width="0.1823" stroke-linecap="round" d="M339.393,118.011c0,0,5.524-4.252,8.297-5.202c3.524-1.205,9.293-0.745,13.21-0.661 M347.4,122.555c0,0-0.467-2.218,6.159-1.46 M334.278,115.785c-1.365-1.259-3.38-2.995-10.044-3.594" />
    <path fill="none" stroke="#000000" stroke-width="0.1276" stroke-linecap="round" d="M320.404,118.961c0,0,5.325,0,5.531-0.083" />
    <path fill="#000000" stroke="#000000" stroke-width="0.3168" d="M329.099,118.49c-0.116,0.103-0.379,0.158-0.639,0.135c-0.26-0.023-0.449-0.12-0.459-0.233c-0.009-0.113,0.164-0.216,0.419-0.246c0.255-0.031,0.528,0.016,0.66,0.115L329.099,118.49z" />
    <path fill="#FFFFFF" stroke="#000000" stroke-width="0.1823" d="M363.634,158.29c-3.197-1.604-6.798-0.339-9.998,0.56c-2.844,0.561-5.422-1.164-8.158-1.476c-3.065-0.002-5.883,2.43-8.989,1.352c-2.607-0.266-5.14-2.012-7.799-0.99c-2.904,0.769-6.157,1.69-9.004,0.233c-2.698-0.872-5.597-0.387-8.273,0.321c-0.524-0.952-0.723-2.636-1.063-3.525c-0.144-0.377,1.03-0.389,1.804-0.314c3.18-0.565,6.645-0.818,9.63,0.66c2.412,0.627,4.815-0.273,7.092-0.973c2.039-0.491,4.251-0.286,6.098,0.724c2.082,0.483,4.397,0.8,6.376-0.221c2.722-0.825,5.852-1.201,8.447,0.211c2.493,0.804,5.055,0.082,7.539-0.31c2.333-0.264,4.971-0.288,7.261,0.303C364.597,154.845,364.218,156.874,363.634,158.29z M359.672,165.689c-2.202,0.002-4.458,0.743-6.542,1.329c-2.844,0.561-5.422-1.164-8.158-1.476c-3.065-0.002-5.884,2.43-8.989,1.352c-2.607-0.266-5.14-2.012-7.799-0.99c-2.904,0.769-6.157,1.69-9.004,0.233c-1.429-0.462-2.915-0.543-4.394-0.412c-1.796-3.171,0.052,0.015-1.85-3.311c2.809-0.396,5.755-0.414,8.341,0.867c2.412,0.627,4.815-0.273,7.092-0.973c2.039-0.491,4.251-0.286,6.098,0.724c2.083,0.483,4.397,0.8,6.376-0.221c2.722-0.825,5.852-1.202,8.447,0.211c2.493,0.804,5.055,0.082,7.539-0.31c1.59-0.18,3.214-0.263,4.812-0.109C359.699,165.705,361.624,162.629,359.672,165.689L359.672,165.689z M350.735,174.949c-1.943-0.318-3.814-1.259-5.764-1.482c-3.065-0.002-5.884,2.43-8.989,1.352c-2.607-0.266-5.14-2.012-7.799-0.99c-1.253,0.332-2.722,0.759-4.045,0.944c-0.187-0.035-4.057-2.446-5.636-4.466c0.954,0.171,1.886,0.457,2.775,0.897c2.412,0.627,4.815-0.273,7.092-0.973c2.039-0.491,4.251-0.286,6.098,0.724c2.082,0.483,4.397,0.8,6.376-0.221c2.722-0.825,5.852-1.201,8.447,0.211c2.143,0.691,4.017,0.295,6.169-0.09C354.649,171.75,353.967,173.008,350.735,174.949L350.735,174.949z" />
  </g>
  <g>
    <path fill="#FFFFFF" stroke="#000000" stroke-width="0.372" stroke-linejoin="bevel" d="M337.5,197.063c18.938,0,35.485-14.748,35.485-20.008c0-2.145-3.706-3.382-4.45-7.694c-0.193-1.116-1.184-3.244-1.878-3.511c-0.587-0.226-2.272-1.1-5.842,1.364c-6.441,4.447-1.131,6.512,2.458,10.111c-6.89,7.874-16.002,10.86-25.774,10.86c-9.772,0-18.884-2.986-25.774-10.86c3.589-3.599,8.899-5.664,2.458-10.111c-3.57-2.465-5.255-1.59-5.842-1.364c-0.694,0.267-1.685,2.395-1.878,3.511c-0.744,4.312-4.45,5.549-4.45,7.694C302.015,182.315,318.562,197.063,337.5,197.063L337.5,197.063z" />
    <path fill="#FFFFFF" stroke="#000000" stroke-width="0.372" stroke-linejoin="bevel" d="M309.062,173.547l2.449-3.184c2.943,4.785,6.666,2.137,4.572-0.49C311.123,163.651,305.302,165.493,309.062,173.547L309.062,173.547z M365.938,173.547l-2.449-3.184c-2.943,4.785-6.666,2.137-4.572-0.49C363.877,163.651,369.698,165.493,365.938,173.547L365.938,173.547z" />
    <path fill="none" stroke="#000000" stroke-width="0.372" stroke-linejoin="bevel" d="M311.726,177.324c-0.973-1.091-2.048-2.111-2.664-3.777 M363.274,177.324c0.973-1.091,2.048-2.111,2.664-3.777" />
    <path fill="#000000" d="M307.981,178.033l-1.801,1.879c-0.095-0.092-0.189-0.183-0.283-0.275l1.811-1.866c-0.228-0.219-0.453-0.44-0.677-0.662l0.253-0.253c0.533,0.529,1.078,1.049,1.632,1.562l-0.245,0.263l0,0C308.439,178.466,308.209,178.25,307.981,178.033z M309.24,179.2c0.41,0.37,0.826,0.735,1.246,1.095l0.235-0.274c-0.515-0.44-1.021-0.888-1.52-1.343l-2.009,2.189c0.527,0.487,1.064,0.966,1.611,1.436l0.235-0.274c-0.443-0.381-0.88-0.768-1.311-1.16l0.662-0.73c0.385,0.349,0.775,0.695,1.171,1.035l0.236-0.274c-0.393-0.338-0.781-0.681-1.164-1.028L309.24,179.2z M308.803,182.303L308.803,182.303L308.803,182.303L308.803,182.303z M313.636,182.36c-0.721,0.517-1.451,1.025-2.189,1.524c0.297-0.84,0.605-1.675,0.922-2.503c-0.141-0.112-0.282-0.225-0.422-0.339l-1.882,2.318c0.099,0.081,0.199,0.161,0.299,0.242l1.223-1.526l0.359-0.448c-0.32,0.823-0.631,1.653-0.932,2.489c0.102,0.08,0.205,0.16,0.308,0.239c0.737-0.499,1.466-1.007,2.187-1.524l-0.461,0.617l-1.056,1.414c0.1,0.075,0.201,0.149,0.301,0.224l1.773-2.407C313.923,182.574,313.779,182.467,313.636,182.36z M312.293,185.087L312.293,185.087C312.294,185.087,312.294,185.087,312.293,185.087L312.293,185.087z M315.543,183.732c-0.287,1.012-0.556,2.031-0.807,3.058l0,0c-0.121-0.08-0.242-0.16-0.363-0.241c0.081-0.295,0.164-0.589,0.247-0.882c-0.321-0.218-0.64-0.438-0.956-0.663c-0.251,0.178-0.503,0.354-0.756,0.53c-0.111-0.08-0.223-0.16-0.333-0.24c0.884-0.589,1.756-1.192,2.613-1.808C315.307,183.568,315.425,183.65,315.543,183.732z M315.105,183.955c-0.376,0.276-0.754,0.55-1.135,0.821c0.244,0.172,0.49,0.343,0.737,0.511C314.836,184.842,314.969,184.398,315.105,183.955z M318.003,187.066c-0.422,0.724-1.216,1.109-2.021,0.612c-0.804-0.497-0.815-1.38-0.353-2.083c0.483-0.736,1.273-1.043,2.023-0.576C318.314,185.429,318.473,186.26,318.003,187.066L318.003,187.066z M317.459,185.323c-0.509-0.316-1.092-0.133-1.495,0.49c-0.392,0.607-0.316,1.233,0.208,1.558c0.525,0.325,1.119,0.113,1.489-0.51l0,0C318.028,186.243,317.943,185.624,317.459,185.323z M319.859,189.761L319.859,189.761L319.859,189.761L319.859,189.761z M320.066,188.228c0.174,0.202,0.185,0.341,0.052,0.654c-0.076,0.162-0.151,0.325-0.227,0.488c-0.079,0.164-0.077,0.216-0.002,0.333l-0.03,0.059c-0.146-0.073-0.291-0.147-0.435-0.222c0.024-0.123,0.141-0.411,0.286-0.69c0.176-0.338,0.101-0.543-0.207-0.708c-0.276-0.148-0.551-0.298-0.825-0.451l-0.623,1.114c-0.116-0.065-0.233-0.13-0.349-0.196l1.474-2.586c0.372,0.213,0.746,0.421,1.123,0.623c0.515,0.277,0.675,0.671,0.438,1.135C320.589,188.078,320.416,188.195,320.066,188.228z M320.378,187.63c0.153-0.294,0.079-0.513-0.216-0.671c-0.275-0.148-0.549-0.298-0.822-0.451l-0.494,0.882c0.259,0.145,0.519,0.288,0.781,0.428C319.977,188.005,320.216,187.941,320.378,187.63z M320.333,189.997c0.118,0.058,0.236,0.115,0.354,0.172l0,0l1.289-2.667c-0.11-0.054-0.221-0.108-0.332-0.163L320.333,189.997z M325.231,189.306l0.127-0.333c-0.691-0.265-1.377-0.55-2.056-0.853l-0.145,0.327c0.286,0.127,0.574,0.252,0.862,0.373l-0.999,2.393c0.122,0.051,0.245,0.101,0.368,0.151l0.977-2.4C324.652,189.081,324.941,189.195,325.231,189.306L325.231,189.306z M324.691,191.867c0.675,0.248,1.355,0.48,2.04,0.693l0.106-0.339c-0.554-0.173-1.105-0.358-1.652-0.554l0.33-0.917c0.485,0.174,0.972,0.34,1.462,0.495l0.108-0.339c-0.485-0.154-0.969-0.318-1.449-0.492l0.304-0.844c0.509,0.184,1.021,0.358,1.536,0.521l0.107-0.339c-0.627-0.198-1.25-0.414-1.869-0.645L324.691,191.867z M330.517,192.072c0.217,0.147,0.264,0.276,0.22,0.609c-0.029,0.174-0.059,0.348-0.088,0.523c-0.031,0.176-0.016,0.226,0.086,0.317l-0.013,0.064l0,0c-0.159-0.032-0.318-0.065-0.476-0.099c-0.009-0.124,0.027-0.427,0.093-0.73c0.08-0.367-0.045-0.542-0.381-0.62c-0.301-0.07-0.601-0.143-0.9-0.22l-0.313,1.216c-0.128-0.033-0.256-0.066-0.384-0.1l0.758-2.829c0.404,0.109,0.809,0.211,1.215,0.305c0.555,0.129,0.809,0.459,0.705,0.963C330.974,191.793,330.841,191.951,330.517,192.072z M330.281,190.842c-0.298-0.069-0.595-0.142-0.891-0.218l-0.248,0.964c0.283,0.073,0.566,0.142,0.85,0.208c0.381,0.089,0.592-0.035,0.665-0.373l0,0C330.726,191.104,330.6,190.916,330.281,190.842z M332.897,191.001c0.173,1.013,0.375,2.026,0.606,3.038c-0.143-0.018-0.286-0.037-0.429-0.056c-0.057-0.294-0.112-0.589-0.164-0.883c-0.378-0.055-0.755-0.115-1.131-0.181c-0.148,0.262-0.298,0.523-0.451,0.784c-0.133-0.025-0.267-0.05-0.4-0.076c0.547-0.886,1.067-1.783,1.559-2.69C332.623,190.958,332.76,190.98,332.897,191.001z M332.822,192.728c-0.076-0.448-0.147-0.896-0.213-1.344c-0.213,0.403-0.432,0.805-0.655,1.204C332.242,192.639,332.531,192.685,332.822,192.728z M333.503,194.039L333.503,194.039L333.503,194.039L333.503,194.039z M336.504,192.82c-0.032,0.827-0.55,1.531-1.496,1.453c-0.945-0.078-1.34-0.856-1.241-1.673c0.104-0.857,0.659-1.47,1.507-1.404C336.012,191.253,336.54,191.897,336.504,192.82z M336.112,192.798c0.036-0.708-0.325-1.206-0.87-1.248c-0.584-0.046-1.006,0.373-1.085,1.095c-0.077,0.704,0.267,1.223,0.881,1.273C335.644,193.969,336.075,193.514,336.112,192.798L336.112,192.798z M336.983,194.304c0.132,0.004,0.264,0.006,0.397,0.009l0,0l0.035-2.948c-0.121-0.001-0.242-0.002-0.363-0.005L336.983,194.304z M340.29,191.267c0.403,0.955,0.836,1.9,1.295,2.835l0,0c-0.144,0.016-0.289,0.031-0.433,0.046c-0.124-0.275-0.246-0.55-0.365-0.826c-0.383,0.035-0.768,0.063-1.153,0.085c-0.085,0.292-0.173,0.584-0.264,0.876c-0.137,0.007-0.275,0.013-0.413,0.018c0.337-1.001,0.642-2.003,0.915-3.005C340.012,191.287,340.151,191.277,340.29,191.267z M340.616,192.978c-0.178-0.421-0.352-0.845-0.519-1.269c-0.116,0.445-0.238,0.889-0.366,1.333C340.026,193.025,340.321,193.004,340.616,192.978L340.616,192.978z M344.23,192.221c0.155,0.81-0.186,1.613-1.122,1.757c-0.937,0.144-1.504-0.521-1.596-1.344c-0.097-0.863,0.305-1.588,1.149-1.715C343.408,190.806,344.057,191.318,344.23,192.221z M343.843,192.289c-0.126-0.696-0.584-1.1-1.134-1.017c-0.574,0.087-0.897,0.592-0.807,1.317c0.087,0.707,0.55,1.13,1.152,1.038C343.663,193.533,343.97,192.991,343.843,192.289z M347.301,189.963c-0.706,0.208-1.416,0.394-2.131,0.558l0.079,0.346c0.302-0.069,0.602-0.142,0.902-0.219l0.639,2.497c0.128-0.033,0.257-0.066,0.385-0.1l-0.665-2.491c0.298-0.08,0.595-0.163,0.89-0.25L347.301,189.963z M348.791,192.206l-0.293-0.928c0.491-0.155,0.979-0.319,1.464-0.492l-0.12-0.336c-0.481,0.172-0.964,0.335-1.451,0.488l-0.269-0.854c0.515-0.163,1.027-0.337,1.536-0.521l-0.121-0.335c-0.621,0.225-1.245,0.435-1.874,0.627l0.855,2.808c0.688-0.209,1.37-0.435,2.047-0.679l-0.121-0.335C349.897,191.846,349.346,192.032,348.791,192.206z M352.975,188.193l-0.15-0.325c-0.676,0.313-1.357,0.609-2.045,0.884l0.132,0.332c0.29-0.116,0.578-0.235,0.866-0.358l1.014,2.386c0.122-0.052,0.244-0.104,0.366-0.157l-1.036-2.379C352.408,188.452,352.692,188.324,352.975,188.193z M356.154,189.53L356.154,189.53c-0.128,0.067-0.257,0.133-0.386,0.198c-0.217-0.212-0.432-0.426-0.646-0.64c-0.344,0.173-0.69,0.341-1.038,0.505c0.031,0.303,0.06,0.606,0.088,0.909c-0.124,0.057-0.247,0.114-0.371,0.17c-0.073-1.048-0.169-2.091-0.288-3.13c0.128-0.062,0.255-0.124,0.382-0.187C354.629,188.092,355.382,188.817,356.154,189.53z M354.835,188.831L354.835,188.831c-0.323-0.328-0.642-0.657-0.958-0.989c0.057,0.458,0.111,0.918,0.159,1.378C354.303,189.093,354.57,188.963,354.835,188.831z M357.996,187.498c0.271,0.46,0.114,0.964-0.411,1.259c-0.369,0.207-0.74,0.409-1.113,0.607l-1.391-2.62c0.357-0.191,0.712-0.386,1.065-0.586c0.407-0.231,0.827-0.134,1.055,0.256c0.144,0.246,0.142,0.47-0.012,0.726C357.59,187.089,357.811,187.183,357.996,187.498L357.996,187.498z M356.009,187.67c0.202-0.109,0.403-0.22,0.604-0.333c0.35-0.196,0.437-0.421,0.276-0.7l0,0l0,0l0,0l0,0c-0.151-0.263-0.377-0.292-0.719-0.1c-0.198,0.111-0.397,0.221-0.596,0.329L356.009,187.67z M357.657,187.696L357.657,187.696c-0.169-0.291-0.447-0.323-0.831-0.108c-0.22,0.124-0.441,0.245-0.663,0.366l0.498,0.92c0.247-0.133,0.493-0.269,0.738-0.406C357.737,188.277,357.829,187.993,357.657,187.696z M356.889,186.638L356.889,186.638L356.889,186.638L356.889,186.638L356.889,186.638z M360.299,185.341c0.469,0.698,0.468,1.579-0.33,2.084c-0.798,0.505-1.596,0.129-2.025-0.59c-0.449-0.752-0.384-1.595,0.36-2.069C358.96,184.348,359.778,184.565,360.299,185.341z M359.965,185.559L359.965,185.559c-0.397-0.6-0.995-0.789-1.472-0.485c-0.509,0.324-0.592,0.926-0.209,1.556c0.374,0.616,0.97,0.82,1.491,0.491C360.296,186.791,360.366,186.165,359.965,185.559z M361.565,182.613c0.291,0.837,0.572,1.68,0.841,2.528c-0.721-0.522-1.433-1.053-2.136-1.593c-0.147,0.103-0.295,0.206-0.444,0.307l1.684,2.463c0.106-0.072,0.212-0.145,0.317-0.218l-1.114-1.605l-0.327-0.471c0.697,0.541,1.404,1.074,2.119,1.598c0.106-0.076,0.211-0.152,0.316-0.228c-0.269-0.847-0.55-1.689-0.841-2.526l0.461,0.616l1.056,1.412c0.1-0.075,0.2-0.15,0.299-0.226l-1.804-2.379C361.851,182.399,361.708,182.506,361.565,182.613z M365.422,181.458c0.543,0.64,0.642,1.516-0.09,2.109c-0.732,0.593-1.568,0.315-2.082-0.352c-0.537-0.697-0.57-1.544,0.121-2.102C363.979,180.621,364.817,180.746,365.422,181.458L365.422,181.458z M365.114,181.712c-0.461-0.551-1.075-0.675-1.52-0.315c-0.468,0.378-0.485,0.99-0.029,1.574c0.445,0.57,1.061,0.703,1.539,0.316C365.582,182.898,365.58,182.268,365.114,181.712z M368.381,180.814L368.381,180.814c-0.105,0.098-0.211,0.195-0.317,0.293c-0.265-0.148-0.529-0.298-0.793-0.448c-0.286,0.259-0.574,0.515-0.865,0.768c0.113,0.285,0.225,0.57,0.336,0.856c-0.103,0.089-0.206,0.178-0.31,0.266c-0.364-0.995-0.743-1.98-1.137-2.955c0.108-0.095,0.216-0.19,0.323-0.285C366.531,179.825,367.452,180.327,368.381,180.814z M366.925,180.486c-0.4-0.231-0.798-0.464-1.194-0.701c0.178,0.429,0.354,0.86,0.527,1.292C366.482,180.882,366.704,180.685,366.925,180.486z" />
  </g>
</svg>
