<svg xmlns="http://www.w3.org/2000/svg" width="450px" height="300px" viewBox="0 0 450 300">
  <path fill="#FFFFFF" d="M450,300H0V0h450V300z" />
  <g>
    <path fill="#FFC324" stroke="#000000" stroke-width="0.5147" d="M271.32,150c0,25.582-20.738,46.32-46.32,46.32s-46.32-20.738-46.32-46.32s20.738-46.32,46.32-46.32S271.32,124.418,271.32,150z" />
    <path fill="#FFFFFF" d="M224.772,241.474c-96.215,0-78.505-96.073-78.505-96.073l156.498-0.608C302.765,144.793,320.987,241.474,224.772,241.474z" />
    <path fill="#0A497B" d="M306.109,167.938c0,0-11.904,4.703-12.817,5.053c-5.78,2.215-11.475,2.397-17.176-0.341c-4.864-2.336-9.804-2.139-14.63,0.137c-5.217,2.461-10.369,2.562-15.582,0.037c-5.031-2.438-10.06-2.369-15.076,0.116c-4.753,2.355-9.57,2.38-14.362,0.148c-5.525-2.573-10.97-2.735-16.511,0.032c-4.395,2.195-8.951,2.233-13.371,0.055c-5.532-2.726-10.961-2.785-16.528-0.085c-4.647,2.254-9.412,2.031-14.217,0.284c-8.159-2.967-13.596-4.036-13.596-4.036l-4.768-15.272c0,0,18.013,5.538,19.565,6.013c4.231,1.293,8.514,1.476,12.532-0.487c5.807-2.837,11.401-2.927,17.224-0.014c4.113,2.057,8.547,2.069,12.667,0c5.726-2.876,11.26-2.843,16.992-0.08c4.402,2.122,9.023,2.145,13.404-0.018c5.648-2.789,11.119-2.727,16.761-0.037c4.484,2.139,9.166,2.211,13.655,0.054c5.726-2.753,11.295-2.799,17.029-0.041c4.471,2.15,9.115,1.964,13.742,0.325c5.154-1.763,18.956-5.525,18.956-5.525L306.109,167.938z M310.002,179.043c0,0-13.802,3.762-18.956,5.525c-4.627,1.639-9.271,1.825-13.742-0.325c-5.735-2.758-11.303-2.712-17.029,0.041c-4.488,2.158-9.17,2.085-13.655-0.054c-5.641-2.69-11.113-2.752-16.761,0.037c-4.38,2.163-9.002,2.14-13.404,0.018c-5.732-2.763-11.266-2.796-16.992,0.08c-4.12,2.069-8.554,2.057-12.667,0c-5.823-2.913-11.417-2.823-17.224,0.014c-4.018,1.963-8.301,1.78-12.532,0.487c-1.552-0.474-19.565-6.013-19.565-6.013s10.205,16.341,18.364,19.308c4.805,1.747,9.57,1.97,14.217-0.284c5.567-2.701,10.996-2.641,16.528,0.085c4.42,2.177,8.976,2.139,13.371-0.055c5.541-2.767,10.986-2.605,16.511-0.032c4.792,2.232,9.608,2.207,14.362-0.148c5.016-2.485,10.045-2.554,15.076-0.116c5.213,2.526,10.365,2.425,15.582-0.037c4.826-2.277,9.765-2.473,14.63-0.137c5.702,2.738,11.396,2.557,17.176,0.341C294.205,197.428,310.002,179.043,310.002,179.043z M277.305,210.079c-5.735-2.758-11.303-2.712-17.029,0.041c-4.488,2.158-9.17,2.085-13.655-0.054c-5.641-2.69-11.113-2.752-16.761,0.037c-4.38,2.163-9.002,2.14-13.404,0.018c-5.732-2.763-11.266-2.796-16.992,0.08c-4.12,2.069-8.554,2.057-12.667,0c-5.823-2.913-11.417-2.823-17.224,0.014c0,0,14.773,22.453,54.166,22.453S281.775,212.23,277.305,210.079z M302.689,143.292l1.462,2.033c-1.079-0.615-10.174,2.396-11.087,2.746c-5.78,2.215-11.475,2.397-17.176-0.341c-4.864-2.336-9.804-2.139-14.63,0.137c-5.217,2.461-10.369,2.562-15.582,0.037c-5.031-2.438-10.06-2.369-15.076,0.116c-4.753,2.355-9.57,2.38-14.362,0.148c-5.525-2.573-10.97-2.735-16.511,0.032c-4.395,2.195-8.951,2.233-13.371,0.055c-5.532-2.726-10.961-2.785-16.528-0.085c-4.647,2.254-9.412,2.031-14.217,0.284c-8.159-2.967-12.381-3.665-13.596-4.036c-0.474-0.189,2.014-1.714,3.566-1.24c0,0,17.873,0.367,20.332,0.19c2.459-0.177,0.981-1.952,1.9-2.85c1.672-1.634,4.565,1.041,6.647,0.122c1.211-0.535,1.91-2.096,3.231-2.195c1.54-0.116,2.741,1.91,4.241,1.541c1.083-0.266,1.273-2.014,0.323-2.508c-0.875-0.455-1.742-0.129-2.128-0.494c-0.684-0.646-0.132-1.975,0.608-2.584c0.646-0.532,2.222,0.144,2.622-0.494c0.483-0.772-0.57-1.35-0.266-2.394c0.438-1.506,1.854-2.507,2.675-1.985c1.391,0.883-0.556,1.997,0.441,2.403c1.026,0.418,2.343,0.398,2.546,0c0.203-0.398-0.635-1.937-0.023-2.77c0.612-0.833,1.902-1.065,2.766-0.498c0.826,1.027-1.181,2.326-0.653,3.534c0.266,0.608,0.882,0.627,1.216,1.102c0.608,0.865-0.076,2.014-1.178,2.584c-0.999,0.517-2.338,0.415-3.164,1.29c-0.826,0.876,0.217,1.611,1.188,1.636c1.486,0.038,2.961,0.266,4.446,0.304c0.515,0.013,1.644-0.185,1.934-0.611c0.878-1.289-1.147-2.071-1.307-2.658c-0.349-1.272,0.626-1.796,0.734-3.345c0.159-2.299,3.628-3.337,6.023-3.308c1.109,0.013,2.531,1.036,1.859,1.918c-0.325,0.427-0.951,0.478-1.371,0.811c-0.926,0.735-0.191,2.621,0.375,3.088c0.566,0.467,2.092,0.526,2.508-0.228c0.416-0.754,0.339-1.885,0.874-2.56c0.658-0.83,2.066-0.902,2.805-0.144c0.74,0.758,0.739,1.991-0.107,2.628c-0.47,0.354-1.248,0.536-1.708,0.904c-0.914,0.731-1.66,2.521-0.648,3.619c1.012,1.098,3.299,0.741,3.002-0.722c-0.059-0.29-0.114-1.14-0.114-1.71c0-1.376,1.836-1.267,2.592-0.118c0.756,1.15-1.206,2.49-0.056,3.983s4.338-0.226,4.428-2.232c0.049-1.09-0.516-2.245-0.047-3.231c0.312-0.655,0.996-1.03,1.607-1.422c1.162-0.745,1.8-1.884,3.18-1.884c0.817,0,1.178,0.418,1.558,0.798c0.49,0.49,1.938,0.228,1.858,1.068c-0.05,0.523-0.11,0.87-1.25,1.44c-0.957,0.479-0.865,1.841-0.511,2.768c1.303,0.758,2.624-0.087,3.638-1.466c0.711-0.966,1.889-0.048,2.269,1.206c0.175,0.579,0.988,0.669,1.444,1.33c0.57,0.827,1.292,0.418,2.09,1.178c1.098,1.046,0.453,1.22,1.9,1.672c1.158,0.361,2.87,0.893,4.028,1.254c1.083,0.338,3.581,0.529,4.636,0.114c1.055-0.415,0.933-1.265,0.266-2.432c-0.76-1.33,1.605-1.779,2.508-0.684c0.45,0.545,0.246,1.283,0.57,1.976c0.324,0.693,0.758,1.279,1.52,1.216c0.885-0.073,1.474-0.784,1.216-1.634c-0.258-0.85-1.505-1.55-1.064-2.622c1.14-2.774,4.256,0.532,5.263-0.034c0.629-0.354-0.209-3.5,1.948-3.558c1.602-0.043,3.368,1.485,2.632,2.909c-0.57,1.102-2.784,3.048-1.748,4.142c0.855,0.903,2.957-0.158,3.61-1.216c0.653-1.058,2.505-1.518,2.736-2.052c0.304-0.703-1.464-1.449-1.064-2.204c0.342-0.646,1.977-0.141,3.344,0c1.12,0.116,2.374-1.407,3.467-1.084s-1.734,3.133-1.035,4.58c0.583,1.207,2.853,0.78,3.914-0.038c1.062-0.818,2.493-1.224,3.534-0.38c1.406,1.14-1.296,2.277-1.085,2.811s1.366,0.976,2.172,0.954c0.806-0.022,0.913-1.374,1.726-1.675c0.77-0.285,1.776-0.088,2.812,0.76c0.836,0.684,4.159,0.354,7.601,0.304C291.668,143.216,302.689,143.292,302.689,143.292z" />
    <path fill="#FFC324" stroke="#000000" stroke-width="0.5147" d="M225,36.772c-62.534,0-113.228,50.694-113.228,113.228S162.466,263.228,225,263.228S338.228,212.534,338.228,150S287.534,36.772,225,36.772z M225,226.922c-42.483,0-76.922-34.439-76.922-76.922S182.517,73.078,225,73.078s76.922,34.439,76.922,76.922S267.483,226.922,225,226.922z" />
    <path fill="#FFFFFF" stroke="#000000" stroke-width="0.5147" d="M198.869,55.611c0-1.026,1.539-4.104,6.841-6.442c5.301-2.337,12.208-2.551,15.733-3.021c1.71-0.228,2.567-1.525,6.499-1.653c1.748-0.057,2.584,0.209,2.014,0.703c-0.3,0.26-1.254,0.798-2.318,1.216c-0.87,0.342-1.406,1.33-0.646,1.748c0.521,0.287,3.079,0.633,5.663,2.28c3.04,1.938,4.522,4.256,6.917,4.256c1.195,0,3.752-1.284,6.385-2.052c2.642-0.771,5.838-1.392,5.054-0.608c-1.026,1.026-6.233,4.484-6.043,7.677c0.219,3.68,2.09,7.905,1.52,7.601c-1.518-0.81-2.394-1.767-3.04-3.154c-0.546-1.173-1.115-3.682-2.052-4.446c-1.444-1.178-3.23-1.368-5.168-1.368s-3.686,0.57-5.358,1.178c-1.672,0.608-3.04,1.33-2.888,2.09c0.152,0.76,1.859,0.522,3.04,1.596c1.254,1.14-1.558,1.482-2.926,1.368c-1.368-0.114-3.291-0.445-4.712-1.216c-1.33-0.722-2.298-2.028-3.876-2.28c-2.85-0.456-3.99,0.684-7.411,0.152c-5.356-0.833-9.651-2.34-11.097-3.078C199.639,57.464,198.869,56.637,198.869,55.611z M249.002,241.842c-1.446-0.738-5.741-2.245-11.097-3.078c-3.42-0.532-4.56,0.608-7.411,0.152c-1.578-0.252-2.546-1.558-3.876-2.28c-1.421-0.771-3.344-1.102-4.712-1.216c-1.368-0.114-4.18,0.228-2.926,1.368c1.181,1.074,2.888,0.836,3.04,1.596c0.152,0.76-1.216,1.482-2.888,2.09c-1.672,0.608-3.42,1.178-5.358,1.178s-3.724-0.19-5.168-1.368c-0.937-0.765-1.506-3.273-2.052-4.446c-0.646-1.387-1.522-2.345-3.04-3.154c-0.57-0.304,1.301,3.921,1.52,7.601c0.19,3.192-5.016,6.651-6.043,7.677c-0.783,0.783,2.412,0.163,5.054-0.608c2.633-0.768,5.19-2.052,6.385-2.052c2.394,0,3.876,2.318,6.917,4.256c2.584,1.647,5.141,1.994,5.663,2.28c0.76,0.418,0.224,1.406-0.646,1.748c-1.064,0.418-2.018,0.956-2.318,1.216c-0.57,0.494,0.266,0.76,2.014,0.703c3.931-0.128,4.788-1.425,6.499-1.653c3.526-0.47,10.432-0.684,15.733-3.021c5.301-2.337,6.841-5.415,6.841-6.442S250.361,242.536,249.002,241.842z M139.78,101.734c-0.726-0.726-1.814-3.991,0.282-9.392c2.096-5.401,6.828-10.436,8.989-13.262c1.048-1.37,0.737-2.894,3.426-5.764c1.196-1.276,1.975-1.68,1.921-0.927c-0.028,0.396-0.322,1.451-0.779,2.499c-0.374,0.857-0.054,1.935,0.779,1.693c0.571-0.166,2.625-1.729,5.616-2.392c3.52-0.779,6.208-0.188,7.901-1.881c0.845-0.845,1.745-3.561,3.063-5.966c1.323-2.413,3.144-5.112,3.144-4.004c0,1.451-1.236,7.578,1.156,9.701c2.757,2.447,7.067,4.111,6.449,4.3c-1.646,0.501-2.943,0.443-4.38-0.081c-1.216-0.443-3.392-1.815-4.595-1.693c-1.854,0.188-3.252,1.317-4.622,2.687c-1.37,1.37-2.204,3.01-2.956,4.622c-0.752,1.612-1.209,3.09-0.564,3.52c0.645,0.43,1.684-0.945,3.278-1.021c1.693-0.081-0.054,2.15-1.102,3.037c-1.048,0.887-2.642,2.013-4.192,2.472c-1.451,0.43-3.059,0.191-4.353,1.129c-2.338,1.693-2.338,3.305-5.133,5.348c-4.377,3.198-8.479,5.17-10.023,5.67C141.634,102.5,140.506,102.46,139.78,101.734z M306.915,197.97c-1.544,0.501-5.647,2.472-10.023,5.67c-2.795,2.042-2.795,3.655-5.133,5.348c-1.294,0.937-2.902,0.699-4.353,1.129c-1.55,0.459-4.192,2.472-4.192,2.472s-2.795,3.117-1.102,3.037c1.595-0.076,2.633-1.451,3.278-1.021c0.645,0.43,0.188,1.908-0.564,3.52c-0.752,1.612-1.585,3.252-2.956,4.622c-1.371,1.37-2.768,2.499-4.622,2.687c-1.203,0.122-3.379-1.25-4.595-1.693c-1.438-0.524-2.734-0.582-4.38-0.081c-0.618,0.188,3.692,1.852,6.449,4.3c2.392,2.123,1.156,8.25,1.156,9.701c0,1.108,1.821-1.591,3.144-4.004c1.319-2.405,2.218-5.121,3.063-5.966c1.693-1.693,4.38-1.102,7.901-1.881c2.992-0.662,5.045-2.226,5.616-2.392c0.833-0.242,1.153,0.836,0.779,1.693c-0.457,1.048-0.751,2.103-0.779,2.499c-0.054,0.752,0.726,0.349,1.921-0.927c2.689-2.87,2.378-4.394,3.426-5.764c2.161-2.825,6.893-7.86,8.989-13.262c2.096-5.401,1.008-8.666,0.282-9.392S308.366,197.5,306.915,197.97z M130.611,176.131c-1.026,0-4.104-1.539-6.442-6.841c-2.337-5.301-2.551-12.208-3.021-15.733c-0.228-1.71-1.525-2.567-1.653-6.499c-0.057-1.748,0.209-2.584,0.703-2.014c0.26,0.3,0.798,1.254,1.216,2.318c0.342,0.87,1.33,1.406,1.748,0.646c0.287-0.521,0.633-3.079,2.28-5.663c1.938-3.04,4.256-4.522,4.256-6.917c0-1.195-1.284-3.752-2.052-6.385c-0.771-2.642-1.392-5.838-0.608-5.054c1.026,1.026,4.484,6.233,7.677,6.043c3.68-0.219,7.905-2.09,7.601-1.52c-0.81,1.518-1.767,2.394-3.154,3.04c-1.173,0.546-3.682,1.115-4.446,2.052c-1.178,1.444-1.368,3.23-1.368,5.168s0.57,3.686,1.178,5.358c0.608,1.672,1.33,3.04,2.09,2.888c0.76-0.152,0.522-1.859,1.596-3.04c1.14-1.254,1.482,1.558,1.368,2.926c-0.114,1.368-0.445,3.291-1.216,4.712c-0.722,1.33-2.028,2.298-2.28,3.876c-0.456,2.85,0.684,3.99,0.152,7.411c-0.833,5.356-2.34,9.651-3.078,11.097C132.464,175.361,131.637,176.131,130.611,176.131z M316.842,125.998c-0.738,1.446-2.245,5.741-3.078,11.097c-0.532,3.42,0.608,4.56,0.152,7.411c-0.252,1.578-1.558,2.546-2.28,3.876c-0.771,1.421-1.102,3.344-1.216,4.712c-0.114,1.368,0.228,4.18,1.368,2.926c1.074-1.181,0.836-2.888,1.596-3.04c0.76-0.152,1.482,1.216,2.09,2.888c0.608,1.672,1.178,3.42,1.178,5.358s-0.19,3.724-1.368,5.168c-0.765,0.937-3.273,1.506-4.446,2.052c-1.387,0.646-2.345,1.522-3.154,3.04c-0.304,0.57,3.921-1.301,7.601-1.52c3.192-0.19,6.651,5.016,7.677,6.043c0.783,0.783,0.163-2.412-0.608-5.054c-0.768-2.633-2.052-5.19-2.052-6.385c0-2.394,2.318-3.876,4.256-6.917c1.647-2.584,1.994-5.141,2.28-5.663c0.418-0.76,1.406-0.224,1.748,0.646c0.418,1.064,0.956,2.018,1.216,2.318c0.494,0.57,0.76-0.266,0.703-2.014c-0.128-3.931-1.425-4.788-1.653-6.499c-0.47-3.526-0.684-10.432-3.021-15.733c-2.337-5.301-5.415-6.841-6.442-6.841S317.536,124.639,316.842,125.998z M176.734,235.22c-0.726,0.726-3.991,1.814-9.392-0.282s-10.436-6.828-13.262-8.989c-1.37-1.048-2.894-0.737-5.764-3.426c-1.276-1.196-1.68-1.975-0.927-1.921c0.396,0.028,1.451,0.322,2.499,0.779c0.857,0.374,1.935,0.054,1.693-0.779c-0.166-0.571-1.729-2.625-2.392-5.616c-0.779-3.52-0.188-6.208-1.881-7.901c-0.845-0.845-3.561-1.745-5.966-3.063c-2.413-1.323-5.112-3.144-4.004-3.144c1.451,0,7.578,1.236,9.701-1.156c2.447-2.757,4.111-7.067,4.3-6.449c0.501,1.646,0.443,2.943-0.081,4.38c-0.443,1.216-1.815,3.392-1.693,4.595c0.188,1.854,1.317,3.252,2.687,4.622c1.37,1.37,3.01,2.204,4.622,2.956c1.612,0.752,3.09,1.209,3.52,0.564c0.43-0.645-0.945-1.684-1.021-3.278c-0.081-1.693,2.15,0.054,3.037,1.102c0.887,1.048,2.013,2.642,2.472,4.192c0.43,1.451,0.191,3.059,1.129,4.353c1.693,2.338,3.305,2.338,5.348,5.133c3.198,4.377,5.17,8.479,5.67,10.023C177.5,233.366,177.46,234.494,176.734,235.22z M272.97,68.085c0.5,1.544,2.472,5.647,5.67,10.023c2.042,2.795,3.655,2.795,5.348,5.133c0.937,1.294,0.699,2.902,1.129,4.353c0.459,1.55,1.585,3.144,2.472,4.192s3.117,2.795,3.037,1.102c-0.076-1.595-1.451-2.634-1.021-3.278c0.43-0.645,1.908-0.188,3.52,0.564c1.612,0.752,3.252,1.585,4.622,2.956c1.37,1.37,2.499,2.768,2.687,4.622c0.122,1.203-1.25,3.379-1.693,4.595c-0.524,1.438-0.582,2.734-0.081,4.38c0.188,0.618,1.852-3.692,4.3-6.449c2.123-2.392,8.25-1.156,9.701-1.156c1.108,0-1.591-1.821-4.004-3.144c-2.405-1.319-5.121-2.218-5.966-3.063c-1.693-1.693-1.102-4.38-1.881-7.901c-0.662-2.992-2.226-5.045-2.392-5.616c-0.242-0.833,0.836-1.153,1.693-0.779c1.048,0.457,2.103,0.751,2.499,0.779c0.752,0.054,0.349-0.726-0.927-1.921c-2.87-2.689-4.394-2.378-5.764-3.426c-2.825-2.161-7.86-6.893-13.262-8.989c-5.401-2.096-8.666-1.008-9.392-0.282S272.5,66.634,272.97,68.085z" />
    <path fill="#0A497B" stroke="#000000" stroke-width="0.5147" d="M212.773,89.232c1.539-1.197,8.133-1.482,12.769-1.216c5.236,0.3,13.757,2.584,16.037,3.952c2.894,1.736,5.168,6.271,7.753,8.513s4.56,4.522,6.157,5.168c0.987,0.399,1.672-1.368,3.268-2.128c1.596-0.76,3.534-0.76,4.256-0.912c0.722-0.152,1.824-1.216,2.964-1.33c0,0-2.166,2.432-2.508,3.04s-0.143,1.169-0.513,2.195c-0.196,0.544-0.817,1.226-0.817,2.252s1.273,2.508,2.47,2.508s2.679-0.513,4.788-0.456c2.109,0.057,4.104,1.539,5.929,4.218c1.123,1.649,3.078,7.639,2.622,10.375c-0.257,1.544-3.477-1.767-5.473-4.446c-1.038-1.394-3.42-3.249-6.499-3.762s-8.38-0.684-12.826,0.456c-1.39,0.357-2.907,1.026-4.332,2.394s-2.451,3.477-4.332,5.358c-1.172,1.172-3.648,2.736-3.648,2.736s0.817-2.09,1.824-3.306c1.046-1.263,1.425-3.249,1.425-3.249s-1.938,0.589-4.845,2.85c-1.566,1.218-4.579,2.261-4.579,2.261s1.771-3.243,4.18-4.655c3.306-1.938,5.872-3.477,6.309-4.997c0.526-1.831-0.584-2.524-1.292-4.066c-0.969-2.109-0.806-3.478-1.368-4.978c-0.684-1.824-3.294-6.357-6.461-8.209c-4.028-2.356-9.321-3.878-14.213-5.244C215.965,92.919,211.063,90.563,212.773,89.232z M197.97,118.885c2.138,0.114,3.021,1.397,4.788,1.653c2.86,0.415,5.165,0.341,6.499-0.257c1.653-0.741,1.853-1.625,2.879-2.48c0.766-0.639,1.442-0.561,1.981-0.855c0.47-0.257,1.667-0.57,1.667-0.57s-0.741-0.399-1.454-0.428c-0.209-0.323-0.602-0.78-1.169-0.855c-0.969-0.128-1.184,0.665-1.967,0.665c-0.817,0-1.121-0.475-1.083-1.064c0.047-0.725,0.77-1.482,1.425-2.366c1.22-1.645,1.501-2.575,1.767-4.503c0.345-2.503-1.824-6.356-1.9-4.988c-0.059,1.053-0.029,4.1-0.694,5.33c-1.473,2.727-3.363,4.104-3.363,4.104s0.029-1.767-1.368-2.907c-1.869-1.525-4.553-1.74-8.18-1.853c-2.765-0.086-7.439,0.485-9.121,1.796c-1.292,1.008,3.363,0.542,7.069,1.283c2.822,0.564,5.13,1.91,5.853,3.268c0.722,1.359,0.456,3.724,0.456,3.724s-2.29-0.2-4.199-0.009s-4.389,1.758-4.389,1.758S196.226,118.792,197.97,118.885z" />
  </g>
</svg>
