<svg xmlns="http://www.w3.org/2000/svg" width="450px" height="300px" viewBox="0 0 450 300">
  <path fill="#009739" d="M0,300V0h450L0,300z" />
  <path fill="#C8102E" d="M450,0v300H0L450,0z" />
  <path fill="#FFCD00" d="M450,75.716V0H336.425L0,224.284V300h113.574L450,75.716z" />
  <path fill="#000000" d="M450,54.084V0h-81.125L0,245.917V300h81.125L450,54.084z" />
  <path fill="#FFFFFF" d="M312.072,137.61l-8.253-29.378l-30.49-1.228l25.389-16.928l-8.253-29.38l23.946,18.918l25.386-16.926l-10.589,28.615l23.945,18.917l-30.491-1.228L312.072,137.61z M156.133,206.689l10.589-28.615L141.336,195l-23.946-18.918l8.253,29.38l-25.389,16.928l30.49,1.228l8.253,29.378l10.591-28.618l30.491,1.228L156.133,206.689z" />
</svg>
