<svg xmlns="http://www.w3.org/2000/svg" width="450px" height="300px" viewBox="0 0 450 300">
  <path fill="#FCD116" d="M0,0h450v300H0V0z" />
  <path fill="#000099" d="M237.5,256h177l-19.313-38L326,200l-69.817,18L237.5,256z" />
  <path fill="#009900" d="M326,76l-69.817,142h139.003L326,76z" />
  <path fill="#FFFFFF" d="M326,117l-29.5,60h59L326,117z" />
  <path fill="#009E49" d="M0,129V0h193.5L0,129z" />
  <path fill="#CE1126" d="M0,129h193.5V0L0,129z" />
  <path fill="#FCD116" d="M0,96.442V129h48.837L193.5,32.558V0h-48.837L0,96.442z" />
  <path fill="#000000" d="M193.5,23.256V0h-34.884L0,105.744V129h34.884L193.5,23.256z" />
  <path fill="#FFFFFF" d="M132.787,58.035l-3.548-12.632l-13.111-0.529l10.918-7.278l-3.548-12.632l10.296,8.134l10.918-7.278l-4.554,12.306l10.296,8.134l-13.111-0.529L132.787,58.035z M63.812,94.75l13.111,0.529l-10.296-8.134l4.554-12.306l-10.918,7.278l-10.296-8.134l3.548,12.632l-10.918,7.278l13.111,0.529l3.548,12.632L63.812,94.75z" />
</svg>
