<svg xmlns="http://www.w3.org/2000/svg" width="450px" height="300px" viewBox="0 0 450 300">
  <path fill="#012169" d="M0,0h450v300H0V0z" />
  <path fill="#FFFFFF" d="M225,37.5h-49.843L225,12.578V0h-25.157L131.25,34.297V0h-37.5v34.297L25.157,0H0v12.578L49.843,37.5H0V75h49.843L0,99.922V112.5l0,0h25.156L93.75,78.203V112.5h37.5V78.203l68.594,34.297H225V99.922L175.157,75H225V37.5z" />
  <path fill="#C8102E" d="M91.77,75l-75,37.5H0l0,0L75,75H91.77z M58.23,37.5H75L0,0v8.385L58.23,37.5z M123.75,112.5v-45H225V45H123.75V0h-22.5v45H0v22.5h101.25v45H123.75z M225,0h-16.77l-75,37.5H150L225,0z M166.77,75H150l75,37.5v-8.385L166.77,75z" />
  <g>
    <path fill="#FFFFFF" d="M395.123,189.193c-3.194-1.318-6.256,2.494-7.598,6.485c-0.758,0.623-1.498,1.107-2.227,1.457c0.775-1.242,1.504-2.509,2.179-3.797c1.253-2.257,2.271-6.723-3.222-9.499c-2.041-0.875-4.859-3.074-6.6-4.807c-1.579-1.818-3.946-3.235-6.351-2.937c2.78-9.979,1.292-40.257,1.641-51.165c0-0.994-0.806-1.8-1.8-1.8h-9.854c0.334-1.087,0.335-2.183,0.008-3.189c0.827-2.775-1.46-6.861-2.597-8.018c0.752-0.18,1.502-0.546,2.022-1.188c0.38-0.477,0.974-1.489,1.341-1.807c2.273-1.171,1.656-4.508-1.338-3.914c-0.824,0.339-1.114-0.465-2.169-0.539c-0.274-0.058-0.63-0.532-0.877-0.766c-1.625-1.625-3.161-2.981-4.821-3.97c3.451-1.922,6.99-3.47,8.494-4.034c0.755-0.283,1.229-1.034,1.162-1.837c-0.408-2.432-3.559-1.756-5.551-1.709c1.78-1.779,3.331-3.303,4.462-4.388c0.608-0.583,0.731-1.508,0.296-2.229c-1.204-1.831-3.434-0.198-4.937,0.367c1.124-1.66,3.901-2.805,2.744-4.918c-0.467-0.713-1.37-1.001-2.167-0.686c-2.084,0.824-4.041,1.865-5.886,3.136c0.422-0.6,0.82-1.096,1.171-1.446c1.405-1.35-0.24-3.773-2.026-2.907c-0.421,0.074-2.411,1.505-1.935,0.79c0.862-1.73-1.457-3.464-2.864-2.079c-0.63,0.846-0.71-0.053-1.52-0.111c-0.419-0.07-0.866-0.067-1.329,0.005c-0.886-1.956-3.247-0.851-4.459,0.206c-0.626-1.564-3.064-1.459-3.442,0.23c-0.292,0.963-0.836,1.733-1.02,2.91c-0.596,0.01-1.232,0.121-1.868,0.409c-1.467-1.618-3.059-2.782-4.749-3.471c-0.737-0.3-1.581-0.083-2.08,0.536c-0.82,0.994-0.216,2.09,0.465,2.966c-1.987-0.935-3.461,1.366-2.136,3.028c-1.875-0.678-5.515-2.71-6.534-0.251c-0.29,0.821,0.049,1.731,0.805,2.163c0.596,0.34,1.305,0.827,2.079,1.439c-0.729-0.154-1.438-0.254-2.137-0.304c-2.122-0.113-2.649,2.843-0.656,3.555c-1.311,0.518-1.475,2.5-0.218,3.199c1.167,0.7,3.605,2.478,6.16,4.474c-0.662,0.069-1.291,0.276-1.802,0.498c-0.383-0.117-0.704-0.326-0.933-0.612c-1.666-2.258-6.326-3.306-8.579-1.274c-0.115,0.037-0.323,0.077-0.47,0.105c-2.516,0.155-4.276,2.342-3.661,4.963c0.118,0.591,0.564,1.055,1.122,1.284c0.238,0.098,0.501,0.138,0.758,0.122c0.315,0.653,0.813,1.178,1.161,1.492c1.229,1.112,2.775,1.706,4.187,1.604c0.864,0.063,1.693,0.102,1.863,0.717c0.022,0.081,0.049,0.171,0.086,0.276c-0.93,0.993-1.504,2.374-1.526,3.727c-0.159,1.213,0.834,3.729,2.709,4.751c-2.502,1.048-3.984,4.081-2.852,6.697c0,0-11.493,0-11.493,0c-0.994,0-1.8,0.806-1.8,1.8v35.044c0,5.982,0.543,11.293,1.653,16.107c-2.112-0.193-4.378,0.968-5.979,2.568c-1.727,1.909-4.556,4.133-7.128,5.259c-5.441,2.929-4.264,7.165-3.078,9.43c0.653,1.246,1.356,2.475,2.104,3.678c-1.148-0.518-2.345-1.549-2.623-2.87c-1.644-3.945-4.374-5.889-6.948-4.952c-2.55,0.927-3.353,2.92-2.387,5.924c0.812,4.042,2.108,9.302,3.735,11.88c0.722,1.655,2.609,3.184,5.105,4.118c4.317,1.619,9.456,1.205,14.258-1.121c14.261,12.093,30.469,13.421,36.872,13.421c6.394,0,22.567-1.339,36.777-13.471c6.7,3.486,15.753,2.935,19.453-2.951c1.345-2.313,2.466-6.839,3.212-9.849C397.493,194.526,399.408,190.987,395.123,189.193z" />
    <path fill="#FCEA83" stroke="#000000" stroke-width="0.5391" d="M282.906,206.16c1.078,2.875,8.806,6.649,17.792,1.797c6.11-3.415,10.064-8.267,13.838-16.893c1.078-2.157,1.617-4.852-0.899-6.47c-1.977-1.438-5.212-3.055-6.649-4.493c-0.719-0.719-1.438-1.258-1.977-1.797c0.359,0.359,0.719,0.719,1.078,1.258c3.594,4.313-0.18,10.603-4.133,14.377c-2.875,2.696-8.087,9.345-15.635,3.055C284.703,195.557,280.93,201.487,282.906,206.16L282.906,206.16z M392.171,206.16c-1.258,2.875-8.986,6.649-17.792,1.797c-6.11-3.415-10.064-8.267-14.018-16.893c-0.899-2.157-1.438-4.852,1.078-6.47c1.977-1.438,5.212-3.055,6.649-4.493c0.719-0.719,1.258-1.258,1.977-1.797c-0.359,0.359-0.719,0.719-1.078,1.258c-3.594,4.313,0.18,10.603,3.954,14.377c2.875,2.696,8.267,9.345,15.815,3.055C390.374,195.557,393.968,201.487,392.171,206.16L392.171,206.16z" />
    <path fill="#00493D" d="M295.677,191.056l-2.932,1.555c-0.297,0.157-0.332,0.282-0.189,0.684l-0.151,0.08l-0.934-1.76l0.151-0.08c0.249,0.352,0.38,0.395,0.677,0.238l1.393-0.739l-0.662-1.248l-1.393,0.739c-0.297,0.157-0.335,0.29-0.183,0.694l-0.151,0.08l-0.925-1.745l0.151-0.08c0.247,0.333,0.367,0.369,0.664,0.212l2.932-1.555c0.303-0.161,0.344-0.302,0.197-0.668l0.151-0.08l0.925,1.745l-0.151,0.08c-0.223-0.346-0.374-0.398-0.677-0.238l-1.254,0.665l0.662,1.248l1.254-0.665c0.303-0.161,0.345-0.316,0.183-0.694l0.151-0.08l0.934,1.76l-0.151,0.08C296.131,190.948,295.979,190.895,295.677,191.056z M294.113,195.749L294.113,195.749c-0.207-0.313-0.194-0.455,0.052-0.618l1.385-0.915c0.352,0.533,0.261,0.881-0.364,1.378l0.084,0.127l1.934-1.278l-0.084-0.127c-0.689,0.35-1.024,0.304-1.363-0.209l-0.013-0.02l1.327-0.877c0.217-0.144,0.311-0.114,0.479,0.14c0.527,0.797,0.49,1.165-0.19,1.79l0.081,0.122l1.15-0.76l-1.864-2.821l-0.143,0.094c0.2,0.353,0.17,0.506-0.122,0.699l-2.769,1.83c-0.298,0.197-0.406,0.17-0.691-0.162l-0.143,0.094l1.89,2.86l1.319-0.591l-0.09-0.137C295.234,196.526,294.623,196.522,294.113,195.749z M302.074,199.733c0.253-0.231,0.413-0.219,0.707,0.053l0.127-0.116l-1.343-1.472l-0.127,0.116c0.251,0.326,0.249,0.487-0.004,0.718l-1.049,0.957l-0.952-1.043l1.049-0.957c0.253-0.231,0.413-0.219,0.715,0.061l0.127-0.116l-1.331-1.459l-0.127,0.116c0.234,0.318,0.229,0.465-0.024,0.696l-2.452,2.237c-0.248,0.227-0.373,0.222-0.695-0.04l-0.127,0.116l1.331,1.459l0.127-0.116c-0.248-0.353-0.244-0.491,0.004-0.718l1.165-1.063l0.952,1.043l-1.165,1.063c-0.248,0.227-0.386,0.218-0.715-0.061l-0.127,0.116l1.343,1.472l0.127-0.116c-0.239-0.353-0.236-0.483,0.012-0.709L302.074,199.733z M303.101,204.667c-0.344,0.789-0.375,0.958-0.209,1.115l0.017,0.016l-0.118,0.124l-1.378-1.307l0.118-0.124c0.069,0.047,0.129,0.094,0.15,0.114c0.158,0.131,0.261,0.134,0.36,0.029c0.104-0.109,0.223-0.337,0.446-0.862l-0.957-0.907l-0.248,0.134c-0.344,0.184-0.496,0.276-0.557,0.341c-0.123,0.129-0.077,0.277,0.155,0.535l-0.118,0.124l-0.863-0.819l0.118-0.124c0.247,0.149,0.368,0.122,0.969-0.187l3.53-1.832l0.119,0.113L303.101,204.667z M303.324,201.902l-1.546,0.83l0.829,0.786L303.324,201.902z M304.912,206.545l2.302-2.787c0.538,0.48,0.572,0.917,0.129,1.61l0.131,0.108l0.869-1.07l-2.711-2.239l-0.891,1.052l0.131,0.108c0.597-0.566,1.032-0.615,1.61-0.173l-2.302,2.787c-0.323,0.391-0.421,0.408-0.84,0.124l-0.109,0.132l1.613,1.332l0.109-0.132C304.587,207.041,304.581,206.947,304.912,206.545z M311.994,207.138l-1.624-1.154l-0.099,0.14c0.315,0.266,0.346,0.423,0.148,0.702l-0.823,1.157l-1.151-0.818l0.823-1.157c0.199-0.279,0.358-0.301,0.712-0.091l0.099-0.14l-1.61-1.144l-0.099,0.14c0.296,0.261,0.323,0.406,0.124,0.685l-1.923,2.705c-0.195,0.274-0.318,0.296-0.688,0.108l-0.099,0.14l1.61,1.144l0.099-0.14c-0.317-0.293-0.342-0.429-0.148-0.702l0.914-1.286l1.151,0.818l-0.914,1.286c-0.195,0.274-0.332,0.294-0.712,0.091l-0.099,0.14l1.624,1.154l0.099-0.14c-0.308-0.295-0.333-0.422-0.138-0.696l1.923-2.705c0.199-0.28,0.358-0.301,0.702-0.098L311.994,207.138z M314.096,210.748l0.748-1.405c0.119-0.224,0.219-0.249,0.482-0.108c1.009,0.537,0.836,1.036,0.647,1.642v0l0.124,0.066l0.648-1.217l-2.933-1.561l-0.081,0.151c0.344,0.214,0.394,0.357,0.227,0.672l-1.56,2.93c-0.168,0.315-0.275,0.343-0.684,0.188l-0.081,0.151l1.862,0.991l0.081-0.151c-0.463-0.278-0.518-0.4-0.34-0.733l0.751-1.411c0.521,0.293,0.593,0.619,0.292,1.36l0.129,0.069l1.089-2.046l-0.129-0.069C314.907,210.908,314.613,211.023,314.096,210.748z M319.583,213.412c-0.524,1.319-1.7,1.945-2.827,1.497c-1.127-0.448-1.556-1.703-1.032-3.022c0.527-1.326,1.713-1.947,2.851-1.494C319.67,210.827,320.099,212.112,319.583,213.412z M318.486,210.6L318.486,210.6c-0.637-0.253-1.274,0.35-1.821,1.727c-0.511,1.287-0.452,2.123,0.174,2.372c0.626,0.249,1.243-0.318,1.762-1.625C319.128,211.748,319.085,210.838,318.486,210.6z M323.83,212.801l0.059-0.161l-1.211-0.443l-0.059,0.161c0.415,0.196,0.478,0.365,0.306,0.835l-0.719,1.964c-0.349,0.953-0.82,1.285-1.475,1.045c-0.561-0.206-0.67-0.676-0.349-1.552l0.787-2.151c0.186-0.509,0.32-0.533,0.751-0.397l0.059-0.161l-1.86-0.681l-0.059,0.161c0.369,0.186,0.404,0.294,0.234,0.758l-0.788,2.151c-0.231,0.631-0.231,0.989,0.001,1.395c0.182,0.322,0.491,0.567,0.893,0.714c1.062,0.389,1.689-0.214,2.047-1.193l0.752-2.054C323.34,212.812,323.455,212.737,323.83,212.801z M321.921,212.102C321.921,212.102,321.921,212.102,321.921,212.102L321.921,212.102L321.921,212.102z M327.785,213.806l0.042-0.166l-1.221-0.311l-0.042,0.166c0.408,0.153,0.481,0.32,0.361,0.792l-0.516,2.027l-1.257-3.356l-1.198-0.305l-0.042,0.166c0.114,0.029,0.185,0.153,0.361,0.601l-0.801,3.15c-0.096,0.379-0.205,0.45-0.635,0.405l-0.042,0.166l1.289,0.328l0.042-0.166c-0.422-0.171-0.492-0.323-0.372-0.795l0.68-2.672l1.619,4.261l0.159,0.04l0.996-3.915C327.303,213.846,327.399,213.778,327.785,213.806z M331.349,216.65c-0.248,1.398-1.244,2.182-2.49,1.961l-1.823-0.323l0.03-0.169c0.337,0.046,0.505-0.064,0.558-0.361l0.59-3.329c0.055-0.311-0.037-0.431-0.399-0.537l0.03-0.169l1.76,0.312C330.937,214.272,331.595,215.259,331.349,216.65z M329.558,214.264c-0.225-0.04-0.355,0.021-0.382,0.176l-0.615,3.471c-0.054,0.304,0.006,0.405,0.265,0.451c0.6,0.106,1.224-0.222,1.502-1.788C330.621,214.912,330.077,214.356,329.558,214.264z M334.55,217.79c-0.337,0.682-0.716,1.16-1.639,1.086c-0.374-0.03-0.478-0.128-0.454-0.422l0.133-1.654c0.637,0.051,0.855,0.337,0.861,1.136l0.152,0.012l0.186-2.311l-0.152-0.012c-0.149,0.759-0.391,0.994-1.005,0.944l-0.023-0.002l0.127-1.586c0.021-0.26,0.102-0.315,0.406-0.291c0.952,0.077,1.22,0.332,1.293,1.253l0.146,0.012l0.11-1.374l-3.371-0.271l-0.014,0.171c0.401,0.06,0.503,0.178,0.475,0.527l-0.266,3.309c-0.029,0.355-0.116,0.424-0.553,0.444l-0.014,0.171l3.417,0.275l0.348-1.403L334.55,217.79z M338.75,217.15c-0.072,1.418-0.964,2.32-2.228,2.255l-1.849-0.095l0.009-0.171c0.34,0.004,0.493-0.126,0.509-0.427l0.173-3.377c0.016-0.315-0.09-0.424-0.462-0.484l0.009-0.171l1.785,0.091C338.046,214.841,338.822,215.739,338.75,217.15z M336.676,215.004c-0.228-0.012-0.349,0.065-0.358,0.222l-0.18,3.521c-0.016,0.308,0.056,0.401,0.319,0.415c0.609,0.031,1.187-0.372,1.268-1.961C337.812,215.515,337.203,215.031,336.676,215.004z M342.915,218.554l-0.412-3.294c-0.044-0.354,0.064-0.478,0.492-0.552l-0.021-0.17l-2.035,0.255l0.021,0.17c0.423-0.018,0.558,0.068,0.601,0.415l0.412,3.294c0.043,0.34-0.05,0.449-0.48,0.551l0.021,0.17l2.035-0.255l-0.021-0.17C343.082,218.989,342.96,218.908,342.915,218.554z M346.76,215.306l0.167-0.029l-0.247-1.356l-3.465,0.6l0.218,1.361l0.167-0.029c-0.041-0.821,0.206-1.184,0.917-1.335l0.616,3.561c0.087,0.5,0.036,0.585-0.453,0.719l0.029,0.169l2.062-0.357l-0.029-0.169c-0.509,0.046-0.585-0.01-0.674-0.524l-0.616-3.561C346.169,214.26,346.523,214.519,346.76,215.306z M351.696,213.326c-0.113-0.388-0.065-0.517,0.275-0.688l-0.048-0.165l-1.238,0.361l0.048,0.165c0.45-0.089,0.601,0.01,0.742,0.491l0.586,2.008c0.285,0.974,0.102,1.521-0.567,1.716c-0.574,0.168-0.94-0.147-1.202-1.042l-0.642-2.199c-0.152-0.52-0.059-0.619,0.369-0.765l-0.048-0.165l-1.901,0.555l0.048,0.165c0.407-0.069,0.5-0.003,0.638,0.471l0.642,2.199c0.188,0.645,0.401,0.933,0.828,1.123c0.337,0.152,0.732,0.165,1.143,0.045c1.086-0.317,1.232-1.174,0.94-2.175L351.696,213.326z M355.532,213.647c-0.197,0.207-0.376,0.297-1.113,0.584l0.453,1.193c0.178,0.468,0.249,0.507,0.706,0.407l0.061,0.16l-1.83,0.695l-0.061-0.16c0.055-0.036,0.105-0.069,0.122-0.076c0.243-0.136,0.265-0.292,0.115-0.689l-1.076-2.834c-0.17-0.449-0.286-0.522-0.684-0.415l-0.061-0.16l1.764-0.67c0.915-0.347,1.596-0.122,1.879,0.622C355.993,212.797,355.901,213.279,355.532,213.647z M354.876,212.693c-0.263-0.692-0.551-0.906-1.006-0.733c-0.181,0.069-0.245,0.181-0.189,0.328l0.652,1.718C355.035,213.74,355.175,213.482,354.876,212.693z M360.133,211.772c0.509,1.325,0.068,2.582-1.065,3.016c-1.133,0.435-2.298-0.198-2.807-1.523c-0.511-1.332-0.06-2.592,1.084-3.031C358.445,209.812,359.632,210.465,360.133,211.772z M359.182,212.188c-0.511-1.332-1.159-1.972-1.76-1.741c-0.64,0.246-0.7,1.121-0.169,2.504c0.496,1.293,1.106,1.867,1.735,1.626C359.617,214.335,359.686,213.501,359.182,212.188z M362.486,207.978l-0.077-0.153l-1.127,0.564l0.077,0.153c0.409-0.151,0.573-0.072,0.791,0.363l0.937,1.87l-3.146-1.714l-1.106,0.554l0.077,0.153c0.105-0.052,0.24-0.005,0.667,0.218l1.456,2.906c0.175,0.35,0.14,0.475-0.215,0.722l0.077,0.153l1.189-0.596l-0.077-0.153c-0.431,0.147-0.584,0.078-0.802-0.358l-1.235-2.465l4.013,2.162l0.147-0.073l-1.809-3.612C362.148,208.323,362.176,208.21,362.486,207.978z M367.937,208.622l-2.157-2.9c0.595-0.408,1.028-0.337,1.594,0.259l0.136-0.101l-0.832-1.099l-2.822,2.098l0.808,1.117l0.136-0.101c-0.407-0.714-0.351-1.149,0.216-1.605l2.157,2.9c0.303,0.407,0.296,0.506-0.08,0.845l0.102,0.138l1.679-1.248l-0.102-0.138C368.341,209.057,368.248,209.04,367.937,208.622z M372.336,205.319l-2.109-2.563c-0.218-0.265-0.197-0.424,0.089-0.704l-0.109-0.132l-1.539,1.266l0.109,0.132c0.339-0.234,0.499-0.224,0.717,0.041l0.902,1.096l-1.091,0.897l-0.902-1.096c-0.218-0.265-0.197-0.424,0.098-0.711l-0.109-0.132l-1.525,1.255l0.109,0.132c0.329-0.218,0.476-0.205,0.694,0.059l2.109,2.563c0.214,0.259,0.202,0.384-0.075,0.693l0.109,0.132l1.525-1.255l-0.109-0.132c-0.365,0.229-0.503,0.219-0.717-0.041l-1.002-1.218l1.091-0.897l1.002,1.218c0.214,0.26,0.198,0.397-0.098,0.711l0.109,0.132l1.539-1.266l-0.109-0.132C372.678,205.587,372.549,205.578,372.336,205.319z M375.118,201.693c0.283,0.706,0.386,1.308-0.285,1.946l0,0c-0.272,0.258-0.414,0.27-0.617,0.057l-1.143-1.203c0.463-0.44,0.822-0.412,1.42,0.117l0.11-0.105l-1.597-1.68l-0.11,0.105c0.465,0.617,0.479,0.955,0.033,1.379l-0.017,0.016l-1.096-1.153c-0.18-0.189-0.167-0.286,0.054-0.496c0.693-0.658,1.061-0.687,1.796-0.126l0.106-0.101l-0.95-0.999l-2.451,2.329l0.118,0.124c0.312-0.259,0.468-0.256,0.709-0.002l2.286,2.406c0.246,0.259,0.238,0.37-0.039,0.708l0.118,0.124l2.485-2.361l-0.813-1.196L375.118,201.693z M378.563,197.82c-0.396-0.328-0.964-0.449-1.372-0.3l-0.935,0.344c-0.514,0.191-0.728,0.181-0.982-0.029c-0.327-0.271-0.371-0.627-0.117-0.934c0.284-0.343,0.838-0.463,1.699-0.062l0.105-0.126l-1.146-0.949l-0.112,0.135c0.111,0.145,0.123,0.216,0.06,0.293c-0.105,0.126-0.458,0.199-0.769,0.573c-0.508,0.614-0.412,1.325,0.253,1.877c0.465,0.385,0.992,0.426,1.738,0.138l0.419-0.162c0.551-0.213,0.778-0.208,1.052,0.019c0.364,0.302,0.419,0.72,0.131,1.067c-0.572,0.69-1.559,0.162-1.893-0.016l-0.108,0.131l1.305,1.081l0.108-0.131c-0.11-0.137-0.127-0.212-0.067-0.284c0.127-0.153,0.471-0.203,0.819-0.623C379.303,199.194,379.228,198.371,378.563,197.82z M380.757,194.467c0.41,0.64,0.624,1.212,0.085,1.965l0,0c-0.219,0.305-0.356,0.343-0.596,0.171l-1.349-0.967c0.372-0.519,0.73-0.558,1.417-0.152l0.089-0.124l-1.884-1.351l-0.089,0.124c0.573,0.519,0.649,0.848,0.291,1.348l-0.014,0.019l-1.293-0.927c-0.212-0.152-0.218-0.25-0.04-0.497c0.557-0.776,0.914-0.874,1.74-0.461l0.085-0.119l-1.12-0.803l-1.971,2.748l0.139,0.1c0.258-0.313,0.412-0.339,0.696-0.135l2.697,1.935c0.29,0.208,0.303,0.319,0.095,0.703l0.139,0.1l1.998-2.786l-1.022-1.022L380.757,194.467z M383.748,191.36l0.152,0.08l-0.883,1.681l-0.152-0.08c0.026-0.079,0.056-0.15,0.069-0.176c0.083-0.188,0.058-0.287-0.069-0.354c-0.134-0.07-0.385-0.123-0.951-0.195l-0.613,1.167l0.196,0.202c0.271,0.281,0.401,0.403,0.479,0.444c0.158,0.083,0.287-0.001,0.472-0.295l0.152,0.08l-0.553,1.053l-0.152-0.08c0.076-0.278,0.018-0.388-0.443-0.882l-2.722-2.9l0.076-0.145l3.801,0.521c0.853,0.117,1.024,0.101,1.13-0.101L383.748,191.36z M381.636,192.269l-1.751-0.251l1.219,1.263L381.636,192.269z M383.918,188.09c-0.476-0.195-1.054-0.141-1.399,0.123l-0.79,0.607c-0.434,0.335-0.642,0.389-0.946,0.264c-0.393-0.161-0.541-0.488-0.39-0.857c0.169-0.412,0.662-0.691,1.603-0.565l0.062-0.152l-1.377-0.565l-0.067,0.163c0.149,0.106,0.182,0.17,0.144,0.262c-0.062,0.152-0.378,0.326-0.563,0.776h0c-0.302,0.737,0,1.388,0.801,1.716c0.558,0.229,1.074,0.111,1.7-0.386l0.352-0.28c0.462-0.368,0.681-0.43,1.01-0.295c0.438,0.18,0.614,0.562,0.443,0.98c-0.34,0.83-1.44,0.619-1.812,0.549l-0.065,0.157l1.567,0.643l0.065-0.157c-0.145-0.098-0.185-0.164-0.149-0.251c0.076-0.184,0.389-0.334,0.596-0.839C385.035,189.182,384.718,188.418,383.918,188.09z" />
    <path fill="#FCEA83" stroke="#000000" stroke-width="0.5391" d="M337.539,221.616c14.377,0,36.482-6.47,48.343-29.114c1.977-3.774,0-5.751-2.336-7.009c-2.516-1.078-5.571-3.594-7.189-5.212c2.875,2.875,2.336,4.852,0.359,8.087c-9.165,15.276-21.745,23.003-39.177,23.003c-17.432,0-30.012-7.728-39.177-23.003c-1.977-3.235-2.516-5.212,0.18-8.087c-1.438,1.617-4.673,4.133-7.189,5.212c-2.336,1.258-4.313,3.235-2.336,7.009C300.878,215.146,323.162,221.616,337.539,221.616L337.539,221.616z" />
    <path fill="#C8102E" stroke="#000000" stroke-width="0.5391" d="M304.292,191.244c-0.359-1.797-2.696-1.078-3.415,1.078c-0.899-1.258-1.797-2.516-2.516-3.954c-2.157-3.235-2.516-5.391,0.539-8.447c1.438-1.438,4.313-3.055,6.29-1.258C309.324,182.079,307.168,187.65,304.292,191.244z M375.998,179.922c-1.258-1.438-4.133-3.055-6.29-1.258c-3.954,3.415-1.977,8.986,0.899,12.58c0.359-1.797,2.875-1.078,3.594,1.078c0.899-1.258,1.797-2.516,2.516-3.954C378.873,185.134,379.233,182.977,375.998,179.922z M280.57,190.884c-1.977,0.719-1.797,2.157-1.258,3.774c0.359,1.797,1.797,8.806,3.594,11.502c-0.899-2.696,2.336-4.313,6.29-1.977c-1.617-3.954-3.055-7.188-3.954-9.345C284.344,192.682,282.547,190.166,280.57,190.884z M394.508,190.884c-1.977-0.719-3.774,1.797-4.673,3.954c-0.899,2.157-2.336,5.391-3.954,9.345c3.954-2.336,7.009-0.719,6.29,1.977c1.617-2.696,3.055-9.705,3.594-11.502C396.125,193.041,396.484,191.603,394.508,190.884z" />
    <g>
      <path fill="#FFFFFF" stroke="#000000" stroke-width="0.5391" d="M323.701,124.75c-2.336,0.539-3.954,0.719-6.11-1.258c-1.438-1.438-1.078-3.954,0.359-4.852c1.617-1.078,3.055-1.797,5.032-1.258c1.977,0.539,7.189,5.391,5.931,5.571C327.655,122.953,325.678,124.211,323.701,124.75L323.701,124.75z M329.272,116.124c0.719-0.539,1.617-0.899,3.954-1.078c2.157-0.18,3.774-0.18,4.313,1.438c0.719,1.977,1.258,4.313,2.696,5.391c-0.899,0.539-5.391,1.078-7.009,0.18C331.07,120.976,330.53,116.843,329.272,116.124L329.272,116.124z M344.728,116.304c0.719-0.539,1.617-0.539,3.954-0.359c2.336,0.18,3.235,0.359,3.774,1.977c0.539,1.797,0,4.133,1.078,5.751c-1.078,0.359-4.673,0.359-5.931-0.899C345.626,121.336,345.806,117.202,344.728,116.304L344.728,116.304z" />
      <path fill="#073163" stroke="#000000" stroke-width="0.5391" d="M355.51,117.382c-1.617-0.359-2.696-0.539-3.415,0c0.899,1.078,0.18,5.391,1.977,6.829c1.258,0.899,4.493,1.078,5.212-0.899C360.183,121.515,360.183,118.819,355.51,117.382L355.51,117.382z M337,115.585c0.539-0.539,1.617-0.719,3.774-0.719c2.336,0,3.774,0.359,4.493,1.797c0.719,1.797,0.539,4.133,1.797,5.571c-0.539,0.719-5.391,0.719-6.829-0.359C338.258,120.617,338.078,116.483,337,115.585L337,115.585z M321.724,117.202c0-0.899,1.258-1.078,4.493-1.258c3.235-0.359,3.415-0.18,4.493,2.157c0.539,1.258,1.258,3.415,2.696,4.133c-3.954,0.899-5.212,1.438-7.368,0.18c-1.617-0.899-3.415-3.055-3.774-3.954C322.084,117.921,322.084,117.382,321.724,117.202L321.724,117.202z" />
      <g>
        <path fill="#F9D050" stroke="#000000" stroke-width="0.2426" d="M332.507,96.176c-4.493-3.055-9.704-6.47-14.736-6.829c3.774,1.977,9.345,6.649,12.4,10.423 M338.258,91.144c2.516-5.571,5.212-8.626,8.806-12.041c-1.797,3.774-3.774,11.502-4.673,14.557 M337,94.558c-2.157-6.649-5.391-12.939-10.244-14.916c2.696,3.954,6.11,9.705,7.907,18.331" />
        <path fill="#F9D050" stroke="#000000" stroke-width="0.2426" d="M330.351,98.871c-3.774-2.875-8.267-5.571-12.4-6.11c2.696,1.617,10.244,7.548,12.22,9.525 M343.829,93.839c2.157-3.055,6.47-8.806,14.197-11.861c-4.493,4.493-11.142,12.76-12.76,15.994 M346.345,97.793c3.235-1.797,9.704-4.673,14.377-3.774c-2.875,1.078-11.502,5.032-15.276,8.626 M332.866,94.379c-3.594-4.313-8.447-8.626-14.018-9.525c3.774,2.157,10.064,8.447,12.4,14.557" />
        <path fill="#F9D050" stroke="#000000" stroke-width="0.2426" d="M342.212,90.245c1.797-3.954,4.493-7.368,9.165-9.525c-2.336,2.336-5.931,9.345-6.829,13.119 M345.626,96.535c3.055-3.235,8.626-8.087,14.557-10.064c-4.313,4.133-13.478,13.478-14.737,14.916 M334.844,94.199c-4.493-8.087-7.907-9.525-9.884-11.142c1.617,3.055,5.571,11.142,7.907,14.557" />
        <path fill="none" stroke="#000000" stroke-width="0.2426" d="M325.858,93.66c2.157,1.258,5.391,4.313,6.47,6.29 M325.858,97.434c1.078,0.899,3.055,1.977,4.852,3.594 M347.244,100.129c1.797-1.438,5.751-3.774,7.728-4.493 M345.986,98.871c1.797-2.336,5.391-5.571,6.649-6.649 M351.018,87.729c-1.617,1.797-5.391,6.29-6.829,8.447 M346.345,86.112c-1.258,1.617-3.774,6.29-4.493,7.907 M332.148,86.471c1.078,2.875,3.055,7.728,3.774,9.705 M330.53,89.526c0.719,1.078,2.157,3.594,2.696,5.391" />
        <path fill="#F9D050" stroke="#000000" stroke-width="0.2426" d="M336.641,88.628c0-1.617,1.078-3.415,2.157-3.415	c1.258,0,2.157,2.157,2.157,3.415c0,1.438-1.078,2.696-2.157,2.696C337.719,91.323,336.641,90.245,336.641,88.628z" />
        <path fill="#F9D050" stroke="#000000" stroke-width="0.2426" d="M334.304,90.065c0.18-1.797,1.438-3.235,2.516-3.055	c1.078,0.18,1.617,2.336,1.438,3.594c-0.18,1.438-1.438,2.516-2.336,2.336C335.023,92.941,334.125,91.683,334.304,90.065z" />
        <path fill="#F9D050" stroke="#000000" stroke-width="0.2426" d="M339.157,90.605c-0.359-1.617,0.359-3.415,1.438-3.594	c1.078-0.18,2.157,1.617,2.336,3.055c0.359,1.438-0.539,2.875-1.438,2.875C340.594,93.121,339.336,92.222,339.157,90.605z" />
        <path fill="#F9D050" stroke="#000000" stroke-width="0.2426" d="M336.461,92.042c0-1.797,1.078-3.415,2.157-3.415	c1.258,0,2.157,1.977,2.157,3.415s-1.078,2.696-2.157,2.696S336.461,93.66,336.461,92.042z" />
        <path fill="#F9D050" stroke="#000000" stroke-width="0.2426" d="M339.876,92.222c0-1.617,1.078-3.415,2.157-3.415	c1.258,0,2.157,2.157,2.157,3.415c0,1.438-1.078,2.696-2.157,2.696S339.876,93.839,339.876,92.222z" />
        <path fill="#F9D050" stroke="#000000" stroke-width="0.2426" d="M333.226,92.941c0-1.617,1.258-3.415,2.336-3.415	s2.157,2.157,2.157,3.415c0,1.438-1.258,2.696-2.157,2.696C334.484,95.636,333.226,94.558,333.226,92.941L333.226,92.941z	 M339.157,93.66c0-1.797,1.258-3.415,2.336-3.415s2.157,1.977,2.157,3.415s-1.078,2.696-2.157,2.696	C340.415,96.355,339.157,95.277,339.157,93.66L339.157,93.66z" />
        <path fill="#F9D050" stroke="#000000" stroke-width="0.2426" d="M336.281,95.277c0-1.797,1.078-3.415,2.157-3.415	c1.258,0,2.157,2.157,2.157,3.415c0,1.438-1.078,2.696-2.157,2.696C337.359,97.973,336.281,96.894,336.281,95.277z	 M331.788,95.277c0-1.797,0.899-3.415,1.797-3.415s1.617,2.157,1.617,3.415c0,1.438-0.899,2.696-1.617,2.696	C332.687,97.973,331.788,96.894,331.788,95.277z M341.852,94.918c0-1.617,0.899-3.235,1.797-3.235	c0.899,0,1.797,1.977,1.797,3.235c0,1.617-1.078,2.696-1.797,2.696C342.751,97.613,341.852,96.535,341.852,94.918	L341.852,94.918z" />
        <path fill="#F9D050" stroke="#000000" stroke-width="0.2426" d="M342.931,97.973c0.359-1.797,1.438-3.235,2.157-3.055	c0.719,0.18,0.899,2.336,0.539,3.594c-0.18,1.617-1.258,2.516-1.977,2.336C342.931,100.669,342.571,99.411,342.931,97.973z	 M334.484,97.973c-0.539-1.797-1.617-3.055-2.336-2.875c-0.719,0.18-0.899,2.336-0.539,3.594	c0.359,1.438,1.438,2.336,2.157,2.157C334.305,100.669,334.844,99.411,334.484,97.973L334.484,97.973z" />
        <path fill="#F9D050" stroke="#000000" stroke-width="0.2426" d="M339.516,97.434c0.18-1.617,1.258-3.235,2.157-3.055	c1.078,0,1.617,2.157,1.438,3.415c-0.18,1.617-1.078,2.696-1.977,2.516C340.235,100.309,339.336,99.051,339.516,97.434z	 M333.226,97.613c0-1.617,0.899-3.235,1.797-3.235c1.078,0,1.797,1.977,1.797,3.235c0,1.617-0.899,2.696-1.797,2.696	C334.304,100.309,333.226,99.231,333.226,97.613L333.226,97.613z" />
        <path fill="#F9D050" stroke="#000000" stroke-width="0.2426" d="M335.922,98.332c0-1.797,1.078-3.415,2.157-3.415	c1.258,0,2.157,1.977,2.157,3.415c0,1.438-1.078,2.696-2.157,2.696C337,101.028,335.922,99.95,335.922,98.332z M336.82,78.564	c-0.359,1.438-1.617,2.696-0.719,4.673c-1.617-0.539-3.055-0.719-4.313,0.719c1.617-0.18,3.055,0.359,3.774,1.438	c-1.438-0.18-2.157,0.539-2.516,1.438c1.258-0.359,2.516-0.719,3.055-0.539c-0.539,0.539-1.438,1.438-1.617,2.157	c1.078-0.899,2.336-0.719,3.055-1.258c-0.539,1.258,0.539,2.516,1.438,3.774c-0.18-1.797,0.899-3.055,0.359-3.954	c1.617,0.359,1.797,1.797,4.133,1.797c-0.899-0.539-1.438-2.336-2.516-2.336c0.539-0.18,2.696-0.359,3.055,0	c-0.359-0.719-1.617-1.438-2.336-1.438c0.719-0.719,1.977-2.157,2.875-2.516c-1.258,0.18-3.235,0.359-3.954,1.438	c1.797-1.438,1.438-4.133,3.415-4.493c-1.078-0.18-2.696,0.539-3.954,1.797c0.539-1.078,0.539-2.516,1.258-2.875	c-1.438,0.359-3.055,2.157-3.594,3.055C337.719,80.541,337.18,79.103,336.82,78.564L336.82,78.564z" />
        <path fill="#F9D050" stroke="#000000" stroke-width="0.2426" d="M337.719,81.439c0,0.539,0,1.617-0.18,1.977 M340.055,81.26	c-0.359,0.359-1.078,1.617-1.078,2.696 M341.133,83.416c-0.539,0.359-1.078,0.899-1.258,1.617" />
      </g>
      <g>
        <path fill="#059334" stroke="#000000" stroke-width="0.5391" d="M322.084,101.208c-1.258,0-2.336-0.539-3.055-1.438c-1.258-1.617-4.673-2.336-6.11-0.899c-0.539,0.359-1.258,0.359-1.797,0.539c-0.899,0-1.977,0.899-1.617,2.696c0.719-0.539,0.899,0,1.438,0c0.359-0.18,0.18,0.18,0.18,0.539c0,0.899,1.977,2.696,3.774,2.516c1.977,0,2.875,0.719,3.235,1.078c0.539,0.539,0.18,0.359,0.539,1.258c0.539,0.539,0.719,0.719-0.18,1.438c-1.258,1.078-2.157,3.594,0,5.571c2.336,1.797,8.267,4.493,14.916-0.719c6.47-5.032,16.534-2.157,17.252-0.359c0.899,1.797,1.258,2.875,1.438,3.774c0.18,0.719,1.078,1.438,2.336,1.258c1.258,0,2.696,0.539,3.415,1.078c0.899,0.539,2.157,0.359,1.797-1.258c-0.719-5.032-3.774-5.751-4.133-8.087c1.797,0.18,3.055,0.18,3.774-0.539c0.539-0.719,1.258-1.977,1.977-2.336c0.539-0.359,0.539-0.719-0.18-0.539c-0.899,0.18-1.438,0.539-3.055,0.359C349.76,106.24,326.577,99.95,322.084,101.208L322.084,101.208z" />
        <path fill="#000000" stroke="#000000" stroke-width="0.5391" d="M358.745,107.318c-0.899,0.539-1.797,1.438-3.415,3.594c-1.797,2.336-7.189,4.673-13.838,4.673c-6.47,0-10.423-1.078-13.299-3.415c-1.617-1.258-2.875-1.977-3.954-2.516c-1.977-0.899-2.336-2.875-1.797-4.493c-0.539,0.899-0.899,1.797-1.977,1.617c-0.719,0-2.157,0-1.797,0.719c-0.18-0.359-0.18-0.899-0.359-1.078c-0.18-0.18-0.359-0.359-0.359-0.359c0.539,0.359,1.797-0.719,2.696-0.719c0.719,0.18,1.617-0.719,1.438-1.797c-0.18-0.899-0.359-1.617-0.539-2.336c1.438-0.719,20.308,2.696,24.082,3.055C349.4,104.442,360.183,106.06,358.745,107.318L358.745,107.318z" />
        <path fill="#059334" stroke="#000000" stroke-width="0.5391" d="M324.6,100.489c1.797-1.797,3.954-2.696,6.11-2.157h0.539c1.078-0.899,3.594-1.078,5.032-0.359H337c2.157-0.719,6.29,0,7.728,1.438l0.539,0.359c4.852-0.359,7.728,1.797,11.142,5.212c0.359,0.359,0.899,1.078,1.797,1.258c1.078,0.18,1.258,0.719,0.359,1.258c-1.078,0.539-1.977,1.438-3.774,3.415c-1.617,2.157-6.829,4.313-13.299,4.313c-6.29,0-10.064-1.078-12.939-3.235c-1.617-1.258-2.875-1.977-3.774-2.516c-1.078-0.359-2.516-1.797-1.977-3.235c0.359-1.438-0.539-3.235-1.258-5.032c0.539-0.359,1.977-0.899,2.696-0.539L324.6,100.489L324.6,100.489z" />
        <path fill="#00493D" stroke="#000000" stroke-width="0.5391" d="M356.409,104.982c-0.539,0.899-1.797,1.797-2.516,2.516c-1.797-2.336-5.931-5.571-8.806-6.649c0.18-0.359,0.18-0.899,0.18-1.078C350.119,99.411,352.994,101.567,356.409,104.982z M340.055,103.544c0.719-0.18,2.516-0.719,3.415-0.899c0.359-0.719,1.078-2.336,1.258-3.235c-1.438-1.438-5.571-2.157-7.728-1.438c0,0.719,0,1.797-0.359,2.516C337.899,101.028,338.977,102.286,340.055,103.544z M336.281,97.973c-1.438-0.719-3.954-0.539-5.032,0.359c-0.359,0.719-0.539,2.157-0.539,2.875c0.719,0,1.797,0.539,2.157,0.899c1.078-0.359,2.516-1.078,3.055-1.617C336.102,99.77,336.461,98.692,336.281,97.973z M330.171,101.028c0-1.078,0.18-2.156,0.539-2.696c-2.157-0.539-4.313,0.359-6.11,2.157v1.617C325.678,101.387,328.194,100.848,330.171,101.028z M344.907,101.567c0,0.18-0.359,0.899-0.539,1.438c1.078,1.617,3.235,5.212,4.133,7.188c0.899-0.359,3.415-1.438,4.673-2.336C351.557,105.521,347.603,102.825,344.907,101.567z M340.055,104.443c0,1.258-0.18,4.852-0.539,7.368c2.157,0.18,5.751-0.719,7.907-1.258c-0.899-1.797-3.055-5.571-3.954-7.009C342.751,103.724,340.954,104.263,340.055,104.443z M336.281,101.387c-0.899,0.719-2.157,1.438-3.055,1.797c0.359,1.797,0.18,4.852,0,7.548c1.258,0.719,3.594,1.078,5.032,1.078c0.18-1.617,0.719-6.29,0.719-7.907C338.438,103.184,337,101.926,336.281,101.387z M324.24,105.341L324.24,105.341L324.24,105.341L324.24,105.341z M324.6,103.184c0,0.539-0.18,1.797-0.359,2.157c1.797,0.539,5.571,3.055,7.907,4.852c0.18-1.078,0.359-5.571,0.18-7.368C329.632,101.387,326.038,102.286,324.6,103.184z" />
        <path fill="#000000" d="M315.255,102.106c-0.359,0-0.539-1.078-1.258-1.078c-0.18,0-0.719,0.18-0.899,0c0,0.359,0.18,0.719,0.359,0.899C313.637,102.466,314.536,102.106,315.255,102.106L315.255,102.106z" />
        <path fill="none" stroke="#000000" stroke-width="0.5391" d="M315.255,105.161c2.157,0,2.516-2.696,3.594-2.875 M316.513,105.341c1.617,0.719,2.875-3.055,4.133-2.875 M313.278,100.668c0.539,0,0.899-0.719,1.797,0.18c0.359,0.359,0.899,0.539,1.258,0.539 M315.974,103.364c-0.719,1.078-1.977,1.797-2.696,1.438 M312.918,98.871c-0.539,0.359-0.899,1.078-1.258,1.617 M311.121,101.567v0.899" />
      </g>
    </g>
    <g>
      <path fill="#FFFFFF" d="M371.146,124.93v35.044c0,30.372-14.377,40.795-33.606,49.062c-19.229-8.267-33.786-18.69-33.786-49.062V124.93H371.146L371.146,124.93z" />
      <path fill="#C8102E" d="M337.539,154.583c1.617,0,4.133-1.438,6.29-3.594c2.336-2.516,6.29-3.415,10.423,0c4.133,3.415,6.649,1.977,8.806,0s3.954-2.696,8.087-2.696V124.93h-67.392v23.363c4.133,0,5.931,0.719,8.087,2.696c2.157,1.977,4.673,3.415,8.806,0c4.313-3.415,8.087-2.516,10.603,0C333.226,153.145,335.742,154.583,337.539,154.583L337.539,154.583z" />
      <path fill="#0B50A0" d="M337.539,172.554L337.539,172.554L337.539,172.554L337.539,172.554z M364.676,160.333c-2.696,2.336-5.751,1.797-9.705,0.359c-3.774-1.617-7.548-4.493-11.322,0c-1.078,1.258-3.594,3.055-6.11,3.055c-2.696,0-5.032-1.797-6.11-3.055c-3.954-4.493-7.548-1.617-11.322,0c-3.954,1.438-7.188,1.977-9.884-0.359c-2.516-2.336-3.774-3.055-6.47-2.516v2.157c0,3.055,0.18,5.751,0.539,8.447c1.977,0,3.415-0.18,6.29,2.157c2.875,2.336,7.728,1.078,10.064,0c2.516-1.078,5.391-3.235,9.345-0.899c1.078,0.539,5.212,2.875,7.548,2.875c2.157,0,6.47-2.336,7.548-2.875c3.954-2.336,6.829-0.18,9.165,0.899c2.516,1.078,7.189,2.336,10.064,0c2.875-2.336,4.493-2.157,6.47-2.157c0.359-2.696,0.359-5.391,0.359-8.447v-2.157C368.63,157.278,367.372,157.997,364.676,160.333z M365.036,178.304c-2.157,1.258-5.212,1.797-8.986,0c-3.594-1.797-6.11-2.696-9.705-0.719c-2.875,1.617-6.11,2.696-8.806,2.696h0c-2.696,0-5.931-1.078-8.806-2.696c-3.594-1.977-6.11-1.078-9.884,0.719c-3.594,1.797-6.829,1.258-8.806,0c-1.078-0.719-1.977-2.157-4.313-1.617c1.078,4.493,2.696,8.447,4.673,11.681c3.594,0.899,5.571,0.899,9.345-0.719c3.774-1.797,8.447-2.875,10.963-1.258c2.336,1.438,4.852,2.157,6.829,2.157c1.977,0,4.493-0.719,6.829-2.157c2.516-1.617,7.189-0.539,10.963,1.258c3.774,1.617,5.751,1.617,9.345,0.719c1.977-3.235,3.594-7.189,4.672-11.681C367.012,176.148,366.114,177.586,365.036,178.304z M337.539,209.036L337.539,209.036L337.539,209.036L337.539,209.036z M353.174,196.815c-1.258-0.899-5.032-1.258-8.267,0.539c-3.415,1.617-4.852,1.977-7.368,1.977c-2.516,0-3.954-0.359-7.368-1.977c-3.235-1.797-7.009-1.438-8.267-0.539c-1.258,0.899-2.157,0.539-3.594,1.078c5.391,4.673,11.861,8.087,19.229,11.142c7.189-3.055,13.838-6.47,19.229-11.142C355.331,197.354,354.432,197.714,353.174,196.815z" />
      <path fill="#F9D050" stroke="#000000" stroke-width="0.5391" d="M332.866,133.736c0.18,0.359-0.18,1.258,0,1.617c0.359,0.719,0.359,1.078,0.899,1.438h1.258c3.954,0,8.626-1.617,12.58-1.617c3.774,0,6.11,1.258,8.267,1.258c1.258,0,2.336-0.899,2.336-1.797c0-0.899-1.438-1.438-4.493-1.438c-4.313,0-6.649,1.078-10.244,1.078c-5.391,0-6.29-1.977-6.29-2.875c0-0.899,0.899-2.157,3.774-2.157c0.899,0,1.617-0.18,1.977-0.539c0.18-0.359,0.719-1.078,1.797-1.617c1.258-0.719,3.774,0,5.032-0.899c0,0.719-1.078,1.797-1.977,2.157c1.797-0.539,3.774-0.539,4.133,0.899c-0.899-0.539-2.336-0.18-2.875,0c-0.719,0.18-1.078,0.359-1.797,0.539c0.719-0.18,1.078,1.258,2.157,1.258c-1.078,0.899-2.875,0.899-4.673,0.18c-0.539-0.18-1.977-0.719-2.875-0.719c-1.797,0-2.875,0.359-2.875,1.078c0,0.899,1.078,1.438,4.313,1.438c3.235,0,5.032-0.899,9.884-0.899c-0.359-0.539,0.18-1.078-0.539-1.617c1.797,0,3.774,0.539,4.493,1.797c-0.18-1.258,0.899-2.336,0.539-3.415c1.078,0.18,1.977,1.258,2.157,2.157c0-0.539,0.719-0.539,0.719-1.078c1.078,0.539,1.617,1.797,1.438,2.875c0.539-0.899,1.078-0.539,1.438-1.617c0.359,0.719,0.18,2.875-1.078,3.594c1.078-0.719,2.696-0.719,3.774,0.539c-1.078-0.18-1.617,0.359-2.157,0.539c-2.157,1.258-5.751,1.977-8.447,1.797c-2.875-0.18-3.235-0.719-5.032-0.719c1.078,0.18,3.235,2.336,5.212,2.336c1.258,0,2.157,0,2.696-0.18c0.539-0.18,1.438,0,2.157,0.359c0.539,0.539,1.617,1.078,2.336,0.899c-0.18,0.719-0.539,1.078-1.078,1.258c0.899,0.539,0.359,0.899,1.258,1.617c-0.359,0-0.719,0.359-1.258,0.18c0.539,0.539,0.539,1.258,1.078,1.617c-0.18,0-0.719,0.18-1.078,0c0.539,0.719,0,1.617,0.539,1.977c0.539,0.719-0.539,1.617-1.438,0.899c0.18,0.539-0.359,1.078-0.899,0.899c-0.539-0.18-0.899-0.719-0.719-0.899c0-0.18,0-0.18,0.18-0.359c-0.359,0.539-1.078,0.539-1.438,0.359c-0.18-0.18-0.359-0.359-0.359-0.539c-1.258,0.359-1.797-0.719-1.617-1.258s1.258-0.719,1.617-0.539c0.359,0.18,0.719,0.359,1.078,0c0.359-0.18,0.539-0.539,0.539-0.899c0-0.539-0.539-2.157-2.875-1.977c-2.696,0.18-7.009-0.539-9.165-1.258c-0.18-0.18-0.359-0.18-0.539-0.359c0,0.719-0.719,1.078-0.719,1.797c0,0.899,0.359,1.617,1.438,1.977c-0.539,0.899-1.438,0.719-1.797,0.18c0,0.539-0.719,0.899-0.719,1.617c-0.18-0.359-0.359-0.539-0.539-0.899c-0.539,1.258-1.977,1.977-2.696,1.617c-0.899,0.719-1.977,0.539-2.336-0.18c-0.539,0.359-1.258,0.359-1.617,0c0,0.539-0.359,0.359-0.539,1.078c0,0.359-0.719,0.539-1.078,0.359c-0.359-0.18-0.539-0.899-0.18-1.258c-0.539,0.359-1.078,0.359-1.438,0c0-0.359,0-0.899,0.359-1.078h0.359c-0.359-0.18-0.899,0-1.258-0.18c-0.359-0.359-0.359-0.719-0.18-1.078c0.18-0.18,0.719-0.539,1.078-0.18l0.18,0.18c0-0.359,0.18-0.719,0.359-0.719c0.359-0.18,0.899-0.18,1.438,0.359c0.359,0.539,0.719,0.539,1.797,0.359c0.899,0,2.336-0.899,3.415-1.797c-3.055-0.539-1.258-2.516-0.359-3.235c-0.719-0.18-1.797-0.18-2.516,0.18c-3.774,1.977-7.728,4.313-10.244,3.594c0,0.359,0.18,0.719,0.359,1.078c-0.539,0-1.617,0-1.977-0.539c-0.18,0.359-0.539,1.258-0.18,1.977c-0.359-0.359-1.438-0.719-1.977-0.899c0.359,0.359,0,1.078,0.18,1.617c-0.539-0.539-1.438-0.899-1.797-0.539c-0.359,0.359-1.078,0.539-1.617,0.359c-0.359,0.539-0.899,0.899-1.438,1.078c0-0.359,0-0.899-0.18-1.078c-0.18,0.539-0.719,1.258-1.438,1.617c0-0.359,0-0.899-0.18-1.258c0,0.719-1.438,1.078-1.617,1.617c0.18-0.539,0.18-1.078,0.18-1.438c-0.359,0.539-0.899,1.078-1.797,1.258c0.18-0.359,0.359-0.719,0.18-1.078c-0.18,0.719-1.258,1.078-2.157,0.899c0,0.359-0.719,0.899-1.617,0.359c-0.539-0.18-0.899-0.719-0.539-1.078c-0.719,0-1.438-0.719-1.078-1.258c0-0.18,0.18-0.359,0.18-0.539c-0.539-0.359-0.719-1.078-0.18-1.617c0.18-0.18,0.719-0.18,1.078-0.18c0-1.438,1.258-1.438,1.797-0.359c0.359,0.539,1.438,1.438,2.336,1.258c0.359,0,0.539-0.18,0.899-0.18c1.078-0.359,3.235-1.258,4.493-2.336c0.18-0.539,0.18-0.899,0.18-1.258c-0.719,0.359-1.438,0.719-1.797,1.258v-0.539c-0.539,0-1.438-0.18-1.797-0.18c0.18-0.18,0.359-1.078,0.719-1.258c-0.899,0.18-1.797,0-2.516-0.18c0.359-0.359,0.359-0.899,0.539-1.438c-0.359,0.18-1.258-0.18-1.977,0c0.18-0.539,0.359-1.258,0.899-1.438c-0.719,0.18-1.617,0-2.516-0.359c0.719,0,1.078-0.899,1.617-0.899c-1.438,0-1.797-0.719-2.516-1.078c0.539,0.18,0.899-0.359,1.438-0.359c-0.539-0.18-1.438-1.078-1.078-1.617c-0.18,0.18-0.359,0.539-0.719,0.719c-0.359,0.18-1.078,0-1.617-0.539c-0.359-0.719-0.18-1.617,0.539-1.797c-0.899-0.18-0.899-1.078-0.539-1.438c0.18-0.359,0.899-0.899,1.258-0.359c0.18,0.18,0.359,0.539,0.539,0.719c-0.18-0.359-0.18-1.078-0.18-1.617c0.18-0.539,0.539-0.539,1.078-0.719c0.539,0,0.899,0.539,0.899,1.078s0.18,0.899,0.359,1.617c0-0.18,0.18-0.539,0.18-0.719c0-0.719,0.899-0.539,1.438-0.359c0.539,0.18,0.719,1.258,0,1.797c-0.359,0.359-0.18,0.899,0.18,1.258c1.258,1.977,3.415,3.594,5.212,3.774c0-0.719,0.359-1.438,0.899-1.977c0-0.359,0.18-0.899,0.359-1.258c0.18-1.078,0.719-1.617,1.438-1.258c-0.18-0.18-0.359-0.359-0.359-0.539c-0.539-0.539-1.078-1.438-0.719-2.157s1.438-0.539,1.797-0.18c-0.18-1.078,1.078-1.977,1.078-2.516c0.18,0.539,0.539,1.258,0.359,1.797c0.18-0.719,1.438-1.617,2.336-1.977c-0.359,0.539,0.719,1.438,0.539,1.977c0.359-0.899,1.797-1.438,2.875-1.438c-0.359,0.359-0.359,1.078-0.359,1.438c0.539,0,1.438-0.18,1.797-0.719c0,0.719-0.359,1.438-0.719,1.797c0.18-0.18,0.899-0.18,1.438-0.18c-0.539,0.539-0.359,1.078-0.899,1.438c0.719-0.359,1.617-0.359,1.797,0.359c0.359,0.539-0.18,1.438-0.539,1.977C333.406,133.376,333.046,133.736,332.866,133.736L332.866,133.736z" />
      <path fill="none" stroke="#000000" stroke-width="0.5391" d="M321.724,135.892c-1.258,0.539-1.617,1.797-1.797,2.516 M321.545,137.15c-1.797,1.078-2.516,1.977-2.157,3.954 M322.443,142.542c1.078-0.359,1.797-0.719,2.696-2.336 M324.6,140.924c-0.359,0.719,0,1.977-0.539,2.516c0.899-0.539,1.617-1.258,1.797-2.516 M324.959,142.901c0.719-0.359,1.797-1.438,2.336-2.696c-0.18,0.539,0,1.438-0.359,1.977c0.899-0.899,1.258-1.438,1.438-2.336c0,0.18,0.18,0.539,0.18,0.719c0.359-0.359,0.719-0.719,0.719-1.438 M329.272,139.666v0.899c0.719-0.539,0.899-1.258,0.899-2.157 M329.991,139.487c1.078-0.719,1.258-1.797,1.258-3.415 M331.249,137.869c0.719-0.539,0.899-0.899,0.899-2.516 M329.811,130.501c-0.359,0-0.719,0.18-0.719,0.719c0,0.359-0.539,0.899-0.539,1.438c-0.18,0.719-0.539,0.899-1.078,0.719c-0.539-0.359-0.539-0.359-0.539-0.899c0-0.719,0.899-0.899,0.899-1.617c0.18-0.359,0.359-0.899,0.539-0.899c-0.899,0.539-2.157,0.18-2.336-0.899 M331.429,131.04c-0.359,0.18-0.719-0.359-1.258-0.18c-0.18,0-0.719,0.18-0.899,0 M328.913,131.939c0.18,0.18,1.078,0.539,1.977,0.18c-0.719,0.18-1.258-0.719-0.539-1.258 M327.296,130.142c-0.719,0-1.258,0.539-1.078,1.078s0.899,0.539,1.438,0.18 M326.037,139.127c0.18-0.18,0.359-0.539,0.359-0.719c0.359,0,0.719-0.18,0.899-0.359c0.719,0,1.258-0.539,1.438-1.078c0.359,0,0.539-0.899,0.719-1.258c0.18,0.18,0.539,0,0.719-0.719c0.359,0.18,0.899,0,1.078-0.539 M323.881,133.197c0,0.18-0.359,0.539-0.719,0.719c0.18,0.359,0,1.258-0.359,1.438c0.18,0.359,0,0.899-0.18,1.258c0,0.18,0.18,0.719,0.18,0.899 M324.6,129.602c-0.359,0.899-0.18,1.977,0.539,2.157 M324.959,132.478c-0.18,0.899-0.18,2.157-0.359,2.696c-0.18,0.359-0.539,1.617,0.899,1.977c1.617,0.359,2.516,0.18,3.415-2.516 M331.609,141.643c0,0.18-0.18,0.539-0.539,0.539 M332.866,141.284c0,0.359-0.359,0.899-0.539,1.078 M334.125,140.924c0,0.359,0,0.899-0.359,1.078 M323.162,129.782c0.18,0,0.359,0.359,0.539,0.719c-0.539-0.359-1.078,0.539-0.719,1.078 M322.623,132.837c-0.18,0.18-0.539,0.359-0.719,0.539 M322.084,134.454c-0.18,0-0.359,0.18-0.539,0.18 M313.458,131.22c0-0.18,0-0.18,0.18-0.359 M311.84,130.68c-0.18,0-0.18,0-0.359-0.18 M312.02,133.197h0.359 M311.301,132.118c-0.359-0.359-0.899-0.539-1.078-0.539 M321.185,138.768c-1.258,1.078-1.797,1.977-1.977,3.235 M322.443,139.666c-0.359,0.719-0.899,1.258-1.438,1.617 M315.435,145.058c-1.438,0.359-2.516,0.18-3.594-0.539c-0.18-0.18-0.359-0.18-0.539-0.359 M320.826,142.542c-0.18,0.719-0.359,1.617-0.719,1.797c1.438-0.719,2.696-1.797,2.875-3.415 M310.402,145.956c0.539-0.18,1.078,0.18,1.438-0.18 M341.673,140.026c0.359,0.18,0.899,0.359,1.078,0.539c0.18-0.359,0.899-0.899,1.438-1.078 M328.913,143.8c-0.18-0.719,0.18-1.617,1.258-1.977 M321.904,146.855c0.18-0.359,0.18-0.899,0.359-1.258 M313.997,147.394c-0.18,0.359-0.539,0.719-0.539,1.078 M311.301,147.753c0,0,0-0.18,0.18-0.18c0.359-0.18,0.899-0.539,1.078-0.899 M335.742,145.238c-0.359,0.18-0.539,0-0.719-0.18 M335.562,146.136c0,0-0.18,0.18-0.359,0.18 M336.461,147.035c-0.18,0.18-0.359,0.359-0.539,0.359 M341.673,147.394c0.359-0.18,0.539-0.539,0.719-1.258 M339.336,147.214c0.539-0.18,0.899-0.539,1.438-1.078 M344.368,145.776c0-0.359,0-0.719,0.18-1.078 M357.667,147.394c-0.359-0.359-0.359-0.899,0.18-1.258c0.359-0.18,0.539-0.359,0.899-0.539 M346.705,141.104c-2.875-1.258-2.696-2.875-5.032-2.696 M359.464,146.675c0.18,0.18,0,0.719,0,0.899 M361.081,146.675c-0.18,0.539-0.18,0.719-0.18,1.258 M347.244,129.782h-1.438 M332.148,135.892c0,0.359,0.539,1.078,1.977,1.078c-0.18,0-0.359-0.18-0.359-0.18 M332.866,133.736c-0.18,0.18-0.359,0-0.359,0c-0.359-0.359,0.18-1.078,0.719-1.438c-0.539,0.18-0.899,0.18-1.258,0.18c-0.359,1.078-1.438,1.617-2.157,0.899c-0.18,0.719-1.078,1.617-1.797,1.438c-0.719-0.359-0.899-0.899-0.719-1.438c-0.899,1.078-1.977,0.359-2.336,0c-0.18-0.359,0-1.258,0.359-2.336" />
      <path fill="#000000" d="M344.368,140.565c-0.539,0.359-1.078,0-1.617,0.539c-0.359,0.359,0.18,0.539,0.539,0.539c-0.18,0.539-0.18,0.719,0.719,0.719c-0.359,0.539,0.719,0.719,0.539,1.438c0.539-0.539,0.539-1.258,0.359-1.797C344.728,141.463,343.829,141.104,344.368,140.565L344.368,140.565z" />
      <path fill="#073163" d="M328.014,134.814c-1.617,3.235-2.516,3.954-4.493,3.594c-0.899,0-1.078-1.258,0.18-1.438c1.078,0,1.977-1.438,2.696-3.055c0.359,0,0.719-0.18,0.899-0.539C327.116,133.915,327.296,134.455,328.014,134.814z M309.145,130.321c0.18,0.359,0.539,0.719,1.078,0.18c0.539-0.539,0.18-1.078-0.18-1.258c-0.539-0.18-1.617,0-2.157,0.899C308.426,129.962,308.965,129.962,309.145,130.321z M311.121,127.266c0.539,0.18,0.539,0.719,0.359,1.078c-0.18,0.18,0.359,0.539,0.899,0.539c0.359,0,0.719-0.539,0.539-0.899C312.739,127.446,312.379,127.266,311.121,127.266z M313.817,128.344c0.899,0.539,0,1.438,0.899,1.797c0.899,0.18,1.258-0.359,0.719-1.078C315.255,128.524,314.716,128.165,313.817,128.344z M309.863,133.916c0.539-0.18,0.719-0.719,0.539-1.078c-0.359-0.539-0.899-0.719-1.078,0c-0.359,0.719-0.899,0.539-1.258,0.359C308.605,134.095,309.504,134.095,309.863,133.916z M309.683,144.518c0.18,0.359,0.539,0.359,0.719,0.359c0.18-0.18,0.539-0.359,0.359-0.719c-0.359-0.719-1.438-0.719-2.336,0C308.785,143.979,309.504,144.159,309.683,144.518z M311.121,143.081c0.18,0.359,0.539,0.539,0.719,0.539c0.359-0.18,0.539-0.359,0.359-0.539c0-0.899-1.258-1.078-1.977-0.719C310.582,142.362,311.121,142.721,311.121,143.081z M310.762,147.034c0.18-0.359,0-0.539-0.359-0.719h0c-1.078-0.18-1.617,1.078-1.617,1.977c0.18-0.539,0.719-0.899,1.258-0.719C310.582,147.574,310.762,147.394,310.762,147.034z M311.481,148.652c-0.18,0.539-0.539,0.899-0.899,0.719c0.359,0.719,1.258,0.539,1.617,0.359c0.539-0.359,0.539-1.078,0.18-1.258C312.2,148.293,311.481,148.293,311.481,148.652z M334.664,144.519c0,0.359,0.539,0.539,0.719,0.18c0.18-0.18,0.359-0.539,0.18-0.719c-0.359-0.18-1.258-0.539-1.977,0C334.125,143.8,334.484,144.159,334.664,144.519z M334.125,145.597c0.18-0.18,0.18-0.359-0.18-0.359c-0.719-0.359-1.617,0.539-1.797,1.258c0.18-0.18,0.899-0.539,1.258-0.539C333.765,146.136,334.125,145.956,334.125,145.597z M334.844,146.675c-0.539,0-1.258,0.719-1.258,1.438c0.18-0.359,0.539-0.539,0.899-0.359c0.359,0,0.899-0.18,0.899-0.539S335.203,146.675,334.844,146.675z M335.562,148.652c0,0.539,0,1.078-0.18,1.258c0.359-0.359,0.719-0.539,1.078-0.719c0.18-0.18,0.359-0.719,0-1.078C336.101,147.933,335.562,148.113,335.562,148.652z M355.69,146.675c-0.18,0.359-0.359,1.258,0,1.977c0-0.359,0.359-0.899,0.719-0.899c0.539-0.18,0.719-0.899,0.359-1.258C356.409,146.136,355.87,146.316,355.69,146.675z M357.847,147.214c-0.719,0.359-0.719,1.617-0.18,2.336c0-0.359,0.18-0.899,0.539-1.078c0.539,0,0.719-0.719,0.539-1.078C358.386,147.034,358.026,147.214,357.847,147.214z M360.003,147.933c-0.359-0.18-0.719,0.18-0.719,0.539c-0.18,0.539,0.18,1.258,0.719,1.617c0-0.359,0.18-0.719,0.359-0.899C360.902,148.832,360.722,148.113,360.003,147.933z M362.16,148.472c0.18-0.359,0-0.719-0.539-0.719c-0.359,0-0.719,0.539-0.359,1.078c0.18,0.359,0.539,0.539,1.258,0.359C362.34,149.191,361.98,148.652,362.16,148.472z" />
      <path fill="#F9D050" d="M311.661,181.36l3.425-10.549l-8.996-6.524h11.114l3.443-10.603l3.443,10.603h11.114l-8.996,6.524l3.425,10.549l-8.986-6.516L311.661,181.36z M359.993,170.811l8.996-6.524h-11.114l-3.443-10.603l-3.443,10.603h-11.114l8.996,6.524l-3.425,10.549l8.986-6.516l8.986,6.516L359.993,170.811z M340.982,183.876l-3.443-10.603l-3.443,10.603h-11.114l8.996,6.524l-3.425,10.549l8.986-6.516l8.986,6.516L343.1,190.4l8.996-6.524H340.982z" />
      <path fill="#024919" d="M361.441,178.844l-7.064-5.213l-7.133,5.213l2.766-8.435l-7.079-5.223h8.791l2.71-8.267l2.643,8.267h8.859l-7.181,5.248L361.441,178.844z M320.591,173.631l7.064,5.213l-2.689-8.41l7.181-5.248h-8.859l-2.643-8.267l-2.71,8.267h-8.791l7.079,5.223l-2.766,8.435L320.591,173.631z M340.182,184.775l-2.643-8.267l-2.71,8.267h-8.791l7.079,5.223l-2.766,8.435l7.133-5.213l7.064,5.213l-2.689-8.41l7.181-5.248H340.182z" />
      <path fill="none" stroke="#000000" stroke-width="0.5391" d="M371.146,124.93v35.044c0,30.372-14.377,40.795-33.606,49.062c-19.229-8.267-33.786-18.69-33.786-49.062V124.93H371.146L371.146,124.93z" />
    </g>
  </g>
</svg>
