<svg xmlns="http://www.w3.org/2000/svg" width="450px" height="300px" viewBox="0 0 450 300">
  <path fill="#FFBE29" d="M0,0h450v300H0V0z" />
  <path fill="#EB7400" d="M21,28h117v244H21V28z" />
  <path fill="#00534E" d="M21,28h58.5v244H21V28z" />
  <path fill="#8D153A" d="M159,28h270v244H159V28z" />
  <path fill="#FFBE29" stroke="#000000" stroke-width="2.0918" d="M251.408,220.993l1.712-0.964l0.732,0.966c0.975,1.287,3.675,1.272,5.466-0.03l1.37-0.995l1.147,0.995c1.508,1.309,4.323,1.311,6.121,0.005c1.259-0.915,1.434-0.933,2.266-0.237c0.496,0.415,1.951,0.887,3.234,1.05c2.31,0.293,2.345,0.276,3.696-1.702c1.132-1.657,1.309-2.327,1.039-3.934c-0.179-1.065-0.372-2.78-0.429-3.81c-0.103-1.865-0.091-1.877,2.693-2.823c1.538-0.523,3.318-1.223,3.956-1.557c1.112-0.582,4.179-4.098,4.179-4.791c0-0.184-1.198-0.465-2.662-0.625c-5.824-0.637-6.81-3.689-3.024-9.356c6.174-9.243,9.9-18.244,9.924-23.977c0.011-2.563,0.161-3.423,0.498-2.866c1.379,2.278-1.092,11.828-4.835,18.686l-1.507,2.762l1.438-0.323c0.791-0.178,5.442-2.092,10.335-4.255c13.394-5.919,17.995-7.079,26.663-6.722c7.262,0.298,10.355,1.683,15.482,6.93c2.716,2.78,5.333,4.769,10.12,7.692c10.198,6.228,10.623,6.768,11.108,14.092c0.491,7.421,0.247,7.824-5.506,9.064c-4.917,1.06-7.999,3.296-8.826,6.404c-0.441,1.659,0.488,1.707,2.967,0.153l1.817-1.139l0.808,1.139c1.062,1.498,3.32,1.504,5.194,0.014l1.416-1.125l1.448,1.125c2.249,1.749,5.24,1.325,6.084-0.863c0.162-0.42,0.595-0.286,1.472,0.458c1.643,1.393,5.855,1.991,6.31,0.895c0.174-0.418-0.156-1.45-0.733-2.294c-2.451-3.585-3.217-5.295-3.249-7.247c-0.044-2.715,0.786-4.024,3.95-6.232c3.844-2.682,5.032-6.142,2.109-6.142c-1.805,0-3.624-1.557-4.785-4.093c-2.359-5.156-1.896-10.937,1.644-20.554c3.596-9.768,3.995-11.569,4.009-18.102c0.012-5.282-0.125-6.196-1.356-9.092c-0.753-1.771-2.281-4.407-3.396-5.859l-2.026-2.639l2.602-2.103c7.944-6.421,6.319-16.931-3.244-20.98c-2.926-1.239-3.657-1.348-8.783-1.315c-3.076,0.02-7.766,0.415-10.422,0.878c-2.708,0.472-7.293,0.851-10.438,0.863c-4.996,0.02-5.844-0.101-7.769-1.1c-2.008-1.043-2.352-1.538-2.745-3.948c-0.081-0.495-0.436-0.99-0.789-1.098c-0.683-0.21-3.836,2.46-4.302,3.643c-0.23,0.584-0.417,0.543-1.092-0.235c-0.448-0.517-1.073-1.704-1.39-2.639c-0.796-2.35,0.181-4.112,3.013-5.432l2.197-1.024l-1.295-0.784c-2.673-1.618-7.218-0.511-8.862,2.159c-0.465,0.755-0.972,1.374-1.127,1.376c-0.155,0.001-1.039-0.719-1.964-1.601c-3.451-3.29-2.264-8.158,2.352-9.645c2.462-0.793,4.64-0.188,5.093,1.414c0.692,2.445,2.843-0.769,2.457-3.671c-0.257-1.93-0.218-1.997,1.151-1.997c1.903,0,5.954,2.437,7.207,4.336c1.455,2.205,1.349,5.678-0.252,8.267l-1.257,2.032l1.645-0.321c2.412-0.471,4.755-1.933,5.941-3.705c1.253-1.874,1.388-5.522,0.277-7.491c-1.077-1.908-0.953-2.211,0.639-1.566c2.708,1.097,4.155,2.306,5.241,4.379c0.978,1.867,1.033,2.331,0.503,4.274c-0.327,1.199-1.053,2.776-1.615,3.505c-0.875,1.135-0.904,1.325-0.208,1.325c1.298,0,4.007-1.198,4.97-2.198c0.486-0.505,1.195-1.748,1.575-2.763l0.691-1.845l0.794,1.406c1.123,1.989,3.307,3.778,5.969,4.892c2.863,1.198,4.056,1.265,2.558,0.145c-1.01-0.756-2.87-6.082-2.306-6.603c0.332-0.307,4.219,2.612,8.658,6.5c4.199,3.678,6.837,4.883,10.694,4.883c4.926,0,7.795-4.184,5.581-8.141c-1.291-2.307-4.167-2.627-5.848-0.652c-0.773,0.908-0.986,1.631-0.759,2.584c0.277,1.167,0.169,1.323-0.921,1.323c-1.432,0-4.255-1.788-9.268-5.869c-7.645-6.224-16.933-11.5-23.641-13.427c-4.304-1.237-13.499-1.719-17.875-0.938c-4.736,0.845-10.337,3.49-13.388,6.32c-5.407,5.016-5.493,11.69-0.228,17.769l1.508,1.741l-1.021,1.547c-1.485,2.251-1.358,5.281,0.315,7.512c0.737,0.983,1.481,1.787,1.652,1.786c0.172,0,0.36-0.632,0.418-1.404c0.148-1.952,1.007-3.26,2.481-3.778c1.328-0.466,2.186-0.246,8.265,2.121c6.395,2.491,16.912,2.662,28.096,0.457c5.482-1.081,11.947-1.017,14.791,0.145c5.213,2.131,6.422,7.675,2.589,11.884c-1.659,1.822-3.259,2.564-8.631,4.002c-4.088,1.095-5.056,1.167-14.347,1.077c-7.938-0.077-10.79,0.071-14.031,0.732c-3.518,0.717-5.681,0.789-16.015,0.535l-11.948-0.294l1.325,1.07c0.729,0.589,1.758,1.313,2.288,1.61c0.901,0.505,0.871,0.572-0.468,1.057c-0.787,0.285-2.534,0.518-3.882,0.518h-2.451l-0.33,2.032c-0.181,1.118-0.168,2.423,0.03,2.9c0.292,0.704,0.183,0.805-0.577,0.535c-0.516-0.183-1.951-0.542-3.191-0.799c-1.239-0.257-2.907-0.779-3.707-1.161c-1.345-0.643-1.494-0.625-1.989,0.23c-0.442,0.764-4.594,3.779-5.204,3.779c-0.098,0-0.225-0.581-0.282-1.292c-0.057-0.711-0.656-2.56-1.331-4.111c-0.675-1.55-1.38-3.242-1.567-3.758c-0.281-0.78-0.409-0.82-0.748-0.235c-0.225,0.388-0.553,1.445-0.73,2.349c-0.176,0.904-0.802,2.373-1.39,3.265l-1.069,1.62l-0.682-1.386c-0.732-1.487-1.948-3.03-2.388-3.03c-0.149,0-0.402,0.476-0.562,1.057c-0.336,1.214-3.218,4.58-3.922,4.58c-0.259,0-0.471-0.951-0.471-2.114s-0.229-2.114-0.508-2.114s-0.508,0.301-0.508,0.669c0,0.894-2.462,3.559-3.288,3.559c-0.36,0-0.94,0.317-1.288,0.705c-0.908,1.011-1.65,0.869-1.269-0.242c0.179-0.521,0.063-1.736-0.259-2.701c-0.321-0.965-0.663-1.992-0.759-2.282c-0.121-0.366-1.003-0.269-2.871,0.315c-3.017,0.944-4.029,0.777-2.477-0.409c0.567-0.433,1.43-1.935,1.917-3.337c0.487-1.402,1.206-2.646,1.598-2.764c0.548-0.166,0.519,0.039-0.127,0.891c-0.461,0.609-0.84,1.43-0.842,1.824c0,0.395-0.349,1.33-0.772,2.079s-0.688,1.436-0.59,1.526c0.098,0.091,1.246-0.335,2.551-0.946l2.373-1.11l0.01,0.993c0.006,0.546,0.291,1.987,0.635,3.202l0.626,2.209l1.615-0.724c1.651-0.74,3.214-3.38,3.214-5.426c0-1.012,0.594-0.856,0.837,0.219c0.071,0.315,0.444,1.5,0.828,2.631l0.699,2.058l1.106-1.299c0.608-0.715,1.371-2.116,1.695-3.115c0.562-1.733,1.445-2.479,1.445-1.22c0,0.907,2.537,4.161,3.027,3.881c0.237-0.135,0.708-1.356,1.047-2.713c0.705-2.823,1.843-4.742,2.566-4.329c0.272,0.155,0.378,0.457,0.235,0.67s0.442,2.048,1.299,4.078c0.857,2.03,1.717,4.074,1.912,4.542c0.313,0.752,0.596,0.643,2.432-0.94c1.143-0.985,2.18-2.087,2.305-2.45c0.189-0.548,0.444-0.528,1.512,0.119c1.495,0.905,6.519,2.363,6.907,2.004c0.145-0.134,0.294-1.422,0.331-2.861l0.067-2.617l1.445,0.292c0.795,0.161,2.466,0.151,3.713-0.022l2.268-0.314l-2.022-1.353c-1.112-0.744-2.236-1.707-2.498-2.14c-0.279-0.461-1.269-0.853-2.39-0.946c-3.029-0.251-8.397-3.189-8.397-4.595c0-0.264,0.744,0.185,1.652,0.998c2.016,1.803,4.817,2.935,7.263,2.935h1.83l-1.132-1.469c-0.65-0.844-1.234-2.445-1.371-3.762c-0.218-2.1-0.445-2.433-2.692-3.957c-1.35-0.915-3.021-2.288-3.715-3.049l-1.261-1.385l-0.643,1.644c-0.354,0.904-0.786,1.644-0.961,1.644s-0.855-0.529-1.512-1.174c-0.657-0.646-1.326-1.172-1.487-1.169s-0.743,0.873-1.293,1.933l-1,1.928l-0.773-1.111c-0.425-0.611-1.429-1.693-2.231-2.403s-1.224-1.292-0.937-1.292c0.286,0,1.276,0.74,2.2,1.645l1.679,1.645l0.683-1.205c0.405-0.715,0.557-1.814,0.374-2.702c-0.268-1.295-0.23-1.37,0.279-0.557c0.324,0.517,1.306,1.507,2.183,2.202l1.595,1.262l1.1-1.967c1.095-1.957,1.103-1.961,1.601-0.792c0.666,1.563,5.489,5.42,9.594,7.674c0.633,0.347,0.366-0.847-0.803-3.594c-0.31-0.727-0.563-2.039-0.563-2.914c0-1.299-0.384-1.877-2.086-3.14c-2.457-1.825-3.252-3.122-3.715-6.066c-0.188-1.192-0.618-2.519-0.956-2.947c-0.501-0.636-0.584-0.28-0.45,1.933c0.09,1.492-0.108,3.346-0.442,4.121l-0.606,1.409l-0.469-1.174c-0.258-0.646-1.398-1.769-2.534-2.496c-1.136-0.727-1.933-1.444-1.771-1.593c0.161-0.149,1.33,0.513,2.596,1.472c1.93,1.461,2.355,1.619,2.622,0.976c0.314-0.756,0-4.046-0.607-6.345c-0.303-1.148-0.276-1.142,1.175,0.274c1.07,1.044,1.662,2.29,2.121,4.463c0.583,2.761,0.876,3.22,3.493,5.462c1.571,1.346,2.938,2.372,3.038,2.279c0.1-0.092,0.298-3.574,0.441-7.738c0.273-7.984-0.036-9.883-2.006-12.35l-1.012-1.267l1.592-1.675c2.076-2.185,3.03-3.937,3.443-6.326l0.336-1.944l-1.796,1.66c-1.471,1.359-2.173,1.66-3.877,1.66c-1.687,0-2.346-0.276-3.483-1.458c-1.364-1.418-3.781-2.782-6.105-3.446c-0.859-0.245-1.144-0.138-1.144,0.428c0,0.415-0.474,1.614-1.054,2.664l-1.054,1.909l-2.208-2.129c-1.354-1.306-2.962-2.323-4.157-2.63c-3.055-0.784-3.22-0.706-3.22,1.515c0,3.368-1.474,3.996-4.127,1.757c-2.022-1.707-3.7-2.078-7.535-1.667l-2.962,0.318l0.533,1.304c0.445,1.09,0.345,1.549-0.609,2.786c-1.547,2.007-3.558,2.877-6.654,2.877c-1.426,0-3.21,0.288-3.965,0.64c-0.755,0.352-2.631,0.757-4.169,0.901c-1.538,0.144-3.177,0.4-3.643,0.57c-0.728,0.265-0.808,0.047-0.574-1.57c0.359-2.474-1.412-4.299-4.172-4.299c-3.581,0-5.233,3.126-3.831,7.248c0.27,0.793,0.623,2.045,0.785,2.781c0.168,0.764,1.781,2.79,3.757,4.719c1.905,1.859,3.704,3.794,4,4.299c0.295,0.505,1.272,1.316,2.171,1.802l1.634,0.883l-0.215-1.705c-0.237-1.874,0.182-2.168,1.204-0.846c0.365,0.473,1.293,1.237,2.062,1.698c1.211,0.727,1.398,0.741,1.398,0.11c0-0.4,0.247-1.323,0.549-2.051l0.549-1.322l0.952,1.799c0.524,0.99,2.227,3.239,3.784,4.998c3.023,3.414,4.864,7.229,3.914,8.107c-0.385,0.356-1.428,0.329-3.587-0.095c-1.674-0.328-3.745-0.502-4.602-0.386c-1.75,0.237-1.888,0.017-0.812-1.298c1.136-1.388,0.955-1.617-1.276-1.617c-2.582,0-8.991-1.208-11.452-2.157c-2.392-0.924-2.944-0.694-3.648,1.52c-0.317,0.996-0.897,2.802-1.29,4.012l-0.713,2.2l2.588-0.243c1.424-0.134,3.255-0.438,4.069-0.676c0.814-0.238,1.554-0.364,1.645-0.281c0.09,0.083-0.273,0.943-0.807,1.911l-0.971,1.759l1.614-0.321c0.888-0.177,2.223-0.609,2.968-0.96c1.296-0.611,1.4-0.567,2.421,1.033c1.257,1.968,2.262,1.887,2.485-0.2c0.231-2.158,0.958-1.839,2.326,1.021c1.316,2.749,2.685,3.72,2.948,2.09c0.087-0.541,0.796-1.422,1.575-1.958c1.576-1.083,2.763-0.758,3.444,0.942c0.705,1.76-0.867,3.575-5.439,6.279c-9.158,5.417-14.482,12.825-16.002,22.267c-1.371,8.517,2.911,17.317,11.5,23.638c4.11,3.025,10.64,6.218,10.225,4.999c-1.762-5.173-1.704-15.045,0.098-16.71c0.27-0.25,0.177,0.78-0.207,2.289c-1.431,5.62-0.809,10.099,2.859,20.595c3.318,9.493,2.859,13.55-1.837,16.232c-1.508,0.861-2.479,1.003-6.534,0.955c-4.4-0.052-4.879,0.034-6.292,1.132c-1.369,1.065-3.145,4.561-3.145,6.192c0,0.884,1.006,0.767,2.983-0.347L251.408,220.993z M322.828,220.801l1.846-1.157l1.253,1.157c1.641,1.516,3.563,1.482,5.141-0.091c0.688-0.686,1.307-1.162,1.374-1.057s0.374,0.614,0.682,1.131c0.39,0.654,1.192,0.983,2.639,1.083c1.744,0.12,2.212-0.045,2.905-1.022l0.826-1.165l1.817,1.139c4.974,3.119,7.624-0.153,5.402-6.67c-1.13-3.313-0.509-5.176,3.134-9.393c1.536-1.778,2.794-3.676,2.796-4.218c0-0.863-0.284-0.979-2.329-0.94c-1.957,0.038-2.529-0.167-3.559-1.273c-1.675-1.799-1.576-3.859,0.297-6.146l1.496-1.827l-2.654-1.757c-1.46-0.967-4.092-3.253-5.849-5.081c-3.947-4.106-7.828-6.053-12.946-6.495l-3.432-0.296l0.005,2.534c0.007,3.263,1.576,6.401,5.859,11.717c4.87,6.044,5.21,6.98,5.408,14.881l0.167,6.681l-1.409,1.305c-1.273,1.179-1.848,1.329-5.957,1.56c-3.912,0.22-4.734,0.417-5.882,1.409c-1.525,1.318-1.981,2.035-2.451,3.855c-0.274,1.061-0.163,1.292,0.621,1.292C320.552,221.959,321.812,221.438,322.828,220.801L322.828,220.801z M218.938,201.472c0-0.845,0.387-1.07,2.289-1.334l2.289-0.317l-1.527-1.187c-1.814-1.41-1.982-2.512-0.383-2.515c1.592,0,4.289-1.613,4.699-2.807c0.191-0.555,0.071-1.296-0.271-1.677c-0.893-0.994-2.571-0.844-2.883,0.257c-0.335,1.184-0.896,1.187-2.168,0.012c-1.913-1.768-1.956-5.428-0.089-7.559c0.88-1.004,0.872-1.07-0.25-2.107c-1.207-1.115-2.069-3.323-1.502-3.847c0.18-0.167,1.134-0.034,2.119,0.295c1.4,0.468,1.953,0.475,2.529,0.032c1.747-1.34-0.146-3.062-2.947-2.682c-1.128,0.153-1.593,0-1.755-0.571c-0.122-0.433-1.109-0.998-2.22-1.272c-1.985-0.49-1.999-0.484-1.999,0.851c0,1.463-0.856,1.738-2.482,0.8c-1.321-0.762-2.602-0.171-2.602,1.202c0,1.281,1.32,1.912,3.686,1.764c1.815-0.114,1.882,1.202,0.159,3.095l-1.239,1.361l0.982,1.376c1.454,2.038,1.332,5.423-0.257,7.105l-1.245,1.318l-0.817-1.057c-1.135-1.469-2.688-1.37-3.114,0.197c-0.279,1.027-0.048,1.496,1.269,2.584c0.886,0.731,2.178,1.329,2.873,1.329c1.719,0,1.652,1.319-0.135,2.651l-1.398,1.043l2.161,0.327c1.188,0.18,2.161,0.518,2.161,0.752c0,0.896,0.56,3.615,1.979,3.683C218.116,204.636,218.908,202.756,218.938,201.472L218.938,201.472z M246.281,191.634c1.963-0.755,6.211-4.265,6.211-5.132c0-0.273-1.173-1.531-2.606-2.796c-3.016-2.663-6.297-7.147-7.147-9.769c-0.443-1.367-2.585-3.707-8.618-9.416l-8.028-7.597l-2.314,0.572c-1.273,0.315-2.825,0.579-3.45,0.589c-1.077,0.016-1.058,0.076,0.374,1.158l1.511,1.141l2.118-1.147c2.053-1.112,2.127-1.119,2.38-0.224c0.148,0.524-0.172,1.432-0.739,2.099c-0.55,0.646-0.864,1.38-0.697,1.63c0.167,0.25-0.362,0.772-1.175,1.161c-1.508,0.72-2.554,3.092-1.364,3.092c1.07,0,3.43-2.841,3.158-3.802c-0.139-0.492-0.072-0.998,0.15-1.125c0.919-0.525,0.862,1.706-0.072,2.803c-0.55,0.647-0.864,1.38-0.697,1.63c0.167,0.25-0.362,0.772-1.175,1.161c-1.498,0.716-2.555,3.092-1.375,3.092c1.156,0,3.477-2.715,3.19-3.731c-0.15-0.531-0.092-1.07,0.129-1.196c0.619-0.354,0.953,1.407,0.43,2.27c-0.28,0.462-0.277,1.093,0.007,1.593c0.514,0.906-0.007,2.647-0.955,3.188c-0.406,0.232-0.131,0.687,0.854,1.413c1.426,1.051,1.453,1.161,1.453,5.796c0,3.874,0.16,4.873,0.89,5.548c0.818,0.757,0.89,0.759,0.89,0.034c0-0.793,1.426-1.761,2.592-1.761c0.344,0,2.494,1.778,4.777,3.95c2.297,2.186,4.701,4.046,5.382,4.164c0.677,0.118,1.409,0.243,1.628,0.278C244.211,192.333,245.241,192.034,246.281,191.634L246.281,191.634z M221.735,172.894c0-1.249-2.64-2.582-5.798-2.927c-2.549-0.279-2.591-0.263-2.591,0.979c0,1.029,0.401,1.433,2.161,2.181C218.334,174.328,221.734,174.201,221.735,172.894L221.735,172.894z M224.628,172.78c1.288-1.14,1.898-2.496,1.123-2.496c-0.891,0-3.256,2.071-3.256,2.851C222.495,174.352,222.935,174.279,224.628,172.78L224.628,172.78z M221.884,169.087c0.109-0.705-0.338-1.175-1.676-1.765c-2.888-1.273-6.341-1.862-7.172-1.224c-1.532,1.175-0.511,2.752,1.964,3.035c0.997,0.114,2.348,0.411,3.003,0.659C219.905,170.513,221.714,170.184,221.884,169.087z M221.884,165.314c0.155-1.005-0.503-1.365-5.881-3.211c-4.014-1.379-5.792-0.729-4.509,1.649c0.447,0.828,1.197,1.207,2.879,1.453c1.251,0.183,2.961,0.54,3.8,0.794C220.415,166.677,221.71,166.438,221.884,165.314L221.884,165.314z M224.577,161.778c0.811-0.802,1.475-1.749,1.475-2.104c0-1.152-3.204,0.886-3.613,2.297C221.95,163.663,222.744,163.591,224.577,161.778L224.577,161.778z M221.884,161.54c0.177-1.145-1.775-2.179-5.612-2.973c-2.815-0.583-4.057-0.252-3.846,1.024c0.115,0.697,1.053,1.206,3.713,2.016C220.395,162.903,221.675,162.888,221.884,161.54L221.884,161.54z M225.637,156.212c4.917-2.136,5.343-7.522,0.706-8.935c-1.925-0.587-3.154-0.271-3.891,1.002c-0.564,0.974-0.187,2.746,0.585,2.746c0.261,0,0.474,0.328,0.474,0.729c0,1.87-7.508,2.717-10.587,1.195c-1.082-0.535-1.553-1.923-0.652-1.923c0.673,0,1.138-1.415,0.794-2.416c-0.468-1.363-1.877-1.836-3.919-1.315c-4.609,1.176-4.48,6.46,0.213,8.703C213.207,157.835,221.643,157.947,225.637,156.212L225.637,156.212z M222.579,152.071c0.285-0.263,0.161-0.667-0.316-1.034c-1.045-0.802-0.99-1.994,0.157-3.359c0.861-1.025,0.969-2.559,1.265-18.033c0.511-26.666,2.543-46.723,5.222-51.534c1.066-1.916,0.917-1.923-1.839-0.094c-3.55,2.357-6.253,5.425-8.648,9.818c-4.521,8.294-6.093,19.452-6.093,43.271c0,13.524,0.094,15.294,0.884,16.565c0.75,1.208,0.79,1.654,0.263,2.943c-0.341,0.836-0.496,1.635-0.344,1.776c1.009,0.933,8.363,0.685,9.449-0.318L222.579,152.071L222.579,152.071z M263.893,126.643c0.154-0.23-0.186-1.393-0.756-2.584c-0.889-1.857-1.247-2.165-2.513-2.165c-3.966,0-10.342-1.729-16.915-4.588c-3.796-1.651-5.107-2.03-5.562-1.609c-1.161,1.073,0.769,3.62,3.758,4.959c2.652,1.188,10.065,2.647,13.446,2.647c1.962,0,2.008,0.086,0.892,1.661l-0.821,1.158l2.219,0.056c1.221,0.031,2.905,0.217,3.744,0.414C263.564,127.104,263.585,127.105,263.893,126.643L263.893,126.643z" />
  <path fill="#FFBE29" d="M251.408,220.993l1.712-0.964l0.732,0.966c0.975,1.287,3.675,1.272,5.466-0.03l1.37-0.995l1.147,0.995c1.508,1.309,4.323,1.311,6.121,0.005c1.259-0.915,1.434-0.933,2.266-0.237c0.496,0.415,1.951,0.887,3.234,1.05c2.31,0.293,2.345,0.276,3.696-1.702c1.132-1.657,1.309-2.327,1.039-3.934c-0.179-1.065-0.372-2.78-0.429-3.81c-0.103-1.865-0.091-1.877,2.693-2.823c1.538-0.523,3.318-1.223,3.956-1.557c1.112-0.582,4.179-4.098,4.179-4.791c0-0.184-1.198-0.465-2.662-0.625c-5.824-0.637-6.81-3.689-3.024-9.356c6.174-9.243,9.9-18.244,9.924-23.977c0.011-2.563,0.161-3.423,0.498-2.866c1.379,2.278-1.092,11.828-4.835,18.686l-1.507,2.762l1.438-0.323c0.791-0.178,5.442-2.092,10.335-4.255c13.394-5.919,17.995-7.079,26.663-6.722c7.262,0.298,10.355,1.683,15.482,6.93c2.716,2.78,5.333,4.769,10.12,7.692c10.198,6.228,10.623,6.768,11.108,14.092c0.491,7.421,0.247,7.824-5.506,9.064c-4.917,1.06-7.999,3.296-8.826,6.404c-0.441,1.659,0.488,1.707,2.967,0.153l1.817-1.139l0.808,1.139c1.062,1.498,3.32,1.504,5.194,0.014l1.416-1.125l1.448,1.125c2.249,1.749,5.24,1.325,6.084-0.863c0.162-0.42,0.595-0.286,1.472,0.458c1.643,1.393,5.855,1.991,6.31,0.895c0.174-0.418-0.156-1.45-0.733-2.294c-2.451-3.585-3.217-5.295-3.249-7.247c-0.044-2.715,0.786-4.024,3.95-6.232c3.844-2.682,5.032-6.142,2.109-6.142c-1.805,0-3.624-1.557-4.785-4.093c-2.359-5.156-1.896-10.937,1.644-20.554c3.596-9.768,3.995-11.569,4.009-18.102c0.012-5.282-0.125-6.196-1.356-9.092c-0.753-1.771-2.281-4.407-3.396-5.859l-2.026-2.639l2.602-2.103c7.944-6.421,6.319-16.931-3.244-20.98c-2.926-1.239-3.657-1.348-8.783-1.315c-3.076,0.02-7.766,0.415-10.422,0.878c-2.708,0.472-7.293,0.851-10.438,0.863c-4.996,0.02-5.844-0.101-7.769-1.1c-2.008-1.043-2.352-1.538-2.745-3.948c-0.081-0.495-0.436-0.99-0.789-1.098c-0.683-0.21-3.836,2.46-4.302,3.643c-0.23,0.584-0.417,0.543-1.092-0.235c-0.448-0.517-1.073-1.704-1.39-2.639c-0.796-2.35,0.181-4.112,3.013-5.432l2.197-1.024l-1.295-0.784c-2.673-1.618-7.218-0.511-8.862,2.159c-0.465,0.755-0.972,1.374-1.127,1.376c-0.155,0.001-1.039-0.719-1.964-1.601c-3.451-3.29-2.264-8.158,2.352-9.645c2.462-0.793,4.64-0.188,5.093,1.414c0.692,2.445,2.843-0.769,2.457-3.671c-0.257-1.93-0.218-1.997,1.151-1.997c1.903,0,5.954,2.437,7.207,4.336c1.455,2.205,1.349,5.678-0.252,8.267l-1.257,2.032l1.645-0.321c2.412-0.471,4.755-1.933,5.941-3.705c1.253-1.874,1.388-5.522,0.277-7.491c-1.077-1.908-0.953-2.211,0.639-1.566c2.708,1.097,4.155,2.306,5.241,4.379c0.978,1.867,1.033,2.331,0.503,4.274c-0.327,1.199-1.053,2.776-1.615,3.505c-0.875,1.135-0.904,1.325-0.208,1.325c1.298,0,4.007-1.198,4.97-2.198c0.486-0.505,1.195-1.748,1.575-2.763l0.691-1.845l0.794,1.406c1.123,1.989,3.307,3.778,5.969,4.892c2.863,1.198,4.056,1.265,2.558,0.145c-1.01-0.756-2.87-6.082-2.306-6.603c0.332-0.307,4.219,2.612,8.658,6.5c4.199,3.678,6.837,4.883,10.694,4.883c4.926,0,7.795-4.184,5.581-8.141c-1.291-2.307-4.167-2.627-5.848-0.652c-0.773,0.908-0.986,1.631-0.759,2.584c0.277,1.167,0.169,1.323-0.921,1.323c-1.432,0-4.255-1.788-9.268-5.869c-7.645-6.224-16.933-11.5-23.641-13.427c-4.304-1.237-13.499-1.719-17.875-0.938c-4.736,0.845-10.337,3.49-13.388,6.32c-5.407,5.016-5.493,11.69-0.228,17.769l1.508,1.741l-1.021,1.547c-1.485,2.251-1.358,5.281,0.315,7.512c0.737,0.983,1.481,1.787,1.652,1.786c0.172,0,0.36-0.632,0.418-1.404c0.148-1.952,1.007-3.26,2.481-3.778c1.328-0.466,2.186-0.246,8.265,2.121c6.395,2.491,16.912,2.662,28.096,0.457c5.482-1.081,11.947-1.017,14.791,0.145c5.213,2.131,6.422,7.675,2.589,11.884c-1.659,1.822-3.259,2.564-8.631,4.002c-4.088,1.095-5.056,1.167-14.347,1.077c-7.938-0.077-10.79,0.071-14.031,0.732c-3.518,0.717-5.681,0.789-16.015,0.535l-11.948-0.294l1.325,1.07c0.729,0.589,1.758,1.313,2.288,1.61c0.901,0.505,0.871,0.572-0.468,1.057c-0.787,0.285-2.534,0.518-3.882,0.518h-2.451l-0.33,2.032c-0.181,1.118-0.168,2.423,0.03,2.9c0.292,0.704,0.183,0.805-0.577,0.535c-0.516-0.183-1.951-0.542-3.191-0.799c-1.239-0.257-2.907-0.779-3.707-1.161c-1.345-0.643-1.494-0.625-1.989,0.23c-0.442,0.764-4.594,3.779-5.204,3.779c-0.098,0-0.225-0.581-0.282-1.292c-0.057-0.711-0.656-2.56-1.331-4.111c-0.675-1.55-1.38-3.242-1.567-3.758c-0.281-0.78-0.409-0.82-0.748-0.235c-0.225,0.388-0.553,1.445-0.73,2.349c-0.176,0.904-0.802,2.373-1.39,3.265l-1.069,1.62l-0.682-1.386c-0.732-1.487-1.948-3.03-2.388-3.03c-0.149,0-0.402,0.476-0.562,1.057c-0.336,1.214-3.218,4.58-3.922,4.58c-0.259,0-0.471-0.951-0.471-2.114s-0.229-2.114-0.508-2.114s-0.508,0.301-0.508,0.669c0,0.894-2.462,3.559-3.288,3.559c-0.36,0-0.94,0.317-1.288,0.705c-0.908,1.011-1.65,0.869-1.269-0.242c0.179-0.521,0.063-1.736-0.259-2.701c-0.321-0.965-0.663-1.992-0.759-2.282c-0.121-0.366-1.003-0.269-2.871,0.315c-3.017,0.944-4.029,0.777-2.477-0.409c0.567-0.433,1.43-1.935,1.917-3.337c0.487-1.402,1.206-2.646,1.598-2.764c0.548-0.166,0.519,0.039-0.127,0.891c-0.461,0.609-0.84,1.43-0.842,1.824c0,0.395-0.349,1.33-0.772,2.079s-0.688,1.436-0.59,1.526c0.098,0.091,1.246-0.335,2.551-0.946l2.373-1.11l0.01,0.993c0.006,0.546,0.291,1.987,0.635,3.202l0.626,2.209l1.615-0.724c1.651-0.74,3.214-3.38,3.214-5.426c0-1.012,0.594-0.856,0.837,0.219c0.071,0.315,0.444,1.5,0.828,2.631l0.699,2.058l1.106-1.299c0.608-0.715,1.371-2.116,1.695-3.115c0.562-1.733,1.445-2.479,1.445-1.22c0,0.907,2.537,4.161,3.027,3.881c0.237-0.135,0.708-1.356,1.047-2.713c0.705-2.823,1.843-4.742,2.566-4.329c0.272,0.155,0.378,0.457,0.235,0.67s0.442,2.048,1.299,4.078c0.857,2.03,1.717,4.074,1.912,4.542c0.313,0.752,0.596,0.643,2.432-0.94c1.143-0.985,2.18-2.087,2.305-2.45c0.189-0.548,0.444-0.528,1.512,0.119c1.495,0.905,6.519,2.363,6.907,2.004c0.145-0.134,0.294-1.422,0.331-2.861l0.067-2.617l1.445,0.292c0.795,0.161,2.466,0.151,3.713-0.022l2.268-0.314l-2.022-1.353c-1.112-0.744-2.236-1.707-2.498-2.14c-0.279-0.461-1.269-0.853-2.39-0.946c-3.029-0.251-8.397-3.189-8.397-4.595c0-0.264,0.744,0.185,1.652,0.998c2.016,1.803,4.817,2.935,7.263,2.935h1.83l-1.132-1.469c-0.65-0.844-1.234-2.445-1.371-3.762c-0.218-2.1-0.445-2.433-2.692-3.957c-1.35-0.915-3.021-2.288-3.715-3.049l-1.261-1.385l-0.643,1.644c-0.354,0.904-0.786,1.644-0.961,1.644s-0.855-0.529-1.512-1.174c-0.657-0.646-1.326-1.172-1.487-1.169s-0.743,0.873-1.293,1.933l-1,1.928l-0.773-1.111c-0.425-0.611-1.429-1.693-2.231-2.403s-1.224-1.292-0.937-1.292c0.286,0,1.276,0.74,2.2,1.645l1.679,1.645l0.683-1.205c0.405-0.715,0.557-1.814,0.374-2.702c-0.268-1.295-0.23-1.37,0.279-0.557c0.324,0.517,1.306,1.507,2.183,2.202l1.595,1.262l1.1-1.967c1.095-1.957,1.103-1.961,1.601-0.792c0.666,1.563,5.489,5.42,9.594,7.674c0.633,0.347,0.366-0.847-0.803-3.594c-0.31-0.727-0.563-2.039-0.563-2.914c0-1.299-0.384-1.877-2.086-3.14c-2.457-1.825-3.252-3.122-3.715-6.066c-0.188-1.192-0.618-2.519-0.956-2.947c-0.501-0.636-0.584-0.28-0.45,1.933c0.09,1.492-0.108,3.346-0.442,4.121l-0.606,1.409l-0.469-1.174c-0.258-0.646-1.398-1.769-2.534-2.496c-1.136-0.727-1.933-1.444-1.771-1.593c0.161-0.149,1.33,0.513,2.596,1.472c1.93,1.461,2.355,1.619,2.622,0.976c0.314-0.756,0-4.046-0.607-6.345c-0.303-1.148-0.276-1.142,1.175,0.274c1.07,1.044,1.662,2.29,2.121,4.463c0.583,2.761,0.876,3.22,3.493,5.462c1.571,1.346,2.938,2.372,3.038,2.279c0.1-0.092,0.298-3.574,0.441-7.738c0.273-7.984-0.036-9.883-2.006-12.35l-1.012-1.267l1.592-1.675c2.076-2.185,3.03-3.937,3.443-6.326l0.336-1.944l-1.796,1.66c-1.471,1.359-2.173,1.66-3.877,1.66c-1.687,0-2.346-0.276-3.483-1.458c-1.364-1.418-3.781-2.782-6.105-3.446c-0.859-0.245-1.144-0.138-1.144,0.428c0,0.415-0.474,1.614-1.054,2.664l-1.054,1.909l-2.208-2.129c-1.354-1.306-2.962-2.323-4.157-2.63c-3.055-0.784-3.22-0.706-3.22,1.515c0,3.368-1.474,3.996-4.127,1.757c-2.022-1.707-3.7-2.078-7.535-1.667l-2.962,0.318l0.533,1.304c0.445,1.09,0.345,1.549-0.609,2.786c-1.547,2.007-3.558,2.877-6.654,2.877c-1.426,0-3.21,0.288-3.965,0.64c-0.755,0.352-2.631,0.757-4.169,0.901c-1.538,0.144-3.177,0.4-3.643,0.57c-0.728,0.265-0.808,0.047-0.574-1.57c0.359-2.474-1.412-4.299-4.172-4.299c-3.581,0-5.233,3.126-3.831,7.248c0.27,0.793,0.623,2.045,0.785,2.781c0.168,0.764,1.781,2.79,3.757,4.719c1.905,1.859,3.704,3.794,4,4.299c0.295,0.505,1.272,1.316,2.171,1.802l1.634,0.883l-0.215-1.705c-0.237-1.874,0.182-2.168,1.204-0.846c0.365,0.473,1.293,1.237,2.062,1.698c1.211,0.727,1.398,0.741,1.398,0.11c0-0.4,0.247-1.323,0.549-2.051l0.549-1.322l0.952,1.799c0.524,0.99,2.227,3.239,3.784,4.998c3.023,3.414,4.864,7.229,3.914,8.107c-0.385,0.356-1.428,0.329-3.587-0.095c-1.674-0.328-3.745-0.502-4.602-0.386c-1.75,0.237-1.888,0.017-0.812-1.298c1.136-1.388,0.955-1.617-1.276-1.617c-2.582,0-8.991-1.208-11.452-2.157c-2.392-0.924-2.944-0.694-3.648,1.52c-0.317,0.996-0.897,2.802-1.29,4.012l-0.713,2.2l2.588-0.243c1.424-0.134,3.255-0.438,4.069-0.676c0.814-0.238,1.554-0.364,1.645-0.281c0.09,0.083-0.273,0.943-0.807,1.911l-0.971,1.759l1.614-0.321c0.888-0.177,2.223-0.609,2.968-0.96c1.296-0.611,1.4-0.567,2.421,1.033c1.257,1.968,2.262,1.887,2.485-0.2c0.231-2.158,0.958-1.839,2.326,1.021c1.316,2.749,2.685,3.72,2.948,2.09c0.087-0.541,0.796-1.422,1.575-1.958c1.576-1.083,2.763-0.758,3.444,0.942c0.705,1.76-0.867,3.575-5.439,6.279c-9.158,5.417-14.482,12.825-16.002,22.267c-1.371,8.517,2.911,17.317,11.5,23.638c4.11,3.025,10.64,6.218,10.225,4.999c-1.762-5.173-1.704-15.045,0.098-16.71c0.27-0.25,0.177,0.78-0.207,2.289c-1.431,5.62-0.809,10.099,2.859,20.595c3.318,9.493,2.859,13.55-1.837,16.232c-1.508,0.861-2.479,1.003-6.534,0.955c-4.4-0.052-4.879,0.034-6.292,1.132c-1.369,1.065-3.145,4.561-3.145,6.192c0,0.884,1.006,0.767,2.983-0.347L251.408,220.993z M322.828,220.801l1.846-1.157l1.253,1.157c1.641,1.516,3.563,1.482,5.141-0.091c0.688-0.686,1.307-1.162,1.374-1.057s0.374,0.614,0.682,1.131c0.39,0.654,1.192,0.983,2.639,1.083c1.744,0.12,2.212-0.045,2.905-1.022l0.826-1.165l1.817,1.139c4.974,3.119,7.624-0.153,5.402-6.67c-1.13-3.313-0.509-5.176,3.134-9.393c1.536-1.778,2.794-3.676,2.796-4.218c0-0.863-0.284-0.979-2.329-0.94c-1.957,0.038-2.529-0.167-3.559-1.273c-1.675-1.799-1.576-3.859,0.297-6.146l1.496-1.827l-2.654-1.757c-1.46-0.967-4.092-3.253-5.849-5.081c-3.947-4.106-7.828-6.053-12.946-6.495l-3.432-0.296l0.005,2.534c0.007,3.263,1.576,6.401,5.859,11.717c4.87,6.044,5.21,6.98,5.408,14.881l0.167,6.681l-1.409,1.305c-1.273,1.179-1.848,1.329-5.957,1.56c-3.912,0.22-4.734,0.417-5.882,1.409c-1.525,1.318-1.981,2.035-2.451,3.855c-0.274,1.061-0.163,1.292,0.621,1.292C320.552,221.959,321.812,221.438,322.828,220.801L322.828,220.801z M218.938,201.472c0-0.845,0.387-1.07,2.289-1.334l2.289-0.317l-1.527-1.187c-1.814-1.41-1.982-2.512-0.383-2.515c1.592,0,4.289-1.613,4.699-2.807c0.191-0.555,0.071-1.296-0.271-1.677c-0.893-0.994-2.571-0.844-2.883,0.257c-0.335,1.184-0.896,1.187-2.168,0.012c-1.913-1.768-1.956-5.428-0.089-7.559c0.88-1.004,0.872-1.07-0.25-2.107c-1.207-1.115-2.069-3.323-1.502-3.847c0.18-0.167,1.134-0.034,2.119,0.295c1.4,0.468,1.953,0.475,2.529,0.032c1.747-1.34-0.146-3.062-2.947-2.682c-1.128,0.153-1.593,0-1.755-0.571c-0.122-0.433-1.109-0.998-2.22-1.272c-1.985-0.49-1.999-0.484-1.999,0.851c0,1.463-0.856,1.738-2.482,0.8c-1.321-0.762-2.602-0.171-2.602,1.202c0,1.281,1.32,1.912,3.686,1.764c1.815-0.114,1.882,1.202,0.159,3.095l-1.239,1.361l0.982,1.376c1.454,2.038,1.332,5.423-0.257,7.105l-1.245,1.318l-0.817-1.057c-1.135-1.469-2.688-1.37-3.114,0.197c-0.279,1.027-0.048,1.496,1.269,2.584c0.886,0.731,2.178,1.329,2.873,1.329c1.719,0,1.652,1.319-0.135,2.651l-1.398,1.043l2.161,0.327c1.188,0.18,2.161,0.518,2.161,0.752c0,0.896,0.56,3.615,1.979,3.683C218.116,204.636,218.908,202.756,218.938,201.472L218.938,201.472z M246.281,191.634c1.963-0.755,6.211-4.265,6.211-5.132c0-0.273-1.173-1.531-2.606-2.796c-3.016-2.663-6.297-7.147-7.147-9.769c-0.443-1.367-2.585-3.707-8.618-9.416l-8.028-7.597l-2.314,0.572c-1.273,0.315-2.825,0.579-3.45,0.589c-1.077,0.016-1.058,0.076,0.374,1.158l1.511,1.141l2.118-1.147c2.053-1.112,2.127-1.119,2.38-0.224c0.148,0.524-0.172,1.432-0.739,2.099c-0.55,0.646-0.864,1.38-0.697,1.63c0.167,0.25-0.362,0.772-1.175,1.161c-1.508,0.72-2.554,3.092-1.364,3.092c1.07,0,3.43-2.841,3.158-3.802c-0.139-0.492-0.072-0.998,0.15-1.125c0.919-0.525,0.862,1.706-0.072,2.803c-0.55,0.647-0.864,1.38-0.697,1.63c0.167,0.25-0.362,0.772-1.175,1.161c-1.498,0.716-2.555,3.092-1.375,3.092c1.156,0,3.477-2.715,3.19-3.731c-0.15-0.531-0.092-1.07,0.129-1.196c0.619-0.354,0.953,1.407,0.43,2.27c-0.28,0.462-0.277,1.093,0.007,1.593c0.514,0.906-0.007,2.647-0.955,3.188c-0.406,0.232-0.131,0.687,0.854,1.413c1.426,1.051,1.453,1.161,1.453,5.796c0,3.874,0.16,4.873,0.89,5.548c0.818,0.757,0.89,0.759,0.89,0.034c0-0.793,1.426-1.761,2.592-1.761c0.344,0,2.494,1.778,4.777,3.95c2.297,2.186,4.701,4.046,5.382,4.164c0.677,0.118,1.409,0.243,1.628,0.278C244.211,192.333,245.241,192.034,246.281,191.634L246.281,191.634z M221.735,172.894c0-1.249-2.64-2.582-5.798-2.927c-2.549-0.279-2.591-0.263-2.591,0.979c0,1.029,0.401,1.433,2.161,2.181C218.334,174.328,221.734,174.201,221.735,172.894L221.735,172.894z M224.628,172.78c1.288-1.14,1.898-2.496,1.123-2.496c-0.891,0-3.256,2.071-3.256,2.851C222.495,174.352,222.935,174.279,224.628,172.78L224.628,172.78z M221.884,169.087c0.109-0.705-0.338-1.175-1.676-1.765c-2.888-1.273-6.341-1.862-7.172-1.224c-1.532,1.175-0.511,2.752,1.964,3.035c0.997,0.114,2.348,0.411,3.003,0.659C219.905,170.513,221.714,170.184,221.884,169.087z M221.884,165.314c0.155-1.005-0.503-1.365-5.881-3.211c-4.014-1.379-5.792-0.729-4.509,1.649c0.447,0.828,1.197,1.207,2.879,1.453c1.251,0.183,2.961,0.54,3.8,0.794C220.415,166.677,221.71,166.438,221.884,165.314L221.884,165.314z M224.577,161.778c0.811-0.802,1.475-1.749,1.475-2.104c0-1.152-3.204,0.886-3.613,2.297C221.95,163.663,222.744,163.591,224.577,161.778L224.577,161.778z M221.884,161.54c0.177-1.145-1.775-2.179-5.612-2.973c-2.815-0.583-4.057-0.252-3.846,1.024c0.115,0.697,1.053,1.206,3.713,2.016C220.395,162.903,221.675,162.888,221.884,161.54L221.884,161.54z M225.637,156.212c4.917-2.136,5.343-7.522,0.706-8.935c-1.925-0.587-3.154-0.271-3.891,1.002c-0.564,0.974-0.187,2.746,0.585,2.746c0.261,0,0.474,0.328,0.474,0.729c0,1.87-7.508,2.717-10.587,1.195c-1.082-0.535-1.553-1.923-0.652-1.923c0.673,0,1.138-1.415,0.794-2.416c-0.468-1.363-1.877-1.836-3.919-1.315c-4.609,1.176-4.48,6.46,0.213,8.703C213.207,157.835,221.643,157.947,225.637,156.212L225.637,156.212z M222.579,152.071c0.285-0.263,0.161-0.667-0.316-1.034c-1.045-0.802-0.99-1.994,0.157-3.359c0.861-1.025,0.969-2.559,1.265-18.033c0.511-26.666,2.543-46.723,5.222-51.534c1.066-1.916,0.917-1.923-1.839-0.094c-3.55,2.357-6.253,5.425-8.648,9.818c-4.521,8.294-6.093,19.452-6.093,43.271c0,13.524,0.094,15.294,0.884,16.565c0.75,1.208,0.79,1.654,0.263,2.943c-0.341,0.836-0.496,1.635-0.344,1.776c1.009,0.933,8.363,0.685,9.449-0.318L222.579,152.071L222.579,152.071z M263.893,126.643c0.154-0.23-0.186-1.393-0.756-2.584c-0.889-1.857-1.247-2.165-2.513-2.165c-3.966,0-10.342-1.729-16.915-4.588c-3.796-1.651-5.107-2.03-5.562-1.609c-1.161,1.073,0.769,3.62,3.758,4.959c2.652,1.188,10.065,2.647,13.446,2.647c1.962,0,2.008,0.086,0.892,1.661l-0.821,1.158l2.219,0.056c1.221,0.031,2.905,0.217,3.744,0.414C263.564,127.104,263.585,127.105,263.893,126.643L263.893,126.643z" />
  <path fill="#000000" d="M287.061,138.66c0-0.689-2.074-2.557-4.177-3.761c-1.651-0.945-1.923-0.974-1.927-0.203c-0.006,1.17-1.072,4.111-1.491,4.111c-0.236,0-0.585-0.575-0.776-1.277s-0.991-2.086-1.778-3.076l-1.432-1.799l-1.115,1.667c-1.039,1.554-2.839,3.075-3.638,3.075c-0.191,0-0.228-0.818-0.083-1.818c0.158-1.087,0.036-1.948-0.303-2.142c-0.312-0.178-0.566-0.116-0.566,0.138c0,0.585-2.5,3.352-3.029,3.352c-0.218,0-0.523-0.793-0.678-1.762s-0.418-2.502-0.585-3.406s0.189-0.291,0.791,1.363l1.095,3.007l1.201-1.833c0.66-1.008,1.202-2.109,1.203-2.448c0-0.338,0.225-0.488,0.496-0.333c0.271,0.155,0.649,1.367,0.84,2.692l0.346,2.41l1.321-1.413c0.727-0.777,1.578-1.818,1.892-2.312c0.56-0.882,0.592-0.882,1.706,0.04c0.625,0.517,1.585,1.753,2.134,2.747c0.549,0.994,1.072,1.734,1.161,1.644c0.09-0.09,0.291-1.114,0.447-2.277s0.295-2.157,0.31-2.21c0.078-0.288,3.979,2.186,5.423,3.439c0.928,0.805,1.809,1.351,1.958,1.214c0.149-0.138,0.271-1.326,0.271-2.64c0-2.037-0.221-2.583-1.498-3.696c-1.468-1.28-1.509-1.287-2.051-0.351c-0.704,1.215-1.534,1.233-1.534,0.032c0-0.876-2.774-4.244-3.496-4.244c-0.187,0-0.771,0.74-1.298,1.644c-0.527,0.904-1.094,1.643-1.259,1.642c-0.712-0.004-4.623-4.259-4.621-5.027c0-0.611,0.264-0.455,0.949,0.565c0.521,0.775,1.562,1.932,2.313,2.572c1.521,1.294,2.073,0.98,2.66-1.515c0.167-0.711,0.458-1.292,0.646-1.292c0.65,0,4.055,3.528,4.533,4.698l0.481,1.174l0.364-1.292c0.445-1.58,0.936-1.639,1.647-0.197c0.297,0.602,1.764,1.854,3.259,2.782l2.719,1.687l0.546-1.697c0.3-0.933,0.698-1.47,0.884-1.192c0.277,0.414-0.43,3.226-0.963,3.831c-0.08,0.091-0.961-0.41-1.958-1.113l-1.813-1.278l-0.007,2.287c-0.005,1.258-0.145,2.763-0.314,3.344C287.936,139.356,287.061,139.676,287.061,138.66L287.061,138.66z M273.504,120.426c-3.232-2.633-3.722-3.235-3.651-4.483l0.076-1.328l0.211,1.283c0.123,0.749,0.984,1.871,2.069,2.698l1.858,1.415l1.142-1.288c0.628-0.709,1.15-1.553,1.16-1.876c0.026-0.842,0.181-0.771,2.369,1.081c1.944,1.646,1.974,1.654,2.263,0.587c0.161-0.594,0.104-1.714-0.127-2.487c-0.635-2.126-0.511-2.447,0.452-1.165c0.48,0.639,1.251,1.542,1.714,2.007c0.806,0.809,0.855,0.799,1.155-0.235c0.172-0.594,0.316-1.682,0.32-2.417l0.007-1.336l1.753,1.939c1.637,1.811,1.788,1.878,2.288,1.015c0.294-0.508,0.539-1.73,0.543-2.716c0.006-1.274,0.143-1.595,0.475-1.11c0.554,0.81,0.169,3.015-0.854,4.894l-0.735,1.348l-0.965-1.466c-1.233-1.874-1.644-1.844-2.436,0.178c-0.748,1.911-1.234,2.057-1.963,0.587c-0.472-0.951-0.561-0.835-0.896,1.164l-0.372,2.221l-2.229-1.688l-2.229-1.688l-1.002,1.112c-0.551,0.611-1.01,1.376-1.019,1.699C274.858,121.07,274.322,121.091,273.504,120.426L273.504,120.426z M302.251,110.619c-1.176-1.034-1.987-2.021-1.801-2.192c0.186-0.172,0.395-0.221,0.465-0.109s1.031,1.098,2.137,2.192C305.597,113.029,305.074,113.1,302.251,110.619L302.251,110.619z M263.96,106.758c-1.07-1.412-0.996-2.347,0.306-3.877c0.941-1.106,1.371-1.256,3.015-1.052c1.054,0.131,3.323,1.04,5.042,2.02c1.985,1.132,4.038,1.89,5.628,2.079c1.377,0.163,2.503,0.225,2.503,0.137s-0.572-0.997-1.271-2.02c-1.66-2.43-1.603-2.691,0.269-1.235c1.922,1.494,4.221,1.931,9.358,1.779l2.51-0.074l-1.456-1.404c-2.036-1.964-1.41-2.14,0.839-0.236c2.109,1.786,1.977,1.912-2.462,2.344c-1.886,0.184-3.915,0.05-5.601-0.368c-2.523-0.626-2.621-0.616-2.143,0.209c0.275,0.476,0.722,0.865,0.991,0.865c0.27,0,0.491,0.241,0.491,0.535c0,0.906-5.449,0.109-8.053-1.177c-5.948-2.939-6.697-3.193-8.113-2.758c-0.788,0.242-1.576,0.951-1.848,1.662c-0.907,2.37,2.539,4.213,3.959,2.117c0.412-0.607,0.316-1.023-0.408-1.762c-0.991-1.012-0.898-1.156,0.44-0.682c0.95,0.337,1.078,2.562,0.194,3.379C267.139,108.172,264.831,107.908,263.96,106.758L263.96,106.758z M287.391,100.904c-0.744-0.687-0.161-0.856,3.174-0.916c4.126-0.075,6.631-0.746,9.588-2.567c2.369-1.459,3.011-1.172,0.763,0.341c-2.051,1.38-5.25,2.441-8.339,2.765c-1.496,0.157-3.2,0.375-3.788,0.484C288.201,101.12,287.572,101.072,287.391,100.904L287.391,100.904z" />
  <path fill="#FFBE29" stroke="#000000" stroke-width="0.7886" d="M188.413,234.35c0,0-2.491,5.198-5.242,7.316c-4.077,3.138-12.436,2.911-15.984,6.573c-4.251,4.317,0.33,10.021,0.292,10.516l-0.233,3.012c0,0,2.867,0.035,4.074,0.228c1.815,0.29,2.523,1.804,5.902,1.579c8.496-0.565,8.153-8.412,8.634-15.117c0.427-2.553,1.414-5.882,1.975-8.435C188.31,237.834,188.413,234.35,188.413,234.35L188.413,234.35z M399.534,234.392c0,0,2.489,5.191,5.238,7.306c4.074,3.134,12.426,2.907,15.971,6.563c4.248,4.311-0.33,10.007-0.291,10.501l0.233,3.008c0,0-2.864,0.035-4.07,0.228c-1.813,0.29-2.521,1.801-5.897,1.577c-8.489-0.565-8.146-8.4-8.627-15.095c-0.426-2.55-1.413-5.874-1.973-8.423C399.637,237.871,399.535,234.392,399.534,234.392L399.534,234.392z M399.517,65.494c0,0,2.49-5.197,5.242-7.315c4.077-3.138,12.435-2.911,15.983-6.572c4.251-4.317-0.33-10.02-0.292-10.514l0.233-3.012c0,0-2.866-0.035-4.073-0.228c-1.815-0.29-2.523-1.804-5.901-1.579c-8.495,0.565-8.152,8.41-8.633,15.115c-0.427,2.553-1.414,5.881-1.975,8.433C399.62,62.011,399.517,65.494,399.517,65.494L399.517,65.494z M188.413,65.499c0,0-2.491-5.198-5.242-7.316c-4.077-3.138-12.436-2.911-15.984-6.573c-4.251-4.317,0.33-10.021,0.292-10.516l-0.233-3.012c0,0,2.867-0.035,4.074-0.228c1.815-0.29,2.523-1.804,5.902-1.579c8.496,0.565,8.153,8.412,8.634,15.117c0.427,2.553,1.414,5.882,1.975,8.435C188.31,62.015,188.413,65.499,188.413,65.499L188.413,65.499z" />
</svg>
