<svg xmlns="http://www.w3.org/2000/svg" width="450px" height="300px" viewBox="0 0 450 300">
  <path fill="#E2E2E2" d="M0,0h450v300H0V0z" />
  <path fill="#BBBBBB" d="M270.168,141.182h-90.313c-9.803,0-17.741,7.938-17.741,17.718v55.452c0,9.791,7.939,17.73,17.741,17.73h90.313c9.803,0,17.718-7.938,17.718-17.741V158.9C287.886,149.121,279.971,141.182,270.168,141.182L270.168,141.182z M233.502,186.948v17.319c0,4.691-3.811,8.501-8.478,8.501c-4.726,0-8.513-3.811-8.513-8.501v-17.319c-3.482-2.591-5.769-6.754-5.769-11.444c0-7.88,6.39-14.271,14.282-14.271c7.833,0,14.247,6.391,14.247,14.271C239.271,180.194,236.985,184.369,233.502,186.948L233.502,186.948z M200.434,112.489c0-13.567,11.034-24.589,24.589-24.589c13.532,0,24.554,11.011,24.554,24.589v16.03h20.016v-16.03c-0.012-24.589-20.028-44.57-44.582-44.57c-24.577,0-44.582,19.981-44.582,44.57v16.03h20.005L200.434,112.489L200.434,112.489z" />
</svg>
