<svg xmlns="http://www.w3.org/2000/svg" width="450px" height="300px" viewBox="0 0 450 300">
  <path fill="#BF0A30" d="M0,0h450v300H0V0z" />
  <path fill="#FFFFFF" d="M0,83.338h450v24.232H0V83.338z M0,28.793v24.232h450V28.793H0z" />
  <path fill="#002868" d="M0,0h136.364v150H0V0z" />
  <path fill="#FFFFFF" d="M0,246.975h450v24.232H0V246.975z M0,137.884v24.232h450v-24.232H0z M0,216.662h450V192.43H0V216.662z M83.043,73.01l24.046-17.47H77.367l-9.185-28.268L58.997,55.54H29.275l24.046,17.47l-9.185,28.267l24.046-17.47l24.046,17.47L83.043,73.01z" />
</svg>
