<svg xmlns="http://www.w3.org/2000/svg" width="450px" height="300px" viewBox="0 0 450 300">
  <path fill="#CC092F" d="M0,0h450v300H0V0z" />
  <path fill="#FFD200" d="M0,0h300v300H0V0z" />
  <path fill="#0046AE" d="M0,0h150v300H0V0z" />
  <g>
    <g>
      <path fill="#000000" d="M212.872,83.31c-0.679-0.031-1.351,0.153-1.92,0.525c0.674,0.199,1.134,0.821,1.126,1.523v1.856h-1.855c-0.698,0.007-1.318-0.446-1.523-1.114c-0.7,1.184-0.7,2.655,0,3.84c0.199-0.674,0.821-1.134,1.523-1.127h1.855v8.92c0.005,0.672-0.416,1.273-1.049,1.497c0.885,0.12,1.647,1.308,1.856,1.958c0.209-0.648,0.971-1.838,1.856-1.958c-0.64-0.218-1.068-0.821-1.063-1.497v-8.921h1.856c0.699-0.007,1.318,0.446,1.523,1.114c0.699-1.184,0.699-2.655,0-3.84c-0.199,0.674-0.821,1.133-1.523,1.126h-1.856v-1.855c-0.007-0.698,0.446-1.318,1.114-1.523C214.223,83.463,213.552,83.279,212.872,83.31L212.872,83.31z" />
      <path fill="#F5D402" d="M212.872,83.695c-0.374,0.002-0.745,0.062-1.1,0.179c0.436,0.371,0.688,0.913,0.691,1.485v1.856c-0.002,0.026-0.006,0.052-0.013,0.077v0.294h-0.294c-0.025,0.007-0.051,0.011-0.077,0.013h-1.856c-0.565-0.004-1.102-0.251-1.471-0.678c-0.124,0.354-0.189,0.726-0.192,1.101c0.002,0.374,0.062,0.745,0.179,1.1c0.37-0.436,0.913-0.688,1.484-0.691h2.24c-0.003,0.038-0.013,0.076-0.013,0.115v0.192c0.007,0.025,0.011,0.051,0.013,0.077v8.92c-0.018,0.543-0.27,1.051-0.691,1.395c0.276,0.172,0.523,0.389,0.73,0.64c0.151,0.208,0.279,0.431,0.384,0.665c0.105-0.234,0.234-0.457,0.384-0.665c0.204-0.246,0.446-0.458,0.717-0.627c-0.423-0.347-0.675-0.861-0.691-1.408v-9.292h0.307c0.025-0.007,0.051-0.011,0.077-0.013h1.856c0.565,0.004,1.101,0.251,1.471,0.678c0.124-0.354,0.189-0.726,0.192-1.101c-0.002-0.374-0.062-0.745-0.179-1.101c-0.37,0.436-0.913,0.688-1.484,0.691h-1.856c-0.026-0.002-0.052-0.006-0.077-0.013h-0.294V87.29c-0.007-0.025-0.011-0.051-0.013-0.077v-1.855c0.004-0.565,0.251-1.102,0.678-1.472C213.619,83.763,213.247,83.698,212.872,83.695" />
      <path fill="#000000" d="M267.177,187.028c-0.166-20.25,0-78.378,0-78.378c0-2.705-4.284-8.588-9.816-12.172c-3.76,2.212-7.836,7.196-9.305,7.589c0,1.354,0.512,2.629,0.512,4.044v2.65c-3.484,0.159-5.004,1.784-7.935,3.417c-1.659,0.923-4.017,1.658-4.535,1.815c-1.083-0.735-2.009-1.678-2.723-2.775c-1.593-2.556-2.265-5.693-2.265-8.882c0-1.348,1.51-2.865,1.51-3.955c0.01-0.881-0.041-1.762-0.154-2.636c0.536,0.073,1.472,1.024,1.472,1.024s-0.032-2.734-0.896-3.212c0,0,0.349-0.359,1.613-0.397c-0.355-0.899-2.112-1.997-2.112-1.997c0.113-0.176,0.272-0.318,0.461-0.409c0.486-0.238,1.003-0.406,1.536-0.499c-0.584-0.126-1.161-0.285-1.728-0.474c-1.635-0.546-3.234-1.196-4.786-1.945c-1.985-0.996-4.178-1.509-6.399-1.497c-0.894,0-2.21,0.025-2.982,0.538c-0.706,0.469-0.649,1.078-0.896,1.292c-0.583,0.504-1.58,0.486-2.061,0.486c-3.11,0-3.225,3.328-3.225,3.328s0.795-1.203,2.201-1.203c2.338,0,4.108,1.273,4.108,1.753c0,0.194-0.241,0.23-0.256,0.23c-1.527,0-3.831-0.879-5.056-0.922v0.602c2.733,0.951,5.503,2.297,5.503,8.229c0,3.736-0.447,7.547-2.316,10.546c-0.72,1.098-1.651,2.042-2.739,2.778l0,0l0,0c-0.505-0.153-2.878-0.89-4.543-1.817c-2.932-1.633-4.452-3.258-7.935-3.417v-2.65c0-1.415,0.512-2.691,0.512-4.044c-1.469-0.394-5.544-5.378-9.305-7.589c-5.532,3.583-9.816,9.466-9.816,12.172c0,0,0.166,58.128,0,78.378c0,1.167-0.704,2.816-0.704,2.816c2.02-0.854,5.722-5.92,6.501-7.846v0.922c3.05-1.391,5.284-5.046,6.284-6.937c0.018,0.273,0.064,0.959,0.064,0.959c2.725-2.389,6.194-16.509,6.194-16.509l5.781,5.681c0,0-2.091,4.244-2.905,5.004c0.387,0.044,0.775,0.066,1.164,0.064c-0.38,0.547-3.287,4.731-4.198,6.31c-0.852,1.477-1.454,0.819-2.764,0.819c-1.087,0-3.55,1.731-3.955,2.432c-0.438,0.717-0.692,1.53-0.742,2.368c0,0.81,0.858,1.92,0.858,1.92c0.032-0.196,0.121-0.379,0.256-0.525c0,0,2.253,2.807,2.585,3.174c0.258,0.286,1.411,0.471,1.818,0.103c1.016-0.924,2-1.57,2.905-2.905c0.466-0.688,0.501-1.476,1.036-2.214c1.791-2.47,5.354-7.2,6.169-8.28c0.055,0.301,0.101,0.551,0.153,0.857c0.923-1.864,5.363-5.426,5.363-5.426l4.644,2.137c0,0-8.672,19.934-16.369,22.999c0,0,3.349,1.423,7.461,3.558c0.6,0.312,1.218,0.646,1.843,0.986c0.518-0.624,1.063-1.316,1.6-2.035c2.459-3.29,4.864-7.103,4.864-7.103c0.168,0.99-1.131,4.048-3.327,7.82c-0.432,0.741-0.883,1.516-1.382,2.303c0.557,0.318,1.11,0.64,1.664,0.973c4.072,2.45,7.895,5.266,9.314,7.854L225,209.31c0,0,0-0.001,0.001-0.001v0.001l0.002-0.004c1.419-2.588,5.242-5.404,9.314-7.854c0.554-0.333,1.107-0.655,1.664-0.973c-0.5-0.787-0.95-1.562-1.382-2.303c-2.196-3.772-3.495-6.83-3.327-7.82c0,0,2.405,3.813,4.864,7.103c0.537,0.719,1.082,1.412,1.6,2.035c0.625-0.34,1.243-0.674,1.843-0.986c4.112-2.135,7.461-3.558,7.461-3.558c-7.697-3.065-16.369-22.999-16.369-22.999l4.644-2.137c0,0,4.439,3.562,5.363,5.426c0.052-0.306,0.099-0.557,0.153-0.857c0.815,1.081,4.378,5.81,6.169,8.28c0.535,0.738,0.571,1.527,1.036,2.214c0.905,1.335,1.889,1.981,2.905,2.905c0.406,0.369,1.559,0.183,1.818-0.103c0.332-0.367,2.585-3.174,2.585-3.174c0.135,0.146,0.224,0.328,0.256,0.525c0,0,0.858-1.11,0.858-1.92c-0.05-0.838-0.304-1.651-0.742-2.368c-0.404-0.701-2.868-2.432-3.955-2.432c-1.31,0-1.912,0.657-2.764-0.819c-0.911-1.578-3.817-5.763-4.198-6.31c0.389,0.002,0.778-0.019,1.164-0.064c-0.815-0.76-2.905-5.004-2.905-5.004l5.781-5.681c0,0,3.469,14.121,6.194,16.509c0,0,0.047-0.686,0.064-0.959c1,1.891,3.234,5.546,6.284,6.937v-0.922c0.779,1.926,4.482,6.991,6.501,7.846C267.881,189.844,267.177,188.195,267.177,187.028z" />
      <path fill="#B07F55" d="M243.821,113.502C243.821,113.502,243.82,113.502,243.821,113.502L243.821,113.502L243.821,113.502z M243.82,113.502c-1.177,0.554-2.407,1.255-3.506,1.753c0.003,0,1.904,0.29,2.674,1.011C243.651,116.118,243.82,113.503,243.82,113.502z M252.348,115.05v6.015l2.061-1.933v-2.009C253.698,116.69,252.983,115.892,252.348,115.05z M248.709,120.669v-2.329l2.905,2.713v-7.026c-0.438-0.662-0.728-1.156-0.947-1.548c-0.47,0.82-1.99,3.332-3.775,4.876c-0.294-1.195-2.227-2.329-2.227-2.329s-0.693,1.877-1.753,2.342c-0.373-0.657-2.596-2.11-2.598-2.111l0,0c-1.408,0.638-3.538,0.767-4.159,0.794c0.746,0.518,1.528,0.98,2.342,1.382c0,0-3.353-0.031-5.708-1.203c-0.856-0.517-1.677-1.09-2.457-1.715c0.359,1.046,0.905,2.017,1.613,2.867c-3.459-0.293-5.182-2.268-5.67-2.931c-0.31,0.843-0.739,1.637-1.274,2.359c-0.535-0.722-0.964-1.516-1.274-2.359c-0.488,0.663-2.211,2.638-5.67,2.931c0.708-0.849,1.254-1.821,1.613-2.867c-0.78,0.625-1.601,1.198-2.457,1.715c-2.355,1.172-5.708,1.203-5.708,1.203c0.814-0.403,1.596-0.865,2.342-1.382c-0.621-0.026-2.751-0.156-4.159-0.794l0,0c-0.002,0.001-2.225,1.455-2.598,2.111c-1.06-0.465-1.753-2.342-1.753-2.342s-1.933,1.135-2.227,2.329c-1.785-1.544-3.305-4.057-3.775-4.876c-0.219,0.392-0.509,0.886-0.947,1.548v7.026l2.905-2.713v2.329l-3.276,3.059l-2.163-2.009v49.645c2.733-2.37,5.132-13.899,5.132-13.899l6.831,9.086c0,0-1.221,2.993-2.253,3.481c0,0,1.175,0.099,1.881-0.371c0.127,0.688,0.294,1.741,0.294,1.741c0.561-0.018,1.586-0.794,1.586-0.794c0.217,0.547,0.589,2.099,0.589,2.099c0.869-0.579,3.545-3.699,3.545-3.699l7.153,3.315c0,0-6.917,17.225-13.682,22.435c1.765,0.546,3.5,1.187,5.196,1.92c2.257-2.644,4.592-6.211,6.489-9.381c2.048-3.424,3.724-9.432,3.724-9.432c0.95,2.306-1.074,13.891-5.157,21.22c3.376,1.757,6.379,3.661,7.818,5.22l0.001,0.002l0,0l0,0l0.001-0.002c1.438-1.559,4.442-3.463,7.818-5.22c-4.083-7.329-6.107-18.914-5.158-21.22c0,0,1.676,6.008,3.724,9.432c1.897,3.171,4.231,6.737,6.489,9.381c1.696-0.733,3.431-1.374,5.196-1.92c-6.764-5.211-13.682-22.435-13.682-22.435l7.153-3.315c0,0,2.676,3.12,3.545,3.699c0,0,0.371-1.552,0.589-2.099c0,0,1.025,0.776,1.587,0.794c0,0,0.168-1.053,0.294-1.741c0.706,0.471,1.881,0.371,1.881,0.371c-1.032-0.488-2.253-3.481-2.253-3.481l6.831-9.086c0,0,2.399,11.529,5.132,13.899v-49.645l-2.163,2.009L248.709,120.669z M247.109,115.844c0.534-0.144,1.366-2.247,1.69-3.11c-0.693-0.077-1.389-0.116-2.086-0.115c-0.799,0-1.821,0.378-2.892,0.883l0,0C243.822,113.502,246.622,114.867,247.109,115.844z M263.518,121.065l1.792-1.677v-2.675l-1.792-1.677V121.065z M263.518,112.708l1.792,1.664v-5.721c-0.051-0.683-0.261-1.345-0.614-1.933l-1.178,2.137L263.518,112.708L263.518,112.708z M240.313,115.255L240.313,115.255C240.314,115.255,240.314,115.255,240.313,115.255L240.313,115.255z M254.406,114.807v-6.54c-0.31,0.516-1.734,2.819-3.084,3.481C251.8,112.424,253.054,114.078,254.406,114.807z M262.789,109.931l-2.061-2.163v6.872l2.061-1.92V109.931z M257.94,121.052l2.06-1.933v-2.137l-2.06-1.932V121.052z M257.015,109.048l2.214-3.353v-0.819c0-0.552-0.424-1.167-0.781-1.587l0.742-0.269c0.375,0.485,0.768,1.14,0.768,1.753v0.665c0.521,0.539,2.547,2.624,2.547,2.624s1.017-2.184,1.293-2.777c-1.551-2.149-4.067-4.555-6.437-6.281c0,0-5.141,4.72-6.873,5.321l-0.064,1.587v4.672c1.255-0.432,2.831-2.493,3.596-3.583v-0.64c-0.017-0.494-0.24-0.958-0.614-1.28l0.755-0.268c0.371,0.392,0.585,0.906,0.602,1.446v0.371L257.015,109.048z M262.791,115.05l-2.061,1.92v2.163l2.061,1.919V115.05z M263.163,123.728l-2.176-2.022v56.53c0,1.596,2.915,5.318,4.326,6.169V121.72L263.163,123.728z M255.393,121.705v49.657c0,0-0.152,2.464-0.256,4.07c0.968,0.978,4.607,4.658,4.607,4.658v-58.399l-2.175,2.036L255.393,121.705z M257.938,112.72l2.06,1.933v-7.449l-2.06,3.135V112.72z M255.137,119.12l2.061,1.932v-6.002l-2.061,1.933V119.12z M257.197,110.583l-2.061-1.984v6.041l2.061-1.92V110.583z M187.211,112.721l2.061,1.92v-6.872l-2.061,2.163V112.721z M189.999,119.12l2.06,1.933v-6.003l-2.06,1.932V119.12z M187.209,121.052l2.061-1.919v-2.163l-2.061-1.92V121.052z M186.482,108.855l-1.178-2.137c-0.353,0.588-0.563,1.249-0.614,1.933v5.721l1.792-1.664L186.482,108.855L186.482,108.855z M186.482,115.037l-1.792,1.677v2.675l1.792,1.677V115.037z M184.688,121.719v62.685c1.411-0.851,4.326-4.573,4.326-6.169v-56.53l-2.176,2.022L184.688,121.719z M192.062,110.34l-2.06-3.135v7.449l2.06-1.933V110.34z M195.594,108.267v6.54c1.353-0.729,2.606-2.383,3.084-3.059C197.328,111.085,195.904,108.783,195.594,108.267z M194.607,121.705l-2.176,2.022l-2.176-2.036v58.399c0,0,3.64-3.68,4.607-4.658c-0.104-1.606-0.256-4.07-0.256-4.07L194.607,121.705L194.607,121.705z M206.179,113.502C206.179,113.502,206.18,113.502,206.179,113.502L206.179,113.502L206.179,113.502z M209.686,115.255L209.686,115.255L209.686,115.255L209.686,115.255z M207.012,116.266c0.77-0.721,2.671-1.011,2.674-1.011c-1.099-0.498-2.33-1.199-3.506-1.753C206.18,113.503,206.349,116.118,207.012,116.266z M203.287,112.619c-0.697-0.001-1.394,0.038-2.086,0.115c0.324,0.863,1.155,2.966,1.69,3.11c0.487-0.977,3.288-2.341,3.289-2.342l0,0C205.108,112.997,204.086,112.619,203.287,112.619z M194.863,116.982l-2.061-1.933v6.002l2.061-1.932V116.982z M192.803,112.72l2.061,1.92v-6.041l-2.061,1.984V112.72z M197.652,115.05c-0.635,0.842-1.35,1.64-2.061,2.073v2.009l2.061,1.933V115.05z M196.594,105.08c-0.375,0.322-0.597,0.786-0.614,1.28V107c0.765,1.09,2.341,3.152,3.596,3.583v-4.672l-0.064-1.587l0,0c-1.731-0.601-6.872-5.321-6.872-5.321c-2.371,1.726-4.886,4.132-6.437,6.281c0.276,0.593,1.292,2.777,1.292,2.777s2.026-2.085,2.547-2.624v-0.665c0-0.614,0.393-1.268,0.768-1.753l0.742,0.269c-0.356,0.419-0.781,1.035-0.781,1.587v0.819l2.214,3.353l2.252-2.419v-0.371c0.016-0.539,0.23-1.054,0.602-1.446L196.594,105.08z M222.434,89.159c2.865,0,4.879,1.306,7.59,2.508c0.71,0.315,1.363,0.57,1.945,0.768c-0.316,0.242-0.567,0.559-0.73,0.922c0,0,1.215,0.225,1.766,1.242c0,0-1.155,0.131-1.344,0.806c0.647,0.049,1.29,0.864,1.293,1.651l-1.638-0.512c0.252,1.265,0.385,2.55,0.397,3.84c0,1.021-1.471,2.224-1.471,3.955c0,5.434,1.369,7.522,2.342,9.202c0.381,0.657,0.69,1.413,1.331,1.984c-2.805-1.493-4.889-3.36-4.889-5.093v-6.565h-0.73v6.565c0,1.257,0.307,1.843,0.307,1.843c0.44,1.391,1.33,3.538,1.882,4.403c-2.58-1.395-3.891-3.141-3.891-3.788v-9.023h-0.73v9.151l0.141,0.627c-0.313,0.47-0.719,1.026-0.998,1.216c-0.278-0.189-0.673-0.746-0.986-1.216l0.141-0.627v-9.151h-0.73v9.023c0,0.647-1.311,2.394-3.891,3.788c0.551-0.865,1.441-3.011,1.881-4.402c0,0,0.307-0.586,0.307-1.843v-6.566h-0.73v6.565c0,1.732-2.077,3.601-4.876,5.093c0.634-0.571,0.939-1.33,1.318-1.984c1.064-1.837,2.38-4.171,2.38-10.814c0-2.493-0.369-4.189-1.011-5.375c-0.195-0.392-0.458-1.433,1.036-1.433c0.774,0,2.547,1.369,2.547,1.369c-0.071-0.682-0.423-1.304-0.973-1.715c-0.227-0.179-0.37-0.442-0.396-0.73c0.103-0.385,0.35-0.715,0.691-0.922c0.208-0.095-3.046-0.661-3.046-2.137c0-0.307,0.193-0.512,0.87-0.512c0.886,0,2.328,1.062,3.609,1.062c0.947,0,1.321-0.23,2.291-0.23c1.186,0,3.659,2.245,4.505,2.163c-0.946-0.594-2.473-2.841-4.786-2.841c-0.803,0-1.529,0.179-2.279,0.179c-0.96,0-1.906-0.883-2.943-0.883c-0.695,0-1.472,0.039-1.587-0.141c-0.201-0.314-0.02-0.496,0.167-0.755c0.352-0.489,1.342-0.631,2.317-0.665c0.292-0.01,0.585-0.015,0.858-0.013C221.963,89.149,222.215,89.159,222.434,89.159L222.434,89.159z" />
      <path fill="#D10429" d="M207.084,172.847l1.587-1.088c0,0,0.106,0.525,0.243,1.242c-0.68,0.929-4.583,6.256-6.514,8.856c-0.48,0.646-0.883,2.291-0.883,2.291s-0.704-0.333-0.704-0.934c0-0.59,0.077-1.293,0.077-1.293c-0.378,0.385-0.894,0.602-1.434,0.602c0-0.726,1.404-1.513,1.459-2.546c-1.07,0.794-2,0.386-3.238,0.768c-1.348,0.415-1.724,0.982-2.137,0.96c-0.243-0.013-0.464-0.433-0.371-0.691c0.161-0.447,1.829-1.683,2.994-1.907c0.279-0.053,2.476,0.478,2.918-0.205c1.823-2.813,4.783-7.38,5.068-7.82c0.175-0.033,0.343-0.094,0.499-0.18C206.648,170.902,206.631,172.34,207.084,172.847L207.084,172.847z M196.88,181.613c0.088,0.096,0.082,0.244-0.013,0.333l-0.717,0.627c-0.103,0.08-0.251,0.063-0.333-0.038c-0.088-0.096-0.082-0.244,0.013-0.333l0.717-0.627c0.046-0.04,0.106-0.058,0.166-0.051C196.778,181.532,196.837,181.564,196.88,181.613L196.88,181.613z M197.968,182.368c0.212,0.224,0.203,0.577-0.021,0.789l-0.005,0.005l-1.74,1.523c-0.264,0.196-0.637,0.141-0.834-0.123c-0.175-0.235-0.152-0.563,0.053-0.772l1.74-1.51c0.087-0.073,0.194-0.118,0.307-0.128C197.66,182.14,197.845,182.221,197.968,182.368z M198.965,183.546c0.212,0.223,0.203,0.576-0.02,0.788l-0.005,0.005l-1.753,1.523c-0.243,0.195-0.597,0.156-0.792-0.087l-0.002-0.002c-0.214-0.23-0.203-0.59,0.026-0.806l1.74-1.51c0.082-0.073,0.185-0.118,0.294-0.128C198.649,183.317,198.838,183.397,198.965,183.546L198.965,183.546z M199.566,184.48c0.19-0.016,0.375,0.06,0.499,0.205c0.214,0.23,0.203,0.59-0.025,0.806l-1.741,1.51c-0.265,0.192-0.635,0.133-0.827-0.132c-0.166-0.229-0.147-0.544,0.046-0.752l1.753-1.523C199.355,184.525,199.458,184.485,199.566,184.48L199.566,184.48z M242.916,172.847l-1.587-1.088c0,0-0.106,0.525-0.243,1.242c0.68,0.929,4.583,6.256,6.514,8.856c0.48,0.646,0.883,2.291,0.883,2.291s0.704-0.333,0.704-0.934c0-0.59-0.077-1.293-0.077-1.293c0.378,0.385,0.894,0.602,1.434,0.602c0-0.726-1.404-1.513-1.459-2.546c1.07,0.794,2,0.386,3.238,0.768c1.348,0.415,1.724,0.982,2.137,0.96c0.243-0.013,0.464-0.433,0.371-0.691c-0.161-0.447-1.829-1.683-2.994-1.907c-0.279-0.053-2.476,0.478-2.918-0.205c-1.823-2.813-4.783-7.38-5.068-7.82c-0.175-0.033-0.343-0.094-0.499-0.18C243.352,170.902,243.369,172.34,242.916,172.847L242.916,172.847z M253.12,181.613c-0.088,0.096-0.082,0.244,0.013,0.333l0.717,0.627c0.103,0.08,0.251,0.063,0.333-0.038c0.088-0.096,0.082-0.244-0.013-0.333l-0.717-0.627c-0.046-0.04-0.106-0.058-0.166-0.051C253.222,181.532,253.163,181.564,253.12,181.613L253.12,181.613z M252.032,182.368c-0.212,0.224-0.203,0.577,0.021,0.789l0.005,0.005l1.74,1.523c0.264,0.196,0.637,0.141,0.834-0.123c0.175-0.235,0.152-0.563-0.053-0.772l-1.74-1.51c-0.087-0.073-0.194-0.118-0.307-0.128C252.34,182.14,252.155,182.221,252.032,182.368z M251.035,183.546c-0.212,0.223-0.203,0.576,0.02,0.788l0.005,0.005l1.753,1.523c0.243,0.195,0.597,0.156,0.792-0.087l0.002-0.002c0.214-0.23,0.203-0.59-0.026-0.806l-1.74-1.51c-0.082-0.073-0.185-0.118-0.294-0.128C251.351,183.317,251.162,183.397,251.035,183.546L251.035,183.546z M250.434,184.48c-0.19-0.016-0.375,0.06-0.499,0.205c-0.214,0.23-0.203,0.59,0.025,0.806l1.741,1.51c0.265,0.192,0.635,0.133,0.827-0.132c0.166-0.229,0.147-0.544-0.046-0.752l-1.753-1.523C250.645,184.525,250.542,184.485,250.434,184.48L250.434,184.48z M213.133,92.673c0.456-0.735,1.269-1.172,2.133-1.145c0.639,0,2.748-0.044,2.748-0.044c0.281,0.73,1.562,1.951,1.562,3.219c0,0-1.301-2.344-4.931-2.344C214.124,92.35,213.607,92.457,213.133,92.673L213.133,92.673z M219.035,95.15c0,0-0.773,0.814-0.941,1.249c-0.765-0.29-2.1-1.665-2.1-1.665S217.125,95.395,219.035,95.15L219.035,95.15z" />
      <path fill="#000000" d="M217.81,92.993c0,0-0.892-0.286-0.892-0.586c0-0.382,0.433-0.382,0.692-0.084C217.734,92.525,217.802,92.756,217.81,92.993L217.81,92.993z M221.97,92.083c1.018,0,1.843,0.626,1.843,1.399s-0.825,1.399-1.843,1.399s-1.843-0.626-1.843-1.399S220.952,92.083,221.97,92.083z" />
      <path fill="#F5D402" d="M221.968,92.202c0.707,0,1.28,0.573,1.28,1.28s-0.573,1.28-1.28,1.28s-1.28-0.573-1.28-1.28S221.261,92.202,221.968,92.202z" />
      <path fill="#000000" d="M221.969,92.895c0.324,0,0.587,0.263,0.587,0.587s-0.263,0.587-0.587,0.587s-0.587-0.263-0.587-0.587S221.645,92.895,221.969,92.895z" />
    </g>
    <g>
      <path fill="#000000" d="M177.659,135.05L177.659,135.05L177.659,135.05L177.659,135.05z M187.542,170.651L187.542,170.651L187.542,170.651L187.542,170.651z M198.009,165.513L198.009,165.513L198.009,165.513L198.009,165.513z M250.105,188.54c0.268-0.041,0.501-0.207,0.627-0.448c0.117-0.231,0.133-0.892-0.678-1.306c-0.242-0.134-0.517-0.197-0.794-0.179c-0.273,0.017-0.52,0.165-0.665,0.397l0,0c-0.122,0.246-0.122,0.535,0,0.78c0,0-0.896-0.28-1.203-0.128c-0.29,0.143,0,4.365,0,4.365s3.574-2.255,3.519-2.573C250.854,189.111,250.105,188.54,250.105,188.54z M275.971,135.912l-2.841,2.074l0.32,0.678c-0.318,0.119-0.585,0.346-0.755,0.64c-0.235,0.462,0.154,1.114,0.154,1.114s-2.701-0.236-3.123,0.039c-0.382,0.247,0.162,2.118-0.09,3.699c-0.35,2.203-1.219,2.018-1.254,2.444c-0.034,0.415,0.333,1.062,0.333,1.062s-0.507,0.159-0.615,0.371c-0.174,0.341,0.121,0.969-0.09,1.382c-1.175,2.306-2.91,5.709-4.057,7.961c-0.16,0.314-0.591,0.434-0.806,0.857c-0.114,0.308-0.127,0.644-0.038,0.96c0,0-0.76,0.045-1.024,0.563c-0.166,0.41-0.206,0.86-0.115,1.292c-0.307,0.055-0.572,0.248-0.717,0.525c-0.252,0.495,0.175,0.755,0.065,0.973c-1.542,3.026-3.358,6.592-4.467,8.767c-0.408,0.8-1.834,0.96-2.662,2.585c-0.474,0.894-0.336,1.99,0.345,2.739c0,0-1.193,0.108-1.51,0.73c-0.323,0.634-0.068,1.596,0.793,2.035c0.861,0.438,1.802,0.083,2.125-0.55c0.317-0.622-0.32-1.651-0.32-1.651c1.008,0.102,1.973-0.434,2.419-1.344c0.828-1.625,0.13-2.86,0.537-3.66c1.109-2.175,2.925-5.741,4.467-8.767c0.111-0.218,0.567-0.029,0.819-0.524c0.138-0.278,0.138-0.605,0-0.883c0.406-0.182,0.749-0.481,0.986-0.858c0.264-0.518-0.141-1.165-0.141-1.165c0.308-0.11,0.573-0.317,0.755-0.589c0.216-0.423,0.057-0.837,0.217-1.152c1.147-2.252,2.883-5.655,4.057-7.96c0.211-0.414,0.889-0.555,1.062-0.896c0.108-0.211-0.064-0.716-0.064-0.716s0.747-0.074,1.062-0.346c0.325-0.279-0.334-0.879,1.242-2.457c1.13-1.132,2.954-1.798,2.931-2.253c-0.026-0.503-1.805-2.547-1.805-2.547s0.75-0.063,0.985-0.525c0.138-0.314,0.166-0.667,0.077-0.998l0.742-0.128L275.971,135.912z M198.397,177.198l0.801,1.755h-1.753l-0.714-1.565c-0.131,0.254-0.143,0.422-0.046,0.704c0.154,0.524-0.053,1.087-0.509,1.388c-0.555,0.363-1.298,0.211-1.667-0.339c-0.363-0.55-0.179-1.091,0.196-1.491c0.23-0.245,0.568-0.29,0.838-0.451c0.063-0.037,0.129-0.089,0.196-0.15c-0.547,0.223-1.301,0.407-2.295,0.338c-2.65-0.183-5.775-2.974-5.775-2.974s1.772-0.65,2.318-0.501c-1.054-0.393-2.44-3.254-2.443-3.261c0.006,0,2.992,0.188,5.214,0.962c0.613,0.225,1.191,0.525,1.736,0.875l-2.528-5.537c-0.319,0.366-0.404,0.533-0.337,0.911c0.07,0.542-0.221,1.066-0.719,1.293c-0.605,0.272-1.315,0.007-1.594-0.595c-0.274-0.6-0.007-1.106,0.425-1.443c0.265-0.206,0.606-0.198,0.898-0.315c0.272-0.109,0.629-0.433,0.922-0.736l-0.501-1.097c-0.823,0.205-2.178,0.467-3.51,0.387c-2.017-0.122-3.694-1.815-3.694-1.815s1.672-1.132,2.497-0.981c-0.908-0.332-2.224-2.606-2.224-2.606s1.871-0.565,3.529,0.06c0.566,0.213,1.101,0.568,1.569,0.939l-2.205-4.83c-0.226,0.279-0.286,0.45-0.229,0.779c0.07,0.542-0.221,1.066-0.718,1.292c-0.604,0.272-1.315,0.007-1.594-0.595c-0.273-0.6-0.007-1.107,0.425-1.443c0.265-0.207,0.606-0.198,0.898-0.315c0.238-0.095,0.538-0.354,0.806-0.62l-0.84-1.841c-0.796,0.234-2.65,0.659-4.196,0.099c-2.027-0.736-3.516-3.17-3.516-3.17s1.417-0.537,1.956-0.336c-0.786-0.347-1.602-1.855-1.602-1.855l0,0h-0.001c0,0,2.357-0.247,4.513,0.646c0.39,0.162,0.712,0.355,0.992,0.554l-2.015-4.414c-0.348,0.394-0.443,0.561-0.375,0.952c0.07,0.542-0.221,1.066-0.718,1.292c-0.604,0.272-1.315,0.007-1.594-0.595c-0.274-0.6-0.007-1.107,0.425-1.443c0.266-0.206,0.606-0.198,0.898-0.315c0.155-0.062,0.338-0.197,0.521-0.355c-0.849-0.056-2-0.268-2.886-0.948c-1.593-1.223-2.259-3.903-2.259-3.903s1.872,0.07,3.111,0.888c0,0-0.414-0.278-1.063-1.544c-0.726-1.417-0.301-3.877-0.3-3.882c0.005,0.003,2.852,1.584,3.321,2.741c0.064-1.123,0.789-2.628,0.789-2.628s1.84,2.483,1.952,4.799c0.061,1.26-0.387,2.456-0.81,3.299l0.135,0.297c0.206-0.034,0.393-0.082,0.524-0.15c0.28-0.144,0.497-0.408,0.826-0.473c0.537-0.106,1.095,0.024,1.369,0.624c0.023,0.051,0.021,0.105,0.036,0.157c0.005-0.004,0.02-0.017,0.02-0.017l0,0c0,0,1.034,1.328,1.065,2.856c0.276-0.812,1.567-1.71,1.567-1.71s1.328,3.214,1.036,5.495c-0.211,1.651-1.263,2.805-1.832,3.322l0.441,0.967c0.289-0.034,0.564-0.087,0.739-0.178c0.28-0.145,0.497-0.408,0.827-0.473c0.537-0.106,1.095,0.024,1.369,0.624c0.118,0.262,0.118,0.539,0.051,0.797c0.748-0.765,1.512-1.306,1.512-1.306l0,0c0,0,1.091,2.258,0.832,3.043c0.338-0.523,1.618-1.336,1.618-1.336s0.774,3.656,0.034,5.914c-0.512,1.563-1.737,2.444-2.45,2.846l0.251,0.551c0.346-0.031,0.694-0.088,0.902-0.196c0.279-0.145,0.496-0.408,0.826-0.473c0.537-0.106,1.095,0.024,1.369,0.624c0.272,0.604,0.007,1.316-0.595,1.594c-0.497,0.227-1.083,0.104-1.447-0.304c-0.192-0.235-0.344-0.313-0.639-0.334l2.112,4.629c-0.021-0.519,0.011-1.066,0.157-1.597c0.525-1.9,2.441-3.541,2.442-3.542c0.001,0.002,1.674,2.449,1.301,4.42c0.225-0.292,1.994-0.95,1.994-0.95s0.348,2.398-0.602,4.174c-0.739,1.382-2.242,2.4-2.878,2.787l0.157,0.343c0.347-0.031,0.696-0.088,0.905-0.196c0.28-0.144,0.497-0.408,0.827-0.473c0.537-0.106,1.095,0.024,1.369,0.624c0.272,0.605,0.007,1.316-0.595,1.594c-0.497,0.227-1.083,0.104-1.447-0.304C198.847,177.296,198.694,177.219,198.397,177.198z M184.648,145.252c-0.345-0.002-0.684-0.133-0.924-0.403c-0.056-0.069-0.11-0.121-0.164-0.166l0.78,1.709c0.007-0.078,0.006-0.158,0.018-0.233C184.41,145.831,184.518,145.529,184.648,145.252z M190.383,156.214c-0.484,0.194-1.04,0.074-1.391-0.319c-0.148-0.181-0.273-0.268-0.457-0.309l1.074,2.353c0.073-0.383,0.195-0.779,0.398-1.15C190.114,156.593,190.243,156.401,190.383,156.214z M201.86,184.763l-1.19,1.229l0.343,0.758l-0.708,3.246l4.05,2.21l0.983-4.507l-2.854-1.557L201.86,184.763z" />
      <path fill="#097754" d="M178.384,136.548c0,0-0.064,1.8,0.532,2.821c0.596,1.022,1.926,1.429,1.926,1.429s0.064-1.8-0.532-2.821C179.714,136.955,178.384,136.548,178.384,136.548z M177.139,140.62c0,0,1.564,0.092,2.467,0.784c0.902,0.692,1.252,2.134,1.252,2.134c-0.695,0.036-1.381-0.171-1.939-0.587C178.017,142.259,177.139,140.62,177.139,140.62z M182.047,136.985c-0.319,0.786-0.476,1.629-0.46,2.478c0.06,1.286,0.81,2.734,0.81,2.734s0.678-1.544,0.618-2.829C182.956,138.082,182.229,137.349,182.047,136.985L182.047,136.985z M179.414,148.575c0.522,0.687,1.187,1.252,1.95,1.657c1.182,0.584,2.943,0.606,2.943,0.606c-0.566-0.706-1.267-1.292-2.061-1.725C181.064,148.528,179.414,148.574,179.414,148.575L179.414,148.575z M179.794,151.065c0,0,0.564,1.105,1.596,1.579s3.143,0.435,3.143,0.435c-0.505-0.623-1.132-1.136-1.842-1.507C181.66,151.098,179.794,151.065,179.794,151.065L179.794,151.065z M185.737,145.17c-0.376,0.66-0.57,1.407-0.563,2.167c0.061,1.136,0.807,2.378,0.807,2.378s0.524-1.423,0.463-2.559C186.391,146.442,186.147,145.756,185.737,145.17L185.737,145.17z M188.034,146.628c0,0-1.067,1.432-1.221,2.905c-0.153,1.473,0.607,2.986,0.607,2.986s1.289-1.294,1.443-2.767C189.016,148.278,188.034,146.628,188.034,146.628L188.034,146.628z M185.092,160.228c0.118,0.398,0.313,0.769,0.574,1.092c0.364,0.424,0.769,0.812,1.209,1.158c0.54-0.145,1.107-0.158,1.654-0.039c0.916,0.199,2.135,1.015,2.135,1.015s-1.312-1.958-2.674-2.719C187.098,160.275,186.087,160.098,185.092,160.228L185.092,160.228z M184.957,163.592c0,0,1.698-0.725,3.097-0.538c1.399,0.187,2.66,1.293,2.66,1.293s-1.89,0.654-3.289,0.467C186.503,164.648,185.647,164.225,184.957,163.592L184.957,163.592z M192.134,155.698c0,0-1.502,1.591-1.628,2.972c-0.126,1.38,1.218,2.667,1.218,2.667c-0.036-0.495,0.02-0.993,0.165-1.468c0.191-0.43,0.434-0.834,0.723-1.206c0.119-0.416,0.162-0.85,0.128-1.281C192.626,156.793,192.422,156.225,192.134,155.698L192.134,155.698z M194.289,157.54c0,0-1.415,1.432-1.79,2.966c-0.374,1.534,0.292,3.169,0.292,3.169s1.287-1.016,1.661-2.549C194.828,159.592,194.289,157.54,194.289,157.54L194.289,157.54z M197.834,166.785c0.369,0.783,0.64,1.608,0.804,2.458c0.163,1.119,0.012,1.507,0.012,1.507s-0.663,0.652-0.96,1.035c-0.382,0.492-0.438,1.394-0.438,1.394s-1.331-1.979-1.126-3.426C196.331,168.307,197.834,166.785,197.834,166.785L197.834,166.785z M200.639,169.883c0,0-1.704,1.126-2.381,2.281c-0.402,0.709-0.519,1.545-0.326,2.337c0.789-0.112,1.485-0.576,1.891-1.262C200.5,172.085,200.639,169.882,200.639,169.883L200.639,169.883z M189.439,174.637c0,0,2.456-0.067,3.958,0.302c1.501,0.369,2.048,1.174,2.048,1.174s-1.688,0.79-3.19,0.421C190.754,176.166,189.439,174.637,189.439,174.637L189.439,174.637z M189.024,171.723c0,0,1.108,1.718,2.541,2.342c1.975,0.859,4.261,0.443,4.261,0.443s-1.242-1.522-2.951-2.194C191.165,171.641,189.024,171.723,189.024,171.723L189.024,171.723z" />
      <path fill="#F5D402" d="M273.779,138.128l1.689,0.858l-0.025-2.035L273.779,138.128z M273.127,139.356c-0.298,0.45-0.175,1.056,0.275,1.353c0.45,0.298,1.056,0.175,1.353-0.275c0.298-0.45,0.175-1.056-0.275-1.353c-0.032-0.021-0.065-0.04-0.099-0.058c-0.17-0.088-0.36-0.128-0.55-0.115C273.533,138.922,273.265,139.093,273.127,139.356L273.127,139.356z M270.222,140.905c-0.178,0.115,0.064,1.636,0.013,2.93c-0.048,1.221-0.439,1.564-0.653,1.984c-0.197,0.387-0.909,0.845-0.909,0.845l0.589,0.589c0,0,0.383-0.596,0.986-1.78c0.711-1.395,0.688-3.922,0.896-4.057c0.545-0.192,1.101-0.354,1.664-0.487c0,0-1.361-0.074-2.112-0.064C270.537,140.857,270.377,140.87,270.222,140.905z M270.377,147.931c0.26-0.647,0.555-1.279,0.883-1.894c0.828-1.625,2.595-2.803,2.636-3.097c0.043-0.303-0.614-1.728-0.614-1.728s-1.559,0.299-1.779,0.512c-0.213,0.206-0.119,2.317-0.947,3.942c-0.308,0.632-0.649,1.248-1.023,1.843L270.377,147.931z M274.357,143.055c0.013,0.247-2.041,1.715-2.752,3.11c-0.603,1.183-0.858,1.843-0.858,1.843l0.819,0.128c0,0-0.056-0.842,0.141-1.229c0.214-0.419,0.27-0.933,1.229-1.689c1.017-0.802,2.392-1.503,2.38-1.715c-0.01-0.195-1.536-2.086-1.536-2.086C274.001,141.952,274.194,142.499,274.357,143.055L274.357,143.055z M268.342,152.18c1.234-2.422,1.611-2.587,1.766-2.892c0.167-0.328,0.127-0.77-0.422-1.05c-0.164-0.091-0.351-0.131-0.537-0.115c-0.24,0.028-0.448,0.178-0.55,0.396c-0.155,0.305-0.071,0.714-1.306,3.136l-2.803,5.49c-0.161,0.279-0.066,0.635,0.213,0.796l0,0l0,0c0.014,0.008,0.029,0.016,0.043,0.023c0.27,0.151,0.611,0.055,0.762-0.215c0.012-0.022,0.023-0.044,0.032-0.067L268.342,152.18z M263.389,158.477c-0.153,0.3,0.109,0.741,0.589,0.986c0.48,0.244,0.999,0.198,1.152-0.102s-0.121-0.741-0.602-0.986c-0.212-0.114-0.451-0.167-0.691-0.153C263.653,158.222,263.484,158.319,263.389,158.477z M262.352,160.038c-0.198,0.388,0.111,0.946,0.691,1.242c0.581,0.296,1.21,0.221,1.408-0.167s-0.111-0.945-0.691-1.242c-0.198-0.104-0.416-0.165-0.64-0.179C262.818,159.648,262.518,159.783,262.352,160.038L262.352,160.038z M261.699,161.779c-0.153,0.3,0.109,0.741,0.589,0.985c0.48,0.245,0.999,0.198,1.152-0.102s-0.109-0.741-0.589-0.986c-0.216-0.114-0.46-0.167-0.704-0.154C261.964,161.524,261.794,161.622,261.699,161.779L261.699,161.779z M261.277,163.443c0,0-3.112,6.125-4.21,8.28c-0.351,0.689-1.828,1.117-2.406,2.253c-0.583,1.142-0.171,2.211,0.589,2.598c0.76,0.387,1.875,0.106,2.457-1.036c0.578-1.135,0.059-2.588,0.409-3.277c1.098-2.156,4.211-8.281,4.211-8.281c0.166-0.271,0.081-0.624-0.19-0.79c-0.017-0.011-0.035-0.02-0.053-0.029c-0.11-0.058-0.235-0.081-0.358-0.064C261.53,163.137,261.365,163.265,261.277,163.443z M253.404,177.661c-0.233,0.458,0.033,1.067,0.601,1.357s1.226,0.15,1.459-0.307c0.233-0.458-0.046-1.068-0.614-1.357c-0.197-0.104-0.417-0.157-0.64-0.153C253.878,177.195,253.568,177.371,253.404,177.661L253.404,177.661z M249.258,187.017c-0.151-0.014-0.297,0.055-0.384,0.179c-0.119,0.234,0.127,0.603,0.55,0.819c0.423,0.215,0.866,0.195,0.986-0.038c0.119-0.234-0.128-0.604-0.55-0.819C249.675,187.061,249.468,187.013,249.258,187.017L249.258,187.017z M247.799,188.169v3.02l2.458-1.766C249.723,188.593,248.785,188.115,247.799,188.169L247.799,188.169z M201.872,186.766l2.512,1.37l-0.609,2.796l-2.512-1.37L201.872,186.766z M190.874,162.522c-0.527,0.219-1.307-2.074-1.881-3.329c-0.588-1.289-1.783-3.275-1.443-3.43c0.372-0.17,0.863,0.873,1.465,2.192C189.617,159.273,191.368,162.317,190.874,162.522L190.874,162.522z M185.467,150.45c-0.526,0.219-1.102-1.282-1.676-2.538c-0.588-1.288-1.161-2.199-0.822-2.354c0.372-0.17,0.923,0.959,1.404,2.014C184.84,148.594,185.96,150.245,185.467,150.45L185.467,150.45z M197.977,177.822c-0.413,0.111-2.217-3.665-3.676-6.861c-1.458-3.195-2.544-5.78-2.205-5.934c0.372-0.17,1.553,2.848,3.012,6.043C196.567,174.266,198.286,177.739,197.977,177.822L197.977,177.822z M199.993,176.095c0.36,0,0.651,0.292,0.651,0.651s-0.292,0.651-0.651,0.651s-0.651-0.292-0.651-0.651S199.633,176.095,199.993,176.095z M195.512,177.832c0.36,0,0.651,0.292,0.651,0.651s-0.292,0.651-0.651,0.651s-0.651-0.292-0.651-0.651S195.152,177.832,195.512,177.832z M194.888,164.911c0.36,0,0.652,0.292,0.652,0.652c0,0.36-0.292,0.652-0.652,0.652s-0.652-0.292-0.652-0.652C194.237,165.203,194.529,164.911,194.888,164.911z M190.405,167.409c0.36,0,0.651,0.292,0.651,0.651s-0.292,0.651-0.651,0.651s-0.651-0.292-0.651-0.651S190.045,167.409,190.405,167.409z M189.944,154.452c0.36,0,0.651,0.292,0.651,0.651s-0.292,0.651-0.651,0.651s-0.651-0.292-0.651-0.651S189.585,154.452,189.944,154.452z M185.57,156.449c0.36,0,0.651,0.292,0.651,0.651s-0.292,0.651-0.651,0.651s-0.651-0.292-0.651-0.651S185.21,156.449,185.57,156.449z M184.677,143.408c0.36,0,0.652,0.292,0.652,0.652s-0.292,0.652-0.652,0.652s-0.652-0.292-0.652-0.652S184.317,143.408,184.677,143.408z M180.303,145.404c0.36,0,0.652,0.292,0.652,0.652s-0.292,0.652-0.652,0.652s-0.652-0.292-0.652-0.652S179.943,145.404,180.303,145.404z" />
    </g>
    <g>
      <path fill="#F5D402" d="M249.355,120.899c0-1.657,2.176-3.289,2.176-3.289H198.47c0,0,2.176,1.632,2.176,3.289v39.497c-0.019,0.868,0.277,1.713,0.832,2.38c0.51,0.713,1.598,1.699,2.726,2.432c3.485,2.263,9.311,4.65,13.72,6.655c3.673,1.671,5.168,2.345,7.077,4.71c1.91-2.365,3.417-3.038,7.09-4.71c4.408-2.005,10.234-4.392,13.72-6.655c1.129-0.733,2.216-1.718,2.726-2.432c0.551-0.669,0.842-1.514,0.819-2.38L249.355,120.899z" />
      <path fill="#D10429" d="M201.899,143.245v-22.346c0.012-0.73-0.213-1.443-0.64-2.035h47.482c-0.427,0.591-0.652,1.305-0.64,2.035l0.014,22.346l-23.108,7L201.899,143.245z" />
      <path fill="#0B45BB" d="M248.115,143.245l-14.309-0.269h-17.598l-14.309,0.269v17.15c0,0.862,0.895,2.881,6.054,5.452c8.528,4.249,15.083,6.234,17.047,8.652c1.964-2.418,8.519-4.402,17.047-8.652c5.159-2.571,6.053-4.59,6.053-5.452L248.115,143.245z" />
      <path fill="#000000" d="M232.679,165.63c0,1.294-0.994,1.553-2.611,2.406c-2.072,1.094-1.988,2.56-5.068,2.56c-3.08,0-2.983-1.466-5.055-2.56c-1.617-0.854-2.611-1.113-2.611-2.406c0-1.551,1.053-1.648,2.611-2.969c1.16-0.984,1.446-3.37,1.446-5.631c0-2.87,0.213-6.815-1.971-8.677c-1.811-1.544-5.222-1.715-5.222-1.715l2.355-4.287c0,0-8.255-2.081-8.255-10.904c0-6.891,8.276-10.309,8.51-11.953c0.809,2.845-2.765,6.775-2.765,11.429c0,6.021,4.441,6.31,4.441,6.31c1.039,0,1.461,0.742,1.869,0.742c0.874-0.091,1.286-1.203,2.15-1.203c0.812,0,1.423,1.254,2.496,1.254s1.697-1.254,2.508-1.254c0.865,0,1.276,1.112,2.15,1.203c0.409,0,0.83-0.742,1.869-0.742c0,0,4.441-0.288,4.441-6.31c0-4.654-3.573-8.583-2.765-11.429c0.235,1.644,8.511,5.063,8.511,11.953c0,8.823-8.255,10.904-8.255,10.904l0.344,0.627c0.003-0.001,5.097-1.247,7.001-3.763c2.119,1.852,4.611,3.227,7.307,4.031c0,0-4.151,1.875-7.307,4.262c-1.454-2.083-6.997-4.529-7.001-4.531l2.01,3.66c0,0-3.411,0.171-5.222,1.715c-2.183,1.862-1.971,5.807-1.971,8.677c0,2.261,0.286,4.647,1.446,5.631C231.626,163.982,232.679,164.08,232.679,165.63z M221.518,129.115l-1.856,3.891l3.904-1.856l1.434,4.07l1.446-4.07l3.904,1.856l-1.855-3.891l4.07-1.446l-4.07-1.446l1.855-3.904l-3.904,1.856l-1.446-4.07l-1.434,4.07l-3.904-1.856l1.856,3.904l-4.07,1.446L221.518,129.115z M216.207,142.977c0,0-5.097-1.246-7.001-3.763c-2.119,1.852-4.611,3.227-7.308,4.032c0,0,4.152,1.874,7.308,4.262C210.661,145.424,216.207,142.977,216.207,142.977z M220.278,150.386l-1.984-1.984l-1.984,1.984l1.984,1.984L220.278,150.386z M229.736,150.386l1.983,1.984l1.984-1.984l-1.984-1.984L229.736,150.386z M217.795,159.985c0.023,1.28-0.058,2.56-0.243,3.827c0,0,2.797-0.823,3.354-3.66c0.261-1.33,0.552-6.229-0.794-7.065l-3.647-0.717C217.347,154.812,217.797,157.389,217.795,159.985L217.795,159.985z M229.108,160.152c0.557,2.837,3.353,3.66,3.353,3.66c-0.185-1.267-0.266-2.547-0.243-3.827c-0.002-2.596,0.448-5.173,1.331-7.615l-3.648,0.717C228.556,153.922,228.847,158.821,229.108,160.152z M215.799,155.891c-0.457-0.729-1.279-1.148-2.137-1.088c-0.391,0.027-0.769,0.15-1.101,0.359c-0.163,0.101-0.314,0.221-0.448,0.358c-0.006-1.307-1.07-2.362-2.378-2.356c-0.182,0.001-0.363,0.023-0.54,0.065c-1.247,0.3-2.015,1.554-1.715,2.801c0.05,0.206,0.127,0.405,0.231,0.59c-0.186-0.063-0.38-0.101-0.576-0.115c-0.081-0.004-0.162-0.004-0.243,0c-1.295,0.054-2.301,1.148-2.246,2.443c0.054,1.295,1.148,2.3,2.443,2.246c0.097-0.004,0.194-0.014,0.29-0.03c-0.114,0.154-0.209,0.322-0.281,0.499c-0.49,1.203,0.087,2.575,1.29,3.065c1.203,0.49,2.575-0.087,3.065-1.29l0.009-0.022c0.07-0.177,0.117-0.362,0.141-0.55c0.114,0.157,0.247,0.299,0.397,0.422c0.982,0.847,2.465,0.736,3.312-0.246c0.847-0.983,0.736-2.465-0.246-3.312c-0.161-0.139-0.34-0.255-0.532-0.345c0.184-0.059,0.36-0.141,0.524-0.243C216.156,158.447,216.488,156.994,215.799,155.891z M239.052,154.905c-3.005,0-5.203,2.316-4.901,5.158c0.254,2.397,2.202,4.405,4.607,4.979c-0.417-0.672-0.68-1.428-0.768-2.214c-0.301-2.843,1.897-5.145,4.902-5.145c0.466,0.001,0.93,0.057,1.382,0.167C243.154,156.036,241.182,154.925,239.052,154.905z" />
      <path fill="#FFD200" d="M240.461,131.445c0-5.116-6.053-9.458-6.053-9.458c-0.34,0.731,2.764,5.237,2.764,8.934c0,4.532-2.417,7.205-5.644,7.205c-0.616,0-1.289,0.832-1.869,0.832c-0.945,0-1.574-1.049-2.15-1.049c-0.732,0-1.238,1.152-2.509,1.152c-1.27,0-1.764-1.152-2.495-1.152c-0.576,0-1.205,1.049-2.15,1.049c-0.58,0-1.253-0.832-1.869-0.832c-3.227,0-5.644-2.673-5.644-7.205l0,0c0-3.696,3.104-8.203,2.764-8.934c0,0-6.054,4.342-6.054,9.458c0,8.241,8.357,10.277,8.357,10.277l-1.881,4.236c0,0,2.59,0.388,4.172,1.664c2.11,1.701,2.137,6.298,2.137,9.406c0,3.662-0.136,5.214-1.459,6.207c-1.395,1.048-2.444,1.274-2.444,2.342c0,0.931,1.086,1.312,2.496,1.932c1.603,0.707,1.75,1.933,4.07,1.933s2.479-1.226,4.083-1.933c1.409-0.621,2.496-1.002,2.496-1.932c0-1.068-1.049-1.294-2.444-2.342c-1.323-0.994-1.459-2.545-1.459-6.207c0-3.109,0.028-7.705,2.138-9.406c1.582-1.276,4.172-1.664,4.172-1.664l-1.881-4.236C232.104,141.723,240.461,139.686,240.461,131.445z M221.839,166.629c-1.641,0-2.688-0.333-2.688-0.832c0-0.498,1.046-0.845,2.688-0.845c0.016-0.001,0.031-0.002,0.047-0.002c0.479-0.011,0.876,0.368,0.888,0.847C222.773,166.375,222.277,166.629,221.839,166.629z M228.174,164.953c1.642,0,2.688,0.346,2.688,0.845c0,0.499-1.045,0.832-2.688,0.832c-0.438,0-0.935-0.255-0.934-0.832c0-0.016,0.001-0.031,0.002-0.047C227.279,165.273,227.697,164.916,228.174,164.953z M220.19,127.671l2.585-0.922l-1.177-2.496l2.483,1.19l0.934-2.599l0,0l0.921,2.599l2.483-1.19l-1.178,2.496l2.586,0.922l-2.586,0.921l1.178,2.483l-2.483-1.177l-0.934,2.585l-0.921-2.585l-2.483,1.177l1.177-2.483L220.19,127.671z M209.064,146.289c-1.583-1.399-4.736-2.969-4.736-2.969s3.022-1.042,4.799-2.854c1.682,1.926,4.351,2.662,4.351,2.662s-2.778,1.456-4.274,3.174l-0.051,0.064L209.064,146.289z M236.531,143.132c0,0,2.669-0.736,4.351-2.662c1.778,1.812,4.799,2.854,4.799,2.854s-3.152,1.57-4.736,2.969l-0.089,0.077l-0.051-0.064C239.309,144.588,236.531,143.132,236.531,143.132z M218.294,151.436l-1.049-1.05l1.049-1.036l1.037,1.036L218.294,151.436z M231.719,149.35l1.05,1.036l-1.05,1.05l-1.036-1.05L231.719,149.35z M218.602,161.879c0-5.448-0.562-6.758-0.857-8.409l1.958,0.41c0.724,1,0.601,2.615,0.601,4.864C220.348,160.02,219.696,161.22,218.602,161.879z M230.311,153.88l1.958-0.41l0,0c-0.296,1.651-0.857,2.96-0.857,8.409c-1.095-0.658-1.746-1.859-1.702-3.135C229.71,156.495,229.587,154.88,230.311,153.88z M211.652,155.532c0.047,0.197,0.06,0.4,0.038,0.602c-0.017,0.158-0.056,0.313-0.115,0.461c-1.025-0.364-2.169-0.07-2.893,0.742c-0.128-0.112-0.24-0.241-0.332-0.384c-0.11-0.164-0.192-0.346-0.243-0.538c-0.243-0.979,0.354-1.97,1.333-2.213C210.418,153.96,211.408,154.555,211.652,155.532L211.652,155.532z M214.962,156.429c0.534,0.856,0.274,1.983-0.582,2.517c-0.173,0.106-0.362,0.181-0.56,0.222c-0.156,0.033-0.315,0.044-0.473,0.033c0.029-1.088-0.604-2.084-1.6-2.521c0.067-0.156,0.155-0.303,0.262-0.435c0.122-0.156,0.27-0.29,0.436-0.397C213.301,155.313,214.428,155.574,214.962,156.429z M214.326,159.798c0.771,0.651,0.869,1.803,0.218,2.574c-0.648,0.768-1.795,0.868-2.567,0.224c-0.154-0.132-0.284-0.289-0.385-0.464c-0.079-0.138-0.139-0.286-0.178-0.44c1.043-0.309,1.796-1.218,1.904-2.301c0.169,0.015,0.336,0.054,0.495,0.115C213.999,159.575,214.172,159.673,214.326,159.798z M211.225,161.723c0.038,0.166,0.052,0.336,0.043,0.506c-0.008,0.198-0.048,0.393-0.119,0.578c-0.379,0.935-1.444,1.386-2.379,1.008c-0.934-0.378-1.385-1.442-1.008-2.377c0.078-0.187,0.187-0.359,0.323-0.509c0.107-0.118,0.229-0.221,0.364-0.305C209.065,161.521,210.162,161.955,211.225,161.723z M207.893,160.651c-0.191,0.054-0.389,0.076-0.586,0.065c-1.006-0.071-1.764-0.945-1.693-1.951c0.071-1.005,0.943-1.763,1.948-1.693c0.202,0.016,0.399,0.067,0.584,0.15c0.145,0.065,0.281,0.15,0.402,0.252c-0.663,0.863-0.737,2.041-0.188,2.98C208.215,160.541,208.057,160.607,207.893,160.651z M210.667,157.351c0.975,0,1.766,0.791,1.766,1.766s-0.791,1.766-1.766,1.766s-1.766-0.791-1.766-1.766S209.691,157.351,210.667,157.351z M239.052,155.967c0.929,0.008,1.837,0.274,2.624,0.768c-2.932,0.567-5.043,3.157-4.736,6.182c-0.935-0.774-1.618-1.816-1.74-2.969C234.962,157.703,236.592,155.967,239.052,155.967z" />
      <path fill="#000000" d="M250.493,118.004h-50.987c0.676,0.681,1.535,1.767,1.535,2.892v34.3h-0.002v5.197h0.002c-0.008,0.407,0.058,0.812,0.193,1.196c0.131,0.34,0.314,0.658,0.542,0.943l0.009,0.012c0.497,0.633,1.075,1.2,1.718,1.684c0.145,0.114,0.294,0.226,0.444,0.333c0.146,0.104,0.298,0.209,0.455,0.31l0.004,0.002c2.713,1.762,6.893,3.614,10.691,5.296c1.059,0.469,2.092,0.927,2.974,1.328l0.002,0.002l0,0l0.084,0.038h0.001c3.476,1.581,5.026,2.287,6.842,4.413c1.82-2.134,3.365-2.837,6.874-4.432l0,0l0.04-0.018c0.884-0.402,1.915-0.859,2.974-1.328c3.798-1.682,7.979-3.535,10.693-5.296l0.002-0.002c0.761-0.495,1.466-1.072,2.102-1.721c0.104-0.108,0.201-0.215,0.289-0.319c0.083-0.097,0.159-0.195,0.227-0.29l0.006-0.006l0.001-0.002l0.003-0.005c0.23-0.286,0.415-0.605,0.55-0.946c0.139-0.382,0.206-0.786,0.198-1.193h0.002v-5.197h-0.002v-34.3C248.959,119.771,249.817,118.685,250.493,118.004L250.493,118.004z M249.753,120.897v34.3h-0.002v5.197h0.002c0.007,0.502-0.078,1.001-0.251,1.472c-0.161,0.411-0.383,0.796-0.658,1.141l0.001,0.001c-0.075,0.105-0.165,0.219-0.267,0.339c-0.097,0.114-0.205,0.234-0.323,0.356c-0.678,0.692-1.43,1.307-2.242,1.836l-0.002,0.002c-2.773,1.8-6.981,3.665-10.804,5.358c-1.001,0.443-1.975,0.875-2.965,1.325l-0.04,0.018H232.2c-3.584,1.63-5.05,2.297-6.892,4.578L225,177.201l-0.308-0.382c-1.834-2.271-3.309-2.942-6.862-4.558l0,0l-0.083-0.038l-0.003-0.002h-0.001v0.001c-0.992-0.452-1.965-0.882-2.965-1.325c-3.823-1.693-8.031-3.558-10.804-5.358l-0.009-0.006l-0.003-0.002l0,0c-0.156-0.101-0.316-0.211-0.477-0.326c-0.16-0.115-0.317-0.232-0.469-0.352c-0.703-0.532-1.334-1.153-1.876-1.848l0,0c-0.274-0.345-0.494-0.73-0.651-1.142c-0.168-0.471-0.251-0.968-0.243-1.468h0.002v-5.197h-0.002v-34.3c0-1.46-2.01-2.968-2.016-2.973v-0.713h53.537v0.713C251.763,117.928,249.753,119.436,249.753,120.897L249.753,120.897z M248.552,118.466l0.001-0.002h0.189h0.822l-0.513,0.644c-0.373,0.521-0.566,1.148-0.551,1.788v34.3h-0.002v5.197h0.002c0,0.703-0.492,2.06-2.808,3.751v0.001c-0.433,0.316-0.933,0.647-1.508,0.991c-0.579,0.346-1.227,0.7-1.95,1.061l-0.001-0.001l-0.007,0.004v0.002c-3.095,1.542-5.952,2.795-8.42,3.878c-4.238,1.858-7.307,3.205-8.497,4.667l-0.006,0.008l-0.001,0.002l-0.309,0.36l-0.299-0.368c-1.189-1.464-4.26-2.811-8.499-4.67c-2.466-1.081-5.321-2.334-8.413-3.874v-0.002l-0.005-0.003l-0.001,0.001c-2.194-1.093-3.637-2.095-4.574-2.956c-0.185-0.171-0.351-0.336-0.499-0.495c-0.952-1.023-1.198-1.85-1.199-2.355h-0.002v-0.001h0.002v-5.197h-0.002v-34.3c0.015-0.64-0.179-1.268-0.551-1.788l-0.513-0.642h1.705v-0.002h45.717v0.002L248.552,118.466L248.552,118.466z M247.858,119.257v0.002h-45.717v-0.002h-0.198c0.232,0.515,0.352,1.074,0.351,1.64v34.3h-0.002v5.197h0.002v0.001h-0.002c0,0.357,0.203,0.972,0.988,1.816c0.135,0.145,0.287,0.296,0.456,0.451c0.887,0.815,2.269,1.771,4.391,2.829v0.002l0.005,0.003l0.001-0.001c3.11,1.549,5.935,2.789,8.375,3.859c4.034,1.769,7.033,3.084,8.489,4.555c1.456-1.471,4.456-2.786,8.489-4.555c2.442-1.071,5.27-2.311,8.382-3.862l0.001,0.001l0.007-0.004v-0.002c0.72-0.359,1.349-0.703,1.897-1.03c0.552-0.329,1.032-0.647,1.447-0.95h0.001c2.046-1.494,2.48-2.575,2.48-3.113h0.002v-5.197h-0.002v-34.3c-0.001-0.565,0.119-1.124,0.351-1.64H247.858L247.858,119.257z" />
    </g>
  </g>
</svg>
