<svg xmlns="http://www.w3.org/2000/svg" width="450px" height="300px" viewBox="0 0 450 300">
  <path fill="#DA2031" d="M0,0h450v300H0V0z" />
  <path fill="#0066B2" d="M150,0h150v300H150V0z" />
  <path fill="#FFD300" d="M95.616,114.015c0.002,0.12,0.009,0.24,0.009,0.36C95.625,125.766,86.391,135,75,135s-20.625-9.234-20.625-20.625c0-0.121,0.007-0.24,0.009-0.36C57.86,121.952,65.78,127.5,75,127.5S92.14,121.952,95.616,114.015z M60,108.75c0,8.284,6.716,15,15,15s15-6.716,15-15s-6.716-15-15-15S60,100.466,60,108.75z M33.75,228.75H52.5v-90H33.75V228.75z M75.016,89.995c5.178,0,9.375-4.197,9.375-9.375c0-0.737-0.562-2.324-1.048-3.003c-0.411-0.623-0.851-0.932-1.215-1.678c-0.589-1.153-0.21-1.952-0.645-3.34c-0.413-1.129-1.223-2.387-2.534-2.893c0.812,0.992,1.059,2.672,0.718,3.677c-0.364,1.035-0.746,1.567-0.746,2.153c0,1.138,0.583,1.305,1.011,1.736c0.068,0.058,0.132,0.121,0.191,0.188c0.332,0.348,0.518,0.809,0.519,1.29c0,1.036-0.839,1.875-1.875,1.875c-1.037-0.131-1.781-0.615-1.875-1.875c0-3.61,1.545-3.84,1.545-6.511c0-3.814-3.42-5.62-3.42-8.408c0-0.943,0.221-2.548,1.551-3.826c-1.856,0.847-2.551,2.368-2.7,3.884c-0.094,1.279,0.471,2.719,0.527,3.97c0,2.152-2.227,2.861-2.227,5.933c0,1.056,0.975,2.219,0.975,4.959c-0.169,1.438-0.971,1.763-1.875,1.875c-1.036,0-1.875-0.839-1.875-1.875c0.001-0.481,0.187-0.942,0.519-1.29c0.059-0.067,0.123-0.13,0.191-0.188c0.428-0.431,1.014-0.598,1.011-1.736c0-0.585-0.379-1.117-0.741-2.153c-0.341-1.005-0.094-2.685,0.718-3.677c-1.312,0.506-2.121,1.764-2.534,2.893c-0.435,1.387-0.056,2.187-0.652,3.34c-0.364,0.746-0.797,1.056-1.207,1.678c-0.486,0.679-1.056,2.266-1.056,3.003C65.641,85.798,69.838,89.995,75.016,89.995z M76.576,59.995c-0.003,0.003-0.006,0.006-0.009,0.009c0.003-0.002,0.006-0.003,0.01-0.005L76.576,59.995z M75,228.75l18.75-11.25h-37.5L75,228.75z M75,150l18.75-11.25h-37.5L75,150z M97.5,138.75v90h18.75v-90H97.5z M56.25,161.25h37.5v-7.5h-37.5V161.25z M56.25,213.75h37.5v-7.5h-37.5V213.75z M63.938,193.688c0,2.46,0.804,4.731,2.162,6.568c-5.865-3.169-9.849-9.372-9.849-16.506C56.25,173.395,64.645,165,75,165c0.152,0,0.302,0.008,0.453,0.011c4.656,0.236,8.359,4.086,8.359,8.801c0,4.867-3.945,8.812-8.812,8.812C68.89,182.625,63.938,187.578,63.938,193.688z M71.25,173.812c0,2.071,1.679,3.75,3.75,3.75s3.75-1.679,3.75-3.75s-1.679-3.75-3.75-3.75S71.25,171.741,71.25,173.812z M93.75,183.75c0,10.355-8.395,18.75-18.75,18.75c-0.152,0-0.302-0.008-0.453-0.011c-4.656-0.236-8.359-4.086-8.359-8.801c0-4.867,3.945-8.812,8.812-8.812c6.11,0,11.062-4.953,11.062-11.062c0-2.46-0.804-4.731-2.162-6.568C89.765,170.413,93.75,176.616,93.75,183.75z M78.75,193.688c0-2.071-1.679-3.75-3.75-3.75s-3.75,1.679-3.75,3.75s1.679,3.75,3.75,3.75S78.75,195.759,78.75,193.688z" />
</svg>
