<svg xmlns="http://www.w3.org/2000/svg" width="450px" height="300px" viewBox="0 0 450 300">
  <path fill="#012169" d="M0,0h450v300H0V0z" />
  <path fill="#FFFFFF" d="M225,37.5h-49.843L225,12.578V0h-25.157L131.25,34.297V0h-37.5v34.297L25.157,0H0v12.578L49.843,37.5H0V75h49.843L0,99.922V112.5l0,0h25.156L93.75,78.203V112.5h37.5V78.203l68.594,34.297H225V99.922L175.157,75H225V37.5z" />
  <path fill="#C8102E" d="M91.77,75l-75,37.5H0l0,0L75,75H91.77z M58.23,37.5H75L0,0v8.385L58.23,37.5z M123.75,112.5v-45H225V45H123.75V0h-22.5v45H0v22.5h101.25v45H123.75z M225,0h-16.77l-75,37.5H150L225,0z M166.77,75H150l75,37.5v-8.385L166.77,75z" />
  <g>
    <path fill="#FFFFFF" d="M288.55,92.822h96.33l-0.115,68.545c0.802,27.555-16.373,44.654-47.974,52.363c-22.438-5.572-48.314-17.098-48.352-51.581l0.115-69.327L288.55,92.822z" />
    <path fill="#00A2BD" stroke="#000000" stroke-width="0.6797" d="M290.682,94.888h92.06l-0.109,65.683c0.766,26.404-15.648,42.788-45.848,50.176c-21.445-5.339-46.174-16.385-46.211-49.427l0.109-66.432H290.682z" />
    <path fill="#A53D08" d="M382.027,168.352c-3.349,25.204-22.76,36.216-45.246,42.061c-19.902-5.339-41.315-13.863-45.466-41.934l90.713-0.127L382.027,168.352z" />
    <path fill="#000000" d="M333.137,107.124l-0.128-8.278l6.546,0.064l0.064,8.214h17.904l0.064,6.417l-17.968,0.064l-0.144,75.681l-6.385,0.04l-0.082-75.785l-17.843,0.064l0.004-6.546L333.137,107.124z" />
    <g>
      <path fill="#FF9A08" stroke="#000000" stroke-width="0.3628" d="M318.643,171.475	l16.389,17.002c5.667-6.229,1.736-29.511-5.718-33.799c-0.893,2.757-2.413,6.062-4.028,7.128	c-3.553,2.421-12.26,5.252-9.349,7.065c0.664-0.919,2.4-1.787,3.216,0.256c0.97,3.216-3.625,3.421-3.625,3.421	s-2.91-0.358-3.421-3.319c-0.511-2.961,4.335-5.664,4.748-5.871c0.408-0.153,6.739-1.838,7.812-7.454	c1.327-5.514,2.706-4.697,2.961-4.799c8.271,0.817,13.683,15.623,13.989,26.038c0.306,10.415-4.238,17.308-5.055,17.767	c-0.817,0.459-19.707-22.413-19.707-22.413L318.643,171.475L318.643,171.475z" />
      <path fill="#FF9A08" stroke="#000000" stroke-width="0.3628" d="M330.59,155.648l0.102,30.684 M328.752,156.209	c0,0.051,0.102,27.877,0.102,27.877 M326.761,160.243l0.102,22.158 M325.127,161.825l0.102,18.33 M323.391,162.642v15.47	 M321.502,163.868v12.253 M319.868,164.838v9.394" />
      <path fill="none" stroke="#FFDF00" stroke-width="0.3628" stroke-linecap="round" d="M318.387,173.415l16.899,19.35" />
      <path fill="none" stroke="#FFDF00" stroke-width="0.6797" stroke-linecap="round" d="M336.104,161.213	c0,0,7.659,16.747,0.562,30.531 M316.396,169.892c0,0,0.562-1.481,1.276-0.868 M315.069,165.604c0,0-3.063,2.706-1.378,4.442" />
    </g>
    <g>
      <path fill="#008021" stroke="#000000" stroke-width="0.1495" d="M339.667,123.017c1.135-0.973,1.723-1.568,2.426-1.46	c0.703,0.108,1.659,0.054,2.362-0.162c0.705-0.216,4.192-0.649,5.625-0.162c0.487,0.054,1.135,0.325,2.134,1.163	c1.002,0.838,2.461,2.298,1.975,6.353c-0.487,4.055-0.328,5.79-0.541,8.056c-0.377,4.001-1.265,7.296-2.865,7.029	c2.162,3.785,2.378,7.029,3.783,9.624c1.407,2.595,2.271,7.894,1.73,13.626c-0.539,5.731-2.053,18.6,2.487,27.251	c-0.757,0.541-2.594,0-4.218-1.73c-1.621-1.73-2.333-1.674-3.676-0.649c-4.108,3.136-7.956,6.916-13.624,3.136	c-1.298-0.865-1.709-1.903-0.757-4.542c2.378-6.596,3.534-15.647,3.159-19.897L339.667,123.017L339.667,123.017z" />
      <path fill="#FFE1CF" stroke="#000000" stroke-width="0.1495" d="M343.564,118.961c0.297,0.919,0.458,2.109-0.029,3.19	c-0.487,1.081-0.593,2.379,0.216,3.947c1.298-1.838,3.138-1.46,4.218-2.541c1.082-1.082,1.298-2.109,2.11-2.325	c-0.812-0.703-2.055-1.46-1.785-3.514c0.271-2.055,3.135-3.731,0.541-6.867c-1.676-2.024-4.111-1.46-5.165-0.676	c-0.496,0.368-0.919,0.892-1.08,1.243c-0.164,0.352,0.04,1.151-0.354,1.622c-0.268,0.324-0.596,0.647-0.973,0.919	c-0.242,0.176-0.394,0.432-0.135,0.73c0.104,0.119,0.294,0.145,0.503,0.217c-0.121,0.243-0.259,0.486-0.394,0.662	c-0.128,0.165-0.074,0.322,0.081,0.457c-0.204,0.649,0.19,0.719-0.081,1.206c-0.235,0.421-0.553,0.919,0.325,1.406	C341.805,118.772,342.957,119.039,343.564,118.961L343.564,118.961z M333.047,129.721c-1.514,0.379-3.947-0.27-5.787-0.054	c-0.812,0.096-1.46-0.324-1.35-1.135c0.107-0.811,0.216-2.055,0.052-3.19c-0.252-1.769,0.596-4.217,1.785-6.921	c1.189-2.703,1.785-4.217,1.785-5.488c0-0.838,0.081-1.784,0.838-2.271c0.56-0.36,0.667-0.709,0.866-1	c0.458-0.676,0.89-0.838,0.945-0.432c0.033,0.241-0.055,0.46-0.271,0.784c0.487-0.406,1.313-0.879,1.5-1.014	c0.19-0.135,1.151-0.811,1.203-0.176c0.38-0.189,0.636-0.176,0.731,0.027c0.102,0.219,0.04,0.311-0.15,0.473	c0.271-0.054,0.582,0.419,0.04,0.838c0.285-0.095,0.567,0.379,0.069,0.811c-0.517,0.446-1.108,0.757-1.298,1.108	c-0.19,0.352-1.474,1.338-1.987,1.555c-0.515,0.216-0.541,0.513-0.541,1.271c0,8.327-0.999,7.65-0.999,9.651	c0,0.541-0.109,1.027,0.432,0.865c0.541-0.162,1.324-0.405,2.136-0.405V129.721L333.047,129.721z M333.37,147.672	c2.445-1.222,5.245-1.676,6.705-2.054c1.46-0.379,3.786-1.514,4.92-2.109c1.137-0.595,2.055-1.406,2.703-1.622	c0.65-0.216,1.377-0.664,1.785-1.46c2.108-4.109,3.245-7.407,3.245-10.273c0-1.892-0.487-4.001-2.326-2.487	c-1.728,1.423-3.61,4.166-4.108,6.164c-0.757,3.028-1.405,3.677-1.569,4.271c-0.161,0.595-0.774,0.594-1.514,0.757	c-3.19,0.703-3.947,1.189-6.325,2.974c-2.378,1.784-4.975,3.353-6.705,4.326c-1.73,0.973-2.053,1.081-2.433,1.865	c-0.377,0.784-0.729,1.379-1.054,1.73c-0.325,0.351-0.418,0.762-0.351,1.189c0.055,0.352-0.109,1.974-0.135,2.514	c-0.029,0.541,0.107,0.676,0.325,0.703c0.216,0.027,0.513-0.081,0.622-0.73c-0.109,0.649,0.783,0.432,0.838-0.054	c-0.029,0.703,0.919,0.297,0.973-0.352c0,0.46,0.717,0.142,0.783-0.081c0.161-0.541,0.297-1.135,0.513-1.568	c0.316-0.628,0.653-1.441,1.272-1.893C332.236,148.97,331.91,148.402,333.37,147.672L333.37,147.672z M350.889,191.955	c0.164,0.595,0.46,1.271,0.567,1.676c0.109,0.405-0.081,0.532-0.188,0.757c-0.567,1.19-1.177,3.086-1.272,4.109	c-0.052,0.595-0.458,1.163-0.648,1.514c-0.209,0.388-0.128,0.687,0.351,1.054c0.23,0.176,0.973-0.054,1.054-0.432	c0.271,0.27,0.757,0.162,0.973-0.244c0.244,0.244,0.65,0.081,0.921-0.324c0.242,0.162,0.593-0.162,0.729-0.379	c0.38,0.189,0.786-0.04,0.797-0.784c0.002-0.149,0.095-0.406,0.204-0.581c0.107-0.176,0.147-0.514,0.135-0.811	c-0.014-0.297,0.176-0.892,0.432-1.311c0.256-0.419,0.703-1.163,0.513-1.865c-0.176-0.655-0.458-0.595-0.703-1.541	c-0.593-0.622-1.405-1.487-2.243-1.541C351.674,191.198,351.188,191.766,350.889,191.955L350.889,191.955z M335.506,196.605	c0.757,0.757,2.461,0.784,3.65-0.487c-0.432-0.189-1.379-0.622-1.811-0.973C336.75,195.74,336.073,196.416,335.506,196.605z" />
      <path fill="#870F00" stroke="#000000" stroke-width="0.1495" d="M343.158,110.635c0.297-1.919,1.657-1.874,2.513-1.676	c0.351,0.081,1.218,0.162,2.027-0.054c1.604-0.427,2.813,0.135,2.651,1.676c0.432,0.324,0.89,1.081,0.809,1.73	c-0.081,0.649,0.055,0.919,0.65,1c0.593,0.081,1.866,0.811,1.025,1.838c0.812,0.487,1.434,1.73,1.002,2.568	c-0.432,0.838-1.73,0.973-2.271,0.216c-0.593,0.27-1.569,0.324-2.162-0.297c-0.406,0.486-1.434,0.432-1.623,0	c-0.188-0.433-0.508-0.664-0.89-0.784c-0.434-0.135-0.46-1.325,0.188-1.46c-0.081-0.352-0.052-0.757,0.109-0.946	c0.161-0.189,0.026-0.541-0.351-0.838c-0.38-0.297-0.703-1.433-0.325-2.054c-0.648,0.216-2.082-0.406-2.378-0.838	C343.832,110.283,343.429,110.256,343.158,110.635z" />
      <path fill="none" stroke="#000000" stroke-width="0.1495" d="M343.564,118.961c1.054-0.135,1.405-0.784,2.188-0.73	 M341.319,116.025c0.069,0.061,0.157,0.11,0.256,0.165c0.214,0.115,0.446,0.129,0.662,0.155 M341.632,114.907	c0.147,0.051,0.304,0.125,0.444,0.27 M344.077,110.635c-0.622-0.595,1.054-1.811,2.813-0.081c0.328,0.323,1.161,0.325,1.405,0.243	 M346.51,111.554c0.812-0.189,2.027-0.189,2.378,0.73c0.354,0.919,1.056,0.324,1.623,1.406c0.567,1.081,1.46,2.298,2.324,1.46	 M349.403,117.637c-0.244-0.324-0.351-1.027-0.19-1.514c-0.325-0.378-0.19-1.162,0-1.541 M347.077,115.393	c0.029,0.324,0.46,0.919,1.137,1.027 M351.565,117.934c-0.377-0.487-0.325-0.919-0.242-1.514 M347.618,112.554	c-0.026,0.487,0.271,1.135,0.783,1.352c0.109,0.27,0.65,1.027,1.73,0.919 M350.35,110.581c-0.593-0.46-1.398-1.028-2.461-1.168	 M343.752,126.098c-0.919,1.244-1.514,2.974-1.08,5.407c0.432,2.433,1.135,6.002-0.65,7.624 M350.782,143.833	c-1.244-0.27-3.029-0.27-4.002,0.433c-0.973,0.703-2.597,0.757-3.676,0.216 M348.159,143.752	c-1.082,0.189-1.595,0.946-1.595,2.947s-0.432,4.92-0.055,7.786 M346.185,144.59c-0.703,0.189-1.431,0.216-1.296,2.109	 M342.537,146.753c0.026-1.163,0.432-2.244,1.189-2.055 M350.322,146.969c0.055-2.568-0.513-3.298-1.27-3.271	c1.028,0.027,1.728,0.153,2.162,4.352c0.325,3.136,0.98,4.246,1.73,6.705c1.946,6.38,0.973,16.221,1.946,19.681 M348.836,147.726	c2.053,5.948,3.135,12.544-0.216,23.142c2.269,6.272,4.54,10.814,4.972,13.409 M342.346,161.784	c0.377-1.351-0.973-1.514,0.216-6.272c0.515-2.061,0.596-3.298,0.271-3.947 M342.833,154.377	c-0.487,2.109,1.569,6.056,0.541,8.921 M340.832,163.839c0,1.838,0.432,4.217,0.325,6.056c-0.109,1.838,0.641,2.69,1.514,4.434	c3.135,6.272,5.269,10.747,4.972,16.653c-0.052,1.081,0.325,3.352-0.809,4.001 M340.913,196.578	c0.325,0.027,0.676-0.135,1.082-1.108c0.406-0.973,1.704-6.813,1.163-10.814 M343.806,189.198	c0.161,1.243,0.161,3.785-0.648,5.785 M345.862,185.467c0.487,2.65,0.432,5.029,0.055,6.705 M344.779,192.171	c0.055,1.081,0.541,3.785-0.271,4.001 M348.836,179.627c1.998,3.136,3.567,10.868,5.243,12.49 M350.566,190.874	c-0.055-0.865-0.109-2.054-0.596-2.595 M328.965,153.025c0.026-0.595-0.081-1.163,0.567-2.082 M327.992,153.376	c0.081-2.082,0.052-2.271,0.648-2.839 M327.154,153.431c0.026-1.487-0.164-2.001,0.432-2.947 M334.614,108.824	c-0.23,0.149-1.581,1.176-2.148,1.608 M335.195,109.323c-0.256,0.04-0.999,0.649-2.324,1.676 M335.236,110.161	c-0.418,0.189-1.215,0.96-1.946,1.473 M331.911,110.013c-0.202,0.149-0.593,0.581-0.783,0.73 M350.754,200.633	c-0.121-0.135-0.121-0.609,0.095-1.135 M351.726,200.39c-0.147-0.149,0-0.797,0.15-1.217 M352.647,200.065	c-0.176-0.081-0.23-0.46,0.026-0.973 M353.376,199.687c-0.121-0.04-0.176-0.243,0.04-0.838" />
      <path fill="#000000" d="M343.806,113.581c0.076,0.098-0.185,0.078-0.313,0.025c-0.126-0.053-0.444-0.047-0.638-0.045	c-0.192,0.003-0.422-0.224-0.278-0.251c0.142-0.027,0.123-0.071,0.102-0.172c-0.021-0.101,0.081-0.26,0.14-0.289	c0.062-0.029,0.019-0.024-0.036-0.159c-0.057-0.135-0.128-0.464-0.045-0.353c0.392,0.514,0.797,0.459,0.869,0.79	C343.678,113.46,343.73,113.483,343.806,113.581z M344.583,112.61c-0.411-0.454-1.168-0.692-1.607-0.743	c-0.332-0.039-0.188,0.147-0.033,0.187c0.254,0.067,0.731,0.324,0.89,0.527c0.161,0.203,0.482,0.319,0.646,0.305	C344.642,112.873,344.905,112.968,344.583,112.61z" />
    </g>
  </g>
</svg>
