<svg xmlns="http://www.w3.org/2000/svg" width="450px" height="300px" viewBox="0 0 450 300">
  <path fill="#0067C6" d="M0,0h450v300H0V0z" />
  <path fill="#FFFFFF" d="M0,100h450v100H0V100z" />
  <g>
    <path fill="#C8A400" d="M180,149.7l5,0.3c0-0.2,0-0.5,0.1-0.7l-2-0.1c0.1-0.8,0.1-1.6,0.1-2.4c0.7-0.5,1.4-1,2.1-1.5l0.1-0.9l-2.2,1.6c-0.1-0.5-0.4-1.1-0.9-1.2c-0.5-0.2-1-0.2-1.4,0.1c-0.5,0.4-0.6,1-0.7,1.6C180.1,147.5,180.1,148.6,180,149.7L180,149.7z M180.8,149c0.1-0.8,0.1-1.6,0.2-2.5c0.1-0.4,0.1-0.9,0.5-1.1c0.3-0.2,0.8-0.1,0.9,0.3c0.3,0.6,0.1,1.3,0.1,2l-0.1,1.4C181.8,149.1,181.3,149,180.8,149L180.8,149z M180.6,142l4.9,1.1l1.1-4.7l-0.7-0.2l-0.9,4l-1.5-0.4l0.9-3.6l-0.7-0.2l-0.9,3.6l-1.3-0.3l0.9-3.9l-0.7-0.2L180.6,142L180.6,142z M182.4,135.5l4.7,1.6l0.2-0.7l-1.9-0.6c0.2-0.7,0.5-1.4,0.7-2.1c0.2-0.6,0.3-1.3-0.1-1.8c-0.3-0.4-0.8-0.7-1.3-0.6c-0.5,0-1,0.4-1.2,0.9c-0.4,0.7-0.6,1.4-0.8,2.1L182.4,135.5L182.4,135.5z M183.3,135c0.2-0.7,0.5-1.4,0.8-2.1c0.2-0.4,0.4-0.8,0.8-0.9c0.4-0.1,0.7,0.2,0.8,0.6c0.1,0.7-0.2,1.3-0.4,1.9l-0.4,1.1L183.3,135z M185,129.4c0.9,0.5,1.8,1.1,2.7,1.6c0.5,0.3,1.1,0.4,1.7,0.1c0.7-0.4,1.2-1.1,1.5-1.9c0.3-0.6,0.5-1.4,0.1-2s-1.1-0.9-1.7-1.3l-1.7-1l-0.4,0.6c0.9,0.5,1.7,1,2.5,1.5c0.4,0.2,0.7,0.7,0.7,1.2c-0.1,0.6-0.4,1.1-0.8,1.6c-0.3,0.4-0.7,0.7-1.2,0.6c-0.5-0.1-0.9-0.4-1.4-0.7l-1.7-1L185,129.4L185,129.4z M188.6,123.5l4,3c0.6-0.8,1.2-1.6,1.9-2.4c0.4-0.5,0.7-1.2,0.4-1.8c-0.2-0.5-0.7-0.9-1.3-0.9c-0.2,0-0.6,0.2-0.7,0.2c0.1-0.5-0.3-1-0.8-1.2c-0.6-0.2-1.2,0.2-1.6,0.6c-0.5,0.5-0.8,1.1-1.3,1.6L188.6,123.5L188.6,123.5z M189.6,123.4c0.5-0.6,0.9-1.2,1.4-1.8c0.2-0.2,0.6-0.5,0.9-0.3c0.3,0.1,0.4,0.5,0.2,0.8c-0.2,0.5-0.6,0.9-1,1.4l-0.5,0.7L189.6,123.4L189.6,123.4z M191.2,124.6c0.5-0.6,0.9-1.3,1.4-1.8c0.3-0.3,0.6-0.6,1-0.5s0.6,0.5,0.5,0.8c-0.2,0.7-0.7,1.2-1.1,1.7l-0.6,0.8L191.2,124.6L191.2,124.6z M193.1,118.2l3.4,3.6l2.9-2.8l-0.5-0.5l-2.4,2.2l-0.1,0.1v-0.1l-2.9-3.1L193.1,118.2z M197.5,114.4l3.1,4l0.6-0.5l-3.1-4L197.5,114.4z M202,111.3c-0.5,0.3-0.9,0.7-1.2,1.1s-0.5,0.9-0.5,1.3c0,0.5,0.1,0.9,0.4,1.3c0.2,0.4,0.6,0.7,1,0.9c0.4,0.2,0.9,0.3,1.3,0.2c0.5-0.1,1-0.3,1.6-0.7c0.6-0.4,1-0.8,1.2-1.3s0.3-0.9,0.2-1.5l-0.7,0.3c0.2,1-0.5,1.5-1.2,1.9c-1.1,0.7-2.2,0.6-2.9-0.4c-0.7-1.2,0.1-2.1,1-2.8c0.7-0.4,1.4-0.7,2-0.3l0.5-0.5c-0.4-0.3-0.8-0.4-1.3-0.3C203.1,110.8,202.6,111,202,111.3L202,111.3z M207.9,108.4l-0.5,5.6l0.8-0.3l0.2-1.7l0,0l2.5-1l1.3,1.1l0.8-0.3l-4.3-3.7L207.9,108.4L207.9,108.4z M208.6,109l1.7,1.4l-1.9,0.8L208.6,109L208.6,109z M218.9,105.3l0.3,5c0.9-0.1,1.8-0.1,2.7-0.2c0.7-0.1,1.5-0.3,1.9-0.8c0.6-0.7,0.7-1.7,0.4-2.6c-0.2-0.8-0.9-1.3-1.7-1.5s-1.5,0-2.3,0L218.9,105.3L218.9,105.3z M219.6,106c0.7,0,1.4-0.1,2.1-0.1c0.4,0,0.8,0.1,1.1,0.3c0.5,0.3,0.8,1,0.7,1.6c0,0.7-0.6,1.3-1.2,1.5c-0.4,0.1-0.8,0.1-1.2,0.2l-1.4,0.1L219.6,106L219.6,106z M225.8,105l-0.3,5l4.9,0.3v-0.7c-1.4-0.1-2.8-0.2-4.1-0.2c0-0.5,0.1-1,0.1-1.5l3.7,0.2v-0.7c-1.2-0.1-2.5-0.1-3.7-0.2l0.1-1.3c1.3,0.1,2.6,0.2,4,0.2v-0.7L225.8,105L225.8,105z M238.9,107.1l-1.8,4.7l0.6,0.2l1.4-3.7l0.1-0.2l0.1,0.2l1.7,5l0.8,0.3l1.8-4.7l-0.6-0.2l-1.4,3.7l-0.1,0.2l-0.1-0.2l-1.7-5L238.9,107.1z M245.6,110l-2.3,4.4l-0.7-0.3l2.3-4.4L245.6,110z M249.4,112.2c-0.5-0.3-1-0.5-1.5-0.6s-1-0.1-1.4,0.1s-0.8,0.5-1.1,0.9c-0.2,0.4-0.4,0.8-0.4,1.3s0.1,0.9,0.3,1.3s0.7,0.8,1.3,1.2c0.6,0.4,1.1,0.6,1.7,0.6c0.5,0,1-0.1,1.4-0.4l-0.5-0.5c-0.8,0.6-1.5,0.2-2.3-0.3c-1.1-0.7-1.5-1.8-0.9-2.8c0.8-1.1,2-0.8,2.9-0.2c0.7,0.4,1.2,0.9,1.1,1.7l0.7,0.3c0.1-0.4,0-0.9-0.2-1.3C250.3,112.9,249.9,112.5,249.4,112.2L249.4,112.2z M254.1,115.8l-5.2,2.1l0.6,0.6l1.6-0.7l0,0l2.1,1.8l-0.4,1.7l0.6,0.6l1.3-5.5L254.1,115.8L254.1,115.8z M253.9,116.6l-0.5,2.1l-1.5-1.3L253.9,116.6L253.9,116.6z M257.9,119.2l-3.9,3.2l0.5,0.6l1.5-1.2c0.5,0.6,1,1.2,1.5,1.8c-0.2,0.8-0.3,1.7-0.5,2.5l0.6,0.7l0.5-2.7c0.4,0.3,1.1,0.5,1.6,0.2c0.4-0.2,0.8-0.6,0.9-1.1c0-0.7-0.4-1.2-0.8-1.8C259.2,120.8,258.5,120,257.9,119.2z M257.8,120.3c0.5,0.7,1.1,1.3,1.6,2c0.2,0.3,0.5,0.8,0.3,1.3c-0.2,0.3-0.7,0.3-1,0.1c-0.6-0.4-1-1-1.5-1.6l-0.6-0.7L257.8,120.3L257.8,120.3z M263.8,127.2l-5.6,0.3l0.4,0.7l1.7-0.1l0,0l1.4,2.4l-1,1.5l0.4,0.7l3-4.7L263.8,127.2L263.8,127.2z M263.3,128l-1.2,1.8l-1-1.7L263.3,128L263.3,128z M267,133.8c-0.3-0.9-0.8-1.7-1.6-2.1c-0.9-0.5-2.2-0.2-2.8,0.6c-0.6,0.7-0.6,1.6-0.5,2.5c0.2,1,0.6,1.9,1.3,2.6l-0.4,0.1l0.2,0.7l2.3-0.8l-0.9-2.5l-0.5,0.2l0.7,1.9l-0.8,0.3c-0.7-0.6-1.1-1.5-1.3-2.4c-0.1-0.7-0.2-1.5,0.4-2c0.6-0.6,1.6-0.8,2.3-0.3c0.7,0.5,1.1,1.3,1.3,2.1c0.1,0.5,0.1,1.2-0.3,1.6c-0.1,0.1,0.1,0.2,0.1,0.3l0.2,0.3c0.4-0.3,0.7-0.9,0.7-1.4C267.3,134.9,267.1,134.3,267,133.8L267,133.8z M268.4,137.7l-2.8,0.5c-0.5,0.1-0.9,0.3-1.2,0.5s-0.4,0.5-0.5,0.9s-0.1,0.9,0,1.5l0,0c0.1,0.6,0.3,1.1,0.5,1.4c0.2,0.4,0.5,0.6,0.8,0.7c0.3,0.1,0.7,0.1,1.3,0l2.8-0.5l-0.1-0.7l-2.7,0.5c-1.2,0.2-1.6-0.4-1.9-1.5l0,0c-0.2-1.1-0.1-1.9,1.1-2.1l2.7-0.5L268.4,137.7L268.4,137.7z M269.9,146.2l-5.2-2.2l0.1,0.8l1.6,0.7l0,0l0.2,2.7l-1.5,0.9l0.1,0.8l4.8-2.9L269.9,146.2L269.9,146.2z M269.2,146.7l-1.9,1.1l-0.1-2L269.2,146.7L269.2,146.7z M183.9,159.2l-0.7,0.2l0.8,3.1l0.7-0.2L183.9,159.2z M266.1,159.2l0.7,0.2l-0.8,3.1l-0.7-0.2L266.1,159.2z M191.6,172l-5.6,0.6l0.5,0.7l1.7-0.2l0,0l1.5,2.3l-0.9,1.5l0.5,0.7l2.7-4.9L191.6,172z M191.2,172.8l-1.1,1.9L189,173L191.2,172.8z M193.8,175.1l-3.6,3.3l0.5,0.5l3-2.8l-1.6,4.3l0.6,0.6l4.3-1.3l-2.9,2.8l0.5,0.5l3.6-3.3l-0.7-0.8l-4.4,1.3l1.6-4.2L193.8,175.1z M198.9,180.3l-3,4l3.9,2.9l0.4-0.6l-3.3-2.5l0.9-1.2l3,2.2l0.4-0.6l-3-2.2l0.8-1.1l3.2,2.4l0.4-0.6L198.9,180.3L198.9,180.3z M203.8,183.9l-2.4,4.4c0.2,0.1,0.4,0.2,0.6,0.3l0.9-1.7c0.7,0.4,1.4,0.8,2.1,1.1c0.2,0.8,0.3,1.7,0.5,2.5l0.8,0.4l-0.6-2.6c0.5,0.2,1.2,0.1,1.6-0.4c0.3-0.4,0.5-0.9,0.4-1.3c-0.2-0.6-0.8-1-1.4-1.3C205.6,184.9,204.7,184.4,203.8,183.9L203.8,183.9z M204.1,184.9c0.8,0.4,1.5,0.8,2.3,1.2c0.3,0.2,0.8,0.6,0.7,1c0,0.4-0.5,0.6-0.9,0.5c-0.7-0.1-1.4-0.6-2-0.9l-0.9-0.5L204.1,184.9L204.1,184.9z M209.5,186.9l-1.9,4.6l0.7,0.3l1.9-4.6L209.5,186.9z M214,188.4c-0.6-0.2-1.1-0.3-1.6-0.2s-1,0.2-1.3,0.5s-0.6,0.6-0.8,1.1c-0.1,0.4-0.2,0.9-0.1,1.4c0.1,0.5,0.3,0.9,0.7,1.2s0.9,0.6,1.5,0.9c0.6,0.2,1.2,0.3,1.8,0.1c0.5-0.1,0.9-0.4,1.3-0.8l-0.6-0.4c-0.6,0.8-1.4,0.6-2.2,0.3c-1.2-0.4-1.9-1.3-1.6-2.5c0.4-1.3,1.7-1.3,2.8-1c0.8,0.2,1.4,0.6,1.5,1.3l0.7,0.1c0-0.4-0.2-0.9-0.6-1.2C215.1,188.9,214.6,188.6,214,188.4L214,188.4z M219,189.6l-3.3,4.6l0.8,0.1l1-1.4l0,0l2.7,0.4l0.6,1.6l0.8,0.1l-1.8-5.3L219,189.6z M219.3,190.4l0.7,2.1l-2-0.3L219.3,190.4L219.3,190.4z M230.7,189.6c-0.6,0.1-1.1,0.3-1.5,0.6s-0.8,0.6-0.9,1.1s-0.2,0.9-0.1,1.4c0.1,0.4,0.3,0.9,0.6,1.2c0.3,0.4,0.7,0.6,1.2,0.7c0.5,0.1,1.1,0.1,1.8,0s1.2-0.4,1.6-0.7c0.4-0.3,0.6-0.8,0.7-1.3h-0.7c-0.2,1-1,1.2-1.8,1.4c-1.3,0.2-2.3-0.2-2.6-1.4c-0.2-1.3,0.8-2,1.9-2.2c0.8-0.1,1.5-0.2,2,0.4l0.7-0.3c-0.3-0.4-0.6-0.6-1.1-0.8C231.9,189.5,231.4,189.5,230.7,189.6L230.7,189.6z M234.1,189l1.4,4.8l4.7-1.4l-0.2-0.7l-4,1.2l-0.4-1.5l3.6-1.1l-0.2-0.7l-3.6,1.1l-0.4-1.3l3.8-1.1l-0.2-0.7L234.1,189z M239.5,187.3l2.1,4.5l0.6-0.3l-1.8-3.8c1.6,0.7,3.2,1.5,4.8,2.2c0.1,0.1,0.2,0,0.3,0l0.6-0.3l-2.1-4.5l-0.6,0.3l1.8,3.8c-1.7-0.8-3.3-1.5-5-2.3L239.5,187.3L239.5,187.3z M245,184.7l0.4,0.6l1.8-1.2h0.1v0.1l2.3,3.5l0.6-0.4l-2.3-3.5v-0.1h0.1l1.8-1.2l-0.4-0.6L245,184.7z M250,181.3l3.4,3.7l0.5-0.5l-1.3-1.4c0.6-0.6,1.2-1.1,1.8-1.6c0.9,0.1,1.7,0.2,2.5,0.3l0.7-0.6l-2.7-0.4c0.3-0.4,0.5-1.1,0.2-1.6c-0.2-0.4-0.7-0.8-1.2-0.8c-0.7,0-1.2,0.5-1.7,0.9C251.5,179.9,250.7,180.6,250,181.3L250,181.3z M251,181.3c0.6-0.6,1.2-1.2,1.9-1.7c0.3-0.3,0.8-0.6,1.2-0.3c0.4,0.2,0.4,0.7,0.1,1c-0.4,0.6-1,1.1-1.5,1.6l-0.7,0.6L251,181.3z M255.8,175.5l2.2,5.2l0.5-0.6l-0.7-1.6l0,0l1.7-2.1l1.7,0.4l0.5-0.6l-5.5-1.2L255.8,175.5L255.8,175.5z M256.7,175.6l2.1,0.5l-1.3,1.6L256.7,175.6L256.7,175.6z M258,172.6l4.2,2.7l2.2-3.4l-0.6-0.4l-1.8,2.7v0.1l0,0l-3.5-2.3L258,172.6z" />
    <g>
      <path fill="#FFFFFF" d="M225,113.2l-15.7,27.3l-7.7,13.4h46.9l-7.4-12.7L225,113.2L225,113.2z" />
      <path opacity="0.62" fill="#17C0EB" enable-background="new    " d="M224,143.4l-21.4,15.3l0,0l-0.9,2.2l2.4-0.3l0,0l20-17.1L205,161.7l0,0l-0.5,2.3h-0.1l2.4-0.6l0,0l17.4-19.8l-16.3,20.7l0,0l-0.3,2.4l2.2-1l0,0l14.6-21.9L211,166.4l0,0l0.1,1.9h0.9l1.1-0.7h0.1l11.3-23.8l-10,24.3v0.1v0.1h2.4l7.8-24.4l-6.3,24.4h2.3l4.1-24.4l-2.7,24.4h2.2l0.7-24.4l0.7,24.4h2.2l-2.7-24.4l4.1,24.4h2.3l-6.3-24.4l7.8,24.4h2.4v-0.1l0,0l-10-24.4l11.3,23.8l0,0l1.2,0.7h0.9l0.1-1.9l0,0l-13.4-22.6l14.6,21.9l0,0l2.1,0.9l0.1,0.1l-0.3-2.4l-16.3-20.7l17.4,19.8l0,0l2.3,0.6h0.1l-0.6-2.3l0,0l-19.1-18.2l20,17.1l0,0l2.4,0.3l-0.9-2.2l0,0L226,143.4l22.2,14.1l0,0l0,0h2.2l-1.4-2.3l-22.9-11.9l21.7,9.8l-1.7-2.9l-20-7.1l19.2,5.7l-1.2-2.2l-17.9-3.7l17.2,2.6l-1-1.7l-16.2-1l15.7,0.1l-0.8-1.5l-14.9,1.2l14.4-1.9l-0.7-1.3l-13.7,3l13.3-3.7l-0.7-1.2l-12.7,4.8l12.3-5.4l-0.6-1.1l-11.8,6.3l11.4-7l-0.6-1.1l-10.9,8l10.5-8.6l-0.7-1.2l-9.9,9.7l9.5-10.4l-0.7-1.3l-8.9,11.6l8.4-12.4l-0.8-1.4l-7.7,13.7l7.2-14.6l-1-1.7l-6.4,16.2l5.8-17.3l-1.3-2.2l-4.7,19.5l3.9-20.9l-1.7-2.9l-2.3,23.7l1.1-25.8l-1.2-2.1l-1.2,2.1l1.1,25.8l-2.3-23.7l-1.7,2.9l3.9,20.9l-4.7-19.5l-1.3,2.2l5.8,17.3l-6.4-16.2l-1,1.7l7.2,14.6l-7.7-13.7l-0.8,1.4l8.4,12.4l-8.9-11.6l-0.7,1.3l9.5,10.4l-9.9-9.7l-0.7,1.2l10.5,8.6l-10.9-8l-0.6,1.1l11.4,7l-11.8-6.3l-0.6,1.1l12.3,5.4l-12.7-4.8l-0.7,1.2l13.3,3.7l-13.7-3l-0.7,1.3l14.4,1.9l-14.9-1.2l-0.8,1.5l15.7-0.1l-16.2,1l-1,1.7l17.2-2.6l-17.9,3.7l-1.2,2.2l19.2-5.7l-20,7.1l-1.7,2.9l21.7-9.8L201,155.2l-1.4,2.3h2.2L224,143.4z" />
      <g>
        <path fill="#FF0000" d="M225,132.9c-5.3,0-10.5,1.9-14.5,5.4l-7.3,12.7c-0.2,1.4-0.4,2.7-0.4,4.1h2.5c0-10.9,8.8-19.7,19.7-19.7	s19.7,8.8,19.7,19.7h2.5c0-1.4-0.1-2.8-0.4-4.1l-7.3-12.7C235.5,134.8,230.3,132.9,225,132.9z" />
        <path fill="#FF6600" d="M225,133.3c-5.9,0-11.2,2.3-15.1,6.1l-6,10.4c-0.4,1.7-0.6,3.5-0.6,5.2h2.1c0-10.9,8.8-19.7,19.7-19.7	s19.7,8.8,19.7,19.7h2.1c0-1.8-0.2-3.6-0.6-5.3l-6-10.4C236.2,135.7,230.9,133.3,225,133.3L225,133.3z" />
        <path fill="#FFFF00" d="M225,133.7c-6.4,0-12.1,2.8-16,7.2l-4.4,7.6c-0.7,2.2-1.1,4.4-1.1,6.7h1.7c0-10.9,8.8-19.7,19.7-19.7	s19.7,8.8,19.7,19.7h1.7c0-2.3-0.4-4.6-1.1-6.7l-4.4-7.6C237.1,136.5,231.4,133.7,225,133.7L225,133.7z" />
        <path fill="#00FF00" d="M225,134.1c-7.3,0-13.7,3.7-17.4,9.3l-1.4,2.4c-1.4,2.9-2.1,6-2.1,9.2h1.3c0-10.9,8.8-19.7,19.7-19.7	s19.7,8.8,19.7,19.7h1.3c0-3.2-0.7-6.4-2.1-9.2l-1.4-2.5C238.7,137.8,232.3,134.1,225,134.1L225,134.1z" />
        <path fill="#00CCFF" d="M225,134.5c-11.4,0-20.6,9.2-20.6,20.6h0.9c0-10.9,8.8-19.7,19.7-19.7s19.7,8.8,19.7,19.7h0.9	C245.6,143.8,236.4,134.5,225,134.5z" />
        <path fill="#0000FF" d="M225,134.9c-11.1,0-20.2,9.1-20.2,20.2h0.7c0-10.8,8.7-19.5,19.5-19.5s19.5,8.7,19.5,19.5h0.7	C245.2,144,236.1,134.9,225,134.9z" />
        <path fill="#800080" d="M225,135.3c-10.9,0-19.8,8.9-19.8,19.8c0,0.1,0,0.2,0,0.4h0.4c0-0.1,0-0.2,0-0.4	c0-10.7,8.7-19.4,19.4-19.4s19.4,8.7,19.4,19.4c0,0.1,0,0.2,0,0.4h0.4c0-0.1,0-0.2,0-0.4C244.8,144.2,235.9,135.3,225,135.3z" />
      </g>
      <g>
        <path fill="#510000" d="M225.2,144.1c-0.3-0.1-0.6-0.2-0.9-0.3c-0.4,0.4-0.4,0.7-0.4,1c0.1,0.1,0.1,0.2,0.4,0.4s0.2,0.4,0.2,1	c0,0.2,0,0.8,0.3,0.8c0.3,0.1,0.5-0.2,0.5-0.6c0.1-0.4,0.2-0.6,0.4-0.9C225.9,144.7,225.7,144.4,225.2,144.1L225.2,144.1z" />
        <path fill="#FF0000" d="M223.6,141.8c-0.3,0-0.8,0.5-1,0.2c-0.1-0.1-0.1-0.4,0-0.7c0.3-0.6,0.6-0.9,1.1-1.2	c1.2-0.7,1.9-0.5,2.5,0.5c0.6,0.9,1.1,1.9,1.1,2.7c0,0.2,0.1,0.7-0.1,0.9c-0.7,0.7-2.3-0.7-3.2-0.5c-0.3,0.1-0.7,0.3-1,0.1	c-0.2-0.1,0-0.5,0.1-0.6c0.3-0.3,0.8-1.2,0.7-1.6C223.8,141.4,223.8,141.8,223.6,141.8L223.6,141.8z" />
        <linearGradient id="Gradient_NI_1" gradientUnits="userSpaceOnUse" x1="224.7055" y1="-310.6402" x2="225.6495" y2="-307.8228" gradientTransform="matrix(1 0 0 -1 0 -166)">
          <stop offset="0" style="stop-color:#510000" />
          <stop offset="0.3" style="stop-color:#8A0000" />
          <stop offset="1" style="stop-color:#AA0000" />
        </linearGradient>
        <path fill="url(#Gradient_NI_1)" d="M223.5,141.3c-0.5,0.2-0.5,0.5-0.8,0.8c0.1,0,0.4,0.1,0.7-0.1c0.1-0.1,0.3-0.1,0.3-0.2	c-0.1,0.1-0.3,0.3-0.3,0.3c-0.2,0.2-0.5,0.5-0.7,0.9s-0.2,0.8-0.2,0.9c0,0.1,0.2,0.4,0.8,0.6c1,0.4,1.2,1.2,2.2,1.2	c0.8,0,0.7-0.5,1.3-0.4s0.9-0.4,0.3-0.6c-0.7-0.2-2.1-0.1-2.7,0c-0.2-2,0-1.3-0.1-2.2s-0.3-0.9,0-1.6	C224.2,141.3,223.8,141.2,223.5,141.3L223.5,141.3z" />
        <path fill="#FF2A2A" d="M225.5,139.9c0,0.1,0,0.3,0,0.3c0,0.2,0.1,0.4,0.1,0.5c0.1,0.2,0.1,0.3,0.1,0.5s0.2,0.2,0.4,0.4	c0.2,0.1,0,0.5,0.2,0.5c0.1,0,0.2-0.5,0.2-0.6s0-0.2,0-0.3c-0.1-0.1-0.1-0.3-0.2-0.4l0,0c0-0.1-0.1-0.1-0.1-0.2	c-0.1-0.2-0.2-0.3-0.4-0.4l0,0C225.7,140,225.6,140,225.5,139.9L225.5,139.9L225.5,139.9z" />
        <linearGradient id="Gradient_NI_2" gradientUnits="userSpaceOnUse" x1="224.6638" y1="-311.2866" x2="225.4053" y2="-309.3246" gradientTransform="matrix(1 0 0 -1 0 -166)">
          <stop offset="0" style="stop-color:#FF2A2A" />
          <stop offset="1" style="stop-color:#FF0000" />
        </linearGradient>
        <path fill="url(#Gradient_NI_2)" d="M225.6,143.7c-0.4-0.1-0.7-0.3-1-0.4	c-0.6-0.2-1.2-0.6-1.7-0.4c-0.2,0.1-0.1,0.2-0.2,0.5c0,0.3-0.3,0.7-0.1,0.5c0.3-0.2,1.2,0.4,1.6,0.6c0.1,0.1,0.4,0.3,0.5,0.5	s0.1,0.9,0,1.1c0,0.3,0.1,0.9,0.3,1c0.3,0.1,0.5-0.2,0.7-0.6c0.1-0.4,0.2-0.7,0.4-1s0.4-0.4,0.7-0.4c0.3-0.1,0.7,0.2,0.7-0.1	c0-0.2-0.2-0.4-0.1-0.7c0.1-0.2-0.2-0.2-0.4-0.3C226.4,143.8,226,143.8,225.6,143.7L225.6,143.7z" />
        <path fill="#910000" d="M224.2,144.4c-0.2-0.1-1.2-0.7-1.5-0.5c-0.1,0.1-0.2,0-0.2-0.1s0.1-0.3,0.1-0.4c0-0.1,0.1-0.4,0.3-0.5	c0.3-0.3,1.1,0.3,1.6,0.4C224.4,143.5,224.2,144.4,224.2,144.4L224.2,144.4z" />
        <path fill="#FF3A3A" d="M225.9,145.7c0.5-0.8,0.8-0.7,1.3-0.7c0.2,0,0.2-0.2,0.2-0.3c-0.1,0.3-0.8,0-1.2,0.1	c-0.8,0.4-0.6,1.9-1,2C225.6,147.1,225.7,145.9,225.9,145.7L225.9,145.7z" />
      </g>
      <g>
        <path fill="#FFFFFF" d="M201.6,153.8l-5,8.6h56.9l-5-8.6H201.6L201.6,153.8z" />
        <linearGradient id="Gradient_NI_3" gradientUnits="userSpaceOnUse" x1="194.1169" y1="-44.5" x2="299.809" y2="-44.5" gradientTransform="matrix(1 0 0 1 0 202)">
          <stop offset="0" style="stop-color:#002255" />
          <stop offset="0.5" style="stop-color:#0044AA" />
          <stop offset="1" style="stop-color:#002255" />
        </linearGradient>
        <path fill="url(#Gradient_NI_3)" d="M198.5,159.5l0.2-0.4c0.4,0,0.7-0.1,1.1-0.1	l0,0c0.8,0,1.5,0,2.3,0c1.8,0,3.2,0.4,4.9,0.4c1.6,0,3.1-0.4,4.9-0.4c0.8,0,1.5,0,2.3,0c1.8,0,3.2,0.4,4.9,0.4	c1.6,0,3.1-0.4,4.9-0.4c0.8,0,1.5,0,2.3,0c1.8,0,3.2,0.4,4.9,0.4c1.6,0,3.1-0.4,4.9-0.4c0.8,0,1.5,0,2.3,0c1.8,0,3.2,0.4,4.9,0.4	c1.6,0,3.1-0.4,4.9-0.4c0.8,0,1.5,0,2.3,0c0.3,0,0.6,0,0.9,0l0.2,0.4c-0.8-0.1-1.6-0.2-2.5-0.2c-1.6,0-3.1,0.4-4.9,0.4	c-0.8,0-1.5,0-2.3,0c-1.8,0-3.2-0.4-4.9-0.4c-1.6,0-3.1,0.4-4.9,0.4c-0.8,0-1.5,0-2.3,0c-1.8,0-3.2-0.4-4.9-0.4	c-1.6,0-3.1,0.4-4.9,0.4c-0.7,0-1.5,0-2.3,0c-1.8,0-3.2-0.4-4.9-0.4c-1.6,0-3.1,0.4-4.9,0.4c-0.8,0-1.5,0-2.3,0	c-1.8,0-3.2-0.4-4.9-0.4C200,159.3,199.3,159.4,198.5,159.5z M200.8,158.7c1.6,0,3.1,0.4,4.9,0.4c0.8,0,1.5,0,2.3,0	c1.8,0,3.2-0.4,4.9-0.4c1.6,0,3.1,0.4,4.9,0.4c0.8,0,1.6,0,2.3,0c1.8,0,3.2-0.4,4.9-0.4c1.6,0,3.1,0.4,4.9,0.4c0.8,0,1.5,0,2.3,0	c1.8,0,3.2-0.4,4.9-0.4c1.6,0,3.1,0.4,4.9,0.4c0.8,0,1.5,0,2.3,0c1.8,0,3.2-0.4,4.9-0.4c0.7,0,1.4,0.1,2.1,0.2l-0.2-0.4	c-0.2,0-0.4,0-0.6,0c-0.8,0-1.5,0-2.3,0c-1.8,0-3.2,0.4-4.9,0.4c-1.6,0-3.1-0.4-4.9-0.4c-0.8,0-1.5,0-2.3,0	c-1.8,0-3.2,0.4-4.9,0.4c-1.6,0-3.1-0.4-4.9-0.4c-0.8,0-1.5,0-2.3,0c-1.8,0-3.2,0.4-4.9,0.4c-1.6,0-3.1-0.4-4.9-0.4	c-0.8,0-1.5,0-2.3,0c-1.8,0-3.2,0.4-4.9,0.4c-1.6,0-3.1-0.4-4.9-0.4c-0.8,0-1.5,0-2.3,0l0,0c-0.3,0-0.5,0-0.8,0l-0.2,0.4	C199.5,158.8,200.1,158.7,200.8,158.7z M200.8,159.8c1.6,0,3.1,0.4,4.9,0.4c0.8,0,1.5,0,2.3,0c1.8,0,3.2-0.4,4.9-0.4	c1.6,0,3.1,0.4,4.9,0.4c0.8,0,1.6,0,2.3,0c1.8,0,3.2-0.4,4.9-0.4c1.6,0,3.1,0.4,4.9,0.4c0.8,0,1.5,0,2.3,0c1.8,0,3.2-0.4,4.9-0.4	c1.6,0,3.1,0.4,4.9,0.4c0.8,0,1.5,0,2.3,0c1.8,0,3.2-0.4,4.9-0.4c1,0,1.9,0.2,2.8,0.3l-0.3-0.4c-0.4,0-0.8-0.1-1.3-0.1	c-0.8,0-1.5,0-2.3,0c-1.8,0-3.2,0.4-4.9,0.4c-1.6,0-3.1-0.4-4.9-0.4c-0.8,0-1.5,0-2.3,0c-1.8,0-3.2,0.4-4.9,0.4	c-1.6,0-3.1-0.4-4.9-0.4c-0.8,0-1.5,0-2.3,0c-1.8,0-3.2,0.4-4.9,0.4c-1.6,0-3.1-0.4-4.9-0.4c-0.8,0-1.5,0-2.3,0	c-1.8,0-3.2,0.4-4.9,0.4c-1.6,0-3.1-0.4-4.9-0.4c-0.8,0-1.5,0-2.3,0l0,0c-0.5,0-1,0-1.4,0.1l-0.2,0.4	C199.1,160,199.9,159.8,200.8,159.8z M248.3,154l-0.1-0.1h-46.6l-0.1,0.1H248.3z M200.8,160.4c1.6,0,3.1,0.4,4.9,0.4	c0.8,0,1.5,0,2.3,0c1.8,0,3.2-0.4,4.9-0.4c1.6,0,3.1,0.4,4.9,0.4c0.8,0,1.6,0,2.3,0c1.8,0,3.2-0.4,4.9-0.4c1.6,0,3.1,0.4,4.9,0.4	c0.8,0,1.5,0,2.3,0c1.8,0,3.2-0.4,4.9-0.4c1.6,0,3.1,0.4,4.9,0.4c0.8,0,1.5,0,2.3,0c1.8,0,3.2-0.4,4.9-0.4c1.1,0,2.1,0.2,3.2,0.3	l-0.3-0.4c-0.5-0.1-1.1-0.1-1.6-0.1c-0.8,0-1.5,0-2.3,0c-1.8,0-3.2,0.4-4.9,0.4c-1.6,0-3.1-0.4-4.9-0.4c-0.8,0-1.5,0-2.3,0	c-1.8,0-3.2,0.4-4.9,0.4c-1.6,0-3.1-0.4-4.9-0.4c-0.8,0-1.5,0-2.3,0c-1.8,0-3.2,0.4-4.9,0.4c-1.6,0-3.1-0.4-4.9-0.4	c-0.8,0-1.5,0-2.3,0c-1.8,0-3.2,0.4-4.9,0.4c-1.6,0-3.1-0.4-4.9-0.4c-0.8,0-1.5,0-2.3,0l0,0c-0.6,0-1.2,0.1-1.8,0.1l-0.2,0.4	C198.8,160.6,199.8,160.4,200.8,160.4z M200.8,158.1c1.6,0,3.1,0.4,4.9,0.4c0.8,0,1.5,0,2.3,0c1.8,0,3.2-0.4,4.9-0.4	c1.6,0,3.1,0.4,4.9,0.4c0.8,0,1.6,0,2.3,0c1.8,0,3.2-0.4,4.9-0.4c1.6,0,3.1,0.4,4.9,0.4c0.8,0,1.5,0,2.3,0c1.8,0,3.2-0.4,4.9-0.4	c1.6,0,3.1,0.4,4.9,0.4c0.8,0,1.5,0,2.3,0c1.8,0,3.2-0.4,4.9-0.4c0.6,0,1.2,0.1,1.8,0.1l-0.2-0.4c-0.1,0-0.2,0-0.3,0	c-0.8,0-1.5,0-2.3,0c-1.8,0-3.2,0.4-4.9,0.4c-1.6,0-3.1-0.4-4.9-0.4c-0.8,0-1.5,0-2.3,0c-1.8,0-3.2,0.4-4.9,0.4	c-1.6,0-3.1-0.4-4.9-0.4c-0.8,0-1.5,0-2.3,0c-1.8,0-3.2,0.4-4.9,0.4c-1.6,0-3.1-0.4-4.9-0.4c-0.8,0-1.5,0-2.3,0	c-1.8,0-3.2,0.4-4.9,0.4c-1.6,0-3.1-0.4-4.9-0.4c-0.8,0-1.5,0-2.3,0l0,0c-0.1,0-0.3,0-0.4,0l-0.2,0.4	C199.7,158.2,200.3,158.1,200.8,158.1z M205.7,157.4c0.8,0,1.5,0,2.3,0c1.8,0,3.2-0.4,4.9-0.4c1.6,0,3.1,0.4,4.9,0.4	c0.8,0,1.6,0,2.3,0c1.8,0,3.2-0.4,4.9-0.4c1.6,0,3.1,0.4,4.9,0.4c0.8,0,1.5,0,2.3,0c1.8,0,3.2-0.4,4.9-0.4c1.6,0,3.1,0.4,4.9,0.4	c0.8,0,1.5,0,2.3,0c1.8,0,3.2-0.4,4.9-0.4c0.4,0,0.7,0,1.1,0.1l-0.2-0.3c-0.6,0-1.3,0-1.9,0c-1.8,0-3.2,0.4-4.9,0.4	c-1.6,0-3.1-0.4-4.9-0.4c-0.8,0-1.5,0-2.3,0c-1.8,0-3.2,0.4-4.9,0.4c-1.6,0-3.1-0.4-4.9-0.4c-0.8,0-1.5,0-2.3,0	c-1.8,0-3.2,0.4-4.9,0.4c-1.6,0-3.1-0.4-4.9-0.4c-0.8,0-1.5,0-2.3,0c-1.8,0-3.2,0.4-4.9,0.4c-1.6,0-3.1-0.4-4.9-0.4	c-0.7,0-1.4,0-2.1,0l-0.2,0.3c0.3,0,0.6-0.1,0.9-0.1C202.5,157.1,204,157.4,205.7,157.4z M248.2,153.8l-0.1-0.1h-46.3l-0.1,0.1	H248.2z M200.8,157.6c1.6,0,3.1,0.4,4.9,0.4c0.8,0,1.5,0,2.3,0c1.8,0,3.2-0.4,4.9-0.4c1.6,0,3.1,0.4,4.9,0.4c0.8,0,1.6,0,2.3,0	c1.8,0,3.2-0.4,4.9-0.4c1.6,0,3.1,0.4,4.9,0.4c0.8,0,1.5,0,2.3,0c1.8,0,3.2-0.4,4.9-0.4c1.6,0,3.1,0.4,4.9,0.4c0.8,0,1.5,0,2.3,0	c1.8,0,3.2-0.4,4.9-0.4c0.5,0,1,0.1,1.4,0.1l-0.2-0.4c-0.7,0-1.5,0-2.2,0c-1.8,0-3.2,0.4-4.9,0.4c-1.6,0-3.1-0.4-4.9-0.4	c-0.8,0-1.5,0-2.3,0c-1.8,0-3.2,0.4-4.9,0.4c-1.6,0-3.1-0.4-4.9-0.4c-0.8,0-1.5,0-2.3,0c-1.8,0-3.2,0.4-4.9,0.4	c-1.6,0-3.1-0.4-4.9-0.4c-0.8,0-1.5,0-2.3,0c-1.8,0-3.2,0.4-4.9,0.4c-1.6,0-3.1-0.4-4.9-0.4c-0.8,0-1.5,0-2.3,0l0,0h-0.1	l-0.2,0.3C200,157.6,200.4,157.6,200.8,157.6z M249.5,156l-0.1-0.3h-48.7l-0.1,0.3H249.5z M246.3,156.1h-1.9	C244.4,156.1,244.6,156.5,246.3,156.1z M200.8,156.5c1.6,0,3.1,0.4,4.9,0.4c0.8,0,1.5,0,2.3,0c1.8,0,3.2-0.4,4.9-0.4	c1.6,0,3.1,0.4,4.9,0.4c0.8,0,1.6,0,2.3,0c1.8,0,3.2-0.4,4.9-0.4c1.6,0,3.1,0.4,4.9,0.4c0.8,0,1.5,0,2.3,0c1.8,0,3.2-0.4,4.9-0.4	c1.6,0,3.1,0.4,4.9,0.4c0.8,0,1.5,0,2.3,0c1.8,0,3.2-0.4,4.9-0.4c0.3,0,0.5,0,0.8,0l-0.2-0.3c-0.5,0-1.1,0-1.6,0	c-1.8,0-3.2,0.4-4.9,0.4c-1.6,0-3.1-0.4-4.9-0.4c-0.8,0-1.5,0-2.3,0c-1.8,0-3.2,0.4-4.9,0.4c-1.6,0-3.1-0.4-4.9-0.4	c-0.8,0-1.5,0-2.3,0c-1.8,0-3.2,0.4-4.9,0.4c-1.6,0-3.1-0.4-4.9-0.4c-0.8,0-1.5,0-2.3,0c-1.8,0-3.2,0.4-4.9,0.4	c-1.6,0-3.1-0.4-4.9-0.4c-0.6,0-1.2,0-1.7,0l-0.2,0.3C200.4,156.5,200.6,156.5,200.8,156.5z M205.6,156.1h-1.9	C205.4,156.5,205.6,156.1,205.6,156.1z M205.7,161.3c0.8,0,1.5,0,2.3,0c1.8,0,3.2-0.4,4.9-0.4c1.6,0,3.1,0.4,4.9,0.4	c0.8,0,1.6,0,2.3,0c1.8,0,3.2-0.4,4.9-0.4c1.6,0,3.1,0.4,4.9,0.4c0.8,0,1.5,0,2.3,0c1.8,0,3.2-0.4,4.9-0.4c1.6,0,3.1,0.4,4.9,0.4	c0.8,0,1.5,0,2.3,0c1.8,0,3.2-0.4,4.9-0.4c1.2,0,2.3,0.2,3.5,0.3l-0.3-0.4c-0.6-0.1-1.3-0.1-1.9-0.1c-0.8,0-1.5,0-2.3,0	c-1.8,0-3.2,0.4-4.9,0.4c-1.6,0-3.1-0.4-4.9-0.4c-0.8,0-1.5,0-2.3,0c-1.8,0-3.2,0.4-4.9,0.4c-1.6,0-3.1-0.4-4.9-0.4	c-0.8,0-1.5,0-2.3,0c-1.8,0-3.2,0.4-4.9,0.4c-1.6,0-3.1-0.4-4.9-0.4c-0.8,0-1.5,0-2.3,0c-1.8,0-3.2,0.4-4.9,0.4	c-1.6,0-3.1-0.4-4.9-0.4c-0.8,0-1.5,0-2.3,0l0,0c-0.7,0-1.4,0.1-2.1,0.1l-0.2,0.4c1.1-0.1,2.2-0.3,3.3-0.3	C202.5,161,204,161.3,205.7,161.3z M248.9,154.9l-0.1-0.2h-47.5l-0.1,0.2H248.9z M248.5,154.3l-0.1-0.2h-46.8l-0.1,0.2H248.5z	 M248.7,154.6l-0.1-0.2h-47.1l-0.1,0.2H248.7z M249.1,155.3l-0.1-0.2h-47.9l-0.1,0.2H249.1z M249.3,155.6l-0.1-0.2h-48.3	l-0.1,0.2H249.3z" />
      </g>
      <g>
        <g>
          <linearGradient id="Gradient_NI_4" gradientUnits="userSpaceOnUse" x1="239.3" y1="-321.8545" x2="239.3" y2="-324.8235" gradientTransform="matrix(1 0 0 -1 0 -166)">
            <stop offset="0" style="stop-color:#F5F549" />
            <stop offset="1" style="stop-color:#97C924" />
          </linearGradient>
          <path fill="url(#Gradient_NI_4)" d="M240.3,148.5c-0.9,0-1.1,0.4-1.1,0.4		c-1.4,5.3-5.9,10.7-11.3,10.7h-4v5.4l0,0h30.8l-3.1-5.5c-4.9-0.7-8.8-5.7-10.1-10.6C241.4,148.9,241.2,148.5,240.3,148.5		L240.3,148.5z" />
          <path fill="#97C924" d="M240.3,148.7c-0.4,0-0.6,0.1-0.8,0.2c-0.1,0.1-0.2,0.1-0.2,0.1l0,0c-0.7,2.7-2.2,5.3-4.2,7.4		c-2,2-4.5,3.4-7.3,3.4H224v5h30.4l-2.8-5c-2.3-0.3-4.5-1.6-6.2-3.4c-2-2-3.5-4.7-4.2-7.4l0,0c0,0,0-0.1-0.2-0.1		C240.9,148.8,240.7,148.7,240.3,148.7L240.3,148.7z" />
          <path fill="#EDE71F" d="M240.3,148.7c0.1,0,0.1,0,0.2,0c0,1.5,0,4.1,0,5.4c0,1.2-0.4,2.1-1,3.2c-0.3,0.8-0.5,0.5-1.2,1.4		c-0.9,0.3-1.6,0.4-2.6,0.6c-1.3,0.2-4.1,0.4-5.4,0.1c1.8-0.5,3.5-1.6,4.9-3.1c0.4-0.4,0.7-0.8,1.1-1.2c0.6-0.7,1.1-1.4,1.5-2.2		c0.2-0.3,0.3-0.6,0.5-0.9c0.2-0.5,0.4-1,0.6-1.5c0.1-0.2,0.1-0.3,0.2-0.5c0.1-0.3,0.2-0.7,0.3-1l0,0c0,0,0-0.1,0.2-0.1		c0.1,0,0.2-0.1,0.3-0.1l0,0C240,148.8,240.1,148.7,240.3,148.7L240.3,148.7z" />
          <path fill="#C6CB24" d="M240,149.4c-0.2,3-1.1,6.6-3.3,8.9c-0.8,0.7-1.8,1.3-2.8,1.1C237.2,156.7,239.3,152.5,240,149.4z" />
        </g>
        <g>
          <linearGradient id="Gradient_NI_5" gradientUnits="userSpaceOnUse" x1="246.941" y1="-321.8545" x2="246.941" y2="-324.8235" gradientTransform="matrix(1 0 0 -1 -15.341 -166)">
            <stop offset="0" style="stop-color:#F5F549" />
            <stop offset="1" style="stop-color:#97C924" />
          </linearGradient>
          <path fill="url(#Gradient_NI_5)" d="M232.6,148.5c-0.9,0-1.1,0.4-1.1,0.4		c-1.4,5.3-5.9,10.7-11.3,10.7h-4v5.4l0,0H247l-3.1-5.5c-4.9-0.7-8.8-5.7-10.1-10.6C233.8,148.9,233.5,148.5,232.6,148.5		L232.6,148.5z" />
          <path fill="#97C924" d="M232.6,148.7c-0.4,0-0.6,0.1-0.8,0.2c-0.1,0.1-0.2,0.1-0.2,0.1l0,0c-0.7,2.7-2.2,5.3-4.2,7.4		c-2,2-4.5,3.4-7.3,3.4h-3.8v5h30.4l-2.8-5c-2.3-0.3-4.5-1.6-6.2-3.4c-2-2-3.5-4.7-4.2-7.4l0,0c0,0,0-0.1-0.2-0.1		C233.3,148.8,233,148.7,232.6,148.7L232.6,148.7z" />
          <path fill="#EDE71F" d="M232.6,148.7c0.1,0,0.1,0,0.2,0c0,1.5,0,4.1,0,5.4c0,1.2-0.4,2.1-1,3.2c-0.3,0.8-0.5,0.5-1.2,1.4		c-0.9,0.3-1.6,0.4-2.6,0.6c-1.3,0.2-4.1,0.4-5.4,0.1c1.8-0.5,3.5-1.6,4.9-3.1c0.4-0.4,0.7-0.8,1.1-1.2c0.6-0.7,1.1-1.4,1.5-2.2		c0.2-0.3,0.3-0.6,0.5-0.9c0.2-0.5,0.4-1,0.6-1.5c0.1-0.2,0.1-0.3,0.2-0.5c0.1-0.3,0.2-0.7,0.3-1l0,0c0,0,0-0.1,0.2-0.1		c0.1,0,0.2-0.1,0.3-0.1l0,0C232.3,148.8,232.4,148.7,232.6,148.7L232.6,148.7z" />
          <path fill="#C6CB24" d="M232.3,149.4c-0.2,3-1.1,6.6-3.3,8.9c-0.8,0.7-1.8,1.3-2.8,1.1C229.5,156.7,231.6,152.5,232.3,149.4z" />
        </g>
        <g>
          <linearGradient id="Gradient_NI_6" gradientUnits="userSpaceOnUse" x1="224.95" y1="-321.8545" x2="224.95" y2="-324.8235" gradientTransform="matrix(1 0 0 -1 0 -166)">
            <stop offset="0" style="stop-color:#F5F549" />
            <stop offset="1" style="stop-color:#97C924" />
          </linearGradient>
          <path fill="url(#Gradient_NI_6)" d="M226.1,149c1.4,5.3,5.9,10.7,11.3,10.7h4v5.4		l0,0h-32.9l0,0v-5.4h4c5.4,0,9.9-5.4,11.3-10.7c0,0,0.3-0.4,1.1-0.4S226.1,149,226.1,149L226.1,149z" />
          <path fill="#97C924" d="M225,148.7c0.4,0,0.6,0.1,0.8,0.2c0.1,0.1,0.2,0.1,0.2,0.1l0,0c0.7,2.7,2.2,5.3,4.2,7.4		c2,2,4.5,3.4,7.3,3.4h3.8v5h-32.5v-5h3.8c2.8,0,5.3-1.4,7.3-3.4s3.5-4.7,4.2-7.4l0,0c0,0,0-0.1,0.2-0.1		C224.4,148.8,224.6,148.7,225,148.7z" />
          <path fill="#EDE71F" d="M224.6,148.8h-0.1l0,0c-0.1,0-0.2,0.1-0.3,0.1c-0.1,0.1-0.2,0.1-0.2,0.1l0,0c-0.1,0.3-0.2,0.7-0.3,1		c-0.1,0.2-0.1,0.3-0.2,0.5c-0.2,0.5-0.4,1-0.6,1.5c-0.2,0.3-0.3,0.6-0.5,0.9c-0.4,0.8-0.9,1.5-1.5,2.2c-0.3,0.4-0.7,0.8-1.1,1.2		c-1.4,1.4-3.1,2.5-4.9,3.1c1.4,0.3,2,0,3.3-0.2c1-0.1,2.1-0.3,3-0.6c0.7-0.9,0.4-0.6,0.7-1.4c0.6-1.1,1.4-2.1,1.7-3.3		C224.5,152.4,224.6,149.6,224.6,148.8L224.6,148.8z" />
          <path fill="#C6CB24" d="M224.6,149.4c-0.2,3-1.1,6.6-3.3,8.9c-0.8,0.7-1.8,1.3-2.8,1.1C221.9,156.7,223.9,152.5,224.6,149.4z" />
        </g>
        <g>
          <linearGradient id="Gradient_NI_7" gradientUnits="userSpaceOnUse" x1="215.35" y1="-321.8545" x2="215.35" y2="-324.8235" gradientTransform="matrix(1 0 0 -1 0 -166)">
            <stop offset="0" style="stop-color:#F5F549" />
            <stop offset="1" style="stop-color:#97C924" />
          </linearGradient>
          <path fill="url(#Gradient_NI_7)" d="M217.4,148.5c-0.9,0-1.1,0.4-1.1,0.4		c-1.3,4.9-5.9,11.2-10.8,11.9l-2.4,4.1h24.5v-5.7c-4.4-1.2-7.9-5.8-9.1-10.4C218.5,148.9,218.2,148.5,217.4,148.5L217.4,148.5z" />
          <path fill="#97C924" d="M217.4,148.7c-0.4,0-0.6,0.1-0.8,0.2c-0.1,0.1-0.2,0.1-0.2,0.1l0,0c-0.7,2.7-2.3,5.4-4,7.5		s-4.9,4.3-7,4.5l-2.1,3.7h24v-5.4c-1.8-0.6-3.4-1.6-4.8-3c-2-2-3.5-4.7-4.2-7.4l0,0c0,0,0-0.1-0.2-0.1		C218,148.8,217.8,148.7,217.4,148.7L217.4,148.7z" />
          <path fill="#93BC30" d="M216.7,149.4c-0.3,4.5-2.8,10.2-5.7,11.2c-0.9,0.3-2.6,0.4-3.1,0.5C212.9,158.8,215.9,153.2,216.7,149.4		z" />
        </g>
        <g>
          <linearGradient id="Gradient_NI_8" gradientUnits="userSpaceOnUse" x1="223.08" y1="-321.8545" x2="223.08" y2="-324.8235" gradientTransform="matrix(1 0 0 -1 -15.43 -166)">
            <stop offset="0" style="stop-color:#F5F549" />
            <stop offset="1" style="stop-color:#97C924" />
          </linearGradient>
          <path fill="url(#Gradient_NI_8)" d="M209.7,148.5c-0.9,0-1.1,0.4-1.1,0.4		c-1.3,4.9-5.9,11.2-10.8,11.9l-2.4,4.1h24.5v-5.7c-4.4-1.2-7.9-5.8-9.1-10.4C210.8,148.9,210.5,148.5,209.7,148.5L209.7,148.5z" />
          <path fill="#97C924" d="M209.7,148.7c-0.4,0-0.6,0.1-0.8,0.2c-0.1,0.1-0.2,0.1-0.2,0.1l0,0c-0.7,2.7-2.3,5.4-4,7.5		s-4.9,4.3-7,4.5l-2.1,3.7h24v-5.4c-1.8-0.6-3.4-1.6-4.8-3c-2-2-3.5-4.7-4.2-7.4l0,0c0,0,0-0.1-0.2-0.1		C210.3,148.8,210.1,148.7,209.7,148.7L209.7,148.7z" />
          <path fill="#93BC30" d="M209,149.4c-0.3,4.5-2.8,10.2-5.7,11.2c-0.9,0.3-2.6,0.4-3.1,0.5C205.2,158.8,208.1,153.2,209,149.4z" />
        </g>
        <path fill="#EDE71F" d="M225.5,148.8L225.5,148.8c0.1,0,0.2,0.1,0.3,0.1c0.1,0.1,0.2,0.1,0.2,0.1l0,0c0.1,0.3,0.2,0.7,0.3,1	c0.1,0.2,0.1,0.3,0.2,0.5c0.2,0.5,0.4,1,0.6,1.5c0.2,0.3,0.3,0.6,0.5,0.9c0.4,0.8,0.9,1.5,1.5,2.2c0.3,0.4,0.7,0.8,1.1,1.2	c1.4,1.4,3.1,2.7,4.9,3.3c-3.6,0-5.2-0.3-6.5-2s-1.8-2.4-2.1-3.5C226.1,153.2,225.4,150.9,225.5,148.8L225.5,148.8z M217.4,148.7	c-0.1,0-0.1,0-0.2,0c0,1.5,0,4.1,0,5.4c0,1.2,0.4,2.1,1,3.2c0,0.1,0.1,0.2,0.1,0.2c0.2,0.5,0.4,0.7,1.1,1.3	c2.5,1.9,5.6,2.2,7.4,2c-0.6-0.4-1.2-0.9-1.7-1.2c0.9,0,1.7-0.1,2.3-0.2c-1.8-0.5-3.5-1.6-4.9-3.1c-0.2-0.2-0.5-0.5-0.7-0.8	c-0.1-0.1-0.2-0.4-0.3-0.4c-0.6-0.7-1.1-1.5-1.6-2.3c-0.2-0.3-0.3-0.6-0.5-0.9c-0.3-0.6-0.6-1.3-0.8-2c-0.1-0.3-0.2-0.7-0.3-1	l0,0c0,0,0-0.1-0.2-0.1c-0.1-0.1-0.2-0.1-0.3-0.1l0,0C217.7,148.8,217.5,148.7,217.4,148.7L217.4,148.7z M209.7,148.7	c-0.1,0-0.1,0-0.2,0c0,1.5,0,4.1,0,5.4c0,1.2,0.4,2.1,1,3.2c0,0.1,0.1,0.2,0.1,0.2c0.2,0.5,0.4,0.7,1.1,1.3	c2.5,1.9,5.6,2.2,7.4,2c-0.6-0.4-1.2-0.9-1.7-1.2c0.9,0,1.7-0.1,2.3-0.2c-1.8-0.5-3.5-1.6-4.9-3.1c-0.2-0.2-0.5-0.5-0.7-0.8	c-0.1-0.1-0.2-0.4-0.3-0.4c-0.6-0.7-1.1-1.5-1.6-2.3c-0.2-0.3-0.3-0.6-0.5-0.9c-0.3-0.6-0.6-1.3-0.8-2c-0.1-0.3-0.2-0.7-0.3-1	l0,0c0,0,0-0.1-0.2-0.1c-0.1-0.1-0.2-0.1-0.3-0.1l0,0C210,148.8,209.8,148.7,209.7,148.7L209.7,148.7z" />
        <path fill="#C6CB24" d="M225.7,149.4c0.2,3,1.1,6,3.3,8.3c0.8,0.7,1.8,1.3,2.8,1.1C228.2,156.4,226.4,152.5,225.7,149.4	L225.7,149.4z M217.7,149.4c0.2,3,1.1,6.6,3.3,8.9c0.8,0.7,1.8,1.3,2.8,1.1C220.5,156.7,218.4,152.5,217.7,149.4z M210,149.4	c0.2,3,1.1,6.6,3.3,8.9c0.8,0.7,1.8,1.3,2.8,1.1C212.8,156.7,210.7,152.5,210,149.4z" />
        <path fill="#9ECB34" d="M219.8,153.6c1.2,2.9,4.2,5.6,7.3,7.5c0.6,0,0.8,0,1.3,0C226.1,159.9,222.6,158.2,219.8,153.6z	 M212.1,153.6c1.2,2.9,4.2,5.6,7.3,7.5c0.6,0,0.8,0,1.3,0C218.4,159.9,214.9,158.2,212.1,153.6z" />
      </g>
      <path fill="#FFFFFF" d="M253.2,162.4c-0.3,0.1-2.2-0.1-3.2,0l-0.6,0.2c-0.6,0-1.1,0-1.7,0c-1.8,0-3.3,0.5-5,0.5s-3.2-0.5-5-0.5c-0.6,0-1.1,0-1.7,0c-1.8,0-3.3,0.5-5,0.5s-3.2-0.5-5-0.5c-0.6,0-1.1,0-1.7,0c-1.8,0-3.3,0.5-5,0.5s-3.2-0.5-5-0.5c-0.1,0-0.3,0-0.4,0c-0.1,0-0.2,0-0.3,0s-0.1,0-0.2,0s-0.1,0-0.2,0c-0.1,0-0.2,0-0.3,0s-0.3,0-0.4,0c-1.8,0-3.3,0.5-5,0.5s-3.2-0.5-5-0.5c-0.1,0-0.3,0-0.4,0c-0.1,0-0.2,0-0.3,0s-0.1,0-0.2,0s-0.1,0-0.2,0c-0.1,0-0.2,0-0.3,0s-0.2,0-0.4,0c-1.4,0-3.1,0.3-4.5,0.4l-3.1,5.4h31.5h32.2L253.2,162.4z" />
      <linearGradient id="Gradient_NI_9" gradientUnits="userSpaceOnUse" x1="193.5499" y1="135.0549" x2="256.47" y2="135.0549" gradientTransform="matrix(1 0 0 -1 0 300)">
        <stop offset="0" style="stop-color:#002255" />
        <stop offset="0.5" style="stop-color:#0044AA" />
        <stop offset="1" style="stop-color:#002255" />
      </linearGradient>
      <path fill="url(#Gradient_NI_9)" d="M196.3,164.9c-0.3,0-0.6,0-0.9,0l0.2-0.3c1.5-0.1,3-0.5,4.6-0.5c0.7,0,1.5,0,2.2,0c1.7,0,3.2,0.4,4.8,0.5c1.6,0,3.1-0.5,4.8-0.5c0.8,0,1.5,0,2.2,0c1.7,0,3.2,0.4,4.8,0.5c1.6,0,3.1-0.5,4.8-0.5c0.7,0,1.5,0,2.2,0c1.7,0,3.2,0.4,4.8,0.5c1.6,0,3.1-0.5,4.8-0.5c0.7,0,1.5,0,2.2,0c1.7,0,3.2,0.4,4.8,0.5c1.6,0,3.1-0.5,4.8-0.5c0.8,0,1.5,0,2.3,0c1.6,0,3,0.4,4.4,0.5l0.2,0.3c-0.4,0-0.7,0-1.1,0c-1.7,0-3.2-0.4-4.8-0.5c-1.6,0-3.1,0.5-4.8,0.5c-0.7,0-1.5,0-2.2,0c-1.7,0-3.2-0.4-4.8-0.5c-1.6,0-3.1,0.5-4.8,0.5c-0.7,0-1.5,0-2.2,0c-1.7,0-3.2-0.4-4.8-0.5c-1.6,0-3.1,0.5-4.8,0.5c-0.7,0-1.5,0-2.2,0c-1.7,0-3.2-0.4-4.8-0.5c-1.6,0-3.1,0.5-4.8,0.5c-0.7,0-1.5,0-2.2,0c-1.7,0-3.2-0.4-4.8-0.5C199.5,164.5,198,164.9,196.3,164.9z M199,164c0.7-0.1,1.4-0.2,1.8-0.2c0.3,0,0.7,0,1.2,0c1.3,0.1,2.5,0.4,3.9,0.4c0.8,0,1.5,0,2.2,0c1.7,0,3.2-0.4,4.8-0.5c1.6,0,3.1,0.5,4.8,0.5c0.8,0,1.5,0,2.2,0c1.7,0,3.2-0.4,4.8-0.5c1.6,0,3.1,0.5,4.8,0.5c0.8,0,1.5,0,2.2,0c1.7,0,3.2-0.4,4.8-0.5c1.6,0,3.1,0.5,4.8,0.5c0.8,0,1.5,0,2.2,0c1.7,0,3.2-0.4,4.8-0.5c1.6,0,3.1,0.5,4.8,0.5c0.2,0,0.5,0,0.7,0l-0.2-0.3c-1.3-0.1-2.6-0.4-4.1-0.4c-0.8,0-1.5,0-2.2,0c-1.7,0-3.2,0.4-4.8,0.5c-1.6-0.1-3.1-0.5-4.8-0.5c-0.8,0-1.5,0-2.2,0c-1.7,0-3.2,0.4-4.8,0.5c-1.6-0.1-3.1-0.5-4.8-0.5c-0.8,0-1.5,0-2.2,0c-1.7,0-3.2,0.4-4.8,0.5c-1.6-0.1-3.1-0.5-4.8-0.5c-0.8,0-1.5,0-2.2,0l0,0c0.5-0.1,1-0.1,1.8-0.1c0.9,0,1.6,0,2.4,0.1c0.5,0.1,1.1,0.1,1.7,0.1c0.8,0,1.5,0,2.2,0c1.7,0,3.2-0.4,4.8-0.5c1.6,0,3.1,0.5,4.8,0.5c0.8,0,1.5,0,2.2,0c1.7,0,3.2-0.4,4.8-0.5c1.6,0,3.1,0.5,4.8,0.5c0.8,0,1.5,0,2.2,0c1.7,0,3.2-0.4,4.8-0.5c1.6,0,3.1,0.5,4.8,0.5c0.1,0,0.2,0,0.3,0l-0.2-0.4c-1.2-0.1-2.4-0.4-3.7-0.4c-0.8,0-1.5,0-2.2,0c-1.7,0-3.2,0.4-4.8,0.5c-1.6-0.1-3.1-0.5-4.8-0.5c-0.8,0-1.5,0-2.2,0c-1.7,0-3.2,0.4-4.8,0.5c-1.6-0.1-3.1-0.5-4.8-0.5c-0.2,0-0.4,0-0.7,0c1.5-0.1,3.6,0.1,5.1,0.2c0.8,0,1.5,0,2.1-0.1c0.6,0,1.3-0.1,1.9-0.2c0.2,0,0.3,0,0.5,0c0.8,0,1.5,0,2.2-0.1c0.3,0,0.7,0,1,0c1.1,0.1,2.1,0.3,3.3,0.3c0.8,0,1.5,0,2.2,0c1.7,0,3.2-0.4,4.8-0.5c1.6,0,3.1,0.5,4.8,0.5l-0.3-0.4c-0.4,0-0.9-0.1-1.3-0.1c-0.6-0.1-1.9-0.1-1.9-0.1c0.9-0.1,2.6,0.1,3.1,0l-0.3-0.5c-1.1-0.1-55,0.6-56.1,0.7l-1.1,1.9c0.5-0.1,1.1-0.1,1.9-0.2C198,164.2,198.5,164.1,199,164z M201.1,165.7c1.6,0,3.1,0.5,4.8,0.5c0.8,0,1.5,0,2.2,0c1.7,0,3.2-0.4,4.8-0.5c1.6,0,3.1,0.5,4.8,0.5c0.8,0,1.5,0,2.2,0c1.7,0,3.2-0.4,4.8-0.5c1.6,0,3.1,0.5,4.8,0.5c0.8,0,1.5,0,2.2,0c1.7,0,3.2-0.4,4.8-0.5c1.6,0,3.1,0.5,4.8,0.5c0.8,0,1.5,0,2.2,0c1.7,0,3.2-0.4,4.8-0.5c1.6,0,3.1,0.5,4.8,0.5c0.6,0,1.2,0,1.8,0l-0.2-0.3c-0.1,0-0.2,0-0.4,0c-1.6,0-3.1-0.5-4.8-0.5c-0.8,0-1.5,0-2.2,0c-1.7,0-3.2,0.4-4.8,0.5c-1.6,0-3.1-0.5-4.8-0.5c-0.8,0-1.5,0-2.2,0c-1.7,0-3.2,0.4-4.8,0.5c-1.6,0-3.1-0.5-4.8-0.5c-0.8,0-1.5,0-2.2,0c-1.7,0-3.2,0.4-4.8,0.5c-1.6,0-3.1-0.5-4.8-0.5c-0.8,0-1.5,0-2.2,0c-1.7,0-3.2,0.4-4.8,0.5c-1.6,0-3.1-0.5-4.8-0.5c-0.8,0-1.5,0-2.2,0c-1.7,0-3.2,0.4-4.8,0.5c-0.2,0-0.3,0-0.5,0l-0.2,0.3c0.5,0,1.1,0,1.7,0C198,166.2,199.5,165.8,201.1,165.7z M201.1,165.1c1.6,0,3.1,0.5,4.8,0.5c0.8,0,1.5,0,2.2,0c1.7,0,3.2-0.4,4.8-0.5c1.6,0,3.1,0.5,4.8,0.5c0.8,0,1.5,0,2.2,0c1.7,0,3.2-0.4,4.8-0.5c1.6,0,3.1,0.5,4.8,0.5c0.8,0,1.5,0,2.2,0c1.7,0,3.2-0.4,4.8-0.5c1.6,0,3.1,0.5,4.8,0.5c0.8,0,1.5,0,2.2,0c1.7,0,3.2-0.4,4.8-0.5c1.6,0,3.1,0.5,4.8,0.5c0.5,0,1,0,1.4,0l-0.2-0.3c-1.6-0.1-3.1-0.5-4.8-0.5c-0.8,0-1.5,0-2.2,0c-1.7,0-3.2,0.4-4.8,0.5c-1.6-0.1-3.1-0.5-4.8-0.5c-0.8,0-1.5,0-2.2,0c-1.7,0-3.2,0.4-4.8,0.5c-1.6-0.1-3.1-0.5-4.8-0.5c-0.8,0-1.5,0-2.2,0c-1.7,0-3.2,0.4-4.8,0.5c-1.6-0.1-3.1-0.5-4.8-0.5c-0.8,0-1.5,0-2.2,0c-1.7,0-3.2,0.4-4.8,0.5c-1.6-0.1-3.1-0.5-4.8-0.5c-0.8,0-1.5,0-2.2,0c-1.7,0-3.2,0.4-4.8,0.5h-0.1l-0.2,0.3c0.4,0,0.8,0,1.3,0C198,165.5,199.5,165.1,201.1,165.1z M201.1,166.4c1.6,0,3.1,0.5,4.8,0.5c0.8,0,1.5,0,2.2,0c1.7,0,3.2-0.4,4.8-0.5c1.6,0,3.1,0.5,4.8,0.5c0.8,0,1.5,0,2.2,0c1.7,0,3.2-0.4,4.8-0.5c1.6,0,3.1,0.5,4.8,0.5c0.8,0,1.5,0,2.2,0c1.7,0,3.2-0.4,4.8-0.5c1.6,0,3.1,0.5,4.8,0.5c0.8,0,1.5,0,2.2,0c1.7,0,3.2-0.4,4.8-0.5c1.6,0,3.1,0.5,4.8,0.5c0.7,0,1.5,0,2.2,0l-0.2-0.3c-0.2,0-0.5,0-0.7,0c-1.6,0-3.1-0.5-4.8-0.5c-0.8,0-1.5,0-2.2,0c-1.7,0-3.2,0.4-4.8,0.5c-1.6,0-3.1-0.5-4.8-0.5c-0.8,0-1.5,0-2.2,0c-1.7,0-3.2,0.4-4.8,0.5c-1.6,0-3.1-0.5-4.8-0.5c-0.8,0-1.5,0-2.2,0c-1.7,0-3.2,0.4-4.8,0.5c-1.6,0-3.1-0.5-4.8-0.5c-0.8,0-1.5,0-2.2,0c-1.7,0-3.2,0.4-4.8,0.5c-1.6,0-3.1-0.5-4.8-0.5c-0.8,0-1.5,0-2.2,0c-1.7,0-3.2,0.4-4.8,0.5c-0.3,0-0.6,0-0.9-0.1l-0.2,0.3c0.7,0,1.4,0,2,0C198,166.8,199.5,166.4,201.1,166.4z M256.2,167.7c-0.5,0.1-0.9,0.1-1.4,0.1c-1.6,0-3.1-0.5-4.8-0.5c-0.8,0-1.5,0-2.2,0c-1.7,0-3.2,0.4-4.8,0.5c-1.6,0-3.1-0.5-4.8-0.5c-0.8,0-1.5,0-2.2,0c-1.7,0-3.2,0.4-4.8,0.5c-1.6,0-3.1-0.5-4.8-0.5c-0.8,0-1.5,0-2.2,0c-1.7,0-3.2,0.4-4.8,0.5c-1.6,0-3.1-0.5-4.8-0.5c-0.8,0-1.5,0-2.2,0c-1.7,0-3.2,0.4-4.8,0.5c-1.6,0-3.1-0.5-4.8-0.5c-0.8,0-1.5,0-2.2,0c-1.7,0-3.2,0.4-4.8,0.5c-0.5,0-1.1-0.1-1.6-0.1l-0.2,0.4c0.2,0,0.4,0,0.5,0c0.8,0,1.5,0,2.2,0c1.7,0,3.2-0.4,4.8-0.5c1.6,0,3.1,0.5,4.8,0.5c0.8,0,1.5,0,2.2,0c1.7,0,3.2-0.4,4.8-0.5c1.6,0,3.1,0.5,4.8,0.5c0.8,0,1.5,0,2.2,0c1.7,0,3.2-0.4,4.8-0.5c1.6,0,3.1,0.5,4.8,0.5c0.8,0,1.5,0,2.2,0c1.7,0,3.2-0.4,4.8-0.5c1.6,0,3.1,0.5,4.8,0.5c0.8,0,1.5,0,2.2,0c1.7,0,3.2-0.4,4.8-0.5c1.6,0,3.1,0.5,4.8,0.5c0.8,0,1.5,0,2.2,0c0.2,0,0.5,0,0.7,0L256.2,167.7z M196.3,167.5c1.7,0,3.2-0.4,4.8-0.5c1.6,0,3.1,0.5,4.8,0.5c0.8,0,1.5,0,2.2,0c1.7,0,3.2-0.4,4.8-0.5c1.6,0,3.1,0.5,4.8,0.5c0.8,0,1.5,0,2.2,0c1.7,0,3.2-0.4,4.8-0.5c1.6,0,3.1,0.5,4.8,0.5c0.8,0,1.5,0,2.2,0c1.7,0,3.2-0.4,4.8-0.5c1.6,0,3.1,0.5,4.8,0.5c0.7,0,1.5,0,2.2,0c1.7,0,3.2-0.4,4.8-0.5c1.6,0,3.1,0.5,4.8,0.5c0.8,0,1.5,0,2.2,0c0.1,0,0.2,0,0.3,0l-0.2-0.4c-0.4,0-0.7,0.1-1.1,0.1c-1.6,0-3.1-0.5-4.8-0.5c-0.8,0-1.5,0-2.2,0c-1.7,0-3.2,0.4-4.8,0.5c-1.6,0-3.1-0.5-4.8-0.5c-0.8,0-1.5,0-2.2,0c-1.7,0-3.2,0.4-4.8,0.5c-1.6,0-3.1-0.5-4.8-0.5c-0.8,0-1.5,0-2.2,0c-1.7,0-3.2,0.4-4.8,0.5c-1.6,0-3.1-0.5-4.8-0.5c-0.8,0-1.5,0-2.2,0c-1.7,0-3.2,0.4-4.8,0.5c-1.6,0-3.1-0.5-4.8-0.5c-0.8,0-1.5,0-2.2,0c-1.7,0-3.2,0.4-4.8,0.5c-0.4,0-0.8-0.1-1.2-0.1l-0.2,0.4c0.1,0,0.1,0,0.2,0C194.8,167.5,195.6,167.5,196.3,167.5z" />
      <path fill="#97C924" d="M196.9,162.4l-1.2,2.1c1.4-0.2,3.6-0.9,5.3-0.9c1.8,0,4,0.4,6.2,0.5c2.5,0,3.5-0.5,5.5-0.7s4,0.3,5.9,0.3c1.6,0,4-0.5,6-0.8s3.9,0.1,6.3,0.2c2.4,0,2.8-0.6,5.8-0.6c3.2-0.1,3.5,0.4,6.3,0.4c2.1,0.1,3.9-0.4,5.8-0.6s2.8,0,4.1,0.1l-0.9-1.6c0,0,0,0-0.1,0l-50.6,1.1L196.9,162.4z" />
    </g>
    <path fill="#C8A400" d="M225,112.4l-16.1,27.8l-16.4,28.4h32.1h32.9l-16.1-27.8L225,112.4z M225,113.9l15.8,27.3l15.4,26.7h-31.6h-30.9l15.8-27.3L225,113.9z" />
  </g>
</svg>
