<svg xmlns="http://www.w3.org/2000/svg" width="450px" height="300px" viewBox="0 0 450 300">
  <path fill="#003893" d="M0,0h450v300H0V0z" />
  <path fill="#DC143C" d="M215.191,145.237L8.88,16.039V84.81v60.427v145.884h206.311L69.307,145.237H215.191z" />
  <path fill="#FFFFFF" d="M19.366,96.788c3.72,9.464,10.346,16.921,18.453,21.755l3.517-2.631l-6.924-5.181l8.377-2.136c0-0.001,0.001-0.002,0.001-0.003l-4.413-7.434l8.559,1.233l-1.233-8.559l7.434,4.413c0.001,0,0.002-0.001,0.003-0.001l2.136-8.377l5.181,6.924l5.181-6.924l2.136,8.377c0.001,0,0.002,0.001,0.003,0.001l7.434-4.413l-1.233,8.559l8.559-1.233l-4.413,7.434c0,0.001,0.001,0.002,0.001,0.003l8.377,2.136l-6.924,5.181l0,0l0,0l3.515,2.63c8.331-4.976,14.856-12.597,18.455-21.753c0,22.694-18.397,41.091-41.091,41.091S19.366,119.482,19.366,96.788z M87.506,225.429c0-0.001,0-0.002,0.001-0.003l17.102-7.246l-17.102-7.246c0-0.001,0-0.002-0.001-0.003l11.187-14.827l-18.436,2.276l0,0l2.276-18.436l-14.827,11.187c-0.001,0-0.002,0-0.003-0.001l-7.246-17.102l-7.246,17.102c-0.001,0-0.002,0-0.003,0.001l-14.827-11.187l2.276,18.436l0,0l-18.436-2.276l11.187,14.827c0,0.001,0,0.002-0.001,0.003l-17.102,7.246l17.102,7.246c0,0.001,0,0.002,0.001,0.003l-11.187,14.827l18.436-2.276l-2.276,18.436l14.827-11.187c0.001,0,0.002,0,0.003,0.001l7.246,17.102l7.246-17.102c0.001,0,0.002-0.001,0.003-0.001l14.827,11.187l-2.276-18.436l18.436,2.276L87.506,225.429z" />
</svg>
