<svg xmlns="http://www.w3.org/2000/svg" width="450px" height="300px" viewBox="0 0 450 300">
  <path fill="#002B7F" d="M0,0h450v300H0V0z" />
  <path fill="#FFC61E" d="M0,137.5h450v25H0V137.5z" />
  <path fill="#FFFFFF" d="M125,262.5l-6.471-25.852L100,255.801l7.322-25.623L81.699,237.5l19.153-18.529L75,212.5l25.852-6.471L81.699,187.5l25.624,7.322L100,169.199l18.529,19.153L125,162.5l6.471,25.852L150,169.199l-7.322,25.623l25.624-7.322l-19.153,18.529L175,212.5l-25.852,6.471l19.153,18.529l-25.624-7.322L150,255.801l-18.529-19.153L125,262.5z" />
</svg>
