<svg xmlns="http://www.w3.org/2000/svg" width="450px" height="300px" viewBox="0 0 450 300">
  <path fill="#008033" d="M0,0h450v300H0V0z" />
  <path fill="#000000" d="M67.5,0.181L450,249.765V0.181H67.5z" />
  <path fill="#800000" d="M382.5,299.682L0,50.098v249.584H382.5z" />
  <path fill="#FFFFFF" d="M394.76,27.513l-9.562-7.187l12.038-0.712L401.271,8.5l4.412,10.976l12.056,0.318l-9.311,7.495l3.416,11.311l-10.167-6.344l-9.944,6.673L394.76,27.513z M405.84,70.047l-4.412-10.976l-4.035,11.114l-12.038,0.712l9.562,7.187L391.889,89.5l9.944-6.673L412,89.172l-3.416-11.311l9.311-7.495L405.84,70.047z M383.229,53.066l9.311-7.495l-12.056-0.318l-4.412-10.976l-4.035,11.114L360,46.102l9.562,7.187l-3.028,11.416l9.944-6.673l10.167,6.344L383.229,53.066z M443.25,44.951l-12.056-0.318l-4.412-10.976l-4.035,11.114l-12.038,0.712l9.562,7.187l-3.028,11.416l9.944-6.673l10.167,6.344l-3.416-11.311L443.25,44.951z" />
  <g>
    <path fill="#FFF6F6" stroke="#000000" stroke-width="1.1418" d="M217.376,255.623c-0.356-0.355-7.681-1.42-13.197-1.919c-1.586-0.143-2.883-0.671-2.883-1.173c0-0.501-0.965-0.545-2.144-0.097c-1.62,0.616-1.945,0.299-1.327-1.293c0.449-1.16,0.405-2.047-0.098-1.973c-2.714,0.401-3.956-0.378-3.3-2.069c0.406-1.047,0.147-1.903-0.574-1.903s-1.536,0.666-1.81,1.48c-0.304,0.903-1.595,0.315-3.31-1.508c-1.546-1.644-2.812-2.555-2.812-2.024c0,0.53-0.911,0.062-2.025-1.041s-2.7-1.585-3.524-1.072c-1.017,0.633-0.777,1.075,0.744,1.373c1.233,0.242,2.234,1.397,2.223,2.567c-0.017,1.837-0.189,1.868-1.262,0.224c-0.683-1.047-1.251-1.366-1.262-0.709c-0.011,0.657-0.797,0.141-1.747-1.145c-0.95-1.287-2.392-1.933-3.203-1.436c-0.812,0.497-1.476,0.237-1.476-0.576s-0.724-1.204-1.608-0.868c-2.127,0.808-4.5-1.807-3.788-4.174c0.324-1.074-0.302-0.792-1.463,0.662c-1.215,1.52-2.045,1.88-2.069,0.899c-0.022-0.901-1.194-2.865-2.603-4.363s-2.563-3.187-2.563-3.753s1.153,0.112,2.563,1.508c2.714,2.687,5.125,3.325,5.125,1.354c0-0.651-1.153-1.546-2.563-1.989c-1.409-0.443-2.563-1.338-2.563-1.989c0-1.77-3.547-1.427-4.17,0.403c-0.428,1.26-0.948,1.252-2.528-0.039c-2.496-2.04-3.651-7.581-1.766-8.47c0.778-0.367,0.209-0.377-1.265-0.022c-1.858,0.447-4.098-0.68-7.302-3.672c-2.542-2.374-4.236-4.698-3.765-5.164s-0.041-0.507-1.139-0.09c-1.358,0.516-3.008-0.779-5.17-4.057c-2.598-3.939-2.993-5.622-2.174-9.255c0.55-2.442,0.645-5.297,0.21-6.344s-0.937-2.474-1.117-3.172c-1.293-5.029-2.629-6.801-4.339-5.755c-1.384,0.847-1.478,1.541-0.385,2.845c0.795,0.948,2.073,3.361,2.841,5.361c1.239,3.228,1.172,3.452-0.598,1.998c-1.097-0.901-1.707-1.923-1.356-2.27s-0.161-2.122-1.137-3.943c-2.225-4.152-4.432-10.057-5.149-13.779c-0.406-2.105,0.056-2.855,1.756-2.855c1.892,0,2.306-1.066,2.306-5.941c0-5.901-0.015-5.923-2.287-3.145c-1.42,1.737-2.607,2.284-3.131,1.445c-0.464-0.743-0.222-2.093,0.537-2.999c0.759-0.906,0.953-2.114,0.431-2.684s0.051-0.682,1.274-0.247c1.76,0.625,2.17,0.138,1.963-2.335c-0.311-3.723-0.223-3.697-3.03-0.917c-2.119,2.098-2.184,2.029-1.318-1.39c0.553-2.182,0.324-4.299-0.581-5.38c-0.971-1.158-1.021-1.782-0.143-1.782c0.793,0,1.194-2.223,0.971-5.392c-0.209-2.966,0.21-6.13,0.93-7.03c0.72-0.901,1.448-3.756,1.617-6.344c0.253-3.866,0.786-4.688,2.984-4.607c2.058,0.076,3.493-1.656,6.218-7.5c1.949-4.179,3.399-7.935,3.222-8.346c-0.764-1.782-3.11-0.467-5.458,3.059c-3.266,4.906-3.323,2.539-0.066-2.75c1.361-2.21,3.174-6.331,4.029-9.157c1.891-6.25,6.99-10.974,11.745-10.882c3.721,0.072,4.55-1.697,1.986-4.237c-1.196-1.184-1.196-1.523,0-1.523c0.846,0,1.538-0.571,1.538-1.269c0-1.684,4.762-6.344,6.482-6.344c0.758,0,0.921-0.7,0.37-1.586c-0.543-0.872,0.576-0.574,2.487,0.664c1.911,1.237,3.474,1.951,3.474,1.586c0-1.552-0.707-2.545-1.602-2.25c-0.529,0.174-0.961-0.521-0.961-1.546c0-1.217,0.74-1.582,2.132-1.053c1.434,0.545,1.829,0.324,1.206-0.674c-0.539-0.863-0.176-1.484,0.865-1.484c0.986,0,2.449-1.427,3.251-3.172c0.803-1.745,2.275-3.172,3.272-3.172c0.997,0,2.132-0.825,2.523-1.834c0.54-1.393,1.634-1.572,4.547-0.744c3.289,0.934,4.126,0.652,5.863-1.973c1.114-1.684,2.878-3.062,3.919-3.062s1.892-0.504,1.892-1.121c0-0.616,1.153-1.419,2.563-1.784c1.467-0.38,2.571-0.036,2.582,0.804c0.013,0.971,0.338,1.023,0.961,0.155c0.518-0.722,2.095-1.293,3.504-1.269s2.948-0.485,3.418-1.131c0.471-0.646,1.999-1.348,3.397-1.559c1.994-0.301,2.395,0.17,1.861,2.192c-0.59,2.235-0.192,2.497,3.01,1.98c2.03-0.328,4.473-0.643,5.429-0.7c0.96-0.058,1.425-0.913,1.039-1.91c-0.656-1.694,4.156-4.219,7.473-3.921c4.864,0.436,8.169,2.125,7.506,3.837c-0.42,1.084,0.009,1.935,1.006,1.995c0.956,0.057,3.399,0.372,5.429,0.7c3.202,0.517,3.6,0.255,3.01-1.98c-0.534-2.022-0.134-2.493,1.861-2.192c1.398,0.211,2.926,0.913,3.397,1.559c0.471,0.646,2.009,1.155,3.418,1.131s2.986,0.547,3.504,1.269c0.623,0.869,0.948,0.816,0.961-0.155c0.011-0.84,1.115-1.184,2.582-0.804c1.409,0.365,2.563,1.168,2.563,1.784s0.852,1.121,1.892,1.121c1.041,0,2.804,1.378,3.919,3.062c1.737,2.625,2.574,2.907,5.863,1.973c2.913-0.827,4.007-0.648,4.547,0.744c0.391,1.009,1.526,1.834,2.523,1.834s2.469,1.427,3.272,3.172s2.266,3.172,3.251,3.172c1.042,0,1.404,0.621,0.865,1.484c-0.623,0.998-0.228,1.219,1.206,0.674c1.392-0.529,2.132-0.164,2.132,1.053c0,1.025-0.432,1.796-0.961,1.713c-2.119-0.331-2.994,0.215-2.251,1.405c0.476,0.762,2.121,0.389,4.19-0.952c1.874-1.213,2.963-1.493,2.42-0.62c-0.551,0.886-0.388,1.586,0.37,1.586c1.72,0,6.482,4.66,6.482,6.344c0,0.698,0.692,1.269,1.538,1.269c1.196,0,1.196,0.338,0,1.523c-2.564,2.539-1.735,4.309,1.986,4.237c4.755-0.092,9.854,4.632,11.745,10.882c0.855,2.826,2.668,6.946,4.029,9.157c3.257,5.289,3.2,7.657-0.066,2.75c-2.501-3.758-5.065-5.005-5.215-2.538c-0.042,0.698,1.408,4.453,3.222,8.346c2.512,5.388,3.938,7.053,5.975,6.978c2.197-0.081,2.73,0.741,2.984,4.607c0.17,2.588,0.897,5.443,1.617,6.344s1.138,4.065,0.93,7.03c-0.223,3.169,0.177,5.392,0.971,5.392c0.878,0,0.827,0.623-0.143,1.782c-0.906,1.08-1.134,3.198-0.581,5.38c0.867,3.419,0.801,3.488-1.318,1.39c-2.807-2.779-2.719-2.806-3.03,0.917c-0.207,2.473,0.203,2.96,1.963,2.335c1.223-0.434,1.797-0.323,1.274,0.247s-0.329,1.778,0.431,2.684c0.759,0.906,1.001,2.255,0.537,2.999c-0.524,0.839-1.71,0.292-3.131-1.445c-2.272-2.778-2.287-2.757-2.287,3.145c0,4.875,0.414,5.941,2.306,5.941c1.7,0,2.162,0.75,1.756,2.855c-0.717,3.722-2.924,9.627-5.149,13.779c-0.976,1.821-1.487,3.595-1.137,3.943c0.351,0.347-0.259,1.369-1.356,2.27c-1.77,1.454-1.837,1.23-0.598-1.998c0.768-2,2.047-4.412,2.841-5.361c1.093-1.304,0.999-1.997-0.386-2.845c-1.71-1.047-3.046,0.725-4.339,5.755c-0.179,0.698-0.682,2.125-1.117,3.172s-0.34,3.902,0.21,6.344c0.819,3.633,0.424,5.316-2.174,9.255c-2.161,3.278-3.811,4.573-5.17,4.057c-1.097-0.417-1.61-0.377-1.139,0.09c0.471,0.466-1.223,2.79-3.765,5.164c-3.204,2.992-5.444,4.118-7.302,3.672c-1.474-0.354-2.043-0.344-1.265,0.022c1.886,0.889,0.731,6.43-1.766,8.47c-1.58,1.291-2.099,1.299-2.528,0.039c-0.622-1.83-4.169-2.173-4.169-0.403c0,0.651-1.153,1.546-2.563,1.989c-1.409,0.443-2.563,1.338-2.563,1.989c0,1.97,2.411,1.333,5.125-1.354c1.409-1.396,2.563-2.074,2.563-1.508c0,0.566-1.153,2.255-2.563,3.753c-1.409,1.498-2.581,3.461-2.603,4.363c-0.025,0.986-0.859,0.628-2.094-0.899c-1.178-1.456-1.776-1.724-1.401-0.628c0.777,2.274-1.636,4.842-3.859,4.108c-0.866-0.286-1.574,0.133-1.574,0.93s-0.664,1.043-1.476,0.546s-2.253,0.15-3.203,1.436c-0.95,1.287-1.736,1.802-1.747,1.145c-0.011-0.657-0.579-0.338-1.262,0.709c-1.073,1.644-1.245,1.613-1.262-0.224c-0.011-1.17,0.989-2.325,2.223-2.567c1.521-0.298,1.761-0.74,0.744-1.373c-0.824-0.513-2.41-0.031-3.524,1.072c-1.114,1.103-2.025,1.572-2.025,1.041c0-0.53-1.265,0.381-2.812,2.024c-1.715,1.823-3.006,2.411-3.31,1.508c-0.274-0.814-1.089-1.48-1.81-1.48s-0.98,0.856-0.574,1.903c0.655,1.691-0.586,2.469-3.3,2.069c-0.503-0.074-0.547,0.814-0.098,1.973c0.617,1.593,0.293,1.909-1.327,1.293c-1.179-0.448-2.144-0.405-2.144,0.097c0,0.501-1.297,1.029-2.883,1.173c-1.586,0.143-5.189,0.592-8.008,0.996C232.025,255.531,217.922,256.168,217.376,255.623L217.376,255.623z M217.953,250.769c0-0.274-0.865-0.499-1.922-0.499s-1.922,0.553-1.922,1.229s0.865,0.9,1.922,0.499S217.953,251.044,217.953,250.769z M235.891,251.54c0-0.698-1.009-1.26-2.242-1.249c-1.916,0.017-1.963,0.198-0.32,1.249C235.747,253.087,235.891,253.087,235.891,251.54z M242.939,246.096c1.409-0.232,3.909-1.146,5.555-2.032s3.32-1.287,3.721-0.89c0.988,0.979,22.905-10.557,26.736-14.072c1.688-1.549,3.069-2.562,3.069-2.251c0,0.733,5.965-4.287,9.585-8.065c1.548-1.616,4.205-6.029,5.905-9.806c2.373-5.275,3.602-6.71,5.298-6.186c1.717,0.53,3.135-1.241,6.372-7.957c2.29-4.751,4.228-8.925,4.306-9.273c0.078-0.349,0.773-2.134,1.544-3.966c3.09-7.342,5.603-20.746,5.56-29.657c-0.027-5.522-1.822-19.976-2.995-24.107c-0.792-2.791-1.5-5.361-1.572-5.71c-0.751-3.609-5.952-14.731-9.493-20.301c-4.109-6.463-6.057-8.953-12.016-15.354c-1.233-1.325-1.817-2.409-1.297-2.409c1.041,0-8.473-6.912-9.757-7.088c-2.82-0.387-5.632-2.587-7.238-5.664c-1.023-1.959-3.164-3.964-4.758-4.453c-1.593-0.49-4.627-2.1-6.741-3.577c-2.114-1.477-4.132-2.737-4.485-2.798c-0.352-0.061-1.506-0.423-2.563-0.804c-1.057-0.381-4.517-1.398-7.688-2.26c-3.171-0.862-8.072-2.272-10.891-3.134c-6.772-2.07-22.595-1.58-31.393,0.972c-3.876,1.124-8.489,2.407-10.251,2.85c-1.762,0.443-4.068,1.133-5.125,1.535c-1.057,0.401-2.21,0.779-2.563,0.841c-0.352,0.061-2.37,1.32-4.485,2.798c-2.114,1.477-5.148,3.087-6.741,3.577c-1.593,0.49-3.734,2.494-4.758,4.453c-1.607,3.077-4.418,5.277-7.238,5.664c-1.284,0.176-10.799,7.088-9.757,7.088c0.52,0-0.063,1.084-1.297,2.409c-5.959,6.401-7.907,8.891-12.016,15.354c-3.541,5.569-8.742,16.692-9.493,20.301c-0.073,0.349-0.78,2.918-1.572,5.71c-1.173,4.131-2.968,18.585-2.995,24.107c-0.043,8.911,2.469,22.315,5.56,29.657c0.771,1.832,1.466,3.617,1.544,3.966s2.016,4.522,4.306,9.273c3.237,6.716,4.656,8.487,6.372,7.957c1.696-0.524,2.925,0.911,5.298,6.186c1.7,3.778,4.357,8.191,5.905,9.806c3.619,3.778,9.585,8.798,9.585,8.065c0-0.311,1.381,0.702,3.069,2.251c3.83,3.515,25.747,15.051,26.736,14.072c0.4-0.396,2.075,0,3.721,0.881s4.681,1.79,6.744,2.02c2.063,0.23,3.956,0.621,4.205,0.868C212.976,247.457,239.065,246.732,242.939,246.096L242.939,246.096z M147.113,212.57c-1.175-1.163-2.465-1.788-2.868-1.39c-0.403,0.399,0.229,1.677,1.403,2.84c1.175,1.163,2.465,1.788,2.868,1.39S148.288,213.733,147.113,212.57L147.113,212.57z M305.585,212.743c0.385-0.993,0.256-1.805-0.285-1.805c-1.275,0-4.06,2.758-4.06,4.02C301.239,216.538,304.822,214.712,305.585,212.743z M142.777,206.682c-4.169-7.182-8.111-10.548-8.111-6.924c0,2.739,5.596,9.653,7.291,9.009C142.872,208.419,143.241,207.481,142.777,206.682z M315.334,199.907c0-3.017-2.426-1.721-5.695,3.042c-2.292,3.341-2.789,4.965-1.718,5.62C309.537,209.558,315.334,202.783,315.334,199.907L315.334,199.907z M126.205,146.019c-0.363-0.582-1.525-1.057-2.582-1.057s-1.625,0.476-1.262,1.057c0.363,0.582,1.525,1.057,2.582,1.057C126,147.076,126.568,146.6,126.205,146.019z M327.683,145.844c0.49-0.485-0.036-0.883-1.169-0.883s-2.385,0.521-2.782,1.157C322.912,147.432,326.318,147.195,327.683,145.844L327.683,145.844z M126.008,140.711c0.908,0.556,1.094-0.195,0.549-2.212c-0.454-1.679-0.833-3.481-0.843-4.005c-0.01-0.523-0.594-0.952-1.299-0.952s-1.236,2.141-1.18,4.758c0.056,2.617,0.393,4.041,0.75,3.164C124.342,140.588,125.252,140.249,126.008,140.711L126.008,140.711z M326.316,133.843c-1.059-1.049-1.685-0.13-2.736,4.014c-0.665,2.623-0.511,3.418,0.536,2.777c0.807-0.494,1.561-0.151,1.673,0.762s0.442-0.25,0.731-2.585C326.81,136.478,326.718,134.241,326.316,133.843L326.316,133.843z M128.259,127.833c0-1.745,0.721-3.181,1.602-3.191c1.068-0.013,0.961-0.429-0.32-1.249c-3.175-2.032-3.844-1.48-3.844,3.172c0,2.442,0.577,4.441,1.281,4.441C127.683,131.005,128.259,129.577,128.259,127.833z M324.303,126.564c0-4.652-0.669-5.204-3.844-3.172c-1.281,0.82-1.388,1.236-0.32,1.249c0.881,0.011,1.602,1.447,1.602,3.191c0,1.745,0.577,3.172,1.281,3.172S324.303,129.006,324.303,126.564z M142.214,95.911c1.215-2.64,1.215-3.581,0.001-4.323c-2.485-1.521-4.577-0.042-4.235,2.992c0.174,1.541,0.364,3.23,0.423,3.753C138.639,100.433,140.751,99.09,142.214,95.911L142.214,95.911z M311.597,98.333c0.059-0.523,0.249-2.212,0.423-3.753c0.342-3.035-1.75-4.513-4.235-2.992c-1.214,0.743-1.213,1.683,0.001,4.323C309.249,99.09,311.361,100.433,311.597,98.333L311.597,98.333z M159.573,76.573c1.319-2.113-2.819-2.48-5.671-0.502c-2.153,1.493-2.438,2.216-1.177,2.988C154.396,80.081,158.259,78.679,159.573,76.573L159.573,76.573z M296.249,76.3c-1.552-1.245-3.748-1.912-4.879-1.482c-1.768,0.672-1.661,1.099,0.766,3.045c1.552,1.245,3.748,1.912,4.879,1.482C298.783,78.672,298.676,78.246,296.249,76.3z M167.981,70.662c0-0.308-0.577-0.56-1.281-0.56c-0.705,0-1.281,0.605-1.281,1.344s0.577,0.991,1.281,0.56S167.981,70.97,167.981,70.662z M284.582,71.372c0-0.698-0.611-1.269-1.357-1.269s-1.001,0.571-0.565,1.269s1.046,1.269,1.357,1.269S284.582,72.069,284.582,71.372z M169.262,66.564c0-1.498-0.363-1.549-1.922-0.268c-1.057,0.869-1.922,1.7-1.922,1.847c0,0.147,0.865,0.268,1.922,0.268S169.262,67.58,169.262,66.564z M283.123,66.719c-0.78-0.93-1.636-1.692-1.902-1.692c-0.266,0-0.484,0.761-0.484,1.692c0,0.93,0.856,1.692,1.902,1.692C284.079,68.411,284.197,68,283.123,66.719z M178.929,61.13c1.459-2.338-0.476-2.845-4.521-1.186c-3.071,1.26-3.599,1.968-2.469,3.316C173.437,65.048,177.199,63.901,178.929,61.13L178.929,61.13z M275.761,60.096c-5.022-2.355-6.891-0.709-2.866,2.523c2.457,1.973,3.416,2.146,4.941,0.893C279.447,62.188,279.138,61.679,275.761,60.096z M187.886,56.635c1.737-1.127,3.158-1.628,3.158-1.113s0.774,0.3,1.72-0.477s2.099-1.037,2.563-0.578s0.843,0.202,0.843-0.571s-0.48-1.699-1.067-2.058c-1.451-0.888-10.187,3.288-11.007,5.261C183.221,59.204,184.09,59.098,187.886,56.635z M265.904,57.098c-0.82-1.974-9.556-6.149-11.007-5.261c-0.587,0.359-1.067,1.224-1.067,1.921c0,0.698,0.537,0.94,1.193,0.539c0.656-0.401,1.561-0.14,2.011,0.58c0.45,0.721,1.27,1.034,1.822,0.696s2.098,0.206,3.435,1.208C265.316,59.048,266.767,59.176,265.904,57.098L265.904,57.098z M228.203,48.23c0-1.577-0.913-2.131-3.203-1.944c-1.907,0.156-3.203,1.049-3.203,2.206c0,1.227,1.18,1.944,3.203,1.944C227.189,50.437,228.203,49.738,228.203,48.23z M126.978,115.22c0-0.308,0.577-0.912,1.281-1.344s1.281-0.18,1.281,0.56s-0.577,1.344-1.281,1.344S126.978,115.527,126.978,115.22z M320.459,114.51c0-0.698,0.254-1.269,0.565-1.269s0.921,0.571,1.357,1.269s0.181,1.269-0.565,1.269S320.459,115.208,320.459,114.51z M211.546,46.705c0-1.339,2.459-1.902,3.19-0.73c0.443,0.709-0.094,1.289-1.193,1.289C212.445,47.265,211.546,47.013,211.546,46.705L211.546,46.705z M234.61,46.705c0-1.339,2.459-1.902,3.19-0.73c0.443,0.709-0.094,1.289-1.193,1.289C235.509,47.265,234.61,47.013,234.61,46.705L234.61,46.705z" />
    <path fill="#112B00" d="M225.371,51.977c53.712,0,97.254,43.658,97.254,97.512s-43.542,97.512-97.254,97.512s-97.254-43.658-97.254-97.512S171.66,51.977,225.371,51.977z" />
    <path fill="#800000" d="M225.005,54.455c52.128,0,94.386,42.408,94.386,94.72s-42.258,94.72-94.386,94.72s-94.386-42.408-94.386-94.72S172.877,54.455,225.005,54.455z" />
    <path fill="#FFFFFF" d="M224.369,61.692c48.091,0,87.076,38.952,87.076,87.001s-38.985,87.001-87.076,87.001s-87.076-38.952-87.076-87.001S176.278,61.692,224.369,61.692z" />
    <path fill="#112B00" d="M218.262,54.222l5.72-0.058l0.216,20.768l-5.72,0.058L218.262,54.222z M130.206,156.846l0.007-5.664l20.975,0.026l-0.007,5.664L130.206,156.846z M319.405,146.723l-0.072,5.664l-20.973-0.262l0.072-5.664L319.405,146.723z M230.974,244.052l-5.719,0.114l-0.423-20.765l5.719-0.114L230.974,244.052z" />
    <path fill="#676266" d="M130.214,151.181l0.007-5.664l20.975,0.026l-0.007,5.664L130.214,151.181z M319.332,152.387l-0.072,5.664l-20.973-0.262l0.072-5.664L319.332,152.387z M223.982,54.164l5.72-0.058l0.216,20.768l-5.72,0.058L223.982,54.164z M225.255,244.166l-5.719,0.114l-0.423-20.765l5.719-0.114L225.255,244.166z" />
    <path fill="#800000" d="M218.469,74.046l11.44-0.117l0.213,20.453l-11.44,0.117L218.469,74.046z M150.228,156.871l0.014-11.329l20.657,0.026l-0.014,11.329L150.228,156.871z M299.385,146.473l-0.144,11.328l-20.655-0.258l0.144-11.328L299.385,146.473z M230.571,224.23l-11.438,0.228l-0.416-20.45l11.438-0.228L230.571,224.23z" />
    <path fill="#676266" d="M223.437,88.774l-0.108,4.106l-1.796,1.907l2.819,3.443l2.608-3.499l-1.966-2.498l-0.036-3.475L223.437,88.774z M241.709,77.9l-12.076,0.123l0.17,16.363L241.709,77.9z M206.593,78.101l12.076-0.123l-0.17-16.363L206.593,78.101z M174.717,151.326l-3.51,2.751l-1.905-1.801l-4.145-0.154l0.002-1.506l3.509,0.004l2.546-1.918L174.717,151.326z M154.388,133.904l-0.015,11.958l16.525,0.021L154.388,133.904z M154.185,168.676l0.015-11.958l-16.525-0.021L154.185,168.676z M280.873,152.515l-2.567,1.889l-3.473-2.662l3.541-2.712l1.885,1.822l4.143,0.201l-0.019,1.506L280.873,152.515z M278.59,157.228l16.689,13.108l-0.165-12.901L278.59,157.228z M295.563,134.624l-0.152,11.957l16.524,0.207L295.563,134.624z M225.456,209.552l0.067-4.107l1.777-1.925l-2.853-3.416l-2.573,3.524l1.991,2.479l0.071,3.474L225.456,209.552z M207.293,220.603l12.074-0.241l-0.333-16.36L207.293,220.603z M242.405,220.06l-12.074,0.241l0.333,16.36L242.405,220.06z" />
    <path fill="#112B00" d="M229.951,78.02l-0.491-16.674l13.203,16.544L229.951,78.02z M218.668,77.978l0.809,16.671l-13.203-16.544L218.668,77.978z M154.373,145.547l-16.844,0.294l16.86-12.881L154.373,145.547z M154.2,156.718l16.844-0.608l-16.86,12.881L154.2,156.718z M295.11,157.749l16.846-0.104l-17.006,12.691L295.11,157.749z M295.411,146.581L278.561,147l17.006-12.691L295.411,146.581z M219.049,220.369l0.657,16.669l-13.366-16.415L219.049,220.369z M230.332,220.301l-0.975-16.662l13.366,16.415L230.332,220.301z" />
    <path fill="#676266" d="M156.361,93.476c0,0,26.377-11.329,29.555-16.678c3.178-5.35,31.462-15.42,31.462-15.42S183.374,62.322,156.361,93.476z M283.88,84.876c0,0,9.631,26.825,14.806,30.327c5.175,3.501,13.409,32.125,13.409,32.125S313.443,113.67,283.88,84.876z M168.591,218.407c0,0-11.021-25.84-15.917-28.823c-4.896-2.983-14.853-30.759-14.853-30.759S139.795,192.583,168.591,218.407z M291.598,207.106c0,0-26.358,10.275-29.49,15.049s-31.418,13.948-31.418,13.948S264.819,234.978,291.598,207.106z" />
    <path fill="#112B00" d="M136.699,149.457c0,0,12.114-24.426,10.9-30.186s13.17-30.483,13.17-30.483S135.987,110.618,136.699,149.457L136.699,149.457z M228.804,61.665c0,0,23.792,13.62,29.678,12.81c5.886-0.81,29.823,15.073,29.823,15.073S267.986,63.589,228.804,61.665L228.804,61.665z M219.378,236.117c0,0-22.277-11.24-27.395-9.846s-27.736-12.091-27.736-12.091S184.619,238.092,219.378,236.117L219.378,236.117z M310.725,157.267c0,0-11.894,21.776-10.613,26.877c1.282,5.101-12.888,27.159-12.888,27.159S311.866,191.723,310.725,157.267L310.725,157.267z" />
    <path fill="#800000" stroke="#000000" stroke-width="0.4353" d="M221.36,94.147c0.625,0.437-16.607,2.318-16.47,9.381c0.126,6.529-21.12,6.033-24.339,5.921c1.025,4.45,4.569,21.731-1.987,22.608c-7.528,1.006-6.37,17.109-6.949,16.606c0,0-7.528-13.587,1.737-21.135c7.597-6.189,7.408-15.079,7.093-18.082c-0.202-0.007-0.316-0.013-0.316-0.013s0.11,0,0.313-0.008c-0.068-0.646-0.142-1.019-0.142-1.019s0.095,0.371,0.243,1.015c2.213-0.099,12.902-1.032,18.719-9.828C205.774,89.748,221.36,94.147,221.36,94.147z M245.017,102.358c0.254,6.107,17.859,4.602,22.403,4.111c-0.417,2.943-2.927,22.396,3.609,22.941c7.071,0.589,7.317,16.598,7.813,16.068c0,0,5.874-13.861-3.347-20.835c-8.238-6.23-8.157-16.136-8.046-18.177c0.657-0.071,1.037-0.121,1.037-0.121s-0.379,0.03-1.032,0.027c0.011-0.188,0.022-0.288,0.022-0.288s-0.016,0.104-0.042,0.288c-3.031-0.015-11.933-0.741-17.397-8.341c-6.664-9.269-20.955-3.733-20.955-3.733C228.524,94.779,244.725,95.345,245.017,102.358z M279.037,154.036c-0.56-0.491-0.013,14.683-7.575,15.398c-6.585,0.623-3.699,16.977-2.844,21.193c-3.213-0.205-24.427-1.323-24.549,4.818c-0.131,6.644-17.424,7.883-16.816,8.314c0,0,15.409,4.615,22.29-4.44c6.148-8.09,16.865-8.639,19.081-8.664c0.124,0.61,0.204,0.961,0.204,0.961s-0.059-0.353-0.103-0.962c0.204-0.001,0.314,0.002,0.314,0.002s-0.114-0.008-0.315-0.021c-0.2-2.833-0.052-11.197,7.775-16.781C286.045,167.04,279.037,154.036,279.037,154.036z M201.409,195.268c0.956-5.291-19.195-6.677-24.417-6.946c1.07-2.468,7.856-18.817,0.6-20.28c-7.851-1.583-4.871-15.389-5.538-15.009c0,0-9.442,11.027-0.467,18.428c8.018,6.612,5.912,15.119,5.372,16.858c-0.755-0.039-1.193-0.054-1.193-0.054s0.434,0.032,1.169,0.134c-0.051,0.16-0.083,0.245-0.083,0.245s0.039-0.087,0.107-0.242c3.413,0.474,13.3,2.454,17.913,9.822c5.626,8.986,22.862,6.401,22.862,6.401C218.458,204.297,200.311,201.343,201.409,195.268z" />
    <path fill="#FFFFFF" stroke="#000000" stroke-width="1.4752" d="M264.859,134.944c-3.268,11.198-17.231,39.797-24.795,38.159c-7.564-1.638-9.73-35.298-6.462-46.496c1.634-5.599,17.715-11.43,10.962,2.026c-2.018,4.021-2.417,7.389,0.88,8.186c9.666,2.335,6.759-4.324,6.931-4.926C256.445,117.649,266.077,121.412,264.859,134.944L264.859,134.944z" />
    <path fill="#FFFFFF" stroke="#000000" stroke-width="0.81" d="M239.306,136.793c3.159,0,5.72,2.162,5.72,4.829c0,2.667-2.561,4.829-5.72,4.829s-5.72-2.162-5.72-4.829C233.585,138.955,236.146,136.793,239.306,136.793z M253.967,138.036c3.159,0,5.72,2.291,5.72,5.117s-2.561,5.117-5.72,5.117s-5.72-2.291-5.72-5.117C248.246,140.327,250.808,138.036,253.967,138.036z" />
    <path fill="#FFFFFF" stroke="#000000" stroke-width="0.81" d="M239.351,138.996c1.628,0,2.949,1.172,2.949,2.617s-1.32,2.617-2.949,2.617s-2.949-1.172-2.949-2.617S237.722,138.996,239.351,138.996z M254.012,140.37c1.629,0,2.949,1.242,2.949,2.773s-1.32,2.773-2.949,2.773c-1.628,0-2.949-1.242-2.949-2.773S252.383,140.37,254.012,140.37z" />
    <path fill="#FFFFFF" stroke="#000000" stroke-width="0.81" d="M239.448,141.017c0.501,0,0.907,0.29,0.907,0.648s-0.406,0.648-0.907,0.648c-0.501,0-0.907-0.29-0.907-0.648S238.947,141.017,239.448,141.017z M254.109,142.512c0.501,0,0.907,0.307,0.907,0.686s-0.406,0.686-0.907,0.686s-0.907-0.307-0.907-0.686C253.202,142.819,253.608,142.512,254.109,142.512z" />
    <path fill="#112B00" d="M227.646,185.109c-0.069-0.446-0.346-1.205-0.616-1.687s-0.834-1.663-1.253-2.624c-0.647-1.483-0.778-1.588-0.866-0.69c-0.057,0.581,0.103,1.827,0.356,2.768c0.437,1.622,0.399,1.72-0.726,1.89c-0.922,0.14-1.223-0.052-1.347-0.859c-0.088-0.571-0.341-1.153-0.561-1.293s-0.669-1.964-0.997-4.055s-0.71-3.918-0.849-4.062s-0.135,0.501,0.009,1.433c0.144,0.932,0.092,1.721-0.117,1.752c-0.208,0.032-0.267,0.78-0.131,1.663c0.21,1.356,0.101,1.628-0.699,1.749c-0.748,0.113-0.99-0.127-1.147-1.144c-0.158-1.024-0.345-1.207-0.914-0.893c-0.613,0.338-0.645,0.845-0.228,3.544c0.464,3.002,0.443,3.156-0.461,3.293c-0.888,0.135-0.976-0.032-1.398-2.664c-0.248-1.544-0.874-4.098-1.391-5.675l-0.941-2.867l-0.133,4.399c-0.075,2.478,0.073,5.145,0.339,6.108l0.472,1.709l-1.938,0.294l-1.938,0.294l-0.828-5.352l-0.828-5.352l-1.113,0.169c-1.061,0.161-1.09,0.256-0.608,2.009c0.487,1.775,0.463,1.847-0.682,2.021c-1.168,0.177-1.193,0.138-1.591-2.435c-0.386-2.497-0.458-2.618-1.578-2.679c-1.164-0.063-1.171-0.041-0.833,2.666c0.187,1.501,0.581,3.987,0.876,5.524c0.515,2.685,0.498,2.8-0.441,2.943c-1.541,0.234-2.263-1.638-2.413-6.255c-0.068-2.084-0.287-4.807-0.486-6.051c-0.34-2.125-0.387-2.193-0.765-1.118c-0.288,0.818-0.233,1.787,0.193,3.394c0.562,2.12,0.544,2.257-0.318,2.388c-1.151,0.175-1.968-0.652-2.214-2.239c-0.139-0.899-0.408-1.198-0.998-1.109c-0.746,0.113-0.758,0.313-0.161,2.626c1.995,7.728,1.969,7.507,0.928,7.665c-0.814,0.123-1.077-0.212-1.828-2.325c-0.517-1.456-0.882-2.075-0.89-1.508c-0.007,0.531-0.363,1.014-0.796,1.079c-0.431,0.065-1.075-0.268-1.432-0.741c-1.01-1.34-1.701-6.677-1.217-9.394c0.229-1.282,0.367-2.641,0.309-3.02c-0.059-0.379,0.633-1.823,1.537-3.208s1.739-3.181,1.855-3.991c0.26-1.813,1.442-3.849,2.596-4.47c0.758-0.408,1.248-3.395,3.971-24.238c2.957-22.635,3.152-23.78,4.081-23.921c0.97-0.147,1.02-0.018,8.312,21.472c4.035,11.891,7.491,21.596,7.678,21.568c0.188-0.029,0.419,0.446,0.513,1.054c0.331,2.139,1.177,2.991,3.103,3.126c1.024,0.072,1.579,0.267,1.234,0.433c-0.576,0.277-0.561,0.424,0.189,1.783c0.892,1.617,2.019,1.862,1.792,0.389c-0.114-0.739,0.018-0.693,0.669,0.232c0.681,0.968,0.74,1.245,0.363,1.721c-0.375,0.474-0.333,0.66,0.257,1.134c0.388,0.312,1.073,1.498,1.522,2.635s1.18,2.505,1.624,3.04c1.603,1.933,2.538,3.716,2.785,5.31c0.232,1.5,0.149,1.64-1.076,1.826c-1.206,0.183-1.348,0.063-1.563-1.326c-0.142-0.919-0.739-2.083-1.498-2.923c-0.913-1.01-1.131-1.113-0.789-0.371c0.722,1.563,1.682,4.531,1.9,5.874c0.268,1.651-1.342,1.871-2.528,0.346c-0.486-0.625-1.276-1.217-1.757-1.316c-0.859-0.177-0.859-0.149,0.016,1.678c0.489,1.022,1.104,2.253,1.366,2.737c0.262,0.483,0.607,1.725,0.767,2.759c0.255,1.649,0.174,1.898-0.657,2.024C228.125,185.866,227.724,185.617,227.646,185.109L227.646,185.109z M210.523,175.519c-0.174-0.497-0.164,0.059,0.022,1.235c0.186,1.177,0.329,1.584,0.316,0.904C210.849,176.979,210.697,176.016,210.523,175.519L210.523,175.519z M192.216,177.765c-0.153-0.159-0.194,0.171-0.09,0.733c0.115,0.621,0.224,0.734,0.279,0.289C192.454,178.383,192.369,177.924,192.216,177.765z M197.796,167.7c-0.02-0.13-0.207-0.21-0.416-0.179c-0.208,0.032-0.34,0.313-0.291,0.624s0.235,0.392,0.416,0.179C197.685,168.111,197.816,167.83,197.796,167.7L197.796,167.7z M226.143,162.847c-0.026-0.168-0.359-0.628-0.74-1.022c-0.574-0.594-0.673-0.588-0.576,0.035c0.064,0.414,0.255,0.895,0.424,1.07C225.627,163.32,226.208,163.266,226.143,162.847L226.143,162.847z" />
    <path fill="#FFFFFF" stroke="#000000" stroke-width="0.81" d="M214.518,146.028c3.159,0,5.72,2.677,5.72,5.979s-2.561,5.979-5.72,5.979s-5.72-2.677-5.72-5.979C208.797,148.705,211.358,146.028,214.518,146.028z" />
    <path fill="#FFFFFF" stroke="#000000" stroke-width="0.81" d="M204.348,147.287c3.159,0,5.72,2.677,5.72,5.979s-2.561,5.979-5.72,5.979s-5.72-2.677-5.72-5.979S201.189,147.287,204.348,147.287z" />
    <path fill="#FFFFFF" stroke="#000000" stroke-width="0.81" d="M214.562,148.755c1.628,0,2.949,1.451,2.949,3.241s-1.32,3.241-2.949,3.241s-2.949-1.451-2.949-3.241S212.934,148.755,214.562,148.755z M204.393,150.014c1.628,0,2.949,1.451,2.949,3.241s-1.32,3.241-2.949,3.241s-2.949-1.451-2.949-3.241S202.764,150.014,204.393,150.014z" />
    <path fill="#FFFFFF" stroke="#000000" stroke-width="0.81" d="M214.66,151.258c0.501,0,0.907,0.359,0.907,0.802s-0.406,0.802-0.907,0.802c-0.501,0-0.907-0.359-0.907-0.802S214.159,151.258,214.66,151.258z M204.49,152.517c0.501,0,0.907,0.359,0.907,0.802c0,0.443-0.406,0.802-0.907,0.802c-0.501,0-0.907-0.359-0.907-0.802S203.989,152.517,204.49,152.517z" />
    <path fill="#FFFFFF" stroke="#000000" stroke-width="0.9579" d="M243.437,155.783c1.229,0,2.225,1.832,2.225,4.091s-0.996,4.091-2.225,4.091s-2.225-1.832-2.225-4.091S242.208,155.783,243.437,155.783z" />
    <path fill="#FFFFFF" stroke="#194119" stroke-width="2.1287" d="M204.412,107.633c2.248,0,4.071,2.791,4.071,6.234s-1.823,6.234-4.071,6.234s-4.071-2.791-4.071-6.234S202.163,107.633,204.412,107.633z" />
  </g>
</svg>
