<svg xmlns="http://www.w3.org/2000/svg" width="450px" height="300px" viewBox="0 0 450 300">
  <path fill="#FF0000" d="M50,0h400v300H50V0z" />
  <path fill="#006600" d="M0,0h180v300H0V0z" />
  <g>
    <path fill="#FFFF00" stroke="#000000" stroke-width="0.43" stroke-linecap="round" stroke-linejoin="round" d="M238.7,196.5c-22.7-0.7-126.6-65.5-127.3-75.9l5.7-9.6c10.3,15,116.5,78,126.9,75.8L238.7,196.5" />
    <path fill="#FFFF00" stroke="#000000" stroke-width="0.43" stroke-linecap="round" stroke-linejoin="round" d="M115.9,109.8c-2,5.5,27.1,23.5,62.2,44.8s65.3,34.5,67.5,32.6c0.1-0.2,1.1-1.9,1-1.9c-0.4,0.6-1.4,0.8-3,0.4c-9.5-2.7-34.2-14.1-64.8-32.6s-57.2-35.7-61.4-42.9c-0.3-0.5-0.5-1.4-0.4-2.1h-0.1l-0.9,1.5L115.9,109.8L115.9,109.8L115.9,109.8z M239.2,196.8c-0.4,0.7-1.1,0.7-2.5,0.6c-8.5-0.9-34.2-13.4-64.6-31.7c-35.4-21.2-64.7-40.5-61.5-45.6l0.9-1.5l0.2,0.1c-2.8,8.6,57.7,43.2,61.3,45.4c35,21.7,64.6,34.4,67.2,31.1L239.2,196.8L239.2,196.8L239.2,196.8z" />
    <path fill="#FFFF00" stroke="#000000" stroke-width="0.43" stroke-linecap="round" stroke-linejoin="round" d="M180.1,126.9c22.7-0.2,50.7-3.1,66.8-9.5l-3.5-5.6c-9.5,5.3-37.7,8.7-63.5,9.2c-30.6-0.3-52.1-3.1-62.9-10.4l-3.3,6C133.6,125.1,153.9,126.8,180.1,126.9 M105.7,154.2c13.9,7.5,44.9,11.3,74.2,11.5c26.7,0,61.5-4.1,74.5-11l-0.4-7.5c-4.1,6.4-41.3,12.5-74.4,12.2s-63.8-5.4-74-12L105.7,154.2 M179.8,195.2c-32.1-0.2-59.6-8.7-65.4-10.2l4.2,6.6c10.2,4.3,37.1,10.7,61.4,10s45.7-2.6,60.7-9.9l4.3-6.9C234.9,189.8,200.1,195.2,179.8,195.2" />
    <path fill="#FFFF00" stroke="#000000" stroke-width="0.43" stroke-linecap="round" stroke-linejoin="round" d="M247.8,117.5c-0.6,0.9-11.1,4.5-26.5,7.2c-10.5,1.6-24.2,3-41.2,3c-16.2,0-29.5-1.1-39.5-2.5c-16.2-2.6-24.6-6.1-27.7-7.3c0.3-0.6,0.5-1,0.8-1.6c8.9,3.6,17.3,5.7,27.2,7.2c10,1.3,23.1,2.5,39.2,2.5c17,0,30.5-1.5,41-3c15.9-2.6,24.5-5.8,25.8-7.4L247.8,117.5L247.8,117.5L247.8,117.5z M244.8,111.8c-1.7,1.4-10.3,4.4-25.4,6.8c-10.1,1.4-22.9,2.7-39.2,2.8c-15.5,0-28.2-1-37.9-2.4c-15.3-2-23.5-5.6-26.4-6.7c0.3-0.5,0.6-1,0.9-1.5c2.3,1.2,10.2,4.3,25.7,6.5c9.5,1.3,22.2,2.4,37.7,2.3c16.3,0,28.9-1.3,38.9-2.8c15.1-2.1,23.3-6,24.6-6.9L244.8,111.8L244.8,111.8L244.8,111.8z M255.1,153.2v1.8c-1.9,2.3-14.2,5.9-29.6,8.4c-11.7,1.8-26.9,3.1-45.9,3.1c-18.1,0-32.4-1.3-43.6-3c-17.7-2.6-28.9-7.1-31.2-8.4V153c6.8,4.5,25.3,7.8,31.4,8.9c11.1,1.7,25.4,3,43.4,3c18.9,0,34.1-1.3,45.7-3.1C236.3,160.1,252,155.9,255.1,153.2L255.1,153.2L255.1,153.2z M255.1,146.8v1.8c-1.9,2.3-14.2,5.9-29.6,8.4c-11.7,1.8-26.9,3.1-45.9,3.1c-18.1,0-32.4-1.3-43.6-3c-17.7-2.6-28.9-7.1-31.2-8.4v-2.1c6.8,4.5,25.3,7.8,31.4,8.9c11.1,1.7,25.4,3,43.4,3c18.9,0,34.1-1.3,45.7-3.1C236.3,153.7,252,149.6,255.1,146.8L255.1,146.8L255.1,146.8z M242.5,190.3c-0.6,1-1.3,1.9-1.9,2.9c-7.1,2.5-18.2,5.1-22.9,5.9c-9.6,2-24.5,3.4-37.7,3.4c-28.4-0.4-51.7-6-62.6-10.7l-0.9-1.5l0.1-0.2l1.5,0.6c19.5,7,41.3,9.7,62,10.2c13.1,0.1,26.3-1.5,37-3.4c16.3-3.3,22.9-5.7,25-6.9L242.5,190.3L242.5,190.3L242.5,190.3z M246.2,184.1C246.3,184.1,246.3,184.1,246.2,184.1c-0.4,0.9-0.9,1.7-1.4,2.5c-3.8,1.4-14,4.4-29,6.4c-9.9,1.3-16,2.6-35.6,3c-36.8-0.9-60.6-8.1-66.2-9.9l-0.8-1.6c21.3,5.6,43.1,9.4,67.1,9.8c17.9-0.4,25.6-1.7,35.4-3c17.4-2.7,26.2-5.6,28.9-6.4c0-0.1-0.1-0.1-0.1-0.1L246.2,184.1L246.2,184.1L246.2,184.1z" />
    <path fill="#FFFF00" stroke="#000000" stroke-width="0.43" stroke-linecap="round" stroke-linejoin="round" d="M246.6,148.3c0.1,21.1-10.7,40-19.4,48.4c-12.3,11.8-28.6,19.4-47.7,19.8c-21.3,0.4-41.3-13.5-46.7-19.6c-10.5-11.9-19.1-27-19.4-47.4c1.3-23,10.3-39.1,23.4-50.1s30.6-16.4,45.1-16c16.8,0.4,36.4,8.7,49.9,25C240.8,119.1,244.6,130.7,246.6,148.3L246.6,148.3z M179.7,76.1c40.9,0,74.5,33.2,74.5,74s-33.6,74-74.5,74s-74.2-33.2-74.2-74S138.9,76.1,179.7,76.1" />
    <path fill="#FFFF00" stroke="#000000" stroke-width="0.43" stroke-linecap="round" stroke-linejoin="round" d="M179.9,75.8c40.9,0,74.3,33.4,74.3,74.3s-33.4,74.3-74.3,74.3s-74.3-33.4-74.3-74.3S139,75.8,179.9,75.8L179.9,75.8z M107.3,150.1c0,39.9,32.8,72.6,72.6,72.6s72.6-32.7,72.6-72.6s-32.8-72.6-72.6-72.6S107.3,110.1,107.3,150.1L107.3,150.1z M180,82c37.3,0,68,30.6,68,68s-30.7,68-68,68s-68-30.6-68-68S142.7,82,180,82L180,82z M113.6,150c0,36.5,30,66.4,66.4,66.4s66.4-29.9,66.4-66.4s-30-66.4-66.4-66.4S113.6,113.5,113.6,150L113.6,150z" />
    <path fill="#FFFF00" stroke="#000000" stroke-width="0.43" stroke-linecap="round" stroke-linejoin="round" d="M183,75.5h-6.4v149.2h6.4V75.5z M254.2,152.9v-5.5l-4.5-4.2l-25.5-6.8l-36.8-3.8l-44.2,2.2l-31.5,7.5l-6.4,4.7v5.5l16.1-7.2l38.2-6h36.8l27,3l18.8,4.5L254.2,152.9z M179.6,99.7c27.6-0.1,51.7,3.9,62.8,9.5l4,7c-9.6-5.2-35.6-10.5-66.8-9.7c-25.4,0.2-52.5,2.8-66.1,10.1l4.8-8C129.5,102.7,155.8,99.8,179.6,99.7" />
    <path fill="#FFFF00" stroke="#000000" stroke-width="0.43" stroke-linecap="round" stroke-linejoin="round" d="M182.4,74.7h1.6v150.9h-1.6V74.7L182.4,74.7z M176,74.7h1.6v150.9H176V74.7L176,74.7z M180,138.6c17.5,0,34.6,1.7,48.1,4.3c13.9,2.8,23.7,6.3,27.1,10.2v1.9c-4-4.9-17.2-8.4-27.4-10.5c-13.4-2.6-30.3-4.3-47.7-4.3c-18.4,0-35.5,1.8-48.7,4.4c-10.6,2.1-24.7,6.3-26.5,10.4v-2c1-2.9,11.5-7.1,26.2-10.1C144.3,140.3,161.4,138.6,180,138.6L180,138.6z M180,132.2c17.5,0,34.6,1.7,48.1,4.3c13.9,2.8,23.7,6.3,27.1,10.2v1.9c-4-4.9-17.2-8.4-27.4-10.5c-13.4-2.6-30.3-4.3-47.7-4.3c-18.4,0-35.5,1.8-48.7,4.4c-10.2,1.9-24.9,6.3-26.6,10.4v-2c1-2.8,11.7-7.2,26.2-10.1C144.3,134,161.5,132.2,180,132.2L180,132.2z M180,105.5c15.8,0,31,0.8,43.1,3c11.3,2.1,22,5.2,23.6,6.9l1.2,2.1c-3.7-2.4-13.1-5.2-25-7.4c-12-2.3-27.2-3-42.9-3c-17.8-0.1-31.6,0.9-43.5,2.9c-12.6,2.3-21.2,5.7-23.4,7.3l1.2-2.2c4.2-2.1,10.8-4.7,21.9-6.7C148.4,106.2,162.4,105.6,180,105.5L180,105.5L180,105.5z M180,99.1c15.1,0,30,0.8,41.6,2.9c9.2,1.8,18.2,4.6,21.5,7l1.7,2.8c-3-3.3-14.1-6.4-24-8.2c-11.5-2-25.8-2.8-40.9-2.9c-15.8,0-30.5,1-41.8,3.1c-10.8,2.1-17.8,4.5-20.8,6.4l1.5-2.3c4.1-2.2,10.7-4.1,19-5.7C149.3,100.1,164.1,99.2,180,99.1L180,99.1z" />
    <path fill="#FFFF00" stroke="#000000" stroke-width="0.43" stroke-linecap="round" stroke-linejoin="round" d="M179.9,178.1c-46.1,0.5-60.9,9.5-62.8,12.2l-3.4-5.6c11.7-8.5,36.8-13.3,66.4-12.8 M245.7,185.5l-5.5,8.6l-16-14.1L183,152.2l-46.5-25.5l-24.1-8.3l5.2-9.5l1.8-0.9l15,3.8l49.5,25.5l28.5,18l24,17.2l9.8,11.2L245.7,185.5z" />
    <path fill="#FFFF00" stroke="#000000" stroke-width="0.43" stroke-linecap="round" stroke-linejoin="round" d="M179.7,177.4v1.7c-17-0.1-34.2,1.4-49.2,5.8c-4.7,1.3-12.5,4.4-13.3,6.9l-0.9-1.4c0.2-1.5,5-4.6,13.8-7C147.3,178.3,163.4,177.5,179.7,177.4L179.7,177.4L179.7,177.4z M180.3,170.9l0.1,1.7c-17.1,0-35.1,1.2-51.6,6c-5.3,1.6-14.5,4.9-14.8,7.5l-0.9-1.6c0.2-2.4,8.1-5.5,15.3-7.6C144.9,172.2,163.1,170.9,180.3,170.9L180.3,170.9z M111.5,118.7c4.2-2.9,35.3,11,67.9,30.6c32.5,19.7,63.5,41.9,60.7,46.1l-0.9,1.4l-0.4,0.3c0.1-0.1,0.6-0.6-0.1-2.2c-1.4-4.6-23.4-22.1-59.9-44.2c-35.6-21.2-65.3-34-68.2-30.4L111.5,118.7L111.5,118.7L111.5,118.7z M246.8,185.4c2.7-5.3-26.2-27-62-48.2c-36.6-20.8-63-33-67.8-29.3l-1.1,1.9c0,0.1,0-0.1,0.3-0.3c0.9-0.8,2.3-0.7,3-0.7c8.3,0.1,32,11,65.2,30.1c14.6,8.5,61.6,38.6,61.4,47.1c0,0.7,0.1,0.9-0.2,1.2L246.8,185.4L246.8,185.4L246.8,185.4z" />
  </g>
  <g>
    <path fill="#FFFFFF" stroke="#000000" stroke-width="0.5028" d="M135.4,158.3c0,12.2,5,23.2,13.1,31.3s19.1,13.2,31.4,13.2c12.3,0,23.4-5,31.5-13c8.1-8.1,13.1-19.2,13.1-31.4l0,0V98.9l-89.1-0.1V158.3L135.4,158.3L135.4,158.3z" />
    <path fill="#FF0000" stroke="#000000" stroke-width="0.3805" d="M137.1,158.3L137.1,158.3c0,11.7,4.8,22.3,12.6,30s18.5,12.5,30.2,12.5c11.8,0,22.4-4.8,30.2-12.5c7.7-7.7,12.5-18.3,12.5-30l0,0v-57.6h-85.4L137.1,158.3 M205.4,118v36.7v3.9l0,0c0,1-0.1,2.2-0.2,3.2c-0.7,5.8-3.4,10.9-7.3,14.8c-4.6,4.6-11,7.5-18,7.5s-13.2-2.9-17.9-7.6c-4.8-4.7-7.5-11.2-7.5-18V118L205.4,118L205.4,118L205.4,118z" />
    <g>
      <path fill="#FFFF00" d="M176.9,115.8c0.1-4.1,3-5.1,3.1-5.1c0,0,3.2,1.1,3.2,5.2L176.9,115.8 M142.6,115.8c0.1-4.1,3-5.1,3.1-5.1	c0,0,3.2,1.1,3.2,5.2L142.6,115.8 M142.6,150.6c0.1-4.1,3-5.1,3.1-5.1c0,0,3.2,1.1,3.2,5.2L142.6,150.6 M156.2,186.7	c-2.9-3-1.5-5.8-1.5-5.8s3-1.5,5.9,1.4L156.2,186.7 M217.2,115.8c-0.1-4.1-3-5.1-3.1-5.1c0,0-3.2,1.1-3.2,5.2L217.2,115.8	 M217.2,150.6c-0.1-4.1-3-5.1-3.1-5.1c0,0-3.2,1.1-3.2,5.2L217.2,150.6 M203.7,186.7c2.9-3,1.5-5.8,1.5-5.8s-3-1.5-5.9,1.4	L203.7,186.7" />
      <path fill="#FFFF00" stroke="#000000" stroke-width="0.375" d="M174.4,110.8l-0.5,4.8h3.1c0-3.9,3-4.6,3.1-4.6s3,0.9,3.1,4.6h3.1	l-0.6-4.8H174.4L174.4,110.8L174.4,110.8z M140.1,110.8l-0.5,4.8h3.1c0-3.9,3-4.6,3.1-4.6s3,0.9,3.1,4.6h3.1l-0.6-4.8H140.1	L140.1,110.8L140.1,110.8z M140.1,145.5l-0.5,4.8h3.1c0-3.9,3-4.6,3.1-4.6s3,0.9,3.1,4.6h3.1l-0.6-4.8H140.1L140.1,145.5	L140.1,145.5z M150.8,185l3,3.7l2.2-2.2c-2.8-2.8-1.2-5.4-1.1-5.4c0-0.1,2.7-1.5,5.4,1.1l2.2-2.2l-3.8-3L150.8,185L150.8,185	L150.8,185z M219.7,110.8l0.5,4.8h-3.1c0-3.9-3-4.6-3.1-4.6s-3,0.9-3.1,4.6h-3.1l0.6-4.8H219.7L219.7,110.8L219.7,110.8z	 M219.7,145.5l0.5,4.8h-3.1c0-3.9-3-4.6-3.1-4.6s-3,0.9-3.1,4.6h-3.1l0.6-4.8H219.7L219.7,145.5L219.7,145.5z M209,185l-3,3.7	l-2.2-2.2c2.8-2.8,1.2-5.4,1.1-5.4c0-0.1-2.7-1.5-5.4,1.1l-2.2-2.2l3.8-3L209,185L209,185L209,185z" />
      <path fill="#FFFF00" stroke="#000000" stroke-width="0.375" d="M173.7,115.5h12.7c0.3,0,0.5,0.3,0.5,0.6c0,0.3-0.2,0.6-0.5,0.6	h-12.7c-0.3,0-0.5-0.3-0.5-0.6S173.4,115.5,173.7,115.5z M178.3,115.5c0-2.5,1.7-3.2,1.7-3.2s1.8,0.7,1.8,3.2H178.3 M173.9,108.8	h12.2c0.3,0,0.5,0.2,0.5,0.5s-0.2,0.5-0.5,0.5h-12.2c-0.3,0-0.5-0.2-0.5-0.5C173.5,109,173.7,108.8,173.9,108.8z M174.2,109.8	h11.6c0.2,0,0.4,0.2,0.4,0.5s-0.2,0.5-0.4,0.5h-11.6c-0.2,0-0.4-0.2-0.4-0.5S173.9,109.8,174.2,109.8z M178,101.9h0.9v0.7h0.7	v-0.7h0.9v0.7h0.7v-0.7h0.9v1.5c0,0.2-0.2,0.4-0.4,0.4h-3.3c-0.2,0-0.4-0.2-0.4-0.4L178,101.9L178,101.9L178,101.9z M181.4,103.9	l0.2,4.8h-3.2l0.2-4.8H181.4 M177.5,106.2l0.1,2.6h-3.1l0.1-2.6H177.5L177.5,106.2L177.5,106.2z M185.4,106.2l0.1,2.6h-3.1	l0.1-2.6H185.4L185.4,106.2L185.4,106.2z M174,104.3h0.9v0.7h0.7v-0.7h0.9v0.7h0.7v-0.7h0.9v1.5c0,0.2-0.2,0.4-0.4,0.4h-3.2	c-0.2,0-0.4-0.2-0.4-0.4v-1.5H174L174,104.3z M182,104.3h0.9v0.7h0.7v-0.7h0.9v0.7h0.7v-0.7h0.9v1.5c0,0.2-0.2,0.4-0.4,0.4h-3.2	c-0.2,0-0.4-0.2-0.4-0.4v-1.5H182L182,104.3z M139.4,115.5h12.7c0.3,0,0.5,0.3,0.5,0.6c0,0.3-0.2,0.6-0.5,0.6h-12.7	c-0.3,0-0.5-0.3-0.5-0.6S139.1,115.5,139.4,115.5z M144,115.5c0-2.5,1.7-3.2,1.7-3.2s1.8,0.7,1.8,3.2H144 M139.7,108.8h12.2	c0.3,0,0.5,0.2,0.5,0.5s-0.2,0.5-0.5,0.5h-12.2c-0.3,0-0.5-0.2-0.5-0.5S139.4,108.8,139.7,108.8z M139.9,109.8h11.6	c0.2,0,0.4,0.2,0.4,0.5s-0.2,0.5-0.4,0.5h-11.6c-0.2,0-0.4-0.2-0.4-0.5C139.5,110.1,139.7,109.8,139.9,109.8z M143.7,101.9h0.9	v0.7h0.7v-0.7h0.9v0.7h0.7v-0.7h0.9v1.5c0,0.2-0.2,0.4-0.4,0.4h-3.3c-0.2,0-0.4-0.2-0.4-0.4L143.7,101.9L143.7,101.9L143.7,101.9z	 M147.1,103.9l0.2,4.8h-3.2l0.2-4.8H147.1 M143.2,106.2l0.1,2.6h-3.1l0.1-2.6H143.2L143.2,106.2L143.2,106.2z M151.2,106.2	l0.1,2.6h-3.1l0.1-2.6H151.2L151.2,106.2L151.2,106.2z M139.7,104.3h0.9v0.7h0.7v-0.7h0.9v0.7h0.7v-0.7h0.9v1.5	c0,0.2-0.2,0.4-0.4,0.4h-3.2c-0.2,0-0.4-0.2-0.4-0.4v-1.5H139.7L139.7,104.3z M147.7,104.3h0.9v0.7h0.7v-0.7h0.9v0.7h0.7v-0.7h0.9	v1.5c0,0.2-0.2,0.4-0.4,0.4h-3.2c-0.2,0-0.4-0.2-0.4-0.4v-1.5H147.7L147.7,104.3z M139.4,150.3h12.7c0.3,0,0.5,0.3,0.5,0.6	s-0.2,0.6-0.5,0.6h-12.7c-0.3,0-0.5-0.3-0.5-0.6S139.1,150.3,139.4,150.3z M144,150.3c0-2.5,1.7-3.2,1.7-3.2s1.8,0.7,1.8,3.2H144	 M139.7,143.5h12.2c0.3,0,0.5,0.2,0.5,0.5s-0.2,0.5-0.5,0.5h-12.2c-0.3,0-0.5-0.2-0.5-0.5S139.4,143.5,139.7,143.5z M139.9,144.6	h11.6c0.2,0,0.4,0.2,0.4,0.5s-0.2,0.5-0.4,0.5h-11.6c-0.2,0-0.4-0.2-0.4-0.5S139.7,144.6,139.9,144.6z M143.7,136.6h0.9v0.6h0.7	v-0.7h0.9v0.7h0.7v-0.7h0.9v1.5c0,0.2-0.2,0.4-0.4,0.4h-3.3c-0.2,0-0.4-0.2-0.4-0.4L143.7,136.6L143.7,136.6L143.7,136.6z	 M147.1,138.7l0.2,4.8h-3.2l0.2-4.8H147.1 M143.2,140.9l0.1,2.6h-3.1l0.1-2.6H143.2L143.2,140.9L143.2,140.9z M151.2,140.9	l0.1,2.6h-3.1l0.1-2.6H151.2L151.2,140.9L151.2,140.9z M139.7,139h0.9v0.6h0.7V139h0.9v0.7h0.7V139h0.9v1.5c0,0.2-0.2,0.4-0.4,0.4	h-3.2c-0.2,0-0.4-0.2-0.4-0.4V139H139.7L139.7,139z M147.7,139h0.9v0.6h0.7V139h0.9v0.7h0.7V139h0.9v1.5c0,0.2-0.2,0.4-0.4,0.4	h-3.2c-0.2,0-0.4-0.2-0.4-0.4V139H147.7L147.7,139z M153.7,188.8l9-9c0.2-0.2,0.5-0.2,0.8,0.1c0.2,0.2,0.3,0.6,0.1,0.8l-9,9	c-0.2,0.2-0.5,0.2-0.8-0.1C153.5,189.4,153.5,189,153.7,188.8z M156.9,185.5c-1.8-1.8-1.1-3.4-1.1-3.5c0,0,1.8-0.7,3.5,1	L156.9,185.5 M149.1,183.9l8.6-8.6c0.2-0.2,0.5-0.2,0.7,0s0.2,0.5,0.1,0.7l-8.6,8.6c-0.2,0.2-0.5,0.2-0.7,0	C148.9,184.4,148.9,184.1,149.1,183.9z M150,184.4l8.2-8.3c0.2-0.2,0.5-0.1,0.7,0.1c0.2,0.2,0.2,0.5,0.1,0.7l-8.2,8.3	c-0.2,0.2-0.5,0.1-0.7-0.1C149.9,184.9,149.9,184.6,150,184.4z M147.1,176.2l0.6-0.6l0.5,0.5l0.5-0.5l-0.5-0.5l0.7-0.7l0.5,0.5	l0.5-0.5l-0.5-0.5l0.7-0.7l1.1,1.1c0.2,0.2,0.1,0.4,0,0.6l-2.3,2.4c-0.2,0.2-0.4,0.2-0.6,0L147.1,176.2L147.1,176.2L147.1,176.2z	 M150.9,175.1l3.6,3.3l-2.3,2.3l-3.3-3.6L150.9,175.1 M149.7,179.5l1.9,1.8l-2.2,2.2l-1.8-1.9L149.7,179.5L149.7,179.5	L149.7,179.5z M155.3,173.9l1.9,1.8l-2.2,2.2l-1.8-1.9L155.3,173.9L155.3,173.9L155.3,173.9z M145.9,180.7l0.6-0.6l0.5,0.5	l0.5-0.5l-0.5-0.5l0.6-0.6l0.5,0.5l0.5-0.5l-0.5-0.5l0.6-0.6l1.1,1.1c0.2,0.2,0.1,0.4,0,0.6l-2.3,2.3c-0.1,0.1-0.4,0.2-0.6,0	L145.9,180.7L145.9,180.7L145.9,180.7z M151.6,175l0.6-0.6l0.5,0.5l0.5-0.5l-0.5-0.5l0.6-0.6l0.5,0.5l0.5-0.5l-0.5-0.5l0.6-0.6	l1.1,1.1c0.2,0.2,0.1,0.4,0,0.6l-2.3,2.3c-0.1,0.1-0.4,0.2-0.6,0L151.6,175L151.6,175L151.6,175z M220.5,115.5h-12.7	c-0.3,0-0.5,0.3-0.5,0.6c0,0.3,0.2,0.6,0.5,0.6h12.7c0.3,0,0.5-0.3,0.5-0.6C220.9,115.8,220.7,115.5,220.5,115.5z M215.8,115.5	c0-2.5-1.7-3.2-1.7-3.2s-1.8,0.7-1.8,3.2H215.8 M220.2,108.8H208c-0.3,0-0.5,0.2-0.5,0.5s0.2,0.5,0.5,0.5h12.2	c0.3,0,0.5-0.2,0.5-0.5S220.4,108.8,220.2,108.8z M219.9,109.8h-11.6c-0.2,0-0.4,0.2-0.4,0.5s0.2,0.5,0.4,0.5h11.6	c0.2,0,0.4-0.2,0.4-0.5C220.4,110.1,220.2,109.8,219.9,109.8z M216.2,101.9h-0.9v0.7h-0.7v-0.7h-0.9v0.7H213v-0.7h-1v1.5	c0,0.2,0.2,0.4,0.4,0.4h3.3c0.2,0,0.4-0.2,0.4-0.4L216.2,101.9L216.2,101.9L216.2,101.9z M212.7,103.9l-0.2,4.8h3.2l-0.2-4.8	H212.7 M216.6,106.2l-0.1,2.6h3.1l-0.1-2.6H216.6L216.6,106.2L216.6,106.2z M208.7,106.2l-0.1,2.6h3.1l-0.1-2.6H208.7L208.7,106.2	L208.7,106.2z M220.1,104.3h-0.9v0.7h-0.7v-0.7h-0.9v0.7H217v-0.7h-0.9v1.5c0,0.2,0.2,0.4,0.4,0.4h3.2c0.2,0,0.4-0.2,0.4-0.4	L220.1,104.3L220.1,104.3L220.1,104.3z M212.2,104.3h-0.9v0.7h-0.7v-0.7h-0.9v0.7H209v-0.7h-0.9v1.5c0,0.2,0.2,0.4,0.4,0.4h3.2	c0.2,0,0.4-0.2,0.4-0.4v-1.5H212.2L212.2,104.3z M220.5,150.3h-12.7c-0.3,0-0.5,0.3-0.5,0.6s0.2,0.6,0.5,0.6h12.7	c0.3,0,0.5-0.3,0.5-0.6C220.9,150.6,220.7,150.3,220.5,150.3z M215.8,150.3c0-2.5-1.7-3.2-1.7-3.2s-1.8,0.7-1.8,3.2H215.8	 M220.2,143.5H208c-0.3,0-0.5,0.2-0.5,0.5s0.2,0.5,0.5,0.5h12.2c0.3,0,0.5-0.2,0.5-0.5S220.4,143.5,220.2,143.5z M219.9,144.6	h-11.6c-0.2,0-0.4,0.2-0.4,0.5s0.2,0.5,0.4,0.5h11.6c0.2,0,0.4-0.2,0.4-0.5C220.4,144.8,220.2,144.6,219.9,144.6z M216.2,136.6	h-0.9v0.6h-0.7v-0.7h-0.9v0.7H213v-0.7h-1v1.5c0,0.2,0.2,0.4,0.4,0.4h3.3c0.2,0,0.4-0.2,0.4-0.4L216.2,136.6L216.2,136.6	L216.2,136.6z M212.7,138.7l-0.2,4.8h3.2l-0.2-4.8H212.7 M216.6,140.9l-0.1,2.6h3.1l-0.1-2.6H216.6L216.6,140.9L216.6,140.9z	 M208.7,140.9l-0.1,2.6h3.1l-0.1-2.6H208.7L208.7,140.9L208.7,140.9z M220.1,139h-0.9v0.6h-0.7V139h-0.9v0.7H217V139h-0.9v1.5	c0,0.2,0.2,0.4,0.4,0.4h3.2c0.2,0,0.4-0.2,0.4-0.4L220.1,139L220.1,139L220.1,139z M212.2,139h-0.9v0.6h-0.7V139h-0.9v0.7H209V139	h-0.9v1.5c0,0.2,0.2,0.4,0.4,0.4h3.2c0.2,0,0.4-0.2,0.4-0.4V139H212.2L212.2,139z M206.1,188.8l-9-9c-0.2-0.2-0.5-0.2-0.8,0.1	c-0.2,0.2-0.3,0.6-0.1,0.8l9,9c0.2,0.2,0.5,0.2,0.8-0.1C206.3,189.4,206.3,189,206.1,188.8z M202.9,185.5c1.8-1.8,1.1-3.4,1.1-3.5	c0,0-1.8-0.7-3.5,1L202.9,185.5 M210.8,183.9l-8.6-8.6c-0.2-0.2-0.5-0.2-0.7,0s-0.2,0.5-0.1,0.7l8.6,8.6c0.2,0.2,0.5,0.2,0.7,0	S210.9,184.1,210.8,183.9z M209.8,184.4l-8.2-8.3c-0.2-0.2-0.5-0.1-0.7,0.1c-0.2,0.2-0.2,0.5-0.1,0.7l8.2,8.3	c0.2,0.2,0.5,0.1,0.7-0.1C210,184.9,210,184.6,209.8,184.4z M208.9,175.1l-3.6,3.3l2.3,2.3l3.3-3.6L208.9,175.1 M210.1,179.5	l-1.9,1.8l2.2,2.2l1.8-1.9L210.1,179.5L210.1,179.5L210.1,179.5z M204.5,173.9l-1.9,1.8l2.2,2.2l1.8-1.9L204.5,173.9L204.5,173.9	L204.5,173.9z M212.8,176.2l-0.6-0.6l-0.5,0.5l-0.5-0.5l0.5-0.5l-0.7-0.7l-0.5,0.5l-0.5-0.5l0.5-0.5l-0.7-0.7l-1.1,1.1	c-0.2,0.2-0.1,0.4,0,0.6l2.3,2.4c0.2,0.2,0.4,0.2,0.6,0L212.8,176.2L212.8,176.2L212.8,176.2z M213.9,180.7l-0.6-0.6l-0.5,0.5	l-0.5-0.5l0.5-0.5l-0.6-0.6l-0.5,0.5l-0.5-0.5l0.5-0.5l-0.6-0.6L210,179c-0.2,0.2-0.1,0.4,0,0.6l2.3,2.3c0.1,0.1,0.4,0.2,0.6,0	L213.9,180.7L213.9,180.7L213.9,180.7z M208.3,175l-0.6-0.6l-0.5,0.5l-0.5-0.5l0.5-0.5l-0.6-0.6l-0.5,0.5l-0.5-0.5l0.5-0.5	l-0.6-0.6l-1.1,1.1c-0.2,0.2-0.1,0.4,0,0.6l2.3,2.3c0.1,0.1,0.4,0.2,0.6,0L208.3,175L208.3,175L208.3,175z" />
      <path fill="#000000" d="M179.7,105.5c0-0.5,0.7-0.5,0.6,0v1.2h-0.6V105.5 M175.7,107.1c0-0.4,0.6-0.5,0.6,0v0.9h-0.6V107.1 M183.7,107.1	c0-0.4,0.6-0.5,0.6,0v0.9h-0.6V107.1 M145.4,105.5c0-0.5,0.7-0.5,0.6,0v1.2h-0.6V105.5 M141.4,107.1c0-0.4,0.6-0.5,0.6,0v0.9h-0.6	V107.1 M149.4,107.1c0-0.4,0.6-0.5,0.6,0v0.9h-0.6V107.1 M145.4,140.2c0-0.5,0.7-0.5,0.6,0v1.1h-0.6V140.2 M141.4,141.9	c0-0.4,0.6-0.5,0.6,0v0.9h-0.6V141.9 M149.4,141.9c0-0.4,0.6-0.5,0.6,0v0.9h-0.6V141.9 M150.8,177.4c-0.4-0.3,0.1-0.8,0.5-0.5	l0.8,0.8l-0.5,0.5L150.8,177.4 M149.2,181.5c-0.3-0.3,0.1-0.8,0.4-0.4l0.6,0.6l-0.4,0.4L149.2,181.5 M154.8,175.8	c-0.3-0.3,0.1-0.8,0.4-0.4l0.6,0.6l-0.4,0.4L154.8,175.8 M214.4,105.5c0-0.5-0.7-0.5-0.6,0v1.2h0.6V105.5 M218.4,107.1	c0-0.4-0.6-0.5-0.6,0v0.9h0.6V107.1 M210.4,107.1c0-0.4-0.6-0.5-0.6,0v0.9h0.6V107.1 M214.4,140.2c0-0.5-0.7-0.5-0.6,0v1.1h0.6	V140.2 M218.4,141.9c0-0.4-0.6-0.5-0.6,0v0.9h0.6V141.9 M210.4,141.9c0-0.4-0.6-0.5-0.6,0v0.9h0.6V141.9 M209.1,177.4	c0.4-0.3-0.1-0.8-0.5-0.5l-0.8,0.8l0.5,0.5L209.1,177.4 M210.7,181.5c0.3-0.3-0.1-0.8-0.4-0.4l-0.6,0.6l0.4,0.4L210.7,181.5	 M205.1,175.8c0.3-0.3-0.1-0.8-0.4-0.4L204,176l0.4,0.4L205.1,175.8" />
    </g>
    <path fill="#003399" d="M174.5,143.7v8.1c0,1.7,0.6,3.2,1.7,4.3s2.4,1.8,4,1.8s3-0.7,4-1.8s1.6-2.6,1.6-4.3v-8.1H174.5z M177.1,154.1c-0.6,0-1.1-0.5-1.1-1.1s0.5-1.1,1.1-1.1s1.1,0.5,1.1,1.1S177.7,154.1,177.1,154.1z M177.1,147.9c-0.6,0-1.1-0.5-1.1-1.1s0.5-1.1,1.1-1.1s1.1,0.5,1.1,1.1S177.7,147.9,177.1,147.9z M180.2,150.9c-0.6,0-1.1-0.5-1.1-1.1s0.5-1.1,1.1-1.1s1.1,0.5,1.1,1.1S180.8,150.9,180.2,150.9z M183.3,154c-0.6,0-1.1-0.5-1.1-1.1s0.5-1.1,1.1-1.1s1.1,0.5,1.1,1.1S183.9,154,183.3,154z M183.3,147.9c-0.6,0-1.1-0.5-1.1-1.1s0.5-1.1,1.1-1.1s1.1,0.5,1.1,1.1S183.9,147.9,183.3,147.9z M174.5,124.2v8.1c0,1.7,0.6,3.2,1.7,4.3s2.4,1.8,4,1.8s3-0.7,4-1.8s1.6-2.6,1.6-4.3v-8.1L174.5,124.2z M177.1,134.5c-0.6,0-1.1-0.5-1.1-1.1s0.5-1.1,1.1-1.1s1.1,0.5,1.1,1.1S177.7,134.5,177.1,134.5z M177.1,128.4c-0.6,0-1.1-0.5-1.1-1.1s0.5-1.1,1.1-1.1s1.1,0.5,1.1,1.1S177.7,128.4,177.1,128.4z M180.2,131.4c-0.6,0-1.1-0.5-1.1-1.1s0.5-1.1,1.1-1.1s1.1,0.5,1.1,1.1S180.8,131.4,180.2,131.4z M183.3,134.5c-0.6,0-1.1-0.5-1.1-1.1s0.5-1.1,1.1-1.1s1.1,0.5,1.1,1.1S183.9,134.5,183.3,134.5z M183.3,128.4c-0.6,0-1.1-0.5-1.1-1.1s0.5-1.1,1.1-1.1s1.1,0.5,1.1,1.1S183.9,128.4,183.3,128.4z M158.9,143.7v8.1c0,1.7,0.6,3.2,1.7,4.3s2.4,1.8,4,1.8s3-0.7,4-1.8s1.6-2.6,1.6-4.3v-8.1H158.9z M161.5,154.1c-0.6,0-1.1-0.5-1.1-1.1s0.5-1.1,1.1-1.1s1.1,0.5,1.1,1.1S162.1,154.1,161.5,154.1z M161.5,147.9c-0.6,0-1.1-0.5-1.1-1.1s0.5-1.1,1.1-1.1s1.1,0.5,1.1,1.1S162.1,147.9,161.5,147.9z M164.6,150.9c-0.6,0-1.1-0.5-1.1-1.1s0.5-1.1,1.1-1.1s1.1,0.5,1.1,1.1S165.2,150.9,164.6,150.9z M167.7,154c-0.6,0-1.1-0.5-1.1-1.1s0.5-1.1,1.1-1.1s1.1,0.5,1.1,1.1S168.3,154,167.7,154z M167.7,147.9c-0.6,0-1.1-0.5-1.1-1.1s0.5-1.1,1.1-1.1s1.1,0.5,1.1,1.1S168.3,147.9,167.7,147.9z M190.1,143.7v8.1c0,1.7,0.6,3.2,1.7,4.3s2.4,1.8,4,1.8s3-0.7,4-1.8s1.6-2.6,1.6-4.3v-8.1H190.1z M192.6,154.1c-0.6,0-1.1-0.5-1.1-1.1s0.5-1.1,1.1-1.1s1.1,0.5,1.1,1.1S193.2,154.1,192.6,154.1z M192.6,147.9c-0.6,0-1.1-0.5-1.1-1.1s0.5-1.1,1.1-1.1s1.1,0.5,1.1,1.1S193.2,147.9,192.6,147.9z M195.7,150.9c-0.6,0-1.1-0.5-1.1-1.1s0.5-1.1,1.1-1.1s1.1,0.5,1.1,1.1S196.3,150.9,195.7,150.9z M198.9,154c-0.6,0-1.1-0.5-1.1-1.1s0.5-1.1,1.1-1.1s1.1,0.5,1.1,1.1S199.5,154,198.9,154z M198.9,147.9c-0.6,0-1.1-0.5-1.1-1.1s0.5-1.1,1.1-1.1s1.1,0.5,1.1,1.1S199.5,147.9,198.9,147.9z M174.5,163.1v8.1c0,1.7,0.6,3.2,1.7,4.3s2.4,1.8,4,1.8s3-0.7,4-1.8s1.6-2.6,1.6-4.3v-8.1H174.5z M177.1,173.4c-0.6,0-1.1-0.5-1.1-1.1s0.5-1.1,1.1-1.1s1.1,0.5,1.1,1.1S177.7,173.4,177.1,173.4z M177.1,167.2c-0.6,0-1.1-0.5-1.1-1.1s0.5-1.1,1.1-1.1s1.1,0.5,1.1,1.1S177.7,167.2,177.1,167.2z M180.2,170.2c-0.6,0-1.1-0.5-1.1-1.1s0.5-1.1,1.1-1.1s1.1,0.5,1.1,1.1S180.8,170.2,180.2,170.2z M183.3,173.4c-0.6,0-1.1-0.5-1.1-1.1s0.5-1.1,1.1-1.1s1.1,0.5,1.1,1.1S183.9,173.4,183.3,173.4z M183.3,167.2c-0.6,0-1.1-0.5-1.1-1.1s0.5-1.1,1.1-1.1s1.1,0.5,1.1,1.1S183.9,167.2,183.3,167.2z" />
  </g>
</svg>
