<svg xmlns="http://www.w3.org/2000/svg" width="450px" height="300px" viewBox="0 0 450 300">
  <path fill="#006C35" d="M0,0h450v300H0V0z" />
  <path fill="#FFFFFF" d="M190.125,79.25c2.125,1.875,3.875-0.75,4.125-1.75c0.375-1.625-1.375,0.5-1.875-0.75c-1-2.625,3.375-4.625,1.75-5.75C192.125,69.75,188,77.375,190.125,79.25z M213,83.75c1.75,5.875-0.875,12-6.625,10.875c-4.875-1-1.25-11.75-3.125-16.125c-1.75-4.375-7.25,0.25-10.5,13.125c-2.5,10.125-5-14.625-7.25-12.375c-3.625,10.5,2.125,21.875,6.125,20.875c5,1.125,5.625-13.75,7.75-11.25c-0.125,8,0.625,9.75,2.625,12.125c6.125,4.5,9.25-0.5,12.25-3.375s3.875,2.5,6.25,3.75c2,0.75,6.125,0.25,7.125-1.5c1.25-2.25,5.125-8.75,4.375-1.5c4.25,2.375,8.625-10.25,4.5-7.375c-8.125,5.5-9.5-8.375-8.375-9.75c0.75,0.125,5.625,1.75-0.75-7.125c-2.25-3.125-10.125,0.25-5.25,8.625c1.625,2.75,6.375,12.125-0.875,12.125c-4.75,0-3.125-26-6.75-23.625C210.125,73.75,211.25,77.875,213,83.75z M208.25,71.5c-2.375-0.625-4.375,8.75-2.75,10C208.125,83.625,210.5,72.125,208.25,71.5z M231.875,71.875c-6.875,2.25,13.75,27.875,13.75,27.875s2.75,21.125,1.625,42.875c9.125-3,4.875-32.75,4.875-32.75l13.125,23.5c5.5-9.625-13.875-35.125-13.875-35.125l-1.125-9.75c-0.75-4.875,2,0.5,1.625-2.25c-0.875-4.875-10.625-24.125-10-6.75C241.875,79.75,235,70.875,231.875,71.875z M301.125,85.375c-6-6.25,1.625-1.625-1.625-5.75c-2.75-3-5.125-5.125-7.5-7c-1.125-0.75-0.625,5.25-0.875,8S303.25,97.75,303.25,97.75s3.5,35.125-0.875,37c-5.125,2.125-5.625-10-11.5-5.875c-4.625,3.375-5.125,18.375-11.625,13.875c-4.875-6.625-2-16-2.625-13.625C272.375,134,274.25,142,275.25,143.75c11.625,18.5,13.5-3.875,14.625-5.25c2.875-7.5,11.625,14.25,19.75-2.5c1.25-3.125,0.375-29.125,0.375-29.125l5.25,7.625c0,0,1.125,15.25,0.875,23.875c7.125-4.25,5.25-14.375,5.25-14.375l7.75,13c0,0,4.75-8-8.375-23.125c-0.5-4.5-4-26-3.875-26.375c0.25-0.875,1.375,0,2-1c0.875-0.875-3.5-13.375-5.625-13.875c-6.5-1.5,0.625,31.125,0.625,31.125l-6.25-9.125c0,0-1-9.5-0.375-9.5c0.625,0.5,0.75,0.5,1.125,0.75c3.25,0.375-3.875-11-5.875-13.375C300.375,74.125,299.125,72.625,301.125,85.375z M119.5,72.875c-4,0.375,0.625,5,1.125,6.375c0.375,1-0.375,4,0.375,4.25C123,84.125,125,72.375,119.5,72.875z M331.125,134c0.25,11.25-21.875,15.25-13,18c1.875,0.5,16.875,0,17.625-16.625c1.25-30.625-3.75-49.125-3.25-50s2,0.125,2.625-0.875s-7-11.5-7-11.5C322,76.375,330.25,95.75,331.125,134z M272.625,85.5c5.625,20.875,6.75,54.125,6.75,54.125s10,1.5-0.125-50.875c-0.875-4.5,3.375-0.625,2.875-3.25c-1.5-3.375-6.625-12.5-7-12.5C275.125,73.125,271.625,78,272.625,85.5z M146.375,73.5c-2-0.125-0.875,2.5-1.875,2.375c-0.875-0.125-0.125-2-1.375-2.125s-0.375,1.875-1.375,1.875c-1.25,0-0.625-2.125-1.625-2c-2.875,0.25-1.625,6.75,3.25,6.375S148.25,73.625,146.375,73.5z M176.125,79.75c1.25,0.625,2.5,1.875,1.625,2.5c-3.5,3.75-13.5,10.875-13.25,11.25s5.25,0.625,7,0.125s11.375-11.5,11.375-11.5S180,80.5,181.5,79.625c2.25-1.5,2.125-6.875-2.375-6.25C174.625,74.125,174.875,79.25,176.125,79.75z M131.625,74.125c-5,1.25,3.375,22.125-0.5,25c-4.375-0.375,1.5-18.875-4.875-16.625S122,96,118.875,98.75c-1.5,1.375-3.75-15.75-5.5-13.625c-0.5,7-1.125,19.375,4.875,20.625c8.125,1.625,3.125-20.75,7.375-14.25c0.625,7.25-2,16.25,5.125,16.375c5.5,0,1.625,4.625,3.75,20.625c8-0.625,3.125-23.5,4.125-24.875c1.125-3.375,5.375,2.75,8.625,1.5c12.375-1.625,4.5-19.25,4.5-19.25s1.75,2.125,2.25,0c-1-4-3.5-7-5.875-6.75C139.875,80,151.75,95.5,149.875,97.5s-7.25-4-7.25-4c1.625-4.5-2-16.75-5.375-13c-3,5.125,1.75,15,1.75,15C134.75,102,136.625,72.75,131.625,74.125z M153.25,78.875c3,19,7.25,34.625,2.625,33.25c-2.125-4.75-15.25-11.125-13.625,8.75c3.875,4.875,10.375-1.5,10.5-0.375s0,6.375-8.375,10.875c-5.125,2.25-9.25,2.875-11.375-1.375c-1.375-2.625,0.125-12.5-3.25-10.25c-9.875,25.5,23.125,29,26.875,1c0,0,1.5-3.125,2-0.375c-1.125,12.625-5.375,21.375-19.25,23.25c-14.875,2-11.375-14.625-13-15.375c-2.625-1.375-3,8.125-3,10.75c1.375,20,33.25,11.375,38.375-5.125c2.625-8.5,1-15.875,1-15.875c4.625,4.875,8.75-2.875,10.75-1c2.5,1.75,9.5,3.125,8.75-11.625c-5.5,0.875-4.125,4.625-4.125,4.625s-1.375,1.75-2-0.25c-2.625-8.375-6.75,6.5-9.75,1.125c0.375-5.625-4.125-2.375-4.125-2.375l-2.75-21.125c0,0,2.375,0.875,3.5-0.5C160.375,74,154.75,70,153.25,78.875z M179.875,79.75c-1.5,0.75-2.75-2.875-1.375-2.875C180,76.875,181.375,79.125,179.875,79.75z M243.375,87c0,0-5.625-5.375-1-4.5L243.375,87z M174.875,99.375c3.5,3.5,6.875-1,6.875-2.625c0.125-1.75-2.375,1.75-3.5,0.75c-1.75-1.5,1-4.75-0.25-5C175.125,91.625,172.75,97.25,174.875,99.375z M294.75,92.75c-4.75,0.625-1,5.125-2.875,5.375c-2.25,0.375-0.75-3.5-4.625-1.75c-4,1.875,1.875,9.5,7.625,11.125c0-13,2.125-8,3.125-8.875C298.25,98.375,297.5,92.5,294.75,92.75z M200.5,129.125c-9.875,18-21.375,15.5-20,10.5c22.875-13.25,11.25-27.875,11.25-27.875c0.625-0.5,3.25,1,3,0.125c-2.75-9.625-7-8.5-8.375-7.25c-8.75,11.25,18,9.625-6.75,27.125l0.375-6c-2.875,1.875-3.75,7.5-4.25,9.125c-7.125,5-15.375,8.625-20,13.625c-2.5,3.875,16.875-4.375,19.125-5.375c8.875,17.375,23.25-0.25,27.25-5.5c3-4.875,2.5,9.5,23.75,10.375c4.625-5.375-4.625-6.25-5.625-9c-0.875-7.125,14.5-4.25,22.75-8.25c0.125-5,3.375-8,3.375-8c0-2.625-28.625,0-22.5-2c22.5-2.75,15-19.5,7.25-19.25s-6.125,12.125-7.375,12.375C209.5,115.75,207,123,207,123c-2.5,0.25-1.75-19.5-8.875-22.125C190.5,105.125,202.625,115.625,200.5,129.125z M289.25,115.875c0,0-1.625,3.25,0,4.125c1,0.5,11.75-7.25,12.125-8.375c0.75-2.875-0.125-4.125-0.125-4.125L289.25,115.875z M232.125,111.125c-0.5,1.25-4.625-1.25-3.5-2.125C230,107.75,232.5,110,232.125,111.125z M133,113.75c0.375-5.875-15.375-2.5-18.75,9L133,113.75z M149.75,114.5c0.75,2.625-3,2.875-3.625,1.375C145.5,114.5,149,111.875,149.75,114.5z M209.25,126.75c0.125,0,0.125,0,0.25,0l0,0c2.375,0.625,5.875,0.75,9,1c2.5,0.125,3.75,2.125,1.375,2.875c-2.25,0.75-4.5,1.375-4.5,4.75c0.25,1.625,0.25,2.5,0,2.875c0,0,0,0.125-0.125,0.125l0,0l0,0l0,0l0,0l0,0h-0.125H215c-0.5,0.125-1.375-0.5-1.875-0.75c-1.375-1-5.375-3.5-6-8.75C206.875,127.875,207.875,126.875,209.25,126.75L209.25,126.75z M115.75,130.875C107.5,144,113.625,151,117,149.625s3.625-8.5,1.375-8.125c-1.375,0.25-0.75,2-2.125,2.125C114.75,143.875,114.875,138.25,115.75,130.875z M231.375,142.625c0.5,1.75,3.25-1.75,3.25,1.875c0,1.125-0.625,2.375,1.125,2.625c1.125,0.25,5-2.125,8.375-2.75c0.875,0,0.875-2.375-0.5-2.5C241.75,142,240,142,238.375,143.5c-2.625,0.625-0.75-4.375-1.125-4.75C235.125,137,230.875,141.125,231.375,142.625z M310,142.625c0,2,4.25,1.625,0.75,4.75c-2.25,2.125-2,3.25-0.125,3.125c1.875,0,6-1.75,6.875-3.5s-1.5-1.25-2.25-1.25c-0.375,0-1.5-0.125-0.875-1.125c0.5-0.625,2.75-3.5-1.75-3.5C310.25,141.125,310,141.625,310,142.625z M279.375,212.375c0,0-79.375,0-136.75-1.5c0,0,3.75,8.375,20.375,8.375L279,219c-2.125,2.75,1.125,11.875,4.25,6.75c12.75,0.625,16.875,0,16.875,0s1,2.375,3.25,2.125c8.625-1,5.25-16.125-1.5-15.375l-5.625,0.625c0,0-7.875-0.875-13.625-0.875c1-1.875,1.625-4.5-1.125-4.5l-0.875-1.75C274.875,208.5,279.375,212.375,279.375,212.375z M283.125,219.75l16.125,0.375c0,0,1.25,1.25-0.125,2.75l-4.875-0.125c0.25-1.25-4.125-2-4.375,0c-1.125,0.25-7-0.125-7-0.125C281.75,220.5,283.125,219.75,283.125,219.75z M260.875,91.375c-2-0.125-0.875,2.5-1.875,2.375c-0.875-0.125-0.125-2-1.375-2.125S257.25,93.5,256.25,93.5c-1.25,0-0.625-2.125-1.625-2c-2.875,0.25-1.625,6.75,3.25,6.375S262.75,91.5,260.875,91.375z M218.75,104c-2-0.125-0.875,2.5-1.875,2.375c-0.875-0.125-0.125-2-1.375-2.125s-0.375,1.875-1.375,1.875c-1.25,0-0.625-2.125-1.625-2c-2.875,0.25-1.625,6.75,3.25,6.375C220.625,110,220.625,104.125,218.75,104z M170.875,121.625c-3.625,0.25,0.875,4.25,1.375,5.5c0.375,0.875-0.375,4.5,0.375,4.625C175,132.375,176.125,121.375,170.875,121.625z M255,74.125c-4.125,0.25,1.25,6.75,1.75,8.25c0.5,1-0.875,4.5,0,4.75C259.5,87.75,261,73.75,255,74.125z M321,80.5c-4.5,0.25,0.5,6.5,1,8.125c0.5,1.25-0.75,5.625,0.125,5.875C325.125,95.25,325.5,80.25,321,80.5z M299,115.625c-3.875,0.375-0.25,7.5,0.25,9.125c0.5,1.25-0.75,4.5,0.25,4.75C303,130.25,303.25,115.25,299,115.625z M267.5,133.25c0.375,7.25-26.875,15.625-12.625,18c1.875,0.375,16.25-4.875,16.875-19.875C273,101.5,268,88,268.5,87.125s1.625-0.25,2.125-1.25c1.125-2.25-5-12.25-5-12.25C259.125,80.5,265.5,94.125,267.5,133.25z" />
</svg>
