<svg xmlns="http://www.w3.org/2000/svg" width="450px" height="300px" viewBox="0 0 450 300">
  <path fill="#215B33" d="M0,0h450v300H0V0z" />
  <path fill="#0051BA" d="M0,300V0h450" />
  <path fill="#FCD116" d="M0,300h22.64L450,15.094V0h-22.64L0,284.907V300z" />
  <path fill="#FFFFFF" d="M118.804,81.478l-15.573,11.314l5.948,18.307L93.606,99.785L78.033,111.1l5.948-18.307L68.409,81.478h19.249l5.948-18.307l5.948,18.307H118.804z M136.284,47.964l-5.948,18.307l15.573-11.314l15.573,11.314l-5.948-18.307l15.573-11.314h-19.249l-5.948-18.307l-5.948,18.307h-19.249L136.284,47.964z M151.857,126.307L145.909,108l-5.948,18.307h-19.249l15.573,11.314l-5.948,18.307l15.573-11.314l15.573,11.314l-5.948-18.307l15.573-11.314H151.857z M47.252,126.307L41.304,108l-5.948,18.307h-19.25l15.573,11.314l-5.948,18.307l15.573-11.314l15.573,11.314l-5.948-18.307l15.573-11.314H47.252z M41.304,18.342l-5.948,18.307h-19.25l15.573,11.314L25.731,66.27l15.573-11.314L56.877,66.27l-5.948-18.307l15.573-11.314h-19.25L41.304,18.342z" />
</svg>
