<svg xmlns="http://www.w3.org/2000/svg" width="450px" height="300px" viewBox="0 0 450 300">
  <path fill="#FF0000" d="M0,0h450v300H0V0z" />
  <path fill="#005CE5" d="M0,0h450v200H0V0z" />
  <path fill="#FFFFFF" d="M0,0h450v100H0V0z" />
  <path fill="#005CE5" d="M112.485,52.604c-0.671,0.001-1.341,0.015-2.009,0.034c-12.988,0.337-25.182,3.691-33.864,7.781l0.001,0.012c-0.949,0.397,1.584,47.499,1.584,47.499c2.068,24.428,16.623,37.703,34.31,43.288c17.688-5.585,32.235-18.419,34.303-42.847c0,0,2.524-47.503,1.576-47.941l0.001-0.012c-9.126-4.299-22.128-7.791-35.857-7.814C112.52,52.605,112.49,52.604,112.485,52.604z" />
  <path fill="#FFFFFF" d="M112.508,84.952L103.778,102l-5.644-7.332l-14.748,19.49c0.267,1.21,0.58,2.378,0.921,3.518c1.647,2.78,4.812,5.953,8.872,5.953c3.221,0,6.443-2.577,9.664-2.577s6.443,2.577,9.664,2.577s6.443-2.577,9.664-2.577s6.443,2.577,9.664,2.577c4.023,0,7.167-3.114,8.827-5.876c0.354-1.171,0.672-2.377,0.947-3.621L126.88,94.668L121.238,102L112.508,84.952z M102.843,123.629c-3.221,0-6.443,2.577-9.664,2.577c-2.55,0-4.74-0.903-6.437-2.184c0.599,1.272,1.233,2.508,1.926,3.679c1.329,0.826,2.839,1.385,4.51,1.385c3.221,0,6.443-2.577,9.664-2.577s6.443,2.577,9.664,2.577s6.443-2.577,9.664-2.577s6.443,2.577,9.664,2.577c1.647,0,3.136-0.546,4.452-1.353c0.693-1.167,1.327-2.399,1.926-3.666c-1.689,1.257-3.859,2.139-6.379,2.139c-3.221,0-6.443-2.577-9.664-2.577s-6.443,2.577-9.664,2.577C109.286,126.206,106.065,123.629,102.843,123.629L102.843,123.629z M102.843,129.086c-3.221,0-6.443,2.577-9.664,2.577c-0.7,0-1.365-0.082-2.01-0.206c5.573,7.446,13.177,12.43,21.333,15.296c8.139-2.861,15.73-7.849,21.3-15.283c-0.631,0.118-1.282,0.193-1.965,0.193c-3.221,0-6.443-2.577-9.664-2.577s-6.443,2.577-9.664,2.577C109.286,131.663,106.065,129.086,102.843,129.086L102.843,129.086z" />
  <path fill="#FFE500" d="M105.284,63.078h-2.436l-1.219,2.11l-1.219-2.11h-2.436l1.218-2.109l-1.218-2.11h2.436l1.219-2.11l1.219,2.11h2.436l-1.218,2.109L105.284,63.078z M124.604,63.078h2.436l-1.218-2.11l1.218-2.109h-2.436l-1.219-2.11l-1.219,2.11h-2.436l1.218,2.11l-1.218,2.109h2.436l1.219,2.11L124.604,63.078z M114.945,75.537l1.218-2.109h-2.436l-1.219-2.11l-1.219,2.11h-2.436l1.218,2.11l-1.218,2.109h2.436l1.219,2.11l1.219-2.11h2.436L114.945,75.537z" />
  <path fill="#FF0000" d="M76.614,60.432c-0.95,0.397-1.879,0.794-2.764,1.192l2.984,46.746c2.068,24.428,17.986,38.65,35.674,44.234c17.688-5.585,33.606-19.807,35.674-44.234l2.968-46.598c-0.886-0.459-1.815-0.903-2.764-1.341l-2.77,46.391c-1.92,23.75-16.696,37.577-33.116,43.007c-16.42-5.43-31.198-19.257-33.117-43.007L76.614,60.432z" />
</svg>
