<svg xmlns="http://www.w3.org/2000/svg" width="450px" height="300px" viewBox="0 0 450 300">
  <path fill="#009246" d="M0,0h450v300H0V0z" />
  <path fill="#FFFFFF" d="M150,0h300v300H150V0z" />
  <path fill="#CE2B37" d="M300,0h150v300H300V0z" />
  <path fill="#D2232C" d="M173.1,122.52h103.8V246.6H173.1V122.52z" />
  <path fill="#FFFFFF" d="M276.9,190.38h-43.89v56.22h-16.02v-56.22H173.1v-16.02h43.89v-51.84h16.02v51.84h43.89V190.38z" />
  <path fill="#4B61D1" d="M153.69,109.71c0,0,6.45,5.61,6.45,16.77v105.18c0,15.57,11.7,24.06,23.79,24.06h31.71c7.98,0,9.39,6.75,9.39,6.75s1.38-6.75,9.39-6.75h31.68c12.09,0,23.79-8.49,23.79-24.06V126.48c0-11.16,6.45-16.77,6.45-16.77H153.69z M175.11,124.53h99.81v103.62c0,6.78-2.64,12.03-10.86,12.03h-30.12c-6.21,0-8.94,4.41-8.94,4.41s-2.76-4.41-8.94-4.41h-30.09c-8.25,0-10.86-5.28-10.86-12.03V124.53z" />
  <g>
    <path fill="#CE2B37" stroke="#000000" stroke-width="0.1769" d="M192.476,57.385c-3.343,2.334-6.34,4.669-8.675,7.003l0.61,7.959l7.242,9.444l3.926,4.589h58.76l4.536-6.95l7.189-8.118v-8.33c-3.024-2.069-6.155-4.112-9.603-5.969c-2.839-0.345-5.465-0.504-7.693-0.451c-2.547-1.061-5.12-2.096-8.463-2.945c-2.202,0.637-4.404,1.247-6.181,2.069c-3.024-0.451-5.624-1.141-9.365-1.247c-3.316,0.371-6.579,0.822-10.266,0.822c-2.971-0.424-5.863-0.875-9.205-1.114l-5.889,3.475C197.278,57.492,195.5,57.306,192.476,57.385z" />
    <path fill="#E1CC68" stroke="#000000" stroke-width="0.1769" d="M224.606,74.148c-1.39,2.523-0.943,3.94-3.081,4.195C221.153,76.23,222.631,76.23,224.606,74.148z M224.606,74.148h0.788H224.606z M225.394,74.148c1.39,2.523,0.943,3.94,3.081,4.195C228.846,76.23,227.369,76.23,225.394,74.148z M227.414,69.831 M227.414,69.831c2.295-1.771,3.757-1.526,3.687-3.691C228.961,66.07,229.187,67.551,227.414,69.831z M218.898,66.14c-0.07,2.165,1.392,1.92,3.687,3.691C220.813,67.551,221.039,66.07,218.898,66.14z M222.586,69.831" />
    <path fill="#E1CC68" stroke="#000000" stroke-width="0.1769" d="M235.001,45.819c10.134,5.836,19.525-0.928,30.508,1.433c5.146,1.088,10.505,5.438,9.603,13.848c-0.398,3.687-4.563,10.054-10.532,12.574l-1.539-1.22c4.43-3.475,7.534-7.746,7.799-11.46c0.239-3.051-0.212-8.489-7.985-10.373c-6.393-1.539-13.98,1.194-20.772,0.769c-8.622-0.557-16.341-7.136-17.031-8.675l2.918-2.043C230.04,42.423,232.454,44.333,235.001,45.819L235.001,45.819z M214.999,45.819c-10.134,5.836-19.525-0.928-30.508,1.433c-5.147,1.088-10.505,5.438-9.603,13.848c0.398,3.687,4.563,10.054,10.532,12.574l1.539-1.22c-4.43-3.475-7.534-7.746-7.799-11.46c-0.239-3.051,0.212-8.489,7.985-10.373c6.393-1.539,13.98,1.194,20.772,0.769c8.622-0.557,16.341-7.136,17.031-8.675l-2.918-2.043C219.959,42.423,217.545,44.333,214.999,45.819z" />
    <path fill="none" stroke="#000000" stroke-width="0.1769" d="M227.944,41.787l-1.512,1.061c0.239,0.292,0.398,0.531,1.008,1.088c0.902,0.796,2.175,1.777,3.661,2.679c2.998,1.857,6.95,3.581,11.062,3.847c6.473,0.398,14.113-2.414,20.931-0.743c4.059,0.982,6.42,2.998,7.587,5.2c1.167,2.202,1.22,4.51,1.114,6.128c-0.292,3.9-3.21,7.932-7.295,11.354l0.212,0.186c2.6-1.22,4.855-3.21,6.499-5.332c1.751-2.255,2.839-4.696,2.998-6.261c0.424-3.979-0.61-6.897-2.334-8.967c-1.724-2.069-4.165-3.369-6.553-3.9c-5.253-1.114-10.24-0.053-15.28,0.61c-5.04,0.663-10.213,0.928-15.519-2.122C232.109,45.235,229.908,43.458,227.944,41.787L227.944,41.787z M222.055,41.787l1.512,1.061c-0.239,0.292-0.398,0.531-1.008,1.088c-0.902,0.796-2.175,1.777-3.661,2.679c-2.998,1.857-6.95,3.581-11.062,3.847c-6.473,0.398-14.113-2.414-20.931-0.743c-4.059,0.982-6.42,2.998-7.587,5.2c-1.167,2.202-1.22,4.51-1.114,6.128c0.292,3.9,3.21,7.932,7.295,11.354l-0.212,0.186c-2.6-1.22-4.855-3.21-6.499-5.332c-1.751-2.255-2.839-4.696-2.998-6.261c-0.424-3.979,0.61-6.897,2.335-8.967c1.724-2.069,4.165-3.369,6.553-3.9c5.253-1.114,10.24-0.053,15.28,0.61c5.04,0.663,10.213,0.928,15.519-2.122C217.89,45.235,220.092,43.458,222.055,41.787L222.055,41.787z" />
    <path fill="#E1CC68" stroke="#000000" stroke-width="0.1769" d="M222.082,42.901c0,0-2.945,3.343-8.383,4.032c-5.2,0.663-12.999-1.937-14.007,5.73c-0.531,4.112,3.502,9.683,4.377,10.293c-1.671,1.194-2.202,3.343-2.812,4.669c-1.512-1.088-3.714-1.857-5.544-1.99c0.928-1.91-2.626-9.046-2.626-11.885c0-5.836,3.847-8.754,8.303-9.922c3.634-0.928,6.738-0.318,10.16-0.318s9.205-3.369,9.205-3.369L222.082,42.901z M227.918,42.901c0,0,2.945,3.343,8.383,4.032c5.2,0.663,12.999-1.937,14.007,5.73c0.531,4.112-3.502,9.683-4.377,10.293c1.671,1.194,2.202,3.343,2.812,4.669c1.512-1.088,3.714-1.857,5.544-1.99c-0.928-1.91,2.626-9.046,2.626-11.885c0-5.836-3.847-8.754-8.303-9.922c-3.634-0.928-6.738-0.318-10.16-0.318c-3.422,0-9.205-3.369-9.205-3.369L227.918,42.901z" />
    <path fill="none" stroke="#000000" stroke-width="0.1769" d="M220.331,41.415l0.61,1.3c-0.902,0.822-3.343,2.812-7.375,3.316c-2.388,0.318-5.651-0.159-8.595,0.239c-1.459,0.212-2.892,0.663-4.032,1.671c-1.141,1.008-1.91,2.52-2.175,4.589c-0.318,2.414,0.663,4.961,1.751,7.03c0.557,1.035,1.141,1.937,1.645,2.653c0.212,0.265,0.371,0.478,0.531,0.69c-1.061,1.088-1.539,2.334-1.91,3.369c-1.247-0.69-2.653-1.194-4.032-1.406c0-0.531-0.08-1.088-0.186-1.671c-0.212-1.061-0.584-2.228-0.982-3.422c-0.769-2.388-1.618-4.987-1.618-6.022c0-2.732,0.875-4.642,2.228-6.075c1.353-1.433,3.263-2.388,5.385-2.918c3.396-0.875,6.393-0.318,9.948-0.318c2.016,0,4.351-0.902,6.287-1.751C218.872,42.185,219.694,41.76,220.331,41.415z M229.669,41.415l-0.61,1.3c0.902,0.822,3.343,2.812,7.375,3.316c2.388,0.318,5.651-0.159,8.595,0.239c1.459,0.212,2.892,0.663,4.032,1.671c1.141,1.008,1.91,2.52,2.175,4.589c0.318,2.414-0.663,4.961-1.751,7.03c-0.557,1.035-1.141,1.937-1.645,2.653c-0.212,0.265-0.371,0.478-0.531,0.69c1.061,1.088,1.539,2.334,1.91,3.369c1.247-0.69,2.653-1.194,4.032-1.406c0-0.531,0.08-1.088,0.186-1.671c0.212-1.061,0.584-2.228,0.982-3.422c0.769-2.388,1.618-4.987,1.618-6.022c0-2.732-0.875-4.642-2.228-6.075s-3.263-2.388-5.385-2.918c-3.396-0.875-6.393-0.318-9.948-0.318c-2.016,0-4.351-0.902-6.287-1.751C231.128,42.185,230.305,41.76,229.669,41.415L229.669,41.415z" />
    <path fill="#E1CC68" stroke="#000000" stroke-width="0.2871" stroke-linejoin="round" d="M224.984,21.283c-0.947,0-1.679,0.775-1.679,1.722c0,0.387,0.129,0.732,0.344,0.99c-0.258-0.301-0.646-0.517-1.076-0.517c-0.775,0-1.378,0.603-1.378,1.378s0.603,1.378,1.378,1.378c0.517,0,0.947-0.258,1.206-0.689v2.583H222.1h-1.55c0.388-0.258,0.689-0.689,0.689-1.206c0-0.775-0.603-1.378-1.378-1.378s-1.378,0.603-1.378,1.378c0,0.431,0.215,0.818,0.517,1.076c-0.301-0.215-0.646-0.344-0.99-0.344c-0.947,0-1.722,0.775-1.722,1.722s0.775,1.679,1.722,1.679c0.387,0,0.732-0.129,0.99-0.344c-0.301,0.258-0.517,0.646-0.517,1.076c0,0.775,0.603,1.378,1.378,1.378c0.775,0,1.378-0.603,1.378-1.378c0-0.517-0.258-0.947-0.689-1.206h1.55h1.679v9.515h2.497v-9.515h1.679h1.55c-0.387,0.258-0.689,0.689-0.689,1.206c0,0.775,0.603,1.378,1.378,1.378s1.378-0.603,1.378-1.378c0-0.431-0.215-0.818-0.517-1.076c0.301,0.215,0.646,0.344,0.99,0.344c0.947,0,1.722-0.775,1.722-1.679s-0.775-1.722-1.722-1.722c-0.387,0-0.732,0.129-0.99,0.344c0.301-0.258,0.517-0.646,0.517-1.076c0-0.775-0.603-1.378-1.378-1.378s-1.378,0.603-1.378,1.378c0,0.517,0.258,0.947,0.689,1.206h-1.55h-1.679v-2.583c0.258,0.387,0.689,0.689,1.206,0.689c0.775,0,1.378-0.603,1.378-1.378s-0.603-1.378-1.378-1.378c-0.431,0-0.818,0.215-1.076,0.517c0.215-0.301,0.344-0.646,0.344-0.99C226.707,22.058,225.932,21.283,224.984,21.283z" />
    <path fill="#E1CC68" stroke="#000000" stroke-width="0.2871" d="M230.797,39.668c0,3.229-2.583,5.813-5.813,5.813c-3.229,0-5.813-2.583-5.813-5.813s2.583-5.813,5.813-5.813C228.214,33.898,230.797,36.482,230.797,39.668z" />
    <path fill="#FFFFFF" stroke="#000000" stroke-width="0.0894" d="M219.99,39.883c0,0.431-0.344,0.775-0.775,0.775s-0.775-0.344-0.775-0.775s0.344-0.775,0.775-0.775S219.99,39.453,219.99,39.883z M230.022,39.883c0,0.431,0.344,0.775,0.775,0.775s0.775-0.344,0.775-0.775s-0.344-0.775-0.775-0.775S230.022,39.453,230.022,39.883z M225.759,33.812c0,0.431-0.344,0.775-0.775,0.775s-0.775-0.344-0.775-0.775s0.344-0.775,0.775-0.775C225.415,32.994,225.759,33.382,225.759,33.812z" />
    <path fill="#FFFFFF" stroke="#000000" stroke-width="0.0894" d="M221.066,39.625c0,0.431-0.344,0.775-0.775,0.775s-0.775-0.344-0.775-0.775s0.344-0.775,0.775-0.775S221.066,39.194,221.066,39.625z M228.902,39.625c0,0.431,0.344,0.775,0.775,0.775s0.775-0.344,0.775-0.775s-0.344-0.775-0.775-0.775S228.902,39.194,228.902,39.625z M225.759,34.76c0,0.431-0.344,0.775-0.775,0.775s-0.775-0.344-0.775-0.775s0.344-0.775,0.775-0.775S225.759,34.329,225.759,34.76z" />
    <path fill="#FFFFFF" stroke="#000000" stroke-width="0.0894" d="M222.53,39.367c0,0.431-0.344,0.775-0.775,0.775s-0.775-0.344-0.775-0.775s0.344-0.775,0.775-0.775S222.53,38.936,222.53,39.367z M227.482,39.367c0,0.431,0.344,0.775,0.775,0.775s0.775-0.344,0.775-0.775s-0.344-0.775-0.775-0.775S227.482,38.936,227.482,39.367z M225.759,36.051c0,0.431-0.344,0.775-0.775,0.775s-0.775-0.344-0.775-0.775s0.344-0.775,0.775-0.775C225.415,35.233,225.759,35.621,225.759,36.051z" />
    <path fill="#FFFFFF" stroke="#000000" stroke-width="0.0894" d="M225.759,39.151c0,0.431-0.344,0.775-0.775,0.775s-0.775-0.344-0.775-0.775s0.344-0.775,0.775-0.775S225.759,38.721,225.759,39.151z M224.08,39.237c0,0.431-0.344,0.775-0.775,0.775s-0.775-0.344-0.775-0.775s0.344-0.775,0.775-0.775S224.08,38.807,224.08,39.237z M225.932,39.237c0,0.431,0.344,0.775,0.775,0.775s0.775-0.344,0.775-0.775s-0.344-0.775-0.775-0.775S225.932,38.807,225.932,39.237z M225.781,37.473c0,0.429-0.349,0.778-0.778,0.778c-0.429,0-0.778-0.349-0.778-0.778c0-0.429,0.349-0.778,0.778-0.778C225.432,36.696,225.781,37.044,225.781,37.473z" />
    <path fill="#E1CC68" stroke="#000000" stroke-width="0.1769" d="M218.129,39.054l-0.875,1.008c3.847,9.285,4.961,25.626,4.961,33.134h5.518c0-7.508,1.141-23.876,4.961-33.134l-0.875-1.008c-1.486,2.6-4.006,3.316-6.871,3.316C222.135,42.37,219.615,41.654,218.129,39.054z" />
    <path fill="none" stroke="#000000" stroke-width="0.1769" d="M231.871,39.107c-3.661,10.213-4.934,22.363-4.934,33.983 M218.129,39.107c3.661,10.213,4.934,22.363,4.934,33.983" />
    <path fill="#FFFFFF" stroke="#000000" stroke-width="0.2" d="M251.975,51.038c0,1.21,0.996,2.206,2.206,2.206c1.21,0,2.206-0.996,2.206-2.206c0-1.21-0.996-2.206-2.206-2.206C252.971,48.761,251.975,49.757,251.975,51.038z M251.094,55.635c0,1.21,0.996,2.206,2.206,2.206s2.206-0.996,2.206-2.206c0-1.21-0.996-2.206-2.206-2.206S251.094,54.354,251.094,55.635z M193.585,51.038c0,1.21,0.996,2.206,2.206,2.206s2.206-0.996,2.206-2.206c0-1.21-0.996-2.206-2.206-2.206C194.581,48.832,193.585,49.828,193.585,51.038z M249.492,60.3c0,1.21,0.996,2.206,2.206,2.206c1.21,0,2.206-0.996,2.206-2.206c0-1.21-0.996-2.206-2.206-2.206S249.492,59.09,249.492,60.3z M196.032,60.335c0,1.21,0.996,2.206,2.206,2.206s2.206-0.996,2.206-2.206c0-1.21-0.996-2.206-2.206-2.206S196.032,59.125,196.032,60.335z M194.431,55.67c0,1.21,0.996,2.206,2.206,2.206s2.206-0.996,2.206-2.206c0-1.21-0.996-2.206-2.206-2.206S194.431,54.46,194.431,55.67z M260.062,46.795c0,1.21,0.996,2.206,2.206,2.206s2.206-0.996,2.206-2.206c0-1.21-0.996-2.206-2.206-2.206S260.062,45.514,260.062,46.795z M254.944,46.664c0,1.21,0.996,2.206,2.206,2.206s2.206-0.996,2.206-2.206c0-1.21-0.996-2.206-2.206-2.206S254.944,45.454,254.944,46.664z M264.975,47.967c0,1.21,0.996,2.206,2.206,2.206s2.206-0.996,2.206-2.206c0-1.21-0.996-2.206-2.206-2.206S264.975,46.686,264.975,47.967z M272.345,64.447c0,1.21,0.996,2.206,2.206,2.206s2.206-0.996,2.206-2.206c0-1.21-0.996-2.206-2.206-2.206S272.345,63.237,272.345,64.447z M273.061,59.534c0,1.21,0.996,2.206,2.206,2.206s2.206-0.996,2.206-2.206c0-1.21-0.996-2.206-2.206-2.206S273.061,58.324,273.061,59.534z M269.238,50.491c0,1.21,0.996,2.206,2.206,2.206s2.206-0.996,2.206-2.206c0-1.21-0.996-2.206-2.206-2.206S269.238,49.21,269.238,50.491z M276.385,54.706c0,1.247-1.008,2.228-2.228,2.228c-1.247,0-2.228-1.008-2.228-2.228s1.008-2.228,2.228-2.228C275.404,52.451,276.385,53.459,276.385,54.706z M274.555,68.819c0,1.232-1.001,2.233-2.233,2.233s-2.233-1.001-2.233-2.233s1.001-2.233,2.233-2.233S274.555,67.587,274.555,68.819z M180.55,47.932c0,1.21,0.996,2.206,2.206,2.206c1.21,0,2.206-0.996,2.206-2.206c0-1.21-0.996-2.206-2.206-2.206C181.547,45.655,180.55,46.651,180.55,47.932z M190.617,46.664c0,1.21,0.996,2.206,2.206,2.206s2.206-0.996,2.206-2.206c0-1.21-0.996-2.206-2.206-2.206C191.613,44.458,190.617,45.454,190.617,46.664z M172.464,59.498c0,1.21,0.996,2.206,2.206,2.206s2.206-0.996,2.206-2.206c0-1.21-0.996-2.206-2.206-2.206S172.464,58.289,172.464,59.498z M173.625,54.723c0,1.21,0.996,2.206,2.206,2.206s2.206-0.996,2.206-2.206c0-1.21-0.996-2.206-2.206-2.206C174.622,52.517,173.625,53.513,173.625,54.723z M185.499,46.795c0,1.21,0.996,2.206,2.206,2.206s2.206-0.996,2.206-2.206c0-1.21-0.996-2.206-2.206-2.206S185.499,45.514,185.499,46.795z M176.251,50.491c0,1.21,0.996,2.206,2.206,2.206s2.206-0.996,2.206-2.206c0-1.21-0.996-2.206-2.206-2.206S176.251,49.21,176.251,50.491z M173.181,64.412c0,1.21,0.996,2.206,2.206,2.206c1.21,0,2.206-0.996,2.206-2.206c0-1.21-0.996-2.206-2.206-2.206C174.177,62.134,173.181,63.202,173.181,64.412z M175.452,68.837c0,1.21,0.996,2.206,2.206,2.206s2.206-0.996,2.206-2.206s-0.996-2.206-2.206-2.206C176.448,66.56,175.452,67.557,175.452,68.837z" />
    <path fill="#FFFFFF" stroke="#000000" stroke-width="0.2" d="M251.025,47.036c0,1.21,0.996,2.206,2.206,2.206c1.21,0,2.206-0.996,2.206-2.206c0-1.21-0.996-2.206-2.206-2.206C252.021,44.83,251.025,45.755,251.025,47.036z M194.535,47.036c0,1.21,0.996,2.206,2.206,2.206c1.21,0,2.206-0.996,2.206-2.206c0-1.21-0.996-2.206-2.206-2.206C195.531,44.83,194.535,45.826,194.535,47.036z" />
    <path fill="#FFFFFF" stroke="#000000" stroke-width="0.2" d="M242.763,43.566c0,1.21,0.996,2.206,2.206,2.206c1.21,0,2.206-0.996,2.206-2.206c0-1.21-0.996-2.206-2.206-2.206C243.759,41.289,242.763,42.285,242.763,43.566z M197.951,44.554c0,1.21,0.996,2.206,2.206,2.206c1.21,0,2.206-0.996,2.206-2.206s-0.996-2.206-2.206-2.206C198.947,42.348,197.951,43.344,197.951,44.554z M213.135,42.062c0,1.21,0.996,2.206,2.206,2.206c1.21,0,2.206-0.996,2.206-2.206s-0.996-2.206-2.206-2.206C214.203,39.785,213.135,40.781,213.135,42.062z M247.574,44.589c0,1.21,0.996,2.206,2.206,2.206c1.21,0,2.206-0.996,2.206-2.206c0-1.21-0.996-2.206-2.206-2.206C248.57,42.383,247.574,43.38,247.574,44.589z M202.797,43.566c0,1.21,0.996,2.206,2.206,2.206c1.21,0,2.206-0.996,2.206-2.206c0-1.21-0.996-2.206-2.206-2.206C203.793,41.36,202.797,42.356,202.797,43.566z M237.542,43.157c0,1.21,0.996,2.206,2.206,2.206c1.21,0,2.206-0.996,2.206-2.206c0-1.21-0.996-2.206-2.206-2.206C238.539,40.95,237.542,41.947,237.542,43.157z M232.425,42.133c0,1.21,0.996,2.206,2.206,2.206c1.21,0,2.206-0.996,2.206-2.206c0-1.21-0.996-2.206-2.206-2.206C233.421,39.927,232.425,40.923,232.425,42.133z M208.053,43.121c0,1.21,0.996,2.206,2.206,2.206c1.21,0,2.206-0.996,2.206-2.206s-0.996-2.206-2.206-2.206C209.049,40.915,208.053,41.912,208.053,43.121z" />
    <path fill="#FFFFFF" stroke="#000000" stroke-width="0.1769" d="M222.745,42.423c0,1.247,1.008,2.228,2.228,2.228c1.247,0,2.228-1.008,2.228-2.228s-1.008-2.228-2.228-2.228C223.753,40.168,222.745,41.177,222.745,42.423z" />
    <path fill="#FFFFFF" stroke="#000000" stroke-width="0.1769" d="M222.745,45.686c0,1.247,1.008,2.228,2.228,2.228c1.247,0,2.228-1.008,2.228-2.228s-1.008-2.228-2.228-2.228C223.753,43.431,222.745,44.44,222.745,45.686z" />
    <path fill="#FFFFFF" stroke="#000000" stroke-width="0.1769" d="M222.745,49.506c0,1.247,1.008,2.228,2.228,2.228c1.247,0,2.228-1.008,2.228-2.228s-1.008-2.228-2.228-2.228S222.745,48.286,222.745,49.506z" />
    <path fill="#FFFFFF" stroke="#000000" stroke-width="0.1769" d="M222.745,53.937c0,1.247,1.008,2.228,2.228,2.228c1.247,0,2.228-1.008,2.228-2.228s-1.008-2.228-2.228-2.228C223.753,51.682,222.745,52.69,222.745,53.937z M222.745,58.632c0,1.247,1.008,2.228,2.228,2.228c1.247,0,2.228-1.008,2.228-2.228c0-1.247-1.008-2.228-2.228-2.228C223.753,56.377,222.745,57.385,222.745,58.632z" />
    <path fill="#E1CC68" stroke="#000000" stroke-width="0.1769" d="M235.71,80.47c-0.198-5.102-2.261-6.858,0.856-9.184C239.218,74.148,236.852,75.48,235.71,80.47z M235.71,80.47 M213.433,71.286c-2.652,2.862-0.286,4.194,0.856,9.184C214.487,75.368,216.551,73.613,213.433,71.286z M214.289,80.47 M251.866,83.577 M254.632,74.735c-3.57,1.633-1.887,3.781-2.766,8.842C254.024,78.893,256.64,78.098,254.632,74.735z M195.368,74.735c-2.008,3.363,0.608,4.158,2.766,8.842C197.255,78.516,198.938,76.368,195.368,74.735z M198.133,83.577" />
    <path fill="#E1CC68" stroke="#000000" stroke-width="0.1769" d="M225,78.422c-1.167,2.865-3.475,4.218-5.73,4.191c-2.043-0.027-4.032-1.141-5.12-2.998c-0.875,2.122-2.388,3.29-4.059,3.475c-1.698,0.212-3.422-0.531-4.802-1.857c-0.531,1.618-1.83,2.653-3.316,2.839c-1.406,0.186-2.945-0.318-4.165-1.433c-0.318,1.3-1.114,2.308-2.149,2.785c-0.982,0.451-2.122,0.424-3.13-0.053v0.027c0,0.61-0.292,1.857-0.292,1.857c-0.769,0.557-0.398,0.637,0.265,1.061c0,0,0.769,0.637,1.061,1.459c0.292,0.849,0.663,3.502,0.557,4.351c-0.106,0.902-1.008,2.016-1.008,2.016s0.053,0.318,0.133,0.796h63.589c0-0.451,0-0.796,0-0.796s-0.902-1.114-1.008-2.016c-0.106-0.875,0.265-3.528,0.557-4.351c0.292-0.822,1.061-1.459,1.061-1.459l0.265-1.061c0,0-0.292-1.247-0.292-1.857c0,0,0,0,0-0.027c-1.008,0.478-2.149,0.478-3.13,0.053c-1.035-0.478-1.83-1.486-2.149-2.785c-1.22,1.114-2.759,1.618-4.165,1.433c-1.486-0.186-2.759-1.194-3.316-2.839c-1.379,1.3-3.104,2.043-4.802,1.857c-1.671-0.186-3.157-1.379-4.059-3.475c-1.114,1.857-3.077,2.971-5.12,2.998C228.475,82.64,226.167,81.288,225,78.422L225,78.422z" />
    <path fill="#CE2B37" stroke="#000000" stroke-width="0.1769" d="M193.272,96.966c-1.035-0.849,15.599-4.404,31.728-4.43c16.633,0,32.789,3.555,31.728,4.43C254.632,98.69,240.89,101.9,225,101.9S195.368,98.69,193.272,96.966z" />
    <path fill="#E1CC68" stroke="#000000" stroke-width="0.2" d="M254.074,90.311c0.303,0.081,0.77,0.132,0.803,0.533c0.037,0.231-0.151,0.613-0.4,0.466c-0.819-0.456-2.123-0.103-3.404,0.424c-1.618,0.627-3.557,2.017-4.632,0.057c-0.137-0.259-0.254-0.566-0.314-0.858c0,0,0.651,0.079,0.651,0.079c0.033,0.079,0.067,0.185,0.116,0.248c0.234,0.447,0.746,0.825,1.266,0.698C249.984,91.618,252.153,89.983,254.074,90.311z M195.973,90.311c-0.303,0.081-0.77,0.132-0.803,0.533c-0.037,0.231,0.151,0.613,0.4,0.466c0.819-0.456,2.123-0.103,3.404,0.424c1.618,0.627,3.557,2.017,4.632,0.057c0.137-0.259,0.254-0.566,0.314-0.858c0,0-0.652,0.079-0.652,0.079c-0.033,0.079-0.067,0.185-0.116,0.248c-0.234,0.447-0.746,0.825-1.266,0.698C200.063,91.618,197.894,89.983,195.973,90.311z M210.655,88.091c-0.385,0.072-1.01,0.031-1.146,0.477c-0.077,0.288,0.22,0.621,0.506,0.492c1.162-0.399,2.914,0.041,4.62,0.653c2.189,0.721,4.795,2.382,6.483,0.178c0.137-0.204,0.277-0.407,0.356-0.64c0,0-0.898,0.035-0.898,0.035c-0.143,0.246-0.372,0.445-0.595,0.594c-0.452,0.277-1.002,0.367-1.521,0.229C216.052,89.602,213.198,87.889,210.655,88.091z M239.344,88.091c0.385,0.072,1.01,0.031,1.146,0.477c0.077,0.288-0.22,0.621-0.506,0.492c-1.162-0.399-2.914,0.041-4.62,0.653c-2.189,0.721-4.795,2.382-6.483,0.178c-0.137-0.204-0.277-0.407-0.356-0.64c0,0,0.898,0.035,0.898,0.035c0.143,0.246,0.372,0.445,0.595,0.594c0.452,0.277,1.002,0.367,1.521,0.229C233.948,89.602,236.802,87.889,239.344,88.091z" />
    <path fill="#E1CC68" stroke="#000000" stroke-width="0.2" d="M250.107,91.309c0.188-0.085,0.383-0.155,0.571-0.24c-0.192-0.404-0.271-0.698-0.442-1.097c-0.371-0.878-0.995-2.115-1.963-2.249c-1.074-0.149-2.045,0.895-2.188,2.217c-0.078,0.209,0.402,0.231,0.526,0.214c-0.001-0.055,0.011-0.127,0.019-0.184c0.105-0.799,0.808-1.594,1.611-1.429C249.249,88.866,249.711,90.398,250.107,91.309z M199.94,91.309c-0.188-0.085-0.383-0.155-0.571-0.24c0.192-0.404,0.271-0.698,0.442-1.097c0.371-0.878,0.995-2.115,1.963-2.249c1.074-0.149,2.045,0.895,2.188,2.217c0.078,0.209-0.402,0.231-0.526,0.214c0.001-0.055-0.011-0.127-0.019-0.184c-0.105-0.799-0.808-1.594-1.611-1.429C200.797,88.866,200.336,90.398,199.94,91.309z M215.994,89.354c-0.25-0.098-0.51-0.18-0.759-0.278c0.299-0.389,0.433-0.676,0.702-1.062c0.667-0.955,1.569-2.021,2.878-2.107c1.486-0.078,2.722,1.02,2.804,2.354c0.071,0.233-0.588,0.197-0.74,0.179c0.007-0.054-0.005-0.135-0.01-0.183c-0.07-0.803-0.967-1.646-2.077-1.534C217.52,86.915,216.662,88.358,215.994,89.354z M234.005,89.354c0.25-0.098,0.51-0.18,0.759-0.278c-0.299-0.389-0.433-0.676-0.702-1.062c-0.667-0.955-1.569-2.021-2.878-2.107c-1.486-0.078-2.722,1.02-2.804,2.354c-0.071,0.233,0.588,0.197,0.74,0.179c-0.007-0.054,0.005-0.135,0.01-0.183c0.07-0.803,0.967-1.646,2.077-1.534C232.479,86.915,233.337,88.358,234.005,89.354z" />
    <path fill="#E1CC68" stroke="#000000" stroke-width="0.2" d="M254.248,91.216c0.109-1.124-0.534-2.576-1.625-2.733c-0.72-0.131-1.666,0.321-2.704,0.783c0.162,0.19,0.2,0.645,0.393,0.688c1.534-0.666,2.613-1.223,3.272,0.328c0.453,1.052-0.313,2.607-1.504,2.41c-0.258-0.058-0.506-0.259-0.728-0.531c-0.13-0.091-0.212-0.44-0.355-0.41c-0.142,0.098-0.518,0.136-0.547,0.284c0.371,0.708,0.89,1.376,1.599,1.477C253.15,93.669,254.136,92.55,254.248,91.216z M246.287,90.977c1.044,0.225,2.289-0.258,3.373-0.739c-0.115-0.214-0.216-0.518-0.371-0.684c-1.263,0.533-2.553,0.919-3.441,0.41c-0.251-0.136-0.428,0.212-0.395,0.441C245.5,90.833,245.976,90.865,246.287,90.977z M195.799,91.216c-0.109-1.124,0.534-2.576,1.625-2.733c0.72-0.131,1.666,0.321,2.704,0.783c-0.162,0.19-0.2,0.645-0.393,0.688c-1.534-0.666-2.613-1.223-3.272,0.328c-0.453,1.052,0.313,2.607,1.504,2.41c0.258-0.058,0.506-0.259,0.728-0.531c0.13-0.091,0.212-0.44,0.355-0.41c0.142,0.098,0.518,0.136,0.547,0.284c-0.371,0.708-0.89,1.376-1.599,1.477C196.897,93.669,195.911,92.55,195.799,91.216z M203.76,90.977c-1.044,0.225-2.289-0.258-3.373-0.739c0.115-0.214,0.216-0.518,0.371-0.684c1.263,0.533,2.553,0.919,3.441,0.41c0.251-0.136,0.428,0.212,0.395,0.441C204.546,90.833,204.071,90.865,203.76,90.977z M210.337,88.981c0.004-1.332,1.041-2.504,2.468-2.611c0.997-0.082,2.251,0.433,3.629,0.963c-0.231,0.187-0.35,0.611-0.584,0.664c-1.287-0.481-2.353-0.887-3.039-0.822c-2.434,0.351-2.225,3.507,0.36,3.423c0.567-0.005,1.07-0.58,1.55-0.87c0.195,0.112,0.687,0.166,0.741,0.322c-0.571,0.679-1.333,1.308-2.314,1.365C211.628,91.493,210.384,90.353,210.337,88.981z M221.25,89.282c-1.452,0.151-3.085-0.405-4.548-0.965c0.175-0.204,0.346-0.505,0.569-0.657c1.68,0.617,3.411,1.088,4.672,0.642c0.285-0.117,0.576,0.181,0.5,0.466C222.286,89.239,221.649,89.181,221.25,89.282z M239.663,88.981c-0.004-1.332-1.041-2.504-2.468-2.611c-0.997-0.082-2.251,0.433-3.629,0.963c0.231,0.187,0.35,0.611,0.584,0.664c1.287-0.481,2.353-0.887,3.039-0.822c2.434,0.351,2.225,3.507-0.36,3.423c-0.567-0.005-1.07-0.58-1.55-0.87c-0.195,0.112-0.687,0.166-0.741,0.322c0.571,0.679,1.333,1.308,2.314,1.365C238.371,91.493,239.615,90.353,239.663,88.981z M228.749,89.282c1.452,0.151,3.085-0.405,4.548-0.965c-0.175-0.204-0.346-0.505-0.569-0.657c-1.68,0.617-3.411,1.088-4.672,0.642c-0.285-0.117-0.576,0.181-0.5,0.466C227.713,89.239,228.351,89.181,228.749,89.282z" />
    <path fill="#E1CC68" stroke="#000000" stroke-width="0.1769" d="M224.23,83.436c-12.336,0.159-26.608,2.069-31.914,3.767c-0.239,0.053-0.424,0.239-0.478,0.478c-0.053,0.239,0.027,0.504,0.212,0.663s0.451,0.212,0.69,0.106c5.04-1.618,19.923-3.714,32.285-3.714c12.389,0,27.271,2.096,32.312,3.714c0.239,0.08,0.504,0.053,0.69-0.106s0.265-0.424,0.212-0.663c-0.053-0.239-0.239-0.424-0.478-0.478c-5.306-1.698-19.604-3.581-31.94-3.767c-0.265,0-0.531,0-0.769,0C224.735,83.41,224.469,83.436,224.23,83.436L224.23,83.436z M224.549,91.925c-6.287,0-12.84,0.584-18.384,1.326c-5.81,0.769-10.452,1.698-12.734,2.573c-0.345,0.133-0.531,0.531-0.398,0.849c0.133,0.345,0.531,0.504,0.849,0.371c1.963-0.769,6.685-1.751,12.415-2.494c5.624-0.743,12.336-1.3,18.676-1.3s13.025,0.557,18.676,1.3c5.757,0.743,10.452,1.751,12.415,2.494c0.345,0.133,0.743-0.027,0.849-0.371c0.133-0.345-0.053-0.743-0.398-0.849c-2.255-0.875-6.924-1.804-12.734-2.573c-5.544-0.743-12.123-1.326-18.384-1.326H224.549z" />
    <path fill="#E1CC68" stroke="#000000" stroke-width="0.1769" d="M224.788,74.762c-0.292,0.027-0.531,1.565-0.584,1.857c-0.796,3.475-2.892,4.696-4.908,4.669c-2.016-0.027-4.032-1.406-4.563-3.741c-0.08-0.318-0.345-0.531-0.663-0.531s-0.584,0.239-0.637,0.557c-0.584,2.918-1.99,4.032-3.475,4.218c-1.486,0.186-3.263-0.69-4.51-2.308c-0.159-0.212-0.451-0.318-0.716-0.239c-0.265,0.08-0.451,0.318-0.478,0.61c-0.106,1.91-1.141,2.785-2.414,2.945c-1.273,0.159-2.892-0.504-3.979-2.096c-0.159-0.239-0.478-0.345-0.769-0.265c-0.292,0.106-0.451,0.371-0.451,0.69c0.133,1.671-0.61,2.706-1.539,3.13c-0.531,0.239-1.167,0.371-1.724,0.106c-0.902-0.424-1.486-1.539-2.016-2.441l-0.318,0.265c0.796,0.982,1.194,1.99,1.406,3.183c1.035,0.531,2.228,0.531,3.21,0.08c1.035-0.478,1.83-1.486,2.149-2.785c1.22,1.114,2.759,1.618,4.165,1.433c1.486-0.186,2.759-1.194,3.316-2.839c1.379,1.3,3.104,2.043,4.802,1.857c1.671-0.186,3.157-1.379,4.059-3.475c1.114,1.857,3.077,2.971,5.12,2.998c2.255,0.027,4.536-1.326,5.73-4.191c1.167,2.865,3.475,4.218,5.73,4.191c2.043-0.027,4.032-1.141,5.12-2.998c0.875,2.122,2.388,3.29,4.059,3.475c1.698,0.212,3.422-0.531,4.802-1.857c0.531,1.618,1.83,2.653,3.316,2.839c1.406,0.186,2.945-0.318,4.165-1.433c0.318,1.3,1.114,2.308,2.149,2.785c0.982,0.451,2.175,0.451,3.21-0.08c0.08-1.22,0.743-2.202,1.406-3.21l-0.318-0.265c-0.531,0.849-1.114,1.99-2.043,2.441c-0.451,0.212-1.167,0.106-1.698-0.106c-0.955-0.371-1.671-1.459-1.539-3.13c0.027-0.292-0.159-0.584-0.451-0.69c-0.292-0.106-0.584,0-0.769,0.265c-1.088,1.592-2.679,2.255-3.979,2.096c-1.273-0.159-2.308-1.008-2.414-2.945c-0.027-0.292-0.212-0.531-0.478-0.61c-0.265-0.08-0.557,0.027-0.716,0.239c-1.247,1.618-3.024,2.494-4.51,2.308c-1.486-0.186-2.865-1.3-3.475-4.218c-0.053-0.318-0.318-0.531-0.637-0.557c-0.318,0-0.584,0.212-0.663,0.531c-0.557,2.308-2.547,3.714-4.563,3.741c-2.016,0.027-4.112-1.247-4.908-4.722c-0.053-0.292-0.292-1.777-0.584-1.804L224.788,74.762L224.788,74.762z" />
    <path fill="#E1CC68" stroke="#000000" stroke-width="0.1769" d="M221.074,66.299c0-1.114,0.424-1.671,0.663-2.043c0.212-0.318,0.663-0.637,1.273-0.637c0.557,0,1.379,0.318,1.99,0.318s1.459-0.318,1.99-0.318c0.61,0,1.061,0.318,1.273,0.637c0.239,0.371,0.663,0.928,0.663,2.043c0,1.114-0.398,2.016-0.849,2.626c-0.451,0.584-0.875,0.902-1.22,1.088c-0.318,0.159-1.273,0.08-1.857,0.08s-1.539,0.053-1.83-0.08c-0.345-0.186-0.769-0.478-1.22-1.088C221.472,68.315,221.074,67.413,221.074,66.299z M230.199,68.713c1.008,0,1.512,0.424,1.857,0.663c0.292,0.212,0.584,0.663,0.584,1.273c0,0.557-0.292,1.379-0.292,1.99s0.292,1.459,0.292,1.99c0,0.61-0.292,1.061-0.584,1.273c-0.345,0.239-0.849,0.663-1.857,0.663c-1.008,0-1.83-0.398-2.361-0.849c-0.531-0.451-0.822-0.875-0.982-1.22c-0.133-0.318-0.08-1.273-0.08-1.857s-0.053-1.539,0.08-1.83c0.159-0.345,0.451-0.769,0.982-1.22C228.395,69.111,229.218,68.713,230.199,68.713L230.199,68.713z M219.8,68.713c-1.008,0-1.512,0.424-1.857,0.663c-0.292,0.212-0.584,0.663-0.584,1.273c0,0.557,0.292,1.379,0.292,1.99s-0.292,1.459-0.292,1.99c0,0.61,0.292,1.061,0.584,1.273c0.345,0.239,0.849,0.663,1.857,0.663c1.008,0,1.83-0.398,2.361-0.849c0.531-0.451,0.822-0.875,0.982-1.22c0.133-0.318,0.08-1.273,0.08-1.857s0.053-1.539-0.08-1.83c-0.159-0.345-0.451-0.769-0.982-1.22C221.604,69.111,220.782,68.713,219.8,68.713L219.8,68.713z" />
    <path fill="none" stroke="#000000" stroke-width="0.1769" stroke-linecap="round" stroke-linejoin="round" d="M224.894,65.477c0,1.698-0.292,3.528-1.194,4.563 M225.106,65.477c0,1.698,0.292,3.528,1.194,4.563 M228.369,65.132c0,0-0.424-1.008-1.035-1.008c-0.822,0-0.796,1.353-2.335,1.353s-1.512-1.353-2.335-1.353c-0.61,0-1.035,1.008-1.035,1.008 M219.031,72.533c1.539,0,3.183-0.292,4.138-1.194 M219.031,72.719c1.539,0,3.183,0.292,4.138,1.194 M218.739,76.008c0,0-0.902-0.424-0.902-1.035c0-0.822,1.22-0.796,1.22-2.335s-1.22-1.512-1.22-2.334c0-0.61,0.902-1.035,0.902-1.035 M230.969,72.533c-1.539,0-3.183-0.292-4.138-1.194 M230.969,72.719c-1.539,0-3.183,0.292-4.138,1.194 M231.261,76.008c0,0,0.902-0.424,0.902-1.035c0-0.822-1.22-0.796-1.22-2.335s1.22-1.512,1.22-2.334c0-0.61-0.902-1.035-0.902-1.035" />
    <path fill="#E1CC68" stroke="#000000" stroke-width="0.15" d="M228.183,72.56c0,1.751-1.433,3.183-3.183,3.183s-3.183-1.433-3.183-3.183c0-1.751,1.433-3.183,3.183-3.183S228.183,70.809,228.183,72.56z" />
    <path fill="#FFFFFF" stroke="#000000" stroke-width="0.2144" d="M227.529,72.558c0,1.401-1.126,2.527-2.524,2.527c-1.399,0-2.524-1.126-2.524-2.527s1.126-2.527,2.524-2.527S227.529,71.18,227.529,72.558z" />
    <path fill="#E1CC68" stroke="#000000" stroke-width="0.1769" d="M259.534,80.712c-2.071,1.653-2.611,2.977-3.841,2.512C256.666,81.325,257.417,81.812,259.534,80.712z M259.534,80.712 M260.76,77.574l0.133-0.08c0.01-0.392-0.002-0.737-0.026-1.046C260.818,76.797,260.78,77.171,260.76,77.574z M261.025,72.135c-1.212,1.772-0.335,2.069-0.159,4.313C261.218,73.95,262.143,72.787,261.025,72.135z M190.465,80.712 M190.465,80.712c2.071,1.653,2.611,2.977,3.841,2.512C193.334,81.325,192.583,81.812,190.465,80.712z M189.107,77.494l0.133,0.08c-0.02-0.403-0.058-0.777-0.107-1.126C189.109,76.757,189.097,77.102,189.107,77.494z M188.974,72.135c-1.117,0.652-0.192,1.815,0.159,4.313C189.309,74.205,190.187,73.907,188.974,72.135z" />
    <path fill="#E1CC68" stroke="#000000" stroke-width="0.1769" d="M264.103,71.26c-0.212,0-0.451,0.106-0.61,0.212c-0.318,0.239-0.849,0.584-1.459,1.486c-0.61,0.928-0.902,1.804-1.008,2.467c-0.106,0.637-0.053,1.061,0.027,1.326c0.08,0.239,0.584,0.478,0.875,0.69c0.159,0.106,0.345,0.239,0.504,0.345l0,0c0.053-0.027,0.08-0.08,0.106-0.133l0.027-0.027l0.027-0.027c0,0,0.159-0.08,0.398-0.292c0.239-0.212,0.557-0.584,0.875-1.114c0.504-0.902,0.982-1.963,1.194-2.335c0.424,0.159,0.982-0.796,1.433-0.584c0-0.849-0.928-0.769-1.22-0.982c-0.292-0.239-0.557-0.743-0.822-0.928C264.368,71.286,264.235,71.26,264.103,71.26L264.103,71.26z M185.897,71.26c0.212,0,0.451,0.106,0.61,0.212c0.318,0.239,0.849,0.584,1.459,1.486c0.61,0.928,0.902,1.804,1.008,2.467c0.106,0.637,0.053,1.061-0.027,1.326c-0.08,0.239-0.584,0.478-0.875,0.69c-0.159,0.106-0.345,0.239-0.504,0.345l0,0c-0.053-0.027-0.08-0.08-0.106-0.133l-0.027-0.027l-0.027-0.027c0,0-0.159-0.08-0.398-0.292c-0.239-0.212-0.557-0.584-0.875-1.114c-0.504-0.902-0.982-1.963-1.194-2.335c-0.424,0.159-0.982-0.796-1.433-0.584c0-0.849,0.928-0.769,1.22-0.982c0.292-0.239,0.557-0.743,0.822-0.928C185.632,71.286,185.764,71.26,185.897,71.26L185.897,71.26z M260.097,74.576c-0.504-0.318-0.982-0.133-1.3-0.053c-0.265,0.08-0.637,0.371-0.982,0.875c-0.292,0.451-0.61,1.247-0.928,1.751c-0.345,0.531-0.929,1.114-1.247,1.592c-0.318,0.504-0.424,0.982-0.398,1.247c0.027,0.318,0.053,0.849,0.557,1.167c0.504,0.318,1.141,0.265,1.645,0.053c0.504-0.186,0.902-0.451,1.167-0.716c0.239-0.212,0.716-1.035,1.061-1.512c0.318-0.504,0.875-1.273,0.955-1.565c0.106-0.345,0.212-0.796,0.159-1.353C260.787,75.504,260.574,74.894,260.097,74.576L260.097,74.576z M189.903,74.576c0.504-0.318,0.982-0.133,1.3-0.053c0.265,0.08,0.637,0.371,0.982,0.875c0.292,0.451,0.61,1.247,0.928,1.751c0.345,0.531,0.928,1.114,1.247,1.592c0.318,0.504,0.424,0.982,0.398,1.247c-0.027,0.318-0.053,0.849-0.557,1.167c-0.504,0.318-1.141,0.265-1.645,0.053c-0.504-0.186-0.902-0.451-1.167-0.716c-0.239-0.212-0.716-1.035-1.061-1.512c-0.318-0.504-0.875-1.273-0.955-1.565c-0.106-0.345-0.212-0.796-0.159-1.353C189.213,75.504,189.425,74.894,189.903,74.576L189.903,74.576z" />
    <path fill="none" stroke="#000000" stroke-width="0.1769" stroke-linecap="round" stroke-linejoin="round" d="M264.952,73.833c-1.141-0.478-0.371-1.751-0.769-2.043c-0.318-0.212-1.061,0.504-1.061,0.504 M257.815,77.68c0.769,0.504,1.751,0.796,2.732,0.371 M257.709,77.839c0.769,0.504,1.459,1.273,1.433,2.361 M185.048,73.833c1.141-0.478,0.371-1.751,0.769-2.043c0.318-0.212,1.061,0.504,1.061,0.504 M255.72,80.439c0,0-0.212-0.663,0.106-1.167c0.451-0.69,1.035-0.265,1.883-1.565c0.849-1.3,0.212-1.645,0.663-2.361c0.345-0.504,1.035-0.584,1.035-0.584 M192.184,77.68c-0.769,0.504-1.751,0.796-2.732,0.371 M192.29,77.839c-0.769,0.504-1.459,1.273-1.433,2.361 M194.28,80.439c0,0,0.212-0.663-0.106-1.167c-0.451-0.69-1.035-0.265-1.884-1.565s-0.212-1.645-0.663-2.361c-0.345-0.504-1.035-0.584-1.035-0.584" />
    <path fill="#E1CC68" stroke="#000000" stroke-width="0.1769" d="M261.901,76.725c-0.743,0-1.777,0.769-2.547,1.963c-0.955,1.459-1.141,3.024-0.451,3.475c0.027,0.027,0.053,0.053,0.106,0.053c0.398,0,0.531-0.424,0.371-0.743l2.759-3.608c0.292,0.027,0.504-0.08,0.584-0.318c-0.053-0.292-0.186-0.557-0.398-0.69C262.219,76.751,262.06,76.725,261.901,76.725L261.901,76.725z M188.099,76.725c0.743,0,1.777,0.769,2.547,1.963c0.955,1.459,1.141,3.024,0.451,3.475c-0.027,0.027-0.053,0.053-0.106,0.053c-0.398,0-0.531-0.424-0.371-0.743l-2.759-3.608c-0.292,0.027-0.504-0.08-0.584-0.318c0.053-0.292,0.186-0.557,0.398-0.69C187.78,76.751,187.94,76.725,188.099,76.725L188.099,76.725z" />
    <path fill="#FFFFFF" stroke="#000000" stroke-width="0.1769" d="M188.291,77.469c0.531,0.027,1.3,0.61,1.884,1.512c0.716,1.114,0.822,2.281,0.318,2.6c-1.937,0.212-3.104-2.175-2.785-3.661c0.053-0.159,0.133-0.292,0.239-0.371C188.079,77.496,188.185,77.469,188.291,77.469L188.291,77.469z M261.709,77.469c-0.531,0.027-1.3,0.61-1.884,1.512c-0.716,1.114-0.822,2.281-0.318,2.6c1.937,0.212,3.104-2.175,2.785-3.661c-0.053-0.159-0.133-0.292-0.239-0.371C261.921,77.496,261.815,77.469,261.709,77.469L261.709,77.469z M215.462,74.793c0,0.955-0.776,1.731-1.731,1.731c-0.955,0-1.731-0.776-1.731-1.731c0-0.955,0.776-1.731,1.731-1.731C214.685,73.062,215.462,73.838,215.462,74.793z M197.983,77.933c0,0.955-0.776,1.731-1.731,1.731s-1.731-0.776-1.731-1.731c0-0.955,0.776-1.731,1.731-1.731S197.983,76.978,197.983,77.933z M255.481,77.945c0,0.955-0.769,1.751-1.751,1.751c-0.955,0-1.751-0.769-1.751-1.751c0-0.982,0.769-1.751,1.751-1.751C254.712,76.194,255.481,76.963,255.481,77.945z M238.025,74.788c0,0.955-0.769,1.751-1.751,1.751s-1.751-0.769-1.751-1.751c0-0.955,0.769-1.751,1.751-1.751S238.025,73.833,238.025,74.788z" />
    <path fill="#FFFFFF" stroke="#000000" stroke-width="0.1367" d="M252.38,73.443c0,0.656,0.533,1.189,1.189,1.189c0.656,0,1.19-0.533,1.19-1.189s-0.533-1.189-1.19-1.189C252.913,72.254,252.38,72.787,252.38,73.443z M205.541,78.159c0,0.656-0.533,1.189-1.189,1.189c-0.656,0-1.189-0.533-1.189-1.189s0.533-1.189,1.189-1.189C205.008,76.969,205.541,77.502,205.541,78.159z M201.769,65.207c0,0.656-0.533,1.189-1.189,1.189c-0.656,0-1.189-0.533-1.189-1.189c0-0.656,0.533-1.19,1.189-1.19C201.236,64.018,201.769,64.551,201.769,65.207z M210.068,69.671c0,0.656-0.533,1.189-1.189,1.189c-0.656,0-1.189-0.533-1.189-1.189c0-0.656,0.533-1.189,1.189-1.189C209.535,68.482,210.068,69.015,210.068,69.671z M244.458,78.159c0,0.656,0.533,1.189,1.189,1.189s1.189-0.533,1.189-1.189s-0.533-1.189-1.189-1.189S244.458,77.502,244.458,78.159z M248.23,65.207c0,0.656,0.533,1.189,1.189,1.189c0.656,0,1.19-0.533,1.19-1.189c0-0.656-0.533-1.19-1.19-1.19C248.764,64.018,248.23,64.551,248.23,65.207z M239.932,69.671c0,0.656,0.533,1.189,1.189,1.189s1.189-0.533,1.189-1.189c0-0.656-0.533-1.189-1.189-1.189S239.932,69.015,239.932,69.671z M197.62,73.443c0,0.656-0.533,1.189-1.189,1.189c-0.656,0-1.19-0.533-1.19-1.189s0.533-1.189,1.19-1.189C197.086,72.254,197.62,72.787,197.62,73.443z" />
    <path fill="#E1CC68" stroke="#000000" stroke-width="0.1769" d="M198.418,67.227c0.796,1.035,1.565,2.069,2.175,3.236c-1.326,0.133-2.653,0.053-3.979-0.08c0.557,1.83,1.088,3.687,1.645,5.518c1.035-0.822,2.122-1.618,3.29-2.228c0.133,1.326,0.053,2.653-0.08,3.979c1.857-0.557,3.687-1.088,5.544-1.645c-0.822-1.035-1.618-2.122-2.228-3.29c1.326-0.133,2.653-0.053,3.979,0.08c-0.557-1.83-1.088-3.687-1.645-5.518c-1.035,0.822-2.122,1.618-3.29,2.228c-0.133-1.326-0.053-2.653,0.08-3.979c-1.83,0.557-3.687,1.088-5.518,1.645C198.392,67.174,198.418,67.201,198.418,67.227z M251.581,67.281c-0.796,1.035-1.565,2.069-2.175,3.236c1.326,0.133,2.653,0.053,3.979-0.08c-0.557,1.83-1.088,3.687-1.645,5.518c-1.035-0.822-2.122-1.618-3.29-2.228c-0.133,1.326-0.053,2.653,0.08,3.979c-1.857-0.557-3.687-1.088-5.544-1.645c0.822-1.035,1.618-2.122,2.228-3.29c-1.326-0.133-2.653-0.053-3.979,0.08c0.557-1.83,1.088-3.687,1.645-5.518c1.035,0.822,2.122,1.618,3.29,2.228c0.133-1.326,0.053-2.653-0.08-3.979c1.83,0.557,3.687,1.088,5.518,1.645C251.608,67.227,251.608,67.254,251.581,67.281L251.581,67.281z" />
    <path fill="#CE2B37" stroke="#000000" stroke-width="0.1769" d="M207.889,72.029c-0.928-0.08-2.494-0.133-4.085,0.133c0.637,1.459,1.539,2.732,2.122,3.475l-3.687,1.088c0.08-0.928,0.133-2.494-0.133-4.085c-1.459,0.637-2.732,1.539-3.502,2.122l-1.088-3.687c0.928,0.08,2.494,0.133,4.085-0.133c-0.637-1.459-1.539-2.732-2.122-3.475l3.687-1.088c-0.08,0.928-0.133,2.494,0.133,4.085c1.459-0.637,2.732-1.539,3.502-2.122L207.889,72.029z M242.111,72.082c0.928-0.08,2.494-0.133,4.085,0.133c-0.637,1.459-1.539,2.732-2.122,3.475l3.687,1.088c-0.08-0.928-0.133-2.494,0.133-4.085c1.459,0.637,2.732,1.539,3.502,2.122l1.088-3.687c-0.928,0.08-2.494,0.133-4.085-0.133c0.637-1.459,1.539-2.732,2.122-3.475l-3.687-1.088c0.08,0.928,0.133,2.494-0.133,4.085c-1.459-0.637-2.732-1.539-3.502-2.122L242.111,72.082z" />
    <path fill="#FFFFFF" stroke="#000000" stroke-width="0.1769" d="M202.026,67.519l1.035,3.369l2.865-0.875l0.318,1.061l-2.865,0.875l1.008,3.343l-1.061,0.318l-1.008-3.343l-2.865,0.875l-0.318-1.061L202,71.207l-1.035-3.369L202.026,67.519z M247.973,67.572l-1.035,3.369l-2.865-0.875l-0.318,1.061l2.865,0.875l-1.008,3.343l1.061,0.318l1.008-3.343l2.865,0.875l0.318-1.061L248,71.26l1.035-3.369L247.973,67.572z" />
    <path fill="#007CC3" stroke="#000000" stroke-width="0.2" d="M226.773,88.353c0,0.974-0.8,1.774-1.774,1.774s-1.774-0.8-1.774-1.774c0-0.974,0.8-1.774,1.774-1.774S226.773,87.344,226.773,88.353z M208.777,89.269c0.123,0.966-0.537,1.857-1.465,1.975c-0.927,0.118-1.791-0.578-1.914-1.544c-0.123-0.966,0.537-1.857,1.465-1.975C207.79,87.607,208.649,88.268,208.777,89.269z M241.223,89.269c-0.123,0.966,0.537,1.857,1.465,1.975c0.927,0.118,1.791-0.578,1.914-1.544c0.123-0.966-0.537-1.857-1.465-1.975C242.209,87.607,241.351,88.268,241.223,89.269z M194.777,91.841c0.116,0.967-0.327,1.825-0.981,1.904c-0.654,0.078-1.286-0.652-1.402-1.619c-0.116-0.967,0.327-1.825,0.981-1.904C194.025,90.109,194.657,90.839,194.777,91.841z M255.222,91.841c-0.116,0.967,0.327,1.825,0.981,1.904c0.654,0.078,1.286-0.652,1.402-1.619c0.116-0.967-0.327-1.825-0.981-1.904C255.974,90.109,255.342,90.839,255.222,91.841z" />
    <path fill="#FFFFFF" stroke="#000000" stroke-width="0.2" d="M225.591,85.884c0,0.313-0.278,0.591-0.591,0.591s-0.591-0.278-0.591-0.591s0.278-0.591,0.591-0.591S225.591,85.571,225.591,85.884z M225.591,90.787c0,0.313-0.278,0.591-0.591,0.591s-0.591-0.278-0.591-0.591c0-0.313,0.278-0.591,0.591-0.591S225.591,90.44,225.591,90.787z M222.565,87.762c0.313,0,0.591,0.278,0.591,0.591c0,0.313-0.278,0.591-0.591,0.591c-0.313,0-0.591-0.278-0.591-0.591C221.974,88.04,222.252,87.762,222.565,87.762z M227.434,87.762c0.313,0,0.591,0.278,0.591,0.591c0,0.313-0.278,0.591-0.591,0.591c-0.313,0-0.591-0.278-0.591-0.591C226.843,88.04,227.121,87.762,227.434,87.762z M256.31,89.484c-0.037,0.311,0.117,0.609,0.327,0.635s0.43-0.229,0.467-0.54s-0.117-0.609-0.327-0.635S256.347,89.173,256.31,89.484z M255.728,94.353c-0.037,0.311,0.117,0.609,0.327,0.635c0.21,0.025,0.43-0.229,0.467-0.54c0.037-0.311-0.117-0.609-0.327-0.635C255.985,93.788,255.769,94.008,255.728,94.353z M254.849,91.201c-0.21-0.025-0.43,0.229-0.467,0.54c-0.037,0.311,0.117,0.609,0.327,0.635c0.21,0.025,0.43-0.229,0.467-0.54C255.217,91.49,255.059,91.226,254.849,91.201z M193.69,89.484c0.037,0.311-0.117,0.609-0.327,0.635c-0.21,0.025-0.43-0.229-0.467-0.54s0.117-0.609,0.327-0.635S193.653,89.173,193.69,89.484z M194.272,94.353c0.037,0.311-0.117,0.609-0.327,0.635c-0.21,0.025-0.43-0.229-0.467-0.54c-0.037-0.311,0.117-0.609,0.327-0.635C194.015,93.788,194.231,94.008,194.272,94.353z M195.151,91.201c0.21-0.025,0.43,0.229,0.467,0.54c0.037,0.311-0.117,0.609-0.327,0.635c-0.21,0.025-0.43-0.229-0.467-0.54C194.783,91.49,194.94,91.226,195.151,91.201z M207.338,86.963c0.04,0.31-0.19,0.62-0.488,0.658s-0.598-0.204-0.638-0.515c-0.04-0.31,0.19-0.62,0.488-0.658C207.003,86.445,207.298,86.653,207.338,86.963z M207.958,91.827c0.04,0.31-0.19,0.62-0.488,0.658c-0.298,0.038-0.598-0.204-0.638-0.515c-0.04-0.31,0.19-0.62,0.488-0.658C207.619,91.275,207.914,91.482,207.958,91.827z M204.694,89.194c0.298-0.038,0.598,0.204,0.638,0.515c0.04,0.31-0.19,0.62-0.488,0.658c-0.298,0.038-0.598-0.204-0.638-0.515C204.161,89.507,204.396,89.232,204.694,89.194z M209.331,88.602c0.298-0.038,0.598,0.204,0.638,0.515c0.04,0.31-0.19,0.62-0.488,0.658c-0.298,0.038-0.598-0.204-0.638-0.515S209.033,88.64,209.331,88.602z M242.662,86.963c-0.04,0.31,0.19,0.62,0.488,0.658c0.298,0.038,0.598-0.204,0.638-0.515c0.04-0.31-0.19-0.62-0.488-0.658C243.001,86.411,242.701,86.653,242.662,86.963z M242.041,91.827c-0.04,0.31,0.19,0.62,0.488,0.658c0.298,0.038,0.598-0.204,0.638-0.515c0.04-0.31-0.19-0.62-0.488-0.658C242.381,91.275,242.085,91.482,242.041,91.827z M245.306,89.194c-0.298-0.038-0.598,0.204-0.638,0.515c-0.04,0.31,0.19,0.62,0.488,0.658c0.298,0.038,0.598-0.204,0.638-0.515C245.834,89.542,245.604,89.232,245.306,89.194z M240.668,88.602c-0.298-0.038-0.598,0.204-0.638,0.515c-0.04,0.31,0.19,0.62,0.488,0.658c0.298,0.038,0.598-0.204,0.638-0.515C241.196,88.95,240.966,88.64,240.668,88.602z" />
    <path fill="#5A6E42" stroke="#000000" stroke-width="0.2" d="M224.304,85.918c0.174,0.278,0.07,0.626-0.209,0.8s-0.626,0.07-0.8-0.209c-0.174-0.278-0.07-0.626,0.209-0.8C223.783,85.536,224.13,85.64,224.304,85.918z M226.739,90.161c0.174,0.278,0.07,0.626-0.209,0.8c-0.278,0.174-0.626,0.07-0.8-0.209s-0.07-0.626,0.209-0.8C226.217,89.779,226.565,89.883,226.739,90.161z M222.6,89.048c0.278-0.174,0.626-0.07,0.8,0.209c0.174,0.278,0.07,0.626-0.209,0.8c-0.278,0.174-0.626,0.07-0.8-0.209C222.218,89.57,222.322,89.222,222.6,89.048z M226.808,86.614c0.278-0.174,0.626-0.07,0.8,0.209s0.07,0.626-0.209,0.8s-0.626,0.07-0.8-0.209C226.426,87.136,226.53,86.788,226.808,86.614z M206.117,87.154c0.201,0.255,0.145,0.613-0.098,0.819s-0.587,0.145-0.788-0.11s-0.145-0.613,0.098-0.819S205.916,86.899,206.117,87.154z M208.972,91.067c0.201,0.255,0.145,0.613-0.098,0.819c-0.243,0.206-0.587,0.145-0.788-0.11s-0.145-0.613,0.098-0.819S208.771,90.812,208.972,91.067z M204.89,90.466c0.243-0.206,0.587-0.145,0.788,0.11s0.145,0.613-0.098,0.819c-0.243,0.206-0.587,0.145-0.788-0.11C204.591,91.03,204.647,90.672,204.89,90.466z M208.59,87.54c0.243-0.206,0.587-0.145,0.788,0.11s0.145,0.613-0.098,0.819s-0.587,0.145-0.788-0.11C208.291,88.104,208.347,87.746,208.59,87.54z M194.968,93.639c0.15,0.262,0.121,0.616-0.045,0.811c-0.166,0.195-0.412,0.119-0.562-0.143c-0.15-0.262-0.121-0.616,0.045-0.811C194.573,93.301,194.819,93.377,194.968,93.639z M194.594,90.111c0.166-0.195,0.412-0.119,0.562,0.143c0.15,0.262,0.121,0.616-0.045,0.811s-0.412,0.119-0.562-0.143C194.399,90.66,194.428,90.306,194.594,90.111z M255.031,93.639c-0.15,0.262-0.121,0.616,0.045,0.811c0.166,0.195,0.412,0.119,0.562-0.143c0.15-0.262,0.121-0.616-0.045-0.811C255.427,93.301,255.181,93.377,255.031,93.639z M255.406,90.111c-0.166-0.195-0.412-0.119-0.562,0.143c-0.15,0.262-0.121,0.616,0.045,0.811s0.412,0.119,0.562-0.143C255.601,90.66,255.572,90.306,255.406,90.111z M244.855,87.979c-0.287,0.139-0.43,0.471-0.3,0.768s0.448,0.443,0.735,0.304c0.287-0.139,0.43-0.471,0.3-0.768C245.493,87.991,245.142,87.841,244.855,87.979z M240.539,89.883c-0.287,0.139-0.43,0.471-0.3,0.768c0.13,0.297,0.448,0.443,0.735,0.304c0.287-0.139,0.43-0.471,0.3-0.768C241.144,89.89,240.826,89.744,240.539,89.883z M244.34,91.49c-0.13-0.297-0.448-0.443-0.735-0.304s-0.43,0.471-0.3,0.768c0.13,0.297,0.448,0.443,0.735,0.304C244.327,92.119,244.437,91.782,244.34,91.49z M242.546,86.997c-0.119-0.298-0.449-0.438-0.737-0.311c-0.288,0.127-0.425,0.472-0.306,0.77c0.119,0.298,0.449,0.438,0.737,0.311C242.527,87.641,242.665,87.296,242.546,86.997z" />
    <path fill="#CE2B37" stroke="#000000" stroke-width="0.2" d="M223.191,86.614c0.278,0.174,0.383,0.522,0.209,0.8c-0.174,0.278-0.522,0.383-0.8,0.209s-0.383-0.522-0.209-0.8S222.913,86.44,223.191,86.614z M227.399,89.048c0.278,0.174,0.383,0.522,0.209,0.8c-0.174,0.278-0.522,0.383-0.8,0.209c-0.278-0.174-0.383-0.522-0.209-0.8C226.773,88.979,227.121,88.875,227.399,89.048z M223.261,90.161c0.174-0.278,0.522-0.383,0.8-0.209c0.278,0.174,0.383,0.522,0.209,0.8c-0.174,0.278-0.522,0.383-0.8,0.209C223.191,90.787,223.122,90.44,223.261,90.161z M225.706,85.932c0.162-0.281,0.522-0.377,0.803-0.215c0.281,0.162,0.377,0.522,0.215,0.803c-0.162,0.281-0.522,0.377-0.803,0.215C225.641,86.573,225.544,86.213,225.706,85.932z M205.145,87.979c0.287,0.139,0.43,0.471,0.3,0.768s-0.448,0.443-0.735,0.304s-0.43-0.471-0.3-0.768C204.507,87.991,204.858,87.841,205.145,87.979z M209.461,89.883c0.287,0.139,0.43,0.471,0.3,0.768c-0.13,0.297-0.448,0.443-0.735,0.304s-0.43-0.471-0.3-0.768C208.856,89.89,209.174,89.744,209.461,89.883z M205.66,91.49c0.13-0.297,0.448-0.443,0.735-0.304s0.43,0.471,0.3,0.768c-0.13,0.297-0.448,0.443-0.735,0.304C205.673,92.119,205.563,91.782,205.66,91.49z M207.454,86.997c0.119-0.298,0.449-0.438,0.737-0.311s0.425,0.472,0.306,0.77c-0.119,0.298-0.449,0.438-0.737,0.311S207.335,87.296,207.454,86.997z M195.28,92.481c0.208,0.15,0.319,0.487,0.235,0.777s-0.305,0.422-0.512,0.271c-0.208-0.15-0.319-0.487-0.235-0.777S195.073,92.331,195.28,92.481z M193.773,89.523c0.076-0.292,0.306-0.416,0.514-0.278c0.208,0.138,0.315,0.488,0.24,0.78s-0.306,0.416-0.514,0.278C193.805,90.164,193.697,89.815,193.773,89.523z M243.883,87.154c-0.201,0.255-0.145,0.613,0.098,0.819s0.587,0.145,0.788-0.11c0.201-0.255,0.145-0.613-0.098-0.819C244.424,86.872,244.084,86.899,243.883,87.154z M241.027,91.067c-0.201,0.255-0.145,0.613,0.098,0.819c0.243,0.206,0.587,0.145,0.788-0.11c0.201-0.255,0.145-0.613-0.098-0.819S241.228,90.812,241.027,91.067z M245.11,90.466c-0.243-0.206-0.587-0.145-0.788,0.11c-0.201,0.255-0.145,0.613,0.098,0.819c0.243,0.206,0.587,0.145,0.788-0.11C245.408,91.03,245.353,90.672,245.11,90.466z M241.41,87.54c-0.243-0.206-0.587-0.145-0.788,0.11c-0.201,0.255-0.145,0.613,0.098,0.819s0.587,0.145,0.788-0.11C241.708,88.104,241.653,87.746,241.41,87.54z M256.227,89.523c-0.076-0.292-0.306-0.416-0.514-0.278c-0.208,0.138-0.315,0.488-0.24,0.78s0.306,0.416,0.514,0.278C256.195,90.164,256.302,89.815,256.227,89.523z M254.719,92.481c-0.208,0.15-0.319,0.487-0.235,0.777s0.305,0.422,0.512,0.271c0.208-0.15,0.319-0.487,0.235-0.777S254.927,92.331,254.719,92.481z" />
  </g>
</svg>
