<svg xmlns="http://www.w3.org/2000/svg" width="450px" height="300px" viewBox="0 0 450 300">
  <path fill="#006D21" d="M0,0h450v300H0V0z" />
  <path fill="#FFFFFF" d="M0,100h450v200H0V100z" />
  <path fill="#DF0000" d="M0,200h450v100H0V200z" />
  <path fill="#FFFFFF" d="M214.047,48.629L214.047,48.629c-1.824-0.757-1.767-3.493-1.667-3.602c-0.077-0.579,0.016-2.104,1.353-2.109c0.245,0.063,0.463,0.146,0.599,0.325c0.089,0.196,0.157,0.677,0.157,0.974c0,0.287,0.192,0.351,0.346,0.519c0.259,0.165,0.187,0.13,0.506,0.13c0.286-0.057,0.432-0.196,0.475-0.584c0-0.331,0.11-0.617,0.189-0.909c0.187-0.287,0.182-0.376,0.523-0.389c0.28,0,0.379,0.028,0.533,0.13c0.154,0.22,0.41,0.594,0.41,0.941c-0.032,1.091,0.75,1.212,0.955,1.006c0.356-0.198,0.086-0.839,0.183-1.232c0.309-1.202,1.673-1.489,2.173-0.325c0.035,0.32,0.124,1.501,0.124,1.85C222.324,49.125,216.496,49.797,214.047,48.629z M193.074,38.769c2.858,1.183,4.678-4.253,5.848-10.21c0.8-1.672,1.405-1.85,1.816-0.991c-0.106,7.921,0.569,9.675,2.605,12.079c4.543,3.505,8.3,0.448,8.595,0.152c0.295-0.295,3.537-3.537,3.537-3.537c0.787-0.828,1.835-0.877,2.947-0.147c1.081,0.982,0.929,2.679,3.242,3.856c1.947,0.779,6.11,0.18,7.074-1.498c1.298-2.224,1.609-2.988,2.21-3.832c0.926-1.233,2.506-0.685,2.506-0.295c-0.148,0.688-1.075,1.376-0.442,2.614c1.102,0.826,1.356,0.295,2.008,0.111c2.305-1.102,4.035-6.115,4.035-6.115c0.102-1.865-0.943-1.711-1.621-1.327c-0.884,0.541-0.942,0.713-1.826,1.254c-1.127,0.167-3.313,0.914-4.393-0.759c-1.103-2.012-1.118-4.819-1.962-6.848c0-0.148-1.464-3.196-0.101-3.391c0.688,0.128,2.155,0.516,2.388-0.719c0.721-1.204-1.544-4.614-3.095-6.337c-1.346-1.477-3.211-1.655-5.011-0.147c-1.261,1.16-1.079,2.456-1.327,3.684c-0.321,1.411-0.253,3.146,1.179,5.011c1.258,2.481,3.554,5.676,2.8,10.169c0,0-1.341,2.123-3.677,1.846c-0.974-0.212-2.553-0.626-3.397-6.856c-0.638-4.716,0.151-11.314-1.851-14.408c-0.723-1.868-1.251-3.671-3.013-0.477c-0.473,1.255-2.505,3.158-1.031,7.074c1.205,2.483,1.696,6.523,1.149,11.018c-0.835,1.277-1.021,1.71-2.116,2.987c-1.538,1.654-3.208,1.232-4.486,0.614c-1.195-0.805-2.13-1.222-2.675-3.779c0.098-4.077,0.326-10.751-0.419-12.167c-1.099-2.193-2.911-1.4-3.685-0.737c-3.719,3.4-5.556,9.137-6.679,13.706c-1.031,3.329-2.129,2.375-2.9,1.032c-1.879-1.76-2.006-15.527-4.274-13.264h0C183.4,28.519,189.113,39.875,193.074,38.769z M120.246,44.311c7.146,0.687,3.206-12.095,5.792-14.413c0.489-1.145,1.391-1.151,1.465,0.293v10.842c-0.065,3.526,2.252,4.564,4.053,5.293c1.874-0.145,3.125-0.082,3.859,1.741c0.293,6.251,0.586,12.503,0.879,18.754c0,0,4.346,1.244,4.553-10.549c0.208-6.924-1.383-12.72-0.451-14.067c0.033-1.324,1.723-1.403,2.896-0.758c1.868,1.318,2.7,2.945,5.603,2.294c4.417-1.217,7.072-3.365,7.138-6.757c-0.258-3.223-0.619-6.447-2.016-9.67c0.195-0.586-0.853-2.105-0.658-2.691c0.794,1.243,2.002,1.14,2.276,0c-0.752-2.477-1.918-4.851-3.809-5.878c-1.563-1.377-3.85-1.096-4.688,1.776c-0.388,3.309,1.193,7.24,3.602,10.445c0.512,1.252,1.231,3.333,0.914,5.207c-1.282,0.731-2.564,0.427-3.638-0.707c0,0-3.516-2.637-3.516-3.223c0.933-5.974,0.207-6.651-0.31-8.309c-0.361-2.288-1.447-3.022-2.327-4.585c-0.88-0.932-2.069-0.932-2.638,0c-1.554,2.694-0.829,8.477,0.293,11.068c0.811,2.383,2.051,3.878,1.465,3.878c-0.482,1.346-1.48,1.036-2.205-0.518c-1.036-3.212-1.243-8.004-1.243-10.162c-0.311-2.675-0.652-8.382-2.413-9.832c-1.074-1.463-2.666-0.749-3.223,0.586c-0.116,2.656-0.128,5.311,0.171,7.758c1.208,4.292,1.587,8.066,2.173,12.462c0.163,5.888-3.404,2.555-3.241-0.364c0.823-3.791,0.609-9.759-0.122-11.272c-0.58-1.513-1.264-1.886-2.673-1.637c-1.119-0.068-3.998,3.076-4.807,8.291c0,0-0.689,2.684-0.983,5.068c-0.395,2.693-2.168,4.594-3.412-0.379c-1.075-3.614-1.735-12.512-3.535-10.429h0C114.956,30.82,114.338,43.056,120.246,44.311z M191.642,18.145c0.69,0.995,1.386,0.905,2.779,0.176c0.8-0.589,1.07-0.98,1.34-1.969c0.332-1.657-1.752,0.786-2.017-1.058c-0.464-1.712,0.874-2.413,2.134-4.07c0.042-1.135,0.017-1.939-1.532-1.02c-1.088,0.73-3.254,2.974-3.32,5.559C190.959,17.221,190.687,17.217,191.642,18.145z M179.402,21.183c0.829-0.691-0.413-1.951-1.657-2.539c-1.278-1.554-0.899-4.04,0.724-5.594c1.278-0.656,3.022-0.95,5.026-0.052c1.208,1.346,1.951,4.3-0.363,5.646c-0.466,0.449-0.518,0.898,0,1.347c0.484,0.415,0.916,0.725,1.4,1.14c0,0-9.326,10.671-11.294,11.396h0c-0.206,0.328-6.631,0.346-6.889,0C165.14,32.286,175.587,25.258,179.402,21.183z M179.734,17.471c0.361,0.792,1.131,1.318,1.72,1.173c0.589-0.144,0.775-0.904,0.414-1.696c-0.361-0.792-1.131-1.318-1.72-1.173C179.558,15.919,179.373,16.678,179.734,17.471z M122.647,18.094c0.375,0.935-0.376,3.94,0.406,4.217c0.718,0.311,1.718-2.079,2.094-4.292c0.208-1.213,0.041-5.361-2.781-6.212c-1.157-0.262-2.782,0.387-2.251,1.869C119.844,14.383,122.229,16.781,122.647,18.094z M178.104,31.366c-2.165,1.171-3.005,4.663-1.657,6.695c1.259,1.79,3.248,1.127,3.514,1.127c2.122,0.265,3.38-3.977,3.38-3.977s0.067-1.193-2.453,1.061c-1.06,0.199-1.193-0.199-1.458-0.796c-0.221-1.105-0.177-2.209,0.331-3.314C180.137,31.101,179.319,30.637,178.104,31.366z M255.901,36.055L255.901,36.055c2.449,1.168,7.052,0.671,6.857-3.277c0-0.349-0.089-1.531-0.124-1.85c-0.5-1.164-1.864-0.877-2.173,0.325c-0.097,0.394,0.173,1.034-0.183,1.232c-0.205,0.206-0.987,0.085-0.955-1.006c0-0.347-0.256-0.721-0.41-0.941c-0.155-0.101-0.253-0.13-0.533-0.13c-0.341,0.014-0.336,0.103-0.523,0.389c-0.079,0.292-0.189,0.578-0.189,0.909c-0.043,0.388-0.189,0.527-0.475,0.584c-0.319,0-0.247,0.035-0.506-0.13c-0.154-0.168-0.346-0.232-0.346-0.519c0-0.297-0.067-0.778-0.157-0.974c-0.136-0.179-0.353-0.262-0.599-0.325c-1.337,0.005-1.43,1.53-1.353,2.109C254.134,32.562,254.077,35.298,255.901,36.055z M295.366,46.232c0.042-2.304,0.268-5.362,0.392-7.267c0.053-0.719,0.219-1.514,0.908-1.695c0.689-0.18,1.901,0.698,1.915-0.05c-0.125-1.466-0.429-3.637-1.257-4.658c-1.131-1.676-4.135-1.267-4.658,1.361c0.005,0.969,0.454,1.493,0.37,2.373c-0.125,0.503-0.65,0.843-1.885,0.251c0.193-0.178-0.806-1.576-0.806-1.576c-0.964-0.587-2.252,0.025-3.09,0.57c-0.461,0.838-0.796,2.267-0.274,3.733C288.365,41.829,293.103,46.19,295.366,46.232z M322.619,28.946c0.398,1.226-0.597,5.171,0.232,5.536c0.763,0.409,1.823-2.729,2.221-5.635c0.221-1.591-0.95-7.159-2.95-8.153c-1.226-0.343-2.95,0.508-2.387,2.453C319.448,24.074,322.176,27.223,322.619,28.946z M209.119,19.207c1.406-3.8,1.406-5.413,1.5-7.025c-0.438-2.456-2.094-2.379-3.188,0.346c-0.469,1.036-1.031,6.449-0.938,6.449C206.119,20.59,208.181,21.28,209.119,19.207z M300.162,68.045c0.763,0.409,2.761-2.073,2.69-5.167c0.221-1.591-0.575-7.441-2.575-8.435c-1.226-0.343-2.857,0.696-2.293,2.641c-0.287,0.928,1.411,4.171,1.853,5.894C300.235,64.204,299.334,67.68,300.162,68.045z M131.007,49.391c-5.879,0.107-14.499,7.721-14.726,11.939c6.203-2.979,12.302-5.855,18.608-8.938C133.872,50.874,134.834,49.498,131.007,49.391z M301.557,46.165c0,0-11.344,8.062-11.626,8.344c-1.125,1-0.562,4.531,0,4.125c0.813,0.313,12.219-7.438,12.001-8.344C302.463,50.321,302.713,45.759,301.557,46.165z M257.546,20.754c0.874,2.446-0.655,4.776,0.254,5.113c0.836,0.377,2-2.521,2.437-5.205c0.505-2.17-1.043-6.613-3.236-7.531c-1.345-0.317-3.236,0.469-2.618,2.266C254.067,16.254,257.06,19.162,257.546,20.754z M142.272,18.249L142.272,18.249c2.449,1.168,7.052,0.671,6.857-3.277c0-0.349-0.089-1.531-0.124-1.85c-0.5-1.164-1.864-0.877-2.173,0.325c-0.097,0.394,0.173,1.034-0.183,1.232c-0.205,0.206-0.987,0.085-0.955-1.006c0-0.347-0.256-0.721-0.41-0.941c-0.155-0.101-0.253-0.13-0.533-0.13c-0.341,0.014-0.336,0.103-0.523,0.389c-0.079,0.292-0.189,0.578-0.189,0.909c-0.043,0.388-0.189,0.527-0.475,0.584c-0.319,0-0.247,0.035-0.506-0.13c-0.154-0.168-0.346-0.232-0.346-0.519c0-0.297-0.067-0.778-0.157-0.974c-0.136-0.179-0.353-0.262-0.599-0.325c-1.337,0.005-1.43,1.53-1.353,2.109C140.505,14.756,140.448,17.492,142.272,18.249z M247.162,60.991c0.13,0.507-0.31,0.084-1.15,1.467c-0.839,1.383-2.078,4.572-2.142,6.701c-6.338,2.038-12.894,2.931-19.557,3.737c-2.315,1.171-3.462,2.731-2.987,4.486c0.779,1.947,5.906,3.892,5.906,3.985c0.974,0.611,2.126,2.036-0.275,4.956c-10.377-0.457-18.418-4.873-21.202-11.105c-0.839-0.65-1.742-0.004-2.321,0.839c-4.051,5.222-8.038,9.926-14.945,12.422c-4.119,1.029-8.336-0.632-10.327-3.329c-1.333-1.535-1.282-3.23-1.772-3.598c-2.226,0.985-21.384,9.125-18.956,5.333c4.663-4.99,12.734-8.656,19.863-13.582c0.514-1.65,1.45-7.233,4.265-9.051c0.163,0.014-0.446,3.278-0.385,4.655c0.032,1.13-0.083,1.573,0.164,1.282c0.481-0.307,9.131-7.103,9.799-9.188c0.844-1.195,0.253-4.222,0.253-4.314c-1.622-4.181-3.898-4.536-4.741-6.613c-0.76-2.759-0.416-5.909,1.162-6.787c1.4-1.271,3.059-1.114,4.589,0.275c1.747,1.565,3.299,4.623,3.748,6.901c-0.3,0.901-2.286-0.599-2.975-0.152c1.22,1.263,1.789,2.72,2.23,4.502c1.127,4.772,0.783,6.627-0.351,9.713c-3.841,8.075-8.749,10.484-13.043,13.475c-0.115,0.041-0.191,2.049,1.424,3.135c0.557,0.584,2.797,0.884,5.431,0.041c5.089-2.776,10.373-7.888,12.995-13.584c0.761-4.309-0.295-8.877-1.415-12.861c-1.688-3.894-3.676-9.454-3.676-9.545c-0.065-2.428,0.132-3.271,1.197-4.482l0,0c1.649-1.168,0.878-1.985,3.345,0.481c3.088,5.28,5.073,12.118,5.371,18.176c-0.13,1.493,0.922,2.438,1.403,2.113c0.286-3.505,8.809-8.388,16.624-9.102c1.195-0.26,0.614-2.55,0.809-3.718c-0.469-4.339,2.438-8.288,6.512-8.603c5.545,0.82,7.39,3.78,7.484,8.299c-0.599,8.675-9.635,10.145-14.713,10.837c-0.779,0.295-1.103,0.654,0,1.079l21.274,0.097L247.162,60.991z M230.884,49.738c0.986,0.57,2.038,0.597,2.349,0.059c0.311-0.538-0.236-1.436-1.222-2.006c-0.986-0.57-2.038-0.597-2.349-0.059C229.351,48.269,229.898,49.168,230.884,49.738z M219.712,66.322c-3.031-0.313-6.526-0.359-8.895-1.003c-1.573-0.007-2.549,1.047-2.465,2.3c0.562,5.25,4.509,7.681,5.915,8.691c1.193,0.624,3.194,2.2,2.351-2.393c0.01-3.296,2.203-3.907,4.484-4.688C223.415,68.416,222.181,66.478,219.712,66.322z M280.127,78.047c1.706,0.011,3.672-3.903,4.514-7.777h0c0.461-5.336-0.317-8.59-0.456-11.726c-0.138-3.136-3.547-27.066-4.238-29.439c-0.834-4.487,3.314-0.602,2.861-3.211c-1.435-3.29-5.006-8.08-6.128-10.938c-0.674-1.225-0.391-2.314-1.901-0.322c-1.4,4.579-1.886,8.321-1.352,11.164C277.023,44.57,280.712,60.178,280.127,78.047z M253.614,74.178c-0.959,4.13-3.7,6.955-5.404,6.888c0.564-9.582,0.374-19.418-0.244-28.517c-0.323-4.762-0.847-9.556-1.593-14.475c-3.729-5.591-7.575-11.001-11.583-16.388c-0.859-1.164-2.606-3.173-2.885-4.372c-0.363-1.799-0.497-2.971-0.249-5.131c0.493-2.45,3.278-0.972,4.418-0.163c2.261,1.907,2.419,2.049,5.143,4.386c0.624,0.753,1.114,1.388,1.503,1.932c-0.009-1.164,0.195-2.411,0.814-3.816c1.57-2.089,1.536-1.795,2.553-0.353c3.154,4.431,5.837,7.71,6.71,12.548c0.373,2.816-2.318-2.56-1.62,2.284c0.247,1.025,0.602,4.091,0.955,7.908c2.245,3.318,4.135,6.202,4.687,7.225c1.49,2.763,6.171,9.956,9.553,17.234h0c0.901,1.218,1.238,9.877-0.302,10.609c-4.256-8.496-8.582-16.232-13.053-23.529c0.146,2.386,0.257,4.627,0.309,6.469C253.383,58.29,254.237,68.465,253.614,74.178L253.614,74.178z M243.952,25.191c-0.07-0.317-0.134-0.627-0.206-0.945c-0.141-0.963-0.385-1.89-0.6-2.832c-1.047,0.088-2.55-0.377-0.716,1.803C242.704,23.52,243.243,24.224,243.952,25.191z M277.622,67.454C277.688,67.175,277.672,67.197,277.622,67.454L277.622,67.454z M269.526,25.572c0.325-0.388,1.426,0.002,2.009-0.956c0.857-0.875-2.275-8.121-4.061-10.912c-0.634-1.246-0.855-2.078-1.904,0.146c-1.104,1.808-1.846,4.964-1.759,7.912c2.392,16.557,3.126,31.042,4.689,47.599c0.127,1.601-0.108,3.928-1.172,4.856c-3.937,4.111-9.62,9.172-15.799,11.505h0c-0.665,0.746,1.642,3.939,4.639,3.936c5.013-0.582,9.426-3.398,13.512-10.81c1.093-1.729,3.013-5.426,3.07-8.294c0.382-16.815-0.842-29.899-3.361-42.052C269.228,27.319,269.326,25.927,269.526,25.572z M310.538,47.277c1.775,2.286,3.537,4.615,5.277,6.992c0.761,7.527,1.112,15.007,0.861,22.647c-0.179,1.519,5.306-4.532,5.269-7.4c-0.023-2.335-0.003-4.486-0.004-6.48c2.654,3.996,5.222,8.146,7.651,12.508c1.507-0.799,1.006-9.34,0.053-10.517v0c-2.693-4.52-6.308-9.287-8.871-12.741c-0.2-0.573-0.427-1.125-0.687-1.657c-1.027-2.387-0.389-4.305-0.872-6.847c-0.482-2.542-0.363-6.348-1.091-9.364c-0.2-1.178-0.812-4.95-0.623-5.312c0.297-0.842,1.428,0.026,1.981-0.949c0.827-0.902-2.87-10.468-4.745-13.2c-0.674-1.225-1.899-0.805-3.409,1.186c-1.4,1.31-0.881,4.299-0.346,7.142c1.323,6.906,2.521,13.57,3.48,20.126c-1.834-2.449-4.109-5.42-6.27-8.2c-0.055-0.288-0.088-0.462-0.088-0.477c0-0.13-0.309-5.932-0.566-7.315c-0.045-0.561-0.184-0.722,0.404-0.651c0.623,0.524,0.709,0.557,1.098,0.73c0.629,0.115,1.193-0.956,0.813-1.942c-1.947-3.591-3.894-7.183-5.841-10.774c-0.469-0.461-1.074-0.968-1.817,0.13c-0.71,0.623-1.467,1.75-1.444,3.199c0.173,2.553,0.622,5.151,0.794,7.704c0.081,0.452,0.161,0.904,0.242,1.356c-0.311-0.367-0.554-0.643-0.703-0.795c-4.976-5.228,2.282-0.851-0.953-4.889c-2.736-3.004-3.534-3.947-5.876-5.754c-1.174-0.759-1.886-2.208-2.272,0.262c-0.154,2.17-0.314,4.679-0.168,6.508c-0.008,1.016,1.05,2.926,1.959,4.052c3.311,4.068,6.704,8.163,10.104,12.351c0.001,0.006,0.002,0.013,0.003,0.019c0.736,9.346,0.92,16.994,1.655,26.339c-0.103,3.957-1.333,7.407-2.487,7.905c0,0-1.756,1.018-2.933-0.106c-0.856-0.344-4.283-5.711-4.283-5.711c-1.752-1.606-2.907-1.147-4.154,0c-3.438,3.32-4.994,9.53-7.33,13.814c-0.602,0.956-2.305,1.774-4.192-0.07c-3.869-5.285-2.783-12.371-2.535-13.644c-0.012,0.051-0.026,0.11-0.044,0.181c-4.267,4.809-2.386,12.763-1.422,14.477c1.407,2.815,2.54,4.62,5.278,6.012c2.494,1.835,4.436,0.688,5.507-0.597c2.509-2.6,2.539-9.239,3.717-10.555c0.826-2.417,2.906-2.004,3.916-0.933c0.979,1.407,2.131,2.314,3.569,3.08c2.341,2.065,5.135,2.442,7.889,0.56c1.882-1.055,3.105-2.419,4.207-5.126C311.459,71.289,310.785,56.252,310.538,47.277z M333.287,32.235c-0.161-1.184-0.685-3.908-0.485-4.264c0.325-0.832,1.959,0.091,2.543-0.867c0.857-0.875-4.231-7.41-6.016-10.201c-0.634-1.246-0.855-2.078-1.904,0.146c-1.104,1.808-1.49,5.053-1.048,7.912c2.658,17.979,4.637,31.486,5.045,47.422c-0.229,1.513-0.286,2.328-0.995,4.234c-1.569,2.011-3.307,4.526-4.937,5.741c-1.63,1.215-5.107,2.375-6.241,3.275c-3.598,2.08-3.602,4.472-0.693,4.558c5.013-0.582,10.936-0.998,15.022-7.167c1.093-1.729,2.392-6.403,2.448-9.271C336.408,56.939,335.807,44.388,333.287,32.235z M317.582,86.122c0.796-0.596,0.53-1.723,0.464-1.723c-0.464-0.53-1.509-0.215-2.212-0.301c-0.335,0-1.433-0.166-0.91-1.138c0.436-0.605,0.592-0.975,0.888-1.72c0.331-0.729,0.047-1.216-1.147-1.613c-1.216-0.221-1.701-0.11-3.049,0c-0.729,0.155-0.978,0.481-1.111,1.364c0.052,1.34,0.868,1.264,1.707,1.795h0c0.486,0.619,0.8,1.191-0.039,2.207c-0.796,0.729-1.356,1.13-2.152,1.859c-0.376,0.641-0.616,1.613,0.533,1.922C312.676,89.371,317.582,86.189,317.582,86.122z M244.611,80.29c-1.801,0.091-3.47,0.182-5.271,1.599c-1.108,0.256-1.288-0.415-1.534-1.02c-0.281-1.501,0.617-2.548,0.43-3.673c0.067,0.066-1.032-0.938-2.156-0.375c-0.055,0-2.492,1.66-3.281,2.813c-0.481,0.366-0.433,0.676-0.286,1.312c0.375,0.862,1.036,0.593,1.786,0.188c0.995-0.136,1.477,0.52,1.395,1.715c-0.46,1.49,0.199,2.035,0.199,2.129c0,0.094,0.965,0.926,2.09,0.27c2.375-0.907,3.865-1.797,7.191-2.52C246.047,82.711,245.992,80.374,244.611,80.29z M119.601,80.601c-1.546,3.139-2.188,0.986-2.324-0.769c-0.237-3.327,0.076-6.391,0.437-8.818c0.385-2.487-0.007-1.727-0.793-0.723c-3.497,5.572-3.802,13.895-1.872,16.377c1.025,1.172,2.71,1.686,3.956,1.319c2.197-0.953,3.159-5.405,2.638-7.033C120.911,79.807,120.333,79.625,119.601,80.601z M125.32,77.287c0-2.624-0.104-3.385,0.311-6.113c0.415-4.904,3.004-6.803,3.626-1.865c0.104,2.487,0.415,6.631,1.451,8.495c4.178,7.909,28.768,6.182,29.528-18.959c-0.242-1.865-1.624-0.725-1.969,0.415c-3.662,27.767-36.434,24.244-26.627-1.036h0c3.316-2.28,1.866,7.562,3.213,10.153c2.174,4.145,6.215,3.626,11.292,1.347c8.392-4.456,8.704-10.256,8.289-10.775c-0.622-0.414-2.072,1.348-3.833,2.072c-2.141,0.553-4.593,0.794-6.632-1.658c-0.656-2.107-0.482-4.732,0.001-7.148c0.413-3.04,3.73-6.183,6.631-6.218c4.007-0.137,4.593,3.074,6.941,4.663c1.381,0.172,2.452-1.519,2.176-2.797c-1.796-10.913-2.971-19.237-4.766-30.149c-0.449-2.556,0.968-3.868,2.487-4.352c0.897-0.207,1.485-0.725,2.176,0.104c1.417,0.553,3.971,8.254,5.182,12.018c-1.105,1.381-2.211,0.484-3.42,0.518c0.933,7.114,1.865,13.918,2.797,21.032c2.9-1.693,4.351-1.208,4.04,2.383c0.242,1.554,2.556,1.346,3.834,0.311c1.9-5.354,5.042-4.905,5.802-1.451c0.068,1.105,1.796,1.072,1.969,0.208c0.139-0.898,0.276-1.795,0.415-2.693c0.138-0.829,1.622-1.243,3.626-1.865c-0.104,3.245-0.518,6.388-1.037,9.427c-0.897,3.108-5.215,3.938-7.667,2.176c-0.725-0.76-1.762-0.38-2.176,0.207c-0.967,1.174-5.353,4.11-8.495,0.725c-1.485-0.034,1.693,6.665-1.036,15.749C158.302,88.615,126.632,97.145,125.32,77.287z M151.547,53.133c-0.674-1.685-2.558-1.057-2.91-0.457c-0.287,0.503-0.926,1.156-0.712,1.831c0.448,0.607,0.806,0.73,1.552,0.763c0.647,0,1.552,0.153,1.747-0.229C151.572,54.656,151.838,53.873,151.547,53.133z M174.192,70.312c0.728,0.3,1.744-2.006,2.125-4.141c0.211-1.169-0.91-5.261-2.823-5.992c-1.174-0.253-2.78,0.067-2.285,1.802c-0.056,0.944,2.599,2.076,2.761,4.262C174.351,67.145,173.399,70.044,174.192,70.312z" />
  <path fill="#000000" d="M242.634,179.271L225,166.459l-17.634,12.812l6.735-20.729l-17.634-12.812h21.796L225,125l6.735,20.729h21.796l-17.634,12.812L242.634,179.271z" />
</svg>
