<svg xmlns="http://www.w3.org/2000/svg" width="450px" height="300px" viewBox="0 0 450 300">
  <path fill="#012A87" d="M0,0h450v300H0V0z" />
  <path fill="#DC171D" d="M0,0h450v150H0V0z" />
  <path fill="#FFFFFF" d="M0,0v300l200-150L0,0z" />
  <g>
    <path fill="#F9D90F" stroke="#000000" stroke-width="0.2667" d="M101.036,113.232l0.061-2.322c0,0-1.247-1.986,0.2-4.121c0,0-3.075-1.627-2.359-4.174c0,0-2.78-0.711-2.576-3.769c0,0-3.001-0.208-3.312-2.763c0,0-3.001,0.494-4.322-1.995c0,0-2.928,0.572-3.754-1.48c0,0-2.846,0.986-4.535-1.427c0,0-3.005,1.214-4.265-1.063c-1.243,2.269-4.248,1.063-4.248,1.063c-1.668,2.404-4.534,1.406-4.534,1.406c-0.797,2.06-3.717,1.476-3.717,1.476c-1.317,2.49-4.314,1.995-4.314,1.995c-0.294,2.547-3.292,2.755-3.292,2.755c0.237,3.066-2.539,3.761-2.539,3.761c0.732,2.547-2.339,4.169-2.339,4.169c1.484,2.147,0.249,4.117,0.249,4.117l-0.07,2.142l49.671,0.229H101.036L101.036,113.232z" />
    <g>
      <path fill="#BC715F" stroke="#000000" stroke-width="0.2667" d="M76.266,99.234c1.331,1.344,0.087,2.078-1.141,1.388c-3.035-2.297-6.581-3.57-11.46-2.182c-7.009,0.026-14.455-0.396-17.859,3.322c-0.242,0.717-2.143,3.42,5.209-0.545c-0.458,2.742,2.962,0.501,5.606-0.744c-1.822,1.904,2.789,2.217,5.705,0.347c-1.433,1.923,1.084,1.871,3.473,1.884c3.493,0.109,1.564,3.147-4.415,3.272c-0.436-0.03-2.112,0.756,0.149,1.339c1.047,0.052,0.195,1.512,3.82-0.347c-0.225,1.088,1.328,0.877,3.522,0.198c1.244,0.978,2.254-0.036,3.324-0.545c4.58,1.79,10.627,3.582,12.253-2.628c3.822-0.44,6.985-1.001,5.273-2.456c4.979,2.03,5.267,1.247,5.192,0.245c2.388,0.902,5.165,2.124,4.034,0.14c2.296,0.586,4.81,0.791,6.77,1.963c1.986,1.029,1.344-0.769,0.877-1.578c-1.017-1.628-2.304-2.108-5.204-2.167c-2.46-0.05-13.986-3.264-19.982,0.204c0,0,0.14,0,0.035,0c-0.105,0-2.491-2.244-2.491-2.244c0.549-0.015,0.945-0.291,1.263-0.701c2.339,0.118,4.677-0.106,7.016-0.736c1.065-0.332,1.673,0.302,1.649,0.771c0.975-1.714-0.375-2.069-1.368-1.998c-3.956,0.224-6.331,0.017-8.244-0.316c-3.792-1.892-8.356,1.01-4.139,3.401L76.266,99.234z" />
      <path fill="#000000" d="M77.158,95.876c-0.794,0.118-1.613,0.213-1.929,0.763C75.252,95.734,76.598,95.672,77.158,95.876z" />
      <path fill="#000000" d="M76.737,95.858c0.189,0,0.342,0.157,0.342,0.351c0,0.194-0.153,0.351-0.342,0.351c-0.189,0-0.342-0.157-0.342-0.351C76.395,96.015,76.548,95.858,76.737,95.858z" />
    </g>
    <g>
      <path fill="#DC171D" stroke="#000000" stroke-width="0.2667" d="M33.725,107.181c1.566,8.887,3.304,17.996,4.159,27.301c1.86,13.78-6.522,25.35-3.083,38.964c2.053,6.532,9.236,10.329,15.811,11.082c8.722,1.648,19.266,0.005,25.633,6.529c6.367-6.525,16.911-4.88,25.633-6.529c6.575-0.753,13.759-4.55,15.811-11.082c3.439-13.613-4.944-25.183-3.083-38.964c0.855-9.304,2.593-18.413,4.159-27.301c-15.353,8.335-30.523-2.508-42.52,4.424C64.248,104.673,49.078,115.516,33.725,107.181z" />
      <path fill="#62AFE1" stroke="#000000" stroke-width="0.2671" d="M39.449,114.36c1.353,7.333,2.854,14.848,3.592,22.525c1.607,11.37-5.633,20.916-2.663,32.148c1.773,5.39,7.978,8.523,13.656,9.144c7.533,1.36,16.64,0.003,22.139,5.387c5.499-5.383,14.606-4.027,22.139-5.387c5.679-0.621,11.883-3.754,13.656-9.144c2.97-11.232-4.27-20.778-2.663-32.148c0.738-7.677,2.239-15.192,3.592-22.525c-13.26,6.877-26.363-2.069-36.724,3.651C65.812,112.29,52.71,121.237,39.449,114.36L39.449,114.36z" />
      <path fill="#FFFFFF" stroke="#000000" stroke-width="0.6" stroke-linecap="round" d="M68.976,134.918L53.46,145.552v12.803h45.427v-12.803l-15.516-10.634H68.976z" />
      <path fill="#FFFFFF" stroke="#000000" stroke-width="0.6" stroke-linecap="round" d="M49.775,156.235v2.447h1.494v12.573h49.809v-12.573h1.494v-2.447H49.775z" />
      <path fill="#FFFFFF" stroke="#000000" stroke-width="0.6" stroke-linecap="round" d="M76.173,121.052l-7.197,7.005v6.861h14.395v-6.861L76.173,121.052z M55.703,147.289h4.552v7.208h-4.552V147.289z M68.624,147.289h4.552v7.208h-4.552V147.289z M96.644,147.289h-4.552v7.208h4.552V147.289z M83.724,147.289h-4.552v7.208h4.552V147.289z M55.703,159.824h4.552v7.208h-4.552V159.824z M96.644,159.824h-4.552v7.208h4.552V159.824z M79.741,159.416h-7.135v11.84h7.135V159.416z M68.458,156.235h-3.2v15.021h3.2V156.235z M83.89,156.235h3.201v15.021H83.89V156.235z" />
      <path fill="#FFFFFF" stroke="#000000" stroke-width="0.6" stroke-linecap="round" d="M88.279,156.75v-3.71H64.068v3.71H88.279z" />
      <path fill="#FFFFFF" stroke="#000000" stroke-width="0.6" d="M68.976,128.057h14.395 M53.46,145.552h45.427 M65.798,153.04v3.71 M86.55,153.04v3.71 M84.82,153.04v3.71 M83.091,153.04v3.71 M81.362,153.04v3.71 M79.632,153.04v3.71 M77.903,153.04v3.71 M76.174,153.04v3.71 M74.444,153.04v3.71 M72.715,153.04v3.71 M70.986,153.04v3.71 M69.256,153.04v3.71 M67.527,153.04v3.71 M88.279,153.293v3.457 M103.713,169.687v3.893H48.634v-3.893H103.713z M78.92,129.542h-5.493v3.89h5.493V129.542z" />
      <path fill="#008830" stroke="#000000" stroke-width="0.3" d="M53.393,122.542l1.425,0.89l1.53-0.151l0.642,1.057c0,0-0.172,2.172-0.173,2.37c-0.001,0.198,0.473,1.413,0.473,1.413l-1.041,0.757l-2.788,1.142l-2.608-2.118l-1.644,0.17l-0.721-2.042l0.81-1.741l2.035-1.321L53.393,122.542z M55.475,130.024c1.941,3.253,2.549,5.942,1.968,8.127C54.246,137.009,51.919,133.876,55.475,130.024z" />
      <path fill="#008830" stroke="#000000" stroke-width="0.3" d="M55.591,122.322c3.293,1.873,5.148,3.913,5.72,6.1C57.966,129.005,54.398,127.426,55.591,122.322z M51.339,125.553c3.093,2.187,4.739,4.399,5.094,6.632C53.047,132.436,49.651,130.515,51.339,125.553z M57.818,124.008c3.774,0.335,6.46-0.285,8.177-1.758C63.576,119.867,59.744,119.133,57.818,124.008z" />
      <path fill="#008830" stroke="#000000" stroke-width="0.3" d="M52.838,120.338c3.419,2.182,5.036,4.199,5.044,6.07C53.627,126.181,49.779,124.179,52.838,120.338z M51.335,125.541c0.443,3.762-0.099,6.465-1.522,8.222C47.361,131.416,46.516,127.607,51.335,125.541L51.335,125.541z M50.717,123.623c-1.34,3.543-3.067,5.692-5.14,6.596C44.483,127.006,45.489,123.236,50.717,123.623z M50.71,123.881c-3.717-0.732-6.124-2.077-7.361-3.97C46.336,118.298,50.221,118.662,50.71,123.881z M57.829,124.012c2.276,3.028,4.534,4.61,6.777,4.9C64.76,125.521,62.742,122.181,57.829,124.012z M56.644,125.863c2.836,2.511,4.231,4.889,4.34,7.148C57.591,132.891,54.424,130.612,56.644,125.863z M54.109,129.814c0.43,3.763-0.123,6.464-1.552,8.217C50.114,135.673,49.284,131.861,54.109,129.814z" />
      <path fill="#F9D90F" stroke="#000000" stroke-width="0.3" d="M51.645,125.592c-0.273-0.193-0.478-0.53-0.526-0.862c-0.041-0.284-0.018-0.466,0.11-0.866c0.065-0.203,0.116-0.373,0.114-0.379c-0.002-0.006-0.053-0.021-0.112-0.033c-0.104-0.021-0.117-0.015-0.305,0.159c-0.642,0.593-1.228,0.877-1.628,0.79c-0.465-0.101-0.643-0.745-0.384-1.391c0.22-0.549,0.632-0.885,1.158-0.945c0.195-0.022,0.277-0.014,0.504,0.048c0.149,0.041,0.266,0.062,0.259,0.047c-0.007-0.015-0.12-0.095-0.252-0.179c-0.649-0.411-1.033-0.887-1.058-1.313c-0.019-0.309,0.184-0.605,0.53-0.776c0.582-0.288,1.311-0.083,1.649,0.464c0.163,0.262,0.205,0.471,0.204,1.011c0,0.313,0.013,0.493,0.036,0.503c0.02,0.008,0.074,0.057,0.119,0.108l0.082,0.093l0.321-0.263c0.327-0.268,0.565-0.432,0.831-0.574c0.368-0.196,0.802-0.251,1.019-0.13c0.476,0.265,0.474,1.13-0.004,1.722c-0.388,0.48-0.977,0.65-1.515,0.435c-0.121-0.048-0.292-0.107-0.38-0.131l-0.16-0.043l0.248,0.315c0.334,0.425,0.522,0.729,0.652,1.055c0.244,0.615,0.12,1.09-0.339,1.293C52.464,125.907,52.001,125.844,51.645,125.592L51.645,125.592z" />
      <path fill="#F9D90F" stroke="#000000" stroke-width="0.2999" d="M55.054,121.596c0.003,0.291,0.052,0.475,0.233,0.871c0.092,0.201,0.166,0.37,0.165,0.376c-0.001,0.006-0.047,0.025-0.103,0.042c-0.097,0.03-0.11,0.024-0.316-0.137c-0.703-0.552-1.306-0.794-1.677-0.674c-0.431,0.139-0.506,0.808-0.163,1.444c0.291,0.541,0.736,0.85,1.249,0.869c0.19,0.007,0.267-0.007,0.476-0.089c0.137-0.053,0.246-0.084,0.241-0.069c-0.004,0.016-0.101,0.106-0.215,0.202c-0.561,0.47-0.859,0.984-0.821,1.418c0.028,0.315,0.265,0.601,0.622,0.747c0.6,0.246,1.268-0.02,1.512-0.602c0.117-0.279,0.127-0.495,0.047-1.044c-0.047-0.318-0.061-0.502-0.039-0.514c0.018-0.01,0.062-0.064,0.098-0.119l0.065-0.101l0.347,0.242c0.353,0.247,0.605,0.395,0.881,0.517c0.382,0.17,0.805,0.192,0.995,0.052c0.417-0.307,0.287-1.186-0.258-1.75c-0.442-0.458-1.032-0.583-1.516-0.323c-0.109,0.058-0.264,0.132-0.345,0.163l-0.147,0.057l0.191-0.34c0.258-0.458,0.393-0.782,0.469-1.124c0.143-0.645-0.046-1.117-0.516-1.288c-0.362-0.131-0.796-0.031-1.064,0.22S55.051,121.255,55.054,121.596L55.054,121.596z" />
      <path fill="#F9D90F" stroke="#000000" stroke-width="0.3001" stroke-miterlimit="8.0327" d="M50.873,129.834c-0.076-0.336-0.069-0.56,0.032-1.064c0.051-0.256,0.091-0.47,0.088-0.477c-0.003-0.007-0.061-0.016-0.13-0.021c-0.12-0.008-0.133,0.002-0.326,0.243c-0.658,0.825-1.286,1.267-1.746,1.23c-0.533-0.043-0.801-0.792-0.579-1.616c0.188-0.701,0.616-1.176,1.201-1.337c0.217-0.06,0.31-0.064,0.571-0.027c0.172,0.024,0.305,0.03,0.296,0.013c-0.009-0.017-0.145-0.095-0.302-0.174c-0.773-0.387-1.254-0.898-1.328-1.407c-0.054-0.37,0.142-0.763,0.513-1.028c0.623-0.446,1.463-0.321,1.902,0.282c0.211,0.289,0.28,0.534,0.337,1.187c0.033,0.378,0.066,0.593,0.094,0.601c0.024,0.007,0.089,0.057,0.145,0.111l0.102,0.098l0.333-0.373c0.339-0.38,0.588-0.618,0.872-0.834c0.393-0.299,0.874-0.439,1.131-0.33c0.563,0.24,0.652,1.285,0.178,2.082c-0.384,0.646-1.028,0.95-1.655,0.782c-0.141-0.038-0.339-0.08-0.44-0.094l-0.185-0.025l0.312,0.339c0.421,0.457,0.664,0.793,0.844,1.165c0.34,0.702,0.25,1.296-0.244,1.62c-0.38,0.249-0.907,0.252-1.284,0.035S50.962,130.227,50.873,129.834L50.873,129.834z" />
      <path fill="#F9D90F" stroke="#000000" stroke-width="0.3" stroke-miterlimit="7.8467" d="M55.641,126.289c-0.066,0.33-0.054,0.548,0.058,1.039c0.056,0.248,0.101,0.457,0.098,0.464c-0.003,0.006-0.059,0.017-0.126,0.023c-0.117,0.011-0.13,0.001-0.324-0.229c-0.663-0.789-1.288-1.206-1.735-1.158c-0.519,0.055-0.762,0.793-0.525,1.593c0.201,0.68,0.631,1.133,1.206,1.276c0.213,0.053,0.304,0.055,0.559,0.013c0.167-0.028,0.297-0.037,0.289-0.02c-0.008,0.017-0.139,0.096-0.291,0.177c-0.745,0.398-1.202,0.908-1.262,1.407c-0.043,0.363,0.158,0.741,0.526,0.991c0.62,0.42,1.437,0.278,1.85-0.322c0.198-0.288,0.26-0.529,0.299-1.167c0.023-0.37,0.05-0.581,0.077-0.589c0.023-0.007,0.085-0.058,0.139-0.112l0.097-0.099l0.335,0.356c0.341,0.362,0.59,0.589,0.873,0.793c0.391,0.282,0.864,0.407,1.112,0.294c0.543-0.248,0.605-1.272,0.122-2.037c-0.392-0.621-1.028-0.902-1.636-0.723c-0.136,0.04-0.329,0.086-0.428,0.102l-0.18,0.029l0.296-0.339c0.399-0.457,0.629-0.791,0.795-1.159c0.314-0.694,0.212-1.272-0.278-1.576c-0.378-0.234-0.892-0.223-1.254-0.003C55.969,125.533,55.718,125.903,55.641,126.289L55.641,126.289z" />
      <path fill="#F9D90F" stroke="#000000" stroke-width="0.3" stroke-miterlimit="6.8834" d="M52.283,122.92c-0.171,0.429-0.619,0.654-1.001,0.502s-0.553-0.624-0.382-1.053c0.171-0.429,0.619-0.654,1.001-0.502S52.454,122.491,52.283,122.92z M55.095,123.309c0.204-0.428,0.678-0.642,1.058-0.479c0,0,0,0,0,0c0.38,0.163,0.523,0.642,0.319,1.07c-0.204,0.428-0.678,0.642-1.058,0.479c0,0,0,0,0,0C55.034,124.215,54.891,123.736,55.095,123.309z M51.989,127.451c-0.147,0.548-0.627,0.895-1.072,0.775c-0.445-0.119-0.687-0.66-0.541-1.207s0.627-0.895,1.072-0.775S52.136,126.903,51.989,127.451z M55.983,127.831c-0.554,0.014-0.992,0.429-0.979,0.927c0.013,0.498,0.472,0.89,1.025,0.876c0.554-0.014,0.992-0.429,0.979-0.927S56.537,127.817,55.983,127.831z" />
      <path fill="#FFFFFF" stroke="#000000" stroke-width="0.5333" d="M106.38,135.697h-1.906v-1.355h-1.624v-1.548h-1.859l-0.001-9.825l-2.118-3.705l-2.118,3.705v9.825h-1.859v1.548H93.27v1.355h-1.906v2l15.016,0.043L106.38,135.697z" />
    </g>
    <g>
      <path fill="#F9D90F" stroke="#000000" stroke-width="0.2671" d="M28.547,149.84l-2.572,13.769l-8.051,1.251c0,0-1.357-7.24,2.118-17.734L28.547,149.84z M123.943,149.873l2.572,13.769l8.051,1.251c0,0,1.357-7.24-2.118-17.734L123.943,149.873z M76.341,197.372c7.63,0.024,17.014-1.533,21.409-3.806l9.654-0.855l0.192,11.778c-8.178,4.509-27.06,5.478-31.214,5.445c-4.158,0.033-23.274-0.952-31.488-5.478L45,192.671l9.674,0.871c4.395,2.261,14.066,3.831,21.687,3.831H76.341" />
      <path fill="#F9B60F" d="M44.894,204.457l9.955-2.277l-9.922-1.42L44.894,204.457z M17.924,164.86l5.23-7.215l2.821,5.965L17.924,164.86z M107.596,204.49l-9.955-2.277l9.922-1.42L107.596,204.49z M134.566,164.892l-5.23-7.215l-2.821,5.965L134.566,164.892z" />
      <path fill="none" stroke="#000000" stroke-width="0.2671" d="M44.894,204.457l10.019-2.277 M23.162,157.601l2.813,6.009 M107.596,204.49l-10.019-2.277 M129.328,157.633l-2.813,6.009" />
      <path fill="#F9D90F" stroke="#000000" stroke-width="0.2671" d="M137.534,157.085l-8.198,0.592c-0.184,6.946-1.026,33.453-32.682,34.892l0.985,9.644C136.173,202.613,139.1,169.7,137.534,157.085z M14.956,157.052l8.198,0.592c0.184,6.946,1.026,33.453,32.682,34.892l-0.985,9.644C16.317,202.58,13.39,169.668,14.956,157.052L14.956,157.052z" />
    </g>
    <path fill="#012A87" d="M70.533,200.806l-2.547-0.159l-0.352,5.478l0.756,0.049l0.004,0.008l0.151-2.327l1.783,0.123c0.577,0.045,1.006-0.106,1.296-0.401c0.303-0.286,0.458-0.662,0.478-1.087c0.037-0.495-0.09-0.9-0.384-1.198C71.437,201.006,71.036,200.855,70.533,200.806z M70.966,203.177c-0.217,0.139-0.511,0.176-0.85,0.159l-1.529-0.078l0.131-1.909l1.517,0.081c0.298,0.02,0.536,0.078,0.683,0.168c0.307,0.159,0.442,0.454,0.413,0.863c-0.02,0.352-0.143,0.581-0.368,0.715H70.966z M77.858,206.047c-0.033-0.106-0.049-0.266-0.057-0.466l-0.016-0.732c-0.012-0.331-0.07-0.56-0.196-0.687c-0.11-0.147-0.262-0.274-0.495-0.352c0.262-0.139,0.458-0.298,0.601-0.495c0.135-0.217,0.204-0.491,0.204-0.825c0-0.63-0.258-1.059-0.781-1.292c-0.282-0.127-0.642-0.193-1.067-0.2l-2.629-0.025l-0.02,5.494h0.756l0-0.016l0.016-2.338l1.75,0.025c0.311,0,0.54,0.024,0.699,0.102c0.258,0.119,0.384,0.368,0.397,0.711l0.045,0.92c0.012,0.221,0.016,0.356,0.029,0.446c0.024,0.065,0.037,0.135,0.07,0.184h0.94l-0.016-0.119C77.981,206.325,77.895,206.215,77.858,206.047z M76.799,203.308c-0.2,0.135-0.491,0.196-0.838,0.196l-1.791-0.02l0.016-1.885h0.004l1.865,0.02c0.27,0.024,0.482,0.057,0.638,0.131c0.286,0.135,0.421,0.405,0.421,0.797C77.114,202.916,77.007,203.161,76.799,203.308z M81.596,200.721c-0.957,0.061-1.66,0.413-2.114,1.124h0.004c-0.352,0.544-0.495,1.173-0.458,1.934c0.053,0.821,0.307,1.5,0.785,2.011c0.532,0.511,1.235,0.768,2.102,0.719c0.928-0.041,1.627-0.392,2.102-1.038c0.384-0.585,0.568-1.264,0.527-2.102c-0.053-0.748-0.27-1.357-0.675-1.811C83.359,200.949,82.61,200.68,81.596,200.721z M83.391,205.07c-0.278,0.487-0.74,0.761-1.423,0.777c-0.711,0.037-1.243-0.13-1.582-0.544c-0.335-0.408-0.515-0.919-0.556-1.524c-0.037-0.761,0.11-1.341,0.458-1.734c0.352-0.425,0.805-0.629,1.398-0.662c0.597-0.033,1.088,0.159,1.452,0.535c0.372,0.368,0.585,0.879,0.622,1.517C83.78,204.048,83.673,204.592,83.391,205.07z M17.809,171.165c-0.352-0.392-0.568-0.863-0.679-1.447c-0.123-0.695-0.033-1.235,0.245-1.668c0.282-0.446,0.728-0.703,1.333-0.789v-0.008l0.127,0.686c-0.307,0.061-0.552,0.184-0.732,0.344c-0.323,0.302-0.433,0.756-0.323,1.374c0.049,0.261,0.143,0.519,0.262,0.724c0.245,0.417,0.564,0.584,0.969,0.519c0.299-0.053,0.495-0.167,0.589-0.38c0.09-0.209,0.155-0.528,0.176-0.936l0.037-0.773c0.025-0.478,0.078-0.854,0.184-1.063c0.168-0.376,0.482-0.609,0.953-0.686c0.503-0.09,0.945,0.024,1.325,0.31c0.384,0.266,0.638,0.728,0.732,1.341c0.119,0.56,0.065,1.063-0.155,1.517c-0.213,0.442-0.622,0.711-1.247,0.826l-0.123-0.695c0.29-0.106,0.507-0.209,0.65-0.352c0.245-0.274,0.319-0.67,0.225-1.214c-0.074-0.442-0.225-0.728-0.454-0.871c-0.225-0.168-0.45-0.233-0.695-0.192c-0.274,0.041-0.454,0.192-0.54,0.437c-0.053,0.163-0.094,0.502-0.131,1.022l-0.037,0.801c-0.02,0.376-0.078,0.687-0.204,0.9c-0.2,0.392-0.54,0.633-1.034,0.711C18.635,171.708,18.153,171.565,17.809,171.165z M19.241,174.995l1.047,3.197l-0.646,0.184l-1.28-3.875l5.405-1.627l1.259,3.806l-0.658,0.208l-1.03-3.127l-1.644,0.495l0.953,2.89l-0.63,0.2l-0.944-2.898L19.241,174.995z M20.758,181.091l0.003,0.006l-0.003,0.002V181.091z M28.351,183.07l-4.96,2.62l-0.352-0.609l2.928-1.541c0.106-0.062,0.27-0.152,0.507-0.278c0.233-0.106,0.495-0.25,0.756-0.385l-4.972,0.846l-0.364-0.646l3.394-3.602l-0.164,0.082c-0.106,0.061-0.29,0.151-0.54,0.294c-0.245,0.152-0.429,0.245-0.548,0.294l-2.919,1.566l-0.356-0.615l4.969-2.635l0.532,0.928l-3.418,3.614l4.992-0.854L28.351,183.07z M31.896,187.542c-0.005-0.401-0.188-0.777-0.527-1.128l-1.766-1.803l-4.113,3.777l0.532,0.536h0.008l1.734-1.59l1.231,1.247c0.397,0.405,0.801,0.589,1.227,0.581c0.433-0.025,0.805-0.184,1.133-0.495C31.72,188.339,31.896,187.955,31.896,187.542z M30.816,188.13c-0.27,0.249-0.54,0.352-0.793,0.29c-0.249-0.057-0.495-0.2-0.736-0.45l-1.051-1.083l1.415-1.296l1.059,1.08c0.204,0.2,0.335,0.396,0.405,0.564C31.213,187.558,31.115,187.853,30.816,188.13z M33.969,188.666l3.525,2.142l-0.368,0.556l-2.895-1.733l-0.895,1.414l2.662,1.614l-0.344,0.536l-2.666-1.607l-1.014,1.582l2.932,1.762l-0.352,0.552l-3.565-2.147L33.969,188.666z M41.783,192.361l-2.502-0.772l-1.75,5.212l0.732,0.225l0.004,0l0.744-2.228l1.668,0.544c0.298,0.078,0.515,0.184,0.621,0.294c0.204,0.184,0.266,0.458,0.164,0.798l-0.249,0.887c-0.057,0.217-0.086,0.36-0.11,0.425c0,0.07,0,0.143,0.013,0.192l0.879,0.286l0.053-0.127c-0.094-0.074-0.147-0.208-0.143-0.376c0.02-0.103,0.049-0.266,0.106-0.454l0.213-0.711c0.086-0.311,0.119-0.544,0.041-0.711c-0.065-0.176-0.176-0.336-0.36-0.486c0.278-0.049,0.519-0.135,0.724-0.287c0.192-0.168,0.356-0.401,0.454-0.727c0.2-0.593,0.09-1.088-0.352-1.464C42.511,192.685,42.196,192.517,41.783,192.361z M42.318,194.193c-0.11,0.327-0.278,0.54-0.54,0.63c-0.233,0.04-0.527,0.04-0.871-0.066l-1.689-0.539l0.593-1.783l1.791,0.569c0.253,0.077,0.438,0.175,0.56,0.286C42.392,193.507,42.453,193.817,42.318,194.193z M107.827,195.882l0.425,2.915l-0.488,0.065l-0.29-0.676c-0.21,0.299-0.419,0.528-0.601,0.66c-0.307,0.232-0.718,0.376-1.231,0.44c-0.664,0.09-1.267-0.04-1.808-0.401c-0.593-0.456-0.969-1.126-1.099-2.048c-0.143-0.906,0.014-1.677,0.442-2.278c0.407-0.581,0.99-0.914,1.769-1.01l0,0.008c0.529-0.08,0.986-0.047,1.401,0.103c0.61,0.203,1.014,0.665,1.259,1.364l-0.758,0.092c-0.157-0.379-0.385-0.64-0.697-0.79c-0.304-0.14-0.688-0.18-1.131-0.122c-0.517,0.068-0.934,0.318-1.232,0.726c-0.294,0.436-0.391,1.023-0.278,1.777c0.095,0.624,0.314,1.155,0.684,1.513c0.341,0.366,0.85,0.502,1.518,0.42c0.5-0.073,0.905-0.265,1.193-0.604c0.3-0.321,0.395-0.815,0.309-1.454l-1.767,0.238l-0.079-0.607L107.827,195.882z M115.497,196.222c-0.068-0.103-0.13-0.251-0.221-0.425l-0.278-0.692c-0.125-0.301-0.257-0.487-0.41-0.6c-0.154-0.089-0.349-0.149-0.582-0.17c0.184-0.206,0.318-0.412,0.372-0.656c0.058-0.248,0.038-0.526-0.075-0.839c-0.214-0.589-0.621-0.915-1.201-0.966c-0.306-0.03-0.659,0.029-1.066,0.164l-2.485,0.834l1.901,5.203l0.728-0.253l-0.004-0.016l-0.818-2.219l1.646-0.559c0.308-0.092,0.522-0.142,0.681-0.122c0.29,0.042,0.507,0.222,0.648,0.559l0.357,0.845c0.078,0.21,0.141,0.337,0.193,0.396c0.023,0.074,0.076,0.12,0.116,0.169l0.893-0.31l-0.047-0.119C115.713,196.443,115.588,196.367,115.497,196.222z M113.555,193.967c-0.155,0.205-0.395,0.353-0.741,0.473l-1.662,0.562l-0.651-1.77l1.77-0.606c0.243-0.085,0.452-0.11,0.631-0.086c0.323,0.03,0.556,0.227,0.684,0.613C113.706,193.483,113.701,193.769,113.555,193.967z M122.196,193.029l-3.542,2.17l-3.051-4.63l3.482-2.132l0.37,0.559l-2.854,1.751l0.939,1.416l2.635-1.628l0.346,0.542l-2.635,1.629l1.035,1.56l2.903-1.783L122.196,193.029z M118.652,195.201l0.003-0.002l0.001,0.002L118.652,195.201z M125.723,185.77c-0.567-0.521-1.163-0.794-1.796-0.854c-0.702-0.066-1.304,0.177-1.833,0.735l-1.563,1.615l4.16,3.764l1.563-1.623l0.004-0.008c0.651-0.691,0.803-1.445,0.447-2.306C126.497,186.626,126.174,186.171,125.723,185.77z M126.052,188.573c-0.072,0.141-0.198,0.307-0.385,0.504l-0.921,0.964l-3.195-2.88l0.913-0.968c0.425-0.434,0.87-0.626,1.352-0.56c0.482,0.05,0.968,0.312,1.482,0.779c0.141,0.113,0.265,0.258,0.393,0.42c0.223,0.303,0.354,0.567,0.435,0.83C126.194,187.991,126.172,188.289,126.052,188.573z M125.206,181.627l4.821,2.93l-0.413,0.646l-0.004-0.008l-4.813-2.946L125.206,181.627z M133.223,178.179l-1.646,3.731l-5.211-2.196l1.617-3.667l0.633,0.257l-1.319,3.022l1.571,0.651l1.233-2.783l0.6,0.261l-1.22,2.779l1.757,0.751l1.352-3.058L133.223,178.179z M131.576,181.911l0.001-0.001l0.003,0.001L131.576,181.911z M129.652,169.961l5.505,1.29l-0.191,0.826l-5.146,1.669l4.467,1.051l-0.172,0.708l-0.004,0l-5.505-1.323l0.2-0.851l5.138-1.632l-4.467-1.071L129.652,169.961z M133.801,168.479L133.801,168.479L133.801,168.479L133.801,168.479z M136.028,166.545c-0.082,0.665-0.308,1.184-0.715,1.528c-0.407,0.352-0.908,0.465-1.512,0.405l0.082-0.694c0.319,0.014,0.589-0.03,0.796-0.136c0.405-0.21,0.645-0.618,0.718-1.226c0.03-0.285,0.022-0.535-0.039-0.773c-0.11-0.46-0.363-0.718-0.775-0.766c-0.306-0.038-0.528,0.031-0.691,0.196c-0.147,0.19-0.303,0.464-0.425,0.855l-0.267,0.719c-0.172,0.471-0.329,0.795-0.496,0.976c-0.268,0.339-0.638,0.451-1.108,0.409c-0.502-0.062-0.907-0.27-1.19-0.66c-0.292-0.357-0.406-0.862-0.321-1.482c0.059-0.567,0.256-1.042,0.598-1.42c0.317-0.346,0.803-0.505,1.419-0.428l-0.07,0.694c-0.303-0.005-0.545,0.043-0.723,0.163c-0.322,0.17-0.505,0.539-0.568,1.081c-0.053,0.449,0.003,0.752,0.17,0.985c0.168,0.195,0.383,0.321,0.636,0.346c0.269,0.029,0.483-0.052,0.634-0.258c0.109-0.141,0.241-0.45,0.422-0.949l0.263-0.756c0.129-0.349,0.281-0.616,0.456-0.805c0.312-0.313,0.716-0.441,1.218-0.394c0.612,0.076,1.045,0.338,1.261,0.808C136.016,165.437,136.092,165.957,136.028,166.545z" />
  </g>
</svg>
