<svg xmlns="http://www.w3.org/2000/svg" width="450px" height="300px" viewBox="0 0 450 300">
  <path fill="#000000" d="M0,0h450v300H0V0z" />
  <path fill="#FFFFFF" d="M0,0h450v200H0V0z" />
  <path fill="#CE1126" d="M0,0h450v100H0V0z" />
  <path fill="#007A3D" d="M324.369,187.5L300,169.795L275.631,187.5l9.308-28.647l-24.37-17.706h30.123L300,112.5l9.308,28.647h30.121l-24.368,17.705L324.369,187.5z M159.31,141.147l-9.308-28.647l-9.308,28.647h-30.123l24.37,17.705l-9.308,28.647l24.369-17.705l24.369,17.705l-9.308-28.648l24.368-17.705H159.31z" />
</svg>
