<svg xmlns="http://www.w3.org/2000/svg" width="450px" height="300px" viewBox="0 0 450 300">
  <path fill="#002654" d="M0,0h450v300H0V0z" />
  <path fill="#FFFFFF" d="M181.515,0v121.483H0v-3.155h60V0h118.361H180H181.515z M320.623,206.232v-29.625h12.375l9.188-14.625h-21.562v-9.375h27.469l9.656-15.375h-91.5l9.656,15.375h27.469v53.625l-20.625-32.25l-27.75,44.25h17.25l2.578-4.875H292.1l19.898,31.875l19.898-31.875h17.273l2.578,4.875h17.25l-27.75-44.25L320.623,206.232z M277.632,203.037l5.249-10.53l6.731,10.463L277.632,203.037z M335.315,202.905l5.534-9.333l5.382,9.4L335.315,202.905z M360.692,241.157l-9.491,6.817l3.671,11.094l-9.416-6.919l-9.416,6.919l3.671-11.094l-9.491-6.817l11.685,0.063l3.551-11.133l3.551,11.133L360.692,241.157z M326.857,266.994l-9.491,6.817l3.671,11.094l-9.416-6.919l-9.416,6.919l3.671-11.094l-9.491-6.817l11.685,0.063l3.551-11.133l3.551,11.133L326.857,266.994z M293.95,241.202l-9.491,6.817l3.671,11.094l-9.416-6.919l-9.416,6.919l3.671-11.094l-9.491-6.817l11.685,0.063l3.551-11.133l3.551,11.133L293.95,241.202z M379.633,172.153l3.671,11.094l-9.416-6.919l-9.416,6.919l3.671-11.094l-9.491-6.817l11.685,0.063l3.551-11.133l3.551,11.133l11.685-0.063L379.633,172.153z M260.066,183.026l-9.416-6.919l-9.416,6.919l3.671-11.094l-9.491-6.817l11.685,0.063l3.551-11.133l3.551,11.133l11.685-0.063l-9.491,6.817L260.066,183.026z" />
  <path fill="#CE1126" d="M120,118.328V0h58.361v118.328H120z" />
</svg>
