<svg xmlns="http://www.w3.org/2000/svg" width="450px" height="300px" viewBox="0 0 450 300">
  <path fill="#009CDE" d="M0,150V0h225h225v300H0V150z" />
  <path fill="#012169" d="M0,0h225v150H0V0z" />
  <path fill="#FFFFFF" d="M93.75,104.271V150h37.5v-45.729L199.844,150H225l0,0v-16.771L175.156,100H225V50h-49.844L225,16.771V0l0,0h-25.156L131.25,45.729V0h-37.5v45.729L25.156,0H0v16.771L49.844,50H0v50h49.844L0,133.229V150h25.156L93.75,104.271z" />
  <path fill="#C8102E" d="M150,50h-16.771l75-50H225L150,50z M166.771,100H150l75,50v-11.18L166.771,100z M101.25,150h22.5V90H225V60H123.75V0h-22.5v60H0v30h101.25V150z M75,50L0,0v11.18L58.229,50H75z M91.771,100H75L0,150h16.771L91.771,100z" />
  <path fill="#FEDD00" d="M202.676,262.759l-14.718,10.694l5.622,17.302l-14.718-10.693l-14.719,10.694l5.622-17.303l-14.718-10.694h18.193l5.622-17.302l5.622,17.302H202.676z M259.301,249.302L264.923,232l-14.718,10.694L235.486,232l5.622,17.303l-14.719,10.694h18.193l5.622,17.302l5.622-17.302h18.193L259.301,249.302z M264.923,171.008l-14.718,10.694l-14.718-10.694l5.622,17.303l-14.719,10.694h18.193l5.622,17.302l5.622-17.302h18.193l-14.718-10.694L264.923,171.008z M322.303,233.887l5.622-17.302l-14.718,10.694l-14.718-10.694l5.622,17.303l-14.719,10.694h18.193l5.622,17.302l5.622-17.302h18.193L322.303,233.887z M307.585,111.874l5.622,17.302l5.622-17.302h18.193l-14.718-10.694l5.622-17.302l-14.718,10.694L298.49,83.878l5.622,17.303l-14.719,10.694L307.585,111.874z M360.035,187.285l-5.622-17.302l-5.622,17.302h-18.193l14.718,10.694l-5.622,17.303l14.719-10.694l14.718,10.693l-5.622-17.302l14.718-10.694L360.035,187.285L360.035,187.285z M360.534,93.777l5.622,17.302l5.622-17.302h18.193l-14.718-10.694l5.622-17.302l-14.718,10.694l-14.718-10.694l5.622,17.303l-14.719,10.694L360.534,93.777z M413.232,153.039l-5.622-17.303l-5.622,17.303h-18.193l14.718,10.694l-5.622,17.303l14.719-10.694l14.718,10.693l-5.622-17.302l14.718-10.694L413.232,153.039L413.232,153.039z M398.513,46.699l-5.622,17.303l14.719-10.694l14.718,10.693l-5.622-17.302l14.718-10.694h-18.193l-5.622-17.302l-5.622,17.302h-18.193L398.513,46.699z" />
</svg>
