<svg xmlns="http://www.w3.org/2000/svg" width="450px" height="300px" viewBox="0 0 450 300">
  <path fill="#FE0000" d="M225,0h225v300H0V150L225,0z" />
  <path fill="#000095" d="M0,0h225v150H0V0z" />
  <path fill="#FFFFFF" d="M140.6,82.5l28.2-7.5l-28.2-7.5l20.7-20.6L133,54.5l7.6-28.2L120,46.9l-7.5-28.2L105,46.9L84.4,26.3L92,54.5l-28.2-7.6l20.7,20.6L56.2,75l28.2,7.5l-20.7,20.6L92,95.5l-7.6,28.2L105,103l7.5,28.2L120,103l20.6,20.7L133,95.5l28.2,7.6L140.6,82.5z" />
  <path fill="#000095" d="M112.5,43.1c17.618,0,31.9,14.282,31.9,31.9s-14.282,31.9-31.9,31.9S80.6,92.618,80.6,75S94.882,43.1,112.5,43.1z" />
  <path fill="#FFFFFF" d="M112.5,46.9c15.519,0,28.1,12.581,28.1,28.1s-12.581,28.1-28.1,28.1S84.4,90.519,84.4,75S96.981,46.9,112.5,46.9z" />
</svg>
