<svg xmlns="http://www.w3.org/2000/svg" width="450px" height="300px" viewBox="0 0 450 300">
  <path fill="#B22234" d="M228,0h222v300H0V161.5L228,0z" />
  <path fill="#FFFFFF" d="M450,276.9H0v-23.1h450V276.9z M450,230.8H0v-23.1h450V230.8z M450,184.6H0v-23.1h450V184.6z M450,138.5H0v-23.1h450V138.5z M450,92.3H0V69.2h450V92.3z M450,46.2H0V23.1h450V46.2z" />
  <path fill="#3C3B6E" d="M0,0h228v161.5H0V0z" />
  <path fill="#FFFFFF" d="M21.1,13.3h6.7l-5.4,3.9l2.1,6.4L19,19.7l-5.4,3.9l2.1-6.4l-5.4-3.9H17l2-6.4L21.1,13.3z M19,39.2l-2.1,6.4h-6.7l5.4,3.9l-2.1,6.4L19,52l5.4,3.9l-2.1-6.4l5.4-3.9H21L19,39.2z M19,71.5l-2.1,6.4h-6.7l5.4,3.9l-2.1,6.4l5.4-3.9l5.4,3.9l-2.1-6.4l5.4-3.9h-6.7L19,71.5z M19,103.8l-2.1,6.4h-6.7l5.4,3.9l-2.1,6.4l5.4-3.9l5.4,3.9l-2.1-6.4l5.4-3.9h-6.7L19,103.8z M21.1,142.5l-2.1-6.4l-2.1,6.4h-6.7l5.4,3.9l-2.1,6.4l5.4-3.9l5.4,3.9l-2.1-6.4l5.4-3.9H21.1z M38,23.1l-2.1,6.4h-6.7l5.4,3.9l-2.1,6.4l5.4-3.9l5.4,3.9l-2.1-6.4l5.4-3.9h-6.7L38,23.1z M38,55.4l-2.1,6.4h-6.7l5.4,3.9l-2.1,6.4l5.4-3.9l5.4,3.9l-2.1-6.4l5.4-3.9h-6.7L38,55.4z M38,87.7l-2.1,6.4h-6.7l5.4,3.9l-2.1,6.4l5.4-3.9l5.4,3.9L41.4,98l5.4-3.9h-6.7L38,87.7z M40.1,126.4L38,120l-2.1,6.4h-6.7l5.4,3.9l-2.1,6.4l5.4-3.9l5.4,3.9l-2.1-6.4l5.4-3.9H40.1L40.1,126.4z M57,6.9l-2.1,6.4h-6.7l5.4,3.9l-2.1,6.4l5.4-3.9l5.4,3.9l-2.1-6.4l5.4-3.9h-6.7L57,6.9z M57,39.2l-2.1,6.4h-6.7l5.4,3.9l-2.1,6.4L57,52l5.4,3.9l-2.1-6.4l5.4-3.9H59L57,39.2z M57,71.5l-2.1,6.4h-6.7l5.4,3.9l-2.1,6.4l5.4-3.9l5.4,3.9l-2.1-6.4l5.4-3.9h-6.7L57,71.5z M57,103.8l-2.1,6.4h-6.7l5.4,3.9l-2.1,6.4l5.4-3.9l5.4,3.9l-2.1-6.4l5.4-3.9h-6.7L57,103.8z M59.1,142.5l-2.1-6.4l-2.1,6.4h-6.7l5.4,3.9l-2.1,6.4l5.4-3.9l5.4,3.9l-2.1-6.4l5.4-3.9H59.1z M76,23.1l-2.1,6.4h-6.7l5.4,3.9l-2.1,6.4l5.4-3.9l5.4,3.9l-2.1-6.4l5.4-3.9h-6.7L76,23.1z M76,55.4l-2.1,6.4h-6.7l5.4,3.9l-2.1,6.4l5.4-3.9l5.4,3.9l-2.1-6.4l5.4-3.9h-6.7L76,55.4z M76,87.7l-2.1,6.4h-6.7l5.4,3.9l-2.1,6.4l5.4-3.9l5.4,3.9L79.4,98l5.4-3.9h-6.7L76,87.7z M78.1,126.4L76,120l-2.1,6.4h-6.7l5.4,3.9l-2.1,6.4l5.4-3.9l5.4,3.9l-2.1-6.4l5.4-3.9H78.1L78.1,126.4z M95,6.9l-2.1,6.4h-6.7l5.4,3.9l-2.1,6.4l5.4-3.9l5.4,3.9l-2.1-6.4l5.4-3.9h-6.7L95,6.9z M95,39.2l-2.1,6.4h-6.7l5.4,3.9l-2.1,6.4L95,52l5.4,3.9l-2.1-6.4l5.4-3.9H97L95,39.2z M95,71.5l-2.1,6.4h-6.7l5.4,3.9l-2.1,6.4l5.4-3.9l5.4,3.9l-2.1-6.4l5.4-3.9h-6.7L95,71.5z M95,103.8l-2.1,6.4h-6.7l5.4,3.9l-2.1,6.4l5.4-3.9l5.4,3.9l-2.1-6.4l5.4-3.9h-6.7L95,103.8z M97.1,142.5l-2.1-6.4l-2.1,6.4h-6.7l5.4,3.9l-2.1,6.4l5.4-3.9l5.4,3.9l-2.1-6.4l5.4-3.9H97.1z M114,23.1l-2.1,6.4h-6.7l5.4,3.9l-2.1,6.4l5.4-3.9l5.4,3.9l-2.1-6.4l5.4-3.9h-6.7L114,23.1z M114,55.4l-2.1,6.4h-6.7l5.4,3.9l-2.1,6.4l5.4-3.9l5.4,3.9l-2.1-6.4l5.4-3.9h-6.7L114,55.4z M114,87.7l-2.1,6.4h-6.7l5.4,3.9l-2.1,6.4l5.4-3.9l5.4,3.9l-2.1-6.4l5.4-3.9h-6.7L114,87.7z M116.1,126.4L114,120l-2.1,6.4h-6.7l5.4,3.9l-2.1,6.4l5.4-3.9l5.4,3.9l-2.1-6.4l5.4-3.9C122.8,126.4,116.1,126.4,116.1,126.4z M133,6.9l-2.1,6.4h-6.7l5.4,3.9l-2.1,6.4l5.4-3.9l5.4,3.9l-2.1-6.4l5.4-3.9h-6.7L133,6.9z M133,39.2l-2.1,6.4h-6.7l5.4,3.9l-2.1,6.4L133,52l5.4,3.9l-2.1-6.4l5.4-3.9H135L133,39.2z M133,71.5l-2.1,6.4h-6.7l5.4,3.9l-2.1,6.4l5.4-3.9l5.4,3.9l-2.1-6.4l5.4-3.9h-6.7L133,71.5z M133,103.8l-2.1,6.4h-6.7l5.4,3.9l-2.1,6.4l5.4-3.9l5.4,3.9l-2.1-6.4l5.4-3.9h-6.7L133,103.8z M135.1,142.5l-2.1-6.4l-2.1,6.4h-6.7l5.4,3.9l-2.1,6.4l5.4-3.9l5.4,3.9l-2.1-6.4l5.4-3.9H135.1z M152,23.1l-2.1,6.4h-6.7l5.4,3.9l-2.1,6.4l5.4-3.9l5.4,3.9l-2.1-6.4l5.4-3.9h-6.7L152,23.1z M152,55.4l-2.1,6.4h-6.7l5.4,3.9l-2.1,6.4l5.4-3.9l5.4,3.9l-2.1-6.4l5.4-3.9h-6.7L152,55.4z M152,87.7l-2.1,6.4h-6.7l5.4,3.9l-2.1,6.4l5.4-3.9l5.4,3.9l-2.1-6.4l5.4-3.9h-6.7L152,87.7z M154.1,126.4L152,120l-2.1,6.4h-6.7l5.4,3.9l-2.1,6.4l5.4-3.9l5.4,3.9l-2.1-6.4l5.4-3.9C160.8,126.4,154.1,126.4,154.1,126.4z M171,6.9l-2.1,6.4h-6.7l5.4,3.9l-2.1,6.4l5.4-3.9l5.4,3.9l-2.1-6.4l5.4-3.9h-6.7L171,6.9z M171,39.2l-2.1,6.4h-6.7l5.4,3.9l-2.1,6.4L171,52l5.4,3.9l-2.1-6.4l5.4-3.9H173L171,39.2z M171,71.5l-2.1,6.4h-6.7l5.4,3.9l-2.1,6.4l5.4-3.9l5.4,3.9l-2.1-6.4l5.4-3.9h-6.7L171,71.5z M171,103.8l-2.1,6.4h-6.7l5.4,3.9l-2.1,6.4l5.4-3.9l5.4,3.9l-2.1-6.4l5.4-3.9h-6.7L171,103.8z M173.1,142.5l-2.1-6.4l-2.1,6.4h-6.7l5.4,3.9l-2.1,6.4l5.4-3.9l5.4,3.9l-2.1-6.4l5.4-3.9H173.1z M190,23.1l-2.1,6.4h-6.7l5.4,3.9l-2.1,6.4l5.4-3.9l5.4,3.9l-2.1-6.4l5.4-3.9h-6.7L190,23.1z M190,55.4l-2.1,6.4h-6.7l5.4,3.9l-2.1,6.4l5.4-3.9l5.4,3.9l-2.1-6.4l5.4-3.9h-6.7L190,55.4z M190,87.7l-2.1,6.4h-6.7l5.4,3.9l-2.1,6.4l5.4-3.9l5.4,3.9l-2.1-6.4l5.4-3.9h-6.7L190,87.7z M192.1,126.4L190,120l-2.1,6.4h-6.7l5.4,3.9l-2.1,6.4l5.4-3.9l5.4,3.9l-2.1-6.4l5.4-3.9C198.8,126.4,192.1,126.4,192.1,126.4z M205.6,17.2l-2.1,6.4l5.4-3.9l5.4,3.9l-2.1-6.4l5.4-3.9h-6.7L209,6.9l-2.1,6.4h-6.7L205.6,17.2z M209,39.2l-2.1,6.4h-6.7l5.4,3.9l-2.1,6.4L209,52l5.4,3.9l-2.1-6.4l5.4-3.9H211L209,39.2z M209,71.5l-2.1,6.4h-6.7l5.4,3.9l-2.1,6.4l5.4-3.9l5.4,3.9l-2.1-6.4l5.4-3.9h-6.7L209,71.5z M209,103.8l-2.1,6.4h-6.7l5.4,3.9l-2.1,6.4l5.4-3.9l5.4,3.9l-2.1-6.4l5.4-3.9h-6.7L209,103.8z M211.1,142.5l-2.1-6.4l-2.1,6.4h-6.7l5.4,3.9l-2.1,6.4l5.4-3.9l5.4,3.9l-2.1-6.4l5.4-3.9H211.1z" />
</svg>
