<svg xmlns="http://www.w3.org/2000/svg" width="450px" height="300px" viewBox="0 0 450 300">
  <path fill="#00843D" d="M0,0h450v300H0V0z" />
  <path fill="#1EB53A" d="M0,0h450v300H0V0z" />
  <path fill="#0099B5" d="M0,0h450v150H0V0z" />
  <path fill="#CE1126" d="M0,96h450v108H0V96z" />
  <path fill="#FFFFFF" d="M0,101.9h450v96H0V101.9z M70,83.393c-1.952,0.328-3.955,0.507-6,0.507c-19.882,0-36-16.118-36-36s16.118-36,36-36c2.045,0,4.048,0.18,6,0.507C52.975,15.265,40,30.063,40,47.9S52.975,80.535,70,83.393z M144.816,74.475L143.2,69.5l-1.616,4.975h-5.231l4.232,3.075l-1.616,4.975l4.232-3.075l4.232,3.075l-1.616-4.975l4.232-3.075H144.816z M143.2,40.7l-1.616,4.975h-5.231l4.232,3.075l-1.616,4.975l4.232-3.075l4.232,3.075l-1.616-4.975l4.232-3.075h-5.231L143.2,40.7z M143.2,11.9l-1.616,4.975h-5.231l4.232,3.075l-1.616,4.975l4.232-3.075l4.232,3.075l-1.616-4.975l4.232-3.075h-5.231L143.2,11.9z M173.616,74.475L172,69.5l-1.616,4.975h-5.231l4.232,3.075l-1.616,4.975L172,79.45l4.232,3.075l-1.616-4.975l4.232-3.075H173.616z M172,40.7l-1.616,4.975h-5.231l4.232,3.075l-1.616,4.975L172,50.65l4.232,3.075l-1.616-4.975l4.232-3.075h-5.231L172,40.7z M172,11.9l-1.616,4.975h-5.231l4.232,3.075l-1.616,4.975L172,21.85l4.232,3.075l-1.616-4.975l4.232-3.075h-5.231L172,11.9z M202.416,74.475L200.8,69.5l-1.617,4.975h-5.231l4.232,3.075l-1.616,4.975l4.232-3.075l4.232,3.075l-1.616-4.975l4.232-3.075H202.416z M200.8,40.7l-1.617,4.975h-5.231l4.232,3.075l-1.616,4.975l4.232-3.075l4.232,3.075l-1.616-4.975l4.232-3.075h-5.231L200.8,40.7z M198.184,19.95l-1.616,4.975l4.232-3.075l4.232,3.075l-1.616-4.975l4.232-3.075h-5.231L200.8,11.9l-1.617,4.975h-5.231L198.184,19.95z M87.216,74.475L85.6,69.5l-1.616,4.975h-5.231l4.232,3.075l-1.616,4.975L85.6,79.45l4.232,3.075l-1.616-4.975l4.232-3.075H87.216z M116.016,74.475L114.4,69.5l-1.616,4.975h-5.231l4.232,3.075l-1.616,4.975l4.232-3.075l4.232,3.075l-1.616-4.975l4.232-3.075H116.016z M114.4,40.7l-1.616,4.975h-5.231l4.232,3.075l-1.616,4.975l4.232-3.075l4.232,3.075l-1.616-4.975l4.232-3.075h-5.231L114.4,40.7z" />
</svg>
