<svg xmlns="http://www.w3.org/2000/svg" width="450px" height="300px" viewBox="0 0 450 300">
  <rect fill="#012169" width="450" height="300" />
  <path fill="#FFFFFF" d="M225,37.5h-49.843L225,12.578V0h-25.157L131.25,34.297V0h-37.5v34.297L25.157,0H0v12.578L49.843,37.5H0V75h49.843L0,99.922V112.5l0,0h25.156L93.75,78.203V112.5h37.5V78.203l68.594,34.297H225V99.922L175.157,75H225V37.5z" />
  <path fill="#C8102E" d="M91.77,75l-75,37.5H0l0,0L75,75H91.77z M58.23,37.5H75L0,0v8.385L58.23,37.5z M123.75,112.5v-45H225V45H123.75V0h-22.5v45H0v22.5h101.25v45H123.75z M225,0h-16.77l-75,37.5H150L225,0z M166.77,75H150l75,37.5v-8.385L166.77,75z" />
  <g>
    <path fill="#FFFFFF" d="M291.098,91.525l93.9-0.348l-0.174,83.622c0,0,3.31,12.718-39.372,32.055c15.331-1.568,32.055-17.944,32.055-17.944s6.794-8.711,10.104-3.833c3.31,4.878,6.446,7.317,8.885,9.233c2.439,1.916,4.355,7.143,0.697,10.975c-3.658,3.833-9.407,4.355-10.975-0.348c-2.439,1.22-17.421,19.338-48.082,20.209c-31.184-0.523-48.257-20.383-48.257-20.383s-4.181,6.62-10.104,1.394c-5.749-6.794-1.394-11.15-1.394-11.15s4.878-2.787,6.272-4.704c2.265-2.613,2.962-6.097,6.794-6.097c4.53,0.348,6.272,4.007,6.272,4.007s15.679,16.55,32.578,18.641c-38.151-18.294-39.545-29.618-39.37-32.405l0.174-82.925L291.098,91.525z" />
    <path fill="#006129" stroke="#000000" stroke-width="0.7077" d="M293.362,93.79l89.545-0.523v80.486c0.174,10.453-17.421,21.08-44.947,34.668c-28.397-14.634-44.773-23.519-44.947-34.842L293.362,93.79L293.362,93.79z" />
    <g>
      <path fill="none" stroke="#FFC72C" stroke-width="0.7077" d="M305.548,105.686l5.286-7.763l5.311,7.779 M305.258,121.175l5.286-7.763l5.311,7.779 M305.139,136.441l5.286-7.763l5.311,7.779 M315.158,152.973l5.286-7.763l5.311,7.779 M303.832,166.497l5.286-7.763l5.311,7.779 M304.129,182.476l5.286-7.763l5.311,7.779 M360.403,105.938l5.286-7.763l5.311,7.779 M359.899,121.143l5.286-7.763l5.311,7.779 M359.227,136.684l5.286-7.763l5.311,7.779 M359.983,151.973l5.286-7.763l5.311,7.779 M359.815,167.261l5.286-7.763l5.311,7.779 M359.899,182.634l5.286-7.763l5.311,7.779" />
      <path fill="#FFC72C" stroke="#000000" stroke-width="0.3539" d="M306.542,111.42l8.194,0.023c0,0,0.128-1.063-0.856-1.71c4.292-0.59,3.177-4.376,6.772-4.591c0.697,0.107-1.878,1.61-1.878,1.61s-2.167,1.529-1.18,2.307c0.784,0.617,1.127-0.375,1.234-1.127s3.487-1.234,3.004-3.38c-0.805-1.77-5.526,1.18-5.526,1.18l-3.368-0.019c-0.21-0.378-1.138-1.894-2.097-1.901c-1.137,0.041-1.938,1.92-1.938,1.92h-4.882h-2.736c0,0-0.261,1.955,3.602,2.33c0.87,1.136,1.544,1.453,2.3,1.747C306.681,110.23,306.539,110.738,306.542,111.42L306.542,111.42z M306.252,126.909l8.194,0.023c0,0,0.128-1.063-0.856-1.71c4.292-0.59,3.177-4.376,6.772-4.591c0.697,0.107-1.878,1.61-1.878,1.61s-2.167,1.529-1.18,2.307c0.784,0.617,1.127-0.375,1.234-1.127c0.107-0.751,3.487-1.234,3.004-3.38c-0.805-1.77-5.526,1.18-5.526,1.18l-3.368-0.019c-0.21-0.378-1.138-1.894-2.097-1.901c-1.137,0.042-1.938,1.92-1.938,1.92h-4.882h-2.736c0,0-0.261,1.955,3.602,2.33c0.87,1.136,1.544,1.453,2.3,1.747C306.392,125.719,306.25,126.227,306.252,126.909L306.252,126.909z M306.133,142.174l8.194,0.023c0,0,0.128-1.063-0.856-1.71c4.292-0.59,3.177-4.376,6.772-4.591c0.697,0.107-1.878,1.609-1.878,1.609s-2.167,1.529-1.18,2.307c0.784,0.617,1.127-0.375,1.234-1.127c0.107-0.751,3.487-1.234,3.004-3.38c-0.805-1.77-5.526,1.18-5.526,1.18l-3.368-0.019c-0.21-0.378-1.138-1.894-2.097-1.901c-1.137,0.041-1.938,1.92-1.938,1.92h-4.882h-2.736c0,0-0.261,1.955,3.602,2.33c0.87,1.136,1.544,1.453,2.3,1.747C306.273,140.985,306.131,141.493,306.133,142.174L306.133,142.174z M316.152,158.707l8.194,0.023c0,0,0.128-1.063-0.856-1.71c4.292-0.59,3.177-4.376,6.772-4.591c0.697,0.107-1.878,1.61-1.878,1.61s-2.167,1.529-1.18,2.307c0.784,0.617,1.127-0.376,1.234-1.127c0.107-0.751,3.487-1.234,3.004-3.38c-0.805-1.77-5.526,1.18-5.526,1.18l-3.368-0.019c-0.21-0.378-1.138-1.894-2.097-1.901c-1.137,0.042-1.938,1.92-1.938,1.92h-4.882h-2.736c0,0-0.261,1.955,3.602,2.33c0.87,1.136,1.544,1.453,2.3,1.747C316.291,157.517,316.149,158.025,316.152,158.707L316.152,158.707z M304.826,172.231l8.194,0.023c0,0,0.128-1.063-0.856-1.71c4.292-0.59,3.177-4.376,6.772-4.591c0.697,0.107-1.878,1.61-1.878,1.61s-2.167,1.529-1.18,2.307c0.784,0.617,1.127-0.376,1.234-1.127c0.107-0.751,3.487-1.234,3.004-3.38c-0.805-1.77-5.526,1.18-5.526,1.18l-3.368-0.019c-0.21-0.378-1.138-1.894-2.097-1.901c-1.137,0.042-1.938,1.92-1.938,1.92h-4.882h-2.736c0,0-0.261,1.955,3.602,2.33c0.87,1.136,1.544,1.453,2.3,1.747C304.966,171.041,304.824,171.549,304.826,172.231L304.826,172.231z M305.123,188.21l8.194,0.023c0,0,0.128-1.063-0.856-1.71c4.292-0.59,3.177-4.376,6.772-4.591c0.697,0.107-1.878,1.61-1.878,1.61s-2.167,1.529-1.18,2.307c0.784,0.617,1.127-0.376,1.234-1.127c0.107-0.751,3.487-1.234,3.004-3.38c-0.805-1.77-5.526,1.18-5.526,1.18l-3.368-0.019c-0.21-0.378-1.138-1.894-2.097-1.901c-1.137,0.042-1.938,1.92-1.938,1.92h-4.882h-2.736c0,0-0.261,1.955,3.602,2.33c0.87,1.136,1.544,1.453,2.3,1.747C305.263,187.02,305.121,187.528,305.123,188.21L305.123,188.21z M361.396,111.672l8.194,0.023c0,0,0.128-1.063-0.856-1.71c4.292-0.59,3.177-4.376,6.772-4.591c0.697,0.107-1.878,1.61-1.878,1.61s-2.167,1.529-1.18,2.307c0.784,0.617,1.127-0.375,1.234-1.127c0.107-0.751,3.487-1.234,3.004-3.38c-0.805-1.77-5.526,1.18-5.526,1.18l-3.368-0.019c-0.21-0.378-1.138-1.894-2.097-1.901c-1.137,0.042-1.938,1.92-1.938,1.92h-4.882h-2.736c0,0-0.261,1.955,3.602,2.33c0.87,1.136,1.544,1.453,2.3,1.747C361.536,110.482,361.394,110.99,361.396,111.672L361.396,111.672z M360.892,126.876l8.194,0.023c0,0,0.128-1.063-0.856-1.71c4.292-0.59,3.177-4.376,6.772-4.591c0.697,0.107-1.878,1.61-1.878,1.61s-2.167,1.529-1.18,2.307c0.784,0.617,1.127-0.375,1.234-1.127c0.107-0.751,3.487-1.234,3.004-3.38c-0.805-1.77-5.526,1.18-5.526,1.18l-3.368-0.019c-0.21-0.378-1.138-1.894-2.097-1.901c-1.137,0.042-1.938,1.92-1.938,1.92h-4.882h-2.736c0,0-0.261,1.955,3.602,2.33c0.87,1.136,1.544,1.453,2.3,1.747C361.032,125.687,360.89,126.195,360.892,126.876L360.892,126.876z M360.22,142.418l8.194,0.023c0,0,0.128-1.063-0.856-1.71c4.292-0.59,3.177-4.376,6.772-4.591c0.697,0.107-1.878,1.61-1.878,1.61s-2.167,1.529-1.18,2.307c0.784,0.617,1.127-0.376,1.234-1.127c0.107-0.751,3.487-1.234,3.004-3.38c-0.805-1.77-5.526,1.18-5.526,1.18l-3.368-0.019c-0.21-0.378-1.138-1.894-2.097-1.901c-1.137,0.042-1.938,1.92-1.938,1.92h-4.882h-2.736c0,0-0.261,1.955,3.602,2.33c0.87,1.136,1.544,1.453,2.3,1.747C360.36,141.228,360.218,141.736,360.22,142.418L360.22,142.418z M360.976,157.706l8.194,0.023c0,0,0.128-1.063-0.856-1.71c4.292-0.59,3.177-4.376,6.772-4.591c0.697,0.107-1.878,1.61-1.878,1.61s-2.167,1.529-1.18,2.307c0.784,0.617,1.127-0.376,1.234-1.127c0.107-0.751,3.487-1.234,3.004-3.38c-0.805-1.77-5.526,1.18-5.526,1.18l-3.368-0.019c-0.21-0.378-1.138-1.894-2.097-1.901c-1.137,0.042-1.938,1.92-1.938,1.92h-4.882h-2.736c0,0-0.261,1.955,3.602,2.33c0.87,1.136,1.544,1.453,2.3,1.747C361.116,156.517,360.974,157.025,360.976,157.706L360.976,157.706z M360.808,172.995l8.194,0.023c0,0,0.128-1.063-0.856-1.71c4.292-0.59,3.177-4.376,6.772-4.591c0.697,0.107-1.878,1.609-1.878,1.609s-2.167,1.529-1.18,2.307c0.784,0.617,1.127-0.375,1.234-1.127c0.107-0.751,3.487-1.234,3.004-3.38c-0.805-1.77-5.526,1.18-5.526,1.18l-3.368-0.019c-0.21-0.378-1.138-1.894-2.097-1.901c-1.137,0.041-1.938,1.92-1.938,1.92h-4.882h-2.736c0,0-0.261,1.955,3.602,2.33c0.87,1.136,1.544,1.453,2.3,1.747C360.948,171.806,360.806,172.314,360.808,172.995L360.808,172.995z M360.892,188.368l8.194,0.023c0,0,0.128-1.063-0.856-1.71c4.292-0.59,3.177-4.376,6.772-4.591c0.697,0.107-1.878,1.61-1.878,1.61s-2.167,1.529-1.18,2.307c0.784,0.617,1.127-0.376,1.234-1.127c0.107-0.751,3.487-1.234,3.004-3.38c-0.805-1.77-5.526,1.18-5.526,1.18l-3.368-0.019c-0.21-0.378-1.138-1.894-2.097-1.901c-1.137,0.042-1.938,1.92-1.938,1.92h-4.882h-2.736c0,0-0.261,1.955,3.602,2.33c0.87,1.136,1.544,1.453,2.3,1.747C361.032,187.178,360.89,187.686,360.892,188.368L360.892,188.368z" />
      <path fill="none" stroke="#000000" stroke-width="0.3539" d="M306.723,140.511l6.825-0.023 M306.842,125.246l6.825-0.023 M307.131,109.757l6.825-0.023 M316.741,157.044l6.825-0.023 M305.416,170.568l6.825-0.023 M305.713,186.546l6.825-0.023 M361.986,110.009l6.825-0.023 M361.482,125.213l6.825-0.023 M361.566,156.043l6.825-0.023 M361.398,171.332l6.825-0.023 M360.81,140.754l6.825-0.023 M361.482,186.705l6.825-0.023 M304.005,105.732c0,0,0.546,3.192,3.066,3.948 M303.716,121.221c0,0,0.546,3.192,3.066,3.948 M303.597,136.487c0,0,0.546,3.192,3.066,3.948 M313.615,153.02c0,0,0.546,3.192,3.066,3.948 M302.29,166.544c0,0,0.546,3.192,3.066,3.948 M302.587,182.522c0,0,0.546,3.192,3.066,3.948 M358.86,105.984c0,0,0.546,3.192,3.066,3.948 M358.356,121.189c0,0,0.546,3.192,3.066,3.948 M358.44,152.019c0,0,0.546,3.192,3.066,3.948 M358.272,167.308c0,0,0.546,3.192,3.066,3.948 M358.356,182.681c0,0,0.546,3.192,3.066,3.948 M357.684,136.73c0,0,0.546,3.192,3.066,3.948" />
      <path fill="#EA3323" stroke="#000000" stroke-width="0.3539" d="M303.585,105.69c0.252-1.218,0.714-1.428,1.218-2.982c0.084-1.512-1.218-1.344-0.84-2.31c0.672-1.05,0.336-2.058-0.924-2.856c0.252,1.386-1.638,2.688-1.638,3.822c0,1.134,0.966,0.882,0.84,2.604c0.084,1.008-0.252,0.756-0.336,1.722L303.585,105.69L303.585,105.69z M303.296,121.179c0.252-1.218,0.714-1.428,1.218-2.982c0.084-1.512-1.218-1.344-0.84-2.31c0.672-1.05,0.336-2.058-0.924-2.856c0.252,1.386-1.638,2.688-1.638,3.822c0,1.134,0.966,0.882,0.84,2.604c0.084,1.008-0.252,0.756-0.336,1.722L303.296,121.179L303.296,121.179z M303.177,136.445c0.252-1.218,0.714-1.428,1.218-2.982c0.084-1.512-1.218-1.344-0.84-2.31c0.672-1.05,0.336-2.058-0.924-2.856c0.252,1.386-1.638,2.688-1.638,3.822c0,1.134,0.966,0.882,0.84,2.604c0.084,1.008-0.252,0.756-0.336,1.722L303.177,136.445L303.177,136.445z M313.195,152.978c0.252-1.218,0.714-1.428,1.218-2.982c0.084-1.512-1.218-1.344-0.84-2.31c0.672-1.05,0.336-2.058-0.924-2.856c0.252,1.386-1.638,2.688-1.638,3.822c0,1.134,0.966,0.882,0.84,2.604c0.084,1.008-0.252,0.756-0.336,1.722H313.195L313.195,152.978z M301.87,166.502c0.252-1.218,0.714-1.428,1.218-2.982c0.084-1.512-1.218-1.344-0.84-2.31c0.672-1.05,0.336-2.058-0.924-2.856c0.252,1.386-1.638,2.688-1.638,3.822c0,1.134,0.966,0.882,0.84,2.604c0.084,1.008-0.252,0.756-0.336,1.722H301.87L301.87,166.502z M302.167,182.48c0.252-1.218,0.714-1.428,1.218-2.982c0.084-1.512-1.218-1.344-0.84-2.31c0.672-1.05,0.336-2.058-0.924-2.856c0.252,1.386-1.638,2.688-1.638,3.822c0,1.134,0.966,0.882,0.84,2.604c0.084,1.008-0.252,0.756-0.336,1.722H302.167L302.167,182.48z M358.44,105.942c0.252-1.218,0.714-1.428,1.218-2.982c0.084-1.512-1.218-1.344-0.84-2.31c0.672-1.05,0.336-2.058-0.924-2.856c0.252,1.386-1.638,2.688-1.638,3.822c0,1.134,0.966,0.882,0.84,2.604c0.084,1.008-0.252,0.756-0.336,1.722L358.44,105.942L358.44,105.942z M357.936,121.147c0.252-1.218,0.714-1.428,1.218-2.982c0.084-1.512-1.218-1.344-0.84-2.31c0.672-1.05,0.336-2.058-0.924-2.856c0.252,1.386-1.638,2.688-1.638,3.822c0,1.134,0.966,0.882,0.84,2.604c0.084,1.008-0.252,0.756-0.336,1.722L357.936,121.147L357.936,121.147z M357.264,136.688c0.252-1.218,0.714-1.428,1.218-2.982c0.084-1.512-1.218-1.344-0.84-2.31c0.672-1.05,0.336-2.058-0.924-2.856c0.252,1.386-1.638,2.688-1.638,3.822c0,1.134,0.966,0.882,0.84,2.604c0.084,1.008-0.252,0.756-0.336,1.722H357.264L357.264,136.688z M358.02,151.977c0.252-1.218,0.714-1.428,1.218-2.982c0.084-1.512-1.218-1.344-0.84-2.31c0.672-1.05,0.336-2.058-0.924-2.856c0.252,1.386-1.638,2.688-1.638,3.822c0,1.134,0.966,0.882,0.84,2.604c0.084,1.008-0.252,0.756-0.336,1.722H358.02L358.02,151.977z M357.852,167.266c0.252-1.218,0.714-1.428,1.218-2.982c0.084-1.512-1.218-1.344-0.84-2.31c0.672-1.05,0.336-2.058-0.924-2.856c0.252,1.386-1.638,2.688-1.638,3.822c0,1.134,0.966,0.882,0.84,2.604c0.084,1.008-0.252,0.756-0.336,1.722L357.852,167.266L357.852,167.266z M357.936,182.639c0.252-1.218,0.714-1.428,1.218-2.982c0.084-1.512-1.218-1.344-0.84-2.31c0.672-1.05,0.336-2.058-0.924-2.856c0.252,1.386-1.638,2.688-1.638,3.822c0,1.134,0.966,0.882,0.84,2.604c0.084,1.008-0.252,0.756-0.336,1.722H357.936L357.936,182.639z" />
      <path fill="#FFC72C" stroke="#000000" stroke-width="0.3539" d="M311.895,102.784c0,0.58-0.47,1.05-1.05,1.05s-1.05-0.47-1.05-1.05c0-0.58,0.47-1.05,1.05-1.05S311.895,102.204,311.895,102.784z M311.811,98.121c0,0.533-0.432,0.966-0.966,0.966c-0.533,0-0.966-0.433-0.966-0.966c0-0.533,0.432-0.966,0.966-0.966C311.378,97.155,311.811,97.588,311.811,98.121z M311.605,118.273c0,0.58-0.47,1.05-1.05,1.05s-1.05-0.47-1.05-1.05c0-0.58,0.47-1.05,1.05-1.05S311.605,117.693,311.605,118.273z M311.521,113.61c0,0.533-0.432,0.966-0.966,0.966c-0.533,0-0.966-0.433-0.966-0.966c0-0.533,0.432-0.966,0.966-0.966S311.521,113.077,311.521,113.61z M311.486,133.539c0,0.58-0.47,1.05-1.05,1.05s-1.05-0.47-1.05-1.05c0-0.58,0.47-1.05,1.05-1.05S311.486,132.959,311.486,133.539z M311.402,128.876c0,0.533-0.432,0.966-0.966,0.966s-0.966-0.433-0.966-0.966c0-0.533,0.432-0.966,0.966-0.966C310.97,127.91,311.402,128.343,311.402,128.876z M321.505,150.071c0,0.58-0.47,1.05-1.05,1.05s-1.05-0.47-1.05-1.05c0-0.58,0.47-1.05,1.05-1.05S321.505,149.491,321.505,150.071z M321.421,145.409c0,0.533-0.432,0.966-0.966,0.966c-0.533,0-0.966-0.433-0.966-0.966c0-0.533,0.432-0.966,0.966-0.966S321.421,144.875,321.421,145.409z M310.179,163.595c0,0.58-0.47,1.05-1.05,1.05s-1.05-0.47-1.05-1.05c0-0.58,0.47-1.05,1.05-1.05S310.179,163.015,310.179,163.595z M310.095,158.932c0,0.533-0.432,0.966-0.966,0.966c-0.533,0-0.966-0.433-0.966-0.966c0-0.533,0.432-0.966,0.966-0.966S310.095,158.399,310.095,158.932z M310.476,179.574c0,0.58-0.47,1.05-1.05,1.05s-1.05-0.47-1.05-1.05c0-0.58,0.47-1.05,1.05-1.05S310.476,178.994,310.476,179.574z M310.392,174.911c0,0.533-0.432,0.966-0.966,0.966c-0.533,0-0.966-0.433-0.966-0.966c0-0.533,0.432-0.966,0.966-0.966C309.96,173.945,310.392,174.378,310.392,174.911z M366.75,103.036c0,0.58-0.47,1.05-1.05,1.05s-1.05-0.47-1.05-1.05c0-0.58,0.47-1.05,1.05-1.05S366.75,102.456,366.75,103.036z M366.666,98.373c0,0.533-0.432,0.966-0.966,0.966c-0.533,0-0.966-0.433-0.966-0.966c0-0.533,0.432-0.966,0.966-0.966S366.666,97.84,366.666,98.373z M366.246,118.241c0,0.58-0.47,1.05-1.05,1.05s-1.05-0.47-1.05-1.05c0-0.58,0.47-1.05,1.05-1.05S366.246,117.661,366.246,118.241z M366.162,113.578c0,0.533-0.432,0.966-0.966,0.966c-0.533,0-0.966-0.433-0.966-0.966c0-0.533,0.432-0.966,0.966-0.966S366.162,113.045,366.162,113.578z M365.574,133.782c0,0.58-0.47,1.05-1.05,1.05s-1.05-0.47-1.05-1.05c0-0.58,0.47-1.05,1.05-1.05S365.574,133.202,365.574,133.782z M365.49,129.119c0,0.533-0.432,0.966-0.966,0.966c-0.534,0-0.966-0.433-0.966-0.966c0-0.533,0.432-0.966,0.966-0.966C365.057,128.153,365.49,128.586,365.49,129.119z M366.33,149.07c0,0.58-0.47,1.05-1.05,1.05s-1.05-0.47-1.05-1.05c0-0.58,0.47-1.05,1.05-1.05S366.33,148.491,366.33,149.07z M366.246,144.408c0,0.533-0.432,0.966-0.966,0.966c-0.533,0-0.966-0.433-0.966-0.966c0-0.533,0.432-0.966,0.966-0.966C365.813,143.442,366.246,143.875,366.246,144.408z M366.162,164.359c0,0.58-0.47,1.05-1.05,1.05s-1.05-0.47-1.05-1.05c0-0.58,0.47-1.05,1.05-1.05S366.162,163.779,366.162,164.359z M366.246,179.732c0,0.58-0.47,1.05-1.05,1.05s-1.05-0.47-1.05-1.05c0-0.58,0.47-1.05,1.05-1.05S366.246,179.152,366.246,179.732z M366.078,159.697c0,0.533-0.432,0.966-0.966,0.966c-0.533,0-0.966-0.433-0.966-0.966c0-0.533,0.432-0.966,0.966-0.966C365.645,158.731,366.078,159.163,366.078,159.697z M366.162,175.07c0,0.533-0.432,0.966-0.966,0.966c-0.533,0-0.966-0.433-0.966-0.966c0-0.533,0.432-0.966,0.966-0.966S366.162,174.536,366.162,175.07z" />
    </g>
    <g>
      <path fill="#FFC72C" stroke="#000000" stroke-width="0.3539" d="M343.441,189.868c0,0,2.138,4.93,4.574,1.901c2.435-3.029,1.544-4.336,1.544-4.336l-5.465-2.97l-1.604,3.386L343.441,189.868L343.441,189.868z" />
      <path fill="#FFC6B5" stroke="#000000" stroke-width="0.3539" d="M335.778,187.908l-4.811,2.614c0,0-2.376,0.475-2.554,0c-0.178-0.475,0.059-0.891,1.307-0.95c1.247-0.059,4.633-3.148,4.633-3.148L335.778,187.908L335.778,187.908z M335.838,102.431c0,0,0.119,1.129,0.178,1.723s-0.95,1.841-1.01,1.782s-0.535,0.059-0.475,0.416c0.059,0.356,0.772,0.475,0.772,0.475s-0.297,1.247,0,1.307c0.297,0.059-0.772,1.604,0,2.02c0.772,0.416,2.079,0.95,2.673,0.832c0.594-0.119,0,2.317,0,2.317l-1.663,3.564l9.148-0.95l-1.901-3.029c0,0-0.891-0.594-0.653-2.317c0.238-1.723-0.119-9.504-0.119-9.504l-6.534-0.891L335.838,102.431L335.838,102.431z M334.174,115.974c0,0-2.97,1.366-2.851,5.049c-0.772,3.564-1.188,7.128-1.188,7.128s-3.505,3.98-4.574,5.405c-1.069,1.426-2.673,4.336-3.267,5.108c-0.594,0.772-2.911,3.326-2.851,4.277c0.059,0.95-0.535,5.168,1.782,5.643c0.594,0.238,2.495-4.871,2.495-4.871s0.119-2.198-0.535-2.614s1.426-1.841,1.426-1.841s3.98-2.911,4.871-3.623c0.891-0.713,3.326-3.445,3.326-3.445L334.174,115.974L334.174,115.974z" />
      <path fill="#FFC72C" stroke="#000000" stroke-width="0.3539" d="M336.669,188.62c0,0-5.762,3.029-6.593,3.267c-0.832,0.238-1.366-1.01-0.535-1.247c0.832-0.238,2.138-0.356,2.138-0.356s-1.96-1.544-1.901-1.604c0.059-0.059,2.673-1.01,2.732-1.01s0.832,1.544,1.366,1.426c0.535-0.119,2.079-1.307,2.079-1.307S336.788,188.739,336.669,188.62z" />
      <path fill="#FFFFFF" stroke="#000000" stroke-width="0.3539" d="M337.56,113.183c0,0,0.772,2.079,2.495,1.723c1.723-0.356,3.742-1.96,3.742-1.96s1.604-0.059,1.841,0.178c0.238,0.238,4.336,4.217,4.217,5.465c-0.119,1.247-1.901,0.891-2.554,1.723c-0.653,0.832-1.723,2.911-1.426,4.455c0.297,1.544,1.188,3.564,1.069,4.336c-0.119,0.772-0.772,1.01-0.772,1.426c0,0.416,0.535,1.129,0.535,1.901c0,0.772-0.713,1.901-0.594,2.673c0.119,0.772,0.178,3.029,0.178,3.029l-0.178,10.454c0,0,0.594,0.356,0.653,0.95c0.059,0.594,4.039,17.879,4.039,17.879s-0.178,0.535-0.594,0.475c-0.416-0.059,1.604,2.673,1.663,3.445c0.059,0.772,2.079,6.831,2.02,7.663c-0.059,0.832-0.356,2.673-0.535,2.732c-0.178,0.059,1.307,3.802,1.069,4.396c-0.238,0.594-2.673,0.535-2.673,0.535l-0.653-0.119c0,0,0.059,0.772-0.416,0.832c-0.475,0.059-3.98-0.178-3.98-0.178s-1.01,1.544-1.604,1.485c-0.594-0.059-1.366-1.129-1.544-0.95c-0.178,0.178,0.535,1.188,0.356,1.485c-0.178,0.297-3.208,0.95-3.802-0.475c-0.594-1.426,0.356-1.069,0.178-1.366c-0.178-0.297-1.544-1.069-1.96-0.832c-0.416,0.238,1.069,0.594,1.01,1.188c-0.059,0.594-1.307,1.485-1.782,1.485c-0.475,0-1.604-2.198-3.267-1.96c-1.663,0.238-2.732,0.653-2.732,0.653s-1.96,0.832-2.792,0.653c-0.832-0.178-1.188-0.832-1.188-1.188c0-0.356,0.594-1.901,0.535-2.376s-0.535-0.95-0.535-1.663c0-0.713,1.366-3.148,1.366-3.148l-0.059-10.93c0,0-1.247,0-1.307-0.772c-0.059-0.772,1.901-17.285,2.198-18.355c0.297-1.069,1.069-4.871,1.069-4.871s-0.891,0.416-0.95,0c-0.059-0.416,2.673-9.86,2.673-9.86s0.475-4.693,0.475-5.94c0-1.247-0.238-2.97-0.238-2.97s-2.439-1.032-2.495-2.614c-0.223-2.516,2.317-3.92,2.614-4.752c0.297-0.832,1.188-3.326,1.188-3.326S335.422,113.539,337.56,113.183z" />
      <path fill="#FFC6B5" stroke="#000000" stroke-width="0.3539" d="M348.134,189.214c0,0,0.356,0.059,0.653-0.475s-0.653-0.772-1.069-1.366l-0.475,0.95L348.134,189.214z M344.787,190.284c0.545,0.703,0.758,1.921,2.005,1.208c1.247-0.713-0.639-2.036-0.639-2.036L344.787,190.284L344.787,190.284z M347.064,190.165c0,0,0.594,0.475,1.129-0.059c0.535-0.535-1.069-1.663-1.069-1.663l-0.772,0.891L347.064,190.165z M349.619,118.86c0.059,0,1.96,5.881,2.198,7.366c0.238,1.485,1.01,7.425,0.713,8.257c-0.297,0.832-3.326,4.811-3.683,5.821c-0.356,1.01-2.495,4.871-2.495,4.871s-0.535,3.802-0.772,3.98c-0.238,0.178,0.613,1.111,0.535,1.426c-0.118,0.354-1.723,2.02-2.435,1.841c-0.713-0.178-1.841-1.01-1.901-1.782s0.059-3.326,0.594-3.98c0.535-0.653,3.326-7.247,3.505-7.663c0.178-0.416,2.554-5.584,2.614-6.475c0.059-0.891-0.739-2.951-1.579-3.707C345.041,123.312,345.776,119.994,349.619,118.86L349.619,118.86z" />
      <path fill="#9C5100" stroke="#000000" stroke-width="0.3539" d="M335.659,102.075c0,0,1.307,0.178,2.02-0.238c0.713-0.416,1.544-0.594,2.138,0.238c0.594,0.832,1.01,0.772,1.01,0.772s-0.891,2.198,0,2.435c0.891,0.238,1.307,0.238,1.366,0.535c0.059,0.297-0.772,0.95-0.535,1.247c0.238,0.297,0.653,0.653,0.713,0.891c0.059,0.238-0.535,1.247-0.356,1.485c0.178,0.238,0.713,1.188,1.069,1.188c0.356,0,0.119,1.485,1.188,1.129c1.069-0.356,1.01-1.307,1.01-1.307s1.129-0.178,1.426-1.188c0.297-1.01,1.01-1.247,1.01-1.247s1.426-0.772-0.475-1.96c0-8.316-5.465-7.425-5.465-7.425s-0.653-1.485-1.723-1.307s-1.129,1.426-1.901,1.307c-0.772-0.119-0.95-0.653-1.01-0.594c-0.059,0.059-0.713,1.247-0.713,1.544c0,0.297-2.079-0.416-1.901,1.129C334.709,102.253,335.719,102.193,335.659,102.075L335.659,102.075z" />
      <path fill="none" stroke="#000000" stroke-width="0.3539" d="M346.47,116.093c0,0-1.188,1.307-1.247,1.307 M348.074,117.519c0,0-2.614,2.138-2.198,3.505 M335.719,115.202c0,0-0.772,1.604-0.594,2.138c0.178,0.535,1.485,2.554,1.663,3.802c0.178,1.247,0,2.138,0,2.138 M334.353,118.172c0,0,0.238,1.901,0.594,2.257s1.307,1.96,1.426,2.614 M333.878,126.072c0,0,1.544,0.772,2.97-2.198 M339.164,121.796c-0.059,0-1.129,2.911,0.772,3.98c1.901,1.069,3.326,0.95,4.158,0.653c0.832-0.297,1.723-0.832,1.723-0.832 M338.333,125.36c0,0,0.119,3.92,5.881,7.781 M338.57,129.042c0,0-0.059,3.445,2.198,4.99 M337.382,125.003c0,0-1.723,5.108-3.089,5.643 M336.848,128.745c0,0-0.059,3.683-0.535,4.99 M335.838,134.626c0,0,1.188,1.485,2.495,1.366c1.307-0.119,1.841-1.663,2.732-1.426s1.723,0.95,3.802,0.772 M341.897,136.883c0,0,0,3.029,0.535,3.326c0.535,0.297,0.297,3.089,0.297,3.089 M334.65,135.458c0,0-0.059,2.851-0.416,3.861c-0.356,1.01-1.069,2.732-0.95,4.217 M331.026,145.199c0.297-0.119,1.307-1.01,1.307-1.01 M332.868,144.843c0,0-2.554,10.93-1.841,17.464 M333.462,145.377c0,0-1.307,8.197-0.713,9.742 M332.808,145.14c0.059,0,4.99,0.356,4.99,0.356 M338.511,144.843c0,0,1.366,0.713,3.267,0.594 M337.917,148.822c0,0-0.238,14.018-0.594,17.107 M345.223,152.03c0,0,1.544,12.296,2.435,13.424 M342.253,153.575c0,0,0.95,10.87,1.485,11.821 M328.769,169.197c0,0,1.841-0.594,3.505-2.376c1.901,2.554,4.811,0.119,4.811,0.119s4.514,3.089,6.534-0.356c3.089,2.02,4.633-0.297,4.633-0.297s1.129,1.723,1.96,1.544 M345.282,169.018c0,0,2.317,10.87,5.762,13.959 M333.343,167.89c0,0,0.297,9.088,0.832,15.503 M332.927,178.166c0,0-0.297,5.94-0.653,6.356 M345.282,115.499c0,0-5.287,3.386-5.168,4.574 M329.423,185.116c0,0,0.653,2.554,3.92,0.178c3.267-2.376,3.326,0.891,3.445,1.247c0.119,0.356,0.653,2.911,1.901,0.772 M341.303,183.809c0,0-0.535,5.287,4.158,1.426c4.693-3.861,5.465-0.059,5.584,1.129 M341.362,100.055c0,0-0.416,2.614,2.376,2.376c-0.356,1.426,0.713,1.901,0.713,1.901 M346.53,105.936c0.059,0,1.247,0.772-0.059,1.723 M342.491,108.015c0,0,0.594,0.713,1.247,0.535c0.653-0.178,1.723,0.653,1.723,0.653s0.891,0.297,1.01,0.119 M338.867,110.272c0,0,2.02,0.772,3.326-2.435 M335.125,106.886l1.188,0.059 M321.946,144.346l0.093,2.603 M319.505,144.153c0,0,1.669,2.791,1.529,4.279 M335.303,108.074h1.069l-0.95,0.416 M341.874,149.986c0,0,1.248-0.131,1.209,1.952c0.797-2.588,2.417-2.65,2.417-2.65" />
      <path fill="none" stroke="#000000" stroke-width="0.637" stroke-linejoin="round" d="M336.788,104.748c0.178,0,0.832-0.238,0.95-0.059C337.857,104.866,337.026,104.985,336.788,104.748z" />
    </g>
    <g>
      <path fill="#FFC72C" stroke="#000000" stroke-width="0.7077" d="M337.612,209.467c25.087-0.697,41.288-18.815,41.114-18.989c-0.174-0.174,3.31-5.052,6.097-4.355c2.787,0.697,6.794,8.885,11.672,10.627c2.439,3.833-0.697,7.317-1.742,8.014c-1.045,0.697-5.749,2.613-6.446-0.174c-0.697-2.787-2.091-2.265-2.091-2.265s-22.299,21.777-48.082,20.906c-26.654,0.174-48.605-20.905-48.605-20.905l-1.916,2.091c0,0-2.091,2.265-3.136,2.091c-1.045-0.174-5.575-3.136-5.923-6.097c-0.348-2.962,2.787-4.878,2.787-4.878s7.665-5.923,8.536-9.059c1.742-1.742,5.052,1.219,5.052,1.219S315.139,210.861,337.612,209.467L337.612,209.467z" />
      <path fill="none" stroke="#000000" stroke-width="0.7077" d="M280.821,195.992c0,0,2.073-0.553,2.833,0.311c0.76,0.864,5.977,5.977,5.977,5.977 M285.554,198.411l-2.073,1.555c0,0,5.217,1.036,4.042,4.457 M394.628,195.819c0,0-1.037-0.553-2.66,0.656c-1.624,1.209-5.735,5.804-5.735,5.804 M389.963,198.273l2.246,1.727c0,0-4.699,0.311-3.662,4.768" />
      <path fill="#000000" d="M306.58,201.592c-0.786,0.03-1.438,0.542-2.11,0.892c-2.301,1.341-4.602,2.683-6.903,4.024c-0.232-0.076-0.177-0.264-0.12-0.452c0.613-2.874,1.25-5.743,1.847-8.62c0.099-0.503,0.258-1.129-0.228-1.495c-0.207-0.141,0.113-0.427,0.246-0.167c1.176,0.839,2.352,1.678,3.529,2.516c-0.113,0.332-0.314,0.099-0.514-0.036c-0.488-0.47-1.077-0.036-1.063,0.558c-0.42,1.894-0.829,3.791-1.244,5.687c1.562-0.929,3.142-1.828,4.69-2.779c0.552-0.246,0.96-0.987,0.386-1.446c-0.218-0.128-0.579-0.48-0.219-0.533c0.833,0.594,1.666,1.188,2.499,1.782C307.238,201.918,306.879,201.513,306.58,201.592z M309.898,203.046c-0.192,0.182,0.032,0.242,0.184,0.324c0.449,0.196,0.807,0.761,0.486,1.219c-0.671,1.293-1.392,2.561-2.085,3.843c-0.509,0.906-0.973,1.839-1.522,2.72c-0.273,0.447-0.887,0.351-1.261,0.095c-0.171-0.154-0.283-0.107-0.346,0.107c1.384,0.757,2.769,1.514,4.153,2.271c0.171,0.154,0.283,0.107,0.346-0.107c-0.093-0.051-0.185-0.101-0.278-0.152c-0.456-0.193-0.813-0.761-0.493-1.223c0.671-1.293,1.393-2.561,2.085-3.843c0.509-0.906,0.973-1.839,1.522-2.72c0.277-0.444,0.892-0.347,1.268-0.092c0.171,0.154,0.283,0.107,0.346-0.107c-1.327-0.726-2.654-1.451-3.981-2.177C310.188,203.175,309.991,202.932,309.898,203.046z M324.704,212.937c0.376-1.055,0.752-2.111,1.128-3.166c-0.082-0.029-0.163-0.058-0.245-0.087c-0.297,0.554-0.996,0.553-1.357,0.066c-0.596-0.543-1.262-1.019-2.033-1.279c-1.409-0.572-3.066-0.575-4.423,0.147c-1.478,0.708-2.477,2.209-2.716,3.812c-0.309,1.873,0.753,3.782,2.322,4.771c1.614,0.933,3.526,1.326,5.38,1.195c0.168-0.472,0.336-0.944,0.504-1.416c0.193-0.443,0.237-1.057,0.747-1.252c0.319-0.203,0.894,0.347,0.944-0.163c-1.38-0.491-2.759-0.983-4.139-1.474c-0.178-0.165-0.347,0.023-0.279,0.177c0.437,0.121,0.983,0.44,0.891,0.969c-0.226,0.812-0.549,1.594-0.82,2.393c-0.768,0.022-1.552-0.15-2.199-0.576c-0.815-0.492-1.244-1.45-1.188-2.384c0.083-1.643,0.674-3.262,1.645-4.588c0.643-0.89,1.798-1.454,2.893-1.156c1.432,0.305,2.483,1.635,2.648,3.06C324.549,212.296,324.242,212.888,324.704,212.937z M328.985,210.916c0.248,0.041,0.504,0.058,0.735,0.167c0.407,0.153,0.541,0.597,0.441,0.99c-0.259,1.823-0.549,3.641-0.82,5.463c-0.116,0.652-0.155,1.323-0.356,1.956c-0.198,0.443-0.749,0.45-1.16,0.366c-0.202-0.094-0.22,0.06-0.229,0.228c1.58,0.239,3.159,0.479,4.739,0.718c0.202,0.094,0.22-0.06,0.229-0.228h0c-0.249-0.041-0.505-0.059-0.738-0.165c-0.409-0.148-0.544-0.601-0.444-0.993c0.259-1.823,0.549-3.641,0.82-5.463c0.115-0.652,0.155-1.323,0.356-1.956c0.205-0.439,0.754-0.45,1.167-0.365c0.202,0.094,0.22-0.06,0.229-0.228c-1.58-0.239-3.159-0.479-4.739-0.718C329.012,210.594,328.993,210.748,328.985,210.916z M345.358,217.468L345.358,217.468L345.358,217.468L345.358,217.468z M344.855,218.261c-0.258,0.87-0.77,1.801-1.71,2.051c-0.67,0.172-1.371,0.143-2.057,0.177c-0.47,0.087-0.834-0.314-0.799-0.768c-0.115-1.733-0.182-3.47-0.277-5.204c-0.019-0.724-0.12-1.451-0.052-2.173c0.12-0.49,0.685-0.596,1.12-0.594c0.224,0.043,0.279-0.066,0.227-0.272c-1.568,0.08-3.135,0.16-4.703,0.24c-0.13,0.042-0.436-0.075-0.368,0.145c-0.04,0.272,0.364,0.041,0.513,0.117c0.47-0.015,0.917,0.352,0.87,0.848c0.109,1.664,0.175,3.331,0.266,4.997c0.028,0.835,0.122,1.67,0.084,2.505c-0.054,0.488-0.602,0.668-1.026,0.657c-0.224-0.043-0.279,0.066-0.227,0.272c2.818-0.144,5.636-0.288,8.455-0.431c0.062-1.12,0.125-2.241,0.188-3.361c-0.034,0.002-0.067,0.003-0.101,0.005C344.885,217.439,345.024,218.026,344.855,218.261z M359.449,217.242c-1.417,0.425-2.834,0.849-4.25,1.274c-0.169,0.18-0.33-0.207-0.145-0.227c0.396-0.102,1.077-0.344,0.797-0.873c-0.373-0.548-0.828-1.038-1.241-1.557c-1.078,0.324-2.156,0.648-3.234,0.973c-0.039,0.332-0.078,0.664-0.117,0.996c-0.09,0.492,0.006,1.278,0.654,1.279c0.304,0.084,0.846-0.349,0.881,0.127c-0.941,0.282-1.882,0.565-2.823,0.847c-0.207,0.198-0.406-0.158-0.18-0.238c0.613-0.314,0.767-1.039,0.862-1.66c0.387-2.802,0.742-5.608,1.116-8.412c0.057-0.15-0.042-0.436,0.182-0.44v0c1.529,1.798,3.058,3.596,4.587,5.393c0.658,0.736,1.229,1.568,2.025,2.166C358.82,217.212,359.436,216.761,359.449,217.242z M354.223,215.438c-0.766-0.914-1.531-1.828-2.297-2.742c-0.152,1.188-0.305,2.375-0.457,3.562C352.387,215.984,353.305,215.711,354.223,215.438z M368.946,212.184c-0.461,0.328-1.176,0.219-1.368-0.363c-1.24-2.269-2.452-4.554-3.68-6.83c0.256-0.137,0.51-0.277,0.768-0.411c0.629-0.403,1.481-0.313,2.046,0.162c0.345,0.116,0.542,0.873,0.923,0.547c-0.407-0.758-0.815-1.515-1.222-2.273l0,0c-2.514,1.352-5.029,2.704-7.543,4.055c0.348,0.647,0.696,1.295,1.044,1.942c0.096,0.156,0.151,0.449,0.358,0.234c0-0.45-0.282-1.097-0.09-1.625c0.17-0.84,1.03-1.176,1.704-1.549c1.209,2.256,2.43,4.506,3.632,6.766c0.387,0.494,0.165,1.196-0.414,1.411c-0.216,0.076-0.344,0.179-0.152,0.377c0.814-0.437,1.627-0.875,2.441-1.312c0.646-0.355,1.328-0.699,1.951-1.06C369.286,211.982,369.125,212.055,368.946,212.184z M379.958,201.747c-0.115-0.136-0.171-0.55-0.372-0.283c-0.003,0.421,0.31,0.977,0.251,1.476c0.046,1.142-0.74,2.094-1.636,2.704c-0.346,0.276-0.855,0.691-1.264,0.294c-0.668-0.774-1.25-1.62-1.876-2.428c-0.283-0.257-0.303-0.49,0.114-0.623c0.558-0.405,1.287-0.221,1.807,0.149c0.369,0.087,0.621,0.896,0.969,0.499c-0.89-1.18-1.779-2.359-2.669-3.539c-0.141-0.104-0.241-0.497-0.411-0.391c-0.258,0.368,0.493,0.964,0.431,1.489c0.163,0.672-0.29,1.288-0.832,1.632c-0.779-1.033-1.558-2.066-2.337-3.099h0c0.396-0.296,0.786-0.6,1.188-0.887c0.674-0.536,1.643-0.878,2.458-0.454c0.449,0.047,0.797,0.935,1.191,0.537c-0.566-0.75-1.132-1.501-1.698-2.251c-2.068,1.56-4.136,3.12-6.204,4.679c-0.289,0.032-0.05,0.465,0.102,0.249c0.368-0.344,1.04-0.605,1.404-0.111c1.424,1.837,2.804,3.708,4.21,5.559c0.452,0.426,0.647,1.2,0.033,1.58c-0.18,0.14-0.461,0.259-0.175,0.461c2.193-1.654,4.386-3.308,6.579-4.963C380.799,203.267,380.378,202.507,379.958,201.747z" />
    </g>
  </g>
</svg>
