<svg xmlns="http://www.w3.org/2000/svg" width="450px" height="300px" viewBox="0 0 450 300">
  <path fill="#FFFFFF" d="M450,300H0V0h450V300z" />
  <path fill="#027D00" d="M450,100H0V0h450V100z" />
  <path fill="#3466FC" d="M450,300H0V200h450V300z" />
  <path fill="#F4D50B" d="M88.169,199.593c-10.383-10.075-17.835-21.892-20.547-36.233c-4.443-23.498,1.657-43.986,18.276-61.272c0.688-0.716,1.34-1.467,2.01-2.201c10.267-8.738,21.843-14.734,35.302-16.69c11.394-1.656,22.525-0.637,33.374,3.652c-12.805,1.188-24.766,4.53-34.97,12.684c-13.657,9.656-21.925,22.927-24.583,39.233c-3.971,24.362,4.13,44.467,23.179,60.155c0.472,0.389,1.06,0.638,1.594,0.953c10.205,7.966,21.976,11.447,35.633,12.178c-5.401,2.643-10.437,3.596-15.518,4.187c-19.617,2.284-37.056-2.872-52.227-15.57C89.216,200.273,88.677,199.95,88.169,199.593z" />
  <path fill="#027D00" d="M143.865,140.162c-0.572,0.159-1.144,0.318-1.717,0.476c-3.064-0.749-5.802,0.964-8.906,1.269c-0.246-1.215-0.475-2.35-0.699-3.458c1.481-0.739,2.809-0.764,4.169-0.476c0.991,0.523,1.98,0.208,2.97-0.011c1.211,0.051,2.424,0.071,3.633,0.16c0.258,0.019,0.458,0.055,0.609,0.103c0.152,0.049,0.256,0.111,0.323,0.183c0.018,0.02,0.028,0.042,0.041,0.064c0.011,0.018,0.026,0.034,0.034,0.052C144.507,138.976,143.746,139.691,143.865,140.162z M201.919,129.38c-8.345-2.235-16.281-8.045-26.385-6.135c0.322-0.524,0.447-0.877,0.693-1.096c0.618-0.553,1.29-1.045,1.971-1.585c-6.138-5.349-13.664-5.727-21.12-6.423c-0.429,1.651,1.618,1.991,0.917,3.458c-2.124,0.661-4.551-0.196-6.573,0.742c-0.654,0.859,1.105,1.075,0.005,2.213c-7.275-4.749-13.933-0.143-21.208,1.129c1.035,1.728,2.685,2.01,3.349,4.376c-7.835-1.431-14.596,1.14-22.235,4.424c3.437,0.973,5.479,4.453,7.277,4.102c5.352-1.045,10.392,2.403,15.593,0.445c1.499-0.576,2.908,0.296,4.373,0.27c0.001,0,0.001,0,0.002,0v0c2.748-0.244,5.058,1.454,7.643,2.036c0.862,0.194,1.754,0.264,2.703,0.096c-0.26,1.659-2.253,1.687-2.445,3.144c1.19,0.033,2.412-0.108,3.471,0.639c1.846,0.442,3.691,0.884,5.41,1.296c0.573,0.137,1.132,0.271,1.672,0.4c1.705-0.701,0.639-2.202,1.522-3.139c1.013,0.071,2.086,0.146,3.16,0.221c0.502-0.127,1.005-0.253,1.507-0.381c0.605-0.367,1.211-0.733,2.005-1.213c-4.75-4.316,0.785-6.206,1.907-9.924c2.737,3.803-1.542,4.536-1.885,6.602c1.739,0.704,3.534,1.073,5.408,1.046c0.418-0.529,0.889-0.964,1.632-0.914c1.377-0.505,2.543-1.265,3.586-2.248s1.961-2.19,2.841-3.589c0.84,1.596,4.469,1.15,1.246,4.375c2.684-0.174,4.73-0.307,6.775-0.44c1.079-0.377,1.731,0.243,2.326,0.997c4.518,1.001,8.742-0.952,13.682-1.24C201.288,131.923,203.15,130.944,201.919,129.38z" />
  <path fill="#81532B" d="M167.673,140.636c0.091,0.823-0.592,0.749-0.964,0.865c-8.432,2.627-9.513,9.14-8.936,16.633c0.667,8.662-0.723,17.518,2.975,25.803c-3.682,2.436-7.109,0.556-10.764,1.156c3.872-10.211,2.974-20.376,3.179-30.427c0.076-3.732-1.521-6.756-4.508-9.03c-2.177-1.657-4.34-3.331-6.508-4.998c0.573-0.158,1.145-0.317,1.719-0.473c0.332,0.015,0.638,0.199,0.945,0.377c0.511,0.296,1.024,0.575,1.666,0.032c1.19,0.033,2.412-0.109,3.471,0.639c1.222,2.648,3.231,4.488,5.669,5.807c1.898-1.477,3.605-2.863,5.375-4.161c1.086-0.796,1.299-1.707,0.72-2.868c0.502-0.127,1.005-0.253,1.507-0.381C164.398,141.233,166.215,140.265,167.673,140.636z M134.204,135.028c0.837,0.982,1.673,1.963,2.509,2.945c0.991,0.523,1.98,0.208,2.97-0.011c-0.368-0.888-0.735-1.776-1.105-2.664C137.111,135.324,135.702,134.452,134.204,135.028z M186.736,133.306c-3.3,3.051-11.082,4.076-14.448,1.902c-0.742-0.05-1.214,0.385-1.632,0.914c0.61,0.954,2.294,0.383,2.57,1.806c-0.344,0.511-1.629,0.306-1.037,1.651c5.787-1.184,11.24-3.529,16.873-5.275C188.467,133.549,187.815,132.93,186.736,133.306z" />
  <path fill="#000000" d="M362.436,155.489c0-3.674,0-7.067,0-10.587c-3.432,1.236-3.103,4.127-3.209,6.803c-3.511,0-6.815,0-10.055,0c-0.749-2.755,0.535-5.576-0.865-8.08c-4.536,1.074-8.437,4.374-11.05,9.16c2.929,4.195,7.085,1.842,10.536,2.487C352.456,156.144,357.406,155.489,362.436,155.489z M345.409,151.742c-1.559,0.348-2.509-0.687-4.024-1.124c1.255-1.737,2.361-2.887,4.177-3.518C345.724,148.911,346.03,150.358,345.409,151.742z M293.596,139.189c0.905-0.946,1.649-1.724,2.377-2.485c1.553,0.122,1.757,1.629,2.758,2.09c-0.154,1.617-1.431,2.106-2.158,3.034C295.274,141.482,294.644,140.411,293.596,139.189z M254.717,146.524c-0.291,0.752-0.367,1.673-1.676,1.532c-2.024-0.219-3.116,1.03-3.823,2.705c1.669,1.208,4.598-0.878,5.199,1.978c0.542,2.577-0.816,4.851-2.532,6.745c-2.474,2.732-6.841,3.064-9.858,0.856c-3.266-2.39-3.983-6.383-1.441-11.502c-0.065,4.277,0.384,7.706,4.323,8.766c2.211,0.595,4.431,0.299,6.098-2.235c-1.819-0.871-3.63,0.224-5.171-1.412c0.47-4.029,2.712-7.045,6.297-9.225c0.669-0.407,1.335-0.787,2.036-0.221C254.796,145.016,255.013,145.761,254.717,146.524z M323.988,151.513c-1.056,0.479-1.956,0.63-3.083-0.56c0-1.836,0-3.958,0-6.058c-3.297,1.403-2.93,4.204-2.899,6.712c-1.242,0.301-2.18,0.596-3.362-0.531c0-1.849,0-3.987,0-6.222c-3.485,1.372-2.977,4.237-3.202,6.88c-2.567,0-5.033,0-7.589,0c1-2.915,1.212-5.715-1.886-7.205c-2.509-1.206-6.239,2.485-7.571,7.189c-1.836,0-3.671,0-5.504,0c-0.516-3.527-0.791-7.07-5.314-7.529c-3.579-0.363-6.036,2.271-9.369,3.901c0-3.612,0-6.743,0-10.473c-5.166,4.237-1.563,9.636-3.246,14.041c-1.464,0.429-3.047,0.268-4.684,0.057c-1.081-2.165-1.085-4.846-3.044-6.623c-2.027,1.68-2.587,3.252-1.461,5.832c2.133,4.886,0.729,7.294-4.085,8.181c3.848,3.857,6.241,2.938,8.817-3.787c20.258,0,40.403,0,60.847,0c0-1.961,0-3.69,0-5.419c0-1.667,0-3.335,0-5.205C323.871,146.262,323.925,148.927,323.988,151.513z M284.136,151.753c-3.134,0-6.049,0-9.701,0c2.503-2.312,4.361-4.497,7.535-3.952C283.821,148.119,284.481,149.599,284.136,151.753z M300.72,150.981c-1.645,0.928-2.343-0.253-3.244-1.638c1.289-0.865,2.324-2.133,3.76-0.525C301.926,149.59,301.571,150.501,300.72,150.981z M341.043,142.562c-1.577-1.478-2.452-2.297-3.312-3.103c0.685-1.258,1.533-2.114,2.966-3.034c0.704,0.87,1.416,1.75,2.342,2.895C342.308,140.508,341.72,141.461,341.043,142.562z M345.885,142.018c-0.591-0.793-1.213-1.628-2.072-2.78c0.755-1.033,1.404-1.925,1.997-2.736c1.712,0.628,2.228,1.808,3.1,2.642C348.162,140.335,347.407,141.277,345.885,142.018z M299.725,139.359c0.548-1.306,1.545-2.101,2.692-2.894c0.88,0.986,1.602,1.794,2.343,2.624c-0.508,1.247-1.395,2.002-2.39,2.714C301.134,141.343,300.446,140.35,299.725,139.359z M375.125,148.005c1.288-3.302,0.607-6.677,0.507-10.295c-1.811,0.96-3.168,1.635-3.114,3.703c0.038,1.471,0.53,3.091-0.54,4.702c-2.427-2.731-4.396-5.588-7.397-7.467c-1.463,2.094-1.374,3.469,0.663,4.868c2.244,1.541,3.865,3.763,5.204,5.883c-1.951,3.397-8.566,2.719-6.541,8.871c4.001,0,8.07,0,12.053,0C378.089,154.367,373.739,151.555,375.125,148.005z M367.782,154.354c1.588-1.067,2.728-1.833,3.864-2.597c1.183,0.287,1.403,1.22,1.766,2.597C371.551,154.354,369.995,154.354,367.782,154.354z M388.164,146.166c-0.759-1.38-1.906-2.355-3.685-1.844c-2.11,0.606-5.402,6.084-5.06,8.687c0.496,3.773,3.573,2.05,5.63,2.49c0.346,0.074,0.69,0.154,1.13,0.253c-0.551,3.401-3.202,2.916-6.001,2.99c4.233,4.437,8.262,2.521,9.413-1.733C390.62,153.209,390.039,149.574,388.164,146.166z M386.168,151.631c-1.336,0.432-2.657,0.325-4.066,0.039c-0.043-1.642,0.756-2.726,2.247-3.671C385.731,149.02,386.41,150.084,386.168,151.631z M361.112,157.473c0.911,1.012,1.721,1.912,2.528,2.808c-0.895,1.134-1.567,2.189-2.903,2.724c-1.057-0.988-1.865-1.744-2.784-2.603C359.142,159.311,360.026,158.468,361.112,157.473z M355.444,157.576c0.556,0.966,1.172,2.037,1.919,3.334c-0.749,0.684-1.446,1.349-2.173,2.013c-1.358-0.323-1.869-1.563-2.826-2.308C353.001,159.35,353.834,158.496,355.444,157.576z" />
</svg>
