<svg xmlns="http://www.w3.org/2000/svg" width="450px" height="300px" viewBox="0 0 450 300">
  <path fill="#FFFFFF" d="M0,0h450v300H0V0z" />
  <path fill="#D42E12" d="M110.408,63.026V30.363h10.651l6.966,24.858l6.871-24.858h10.698v32.663h-6.751V36.683l-7.109,26.344h-7.37l-7.204-26.344v26.344H110.408 M165.944,36.905l-4.85,13.903h9.724L165.944,36.905 M161.76,30.363h8.321l12.624,32.663h-7.56l-2.377-6.719h-13.576l-2.306,6.719h-7.584L161.76,30.363 M201.962,63.026h-7.204V50.852l-12.719-20.489h8.82l7.489,14.081l6.918-14.081h8.226l-11.53,20.49L201.962,63.026 M222.455,46.728c0,3.592,0.856,6.386,2.568,8.382c1.712,1.981,4.105,2.971,7.18,2.971c3.106,0,5.524-0.99,7.251-2.971c1.728-1.996,2.592-4.79,2.592-8.382c0-3.592-0.864-6.379-2.592-8.36c-1.728-1.996-4.145-2.994-7.251-2.994c-3.075,0-5.468,0.991-7.18,2.972C223.312,40.327,222.455,43.121,222.455,46.728 M215.11,46.728c0-5.278,1.537-9.461,4.612-12.551c3.09-3.104,7.251-4.656,12.481-4.657c5.23,0,9.391,1.552,12.481,4.657c3.107,3.104,4.66,7.288,4.66,12.551c0,5.263-1.554,9.446-4.66,12.551c-3.09,3.104-7.251,4.657-12.481,4.657s-9.391-1.552-12.481-4.656C216.647,56.174,215.11,51.991,215.11,46.728 M262.301,63.026V36.195h-10.39v-5.832h27.911v5.832h-10.318v26.832L262.301,63.026 M291.211,63.027V36.195h-10.39v-5.832h27.911v5.832h-10.318v26.832H291.211 M312.868,63.027V30.363h25.415v5.677h-18.306v6.962h16.736v5.588h-16.737v8.404h19.162v6.031h-26.27" />
  <g>
    <path fill="#DFDFDF" d="M132.344,86.88c-3.045,0.429-5.34,1.265-8.406,3.109c-0.986,0.6-1.909,1.029-2.08,0.965	c-0.172-0.064-0.365-0.579-0.45-1.201c-0.086-0.579-0.279-1.244-0.429-1.437c-0.429-0.6-0.836-0.107-1.63,1.909	c-0.365,0.965-0.772,1.887-0.879,2.016c-0.386,0.472-0.901,0.3-1.523-0.472c-0.622-0.793-1.565-1.029-1.78-0.45	c-0.064,0.172-0.021,0.858,0.107,1.544c0.386,2.016-0.236,2.316-1.994,0.965c-1.523-1.179-2.102-1.415-2.68-1.115	c-0.6,0.322-0.579,0.772,0.193,2.552c0.665,1.544,0.708,2.659,0.064,1.758c-0.172-0.236-0.965-0.772-1.78-1.158	c-0.815-0.407-2.08-1.072-2.831-1.501c-0.751-0.407-1.78-0.901-2.295-1.094c-0.944-0.322-6.047-1.072-6.476-0.922	c-0.129,0.043,0.579,0.622,1.544,1.308c2.123,1.458,6.197,5.189,6.197,5.661c0,0.279-0.236,0.322-1.716,0.193	c-1.951-0.172-1.909-0.236-1.48,1.801c0.15,0.708,0.172,1.179,0.043,1.308c-0.129,0.129-0.793,0.086-1.801-0.129	c-0.879-0.172-1.651-0.322-1.737-0.322c-0.322,0-0.172,1.694,0.279,3.131c0.429,1.351,0.429,1.48,0.086,1.716	c-0.429,0.322-0.922,0.172-4.182-1.33c-1.93-0.901-2.423-1.051-3.474-1.008c-0.665,0.021-1.458,0.172-1.78,0.343l-0.6,0.3	l1.394,1.501c1.651,1.801,3.324,4.203,3.581,5.168c0.472,1.608-1.115,1.887-6.455,1.201c-2.916-0.386-4.889-0.322-5.854,0.193	c-0.751,0.386-3.324,2.788-3.324,3.109c0,0.107,1.244,0.257,2.766,0.322c3.195,0.129,5.511,0.686,7.42,1.737	c1.801,0.986,1.758,1.201-0.193,1.201c-1.63,0-2.573,0.257-3.431,0.944c-0.407,0.322-0.407,0.343,0,0.793	c0.622,0.686,1.823,1.222,3.302,1.458c0.751,0.129,1.394,0.257,1.437,0.322c0.043,0.043-0.622,0.193-1.48,0.322	c-2.23,0.365-5.361,1.287-6.884,2.059c-1.372,0.686-1.437,0.772-1.716,2.766l-0.129,0.815l0.686-0.15	c1.072-0.236,6.605-0.365,7.505-0.172c1.372,0.3,0.986,0.6-1.137,0.858c-2.659,0.322-4.16,0.622-4.868,0.986l-0.558,0.3	l1.158,0.558c0.643,0.322,2.123,0.772,3.302,1.008c5.018,1.029,5.64,1.608,1.437,1.394c-3.452-0.172-4.825-0.043-4.718,0.493	c0.107,0.6,2.23,1.63,4.439,2.187c1.351,0.343,0.836,0.6-1.372,0.686c-1.994,0.064-3.495,0.579-4.117,1.415	c-0.493,0.622-0.193,3.452,0.386,3.817c0.129,0.064,0.386-0.021,0.579-0.193c0.193-0.193,1.072-0.665,1.951-1.094	c1.651-0.793,1.673-0.793,4.031-0.429c1.008,0.15,1.887,0.986,2.638,2.53c0.365,0.729,1.115,1.887,1.673,2.573	c0.558,0.686,1.201,1.48,1.415,1.758c0.407,0.493,0.407,0.515-0.043,1.415c-0.236,0.515-0.493,1.094-0.558,1.287	c-0.386,1.33-6.948,0.879-12.116-0.836c-2.059-0.686-5.104-2.187-6.476-3.195l-1.051-0.772v0.836c0,2.059,1.608,5.554,3.217,6.991	l1.029,0.922l-1.051,2.016c-1.308,2.509-1.394,3.474-0.386,4.482c0.365,0.386,0.622,0.815,0.536,0.986	c-0.064,0.172-0.622,0.6-1.244,0.944c-1.93,1.094-1.844,0.986-1.051,1.394c0.386,0.214,1.437,0.429,2.295,0.493	c0.944,0.086,1.694,0.236,1.823,0.407c0.536,0.643-0.579,2.059-2.509,3.217c-0.322,0.193-0.086,0.279,1.308,0.493	c0.944,0.129,2.316,0.257,3.045,0.279l1.33,0.043l-0.45,0.815c-0.536,0.965-1.544,2.016-2.38,2.53l-0.6,0.386l0.665,0.086	c0.365,0.064,1.115,0.021,1.673-0.064c1.608-0.257,3.56-0.214,3.989,0.086c0.665,0.493,0.107,1.608-1.565,3.217l-1.458,1.415	l0.944,0.15c1.78,0.257,4.031-0.021,5.232-0.643c0.622-0.3,1.158-0.536,1.201-0.493c0.3,0.322-0.858,3.431-1.608,4.289	c-0.172,0.193-0.257,0.429-0.172,0.536c0.086,0.086,1.244,0.15,2.552,0.15c1.866,0,2.573-0.086,3.131-0.386	c0.407-0.193,0.772-0.365,0.815-0.365c0.021,0,0.064,0.45,0.064,1.008c0,0.729-0.15,1.179-0.558,1.716l-0.536,0.708h0.6	c1.394-0.021,4.696-1.094,5.876-1.951c0.772-0.536,0.836-0.515,0.836,0.279c-0.021,0.901-0.493,2.209-0.986,2.766	c-0.45,0.515-0.343,0.515,1.758-0.021c1.887-0.472,3.56-1.137,4.417-1.737c0.793-0.579,0.879-0.515,0.708,0.386	c-0.193,1.072-0.6,1.694-1.415,2.123c-0.365,0.172-0.622,0.386-0.558,0.429c0.172,0.193,4.696-0.515,5.726-0.879	c0.515-0.172,1.115-0.493,1.33-0.686c0.365-0.322,0.386-0.322,0.386,0.193c0,0.3-0.236,0.986-0.536,1.544	c-0.3,0.558-0.536,1.051-0.536,1.115c0,0.172,1.179-0.193,2.552-0.793c0.751-0.343,1.63-0.622,1.951-0.622	c0.729,0,1.587,0.665,2.252,1.716c0.365,0.579,0.922,1.008,1.994,1.544l1.501,0.751l0.086-0.879	c0.107-0.793,3.645-10.1,3.989-10.465c0.15-0.15,4.46,2.809,8.62,5.897c2.509,1.866,8.277,7.591,9.971,9.907	c4.653,6.347,6.176,10.722,6.197,17.799c0,3.903-0.257,5.983-1.158,9.736c-1.973,8.02-6.562,15.654-11.773,19.514	c-3.431,2.552-7.484,3.41-15.032,3.174c-9.135-0.279-14.839-2.187-19.064-6.326c-3.131-3.088-5.189-7.119-6.047-11.837	c-0.129-0.772-0.236-2.659-0.236-4.182c0-5.232,1.179-8.856,3.753-11.623c2.23-2.38,4.61-3.688,7.656-4.16	c2.895-0.45,6.197,0.515,8.234,2.38c1.415,1.308,1.48,1.93,0.365,4.16c-0.986,1.994-1.072,2.509-0.45,3.131	c0.579,0.579,1.78,0.558,3.152-0.107c1.994-0.922,2.981-3.174,2.809-6.305c-0.172-2.809-1.48-4.632-4.439-6.133	c-2.873-1.437-4.332-1.716-8.813-1.694c-3.71,0-4.096,0.043-5.897,0.6c-3.603,1.094-5.79,2.552-7.484,4.911	c-3.86,5.447-5.983,14.796-4.739,20.844c0.965,4.61,3.538,9.607,7.119,13.724c6.047,6.991,14.067,10.186,25.583,10.186	c8.535,0,14.582-1.63,20.586-5.533c6.691-4.332,11.022-9.95,14.689-19.021c0.986-2.488,1.372-4.031,1.544-6.176	c0.064-1.051,0.236-1.909,0.429-2.123c0.858-0.986,1.158-3.796,0.622-5.618l-0.322-1.029l0.665-0.579	c1.179-1.051,1.051-3.324-0.279-4.846l-0.622-0.708l0.708-0.708c0.922-0.944,1.33-2.723,1.158-5.082	c-0.107-1.63-0.836-3.903-1.244-3.903c-0.429,0-0.15-0.579,0.472-0.944c0.965-0.579,1.48-1.544,1.48-2.831	c0-2.595-1.072-6.583-1.866-6.884c-0.322-0.129-0.386-0.708-0.086-0.708c0.493,0,1.158-2.016,1.265-3.838	c0.129-2.295-0.322-4.053-1.265-4.996l-0.622-0.643l0.665-1.372c0.579-1.179,0.665-1.523,0.558-2.509	c-0.236-2.273-2.745-6.476-4.632-7.72c-0.686-0.45-0.879-0.708-0.879-1.201c0-1.437-1.179-3.56-3.152-5.683	c-2.059-2.187-2.723-3.174-3.152-4.718c-0.3-0.986-0.622-1.501-1.523-2.402c-1.051-1.051-3.281-2.38-4.61-2.723	c-0.279-0.064-0.429-0.279-0.429-0.622c-0.021-1.372-1.716-3.667-3.217-4.353c-0.751-0.343-0.858-0.472-0.858-1.094	c0-0.879-0.729-1.758-2.445-2.938c-1.63-1.094-4.203-1.758-8.17-2.102c-8.342-0.686-12.052-2.08-15.976-5.983	c-2.38-2.359-3.302-3.946-4.16-7.077c-0.708-2.595-0.751-5.018-0.107-6.905c0.45-1.33,1.887-4.031,2.144-4.031	c0.086,0-0.043,0.708-0.279,1.544c-0.558,2.037-0.622,5.382-0.107,7.012c0.708,2.273,2.102,3.967,4.053,4.975	c1.33,0.686,1.973,0.836,4.246,1.051c2.359,0.214,3.946,0.686,4.718,1.394c1.158,1.072,3.753,1.201,6.24,0.343	c0.643-0.236,1.844-0.493,2.68-0.558l1.544-0.15l1.994,1.394c2.059,1.415,10.958,6.433,12.523,7.055	c2.852,1.137,6.069,0.343,7.42-1.823c1.094-1.737,0.107-3.367-4.546-7.57c-3.774-3.388-4.675-4.546-5.168-6.519	c-0.214-0.836-0.901-2.659-1.565-4.031c-1.565-3.367-1.587-3.946-0.107-5.49c0.579-0.622,1.222-1.48,1.394-1.93	c0.343-0.793,0.493-2.595,0.257-2.852c-0.129-0.107-1.565,0.193-2.316,0.472c-0.236,0.086-0.279-0.236-0.214-1.716	c0.043-1.158-0.043-2.08-0.193-2.488l-0.279-0.643l-0.772,0.751c-0.793,0.772-1.372,0.965-1.63,0.558	c-0.064-0.107-0.214-0.729-0.322-1.372c-0.214-1.351-1.072-3.452-1.287-3.195c-0.086,0.086-0.279,0.536-0.429,0.965	c-0.129,0.45-0.322,0.815-0.429,0.815c-0.086,0-0.236-0.515-0.322-1.137c-0.236-1.844-0.493-2.616-1.072-3.152	c-0.472-0.45-0.6-0.472-0.751-0.214c-0.107,0.172-0.214,0.558-0.214,0.858c0,0.944-0.6,2.852-1.394,4.46	c-1.544,3.088-3.002,2.788-6.004-1.179c-1.716-2.273-1.973-2.981-1.501-4.01c1.137-2.402,5.897-5.64,10.379-7.034	c0.836-0.257,1.523-0.536,1.523-0.622c0-0.407-1.072-1.372-2.016-1.823C135.368,86.751,134.124,86.644,132.344,86.88z	 M317.656,86.88c3.045,0.429,5.34,1.265,8.406,3.109c0.986,0.6,1.909,1.029,2.08,0.965c0.172-0.064,0.365-0.579,0.45-1.201	c0.086-0.579,0.279-1.244,0.429-1.437c0.429-0.6,0.836-0.107,1.63,1.909c0.365,0.965,0.772,1.887,0.879,2.016	c0.386,0.472,0.901,0.3,1.523-0.472c0.622-0.793,1.565-1.029,1.78-0.45c0.064,0.172,0.021,0.858-0.107,1.544	c-0.386,2.016,0.236,2.316,1.994,0.965c1.523-1.179,2.102-1.415,2.681-1.115c0.6,0.322,0.579,0.772-0.193,2.552	c-0.665,1.544-0.708,2.659-0.064,1.758c0.172-0.236,0.965-0.772,1.78-1.158c0.815-0.407,2.08-1.072,2.831-1.501	c0.751-0.407,1.78-0.901,2.294-1.094c0.944-0.322,6.047-1.072,6.476-0.922c0.129,0.043-0.579,0.622-1.544,1.308	c-2.123,1.458-6.197,5.189-6.197,5.661c0,0.279,0.236,0.322,1.716,0.193c1.951-0.172,1.909-0.236,1.48,1.801	c-0.15,0.708-0.172,1.179-0.043,1.308c0.129,0.129,0.793,0.086,1.801-0.129c0.879-0.172,1.651-0.322,1.737-0.322	c0.322,0,0.172,1.694-0.279,3.131c-0.429,1.351-0.429,1.48-0.086,1.716c0.429,0.322,0.922,0.172,4.182-1.33	c1.93-0.901,2.423-1.051,3.474-1.008c0.665,0.021,1.458,0.172,1.78,0.343l0.6,0.3l-1.394,1.501	c-1.651,1.801-3.324,4.203-3.581,5.168c-0.472,1.608,1.115,1.887,6.455,1.201c2.916-0.386,4.889-0.322,5.854,0.193	c0.751,0.386,3.324,2.788,3.324,3.109c0,0.107-1.244,0.257-2.766,0.322c-3.195,0.129-5.511,0.686-7.42,1.737	c-1.801,0.986-1.758,1.201,0.193,1.201c1.63,0,2.573,0.257,3.431,0.944c0.407,0.322,0.407,0.343,0,0.793	c-0.622,0.686-1.823,1.222-3.302,1.458c-0.751,0.129-1.394,0.257-1.437,0.322c-0.043,0.043,0.622,0.193,1.48,0.322	c2.23,0.365,5.361,1.287,6.884,2.059c1.372,0.686,1.437,0.772,1.716,2.766l0.129,0.815l-0.686-0.15	c-1.072-0.236-6.605-0.365-7.505-0.172c-1.372,0.3-0.986,0.6,1.137,0.858c2.659,0.322,4.16,0.622,4.868,0.986l0.558,0.3	l-1.158,0.558c-0.643,0.322-2.123,0.772-3.302,1.008c-5.018,1.029-5.64,1.608-1.437,1.394c3.452-0.172,4.825-0.043,4.718,0.493	c-0.107,0.6-2.23,1.63-4.439,2.187c-1.351,0.343-0.836,0.6,1.372,0.686c1.994,0.064,3.495,0.579,4.117,1.415	c0.493,0.622,0.193,3.452-0.386,3.817c-0.129,0.064-0.386-0.021-0.579-0.193c-0.193-0.193-1.072-0.665-1.951-1.094	c-1.651-0.793-1.673-0.793-4.031-0.429c-1.008,0.15-1.887,0.986-2.638,2.53c-0.365,0.729-1.115,1.887-1.673,2.573	c-0.558,0.686-1.201,1.48-1.415,1.758c-0.407,0.493-0.407,0.515,0.043,1.415c0.236,0.515,0.493,1.094,0.558,1.287	c0.386,1.33,6.948,0.879,12.116-0.836c2.059-0.686,5.104-2.187,6.476-3.195l1.051-0.772v0.836c0,2.059-1.608,5.554-3.217,6.991	l-1.029,0.922l1.051,2.016c1.308,2.509,1.394,3.474,0.386,4.482c-0.365,0.386-0.622,0.815-0.536,0.986	c0.064,0.172,0.622,0.6,1.244,0.944c1.93,1.094,1.844,0.986,1.051,1.394c-0.386,0.214-1.437,0.429-2.295,0.493	c-0.944,0.086-1.694,0.236-1.823,0.407c-0.536,0.643,0.579,2.059,2.509,3.217c0.322,0.193,0.086,0.279-1.308,0.493	c-0.944,0.129-2.316,0.257-3.045,0.279l-1.33,0.043l0.45,0.815c0.536,0.965,1.544,2.016,2.38,2.53l0.6,0.386l-0.665,0.086	c-0.365,0.064-1.115,0.021-1.673-0.064c-1.608-0.257-3.56-0.214-3.989,0.086c-0.665,0.493-0.107,1.608,1.565,3.217l1.458,1.415	l-0.944,0.15c-1.78,0.257-4.031-0.021-5.232-0.643c-0.622-0.3-1.158-0.536-1.201-0.493c-0.3,0.322,0.858,3.431,1.608,4.289	c0.172,0.193,0.257,0.429,0.172,0.536c-0.086,0.086-1.244,0.15-2.552,0.15c-1.866,0-2.573-0.086-3.131-0.386	c-0.407-0.193-0.772-0.365-0.815-0.365c-0.021,0-0.064,0.45-0.064,1.008c0,0.729,0.15,1.179,0.558,1.716l0.536,0.708h-0.6	c-1.394-0.021-4.696-1.094-5.876-1.951c-0.772-0.536-0.836-0.515-0.836,0.279c0.021,0.901,0.493,2.209,0.986,2.766	c0.45,0.515,0.343,0.515-1.758-0.021c-1.887-0.472-3.56-1.137-4.417-1.737c-0.793-0.579-0.879-0.515-0.708,0.386	c0.193,1.072,0.6,1.694,1.415,2.123c0.365,0.172,0.622,0.386,0.558,0.429c-0.172,0.193-4.696-0.515-5.726-0.879	c-0.515-0.172-1.115-0.493-1.33-0.686c-0.365-0.322-0.386-0.322-0.386,0.193c0,0.3,0.236,0.986,0.536,1.544	c0.3,0.558,0.536,1.051,0.536,1.115c0,0.172-1.179-0.193-2.552-0.793c-0.751-0.343-1.63-0.622-1.951-0.622	c-0.729,0-1.587,0.665-2.252,1.716c-0.365,0.579-0.922,1.008-1.994,1.544l-1.501,0.751l-0.086-0.879	c-0.107-0.793-3.645-10.1-3.989-10.465c-0.15-0.15-4.46,2.809-8.62,5.897c-2.509,1.866-8.277,7.591-9.971,9.907	c-4.653,6.347-6.176,10.722-6.197,17.799c0,3.903,0.257,5.983,1.158,9.736c1.973,8.02,6.562,15.654,11.773,19.514	c3.431,2.552,7.484,3.41,15.032,3.174c9.135-0.279,14.839-2.187,19.064-6.326c3.131-3.088,5.189-7.119,6.047-11.837	c0.129-0.772,0.236-2.659,0.236-4.182c0-5.232-1.179-8.856-3.753-11.623c-2.23-2.38-4.61-3.688-7.655-4.16	c-2.895-0.45-6.197,0.515-8.234,2.38c-1.415,1.308-1.48,1.93-0.365,4.16c0.986,1.994,1.072,2.509,0.45,3.131	c-0.579,0.579-1.78,0.558-3.152-0.107c-1.994-0.922-2.981-3.174-2.809-6.305c0.172-2.809,1.48-4.632,4.439-6.133	c2.874-1.437,4.332-1.716,8.813-1.694c3.71,0,4.096,0.043,5.897,0.6c3.603,1.094,5.79,2.552,7.484,4.911	c3.86,5.447,5.983,14.796,4.739,20.844c-0.965,4.61-3.538,9.607-7.119,13.724c-6.047,6.991-14.067,10.186-25.583,10.186	c-8.535,0-14.582-1.63-20.586-5.533c-6.691-4.332-11.022-9.95-14.689-19.021c-0.986-2.488-1.372-4.031-1.544-6.176	c-0.064-1.051-0.236-1.909-0.429-2.123c-0.858-0.986-1.158-3.796-0.622-5.618l0.322-1.029l-0.665-0.579	c-1.179-1.051-1.051-3.324,0.279-4.846l0.622-0.708l-0.708-0.708c-0.922-0.944-1.33-2.723-1.158-5.082	c0.107-1.63,0.836-3.903,1.244-3.903c0.429,0,0.15-0.579-0.472-0.944c-0.965-0.579-1.48-1.544-1.48-2.831	c0-2.595,1.072-6.583,1.866-6.884c0.322-0.129,0.386-0.708,0.086-0.708c-0.493,0-1.158-2.016-1.265-3.838	c-0.129-2.295,0.322-4.053,1.265-4.996l0.622-0.643l-0.665-1.372c-0.579-1.179-0.665-1.523-0.558-2.509	c0.236-2.273,2.745-6.476,4.632-7.72c0.686-0.45,0.879-0.708,0.879-1.201c0-1.437,1.179-3.56,3.152-5.683	c2.059-2.187,2.723-3.174,3.152-4.718c0.3-0.986,0.622-1.501,1.523-2.402c1.051-1.051,3.281-2.38,4.61-2.723	c0.279-0.064,0.429-0.279,0.429-0.622c0.021-1.372,1.716-3.667,3.217-4.353c0.751-0.343,0.858-0.472,0.858-1.094	c0-0.879,0.729-1.758,2.445-2.938c1.63-1.094,4.203-1.758,8.17-2.102c8.342-0.686,12.052-2.08,15.976-5.983	c2.38-2.359,3.302-3.946,4.16-7.077c0.708-2.595,0.751-5.018,0.107-6.905c-0.45-1.33-1.887-4.031-2.144-4.031	c-0.086,0,0.043,0.708,0.279,1.544c0.558,2.037,0.622,5.382,0.107,7.012c-0.708,2.273-2.102,3.967-4.053,4.975	c-1.33,0.686-1.973,0.836-4.246,1.051c-2.359,0.214-3.946,0.686-4.718,1.394c-1.158,1.072-3.753,1.201-6.24,0.343	c-0.643-0.236-1.844-0.493-2.68-0.558l-1.544-0.15l-1.994,1.394c-2.059,1.415-10.958,6.433-12.523,7.055	c-2.852,1.137-6.069,0.343-7.42-1.823c-1.094-1.737-0.107-3.367,4.546-7.57c3.774-3.388,4.675-4.546,5.168-6.519	c0.214-0.836,0.901-2.659,1.565-4.031c1.565-3.367,1.587-3.946,0.107-5.49c-0.579-0.622-1.222-1.48-1.394-1.93	c-0.343-0.793-0.493-2.595-0.257-2.852c0.129-0.107,1.565,0.193,2.316,0.472c0.236,0.086,0.279-0.236,0.214-1.716	c-0.043-1.158,0.043-2.08,0.193-2.488l0.279-0.643l0.772,0.751c0.793,0.772,1.372,0.965,1.63,0.558	c0.064-0.107,0.214-0.729,0.322-1.372c0.214-1.351,1.072-3.452,1.287-3.195c0.086,0.086,0.279,0.536,0.429,0.965	c0.129,0.45,0.322,0.815,0.429,0.815c0.086,0,0.236-0.515,0.322-1.137c0.236-1.844,0.493-2.616,1.072-3.152	c0.472-0.45,0.6-0.472,0.751-0.214c0.107,0.172,0.214,0.558,0.214,0.858c0,0.944,0.6,2.852,1.394,4.46	c1.544,3.088,3.002,2.788,6.004-1.179c1.716-2.273,1.973-2.981,1.501-4.01c-1.137-2.402-5.897-5.64-10.379-7.034	c-0.836-0.257-1.523-0.536-1.523-0.622c0-0.407,1.072-1.372,2.016-1.823C314.632,86.751,315.876,86.644,317.656,86.88z" />
    <path fill="#000000" d="M373.281,164.831c0.462,0,1.989,0.185,3.13-1.082c-0.948-0.516-2.389-0.983-3.257-2.071	c2.706-1.56,1.134-3.925,0.503-5.048c-0.522-0.898-0.565-1.373-1.171-2.305c0.833-0.061,2.049-1.638,2.643-2.694	c1.254-2.244,1.798-4.376,1.616-6.211c-1.789,1.38-2.482,1.825-3.596,2.378c-1.891,1.131-5.95,2.554-9.536,3.096	c-3.586,0.542-6.7,0.472-6.7-0.848c0-1.32-1.435-1.211-0.397-2.266c1.943-1.976,2.989-3.75,3.595-5.498	c1.132-1.37,2.56-1.471,4.454-1.49c1.004,0.537,2.964,1.005,3.869,2.312c0.851-0.407,1.289-3.028,0.858-4.276	c-0.185-0.536-2.371-1.562-3.604-1.606c-1.232-0.043-1.887,0.308-2.972-0.152c1.278-0.368,1.976-0.346,3.308-1.01	c1.184-0.59,2.332-0.941,2.176-1.692c-0.192-0.93-6.74-0.296-7.664-0.263c-0.759,0.033,1.432-0.876,3.046-1.08	c1.059-0.379,3.42-0.231,5.808-2.003c-1.762-1.132-2.69-0.656-4.135-1.189l-3.295-0.327c-1.362-0.757,5.245-0.638,6.641-0.623	c0.946,0.285,1.814,0.697,2.105,0.562c0.29-0.134,0.057-1.19-0.238-2.986c-1.04-0.853-2.117-1.311-3.263-1.645	c-1.093-0.388-2.057-0.642-3.304-1.04c-1.195-0.143-1.582-0.088-3.283-0.459c1.995-0.318,3.412-0.074,5.396-2.164	c-0.802-0.482-1.118-1.092-2.082-1.324c-0.964-0.206-1.303-0.174-2.095-0.174c-1.518,0-1.962,0.278-0.946-0.455	c1.016-0.732,2.956-1.564,5.134-1.96c1.914-0.33,4.818-0.34,6.217-0.396c-0.642-1.27-1.837-2.012-2.563-2.804	c-1.188-1.452-3.918-1.42-8.01-0.76c-6.468,0.792-6.864,0-2.772-5.148l2.601-2.862l-1.65-0.655l-1.802-0.049	c-1.716,0.396-3.901,1.718-5.221,2.246c-2.112,0.924-1.998,0.054-1.338-1.662c0.528-1.452,0.146-1.444,0.35-3.051	c-1.056,0-3.84,1.056-3.84,0.396c0-0.792,0.365-1.322,0.57-3.143c-0.924,0-2.996,0.248-3.452,0.15	c-0.456-0.098,0.634-1.148,1.744-2.144l2.857-2.561l4.036-2.721l-5.988,0.75c-1.848,0-4.772,2.007-6.323,2.816	c-0.775,0.404-1.511,0.529-1.977,1.018c-0.454,0.168-0.482,0.455-0.425,0.656c-0.036-0.05-0.078-0.106-0.133-0.176	c-0.394-0.708,1.431-2.802,1.183-3.896c-1.309-2.496-4.242,2.073-4.88,1.335c-1.221-0.132,0.598-2.975-0.371-3.551	c-1.382-0.823-2.168,2.003-2.912,1.504c-0.744-0.5-1.226-4.122-2.402-4.577c-1.176-0.455-0.697,3.696-1.489,3.136	c-1.716-1.188-5.43-3.52-8.485-3.942c-1.527-0.212-3.307-0.651-4.813-0.379c-1.507,0.271-2.929,1.307-3.338,2.572	c2.029,0.592,2.35,0.647,4.462,1.571c2.112,0.792,4.884,2.772,6.204,4.092c2.244,2.508,2.244,2.772-0.264,5.94	c-3.168,4.356-4.752,4.092-6.468-0.924c-0.726-1.98-0.5-3.238-0.844-3.912c-0.199,0.145-0.922,0.444-1.356,1.124	c-0.381,0.594-0.72,3.222-0.716,3.908c-0.318-0.193-0.614-1.056-0.912-2.44c-0.793,1.53-1.02,2.033-1.284,2.759	c-0.264,0.726-0.035,2.653-0.828,2.653c-0.462,0-1.022-0.892-2.006-1.761c-0.85,1.595-0.728,3.588-0.389,5.099	c-0.665-0.217-2.029-0.682-2.691-0.744c-0.206,0.796-0.193,1.752-0.032,2.476c0.482,1.035,0.631,1.926,1.687,2.718	c1.584,1.32,1.584,2.112,0,5.148c-1.056,1.98-1.848,4.224-1.848,5.148c0,0.792-2.376,3.432-5.412,5.94	c-3.696,3.168-5.016,5.148-4.488,6.6c1.32,3.168,5.412,4.092,9.108,2.112c1.716-0.924,5.544-3.036,8.58-4.752	c2.046-1.122,3.393-2.345,4.641-3.13c2.005-0.027,3.533,0.158,5.259,1.018c2.64,0.396,4.752,0.132,5.28-0.66	c0.528-0.792,2.64-1.452,4.62-1.452c5.28,0,8.737-3.492,8.944-8.605c0.079-2.222-0.221-3.626-0.958-6.127	c2.914,4.602,3.085,6.724,2.039,10.784c-1.261,5.668-7.12,12.924-20.056,13.056c-2.442,0.066-4.488,0.758-6.797,1.221	c-1.476,0.874-4.625,2.548-3.986,4.647c-2.395,0.638-4.039,3.122-4.074,5.159c-5.88,1.76-6.659,5.209-6.659,5.869	c0,0.66-1.452,2.64-3.3,4.356c-1.848,1.716-3.073,4.49-2.845,6.02c-2.046,1.056-2.779,2.598-4.024,4.276	c-1.055,2.141-2.811,4.806-0.22,8.009c-2.713,1.006-2.594,8.686-0.428,9.799c-1.594,1.095-1.936,3.767-2.275,7.404	c-0.015,1.224,0.38,2.32,2.324,3.288c-0.518,0.262-0.93,0.978-1.211,1.916c-0.282,0.938-0.434,2.096-0.432,3.239	c0.001,1.143,0.156,2.271,0.489,3.149c0.333,0.878,0.842,1.505,1.552,1.646c-2.422,1.582-2.364,5.765-0.276,6.197	c-1.169,2.136-0.802,6.334,0.69,7.158c-0.326,4.308,1.38,7.365,2.284,9.642c1.807,4.554,4.187,8.415,7.172,11.657	c2.984,3.242,6.573,5.866,10.797,7.944c9.24,4.488,24.948,4.356,33.924-0.264c7.92-4.092,14.388-12.936,15.708-21.516	c1.188-7.656-2.508-18.876-7.26-22.44c-7.524-5.544-22.176-3.696-24.288,3.036c-1.056,3.432,0.264,7.524,2.772,8.448	c3.3,1.188,4.62-0.396,2.772-3.3c-1.32-2.244-1.188-2.904,0.924-4.62c6.336-4.62,15.84-0.528,18.084,7.656	c2.772,10.56-1.584,21.252-10.428,25.608c-7.392,3.696-22.308,3.96-27.588,0.66c-10.296-6.468-16.764-24.024-13.596-37.224	c1.716-7.26,8.844-16.236,18.084-22.44l5.808-4.092l2.112,5.412c1.122,2.838,2.112,4.414,1.845,6.208	c1.715-1.046,2.334-0.857,3.517-1.972c0.528-1.188,1.502-2.52,2.954-2.124c0.33,0.1,2.331,1.277,4.323,1.549	c-0.686-1.604-1.382-1.65-1.3-3.249c1.068,1.362,4.128,1.531,8.095,1.951c-3.104-1.777-2.515-2.124-2.746-3.618	c1.188,1.344,4.153,2.182,7.582,2.798c-1.768-1.847-1.466-2.416-1.639-4.097c1.739,1.711,5.974,2.666,7.544,2.566	c-1.376-1.6-1.398-1.579-1.371-3.559c1.544,1.212,4.397,1.041,6.949,0.589c-1.573-1.684-2.054-3.541-2.144-4.953	c2.069,1.924,5.457,1.509,7.671,1.142c-1.734-1.538-2.785-2.404-3.323-3.37c-0.628-1.213-0.205-1.609,1.907-1.609	c1.452,0,2.456,0.931,4.6,0.11c-1.774-0.702-2.809-2.296-3.502-3.55c1.605,0.081,4.202-0.232,6.186-0.711	c-2.106-1.155-2.876-2.058-3.14-2.652C371.089,164.759,372.225,164.831,373.281,164.831z M356.964,152.351	c-1.234,0.929-3.667,1.885-4.489,3.14c-1.76,2.27-2.535,3.247-3.172,5.222c-0.798-0.382-1.493-0.849-2.668-1.618	c-1.157-1.126-1.554-1.387-2.164-2.595c1.496-2.011,1.898-2.887,4.552-5.236c1.558-1.379,4.015-2.386,5.43-2.561	c1.146,0.735,1.469,1.087,1.32,1.795l0,0C356.21,151.291,356.698,151.368,356.964,152.351z M340.448,168.033	c-0.703,1.99-2.227,2.946-3.808,3.898c-1.532,0.982-2.837,1.656-4.611,2.419c-0.647-1.366-0.963-2.212-1.305-3.739	c-0.475-2.187-0.569-3.736-1.179-4.943c1.117-1.178,1.4-1.89,3.567-2.358c1.576-0.506,2.651-0.719,3.99-0.894	c0.767,0.887,0.938,1.769,1.85,3.007l0,0C339.694,166.14,339.651,166.596,340.448,168.033z M339.967,164.929	c-0.929-1.277-1.25-1.841-1.861-3.049c1.496-2.011,0.794-1.738,2.734-2.964c1.804-0.884,1.515-1.022,2.626-1.5	c0.844,0.508,1.166,1.617,2.381,2.401c0.741,0.716,1.759,1.097,3.01,1.928c-0.476,1.99-1.621,2.036-2.596,3.216	c-1.38,1.588-2.534,2.262-4.308,2.722C341.005,166.544,340.991,165.85,339.967,164.929z M350.185,210.28	c-0.259-0.01-1.119-1.018-1.887-1.543c-0.721-0.492-1.126-0.619-1.253-0.925c-0.305-0.731,0.586-0.449,1.04-0.224	c0.394,0.195,1.096,0.773,1.496,1.09c0.782,0.619,1.192,0.827,1.302,1.25C351.007,210.401,350.565,210.294,350.185,210.28z	 M353.693,216.682L353.693,216.682c-0.205-0.572-0.334-1.081-0.601-1.971c-0.293-0.974-1.152-2.12-1.28-2.72	c-0.165-0.775,0.611-0.579,1.04-0.224c0.588,0.487,0.916,1.353,1.095,2.081c0.212,0.868,0.71,1.658,0.552,2.375	C354.394,216.7,353.822,217.04,353.693,216.682z M354.41,223.829c0.082-0.788,1.307-0.553,1.442,0.097	c0.155,0.747,0.038,1.273-0.004,1.84c-0.079,1.054,0.12,1.895-0.412,2.134c-0.661,0.297-1.067,0.348-1.288-0.076	c-0.173-0.331-0.005-0.518,0.175-2.105C354.436,224.738,354.35,224.404,354.41,223.829z M354.631,222.28	c-0.205-0.572-0.164-1.156-0.28-2.078c-0.106-0.841-0.215-1.342-0.209-1.729c0.013-0.792,0.691-0.74,0.879-0.305	c0.303,0.7,0.461,1.272,0.479,1.84c0.028,0.893,0.469,1.684,0.097,2.134C355.285,222.518,354.759,222.638,354.631,222.28z	 M352.663,232.202c0.651-1.619,0.776-1.637,1.158-3.015c0.211-0.763,1.022-0.337,1.254,0.284c0.208,0.56-0.363,1.408-0.62,1.974	c-0.437,0.962-0.813,1.808-1.189,2.134c-0.463,0.401-0.402,0.289-0.966,0.111v0C352.075,233.62,352.412,232.826,352.663,232.202z	 M348.86,238.282c1.172-1.068,2.021-2.392,2.684-3.658c0.372-0.71,0.85-0.144,0.745,0.713c-0.037,0.299-0.818,1.622-1.209,2.081	c-0.685,0.805-0.946,1.353-1.322,1.679c-0.464,0.401-0.322,0.289-0.886,0.111v0C348.647,239.137,348.195,238.887,348.86,238.282z	 M344.548,241.791c0.931-0.64,2.503-1.561,2.872-2.158c0.422-0.682,0.743,0.365,0.933,0.713c0.145,0.265-0.581,1.003-1.048,1.385	c-0.953,0.778-1.081,1.058-2.072,1.196c-0.608,0.085-0.644-0.085-1.127-0.451C343.916,242.334,343.807,242.3,344.548,241.791z	 M343.713,244.807c0.202-0.214,0.738-0.49,0.648-1.418c0.479,0.436,1.592,0.333,2.922-0.87c1.08-0.978,2.119-1.433,1.578-2.416	c1.428-0.149,1.672-0.756,2.797-2.338c0.74-1.04,1.582-1.96,1.222-3.432c0.984,0.196,1.471-1.181,2.035-2.485	c0.494-1.143,1.375-2.7,0.279-3.264c1.26,0.032,1.024-1.509,1.177-2.581c0.153-1.072,0.469-2.736-0.802-3.027	c1.302-0.411,0.744-1.756,0.548-2.962c-0.275-1.692-0.43-2.607-1.51-2.831c0.965-0.431,0.377-2.019-0.26-4.185	c-0.51-1.736-1.679-2.37-3.024-2.082c1.286-0.981-1.063-2.582-1.568-3.004c-1.403-1.171-2.998-1.606-3.311-0.845	c0.135-1.425-4.841-1.551-6.744-1.336c-1.904,0.215-3.576,1.073-5.358,2.525c-2.772,2.244-2.904,2.904-1.452,5.28	c1.716,3.036,0.396,3.696-2.112,1.188c-2.64-2.64-1.848-5.94,1.98-8.976c2.904-2.376,4.884-2.772,9.9-2.376	c8.844,0.924,12.408,3.696,14.916,11.88c3.96,13.596-1.452,27.06-13.332,32.868c-5.28,2.508-8.448,3.168-17.028,3.168	c-12.54-0.132-20.328-3.168-27.588-11.22c-4.488-4.884-9.504-17.644-7.92-20.02c2.576-1.096,0-1.1-0.792-1.1	c-1.056,0-1.452-5.47,0.514-6.464c-3.923,0.015-1.846-4.888,0.516-5.852c-2.114-0.05-3.161-2.118-3.224-4.306	c-0.062-2.188,0.858-4.495,2.677-5.024c1.371-0.399,0.109-0.764-1.178-1.056c-1.535-0.349-2.125-0.578-1.936-3.313	c0.228-1.792,0.858-4.787,2.157-5.339c1.337-0.568,3.419-0.733,4.58-0.838c-1.41-0.454-2.754-0.718-3.842-0.809	c-2.376-0.99-3.177-5.795-1.041-7.141c2.137-1.346,7.514,1.299,7.796,0.208c-1.048-1.147-4.296-1.43-5.738-2.478	c-1.765-1.736-3.393-3.393-0.489-7.485c1.452-2.244,1.221-2.8,2.902-3.42c2.228-0.09,7.008,2.91,10.664,2.793	c-1.675-1.394-7.37-2.512-9.188-3.83c-1.817-1.318-0.438-3.365,1.429-5.707c2.244-1.98,3.168-2.112,6.072-0.792	c1.98,0.792,5.114,1.616,8.51,2.185c-1.318-1.36-7.322-2.845-8.642-3.901c-2.508-1.848-2.508-2.623-0.132-5.263l3.554-1.461	l3.97,2.104c2.904,1.32,7.398,2.887,7.398,2.491c0-0.264-4.098-2.095-6.21-3.283c-2.244-1.188-3.611-2.904-3.611-3.828	c0-3.3,3.045-3.738,7.712-0.486c2.376,1.386,8.308,3.195,8.662,2.528c0.439-0.827-3.978-1.637-6.163-2.702	c-2.17-1.238-6.244-3.268-6.244-4.324c0.536-1.79,2.944-3.068,13.372-4.256c7.788-0.924,11.88-3.432,15.312-9.108	c4.224-6.864,3.432-12.804-2.244-18.216l-4.752-4.488l2.772,4.224c5.148,7.392,2.64,16.236-4.62,16.236	c-1.716,0-4.224,0.66-5.544,1.584c-1.848,1.056-3.457,0.828-5.008,0.371l-2.523-0.743l-0.874-0.188l3.653-2.476	c4.092-1.98,5.808-5.808,3.564-8.052c-0.792-0.792-1.056,0-0.66,2.112c0.528,2.508,0,3.696-1.848,4.356	c-1.32,0.66-3.96,2.112-5.676,3.432c-5.676,4.092-13.332,8.844-14.124,8.844c-0.396,0,0.264-1.32,1.716-3.036	c1.452-1.584,0.66-1.32-1.716,0.924c-3.564,3.168-4.62,3.564-6.336,2.112c-2.904-2.376-2.508-3.432,2.508-6.6	c3.036-1.716,5.148-4.488,6.204-7.656c0.792-2.64,2.112-5.544,2.64-6.336c0.792-0.924,0.396-2.112-0.792-3.168	c-1.122-0.924-2.244-3.07-2.124-3.856c0.521,0.098,0.917,0.244,1.464,0.556c0.66,0.396,1.32-0.132,1.32-1.32	c0-0.594-0.457-2.844-0.334-3.397c0.312,0.573,1.258,1.879,1.654,2.077c0.66,0.396,1.452,0,1.452-0.924	c0.198-1.914,0.444-2.474,0.608-3.374c0.271,0.492,1.638,2.465,2.258,2.939c-0.527-1.457-0.11-6.134,0.116-6.568	c0.039,1.253,0.745,3.48,0.958,4.285c1.402,1.976,1.742,2.408,3.32,2.886c1.337,0.05,1.981-0.498,3.829-2.676	c1.848-2.244,2.978-3.925,3.086-5.069c0-1.188-3.916-5.887-8.554-7.654c-1.964-0.714-2.231-0.916-3.436-1.238	c0.328-0.074,0.81-0.532,2.243-0.8c0.75-0.14,3.79-0.13,5.751,0.802c1.754,0.563,5.808,2.294,7.656,4.142	c1.002,0.169-0.135-3.203,1.035-2.717c1.17,0.487,0.707,3.999,1.694,4.526c1.481,0.79,1.72-1.804,2.38-1.804	c0.66,0.066-0.532,3.076,0.694,3.778c0.802,0.46,3.581-2.951,3.911-2.423c0.244,0.412-2.146,3.233-1.501,3.652	c0.796,0.627,0.718,1.466,2.478,0.769c1.442-0.727,7.812-4.726,9.452-4.612c-1.522,0.998-2.706,2.212-4.357,3.72	c-2.64,2.772-3.386,3.118-1.274,3.439c1.962-0.322,2.447-0.915,3.415-0.26c0.484,0.327-0.443,2.826,0.213,3.226	c0.656,0.4,2.908-0.479,3.159-0.22c1.006,1.04-0.784,2.433-0.19,3.951c0.792,2.244,1.188,2.244,3.828,0.396	c2.112-1.518,4.812-2.604,4.892-2.03c0.107,0.755-0.536,1.106-1.724,2.822c-3.828,5.412-2.772,6.468,4.752,5.676	c0,0,6.127-1.788,7.962,1.013c-1.812-0.34-6.155,0.524-7.314,1.026c-0.627,0.272-1.985,1.086-3.158,2.018	c-0.586,0.466-0.247,0.832,0.108,1.863c1.373,0.495,2.869,0.797,4.489,0.706c-4.899,1.973-4.46,0.342-6.236,1.333	c1.276,2.105,2.291,1.949,6.654,2.56c1.081,0.517,2.126,0.761,3.314,1.091c1.221,0.33,1.976,1.277,1.675,1.385	c-0.301,0.108-1.499-0.194-2.844-0.327c-1.578,0.02-0.761,0.007-4.297,0.371c-1.653,0.403-2.393,1.617-2.073,2.279h0	c0.532,1.119,6.896,0.815,5.126,1.277c0,0-4.916,0.906-6.542,2.303c-0.288,1.236,1.428,1.784,1.428,1.784l6.234-0.664	c0.066,0.853-6.06,1.175-5.85,2.457c0.069,0.416-0.339,1.199,1.7,0.966c1.856,0.086,4.134-0.103,5.513,0.61	c1.002,0.5,1.122,1.61,0.808,2.561c-0.907-0.739-2.35-1.348-3.142-1.612c-1.691-0.219-2.914,0.128-4.057,0.617	c-1.143,0.489-1.937,1.012-2.931,2.968c-0.66,1.716-2.772,3.696-4.752,4.488c-2.112,0.66-5.486,2.468-6.996,4.488	c-1.674,2.239-2.922,4.054-6.954,6.383c-2.012,1.811-2.118,2.374-1.959,2.524c-0.072,0.006-0.162,0.016-0.277,0.033	c-4.545,0.698-7.046,1.751-7.838,2.807c-0.924,1.056-3.036,2.244-4.752,2.64c-1.848,0.528-3.3,1.452-3.3,2.112	c0,0.792-0.924,1.32-2.112,1.32c-2.904,0-15.84,13.596-18.216,19.008c-4.488,10.164-5.28,13.86-5.28,23.76	c0.132,6.6,0.924,12.54,2.112,15.312c2.64,6.204,13.898,18.669,16.934,18.669c0.536,0.152,0.32,0.097,0.956,0.2	c0.292,0.436,0.458,0.478,1.49,0.959c1.499,0.749,3.42,1.115,5.764,1.182c2.344,0.067,5.108-0.166,8.295-0.612	c3.186-0.446,6.311-1.108,8.638-1.88C342.182,245.937,343.038,245.519,343.713,244.807z M299.681,214.898	c0.182,2.92,0.203,3.76,0.818,6.212c-0.878-0.056-0.828-0.041-1.678,0.004c-0.851,0.046-0.958,0.187-1.423,0.322	c-0.411-2.615-0.445-4.711-0.627-7.288c-0.069-2.461-0.064-3.064,0.073-5.537c0.719,0.058,1.083,0.119,1.423,0.198	c0.569,0.157,0.857,0.304,1.528,0.519C299.611,211.889,299.605,212.624,299.681,214.898z M337.11,244.864	c1.226-0.412,3.513-0.788,5.648-2.07c0.431,0.262,0.287,0.151,0.478,0.499c0.144,0.264,0.181,0.188,0.049,0.822	c-1.796,0.956-2.754,1.583-5.658,2.408c-3.853,0.794-3.917,0.725-7.102,1.279c-0.124-0.58-0.107-0.448-0.19-0.853	c-0.03-0.373-0.036-0.502-0.066-1.06C332.742,245.626,334.188,245.465,337.11,244.864z M316.916,245.663	c0.077-0.373,0.044-0.233,0.336-0.766c0.65,0.165,2.711,0.808,5.447,1.063c1.52,0.098,2.687,0.356,6.53,0.101	c0.036,0.492-0.023,0.342-0.002,0.802c0.023,0.486,0.029,0.533,0.099,1.048c-1.93,0.26-3.661,0.358-7.771,0.219	c-3.344-0.652-3.649-0.721-5.012-1.533C316.768,246.151,316.678,246.041,316.916,245.663z M311.681,241.738	c1.146,1.152,2.951,2.216,4.477,2.686c-0.188,0.482-0.26,0.546-0.428,0.794c-0.173,0.257-0.188,0.31-0.546,0.712	c-3.006-1.212-3.446-2.152-4.914-3.229c-1.943-1.925-2.689-2.636-3.731-3.876c0.666-0.424,0.453-0.325,0.888-0.606	c0.191-0.184,0.325-0.254,0.617-0.445C309.307,239.371,309.784,240.106,311.681,241.738z M300.758,222.185	c0.835,3.364,1.043,4.207,2.297,7.284c1.522,3.08,1.971,4.082,4.515,7.445c-0.302,0.275-0.515,0.349-0.768,0.593	c-0.262,0.253-0.451,0.505-0.727,0.697c-2.233-2.401-3.926-4.765-5.663-7.288c-1.462-2.675-2.1-4.297-2.874-8.644	c0.719,0.058,1.565-0.042,1.906,0.037C300.014,222.466,300.088,222.452,300.758,222.185z M300.94,204.05	c-0.49,1.291-0.722,2.332-0.991,4.222c-0.905-0.377-0.951-0.409-1.798-0.577c-0.852-0.169-0.45-0.054-1.423-0.241	c0.071-1.731,0.278-3.318,0.524-4.743c0.333-1.256,0.766-3.305,1.385-4.466c0.919,0.394,0.911,0.268,2.012,0.787h0	c0.703,0.452,1.093,0.461,2.032,0.971C301.941,201.085,301.266,203.143,300.94,204.05z M304.101,197.274	c-0.434,0.83-0.413,0.519-1.164,1.926c-0.798-0.457-1.526-0.891-2.214-1.201c-0.674-0.304-0.986-0.402-2.013-0.776	c0.473-1.329,0.681-1.738,0.954-2.547c0.44-0.961,0.605-1.136,1.224-2.296c0.919,0.394,1.393,0.67,2.495,1.189	c0.703,0.452,1.04,0.756,2.139,1.588C304.781,196.237,304.507,196.473,304.101,197.274z M307.548,192.235	c-1.229,1.21-0.565,0.823-1.505,1.889c-1.177-0.761-1.606-1.29-2.593-1.77c-1.015-0.493-0.872-0.326-2.24-1.004	c0.586-1.253,0.643-1.435,1.37-2.357c0.44-0.961,1.136-1.628,1.869-2.486c0.767,0.508,1.62,1.012,2.532,1.72h0	c0.892,0.49,1.078,0.643,2.404,1.777C308.455,190.933,308.144,191.51,307.548,192.235z M312.397,187.084	c-1.229,1.21-1.095,1.126-2.036,2.192c-0.874-0.988-1.232-1.011-2.516-2.149c-1.242-1.099-1.63-1.159-2.997-1.837	c0.889-1.253,1.172-1.586,3.036-3.645c1.501-1.34,2.121-2.689,3.687-3.319c0.843,0.735,1.924,1.011,2.684,2.553	c0.514,1.171,0.775,1.779,1.268,3.52C313.834,185.933,313.675,185.904,312.397,187.084z M319.898,181.705	c-1.23,0.754-1.853,1.201-3.172,2.04c-0.722-1.821-0.366-2.261-1.608-3.891c-1.242-1.63-2.236-1.993-3.3-2.519	c1.117-1.177,4.052-3.632,5.461-4.63c1.501-1.339,2.197-0.946,3.763-1.576c0.843,0.735,1.166,1.087,1.926,2.629	c0.211,1.323-0.362,3.749,0.208,5.413C321.713,180.175,321.175,180.524,319.898,181.705z M324.529,178.669	c-0.647-1.367,0.022-3.501-0.32-5.028c-0.476-2.186-0.796-1.993-2.24-3.352c0.889-1.784,2.006-1.965,3.643-2.66	c1.576-0.506,1.363-0.946,2.702-1.122c0.844,1.342,0.787,3.133,1.169,4.826h0c0.362,1.02,0.698,1.855,1.268,3.595	c-1.007,1.005-1.166,0.597-2.747,1.549C326.471,177.459,326.303,177.905,324.529,178.669z M368.661,163.907	c0.842,1.27,1.411,2.689,2.635,3.674c-1.401,0.074-2.041-0.176-3.295-0.638c-1.32-0.528-2.437-0.882-1.53,1.167	c0.108,0.179,0.195,0.302,0.266,0.382c0.619,1.399,2.649,3.812-1.528,3.016c-1.486-0.213-2.162-0.187-3.265-0.124	c0.772,1.134,0.904,1.181,1.569,2.027c0.747,1.101,0.896,2.536,2.663,3.464c-1.5,0.009-2.727,0.146-3.72-0.643	c-0.993-0.788-1.004-1.11-3.098-2.617c-0.286,1.579-0.145,1.895,0.01,2.941c0.268,1.811,0.617,2.287,1.162,3.719	c-2.274,0.527-3.671-0.19-4.068-1.171c-0.594-0.62-1.442-2.2-2.608-2.519c-0.473,1.423,0.03,1.478,0.204,2.683	c0.496,1.355,0.619,2.32,1.044,3.592c-2.308-0.657-3.725-1.489-5.185-3.246c-2.508-2.112-2.508-2.112-1.716,0.66	c0.326,1.848,0.247,2.261,0.918,3.856c-2.222-0.388-4.284-1.414-5.406-3.196c-1.32-1.98-1.452-1.848-0.924,0.66	c0.074,1.687-0.218,1.96,0.197,3.592c-2.017-0.427-3.497-1.216-4.553-2.932c-1.32-1.98-1.452-1.848-0.924,0.66	c0.33,1.584-0.276,1.91,0.659,3.563c-2.279-0.972-2.375-0.726-3.167-1.98c-0.528-1.056-1.398,0.354-2.454,2.334	c-0.858,1.518-1.555,1.634-2.195,1.709c-0.157-1.158-0.631-1.93-1.687-4.438c-1.188-2.904-1.98-5.28-1.848-5.544	c0.264-0.132,3.564-1.848,7.26-3.828c3.828-1.848,6.996-3.96,6.996-4.752c0-0.66,0.66-1.188,1.584-1.188	c2.112,0,7.656-5.28,7.656-7.26c0-0.924,1.188-3.168,2.64-4.884c1.98-2.64,4.224-3.564,10.164-4.224	c4.199-0.742,7.723-1.848,9.9-3.036c1.09-0.57,1.238-1.052,2.075-1.377c0.033,0.693-0.425,2.829-1.943,4.281	c-0.858,0.924-1.737,1.124-2.518,1.607c0.734,0.747,1.264,2.155,1.858,3.145c1.32,2.112,1.32,2.772-0.528,3.432	c-1.716,0.66-1.716,1.056-0.264,1.98c0.594,0.462,1.488,0.78,2.114,1.183c-0.981,0.244-1.748,0.305-3.62-0.173	C367.816,162.026,367.634,162.451,368.661,163.907z M162.939,193.738c-0.34-3.637-0.682-6.309-2.275-7.404	c2.166-1.112,2.285-8.793-0.428-9.799c2.591-3.203,0.835-5.867-0.22-8.009c-1.244-1.678-1.978-3.22-4.024-4.276	c0.227-1.53-0.997-4.304-2.845-6.02c-1.848-1.716-3.3-3.696-3.3-4.356c0-0.66-0.779-4.109-6.659-5.869	c-0.035-2.037-1.679-4.52-4.074-5.159c0.64-2.099-2.51-3.773-3.986-4.647c-2.309-0.463-4.355-1.155-6.797-1.221	c-12.936-0.132-18.796-7.388-20.056-13.056c-1.046-4.06-0.875-6.182,2.039-10.784c-0.737,2.501-1.037,3.905-0.958,6.127	c0.207,5.113,3.664,8.605,8.944,8.605c1.98,0,4.092,0.66,4.62,1.452c0.528,0.792,2.64,1.056,5.28,0.66	c1.726-0.86,3.254-1.045,5.259-1.018c1.248,0.785,2.595,2.008,4.641,3.13c3.036,1.716,6.864,3.828,8.58,4.752	c3.696,1.98,7.788,1.056,9.108-2.112c0.528-1.452-0.792-3.432-4.488-6.6c-3.036-2.508-5.412-5.148-5.412-5.94	c0-0.924-0.792-3.168-1.848-5.148c-1.584-3.036-1.584-3.828,0-5.148c1.056-0.792,1.205-1.683,1.687-2.718	c0.161-0.724,0.174-1.68-0.032-2.476c-0.662,0.062-2.026,0.527-2.691,0.744c0.339-1.511,0.46-3.504-0.389-5.099	c-0.983,0.869-1.544,1.761-2.006,1.761c-0.793,0-0.564-1.927-0.828-2.653c-0.264-0.726-0.491-1.229-1.284-2.759	c-0.298,1.384-0.594,2.247-0.912,2.44c0.004-0.686-0.335-3.314-0.716-3.908c-0.434-0.68-1.157-0.979-1.356-1.124	c-0.344,0.674-0.118,1.932-0.844,3.912c-1.716,5.016-3.3,5.28-6.468,0.924c-2.508-3.168-2.508-3.432-0.264-5.94	c1.32-1.32,4.092-3.3,6.204-4.092c2.112-0.924,2.432-0.979,4.462-1.571c-0.41-1.265-1.831-2.301-3.338-2.572	c-1.507-0.272-3.286,0.167-4.813,0.379c-3.055,0.422-6.769,2.754-8.485,3.942c-0.792,0.56-0.313-3.59-1.489-3.136	c-1.176,0.455-1.658,4.077-2.402,4.577c-0.744,0.499-1.531-2.326-2.912-1.504c-0.968,0.577,0.85,3.419-0.371,3.551	c-0.638,0.738-3.571-3.831-4.88-1.335c-0.248,1.094,1.577,3.188,1.183,3.896c-0.055,0.07-0.098,0.126-0.133,0.176	c0.057-0.2,0.029-0.488-0.425-0.656c-0.466-0.489-1.202-0.614-1.977-1.018c-1.551-0.809-4.475-2.816-6.323-2.816l-5.988-0.75	l4.036,2.721l2.857,2.561c1.11,0.995,2.2,2.045,1.744,2.144c-0.456,0.098-2.528-0.15-3.452-0.15c0.205,1.822,0.57,2.351,0.57,3.143	c0,0.66-2.784-0.396-3.84-0.396c0.205,1.607-0.178,1.599,0.35,3.051c0.66,1.716,0.774,2.586-1.338,1.662	c-1.32-0.528-3.505-1.85-5.221-2.246l-1.802,0.049l-1.65,0.655l2.601,2.862c4.092,5.148,3.696,5.94-2.772,5.148	c-4.092-0.66-6.822-0.692-8.01,0.76c-0.726,0.792-1.921,1.534-2.563,2.804c1.399,0.056,4.303,0.066,6.217,0.396	c2.178,0.396,4.118,1.228,5.134,1.96c1.016,0.733,0.572,0.455-0.946,0.455c-0.792,0-1.131-0.032-2.095,0.174	c-0.964,0.232-1.28,0.842-2.082,1.324c1.984,2.09,3.401,1.846,5.396,2.164c-1.701,0.371-2.088,0.316-3.283,0.459	c-1.247,0.398-2.211,0.652-3.304,1.04c-1.146,0.334-2.223,0.791-3.263,1.645c-0.295,1.795-0.528,2.851-0.238,2.986	c0.29,0.135,1.159-0.277,2.105-0.562c1.397-0.015,8.003-0.134,6.641,0.623l-3.295,0.327c-1.445,0.533-2.373,0.057-4.135,1.189	c2.388,1.772,4.749,1.624,5.808,2.003c1.614,0.204,3.805,1.113,3.046,1.08c-0.924-0.033-7.472-0.667-7.664,0.263	c-0.155,0.751,0.992,1.102,2.176,1.692c1.331,0.664,2.03,0.642,3.308,1.01c-1.085,0.46-1.74,0.109-2.972,0.152	c-1.233,0.043-3.419,1.07-3.604,1.606c-0.431,1.248,0.007,3.869,0.858,4.276c0.905-1.307,2.864-1.775,3.869-2.312	c1.894,0.02,3.322,0.121,4.454,1.49c0.605,1.748,1.651,3.523,3.595,5.498c1.038,1.055-0.397,0.946-0.397,2.266	c0,1.32-3.113,1.39-6.7,0.848c-3.586-0.542-7.645-1.965-9.536-3.096c-1.114-0.553-1.808-0.998-3.596-2.378	c-0.182,1.834,0.362,3.967,1.616,6.211c0.594,1.056,1.81,2.633,2.643,2.694c-0.607,0.932-0.649,1.407-1.171,2.305	c-0.631,1.123-2.203,3.488,0.503,5.048c-0.868,1.088-2.309,1.555-3.257,2.071c1.141,1.267,2.668,1.082,3.13,1.082	c1.056,0,2.192-0.071,1.796,1.117c-0.264,0.594-1.034,1.497-3.14,2.652c1.984,0.48,4.581,0.792,6.186,0.711	c-0.692,1.255-1.727,2.849-3.502,3.55c2.143,0.82,3.148-0.11,4.6-0.11c2.112,0,2.535,0.396,1.907,1.609	c-0.539,0.965-1.589,1.831-3.323,3.37c2.214,0.367,5.602,0.782,7.671-1.142c-0.09,1.412-0.572,3.269-2.144,4.953	c2.552,0.452,5.405,0.623,6.949-0.589c0.027,1.979,0.005,1.958-1.371,3.559c1.571,0.101,5.806-0.855,7.544-2.566	c-0.173,1.682,0.129,2.25-1.639,4.097c3.429-0.617,6.394-1.454,7.582-2.798c-0.231,1.494,0.358,1.841-2.746,3.618	c3.967-0.42,7.027-0.589,8.095-1.951c0.082,1.599-0.614,1.645-1.3,3.249c1.992-0.271,3.993-1.449,4.323-1.549	c1.452-0.396,2.426,0.936,2.954,2.124c1.183,1.114,1.802,0.925,3.517,1.972c-0.267-1.793,0.723-3.37,1.845-6.208l2.112-5.412	l5.808,4.092c9.24,6.204,16.368,15.18,18.084,22.44c3.168,13.2-3.3,30.756-13.596,37.224c-5.28,3.3-20.196,3.036-27.588-0.66	c-8.844-4.356-13.2-15.048-10.428-25.608c2.244-8.184,11.748-12.276,18.084-7.656c2.112,1.716,2.244,2.376,0.924,4.62	c-1.848,2.904-0.528,4.488,2.772,3.3c2.508-0.924,3.828-5.016,2.772-8.448c-2.112-6.732-16.764-8.58-24.288-3.036	c-4.752,3.564-8.448,14.784-7.26,22.44c1.32,8.58,7.788,17.424,15.708,21.516c8.976,4.62,24.684,4.752,33.924,0.264	c4.224-2.078,7.813-4.702,10.797-7.944c2.984-3.242,5.365-7.103,7.172-11.657c0.904-2.277,2.61-5.334,2.284-9.642	c1.492-0.824,1.859-5.022,0.69-7.158c2.088-0.431,2.146-4.615-0.276-6.197c0.71-0.141,1.219-0.768,1.552-1.646	c0.333-0.878,0.488-2.006,0.489-3.149c0.002-1.143-0.15-2.302-0.432-3.239c-0.281-0.938-0.694-1.654-1.211-1.916	C162.559,196.058,162.954,194.962,162.939,193.738z M94.228,150.498L94.228,150.498c-0.149-0.708,0.174-1.06,1.32-1.795	c1.415,0.175,3.872,1.182,5.43,2.561c2.653,2.35,3.056,3.225,4.552,5.236c-0.61,1.208-1.007,1.469-2.164,2.595	c-1.175,0.769-1.87,1.236-2.668,1.618c-0.637-1.976-1.412-2.952-3.172-5.222c-0.823-1.255-3.256-2.211-4.489-3.14	C93.302,151.368,93.79,151.291,94.228,150.498z M111.047,165.423c0.912-1.238,1.083-2.12,1.85-3.007	c1.339,0.175,2.414,0.388,3.99,0.894c2.167,0.468,2.45,1.18,3.567,2.358c-0.61,1.208-0.704,2.756-1.179,4.943	c-0.342,1.527-0.658,2.373-1.305,3.739c-1.774-0.763-3.079-1.437-4.611-2.419c-1.581-0.952-3.104-1.908-3.808-3.898	C110.349,166.596,110.306,166.14,111.047,165.423L111.047,165.423z M110.033,164.929c-1.024,0.921-1.037,1.616-1.987,2.755	c-1.774-0.46-2.928-1.134-4.308-2.722c-0.975-1.18-2.12-1.226-2.596-3.216c1.251-0.832,2.269-1.212,3.01-1.928	c1.215-0.784,1.537-1.894,2.381-2.401c1.111,0.478,0.822,0.616,2.626,1.5c1.939,1.226,1.238,0.953,2.734,2.964	C111.283,163.087,110.962,163.651,110.033,164.929z M121.335,184.103c-1.056,2.508-1.531,3.28-1.687,4.438	c-0.64-0.074-1.337-0.191-2.195-1.709c-1.056-1.98-1.926-3.39-2.454-2.334c-0.792,1.254-0.887,1.008-3.167,1.98	c0.935-1.653,0.329-1.979,0.659-3.563c0.528-2.508,0.396-2.64-0.924-0.66c-1.056,1.716-2.536,2.506-4.553,2.932	c0.415-1.632,0.122-1.905,0.197-3.592c0.528-2.508,0.396-2.64-0.924-0.66c-1.122,1.782-3.184,2.809-5.406,3.196	c0.671-1.595,0.592-2.008,0.918-3.856c0.792-2.772,0.792-2.772-1.716-0.66c-1.46,1.757-2.878,2.589-5.185,3.246	c0.425-1.272,0.548-2.237,1.044-3.592c0.174-1.205,0.677-1.261,0.204-2.683c-1.166,0.319-2.014,1.898-2.608,2.519	c-0.397,0.981-1.794,1.698-4.068,1.171c0.545-1.432,0.895-1.909,1.162-3.719c0.155-1.046,0.296-1.363,0.01-2.941	c-2.094,1.507-2.105,1.829-3.098,2.617c-0.993,0.788-2.22,0.652-3.72,0.643c1.768-0.928,1.916-2.363,2.663-3.464	c0.665-0.845,0.797-0.893,1.569-2.027c-1.102-0.063-1.778-0.089-3.265,0.124c-4.178,0.795-2.148-1.618-1.528-3.016	c0.071-0.081,0.158-0.203,0.266-0.382c0.907-2.049-0.21-1.695-1.53-1.167c-1.254,0.462-1.894,0.713-3.295,0.638	c1.224-0.986,1.793-2.404,2.635-3.674c1.027-1.456,0.845-1.88-1.531-0.442c-1.872,0.479-2.639,0.417-3.62,0.173	c0.626-0.403,1.52-0.721,2.114-1.183c1.452-0.924,1.452-1.32-0.264-1.98c-1.848-0.66-1.848-1.32-0.528-3.432	c0.594-0.99,1.123-2.398,1.858-3.145c-0.781-0.482-1.66-0.683-2.518-1.607c-1.518-1.452-1.976-3.588-1.943-4.281	c0.837,0.325,0.986,0.807,2.075,1.377c2.177,1.188,5.701,2.294,9.9,3.036c5.94,0.66,8.184,1.584,10.164,4.224	c1.452,1.716,2.64,3.96,2.64,4.884c0,1.98,5.544,7.26,7.656,7.26c0.924,0,1.584,0.528,1.584,1.188c0,0.792,3.168,2.904,6.996,4.752	c3.696,1.98,6.996,3.696,7.26,3.828C123.315,178.823,122.523,181.199,121.335,184.103z M125.791,173.641	c-0.341,1.527,0.327,3.661-0.32,5.028c-1.774-0.764-1.942-1.21-3.475-2.192c-1.581-0.952-1.74-0.544-2.747-1.549	c0.569-1.741,0.905-2.575,1.268-3.595h0c0.382-1.693,0.325-3.484,1.169-4.826c1.339,0.176,1.126,0.616,2.702,1.122	c1.636,0.695,2.753,0.877,3.643,2.66C126.587,171.649,126.266,171.455,125.791,173.641z M130.102,181.705	c-1.277-1.18-1.816-1.53-3.277-2.535c0.57-1.664-0.004-4.09,0.208-5.413c0.76-1.542,1.083-1.894,1.926-2.629	c1.566,0.63,2.262,0.237,3.763,1.576c1.409,0.998,4.344,3.453,5.461,4.63c-1.064,0.526-2.058,0.89-3.3,2.519	c-1.242,1.63-0.886,2.07-1.608,3.891C131.955,182.905,131.332,182.459,130.102,181.705z M139.639,189.275	c-0.941-1.066-0.806-0.982-2.036-2.192c-1.278-1.18-1.437-1.15-3.126-2.686c0.494-1.741,0.754-2.348,1.268-3.52	c0.76-1.542,1.841-1.818,2.684-2.553c1.566,0.63,2.186,1.979,3.687,3.319c1.864,2.059,2.147,2.392,3.036,3.645	c-1.367,0.678-1.755,0.738-2.997,1.837C140.871,188.264,140.512,188.288,139.639,189.275z M142.452,192.235	c-0.596-0.725-0.907-1.302-1.838-2.231c1.327-1.134,1.512-1.287,2.404-1.777h0c0.912-0.708,1.765-1.212,2.532-1.72	c0.733,0.857,1.429,1.525,1.869,2.486c0.727,0.923,0.784,1.104,1.37,2.357c-1.368,0.678-1.225,0.511-2.24,1.004	c-0.986,0.48-1.416,1.009-2.593,1.77C143.017,193.058,143.681,193.445,142.452,192.235z M145.899,197.274	c-0.406-0.801-0.68-1.037-1.421-2.118c1.099-0.832,1.436-1.136,2.139-1.588c1.102-0.519,1.576-0.795,2.495-1.189	c0.619,1.16,0.784,1.336,1.224,2.296c0.273,0.809,0.481,1.218,0.954,2.547c-1.027,0.374-1.339,0.473-2.013,0.776	c-0.688,0.31-1.416,0.744-2.214,1.201C146.312,197.793,146.333,198.104,145.899,197.274z M149.06,204.05	c-0.326-0.908-1.001-2.966-1.742-4.046c0.939-0.51,1.329-0.52,2.032-0.971h0c1.102-0.519,1.093-0.393,2.012-0.787	c0.619,1.16,1.052,3.21,1.385,4.466c0.246,1.425,0.454,3.012,0.524,4.743c-0.973,0.187-0.571,0.072-1.423,0.241	c-0.847,0.168-0.892,0.2-1.798,0.577C149.782,206.383,149.549,205.341,149.06,204.05z M150.206,209.328	c0.671-0.215,0.958-0.362,1.528-0.519c0.34-0.079,0.704-0.14,1.423-0.198c0.137,2.473,0.142,3.076,0.073,5.537	c-0.182,2.577-0.216,4.673-0.627,7.288c-0.465-0.134-0.572-0.276-1.423-0.322c-0.85-0.046-0.8-0.06-1.678-0.004	c0.615-2.452,0.636-3.293,0.818-6.212C150.395,212.624,150.389,211.889,150.206,209.328z M146.944,229.469	c1.254-3.077,1.463-3.92,2.297-7.284c0.671,0.267,0.744,0.281,1.313,0.124c0.34-0.079,1.187,0.021,1.906-0.037	c-0.774,4.348-1.412,5.969-2.874,8.644c-1.736,2.524-3.43,4.888-5.663,7.288c-0.276-0.192-0.464-0.444-0.727-0.697	c-0.253-0.244-0.466-0.318-0.768-0.593C144.973,233.551,145.423,232.55,146.944,229.469z M138.319,241.738	c1.897-1.631,2.374-2.366,3.637-3.963c0.292,0.191,0.426,0.262,0.617,0.445c0.435,0.281,0.222,0.182,0.888,0.606	c-1.042,1.24-1.788,1.951-3.731,3.876c-1.468,1.077-1.908,2.017-4.914,3.229c-0.358-0.402-0.373-0.455-0.546-0.712	c-0.168-0.248-0.239-0.312-0.428-0.794C135.367,243.954,137.173,242.89,138.319,241.738z M120.77,246.062	c3.843,0.255,5.01-0.002,6.53-0.101c2.735-0.255,4.797-0.898,5.447-1.063c0.292,0.532,0.259,0.392,0.336,0.766	c0.239,0.378,0.148,0.488,0.373,0.934c-1.363,0.812-1.668,0.881-5.012,1.533c-4.11,0.139-5.841,0.041-7.771-0.219	c0.07-0.514,0.076-0.562,0.099-1.048C120.794,246.404,120.734,246.554,120.77,246.062z M106.764,243.293	c0.19-0.348,0.047-0.237,0.478-0.499c2.135,1.282,4.423,1.658,5.648,2.07c2.922,0.601,4.368,0.762,6.84,1.025	c-0.03,0.559-0.036,0.687-0.066,1.06c-0.082,0.406-0.066,0.274-0.19,0.853c-3.185-0.554-3.248-0.485-7.102-1.279	c-2.904-0.826-3.862-1.452-5.658-2.408C106.583,243.481,106.62,243.557,106.764,243.293z M101.648,240.346	c0.19-0.348,0.511-1.394,0.933-0.713c0.368,0.596,1.94,1.518,2.872,2.158c0.741,0.509,0.631,0.543,0.443,0.685	c-0.484,0.366-0.52,0.536-1.127,0.451c-0.992-0.138-1.12-0.419-2.072-1.196C102.229,241.349,101.503,240.611,101.648,240.346z	 M98.456,234.624c0.664,1.266,1.512,2.59,2.684,3.658c0.665,0.605,0.213,0.856-0.012,0.926v0c-0.564,0.178-0.422,0.29-0.886-0.111	c-0.376-0.326-0.638-0.874-1.322-1.679c-0.391-0.46-1.172-1.782-1.209-2.081C97.606,234.48,98.084,233.914,98.456,234.624z	 M96.179,229.187c0.382,1.378,0.507,1.396,1.158,3.015c0.251,0.624,0.588,1.418,0.363,1.489v0c-0.564,0.178-0.503,0.29-0.966-0.111	c-0.376-0.326-0.752-1.172-1.189-2.134c-0.257-0.566-0.828-1.414-0.62-1.974C95.156,228.85,95.968,228.424,96.179,229.187z	 M95.59,223.829c0.06,0.574-0.025,0.908,0.086,1.89c0.18,1.586,0.348,1.774,0.175,2.105c-0.221,0.424-0.628,0.373-1.288,0.076	c-0.532-0.239-0.332-1.08-0.412-2.134c-0.042-0.566-0.158-1.093-0.004-1.84C94.282,223.277,95.507,223.042,95.59,223.829z	 M94.403,222.142c-0.372-0.45,0.069-1.241,0.097-2.134c0.018-0.568,0.176-1.139,0.479-1.84c0.188-0.436,0.866-0.487,0.879,0.305	c0.006,0.386-0.103,0.888-0.209,1.729c-0.115,0.923-0.074,1.506-0.28,2.078C95.241,222.638,94.715,222.518,94.403,222.142z	 M98.188,211.99c-0.128,0.601-0.987,1.746-1.28,2.72c-0.268,0.89-0.396,1.399-0.601,1.971h0c-0.128,0.358-0.701,0.019-0.806-0.46	c-0.158-0.717,0.34-1.507,0.552-2.375c0.179-0.728,0.507-1.595,1.095-2.081C97.577,211.411,98.353,211.216,98.188,211.99z	 M102.956,207.812c-0.128,0.306-0.532,0.433-1.253,0.925c-0.768,0.524-1.628,1.532-1.887,1.543	c-0.38,0.014-0.822,0.121-0.698-0.352c0.11-0.423,0.52-0.631,1.302-1.25c0.4-0.316,1.103-0.895,1.496-1.09	C102.37,207.362,103.261,207.081,102.956,207.812z M159.782,196.249c-1.287,0.292-2.549,0.657-1.178,1.056	c1.819,0.529,2.739,2.836,2.677,5.024c-0.063,2.188-1.109,4.255-3.224,4.306c2.362,0.965,4.439,5.867,0.516,5.852	c1.966,0.994,1.57,6.464,0.514,6.464c-0.792,0-3.368,0.004-0.792,1.1c1.584,2.376-3.432,15.136-7.92,20.02	c-7.26,8.052-15.048,11.088-27.588,11.22c-8.58,0-11.748-0.66-17.028-3.168c-11.88-5.808-17.292-19.272-13.332-32.868	c2.508-8.184,6.072-10.956,14.916-11.88c5.016-0.396,6.996,0,9.9,2.376c3.828,3.036,4.62,6.336,1.98,8.976	c-2.508,2.508-3.828,1.848-2.112-1.188c1.452-2.376,1.32-3.036-1.452-5.28c-1.782-1.452-3.454-2.311-5.358-2.525	c-1.903-0.215-6.879-0.089-6.744,1.336c-0.313-0.761-1.909-0.326-3.311,0.845c-0.505,0.421-2.855,2.023-1.568,3.004	c-1.345-0.288-2.514,0.346-3.024,2.082c-0.637,2.166-1.225,3.754-0.26,4.185c-1.08,0.224-1.235,1.139-1.51,2.831	c-0.196,1.206-0.754,2.551,0.548,2.962c-1.271,0.291-0.955,1.955-0.802,3.027c0.154,1.072-0.083,2.612,1.177,2.581	c-1.096,0.564-0.215,2.121,0.279,3.264c0.563,1.304,1.051,2.68,2.035,2.485c-0.36,1.472,0.481,2.392,1.222,3.432	c1.125,1.582,1.369,2.189,2.797,2.338c-0.541,0.982,0.498,1.438,1.578,2.416c1.33,1.203,2.443,1.306,2.922,0.87	c-0.09,0.928,0.446,1.204,0.648,1.418c0.675,0.712,1.531,1.13,3.859,1.902c2.327,0.772,5.452,1.433,8.638,1.88	c3.187,0.446,5.951,0.679,8.295,0.612c2.344-0.067,4.265-0.433,5.764-1.182c1.031-0.482,1.198-0.524,1.49-0.959	c0.637-0.103,0.42-0.048,0.956-0.2c3.036,0,14.294-12.465,16.934-18.669c1.188-2.772,1.98-8.712,2.112-15.312	c0-9.9-0.792-13.596-5.28-23.76c-2.376-5.412-15.312-19.008-18.216-19.008c-1.188,0-2.112-0.528-2.112-1.32	c0-0.66-1.452-1.584-3.3-2.112c-1.716-0.396-3.828-1.584-4.752-2.64c-0.792-1.056-3.293-2.11-7.838-2.807	c-0.115-0.018-0.205-0.028-0.277-0.033c0.159-0.151,0.053-0.714-1.959-2.524c-4.032-2.329-5.28-4.144-6.954-6.383	c-1.51-2.02-4.884-3.828-6.996-4.488c-1.98-0.792-4.092-2.772-4.752-4.488c-0.994-1.955-1.788-2.479-2.931-2.968	c-1.143-0.489-2.366-0.836-4.057-0.617c-0.792,0.264-2.235,0.872-3.142,1.612c-0.314-0.951-0.194-2.061,0.808-2.561	c1.379-0.713,3.656-0.524,5.513-0.61c2.039,0.233,1.631-0.55,1.7-0.966c0.21-1.282-5.916-1.604-5.85-2.457l6.234,0.664	c0,0,1.716-0.548,1.428-1.784c-1.627-1.397-6.542-2.303-6.542-2.303c-1.77-0.462,4.594-0.158,5.126-1.277h0	c0.32-0.662-0.42-1.876-2.073-2.279c-3.536-0.364-2.719-0.35-4.297-0.371c-1.345,0.133-2.543,0.435-2.844,0.327	c-0.302-0.108,0.454-1.055,1.675-1.385c1.188-0.33,2.233-0.574,3.314-1.091c4.363-0.611,5.378-0.455,6.654-2.56	c-1.776-0.991-1.337,0.64-6.236-1.333c1.62,0.091,3.116-0.211,4.489-0.706c0.355-1.031,0.694-1.397,0.108-1.863	c-1.173-0.932-2.531-1.746-3.158-2.018c-1.159-0.502-5.502-1.366-7.314-1.026c1.835-2.801,7.962-1.013,7.962-1.013	c7.524,0.792,8.58-0.264,4.752-5.676c-1.188-1.716-1.831-2.067-1.724-2.822c0.08-0.574,2.78,0.512,4.892,2.03	c2.64,1.848,3.036,1.848,3.828-0.396c0.594-1.518-1.196-2.911-0.19-3.951c0.251-0.26,2.503,0.619,3.159,0.22	c0.656-0.4-0.271-2.899,0.213-3.226c0.968-0.655,1.453-0.062,3.415,0.26c2.112-0.322,1.366-0.667-1.274-3.439	c-1.651-1.508-2.834-2.722-4.357-3.72c1.64-0.115,8.01,3.884,9.452,4.612c1.76,0.697,1.682-0.142,2.478-0.769	c0.644-0.419-1.745-3.239-1.501-3.652c0.33-0.528,3.109,2.883,3.911,2.423c1.226-0.701,0.034-3.712,0.694-3.778	c0.66,0,0.899,2.593,2.38,1.804c0.988-0.527,0.524-4.039,1.694-4.526c1.17-0.487,0.033,2.885,1.035,2.717	c1.848-1.848,5.902-3.58,7.656-4.142c1.961-0.931,5.001-0.941,5.751-0.802c1.433,0.268,1.915,0.726,2.243,0.8	c-1.205,0.322-1.472,0.524-3.436,1.238c-4.637,1.768-8.554,6.466-8.554,7.654c0.107,1.144,1.238,2.825,3.086,5.069	c1.848,2.178,2.492,2.726,3.829,2.676c1.577-0.478,1.918-0.91,3.32-2.886c0.212-0.805,0.919-3.032,0.958-4.285	c0.226,0.434,0.643,5.111,0.116,6.568c0.62-0.473,1.987-2.447,2.258-2.939c0.164,0.901,0.41,1.46,0.608,3.374	c0,0.924,0.792,1.32,1.452,0.924c0.396-0.198,1.342-1.504,1.654-2.077c0.124,0.553-0.334,2.803-0.334,3.397	c0,1.188,0.66,1.716,1.32,1.32c0.547-0.312,0.943-0.458,1.464-0.556c0.12,0.786-1.002,2.932-2.124,3.856	c-1.188,1.056-1.584,2.244-0.792,3.168c0.528,0.792,1.848,3.696,2.64,6.336c1.056,3.168,3.168,5.94,6.204,7.656	c5.016,3.168,5.412,4.224,2.508,6.6c-1.716,1.452-2.772,1.056-6.336-2.112c-2.376-2.244-3.168-2.508-1.716-0.924	c1.452,1.716,2.112,3.036,1.716,3.036c-0.792,0-8.448-4.752-14.124-8.844c-1.716-1.32-4.356-2.772-5.676-3.432	c-1.848-0.66-2.376-1.848-1.848-4.356c0.396-2.112,0.132-2.904-0.66-2.112c-2.244,2.244-0.528,6.072,3.564,8.052l3.653,2.476	l-0.874,0.188l-2.523,0.743c-1.552,0.457-3.16,0.685-5.008-0.371c-1.32-0.924-3.828-1.584-5.544-1.584	c-7.26,0-9.768-8.844-4.62-16.236l2.772-4.224l-4.752,4.488c-5.676,5.412-6.468,11.352-2.244,18.216	c3.432,5.676,7.524,8.184,15.312,9.108c10.428,1.188,12.836,2.466,13.372,4.256c0,1.056-4.075,3.086-6.244,4.324	c-2.185,1.064-6.602,1.874-6.163,2.702c0.355,0.667,6.286-1.142,8.662-2.528c4.667-3.252,7.712-2.814,7.712,0.486	c0,0.924-1.367,2.64-3.611,3.828c-2.112,1.188-6.21,3.019-6.21,3.283c0,0.396,4.494-1.171,7.398-2.491l3.97-2.104l3.554,1.461	c2.376,2.64,2.376,3.415-0.132,5.263c-1.32,1.056-7.324,2.54-8.642,3.901c3.396-0.568,6.53-1.393,8.51-2.185	c2.904-1.32,3.828-1.188,6.072,0.792c1.867,2.342,3.247,4.389,1.429,5.707c-1.817,1.318-7.513,2.437-9.188,3.83	c3.656,0.117,8.436-2.883,10.664-2.793c1.681,0.62,1.45,1.176,2.902,3.42c2.904,4.092,1.276,5.749-0.489,7.485	c-1.442,1.048-4.69,1.331-5.738,2.478c0.283,1.091,5.66-1.553,7.796-0.208c2.136,1.345,1.335,6.151-1.041,7.141	c-1.088,0.091-2.432,0.355-3.842,0.809c1.161,0.104,3.243,0.269,4.58,0.838c1.299,0.552,1.929,3.547,2.157,5.339	C161.907,195.671,161.317,195.9,159.782,196.249z M315.901,118.219c-0.553,0-1.001-0.625-1.001-1.396l0.001-0.049	c0.019-0.752,0.461-1.347,1-1.347c0.553,0,1.001,0.625,1.001,1.396C316.901,117.593,316.453,118.219,315.901,118.219z	 M135.1,116.773l0.001,0.049c0,0.771-0.448,1.396-1.001,1.396c-0.552,0-1.001-0.625-1.001-1.396c0-0.771,0.448-1.396,1.001-1.396	C134.638,115.426,135.08,116.021,135.1,116.773z M125.704,113.107l-0.476-0.902c4.37-2.304,10.177,1.079,10.422,1.224l-0.021,0.035	c0.846,0.369,1.519,1.006,1.893,1.839c0.392,0.872,0.415,1.842,0.066,2.731l-0.949-0.373c0.248-0.632,0.231-1.321-0.047-1.94	c-0.292-0.649-0.831-1.145-1.519-1.398c-1.402-0.515-2.974,0.16-3.505,1.504c-0.25,0.632-0.234,1.321,0.044,1.942	c0.291,0.65,0.831,1.147,1.52,1.4c1.4,0.516,2.973-0.159,3.505-1.505l0.949,0.375c-0.568,1.436-1.988,2.322-3.489,2.322	c-0.439,0-0.884-0.076-1.317-0.235c-0.949-0.349-1.694-1.038-2.099-1.941c-0.391-0.874-0.413-1.845-0.061-2.734	c0.419-1.06,1.304-1.818,2.341-2.143C130.991,112.565,128.047,111.871,125.704,113.107z M324.772,112.205l-0.476,0.902	c-2.349-1.238-5.291-0.544-7.259,0.201c1.039,0.325,1.924,1.083,2.344,2.144c0.352,0.889,0.33,1.86-0.062,2.733	c-0.404,0.903-1.15,1.593-2.099,1.942c-0.433,0.159-0.878,0.235-1.317,0.235c-1.502,0-2.921-0.886-3.489-2.322l0.949-0.375	c0.531,1.345,2.103,2.02,3.505,1.505c0.69-0.253,1.229-0.751,1.52-1.401c0.278-0.621,0.294-1.31,0.044-1.942	c-0.532-1.345-2.104-2.021-3.505-1.504c-0.688,0.253-1.228,0.749-1.519,1.398c-0.278,0.619-0.295,1.308-0.047,1.94l-0.949,0.373	c-0.349-0.889-0.326-1.858,0.066-2.73c0.374-0.833,1.047-1.47,1.893-1.839l-0.021-0.035	C314.595,113.284,320.404,109.902,324.772,112.205z" />
    <path fill="#000000" d="M304.725,265.267c-1.584,2.904-3.168,5.412-3.432,5.412c-0.396,0-4.752-1.98-9.636-4.488	c-4.884-2.376-11.088-5.148-13.86-6.072c-2.31-0.726-4.708-1.549-6.022-2.182c-0.39,1.28-1.908,4.927-1.908,4.927	c-0.313,0.628-1.021,1.667-1.701,1.831c-0.745,0.179-1.118,0.001-1.823-0.226c-0.71-0.227-6.234-2.106-6.234-2.106	c-6.864-2.508-10.692-2.772-35.376-2.772c-24.684,0-28.512,0.264-35.376,2.64c0,0-5.88,3.191-8.264,2.402	c-2.261-0.749-1.447-0.687-2.755-3.423c-0.91-1.904-0.602-1.229-1.102-2.441c-1.24,0.515-3.242,0.921-5.435,1.35	c-2.868,0.561-9.108,3.696-13.992,6.072c-4.884,2.508-9.24,4.488-9.636,4.488c-0.264,0-1.848-2.508-3.432-5.412	c-2.244-4.488-2.376-5.676-0.924-6.732c4.488-3.036,15.708-8.448,23.496-11.088h0c9.636-3.432,16.623-3.845,17.679-1.205	c0.264,0.726-0.005-0.299,1.282,2.278c2.275-0.631,4.997-1.732,9.023-2.392c12.408-2.244,46.464-2.244,58.872,0	c4.026,0.66,8.043,1.607,9.577,1.96c0.363-0.941,0.587-1.366,0.851-2.092c1.452-3.828,16.764-0.264,32.076,7.656	C308.157,259.591,307.893,259.063,304.725,265.267z" />
    <path fill="#DFDFDF" d="M175.819,253.781c1.298,3.707,0.884,2.03,1.218,3.975c-1.829,0.389-3.316,0.455-5.362,1.181	c-2.772,0.792-9.122,3.548-14.138,6.056c-4.731,2.43-8.845,4.255-9.337,4.125c-0.004-0.001-0.016-0.017-0.019-0.019	c-0.132-0.264-1.325-2.256-2.381-4.5c-2.508-4.884-2.246-5.149,6.994-9.769c10.757-5.473,21.388-9.103,27.056-9.281	c1.375-0.043,2.446,0.139,3.169,0.525C180.209,246.781,177.316,250.026,175.819,253.781z M269.287,251.963	c-3.82-1.713-4.547-1.843-7.069-2.906c-2.993-1.263-5.792-1.265-10.181-2.082c-5.148-0.792-16.59-1.102-27.769-1.331	c-0.353,0.002-0.697-0.004-1.05,0c-10.942,0.104-21.702,0.639-26.625,1.406c-8.382,1.386-12.902,4.043-16.013,5.662	c-1.138,0.85-2.136,1.056-3.375,1.8c0.982,2.225,0.944,3.564,1.782,5.513c0.881,2.05,0.44,3.346,2.85,3.412	c2.408,0.066,7.65-2.531,7.65-2.531c6.732-2.376,10.698-2.644,35.25-2.644c24.684,0,29.657,0.786,35.362,2.775	c4.136,1.424,5.841,2.548,7.5,2.25c0.852-0.153,1.296-1.384,1.894-2.869c0.814-2.023,1.796-4.74,2.288-8.138	C270.484,252.092,271.057,252.755,269.287,251.963z M304.2,259.069c-2.904-2.376-14.652-7.802-23.1-10.706	c-5.408-1.802-9.385-2.721-12.019-2.7c-0.745,0.006-1.378,0.086-1.913,0.244c1.152,0.724,2.497,1.934,3.244,2.325	c2.772,1.452,2.761,2.794,2.494,5.288c-0.124,1.152-0.229,1.591-0.675,3.169c1.034,0.467,3.588,1.524,5.7,2.25	c2.64,0.792,8.972,3.548,13.988,6.056c4.655,2.39,8.72,4.191,9.318,4.125c0.012-0.002,0.03-0.016,0.038-0.019h0.019	c0.132-0.264,1.326-2.256,2.382-4.5C305.392,261.301,305.52,260.125,304.2,259.069z M183.806,246.769L183.806,246.769	C183.806,246.769,183.806,246.769,183.806,246.769C183.806,246.769,183.806,246.769,183.806,246.769z M271.013,250.669l0.038-0.019	c0.004-0.002,0.015-0.017,0.018-0.018c0.013-0.009,0.029-0.028,0.038-0.038c0.004-0.005,0.016-0.014,0.019-0.019	c0.002-0.003,0.018-0.016,0.019-0.018c0.001-0.004-0.001-0.016,0-0.019v-0.056c-0.014-0.055-0.039-0.106-0.075-0.15	c-0.212-0.275-0.855-0.719-2.119-1.425c-0.892-0.498-2.335-1.48-3.187-2.175v0c-0.09,0.099-0.172,0.206-0.244,0.319	c-0.4,0.488-0.457,1.01-0.581,1.613c0.875,0.309,3.826,2.147,5.344,2.081C270.607,250.744,270.863,250.73,271.013,250.669z	 M177.844,252.637c-0.014,0.03-0.027,0.062-0.037,0.094v0.019h0.037c0.24-0.11,1.523-1.266,4.594-2.306	c2.634-0.983,1.232-0.502,2.868-1.181c-1.078-1.666-1.218-1.779-1.35-2.175c-0.038-0.111-0.089-0.218-0.15-0.318	c-0.867,0.66-2.337,1.571-3.281,2.212C178.829,250.133,178.576,251.027,177.844,252.637z" />
    <path fill="#000000" d="M195.246,250.687l0.302,2.614l1.792-0.208c0.646-0.074,1.09-0.232,1.331-0.472c0.245-0.241,0.339-0.606,0.282-1.094	c-0.053-0.457-0.216-0.766-0.489-0.925c-0.274-0.16-0.749-0.2-1.426-0.122L195.246,250.687 M194.114,249.899l2.991-0.346	c0.486-0.056,0.844-0.076,1.076-0.061c0.235,0.015,0.449,0.061,0.642,0.138c0.346,0.14,0.62,0.36,0.825,0.658	c0.208,0.298,0.336,0.662,0.386,1.092c0.048,0.415,0,0.782-0.144,1.099c-0.144,0.314-0.383,0.575-0.716,0.784	c0.31,0.049,0.54,0.166,0.688,0.35c0.152,0.184,0.272,0.512,0.358,0.983l0.236,1.263c0.049,0.27,0.107,0.47,0.175,0.601	c0.059,0.116,0.158,0.206,0.279,0.254l0.025,0.215l-1.21,0.14c-0.116-0.149-0.224-0.485-0.324-1.008	c-0.001-0.011-0.002-0.021-0.003-0.032l-0.18-0.998c-0.094-0.513-0.243-0.835-0.446-0.968c-0.203-0.132-0.674-0.155-1.415-0.07	l-1.697,0.196l0.382,3.306l-1.037,0.119L194.114,249.899 M203.278,253.522l2.414-0.177l-1.45-3.331L203.278,253.522	 M201.274,256.905l2.308-7.958l1.162-0.085l3.456,7.535l-1.141,0.084l-0.99-2.254l-3.051,0.224l-0.656,2.375L201.274,256.905	 M211.948,256.229l-0.228-7.764l1.054-0.031l0.094,3.189l4.027-0.118l-0.094-3.189l1.06-0.031l0.228,7.764l-1.06,0.032	l-0.106-3.637l-4.027,0.118l0.106,3.637L211.948,256.229 M221.115,252.796l2.421-0.013l-1.22-3.422L221.115,252.796	 M218.885,256.034l2.845-7.783l1.166-0.006l2.935,7.753l-1.144,0.006l-0.834-2.316l-3.059,0.016l-0.816,2.325L218.885,256.034	 M232.113,253.216l1.023,0.018c-0.062,0.944-0.398,1.693-1.009,2.245c-0.607,0.548-1.386,0.815-2.335,0.798	c-1.093-0.018-1.944-0.406-2.554-1.162c-0.606-0.756-0.898-1.793-0.875-3.112c0.021-1.216,0.363-2.175,1.026-2.878	c0.662-0.706,1.546-1.049,2.649-1.03c0.879,0.015,1.594,0.254,2.145,0.718c0.554,0.463,0.869,1.087,0.943,1.873l-1.033-0.018	c-0.09-0.515-0.317-0.912-0.681-1.193c-0.364-0.284-0.842-0.431-1.432-0.442c-0.787-0.014-1.404,0.252-1.849,0.796	c-0.442,0.544-0.672,1.319-0.689,2.324c-0.016,0.949,0.196,1.714,0.635,2.295c0.444,0.581,1.038,0.877,1.783,0.89	c0.636,0.011,1.16-0.177,1.571-0.564C231.847,254.386,232.074,253.866,232.113,253.216 M234.331,256.156l0.356-7.759l1.054,0.048	l-0.146,3.187l4.024,0.185l0.146-3.187l1.058,0.048l-0.355,7.76l-1.059-0.048l0.167-3.635l-4.025-0.184l-0.167,3.635	L234.331,256.156 M242.143,256.561l0.538-7.749l1.052,0.073l-0.538,7.75L242.143,256.561 M246.595,250.018l-0.254,2.619	l1.795,0.175c0.647,0.063,1.114,0.002,1.4-0.182c0.29-0.184,0.458-0.52,0.506-1.01c0.044-0.458-0.05-0.794-0.284-1.008	c-0.233-0.213-0.69-0.353-1.368-0.419L246.595,250.018 M245.654,249.01l2.997,0.292c0.486,0.047,0.841,0.103,1.064,0.167	c0.227,0.065,0.427,0.155,0.599,0.27c0.308,0.21,0.53,0.483,0.667,0.818c0.14,0.335,0.19,0.718,0.148,1.148	c-0.041,0.416-0.164,0.765-0.372,1.045c-0.207,0.277-0.496,0.482-0.865,0.616c0.293,0.113,0.492,0.276,0.599,0.487	c0.11,0.212,0.157,0.558,0.143,1.037l-0.035,1.284c-0.009,0.275,0.006,0.482,0.045,0.624c0.043,0.139,0.116,0.241,0.219,0.308	l-0.021,0.215l-1.212-0.118c-0.082-0.17-0.117-0.522-0.104-1.054l0.003-0.031l0.035-1.014c0.015-0.521-0.062-0.868-0.233-1.04	c-0.17-0.172-0.627-0.294-1.368-0.366l-1.701-0.166l-0.322,3.312l-1.039-0.101L245.654,249.01 M252.056,257.497l1.012-7.702	l1.045,0.137l-1.012,7.702L252.056,257.497" />
    <path fill="#171796" stroke="#000000" stroke-width="1.2" d="M179.829,96.332c-3.573,1.86-5.434,4.601-5.727,8.321	c-0.294,4.014,0.587,6.853,2.888,9.007c1.028,1.028,1.909,2.007,1.909,2.252c0,0.196-0.783,1.175-1.762,2.105	c-2.3,2.154-3.622,4.993-3.622,7.93c0,3.035,0.93,5.14,3.426,7.881l2.056,2.251l-2.252,2.497	c-4.503,4.993-4.356,10.72,0.343,15.468l2.007,2.105h92.172l2.251-2.398c4.356-4.65,4.356-9.692,0.049-15.028l-2.202-2.692	l2.056-2.448c4.503-5.384,4.405-10.328-0.245-15.516c-2.105-2.301-2.154-2.742-0.49-3.818c2.692-1.811,4.356-7.93,3.133-11.65	c-1.811-5.58-9.594-9.3-14.342-6.853c-0.881,0.44-2.644,1.664-3.965,2.692c-1.322,1.077-2.546,1.909-2.79,1.909	c-0.196,0-1.371-0.881-2.594-1.958c-4.748-4.062-10.328-3.769-15.077,0.832l-1.811,1.762l-2.399-2.203	c-4.846-4.552-10.915-4.356-15.859,0.44l-1.811,1.762l-1.958-1.762c-2.888-2.643-4.797-3.426-8.126-3.475	c-3.181-0.049-6.167,1.273-8.517,3.818l-1.175,1.224l-2.545-2.154C188.15,94.619,184.381,93.934,179.829,96.332L179.829,96.332z" />
    <path fill="#D42E12" stroke="#000000" stroke-width="1.2" d="M177.452,159.02c-4.797,5.335-4.748,10.769,0.098,16.153l1.811,2.007	l-2.056,2.252c-1.126,1.224-2.35,2.986-2.741,3.867c-1.566,3.769-0.392,8.81,2.692,11.699c1.86,1.811,1.909,2.545,0.146,4.699	c-0.783,0.93-1.713,2.251-2.056,2.936c-3.671,6.951,1.811,15.664,9.937,15.664c3.23,0,5.678-1.028,7.881-3.378	c1.762-1.86,2.692-1.909,4.258-0.244c2.301,2.545,5.336,4.111,7.881,4.111c2.986,0,4.846-0.93,7.881-3.818l2.3-2.252l2.105,2.301	c4.552,4.895,9.154,5.042,15.272,0.391l2.496-1.86l2.154,1.958c2.692,2.35,4.699,3.28,7.342,3.28c2.644,0,4.601-1.028,7.685-4.062	l2.545-2.448l1.958,1.762c3.769,3.378,5.825,4.454,8.566,4.454c2.839,0,4.846-0.93,7.685-3.475c2.644-2.399,4.063-5.189,3.72-7.489	c-0.342-2.497-2.594-7.049-4.258-8.615l-1.42-1.37l2.203-2.496c4.797-5.63,4.846-9.986,0.098-15.566l-1.958-2.35l2.056-2.496	c4.601-5.434,4.552-10.475-0.098-15.419l-2.497-2.594l-45.816,0.049l-45.817,0.049L177.452,159.02L177.452,159.02z" />
    <path fill="#000000" d="M167.313,152.671c0,0,0.03,45.8,0.124,63.289c-0.156,2.588,1.36,3.215,3.581,4.938c3.592,2.787,7.423,5.705,27.976,4.11	c18.876,0.132,22.836,1.584,24.816,9.108l1.056,4.224l0.924-4.224c1.452-7.26,5.932-8.976,24.148-9.108	c23.45,0.352,25.398-1.12,28.758-3.986c0,0,2.455-1.89,3.088-3.704c0.71-2.037,0.37-3.702,0.37-3.702V88.519h-114.84	L167.313,152.671L167.313,152.671z M280.833,153.199l0.247,52.841c0,7.114,0.512,9.295-0.247,10.651	c-0.759,1.355-2.296,3.16-2.296,3.16c-3.564,3.564-6.582,4.293-22.836,4.083c-10.5,0.029-16.172,0.319-24.444,1.625	c-1.298,1.166-4.866,1.062-6.524,7.847c-2.152-6.785-3.688-6.49-3.688-6.49c-8.788-3.688-12.719-2.953-26.804-3.097	c-9.108,1.32-18.876-0.396-22.572-4.092c0,0-0.55,0.149-3.036-2.789c0.024-12.872,0-63.738,0-63.738V89.84h112.2V153.199	L280.833,153.199z" />
    <path fill="#FFFFFF" d="M208.892,116.659c-3.475,7.189-2.954,10.808-0.066,16.569c2.252,4.424,4.187,7.549,7.809,9.347	c9.445,4.747,20.673,1.229,25.419-7.619c2.937-5.438,3.363-15.562,0.133-19.525l-0.93,2.512c-1.174,4.47-2.303,7.506-4.652,9.902	c-4.404,4.47-10.549,6.088-16.813,3.323c-4.845-2.166-8.376-7.265-10.187-15.606L208.892,116.659z" />
    <path fill="#000000" d="M207.705,117.823c-2.904,6.6-2.64,9.9,0.924,16.896c9.24,18.216,36.696,11.352,36.564-9.24	c-0.132-3.3-0.03-5.449-1.848-9.108c-0.858-1.518-1.225-1.969-1.837-2.887c-0.242,0.994-0.605,2.755-1.331,5.659	c-2.64,10.164-11.352,14.916-20.46,11.088c-5.148-2.112-7.524-5.544-8.844-12.672l-0.924-4.62L207.705,117.823L207.705,117.823z	 M216.681,130.891c6.336,4.092,15.972,2.772,20.856-2.64c1.98-2.244,3.196-5.745,3.696-7.524c0.493-1.756,0.59-2.018,0.888-3.772	c0.766,1.7,1.187,2.593,1.548,5.222c0.534,3.884-0.324,7.13-1.248,9.506c-4.62,12.144-19.404,15.84-28.644,7.128	c-4.488-4.092-8.052-12.133-6.103-17.322c0.691-1.84,0.849-2.888,1.753-4.831c0.163,1.327,0.257,3.145,1.181,5.917	C211.797,126.403,213.909,129.175,216.681,130.891L216.681,130.891z" />
    <path fill="#E9D315" stroke="#000000" stroke-width="0.975" d="M202.451,178.546c-0.088,2.855,0.049,4.162,0.5,6.278	c-1.437-1.387-2.885-2.356-4.876-3.512c-2.536-1.472-5.739-2.878-6.827-1.081c-1.047,1.729,1.956,4.096,4.307,5.423	c2.57,1.45,4.052,1.649,5.725,2.305c-1.416,0.749-3.348,1.252-5.488,2.625c-2.101,1.348-5.241,4.136-4.05,5.916	c1.213,1.812,4.716-0.224,6.691-1.546c1.645-1.101,3.822-2.839,4.669-3.728c-0.167,1.277-0.673,3.822-0.636,6.255	c0.046,2.956,0.455,6.263,2.656,6.257c2.247-0.005,2.725-3.9,2.689-6.533c-0.037-2.752-0.351-4.697-0.622-6.055	c1.373,1.407,2.836,2.724,4.378,3.943c1.598,1.26,5.512,3.126,6.684,1.338c1.194-1.819-0.664-3.628-4.078-5.794	c-2.392-1.518-4.086-2.038-5.645-2.683c1.576-0.646,3.299-0.812,5.818-2.343c3.737-2.272,5.321-3.791,4.175-5.747	c-1.114-1.901-3.364-0.863-6.782,1.312c-1.831,1.165-3.545,2.709-4.706,3.82c0.265-1.748,0.551-4.324,0.529-6.232	c-0.033-2.837-0.654-6.504-2.586-6.515C203.045,172.235,202.547,175.423,202.451,178.546L202.451,178.546z M241.829,178.546	c-0.088,2.855,0.049,4.162,0.5,6.278c-1.437-1.387-2.885-2.356-4.876-3.512c-2.536-1.472-5.739-2.878-6.827-1.081	c-1.047,1.729,1.956,4.096,4.307,5.423c2.57,1.45,4.052,1.649,5.725,2.305c-1.416,0.749-3.348,1.252-5.488,2.625	c-2.101,1.348-5.241,4.136-4.05,5.916c1.213,1.812,4.716-0.224,6.691-1.546c1.645-1.101,3.822-2.839,4.669-3.728	c-0.167,1.277-0.673,3.822-0.636,6.255c0.046,2.956,0.455,6.263,2.656,6.257c2.247-0.005,2.725-3.9,2.689-6.533	c-0.037-2.752-0.351-4.697-0.622-6.055c1.373,1.407,2.836,2.724,4.378,3.943c1.598,1.26,5.512,3.126,6.684,1.338	c1.194-1.819-0.664-3.628-4.078-5.794c-2.392-1.518-4.086-2.038-5.645-2.683c1.576-0.646,3.299-0.812,5.818-2.343	c3.737-2.272,5.321-3.791,4.175-5.747c-1.114-1.901-3.364-0.863-6.782,1.312c-1.831,1.165-3.545,2.709-4.706,3.82	c0.265-1.748,0.551-4.324,0.529-6.232c-0.033-2.837-0.654-6.504-2.586-6.515C242.423,172.235,241.925,175.423,241.829,178.546	L241.829,178.546z" />
    <path fill="#FFFFFF" stroke="#000000" stroke-width="1.1211" d="M207.997,187.979c-0.001,1.66-1.348,3.006-3.008,3.005	s-3.006-1.348-3.005-3.008c0.001-1.66,1.348-3.006,3.008-3.005c1.659,0.001,3.004,1.346,3.005,3.005 M247.375,187.979	c-0.001,1.66-1.348,3.006-3.008,3.005s-3.006-1.348-3.005-3.008c0.001-1.66,1.348-3.006,3.008-3.005	c1.659,0.001,3.004,1.346,3.005,3.005" />
  </g>
</svg>
