<svg xmlns="http://www.w3.org/2000/svg" width="450px" height="300px" viewBox="0 0 450 300">
  <path fill="#D0103A" d="M50,0h400v300H50V0z" />
  <path fill="#FEDF00" d="M50,0h250v300H50V0z" />
  <path fill="#0018A8" d="M0,0h150v300H0V0z" />
  <path fill="#C7B37F" d="M211.2,77.4c5.4,0,7.6,4.7,13.1,4.7c3.3,0,5.3-1.1,8.2-2.7c2-1.2,3.3-1.8,5.7-1.8s3.9,0.7,5.1,2.8c0.7,1.2,1.3,3.4,1,4.7c-0.6,2.5-0.9,3.5-1.9,5.8c-0.5,1.1-0.9,1.8-0.9,3c0,2.9,3.9,3.9,6.6,3.9c0.6,0,5.5,0.1,8.5-3c-1.6-0.1-3.5-1.3-3.5-3c0-1.8,1.3-2.9,3.1-3.4c1.5-0.1,1.4-0.9,1.8-1.2c0.9-0.7,1.4-1.1,2.6-1.1c0.7,0,2,1.3,2.4,1.3c0.8,0,1.3-0.8,2.1-0.8c0.7,0,2.1,1.5,2.6,1.5c0.3,0,1.7-0.6,2.4-0.6c2.7-0.1,3.8,2.7,4.1,2.7c0.6,0,1.8,0.4,2.6,1.2c0.3,0.3,1.3,1.9,1.6,2c0.4,0.1,0.7,0.1,1.2,0.4c1.9,1.9,1.8,4.5,1.7,4.9c-1.3,4.6-4.5,6.1-7.7,10.1c-1.4,1.7-2.4,3-2.4,5.2c0,0.5,0.6,1.5,0.9,1.9c-0.2-1,0.3-2.3,1.4-2.3c3.1-0.2,2.7,3.4,2.6,3.8c0.8-0.5,3.7-1.1,4.1-1.1c2.4,0.1,5,1.4,6.5,2.7c4.8,4.1,5.4,10.1,5.2,11.8c-0.6,3.7-0.2,10.4-9.7,13.1c1.8,0.7,2.9,2.1,2.9,3.7c0,1.8-1.4,3.3-3.1,3.3c-1,0-1.7-0.2-2.4-1c-2,2-2.3,4-2.4,6.8c-0.1,4.7,2.5,7,3.8,8.2c0.7-1.1,1.3-2.1,2.5-2.1s2.8,2.1,3,2.5s0.8,2.2,1.1,2.9c0.2,0.4,1.2,2.2,1.2,2.9c0,2.1-1.5,3.2-3.6,3.2c-0.6,0-1.4,0.1-2,0.2c1.2,1.2,2.1,2,3.1,3.5c1.3,2.1,3.2,8.4,0.2,14.3c-1.4,2.7-2.5,4.3-5,6.1c-3.8,2.8-6.6,3.7-11.3,4.6c-3,0.6-13.6,1.3-17.4,1.5c-5.1,0.3-9.1,1.3-12.6,4.8c1.7,1.2,3.2,3,3,5c-0.3,2.7-3.9,3.9-4.4,4.2s-2.3,1.7-3.4,1.7c-1.9,0-3.6-0.6-4.9-2c-1.6,1.3-2.7,2.9-4.4,3.9c-0.6,0.3-2.3,0-3.2-0.6c-1.3-1-2-1.6-3.1-2.9c-1.6,0.9-2.6,1.7-4.4,1.7c-1.1,0-1.8-0.2-2.8-0.8c-0.5-0.3-0.6-0.8-1.1-1.1s-1-0.2-1.5-0.4c-2.1-0.9-3.5-2.5-3.5-4.8c0-2,1.6-3.2,3.4-4.1c-3.5-3.5-7.3-4.2-12.3-4.6c-3.8-0.2-6-0.3-9.9-0.5c-3-0.2-4.7-0.5-7.8-1c-2.3-0.4-3.6-0.5-5.7-1.5c-7.2-3.4-11.8-8-12.7-15.8c-0.1-0.7,0.2-0.9,0.2-1.5c0-4.1,1.3-6.8,4.2-9.7c-0.7-0.2-1.2,0.1-2-0.2c-1.8-0.7-2.8-2.1-2.8-4c0-0.7,0.8-2.1,0.9-2.6c0.1-0.7,0.2-0.8,0.5-1.4c0.2-0.4,0.4-0.8,0.6-1.2c0.6-1.3,1.4-2.4,2.9-2.4c1.2,0,1.8,1,2.5,2c1.2-0.6,1.9-1.6,2.6-2.7c1.1-1.9,1.5-3.5,1.5-5.7c0-1.5,0.1-2.3-0.3-3.8c-0.4-1-0.9-2.3-1.7-3c-0.7,0.7-1.1,1.1-2.1,1.1c-2,0-3.7-1.4-3.7-3.5c0-1.5,1-2.8,2.4-3.4c-1.2-0.5-4.8-2.3-7.2-5.8c-0.8-1.2-1-2-1.4-3.4c-0.5-1.6-0.8-5-0.7-5.4c0.5-3.5,1.1-5.6,3.2-8.3c1.3-1.6,2.2-2.6,4.1-3.4c1.6-0.7,2.6-1.1,4.4-1.2c3-0.1,4.2,1.3,4.2,1c0-0.4,0-0.7,0-1c0-1.5,0.8-2.7,2.3-2.7c1.1,0,1.5,0.9,2,1.8c0.3-0.6,0.5-0.9,0.5-1.6c0-2.4-1.3-3.6-2.8-5.5c-3.3-4.1-7.1-6.8-7.4-11.3c-0.3-3.4,3-3.6,3.4-3.6c1.6-3.5,3.4-3.1,3.8-3.1c2.5-5.1,6.5-2,6.5-2c2-2.6,3.8-0.8,4.6-0.8c0.3,0,1.4-2.6,4.5-0.6c0.6,0.4,0.6,1.1,1.3,1.5c1.9-0.3,3.8,1.6,3.8,3.5c0,1-0.3,1.6-1.1,2.2c-0.6,0.5-1.4,0.2-2.2,0.5c2.5,2,5.3,3,8.6,3c3,0,6.9-1,7.2-4c0.1-1.5-3-6.9-3-9.3c0-1.9,0.2-3.1,1.3-4.7C207.8,77.8,209.2,77.4,211.2,77.4L211.2,77.4z" />
  <path fill="none" stroke="#703D29" stroke-width="0.5" stroke-linejoin="round" d="M282,147.4c-0.8-2-3-1.1-3.1,0c-0.3,2.6,2,3.4,3.6,2.9c0.8-0.2,1.4-0.7,1.8-1.4s0.5-1.7,0.3-2.6c-0.1-0.4-0.3-0.8-0.6-1.2c-0.3-0.4-0.6-0.7-0.9-0.9c-0.6-0.4-1.3-0.4-2.4-0.4c-3.9,0-7.3,4.6-8.5,9.4c-0.4,1.6-0.9,5.1-0.2,8.5c0.8,3.6,2.3,6,4.1,7.9c1,1,2.3,1.9,4,2.9c0.5,0.3,1.9,0.9,2.9,1.2s1.9,0.2,2.8,0.1c2.3-0.5,3.4-2.7,2.2-4.9c-1-1.8-3.8-2.8-5.1-0.5c-0.1,0.2-0.3,0.6-0.3,1.1c0,0.6,0.3,1.4,0.7,1.6c1,0.6,2.6,0.5,2.6-1.3 M269.9,174c0.8-0.9,2.6-2.3,4.7-2.6s3.9,0.4,5.8,1.4c3.6,2,5.6,4,7,7.9c0.3,1,0.6,2.5,0.6,4.1c-0.1,2.5-0.7,5.3-1.4,6.6c-0.6,1.2-2.2,6.3-10.8,9.8c-5,2.1-12.7,2.5-18.1,2.8c-7.3,0.3-14.1,0.6-18,5.4 M271.7,182.3c-0.2-0.8,0-1.5,0.6-2.3c0.8-1.1,2.6-1.5,4.1-0.6c0.5,0.3,1.2,0.7,1.8,1.5c0.2,0.3,0.6,0.8,0.8,1.1c0.5,0.8,0.7,1.5,0.8,1.7c1.7,4.9-1,10.2-4.6,12.4c-2.8,1.7-6.1,2.4-10.1,2.9c-1.8,0.2-2.8,0.2-4.6,0.3c-1.5,0.1-2.7,0-3.9,0c-1,0-1.9,0-2.8,0c-1.5,0-3.1-0.1-5.1,0.1c-2,0.1-3.6,0.2-5.3,0.5c-1.1,0.2-2.5,0.4-3.8,0.7c-0.4,0.1-0.8,0.2-1.3,0.3c-0.3,0.1-0.6,0.2-0.8,0.3c-2.5,0.8-4.9,1.7-6.9,2.9c-0.6,0.4-1.3,0.8-1.7,1.2c-0.3,0.3-0.7,0.6-1,0.9c-1.3,1.3-2.7,2.8-3,4.7c-0.1,0.4-0.1,0.7-0.1,1.1c0,1.3,1,3,3.8,3.5 M232.4,95.7c0.6,1,0.9,1.7,0.6,2.8c-0.4,1.2-1.3,2-2.5,2c-2.8,0-4.4-3.3-3.2-5.4c2.2-3.7,6.5-1.6,10.5,0.2c-0.2-1-0.5-1.3-0.5-2.5c0.1-3,2.3-4.3,3.2-7c0.5-1.6,0.7-3-0.5-4.2c-1-1-2.2-1-3.6-0.5c-2.7,1.1-6,4.1-11.7,4.2c-5.7-0.1-9-3.1-11.7-4.2c-1.4-0.5-2.6-0.5-3.6,0.5c-1.2,1.2-1,2.6-0.5,4.2c0.9,2.7,3.1,4.1,3.2,7c0,1.2-0.3,1.5-0.5,2.5c4-1.9,8.5-4.1,10.5-0.2c1.2,2.2-0.4,5.4-3.2,5.4c-1.2,0-2.1-0.8-2.5-2c-0.3-1,0-2,0.6-2.8 M221.1,93.8c1.1,0.8,1.9,1.8,1.8,3.5c-0.1,1.8-0.7,2.1-2.1,3.1 M222.6,97.8c-0.1,1.1-0.5,1.8-1.6,2.2 M193.5,91.9c-0.2-1.2-1.6-1.4-2.1-0.7c-0.8,1.1-0.2,2.8,1.4,3.3c0.6,0.2,1.9,0.1,2.7-1c0.7-0.9,0.6-2,0.4-2.8c-0.2-0.6-0.6-1-1.2-1.5c-1.9-1.5-5-1.1-6,1.3c-1.3,3.2,1.5,5.5,4.2,7.3c3.3,2.2,7.1,2.7,9.9,2.6c6.4-0.1,11.3-3.1,14.5-4.9c0.7-0.4,1.5-0.3,1.9,0.1c0.4,0.5,0.4,1.4-0.2,1.9 M174.4,179.1l-1.4,0.5l-1.5,1.1l-0.6,0.9l-0.8,1.4l-0.3,1l-0.3,1.3l-0.1,1 M182.7,179.2l-0.1,1.3l-0.2,0.9l-0.6,1.5l-1,1.3l-1,0.8l-0.8,0.4l-1.1,0.2 M224.8,212.8c-0.3,1.2-1.4,2.5-3.7,3l-0.5,0.1 M284.3,175.6c1.5,1.4,2.5,3.1,3.3,5.4c0.3,1,0.6,2.5,0.6,4.1c-0.1,2.5-0.7,5.3-1.4,6.6c-0.6,1.2-2.2,6.3-10.8,9.8c-5,2.1-12.7,2.5-18.1,2.8c-7.2,0.3-13.9,0.6-17.8,5.2 M272.4,180.4c0.5-0.7,2.6-1.9,4.2-1c0.5,0.3,1.1,0.9,1.7,1.7 M282.4,173.9c0.4,0.1,0.7,0.3,1,0.3c1,0.3,2.1,0.1,2.9-0.1c2-0.6,3.2-2.3,2.1-4.7c-0.2-0.6-0.7-1.1-1.2-1.5 M168.9,121.8c-1.3,0.8-2.3,1-3.4,2.2c-1,2-1.4,3.2-1.8,4.8 M195.9,90.7c1,2.3-0.6,4.1-2.9,4.2 M279.2,116.4c3.3-0.1,13,2.5,13.1,13.9c0.1,11.2-6.7,12.9-9.5,13.7 M280.1,116.4c5.7-0.2,11.7,4,11.9,14.5c0.2,8.2-5.6,12-8.4,12.7 M276.9,156l0.1-1.1l0.4-1.8l0.5-1.4l0.6-1.1l0.8-0.9 M284.7,147.3l-0.1,1.1l-0.3,0.8l-0.5,0.7l-0.6,0.4l-0.9,0.3l-0.8,0.1l-0.6-0.1 M271,113.4l0.2-1.2l0.5-1.1l0.7-1.1l1.2-1.5l0.9-1l1.5-1.5l1.3-1.3l0.8-0.9l1.1-1.3l1-1.5l0.6-1.2l0.5-1.5l-0.1-1.9l-0.2-0.6 M272.4,185.8l1.1-0.2l0.9-0.5l0.5-0.5l0.3-0.5l0.2-0.9l0.1-0.6 M164.2,174.1l0.8,0.1l1.1-0.1l1.1-0.4 M170.7,148l-0.1,1l-0.2,0.4l-0.3,0.4l-0.5,0.3l-0.5,0.2l-0.7,0.1h-0.5 M174.9,138.7l-0.2,2.4l-0.3,0.7l-0.6,0.8l-0.8,0.6l-0.8,0.4l-1.6,0.4 M181.2,116.1l-0.3,0.9l-0.4,0.7l-0.5,0.7l-0.7,0.7l-0.9,0.4l-0.7,0.2h-0.5 M177.5,115.3v0.7 M180.2,125.9c0.8,0.6,1.1,1.2,1.1,2.3c0,0.7-0.5,1.7-1.3,2.6c-1.3,1.5-3.6,2.8-6.2,2.8c-1.4,0-2.8-0.3-4.2-1.2c-1.5-1-2.3-2.4-2.7-3.8 M178.8,138.9c-0.4,0.4-0.9,0.7-1.5,0.9 M283.2,171.3c0.1,0.1,0.3,0.1,0.3,0.1c1,0.6,3-0.1,2.4-1.7 M279.7,149.8c0.7,0.9,2,1.2,3.1,0.9c0.8-0.2,1.4-0.7,1.8-1.4s0.5-1.7,0.3-2.6c-0.1-0.4-0.4-0.8-0.7-1.2 M287.5,168.3c0-0.2,0-0.3,0-0.5c0-0.8-0.3-1.6-0.9-2.1c-0.2-0.2-0.4-0.4-0.6-0.6 M286.4,165.5c0-1.3-1.1-2.2-2.4-2.5 M281,165c-0.3-0.2-0.6-0.5-0.9-0.8c-1.7-1.8-3-4.5-3-7.5c0-2.9,1.2-5.9,2.5-7 M239.9,209.2l1.3-1.2l0.9-0.7l1.6-1l1.5-0.7l1.1-0.3l2.2-0.5l2.5-0.4 M230.2,218.1c-0.9,1.4-3.1,3.5-5.4,4.3c-2.3-0.8-4.4-2.9-5.4-4.3 M221.1,215.2c-0.3,1.1-0.8,2.1-1.6,2.9 M221.3,213.8l-0.3,1.5 M219.3,218.2l-0.7,0.7l-1.2,0.7L216,220 M212.2,95c0.2-0.5,0.3-0.9,0.3-1.8c-0.1-3-2.3-4.3-3.2-7c-0.5-1.6-0.7-3,0.5-4.2c1-1,2.2-1,3.6-0.5c2.7,1.1,6,4.1,11.7,4.2c-5.7-0.1-9-3.1-11.7-4.2c-1.4-0.5-2.7-0.7-3.7,0.3c-1.2,1.2-0.9,2.7-0.3,4.3c0.9,2.7,3,4.1,3,7c0,0.9-0.2,1.3-0.4,1.8 M225.1,85.5c5.6-0.3,10.5-4.1,12-4.4c1.4-0.3,2.2-0.2,3.2,0.8c-1-0.9-2.2-0.9-3.5-0.4c-2.7,1.1-6,4.1-11.7,4.2 M281.1,165c-2.3-1.7-4.4-4.9-4.4-8.7c0-2.9,1.2-5.9,2.5-7 M230,217.9c-0.9,1.4-3.1,3.5-5.4,4.3c-2.3-0.8-4.4-2.9-5.4-4.3 M217.1,95.6c0.7-0.4,1.7-0.4,2.1,0c0.4,0.5,0.5,1.4-0.1,2 M207.2,100.4c3.9-0.8,7-2.5,9.4-3.9 M239.3,211.9c0.3,0.2,0.5,0.7,0.5,0.7c0.1,0.2,0.2,0.4,0.2,0.6c0.2,1.1-0.5,1.7-1.4,1.8c-1.2,0.1-2.1-0.8-2.5-1.6 M207,100.2c3.9-0.8,7-2.5,9.4-3.9 M285,171.5c-0.7,0.3-1.1,0.2-2.1-0.2c-0.4-0.2-0.8-0.4-1.3-0.7c-1.8-1-3.9-2.6-5.9-6.4c-0.5-1-0.9-2.1-1.2-3.1c-0.2-0.8-0.3-1.6-0.4-2.3c0-1.4,0.1-2.8,0.4-4.4c0.6-2.7,1.2-4.1,2.9-6.4c0.8-1.1,1.5-1.8,3-1.8 M179.5,118.5c1.3,1.1,1.9,2.4,1.9,4c0,2.2-1.8,5.7-6.3,7c-1.7,0.5-3.4,0.1-4.4-0.5 M180.1,130.6c0.9,0.8,1.2,1.9,1.2,3.2c0,1.9-0.8,3.4-2.6,5c-0.4,0.4-0.9,0.7-1.4,1 M268.4,124.3v2.5 M268.2,123.7v3.5 M268.4,116.8v3.4 M268.2,115.5v5.4 M266.8,179c-0.9,1.7-1.6,2.6-2.9,4c-1.4,1.4-2.4,2-4.1,2.9s-2.8,1.1-4.6,1.5c-1.9,0.4-2.9,0.5-4.8,0.6c-1.7,0.1-2.7,0-4.5-0.1c-1.9-0.1-2.9-0.4-4.7-0.5c-1.5-0.1-2.4-0.3-3.9-0.3c-1.6,0-2.5,0-4,0.3s-2.3,0.5-3.6,1c-1.9,0.8-4,2.1-4.5,2.7c-0.5-0.6-2.6-1.9-4.5-2.7c-1.4-0.6-2.2-0.8-3.6-1c-1.6-0.3-2.5-0.3-4-0.3s-2.4,0.1-3.9,0.3c-1.9,0.2-2.9,0.4-4.7,0.5c-1.7,0.1-2.7,0.2-4.5,0.1c-1.9-0.1-3-0.2-4.8-0.6c-1.9-0.4-2.9-0.7-4.6-1.5c-1.7-0.9-2.7-1.5-4.1-2.9c-0.1-0.1-0.3-0.3-0.4-0.4 M215.5,220.1l1.3-0.2 M238,218.2l1.3-0.1l1.2-0.5l0.8-0.5l1.2-1.4l0.2-0.5l0.2-1.2l0.1-0.5 M276,117.4c0.5-1.9-0.1-3.8-1.9-3.8 M181.5,145.9c-0.5,1.5-1.6,3.1-2.7,3.8 M181.4,116.1c-0.4,1.8-1.4,2.9-2.7,3.5s-2.8,0-3.6-0.6 M171.4,123.6c1.1,0.6,2.2-0.3,1.9-1.7c-0.1-0.7-0.8-1.5-1.8-1.5 M175.9,182.9c0.2,0.2,0.3,0.5,0.6,0.6c0.5,0.1,0.8,0.3,1.3-0.4c0.6-0.8,0.3-2-0.3-2.7c-0.6-0.8-2.5-1.5-4.1-0.7c-0.5,0.3-1.2,0.7-1.8,1.5c-0.2,0.3-0.6,0.8-0.8,1.1c-0.5,0.8-0.7,1.5-0.8,1.7c-1.4,4.1,0.3,8.4,2.9,11 M239.2,211.9c0.2,0.2,0.3,0.4,0.5,0.6c0.1,0.2,0.2,0.4,0.2,0.6c0.2,1.1-0.5,1.7-1.4,1.8c-1.2,0.1-2-0.7-2.4-1.5 M273.8,90.2c2.4,0.3,4.4,2.5,4.4,4.9c0,3.1-1,4.3-2.7,6.5c-1.8,2.4-7.5,6.8-7.5,11.7c0,3,0.8,4.9,3,5.9c1.4,0.6,3-0.1,3.8-0.7c1.8-1.6,1.1-4.5-0.8-4.9c-2.3-0.4-2.7,3.2-0.5,3 M286.1,165.2c-0.2-1.2-1.3-2.2-2.5-2.2c-1.4,0-2.6,1.2-2.6,2.6c0,0.7,0.3,1.4,0.7,1.8 M269.9,118.5c-1.3,1.1-1.9,2.4-1.9,4c0,2.2,1.8,5.7,6.3,7c1.7,0.5,3.4,0.4,4.4-0.2 M169,122.1c-1.1,0.4-2.4,1-3.4,2.4c-0.8,1.2-1.3,2.8-1.6,4.3c-0.1,0.6-0.3,2.6,0.1,4.7c0.3,1.5,0.9,2.9,1.6,4c0.2,0.4,0.5,0.6,0.7,0.9c0.2,0.2,0.6,0.4,0.8,0.6 M212.3,203.6c3.4,1.5,5.9,2.7,8,6.1c0.7,1,0.8,2.6,0.8,3.4c0,1.9-0.8,4-2.3,5.4c-1.5,1.2-2.9,1.6-4.7,1.4c-1.4-0.1-2.6-1.1-2.8-1.8 M178.6,138.9c1.9,1.5,2.7,3,2.7,5.3c0,2.7-1.3,4.3-2.8,5.2 M176.8,147.6c2.9,3.6,4.4,5.7,4.5,9.9c0.1,4-1.2,6.7-3.6,9.6 M231.9,100.4c0.5-0.3,0.9-0.9,1.1-1.6c0.3-1,0.3-1.9-0.2-2.7c0.7,0.9,0.8,1.7,0.6,2.8c-0.1,0.7-0.5,1-1,1.5 M268.4,161v11.4l0,0c0,0,0,1.1-0.1,1.7c-0.1,0.4-0.1,0.8-0.2,1.2 M268.2,159.9v12.3l0,0c0,0,0,1.1-0.1,1.7c-0.1,0.7-0.2,1.3-0.3,1.9 M268.2,145.6v10.2 M268.4,146.4v8.3 M268.4,135.8v6.2 M268.2,135.1v7.7 M268.4,129.4v2.4 M268.2,129v3.5 M266.9,178.3c-0.1,0.2-0.2,0.3-0.2,0.5c-0.9,1.7-1.6,2.6-2.9,4c-1.4,1.4-2.4,2-4.1,2.9s-2.8,1.1-4.6,1.5c-1.9,0.4-2.9,0.5-4.8,0.6c-1.7,0.1-2.7,0-4.5-0.1c-1.9-0.1-2.9-0.4-4.7-0.5c-1.5-0.1-2.4-0.3-3.9-0.3c-1.6,0-2.5,0-4,0.3s-2.3,0.5-3.6,1c-1.9,0.8-4,2.1-4.5,2.7c-0.5-0.6-2.6-1.9-4.5-2.7c-1.4-0.6-2.2-0.8-3.6-1c-1.6-0.3-2.5-0.3-4-0.3s-2.4,0.1-3.9,0.3c-1.9,0.2-2.9,0.4-4.7,0.5c-1.7,0.1-2.7,0.2-4.5,0.1c-1.9-0.1-3-0.2-4.8-0.6c-1.9-0.4-2.9-0.7-4.6-1.5c-1.7-0.9-2.7-1.5-4.1-2.9c-0.7-0.7-1.9-1.9-1.9-1.9 M182.8,177.9c0.3,2.2-0.5,5.1-1.5,6.1c-0.6,0.6-1.9,1.8-3.5,1.9c-2.7,0-3.5-1.8-3.6-2.2 M179.7,177.4c0.5,0.5,0.9,1.1,1.3,1.8c0.7,1.3,0.5,3.4-0.1,4.3c-0.1,0.1-0.1,0.2-0.2,0.3 M166.5,196.5c1.6,1.7,4,3.5,7.6,5c5,2.1,12.7,2.5,18.1,2.8c7.1,0.3,13.6,0.6,17.6,4.9 M219.7,218.4c-0.2,0.2-0.3,0.3-0.5,0.5c-1.5,1.2-2.9,1.6-4.7,1.4c-1.4-0.1-2.7-1.1-3-1.8 M207.8,216.7c0.8,1,2.3,1.6,3.7,1.7 M230.4,218.3c-0.9,1.4-3.1,3.5-5.4,4.3c-2.3-0.8-4.4-2.9-5.4-4.3l-0.2-0.3 M230.5,218.3c0.2,0.2,0.3,0.3,0.5,0.5c1.5,1.2,2.9,1.6,4.7,1.4c1.4-0.1,2.4-1,2.9-1.8c0,0,0.2-0.3,0.3-0.5 M238.4,218l-0.5,0.8l-0.8,0.7l-1.2,0.5h-1.1 M241.2,210c0.6,0.5,1.3,1.2,1.6,2c0.2,0.5,0.3,1.1,0.4,1.7c0.1,1.1-0.3,2.1-1,2.9c-0.9,1-2.3,1.7-3.8,1.7c-0.1,0-0.2,0-0.3,0 M238.2,218.2c-1.4,0.1-2.7-0.6-3.6-1.5 M279.3,169c-1.1-1-2.3-2.4-3.4-4.5c-0.5-1-0.9-2.1-1.2-3.1c-0.2-0.8-0.3-1.6-0.4-2.3c0-1.4,0.1-2.8,0.4-4.4c0.6-2.7,1.5-4.7,2.9-6.4c0.4-0.6,1-1.3,1.5-1.6 M278.2,93.3c1.8,0.1,3.4,2.1,3.4,3.9c0,2.7-0.9,3.9-3.1,6.5c-1.9,2.3-7.4,6.4-7.3,10.3c0,0.7,0.4,1.4,0.8,2 M269.8,118.5c0.4,0.4,0.9,0.7,1.4,1c1,0.5,2.2,0.2,3-0.2 M259.3,88.9c0.6,0.4,1.3,1,1.6,1.8c1.3,3.2-1.5,5.5-4.2,7.3c-1.9,1.3-3.9,2-5.8,2.3 M256.4,94.9c-0.6,0-1.5-0.1-2.3-1 M243.2,96.6c-0.3-0.2-0.7-0.4-0.9-0.7c-0.6-0.7-1-1.6-0.6-3.1c0.4-1.3,2.6-5.1,2.7-7.7c0.2-4-1.4-6.3-3.7-7.2 M244.2,84.3l-0.1,1.5l-0.4,1.5l-0.8,2.1l-0.6,1.3l-0.6,1.3l-0.3,0.9l-0.1,0.7l0.1,0.7 M268.1,183.1c0.1,0.3,0.4,0.6,0.4,0.6c0.5,0.8,2.2,2.1,3.8,2.1c2.7,0,3.3-1.8,3.4-2.2c0.3-2-0.4-2.6-1.4-3.2c0,0-0.6-0.3-1.3-0.2 M166.6,174.3c-0.9,0.2-1.8,0.2-2.6,0c-2-0.6-3.6-2.5-2.8-4.9 M170.6,146.8c0.2,0.2,0.3,0.7,0.3,1c0.3,2.6-2,3.3-3.6,2.9c-0.8-0.2-1.7-0.9-2.1-1.6c-0.3-0.5-0.4-1.1-0.4-1.6 M180.3,130.8c0.4,0.3,1,1.2,1.2,1.6 M180.4,126.1c0.3,0.2,0.6,0.6,0.8,0.9 M181.4,128.8c-0.2,0.5-0.7,1.7-1.2,2.3c-1.3,1.5-3.6,2.8-6.2,2.8c-1.4,0-2.8-0.3-4.2-1.2c-1.5-1-2.5-2.5-2.9-3.9 M179.6,118.7c0.8,0.7,1.4,1.5,1.7,2.4 M181.3,124.3c-0.6,2.1-2.5,4.6-6.1,5.5c-1.7,0.4-3.9-0.1-4.7-0.7 M168.8,123.8c0.2,1.9,1.4,3.2,3.8,3.3c3.3,0.1,5.3-4.8,2.4-8.1 M161.3,139.9c0.5,0.6,1.1,1.2,1.6,1.6c1.2,1,2.6,1.8,4.2,2.3 M170.9,144.2c3-0.4,4.6-2.6,4.3-5.1c-0.3-2-2.5-3.4-3.7-3.5 M175.7,113.6c1.3,0,2,1.1,2,2.1 M175.4,96c0.7,1.8,2.1,3.3,3.5,4.1 M280.3,121.9c1.2,1.7,0.4,4.9-2.9,5c-1.3,0-2.4-0.7-3.1-1.8 M268.4,100.3v10.6 M171.4,123.6c1,0.7,2.3-0.5,1.8-1.8c-0.3-0.9-1.6-1.8-3.4-0.7c-1.9,1.3-1.4,5.5,2.3,5.5c3.3,0.1,5.3-4.8,2.4-8.1c-2.8-3.3-8-2.5-11.3,0.2c-1.4,1.1-4.1,4.1-5,8.2c-0.3,1.3-0.4,2.3-0.4,3.6c0,0.8,0.1,1.8,0.3,2.9c0.5,2.4,1.3,4.1,2.2,5.3c0.3,0.5,0.6,0.8,0.9,1.2c0.6,0.6,0.7,0.9,1.3,1.4c1.9,1.6,4.3,2.8,7.3,2.7c3.3-0.1,5.2-2.4,4.8-5.2c-0.3-2.6-3-4-4.8-2.7c-1.2,0.8-1.6,3.4,0.5,4.1c1.2,0.4,2.2-1.2,1.4-2 M263,87.4c1.9-1,3.4-0.8,4.4,0.7c1.2,1.6,1.3,3.8,1.1,5.1c-0.4,1.9-0.9,2.7-2.4,4 M267.6,88.2c2.2-1.4,4.5-0.8,5.8,1.1c0.9,1.4,1.2,2.6,1.1,4.3c-0.1,3-2,5.3-4,6.5 M277.8,93.3c1.8,0.1,3.2,1.8,3.2,3.6c0,2.7-0.8,3.9-2.9,6.5c-1.9,2.3-7.4,6.4-7.3,10.3c0.1,1.5,1.3,2.9,2.4,2.9 M278,123.6c-1,0.7-2.3-0.5-1.7-1.7c0.4-0.9,1.5-2,3.3-0.8c1.9,1.3,1.4,5.5-2.3,5.5c-3.3,0.1-5.5-4.6-2.4-8.1c2.9-3.2,8.2-2.6,11.6,0.1c1.4,1.1,4.3,4.3,4.9,8.4c0.7,5,0.7,11.1-4.5,14.8c-2.1,1.5-4.9,2.2-7.4,2.1c-3.3-0.1-5.2-2.4-4.8-5.2c0.3-2.6,2.9-3.8,4.8-2.7s1.6,3.8-0.5,4.1c-1.2,0.1-2.2-1.2-1.4-2 M276.2,121.9c0.5-2.5,2.6-2.7,4.3-2.7c4.6,0.1,7.8,5.6,7.9,10.9c0.1,6.7-2.9,10.7-7.8,10.9c-1.3,0.1-3.5-0.4-3.3-2.1 M279.1,120.8c4.9,1.1,6.6,5.5,6.6,9.7c0,3.4,0,7.9-6.7,9.6 M287.1,167.9c0.3-1.5-0.7-2.9-2.2-3.2s-2.9,0.7-3.2,2.2c-0.2,1,0.2,2,1,2.7 M277.3,163.7c0.9,1.4,2,2.9,4.4,4.2 M280.8,175.3c-2.3-1.5-6.7-3.5-10.6-1.5c-1.5,0.7-2.4,1.6-3,3.1c-1,2.6,0.1,5.5,1.3,6.7c0.6,0.6,1.9,1.8,3.5,1.9c2.7,0,3.3-1.8,3.4-2.2c0.3-1.9-0.8-2.7-1.4-2.9c-0.5-0.2-1.9-0.1-2.3,0.9c-0.1,0.4-0.1,1,0.2,1.4 M239.5,212.2c0.7,1.5-0.2,2.4-1.2,2.5c-1.5,0.2-2.3-1-2.4-2.1c-0.2-1.8,1.3-3.4,3.1-3.3c1.6,0,2.9,1.1,3.5,2.5c0.2,0.5,0.3,1.1,0.4,1.7c0.1,1.1-0.3,2.1-1,2.9c-0.9,1-2.3,1.7-3.8,1.7c-3,0.1-5.3-2.7-5.3-5.5c0-5.4,8-8.4,11.2-9.1c3.9-0.9,6.3-1.3,12.6-1.6c2.5-0.1,4.4-0.1,7.1-0.4c2.5-0.3,3.8-0.4,6.3-1c3.2-0.7,6.2-2.1,8.8-4.5c2-1.9,3.2-3.2,4.2-5.7c0.8-2.2,1.2-6.6-0.9-9.8c-1.8-2.9-4.4-4.3-7.3-4.8c-2.6-0.4-4.9,0.8-6.3,3.4c-0.7,1.3-0.5,3.4,0.1,4.3c0.5,0.8,1.8,2.1,3.4,2.1c2.7,0,3.3-1.8,3.4-2.2c0.3-1.9-0.8-2.7-1.4-2.9c-0.5-0.2-1.9-0.1-2.3,0.9c-0.1,0.4-0.1,1,0.2,1.4 M237.1,203.7c-3.4,1.5-5.9,2.6-8,6c-0.7,1-0.8,2.6-0.8,3.4c0,1.9,0.8,4,2.3,5.4c1.5,1.2,2.9,1.6,4.7,1.4c1.4-0.1,2.6-1.1,2.8-1.8 M270.7,139c-1.6,0.5-2.6,2.9-2.6,5.2c0,2.7,1.3,4.3,2.8,5.2 M272.5,147.6c-2.9,3.6-4.4,5.7-4.5,9.9c-0.1,4,1.2,6.7,3.6,9.6 M257.2,88.3l0.2-0.4c1.2-1.7,3.3-2.2,4.8-1c1.9,1.4,2.3,3.8,1.8,6.3c-0.3,1.6-1.4,2.9-2.8,3.8 M186.4,87.4c-1.8-0.8-3.3-0.7-4.4,0.7c-1.3,1.5-1.3,3.8-1.1,5.1c0.4,1.9,0.9,2.7,2.4,4 M181.8,88.2c-2.2-1.4-4.5-0.8-5.8,1.1c-0.9,1.4-1.2,2.6-1.1,4.3c0.1,3,2,5.3,4,6.5 M175.6,90.2c-2.4,0.3-4.2,2.3-4.2,4.7c0,3.1,0.8,4.4,2.5,6.8c1.8,2.4,7.5,6.8,7.5,11.7c0,3-0.8,4.9-3,5.9c-1.4,0.6-3-0.1-3.8-0.7c-1.8-1.6-1.1-4.5,0.8-4.9c2.3-0.4,2.7,3.2,0.5,3 M171.6,93.3c-1.8,0.1-3.5,1.7-3.5,3.6c0,2.7,1.1,3.9,3.2,6.6c1.9,2.3,7.1,6.3,7,10.2c-0.1,1.5-1.1,3.1-2.1,2.9 M167.4,147.4c0.8-2,3-1.1,3.1,0c0.3,2.6-2,3.4-3.6,2.9c-0.8-0.2-1.4-0.7-1.8-1.4c-0.4-0.7-0.5-1.7-0.3-2.6c0.1-0.4,0.3-0.8,0.6-1.2s0.6-0.7,0.9-0.9c0.6-0.4,1.3-0.4,2.4-0.4c3.9,0,7.3,4.6,8.5,9.4c0.4,1.6,1.1,5.3,0.4,8.7c-0.8,3.6-2.5,5.8-4.3,7.7c-1,1-2.3,1.9-4,2.9c-0.5,0.3-1.9,0.9-2.9,1.2s-2,0.3-2.8,0.1c-2-0.6-3.3-2.5-2.2-4.9c0.8-1.9,3.8-2.8,5.1-0.5c0.1,0.2,0.3,0.6,0.3,1.1c0,0.6-0.3,1.4-0.7,1.6c-1,0.6-2.6,0.5-2.6-1.3 M164.4,171.5c0.7,0.3,1.1,0.2,2.1-0.2c0.4-0.2,0.8-0.4,1.3-0.7c1.8-1,3.9-2.6,5.9-6.4c0.5-1,0.9-2.1,1.2-3.1c0.2-0.8,0.3-1.6,0.4-2.3c0-1.4-0.1-2.8-0.4-4.4c-0.6-2.7-1.2-4.1-2.9-6.4c-0.8-1.1-1.5-1.8-3-1.8 M162.2,167.9c-0.3-1.5,0.7-2.9,2.2-3.2s2.9,0.7,3.2,2.2c0.2,1,0.1,2-0.7,2.7 M163.3,165.2c0.2-1.2,1.3-2.2,2.5-2.2c1.4,0,2.6,1.2,2.6,2.6c0,0.7-0.3,1.3-0.7,1.8 M168.3,165c2.3-1.7,4.4-4.9,4.4-8.7c0-2.9-1.2-5.9-2.5-7 M172,163.7c-0.9,1.4-2,2.9-4.4,4.2 M179,173.8c-0.7-1.5-1.9-2.2-4.1-2.5c-2.1-0.2-3.9,0.4-5.8,1.4c-3.6,2-5.6,4-7,7.9c-0.3,1-0.6,2.5-0.6,4.1c0.1,2.5,0.7,5.3,1.4,6.6c0.6,1.2,2.2,6.3,10.8,9.8c5,2.1,12.7,2.5,18.1,2.8c7.3,0.3,14.3,0.6,18.2,5.4 M168.5,175.3c2.3-1.5,6.7-3.5,10.6-1.5c1.5,0.7,2.4,1.6,3,3.1c1,2.6-0.1,5.5-1.3,6.7c-0.6,0.6-1.9,1.8-3.5,1.9c-2.7,0-3.3-1.8-3.4-2.2c-0.3-1.9,0.8-2.7,1.4-2.9c0.5-0.2,1.9-0.2,2.3,0.8c0.2,0.5,0.5,0.7,0.1,2.1 M177.9,182.6c0.2-0.8-0.1-1.9-0.8-2.6c-0.7-0.8-2.6-1.5-4.1-0.6c-0.5,0.3-1.2,0.7-1.8,1.5c-0.2,0.3-0.6,0.8-0.8,1.1c-0.5,0.8-0.7,1.5-0.8,1.7c-1.7,4.9,1.1,10.1,4.6,12.4c3.1,2,6.2,2.5,10.1,2.9c1.8,0.2,2.8,0.2,4.6,0.3c1.5,0.1,2.7,0,3.9,0c1,0,1.9,0,2.8,0c1.5,0,3.1-0.1,5.1,0.1c2,0.1,3.6,0.2,5.3,0.5c1.1,0.2,2.5,0.4,3.8,0.7c0.4,0.1,0.8,0.2,1.3,0.3c0.3,0.1,0.6,0.2,0.8,0.3c2.5,0.8,4.9,1.7,6.9,2.9c0.6,0.4,1.3,0.8,1.7,1.2s0.7,0.6,1,0.9c1.3,1.3,2.7,2.8,3,4.7c0.1,0.4,0.1,0.7,0.1,1.1c0,1.3-1,3-3.8,3.5 M210,212.3c-0.7,1.5,0.1,2.3,1.1,2.4c1.5,0.2,2.3-1,2.4-2.1c0.2-1.8-1.3-3.4-3.1-3.3c-1.6,0-2.9,1.1-3.5,2.5c-0.2,0.5-0.3,1.1-0.4,1.7c-0.1,1.1,0.3,2.1,1,2.9c0.9,1,2.3,1.7,3.8,1.7c3,0.1,5.3-2.7,5.3-5.5c0-5.4-8-8.4-11.2-9.1c-3.9-0.9-6.3-1.3-12.6-1.6c-2.5-0.1-4.4-0.1-7.1-0.4c-2.5-0.3-3.8-0.4-6.3-1c-3.2-0.7-6.2-2.1-8.8-4.5c-2-1.9-3.2-3.2-4.2-5.7c-0.8-2.2-1.2-6.6,0.9-9.8c1.8-2.9,4.4-4.3,7.3-4.8c2.6-0.4,4.9,0.8,6.3,3.4c0.7,1.3,0.5,3.4-0.1,4.3c-0.5,0.8-1.8,2.1-3.4,2.1c-2.7,0-3.3-1.8-3.4-2.2c-0.3-1.9,0.8-2.7,1.4-2.9c0.5-0.2,1.9-0.1,2.3,0.9c0.1,0.4,0.4,0.8,0.1,1.7 M192.1,88.3c-0.1-0.1-0.2-0.2-0.2-0.4c-1.2-1.7-3.3-2.2-4.8-1c-1.9,1.4-2.3,3.8-1.8,6.3c0.3,1.6,1.4,2.9,2.8,3.8 M257.9,93.6c-2.8,3.1-5.7,4.1-9.9,4.2c-1.3,0-3.8-0.4-5.3-1.5c-0.9-0.7-2-1.8-1.3-3.8c0.4-1.3,2.6-5.1,2.7-7.7c0.2-4-1.4-6.1-3.7-7c-4.4-1.6-9.1,2.8-12,3.7c-1.5,0.5-2.2,0.6-3.6,0.6c-1.4,0-2.1-0.1-3.6-0.6c-2.8-0.9-7.6-5.3-12-3.7c-2.4,0.8-3.9,3-3.7,7c0.1,2.6,2.2,6.3,2.7,7.7c0.7,2-0.4,3.1-1.3,3.8c-1.5,1-4,1.5-5.3,1.5c-4.2-0.1-7.3-1.1-10.1-4.2 M209.1,202.4c0.6,0.2,0.1-0.1,3.7,1.4c3.4,1.5,5.8,2.8,7.9,6.2c0.7,1,0.8,2.6,0.8,3.4c0,0.6-0.1,1.1-0.2,1.7 M209.2,217.7c0.7,0.4,1.6,0.5,2.4,0.5c3,0.1,5.3-2.7,5.3-5.5c0-2-1.2-3.6-2.7-4.9 M210,212.4c-0.7,1.6,0.2,2.4,1.2,2.5c1.5,0.2,2.4-1,2.5-2.1c0.1-1.2-0.4-2.3-1.4-2.9 M274.2,90.3c2.3,0,4.3,2.4,4.3,5c0,3-1.6,4.8-2.7,6.2c-0.9,1.1-2.1,2.2-3.3,3.4 M271.6,87.8c0.8,0.4,1.4,1,2,1.7c0.9,1.4,1.2,2.6,1.1,4.3c-0.1,3-2.2,5-4.2,6.3 M267.2,87.8c0.2,0.1,0.3,0.3,0.5,0.5c1.3,1.5,1.4,3.8,1.1,5.1c-0.5,1.9-1.1,2.7-2.6,3.8 M262.5,87.1c1.9,1.4,2.4,3.7,1.8,6.2c-0.4,1.8-1.6,2.8-3,3.7 M269.2,125.9c0.2,0.7,0.6,0.9,1,1.4c1,1.1,2.5,2,4.3,2.5c1.7,0.5,3.3,0.1,4.4-0.6 M164.5,167.1c0.9,0,1.6,0.6,2.2,1.6c0.1,0.2,0.3,0.6,0.3,1.1c0,0.6-0.3,1.3-0.7,1.6c-1,0.6-2.8,0.4-2.7-1.4 M169.8,144c3.5,0.6,6.8,4.8,7.9,9.4c0.4,1.6,0.9,5.1,0.2,8.5c-0.8,3.6-2.3,6-4.1,7.9c-0.4,0.4-0.9,0.9-1.5,1.3l-0.7,0.5 M165.9,163c1.4,0,2.7,1.4,2.7,2.8c0,0.7-0.3,1.3-0.7,1.8 M165.1,164.6c1.5,0,2.8,1.5,2.8,3c0,0.9-0.4,1.7-1,2.2 M178.6,149.7c1.4,1.8,2.4,4,2.8,6 M181.4,160.2c-0.2,1-0.8,2.8-1.2,3.7c-0.6,1.1-1.6,2.4-2.5,3.3 M178.8,139.1c1.3,1,2.1,2.1,2.5,3.4 M181.4,135.2c-0.3,1.2-1.2,2.6-2.5,3.7 M172.5,126.8l1.5-0.4l0.9-0.7l0.6-0.8l0.5-1.3l0.2-1.2 M169.4,121.5c-0.5,0.1-1.1,0.3-1.7,0.6c-0.9,0.4-1.8,1-2.5,2.1c-0.8,1.2-1.3,2.8-1.6,4.3c-0.1,0.6-0.3,2.6,0.1,4.7c0.3,1.5,0.9,2.9,1.6,4c0.2,0.4,0.5,0.7,0.7,0.9c0.9,0.9,1.7,1.5,3.1,1.2 M177.9,114.8c-0.2,0.9-0.7,2-2.1,1.9 M172.7,120.9c-1.4-1.3-4.2-1.7-7.1,0.1c-0.4,0.2-0.7,0.5-1.1,0.8c-0.4,0.3-0.7,0.7-1,1.1s-0.7,1.2-1,1.7c-0.3,0.7-0.5,1.2-0.7,1.9c-0.5,2-0.5,3.9-0.5,4.4c0.1,0.7,0.1,1.3,0.3,1.9c0.4,2,1,3.3,1.6,4.3s2.2,3.5,5.4,3.8c1.3,0.1,3.3-0.4,3.4-2 M255.8,91.8c0.2-1.2,1.6-1.4,2.1-0.7c0.8,1.1,0.3,2.9-1.4,3.4c-0.6,0.2-1.9,0.1-2.7-1c-0.7-0.9-0.6-2-0.4-2.8c0.2-0.6,0.6-1,1.2-1.5c1.9-1.5,5-1.1,6,1.3c1.3,3.2-1.5,5.5-4.2,7.3c-3.3,2.2-7.1,2.7-9.9,2.6c-6.4-0.1-11.3-3.1-14.5-4.9c-0.7-0.4-1.5-0.3-1.9,0.1c-0.4,0.5-0.4,1.4,0.2,1.9 M257.1,90.7c0.7,0,0.9,0.3,1.1,0.6c0.8,1.1,0.2,2.9-1.4,3.4 M269.3,130.9c-2.5,2.7-0.2,7.3,1.6,8.3c0.6,0.5,0.9,0.2,1.4,0.5 M269.4,125.8c-0.8,0.6-1.1,1.2-1.1,2.3c0,0.9,0.1,1.9,1,2.8c1.3,1.4,4,2.6,6.5,2.6c1.4,0,2.8-0.3,4.2-1.2c1.5-1,2.3-2.4,2.7-3.8 M268,172c0,0,0,1.1-0.1,1.7c-0.3,2-0.6,3.1-1.5,4.9c-0.9,1.7-1.6,2.6-2.9,4c-1.4,1.4-2.4,2-4.1,2.9s-2.8,1.1-4.6,1.5c-1.9,0.4-2.9,0.5-4.8,0.6c-1.7,0.1-2.7,0-4.5-0.1c-1.9-0.1-2.9-0.4-4.7-0.6c-1.5-0.1-2.4-0.3-3.9-0.3c-1.6,0-2.5,0-4,0.3s-2.3,0.5-3.6,1c-1.9,0.8-4,2.1-4.5,2.7c-0.5-0.6-2.6-1.9-4.5-2.7c-1.4-0.6-2.2-0.8-3.6-1c-1.6-0.3-2.5-0.3-4-0.3s-2.4,0.1-3.9,0.3c-1.9,0.2-2.9,0.4-4.7,0.6c-1.7,0.1-2.7,0.2-4.5,0.1c-1.9-0.1-3-0.2-4.8-0.6c-1.9-0.4-2.9-0.7-4.6-1.5c-1.7-0.9-2.7-1.5-4.1-2.9c-1.4-1.4-2.1-2.3-2.9-4c-0.9-1.8-1.2-2.9-1.5-4.9c-0.1-0.7-0.1-1.7-0.1-1.7v-71.6H268V172L268,172L268,172z" />
  <path fill="#703D29" stroke="#703D29" stroke-width="0.1247" d="M234.4,88c0-1.2-1.2-1.3-1.7-1.3c-1.3,0-1.6,0.8-3.3,1.7c-2,1.1-2.9,1.3-4.7,1.3s-2.7-0.3-4.7-1.3c-1.6-0.9-1.9-1.7-3.2-1.7c-0.7,0-1.6,0.6-1.6,1.7c0,0,0,0.4,0,0.6c0,0.1,0.1,0.1,0.2,0.1c0-0.5,0.1-0.8,0.4-1.2c0.3-0.5,0.9-0.6,1.1-0.6c1.3,0,1.8,0.8,3.4,1.7c2,1.1,2.9,1.3,4.7,1.3s2.7-0.3,4.7-1.3c1.6-0.9,2.1-1.8,3.4-1.8c0.4,0,0.8,0.3,0.9,0.8c0.1,0.3,0,0.5,0.1,0.6c0,0.1,0.1,0,0.1,0.1C234.3,88.5,234.4,88.5,234.4,88L234.4,88z M203.5,192.6l-2.9,4.6c-0.1,0.2-0.2,0.2-0.2,0.2c-0.1,0-0.1-0.1-0.2-0.5l-1-5.1c-0.1-0.3-0.2-0.5-0.4-0.6l-0.1-0.1c0-0.2,0.3-0.1,0.4-0.1c0.2,0,0.5,0.1,0.7,0.2c0.5,0.1,0.7,0.1,0.8,0.1c0.2,0,0.3,0,0.3,0.2s-0.5,0-0.5,0.4c0,0.2,0,0.7,0.1,1.2l0.5,2.8c0,0.1,0,0.2,0.1,0.2c0,0,0.1-0.1,0.1-0.2l1.5-2.3c0.3-0.5,0.4-0.8,0.4-0.9c0.1-0.8-0.7-0.6-0.6-0.9c0-0.2,0.2-0.1,0.3-0.1c0.2,0,0.4,0.1,0.6,0.2c0.2,0,0.4,0,0.6,0.1c0.2,0,0.3,0,0.2,0.2C204.1,192.2,203.8,192.1,203.5,192.6z M196.2,190.3c-1.1-0.3-1.6-0.4-2.2-0.6c-0.1,0-0.1,0.1-0.2,0.2l-0.4,1c0,0.1-0.1,0.3,0,0.3c0.3,0.1,0.4-1,1.2-0.8l0.6,0.1c0.3,0.1,0.4,0.1,0.3,0.5l-0.9,3.8l0,0c-0.2,1-1,0.4-1,0.7c0,0.2,0.1,0.2,0.2,0.2c0.3,0.1,0.5,0.1,1,0.2s0.7,0.2,1,0.3c0.2,0.1,0.4,0.1,0.4-0.1c0.1-0.2-0.9-0.2-0.7-1.2l0.9-3.7c0.1-0.4,0.2-0.4,0.5-0.3l0.6,0.1c0.9,0.2,0.4,1,0.7,1.1c0.2,0,0.2-0.3,0.2-0.4l0.1-0.8c0-0.1,0-0.2-0.1-0.2C197.8,190.6,197.3,190.6,196.2,190.3z M186.9,192.7l1.2-3.8c0.2-0.8,0.7-0.3,0.8-0.6c0-0.1,0-0.1-0.2-0.2c-0.4-0.1-0.7-0.2-0.9-0.3c-0.3-0.1-0.5-0.2-0.8-0.3c-0.1,0-0.2-0.1-0.3,0c0-0.1-0.1-0.1-0.2-0.1c-0.2-0.1-0.4-0.1-0.6-0.2c-0.2-0.1-0.4-0.2-0.6-0.3c-0.1,0-0.3-0.1-0.3,0c-0.1,0.3,0.7,0.3,0.4,1c0,0.1-0.2,0.4-0.6,0.8l-1.9,2c0,0-0.1,0.1-0.2,0.1c0,0,0-0.1,0-0.2v-2.9c0-0.5,0-1,0.1-1.2c0.1-0.3,0.5-0.1,0.6-0.3c0-0.1,0-0.1-0.2-0.2c-0.1,0-0.3-0.1-0.8-0.3c-0.2-0.1-0.5-0.2-0.7-0.3c-0.1,0-0.3-0.2-0.4,0c0,0.1,0.1,0.1,0.1,0.2c0.3,0.2,0.3,0.3,0.3,0.7l0.1,5.2c0,0.4,0,0.5,0.1,0.5s0.1,0,0.3-0.2l3.7-4l0,0c0.4-0.4,0.6-0.2,0.7-0.4l0,0c0,0.3,0.8,0.3,0.6,1l-1.2,3.8c-0.2,0.8-0.7,0.4-0.8,0.7v0.1c0.2,0.1,0.5,0.1,0.8,0.2c0.6,0.2,0.8,0.3,1.1,0.4c0.2,0.1,0.2,0,0.3,0C187.5,193.6,186.6,193.7,186.9,192.7z M207.6,192.6c-0.1,0-0.3,0.1-0.4,0.1c-0.2,0-0.5-0.4-1.1-0.5c-0.9-0.1-1.6,0.4-1.7,1.4c-0.1,0.9,0.2,1.3,0.8,1.7c1.1,0.8,1.6,1,1.4,1.7c-0.1,0.7-0.6,1-1.2,0.9c-0.8-0.1-1.2-1-1.3-1.8c0-0.1,0-0.2-0.1-0.2c-0.2,0-0.2,0.2-0.1,0.3v1.2c0,0.2,0,0.3,0.2,0.4c0.4,0.2,0.8,0.4,1.2,0.5c1,0.2,1.8-0.5,2-1.5c0.2-1.1-0.3-1.5-1-2c-0.9-0.7-1.3-0.8-1.2-1.4c0.1-0.6,0.5-0.8,1-0.7c1.3,0.2,1.1,1.8,1.3,1.8s0.2-0.1,0.2-0.3l0.1-1.1C207.7,192.7,207.8,192.6,207.6,192.6z M193,191.1c-0.2,0.5-0.5,0.8-0.7,0.9c-0.3,0.1-0.5,0.1-0.5,0.2c0,0,0.3,1.4,0.5,2.6c0,0.1,0.2,0.2,0.2,0.2c0.1,0,0.2,0,0.2,0c0.1,0,0.1,0.1,0.1,0.1c-0.1,0.2-0.6,0.3-0.9,0.2c-0.6-0.2-0.7-0.7-0.7-1.3l-0.2-1.5c-0.1-0.4-0.2-0.5-0.5-0.6c-0.4-0.1-0.4,0-0.4,0.2l-0.4,1.4c-0.3,0.9,0.6,0.7,0.5,1c0,0.1-0.1,0.1-0.3,0.1c-0.1,0-0.3-0.1-0.6-0.2c-0.4-0.1-0.8-0.2-1.1-0.3c-0.1,0-0.2,0-0.2-0.2c0.1-0.3,0.6,0.2,0.9-0.8l1-3.5c0.3-0.9-0.6-0.8-0.5-1.1c0-0.1,0.1-0.1,0.2-0.1c0.3,0.1,0.4,0.1,0.8,0.3c0.5,0.1,1,0.3,1.5,0.4C193.3,189.5,193.1,190.7,193,191.1z M191.3,189.3c-0.3-0.1-0.5-0.1-0.6,0.3l0,0l-0.5,1.6c-0.1,0.2,0.2,0.3,0.4,0.3c1.1,0.3,1.3-0.1,1.4-0.6C192.3,190.3,192,189.5,191.3,189.3z M221.3,193.5c-0.1,0-0.3,0-0.8,0s-0.7,0-0.9,0c-0.1,0-0.1,0.1-0.1,0.1c0,0.3,0.9,0.1,0.9,0.9v2.8c0,0.2,0,0.3-0.1,0.3c0,0-0.1-0.1-0.2-0.2l-3-3.7c-0.1-0.2,0-0.2-0.3-0.2c-0.4,0-0.6,0-0.8,0c-0.1,0-0.3,0-0.4,0l0,0c0,0-0.1,0-0.2,0c-0.2,0-0.4,0-0.6,0c-0.2,0-0.4-0.1-0.6-0.1c-0.1,0-0.3,0-0.3,0.1c0,0.3,0.8,0,0.7,0.8c0,0.1,0,0.4-0.3,1l-1.2,2.5c0,0.1-0.1,0.2-0.1,0.2s-0.1-0.1-0.1-0.2l-0.8-2.8c-0.1-0.5-0.2-0.9-0.2-1.2c0-0.4,0.5-0.2,0.5-0.4c0-0.1,0-0.1-0.3-0.2c-0.1,0-0.3,0-0.8,0c-0.3,0-0.5-0.1-0.8-0.1c-0.1,0-0.3-0.1-0.4,0.1c0,0.1,0.1,0.1,0.1,0.1c0.3,0.1,0.4,0.2,0.5,0.5l1.5,5c0.1,0.4,0.2,0.5,0.3,0.5s0.1,0,0.2-0.3l2.4-4.9c0.2-0.3,0.3-0.4,0.5-0.5c0.2,0.1,0.8,0,0.8,1.3v3.2l0,0c0,0.9-0.7,0.7-0.7,1c0,0.1,0.2,0.1,0.2,0.1c0.2,0,0.4,0,0.6,0c0.3,0,0.5,0,0.9,0c0.1,0,0.3,0,0.3-0.1c0-0.4-1,0.2-1-1.4v-2.9c0-0.1,0-0.1,0.1-0.1c0,0,0.1,0,0.1,0.1l3.6,4.4c0.1,0.1,0.1,0.1,0.2,0.1c0.1,0,0.1-0.1,0.1-0.3v-4.7c0-0.9,0.6-0.7,0.7-0.9C221.4,193.6,221.4,193.5,221.3,193.5z M223.6,198.5v-4c0-0.8,0.6-0.5,0.6-0.8c0-0.1,0-0.1-0.3-0.1c-0.4,0-0.7,0-1,0s-0.6,0-0.9,0c-0.1,0-0.3,0-0.3,0.1c0,0.3,0.8,0.1,0.8,0.8v4c0,0.8-0.5,0.6-0.6,0.9c0,0,0,0.1,0.1,0.1c0.2,0,0.5,0,0.8,0c0.6,0,0.9,0,1.1,0c0.2,0,0.2,0,0.2-0.1C224.4,199.1,223.5,199.5,223.6,198.5z M270.4,189.8c0.1,0.2-0.3,0.6-0.6,0.7c-0.6,0.2-1-0.2-1.4-0.6l-1.1-1c-0.3-0.3-0.5-0.3-0.8-0.2c-0.4,0.1-0.3,0.2-0.2,0.5l0.5,1.4c0.3,0.8,0.9,0.2,1,0.5c0,0.1,0,0.1-0.2,0.2c-0.1,0-0.3,0.1-0.6,0.2c-0.4,0.1-0.7,0.3-1.1,0.5c-0.1,0-0.2,0.1-0.3,0c-0.1-0.3,0.6-0.2,0.2-1.2l0,0l-1.4-3.4c-0.3-0.9-1-0.3-1.1-0.6c0-0.1,0-0.1,0.1-0.2c0.3-0.1,0.4-0.1,0.8-0.3c0.5-0.2,0.9-0.4,1.4-0.6c1.5-0.6,2.1,0.4,2.3,0.8c0.2,0.5,0.1,0.9,0,1.1c-0.1,0.3-0.3,0.4-0.3,0.5c0,0,1.1,0.9,2,1.7c0.1,0.1,0.2,0,0.3,0c0.1,0,0.1-0.1,0.2-0.1C270.3,189.7,270.4,189.7,270.4,189.8z M267.3,187.1c-0.3-0.8-0.9-1.2-1.6-0.9c-0.3,0.1-0.5,0.2-0.3,0.7l0,0l0.6,1.6c0.1,0.2,0.3,0.1,0.5,0C267.6,188,267.5,187.5,267.3,187.1z M229.6,194.9c0.2,0,0.1-0.3,0.1-0.4l-0.1-0.8c0-0.1,0-0.2-0.1-0.2c-0.7,0-1.2,0-2.3,0.1c-1.1,0-1.6,0-2.3,0c-0.1,0-0.1,0.1-0.1,0.2l-0.1,1.1c0,0.1-0.1,0.3,0.1,0.3c0.3,0,0.1-1.1,1-1.1h0.6c0.3,0,0.4,0,0.4,0.4v3.9c0,1-0.8,0.6-0.8,0.9c0,0.2,0.1,0.2,0.3,0.2c0.3,0,0.6,0,1.1,0s0.8,0,1.1,0c0.2,0,0.4,0,0.4-0.2s-1,0-1-1v-3.8c0-0.4,0.1-0.4,0.4-0.4h0.6C229.5,194,229.3,194.9,229.6,194.9z M246.3,194.2c0.2,1.2,0.1,3.3-2.2,3.7c-1.5,0.3-2.7-0.7-3-2.3c-0.3-1.8,0.4-3.4,2.2-3.7C244.7,191.6,246,192.4,246.3,194.2z M245.4,194.7c-0.3-1.8-1.4-2.6-2.4-2.4c-1.3,0.3-1.4,1.5-1.2,2.7s1,2.8,2.3,2.6C245.5,197.2,245.7,196.1,245.4,194.7z M252.3,195.7c0.1,0.3-0.4,0.5-0.7,0.6c-0.6,0.1-0.9-0.3-1.3-0.7l-0.9-1.1c-0.3-0.3-0.4-0.4-0.8-0.3c-0.4,0.1-0.3,0.1-0.3,0.4l0.3,1.4c0.2,0.9,0.9,0.4,0.9,0.7c0,0.1,0,0.1-0.2,0.2c-0.1,0-0.3,0-0.6,0.1c-0.4,0.1-0.8,0.2-1.1,0.3c-0.1,0-0.2,0.1-0.3-0.1c-0.1-0.3,0.6-0.1,0.4-1.2l0,0l-0.9-3.6c-0.2-0.9-0.9-0.4-1-0.7c0-0.1,0-0.1,0.1-0.2c0.3-0.1,0.4-0.1,0.9-0.2s1-0.3,1.5-0.4c1.6-0.4,2,0.7,2.1,1.1c0.1,0.5,0,0.9-0.2,1.1s-0.4,0.4-0.3,0.4c0,0,0.9,1.1,1.7,2c0.1,0.1,0.2,0.1,0.3,0.1s0.1-0.1,0.2-0.1C252.2,195.6,252.3,195.6,252.3,195.7z M249.6,192.5c-0.2-0.8-0.7-1.3-1.5-1.1c-0.3,0.1-0.5,0.1-0.4,0.6l0,0l0.4,1.6c0,0.2,0.3,0.1,0.5,0.1C249.8,193.5,249.7,193,249.6,192.5z M254.7,194.3l-1-3.7c-0.1-0.4,0-0.5,0.3-0.5l0.6-0.2c0.8-0.2,0.8,0.7,1.1,0.6c0.2,0,0-0.3,0-0.4l-0.3-0.7c0-0.1-0.1-0.2-0.2-0.2c-0.7,0.2-1.2,0.3-2.2,0.6c-1.1,0.3-1.6,0.4-2.2,0.5c-0.1,0-0.1,0.1-0.1,0.2l0.2,1.1c0,0.1,0,0.3,0.2,0.3c0.3-0.1-0.2-1.1,0.7-1.3l0.6-0.2c0.3-0.1,0.4-0.1,0.5,0.3l1,3.8c0.3,1-0.7,0.8-0.6,1.1c0,0.2,0.2,0.1,0.3,0.1c0.3-0.1,0.5-0.2,1-0.3s0.7-0.2,1-0.2c0.2-0.1,0.4-0.1,0.3-0.3C255.8,194.8,254.9,195.3,254.7,194.3z M264.3,189.3c0.4,1.1,0.6,3.2-1.7,4c-1.4,0.5-2.8-0.3-3.3-1.9c-0.6-1.7-0.1-3.4,1.6-4C262.3,186.9,263.7,187.6,264.3,189.3z M263.5,189.9c-0.6-1.8-1.8-2.4-2.7-2.1c-1.2,0.4-1.2,1.6-0.8,2.8c0.4,1.2,1.4,2.7,2.7,2.2C263.9,192.4,264,191.2,263.5,189.9z M235,198.9c0,0.1-0.1,0.1-0.3,0.1c-0.3,0-0.5,0-1,0c-0.3,0-0.6,0.1-0.8,0.1c-0.1,0-0.2,0-0.2-0.1c0-0.2,0.5-0.2,0.5-0.7c0-0.2-0.1-0.3-0.2-0.5c-0.3-0.6-0.3-0.7-0.5-0.7l-1.5,0.1c-0.1,0-0.3,0.1-0.4,0.6c0,0.2-0.1,0.5-0.1,0.7c0,0.6,0.9,0.4,0.9,0.6c0,0.2-0.2,0.1-0.4,0.1s-0.5,0-0.7,0s-0.4,0.1-0.7,0.1c-0.1,0-0.2,0-0.2-0.1c0-0.2,0.4-0.2,0.5-0.7l1.6-5.2c0-0.1,0.1-0.3,0.2-0.3c0.1,0,0.1,0,0.2,0.3l2.4,5C234.6,199,235,198.6,235,198.9z M232.4,196.6c0-0.1-0.1-0.2-0.1-0.3l-0.7-1.5c-0.1-0.1,0-0.1-0.1-0.1c0,0,0,0-0.1,0.1l-0.5,1.5c0,0.1-0.1,0.2-0.1,0.3s0.1,0.1,0.2,0.1l1-0.1C232.3,196.7,232.4,196.7,232.4,196.6z M240.4,192.5c0-0.1-0.1-0.2-0.2-0.1c-0.7,0.1-1.2,0.2-1.7,0.3c-1.1,0.2-1.7,0.2-2,0.2c-0.1,0-0.2,0.1-0.1,0.2c0,0.3,0.9,0,1,0.7l0.5,3.9c0.1,1-0.5,0.6-0.4,1c0,0,0.1,0.1,0.2,0.1c0.4-0.1,0.7-0.1,1-0.2c0.3,0,0.6,0,0.9-0.1c0.2,0,0.3,0,0.3-0.2s-0.8,0.1-1-0.8l-0.2-1.2c-0.1-0.5-0.1-0.6,0.2-0.6l0.6-0.1c0.8-0.1,0.7,0.8,0.9,0.8s0.1-0.3,0.1-0.4l-0.2-1.5c0-0.2-0.1-0.2-0.2-0.2c-0.1,0-0.1,0.8-0.7,0.9l-0.5,0.1c-0.3,0-0.3,0-0.4-0.4l-0.2-1.2l0,0c-0.1-0.6,0-0.6,0.9-0.7c1.4-0.2,1,0.9,1.3,0.8c0.2,0,0.1-0.3,0.1-0.4L240.4,192.5z M258.7,193.3l-1.1-3.9c-0.2-0.8,0.4-0.6,0.3-0.9c0-0.1-0.1-0.1-0.3,0c-0.4,0.1-0.7,0.2-0.9,0.3c-0.3,0.1-0.5,0.1-0.8,0.2c-0.1,0-0.3,0-0.2,0.2c0.1,0.3,0.8-0.2,1,0.6l1.1,3.9c0.2,0.8-0.4,0.7-0.3,1c0,0,0,0.1,0.1,0.1c0.2-0.1,0.5-0.2,0.8-0.3c0.6-0.2,0.8-0.2,1.1-0.3c0.2,0,0.2-0.1,0.2-0.2C259.7,193.7,259,194.3,258.7,193.3z" />
  <path fill="#D52B1E" d="M185.7,104.8h37v36.9h-37V104.8z" />
  <path fill="#FFFFFF" d="M203,133.8L203,133.8c0,0,0,1.4-0.3,2.4c-0.4,1.2-0.4,1.2-0.8,1.8c-0.5,0.8-1.2,1.4-1.7,1.7c-0.9,0.6-1.8,0.8-2.7,0.8c-2.5-0.2-3.6-2.9-4.2-5.1c-0.6-2.3-2.3-3.6-3.4-2.7c-0.6,0.5-0.7,1.3-0.1,2.1c0.6,0.8,1.8,1.3,1.8,1.3l-1.3,1.7c0,0-2.8-0.4-3.4-3.3c-0.2-1.1,0.3-3.2,2.2-3.8c2.4-0.8,3.9,0.9,4.6,2.3c1,2,1.4,5.6,4.2,5c1.5-0.3,2.2-2.5,2.2-3.5l1.1-1.2L203,133.8z M203,133.8L203,133.8L203,133.8L203,133.8z M219.3,130.6c-2.4-0.8-3.9,0.9-4.6,2.3c-1,2-1.4,5.6-4.2,5c-1.5-0.3-2.2-2.5-2.2-3.5l-1.1-1.2l-1.6,0.5l0,0c0,0,0,1.3,0.4,2.4c0.4,1.2,0.4,1.2,0.8,1.8c0.5,0.8,1.2,1.4,1.7,1.7c0.9,0.6,1.8,0.8,2.7,0.8c2.5-0.2,3.6-2.9,4.2-5.1c0.6-2.3,2.3-3.6,3.4-2.7c0.6,0.5,0.7,1.3,0.1,2.1c-0.6,0.8-1.8,1.3-1.8,1.3l1.3,1.7c0,0,2.8-0.4,3.4-3.3C221.7,133.3,221.1,131.2,219.3,130.6z M205.3,133.8L205.3,133.8L205.3,133.8L205.3,133.8z" />
  <path fill="#FEDF00" d="M207.5,118.1l4.8-5.2c0,0,0.7-0.6,0.7-1.5l-1,0.2l-0.2-0.5v-0.5l1.3-0.3c0-0.2,0-0.4,0-0.6s0.1-0.3,0.1-0.6l-1.5,0.1c0.1-0.3,0.1-0.4,0.1-0.6c0.1-0.2,0.1-0.3,0.2-0.5c0.3,0,0.5-0.1,0.9-0.1c0.3,0,0.5,0,0.8,0c0.8-1.5,4.1-2.9,6.5-0.4c1.7,1.8,1.3,5-0.9,5.9c-1.3,0.5-2.3,0.2-3.1-0.5l0.9-1.7c1.2,0.7,2.2-0.2,2.2-1.1c-0.1-1.2-0.9-1.9-2-2c-1-0.1-1.7,0.5-2.2,1.4c-0.3,0.6-0.2,1-0.2,1.6c-0.1,0.7,0,1-0.2,1.7c-0.1,0.5-0.5,1.1-1.1,1.6l-5,5.4l-19.3,20.9l-1.5-1.3L207.5,118.1L207.5,118.1z" />
  <path fill="#FFFFFF" d="M193.3,120c0,0,1.2,6,5.3,15c2.1-0.8,3.3-1.3,5.6-1.3c2.2,0,3.5,0.4,5.6,1.3c4.1-9,5.3-15,5.3-15l-10.9-14L193.3,120z" />
  <path fill="#FEDF00" d="M205.3,110.7l7.6,9.7c0,0-1,4.7-4.1,11.9c-1.2-0.3-2.2-0.5-3.5-0.6V110.7L205.3,110.7z M203.1,110.7l-7.6,9.7c0,0,1,4.7,4.1,11.9c1.2-0.3,2.2-0.5,3.5-0.6V110.7L203.1,110.7z M185.8,173.7c0.1,0.7,0.3,1.8,1,3c0.7,1,0.4,1,1.9,2.7c0.7,0.8,1.9,1.5,2.8,2c0.9,0.5,1.6,0.7,3.1,1.1c2.9,0.8,5,0.8,7.5,0.7c1.9-0.1,3.4-0.3,4.6-0.5c1.7-0.2,3-0.4,5-0.5c1,0,1.9,0,2.8,0c1.1,0.1,2.2,0.2,3.3,0.5c2.4,0.5,4.9,1.4,4.9,1.4v-38.5h-37v26.3C185.7,172,185.8,173.3,185.8,173.7L185.8,173.7z M263.5,173.7c-0.1,0.7-0.3,1.8-1,3c-0.7,1-0.4,1-1.9,2.7c-0.7,0.8-1.9,1.5-2.8,2s-1.6,0.7-3.1,1.1c-2.9,0.8-5,0.8-7.5,0.7c-1.9-0.1-3.4-0.3-4.6-0.5c-1.7-0.2-3-0.4-5-0.5c-1,0-1.9,0-2.8,0c-1.1,0.1-2.2,0.2-3.3,0.5c-2.4,0.5-5,1.4-5,1.4v-38.5h37v26.3C263.6,172,263.5,173.2,263.5,173.7L263.5,173.7z M226.6,104.8h37v36.9h-37V104.8z" />
  <path fill="#D52B1E" d="M231.8,104.8h5.5v36.9h-5.5V104.8z M242.4,104.8h5.5v36.9h-5.5V104.8z M252.9,104.8h5.5v36.9h-5.5V104.8z" />
  <path fill="#D52B1E" stroke="#D52B1E" stroke-width="0.2308" d="M190.1,180.4l1.7,1l2.4,0.9v-36.7h-4.1L190.1,180.4z M210.7,182.1v-36.5h-4.1v37.1c0,0,2.8-0.4,4.1-0.4V182.1z M218.9,145.6h-4.1v36.6c1.4,0.1,2.8,0.4,4.1,0.8V145.6z M202.5,145.6v37.5c0,0-2.7,0.1-4.1,0v-37.5H202.5z" />
  <path fill="#D52B1E" d="M236.1,165.2c0,0-0.2,0.1-0.3,0.1c-0.1,0.1-0.7,0.6-1,0.8c-0.1,0.1-0.2,0.1-0.3,0.2c-0.1,0.1,0,0.3-0.1,0.5s-1.3,1.3-1.5,1.3c-0.1,0-0.2,0-0.3,0c-0.2,0.1-0.2,0.3-0.4,0.3c0,0.1,0,0.2,0.1,0.3s0.5,0.9,0.6,1c0.2,0.1,0.4,0.1,0.6,0.1c0.4,0.1,0.6,0.1,0.9,0.2c0.3,0.1,0.4,0.3,0.7,0.4c0.2,0.1,0.3,0.2,0.6,0.2c0.2,0,0.3,0.1,0.4,0c0.1,0,0.3-0.1,0.4-0.1v0.2l0.9,0.4c0,0.1-0.1,0.1-0.1,0.2c0,0.1-0.1,0.3,0,0.4c0.3,0.8,0.5,1.4,0.7,1.4c0.3,0.1,0.4,0.4,0.5,0.7c-0.1,0.1-0.1,0.1-0.2,0.1c-0.3,0.3-0.5,0.5-0.7,0.8c-0.3,0.5-0.6,0.5-0.1,1.3c0.2,0.4,0.4,0.5,0.7,1.1c0.2,0.3,0.3,0.5,0.4,0.9c0.1,0.3,0.1,0.5,0.1,0.9l0.4,0.2l0.6-0.8v-0.4c-0.1-0.1-0.1-0.2-0.1-0.4s0.2-0.1,0.3-0.3s-0.1-0.3-0.3-0.5c-0.3-0.3-0.6-0.4-0.7-0.8c0-0.1,0-0.2,0.2-0.3c0.4-0.4,0.5-0.4,0.9-0.8c0.1,0.1,0.3,0.1,0.4,0.1c0.1,0,0.2,0.1,0.6,0.2c0.3,0.1,0.4,0,0.5,0h0.2c0,0.1,0,0.2,0.1,0.3c0,0.5-0.1,1.3,0.1,1.6c0.1,0.1,0.1,0.1,0.1,0.3c0,0.1,0.1,0.2,0.1,0.3c0,0.3,0,0.5,0,0.8s0,0.5-0.1,0.8c0,0.2-0.1,0.3-0.2,0.5c-0.1,0.2-0.3,0.2-0.4,0.3l1.5,0.3c0-0.1,0.1-0.2,0.2-0.2c0.2-0.1,0.3,0.1,0.4,0c0.1-0.1,0-0.2,0-0.3c0-0.3-0.1-0.4-0.1-0.7c-0.1-0.5-0.1-0.8-0.1-1.2c0-0.3,0-0.4,0.1-0.7c0.1-0.4,0.2-0.6,0.3-1s0.1-0.7,0.2-1.1c1.4,0.2,2.6,0.2,4.2-0.2c0.1,0,0.3-0.1,0.3-0.1c0.4,0.3,0.8,0.6,1.2,0.7c0,0,0,0.5,0.1,0.7c0.1,0.1,0.1,0.1,0.2,0.1c0.1,0,0.2,0,0.3-0.1s0.1-0.6,0.1-0.6c0.2,0,0.6,0,0.8,0v0.2c0,0.1,0,0.2,0,0.3s0.1,0.2,0.2,0.2c0.1,0,0.2,0,0.2,0c0.1-0.1,0.1-0.7,0.1-0.8c0.1,0,0.4-0.1,0.5-0.2c0,0.1,0,0.2,0,0.4c0,0.1-0.1,0.3-0.1,0.4c-0.1,0.3-0.2,0.4-0.3,0.6c-0.2,0.3-0.3,0.4-0.5,0.7c-0.1,0.1-0.2,0.2-0.3,0.3c-0.1,0.2-0.2,0.3-0.3,0.4c-0.1,0.2-0.2,0.3-0.4,0.5c-0.3,0.2-0.5,0-0.9,0.4c0,0,1.3,0.5,1.4,0.4s0.2-0.2,0.4-0.2s0.3,0,0.5-0.1s0.2-0.4,0.3-0.7c0.4-0.8,0.7-1.2,1.4-1.8c0.3-0.3,0.5-0.3,0.7-0.6c0.1-0.1,0.2-0.2,0.2-0.4c0-0.1-0.1-0.2-0.1-0.3c0-0.2-0.1-0.5-0.1-0.5c0.7,0.3,0.4,0.3,0.6,0.6c0.1,0.3,0,0.5,0,0.8s0.2,0.5,0.2,0.8c0,0.4-0.1,0.6-0.1,1c-0.1,0.4-0.1,0.6-0.2,0.9c-0.1,0.3-0.3,0.5-0.5,0.7c-0.1,0.1-0.2,0.1-0.3,0.2l1.3,0.7c0.1-0.3,0-0.7,0.2-0.8c0.2,0,0.3,0,0.4-0.1c0-0.1,0-0.1,0-0.3c0.1-0.8,0.2-1.6,0.3-2s0.1-0.5,0.2-0.9c0.1-0.3,0-0.1,0.2-0.8c0.3-0.9-0.1-1.1-0.5-1.6c-0.2-0.3-0.3-0.4-0.3-0.7c0-0.4,0.1-0.7,0.1-1.2c0-0.4,0-0.9,0-1.3c0.1,0,0.1-0.1,0.2-0.1c0.5-0.3,0.7-0.4,1.1-1.1c0.2-0.4,0.1-1,0.1-1.2s-0.2-0.7-0.4-0.8c-0.3-0.4-0.8-0.5-1.2-0.7c-0.7-0.2-1.1-0.2-1.9-0.3c-0.8-0.1-1.2-0.1-1.9,0c-0.9,0.1-1.4,0.2-2.3,0.3c-0.9,0.1-1.3,0.2-2.2,0.2c-1,0-2-0.2-2.6-0.2c-1.1,0.1-1.1,0.3-2.8,0.5c-0.6,0-1.2,0.1-1.7,0.1l-1-0.3c0.4-0.1,0.5-0.2,0.7-0.5c0.1-0.2,0.1-0.3,0.3-0.5c0.1-0.1,0.2-0.3,0.4-0.4c-0.1-0.1-0.3-0.2-0.4-0.2c-0.2,0-0.3,0-0.4,0c-0.2,0-0.3,0.1-0.5,0.2c-0.2,0.1-0.3,0.2-0.4,0.3c0,0-0.6-0.4-1-0.5C236.9,165.4,236.7,165.3,236.1,165.2z M237,170.5L237,170.5L237,170.5L237,170.5z M236.1,148.8c0,0-0.2,0.1-0.3,0.1c-0.1,0.1-0.7,0.6-1,0.8c-0.1,0.1-0.2,0.1-0.3,0.2c-0.1,0.1,0,0.3-0.1,0.5s-1.3,1.3-1.5,1.3c-0.1,0-0.2,0-0.3,0c-0.2,0.1-0.2,0.3-0.4,0.3c0,0.1,0,0.2,0.1,0.3s0.5,0.9,0.6,1c0.2,0.1,0.4,0.1,0.6,0.1c0.4,0.1,0.6,0.1,0.9,0.2c0.3,0.1,0.4,0.3,0.7,0.4c0.2,0.1,0.3,0.2,0.6,0.2c0.2,0,0.3,0.1,0.4,0c0.1,0,0.3-0.1,0.4-0.1v0.2l0.9,0.4c0,0.1-0.1,0.1-0.1,0.2c0,0.1-0.1,0.3,0,0.4c0.3,0.8,0.5,1.4,0.7,1.4c0.3,0.1,0.4,0.4,0.5,0.7c-0.1,0.1-0.1,0.1-0.2,0.1c-0.3,0.3-0.5,0.5-0.7,0.8c-0.3,0.5-0.6,0.5-0.1,1.3c0.2,0.4,0.4,0.5,0.7,1.1c0.2,0.3,0.3,0.5,0.4,0.9c0.1,0.3,0.1,0.5,0.1,0.9l0.4,0.2l0.6-0.8v-0.4c-0.1-0.1-0.1-0.2-0.1-0.4s0.2-0.1,0.3-0.3s-0.1-0.3-0.3-0.5c-0.3-0.3-0.6-0.4-0.7-0.8c0-0.1,0-0.2,0.2-0.3c0.4-0.4,0.5-0.4,0.9-0.8c0.1,0.1,0.3,0.1,0.4,0.1c0.1,0,0.2,0.1,0.6,0.2c0.3,0.1,0.4,0,0.5,0h0.2c0,0.1,0,0.2,0.1,0.3c0,0.5-0.1,1.3,0.1,1.6c0.1,0.1,0.1,0.1,0.1,0.3c0,0.1,0.1,0.2,0.1,0.3c0,0.3,0,0.5,0,0.8s0,0.5-0.1,0.8c0,0.2-0.1,0.3-0.2,0.5c-0.1,0.2-0.3,0.2-0.4,0.3l1.5,0.3c0-0.1,0.1-0.2,0.2-0.2c0.2-0.1,0.3,0.1,0.4,0c0.1-0.1,0-0.2,0-0.3c0-0.3-0.1-0.4-0.1-0.7c-0.1-0.5-0.1-0.8-0.1-1.2c0-0.3,0-0.4,0.1-0.7c0.1-0.4,0.2-0.6,0.3-1s0.1-0.7,0.2-1.1c1.4,0.2,2.6,0.2,4.2-0.2c0.1,0,0.3-0.1,0.3-0.1c0.4,0.3,0.8,0.6,1.2,0.7c0,0,0,0.5,0.1,0.7c0.1,0.1,0.1,0.1,0.2,0.1c0.1,0,0.2,0,0.3-0.1s0.1-0.6,0.1-0.6c0.2,0,0.6,0,0.8,0v0.2c0,0.1,0,0.2,0,0.3s0.1,0.2,0.2,0.2c0.1,0,0.2,0,0.2,0c0.1-0.1,0.1-0.7,0.1-0.8c0.1,0,0.4-0.1,0.5-0.2c0,0.1,0,0.2,0,0.4c0,0.1-0.1,0.3-0.1,0.4c-0.1,0.3-0.2,0.4-0.3,0.6c-0.2,0.3-0.3,0.4-0.5,0.7c-0.1,0.1-0.2,0.2-0.3,0.3c-0.1,0.2-0.2,0.3-0.3,0.4c-0.1,0.2-0.2,0.3-0.4,0.5c-0.3,0.2-0.5,0-0.9,0.4c0,0,1.3,0.5,1.4,0.4s0.2-0.2,0.4-0.2s0.3,0,0.5-0.1s0.2-0.4,0.3-0.7c0.4-0.8,0.7-1.2,1.4-1.8c0.3-0.3,0.5-0.3,0.7-0.6c0.1-0.1,0.2-0.2,0.2-0.4c0-0.1-0.1-0.2-0.1-0.3c0-0.2-0.1-0.5-0.1-0.5c0.7,0.3,0.4,0.3,0.6,0.6c0.1,0.3,0,0.5,0,0.8s0.2,0.5,0.2,0.8c0,0.4-0.1,0.6-0.1,1c-0.1,0.4-0.1,0.6-0.2,0.9c-0.1,0.3-0.3,0.5-0.5,0.7c-0.1,0.1-0.2,0.1-0.3,0.2l1.3,0.7c0.1-0.3,0-0.7,0.2-0.8c0.2,0,0.3,0,0.4-0.1c0-0.1,0-0.1,0-0.3c0.1-0.8,0.2-1.6,0.3-2s0.1-0.5,0.2-0.9c0.1-0.3,0-0.1,0.2-0.8c0.3-0.9-0.1-1.1-0.5-1.6c-0.2-0.3-0.3-0.4-0.3-0.7c0-0.4,0.1-0.7,0.1-1.2c0-0.4,0-0.9,0-1.3c0.1,0,0.1-0.1,0.2-0.1c0.5-0.3,0.7-0.4,1.1-1.1c0.2-0.4,0.1-1,0.1-1.2s-0.2-0.7-0.4-0.8c-0.3-0.4-0.8-0.5-1.2-0.7c-0.7-0.2-1.1-0.2-1.9-0.3c-0.8-0.1-1.2-0.1-1.9,0c-0.9,0.1-1.4,0.2-2.3,0.3c-0.9,0.1-1.3,0.2-2.2,0.2c-1,0-2-0.2-2.6-0.2c-1.1,0.1-1.1,0.3-2.8,0.5c-0.6,0-1.2,0.1-1.7,0.1l-1-0.3c0.4-0.1,0.5-0.2,0.7-0.5c0.1-0.2,0.1-0.3,0.3-0.5c0.1-0.1,0.2-0.3,0.4-0.4c-0.1-0.1-0.3-0.2-0.4-0.2c-0.2,0-0.3,0-0.4,0c-0.2,0-0.3,0.1-0.5,0.2c-0.2,0.1-0.3,0.2-0.4,0.3c0,0-0.6-0.4-1-0.5C236.9,149,236.7,148.9,236.1,148.8z M237,154.1L237,154.1L237,154.1L237,154.1z" />
  <path fill="none" stroke="#FEDF00" stroke-width="0.4441" stroke-linecap="round" d="M256.2,170.8l-0.6,0.1c-0.4,0.2-0.7,0.2-1.2,0.2c-1.2,0.1-1.9-0.5-3.1-0.4c-0.6,0-0.9,0.5-1.6,0.7c-0.3,0.1-0.5,0.1-0.8,0.1l0.2-0.5c0,0-0.6,0.1-1,0.1c-0.2,0-0.5,0-0.7-0.1l0.5-0.4c0,0-0.4-0.1-0.6-0.2c-0.2-0.1-0.3-0.2-0.5-0.3c0.3,0,0.5-0.1,0.8-0.2c0.7-0.2,0.9-0.5,1.8-0.6c0.5,0,1.4,0,3.4,0.3c1.4,0.2,2,0.1,2.5-0.1c0.3-0.2,0.5-0.5,0.5-0.8s-0.2-0.6-0.4-0.8c-0.1-0.1-0.2-0.2-0.5-0.2 M241.2,172.8c0,0,0.1,0.2,0.2,0.4c0.1,0.2,0.2,0.4,0.2,0.7c0.1,0.4,0.1,0.6,0.1,0.9c0,0.1,0,0.1,0,0.2l-0.1,0.7 M244.8,172.3c0,0-0.1,0.4-0.2,0.6c-0.2,0.6-0.3,0.9-0.4,1.6c0,0.1-0.1,0.7-0.1,0.8 M239.3,172.9c0.4,0.1,0.5,1.9,1.1,2.2 M252,175.6c0,0,1.2-0.7,1.5-1 M252,173.4c-0.7,0.1-1.8,1-3.5,1.6 M250.2,172.7c0.1,0,0.3,0,0.4,0c0.7-0.1,0.9,0.3,1.3,0.6c0.8,0.5,2.3,1.8,2.3,1.8 M256.2,154.4l-0.6,0.1c-0.4,0.2-0.7,0.2-1.2,0.2c-1.2,0.1-1.9-0.5-3.1-0.4c-0.6,0-0.9,0.5-1.6,0.7c-0.3,0.1-0.5,0.1-0.8,0.1l0.2-0.5c0,0-0.6,0.1-1,0.1c-0.2,0-0.5,0-0.7-0.1l0.5-0.4c0,0-0.4-0.1-0.6-0.2c-0.2-0.1-0.3-0.2-0.5-0.3c0.3,0,0.5-0.1,0.8-0.2c0.7-0.2,0.9-0.5,1.8-0.6c0.5,0,1.4,0,3.4,0.3c1.4,0.2,2,0.1,2.5-0.1c0.3-0.2,0.5-0.5,0.5-0.8s-0.2-0.6-0.4-0.8c-0.1-0.1-0.2-0.2-0.5-0.2 M241.2,156.4c0,0,0.1,0.2,0.2,0.4c0.1,0.2,0.2,0.4,0.2,0.7c0.1,0.4,0.1,0.6,0.1,0.9c0,0.1,0,0.1,0,0.2l-0.1,0.7 M244.8,155.9c0,0-0.1,0.4-0.2,0.6c-0.2,0.6-0.3,0.9-0.4,1.6c0,0.1-0.1,0.7-0.1,0.8 M239.3,156.5c0.4,0.1,0.5,1.9,1.1,2.2 M252,159.2c0,0,1.2-0.7,1.5-1 M252,157c-0.7,0.1-1.8,1-3.5,1.6 M250.2,156.3c0.1,0,0.3,0,0.4,0c0.7-0.1,0.9,0.3,1.3,0.6c0.8,0.5,2.3,1.8,2.3,1.8" />
  <path fill="#FCD900" stroke="#FEDF00" stroke-width="0.2308" d="M236.2,166.8c-0.2,0-0.4,0-0.6,0.1c-0.2,0.1-0.2,0.3-0.4,0.5c0.2,0,0.3,0.2,0.5,0.1c0.2,0,0.2-0.1,0.3-0.2C236.2,167.2,236.2,167.1,236.2,166.8L236.2,166.8L236.2,166.8z M233,168.6c0.1,0,0.2,0,0.3,0s0.2-0.1,0.4-0.1c0.1,0,0.2,0,0.3,0.1c0.1,0,0.1,0.1,0.1,0.2c0,0.1,0.1,0.1,0.1,0.2s-0.1,0.2-0.3,0.2c-0.1,0-0.2,0-0.2-0.1s0-0.1,0-0.2c-0.1,0-0.2,0-0.3,0C233.1,168.8,233,168.7,233,168.6L233,168.6z M236.2,150.4c-0.2,0-0.4,0-0.6,0.1c-0.2,0.1-0.2,0.3-0.4,0.5c0.2,0,0.3,0.2,0.5,0.1c0.2,0,0.2-0.1,0.3-0.2C236.2,150.8,236.2,150.7,236.2,150.4L236.2,150.4L236.2,150.4z M233,152.2c0.1,0,0.2,0,0.3,0s0.2-0.1,0.4-0.1c0.1,0,0.2,0,0.3,0.1c0.1,0,0.1,0.1,0.1,0.2c0,0.1,0.1,0.1,0.1,0.2c0,0.1-0.1,0.2-0.3,0.2c-0.1,0-0.2,0-0.2-0.1s0-0.1,0-0.2c-0.1,0-0.2,0-0.3,0C233.1,152.4,233,152.3,233,152.2L233,152.2z" />
  <path fill="#0065BD" d="M236.3,172.9c-0.4-0.1-0.9-0.4-0.9-0.4c0.1-0.1,0.3-0.1,0.4-0.2c0.2-0.2,0.2-0.4,0.3-0.6s0.1-0.4,0.3-0.6c0.1-0.1,0.3-0.1,0.5-0.1c0.2,0.1,0.3,0.2,0.4,0.3c0.1,0.3-0.1,0.4-0.1,0.7s-0.1,0.4-0.1,0.7c0,0.2,0.1,0.2,0.2,0.4C237.2,173.1,236.7,173,236.3,172.9L236.3,172.9z M235.9,173.4c0-0.2,0.1-0.3,0.3-0.3s0.3,0.1,0.3,0.3s-0.1,0.3-0.3,0.3S235.9,173.5,235.9,173.4L235.9,173.4z M235.1,165.9C235.1,165.9,235,165.9,235.1,165.9c-0.2-0.2-0.3-0.3-0.3-0.5c-0.1-0.2-0.1-0.3-0.1-0.5s0-0.3,0-0.5s0-0.3,0-0.4c0-0.2,0-0.3-0.1-0.4c0-0.1-0.2-0.2-0.1-0.2c0,0,0.1,0,0.2,0c0.2,0,0.3,0.1,0.4,0.2c0.2,0.1,0.2,0.3,0.3,0.5s0.1,0.4,0.2,0.7c0,0.1,0.1,0.2,0.1,0.3c0.1,0.1,0.1,0.2,0.2,0.3l0,0c-0.1,0.1-0.2,0.2-0.3,0.4C235.3,165.8,235.2,165.9,235.1,165.9L235.1,165.9L235.1,165.9z M236.5,170.8l1.1,0.5c0.5-0.3,1.2-0.9,1.7-1.8c0.4-0.8,0.5-1.2,0.6-1.9l-0.8-0.3h-0.2c-0.2,0.8-0.3,1.2-0.7,1.9c-0.4,0.6-0.8,1-1.2,1.4l-0.3,0.2L236.5,170.8z M238.9,178.9c0.2-0.2,0.2-0.4,0.4-0.6c0.2-0.2,0.4-0.3,0.6-0.5c0.1,0,0.2,0,0.2,0c0,0.2,0,0.4-0.1,0.7c0,0.2-0.1,0.3-0.2,0.5c-0.1,0.2-0.1,0.3-0.2,0.4c-0.1,0.1-0.1,0.1-0.2,0.2C239.3,179.4,238.9,179.2,238.9,178.9L238.9,178.9z M253.8,179.7c0.3,0.1,0.4,0.1,0.7,0.2c0.3,0.1,0.4,0.3,0.7,0.4c0,0.1,0,0.1,0,0.2c-0.2,0.1-0.4,0.1-0.7,0.1c-0.2,0-0.4,0-0.6,0c-0.2,0-0.3,0-0.5,0c-0.1,0-0.2-0.1-0.3-0.1C253.4,180.2,253.5,179.8,253.8,179.7z M249.4,178.8c0.3,0.1,0.4,0.1,0.7,0.2s0.4,0.3,0.7,0.4c0,0.1,0,0.1,0,0.2c-0.2,0.1-0.4,0.1-0.7,0.1c-0.2,0-0.3,0-0.6,0c-0.2,0-0.3,0-0.5,0c-0.1,0-0.2-0.1-0.3-0.1C249,179.3,249.1,178.9,249.4,178.8L249.4,178.8z M241.6,179.8c0.3,0.1,0.4,0.1,0.7,0.2s0.4,0.3,0.7,0.4c0,0.1,0,0.1,0,0.2c-0.2,0.1-0.4,0.1-0.7,0.1c-0.2,0-0.3,0-0.6,0c-0.2,0-0.3,0-0.5,0c-0.1,0-0.2-0.1-0.3-0.1C241.2,180.3,241.3,179.8,241.6,179.8z M237.5,166.3c-0.3-0.1-0.5-0.5-0.3-0.7c0.1-0.1,0.2-0.1,0.3-0.2s0.1-0.2,0.1-0.4s-0.1-0.3-0.1-0.4c0-0.2-0.1-0.3-0.1-0.5c0-0.3,0-0.5,0.2-0.7c0.1-0.1,0.3-0.3,0.4-0.3c0.1,0.1,0,0.2,0,0.4s0.1,0.3,0.1,0.5c0.1,0.3,0.2,0.4,0.3,0.6s0.2,0.4,0.2,0.6s0,0.3-0.1,0.5s-0.1,0.3-0.3,0.4c-0.1,0.1-0.2,0.1-0.4,0.2C237.7,166.4,237.6,166.4,237.5,166.3L237.5,166.3z M236.3,156.5c-0.4-0.1-0.9-0.4-0.9-0.4c0.1-0.1,0.3-0.1,0.4-0.2c0.2-0.2,0.2-0.4,0.3-0.6c0.1-0.2,0.1-0.4,0.3-0.6c0.1-0.1,0.3-0.1,0.5-0.1c0.2,0.1,0.3,0.2,0.4,0.3c0.1,0.3-0.1,0.4-0.1,0.7s-0.1,0.4-0.1,0.7c0,0.2,0.1,0.2,0.2,0.4C237.2,156.7,236.7,156.6,236.3,156.5L236.3,156.5z M235.9,157c0-0.2,0.1-0.3,0.3-0.3s0.3,0.1,0.3,0.3s-0.1,0.3-0.3,0.3S235.9,157.1,235.9,157L235.9,157z M235.1,149.5C235.1,149.5,235,149.5,235.1,149.5c-0.2-0.2-0.3-0.3-0.3-0.5c-0.1-0.2-0.1-0.3-0.1-0.5s0-0.3,0-0.5s0-0.3,0-0.4c0-0.2,0-0.3-0.1-0.4c0-0.1-0.2-0.2-0.1-0.2c0,0,0.1,0,0.2,0c0.2,0,0.3,0.1,0.4,0.2c0.2,0.1,0.2,0.3,0.3,0.5s0.1,0.4,0.2,0.7c0,0.1,0.1,0.2,0.1,0.3c0.1,0.1,0.1,0.2,0.2,0.3l0,0c-0.1,0.1-0.2,0.2-0.3,0.4C235.3,149.4,235.2,149.5,235.1,149.5L235.1,149.5L235.1,149.5z M236.5,154.4l1.1,0.5c0.5-0.3,1.2-0.9,1.7-1.8c0.4-0.8,0.5-1.2,0.6-1.9l-0.8-0.3h-0.2c-0.2,0.8-0.3,1.2-0.7,1.9c-0.4,0.6-0.8,1-1.2,1.4l-0.3,0.2L236.5,154.4z M238.9,162.5c0.2-0.2,0.2-0.4,0.4-0.6c0.2-0.2,0.4-0.3,0.6-0.5c0.1,0,0.2,0,0.2,0c0,0.2,0,0.4-0.1,0.7c0,0.2-0.1,0.3-0.2,0.5c-0.1,0.2-0.1,0.3-0.2,0.4c-0.1,0.1-0.1,0.1-0.2,0.2C239.3,163,238.9,162.8,238.9,162.5L238.9,162.5z M253.8,163.3c0.3,0.1,0.4,0.1,0.7,0.2c0.3,0.1,0.4,0.3,0.7,0.4c0,0.1,0,0.1,0,0.2c-0.2,0.1-0.4,0.1-0.7,0.1c-0.2,0-0.4,0-0.6,0c-0.2,0-0.3,0-0.5,0c-0.1,0-0.2-0.1-0.3-0.1C253.4,163.8,253.5,163.4,253.8,163.3z M249.4,162.4c0.3,0.1,0.4,0.1,0.7,0.2c0.3,0.1,0.4,0.3,0.7,0.4c0,0.1,0,0.1,0,0.2c-0.2,0.1-0.4,0.1-0.7,0.1c-0.2,0-0.3,0-0.6,0c-0.2,0-0.3,0-0.5,0c-0.1,0-0.2-0.1-0.3-0.1C249,162.9,249.1,162.5,249.4,162.4L249.4,162.4z M241.6,163.4c0.3,0.1,0.4,0.1,0.7,0.2c0.3,0.1,0.4,0.3,0.7,0.4c0,0.1,0,0.1,0,0.2c-0.2,0.1-0.4,0.1-0.7,0.1c-0.2,0-0.3,0-0.6,0c-0.2,0-0.3,0-0.5,0c-0.1,0-0.2-0.1-0.3-0.1C241.2,163.9,241.3,163.4,241.6,163.4z M237.5,149.9c-0.3-0.1-0.5-0.5-0.3-0.7c0.1-0.1,0.2-0.1,0.3-0.2c0.1-0.1,0.1-0.2,0.1-0.4s-0.1-0.3-0.1-0.4c0-0.2-0.1-0.3-0.1-0.5c0-0.3,0-0.5,0.2-0.7c0.1-0.1,0.3-0.3,0.4-0.3c0.1,0.1,0,0.2,0,0.4s0.1,0.3,0.1,0.5c0.1,0.3,0.2,0.4,0.3,0.6c0.1,0.2,0.2,0.4,0.2,0.6c0,0.2,0,0.3-0.1,0.5s-0.1,0.3-0.3,0.4c-0.1,0.1-0.2,0.1-0.4,0.2C237.7,150,237.6,150,237.5,149.9L237.5,149.9z" />
  <path fill="none" stroke="#703D29" stroke-width="0.3586" d="M185.7,104.8h37v36.9h-37V104.8z M226.6,104.8h37v36.9h-37V104.8z M185.8,173.7c0.1,0.7,0.3,1.8,1,3c0.7,1,0.4,1,1.9,2.7c0.7,0.8,1.9,1.5,2.8,2c0.9,0.5,1.6,0.7,3.1,1.1c2.9,0.8,5,0.8,7.5,0.7c1.9-0.1,3.4-0.3,4.6-0.5c1.7-0.2,3-0.4,5-0.5c1,0,1.9,0,2.8,0c1.1,0.1,2.2,0.2,3.3,0.5c2.4,0.5,4.9,1.4,4.9,1.4v-38.5h-37v26.3C185.7,172,185.8,173.3,185.8,173.7L185.8,173.7z M263.5,173.7c-0.1,0.7-0.3,1.8-1,3c-0.7,1-0.4,1-1.9,2.7c-0.7,0.8-1.9,1.5-2.8,2s-1.6,0.7-3.1,1.1c-2.9,0.8-5,0.8-7.5,0.7c-1.9-0.1-3.4-0.3-4.6-0.5c-1.7-0.2-3-0.4-5-0.5c-1,0-1.9,0-2.8,0c-1.1,0.1-2.2,0.2-3.3,0.5c-2.4,0.5-5,1.4-5,1.4v-38.5h37v26.3C263.6,172,263.5,173.2,263.5,173.7L263.5,173.7z" />
</svg>
