<svg xmlns="http://www.w3.org/2000/svg" width="450px" height="300px" viewBox="0 0 450 300">
  <path fill="#FFCB05" d="M0,0h450v300H0V0z" />
  <path fill="#EF3340" d="M0,0h450v200H0V0z" />
  <path fill="#00B5E2" d="M0,0h450v100H0V0z" />
  <path fill="#FFCB05" d="M250.974,177.034C242.763,187.943,229.706,195,215,195c-24.853,0-45-20.147-45-45c0-24.853,20.147-45,45-45c14.706,0,27.763,7.057,35.974,17.966c-6.74-6.477-15.888-10.466-25.974-10.466c-20.711,0-37.5,16.789-37.5,37.5s16.789,37.5,37.5,37.5C235.086,187.5,244.234,183.511,250.974,177.034z M260.216,138.452l-12.894-6.129l6.129,12.894L240,150l13.451,4.783l-6.129,12.895l12.894-6.129L265,175l4.783-13.451l12.894,6.129l-6.129-12.895L290,150l-13.452-4.783l6.129-12.894l-12.894,6.129L265,125L260.216,138.452z" />
</svg>
