<svg xmlns="http://www.w3.org/2000/svg" width="450px" height="300px" viewBox="0 0 450 300">
  <path fill="#FEFFFF" d="M0,0h450v300H0V0z" />
  <path fill="#036638" d="M366.534,0H450v300h-83.466V0z" />
  <path fill="#DE1818" d="M0,0h83.466v300H0V0z" />
  <path fill="#00298C" d="M145.079,139.967c0.114,89.322,76.471,87.536,79.719,100.127c3.168-12.018,78.827-7.649,80.098-99.747L145.079,139.967z M251.254,170.438l3.053,2.88l4.135-1.331l-0.004,0.032l-0.898,4.169l3.139,2.838l-4.027,1.266l-0.889,4.127l-3.224-2.819l-3.963,1.231l-0.034,0.01l0.921-4.115l-3.129-2.903l4.027-1.266L251.254,170.438z M237.339,158.163l4.152,0.622l2.635-3.454l0.015,0.029l1.642,3.935l4.199,0.539l-2.584,3.338l1.627,3.896l-4.256-0.474l-2.551,3.272l-0.022,0.028l-1.593-3.905l-4.225-0.598l2.583-3.338L237.339,158.163z M188.48,178.126l3.183-2.838l-0.864-4.143l3.999,1.35l3.15-2.811l0.943,4.177l3.927,1.341l0.034,0.012l-3.17,2.781l0.817,4.189l-3.999-1.35l-3.148,2.804l-0.769-4.126l-4.125-1.362L188.48,178.126z M197.357,201.754l-2.987-2.949l-4.165,1.237l0.006-0.032l0.993-4.148l-3.074-2.909l4.055-1.174l0.981-4.106l3.16,2.892l3.989-1.14l0.035-0.01l-1.016,4.094l3.061,2.973l-4.054,1.174L197.357,201.754z M212.382,214.913l-4.167-0.504l-2.537,3.527l-0.015-0.029l-1.753-3.887l-4.211-0.419l2.488-3.41l-1.737-3.848l4.268,0.353l2.457-3.343l0.021-0.029l1.702,3.859l4.242,0.476l-2.488,3.41L212.382,214.913z M209.271,165.915l-1.607,3.954l-2.609-3.318l-4.169,0.626l1.612-3.876l-2.708-3.397l0.032-0.006l4.216-0.636l1.543-3.941l2.61,3.318l4.175-0.63l-1.496,4.013l2.553,3.269l0.023,0.029L209.271,165.915z M221.081,149.995l0.028,0.014l3.708,2.107l3.649-2.143v4.221l3.671,2.086l-3.656,2.23l-0.015,4.149v0.037l-3.649-2.114l-3.708,2.114v-4.221l-3.663-2.086l3.664-2.049L221.081,149.995z M228.533,223.259l-0.029-0.014l-3.71-2.102l-3.646,2.148l-0.005-4.221l-3.674-2.08l3.654-2.235l0.009-4.149v-0.036l3.652,2.109l3.704-2.119l0.005,4.221l3.666,2.081l-3.66,2.054L228.533,223.259z M248.673,214.577l-4.246,0.392l-1.768,3.845l-2.414-3.462l-4.204,0.389l1.724-3.92l-2.361-3.411l-0.021-0.03l4.203-0.353l1.832-3.854l2.414,3.462l4.198-0.385l-1.833,3.776l2.508,3.547L248.673,214.577z M260.659,194.195l-3.118,2.909l0.956,4.122l-4.028-1.26l-3.086,2.88l-1.037-4.156l-3.955-1.253l-0.035-0.011l3.108-2.851l-0.91-4.169l4.028,1.26l3.085-2.873l0.861,4.108l4.155,1.27L260.659,194.195z" />
  <path fill="#DE1818" d="M271.481,95.946V84.028h11.74v11.918H271.481z M247.58,108.031v11.953h11.725v-11.953H247.58z M298.404,108.112l-0.009,0.092c-1.499,14.597-17.145,27.934-32.825,27.982c-8.443-0.03-18.988-4.871-25.653-11.771c-4.861-5.034-7.338-10.715-7.16-16.431l-0.419-39.004h65.646L298.404,108.112z M296.279,108.031H283.22V95.946h12.962l0.001-11.925l-12.964,0.007V71.227h-11.74v12.801h-12.176V71.227H247.58v12.801h-12.81v11.918h12.81v12.085h-12.647c0.043,2.273,0.419,4.147,1.071,6.254c1.035,2.225,1.682,3.862,3.103,5.699h8.472v7.801c2.637,1.667,5.921,3.364,8.891,4.533h2.834v-12.333h12.176v12.333h3.404c3.234-0.953,5.712-2.615,8.336-4.343v-7.99h8.131c1.124-1.31,2.441-4.038,2.902-4.942C294.715,114.138,295.986,110.394,296.279,108.031z M259.305,84.028H247.58v11.918h11.725V84.028z M259.305,95.946v12.085h12.176V95.946H259.305z M271.481,108.031v11.953h11.74v-11.953H271.481z" />
  <path fill="#036638" d="M153.382,71.041h62.709v31.02c-2.025,17.385-18.906,31.674-32.073,33.119c-14.081-2.528-29.555-17.436-30.637-33.119L153.382,71.041L153.382,71.041z" />
  <path fill="#DEC200" d="M152.397,70.056l0.002,32.074c1.134,16.443,17.537,31.523,31.445,34.021l0.14,0.025l0.142-0.015c13.86-1.521,30.893-16.378,32.944-33.984l0.007-32.12L152.397,70.056L152.397,70.056z M215.106,102.004c-1.968,16.629-17.971,30.657-31.054,32.181c-13.165-2.445-28.618-16.68-29.685-32.124V72.026h60.739V102.004z M306.948,138.3V61.291H143.026l-0.001,76.62l0.052,5.656c1.586,64.274,43.362,80.693,65.997,89.585c6.76,2.655,13.146,5.164,13.736,7.455l1.965,6.423l2.007-6.412c0.537-2.037,6.569-4.206,12.955-6.502c22.925-8.244,65.397-23.528,67.162-91.712L306.948,138.3z M147.13,65.396h155.712v72.894l-155.712-0.369L147.13,65.396L147.13,65.396z M238.349,230.253c-6.205,2.231-10.909,3.923-13.491,6.205c-2.643-2.554-7.639-4.517-14.283-7.127c-11.528-4.528-27.317-10.731-40.299-23.872c-14.943-15.126-22.72-36.461-23.128-63.434l155.654,0.369C301.062,207.707,260.334,222.348,238.349,230.253z M186.965,123.567l0.579-4.006l1.89,0.058v-2.631l-1.59,0.016l0.529-3.498l6.02,0.078l-0.007-2.876h-4.797c3.296-5.645,7.75-5.495,10.078-3.649c1.516,2.025,1.407,4.481-0.484,6.526c3.013,0.271,7.189-1.029,7.654-6.809c-0.019-3.361-3.922-9.494-12.173-5.92c-4.252,1.825-6.094,5.86-6.846,9.541c-0.095,0.467-0.833,0.085-0.99,0.247c-0.696-6.439,5.107-14.047,5.307-21.466c-0.426-8.574-5.635-9.948-7.791-13.973c-2.155,4.025-7.365,5.4-7.791,13.973c0.2,7.419,6.004,15.027,5.307,21.466c-0.157-0.162-0.895,0.22-0.99-0.247c-0.751-3.682-2.593-7.717-6.846-9.541c-8.251-3.574-12.154,2.559-12.173,5.92c0.464,5.78,4.641,7.08,7.654,6.809c-1.89-2.045-2-4.5-0.484-6.526c2.329-1.845,6.782-1.995,10.078,3.649h-4.797l-0.007,2.876l6.02-0.078l0.529,3.498l-1.59-0.016v2.631l1.89-0.058l0.579,4.006L186.965,123.567L186.965,123.567z" />
</svg>
