<svg xmlns="http://www.w3.org/2000/svg" width="450px" height="300px" viewBox="0 0 450 300">
  <path fill="#009B3A" d="M0,0h450v300H0V0z" />
  <path fill="#FEDF00" d="M47.1,150L225,263.6L402.9,150L225,36.4L47.1,150z" />
  <path fill="#002776" d="M225,75c41.421,0,75,33.579,75,75s-33.579,75-75,75s-75-33.579-75-75S183.579,75,225,75z" />
  <path fill="#FFFFFF" d="M182.1,117.9c44.6,0,85.5,16,117.1,42.7c-0.6,4.1-1.5,8-2.7,11.9c-30.4-27.2-70.5-43.8-114.5-43.8c-10.1,0-20.1,0.9-29.8,2.6c1-4,2.4-7.8,4-11.5C164.8,118.5,173.4,117.9,182.1,117.9z M164.5,135.5l-0.7-2.2l-0.7,2.2h-2.3l1.9,1.4l-0.7,2.2l1.9-1.4l1.9,1.4l-0.7-2.2l1.9-1.4H164.5z M173.5,167.1l-1.9,1.4l0.7,2.2l-1.9-1.4l-1.9,1.4l0.7-2.2l-1.9-1.4h2.3l0.7-2.2l0.7,2.2H173.5z M163.8,174l-1.6,1.1l0.6,1.9l-1.6-1.1l-1.6,1.1l0.6-1.9l-1.6-1.1h1.9l0.6-1.9l0.6,1.9H163.8z M179.2,163l-0.9,0.7l0.3,1.1l-0.9-0.7l-0.9,0.7l0.3-1.1l-0.9-0.7h1.1l0.3-1.1l0.3,1.1H179.2z M188.6,174.7l-1.6,1.1l0.6,1.9l-1.6-1.1l-1.6,1.1l0.6-1.9l-1.6-1.1h1.9l0.6-1.9l0.6,1.9H188.6z M185.8,182.3l-1.3,0.9l0.5,1.5l-1.3-0.9l-1.3,0.9l0.5-1.5l-1.3-0.9h1.6l0.5-1.5l0.5,1.5H185.8z M251.3,125.7l-1.9,1.4l0.7,2.2l-1.9-1.4l-1.9,1.4l0.7-2.2l-1.9-1.4h2.3l0.7-2.2l0.7,2.2C248.8,125.7,251.3,125.7,251.3,125.7z M274.5,175.3h2.3l0.7-2.2l0.7,2.2h2.3l-1.9,1.4l0.7,2.2l-1.9-1.4l-1.9,1.4l0.7-2.2L274.5,175.3z M289.2,178.8l-1.3-0.9l-1.3,0.9l0.5-1.5l-1.3-0.9h1.6l0.5-1.5l0.5,1.5h1.6l-1.3,0.9L289.2,178.8z M283.2,182.1l-1.6,1.1l0.6,1.9l-1.6-1.1l-1.6,1.1l0.6-1.9l-1.6-1.1h1.9l0.6-1.9l0.6,1.9H283.2z M263.2,197.8h1.9l-1.6,1.1l0.6,1.9l-1.6-1.1l-1.6,1.1l0.6-1.9l-1.6-1.1h1.9l0.6-1.9L263.2,197.8z M264.5,205.6l-1.3,0.9l0.5,1.5l-1.3-0.9l-1.3,0.9l0.5-1.5l-1.3-0.9h1.6l0.5-1.5l0.5,1.5H264.5z M272,192.1l-1.3,0.9l0.5,1.5l-1.3-0.9l-1.3,0.9l0.5-1.5l-1.3-0.9h1.6l0.5-1.5l0.5,1.5H272z M278.6,188.2l-1.6,1.1l0.6,1.9L276,190l-1.6,1.1l0.6-1.9l-1.6-1.1h1.9l0.6-1.9l0.6,1.9h2.1V188.2z M260.2,190.7h1.6l0.5-1.5l0.5,1.5h1.6l-1.3,0.9l0.5,1.5l-1.3-0.9l-1.3,0.9l0.5-1.5L260.2,190.7z M199,152.2l-1.6,1.1l0.6,1.9l-1.6-1.1l-1.6,1.1l0.6-1.9l-1.6-1.1h1.9l0.6-1.9l0.6,1.9H199z M244.1,148l0.5-1.5l-1.3-0.9h1.6l0.5-1.5l0.5,1.5h1.6l-1.3,0.9l0.5,1.5l-1.3-0.9L244.1,148z M228.1,182.7l-1.9,1.4l0.7,2.2l-1.9-1.4l-1.9,1.4l0.7-2.2l-1.9-1.4h2.3l0.7-2.2l0.7,2.2H228.1z M236.2,167.9l-1.6,1.1l0.6,1.9l-1.6-1.1l-1.6,1.1l0.6-1.9l-1.6-1.1h1.9l0.6-1.9l0.6,1.9H236.2z M222.5,161.2h1.9l0.6-1.9l0.6,1.9h1.9l-1.6,1.1l0.6,1.9l-1.6-1.1l-1.6,1.1l0.6-1.9L222.5,161.2z M219.5,168.1l-1.3,0.9l0.5,1.5l-1.3-0.9l-1.3,0.9l0.5-1.5l-1.3-0.9h1.6l0.5-1.5l0.5,1.5H219.5z M220.3,175.2l0.3-1.1l-0.9-0.7h1.1l0.3-1.1l0.3,1.1h1.1l-0.9,0.7l0.3,1.1l-0.9-0.7L220.3,175.2z M250,199.7l-1.6,1.1l0.6,1.9l-1.6-1.1l-1.6,1.1l0.6-1.9l-1.6-1.1h1.9l0.6-1.9l0.6,1.9H250z M255.9,193.2l-1.3,0.9l0.5,1.5l-1.3-0.9l-1.3,0.9l0.5-1.5l-1.3-0.9h1.6l0.5-1.5l0.5,1.5H255.9z M243.6,191.4l-1.3,0.9l0.5,1.5l-1.3-0.9l-1.3,0.9l0.5-1.5l-1.3-0.9h1.6l0.5-1.5l0.5,1.5H243.6z M198,188.8l-1.9,1.4l0.7,2.2l-1.9-1.4l-1.9,1.4l0.7-2.2l-1.9-1.4h2.3l0.7-2.2l0.7,2.2H198z M225.6,209.5L225,209l-0.6,0.5l0.2-0.7l-0.6-0.5h0.8l0.2-0.7l0.2,0.7h0.8l-0.6,0.5L225.6,209.5z" />
  <path fill="#009B3A" d="M209.9,122.5l5.2,0.9l-0.2,1.2l-3.9-0.7l-0.2,1.1l3.3,0.6l-0.2,1.2l-3.3-0.6l-0.3,1.6l4.1,0.7l-0.2,1.2l-5.3-0.9L209.9,122.5z M197.4,125.2l-1-5l-1.8-0.2l-0.6,7.1l1.2,0.1l0.4-4.9l1,5l1.1,0.1l1.9-4.8l-0.4,4.9l1.2,0.1l0.6-7.1l-1.8-0.2L197.4,125.2z M163.8,124.1c0.2,2-1,3.7-2.8,3.9c-1.8,0.2-3.4-1.2-3.6-3.2c-0.2-2,1-3.7,2.8-3.9C161.9,120.8,163.5,122.2,163.8,124.1z M162.5,124.3c-0.2-1.2-1.1-2.1-2.1-2s-1.8,1.2-1.6,2.5c0.2,1.2,1.1,2.1,2.1,2C161.9,126.6,162.6,125.5,162.5,124.3z M186.3,123.7l4.1,0.1v-1.2l-4.1-0.1v-1.4l4.9,0.2V120l-6.1-0.2l-0.2,7.1l6.4,0.2v-1.3l-5.2-0.2L186.3,123.7z M172,124.1c0.8,0.6,0.9,2.1,0.9,2.9l-1.2,0.1c0-0.7-0.1-1.9-0.9-2.6l-2.8,0.2l0.2,2.6l-1.3,0.1l-0.4-7.1l4.1-0.3c1.2-0.1,2.3,0.8,2.4,2.1C173,122.9,172.6,123.7,172,124.1z M171.5,122.2c0-0.5-0.5-0.9-1-0.9l-2.7,0.2l0.1,1.8l2.7-0.2C171.2,123.1,171.5,122.7,171.5,122.2z M182.3,122.7v1c0,1.7-1.3,3.1-3,3.1l-3.4,0.1l-0.1-7.1l3.4-0.1C180.8,119.6,182.2,121,182.3,122.7z M181.1,123.5v-0.6c0-1.1-0.9-1.9-2-1.9h-1.9l0.1,4.5h1.9C180.2,125.5,181.1,124.6,181.1,123.5z M279.3,148.1c-0.8-0.5-2.8-1.9-4-0.1c-1.4,2.1,3.1,3.9,2.3,5.2c-0.2,0.4-0.8,0.4-1.7-0.1c-0.9-0.5-1.2-1.2-0.9-1.8l-1.4-0.9c-1,1.5,0.5,3,1.5,3.6c1.2,0.7,2.9,1.4,3.9-0.1c1.4-2.1-3.1-4-2.4-5c0.4-0.6,0.9-0.4,1.6,0s1.1,1.1,0.7,1.7l1.3,0.8C281.3,149.8,280.1,148.5,279.3,148.1z M287.1,153.3c-0.7-0.5-2.7-2.1-4-0.3c-1.5,2.1,2.9,4.1,2.1,5.3c-0.3,0.4-0.9,0.4-1.7-0.2c-0.8-0.6-1.2-1.3-0.8-1.9l-1.3-0.9c-1,1.5,0.4,3,1.3,3.7c1.1,0.8,2.8,1.6,3.9,0.1c1.5-2.1-2.9-4.2-2.1-5.1c0.4-0.6,1-0.4,1.6,0.1c0.7,0.5,1.1,1.1,0.6,1.7l1.3,0.9C289,155.2,287.9,153.9,287.1,153.3z M229.9,128.4c-0.3,1.2-1.5,1.9-2.7,1.6l-2.8-0.7l-0.7,2.6l-1.3-0.3l1.9-6.9l4,1C229.4,125.9,230.2,127.2,229.9,128.4z M227.8,126.9l-2.7-0.7l-0.5,1.8l2.7,0.7c0.5,0.1,1-0.2,1.1-0.7C228.6,127.5,228.3,127,227.8,126.9z M294.7,163.6c-1.2,1.5-3.3,1.9-4.7,0.8c-1.4-1.1-1.5-3.3-0.3-4.8s3.3-1.9,4.7-0.8C295.8,160,295.9,162.1,294.7,163.6z M293.6,159.9c-0.8-0.6-2.1-0.4-2.9,0.6s-0.7,2.3,0.1,2.9c0.8,0.6,2.1,0.4,2.9-0.6C294.4,161.9,294.4,160.5,293.6,159.9z M264.5,142c-0.4,0.7-1.1,1.2-1.8,1.2c0.4,0.9-0.3,2.3-0.7,3l-1.1-0.5c0.3-0.6,0.9-1.7,0.6-2.7l-2.5-1.3l-1.2,2.4l-1.2-0.6l3.3-6.3l3.7,1.8C264.6,139.6,265,140.9,264.5,142z M262.8,140.2l-2.5-1.2l-0.8,1.6l2.5,1.2c0.5,0.2,1,0,1.2-0.4C263.4,140.9,263.3,140.4,262.8,140.2z M272.8,145.6l0.7-1.2l-5.3-3l-3.5,6.2l5.6,3.2l0.7-1.2l-4.5-2.6l0.9-1.6l3.6,2l0.6-1.1l-3.6-2l0.7-1.2L272.8,145.6z M238.8,131.1c-0.2,0.8-0.9,1.3-1.6,1.5c0.5,0.8,0,2.3-0.2,3.1l-1.2-0.4c0.2-0.7,0.6-1.8,0.2-2.7l-2.7-0.9l-0.8,2.5l-1.3-0.4l2.2-6.8l3.9,1.2C238.5,128.7,239.1,129.9,238.8,131.1z M236.8,129.5l-2.6-0.8l-0.6,1.8l2.6,0.8c0.5,0.2,1-0.1,1.2-0.6C237.6,130.2,237.3,129.7,236.8,129.5z M254.1,134.6L254.1,134.6c-1.6-0.7-3.6,0.2-4.4,2c-0.8,1.8-0.1,3.8,1.5,4.6c0.8,0.3,1.6,0.3,2.4,0l-0.4,0.9l0.9,0.4l1.4-3.3l-2.5-1.1l-0.4,0.9l1.1,0.5c-0.6,0.5-1.4,0.7-2,0.5c-1-0.4-1.3-1.7-0.8-2.8s1.7-1.7,2.6-1.3c0.6,0.3,1,0.9,1,1.6l1.3,0.6C256,136.5,255.3,135.2,254.1,134.6z M247.1,135.5c-0.7,1.8-2.6,2.8-4.3,2.2s-2.5-2.6-1.8-4.5c0.7-1.8,2.6-2.8,4.3-2.2C247,131.7,247.8,133.7,247.1,135.5z M244.8,132.3c-1-0.4-2.1,0.3-2.6,1.4s0,2.4,1,2.8c1,0.4,2.1-0.3,2.6-1.4C246.3,133.9,245.8,132.7,244.8,132.3z" />
</svg>
