<svg xmlns="http://www.w3.org/2000/svg" width="450px" height="300px" viewBox="0 0 450 300">
  <path fill="#FFFFFF" d="M0,0h450v300H0V0z" />
  <path fill="#CE1720" d="M70,0v2.267h-2.6v6H70V19h-2.6v-4.333h-2.667V9.4H61V4.8h-3.067V0h-9.267v4.8h-3v4.6h-3.733v5.267h-2.667V19h-1.133H35.2h-1.133v-4.333H31.4V9.4h-3.733V4.8h-3V0H15.4v4.8h-3.067v4.6H8.6v5.267H5.933V19h-2.6V8.267h2.6v-6h-2.6V0H0v300h3.333v-2.267h2.6v-6h-2.6V281h2.6v4.333H8.6v5.267h3.733v4.6H15.4v4.8h9.267v-4.8h3v-4.6H31.4v-5.267h2.667V281H35.2h2.933h1.133v4.333h2.667v5.267h3.733v4.6h3v4.8h9.267v-4.8H61v-4.6h3.733v-5.267H67.4V281H70v10.733h-2.6v6H70V300h380V0H70z M46.8,19.267h2.6v-5.133H52v-4.067h2.733v4.067h2.6v5.133h2.533V25.6h-2.533v5.133h-2.6v4H52v-4h-2.6V25.6h-2.6C46.8,25.6,46.8,19.267,46.8,19.267z M13.467,19.267H16v-5.133h2.6v-4.067h2.733v4.067h2.6v5.133h2.6V25.6h-2.6v5.133h-2.6v4H18.6v-4H16V25.6h-2.533V19.267z M5.933,25.733v4.333H8.6v5.267h3.733v4.6H15.4v4.933h2.133V49h5v-4.133h2.133v-4.933h3v-4.6H31.4v-5.267h2.667v-4.333H35.2h2.933h1.133v4.333h2.667v5.267h3.733v4.6h3v4.933H50.8V49h5v-4.133h2.133v-4.933H61v-4.6h3.733v-5.267H67.4v-4.333H70v9.333h-2.6v6.467H70V55h-2.6v-4.667h-3.2V45.8h-3.667v4.533h-3.2V55h-2.667v6.133h2.667v4.733h3.2V70.4H64.2v-4.533h3.2v-4.733H70v10.933h-2.6v6.467H70V93h-2.6v-5.467h-2v-4.2h-1.867v-4.8h-2.667V73.8h-2.6v-3.133h-3.133v-4.733h-3.8v4.733H48.2V73.8h-2.667v4.733h-2.6v4.8H40.8v4.133h-2.133v3.6h-0.533H35.2h-0.533v-3.6h-2.133v-4.133H30.4v-4.8h-2.6V73.8h-2.667v-3.133H22v-4.733h-3.8v4.733h-3.133V73.8h-2.6v4.733H9.8v4.8H7.933v4.2h-2V93h-2.6V78.533h2.6v-6.467h-2.6V61.133h2.6v4.733h3.2V70.4H12.8v-4.533H16v-4.733h2.667V55H16v-4.667h-3.2V45.8H9.133v4.533h-3.2V55h-2.6V41.533h2.6v-6.467h-2.6v-9.333C3.333,25.733,5.933,25.733,5.933,25.733z M63.667,55.133v5.8h-2.733v-5.8H63.667z M70,117.4v7.8h-2.6v3.067h-2.267v4.467h-3v5.333h-4.267v-4.8h-3.133v-3.533h-2.267v-4.2h-3v-4.467h-2.2v-4.533h-2.133v-4.667h-2.867V105.6h3.8v-5.667H50.2v-3.4h6.933v4.933h-4v4.467H55.8v5.467h3.133v4.8h3.933v-4.8h3.267v-5.467h2v-4.467H70v9.467h-2.6v6.467H70L70,117.4z M70,189.067v9.467h-1.867v-4.467h-2V188.6h-3.267v-4.8h-3.933v4.8H55.8v5.467h-2.667v4.467h4v4.933H50.2v-3.4h-4.133V194.4h-3.8v-6.267h2.867v-4.667h2.133v-4.533h2.2v-4.467h3v-4.2h2.267v-3.533h3.133v-4.8h4.267v5.333h3v4.467H67.4v3.067H70v7.8h-2.6v6.467L70,189.067L70,189.067z M33.067,178v-4.667h-2.933V168.8h-1.8v-3.333h-1.867v-3.533h-3.2v-3.467h-4.6V151.2v-2.4v-7.267h4.6v-3.467h3.2v-3.533h1.867V131.2h1.8v-4.533h2.933V122H34.2v-4.467h1h2.933h1V122h1.133v4.667H43.2v4.533H45v3.333h1.867v3.533h3.2v3.467h4.6v7.267v2.4v7.267h-4.6v3.467h-3.2v3.533H45v3.333h-1.8v4.533h-2.933V178h-1.133v4.467h-1H35.2h-1V178H33.067z M17.533,194.067V188.6H14.4v-4.8h-3.933v4.8H7.2v5.467h-2v4.467H3.333v-9.467h2.6V182.6h-2.6v-7.8h2.6v-3.067H8.2v-4.467h3v-5.333h4.267v4.8H18.6v3.533h2.267v4.2h3v4.467h2.2v4.533H28.2v4.667h2.867v6.267h-3.8v5.667h-4.133v3.4H16.2v-4.933h4v-4.467L17.533,194.067L17.533,194.067z M3.333,110.933v-9.467H5.2v4.467h2v5.467h3.267v4.8H14.4v-4.8h3.133v-5.467H20.2v-4.467h-4v-4.933h6.933v3.4h4.133v5.667h3.8v6.267H28.2v4.667h-2.133v4.533h-2.2v4.467h-3v4.2H18.6v3.533h-3.133v4.8H11.2v-5.333h-3v-4.467H5.933V125.2h-2.6v-7.8h2.6v-6.467L3.333,110.933L3.333,110.933z M5.933,135.867v4.6H8.2v2.867h3v4.733h2.267v0.733v2.4v0.733H11.2v4.733h-3v2.867H5.933v4.6h-2.6v-28.267L5.933,135.867L5.933,135.867z M67.4,164.133v-4.6h-2.267v-2.867h-3v-4.733h-2.267V151.2v-2.4v-0.733h2.267v-4.733h3v-2.867H67.4v-4.6H70v28.267L67.4,164.133L67.4,164.133z M9.667,60.933v-5.8H12.4v5.8H9.667z M26.533,280.733h-2.6v5.133h-2.6v4.067H18.6v-4.067H16v-5.133h-2.533V274.4H16v-5.133h2.6v-4h2.733v4h2.6v5.133h2.6V280.733z M59.867,280.733h-2.533v5.133h-2.6v4.067H52v-4.067h-2.6v-5.133h-2.6V274.4h2.6v-5.133H52v-4h2.733v4h2.6v5.133h2.533L59.867,280.733L59.867,280.733z M67.4,274.267v-4.333h-2.667v-5.267H61v-4.6h-3.067v-4.933H55.8V251h-5v4.133h-2.133v4.933h-3v4.6h-3.733v5.267h-2.667v4.333h-1.133H35.2h-1.133v-4.333H31.4v-5.267h-3.733v-4.6h-3v-4.933h-2.133V251h-5v4.133H15.4v4.933h-3.067v4.6H8.6v5.267H5.933v4.333h-2.6v-9.333h2.6v-6.467h-2.6V245h2.6v4.667h3.2v4.533H12.8v-4.533H16V245h2.667v-6.133H16v-4.733h-3.2V229.6H9.133v4.533h-3.2v4.733h-2.6v-10.933h2.6v-6.467h-2.6V207h2.6v5.467h2v4.2H9.8v4.8h2.667v4.733h2.6v3.133H18.2v4.733H22v-4.733h3.133V226.2H27.8v-4.733h2.6v-4.8h2.133v-4.133h2.133v-3.6H35.2h2.933h0.533v3.6H40.8v4.133h2.133v4.8h2.6v4.733H48.2v3.133h3.133v4.733h3.8v-4.733h3.133V226.2h2.6v-4.733h2.667v-4.8H65.4v-4.2h2V207H70v14.467h-2.6v6.467H70v10.933h-2.6v-4.733h-3.2V229.6h-3.667v4.533h-3.2v4.733h-2.667V245h2.667v4.667h3.2v4.533H64.2v-4.533h3.2V245H70v13.467h-2.6v6.467H70v9.333L67.4,274.267L67.4,274.267z M9.667,244.867v-5.8H12.4v5.8H9.667z M63.667,239.067v5.8h-2.733v-5.8H63.667z M55,25.333h-3.267v-6H55V25.333z M38.133,44.8H35.2v-9.133h2.933V44.8z M35.2,70.333h2.933v9.133H35.2V70.333z M24,65.867h3.2V70.4h3.733v-4.533h3.2v-4.733H35.2h2.933H39.2v4.733h3.2V70.4h3.733v-4.533h3.2v-4.733H52V55h-2.667v-4.667h-3.2V45.8H42.4v4.533h-3.2V55h-1.067H35.2h-1.067v-4.667h-3.2V45.8H27.2v4.533H24V55h-2.667v6.133H24V65.867z M42.867,55.133H45.6v5.8h-2.733C42.867,60.933,42.867,55.133,42.867,55.133z M27.733,55.133h2.733v5.8h-2.733V55.133z M35.2,289.133h2.933V300H35.2V289.133z M38.133,10.867H35.2V0h2.933V10.867z M21.6,25.333h-3.267v-6H21.6V25.333z M38.133,229.667H35.2v-9.133h2.933V229.667z M18.333,274.667H21.6v6h-3.267V274.667z M51.733,274.667H55v6h-3.267V274.667z M49.6,153.133h-2.8v-2v-2.267v-2h2.8v2v2.267V153.133z M49.333,234.133h-3.2V229.6H42.4v4.533h-3.2v4.733h-1.067H35.2h-1.067v-4.733h-3.2V229.6H27.2v4.533H24v4.733h-2.667V245H24v4.667h3.2v4.533h3.733v-4.533h3.2V245H35.2h2.933H39.2v4.667h3.2v4.533h3.733v-4.533h3.2V245H52v-6.133h-2.667V234.133z M30.467,244.867h-2.733v-5.8h2.733V244.867z M45.6,244.867h-2.733v-5.8H45.6V244.867z M35.2,255.2h2.933v9.133H35.2V255.2z M38,166.8h0.133v5.867H38h-2.667H35.2V166.8h0.133H38z M23.733,146.867h2.8v2v2.267v2h-2.8v-2v-2.267V146.867z M35.333,133.2H35.2v-5.867h0.133H38h0.133v5.867H38H35.333z M35.067,160.467H32.4v3.467h-2.533v-8.6H32.4v-2.867h1.733V151.2v-2.4v-1.267H32.4v-2.867h-2.533v-8.6H32.4v3.467h2.667v5.067h0.267H38h0.267v-5.067h2.667v-3.467h2.533v8.6h-2.533v2.867H39.2v1.267v2.4v1.267h1.733v2.867h2.533v8.6h-2.533v-3.467h-2.667V155.4H38h-2.667h-0.267L35.067,160.467L35.067,160.467z" />
  <path fill="#007C30" d="M70,200h380v100H70V200z" />
</svg>
