<svg xmlns="http://www.w3.org/2000/svg" width="450px" height="300px" viewBox="0 0 450 300">
  <path fill="#008000" d="M0,0h450v300H0V0z" />
  <path fill="#FFE000" d="M256.567,184.651c-8.33,7.593-19.407,12.224-31.567,12.224c-25.888,0-46.875-20.987-46.875-46.875s20.987-46.875,46.875-46.875c12.16,0,23.237,4.631,31.567,12.224c-5.117-2.508-10.868-3.921-16.951-3.921c-21.302,0-38.571,17.269-38.571,38.571s17.269,38.571,38.571,38.571C245.699,188.571,251.45,187.159,256.567,184.651z M28.125,103.125c0,27.121,21.986,49.107,49.107,49.107s49.107-21.986,49.107-49.107s-21.986-49.107-49.107-49.107S28.125,76.004,28.125,103.125z M353.168,228.576l-10.084,0.877l1.389,10.026l-6.973-7.337l-6.973,7.337l1.389-10.026l-10.084-0.877l8.705-5.166l-5.601-8.431l9.466,3.585l3.099-9.636l3.099,9.636l9.466-3.585l-5.601,8.431L353.168,228.576z M288.214,134.348l5.601-8.431l-9.466,3.585l-3.099-9.636l-3.099,9.636l-9.466-3.585l5.601,8.431l-8.705,5.166l10.084,0.877l-1.389,10.026l6.973-7.337l6.973,7.337l-1.389-10.026l10.084-0.877L288.214,134.348z M331.915,79.453l-1.389,10.026l6.973-7.337l6.973,7.337l-1.389-10.026l10.084-0.877l-8.705-5.166l5.601-8.431l-9.466,3.585l-3.099-9.636l-3.099,9.636l-9.466-3.585l5.601,8.431l-8.705,5.166L331.915,79.453z M403.168,124.514l-8.705-5.166l5.601-8.431l-9.466,3.585l-3.099-9.636l-3.099,9.636l-9.466-3.585l5.601,8.431l-8.705,5.166l10.084,0.877l-1.389,10.026l6.973-7.337l6.973,7.337l-1.389-10.026L403.168,124.514z M362.449,156.004L360,150l-2.449,6.004l-6.467,0.474l4.953,4.185l-1.548,6.297l5.51-3.418l5.51,3.418l-1.548-6.297l4.953-4.185L362.449,156.004z" />
  <path fill="#802000" stroke="#7B3100" stroke-width="1.0417" stroke-miterlimit="10" d="M73.844,140.152h12.262c0,0,0.553-1.124-0.123-1.686c-0.677-0.562-3.314-0.686-2.601-2.674c1.465-4.087,1.669-2.827,2.589-12.534s1.362-24.933,1.362-24.933h-1.771c0,0,0.341,4.734-0.681,10.9s-1.328,6.71-2.452,11.444c-1.124,4.734-1.294,5.143-2.316,7.902c-1.022,2.759-1.124,2.895-2.725,5.45c-1.601,2.555-1.022,1.601-1.907,3.134c-0.443,0.766-0.988,0.562-1.286,1.12C73.895,138.832,73.844,140.151,73.844,140.152L73.844,140.152z" />
  <path fill="#008000" d="M83.201,67.348c0.102,1.905-0.09,4.426-0.879,6.478c-0.8,2.286-1.671,4.566-1.628,6.933c-1.272,0.433-2.584-2.753-3.809-0.879c0.921,2.59,3.046,4.641,4.503,6.974c0.246,0.723,2.341,2.612,1.129,3.052c-3.06-1.047-3.802-4.925-5.7-7.279c-2.204-3.962-6.314-6.763-10.893-6.956c-1.72,0.045-7.312-0.426-5.857,2.519c2.143,1.457,4.783,2.407,6.899,4.042c1.576,0.147,4.433,2.779,4.267,3.773c-2.772-1.123-4.07-2.469-7.057-3.65c-4.047-1.563-9.646-0.623-11.886,3.394c-0.418,1.046-1.034,4.095,0.279,4.386c1.535-2.397,3.731-5.076,6.984-4.357c2.556,0.2-2.852,4.761-0.783,3.843c0.655-0.291,2.169-1.284,3.219-1.388c1.05-0.104,1.636,0.682,2.433,0.791c1.593,0.217,2.032,0.885,1.884,1.274c-0.174,0.458-0.68,0.067-2.3,0.581c-0.81,0.257-1.233,0.968-2.177,1.294c-0.945,0.326-2.91,0.349-3.644,0.06c-2.569-1.116-6.781-0.922-7.582,2.298c-0.001,1.416-1.261-0.156-1.843,0.455c-0.437,1.545-0.55,3.131-2.841,2.991c-1.391,1.459-2.815,2.97-4.581,4.008c1.036,2.379,5.143-2.389,4.951-0.379c-1.795,2.448,0.924,2.963,2.114,1.079c2.013-2.127,4.506-4.716,7.509-2.572c1.431,1.347,2.262-0.712,3.297-0.602c0.652,1.673,1.473,0.082,2.214-0.391c1.212-0.151,0.871,1.514,2.311,0.488c2.87-1.9,6.401-0.303,9.205-2.152c2.984-1.36,0.419,1.095-0.405,2.055c-1.311,2.543-0.174,5.882-3.018,7.462c-1.143,3.031,1.35,7.027-1.192,9.269c-0.37,1.406,3.269,1.245,4.291,1.823c1.79,0.071-0.077-4.096,1.699-4.655c2.381,1.474,2.27-2.636,1.778-3.904c0.231-2.882,0.393-6.033,1.826-8.643c1.522-3.199,2.932,1.303,1.227,2.57c-0.968,2.942-2.377,6.623-0.176,9.359c0.634,0.142,1.155,1.68,1.977,2.152c0.821,0.473,1.943-0.12,2.148-1.519c1.054-4.213,0.523-8.743,2.027-12.841c1.062-1.269,2.527-0.205,3.185,0.962c2.108,2.448,3.591,5.508,6.143,7.525c2.324,1.088,4.38,2.733,5.451,5.125c-0.014,1.846,5.243,2.129,3.672,0.077c-1.507-1.998-0.513-3.996,1.014-5.324c0.818,0.202,0.576-1.263-0.065-0.684c-1.027-0.242-1.092-2.121,0.335-1.228c2.403,0.776-0.187-1.739-1.056-1.817c-2.032-1.26-4.367-2.709-5.366-4.898c2.645,0.027,5.392,1.454,8.095,0.569c2.167-1.113,4.365,0.093,5.121,2.003c1.675-0.267,0.961-1.947,0-2.507c1.225-0.506,2.072-1.554,0.587-2.478c-0.785-1.024,1.052-2.77-1.205-2.697c0.074-1.724-0.605-3.302-2.485-3.898c-1.883-1.595-7.408,2.349-7.248-1.245c-0.557-1.956,2.245-0.261,3.027-1.237c0.809-2.062-3.854-1.861-2.316-3.46c1.005-0.647,5.721-1.577,2.023-2.269c-1.846,0.507-3.43,0.132-4.883-0.782c-1.324,2.214-5.104-1.203-4.431,2.734c-0.517,1.483-3.896,5.338-4.811,2.385c0.778-2.315,4.781-3.071,3.54-6.192c-0.191-1.948-1.806,0.339-2.567,0.194c-0.385-1.213,1.165-2.642,2.246-2.93c2.145,1.649,2.21-2.081,4.249-1.777c1.489-0.331-0.481-0.97-0.896-1.25c0.408-1.09,2.694-1.647,0.452-2.593c-1.978-1.467-3.444,1.461-5.075,1.617c-1.566-1.768,1.422-2.617,2.246-3.548c0.044-0.694-1.742-0.209-1.204-0.814c0.467-0.834,3.63-0.896,2.148-2.148c-2.231-0.766-5.109-0.575-7.249,0.417c-1.348,0.436-1.745,3.485-2.907,3.359C84.346,70.418,85.071,67.74,83.201,67.348L83.201,67.348z M93.748,97.133c1.7-0.288,0.036,2.581-0.781,2.539c0.072-1.031-2.458-0.932-0.888-1.83C92.587,97.514,93.155,97.263,93.748,97.133z" />
</svg>
