<svg xmlns="http://www.w3.org/2000/svg" width="450px" height="300px" viewBox="0 0 450 300">
  <path fill="#003893" d="M0,0h450v300H0V0z" />
  <path fill="#FFFFFF" d="M0,150h450v75H0V150z" />
  <path fill="#CF2027" d="M0,175h450v25H0V175z" />
  <path fill="#F7D116" d="M164.6,107.9h10.9l-8.8,6.4l3.4,10.4l-8.8-6.4l-8.8,6.4l3.4-10.4l-8.8-6.4h10.9l3.4-10.4L164.6,107.9zM164.6,257.9l-3.4-10.4l-3.4,10.4H147l8.8,6.4l-3.4,10.4l8.8-6.4l8.8,6.4l-3.4-10.4l8.8-6.4H164.6z M229.2,159.7h-10.9l8.8,6.4l-3.4,10.4l8.8-6.4l8.8,6.4l-3.4-10.4l8.8-6.4h-10.9l-3.4-10.4L229.2,159.7z M95.4,212.4l8.8-6.4H93.3l-3.4-10.4L86.6,206H75.7l8.8,6.4l-3.4,10.4l8.8-6.4l8.8,6.4L95.4,212.4z M208.7,243.5l-3.4-10.4l-3.4,10.4h-10.9l8.8,6.4l-3.4,10.4l8.8-6.4l8.8,6.4l-3.4-10.4l8.8-6.4H208.7z M117.2,111.8l-3.4,10.4h-10.9l8.8,6.4l-3.4,10.4l8.8-6.4l8.8,6.4l-3.4-10.4l8.8-6.4h-10.9L117.2,111.8zM120.5,243.5l-3.4-10.4l-3.4,10.4h-10.9l8.8,6.4l-3.4,10.4l8.8-6.4l8.8,6.4l-3.4-10.4l8.8-6.4H120.5z M199.9,128.6l-3.4,10.4l8.8-6.4l8.8,6.4l-3.4-10.4l8.8-6.4h-10.9l-3.4-10.4l-3.4,10.4h-10.9L199.9,128.6z M84.5,166.1l-3.4,10.4l8.8-6.4l8.8,6.4l-3.4-10.4l8.8-6.4H93.3l-3.4-10.4l-3.4,10.4H75.7L84.5,166.1z M235.9,206l-3.4-10.4l-3.4,10.4h-10.9l8.8,6.4l-3.4,10.4l8.8-6.4l8.8,6.4l-3.4-10.4l8.8-6.4H235.9z" />
</svg>
