<svg xmlns="http://www.w3.org/2000/svg" width="450px" height="300px" viewBox="0 0 450 300">
  <path fill="#006B3F" d="M0,0h450v300H0V0z" />
  <path fill="#FCD116" d="M450,112.5H225V0h-37.5v112.5H0V150h187.5v150H225V150h225V112.5z" />
  <path fill="#FFFFFF" d="M450,150H262.5V0H225v150H0v37.5h225V300h37.5V187.5H450V150z" />
  <path fill="#000000" d="M450,137.5H237.5V0h-25v137.5H0v25h212.5V300h25V162.5H450V137.5z" />
  <path fill="#D41C30" d="M225,75c41.421,0,75,33.579,75,75s-33.579,75-75,75s-75-33.579-75-75S183.579,75,225,75z" />
  <path fill="#006B3F" stroke="#000000" stroke-width="0.5" d="M264.2,203.955l-6.14-4.46l-6.135,4.457l2.345-7.214l-6.137-4.456l7.586-0.001l2.345-7.214l2.342,7.214l7.586-0.001l-6.135,4.457L264.2,203.955z M288.428,170.609l-7.588,0.001l-2.343,7.212l-2.344-7.215l-7.584,0.002l6.137-4.459l-2.344-7.215l6.135,4.46l6.137-4.459l-2.343,7.212L288.428,170.609z M161.572,129.391l7.588-0.001l2.343-7.212l2.344,7.215l7.584-0.002l-6.137,4.459l2.344,7.215l-6.135-4.46l-6.137,4.459l2.343-7.212L161.572,129.391z M185.8,96.045l6.14,4.46l6.135-4.457l-2.345,7.214l6.137,4.456l-7.586,0.001l-2.345,7.214l-2.342-7.214l-7.586,0.001l6.135-4.457L185.8,96.045z M161.572,170.609l6.139-4.461l-2.343-7.212l6.137,4.459l6.135-4.46l-2.344,7.215l6.137,4.459l-7.584-0.002l-2.344,7.215l-2.343-7.212L161.572,170.609z M185.8,203.955l2.344-7.217l-6.135-4.457l7.586,0.001l2.342-7.214l2.345,7.214l7.586,0.001l-6.137,4.456l2.345,7.214l-6.135-4.457L185.8,203.955z M225,216.692l-2.346-7.217h-7.583l6.137-4.458l-2.346-7.212l6.137,4.458l6.137-4.458l-2.346,7.212l6.137,4.458h-7.583L225,216.692z M225,83.308l2.346,7.217h7.583l-6.137,4.458l2.346,7.213L225,97.737l-6.137,4.458l2.346-7.213l-6.137-4.458h7.583L225,83.308z M264.2,96.045l-2.344,7.217l6.135,4.457l-7.586-0.001l-2.342,7.214l-2.345-7.214l-7.586-0.001l6.137-4.456l-2.345-7.214l6.135,4.457L264.2,96.045z M288.428,129.391l-6.139,4.461l2.343,7.212l-6.137-4.459l-6.135,4.46l2.344-7.215l-6.137-4.459l7.584,0.002l2.344-7.215l2.343,7.212L288.428,129.391z" />
  <g>
    <path fill="#006B3F" stroke="#000000" stroke-width="0.2916" d="M241.206,191.805c-0.831,0.058-1.681-0.884-2.482-2.583c-0.509,1.633-1.151,2.587-1.9,2.639c-2.479,0.173-5.179-9.549-6.03-21.716l13.609-0.701C245.254,181.61,243.823,191.622,241.206,191.805z" />
    <path fill="#006B3F" stroke="#000000" stroke-width="0.2916" d="M241.4,170.698c0.941,13.452,0.01,24.476-2.079,24.622s-4.545-10.641-5.486-24.093L241.4,170.698z" />
    <path fill="#9C4A00" stroke="#000000" stroke-width="0.2917" d="M243.292,186.167c-6.708,0.708-36.042,1.042-37.292,0.125s-3.125-4.792-3.125-5c3.833-0.167,2.167-2.208,4.125-3.292c1.917-1.125,4.667-0.375,5.5,0.958c0.833,1.375,0.167,2.708,1.208,2.75c1.083,0,21.917-1,29.583-0.458c1.25,0.083,2.208,1.208,2.208,2.458S244.542,186.042,243.292,186.167z" />
    <path fill="none" stroke="#000000" stroke-width="0.2917" stroke-linecap="round" d="M243.292,181.25c-1.358,0-2.458,1.101-2.458,2.458c0,1.358,1.101,2.458,2.458,2.458l0,0" />
    <path fill="#FCD116" stroke="#000000" stroke-width="0.2917" d="M223.292,184.083l4.292,4.5c-0.125,2.542-7.167,0.167-7.25-4.542c0.292-4.667,7.167-6.958,7.25-4.292L223.292,184.083z" />
    <path fill="#FCD116" stroke="#000000" stroke-width="0.2917" d="M225.792,184.083l4.292,4.5c-0.125,2.542-7.167,0.167-7.25-4.542c0.292-4.667,7.167-6.958,7.25-4.292L225.792,184.083z" />
    <path fill="#FCD116" stroke="#000000" stroke-width="0.2917" d="M228.5,184.083l4.292,4.5c-0.125,2.542-7.167,0.167-7.25-4.542c0.292-4.667,7.167-6.958,7.25-4.292L228.5,184.083z" />
    <path fill="#FCD116" stroke="#000000" stroke-width="0.2917" d="M231.042,184.083c-0.042,2.917,4.208,2.083,4.292,4.5c-0.125,2.542-7.167,0.167-7.25-4.542c0.292-4.667,7.167-6.958,7.25-4.292C235.417,181.958,231.125,181.208,231.042,184.083z" />
    <path fill="#006B3F" stroke="#000000" stroke-width="0.2916" d="M229.967,172.504c0.888,2.096,0.924,5.097,0.079,6.701c-0.844,1.604-2.249,1.206-3.137-0.891s-0.924-5.097-0.079-6.701C227.674,170.009,229.079,170.408,229.967,172.504z" />
    <path fill="#006B3F" stroke="#000000" stroke-width="0.2916" d="M226.287,172.242c0.888,2.096,0.924,5.097,0.079,6.701c-0.844,1.604-2.249,1.206-3.137-0.891s-0.924-5.097-0.079-6.701C223.994,169.746,225.399,170.145,226.287,172.242z" />
    <path fill="#006B3F" stroke="#000000" stroke-width="0.2916" d="M223.65,167.478c0.888,2.096,0.924,5.097,0.079,6.701c-0.844,1.604-2.249,1.206-3.137-0.891s-0.924-5.097-0.079-6.701C221.357,164.983,222.762,165.381,223.65,167.478z" />
    <path fill="#006B3F" stroke="#000000" stroke-width="0.2916" d="M227.649,168.257c0.644,2.699,0.359,5.75-0.636,6.814c-0.995,1.065-2.324-0.26-2.968-2.959s-0.359-5.75,0.636-6.814S227.005,165.558,227.649,168.257z" />
    <path fill="#006B3F" stroke="#000000" stroke-width="0.2916" d="M223.021,162.32c0.721,2.416,0.542,5.397-0.401,6.659c-0.942,1.262-2.291,0.326-3.012-2.09s-0.542-5.397,0.401-6.659C220.952,158.969,222.3,159.905,223.021,162.32z" />
    <path fill="#9461C9" stroke="#000000" stroke-width="0.2917" d="M217.625,123.667c0,0-7.333,6.333-6.5,23.542c0.917,17.333,16.208,25.458,16.208,25.458h2.417v-49C229.75,123.667,217.625,123.667,217.625,123.667z" />
    <path fill="#006B3F" stroke="#000000" stroke-width="0.2916" d="M235.699,172.086c0.861,1.563,0.858,4.565-0.008,6.703c-0.866,2.139-2.266,2.605-3.127,1.041c-0.861-1.563-0.858-4.565,0.008-6.703C233.437,170.989,234.837,170.522,235.699,172.086z" />
    <path fill="#006B3F" stroke="#000000" stroke-width="0.2916" d="M232.149,171.175c0.861,1.563,0.858,4.565-0.008,6.703c-0.866,2.139-2.266,2.605-3.127,1.041c-0.861-1.563-0.858-4.565,0.008-6.703S231.288,169.611,232.149,171.175z" />
    <path fill="#006B3F" stroke="#000000" stroke-width="0.2916" d="M230.382,166.091c0.861,1.563,0.858,4.565-0.008,6.703c-0.866,2.139-2.266,2.605-3.127,1.041c-0.861-1.563-0.858-4.565,0.008-6.703C228.121,164.993,229.521,164.527,230.382,166.091z" />
    <path fill="#006B3F" stroke="#000000" stroke-width="0.2916" d="M233.588,165.365c1.036,0.981,1.402,4.014,0.819,6.774s-1.895,4.203-2.931,3.222s-1.402-4.014-0.819-6.774C231.24,165.827,232.552,164.384,233.588,165.365z" />
    <path fill="#006B3F" stroke="#000000" stroke-width="0.2916" d="M238.799,166.889c0.967,1.177,1.205,4.14,0.532,6.617c-0.673,2.478-2.002,3.532-2.968,2.355s-1.205-4.14-0.532-6.617C236.503,166.766,237.832,165.712,238.799,166.889z" />
    <path fill="#006B3F" stroke="#000000" stroke-width="0.2916" d="M236.337,164.67c0.967,1.177,1.205,4.14,0.532,6.617c-0.673,2.478-2.002,3.532-2.968,2.355c-0.967-1.177-1.205-4.14-0.532-6.617C234.041,164.548,235.37,163.493,236.337,164.67z" />
    <path fill="#006B3F" stroke="#000000" stroke-width="0.2916" d="M233.248,161.601c0.967,1.177,1.205,4.14,0.532,6.617c-0.673,2.478-2.002,3.532-2.968,2.355s-1.205-4.14-0.532-6.617C230.953,161.479,232.282,160.424,233.248,161.601z" />
    <path fill="#006B3F" stroke="#000000" stroke-width="0.2916" d="M230.242,159.584c0.967,1.177,1.205,4.14,0.532,6.617c-0.673,2.478-2.002,3.532-2.968,2.355s-1.205-4.14-0.532-6.617C227.946,159.461,229.275,158.407,230.242,159.584z" />
    <path fill="#D41C30" stroke="#000000" stroke-width="0.1667" d="M238.824,150.759c4.184,9.623,5.044,18.525,1.921,19.883s-9.047-5.342-13.231-14.965s-5.044-18.525-1.921-19.883S234.64,141.136,238.824,150.759z" />
    <path fill="#006B3F" stroke="#000000" stroke-width="0.2916" d="M227.917,127.262c1.409,0,2.552,0.999,2.552,2.231s-1.143,2.231-2.552,2.231s-2.552-0.999-2.552-2.231S226.507,127.262,227.917,127.262z" />
    <path fill="#006B3F" stroke="#000000" stroke-width="0.2916" d="M227.604,124.465c1.409,0,2.552,0.999,2.552,2.231s-1.143,2.231-2.552,2.231s-2.552-0.999-2.552-2.231S226.195,124.465,227.604,124.465z" />
    <path fill="#006B3F" stroke="#000000" stroke-width="0.2916" d="M224.062,127.688c1.323,0,2.396,1.062,2.396,2.373s-1.073,2.373-2.396,2.373s-2.396-1.062-2.396-2.373C221.667,128.75,222.739,127.688,224.062,127.688z" />
    <path fill="#006B3F" stroke="#000000" stroke-width="0.2916" d="M224.792,124.677c1.323,0,2.396,1.047,2.396,2.337s-1.073,2.338-2.396,2.338s-2.396-1.047-2.396-2.338S223.468,124.677,224.792,124.677z" />
    <path fill="#006B3F" stroke="#000000" stroke-width="0.2916" d="M220.833,124.713c1.496,0,2.708,1.062,2.708,2.373s-1.213,2.373-2.708,2.373s-2.708-1.062-2.708-2.373C218.125,125.775,219.338,124.713,220.833,124.713z" />
    <path fill="#006B3F" stroke="#000000" stroke-width="0.2916" d="M225.781,120.923c1.409,0,2.552,0.999,2.552,2.231s-1.143,2.231-2.552,2.231s-2.552-0.999-2.552-2.231S224.372,120.923,225.781,120.923z" />
    <path fill="#006B3F" stroke="#000000" stroke-width="0.2916" d="M222.396,121.242c1.323,0,2.396,1.047,2.396,2.337c0,1.291-1.073,2.338-2.396,2.338S220,124.87,220,123.579S221.073,121.242,222.396,121.242z" />
    <path fill="#006B3F" stroke="#000000" stroke-width="0.2916" d="M217.292,124.854c1.323,0,2.396,1.062,2.396,2.373c0,1.311-1.073,2.373-2.396,2.373s-2.396-1.062-2.396-2.373C214.896,125.917,215.968,124.854,217.292,124.854z" />
    <path fill="#006B3F" stroke="#000000" stroke-width="0.2916" d="M218.125,123.119c1.323,0,2.396,1.047,2.396,2.338s-1.073,2.337-2.396,2.337s-2.396-1.047-2.396-2.337C215.729,124.165,216.802,123.119,218.125,123.119z" />
    <path fill="#006B3F" stroke="#000000" stroke-width="0.2916" d="M219.115,121.135c1.323,0,2.396,1.047,2.396,2.338s-1.073,2.338-2.396,2.338s-2.396-1.047-2.396-2.338C216.719,122.182,217.791,121.135,219.115,121.135z" />
    <path fill="#006B3F" stroke="#000000" stroke-width="0.2917" d="M242.134,147.134c5.042,11.433,5.921,22.116,1.963,23.862c-3.958,1.746-11.255-6.107-16.297-17.54c-5.042-11.433-5.921-22.116-1.963-23.862C229.795,127.848,237.091,135.701,242.134,147.134z" />
    <path fill="#006B3F" stroke="#000000" stroke-width="0.2917" d="M242.806,153.304c1.059,2.4,1.302,4.617,0.544,4.951s-2.231-1.34-3.289-3.741c-1.059-2.4-1.302-4.617-0.544-4.951C240.274,149.229,241.747,150.904,242.806,153.304z" />
    <path fill="#006B3F" stroke="#000000" stroke-width="0.2917" d="M240.75,153.917c6.375,7.792,5.583,12.75,4.917,16.917l-9.042-9.708v-9.75L240.75,153.917z" />
    <path fill="#006B3F" stroke="#000000" stroke-width="0.2917" d="M241.292,160.208c6.417,7.792,5.625,12.75,4.958,16.917l-12.292-19.042v-12.792C234.917,147.792,234.917,152.417,241.292,160.208z" />
    <path fill="#006B3F" stroke="#000000" stroke-width="0.2917" d="M241.5,165.292c6.542,7.625,5.833,12.625,5.25,16.833c-2.083-4.792-3.25-7.833-9.833-15.5c-6.542-7.667-3.458-13.208-3.083-16.083C234.875,153,234.958,157.625,241.5,165.292z" />
    <path fill="#006B3F" stroke="#000000" stroke-width="0.2917" d="M239.442,145.38c1.964,4.213,2.441,8.148,1.065,8.79c-1.376,0.642-4.085-2.253-6.049-6.466s-2.441-8.148-1.065-8.79C234.77,138.272,237.478,141.167,239.442,145.38z" />
    <path fill="#006B3F" stroke="#000000" stroke-width="0.2917" d="M236.604,149.881c1.572,3.482,1.86,6.749,0.644,7.298c-1.216,0.549-3.477-1.828-5.049-5.309s-1.86-6.749-0.644-7.298C232.772,144.022,235.032,146.399,236.604,149.881z" />
    <path fill="#006B3F" stroke="#000000" stroke-width="0.2917" d="M233.584,152.894c1.505,3.511,1.73,6.784,0.504,7.309s-3.441-1.894-4.946-5.405s-1.73-6.784-0.504-7.309C229.865,146.963,232.079,149.383,233.584,152.894z" />
    <path fill="#006B3F" stroke="#000000" stroke-width="0.2917" d="M235.561,142.261c1.372,2.58,1.727,5.075,0.792,5.572c-0.935,0.497-2.805-1.192-4.177-3.772c-1.372-2.58-1.727-5.075-0.792-5.572C232.319,137.992,234.189,139.68,235.561,142.261z" />
    <path fill="#006B3F" stroke="#000000" stroke-width="0.2917" d="M233.046,144.337c1.207,2.661,1.405,5.174,0.441,5.611s-2.724-1.366-3.931-4.027s-1.405-5.174-0.441-5.611C230.078,139.873,231.839,141.676,233.046,144.337z" />
    <path fill="#006B3F" stroke="#000000" stroke-width="0.2917" stroke-linecap="round" d="M225.875,143.917c1.894,4.628,4.194,7.98,5.138,7.485c0.943-0.495,0.173-4.648-1.721-9.276" />
    <path fill="#006B3F" stroke="#000000" stroke-width="0.2917" stroke-linecap="round" d="M232.729,138.899c1.207,2.661,1.405,5.174,0.441,5.611c-0.964,0.437-2.724-1.366-3.931-4.027s-1.405-5.174-0.441-5.611C229.762,134.434,231.522,136.237,232.729,138.899z" />
    <path fill="#006B3F" stroke="#000000" stroke-width="0.2917" stroke-linecap="round" d="M229.574,140.469c1.151,2.686,1.296,5.202,0.323,5.619s-2.695-1.423-3.846-4.109c-1.151-2.686-1.296-5.202-0.323-5.619C226.7,135.944,228.422,137.783,229.574,140.469z" />
    <path fill="#006B3F" stroke="#000000" stroke-width="0.2917" stroke-linecap="round" d="M223.75,137.542c1.853,3.131,3.858,5.286,4.479,4.814s-0.377-3.392-2.229-6.523" />
    <path fill="#006B3F" stroke="#000000" stroke-width="0.2917" stroke-linecap="round" d="M225.042,135.458c1.657,2.923,3.606,5.097,4.354,4.855s0.011-2.807-1.646-5.73l0,0" />
    <path fill="#006B3F" stroke="#000000" stroke-width="0.2917" stroke-linecap="round" d="M229.875,136.542c2.565,4.272,5.343,7.212,6.206,6.568s-0.517-4.629-3.081-8.901" />
    <path fill="#006B3F" stroke="#000000" stroke-width="0.2917" stroke-linecap="round" d="M227,133.833c1.711,3.286,3.671,5.678,4.378,5.342s-0.106-3.272-1.817-6.558c-0.115-0.221-0.233-0.441-0.353-0.659" />
    <path fill="#9461C9" stroke="#000000" stroke-width="0.2917" d="M229.042,126.958c-1.208,1.25,0.042,3.5,1.125,4.417c1.292,1.083,8.375,8.625,13.375,2.333C239.542,133.625,232.042,124.208,229.042,126.958z" />
    <path fill="#9461C9" stroke="#000000" stroke-width="0.2917" d="M228.167,123.25c-1.208,1.25,0.042,3.5,1.125,4.417c1.292,1.083,8.375,8.625,13.375,2.333C238.667,129.917,231.167,120.5,228.167,123.25z" />
    <path fill="#9461C9" stroke="#000000" stroke-width="0.2917" d="M227.042,119.708c-1.208,1.25,0.042,3.5,1.125,4.417c1.292,1.083,8.375,8.625,13.375,2.333C237.542,126.375,230.042,116.958,227.042,119.708z" />
    <path fill="#9461C9" stroke="#000000" stroke-width="0.2917" d="M224.583,115.667l1.125,4.417c1.292,1.083,8.375,8.625,13.375,2.333C235.083,122.333,227.583,112.917,224.583,115.667z" />
    <path fill="#9461C9" stroke="#000000" stroke-width="0.2917" d="M215.875,111.792c2.542-1.917,7.208-2.458,10.833-0.625c3.042,1.5,8.083,7.542,11.875,9c-2.667,0.458-4.292,0.042-6-0.75c-3.375,2.417-4.583,2.792-8,3.292c-4.792,0.667-8.75-0.583-10.167-3.042C213,117.292,213.625,113.542,215.875,111.792z" />
    <path fill="#D41C30" stroke="#000000" stroke-width="0.2916" d="M221.267,114.271c1.224,0,2.217,0.575,2.217,1.283c0,0.709-0.992,1.283-2.217,1.283s-2.217-0.575-2.217-1.283C219.05,114.845,220.042,114.271,221.267,114.271z" />
    <path fill="#FCD116" stroke="#000000" stroke-width="0.2917" d="M217.431,119.607c0.361,0.971-0.623,2.232-2.197,2.818c-1.575,0.586-3.144,0.273-3.504-0.697l2.197-2.818C215.501,118.324,217.07,118.637,217.431,119.607z" />
    <path fill="#FCD116" stroke="#000000" stroke-width="0.2917" d="M216.417,117.25c0.208,0.958-0.5,2.292-2.083,2.75c-1.583,0.667-2.792,2.167-3.5,4.625c-2.417-5.583-0.875-7.958,1.708-8.542C214.75,115.375,216.083,115.458,216.417,117.25z" />
    <path fill="#000000" d="M221.15,114.796c0.419,0,0.758,0.3,0.758,0.671s-0.34,0.671-0.758,0.671c-0.419,0-0.758-0.3-0.758-0.671S220.731,114.796,221.15,114.796z M214.083,117.958c0.299,0,0.542,0.243,0.542,0.542s-0.243,0.542-0.542,0.542c-0.299,0-0.542-0.243-0.542-0.542S213.784,117.958,214.083,117.958z" />
  </g>
</svg>
