<svg xmlns="http://www.w3.org/2000/svg" width="450px" height="300px" viewBox="0 0 450 300">
  <path fill="#FECB00" d="M0,0h450v300H0V0z" />
  <path fill="#B2B2B2" d="M240.005,206.311c-13.098-8.419-36.376-0.062-36.376-0.062l0,0l-12.563,2.563c0,0-4.063,0.25-3.812,1.375c0.25,1.125,3.938,2.5,5.188,2.938s3.125,1.187,3,1.938c-0.125,0.75,0.063,1.875-1.188,1.938c-1.25,0.062-5.813,0.562-5.813,0.562s-1.125,0.562,0,1.438c1.125,0.875,10.875,4.187,10.875,4.187s4.813-0.812,4.875-1.562s1.625-0.875,1.625-0.875l0.938,0.312c0,0,0.188,1.375-0.375,1.562c-0.563,0.188-1.563,1.125-1.563,1.125s0,0.625,0.75,0.5s2.25-2.25,2.25-2.25l0.125-1.438c0,0,2.625-0.875,3.063,0.188c0.438,1.062,0.188,2.438-0.5,2.625c-0.688,0.188-1.5,1.438-0.563,1.312c0.938-0.125,5.875,0.562,11.313-1.312c5.438-1.875,17-9.312,17-9.312l4.312-2.812C242.568,211.249,248.881,208.874,240.005,206.311z M201.056,213.625c-1.147,0-2.077-0.989-2.077-2.21s0.93-2.21,2.077-2.21s2.077,0.989,2.077,2.21S202.203,213.625,201.056,213.625z M214.81,214.385c-1.147,0-2.077-0.989-2.077-2.21s0.93-2.21,2.077-2.21s2.077,0.989,2.077,2.21S215.957,214.385,214.81,214.385z M277.224,193.811c-0.688,0.156-13.344,0.281-13.344,0.281l-8.407,4.531l-3.344-3.312l5.5-2.844c0,0,4.25-2.906,4.187-3.406s2.688-4.344,2.938-5.187c0.25-0.844,1.313-4.438,1.313-4.438l0.125-1.625l0.594-0.094c0,0,0.594,0.625,0.594,0.844s0.438,4.687,0.438,4.687l0.844,4.031l8,4.812C276.662,192.092,277.912,193.654,277.224,193.811z" />
  <path fill="#000000" d="M261.256,215.997c-3.509-0.003-3.871-0.296-5.622-4.555c-1.862-4.526-1.86-4.565,0.25-6.811c1.167-1.242,2.122-2.577,2.122-2.967c0-1.638-8.41-9.663-10.127-9.663c-1.03,0-1.895-0.112-1.923-0.25c-0.098-0.486-3.007-28.382-3.937-37.75c-1.258-12.666-3.753-36.363-5.002-47.501c-0.555-4.95-1.296-12.375-1.648-16.5c-0.755-8.869-1.278-10.07-5.925-13.615l-3.535-2.696l-3.819,3.729c-3.256,3.179-3.916,4.567-4.473,9.406c-0.886,7.695-4.919,46.233-6.533,62.426c-4.322,43.364-4.313,43.303-6.168,43c-0.843-0.138-2.499,0.65-3.68,1.75s-2.729,1.986-3.439,1.969c-0.837-0.021-0.674-0.501,0.463-1.363c3.292-2.499,4.017-6.785,2.038-12.046c-1.888-5.019-3.715-6.1-3.905-2.312c-0.062,1.239-0.853,3.933-1.756,5.986c-1.865,4.238-4.276,5.26-12.273,5.203c-5.834-0.042-6.054,0.923-1.059,4.648c3.403,2.538,10.319,3.239,14.199,1.439c1.969-0.914,1.971-0.887,0.148,1.896c-1.817,2.773-1.812,2.859,0.272,4.943c2.453,2.453,13.116,3.706,19.69,2.313c12.484-2.644,17.424-2.053,23.044,2.757c3.649,3.123,4.695,5.147,6.883,13.318l0,0c0.571,2.132,1.098,2.25,10.035,2.25h9.433v-9L261.256,215.997z M190.066,195.998c-4.43,0-4.805-1.434-0.585-2.241c1.433-0.274,2.992,0.103,3.637,0.881l0,0C194.04,195.748,193.479,195.998,190.066,195.998z M196.536,192.561c-1.444,1.909-1.469,1.908-1.5-0.118c-0.017-1.132,0.629-2.932,1.436-4c1.444-1.909,1.469-1.908,1.5,0.118C197.99,189.693,197.343,191.493,196.536,192.561z M236.526,132.187c0.222,0.222,0.845,5.096,1.385,10.83l0,0c0.54,5.735,0.886,10.522,0.77,10.638c-0.377,0.377-10.153-5.127-10.936-6.157c-0.418-0.55-0.643-3.244-0.5-5.986c0.248-4.748,0.465-5.099,4.569-7.358C234.184,132.851,236.304,131.965,236.526,132.187z M227.485,160.001c-0.264,0-0.48-1.8-0.48-4s0.435-4,0.966-4c1.536,0,8.034,3.297,8.034,4.077c0,0.388-1.809,1.43-4.02,2.315l0,0C229.774,159.277,227.749,160.001,227.485,160.001z M228.038,125c1.486,0,5.965,3.071,5.965,4.089l0,0c0,1.174-5.592,3.985-6.373,3.204C226.581,131.245,226.931,125,228.038,125z M234.702,113.285c0.669,4.518,1.236,9.227,1.259,10.464l0,0c0.053,2.81-0.541,2.759-5.208-0.445c-3.537-2.429-3.75-2.877-3.75-7.867c0-4.779,0.314-5.538,3.241-7.829l3.241-2.536L234.702,113.285z M227.005,102c0-3.343,1.927-3.998,4.09-1.392c1.134,1.366,1.049,1.818-0.569,3C227.718,105.661,227.005,105.336,227.005,102z M229.458,83.5c1.475,0,2.161,0.982,2.791,4l0,0c0.46,2.2,0.705,5.461,0.545,7.247l-0.291,3.247l-2.815-2.254c-2.514-2.013-2.781-2.788-2.5-7.247C227.452,84.312,227.821,83.5,229.458,83.5z M218.393,107.851c0.298-2.394,0.814-6.939,1.149-10.102c0.645-6.107,1.275-6.804,3.613-4c1.202,1.441,1.716,9.302,0.934,14.284l0,0c-0.046,0.294-1.468,1.352-3.16,2.352l-3.077,1.817L218.393,107.851z M215.374,134.75c0.347-2.338,0.919-7.03,1.27-10.427l0.638-6.177l3.531,2.234c3.355,2.124,3.535,2.522,3.612,8.024c0.093,6.617,0.143,6.508-4.073,8.847l0,0C215.417,139.987,214.652,139.603,215.374,134.75z M219.612,144.353l-2.894-1.567l2.894-1.832c4.449-2.817,4.803-2.724,4.942,1.297l0,0C224.698,146.389,223.955,146.705,219.612,144.353z M212.381,163.811c0.362-2.371,0.94-7.574,1.284-11.562c0.345-3.987,0.702-7.25,0.795-7.25s2.39,1.072,5.106,2.381l4.937,2.381l-0.09,6.315c-0.086,6.054-0.211,6.355-3,7.281v0.001c-1.6,0.531-4.435,1.82-6.3,2.865l-3.39,1.899L212.381,163.811z M220.992,172.448c-1.368-0.757-3.275-1.393-4.238-1.412c-3.023-0.061-1.911-1.753,2.25-3.427c2.2-0.885,4.278-1.721,4.618-1.859s0.722,1.453,0.848,3.535l0,0C224.746,173.811,224.258,174.255,220.992,172.448z M224.55,180.764c-0.105,3.018-0.561,3.767-2.585,4.244c-1.723,0.407-2.608,1.437-2.96,3.447c-0.38,2.17-1.354,3.174-4.002,4.13l0,0c-1.925,0.694-3.969,1.296-4.541,1.338c-0.921,0.067-0.645-5.921,0.894-19.424c0.261-2.29,1.127-2.229,8.234,0.586C224.464,177.016,224.672,177.254,224.55,180.764z M221.123,117.124l-2.38-1.83l2.352-1.648c3.245-2.273,3.508-2.134,3.508,1.852C224.603,119.511,224.369,119.62,221.123,117.124z M225.004,88.501c0,2.719-0.935,3.165-2.776,1.324c-0.859-0.859-0.88-1.533-0.078-2.5C223.85,85.277,225.004,85.752,225.004,88.501L225.004,88.501z M226.565,80c-0.857,0-1.559-0.45-1.559-1s0.424-1,0.941-1s1.219,0.45,1.559,1S227.422,80,226.565,80z M233.039,161.215c3.896-1.87,6.274-2.537,6.523-1.83c0.215,0.612,0.76,5.531,1.21,10.932l0,0c0.768,9.206,0.481,11.599-1.188,9.929c-0.384-0.384-3.26-1.652-6.39-2.818l-5.691-2.119l-0.595-11.151L233.039,161.215z M230.004,185.113c-1.791-0.494-2.593-1.495-2.829-3.529c-0.295-2.549-0.085-2.777,2.058-2.24c1.313,0.33,4.143,1.333,6.29,2.23l3.903,1.631l-3.326,1.398l0,0c-1.829,0.769-3.387,1.354-3.461,1.299C232.565,185.847,231.379,185.492,230.004,185.113z M243.006,191.169c0,2.658-0.338,4.801-0.75,4.763c-0.412-0.039-2.662-0.92-5-1.959c-4.899-2.177-5.477-4.529-1.5-6.099c1.513-0.597,3.489-1.461,4.392-1.92C242.493,184.763,243.006,185.7,243.006,191.169L243.006,191.169z" />
  <path fill="#5C7223" d="M179.335,188.55c1.389,0.992,3.787,1.441,6.669,1.25c3.586-0.238,4.787-0.807,5.913-2.799c1.531-2.708,3.108-14,1.955-14c-0.388,0-1.417-0.273-2.287-0.607c-1.079-0.414-1.582-0.039-1.582,1.179c0,2.432-2.229,8.428-3.134,8.428c-1.627,0-1.944-4.065-0.435-5.574c0.864-0.864,1.568-3.244,1.568-5.297c0-2.051,0.427-4.156,0.95-4.679c0.6-0.6,0.047-1.376-1.5-2.106c-2.118-1-2.45-0.913-2.45,0.636c0,2.755-2.387,6.725-3.767,6.265c-1.807-0.602-1.505-3.036,0.667-5.367c2.267-2.434,3.201-8.548,1.519-9.944c-0.848-0.704-1.786,0.024-3.27,2.54c-1.145,1.94-2.546,3.527-3.115,3.527c-1.652,0-1.199-2.853,0.921-5.791c2.172-3.01,3.096-8.306,1.545-8.852c-0.55-0.193-1.9,0.995-3,2.642c-2.704,4.048-3.806,3.771-3.04-0.763c0.856-5.069-1.86-11.98-4.008-10.197c-2.216,1.839-1.815,7.945,0.698,10.62c1.96,2.086,1.998,2.346,0.433,2.947c-0.944,0.362-2.227,0.149-2.85-0.474c-1.549-1.549-3.408-1.423-4.06,0.277c-0.672,1.75,6.035,6.59,9.131,6.59c1.53,0,2.196,0.607,2.196,2c0,1.454-0.667,2-2.441,2c-1.343,0-2.719-0.45-3.059-1c-0.929-1.504-3.5-1.202-3.5,0.411c0,2.171,5.844,6.589,8.717,6.589c2.377,0,5.178,2.334,5.252,4.377c0.017,0.482-2.218,0.661-4.968,0.397c-4.127-0.397-4.996-0.201-4.975,1.123c0.033,2.11,6.166,5.103,10.458,5.103c3.262,0,5.406,1.445,4.093,2.759c-0.344,0.344-2.811,0.626-5.482,0.626c-4.45,0-4.846,0.194-4.724,2.318c0.085,1.487,0.609,2.135,1.464,1.808C176.567,187.23,178.142,187.698,179.335,188.55L179.335,188.55z M189.397,183.419c0.334-0.87,0.607-1.77,0.607-2s0.408-0.418,0.906-0.418s0.671,0.9,0.383,2c-0.288,1.1-0.969,2-1.513,2S189.063,184.289,189.397,183.419z M174.003,165.844c-1.375,0-1.938-0.227-1.25-0.504s1.813-0.277,2.5,0S175.378,165.844,174.003,165.844z M179.005,164.119c0-0.55,0.45-1.278,1-1.618s1-0.168,1,0.382s-0.45,1.278-1,1.618C179.455,164.84,179.005,164.669,179.005,164.119z M179.505,177.999c-0.825,0-1.5-0.45-1.5-1s0.675-1,1.5-1s1.5,0.45,1.5,1S180.33,177.999,179.505,177.999z M184.004,176.001c-1.416,0-1.191-1.182,0.666-3.5c1.409-1.758,1.526-1.778,0.968-0.168c-0.349,1.008-0.635,2.245-0.635,2.75l0,0C185.004,175.588,184.554,176.001,184.004,176.001z M184.445,186c1.407,0,2.559,0.45,2.559,1s-0.873,1-1.941,1s-2.219-0.45-2.559-1C182.153,186.433,182.993,186,184.445,186z M198.53,194.382c0.978-0.906,0.696-0.641,1.05-1.044s0.376-0.414,0.392-0.442c0.017-0.028,0.116-0.254,0.149-0.315s0.006-0.072,0.083-0.182s0.028-0.033,0.133-0.193c0.105-0.16,0.077-0.099,0.11-0.193s0.022-0.088,0.061-0.155c0.039-0.066,0.072-0.088,0.099-0.138s0.039-0.066,0.039-0.066l0.354-0.917c0,0,0.028,0.017,0.044-0.116c0.017-0.133-0.028-0.072,0.028-0.26c0.055-0.188,0.033-0.16,0.061-0.271c0.028-0.11,0.193-0.784,0.193-0.829s-0.006-0.199,0-0.271c0.006-0.072,0.011-0.122,0.022-0.204c0.011-0.083-0.006-0.072,0.011-0.199s0.017-0.138,0.017-0.138l0.05-0.989c0,0-0.011-0.028-0.017-0.099c-0.006-0.072-0.011-0.138-0.033-0.221s-0.022-0.044-0.033-0.127s-0.022-0.083-0.022-0.166v-0.144c0-0.039,0.006-0.044,0-0.077c-0.006-0.033-0.182-1.149-0.182-1.149s-0.033-0.155-0.05-0.243s-0.033-0.193-0.055-0.282s-0.586-2.016-0.586-2.016l-0.608-1.525l-0.674-1.431l-0.309-0.547l-0.536-0.779l-0.188-0.221l-0.094-0.105l-0.171-0.133l-0.16-0.105l-0.276-0.116l-0.26,0.017l-0.193,0.105l-0.11,0.138l-0.116,0.182l-0.193,0.53l-0.083,0.376l-0.011,0.238c0,0-0.017,0.066-0.022,0.094c-0.006,0.028-0.022,0.221-0.022,0.221l-0.022,0.348l-0.05,0.503l-0.11,0.591l-0.193,0.856l-0.193,0.702l-0.834,2.464l-1.011,2.154l-0.646,0.989l-0.481,0.558l-0.69,0.613l-0.796,0.497l-0.492,0.26l-0.807,0.293l-0.967,0.265l-0.486,0.094l-0.746,0.122l-1.497,0.16l-3.397,0.094h-2.182l-1.226,0.105l-0.497,0.066l-0.547,0.122l-0.453,0.199l-0.249,0.243l-0.105,0.326l0.061,0.271l0.072,0.149l0.044,0.066l0.431,0.613l0.978,0.939l0.58,0.475l0.481,0.392l1.027,0.773l1.16,0.724l1.481,0.613l2.932,0.782l2.047,0.234l2.688-0.062l2.734-0.375l2.156-1.031h0.406l0.906-1.078l-0.684-0.337C197.243,195.647,197.552,195.288,198.53,194.382z M190.066,195.998c-4.43,0-4.805-1.434-0.585-2.241c1.433-0.274,2.992,0.103,3.637,0.881l0,0C194.04,195.748,193.479,195.998,190.066,195.998z M196.536,192.561c-1.444,1.909-1.469,1.908-1.5-0.118c-0.017-1.132,0.629-2.932,1.436-4c1.444-1.909,1.469-1.908,1.5,0.118C197.99,189.693,197.343,191.493,196.536,192.561z" />
</svg>
