<svg xmlns="http://www.w3.org/2000/svg" width="450px" height="300px" viewBox="0 0 450 300">
  <path fill="#000000" d="M0,50h450v250H0V50z" />
  <path fill="#FFFFFF" d="M0,50h450v150H0V50z" />
  <path fill="#CE1126" d="M0,0h450v100H0V0z" />
  <path fill="#C09300" d="M225.249,129.826l-0.141-0.12l-0.147,0.111c-2.825,2.145-10.094,3.954-13.161,3.954h-0.629V134c0,0.696,0,1.416,0.101,2.119c0.206,2.466,0.623,5.003,1.208,7.343c2.117,7.46,6.396,13.932,12.377,18.716l0.143,0.114l0.143-0.114c6.104-4.882,10.268-11.18,12.379-18.723c0.538-2.148,1.102-4.701,1.205-7.323c0.102-0.716,0.102-1.436,0.102-2.132v-0.229H238.2C235.334,133.771,228.06,132.235,225.249,129.826z M230,156.787c-1.488,1.765-3.141,3.417-5,4.919c-1.967-1.59-3.727-3.379-5.3-5.315v-23.675c2.119-0.668,4.116-1.508,5.391-2.426c1.176,0.952,2.977,1.757,4.909,2.388V156.787z M233.6,191.4c-0.1-0.3-0.1-0.7-0.1-1.1c0-0.3-0.4-0.4-0.5-0.2c-0.2,0.2-0.4,0.2-0.6,0.4c-0.1,0.3,0.3,0.3,0.4,0.5c0.1,0.2,0.1,0.5,0.1,0.7c0.1,0.3-0.3,0.3-0.5,0.3c-0.3,0.1-0.6,0.2-0.8-0.2c-0.1-0.2-0.1-0.5-0.1-0.8c0-0.4-0.1-0.9-0.1-1.3l-0.2-1.6c0.1,0,0-0.3-0.3-0.3c-0.2,0.2-0.5,0.4-0.7,0.6c-0.3,0.2,0.2,0.4,0.3,0.6c0.1,0.3,0.1,0.6,0.1,0.9c0.1,0.3,0.1,0.6,0.1,0.9s-0.4,0.2-0.6,0.4c-0.2,0.1-0.3,0.4-0.5,0.5c-0.1,0.2-0.2,0.5-0.2,0.8c0,0.2-0.1,0.5,0,0.7l0.1,0.1c0.1,0.1,0.2,0,0.2,0c0.2,0,0.5,0,0.8-0.1c0.6-0.1,1.2-0.1,1.8-0.1c0.4,0,0.7-0.1,1.1-0.1c0.3,0.1,0.4-0.2,0.4-0.5C233.6,192.2,233.8,191.8,233.6,191.4z M230.8,192.4l-0.2,0.1c-0.1,0-0.1,0-0.2,0.1c0,0-0.1,0-0.1-0.1c-0.1-0.1-0.1-0.2,0.1-0.3c0-0.2,0.1-0.3,0.2-0.2h0.2V192.4z M228.8,188.8c0-0.2,0.3-0.5,0.5-0.5c0.1,0,0.3,0.1,0.4,0.2c0.2,0.2,0.1,0.4-0.1,0.6c0,0.2-0.3,0.2-0.5,0.1C229,189.2,228.8,188.9,228.8,188.8z M248.5,191c0.2,0.3,0.2,0.4,0,0.6c-0.1,0.1-0.1,0.1-0.4,0.1c-0.3,0.1-0.3,0.1-0.5,0c-0.1-0.1-0.1-0.1-0.1-0.3c0-0.2,0.1-0.4,0.4-0.5C248.2,190.8,248.4,190.8,248.5,191z M235.9,191.8c0,0.2,0.1,0.4,0.1,0.6c0,0.3,0,0.6-0.1,0.8c-0.1,0.1-0.2,0.2-0.3,0.4c-0.2,0.1-0.3,0.3-0.5,0.4c-0.1,0.1-0.2,0.2-0.4,0.2c-0.2,0-0.5,0-0.8-0.1c-0.1,0-0.1-0.1-0.1-0.1c0.1-0.1,0.3-0.2,0.4-0.3c0.3-0.1,0.5-0.3,0.7-0.6c0-0.2,0.2-0.3,0.2-0.4c0-0.2,0-0.5,0-0.7c-0.1-0.2-0.2-0.4-0.4-0.5c-0.1-0.1-0.3-0.1-0.4-0.3c0-0.2,0.1-0.3,0.2-0.4l0.3-0.6c0.1-0.1,0.3,0,0.4,0.1c0.1,0.1,0.2,0.3,0.2,0.4c0.1,0.2,0.3,0.4,0.3,0.6C235.8,191.4,235.9,191.6,235.9,191.8z M232.4,193.8c0.1,0.1,0.1,0.1,0.1,0.3c0,0.2,0,0.2-0.1,0.4c-0.1,0.1-0.2,0.1-0.3,0.1c-0.2,0-0.4-0.1-0.4-0.3c0-0.1-0.1-0.1-0.1-0.1l-0.1,0.1c-0.1,0-0.3,0.1-0.4,0.2c-0.1,0-0.1,0.1-0.3,0.1c-0.2-0.1-0.2-0.1-0.3-0.2c-0.1-0.1-0.1-0.2-0.1-0.3c0-0.1,0-0.2,0.1-0.3c0.2-0.2,0.3-0.2,0.7,0c0.4,0.2,0.5,0.2,0.5,0.1c0-0.1,0.2-0.2,0.4-0.2C232.2,193.7,232.3,193.7,232.4,193.8z M217.601,184.3c-0.043-0.086-0.026-0.189,0.042-0.257c0.43-0.431,1.752-0.466,2.958-0.466c0.117,0,0.214,0.09,0.223,0.207c0.008,0.116-0.075,0.22-0.191,0.236l-2.8,0.4c-0.011,0.002-0.021,0.002-0.032,0.002C217.716,184.423,217.639,184.376,217.601,184.3z M247.7,189.3c-0.5-0.4-0.4-1-0.6-1.6c-0.1-0.7-0.1-1.5-0.6-2c-0.3-0.2-0.8-0.3-1.3-0.2c-0.3,0-0.6,0.1-0.8,0.1c-0.5,0-0.8,0.5-0.3,0.8c0.3,0.8,0.8-0.2,1.2-0.1c0.7,0.1,0.8,0.9,0.9,1.5c0,0.6,0.2,1.1,0.4,1.7c0.5,0.5-0.4,0.9-0.7,0.4c-0.3-0.3-1-0.7-1.3-0.3c-0.4,0.2-0.5,0.8-0.8,1c-0.6,0.2-0.7-0.6-1-0.9c-0.3-0.4-0.9-0.4-1.3-0.6c-0.2-0.4-0.1-1.2-0.6-1.5c-0.4,0.1-1.1,0.9-0.5,1.2c0.6,0.5-0.2,0.7-0.5,1c-0.4,0.4-0.4,1-0.5,1.5c-0.6,0.4-0.8-0.4-0.8-0.9c-0.1-0.6-0.5-0.4-0.8-0.2c-0.5,0.2-0.7,0.6-1.1,1c0,0.3,0,0.7,0,1c0.1,0.4,0.6,0.2,0.9,0.2c0.5-0.2,0.7,0.3,0.3,0.6c-0.3,0.3-1.1,0.2-1,0.7c0.3,0,0.6,0,0.8,0c0.6-0.1,1.1-0.5,1.2-1.1c0.1-0.5,0.8-0.4,1.2-0.6c0.5-0.1,1.1-0.2,1.3,0.5c0.4,0.4,1.1,0.8,1.5,0.3c0.4-0.2,0.6-0.7,0.6-1.1c-0.1-0.4,0.6-0.4,0.8-0.2c0.3,0.4,1.1,0.3,1.5,0.1c0.4-0.3,0.5-0.9,1.1-0.9l2.7-0.8c0.7-0.1-0.1-0.6-0.3-0.9C248.8,188.7,248.3,189.8,247.7,189.3z M238,191.6c-0.1,0.1-0.4,0.1-0.4,0l-0.1-0.1c0-0.1,0-0.1,0-0.1l0.1-0.1c0,0,0-0.1,0.1-0.1c0-0.1,0.1-0.1,0.2-0.1c0.1,0,0.2,0.1,0.2,0.2C238.1,191.5,238.1,191.5,238,191.6z M240.9,191.1c0,0.1,0,0.1-0.3,0.1c-0.3,0-0.4,0-0.3-0.3c0-0.2,0-0.2,0.1-0.3c0.1-0.1,0.2-0.2,0.2-0.2c0.1,0,0.1,0,0.2,0.1c0.1,0.1,0.1,0.1,0.1,0.3C240.9,190.9,240.9,191,240.9,191.1z M241.6,190.7c-0.1-0.2-0.1-0.2,0-0.3c0.1-0.2,0.2-0.2,0.2-0.2c0.1,0,0.1,0,0.2,0.1c0.2,0.1,0.4,0.3,0.4,0.5c0,0.1,0,0.1-0.2,0.2c-0.1,0.1-0.2,0.1-0.2,0.1c-0.1,0-0.3-0.2-0.3-0.2C241.7,190.8,241.7,190.7,241.6,190.7z M242.7,192.1c-0.1,0.1-0.4,0.1-0.6,0c-0.1,0-0.1-0.1-0.1-0.1c0-0.1,0-0.1,0.1-0.2c0.2,0,0.3-0.1,0.4-0.1c0.1,0,0.2,0,0.2,0.1C242.8,191.9,242.8,192,242.7,192.1z M245.3,191c-0.1,0-0.2,0.1-0.2,0.1s-0.1-0.1-0.2-0.1c-0.1-0.1-0.1-0.1-0.2-0.2c0-0.3,0.2-0.4,0.4-0.4c0.2,0,0.3,0.1,0.4,0.2C245.6,190.8,245.5,190.9,245.3,191z M240.692,183.081c-0.042-0.107,0.005-0.229,0.108-0.28c0.815-0.408,2.449-0.823,2.899-0.823c0.111,0,0.205,0.082,0.221,0.191c0.016,0.11-0.053,0.215-0.159,0.246l-2.8,0.8c-0.021,0.006-0.041,0.008-0.062,0.008C240.811,183.223,240.727,183.168,240.692,183.081z M257.518,125.285c-0.135-2.963-1.087-4.956-2.83-5.921c-3.287-1.821-8.394,0.51-11.159,2.069c-2.919,1.875-6.18,2.797-9.741,2.797c-1.343-2.329-2.541-7.038-2.383-11.218c0.202-5.366-0.807-7.544-1.689-8.427c-1.068-1.069-4.313-1.984-6.489-2.088c-0.49-0.041-0.857,0.072-1.092,0.337c-0.134,0.15-0.199,0.321-0.229,0.475c-1.397-0.349-4.023-0.836-5.274,0.039c-0.774,0.517-1.023,2.271-0.94,3.067c0.043,0.407,0.17,0.647,0.389,0.734c0.099,0.039,0.295,0.075,0.505-0.106c0.517-0.395,1.011-0.553,1.508-0.476c0.696,0.104,1.422,0.68,2.156,1.708c0.869,1.254,0.687,4.891-0.441,8.84c-0.791,2.677-2.507,5.421-3.693,7.116c-3.525-0.017-6.756-0.941-9.655-2.804c-2.178-1.268-7.618-4.011-11.096-2.114c-1.775,0.968-2.744,2.978-2.881,5.975l-2.4,57.7c-0.005,0.129,0.067,0.247,0.183,0.302c0.116,0.053,0.253,0.033,0.348-0.053l17.924-16.285l-3.708,13.192c-0.724-0.18-1.415-0.364-2.052-0.55c-0.525-0.13-1.093-0.007-1.566,0.281c-0.926-0.017-1.762,0.376-2.33,1.166c-0.616,0.857-0.805,1.98-0.511,2.861c-0.096,0.23-0.178,0.482-0.222,0.78c-1.009,0.102-1.653,0.924-2.146,1.554c-0.441,0.563-0.703,0.86-0.977,0.9c-0.101-0.019-0.209-0.028-0.327-0.028c-0.3,0-0.553,0.225-0.59,0.522s0.154,0.576,0.446,0.649c0.105,0.026,0.207,0.042,0.305,0.05c0.102,0.064,0.177,0.256,0.315,0.823c0.191,0.788,0.471,1.944,1.731,2.55c0.018,1.491,0.231,2.941,2.83,3.371c5.391,1.54,14.6,2.424,25.263,2.424c10.664,0,19.872-0.884,25.197-2.409c2.659-0.443,2.878-1.895,2.896-3.386c1.245-0.602,1.507-1.744,1.686-2.525c0.133-0.579,0.207-0.778,0.323-0.846c0.109-0.006,0.224-0.022,0.342-0.052c0.292-0.073,0.483-0.352,0.446-0.649c-0.036-0.298-0.29-0.522-0.59-0.522c-0.119,0-0.229,0.01-0.331,0.027c-0.272-0.042-0.534-0.339-0.973-0.899c-0.492-0.63-1.136-1.452-2.146-1.554c-0.044-0.298-0.125-0.549-0.222-0.78c0.295-0.881,0.106-2.004-0.511-2.861c-0.548-0.763-1.344-1.157-2.23-1.17c-0.473-0.287-1.045-0.408-1.574-0.274c-0.675,0.189-1.395,0.375-2.141,0.556l-3.81-13.556l1.008,0.819l17.013,15.818c0.06,0.056,0.138,0.085,0.216,0.085c0.045,0,0.09-0.01,0.133-0.029c0.117-0.054,0.189-0.173,0.185-0.302L257.518,125.285z M225.1,105.3c0,0.4-0.3,0.7-0.7,0.7c-0.4,0-0.7-0.3-0.7-0.7c0-0.4,0.3-0.7,0.7-0.7C224.8,104.6,225.1,104.9,225.1,105.3z M220.393,117.284c0.953-3.339,1.225-6.387,0.8-8.211c0.056-0.057,0.121-0.115,0.207-0.172c0.3-0.3,1.7,0,1.7,0c-1.9-3.2-4-4-4.9-3.9c-0.771,0.064-1.29,0.785-1.566,1.294c-0.106,0.06-0.212,0.115-0.318,0.191c-0.044-0.229-0.055-0.7,0.055-1.285c0.059-0.314,0.145-0.595,0.243-0.824c0.287-0.235,0.785-0.519,1.586-0.576c1.5-0.1,1.9,0.1,3,1c1.1,0.9,2,1.3,2.5,1.2c0.2,0,0.3,0.3,0.5,0.5c0.1,0.2,0.1,0.3,0.6,0.3c0.3,0,0.5-0.6,0.7-0.8c0.3-0.2,0.8-0.3,1.1-0.4c0.7-0.2,1.1-0.1,1.6-0.2c0.201-0.067,0.89-0.084,1.476,0.118c0.609,0.971,1.286,3.051,1.119,7.471c-0.177,4.721,1.336,10.442,3.135,12.51c-1.059-0.136-2.449-0.412-2.971-0.881l0.001-0.001c-1.826-2.594-2.238-10.256-2.242-10.333l-0.635,0.032c0.017,0.322,0.427,7.923,2.357,10.667l0.002-0.001c0.173,0.452,0.341,0.973,0.403,1.274c-2.101-0.364-3.478-1.808-3.596-1.935c-0.433-1.587-0.532-7.993-0.532-10.42h-0.635c0,0.357,0.008,8.388,0.543,10.534c-0.328,0.311-1.08,1.038-1.644,1.706l-1.643-1.725c1.383-2.996,1.762-10.47,1.778-10.799l-0.634-0.03c-0.004,0.082-0.411,8.201-1.847,10.833c-0.393,0.348-1.547,1.325-2.977,2.106l0.479-1.917l0.002,0.002c2.139-2.444,3.23-10.428,3.276-10.767l-0.629-0.084c-0.011,0.079-1.062,7.736-2.984,10.243l-0.067,0.043c-0.024,0.016-2.16,1.377-3.958,1.689C216.807,124.384,219.344,120.833,220.393,117.284z M208.138,170.568l1.786,6.468c-0.032,0.021-0.061,0.049-0.084,0.082l-2.526,3.595c-0.653-0.139-1.29-0.282-1.907-0.43L208.138,170.568z M238.311,181.515c-0.196,0.024-0.393,0.048-0.589,0.072l-1.65-2.75c-0.063-0.106-0.187-0.17-0.308-0.152c-0.123,0.013-0.228,0.098-0.267,0.215l-1.006,3.02c-0.803,0.064-1.591,0.107-2.352,0.12l-0.75-3.415l1.074-5.067l2.468,3.913c0.065,0.104,0.187,0.165,0.307,0.146c0.122-0.015,0.225-0.099,0.264-0.215l1.385-4.155l2.543,4.122c0.023,0.038,0.055,0.07,0.091,0.095L238.311,181.515z M240.018,178.02l1.992,2.835c-0.998,0.203-2.008,0.388-3.003,0.554L240.018,178.02z M237.031,181.668c-0.619,0.071-1.236,0.136-1.849,0.192l0.701-2.105L237.031,181.668z M227.577,182.686c-1.07,0.009-1.588,0.579-1.833,1.06c-0.073,0.144-0.128,0.298-0.173,0.458c-0.182,0.001-0.366,0.002-0.542,0.002c-0.203-0.01-0.406-0.018-0.61-0.026c-0.043-0.15-0.094-0.297-0.163-0.433c-0.237-0.469-0.744-1.012-1.756-1.051c-0.355-0.479-0.914-0.811-1.54-0.811c-0.002,0-0.004,0-0.006,0c-0.774,0.111-1.613,0.154-2.487,0.158l0.5-2.276L220.2,181l1.6-1.2l2.292-16.557c0.077,0.062,0.154,0.123,0.231,0.184L223.4,179.8l1.6,2l1.6-2l-0.924-16.378c0.078-0.062,0.154-0.124,0.23-0.187L228.2,179.8l1.6,1.2l1.232-1.232l0.5,2.274c-0.859-0.005-1.679-0.049-2.432-0.159C228.494,181.883,227.937,182.211,227.577,182.686z M227.7,184.44c0.362,0.291,0.582,0.494,0.582,0.859c0,0.205-0.398,0.491-0.749,0.743c-0.365,0.263-0.761,0.547-1.007,0.907c-0.429-0.907-0.608-2.142-0.216-2.917c0.167-0.328,0.426-0.545,0.773-0.647C227.011,183.887,227.411,184.208,227.7,184.44z M223.473,186.95c-0.247-0.36-0.642-0.645-1.007-0.907c-0.351-0.252-0.749-0.538-0.749-0.743c0-0.365,0.22-0.568,0.582-0.859c0.29-0.232,0.689-0.554,0.617-1.055c0.348,0.103,0.607,0.319,0.773,0.648C224.083,184.81,223.902,186.043,223.473,186.95z M214.501,178.899c-0.039-0.117-0.143-0.202-0.267-0.215c-0.124-0.018-0.243,0.046-0.307,0.152l-1.65,2.75c-0.197-0.024-0.393-0.047-0.589-0.072l-1.209-4.053c0.036-0.024,0.066-0.057,0.09-0.095l2.543-4.122l1.385,4.155c0.039,0.116,0.141,0.2,0.263,0.215c0.12,0.015,0.241-0.042,0.307-0.146l2.467-3.913l1.075,5.068l-0.75,3.416c-0.763-0.014-1.55-0.057-2.352-0.121L214.501,178.899z M214.819,181.861c-0.614-0.056-1.231-0.121-1.849-0.193l1.148-1.912L214.819,181.861z M210.994,181.409c-1.008-0.168-2.018-0.354-3.003-0.555l1.992-2.835L210.994,181.409z M218.031,157.19c0.649,0.812,1.343,1.618,2.095,2.412l-3.196,4.261l-0.544-5.108L218.031,157.19z M216.301,157.959l-0.395-3.703c0.529,0.814,1.107,1.626,1.729,2.433L216.301,157.959z M220.575,160.063c0.554,0.566,1.131,1.127,1.743,1.678l-1.166,5.308l-0.104,0.155l-1.6-5.64L220.575,160.063z M218.039,172.865l2.739-4.108l-1.836,8.361L218.039,172.865z M233.613,158.755l-0.544,5.108l-3.219-4.293c0.745-0.796,1.439-1.602,2.081-2.416L233.613,158.755z M232.324,156.651c0.647-0.848,1.24-1.701,1.786-2.556l-0.411,3.864L232.324,156.651z M230.552,161.565l-1.601,5.638l-0.104-0.156l-1.171-5.33c0.605-0.552,1.185-1.109,1.733-1.675L230.552,161.565z M229.222,168.756l2.738,4.109l-0.902,4.255L229.222,168.756z M232.126,171.967l-2.712-4.068l1.617-5.694l2.015,2.687c0.078,0.104,0.216,0.151,0.338,0.116c0.126-0.035,0.218-0.144,0.232-0.273l0.578-5.426l3.387,3.223c0.076,0.072,0.183,0.103,0.287,0.08c0.104-0.023,0.188-0.096,0.228-0.194l0.86-2.188l2.37,8.431l-3.398-3.481c-0.079-0.082-0.2-0.115-0.306-0.086c-0.11,0.027-0.197,0.112-0.228,0.222l-1.124,3.978l-2.516-3.382c-0.075-0.103-0.205-0.149-0.328-0.12s-0.217,0.129-0.239,0.254L232.126,171.967z M234.278,158.511l0.606-5.683c0.477-0.816,0.911-1.628,1.307-2.435l2.541,9.041l-0.128-0.05l-0.928,2.36L234.278,158.511z M239.088,158.502l-0.552-14.078c0.548-1.821,0.924-3.526,1.174-5.04l1.232,25.715L239.088,158.502z M225,163.236c-13.331-10.337-14.733-24.498-14.707-30.191c0.342,0.042,0.702,0.042,1.007,0.042c3.439,0,11.424-2.115,13.786-4.269c2.282,2.358,10.194,4.269,13.514,4.269c0.371,0,0.704,0,1.028-0.044C239.708,135.527,239.632,151.797,225,163.236z M215.721,158.511l-3.398,3.233l-0.927-2.36l-0.129,0.051l2.508-8.924c0.412,0.831,0.862,1.666,1.359,2.502L215.721,158.511z M211.454,144.665l-0.543,13.836l-1.854,6.597l1.218-25.425C210.538,141.223,210.917,142.904,211.454,144.665z M211.044,160.227l0.86,2.189c0.039,0.099,0.124,0.171,0.227,0.194s0.211-0.007,0.288-0.08l3.386-3.223l0.579,5.426c0.014,0.13,0.105,0.238,0.231,0.273s0.26-0.013,0.339-0.116l2.015-2.687l1.616,5.694l-2.712,4.068l-1.061-5.923c-0.022-0.125-0.117-0.225-0.24-0.254c-0.126-0.03-0.253,0.019-0.328,0.12l-2.515,3.382l-1.125-3.979c-0.031-0.108-0.118-0.193-0.228-0.221c-0.11-0.028-0.227,0.004-0.306,0.086l-3.398,3.481L211.044,160.227z M212.144,166.016l1.151,4.071c0.033,0.116,0.129,0.204,0.248,0.226c0.123,0.027,0.241-0.025,0.312-0.123l2.462-3.311l1.035,5.778l-2.463,3.905l-1.388-4.163c-0.039-0.117-0.142-0.201-0.265-0.215c-0.012-0.002-0.024-0.002-0.037-0.002c-0.109,0-0.212,0.056-0.271,0.15l-2.518,4.08l-1.857-6.722L212.144,166.016z M201.583,181.438c-0.057-0.286-0.098-0.492,0.281-1.061c0.026-0.04,0.039-0.085,0.046-0.131c0.141-0.044,0.284-0.073,0.426-0.073c0.094,0,0.187,0.011,0.275,0.032c2.437,0.71,5.622,1.406,8.738,1.908c0.004,0.001,0.008,0.001,0.011,0.002c3.366,0.421,6.886,0.799,9.64,0.402c0.594,0,1.147,0.512,1.232,1.108c-0.057,0.088-0.156,0.18-0.331,0.32c-0.279,0.224-0.629,0.524-0.758,0.994c-0.178,0.06-0.371,0.111-0.588,0.146c-2.194,0.314-5.306,0.124-7.595-0.147c0.027-0.137,0.058-0.271,0.058-0.438c0-0.935-0.482-2.317-1.518-2.317c-0.968,0-1.918,0.949-1.908,1.84c-0.032,0.127-0.052,0.246-0.063,0.359c-0.117-0.021-0.229-0.042-0.352-0.064c-2.167-0.395-5.133-0.936-7.152-1.51c-0.194-0.083-0.357-0.177-0.505-0.275C201.689,182.02,201.634,181.696,201.583,181.438z M212.382,184.5c0,0.655-0.305,0.923-0.691,1.261c-0.194,0.17-0.4,0.35-0.566,0.585c-0.134-0.244-0.297-0.452-0.452-0.648c-0.372-0.474-0.641-0.816-0.455-1.598c0-0.623,0.659-1.282,1.282-1.282C212.039,182.817,212.382,183.814,212.382,184.5z M199.398,181.409c0.257-0.358,0.793-0.903,1.677-0.93c-0.21,0.453-0.18,0.755-0.115,1.081c0.046,0.233,0.086,0.436-0.043,0.797c-0.146,0.292-0.598,0.473-1.034,0.647c-0.341,0.137-0.69,0.275-0.965,0.485C198.779,182.835,198.953,182.028,199.398,181.409z M250.603,181.409c0.444,0.619,0.619,1.425,0.481,2.081c-0.276-0.21-0.625-0.349-0.966-0.485c-0.437-0.175-0.888-0.355-1.02-0.613c-0.144-0.396-0.104-0.598-0.058-0.831c0.064-0.326,0.095-0.628-0.115-1.081C249.81,180.506,250.345,181.051,250.603,181.409z M249.16,183.264c0.225,0.128,0.474,0.232,0.722,0.331c0.045,0.018,0.09,0.037,0.135,0.056c0.452,0.361,0.688,0.911,0.688,1.649c0,0.178,0.08,0.347,0.218,0.46c0.138,0.112,0.32,0.158,0.493,0.123c0.653-0.128,1.052,0.326,1.644,1.083c0.255,0.325,0.537,0.687,0.879,0.956c-0.167,0.323-0.25,0.688-0.319,0.988c-0.185,0.808-0.345,1.505-1.307,1.825c-0.243,0.081-0.407,0.309-0.407,0.564c0,1.576,0,2.296-1.969,2.629c-5.289,1.511-14.378,2.377-24.937,2.377c-10.558,0-19.647-0.866-25.002-2.392c-1.903-0.318-1.903-1.037-1.903-2.614c0-0.256-0.164-0.483-0.407-0.564c-0.984-0.327-1.165-1.074-1.357-1.865c-0.071-0.293-0.152-0.627-0.297-0.926c0.354-0.271,0.645-0.645,0.907-0.979c0.592-0.756,0.987-1.207,1.644-1.083c0.176,0.037,0.355-0.011,0.493-0.123c0.138-0.113,0.218-0.282,0.218-0.46c0-0.739,0.236-1.289,0.689-1.65c0.045-0.018,0.089-0.037,0.134-0.055c0.246-0.099,0.493-0.202,0.718-0.332c0.163-0.041,0.324-0.084,0.505-0.103c0.145,0.084,0.29,0.168,0.471,0.246c2.086,0.597,5.071,1.141,7.25,1.537c0.182,0.033,0.345,0.063,0.514,0.094c0.11,0.429,0.361,0.754,0.596,1.053c0.313,0.398,0.609,0.775,0.609,1.41c0,0.176,0.143,0.317,0.318,0.317s0.318-0.142,0.318-0.317c0-0.655,0.305-0.923,0.691-1.261c0.22-0.193,0.452-0.402,0.628-0.686c1.491,0.18,3.339,0.33,5.092,0.33c1.009,0,1.981-0.049,2.821-0.169c0.184-0.03,0.348-0.068,0.501-0.111c0.145,0.371,0.529,0.659,0.943,0.957c0.485,0.349,0.987,0.709,0.987,1.141c0,0.138,0.088,0.259,0.219,0.302c0.032,0.011,0.065,0.016,0.099,0.016c0.099,0,0.195-0.046,0.256-0.13c0.47-0.64,0.816-1.592,0.876-2.513c0.155,0.006,0.31,0.012,0.468,0.02c0.154,0,0.312-0.001,0.47-0.002c0.063,0.915,0.407,1.859,0.874,2.495c0.061,0.084,0.156,0.13,0.256,0.13c0.033,0,0.066-0.005,0.099-0.016c0.131-0.043,0.219-0.164,0.219-0.302c0-0.432,0.502-0.792,0.987-1.141c0.425-0.306,0.816-0.604,0.95-0.99c0.179,0.057,0.37,0.109,0.6,0.145c0.837,0.119,1.806,0.168,2.812,0.168c1.714,0,3.523-0.143,5-0.319c0.175,0.279,0.405,0.485,0.623,0.675c0.387,0.338,0.692,0.605,0.692,1.261c0,0.176,0.142,0.317,0.317,0.317s0.317-0.142,0.317-0.317c0-0.635,0.296-1.012,0.609-1.41c0.234-0.299,0.485-0.623,0.597-1.035c0.201-0.037,0.395-0.073,0.613-0.112c2.18-0.396,5.165-0.94,7.288-1.551c0.162-0.069,0.288-0.145,0.419-0.22C248.893,183.19,249.024,183.23,249.16,183.264z M237.617,184.5c0-0.686,0.344-1.683,0.883-1.683c0.623,0,1.282,0.659,1.291,1.359c0.177,0.705-0.092,1.047-0.464,1.521c-0.154,0.196-0.317,0.404-0.451,0.648c-0.167-0.235-0.373-0.415-0.566-0.585C237.923,185.423,237.617,185.155,237.617,184.5z M247.478,180.209c0.194-0.05,0.403-0.039,0.608,0.011c0.003,0.055,0.019,0.109,0.05,0.156c0.379,0.569,0.338,0.775,0.281,1.062c-0.052,0.263-0.111,0.593,0.084,1.155c-0.117,0.072-0.244,0.14-0.388,0.202c-2.056,0.588-5.023,1.129-7.189,1.523c-0.159,0.029-0.303,0.055-0.452,0.083c-0.011-0.096-0.027-0.195-0.055-0.3c0-0.968-0.949-1.917-1.917-1.917c-1.035,0-1.518,1.383-1.518,2.317c0,0.172,0.031,0.31,0.06,0.45c-2.283,0.265-5.334,0.444-7.493,0.137c-0.264-0.041-0.491-0.104-0.698-0.178c-0.136-0.453-0.479-0.745-0.752-0.964c-0.133-0.107-0.219-0.184-0.283-0.255c0.063-0.617,0.665-1.173,1.237-1.175c2.71,0.402,6.221,0.022,9.586-0.399c0.004-0.001,0.008-0.001,0.012-0.002C241.678,181.625,244.898,180.931,247.478,180.209z M244.594,180.288c-0.623,0.146-1.26,0.288-1.908,0.425l-2.527-3.596c-0.023-0.033-0.052-0.061-0.085-0.082l1.787-6.467L244.594,180.288z M241.445,169.691l-1.857,6.722l-2.518-4.08c-0.064-0.104-0.176-0.166-0.308-0.148c-0.122,0.014-0.226,0.098-0.265,0.215l-1.387,4.163l-2.463-3.905l1.035-5.778l2.462,3.311c0.072,0.098,0.193,0.147,0.312,0.123c0.119-0.021,0.215-0.109,0.248-0.227l1.15-4.07L241.445,169.691z M255.68,178.921l-1.31-1.218L252,124.2c-0.8,0.7-3.1,2.6-3.6,3.1L250.387,174l-1.514-1.408L246.9,128.5c-0.8,0.8-2.4,1.9-2.8,2.4l1.581,38.724l-1.51-1.404L242.6,131.7c-0.647,0.216-1.636,0.722-2.411,0.999c0-0.005-0.001-0.019-0.001-0.021l-0.026-0.339l-0.33,0.083c-0.366,0.091-0.748,0.091-1.231,0.091c-3.252,0-11.449-1.986-13.274-4.291l-0.211-0.265l-0.228,0.25c-1.901,2.092-10.204,4.306-13.587,4.306c-0.385,0-0.865,0-1.23-0.091L210,132.7l-0.142,0.02c-0.781-0.274-1.8-0.801-2.458-1.021l-1.586,36.866l-1.508,1.37L205.9,130.9c-0.4-0.5-2-1.6-2.8-2.4l-1.984,44.334l-1.512,1.374L201.6,127.3c-0.5-0.5-2.8-2.4-3.6-3.1l-2.374,53.623l-1.309,1.189L196.7,123.2c-0.708,0-2.356,1.018-3.558,1.807c0.175-2.583,1.019-4.317,2.525-5.138c0.753-0.411,1.618-0.578,2.527-0.578c2.944,0,6.35,1.754,7.933,2.676c2.875,1.848,6.062,2.81,9.529,2.902c-0.466,0.637-0.781,1.025-0.792,1.038l-0.409,0.498h0.645c1.495,0,3.363-0.928,4.327-1.47l-0.679,2.718l0.583-0.278c1.697-0.808,3.118-1.981,3.653-2.451l2.04,2.142l0.217-0.279c0.509-0.654,1.356-1.484,1.752-1.861c0.532,0.511,1.997,1.727,4.071,1.976l0.018,0.002l0.229-0.027l0.091-0.133c0.059-0.086,0.183-0.268-0.127-1.242c1.292,0.544,3.328,0.684,3.607,0.7l0.144-0.582c-0.267-0.12-0.543-0.388-0.818-0.753c3.516-0.069,6.745-1.026,9.649-2.893c2.12-1.196,7.398-3.792,10.522-2.057c1.478,0.818,2.306,2.536,2.479,5.088c-1.202-0.789-2.849-1.807-3.558-1.807L255.68,178.921z M245.104,181.906c-0.051-0.095-0.027-0.213,0.057-0.28c0.514-0.41,1.656-0.849,2.54-0.849c0.109,0,0.202,0.079,0.22,0.187c0.018,0.108-0.046,0.213-0.149,0.248l-2.4,0.8c-0.023,0.008-0.047,0.011-0.07,0.011C245.22,182.022,245.144,181.979,245.104,181.906z M236.6,183.601c0.093,0.046,0.142,0.149,0.117,0.25c-0.023,0.102-0.113,0.172-0.217,0.172h-2.8c-0.09,0-0.172-0.054-0.206-0.138c-0.034-0.083-0.016-0.179,0.049-0.242C234.047,183.137,235.77,183.186,236.6,183.601z M232.357,184.043c0.068,0.067,0.085,0.171,0.042,0.257c-0.038,0.076-0.115,0.123-0.199,0.123c-0.011,0-0.021,0-0.031-0.002l-2.8-0.4c-0.116-0.017-0.199-0.12-0.191-0.236c0.009-0.117,0.105-0.207,0.223-0.207C230.606,183.577,231.928,183.612,232.357,184.043z M229.8,190.5c-0.3,0-0.3,0-0.5,0c-0.2-0.1-0.3-0.2-0.3-0.4c0-0.2,0-0.3,0.3-0.4l0.2-0.1l0.2,0.1c0.2,0.1,0.4,0.2,0.4,0.4C230.1,190.3,230,190.5,229.8,190.5z M202.08,180.964c0.018-0.107,0.111-0.187,0.22-0.187c0.869,0,2.112,0.42,2.558,0.864c0.073,0.073,0.086,0.188,0.032,0.275c-0.042,0.067-0.114,0.105-0.19,0.105c-0.023,0-0.047-0.003-0.07-0.011l-2.4-0.8C202.125,181.177,202.062,181.072,202.08,180.964z M201.4,186.8c0.1-0.3,0.3-0.5,0.6-0.4c0.1,0.1,0.4,0.3,0.4,0.4c0,0.1-0.1,0.4-0.2,0.4c0,0-0.1,0-0.1,0.1c-0.1,0-0.3,0-0.4,0C201.4,187.2,201.3,187,201.4,186.8z M202.2,191.2c-0.1,0.1-0.2,0.1-0.3,0.1c-0.2,0-0.2,0-0.3-0.1c-0.2-0.2-0.2-0.4,0.2-0.7c0.2-0.1,0.2-0.1,0.4,0.1C202.5,190.8,202.5,191,202.2,191.2z M206.079,182.169c0.015-0.109,0.109-0.191,0.221-0.191c0.45,0,2.084,0.415,2.9,0.823c0.103,0.052,0.15,0.173,0.108,0.28c-0.034,0.087-0.118,0.142-0.208,0.142c-0.02,0-0.041-0.002-0.061-0.008l-2.8-0.8C206.132,182.384,206.063,182.279,206.079,182.169z M213.183,183.851c-0.023-0.101,0.025-0.204,0.118-0.25c0.83-0.414,2.552-0.463,3.058,0.041c0.063,0.064,0.083,0.16,0.048,0.243c-0.035,0.084-0.116,0.138-0.206,0.138h-2.8C213.296,184.022,213.207,183.951,213.183,183.851z M205.7,192.1c-0.2,0.2-0.3,0.2-0.6,0.1c-0.2-0.1-0.3-0.2-0.3-0.4s0-0.2,0.1-0.3c0.1-0.1,0.2-0.1,0.3-0.1c0.1,0,0.2,0,0.3,0.1C205.8,191.7,205.8,191.9,205.7,192.1z M216.7,192.8c-0.3,0.1-0.5,0.1-0.6-0.1c0-0.1-0.1-0.1-0.1-0.1c0-0.3,0-0.6,0.1-0.8c0.1-0.3,0-0.5,0.1-0.8c0.1-0.5,0.1-0.9,0.2-1.4c0-0.2,0-0.5,0.1-0.7c0.1-0.4,0-0.7,0.1-1.1c0-0.1,0.1-0.5,0.3-0.3c0.2,0.3,0.4,0.5,0.7,0.8c0.2,0.1,0,0.3-0.1,0.4c-0.2,0.1-0.3,0.3-0.2,0.5c0,0.2-0.1,0.4-0.1,0.6c0,0.3,0,0.6-0.1,0.9c-0.1,0.3-0.1,0.6-0.1,0.9c0,0.2-0.1,0.4-0.1,0.6S216.9,192.6,216.7,192.8z M215,187.6c-0.4,0-0.4,0.5-0.1,0.6c0,0.1,0,0.3,0,0.4c0.1,0.4-0.2,0.7-0.1,1.1c0,0.4-0.1,0.9-0.2,1.3c-0.1,0.4-0.1,0.9-0.2,1.4c-0.1,0.4-0.4,0.3-0.6,0.2v-0.5c0.1-0.4-0.2-0.5-0.6-0.6c-0.3,0-0.5-0.3-0.4-0.6c0.1-0.2,0.5-0.1,0.8-0.2c0.5,0.1,0.5-0.6,0.2-0.8c-0.2-0.3-0.6-0.4-0.7-0.8c0.1-0.4-0.2-0.9-0.6-1.1c-0.6,0-0.9,0.4-1.2,0.9l-0.7,0.2c-0.4,0.1-0.9,0.7-0.4,0.9c0.3,0.1,1.1,0.3,0.7,0.6c-0.2,0.4-0.6,0.4-0.9,0.3c-0.4,0-0.8-0.2-0.8-0.6c-0.1-0.4-0.1-0.8-0.2-1.1c-0.1-0.4-0.6-0.3-0.6,0.1c-0.4,0.3-0.3,0.7-0.1,1c0.2,0.4,0,0.8-0.2,1.1c-0.1,0.4-0.6,0.4-0.9,0.6c-0.2,0.1-0.8,0-0.6,0.3c0.4,0.1,0.8,0.2,1.2,0.2c0.4-0.1,0.8-0.3,1-0.7c0.3-0.3,0.8-0.1,1.1-0.1c0.4,0,0.8,0.3,1.2,0.1c0.1-0.3,0.6-0.8,0.8-0.3c0,0.4,0.4,0.7,0.8,0.6c0.4,0,0.3,0.3,0.3,0.6c0,0.5,0.3,0.7,0.7,0.9c0.1,0,0.3,0,0.4,0c0.4-0.1,0.8-0.3,0.9-0.7c0.1-0.3,0.1-0.7,0.3-1.1c0.1-0.6,0.2-1.1,0.2-1.7c0.1-0.5,0.1-1.1,0.2-1.6l0.2-1.2c-0.1,0-0.2,0-0.3,0C215.4,187.4,215.2,187.7,215,187.6z M212.5,190.3c-0.1,0-0.2,0.1-0.3,0.1c-0.3,0-0.5-0.1-0.6-0.2l-0.1-0.1l0.1-0.1c0.1-0.1,0.2-0.2,0.3-0.2c0.2-0.4,0.2-0.4,0.3-0.4s0.1,0.1,0.1,0.3c0,0.2,0.1,0.3,0.2,0.4C212.6,190.1,212.6,190.2,212.5,190.3z M207.1,190.6l0.4-1.8c0.1-0.2,0.2-0.8-0.2-0.6c-0.3,0.1-0.5,0.4-0.8,0.4c-0.4,0-0.2,0.5,0,0.7c0,0.3-0.1,0.6-0.2,0.9c-0.3,0.2-0.6,0-0.9-0.1c-0.3,0-0.9-0.1-0.6-0.5c0.1-0.3,0.1-0.6,0.2-0.9c0.1-0.3,0.2-0.6,0.2-1c-0.2-0.4-0.5,0.1-0.7,0.2c-0.2,0.1-0.8,0.2-0.5,0.5c0.3,0.2,0.1,0.6,0,0.9c0,0.4-0.4,0.5-0.7,0.4c-0.3,0-0.8-0.2-0.5-0.6l0.2-0.9l0.3-1c0.1-0.3,0.2-0.6,0.3-0.9c0-0.3,0.2-0.6,0.2-1c0.3-0.2,0.2-0.2,0.1-0.2c-0.2,0-0.4,0.1-0.6,0.2c-0.3,0.1-0.7,0.3-1,0.1c-0.3-0.1-0.7,0-0.8,0.4c0.1,0.3,0.5,0.5,0.8,0.3c0.2-0.3,0.8-0.4,0.8,0c-0.2,0.4-0.2,0.8-0.4,1.2c0,0.2-0.1,0.4-0.2,0.6c-0.2,0-0.5,0-0.7,0.1c-0.3,0-0.6,0.2-0.8,0.4c-0.2,0.3-0.4,0.6-0.4,0.9c0.1,0.4,0.5,0.5,0.8,0.5l1,0.3l1.6,0.4c0.8,0.2,1.6,0.4,2.4,0.6c0.1,0,0.2,0.1,0.2,0.1C206.9,191.3,207.1,190.9,207.1,190.6z M202.2,189c-0.1,0.1-0.1,0.1-0.1,0.1c-0.2,0-0.3-0.1-0.3-0.1c0-0.1,0-0.1,0.2-0.2c0-0.1,0-0.1,0.1-0.1h0.1C202.3,188.8,202.3,188.8,202.2,189z M203.6,191.3c0,0.2,0,0.2-0.1,0.3c-0.1,0-0.3,0.1-0.4,0c-0.2-0.1-0.4-0.3-0.3-0.5c0.1-0.2,0.1-0.2,0.4-0.2C203.6,190.9,203.6,191,203.6,191.3z M228,190.8c-0.4-0.1-0.8,0.3-1.2,0.3c-0.5,0.2-0.9,0.6-0.9,1.2c-0.3,0.4-0.7-0.1-0.6-0.4c0-0.2,0-0.4,0-0.5c-0.2-0.3-0.7-0.2-1.1-0.2c-0.5,0-1-0.1-1.5-0.1c-0.4,0-0.9,0-1.3-0.1c-0.5,0-0.4-0.5-0.5-0.9c-0.1-0.2-0.2-0.2-0.3-0.2c-0.3,0-0.7,0.3-0.7,0.6c0.1,0.4,0.4,0.8,0.2,1.1c0.1,0.5-0.4,0.7-0.7,0.4c-0.2-0.5-0.3-1-0.6-1.4c-0.4-0.1-0.6,0.5-0.9,0.8c0.1,0.4,0.6,0.7,0.6,1.2c0.1,0.5-0.2,1-0.6,1.2c-0.3,0.3-0.8,0.2-1.2,0.3c-0.5,0.3,0.4,0.4,0.6,0.4c0.5,0.1,1.1,0,1.4-0.4c0.4-0.2,0.4-0.9,0.8-0.9c0.8,0,1.6,0.1,2.4,0.1c0.4,0.1,1.1-0.1,1.4,0.3c0,0.6,0.5,0.9,0.9,1.1c0.2,0.1,0.5-0.2,0.8-0.3c0.5-0.1,0.3-0.8,0.6-1l2.5-0.1c0.2,0,0.2-0.2,0.3-0.3l-0.1-0.9C228.1,191.7,228.3,191.2,228,190.8z M224.6,193.2c0,0.1,0,0.3-0.1,0.4l-0.1,0.1c-0.1,0-0.3-0.1-0.3-0.2c0-0.2,0-0.4,0-0.5c0-0.1,0-0.1,0-0.2c-0.1-0.1-0.2-0.1-0.4-0.1l-1.3-0.1c-0.4,0-0.7,0-1.1-0.1c-0.1-0.1-0.3,0-0.4-0.2c-0.1-0.1,0.1-0.3,0.2-0.4c0.2-0.1,0.3-0.1,0.5-0.1c0.2,0,0.3,0,0.5,0.1c0.2,0,0.4-0.1,0.7,0c0.5,0.1,1,0.1,1.5,0.1c0.1,0,0.2,0.1,0.3,0.2V193.2z M227.3,192.4c-0.2,0.1-0.5,0.1-0.6,0c0-0.1,0-0.2,0.1-0.3c0.2-0.1,0.3-0.2,0.4-0.2s0.1,0,0.1,0.2l0.1,0.2C227.4,192.4,227.4,192.4,227.3,192.4z" />
</svg>
