<svg xmlns="http://www.w3.org/2000/svg" width="450px" height="300px" viewBox="0 0 450 300">
  <path fill="#75B2DD" d="M0,0h450v300H0V0z" />
  <path fill="#FFFFFF" d="M231.735,50.73h21.796l-17.634,12.812l6.735,20.729L225,71.459L207.366,84.27l6.735-20.729L196.468,50.73h21.796L225,30L231.735,50.73z M324.271,156.735L345,150l-20.729-6.735v-21.796l-12.812,17.634l-20.729-6.735L303.541,150l-12.812,17.634l20.729-6.735l12.812,17.634v-21.798H324.271z M235.898,236.459l6.735-20.729L225,228.541l-17.634-12.812l6.735,20.729l-17.634,12.812h21.796L225,270l6.735-20.73h21.796L235.898,236.459z M138.541,139.102l-12.812-17.634v21.796L105,150l20.73,6.735v21.796l12.812-17.634l20.729,6.735L146.459,150l12.812-17.634L138.541,139.102z" />
</svg>
