<svg xmlns="http://www.w3.org/2000/svg" width="450px" height="300px" viewBox="0 0 450 300">
  <path fill="#FFFFFF" d="M0,0h450v300H0V0z" />
  <path fill="#000000" d="M205.189,111.646c-0.028,0.672-0.581,1.197-1.247,1.197c-0.018,0-0.035,0-0.053-0.001c-0.033-0.001-3.368-0.137-9.747-0.137c-7.457,0-12.849-1.496-18.613-5.164c-5.809-3.697-13.379-4.082-20.699-3.945c-0.664,0.001-1.259-0.536-1.272-1.226c-0.013-0.689,0.536-1.259,1.226-1.272c7.706-0.139,15.72,0.284,22.086,4.336c5.328,3.39,10.332,4.773,17.271,4.773c6.438,0,9.818,0.138,9.852,0.139C204.682,110.375,205.218,110.957,205.189,111.646z M284.192,133.341c-0.412-0.457-2.378-2.549-5.447-4.397c-2.119-1.357-3.653-2.19-5.278-3.071c-1.771-0.961-3.602-1.955-6.348-3.732c-5.33-3.448-7.536-4.876-20.146-9.757l-0.891,2.302c12.374,4.79,14.518,6.176,19.695,9.527c2.113,1.367,3.693,2.28,5.113,3.065c-3.804-1.127-7.09-1.395-9.831-0.797c-3.269-0.001-3.506-0.044-6.419-3.279c-3.887-4.313-8.074-7.297-13.181-9.391c-5.487-2.248-15.154-5.93-15.251-5.967l-0.879,2.307c0.098,0.037,9.736,3.708,15.194,5.944c4.815,1.974,8.604,4.675,12.282,8.759c3.576,3.969,4.434,4.095,8.39,4.095l0.277-0.031c3.299-0.761,9.582-0.294,20.793,6.255c0.516,0.302,1.043,0.609,1.524,0.609c0.331,0,0.642-0.146,0.911-0.54C285.312,134.354,284.559,133.642,284.192,133.341z M356.9,68.26l-0.647,1.752c-11.765,26.004-18.664,44.207-20.506,54.101c-0.49,2.841-5.042,13.815-9.004,16.016l-0.583,0.325c-2.841,1.583-3.433,1.912-9.364,4.354c-2.828,1.165-5.581,2.298-8.544,2.298c-0.829,0-1.674-0.089-2.542-0.291c1.649,2.058,3.162,4.178,4.03,5.741c1.804,3.246,9.815,6.251,13.665,7.694l0.561,0.21c5.659,2.113,12.072,4.508,12.195,13.131c0,5.402,0.074,10.152,0.189,12.118l0.011,0.184c1.182,1.594,6.975,10.763-3.271,25.697c-1.874,2.812-3.898,12.6-4.322,20.93l-0.033,0.637l-0.534,0.348c-7.905,5.135-13.182,10.555-16.604,17.057l-0.634,1.205c-1.352,6.056-5.274,9.705-10.401,9.705c-0.252,0-0.505-0.009-0.763-0.026c-2.237-0.153-4.383-1.392-6.203-3.58c-2.538-3.052-4.04-7.488-3.801-9.562l0.055-0.47l15.931-14.307c-1.298-5.576-2.996-11.195-5.707-16.07l-0.458-0.824l0.871-0.871l0.246-0.096c12.837-4.973,18.422-9.879,22.842-15.532c-0.004-0.022-0.009-0.048-0.013-0.067c-0.795-4.505-1.607-8.227-2.418-11.061c-1.133-3.968-5.422-6.935-13.109-9.069c-9.294-2.339-12.386-11.754-13.398-17.157c-1.12-5.971-3.453-10.385-5.36-13.564l-0.432-0.72c0,0,0.736-0.978,0.906-1.196c-0.219,0.043-0.437,0.075-0.649,0.075c-0.571,0-1.105-0.158-1.53-0.477c-0.04-0.03-0.067-0.07-0.104-0.102c-0.665,1.153-1.233,2.458-1.589,3.795c-0.488,1.839-0.475,3.395,0.036,4.161c1.806,2.708,2.805,6.651,2.847,6.818l0.184,0.735l-8.614,0.453c0.048,0.445,0.319,1.303,1.511,2.494c4.388,4.389,4.466,5.452,4.283,5.932c-0.116,0.917-1.631,1.046-3.854,1.236c-0.881,0.075-2.152,0.184-2.668,0.346c4.52,22.035,13.977,31.561,17.544,35.154c1.194,1.203,1.688,1.7,1.696,2.256l0.004,0.33l-1.441,0.996c-14.831,6.859-21.153,15.191-27.268,23.25c-2.062,2.716-4.008,5.282-6.245,7.742c-1.087,1.196-2.252,2.576-3.484,4.038c-7.342,8.698-17.841,21.138-34.557,21.138c-3.167,0-6.555-0.446-10.189-1.448l-0.39-0.108l-0.061-0.399c-0.476-3.102-3.364-18.919-13.499-25.77c-6.416-3.908-13.164-9.039-14.725-17.413c-9.211,2.166-25.996,3.383-33.996-2.298c-2.718-1.93-4.243-4.515-4.532-7.683c-0.156-1.713,0.219-3.666,0.616-5.733c0.752-3.916,1.529-7.961-1.009-11.11c-1.42,0.037-6.547,0.11-8.092-0.61l-0.124-0.059l-0.088-0.104c-1.624-1.917-0.489-7.592,0.651-9.982c-1.838-0.656-4.238-2.769-4.742-5.295c-0.352-1.764,0.094-4.317,4.181-6.51c1.696-2.042,1.655-3.737,1.608-5.696c-0.002-0.1-0.005-0.2-0.007-0.302c-1.605,0.011-4.271-0.028-4.716-0.059c-3.403-0.012-5.626-0.849-6.758-2.557c-1.715-2.59-0.425-6.568,1.064-10.117c1.703-3.832,11.727-22.985,13.545-25.712c1.598-2.397,1.67-3.462,0.403-5.997c-1.443-2.886-0.925-7.517-0.042-10.606c0.131-0.458,0.281-0.954,0.438-1.472c0.715-2.364,1.911-6.321,1.046-7.186c-1.621-1.621-1.031-6.398-0.559-7.344c0.375-0.751,0.375-2.966,0.375-3.694c0-1.021,0.5-3.464,2.044-4.493c0.64-0.427,1.274-1.736,1.385-2.859c0.059-0.591-0.047-0.928-0.156-1.037c-0.882-0.882-0.28-3.789-0.075-4.659c0.305-1.292,0.981-3.513,2.085-3.881c1.276-0.425,3.637-1.211,4.867-3.945c-0.088-4.583,3.384-9.551,5.47-11.783c0.827-0.828,0.877-3.658,0.718-5.251l-0.07-0.703l4.37,0.1c0.144-0.141,0.388-0.406,0.609-0.646c1.291-1.403,3.693-4.014,6.138-4.712c2.799-0.8,9.065-3.886,9.944-4.322l5.096-5.56l4.596,2.298c0.881-0.315,3.821-1.323,6.496-1.705c2.985-0.426,9.417-2.593,11.479-5.894c0.245-0.392,0.89-1.433,1.768-1.177c1.022,0.296,1.225,2.082,1.216,5.273c1.454-0.535,4.76-1.637,9.511-1.298c2.82,0.201,5.799,0.85,8.427,1.422c2.937,0.64,5.71,1.245,6.75,0.828c2.375-0.95,4.607,1.362,5.05,1.859c0.612,0.353,4.484,2.512,7.544,2.512h7.164l0.464,3.249c1.437,0.499,6.697,2.338,9.396,3.495c0.735,0.315,1.445,0.651,2.154,0.986c2.287,1.081,4.448,2.103,7.382,2.429c4.144,0.46,5.609,1.884,5.67,1.945l0.318,0.318l-1.631,3.263c1.48,0.502,4.661,2.001,5.852,5.847c0.495,0.662,1.02,1.398,1.562,2.16c2.193,3.079,4.923,6.91,6.806,7.223c2.768,0.461,4.61,1.825,4.688,1.883l0.516,0.387l-3.639,4.548c0.375,0.501,1.147,1.47,2.307,2.629c1.731,1.731,5.232,4.797,5.268,4.828l0.38,0.333l-2.366,4.261c0.02,0.329,0.102,1.214,0.422,2.818c0.094,0.466,0.168,1.009,0.246,1.585c0.271,1.985,0.607,4.456,2.022,5.021c2.29,0.916,2.563,3.364,2.596,3.976c0.035,0.118,0.045,0.256,0.01,0.406c-0.102,0.432-0.492,0.931-2.641,1.647c-0.516,0.172-0.999,0.312-1.434,0.437c-0.661,0.19-1.568,0.452-1.684,0.647c0.004,0,0.005,0.165,0.33,0.598c1.313,1.752,3.518,4.837,3.539,4.869l0.394,0.55l-0.58,0.348c-0.094,0.056-2.326,1.386-4.614,1.843c-1.464,0.293-2.911,0.397-3.766,0.434c0.722,3.185,2.072,7.811,3.136,8.609c0.958,0.718,0.621,1.439,0.495,1.644c-0.746,1.206-4.302,1.369-6.447,0.297c-0.335-0.167-0.47-0.144-0.47-0.145c-0.021,0.058-0.091,0.565,0.23,1.453c0.195,0.538,0.452,0.994,0.711,1.33l0.77,0.308c0.001,0,1.715,0.598,6.248,0.294c15.009-5.931,10.143-28.056,10.092-28.28l-9.628-33.324c-0.781-0.714-1.484-1.614-2.098-2.72c-1.16-2.317-0.637-4.025,0.002-5.058c1.557-2.519,5.231-3.457,7.183-3.457c1.392-0.05,3.532-0.796,5.8-1.587c0.496-0.173,1.016-0.353,1.546-0.533l-0.09-2.489c-0.061-0.96-0.145-7.579-0.026-9.102l0.076-0.992l0.983-0.147c6.774-1.018,10.39-0.576,11.725,1.428c1.65,2.493,1.485,4.588,0.858,6.1l0.047,0.517c0.354,3.896,0.412,6.265,0.288,7.716c2.187,0.089,4.341,0.544,5.794,1.757c1.09,0.91,1.686,2.123,1.769,3.607c0.171,4.774-5.279,5.167-9.26,5.455c-2.009,0.145-4.087,0.295-4.987,0.869c-1.104,0.716-2.842,2.171-1.985,3.812c0.751,1.437,3.267,2.513,5.255,1.703c1.662-0.697,4.187-2.383,6.714-6.436l0.366-0.588l0.723-0.046c0.32-0.001,2.511-0.195,4.83-0.399c2.086-0.184,4.117-0.361,6.006-0.519l0.462-0.504c0.453-0.421,2.72-3.575,1.56-7.479c-0.766-1.281-0.169-2.013,0.134-2.274c1.911-1.651,7.135,2.974,7.188,3.021C358.337,64.919,357.644,67.199,356.9,68.26z M318.611,53.927l0.002,0.042l0.059,1.628c1.219-0.168,3.471-0.844,5.424-1.955c0.503-0.33,0.934-0.654,1.295-0.928c0.208-0.158,0.437-0.328,0.676-0.483c0.398-0.366,0.749-0.757,1.019-1.177c0.883-1.373,0.79-2.773-0.292-4.407c-0.165-0.249-1.331-1.403-8.25-0.485C318.5,48.491,318.567,53.308,318.611,53.927z M306.092,68.581c0.925-1.596,3.55-3.475,4.838-3.904l0.395,1.186c-1.185,0.394-3.421,2.147-4.114,3.258c0.243,0.078,0.491,0.143,0.749,0.179c0.085,0.012,0.172,0.01,0.257,0.017c1.083-0.027,2.371-0.27,3.702-0.786c2.516-1.156,4.735-3.223,5.574-4.062c2.004-2.004,3.829-3.129,5.707-3.83c0.915-0.428,1.822-0.734,2.669-0.84c0.376-0.047,0.769-0.088,1.171-0.123c0.173-0.029,0.347-0.057,0.523-0.084c0.081-0.958,0.03-2.894-0.076-4.78l-0.276-0.277c-0.576,0.466-1.2,0.893-1.855,1.271c-1.109,0.716-2.575,1.48-4.487,1.958c-1.839,0.459-3.642,1.088-5.385,1.696c-2.557,0.892-4.765,1.662-6.578,1.725c-1.575,0-4.186,0.791-5.102,2.273c-0.449,0.727-0.422,1.571,0.082,2.58c0.065,0.118,0.135,0.222,0.202,0.334c1.117-1.466,3.344-3.017,4.499-3.402l0.395,1.186c-1.196,0.399-3.467,2.184-4.136,3.293C305.233,67.911,305.649,68.288,306.092,68.581z M178.239,134.931l-1.234-0.264c-8.269-1.771-14.458-5.423-18.398-10.856l-2.275,1.65c1.194,1.646,2.587,3.125,4.136,4.471c-1.99,1.674-1.953,5.539-0.74,7.692c0.562,0.993,1.517,1.477,2.392,1.65c0.138-0.06,0.561,0.081,0.512-0.068c2.456-0.433,3.194-3.332,3.021-5.672c2.143,1.172,4.496,2.156,7.071,2.933c-3.19,0.908-7.464,2.034-9.804,4.973l2.206,1.741c1.674-2.121,5.355-3.16,8.043-3.919c2.764-0.78,4.761-1.344,4.941-3.076L178.239,134.931z M287.773,140.115c2.207,0.368,1.47-5.518-2.208-8.46s-13.976-7.724-16.183-10.666s-18.022-11.769-22.436-12.137c-4.414-0.368-9.931-3.31-9.931-3.31s8.277-0.137,4.231-0.873s-11.954-3.908-16-5.38s-7.356-1.471-11.77-1.471s-33.714-7.176-41.025-11.638c-5.517-1.839,26.175,7.362,29.853,7.73c6.253,0.919,8.23-0.322-2.069-5.287c-4.414-2.575-24.069-12.882-39.801-17.189c-1.61,1.61-1.025,2.109-3.967,4.316s-5.517,5.885-2.942,8.092c3.31,2.942,4.781,4.046,4.781,4.046s-5.885-1.839-6.988,0.368c-1.103,2.207-2.391,5.563,0,6.253c1.839,1.103,5.885,3.31,5.885,3.31s-9.195-1.103-6.988-0.736c-1.103,2.942-2.207,8.091,3.678,10.298s24.275,8.827,27.585,10.666c3.31,1.839,10.666,2.942,14.344,2.942s17.288,0.736,15.08,0.736l-8.092,2.207c-1.38,0.138,16.735,6.159,19.402,5.609c1.425-3.311,19.952-20.688,30.25,0.644c1.103,4.781-2.575,12.137-6.253,13.609c-3.678,1.471-5.517,3.31-6.988,7.356c-1.471,4.046-5.238,11.263-9.285,10.667c-5.566-3.632-8.001-3.311-5.427-0.369c2.851,4.047,9.516,4.231,12.873-0.736c2.804-3.448,5.331-12.366,11.034-14.712c2.942-1.103,6.62-8.092,6.62-8.092s5.149-0.368,7.356,1.839s7.724,2.207,11.034,1.839c2.158-0.24,5.261-0.849,6.659-1.245c-0.073-0.03-0.147-0.059-0.215-0.106c-0.351-0.248-1.445-1.046-2.208-1.867c-1.451-0.27-2.136-0.757-3.694-0.769c-1.254-0.03-2.356-0.198-3.422-0.36c-1.678-0.238-3.406-0.617-5.222-0.784c-0.972-0.331-3.426-0.3-4.484-0.279c-2.059,0.293-2.116-2.416-0.034-2.186c4.009-0.14,6.531,0.582,10.068,1.087c1.792,0.375,4.395,0.217,5.951,0.819c0.575,0.185,1.3,0.358,1.993,0.445c0.546,0.754,1.483,1.524,2.313,2.108c0.526,0.345,0.554,1.009,0.273,1.475C283.19,139.889,286.399,139.886,287.773,140.115z M244.072,136.892c-0.443,0.819-0.479,1.625-0.093,2.222c0.726,1.106,2.357,0.862,2.803-0.462c2.209-9.311-0.693-12.65-3.517-13.811c-6.218-2.26-15.095,2.361-17.918,6.449c-0.24,0.408-0.971,1.65-0.32,2.433c0.596,0.648,1.629,0.511,1.959-0.021c1.981-3.129,10.994-8.171,15.393-6.271C245.474,128.767,245.016,133.296,244.072,136.892z M229.674,149.892c0.123-0.98-0.546-1.934-1.58-1.924c-0.873,0-1.58,0.708-1.58,1.58v1.634l0.393,0.447c0.589,0.66,1.338,1.081,1.919,1.707h0.634c0.66-0.003,1.5-0.016,2.282-0.188c1.208-0.314,1.943-1.003,2.477-2.065c0.079-0.811,0.273-1.527,0.407-2.374c0.074-0.582,0.145-1.315,0.302-1.77l0.072-0.442c0.065-0.107,0.18-0.236,0.255-0.345c2.018-1.482,4.457-2.742,5.37-5.289c0.266-0.869,0.064-1.81-0.107-2.477c-0.19-1.019-0.858-1.9-1.476-2.661c-1.481-1.347-3.388-1.474-3.803,0.364c-0.115,0.854,0.497,1.645,1.349,1.775c0.38,0.119,0.632,0.759,0.799,1.011c0.076,0.345,0.223,0.855,0.206,1.067c-0.14,0.358-0.389,0.647-0.672,0.944c-0.67,0.879-1.625,1.317-2.441,1.912l-0.351,0.17c-0.363,0.519-0.883,0.583-1.343,1.216c-0.872,0.829-1.149,2.796-1.287,4.067c-0.097,0.59-0.235,1.174-0.325,1.751C230.709,150.162,230.038,150.317,229.674,149.892z M290.169,145.863c3.203-0.967,5.863-4.023,6.266-7.138c0.178-1.375-0.039-3.275-2.079-4.522c-2.491-1.127-2.964-0.788-3.01-0.744c-0.098,0.091-0.175,0.556,0.226,1.67c0.719,0.937,1.225,3.234,1.23,3.264c0.433,2.468-0.453,4.127-2.496,4.672c-1.31,0.494-2.192,1.261-2.303,2.033c-0.047,0.329,0.065,0.614,0.316,0.802C288.737,146.211,289.429,146.199,290.169,145.863z M308.549,251.139l-2.418-14.568l-13.857,12.444c0.103,1.492,1.219,4.819,3.242,7.253c0.958,1.151,2.508,2.552,4.453,2.686c1.232,0.079,2.287-0.103,3.202-0.452c-2.549-1.245-5.55-3.675-6.333-4.593l-1.088-1.275l1.285-1.096l1.088,1.275c0.923,1.081,4.77,3.976,6.89,4.626c0.331-0.266,0.639-0.551,0.915-0.859c-2.394-0.902-6.135-4.076-7.081-5.274c-0.914-1.157-1.136-1.505-1.171-1.562l1.275-0.777c0.005,0.007,0.205,0.321,1.067,1.414c0.896,1.134,4.908,4.463,6.796,4.92l-0.043,0.179c0.297-0.452,0.551-0.915,0.767-1.371c-2.251-0.56-5.893-3.595-6.795-4.795c-0.884-1.174-1.04-1.773-1.066-1.978l1.48-0.191c0-0.002,0-0.003,0-0.003c0.005,0,0.129,0.41,0.779,1.273c0.792,1.053,4.489,4.07,6.159,4.287l-0.008,0.058C308.307,252.128,308.455,251.563,308.549,251.139z M335.084,188.571c-2.165,2.664-3.889,5.158-5.562,7.581c-5.45,7.888-10.177,14.727-26.6,21.336c3.863,7.538,5.59,16.386,7.122,24.241c0.189,0.966,0.374,1.908,0.559,2.836c0.251-0.768,0.466-1.794,0.603-2.941l-0.005-3.878c-0.122-1.086-0.284-3.124-0.284-3.687h1.561c0,0.462,0.152,2.415,0.28,3.603l0.004,4.055c-0.095,0.831-0.29,2.14-0.65,3.27c0.446-0.629,0.916-1.249,1.404-1.861c0.059-0.556,0.149-1.024,0.237-1.478c0.132-0.678,0.257-1.317,0.284-2.269c0-1.031-0.069-1.771-0.143-2.554c-0.06-0.631-0.118-1.265-0.142-2.06c-0.104-0.623-0.283-1.456-0.283-1.456l0.003-0.358c0.019-0.354,0.125-0.863,0.732-0.903c0.758-0.058,0.833,0.684,0.873,0.995c0.04,0.305,0.108,0.832,0.227,1.578c0.031,0.855,0.088,1.458,0.145,2.059c0.073,0.784,0.148,1.595,0.148,2.722c-0.016,0.548-0.059,1.004-0.115,1.412c0.555-0.605,1.135-1.203,1.736-1.793c0.029-0.2,0.064-0.367,0.096-0.522c0.066-0.317,0.124-0.592,0.124-1.148c-0.036-1.194-0.157-2.162-0.285-3.187c-0.11-0.889-0.226-1.808-0.28-2.9l1.559-0.078c0.053,1.034,0.164,1.925,0.271,2.785c0.127,1.016,0.258,2.065,0.296,3.356c0,0.012-0.001,0.02-0.001,0.032c0.347-0.31,0.704-0.618,1.065-0.924c-0.098-1.594-0.311-5.784-0.336-6.345l-0.021-0.567l1.561-0.022c0.026,0.906,0.284,4.185,0.284,5.41c0,0.098,0.004,0.188,0.008,0.278c0.452-0.358,0.932-0.709,1.403-1.062c0.132-0.909,0.148-2.116,0.148-3.219c0-0.343-0.009-0.744-0.018-1.135c-0.025-1.18-0.028-1.616,0.047-1.88l0.468-0.568h1.314l-0.28,0.992c-0.016,0.131,0,0.878,0.012,1.423c0.009,0.401,0.018,0.814,0.018,1.168c0,0.675-0.008,1.356-0.038,2.006c0.551-0.387,1.098-0.776,1.674-1.157c0.473-7.818,2.432-18.145,4.713-21.566C338.796,198.858,336.562,191.433,335.084,188.571z M299.88,143.98c1.083,1.338,1.878,2.628,2.297,4.86l0.586,3.123l-1.229,0.23l-0.586-3.123c-0.469-2.501-1.454-3.647-2.944-5.382c-0.139-0.162-0.291-0.343-0.437-0.515c-0.353,0.188-0.739,0.45-1.146,0.767c0.385,0.518,0.755,1.004,1.092,1.437c1.446,1.862,2.491,3.207,3.097,5.775l0.78,3.319l-1.217,0.285l-0.78-3.318c-0.542-2.303-1.467-3.493-2.867-5.295c-0.33-0.426-0.686-0.886-1.062-1.392c-0.451,0.41-0.91,0.862-1.362,1.335c1.141,5.204,4.844,14.022,7.527,16.884l2.928,3.123l-0.912,0.854l-2.928-3.123c-2.734-2.917-6.272-11.173-7.637-16.624c-0.435,0.495-0.85,0.991-1.226,1.465c1.923,3.294,4.13,7.745,5.237,13.653c0.903,4.816,3.609,13.196,11.582,15.203c8.626,2.395,13.48,5.924,14.873,10.798c0.494,1.728,0.988,3.776,1.476,6.107c0.041-0.619,0.075-1.245,0.075-1.934c-0.028-0.924-0.146-1.648-0.271-2.415c-0.117-0.726-0.239-1.476-0.296-2.457c-0.072-0.431-0.284-1.098-0.284-1.098l0.008-0.703c0.031-0.383,0.164-0.799,0.724-0.839c0.709-0.058,0.833,0.643,0.892,1.059c0.042,0.298,0.107,0.77,0.211,1.412c0.061,0.979,0.176,1.689,0.287,2.376c0.128,0.782,0.259,1.592,0.29,2.642c0,1.144-0.075,2.128-0.148,3.079c-0.007,0.086-0.012,0.174-0.019,0.259l0.989-1.399c0.004-0.043,0.008-0.086,0.012-0.129c0.082-0.865,0.159-1.683,0.159-2.688l-0.073-1.027c-0.107-1.539-0.209-2.994-0.211-4.685c-0.106-0.728-0.283-1.596-0.283-1.596l0.003-0.385c0.019-0.373,0.126-0.876,0.736-0.913c0.762-0.037,0.829,0.678,0.87,1.026c0.04,0.327,0.108,0.894,0.227,1.696l0.008,0.113c0,1.661,0.102,3.104,0.209,4.633l0.074,1.085c0,0.15-0.005,0.287-0.007,0.429l0.452-0.64l0.034-0.718c0.133-0.718,0.229-1.236,0.229-2.214l0.05-0.275c0.359-0.954,0.106-2.541-0.001-3.219l-0.042-0.276l1.547-0.207l0.037,0.237c0.133,0.838,0.405,2.55-0.03,3.875c-0.001,0.083-0.006,0.148-0.008,0.226l2.362-3.343c-0.104-2.216-0.17-6.74-0.17-11.807c-0.099-6.897-4.952-8.71-10.571-10.809l-0.563-0.21c-7.637-2.864-13.105-5.46-14.972-8.821C306.085,151.123,302.498,146.594,299.88,143.98z M353.176,70.757c-3.256,0.142-9.561,0.699-13.67,1.062c-2.159,0.19-3.553,0.313-4.341,0.371c-2.793,4.264-5.63,6.112-7.556,6.919c-1.689,0.69-3.65,0.585-5.309-0.115c2.229,8.42,1.241,24.372,0.577,26.471l-0.736,2.326l-1.566-0.496l0.736-2.325c0.667-2.108,1.628-20.737-1.247-27.504c-0.346-0.365-0.647-0.767-0.879-1.21c-0.479-0.916-1.687-4.13,2.849-7.071c1.441-0.918,3.732-1.083,6.158-1.259c4.859-0.351,7.016-0.846,6.944-2.849c-0.043-0.761-0.321-1.342-0.874-1.803c-1.201-1.001-3.725-1.387-7.004-1.104c-1.134,0.192-2.163,0.428-3.157,0.797c-2.168,1.053-4.601,3.051-6.021,4.471c-1.476,1.475-3.203,2.55-4.951,3.278c-1.412,0.669-2.936,1.129-4.477,1.129c-0.121,0-1.307-0.028-1.744-0.081l8.914,30.856c0.073,0.312,5.459,24.698-11.787,31.305l-0.174,0.066l-0.185,0.013c-2.532,0.18-4.321,0.103-5.52-0.035l0.172,0.948c3.961,0.704,12.674-0.186,16.039-2.665l3.709-2.733l0.74,1.006l-3.709,2.733c-2.995,2.207-9.171,3.129-13.619,3.129c-1.107,0-2.106-0.057-2.923-0.166l0.13,0.718c3.932,1.254,12.357,1.68,15.989-0.194l4.094-2.114l0.572,1.11l-4.094,2.114c-1.97,1.017-4.983,1.406-8.025,1.406c-3.091,0-6.196-0.404-8.287-0.956l0.286,1.576c6.657,6.717,10.632,5.078,16.614,2.616c5.796-2.386,6.365-2.703,9.1-4.227l0.586-0.326c2.812-1.563,7.282-11.515,7.757-14.272C335.127,113.794,341.816,96.001,353.176,70.757z M354.788,65.668c-0.773-1.657-3.159-3.438-4.8-4.36c0.507,2.923-0.341,5.512-1.315,7.2c1.763-0.08,4.488-0.545,6.259-1.817C355.003,66.522,355.044,66.217,354.788,65.668z M334.026,81.64l-1.24-0.15c-0.299,2.469-0.426,7.229,0.451,10.226l0.86,2.943l1.199-0.351l-0.86-2.943C333.612,88.549,333.739,84.006,334.026,81.64z M334.911,76.675l-0.789,1.076l1.008,0.738l0.789-1.076c0.665-0.906,2.906-2.139,4.582-2.723l-0.41-1.18C338.497,74.065,335.837,75.414,334.911,76.675z" />
</svg>
