<svg xmlns="http://www.w3.org/2000/svg" width="450px" height="300px" viewBox="0 0 450 300">
  <path fill="#DA121A" d="M0.01,300H450L449.99,0H0L0.01,300z" />
  <path fill="#002488" d="M0,0v100.119h449.99V0L0,0L0,0z" />
  <path fill="#008000" d="M78.815,128.145c-3.194-4.589-5-8.065-4.167-7.787c2.222,0.834,34.721,31.009,34.166,31.704c-0.278,0.278-5.972-3.198-12.5-7.648C87.426,138.435,82.843,134.124,78.815,128.145z M171.24,162.565c-1.942-0.065-5.792-1.175-8.808-2.582h0c-1.452-0.643-2.727-1.416-3.719-2.191c-1.052,0.032-2.258,0.041-3.597,0.027c1.348,0.628,2.787,1.219,4.142,1.652c7.048,2.568,9.361,4.743,4.318,4.385c-6.87-0.594-12.117-2.865-14.122-6.214c-0.482-0.024-0.971-0.049-1.474-0.078c-1.257-0.077-2.417-0.141-3.511-0.198c0.137,0.107,0.271,0.218,0.396,0.336c0.972,1.112,3.333,2.642,5.139,3.615c0.417,0.244,0.808,0.496,1.154,0.744c0.876,0.399,1.739,0.812,2.555,1.226c0.554,0.097,1.037,0.258,1.407,0.49c0.978,0.612,1.561,0.979,1.679,1.215c1.356,0.836,2.223,1.545,2.191,1.932c-0.009,0.536-2.964-0.04-6.966-1.144c-1.68,0.345-3.75,0.975-5.549,1.735c2.496,1.169,5.168,2.325,7.895,3.398c6.667,2.503,9.028,4.033,7.5,4.589c-1.57,0.611-9.874-2.835-17.659-6.86c-0.289,0.244-0.62,0.517-0.989,0.815c0.866,0.299,1.772,0.792,2.481,1.457c0.972,1.112,3.333,2.642,5.139,3.615c0.206,0.12,0.405,0.243,0.596,0.365c1.805,0.473,3.197,1.093,3.489,1.581c1.25,1.947-12.777,1.808-16.388-0.139c-0.185-0.108-0.395-0.213-0.614-0.317l-0.384,0.077c-0.973,0.205-2.208,0.309-3.526,0.331c-3.012,2.45-4.997,4.616-6.198,6.948c0.177-0.049,0.344-0.096,0.524-0.145c12.361-3.476,16.805-4.033,17.916-2.225c0.417,0.695-1.805,1.669-5.139,2.086c-5.249,0.849-10.129,1.841-14.302,2.881c-0.24,0.909-0.397,1.858-0.464,2.876c3.576-2.618,8.211-3.054,15.542-1.745c1.788,0.275,3.949,0.928,6.018,1.726c5.133-1.583,11.697-2.279,11.697-1.031c0,0.24-3.206,1.515-7.473,2.931c2.224,1.172,3.691,2.301,3.322,2.849c-0.127,0.189-3.178-0.468-7.197-1.577c-9.849,3.378-13.055,6.557-14.762,14.708l-1.389,6.257l-0.139-6.675c-0.132-7.419,2.775-11.556,11.456-15.659c-8.066-2.148-12.48-1.938-17.054,1.35c0.032,0.47,0.071,0.949,0.125,1.449l0.61,6.381l-2.192-6.305c-0.035-0.102-0.061-0.199-0.094-0.3c-0.516,0.442-1.038,0.909-1.574,1.43l-4.646,4.41l3.613-5.611c0.629-0.971,1.279-1.821,1.956-2.582c-0.302-1.439-0.391-2.794-0.275-4.113c-5.228,1.455-8.965,2.96-10.277,4.273c-1.389,1.391-2.639,4.728-2.778,7.092c-0.139,4.311-0.139,4.45-1.25,1.112c-2.573-8.116-0.845-10.385,14.772-14.877c0.802-2.64,2.568-5.232,5.448-8.133c-1.237-0.147-2.419-0.358-3.401-0.647c-0.227-0.068-0.466-0.144-0.701-0.218l-2.13,1.109c-1.944,0.973-6.944,2.642-11.111,3.615c-4.167,0.973-8.75,2.642-10,3.894c-1.528,1.251-2.5,1.391-2.5,0.556c0-1.947,1.944-3.198,11.111-6.814c4.167-1.53,9.583-2.92,11.805-3.059h0.736c-1.058-0.373-2.17-0.788-3.334-1.248c-1.455-0.135-2.938-0.271-4.386-0.4c-12.361-1.112-17.5,0.695-19.166,6.675c-0.417,1.53-1.111,2.642-1.528,2.086c-0.417-0.417-0.139-2.503,0.694-4.589s1.25-4.172,0.972-4.45c-1.111-1.112-12.5,2.225-13.611,4.033c-0.694,1.112-1.25,1.252-1.25,0.278c0-2.503,3.194-4.589,9.166-5.979c4.044-0.964,12.093-1.422,20.431-1.417c-4.273-1.995-8.678-4.24-12.714-6.479c-3.586-0.369-6.675-0.586-8.828-0.586c-7.917,0-10,1.112-11.25,6.257c-0.694,2.781-0.694,2.781-0.833,0c-0.277-5.692,2.077-6.949,16.046-8.475c-3.31-1.993-6.125-3.887-8.076-5.493c-0.441-0.048-0.875-0.114-1.283-0.216l-4.167-0.695l3.222-1.048c-2.954-2.682-4.079-4.011-2.39-2.936c0.858,0.561,2.269,1.459,3.832,2.467l0.892-0.29c3.534-1.083,5.453-1.599,6.972-1.635c-0.033-0.057-0.061-0.109-0.085-0.158c-12.11-3.802-25.232-7.358-34.546-9.053c-3.055-0.556-2.917-0.556,0.833-0.834c3.393-0.117,15.186,2.528,27.931,5.89c-2.884-1.217-5.502-2.558-6.522-3.526c-1.528-1.391-5.833-3.894-9.444-5.562s-6.528-3.198-6.528-3.476c0-0.973,0.278-0.973,8.889,2.086c1.047,0.363,2.319,0.884,3.72,1.506c-1.346-1.001-2.414-1.926-2.922-2.612c-1.263-1.635-5.069-4.849-8.336-7.12c-3.267-2.271-5.874-4.285-5.826-4.558c0.169-0.959,0.442-0.91,8.392,3.6c6.435,3.585,21.33,15.61,21.398,17.186c4.529,2.575,7.959,4.847,7.607,5.328c2.911,0.824,5.764,1.657,8.474,2.473c-0.421-0.982,0.246-0.824,2.035,0.618c9.372,2.875,16.609,5.467,17.659,6.661c1.453,1.576,8.498,6.426,14.238,9.856c0.858-0.428,1.668-0.789,2.399-1.073c0.01-0.012,0.017-0.023,0.028-0.035c-3.95-2.111-7.616-4.304-9.999-6.105c-2.289-1.783-4.208-4.017-4.519-5.131c-0.095-0.049-0.175-0.092-0.264-0.139l-2.795-0.43c-2.917-0.417-7.639-2.364-10.278-4.311c-9.722-7.231-27.222-26.142-31.527-34.346c-2.5-4.589-3.472-6.953-2.083-5.145c1.25,1.669,4.167,5.423,6.25,8.343c7.639,10.012,13.75,16.965,15.139,16.965c0.694,0-0.694-2.364-2.917-5.284c-2.361-2.781-5.139-7.926-6.389-11.402c-2.5-7.231-2.083-6.814,6.944,6.257c8.333,11.959,20,25.725,21.805,25.725c0.694,0-2.083-4.033-6.389-8.9c-4.305-4.728-8.75-11.402-9.861-14.74c-2.917-8.343-2.5-10.012,0.972-3.476c3.194,5.979,13.194,19.607,19.722,26.698l2.423,2.676c0.114,0.04,0.23,0.081,0.347,0.124c0.548-0.212,1.284-0.387,2.196-0.525c-3.147-3.01-10.534-13.388-10.534-15.167c0-1.53,1.001-0.556,7.722,8.621c2.029,2.724,3.466,5.126,3.967,6.402c2.974-0.307,7.323-0.309,12.772,0.011c-1.103-0.661-2.132-1.659-3.081-2.976c-3.194-4.45-8.611-15.018-8.611-16.547c0-0.556,1.806,1.112,3.889,3.754c2.083,2.642,6.111,7.509,9.167,10.707c2.957,3.35,4.255,4.822,4.216,5.47c1.271,0.11,2.582,0.232,3.938,0.37c0.47,0.042,0.92,0.085,1.352,0.128c-3.11-1.777-10.476-15.074-12.324-22.475c-0.556-2.225-0.278-3.615,0.694-3.615c0.833,0,1.528,1.112,1.528,2.642c0,2.781,7.5,17.521,10.972,21.553c0.071,0.08,0.133,0.151,0.198,0.226c0.445,0.246,1.198,0.861,2.433,1.872c0.106,0.081,0.243,0.174,0.364,0.261c4.432,0.65,5.092,1.315,2.719,1.701c1.85,1.046,4.066,2.139,6.058,2.917C172.925,162.078,173.535,162.642,171.24,162.565z M97.76,152.828c0.534,0.369,1.117,0.775,1.748,1.218c0.999-0.083,2.048-0.113,3.116-0.078c0.523,0.012,0.989,0.023,1.429,0.036c-1.886-0.652-3.845-1.311-5.857-1.971C99.498,152.63,99.409,152.793,97.76,152.828z M91.825,156.789c0.252-0.231,0.615-0.52,1.078-0.874c0.726-0.545,1.889-1.003,3.296-1.344c-0.192-0.216-0.394-0.437-0.566-0.643c-0.244-0.301-0.47-0.581-0.686-0.85c-1.42,0.256-2.885,0.667-3.751,1.149c-0.574,0.288-1.416,0.498-2.356,0.613c0.419,0.28,0.827,0.557,1.216,0.824C90.655,156.048,91.243,156.421,91.825,156.789z M101.486,159.592c-1.134-0.924-2.253-1.929-3.279-2.927c-0.842,0.138-1.656,0.263-2.389,0.363c-1.271,0.206-2.235,0.353-2.932,0.43c1.437,0.901,2.816,1.751,4.124,2.541C98.591,159.826,100.098,159.691,101.486,159.592z M108.208,164.299c-1.649-0.229-3.274-0.443-4.847-0.636c3.619,1.965,6.052,3,6.716,2.758C110.514,166.263,109.709,165.427,108.208,164.299z M114.976,161.818c-2.098-1.611-3.814-3.153-4.747-4.33c-0.535-0.654-1.004-1.246-1.44-1.806c-0.7-0.255-1.416-0.512-2.146-0.771c-0.313,0.093-0.679,0.194-1.103,0.309c-0.853,0.214-2.036,0.468-3.341,0.724c0.66,0.468,1.355,0.96,2.096,1.486c0.946,0.665,1.917,1.334,2.901,2.001c1.023,0.049,1.702,0.164,1.895,0.358C109.804,160.282,112.242,161.078,114.976,161.818z M123.221,163.589c0.7,0.076,1.17,0.072,1.287-0.046c0.847-0.806-2.848-2.804-9.037-5.309C117.78,159.921,120.45,161.763,123.221,163.589z M128.693,170.354c-1.228-0.749-2.63-1.56-4.162-2.392c-0.855-0.448-1.728-0.94-2.601-1.457c-1.667-0.307-3.395-0.609-5.156-0.901c2.658,1.63,5.216,3.131,7.506,4.407C125.829,170.107,127.309,170.221,128.693,170.354z M137.505,170.166c-1.382-0.381-2.972-0.825-4.803-1.338c-0.613-0.164-1.275-0.33-1.974-0.498c1.761,1.061,3.463,2.046,5.035,2.907C136.333,170.866,136.918,170.51,137.505,170.166z M134.798,157.21c2.609,0.874,5.295,1.599,7.012,1.86c-1.05-0.7-1.827-1.335-2.084-1.784c-0.024-0.04-0.033-0.074-0.054-0.112C137.614,157.121,135.995,157.131,134.798,157.21z M141.137,171.148c-0.021-0.005-0.041-0.011-0.062-0.016c-0.506,0.385-1.043,0.788-1.605,1.203c1.786,0.438,3.625,0.871,5.279,1.235C143.232,172.704,141.897,171.833,141.137,171.148z M132.708,158.893c-0.19-0.095-0.355-0.177-0.536-0.268c0.904,1.62,5.599,4.618,11.822,7.698c0.961-0.705,2.133-1.389,3.35-1.926C141.893,162.693,135.909,160.519,132.708,158.893z M139.528,154.128c1.111-0.417-1.389-4.45-6.805-10.985c-4.861-5.701-9.028-10.707-9.444-11.124c-0.417-0.417,1.111,2.642,3.333,6.675C131.889,148.427,137.306,154.823,139.528,154.128z M83.795,147.592c-5.833-1.808-11.666-1.391-14.861,1.112c-1.667,1.252-3.472,4.172-3.889,6.536c-0.833,4.033-0.833,4.033,1.389,1.391c5.833-7.37,6.25-7.648,13.472-7.787C85.74,148.704,86.573,148.426,83.795,147.592z M148.734,197.929c-1.667,0-4.167,1.669-5.833,4.033c-1.667,2.225-2.917,5.145-2.917,6.675c0,1.808,0.694,1.391,2.639-1.808c1.528-2.503,4.167-5.423,5.833-6.675C151.651,197.929,151.651,197.929,148.734,197.929z M325.121,231.321c-11.275-3.161-27.27-8.091-31.367-8.995c-4.097-0.903-4.153,0.791-0.695,2.296h0c4.51,1.957,27.909,7.865,44.464,12.719c16.427,4.816,35.604,10.353,40.086,11.027c0.322-0.795,0.791-1.929,1.45-3.5C370.791,242.762,338.2,235.084,325.121,231.321z M328.196,226.728c-11.378-2.765-27.536-7.134-31.661-7.893s-4.123,0.935-0.615,2.319c4.576,1.798,28.166,6.885,44.88,11.158c16.585,4.24,35.943,9.103,40.446,9.62c0.294-0.806,0.723-1.955,1.327-3.548C374.237,236.565,341.398,230.031,328.196,226.728z M321.11,235.513c-11.094-3.747-26.81-9.509-30.854-10.626c-4.044-1.117-4.188,0.572-0.814,2.256c4.402,2.19,27.459,9.316,43.738,15.031c16.153,5.671,35.014,12.205,39.455,13.112c0.363-0.777,0.891-1.885,1.631-3.419C366.12,249.331,333.974,239.956,321.11,235.513z M317.82,240.009c-10.883-4.323-26.276-10.901-30.256-12.228c-3.98-1.327-4.213,0.352-0.931,2.211c4.281,2.418,26.935,10.743,42.893,17.303c15.835,6.509,34.329,14.023,38.716,15.162c0.403-0.758,0.982-1.826,1.807-3.329C362.046,256.166,330.435,245.12,317.82,240.009z M314.807,244.679c-10.726-4.701-25.88-11.813-29.811-13.278s-4.222,0.204-1.008,2.177c4.194,2.566,26.544,11.677,42.263,18.791c15.598,7.059,33.819,15.214,38.164,16.505c0.43-0.743,1.045-1.791,1.922-3.264C358.443,262.372,327.236,250.228,314.807,244.679z M311.199,249.548c-10.466-5.257-25.227-13.152-29.076-14.822c-3.849-1.669-4.227-0.017-1.12,2.121v0c4.054,2.782,25.897,13.052,41.223,20.98c15.208,7.866,32.977,16.965,37.248,18.483c0.468-0.72,1.137-1.733,2.09-3.159C353.85,269.503,323.321,255.74,311.199,249.548z" />
  <path fill="#FCDD09" d="M76.686,40.032c-3.75-12.515-3.094-19.763,2.4-28.823c1.894-3.259,4.722-5.701,5.972-5.701s4.028,2.642,6.111,5.84c5.694,8.621,5.94,16.238,2.278,28.652c-1.833,6.212-3.536,15.156-4.111,19.433c-0.493,3.668-0.662,6.335-0.872,8.646c-1.459,0.009-4.616,0.003-6.005,0.003c-0.156-1.451-0.04-2.086-1.151-8.76C80.475,54.594,78.492,45.872,76.686,40.032z M106.069,36.845c-7.778,3.337-12.455,12.576-15.011,25.308c-0.472,2.391-0.587,3.235-0.824,5.929c1.683,0.007,2.345,0.018,3.986,0.008c0.359-1.813,0.618-2.77,1.41-5.343c3.139-9.951,12.383-13.944,11.966-4.628c-0.139,2.573-1.223,4.009-2.43,5.388c1.492-0.372,4.661-1.853,7.23-3.313C126.702,51.573,121.069,30.448,106.069,36.845z M96.624,71.38c0.006-1.34,0.026-0.656,0.038-1.739c-3.836-0.032-18.525,0.021-22.344,0.021c0.009,0.701-0.009,1.04-0.03,1.668C80.565,71.357,91.413,71.408,96.624,71.38z M94.422,78.582c-1.808-2.531-1.422-2.101-2.737-5.361c-1.597-0.076-9.695-0.001-12.265-0.001c-1.407,2.973-1.549,3.593-3.287,5.469c-2.263,2.442-5.797,4.267-5.797,4.267s3.127,0.352,6.043,0.139c2.916-0.213,4.534-0.577,6.257-1.415c-0.468,3.479-0.495,6.839-0.495,6.839c0.424,4.477,0.904,5.623,1.874,7.802c1.316,1.818,2.081,1.828,3.048-0.092c1.045-2.149,1.734-4.359,1.952-7.731c-0.076-2.527-0.217-3.685-0.815-6.774c2.018,0.874,3.292,1.101,6.302,1.372c3.08,0.278,5.911,0.142,5.911,0.142S96.253,81.146,94.422,78.582z M75.138,62.743c0.792,2.573,1.05,3.53,1.41,5.343c1.641,0.01,2.303-0.002,3.986-0.008c-0.237-2.695-0.352-3.539-0.824-5.929C77.155,49.416,72.477,40.178,64.7,36.84c-15-6.397-20.633,14.729-6.328,23.35c2.569,1.46,5.738,2.941,7.23,3.313c-1.207-1.379-2.291-2.815-2.43-5.388C62.755,48.799,72,52.793,75.138,62.743z M220.001,59.322c1.111,6.675,0.995,7.309,1.151,8.76c1.389,0,4.545,0.005,6.005-0.003c0.21-2.311,0.38-4.978,0.872-8.646c0.574-4.276,2.278-13.221,4.111-19.433c3.662-12.414,3.417-20.031-2.278-28.652c-2.083-3.198-4.861-5.84-6.111-5.84c-1.25,0-4.078,2.442-5.972,5.701c-5.494,9.061-6.15,16.308-2.4,28.823C217.185,45.873,219.168,54.594,220.001,59.322z M228.928,68.082c1.683,0.007,2.345,0.018,3.986,0.008c0.359-1.813,0.618-2.77,1.41-5.343c3.139-9.951,12.383-13.944,11.966-4.628c-0.139,2.573-1.223,4.009-2.43,5.388c1.492-0.372,4.661-1.853,7.23-3.313c14.305-8.621,8.672-29.747-6.328-23.35c-7.778,3.337-12.456,12.576-15.011,25.308C229.279,64.544,229.164,65.388,228.928,68.082z M235.317,71.38c0.006-1.34,0.026-0.656,0.038-1.739c-3.836-0.032-18.525,0.021-22.344,0.021c0.009,0.701-0.009,1.04-0.03,1.668C219.258,71.358,230.106,71.408,235.317,71.38z M239.107,83.237c0,0-4.161-2.091-5.992-4.655c-1.808-2.531-1.422-2.101-2.737-5.361c-1.597-0.076-9.695-0.001-12.265-0.001c-1.407,2.972-1.549,3.593-3.287,5.469c-2.263,2.442-5.797,4.267-5.797,4.267s3.127,0.352,6.043,0.139c2.916-0.213,4.534-0.577,6.257-1.416c-0.468,3.479-0.495,6.839-0.495,6.839c0.424,4.477,0.904,5.623,1.874,7.802c1.316,1.818,2.081,1.828,3.048-0.092c1.045-2.149,1.734-4.359,1.952-7.731c-0.076-2.527-0.217-3.685-0.815-6.774c2.018,0.874,3.292,1.101,6.302,1.372C236.276,83.373,239.107,83.237,239.107,83.237z M197.065,60.191c2.569,1.46,5.738,2.941,7.23,3.313c-1.207-1.379-2.291-2.815-2.43-5.388c-0.417-9.317,8.828-5.323,11.966,4.628c0.792,2.573,1.05,3.53,1.41,5.343c1.641,0.01,2.303-0.002,3.986-0.008c-0.237-2.695-0.352-3.538-0.824-5.929c-2.555-12.732-7.233-21.971-15.011-25.308C188.393,30.444,182.76,51.569,197.065,60.191z M363.34,58.834c1.111,6.675,0.995,7.309,1.151,8.76c1.389,0,4.545,0.005,6.005-0.003c0.21-2.311,0.38-4.978,0.872-8.646c0.574-4.276,2.278-13.221,4.111-19.433c3.662-12.414,3.417-20.031-2.277-28.652c-2.083-3.198-4.861-5.84-6.111-5.84c-1.25,0-4.078,2.442-5.972,5.701c-5.494,9.061-6.15,16.308-2.4,28.823C360.524,45.385,362.507,54.106,363.34,58.834z M388.101,36.357L388.101,36.357c-7.778,3.337-12.456,12.576-15.011,25.308c-0.472,2.391-0.587,3.235-0.824,5.929c1.683,0.007,2.345,0.018,3.986,0.008c0.359-1.813,0.618-2.77,1.41-5.343c3.139-9.951,12.383-13.944,11.966-4.628c-0.139,2.573-1.223,4.009-2.43,5.388c1.492-0.372,4.661-1.853,7.23-3.313C408.734,51.086,403.101,29.961,388.101,36.357z M378.656,70.892c0.006-1.34,0.026-0.656,0.038-1.739c-3.836-0.032-18.525,0.021-22.344,0.021c0.009,0.701-0.009,1.04-0.03,1.668C362.597,70.87,373.445,70.92,378.656,70.892z M376.454,78.094c-1.808-2.531-1.422-2.101-2.737-5.361c-1.597-0.076-9.695-0.001-12.265-0.001c-1.407,2.972-1.549,3.593-3.287,5.469c-2.263,2.442-5.797,4.267-5.797,4.267s3.127,0.352,6.043,0.139c2.916-0.213,4.534-0.577,6.257-1.415c-0.468,3.479-0.495,6.839-0.495,6.839c0.424,4.477,0.904,5.623,1.874,7.802c1.316,1.818,2.081,1.828,3.048-0.092c1.045-2.149,1.734-4.359,1.952-7.731c-0.076-2.527-0.217-3.685-0.815-6.774c2.018,0.874,3.292,1.101,6.302,1.372c3.08,0.278,5.911,0.142,5.911,0.142S378.285,80.658,376.454,78.094z M357.17,62.256c0.792,2.573,1.05,3.53,1.41,5.343c1.641,0.01,2.303-0.002,3.986-0.008c-0.237-2.695-0.352-3.538-0.824-5.929c-2.555-12.732-7.233-21.971-15.011-25.308c-15-6.396-20.633,14.729-6.328,23.35c2.569,1.46,5.738,2.941,7.23,3.313c-1.207-1.379-2.291-2.815-2.43-5.388C344.787,48.311,354.032,52.305,357.17,62.256z M314.546,205.978l4.988,1.873l-4.327-3.636c-4.496-3.899-12.483-6.164-19.173-5.459l-3.901,0.41l3.664-4.143c5.141-5.95,11.722-8.828,18.095-7.803l5.267,0.793l-4.988-2.654c-5.207-2.879-13.489-3.43-19.886-1.35l-3.732,1.213l2.724-4.814c3.793-6.891,9.632-11.076,16.079-11.401l5.317-0.319l-5.43-1.558c-5.691-1.732-13.907-0.546-19.732,2.819l-3.398,1.964l1.666-5.277c2.28-7.529,7.121-12.838,13.361-14.498l5.135-1.42l-5.635-0.394c-5.927-0.51-13.717,2.358-18.715,6.864l-2.916,2.629l0.533-5.508c0.666-7.841,4.299-14.041,10.058-16.964l4.728-2.456l-5.594,0.787c-5.903,0.735-12.927,5.163-16.881,10.611l-2.306,3.179l-0.622-5.499c-0.977-7.806,1.289-14.63,6.315-18.686l4.114-3.387l-5.308,1.934c-5.621,1.948-11.571,7.741-14.307,13.893l-1.596,3.59l-1.751-5.25c-2.577-7.433-1.776-14.578,2.297-19.591l3.321-4.17l-4.791,2.995c-5.094,3.075-9.712,9.981-11.111,16.568l-0.815,3.843l-2.803-4.769c-4.064-6.736-4.764-13.89-1.822-19.643l2.382-4.769l-4.064,3.927c-4.344,4.07-7.427,11.787-7.427,18.521v3.928l-3.732-4.082c-5.372-5.74-7.543-12.595-5.86-18.834l1.338-5.162l-3.159,4.69c-3.404,4.883-4.817,13.073-3.418,19.662l0.814,3.842l-4.497-3.216c-6.449-4.498-9.995-10.749-9.644-17.203l0.237-5.328l-2.117,5.245c-2.315,5.486-1.996,13.79,0.738,19.942l1.596,3.59l-5.068-2.21c-7.241-3.057-12.009-8.433-13.005-14.818l-0.873-5.261l-0.981,5.569c-1.125,5.847,0.909,13.906,4.864,19.354l2.305,3.177l-5.415-1.107c-7.718-1.483-13.497-5.748-15.798-11.788l-1.947-4.964l0.197,5.652c0.113,5.955,3.778,13.412,8.777,17.917l2.916,2.629l-5.527,0.045c-7.857,0.156-14.397-2.814-17.901-8.241l-2.935-4.451l1.366,5.487c1.347,5.802,6.48,12.333,12.305,15.701l3.397,1.964l-5.397,1.193c-7.653,1.788-14.667,0.245-19.221-4.334l-3.795-3.743l2.476,5.083c2.522,5.394,8.9,10.713,15.297,12.794l3.732,1.214l-5.032,2.291c-7.114,3.344-14.295,3.292-19.702-0.239l-4.49-2.871l3.477,4.456c3.587,4.751,10.93,8.627,17.62,9.331l3.902,0.411l-4.446,3.288c-6.265,4.751-13.299,6.196-19.321,3.867l-4.988-1.872l4.327,3.635c4.496,3.901,12.483,6.164,19.173,5.46l3.902-0.41l-3.665,4.142c-5.141,5.951-11.722,8.828-18.095,7.804l-5.267-0.794l4.988,2.656c5.208,2.88,13.49,3.43,19.887,1.35l3.732-1.214l-2.725,4.816c-3.793,6.89-9.632,11.076-16.079,11.4l-5.317,0.318l5.43,1.56c5.691,1.732,13.907,0.546,19.732-2.82l3.398-1.965l-1.665,5.277c-2.28,7.531-7.121,12.84-13.361,14.499l-5.135,1.42l5.635,0.395c5.927,0.509,13.717-2.361,18.715-6.867l2.916-2.629l-0.533,5.51c-0.666,7.839-4.299,14.04-10.058,16.962l-4.728,2.458l5.594-0.786c5.903-0.735,12.927-5.166,16.881-10.614l2.306-3.177l0.623,5.5c0.977,7.806-1.29,14.627-6.316,18.685l-4.115,3.387l5.308-1.934c5.621-1.947,11.572-7.743,14.308-13.894l1.595-3.588l1.751,5.247c2.577,7.435,1.776,14.578-2.297,19.593l-3.321,4.17l4.791-2.997c5.094-3.074,9.712-9.982,11.111-16.569l0.815-3.842l2.803,4.77c4.064,6.734,4.764,13.89,1.822,19.642l-2.382,4.77l4.064-3.929c4.344-4.067,7.427-11.784,7.427-18.519v-3.928l3.732,4.083c5.372,5.741,7.543,12.595,5.861,18.834l-1.34,5.162l3.159-4.69c3.404-4.884,4.817-13.073,3.419-19.661l-0.815-3.842h0.001l4.498,3.216c6.449,4.498,9.995,10.749,9.644,17.2l-0.238,5.328l2.117-5.242c2.316-5.486,1.997-13.793-0.738-19.945l-1.596-3.587l5.068,2.209c7.241,3.058,12.009,8.433,13.005,14.818l0.873,5.261l0.982-5.57c1.125-5.849-0.91-13.905-4.864-19.353l-2.306-3.179l5.416,1.106c7.718,1.484,13.497,5.75,15.798,11.789l1.947,4.965l-0.197-5.653c-0.113-5.955-3.778-13.412-8.777-17.918l-2.916-2.629l5.527-0.045c7.857-0.155,14.397,2.814,17.901,8.244l2.934,4.449l-1.365-5.488c-1.347-5.799-6.48-12.331-12.305-15.698l-3.398-1.965l5.398-1.193c7.653-1.79,14.667-0.245,19.221,4.335l3.794,3.742l-2.476-5.083c-2.522-5.393-8.899-10.715-15.296-12.796l-3.732-1.212l5.032-2.292c7.113-3.343,14.294-3.292,19.701,0.239l4.489,2.872l-3.477-4.458c-3.587-4.751-10.93-8.627-17.62-9.33l-3.901-0.41l4.446-3.29C301.49,205.095,308.524,203.648,314.546,205.978z" />
</svg>
