<svg xmlns="http://www.w3.org/2000/svg" width="450px" height="300px" viewBox="0 0 450 300">
  <path fill="#E32118" d="M0,0h450v300H0V0z" />
  <path fill="#FFFFFF" d="M0,0h450v200H0V0z" />
  <path fill="#3E9A00" d="M0,0h450v100H0V0z" />
  <path fill="#0073CE" d="M0,0v300l112.5-150L0,0z" />
  <path fill="#73452B" stroke="#000000" stroke-width="0.125" stroke-linecap="round" stroke-linejoin="round" d="M228.375,174.875c0,0-0.625,0.625-1.75,0.125s-1.25-32.125-1.25-32.125c2.5-2.75,4.5-3.625,4.5-3.625l1.5,1.25c-5.625,2.875-5.125,7-4.625,14.125c0.125,2.625,0.125,6,0.75,9.25c0.875,4.125,2.625,7.625,2.75,10.25C230.375,175.75,228.375,174.875,228.375,174.875z" />
  <path fill="#73452B" stroke="#000000" stroke-width="0.125" stroke-linecap="round" stroke-linejoin="round" d="M224.5,138.5h2.25c-1.875,18.125-0.25,28.875-0.25,34.125c0,1.75,1,2.375,0.875,2.375c-2.25,2.5-3.375-0.125-3.375-0.125L224.5,138.5z" />
  <path fill="#A36629" stroke="#000000" stroke-width="0.125" stroke-linecap="round" stroke-linejoin="round" d="M221.053,174.848c-2.125,1-2.428-0.973-2.303-1.223c4.625-9.375,6.625-30,2.375-32.25l0.25-2C223,139.875,224.5,142,224.5,142c0.625,23.125-0.01,32.588-0.385,32.963c-2.25,2.375-3.098-0.31-3.223-0.56" />
  <path fill="#009A3B" stroke="#000000" stroke-width="0.1249" stroke-linejoin="round" d="M231.875,130c0.75-0.875,0.75-0.875,2.125-0.875c0.25-1.875,3.375-1.875,3.625,0.5c2.5-0.5,3,1,2,2.5c2.375-0.625,4.5,0,3.875,2.75c4.25,1.125,2.625,4.125,0.75,4.75c-0.25,1.875-2,2.5-4.375,1.75c-3,2.125-4.75,1.375-6.125-0.75c-3.375,0.5-3.625-0.25-5.125-2.125c-2.625,1.125-3.125,1.125-5.375-0.25c-0.125,1.75-0.75,1.25-1.875,1.125c0.125,2.25-0.75,3.25-2.75,2.5c1.5,3.125-2.375,4.5-4.25,1.875c-1.75,0.125-1.875-0.375-2.75-1c-0.75,2.5-3.5,2.125-4,0.75c-3.5-0.5-3.125-2.375-0.25-2.5c0.25-2,2-1.625,3.125-1.375c0.125-1.25,0.875-1,1.5-0.75c-0.375-0.875-0.125-1.375,1-1.625c-1.625-2.125-0.625-2.875,1-3.625c-0.875-2,0.625-1.875,1.75-2c-0.125-2.125,0.5-2.5,2.75-2.75c-0.25-0.75,0.125-1.375,1.375-1.375c-0.75-2.125,0.25-2.613,2.5-2.25c0.375-3.088,7-1.625,6.5,2.625C230.75,128.125,231.375,128.5,231.875,130z" />
  <path fill="none" stroke="#000000" stroke-width="0.1249" stroke-linecap="round" stroke-linejoin="round" d="M220.902,174.44c-0.375-2,3.223-7.065,2.973-12.44 M227,166.375c1.125,3.125,1.625,5.875,1.375,8.5 M218.5,128.875c0.5,0.25,1.125,0,1.25,1.375c1-1.75,2.25-0.75,2.25,1.25 M228.875,127.875c-0.5,0.75-2.375,0.75-2.125,2.75c-0.625-0.875-1.875-1.125-2.375-0.25 M231.875,130c0,0.5-0.125,2-0.625,2.75 M239.625,132.125c0.125,0.125-1.75,0-2.625,0.625 M244.25,139.625c-0.5-0.25-1.5-0.875-2.25,0.125c0-0.5,0-1.875-1.375-1.875 M239.875,141.375c0-1.25-0.25-1.625-0.5-2 M235.75,139.625c-1-0.75-2,0.375-2,1 M228.5,138.5c0-0.5-0.375-1.5,0.5-1.875 M214.25,143.75c0.25-1.25,1.125-1.25,1-1.875c-0.125-1-1.25-1.875-2.625-0.5 M215.25,141.875c0.75-0.25,1.5-0.125,1.75,0.25 M213.125,137.25c0.5-0.5,1.75-0.375,2.5,0 M215.625,134.25c0.625,0,1.75-0.25,2.125,0.875c1.375-2.125,2.375-1.875,2.625-1.375 M222.875,133.5c1-0.375,2.75,0.625,3.75,2.375c0.5-1.375,1.25-1.125,2-1.25 M233.375,135.875c1.625-0.75,2.625,0.75,3.125,1.375c0.75-1,1.375-1,2.125-1 M218.25,138.875c0.375-0.625,1.25-0.75,1.875-0.375c-0.125-1.125,0.625-1.625,1.125-1.375" />
  <path fill="#000000" d="M225.222,182.971l-0.571-0.007c-1.119-3.607-5.182-3.527-9.889-3.437c-4.229,0.082-8.601,0.167-11.342-2.522c-1.747-1.713-2.596-4.332-2.596-8.006c0-17.299-0.124-48.832-0.125-49.149l0.3-0.301h47.875l0.3,0.3V170c0,3.328-0.786,5.707-2.403,7.273c-2.65,2.566-7.004,2.427-11.217,2.293C230.884,179.416,226.47,179.276,225.222,182.971z M216.832,178.901c3.625,0,6.814,0.382,8.115,3.164c1.669-3.385,6.029-3.245,10.628-3.099c4.084,0.131,8.313,0.265,10.781-2.124c1.494-1.447,2.22-3.685,2.22-6.842v-49.85h-47.274c0.013,3.287,0.124,32.458,0.124,48.85c0,3.505,0.79,5.983,2.416,7.578c2.561,2.512,6.805,2.428,10.91,2.35C215.453,178.914,216.151,178.901,216.832,178.901z M261.479,165.059c-0.552-2.027-1.24-4.549-1.417-7.82l-0.415-0.085c-1.427,2.9-2.861,4.421-4.014,5.641c-1.202,1.274-2.152,2.281-2.576,4.211c-0.122,0.56-0.172,1.41,0.089,1.963l0.056,0.119h0.006c0.006,0.013,0.009,0.026,0.018,0.038l3.061,4.36c-1.248,1.863-3.533,4.275-7.565,5.935c-6.242,2.448-15.167,0.88-15.256,0.863l-0.179-0.032l-0.064,0.171c-0.015,0.04-0.285,0.778-0.198,1.431l0.434,4.786c-1.825,0.234-4.258,0.382-7.344,0.382c-3.434,0-6.882-0.204-9.465-0.56l0.35-4.607h-0.001c0.122-0.649-0.101-1.382-0.113-1.421l-0.248-0.15c-0.09,0.016-9.012,1.586-15.254-0.862c-3.98-1.615-6.369-3.947-7.787-5.962l3.042-4.334c0.008-0.012,0.012-0.025,0.018-0.038l0.011-0.001l0.056-0.119c0.262-0.554,0.212-1.404,0.089-1.963c-0.423-1.93-1.373-2.936-2.575-4.211c-1.152-1.221-2.587-2.741-4.013-5.641l-0.415,0.085c-0.177,3.271-0.864,5.793-1.416,7.82c-0.995,3.652-1.597,5.871,2.134,7.948c-0.354,1.452-0.858,3.033-1.537,4.129l-0.045,0.073l0.016,0.084c2.134,10.909,20.782,11.848,22.996,11.921v1.912c0,1.115,1.412,1.991,4.195,2.604c2.35,0.517,5.51,0.802,8.899,0.802c4.863,0,13.094-0.717,13.094-3.406v-1.912c2.213-0.072,20.856-1.012,22.871-11.923l0.015-0.083l-0.044-0.072c-0.68-1.098-1.229-2.681-1.636-4.134C263.074,170.925,262.473,168.708,261.479,165.059z M257.008,172.353c-0.145,0.228-0.3,0.474-0.463,0.737l-2.813-4.008c0.877-0.088,1.598-0.57,2.19-0.971c0.525-0.356,0.979-0.662,1.321-0.54c0.363,0.132,0.695,0.742,1.011,1.845l0.128,0.678L257.008,172.353z M233.542,182.7c0.137,0.078,0.297,0.125,0.479,0.142c1.888,0.28,3.227,0.587,3.623,1.178c0.169,0.253,0.191,0.577,0.072,1.052v0.053h-0.006c0,0.531-1.227,1.085-3.816,1.456L233.542,182.7z M212.386,185.056c-0.158-0.473-0.159-0.795-0.006-1.045c0.359-0.583,1.691-0.89,3.568-1.168c0.216-0.02,0.398-0.084,0.553-0.184l-0.285,3.741c-3.707-0.556-3.82-1.201-3.82-1.275L212.386,185.056z M191.49,170.099l0.125-0.664c0.321-1.123,0.653-1.733,1.016-1.865c0.341-0.124,0.796,0.183,1.321,0.54c0.592,0.401,1.309,0.879,2.186,0.97l-2.806,3.998c-0.08-0.116-0.158-0.228-0.234-0.335L191.49,170.099z M188.817,165.173c0.513-1.881,1.14-4.184,1.378-7.12c1.334,2.507,2.651,3.902,3.726,5.042c1.156,1.225,2.069,2.193,2.466,4.004c0.08,0.364,0.159,1.07-0.008,1.56c-0.853-0.01-1.557-0.487-2.182-0.911s-1.164-0.789-1.716-0.589c-0.518,0.188-0.915,0.853-1.292,2.175l-0.606,3.201C187.323,170.658,187.831,168.794,188.817,165.173z M189.41,177.291c1.089-1.81,1.719-4.714,2.019-6.45l1.227,2.016c0.146,0.255,0.299,0.51,0.461,0.757c1.286,1.965,3.597,4.385,8.107,6.215c5.834,2.288,13.926,1.138,15.294,0.92c0.084,0.371,0.163,1.017-0.078,1.377c-0.112,0.168-0.286,0.26-0.543,0.284c-2.474,0.367-3.491,0.726-3.889,1.373c-0.22,0.358-0.235,0.797-0.047,1.378v3.616C209.734,188.702,191.556,187.772,189.41,177.291z M237.71,191.125c0,1.692-5.441,2.969-12.656,2.969c-7.215,0-12.656-1.276-12.656-2.969V189v-3.21c0.522,0.347,1.668,0.758,4.181,1.104c2.603,0.359,6.08,0.565,9.538,0.565c2.453,0,9.732-0.127,11.594-1.583L237.71,191.125L237.71,191.125z M238.147,188.776v-3.624c0.141-0.583,0.097-1.021-0.14-1.375c-0.431-0.645-1.458-1.003-3.934-1.37c-0.239-0.022-0.403-0.109-0.504-0.269c-0.054-0.085-0.087-0.189-0.106-0.3l-0.005-0.058h-0.002c-0.043-0.348,0.042-0.766,0.121-1.034c1.334,0.214,9.456,1.377,15.309-0.919c3.775-1.554,6.163-3.81,7.577-5.795c0.096-0.135,0.182-0.267,0.269-0.399c0.006-0.007,0.015-0.011,0.02-0.02l0.062-0.101c0.122-0.19,0.236-0.376,0.34-0.558l1.232-2.024c0.379,1.743,1.113,4.583,2.187,6.362C258.543,187.774,240.372,188.702,238.147,188.776z M259.29,172.536l-0.611-3.221c-0.372-1.303-0.769-1.968-1.287-2.156c-0.107-0.039-0.214-0.056-0.32-0.056c-0.444,0-0.892,0.304-1.396,0.645c-0.625,0.424-1.329,0.901-2.182,0.911c-0.166-0.489-0.088-1.195-0.008-1.56c0.397-1.811,1.31-2.779,2.466-4.004c1.076-1.14,2.392-2.535,3.727-5.042c0.238,2.936,0.865,5.24,1.378,7.121C262.043,168.794,262.551,170.658,259.29,172.536z M194.303,177.125l0.625,0.5l-1.375,1.5c-0.55,0.6-0.683,0.998-0.301,1.363c0.474,0.454,0.808,0.296,1.301-0.238l1.5-1.625l0.5,0.5l-1.499,1.749c-0.814,0.949-1.569,0.732-2.202,0.14c-0.552-0.515-0.868-1.263-0.057-2.182l1.512-1.7L194.303,177.125z M196.803,179.25l0.625,0.375l-0.125,3l1.375-2.125l0.625,0.375l-2,3.25l-0.75-0.375l0.125-3l-1.375,2.125l-0.625-0.375L196.803,179.25z M197.928,184.5l1.75-3.5l0.625,0.375l-1.625,3.375L197.928,184.5z M200.678,181.5l-1.38,3.622l1.38,0.503c1.286,0.469,1.89-0.098,2.299-1.185c0.413-1.106,0.232-1.92-1.054-2.438L200.678,181.5z M201.173,182.378c1.294,0.45,1.372,0.941,1.02,1.83c-0.341,0.844-0.66,1.174-1.89,0.54L201.173,182.378z M204.803,182.875l-2.25,3.375l0.87,0.255l0.503-0.878l1.5,0.375l0.128,0.878l0.87,0.12l-0.87-3.997L204.803,182.875z M205.051,183.753l0.247,1.5l-0.997-0.128L205.051,183.753z M206.941,183.2l-0.135,3.874l1.471,0.029c1.368,0.026,1.756-0.703,1.79-1.864c0.034-1.181-0.401-1.894-1.787-1.964L206.941,183.2L206.941,183.2z M207.691,183.872c1.37,0.005,1.605,0.443,1.557,1.399c-0.046,0.909-0.244,1.324-1.611,1.121L207.691,183.872L207.691,183.872z M220.053,188.625v3.997h0.878v-1.5c0,0,0.75,0.045,1.372-0.12c0.491-0.128,0.833-0.443,0.844-1.219c0.011-0.761-0.431-1.159-1.196-1.159h-1.9L220.053,188.625L220.053,188.625z M220.931,189.247l0.881,0.011c0.735,0,0.596,1.114,0.023,1.114h-0.904L220.931,189.247z M224.553,188.625l-1.628,3.997h0.878l0.375-0.997h1.628l0.375,0.997h0.87l-1.625-4h-0.875L224.553,188.625z M224.928,189.503l0.622,1.5h-1.125L224.928,189.503z M227.053,191.875l2.125-2.625h-1.875v-0.625h3v0.625l-2.25,2.625h2.25v0.75h-3.25V191.875z M239.678,184.125l0.75-0.125l0.375,2.25c0.133,0.8-0.232,1.346-0.802,1.556c-0.649,0.239-1.476,0.02-1.573-1.056l0.625-0.125c0.146,0.644,0.405,0.7,0.705,0.599c0.238-0.08,0.361-0.455,0.295-0.849L239.678,184.125z M240.928,183.9l0.74-0.14l0.342,1.872c0.147,0.801,0.398,1.142,0.919,1.051c0.647-0.113,0.718-0.475,0.58-1.189l-0.46-1.997l0.757-0.114l0.502,2.078c0.294,1.215-0.341,1.697-1.193,1.856c-0.742,0.139-1.532-0.05-1.79-1.248L240.928,183.9z M244.803,185.625l0.625-0.25c0.307,0.551,0.785,0.522,1.157,0.358c0.517-0.228,0.576-0.68,0.32-0.833c-0.364-0.218-1.234,0.092-1.702-0.079c-0.56-0.204-0.801-0.52-0.772-1.004c0.034-0.583,0.548-0.904,1.106-1.077c0.624-0.194,1.241-0.125,1.641,0.635l-0.75,0.25c-0.244-0.411-0.558-0.391-0.837-0.26c-0.233,0.11-0.598,0.317-0.403,0.651c0.16,0.273,1.078,0.096,1.562,0.115c0.5,0.02,0.905,0.355,0.973,0.836c0.094,0.671-0.154,1.035-0.93,1.337C245.835,186.678,244.971,186.259,244.803,185.625L244.803,185.625z M248.178,182.5l-1,0.5l-0.25-0.625l2.75-1.125l0.25,0.5l-1,0.5l1.125,2.75l-0.625,0.375L248.178,182.5z M249.803,181.125l0.625-0.375l1.75,3.25l-0.625,0.375L249.803,181.125z M254.053,181.375l0.75-0.25c0.353,0.741-0.177,2.089-1.472,2.062c-1.895-0.041-2.101-2.128-1.803-2.817c0.501-1.156,1.903-1.134,2.525-0.495l-0.625,0.5c-0.396-0.508-1.277-0.188-1.336,0.28c-0.097,0.763,0.239,1.473,0.921,1.81C253.592,182.751,254.484,182.033,254.053,181.375L254.053,181.375z M253.678,178.75l0.625-0.5l2.25,3l-0.625,0.5L253.678,178.75z M256.053,176.875l-0.622,0.503l1.372,3.75l0.622-0.622l-0.375-0.75l1.125-1.005l0.75,0.375l0.63-0.495L256.053,176.875z M256.301,177.753l1.253,0.622l-0.75,0.75L256.301,177.753z" />
  <path fill="#FFD700" stroke="#000000" stroke-width="0.6251" stroke-linecap="round" stroke-linejoin="round" d="M224.658,112.825l-2.75,0.125l-1.375,2.463l-1.5-2.35l-2.75,0.113l1.25-2.475l-1.5-2.35l2.875-0.125l1.25-2.463l1.5,2.35l2.75-0.113l-1.25,2.475L224.658,112.825z M212.908,113.738l-2.75,0.675l-0.75,2.662l-2-2l-2.625,0.65l0.75-2.662l-1.875-2.025l2.625-0.662l0.75-2.675l2,2l2.75-0.65l-0.875,2.675L212.908,113.738z M201.533,116.075l-2.5,1.238l-0.125,2.775l-2.375-1.525l-2.5,1.225l0.25-2.775l-2.375-1.537l2.5-1.25l0.25-2.775l2.25,1.525l2.5-1.225l-0.125,2.775L201.533,116.075z M228.283,112.825l2.75,0.125l1.25,2.463l1.5-2.35l2.75,0.113l-1.25-2.475l1.5-2.35l-2.75-0.125l-1.375-2.463l-1.5,2.35l-2.75-0.113l1.25,2.475L228.283,112.825z M240.033,113.738l2.625,0.675l0.75,2.662l2-2l2.625,0.65l-0.75-2.662l2-2.025l-2.75-0.662l-0.75-2.675l-2,2l-2.625-0.65l0.75,2.675L240.033,113.738z M251.283,116.075l2.5,1.238l0.125,2.775l2.375-1.525l2.5,1.225l-0.125-2.775l2.25-1.537l-2.5-1.25l-0.125-2.775l-2.375,1.525l-2.5-1.225l0.25,2.775L251.283,116.075z" />
</svg>
