<svg xmlns="http://www.w3.org/2000/svg" width="450px" height="300px" viewBox="0 0 450 300">
  <path fill="#00209F" d="M0,0h450v250H0V0z" />
  <path fill="#D21034" d="M0,150h450v150H0V150z" />
  <path fill="#FFFFFF" d="M177.6,111.2h94.8v77.6h-94.8L177.6,111.2L177.6,111.2z" />
  <g>
    <path fill="#016A16" stroke="#016A16" stroke-width="0.1828" d="M244,167.8l-19.3,0.6l-19.2,0.2c0,0-9.9,3.7-13.9,4.5s-3.5,2.1-6.6,2.8c-2.5,0.6-2.8,0.7-4.2,0.8c-0.9,0.1-2,0.7-3,1.5v10.4h94.6v-9.9c-1-0.6-2-0.9-3-1.3c-1.4-0.5-2.3-1-4.8-1.5c-3.1-0.7-2.6-2-6.6-2.8C253.8,172.3,244,167.8,244,167.8L244,167.8z" />
    <path fill="#F1B517" stroke="#000000" stroke-width="0.183" stroke-miterlimit="8" d="M219.5,144.6h1.4l2.6,10.8l-0.5,3.4L219.5,144.6z M220.7,155.7l-4.3-11.5l1.6-0.1l5,14.1L220.7,155.7z M216.9,151.6l-2.5-5.4l1.1-0.2l4.6,9L216.9,151.6z M230.3,144.6h-1.4l-2.6,10.8l0.5,3.4L230.3,144.6z M229.1,155.7l4.3-11.5l-1.6-0.1l-5,14.1L229.1,155.7z M233,151.6l2.5-5.4l-1.1-0.2l-4.6,9L233,151.6z" />
    <path fill="#FFFFFF" stroke="#000000" stroke-width="0.183" stroke-miterlimit="8" d="M218.1,137.4l1,8.3l1-0.1L218.1,137.4z M214.4,137.6l1.8,8h1.4L214.4,137.6z M211.1,139.9l2.8,7.6h1.4L211.1,139.9z M231.8,137.4l-1,8.3l-1-0.1L231.8,137.4z M235.4,137.6l-1.8,8h-1.4L235.4,137.6z M238.8,139.9l-2.8,7.6h-1.4L238.8,139.9z" />
    <path fill="#0A328C" stroke="#000000" stroke-width="0.183" stroke-miterlimit="8" d="M217.2,152.4L205.8,140c-3.6,2.8-2.9,8-2.9,8l13,10.2L217.2,152.4z M232.6,152.4L244,140c3.6,2.8,2.9,8,2.9,8l-13,10.2L232.6,152.4z M212.3,155.7l-14.4-11.4c-2.5,2.5-0.4,10.2-0.4,10.2l14,7.6L212.3,155.7z M237.6,155.7l14.4-11.4c2.5,2.5,0.4,10.2,0.4,10.2l-14,7.6L237.6,155.7z M238.6,162.7c0.2,0,18.5-10.4,18.5-10.4c1.3,2.3,0.1,5.5-0.5,6c0,1.5,0.6,2.3-0.7,5.4c-0.4,2-1.3,3.9-2.7,5c-1.7,6.4-8.2,6.8-10.7,1.6L238.6,162.7z M211.2,162.7c-0.2,0-18.5-10.4-18.5-10.4c-1.3,2.3-0.1,5.5,0.5,6c0,1.5-0.6,2.3,0.7,5.4c0.4,2,1.3,3.9,2.7,5c1.7,6.4,8.2,6.8,10.7,1.6L211.2,162.7z" />
    <path fill="#D20014" stroke="#000000" stroke-width="0.183" stroke-miterlimit="8" d="M223.9,159.3l-8.5-8.6c-3.6,0.1-0.7,5.5-0.6,6.2l9,7.7v-5.3H223.9z M226,159.3l8.5-8.6c3.6,0.1,0.7,5.5,0.6,6.2l-9,7.7v-5.3H226z M224.2,165l-11.8-9.5c-4,0.6-0.9,6.5-0.6,7.2l12.5,6.8L224.2,165z M225.7,165l11.8-9.5c4,0.6,0.9,6.5,0.6,7.2l-12.5,6.8L225.7,165z M226.5,169.6l12.5-7.4c4,0.6-0.1,8.1-0.3,8.7l-12.1,4.3L226.5,169.6z M223.4,169.6l-12.5-7.4c-4,0.6,0.1,8.1,0.3,8.7l12.1,4.3L223.4,169.6z" />
    <path fill="#F1B517" stroke="#000000" stroke-width="0.183" stroke-miterlimit="8" d="M223.1,157.8L205.6,139l-0.7,0.5l18.6,20.6L223.1,157.8z M204.6,137.8l-0.4-0.4v-0.9l-3.6-2.3l1.6,3.6l1.2,0.2l0.4,0.4L204.6,137.8z M226.7,157.8l17.5-18.8l0.7,0.5l-18.6,20.6L226.7,157.8z M245.3,137.8l0.4-0.4v-0.9l3.6-2.3l-1.6,3.6l-1.2,0.2l-0.4,0.4L245.3,137.8z M223.7,163.1l-25.6-19.2l-0.6,0.6l26.8,21L223.7,163.1z M196.9,142.9l-0.5-0.4l-0.1-0.9l-4-1.7l2.2,3.3h1.3l0.5,0.4L196.9,142.9z M226.2,163.1l25.6-19.2l0.6,0.6l-26.8,21L226.2,163.1z M252.9,142.9l0.5-0.4l0.1-0.9l4-1.7l-2.2,3.3H254l-0.5,0.4L252.9,142.9z M228.6,166.9l28.3-15.1l0.5,0.7l-29.9,16.6L228.6,166.9z M258.3,151l0.5-0.3l0.3-0.9l4.2-1l-2.8,2.9l-1.2-0.2l-0.5,0.3L258.3,151z M221.2,166.9l-28.4-15.1l-0.5,0.7l29.9,16.6L221.2,166.9z M191.5,151l-0.5-0.3l-0.3-0.9l-4.2-1l2.8,2.9l1.2-0.2l0.5,0.3L191.5,151z" />
    <path fill="#F1B517" stroke="#000000" stroke-width="0.183" stroke-miterlimit="8" d="M202.7,139.2c0.6-0.7,1.3-1.5,2.7-2.2l1,1.4l-2.2,1.8L202.7,139.2z M247.1,139.2c-0.6-0.7-1.3-1.5-2.7-2.2l-1,1.4l2.2,1.8L247.1,139.2z M195.3,144.5c0.5-0.8,1.1-1.7,2.2-2.6l1.2,1.3l-1.8,2.2L195.3,144.5z M254.5,144.5c-0.5-0.8-1.1-1.7-2.2-2.6l-1.2,1.3l1.8,2.2L254.5,144.5z M259.6,152.9c-0.3-0.9-0.8-1.8-1.8-2.9l-1.4,1.1l1.4,2.4L259.6,152.9z M190.2,152.9c0.3-0.9,0.8-1.8,1.8-2.9l1.4,1.1l-1.4,2.4L190.2,152.9z" />
    <path fill="#0A328C" stroke="#0A328C" stroke-width="0.183" stroke-miterlimit="8" d="M200.8,142.4l0.6,1c0.4-0.1,4-3.5,4-3.5l2.6-0.1l0.8-0.8c-1.9-2.1-3.8,0.3-3.8,0.3L200.8,142.4z M249,142.4l-0.6,1c-0.4-0.1-4-3.5-4-3.5l-2.6-0.1L241,139c1.9-2.1,3.8,0.3,3.8,0.3L249,142.4z M193.9,147.7l0.2,1.1c0.3-0.2,3.6-3.7,3.6-3.7l2.6-0.5l0.5-0.8c-1.8-2.1-3.7,0.7-3.7,0.7L193.9,147.7z M255.9,147.7l-0.2,1.1c-0.3-0.2-3.6-3.7-3.6-3.7l-2.6-0.5l-0.5-0.8c1.8-2.1,3.7,0.7,3.7,0.7L255.9,147.7z M260.8,156.3l-0.6,1.2c-0.3-0.2-3-4.6-3-4.6l-2.5-0.8l-0.5-1c2-1.9,3.5,1.3,3.5,1.3L260.8,156.3z M189.1,156.3l0.6,1.2c0.3-0.2,3-4.6,3-4.6l2.5-0.8l0.5-1c-2-1.9-3.5,1.3-3.5,1.3L189.1,156.3z" />
    <path fill="#D20014" stroke="#D20014" stroke-width="0.183" stroke-miterlimit="8" d="M202.9,144.1c0.1-0.9,1.9-3.2,2.1-3.3c1.3,0.4,2.5,1.1,3.8-1.8c-1.1,1.5-3.5,0-3.5,0l-1,0.8v0.4l-3.1,2.8L202.9,144.1z M246.9,144.1c-0.1-0.9-1.9-3.2-2.1-3.3c-1.3,0.4-2.5,1.1-3.8-1.8c1.1,1.5,3.5,0,3.5,0l1,0.8v0.4l3.1,2.8L246.9,144.1z M196,149.6c-0.1-1,1.2-3.9,1.5-4c1.5,0.5,2.9,1.2,3.5-2.1c-0.9,1.6-3.5,0.4-3.5,0.4l-0.9,1l0.1,0.5l-2.6,3.4L196,149.6z M253.9,149.6c0.1-1-1.2-3.9-1.5-4c-1.5,0.5-2.9,1.2-3.5-2.1c0.9,1.6,3.5,0.4,3.5,0.4l0.9,1l-0.1,0.5l2.6,3.4L253.9,149.6z M258.1,157.9c0.2-1-0.5-4.2-0.7-4.3c-1.6,0.5-2.9,0.6-3.2-2.6c0.9,1.5,3.3,1,3.3,1l0.7,1.1l-0.2,0.4l2.1,3.9L258.1,157.9z M191.8,157.9c-0.2-1,0.5-4.2,0.7-4.3c1.6,0.5,2.9,0.6,3.2-2.6c-0.9,1.5-3.3,1-3.3,1l-0.7,1.1l0.1,0.4l-2.1,3.9L191.8,157.9z" />
    <path fill="#016A16" stroke="#016A16" stroke-width="0.183" stroke-miterlimit="8" d="M224,126.7l-0.5,9.1h2.9l-0.4-9l3-0.4l-0.3-3.6l-7.5,0.3v3.3L224,126.7z" />
    <g>
      <path fill="#016A16" stroke="#000000" stroke-width="0.183" stroke-miterlimit="8" d="M224.8,123c-7.8-7.8-13.9-4-15.3-2.9c1,0.2,1.8-0.4,2.3-0.5c-0.3,0.4-0.9,1.2-0.9,1.2s2.4-1.1,2.7-1c-0.3,0.3-0.7,0.9-0.7,0.9c0.2,0.1,1.5-1.1,1.8-1.1c-0.4,0.5-0.5,1.5-0.5,1.5l1.2-0.5c0.3,0.2-0.1,0.6,0.2,0.6c1.9-0.2,4.7,1.8,5.1,2.4 M225,123c7.8-7.8,13.9-4,15.3-2.9c-1,0.2-1.8-0.4-2.3-0.5c0.3,0.4,0.9,1.2,0.9,1.2s-2.4-1.1-2.7-1c0.3,0.3,0.7,0.9,0.7,0.9c-0.2,0.1-1.5-1.1-1.8-1.1c0.4,0.5,0.5,1.5,0.5,1.5l-1.2-0.5c-0.3,0.2,0.1,0.6-0.2,0.6c-1.9-0.2-4.7,1.8-5.1,2.4" />
      <path fill="#016A16" stroke="#000000" stroke-width="0.183" stroke-miterlimit="8" d="M222.9,124.4c-0.8-1.9-15.6-5-18.6,0.2c1.2,0.3,2.3-1,2.3-1l-0.1,1.2l2-1.5l-0.7,1.6l1.6-1.3l-0.1,1.3l1.9-2.1L211,124l1.7-0.7l-0.2,1 M227,124.4c0.8-1.9,15.6-5,18.6,0.2c-1.2,0.3-2.3-1-2.3-1l0.1,1.2l-2-1.5l0.7,1.6l-1.6-1.3l0.1,1.3l-1.9-2.1l0.3,1.2l-1.7-0.7l0.2,1" />
      <path fill="#016A16" stroke="#000000" stroke-width="0.183" stroke-miterlimit="8" d="M222.2,124.7c-3.8-2.5-9.7-0.8-9.7-0.8c-3.7,2.1-5.7,1.7-6.2,5.6c0.4-0.1,1.4-1.4,1.4-1.4l0.8,1.5l0.3-2.1l0.6,1.7l0.9-2.7l0.2,1.9l1.4-1.9l0.7,0.5l0.6-1.4l0.6,0.9c0,0,1-0.6,1.5-0.2l1.1-1.2l0.3,0.9l0.9-1.1l0.4,0.8l0.9-0.8l-0.1,0.6l3.1,0.1 M227.6,124.7c3.8-2.5,9.7-0.8,9.7-0.8c3.7,2.1,5.7,1.7,6.2,5.6c-0.4-0.1-1.4-1.4-1.4-1.4l-0.8,1.5l-0.3-2.1l-0.6,1.7l-0.9-2.7l-0.2,1.9l-1.4-1.9l-0.7,0.5l-0.6-1.4l-0.6,0.9c0,0-1-0.6-1.5-0.2l-1.1-1.2l-0.3,0.9l-0.9-1.1l-0.4,0.8l-0.9-0.8l0.1,0.6l-3.1,0.1" />
      <path fill="#016A16" stroke="#000000" stroke-width="0.183" stroke-miterlimit="8" d="M221.4,125.1c-2.6-0.1-10.2,2.8-12.2,5.8c0.4-0.2,0.8-0.4,1.3-0.6l0.4,1.2l0.5-1.2l0.1,0.9c0.3-0.7,0.6-0.8,1.2,0l0.2-1.1l0.3,1.1l0.5-1.2c0,0,0.3,1.3,0.5,1.2c0,0,0.8-2.2,1.2-2.3l0.1,1.4l0.5-1.4l0.5,1l0.1-1.5l0.5,1.1c0,0,0.3-1.1,0.7-1.3l0.8,0.7l3.4-2.4 M228.5,125.1c2.6-0.1,10.2,2.8,12.2,5.8c-0.4-0.2-0.8-0.4-1.3-0.6l-0.4,1.2l-0.5-1.2l-0.1,0.9c-0.3-0.7-0.6-0.8-1.2,0l-0.2-1.1l-0.3,1.1l-0.5-1.2c0,0-0.3,1.3-0.5,1.2c0,0-0.8-2.2-1.2-2.3l-0.1,1.4l-0.5-1.4l-0.5,1l-0.1-1.5l-0.5,1.1c0,0-0.3-1.1-0.7-1.3l-0.8,0.7l-3.4-2.4" />
      <path fill="#016A16" stroke="#000000" stroke-width="0.183" stroke-miterlimit="8" d="M221.9,125.8c-3.5,1.3-6.7,6.2-6.4,8.2c1.6-1.9,1.2-1.7,1.9,0.6c0,0,0.3-2,0.5-2.2l0.5,1.4l0.2-1.9h0.5l-0.1-1.2l0.7,0.5c-0.2-0.7-0.3-0.9,0.4-1.5c0,0-0.9,0.1-0.2-1.5l0.7,0.7c0,0-0.1-0.7,0.1-1l2.5-0.9 M228,125.8c3.5,1.3,6.7,6.2,6.4,8.2c-1.6-1.9-1.2-1.7-1.9,0.6c0,0-0.3-2-0.5-2.2l-0.5,1.4l-0.2-1.9h-0.5l0.1-1.2l-0.7,0.5c0.2-0.7,0.3-0.9-0.4-1.5c0,0,0.9,0.1,0.2-1.5l-0.7,0.7c0,0,0.1-0.7-0.1-1l-2.5-0.9" />
      <path fill="#016A16" stroke="#000000" stroke-width="0.183" stroke-miterlimit="8" d="M222.2,126.1l-1.3,2.5l0.7,0.2L220,130l1.3-0.1c0,0-2,0.7-2.2,2.7l2-0.9c0,0-1.7,1.7-1.9,2.8l1.2-1c0,0-1.1,1.2-1,3.1l0.9-1c-0.2,2.2-0.1,2.4,0.9,4.1c0,0-0.3-2.6,0-3l2.2,2.3l-1.3-3.3c0,0,1.4,2.1,2.2,1.9l-1.8-2.7l1.7,1.4l-2-3l1.8,0.6c0,0-1.3-1.7-1.2-2.7l1.3,1.4c0,0-0.5-1.6-0.3-2l0.6,0.1l-1.3-1.4l0.9-0.2l-0.1-1l0.6-0.2v-1.1 M223.6,126.9c-2.2,3-1.3,7.4-2.4,9.9 M227.6,126.1l1.3,2.5l-0.7,0.2l1.5,1.2l-1.3-0.1c0,0,2,0.7,2.2,2.7l-2-0.9c0,0,1.7,1.7,1.9,2.8l-1.2-1c0,0,1.1,1.2,1,3.1l-0.9-1c0.2,2.2,0.1,2.4-0.9,4.1c0,0,0.3-2.6,0-3l-2.2,2.3l1.3-3.3c0,0-1.4,2.1-2.2,1.9l1.8-2.7l-1.7,1.4l2-3l-1.8,0.6c0,0,1.3-1.7,1.2-2.7l-1.3,1.4c0,0,0.5-1.6,0.3-2l-0.6,0.1l1.3-1.4l-0.9-0.2l0.1-1l-0.6-0.2v-1.1 M226.3,126.9c2.2,3,1.3,7.4,2.4,9.9" />
    </g>
    <path fill="#F1B517" stroke="#000000" stroke-width="0.183" stroke-miterlimit="8" d="M226.1,167.6c0,0,1.2-9.9,1.2-14.2c0-3.4-0.8-10.8-0.8-10.8h-3.4c0,0-0.5,7.4-0.4,10.8c0.1,4.3,1.2,14.3,1.2,14.3L226.1,167.6L226.1,167.6z" />
    <path fill="#F1B517" stroke="#000000" stroke-width="0.183" stroke-miterlimit="8" d="M222.9,143h4l-0.5-2.7h-2.9L222.9,143z" />
    <path fill="#F1B517" stroke="#000000" stroke-width="0.183" stroke-miterlimit="8" d="M223.1,140.9h3.5l-0.7-2.7h-2.2L223.1,140.9z" />
    <path fill="#F1B517" stroke="#000000" stroke-width="0.183" stroke-miterlimit="8" d="M223.4,138.7h2.9l-0.5-2.7h-1.9L223.4,138.7z" />
    <path fill="#F1B517" stroke="#000000" stroke-width="0.183" stroke-miterlimit="8" d="M225.9,135.7h-2.1l-0.2,1h2.4L225.9,135.7z" />
    <path fill="#F1B517" stroke="#000000" stroke-width="0.186" stroke-miterlimit="8" d="M226.3,165.4h-2.7" />
    <path fill="#F1B517" stroke="#000000" stroke-width="0.19" stroke-miterlimit="8" d="M226.5,163.5h-3.2" />
    <path fill="#F1B517" stroke="#000000" stroke-width="0.181" stroke-miterlimit="8" d="M226.9,161.5h-3.7" />
    <path fill="#F1B517" stroke="#000000" stroke-width="0.184" stroke-miterlimit="8" d="M227.1,159.4h-4 M227.1,157.2h-4.2" />
    <path fill="#F1B517" stroke="#000000" stroke-width="0.183" stroke-miterlimit="8" d="M227.2,155.2h-4.4 M227.3,153.5h-4.6 M227.2,151.3h-4.6" />
    <path fill="#F1B517" stroke="#000000" stroke-width="0.181" stroke-miterlimit="8" d="M227.1,149.2h-4.4" />
    <path fill="#F1B517" stroke="#000000" stroke-width="0.183" stroke-miterlimit="8" d="M226.9,147h-4.1" />
    <path fill="#F1B517" stroke="#000000" stroke-width="0.184" stroke-miterlimit="8" d="M226.7,145H223" />
    <path fill="#0A328C" stroke="#0A328C" stroke-width="0.183" stroke-miterlimit="8" d="M224.9,120.1c-0.7-0.3-2.2-1.3-1.8-1.9l0.7-1.2c1-2.3,0-1.4-0.1-2.1s3.9-0.1,3.9,1.4c0,0.4-0.3,0.2-0.3,2.6l-0.8,1.5C226.1,120.4,225.4,120.3,224.9,120.1L224.9,120.1z" />
    <path fill="#F1B517" stroke="#000000" stroke-width="0.183" stroke-miterlimit="8" d="M225.4,126l-1-0.8l0.3-7.1l1,0.3L225.4,126z" />
    <path fill="#D20014" stroke="#D20014" stroke-width="0.183" stroke-miterlimit="8" d="M226.7,120.3c0.6-0.4,1-1.4,0.6-2.1c-1-1.3-1.7-0.8-3.4-1.3c-0.3,0.4-1.1,1.1-0.9,1.6c2.2,1.1,1.4,0.2,2.1,0.3C225.6,118.8,225.8,119.3,226.7,120.3L226.7,120.3z" />
    <path fill="#016A16" stroke="#FFFFFF" stroke-width="0.237" stroke-linecap="round" stroke-miterlimit="8" d="M213.5,161.3c-0.3-0.5-1.1-0.9-2-0.9s-1.7,0.4-2,0.9c-0.1-0.1-0.1-0.2-0.1-0.4c0-0.7,0.9-1.2,2.1-1.2s2.1,0.5,2.1,1.2C213.6,161.1,213.6,161.2,213.5,161.3z" />
    <path fill="#016A16" stroke="#FFFFFF" stroke-width="0.181" stroke-linecap="round" stroke-miterlimit="8" d="M213.4,162.8c0,1.3-0.8,2.4-1.8,2.4s-1.8-1.1-1.8-2.4v-1.3h3.6V162.8z" />
    <path fill="#FFFFFF" d="M211.5,160.2c0.994,0,1.8,0.403,1.8,0.9s-0.806,0.9-1.8,0.9s-1.8-0.403-1.8-0.9S210.506,160.2,211.5,160.2z" />
    <path fill="#016A16" stroke="#F1B517" stroke-width="0.183" stroke-miterlimit="8" d="M211.1,162.2l-0.3-3.3h1.4l-0.2,3.3H211.1z" />
    <path fill="#016A16" stroke="#FFFFFF" stroke-width="0.237" stroke-linecap="round" stroke-miterlimit="8" d="M213.5,161.2c-0.3,0.5-1.1,0.9-2,0.9s-1.7-0.4-2-0.9c-0.1,0.1-0.1,0.2-0.1,0.4c0,0.7,0.9,1.2,2.1,1.2s2.1-0.5,2.1-1.2C213.6,161.4,213.6,161.3,213.5,161.2z" />
    <g>
      <path fill="#F1B517" stroke="#000000" stroke-width="0.183" stroke-miterlimit="8" d="M221,173.9l-7.1-2.2l-3.1-5.3l-10.9-0.5l0.4,3.9l9.3,1.8l0.9,1.6l10.7,3L221,173.9z M228.8,173.9l7.1-2.2l3.1-5.3l10.9-0.5l-0.4,3.9l-9.3,1.8l-0.9,1.6l-10.7,3L228.8,173.9z" />
      <path fill="#503200" stroke="#000000" stroke-width="0.183" stroke-miterlimit="8" d="M213.7,175.3l-11.1-16.4l-0.5,0.4l11.1,16.5L213.7,175.3z M236.2,175.3l11.1-16.4l0.5,0.4l-11.1,16.5L236.2,175.3z" />
      <path fill="#FFFFFF" stroke="#000000" stroke-width="0.183" stroke-miterlimit="8" d="M203.6,159.6l-1.2-2c-0.2-0.4-0.6-0.5-1.1-0.2s-0.4,0.8-0.2,1.1l1.1,1.9L203.6,159.6z M246.3,159.6l1.2-2c0.2-0.4,0.6-0.5,1.1-0.2s0.4,0.8,0.2,1.1l-1.1,1.9L246.3,159.6z" />
      <path fill="#F1B517" stroke="#000000" stroke-width="0.183" stroke-miterlimit="8" d="M215,165.2l-22.5-2.3l-0.5,3.3l22.4,2.3L215,165.2z M234.9,165.2l22.5-2.3l0.5,3.3l-22.4,2.3L234.9,165.2z" />
      <path fill="#F1B517" stroke="#000000" stroke-width="0.183" stroke-miterlimit="8" d="M192.1,162.1l-0.6,4.5h0.9l0.7-4.2L192.1,162.1z M195.8,162.8l-0.3,4.1l0.6,0.1l0.5-3.6L195.8,162.8z M211.1,164.6l-0.5,3.8h1.1l0.4-3.8H211.1z M214.4,164.7l-0.8,4.4l1.2,0.2l0.4-2.3c0.1,0.5,0.5,0.8,1,0.8c0.6,0,1.1-0.5,1.1-1s-0.5-1-1.1-1c-0.4,0-0.8,0.2-0.9,0.7l0.2-1.7L214.4,164.7z M206.3,165.4l-3.1,3.5l0.4,0.4l4-2.7L206.3,165.4z M199.1,174.1l3.1-3.5l-0.4-0.4l-4,2.7L199.1,174.1z M207.2,173.2l-3.8-2.9l-0.4,0.3l3,3.8L207.2,173.2z M197.9,166.5l3.8,2.8l0.5-0.3l-3-3.8L197.9,166.5z M202.1,164.2l0.4,4.6h0.5l1.2-4.5L202.1,164.2z M203.3,175.3l-0.4-4.6l-0.6-0.1l-0.7,4.6L203.3,175.3z M208.4,169.1l-4.8,0.5l-0.1,0.5l4.9,0.6L208.4,169.1z M197,170.7l4.7-0.7l0.1-0.4l-4.8-0.5V170.7z M257.8,162.1l0.6,4.5h-0.9l-0.7-4.2L257.8,162.1z M254,162.8l0.3,4.1l-0.6,0.1l-0.5-3.6L254,162.8z M238.8,164.6l0.5,3.8h-1.1l-0.4-3.8H238.8z M235.4,164.7l0.8,4.4l-1.2,0.2l-0.4-2.3c-0.1,0.5-0.5,0.8-1,0.8c-0.6,0-1.1-0.5-1.1-1s0.5-1,1.1-1c0.4,0,0.8,0.2,0.9,0.7l-0.2-1.7L235.4,164.7z M243.5,165.4l3.1,3.5l-0.4,0.4l-4-2.7L243.5,165.4z M250.7,174.1l-3.1-3.5l0.4-0.4l4,2.7L250.7,174.1z M242.6,173.2l3.8-2.9l0.4,0.3l-3,3.8L242.6,173.2z M251.9,166.5l-3.8,2.8l-0.5-0.3l3-3.8L251.9,166.5z M247.8,164.2l-0.4,4.6h-0.5l-1.2-4.5L247.8,164.2z M246.5,175.3l0.4-4.6l0.6-0.1l0.7,4.6L246.5,175.3z M241.5,169.1l4.8,0.5l0.1,0.5l-4.9,0.6L241.5,169.1z M252.9,170.7l-4.7-0.7l-0.1-0.4l4.8-0.5V170.7z" />
      <path fill="#F1B517" stroke="#000000" stroke-width="0.183" stroke-miterlimit="8" d="M202.7,168.4c0.7,0,1.3,0.5,1.3,1.2s-0.6,1.2-1.3,1.2s-1.3-0.5-1.3-1.2S202,168.4,202.7,168.4z M247.2,168.4c-0.7,0-1.3,0.5-1.3,1.2s0.6,1.2,1.3,1.2s1.3-0.5,1.3-1.2S247.9,168.4,247.2,168.4z" />
      <path fill="#F1B517" stroke="#000000" stroke-width="0.183" stroke-linecap="round" stroke-miterlimit="8" d="M209.4,169.6c0,3.6-3,6.5-6.7,6.5s-6.7-2.9-6.7-6.5s3-6.5,6.7-6.5S209.4,166,209.4,169.6z M208.1,169.6c0,2.9-2.4,5.2-5.4,5.2s-5.4-2.3-5.4-5.2s2.4-5.2,5.4-5.2C205.7,164.4,208.1,166.8,208.1,169.6z M240.4,169.6c0,3.6,3,6.5,6.7,6.5s6.7-2.9,6.7-6.5s-3-6.5-6.7-6.5S240.4,166,240.4,169.6z M241.8,169.6c0,2.9,2.4,5.2,5.4,5.2s5.4-2.3,5.4-5.2s-2.4-5.2-5.4-5.2C244.2,164.4,241.8,166.8,241.8,169.6z" />
      <path fill="#F1B517" stroke="#000000" stroke-width="0.183" stroke-miterlimit="8" d="M198.5,166.3l-1.1-0.8 M206,165.6l0.9-0.9 M208,173.8l-1.1-0.9 M198.5,174.8l1-1 M221.2,163.2l1.2,5.9l-0.9,0.5l-1-6.3L221.2,163.2z M251.4,166.3l1.1-0.8 M243.8,165.6l-0.9-0.9 M241.9,173.8l1.1-0.9 M251.4,174.8l-1-1 M228.7,163.2l-1.2,5.9l0.9,0.5l1-6.3L228.7,163.2z" />
      <path fill="#FFFFFF" stroke="#000000" stroke-width="0.183" stroke-miterlimit="8" d="M220.6,162.4c-0.5-0.2-1.2,0.2-2.4-1.3c-1.9,1.7-0.1,2,0.2,3.7c0.5,0.2,0.9-1.3,2.3-1.5c0.2,0,2.3-0.2,2.3-0.2l-0.5-0.7C222.5,162.4,221,162.5,220.6,162.4L220.6,162.4z M229.3,162.4c0.5-0.2,1.2,0.2,2.4-1.3c1.9,1.7,0.1,2-0.2,3.7c-0.5,0.2-0.9-1.3-2.3-1.5c-0.2,0-2.3-0.2-2.3-0.2l0.5-0.7C227.4,162.4,228.9,162.5,229.3,162.4L229.3,162.4z" />
      <path fill="#FFFFFF" stroke="#000000" stroke-width="0.183" stroke-miterlimit="8" d="M221.4,163.6l-0.2-1.8c-0.2-0.6-1-0.1-1,0.3l0.2,1.6L221.4,163.6z M228.5,163.6l0.2-1.8c0.2-0.6,1-0.1,1,0.3l-0.2,1.6L228.5,163.6z" />
      <path fill="#F1B517" stroke="#000000" stroke-width="0.183" stroke-miterlimit="8" d="M215.8,168.4v1.6c-0.5,0.2-0.5,0.6-0.4,1.2v4.8c-0.2,0.3-0.8,0.3-1.1,0.6c-0.3,0.2-0.2,0.7,1,1h1c1.5-0.3,1.8-0.8,1-1.1c-0.4-0.1-0.9-0.3-1.1-0.6v-1.1h1c0.3,0,0.8-0.7,0.8-1.2v-2.5c0-1.4-1.1-1.6-1.4-1.5v-1.3L215.8,168.4z M217.4,171.2c0-0.4-0.6-0.8-0.8-0.8s-0.7,0.5-0.8,0.9v1c0,0.4,0.3,1.6,0.9,1.7c0.3,0,0.6-0.4,0.6-0.8L217.4,171.2L217.4,171.2z M234.1,168.4v1.6c0.5,0.2,0.5,0.6,0.4,1.2v4.8c0.2,0.3,0.8,0.3,1.1,0.6c0.3,0.2,0.2,0.7-1,1h-1c-1.5-0.3-1.8-0.8-1-1.1c0.4-0.1,0.9-0.3,1.1-0.6v-1.1h-1c-0.3,0-0.8-0.7-0.8-1.2v-2.5c0-1.4,1.1-1.6,1.4-1.5v-1.3L234.1,168.4z M232.5,171.2c0-0.4,0.6-0.8,0.8-0.8s0.7,0.5,0.8,0.9v1c0,0.4-0.3,1.6-0.9,1.7c-0.3,0-0.6-0.4-0.6-0.8L232.5,171.2L232.5,171.2z" />
      <path fill="#FFFFFF" stroke="#000000" stroke-width="0.183" stroke-miterlimit="8" d="M209.3,173.4c-0.6-0.3-0.6,1.2-0.6,1.2h1c0.4,0.2,0.8,0.8,0.5,1.2c-0.2,0.3-2.2-0.4-2.3,0c0.3,1.9,2.9,2.7,3.8,1.8c0.9-0.8,1.1-3-1.8-3.6L209.3,173.4z M209.9,173.9l-0.3,0.6 M240.6,173.4c0.6-0.3,0.6,1.2,0.6,1.2h-1c-0.4,0.2-0.8,0.8-0.5,1.2c0.2,0.3,2.2-0.4,2.3,0c-0.3,1.9-2.9,2.7-3.8,1.8c-0.9-0.8-1.1-3,1.8-3.6L240.6,173.4z M240,173.9l0.3,0.6" />
      <path fill="#F1B517" stroke="#000000" stroke-width="0.183" stroke-miterlimit="8" d="M189.9,174.1l-1-4.1 M191.1,173.9l-1.5-3.2 M193.7,173.1l-3.3-1.8 M195.1,172.7l-6.2-2.7 M259.9,174.1l1-4.1 M258.7,173.9l1.5-3.2 M256.2,173.1l3.3-1.8 M254.8,172.7l6.2-2.7" />
      <path fill="#D20014" stroke="#D20014" stroke-width="0.183" stroke-miterlimit="8" d="M185.2,167.1c0,0-2.3,0-2.7,0.1c-0.2,0.1,0.6,0.8,0.4,1.1c-0.6,1.1-4.4,0.9-4.7,0.7c-0.5-0.4,3.6-0.8,3.6-1c0-0.3-0.6-1.1-0.5-1.7c0.1-0.7,1.8-0.9,1.8-0.9L185.2,167.1z M264.6,167.1c0,0,2.3,0,2.7,0.1c0.2,0.1-0.6,0.8-0.4,1.1c0.6,1.1,4.4,0.9,4.7,0.7c0.5-0.4-3.6-0.8-3.6-1c0-0.3,0.6-1.1,0.5-1.7c-0.1-0.7-1.8-0.9-1.8-0.9L264.6,167.1z" />
      <path fill="#503200" stroke="#000000" stroke-width="0.183" stroke-miterlimit="8" d="M188.2,169.1l-5.1-4.2c0,0-0.2-0.2-0.4,0s0.1,0.4,0.1,0.4l5.3,4.3L188.2,169.1z M261.6,169.1l5.1-4.2c0,0,0.2-0.2,0.4,0c0.2,0.2-0.1,0.4-0.1,0.4l-5.3,4.3L261.6,169.1z" />
      <path fill="#F1B517" stroke="#000000" stroke-width="0.183" stroke-miterlimit="8" d="M193.1,173.3c-0.1-0.1-4.2-3.6-4.2-3.6l-0.3-1c0,0-0.6,0.4-0.9,0.6s-0.6,0.8-0.6,0.8l1.1,0.1l3.6,3.3L193.1,173.3z M256.7,173.3c0.1-0.1,4.2-3.6,4.2-3.6l0.3-1c0,0,0.6,0.4,0.9,0.6s0.6,0.8,0.6,0.8l-1.1,0.1l-3.6,3.3L256.7,173.3z" />
      <path fill="#F1B517" stroke="#000000" stroke-width="0.183" stroke-miterlimit="8" d="M207.5,177.4c0.4,0,0.7,0.3,0.7,0.7s-0.3,0.7-0.7,0.7s-0.7-0.3-0.7-0.7S207.1,177.4,207.5,177.4z M205.6,176.1c0.4,0,0.7,0.3,0.7,0.7s-0.3,0.7-0.7,0.7s-0.7-0.3-0.7-0.7S205.2,176.1,205.6,176.1z M203.1,177c0.4,0,0.7,0.3,0.7,0.7s-0.3,0.7-0.7,0.7s-0.7-0.3-0.7-0.7S202.7,177,203.1,177z M199.2,177.8c0.4,0,0.7,0.3,0.7,0.7s-0.3,0.7-0.7,0.7s-0.7-0.3-0.7-0.7S198.7,177.8,199.2,177.8z M197.5,178c0.4,0,0.7,0.3,0.7,0.7s-0.3,0.7-0.7,0.7s-0.7-0.3-0.7-0.7S197.1,178,197.5,178z M195.8,178c0.4,0,0.7,0.3,0.7,0.7s-0.3,0.7-0.7,0.7s-0.7-0.3-0.7-0.7S195.4,178,195.8,178z M194.2,178c0.4,0,0.7,0.3,0.7,0.7s-0.3,0.7-0.7,0.7s-0.7-0.3-0.7-0.7S193.8,178,194.2,178z M195,176.7c0.4,0,0.7,0.3,0.7,0.7s-0.3,0.7-0.7,0.7s-0.7-0.3-0.7-0.7S194.6,176.7,195,176.7z M196.6,176.8c0.4,0,0.7,0.3,0.7,0.7s-0.3,0.7-0.7,0.7s-0.7-0.3-0.7-0.7S196.2,176.8,196.6,176.8z M198.1,176.6c0.4,0,0.7,0.3,0.7,0.7s-0.3,0.7-0.7,0.7s-0.7-0.3-0.7-0.7S197.7,176.6,198.1,176.6z M197.4,175.3c0.4,0,0.7,0.3,0.7,0.7s-0.3,0.7-0.7,0.7s-0.7-0.3-0.7-0.7S197,175.3,197.4,175.3z M195.8,175.3c0.4,0,0.7,0.3,0.7,0.7s-0.3,0.7-0.7,0.7s-0.7-0.3-0.7-0.7S195.4,175.3,195.8,175.3z M244.2,176.1c-0.4,0-0.7,0.3-0.7,0.7s0.3,0.7,0.7,0.7s0.7-0.3,0.7-0.7C245,176.4,244.6,176.1,244.2,176.1z M242.3,177.4c-0.4,0-0.7,0.3-0.7,0.7s0.3,0.7,0.7,0.7s0.7-0.3,0.7-0.7S242.7,177.4,242.3,177.4z M246.8,177c-0.4,0-0.7,0.3-0.7,0.7s0.3,0.7,0.7,0.7s0.7-0.3,0.7-0.7S247.2,177,246.8,177z M254,176.7c0.4,0,0.7-0.3,0.7-0.7s-0.3-0.7-0.7-0.7s-0.7,0.3-0.7,0.7S253.6,176.7,254,176.7z M252.5,176.8c0.4,0,0.7-0.3,0.7-0.7s-0.3-0.7-0.7-0.7s-0.7,0.3-0.7,0.7C251.8,176.4,252.1,176.8,252.5,176.8z M251.7,178c0.4,0,0.7-0.3,0.7-0.7s-0.3-0.7-0.7-0.7s-0.7,0.3-0.7,0.7S251.3,178,251.7,178z M255.6,177.4c0-0.4-0.3-0.7-0.7-0.7s-0.7,0.3-0.7,0.7s0.3,0.7,0.7,0.7S255.6,177.8,255.6,177.4z M254,178c-0.4,0-0.7,0.3-0.7,0.7s0.3,0.7,0.7,0.7s0.7-0.3,0.7-0.7S254.4,178,254,178z M255.7,178c-0.4,0-0.7,0.3-0.7,0.7s0.3,0.7,0.7,0.7c0.4,0,0.7-0.3,0.7-0.7S256.1,178,255.7,178z M252.4,178c-0.4,0-0.7,0.3-0.7,0.7s0.3,0.7,0.7,0.7s0.7-0.3,0.7-0.7S252.8,178,252.4,178z M254,177.5c0-0.4-0.3-0.7-0.7-0.7s-0.7,0.3-0.7,0.7s0.3,0.7,0.7,0.7S254,177.9,254,177.5z M250.7,177.8c-0.4,0-0.7,0.3-0.7,0.7s0.3,0.7,0.7,0.7s0.7-0.3,0.7-0.7S251.1,177.8,250.7,177.8z" />
      <path fill="#F1B517" stroke="#000000" stroke-width="0.183" stroke-miterlimit="8" d="M211.5,179.1c0-0.3-0.8-0.2-0.8-0.6c0-0.4,1.2-0.1,1.3,0.3c0.7-0.6,0.9-0.2,1.3,0c0.6-0.9,1.3-0.8,2-0.2c0.4-0.4,1.4-0.3,1.8,0.2c0.7-0.7,1.3-0.5,1.7,0c0.2-0.3,0.5-0.3,0.7,0c0.4-0.6,1.2-0.4,1.6,0c0.3-0.4,0.7-0.1,1.1,0.2c0.3-0.3,0.8-0.2,0.8,0.1s-0.6,0.2-0.6,0.5s0.5,0.1,0.5,0.4c0,0.3-0.7,0.4-0.8-0.1c-0.2,0.4-1.1,0.3-1.1-0.1c-0.3,0.3-0.9,0.4-1.2-0.1c-0.3,0.2-0.6,0.3-0.8,0c-0.5,0.6-1.4,0.4-1.7-0.2H217c-0.5,0.7-1.3,0.4-1.5,0c-0.9,0.6-1.4,0.4-1.8,0c-0.5,0.7-1.4,0.6-1.6,0c-0.4,0.3-1.1,0.3-1.1,0C210.8,179.2,211.5,179.3,211.5,179.1z M213.1,179.2c0,0.1-0.2,0.3-0.4,0.3s-0.4-0.1-0.4-0.3c0-0.1,0.2-0.3,0.4-0.3S213.1,179.1,213.1,179.2z M214.9,179c0,0.2-0.2,0.3-0.5,0.3s-0.5-0.1-0.5-0.3s0.2-0.3,0.5-0.3S214.9,178.8,214.9,179z M218.5,179.2c0,0.2-0.2,0.3-0.5,0.3s-0.5-0.1-0.5-0.3s0.2-0.3,0.5-0.3S218.5,179,218.5,179.2z M216.6,179.1c0,0.2-0.2,0.4-0.5,0.4s-0.5-0.2-0.5-0.4s0.2-0.4,0.5-0.4S216.6,178.9,216.6,179.1z M220.7,179.1c0,0.2-0.2,0.4-0.4,0.4s-0.4-0.2-0.4-0.4s0.2-0.4,0.4-0.4C220.5,178.8,220.7,178.9,220.7,179.1z M219.4,179.2c0,0.1-0.1,0.2-0.3,0.2c-0.1,0-0.3-0.1-0.3-0.2c0-0.1,0.1-0.2,0.3-0.2C219.3,179,219.4,179.1,219.4,179.2z M221.9,179.3c0,0.2-0.1,0.3-0.3,0.3s-0.3-0.1-0.3-0.3s0.1-0.3,0.3-0.3C221.7,179,221.9,179.1,221.9,179.3z M238.4,179.1c0-0.3,0.8-0.2,0.8-0.6c0-0.4-1.2-0.1-1.3,0.3c-0.7-0.6-0.9-0.2-1.3,0c-0.6-0.9-1.3-0.8-2-0.2c-0.4-0.4-1.4-0.3-1.8,0.2c-0.7-0.7-1.3-0.5-1.7,0c-0.2-0.3-0.5-0.3-0.7,0c-0.4-0.6-1.2-0.4-1.6,0c-0.3-0.4-0.7-0.1-1.1,0.2c-0.3-0.3-0.8-0.2-0.8,0.1s0.6,0.2,0.6,0.5s-0.5,0.1-0.5,0.4c0,0.3,0.7,0.4,0.8-0.1c0.2,0.4,1.1,0.3,1.1-0.1c0.3,0.3,0.9,0.4,1.2-0.1c0.3,0.2,0.6,0.3,0.8,0c0.5,0.6,1.4,0.4,1.7-0.2h0.3c0.5,0.7,1.3,0.4,1.5,0c0.9,0.6,1.4,0.4,1.8,0c0.5,0.7,1.4,0.6,1.6,0c0.4,0.3,1.1,0.3,1.1,0C239,179.2,238.4,179.3,238.4,179.1z M236.7,179.2c0,0.1,0.2,0.3,0.4,0.3s0.4-0.1,0.4-0.3c0-0.1-0.2-0.3-0.4-0.3S236.7,179.1,236.7,179.2z M234.9,179c0,0.2,0.2,0.3,0.5,0.3s0.5-0.1,0.5-0.3s-0.2-0.3-0.5-0.3C235.1,178.7,234.9,178.8,234.9,179z M231.3,179.2c0,0.2,0.2,0.3,0.5,0.3s0.5-0.1,0.5-0.3s-0.2-0.3-0.5-0.3S231.3,179,231.3,179.2z M233.2,179.1c0,0.2,0.2,0.4,0.5,0.4s0.5-0.2,0.5-0.4s-0.2-0.4-0.5-0.4S233.2,178.9,233.2,179.1z M229.2,179.1c0,0.2,0.2,0.4,0.4,0.4s0.4-0.2,0.4-0.4s-0.2-0.4-0.4-0.4C229.4,178.8,229.2,178.9,229.2,179.1z M230.4,179.2c0,0.1,0.1,0.2,0.3,0.2c0.1,0,0.3-0.1,0.3-0.2c0-0.1-0.1-0.2-0.3-0.2S230.4,179.1,230.4,179.2z M228,179.3c0,0.2,0.1,0.3,0.3,0.3s0.3-0.1,0.3-0.3s-0.1-0.3-0.3-0.3S228,179.1,228,179.3z" />
    </g>
    <g>
      <path fill="#0A328C" stroke="#0A328C" stroke-width="0.231" stroke-miterlimit="8" d="M224.8,166.8c-2.5,0-4.6,0.9-4.6,2.1c0,0.2,0.1,0.4,0.2,0.6c0.5,0.6,2.3,1.1,4.4,1.1c2,0,3.6-0.4,4.3-1c0.2-0.2,0.3-0.4,0.3-0.7C229.4,167.7,227.3,166.8,224.8,166.8L224.8,166.8z" />
      <path fill="#F1B517" stroke="#000000" stroke-width="0.187" stroke-miterlimit="8" d="M229.4,169.1v7.1c0,0.8-2,1.5-4.6,1.5s-4.6-0.7-4.6-1.5v-7.1c0,0.8,2,1.5,4.6,1.5S229.4,169.9,229.4,169.1z" />
      <path fill="#D20014" stroke="#D20014" stroke-width="0.183" stroke-miterlimit="8" d="M220.3,169.1v1.1l2.2,6.8l1.8-5.3l1.9,5.5l1.4-5.2l1.8,3.5v-1.9l-1.7-3.4c-0.2,0.1-0.4,0.1-0.6,0.1l-1,3.8l-1.4-3.6c-0.2,0-0.5,0-0.7,0l-1.5,3.6l-1.7-4.4C220.5,169.6,220.3,169.3,220.3,169.1L220.3,169.1z" />
      <path fill="#0A328C" stroke="#0A328C" stroke-width="0.187" stroke-miterlimit="8" d="M229.4,174.8v1.3c0,0.8-2,1.5-4.6,1.5s-4.6-0.7-4.6-1.5v-1.3c0,0.8,2,1.5,4.6,1.5S229.4,175.6,229.4,174.8L229.4,174.8z" />
      <path fill="#F1B517" stroke="#000000" stroke-width="0.187" stroke-miterlimit="8" d="M226.7,176.2c-0.4,0.1-0.8,0.1-1.2,0.1v1.3c0.4,0,0.8-0.1,1.2-0.1V176.2z M221.9,175.9v1.3c0.4,0.1,0.8,0.2,1.2,0.2v-1.3C222.6,176.1,222.3,176,221.9,175.9L221.9,175.9z M220.3,174.8v1.3c0,0.2,0.2,0.5,0.5,0.7v-1.3C220.5,175.3,220.3,175.1,220.3,174.8L220.3,174.8z M229.4,174.9L229.4,174.9c-0.1,0.3-0.4,0.5-0.9,0.7v1.3c0.5-0.2,0.8-0.5,0.8-0.9L229.4,174.9z" />
      <path fill="none" stroke="#000000" stroke-width="0.187" stroke-miterlimit="8" d="M229.4,169.1v7c0,0.8-2,1.5-4.6,1.5s-4.6-0.7-4.6-1.5v-7" />
      <path fill="#FFFFFF" stroke="#FFFFFF" stroke-width="0.192" stroke-miterlimit="8" d="M228.4,168.6c0,0.5-1.6,0.9-3.5,0.9c-2,0-3.5-0.4-3.5-0.9s1.6-0.9,3.5-0.9C226.8,167.7,228.4,168.1,228.4,168.6z" />
      <path fill="#F1B517" stroke="#000000" stroke-width="0.231" stroke-miterlimit="8" d="M223.7,169.3l0.2,1.2c0.3,0,0.6,0,1,0l0.2-1.3h-1.4V169.3z M227.8,169l-0.9,0.2l0.1,1.2c0.3,0,0.6-0.1,0.9-0.2L227.8,169z M222.4,167.1c-0.3,0.1-0.5,0.2-0.7,0.3l0.1,0.9l0.6-0.2L222.4,167.1z M224.8,166.7c-0.1,0-0.2,0-0.4,0l0.2,1.2h0.6l0.2-1.2C225.3,166.7,225.1,166.7,224.8,166.7L224.8,166.7z M227.5,167.1l-0.1,1l0.7,0.2l0.1-1C227.9,167.3,227.7,167.2,227.5,167.1z" />
      <path fill="#F1B517" stroke="#000000" stroke-width="0.183" stroke-miterlimit="8" d="M221,169.9l0.2-1.3l-0.9-0.5v1.5L221,169.9z M229.4,169.6v-1.3l-0.9,0.3L229.4,169.6z" />
    </g>
    <path fill="#F1B517" stroke="#000000" stroke-width="0.183" stroke-miterlimit="8" d="M238.7,161.1c0.8-0.1,2.1,1,2.1,2.4c0.1,1.1-1.7,1.1-1.7,1.1c-0.1,0.5-1.1,0.9-1.8,0.9c-0.8,0,0.2-1.4,0.2-1.4c-0.5-1.3,0.1-2.7,0.1-2.7L238.7,161.1z" />
    <path fill="#F1B517" stroke="#000000" stroke-width="0.183" stroke-miterlimit="8" d="M237.5,164h0.8c0,0,0.1,0.4,0.2,0.4c0.2,0,0.3-0.4,0.3-0.4h1.2" />
    <path fill="#D20014" stroke="#F1B517" stroke-width="0.183" stroke-miterlimit="8" d="M239.1,161.9c0.7-0.5,0.1-1.5-0.4-1.5h-1.1c-0.5,0-1.4,0.6-1.3,1.1c0.1,0.4,0.4,0.6,0.8,0.5c0.2,0,0.6-0.6,0.8-0.6C238.3,161.5,238.9,162.1,239.1,161.9z" />
    <path fill="#F1B517" stroke="#000000" stroke-width="0.183" stroke-miterlimit="8" d="M189.2,175.9c-0.6,0.1-0.7,0.8-0.5,1.4c-2.7,0.8-5.1,1.7-7.5,2.4c-0.1-0.5,1.2-1.8,1.2-1.8c0.3,0.2,0.6,0.9,0.6,0.9c0.1-1.6,1.6-2.6,1.6-2.6c-0.9-0.1-3.7,1-4.1,1.4c0,0,1.1-0.1,1.3,0c0,0-2.1,2.3-2.2,3c0.3,0.8,4,1.3,4,1.3c-0.1,0.2-1.1,0.9-1.1,0.9c1.5,0.3,3.7-0.7,4.3-1.4c0,0-1.7-0.1-3.1-1.2c0,0,0.3,0.7,0.1,1c0,0-2.1-0.6-2.3-1c0,0,5-1.3,7.4-2c0.1,0.4,0.6,1.2,1.1,1c0.4-0.1,0.3-0.9,0.1-1.4c0.1,0.1,0.3,0.2,0.5,0.2c0.4,0,0.8-0.3,0.8-0.7s-0.3-0.7-0.8-0.7c-0.3,0-0.6,0.2-0.7,0.5C190,176.8,189.7,175.9,189.2,175.9L189.2,175.9z M191.1,177.5c0,0.2-0.2,0.3-0.4,0.3s-0.4-0.2-0.4-0.3c0-0.2,0.2-0.3,0.4-0.3C191,177.1,191.1,177.3,191.1,177.5z M268.1,179c0.2-0.4-0.2-2.2-0.2-2.2c-0.4,0-0.9,0.7-0.9,0.7c0.5-1.5-0.9-4-0.9-4c0.9,0.2,3.9,3.1,4.1,3.7c0,0-1.3-0.5-1.5-0.4c0.2,1.5,1.3,2.2,1.6,3c0,0-1.7,0.4-1.6,1.8h-1.1c-0.4-0.5,0.2-1.3,0.2-1.3l-7.7-3.2c-0.5-0.2-1.6-0.7-1.5-1.3c0.2-0.6,2,0.3,2.5,0.4L268.1,179z" />
    <path fill="#F1B517" stroke="#000000" stroke-width="0.183" stroke-miterlimit="8" d="M260.6,177.6l0.9-1.7c0.3-0.4-0.3-0.9-0.8-0.4l-1,1.5C259.2,178,260.2,178.2,260.6,177.6L260.6,177.6z" />
    <path fill="#FFFFFF" stroke="#000000" stroke-width="0.183" d="M206.4,180.4l-0.1-1.8l-2.2,0.1l-0.1,2L206.4,180.4z" />
    <path fill="#FFFFFF" stroke="#000000" stroke-width="0.183" d="M190.2,182.9l-3-1.7c12.2,1.1,14.7-3.1,17.6-3.4c1.8-0.1,2.1,2-1.4,1l0.9,2.2c0,0-8.6,4.9-17.1,2.9L190.2,182.9z M243.2,180.4l0.1-1.8l2.7,0.1l0.1,2L243.2,180.4z" />
    <path fill="#FFFFFF" stroke="#000000" stroke-width="0.183" d="M259.9,182.5l2.8-1.5c-13.9,0.4-10.8-2.3-17.7-3c-1.8-0.2-3.2,2.1,1.4,1l-0.9,2.2h2.2c4.7,3.1,11.2,3.4,15.4,2.4L259.9,182.5L259.9,182.5z" />
    <path fill="#FFFFFF" stroke="#000000" stroke-width="0.183" d="M203.4,178.9v3.2c0,0,7.7,2.9,21.5,2.9s21.5-2.9,21.5-2.9v-3.2c0,0-5.8,2.7-21.5,2.7C209.3,181.6,203.4,178.9,203.4,178.9L203.4,178.9z" />
    <path d="M204.6,182.1l0.7-2.3l0.3,0.1l-0.6,2l1.2,0.3l-0.1,0.3L204.6,182.1z M206.8,181.1v-0.5l0.1-0.4l0.3,0.1l-0.1,0.4l-0.2,0.4H206.8L206.8,181.1z M210.1,180.9l0.3,0.1l-0.3,1.4c-0.1,0.2-0.1,0.4-0.2,0.5s-0.2,0.2-0.4,0.3s-0.4,0.1-0.6,0c-0.2,0-0.4-0.1-0.5-0.2c-0.1-0.1-0.2-0.2-0.2-0.4s0-0.4,0-0.6l0.3-1.4l0.3,0.1l-0.3,1.4c0,0.2-0.1,0.4,0,0.5c0,0.1,0.1,0.2,0.2,0.3c0.1,0.1,0.2,0.1,0.3,0.1c0.2,0,0.4,0,0.5-0.1s0.2-0.3,0.3-0.6L210.1,180.9z M210.5,183.4l0.4-2.4l0.3,0.1l1,2.1l0.3-1.9h0.3l-0.4,2.4l-0.3-0.1l-1-2.1l-0.3,1.9H210.5z M213,183.8l0.3-2.4h0.3l-0.3,2.4H213z M214,182.8c0-0.4,0.2-0.7,0.4-0.9s0.5-0.3,0.9-0.2c0.2,0,0.4,0.1,0.6,0.2c0.2,0.1,0.3,0.3,0.4,0.5c0.1,0.2,0.1,0.4,0.1,0.7c0,0.2-0.1,0.4-0.2,0.6c-0.1,0.2-0.3,0.3-0.5,0.4c-0.2,0.1-0.4,0.1-0.6,0.1c-0.2,0-0.4-0.1-0.6-0.2c-0.2-0.1-0.3-0.3-0.4-0.5C214,183.2,214,183,214,182.8L214,182.8z M214.3,182.8c0,0.3,0,0.5,0.2,0.7c0.1,0.2,0.3,0.3,0.6,0.3c0.2,0,0.5,0,0.6-0.2c0.2-0.1,0.3-0.4,0.3-0.7c0-0.2,0-0.4,0-0.5s-0.1-0.3-0.3-0.4c-0.1-0.1-0.3-0.2-0.4-0.2c-0.2,0-0.4,0-0.6,0.2C214.5,182.2,214.4,182.4,214.3,182.8L214.3,182.8z M216.6,184.2l0.2-2.4h0.3l1.1,2l0.2-1.9h0.3l-0.2,2.4h-0.3l-1.1-2l-0.2,1.9H216.6z M220.1,184.5l0.1-2.4l1.7,0.1v0.3l-1.3-0.1v0.7h1.2v0.3h-1.2v1.1L220.1,184.5L220.1,184.5z M221.9,184.5l1-2.4h0.4l1,2.4h-0.4l-0.3-0.7h-1l-0.3,0.7H221.9L221.9,184.5z M222.7,183.6h0.8l-0.2-0.7c-0.1-0.2-0.1-0.3-0.2-0.5c0,0.2-0.1,0.3-0.1,0.5L222.7,183.6z M224.6,184.6v-2.4h0.3v2.4H224.6L224.6,184.6z M226.1,184.6v-2.1h-0.8v-0.3h2v0.3h-0.8v2.1H226.1L226.1,184.6z M228.6,184.5l-0.1-2.4h0.3l0.1,2.1l1.2-0.1v0.3L228.6,184.5z M230.3,184.4l0.8-2.5h0.4l1.2,2.3h-0.4l-0.3-0.7l-1,0.1l-0.2,0.7L230.3,184.4z M230.9,183.4l0.8-0.1l-0.3-0.6c-0.1-0.2-0.1-0.3-0.2-0.5c0,0.2-0.1,0.3-0.1,0.5L230.9,183.4z M233.8,184.2l-0.3-2.4l1.7-0.2v0.3l-1.3,0.1l0.1,0.7l1.2-0.1v0.3L234,183l0.1,1.1L233.8,184.2z M235.6,182.8c-0.1-0.4,0-0.7,0.2-1s0.5-0.4,0.8-0.5c0.2,0,0.4,0,0.6,0.1c0.2,0.1,0.4,0.2,0.5,0.4s0.2,0.4,0.2,0.6c0,0.2,0,0.5-0.1,0.7s-0.2,0.4-0.4,0.5s-0.4,0.2-0.6,0.2c-0.2,0-0.4,0-0.6-0.1c-0.2-0.1-0.4-0.2-0.5-0.4C235.8,183.2,235.7,183,235.6,182.8L235.6,182.8z M236,182.7c0,0.3,0.2,0.5,0.3,0.6c0.2,0.1,0.4,0.2,0.6,0.2c0.2,0,0.4-0.1,0.6-0.3c0.1-0.2,0.2-0.4,0.1-0.7c0-0.2-0.1-0.3-0.2-0.5c-0.1-0.1-0.2-0.2-0.3-0.3s-0.3-0.1-0.5-0.1s-0.4,0.1-0.6,0.3C236,182.1,235.9,182.4,236,182.7L236,182.7z M238.6,183.6l-0.4-2.4l1.1-0.2c0.2,0,0.4,0,0.5,0s0.2,0.1,0.3,0.2c0.1,0.1,0.1,0.2,0.2,0.3c0,0.2,0,0.3-0.1,0.5c-0.1,0.1-0.3,0.2-0.5,0.3c0.1,0,0.2,0.1,0.2,0.1c0.1,0.1,0.2,0.2,0.3,0.3l0.5,0.6l-0.4,0.1l-0.4-0.4c-0.1-0.1-0.2-0.2-0.3-0.3s-0.1-0.1-0.2-0.1c-0.1,0-0.1,0-0.2,0c-0.1,0-0.1,0-0.2,0l-0.4,0.1l0.2,1L238.6,183.6z M238.7,182.2l0.7-0.1c0.1,0,0.3-0.1,0.3-0.1c0.1-0.1,0.2-0.2,0.2-0.4c0-0.1-0.1-0.2-0.2-0.3c-0.1-0.1-0.2-0.1-0.4,0l-0.8,0.1L238.7,182.2z M242.6,181.9h0.3c0,0.3-0.1,0.5-0.2,0.7c-0.1,0.2-0.3,0.3-0.6,0.3c-0.3,0.1-0.5,0.1-0.7,0s-0.4-0.2-0.5-0.4s-0.2-0.4-0.3-0.6c-0.1-0.2-0.1-0.5,0-0.7s0.2-0.4,0.3-0.5c0.2-0.1,0.4-0.2,0.6-0.3c0.2-0.1,0.5,0,0.7,0c0.2,0.1,0.3,0.2,0.5,0.4l-0.3,0.1c-0.1-0.2-0.2-0.3-0.3-0.3c-0.1-0.1-0.3-0.1-0.4,0c-0.2,0-0.3,0.1-0.4,0.2c-0.1,0.1-0.2,0.2-0.2,0.4s0,0.3,0,0.5s0.1,0.4,0.2,0.5s0.2,0.2,0.4,0.3c0.1,0,0.3,0.1,0.4,0c0.2,0,0.3-0.1,0.4-0.2C242.6,182.3,242.6,182.1,242.6,181.9L242.6,181.9z M243.5,182.6l-0.7-2.3l1.7-0.5l0.1,0.3l-1.4,0.4l0.2,0.7l1.3-0.4l0.1,0.3l-1.3,0.4l0.2,0.8l1.5-0.4l0.1,0.3L243.5,182.6z" />
  </g>
</svg>
