<svg xmlns="http://www.w3.org/2000/svg" width="450px" height="300px" viewBox="0 0 450 300">
  <path fill="#FF6600" d="M0,0h450v300H0V0z" />
  <path fill="#FFFFFF" d="M224.983,49.983C169.755,49.992,124.991,94.772,125,150c0,0.011,0,0.022,0,0.034c0.009,55.228,44.788,99.992,100.017,99.983C280.245,250.008,325.009,205.228,325,150c0-0.011,0-0.022,0-0.034C324.991,94.738,280.212,49.974,224.983,49.983z M290.503,85.69c-0.241,0.388-0.688,1.203-0.992,1.812s-0.567,1.122-0.583,1.14c-0.016,0.018-0.209,0.057-0.429,0.086c-0.373,0.05-0.415,0.089-0.651,0.605c-0.139,0.303-0.409,1.103-0.6,1.777c-0.368,1.3-0.441,1.428-1.528,2.661c-1.475,1.675-2.163,2.283-3.704,3.276c-1.585,1.021-2.797,2.105-2.903,2.598c-0.289,1.344-0.348,1.468-0.933,1.943c-0.546,0.444-0.567,0.478-0.573,0.935c-0.005,0.416-0.058,0.535-0.434,0.964c-0.385,0.44-0.434,0.553-0.487,1.125c-0.067,0.721-0.39,1.394-0.699,1.456c-0.387,0.078-2.168,0.332-2.734,0.389c-0.314,0.032-0.734,0.139-0.932,0.239s-0.603,0.259-0.9,0.355s-0.874,0.342-1.284,0.546l-0.744,0.372l-0.41-0.41l-0.41-0.41l-0.514,0.263c-0.552,0.283-2.457,0.716-4.676,1.063c-0.724,0.113-1.74,0.294-2.256,0.401c-0.774,0.161-1.265,0.192-2.803,0.176c-1.625-0.017-2.04,0.012-3.237,0.229l-1.373,0.249l-1.143-0.167l-1.143-0.167l-0.966-0.813c-0.531-0.447-1.18-1.062-1.44-1.367c-0.841-0.983-1.038-1.171-1.513-1.436c-0.559-0.312-1.289-0.342-2.82-0.114c-1.117,0.166-3.752,0.138-4.44-0.046c-0.346-0.093-0.491-0.084-0.843,0.05c-0.276,0.106-0.501,0.134-0.642,0.082c-0.129-0.048-0.516-0.022-0.957,0.063c-0.701,0.136-0.8,0.131-1.86-0.084c-1.207-0.245-2.261-0.242-3.724,0.011c-0.551,0.095-1.08,0.094-2.55-0.004c-1.844-0.123-1.863-0.122-3.053,0.126c-0.659,0.138-1.652,0.4-2.207,0.584c-0.652,0.215-1.317,0.359-1.877,0.405l-0.867,0.072l-1.007-0.991c-0.584-0.574-1.087-0.991-1.198-0.991c-0.105,0-0.498-0.151-0.873-0.335c-0.839-0.413-1.296-0.505-1.753-0.354c-0.297,0.098-0.35,0.16-0.35,0.407c0,0.302-0.244,0.87-0.373,0.87c-0.041,0-0.602,0.063-1.248,0.14s-1.593,0.171-2.104,0.208c-0.826,0.061-1.126,0.143-2.68,0.736l-1.749,0.668l-0.999-0.125c-0.635-0.08-1.166-0.208-1.457-0.353l-0.458-0.227l-0.777,0.31c-0.427,0.17-0.819,0.31-0.87,0.31s-0.309-0.219-0.573-0.486c-0.289-0.294-0.599-0.509-0.781-0.545c-0.501-0.097-1.052-0.353-1.73-0.805c-0.845-0.563-1.351-0.586-2.889-0.132c-0.899,0.266-1.194,0.405-1.766,0.837c-0.566,0.427-0.781,0.53-1.224,0.585c-0.295,0.037-0.855,0.199-1.244,0.361c-0.64,0.267-0.723,0.333-0.879,0.71c-0.099,0.241-0.34,0.547-0.571,0.727c-0.22,0.171-0.7,0.588-1.068,0.927c-0.636,0.586-0.677,0.651-0.853,1.352c-0.205,0.818-0.542,2.923-0.634,3.958c-0.055,0.616-0.098,0.72-0.524,1.246c-0.806,0.996-1.315,1.935-1.442,2.66l-0.114,0.654l0.58,1.253l0.58,1.253l-0.243,0.472l-0.243,0.472l0.196,0.76c0.136,0.526,0.179,0.926,0.142,1.299c-0.047,0.464,0.013,0.752,0.43,2.06c0.423,1.328,0.568,1.645,1.137,2.502c0.359,0.54,0.878,1.226,1.154,1.526s0.665,0.818,0.865,1.153c0.353,0.59,0.376,0.608,0.774,0.608c0.322,0,0.555-0.096,1.087-0.446c0.888-0.585,0.921-0.594,1.11-0.305c0.12,0.184,0.156,0.439,0.14,1.013l-0.021,0.767l0.557-0.028c0.554-0.028,0.56-0.025,1.19,0.538c0.349,0.312,0.676,0.687,0.727,0.834c0.058,0.166,0.221,0.32,0.431,0.408c0.314,0.131,0.346,0.186,0.445,0.764c0.256,1.491,0.323,2.075,0.245,2.133c-0.046,0.034-0.186,0.178-0.311,0.32c-0.213,0.241-0.219,0.286-0.103,0.674c0.1,0.333,0.219,0.474,0.596,0.706c0.448,0.276,0.471,0.311,0.471,0.724c0,0.284,0.076,0.552,0.221,0.775c0.311,0.48,0.763,0.474,1.525-0.019c0.762-0.494,1.505-0.578,2.668-0.305c0.459,0.108,1.154,0.219,1.545,0.246c0.391,0.027,0.711,0.081,0.711,0.118s0.241,0.277,0.535,0.531c0.508,0.439,0.556,0.459,0.956,0.395c0.32-0.051,0.511-0.163,0.794-0.468c0.419-0.451,1.305-1.9,1.681-2.75c0.246-0.557,1.243-1.999,1.903-2.752c1.154-1.317,1.976-2.109,2.191-2.11c0.215,0,0.23-0.038,0.235-0.613l0.005-0.613l0.716-0.703c0.67-0.658,0.762-0.714,1.417-0.867c0.386-0.09,0.774-0.184,0.863-0.208c0.089-0.024,0.187-0.141,0.218-0.261c0.072-0.279,1.239-0.899,1.523-0.809c0.161,0.051,0.207,0.182,0.263,0.749c0.092,0.937,0.282,1.177,1.398,1.766l0.915,0.483l1.538,0.137l1.538,0.137l0.441-0.228c0.243-0.126,0.622-0.329,0.843-0.452l0.402-0.223l0.829,0.313c0.456,0.172,0.853,0.313,0.883,0.313s0.235-0.216,0.458-0.48c0.384-0.455,0.401-0.501,0.327-0.907c-0.07-0.385-0.037-0.51,0.336-1.262l0.413-0.835l1.213,0.073c1.117,0.067,1.249,0.056,1.674-0.137c0.434-0.196,0.493-0.201,0.981-0.068c0.427,0.117,0.666,0.122,1.353,0.028c0.982-0.134,3.977-0.024,5.315,0.194c0.84,0.137,0.871,0.135,2.298-0.171c0.795-0.171,1.462-0.358,1.481-0.417c0.069-0.211-0.707-0.419-1.785-0.48c-0.593-0.033-1.114-0.096-1.158-0.14s-0.066-0.337-0.049-0.651l0.03-0.572l0.441-0.114c0.243-0.063,0.64-0.205,0.883-0.316c0.506-0.231,2.265-0.372,2.574-0.207c0.244,0.131,0.611,0.001,1.662-0.589c0.79-0.443,0.884-0.473,1.275-0.4c0.233,0.043,1.019,0.054,1.747,0.024l1.324-0.055l1.44,0.614l1.44,0.614l0.753,1.287l0.753,1.287l-0.117,0.785c-0.104,0.7-0.872,2.916-1.548,4.466l-0.194,0.444l-0.701,0.12c-0.386,0.066-0.743,0.12-0.794,0.12s-0.591-0.426-1.2-0.946s-1.229-1.036-1.377-1.146c-0.222-0.165-0.27-0.276-0.27-0.625c0-0.586-0.406-1.206-0.79-1.206c-0.411,0-0.56,0.085-0.786,0.451c-0.203,0.329-0.216,0.334-0.909,0.335c-0.569,0.001-0.976,0.09-2.138,0.466l-1.435,0.465l-0.412,0.521c-0.227,0.287-0.738,1.021-1.135,1.631c-0.398,0.61-0.891,1.243-1.096,1.405c-0.28,0.222-0.47,0.521-0.765,1.2c-0.38,0.876-0.409,0.912-0.932,1.178c-0.399,0.203-0.71,0.482-1.194,1.072c-0.386,0.47-1.054,1.107-1.629,1.554c-0.536,0.417-1.799,1.484-2.806,2.371l-1.832,1.614l-1.384,0.519c-1.377,0.517-1.39,0.519-2.512,0.519h-1.128l-0.461,0.417c-0.578,0.522-2.338,1.496-3.426,1.895l-0.826,0.303l-0.401,1.026c-0.368,0.944-0.454,1.076-1.064,1.652l-0.663,0.626l-1.053,0.061c-1.042,0.061-1.061,0.058-1.729-0.258c-0.767-0.362-0.977-0.329-1.077,0.172c-0.181,0.907,0.053,1.959,0.777,3.494c0.401,0.85,0.571,1.112,0.747,1.156c0.126,0.031,0.626,0.132,1.111,0.225c1.187,0.227,2.165,0.814,2.553,1.532c0.941,1.742,1.352,2.388,2.363,3.706c0.907,1.185,1.28,1.776,1.867,2.96c0.437,0.882,0.786,1.731,0.864,2.101c0.072,0.342,0.152,0.643,0.179,0.67c0.027,0.027,0.565,0.245,1.194,0.484c0.846,0.321,1.364,0.593,1.983,1.044c0.461,0.335,0.874,0.7,0.918,0.811c0.255,0.648,0.389,1.299,0.389,1.889v0.67l0.696,0.783c1.67,1.881,2.392,3.019,2.082,3.28c-0.044,0.037-0.389,0.194-0.767,0.348s-0.978,0.478-1.335,0.721l-0.648,0.441l0.046,0.45c0.037,0.365,0.113,0.507,0.401,0.757l0.355,0.307l-0.243,0.527c-0.134,0.29-0.475,0.78-0.758,1.09l-0.515,0.563v0.665c0,0.504-0.071,0.851-0.294,1.43c-0.162,0.42-0.294,0.782-0.294,0.803s0.355,0.151,0.79,0.288c0.549,0.173,1.011,0.25,1.514,0.25c0.648,0,0.82,0.045,1.647,0.428c0.91,0.422,0.928,0.438,1.288,1.08c0.3,0.536,0.449,0.694,0.84,0.893c0.345,0.175,0.593,0.41,0.905,0.857c0.535,0.768,0.748,0.849,2.246,0.856c0.625,0.003,1.16,0.029,1.189,0.058c0.117,0.117-0.209,0.77-0.497,0.996c-0.39,0.305-0.394,0.598-0.014,0.962c0.284,0.272,0.294,0.314,0.294,1.15c0,0.742,0.037,0.941,0.257,1.375l0.257,0.508l0.238-0.277l0.238-0.277l0.448,0.171c0.43,0.164,0.472,0.164,1.025-0.013c0.317-0.101,0.577-0.213,0.577-0.249s-0.199-0.19-0.441-0.343c-0.457-0.289-0.512-0.405-0.34-0.727c0.126-0.236,0.847-0.262,1.264-0.047c0.372,0.192,0.814,0.907,1.185,1.916c0.273,0.742,0.295,0.876,0.198,1.226c-0.22,0.799-0.28,1.466-0.174,1.932c0.094,0.413,0.076,0.535-0.179,1.202c-0.191,0.5-0.335,0.742-0.442,0.742c-0.087,0-0.236,0.086-0.332,0.192c-0.277,0.306-0.694,0.152-1.574-0.58c-1.848-1.538-1.987-1.601-1.444-0.652c0.298,0.522,0.443,0.669,0.857,0.872c0.408,0.2,0.519,0.311,0.611,0.611c0.105,0.343,0.093,0.391-0.193,0.746c-0.325,0.404-0.504,0.459-0.815,0.249c-0.394-0.266-0.537-0.27-0.654-0.014c-0.166,0.365-0.327,0.296-0.556-0.238c-0.244-0.566-0.912-1.194-1.467-1.377c-0.38-0.125-0.397-0.121-0.914,0.264c-0.508,0.378-0.56,0.394-1.458,0.445c-0.513,0.029-1.395,0.167-1.962,0.306c-0.567,0.139-1.736,0.402-2.6,0.584c-0.901,0.19-1.843,0.456-2.211,0.623l-0.642,0.291l-0.56,1.225c-0.547,1.198-0.56,1.244-0.56,2.099V207l0.613,0.565l0.613,0.565l-0.301,0.27c-0.166,0.148-0.43,0.384-0.589,0.524c-0.158,0.14-0.376,0.376-0.484,0.525l-0.196,0.271l-0.981-0.117c-0.54-0.064-1.447-0.225-2.016-0.357c-1.32-0.307-2.301-0.416-3.247-0.361l-0.75,0.043l-0.122-0.375c-0.142-0.437-0.239-0.518-0.616-0.52c-0.414-0.002-2.188-1.082-2.776-1.689l-0.503-0.52l-0.113-1.177l-0.113-1.177l0.299-1.005c0.206-0.693,0.318-1.323,0.361-2.029c0.04-0.659,0.172-1.436,0.37-2.183c0.292-1.101,0.32-1.159,0.553-1.144c0.226,0.014,0.279-0.073,0.666-1.092l0.421-1.108l-0.209-0.486c-0.184-0.428-0.299-0.539-0.964-0.931c-0.603-0.356-0.934-0.478-1.649-0.607c-0.492-0.089-1.329-0.307-1.861-0.486l-0.968-0.324l-0.107-0.532c-0.121-0.599-0.237-0.851-0.506-1.094c-0.154-0.139-0.248-0.151-0.55-0.067c-0.475,0.131-0.577,0.054-0.544-0.409c0.027-0.373,0.008-0.397-0.916-1.143c-0.519-0.419-1.223-1.01-1.566-1.314c-0.342-0.304-1.118-0.928-1.724-1.387c-1.431-1.085-2.389-2.264-2.855-3.514l-0.314-0.843l0.251-0.667c0.242-0.644,0.449-0.942,2.425-3.494c0.913-1.18,1.065-1.61,1.05-2.972c-0.007-0.613,0.05-1.412,0.131-1.826c0.183-0.936,0.101-1.571-0.292-2.262c-0.312-0.549-0.36-0.571-0.928-0.431c-0.231,0.057-0.267,0.03-0.327-0.242c-0.072-0.326-0.11-0.275,1.39-1.825c0.487-0.503,0.455-0.555-0.471-0.77c-0.355-0.082-0.892-0.285-1.191-0.449c-0.419-0.23-0.669-0.299-1.077-0.299c-0.341,0-0.748-0.088-1.135-0.245c-0.509-0.207-0.762-0.245-1.618-0.245h-1.014l-0.522,0.389c-0.464,0.346-0.888,0.522-1.795,0.743c-0.19,0.047-0.428,0.289-0.802,0.815c-0.883,1.247-1.334,1.621-2.498,2.074c-0.599,0.233-1.343,0.621-1.813,0.945c-0.438,0.302-1.017,0.652-1.287,0.777c-0.27,0.126-0.64,0.36-0.823,0.522c-0.301,0.265-0.327,0.331-0.279,0.691c0.037,0.272,0.18,0.55,0.455,0.878c0.318,0.379,0.402,0.559,0.402,0.859c0.001,0.71,0.162,1.042,0.663,1.368c0.256,0.166,0.664,0.384,0.906,0.484c0.571,0.234,1.153,0.775,1.385,1.287c0.182,0.401,0.181,0.411-0.025,0.877c-0.188,0.425-0.202,0.577-0.141,1.537c0.044,0.703,0.026,1.313-0.055,1.795c-0.12,0.717-0.118,0.739,0.155,1.309l0.277,0.58l-0.156,0.689c-0.172,0.761-0.148,0.918,0.281,1.875l0.268,0.598l-0.408,0.563c-0.628,0.866-1.869,2.967-1.988,3.365c-0.09,0.301-0.075,0.429,0.101,0.825c0.17,0.385,0.207,0.662,0.207,1.554c0,1.038,0.011,1.097,0.258,1.355c0.29,0.303,0.32,0.699,0.183,2.425c-0.067,0.841-0.055,0.949,0.144,1.304c0.213,0.378,0.213,0.392,0.037,0.64c-0.406,0.571-0.522,0.776-0.52,0.916c0.001,0.081,0.2,0.409,0.441,0.728c0.488,0.646,0.493,0.661,0.307,0.967c-0.098,0.161-0.117,0.451-0.074,1.126l0.059,0.909l0.564,0.63c0.31,0.346,0.564,0.67,0.564,0.719s-0.093,0.174-0.207,0.277c-0.244,0.22-0.27,0.279-0.869,1.985l-0.459,1.308l-0.581,0.236c-0.32,0.13-0.628,0.299-0.684,0.376s-0.181,1.148-0.276,2.38c-0.212,2.743-0.232,3.503-0.101,3.676c0.056,0.073,0.274,0.553,0.485,1.065c0.332,0.807,0.484,1.037,1.135,1.717l0.751,0.785l0.447,1.373c0.367,1.128,0.459,1.559,0.514,2.414c0.04,0.623,0.029,1.064-0.026,1.098c-0.051,0.031-0.358-0.014-0.683-0.101l-0.591-0.158l-0.433-0.767c-0.5-0.886-0.768-1.053-1.318-0.824c-0.181,0.076-0.653,0.186-1.049,0.247c-0.396,0.06-1.359,0.343-2.14,0.63l-1.419,0.52l-1.373-0.274c-0.755-0.151-1.423-0.276-1.484-0.279c-0.061-0.003-0.48,0.431-0.932,0.963c-0.783,0.923-0.86,0.985-1.655,1.326c-0.94,0.404-0.929,0.403-2.035,0.136c-0.721-0.174-0.809-0.22-0.809-0.42c0-0.187-0.112-0.268-0.657-0.479l-0.657-0.254l-0.225,0.211c-0.222,0.209-0.228,0.209-0.434,0.024c-0.115-0.103-0.382-0.442-0.593-0.752c-0.336-0.494-0.427-0.566-0.724-0.579c-0.187-0.008-0.392-0.019-0.456-0.025c-0.064-0.005-0.154,0.137-0.201,0.316c-0.046,0.179-0.117,0.311-0.157,0.294s-0.263-0.239-0.495-0.494l-0.423-0.463l0.175-0.457c0.154-0.403,0.157-0.47,0.028-0.567c-0.608-0.456-0.781-0.675-1.097-1.385l-0.35-0.785l0.387-2.136c0.383-2.117,0.393-2.148,0.991-3.335c0.332-0.659,0.831-1.754,1.109-2.433l0.505-1.235l-0.082-0.776c-0.045-0.427-0.083-1.306-0.085-1.953l-0.003-1.177l0.93-1.864l0.93-1.864l0.197-1.422c0.258-1.862,0.346-4.174,0.212-5.591c-0.103-1.095-0.394-2.734-0.609-3.433c-0.193-0.627-1.371-3.368-1.907-4.437c-0.56-1.117-0.609-1.294-0.391-1.419c0.086-0.05,0.152-0.313,0.179-0.717c0.033-0.491,0.108-0.737,0.323-1.061l0.28-0.422l-0.31-0.628c-0.17-0.345-0.47-0.806-0.667-1.023c-0.316-0.35-0.408-0.395-0.797-0.395c-0.341,0-0.524-0.066-0.812-0.294c-0.328-0.26-0.447-0.294-1.021-0.294c-0.599,0-0.742,0.047-1.835,0.594c-1.141,0.572-1.231,0.6-2.399,0.736c-0.975,0.114-1.448,0.229-2.406,0.586c-0.656,0.244-1.203,0.431-1.216,0.416s-0.402-0.72-0.865-1.567l-0.842-1.539l-0.018-1.158c-0.01-0.637-0.079-1.6-0.153-2.139l-0.135-0.981L162,175.977c-0.497-0.485-0.529-0.543-0.476-0.883c0.031-0.2,0.063-0.374,0.072-0.386c0.009-0.012,0.256-0.083,0.55-0.158l0.534-0.136l0.117-0.725c0.065-0.399,0.212-1.151,0.327-1.671c0.199-0.895,0.201-0.962,0.046-1.262c-0.15-0.29-0.194-0.312-0.523-0.261c-0.198,0.031-0.584,0.084-0.859,0.12l-0.499,0.064l-0.114-0.566c-0.063-0.312-0.114-0.996-0.114-1.521v-0.955l0.433-0.574c0.238-0.316,0.585-0.749,0.772-0.964l0.339-0.39l0.532,0.353l0.532,0.353l0.631-0.194c0.418-0.128,0.819-0.347,1.189-0.649c0.528-0.431,0.562-0.485,0.621-0.995c0.116-0.997,0.068-0.938,1.231-1.521l1.077-0.54v-0.441c0-0.242-0.069-0.84-0.153-1.329c-0.137-0.794-0.138-0.937-0.006-1.349c0.081-0.253,0.245-0.836,0.364-1.294c0.119-0.459,0.385-1.187,0.59-1.619c0.242-0.508,0.455-1.183,0.605-1.913l0.231-1.128l0.631-0.37c0.347-0.204,0.891-0.451,1.21-0.549l0.579-0.179l0.285-0.962l0.285-0.962l-0.388-0.401c-0.307-0.318-0.466-0.628-0.762-1.488l-0.374-1.087l0.376-0.907l0.376-0.907l-0.356-0.801c-0.341-0.768-0.356-0.848-0.355-1.907c0.001-0.997,0.026-1.153,0.254-1.59l0.253-0.484l-0.201-0.797l-0.201-0.797l0.875-1.159c0.481-0.637,1.073-1.321,1.314-1.518c0.764-0.626,1.254-1.516,2.673-4.861c0.092-0.217,0.368-0.506,0.749-0.785c0.487-0.357,0.718-0.628,1.197-1.413c0.468-0.766,0.734-1.084,1.259-1.503c0.567-0.452,0.708-0.522,0.95-0.469c0.156,0.034,0.325,0.115,0.375,0.179s0.294,0.723,0.542,1.464s0.607,1.591,0.797,1.888c0.315,0.493,0.378,0.541,0.702,0.541c0.322,0,0.35-0.021,0.295-0.221c-0.033-0.121-0.175-0.795-0.316-1.496c-0.14-0.701-0.422-1.717-0.627-2.256c-0.357-0.943-0.517-1.425-1.043-3.139c-0.238-0.775-0.239-0.805-0.131-2.501l0.109-1.717l0.445-0.872c0.429-0.839,0.441-0.887,0.326-1.269c-0.065-0.219-0.244-0.514-0.396-0.656c-0.271-0.253-0.3-0.258-1.339-0.216l-1.062,0.043l-0.613-1.078c-0.337-0.593-0.613-1.107-0.613-1.142c0-0.035,0.127-0.188,0.282-0.34c0.209-0.205,0.416-0.292,0.801-0.337c0.508-0.06,0.533-0.051,1.193,0.438c0.371,0.275,0.813,0.704,0.983,0.954c0.388,0.57,0.43,0.598,0.92,0.6c0.371,0.001,0.414-0.026,0.561-0.366c0.281-0.65,0.459-1.554,0.459-2.329v-0.756l-0.601-0.653c-0.666-0.723-1.409-1.67-1.35-1.72c0.021-0.018,0.248-0.153,0.505-0.302c0.401-0.231,0.553-0.265,1.079-0.235c0.735,0.041,0.735,0.046,0.164-1.178l-0.383-0.82l0.414-0.59c0.23-0.328,0.48-0.839,0.563-1.15c0.124-0.469,0.233-0.634,0.665-1.016l0.516-0.456l0.575,0.06c0.488,0.051,0.658,0.022,1.121-0.19l0.546-0.25l0.008-1.308c0.006-0.925,0.058-1.486,0.179-1.918c0.167-0.595,0.189-0.621,0.882-1.065c0.448-0.287,0.969-0.521,1.411-0.635c0.602-0.155,0.772-0.251,1.213-0.687c0.479-0.473,0.51-0.532,0.462-0.886c-0.048-0.359,0.305-2.209,0.452-2.367c0.09-0.097,1.5-0.387,1.634-0.335c0.079,0.03,0.082,0.206,0.013,0.622c-0.06,0.364-0.063,0.85-0.007,1.302l0.089,0.722l0.785,0.47c0.716,0.429,0.836,0.47,1.373,0.461c0.446-0.008,0.73,0.054,1.171,0.255l0.583,0.265l0.174-0.228c0.096-0.125,0.336-0.603,0.533-1.062c0.354-0.823,0.499-1.015,2.065-2.729c0.262-0.287,0.697-0.64,0.967-0.785c0.71-0.382,1.048-1.02,0.969-1.833c-0.039-0.402-0.004-0.791,0.109-1.226c0.132-0.508,0.152-0.849,0.098-1.678l-0.068-1.041l0.324-0.23c0.305-0.217,0.425-0.233,2.094-0.268c1.644-0.035,1.851-0.019,2.891,0.222c1.01,0.235,1.19,0.311,1.827,0.776c0.611,0.446,0.823,0.541,1.562,0.696c0.963,0.202,0.774,0.229,3.218-0.464c0.851-0.241,1.568-0.406,1.593-0.365s-0.066,0.377-0.203,0.747c-0.157,0.426-0.27,0.983-0.307,1.515l-0.058,0.842l0.921,0.401c0.614,0.267,1.356,0.488,2.228,0.662c1.195,0.238,1.423,0.255,2.648,0.19c0.737-0.039,1.843-0.169,2.457-0.288c1.248-0.243,1.096-0.287,1.662,0.48c0.187,0.253,0.437,0.44,0.744,0.557c0.449,0.17,0.48,0.17,1.05-0.017c0.532-0.174,0.706-0.184,1.833-0.099c0.685,0.051,1.612,0.187,2.058,0.301c1.765,0.451,2.727,0.613,3.566,0.601c0.643-0.009,0.969,0.036,1.354,0.187c0.279,0.11,1.138,0.393,1.91,0.629c0.996,0.305,1.714,0.6,2.472,1.017c1.389,0.764,2.83,1.333,3.169,1.251c0.95-0.229,0.989-0.249,0.989-0.5c0-0.324,0.291-1.739,0.375-1.824c0.036-0.037,0.287-0.025,0.556,0.027c1.24,0.236,3.246,0.356,4.251,0.254c0.907-0.092,1.088-0.081,1.859,0.109c0.47,0.116,1.252,0.258,1.737,0.315c1.406,0.166,4.779,0.684,5.101,0.783c1.752,0.537,2.571,0.677,4.12,0.702c1.907,0.031,2.115-0.011,2.428-0.485c0.219-0.331,0.344-0.396,1.449-0.755c1.485-0.482,2.806-1.3,4.358-2.698c0.837-0.754,1.063-1.016,1.182-1.373c0.124-0.37,0.245-0.504,0.752-0.83c0.665-0.429,1.193-0.535,2.706-0.544l0.81-0.005l0.288-0.571l0.288-0.571l-0.387-0.378c-0.213-0.208-0.387-0.432-0.387-0.498c0-0.096,1.272-1.9,1.571-2.228c0.041-0.045,0.39-0.018,0.776,0.061l0.7,0.144l0.291-0.353c0.16-0.194,0.291-0.386,0.291-0.427s0.254-0.143,0.564-0.229c1.034-0.287,1.091-0.324,1.24-0.817c0.28-0.929,1.162-2.56,1.734-3.208c0.31-0.351,0.711-0.855,0.891-1.122c0.181-0.266,0.366-0.486,0.412-0.487c0.332-0.01,1.214,0.371,1.694,0.732c0.57,0.429,0.578,0.432,0.731,0.233c0.154-0.2,0.158-0.2,0.963-0.02c0.795,0.178,0.815,0.19,1.214,0.719c0.228,0.301,0.461,0.754,0.532,1.03c0.135,0.528,0.211,0.609,1.052,1.118c0.301,0.182,0.547,0.382,0.547,0.444S290.745,85.302,290.503,85.69z" />
</svg>
