<svg xmlns="http://www.w3.org/2000/svg" width="450px" height="300px" viewBox="0 0 450 300">
  <path fill="#CF142B" d="M0,0h450v300H0V0z" />
  <path fill="#F9DD16" stroke="#000000" d="M145.01,107.867c0.224,0.241,2.958,1.987,3.009,1.897c0.051-0.09,7.352-1.498,7.301-1.408c-0.051,0.09-4.216,4.648-4.033,4.749s4.035,4.947,4.127,4.998c0.091,0.05-7.567-0.867-7.567-0.867l-5.212,3.861l-0.967-5.263c0,0-6.318-2.424-6.41-2.474c-0.091-0.05,5.53-1.677,5.53-1.677l1.8-4.209C142.587,107.474,144.725,107.946,145.01,107.867L145.01,107.867z M284.98,82.637c-0.324,0.07-3.227,1.523-3.173,1.612s-2.351,7.009-2.404,6.921c-0.054-0.089-1.989-5.917-2.17-5.812c-0.18,0.105-6.372,0.958-6.463,1.011c-0.09,0.052,4.541-6.008,4.541-6.008l-0.8-6.371l5.119,1.812c0,0,5.289-4.165,5.379-4.218c0.09-0.052-1.283,5.547-1.283,5.547l2.809,3.64C286.535,80.77,285.053,82.354,284.98,82.637L284.98,82.637z M237.333,214.441c0.1-0.311,0.269-3.51,0.164-3.509c-0.105,0.001-5.001-5.512-4.896-5.513c0.105-0.001,6.206,1.27,6.203,1.063c-0.003-0.206,2.337-5.905,2.336-6.009c-0.001-0.102,3.026,6.875,3.026,6.875l6.012,2.51l-4.152,3.451c0,0,1.029,6.589,1.03,6.692c0.001,0.102-4.246-3.871-4.246-3.871l-4.609,0.569C238.2,216.699,237.545,214.644,237.333,214.441L237.333,214.441z" />
  <path fill="#FFFFFF" stroke="#000000" stroke-width="1.3" d="M238.196,121.145c0.159-4.405-8.013-24.621-9.366-27.733c-2.594-3.413-5.282-8.772-6.362-13.359c-0.646-4.617-3.026-8.299-6.507-9.634c-3.994-2.253-7.99-1.55-11.82-1.348c-1.885,0.33-3.52,1.273-4.473,2.709c-2.157,2.833-3.271,2.576-4.739,3.78c-11.803,1.418-23.104,7.015-31.686,10.801c-4.574,2.908-8.43,4.558-10.202,4.874c-4.771-0.138-8.168-2.473-9.787-3.708c-5.245-5.005-10.489-10.01-15.734-15.015c-4.571-3.588-5.891,1.334-5.016,2.121c1.456,3.354-1.995,5.255,10.468,17.573c1.516,3.33,3.031,6.66,4.547,9.99c0,0-0.358,2.68-0.135,2.803c2.167,5.571,5.939,4.323,7.749,2.839c1.31-1.099,2.62-2.197,3.93-3.296c0,0,7.644-2.109,7.769-2.327c8.076,1.451,29.113-1.786,32.614-3.283c3.163-1.61,3.314-0.154,6.076-2.223c2.298-1.391,1.022-0.266,5.302-3.866c1.315-1.04,2.27,0.745,2.469,1.978c-0.147,11.611,1.056,19.072,1.755,30.677l17.392,9.482L238.196,121.145z M226.764,155.325c3.801,2.341,25.689,5.508,29.106,5.914c4.302-0.499,10.364-0.104,14.945,1.274c4.39,1.762,8.821,1.579,11.735-0.716c3.978-2.273,5.354-6.026,7.088-9.389c0.65-1.771,0.636-3.635-0.153-5.165c-1.419-3.256-0.636-4.075-0.964-5.928c4.643-10.759,5.354-23.183,6.303-32.387c-0.279-5.351,0.193-9.46,0.799-11.127c2.503-3.993,6.256-5.716,8.152-6.475c7.027-1.959,14.054-3.917,21.081-5.876c5.442-2.095,1.765-5.684,0.636-5.333c-3.681-0.44-3.633-4.33-20.706,0.112c-3.69-0.377-7.38-0.755-11.07-1.132c0,0-2.182-1.647-2.401-1.519c-5.99-0.945-6.773,2.892-6.369,5.176c0.314,1.665,0.627,3.331,0.941,4.997c0,0-1.958,7.564-1.828,7.78c-5.31,6.149-12.96,25.681-13.389,29.411c-0.161,3.499-1.518,2.899-1.075,6.286c0.078,2.653-0.276,1.004,0.759,6.45c0.26,1.641-1.789,1.56-2.975,1.112c-10.155-5.94-17.328-8.652-27.9-13.869l-17.035,10.059L226.764,155.325z M202.362,128.474c-3.96,2.063-17.676,19.113-19.74,21.818c-1.708,3.912-5.082,8.876-8.582,12.086c-3.744,2.855-5.795,6.719-5.228,10.349c0.016,4.525,2.636,7.576,4.732,10.736c1.235,1.44,2.884,2.362,4.626,2.456c3.576,0.422,3.907,1.499,5.703,2.148c7.16,9.341,17.75,16.168,25.384,21.585c4.853,2.442,8.237,4.902,9.403,6.252c2.268,4.131,1.912,8.188,1.634,10.183c-1.782,6.964-3.565,13.927-5.347,20.891c-0.871,5.682,4.126,4.349,4.381,3.212c2.225-2.913,5.628-0.925,10.238-17.685c2.174-2.953,4.349-5.905,6.523-8.858c0,0,2.54-1.033,2.537-1.284c3.823-4.626,0.834-7.215-1.38-8.014c-1.624-0.567-3.248-1.134-4.871-1.701c0,0-5.686-5.455-5.941-5.452c-2.766-7.6-16.153-23.895-19.225-26.128c-3.002-1.889-1.796-2.744-5.001-4.064c-2.376-1.262-0.746-0.738-6.061-2.584c-1.575-0.6-0.481-2.305,0.506-3.089c10.302-5.671,16.272-10.42,26.145-16.808l-0.357-19.541L202.362,128.474z" />
  <path fill="none" stroke="#000000" d="M184.334,78.245c3.646,4.259,4.599,11.021,3.791,14.763 M168.904,102.274c0.024-0.043,0.048-0.085,0.072-0.127c-0.227,0.398-0.054,0.172-0.429-0.739c-0.414-0.479-0.642-2.751,0.059-3.98c0.274-0.629,0.729-1.576,1.068-2.169c0.097-0.169,0.359-0.331,0.456-0.501 M142.486,87.053l-0.239,0.504c0,0-0.193,0.339-0.29,0.508c-0.376,0.659-0.873,1.255-1.218,1.836c-0.363,0.636-0.909,1.17-1.272,1.806c-0.459,0.591-0.87,1.381-1.345,1.991c-0.45,0.73-0.941,1.245-1.383,2.02c-0.381,0.611-0.679,0.89-1.073,1.582l1.073-1.582c-0.381,0.611-0.679,0.89-1.073,1.582 M129.05,74.258c0,0,0.24,1.109,0.276,1.651c-0.103,0.558-0.261,2.572-0.489,3.242c-0.18,0.748-0.336,1.506-0.441,2.264c-0.227,0.817-0.315,1.357-0.571,2.193c-0.056,0.735-0.195,1.415-0.368,2.137 M144.698,98.715c-0.858-0.946-1.39-0.628-1.959-0.688c-0.635,0.09-1.801,0.572-3.004,1.686c-0.44,0.443-0.809,0.766-1.388,1.24c-0.266,0.379-0.479,0.519-0.766,0.747 M212.272,69.247l0.257,1.601c0,0,0.25,1.134,0.512,1.787 M198.459,73.07c-0.048,0.085-0.47,9.467-0.114,10.69c0.093,0.778,0.284,1.435,0.364,2.364c-0.017,0.558,0.1,1.029,0.123,1.573c0.304,0.609,0.352,1.213,0.667,1.706c0.14,0.668,0.679,0.712,0.949,1.339c0.39,0.442,1.03,1.218,1.417,1.57 M190.986,98.551c-0.29-0.108-1.025-0.72-1.659-1.055c-0.713-0.427-2.436-2.587-2.473-4.069 M198.565,85.462c-0.024,0.043-1.028,0.952-2.672,2.491c-2.097,1.787-7.741,4.795-8.416,5.03c-0.647,0.263-1.466,0.921-2.1,0.997c-0.734,0.26-1.458,0.348-2.149,0.486c-0.842,0.146-1.555,0.273-2.205,0.287c-1.974,0.77-12.226,0.112-12.752-0.018c-0.549-0.022-1.294-0.086-1.786-0.15c-0.492,0.1-1.068,0.033-1.729,0.048c-0.795-0.089-1.258,0.047-1.932,0.105c-0.538,0.257-1.427,0.512-2.035,0.883c-0.826,0.298-1.336,0.723-1.906,0.954c-0.601,0.457-8.736,4.778-9.129,4.969c-0.85,0.336-3.888,1.117-4.573-0.987c-0.167-0.824-0.523-1.68-0.526-2.307c-0.217-0.757-0.054-1.553,0.009-2.251c0.815-3.52,2.017-4.878,2.356-5.472c0.121-0.212,0.242-0.424,0.363-0.636 M222.02,79.264c-0.024,0.042-0.048,0.085-0.072,0.127c0.196-0.343,0.104-0.163-0.42,0.437c-0.528,0.391-1.182,1.017-1.663,1.423c-0.485,0.444-0.959,1.078-1.388,1.24c-0.442,0.533-0.984,0.688-1.574,0.97c-0.794,0.263-1.343,0.495-2.035,0.883c-0.882,0.424-1.435,0.839-2.253,1.264c-0.515,0.605-1.031,0.975-1.476,1.693c-0.439,0.665-0.873,1.233-1.29,1.963c-0.339,0.594-0.677,1.187-1.016,1.78l1.016-1.78c-0.339,0.594-0.677,1.187-1.016,1.78 M213.727,128.691c0.048-0.085,0.097-0.17,0.145-0.255c-0.268,0.47-0.176,0.348,0.088-0.452c0.034-0.969,0.306-2.134,0.344-2.988c0.178-0.9,0.36-1.873,0.399-2.789c-0.021-1.074,0.012-2.034-0.117-3.074c0.019-0.952-0.063-1.943-0.061-2.876c0.013-0.924-0.032-1.718-0.206-2.621c0.003-0.672-0.009-1.595-0.148-2.423c0.11-0.645-0.058-1.248-0.181-1.771c-0.223-1.008-0.302-1.594-0.537-2.638c-0.143-0.56-0.279-1.274-0.495-2.113c-0.062-0.79-0.458-1.826-0.61-2.51c-0.222-0.507-0.44-1.19-0.512-1.787c-0.231-0.556-0.565-1.236-0.641-1.859c-0.247-0.481-0.503-1.225-0.77-1.931c-0.232-0.579-0.393-1.29-0.641-1.858c-0.246-0.716-0.554-1.331-0.698-2.058c-0.249-0.253-0.298-0.523-0.43-0.738 M291.444,130.951c-5.572,0.971-12.004-1.604-14.898-4.166 M277.979,105.781c0.025,0.042,0.051,0.084,0.076,0.125c-0.237-0.393-0.125-0.132,0.865,0.005c0.629-0.113,2.744,0.831,3.477,2.043c0.417,0.548,1.024,1.41,1.378,1.996c0.101,0.167,0.113,0.471,0.214,0.639 M304.466,90.834c0,0-0.418-0.713-0.519-0.88c-0.393-0.651-0.67-1.372-1.01-1.956c-0.379-0.627-0.577-1.36-0.956-1.987c-0.291-0.686-0.782-1.432-1.083-2.142c-0.419-0.749-0.627-1.424-1.089-2.189c-0.349-0.63-0.445-1.023-0.857-1.706l0.857,1.706c-0.349-0.63-0.445-1.023-0.857-1.706 M322.848,86.014c0,0-1.392-0.486-1.886-0.727c-0.44-0.367-2.136-1.51-2.612-2.04c-0.569-0.528-1.159-1.04-1.774-1.509c-0.606-0.602-1.038-0.947-1.647-1.584c-0.62-0.416-1.149-0.875-1.699-1.384 M293.197,86.954c1.262-0.256,1.247-0.869,1.584-1.323c0.238-0.586,0.395-1.82,0.014-3.402c-0.17-0.596-0.271-1.072-0.399-1.803c-0.201-0.416-0.218-0.668-0.276-1.027 M285.348,159.192l-1.464-0.531c0,0-1.124-0.355-1.829-0.459 M288.952,145.568c-0.051-0.084-8.105-5.141-9.36-5.451c-0.732-0.311-1.406-0.477-2.264-0.874c-0.483-0.294-0.957-0.43-1.447-0.683c-0.688-0.047-1.245-0.308-1.836-0.286c-0.658-0.215-0.966,0.222-1.653,0.137c-0.584,0.111-1.587,0.267-2.09,0.42 M270.235,126.445c0.24-0.193,1.146-0.513,1.758-0.884c0.732-0.394,3.495-0.778,4.819-0.068 M277.982,139.453c-0.025-0.042-0.326-1.352-0.861-3.522c-0.527-2.68-0.36-8.992-0.23-9.684c0.091-0.683-0.079-1.71,0.17-2.287c0.137-0.755,0.422-1.416,0.645-2.073c0.291-0.79,0.536-1.461,0.848-2.021c0.307-2.066,6.005-10.465,6.382-10.848c0.293-0.456,0.722-1.059,1.024-1.446c0.158-0.468,0.504-0.926,0.821-1.497c0.476-0.632,0.587-1.094,0.872-1.697c0.042-0.586,0.261-1.471,0.238-2.175c0.15-0.852,0.03-1.499,0.111-2.101c-0.102-0.741,0.152-9.83,0.18-10.261c0.128-0.892,0.957-3.869,3.153-3.399c0.81,0.271,1.741,0.396,2.295,0.708c0.775,0.194,1.395,0.732,1.979,1.135c2.694,2.456,3.29,4.16,3.644,4.746c0.126,0.209,0.253,0.418,0.379,0.627 M271.733,162.526c-0.025-0.042-0.051-0.084-0.076-0.125c0.205,0.339,0.092,0.17-0.176-0.576c-0.081-0.645-0.306-1.516-0.423-2.128c-0.149-0.636-0.471-1.356-0.399-1.803c-0.248-0.643-0.115-1.182-0.069-1.826c0.165-0.808,0.234-1.391,0.238-2.175c0.066-0.963-0.023-1.642,0.011-2.552c-0.276-0.742-0.344-1.366-0.754-2.104c-0.367-0.706-0.65-1.361-1.085-2.082c-0.354-0.586-0.707-1.171-1.061-1.757l1.061,1.757c-0.354-0.586-0.707-1.171-1.061-1.757 M232.332,130.713c0.051,0.084,0.101,0.168,0.152,0.251c-0.28-0.464-0.219-0.324,0.355,0.302c0.837,0.514,1.727,1.329,2.46,1.789c0.704,0.602,1.47,1.244,2.257,1.737c0.956,0.52,1.786,1.029,2.766,1.44c0.83,0.493,1.743,0.92,2.564,1.388c0.808,0.474,1.529,0.833,2.412,1.137c0.591,0.339,1.409,0.791,2.209,1.087c0.513,0.417,1.128,0.576,1.651,0.733c0.999,0.315,1.555,0.541,2.592,0.864c0.565,0.158,1.262,0.4,2.108,0.636c0.727,0.343,1.837,0.525,2.515,0.738c0.557,0.065,1.268,0.222,1.83,0.459c0.605,0.081,1.371,0.138,1.958,0.385c0.547,0.031,1.33,0.186,2.085,0.311c0.626,0.093,1.332,0.312,1.957,0.385c0.754,0.15,1.449,0.195,2.161,0.436c0.347-0.085,0.61,0.008,0.865,0.004 M191.545,195.748c1.926-5.23,7.405-9.417,11.106-10.598 M220.44,196.889c-0.05,0.001-0.099,0.001-0.148,0.002c0.464-0.005,0.179-0.04-0.436,0.734c-0.215,0.592-2.102,1.92-3.536,1.937c-0.691,0.081-1.753,0.166-2.446,0.174c-0.197,0.002-0.471-0.14-0.67-0.138 M220.347,226.93l0.478,0.002c0,0,0.395-0.005,0.593-0.007c0.769-0.009,1.543,0.117,2.227,0.12c0.742-0.009,1.486,0.19,2.228,0.181c0.75,0.096,1.652,0.051,2.428,0.151c0.869,0.019,1.568,0.179,2.472,0.169c0.729,0.019,1.124,0.134,1.931,0.124l-1.931-0.124c0.729,0.019,1.124,0.134,1.931,0.124 M215.548,244.83c0,0,1.028-0.781,1.487-1.082c0.543-0.191,2.397-1.062,3.1-1.202c0.749-0.22,1.495-0.466,2.215-0.755c0.833-0.215,1.353-0.409,2.218-0.609c0.676-0.32,1.344-0.541,2.067-0.753 M229.427,219.274c-0.404,1.203,0.143,1.497,0.375,2.011c0.398,0.496,1.406,1.248,2.99,1.716c0.61,0.154,1.08,0.306,1.787,0.563c0.467,0.037,0.697,0.149,1.042,0.279 M169.757,176.281l1.152-0.846c0,0,0.874-0.779,1.318-1.327 M179.912,186.306c0.099-0.001,8.575-4.326,9.474-5.239c0.639-0.467,1.122-0.958,1.9-1.49c0.5-0.264,0.857-0.599,1.324-0.89c0.385-0.563,0.892-0.906,1.168-1.42c0.518-0.452,0.287-0.933,0.705-1.476c0.194-0.553,0.557-1.485,0.673-1.99 M206.102,179.948c0.05,0.301-0.12,1.232-0.098,1.939c-0.019,0.82-1.059,3.365-2.346,4.136 M190.775,180.029c0.05-0.001,1.354,0.4,3.532,1.031c2.624,0.893,8.1,4.197,8.646,4.654c0.556,0.42,1.546,0.789,1.93,1.29c0.597,0.495,1.037,1.068,1.504,1.587c0.55,0.643,1.019,1.188,1.357,1.735c1.667,1.296,6.222,10.353,6.37,10.866c0.255,0.478,0.572,1.145,0.762,1.596c0.334,0.369,0.564,0.893,0.909,1.448c0.319,0.721,0.671,1.048,1.06,1.592c0.495,0.33,1.165,0.959,1.797,1.292c0.676,0.555,1.306,0.776,1.795,1.147c0.703,0.284,8.584,5.053,8.949,5.292c0.721,0.556,2.931,2.753,1.42,4.386c-0.643,0.554-1.218,1.284-1.769,1.599c-0.558,0.563-1.341,0.821-1.987,1.116c-3.509,1.064-5.307,0.718-6,0.726c-0.247,0.003-0.495,0.006-0.742,0.009 M173.57,163.154c0.049-0.001,0.099-0.001,0.148-0.002c-0.401,0.005-0.196-0.007,0.595,0.139c0.609,0.254,1.488,0.499,2.086,0.705c0.634,0.192,1.43,0.278,1.787,0.563c0.691,0.111,1.099,0.494,1.643,0.856c0.629,0.545,1.108,0.896,1.797,1.292c0.815,0.539,1.458,0.803,2.242,1.287c0.791,0.137,1.375,0.392,2.23,0.411c0.805,0.042,1.523,0.128,2.376,0.118c0.693-0.008,1.385-0.016,2.077-0.024l-2.077,0.024c0.693-0.008,1.385-0.016,2.077-0.024 M221.264,145.54c-0.099,0.001-0.198,0.002-0.297,0.003c0.549-0.006,0.394-0.024-0.443,0.151c-0.87,0.455-2.033,0.804-2.804,1.199c-0.882,0.298-1.83,0.628-2.657,1.052c-0.936,0.554-1.798,1.005-2.649,1.634c-0.848,0.46-1.68,1.023-2.503,1.488c-0.821,0.451-1.497,0.885-2.206,1.484c-0.594,0.333-1.4,0.804-2.06,1.336c-0.624,0.228-1.07,0.672-1.47,1.039c-0.776,0.693-1.252,1.053-2.055,1.774c-0.421,0.401-0.982,0.874-1.613,1.476c-0.665,0.447-1.379,1.301-1.906,1.772c-0.336,0.442-0.829,0.969-1.318,1.328c-0.374,0.474-0.806,1.098-1.317,1.474c-0.3,0.451-0.828,1.04-1.315,1.62c-0.394,0.487-0.94,0.978-1.316,1.473c-0.508,0.567-0.895,1.136-1.463,1.621c-0.098,0.338-0.311,0.515-0.435,0.734" />
  <path fill="#F9DD16" stroke="#000000" d="M218.603,233.566c0.05-0.206,12.184-3.018,12.184-3.018l-1.362,1.84l-0.847,3.239l-11.411,3.755L218.603,233.566z M311.448,89.026c-0.203,0.063-8.841-8.91-8.841-8.91l2.279,0.225l3.215-0.935l9.077,7.869L311.448,89.026z M137.467,82.074c0.155,0.146-3.408,12.081-3.408,12.081l-0.925-2.094l-2.396-2.339l2.386-11.773L137.467,82.074z" />
  <path fill="#F9DD16" stroke="#000000" d="M280.414,158.055c-1.264-1.807-2.585-5.278-2.622-5.34c0-0.001-2.565-4.103-2.565-4.103c-1.527-2.05-2.667-2.035-3.477-2.043c-1.767-0.072-2.555-0.376-3.89-0.445c-1.371-0.557-0.42-2.979-0.458-3.042c1.258-5.483,7.108-5.078,7.349-4.965c2.698,0.801,3.031,1.116,2.634,2.789c-0.631,1.811-1.015,2.458-0.931,3.597c0.194,2.177,2.954,5.317,2.992,5.381c0.038,0.063,1.8,1.409,1.8,1.409c0.837,0.672,1.931,0.768,3.082,2.104c1.016,1.443,1.171,2.032,0.393,3.503C283.732,158.835,281.515,159.45,280.414,158.055L280.414,158.055z M213.734,74.105c-0.959,1.978-3.355,4.835-3.391,4.899c0,0.001-2.33,4.232-2.33,4.232c-1.041,2.324-0.457,3.286-0.058,3.98c0.822,1.54,0.949,2.363,1.556,3.534c0.196,1.446-2.414,1.845-2.45,1.909c-5.46,1.666-8.033-3.516-8.054-3.778c-0.645-2.697-0.535-3.138,1.138-3.635c1.911-0.367,2.674-0.363,3.635-1.003c1.82-1.252,3.205-5.169,3.241-5.234c0.036-0.064,0.34-2.236,0.34-2.236c0.173-1.048-0.29-2.028,0.311-3.674c0.762-1.585,1.204-2.011,2.89-2.083C212.759,70.892,214.411,72.471,213.734,74.105L213.734,74.105z M173.174,172.784c2.223-0.171,5.939,0.443,6.013,0.442c0.001,0,4.894-0.129,4.894-0.129c2.569-0.274,3.124-1.252,3.536-1.937c0.945-1.469,1.607-1.987,2.334-3.089c1.175-0.889,2.834,1.134,2.908,1.133c4.202,3.817,0.926,8.595,0.705,8.743c-2.052,1.896-2.496,2.022-3.772,0.846c-1.28-1.444-1.659-2.095-2.704-2.594c-2.014-0.925-6.159-0.148-6.234-0.147c-0.074,0.001-2.14,0.827-2.14,0.827c-1.009,0.376-1.641,1.259-3.392,1.57c-1.778,0.142-2.374-0.021-3.282-1.42C170.832,175.218,171.396,173.023,173.174,172.784L173.174,172.784z" />
  <path fill="#F9DD16" stroke="#000000" stroke-width="1.3" d="M226.664,155.263c-1.844-0.999-3.268-1.233-3.966-0.801c-0.891-6.005-1.651-12.012-2.852-18.009c-11.361-5.087-13.759-6.242-17.484-7.98c1.8-1.07,2.717-2.165,2.685-2.976c5.734,2.248,11.406,4.61,17.288,6.591c10.153-7.125,12.367-8.588,15.758-10.89c0.043,2.068,0.551,3.398,1.281,3.776c-4.843,3.756-9.755,7.403-14.436,11.418C226.145,148.606,226.329,151.224,226.664,155.263L226.664,155.263z" />
</svg>
