<svg xmlns="http://www.w3.org/2000/svg" width="450px" height="300px" viewBox="0 0 450 300">
  <path fill="#FFFFFF" d="M450,300H0V0h450V300z" />
  <g>
    <path fill="#F94B08" d="M169.768,219.056c0.409-2.979,3.498-8.855,3.498-8.855s0.789,3.549,1.557,4.593c1.359,1.847,4.23,2.314,6.361,2.412c6.904,0.318,14.529-2.21,21.327-3.334c5.061-0.837,12.431-2.544,16.485,1.736c3.764,3.974,2.115,11.413-1.788,14.715c-3.457-8.28-14.445-4.435-20.971-3.138c-6.931,1.377-20.107,6.406-25.292-0.971C170.294,225.29,169.479,221.158,169.768,219.056z M127.825,204.161c5.185,7.377,18.361,2.348,25.292,0.971c6.527-1.297,17.514-5.142,20.971,3.138c3.903-3.302,5.552-10.741,1.788-14.715c-4.053-4.28-11.424-2.573-16.485-1.736c-6.798,1.124-14.424,3.651-21.327,3.334c-2.131-0.098-5.002-0.565-6.361-2.412c-0.768-1.044-1.557-4.593-1.557-4.593s-3.089,5.876-3.498,8.855C126.36,199.104,127.175,203.236,127.825,204.161z M280.232,219.056c-0.409-2.979-3.498-8.855-3.498-8.855s-0.789,3.549-1.557,4.593c-1.359,1.847-4.23,2.314-6.361,2.412c-6.904,0.318-14.529-2.21-21.327-3.334c-5.061-0.837-12.431-2.544-16.485,1.736c-3.764,3.974-2.115,11.413,1.788,14.715c3.457-8.28,14.445-4.435,20.971-3.138c6.931,1.377,20.107,6.406,25.292-0.971C279.706,225.29,280.521,221.158,280.232,219.056z M323.351,197.002c-0.409-2.979-3.498-8.855-3.498-8.855s-0.789,3.549-1.557,4.593c-1.359,1.847-4.23,2.314-6.361,2.412c-6.904,0.318-14.529-2.21-21.327-3.334c-5.061-0.837-12.431-2.544-16.485,1.736c-3.764,3.974-2.115,11.413,1.788,14.715c3.457-8.28,14.445-4.435,20.971-3.138c6.931,1.377,20.107,6.406,25.292-0.971C322.825,203.236,323.64,199.104,323.351,197.002z M225,249.182c3.459,0.011,7.265-1.027,9.615-3.548c3.881-4.163-1.299-12.938-1.477-12.983c-1.046,3.408-4.6,5.148-8.138,5.164l0,0c-3.538-0.016-7.092-1.756-8.138-5.164c-0.178,0.044-5.358,8.82-1.477,12.983C217.735,248.155,221.541,249.193,225,249.182L225,249.182z" />
    <path fill="#439D53" d="M117.707,218.027c0.323-2.986,3.22-7.707,3.22-7.707s1.532,3.746,2.3,4.79c1.359,1.847,4.168,2.814,8.104,3.039c3.936,0.225,11.041-1.371,17.839-2.495c5.061-0.837,13.14-3.296,17.453-0.528c4.649,2.984,1.533,9.75-1.818,14.115c-2.326-7.663-15.652-2.996-21.511-2.312c-3.558,0.415-19.047,4.939-23.602-0.74C117.693,223.696,117.384,221.013,117.707,218.027z M162.309,248.945c4.554,5.679,20.044,1.155,23.602,0.74c5.86-0.684,19.185-5.35,21.511,2.312c3.351-4.365,6.467-11.131,1.818-14.115c-4.313-2.769-12.392-0.309-17.453,0.528c-6.798,1.124-13.904,2.72-17.839,2.495c-3.936-0.225-6.745-1.192-8.104-3.039c-0.768-1.044-2.3-4.79-2.3-4.79s-2.896,4.721-3.22,7.707C160,243.768,160.309,246.451,162.309,248.945z M332.293,218.027c-0.323-2.986-3.22-7.707-3.22-7.707s-1.532,3.746-2.3,4.79c-1.359,1.847-4.168,2.814-8.104,3.039c-3.936,0.225-11.041-1.371-17.839-2.495c-5.061-0.837-13.14-3.296-17.453-0.528c-4.649,2.984-1.533,9.75,1.818,14.115c2.326-7.663,15.651-2.996,21.511-2.312c3.558,0.415,19.047,4.939,23.602-0.74C332.307,223.696,332.616,221.013,332.293,218.027z M225,276.418c11.569,0.011,26.815-8.786,18.657-21.669c-2.47,5.947-10.641,9.112-18.657,9.183c-8.016-0.071-16.187-3.236-18.657-9.183C198.185,267.632,213.431,276.429,225,276.418z M289.677,240.783c-0.323-2.986-3.22-7.707-3.22-7.707s-1.532,3.746-2.3,4.79c-1.359,1.847-4.168,2.814-8.104,3.039c-3.936,0.225-11.041-1.371-17.839-2.495c-5.061-0.837-13.14-3.296-17.453-0.528c-4.649,2.984-1.533,9.75,1.818,14.115c2.326-7.663,15.651-2.996,21.511-2.312c3.558,0.415,19.047,4.939,23.602-0.74C289.691,246.451,290,243.768,289.677,240.783z" />
    <path fill="#CAA756" d="M195.985,191.341c0.243,0.184,0.365,0.442,0.365,0.777c0,0.046,0,0.091,0,0.138c0,0.045-0.007,0.091-0.022,0.138c-0.046,0.243-0.179,0.487-0.4,0.73c-0.221,0.243-0.392,0.548-0.514,0.913c-0.016,0.108-0.085,0.16-0.206,0.16c-0.106,0-0.129-0.067-0.068-0.204c0.122-0.184,0.217-0.4,0.285-0.651c0.069-0.253,0.102-0.507,0.102-0.766c0-0.396-0.091-0.745-0.273-1.05c-0.183-0.305-0.495-0.457-0.937-0.457c-0.396,0-0.799,0.113-1.211,0.342c-0.411,0.229-0.769,0.624-1.073,1.188l-4.225,7.788c-0.396,0.732-0.757,1.253-1.085,1.565c-0.327,0.312-0.598,0.507-0.81,0.582h5.504c0.73,0,1.408-0.022,2.032-0.067c0.624-0.046,1.005-0.16,1.142-0.344c0.151-0.212,0.229-0.44,0.229-0.684c0-0.381-0.206-0.664-0.617-0.846c-0.046-0.03-0.069-0.061-0.069-0.091s0.02-0.061,0.058-0.091c0.037-0.032,0.087-0.032,0.149,0c0.137,0.061,0.3,0.193,0.491,0.4c0.191,0.204,0.369,0.426,0.536,0.662c0.168,0.236,0.274,0.422,0.32,0.559c0.046,0.138,0.069,0.275,0.069,0.411c0,0.624-0.541,0.937-1.622,0.937c-0.852,0-1.766-0.03-2.741-0.091c-0.975-0.061-1.938-0.13-2.889-0.206c-0.952-0.074-1.846-0.128-2.683-0.16c-0.32-0.03-0.637,0.013-0.948,0.126c-0.312,0.113-0.552,0.247-0.719,0.4c-0.016,0.015-0.031,0.022-0.046,0.022c-0.046,0-0.068-0.069-0.068-0.204c0-0.091,0.026-0.188,0.08-0.286c0.053-0.099,0.156-0.156,0.309-0.171c0.426-0.03,0.829-0.175,1.21-0.435c0.38-0.258,0.716-0.567,1.005-0.924c0.289-0.359,0.495-0.697,0.617-1.017l2.101-5.252c0.289-0.716,0.62-1.409,0.993-2.078c0.373-0.671,0.852-1.219,1.439-1.645c0.586-0.426,1.329-0.639,2.227-0.639c0.35,0,0.704,0.041,1.062,0.125C195.441,191.025,195.742,191.158,195.985,191.341z M204.116,200.66c-0.305,0.396-0.655,0.803-1.051,1.221c-0.396,0.42-0.825,0.769-1.29,1.052c-0.465,0.281-0.94,0.422-1.427,0.422c-0.152,0-0.282-0.032-0.388-0.091c-0.107-0.061-0.16-0.175-0.16-0.344c0-0.212,0.053-0.455,0.16-0.73c0.107-0.273,0.229-0.545,0.365-0.81c0.138-0.266,0.259-0.483,0.366-0.651c-0.533,0.563-1.089,1.097-1.667,1.598c-0.29,0.243-0.61,0.472-0.96,0.686c-0.35,0.212-0.723,0.32-1.119,0.32c-0.152,0-0.259-0.05-0.32-0.149c-0.061-0.099-0.091-0.217-0.091-0.355c0-0.076,0.007-0.128,0.022-0.16c0.076-0.593,0.267-1.21,0.572-1.849c0.304-0.639,0.677-1.242,1.119-1.805c0.441-0.563,0.89-1.02,1.348-1.37c0.518-0.396,1.088-0.595,1.713-0.595h2.626c0.076,0,0.114,0.032,0.114,0.093c0,0.121-0.068,0.182-0.205,0.182c-0.152,0-0.305,0.095-0.456,0.284c-0.152,0.191-0.267,0.348-0.343,0.468c-0.107,0.169-0.274,0.45-0.503,0.846s-0.461,0.825-0.696,1.29c-0.237,0.465-0.439,0.896-0.606,1.292c-0.167,0.396-0.251,0.684-0.251,0.866c0,0.214,0.106,0.322,0.32,0.322c0.229,0,0.487-0.108,0.777-0.322c0.289-0.212,0.582-0.474,0.879-0.786c0.296-0.312,0.571-0.624,0.822-0.937c0.251-0.312,0.453-0.559,0.605-0.743c0.091,0.093,0.087,0.217-0.011,0.377C204.279,200.442,204.192,200.569,204.116,200.66z M200.781,199.872c0.335-0.45,0.612-0.861,0.834-1.234c0.22-0.372,0.331-0.658,0.331-0.855c0-0.167-0.049-0.283-0.149-0.344c-0.098-0.059-0.224-0.091-0.376-0.091c-0.243,0-0.506,0.087-0.788,0.262c-0.282,0.177-0.506,0.348-0.674,0.515c-0.182,0.167-0.4,0.429-0.651,0.788c-0.252,0.357-0.499,0.749-0.743,1.177c-0.243,0.426-0.449,0.836-0.617,1.232c-0.167,0.396-0.251,0.716-0.251,0.959c0,0.184,0.06,0.275,0.183,0.275c0.182,0,0.437-0.134,0.765-0.4c0.327-0.266,0.681-0.602,1.062-1.006C200.088,200.747,200.446,200.321,200.781,199.872z M215.854,198.855c-0.045,0.091-0.11,0.156-0.193,0.195c-0.084,0.037-0.126,0.026-0.126-0.035c0-0.059,0.007-0.128,0.024-0.204c0.015-0.076,0.022-0.145,0.022-0.206c0-0.258-0.046-0.487-0.138-0.686c-0.076-0.212-0.19-0.368-0.342-0.468c-0.152-0.098-0.312-0.147-0.48-0.147c-0.243,0-0.48,0.095-0.708,0.284c-0.229,0.191-0.344,0.439-0.344,0.743c0,0.03,0,0.067,0,0.113s0.009,0.084,0.024,0.113c0.059,0.245,0.243,0.519,0.548,0.823c0.303,0.305,0.539,0.571,0.708,0.799c0.288,0.396,0.433,0.799,0.433,1.21s-0.117,0.788-0.353,1.13c-0.236,0.344-0.548,0.617-0.937,0.823c-0.388,0.204-0.81,0.309-1.268,0.309c-0.274,0-0.563-0.039-0.868-0.115c-0.305-0.076-0.574-0.203-0.81-0.377c-0.236-0.175-0.392-0.414-0.468-0.719c-0.015-0.045-0.023-0.113-0.023-0.204c0-0.173,0.055-0.37,0.12-0.572c-0.058,0.065-0.107,0.129-0.166,0.195c-0.35,0.388-0.723,0.734-1.119,1.039c-0.168,0.138-0.374,0.255-0.617,0.355c-0.243,0.099-0.487,0.147-0.73,0.147c-0.381,0-0.67-0.128-0.868-0.387c-0.123-0.184-0.243-0.457-0.365-0.823c-0.123-0.364-0.229-0.745-0.32-1.141c-0.092-0.396-0.168-0.716-0.229-0.959c-0.427,0.548-0.804,1.097-1.131,1.643c-0.327,0.548-0.545,0.976-0.651,1.281c-0.031,0.091-0.134,0.167-0.309,0.227c-0.175,0.061-0.347,0.093-0.514,0.093c-0.243,0-0.335-0.076-0.274-0.229c0.472-1.052,0.921-2.063,1.348-3.039c0.427-0.974,0.879-1.955,1.359-2.946c0.48-0.989,1.024-2.017,1.634-3.083c0.426-0.775,0.94-1.526,1.542-2.249c0.601-0.723,1.244-1.316,1.929-1.781c0.685-0.465,1.378-0.697,2.079-0.697c0.227,0,0.44,0.061,0.639,0.182c0.197,0.123,0.296,0.312,0.296,0.571v0.664c0,0.059-0.045,0.091-0.136,0.091c-0.046,0-0.069-0.015-0.069-0.046c0-0.243-0.108-0.407-0.32-0.491c-0.214-0.084-0.42-0.126-0.617-0.126c-0.532,0-1.073,0.108-1.621,0.32c-0.61,0.245-1.12,0.61-1.531,1.097c-0.411,0.489-0.792,1.006-1.142,1.554c-0.456,0.701-0.906,1.518-1.348,2.455c-0.441,0.937-0.848,1.877-1.222,2.82c-0.373,0.944-0.704,1.797-0.993,2.559c0.167-0.214,0.335-0.427,0.503-0.639c0.167-0.214,0.327-0.413,0.48-0.595c0-0.03-0.004-0.061-0.011-0.091c-0.008-0.03-0.012-0.061-0.012-0.091c0-0.106,0.023-0.199,0.069-0.275c0.046-0.076,0.107-0.167,0.183-0.273c0.106-0.152,0.205-0.27,0.296-0.355c0.092-0.084,0.191-0.193,0.297-0.331l0.068,0.388c0.67-0.686,1.256-1.18,1.759-1.485c0.35-0.212,0.692-0.32,1.028-0.32c0.335,0,0.502,0.13,0.502,0.388c0,0.214-0.106,0.48-0.32,0.799c-0.076,0.108-0.122,0.184-0.137,0.229c-0.016,0.046-0.046,0.091-0.091,0.138c-0.016,0.015-0.046,0.015-0.092,0c-0.046-0.015-0.068-0.037-0.068-0.069c0-0.182-0.061-0.301-0.183-0.353c-0.122-0.054-0.259-0.08-0.411-0.08c-0.29,0-0.598,0.102-0.926,0.307c-0.327,0.206-0.659,0.485-0.993,0.835c0.076,0.381,0.164,0.795,0.263,1.245c0.099,0.448,0.209,0.864,0.331,1.243c0.122,0.381,0.236,0.664,0.343,0.846c0.076,0.123,0.182,0.203,0.32,0.24c0.137,0.039,0.251,0.058,0.343,0.058c0.213,0,0.46-0.112,0.742-0.331c0.282-0.221,0.572-0.487,0.868-0.799c0.297-0.312,0.572-0.621,0.822-0.926c0.211-0.257,0.36-0.446,0.491-0.615c0-0.001,0-0.001,0.001-0.002c0.122-0.138,0.258-0.309,0.411-0.513c0.152-0.206,0.274-0.37,0.365-0.493c0.259-0.379,0.453-0.68,0.583-0.901c0.128-0.221,0.27-0.422,0.422-0.606c0.167-0.197,0.377-0.357,0.628-0.48c0.251-0.121,0.513-0.182,0.788-0.182c0.32,0,0.613,0.05,0.879,0.149c0.266,0.098,0.407,0.346,0.422,0.742c0,0.184-0.033,0.37-0.102,0.559C216.002,198.509,215.93,198.688,215.854,198.855z M213.183,199.929c-0.152-0.214-0.253-0.442-0.297-0.686c-0.015-0.046-0.028-0.091-0.035-0.138c-0.007-0.045-0.011-0.091-0.011-0.136c-0.197,0.288-0.399,0.559-0.604,0.81c-0.205,0.251-0.385,0.468-0.537,0.651c-0.004,0.006-0.006,0.003-0.01,0.009c-0.001,0.001-0.001,0.002-0.001,0.003c-0.069,0.1-0.134,0.188-0.194,0.262c-0.08,0.1-0.176,0.203-0.259,0.304c0.011,0.021,0.028,0.042,0.008,0.062c-0.016,0.046-0.038,0.102-0.069,0.171c-0.031,0.069-0.054,0.141-0.069,0.217c-0.046,0.396,0.038,0.745,0.252,1.05c0.091,0.123,0.202,0.236,0.331,0.344c0.129,0.106,0.255,0.197,0.376,0.273c0.107,0.061,0.236,0.102,0.388,0.126c0.152,0.022,0.304,0.033,0.456,0.033c0.243,0,0.48-0.03,0.708-0.091c0.229-0.061,0.396-0.16,0.502-0.297c0.199-0.243,0.297-0.517,0.297-0.822c0-0.229-0.061-0.472-0.182-0.73c-0.123-0.26-0.312-0.533-0.571-0.823C213.493,200.34,213.333,200.141,213.183,199.929z M248.17,198.353c-0.214,0.563-0.522,1.145-0.926,1.747c-0.403,0.602-0.855,1.162-1.359,1.678c-0.502,0.519-1.028,0.937-1.576,1.256c-0.197,0.106-0.403,0.197-0.615,0.273c-0.214,0.076-0.42,0.115-0.617,0.115c-0.243,0-0.454-0.076-0.628-0.229s-0.262-0.418-0.262-0.799c0-0.396,0.041-0.868,0.125-1.416c0.084-0.548,0.195-1.082,0.331-1.598c-0.106,0.167-0.208,0.346-0.309,0.537c-0.099,0.19-0.208,0.383-0.331,0.582c-0.381,0.548-0.773,1.065-1.177,1.552c-0.403,0.489-0.749,0.816-1.039,0.983c-0.182,0.106-0.374,0.197-0.571,0.273c-0.197,0.076-0.381,0.115-0.548,0.115c-0.214,0-0.396-0.076-0.548-0.229s-0.229-0.418-0.229-0.799c0-0.335,0.028-0.73,0.08-1.188c0.054-0.457,0.134-0.926,0.24-1.405c0.108-0.48,0.229-0.901,0.366-1.268c-0.258,0.381-0.548,0.773-0.868,1.177c-0.32,0.403-0.585,0.742-0.799,1.017c-0.017,0.023-0.028,0.02-0.042,0.034c-0.261,0.337-0.56,0.69-0.928,1.074c-0.403,0.418-0.842,0.777-1.314,1.072c-0.472,0.297-0.952,0.446-1.439,0.446c-0.152,0-0.281-0.032-0.388-0.091c-0.106-0.061-0.16-0.175-0.16-0.344c0-0.212,0.054-0.455,0.16-0.73c0.108-0.273,0.229-0.545,0.366-0.81s0.258-0.483,0.366-0.651c-0.533,0.563-1.089,1.097-1.667,1.598c-0.29,0.243-0.61,0.472-0.961,0.686c-0.349,0.212-0.723,0.32-1.119,0.32c-0.152,0-0.258-0.05-0.32-0.149c-0.061-0.099-0.091-0.217-0.091-0.355c0-0.076,0.007-0.128,0.022-0.16c0.064-0.501,0.229-1.023,0.457-1.558c-0.213,0.255-0.412,0.506-0.662,0.769c-0.396,0.42-0.825,0.769-1.29,1.052c-0.465,0.281-0.94,0.422-1.427,0.422c-0.152,0-0.283-0.032-0.388-0.091c-0.108-0.061-0.16-0.175-0.16-0.344c0-0.212,0.052-0.455,0.16-0.73c0.106-0.273,0.229-0.545,0.364-0.81c0.138-0.266,0.26-0.483,0.366-0.651c-0.533,0.563-1.089,1.097-1.667,1.598c-0.29,0.243-0.61,0.472-0.959,0.686c-0.351,0.212-0.723,0.32-1.119,0.32c-0.152,0-0.26-0.05-0.32-0.149c-0.061-0.099-0.091-0.217-0.091-0.355c0-0.076,0.007-0.128,0.022-0.16c0.061-0.473,0.214-0.965,0.42-1.467c-0.053,0.065-0.104,0.137-0.158,0.2c-0.175,0.206-0.346,0.409-0.513,0.606c-0.29,0.335-0.636,0.654-1.039,0.959s-0.857,0.457-1.359,0.457c-0.229,0-0.431-0.046-0.606-0.138c-0.175-0.091-0.262-0.258-0.262-0.502c0-0.138,0.03-0.29,0.091-0.457c0.138-0.349,0.323-0.777,0.559-1.279c0.236-0.504,0.476-0.994,0.719-1.474c0.243-0.48,0.433-0.872,0.571-1.176c0.091-0.182,0.138-0.31,0.138-0.388c0-0.136-0.076-0.167-0.229-0.091s-0.32,0.184-0.502,0.32c-0.184,0.138-0.32,0.243-0.411,0.32c-0.398,0.366-0.812,0.797-1.245,1.292c-0.435,0.494-0.831,1.013-1.188,1.552c-0.359,0.541-0.636,1.078-0.835,1.611c-0.015,0.091-0.113,0.167-0.296,0.227c-0.184,0.061-0.351,0.093-0.504,0.093c-0.243,0-0.335-0.076-0.273-0.229c0.349-0.792,0.712-1.667,1.084-2.626c0.374-0.961,0.795-1.942,1.268-2.948c0.351-0.76,0.743-1.545,1.176-2.351c0.435-0.807,0.918-1.58,1.452-2.318c0.532-0.74,1.119-1.39,1.758-1.953c0.563-0.487,1.184-0.887,1.86-1.199c0.678-0.312,1.413-0.468,2.204-0.468c0.349,0,0.654,0.072,0.914,0.217c0.258,0.145,0.403,0.4,0.433,0.764v0.206c0,0.214-0.022,0.426-0.069,0.639c-0.015,0.061-0.076,0.091-0.182,0.091c-0.046,0-0.061-0.007-0.046-0.022c0.061-0.396-0.041-0.678-0.309-0.846c-0.266-0.167-0.604-0.251-1.015-0.251c-0.747,0-1.433,0.138-2.056,0.411c-0.624,0.275-1.204,0.639-1.736,1.097c-0.823,0.716-1.539,1.63-2.147,2.741c-0.61,1.111-1.136,2.245-1.576,3.401c-0.214,0.565-0.424,1.128-0.628,1.691c-0.206,0.563-0.4,1.089-0.582,1.576c0.684-0.914,1.342-1.699,1.974-2.353s1.184-1.119,1.656-1.394c0.381-0.212,0.723-0.32,1.028-0.32c0.29,0,0.435,0.123,0.435,0.366c0,0.214-0.108,0.487-0.32,0.822c-0.108,0.169-0.271,0.45-0.491,0.846c-0.221,0.396-0.45,0.825-0.686,1.29c-0.236,0.465-0.439,0.896-0.606,1.292c-0.167,0.396-0.251,0.684-0.251,0.866c0,0.245,0.106,0.366,0.32,0.366c0.123,0,0.262-0.037,0.422-0.113c0.16-0.076,0.279-0.145,0.355-0.206c0.411-0.305,0.814-0.677,1.21-1.119c0.396-0.442,0.73-0.829,1.006-1.165c0.013-0.013,0.019,0.013,0.02,0.062c0.23-0.401,0.444-0.813,0.732-1.181c0.442-0.563,0.89-1.02,1.348-1.37c0.519-0.396,1.089-0.595,1.714-0.595h2.626c0.076,0,0.113,0.032,0.113,0.093c0,0.121-0.067,0.182-0.204,0.182c-0.152,0-0.305,0.095-0.457,0.284c-0.152,0.191-0.266,0.348-0.342,0.468c-0.108,0.169-0.275,0.45-0.504,0.846s-0.461,0.825-0.695,1.29c-0.238,0.465-0.439,0.896-0.606,1.292c-0.167,0.396-0.251,0.684-0.251,0.866c0,0.214,0.106,0.322,0.32,0.322c0.229,0,0.487-0.108,0.777-0.322c0.288-0.212,0.582-0.474,0.879-0.786c0.296-0.312,0.571-0.624,0.822-0.937c0.251-0.312,0.454-0.559,0.606-0.743c0.005,0.005,0.003,0.013,0.007,0.018c0.188-0.303,0.341-0.625,0.563-0.909c0.44-0.563,0.89-1.02,1.347-1.37c0.349-0.258,0.684-0.422,1.004-0.491c0.32-0.069,0.671-0.104,1.052-0.104h0.753c0.243-0.411,0.498-0.87,0.766-1.381c0.266-0.509,0.532-1.017,0.799-1.518c0.266-0.504,0.513-0.944,0.742-1.325c0.624-1.065,1.314-1.918,2.067-2.557c0.755-0.639,1.595-0.959,2.524-0.959c0.197,0,0.381,0.056,0.548,0.171c0.167,0.113,0.243,0.286,0.229,0.513l-0.046,0.823c0,0.015-0.015,0.033-0.045,0.056c-0.032,0.024-0.054,0.035-0.069,0.035c-0.015,0-0.039-0.015-0.069-0.046c-0.046-0.273-0.182-0.483-0.411-0.628c-0.229-0.143-0.511-0.216-0.846-0.216c-0.106,0-0.225,0.007-0.353,0.022c-0.13,0.015-0.257,0.046-0.377,0.091c-0.426,0.152-0.831,0.461-1.21,0.926c-0.381,0.465-0.792,1.076-1.234,1.838c-0.152,0.29-0.349,0.665-0.593,1.13c-0.243,0.465-0.5,0.963-0.766,1.496c-0.266,0.533-0.519,1.05-0.753,1.554c-0.238,0.502-0.439,0.927-0.606,1.279c-0.076,0.182-0.206,0.461-0.388,0.833c-0.182,0.374-0.377,0.777-0.582,1.212c-0.206,0.433-0.381,0.833-0.526,1.199c-0.145,0.364-0.217,0.624-0.217,0.775c0,0.214,0.091,0.322,0.275,0.322c0.182,0,0.426-0.112,0.73-0.333c0.305-0.219,0.621-0.494,0.948-0.822c0.327-0.327,0.624-0.643,0.89-0.948c0.075-0.087,0.13-0.153,0.193-0.227c0,0,0-0.001,0-0.002c0.32-0.44,0.682-0.944,1.085-1.507s0.749-1.072,1.039-1.53c0.167-0.03,0.37-0.076,0.606-0.138c0.236-0.061,0.407-0.145,0.513-0.251c0.076-0.046,0.123-0.069,0.138-0.069c0.046,0,0.069,0.026,0.069,0.08c0,0.054-0.022,0.112-0.069,0.171c-0.138,0.199-0.29,0.507-0.457,0.926c-0.167,0.418-0.327,0.883-0.48,1.392c-0.152,0.511-0.277,1.009-0.377,1.496c-0.099,0.489-0.147,0.892-0.147,1.212c0,0.243,0.041,0.411,0.125,0.502c0.084,0.091,0.178,0.138,0.286,0.138c0.212,0,0.437-0.1,0.673-0.297c0.236-0.197,0.472-0.442,0.708-0.73c0.236-0.29,0.446-0.571,0.628-0.846c0.182-0.273,0.32-0.487,0.411-0.639c0.305-0.487,0.598-1.017,0.879-1.587c0.283-0.571,0.522-1.024,0.719-1.359c0.169-0.03,0.37-0.076,0.606-0.138c0.236-0.061,0.414-0.145,0.537-0.251c0.045-0.046,0.084-0.069,0.113-0.069c0.046,0,0.072,0.026,0.08,0.08c0.007,0.054-0.011,0.112-0.056,0.171c-0.138,0.199-0.283,0.504-0.435,0.914c-0.152,0.411-0.301,0.864-0.444,1.359c-0.145,0.494-0.264,0.981-0.355,1.461c-0.091,0.48-0.138,0.888-0.138,1.223c0,0.455,0.167,0.684,0.504,0.684c0.229,0,0.483-0.084,0.764-0.251c0.283-0.167,0.515-0.342,0.697-0.524c0.517-0.533,0.952-1.059,1.303-1.576c0.349-0.519,0.647-1.111,0.89-1.782c0.091-0.229,0.152-0.429,0.182-0.604s0.046-0.34,0.046-0.493c0-0.212-0.035-0.383-0.104-0.513c-0.069-0.13-0.141-0.203-0.216-0.217c-0.078-0.03-0.115-0.069-0.115-0.113c0-0.032,0.037-0.065,0.115-0.104c0.074-0.037,0.16-0.048,0.251-0.033c0.243,0.061,0.452,0.171,0.628,0.331c0.175,0.16,0.262,0.392,0.262,0.697C248.329,197.82,248.275,198.078,248.17,198.353z M226.907,199.872c0.335-0.45,0.613-0.861,0.835-1.234c0.219-0.372,0.331-0.658,0.331-0.855c0-0.167-0.05-0.283-0.149-0.344c-0.099-0.059-0.225-0.091-0.377-0.091c-0.243,0-0.506,0.087-0.788,0.262c-0.281,0.177-0.506,0.348-0.673,0.515c-0.182,0.167-0.4,0.429-0.651,0.788c-0.253,0.357-0.5,0.749-0.743,1.177c-0.243,0.426-0.448,0.836-0.617,1.232c-0.167,0.396-0.251,0.716-0.251,0.959c0,0.184,0.061,0.275,0.184,0.275c0.182,0,0.437-0.134,0.764-0.4c0.327-0.266,0.682-0.602,1.063-1.006C226.214,200.747,226.572,200.321,226.907,199.872z M233.622,199.872c0.335-0.45,0.611-0.861,0.833-1.234c0.221-0.372,0.331-0.658,0.331-0.855c0-0.167-0.048-0.283-0.149-0.344c-0.099-0.059-0.223-0.091-0.375-0.091c-0.243,0-0.507,0.087-0.788,0.262c-0.283,0.177-0.507,0.348-0.675,0.515c-0.182,0.167-0.4,0.429-0.651,0.788c-0.251,0.357-0.498,0.749-0.742,1.177c-0.243,0.426-0.45,0.836-0.617,1.232c-0.167,0.396-0.251,0.716-0.251,0.959c0,0.184,0.059,0.275,0.182,0.275c0.182,0,0.437-0.134,0.766-0.4c0.327-0.266,0.68-0.602,1.061-1.006C232.929,200.747,233.286,200.321,233.622,199.872z M249.517,203.468c-0.624,0-1.059-0.121-1.301-0.364c-0.245-0.243-0.366-0.541-0.366-0.892c0-0.44,0.117-0.913,0.353-1.414c0.236-0.504,0.461-0.929,0.675-1.281c0.243-0.364,0.571-0.745,0.981-1.141s0.861-0.73,1.348-1.006c0.487-0.273,0.959-0.411,1.416-0.411c0.396,0,0.671,0.095,0.822,0.286c0.152,0.19,0.229,0.414,0.229,0.673c0,0.472-0.139,0.861-0.422,1.165c-0.283,0.305-0.628,0.552-1.039,0.742c-0.411,0.191-0.807,0.348-1.188,0.468c-0.229,0.061-0.494,0.123-0.799,0.184c-0.305,0.059-0.595,0.091-0.868,0.091c-0.106,0.273-0.191,0.541-0.251,0.799c-0.061,0.258-0.091,0.494-0.091,0.708c0,0.258,0.063,0.472,0.193,0.639c0.13,0.167,0.346,0.251,0.651,0.251c0.123,0,0.268-0.015,0.435-0.046c0.167-0.03,0.349-0.076,0.548-0.136c0.455-0.152,0.905-0.396,1.347-0.732c0.441-0.335,0.848-0.695,1.221-1.084c0.374-0.388,0.658-0.712,0.857-0.97c0.007,0.007,0.005,0.018,0.011,0.026c0.097-0.181,0.193-0.355,0.286-0.507c0.243-0.364,0.571-0.745,0.981-1.141s0.861-0.73,1.347-1.006c0.487-0.273,0.959-0.411,1.416-0.411c0.396,0,0.671,0.095,0.822,0.286c0.152,0.19,0.229,0.414,0.229,0.673c0,0.472-0.139,0.861-0.422,1.165c-0.283,0.305-0.628,0.552-1.039,0.742c-0.411,0.191-0.807,0.348-1.188,0.468c-0.229,0.061-0.494,0.123-0.799,0.184c-0.305,0.059-0.595,0.091-0.868,0.091c-0.106,0.273-0.191,0.541-0.251,0.799c-0.061,0.258-0.091,0.494-0.091,0.708c0,0.258,0.063,0.472,0.193,0.639c0.13,0.167,0.346,0.251,0.651,0.251c0.123,0,0.268-0.015,0.435-0.046c0.167-0.03,0.349-0.076,0.548-0.136c0.455-0.152,0.905-0.396,1.348-0.732c0.44-0.335,0.848-0.695,1.221-1.084c0.374-0.388,0.658-0.712,0.857-0.97c0.045,0.045,0.069,0.099,0.069,0.16c0,0.076-0.054,0.197-0.16,0.364c-0.305,0.427-0.701,0.868-1.188,1.325c-0.489,0.457-1.028,0.842-1.623,1.152c-0.593,0.312-1.21,0.468-1.849,0.468c-0.624,0-1.059-0.121-1.301-0.364c-0.245-0.243-0.366-0.541-0.366-0.892c0-0.397,0.109-0.823,0.301-1.269c-0.246,0.296-0.519,0.595-0.849,0.905c-0.489,0.457-1.028,0.842-1.623,1.152C250.773,203.312,250.156,203.468,249.517,203.468z M255.227,200.111c0.199,0.015,0.424,0.011,0.675-0.011c0.251-0.022,0.498-0.072,0.742-0.149c0.625-0.182,1.078-0.476,1.359-0.879c0.283-0.403,0.424-0.766,0.424-1.085c0-0.182-0.039-0.335-0.115-0.457c-0.076-0.121-0.197-0.182-0.364-0.182c-0.442,0-0.838,0.164-1.188,0.491c-0.351,0.329-0.656,0.704-0.914,1.132C255.585,199.396,255.379,199.777,255.227,200.111z M249.539,200.111c0.199,0.015,0.424,0.011,0.675-0.011c0.251-0.022,0.498-0.072,0.742-0.149c0.624-0.182,1.078-0.476,1.359-0.879c0.283-0.403,0.424-0.766,0.424-1.085c0-0.182-0.039-0.335-0.115-0.457c-0.076-0.121-0.197-0.182-0.364-0.182c-0.442,0-0.838,0.164-1.188,0.491c-0.351,0.329-0.656,0.704-0.914,1.132C249.898,199.396,249.692,199.777,249.539,200.111z M265.641,194.22l-0.045,0.639c0,0.045-0.032,0.069-0.091,0.069c-0.017,0-0.024-0.007-0.024-0.024c0-0.182-0.065-0.309-0.193-0.375c-0.13-0.069-0.255-0.104-0.377-0.104c-0.517,0-0.978,0.18-1.381,0.537c-0.403,0.359-0.758,0.818-1.063,1.381c-0.305,0.565-0.563,1.154-0.775,1.771c-0.214,0.617-0.388,1.184-0.526,1.701c0.106-0.091,0.301-0.281,0.582-0.571c0.283-0.288,0.613-0.6,0.994-0.937c0.379-0.335,0.768-0.624,1.163-0.868c0.396-0.243,0.762-0.364,1.097-0.364c0.199,0,0.316,0.087,0.355,0.262c0.037,0.175,0.041,0.338,0.011,0.491c-0.076,0.563-0.268,1.173-0.571,1.827c-0.305,0.656-0.697,1.275-1.177,1.862c-0.48,0.585-1.013,1.061-1.598,1.427c-0.587,0.364-1.199,0.548-1.838,0.548c-0.078,0-0.18-0.006-0.309-0.013c-0.13-0.007-0.21-0.026-0.24-0.056c-0.32,0.959-0.732,1.94-1.234,2.946c-0.502,1.006-1.108,1.914-1.816,2.728s-1.548,1.427-2.524,1.838c-0.517,0.229-1.087,0.344-1.712,0.344c-0.578,0-1.139-0.134-1.678-0.4c-0.541-0.268-0.94-0.675-1.201-1.223c-0.091-0.197-0.151-0.407-0.182-0.628c-0.03-0.219-0.045-0.437-0.045-0.651v-0.251c0-0.123,0.015-0.232,0.045-0.331c0.032-0.099,0.108-0.149,0.229-0.149c0.046,0,0.069,0.015,0.069,0.046c0,0.091-0.011,0.182-0.035,0.273c-0.022,0.091-0.033,0.19-0.033,0.297c0,0.699,0.225,1.232,0.675,1.598c0.448,0.366,1.007,0.548,1.678,0.548c0.273,0,0.556-0.032,0.844-0.091c0.29-0.061,0.565-0.145,0.823-0.251c0.959-0.413,1.795-0.991,2.511-1.736c0.717-0.747,1.34-1.591,1.874-2.535c0.533-0.944,1.005-1.911,1.416-2.901c0.44-1.08,0.864-2.15,1.268-3.208c0.403-1.059,0.857-2.098,1.359-3.119c0.472-0.944,0.974-1.65,1.507-2.123c0.533-0.472,1.065-0.708,1.598-0.708c0.138,0,0.271,0.037,0.4,0.113C265.6,193.93,265.655,194.052,265.641,194.22z M261.027,200.682c-0.258,0.351-0.487,0.704-0.684,1.063c-0.199,0.357-0.297,0.658-0.297,0.901c0,0.305,0.16,0.457,0.48,0.457c0.229,0,0.491-0.095,0.788-0.286c0.297-0.19,0.52-0.361,0.673-0.513c0.184-0.167,0.4-0.431,0.651-0.788c0.253-0.359,0.504-0.751,0.755-1.177c0.251-0.426,0.461-0.838,0.628-1.234s0.251-0.716,0.251-0.959c0-0.076-0.015-0.145-0.045-0.204c-0.032-0.061-0.085-0.093-0.162-0.093c-0.136,0-0.32,0.085-0.546,0.253c-0.229,0.167-0.468,0.368-0.719,0.604c-0.253,0.236-0.485,0.465-0.697,0.686c-0.214,0.221-0.366,0.385-0.457,0.491C261.492,200.065,261.286,200.333,261.027,200.682z" />
  </g>
  <g>
    <path fill="#A16B0E" d="M228.373,111.397c-1.49,0.494-4.511,0.237-4.511,0.237l3.557-38.056l1.404,2.564c0,0,1.861,2.452,1.588,4.452C230.17,90.571,229.023,101.453,228.373,111.397z" />
    <path fill="#E4B324" d="M228.398,71.233c0,0,0.54,39.254-4.535,40.401c-0.21-0.028-0.42-0.056-0.631-0.083c1.077-10.541,2.21-21.074,2.892-31.672c0.075-1.174,0.01-3.539,0.01-3.539l0.304-2.148L228.398,71.233z" />
    <path fill="#5B6933" d="M239.137,110.073c0,0,12.491-9.952,4.874-29.479c2.745,0.405,6.064,7.321,6.064,7.321s-0.377-3.228-2.272-6.604c4.036,2.524,7.258,8.928,7.258,8.928s-0.399-4.254-2.116-6.766c2.331,1.65,5.005,5.876,5.005,5.876l-0.085-3.473l2.975,3.346c0,0,1.37-14.994-20.609-23.511c3.355,0.138,9.872,2.838,9.872,2.838s-2.226-3.033-7.035-5.234c5.414,1.043,11.051,3.775,11.051,3.775s-1-2.059-3.318-3.636c3.291,0.764,7.022,2.923,7.022,2.923s-0.418-2.129-3.73-3.448c2.827-0.063,6.559,2.011,6.559,2.011s0.013-1.134-2.215-2.557c1.639,0.133,2.99,0.645,2.99,0.645s-5.007-8.299-16.367-9.048c2.294-1.133,5.295-1.674,5.295-1.674s-2.835-0.371-6.044-0.021c2.447-2.133,9.576-2.477,9.576-2.477s-2.657-0.815-6.256-0.884c5.316-1.037,7.181-2.033,7.181-2.033s-2.971-0.234-3.683-0.663c1.084-0.678,3.811-1.215,3.811-1.215s-14.596-4.337-25.285,6.983c0.513-2.681,1.823-4.614,2.448-6.447c-2.182,0.219,1.051-3.408,2.414-6.862c-1.447,0.447-3.018,2.559-3.018,2.559s-0.429-0.719,1.672-4.374c0.396-0.69,0.919-1.798,1.57-2.922c-0.313-0.171-1.32,0.822-1.566,0.326c-0.246-0.497,2.434-4.887,2.434-4.887s-0.702,0.15-0.975-0.056c-0.272-0.206,0.662-3.405,0.662-5.749c-1.597,0.623-9.252,7.095-10.027,23.868c-6.411-7.062-6.048-13.051-13.863-15.078c1.083,1.579,1.384,2.414,1.384,2.414l-1.585-0.487c0.003,0.579,2.506,2.727,3.095,4.042c-1.507-0.914-2.665-1.042-2.665-1.042l4.596,5.243c0,0-0.8,0.094-2.359-0.516c4.231,4.306,4.884,6.098,4.884,6.098c-8.45-5.954-16.181-5.238-16.181-5.238s1.755,1.224,2.405,2.086c-1.569-0.553-3.697-0.778-3.697-0.778c0.216,0.869,4.881,2.424,4.881,2.941c-1.497,0.105-4.401-0.349-4.401-0.349s3.931,2.11,8.31,3.947c-2.502-0.461-4.218,0.038-4.218,0.038s3.041,1.676,5.349,2.687c-14.241,0.331-18.641,6.199-18.641,6.199s3.147-0.745,4.133-0.657c-1.575,0.922-3.075,1.676-3.075,1.676s2.67-0.018,5.874-0.237c-1.457,1.083-3.814,2.282-3.814,2.282c1.049,0.32,7.03-1.199,8.821-0.952c-2.017,1.377-4.697,2.309-4.697,2.309s3.493,0.001,11.83-1.213c-20.875,6.702-20.225,23.091-20.225,23.091s1.529-1.864,3.005-4.374c-0.057,2.079-0.989,5.196-0.989,5.196s3.987-6.106,5.028-6.659c-0.389,2.248-1.624,5.859-1.624,5.859s4.783-5.859,5.772-8.101c-0.608,2.842-1.787,6.778-1.787,6.778s7.361-9.06,7.721-10.186c-11.715,24.207,0.235,35.776,0.235,35.776s-0.702-4.619-0.576-6.676c1.315,2.353,2.521,6.357,2.521,6.357s0.252-7.925-0.21-10.963c1.759,2.691,2.758,7.392,2.758,7.392s0.361-9.163-0.319-12.414c1.654,2.428,2.938,8.3,2.938,8.3s0.012-10.947,0.348-15.243c1.99,5.203,3.465,10.849,3.465,10.849s0.615-5.187,0.27-12.892c0.978,2.164,2.166,7.986,2.166,7.986s0.317-10.283,0.815-14.167c1.243,0.665,2.255,5.307,2.255,5.307s2.294-4.287,1.989-9.153c1.131,6.983,2.716,9.684,2.716,9.684s1.111-3.555,2.505-3.833c-1.227,3.969-1.676,11.824-1.676,11.824s2.135-4.974,3.153-5.606c-0.579,3.944-2.379,10.037-2.379,10.037s3.33-3.758,5.253-7.978c0.523,0.734-2.473,11.812-2.473,11.812s3.329-3.803,3.6-6.394c0.369,3.439-2.428,12.013-2.428,12.013s2.308-4.328,4.022-6.239c-0.092,2.688-1.773,8.458-1.773,8.458s1.193-2.35,2.521-3.51C240.435,106.354,239.137,110.073,239.137,110.073z" />
    <path fill="#589D11" d="M250.779,47.095c-4.114,1.817-5.227,1.204-6.807,1.803c1.002,0.873,4.933,1.084,4.933,1.084s-9.449,1.61-9.136,2.324c2.827,0.541,6.121,0.542,6.121,0.542c-0.092,0.452-2.982,1.522-6.89,1.916c-2.679,0.27-4.569,2.094-5.004,1.668C233.04,55.494,239.113,44.988,250.779,47.095z M234.839,66.719c0.688,1.444-1.717,5.663-0.618,6.71c1.098,1.047,2.857,1.3,3.767,1.687c0.91,0.386,1.524-0.512,2.274-0.262c0.75,0.25,5.695,4.836,6.687,6.456c0.085-2.273-1.144-4.349-1.144-4.349c2.116,1.359,2.041,2.518,6.485,7.119c-0.68-2.802-0.64-5.246-1.801-6.772c-2.553-3.359-6.781-3.879-8.034-5.311c4.893-0.123,5.799-0.944,5.799-0.944c-3.152-0.688-6.882-2.881-9.239-4.788c-2.357-1.907-1.073-2.297-1.073-2.297s2.533,1.063,7.5,2.297c-2.937-1.438-4.56-4.391-4.56-4.391s5.846,2.287,7.882,1.933c-1.205-1.202-1.158-2.038-1.158-2.038s3.57,1.296,5.7,1.492c-0.335-1.019-1.547-1.714-1.547-1.714c1.241-0.226,4.699,0.695,4.699,0.695s-9.031-7.722-23.367,0.324C233.66,65.593,234.151,65.275,234.839,66.719z M229.765,82.237c0.258-1.592,1.87-2.623,3.219-3.017c1.236,0.955-0.771,7.898-0.771,7.898s1.947-2.956,3.332-5.207c0.593,0.453-0.859,5.224-1.547,9.756c0,0,1.972-4.549,3.756-4.986c0.402,1.223-0.942,8.378-0.942,8.378s1.759-2.241,2.854-2.627c0.984-0.347-1.74,7.919-1.74,7.919s2.956-4.771,4.46-3.815c0.827-2.699,0.887-15.855-9.201-19.103c-2.832-0.912-2.793-0.477-3.782,0.389S229.765,82.237,229.765,82.237z M207.781,97.099c0,2.415,0.783,4.88,1.728,6.423c0.381-3.17-0.08-7.018,0.458-8.717c0.487,3.108,2.686,6.399,2.686,6.399s-1.977-11.579-0.946-12.314c0.389,1.935,3.468,6.747,3.468,6.747s0.416-8.64,0.081-12.953c0.983,0.017,3.565,8.282,3.565,8.282s-0.38-9.503,0-13.029c1.166,0.572,2.994,8.826,2.994,8.826s0.633-8.446,0.26-12.453C208.647,81.021,207.782,94.684,207.781,97.099z M215.592,64.782c-1.085,0.416-0.206,2.246-2.297,2.814c-2.091,0.568-8.316,1.563-14.594,6.068c-1.538,1.103-1.881,3.298-2.811,7.688c0.839-0.801,3.103-2.828,4.444-5.048c0.232,1.345-0.416,4.176-0.416,4.176s4.685-6.89,4.192-7.202c0.392,2.356-0.812,5.446-0.812,5.446s5.847-7.016,7.341-7.222c-1.286,2.794-1.147,5.459-1.147,5.459s9.571-7.483,10.381-7.938c0.81-0.454,1.594-3.43,0.484-3.898C219.246,64.657,216.677,64.366,215.592,64.782z M223.875,61.322c0.487-1.325,0.801-2.539,2.306-2.567c0-8.357-7.732-19.34-8.851-20.522c-1.438-1.518-3.237-2.024-3.237-2.024s2.437,2.657,2.828,3.956c0.391,1.3-0.731,0.852-0.731,0.852s3.787,3.384,3.831,4.914c-1.055-0.563-1.917-0.165-1.917-0.165s4.194,4.063,4.519,5.461c-0.701,0.615-2.738-0.627-2.738-0.627s3.887,4.727,3.887,5.66c-4.529-4.609-8.54-7.67-10.264-8.398c-1.724-0.728-6.835-1.731-6.835-1.731s3.997,2.405,5.462,2.816c-0.499,0.822-3.813-0.426-3.813-0.426c0.712,0.45,2.324,2.286,5.523,3.624c-3.051-0.342-2.989,0.296-2.989,0.296s7.343,1.759,9.367,3.67c1.372,1.296,3.201,2.789,3.201,2.789s-3.021-1.827-4.566-2.25s-4.189,1.59-6.846,0.795c-2.657-0.795-11.479,0.737-12.814,1.756c4.42-0.831,5.783-0.672,5.783-0.672s-1.06,1.125-2.378,2.102c4.098,0,7.471-1.163,7.471-1.163s-2.484,1.453-4.113,2.835c7.571-0.361,13.194,0.331,16.736,1.68C223.97,64.469,223.389,62.647,223.875,61.322z M230.108,48.392c0.376-0.863-0.194-4.244,1.371-5.981c-0.526,0.187-1.155-0.524-1.314-1.341c-0.17-0.879,0.869-4.2,2.422-5.323c-1.107,0-1.963-0.523-1.042-3.32c-3.469,1.872-3.469,9.299-3.469,9.299s-1.456,10.331,0.547,15.96c0.644-1.072,1.176-0.054,1.402-1.238S227.857,53.552,230.108,48.392z" />
    <path fill="#96C60A" d="M229.118,58.107c0.062,0.53-0.688,0.755-0.956,0c-5.185-14.571,4.602-31.878,4.602-31.878s-1.953,3.918-0.572,4.315c-1.025,0.915-3.219,6.066-4.029,18.087C227.826,53.604,228.938,56.574,229.118,58.107z" />
    <path fill="#96C60A" d="M230.885,55.868c0.075-1.912,0.663-11.469,20.703-10.551c-5.186,0.618-3.77,1.778-3.77,1.778s-5.951,0.94-4.564,2.626c-1.283,0.748-3.428,0.957-4.723,1.987c-1.884,1.498-2.849,3.523-4.236,3.636C232.353,55.501,230.83,57.277,230.885,55.868z" />
    <path fill="#96C60A" d="M231.391,59.654c1.181-1.968,13.737-9.727,26.894,0.731c-4.835-1.181-6.072,0.225-8.602-0.112s-5.96-1.237-10.233,0.169c-4.273,1.406-5.679,3.149-6.747,2.98c-0.561-0.089-0.394-0.937-1.031-1.537C230.934,61.189,230.831,60.588,231.391,59.654z" />
    <path fill="#96C60A" d="M240.462,70.393c0.281-1.124,4.923,1.352,6.522,0.45c2.193-1.237,9.165,5.735,11.301,11.695c-1.968-0.394-2.53-1.462-3.486-1.855c0.056,2.024,1.649,4.685,1.649,4.685c-3.879-3.598-4.535-5.716-6.784-7.909c-2.249-2.193-5.716-3.748-6.897-4.423C241.586,72.361,240.181,71.517,240.462,70.393z" />
    <path fill="#96C60A" d="M234.109,72.698c-0.675,0.112-1.63,0.729-1.63,1.631c0,1.63-0.562,2.137-0.169,3.149c0.394,1.012,6.747,2.643,8.49,8.715c1.743,6.072-0.169,13.887,0.056,15.124c1.068-0.9,1.406-0.45,1.406-0.45s-0.45,1.968-0.787,4.723c5.06-6.859,3.823-15.63,3.149-19.285c-2.137-7.478-4.104-9.783-5.566-11.245C237.688,73.692,234.783,72.586,234.109,72.698z" />
    <path fill="#96C60A" d="M219.078,69.85c1.189-0.086,1.384,0.986,1.705,2.005c0.383,1.213,1.654,1.42,1.11,2.657c-0.544,1.237-7.171,2.842-11.062,11.006c-2.867,6.016-2.137,8.94-2.474,11.582s-1.495,5.052-0.951,8.482c-2.534-3.534-3.996-13.092-1.86-19.502C208.571,77.006,216.473,70.037,219.078,69.85z" />
    <path fill="#96C60A" d="M215.405,63.777c-2.922-0.93-9.839,2.268-13.512,4.817c-3.673,2.549-7.871,7.365-8.827,12.875c1.406-0.9,2.83-3.917,3.973-4.798c0,0,0.356,0.3,0.3,1.274c1.012-1.93,6.025-6.253,8.817-7.696c2.792-1.443,8.969-2.387,9.549-3.174C216.286,66.289,216.229,64.04,215.405,63.777z" />
    <path fill="#96C60A" d="M196.289,57.63c2.905-1.855,9.202-3.392,13.644-3.261c4.442,0.131,7.14,0.693,7.871,1.612c0.731,0.918-0.3,2.343-1.724,2.699c-1.424,0.356-4.104-1.181-7.122-1.424c-3.017-0.244-3.617,1.481-6.072,0.675C200.43,57.124,196.607,58.53,196.289,57.63z" />
    <path fill="#96C60A" d="M205.141,43.761c3.223,0.356,7.21,1.647,10.92,3.692c2.38,1.312,3.498,3.739,4.704,5.266c0.562,0.712-0.131,0.993-0.787,0.337c-4.397-4.397-5.885-3.355-8.134-5.098C210.021,46.547,210.951,46.029,205.141,43.761z" />
    <path fill="#96C60A" d="M225.9,58.905c0.45,0.356,0.642-0.113,0.6-0.975c-0.319-6.428-5.978-17.411-7.422-19.341c-1.443-1.93-2.849-3.655-4.873-4.198c1.968,2.211,1.556,3.842,4.161,6.484c2.605,2.643,4.311,9.09,5.341,11.751C224.738,55.287,225.45,58.548,225.9,58.905z" />
    <path fill="#35500C" d="M223.426,62.971c-0.337,0.45-1.355-1.023-0.187-1.855c0.815-0.581,3.569,0.445,4.011,1.818c0.506,1.574,2.764,0.337,2.68,1.574l2.474,0.787c2.924,0.319,3.373,6.466,2.193,6.916c-0.329,0.125-4.224,0.536-6.278,1.724c-3.054,1.766-4.686,4.309-5.875,2.586c-1.63-2.361-0.002-4.037,0.047-4.91c0.037-0.675-0.741-1.512-0.862-1.949c-0.39-1.409,0.618-4.329-0.225-4.104C220.559,65.783,223.763,62.522,223.426,62.971z" />
    <path fill="#A16B0E" d="M228.043,65.316c0.692-0.964,3.252-2.233,4.934,0.131c1.202,1.69,1.123,3.015-0.255,4.069c-1.84,1.407-4.169,0.88-5.219-0.501C226.452,67.633,227.351,66.28,228.043,65.316z" />
    <path fill="#E4B324" d="M227.826,66.694c0.158-0.945,1.777-2.371,3.426-1.662c1.27,0.546,1.993,2.176,1.486,3.61c-0.491,1.389-2.08,1.252-3.469,0.682S227.657,67.706,227.826,66.694z" />
    <path fill="#A16B0E" d="M222.052,68.791c-1.586-0.441-3.728-2.093-1.965-4.889c1.26-1.998,2.521-2.566,4.366-1.858c2.408,0.923,2.601,4.116,1.279,5.568C224.401,69.073,223.377,69.16,222.052,68.791z" />
    <path fill="#E4B324" d="M223.761,68.433c-1.215,0.434-3.996-1.119-3.707-3.143c0.194-1.355,1.138-2.923,2.838-2.742c1.669,0.178,3.032,1.161,3.032,2.871S225.248,67.902,223.761,68.433z" />
    <path fill="#A16B0E" d="M226.281,72.349c-1.091,0.153-3.538-0.392-3.028-3.038c0.364-1.891,1.239-2.817,2.85-2.798c2.212,0.026,3.164,2.056,2.909,3.647C228.756,71.752,227.372,72.196,226.281,72.349z" />
    <path fill="#E4B324" d="M227.579,71.601c-0.747,0.593-3.629,0.526-3.731-1.024c-0.11-1.663,0.023-2.57,1.233-3.262c1.661-0.95,2.708,0.131,3.469,1.425C229.257,69.942,228.326,71.008,227.579,71.601z" />
    <path fill="#A16B0E" d="M227.698,72.246c-0.192-1.366,1.25-4.621,4.462-3.596c1.762,0.562,3.154,1.382,2.841,3.373c-0.418,2.659-2.471,3.65-4.462,3.331S227.89,73.612,227.698,72.246z" />
    <path fill="#E4B324" d="M228.621,73.578c-0.625-0.921-0.408-3.419,1.547-4.146c1.506-0.56,4.091,0.942,4.129,2.367c0.045,1.712-0.727,2.198-2.352,2.833C230.319,75.266,229.291,74.566,228.621,73.578z" />
    <path fill="#A16B0E" d="M222.034,75.469c-0.17-1.681,0.96-4.436,4.006-4.039c2.397,0.313,3.445,1.63,3.458,3.659c0.017,2.646-3.178,3.879-5.06,3.157C222.544,77.519,222.176,76.874,222.034,75.469z" />
    <path fill="#E4B324" d="M223.127,76.429c-0.868-1-0.314-3.558,1.593-4.433c1.089-0.5,3.474,0.422,3.936,2.116c0.453,1.662-0.616,2.705-2.251,3.344S224.189,77.652,223.127,76.429z" />
  </g>
  <g>
    <path fill="#787C20" d="M149.434,169.007c0,0-1.498,1.071-2.248,2.345c-0.75,1.274,1.124,3.898,6.297,6.522s11.224,2.788,12.294,1.199C168.102,175.626,149.434,169.007,149.434,169.007z" />
    <path fill="#5B6933" d="M164.826,159.653c0,0-0.997,14.061,5.373,17.865c3.231,1.93,9.241-9.462,9.241-9.462L164.826,159.653z" />
    <path fill="#CBBE6C" d="M154.683,165.28c0.375-1.237-4.617,1.354-7.396-0.33c-1.187-0.719-1.655-2.009-2.387-0.982c-0.671,0.944-0.487,2.167-2.036,6.868c-1.507,4.576-3.039,7.401-3.175,6.767c-0.186-0.862,1.69-6.224,2.775-10.983c2.85-12.5,5.81-29.373,9.745-38.148c3.496-7.794,34.735,18.153,32.103,26.554c-2.332,8.025-2.436,8.981-5.228,13.985c-3.54,6.343-5.336,6.746-7.234,5.939c-2.638-1.121-6.167-12.915-6.747-10.12C163.829,170.978,154.308,166.517,154.683,165.28z" />
    <path fill="#F8C52D" d="M153.821,173.005c0.307-1.325-5.92-2.503-4.651-3.874c2.18-2.355,6.264-4.026,6.563-5.012c0.375-1.237-4.61,1.743-7.422,0.112c-3.354-1.945-3.038-3.224-3.036-5.96c0.003-3.375,3.898-21.815,6.934-29.799c3.036-7.984,35.912,13.638,33.28,22.04c-2.386,5.81-3.142,9.011-4.831,13.156c-2.886,7.084-6.283,11.121-7.984,10.308c-0.708-0.338-1.27-0.948-2.268-2.211c-0.843-1.068-1.136-3.305-1.63-4.08c-1.912-3.004-2.692-5.875-3.824-4.653c-1.874,2.024,2.249,14.468,0.825,16.043c-0.653,0.722-5.585-0.063-9.82-1.724c-2.157-0.846-4.185-1.894-5.727-2.916C148.197,173.086,153.624,173.856,153.821,173.005z" />
    <path fill="#E4B324" d="M162.564,163.403c-0.401-1.274-0.591-2.557-0.119-3.88c-1.148-0.716-1.491,0.753-2.45-0.551c-0.677-0.92,0.219-2.136,0.444-2.874c0.463-1.519,3.126-2,3.048-2.78c-0.078-0.781-2.184-3.389-2.851-5.146c0.691-0.03,1.216-0.052,1.655,0.797c0.821,1.586,1.927,3.024,2.915,4.524v-0.007c0.129,0.128,0.258,0.256,0.387,0.384l-0.005-0.006c0.124,0.133,0.248,0.266,0.372,0.399c0.884,1.143,4.629,5.271,4.651,5.389c0.337,2.045-0.099,3.557,2.886,3.658c2.663,0.091,4.256-1.528,4.627-3.773c0.022-0.104,0.054-0.205,0.093-0.304c1.113-0.07,1.082-1.255,1.732-1.786c0.691,0.068,0.919,0.266,0.997,0.638c-2.219,3.867-5.788,11.975-7.056,12.779c-1.268,0.804-2.211-3.14-3.545-3.898c-1.333-0.758-2.138-2.502-2.548-3.079c-0.41-0.577-0.148-3.012-2.324-2.728c-0.655-0.898,0.056-2.111-0.749-3.204c-1.24,1.41-1.545,3.016-1.787,4.647C162.953,162.934,162.873,163.222,162.564,163.403z" />
    <path fill="#96B2BA" d="M188.267,110.93c0.757-0.252,2.402,2.303,3.149,2.021c0.526,1.48,2.019,5.355,0.899,6.824c-1.257,1.649-2.075,8.426-2.174,10.345c-0.347,0.258-4.517,12.571-4.864,12.829c-0.47-0.102-3.587-14.601-4.057-14.703c-0.161-0.51-0.653-9.482-0.813-9.991c0.506,0.151,1.983-2.644,2.623-2.453C182.974,113.317,187.649,111.137,188.267,110.93z" />
    <path fill="#96B2BA" d="M184.89,153.043c0,0-1.295,4.677-1.657,4.047c-0.284-0.494-1.41-6.002-1.274-6.716c0.31-1.627,0.903-3.269,0.836-3.91c-0.078-0.745-0.203-2.022,1.062-2.44c0.63,0.049,0.853,0.451,0.788,1.009c-0.131,1.129,0.899,4.246,1.011,5.338C185.401,151.447,185.208,152.03,184.89,153.043z" />
    <path fill="#577F7C" d="M191.112,114.1c0.689-0.43,2.288,0.517,2.288,0.517s0.416,9.04-0.645,11.647s-3.97,9.411-4.301,13.128c-0.14-0.005-0.179,0.15-0.445,0.022c-0.266-0.128-0.4-1.765-0.745-1.227c-0.346,0.537-0.45,4.744-2.342,5.838c-0.244-1.71,1.033-3.193,0.731-4.911l0.027-0.052c1.212-0.703,1.038-2.032,1.409-3.114c0.016-0.366,0.032-0.732,0.048-1.098c0.958-1.637,0.505-3.585,1.168-5.287c0.114-0.271,0.228-0.541,0.342-0.812C190.553,127.863,192.009,116.06,191.112,114.1z" />
    <path fill="#3D635B" d="M185.306,139.998c1.891-1.094,1.83-3.651,3.12-5.256c0.212,0.428,0.075,0.67,0.271,1.067c-0.044,0.258-0.088,0.517-0.132,0.775c-0.301,0.926-0.725,1.847-0.112,2.809c-0.933,3.66-1.865,7.32-2.798,10.979c-0.362,0.019-0.682-0.048-0.852-0.419C184.922,146.756,184.709,143.146,185.306,139.998z" />
    <path fill="#5B6933" d="M163.184,119.377c0.209,0.44,1.747-0.591,1.91-0.025c0.017,0.755,1.636,2.736,0.688,3.217c-0.948,0.48-8.115-0.246-9.488-0.281c0.855-2.612,1.765-2.649,3.673-2.911C160.6,119.29,162.552,119.464,163.184,119.377z" />
    <path fill="#73939D" d="M184.84,134.425c-0.088-1.123-0.176-2.247-0.264-3.37c0.202-0.01,0.404-0.019,0.606-0.029c0.063-0.069,0.132-0.074,0.205-0.017c0.187,1.247-0.246,2.694,1.144,3.554c0.302,1.718-0.976,3.201-0.731,4.911c-0.597,3.148-0.829,6.333-0.947,9.529c-0.202,0.008-0.403,0.016-0.604,0.022c-0.112-1.092-0.56-2.136-0.428-3.265c0.065-0.558-0.158-0.96-0.789-1.009c0.018-0.638,0.035-1.275,0.053-1.913c0.733,0.023,0.441-0.476,0.426-0.835c1.21-1.209,0.939-2.913,1.355-4.37C185.139,136.672,185.869,135.471,184.84,134.425z" />
    <path fill="#CBBE6C" d="M182.248,161.548c-0.189-0.01-0.377-0.019-0.566-0.029c-0.078-0.372,0.188-0.92-0.503-0.988c-0.65,0.531-0.619,1.716-1.732,1.786c-0.101-0.886-0.336-2.752-0.607-3.691c0.01-0.101,1.351,1.152,1.352,1.051c0.472-0.074,0.051-0.91,0.055-1.398c1.46-1.759,2.09-3.601,3.308-5.466c0.144-0.092,0.222-0.274,0.432-0.274c0.21,0-0.413,1.742,0.327,2.488C183.831,157.266,183.228,159.467,182.248,161.548z" />
    <path fill="#B2BDC8" d="M182.383,143.878c-0.133-2.264,0.867-5.149,0.734-7.413c0.797,0.22,0.472-2.302,1.102-2.445c1.028,1.046,0.926,3.905,0.651,4.867c-0.295,1.035-0.329,2.303-1.102,3.529c-0.078,0.123-0.905,3.455-0.542,5.524c0.375,2.139-0.905,5.993-1.021,6.117c-0.043,0.046-2.997,3.613-3.731,2.641c-0.761-1.008,0.7-6.571,0.74-7.252C179.343,147.275,182.578,143.733,182.383,143.878z" />
    <path fill="#657A87" d="M182.664,142.753c-0.133-0.124-2.08,7.928-3.092,5.622c-1.012-2.305-2.558-18.347-3.373-24.345c4.217-0.731,7.574-3.844,8.49-0.281c0.133,2.264,1.034,4.717,1.167,6.981c0.01,0.226-0.942,3.559-2.598,5.695C184.238,138.312,182.642,141.894,182.664,142.753z" />
    <path fill="#E4B324" d="M160.337,175.246c0.329,0.547,1.737,0.614,2.255,0.604c0.317,0.687-0.153,1.116,0.535,1.428c-0.968,0.074-3.627-0.591-3.829-0.589c-0.817-1.885-3.979-1.575-4.126-4.12c-0.075-1.287,2.777-5.792-0.872-5.429c0.308-0.451,0.419-0.79,0.926-1.352c0.507-0.563,0.885-0.375,1.326-0.563c1.767,1.893,0.7,5.821,1.242,6.991C158.337,173.384,159.825,174.397,160.337,175.246z" />
    <path fill="#BDA742" d="M159.551,176.365c-1.958-0.428-2.254-0.274-4.081-1.092c-0.561-0.251-1.649-0.585-2.624-0.772c-1.687-0.558-3.983-1.613-4.718-3.306l-0.037-0.13c0,0,0.133-0.027,0.132-0.028c1.654,0.187,2.453,2.252,4.344,2.089c-0.079-1.946-3.274-1.694-3.43-3.266c0.107-0.129,0.125-0.303,0.432-0.418c0.52-0.196,2.32-1.095,3.054-1.612s1.931-1.014,1.931-1.014c3.649-0.362,0.798,4.142,0.872,5.429C155.572,174.789,158.733,174.48,159.551,176.365z" />
    <path fill="#F1D750" d="M162.423,164.09c-0.9,0.843-1.828,2.418-1.69,4.059c0.134,1.591-0.273,3.287-0.139,4.273c0.319,2.346,1.495,3.682,1.463,4.093c-0.073,0.928-8.607-2.704-9.389-2.39c-0.782,0.314,0.664,1.788,5.594,3.43c4.93,1.641,6.043,1.446,6.507,0.183c0.525-1.43-0.125-4.521-1.037-7.803C162.984,167.248,163.523,163.059,162.423,164.09z" />
    <path fill="#E5E2E7" d="M155.328,127.61c-0.366-0.683,1.046-6.076,1.627-6.124c1.803,0.103,3.276-0.726,5.109-0.082c0.874,0.307,1.718,0.214,2.582,0.046c-0.125,0.591,1.407,2.342,1.282,2.933C163.527,124.431,157.729,127.563,155.328,127.61z M174.886,112.205c0.125-0.591,1.374-2.201,1.499-2.792c-0.863,0.168-3.661,0.232-4.535-0.075c-1.832-0.644-4.837,0.647-6.64,0.543c-0.155,0.573-0.166,2.022,0.043,2.511C167.654,112.345,172.485,112.252,174.886,112.205z" />
    <path fill="#889085" d="M181.033,117.115c-0.502-0.813,0-6.466-7.008-5.521c-2.401,0.047-4.162,0-7.202,0.142c-3.04,0.142-5.021,0.544-5.013,1.002c0.009,0.459-0.14,1.73,0.715,2.24c0.336-0.102,1.106,0.271,1.923,0.693c-0.104,0.074-0.208,0.163-0.31,0.282c0.209,0.44,0.896,0.167,1.059,0.734c0.017,0.755-1.196-0.005-1.114,0.847c0.823,0.319,1.666,0.204,2.387-0.175c1.026-0.539,3.455-0.416,5.336-0.313c-1.78,1.037-3.882,2.467-4.606,2.597c-1.04,0.544-2.097,0.476-3.118,0.29c-0.6-0.109-1.717,0.031-1.557,0.396c0.16,0.365,1.243,0.096,1.475,0.361c0.232,0.265-0.153,0.537-0.253,0.885c0.271,0.192,0.205,0.822,0.476,1.014c0.253,0.024,0.865-0.268,1.213-0.272c-0.272,0.75-0.463,1.565-1.317,1.521c-0.486,0.057-1.037-0.011-1.224,0.628c0.553,0.477,0.661,1.015,0.621,1.756c0.279,0.074,0.744,0.205,1.024,0.279c0.217,0.009,1.094,0.231,1.311,0.241c2.139,0.979-1.192,23.232,3.643,31.162l8.591-1.996c1.266-1.687,0.868-9.131,0.868-9.131s-1.061-7.72-1.406-10.81c-0.384-3.443-1.827-6.644-2.211-10.008c-0.176-1.535,3.267-2.801,4.185-3.926C179.7,121.816,180.232,117.532,181.033,117.115z" />
    <path fill="#B7BEB0" d="M174.576,110.011c-0.863,0.168-1.708,0.261-2.582-0.046c-1.832-0.644-3.541,0.533-5.344,0.43c-0.814,0.251-1.816,0.61-1.715-0.84c2.685-0.799,6.145-2.255,8.901-1.661C174.418,108.02,174.568,109.017,174.576,110.011z" />
    <path fill="#D7D5BF" d="M165.306,108.718c1.323-1.269,2.673-2.488,4.658-2.547c0.216,0.314,0.497,0.267,0.828,0.204c3.149-0.595,6.181-0.336,9.011,1.297c-1.178,2.294-1.255,4.998-2.689,7.197c-3.315,0.351-6.518,1.454-9.928,1.291c-0.971-0.047-2.028-1.139-3.007-0.007c-0.632,0.087-1.265,0.174-1.897,0.261c-0.043-0.633-0.548-1.174-0.369-1.852c4.517-1.367,8.278-1.809,14.15-1.976c-0.722-0.978-1.58-0.599-1.997-0.793c-0.417-0.194,0.494-1.071,0.376-1.773c-0.118-0.702-1.575-1.411-2.642-1.415c-1.067-0.004-4.18,0.149-6.865,0.949v0.001c-0.007-0.134-0.014-0.268-0.02-0.402c0,0,0.001,0.013,0.001,0.013C165.046,109.017,165.176,108.868,165.306,108.718z" />
    <path fill="#3D635B" d="M181.033,105.491c-1.907,0.492-0.608,1.536-0.361,2.375c-0.123,0.074-1.022,0.171-1.145,0.245c-2.83-1.634-5.662-1.487-8.811-0.892c-0.331,0.063-1.401-0.629-1.617-0.943c3.315-1.753,8.222-1.586,11.734-2.328C181.539,104.267,180.875,105.163,181.033,105.491z" />
    <path fill="#889085" d="M180.408,105.627c-0.158-0.328,0.452-1.206-0.255-1.524c2.412-1.126,5.668-1.198,7.52-3.504c1.359,2.018-0.463,2.969-2.759,4.028C183.057,103.867,182.175,105.849,180.408,105.627z" />
    <path fill="#B7BEB0" d="M188.661,105.064c-0.281-0.943,0.597-5.041,1.78-6.916c0.71-1.125,2.057-0.222,1.856-0.793c1.321,1.243,0.518,3.892,0.185,5.321C192.126,102.72,192.315,105.064,188.661,105.064z" />
    <path fill="#BDA742" d="M165.431,153.043c-1.27-0.466-0.998-2.516-1.954-3.16c-0.273-2.07-0.671-4.113-1.355-6.092c-0.037-0.242-0.075-0.483-0.112-0.725c-0.654-1.072-0.54-1.903-1.02-3.294c-0.024-0.215-0.211-1.319-0.235-1.534c-0.102-0.908-0.215-1.662,0.142-2.829c0.004-0.744,0.009-1.487,0.013-2.231c-0.011-0.257-0.021-0.514-0.031-0.771c-0.04-0.378-0.079-0.755-0.118-1.133c-0.001-0.128-0.003-0.255-0.005-0.383c0.074-0.288,0.392-1.121,0.825-1.378c0.905,1.601,0.736,2.007,1.084,3.683c0.016,0.384,0.087,3.211,0.102,3.595c0.392,4.739,1.33,8.62,2.497,13.216c0.075,0.158,0.44,0.826,0.515,0.984C165.802,151.629,165.406,152.404,165.431,153.043z" />
    <path fill="#726024" d="M162.328,143.924c0.684,1.979,1.115,4.405,1.388,6.475c-0.905,0.134-1.514-0.148-1.771-0.915c-1.198-3.576-2.189-9.032-2.198-12.824C160.831,139.363,161.196,144.522,162.328,143.924z" />
    <path fill="#3D635B" d="M193.28,108.467c-1.55-0.11-1.318-0.908-1.585-1.653c-0.285-1.043,0.545-2.016,0.196-3.063c0.028-0.378-0.062-0.945,0.085-1.134s0.338,0.041,0.507,0.062C192.959,104.544,193.313,106.536,193.28,108.467z" />
    <path fill="#D7D5BF" d="M189.34,106.39c-1.427-0.132-3.313-0.584-4.104-1.968c2.296-1.059,3.023-2.015,2.436-3.824c0.593-0.954,1.138-1.942,1.793-2.852c0.773-1.074,1.729-1.418,2.832-0.39c0.538,1.521-0.62,3.543-0.604,4.251c0.016,0.707-0.216,1.003-0.483,1.171s-0.38,0.778-0.449,1.369c-0.108,0.03-0.218,0.05-0.33,0.061c-0.701-0.725-1.37-1.297-1.566,0.335c-0.25,0.212-0.758,0.149-0.739,0.677C188.662,105.236,189.158,105.967,189.34,106.39z M191.196,97.837c-0.008,0.738-0.296,1.271,0.481,1.609C191.792,98.879,191.594,98.46,191.196,97.837z" />
    <path fill="#889085" d="M191.891,103.751c0.349,1.047-0.343,2.28-0.057,3.323c-0.992,0.129-1.834-0.225-2.62-0.753c-0.182-0.423-2.464-0.262-1.998-0.676c0.522-0.463,0.922-1.025,1.648-1.101c0.715-0.075,1.336-0.171,1.566-0.335C191.137,103.706,191.514,103.883,191.891,103.751z" />
    <path fill="#142320" d="M193.28,108.467c0.425,2.253,0.463,4.448,0.142,6.723c-0.57-0.859-1.19-0.54-1.879-0.11c-0.239,0.057-0.231,0.247-0.718,0.171c-0.487-0.075-0.733-0.307-1.446-0.817c-0.713-0.51-0.864-1.614-2.008-1.409c-1.288-1.332-2.841-2.363-3.975-3.902c-0.7-0.95-1.796-1.801-3.224-1.671c-0.247-0.839-1.529-1.846,0.378-2.338c1.768,0.222,3.256-1.655,5.112-0.896c0.791,1.384,2.086,1.747,3.513,1.879c0.785,0.528,1.606,0.945,2.598,0.816C192.04,107.66,192.505,108.214,193.28,108.467z" />
    <path fill="#E5E2E7" d="M183.109,153.533c-1.218,1.865-1.025,5.35-3.26,7.245c-2.234,1.895-6.141,5.612-8.01,4.95s-2.002-4.024-1.906-4.925c0.096-0.9,0.337-4.237-0.721-6.088c0.857-0.534-0.324-5.063-1.209-7.64c-0.703-6.849-0.341-13.839-2.73-20.463c1.101-3.753,2.726,0.85,2.929,1.687c0.698,2.88,0.968,5.856,1.24,8.802c0.583,6.316,0.798,12.939,2.619,19.057c1.278-1.11-0.425-5.114-0.648-6.675c-0.449-3.149-0.666-6.328-0.923-9.496c-0.259-3.198-0.31-6.512-0.931-9.669c-0.237-1.205-2.024-4.544-0.942-5.43c2.804-2.299,3.749,10.413,3.889,11.633c0.3,2.62,0.402,18.033,2.856,18.346c-2.004-10.238-0.992-20.762-4.363-30.678c2.443-0.997,3.012,2.344,3.709,7.292c1.255,8.915,1.454,22.625,3.345,22.587c1.266-1.687-0.219-7.108-0.437-9.104c-0.337-3.09-0.768-6.169-1.113-9.259c-0.384-3.443-1.579-6.831-1.963-10.195c-0.176-1.535-0.632-1.399,0.286-2.525c1.235-0.76,5.361-1.448,3.838-1.779c-1.523-0.331-13.067,3.172-14.461,2.714c-1.394-0.458-0.595-0.951,0.402-1.548s3.928-1.21,5.615-1.637c2.717-0.688,8.621-2.294,7.687-2.567c-0.934-0.272-10.012,2.098-10.651,1.908c-0.639-0.19,0.13-1.679,1.372-2.023c0.823-0.228,1.193-0.91,2.464-1.333c1.271-0.424,3.516-0.323,4.924-0.81c1.407-0.488,1.793,0.301,2.154-0.85c-0.267-0.433-0.376-0.025-1.011-0.309s1.511-4.903,2.689-7.197c0.123-0.074,0.246-0.147,0.369-0.221c1.429-0.13,2.524,0.721,3.224,1.671c1.134,1.539,3.537,3.207,3.975,4.008c0.438,0.801,0.504,1.554,0.504,2.207s-0.689,0.579-1.613,0.695c-1.42,0.832-0.242,2.201-1.128,3.17c-0.886,0.969-1.364,0.848-0.966,2.115c1.068-0.34,1.262-1.312,1.734-1.796s1.528-1.648,1.858-1.17c0.33,0.478-0.838,5.177-0.845,6.032c-0.006,0.855,0.295,1.162,0.482,1.529c0.187,0.367,0.638,0.829,0.075,1.54c-0.563,0.711-0.881,2.72-0.915,3.387c-0.034,0.667-1.053,2.287-1.229,1.506c-0.176-0.781-1.005-6.527-1.818-8.082c-0.813-1.555,0.291,5.242,0.869,7.582c0.088,1.123,0.364,2.616,0.252,3.543c-0.111,0.927-0.577,1.363-1.374,1.143c-0.916-3.563-2.268-12.529-2.58-10.749c-0.312,1.78,2.064,16.931,2.154,18.004c0.09,1.073-0.363,2.849-1.297,2.218c-0.934-0.631-0.864-2.796-1.006-3.846c-0.613-4.527-1.048-9.08-1.938-13.568c-0.115-1.397-1.452-4.454-1.522-3.809c-0.07,0.644,0.61,2.541,0.915,3.811c0.827,7.349,2.004,14.658,2.584,22.036c-1.753,1.761-1.6,3.364,0.486,4.156C181.467,153.684,181.795,152.624,183.109,153.533z" />
    <path fill="#142320" d="M148.861,154.89c-0.069-0.557,0.097,0.829,0.025,1.863c-0.072,1.034-0.799,1.958-1.181,3.314c0,0-0.013-0.003-0.013-0.003c-1.779,2.013-3.167-6.366,0.405-6.792C148.844,153.575,148.93,155.447,148.861,154.89z" />
    <path fill="#BDA742" d="M151.726,134.625c-0.152-0.131-1.077-1.555-1.23-1.686c1.48-6.271,4.625-11.118,8.076-16.524c0.24-0.014,0.831,0.389,1.071,0.376c0.139,0.041,0.277,0.082,0.415,0.123c-0.143,0.704-0.994,1.128-0.783,1.972c-0.071,0.693-0.688,0.974-1.089,1.409c-0.566,0.613-1.134,1.177-1.309,1.697c-0.175,0.52,0.355,0.948,0.917,1.204c-0.028,0.242-0.055,0.485-0.083,0.727c0,0-0.005,0.006-0.005,0.006c-1.48,0.218-1.413,1.451-1.918,2.807c1.061-0.445,1.563-0.957,1.998-1.563c0.243-0.046,0.485-0.091,0.728-0.137c0.683,0.155,1.364,0.292,1.946-0.274c0.244-0.025,0.487-0.049,0.731-0.074c0.544,0.465-0.056-0.045,0.454,0.016c0.119-0.005,1.983-0.122,1.865,1.452c-0.058,0.231-0.331-0.232-0.984-0.328c-0.653-0.096-0.495-0.318-1.031,0.281c-0.138,0.122,0.88,2.165,0.88,2.165c-1.827,0.308-5.968,1.406-7.627,3.177C153.09,133.223,152.7,134.308,151.726,134.625z" />
    <path fill="#D7D5BF" d="M163.185,117.312c0.823,0.319,1.467,0.3,2.187-0.079c1.45-0.763,3.719-0.296,5.261-0.341c-0.478,1.051-2.155,1.114-2.861,1.595c-0.696,0.475-0.696,1.284-0.696,1.284c-1.04,0.544-2.562,0.242-3.584,0.056c-0.6-0.109-1.535-0.608-1.865,0.279c-1.732-0.144-4.352-0.398-5.817,0.705c0,0,0.654-1.279,1.198-1.936C157.38,118.51,161.832,117.634,163.185,117.312z" />
    <path fill="#5B6933" d="M164.313,115.966c0.209,0.44,0.965-0.117,1.128,0.449c0.017,0.755-0.409,0.639-1.357,1.119s-4.573,1.528-5.945,1.493c0.855-2.612,2.369-2.537,4.278-2.799C163.048,116.141,163.68,116.053,164.313,115.966z" />
    <path fill="#D7D5BF" d="M166.823,111.736c-2.882,0.319-3.64,0.586-4.916,0.826c-0.137-0.282,0.547-0.97,1.116-1.787c0.569-0.818,1.505-1.683,2.072-1.813c0.402,0.601-0.449,0.92,1.555,1.434C166.494,110.967,166.614,111.247,166.823,111.736z" />
    <path fill="#B7BEB0" d="M161.936,112.484c0.31,0.53,0.01,1.195,0.164,2.023s0.417,1.427,0.182,1.908c-0.235,0.481-1.513-0.115-2.145,0.662c-0.632,0.778-1.087,0.45-1.999,1.949c-0.24,0.013-1.011,0.025-1.25,0.039C158.437,116.058,159.715,114.188,161.936,112.484z" />
    <path fill="#555329" d="M165.212,152.707c-0.025-0.639-0.03-1.223-0.3-2.39c-0.269-1.167-2.186-9.219-2.578-13.958c0.361,0.079,0.722,0.159,1.092,0.241c0.499-0.941-1.021-2.31,0.683-2.91c0,0,0,0,0,0c0.351,5.403,1.767,13.708,2.388,15.996s0.312,4.953,0.741,5.769c0.429,0.816-0.004,1.257-1.228,0.336C164.786,154.869,165.478,153.735,165.212,152.707z" />
    <path fill="#DBD195" d="M164.11,133.69c0.333-0.053,0.825-0.234,1.155-0.213c0.685,2.617,0.285,5.357,0.964,7.989c0.449,1.739,0.625,3.549,0.923,5.327c0.001,0.908-0.029,1.82,0.293,2.693c-0.316-0.007-0.662,0.088-0.979,0.082C165.069,144.308,164.232,139.436,164.11,133.69z M157.534,123.278c-0.264,0.266,0.173,0.652,0.173,0.652c0.254-0.083,1.602,0.199,1.856,0.116c1.391-0.86,3.276-0.198,4.041-0.746c0.229-0.164,0.699-0.515,0.619-0.71c-0.132-0.322-0.235-0.814-0.473-1.091c-0.34-0.395-3.3-0.244-4.554,1.17C158.95,123.788,157.963,122.518,157.534,123.278z" />
    <path fill="#D7D5BF" d="M164.539,126.503c-0.333,1.773,0.826,2.953,0.878,4.696c0.02,0.664,0.235,1.596,0.169,2.291c-0.329-0.02-0.814,0.167-1.143,0.147c0,0-0.333,0.053-0.333,0.053c-0.005-1.898-0.664-3.636-1.111-5.457c-0.185-0.754-0.328-1.567,0.684-1.965C163.962,126.342,164.26,126.428,164.539,126.503z M166.593,150.381c0.023,0.148,0.08,0.395,0.103,0.544c0.174,1.509,0.131,3.767,0.422,4.479c0.29,0.712,1.527,3.017,2.942,3.689c0.366-1.759-0.366-3.365-0.65-4.053c-0.615-3.778-1.807-3.747-1.965-5.555c-0.316-0.007-0.662,0.088-0.979,0.082C166.515,149.833,166.543,150.115,166.593,150.381z" />
    <path fill="#555329" d="M158.403,129.123c0.138-0.122,0.277-0.244,0.415-0.366c0.495-0.003,0.99-0.007,1.485-0.01c0.139,0.765,2.017,1.435,2.452,2.763c0.317,0.969,0.469,3.109-0.468,3.696c-0.348-1.676-0.051-3.485-0.956-5.086c-0.434,0.257-0.401,1.198-0.365,1.286c0.04,0.378,0.142,3.392,0.137,4.135c0.093,0.909-0.367,1.887,0.341,2.719c0.024,0.215,0.049,0.43,0.073,0.646c-0.18,1.498,0.072,2.926,0.698,4.293c0.037,0.242,0.075,0.483,0.112,0.725c-1.133,0.598,0.128,1.658-0.629,2.926c-0.48-3.364-1.57-8.173-1.744-8.974c-0.174-0.801-0.041-1.265-0.061-1.897c0.439-0.287,0.281-0.578,0.063-0.938c-0.564-0.931-0.764-1.944-0.542-3.025c0.119-0.523-0.189-0.651-0.618-0.665c-0.445-0.65-1.556,0.093-1.854-0.854C157.012,129.567,158.494,130.192,158.403,129.123z" />
    <path fill="#5B6933" d="M162.287,135.206c0.936-0.587,0.784-2.727,0.467-3.696c-0.435-1.328-2.312-1.999-2.452-2.764c0.112-0.081,0.225-0.163,0.337-0.244c0.182-0.05,0.363-0.1,0.544-0.15c0.233-0.037,0.515-0.056,0.508-0.362c-0.002-0.113-0.217-0.221-0.335-0.332c-0.105-0.207-0.209-0.415-0.313-0.621c-0.069-0.466-0.26-0.874-0.798-0.82c-0.515,0.052-0.485,0.417-1.366,0.585c-0.881,0.169-1.21,0.399-1.574,0.59c-0.364,0.19-0.927,0.21-1.169,0.256c-0.027-0.415-0.053-0.829-0.08-1.244c0,0,0.005-0.006,0.006-0.006c0.396,0.006,0.199-0.203,0.843-0.978c0.644-0.774,2.836-0.635,3.695-0.906c1.447-0.456,1.828-0.24,2.274-0.064s0.847,1.072,0.807,1.814c-1.013,0.399-0.712,1.134-0.526,1.888c0.448,1.821,0.948,3.636,0.953,5.534c-1.704,0.6-0.184,1.969-0.683,2.91c-0.37-0.082-0.731-0.161-1.091-0.241C162.319,135.975,162.303,135.591,162.287,135.206z" />
    <path fill="#726024" d="M158.403,129.123c0.091,1.069-1.39,0.444-1.46,1.374c0.297,0.947,1.409,0.204,1.854,0.854c-0.932,0.657-2.196,0.428-3.101,1.159c-0.241,0.138-0.482,0.276-0.723,0.414c-0.417-0.045-0.869,0.015-1.169-0.385C154.692,130.535,155.826,128.859,158.403,129.123z M154.139,129.214c1.061-0.445,1.563-0.957,1.998-1.563c-0.027-0.415-0.053-0.829-0.08-1.244C154.577,126.625,154.644,127.858,154.139,129.214z M156.612,133.398c-0.14,0.136-0.28,0.273-0.42,0.409c-0.129,0.104-0.258,0.208-0.387,0.311c-0.254,0.131-0.507,0.261-0.761,0.392c-0.037,0.309-0.114,0.589-0.489,0.641c0,0-0.03,0.017-0.03,0.017c0.313,0.389,0.97,0.573,0.763,1.275c0.265-0.047,0.531-0.096,0.798-0.144c0.144-0.095,0.288-0.19,0.433-0.285c0.924,0.061,1.075,0.491,0.456,1.12c-0.339,0.344-0.738,0.613-0.859,1.114c0.855,1.992,1.832,3.938,2.299,6.076l0.004,0.007c0.381,0.477,0.403,0.704,0.391,1.13l0.006-0.006c2.015,0.917,0.375-8.365,0.06-9.979c0.656-0.226,0.675,0.405,1.02,0.503c0.439-0.287,0.281-0.578,0.063-0.938c-0.564-0.931-0.764-1.944-0.542-3.025C158.598,132.715,157.615,133.077,156.612,133.398z" />
    <path fill="#5B6933" d="M164.521,126.491c0.217,0.009,0.434,0.019,0.651,0.029c2.389,6.624,2.443,13.253,2.789,20.57c-0.25,0.01-0.558-0.086-0.808-0.075c-0.298-1.778-0.475-3.587-0.923-5.327c-0.679-2.632-0.279-5.372-0.964-7.989c0.066-0.695-0.178-1.373-0.198-2.036C165.016,129.918,164.188,128.264,164.521,126.491z" />
    <path fill="#BD9331" d="M158.814,145.455c2.015,0.917,0.375-8.365,0.06-9.979c0.656-0.226,0.675,0.405,1.02,0.503c0.02,0.632,0.041,1.265,0.061,1.897c0.008,3.792,0.775,7.452,1.974,11.028c0.257,0.767,0.85,1.246,1.755,1.112c0.956,0.644,0.259,2.226,1.529,2.691c0.266,1.028,0.532,2.056,0.798,3.084c-0.001,0.497,1.139,2.245-0.002,1.491s-2.094-2.938-2.915-4.524c-0.439-0.849-1.149-0.797-1.711-1.262s-1.205-1.098-1.104-2.197C160.079,147.908,158.732,146.954,158.814,145.455z" />
    <path fill="#E4B324" d="M158.814,145.455c-0.082,1.498,1.265,2.453,1.465,3.844c-1.599-0.383-3.761-5.468-5.277-5.478c-1.516-0.01-2.39-3.12-1.167-4.049c0.019,0.213,3.606,3.838,4.579,4.551c0.542,0.397,0.451,0.893,0.394,1.138L158.814,145.455z" />
    <path fill="#BD9331" d="M158.414,144.324c-1.543-0.84-4.56-4.339-4.579-4.551c0.584-0.77,1.107-1.634,2.28-1.525C156.969,140.24,157.947,142.185,158.414,144.324z M153.451,135.594c0,0,0.007-0.009,0.007-0.009c0.094,0.887-1.086,1.565-0.49,2.569c1.237-0.397,1.237-0.397,2.32-1.712c0.208-0.702-0.449-0.886-0.764-1.275C154.167,135.309,153.809,135.452,153.451,135.594z" />
    <path fill="#787C20" d="M302.368,169.007c0,0,1.498,1.071,2.248,2.345c0.75,1.274-1.124,3.898-6.297,6.522s-11.224,2.788-12.294,1.199C283.701,175.626,302.368,169.007,302.368,169.007z" />
    <path fill="#5B6933" d="M286.977,159.653c0,0,0.997,14.061-5.373,17.865c-3.231,1.93-9.241-9.462-9.241-9.462L286.977,159.653z" />
    <path fill="#CBBE6C" d="M297.12,165.28c-0.375-1.237,4.617,1.354,7.396-0.33c1.187-0.719,1.655-2.009,2.387-0.982c0.671,0.944,0.487,2.167,2.036,6.868c1.507,4.576,3.039,7.401,3.175,6.767c0.186-0.862-1.69-6.224-2.775-10.983c-2.85-12.5-5.81-29.373-9.745-38.148c-3.496-7.794-34.735,18.153-32.103,26.554c2.332,8.025,2.436,8.981,5.228,13.985c3.54,6.343,5.336,6.746,7.234,5.939c2.638-1.121,6.167-12.915,6.747-10.12C287.974,170.978,297.494,166.517,297.12,165.28z" />
    <path fill="#F8C52D" d="M297.982,173.005c-0.307-1.325,5.92-2.503,4.651-3.874c-2.18-2.355-6.264-4.026-6.563-5.012c-0.375-1.237,4.61,1.743,7.422,0.112c3.354-1.945,3.038-3.224,3.036-5.96c-0.003-3.375-3.898-21.815-6.934-29.799c-3.036-7.984-35.912,13.638-33.28,22.04c2.386,5.81,3.142,9.011,4.831,13.156c2.886,7.084,6.282,11.121,7.984,10.308c0.708-0.338,1.27-0.948,2.268-2.211c0.843-1.068,1.136-3.305,1.63-4.08c1.912-3.004,2.692-5.875,3.824-4.653c1.874,2.024-2.249,14.468-0.825,16.043c0.653,0.722,5.585-0.063,9.82-1.724c2.157-0.846,4.185-1.894,5.727-2.916C303.605,173.086,298.179,173.856,297.982,173.005z" />
    <path fill="#E4B324" d="M289.238,163.403c0.401-1.274,0.591-2.557,0.119-3.88c1.148-0.716,1.491,0.753,2.45-0.551c0.677-0.92-0.219-2.136-0.444-2.874c-0.463-1.519-3.126-2-3.048-2.78c0.078-0.781,2.184-3.389,2.851-5.146c-0.692-0.03-1.216-0.052-1.655,0.797c-0.821,1.586-1.927,3.024-2.915,4.524v-0.007c-0.129,0.128-0.258,0.256-0.387,0.384l0.005-0.006c-0.124,0.133-0.248,0.266-0.372,0.399c-0.884,1.143-4.629,5.271-4.651,5.389c-0.337,2.045,0.099,3.557-2.886,3.658c-2.663,0.091-4.256-1.528-4.627-3.773c-0.022-0.104-0.054-0.205-0.093-0.304c-1.113-0.07-1.082-1.255-1.732-1.786c-0.691,0.068-0.919,0.266-0.997,0.638c2.219,3.867,5.788,11.975,7.056,12.779c1.268,0.804,2.211-3.14,3.545-3.898c1.333-0.758,2.138-2.502,2.548-3.079c0.41-0.577,0.148-3.012,2.324-2.728c0.655-0.898-0.056-2.111,0.749-3.204c1.24,1.41,1.545,3.016,1.787,4.647C288.85,162.934,288.93,163.222,289.238,163.403z" />
    <path fill="#96B2BA" d="M263.535,110.93c-0.757-0.252-2.402,2.303-3.149,2.021c-0.526,1.48-2.019,5.355-0.899,6.824c1.257,1.649,2.075,8.426,2.174,10.345c0.347,0.258,4.517,12.571,4.864,12.829c0.47-0.102,3.587-14.601,4.057-14.703c0.161-0.51,0.653-9.482,0.813-9.991c-0.506,0.151-1.983-2.644-2.623-2.453C268.829,113.317,264.154,111.137,263.535,110.93z" />
    <path fill="#96B2BA" d="M266.912,153.043c0,0,1.295,4.677,1.657,4.047c0.284-0.494,1.41-6.002,1.274-6.716c-0.31-1.627-0.903-3.269-0.836-3.91c0.078-0.745,0.204-2.022-1.062-2.44c-0.63,0.049-0.853,0.451-0.788,1.009c0.131,1.129-0.9,4.246-1.011,5.338C266.402,151.447,266.595,152.03,266.912,153.043z" />
    <path fill="#577F7C" d="M260.691,114.1c-0.689-0.43-2.288,0.517-2.288,0.517s-0.416,9.04,0.645,11.647c1.06,2.607,3.97,9.411,4.301,13.128c0.14-0.005,0.179,0.15,0.445,0.022s0.4-1.765,0.745-1.227c0.346,0.537,0.45,4.744,2.342,5.838c0.244-1.71-1.033-3.193-0.731-4.911l-0.027-0.052c-1.212-0.703-1.038-2.032-1.409-3.114c-0.016-0.366-0.032-0.732-0.048-1.098c-0.958-1.637-0.505-3.585-1.168-5.287c-0.114-0.271-0.228-0.541-0.342-0.812C261.25,127.863,259.794,116.06,260.691,114.1z" />
    <path fill="#3D635B" d="M266.496,139.998c-1.891-1.094-1.83-3.651-3.12-5.256c-0.212,0.428-0.075,0.67-0.271,1.067c0.044,0.258,0.088,0.517,0.132,0.775c0.301,0.926,0.725,1.847,0.112,2.809c0.933,3.66,1.865,7.32,2.798,10.979c0.362,0.019,0.682-0.048,0.852-0.419C266.88,146.756,267.094,143.146,266.496,139.998z" />
    <path fill="#5B6933" d="M288.618,119.377c-0.209,0.44-1.747-0.591-1.91-0.025c-0.017,0.755-1.636,2.736-0.688,3.217s8.115-0.246,9.488-0.281c-0.855-2.612-1.765-2.649-3.673-2.911C291.202,119.29,289.251,119.464,288.618,119.377z" />
    <path fill="#73939D" d="M266.963,134.425c0.088-1.123,0.176-2.247,0.264-3.37c-0.202-0.01-0.404-0.019-0.606-0.029c-0.063-0.069-0.132-0.074-0.205-0.017c-0.187,1.247,0.246,2.694-1.144,3.554c-0.302,1.718,0.975,3.201,0.731,4.911c0.597,3.148,0.829,6.333,0.947,9.529c0.202,0.008,0.403,0.016,0.604,0.022c0.112-1.092,0.56-2.136,0.428-3.265c-0.065-0.558,0.158-0.96,0.789-1.009c-0.018-0.638-0.035-1.275-0.053-1.913c-0.733,0.023-0.441-0.476-0.426-0.835c-1.21-1.209-0.939-2.913-1.355-4.37C266.664,136.672,265.933,135.471,266.963,134.425z" />
    <path fill="#CBBE6C" d="M269.555,161.548c0.189-0.01,0.377-0.019,0.566-0.029c0.078-0.372-0.188-0.92,0.503-0.988c0.65,0.531,0.619,1.716,1.732,1.786c0.101-0.886,0.336-2.752,0.607-3.691c-0.01-0.101-1.351,1.152-1.352,1.051c-0.472-0.074-0.051-0.91-0.055-1.398c-1.46-1.759-2.09-3.601-3.308-5.466c-0.144-0.092-0.222-0.274-0.432-0.274s0.413,1.742-0.327,2.488C267.971,157.266,268.574,159.467,269.555,161.548z" />
    <path fill="#B2BDC8" d="M269.42,143.878c0.133-2.264-0.867-5.149-0.734-7.413c-0.797,0.22-0.472-2.302-1.102-2.445c-1.028,1.046-0.926,3.905-0.651,4.867c0.295,1.035,0.329,2.303,1.102,3.529c0.078,0.123,0.905,3.455,0.542,5.524c-0.375,2.139,0.905,5.993,1.021,6.117c0.043,0.046,2.997,3.613,3.731,2.641c0.761-1.008-0.7-6.571-0.74-7.252C272.46,147.275,269.225,143.733,269.42,143.878z" />
    <path fill="#657A87" d="M269.139,142.753c0.133-0.124,2.08,7.928,3.092,5.622c1.012-2.305,2.558-18.347,3.373-24.345c-4.217-0.731-7.574-3.844-8.49-0.281c-0.133,2.264-1.034,4.717-1.167,6.981c-0.01,0.226,0.942,3.559,2.598,5.695C267.565,138.312,269.16,141.894,269.139,142.753z" />
    <path fill="#E4B324" d="M291.466,175.246c-0.329,0.547-1.737,0.614-2.255,0.604c-0.317,0.687,0.153,1.116-0.535,1.428c0.968,0.074,3.627-0.591,3.829-0.589c0.817-1.885,3.979-1.575,4.126-4.12c0.075-1.287-2.777-5.792,0.872-5.429c-0.308-0.451-0.419-0.79-0.926-1.352c-0.507-0.563-0.885-0.375-1.326-0.563c-1.767,1.893-0.7,5.821-1.242,6.991C293.466,173.384,291.977,174.397,291.466,175.246z" />
    <path fill="#BDA742" d="M292.252,176.365c1.958-0.428,2.254-0.274,4.081-1.092c0.561-0.251,1.649-0.585,2.624-0.772c1.687-0.558,3.983-1.613,4.718-3.306l0.037-0.13c0,0-0.133-0.027-0.132-0.028c-1.654,0.187-2.453,2.252-4.344,2.089c0.079-1.946,3.274-1.694,3.43-3.266c-0.107-0.129-0.125-0.303-0.432-0.418c-0.52-0.196-2.32-1.095-3.054-1.612c-0.734-0.517-1.931-1.014-1.931-1.014c-3.649-0.362-0.798,4.142-0.872,5.429C296.231,174.789,293.07,174.48,292.252,176.365z" />
    <path fill="#F1D750" d="M289.379,164.09c0.9,0.843,1.828,2.418,1.69,4.059c-0.134,1.591,0.273,3.287,0.139,4.273c-0.319,2.346-1.495,3.682-1.463,4.093c0.073,0.928,8.607-2.704,9.389-2.39c0.782,0.314-0.664,1.788-5.594,3.43c-4.93,1.641-6.043,1.446-6.507,0.183c-0.525-1.43,0.125-4.521,1.037-7.803C288.818,167.248,288.279,163.059,289.379,164.09z" />
    <path fill="#E5E2E7" d="M285.875,124.384c-0.125-0.591,1.407-2.342,1.282-2.933c0.863,0.168,1.708,0.261,2.582-0.046c1.832-0.644,3.306,0.186,5.109,0.082c0.581,0.047,1.994,5.44,1.627,6.124C294.074,127.563,288.275,124.431,285.875,124.384z M286.55,112.392c0.209-0.489,0.198-1.939,0.043-2.511c-1.803,0.103-4.808-1.187-6.64-0.543c-0.874,0.307-3.672,0.243-4.535,0.075c0.125,0.591,1.374,2.201,1.499,2.792C279.317,112.252,284.149,112.345,286.55,112.392z" />
    <path fill="#889085" d="M270.769,117.115c0.502-0.813,0-6.466,7.008-5.521c2.401,0.047,4.162,0,7.202,0.142c3.04,0.142,5.021,0.544,5.013,1.002c-0.009,0.459,0.14,1.73-0.715,2.24c-0.336-0.102-1.106,0.271-1.923,0.693c0.104,0.074,0.208,0.163,0.31,0.282c-0.209,0.44-0.896,0.167-1.059,0.734c-0.017,0.755,1.196-0.005,1.114,0.847c-0.823,0.319-1.666,0.204-2.387-0.175c-1.026-0.539-3.455-0.416-5.336-0.313c1.78,1.037,3.882,2.467,4.606,2.597c1.04,0.544,2.097,0.476,3.118,0.29c0.6-0.109,1.717,0.031,1.557,0.396c-0.16,0.365-1.243,0.096-1.475,0.361c-0.232,0.265,0.153,0.537,0.253,0.885c-0.271,0.192-0.205,0.822-0.476,1.014c-0.253,0.024-0.865-0.268-1.213-0.272c0.272,0.75,0.463,1.565,1.317,1.521c0.486,0.057,1.037-0.011,1.224,0.628c-0.553,0.477-0.661,1.015-0.621,1.756c-0.279,0.074-0.744,0.205-1.024,0.279c-0.217,0.009-1.094,0.231-1.311,0.241c-2.139,0.979,1.192,23.232-3.643,31.162l-8.591-1.996c-1.266-1.687-0.868-9.131-0.868-9.131s1.061-7.72,1.406-10.81c0.384-3.443,1.827-6.644,2.211-10.008c0.176-1.535-3.267-2.801-4.185-3.926C272.103,121.816,271.57,117.532,270.769,117.115z" />
    <path fill="#B7BEB0" d="M277.227,110.011c0.863,0.168,1.708,0.261,2.582-0.046c1.832-0.644,3.541,0.533,5.344,0.43c0.814,0.251,1.816,0.61,1.715-0.84c-2.685-0.799-6.145-2.255-8.901-1.661C277.384,108.02,277.235,109.017,277.227,110.011z" />
    <path fill="#D7D5BF" d="M286.497,108.718c-1.323-1.269-2.673-2.488-4.658-2.547c-0.216,0.314-0.497,0.267-0.828,0.204c-3.149-0.595-6.181-0.336-9.011,1.297c1.178,2.294,1.255,4.998,2.689,7.197c3.315,0.351,6.518,1.454,9.928,1.291c0.971-0.047,2.028-1.139,3.007-0.007c0.632,0.087,1.265,0.174,1.897,0.261c0.043-0.633,0.548-1.174,0.369-1.852c-4.517-1.367-8.278-1.809-14.15-1.976c0.722-0.978,1.58-0.599,1.997-0.793s-0.494-1.071-0.376-1.773c0.118-0.702,1.575-1.411,2.642-1.415s4.18,0.149,6.865,0.949v0.001c0.007-0.134,0.013-0.268,0.02-0.402c0,0-0.001,0.013-0.001,0.013C286.757,109.017,286.627,108.868,286.497,108.718z" />
    <path fill="#3D635B" d="M270.769,105.491c1.907,0.492,0.608,1.536,0.361,2.375c0.123,0.074,1.022,0.171,1.145,0.245c2.83-1.634,5.662-1.487,8.811-0.892c0.331,0.063,1.401-0.629,1.617-0.943c-3.315-1.753-8.222-1.586-11.734-2.328C270.263,104.267,270.928,105.163,270.769,105.491z" />
    <path fill="#889085" d="M271.395,105.627c0.158-0.328-0.452-1.206,0.255-1.524c-2.412-1.126-5.668-1.198-7.52-3.504c-1.359,2.018,0.463,2.969,2.759,4.028C268.745,103.867,269.627,105.849,271.395,105.627z" />
    <path fill="#B7BEB0" d="M263.142,105.064c0.281-0.943-0.597-5.041-1.78-6.916c-0.71-1.125-2.057-0.222-1.856-0.793c-1.321,1.243-0.518,3.892-0.185,5.321C259.677,102.72,259.487,105.064,263.142,105.064z" />
    <path fill="#BDA742" d="M286.371,153.043c1.27-0.466,0.998-2.516,1.954-3.16c0.273-2.07,0.671-4.113,1.355-6.092c0.037-0.242,0.075-0.483,0.112-0.725c0.654-1.072,0.54-1.903,1.02-3.294c0.024-0.215,0.211-1.319,0.235-1.534c0.102-0.908,0.215-1.662-0.142-2.829c-0.004-0.744-0.009-1.487-0.013-2.231c0.01-0.257,0.021-0.514,0.031-0.771c0.04-0.378,0.079-0.755,0.118-1.133c0.001-0.128,0.003-0.255,0.005-0.383c-0.074-0.288-0.392-1.121-0.825-1.378c-0.905,1.601-0.736,2.007-1.084,3.683c-0.016,0.384-0.087,3.211-0.102,3.595c-0.392,4.739-1.33,8.62-2.497,13.216c-0.075,0.158-0.44,0.826-0.515,0.984C286.001,151.629,286.396,152.404,286.371,153.043z" />
    <path fill="#726024" d="M289.474,143.924c-0.684,1.979-1.115,4.405-1.388,6.475c0.905,0.134,1.514-0.148,1.771-0.915c1.198-3.576,2.189-9.032,2.198-12.824C290.972,139.363,290.607,144.522,289.474,143.924z" />
    <path fill="#3D635B" d="M258.522,108.467c1.55-0.11,1.318-0.908,1.585-1.653c0.285-1.043-0.545-2.016-0.196-3.063c-0.028-0.378,0.062-0.945-0.085-1.134c-0.148-0.189-0.338,0.041-0.507,0.062C258.843,104.544,258.49,106.536,258.522,108.467z" />
    <path fill="#D7D5BF" d="M263.677,105.22c0.02-0.528-0.489-0.465-0.739-0.677c-0.196-1.632-0.864-1.06-1.566-0.335c-0.112-0.01-0.222-0.031-0.33-0.061c-0.069-0.591-0.182-1.201-0.449-1.369c-0.267-0.168-0.5-0.464-0.483-1.171c0.016-0.707-1.141-2.729-0.604-4.251c1.103-1.029,2.059-0.684,2.832,0.39c0.655,0.91,1.199,1.898,1.793,2.852c-0.587,1.809,0.14,2.765,2.436,3.824c-0.791,1.384-2.677,1.835-4.104,1.968C262.644,105.967,263.14,105.236,263.677,105.22z M260.126,99.447c0.777-0.338,0.489-0.871,0.481-1.609C260.209,98.46,260.011,98.879,260.126,99.447z" />
    <path fill="#889085" d="M259.912,103.751c-0.349,1.047,0.343,2.28,0.057,3.323c0.992,0.129,1.834-0.225,2.62-0.753c0.182-0.423,2.464-0.262,1.998-0.676c-0.522-0.463-0.922-1.025-1.648-1.101c-0.715-0.075-1.336-0.171-1.566-0.335C260.666,103.706,260.289,103.883,259.912,103.751z" />
    <path fill="#142320" d="M258.522,108.467c-0.425,2.253-0.463,4.448-0.142,6.723c0.57-0.859,1.19-0.54,1.879-0.11c0.239,0.057,0.231,0.247,0.718,0.171c0.487-0.075,0.733-0.307,1.446-0.817c0.713-0.51,0.864-1.614,2.008-1.409c1.288-1.332,2.841-2.363,3.975-3.902c0.7-0.95,1.796-1.801,3.224-1.671c0.247-0.839,1.529-1.846-0.378-2.338c-1.768,0.222-3.256-1.655-5.112-0.896c-0.791,1.384-2.086,1.747-3.513,1.879c-0.785,0.528-1.606,0.945-2.598,0.816C259.763,107.66,259.298,108.214,258.522,108.467z" />
    <path fill="#E5E2E7" d="M268.694,153.533c1.218,1.865,1.025,5.35,3.26,7.245c2.234,1.895,6.141,5.612,8.009,4.95c1.868-0.662,2.002-4.024,1.906-4.925c-0.096-0.9-0.337-4.237,0.721-6.088c-0.857-0.534,0.324-5.063,1.209-7.64c0.703-6.849,0.341-13.839,2.73-20.463c-1.101-3.753-2.726,0.85-2.929,1.687c-0.698,2.88-0.968,5.856-1.24,8.802c-0.583,6.316-0.798,12.939-2.619,19.057c-1.278-1.11,0.425-5.114,0.648-6.675c0.449-3.149,0.666-6.328,0.923-9.496c0.259-3.198,0.31-6.512,0.931-9.669c0.237-1.205,2.024-4.544,0.942-5.43c-2.804-2.299-3.749,10.413-3.889,11.633c-0.3,2.62-0.402,18.033-2.856,18.346c2.004-10.238,0.992-20.762,4.363-30.678c-2.443-0.997-3.012,2.344-3.709,7.292c-1.255,8.915-1.454,22.625-3.345,22.587c-1.266-1.687,0.219-7.108,0.437-9.104c0.337-3.09,0.768-6.169,1.113-9.259c0.384-3.443,1.579-6.831,1.963-10.195c0.176-1.535,0.632-1.399-0.286-2.525c-1.235-0.76-5.361-1.448-3.838-1.779c1.523-0.331,13.067,3.172,14.461,2.714s0.595-0.951-0.402-1.548s-3.928-1.21-5.615-1.637c-2.717-0.688-8.621-2.294-7.687-2.567c0.934-0.272,10.012,2.098,10.651,1.908c0.639-0.19-0.13-1.679-1.372-2.023c-0.823-0.228-1.193-0.91-2.464-1.333c-1.271-0.424-3.516-0.323-4.924-0.81c-1.408-0.488-1.793,0.301-2.154-0.85c0.267-0.433,0.376-0.025,1.011-0.309s-1.511-4.903-2.689-7.197c-0.123-0.074-0.246-0.147-0.369-0.221c-1.428-0.13-2.524,0.721-3.224,1.671c-1.134,1.539-3.537,3.207-3.975,4.008c-0.438,0.801-0.504,1.554-0.504,2.207s0.689,0.579,1.613,0.695c1.42,0.832,0.242,2.201,1.128,3.17c0.886,0.969,1.364,0.848,0.966,2.115c-1.068-0.34-1.262-1.312-1.734-1.796s-1.528-1.648-1.858-1.17s0.838,5.177,0.845,6.032c0.006,0.855-0.295,1.162-0.482,1.529c-0.187,0.367-0.638,0.829-0.075,1.54c0.563,0.711,0.881,2.72,0.915,3.387c0.034,0.667,1.053,2.287,1.229,1.506c0.176-0.781,1.005-6.527,1.818-8.082c0.813-1.555-0.291,5.242-0.869,7.582c-0.088,1.123-0.364,2.616-0.252,3.543c0.111,0.927,0.577,1.363,1.374,1.143c0.916-3.563,2.268-12.529,2.58-10.749c0.312,1.78-2.064,16.931-2.154,18.004c-0.09,1.073,0.363,2.849,1.297,2.218c0.934-0.631,0.864-2.796,1.006-3.846c0.613-4.527,1.048-9.08,1.938-13.568c0.115-1.397,1.452-4.454,1.522-3.809s-0.61,2.541-0.915,3.811c-0.827,7.349-2.004,14.658-2.584,22.036c1.753,1.761,1.6,3.364-0.486,4.156C270.336,153.684,270.007,152.624,268.694,153.533z" />
    <path fill="#142320" d="M302.942,154.89c0.069-0.557-0.097,0.829-0.025,1.863c0.072,1.034,0.799,1.958,1.181,3.314c0,0,0.013-0.003,0.013-0.003c1.779,2.013,3.167-6.366-0.405-6.792C302.959,153.575,302.873,155.447,302.942,154.89z" />
    <path fill="#BDA742" d="M300.077,134.625c0.152-0.131,1.077-1.555,1.23-1.686c-1.48-6.271-4.625-11.118-8.076-16.524c-0.24-0.014-0.831,0.389-1.071,0.376c-0.139,0.041-0.277,0.082-0.415,0.123c0.143,0.704,0.994,1.128,0.783,1.972c0.071,0.693,0.688,0.974,1.089,1.409c0.566,0.613,1.134,1.177,1.309,1.697c0.175,0.52-0.355,0.948-0.917,1.204c0.028,0.242,0.055,0.485,0.083,0.727c0,0,0.005,0.006,0.005,0.006c1.48,0.218,1.413,1.451,1.918,2.807c-1.061-0.445-1.563-0.957-1.998-1.563c-0.243-0.046-0.485-0.091-0.728-0.137c-0.683,0.155-1.364,0.292-1.946-0.274c-0.244-0.025-0.487-0.049-0.731-0.074c-0.544,0.465,0.056-0.045-0.454,0.016c-0.119-0.005-1.983-0.122-1.865,1.452c0.058,0.231,0.331-0.232,0.984-0.328c0.653-0.096,0.495-0.318,1.031,0.281c0.138,0.122-0.88,2.165-0.88,2.165c1.827,0.308,5.968,1.406,7.627,3.177C298.713,133.223,299.103,134.308,300.077,134.625z" />
    <path fill="#D7D5BF" d="M288.618,117.312c-0.823,0.319-1.467,0.3-2.187-0.079c-1.45-0.763-3.719-0.296-5.261-0.341c0.478,1.051,2.155,1.114,2.861,1.595c0.696,0.475,0.696,1.284,0.696,1.284c1.04,0.544,2.562,0.242,3.584,0.056c0.6-0.109,1.535-0.608,1.865,0.279c1.732-0.144,4.352-0.398,5.817,0.705c0,0-0.654-1.279-1.198-1.936C294.423,118.51,289.97,117.634,288.618,117.312z" />
    <path fill="#5B6933" d="M287.49,115.966c-0.209,0.44-0.965-0.117-1.128,0.449c-0.017,0.755,0.409,0.639,1.357,1.119c0.948,0.48,4.573,1.528,5.945,1.493c-0.855-2.612-2.369-2.537-4.278-2.799C288.754,116.141,288.122,116.053,287.49,115.966z" />
    <path fill="#D7D5BF" d="M284.979,111.736c2.882,0.319,3.641,0.586,4.916,0.826c0.137-0.282-0.547-0.97-1.116-1.787c-0.569-0.818-1.505-1.683-2.072-1.813c-0.402,0.601,0.449,0.92-1.555,1.434C285.308,110.967,285.188,111.247,284.979,111.736z" />
    <path fill="#B7BEB0" d="M289.866,112.484c-0.31,0.53-0.01,1.195-0.164,2.023c-0.154,0.828-0.417,1.427-0.182,1.908c0.235,0.481,1.513-0.115,2.145,0.662c0.632,0.778,1.087,0.45,1.999,1.949c0.24,0.013,1.011,0.025,1.25,0.039C293.365,116.058,292.088,114.188,289.866,112.484z" />
    <path fill="#555329" d="M286.59,152.707c0.025-0.639,0.03-1.223,0.3-2.39c0.269-1.167,2.186-9.219,2.578-13.958c-0.361,0.079-0.722,0.159-1.092,0.241c-0.499-0.941,1.021-2.31-0.683-2.91c0,0,0,0,0,0c-0.351,5.403-1.767,13.708-2.388,15.996s-0.312,4.953-0.741,5.769s0.004,1.257,1.228,0.336S286.324,153.735,286.59,152.707z" />
    <path fill="#DBD195" d="M285.337,149.567c-0.317,0.006-0.663-0.089-0.979-0.082c0.322-0.873,0.292-1.784,0.293-2.693c0.298-1.778,0.475-3.587,0.923-5.327c0.679-2.632,0.279-5.372,0.964-7.989c0.329-0.02,0.822,0.16,1.155,0.213C287.57,139.436,286.734,144.308,285.337,149.567z M292.607,122.669c-1.255-1.414-4.214-1.565-4.554-1.17c-0.238,0.277-0.341,0.769-0.473,1.091c-0.08,0.194,0.391,0.545,0.62,0.71c0.765,0.549,2.65-0.113,4.041,0.746c0.254,0.083,1.602-0.199,1.856-0.116c0,0,0.438-0.387,0.173-0.652C293.84,122.518,292.852,123.788,292.607,122.669z" />
    <path fill="#D7D5BF" d="M288.12,126.268c1.013,0.399,0.87,1.212,0.684,1.965c-0.448,1.821-1.106,3.559-1.111,5.457c0,0-0.333-0.053-0.333-0.053c-0.329,0.02-0.814-0.167-1.143-0.147c-0.066-0.695,0.149-1.628,0.169-2.291c0.052-1.744,1.211-2.923,0.878-4.696C287.543,126.428,287.84,126.342,288.12,126.268z M285.337,149.567c-0.317,0.006-0.663-0.089-0.979-0.082c-0.159,1.808-1.35,1.777-1.965,5.555c-0.283,0.688-1.016,2.294-0.65,4.053c1.415-0.672,2.651-2.977,2.942-3.689s0.247-2.97,0.422-4.479c0.023-0.148,0.08-0.396,0.103-0.544C285.259,150.115,285.287,149.833,285.337,149.567z" />
    <path fill="#555329" d="M293.4,129.123c-0.138-0.122-0.277-0.244-0.415-0.366c-0.495-0.003-0.99-0.007-1.485-0.01c-0.139,0.765-2.017,1.435-2.452,2.763c-0.317,0.969-0.469,3.109,0.467,3.696c0.348-1.676,0.051-3.485,0.956-5.086c0.434,0.257,0.401,1.198,0.365,1.286c-0.04,0.378-0.142,3.392-0.137,4.135c-0.093,0.909,0.367,1.887-0.341,2.719c-0.024,0.215-0.049,0.43-0.073,0.646c0.18,1.498-0.072,2.926-0.698,4.293c-0.037,0.242-0.075,0.483-0.112,0.725c1.133,0.598-0.128,1.658,0.629,2.926c0.48-3.364,1.57-8.173,1.744-8.974c0.174-0.801,0.041-1.265,0.061-1.897c-0.439-0.287-0.281-0.578-0.063-0.938c0.564-0.931,0.764-1.944,0.542-3.025c-0.119-0.523,0.189-0.651,0.618-0.665c0.445-0.65,1.556,0.093,1.854-0.854C294.79,129.567,293.309,130.192,293.4,129.123z" />
    <path fill="#5B6933" d="M289.515,135.206c-0.936-0.587-0.784-2.727-0.467-3.696c0.435-1.328,2.312-1.999,2.452-2.764c-0.112-0.081-0.225-0.163-0.337-0.244c-0.182-0.05-0.363-0.1-0.544-0.15c-0.233-0.037-0.515-0.056-0.508-0.362c0.002-0.113,0.217-0.221,0.335-0.332c0.105-0.207,0.209-0.415,0.313-0.621c0.069-0.466,0.26-0.874,0.798-0.82c0.515,0.052,0.485,0.417,1.366,0.585c0.881,0.169,1.21,0.399,1.574,0.59c0.364,0.19,0.927,0.21,1.169,0.256c0.027-0.415,0.053-0.829,0.08-1.244c0,0-0.005-0.006-0.006-0.006c-0.396,0.006-0.199-0.203-0.843-0.978c-0.644-0.774-2.836-0.635-3.695-0.906c-1.447-0.456-1.828-0.24-2.275-0.064s-0.847,1.072-0.807,1.814c1.013,0.399,0.712,1.134,0.526,1.888c-0.448,1.821-0.948,3.636-0.953,5.534c1.704,0.6,0.184,1.969,0.683,2.91c0.37-0.082,0.731-0.161,1.091-0.241C289.484,135.975,289.5,135.591,289.515,135.206z" />
    <path fill="#726024" d="M298,132.539c-0.3,0.4-0.752,0.34-1.169,0.385c-0.241-0.138-0.482-0.276-0.723-0.414c-0.905-0.731-2.169-0.501-3.101-1.159c0.445-0.65,1.556,0.093,1.854-0.854c-0.07-0.93-1.551-0.305-1.46-1.374C295.976,128.859,297.11,130.535,298,132.539z M295.745,126.407c-0.027,0.414-0.053,0.829-0.08,1.244c0.435,0.606,0.937,1.118,1.998,1.563C297.158,127.858,297.225,126.625,295.745,126.407z M292.388,132.016c0.222,1.08,0.022,2.094-0.542,3.025c-0.218,0.36-0.376,0.652,0.063,0.938c0.345-0.098,0.363-0.728,1.02-0.503c-0.315,1.614-1.955,10.896,0.06,9.979l0.006,0.006c-0.013-0.426,0.009-0.653,0.391-1.13l0.004-0.007c0.467-2.138,1.445-4.084,2.299-6.076c-0.121-0.501-0.521-0.77-0.859-1.114c-0.62-0.629-0.468-1.059,0.456-1.12c0.144,0.095,0.288,0.19,0.433,0.285c0.266,0.048,0.532,0.097,0.798,0.144c-0.208-0.702,0.449-0.886,0.763-1.275c-0.001,0-0.03-0.017-0.03-0.017c-0.375-0.052-0.452-0.331-0.489-0.641c-0.254-0.131-0.507-0.261-0.761-0.392c-0.129-0.104-0.258-0.208-0.387-0.311c-0.14-0.136-0.28-0.273-0.42-0.409C294.187,133.077,293.204,132.715,292.388,132.016z" />
    <path fill="#5B6933" d="M287.282,126.491c-0.217,0.009-0.434,0.019-0.651,0.029c-2.389,6.624-2.443,13.253-2.789,20.57c0.25,0.01,0.558-0.086,0.808-0.075c0.298-1.778,0.475-3.587,0.923-5.327c0.679-2.632,0.279-5.372,0.964-7.989c-0.066-0.695,0.178-1.373,0.198-2.036C286.787,129.918,287.614,128.264,287.282,126.491z" />
    <path fill="#BD9331" d="M292.988,145.455c-2.015,0.917-0.375-8.365-0.06-9.979c-0.656-0.226-0.675,0.405-1.02,0.503c-0.02,0.632-0.041,1.265-0.061,1.897c-0.008,3.792-0.775,7.452-1.974,11.028c-0.257,0.767-0.85,1.246-1.755,1.112c-0.956,0.644-0.259,2.226-1.529,2.691c-0.266,1.028-0.532,2.056-0.798,3.084c0.001,0.497-1.139,2.245,0.002,1.491s2.094-2.938,2.915-4.524c0.439-0.849,1.149-0.797,1.711-1.262c0.561-0.465,1.205-1.098,1.104-2.197C291.724,147.908,293.071,146.954,292.988,145.455z" />
    <path fill="#E4B324" d="M292.988,145.455c0.082,1.498-1.265,2.453-1.465,3.844c1.599-0.383,3.761-5.468,5.277-5.478c1.516-0.01,2.389-3.12,1.167-4.049c-0.019,0.213-3.606,3.838-4.579,4.551c-0.542,0.397-0.451,0.893-0.394,1.138L292.988,145.455z" />
    <path fill="#BD9331" d="M295.688,138.248c1.173-0.109,1.696,0.754,2.28,1.525c-0.019,0.213-3.036,3.712-4.579,4.551C293.856,142.185,294.833,140.24,295.688,138.248z M297.278,135.167c-0.314,0.389-0.971,0.573-0.764,1.275c1.083,1.314,1.083,1.314,2.32,1.712c0.596-1.004-0.584-1.682-0.49-2.569c0,0,0.007,0.009,0.007,0.009C297.993,135.452,297.636,135.309,297.278,135.167z" />
  </g>
  <g>
    <path fill="#126BA1" d="M262.222,146.779c0,20.118-16.309,36.427-36.427,36.427s-36.427-16.309-36.427-36.427s16.309-36.427,36.427-36.427S262.222,126.661,262.222,146.779z" />
    <path fill="#FFFFFF" d="M231.051,146.779c0,2.902-2.353,5.255-5.255,5.255c-2.902,0-5.255-2.353-5.255-5.255c0-2.902,2.353-5.255,5.255-5.255C228.698,141.524,231.051,143.877,231.051,146.779z" />
    <path fill="#FFFFFF" d="M223.283,123.72c-0.681-2.979-2.757-8.694-1.248-9.453c1.169-0.588,1.707,1.207,3.761,1.261c2.054-0.054,2.592-1.849,3.761-1.261c1.509,0.759-0.567,6.473-1.248,9.453c-1.242,5.431-1.773,12.03-2.513,23.059C225.056,135.75,224.524,129.15,223.283,123.72z M225.796,146.779c-0.74,11.029-1.271,17.628-2.513,23.059c-0.681,2.979-2.757,8.694-1.248,9.453c1.169,0.588,1.707-1.207,3.761-1.261c2.054,0.054,2.592,1.849,3.761,1.261c1.509-0.759-0.567-6.473-1.248-9.453C227.067,164.407,226.535,157.808,225.796,146.779z M225.796,146.779c11.029,0.74,17.628,1.271,23.059,2.513c2.979,0.681,8.694,2.757,9.453,1.248c0.588-1.169-1.207-1.707-1.261-3.761c0.054-2.054,1.849-2.592,1.261-3.761c-0.759-1.509-6.473,0.567-9.453,1.248C243.424,145.508,236.824,146.039,225.796,146.779z M225.796,146.779c-11.029-0.74-17.628-1.271-23.059-2.513c-2.979-0.681-8.694-2.757-9.453-1.248c-0.588,1.169,1.207,1.707,1.261,3.761c-0.054,2.054-1.849,2.592-1.261,3.761c0.759,1.509,6.473-0.567,9.453-1.248C208.167,148.05,214.767,147.519,225.796,146.779z M216.28,125.625c-1.568-2.623-5.309-7.416-4.108-8.604c0.93-0.92,1.996,0.62,3.966,0.037c1.937-0.686,1.894-2.559,3.187-2.361c1.67,0.255,1.461,6.332,1.734,9.376c0.497,5.549,2.031,11.989,4.736,22.707C221.684,136.518,219.139,130.406,216.28,125.625z M225.796,146.779c2.705,10.718,4.238,17.159,4.736,22.707c0.273,3.044,0.064,9.12,1.734,9.376c1.294,0.198,1.25-1.675,3.187-2.361c1.97-0.583,3.036,0.957,3.966,0.037c1.201-1.188-2.539-5.981-4.108-8.604C232.452,163.152,229.907,157.039,225.796,146.779z M225.796,146.779c10.718-2.705,17.159-4.239,22.707-4.736c3.044-0.273,9.12-0.064,9.376-1.734c0.198-1.294-1.675-1.25-2.361-3.187c-0.583-1.97,0.957-3.036,0.037-3.966c-1.188-1.201-5.981,2.539-8.604,4.108C242.168,140.122,236.056,142.667,225.796,146.779z M225.796,146.779c-10.718,2.705-17.159,4.238-22.707,4.736c-3.044,0.273-9.12,0.064-9.376,1.734c-0.198,1.294,1.675,1.25,2.361,3.187c0.583,1.97-0.957,3.036-0.037,3.966c1.188,1.201,5.981-2.539,8.604-4.108C209.423,153.435,215.535,150.89,225.796,146.779z M210.209,129.601c-2.302-2.01-7.341-5.413-6.566-6.914c0.6-1.163,2.09-0.027,3.784-1.19c1.63-1.251,1.01-3.019,2.301-3.231c1.667-0.273,3.346,5.57,4.546,8.381c2.188,5.123,5.637,10.775,11.521,20.132C218.715,138.291,214.405,133.264,210.209,129.601z M225.796,146.779c5.884,9.357,9.333,15.009,11.521,20.132c1.2,2.811,2.879,8.654,4.546,8.381c1.291-0.212,0.671-1.979,2.301-3.231c1.694-1.163,3.183-0.028,3.784-1.19c0.775-1.501-4.264-4.904-6.566-6.914C237.186,160.293,232.877,155.267,225.796,146.779z M225.796,146.779c9.357-5.884,15.009-9.333,20.132-11.521c2.811-1.2,8.654-2.879,8.381-4.546c-0.212-1.291-1.979-0.671-3.231-2.301c-1.163-1.694-0.028-3.183-1.19-3.784c-1.501-0.775-4.904,4.264-6.914,6.566C239.31,135.389,234.283,139.698,225.796,146.779z M225.796,146.779c-9.357,5.884-15.009,9.333-20.132,11.521c-2.811,1.2-8.654,2.879-8.381,4.546c0.212,1.291,1.979,0.671,3.231,2.301c1.163,1.694,0.028,3.183,1.19,3.784c1.501,0.775,4.904-4.264,6.914-6.566C212.281,158.169,217.308,153.86,225.796,146.779z M205.663,135.258c-2.811-1.2-8.654-2.879-8.381-4.546c0.212-1.291,1.979-0.671,3.231-2.301c1.163-1.694,0.028-3.183,1.19-3.784c1.501-0.775,4.904,4.264,6.914,6.566c3.664,4.197,8.69,8.506,17.178,15.587C216.438,140.895,210.787,137.446,205.663,135.258z M225.796,146.779c8.488,7.081,13.515,11.39,17.178,15.587c2.01,2.302,5.413,7.341,6.914,6.566c1.163-0.6,0.027-2.09,1.19-3.784c1.251-1.63,3.019-1.01,3.231-2.301c0.273-1.667-5.57-3.346-8.381-4.546C240.805,156.112,235.153,152.663,225.796,146.779z M225.796,146.779c7.081-8.488,11.39-13.515,15.587-17.178c2.302-2.01,7.341-5.413,6.566-6.914c-0.6-1.163-2.09-0.027-3.784-1.19c-1.63-1.251-1.01-3.019-2.301-3.231c-1.667-0.273-3.346,5.57-4.546,8.381C235.129,131.77,231.68,137.422,225.796,146.779z M225.796,146.779c-7.081,8.488-11.39,13.515-15.587,17.178c-2.302,2.01-7.341,5.413-6.566,6.914c0.6,1.163,2.09,0.027,3.784,1.19c1.63,1.251,1.01,3.019,2.301,3.231c1.667,0.273,3.346-5.57,4.546-8.381C216.462,161.788,219.911,156.136,225.796,146.779z M203.089,142.043c-3.044-0.273-9.12-0.064-9.376-1.734c-0.198-1.294,1.675-1.25,2.361-3.187c0.583-1.97-0.957-3.036-0.037-3.966c1.188-1.201,5.981,2.539,8.604,4.108c4.781,2.859,10.894,5.404,21.154,9.515C215.078,144.074,208.637,142.54,203.089,142.043z M225.796,146.779c10.26,4.112,16.373,6.656,21.154,9.515c2.623,1.568,7.416,5.309,8.604,4.108c0.92-0.93-0.62-1.996-0.037-3.966c0.686-1.937,2.559-1.894,2.361-3.187c-0.255-1.67-6.332-1.461-9.376-1.734C242.954,151.017,236.513,149.484,225.796,146.779z M225.796,146.779c4.112-10.261,6.656-16.373,9.515-21.154c1.568-2.623,5.309-7.416,4.108-8.604c-0.93-0.92-1.996,0.62-3.966,0.037c-1.937-0.686-1.894-2.559-3.187-2.361c-1.67,0.255-1.461,6.332-1.734,9.376C230.034,129.62,228.5,136.061,225.796,146.779z M225.796,146.779c-4.112,10.26-6.657,16.373-9.515,21.154c-1.568,2.623-5.309,7.416-4.108,8.604c0.93,0.92,1.996-0.62,3.966-0.037c1.937,0.686,1.894,2.559,3.187,2.361c1.67-0.255,1.461-6.332,1.734-9.376C221.557,163.937,223.091,157.496,225.796,146.779z" />
  </g>
</svg>
