<svg xmlns="http://www.w3.org/2000/svg" width="450px" height="300px" viewBox="0 0 450 300">
  <path fill="#FFFFFF" d="M0,50h450v200H0V50z" />
  <path fill="#239F40" d="M450,83.7V0H0v88.3h2.2v-4.7h2.3V93h2.3v-9.3h2.3V93h2.3v-9.3h2.3v11.7H2.2v-4.7H0v7h13.8v2.3h2.3v-2.3h21v2.3h2.3v-2.3h21v2.3h2.3v-2.3h21v2.3H86v-2.3h21v2.3h2.3v-2.3h21v2.3h2.3v-2.3h21v2.3h2.3v-2.3h21v2.3h2.3v-2.3h21v2.3h2.3v-2.3h21v2.3h2.3v-2.3h21v2.3h2.3v-2.3h21v2.3h2.3v-2.3h21v2.3h2.3v-2.3h21v2.3h2.3v-2.3h21v2.3h2.3v-2.3h21v2.3h2.3v-2.3h21v2.3h2.3v-2.3h21v2.3h2.3v-2.3h21v2.3h2.3v-2.3H450v-2.3h-4.5v-4.7h-7l0,0v4.7h-2.3v-7h11.7V93h2.2v-7h-13.8v-2.3H450z M23.2,95.3h-2.3V93h2.3V95.3z M37.2,95.3H25.5v-4.7h-7v4.7h-2.3v-7h11.7V93h7v-2.3h-4.7v-2.3h7V95.3z M16.2,86v-2.3h30.3V86H16.2z M60.5,95.3H48.8v-4.7h-7V93h4.7v2.3h-7v-7h9.3v-4.7h2.3V93h2.3v-9.3h2.3V93H58v-9.3h2.3v11.6H60.5z M69.8,95.3h-2.3V93h2.3V95.3z M83.8,95.3H72.2v-4.7h-7l0,0v4.7h-2.3v-7h11.7V93h7v-2.3h-4.7v-2.3h7v6.9H83.8z M62.8,86v-2.3h30.3V86H62.8z M107.2,95.3H95.5v-4.7h-7V93h4.7v2.3h-7v-7h9.3v-4.7h2.3V93h2.3v-9.3h2.3V93h2.3l0,0v-9.3h2.3v11.6H107.2z M116.5,95.3h-2.3V93h2.3V95.3z M130.5,95.3h-11.7v-4.7h-7v4.7h-2.3v-7h11.7V93h7v-2.3h-4.7v-2.3h7V95.3z M109.5,86v-2.3h30.3V86H109.5z M153.8,95.3h-11.7v-4.7h-7V93h4.7v2.3h-7v-7h9.3v-4.7h2.3V93h2.3v-9.3h2.3V93h2.3v-9.3h2.3v11.6H153.8z M163.2,95.3h-2.3V93h2.3V95.3z M177.2,95.3h-11.7v-4.7h-7v4.7h-2.3v-7h11.7V93h7v-2.3h-4.7v-2.3h7V95.3z M156.2,86v-2.3h30.3V86H156.2z M200.5,95.3h-11.7v-4.7h-7V93h4.7v2.3h-7v-7h9.3v-4.7h2.3V93h2.3v-9.3h2.3V93h2.3l0,0v-9.3h2.3v11.6H200.5z M209.8,95.3h-2.3V93h2.3V95.3z M223.8,95.3h-11.7v-4.7h-7v4.7h-2.3v-7h11.7V93h7v-2.3h-4.7v-2.3h7V95.3z M202.8,86v-2.3h30.3V86H202.8z M247.2,95.3h-11.7v-4.7h-7V93h4.7v2.3h-7v-7h9.3v-4.7h2.3V93h2.3v-9.3h2.3V93h2.3l0,0v-9.3h2.3v11.6H247.2z M256.5,95.3h-2.3V93h2.3V95.3z M270.5,95.3h-11.7v-4.7h-7v4.7h-2.3v-7h11.7V93h7v-2.3h-4.7v-2.3h7L270.5,95.3L270.5,95.3z M249.5,86v-2.3h30.3V86H249.5z M293.9,95.3h-11.7v-4.7h-7V93h4.7v2.3h-7v-7h9.3v-4.7h2.3V93h2.3v-9.3h2.3V93h2.3l0,0v-9.3h2.3v11.6H293.9z M303.2,95.3h-2.3V93h2.3V95.3z M317.2,95.3h-11.7v-4.7h-7v4.7h-2.3v-7h11.7V93h7v-2.3h-4.7v-2.3h7V95.3z M296.2,86v-2.3h30.3V86H296.2z M340.5,95.3h-11.7v-4.7h-7V93h4.7v2.3h-7v-7h9.3v-4.7h2.3V93h2.3v-9.3h2.3V93h2.3l0,0v-9.3h2.3v11.6H340.5z M349.8,95.3h-2.3V93h2.3V95.3z M363.8,95.3h-11.7v-4.7h-7v4.7h-2.3v-7h11.7V93h7v-2.3h-4.7v-2.3h7V95.3z M342.8,86v-2.3h30.3V86H342.8z M387.2,95.3h-11.7v-4.7h-7V93h4.7v2.3h-7v-7h9.3v-4.7h2.3V93h2.3v-9.3h2.3V93h2.3l0,0v-9.3h2.3v11.6H387.2z M440.8,93h2.3v2.3h-2.3V93z M396.5,95.3h-2.3V93h2.3V95.3z M410.5,95.3h-11.7v-4.7h-7v4.7h-2.3v-7h11.7V93h7v-2.3h-4.7v-2.3h7V95.3z M389.5,86v-2.3h30.3V86H389.5z M433.9,95.3h-11.7v-4.7h-7V93h4.7v2.3h-7v-7h9.3v-4.7h2.3V93h2.3v-9.3h2.3V93h2.3l0,0v-9.3h2.3v11.6H433.9z" />
  <path fill="#DA0000" d="M436.2,200h-2.3v2.3h-21V200h-2.3v2.3h-21V200h-2.3v2.3h-21V200H364v2.3h-21V200h-2.3v2.3h-21V200h-2.3v2.3h-21V200h-2.3v2.3h-21V200h-2.3v2.3h-21V200h-2.3v2.3h-21V200h-2.3v2.3h-21V200h-2.3v2.3h-21V200h-2.3v2.3h-21V200h-2.3v2.3h-21V200H131v2.3h-21V200h-2.3v2.3h-21V200h-2.3v2.3h-21V200h-2.3v2.3h-21V200h-2.3v2.3h-21V200h-2.3v2.3H0v7h2.2v-4.7h2.3v9.3h2.3v-9.3h2.3v9.3h2.3v-9.3h2.3v11.7H2.2v-4.7H0V300h450v-83.7h-4.5v-4.7h-7v4.7h-2.3v-7h11.7v4.7h2.2v-7h-13.8v-2.3H450v-2.3h-13.8V200z M16.2,204.7h30.3v2.3H16.2V204.7z M23.2,216.3h-2.3V214h2.3V216.3z M37.2,216.3H25.5v-4.7h-7v4.7h-2.3v-7h11.7v4.7h7v-2.3h-4.7v-2.3h7V216.3z M60.5,216.3H48.8v-4.7h-7v2.3h4.7v2.3h-7v-7h9.3v-4.7h2.3v9.3h2.3v-9.3h2.3v9.3H58v-9.3h2.3v11.8H60.5z M62.8,204.7h30.3v2.3H62.8V204.7z M69.8,216.3h-2.3V214h2.3V216.3z M83.8,216.3H72.2v-4.7h-7v4.7h-2.3v-7h11.7v4.7h7v-2.3h-4.7v-2.3h7v6.9H83.8z M107.2,216.3H95.5v-4.7h-7v2.3h4.7v2.3h-7v-7h9.3v-4.7h2.3v9.3h2.3v-9.3h2.3v9.3h2.3l0,0v-9.3h2.3v11.8H107.2z M440.8,214h2.3v2.3h-2.3V214z M389.5,204.7h30.3v2.3h-30.3V204.7z M342.8,204.7h30.3v2.3h-30.3V204.7z M296.2,204.7h30.3v2.3h-30.3V204.7z M249.5,204.7h30.3v2.3h-30.3L249.5,204.7L249.5,204.7z M202.8,204.7h30.3v2.3h-30.3V204.7z M156.2,204.7h30.3v2.3h-30.3V204.7z M109.5,204.7h30.3v2.3h-30.3V204.7z M116.5,216.3h-2.3V214h2.3V216.3z M130.5,216.3h-11.7v-4.7h-7v4.7h-2.3v-7h11.7v4.7h7v-2.3h-4.7v-2.3h7V216.3z M153.8,216.3h-11.7v-4.7h-7v2.3h4.7v2.3h-7v-7h9.3v-4.7h2.3v9.3h2.3v-9.3h2.3v9.3h2.3l0,0v-9.3h2.3v11.8H153.8z M163.2,216.3h-2.3V214h2.3V216.3z M177.2,216.3h-11.7v-4.7h-7v4.7h-2.3v-7h11.7v4.7h7v-2.3h-4.7v-2.3h7V216.3z M200.5,216.3h-11.7v-4.7h-7v2.3h4.7v2.3h-7v-7h9.3v-4.7h2.3v9.3h2.3v-9.3h2.3v9.3h2.3l0,0v-9.3h2.3v11.8H200.5z M209.8,216.3h-2.3V214h2.3V216.3z M223.8,216.3h-11.7v-4.7h-7v4.7h-2.3v-7h11.7v4.7h7v-2.3h-4.7v-2.3h7V216.3z M247.2,216.3h-11.7v-4.7h-7v2.3h4.7v2.3h-7v-7h9.3v-4.7h2.3v9.3h2.3v-9.3h2.3v9.3h2.3l0,0v-9.3h2.3v11.8H247.2z M256.5,216.3h-2.3V214h2.3V216.3z M270.5,216.3h-11.7v-4.7h-7v4.7h-2.3v-7h11.7v4.7h7v-2.3h-4.7v-2.3h7L270.5,216.3L270.5,216.3z M293.9,216.3h-11.7v-4.7h-7v2.3h4.7v2.3h-7v-7h9.3v-4.7h2.3v9.3h2.3v-9.3h2.3v9.3h2.3l0,0v-9.3h2.3v11.8H293.9z M303.2,216.3h-2.3V214h2.3V216.3z M317.2,216.3h-11.7v-4.7h-7v4.7h-2.3v-7h11.7v4.7h7v-2.3h-4.7v-2.3h7V216.3z M340.5,216.3h-11.7v-4.7h-7v2.3h4.7v2.3h-7v-7h9.3v-4.7h2.3v9.3h2.3v-9.3h2.3v9.3h2.3l0,0v-9.3h2.3v11.8H340.5z M349.8,216.3h-2.3V214h2.3V216.3z M363.8,216.3h-11.7v-4.7h-7v4.7h-2.3v-7h11.7v4.7h7v-2.3h-4.7v-2.3h7V216.3z M387.2,216.3h-11.7v-4.7h-7v2.3h4.7v2.3h-7v-7h9.3v-4.7h2.3v9.3h2.3v-9.3h2.3v9.3h2.3l0,0v-9.3h2.3v11.8H387.2z M396.5,216.3h-2.3V214h2.3V216.3z M410.5,216.3h-11.7v-4.7h-7v4.7h-2.3v-7h11.7v4.7h7v-2.3h-4.7v-2.3h7V216.3z M433.9,216.3h-11.7v-4.7h-7v2.3h4.7v2.3h-7v-7h9.3v-4.7h2.3v9.3h2.3v-9.3h2.3v9.3h2.3l0,0v-9.3h2.3v11.8H433.9z M230.9,179.1c4.7,1.7,9.6,2.5,14.7,2.2c-5.9,1.9-11.9,2.1-17.6,0.9l-0.1,1.2l-2.9,4l-2.9-4l-0.1-1.2c-5.7,1.2-11.7,1-17.6-0.9c5,0.2,10-0.5,14.7-2.2c-7.6-4-13.8-10.9-16.7-19.7c-4.3-13.1-0.2-27.5,10.2-36.5c-11.4,16.8-7.3,39.5,9,51.3l-1.1-28v-22c1.8-0.8,3.3-2.1,4.4-3.7c1.1,1.6,2.7,2.9,4.4,3.7v22l-1.1,28c16.3-11.8,20.4-34.5,9-51.3c10.4,9,14.5,23.4,10.2,36.5C244.7,168.3,238.5,175.1,230.9,179.1z M258.7,135.7c-3.9-6.7-10.3-11.6-17.8-13.4c16.5,12.4,19.9,35.9,7.4,52.5c0,0,0,0.1-0.1,0.1C261.9,166.9,266.6,149.4,258.7,135.7z M209.2,122.2c-7.5,1.9-14,6.7-17.8,13.5c-7.9,13.7-3.2,31.2,10.5,39.1c0,0,0-0.1-0.1-0.1C189.3,158.2,192.6,134.7,209.2,122.2z M217.5,120.1c2.4,1.7,5.8,1.1,7.5-1.3c1.7,2.4,5.1,3,7.5,1.3c2.1-1.4,2.8-4.1,1.9-6.4c-0.5,2.8-3.2,4.6-6,4.1c-1.5-0.3-2.7-1.2-3.5-2.5c-0.8,1.3-2,2.2-3.5,2.5c-2.8,0.5-5.4-1.3-6-4.1C214.6,116,215.4,118.7,217.5,120.1z" />
</svg>
