<svg xmlns="http://www.w3.org/2000/svg" width="450px" height="300px" viewBox="0 0 450 300">
  <path fill="#C81010" d="M0,0h450v300H0V0z" />
  <path fill="#F8D000" stroke="#000000" stroke-width="0.46" d="M230.75,27.34c-19.08-7.89-30.76-9.34-43.81-9.47c-18.9,0.13-27.92,8.25-45.94,9c7.14,7.69,33.02,9.57,43.93-0.53c16.22,1.69,19.9,6.07,24.25,11.52c-6.77-1.07-14.57-3.02-21.04,4.14c-5.46,1.1-7.99,0-17.33,0c-4.36,0-5.87,2.14-5.81,6c2.82-3.9,22.31-1.6,27.09,0c3.67,1.23,7.57,6.32,12.22,7.15c12.19,2.17,29.68-4.2,45.81-8.54L285,42h-23.93L291,36c-13.93,0-23.11,0-32.54,0c-0.69-0.79-2.34-1.81-3.66-2.68c8.37-5.39,15.77-15.19,17.66-19.92c15.09-0.15,24.83-1.55,36.54-4.29C231.82,0.57,249.39,9.78,230.75,27.34z" />
  <path fill="#000000" d="M195.06,39.815c0.87,0,1.575,0.705,1.575,1.575s-0.705,1.575-1.575,1.575s-1.575-0.705-1.575-1.575S194.19,39.815,195.06,39.815z" />
  <path fill="none" stroke="#000000" stroke-width="0.46" d="M215.13,38.29c0,0-6.27,3.71-10.43,3.71 M250.12,46.61c0,0,5.73-4.61,10.95-4.61 M158.82,24.6c0,0,4.66-2.44,6.86-3.09 M178.13,21.12c0,0,7.39-3.19,15.62-3.03 M198.11,21.9c0,0,9.69-1.63,18.64,0.36 M209.25,24.24c0,0,8.04-1.35,15.75,0.83 M217.52,26.69c0,0,8.19,0.11,12.26,1.69 M141,26.87c0,0,11.49,3.14,20.83-1.35 M142.46,28.23c0,0,14.92,3.68,21.74-3.15 M147.46,30.81c0,0,11.24,3.62,20.08-5.72 M157.9,33.08c0,0,9.08-2.6,12.52-7.95 M165,33.23c0,0,6.09-4.22,8.28-7.98 M243.46,28.47c0,0,2.38,2.99,11.34,4.85 M245.04,27.06c0,0,3.85,3.85,11.87,4.79 M246.98,25.25c0,0,3.91,3.36,12.42,4.61 M248.91,23.32c0,0,5.98,3.99,12.79,4.45 M251.27,20.8c0,0,4.19,3.91,12.5,4.88 M253.03,18.79c0,0,4.91,4.22,12.63,4.8 M254.76,16.69c0,0,3.01,3.48,12.94,4.39 M256.52,14.42c0,0,3.35,3.68,12.78,4.48 M257.89,12.55c0,0,5.9,4.45,12.73,4.36 M259.06,10.85c0,0,7.8,4.68,12.45,4.53 M260.48,8.69c0,0,6.2,3.86,11.98,4.71 M233.84,30.38c0,0,2.5,1.89,4.84,1.81 M235.28,28.98c0,0,2.17,1.85,5.15,1.84 M237.03,27.26c0,0,2.46,2.3,5.41,1.88 M238.69,25.6c0,0,2.94,2,5.57,1.94 M240.53,23.71c0,0,2.18,1.89,5.63,2.07 M242.17,21.63c0,0,2.56,2.27,5.82,2.35 M243.9,20.13c0,0,2.48,1.59,5.99,1.89 M245.47,18.38c0,0,3.35,1.18,6.42,1.47 M247.28,16.24c0,0,2.31,1.62,6.41,1.52 M248.91,14.1c0,0,2.74,1.82,6.26,1.86 M250.11,12.07c0,0,3.68,2.06,6.85,1.6 M251.45,9.64c0,0,2.33,2.55,6.67,2.46 M252.39,8.54c0,0,4.18,2.35,7.01,1.75 M254.16,7.21c0,0,3.17,1.93,6.07,1.85 M257.38,6.24c0,0,5.65,2.88,13.29-0.24 M262.19,8.29c0,0,11.42,2.62,16.37-1.96 M271.15,8.97c0,0,7.85,0.82,16.63-1.96 M276.37,9.02c0,0,11.92,2.4,32.63,0.09 M168.24,32.96c0,0,5.33-3.51,7.54-7.55 M172.23,32.31c0,0,4.29-4.16,5.54-6.74 M176.19,31.24c0,0,3.53-3.17,4.31-5.39 M158.95,25.66c0,0,7.66-1.67,25.98,0.68 M166.03,22.6c0,0,6.42-3.11,12.14-4.06 M172.41,21.31c0,0,4.69-2.21,11.61-3.31 M183.07,20.89c0,0,6.49-2.77,14.43-2.51 M191.28,20.94c0,0,8.9-1.99,17.1-0.87 M215.11,25.29c0,0,6.79-0.31,14.6,1.63 M203.5,22.56c0,0,9.73-0.52,16.4,0.71 M263.67,8.57c0,0,3.36,2.91,12.72,4.76 M268.95,9.04c0,0,5.26,2.99,13.56,4.03 M274.47,9.08c0,0,7.38,3.21,15.18,3.41 M282.64,9.78c0,0,7.52,1.81,16.84,1.32 M187.41,20.78c0,0,5.1-2.1,14.14-1.93 M221.04,28.42c0,0,3.06-0.37,6.86,1.44 M209.18,37.86c2.11,0.33,4.12,0.58,5.95,0.43c7.16-3.91,12.05-7.58,15.62-10.95" />
  <path fill="#F8D000" stroke="#000000" stroke-width="0.46" d="M173.982,149.343c-14.148-1.923-26.799-9.804-34.763-21.655c12.409,7.063,27.246,8.483,40.77,3.903 M179.99,131.587c-12.498-6.905-21.447-18.824-24.591-32.752c9.019,11.069,22.341,17.754,36.606,18.37 M192.002,117.208c-9.16-10.953-13.201-25.299-11.104-39.422c4.413,13.579,14.421,24.624,27.501,30.35 M208.404,108.133c-4.584-13.522-3.169-28.36,3.889-40.771c-0.791,14.256,4.551,28.171,14.678,38.236 M226.976,105.598c0.611-14.265,7.291-27.589,18.357-36.612c-5.888,13.008-5.935,27.912-0.128,40.956 M245.202,109.941c5.721-13.082,16.763-23.094,30.34-27.512c-10.189,10.003-15.614,23.885-14.91,38.146 M260.636,120.579c10.061-10.131,23.974-15.477,38.231-14.691c-13.114,5.646-23.189,16.63-27.685,30.182 M271.184,136.074c13.042-5.812,27.947-5.77,40.956,0.114c-14.269,0.527-27.631,7.128-36.719,18.141 M275.42,154.325c14.261-0.709,28.144,4.712,38.151,14.897c-13.496-4.662-28.341-3.331-40.793,3.656" />
  <path fill="#F8D000" stroke="#000000" stroke-width="0.46" d="M173.689,161.239l-41.823-13.285l43.552-5.375 M175.42,142.574l-34.197-27.499l42.552,10.724 M183.772,125.803L161.813,87.81l35.807,25.367 M197.624,113.174l-6.749-43.36l24.223,36.59 M215.104,106.404l9.373-42.869l9.367,42.871 M233.84,106.405l24.222-36.591l-6.747,43.36 M251.319,113.176l35.806-25.368l-21.958,37.993 M265.171,125.805l42.553-10.718l-34.201,27.494 M273.521,142.578l43.552,5.373l-41.822,13.287" />
  <path fill="#F8D000" stroke="#000000" stroke-width="0.46" d="M224.47,105.535c28.167,0,51,22.833,51,51s-22.833,51-51,51s-51-22.833-51-51S196.304,105.535,224.47,105.535z" />
  <path fill="#183070" d="M0,166.324h450V300H0V166.324z" />
  <path fill="#FFFFFF" d="M450,150.231v24.049c-4.86,0.62-9.733,2.235-14.657,4.861C426.769,183.714,418.135,186,409.5,186s-17.268-2.286-25.843-6.859c-12.891-6.875-25.424-6.875-38.314,0c-17.149,9.146-34.537,9.146-51.686,0c-12.994-6.93-26.35-6.885-40.832,0.136c-18.464,8.953-37.188,8.953-55.651,0c-14.482-7.021-27.838-7.067-40.832-0.136c-17.147,9.146-34.537,9.146-51.685,0c-12.891-6.875-25.424-6.875-38.315,0c-17.147,9.146-34.537,9.146-51.685,0C9.733,176.515,4.86,174.9,0,174.28v-24.049c7.133,0.656,14.258,2.849,21.342,6.627c12.891,6.875,25.424,6.875,38.315,0c17.147-9.146,34.537-9.146,51.685,0c12.891,6.875,25.424,6.875,38.315,0c17.046-9.091,35.103-9.138,53.668-0.136c14.584,7.07,28.763,7.07,43.349,0c18.565-9.001,36.621-8.957,53.668,0.136c12.891,6.875,25.424,6.875,38.314,0c17.149-9.146,34.537-9.146,51.686,0c12.891,6.875,25.424,6.875,38.314,0C435.742,153.08,442.867,150.888,450,150.231z M390.343,252.858c-17.149-9.146-34.537-9.146-51.686,0c-12.891,6.875-25.424,6.875-38.314,0c-17.047-9.093-35.104-9.138-53.668-0.136c-14.585,7.07-28.765,7.07-43.349,0c-18.565-9.003-36.623-8.956-53.668,0.136c-12.891,6.875-25.424,6.875-38.315,0c-17.147-9.146-34.537-9.146-51.685,0c-12.891,6.875-25.424,6.875-38.315,0c-7.084-3.779-14.21-5.971-21.342-6.627v24.049c4.86,0.62,9.733,2.235,14.658,4.861c17.147,9.146,34.537,9.146,51.685,0c12.891-6.875,25.424-6.875,38.315,0c17.147,9.146,34.537,9.146,51.685,0c12.994-6.932,26.35-6.886,40.832,0.136c18.464,8.953,37.188,8.953,55.651,0c14.481-7.021,27.838-7.065,40.832-0.136c17.149,9.146,34.537,9.146,51.686,0c12.891-6.875,25.424-6.875,38.314,0c8.574,4.573,17.208,6.859,25.843,6.859s17.268-2.286,25.843-6.859c4.925-2.626,9.797-4.242,14.657-4.861v-24.049c-7.133,0.656-14.258,2.849-21.343,6.627C415.767,259.733,403.233,259.733,390.343,252.858z M390.343,204.858c-17.149-9.146-34.537-9.146-51.686,0c-12.891,6.875-25.424,6.875-38.314,0c-17.047-9.093-35.104-9.138-53.668-0.136c-14.585,7.07-28.765,7.07-43.349,0c-18.565-9.002-36.623-8.956-53.668,0.136c-12.891,6.875-25.424,6.875-38.315,0c-17.147-9.146-34.537-9.146-51.685,0c-12.891,6.875-25.424,6.875-38.315,0c-7.084-3.779-14.21-5.971-21.342-6.627v24.049c4.86,0.62,9.733,2.235,14.658,4.861c17.147,9.146,34.537,9.146,51.685,0c12.891-6.875,25.424-6.875,38.315,0c17.147,9.146,34.537,9.146,51.685,0c12.994-6.932,26.35-6.887,40.832,0.136c18.464,8.953,37.188,8.953,55.651,0c14.481-7.021,27.838-7.065,40.832-0.136c17.149,9.146,34.537,9.146,51.686,0c12.891-6.875,25.424-6.875,38.314,0c8.574,4.573,17.208,6.859,25.843,6.859s17.268-2.286,25.843-6.859c4.925-2.626,9.797-4.242,14.657-4.861v-24.049c-7.133,0.656-14.258,2.849-21.343,6.627C415.767,211.733,403.233,211.733,390.343,204.858z" />
</svg>
