<svg xmlns="http://www.w3.org/2000/svg" width="450px" height="300px" viewBox="0 0 450 300">
  <path fill="#FFFFFF" d="M0,0h450v300H0V0z" />
  <path fill="#FFD100" d="M0,0h450v75H0V0z" />
  <path fill="#EF3340" d="M0,150h450v150H0V150z" />
  <path fill="#003DA5" d="M0,225h450v75H0V225z" />
  <path fill="#009639" d="M225,150L0,300V0L225,150z" />
  <path fill="#FFFFFF" d="M106.38,189.068l-7.718,5.608l2.948,9.069l-7.714-5.606l-7.714,5.606l2.945-9.071l-7.715-5.607h9.536L93.893,180l2.947,9.068H106.38z M39.847,157.387c-4.08-33.928,20.118-64.74,54.046-68.819c-11.145-3.09-22.92-3.09-34.065,0c-33.928,9.407-53.807,44.537-44.4,78.465s44.537,53.807,78.465,44.4C65.574,208.027,43.252,185.705,39.847,157.387z M90.948,104.693h-9.536l7.715,5.607l-2.945,9.071l7.714-5.606l7.714,5.606l-2.948-9.069l7.718-5.608h-9.54l-2.947-9.068L90.948,104.693z M93.893,123.75l-2.944,9.068h-9.536l7.715,5.607l-2.945,9.071l7.714-5.606l7.714,5.606l-2.948-9.069l7.718-5.608h-9.54L93.893,123.75z M93.893,151.875l-2.944,9.068h-9.536l7.715,5.607l-2.945,9.071l7.714-5.606l7.714,5.606l-2.948-9.069l7.718-5.608h-9.54L93.893,151.875z" />
</svg>
