<svg xmlns="http://www.w3.org/2000/svg" width="450px" height="300px" viewBox="0 0 450 300">
  <path fill="#ED1C24" d="M0,0h450v300H0V0z" />
  <path fill="#FFFFFF" d="M0,75h450v150H0V75z" />
  <path fill="#00A651" d="M222.954,75c-3.22,6.78-9.283,11.519-15.079,16.003c-0.954,0.832-3.324,2.445-1.605,3.673c1.473-1.646,5.517,0.534,3.167,2.305c-2.105,1.97-5.003,2.691-7.341,4.317c-2.07,1.125-4.17,2.299-5.811,4.021c-0.111,2.69,3.337,1.201,4.736,2.322c1.822,1.948-0.773,5.233-3.165,4.481c-3.058,0.094-5.17,2.785-6.327,5.352c-2.392,3.699-6.925,4.795-10.535,6.9c-2.065,1.203-4.068,2.535-5.99,3.94c-2.479,1.695-0.322,5.05,2.315,4.227c2.846-0.284,5.408-2.52,8.355-1.876c2.673,0.939,3.423,4.432,2.512,6.871c-0.675,1.952-2.31,3.328-3.62,4.853c-2.126,2.154-4.908,3.553-7.84,4.22c-2.833,0.952-5.381,2.688-7.24,5.031c-2.157,2.172-4.306,4.379-6.786,6.19c-0.783,1.999,1.428,3.701,3.27,3.648c3.884-0.245,6.575-3.423,9.883-5.057c2.745-1.234,5.975,1.725,5.303,4.584c-0.212,2.782-2.817,4.193-5.133,5.049c-6.807,3.422-12.719,8.385-17.966,13.86c-1.085,2.214-4.07,1.562-5.676,3.106c-1.046,1.953,1.58,2.983,3.148,2.783c6.735-0.81,13.02-3.657,18.973-6.789c2.214-1.059,4.293-2.451,6.595-3.295c2.162-0.535,5.177,0.405,5.564,2.866c-0.003,2.598-2.576,4.036-4.615,5.051c-6.285,3.302-13.182,5.128-19.9,7.311c-2.515-0.703-4.41,3.771-1.651,4.576c2.917,1,6.018,0.198,9.003,0.067c9.227-1.413,17.298-6.406,25.923-9.634c3.586-1.169,7.818,0.462,9.588,3.822c1.778,2.995,1.615,6.934-0.26,9.844c-2.964,6.341-7.47,12.169-13.519,15.815c-3.797,1.88-8.229,2.599-11.484,5.477c-3.01,0.992,1.509,5.059,2.162,1.831c1.809-2.467,4.999-3.204,7.891-3.306c4.348-0.473,8.967-1.275,12.345-4.285c3.029-2.352,6.014-5.598,10.127-5.648c2.273,0.27,4.521,2.096,6.83,0.982c2.02-0.925,5.189-0.383,5.716,2.1c0.964,2.906,3.959,4.227,6.334,5.782c0.859,1.207,3.715,4.32,4.374,1.576c-0.531-1.958,0.228-4.953,2.796-4.299c2.243,0.1,4.38,0.928,6.62,1.063c2.981,0.617,5.468,2.658,7.161,5.123c1.165,1.609,3.715,4.372,5.611,2.239c1.176-2.206-1.069-4.045-2.897-4.833c-2.665-1.652-4.943-3.851-7.274-5.934c-3.435-3.208-6.401-7.288-6.947-12.08c-0.739-4.777-0.35-9.651,0.273-14.416c0.785-3.068,4.708-4.742,7.451-3.113c3.859,1.761,7.693,4.281,12.117,4.008c6.394,0.137,12.965-1.087,19.213,0.766c6.081,1.915,10.428,7.047,16.352,9.268c1.326,0.806,3.022,0.039,3.509-1.378c0.587-1.273,0.172-2.9-1.053-3.626c-6.865-6.93-16.246-10.296-24.19-15.71c-2.5-0.635-2.956-4.658-0.644-5.82c3.039-2.208,7.34-1.18,10.035,1.097c2.277,1.333,4.842,2.333,7.514,2.335c2.737-0.857,1.41-4.816-1.04-5.114c-4.44-2.507-7.62-6.62-11.465-9.88c-2.215-1.875-4.638-3.773-7.615-4.137c-1.626-0.296-3.29-0.361-4.939-0.251c-1.546-1.68,0.514-4.253,2.513-4.042c2.051,0.138,4.09,0.29,6.138,0.005c2.289-0.167,4.577-0.404,6.874-0.42c1.854,1.262,5.56-0.919,3.887-3.096c-1.828-1.602-4.472-1.463-6.656-2.285c-3.836-1.254-7.742-2.281-11.699-3.075c-2.767-0.165-2.425-3.806,0.007-4.208c1.591-0.594,2.975,0.629,4.503,0.818c2.609,0.561,5.302,0.553,7.91,1.122c2.211-1.092,0.502-4.322-1.498-4.51c-4.719-1.688-8.797-4.733-12.785-7.696c-4.402-3.311-8.396-7.139-12.852-10.373c-1.617-1.002-4.267-1.29-4.692-3.51c-0.15-2.043,2.254-2.973,3.958-2.495c2.419,0.714,4.671,1.957,7.136,2.568c1.934,0.329,3.927,0.901,5.791,0.658c2.366-1.487-1.015-2.437-2.238-2.952c-3.154-1.701-5.957-3.968-8.796-6.13c-2.399-2.048,2.035-2.952,3.56-2.163c2.55,1.066,2.841-2.649,0.935-3.584c-2.246-0.955-4.177-2.54-6.214-3.923c-3.68-2.619-7.847-4.692-12.37-5.269c-5.072-0.509-9.805-3.425-12.495-7.762C225.362,80.46,224.137,77.726,222.954,75L222.954,75z M206.3,103.451c2.613,0.077,2.212,4.788-0.361,4.474C203.44,107.763,203.593,102.944,206.3,103.451z M230.954,105.988c2.544-0.455,3.082,4.186,0.541,4.404C228.847,110.866,227.866,105.694,230.954,105.988z M223.733,106.593c2.579,0.507,2.12,4.999-0.482,5.038c-1.904,0.424-3.956,1.724-5.882,0.75c-1.566-1.657,0.697-4.106,2.446-4.645C221.156,107.465,222.39,106.856,223.733,106.593L223.733,106.593z M240.352,106.612c2.485,0.906,1.609,5.293-1.012,5.237c-2.479,0.332-3.633-3.802-1.322-4.783C238.766,106.801,239.55,106.577,240.352,106.612L240.352,106.612z M212.317,111.588c1.827,1.739,0.748,5.095-1.505,5.897c-1.624,0.903-3.837,3.04-5.606,1.282c-0.96-2.147,1.449-3.765,2.866-4.956C209.337,112.827,210.732,111.934,212.317,111.588L212.317,111.588z M233.184,121.286c2.616,1.235,1.288,5.95-1.583,5.657c-2.358-0.598-2.05-4.642,0.325-4.965C232.375,121.806,232.787,121.553,233.184,121.286z M224.884,121.754c2.447,1.146,0.579,5.229-1.886,4.64c-2.555-0.3-2.508-4.792,0.31-4.386C223.839,121.982,224.387,121.968,224.884,121.754z M242.777,124.096c2.682-0.832,5.91,1.93,5.04,4.732c-1.195,2.172-4.15,2.447-6.268,1.635c-2.43-0.12-4.066-3.774-1.9-5.322C240.545,124.465,241.675,124.186,242.777,124.096z M203.167,124.799c2.217-1.206,4.572,2.419,2.686,4.018c-1.249,1.837-4.456,2.587-5.87,0.545C198.808,127.367,200.708,124.016,203.167,124.799L203.167,124.799z M192.937,126.516c2.515,0.344,4.154,2.628,5.084,4.804c0.227,2.65-3.685,4.105-5.391,2.176c-1.919-1.204-3.598-3.679-2.592-5.977C190.658,126.607,191.892,126.231,192.937,126.516L192.937,126.516z M254.139,136.097c2.73-0.719,4.712,3.643,2.368,5.221c-2.143,1.947-6.31-0.632-5.192-3.41C251.87,136.878,252.981,136.194,254.139,136.097L254.139,136.097z M219.397,141.073c2.289,0.292,1.548,4.258-0.569,4.125C216.557,144.777,217.077,140.849,219.397,141.073z M207.787,143.18c1.867-1.321,4.275,1.903,2.721,3.405C208.647,147.896,206.233,144.724,207.787,143.18z M226.247,143.57c2.163,1.315,3.448,3.766,3.717,6.24c-1.037,2.311-5.042,1.755-5.493-0.707C223.679,147.157,224.408,144.653,226.247,143.57L226.247,143.57z M232.689,147.395c2.788-0.701,1.788,5.128-0.54,3.107C231.374,149.583,231.789,148.071,232.689,147.395L232.689,147.395z M192.23,151.454c1.846-0.54,4.538,0.028,5.048,2.147c0.215,1.992-1.975,3.027-3.58,3.521c-2.572,0.794-5.087,2.097-7.853,1.922c-2.074-1.185-2.818-3.61-3.557-5.725c2.001-1.876,4.947-1.326,7.427-1.795C190.552,151.48,191.391,151.46,192.23,151.454L192.23,151.454z M254.989,160.586c2.355-1.155,4.888,2.584,2.917,4.33c-2.467,2.839-7.215,3.367-10.165,0.982c-0.354-2.512,2.155-4.337,4.385-4.697C253.063,160.935,253.995,160.54,254.989,160.586L254.989,160.586z M268.227,163.454c2.677-0.46,4.785,3.357,2.873,5.333c-1.809,2.727-6.122,3.443-8.588,1.207c-0.961-2.261,0.989-4.617,3.065-5.342C266.469,164.272,267.314,163.786,268.227,163.454L268.227,163.454z M201.663,167.514c2.479-0.245,4.749,2.214,4.424,4.658c1.794,1.766-1.383,5.055-3.171,3.227c-1.575-1.908-1.567-4.497-2.177-6.782C200.712,168.108,201.088,167.451,201.663,167.514L201.663,167.514z M220.689,168.938c2.562-1.108,5.878,1.958,4.482,4.553c-0.997,2.113-4.882,1.405-4.753-1.043C220.412,171.276,220.318,170.075,220.689,168.938L220.689,168.938z M211.433,170.596c2.569-0.589,4.926,2.742,3.499,4.964C212.37,175.788,211.04,172.748,211.433,170.596z" />
</svg>
