<svg xmlns="http://www.w3.org/2000/svg" width="450px" height="300px" viewBox="0 0 450 300">
  <path fill="#002B7F" d="M0,0h450v150l-225,50L0,150V0z" />
  <path fill="#CE1126" d="M0,150h450v150H0V150z" />
  <path fill="#FFD83D" d="M108.2,61.1l-0.9,31.3H75.6c-3.9-7.6-7.1-14-7.1-22.7c0-7.3,5.7-13.1,14-13.1C91.2,56.5,100.8,59.5,108.2,61.1z M113.8,61.1l0.9,31.3h31.7c3.9-7.6,7.1-14,7.1-22.7c0-7.3-5.7-13.1-14-13.1C130.8,56.5,121.1,59.5,113.8,61.1z" />
  <path fill="none" stroke="#000000" stroke-width="0.75" stroke-linecap="round" d="M72.2,62.6v18 M74.8,60.7v24 M77.3,59.5v28.6 M79.9,58.9v22.4 M82.4,58.8v22.7 M85,58v23.4 M87.5,58v23.4 M90.1,58.2v23.4 M92.6,58.4v23.4 M95.1,59.9v23.4 M97.7,60.2v26.4 M100.2,60.2v23.4 M102.8,60.2v23.4 M149.7,62.6v18 M147.2,60.7v24 M144.6,59.5v28.6 M142.1,58.9v22.4 M139.6,58.8v22.7 M137,58v23.4 M134.5,58v23.4 M131.9,58.2v23.4 M129.4,58.4v23.4 M126.8,59.9v23.4 M124.3,60.2v26.4 M121.7,60.2v23.4 M119.2,60.2v23.4" />
  <path fill="#000000" stroke="#000000" stroke-width="0.75" stroke-linecap="round" d="M88.2,59c5.4,0.9,17.2,6.4,15.9,13.9c-1.9,10.6-8.1,6.3-16.3,4.8l-6.2,2.1c-2.2,2.3-5.5,4.3-7.7,1.6h-3.7v14.4h40.7V61L88.2,59z M133.8,59c-5.4,0.9-17.2,6.4-15.9,13.9c1.9,10.6,8.1,6.3,16.3,4.8l6.2,2.1c2.2,2.3,5.5,4.3,7.7,1.6h3.7v14.4h-40.7V61L133.8,59z" />
  <path fill="#FFD83D" stroke="#000000" stroke-linecap="round" d="M106.4,54c1.4,0,2.5,1.1,2.5,2.5s-1.1,2.5-2.5,2.5s-2.5-1.1-2.5-2.5S105,54,106.4,54z M100.9,52.7c1.4,0,2.5,1.1,2.5,2.5s-1.1,2.5-2.5,2.5s-2.5-1.1-2.5-2.5S99.5,52.7,100.9,52.7z M95.2,51.3c1.4,0,2.5,1.1,2.5,2.5s-1.1,2.5-2.5,2.5s-2.5-1.1-2.5-2.5S93.9,51.3,95.2,51.3z M89.6,50.3c1.4,0,2.5,1.1,2.5,2.5s-1.1,2.5-2.5,2.5s-2.5-1.1-2.5-2.5S88.2,50.3,89.6,50.3z M83.9,49.8c1.4,0,2.5,1.1,2.5,2.5s-1.1,2.5-2.5,2.5s-2.5-1.1-2.5-2.5S82.6,49.8,83.9,49.8z M78.4,50.1c1.4,0,2.5,1.1,2.5,2.5S79.7,55,78.4,55s-2.5-1.1-2.5-2.5S77,50.1,78.4,50.1z M73.1,51.9c1.4,0,2.5,1.1,2.5,2.5s-1.1,2.5-2.5,2.5s-2.5-1.1-2.5-2.5S71.7,51.9,73.1,51.9z M68.6,55.2c1.4,0,2.5,1.1,2.5,2.5s-1.1,2.5-2.5,2.5s-2.5-1.1-2.5-2.5S67.3,55.2,68.6,55.2z M65.5,59.7c1.4,0,2.5,1.1,2.5,2.5s-1.1,2.5-2.5,2.5S63,63.6,63,62.2S64.1,59.7,65.5,59.7z M64,65.1c1.4,0,2.5,1.1,2.5,2.5S65.3,70,64,70c-1.4,0-2.5-1.1-2.5-2.5S62.6,65.1,64,65.1z M64,70.7c1.4,0,2.5,1.1,2.5,2.5s-1.1,2.5-2.5,2.5s-2.5-1.1-2.5-2.5S62.6,70.7,64,70.7z M65.1,76.1c1.4,0,2.5,1.1,2.5,2.5s-1.1,2.5-2.5,2.5s-2.5-1.1-2.5-2.5S63.7,76.1,65.1,76.1z M115.6,54c-1.4,0-2.5,1.1-2.5,2.5s1.1,2.5,2.5,2.5s2.5-1.1,2.5-2.5S116.9,54,115.6,54z M121.1,52.7c-1.4,0-2.5,1.1-2.5,2.5s1.1,2.5,2.5,2.5s2.5-1.1,2.5-2.5S122.5,52.7,121.1,52.7z M126.7,51.3c-1.4,0-2.5,1.1-2.5,2.5s1.1,2.5,2.5,2.5c1.4,0,2.5-1.1,2.5-2.5S128.1,51.3,126.7,51.3z M132.4,50.3c-1.4,0-2.5,1.1-2.5,2.5s1.1,2.5,2.5,2.5s2.5-1.1,2.5-2.5S133.8,50.3,132.4,50.3z M138.1,49.8c-1.4,0-2.5,1.1-2.5,2.5s1.1,2.5,2.5,2.5s2.5-1.1,2.5-2.5S139.4,49.8,138.1,49.8z M143.6,50.1c-1.4,0-2.5,1.1-2.5,2.5s1.1,2.5,2.5,2.5s2.5-1.1,2.5-2.5S145,50.1,143.6,50.1z M148.9,51.9c-1.4,0-2.5,1.1-2.5,2.5s1.1,2.5,2.5,2.5s2.5-1.1,2.5-2.5S150.2,51.9,148.9,51.9z M153.3,55.2c-1.4,0-2.5,1.1-2.5,2.5s1.1,2.5,2.5,2.5s2.5-1.1,2.5-2.5S154.7,55.2,153.3,55.2z M156.5,59.7c-1.4,0-2.5,1.1-2.5,2.5s1.1,2.5,2.5,2.5s2.5-1.1,2.5-2.5S157.9,59.7,156.5,59.7z M158,65.1c-1.4,0-2.5,1.1-2.5,2.5s1.1,2.5,2.5,2.5s2.5-1.1,2.5-2.5S159.4,65.1,158,65.1z M158,70.7c-1.4,0-2.5,1.1-2.5,2.5s1.1,2.5,2.5,2.5s2.5-1.1,2.5-2.5S159.3,70.7,158,70.7z M156.9,76.1c-1.4,0-2.5,1.1-2.5,2.5s1.1,2.5,2.5,2.5s2.5-1.1,2.5-2.5S158.3,76.1,156.9,76.1z M107.5,59.8l-0.2,3.2c-6.1-0.9-14.9-4.4-23-4.4c-7.5,0-13.3,3-13.3,10.6c0,7.5,3.2,14.2,7.4,21.1L74,92.4c-3.9-7.6-7.1-14-7.1-22.7c0-7.3,5.7-14.5,15.6-14.5C91.2,55.2,100.1,58.1,107.5,59.8z M114.5,59.8l0.2,3.2c6.1-0.9,14.9-4.4,23-4.4c7.5,0,13.3,3,13.3,10.6c0,7.5-3.2,14.2-7.4,21.1l4.4,2.1c3.9-7.6,7.1-14,7.1-22.7c0-7.3-5.7-14.5-15.6-14.5C130.8,55.2,121.8,58.1,114.5,59.8z M111,26.6l-2.6,4.8l2.6,4.8l2.6-4.8L111,26.6z M111,38.8l-2.6,4.8l2.6,4.8l2.6-4.8L111,38.8z M101.8,37.5l4.1,2.6l4.1-2.6l-4.1-2.6L101.8,37.5z M112.1,37.5l4.1,2.6l4.1-2.6l-4.1-2.6L112.1,37.5z" />
  <path fill="#FFD83D" stroke="#000000" stroke-linecap="round" d="M111,35.6c1.1,0,2,0.9,2,2s-0.9,2-2,2s-2-0.9-2-2S109.9,35.6,111,35.6z M111,44.8c2.9,0,5.2,2.3,5.2,5.2s-2.3,5.2-5.2,5.2s-5.2-2.3-5.2-5.2S108.1,44.8,111,44.8z M105.9,58.8c-0.5,8.5-1.5,17.2-4.8,23.6l5.4-2.2c1.9-7.2,2.3-16.4,2.9-20.8L105.9,58.8z M116.1,58.8l-3.4,0.6c0.6,4.4,1,13.6,2.9,20.8l5.4,2.2C117.6,76.1,116.6,67.4,116.1,58.8z" />
  <path fill="none" stroke="#000000" stroke-width="0.75" stroke-linecap="round" d="M109.7,44.9c0,1.6,0,2.5,0,3.3c-1.3,0.1-2.5,0.2-3.7,0.4 M116,48.6c-1.2-0.2-2.5-0.3-3.7-0.4c0-0.8,0-1.8,0-3.3 M105.9,51.3c1.6-0.3,3.3-0.4,5.1-0.4s3.4,0.1,5.1,0.4" />
  <path fill="#FFD83D" stroke="#000000" stroke-linecap="round" d="M111,77.3c-6.5,0-11.2,3-11.5,10.8c-1.6-2.8-8.3-11.5-14.5-10.3c-3.7,0.7-7,5.8-6.4,11.7c-3.1-8.8-12.1-10.3-18.6-5c5.8,4.8,8.4,18.9,13.3,25H111h37.7c4.9-6.1,7.5-20.3,13.3-25c-6.6-5.2-15.5-3.8-18.6,5c0.6-5.9-2.7-11-6.4-11.7c-6.2-1.2-12.9,7.6-14.5,10.3C122.2,80.4,117.4,77.3,111,77.3z" />
  <path fill="#000000" stroke="#000000" stroke-width="0.75" stroke-linecap="round" d="M148.6,109.5c0,2.8-16.8,5.9-37.6,5.9s-37.6-3.1-37.6-5.9s16.8-4.3,37.6-4.3S148.6,106.7,148.6,109.5z" />
  <path fill="#FFD83D" stroke="#000000" stroke-width="0.75" stroke-linecap="round" d="M111,55.5c1,0,1.8,0.8,1.8,1.8S112,59,111,59s-1.8-0.8-1.8-1.8S110,55.5,111,55.5z M111,59.1c1,0,1.9,0.8,1.9,1.9s-0.8,1.9-1.9,1.9s-1.9-0.8-1.9-1.9S110,59.1,111,59.1z M111,63.1c1.1,0,2,0.9,2,2s-0.9,2-2,2s-2-0.9-2-2C108.9,64,109.9,63.1,111,63.1z M111,67.3c1.3,0,2.3,1,2.3,2.3s-1,2.3-2.3,2.3s-2.3-1-2.3-2.3S109.7,67.3,111,67.3z M111,72.1c1.4,0,2.6,1.1,2.6,2.6s-1.1,2.6-2.6,2.6s-2.6-1.1-2.6-2.6S109.6,72.1,111,72.1z" />
  <path fill="#000000" d="M110,79.6c-0.3,0-0.5,0.2-0.5,0.7c0.1,0.5,0.2,1.5,0.3,2.2c0.1,0.7,0.5,0.6,0.7,0c0.1-0.6,0.1-1,0.1-2C110.5,79.8,110.2,79.6,110,79.6z M112,79.6c-0.3,0-0.6,0.2-0.6,0.8c0,1.1,0,1.5,0.1,2c0.1,0.6,0.5,0.8,0.7,0c0.1-0.7,0.2-1.6,0.3-2.2C112.5,79.8,112.3,79.6,112,79.6z M108.2,79.9c-0.3,0-0.5,0.3-0.5,0.6c0,0.5,0.2,1.1,0.2,1.8c0.1,0.8,0.6,0.5,0.7,0c0.1-0.4,0.1-1.1,0.1-2c0-0.3-0.2-0.5-0.3-0.5C108.2,79.9,108.2,79.9,108.2,79.9z M113.7,79.9c-0.2,0-0.3,0.2-0.3,0.5c-0.1,0.9,0,1.5,0.1,2c0.1,0.4,0.6,0.7,0.7,0s0.2-1.3,0.2-1.8c0-0.3-0.2-0.5-0.5-0.6C113.8,79.9,113.7,79.9,113.7,79.9z M106,80.8c-0.2,0.1-0.4,0.3-0.4,0.7c0.1,0.6,0.3,1.3,0.3,2c0,0.6,0.5,0.4,0.5,0s0.1-1.2,0.1-2C106.5,80.9,106.2,80.7,106,80.8z M115.8,80.8c-0.2,0-0.3,0.2-0.3,0.7c0,0.7,0.1,1.6,0.1,2s0.5,0.6,0.5,0s0.1-1.3,0.3-2c0.1-0.3-0.1-0.6-0.4-0.7C115.9,80.7,115.9,80.7,115.8,80.8z M86.3,80.8c-0.3,0-0.5,0.4-0.3,0.8c0.3,0.7,0.6,1.1,0.9,1.8c0.3,0.6,0.7,0.2,0.6-0.2c-0.1-0.4-0.3-0.9-0.7-1.9C86.6,81,86.4,80.9,86.3,80.8z M135.7,80.8c-0.2,0-0.4,0.1-0.5,0.5c-0.4,0.9-0.6,1.4-0.7,1.9c-0.1,0.4,0.3,0.8,0.6,0.2c0.3-0.7,0.6-1.1,0.9-1.8C136.2,81.2,136,80.8,135.7,80.8z M88.3,80.9c-0.2,0.1-0.3,0.3-0.2,0.6c0.2,0.6,0.6,1.2,0.9,1.9c0.2,0.6,0.7,0.4,0.5-0.1s-0.2-0.8-0.5-1.8C88.8,81,88.5,80.8,88.3,80.9z M133.5,80.9c-0.2,0-0.4,0.2-0.5,0.6c-0.3,1-0.4,1.3-0.5,1.8c-0.2,0.5,0.3,0.7,0.5,0.1c0.3-0.7,0.6-1.3,0.9-1.9c0.1-0.3,0-0.6-0.2-0.6C133.6,80.9,133.6,80.9,133.5,80.9z M90.8,81.4c-0.3,0-0.5,0.4-0.3,0.9c0.2,0.6,0.5,1.2,0.8,1.9s0.7,0.6,0.6,0.1c-0.1-0.4-0.2-1.2-0.6-2.3C91.2,81.5,91,81.3,90.8,81.4z M131.2,81.4c-0.2,0-0.4,0.1-0.6,0.6c-0.3,1.1-0.5,1.8-0.6,2.3c-0.1,0.4,0.3,0.6,0.6-0.1s0.6-1.3,0.8-1.9C131.6,81.8,131.4,81.4,131.2,81.4z M84.6,81.7c-0.3,0-0.5,0.5-0.4,0.8c0.3,0.6,0.5,0.7,0.7,1.3c0.3,0.6,0.6,0.1,0.5-0.2c-0.1-0.4-0.3-0.8-0.4-1.4C84.9,81.8,84.8,81.7,84.6,81.7z M137.4,81.7c-0.2,0-0.3,0.1-0.4,0.5c-0.1,0.6-0.3,1-0.4,1.4s0.2,0.9,0.5,0.2c0.3-0.6,0.4-0.8,0.7-1.3C137.9,82.2,137.7,81.7,137.4,81.7z M103.9,83.1c-0.3,0-0.6,0.4-0.5,0.8c0.2,0.6,0.4,1.1,0.6,1.8c0.2,0.7,0.6,0.3,0.6-0.1s-0.1-1-0.3-2C104.2,83.3,104,83.1,103.9,83.1z M118.1,83.1c-0.2,0-0.3,0.1-0.4,0.5c-0.2,0.9-0.3,1.5-0.3,2c0,0.4,0.4,0.8,0.6,0.1c0.2-0.7,0.4-1.3,0.6-1.8C118.7,83.5,118.4,83.1,118.1,83.1z M111,83.7c-0.4,0-0.4,0.5-0.4,0.9c0,1.3-0.6,2.5-1,3.2c-0.5,0.6-1.1,0.5-1.8,0.1s-1-0.6-1.7-1.1s-1.2-0.2-0.4,0.9c2.3,3.3,4.8,6.1,4.8,11.5c0,0.7,0.1,0.9,0.4,0.9s0.4-0.2,0.4-0.9c0-5.4,2.5-8.2,4.8-11.5c0.8-1.1,0.3-1.4-0.4-0.9c-0.7,0.5-1,0.7-1.7,1.1c-0.6,0.3-1.3,0.5-1.8-0.1s-1-1.9-1-3.2C111.4,84.2,111.3,83.7,111,83.7z M93.3,82.9L93.3,82.9C93.1,83,93,83.1,93,83.4c0.1,0.5,0.4,1.5,0.6,2c0.1,0.5,0.7,0.4,0.6-0.3c-0.1-0.6-0.1-0.8-0.3-1.5C93.8,83.1,93.6,82.9,93.3,82.9z M128.6,82.9c-0.2,0-0.5,0.2-0.6,0.6c-0.2,0.7-0.2,0.9-0.3,1.5c-0.1,0.6,0.4,0.7,0.6,0.3c0.1-0.5,0.5-1.5,0.6-2C128.9,83.1,128.9,82.9,128.6,82.9C128.7,82.9,128.7,82.9,128.6,82.9z M82.9,83.1c-0.3,0-0.5,0.4-0.2,0.9c0.3,0.6,0.9,1.3,1.1,1.7s0.7,0.1,0.4-0.4c-0.3-0.5-0.4-1.1-0.8-1.9C83.2,83.2,83,83.1,82.9,83.1z M139.1,83.1c-0.2,0-0.4,0.1-0.5,0.4c-0.4,0.7-0.5,1.3-0.8,1.9c-0.3,0.5,0.1,0.8,0.4,0.4s0.8-1.1,1.1-1.7C139.6,83.5,139.4,83.1,139.1,83.1z M67,84.8c-0.3,0-0.4,0.6-0.1,1c0.5,0.6,0.8,0.9,1.3,1.4c0.4,0.4,0.5-0.1,0.3-0.5s-0.5-0.8-0.9-1.4C67.4,84.9,67.2,84.8,67,84.8z M155,84.8c-0.2,0-0.4,0.1-0.6,0.5c-0.4,0.6-0.7,1-0.9,1.4s-0.1,0.9,0.3,0.5c0.5-0.5,0.8-0.8,1.3-1.4C155.4,85.3,155.3,84.7,155,84.8z M69.5,85.3c-0.3,0-0.4,0.2-0.2,0.7c0.3,0.7,0.7,1.4,0.9,1.9c0.2,0.5,1,0.7,0.7-0.1c-0.3-0.8-0.4-1.2-0.6-1.9C70.2,85.4,69.8,85.3,69.5,85.3z M152.4,85.3c-0.3,0-0.6,0.2-0.8,0.5c-0.3,0.7-0.3,1.1-0.6,1.9s0.5,0.6,0.7,0.1s0.6-1.2,0.9-1.9C152.9,85.5,152.7,85.3,152.4,85.3z M64.7,85.4c-0.4,0-0.4,0.4-0.1,0.6c0.5,0.3,1,0.7,1.5,1.1c0.6,0.5,0.9,0,0.5-0.4c-0.3-0.4-0.7-0.8-1.5-1.2C64.9,85.5,64.8,85.4,64.7,85.4z M157.3,85.4c-0.1,0-0.3,0-0.5,0.1c-0.8,0.4-1.2,0.8-1.5,1.2c-0.3,0.4-0.1,0.9,0.5,0.4c0.5-0.4,1.1-0.8,1.5-1.1C157.7,85.8,157.7,85.4,157.3,85.4z M102.5,85.8c-0.2,0-0.4,0.3-0.3,0.6c0.2,0.6,0.4,1.2,0.5,1.8c0.1,0.6,0.8,0.6,0.7,0.1c-0.1-0.5-0.2-1.2-0.4-2C102.9,86,102.7,85.8,102.5,85.8L102.5,85.8z M119.4,85.8c-0.2,0-0.3,0.2-0.4,0.5c-0.2,0.8-0.2,1.5-0.4,2c-0.1,0.5,0.6,0.5,0.7-0.1s0.3-1.2,0.5-1.8C119.9,86.1,119.7,85.8,119.4,85.8C119.5,85.8,119.4,85.8,119.4,85.8z M87.4,84.8c-0.2,0-0.3,0.4-0.1,0.8c0.7,2.5,0.9,3.9,0.8,4.5s-0.5,0.7-0.9,0.5c-0.5-0.2-1-0.5-1.4-0.8s-0.8,0.1-0.2,0.5c3,2.5,5.1,5.3,5.9,8.8c0.2,0.7,0.6,0.8,0.5,0c-0.7-4.3-0.8-7.9,0.2-10.2c0.4-0.8,0-1.6-0.6-0.3c-0.4,0.9-1.1,1.3-1.6,0.5s-1.7-2.9-2-3.8C87.8,85,87.6,84.8,87.4,84.8C87.5,84.8,87.5,84.8,87.4,84.8z M134.5,84.8c-0.1,0-0.3,0.2-0.4,0.5c-0.3,1-1.4,3.1-2,3.8c-0.5,0.8-1.2,0.4-1.6-0.5c-0.6-1.4-1-0.6-0.6,0.3c1,2.2,0.9,5.8,0.2,10.2c-0.1,0.8,0.3,0.7,0.5,0c0.8-3.4,2.9-6.3,5.9-8.8c0.6-0.5,0.2-0.8-0.2-0.5s-1,0.6-1.4,0.8c-0.5,0.2-0.8,0.1-0.9-0.5c-0.1-0.6,0.1-2,0.8-4.5C134.8,85.2,134.7,84.8,134.5,84.8L134.5,84.8z M72.2,86c-0.3,0-0.5,0.2-0.4,0.6c0.2,0.7,0.6,1.4,0.8,1.8c0.1,0.4,0.6,0.2,0.5-0.4s-0.1-0.9-0.2-1.6C72.8,86.2,72.5,86,72.2,86z M149.8,86c-0.3,0-0.6,0.2-0.6,0.5c-0.1,0.6-0.2,1-0.2,1.6s0.4,0.8,0.5,0.4s0.6-1.1,0.8-1.8C150.2,86.2,150,86,149.8,86z M81.6,85.1c-0.3-0.1-0.4,0.8-0.1,1.1c0.4,0.4,0.9,1,1.4,1.6c0.4,0.5,0.7,0.1,0.4-0.4C83,87,82.7,86.6,82,85.5C81.8,85.3,81.7,85.2,81.6,85.1z M140.4,85.1c-0.1,0-0.2,0.1-0.4,0.4c-0.7,1.1-1,1.5-1.3,1.9c-0.2,0.4,0,0.9,0.4,0.4c0.5-0.6,1-1.1,1.4-1.6C140.7,85.9,140.7,85.1,140.4,85.1z M74.4,87.1c-0.2,0-0.4,0.1-0.3,0.5c0.1,0.6,0.3,1,0.4,1.5S75,89.5,75,89s-0.1-1.1-0.2-1.6C74.8,87.3,74.6,87.1,74.4,87.1z M147.6,87.1c-0.2,0-0.4,0.2-0.5,0.5c-0.1,0.5-0.2,1.1-0.2,1.6s0.4,0.6,0.5,0.1s0.3-1,0.4-1.5C148,87.3,147.8,87.1,147.6,87.1z M80.9,87.8c-0.3,0-0.6,0.3-0.2,0.8c0.6,0.7,1.2,1.3,1.4,1.5c0.2,0.3,0.8,0.2,0.4-0.4s-0.9-1.3-1.2-1.8C81.3,87.9,81.1,87.8,80.9,87.8z M140.9,87.8c-0.1,0-0.3,0.1-0.3,0.2c-0.2,0.4-0.8,1.2-1.2,1.8c-0.4,0.6,0.2,0.7,0.4,0.4c0.2-0.3,0.9-0.8,1.4-1.5c0.4-0.5,0.1-0.8-0.2-0.8C141,87.8,141,87.8,140.9,87.8z M70.6,89.9c-0.2,0-0.3,0.2,0,0.6c0.7,1,1.6,2.6,1.6,3.2c0.1,0.7-0.3,0.7-0.6,0.7c-0.9,0-1.4-0.7-2.2-0.9c-0.8-0.2-0.9,0.2-0.4,0.7c3,2.2,6.1,4.7,7.3,6.9c0.5,0.9,1.2,1.2,0.8,0.4c-1.1-2.7-1.4-4.9-1.2-6.3c0.2-1.4,0.6-2.3,0.5-3.1c0-0.8-0.5-0.7-0.7,0c-0.1,0.5-0.4,1.2-0.5,1.4c-0.2,0.2-0.8,0.4-1.5-0.5c-0.6-0.9-2.2-2.5-2.8-2.9C70.9,90,70.7,89.9,70.6,89.9z M151.4,89.9c-0.1,0-0.3,0.1-0.5,0.3c-0.5,0.4-2.1,2.1-2.8,2.9c-0.6,0.9-1.3,0.7-1.5,0.5s-0.4-0.9-0.5-1.4c-0.2-0.7-0.6-0.8-0.7,0c0,0.8,0.3,1.7,0.5,3.1s0,3.6-1.2,6.3c-0.4,0.9,0.3,0.5,0.8-0.4c1.2-2.2,4.3-4.7,7.3-6.9c0.6-0.4,0.5-0.9-0.4-0.7c-0.8,0.2-1.3,0.9-2.2,0.9c-0.3,0-0.6,0-0.6-0.7c0.1-0.7,0.9-2.2,1.6-3.2C151.7,90.1,151.6,89.9,151.4,89.9z" />
  <path fill="#FFD83D" stroke="#000000" stroke-width="0.75" stroke-linecap="round" d="M75.1,106.3l1,3.1 M77.1,105.7l0.9,3.1 M79.2,105.4l0.6,3.2 M81.2,105l0.6,3.2 M83.8,104.7l0.5,3.2 M86.6,104.7l0.6,3.2 M89.2,103.8l0.4,3.2 M91.8,104l0.4,3.2 M94.2,103.7l0.4,3.2 M96.6,103.4l0.2,3.2 M99.3,103.4l0.2,3.2 M101.6,103.2l0.2,3.2 M104.2,103.1l0.1,3.2 M107.2,103l0.1,3.2 M146.9,106.3l-1,3.1 M144.9,105.7l-0.9,3.1 M142.7,105.4l-0.6,3.2 M140.7,105l-0.6,3.2 M138.1,104.7l-0.5,3.2 M135.4,104.7l-0.6,3.2 M132.7,103.8l-0.4,3.2 M130.2,104l-0.4,3.2 M127.8,103.7l-0.4,3.2 M125.3,103.4l-0.2,3.2 M122.7,103.4l-0.2,3.2 M120.3,103.2l-0.2,3.2 M117.7,103.1l-0.1,3.2 M114.7,103l-0.1,3.2 M111,102.8v3.6" />
</svg>
