<svg xmlns="http://www.w3.org/2000/svg" width="450px" height="300px" viewBox="0 0 450 300">
  <path fill="#DE0000" d="M0,0h450v300H0V0z" />
  <path fill="#068E6B" d="M0,112.5h450v75H0V112.5z" />
  <path fill="#FFD900" d="M65,15l-3.368,10.365H50.734l8.817,6.406l-3.368,10.365L65,35.729l8.817,6.406L70.449,31.77l8.817-6.406H68.368L65,15z M65,20.4l2.155,6.633h6.975l-5.643,4.1l2.155,6.633L65,33.667l-5.643,4.1l2.155-6.633l-5.643-4.1h6.975L65,20.4z M93.788,103.812c-1.608,1.592-4.205,1.583-5.802-0.02c-2.626-2.842-5.29-5.656-7.973-8.455c-3.114,1.776-6.774,2.74-10.794,2.646c-6.437-0.151-12.195-3.036-16.034-7.553c-0.219,0.902-0.833,1.658-1.672,2.058c-0.043,0.03-0.091,0.06-0.151,0.088c-2.503,1.198-4.474,3.327-5.391,5.941c-0.411,1.305-1.249,2.637-2.368,3.762c-1.973,1.979-4.496,3.007-6.353,2.589c-0.197,0.087-0.409,0.132-0.624,0.133c-0.859,0-1.555-0.695-1.555-1.551c0.001-0.171,0.029-0.34,0.085-0.501c-0.565-1.856,0.439-4.5,2.493-6.567c1.039-1.041,2.26-1.845,3.478-2.29c0.022-0.011,0.044-0.022,0.07-0.031c2.634-0.891,4.811-2.838,6.051-5.32c0.373-1.124,1.358-1.935,2.535-2.089c0.468-0.551,1.155-0.869,1.879-0.869c0.301,0,0.599,0.055,0.88,0.163l1.65-1.385c2.983,3.297,7.3,5.368,12.103,5.368c2.495,0,4.853-0.575,6.971-1.575c-5.981-6.156-11.989-12.295-17.842-18.555l-7.039,6.973l-7.465-7.497l14.927-14.786l13.194,1.822l-9.484,9.394c6.447,6.087,12.902,12.185,19.357,18.278c2.314-2.805,3.699-6.395,3.677-10.308c-0.025-4.378-1.25-9.854-4.038-15.099C75.803,53.4,71.141,48.45,65,45c7.035,1.855,13.248,6.064,17.485,11.133c5.545,6.633,7.978,14.721,7.773,20.994c-0.171,5.215-1.83,9.751-4.55,13.26c2.7,2.546,5.403,5.099,8.1,7.638C95.405,99.629,95.396,102.219,93.788,103.812z M65,45L65,45L65,45L65,45z" />
</svg>
