<svg xmlns="http://www.w3.org/2000/svg" width="450px" height="300px" viewBox="0 0 450 300">
  <path fill="#FFFFFF" d="M0,0h450v300H0V0z" />
  <path fill="#DD7500" d="M0,290.4V0h450v63.6L0,290.4z" />
  <path fill="#003893" d="M0,285.6V0h450v4.8L0,285.6z M0,295.2v4.8h450V122.4L0,295.2z" />
  <path fill="#FFFFFF" d="M106.536,16.536l3.84,63.852l13.392-35.184l-5.988,37.164l22.056-30.516l-15.408,34.356l29.196-23.772l-23.76,29.196l34.344-15.396L133.692,98.28l37.176-5.988l-35.184,13.404l63.852,3.84l-63.852,3.84l35.184,13.392l-37.176-5.988l30.516,22.056l-34.344-15.408l23.76,29.196l-29.196-23.76l15.408,34.344l-22.056-30.516l5.988,37.176l-13.392-35.184l-3.84,63.852l-3.84-63.852l-13.404,35.184l5.988-37.176l-22.044,30.516l15.396-34.344l-29.196,23.76l23.772-29.196l-34.356,15.408l30.516-22.056l-37.164,5.988l35.184-13.392l-63.852-3.84l63.852-3.84L42.204,92.292l37.164,5.988L48.852,76.236l34.356,15.396L59.436,62.436l29.196,23.772L73.236,51.852L95.28,82.368l-5.988-37.164l13.404,35.184L106.536,16.536z" />
</svg>
