<svg xmlns="http://www.w3.org/2000/svg" width="450px" height="300px" viewBox="0 0 450 300">
  <path fill="#003580" d="M0,300V0h450L0,300z" />
  <path fill="#009543" d="M450,0v300H0L450,0z" />
  <path fill="#FFFFFF" d="M0,300h90.139L450,60.093V0h-90.139L0,239.907V300z" />
  <path fill="#D21034" d="M0,300h67.604L450,45.07V0h-67.604L0,254.93V300z" />
  <path fill="#FFCE00" d="M90,31.705l7.765,21.025c-2.478-0.665-5.08-1.025-7.765-1.025s-5.287,0.36-7.765,1.025L90,31.705z M65,81.705c0,13.785,11.215,25,25,25s25-11.215,25-25s-11.215-25-25-25S65,67.92,65,81.705z M118.98,89.47L140,81.705l-21.02-7.76l14.32-17.24l-22.085,3.79L115,38.405L97.765,52.73C110.554,56.161,120,67.848,120,81.705c0,16.542-13.458,30-30,30s-30-13.458-30-30c0-13.857,9.446-25.544,22.235-28.975L65,38.405l3.785,22.09L46.7,56.705l14.32,17.24L40,81.705l21.02,7.765L46.7,106.705l22.085-3.785L65,125.01l17.235-14.325L90,131.705l7.765-21.02L115,125.01l-3.785-22.09l22.085,3.785L118.98,89.47z" />
</svg>
