<svg xmlns="http://www.w3.org/2000/svg" width="450px" height="300px" viewBox="0 0 450 300">
  <path fill="#FEDD00" d="M450.25,0v300h-450V0H450.25z" />
  <path fill="#012169" d="M225,112.5H0V0h225V112.5z" />
  <path fill="#FFFFFF" d="M225,12.578L175.156,37.5H225V75h-49.844L225,99.922V112.5l0,0h-25.155L131.25,78.203V112.5h-37.5V78.203L25.155,112.5H0l0,0V99.922L49.844,75H0V37.5h49.844L0,12.578V0h25.156L93.75,34.297V0h37.5v34.297L199.844,0H225V12.578z" />
  <path fill="#C8102E" d="M133.23,37.5l75-37.5H225l0,0l-75,37.5H133.23z M75,37.5L0,0v8.385L58.229,37.5H75z M225,104.115L166.77,75H150l75,37.5l0,0V104.115z M101.25,112.5h22.5v-45H225V45H123.75V0h-22.5v45H0v22.5h101.25V112.5z M91.77,75H75L0,112.5h16.771L91.77,75z" />
  <path fill="#012169" d="M112.5,37.11c10.571,0,19.14,8.569,19.14,19.14s-8.569,19.14-19.14,19.14s-19.14-8.569-19.14-19.14S101.929,37.11,112.5,37.11z" />
  <path fill="#FEDD00" d="M130.703,50.336l-11.25,8.174l4.297,13.225l-11.25-8.174l-11.25,8.174l4.297-13.225l-11.25-8.174h13.906L112.5,37.11l4.297,13.225H130.703z M49.401,53.861l-2.526-7.774l-2.526,7.774h-8.174l6.613,4.804l-2.526,7.774l6.613-4.804l6.613,4.804l-2.526-7.774l6.613-4.804H49.401z M105.887,28.939l6.613-4.804l6.613,4.804l-2.526-7.774l6.613-4.804h-8.174L112.5,8.588l-2.526,7.774h-8.174l6.613,4.804L105.887,28.939z M115.026,91.361l-2.526-7.774l-2.526,7.774h-8.174l6.613,4.804l-2.526,7.774l6.613-4.804l6.613,4.804l-2.526-7.774l6.613-4.804H115.026z M188.824,53.861h-8.174l-2.526-7.774l-2.526,7.774h-8.174l6.613,4.804l-2.526,7.774l6.613-4.804l6.613,4.804l-2.526-7.774L188.824,53.861z" />
</svg>
