<svg xmlns="http://www.w3.org/2000/svg" width="450px" height="300px" viewBox="0 0 450 300">
  <path fill="#FFFFFF" d="M0,300h450V0H0V300z" />
  <path fill="#1E3061" d="M0,0h180v300H0V0z" />
  <path fill="#FFFFFF" d="M38.294,38.591h28.344v35.853H38.294V38.591z" />
  <path fill="#E83028" d="M30.14,60.346c0,6.101,2.515,11.651,6.571,15.681c4.068,4.043,9.702,6.552,15.828,6.552c6.164,0,11.843-2.579,15.898-6.609s6.423-9.564,6.423-15.702l0.041-30.195l-44.755,0.094L30.14,60.346z M65.846,39.217l0.028,19.049v2.098c0,0.537-0.074,1.255-0.138,1.767c-0.374,3.044-1.602,5.543-3.661,7.602c-2.421,2.408-6.021,3.965-9.701,3.965c-3.668,0-6.815-1.555-9.248-3.975c-2.495-2.483-3.92-6.089-3.92-9.607V39.189L65.846,39.217z" />
  <path fill="#0C2B5C" d="M47.418,56.805v-4.23h-5.889l-0.012,4.23c0,0.873,0.337,1.659,0.873,2.233c0.537,0.574,1.273,0.936,2.084,0.936s1.547-0.362,2.084-0.936C47.095,58.477,47.419,57.678,47.418,56.805L47.418,56.805z M42.939,53.598c0.324,0,0.586,0.262,0.586,0.586c0,0.324-0.262,0.586-0.586,0.586c-0.312,0-0.586-0.262-0.586-0.586C42.353,53.861,42.627,53.598,42.939,53.598 M42.951,57.978c-0.324,0-0.586-0.262-0.586-0.586c0-0.312,0.262-0.586,0.586-0.586c0.324,0,0.586,0.275,0.586,0.586C43.537,57.716,43.275,57.978,42.951,57.978 M44.498,56.343c-0.324,0-0.586-0.262-0.586-0.586c0-0.324,0.262-0.586,0.586-0.586c0.324,0,0.586,0.262,0.586,0.586C45.084,56.081,44.822,56.343,44.498,56.343 M46.132,57.978c-0.324,0-0.574-0.262-0.574-0.586c0-0.324,0.25-0.586,0.574-0.586s0.586,0.262,0.586,0.586C46.719,57.716,46.457,57.978,46.132,57.978 M46.132,54.771c-0.312,0-0.574-0.262-0.574-0.586c0-0.324,0.262-0.586,0.574-0.586c0.324,0,0.586,0.262,0.586,0.586C46.719,54.509,46.457,54.771,46.132,54.771 M63.739,56.805v-4.23H57.85l-0.012,4.23c0,0.873,0.337,1.659,0.873,2.233c0.537,0.574,1.273,0.936,2.084,0.936s1.547-0.362,2.084-0.936C63.415,58.477,63.739,57.678,63.739,56.805L63.739,56.805z M59.259,53.598c0.324,0,0.586,0.262,0.586,0.586c0,0.324-0.262,0.586-0.586,0.586c-0.324,0-0.586-0.262-0.586-0.586C58.673,53.861,58.935,53.598,59.259,53.598 M59.271,57.978c-0.324,0-0.586-0.262-0.586-0.586c0-0.312,0.262-0.586,0.586-0.586c0.312,0,0.574,0.275,0.574,0.586C59.845,57.716,59.583,57.978,59.271,57.978 M60.818,56.343c-0.324,0-0.586-0.262-0.586-0.586c0-0.324,0.262-0.586,0.586-0.586c0.324,0,0.586,0.262,0.586,0.586C61.405,56.081,61.143,56.343,60.818,56.343 M62.453,57.978c-0.324,0-0.586-0.262-0.586-0.586c0-0.324,0.262-0.586,0.586-0.586c0.324,0,0.586,0.262,0.586,0.586C63.039,57.716,62.777,57.978,62.453,57.978 M62.453,54.771c-0.324,0-0.574-0.262-0.574-0.586c0-0.324,0.25-0.586,0.574-0.586s0.586,0.262,0.586,0.586C63.039,54.509,62.777,54.771,62.453,54.771 M55.578,56.806v-4.23h-5.889l-0.012,4.23c0,0.873,0.337,1.659,0.873,2.233c0.537,0.574,1.273,0.936,2.084,0.936s1.547-0.362,2.084-0.936C55.255,58.478,55.579,57.679,55.578,56.806L55.578,56.806z M51.099,53.599c0.324,0,0.586,0.262,0.586,0.586c0,0.324-0.262,0.586-0.586,0.586c-0.324,0-0.586-0.262-0.586-0.586S50.775,53.599,51.099,53.599 M51.111,57.978c-0.324,0-0.586-0.262-0.586-0.586c0-0.312,0.262-0.586,0.586-0.586c0.312,0,0.574,0.275,0.574,0.586C51.685,57.716,51.423,57.978,51.111,57.978 M52.658,56.344c-0.324,0-0.586-0.262-0.586-0.586c0-0.324,0.262-0.586,0.586-0.586c0.324,0,0.586,0.262,0.586,0.586C53.245,56.082,52.982,56.344,52.658,56.344 M54.293,57.978c-0.324,0-0.586-0.262-0.586-0.586c0-0.324,0.262-0.586,0.586-0.586c0.324,0,0.586,0.262,0.586,0.586C54.879,57.716,54.617,57.978,54.293,57.978 M54.293,54.772c-0.324,0-0.586-0.262-0.586-0.586c0-0.324,0.262-0.586,0.586-0.586c0.324,0,0.586,0.262,0.586,0.586C54.879,54.51,54.617,54.772,54.293,54.772 M55.578,66.981v-4.23h-5.889l-0.012,4.217v0.011c0,0.861,0.337,1.659,0.873,2.233c0.537,0.574,1.273,0.936,2.084,0.936s1.547-0.362,2.084-0.936s0.861-1.36,0.861-2.233L55.578,66.981z M51.099,63.774c0.324,0,0.586,0.262,0.586,0.574c0,0.324-0.262,0.586-0.586,0.586c-0.324,0-0.586-0.262-0.586-0.586C50.513,64.036,50.775,63.774,51.099,63.774 M51.111,68.154c-0.324,0-0.586-0.262-0.586-0.586s0.262-0.586,0.586-0.586c0.312,0,0.574,0.262,0.574,0.586C51.685,67.891,51.423,68.154,51.111,68.154 M52.658,66.507c-0.324,0-0.586-0.262-0.586-0.586c0-0.312,0.262-0.574,0.586-0.574c0.324,0,0.586,0.262,0.586,0.574C53.245,66.244,52.982,66.507,52.658,66.507 M54.293,68.141c-0.324,0-0.586-0.262-0.586-0.574c0-0.324,0.262-0.586,0.586-0.586c0.324,0,0.586,0.262,0.586,0.586C54.879,67.879,54.617,68.141,54.293,68.141 M54.293,64.935c-0.324,0-0.586-0.262-0.586-0.586c0-0.312,0.262-0.574,0.586-0.574c0.324,0,0.586,0.262,0.586,0.574C54.879,64.672,54.617,64.935,54.293,64.935 M55.578,46.63V42.4h-5.889l-0.012,4.23c0,0.873,0.337,1.659,0.873,2.233c0.537,0.574,1.273,0.936,2.084,0.936s1.547-0.362,2.084-0.936C55.255,48.302,55.579,47.504,55.578,46.63L55.578,46.63z M51.099,43.424c0.324,0,0.586,0.262,0.586,0.586c0,0.312-0.262,0.586-0.586,0.586c-0.324,0-0.586-0.275-0.586-0.586C50.513,43.686,50.775,43.424,51.099,43.424 M51.111,47.803c-0.324,0-0.586-0.262-0.586-0.586c0-0.324,0.262-0.586,0.586-0.586c0.312,0,0.574,0.262,0.574,0.586S51.423,47.803,51.111,47.803 M52.658,46.169c-0.324,0-0.586-0.262-0.586-0.586c0-0.324,0.262-0.586,0.586-0.586c0.324,0,0.586,0.262,0.586,0.586C53.245,45.907,52.982,46.169,52.658,46.169 M54.293,47.803c-0.324,0-0.586-0.262-0.586-0.586c0-0.324,0.262-0.586,0.586-0.586c0.324,0,0.586,0.262,0.586,0.586C54.879,47.541,54.617,47.803,54.293,47.803 M54.293,44.597c-0.324,0-0.586-0.262-0.586-0.586c0-0.324,0.262-0.586,0.586-0.586c0.324,0,0.586,0.262,0.586,0.586C54.879,44.334,54.617,44.597,54.293,44.597" />
  <path fill="#211E1E" d="M52.509,82.702c-5.964,0-11.604-2.346-15.884-6.601C32.346,71.847,30,66.232,30,60.293V60.27L30.023,30h44.968v30.307c0,5.964-2.346,11.591-6.588,15.821c-4.267,4.242-9.907,6.576-15.896,6.576 M30.248,60.27v0.023c0,5.864,2.333,11.417,6.551,15.622c4.242,4.205,9.807,6.526,15.709,6.526c5.927,0,11.504-2.308,15.709-6.488c4.18-4.167,6.501-9.682,6.526-15.547V30.26H30.285L30.248,60.27z M52.495,73.833c-3.494,0-6.862-1.422-9.458-4.005c-2.52-2.508-3.968-5.977-3.968-9.495l-0.012-21.349l26.951,0.05v19.327l-0.012,2.034c0,0.561-0.039,1.173-0.099,1.684c-0.349,2.945-1.684,5.64-3.868,7.811C59.471,72.435,56.09,73.833,52.495,73.833 M39.321,39.246v21.087c0,3.456,1.422,6.85,3.905,9.308c2.545,2.545,5.839,3.943,9.271,3.943c3.531,0,6.85-1.385,9.358-3.88c2.134-2.121,3.444-4.766,3.781-7.661c0.062-0.499,0.099-1.098,0.099-1.647l0.012-2.034V39.296" />
  <path fill="#F8DE35" d="M66.207,67.827l-0.208,0.236l0.215,0.201l0.236-0.18l0.36,0.333l-0.236,0.222l0.243,0.236l0.208-0.215l0.346,0.305l-0.52,0.568l-0.416-0.014l-0.908,0.935l0.36,0.333l1.802-1.705l0.014-0.457l0.499-0.547l0.333,0.333l-0.229,0.236l0.256,0.229l0.229-0.194l0.367,0.319l-0.194,0.27l0.166,0.208l0.243-0.201l0.388,0.333l-0.547,0.554l-0.409-0.042l-1.802,1.85l0.409,0.298l0.873-0.873l0.042-0.43l0.478-0.499l0.333,0.312l-0.166,0.222l0.187,0.222l0.243-0.18l0.326,0.27l-0.187,0.298l0.194,0.18l0.243-0.201l0.36,0.333l-0.568,0.554l-0.374,0.007l-0.915,0.908l0.194,0.208l-0.021,0.402l-0.346,0.076l-0.118,0.201l-0.45,0.007l-1.483,1.822l-0.028,0.534h-0.402l-4.663-4.635l0.028-0.416l0.263-0.049l0.215,0.049l1.815-1.483l0.062-0.485l0.215-0.051l0.041-0.395l0.387-0.025l0.235,0.158l0.911-0.856v-0.428l0.552-0.525L66.207,67.827z M34.762,71.954l0.525,0.552h0.428l0.856,0.911l-0.158,0.235l0.025,0.387l0.395,0.041l0.051,0.215l0.485,0.062l1.483,1.815l-0.049,0.215l0.049,0.263l0.416,0.028l4.635-4.663v-0.402l-0.534-0.028l-1.822-1.483l-0.007-0.45l-0.201-0.118l-0.076-0.346l-0.402-0.021l-0.208,0.194l-0.908-0.915l-0.007-0.374l-0.554-0.568l-0.333,0.36l0.201,0.243l-0.18,0.194l-0.298-0.187l-0.27,0.326l0.18,0.243l-0.222,0.187l-0.222-0.166l-0.312,0.333l0.499,0.478l0.43,0.042l0.873,0.873l-0.298,0.409l-1.85-1.802l0.042-0.409L36.87,68.08l-0.333,0.388l0.201,0.243l-0.208,0.166l-0.27-0.194l-0.319,0.367l0.194,0.229l-0.229,0.256l-0.236-0.229l-0.333,0.333l0.547,0.499l0.457,0.014l1.705,1.802l-0.333,0.36l-0.935-0.908l0.014-0.416l-0.568-0.52l-0.305,0.346l0.215,0.208L35.9,71.267l-0.222-0.236l-0.333,0.36l0.18,0.236l-0.201,0.215l-0.236-0.208L34.762,71.954z M67.208,50.163l-0.02,0.761l0.303,0.303l-0.039,1.249l-0.278,0.054l-0.256,0.291l0.25,0.309l-0.116,0.188l0.299,0.387l-0.235,2.332l-0.186,0.118l-0.152,0.22l0.274,0.314l6.575-0.02l0.284-0.284l-0.358-0.397l-0.24-2.337l0.314-0.323l-0.059-0.225l0.191-0.299l-0.269-0.299l-0.284-0.01l0.005-1.289l0.26-0.269l0.01-0.794l-0.49,0.02l-0.029,0.314l-0.265,0.01l-0.078-0.343l-0.421,0.039l-0.044,0.299l-0.289-0.024l-0.039-0.274l-0.456,0.015l0.015,0.691l0.274,0.333v1.235l-0.5,0.078l-0.034-2.582l0.318-0.26l-0.005-0.779l-0.51,0.039l-0.029,0.314l-0.265-0.029l-0.054-0.328l-0.485,0.034l-0.024,0.299l-0.343,0.02l-0.005-0.328h-0.47l0.034,0.74l0.314,0.333l-0.069,2.479l-0.49,0.02l-0.02-1.303l0.304-0.284l-0.034-0.769l-0.461,0.029l0.005,0.299l-0.338,0.005l0.01-0.323l-0.49,0.02l-0.039,0.294l-0.294,0.01l-0.02-0.314L67.208,50.163z M31.522,50.168l-0.02,0.761l0.303,0.303l-0.039,1.249l-0.278,0.054l-0.256,0.291l0.25,0.309l-0.116,0.188l0.299,0.387l-0.235,2.332l-0.186,0.118l-0.152,0.22l0.274,0.314l6.575-0.02l0.284-0.284l-0.358-0.397l-0.24-2.337l0.314-0.323l-0.059-0.225l0.191-0.299l-0.269-0.299L37.52,52.5l0.005-1.289l0.26-0.269l0.01-0.794l-0.49,0.02l-0.029,0.314l-0.265,0.01l-0.078-0.343l-0.421,0.039l-0.044,0.299l-0.289-0.024l-0.039-0.274l-0.456,0.015l0.015,0.691l0.274,0.333v1.235l-0.5,0.078l-0.034-2.582l0.318-0.26l-0.005-0.779l-0.51,0.039l-0.029,0.314l-0.265-0.029l-0.054-0.328l-0.485,0.034l-0.024,0.299l-0.343,0.02l-0.005-0.328h-0.47l0.034,0.74l0.314,0.333l-0.069,2.479l-0.49,0.02l-0.02-1.303l0.304-0.284l-0.034-0.769l-0.461,0.029l0.005,0.299l-0.338,0.005l0.01-0.323l-0.49,0.02l-0.039,0.294l-0.294,0.01l-0.02-0.314L31.522,50.168z M67.239,32.005l-0.02,0.761l0.303,0.303l-0.039,1.249l-0.278,0.054l-0.256,0.291l0.25,0.309l-0.116,0.188l0.299,0.387l-0.235,2.332l-0.186,0.118l-0.152,0.22l0.274,0.314l6.575-0.02l0.284-0.284l-0.358-0.397l-0.24-2.337l0.314-0.323L73.6,34.945l0.191-0.299l-0.269-0.299l-0.284-0.01l0.005-1.289l0.26-0.269l0.01-0.794l-0.49,0.02l-0.029,0.314l-0.265,0.01l-0.078-0.343l-0.421,0.039l-0.044,0.299L71.897,32.3l-0.039-0.274L71.4,32.04l0.015,0.691l0.274,0.333v1.235l-0.5,0.078l-0.034-2.582l0.318-0.26l-0.005-0.779l-0.51,0.039l-0.029,0.314l-0.265-0.029l-0.054-0.328l-0.485,0.034l-0.024,0.299l-0.343,0.02l-0.005-0.328h-0.47l0.034,0.74l0.314,0.333l-0.069,2.479l-0.49,0.02l-0.02-1.303l0.304-0.284l-0.034-0.769l-0.461,0.029l0.005,0.299l-0.338,0.005L68.539,32l-0.49,0.02l-0.039,0.294l-0.294,0.01l-0.02-0.314L67.239,32.005z M49.471,31.975l-0.02,0.761l0.303,0.303l-0.039,1.249l-0.278,0.054l-0.256,0.291l0.25,0.309l-0.116,0.188l0.299,0.387L49.38,37.85l-0.186,0.118l-0.152,0.22l0.274,0.314l6.575-0.02l0.284-0.284l-0.358-0.397l-0.24-2.337l0.314-0.323l-0.059-0.225l0.191-0.299l-0.269-0.299l-0.284-0.01l0.005-1.289l0.26-0.269l0.01-0.794l-0.49,0.02l-0.029,0.314l-0.265,0.01l-0.078-0.343l-0.421,0.039l-0.044,0.299l-0.289-0.024l-0.039-0.274l-0.456,0.015l0.015,0.691l0.274,0.333v1.235l-0.5,0.078l-0.034-2.582l0.318-0.26l-0.005-0.779l-0.51,0.039l-0.029,0.314l-0.265-0.029l-0.054-0.328l-0.485,0.034l-0.024,0.299l-0.343,0.02l-0.005-0.328h-0.47l0.034,0.74l0.314,0.333l-0.069,2.479l-0.49,0.02l-0.02-1.303l0.304-0.284l-0.034-0.769l-0.461,0.029l0.005,0.299l-0.338,0.005l0.01-0.323l-0.49,0.02l-0.039,0.294l-0.294,0.01l-0.02-0.314L49.471,31.975z M31.504,31.95l-0.02,0.761l0.303,0.303l-0.039,1.249l-0.278,0.054l-0.256,0.291l0.25,0.309l-0.116,0.188l0.299,0.387l-0.235,2.332l-0.186,0.118l-0.152,0.22l0.274,0.314l6.575-0.02l0.284-0.284l-0.358-0.397l-0.24-2.337l0.314-0.323l-0.059-0.225l0.191-0.299l-0.269-0.299l-0.284-0.01l0.005-1.289l0.26-0.269l0.01-0.794l-0.49,0.02l-0.029,0.314l-0.265,0.01l-0.078-0.343l-0.421,0.039l-0.044,0.299l-0.289-0.024l-0.039-0.274l-0.456,0.015l0.015,0.691l0.274,0.333v1.235l-0.5,0.078l-0.034-2.582l0.318-0.26l-0.005-0.779l-0.51,0.039l-0.029,0.314l-0.265-0.029l-0.054-0.328l-0.485,0.034l-0.024,0.299l-0.343,0.02l-0.005-0.328h-0.47l0.034,0.74l0.314,0.333l-0.069,2.479l-0.49,0.02l-0.02-1.303l0.304-0.284l-0.034-0.769l-0.461,0.029l0.005,0.299l-0.338,0.005l0.01-0.323l-0.49,0.02l-0.039,0.294l-0.294,0.01l-0.02-0.314L31.504,31.95z" />
  <path fill="#211E1E" d="M37.524,70.025l0.437,0.437l-0.237,0.237l-0.436-0.424L37.524,70.025z M37.287,70.275L37.287,70.275L37.287,70.275L37.287,70.275z M72.597,51.646h-0.324v0.462h0.324V51.646z M70.526,50.773h-0.337v0.599h0.337V50.773z M67.043,37.786l0.237-2.246l-0.312-0.374l0.062-0.2l-0.212-0.349l0.349-0.374h0.2l0.039-1.185l-0.299-0.299v-0.873h0.661v0.337h0.15v-0.349h0.686v0.349h0.149v-0.349h0.674v0.886l-0.299,0.299l0.039,1.185h0.25l0.099-2.421h-0.012l-0.324-0.299v-0.886h0.674v0.349h0.162v-0.362l0.686,0.012v0.349h0.15v-0.362l0.699,0.012v0.886l-0.312,0.299h-0.05l0.099,2.421h0.237l0.05-1.198l-0.299-0.287V31.87h0.661v0.349h0.15V31.87h0.686v0.349h0.15V31.87h0.674v0.886l-0.299,0.299l0.05,1.185h0.2l0.349,0.374l-0.225,0.349l0.062,0.2l-0.312,0.374l0.262,2.246l-0.002,0.002l0.349,0.399l-0.349,0.412h-6.65l-0.362-0.412l0.362-0.399L67.043,37.786L67.043,37.786z M73.68,37.974h-6.65l-0.162,0.212l0.162,0.212h6.65l0.162-0.212L73.68,37.974z M71.361,37.787h0.499c-0.087-1.809-1.498-2.209-1.51-2.221c0,0-1.423,0.299-1.485,2.221h0.499c0.025-0.786,0.349-1.235,0.624-1.472l0.362-0.212l0,0C70.425,36.102,71.31,36.527,71.361,37.787z M70.337,36.302c-0.15,0.087-0.747,0.462-0.786,1.46h1.61C71.123,36.764,70.5,36.39,70.337,36.302z M73.232,35.541h-2.47l0.462,0.324c0.362,0.337,0.786,0.923,0.836,1.909h1.435L73.232,35.541z M71.584,32.871h1.697l0.113-0.112v-0.686h-0.287v0.349H72.57v-0.349h-0.287v0.349h-0.536v-0.349h-0.275v0.686H71.47L71.584,32.871z M73.095,33.058H71.76l-0.039,1.173h1.422L73.095,33.058z M71.233,31.623l0.113-0.099v-0.699h-0.299v0.349h-0.549v-0.349h-0.299v0.349H69.65v-0.337h-0.275v0.686l0.125,0.099L71.233,31.623z M70.997,31.898l-1.285-0.012l-0.099,2.333l1.485,0.012L70.997,31.898z M67.416,32.871h1.697l0.125-0.112v-0.686h-0.287v0.349h-0.549v-0.349h-0.287v0.349h-0.537v-0.337h-0.275v0.674h-0.001L67.416,32.871z M68.927,33.058h-1.335l-0.039,1.173h1.422L68.927,33.058z M67.166,34.792h6.376l0.15-0.175l-0.15-0.175h-6.376l-0.15,0.175L67.166,34.792z M67.304,35.354h6.101l0.137-0.187l-0.137-0.175h-6.101l-0.137,0.175L67.304,35.354z M67.241,37.762l1.422,0.012c0.037-1.086,0.499-1.685,0.886-2.009l0.349-0.224h-2.421L67.241,37.762z M73.681,55.952l0.349,0.412l-0.349,0.399h-6.65l-0.362-0.399l0.362-0.412h0.012l0.237-2.233l-0.312-0.374l0.062-0.212l-0.212-0.337l0.349-0.374h0.2l0.039-1.185l-0.299-0.299v-0.873h0.661V50.4h0.15v-0.35h0.686v0.35h0.149v-0.35h0.674v0.886l-0.299,0.299l0.039,1.185h0.25L69.515,50h-0.012l-0.324-0.312v-0.873h0.674v0.339h0.162v-0.349l0.686,0.012v0.337h0.15v-0.349l0.699,0.012v0.886L71.238,50h-0.05l0.099,2.421h0.237l0.05-1.198l-0.299-0.287V50.05h0.661v0.349h0.15V50.05h0.686v0.349h0.15V50.05h0.674v0.886l-0.299,0.299l0.05,1.185h0.2l0.349,0.374l-0.225,0.337l0.062,0.212l-0.312,0.374l0.262,2.233L73.681,55.952z M73.232,53.719h-2.47l0.462,0.324c0.362,0.324,0.786,0.923,0.836,1.897h1.435L73.232,53.719z M71.361,55.953h0.499c-0.087-1.797-1.498-2.197-1.51-2.208c0,0-1.423,0.299-1.485,2.208h0.499c0.025-0.774,0.349-1.223,0.624-1.46l0.362-0.212l0,0C70.425,54.281,71.31,54.705,71.361,55.953z M70.337,54.481c-0.15,0.087-0.747,0.462-0.786,1.46h1.61C71.123,54.942,70.5,54.568,70.337,54.481z M71.584,51.048l1.697-0.012l0.113-0.099v-0.699h-0.287V50.6H72.57v-0.35l-0.287-0.012V50.6h-0.536v-0.349h-0.275v0.686L71.584,51.048z M73.095,51.234H71.76l-0.039,1.173h1.422L73.095,51.234z M71.233,49.799l0.113-0.099v-0.699h-0.299v0.349h-0.549v-0.349h-0.299v0.349H69.65v-0.337h-0.275v0.674L69.5,49.8L71.233,49.799z M70.997,50.062h-1.285l-0.099,2.333l1.485,0.012L70.997,50.062z M67.416,51.048h1.697l0.125-0.113v-0.686h-0.287v0.349h-0.549v-0.349h-0.287v0.349h-0.537v-0.337h-0.275v0.674h-0.001L67.416,51.048z M68.927,51.235h-1.335l-0.039,1.173h1.422L68.927,51.235z M67.166,52.969h6.376l0.15-0.175l-0.15-0.187h-6.376l-0.15,0.187L67.166,52.969z M67.304,53.53h6.101l0.137-0.187l-0.137-0.175h-6.101l-0.137,0.175L67.304,53.53z M67.241,55.938h1.422c0.037-1.086,0.499-1.672,0.886-1.996l0.349-0.224h-2.421L67.241,55.938z M73.68,56.151h-6.65l-0.162,0.212l0.162,0.212h6.65l0.162-0.212L73.68,56.151z M72.597,33.467h-0.324v0.462h0.324V33.467z M68.417,33.467h-0.324v0.474h0.324V33.467z M70.526,32.593h-0.337v0.599h0.337V32.593z M54.842,33.454h-0.324v0.462h0.324V33.454z M36.988,72.471l-0.324-0.324l-0.237,0.225l0.337,0.324L36.988,72.471z M36.426,72.371L36.426,72.371L36.426,72.371L36.426,72.371z M68.417,51.646h-0.324v0.462h0.324V51.646z M55.925,37.772l0.349,0.399l-0.349,0.412h-6.65l-0.362-0.412l0.362-0.399h0.012l0.237-2.246l-0.312-0.362l0.062-0.212l-0.212-0.349l0.349-0.374h0.187l0.05-1.185l-0.299-0.299V31.87h0.661v0.337h0.15v-0.349h0.686v0.349h0.15v-0.349h0.674v0.886l-0.299,0.299l0.039,1.185h0.25l0.099-2.421h-0.012l-0.324-0.299v-0.886h0.674v0.349h0.15v-0.349h0.699v0.349h0.15v-0.349h0.699v0.886l-0.312,0.299h-0.05l0.099,2.421h0.237l0.05-1.198l-0.299-0.287v-0.886h0.661v0.349h0.15v-0.349h0.686v0.349h0.15v-0.349h0.674v0.886l-0.299,0.299l0.039,1.185h0.212l0.349,0.374l-0.225,0.349l0.062,0.212l-0.312,0.362l0.262,2.246L55.925,37.772z M55.463,35.539h-2.458l0.462,0.312c0.362,0.337,0.786,0.923,0.836,1.909h1.422L55.463,35.539z M53.604,37.773h0.499c-0.1-1.809-1.498-2.209-1.51-2.221c0,0-1.423,0.299-1.485,2.221h0.487c0.037-0.786,0.362-1.235,0.636-1.472l0.362-0.212l0,0C52.668,36.088,53.554,36.512,53.604,37.773z M52.581,36.288c-0.15,0.087-0.747,0.462-0.786,1.472h1.61C53.367,36.749,52.743,36.375,52.581,36.288z M53.829,32.857h1.697l0.113-0.113v-0.686h-0.287v0.349h-0.537v-0.349h-0.287v0.349h-0.536v-0.349h-0.275v0.686h-0.001L53.829,32.857z M55.34,33.044h-1.335l-0.039,1.173h1.422L55.34,33.044z M53.478,31.609l0.113-0.099v-0.699h-0.299v0.349h-0.549v-0.349h-0.299v0.349h-0.549v-0.337h-0.287v0.686l0.137,0.099L53.478,31.609L53.478,31.609z M53.242,31.872h-1.285l-0.099,2.333l1.485,0.012L53.242,31.872z M49.661,32.857h1.697l0.113-0.113v-0.686h-0.287v0.349h-0.536v-0.349H50.36v0.349h-0.536V32.07h-0.275v0.674h-0.001L49.661,32.857z M51.172,33.044h-1.335l-0.039,1.173h1.41L51.172,33.044z M49.411,34.779h6.376l0.15-0.175l-0.15-0.175h-6.376l-0.15,0.175L49.411,34.779z M49.549,35.34h6.101l0.137-0.175l-0.137-0.188h-6.101l-0.137,0.188L49.549,35.34z M49.486,37.761h1.422c0.025-1.098,0.499-1.684,0.886-1.996l0.337-0.225h-2.408L49.486,37.761z M55.925,37.96h-6.65l-0.162,0.212l0.162,0.212h6.65l0.162-0.212L55.925,37.96z M37.971,56.763h-6.663l-0.349-0.399l0.349-0.412h0.023l0.237-2.233l-0.312-0.374l0.062-0.212l-0.212-0.337l0.349-0.374h0.187l0.05-1.185l-0.299-0.299v-0.873h0.661V50.4h0.15v-0.35h0.686v0.35h0.15v-0.35h0.674v0.886l-0.299,0.299l0.039,1.185h0.25L33.803,50h-0.012l-0.324-0.312v-0.873h0.674v0.339h0.15v-0.349l0.699,0.012v0.337h0.15v-0.349l0.699,0.012v0.886L35.513,50h-0.039l0.099,2.421h0.237l0.039-1.198l-0.287-0.287V50.05h0.661v0.349h0.15V50.05h0.674v0.349h0.162V50.05h0.674v0.886l-0.299,0.299l0.039,1.185h0.212l0.337,0.374l-0.212,0.337l0.062,0.212l-0.312,0.374l0.262,2.233l-0.002,0.001l0.349,0.412L37.971,56.763z M37.509,53.719h-2.458l0.462,0.324c0.362,0.324,0.786,0.923,0.836,1.897h1.422L37.509,53.719z M35.638,55.953h0.512c-0.1-1.797-1.498-2.197-1.51-2.208c0,0-1.423,0.299-1.485,2.208h0.487c0.037-0.774,0.349-1.223,0.636-1.46l0.362-0.212l0,0C34.702,54.281,35.599,54.705,35.638,55.953z M34.627,54.481c-0.15,0.087-0.747,0.462-0.786,1.46h1.609C35.413,54.942,34.789,54.568,34.627,54.481z M35.874,51.048l1.697-0.012l0.113-0.099v-0.699h-0.287V50.6H36.86v-0.35l-0.287-0.012V50.6h-0.537v-0.349H35.75v0.685L35.874,51.048z M37.385,51.234H36.05l-0.039,1.173h1.422L37.385,51.234z M35.511,49.799l0.125-0.099v-0.699h-0.299v0.349h-0.549v-0.349h-0.299v0.349H33.94v-0.337h-0.287v0.674L33.79,49.8L35.511,49.799z M35.275,50.062h-1.273l-0.113,2.333l1.485,0.012L35.275,50.062z M31.707,51.048h1.697l0.113-0.113v-0.686H33.23v0.349h-0.536v-0.349h-0.287v0.349h-0.538v-0.337h-0.275v0.674l0,0L31.707,51.048z M33.218,51.235h-1.335l-0.039,1.173h1.41L33.218,51.235z M31.458,52.969h6.376l0.15-0.175l-0.15-0.187h-6.376l-0.15,0.187L31.458,52.969z M31.595,53.53h6.101l0.137-0.187l-0.137-0.175h-6.101l-0.137,0.175L31.595,53.53z M31.532,55.938h1.422c0.025-1.086,0.499-1.672,0.886-1.996l0.337-0.224H31.77L31.532,55.938z M31.308,56.575h6.663l0.162-0.212l-0.162-0.212h-6.663l-0.15,0.212L31.308,56.575z M31.331,37.763l0.237-2.233l-0.312-0.374l0.062-0.212l-0.212-0.337l0.349-0.374h0.187l0.05-1.198l-0.299-0.287v-0.886h0.661v0.349h0.15v-0.349h0.686v0.349h0.15v-0.349h0.674v0.886l-0.299,0.299l0.039,1.185h0.25l0.099-2.421h-0.012l-0.324-0.312v-0.873h0.674v0.349h0.15v-0.362l0.699,0.012v0.349h0.15v-0.362l0.699,0.012v0.886l-0.324,0.299h-0.039l0.099,2.421h0.237l0.039-1.198l-0.287-0.287v-0.886h0.661v0.349h0.15v-0.349h0.674v0.349h0.162v-0.349h0.674v0.886l-0.299,0.299l0.039,1.185h0.212l0.337,0.374l-0.212,0.337l0.062,0.212l-0.312,0.374l0.262,2.233l-0.002,0.004l0.349,0.412l-0.349,0.399h-6.663l-0.349-0.399l0.349-0.412C31.309,37.763,31.331,37.763,31.331,37.763z M37.971,37.959h-6.663l-0.15,0.212l0.15,0.2h6.663l0.162-0.2L37.971,37.959z M35.638,37.763h0.512c-0.1-1.797-1.498-2.209-1.51-2.209c0,0-1.423,0.287-1.485,2.209h0.487c0.037-0.774,0.349-1.223,0.636-1.46l0.362-0.224l0,0C34.702,36.078,35.599,36.515,35.638,37.763z M34.627,36.29c-0.15,0.075-0.747,0.462-0.786,1.46h1.609C35.413,36.752,34.789,36.378,34.627,36.29z M37.509,35.529h-2.458l0.462,0.324c0.362,0.324,0.786,0.923,0.836,1.909h1.422L37.509,35.529z M35.874,32.856l1.697-0.012l0.113-0.099v-0.699h-0.287v0.349H36.86V32.06l-0.287-0.012v0.349h-0.537V32.06H35.75v0.684L35.874,32.856z M37.385,33.043H36.05l-0.039,1.173h1.422L37.385,33.043z M35.511,31.608l0.125-0.099V30.81h-0.299v0.349h-0.549V30.81h-0.299v0.349H33.94V30.81h-0.287v0.686l0.137,0.112H35.511z M35.275,31.871h-1.273l-0.113,2.333l1.485,0.012L35.275,31.871z M31.707,32.856h1.697l0.113-0.113v-0.686H33.23v0.349h-0.536v-0.349h-0.287v0.349h-0.538v-0.349h-0.275v0.686l0,0L31.707,32.856z M33.218,33.043h-1.335l-0.039,1.173h1.41L33.218,33.043z M31.458,34.777h6.376l0.15-0.175l-0.15-0.187h-6.376l-0.15,0.187L31.458,34.777z M31.595,35.326h6.101l0.137-0.175l-0.137-0.175h-6.101l-0.137,0.175L31.595,35.326z M31.532,37.747l1.422,0.012c0.025-1.098,0.499-1.697,0.886-2.009l0.337-0.224H31.77L31.532,37.747z M36.887,51.646h-0.324v0.462h0.324V51.646z M39.894,72.639C39.895,72.639,39.895,72.639,39.894,72.639L39.894,72.639L39.894,72.639z M67.793,70.275l-0.237-0.237l0,0l-0.424,0.424l0.237,0.237L67.793,70.275z M34.816,50.773h-0.337v0.599h0.337V50.773z M68.418,72.122L68.418,72.122L68.418,72.122L68.418,72.122z M32.707,51.646h-0.324v0.462h0.324V51.646z M65.46,69.176L65.46,69.176l-0.336,0.325l0.237,0.237l0.324-0.337L65.46,69.176z M70.001,71.447l0.474,0.487l-0.624,0.624h-0.424l-0.811,0.873l0.15,0.15l-0.023,0.499l-0.387,0.099l-0.113,0.187l-0.474,0.039l-1.397,1.772l-0.007-0.006l-0.05,0.524l-0.524,0.05l-4.716-4.704l0.039-0.549l0.537-0.023l0.012,0.011l1.759-1.422l0.039-0.487l0.187-0.099l0.099-0.387l0.512-0.023l0.137,0.137l0.861-0.811v-0.412l0.624-0.624l0.474,0.474l-0.25,0.237l0.113,0.099l0.25-0.25L66.94,68.4l-0.25,0.25l0.113,0.099l0.25-0.237l0.474,0.474l-0.636,0.624h-0.412l-0.811,0.861l0.175,0.175l1.784-1.635L67.615,69l-0.012-0.437l0.624-0.636l0.474,0.487l-0.237,0.25l0.113,0.112l0.237-0.262l0.487,0.499l-0.25,0.237l0.113,0.113l0.25-0.237l0.487,0.487l-0.624,0.624l-0.437-0.011L68.816,70.2l-1.647,1.784l0.175,0.162l0.873-0.811v-0.412l0.611-0.624l0.474,0.474l-0.237,0.237l0.099,0.099l0.25-0.25l0.474,0.487l-0.237,0.25l0.099,0.099L70.001,71.447z M67.738,68.696l0.012,0.162l1.224,1.224l0.162,0.011l0.487-0.487l-0.212-0.212l-0.25,0.237l-0.387-0.387l0.25-0.237l-0.212-0.212l-0.237,0.25l-0.399-0.387l0.25-0.25l-0.2-0.2L67.738,68.696z M65.99,70.779l1.048,1.048l1.585-1.722l-0.911-0.911L65.99,70.779z M65.878,67.623l-0.486,0.486l0.012,0.162l1.198,1.198h0.15l0.499-0.487l-0.2-0.2l-0.25,0.25l-0.387-0.387l0.25-0.249l-0.2-0.2l-0.25,0.249l-0.387-0.387l0.237-0.237L65.878,67.623z M64.531,69.331l1.011,0.998l0.786-0.861l-0.936-0.936L64.531,69.331z M61.81,71.6l1.011,1.011c0.786-0.747,1.535-0.848,2.034-0.786l0.399,0.075l-1.697-1.697L61.81,71.6z M64.717,74.523l0.349,0.349c1.21-1.335,0.499-2.621,0.499-2.633c0,0.013-1.21-0.786-2.608,0.524l0.337,0.349c0.574-0.537,1.123-0.622,1.485-0.599l0.412,0.112l0,0C65.241,72.676,65.566,73.612,64.717,74.523z M65.029,72.763c-0.15-0.05-0.848-0.212-1.585,0.474l1.148,1.148l0,0C65.266,73.637,65.091,72.938,65.029,72.763z M66.213,76.305l-4.704-4.704l-0.262,0.023l-0.023,0.262l4.704,4.716l-0.003,0.002l0.25-0.05L66.213,76.305z M67.612,74.261l-1.734-1.734l0.087,0.549c0.025,0.487-0.087,1.21-0.749,1.934l1.011,1.011L67.612,74.261z M68.137,73.997L63.82,69.68l-0.225,0.039l-0.038,0.209l4.317,4.317h0.012l0.212-0.023L68.137,73.997z M64.119,69.196l-0.237,0.023l0,0l-0.023,0.224l4.517,4.517l0.225-0.023l0.023-0.225L64.119,69.196z M69.284,72.414l-0.948-0.936l-0.861,0.799l1.011,0.998L69.284,72.414z M70.195,71.927l-0.2-0.2l-0.249,0.25l-0.374-0.387l0.237-0.25l-0.2-0.2l-0.25,0.237l-0.374-0.374l0.237-0.237l-0.2-0.2l-0.474,0.487l0,0v0.162l1.198,1.198h0.162L70.195,71.927z M52.771,32.581h-0.337v0.599h0.337V32.581z M36.887,33.454h-0.324v0.462h0.324V33.454z M39.944,69.514l-0.337-0.324l-0.225,0.225l0,0l0.324,0.324L39.944,69.514z M43.963,71.505l0.039,0.536l-4.704,4.716l-0.537-0.039l-0.039-0.536l0.012-0.011l-1.41-1.759l-0.487-0.039l-0.099-0.187l-0.399-0.099l-0.023-0.512l0.137-0.137l-0.811-0.861H35.23l-0.624-0.624l0.474-0.474l0.25,0.25l0.099-0.113l-0.25-0.25l0.487-0.474l0.25,0.25l0.099-0.112l-0.25-0.25l0.487-0.474l0.624,0.624v0.424l0.861,0.811l0.175-0.175l-1.635-1.784l-0.012,0.011l-0.449,0.011l-0.624-0.624l0.487-0.474l0.237,0.237l0.113-0.113l-0.25-0.237l0.487-0.487l0.249,0.25l0.113-0.112l-0.25-0.25l0.487-0.487l0.624,0.624v0.435l-0.039,0.023l1.784,1.647l0.175-0.175l-0.811-0.873h-0.424l-0.624-0.611l0.474-0.474l0.249,0.237l0.099-0.099l-0.25-0.25l0.487-0.474l0.237,0.237l0.113-0.099l-0.25-0.25l0.487-0.474l0.624,0.624v0.424l0.861,0.799l0.15-0.137l0.512,0.011l0.087,0.399l0.187,0.113l0.05,0.474l1.772,1.397l0.001,0.006L43.963,71.505z M41.529,70.218l-1.747,1.734l0.561-0.099c0.487-0.013,1.21,0.1,1.934,0.761l1.011-1.011L41.529,70.218z M41.778,73.113l0.362-0.349c-1.335-1.21-2.621-0.499-2.633-0.499c0,0-0.799,1.21,0.511,2.608l0.349-0.337c-0.524-0.574-0.625-1.123-0.586-1.485l0.113-0.412C39.946,72.589,40.868,72.266,41.778,73.113z M40.019,72.789c-0.05,0.162-0.2,0.861,0.474,1.597l1.148-1.148C40.905,72.565,40.194,72.739,40.019,72.789z M39.682,68.273v-0.15l-0.487-0.487l-0.212,0.2l0.25,0.25l-0.387,0.374l-0.237-0.237l-0.212,0.2l0.25,0.25l-0.374,0.374l-0.25-0.237l-0.187,0.2l0.474,0.474h-0.001h0.175L39.682,68.273z M39.544,70.344l0.998-0.998l-0.861-0.799l-0.948,0.948L39.544,70.344z M37.348,68.858v-0.162l-0.487-0.487l-0.212,0.212l0.25,0.25l-0.387,0.387l-0.25-0.249l-0.212,0.212l0.25,0.237l-0.387,0.387l-0.237-0.237l-0.2,0.2l0.474,0.487l0.162-0.011L37.348,68.858z M38.035,71.841l1.06-1.048l-1.734-1.585l-0.911,0.911L38.035,71.841z M36.726,71.23l0.012-0.162l-0.487-0.487l-0.212,0.2l0.25,0.25l-0.374,0.387l-0.25-0.25l-0.2,0.2l0.237,0.25l-0.374,0.387l-0.25-0.25l-0.187,0.2l0.474,0.487l0.001-0.001l0.162-0.011L36.726,71.23z M36.588,73.3l1.011-1.011l-0.861-0.786l-0.948,0.936L36.588,73.3z M41.229,69.456l-0.023-0.225l-0.237-0.023l-4.504,4.504l0.012,0.237h-0.001l0.237,0.023L41.229,69.456z M41.519,69.957v-0.011l-0.039-0.212l-0.212-0.039l-4.317,4.317l0.023,0.224l0.003-0.002l0.225,0.039v-0.011L41.519,69.957z M38.874,76.019l1.011-1.011c-0.748-0.786-0.849-1.535-0.799-2.034l0.087-0.412l-1.709,1.709L38.874,76.019z M43.865,71.9l-0.039-0.262l-0.262-0.023l-4.704,4.704l0.039,0.25l0.262,0.05l4.704-4.716V71.9z M68.318,72.683l0.324-0.324l-0.225-0.237l-0.324,0.337L68.318,72.683z M32.707,33.454h-0.324v0.462h0.324V33.454z M50.662,33.454h-0.324v0.474h0.324V33.454z M34.816,32.581h-0.337v0.599h0.337V32.581z" />
  <path fill="#FFCA26" stroke="#613A21" stroke-width="0.2692" stroke-miterlimit="10" d="M173.183,158.716c3.328-8.673,10.271-9.337,14.283-14.152c1.571-1.886,5.405-1.079,8.098-1.66c2.566-0.553,3.421,0.553,3.673,3.018c4.778-0.201,4.678,1.861,4.225,3.873c-0.201-0.804-2.364-0.931-3.42-0.83c0,1.76-1.258,1.836-3.219,2.34c-1.513,0.387-1.779,2.745-1.818,4.452c4.225,0.1,7.954-3.647,11.777-7.773c3.823-4.125,10.106-7.725,20.322-7.143c12.374,0.704,36.922,1.107,45.171-1.308c8.25-2.415,10.061,1.006,4.025,4.829c0.702,1.509-0.93,4.206-3.824,5.332c1.409,1.71-0.805,4.024-5.131,5.734c0.201,2.716-4.125,5.835-9.657,6.339c1.408,3.42-6.942,6.439-15.996,5.835c0.906,1.308-2.112,3.622-5.534,3.622c1.207,1.408-1.911,3.018-4.124,3.119c1.308,1.208-5.131,3.119-8.551,2.414c0.1,1.208-3.723,2.113-6.237,1.509c-0.302,1.107-3.018,1.508-4.628,0.402c-0.403,1.107-2.314,1.309-4.024,0.202c-1.107,1.107-3.018,1.006-4.125-0.302c-0.705,1.208-2.415,1.61-3.622,0.1c-1.006,1.309-2.414,0.907-3.521-0.402c-0.201,1.207-3.755,3.22-5.767-4.025c-0.501,3.399-1.465,5.514-2.281,6.942c0.669,2.067,1.07,6.666,0.91,10.764c0.604,4.025,2.409,9.858,3.566,13.581c1.157,3.723-0.65,3.345-1.706,2.741c0.133,0.505,0.147,1.133-0.004,1.937c-0.403-0.538-1.431-1.35-2.337-1.35c-0.025,0.552-0.239,1.118-0.732,1.651c-0.955-1.208-1.911-2.666-3.018-2.666c-1.107,0.252-3.219,1.309-3.823,3.07c-0.206-0.43-0.345-0.965-0.342-1.525c-0.804,0.654-3.242,0.755-3.795-0.052c-0.004,0.37-0.068,0.771-0.189,1.224c-0.425-0.624-1.369-1.468-2.324-1.512c-0.036,0.584-0.252,1.175-0.755,1.674c-0.9-1.249-2.007-2.357-3.113-2.409c-1.117,0.203-3.276,1.162-3.958,2.893c-0.357-0.837-0.496-2.133,0.067-3.126c-0.641-0.056-1.305-0.449-1.084-1.241c-1.912,3.32-4.427,2.616-5.433,1.005c-2.012,2.214-6.128,0.893-4.326-1.91c7.243-11.268,8.149-14.89,10.161-20.826c0.787-2.36,0.301-6.036,1.409-9.557c-2.516,4.426-5.634,5.131-6.338,4.125c-0.804,1.007-3.521,2.011-4.225,0.402c-0.804,0.605-2.616,0.605-3.32-0.201c-1.309,1.006-3.219,1.107-3.521,0.201c-1.308,0.805-4.024,0.705-4.527-0.201c-2.012,1.711-6.439,0.806-6.238-1.71c-4.703,2.202-8.953,1.007-8.752-1.308c-2.817,0.301-4.427-1.108-4.225-2.415c-3.018,0.201-4.829-1.709-4.326-3.722c-6.438,0.604-22.434-1.308-21.327-6.339c-4.527-0.804-11.268-4.124-9.054-6.74c-2.918-0.805-6.238-3.219-5.936-5.533c-4.125-0.907-4.93-4.326-3.622-5.031c-3.924-1.308-4.523-6.255,2.314-4.527c9.557,2.415,35.211,2.012,49.094,1.208c13.884-0.805,13.783,2.916,25.956,11.469C165.899,159.09,170.533,158.189,173.183,158.716L173.183,158.716z" />
  <path fill="#613A21" d="M190.239,206.559c-0.196-0.823-1.222-5.182-1.432-7.13l-0.028,0.003c1.135-2.025,1.448-4.92,1.541-7.477l-0.269-0.01c-0.082,2.072-0.339,4.881-1.101,6.484c-1.627,3.621-3.568,7.105-0.206,8.422c0.542,0.522,0.86,1.286,0.826,2l0.269,0.012c0.034-0.716-0.261-1.467-0.761-2.031c0.767-0.107,2.414-0.143,2.837,1.472l0.261-0.068C191.927,207.285,191.231,206.709,190.239,206.559z M188.828,206.6c-2.811-1.092-1.475-3.869-0.239-6.748c0.277,2.022,1.136,5.706,1.366,6.672C189.608,206.501,189.233,206.522,188.828,206.6z M185.889,204.576c0,1.477-0.397,1.818-1.517,2.041c-2.196,0.441-2.441,2.086-2.445,2.772l-0.27-0.002c0.004-0.752,0.272-2.554,2.662-3.034c0.944-0.188,1.3-0.39,1.3-1.777c-0.155-3.503-3.154-5.251-4.39-8.734c0.015,3.417,0.963,8.457,0.987,11.551l-0.27-0.006c-0.033-3.31-1.088-8.726-1.004-12.287c-0.683-1.909-1.16-4.345-1.16-7.677h0.27c0,3.3,0.473,5.709,1.15,7.597h0.008c0,0.008,0.001,0.017,0.001,0.025C182.429,199.06,185.646,200.649,185.889,204.576z M186.195,185.569l-0.25-0.1c0.694-1.737,2.301-2.778,3.212-4.352l0.233,0.133C188.493,182.823,186.886,183.865,186.195,185.569z M173.157,158.847l0.053-0.264c1.101,0.22,1.73,0.643,2.104,1.415l-0.242,0.117C174.738,159.428,174.165,159.048,173.157,158.847z M177.031,194.524c-0.12,3.293,0.196,8.744,0.308,12.21l-0.27,0.006c-0.107-3.318-0.384-8.127-0.327-11.518c-1.36,3.186-3.225,5.632-3.399,9.362c-0.071,1.586,0.392,1.735,1.315,2.022c1.9-0.279,3.519,0.763,3.472,2.73l-0.27-0.002c0.042-1.72-1.289-2.633-2.951-2.472c0.483,0.605,0.759,1.414,0.71,2.192l-0.269-0.018c0.049-0.772-0.258-1.621-0.78-2.176c-0.925-0.288-1.577-0.514-1.496-2.289c0.144-4.12,2.47-6.645,3.693-10.265l0.059,0.003c1.079-2.761,1.83-6.242,1.249-11.601l0.268-0.029C178.939,188.176,178.147,191.716,177.031,194.524z M171.496,204.883c-0.069,1.507-0.53,1.819-1.606,1.983c-0.962,0.147-1.651,0.578-2.048,1.279l-0.234-0.133c0.44-0.776,1.194-1.252,2.241-1.412c0.95-0.146,1.314-0.332,1.379-1.73c0.044-1.538-1.148-2.045-1.666-3.26c-0.927,1.715-1.696,3.641-2.81,5.302l-0.224-0.148c1.137-1.696,1.926-3.706,2.886-5.452c-0.663-1.344-1.285-3.188-1.781-5.192c-1.822,4.089-4.303,8.351-6.31,11.792l-0.232-0.135c2.052-3.519,4.605-7.897,6.431-12.06l0.019,0.008c-0.94-3.969-1.371-8.425-0.627-10.663l0.256,0.086c-1.231,3.699,0.798,13.578,3.004,16.987C170.757,202.996,171.545,203.526,171.496,204.883z M162.481,174.404c-1.053,2.163-2.771,4.368-4.51,5.779l-0.17-0.209c1.692-1.373,3.431-3.608,4.452-5.715c-0.139-0.098-0.26-0.212-0.363-0.343c-0.858,0.45-1.531,0.744-2.227,0.595c-1.304,2.04-3.402,4.332-5.018,5.475l-0.155-0.221c1.571-1.11,3.603-3.326,4.894-5.32c-0.237-0.116-0.373-0.316-0.399-0.581c-0.946,0.491-1.659,0.719-2.487,0.424c-1.652,2.337-3.284,4.718-5.385,5.908l-0.134-0.234c2.043-1.156,3.657-3.504,5.287-5.812c-0.264-0.19-0.409-0.469-0.421-0.807c-0.812,0.348-1.573,0.289-2.179-0.408c-2.121,2.425-4.362,5.137-7.069,7.051l-0.155-0.221c2.696-1.905,4.937-4.626,7.06-7.052c-0.042-0.057-0.084-0.107-0.125-0.169c-1.124,0.726-2.825,0.885-2.791-0.696c-0.333,0.167-0.623,0.268-0.872,0.321l0.013,0.014c-2.8,2.488-6.576,4.943-9.394,6.108l-0.103-0.248c2.705-1.119,6.294-3.439,9.044-5.828c-0.79,0.027-1.265-0.671-1.201-1.354c-0.976,0.506-1.754,0.691-2.609,0.342c-3.319,2.502-10.978,5.688-13.928,5.791l-0.009-0.27c2.885-0.099,10.342-3.198,13.677-5.667c-0.499-0.327-0.687-0.915-0.572-1.526c-1.252,0.558-2.849,0.726-3.587-0.294c-3.771,3.007-9.732,4.756-13.721,5.338l-0.039-0.266c3.965-0.579,9.892-2.316,13.618-5.302c-0.261-0.575-0.108-1.24,0.373-1.752c-1.593,0.398-3.677,0.383-4.793-0.379c-3.679,2.161-10.596,3.875-13.5,3.98l-0.01-0.27c2.85-0.103,9.593-1.769,13.263-3.88c-0.771-0.589-0.943-1.539-0.401-2.404c-0.919-0.026-1.712-0.202-2.357-0.47c-7.462,2.81-25.738,2.192-31.861,0.68l0.065-0.262c4.339,1.084,21.737,2.532,31.419-0.583c-1.237-0.637-2.015-1.752-0.971-2.754c-2.265-0.095-4.522-0.572-5.607-1.213c-9.533,1.839-28.77-0.602-33.958-1.928l0.061-0.262c5.055,1.167,22.262,3.764,33.572,1.969c-1.17-0.769-1.302-1.955-0.18-2.961c-1.565-0.245-2.835-1.016-3.444-1.833c-11.05,0.278-28.272-0.304-35.95-2.446l0.073-0.26c7.546,2.141,25.333,2.718,35.704,2.44c-0.349-0.685-0.427-1.318,0.694-1.693c-1.576-0.523-3.119-1.263-3.954-2.595c-10.829,0.972-29.509-0.425-36.149-2.928l0.093-0.253c6.605,2.438,24.346,3.877,35.917,2.921c-0.133-0.27-0.233-0.545-0.271-0.827c-1.025-0.568-1.661-1.351-1.425-2.419c-4.145-0.041-7.885-0.268-10.838-0.52l0.023-0.269c5.732,0.49,14.43,0.889,23.314,0c28.208-3.005,13.934,14.793,44.486,15.895l-0.011,0.27c-30.724-1.135-16.419-18.893-44.449-15.896c-4.227,0.423-8.408,0.553-12.253,0.523c-0.359,2.827,4.387,4.223,16.35,3.031l0.028,0.268c-4.843,0.571-12.004,0.778-14.909-0.72c0.486,1.868,2.795,2.96,4.73,3.421l0.001,0.032c3.822,1.046,8.962,0.81,13.156-0.079l0.056,0.264c-4.097,0.863-9.243,1.164-13.285,0.062c-0.79,0.044-1.243,0.311-1.261,0.767c-0.034,0.866,1.491,2.355,3.868,2.626c3.368,0.388,9.666,0.518,13.129-0.398l0.068,0.26c-3.37,0.898-9.6,0.813-13.163,0.412c-2.092,1.867-0.288,3.606,5.393,4.052c2.021,0.143,7.013,0.082,11.421-1.203l0.075,0.258c-3.97,1.113-7.612,1.314-10.716,1.253c-0.51,0.346-0.707,0.775-0.565,1.244c1.794,3.638,11.59,1.177,13.9-0.03l0.12,0.24c-2.391,1.198-6.065,1.915-9.841,1.925c-1.421,2.451,1.918,3.455,5.221,2.655c1.73-0.407,5.707-2.007,6.886-2.991l0.173,0.207c-1.113,0.928-4.639,2.386-6.554,2.929l0,0c-2.161,1.669,0.177,3.521,2.89,2.076c0.704-0.328,3.137-1.536,4.891-3.293l0.19,0.189c-1.746,1.749-4.134,2.955-4.906,3.319c-0.167,0.553-0.036,1.071,0.366,1.392c2.215,1.386,5.945-2.519,7.049-4.27l0.228,0.145c-1.016,1.595-2.397,2.914-4.214,4.03c-0.12,2.131,2.321,1.778,6.211-2.685l0.202,0.178c-1.683,1.911-2.95,2.956-3.898,3.499c-0.095,2.452,3.306,0.669,5.603-2.464l0.213,0.164c-1.161,1.498-2.198,2.444-3.08,3.008c1.436,2.061,3.262,0.213,5.792-2.373l0.198,0.182c-1.439,1.563-2.565,2.531-3.486,3c0.151,1.883,3.036,0.771,4.898-1.372l0.2,0.18c-0.676,0.748-1.335,1.291-1.951,1.676c0.091,1.512,3.268-0.014,4.763-1.95l0.209,0.17c-0.635,0.787-1.379,1.413-2.105,1.862c1.229,1.296,3.288,0.426,4.309-1.023l0.011,0.008c0.169-0.217,0.332-0.446,0.481-0.702l0.232,0.137c-0.409,0.644-1.436,1.799-0.759,2.327c0.493,0.419,1.832,0.315,3.063-0.977l0.195,0.186c-1.052,1.066-2.79,1.892-3.613,0.741c-1.046,2.262-2.271,3.958-3.843,5.305l-0.175-0.205c1.576-1.434,3.249-3.39,3.949-5.905c-0.724,0.643-1.534,0.998-2.38,1C163.182,174.669,162.804,174.572,162.481,174.404z M172.978,166.866v0.27c-1.156,0-1.422,1.314-1.759,2.978c-0.37,1.832-0.832,4.112-2.688,5.545l-0.164-0.213c1.776-1.371,2.226-3.597,2.588-5.385C171.303,168.347,171.602,166.866,172.978,166.866z M234.58,154.861c0.096,1.15-0.164,2.069-0.742,2.763c7.63,0.594,27.825,0.347,33.449-2.316l0.115,0.244c-5.545,2.591-24.804,2.989-33.771,2.326l0.003-0.033c-0.777,0.826-1.91,1.113-3.476,1.26c0.146,1.005-0.064,1.821-0.599,2.45c7.579,0.721,21.568,1.241,28.104,0.081l0.047,0.266c-7.438,1.24-21.305,0.568-28.383-0.097c-0.947,0.956-2.822,1.221-4.539,1.135c-0.018,0.761-0.265,1.394-0.71,1.886c4.873,1.227,12.72,2.54,17.615,2.642l-0.006,0.27c-4.965-0.103-12.954-1.446-17.829-2.687c-0.914,0.831-2.313,0.974-3.608,0.842c-0.131,0.672-0.399,1.197-0.801,1.569c4.661,2.074,13.616,4.03,16.69,3.631l0.035,0.268c-4.321,0.289-12.208-1.67-16.964-3.709c-0.881,0.642-2.008,0.545-3.087,0.287c-0.137,0.382-0.337,0.708-0.603,0.955c4.823,4.235,13.904,5.792,16.487,5.321l0.049,0.264c-4.422,0.374-11.771-1.273-16.764-5.423c-0.778,0.573-1.761,0.506-2.671,0.184c-0.104,0.562-0.414,0.94-0.887,1.088c2.99,3.226,8.002,5.922,11.761,6.299l-0.026,0.268c-3.864-0.387-9.034-3.18-12.05-6.502c-0.316,0.047-0.613-0.032-0.964-0.134c-0.239,1.024-0.806,1.206-1.534,1.093c2.081,2.854,4.879,6.093,8.349,6.788l-0.053,0.264c-3.662-0.733-6.566-4.188-8.694-7.14c-0.146-0.046-0.293-0.095-0.446-0.168c-0.231,1.005-1.108,1.33-1.966,0.985c1.756,2.623,5.033,5.364,6.583,6.484l-0.157,0.219c-1.75-1.264-5.166-4.133-6.876-6.879l0.009-0.006c-0.089-0.046-0.179-0.105-0.269-0.16c-0.273,0.845-0.9,1.317-1.678,1.157c0.816,2.011,2.551,4.671,4.928,5.858l-0.12,0.24c-2.512-1.255-4.329-4.099-5.131-6.172c-0.335-0.108-0.69-0.311-1.048-0.608c-0.282,0.509-0.664,0.81-1.111,0.889c0.689,1.825,1.774,3.588,3.329,5.382l-0.203,0.176c-1.594-1.838-2.705-3.647-3.404-5.524c-0.347-0.008-0.639-0.135-0.972-0.354c-0.518,0.665-1.144,0.995-1.834,0.726c1.035,2.696,1.849,3.866,2.794,5.082l-0.213,0.166c-0.991-1.277-1.837-2.486-2.937-5.418c-0.111-0.071-0.22-0.149-0.324-0.248c-0.879,1.161-2.15,0.906-2.891-0.267c-0.017,0.022-0.035,0.042-0.052,0.063c1.154,2.877,1.861,4.173,2.888,5.294l-0.198,0.182c-1.152-1.257-1.89-2.772-2.887-5.244c-0.784,0.805-1.68,0.803-2.51,0.031c-0.04,0.382-0.083,0.759-0.136,1.117l-0.267-0.039c0.248-1.686,0.359-3.643,0.332-5.814c-0.025-2.015,0.698-3.537,1.463-5.15c1.081-1.957,1.876-4.77,1.649-7.505l0.27,0.006c0.23,2.781-0.586,5.641-1.675,7.615c-0.751,1.583-1.461,3.079-1.437,5.03c0.02,1.593-0.037,3.067-0.164,4.409c0.873,0.999,1.961,0.698,2.573-0.233c-0.45-0.765-0.796-1.84-0.987-3.165l0.267-0.039c0.5,3.275,1.949,5.359,3.581,3.505c-0.645-0.744-1.138-2.03-1.381-3.718l0.267-0.039c0.499,3.283,1.962,5.371,3.593,3.491c-0.86-0.699-1.684-2.118-1.999-4.306l0.267-0.039c0.403,3.134,2.625,6.103,4.104,3.759c-0.726-0.679-1.438-1.75-1.957-3.281l0.255-0.086c0.957,2.984,3.7,5.539,4.725,2.933c-0.947-0.658-1.929-1.802-2.705-3.228l0.236-0.129c1.509,2.79,4.39,5.116,5.138,2.72c-1.113-0.605-2.349-1.819-3.333-3.385l0.228-0.143c1.68,2.685,4.848,5.104,5.469,2.745c-1.212-0.47-2.675-1.661-3.837-3.508l0.228-0.143c1.604,2.633,5.185,5.068,5.778,2.612c-1.134-0.464-2.363-1.394-3.578-2.753l0.2-0.18c2.32,2.532,5.514,4.462,6.872,1.652c-1.482-0.424-3.255-1.348-5.239-2.761l0.156-0.219c3.93,2.701,8.251,4.689,9.201,0.974c-1.936-0.257-4.234-1.166-6.536-2.662l0.146-0.227c4.198,2.738,10.412,4.48,10.926-0.033c-2.441-0.135-5.298-0.858-7.829-1.841l0.098-0.25c5.796,2.196,13.611,3.387,13.102-1.72c-2.919,0.141-5.822-0.454-10.169-1.647l0.074-0.26c7.655,2.091,14.731,3.161,14.517-2.258c-3.402,0.774-6.768,0.001-10.557-0.701l0.054-0.264c3.717,0.634,13.197,3.055,13.312-2.814c-3.278,0.785-6.661,0.193-10.337-0.241l0.035-0.267c5.641,0.614,13.033,1.979,13.048-3.275c-3.057,0.69-7.475,0.607-11.167,0.324l0.02-0.269c7.481,0.461,14.33,0.305,14.835-3.04c-5.685-0.27-11.023-0.545-18.166-0.715c-9.274-0.32-14.812,5.005-19.193,9.626c-3.389,3.489-6.589,6.785-11.183,6.875l-0.005-0.27c4.483-0.087,7.5-3.194,10.995-6.793c4.523-4.658,9.662-9.927,19.393-9.708c12.184,0.129,25.748,1.655,35.596,0.806l0.027,0.268c-4.659,0.467-10.031,0.264-17.196-0.076c-0.195,1.812-1.757,2.362-3.685,2.903c0.018,0.45-0.035,0.856-0.128,1.235c8.324,0.319,31.052-0.774,36.212-4.307l0.152,0.222c-2.995,2.051-11.201,3.142-17.559,3.695c-7.111,0.579-13.062,0.815-18.869,0.656c-0.38,1.198-1.34,1.889-2.553,2.271c0.016,0.911-0.188,1.682-0.614,2.299c15.019,0.644,28.984-0.856,35.639-3.823l0.109,0.246c-6.301,3.134-24.062,4.555-35.973,3.839C236.071,154.286,235.379,154.602,234.58,154.861z M200.031,148.831l0.019,0.269c-0.79,0.069-2.109,0.012-2.651,0.217l-0.1-0.25C197.885,148.839,199.202,148.902,200.031,148.831z M198.815,146.975l-0.267-0.04c0.057-0.534,0.609-0.469,0.553-0.995l0.267-0.033c0.051,0.405-0.149,0.573-0.31,0.709C198.937,146.718,198.841,146.799,198.815,146.975z M192.959,146.01c-0.165,1.667,2.765,1.816,2.765,0.137c0.445-0.031,1.033,0.014,1.612,0.323l0.127-0.237c-0.995-0.532-2.013-0.353-2.403-0.251c-1.233,0.29-2.482-0.692-3.768-0.294l0.075,0.259C191.897,145.791,192.433,145.883,192.959,146.01z M195.126,146.243c0.081-0.021,0.195-0.045,0.327-0.065c-0.043,1.264-2.297,1.16-2.229-0.102C193.847,146.234,194.492,146.409,195.126,146.243z" />
  <path fill="#FFCA26" stroke="#613A21" stroke-width="0.3" stroke-miterlimit="10" d="M180.004,67.554l-1.942,5.984l-6.305-0.009l5.104,3.708l-1.941,5.979l5.091-3.69l5.078,3.69l-1.937-5.967l5.1-3.697l-6.303-0.009L180.004,67.554z M85.355,116.815l3.788,5.024l-3.623,5.159l5.965-2.054l3.785,5.02l-0.103-6.287l5.936-2.043l-5.998-1.836L95,113.501l-3.622,5.158L85.355,116.815z M103.821,96.22l2.485,5.78l-4.746,4.15l6.282-0.577l2.483,5.776l1.394-6.131l6.251-0.574l-5.39-3.209l1.396-6.142l-4.744,4.149L103.821,96.22z M126.652,80.604l1.04,6.205l-5.596,2.903l6.239,0.933l1.039,6.2l2.812-5.624l6.208,0.929l-4.473-4.398l2.816-5.634l-5.595,2.902L126.652,80.604z M152.541,70.863l-0.464,6.275l-6.126,1.49l5.839,2.389l-0.465,6.27l4.068-4.795l5.81,2.378l-3.299-5.336l4.075-4.803l-6.124,1.49L152.541,70.863z M207.466,70.867l-3.309,5.351l-6.122-1.507l4.076,4.815l-3.307,5.347l5.822-2.375l4.055,4.792l-0.463-6.256l5.832-2.379l-6.12-1.507L207.466,70.867z M233.353,80.613l-4.486,4.411l-5.588-2.919l2.815,5.646l-4.483,4.407l6.22-0.923l2.8,5.618l1.037-6.187l6.231-0.925l-5.587-2.918L233.353,80.613z M256.182,96.232l-5.406,3.219l-4.734-4.164l1.392,6.153l-5.402,3.216l6.261,0.582l1.385,6.123l2.478-5.763l6.272,0.583l-4.733-4.162L256.182,96.232z M274.645,116.83l-6.016,1.841l-3.609-5.17l-0.11,6.307l-6.012,1.839l5.943,2.053l-0.11,6.276l3.777-5.009l5.954,2.057l-3.608-5.168L274.645,116.83z" />
</svg>
