<svg xmlns="http://www.w3.org/2000/svg" width="450px" height="300px" viewBox="0 0 450 300">
  <path fill="#FFFFFF" d="M0,0h450v300H0V0z" />
  <path fill="#0047AB" d="M0,200h450v100H0V200z M0,0h450v100H0V0z" />
  <path fill="#FFCC00" d="M204.1,187.8L204.1,187.8l0.4,2.9c-0.8-0.3-1.5,0.2-1.8,0.8c-0.5,1.1-0.1,1.9,1,2.4l1.4,0.7l2.6-5l-1-0.5l-1,2l0,0l-0.2-2.7L204.1,187.8L204.1,187.8z M204.4,191.6c0.2,0,0.4,0,0.7,0.1l0.1,0.1l-0.7,1.4l-0.1-0.1c-0.5-0.3-0.8-0.5-0.5-1.1C204,191.8,204.2,191.6,204.4,191.6L204.4,191.6z M199.7,190.4l0.7-1l-1.5-1l0.5-0.8l1.5,1l0.8-1.3l-1.6-1l0.5-0.8l2.5,1.7l-3.1,4.7l-2.5-1.7l0.5-0.8L199.7,190.4 M198.6,183.9L198.6,183.9l-1.4,1.6l-0.4-0.3c-0.9-0.8-1.8-0.8-2.6,0.1c-0.8,1-0.5,1.8,0.4,2.6l1.1,1l3.6-4.3L198.6,183.9z M195.6,185.7c0.2-0.1,0.5,0.1,0.8,0.3l0.2,0.1l-1,1.1l-0.2-0.1c-0.4-0.3-0.6-0.7-0.2-1.2C195.4,185.8,195.5,185.7,195.6,185.7z M191.7,185.2l-0.8-0.8l2.3-2.1c0.5-0.5,1.2-1.2,0.5-1.9c-0.6-0.7-1.4-0.1-1.9,0.3l-2.3,2.1l-0.8-0.8l2.5-2.3c1-0.9,2.2-1.1,3.2,0c1.1,1.1,0.7,2.3-0.3,3.2L191.7,185.2 M189.6,174.6c-0.1,0-0.2,0-0.2,0c-0.2,0-0.5,0.1-0.7,0.3c-0.5,0.4-0.9,1-0.6,1.6c-0.4-0.1-0.9,0-1.2,0.2c-0.9,0.6-0.9,1.4-0.3,2.3l0.8,1.1l4.6-3.2l-1-1.4C190.6,175,190.1,174.6,189.6,174.6L189.6,174.6z M189.6,175.8c0.3,0,0.6,0.2,0.8,0.6l0.1,0.2l0,0l-1.2,0.8l-0.1-0.1c-0.2-0.4-0.6-0.9,0-1.3C189.4,175.9,189.5,175.8,189.6,175.8L189.6,175.8z M188,177.4c0.2,0,0.4,0.1,0.6,0.4l0.1,0.1l-1.1,0.8l-0.1-0.1c-0.2-0.3-0.3-0.7,0.1-1C187.8,177.5,187.9,177.4,188,177.4L188,177.4z M187.9,172.2l-0.8-1.4l0.8-0.4l1.3,2.4l-4.9,2.7l-0.6-1L187.9,172.2 M187.1,168.2l0.4,1.1l-5.1,2.3l-0.4-1.1L187.1,168.2 M181.3,164.4c-0.3,0.4-0.3,0.9-0.2,1.4c0.4,1,1.4,1.3,2.4,1c0.9-0.3,1.6-1.2,1.2-2.2c-0.1-0.5-0.5-0.8-1-1.1l1.2-0.4c0.3,0.3,0.6,0.7,0.8,1.1c0.5,1.6-0.4,3.1-1.9,3.6c-1.5,0.4-3.2-0.2-3.8-1.8c-0.1-0.4-0.1-0.9-0.1-1.3L181.3,164.4 M183.9,156.9l-5.3,3.2l0.2,0.9l6.1,1.2l-0.2-1.2l-1.2-0.3l0,0l-0.4-2l1.1-0.6L183.9,156.9z M182.3,159.2l0.2,1.3l-2.1-0.3L182.3,159.2z M180.7,146.4c-1.3,0.1-2.3,1.1-2.4,2.6l-0.1,1.6l5.5,0.5l0.1-1.6c0.1-1.6-1-2.9-2.6-3C181.1,146.4,180.9,146.4,180.7,146.4L180.7,146.4z M180.8,147.6c0.1,0,0.2,0,0.4,0c1,0.1,1.6,0.6,1.5,1.9v0.2l-3.4-0.3v-0.2C179.5,148.2,179.9,147.7,180.8,147.6L180.8,147.6z M180,143.2l1.2,0.2l0.4-1.8l0.9,0.2l-0.3,1.8l1.5,0.3l0.4-1.8l0.9,0.1l-0.6,3l-5.5-1.1l0.6-2.9l1,0.2L180,143.2 M182.2,135.9l1.1,0.4l0.6-1.7l0.9,0.3l-0.6,1.7l1.4,0.5l0.7-1.7l0.9,0.3l-1.1,2.8l-5.3-2l1.1-2.8l0.9,0.3L182.2,135.9 M187.5,133l0.7-1.4l0.9,0.4l-1.3,2.4l-5-2.6l0.5-1L187.5,133 M189.1,124.2c-0.3,0-0.7,0.1-0.9,0.4s-0.2,0.7,0,1c0.8,0.5,1.8-1.6,3.4-0.4c0.9,0.7,1.1,1.7,0.4,2.7c-0.5,0.7-1.2,0.8-1.9,0.8l-0.1-1c0.4,0.2,1,0,1.3-0.3s0.1-0.8-0.2-1.1c-0.4-0.3-0.9,0-1.3,0.3c-0.6,0.4-1.3,0.7-2,0.1c-0.8-0.5-0.9-1.6-0.3-2.3c0.3-0.4,0.9-0.8,1.4-0.9L189.1,124.2 M191.6,119.2l-0.6,0.7l2.6,5.7l0.8-0.9l-0.5-1.1l0,0l1.4-1.4l1.1,0.5l0.8-0.9L191.6,119.2z M192.4,120.8L192.4,120.8L192.4,120.8l1.8,0.8l-0.9,0.9L192.4,120.8z M198.4,119.5l1.3-1l0.6,0.7l-2.1,1.7l-3.5-4.4l0.9-0.7L198.4,119.5 M201.9,115.9L201.9,115.9L201,112l1.1-0.6l1.1,6.1l-0.6,0.3l-5-3.7l1-0.7L201.9,115.9 M206,109.3l-0.8,0.4l0.3,6.2l1.1-0.5v-1.3l0,0l1.9-0.8l0.9,0.9l1.1-0.4L206,109.3z M206.3,111.1l1.4,1.4l-1.1,0.5L206.3,111.1z M212,107.4c-0.2,0-0.4,0.1-0.6,0.1l-1.5,0.4l1.6,5.4l1.6-0.4c1.6-0.5,2.4-2,1.9-3.5C214.5,108,213.4,107.2,212,107.4L212,107.4z M212.3,108.5c0.7,0,1.1,0.4,1.4,1.2c0.3,1,0,1.8-1.2,2.1l-0.1,0.1l-1-3.2l0.2-0.1C211.8,108.5,212,108.5,212.3,108.5L212.3,108.5z M219.1,105.7c-0.1,0-0.2,0-0.3,0c-1.6,0.2-2.7,1.8-2.4,3.3c0.2,1.6,1.6,2.8,3.3,2.5c1.7-0.2,2.6-1.7,2.4-3.3C221.8,106.8,220.6,105.7,219.1,105.7z M218.9,106.9c0.9-0.1,1.7,0.7,1.8,1.5s-0.5,1.8-1.3,1.9c-0.9,0.1-1.7-0.8-1.8-1.5C217.5,108,218,107.1,218.9,106.9L218.9,106.9z M223.8,105.4l-0.1,5.7h1.1v-2.3l0,0l1.4,2.3h1.4l0,0l-1.6-2.4c0.8-0.1,1.2-0.8,1.2-1.5c0-1.2-0.8-1.7-1.9-1.7L223.8,105.4z M224.9,106.4h0.1c0.5,0,1,0.1,1,0.8c0,0.6-0.4,0.8-1,0.8h-0.1l0,0V106.4z M235.7,107.7l-0.3,1.2l1.8,0.4l-0.2,1l-1.8-0.4l-0.3,1.4l1.8,0.5l-0.2,0.9l-2.9-0.8l1.3-5.4l2.9,0.7l-0.2,1L235.7,107.7 M239.9,107.7l0.8,0.3l1.4,4.8l0,0l1.4-3.5l1,0.4l-2.1,5.3l-0.8-0.3l-1.4-4.8l-1.4,3.6l-1.1-0.4L239.9,107.7 M247.4,116.7l1.3,0.8l-0.5,0.8l-2.3-1.4l3-4.8l1,0.6L247.4,116.7 M254.3,115.6l-5.4,3.1l0.9,0.7l1.1-0.6l0,0l1.6,1.3l-0.4,1.2l1,0.8l1.9-5.9L254.3,115.6z M253.4,117.2l-0.6,1.8l-0.9-0.8L253.4,117.2z M262.7,124.4l-6,1.6l0.7,1l1.3-0.3l0,0l1.2,1.7l-0.7,1.1l0.7,1l3.4-5.2L262.7,124.4z M261.5,125.8l-1.1,1.6l-0.7-1L261.5,125.8z M265.5,133.5l-3.8,0.4l-0.1-0.3l2.6-2.7l0,0l-3.3,1.1l-0.5-1l5.6-1.7l0.4,0.7l-2.6,2.9l3.9-0.4l0.4,0.7l-4.8,3.4l-0.5-1L265.5,133.5 M268.2,137.2l-1.1,0.4l0.6,1.7l-0.9,0.3l-0.6-1.7l-1.4,0.4l0.6,1.8l-0.9,0.3l-1-2.9l5.3-1.8l1,2.9l-0.9,0.3L268.2,137.2 M270.3,140.8l-5.5,1.1l0.2,1.1l2.2-0.5l0,0l-1.9,1.9l0.3,1.3l0,0l2-2.1c0.3,0.7,1.1,0.9,1.8,0.8c1.2-0.2,1.5-1.1,1.2-2.2L270.3,140.8z M269.6,142.2L269.6,142.2c0.1,0.6,0.1,1.1-0.5,1.2c-0.6,0.1-0.9-0.2-1-0.8v-0.1L269.6,142.2z M265.9,148.1l-0.1-1.1l5.6-0.6l0.1,1.1L265.9,148.1 M270.2,153.5c0.4-0.3,0.6-0.8,0.6-1.3c0-1.1-1-1.7-2-1.7s-1.9,0.7-1.9,1.8c0,0.4,0.3,1,0.6,1.3h-1.3c-0.2-0.4-0.3-0.9-0.3-1.3c0-1.6,1.3-2.9,2.9-2.9s3,1.1,3,2.8c0,0.4-0.1,0.9-0.3,1.3L270.2,153.5 M266.1,154.6l-0.1,1.2l1.1,0.6l-0.3,2l-1.2,0.3l-0.1,1.2l6-1.5l0.1-0.9L266.1,154.6z M268,156.9l1.8,0.8v0.1l-1.9,0.4L268,156.9z M266.3,170.7c0.5-0.1,0.8-0.5,1-1c0.4-1-0.3-2-1.1-2.3c-0.9-0.3-2-0.1-2.4,0.9c-0.1,0.5-0.1,1,0.1,1.4l-1.2-0.4c0-0.5,0-0.9,0.1-1.4c0.6-1.5,2.3-2.2,3.8-1.6c1.5,0.6,2.4,2.2,1.8,3.8c-0.2,0.4-0.5,0.8-0.8,1.1L266.3,170.7 M265.3,173.7l-1.1-0.6l-0.9,1.6l-0.8-0.4l0.8-1.6L262,172l-0.9,1.7l-0.8-0.4l1.4-2.7l5,2.7l-1.4,2.6l-0.8-0.4L265.3,173.7 M264.3,177.9l-0.5,0.6l-5,0.1l0,0l3.1,2.2l-0.7,0.9l-4.6-3.4l0.5-0.6l5-0.2l0,0l-3.1-2.3l0.7-0.9L264.3,177.9 M254.2,181.1l0.8-0.8l3.4,3.2l0.8-0.9l0.7,0.6l-2.4,2.5l-0.7-0.6l0.8-0.8L254.2,181.1 M252.6,182.7l-0.9,0.7l1.5,1.8l0,0l-2.6-0.9l-1,0.9l0,0l2.8,0.8c-0.5,0.6-0.4,1.4,0.1,2c0.7,0.9,1.7,0.7,2.6,0l1.1-1L252.6,182.7L252.6,182.7z M253.7,185.9l1,1.2l-0.1,0.1c-0.4,0.4-0.8,0.5-1.2,0S253.1,186.3,253.7,185.9L253.7,185.9z M249.1,185.6l-1,0.6l0.2,1.3l0,0l-1.7,1.1l-1-0.8l-1,0.6l5,3.7l0.7-0.4L249.1,185.6L249.1,185.6z M248.4,188.6l0.5,1.8l0,0l-1.5-1.2L248.4,188.6z M242.9,190.3l-1.5,0.6l-0.4-0.8l2.5-1.2l2.4,5.1l-1,0.4L242.9,190.3 M269.4,136.7l1.1,1.5h0.9l-0.8-1.5H269.4z M187.9,183.7l1.8-0.2l0.6,0.6l-1.6,0.5L187.9,183.7z" />
  <path fill="#009900" stroke="#000000" stroke-width="0.1835" d="M215.4,190.4c0,0,2-0.1,2.3-0.1s1-1.4,1.3-1.6c0.3-0.2,5.6-2.8,9-3.3s8.7-2.6,9.8-3.1c5.7-2.7,12-7.8,13.4-9.9c1.4-2.2,3-7.2,3.7-9.9c0.3-1.3,2-6.4,2-9.9c0-4.1-0.5-7.4-1.1-10s-5.1-10.4-7.9-13.8c0,0,6.2,9.6,7.3,13.4c1.1,3.8,1.4,8.4,1.3,11.1c-0.1,2.2-1.8,10.1-4.5,16c-2.1,4.7-3.9,5.2-7.2,7.8c-1.5,1.2-4.5,3.2-7,4.4s-7.8,2.8-9.2,3c-1.4,0.3-8.5,2.3-9.4,2.8C218.4,187.6,216,189.7,215.4,190.4L215.4,190.4z" />
  <path fill="#009900" stroke="#000000" stroke-width="0.183" d="M250.8,172.4c-0.1-0.7-0.2-1.2-0.5-1.4c-0.2-0.3-1-1.2-1.1-1.8s0-1.1,0-1.4c0-0.3-0.2-1.4-0.2-1.4s0.4-1.3,0.7-1.6c0.3-0.2,1.1-1.3,1.2-1.6c0,0,0,0.6,0.1,0.9c0.3,0.3,0.3,1.1,0.3,1.6c0,0.4-0.1,1.5,0,2.1s0.4,1.1,0.2,1.8C251.5,170.1,250.8,172.4,250.8,172.4 M251,171.6c0,0,1.8-2.3,1.8-3.2s0.1-1.4,0.3-1.7c0.1-0.2,1.2-1.4,0.3-2.9c-0.4-0.6-0.5-0.6-0.7-1.2c-0.3-0.8-0.9-0.8-1-1.7c0,0-0.2,1-0.3,1.8s0.1,1.1,0.1,1.6c0.1,0.5-0.2,1-0.2,1.7s0.1,1,0.1,1.4C251.4,167.7,251.7,170.7,251,171.6 M231.1,183.8c0,0,1.5-0.1,2.1-0.3c0.4,0,1.3-0.3,1.8-0.4c0.4-0.1,1.3-0.6,2.1-1.4c1.4-1.5,1.2-2.3,1.5-2.4c0.5-0.1-0.8-0.2-1.4-0.1c-0.6,0.1-1.4,0.5-2,1s-1.4,1.1-1.8,1.4c-0.3,0.2-0.5,0.3-0.9,0.8C232.2,182.7,232.2,183,231.1,183.8 M229.1,184.8c0,0,3.8-1.7,4.1-2c0.4-0.3,1-0.9,1.4-1.3c0.4-0.4,2-1.2,2.3-1.8c0.2-0.3,1.1-1.7,1.7-2.8c0.3-0.6-2.5,0.1-2.5,0.1c-2.3,0.9-1.2,0.3-2.5,1.2c-0.8,0.6-1.3,1.1-1.4,1.5c-0.3,0.6-0.6,1.8-1,2.4C230.9,182.9,230.3,183.6,229.1,184.8 M227.1,185.3c0,0,3.1-0.8,4.5-2.7c1-1.3,1-0.9,1.4-1.3c0.5-0.6,1.3-1.2,2-2.3c-0.1,0.1,0.8-3.1,0.8-3.4c0-0.2-1.2,0.1-2.1,0.5c-0.8,0.3-1.3,1-1.9,1.4c-0.8,0.5-0.9,1.9-1.3,2.5c-0.5,0.9-0.6,1.4-0.6,1.8c0,0.7-0.4,0.9-0.6,1.5C229,184,228.2,183.9,227.1,185.3 M232,184.3c0,0,2.6-1.2,3-1.3s0.5-0.3,1.1-0.4c0.4-0.1,0.8-0.4,1.9-0.2c0.4,0.1,2.4,0.5,2.9,0.3c0.4-0.2-0.7,1.3-1.3,1.6c-0.5,0.3-1.4,0.4-2.2,0.4c-0.8-0.1-1.9,0-2.3,0c-0.4,0-0.6,0.1-1.2-0.1C233.5,184.5,233.3,184.2,232,184.3 M230.2,184.3c0,0,2.9-0.8,3.4-0.8s1.9,0.1,2.4,0.2c0.6,0.1,2.3-0.1,2.9,0.1c0.5,0.3,2.9,0.6,3.5,0.4c0.6-0.1-1.2,1.7-2,1.9c-2.4,0.7-1.6,0.6-3.2,0.2c-1-0.2-2.3-0.3-2.8-0.4c-0.5-0.1-0.4-0.3-1-0.6C232.9,185.1,231.9,184.4,230.2,184.3 M227.8,185.5c0,0,2.9-1.2,5.2-0.6c1.6,0.4,1.6,0.4,2.2,0.5c0.7,0.1,1.3-0.3,2.6,0.2c0.6,0.2,3.2,1.3,3.9,1.2c0.6,0-2,1.7-2.8,1.6c-2.4-0.3-4.6,0.4-5.7,0c-1-0.4-1.6-0.6-2.1-0.8s-0.8-0.6-1.1-0.8C229.8,186.6,229.6,186,227.8,185.5 M243.6,178.7c0,0,1.7-1.9,2-2.1c0.3-0.3,1.1-0.8,1.6-1.2c0.3-0.3,0.7-1,1.8-1.3c0.5-0.1,1.6-0.3,1.9-0.7c0.3-0.4,0,1.5-0.4,2c-0.3,0.5-1.1,1.1-1.8,1.3c-0.7,0.3-1.7,0.8-2,1c-0.3,0.1-0.5,0.3-1.1,0.4C245,178.2,244.7,178.1,243.6,178.7 M242,179.5c0,0,2.9-2,3.3-2.2c0.4-0.2,1.3-0.5,1.8-0.7c0.6-0.1,2-1.2,2.6-1.2s1.7-0.1,2.2-0.4c0.4-0.4,0,1.4-0.5,1.9c-1.9,1.6-0.6,1.1-2.1,1.4c-0.9,0.2-2.2,0.7-2.6,0.8c-0.5,0.1-0.5-0.1-1.2-0.1C244.8,179.1,243.5,179,242,179.5 M241.3,180c0,0,1.2-0.8,3.5-1.1c1.6-0.3,1.6-0.4,2.1-0.5c0.7-0.2,0.9-0.2,2.2-0.3c0.6-0.1,3.2,0.8,3.8,0.4c0.5-0.3-0.6,0.8-1.3,1c-1,0.4-0.9,1-2,1.4c-1.2,0.4-2.4,0.8-3.1,0.7c-0.5-0.1-1-0.3-1.7-0.4C244,181.1,242.7,180.1,241.3,180 M241,179.5c0,0-0.6-2.8-0.1-3.5c0.2-0.3,0.5-0.8,0.6-1.5s0.5-1.8,0.8-2.2s1-2.2,0.8-2.6c0,0,1.6,1.6,1.6,2.6c-0.1,1-0.1,0.8,0,1.2s-0.4,2-0.7,2.5c-0.3,0.4-0.1,1.9-0.5,2.1C243.3,178.4,241.4,179.7,241,179.5 M241.3,180c-0.1,0.1,1-0.9,1.5-1.1c0.6-0.2,2.7-0.8,2.9-1.4c0.1-0.6,1.9-2.4,2-2.9c0-0.3,0.4-1.1,0.3-1.4c-0.1-0.4-0.2-1.3-0.4-1.8c-0.2-0.6-0.8-1.9-1.3-2.1c0,0-0.4,1.4-0.6,2c-0.1,0.6-0.3,1.2-0.5,1.5s-1,1.8-1.1,2.3c0,0.5-0.4,2.3-0.5,2.7C243.4,178.2,241.9,179.8,241.3,180 M250.8,172.4c-0.1,0.4,1.1-0.4,1.8-0.4c0.6,0,2.5,0.2,2.9-0.2s1.1-1.3,1.4-1.5c0.3-0.1,1.1-1.5,1.3-2.3c0.2-0.8,1.9-2.2,2.1-2.3c0,0-2.2-0.4-3.6,0.4c-1.4,0.9-1.4,0.7-1.8,0.9c-0.3,0.1-2.7,2.2-2.9,2.9C251.9,170.7,250.9,172,250.8,172.4 M250.8,172.4c0,0,2-1.4,2.4-1.3c0.5,0.1,2.7-1.5,2.8-2.5c0.1-0.5,1.1-1.3,1.3-1.6c0.5-0.9,0.8-3,1.6-3.6c0,0-2.1,0.5-2.6,0.6c-1,0.1-1.8,0.3-2.3,1.2c-0.3,0.8-0.7,1.5-1,1.6s-0.8,1.1-0.9,2.3C252.1,170,250.8,172.4,250.8,172.4 M254.6,161.8c-0.3,0.5-0.3-3.1-0.5-3.4c-0.1-0.4-0.5-1.2-0.8-1.5s-0.3-1.4-0.4-1.7c-0.1-0.3-0.1-2.4,0.1-2.9c0,0,0.6,0.4,1,0.8c0.3,0.4,0.8,0.5,1,1c0.1,0.4,0.5,0.4,0.7,1c0.2,0.4,0.5,1.2,0.3,1.8c-0.1,0.6-0.1,0.8-0.1,1.4C255.9,158.8,255.1,161.1,254.6,161.8 M254.6,162.1c0,0,0.1-1-0.2-1.4c-0.4-0.4-0.8-0.4-0.9-0.6c-0.1-0.2-0.1-0.5-0.3-0.8c-0.1-0.3-0.5-0.8-0.5-1.1c-0.1-0.8-0.6-1.8-0.2-2.7c0,0,0.9,0.3,1.1,0.4c0.2,0.1,1,0.8,1,1.4c0.1,0.7,0.1,0.8,0.4,1.2c0.2,0.4,0.5,1.5,0.1,2.2C254.8,161.2,254.7,161.6,254.6,162.1 M256.8,150.2c0,0,0.1-2.3-0.4-2.9c-0.6-0.7-0.8-2-2.2-2.7c0,0,0.1,0.6,0,1c0,0.3-0.2,1.4,0,1.8c0.3,0.4,1,1.1,1,1.4c0,0.3,0.5,1.1,0.9,1.2C256.5,150.2,256.8,150.2,256.8,150.2 M256.8,151.5c0,0,0-1.6-0.4-2.1c-0.5-0.4-0.7-0.7-0.9-1s-0.5-1.1-1-1.4c-0.6-0.3-1.5-1.1-1.6-1.4c0,0-0.2,1.9,0.3,2.9s0.5,1.5,1.2,1.8c0.6,0.2,0.7,0.4,0.9,0.5c0.2,0.2,0.6,0.4,0.9,0.4C256.5,151.3,256.8,151.5,256.8,151.5 M255,162.1c-0.1,0.4-0.4-1,1.2-1s3-0.6,3.5-1.2c0.6-0.5,0.9-0.9,1.1-1.2c0.2-0.2,0.8-1.1,0.9-1.6c0.1-0.4,0.5-2.2,0.5-2.5c0,0-0.8,0.1-1.2,0.4c-0.4,0.3-1.1,0.3-1.5,0.6c-0.4,0.2-0.7,0.8-0.9,1.1c-0.2,0.2-0.9,0.2-1.2,0.7c-0.3,0.5-0.9,1.5-1,1.9c0,0.4-0.6,0.9-1,1.1C255,160.7,255.1,161.6,255,162.1 M255.2,161.4c0,0,1.1-1.3,1.6-1.3c0.6,0,2-1.4,2-2c0.1-0.6,0.5-1.8,0.8-2s0.9-0.8,0.8-1.7s-0.1-2.4-0.1-2.4s-0.3,0.9-0.8,1.1c-0.5,0.2-1.3,0.5-1.5,0.8c-0.1,0.3-0.8,0.3-1,1.3c-0.2,0.9-0.2,0.8-0.4,1.1c-0.1,0.3-0.5,0.7-0.7,1.3C255.9,158.2,255,159.8,255.2,161.4 M256.8,152.9c0,0.4-0.6-0.8,0.8-1.3c1.5-0.4,2.5-1.4,2.9-2c0.3-0.6,0.5-1.1,0.6-1.3c0.1-0.3,0.5-1.3,0.4-1.7c0-0.4-0.1-2.1-0.3-2.4c0,0-0.7,0.4-1,0.8c-0.3,0.4-0.9,0.6-1.2,0.9c-0.3,0.3-0.4,1-0.5,1.3s-0.8,0.4-0.9,1c-0.1,0.5-0.4,1.6-0.3,2c0,0.4-0.3,1-0.6,1.3C256.5,151.7,256.8,152.5,256.8,152.9 M256.8,152.2c0,0,0.6-1.5,1.1-1.6s1.3-1.4,1.3-2s0.1-1.8,0.4-2.1c0.2-0.3,0.6-1.3,0.3-2.1c-0.3-0.8-0.8-1.9-0.8-1.9s-0.5,0.7-0.7,1.1c-0.4,0.8-0.8,0.8-0.9,1.1c0,0.3-0.6,0.5-0.7,1.2c-0.2,0.9,0,0.8,0,1.2c0,0.3-0.3,0.8-0.3,1.4C256.5,149.1,256.2,150.8,256.8,152.2 M255.6,142.9c-0.1-0.2-0.5-0.4-1.1-0.6c-0.5-0.1-1.4-1.4-1.8-1.7c-0.4-0.3-0.6-0.8-1-1.1s-0.8-1.2-0.9-2.2c0,0,1.3,0.3,1.7,0.4c0.4,0.1,1.1,0.6,1.5,0.9c0.3,0.4,0.6,1,0.9,1.2s0.7,1.1,0.7,1.7L255.6,142.9 M255.6,142.2c0,0,0.1-0.9,0.1-1.3c0-0.4,0.3-1.7-0.4-2.7c-0.4-0.7-2.2-2-2.6-2.1c0,0-0.3,1.2-0.2,1.6c0.1,0.4,0.5,1.9,0.8,2.1C253.7,139.9,254.6,141.8,255.6,142.2 M256,142.9c0.2,0.3,0.1-1.2,0.5-1.5c0.5-0.4,0.5-1,0.5-1.6s-0.1-1.1-0.2-1.5s-1.3-2-1.2-2.4c0,0-0.6,1.5-0.8,1.9c-0.2,0.5,0.1,1.1,0.1,1.6c-0.1,0.4-0.4,1.3-0.1,1.8C255,141.5,255.7,142.3,256,142.9 M251.9,134.8c0,0-0.1-0.2-0.8-0.2s-1.7,0-2-0.4c-0.3-0.3-0.8-0.7-1.1-0.8s-0.9-0.8-0.9-1.2c-0.1-0.3-0.6-0.9-0.9-0.9c0,0,0.9-0.1,1.8,0.2c0.9,0.2,2.2,0.7,2.5,1.3C250.9,133.4,251.9,134.8,251.9,134.8 M251.7,134.7c-0.2,0.5-1.5-0.5-1.8-0.9s-0.8-1-0.8-1s-0.8-0.9-0.9-1.3c-0.4-0.8-0.3-2.4-0.1-2.3c0.2,0.1,1.1,0.6,1.3,0.7c0.2,0.1,0.7,0.2,0.8,0.6c0.1,0.4,0.3,0.9,0.6,1.2C251,132,252.4,132.8,251.7,134.7 M252.1,134.7c0,0-1.1-0.8-1.4-1.1c-0.5-0.4-0.2-1.1-0.5-1.4c-0.2-0.3-0.8-1-0.6-1.5c0.1-0.4,0.4-1.8,0.4-1.8s0.6,0.5,1,0.9s0.4,0.7,0.6,1.1c0.1,0.5,0.4,0.8,0.6,1.2c0.1,0.4,0,1.1-0.1,1.6C252.1,134.2,252.1,134.7,252.1,134.7" />
  <path fill="none" stroke="#000000" stroke-width="0.1835" d="M239.6,180.4c0,0,0.4-1.6,0.3-2c0,0-0.1,0-0.4-0.3 M240.2,181c0,0,1.5,0,1.9,0.2c0,0,0,0.1,0.1,0.4 M249.2,173.6c0,0,0.1-1.9-0.3-2.1c0,0-0.4-0.1-0.6-0.5 M250.7,173c0,0,1.1-0.1,1.4,0c0,0,0.1,0.3,0.3,0.4 M252.8,161.6l0.4,0.2c0.4,0.2,1.2,2,1.2,2s1.2-0.9,1.8-1h0.5 M259.1,152.4c0,0-0.3,0.3-0.6,0.1c0,0-1.6,1-1.6,1.4c0,0-1.6-1.6-1.9-1.4c0,0-0.1,0.2-0.4-0.1 M257.4,142.9c0,0-0.2,0.2-0.5,0.4c0,0-0.7,1-0.7,1.8c0,0-1.3-1.1-1.7-1.1c0,0-0.4,0.1-0.8,0 M253.6,133.9c0,0-0.3,0.4-0.5,0.1c0,0-0.9,1.1-0.4,2c0,0-1.3-0.3-1.7-0.1c0,0-0.1,0.5-0.6,0.2 M248.2,128.4c0,0,0.2,0.5-0.7,0.3" />
  <path fill="none" stroke="#000000" stroke-width="0.0917" d="M235,183.6c0,0,5.1,0,5.6-0.7 M232,184.3c0,0,3.3,0.9,5.1,0.7s2.6,0.1,3,0.1s2.3-0.8,2.3-0.8 M228.6,185.5c0,0,2.6,0.4,3.1,0.6c0.5,0.1,3.2,1.1,3.9,1.1c0.6,0,2.1,0,2.6,0c0.8,0.1,2.8,0,3.2-0.2 M238.3,179.4c0,0-1.9,1.1-2.3,1.5c-0.3,0.4-2,1.8-2.3,1.8 M238.3,176.9c0,0-3.3,2.9-3.9,3.2c-0.5,0.4-3.8,3.6-4.2,4.1 M235.6,175.7c0,0-2.6,2.1-2.9,2.9c-0.3,0.8-1.1,1.8-1.1,1.8s-1.1,2.2-1.5,2.5s-1.1,1.1-2.1,1.7 M250.7,173.8c0,0-2.8,2.3-3.6,2.8 M251.8,175.3c0,0-2.8,1.9-4,2.4c-1.3,0.4-2.3,0.8-5,1.2 M241.7,180c0,0,3.1-0.1,3.6,0s2.9-0.4,3.6-0.5s3.1-0.6,3.4-0.7 M246.5,169.5c0,0,0.1,1.7-0.1,2.4c-0.2,0.7-1.3,2.7-1.2,3.2c0.1,0.4-0.6,2.6-1.2,2.9 M243.3,169.8c0,0,0.6,1.7,0.3,2.3c-0.2,0.5-0.6,1.5-0.6,2.2c0,0.6-0.4,1.5-0.5,1.9s0.1,1.7-0.3,2.1c-0.4,0.4-0.8,1.1-0.8,1.1 M259.9,165.9c0,0-2.4,0.9-2.8,1.5c-0.3,0.6-0.7,0.8-1,1.1 M250.8,163.5c0,0-0.6,2.5-0.4,3.1c0.1,0.6,0.1,1.9,0.1,2.3c0,0.4,0.7,2.3,0.6,2.6 M251.8,161.4c0,0,0.2,1.4,0.3,2.1c0.1,0.6,0,1.6,0.1,2s0.4,2.4,0,3.4 M258.6,163.5c0,0-2,1.7-2.5,2.2c-0.4,0.4-2.5,2.7-2.6,3.2c0,0.5-1.5,2.2-2,2.6 M262,154.8c0,0-2,2-2.2,2.4c-0.1,0.5-1,1.2-1.4,1.5 M252.5,155.7c0,0,0.8,1.1,0.8,1.5s0.3,1.4,0.6,1.8c0.2,0.3,0.8,1.4,0.8,2.1 M253.1,152.4c0,0,0.3,1.1,0.4,1.8c0.2,0.8,0.5,1.6,0.7,2c0.1,0.4,0.8,2.7,0.5,4.1 M260.2,152.4c0,0-0.2,1.1-0.8,1.6c-0.5,0.5-1.4,1.3-1.5,1.8s-0.8,2.8-1.6,3.6c-0.8,0.8-0.8,1.6-0.8,1.6 M261,144.4c0,0-0.3,1.3-0.4,1.7s-0.8,2.1-1.4,2.6 M254.3,144.8c0,0,0.4,1.1,0.4,1.6c0.1,0.4,0.5,1,0.6,1.2s0.4,1,0.4,1 M252.9,145.9c0.1,0.5,0.9,1.9,1,2.1c0,0.3,0.5,1.3,1,1.6s1.8,1.3,1.8,1.7 M259,142.9c0,0,0.1,1.7-0.2,2.3c-0.3,0.6-0.7,1.6-0.8,2c-0.1,0.4-0.1,1.2-0.2,1.8s-0.3,1.6-0.6,1.9 M251,137.6c0,0,1.1,1.3,1.6,1.8s2.5,2.6,2.6,3 M252.8,136.4c0,0,1.1,2.4,1.3,2.8c0.2,0.4,0.4,1,0.4,1 M255.6,136.3c0,0-0.1,1.9,0,2.3c0.1,0.4,0.1,1.2,0,1.5c-0.1,0.2,0.2,1.9,0.3,2.3 M246.6,131.5c0,0,2.4,1.5,2.8,1.9 M248.1,129.6l1.7,2.4l0.4,0.7 M250,129.4c0,0,0.6,1.3,0.6,1.8c0.1,0.6,0.8,2.3,1.1,2.9" />
  <path fill="#E60000" stroke="#000000" stroke-width="0.092" d="M240,178.4c-0.3,0-0.4-0.2-0.4-0.4s0.2-0.4,0.4-0.4s0.4,0.2,0.4,0.4C240.5,178.3,240.3,178.4,240,178.4 M242.6,181.7c-0.3,0-0.4-0.2-0.4-0.4s0.2-0.4,0.4-0.4s0.5,0.2,0.5,0.4S242.9,181.7,242.6,181.7 M248.8,171.5c-0.3,0-0.5-0.2-0.5-0.4c0-0.3,0.2-0.4,0.5-0.4c0.2,0,0.4,0.2,0.4,0.4C249.2,171.2,249,171.5,248.8,171.5 M252.6,173.4c-0.3,0-0.5-0.2-0.5-0.5s0.2-0.5,0.5-0.5s0.5,0.2,0.5,0.5S252.9,173.4,252.6,173.4 M253.3,161.9c-0.3,0-0.5-0.2-0.5-0.5s0.3-0.5,0.5-0.5c0.3,0,0.5,0.3,0.5,0.5C253.8,161.6,253.6,161.9,253.3,161.9 M256.5,162.8c-0.3,0-0.5-0.2-0.5-0.5s0.2-0.5,0.5-0.5s0.5,0.2,0.5,0.5S256.8,162.8,256.5,162.8 M254.9,152.6c-0.3,0-0.5-0.3-0.5-0.5s0.2-0.5,0.5-0.5s0.5,0.2,0.5,0.5C255.4,152.3,255.1,152.6,254.9,152.6 M257.7,143.1c-0.3,0-0.5-0.2-0.5-0.4c0-0.3,0.2-0.5,0.5-0.5s0.5,0.2,0.5,0.5C258.2,142.9,258,143.1,257.7,143.1 M254.1,144.1c-0.3,0-0.5-0.2-0.5-0.5s0.2-0.5,0.5-0.5s0.5,0.2,0.5,0.5C254.6,143.9,254.4,144.1,254.1,144.1 M250.5,136.2c-0.3,0-0.5-0.2-0.5-0.5s0.3-0.5,0.5-0.5c0.3,0,0.5,0.2,0.5,0.5S250.8,136.2,250.5,136.2 M253.2,134.1c-0.3,0-0.5-0.2-0.5-0.5s0.2-0.5,0.5-0.5s0.5,0.2,0.5,0.5C253.7,133.9,253.5,134.1,253.2,134.1 M247.8,128.8c-0.3,0-0.5-0.2-0.5-0.5s0.2-0.5,0.5-0.5s0.5,0.2,0.5,0.5S248,128.8,247.8,128.8 M258.9,152.6c-0.3,0-0.5-0.2-0.5-0.4c0-0.3,0.2-0.5,0.5-0.5s0.5,0.2,0.5,0.5C259.4,152.4,259.1,152.6,258.9,152.6 M209.1,178.4c0.3,0,0.4-0.2,0.4-0.4s-0.2-0.4-0.4-0.4s-0.4,0.2-0.4,0.4C208.6,178.2,208.9,178.4,209.1,178.4 M206.5,181.7c0.3,0,0.5-0.2,0.5-0.4s-0.2-0.4-0.5-0.4c-0.2,0-0.4,0.2-0.4,0.4C206,181.5,206.2,181.7,206.5,181.7 M200.4,171.5c0.2,0,0.4-0.2,0.4-0.4s-0.2-0.4-0.4-0.4c-0.3,0-0.5,0.2-0.5,0.4C199.9,171.2,200.1,171.5,200.4,171.5 M196.6,173.4c0.3,0,0.5-0.2,0.5-0.5s-0.2-0.5-0.5-0.5s-0.5,0.2-0.5,0.5C196,173.2,196.2,173.4,196.6,173.4 M195.9,161.9c0.3,0,0.5-0.2,0.5-0.5s-0.2-0.5-0.5-0.5s-0.5,0.3-0.5,0.5C195.3,161.6,195.6,161.9,195.9,161.9 M192.6,162.8c0.3,0,0.5-0.2,0.5-0.5s-0.2-0.5-0.5-0.5s-0.5,0.2-0.5,0.5S192.4,162.8,192.6,162.8 M194.3,152.6c0.3,0,0.5-0.3,0.5-0.5s-0.2-0.5-0.5-0.5s-0.5,0.2-0.5,0.5C193.8,152.3,194,152.6,194.3,152.6 M191.4,143.1c0.3,0,0.5-0.2,0.5-0.4c0-0.3-0.3-0.5-0.5-0.5c-0.3,0-0.5,0.2-0.5,0.5C190.9,142.9,191.1,143.1,191.4,143.1 M195.1,144.1c0.3,0,0.5-0.2,0.5-0.5s-0.2-0.5-0.5-0.5s-0.5,0.2-0.5,0.5C194.6,143.9,194.8,144.1,195.1,144.1 M198.6,136.2c0.3,0,0.5-0.2,0.5-0.5s-0.3-0.5-0.5-0.5c-0.3,0-0.5,0.2-0.5,0.5S198.4,136.2,198.6,136.2 M195.9,134.1c0.3,0,0.5-0.2,0.5-0.5s-0.2-0.5-0.5-0.5s-0.5,0.2-0.5,0.5C195.4,133.9,195.6,134.1,195.9,134.1 M201.4,128.8c0.3,0,0.5-0.2,0.5-0.5s-0.2-0.5-0.5-0.5s-0.5,0.2-0.5,0.5S201,128.8,201.4,128.8 M190.3,152.6c0.3,0,0.5-0.2,0.5-0.4c0-0.3-0.2-0.5-0.5-0.5s-0.5,0.2-0.5,0.5C189.8,152.4,190,152.6,190.3,152.6" />
  <path fill="none" stroke="#000000" stroke-width="0.1835" d="M209.6,180.4c0,0-0.4-1.6-0.3-2c0,0,0.1,0,0.4-0.3 M208.9,181c0,0-1.4,0-1.9,0.2c0,0,0,0.1-0.1,0.4 M199.9,173.6c0,0-0.1-1.9,0.3-2.1c0,0,0.4-0.1,0.6-0.5 M198.5,173c0,0-1.1-0.1-1.4,0c0,0-0.1,0.3-0.3,0.4 M196.4,161.6l-0.4,0.2c-0.4,0.2-1.1,2-1.1,2s-1.3-0.9-1.8-1h-0.5 M190,152.4c0,0,0.3,0.3,0.6,0.1c0,0,1.5,1,1.6,1.4c0,0,1.6-1.6,1.9-1.4c0,0,0.2,0.2,0.5-0.1 M191.7,142.9c0,0,0.1,0.2,0.4,0.4c0,0,0.7,1,0.7,1.8c0,0,1.3-1.1,1.7-1.1c0,0,0.5,0.1,0.8,0 M195.5,133.9c0,0,0.3,0.4,0.5,0.1c0,0,0.9,1.1,0.4,2c0,0,1.3-0.3,1.7-0.1c0,0,0.1,0.5,0.6,0.2 M200.9,128.4c0,0-0.2,0.5,0.7,0.3" />
  <path fill="#009900" stroke="#000000" stroke-width="0.1835" d="M233.7,190.4c0,0-2-0.1-2.3-0.1s-1-1.4-1.3-1.6c-0.3-0.2-5.6-2.8-9-3.3s-8.7-2.6-9.8-3.1c-5.7-2.7-12-7.8-13.5-9.9c-1.4-2.2-3-7.2-3.7-9.9c-0.3-1.3-2-6.4-2-9.9c0-4.1,0.4-7.4,1.1-10c0.6-2.6,5.1-10.4,7.9-13.8c0,0-6.2,9.6-7.3,13.4c-1.1,3.8-1.4,8.4-1.3,11.1c0,2.2,1.9,10.1,4.5,16c2.1,4.7,3.9,5.2,7.2,7.8c1.5,1.2,4.5,3.2,6.9,4.4c2.5,1.2,7.8,2.8,9.2,3c1.4,0.3,8.5,2.3,9.4,2.8C230.7,187.6,233.1,189.7,233.7,190.4L233.7,190.4z" />
  <path fill="#009900" stroke="#000000" stroke-width="0.183" d="M198.3,172.4c0.1-0.7,0.2-1.2,0.4-1.4c0.2-0.3,1-1.2,1.1-1.8s0-1.1,0-1.4c0-0.3,0.2-1.4,0.2-1.4s-0.4-1.3-0.7-1.6c-0.3-0.2-1.1-1.3-1.3-1.6c0,0,0.1,0.6-0.1,0.9c-0.2,0.3-0.3,1.1-0.3,1.6c0,0.4,0.1,1.5,0,2.1s-0.4,1.1-0.2,1.8C197.8,170.5,198.1,171.4,198.3,172.4 M198.1,171.6c0,0-1.8-2.3-1.8-3.2s-0.1-1.4-0.3-1.7c-0.1-0.2-1.1-1.4-0.2-2.9c0.4-0.6,0.4-0.6,0.7-1.2c0.3-0.8,0.9-0.8,1-1.7c0,0,0.2,1,0.3,1.8s-0.1,1.1-0.1,1.6c-0.1,0.5,0.2,1,0.2,1.7s-0.1,1-0.1,1.4C197.8,167.7,197.5,170.7,198.1,171.6 M218,183.8c0,0-1.5-0.1-2.1-0.3c-0.4,0-1.3-0.3-1.8-0.4c-0.4-0.1-1.3-0.6-2.1-1.4c-1.4-1.5-1.3-2.3-1.5-2.4c-0.5-0.1,0.8-0.2,1.4-0.1c0.6,0.1,1.4,0.5,2,1s1.4,1.1,1.8,1.4c0.3,0.2,0.5,0.3,0.8,0.8C216.9,182.7,216.8,183,218,183.8 M220.1,184.8c0,0-3.8-1.7-4.1-2c-0.4-0.3-1-0.9-1.4-1.3c-0.3-0.4-1.9-1.2-2.2-1.8c-0.1-0.3-1.1-1.7-1.7-2.8c-0.3-0.6,2.5,0.1,2.5,0.1c2.3,0.9,1.3,0.3,2.5,1.2c0.8,0.6,1.3,1.1,1.5,1.5c0.3,0.6,0.6,1.8,1,2.4C218.2,182.9,218.9,183.6,220.1,184.8 M222.1,185.3c0,0-3.1-0.8-4.5-2.7c-1-1.3-1-0.9-1.4-1.3c-0.5-0.6-1.3-1.2-2-2.3c0,0.1-0.9-3.1-0.8-3.4c0-0.2,1.1,0.1,2.1,0.5c0.8,0.3,1.3,1,1.9,1.4c0.8,0.5,0.9,1.9,1.3,2.5c0.5,0.9,0.6,1.4,0.6,1.8c0,0.7,0.4,0.9,0.6,1.5C220.1,184,221,183.9,222.1,185.3 M217.1,184.3c0,0-2.6-1.2-3-1.3s-0.6-0.3-1.1-0.4c-0.4-0.1-0.8-0.4-1.9-0.2c-0.4,0.1-2.4,0.5-2.8,0.3c-0.5-0.2,0.7,1.3,1.2,1.6s1.4,0.4,2.3,0.4c0.8-0.1,1.8,0,2.2,0s0.6,0.1,1.2-0.1C215.6,184.5,215.8,184.2,217.1,184.3 M218.9,184.3c0,0-2.9-0.8-3.4-0.8s-1.9,0.1-2.5,0.2c-0.5,0.1-2.3-0.1-2.8,0.1c-0.5,0.3-2.9,0.6-3.5,0.4c-0.6-0.1,1.3,1.7,2,1.9c2.4,0.7,1.6,0.6,3.2,0.2c0.9-0.2,2.3-0.3,2.7-0.4c0.5-0.1,0.4-0.3,1-0.6C216.2,185.1,217.3,184.4,218.9,184.3 M221.3,185.5c0,0-2.9-1.2-5.2-0.6c-1.6,0.4-1.5,0.4-2.2,0.5s-1.3-0.3-2.6,0.2c-0.6,0.2-3.1,1.3-3.9,1.2c-0.6,0,2.1,1.7,2.8,1.6c2.4-0.3,4.6,0.4,5.7,0c1-0.4,1.6-0.6,2.1-0.8s0.8-0.6,1.1-0.8C219.4,186.6,219.6,186,221.3,185.5 M205.5,178.7c0,0-1.7-1.9-2-2.1c-0.3-0.3-1.1-0.8-1.5-1.2c-0.4-0.3-0.7-1-1.8-1.3c-0.5-0.1-1.6-0.3-1.9-0.7c-0.3-0.4,0.1,1.5,0.4,2c0.3,0.5,1.1,1.1,1.8,1.3c0.7,0.3,1.7,0.8,2,1c0.3,0.1,0.5,0.3,1.1,0.4C204.2,178.2,204.4,178.1,205.5,178.7 M207.1,179.5c0,0-2.9-2-3.3-2.2c-0.4-0.2-1.3-0.5-1.8-0.7c-0.6-0.1-2-1.2-2.6-1.2s-1.6-0.1-2.1-0.4c-0.5-0.4-0.1,1.4,0.5,1.9c1.8,1.6,0.6,1.1,2.1,1.4c0.9,0.2,2.2,0.7,2.6,0.8c0.4,0.1,0.5-0.1,1.2-0.1C204.3,179.1,205.6,179,207.1,179.5 M207.8,180c0,0-1.2-0.8-3.5-1.1c-1.6-0.3-1.5-0.4-2.1-0.5c-0.7-0.2-0.9-0.2-2.2-0.3c-0.6-0.1-3.2,0.8-3.8,0.4c-0.6-0.3,0.6,0.8,1.3,1c1,0.4,0.9,1,2,1.4c1.2,0.4,2.4,0.8,3.1,0.7c0.5-0.1,0.9-0.3,1.7-0.4C205.1,181.1,206.4,180.1,207.8,180 M208.1,179.5c0,0,0.6-2.8,0.1-3.5c-0.3-0.3-0.6-0.8-0.6-1.5s-0.5-1.8-0.8-2.2s-0.9-2.2-0.8-2.6c0,0-1.6,1.6-1.5,2.6c0,1,0,0.8,0,1.2c-0.1,0.4,0.4,2,0.7,2.5c0.3,0.4,0.1,1.9,0.5,2.1C205.8,178.5,207.7,179.7,208.1,179.5 M207.8,180c0.2,0.1-1-0.9-1.5-1.1c-0.5-0.2-2.7-0.8-2.9-1.4c-0.1-0.6-1.9-2.4-2-2.9c-0.1-0.3-0.4-1.1-0.3-1.4c0-0.4,0.2-1.3,0.4-1.8c0.2-0.6,0.8-1.9,1.3-2.1c0,0,0.4,1.4,0.6,2c0.1,0.6,0.3,1.2,0.5,1.5s1,1.8,1.1,2.3s0.5,2.3,0.6,2.7C205.7,178.2,207.2,179.8,207.8,180 M198.3,172.4c0,0.4-1.2-0.4-1.8-0.4s-2.5,0.2-2.9-0.2s-1.1-1.3-1.4-1.5c-0.2-0.1-1.1-1.5-1.3-2.3s-1.8-2.2-2.1-2.3c0,0,2.2-0.4,3.6,0.4c1.4,0.9,1.4,0.7,1.8,0.9c0.3,0.1,2.7,2.2,2.9,2.9C197.2,170.7,198.2,172,198.3,172.4 M198.3,172.4c0,0-2-1.4-2.5-1.3c-0.4,0.1-2.6-1.5-2.8-2.5c-0.1-0.5-1.1-1.3-1.3-1.6c-0.6-0.9-0.9-3-1.6-3.6c0,0,2.1,0.5,2.6,0.6c1,0.1,1.8,0.3,2.2,1.2c0.4,0.8,0.7,1.5,1,1.6s0.8,1.1,0.9,2.3C197.1,170.1,198.3,172.4,198.3,172.4 M194.5,161.8c0.3,0.5,0.3-3.1,0.4-3.4c0.1-0.4,0.6-1.2,0.9-1.5c0.3-0.3,0.3-1.4,0.4-1.7c0.1-0.3,0.1-2.4-0.1-2.9c0,0-0.6,0.4-0.9,0.8c-0.3,0.4-0.8,0.5-1,1c-0.1,0.4-0.4,0.4-0.7,1c-0.2,0.4-0.4,1.2-0.3,1.8s0.1,0.8,0.1,1.4C193.3,158.8,194,161.1,194.5,161.8 M194.6,162.1c0,0-0.1-1,0.3-1.4c0.4-0.4,0.8-0.4,0.9-0.6c0.1-0.2,0.1-0.5,0.2-0.8c0.1-0.3,0.5-0.8,0.5-1.1c0.1-0.8,0.6-1.8,0.2-2.7c0,0-0.8,0.3-1.1,0.4c-0.3,0.1-1,0.8-1,1.4c-0.1,0.7-0.1,0.8-0.4,1.2c-0.2,0.4-0.5,1.5-0.1,2.2C194.5,161.5,194.5,162.1,194.6,162.1 M192.3,150.2c0,0-0.1-2.3,0.5-2.9c0.6-0.7,0.8-2,2.1-2.7c0,0-0.1,0.6,0,1c0.1,0.3,0.3,1.4,0,1.8c-0.2,0.4-1,1.1-1,1.4c0,0.3-0.5,1.1-0.9,1.2C192.8,150.1,192.6,150.2,192.3,150.2 M192.3,151.5c0,0,0-1.6,0.5-2.1c0.4-0.4,0.7-0.7,0.9-1s0.4-1.1,1-1.4c0.5-0.3,1.5-1.1,1.6-1.4c0,0,0.2,1.9-0.3,2.9c-0.6,1-0.6,1.5-1.1,1.8c-0.6,0.2-0.7,0.4-1,0.5c-0.2,0.2-0.6,0.4-0.9,0.4C192.6,151.2,192.3,151.5,192.3,151.5 M194.1,162.1c0.1,0.4,0.4-1-1.2-1c-1.6,0-2.9-0.6-3.5-1.2c-0.5-0.5-0.9-0.9-1.1-1.2c-0.3-0.2-0.9-1.1-1-1.6c-0.1-0.4-0.5-2.2-0.4-2.5c0,0,0.9,0.1,1.2,0.4c0.4,0.3,1.1,0.3,1.5,0.6c0.4,0.2,0.7,0.8,0.9,1.1c0.2,0.2,0.9,0.2,1.2,0.7s0.9,1.5,1,1.9s0.6,0.9,1,1.1C194.1,160.7,194,161.6,194.1,162.1 M193.9,161.4c0,0-1.1-1.3-1.6-1.3s-1.9-1.4-2-2s-0.5-1.8-0.8-2s-0.8-0.8-0.8-1.7c0.1-0.9,0.1-2.4,0.1-2.4s0.3,0.9,0.8,1.1c0.4,0.2,1.3,0.5,1.4,0.8c0.1,0.3,0.8,0.3,1,1.3c0.2,0.9,0.2,0.8,0.4,1.1c0.1,0.3,0.5,0.7,0.7,1.3C193.2,158.2,194.1,159.8,193.9,161.4 M192.3,152.9c0,0.4,0.6-0.8-0.8-1.3c-1.5-0.4-2.5-1.4-2.9-2c-0.3-0.6-0.5-1.1-0.6-1.3c-0.1-0.3-0.4-1.3-0.4-1.7s0.1-2.1,0.3-2.4c0,0,0.7,0.4,1,0.8c0.3,0.4,0.9,0.6,1.2,0.9c0.3,0.3,0.4,1,0.5,1.3s0.8,0.4,0.9,1c0.2,0.5,0.4,1.6,0.3,2c0,0.4,0.3,1,0.6,1.3C192.7,151.7,192.4,152.5,192.3,152.9 M192.4,152.2c0,0-0.6-1.5-1.1-1.6c-0.4-0.1-1.3-1.4-1.3-2c-0.1-0.6-0.2-1.8-0.4-2.1s-0.6-1.3-0.3-2.1s0.9-1.9,0.9-1.9s0.4,0.7,0.7,1.1c0.4,0.8,0.8,0.8,0.8,1.1c0.1,0.3,0.5,0.5,0.7,1.2c0.2,0.9,0,0.8,0,1.2c0,0.3,0.3,0.8,0.3,1.4S192.9,150.8,192.4,152.2 M193.6,142.9c0.1-0.2,0.5-0.4,1.1-0.6c0.5-0.1,1.4-1.4,1.8-1.7c0.4-0.3,0.5-0.8,1-1.1c0.4-0.3,0.7-1.2,0.9-2.2c0,0-1.3,0.3-1.7,0.4c-0.4,0.1-1.1,0.6-1.4,0.9c-0.3,0.4-0.6,1-1,1.2c-0.3,0.1-0.7,1.1-0.7,1.7L193.6,142.9 M193.5,142.2c0,0-0.1-0.9-0.1-1.3c0-0.4-0.3-1.7,0.4-2.7c0.4-0.7,2.2-2,2.6-2.1c0,0,0.3,1.2,0.2,1.6s-0.5,1.9-0.8,2.1C195.5,139.9,194.6,141.8,193.5,142.2 M193.1,142.9c-0.2,0.3-0.1-1.2-0.5-1.5c-0.4-0.4-0.5-1-0.5-1.6s0.1-1.1,0.2-1.5c0-0.4,1.2-2,1.1-2.4c0,0,0.7,1.5,0.8,1.9c0.3,0.5-0.1,1.1-0.1,1.6c0.1,0.4,0.4,1.3,0.2,1.8C194.1,141.5,193.4,142.3,193.1,142.9 M197.2,134.8c0,0,0.1-0.2,0.8-0.2s1.7,0,2-0.4c0.3-0.3,0.8-0.7,1.1-0.8s0.8-0.8,1-1.2c0.1-0.3,0.6-0.9,0.8-0.9c0,0-0.8-0.1-1.8,0.2c-0.9,0.2-2.2,0.7-2.5,1.3C198.3,133.4,197.2,134.8,197.2,134.8 M197.5,134.7c0.1,0.5,1.4-0.5,1.8-0.9c0.3-0.4,0.8-1,0.8-1s0.7-0.9,0.9-1.3c0.5-0.8,0.4-2.4,0.2-2.3c-0.3,0.1-1.1,0.6-1.3,0.7c-0.2,0.1-0.7,0.2-0.8,0.6c-0.1,0.4-0.3,0.9-0.6,1.2C198.2,132,196.8,132.8,197.5,134.7 M197,134.7c0,0,1.1-0.8,1.5-1.1c0.4-0.4,0.2-1.1,0.4-1.4c0.2-0.3,0.8-1,0.6-1.5c-0.1-0.4-0.4-1.8-0.4-1.8s-0.6,0.5-0.9,0.9c-0.4,0.4-0.5,0.7-0.6,1.1c-0.1,0.5-0.4,0.8-0.6,1.2c-0.1,0.4,0,1.1,0.1,1.6C197.1,134.2,197,134.7,197,134.7" />
  <path fill="none" stroke="#000000" stroke-width="0.0917" d="M214.1,183.6c0,0-5.1,0-5.6-0.7 M217.1,184.3c0,0-3.3,0.9-5.1,0.7s-2.6,0.1-3,0.1s-2.3-0.8-2.3-0.8 M220.5,185.5c0,0-2.6,0.4-3.1,0.6c-0.5,0.1-3.1,1.1-3.9,1.1c-0.6,0-2.1,0-2.6,0c-0.8,0.1-2.8,0-3.2-0.2 M210.8,179.4c0,0,1.9,1.1,2.3,1.5c0.3,0.4,2,1.8,2.3,1.8 M210.8,176.9c0,0,3.3,2.9,3.9,3.2c0.6,0.4,3.8,3.6,4.2,4.1 M213.5,175.7c0,0,2.6,2.1,2.9,2.9c0.3,0.8,1.1,1.8,1.1,1.8s1.1,2.2,1.5,2.5s1.1,1.1,2.1,1.7 M198.5,173.8c0,0,2.8,2.3,3.5,2.8 M197.3,175.3c0,0,2.8,1.9,4,2.4c1.3,0.4,2.3,0.8,5,1.2 M207.4,180c0,0-3.1-0.1-3.6,0s-2.9-0.4-3.6-0.5s-3.1-0.6-3.4-0.7 M202.7,169.5c0,0-0.1,1.7,0.1,2.4c0.2,0.7,1.3,2.7,1.2,3.2c-0.1,0.4,0.6,2.6,1.3,2.9 M205.8,169.8c0,0-0.5,1.7-0.3,2.3c0.2,0.5,0.6,1.5,0.6,2.2c0,0.6,0.4,1.5,0.5,1.9s-0.1,1.7,0.3,2.1c0.4,0.4,0.9,1.1,0.9,1.1 M189.2,165.9c0,0,2.5,0.9,2.8,1.5s0.8,0.8,1,1.1 M198.4,163.5c0,0,0.6,2.5,0.5,3.1s-0.1,1.9-0.1,2.3c0,0.4-0.7,2.3-0.6,2.6 M197.4,161.4c0,0-0.2,1.4-0.3,2.1c-0.1,0.6,0,1.6-0.1,2s-0.4,2.4,0,3.4 M190.5,163.5c0,0,2,1.7,2.5,2.2c0.4,0.4,2.6,2.7,2.6,3.2c0.1,0.5,1.5,2.2,2,2.6 M187.1,154.8c0,0,2,2,2.2,2.4c0.1,0.5,1,1.2,1.4,1.5 M196.6,155.7c0,0-0.8,1.1-0.8,1.5s-0.3,1.4-0.6,1.8c-0.2,0.3-0.8,1.4-0.8,2.1 M196,152.4c0,0-0.3,1.1-0.4,1.8s-0.6,1.6-0.7,2c-0.1,0.4-0.8,2.7-0.6,4.1 M188.9,152.4c0,0,0.2,1.1,0.8,1.6c0.5,0.5,1.4,1.3,1.4,1.8c0.1,0.5,0.8,2.8,1.6,3.6s0.8,1.6,0.8,1.6 M188.1,144.4c0,0,0.2,1.3,0.4,1.7c0.1,0.4,0.8,2.1,1.4,2.6 M194.8,144.8c0,0-0.4,1.1-0.4,1.6c-0.1,0.4-0.6,1-0.6,1.2c-0.1,0.2-0.4,1-0.4,1 M196.2,145.9c-0.1,0.5-1,1.9-1,2.1c-0.1,0.3-0.5,1.3-1,1.6c-0.4,0.3-1.8,1.3-1.8,1.7 M190.1,142.9c0,0-0.1,1.7,0.2,2.3c0.4,0.6,0.7,1.6,0.8,2c0.2,0.4,0.2,1.2,0.2,1.8c0.1,0.6,0.3,1.6,0.6,1.9 M198.2,137.6c0,0-1.1,1.3-1.6,1.8s-2.5,2.6-2.6,3 M196.3,136.4c0,0-1.1,2.4-1.3,2.8c-0.2,0.4-0.4,1-0.4,1 M193.5,136.3c0,0,0.1,1.9,0,2.3c-0.1,0.4-0.1,1.2,0,1.5c0.1,0.2-0.2,1.9-0.3,2.3 M202.5,131.5c0,0-2.5,1.5-2.9,1.9 M201,129.6l-1.7,2.4l-0.4,0.7 M199.1,129.4c0,0-0.6,1.3-0.6,1.8c-0.1,0.6-0.8,2.3-1.2,2.9" />
  <path fill="#000033" stroke="#000000" stroke-width="0.1227" d="M224.3,184.6c0,0-1.9-0.9-2.1-1.1c-0.2-0.2-0.6-2.8-0.4-2.7c0,0-0.7-0.9-1-0.9c-0.1,0-0.7,0.4-0.5,1.3c0.1,1,0.4,2.4,0.6,2.9C220.9,184.2,222.3,183.6,224.3,184.6L224.3,184.6L224.3,184.6z M226.4,180.7l-0.8,3.3l0.2,0.7c0,0,0.3-0.1,0.4-0.4c0.1-0.4,0.6-3.2,0.9-3.4L226.4,180.7L226.4,180.7z" />
  <path fill="#004BB3" stroke="#000000" stroke-width="0.1227" d="M224.3,186.1c0,0-3.2,1.8-1.6,4.6c0,0-0.7,0-1.1-0.7c0,0-0.6,1.1,0,1.7c0,0-2.2-1.9-0.5-4.3c1.7-2.3,3.1-2.2,3.1-2.2L224.3,186.1 M224.3,184.6c0,0-1.4-1-3.4-0.4c0,0-0.9-2.9-0.6-3.8c0.1-0.4,0.4-0.4,0.4-0.4s-1-0.6-0.7,2.1c0.3,2.7,0.8,3.5,0.8,3.5s2.6,0.1,3.2-0.1L224.3,184.6L224.3,184.6z M224.3,184.6c0,0-2.8-4.7-3.5-4.7c0,0-0.8-0.1,1-0.3c0.6-0.1,1.6,0,2.1,0.9c0.5,0.8,0.8,2.8,1,3.1C224.9,183.6,224.3,183.8,224.3,184.6L224.3,184.6z M225.9,186.1c0,0,1,0.6,1,1.8c0,1.1,0.5,3.2,1.4,3.7c0,0,0.2-0.9,0.5-1c0,0,0.9,1.1,1.2,1.1c0,0-0.5-1-0.5-1.5c0-0.4-0.4-2.3-0.9-2.7c-0.4-0.5-1.4-1.6-2.7-1.9V186.1L225.9,186.1z M224.4,184.1c0,0,0.3-1,1.1-0.1c0,0,0.9,2.2,0.2,2.3s-1.4,0.2-1.4-0.1C224.2,185.8,224.3,184.1,224.4,184.1L224.4,184.1z M225.3,183.8c0,0,0.2-3.3,0.7-3.5c0.4-0.1,1.9-0.9,2.7-0.2s0.1,4.1-0.2,4.5c-0.3,0.3-0.8,1.3-2.6,1l-0.2-0.8c0,0,0.9-0.1,1.5-0.4c0.6-0.3,0.8-0.6,0.8-0.9c-0.1-0.4,0-2.2-0.5-2.3c-0.4-0.1-1.2-0.4-1.2-0.4s-0.7,2.6-0.8,3.3L225.3,183.8L225.3,183.8z" />
  <path fill="#00004B" d="M224.2,185.8c0,0-1.5,0.4-2.1,1.6c0,0-0.2-0.8,2-1.8L224.2,185.8 M226,185.8c0,0,1.1,0.4,1.3,1c0,0-1-0.6-1.3-0.8V185.8 M224.2,184.9c0,0-2.4,0.4-2.9,0.3c0,0,0.7,0.1,2.9,0V184.9 M228.1,183.4c0,0,0.3,1.2,0.4,1.1c0.2-0.1,0.6-2,0.6-2.9c0-0.8-0.4-1.1-0.7-1c-0.3,0-0.5,0.8-0.5,1.1C227.9,182.1,228,183.2,228.1,183.4 M225.5,184c0,0,1,2.1,0.2,2.3c-0.7,0.1,0.3,0.1-0.2-1.4c-0.2-0.6-0.5-1.3-0.6-1.3C224.9,183.7,225.4,183.9,225.5,184" />
  <path fill="none" stroke="#000000" stroke-width="0.1835" d="M225.8,123.9c0.3-0.5-0.2-3.1-0.2-3.1l-0.4-3.1c0-0.7-0.3-1.6-0.6-2.1 M225.5,172.5l-0.1,0.1c-0.1,0.1-0.4,0.1-0.6,0.2c-0.1,0-0.1,0.1-0.2,0.1l-0.1-0.1c-0.2-0.1-0.6-0.1-0.7-0.2l-0.1-0.2" />
  <path fill="#FFCC00" stroke="#000000" stroke-width="0.0917" d="M233.4,138l11-12.2l0.2,0.3l-10.9,12.3L233.4,138L233.4,138L233.4,138z M239.8,148.4l12.3-8.1l0.2,0.3l-12.3,8.2L239.8,148.4 M215.7,138l-11-12.2l-0.2,0.3l10.9,12.3L215.7,138 M209.3,148.4l-12.3-8.1l-0.2,0.3l12.3,8.2L209.3,148.4L209.3,148.4z" />
  <path fill="#004BB3" stroke="#000000" stroke-width="0.123" d="M221.9,127.3c-0.2-0.5-0.2-3.8-0.2-4.3c0-0.9,1.6-5.3,1.9-5.8c0.3-0.5,0.2-0.6,0.4-0.9l0.4-0.6c0.3,0.5,0.6,1.4,0.6,2.1c0,0-0.3,2.1-0.5,3.1c-0.2,0.9-0.8,2.2-0.9,2.5c-0.3,0.7-0.3,1.2-0.1,1.3L221.9,127.3 M224.8,123.1c0.7-0.8,0.7-2.3,0.7-2.3s0.5,2.5,0.2,3.1c-0.3,0.5-0.3,0.4-0.2,0.6L224.8,123.1 M235.6,141.3c0.3-0.6,0.5-2.3,0.5-2.6c0.1-0.9,0.1-1.4,0-2.8l-2.3,2.6L235.6,141.3 M245.2,144.8c0.1-0.8,0.1-1.8,0.1-2.2c0-2.6,0.3-4.1,0-6.9c-0.2-2.2-0.8-5.1-0.6-7.4c0-0.7-0.1-1.3-0.1-2l-4.7,5.2c0.3,3.8,0.3,4.9,0.4,8.5c0,0.9-0.8,4.8-1.5,6.7l1,1.7L245.2,144.8 M241.9,151.9c0.3-0.5,0.6-2,0.6-2.3c0.1-0.8,0.1-1.2,0.1-2.6l-2.6,1.7L241.9,151.9 M249.3,164.3c0.3-0.2,0.8-0.7,1-1.1c0.3-0.9,0.2-0.8,0.4-1.8c0.1-0.6,0.1-1.2,0.2-1.8c0.1-0.6,1-2.4,1-3.2c0.1-2.4,0.9-4.1,0.7-6.8c-0.1-2.1-0.6-4.9-0.4-7c0.1-0.6,0-1.2,0-1.8l-5.3,3.4c0.2,3.5,0.1,4.5,0.1,7.9c0,0.8-0.7,4.2-1.6,5.7L249.3,164.3 M240.6,166.2c-1,0.9-2.8,1.3-3.1,1.6c-0.6,0.4-1.6,1.1-3.2,1.2c-1.2,0.1-1.8-0.2-3-0.4c-1.4-0.1,0.1,0.1-1.2-0.2c-0.7-0.2-0.7-0.3-1.6-0.5c-0.7-0.2-1.4-0.3-1.8-0.9c-0.2-0.2-0.3-0.4-0.3-0.8h-0.9c-0.1,0.3,0.2,0.8,0.3,1c0,0.1,0.2,0.2,0.2,0.4c0.1,0.3,0.1,0.2,0.4,0.4c0,0,0.3,0.3,0.4,0.3c0.2,0.1,0.3,0.3,0.5,0.3c0.9,0.1,1.3,0.3,2.2,0.6c0.8,0.2,0.4,0.2,1,0.3c0.3,0.1,0.9,0.3,1.2,0.3c0.6,0.1,0.6,0.2,1.2,0.3c1.5,0.3,2.9,0.3,4.4,0.1c0.6,0,2.1-0.3,2.6-0.7c0.9-0.6,2.9-0.9,3.8-1.5c0.1-0.1,0.7-0.3,0.8-0.4c0.8-0.7,1.6-0.9,2.5-1.5L240.6,166.2 M233.5,166.2h-7.2c0,0.3,0.1,0.5,0.3,0.8c0.4,0.6,1.1,0.7,1.8,0.9c0.7,0.1,1.5-0.2,2.3-0.2C232.6,167.1,232.8,166.5,233.5,166.2 M213.5,141.3c-0.3-0.6-0.4-2.3-0.5-2.6c-0.1-0.9-0.1-1.4,0-2.8l2.3,2.6L213.5,141.3 M203.9,144.8c0-0.8-0.1-1.8-0.1-2.2c0-2.6-0.3-4.1,0-6.9c0.2-2.2,0.8-5.1,0.6-7.4c0-0.7,0.1-1.3,0.1-2l4.7,5.2c-0.3,3.8-0.3,4.9-0.4,8.5c0,0.9,0.8,4.8,1.5,6.7l-1,1.7L203.9,144.8 M224.5,166.2c-0.3,1.3-0.3,2.6-0.8,3.9c-0.2,0.6-0.5,1.7-0.1,2.3l0,0l0,0c-0.2,0-0.4,0-0.6-0.1c0,0-0.1,0-0.1-0.1c-0.1-0.1-0.2-0.2-0.3-0.3s-0.3,0-0.4-0.1l-0.1-0.1c-0.3-0.1-0.5-0.3-0.6-0.6c0-0.2-0.1-0.4,0-0.6c0-0.1,0.1-0.3,0.1-0.4c0.1-0.2,0.1-0.4,0.3-0.6c0.1-0.2,0.2-0.4,0.3-0.6c0-0.1,0.1-0.2,0.1-0.3s0.1-0.2,0.1-0.3s0.1-0.1,0.2-0.3c0.1-0.1-0.1,0,0-0.1l0.2-0.2l0.2-0.1c0.2-0.4,0.4-0.4,0.5-0.8c0.1-0.1,0.1-0.4,0.1-0.6h0.8 M224.5,166.2c0.3,1.3,0.4,2.6,0.8,3.9c0.2,0.6,0.6,1.7,0.1,2.3c0,0,0.4-0.1,0.6-0.2c0.1,0,0.1,0,0.1-0.1c0.1-0.1,0.1-0.1,0.2-0.2c0.1-0.1,0.3,0,0.4-0.1c0,0,0-0.1,0.1-0.1c0.3-0.1,0.5-0.3,0.6-0.6c0.1-0.2,0.1-0.4,0-0.6c0-0.1-0.1-0.3-0.1-0.4c-0.1-0.2-0.1-0.4-0.3-0.6c-0.1-0.2-0.2-0.4-0.3-0.6c0-0.1-0.1-0.2-0.1-0.3s-0.1-0.2-0.1-0.3s-0.1-0.1-0.2-0.3c-0.1-0.2-0.2-0.1-0.2-0.2c0,0-0.1,0,0,0l-0.1-0.1c-0.2-0.2-0.4-0.6-0.6-0.9c-0.1-0.1-0.1-0.4-0.1-0.6L224.5,166.2 M207.2,151.9c-0.3-0.5-0.6-2-0.6-2.3c-0.1-0.8-0.1-1.2-0.1-2.6l2.6,1.7L207.2,151.9 M199.8,164.3c-0.3-0.2-0.8-0.7-0.9-1.1c-0.3-0.9-0.3-0.8-0.5-1.8c-0.1-0.6-0.1-1.2-0.3-1.8c-0.1-0.6-0.9-2.4-1-3.2c-0.1-2.4-0.9-4.1-0.7-6.8c0.1-2.1,0.6-4.9,0.4-7c-0.1-0.6,0-1.2,0-1.8l5.3,3.4c-0.2,3.5-0.1,4.5-0.1,7.9c0,0.8,0.7,4.2,1.6,5.7L199.8,164.3 M208.6,166.2c1,0.9,2.8,1.3,3.1,1.6c0.6,0.4,1.6,1.1,3.2,1.2c1.2,0.1,1.7-0.2,2.9-0.4c1.4-0.1-0.2,0.1,1.2-0.2c0.7-0.2,0.7-0.3,1.6-0.5c0.7-0.2,1.4-0.3,1.8-0.9c0.1-0.2,0.3-0.4,0.3-0.8h0.9c0.1,0.3-0.1,0.8-0.3,1c0,0.1-0.1,0.2-0.2,0.4c-0.1,0.3-0.1,0.2-0.3,0.4c-0.1,0-0.4,0.3-0.5,0.3c-0.2,0.1-0.3,0.3-0.6,0.3c-0.9,0.1-1.3,0.3-2.1,0.6c-0.8,0.2-0.4,0.2-1,0.3c-0.3,0.1-0.9,0.3-1.3,0.3c-0.6,0.1-0.6,0.2-1.2,0.3c-1.5,0.3-2.9,0.3-4.4,0.1c-0.6,0-2.1-0.3-2.6-0.7c-0.9-0.6-2.9-0.9-3.8-1.5c-0.1-0.1-0.7-0.3-0.8-0.4c-0.8-0.7-1.6-0.9-2.4-1.5L208.6,166.2 M215.6,166.2h7.2c0,0.3-0.1,0.5-0.3,0.8c-0.4,0.6-1.1,0.7-1.8,0.9c-0.8,0.1-1.5-0.2-2.3-0.2C216.5,167.1,216.3,166.5,215.6,166.2" />
  <path fill="#FFCC00" stroke="#000000" stroke-width="0.0917" d="M224.5,116c0,0,0-0.5-0.1-0.7c0-0.1,0.3,0.4,0.5,0.4c0.4,0.2,1,0.8,1.1,0.9c-0.2,0.3-0.6,0.8-1,0.7c-0.3-0.1-0.2-0.5-0.3-0.8C224.7,116.5,224.6,116.3,224.5,116L224.5,116z M224.1,115.7c0,0,0.4-0.2,0.6-0.3c0.1,0-0.3,0.4-0.2,0.6c0,0.4-0.3,1.2-0.5,1.3c-0.3-0.1-0.6-0.1-0.9-0.6c-0.1-0.2,0.2-0.4,0.4-0.6C223.6,116,223.8,115.7,224.1,115.7L224.1,115.7z M224.8,115.3c0.3-0.3,0.9-0.7,1.1-0.4c0,0,0.2,0.2,0.3,0.3c0.1,0.2,0.1,0.2,0,0.4c-0.2,0.4-0.7,0.2-1.1,0C225.1,115.6,224.9,115.4,224.8,115.3c-0.1,0.1-0.1,0.1-0.1,0.1c0,0.1,0.1,0,0.1,0.1c0.3,0.1,0.5,0.3,0.9,0.4c0.3,0.1,0.8-0.2,0.7-0.5c0-0.3-0.4-0.8-0.7-0.8c-0.5,0-0.9,0.3-1.3,0.7C224.6,115.3,224.7,115.5,224.8,115.3L224.8,115.3z M224.5,115.3c-0.3-0.3-0.9-0.7-1.1-0.4c0,0-0.2,0.2-0.3,0.3c-0.1,0.2-0.1,0.2,0,0.4c0.2,0.4,0.7,0.2,1.1,0C224.2,115.6,224.4,115.4,224.5,115.3c0.2,0.1,0.1,0.1,0.2,0.1c-0.1,0.1-0.1,0-0.2,0.1c-0.3,0.1-0.5,0.3-0.9,0.4c-0.3,0.1-0.8-0.2-0.8-0.5s0.5-0.8,0.7-0.8c0.5,0,0.9,0.3,1.3,0.7C224.7,115.3,224.6,115.5,224.5,115.3L224.5,115.3z M224.6,112c0,0,0.2,1.2,0.8,2.1c0,0-0.7,0.8-0.8,1.1c0,0-0.4-0.9-0.8-1.1C223.7,114.1,224.4,113,224.6,112 M224.5,113.3c0,0,0.1,0.5,0.3,0.9c0,0-0.3,0.2-0.3,0.3c0,0-0.1-0.3-0.3-0.4C224.2,114.1,224.5,113.7,224.5,113.3 M244.4,125.8c0-0.5-0.3-1.1-0.6-1.1c0,0-0.3,0-0.4,0c-0.2,0.1-0.2,0.2-0.3,0.3c-0.1,0.4,0.5,0.6,0.9,0.6C244,125.7,244.3,125.7,244.4,125.8c0,0.1,0,0.1,0,0.1c-0.1,0-0.1,0-0.1-0.1c-0.3-0.1-0.6-0.1-1-0.2c-0.3,0-0.5-0.6-0.3-0.8c0.2-0.2,0.8-0.4,1-0.2c0.4,0.3,0.6,0.8,0.6,1.3C244.6,125.9,244.4,125.9,244.4,125.8L244.4,125.8z M244.6,126c0.4-0.2,1.1-0.1,1.2,0.2c0,0,0.1,0.3,0.1,0.4c0,0.2,0,0.3-0.2,0.4c-0.4,0.2-0.7-0.3-0.9-0.6C244.8,126.3,244.7,126.1,244.6,126c-0.2,0-0.1,0-0.2,0c0,0.1,0.1,0.1,0.1,0.2c0.2,0.3,0.3,0.5,0.5,0.9c0.1,0.3,0.7,0.3,0.9,0c0.1-0.3,0-0.9-0.1-1.1c-0.4-0.3-1-0.3-1.4-0.1C244.5,125.8,244.5,126,244.6,126L244.6,126z M246.8,123.6c0,0-1.1,0.8-2.1,1.1c0,0,0.1,0.9,0,1.2c0,0,0.9-0.4,1.3-0.3C246,125.6,246.2,124.2,246.8,123.6L246.8,123.6z M244.8,126.8c0,0-0.3-0.3-0.4-0.5c-0.1-0.1,0.1,0.5-0.1,0.7c-0.2,0.4,0,1.2,0,1.4c0.3,0,0.6,0.1,1.1-0.2c0.1-0.2-0.1-0.4-0.2-0.7C245.2,127.3,245.1,126.9,244.8,126.8L244.8,126.8z M252.3,140.1c0.1-0.4,0-1.1-0.4-1.1c0,0-0.3-0.1-0.4,0c-0.2,0-0.2,0.1-0.3,0.2c-0.2,0.4,0.3,0.7,0.7,0.8C252,140,252.2,140.1,252.3,140.1c0,0.2-0.1,0.1,0,0.2c-0.1,0-0.1-0.1-0.1-0.1c-0.3-0.1-0.5-0.2-0.9-0.4c-0.3-0.1-0.3-0.7-0.1-0.9s0.9-0.1,1.1,0c0.3,0.4,0.3,0.9,0.3,1.4C252.5,140.3,252.3,140.3,252.3,140.1L252.3,140.1z M252.5,140.4c0.5,0,1.1,0.2,1.1,0.5c0,0.1,0,0.3,0,0.4c0,0.2-0.1,0.3-0.3,0.3c-0.4,0.1-0.6-0.4-0.7-0.8C252.6,140.8,252.6,140.5,252.5,140.4c-0.2,0-0.1,0-0.2,0l0.1,0.1c0.1,0.3,0.1,0.6,0.3,1c0.1,0.3,0.6,0.4,0.8,0.2s0.3-0.9,0.1-1c-0.3-0.4-0.8-0.5-1.4-0.5C252.4,140.2,252.4,140.4,252.5,140.4 M255.2,138.5c0,0-1.3,0.5-2.3,0.5c0,0-0.1,0.9-0.3,1.2c0,0,1-0.1,1.4,0C254,140.3,254.5,139,255.2,138.5L255.2,138.5z M252.5,141.2c0,0-0.2-0.4-0.3-0.6c0-0.1,0,0.5-0.2,0.6c-0.3,0.4-0.3,1.1-0.3,1.4c0.3,0.1,0.6,0.3,1.1,0c0.2-0.1,0.1-0.4,0-0.7C252.8,141.8,252.7,141.4,252.5,141.2L252.5,141.2z M204.8,125.8c0-0.5,0.3-1.1,0.6-1.1c0,0,0.3,0,0.4,0c0.2,0.1,0.2,0.2,0.3,0.3c0.1,0.4-0.4,0.6-0.8,0.6C205.1,125.7,204.9,125.7,204.8,125.8c-0.1,0.1,0,0.1-0.1,0.1C204.8,125.9,204.8,125.9,204.8,125.8c0.4,0,0.7,0,1.1-0.1c0.3,0,0.4-0.6,0.3-0.8c-0.1-0.2-0.8-0.4-1-0.2c-0.4,0.3-0.6,0.8-0.6,1.3C204.6,125.9,204.7,125.9,204.8,125.8L204.8,125.8z M204.5,126c-0.4-0.2-1.1-0.1-1.2,0.2c0,0-0.1,0.3-0.1,0.4c0,0.2,0,0.3,0.2,0.4c0.3,0.2,0.7-0.3,0.8-0.6C204.3,126.3,204.4,126.1,204.5,126c0.2,0,0.1,0,0.2,0c0,0.1-0.1,0.1-0.1,0.2c-0.1,0.3-0.3,0.5-0.5,0.9c-0.1,0.3-0.7,0.3-0.9,0c-0.1-0.3,0-0.9,0.1-1.1c0.4-0.3,0.9-0.3,1.4-0.1C204.6,125.8,204.6,126,204.5,126L204.5,126z M202.3,123.6c0,0,1.1,0.8,2.1,1.1c0,0-0.1,0.9,0,1.2c0,0-0.9-0.4-1.3-0.3C203.1,125.6,202.9,124.2,202.3,123.6C202.4,123.6,202.3,123.6,202.3,123.6z M204.3,126.8c0,0,0.3-0.3,0.4-0.5c0-0.1-0.2,0.5,0,0.7c0.2,0.4,0,1.2,0,1.4c-0.4,0-0.6,0.1-1.1-0.2c-0.1-0.2,0-0.4,0.1-0.7C203.9,127.3,204.1,126.9,204.3,126.8L204.3,126.8z M196.8,140.1c-0.1-0.4,0-1.1,0.4-1.1c0,0,0.3-0.1,0.4,0c0.2,0,0.2,0.1,0.3,0.2c0.1,0.4-0.3,0.7-0.7,0.8C197.1,140,196.9,140.1,196.8,140.1c0,0.2,0,0.1,0,0.2c0.1,0,0.1-0.1,0.1-0.1c0.3-0.1,0.5-0.2,0.9-0.4c0.3-0.1,0.3-0.7,0.1-0.9s-0.9-0.1-1.1,0c-0.3,0.4-0.4,0.9-0.3,1.4C196.6,140.3,196.8,140.3,196.8,140.1L196.8,140.1z M196.6,140.4c-0.4,0-1.1,0.2-1.1,0.5c0,0.1,0,0.3,0,0.4c0,0.2,0.1,0.3,0.3,0.3c0.4,0.1,0.6-0.4,0.7-0.8C196.5,140.8,196.5,140.5,196.6,140.4c0.2,0,0.1,0,0.2,0c-0.1,0-0.1,0.1-0.1,0.1c-0.1,0.3-0.1,0.6-0.3,1c-0.1,0.3-0.6,0.4-0.8,0.2s-0.3-0.9-0.1-1c0.3-0.4,0.9-0.5,1.4-0.5C196.7,140.2,196.7,140.4,196.6,140.4 M193.9,138.5c0,0,1.3,0.5,2.3,0.5c0,0,0,0.9,0.3,1.2c0,0-0.9-0.1-1.4,0C195.1,140.3,194.6,139,193.9,138.5L193.9,138.5z M196.6,141.2c0,0,0.2-0.4,0.3-0.6c0-0.1,0,0.5,0.2,0.6c0.3,0.4,0.4,1.1,0.4,1.4c-0.4,0.1-0.6,0.3-1.1,0c-0.2-0.1,0-0.4,0-0.7C196.4,141.8,196.4,141.4,196.6,141.2L196.6,141.2z" />
  <path fill="none" stroke="#000000" stroke-width="0.0917" d="M246,124.4c0,0-0.4,0.3-0.9,0.4c0,0,0.1,0.3,0,0.4c0,0,0.3-0.1,0.5-0.1C245.6,125.2,245.7,124.7,246,124.4L246,124.4z M254.2,139.2c0,0-0.5,0.2-0.9,0.2c0,0,0,0.3-0.1,0.4c0,0,0.4,0,0.5,0C253.7,139.9,253.9,139.3,254.2,139.2L254.2,139.2L254.2,139.2z M203.2,124.4c0,0,0.4,0.3,0.8,0.4c0,0-0.1,0.3,0,0.4c0,0-0.3-0.1-0.5-0.1C203.5,125.2,203.4,124.7,203.2,124.4L203.2,124.4z M194.9,139.2c0,0,0.5,0.2,1,0.2c0,0,0,0.3,0.1,0.4c0,0-0.4,0-0.5,0C195.5,139.9,195.3,139.3,194.9,139.2L194.9,139.2z" />
  <path fill="#FFCC00" stroke="#000000" stroke-width="0.0917" d="M224.6,115.2c-0.1-0.1-0.3,0.1-0.4,0.2c0,0.1,0,0.3,0.1,0.3c0.2,0.1,0.4,0,0.5-0.2C224.9,115.3,224.8,115.2,224.6,115.2 M244.6,125.8c0.1,0,0.2,0.2,0.1,0.3c0,0.1-0.2,0.2-0.3,0.2c-0.2-0.1-0.3-0.2-0.3-0.4C244.3,125.6,244.5,125.7,244.6,125.8 M252.6,140.2c0.1,0.1,0.1,0.2,0.1,0.3c-0.1,0.1-0.3,0.1-0.3,0.1c-0.2-0.1-0.3-0.3-0.2-0.4C252.3,140,252.5,140.1,252.6,140.2L252.6,140.2z M204.5,125.8c-0.1,0-0.2,0.2-0.1,0.3c0,0.1,0.2,0.2,0.3,0.2c0.2-0.1,0.3-0.2,0.3-0.4C204.9,125.6,204.6,125.7,204.5,125.8 M196.5,140.2c-0.1,0.1-0.1,0.2,0,0.3c0,0.1,0.2,0.1,0.3,0.1c0.2-0.1,0.3-0.3,0.2-0.4C196.8,140,196.7,140.1,196.5,140.2L196.5,140.2z" />
  <path fill="none" stroke="#000000" stroke-width="0.0917" d="M224.6,115.6c0,0,0.1,0.2,0.2,0.2c0.1,0,0.2,0,0.3,0.1c0.3,0.2,0.4,0.4,0.8,0.8 M224.9,116c0.4,0.2,0.6,0.5,1,0.9v-0.1 M224.5,115.5c0,0-0.1,0.2-0.1,0.3c0,0.1,0.1,0.2,0,0.3c-0.1,0.4-0.2,0.6-0.4,1 M224.3,116c0,0.4-0.3,0.8-0.5,1.2h0.1 M244.5,126.5c0,0,0,0.2,0,0.3c0,0.1-0.1,0.2-0.1,0.3c-0.1,0.4,0,0.6,0,1.1 M244.5,126.9c-0.1,0.5,0,0.9,0.1,1.3h-0.1 M244.6,127.8c0,0.2,0.1,0.3,0.1,0.5h0.1 M252.3,140.8c0,0.1,0,0.3,0,0.3c0-0.1-0.1,0.1-0.1,0.1c-0.2,0.4-0.2,0.6-0.3,1.2 M252.2,141.4c-0.1,0.5-0.2,0.5-0.2,1.2l0,0 M252.2,141.9c-0.1,0.3-0.1,0.5-0.1,0.7l0.1,0.1 M204.6,126.5c0,0,0,0.2,0,0.3c0,0.1,0.1,0.2,0.2,0.3c0,0.4,0,0.6-0.1,1.1 M204.6,126.9c0.1,0.5,0,0.9,0,1.3l0,0 M204.5,127.8c-0.1,0.2-0.1,0.3-0.1,0.5h-0.1 M196.8,140.8c0,0.1,0,0.3,0,0.3c0-0.1,0.1,0.1,0.1,0.1c0.2,0.4,0.2,0.6,0.3,1.2 M196.9,141.4c0.1,0.5,0.2,0.5,0.2,1.2h0.1 M196.9,141.9c0.1,0.3,0,0.5,0.1,0.7l-0.1,0.1" />
  <path fill="#FFCC00" d="M250.5,166.2l-25.9-43.4l-25.9,43.4H250.5" />
  <path fill="none" stroke="#000000" stroke-width="0.3067" d="M250.5,166.2l-25.9-43.4l-25.9,43.4H250.5L250.5,166.2z" />
  <path fill="#FFFFFF" d="M248,164.8l-23.4-39.2l-23.4,39.2H248" />
  <linearGradient id="Gradient_SV_1" gradientUnits="userSpaceOnUse" x1="224.7" y1="166.4874" x2="224.7" y2="170.8814" gradientTransform="matrix(1 0 0 -1 0 300)">
    <stop offset="0" style="stop-color:#1800FF" />
    <stop offset="0.5" style="stop-color:#00B3FF" />
    <stop offset="0.6229" style="stop-color:#33FF00" />
    <stop offset="0.7228" style="stop-color:#FFFF00" />
    <stop offset="1" style="stop-color:#FF0000" />
  </linearGradient>
  <path fill="url(#Gradient_SV_1)" d="M220,133.4l2.2-3.6c1.7-0.8,2.9-0.8,4.9-0.1l2.3,3.8C227.4,131.5,222.8,130.7,220,133.4z" />
  <path fill="#0088E8" d="M208.1,153.2l-6.9,11.6H248l-7-11.6H208.1" />
  <path fill="none" stroke="#00CCB3" stroke-width="0.1835" d="M208.1,153.2l-6.9,11.6H248l-7-11.6H208.1L208.1,153.2z" />
  <radialGradient id="Gradient_SV_2" cx="224.53" cy="142.24" r="9.8251" gradientUnits="userSpaceOnUse">
    <stop offset="0" style="stop-color:#FFB39C" />
    <stop offset="1" style="stop-color:#FFF3EF" />
  </radialGradient>
  <path fill="url(#Gradient_SV_2)" d="M219.8,133.6c1.4-0.7,2.9-1.1,4.7-1.1c1.7,0,3.5,0.6,4.9,1.4l5,8.3c0,5.4-4.4,9.9-9.9,9.9c-5.4,0-9.8-4.4-9.9-9.9L219.8,133.6L219.8,133.6z" />
  <path fill="none" stroke="#000000" stroke-width="0.0917" d="M225.8,160c0.6,0.1,1.3,0.3,2.1,0c1-0.2,1.9-0.8,3.1-0.7c0.8,0.1,2,0.8,3.4,0.8s1.8-0.5,3.1-0.7c0.8-0.2,1.3-0.1,2.2,0.1c1,0.2,1.6,0.8,3.3,0.6" />
  <path fill="none" stroke="#FFFFFF" stroke-width="0.3371" d="M207.8,161.7c0.8-0.6,2.1-0.8,3.2-0.6c1.4,0.3,1.9,0.6,3.4,0.6c1.1,0,2-0.8,3.1-0.8c1.8,0,1.9,0.4,3.6,0.7c0.4,0.1,0.9,0.1,1.4,0c0.6-0.1,1.1-0.3,1.6-0.6s1.8-0.2,2.5-0.1c1.1,0.1,1.6,0.6,1.9,0.6c0.6,0.2,1.3,0.3,2.1,0.1c1-0.3,1.9-1,3.1-0.8c0.8,0.1,2,0.9,3.4,0.9s1.9-0.6,3.1-0.8c0.9-0.2,1.3-0.1,2.2,0.1c1,0.2,1.6,0.9,3.3,0.8" />
  <path fill="none" stroke="#FFFFFF" stroke-width="0.2448" d="M205.1,160.4c0.8-0.5,2.1-0.8,3.2-0.5c1.4,0.3,2,0.6,3.4,0.6c1.1,0,2-0.7,3.1-0.7c1.9,0,1.9,0.3,3.6,0.6c0.4,0.1,0.9,0.1,1.4,0c0.6-0.1,1.1-0.3,1.6-0.5c0.4-0.2,1.8-0.2,2.4-0.1c1.1,0.1,1.6,0.5,1.9,0.6c0.6,0.1,1.3,0.2,2.1,0c1-0.3,1.9-0.8,3.1-0.7c0.8,0.1,2,0.8,3.4,0.8s1.9-0.5,3.1-0.7c0.8-0.2,1.3-0.1,2.2,0.1c1,0.2,1.6,0.8,3.4,0.6" />
  <path fill="none" stroke="#FFFFFF" stroke-width="0.4428" d="M202.7,164.2c0.8-0.6,2.1-0.9,3.2-0.6c1.4,0.3,2,0.7,3.4,0.7c1.1,0,2.1-0.8,3.1-0.8c1.9,0,1.9,0.4,3.6,0.8c0.4,0.1,1,0.1,1.4,0c0.6-0.1,1.1-0.4,1.6-0.6c0.5-0.3,1.8-0.2,2.4-0.1c1.1,0.1,1.6,0.6,1.9,0.7c0.6,0.1,1.3,0.3,2.1,0c1-0.3,1.9-1,3.1-0.9c0.8,0.1,2,1,3.4,1s1.9-0.6,3.1-0.9c0.8-0.2,1.3-0.1,2.2,0.1c1.1,0.3,1.6,1,3.4,0.9" />
  <path fill="none" stroke="#FFFFFF" stroke-width="0.2448" d="M203.3,162c0.8-0.5,2.2-0.7,3.2-0.5c1.4,0.3,2,0.6,3.4,0.6c0.5,0,1-0.1,1.4-0.3" />
  <path fill="none" stroke="#000000" stroke-width="0.2149" d="M210.4,159.7c0.2-0.1,0.9-0.4,1.8-0.4c1.9,0,0.7,0,2.3,0.3c0.4,0.1,1.6,0.1,1.9-0.2 M232.9,164.7c0.6-0.1,1.1-0.3,1.6-0.5s1.8-0.2,2.4-0.1c1.1,0.1,1.6,0.5,1.9,0.5c0.6,0.1,1.3,0.2,2.1,0c1-0.3,1.9-0.8,3.1-0.7c0.8,0.1,2,0.8,3.4,0.8" />
  <path fill="none" stroke="#FFFFFF" stroke-width="0.2448" d="M235.8,159.5c1.4,0,1.9-0.5,3.1-0.7c0.8-0.2,1.2-0.1,2.2,0.1c1.1,0.2,1.6,0.8,3.4,0.6" />
  <path fill="none" stroke="#000000" stroke-width="0.0917" d="M202.8,164.3c0.8-0.5,2.2-0.8,3.2-0.5c1.4,0.3,2,0.6,3.5,0.6c1.1,0,2-0.7,3.1-0.7c1.8,0,1.9,0.3,3.5,0.6c0.4,0.1,0.9,0.1,1.4,0c0.6-0.1,1.1-0.3,1.6-0.5s1.8-0.2,2.4-0.1c1.1,0.1,1.6,0.4,1.9,0.5" />
  <path fill="none" stroke="#000000" stroke-width="0.4428" d="M205.7,162.6c0.8-0.5,2.2-0.7,3.2-0.5c1.4,0.3,2,0.6,3.4,0.6c1.1,0,2-0.7,3.1-0.6c1.9,0,1.9,0.3,3.6,0.6c0.4,0.1,0.9,0.1,1.4,0c0.6-0.1,1.1-0.3,1.6-0.5s1.8-0.2,2.4-0.1c1.1,0.1,1.6,0.5,1.9,0.5c0.6,0.1,1.3,0.2,2.1,0c1-0.2,1.9-0.8,3.1-0.7c0.9,0.1,2.1,0.8,3.4,0.8c1.4,0,1.9-0.5,3.1-0.7c0.8-0.2,1.3-0.1,2.2,0.1c1,0.2,1.6,0.8,3.3,0.6" />
  <path fill="#FFFFFF" d="M224.5,145.4c1.7,0,3.1-1.4,3.1-3.1s-1.4-3.1-3.1-3.1c-1.7,0-3.1,1.4-3.1,3.1C221.4,143.9,222.8,145.4,224.5,145.4" />
  <path fill="none" stroke="#000000" stroke-width="0.0917" d="M225.2,139.1l0.3-1.6 M224.9,139.1l0.2-1.7 M224.5,139.1v-1.7 M224.2,139.1l-0.1-1.7 M223.9,139.1l-0.4-1.6 M223.6,139.2l-0.5-1.6 M223.3,139.3l-0.7-1.6 M223,139.5l-0.9-1.4 M222.7,139.6l-1-1.4 M222.5,139.9l-1.2-1.3 M222.2,140.1l-1.3-1.1 M222,140.4l-1.4-1 M221.8,140.6l-1.5-0.8 M221.6,140.9l-1.6-0.7 M221.5,141.2l-1.6-0.5 M221.4,141.5l-1.6-0.3 M221.4,141.9l-1.7-0.2 M221.4,142.2h-1.7 M221.4,142.5l-1.7,0.2 M221.4,142.9l-1.6,0.3 M221.5,143.2l-1.6,0.5 M221.6,143.5l-1.6,0.7 M221.8,143.8l-1.8,1.1 M222,144.1l-3.7,2.6 M222.2,144.3l-4,3.5 M222.4,144.6l-3.2,3.6 M222.7,144.8l-2.4,3.3 M222.9,145l-2.6,4.5 M223.2,145.1l-1.4,3.2 M223.5,145.2l-1.4,4.5 M223.8,145.3l-0.6,3 M224.2,145.4l-0.4,4.6 M224.9,145.4l0.2,1.7 M225.2,145.3l1,4.4 M225.5,145.2l0.8,2.6 M225.8,145.1l2,4.3 M226.1,145l2.1,3.6 M226.4,144.8l3.1,4 M226.6,144.6l2.7,3.1 M226.9,144.4l4,3.6 M227.1,144.1l2.2,1.6 M227.3,143.8l1.5,0.8 M227.4,143.5l1.6,0.7 M227.5,143.2l1.6,0.5 M227.6,142.9l1.6,0.3 M227.7,142.6l1.7,0.2 M227.7,142.2h1.7 M227.7,141.9l1.7-0.1 M227.6,141.6l1.6-0.4 M227.5,141.3l1.6-0.5 M227.4,140.9l1.5-0.7 M227.3,140.6l1.5-0.8 M227.1,140.4l1.4-1 M226.9,140.1l1.3-1.1 M226.7,139.9l1.1-1.3 M226.4,139.6l1-1.3 M226.1,139.5l0.8-1.5 M225.8,139.3l0.7-1.6 M225.5,139.2l0.5-1.6 M224.5,135v-1.3 M223.1,135.2l-0.3-1.3 M221.6,135.6l-0.5-1.2 M220.4,136.4l-0.8-1.1 M219.2,137.4l-1-0.9 M218.4,138.6l-1.1-0.7 M217.7,140l-1.3-0.4 M217.4,141.4l-1.3-0.1 M217.4,142.9l-1.3,0.1 M217.7,144.4l-1.3,0.4 M230.8,145.8l1.1,0.6 M231.4,144.4l1.2,0.4 M231.7,143l1.3,0.1 M231.7,141.5l1.3-0.1 M231.4,140l1.3-0.4 M230.8,138.6l1.1-0.6 M229.9,137.5l1-0.9 M228.8,136.5l0.7-1.1 M227.5,135.7l0.5-1.2 M226,135.2l0.3-1.3" />
  <path fill="#E60000" stroke="#000000" stroke-width="0.0917" d="M226.4,143.7c0,0-0.4-0.2-0.7-0.2s-1.4-0.1-1.9,0.1c-0.3,0.1-0.4,0.3-0.4,0.3s0.3,0.3,0.9,0.4c0.6,0,1,0,1.4-0.1C226,144,226.4,143.7,226.4,143.7L226.4,143.7L226.4,143.7z" />
  <path fill="#E60000" stroke="#000000" stroke-width="0.0917" d="M223.4,143.2c0,0,0-0.9,0.6-1.9c0,0-0.2,0.3-0.3,0.6c0,0-0.3,0.2-0.5-0.1c-0.2-0.2-0.1-0.3,0-0.6c0.1-0.2,0.1-0.4,0.3-0.6c0.1-0.1,0.3-0.2,0.7-0.2s0.7,0,1,0.5c0.3,0.4,0.5,0.8,0.6,1c0.3,0.6,0.3,1.2,0.3,1.2l0.1,0.5c0,0-0.4-0.2-0.7-0.2s-1.4-0.1-1.9,0.1c-0.3,0.1-0.4,0.3-0.4,0.3S223.1,143.4,223.4,143.2L223.4,143.2z" />
  <path fill="none" stroke="#000000" stroke-width="0.0917" d="M223.4,143.2c0,0,0.3-0.2,1.4-0.2c1.3,0,1.4,0.1,1.4,0.2" />
  <path fill="#FFCC00" stroke="#000000" stroke-width="0.0917" d="M224.5,148.1v-4.6c0,0,0.1-0.1,0.5,0v4.6c0,0,0.1,3.5-0.3,3.5C224.3,151.6,224.5,150.8,224.5,148.1L224.5,148.1z" />
  <path fill="none" stroke="#000000" stroke-width="0.2149" d="M248,164.8l-23.4-39.2l-23.4,39.2H248L248,164.8z" />
  <path fill="#009900" stroke="#000000" stroke-width="0.1835" d="M206.4,156.1c0.2,0,0.8-0.4,0.9-0.5c0.2-0.1,0.3-0.4,0.5-0.6c0.2-0.2,0.7-0.4,1-0.6c1.1-0.6,1.6-1,2.3-2c1-1.4,2.2-2.5,3.7-3.3c0.4-0.3,1.2-0.2,1.7,0c0.1,0.1,0.4,0.2,0.5,0.4c0.6,0.5,1.5,0.8,2.5,1.1s1.2,1,2,1.6c0.4,0.3,0.8,0.6,1.3,0.8c0,0,0.1,0.2,0.2,0.2c0.4,0.3,0.9,0.6,1.3,0.9c0.7,0.6,1.4,1.3,2.1,2c0.1,0.1,0.1,0.3,0.3,0.4c0.5,0.5,1,1,1.6,1.3s1.2,0.7,1.8,1.1c-5.9,0.2-11.4-0.1-17.4,0h-1.1c-0.4,0-0.7,0-1.1,0c-1.8,0-3.5,0-5.6,0l1.7-2.9L206.4,156.1z" />
  <path fill="#FFCC00" stroke="#000000" stroke-width="0.1835" d="M229.7,158.9c-0.5-0.3-1-0.6-1.5-0.9c-0.6-0.3-1.1-0.8-1.6-1.3c-0.1-0.1-0.1-0.3-0.3-0.4c-0.7-0.7-1.3-1.3-2.1-2c-0.4-0.3-0.9-0.6-1.3-0.9c0,0-0.1-0.2-0.2-0.2c-0.5-0.2-0.9-0.5-1.3-0.8c-0.5-0.4-0.8-0.9-1.2-1.2l0,0c0.3-0.1,0.5-0.3,0.8-0.5c0.4-0.2,1-0.1,1.4,0.1c0.1,0,0.3,0.1,0.4,0.3c0.5,0.4,1.2,0.7,2.1,1c0.8,0.2,1,0.8,1.7,1.3c0.3,0.3,0.6,0.5,1,0.7c0,0,0.1,0.1,0.1,0.2c0.4,0.3,0.8,0.4,1.1,0.8c0.6,0.5,1.2,1.1,1.7,1.6c0.1,0.1,0.1,0.3,0.2,0.4c0.4,0.4,0.9,0.8,1.4,1.1s1,0.6,1.4,0.9C232.4,158.9,231.1,158.9,229.7,158.9L229.7,158.9L229.7,158.9z M224.4,151.6c0.2,0,0.4,0.1,0.6,0.2c0.8,0.2,1,0.8,1.7,1.3c0.3,0.3,0.6,0.5,1,0.7c0,0,0.1,0.1,0.1,0.2c0.4,0.3,0.8,0.4,1.1,0.8c0.6,0.5,1.2,1.1,1.7,1.6c0.1,0.1,0.1,0.3,0.2,0.4c0.4,0.4,0.9,0.8,1.4,1.1c0.4,0.2,0.8,0.5,1.2,0.8c1.1,0,2.2,0,3.3-0.1c-0.5-0.3-0.8-0.6-1.3-0.8c-0.4-0.2-0.8-0.6-1.2-1c-0.1,0-0.1-0.2-0.2-0.3c-0.5-0.5-1-1-1.6-1.5c-0.3-0.3-0.6-0.4-1-0.7l-0.1-0.1c-0.3-0.2-0.6-0.4-1-0.6c-0.6-0.5-0.8-1-1.5-1.2s-1.4-0.5-1.9-0.9c-0.1-0.1-0.3-0.2-0.4-0.3c-0.4-0.2-1-0.3-1.3-0.1C225,151.1,224.7,151.3,224.4,151.6L224.4,151.6z M229.9,152.9c0.1,0.2,0.3,0.4,0.5,0.6c0.3,0.3,0.6,0.4,1,0.6l0.1,0.1c0.3,0.3,0.7,0.4,1,0.7c0.5,0.5,1,1,1.6,1.5c0.1,0.1,0.1,0.3,0.2,0.3c0.4,0.4,0.8,0.8,1.2,1c0.3,0.1,0.6,0.3,0.9,0.5l0,0c1.3,0,2.6,0,3.9,0c-0.3-0.2-0.6-0.4-1.1-0.6c-0.4-0.2-0.6-0.5-1-0.8c-0.1,0-0.1-0.1-0.1-0.3c-0.4-0.4-0.8-0.8-1.3-1.2c-0.2-0.2-0.5-0.4-0.8-0.6l-0.1-0.1c-0.3-0.1-0.5-0.3-0.8-0.5c-0.4-0.4-0.6-0.8-1.2-1c-0.6-0.2-1.2-0.4-1.5-0.7c-0.1-0.1-0.2-0.2-0.3-0.2c-0.3-0.1-0.7-0.2-1,0C230.6,152.3,230.3,152.6,229.9,152.9L229.9,152.9z M240,158.1c-0.2-0.2-0.5-0.3-0.8-0.5c-0.4-0.2-0.6-0.5-1-0.8c-0.1,0-0.1-0.1-0.1-0.3c-0.4-0.4-0.8-0.8-1.3-1.2c-0.2-0.2-0.5-0.4-0.8-0.6l-0.1-0.1c-0.3-0.1-0.5-0.3-0.8-0.5c-0.4-0.4-0.5-0.7-1-0.9l0,0c0.2-0.2,0.4-0.3,0.6-0.4c0.3-0.1,0.6-0.1,0.9,0c0,0,0.1,0.1,0.3,0.2c0.3,0.3,0.7,0.4,1.3,0.6c0.5,0.1,0.6,0.5,1,0.8c0.2,0.2,0.4,0.3,0.6,0.4l0.1,0.1c0.2,0.1,0.5,0.3,0.7,0.5c0.4,0.3,0.7,0.7,1.1,1c0.1,0.1,0.1,0.2,0.1,0.2c0.3,0.2,0.5,0.5,0.8,0.6c0.3,0.2,0.6,0.4,0.9,0.6C241.9,158,240.9,158,240,158.1L240,158.1L240,158.1z" />
  <path fill="none" stroke="#00B300" stroke-width="0.0917" d="M214.1,149.4c0.3,0,0.1-0.1,0.4,0.1 M213.6,149.7c0.3,0,0.4-0.2,0.6,0 M213.3,149.9c0.1,0,0.2-0.1,0.6,0.1 M213,150.3c0.3-0.1,0.4,0,0.7,0 M212.6,150.5c0.3-0.1,0.4,0.1,0.8,0 M212.2,150.9c0.2,0,0.3-0.1,0.4,0c0.2,0,0.2,0,0.4,0 M211.8,151.3c0.2,0,0.3,0,0.5,0c0.3,0,0.2,0,0.4,0 M211.6,151.7c0.4,0,0.6,0,0.9,0.1 M211,152.5c0.4-0.1,0.6-0.1,0.9,0 M204.8,158.9c1.2-0.2,2.7,0,3.9-0.1 M211.2,152.1c0.3-0.1,0.2-0.1,0.5,0c0.3,0,0.4,0.1,0.5,0 M210.7,152.8c0.3-0.2,0.7-0.1,1,0 M211.5,153.1c-0.3-0.1-0.7,0-1,0 M211.2,153.5c-0.3-0.1-0.7-0.1-1.1-0.1 M209.6,153.8c0.4,0,0.8-0.1,1.3,0 M209.3,154.1c0.4-0.1,0.9,0,1.4,0 M208.8,154.4c0.5,0,1,0,1.4,0c0.1,0,0.2-0.1,0.3,0 M210.4,154.7c-0.7,0.1-1.4,0-2.2,0.1 M210,155c-0.2,0-0.6,0.1-0.9,0.1c0,0-0.1-0.1-0.2-0.1c-0.4,0-0.8,0-1.1,0.1 M207.6,155.4c0.1-0.1,0.4-0.1,0.5,0c0.4,0,0.9,0,1.3,0.1c0.1,0,0.2,0.1,0.4,0.1 M207.3,155.6c0.3,0,0.6,0,1,0c0.4,0.1,0.8,0.2,1.3,0.2l0,0 M207,155.9c0.4,0,0.7,0.1,1,0.1c0.4,0.1,1,0,1.4,0.1 M206.6,156.1c0.4,0.2,1,0,1.4,0.1s0.9,0.1,1.3,0.1 M206.3,156.5c0.7,0,1.4,0,2.1,0.1c0.2,0,0.5,0.1,0.8,0.1 M206,156.8c0.7,0.1,1.4,0,2.1,0.2c0.3,0.1,0.7,0.1,1,0.1H209 M205.7,157.3c0,0,0.1-0.1,0.2-0.1c0.6,0,1.1,0.1,1.7,0c0.4,0,1-0.1,1.4,0.1l0,0 M205.5,157.6c1.1-0.1,2.3,0,3.4,0 M205.3,158c1.2,0.1,2.4,0,3.5,0.1 M205.1,158.3c0.5,0.1,1,0,1.5,0.1c0.4,0.1,0.7,0.1,1.1,0.1c0.3-0.1,0.6,0,1,0 M213.5,153.5h0.1 M213.4,153.7c0,0,0.1-0.1,0.1,0 M213.2,153.9h0.3 M213.1,154h0.3 M212.9,154.2c0.2,0,0.3,0,0.5,0l0,0 M212.8,154.5c0.2-0.1,0.4,0,0.6-0.1l0,0 M212.5,154.8h0.8l0,0 M212.3,155c0.3,0,0.6,0,0.9,0 M212.1,155.3c0.3,0,0.7,0,1.1,0 M211.9,155.6c0.2,0,0.4,0.1,0.6,0.1c0.1,0,0.3,0,0.4,0 M211.9,155.9c0.3,0.1,0.7,0.1,1,0.1 M211.7,156.1c0.3,0,0.6,0.1,0.8,0.1c0.1,0,0.3,0,0.4,0 M211.3,156.5c0.4-0.1,0.8,0,1.2,0.1c0.1,0,0.3,0,0.4,0l0,0 M211.3,156.8c0.4-0.1,0.9-0.1,1.3,0.1h0.2 M211,157.1c0.6,0.1,1.1-0.1,1.7,0.1 M210.8,157.4c0.4,0.2,1,0,1.4,0.1c0.1,0,0.3,0,0.5,0 M210.5,157.7c0.2-0.1,0.4-0.1,0.6-0.1c0.5,0.1,1,0.1,1.5,0.1 M210.3,158.1c0.1,0,0.2,0.1,0.3,0c0.7-0.1,1.4,0,2,0 M210.1,158.3c0.5,0.2,1.1,0,1.7,0.1c0.2,0.1,0.5,0.1,0.7,0 M209.9,158.7c0.8,0,1.6,0,2.6,0.1 M214.6,154c0.1,0,0.1,0.1,0.2,0.1 M214.5,154.2c0.1,0,0.2-0.1,0.3,0 M214.4,154.5c0.1,0,0.3,0,0.4,0 M214.3,154.8c0.1,0,0.4,0,0.5,0 M214.1,155.1c0.2-0.1,0.4,0,0.7,0 M214.1,155.3c0.2,0.1,0.4,0,0.7,0l0,0 M214,155.6c0.2,0,0.4,0,0.6,0c0.1,0,0.1,0,0.2,0 M213.9,156c0.3-0.1,0.6,0.1,0.9,0 M213.8,156.3c0.3,0,0.6,0,1,0 M213.7,156.7c0.1,0,0.3-0.1,0.4-0.1c0.2,0.1,0.4,0,0.6,0.1 M213.6,157c0.4-0.1,0.8,0.1,1.1-0.1 M213.6,157.4c0.2,0,0.4,0,0.5,0c0.2,0.1,0.4,0,0.7,0 M213.5,157.7c0.4-0.1,0.9,0,1.4,0l0,0 M213.2,158c0.6,0,1.2-0.1,1.8-0.1 M213.3,158.3c0.6-0.1,1.3-0.1,1.9-0.1 M213.2,158.7c0.6,0.1,0.8,0,1.4,0c0.1,0,0.6-0.1,0.8-0.1h0.4 M213.2,158.9c1-0.1,2,0.1,3-0.1 M208.9,158.8h0.8 M212.7,158.9c0.1,0,0.2,0,0.3,0 M216.4,158.8c0.8-0.1,1.6,0.1,2.4,0 M216,158.5c0.5-0.1,1,0,1.5,0.1c0,0,0,0.1,0.1,0.1c0.4,0.1,0.9,0,1.3,0 M213.2,158.5h-0.5 M209.9,158.4c-0.3,0-0.7,0-1.1,0.1 M216.7,150.9h0.1 M216.8,151.1c0,0,0.1,0,0.2,0 M216.8,151.4C216.8,151.4,216.9,151.4,216.8,151.4l0.2-0.1 M216.9,151.7c0.1-0.1,0.2,0,0.4,0 M217.3,151.9c-0.1,0-0.2,0-0.3,0.1 M217.1,152.2c0.1-0.1,0.2-0.1,0.3-0.1 M217.6,152.4h-0.5 M217.3,152.7c0.2,0,0.4,0,0.5-0.1 M217.9,153c-0.2,0-0.4,0-0.5,0.1 M217.5,153.4c0.2,0,0.4,0,0.6-0.1 M218.1,153.5c-0.2,0.1-0.4,0.1-0.6,0.1 M217.7,154c0.2-0.1,0.5,0,0.8-0.1 M218.5,154.2c-0.2,0-0.4,0-0.6,0c-0.1,0-0.1,0.1-0.2,0.1 M217.9,154.8c0.1-0.1,0.3-0.2,0.5-0.1c0-0.1,0.1,0,0.2-0.1c0,0,0.1,0,0.2,0 M218.9,154.9c-0.3,0-0.6,0-0.9,0.1 M218.1,155.3c0.3-0.1,0.7-0.1,1-0.2 M218.1,155.8c0.4-0.1,0.8-0.1,1.1-0.2 M219.5,155.8c-0.4,0.1-0.9,0-1.3,0.2 M218.3,156.4c0.1,0,0.1,0.1,0.2,0.1c0.4-0.2,0.8-0.3,1.2-0.3 M219.8,156.5c-0.4,0.2-0.8,0.1-1.3,0.1c0,0-0.1,0-0.1,0.1 M218.5,157c0.5-0.1,1-0.1,1.4-0.2 M220.3,157.1c-0.4,0-0.8,0-1.1,0c-0.2,0-0.4,0.1-0.5,0.1 M218.7,157.6c0.1,0,0.1,0,0.2,0c0.5-0.3,1.1-0.2,1.6-0.2 M220.6,157.7c-0.4,0-0.9-0.1-1.4,0c-0.1,0.1-0.3,0.1-0.5,0.1 M218.9,158.3c0.3,0,0.5-0.1,0.7-0.2c0.5-0.1,1,0,1.5,0 M221.2,158.3c-0.3-0.1-0.6-0.1-0.9,0c-0.4,0.1-0.8,0.2-1.3,0.2 M219.2,158.8c0.4,0,0.7-0.1,1-0.2c0.3-0.1,0.6,0,0.9,0 M219.2,159c0.5-0.1,1.1,0,1.6-0.1c0.2-0.1,0.4,0,0.6,0 M221.4,158.6c0.9,0.1,1.8-0.1,2.7,0.1 M221.6,158.9c0.1,0,0.2-0.1,0.3-0.1c0.7,0,1.4,0,2.2,0.1 M223.8,157h0.1 M223.9,157.2c0.1,0,0.2-0.1,0.3,0 M224,157.5h0.4 M224.1,157.9c0.1-0.2,0.4,0,0.5-0.1 M224.2,158.2c0.2-0.1,0.5,0,0.7-0.1 M224.2,158.5c0.3-0.1,0.6,0,0.9-0.1 M224.4,158.8c0.4-0.2,1,0.1,1.4-0.2 M224.4,159c0.6-0.2,1.1,0,1.7,0 M226.5,159c1,0,2,0,2.9,0 M226,158.6c0.9,0.1,2.2,0,3.3,0.1 M221.2,151.9c0.1,0,0.6-0.1,0.7-0.1 M221.4,152c0.2,0,0.6,0,0.8-0.1 M221.7,152.3l0.5-0.1h0.2 M221.9,152.5c0.1,0,0.8,0,0.9,0 M223,152.6c-0.1,0-0.7,0-0.8,0.1 M222.7,153c0.1-0.1,0.5-0.1,0.6-0.1 M223.7,153.2c-0.2,0-0.6,0-0.8,0 M223.4,153.5c0.2,0,0.5-0.1,0.6-0.1 M224.4,153.7c-0.2,0-0.5,0-0.8,0 M224,154c0.3,0,0.6,0,0.8,0 M225,154.1c-0.1,0.1-0.5,0.1-0.7,0.1 M224.7,154.5c0.2-0.1,0.5,0,0.8-0.1 M225.8,154.7c-0.3,0-0.5,0-0.7,0c0,0-0.1,0-0.2,0 M226.6,155.3c-0.4,0-0.6,0-1,0.1 M225.9,155.7c0.3-0.1,0.7-0.1,1-0.2 M226.7,156.7c0.1,0,0.4,0,0.5,0c0.5-0.1,0.6-0.2,1.1-0.1 M228.6,156.7c-0.6,0.1-0.9,0.1-1.4,0.2c-0.1,0-0.2,0-0.3,0 M227.2,157.1c0.5-0.1,1.2-0.1,1.7-0.1 M229.4,157.3c-0.4,0.1-0.9,0-1.3,0.1c-0.1,0-0.5,0.1-0.7,0.1 M228,157.8c0,0,0.1,0,0.2,0c0.4-0.3,1-0.2,1.6-0.2 M230.2,157.8c-0.6,0-0.8,0-1.2,0c-0.1,0-0.4,0.1-0.6,0.1 M228.8,158.3c0.5-0.1,1.5-0.2,0.9-0.1c0.5,0,0.6,0,1.2,0 M231.1,158.3c-0.4,0-0.8,0-1,0c-0.2,0.1-0.1,0.1-0.9,0.1 M229.5,158.6c0.4,0,0.4,0,0.8-0.1c0.3-0.1,0.6,0,0.9,0 M229.7,158.8c0.6-0.1,0.6-0.1,1.2,0c0.2,0,0.3,0,0.5,0 M221,151.7c0.1-0.1,0.2-0.1,0.4-0.1c0-0.1,0.1,0,0.2-0.1c0,0,0.1,0,0.2,0 M220.7,151.4c0.1-0.1,0.3-0.1,0.5,0c-0.1-0.1,0.1,0,0.1-0.1c0,0,0.1,0,0.3,0 M225.2,155.2c0.1-0.1,0.1-0.1,0.4-0.1c-0.1-0.1,0.2,0,0.3-0.1c0,0,0.3,0,0.4,0 M226.1,156c0.3-0.1,0.8-0.1,1.1-0.2 M227.8,156.2c-0.4,0.1-1.1,0-1.4,0.2 M221.3,151c-0.4,0-0.4,0.1-0.8,0.1 M225.7,152.1c0,0,0.5-0.1,0.6-0.1 M225.9,152.3c0.3-0.1,0.5,0,0.6-0.1 M226.1,152.6l0.4-0.1c0.1,0,0.1,0,0.2,0 M226.4,152.7c0.1-0.1,0.6,0,0.8-0.1 M227.3,152.9c-0.1,0-0.6,0.1-0.8,0.1 M226.8,153.2c0.1-0.1,0.6-0.1,0.8-0.1 M228,153.3c-0.2,0-0.7,0-0.8,0 M227.4,153.6c0.2,0,0.8,0,0.8-0.1 M228.5,153.8c-0.2,0-0.5,0-0.7,0 M228,154.1c0.2,0,0.7,0,0.8-0.1 M229.1,154.1c-0.1,0.1-0.6,0.1-0.7,0.2 M228.8,154.6c0.2-0.1,0.5,0,0.8-0.1 M229.8,154.7c-0.2,0-0.4,0-0.6,0c-0.1,0-0.1,0.1-0.2,0 M230.6,155.3c-0.3,0-0.6,0-0.9,0.1 M230,155.7c0.3-0.1,0.6-0.1,1-0.1 M230.8,156.6c0.1,0,0.3-0.1,0.3-0.1c0.5,0,0.6-0.1,1.1-0.1 M232.4,156.6c-0.6,0.1-0.8,0.1-1.3,0.1c0,0-0.2,0-0.3,0.1 M231.1,157c0.4-0.1,1.1-0.1,1.6-0.1 M233.2,157.1c-0.4,0-0.8,0-1.1,0.1c-0.1,0-0.5,0-0.6,0.1 M231.9,157.6c0.1,0,0.1,0,0.2,0c0.3-0.2,1-0.2,1.5-0.2 M233.9,157.6c-0.5,0-0.7,0-1.1,0.1c-0.2,0-0.5,0.1-0.6,0.1 M232.5,158c0.5-0.1,1.5-0.1,1-0.1c0.5,0,0.6,0,1.1,0 M234.8,158.1c-0.4-0.1-0.6-0.1-0.9,0c-0.2,0-0.3,0.1-1,0.1 M233.1,158.4c0.3,0,0.5,0,0.8-0.1c0.2-0.1,0.6,0,0.9,0 M233.5,158.5c0.4,0,0.5-0.1,1.1-0.1c0.2,0,0.3,0,0.4,0 M225.5,151.9c0.1,0,0.1-0.1,0.3-0.1c0.1,0,0.3,0,0.3,0s0.1,0,0.2,0 M225.1,151.8c0.1-0.1,0.2-0.1,0.4-0.1s0.3,0,0.3-0.1h0.2 M229.4,155.2c0.1-0.1,0-0.1,0.3-0.1c-0.1-0.1,0.2,0,0.2,0s0.2,0,0.4,0 M230.2,156c0.3-0.1,0.7-0.1,1-0.2 M231.7,156.1c-0.4,0.1-0.8,0-1.1,0.1 M225.7,151.4c-0.4,0-0.7,0.1-0.9,0.3 M230.3,153.3l0.6-0.1 M230.5,153.4c0.2,0,0.5,0,0.6-0.1 M230.7,153.6l0.4-0.1c0,0,0.1,0,0.2,0 M230.9,153.8c0.1-0.1,0.6-0.1,0.7-0.1 M231.7,153.9c-0.1,0-0.5,0-0.6,0.1 M231.4,154.1c0.1,0,0.4-0.1,0.5-0.1 M232.2,154.2c-0.1,0-0.5,0-0.6,0 M231.8,154.4c0.1,0,0.5,0,0.6-0.1 M232.7,154.6h-0.6 M232.2,154.8c0.2,0,0.5,0,0.7,0 M233.1,154.8c-0.1,0.1-0.4,0.1-0.6,0.1 M232.8,155.2c0.1-0.1,0.5,0,0.7,0 M233.7,155.3c-0.2,0-0.4,0-0.5,0H233 M234.2,155.7c-0.2,0-0.5,0.1-0.8,0.1 M233.7,156c0.2-0.1,0.5-0.1,0.8-0.1 M234.2,156.7c0,0,0.3,0,0.4,0c0.4,0,0.4-0.1,0.8-0.1 M235.6,156.7c-0.4,0-0.6,0.1-1,0.1c0,0-0.2,0-0.3,0 M234.6,157c0.3-0.1,1,0,1.3-0.1 M236.3,157.1c-0.3,0-0.6,0-0.9,0c-0.2,0-0.5,0.1-0.5,0.1 M235.1,157.5c0.1,0,0.4-0.1,0.4-0.1c0.4,0,0.6-0.1,1-0.1 M236.8,157.5c-0.4,0-0.6,0-0.9,0.1c-0.2,0-0.5,0.1-0.6,0.1 M235.7,157.8c0.3-0.1,1.1-0.1,0.8-0.1c0.4,0,0.4,0,0.8,0 M237.4,157.8c-0.2,0-0.5,0-0.7,0c-0.1,0-0.2,0.1-0.8,0.1 M236.2,158.1c0.3,0,0.4,0,0.6-0.1c0.2-0.1,0.5,0,0.7,0 M236.4,158.2c0.3-0.1,0.5-0.1,0.9-0.1c0.1,0,0.2,0,0.3,0 M230.2,153.2c0.1,0,0.1-0.1,0.3-0.1c0.1,0,0.2,0,0.2,0s0.1,0,0.2,0 M230,153c0.1,0,0.1-0.1,0.3-0.1h0.2h0.1 M233.2,155.6c0.1,0,0.1,0,0.3,0c-0.1,0,0.1,0,0.2,0h0.2 M233.9,156.2c0.2,0,0.5,0,0.8-0.1 M235.1,156.3c-0.3,0-0.7,0-1,0.1 M230.5,152.7c-0.3,0-0.3,0.1-0.5,0.2 M234.5,153.5l0.5-0.1 M234.7,153.7c0.1,0,0.4,0,0.5-0.1 M234.8,153.8l0.4-0.1h0.1 M235.1,154c0,0,0.5-0.1,0.6-0.1 M235.8,154c-0.1,0-0.6,0.1-0.6,0.1 M235.4,154.3c0,0,0.4-0.1,0.6-0.1 M236.3,154.4c-0.1,0-0.5,0-0.6,0.1 M235.8,154.5c0.1,0,0.5,0,0.6-0.1 M236.7,154.7c-0.1,0-0.4,0-0.6,0.1 M236.3,154.9c0.1,0,0.5,0,0.6-0.1 M237.1,154.9c-0.1,0.1-0.5,0.1-0.6,0.1 M236.8,155.2c0.1-0.1,0.4,0,0.6-0.1 M237.6,155.3c-0.2,0-0.3,0-0.4,0c0,0-0.1,0-0.2,0 M238.1,155.7c-0.2,0-0.5,0.1-0.7,0.1 M237.6,156c0.2-0.1,0.5-0.1,0.8-0.1 M238.1,156.6h0.3c0.4,0,0.4-0.1,0.8-0.1 M239.4,156.7c-0.4,0.1-0.6,0.1-0.9,0.1h-0.2 M238.4,157c0.3,0,0.9-0.1,1.2-0.1 M240,157c-0.3,0-0.6,0-0.8,0s-0.5,0-0.5,0.1 M238.9,157.4l0.3-0.1c0.4,0,0.5-0.1,1-0.1 M240.5,157.4c-0.4,0-0.5,0-0.8,0c-0.2,0-0.4,0.1-0.5,0.1 M239.4,157.7c0.3-0.1,1.1-0.1,0.8-0.1c0.3,0,0.4,0,0.8,0 M241.1,157.7c-0.2,0-0.5-0.1-0.6,0c-0.1,0-0.2,0.1-0.7,0.1 M239.9,157.9c0.2,0,0.4,0,0.6-0.1c0.2,0,0.4,0,0.6,0 M240.1,158c0.3,0,0.4-0.1,0.9-0.1h0.3 M234.4,153.3c0.1,0,0.1-0.1,0.3-0.1h0.2h0.1 M234.2,153.2c0.1-0.1,0.1-0.1,0.3-0.1c0.1,0,0.2,0,0.2,0h0.1 M237.2,155.6c0.1,0,0.1,0,0.3,0c0-0.1,0.1,0,0.2,0h0.2 M237.8,156.2c0.2,0,0.6,0,0.8-0.1 M238.9,156.3c-0.3,0-0.8,0-1,0.1 M234.7,152.9c-0.3,0-0.3,0.1-0.5,0.2" />
  <path fill="#009900" d="M231.4,158.6c-0.1-0.1-0.3-0.1-0.6-0.1h-0.5h0.5c0.5,0,0.5-0.1,0.3-0.3c-0.1-0.1-0.3-0.1-1.2,0c-0.6,0.1-1.1,0.1-1.2,0c-0.2-0.1,0.4-0.2,1.1-0.2c0.3,0,0.4-0.1,0.4-0.1c0-0.1-1.2-0.1-1.7,0.1c-0.2,0.1-0.2,0-0.1-0.1c0.1-0.1,0.4-0.1,0.8-0.2c0.7-0.1,0.9-0.2,0.3-0.2c-0.2,0-0.3,0-0.2-0.1c0.4-0.1,0.2-0.2-0.2-0.2c-1.2,0.1-1.6,0.1-1.5,0.1c0.1-0.1,0.3-0.1,0.5-0.1c0.5,0,0.8-0.1,0.8-0.2c0,0-0.1-0.1-0.2,0s-0.5,0.1-0.9,0.1c-0.7,0.1-0.5-0.1,0.2-0.2c0.7-0.1,0.7-0.2,0-0.2l-0.6,0.1l0.4-0.1c0.2-0.1,0.4-0.1,0.4-0.2c0-0.1,0-0.1-0.9,0c-0.6,0.1-0.7,0.1-0.7,0s0.1-0.1,0.4-0.1c0.5,0,0.8-0.1,0.7-0.2c0,0-0.3,0-0.6,0c-0.7,0.1-1,0-0.4-0.1c0.4-0.1,0.6-0.2,0.6-0.3c0,0-0.2,0-0.4,0c-0.4,0.1-0.8,0.1-0.8,0s0.1-0.1,0.3-0.1c0.3,0,0.6-0.1,0.5-0.2c0,0-0.3,0-0.5,0c-0.3,0-0.5,0-0.6,0c-0.1-0.1,0.1-0.1,0.3-0.1c0.6,0,0.5-0.2-0.1-0.2h-0.6l0.4-0.1c0.6-0.1,0.5-0.3-0.1-0.2c-0.3,0-0.5,0-0.6,0c0-0.1,0.1-0.1,0.3-0.1c0.5,0,0.4-0.2-0.1-0.2c-0.4,0-0.4,0-0.1-0.1c0.2,0,0.3-0.1,0.3-0.1c0-0.1-0.1-0.1-0.4,0c-0.5,0.1-0.7-0.1-0.3-0.1c0.3-0.1,0.4-0.2,0.1-0.2c-0.1,0-0.1,0-0.1-0.1s-0.1-0.1-0.4,0c-0.2,0-0.4,0-0.5,0c0-0.1,0.1-0.1,0.2-0.1c0.4,0,0.3-0.2-0.1-0.2c-0.2,0-0.3,0-0.2-0.1c0.3-0.1,0.1-0.2-0.3-0.2c-0.2,0-0.3,0-0.1,0c0.4-0.1,0.3-0.2-0.1-0.2c-0.3,0-0.3,0-0.1-0.1c0.1,0,0.2-0.1,0.2-0.1c0-0.1-0.1-0.1-0.4,0c-0.2,0-0.4,0-0.5,0c-0.1-0.1,0-0.1,0.2-0.1s0.3,0,0.3-0.1c0-0.2-0.3-0.3-0.6-0.3c-0.2,0-0.3,0-0.2-0.1c0.2-0.1,0.3-0.2,0-0.2c-0.1,0-0.2,0-0.1-0.1c0-0.1,0-0.1-0.1-0.1s-0.1,0-0.1,0c0-0.1-0.1-0.1-0.4-0.1c-0.2,0-0.4,0-0.4,0s0.1-0.1,0.2-0.1s0.3,0,0.3-0.1c0.1-0.1,0.1-0.1,0-0.2c-0.1-0.1-0.2-0.1-0.6-0.1c-0.3,0-0.4,0-0.4,0c0-0.1,0.1-0.1,0.3-0.1c0.4,0,0.4-0.2,0-0.2h-0.3l0.4-0.2c0.6-0.3,1.1-0.2,2,0.4c0.2,0.1,0.8,0.4,1.4,0.6c0.9,0.4,1.1,0.4,1.7,1.1c0.4,0.4,0.9,0.8,1.1,0.9c1.3,0.9,1.9,1.4,2.6,2.1c0.4,0.5,0.8,0.9,0.9,0.9c0.1,0.2,1,0.9,1.7,1.3c0.4,0.2,0.7,0.4,0.7,0.5s-0.4,0-0.9,0C231.7,158.7,231.4,158.6,231.4,158.6L231.4,158.6z M234.9,158.3c-0.1-0.1-0.1-0.2-0.2-0.3c-0.1-0.2-0.1-0.2-1.2-0.1c-0.6,0-1,0-0.9,0s0.5-0.1,0.7-0.1c0.3,0,0.5-0.1,0.5-0.1c0-0.1-0.2-0.1-0.8-0.1c-0.5,0-0.7,0-0.6,0c0.1,0,0.4-0.1,0.6-0.1c0.2,0,0.4-0.1,0.4-0.1l-0.1-0.1c0,0-0.1,0-0.1-0.1s-0.3-0.1-0.6-0.1c-0.4,0-0.5,0-0.3-0.1c0.2,0,0.3-0.1,0.3-0.1c0-0.1-0.4-0.1-0.8,0c-0.9,0.1-1,0,0-0.1c0.6-0.1,0.8-0.2,0.3-0.2c-0.2,0-0.2,0-0.1-0.1c0.3-0.1,0.2-0.2-0.1-0.2c-0.7,0.1-1.1,0.2-1.1,0.1c0-0.1,0.1-0.1,0.4-0.1c0.2,0,0.5,0,0.5-0.1s-0.1-0.1-0.5-0.1c-0.7,0-0.9-0.1-0.3-0.1c0.2,0,0.4-0.1,0.4-0.1c0-0.1-0.1-0.1-0.6,0c-0.2,0-0.4,0.1-0.4,0c0,0,0.1-0.1,0.4-0.1s0.4-0.1,0.4-0.1c0-0.1-0.6,0-0.9,0.1c-0.1,0-0.1,0-0.2-0.1c0-0.1,0.1-0.1,0.3-0.1c0.5,0,0.4-0.2-0.1-0.2s-0.5,0-0.2-0.1c0.4-0.1,0.4-0.2-0.1-0.2c-0.3,0-0.5,0-0.5-0.1s0-0.1,0.3-0.1c0.4,0,0.4-0.2,0.1-0.2c-0.1,0-0.2,0-0.1-0.1c0.3-0.1,0.1-0.2-0.3-0.1c-0.3,0-0.4,0-0.4-0.1s0.1-0.1,0.2-0.1s0.2,0,0.2-0.1s-0.1-0.1-0.1-0.1s-0.1,0-0.1-0.1s-0.2-0.1-0.4-0.1s-0.3,0-0.2,0c0.4-0.1,0.3-0.2-0.1-0.2c-0.2,0-0.3,0-0.2-0.1c0.2,0,0.3-0.2,0.1-0.2c-0.1,0-0.1,0-0.1-0.1s-0.1-0.1-0.3-0.1s-0.2,0-0.1-0.1c0.3-0.1,0.1-0.2-0.3-0.2c-0.4,0-0.4,0-0.2-0.1c0.1-0.1,0.2-0.1,0.3-0.1c0.1-0.1-0.2-0.3-0.4-0.3c-0.1,0-0.1,0-0.1-0.1s-0.1-0.1-0.1-0.1l-0.1-0.1l-0.1-0.1c-0.1,0-0.1,0-0.1-0.1s0-0.1-0.3-0.1c-0.2,0-0.2,0-0.1,0c0.4-0.1,0.4-0.2,0.1-0.2c-0.1,0-0.2,0-0.1-0.1c0.2-0.1,0.2-0.2,0-0.2c-0.1,0-0.1,0-0.1-0.1s-0.1-0.1-0.3-0.1c-0.3,0-0.3,0-0.2-0.1c0.3-0.2,0.8-0.2,1.2,0.1c0.8,0.5,1.6,0.8,2.1,1c0.4,0.2,0.7,0.4,1.2,0.8c0.3,0.3,0.8,0.7,0.9,0.8c1.1,0.7,1.8,1.4,3.7,3.2c0.3,0.3,0.8,0.6,1.1,0.8c0.4,0.2,0.6,0.4,0.6,0.4s-0.3,0-0.6,0C235.3,158.4,235,158.4,234.9,158.3L234.9,158.3z M237.5,157.9c0-0.2-0.3-0.4-0.5-0.4s-0.3,0-0.2-0.1s0-0.1-0.1-0.1s-0.1,0-0.1-0.1s0-0.1-0.1-0.1s-0.2,0-0.1-0.1s-0.1-0.1-0.2-0.1c-0.1,0-0.2,0-0.2-0.1s-0.1-0.1-0.3-0.1s-0.3,0-0.1-0.1c0.2,0,0.3-0.2,0.1-0.2c-0.1,0-0.1,0-0.1-0.1s-0.1-0.1-0.1-0.1s-0.1,0-0.1-0.1s-0.1-0.1-0.3-0.1s-0.2,0-0.2-0.1c0.1-0.1-0.2-0.4-0.3-0.4s-0.1,0-0.1-0.1s-0.1-0.1-0.2-0.1c-0.1,0-0.2,0-0.1-0.1s-0.1-0.1-0.4-0.1c-0.3,0-0.4,0-0.1-0.1c0.3,0,0.4-0.2,0.2-0.2c-0.1,0-0.1,0-0.1-0.1c0,0-0.1-0.1-0.3,0c-0.3,0-0.3,0-0.1-0.1s0.2-0.1,0.1-0.2c-0.1-0.1-0.2-0.1-0.2-0.1s-0.1,0-0.1-0.1s-0.1-0.1-0.1-0.1c-0.1,0-0.2-0.1-0.3-0.2c-0.1-0.1-0.3-0.2-0.6-0.3s-0.3-0.1-0.2-0.1c0.2,0,0.2-0.2,0-0.2c-0.1,0-0.2-0.1-0.2-0.1s-0.1-0.1-0.3-0.1s-0.4,0-0.6-0.2l-0.3-0.2h0.2c0.3,0,0.4-0.2,0.2-0.3c-0.1-0.1-0.1-0.1,0.2-0.3c0.5-0.3,1-0.2,1.6,0.1c0.2,0.1,0.7,0.4,1.1,0.5c0.6,0.2,0.8,0.4,1.1,0.7c0.2,0.2,0.9,0.8,1.4,1.1c0.5,0.4,1.3,1.1,1.9,1.6c0.5,0.6,1.1,1.1,1.3,1.2c0.7,0.4,0.7,0.4-0.5,0.4C237.9,158.1,237.5,158,237.5,157.9L237.5,157.9z M241.1,157.7c-0.1-0.2-0.2-0.2-0.7-0.2c-0.3,0-0.4,0-0.3,0c0.2,0,0.3-0.1,0.3-0.1c0-0.1-0.3-0.3-0.5-0.4c-0.1,0-0.3-0.1-0.3-0.1l-0.1-0.1c0,0-0.2-0.1-0.2-0.2c0-0.1-0.1-0.2-0.2-0.2c-0.1,0-0.2,0-0.2-0.1s-0.1-0.1-0.3-0.1s-0.3,0-0.2-0.1s0.1-0.1,0-0.2c-0.1-0.1-0.2-0.1-0.2-0.1s-0.1,0-0.1-0.1s-0.1-0.1-0.1-0.1s-0.1,0-0.1-0.1s-0.1-0.1-0.1-0.1s-0.2-0.1-0.2-0.2c-0.1-0.1-0.2-0.2-0.3-0.2s-0.1,0-0.1-0.1c0.1-0.1-0.1-0.3-0.4-0.2c-0.2,0-0.2,0-0.1,0c0.1-0.1,0.1-0.1-0.1-0.3c-0.1-0.1-0.2-0.2-0.3-0.2s-0.2-0.1-0.3-0.2c-0.1-0.1-0.3-0.2-0.3-0.2c-0.1,0-0.5-0.4-0.5-0.5c0,0-0.1-0.1-0.1-0.2c-0.1-0.1-0.1-0.1,0.1-0.2c0.3-0.1,0.6,0,1,0.3c0.2,0.1,0.6,0.3,0.9,0.5c0.4,0.1,0.7,0.4,1,0.6c0.3,0.3,0.6,0.5,0.9,0.8c0.3,0.2,1,0.8,1.5,1.3s1.2,1.1,1.4,1.2l0.5,0.3h-0.6C241.3,157.9,241.2,157.9,241.1,157.7L241.1,157.7z" />
  <path fill="#E60000" d="M223.9,135.6l0.3,1.4H224l0,0l-0.2-0.8c0,0,0-0.2-0.1-0.3l-0.1,1.2l-0.2,0.1l-0.7-1.1c0,0.1,0.1,0.3,0.1,0.3l0.2,0.8h-0.2l-0.3-1.3h0.3l0.6,1.1l0.2-1.3L223.9,135.6z M225.4,136.6c0,0.2-0.1,0.4-0.4,0.4h-0.6l0.1-1.4l0,0h0.6c0.3,0,0.4,0.2,0.4,0.4c0,0.1,0,0.2-0.2,0.3C225.2,136.3,225.4,136.4,225.4,136.6z M224.5,136.2L224.5,136.2h0.3c0.2,0,0.2,0,0.3-0.2c0-0.2-0.1-0.2-0.3-0.2h-0.3V136.2L224.5,136.2L224.5,136.2z M225.2,136.6c0-0.2-0.1-0.2-0.3-0.2h-0.3v0.5h0.3C225,136.8,225.2,136.7,225.2,136.6z M219.4,139.5l0.5,0.3l-0.1,0.1l-1.2-0.7l0.3-0.5c0.1-0.2,0.4-0.3,0.5-0.1c0.2,0.1,0.3,0.3,0.1,0.6L219.4,139.5z M219.3,139.3L219.3,139.3l0.1-0.3c0.1-0.1,0.1-0.3,0-0.3c-0.1-0.1-0.2,0-0.3,0.1l-0.2,0.3L219.3,139.3L219.3,139.3L219.3,139.3z M219.7,144.3L219.7,144.3l-1.3,0.5l0.1,0.1c0.2,0,0.3,0,0.4,0.2h0.1l-0.1-0.3l0.9-0.3L219.7,144.3z M220.5,137l0.8,1.1l0.2-0.1L220.5,137L220.5,137z M220.3,137.3l-0.1-0.1l-0.8,0.8l0,0l0.1,0.1l0.3-0.3l0.9,0.9l0.1-0.1l-0.9-0.8L220.3,137.3z M222.5,137.2l-0.7,0.4l-0.2-0.4l0.7-0.3l-0.1-0.2l-0.7,0.3l-0.2-0.4l0.7-0.4l-0.1-0.1l-0.9,0.4l0.7,1.3l0.9-0.5L222.5,137.2L222.5,137.2z M229.3,137.5L229.3,137.5L229.3,137.5L229.3,137.5z M230.6,143.3v0.2c0.1,0.1,0.3,0.1,0.2,0.4c0,0.2-0.2,0.2-0.3,0.2c-0.2,0-0.2-0.2-0.3-0.3l-0.1-0.2c0-0.2-0.2-0.4-0.5-0.5l-0.2,0.9h0.1l0.2-0.7c0.1,0,0.2,0.1,0.2,0.3v0.2c0.1,0.3,0.2,0.4,0.4,0.5c0.2,0,0.4-0.1,0.5-0.3C231,143.7,231,143.4,230.6,143.3z M230.6,143.2C230.6,143.3,230.6,143.3,230.6,143.2L230.6,143.2L230.6,143.2z M219.7,140.1L219.7,140.1l-0.2-0.1l-0.3,0.8l-0.4-0.1l0.3-0.7l-0.1-0.1l-0.3,0.7l-0.4-0.1l0.3-0.8l-0.2-0.1l-0.3,1l1.3,0.5L219.7,140.1z M230.5,144.6h-0.2l-0.1,0.3l-0.9-0.4l-0.1,0.1l1.2,0.6l0.1-0.1C230.4,144.9,230.4,144.8,230.5,144.6z M231.1,142.6c0,0.3-0.2,0.4-0.4,0.4s-0.2-0.1-0.2-0.2c-0.1,0.2-0.2,0.2-0.3,0.2c-0.2,0-0.4-0.1-0.4-0.5c0-0.1,0-0.2,0.1-0.3c0.2-0.2,0.3-0.2,0.4-0.2c0.1,0,0.3,0.1,0.3,0.3c0-0.1,0.1-0.1,0.3-0.1C231,142.2,231.1,142.2,231.1,142.6z M230.4,142.5c0-0.2-0.1-0.3-0.2-0.3c-0.1,0-0.3,0-0.3,0.2c0,0.1,0,0.3,0.2,0.3C230.3,142.8,230.4,142.7,230.4,142.5z M231,142.6c0-0.2-0.1-0.2-0.1-0.2c-0.1,0-0.2,0.1-0.2,0.2c0,0.1,0.1,0.2,0.2,0.2C230.9,142.8,231,142.7,231,142.6z M230.7,141.3l-1,0.1v0.2l0,0l1.4-0.2v-0.2c-0.2,0-0.2-0.1-0.3-0.3h-0.1L230.7,141.3z M229.6,140.4l0.2-0.1l-0.4-0.8l0.4-0.2l0.3,0.7l0.1-0.1l-0.4-0.7l0.4-0.2l0.3,0.7l0.1-0.1l-0.5-0.9l-1.2,0.7L229.6,140.4L229.6,140.4z M218.9,143.8c-0.1,0-0.2-0.1-0.2-0.2c0-0.2,0-0.3,0.2-0.4c0.2,0,0.3,0,0.4,0.2c0,0.2,0,0.3-0.2,0.3l0.1,0.2c0.3-0.1,0.3-0.3,0.3-0.5c-0.1-0.5-0.5-0.5-0.6-0.4c-0.3,0-0.3,0.3-0.3,0.5c0,0.1,0.1,0.2,0.1,0.2l0,0h-0.4l-0.1-0.6H218l0.2,0.7l0.8-0.1L218.9,143.8z M229.3,144.6L229.3,144.6L229.3,144.6L229.3,144.6z M227.6,136.5l0.7,0.4l0.1-0.1l-0.9-0.5l-0.7,1.2l0.9,0.5h0.1v-0.1l-0.7-0.4l0.2-0.4l0.7,0.4l0.1-0.1l-0.7-0.4L227.6,136.5z M218.6,141.9l0.1-0.3c0.1-0.2,0.1-0.3,0.3-0.3s0.2,0.3,0.2,0.4c0,0.2-0.1,0.4-0.3,0.4v0.2c0.2,0,0.3,0,0.4-0.1c0,0,0.2-0.2,0.2-0.4c0-0.3,0-0.6-0.4-0.6c-0.2,0-0.4,0.1-0.4,0.3L218.6,141.9c0,0.1-0.1,0.2-0.2,0.2c-0.2,0-0.2-0.2-0.2-0.3l0,0c0-0.2,0.1-0.3,0.3-0.3l0,0v-0.2c-0.1,0-0.4,0-0.4,0.5c0,0.3,0.2,0.5,0.4,0.5C218.5,142.2,218.6,142,218.6,141.9z M226.6,136.7c0,0,0.1,0.1,0,0.3v0.2c0,0.1,0,0.1,0,0.2l0,0l-0.2-0.1c0-0.1,0-0.3,0.1-0.3c0-0.1,0-0.2-0.2-0.3l-0.5-0.1l-0.1,0.6h-0.1l0.3-1.4l0.6,0.2c0.2,0,0.4,0.2,0.3,0.5C226.8,136.6,226.7,136.6,226.6,136.7z M226.7,136.3c0-0.2-0.1-0.2-0.1-0.3l-0.4-0.1l-0.1,0.4l0,0l0.4,0.1C226.5,136.5,226.7,136.5,226.7,136.3z M229.5,138.8c-0.3,0.2-0.7,0.4-1,0l-0.3-0.5l1.1-0.9l0.3,0.4C229.9,138.2,229.8,138.6,229.5,138.8z M229.4,138.7c0.2-0.2,0.3-0.4,0.1-0.6l-0.2-0.3l-0.7,0.7l0,0l0.2,0.2C228.9,138.9,229.1,138.9,229.4,138.7z" />
  <path fill="none" stroke="#000000" stroke-width="0.2149" d="M224.5,177.5c0.8,0,1.6,0,5.2-0.9c3.6-0.8,6.5-3,7.2-3.3s1.7-0.2,1.7-0.2c-0.4-0.4-1.5-1.4-3-1.4c-1.6,0-0.9,0-2.3,0.6c-1.3,0.5-4.1,2.2-8.7,2.2h-0.1c-4.7,0-7.6-1.7-8.9-2.2c-1.3-0.6-0.7-0.6-2.3-0.6s-2.6,1-3,1.4c0,0,1-0.1,1.7,0.2s3.6,2.5,7.2,3.3C222.9,177.5,223.8,177.5,224.5,177.5L224.5,177.5z M210.8,174.5c0.4-0.2-0.1-0.8-0.1-0.8l1.4-0.3c-0.7-0.3-1.7-0.2-1.7-0.2c-0.3,0.2-0.2,0.5-0.3,0.7c0,0.2,0,0.5,0.1,0.7C210.4,174.6,210.8,174.5,210.8,174.5L210.8,174.5z M212.1,173.3l-1.4,0.3c0,0,0.4,0.6,0.1,0.8l2.5-0.4C213.3,174,212.9,173.7,212.1,173.3L212.1,173.3L212.1,173.3z M238.3,174.5c-0.4-0.2,0.1-0.8,0.1-0.8l-1.4-0.3c0.7-0.3,1.7-0.2,1.7-0.2c0.3,0.2,0.2,0.5,0.3,0.7c0,0.2,0,0.5-0.1,0.7C238.7,174.6,238.3,174.5,238.3,174.5 M237,173.3l1.4,0.3c0,0-0.4,0.6-0.1,0.8l-2.5-0.4C235.8,174,236.2,173.7,237,173.3L237,173.3z" />
  <path fill="#000000" d="M214.7,172.4l0.3,0.1c0.4,0.2,0.7,0.6,0.5,1.1s-0.7,0.6-1.1,0.4l-0.3-0.1L214.7,172.4 M215.6,174.6l-0.2-0.1l0.7-1.5h0.2L215.6,174.6 M217.7,174.6c-0.2,0.4-0.7,0.6-1.1,0.4c-0.4-0.2-0.6-0.7-0.4-1.1c0.2-0.4,0.7-0.7,1.1-0.5C217.7,173.6,217.9,174.1,217.7,174.6 M218.8,174.4c0-0.1-0.1-0.2-0.2-0.2c-0.1,0-0.3,0-0.3,0.1c-0.1,0.1,0,0.3,0.1,0.3l0.1,0.1c0.2,0.1,0.3,0.3,0.2,0.6s-0.4,0.4-0.6,0.3c-0.2-0.1-0.4-0.4-0.3-0.6h0.2c-0.1,0.2,0,0.3,0.2,0.4c0.1,0.1,0.3,0,0.4-0.2c0.1-0.2,0-0.3-0.1-0.4l-0.1-0.1c-0.1-0.1-0.2-0.3-0.1-0.5c0.1-0.3,0.3-0.3,0.6-0.3c0.2,0.1,0.3,0.2,0.3,0.4L218.8,174.4 M220,174.5l-0.3,1c-0.1,0.3-0.1,0.5,0.2,0.6s0.4-0.1,0.5-0.4l0.3-1h0.2l-0.3,1c-0.1,0.3-0.4,0.6-0.7,0.4c-0.4-0.1-0.5-0.4-0.4-0.8l0.3-1L220,174.5 M221.2,174.8l0.9,1.5l0.2-1.2h0.2l-0.3,1.7l-1-1.5l-0.2,1.2h-0.2L221.2,174.8 M222.9,176.8h-0.2l0.2-1.6h0.2L222.9,176.8 M224.9,176.1c0,0.5-0.4,0.9-0.8,0.8c-0.5,0-0.8-0.4-0.8-0.9c0-0.4,0.4-0.8,0.8-0.8C224.6,175.2,225,175.7,224.9,176.1 M225.1,175.2l1.3,1.2l-0.1-1.2h0.2l0.1,1.7l-1.3-1.2l0.1,1.2h-0.2L225.1,175.2 M227.9,176.4l0.4-0.1l0.1,0.2l-0.7,0.1l-0.4-1.6h0.2L227.9,176.4 M228.8,176.4h-0.2l-0.4-1.6l0.2-0.1L228.8,176.4 M228.7,174.7l0.2-0.1c0.3-0.1,0.6-0.1,0.7,0.3c0,0.1,0,0.3-0.1,0.3c0.2,0,0.4,0.1,0.4,0.3c0.1,0.3-0.1,0.5-0.4,0.6l-0.4,0.1L228.7,174.7 M229.8,174.4l0.8-0.3v0.2l-0.6,0.2l0.1,0.4l0.6-0.2v0.2l-0.6,0.2l0.2,0.6l0.6-0.2l0.1,0.2l-0.8,0.3L229.8,174.4 M232.5,175.2l-0.2,0.1l-0.7-0.4h-0.1l0.2,0.6l-0.1,0.1L231,174l0.2-0.1c0.1-0.1,0.3-0.1,0.4-0.1c0.1,0,0.3,0.2,0.3,0.3c0.1,0.2,0,0.4-0.2,0.6L232.5,175.2 M233.1,174.9L233,175l-0.6-1.4l-0.3,0.1l-0.1-0.1l0.8-0.4l0.1,0.1l-0.4,0.1L233.1,174.9 M233.7,174.1v0.4l-0.2,0.1l-0.1-1.9l1.4,1.2l-0.1,0.1l-0.4-0.3L233.7,174.1 M234.2,172.4l0.3-0.1c0.4-0.3,0.9-0.2,1.2,0.3c0.3,0.4,0.1,0.9-0.4,1.2l-0.3,0.1L234.2,172.4 M214.3,173.8L214.3,173.8c0.4,0.1,0.8,0.1,0.9-0.3c0.2-0.4,0-0.6-0.4-0.8l0,0L214.3,173.8 M217.4,174.5c0.1-0.3,0-0.6-0.3-0.8c-0.3-0.1-0.6,0-0.7,0.3c-0.1,0.3,0,0.7,0.3,0.8C216.9,174.9,217.3,174.8,217.4,174.5 M224.6,176.1c0-0.3-0.2-0.6-0.5-0.6s-0.6,0.3-0.6,0.6s0.2,0.6,0.6,0.6C224.4,176.7,224.6,176.5,224.6,176.1 M229.1,175.4L229.1,175.4c0.2-0.1,0.3-0.1,0.3-0.3c-0.1-0.2-0.2-0.2-0.4-0.1l0,0L229.1,175.4 M233.7,173.2v0.7l0.4-0.3L233.7,173.2 M235.2,173.5L235.2,173.5c0.4-0.2,0.6-0.5,0.4-0.9c-0.3-0.4-0.6-0.3-0.9-0.1h-0.1L235.2,173.5 M229.3,176.1h0.1c0.1-0.1,0.3-0.1,0.2-0.3c0-0.2-0.3-0.2-0.4-0.1h-0.1L229.3,176.1 M231.4,174.6L231.4,174.6c0.2-0.1,0.4-0.2,0.3-0.4c-0.1-0.2-0.3-0.1-0.4-0.1l0,0L231.4,174.6" />
</svg>
