<svg xmlns="http://www.w3.org/2000/svg" width="450px" height="300px" viewBox="0 0 450 300">
  <path fill="#002868" d="M0,150V0h450v300H0" />
  <path fill="#FFFFFF" d="M225,37.5h-49.843L225,12.578V0h-25.157L131.25,34.297V0h-37.5v34.297L25.157,0H0v12.578L49.843,37.5H0V75h49.843L0,99.922V112.5l0,0h25.156L93.75,78.203V112.5h37.5V78.203l68.594,34.297H225V99.922L175.157,75H225V37.5z" />
  <path fill="#C8102E" d="M91.77,75l-75,37.5H0l0,0L75,75H91.77z M58.23,37.5H75L0,0v8.385L58.23,37.5z M123.75,112.5v-45H225V45H123.75V0h-22.5v45H0v22.5h101.25v45H123.75z M225,0h-16.77l-75,37.5H150L225,0z M166.77,75H150l75,37.5v-8.385L166.77,75z" />
  <g>
    <path fill="#FCD116" stroke="#000000" stroke-width="3" d="M376.875,103.125v33.75c0,22.5-11.25,46.734-39.375,59.859c-28.125-13.125-39.375-37.359-39.375-59.859v-33.75H376.875z" />
    <path fill="none" stroke="#FFFFFF" stroke-width="2.625" d="M376.875,103.125v33.75c0,22.5-11.25,46.734-39.375,59.859c-28.125-13.125-39.375-37.359-39.375-59.859v-33.75H376.875z" />
    <g>
      <path fill="#FCAD56" stroke="#000000" stroke-width="0.1031" stroke-linecap="round" stroke-linejoin="round" d="M323.297,140.297c-1.031,1.734-2.766,2.109-4.125,1.547c-1.406-0.562-2.672-3.844-4.078-5.625c-1.359-1.734-1.734-0.984-2.672-2.016c-0.891-0.984-2.297-1.734-4.5-2.766c-1.219-0.562-2.484-1.078-3.328-3.234c0.328-0.891,1.219-1.641,1.922-1.922c0.703-0.234,1.266-1.266,1.359-2.156c0.094-0.844,0.844-1.781,1.875-2.484c-0.469,0.094-1.453-0.094-1.922-0.422c-0.422-0.375-1.125-0.281-1.547,0.047c-0.422,0.281-0.938,0.375-1.688,0.281c0.281-0.234,0.797-0.75,0.844-1.219s0.609-0.703,1.688-0.703c1.031,0,1.734-1.219,2.578-1.219c-0.609,0-0.469-1.031-0.141-1.078c-1.5-0.281-1.312-1.5-0.703-1.5c-0.047-0.188-0.234-0.375-0.938-0.609c-0.656-0.234-0.328-0.844,0.188-1.219c-0.469-0.938-0.047-1.641,0.703-2.25c-1.031-0.047,0.094-1.5,0.375-2.297c0.281-0.75,0.422-0.844,0.75-0.375c0.375,0.422,1.219,1.406,2.203,1.688c0.938,0.281,1.5,0.797,1.688,1.594c0.188,0.844,0.562,1.266,1.594,1.641c1.078,0.328,2.531,1.219,2.344,3.234c0.844,0.047,1.453,0.281,1.969,0.703" />
      <path fill="#FFA1A1" stroke="#000000" stroke-width="0.1031" stroke-linecap="round" stroke-linejoin="round" d="M325.875,114.891c0,1.125,0.516,1.828,1.172,2.391c0.703,0.562,1.312,1.031,1.172,1.734c-0.141,0.75,0.141,1.219,0.75,1.688c0.656,0.469,1.125,1.031,0.938,1.969s-0.047,1.5,0.328,2.203s1.031,1.266,0.75,2.391s-0.141,2.625,0.234,3.375c0.328,0.703,0,1.266-0.656,2.531c-0.656,1.219-1.031,1.688-2.391,2.156c-1.406,0.422-1.5,1.266-1.5,2.719c0,1.5-0.984,2.25-2.812,1.969c-1.875,1.547-3.047-0.281-3.516-2.578s-0.562-4.781-3.328-6.797c-2.719-2.062-1.641-5.531,0.656-6.938c2.297-1.359,2.016-5.391,1.734-7.875c-0.234-2.484,1.406-3.891,2.672-5.25C323.766,111.234,325.875,113.812,325.875,114.891z" />
      <path fill="#F1B2DC" stroke="#000000" stroke-width="0.1031" stroke-linecap="round" stroke-linejoin="round" d="M321.891,130.875c-0.516-1.219-1.078-2.438,0.281-5.062c1.406-2.672,0.516-4.688,0.094-6.047c-0.422-1.312-0.516-2.531,0-3.094c0.562-0.516,0.797-0.844,0.844-1.734c0.047-0.844,0.75-0.562,0.844-0.141s0.188,1.125-0.562,2.391c-0.75,1.312,2.109,4.5,0.797,7.922c-0.891,2.391,0.281,5.438,0.75,7.547s0.75,7.172-2.344,7.922C324.703,139.547,322.734,132.844,321.891,130.875z" />
      <path fill="none" stroke="#000000" stroke-width="0.1031" stroke-linecap="round" stroke-linejoin="round" d="M307.969,130.5c0.516,0.094,0.797-0.188,0.938-0.516s0.234-0.516,0.703-0.562c0.469,0,1.219-0.141,1.406-0.516c0.141-0.375,0.703-0.047,1.219-0.984c0.469-0.984,0.797-2.109,2.062-2.531 M317.766,117.234c-0.469,0-1.828,0.047-2.391,1.266 M311.484,111.422c1.125,0.328,0.656,1.078,1.219,1.5c1.031,0.797,0.094,1.641,0.938,1.875s0.797,0.375,0.609,1.312c-0.281,1.078,0.75,1.125,0.375,1.828 M309.75,121.641c0.656-0.609,2.297-1.078,2.672-1.734 M309.703,118.406c0.984-0.047,2.297,0.328,2.484-0.047 M309.562,117.328c0.469,0,1.453-0.328,1.641-0.984 M308.859,115.828c0.562,0,1.266-0.047,1.969-0.562 M308.109,114c0.422-0.328,1.172,0.047,1.875-0.422 M308.812,111.75c0.328,0,1.031-0.094,1.031,0.328" />
    </g>
    <g>
      <path fill="#9E540A" stroke="#000000" stroke-width="0.1031" stroke-linecap="round" stroke-linejoin="round" d="M353.672,120.328c0,0-3.281-2.766-6-4.641s-6-4.172-6-4.641c0.516-0.375,3.281,1.406,7.078,3.703c3.844,2.344,6,4.641,6,4.641L353.672,120.328z M353.438,122.203c0,0-3.188-1.922-6.328-3.281c-3.281-1.359-8.203-1.359-8.719-1.828c0-0.469,5.719-0.75,9.797,0.891c4.172,1.922,6.328,3.281,6.328,3.281L353.438,122.203z M353.391,125.391c0,0-3.469-1.594-6.844-2.344c-3.281-0.75-7.969-0.469-8.531-0.891c0-0.469,5.812-1.406,10.172,0c4.406,1.359,6.281,2.297,6.281,2.297L353.391,125.391z M353.203,128.625c0,0-2.625-1.781-6.094-2.156c-3.281-0.328-7.641,2.156-8.203,1.688c0-0.469,3.797-3.234,8.531-2.766c4.641,0.469,6.844,2.297,6.844,2.297L353.203,128.625z M354.281,118.406c0,0-3.328-3.047-3.328-5.109c0-1.828,2.016-4.641,2.906-4.641c-0.469,0.938-2.016,2.812-2.016,4.641c0,1.875,3.516,4.172,3.516,4.172L354.281,118.406z M358.828,120.328c0,0,3.281-2.766,6-4.641s6-4.172,6-4.641c-0.516-0.375-3.281,1.406-7.078,3.703c-3.844,2.344-6,4.641-6,4.641L358.828,120.328z M359.062,122.203c0,0,3.188-1.922,6.328-3.281c3.281-1.359,8.203-1.359,8.719-1.828c0-0.469-5.719-0.75-9.797,0.891c-4.172,1.922-6.328,3.281-6.328,3.281L359.062,122.203z M359.109,125.391c0,0,3.469-1.594,6.844-2.344c3.281-0.75,7.969-0.469,8.531-0.891c0-0.469-5.812-1.406-10.172,0c-4.406,1.359-6.281,2.297-6.281,2.297L359.109,125.391z M359.297,128.625c0,0,2.625-1.781,6.094-2.156c3.281-0.328,7.641,2.156,8.203,1.688c0-0.469-3.797-3.234-8.531-2.766c-4.641,0.469-6.844,2.297-6.844,2.297L359.297,128.625z M358.219,118.406c0,0,3.328-3.047,3.328-5.109c0-1.828-2.016-4.641-2.906-4.641c0.469,0.938,2.016,2.812,2.016,4.641c0,1.875-3.516,4.172-3.516,4.172L358.219,118.406z M354.281,118.406c0,0,0.656-3.047,0.656-5.109c0-2.766-1.969-5.297-1.781-6c0.703,0.703,2.672,2.766,2.672,6c0,2.812-0.469,4.172-0.469,4.172L354.281,118.406z M358.219,118.406c0,0-0.656-3.047-0.656-5.109c0-2.766,1.969-5.297,1.781-6c-0.703,0.703-2.672,2.766-2.672,6c0,2.812,0.469,4.172,0.469,4.172L358.219,118.406z" />
      <path fill="#9E540A" stroke="#FCD116" stroke-width="0.5625" stroke-linecap="round" stroke-linejoin="round" d="M355.078,117.422c0-0.891-0.328-1.688-0.891-2.297c-0.75-0.891-1.875-1.172-3.047-0.984c-1.406,0.234-2.531,1.078-3.234,2.391c-0.938,1.734-1.031,3.609-1.078,5.438c0,6.328,0.234,8.906,0.422,15.141c0.047,1.828,0.375,5.578-0.469,8.531c-0.328,1.266-0.703,2.438-1.266,3.656c0.375-1.547,0.562-2.344,0.75-3.516c0.516-3.047,0.375-5.906,0.281-8.719c-0.188-5.766-0.516-8.719-0.703-15.703c-0.047-2.109,0.141-3.703,1.125-5.391c1.031-1.734,2.812-3,4.828-3c0.844,0,1.547,0.141,2.25,0.562c1.406,0.75,2.062,2.297,2.062,3.844L355.078,117.422z M357.422,117.422c0-0.891,0.328-1.688,0.891-2.297c0.75-0.891,1.875-1.172,3.047-0.984c1.406,0.234,2.531,1.078,3.234,2.391c0.938,1.734,1.031,3.609,1.078,5.438c0,6.328-0.234,8.906-0.422,15.141c-0.047,1.828-0.375,5.578,0.469,8.531c0.328,1.266,0.703,2.438,1.266,3.656c-0.375-1.547-0.562-2.344-0.75-3.516c-0.516-3.047-0.375-5.906-0.281-8.719c0.188-5.766,0.516-8.719,0.703-15.703c0.047-2.109-0.141-3.703-1.125-5.391c-1.031-1.734-2.812-3-4.828-3c-0.844,0-1.547,0.141-2.25,0.562c-1.406,0.75-2.062,2.297-2.062,3.844L357.422,117.422z" />
      <path fill="#9E540A" d="M355.078,117.422c0-0.891-0.328-1.688-0.891-2.297c-0.75-0.891-1.875-1.172-3.047-0.984c-1.406,0.234-2.531,1.078-3.234,2.391c-0.938,1.734-1.031,3.609-1.078,5.438c0,6.328,0.234,8.906,0.422,15.141c0.047,1.828,0.375,5.578-0.469,8.531c-0.328,1.266-0.703,2.438-1.266,3.656c0.375-1.547,0.562-2.344,0.75-3.516c0.516-3.047,0.375-5.906,0.281-8.719c-0.188-5.766-0.516-8.719-0.703-15.703c-0.047-2.109,0.141-3.703,1.125-5.391c1.031-1.734,2.812-3,4.828-3c0.844,0,1.547,0.141,2.25,0.562c1.406,0.75,2.062,2.297,2.062,3.844L355.078,117.422z M357.422,117.422c0-0.891,0.328-1.688,0.891-2.297c0.75-0.891,1.875-1.172,3.047-0.984c1.406,0.234,2.531,1.078,3.234,2.391c0.938,1.734,1.031,3.609,1.078,5.438c0,6.328-0.234,8.906-0.422,15.141c-0.047,1.828-0.375,5.578,0.469,8.531c0.328,1.266,0.703,2.438,1.266,3.656c-0.375-1.547-0.562-2.344-0.75-3.516c-0.516-3.047-0.375-5.906-0.281-8.719c0.188-5.766,0.516-8.719,0.703-15.703c0.047-2.109-0.141-3.703-1.125-5.391c-1.031-1.734-2.812-3-4.828-3c-0.844,0-1.547,0.141-2.25,0.562c-1.406,0.75-2.062,2.297-2.062,3.844L357.422,117.422z" />
      <path fill="#9E540A" stroke="#000000" stroke-width="0.1031" stroke-linecap="round" stroke-linejoin="round" d="M355.359,140.016c0,0-1.312,2.344-2.297,4.031c-0.985,1.687-1.781,2.062-2.531,1.547c-0.703-0.516-0.094-1.875,0.469-2.531c0.563-0.656,3.703-3.703,3.703-3.703L355.359,140.016z M357.141,140.016c0,0,1.312,2.344,2.297,4.031c0.985,1.687,1.781,2.062,2.531,1.547c0.703-0.516,0.094-1.875-0.469-2.531c-0.563-0.656-3.703-3.703-3.703-3.703L357.141,140.016z" />
      <path fill="#9E540A" stroke="#000000" stroke-width="0.1031" stroke-linecap="round" stroke-linejoin="round" d="M355.688,140.203c0,0-0.516,2.672-0.938,4.594c-0.375,1.922-1.031,2.578-1.828,2.344c-0.844-0.188-0.703-1.734-0.375-2.531s2.297-4.828,2.297-4.828L355.688,140.203z M356.812,140.203c0,0,0.516,2.672,0.938,4.594c0.375,1.922,1.031,2.578,1.828,2.344c0.844-0.188,0.703-1.734,0.375-2.531s-2.297-4.828-2.297-4.828L356.812,140.203z" />
      <path fill="#9E540A" stroke="#000000" stroke-width="0.1031" stroke-linecap="round" stroke-linejoin="round" d="M356.25,140.297c0,0,0,2.719,0,4.688s-0.469,2.766-1.359,2.719c-0.844-0.047-1.031-1.547-0.844-2.438c0.141-0.844,1.312-5.203,1.312-5.203L356.25,140.297z M356.25,140.297c0,0,0,2.719,0,4.688s0.469,2.766,1.359,2.719c0.844-0.047,1.031-1.547,0.844-2.438c-0.141-0.844-1.312-5.203-1.312-5.203L356.25,140.297z" />
      <path fill="#9E540A" stroke="#000000" stroke-width="0.1031" stroke-linecap="round" stroke-linejoin="round" d="M356.25,140.25c-2.484-0.047-2.719-0.938-2.719-0.938s-0.328-1.125-0.375-1.828c-0.047-0.094-0.703-1.5-0.516-2.109c-0.234-0.562-0.797-1.922-0.281-2.156c-0.234-0.656-0.609-1.406-0.656-2.109c-0.188-0.516-0.656-1.641-0.281-2.016c0,0-0.891-1.875-0.469-2.344c0,0-0.422-1.828,0-2.297c0,0,0-1.875,0.469-2.344c0,0,0-1.828,0.422-2.297c0,0.094,1.312-2.578,4.406-2.578l-0.047,3.984h0.047C356.25,121.218,356.25,140.25,356.25,140.25z M356.25,140.25c2.484-0.047,2.719-0.938,2.719-0.938s0.328-1.125,0.375-1.828c0.047-0.094,0.703-1.5,0.516-2.109c0.234-0.562,0.797-1.922,0.281-2.156c0.234-0.656,0.609-1.406,0.656-2.109c0.188-0.516,0.656-1.641,0.281-2.016c0,0,0.891-1.875,0.469-2.344c0,0,0.422-1.828,0-2.297c0,0,0-1.875-0.469-2.344c0,0,0-1.828-0.422-2.297c0,0.094-1.312-2.578-4.406-2.578l0.047,3.984h-0.047C356.25,121.218,356.25,140.25,356.25,140.25z" />
      <path fill="none" stroke="#000000" stroke-width="0.1031" stroke-linecap="round" stroke-linejoin="round" d="M356.25,130.031c-3.984-0.047-4.828-0.938-4.828-0.938 M356.25,127.688c-3.984,0-5.297-0.938-5.297-0.938 M356.25,125.391c-3.984-0.047-5.297-0.938-5.297-0.938 M356.25,123.047c-3.984-0.047-4.828-0.938-4.828-0.938 M356.203,121.219c0.047,0-3,0-3.469-0.469l-0.891-0.891 M356.25,138.375c-1.172,0-2.484-0.188-3.094-0.891 M356.25,136.5c-2.203,0-3.516-0.891-3.516-0.891s-0.047-0.094-0.094-0.234 M356.25,134.203c-2.906-0.047-3.703-0.656-3.891-0.984 M356.25,132.328c-3.984,0-4.406-0.938-4.406-0.938s-0.047-0.094-0.141-0.281 M356.25,130.031c3.984-0.047,4.828-0.938,4.828-0.938 M356.25,127.688c3.984,0,5.297-0.938,5.297-0.938 M356.25,125.391c3.984-0.047,5.297-0.938,5.297-0.938 M356.25,123.047c3.984-0.047,4.828-0.938,4.828-0.938 M356.297,121.219c-0.047,0,3,0,3.469-0.469l0.891-0.891 M356.25,138.375c1.172,0,2.484-0.188,3.094-0.891 M356.25,136.5c2.203,0,3.516-0.891,3.516-0.891s0.047-0.094,0.094-0.234 M356.25,134.203c2.906-0.047,3.703-0.656,3.891-0.984 M356.25,132.328c3.984,0,4.406-0.938,4.406-0.938s0.047-0.094,0.141-0.281" />
    </g>
    <g>
      <path fill="#009E49" stroke="#000000" stroke-width="0.1031" stroke-linecap="round" stroke-linejoin="round" d="M337.5,183.375c-2.016,1.875-5.906,0.656-7.125-0.188c-1.266,0.422-4.641-0.891-5.531-2.344c-2.438,0.328-3.281-3.141-2.859-4.031c0.656-1.312-0.516-2.156,0.328-3.047c1.172-1.125-0.656-2.203,0.469-2.953c1.125-0.797-0.281-2.109,0.844-2.953c1.172-0.891-0.609-2.109,0.609-2.719s-0.141-2.203,0.891-2.812s-0.609-2.156,0.797-2.859c1.359-0.703,0.141-1.922,1.219-2.438c1.172-0.609,0.094-1.875,1.172-2.297c1.219-0.516,0.328-1.875,1.359-2.25c0.891-0.328,0.328-1.172,0.891-1.922h6.938 M337.5,183.375c2.016,1.875,5.906,0.656,7.125-0.188c1.266,0.422,4.641-0.891,5.531-2.344c2.438,0.328,3.281-3.141,2.859-4.031c-0.656-1.312,0.516-2.156-0.328-3.047c-1.172-1.125,0.656-2.203-0.469-2.953c-1.125-0.797,0.281-2.109-0.844-2.953c-1.172-0.891,0.609-2.109-0.609-2.719s0.141-2.203-0.891-2.812s0.609-2.156-0.797-2.859c-1.359-0.703-0.141-1.922-1.219-2.438c-1.172-0.609-0.094-1.875-1.172-2.297c-1.219-0.516-0.328-1.875-1.359-2.25c-0.891-0.328-0.328-1.172-0.891-1.922H337.5" />
      <path fill="none" stroke="#000000" stroke-width="0.1031" stroke-linecap="round" stroke-linejoin="round" d="M332.859,150.844c-0.938,0.938,0.188,1.641-0.75,2.766c-0.984,1.172-0.094,1.781-0.891,2.812s0.375,1.547-0.516,2.719c-0.891,1.125,0.188,1.828-0.797,2.766c-0.938,0.984,0.188,1.828-0.797,2.859c-0.938,1.078,0.188,1.781-0.75,2.719c-0.984,0.984,0.141,2.016-0.797,2.953c-0.938,0.984,0.188,2.203-0.891,3.328c-1.031,1.125,0.188,2.016-0.656,2.859c-0.891,0.891-0.094,1.781-0.703,2.391s-0.703,1.453-0.469,1.828 M334.688,151.172c-0.844,1.172,0.469,1.688-0.328,2.625c-0.797,0.984,0.328,1.312-0.281,2.438s0.469,1.406-0.328,2.531s0.422,2.016-0.422,3.141c-0.891,1.125,0.422,1.734-0.375,2.859c-0.75,1.172,0.375,1.781-0.328,2.625c-0.703,0.891,0.516,1.734-0.375,2.812c-0.844,1.031,0.375,1.828-0.328,2.766c-0.703,0.984,0.281,2.016-0.328,2.812c-0.609,0.75,0.422,1.922-0.469,2.953c-0.844,1.031,0.188,1.734-0.328,2.438s-0.938,1.734-0.422,2.016 M342.141,150.844c0.938,0.938-0.188,1.641,0.75,2.766c0.984,1.172,0.094,1.781,0.891,2.812s-0.375,1.547,0.516,2.719c0.891,1.125-0.188,1.828,0.797,2.766c0.938,0.984-0.188,1.828,0.797,2.859c0.938,1.078-0.188,1.781,0.75,2.719c0.984,0.984-0.141,2.016,0.797,2.953c0.938,0.984-0.188,2.203,0.891,3.328c1.031,1.125-0.188,2.016,0.656,2.859c0.891,0.891,0.094,1.781,0.703,2.391s0.703,1.453,0.469,1.828 M340.312,151.172c0.844,1.172-0.469,1.688,0.328,2.625c0.797,0.984-0.328,1.312,0.281,2.438s-0.469,1.406,0.328,2.531s-0.422,2.016,0.422,3.141c0.891,1.125-0.422,1.734,0.375,2.859c0.75,1.172-0.375,1.781,0.328,2.625c0.703,0.891-0.516,1.734,0.375,2.812c0.844,1.031-0.375,1.828,0.328,2.766c0.703,0.984-0.281,2.016,0.328,2.812c0.609,0.75-0.422,1.922,0.469,2.953c0.844,1.031-0.188,1.734,0.328,2.438s0.938,1.734,0.422,2.016 M337.5,152.25c-0.422,1.828,0.609,3.422,0,4.969c-0.609,1.5,0.422,2.109,0.094,3.328c-0.375,1.219,0.422,2.109-0.094,3.422s0.703,2.344,0,4.078c-0.703,1.688,0.469,2.109,0,3.844c-0.516,1.969,0.891,3,0,4.406s0.797,1.734,0.094,3.328c-0.703,1.547,0.422,2.156-0.094,3.75" />
      <path fill="#FCD116" stroke="#000000" stroke-width="0.1031" stroke-linecap="round" stroke-linejoin="round" d="M338.203,158.156c-0.234,0.516,0.703,1.734,0.188,2.672c-0.562,0.891,0.281,2.297-0.281,3.422s0.891,2.531,0.328,3.844c-0.609,1.312,0.281,2.953,0,4.172c-0.234,1.219,0.609,3.562,0,4.406c-0.609,0.891,0.609,1.125-0.094,3.281s-1.172,0.328-0.75-0.328c0.891-1.453-0.984-1.922-0.094-3.328s-0.516-2.438,0-4.406c0.469-1.734-0.703-2.156,0-3.844c0.703-1.734-0.516-2.766,0-4.078s-0.281-2.203,0.094-3.422c0.328-1.219-0.703-1.828-0.094-3.328C337.969,155.719,338.438,157.641,338.203,158.156z M334.266,159.656c-0.328,0.562,0.562,1.641-0.234,2.719c-0.562,0.75,0.375,1.641-0.422,2.719c-0.516,0.75,0.516,1.688-0.188,2.766c-0.469,0.609,0.328,1.781-0.234,2.672c-0.562,0.938,0.281,1.688-0.703,2.906c-0.562,0.656,0.422,2.297-0.188,2.812s-0.047,2.531-0.469,2.812c-0.375,0.328,0,1.781-1.031,2.109c0.516-0.703-0.516-1.406,0.328-2.438c0.891-1.031-0.141-2.203,0.469-2.953c0.609-0.797-0.375-1.828,0.328-2.812c0.703-0.938-0.516-1.734,0.328-2.766c0.891-1.078-0.328-1.922,0.375-2.812c0.703-0.844-0.422-1.453,0.328-2.625c0.797-1.125-0.516-1.734,0.375-2.859c0.844-1.125-0.375-2.016,0.422-3.141s-0.281-1.406,0.328-2.531C335.203,156.656,334.641,159.094,334.266,159.656z M331.922,156.609c-0.469,0.75,0.188,1.641-0.516,2.578c-0.703,0.984,0,2.203-0.703,3c-0.703,0.75,0.188,2.25-0.703,2.859s-0.328,2.438-1.031,3.047s0,2.344-0.797,3.234s-0.422,2.719-0.891,3.141c-0.422,0.422,0.609,1.312-0.141,1.922c-0.797,0.609-0.797,1.828-1.828,2.625c0.609-0.609-0.188-1.5,0.703-2.391c0.844-0.844-0.375-1.734,0.656-2.859c1.078-1.125-0.047-2.344,0.891-3.328c0.938-0.938-0.188-1.969,0.797-2.953c0.938-0.938-0.188-1.641,0.75-2.719c0.984-1.031-0.141-1.875,0.797-2.859c0.984-0.938-0.094-1.641,0.797-2.766c0.891-1.172-0.281-1.688,0.516-2.719c0.375-0.469,0.375-0.891,0.375-1.266C332.156,153.703,332.156,156.234,331.922,156.609z" />
      <path fill="#CE1126" stroke="#000000" stroke-width="0.1031" stroke-linecap="round" stroke-linejoin="round" d="M330.984,151.641c0-9.844,1.359-13.266,6.516-13.266s6.516,3.422,6.516,13.266H330.984z" />
      <path fill="#000000" stroke="#000000" stroke-width="0.1031" stroke-linecap="round" stroke-linejoin="round" d="M330.984,151.641c0-9.844,1.359-13.266,6.516-13.266c-2.344,0-3.797,1.828-4.172,3.047c-0.422,1.219-0.188,1.125,0.328,0.656s0.281,0.562-0.188,1.125c-0.422,0.562-0.844,2.203-0.234,1.688c0.609-0.562,1.078,0.047,0.422,0.984c-0.656,0.891-1.219,3.047-0.562,2.297s0.797,0.469,0.375,1.078c-0.375,0.609-0.328,1.172,0,0.891c0.375-0.281,0.328,0.984,0,1.5H330.984z M339.938,151.453c0-1.453,0.047-4.875-0.75-6c-0.562-0.891-0.562-1.828,0.094-0.797s0.984,0.516,0.516-0.516c-0.562-1.312-1.312-2.766-1.125-3.047c0.234-0.328,0.375-0.188,0.844,0.516s0.562-0.328,0.047-1.031c-0.516-0.656-0.469-0.797,0.609-0.328c1.922,0.797,2.859,3.094,2.859,10.828L339.938,151.453z" />
      <path fill="#CE1126" stroke="#000000" stroke-width="0.1031" stroke-linecap="round" stroke-linejoin="round" d="M337.5,153.047c-2.062,0-4.312-0.328-5.812-0.938c-1.781-0.703-1.875-1.312-1.266-2.062c0.469-0.562,1.406-0.234,2.344,0.188c0.891,0.375,3.422,0.656,4.734,0.656s3.844-0.281,4.734-0.703c0.938-0.375,1.875-0.703,2.344-0.141c0.609,0.75,0.516,1.359-1.266,2.062C341.812,152.719,339.562,153.047,337.5,153.047z" />
    </g>
  </g>
</svg>
