<svg xmlns="http://www.w3.org/2000/svg" width="450px" height="300px" viewBox="0 0 450 300">
  <path fill="#006600" d="M0,0h450v300H0V0z" />
  <path fill="#FFFFFF" d="M0,0h450v214.286H0V0z" />
  <path fill="#CC0000" d="M0,0h450v85.714H0V0z" />
  <path fill="#F8C300" d="M276.368,181.151c1.279-0.509,2.491-1.173,3.609-1.976c-1.564,15.611-24.965,12.424-26.709-2.755c-7.35,12.904-23.511,9.211-28.244-6.592h-0.047c-4.733,15.803-20.894,19.496-28.244,6.592c-1.743,15.179-25.144,18.366-26.709,2.755c1.118,0.803,2.33,1.466,3.609,1.976c8.686,3.46,18.532-0.776,21.992-9.462c2.653,2.488,6.062,4.017,9.685,4.342c8.958,0.805,16.873-5.805,17.677-14.764V148.4c-0.057-1.849-1.063-3.537-2.662-4.467c-2.558-1.487-5.837-0.62-7.324,1.938c-0.857-2.584-0.857-5.376,0-7.96c2.198-6.627,9.353-10.218,15.98-8.02c6.627,2.198,10.218,9.353,8.02,15.98c-0.93-1.599-2.618-2.605-4.467-2.662c-2.957-0.091-5.428,2.233-5.519,5.19v12.869c0.805,8.958,8.719,15.568,17.677,14.764c3.623-0.325,7.032-1.854,9.685-4.342C257.837,180.375,267.683,184.611,276.368,181.151z M207.36,188.99C207.36,188.99,207.36,188.99,207.36,188.99L207.36,188.99L207.36,188.99z M207.36,188.99c-0.002-0.001-1.654-0.994-5.092-0.549c-0.496-2.222-2.444-4.135-3.84-5.089c-1.331,1.467-2.276,4.178-1.815,6.139c-2.457,0.447-4.751,2.068-4.751,2.068C197.569,197.249,204.095,196.038,207.36,188.99z M232.902,188.192C232.902,188.192,232.902,188.192,232.902,188.192L232.902,188.192L232.902,188.192z M232.902,188.192c-0.002-0.001-1.47-1.25-4.935-1.371c-0.127-2.273-1.738-4.477-2.96-5.646c-1.552,1.23-2.926,3.752-2.79,5.761c-2.497,0.041-5.024,1.267-5.024,1.267C221.897,194.746,228.533,194.614,232.902,188.192z M251.586,183.354c-1.732,0.961-3.498,3.226-3.691,5.23c-2.47-0.366-5.164,0.432-5.164,0.432c3.578,7.222,10.146,8.172,15.503,2.546c-0.002-0.002-1.246-1.473-4.646-2.156C253.832,187.143,252.601,184.706,251.586,183.354z M258.234,191.563C258.234,191.563,258.233,191.563,258.234,191.563L258.234,191.563L258.234,191.563z M183.429,204.714h83.143C239.445,196.639,210.555,196.639,183.429,204.714z M221.108,103.979l-2.406,7.403l6.298-4.576l6.298,4.576l-2.406-7.403l6.298-4.576h-7.784L225,92l-2.406,7.403h-7.784L221.108,103.979z M191.108,112.017l-2.406,7.403l6.298-4.576l6.298,4.576l-2.406-7.403l6.298-4.576h-7.784L195,100.038l-2.406,7.403h-7.784L191.108,112.017z M169.146,133.979l-2.406,7.403l6.298-4.576l6.298,4.576l-2.406-7.403l6.298-4.576h-7.784L173.038,122l-2.406,7.403h-7.784L169.146,133.979z M165,166.807l6.298,4.576l-2.406-7.403l6.298-4.576h-7.784L165,152l-2.406,7.403h-7.784l6.298,4.576l-2.406,7.403L165,166.807z M251.108,112.017l-2.406,7.403l6.298-4.576l6.298,4.576l-2.406-7.403l6.298-4.576h-7.784L255,100.038l-2.406,7.403h-7.784L251.108,112.017z M273.069,133.979l-2.406,7.403l6.298-4.576l6.298,4.576l-2.406-7.403l6.298-4.576h-7.784L276.962,122l-2.406,7.403h-7.784L273.069,133.979z M288.892,163.979l6.298-4.576h-7.784L285,152l-2.406,7.403h-7.784l6.298,4.576l-2.406,7.403l6.298-4.576l6.298,4.576L288.892,163.979z" />
</svg>
