<svg xmlns="http://www.w3.org/2000/svg" width="450px" height="300px" viewBox="0 0 450 300">
  <path fill="#0F204B" d="M0,0h450v300H0V0z" />
  <path fill="#FFB612" d="M377.722,62.31l-9.713-7.057l-9.713,7.057l3.71-11.419l-9.713-7.057h12.006l3.71-11.419l3.71,11.419h12.006l-9.713,7.057L377.722,62.31z M74.987,113.905l-2.212-6.807l-2.212,6.807h-7.158l5.791,4.207l-2.212,6.807l5.791-4.207l5.791,4.207l-2.212-6.807l5.791-4.207H74.987z M128.059,133.608l-2.212-6.807l-2.212,6.807h-7.158l5.791,4.207l-2.212,6.807l5.791-4.207l5.791,4.207l-2.212-6.807l5.791-4.207H128.059z M154.436,161.892l-2.212-6.807l-2.212,6.807h-7.158l5.791,4.207l-2.212,6.807l5.791-4.207l5.791,4.207l-2.212-6.807l5.791-4.207H154.436z M178.919,184.64l-2.212,6.807h-7.158l5.791,4.207l-2.212,6.807l5.791-4.207l5.791,4.207l-2.212-6.807l5.791-4.207h-7.158L178.919,184.64z M260.58,219.731l-2.212-6.807l-2.212,6.807h-7.158l5.791,4.207l-2.212,6.807l5.791-4.207l5.791,4.207l-2.212-6.807l5.791-4.207H260.58z M177.636,233.079l-2.212-6.807l-2.212,6.807h-7.158l5.791,4.207l-2.212,6.807l5.791-4.207l5.791,4.207l-2.212-6.807l5.791-4.207H177.636z M237.381,252.782l-2.212-6.807l-2.212,6.807H225.8l5.791,4.207l-2.212,6.807l5.791-4.207l5.791,4.207l-2.212-6.807l5.791-4.207L237.381,252.782L237.381,252.782z" />
</svg>
