<svg xmlns="http://www.w3.org/2000/svg" width="450px" height="300px" viewBox="0 0 450 300">
  <path fill="#FFFFFF" d="M0,0h450v300H0V0z" />
  <path fill="#0038A8" d="M450,33.3v33.3H166.7V33.3H450z M166.7,133.3H450V100H166.7V133.3z M0,200h450v-33.3H0V200z M0,266.7h450v-33.3H0V266.7z" />
  <path fill="#7B3F00" d="M128.7,96.2c-3.8-1-8.2-2.2-13.6-7.1l31.8-5.8l-33.2-6c9.6-4.1,12.7-8.4,15-11.5c2.4-3.2,3.8-5.2,10.5-5.1h2.4l-2.1-1.1c-7.4-3.8-10.7-1.8-14.9,0.7c-3.4,2-7.4,4.3-14.6,4.6l18.4-26.5l-27.8,19.2c3.8-9.7,3.1-14.9,2.5-18.8c-0.6-4-0.9-6.3,3.8-11l1.7-1.6l-2.2,0.7c-7.9,2.6-8.9,6.3-10.1,11c-1,3.8-2.2,8.2-7.1,13.6l-5.8-31.8l-6,33.2c-4.1-9.5-8.4-12.7-11.5-15c-3.2-2.4-5.1-3.8-5.1-10.5V25l-1.1,2.1c-3.8,7.4-1.8,10.7,0.7,14.9c2,3.4,4.3,7.4,4.6,14.6L38.4,38.4l19.2,27.8c-9.7-3.8-14.9-3.1-18.8-2.5c-4,0.6-6.3,0.9-11-3.8l-1.6-1.7l0.7,2.2c2.6,7.9,6.3,8.9,11,10.1c3.8,1,8.2,2.2,13.6,7.1l-31.8,5.8l33.2,6c-9.5,4.1-12.7,8.4-15,11.5c-2.4,3.2-3.8,5.1-10.5,5.1H25l2.1,1.1c3,1.5,5.3,2.1,7.3,2.1c2.9,0,5.2-1.3,7.7-2.8c3.4-2,7.4-4.3,14.6-4.6l-18.4,26.5l27.8-19.2c-3.8,9.7-3.1,14.9-2.5,18.8c0.6,4,0.9,6.3-3.8,11l-1.7,1.6l2.2-0.7c7.9-2.6,8.9-6.3,10.1-11c1-3.8,2.2-8.2,7.1-13.6l5.8,31.8l6-33.2c4.1,9.6,8.4,12.7,11.5,15c3.2,2.4,5.1,3.8,5.1,10.5v2.4l1.1-2.1c3.8-7.4,1.8-10.7-0.7-14.9c-2-3.4-4.3-7.4-4.6-14.6l26.5,18.4L109,100.7c9.7,3.8,14.9,3.1,18.8,2.5c4-0.6,6.3-0.9,11,3.8l1.6,1.7l-0.7-2.2C137.2,98.4,133.4,97.5,128.7,96.2z" />
  <path fill="#FCD116" d="M67.9,107.7l6.3-4.3c-5.3,9.4-6.4,16.9-7.2,22.5c-0.7,4.4-1.2,7.8-3.4,10.3c2-3.1,1.7-5.5,1.2-8.5c-0.6-3.8-1.3-9.1,2.8-19.1L67.9,107.7z M55.1,89.7L54.3,90c-10,4.2-13.2,8.4-15.5,11.5c-1.8,2.4-3.2,4.3-6.9,5.1c3.3-0.2,6.1-2.2,9.7-4.9c4.5-3.3,10.6-7.9,21-10.8L55.1,89.7z M63.3,74.2l-4.6-6.6l-0.1,0.2l-0.5-0.2c-10-4.1-15.3-3.4-19.1-2.8c-3,0.4-5.4,0.8-8.5-1.2c2.5,2.2,5.9,2.7,10.3,3.4C46.4,67.7,53.9,68.8,63.3,74.2z M75.7,62.7l1.4-7.9l-0.2,0.1l-0.2-0.5c-4.2-10-8.4-13.2-11.5-15.5C62.7,37,60.8,35.6,60,32c0.2,3.3,2.2,6.1,4.9,9.7C68.2,46.2,72.8,52.3,75.7,62.7z M99.1,58.1c4.2-10,3.4-15.3,2.8-19.1c-0.4-3-0.8-5.4,1.2-8.5c-2.2,2.5-2.7,5.9-3.4,10.3c-0.8,5.6-1.9,13.1-7.2,22.5l6.3-4.4L99.1,58.1z M111.5,77l0.8-0.3c10-4.2,13.2-8.4,15.5-11.5c1.8-2.4,3.2-4.3,6.9-5.1c-3.3,0.2-6.1,2.2-9.7,4.9c-4.5,3.3-10.6,7.9-21,10.8L111.5,77z M103.4,92.5l4.4,6.3l0.8,0.3c10,4.2,15.3,3.4,19.1,2.8c3-0.4,5.4-0.8,8.5,1.2c-2.5-2.2-5.9-2.7-10.3-3.4C120.3,98.9,112.8,97.8,103.4,92.5z M91.5,92.3l29.9,29.9L82.8,95.4v42.3l-8.4-46.2l-29.9,29.9l26.7-38.6H28.9l46.2-8.4L45.2,44.5l38.6,26.7V28.9l8.4,46.2l29.9-29.9L95.4,83.9h42.3L91.5,92.3z M91,104l-1.4,7.6l0.3,0.8c4.2,10,8.4,13.2,11.5,15.5c2.4,1.8,4.3,3.2,5.1,6.9c-0.2-3.3-2.2-6.1-4.9-9.7C98.4,120.5,93.9,114.4,91,104z" />
  <path fill="#FCD116" stroke="#7B3F00" stroke-width="1.1" stroke-miterlimit="77" d="M83.3,63.1c11.156,0,20.2,9.044,20.2,20.2s-9.044,20.2-20.2,20.2s-20.2-9.044-20.2-20.2S72.144,63.1,83.3,63.1z" />
  <path fill="#7B3F00" d="M98.2,75.3c-1.3,1.5-2-1.1-6.6-1.1s-5.3,2.8-6.1,2.2s3.8-3.8,5.3-4C92.3,72.2,96.5,73.6,98.2,75.3z M97.1,78.8c-0.8,0-1.5-0.6-2.5-1.2c0.3,0.5,0.4,1.1,0.1,1.6c0.2-0.2,0.5-0.3,0.7-0.5c1.3-0.9-1.8,2.2-3.8,2.2s-4.8-1.1-4.2-1.8c0.7-1.1,1.7,1.1,3.7,1.1c-1.1-0.5-2.4-1.9-2-3.1c-0.6,0.2-1.2,0.7-2.2,1.6v-0.2c0.2-2.2,2-2.6,5-2.6S96,78.2,97.1,78.8z M94.1,77.4c-0.3-0.1-0.7-0.2-1.1-0.3c0.8,0.9,0.4,2.4-0.4,3c0.7-0.1,1.2-0.3,1.8-0.6C94.7,78.7,94.4,77.9,94.1,77.4z M94,93.8c-0.5-0.8-0.6-1-1-1.5c-5.8,2.5-5.1,3.4-9.7,3.4c-4.5,0-3.9-0.9-9.7-3.4c-0.4,0.6-0.5,0.7-1,1.5c0.2-1.3,0.6-1.8,2-2.9c-0.5,0.7-0.8,1-1,1.3c0.2,0,0.5,0.1,0.7,0.1c2,0,4.7-1.4,6-1.4c1.5,0,1.8,0.4,2.9,0.4s1.5-0.4,2.9-0.4c1.2,0,3.9,1.4,6,1.4c0.2,0,0.5-0.1,0.7-0.1c-0.2-0.3-0.5-0.7-1-1.3C93.4,91.9,93.8,92.5,94,93.8z M89.4,93c-1-0.1-2.5-0.3-6-0.3s-5,0.3-6,0.3c1.7,0.6,3.2,1.1,6,1.1C86.2,94.2,87.6,93.6,89.4,93z M81.1,76.4c0.7-0.6-3.8-3.8-5.3-4s-5.7,1.3-7.3,2.9c1.3,1.5,2-1.1,6.6-1.1C79.7,74.2,80.4,76.9,81.1,76.4z M75.1,80.9c-2,0-5.1-3.1-3.8-2.2c0.2,0.2,0.5,0.3,0.7,0.5c-0.3-0.6-0.2-1.2,0.1-1.6c-1,0.5-1.7,1.2-2.5,1.2c1.1-0.5,2.4-2.7,5.3-2.7s4.8,0.4,4.9,2.6v0.2c-1-0.9-1.5-1.4-2.2-1.6c0.4,1.2-0.9,2.6-2,3.1c2,0,2.9-2.2,3.7-1.1C79.8,79.8,77.1,80.9,75.1,80.9z M72.4,79.5c0.5,0.3,1.1,0.5,1.8,0.6c-0.8-0.7-1.3-2.2-0.4-3c-0.4,0.1-0.8,0.2-1.1,0.3C72.2,77.9,72,78.7,72.4,79.5z M79.7,86.3c0.2-1.1,0.7-0.9,0.7-1.7c-1.7,0.4-1.1,2.8-2.6,2.9s-2.2,1.8-2,1.7c0.9-0.7,2.9-1.3,4.4-1.3s1.8,0.9,3.1,0.9s1.7-0.9,3.1-0.9s3.5,0.6,4.4,1.3c0.2,0.2-0.6-1.5-2-1.7s-0.9-2.6-2.6-2.9c0,0.7,0.6,0.6,0.7,1.7c0,0.9-1.7,0.9-2,0c0.4,1.5-0.7,1.5-1.7,1.5s-2,0-1.7-1.5C81.3,87.2,79.7,87.2,79.7,86.3z M83.3,97.3c-0.9,0-3.3,0.6,0,0.6C86.6,97.8,84.2,97.3,83.3,97.3z" />
</svg>
