<svg xmlns="http://www.w3.org/2000/svg" width="450px" height="300px" viewBox="0 0 450 300">
  <path fill="#CF142B" d="M0,0h450v300H0V0z" />
  <path fill="#00247D" d="M0,0h450v200H0V0z" />
  <path fill="#FFCC00" d="M0,0h450v100H0V0z" />
  <path fill="#FFFFFF" d="M253.007,119.628l-8.163,3.981l1.264,8.993l-6.309-6.533l-8.163,3.981l4.264-8.019l-6.309-6.533l8.944,1.577l4.264-8.019l1.264,8.993L253.007,119.628z M273.195,135.606l9.032-0.949l-7.865-4.541l1.888-8.883l-6.749,6.077l-7.865-4.541l3.694,8.297l-6.749,6.077l9.032-0.949l3.694,8.297L273.195,135.606z M295.733,156.576l8.812,2.197l-5.838-6.957l4.812-7.702l0,0h0l0,0l0,0l-8.42,3.402l-5.838-6.957l0.634,9.06l-8.42,3.402l8.812,2.197l0.634,9.06L295.733,156.576z M314.162,180.534l7.157-5.591l-9.076,0.317l-3.106-8.534l-2.503,8.73l-9.076,0.317l7.529,5.078l-2.503,8.73l7.157-5.591l7.529,5.078L314.162,180.534z M143.367,175.456l-2.503-8.73l-3.106,8.534l-9.076-0.317l7.157,5.591l-3.106,8.534l7.529-5.078l7.157,5.591l-2.503-8.73l7.529-5.078L143.367,175.456z M168.525,153.021l-8.42-3.402l0.634-9.06l-5.838,6.957l-8.421-3.402l4.813,7.702l-5.838,6.957l8.812-2.197l4.813,7.702l0.634-9.06L168.525,153.021L168.525,153.021L168.525,153.021L168.525,153.021L168.525,153.021z M184.67,131.065l3.694-8.297l-7.865,4.541l-6.749-6.077l1.888,8.883l-7.865,4.541l9.032,0.949l1.888,8.883l3.694-8.297l9.032,0.949L184.67,131.065z M211.465,117.076l-4.264-8.019l-1.264,8.993l-8.943,1.577l0,0l0,0h0l0,0l8.162,3.981l-1.264,8.993l6.309-6.533l8.163,3.981l-4.264-8.019l6.309-6.533L211.465,117.076z" />
</svg>
