<svg xmlns="http://www.w3.org/2000/svg" height="24px" viewBox="0 -960 960 960" width="24px" fill="currentColor"><path d="M458.62-108.63Q450-117.25 450-130v-50h-50q-12.75 0-21.37-8.63-8.63-8.63-8.63-21.38 0-12.76 8.63-21.37Q387.25-240 400-240h50v-50q0-12.75 8.63-21.38 8.63-8.62 21.38-8.62 12.76 0 21.37 8.62Q510-302.75 510-290v50h50q12.75 0 21.37 8.63 8.63 8.63 8.63 21.38 0 12.76-8.63 21.37Q572.75-180 560-180h-50v50q0 12.75-8.63 21.37-8.63 8.63-21.38 8.63-12.76 0-21.37-8.63ZM140-548.85v-238.84q0-29.83 21.24-51.07Q182.48-860 212.31-860h535.38q29.83 0 51.07 21.24Q820-817.52 820-787.69v238.84H140ZM212.31-180q-29.83 0-51.07-21.24Q140-222.48 140-252.31v-236.54h680v236.54q0 29.83-21.24 51.07Q777.52-180 747.69-180h-42.84q-12.01 0-19.89-8.92-7.88-8.93-7.27-21.08 0-82.04-57.42-139.87-57.42-57.82-140.27-57.82-82.85 0-140.27 57.82-57.42 57.83-57.42 139.87 0 12-7.54 21-7.55 9-19.62 9h-42.84Z"/></svg>