<svg xmlns="http://www.w3.org/2000/svg" width="24" height="24" viewBox="0 0 24 24" fill="currentColor">
  <path d="M11.961,7.15c-.133-1.021.377-2.107.954-2.773.642-.778,1.751-1.332,2.66-1.377.111,1.066-.31,2.108-.931,2.885-.643.755-1.663,1.353-2.683,1.265ZM16.913,12.569c-.022-2.278,1.857-3.362,1.946-3.43-1.061-1.57-2.72-1.747-3.295-1.791-1.481-.088-2.741.841-3.449.841s-1.792-.796-2.963-.775c-1.525.022-2.941.885-3.715,2.257-1.592,2.744-.42,6.814,1.128,9.049.752,1.106,1.658,2.323,2.852,2.279,1.128-.044,1.57-.73,2.941-.73s1.768.73,2.962.708c1.238-.022,2.012-1.106,2.764-2.213.862-1.261,1.216-2.477,1.238-2.544-.022-.022-2.388-.929-2.41-3.65Z"/>
</svg>
