<svg xmlns="http://www.w3.org/2000/svg" height="24px" viewBox="0 -960 960 960" width="24px" fill="currentColor"><path d="M458.62-148.62Q450-157.23 450-170v-237.85L282-239.23q-8.92 8.92-21.19 9.11-12.27.2-21.58-9.11-9.31-9.31-9.31-21.39 0-12.07 9.31-21.38l168.62-168H170q-12.77 0-21.38-8.62Q140-467.23 140-480t8.62-21.38Q157.23-510 170-510h237.85L239.23-678q-8.92-8.92-9.11-21.38-.2-12.47 9.11-21.39 8.92-8.92 21.39-8.73 12.46.19 21.38 9.12l168 168.61V-790q0-12.77 8.62-21.38Q467.23-820 480-820t21.38 8.62Q510-802.77 510-790v238.23l168.38-169q8.93-8.92 21.2-8.73 12.27.19 21.19 9.12 8.92 8.92 8.92 21 0 12.07-8.92 21L551.77-510H790q12.77 0 21.38 8.62Q820-492.77 820-480t-8.62 21.38Q802.77-450 790-450H551.77l169 168.38q8.92 8.93 8.92 21.2t-8.92 21.19q-8.92 9.31-21.39 9.11-12.46-.19-21.38-9.11L510-407.85V-170q0 12.77-8.62 21.38Q492.77-140 480-140t-21.38-8.62Z"/></svg>