<svg xmlns="http://www.w3.org/2000/svg" height="24px" viewBox="0 -960 960 960" width="24px" fill="currentColor"><path d="M230.15-279.54q47.31-35.77 73.58-88.46Q330-420.69 330-480t-26.27-112q-26.27-52.69-73.58-88.46-34.07 43.15-52.11 94.27Q160-535.08 160-480t18.04 106.19q18.04 51.12 52.11 94.27Zm360.39 100.31q53.23-19.23 96.38-56.92-55.46-45.24-86.19-108.81Q570-408.54 570-480t30.73-135.04q30.73-63.57 86.19-108.81-43.15-37.69-96.38-56.92Q537.31-800 480-800q-57.31 0-110.54 19.23-53.23 19.23-96.38 56.92 55.46 45.24 86.19 108.81Q390-551.46 390-480t-30.73 135.04q-30.73 63.57-86.19 108.81 43.15 37.69 96.38 56.92Q422.69-160 480-160q57.31 0 110.54-19.23Zm139.31-100.31q34.07-43.15 52.11-94.27Q800-424.92 800-480t-18.04-106.19q-18.04-51.12-52.11-94.27-47.31 35.77-73.58 88.46Q630-539.31 630-480t26.27 112q26.27 52.69 73.58 88.46ZM480-480ZM331.89-129.96q-69.35-29.96-120.66-81.27-51.31-51.31-81.27-120.66Q100-401.23 100-480q0-78.77 29.96-148.11 29.96-69.35 81.27-120.66 51.31-51.31 120.66-81.27Q401.23-860 480-860q78.77 0 148.11 29.96 69.35 29.96 120.66 81.27 51.31 51.31 81.27 120.66Q860-558.77 860-480q0 78.77-29.96 148.11-29.96 69.35-81.27 120.66-51.31 51.31-120.66 81.27Q558.77-100 480-100q-78.77 0-148.11-29.96Z"/></svg>