<svg xmlns="http://www.w3.org/2000/svg" width="24" height="24" viewBox="0 0 24 24" fill="currentColor">
  <path d="M8.235,6.345c.519,0,.999.04,1.439.16.44.08.799.24,1.119.44.32.2.559.48.719.84.16.36.24.799.24,1.279,0,.559-.12,1.039-.4,1.399-.24.36-.64.679-1.119.919.679.2,1.199.559,1.518,1.039.319.48.519,1.079.519,1.758,0,.559-.12,1.039-.319,1.439s-.519.759-.879.999c-.36.24-.799.44-1.279.559-.48.12-.959.2-1.439.2H3V6.345h5.235ZM7.916,10.821c.44,0,.799-.12,1.079-.319s.4-.559.4-.999c0-.24-.04-.48-.12-.64s-.2-.28-.36-.4c-.16-.08-.319-.16-.519-.2s-.4-.04-.64-.04h-2.318v2.598h2.478ZM8.036,15.536c.24,0,.48-.04.679-.08s.4-.12.559-.24c.16-.12.28-.24.4-.44.08-.2.16-.44.16-.719,0-.559-.16-.959-.48-1.239-.319-.24-.759-.36-1.279-.36h-2.639v3.077h2.598ZM15.748,15.497c.319.319.799.48,1.439.48.44,0,.84-.12,1.159-.319.319-.24.519-.48.6-.719h1.958c-.319.959-.799,1.639-1.439,2.078-.64.4-1.399.64-2.318.64-.64,0-1.199-.12-1.718-.319s-.919-.48-1.279-.879c-.36-.36-.64-.799-.799-1.319-.2-.519-.28-1.079-.28-1.718,0-.6.08-1.159.28-1.678s.48-.959.84-1.359c.36-.36.799-.679,1.279-.879.519-.2,1.039-.319,1.678-.319.679,0,1.279.12,1.799.4s.919.6,1.239,1.079c.319.44.559.959.719,1.518.08.559.12,1.119.08,1.758h-5.794c0,.64.24,1.239.559,1.559h0ZM18.266,11.3c-.28-.28-.719-.44-1.239-.44-.36,0-.64.08-.879.2s-.4.28-.559.44c-.16.16-.24.36-.28.559s-.08.36-.08.519h3.597c-.08-.6-.28-.999-.559-1.279h0ZM14.749,7.104h4.476v1.079h-4.476v-1.079Z"/>
</svg>
