<svg xmlns="http://www.w3.org/2000/svg" height="24px" viewBox="0 -960 960 960" width="24px" fill="currentColor"><path d="M221.89-738.11q-9.97 9.96-9.97 24.65 0 14.69 9.97 24.65 9.96 9.96 24.65 9.96 14.69 0 24.65-9.96 9.96-9.96 9.96-24.65 0-14.69-9.96-24.65-9.96-9.97-24.65-9.97-14.69 0-24.65 9.97Zm174.26 482.72-53.3 127.62q-4.47 11.15-16.12 15.92-11.65 4.77-22.81.31-11.15-4.46-16.11-16.11-4.96-11.66-.5-22.81l47.23-113.23q-103.69-23.39-169.12-105.73Q100-451.77 100-557.69v-155.77q0-60.62 42.96-103.58T246.54-860q18.54 0 35.65 5.58 17.12 5.58 34.04 12.42l174.85 72.23q11.46 4.62 11.15 16.58-.31 11.96-12.15 16.58l-97 36.99v68.85l303.61 198.46H398.08q-36.31 0-62.54-23.77-26.23-23.77-29.31-59.46-1.85-10.92-10.15-18.61-8.31-7.7-19.85-7.7-12.77 0-21.38 8.62-8.62 8.61-8.62 21.38 0 21.93 10.46 45.46 10.46 23.54 23.85 39.08 21.23 26 51.58 40.5 30.34 14.5 65.96 14.5H790l38.85 26.54 24.46 130.85q2.61 13.92-5.97 24.42-8.57 10.5-22.49 10.5h-10.93q-9.07 0-15.92-4.73t-10.69-12.19l-26.93-58.47h-212.3V-130q0 12.77-8.62 21.38-8.61 8.62-21.38 8.62t-21.39-8.62q-8.61-8.61-8.61-21.38v-125.39h-91.93Z"/></svg>
