<svg xmlns="http://www.w3.org/2000/svg" height="24px" viewBox="0 -960 960 960" width="24px" fill="currentColor"><path d="M510-816.15v150h301q17.07 0 26.92 11.34 9.85 11.35 9.85 24.81 0 9.23-4.81 17.77t-14.65 14.15L513.77-430.62q-16.08 8.85-33.77 8.85-17.69 0-33.77-8.85L119.77-604.23q-9.85-5.62-14.15-13.85-4.31-8.23-4.31-18.07 0-9.85 4.31-18.08 4.3-8.23 14.15-13.85l337-180q9.23-4.61 18.88-4.11 9.66.5 16.89 5.11 7.23 4.62 12.34 12.85Q510-826 510-816.15Zm-30 491.69 320.15-169.46q2.39-1.39 16.31-2.69 12 .76 19.65 9 7.66 8.23 7.66 20.23 0 8.3-3.66 14.99-3.65 6.7-11.96 11.16L513.77-274.46q-8.23 4.23-16.58 6.54-8.34 2.3-17.19 2.3-8.85 0-17.19-2.3-8.35-2.31-16.58-6.54l-314-166.77q-8.31-4.46-12.15-11.16-3.85-6.69-3.85-14.99 0-12 7.85-20.23 7.84-8.24 19.84-9 4.23-.77 8.16-.04 3.92.73 8.15 2.73L480-324.46Zm0 156.15 320.15-169.46q2.39-1.38 16.31-2.69 12 .77 19.65 9 7.66 8.23 7.66 20.23 0 8.31-3.66 15-3.65 6.69-11.96 11.15L513.77-118.31q-8.23 4.23-16.58 6.54-8.34 2.31-17.19 2.31-8.85 0-17.19-2.31-8.35-2.31-16.58-6.54l-314-166.77q-8.31-4.46-12.15-11.15-3.85-6.69-3.85-15 0-12 7.85-20.23 7.84-8.23 19.84-9 4.23-.77 8.16-.04 3.92.73 8.15 2.73L480-168.31Z"/></svg>