<svg xmlns="http://www.w3.org/2000/svg" height="24px" viewBox="0 -960 960 960" width="24px" fill="currentColor"><path d="m321.23-590.62 127.85-209.53q5.61-9.23 13.65-13.16 8.04-3.92 17.27-3.92t17.27 3.92q8.04 3.93 13.65 13.16l127.85 209.53q5.61 9.04 5.61 18.98 0 9.95-4.61 18.18-4.62 8.23-12.69 13.15-8.08 4.92-18.85 4.92H351.77q-10.77 0-18.85-4.92-8.07-4.92-12.69-13.06-4.61-8.13-4.61-18.07 0-9.95 5.61-19.18ZM700-95.39q-68.85 0-116.73-47.88-47.88-47.88-47.88-116.73t47.88-116.73q47.88-47.88 116.73-47.88t116.73 47.88q47.88 47.88 47.88 116.73t-47.88 116.73Q768.85-95.39 700-95.39Zm-564.61-56.16v-217q0-15.37 10.39-25.72 10.4-10.34 25.77-10.34h217q15.37 0 25.72 10.39 10.34 10.4 10.34 25.77v217q0 15.37-10.39 25.72-10.4 10.34-25.77 10.34h-217q-15.37 0-25.72-10.39-10.34-10.4-10.34-25.77Zm564.6-3.83q43.93 0 74.28-30.34t30.35-74.27q0-43.93-30.34-74.28t-74.27-30.35q-43.93 0-74.28 30.34t-30.35 74.27q0 43.93 30.34 74.28t74.27 30.35Zm-504.61-20h169.24v-169.24H195.38v169.24Zm198.16-420h172.92L480-734.46l-86.46 139.08Zm86.46 0ZM364.62-344.62ZM700-260Z"/></svg>