<svg xmlns="http://www.w3.org/2000/svg" width="24" height="24" viewBox="0 0 24 24" fill="currentColor">
  <path d="M3.5,5.615c0-.505.175-.933.525-1.283s.778-.525,1.283-.525h13.385c.505,0,.933.175,1.283.525s.525.778.525,1.283v3.385c0,.505-.175.933-.525,1.283-.35.35-.778.525-1.283.525h-1.096c-.21,0-.386-.072-.527-.216-.142-.144-.213-.322-.213-.535s.072-.391.216-.534c.144-.143.322-.215.534-.215h1.087c.077,0,.148-.032.212-.096.064-.064.096-.135.096-.211v-3.385c0-.077-.032-.148-.096-.212-.064-.064-.135-.096-.212-.096H5.308c-.077,0-.148.032-.212.096-.064.064-.096.135-.096.212v3.385c0,.077.034.147.101.211.067.064.136.096.207.096h1.086c.213,0,.391.072.534.216.144.144.216.322.216.535s-.072.391-.216.534c-.144.144-.322.215-.534.215h-1.086c-.505,0-.933-.175-1.283-.525-.35-.35-.525-.778-.525-1.283v-3.385ZM3.5,15c0-.505.175-.933.525-1.283s.778-.525,1.283-.525h1.096c.21,0,.385.072.528.216.142.144.213.322.213.535s-.072.391-.216.534c-.144.143-.322.215-.534.215h-1.086c-.077,0-.147.032-.212.096-.064.064-.096.135-.096.212v3.385c0,.077.032.148.096.212.064.064.134.096.212.096h13.384c.077,0,.148-.032.212-.096.064-.064.096-.135.096-.212v-3.385c0-.077-.032-.147-.096-.212-.064-.064-.135-.096-.212-.096h-1.096c-.21,0-.386-.072-.527-.216-.142-.144-.213-.322-.213-.535s.072-.391.216-.534c.144-.144.322-.215.534-.215h1.087c.505,0,.933.175,1.283.525s.525.778.525,1.283v3.385c0,.505-.175.933-.525,1.283s-.778.525-1.283.525H5.308c-.505,0-.933-.175-1.283-.525s-.525-.778-.525-1.283c0,0,0-3.385,0-3.385ZM11.25,11.25v-1.25c0-.213.072-.391.216-.534.144-.144.322-.216.535-.216s.391.072.534.216c.144.144.215.322.215.534v1.25h1.25c.213,0,.391.072.534.216.144.144.216.322.216.535s-.072.391-.216.534c-.144.144-.322.215-.534.215h-1.25v1.25c0,.213-.072.391-.216.534-.144.144-.322.216-.535.216s-.391-.072-.534-.216c-.144-.144-.215-.322-.215-.534v-1.25h-1.25c-.213,0-.391-.072-.534-.216-.144-.144-.216-.322-.216-.535s.072-.391.216-.534c.144-.144.322-.215.534-.215h1.25Z" />
</svg>