<svg xmlns="http://www.w3.org/2000/svg" height="24px" viewBox="0 -960 960 960" width="24px" fill="currentColor"><path d="M586.15-395.08 484.92-293.85Q474.08-283 460-283q-14.08 0-24.92-10.85L105.85-623.08Q95-633.92 94.62-647q-.39-13.08 10.46-23.92l102.77-102.77q10.84-10.85 24.77-10.85 13.92 0 24.76 10.85l329.16 329.15q10.84 10.85 10.65 24.73-.19 13.89-11.04 24.73ZM460-353.23 526.77-420 232-714.77 165.23-648 460-353.23Zm262.92 238.31L572.46-265.39l42.15-42.15 150.47 150.46q8.3 8.31 8.5 20.89.19 12.57-8.5 21.27-8.7 8.69-21.08 8.69-12.38 0-21.08-8.69Zm-71.53-536.47q-36.77-36.76-36.77-88.61t36.77-88.61q36.76-36.77 88.61-36.77t88.61 36.77q36.77 36.76 36.77 88.61t-36.77 88.61q-36.76 36.77-88.61 36.77t-88.61-36.77Zm134.96-42.26q19.04-19.04 19.04-46.35 0-27.31-19.04-46.35-19.04-19.04-46.35-19.04-27.31 0-46.35 19.04-19.04 19.04-19.04 46.35 0 27.31 19.04 46.35 19.04 19.04 46.35 19.04 27.31 0 46.35-19.04ZM740-740ZM346-534Z"/></svg>