<svg xmlns="http://www.w3.org/2000/svg" height="24px" viewBox="0 -960 960 960" width="24px" fill="currentColor"><path d="M536.62-148.92 299.08-396.46q-4.23-4.23-6.66-10.19-2.42-5.97-2.42-12.81v-19.77q0-13.92 9.58-23.5 9.57-9.58 23.5-9.58H420q56.85 0 100.92-36.42 44.08-36.42 48.62-97.42H280q-12.77 0-21.38-8.62-8.62-8.61-8.62-21.38t8.62-21.39q8.61-8.61 21.38-8.61h281.39q-14.7-41.16-53-67.5Q470.08-760 420-760H280q-12.77 0-21.38-8.62Q250-777.23 250-790t8.62-21.38Q267.23-820 280-820h400q12.77 0 21.38 8.62Q710-802.77 710-790t-8.62 21.38Q692.77-760 680-760H566.15q21.31 17 37.31 41.42 16 24.43 21.62 52.43H680q12.77 0 21.38 8.61 8.62 8.62 8.62 21.39 0 12.77-8.62 21.38-8.61 8.62-21.38 8.62h-49.85q-4.15 85-65.38 139.42-61.23 54.42-144.77 54.42h-52.46L580-191.08q13.77 14.39 5.96 32.73Q578.15-140 558.31-140q-6.08 0-11.66-2.23-5.57-2.23-10.03-6.69Z"/></svg>