<svg xmlns="http://www.w3.org/2000/svg" width="24" height="24" viewBox="0 0 24 24" fill="currentColor">
  <path d="M18.247,6.321c-1.182-.541-2.431-.926-3.713-1.142-.176.314-.334.636-.476.967-1.366-.206-2.755-.206-4.121,0-.141-.33-.3-.653-.476-.967-1.283.219-2.532.604-3.716,1.146-2.35,3.477-2.988,6.868-2.669,10.21h0c1.376,1.017,2.916,1.79,4.554,2.287.369-.496.695-1.022.975-1.573-.533-.199-1.047-.445-1.536-.733.129-.094.255-.19.377-.283,2.883,1.356,6.222,1.356,9.106,0,.123.101.249.197.377.283-.49.29-1.006.535-1.539.735.28.551.607,1.076.975,1.571,1.639-.494,3.18-1.267,4.558-2.285h0c.374-3.877-.638-7.236-2.676-10.214h0ZM9.01,14.478c-.887,0-1.621-.806-1.621-1.796s.708-1.803,1.618-1.803,1.638.813,1.622,1.803-.715,1.796-1.619,1.796h0ZM14.99,14.478c-.889,0-1.619-.806-1.619-1.796s.708-1.803,1.619-1.803,1.634.813,1.618,1.803-.714,1.796-1.618,1.796Z"/>
</svg>
