<svg xmlns="http://www.w3.org/2000/svg" height="24px" viewBox="0 -960 960 960" width="24px" fill="currentColor"><path d="M210-160h540q12.75 0 21.37 8.63 8.63 8.63 8.63 21.38 0 12.76-8.63 21.37Q762.75-100 750-100H210q-12.75 0-21.37-8.63-8.63-8.63-8.63-21.38 0-12.76 8.63-21.37Q197.25-160 210-160Zm253.85-122.08q-7.54-3.61-13.16-10.84L271.92-525.77q-13.46-18.08-3.54-38.27 9.92-20.19 32.47-20.19h71.84v-239.61q0-15.37 10.4-25.76 10.39-10.4 25.76-10.4h141.92q15.36 0 25.76 10.4 10.39 10.39 10.39 25.76v239.61h71.85q22.54 0 32.46 20.19 9.92 20.19-3.54 38.27L508.54-292.92q-5.44 7.23-13.14 10.84-7.7 3.62-15.86 3.62t-15.69-3.62Z"/></svg>