<svg xmlns="http://www.w3.org/2000/svg" width="24" height="24" viewBox="0 0 24 24" fill="currentColor">
  <path d="M12,3C7.028,3,3,7.031,3,11.998c0,4.722,3.642,8.598,8.27,8.969v.033h.73c4.972,0,9-4.031,9-8.998S16.972,3,12,3ZM19.433,10.743c-1.143-.16-2.317-.11-3.466.135-.226-.635-.518-1.243-.858-1.824.945-.545,1.808-1.23,2.55-2.031.906,1.03,1.536,2.308,1.774,3.721ZM16.594,6.025c-.668.723-1.45,1.337-2.306,1.818-.588-.746-1.264-1.422-2.022-1.999l-.019-.014-.019-.013s-.002-.001-.005-.004c-.004-.003-.01-.006-.016-.012-.014-.01-.031-.023-.052-.039-.025-.019-.051-.038-.078-.059-.021-.015-.042-.032-.066-.05-.051-.039-.109-.081-.161-.118-.037-.026-.089-.063-.142-.096-.01-.007-.021-.015-.034-.023-.069-.048-.174-.12-.269-.179-.089-.062-.208-.133-.287-.179-.076-.044-.158-.091-.209-.12-.017-.01-.03-.017-.039-.022-.01-.006-.018-.01-.021-.012h0c-.006-.004-.013-.008-.02-.011-.002-.001-.004-.003-.006-.004-.012-.006-.022-.012-.035-.019-.013-.008-.024-.013-.032-.019l-.006-.004-.019-.012c-.071-.043-.144-.082-.184-.103-.005-.003-.01-.005-.013-.008l-.017-.009-.017-.008c-.034-.016-.085-.041-.142-.068.528-.118,1.077-.181,1.642-.181,1.73,0,3.322.584,4.594,1.565h0ZM8.349,5.403s.004.001.007.003c.124.039.242.076.356.117.042.016.083.031.123.047.185.07.35.132.488.197l.039.02.01.004c.087.041.212.1.325.154.06.029.116.055.162.077,0,0,.001,0,.002,0,.038.021.07.037.1.055.024.015.046.028.057.035.021.012.043.024.061.035.015.008.03.017.042.023.002.001.004.002.006.003.006.003.01.005.012.006h.001c.017.01.037.022.06.035.049.028.113.064.181.104.049.028.094.055.131.078.028.017.043.028.049.031t.001,0l.033.025.035.021c.054.032.108.069.175.116.03.021.064.044.101.069l.025.017.022.012h0s.014.009.048.033c.038.027.083.061.133.098.019.014.039.029.059.045.03.023.062.046.088.066.035.026.077.058.116.084.559.427,1.068.919,1.523,1.457-.483.177-.982.315-1.489.406h0c-1.11.2-2.243.206-3.342.004h-.004c-.872-.156-1.717-.437-2.507-.832.68-1.103,1.636-2.018,2.772-2.648h-.002ZM4.46,11.998c0-.928.168-1.815.475-2.637.913.454,1.887.778,2.891.957,1.279.235,2.589.227,3.864-.003h0c.723-.131,1.428-.341,2.106-.618.303.504.561,1.034.763,1.586-3.032,1.093-5.679,3.552-6.744,6.985-2.022-1.353-3.356-3.657-3.356-6.27h0ZM12,19.537c-1.014,0-1.982-.202-2.866-.566.857-3.084,3.174-5.295,5.829-6.283.458,2.223.126,4.603-.978,6.587-.564.154-1.153.245-1.762.262h-.224ZM15.975,18.407c.7-1.954.834-4.096.397-6.12,1.056-.213,2.13-.236,3.163-.049-.08,2.605-1.482,4.877-3.56,6.169Z"/>
</svg>
