<svg xmlns="http://www.w3.org/2000/svg" height="24px" viewBox="0 -960 960 960" width="24px" fill="currentColor"><path d="M480-240q134 0 227-93.5T800-560q0-34.85-6.73-66.62-6.73-31.77-20.04-60.69-25.46 16.23-54.11 24.85-28.66 8.61-59.12 8.61-55.54 0-103.23-26.81-47.69-26.8-76.77-74.5-28.69 47.7-76.58 74.5-47.88 26.81-103.42 26.81-30.46 0-58.92-8.61-28.46-8.62-53.93-24.46-13.3 29.3-20.23 61.07Q160-594.08 160-560q0 133 93.5 226.5T480-240Zm-84.5-244.5Q410-499 410-520t-14.5-35.5Q381-570 360-570t-35.5 14.5Q310-541 310-520t14.5 35.5Q339-470 360-470t35.5-14.5Zm240 0Q650-499 650-520t-14.5-35.5Q621-570 600-570t-35.5 14.5Q550-541 550-520t14.5 35.5Q579-470 600-470t35.5-14.5ZM109.16-100q-31.54 0-53.23-23.5-21.7-23.5-19.08-55.04l34.84-381.54q7.62-79.77 42.43-149.3 34.8-69.54 89.46-120.73 54.65-51.2 125.54-80.54Q400-940 480-940t150.88 29.35q70.89 29.34 125.54 80.54 54.66 51.19 89.46 120.73 34.81 69.53 42.43 149.3l34.84 381.54q2.62 31.54-19.08 55.04-21.69 23.5-53.23 23.5H109.16Z"/></svg>
