<svg xmlns="http://www.w3.org/2000/svg" height="24px" viewBox="0 -960 960 960" width="24px" fill="currentColor"><path d="M324.5-404.5Q310-419 310-440t14.5-35.5Q339-490 360-490t35.5 14.5Q410-461 410-440t-14.5 35.5Q381-390 360-390t-35.5-14.5Zm240 0Q550-419 550-440t14.5-35.5Q579-490 600-490t35.5 14.5Q650-461 650-440t-14.5 35.5Q621-390 600-390t-35.5-14.5ZM480-160q134 0 227-93t93-227q0-24-3-46.5T786-570q-21 5-42 7.5t-44 2.5q-91 0-172-39T390-708q-32 78-91.5 135.5T160-486v6q0 134 93 227t227 93Zm.07 60q-78.84 0-148.21-29.92t-120.68-81.21q-51.31-51.29-81.25-120.63Q100-401.1 100-479.93q0-78.84 29.92-148.21t81.21-120.68q51.29-51.31 120.63-81.25Q401.1-860 479.93-860q78.84 0 148.21 29.92t120.68 81.21q51.31 51.29 81.25 120.63Q860-558.9 860-480.07q0 78.84-29.92 148.21t-81.21 120.68q-51.29 51.31-120.63 81.25Q558.9-100 480.07-100Zm-72.92-691.15q45.46 83.84 126.12 127.5Q613.92-620 700-620q16.31 0 31.81-1.69t31.42-4.85q-40.08-79.61-116.11-126.54Q571.08-800 480-800q-20.15 0-37.58 2.27-17.42 2.27-35.27 6.58ZM171.23-556.38q56.39-28.23 107.08-82.5Q329-693.15 343.77-769q-65.62 29.77-110.92 85.58-45.31 55.81-61.62 127.04Zm235.92-234.77ZM343.77-769Z"/></svg>