<svg xmlns="http://www.w3.org/2000/svg" height="24px" viewBox="0 -960 960 960" width="24px" fill="currentColor"><path d="M540-136.16v-88.46h120v90q0 14.7-9.96 24.66T625.38-100h-49.22q-15.47 0-25.81-10.35Q540-120.69 540-136.16Zm-240 0V-260H104.16q-21.7 0-31.73-19.08-10.04-19.08 1.8-37.15L194-500h-7.69q-21.08 0-31.62-18.77-10.53-18.77 2.31-36.85L330.08-803q5.61-7.61 13.65-11.54 8.04-3.92 16.27-3.92t16.27 3.92q8.04 3.93 13.65 11.54L563-555.62q12.84 18.08 2.31 36.85Q554.77-500 533.69-500H526l120.38 183.77q11.85 18.07 1.81 37.15T616.46-260H420v125.38q0 14.7-9.96 24.66T385.38-100h-49.22q-15.47 0-25.81-10.35Q300-120.69 300-136.16ZM725.77-260 591.53-464.62H600q21.69 0 32.23-19.38 10.54-19.39-2.31-37.46l-128-182.69L570.08-803q5.61-7.61 13.65-11.54 8.04-3.92 16.27-3.92t16.27 3.92q8.04 3.93 13.65 11.54L803-555.62q12.84 18.08 2.31 36.85Q794.77-500 773.69-500H766l119.77 183.77q11.84 18.07 1.8 37.15Q877.54-260 855.84-260H725.77Z"/></svg>