<svg xmlns="http://www.w3.org/2000/svg" width="24" height="24" viewBox="0 0 24 24" fill="currentColor">
  <path d="M12,3.223c4.973,0,9,4.027,9,9-.001,3.867-2.468,7.302-6.131,8.538-.45.09-.619-.192-.619-.428,0-.304.012-1.272.012-2.475,0-.843-.281-1.383-.607-1.665,2.002-.225,4.107-.99,4.107-4.443,0-.99-.349-1.789-.922-2.418.09-.225.405-1.147-.09-2.385,0,0-.754-.248-2.475.922-.72-.202-1.485-.303-2.25-.303s-1.53.101-2.25.303c-1.721-1.158-2.475-.922-2.475-.922-.495,1.238-.18,2.16-.09,2.385-.573.63-.922,1.44-.922,2.418,0,3.442,2.093,4.219,4.095,4.444-.259.225-.495.619-.574,1.203-.518.237-1.812.619-2.621-.743-.169-.27-.675-.933-1.383-.922-.754.012-.303.428.011.596.382.213.821,1.013.922,1.272.18.506.765,1.474,3.026,1.058,0,.754.012,1.462.012,1.676,0,.237-.169.506-.619.428-3.677-1.224-6.156-4.664-6.154-8.539C3,7.249,7.028,3.222,12,3.222h0Z"/>
</svg>
