<svg xmlns="http://www.w3.org/2000/svg" width="24" height="24" viewBox="0 0 24 24" fill="currentColor">
  <path d="M20.699,10.196l-.025-.064-2.449-6.394c-.049-.125-.138-.232-.252-.304-.234-.145-.533-.129-.75.04-.105.085-.181.2-.217.33l-1.654,5.061h-6.699l-1.654-5.061c-.036-.13-.112-.246-.217-.331-.217-.169-.516-.185-.75-.04-.114.072-.202.178-.252.304l-2.455,6.391-.024.064c-.724,1.893-.109,4.037,1.509,5.257l.008.007.022.016,3.732,2.794,1.846,1.397,1.125.849c.27.205.644.205.915,0l1.125-.849,1.846-1.397,3.754-2.812.01-.007c1.615-1.221,2.228-3.361,1.507-5.252h-.002Z"/>
</svg>
