<svg xmlns="http://www.w3.org/2000/svg" height="24px" viewBox="0 -960 960 960" width="24px" fill="currentColor"><path d="M295.73-415.66Q220-491.31 220-599.93q0-108.61 75.66-184.34Q371.31-860 479.93-860q108.61 0 184.34 75.66Q740-708.69 740-600.07q0 108.61-75.66 184.34Q588.69-340 480.07-340q-108.61 0-184.34-75.66ZM428.5-611.5Q440-623 440-640t-11.5-28.5Q417-680 400-680t-28.5 11.5Q360-657 360-640t11.5 28.5Q383-600 400-600t28.5-11.5Zm160 0Q600-623 600-640t-11.5-28.5Q577-680 560-680t-28.5 11.5Q520-657 520-640t11.5 28.5Q543-600 560-600t28.5-11.5Zm-80-80Q520-703 520-720t-11.5-28.5Q497-760 480-760t-28.5 11.5Q440-737 440-720t11.5 28.5Q463-680 480-680t28.5-11.5ZM450-102.31v-40q0-37.62-26.19-63.81-26.19-26.19-63.81-26.19h-34.61q-12.75 0-21.38-8.63-8.62-8.63-8.62-21.38 0-12.76 8.62-21.37 8.63-8.62 21.38-8.62h309.22q12.75 0 21.38 8.63 8.62 8.63 8.62 21.38 0 12.76-8.62 21.37-8.63 8.62-21.38 8.62H600q-37.62 0-63.81 26.19Q510-179.93 510-142.31v40h-60Z"/></svg>