<svg xmlns="http://www.w3.org/2000/svg" width="24" height="24" viewBox="0 0 24 24" fill="currentColor">
  <path d="M5.972,8.426c-1.123,0-2.151.634-2.656,1.638-.422.84-.422,1.829,0,2.669.505,1.004,1.532,1.638,2.656,1.638.802,0,1.477-.264,1.97-.718.561-.517.885-1.282.885-2.187,0-.202-.018-.405-.052-.604h-2.802v1.144h1.605c-.066.37-.28.696-.592.904-.267.181-.61.284-1.012.284-.775,0-1.433-.523-1.669-1.227-.124-.369-.124-.769,0-1.138.235-.705.893-1.227,1.669-1.227.424-.007.833.153,1.14.445l.849-.847c-.538-.505-1.251-.783-1.989-.775,0,0,0,0,0,0ZM10.848,8.838v5.175h.664v-2.096h1.099c.452,0,.832-.147,1.141-.441.311-.279.485-.68.476-1.098.006-.415-.167-.814-.476-1.092-.305-.295-.716-.457-1.141-.448h-1.763ZM12.668,9.476c.234.004.457.103.617.274.349.34.357.898.017,1.247l-.017.017c-.172.178-.41.275-.658.268h-1.115v-1.806h1.156ZM15.761,10.357c-.631,0-1.108.231-1.43.694l.586.368c.216-.313.51-.469.881-.469.237-.003.466.083.642.242.175.145.276.361.274.589v.151c-.255-.145-.58-.217-.975-.217-.463,0-.832.109-1.109.325-.277.216-.415.508-.415.874-.006.334.139.652.394.867.262.231.589.347.979.347.457,0,.823-.202,1.099-.607h.028v.491h.636v-2.182c0-.457-.142-.817-.426-1.08-.285-.262-.672-.394-1.163-.394ZM17.459,10.473l1.459,3.316-.823,1.785h.686l2.219-5.102h-.724l-1.026,2.543h-.015l-1.054-2.542s-.722,0-.722,0ZM15.849,12.249c.37,0,.66.082.867.247,0,.279-.11.522-.33.73-.198.199-.467.31-.748.31-.187.004-.37-.058-.517-.174-.139-.1-.22-.262-.22-.433,0-.193.09-.352.272-.485.18-.13.405-.195.675-.195,0,0,0,0,0,0Z"/>
</svg>
