<svg xmlns="http://www.w3.org/2000/svg" height="24px" viewBox="0 -960 960 960" width="24px" fill="currentColor"><path d="m220.31-658.15-37.69-37.08q-8.93-8.31-8.81-20.58.11-12.27 8.81-21.57 9.3-9.31 21.38-9.62 12.08-.31 21.38 9l37.08 37.08q8.31 8.31 8.81 20.58.5 12.26-8.81 21.57-8.69 8.69-20.77 9-12.07.31-21.38-8.38ZM450-772.31v-52.3q0-12.77 8.62-21.39 8.61-8.61 21.38-8.61t21.38 8.61q8.62 8.62 8.62 21.39v52.3q0 12.77-8.62 21.39-8.61 8.61-21.38 8.61t-21.38-8.61q-8.62-8.62-8.62-21.39Zm248.77 70.77L735.23-738q8.31-8.31 20.58-8.5 12.27-.19 21.57 9.12 8.7 8.69 8.7 21.07 0 12.39-8.7 21.08l-36.46 36.46q-8.31 8.31-20.58 8.81-12.26.5-21.57-8.19-9.31-9.31-9.31-21.69 0-12.39 9.31-21.7ZM380-172.31v-116.15l-98.92-98.93q-9.85-9.84-15.46-23.19-5.62-13.34-5.62-27.81v-69.3q0-29.92 21.19-51.12Q302.39-580 332.31-580h295.38q29.92 0 51.12 21.19Q700-537.61 700-507.69v69.3q0 14.47-5.62 27.81-5.61 13.35-15.46 23.19L580-288.46v116.15q0 29.92-21.19 51.12Q537.61-100 507.69-100h-55.38q-29.92 0-51.12-21.19Q380-142.39 380-172.31Z"/></svg>