<svg xmlns="http://www.w3.org/2000/svg" height="24px" viewBox="0 0 24 24" width="24px" fill="currentColor"><path d="M19.75,20.5H4.25c-.213,0-.391-.072-.534-.216-.144-.144-.216-.322-.216-.535s.072-.391.216-.534c.144-.144.322-.215.534-.215h15.5c.213,0,.391.072.534.216.144.144.216.322.216.535s-.072.391-.216.534c-.144.144-.322.215-.534.215ZM8.279,16.625c-.256,0-.471-.087-.644-.26-.173-.173-.26-.388-.26-.644v-7.442c0-.256.087-.471.26-.644.173-.173.388-.26.644-.26h7.442c.256,0,.471.087.644.26.173.173.26.388.26.644v7.443c0,.256-.087.471-.26.644-.173.173-.388.26-.644.26,0,0-7.443,0-7.442,0ZM19.75,5H4.25c-.213,0-.391-.072-.534-.216-.144-.144-.216-.322-.216-.535s.072-.391.216-.534c.144-.144.322-.215.534-.215h15.5c.213,0,.391.072.534.216.144.144.216.322.216.535s-.072.391-.216.534c-.144.144-.322.215-.534.215Z"/></svg>
