<svg xmlns="http://www.w3.org/2000/svg" width="24" height="24" viewBox="0 0 24 24" fill="currentColor">
  <path d="M6.964,3c-2.184-.005-3.958,1.762-3.964,3.946v10.09c-.005,2.184,1.762,3.958,3.946,3.964h10.09c2.184.005,3.958-1.762,3.964-3.946V6.964c.005-2.184-1.762-3.958-3.946-3.964H6.964ZM12,6.116c3.649,0,6.607,2.464,6.607,5.503h0c0,3.04-2.958,5.503-6.607,5.503-.633,0-1.262-.077-1.869-.227-.787.521-1.705.882-2.683,1.054.504-.487.895-1.033,1.155-1.616-1.988-.993-3.206-2.781-3.209-4.712,0-3.039,2.957-5.503,6.606-5.503h0"/>
</svg>
