<svg xmlns="http://www.w3.org/2000/svg" height="24px" viewBox="0 -960 960 960" width="24px" fill="currentColor"><path d="M121.46-317.85 253-493.54q5.44-7.23 13.14-10.84Q273.84-508 282-508q8.15 0 15.69 3.62 7.54 3.61 13.16 10.84L429.15-336q6.04 8 14.09 12 8.04 4 18.1 4 25.16 0 36.18-22.5t-3.98-42.5l-62.85-83.31q-7.23-9.97-7.23-21.75t7.23-21.63L533-648.15q5.44-7.23 13.14-10.85 7.7-3.61 15.86-3.61 8.15 0 15.69 3.61 7.54 3.62 13.16 10.85l247.69 330.3q13.46 18.08 3.54 37.96Q832.16-260 809.61-260H150.58q-22.89 0-32.73-19.89-9.85-19.88 3.61-37.96Z"/></svg>