<svg xmlns="http://www.w3.org/2000/svg" height="24px" viewBox="0 -960 960 960" width="24px" fill="currentColor"><path d="M409.04-489.04Q380-518.08 380-560q0-41.92 29.04-70.96Q438.08-660 480-660q41.92 0 70.96 29.04Q580-601.92 580-560q0 41.92-29.04 70.96Q521.92-460 480-460q-41.92 0-70.96-29.04ZM480-140.77 307.23-86.08q-17.69 6.23-32.46-4.81T260-120v-237.08q-38-39.69-59-91.77-21-52.07-21-111.15 0-125.54 87.23-212.77T480-860q125.54 0 212.77 87.23T780-560q0 59.08-21 111.15-21 52.08-59 91.77V-120q0 18.07-14.77 29.11t-32.46 4.81L480-140.77ZM650-390q70-70 70-170t-70-170q-70-70-170-70t-170 70q-70 70-70 170t70 170q70 70 170 70t170-70ZM320-158.62l160-42.92 160 42.92v-148.61q-34.23 22.31-74.92 34.77Q524.38-260 480-260q-44.38 0-85.08-12.46-40.69-12.46-74.92-34.77v148.61Zm160-74.3Z"/></svg>