<svg xmlns="http://www.w3.org/2000/svg" width="24" height="24" viewBox="0 0 24 24" fill="currentColor">
  <path d="M17.524,10.397c.262,0,.472.214.472.473s-.211.473-.472.473h-1.316v.844h1.316c.262,0,.472.212.472.473,0,.258-.211.472-.472.472h-1.789c-.259,0-.47-.214-.47-.472v-3.578c0-.259.211-.473.472-.473h1.789c.26,0,.47.214.47.473,0,.262-.211.473-.472.473h-1.316v.844h1.316ZM14.633,12.659c0,.203-.13.383-.324.447-.048.016-.1.023-.149.023-.158,0-.293-.068-.383-.188l-1.832-2.488v2.205c0,.258-.209.472-.473.472-.259,0-.47-.214-.47-.472v-3.578c0-.202.13-.383.323-.446.045-.017.102-.025.146-.025.146,0,.281.078.371.191l1.846,2.497v-2.217c0-.259.211-.473.473-.473.259,0,.473.214.473.473v3.578ZM10.327,12.659c0,.258-.211.472-.473.472-.259,0-.47-.214-.47-.472v-3.578c0-.259.211-.473.473-.473.259,0,.471.214.471.473,0,0,0,3.578,0,3.578ZM8.477,13.131h-1.79c-.259,0-.473-.214-.473-.472v-3.578c0-.259.214-.473.473-.473.261,0,.473.214.473.473v3.106h1.317c.261,0,.472.212.472.473,0,.258-.212.472-.472.472M21,10.735c0-4.028-4.039-7.307-9-7.307S3,6.707,3,10.735c0,3.608,3.202,6.632,7.526,7.206.293.062.692.193.793.443.09.226.059.575.029.81l-.123.765c-.034.226-.18.89.787.484.968-.404,5.187-3.059,7.077-5.231,1.293-1.417,1.911-2.868,1.911-4.476"/>
</svg>
