<svg xmlns="http://www.w3.org/2000/svg" height="24px" viewBox="0 -960 960 960" width="24px" fill="currentColor"><path d="M630-555.38v-.77.77-127.54 127.54ZM187.85-158.93q-17.69 6.85-32.77-3.92Q140-173.62 140-192.31v-524.61q0-11.85 6.35-21.27 6.34-9.42 17.81-13.65l172.15-58.39q11.84-4.23 23.69-4.23 11.85 0 23.69 4.23L600-734.46l172.15-66.61q17.69-6.85 32.77 3.34Q820-787.54 820-769.23v272.77q0 12.77-8.62 21.38-8.61 8.62-21.38 8.62t-21.38-8.62q-8.62-8.61-8.62-21.38V-732l-130 49.08v107.69q0 12.77-8.62 21.38-8.61 8.62-21.38 8.62t-21.38-8.62q-8.62-8.61-8.62-21.38v-107.69l-180-62.93v471.39q0 17.07-9.54 30.73-9.54 13.65-25 19.88l-167.61 64.92ZM200-228l130-49.85v-468L200-702v474Zm498.81-30.65q24.42-22.89 25.04-63.27.61-36.7-24.43-61.43-25.04-24.73-61.73-24.73t-61.42 24.73q-24.73 24.73-24.73 61.43 0 36.69 24.73 61.42 24.73 24.73 61.42 24.73t61.12-22.88Zm-61.12 82.88q-60.23 0-103.19-42.96t-42.96-103.19q0-60.23 42.96-103.19 42.96-42.97 103.19-42.97t103.19 42.97q42.96 42.96 42.96 103.19 0 22.61-6.07 42.73-6.08 20.11-17.85 37.34l79 79q8.31 8.31 8.5 20.89.19 12.57-8.11 20.88-8.31 8.69-21.08 8.5-12.77-.19-21.08-8.5l-79-79q-17.23 12.16-37.34 18.23-20.12 6.08-43.12 6.08ZM330-745.85v468-468Z"/></svg>