<svg xmlns="http://www.w3.org/2000/svg" width="24" height="24" viewBox="0 0 24 24" fill="currentColor">
  <path d="M12,3.001C6.93,3.001,3,6.714,3,11.73c0,2.624,1.075,4.891,2.827,6.457.147.132.236.316.242.513l.049,1.601c.015.51.543.843,1.011.636l1.786-.789c.152-.067.321-.079.481-.035.821.226,1.695.346,2.605.346,5.07,0,9-3.714,9-8.73S17.07,3.001,12,3.001ZM17.404,9.718l-2.644,4.194c-.42.667-1.321.833-1.952.36l-2.103-1.577c-.193-.145-.458-.144-.651.002l-2.84,2.155c-.379.287-.874-.166-.62-.568l2.644-4.194c.42-.667,1.321-.833,1.952-.36l2.103,1.577c.193.145.458.144.651-.002l2.839-2.155c.379-.287.874.166.62.568h0Z"/>
</svg>
