<svg xmlns="http://www.w3.org/2000/svg" height="24px" viewBox="0 -960 960 960" width="24px" fill="#e3e3e3"><path d="M331.54-100q-29.92 0-51.12-21.19-21.19-21.2-21.19-51.12v-296.92q0-29.92 21.19-51.11 21.2-21.2 51.12-21.2h296.92q29.92 0 51.12 21.2 21.19 21.19 21.19 51.11v296.92q0 29.92-21.19 51.12Q658.38-100 628.46-100H331.54Zm314-545.54q-9.39-9.38-9.39-22.92 0-13.54 9.39-22.92 9.38-9.39 22.92-9.39 13.54 0 22.92 9.39 9.39 9.38 9.39 22.92 0 13.54-9.39 22.92-9.38 9.39-22.92 9.39-13.54 0-22.92-9.39Zm0-159.23q-9.39-9.38-9.39-22.92 0-13.54 9.39-22.92 9.38-9.39 22.92-9.39 13.54 0 22.92 9.39 9.39 9.38 9.39 22.92 0 13.54-9.39 22.92-9.38 9.39-22.92 9.39-13.54 0-22.92-9.39Zm-188.46 0q-9.39-9.38-9.39-22.92 0-13.54 9.39-22.92Q466.46-860 480-860q13.54 0 22.92 9.39 9.39 9.38 9.39 22.92 0 13.54-9.39 22.92-9.38 9.39-22.92 9.39-13.54 0-22.92-9.39Zm-188.46 0q-9.39-9.38-9.39-22.92 0-13.54 9.39-22.92Q278-860 291.54-860q13.54 0 22.92 9.39 9.39 9.38 9.39 22.92 0 13.54-9.39 22.92-9.38 9.39-22.92 9.39-13.54 0-22.92-9.39Zm0 159.23q-9.39-9.38-9.39-22.92 0-13.54 9.39-22.92 9.38-9.39 22.92-9.39 13.54 0 22.92 9.39 9.39 9.38 9.39 22.92 0 13.54-9.39 22.92-9.38 9.39-22.92 9.39-13.54 0-22.92-9.39Z"/></svg>