<svg xmlns="http://www.w3.org/2000/svg" height="24px" viewBox="0 -960 960 960" width="24px" fill="currentColor"><path d="M450-102v-39.23q-125-12.85-210.46-98.31Q154.08-325 141.23-450H102q-12.77 0-21.38-8.62Q72-467.23 72-480t8.62-21.38Q89.23-510 102-510h39.23q12.85-125 98.31-210.46Q325-805.92 450-818.77V-858q0-12.77 8.62-21.38Q467.23-888 480-888t21.38 8.62Q510-870.77 510-858v39.23q125 12.85 210.46 98.31Q805.92-635 818.77-510H858q12.77 0 21.38 8.62Q888-492.77 888-480t-8.62 21.38Q870.77-450 858-450h-39.23q-12.85 125-98.31 210.46Q635-154.08 510-141.23V-102q0 12.77-8.62 21.38Q492.77-72 480-72t-21.38-8.62Q450-89.23 450-102Zm228-180q82-82 82-198t-82-198q-82-82-198-82t-198 82q-82 82-82 198t82 198q82 82 198 82t198-82Zm-296.96-99.04Q340-422.08 340-480q0-57.92 41.04-98.96Q422.08-620 480-620q57.92 0 98.96 41.04Q620-537.92 620-480q0 57.92-41.04 98.96Q537.92-340 480-340q-57.92 0-98.96-41.04Z"/></svg>