<svg xmlns="http://www.w3.org/2000/svg" height="24px" viewBox="0 -960 960 960" width="24px" fill="currentColor"><path d="M212.31-200H560v-163.85q0-15.46 10.35-25.8Q580.69-400 596.15-400H760v-347.69q0-5.39-3.46-8.85t-8.85-3.46H212.31q-5.39 0-8.85 3.46t-3.46 8.85v535.38q0 5.39 3.46 8.85t8.85 3.46Zm0 60q-29.92 0-51.12-21.19Q140-182.39 140-212.31v-535.38q0-29.92 21.19-51.12Q182.39-820 212.31-820h535.38q29.92 0 51.12 21.19Q820-777.61 820-747.69v343.54q0 14.46-5.62 27.8-5.61 13.35-15.46 23.19L606.84-161.08q-9.84 9.85-23.19 15.46-13.34 5.62-27.8 5.62H212.31ZM450-410.77H327.69q-12.77 0-21.38-8.62-8.62-8.61-8.62-21.38t8.62-21.38q8.61-8.62 21.38-8.62H450q12.77 0 21.38 8.62 8.62 8.61 8.62 21.38t-8.62 21.38q-8.61 8.62-21.38 8.62ZM632.31-570H327.69q-12.77 0-21.38-8.62-8.62-8.61-8.62-21.38t8.62-21.38q8.61-8.62 21.38-8.62h304.62q12.77 0 21.38 8.62 8.62 8.61 8.62 21.38t-8.62 21.38q-8.61 8.62-21.38 8.62ZM200-200V-760v560Z"/></svg>