<svg xmlns="http://www.w3.org/2000/svg" height="24px" viewBox="0 -960 960 960" width="24px" fill="currentColor"><path d="M320.35-571.88q-9.96-9.97-9.96-24.66t9.96-24.65q9.96-9.96 24.65-9.96 14.69 0 24.65 9.96 9.97 9.96 9.97 24.65 0 14.69-9.97 24.66-9.96 9.96-24.65 9.96-14.69 0-24.65-9.96Zm270 0q-9.97-9.97-9.97-24.66t9.97-24.65q9.96-9.96 24.65-9.96 14.69 0 24.65 9.96 9.96 9.96 9.96 24.65 0 14.69-9.96 24.66-9.96 9.96-24.65 9.96-14.69 0-24.65-9.96ZM480-100q-125.54 0-212.77-88.19Q180-276.39 180-402.31v-194.23q0-114.69 89.85-189.07Q359.69-860 480-860q117.61 0 208.81 73.42Q780-713.15 780-596.54v401.16q0 14.69-10.35 25.03Q759.31-160 744.61-160H720q-56.15 0-95.77-39.62-39.62-39.61-39.62-95.77v-10.84q0-15-9.42-22.5t-20.58-7.5q-11.15 0-20.57 7.5t-9.42 22.5v10.84q0 50.31 23.5 92.47 23.5 42.15 62.34 68 12.69 8.69 9.16 21.8Q616.08-100 603.77-100H480Zm0-293.46q95.38 0 167.69-56.65Q720-506.77 720-596.54q0-36.54-12.96-68.58-12.96-32.03-36.5-56.8-66.69 3.15-113.62 49.92Q510-625.23 510-557.69q0 12.77-8.62 21.38-8.61 8.62-21.38 8.62t-21.38-8.62q-8.62-8.61-8.62-21.38 0-67.54-47.11-113.89-47.12-46.34-113.81-49.34-23.16 24.77-36.12 56.3Q240-633.08 240-596.54q0 89.77 72.31 146.43 72.31 56.65 167.69 56.65Z"/></svg>