<svg xmlns="http://www.w3.org/2000/svg" height="24px" viewBox="0 -960 960 960" width="24px" fill="currentColor"><path d="M504-465.38ZM524-100H420l14.25-9.36q14.24-9.35 30.98-20.95 16.74-11.6 30.98-20.95l14.25-9.36h27.69q83.7-3.69 154.7-47.07Q763.85-251.08 805-325q-86-8.02-163-43.62-77-35.6-138-96.76-60.62-61-96.81-138Q371-680.38 364-766q-77 43-120.5 118.5T200-484q0 7 .58 15.81.57 8.81 1.73 15.42l-8.92 3.77q-8.93 3.77-19.97 8.04-11.03 4.27-19.96 8.23l-8.92 3.96q-2.38-13.31-3.46-27.42Q140-470.31 140-484q0-112.92 65.23-212.88t173.23-138.27q9.85-3.39 18.08-2.16 8.23 1.24 15.46 6.47 7.23 5.23 10.92 12.76 3.69 7.54 3.46 17.39-.61 83.46 30.27 159.08 30.89 75.61 90.12 134.85Q607-446.54 681-416.96t157.46 29.58q9.85-.23 18.19 4.27 8.35 4.5 12.58 11.73t5.65 15.65q1.43 8.42-2.96 18.27Q827-227.85 735.88-163.92 644.77-100 524-100Zm-284-60h180q25 0 42.5-17.5T480-220q0-25-17-42.5T422-280h-52l-20-48q-14-33-44-52.5T240-400q-50 0-85 34.5T120-280q0 50 35 85t85 35Zm0 60q-74.92-.77-127.46-53.12Q60-205.46 60-280.11q0-74.66 52.54-127.27Q165.08-460 240.04-460q54.19 0 98.74 29.38 44.54 29.37 66.14 79.08l5 11.54h12.31q48.92 1.23 83.35 36.09Q540-269.05 540-220q0 49.92-35.04 84.96Q469.92-100 420-100H240Z"/></svg>
