<svg xmlns="http://www.w3.org/2000/svg" width="24" height="24" viewBox="0 0 24 24" fill="currentColor">
  <path d="M19.544,9.49c.051.277.08.596.08.922,0,.399-.044.788-.127,1.162l.007-.035c-.582,2.973-2.474,4.459-5.674,4.459h-.45c-.167,0-.32.063-.436.166h0c-.123.107-.21.254-.239.421v.004s-.041.19-.041.19l-.553,3.475-.019.151c-.031.172-.12.32-.245.426h0c-.118.104-.273.167-.443.167h-2.522c-.005,0-.011,0-.017,0-.127,0-.239-.058-.313-.15h0c-.061-.077-.097-.175-.097-.281,0-.028.002-.055.007-.082v.003c.06-.375.148-.937.265-1.687s.206-1.312.266-1.687.151-.935.271-1.68c.12-.745.211-1.305.271-1.68.008-.208.178-.374.388-.374.016,0,.031,0,.046.003h-.001,1.315c.085.002.184.004.283.004.739,0,1.459-.078,2.154-.227l-.067.012c1.121-.226,2.097-.736,2.885-1.451l-.005.004c.696-.667,1.231-1.497,1.544-2.428l.013-.043c.136-.371.257-.82.343-1.282l.008-.054c.002-.028.011-.054.025-.076h0c.007-.006.016-.01.026-.01.004,0,.007,0,.01.001.023.009.043.021.06.036.514.385.874.953.982,1.605l.002.015h0ZM17.816,6.658c-.019.856-.187,1.668-.478,2.418l.016-.049c-.466,1.482-1.579,2.637-2.999,3.152l-.034.01c-.754.265-1.625.419-2.531.42h0c0,.007-.301.01-.904.01l-.904-.01c-.033-.004-.072-.006-.111-.006-.558,0-1.017.423-1.074.965v.004c-.014.053-.298,1.828-.854,5.323-.001.056-.048.101-.104.101-.005,0-.011,0-.016-.002h0-2.962c-.268,0-.484-.217-.484-.485,0-.024.001-.047.005-.07v.002L6.711,3.67c.033-.194.133-.361.274-.479h.001c.136-.119.315-.191.511-.191h6.008c.355.014.691.061,1.015.138l-.036-.007c.43.085.805.196,1.165.337l-.046-.016c.676.243,1.237.672,1.635,1.225l.007.01c.357.528.569,1.178.569,1.878,0,.031,0,.063-.002.094v-.004l.004.002Z"/>
</svg>
