<svg xmlns="http://www.w3.org/2000/svg" width="24" height="24" viewBox="0 0 24 24" fill="currentColor">
  <path d="M12.001,3C7.03,3,3,7.03,3,12c0,3.813,2.372,7.072,5.72,8.384-.078-.712-.15-1.807.032-2.584.163-.703,1.056-4.474,1.056-4.474,0,0-.269-.539-.269-1.337,0-1.252.725-2.186,1.628-2.186.768,0,1.139.577,1.139,1.268,0,.772-.492,1.927-.746,2.996-.212.896.449,1.626,1.333,1.626,1.599,0,2.829-1.687,2.829-4.122,0-2.155-1.549-3.662-3.76-3.662-2.561,0-4.064,1.921-4.064,3.906,0,.773.298,1.603.67,2.054.073.089.084.167.062.258-.068.284-.22.896-.25,1.021-.039.165-.131.2-.301.12-1.124-.523-1.827-2.167-1.827-3.487,0-2.839,2.063-5.446,5.947-5.446,3.122,0,5.549,2.225,5.549,5.198,0,3.102-1.956,5.598-4.671,5.598-.912,0-1.769-.474-2.063-1.034,0,0-.451,1.718-.561,2.14-.203.782-.752,1.761-1.119,2.359.842.261,1.737.401,2.665.401,4.971,0,9-4.03,9-9S16.971,3,12.001,3Z"/>
</svg>
