<svg xmlns="http://www.w3.org/2000/svg" height="24px" viewBox="0 -960 960 960" width="24px" fill="currentColor"><path d="M431.54-140q-15.46 0-25.81-10.35-10.34-10.34-10.34-25.81v-76.92L281.08-367.39q-9.85-9.84-15.46-23.19-5.62-13.34-5.62-27.81v-169.3q0-20.15 8.89-37.69 8.88-17.54 28.34-27.39v84.69L85.54-780.16q-8.31-8.3-8.5-20.88-.19-12.58 8.5-21.27t21.07-8.69q12.39 0 21.08 8.69l693.85 693.85q8.31 8.31 8.5 20.88.19 12.58-8.5 21.27t-21.08 8.69q-12.38 0-21.07-8.69L588.61-277.08l-24 24v76.92q0 15.47-10.34 25.81Q543.92-140 528.46-140h-96.92Zm242.92-248.77L346.93-716.3V-790q0-12.77 8.61-21.38 8.62-8.62 21.38-8.62 12.77 0 21.39 8.62 8.61 8.61 8.61 21.38v130h146.16v-130q0-12.77 8.61-21.38 8.62-8.62 21.39-8.62 12.76 0 21.38 8.62 8.61 8.61 8.61 21.38v160l-29.99-30h44.61q29.92 0 51.12 21.19Q700-617.61 700-587.69v146.54q0 12.92-4.85 24.73-4.84 11.81-13.92 20.88l-6.77 6.77Z"/></svg>
