<svg xmlns="http://www.w3.org/2000/svg" height="24px" viewBox="0 -960 960 960" width="24px" fill="currentColor"><path d="M414.62-119.23V-300h-38.46q-15.47 0-25.81-10.35Q340-320.69 340-336.16v-235.38q0-41.92 29.04-70.96 29.04-29.04 70.96-29.04 41.92 0 70.96 29.04Q540-613.46 540-571.54q36 12.31 58 44.15 22 31.85 22 70.47v120.76q0 15.47-10.35 25.81Q599.31-300 583.84-300h-79.23v173.85q0 15.46-10.34 25.8Q483.92-90 468.46-90h-24.61q-12.39 0-20.81-8.42-8.42-8.43-8.42-20.81Zm-26.89-626.96q-21.58-21.58-21.58-52.27 0-30.69 21.58-52.27 21.58-21.58 52.27-21.58 30.69 0 52.27 21.58 21.58 21.58 21.58 52.27 0 30.69-21.58 52.27-21.58 21.57-52.27 21.57-30.69 0-52.27-21.57Z"/></svg>