<svg xmlns="http://www.w3.org/2000/svg" height="24px" viewBox="0 -960 960 960" width="24px" fill="currentColor"><path d="M164.62-172.31v-363.08h-3.85q-25.31 0-43.04-17.73T100-596.15v-86.93q0-25.3 17.73-43.03t43.04-17.73h146.08q-8.46-9.77-11.5-22.08-3.04-12.31-3.04-25.62 0-45 31.34-76.34Q355-899.23 400-899.23q23 0 42.62 9.65 19.61 9.66 35.07 25.81 15.46-16.77 35.08-26.11 19.61-9.35 42.61-9.35 45 0 76.35 31.35 31.35 31.34 31.35 76.34 0 13.31-3.35 25.31-3.35 12-11.19 22.39h150.69q25.31 0 43.04 17.73T860-683.08v86.93q0 25.3-17.73 43.03t-43.04 17.73h-3.85v363.08q0 29.92-21.19 51.12Q753-100 723.08-100H236.92q-29.92 0-51.11-21.19-21.19-21.2-21.19-51.12ZM521.5-825.42q-13.81 13.81-13.81 33.88 0 20.08 13.81 33.89 13.81 13.81 33.88 13.81 20.08 0 33.89-13.81 13.81-13.81 13.81-33.89 0-20.07-13.81-33.88-13.81-13.81-33.89-13.81-20.07 0-33.88 13.81Zm-169.19 33.88q0 20.08 13.8 33.89 13.81 13.81 33.89 13.81t33.89-13.81q13.8-13.81 13.8-33.89 0-20.07-13.8-33.88-13.81-13.81-33.89-13.81t-33.89 13.81q-13.8 13.81-13.8 33.88ZM160-683.85v88.47h290v-88.47H160ZM450-160v-375.39H224.61v363.08q0 5.39 3.47 8.85 3.46 3.46 8.84 3.46H450Zm60 0h213.08q5.38 0 8.84-3.46 3.47-3.46 3.47-8.85v-363.08H510V-160Zm290-435.38v-88.47H510v88.47h290Z"/></svg>