<svg xmlns="http://www.w3.org/2000/svg" height="24px" viewBox="0 -960 960 960" width="24px" fill="currentColor"><path d="M158.89-158.89Q140-177.77 140-204.62q0-26.84 18.89-45.73 18.88-18.88 45.73-18.88 26.84 0 45.73 18.88 18.88 18.89 18.88 45.73 0 26.85-18.88 45.73Q231.46-140 204.62-140q-26.85 0-45.73-18.89ZM735.38-140q-19.46 0-32.34-14.58-12.89-14.57-15.12-34.81-8.69-99.3-50-186.11-41.3-86.81-108.46-153.96-67.15-67.16-153.96-108.46-86.81-41.31-186.11-50-20.24-2.23-34.81-15.12Q140-715.92 140-735.38q0-19.47 13.96-31.93t32.81-10.84q119.15 8.69 222.81 57.5 103.65 48.8 182.96 128.11 79.31 79.31 128.11 182.96 48.81 103.66 57.5 222.81 1.62 18.85-10.84 32.81T735.38-140Zm-230.76 0q-18.85 0-32.04-13.66-13.19-13.65-16.66-32.49-7.46-53.24-30.53-98.39Q402.31-329.69 366-366q-36.31-36.31-81.46-59.39-45.15-23.07-98.39-30.53-18.84-3.47-32.49-16.66Q140-485.77 140-504.62q0-19.46 13.96-32.03 13.96-12.58 32.81-9.73 71.08 8.07 132.85 38.46 61.76 30.38 109.84 78.46 48.08 48.08 78.46 109.84 30.39 61.77 38.46 132.85 2.85 18.85-9.73 32.81Q524.08-140 504.62-140Z"/></svg>