<svg xmlns="http://www.w3.org/2000/svg" height="24px" viewBox="0 -960 960 960" width="24px" fill="currentColor"><path d="M212.31-140Q182-140 161-161q-21-21-21-51.31v-535.38Q140-778 161-799q21-21 51.31-21h429.3q14.47 0 27.81 5.62 13.35 5.61 23.19 15.46l106.31 106.31q9.85 9.84 15.46 23.19 5.62 13.34 5.62 27.81v429.3Q820-182 799-161q-21 21-51.31 21H212.31Zm338.46-158.46Q580-327.69 580-369.23q0-41.54-29.23-70.77-29.23-29.23-70.77-29.23-41.54 0-70.77 29.23Q380-410.77 380-369.23q0 41.54 29.23 70.77 29.23 29.23 70.77 29.23 41.54 0 70.77-29.23ZM291.54-564.62h256.15q15.46 0 25.81-10.34 10.34-10.35 10.34-25.81v-67.69q0-15.46-10.34-25.81-10.35-10.34-25.81-10.34H291.54q-15.46 0-25.81 10.34-10.34 10.35-10.34 25.81v67.69q0 15.46 10.34 25.81 10.35 10.34 25.81 10.34Z"/></svg>