<svg xmlns="http://www.w3.org/2000/svg" height="24px" viewBox="0 -960 960 960" width="24px" fill="#e3e3e3"><path d="M149.39-764.77q-9.39-9.38-9.39-22.92 0-13.54 9.39-22.92 9.38-9.39 22.92-9.39 13.54 0 22.92 9.39 9.39 9.38 9.39 22.92 0 13.54-9.39 22.92-9.38 9.39-22.92 9.39-13.54 0-22.92-9.39Zm153.84 0q-9.38-9.38-9.38-22.92 0-13.54 9.38-22.92 9.39-9.39 22.92-9.39 13.54 0 22.93 9.39 9.38 9.38 9.38 22.92 0 13.54-9.38 22.92-9.39 9.39-22.93 9.39-13.53 0-22.92-9.39Zm153.85 0q-9.39-9.38-9.39-22.92 0-13.54 9.39-22.92Q466.46-820 480-820q13.54 0 22.92 9.39 9.39 9.38 9.39 22.92 0 13.54-9.39 22.92-9.38 9.39-22.92 9.39-13.54 0-22.92-9.39Zm153.84 0q-9.38-9.38-9.38-22.92 0-13.54 9.38-22.92 9.39-9.39 22.93-9.39 13.53 0 22.92 9.39 9.38 9.38 9.38 22.92 0 13.54-9.38 22.92-9.39 9.39-22.92 9.39-13.54 0-22.93-9.39Zm153.85 0q-9.39-9.38-9.39-22.92 0-13.54 9.39-22.92 9.38-9.39 22.92-9.39 13.54 0 22.92 9.39 9.39 9.38 9.39 22.92 0 13.54-9.39 22.92-9.38 9.39-22.92 9.39-13.54 0-22.92-9.39ZM149.39-610.92q-9.39-9.39-9.39-22.93 0-13.53 9.39-22.92 9.38-9.38 22.92-9.38 13.54 0 22.92 9.38 9.39 9.39 9.39 22.92 0 13.54-9.39 22.93-9.38 9.38-22.92 9.38-13.54 0-22.92-9.38Zm615.38 0q-9.39-9.39-9.39-22.93 0-13.53 9.39-22.92 9.38-9.38 22.92-9.38 13.54 0 22.92 9.38 9.39 9.39 9.39 22.92 0 13.54-9.39 22.93-9.38 9.38-22.92 9.38-13.54 0-22.92-9.38ZM149.39-457.08Q140-466.46 140-480q0-13.54 9.39-22.92 9.38-9.39 22.92-9.39 13.54 0 22.92 9.39 9.39 9.38 9.39 22.92 0 13.54-9.39 22.92-9.38 9.39-22.92 9.39-13.54 0-22.92-9.39Zm615.38 0q-9.39-9.38-9.39-22.92 0-13.54 9.39-22.92 9.38-9.39 22.92-9.39 13.54 0 22.92 9.39Q820-493.54 820-480q0 13.54-9.39 22.92-9.38 9.39-22.92 9.39-13.54 0-22.92-9.39ZM149.39-303.23q-9.39-9.39-9.39-22.92 0-13.54 9.39-22.93 9.38-9.38 22.92-9.38 13.54 0 22.92 9.38 9.39 9.39 9.39 22.93 0 13.53-9.39 22.92-9.38 9.38-22.92 9.38-13.54 0-22.92-9.38Zm615.38 0q-9.39-9.39-9.39-22.92 0-13.54 9.39-22.93 9.38-9.38 22.92-9.38 13.54 0 22.92 9.38 9.39 9.39 9.39 22.93 0 13.53-9.39 22.92-9.38 9.38-22.92 9.38-13.54 0-22.92-9.38ZM149.39-149.39q-9.39-9.38-9.39-22.92 0-13.54 9.39-22.92 9.38-9.39 22.92-9.39 13.54 0 22.92 9.39 9.39 9.38 9.39 22.92 0 13.54-9.39 22.92-9.38 9.39-22.92 9.39-13.54 0-22.92-9.39Zm153.84 0q-9.38-9.38-9.38-22.92 0-13.54 9.38-22.92 9.39-9.39 22.92-9.39 13.54 0 22.93 9.39 9.38 9.38 9.38 22.92 0 13.54-9.38 22.92-9.39 9.39-22.93 9.39-13.53 0-22.92-9.39Zm153.85 0q-9.39-9.38-9.39-22.92 0-13.54 9.39-22.92 9.38-9.39 22.92-9.39 13.54 0 22.92 9.39 9.39 9.38 9.39 22.92 0 13.54-9.39 22.92Q493.54-140 480-140q-13.54 0-22.92-9.39Zm153.84 0q-9.38-9.38-9.38-22.92 0-13.54 9.38-22.92 9.39-9.39 22.93-9.39 13.53 0 22.92 9.39 9.38 9.38 9.38 22.92 0 13.54-9.38 22.92-9.39 9.39-22.92 9.39-13.54 0-22.93-9.39Zm153.85 0q-9.39-9.38-9.39-22.92 0-13.54 9.39-22.92 9.38-9.39 22.92-9.39 13.54 0 22.92 9.39 9.39 9.38 9.39 22.92 0 13.54-9.39 22.92-9.38 9.39-22.92 9.39-13.54 0-22.92-9.39Z"/></svg>