<svg xmlns="http://www.w3.org/2000/svg" height="24px" viewBox="0 -960 960 960" width="24px" fill="#e3e3e3"><path d="M149.39-764.77q-9.39-9.38-9.39-22.92 0-13.54 9.39-22.92 9.38-9.39 22.92-9.39 13.54 0 22.92 9.39 9.39 9.38 9.39 22.92 0 13.54-9.39 22.92-9.38 9.39-22.92 9.39-13.54 0-22.92-9.39Zm153.84 0q-9.38-9.38-9.38-22.92 0-13.54 9.38-22.92 9.39-9.39 22.92-9.39 13.54 0 22.93 9.39 9.38 9.38 9.38 22.92 0 13.54-9.38 22.92-9.39 9.39-22.93 9.39-13.53 0-22.92-9.39Zm153.85 0q-9.39-9.38-9.39-22.92 0-13.54 9.39-22.92Q466.46-820 480-820q13.54 0 22.92 9.39 9.39 9.38 9.39 22.92 0 13.54-9.39 22.92-9.38 9.39-22.92 9.39-13.54 0-22.92-9.39Zm153.84 0q-9.38-9.38-9.38-22.92 0-13.54 9.38-22.92 9.39-9.39 22.93-9.39 13.53 0 22.92 9.39 9.38 9.38 9.38 22.92 0 13.54-9.38 22.92-9.39 9.39-22.92 9.39-13.54 0-22.93-9.39Zm153.85 0q-9.39-9.38-9.39-22.92 0-13.54 9.39-22.92 9.38-9.39 22.92-9.39 13.54 0 22.92 9.39 9.39 9.38 9.39 22.92 0 13.54-9.39 22.92-9.38 9.39-22.92 9.39-13.54 0-22.92-9.39ZM149.39-610.92q-9.39-9.39-9.39-22.93 0-13.53 9.39-22.92 9.38-9.38 22.92-9.38 13.54 0 22.92 9.38 9.39 9.39 9.39 22.92 0 13.54-9.39 22.93-9.38 9.38-22.92 9.38-13.54 0-22.92-9.38Zm615.38 0q-9.39-9.39-9.39-22.93 0-13.53 9.39-22.92 9.38-9.38 22.92-9.38 13.54 0 22.92 9.38 9.39 9.39 9.39 22.92 0 13.54-9.39 22.93-9.38 9.38-22.92 9.38-13.54 0-22.92-9.38ZM149.39-457.08Q140-466.46 140-480q0-13.54 9.39-22.92 9.38-9.39 22.92-9.39 13.54 0 22.92 9.39 9.39 9.38 9.39 22.92 0 13.54-9.39 22.92-9.38 9.39-22.92 9.39-13.54 0-22.92-9.39Zm615.38 0q-9.39-9.38-9.39-22.92 0-13.54 9.39-22.92 9.38-9.39 22.92-9.39 13.54 0 22.92 9.39Q820-493.54 820-480q0 13.54-9.39 22.92-9.38 9.39-22.92 9.39-13.54 0-22.92-9.39ZM149.39-303.23q-9.39-9.39-9.39-22.92 0-13.54 9.39-22.93 9.38-9.38 22.92-9.38 13.54 0 22.92 9.38 9.39 9.39 9.39 22.93 0 13.53-9.39 22.92-9.38 9.38-22.92 9.38-13.54 0-22.92-9.38Zm615.38 0q-9.39-9.39-9.39-22.92 0-13.54 9.39-22.93 9.38-9.38 22.92-9.38 13.54 0 22.92 9.38 9.39 9.39 9.39 22.93 0 13.53-9.39 22.92-9.38 9.38-22.92 9.38-13.54 0-22.92-9.38ZM149.39-149.39q-9.39-9.38-9.39-22.92 0-13.54 9.39-22.92 9.38-9.39 22.92-9.39 13.54 0 22.92 9.39 9.39 9.38 9.39 22.92 0 13.54-9.39 22.92-9.38 9.39-22.92 9.39-13.54 0-22.92-9.39Zm153.84 0q-9.38-9.38-9.38-22.92 0-13.54 9.38-22.92 9.39-9.39 22.92-9.39 13.54 0 22.93 9.39 9.38 9.38 9.38 22.92 0 13.54-9.38 22.92-9.39 9.39-22.93 9.39-13.53 0-22.92-9.39Zm153.85 0q-9.39-9.38-9.39-22.92 0-13.54 9.39-22.92 9.38-9.39 22.92-9.39 13.54 0 22.92 9.39 9.39 9.38 9.39 22.92 0 13.54-9.39 22.92Q493.54-140 480-140q-13.54 0-22.92-9.39Zm153.84 0q-9.38-9.38-9.38-22.92 0-13.54 9.38-22.92 9.39-9.39 22.93-9.39 13.53 0 22.92 9.39 9.38 9.38 9.38 22.92 0 13.54-9.38 22.92-9.39 9.39-22.92 9.39-13.54 0-22.93-9.39Zm153.85 0q-9.39-9.38-9.39-22.92 0-13.54 9.39-22.92 9.38-9.39 22.92-9.39 13.54 0 22.92 9.39 9.39 9.38 9.39 22.92 0 13.54-9.39 22.92-9.38 9.39-22.92 9.39-13.54 0-22.92-9.39ZM366.15-293.85q-29.92 0-51.11-21.19-21.19-21.19-21.19-51.11v-227.7q0-29.92 21.19-51.11 21.19-21.19 51.11-21.19h227.7q29.92 0 51.11 21.19 21.19 21.19 21.19 51.11v227.7q0 29.92-21.19 51.11-21.19 21.19-51.11 21.19h-227.7Zm0-60h227.7q5.38 0 8.84-3.46t3.46-8.84v-227.7q0-5.38-3.46-8.84t-8.84-3.46h-227.7q-5.38 0-8.84 3.46t-3.46 8.84v227.7q0 5.38 3.46 8.84t8.84 3.46Z"/></svg>