<svg xmlns="http://www.w3.org/2000/svg" height="24px" viewBox="0 -960 960 960" width="24px" fill="currentColor"><path d="M252.31-100Q222-100 201-121q-21-21-21-51.31v-375.38Q180-578 201-599q21-21 51.31-21h72.31q12.76 0 21.38 8.62 8.61 8.61 8.61 21.38T346-568.62q-8.62 8.62-21.38 8.62h-72.31q-4.62 0-8.46 3.85-3.85 3.84-3.85 8.46v375.38q0 4.62 3.85 8.46 3.84 3.85 8.46 3.85h455.38q4.62 0 8.46-3.85 3.85-3.84 3.85-8.46v-375.38q0-4.62-3.85-8.46-3.84-3.85-8.46-3.85h-72.31q-12.76 0-21.38-8.62-8.61-8.61-8.61-21.38t8.61-21.38q8.62-8.62 21.38-8.62h72.31Q738-620 759-599q21 21 21 51.31v375.38Q780-142 759-121q-21 21-51.31 21H252.31Zm206.31-238.62Q450-347.23 450-360v-411.23l-52.92 52.92q-8.93 8.93-20.89 8.81-11.96-.11-21.27-9.42-8.69-9.31-9-21.08-.3-11.77 9-21.07l99.77-99.77q5.62-5.62 11.85-7.93 6.23-2.3 13.46-2.3t13.46 2.3q6.23 2.31 11.85 7.93l99.77 99.77q8.3 8.3 8.5 20.57.19 12.27-8.5 21.58-9.31 9.31-21.39 9.31-12.07 0-21.38-9.31L510-771.23V-360q0 12.77-8.62 21.38Q492.77-330 480-330t-21.38-8.62Z"/></svg>