<svg xmlns="http://www.w3.org/2000/svg" height="24px" viewBox="0 -960 960 960" width="24px" fill="currentColor"><path d="M83.15-262.62q-12.38-2.23-19.26-12.46-6.89-10.23-4.66-22 2.62-12.77 12.66-19.65 10.03-6.88 22.8-4.65l192.39 36.23q12.77 2.61 19.96 13.77 7.19 11.15 3.34 23.92-3.84 11.15-13.26 17.54-9.43 6.38-21.2 4.15L83.15-262.62Zm2.16-160.77q-12.15-3.84-18.04-14.38-5.88-10.54-2.04-22.69 3.85-12.39 13.89-18.46 10.03-6.08 21.8-2.23l226.23 61.46q12.16 3.84 18.54 14.38 6.39 10.54 2.54 22.69-3.85 11.77-14.69 18.16-10.85 6.38-22.62 2.54L85.31-423.39Zm34.31 332.77q-12.77-1.23-21.08-10.65-8.31-9.42-6.69-22.19 1.61-12.39 11.04-20.39 9.42-8 21.8-6.77L461.62-120q31.69 3.38 57.61-14.65 25.92-18.04 34.69-48.74l49.85-180.38q2.38-7.54 2.08-15.69-.31-8.16-4.08-15.69l-69.62-145.77-3.77 79.15q-1 20.08-17.77 30.42-16.76 10.35-34.46.5l-275-142.92q-11.15-5.69-14.99-17.85-3.85-12.15 2.23-22.69 6.07-11.15 18.03-14.8 11.97-3.66 22.5 2.03l240.93 125.47 3.38-82.31q1-14.16 7.27-25.27 6.27-11.12 16.19-18.58 9.93-7.69 21.96-10.34 12.04-2.66 25.58 1.8 5.69 2.23 9.96 6 4.27 3.77 6.89 9.46l95.84 202.77q8 17.08 8.81 35.35.81 18.27-4.19 35.96l-49.85 180q-14.46 51.38-58.31 81.88-43.84 30.5-97.23 24.89L119.62-90.62Zm174.77-646.53q9.92-7.93 21.69-6.5 11.77 1.42 20.07 10.96l81.54 98.54q-3.46 5.69-5.5 12-2.04 6.3-3.27 12.61L323.62-654l-34.08-40.38q-8.31-9.93-7-22 1.31-12.08 11.85-20.77Zm108.92-121.54q10.54-7.31 22.5-5.27t19.27 12.58L546.38-705q-16.61-3.46-33.42-.19-16.81 3.27-32.19 10.81l-85.15-123.16q-7.31-10.54-5.08-22.31 2.23-11.76 12.77-18.84Zm193.46-38.08q11.77-5.07 23.11-.31 11.35 4.77 16.43 15.93l104.07 250.92 55.24-61.62q8.69-9.69 20.61-14.73 11.92-5.03 25.46-4.03 11.31 1.61 21.42 5.76 10.12 4.16 16.97 10.85 6.84 6.69 10.26 15.39 3.43 8.69.2 17.99l-60.23 214.77q-5.23 18.08-15.89 32.85-10.65 14.77-26.11 24.61l-57.54 38.62q3.08-17.23 2.46-35.08-.62-17.84-6.31-35.07l27.16-17.54q7.15-4.77 11.8-11.23 4.66-6.46 6.66-15L817-624.62l-96.08 105.46-140.15-338.69q-4.46-11.15.19-22.61 4.66-11.46 15.81-16.31ZM443-310.31Zm277.92-208.85Z"/></svg>