<svg xmlns="http://www.w3.org/2000/svg" height="24px" viewBox="0 -960 960 960" width="24px" fill="currentColor"><path d="M230.65-220.65q-12.19-12.2-12.19-29.35 0-17.15 12.19-29.35 12.2-12.19 29.35-12.19 17.15 0 29.35 12.19 12.19 12.2 12.19 29.35 0 17.15-12.19 29.35-12.2 12.19-29.35 12.19-17.15 0-29.35-12.19Zm120 120q-12.19-12.2-12.19-29.35 0-17.15 12.19-29.35 12.2-12.19 29.35-12.19 17.15 0 29.35 12.19 12.19 12.2 12.19 29.35 0 17.15-12.19 29.35-12.2 12.19-29.35 12.19-17.15 0-29.35-12.19Zm120-120q-12.19-12.2-12.19-29.35 0-17.15 12.19-29.35 12.2-12.19 29.35-12.19 17.15 0 29.35 12.19 12.19 12.2 12.19 29.35 0 17.15-12.19 29.35-12.2 12.19-29.35 12.19-17.15 0-29.35-12.19Zm240 0q-12.19-12.2-12.19-29.35 0-17.15 12.19-29.35 12.2-12.19 29.35-12.19 17.15 0 29.35 12.19 12.19 12.2 12.19 29.35 0 17.15-12.19 29.35-12.2 12.19-29.35 12.19-17.15 0-29.35-12.19Zm-120 120q-12.19-12.2-12.19-29.35 0-17.15 12.19-29.35 12.2-12.19 29.35-12.19 17.15 0 29.35 12.19 12.19 12.2 12.19 29.35 0 17.15-12.19 29.35-12.2 12.19-29.35 12.19-17.15 0-29.35-12.19ZM300-370q-87.15 0-148.58-61.42Q90-492.85 90-580q0-80.31 53.65-139.61 53.66-59.31 133.5-69.16 30.85-56.61 84.43-88.92Q415.15-910 480-910q88.08 0 152.27 57.31 64.19 57.31 76.27 142.92 71.31 5.23 116.38 54.12Q870-606.77 870-540q0 70.77-49.62 120.38Q770.77-370 700-370H300Zm0-60h400q45.85 0 77.92-32.08Q810-494.15 810-540t-32.08-77.92Q745.85-650 700-650h-50v-30q0-70.23-49.88-120.12Q550.23-850 480-850q-51.08 0-93.08 27.73t-63.15 74.42L316.46-730H298q-61.23 2-104.62 45.38Q150-641.23 150-580q0 62.23 43.88 106.12Q237.77-430 300-430Zm180-110Z"/></svg>
