<svg xmlns="http://www.w3.org/2000/svg" width="24" height="24" viewBox="0 0 24 24" fill="currentColor">
  <path d="M20.999,13.625c-.039,1.349-1.208,2.38-2.55,2.38h-6.135c-.281-.002-.508-.231-.507-.512v-6.601c-.012-.234.124-.451.339-.543,0,0,.563-.385,1.75-.385.729-.003,1.446.193,2.072.566.987.577,1.686,1.542,1.927,2.659.211-.061.431-.092.651-.091.663,0,1.298.269,1.76.745s.712,1.119.691,1.781h0ZM10.843,9.114c-.11,0-.199.089-.199.199-.166,2.218-.297,4.3,0,6.512,0,.11.089.199.199.199s.199-.089.199-.199c.32-2.234.185-4.274,0-6.512,0-.11-.089-.199-.199-.199ZM9.803,10.083c0-.115-.093-.208-.208-.208s-.208.093-.208.208c-.193,1.979-.249,3.773,0,5.749.015.103.102.18.206.18s.192-.077.206-.18c.281-2.004.218-3.752.004-5.749h0ZM8.358,9.691c-.11,0-.2.089-.2.2-.193,2.024-.285,3.916,0,5.936,0,.11.089.2.2.2s.2-.089.2-.2c.293-2.053.202-3.889,0-5.936,0-.11-.089-.2-.2-.2ZM7.323,10.469c0-.114-.092-.206-.206-.206s-.206.093-.206.206c-.23,1.782-.23,3.585,0,5.367.01.105.098.185.203.185s.193-.08.203-.185c.248-1.78.249-3.586.006-5.367h.001ZM6.068,11.797c-.01-.105-.098-.185-.203-.185s-.193.08-.203.185c-.299,1.382-.158,2.652,0,4.047,0,.107.086.193.193.193s.193-.087.193-.193c.193-1.419.338-2.646.021-4.047h-.001ZM4.827,11.592c-.014-.105-.104-.183-.21-.183s-.196.078-.21.183c-.253,1.405-.175,2.654.008,4.065.02.212.386.21.405,0,.202-1.43.299-2.64.008-4.065h-.001ZM3.577,12.276c-.01-.109-.102-.192-.211-.192s-.2.083-.211.192c-.249.946-.164,1.734.017,2.683,0,.107.086.193.193.193s.193-.087.193-.193c.212-.961.319-1.73.019-2.683h0Z"/>
</svg>
