<svg xmlns="http://www.w3.org/2000/svg" width="24" height="24" viewBox="0 0 24 24" fill="currentColor">
  <path d="M12,3C7.05,3,3,7.05,3,12s4.05,9,9,9,9-4.05,9-9S16.995,3,12,3ZM16.141,16.005c-.18.269-.495.36-.766.18-2.115-1.305-4.77-1.576-7.921-.856-.314.091-.584-.134-.674-.404-.09-.316.135-.585.405-.675,3.42-.766,6.39-.45,8.73.99.315.135.359.494.226.765ZM17.221,13.53c-.226.315-.631.45-.946.225-2.429-1.485-6.119-1.935-8.954-1.035-.359.09-.765-.09-.855-.45-.09-.36.09-.766.45-.856,3.285-.989,7.335-.493,10.125,1.216.271.136.405.585.181.9ZM17.311,11.01c-2.881-1.71-7.696-1.89-10.441-1.034-.45.134-.9-.136-1.035-.541-.135-.451.135-.9.54-1.036,3.195-.945,8.46-.765,11.791,1.216.404.225.539.765.314,1.17-.224.316-.765.449-1.169.225Z"/>
</svg>
