<svg xmlns="http://www.w3.org/2000/svg" height="24px" viewBox="0 -960 960 960" width="24px" fill="currentColor"><path d="m315-690.15 108.15-141.93q10.85-14.46 25.62-21.19Q463.54-860 480-860t31.23 6.73q14.77 6.73 25.62 21.19L645-690.15l165.38 55.84q23.7 7.62 36.96 26.81 13.27 19.19 13.27 42.5 0 10.85-3.11 21.5-3.12 10.65-10.35 20.5L739.46-373.54l4 158.62q1 31.53-20.88 53.23Q700.69-140 671.77-140q-.85 0-20.08-2.62L480-191.85l-171.69 49.23q-5 2-10.23 2.31-5.23.31-9.85.31-29.31 0-51-21.69-21.69-21.7-20.69-53.23l4-159.62L113.46-523q-7.23-9.85-10.34-20.5Q100-554.15 100-565q0-22.69 13.16-42.08 13.15-19.38 36.84-27.61l165-55.46Zm37.08 51.69-182.85 60.92q-5.77 1.92-7.88 7.89-2.12 5.96 1.73 10.96l117.84 166.31-4.38 178.69q-.39 6.54 4.61 10.38 5 3.85 11.16 1.93L480-254.08l187.69 53.7q6.16 1.92 11.16-1.93 5-3.84 4.61-10.38l-4.38-179.69 117.84-164.31q3.85-5 1.73-10.96-2.11-5.97-7.88-7.89l-182.85-62.92-118.3-156.15q-3.47-5.01-9.62-5.01-6.15 0-9.62 5.01l-118.3 156.15ZM480-499.62Z"/></svg>