<svg xmlns="http://www.w3.org/2000/svg" width="24" height="24" viewBox="0 0 24 24" fill="currentColor">
  <path d="M12,3C7.029,3,3,7.029,3,12s4.029,9,9,9,9-4.029,9-9S16.971,3,12,3ZM16.172,9.121c-.136,1.423-.721,4.877-1.02,6.47-.126.674-.375.901-.615.922-.523.048-.919-.345-1.426-.677-.792-.519-1.239-.843-2.008-1.349-.888-.586-.312-.908.194-1.434.132-.138,2.435-2.232,2.48-2.422.006-.024.011-.113-.042-.159s-.13-.031-.186-.018c-.08.018-1.345.854-3.796,2.509-.359.247-.685.367-.976.361-.321-.007-.939-.182-1.399-.331-.564-.183-1.012-.28-.973-.591.021-.162.244-.328.67-.497,2.624-1.143,4.373-1.896,5.248-2.261,2.499-1.039,3.019-1.22,3.357-1.226.075-.001.241.017.349.105.091.074.116.174.128.244.012.07.027.23.015.354h0Z"/>
</svg>
