<svg xmlns="http://www.w3.org/2000/svg" width="24" height="24" viewBox="0 0 24 24" fill="currentColor">
  <path d="M17.505,6.608c-.969-.632-1.67-1.644-1.888-2.823-.047-.255-.073-.517-.073-.785h-3.095l-.005,12.403c-.052,1.389-1.195,2.503-2.597,2.503-.435,0-.845-.109-1.207-.299-.828-.436-1.394-1.304-1.394-2.303,0-1.434,1.167-2.602,2.601-2.602.268,0,.525.044.768.12v-3.159c-.251-.034-.507-.056-.768-.056-3.141,0-5.696,2.556-5.696,5.696,0,1.927.963,3.632,2.432,4.664.925.649,2.051,1.033,3.265,1.033,3.141,0,5.696-2.556,5.696-5.696v-6.289c1.214.871,2.701,1.385,4.306,1.385v-3.095c-.865,0-1.67-.257-2.345-.698h0Z"/>
</svg>
