<svg xmlns="http://www.w3.org/2000/svg" height="24px" viewBox="0 -960 960 960" width="24px" fill="currentColor"><path d="M172.31-250q-29.92 0-51.12-21.19Q100-292.39 100-322.31v-465.38q0-29.92 21.19-51.12Q142.39-860 172.31-860h615.38q29.92 0 51.12 21.19Q860-817.61 860-787.69v465.38q0 29.92-21.19 51.12Q817.61-250 787.69-250H579.31l-69.39 104.23q-5.61 8.23-13.15 12.35-7.54 4.11-16.77 4.11t-16.77-4.11q-7.54-4.12-13.15-12.35L380.69-250H172.31ZM480-208.23 547.08-310h240.61q5.39 0 8.85-3.46t3.46-8.85v-465.38q0-5.39-3.46-8.85t-8.85-3.46H172.31q-5.39 0-8.85 3.46t-3.46 8.85v465.38q0 5.39 3.46 8.85t8.85 3.46h240.61L480-208.23ZM480-555Z"/></svg>