<svg xmlns="http://www.w3.org/2000/svg" height="24px" viewBox="0 -960 960 960" width="24px" fill="currentColor"><path d="M372.31-120h215.38q5.39 0 8.85-3.46t3.46-8.85v-215.77q-23.08 22.46-53.96 35.27Q515.15-300 480-300q-35.15 0-66.04-12.81-30.88-12.81-53.96-35.27v215.77q0 5.39 3.46 8.85t8.85 3.46ZM565-395q35-35 35-85t-35-85q-35-35-85-35t-85 35q-35 35-35 85t35 85q35 35 85 35t85-35ZM360-611.92q23.08-22.46 53.96-35.27Q444.85-660 480-660q35.15 0 66.04 12.81 30.88 12.81 53.96 35.27v-215.77q0-5.39-3.46-8.85t-8.85-3.46H372.31q-5.39 0-8.85 3.46t-3.46 8.85v215.77ZM372.31-60Q342-60 321-81q-21-21-21-51.31v-695.38Q300-858 321-879q21-21 51.31-21h215.38Q618-900 639-879q21 21 21 51.31v695.38Q660-102 639-81q-21 21-51.31 21H372.31Zm68.65-380.96Q425-456.92 425-480t15.96-39.04Q456.92-535 480-535t39.04 15.96Q535-503.08 535-480t-15.96 39.04Q503.08-425 480-425t-39.04-15.96Zm63.69-294.39q9.96-9.96 9.96-24.65 0-14.69-9.96-24.65-9.96-9.96-24.65-9.96-14.69 0-24.65 9.96-9.96 9.96-9.96 24.65 0 14.69 9.96 24.65 9.96 9.96 24.65 9.96 14.69 0 24.65-9.96ZM480-300Zm0-360Z"/></svg>