<svg xmlns="http://www.w3.org/2000/svg" height="24px" viewBox="0 -960 960 960" width="24px" fill="currentColor"><path d="M210-760q-12.77 0-21.38-8.62Q180-777.23 180-790t8.62-21.38Q197.23-820 210-820h540q12.77 0 21.38 8.62Q780-802.77 780-790t-8.62 21.38Q762.77-760 750-760H210Zm248.62 611.38Q450-157.23 450-170v-381.85l-92.92 92.93q-8.7 8.69-21.08 8.69-12.38 0-21.08-8.69-8.69-8.7-8.5-21.27.2-12.58 8.5-20.89l139.77-139.77q5.62-5.61 11.85-7.92 6.23-2.31 13.46-2.31t13.46 2.31q6.23 2.31 11.85 7.92l139.77 139.77q8.69 8.7 8.69 21.08 0 12.38-8.69 21.08-8.7 8.69-21.27 8.5-12.58-.2-20.89-8.5L510-551.85V-170q0 12.77-8.62 21.38Q492.77-140 480-140t-21.38-8.62Z"/></svg>
