<svg xmlns="http://www.w3.org/2000/svg" height="24px" viewBox="0 -960 960 960" width="24px" fill="currentColor"><path d="M210-140q-12.77 0-21.38-8.62Q180-157.23 180-170t8.62-21.38Q197.23-200 210-200h540q12.77 0 21.38 8.62Q780-182.77 780-170t-8.62 21.38Q762.77-140 750-140H210Zm256.54-171.23q-6.23-2.31-11.85-7.92L314.92-458.92q-8.3-8.31-8.5-20.89-.19-12.57 8.5-21.27 8.7-8.69 21.08-8.69 12.38 0 21.08 8.69L450-408.15V-790q0-12.77 8.62-21.38Q467.23-820 480-820t21.38 8.62Q510-802.77 510-790v381.85l92.92-92.93q8.31-8.3 20.89-8.5 12.57-.19 21.27 8.5 8.69 8.7 8.69 21.08 0 12.38-8.69 21.08L505.31-319.15q-5.62 5.61-11.85 7.92-6.23 2.31-13.46 2.31t-13.46-2.31Z"/></svg>
