<svg xmlns="http://www.w3.org/2000/svg" height="24px" viewBox="0 -960 960 960" width="24px" fill="currentColor"><path d="M172.31-260Q142-260 121-281q-21-21-21-51.31v-295.38Q100-658 121-679q21-21 51.31-21h615.38Q818-700 839-679q21 21 21 51.31v295.38Q860-302 839-281q-21 21-51.31 21H172.31Zm0-60h615.38q4.62 0 8.46-3.85 3.85-3.84 3.85-8.46v-295.38q0-4.62-3.85-8.46-3.84-3.85-8.46-3.85H172.31q-4.62 0-8.46 3.85-3.85 3.84-3.85 8.46v295.38q0 4.62 3.85 8.46 3.84 3.85 8.46 3.85ZM290-450v50q0 12.77 8.62 21.38Q307.23-370 320-370t21.38-8.62Q350-387.23 350-400v-50h50q12.77 0 21.38-8.62Q430-467.23 430-480t-8.62-21.38Q412.77-510 400-510h-50v-50q0-12.77-8.62-21.38Q332.77-590 320-590t-21.38 8.62Q290-572.77 290-560v50h-50q-12.77 0-21.38 8.62Q210-492.77 210-480t8.62 21.38Q227.23-450 240-450h50Zm325.38 65.38Q630-399.23 630-420q0-20.77-14.62-35.38Q600.77-470 580-470q-20.77 0-35.38 14.62Q530-440.77 530-420q0 20.77 14.62 35.38Q559.23-370 580-370q20.77 0 35.38-14.62Zm120-120Q750-519.23 750-540q0-20.77-14.62-35.38Q720.77-590 700-590q-20.77 0-35.38 14.62Q650-560.77 650-540q0 20.77 14.62 35.38Q679.23-490 700-490q20.77 0 35.38-14.62ZM160-320v-320 320Z"/></svg>