<svg xmlns="http://www.w3.org/2000/svg" width="24" height="24" viewBox="0 0 24 24" fill="currentColor">
  <path d="M20.99,7.809c-.08,1.756-1.304,4.159-3.671,7.21-2.447,3.187-4.518,4.78-6.211,4.78-1.049,0-1.937-.97-2.662-2.911-.485-1.779-.969-3.558-1.453-5.338-.539-1.94-1.116-2.911-1.734-2.911-.134,0-.606.284-1.412.849l-.847-1.093c.888-.782,1.765-1.564,2.627-2.347,1.185-1.026,2.074-1.565,2.667-1.619,1.401-.135,2.263.825,2.587,2.878.35,2.216.591,3.594.728,4.134.404,1.839.848,2.757,1.333,2.757.377,0,.942-.597,1.697-1.788.754-1.192,1.158-2.1,1.212-2.723.107-1.029-.296-1.545-1.212-1.545-.431,0-.875.1-1.332.296.885-2.903,2.575-4.314,5.069-4.233,1.849.055,2.721,1.256,2.615,3.606h-.001Z"/>
</svg>
