<svg xmlns="http://www.w3.org/2000/svg" width="24" height="24" viewBox="0 0 24 24" fill="currentColor">
  <path d="M9.834,9.197l-2.357,5.622h-1.537l-1.16-4.487c-.071-.276-.131-.377-.346-.494-.349-.19-.927-.367-1.435-.478l.035-.163h2.475c.335,0,.619.243.671.573l.613,3.254,1.513-3.827h1.528ZM15.859,12.984c.006-1.484-2.052-1.566-2.038-2.229.004-.202.197-.416.616-.471.492-.047.988.04,1.435.252l.255-1.193c-.435-.164-.896-.248-1.361-.25-1.438,0-2.449.765-2.458,1.859-.009.809.722,1.26,1.273,1.53.567.275.758.452.754.698-.004.378-.452.544-.87.551-.731.011-1.155-.197-1.494-.355l-.263,1.232c.34.156.967.293,1.617.298,1.528,0,2.527-.755,2.533-1.923M19.654,14.819h1.346l-1.174-5.622h-1.242c-.271-.002-.517.161-.62.413l-2.182,5.21h1.527l.304-.84h1.866s.175.84.175.84ZM18.032,12.827l.765-2.111.441,2.111s-1.206,0-1.206,0ZM11.912,9.197l-1.202,5.622h-1.455l1.204-5.622s1.453,0,1.454,0Z"/>
</svg>
