<svg xmlns="http://www.w3.org/2000/svg" width="24" height="24" viewBox="0 0 24 24" fill="currentColor">
  <path d="M9.523,14.355l-2.753.636c-.283.065-.566.137-.859.116-.196-.014-.385-.031-.571-.16-.101-.071-.185-.163-.248-.269-.262-.414-.274-1.025-.277-1.501-.004-.526.08-1.049.248-1.548.022-.064.049-.125.08-.185.029-.056.06-.11.094-.163.036-.052.076-.101.117-.148.084-.091.186-.163.299-.212.109-.046.226-.067.344-.063.177.001.386.039.683.13.041.014.093.029.139.043.245.076.529.18.862.299.515.181,1.025.365,1.535.555l.909.332c.166.061.327.135.481.223.131.074.245.173.338.29.065.093.113.198.14.308.001.005.002.01.004.015.053.231.014.473-.107.677s-.318.352-.547.413c-.035.011-.064.018-.082.022l-.829.191v-.002s-.002,0-.002,0ZM18.773,9.957h0c-.226-.476-.53-.909-.9-1.283-.048-.047-.099-.091-.153-.131-.05-.038-.102-.073-.156-.104-.055-.03-.112-.058-.17-.082-.115-.045-.238-.065-.361-.06-.118.007-.233.039-.337.095-.158.079-.329.205-.557.416-.031.031-.071.067-.106.1-.188.176-.397.394-.645.647-.384.388-.762.778-1.138,1.172l-.672.697c-.123.127-.235.265-.335.411-.085.124-.145.263-.177.409-.019.112-.016.227.008.339.001.005.002.01.004.015.053.231.194.432.392.561.199.129.439.176.672.131.037-.005.065-.011.083-.016l3.584-.828c.283-.065.569-.125.823-.272.17-.098.332-.197.443-.394.059-.109.095-.228.106-.351.055-.488-.2-1.043-.405-1.472ZM10.485,3.056c-.208.029-.416.068-.623.117-.207.049-.411.104-.611.168-.651.213-1.566.605-1.721,1.355-.088.424.119.858.28,1.245.194.469.461.892.703,1.333.641,1.166,1.294,2.324,1.944,3.484.194.346.406.785.782.964.025.011.05.02.076.029.169.064.352.076.528.035.011-.002.021-.005.031-.007.162-.044.309-.133.424-.255.021-.02.041-.04.059-.062h0c.26-.326.259-.812.282-1.21.078-1.328.16-2.657.226-3.986.025-.503.079-1,.049-1.507-.025-.418-.028-.899-.292-1.242-.466-.605-1.461-.556-2.139-.462ZM12.048,15.02h0c-.101-.143-.245-.25-.411-.305-.166-.056-.345-.058-.512-.005-.039.013-.077.029-.115.047-.057.029-.112.063-.163.101-.149.11-.275.254-.389.398-.029.037-.056.086-.09.117l-.577.793c-.327.444-.649.89-.968,1.342-.208.292-.389.539-.531.757-.027.041-.055.087-.081.124-.171.264-.268.457-.317.629-.037.114-.049.235-.035.354.016.124.058.244.122.35.035.053.072.106.112.155.041.048.085.094.131.137.049.047.102.091.158.13.398.277.833.476,1.292.629.381.127.778.202,1.178.225.068.004.137.002.205-.004.063-.005.126-.014.188-.026.062-.014.124-.032.184-.053.117-.044.224-.112.313-.199.085-.085.149-.187.191-.299.067-.166.11-.377.139-.69.002-.044.009-.098.013-.147.023-.26.033-.565.05-.923.028-.552.05-1.101.068-1.652l.037-.979c.008-.226.002-.476-.061-.7-.028-.107-.072-.21-.131-.304ZM18.553,16.553h.001c-.12-.133-.291-.264-.56-.427-.039-.022-.084-.05-.126-.076-.224-.134-.494-.276-.809-.448-.484-.266-.968-.525-1.457-.782l-.864-.458c-.045-.013-.09-.046-.133-.066-.166-.079-.342-.154-.524-.187-.063-.012-.127-.019-.191-.02-.041,0-.083.002-.124.007-.173.027-.332.107-.457.23s-.206.282-.235.455c-.013.11-.009.221.012.329.042.23.145.457.251.656l.461.865c.257.488.517.972.782,1.456.172.315.315.585.449.808.025.042.054.088.076.126.163.269.294.438.427.559.086.083.189.146.302.185.119.04.244.053.369.041.063-.007.126-.019.188-.032.061-.016.122-.036.181-.059.064-.024.126-.053.186-.086.35-.197.674-.439.961-.719.345-.339.649-.709.886-1.133.033-.06.061-.122.085-.186.022-.059.041-.119.058-.181.014-.062.025-.125.032-.188.012-.124-.002-.25-.043-.368-.039-.113-.103-.217-.186-.303Z"/>
</svg>
