<svg xmlns="http://www.w3.org/2000/svg" height="24px" viewBox="0 -960 960 960" width="24px" fill="#e3e3e3"><path d="M370-176.16v-167.92l-74 46.23q-15.38 9.93-30.69.81Q250-306.15 250-324q0-8.31 3.85-15 3.84-6.69 10.54-10.54L370-415.61v-117.47l-74.39 46.62q-14.99 9.31-30.3.81T250-512q0-8.31 3.65-15 3.66-6.69 9.74-10.54L370-604.61V-790q0-12.77 8.62-21.38Q387.23-820 400-820t21.38 8.62Q430-802.77 430-790v148.08l114.39-71.62q14.99-9.92 30.3-1.11Q590-705.85 590-688q0 8.31-3.85 15-3.84 6.69-10.54 10.54L430-570.39v117.47l114.39-71.62q14.99-9.92 30.3-1.11Q590-516.85 590-499q0 8.31-3.85 15-3.84 6.69-10.54 10.54L430-381.39V-200h10q76.92 0 135.39-48.96 58.46-48.96 71.23-125.96 1.61-11.54 11.23-18.31 9.61-6.77 21.77-6.77 12.76 0 21.19 8.5 8.42 8.5 6.8 20.04-14 99.38-88.92 165.42Q543.77-140 440-140h-33.85q-15.46 0-25.8-10.35Q370-160.69 370-176.16Z"/></svg>