<svg xmlns="http://www.w3.org/2000/svg" height="24px" viewBox="0 -960 960 960" width="24px" fill="#e3e3e3"><path d="M376.16-170v-50h-90.01q-12.76 0-21.38-8.62-8.61-8.61-8.61-21.38t8.61-21.38q8.62-8.62 21.38-8.62h50.01v-400h-50.01q-12.76 0-21.38-8.62-8.61-8.61-8.61-21.38t8.61-21.38q8.62-8.62 21.38-8.62h90.01v-50q0-12.77 8.61-21.38 8.62-8.62 21.38-8.62 12.77 0 21.39 8.62 8.61 8.61 8.61 21.38v50H520v-50q0-12.77 8.62-21.38Q537.23-820 550-820t21.38 8.62Q580-802.77 580-790v53.08q52.38 8.61 86.19 47.65Q700-650.23 700-595q0 30.54-11.16 56.46-11.15 25.93-29.92 44.62 37.31 17.15 59.19 51.42Q740-408.23 740-365q0 61.38-41.81 103.19Q656.38-220 595-220h-15v50q0 12.77-8.62 21.38Q562.77-140 550-140t-21.38-8.62Q520-157.23 520-170v-50h-83.85v50q0 12.77-8.61 21.38-8.62 8.62-21.39 8.62-12.76 0-21.38-8.62-8.61-8.61-8.61-21.38Zm19.99-340H555q36.08 0 60.54-24.46T640-595q0-36.08-24.46-60.54T555-680H396.15v170Zm0 230H595q36.08 0 60.54-24.46T680-365q0-36.08-24.46-60.54T595-450H396.15v170Z"/></svg>