<svg xmlns="http://www.w3.org/2000/svg" width="450px" height="300px" viewBox="0 0 450 300">
  <path fill="#BF0000" d="M0,0h450v300H0V0z" />
  <path fill="#FFFFFF" d="M0,0h75v300H0V0z M325,150c0,55.228-44.772,100-100,100c-0.376,0-0.749-0.01-1.124-0.014C254.846,227.58,275,191.146,275,150s-20.154-77.58-51.124-99.986C224.251,50.01,224.624,50,225,50C280.228,50,325,94.772,325,150z M243.164,155.902l29.389-21.353h-36.327L225,100l-11.226,34.549h-36.327l29.389,21.353l-11.226,34.549L225,169.098l29.389,21.353L243.164,155.902z" />
</svg>
