<svg xmlns="http://www.w3.org/2000/svg" width="450px" height="300px" viewBox="0 0 450 300">
  <path fill="#92D4F7" d="M0,0h450v300H0V0z" />
  <path fill="#FFFFFF" d="M145.404,213.76l-21.176,1.842l2.916,21.055L112.5,221.25l-14.644,15.408l2.916-21.055l-21.176-1.842l18.28-10.848l-11.763-17.705l19.879,7.528L112.5,172.5l6.508,20.235l19.879-7.528l-11.763,17.705L145.404,213.76z M344.464,223.411l5.601-8.431l-9.466,3.585l-3.099-9.636l-3.099,9.636l-9.466-3.585l5.601,8.431l-8.705,5.166l10.084,0.877l-1.389,10.026l6.973-7.337l6.973,7.337l-1.389-10.026l10.084-0.877L344.464,223.411z M288.214,134.348l5.601-8.431l-9.466,3.585l-3.099-9.636l-3.099,9.636l-9.466-3.585l5.601,8.431l-8.705,5.166l10.084,0.877l-1.389,10.026l6.973-7.337l6.973,7.337l-1.389-10.026l10.084-0.877L288.214,134.348z M331.915,79.454l-1.389,10.026l6.973-7.337l6.973,7.337l-1.389-10.026l10.084-0.877l-8.705-5.166l5.601-8.431l-9.466,3.585l-3.099-9.636l-3.099,9.636l-9.466-3.585l5.601,8.431l-8.705,5.166L331.915,79.454z M403.168,124.514l-8.705-5.166l5.601-8.431l-9.466,3.585l-3.099-9.636l-3.099,9.636l-9.466-3.585l5.601,8.431l-8.705,5.166l10.084,0.877l-1.389,10.026l6.973-7.337l6.973,7.337l-1.389-10.026L403.168,124.514z M362.449,156.004L360,150l-2.449,6.004l-6.467,0.474l4.953,4.185l-1.548,6.297l5.51-3.418l5.51,3.418l-1.548-6.297l4.953-4.185L362.449,156.004z" />
  <path fill="#002776" d="M0,0h225v112.5H0V0z" />
  <path fill="#FFFFFF" d="M225,37.5h-49.843L225,12.578V0h-25.157L131.25,34.297V0h-37.5v34.297L25.157,0H0v12.578L49.843,37.5H0V75h49.843L0,99.922V112.5l0,0h25.156L93.75,78.203V112.5h37.5V78.203l68.594,34.297H225V99.922L175.157,75H225V37.5z" />
  <path fill="#E00034" d="M91.77,75l-75,37.5H0l0,0L75,75H91.77z M58.23,37.5H75L0,0v8.385L58.23,37.5z M123.75,112.5v-45H225V45H123.75V0h-22.5v45H0v22.5h101.25v45H123.75z M225,0h-16.77l-75,37.5H150L225,0z M166.77,75H150l75,37.5v-8.385L166.77,75z" />
</svg>
