<svg xmlns="http://www.w3.org/2000/svg" width="450px" height="300px" viewBox="0 0 450 300">
  <path fill="#FFFFFF" d="M0,0h450v300H0V0z" />
  <path fill="#0000CC" d="M0,0v230l37.5-40L75,230l37.5-40l37.5,40l37.5-40l37.5,40l37.5-40l37.5,40l37.5-40l37.5,40l37.5-40l37.5,40V0H0z" />
  <path fill="#FDCB00" d="M0,300v-55l37.5-40L75,245l37.5-40l37.5,40l37.5-40l37.5,40l37.5-40l37.5,40l37.5-40l37.5,40l37.5-40l37.5,40v55H0z" />
  <path fill="#FFFFFF" d="M75.27,140.115L75.27,140.115L75.27,140.115l-15.698-3.008l-7.712,14v0l0,0l-1.99-15.86l-15.698-3.008l14.468-6.794l-1.99-15.86l10.932,11.661l14.468-6.794l-7.712,14L75.27,140.115z M110.338,42.954l7.712-14l-14.468,6.794L92.65,24.086l1.99,15.86l-14.468,6.794l15.698,3.008l1.99,15.86l0,0v0l7.712-14l15.698,3.008l0,0l0,0L110.338,42.954z M160.838,151.454l7.712-14l-14.468,6.794l-10.932-11.661l1.99,15.86l-14.468,6.794l15.698,3.008l1.99,15.86l0,0v0l7.712-14l15.698,3.008l0,0l0,0L160.838,151.454z M179.169,64.477l3.856-7l-7.234,3.397l-5.466-5.831l0.995,7.93l-7.234,3.397h0l0,0l7.849,1.504l0.995,7.93l3.856-7l7.849,1.504L179.169,64.477z M275.77,47.615L275.77,47.615l-10.932-11.661l7.712-14l-14.468,6.794L247.15,17.086l1.99,15.86l-14.468,6.794l15.698,3.008l1.99,15.86l0,0v0l7.712-14L275.77,47.615L275.77,47.615z" />
</svg>
