<svg xmlns="http://www.w3.org/2000/svg" width="450px" height="300px" viewBox="0 0 450 300">
  <path fill="#D52B1E" d="M0,0h112.5l4.6,4.6h215.7l4.6-4.6H450v300H337.5l-4.6-4.6H117.1l-4.6,4.6H0V0z" />
  <path fill="#FFFFFF" d="M112.5,0h225v300h-225V0z M229.2,245.2l-2.1-40.5c-0.1-2.5,1.8-4.5,4.2-4.7c0.3,0,0.6,0,1,0.1l40.3,7.1l-5.4-15c-0.5-1.2-0.1-2.6,0.9-3.4l44.1-35.7l-9.9-4.6c-1.4-0.7-2.1-2.2-1.6-3.7l8.7-26.8l-25.4,5.4c-1.4,0.3-2.9-0.4-3.4-1.8l-4.9-11.6l-19.8,21.3c-1.2,1.2-3.1,1.3-4.3,0.1c-0.8-0.7-1.1-1.8-0.9-2.8l9.6-49.3l-15.3,8.9c-1.5,0.9-3.3,0.4-4.2-1.1c0-0.1-0.1-0.1-0.1-0.2L225,56.2l-15.6,30.6c-0.8,1.5-2.6,2.1-4.1,1.4c-0.1,0-0.1-0.1-0.2-0.1l-15.3-8.9l9.6,49.3c0.3,1.7-0.8,3.2-2.4,3.6c-1,0.2-2.1-0.1-2.8-0.9l-19.8-21.3l-4.9,11.6c-0.6,1.3-2,2.1-3.4,1.8l-25.4-5.4l8.7,26.8c0.5,1.5-0.2,3-1.6,3.7l-9.9,4.6l44.1,35.7c1,0.8,1.4,2.2,0.9,3.4l-5.4,15l40.3-7.1c2.4-0.4,4.7,1.2,5.1,3.6c0.1,0.3,0.1,0.6,0.1,1l-2.1,40.5H229.2z" />
</svg>
