<svg xmlns="http://www.w3.org/2000/svg" width="450px" height="300px" viewBox="0 0 450 300">
  <path fill="#012169" d="M0,0h450v300H0V0z" />
  <path fill="#FFFFFF" d="M84.69,138.405l-5.76-5.355l-5.805,5.31l0.63-7.83l-7.74-1.26l6.525-4.41l-3.87-6.84l7.515,2.34l2.925-7.29l2.835,7.335l7.515-2.25l-3.96,6.795l6.435,4.5l-7.785,1.125L84.69,138.405z M105.03,203.475l-6.21-4.14l-6.03,4.365l2.115-7.02l-6.12-4.23l7.515-0.18l2.25-6.975l2.52,6.885l7.515-0.09l-5.94,4.455L105.03,203.475L105.03,203.475z M85.815,259.5l-5.76-5.355l-5.805,5.265l0.63-7.83l-7.74-1.26l6.525-4.41l-3.87-6.84l7.515,2.34l2.925-7.29l2.835,7.335l7.515-2.25L86.625,246l6.435,4.5l-7.785,1.125L85.815,259.5L85.815,259.5z M34.245,193.89l-5.76-5.355L22.68,193.8l0.63-7.83l-7.74-1.26l6.525-4.41l-3.87-6.84l7.515,2.34l2.925-7.29l2.835,7.335l7.515-2.25l-3.96,6.795l6.435,4.5l-7.785,1.125C33.705,186.015,34.245,193.89,34.245,193.89z M133.47,176.7l-5.76-5.4l-5.805,5.31l0.63-7.83l-7.74-1.26l6.525-4.41l-3.87-6.84l7.515,2.34l2.925-7.29l2.835,7.335l7.515-2.25l-3.96,6.795l6.435,4.5l-7.785,1.125L133.47,176.7L133.47,176.7z" />
  <path fill="#0DB02B" d="M0,0h450v300L0,0z" />
  <path fill="#F7D116" d="M225,109.365c22.442,0,40.635,18.193,40.635,40.635S247.442,190.635,225,190.635S184.365,172.442,184.365,150S202.558,109.365,225,109.365z M423.54,107.1c-1.575-0.9-2.655-0.18-4.77-0.9c-1.755-0.585-1.44-1.215-2.97-1.71c-1.8-0.585-2.655,0.18-5.76,0.495c-1.08,0.09-2.79,0.225-3.78,0.09c-4.005-0.54-7.155-6.75-8.46-11.475c-1.755-6.12-0.54-10.305-1.35-19.125c-0.18-1.98-0.63-4.86-1.71-8.055c-0.765-2.295-2.295-5.895-9.72-14.535c-8.235-9.54-14.805-14.85-16.56-16.245c-2.79-2.25-5.265-3.96-7.065-5.175c0.27,2.79,0.9,6.93,2.43,11.655c1.755,5.49,3.915,9.405,5.985,13.14c3.465,6.21,12.195,21.645,10.98,26.145c-0.09,0.27-0.36,1.215-0.63,2.61c-0.36,1.845-0.45,3.375-0.495,4.41c-1.125-0.36-2.835-0.99-4.86-1.98c-3.735-1.845-6.165-3.78-7.38-4.725c-3.33-2.52-6.57-3.645-13.005-5.985c-8.55-3.105-16.56-4.32-22.995-4.725c4.05,5.895,8.01,9.855,10.935,12.33c5.445,4.68,11.205,7.875,14.04,9.45c3.465,1.935,4.905,2.475,8.505,4.77c5.535,3.555,7.65,5.85,9,7.65c1.665,2.205,3.195,4.23,3.555,7.2c0.36,2.88-0.45,5.985-2.88,9.855c-7.02,11.115-20.475,17.235-24.57,18.99c-5.13,2.205-13.185,5.625-25.2,7.335c-9.09,1.305-23.535,2.025-41.175-2.745c1.845,0.81,3.915,1.62,6.165,2.34c2.43,0.765,4.68,1.305,6.75,1.71c0.135,0.045-2.88,0.135-5.94-0.54c-3.69-0.81-6.615-2.25-8.64-3.465c1.53,1.215,3.915,2.88,6.975,4.23c3.96,1.755,8.01,2.565,19.98,2.61c7.2,0.045,10.8,0.045,14.355-0.315c10.17-1.035,17.775-3.51,24.975-5.985c6.075-2.07,11.25-3.825,17.955-7.29c9.675-5.04,14.265-9.36,25.02-13.725c3.375-1.35,5.085-2.07,7.245-2.7c6.39-1.89,8.82-1.395,13.23-3.87c3.96-2.205,5.22-4.455,5.58-5.13c0.585-1.08,0.675-1.755,1.305-2.565c1.665-2.115,4.59-2.205,6.84-1.935C425.16,108.63,424.53,107.73,423.54,107.1L423.54,107.1z M414.9,109.17c-0.27,0.36-0.765,0.495-1.17,0.405c-0.585-0.18-0.99-0.81-0.945-1.575l-1.35-0.72h3.465C415.305,107.865,415.26,108.675,414.9,109.17L414.9,109.17z" />
  <path fill="#0DB02B" d="M200.16,131.73c2.79,3.825,6.975,10.215,10.395,8.55c2.655,0,4.005,0.18,4.365,1.935c6.255,1.08,16.74-1.575,23.22-10.08c0,0,0.54,0.09,0.36-3.15c0.045-1.395,1.935-1.125,1.98-0.675c0.27,0.72,0.225,1.215,0.585,1.26c0.81-0.27,1.89-2.07,2.835-3.195c0.27-0.495,0.135-1.035,0.18-1.665c0.495-1.215,1.71-0.945,1.935-0.315c0.225,0.405,0.225,0.72,0.45,1.125c1.215,0.81,3.465,0.045,3.6,0.045c0.225-0.99,0.855-0.9,0.855-0.9c0.81-0.18,0.495-0.09,1.035,0.18c-0.495,5.4,1.08,5.625,0.945,8.415c0.045,3.105-0.945,3.96-0.945,5.13c0.315,1.44,4.86,1.485,3.285,2.7c-1.395,0.765,0,2.16-2.115,2.7c-6.165,3.15-7.38,5.805-7.38,5.805s-1.53,2.925-1.71,2.925c-1.035,1.935-2.34,0.9-3.06,1.845c-0.36,1.215-0.765,3.87-0.045,5.22c0.36,1.89-0.045,2.925-0.495,4.815c-0.405,3.96-1.98,4.545-2.16,5.94c-0.72,1.485,0.135,8.46-0.54,8.46c-4.59,0.09-8.145-0.9-9.945-1.26c1.755-7.65,1.08-14.355,1.08-15.03c-0.45-5.445-8.19-4.14-9.36-4.86c-0.99-0.225-1.575-0.99-1.935-1.35c-1.08-0.135-1.485-0.36-2.61-0.495c-0.54,0.27-0.225,0.54-1.44,0.945c-3.105,0.36-4.455-2.7-4.455-2.7c0.135-1.035-6.93,0.225-10.8-0.675c-1.575,0.9-2.25,3.465-3.555,3.78c-0.045,0.81-2.115-0.675-2.565-1.44c-0.09-2.295,2.025-3.33,2.025-3.33c1.665-1.17,2.655-1.35,3.465-2.16c0.405-2.025,0.18-3.51,1.035-4.995c0.72-1.17,1.8-0.63,2.52-1.125c0.765-0.495,1.125-3.915,0.405-4.815l-3.285-2.97C197.325,133.395,199.53,131.55,200.16,131.73L200.16,131.73z" />
</svg>
