<svg xmlns="http://www.w3.org/2000/svg" width="450px" height="300px" viewBox="0 0 450 300">
  <path fill="#37943B" d="M0,0h450v300H0V0z" />
  <g>
    <path fill="#0000FF" stroke="#650000" stroke-width="0.7849" d="M124.951,213.646c-0.657,1.063,1.146,5.778,3.935,5.659c-1.819-2.916-1.627-6.308-1.627-6.308L124.951,213.646L124.951,213.646L124.951,213.646L124.951,213.646z M118.026,208.54c-1.005,0.148-3.432,6.348,0.437,8.559c0.124-3.849,1.945-6.133,1.945-6.133l-2-1.722l0,0L118.026,208.54L118.026,208.54L118.026,208.54z M117.55,204.842c-0.977-1.027-5.201,1.956-5.027,6.407c2.596-2.968,5.669-2.736,5.669-2.736L117.55,204.842L117.55,204.842L117.55,204.842z M122.434,201.244c-0.069-1.396-3.743-3.009-5.672-0.218c2.774,0.315,4.354,2.92,4.354,2.92L122.434,201.244L122.434,201.244L122.434,201.244L122.434,201.244z M196.526,214.227c-0.067,1.279,0.26,1.724,0.888,2.442s1.34,2.851,1.34,2.851s2.012-5.619,1.509-6.374C199.759,212.393,196.651,214.191,196.526,214.227L196.526,214.227z M185.881,211.901c-1.001-0.193-2.896,4.453-1.319,7.64c0.793-3.693,2.959-5.3,2.959-5.3L185.881,211.901L185.881,211.901L185.881,211.901z M180.996,210.504c-0.78-0.89-4.152,1.694-4.014,5.552c2.072-2.571,4.526-2.37,4.526-2.37L180.996,210.504L180.996,210.504L180.996,210.504z M183.555,204.539c-0.537-1.186-4.326-0.208-5.075,3.513c2.553-1.534,4.835-0.27,4.835-0.27L183.555,204.539L183.555,204.539L183.555,204.539z M57.631,201.933c0.364-1.305-2.471-4.92-5.072-3.522c2.416,1.911,3.052,5.197,3.052,5.197L57.631,201.933L57.631,201.933L57.631,201.933L57.631,201.933z M46.767,210.089c-0.946-1.178-4.914,2.174-4.678,7.242c2.421-3.352,5.347-3.057,5.347-3.057L46.767,210.089L46.767,210.089L46.767,210.089z M47.114,202.92c-0.407-1.669-5.053-1.44-6.642,3.137c3.297-1.278,5.743,0.964,5.743,0.964L47.114,202.92L47.114,202.92L47.114,202.92z M51.846,216.457c-0.254,1.233,0,1.761,0.509,2.642s0.891,3.17,0.891,3.17s2.799-4.932,2.417-5.812C55.282,215.576,51.974,216.457,51.846,216.457z M40.316,159.746c0-1.761-4.455-3.603-7.017,0.03c3.419,0.249,5.218,3.457,5.218,3.457L40.316,159.746L40.316,159.746L40.316,159.746z M35.692,166.761c-0.946-1.178-4.914,2.174-4.678,7.242c2.421-3.352,5.347-3.057,5.347-3.057L35.692,166.761L35.692,166.761L35.692,166.761L35.692,166.761z M51.861,159.141c0.43-1.658-3.312-5.476-6.611-3.257c3.156,1.835,4.066,5.696,4.066,5.696L51.861,159.141L51.861,159.141L51.861,159.141z M57.144,165.193c0.742-0.95-0.653-5.924-3.433-6.254c1.561,3.189,1.087,6.527,1.087,6.527L57.144,165.193L57.144,165.193L57.144,165.193L57.144,165.193z" />
    <path fill="#FFCD00" stroke="#650000" stroke-width="0.7849" d="M71.994,171.028c-2.797-3.254-0.033-9.189,2.474-6.658c-1.313-2.429,0.834-4.352,1.809-3.135c-0.453-1.977,1.606-3.287,2.616-1.463c-0.363-2.205,2.691-3.495,3.483-1.086c0.053-2.167,3.038-3.878,3.697-0.704c0.581-2.443,3.909-2.763,4.185,0.708c0.971-2.019,3.466-1.871,3.611,1.062c1.079-1.379,3.866,0.685,3.391,3.125c1.722-0.373,3.825,3.113,1.727,5.682c3.723-1.986,4.602,4.452,2.34,7.374c1.17,0.714,1.273,0.084,2.305,0.619c1.032,0.536,2.904,1.418,4.617,1.798c1.548,0,7.225-0.179,8.386-0.357c1.161-0.179,2.748-0.785,4.645-1.429c1.986-0.644,4.859-0.668,7.48-1.304c2.077-0.233,60.384,0.947,62.062,0.768c1.677-0.179,4.125-1.791,3.996-3.755c-0.129-1.964-2.061-3.389-3.996-3.567c-1.935-0.179-11.87-0.179-13.676,0.179c-1.806,0.357-4.387,1.25-5.677,2.5c-0.62,0.4-1.645,1.911-2.513,2.906c-0.813,0.685-3.108,0.786-3.108-0.107c0-0.584-0.193,0.112-0.757,0.339c-0.732,0.458-4.034,0.584-3.888,0c0.258-0.661-0.017-0.869-0.886-0.179c-0.645,0.536-5.209,0.733-6.047,0.203c0.503-0.84,0.507-0.792-0.865-0.101c-0.868,0.381-4.464,0.68-4.722-0.053c-0.035-0.578-0.442-0.295-0.949-0.131c-4.075,1.066-4.466-0.168-3.821-0.704s1.622-3.601,0.59-3.423c-1.032,0.179-7.483,1.429-9.676,1.786s-18.063,0-20.256-0.179c-2.193-0.179-4.644-2.243-4.774-5.179c-0.23-4.71,3.613-5.894,5.935-6.608s8.128-1.786,10.451-1.786c2.322,0,8.946,0.822,10.753,0.107c1.806-0.714,7.292-2.71,8.842-2.858c2.287-0.212,8.837,0.562,11.959,4.316c-1.625,0.738-2.39,1.173-0.545,0.506c1.677-0.357,8.877-1.857,10.554-2.25c5.806-0.25,4.284,0.643,1.445,1.357c-0.947,3.02-9.479,7.235-12.188,7.771s-8.459,0.143-9.745-0.091c-1.29-0.097-7.395-0.402-9.617-1.842c-3.591-2.436-10.225-4.037-13.134-3.981c-2.721,0.054-10.484,0.87-10.451,3.572c-0.041,4.746,7.225,5.001,10.322,4.822c3.096-0.179,10.838-0.536,13.031-1.429s6.938-1.112,9.518-1.112s6.351,0.577,7.513,0.398c1.161-0.179,3.871-0.219,5.161-1.112s4.095-1.827,6.934-1.827s23.902-0.811,26.74-0.633c4.109-0.028,7.011,4.463,7.061,8.282c0.023,1.786-0.851,4.425-1.594,4.834c1.275,0.118,4.465,0.477,5.518,0.697c1.976,0.392,5.18,2.57,5.547,4.554c-1.501-0.912-3.923-2.289-6.107-2.439c-0.427,0.005-46.406-0.077-50.02-0.055c9.825,1.161,17.333,8.728,19.21,13.061c1.677,2.679,5.806,1.607,7.354,1.25s3.354-1.965,4.645-3.215c1.29-1.25,3.307-1.567,4.218-1.25c2.005-0.179,2.362,1.965,1.588,3.036c-0.774,1.072,0.128,0.631,2.193,0.631c2.064,0,3.884,0.769,5.102,2.391c-1.161,1.072-1.746,0.193-0.069,0.371c1.677,0.179,3.702,3.255,2.451,4.123c-1.093,0.542-1.419,0.343,0,0.521c2.116,0.179,2.693,1.549,2.967,3.984c-1.791,0.328-0.903-0.233,0,0.66s2.219,4.848-1.032,5.001c-1.161-0.536-1.14-0.64-0.893,0.576c0.229,1.25-0.398,4.247-2.204,4.247c-2.503,0.482-4.774-0.893-5.032-2.5s-0.224,3.102-3.772,3.845c-3.35,0.745-5.13-1.166-5.388-2.059s-0.129-0.179-1.419-0.357c-1.29-0.179-2.916-0.195-3.613-2.322c0-1.25,0.251-2.898,2.55-3.121c1.032-0.179,1.321-1.523,0.546-1.702c-0.774-0.179-0.129-2.858,1.548-2.143c1.677,0.714,5.548,0.893,6.451,1.786s1.161-0.714-0.258-2.143c-1.419-1.429-10.064-4.287-12.386-3.215c-5.408,2.725-14.45,2.322-15.998,1.965s-6.02,0.617-8.128-5.894c-1.71-6.649-8.209-9.935-11.177-10.292c-14.638-1.378-13.843-0.318-4.35,0.131c-0.071,1.241-0.415,3.783,1.124,4.155c2.58-0.357,7.951-1.496,9.241-0.425c1.29,1.072,2.58,1.965,2.322,4.465s0.129,1.786-1.032,2.858s-0.645,3.215,1.161,3.929s2.58,1.607,3.742,2.679c1.161,1.072-0.516,3.215-1.548,2.5c-1.032-0.714-1.032-0.714-1.161,0.714c-0.129,1.429-1.411,4.133-3.592,4.331c-0.458-0.173-0.331-0.912-0.279-1.473c0.129-1.25-0.436,1.553-1.11,2.331c-0.429,0.525-4.082,1.552-5.114,1.016c0.461-1.119,0.195-0.662-0.709-0.126c-0.881,0.351-5.637,1.012-3.518-1.256c0.55-0.826-0.756,1.032-1.476,1.356c-0.605,0.377-3.427,0.608-3.427-0.463c-0.895,0.788-3.027,0.788-3.354,0.179c-0.645-0.714-0.706,0.536-1.867,0.714c-1.161,0.179-3.681-0.179-3.81-1.607c-0.129-1.429,0.258-0.536-1.161-0.357c-3.455,2.292-5.161-0.893-5.161-1.965s-0.129-2.322,0.258-3.036s-2.404-0.93-1.548-2.337c0.962-1.72,1.972-2.981,3.871-2.664c0.903,0.179,0.774-0.357,0.387-1.072c-0.387-0.714,1.032-1.072,2.709-0.357c1.677,0.714,2.838,2.5,3.354,4.108c0.516,1.607,4.516,0.357,6.193,0.536c1.677,0.179,1.806-2.679,0.774-3.572s-3.871-4.108-5.032-5.18c-1.161-1.072-0.387-4.822,0.645-5.715c6.008-4.062,2.709-5.358,0.516-5.001c-2.193,0.357-7.83,2.613-9.636,4.577c-1.806,1.965-15.84,11.594-17.13,12.666s-3.167,1.332-3.941,0.082s-1.29-0.357-1.161,1.429c1.025,6.746-5.032,8.896-6.094,8.811c-0.739-0.076-1.798-0.488-2.561-1.123c-0.753,3.77-4.083,4.145-7.091,3.772c-0.046-0.445,0.561-1.276,0.23-0.958c-0.995,1.295-4.05,1.159-6.674,0.962c-0.175-0.788,0.905-1.743,0.389-1.207c-0.881,1.658-2.395,1.36-4.849,1.184c-0.029-0.349,1.137-1.518,0.594-0.818c-1.074,1.175-3.311,0.807-5.048,0.836c-0.206-0.263,0.898-2.11-0.112-0.889c-0.965,1.041-3.008,1.215-4.961,0.936c-0.347-0.878,0.406-0.887,0.614-1.438c0.516-0.893-0.258,0-0.903,0s-1.548,0.179-1.935-0.714s-0.165,0.893-0.54,1.38c-0.375,0.422-0.797,1.412-2.088,1.77c-1.29,0.357-4.645,0.714-5.161-0.893c-0.695-0.74-1.032-2.322-0.516-3.215c0.516-0.893-2.457,1.723-3.742,1.965c-3.778,0.73-4.258-5.18-2.58-5.715c1.677-0.536,1.419-1.429,0.516-2.143c-0.903-0.714-1.419-3.572-0.258-4.465s3.848-1.388,5.548-0.357c0.994,0.683,3.123,3.025,2.709,1.25c-0.288-1.097,0.448-2.493,1.272-3.092c0.715-0.658,2.915-0.826,3.502,0.592c1.36,3.287,2.322,4.702,4,4.644c3.573-0.977,8.402-2.083,9.821-2.083c1.821-0.433,11.462-1.378,11.462-2.271c-5.782,2.001-8.119-0.589-8.764-0.411c-0.645,0.179-2.233-0.58-2.233-1.078c0-1.072,1.456-0.944-0.608-0.587c-1.236-0.102-2.337-0.159-3.377-1.449c-0.17-0.659,1.367-2.924,1.925-4.829c-1.332-0.361-4.278,2.038-5.243,4.153c-0.677-0.811-0.951-0.074-3.368,0.517c-1.14,0.497-2.995,0.319-4.027-0.217s-5.076-3.601-3.12-3.995c-0.515-0.252-1.106-0.396-1.496-0.504c-1.419-0.606-2.761-1.784-2.348-2.107c-0.36-0.537,0.411-0.535-0.157-0.642c-0.774-0.179-2.68-1.569-2.191-2.106c-0.489-0.323-1.649-0.821-2.14-1.072c-0.903-0.536-1.808-2.395-1.937-3.288c-0.832,0.08-2.608-1.495-1.806-1.965c-1.356-1.007-2.51-2.665-1.607-3.2c-0.791-0.624-1.344-1.763-0.793-1.336c-0.823-1.007-0.568-2.072,0.078-2.072c0.645,0,0.387-2.858-0.774-2.858s-3.029,0.902-4.387,0c-1.117-0.855-2.064-4.644-1.032-6.251c1.032-1.607,3.096-3.394,4.129-3.215c1.032,0.179,0.516,0.536,0.258-1.072c-0.258-1.607,1.457-2.815,2.58-3.215c1.362-0.623,4-0.179,4.774,0.536c0.774,0.714,1.032,0.714,1.032-0.536c0-0.878,0.997-1.336,1.884-1.567c1.477-0.348,2.632,0.071,3.148,0.674c0.802,1.149,1.29,2.5,0.258,3.572s-0.136,0.163,1.541-0.194c1.08-0.357,3.029,0.103,3.362,1.266c0.448,1.25,0.774,3.394-0.387,4.465c-1.161,1.072-2.838,3.751-1.935,4.644s3.742,4.822,4.387,5.358s1.419,1.786,2.451,1.607c1.032-0.179,2.193-0.357,3.096-0.536c3.584-0.721,5.2-1.096,0.6-0.949c1.033-1.46,3.196-1.89,4.134-2.147C68.935,174.012,71.994,171.386,71.994,171.028L71.994,171.028z" />
    <path stroke="#650000" stroke-width="0.8265" d="M78.007,177.568c1.722,3.006,5.827,1.202,6.887,2.405c1.06,1.202-1.029,5.39-1.692,7.795c-1.53,2.071-4.938,1.936-6.191,0.399c0.675-2.872,0.731-8.995,0.863-9.196L78.007,177.568L78.007,177.568L78.007,177.568L78.007,177.568L78.007,177.568L78.007,177.568z" />
    <path fill="none" stroke="#650000" stroke-width="0.7849" stroke-opacity="0.3" d="M94.336,183.168c1.272,2.466,1.647,6.652,0.209,8.683 M89.756,188.804c1.272,0.705,3.054,4.932,2.799,6.341c-0.254,1.409-0.254,1.409-0.254,1.409 M89.247,190.565c0.763,2.114,1.781,5.284,1.527,6.341s-0.254,1.057-0.254,1.057 M84.666,192.679c0.509,2.114,0.254,5.636-0.509,6.341c-0.763,0.704-0.763,0.704-0.763,0.704 M83.394,193.031c-0.763,2.466-1.527,5.989-1.527,5.989 M71.18,186.338c-1.272,1.057-3.054,3.523-3.054,3.523 M72.707,189.861c-2.036-1.409-4.326,1.057-4.326,1.057" />
    <path fill="none" stroke="#650000" stroke-width="1.5243" stroke-linecap="round" d="M91.304,167.982c-0.254,1.594-0.254,1.594-0.254,1.594 M80.836,165.104c-0.299,1.198-0.829,2.43-0.829,2.43" />
    <path opacity="0.0892" fill="#650000" enable-background="new    " d="M56.35,191.712l-0.379-0.89l2.588-1.102c2.18-0.928,2.18-0.928,3.658-4.852l0.458-1.212L63.579,184l-0.457,1.21c-1.532,4.067-1.624,4.31-4.184,5.401L56.35,191.712z M69.246,182.7c0.085-0.088,2.095-2.181,3.639-4.319c0.275-0.38,0.189-0.911-0.191-1.185c-0.38-0.274-0.91-0.189-1.185,0.191c-1.472,2.038-3.466,4.115-3.486,4.135c-0.325,0.338-0.315,0.875,0.023,1.2c0.165,0.159,0.377,0.238,0.589,0.238C68.857,182.96,69.08,182.873,69.246,182.7z M55.848,196.563l-0.258-0.932c1.485-0.412,3.708-1.356,4-2.164l0.91,0.329C59.934,195.361,56.525,196.376,55.848,196.563z M87.784,188.851l-3.551,3.906c-0.508-1.841-1.391,0.049-1.461,1.179c-0.171,1.243-0.141,1.404-0.66,2.412c-0.162,0.251,0.019,1.526-0.162,0.789l3.357,2.316c0.96-1.951,0.78-1.329,1.145-1.911c1.031-2.085,1.144-2.165,1.516-4.69C88.084,191.275,88.11,190.306,87.784,188.851L87.784,188.851z M75.889,198.337L75.889,198.337l1.23-3.265c-0.972-0.364-0.329-0.161,0.262-0.275c0.648-0.208,0.595,0.11,1.114-0.396c0.129-0.155,1.28,0.838,1.461-0.385l1.426,0.095c-0.263,0.383-0.533,1.599-0.831,1.949c-1.075,1.007,0.136,1.235-1.181,1.681C78.547,197.916,76.656,198.558,75.889,198.337L75.889,198.337z M143.554,191.185c0.423-3.211,0.087-1.148-0.664,0.259c-0.946,1.409-1.751,2.156-3.009,2.735c-0.356,0.096-0.698,0.148-1.059,0.176l0.379,8.163c0.825-0.086,1.614-0.24,2.424-0.478c2.547-1.263,4.371-2.791,6.328-5.615c1.071-1.937,1.671-3.194,2.102-5.621L143.554,191.185z M191.594,201c-0.367-0.232-0.731-0.504-1.116-0.791c-0.531-0.397-1.081-0.807-1.678-1.137l-0.116-0.064l-0.129-0.032c-0.331-0.082-0.63-0.163-0.913-0.239c-1.056-0.284-1.969-0.53-3.442-0.55h-4.463l-0.274,0.216c-0.725,0.574-1.228,1.045-1.551,1.356l-0.415-0.15l-0.13,0.356c-0.034,0.092-0.069,0.188-0.102,0.286l-0.043,0.118l0.005,0.002c-0.144,0.482-0.181,0.995,0.365,1.351c0.7,0.457,1.272-0.093,1.615-0.422c0.253-0.243,0.654-0.629,1.234-1.105h3.746c1.208,0.017,1.932,0.211,2.933,0.481c0.256,0.069,0.525,0.141,0.818,0.215c0.44,0.256,0.878,0.583,1.339,0.927c0.398,0.297,0.81,0.605,1.243,0.879L191.594,201z M178.688,200.038c0.001,0,0.001,0.001,0.002,0.001l-0.422-0.153C178.406,199.903,178.55,199.949,178.688,200.038z M70.883,194.945L70.883,194.945l0.415-0.575l0.475-0.775c-0.47-0.247-0.403-0.093,0.215-0.368c0.656-0.393,0.646-0.784,1.082-1.47c0.101-0.203,0.322-0.402,0.677-0.617l2.813,2.697c-0.187,0.487,0.094,0.177-0.141,0.636c-0.913,1.377-0.959,1.693-2.285,2.517C72.869,196.935,70.707,195.782,70.883,194.945L70.883,194.945z M95.585,194.813l-1.377-5.424c-1.077,1.024-0.4,0.313-0.06-0.601c0.295-1.075,0.381-1.893,0.299-3.049c-0.048-0.312-0.109-0.605-0.183-0.908l3.078-1.407c0.161,0.696,0.289,1.377,0.391,2.093c0.132,2.359-0.002,4.18-0.58,6.383C96.694,193.19,96.373,193.948,95.585,194.813L95.585,194.813z M98.56,186.295c-1.32-0.026-0.465,0.048,0.176,0.567c0.663,0.694,1.048,1.333,1.416,2.399c0.077,0.308,0.136,0.61,0.186,0.931l3.197-1.237c-0.125-0.73-0.272-1.421-0.456-2.122c-0.781-2.146-1.587-3.614-2.923-5.059c-0.886-0.748-1.451-1.148-2.461-1.268L98.56,186.295z M92.757,198.99L92.757,198.99L92.757,198.99l-2.441-2.476c-0.934-0.389-1.162-0.781-0.961-2.013c0.088-1.398-0.041-2.396-0.51-3.707c-0.163-0.342-0.339-0.654-0.537-0.971l3.924-3.135c0.441,0.735,0.83,1.468,1.194,2.256c0.909,2.692,1.278,4.884,1.135,7.737C94.306,198.409,93.607,197.598,92.757,198.99L92.757,198.99z M205.01,207.698c-0.367-0.232-0.731-0.504-1.115-0.791c-0.531-0.397-1.081-0.807-1.678-1.137l-0.116-0.064l-0.129-0.032c-0.331-0.082-0.63-0.163-0.913-0.239c-1.056-0.284-1.969-0.53-3.428-0.55l-0.028,2.008c1.208,0.017,1.932,0.212,2.934,0.481c0.256,0.069,0.525,0.141,0.818,0.215c0.44,0.256,0.878,0.583,1.339,0.927c0.398,0.297,0.81,0.605,1.243,0.879L205.01,207.698z M196.99,194.771c-0.387-0.127-0.779-0.294-1.193-0.471c-0.582-0.248-1.184-0.505-1.826-0.671l-0.137-0.035l-0.141,0.004c-0.336,0.009-0.64,0.01-0.927,0.012c-1.077,0.005-2.008,0.01-3.441,0.382l0.505,1.943c1.189-0.309,1.926-0.313,2.945-0.318c0.258-0.001,0.528-0.003,0.821-0.009c0.455,0.131,0.921,0.329,1.412,0.539c0.435,0.186,0.885,0.378,1.354,0.532L196.99,194.771z M162.974,200.294l-0.046-1.512c-0.74,0.024-1.171-0.112-1.824-0.316c-0.157-0.049-0.322-0.1-0.5-0.152c-0.274-0.203-0.552-0.464-0.844-0.74c-0.263-0.248-0.536-0.505-0.823-0.733l-0.94,1.185c0.237,0.188,0.475,0.412,0.726,0.649c0.353,0.333,0.718,0.677,1.119,0.953l0.103,0.071l0.12,0.034c0.214,0.06,0.407,0.121,0.589,0.177c0.662,0.207,1.241,0.388,2.118,0.388C162.837,200.297,162.904,200.296,162.974,200.294z M173.695,178.101c-3.552-0.109-6.525-0.186-9.179-0.254c-1.456-0.038-2.816-0.073-4.125-0.11c-1.868-0.047-4.38-0.121-6.903-0.194c-2.283-0.067-4.576-0.134-6.411-0.182l-0.044,1.664c1.833,0.048,4.124,0.115,6.406,0.182c2.526,0.074,5.04,0.148,6.908,0.195c1.308,0.037,2.669,0.072,4.126,0.109c2.651,0.069,5.621,0.145,9.171,0.254L173.695,178.101z M131.586,183.476c0.155-0.035,0.317-0.072,0.492-0.115c0.289,0.045,0.601,0.139,0.93,0.237c0.317,0.095,0.645,0.193,0.984,0.257l0.281-1.486c-0.261-0.05-0.538-0.132-0.83-0.22c-0.426-0.127-0.866-0.259-1.328-0.309l-0.136-0.014l-0.132,0.034c-0.215,0.055-0.41,0.099-0.595,0.141c-0.717,0.163-1.336,0.304-2.234,0.839l0.774,1.3C130.484,183.727,130.923,183.627,131.586,183.476z M44.596,176.065L44.596,176.065l-1.93-1.495c0.56-1.321,0.182-0.489-0.227-0.055c-0.466,0.385-0.8,0.511-1.243,0.447c-0.116-0.048-0.222-0.113-0.33-0.193l-0.49,1.45c0.25,0.173,0.242,2.301,0.508,2.403c0.908,0.09,1.386,0.162,2.337-0.594C43.795,177.441,44.14,177.035,44.596,176.065L44.596,176.065z M73.432,212.82c-0.145,3.097-4.116,2.277-5.806,2.286l0.475-0.814c0.209-0.002,1.677-1.012,2.251-1.327L73.432,212.82L73.432,212.82L73.432,212.82z M77.276,211.418c-0.124,4.371-3.51,3.214-4.951,3.227l0.405-1.148c0.178-0.002,1.431-1.428,1.92-1.873L77.276,211.418L77.276,211.418z M83.468,211.615c-0.17,6.494-4.822,4.775-6.802,4.794l0.556-1.706c0.244-0.003,1.965-2.122,2.637-2.784L83.468,211.615L83.468,211.615z M89.59,211.516c-0.17,6.494-4.822,4.775-6.802,4.794l0.556-1.706c0.244-0.003,1.965-2.122,2.637-2.784L89.59,211.516L89.59,211.516L89.59,211.516z M67.429,211.516c-0.145,6.494-4.116,4.775-5.806,4.794l0.475-1.706c0.209-0.003,1.677-2.122,2.251-2.784L67.429,211.516L67.429,211.516z M150.259,204.375l-0.402-1.572c-0.86,0.219-1.406,0.197-2.162,0.166c-0.189-0.008-0.388-0.016-0.602-0.021c-0.342-0.128-0.697-0.314-1.071-0.51c-0.337-0.176-0.686-0.359-1.048-0.51l-0.624,1.498c0.296,0.123,0.599,0.282,0.919,0.449c0.452,0.236,0.919,0.481,1.415,0.649l0.12,0.041l0.127,0.002c0.252,0.004,0.481,0.014,0.697,0.023c0.265,0.011,0.518,0.021,0.775,0.021C148.951,204.612,149.518,204.565,150.259,204.375z M143.897,210.039c0.939-0.096,1.867-0.289,2.765-0.476c0.668-0.139,1.3-0.271,1.928-0.363l-0.363-2.463c-0.701,0.103-1.398,0.249-2.073,0.389c-0.832,0.173-1.62,0.337-2.393,0.424c-0.46-0.042-0.883-0.075-1.284-0.106c-1.534-0.12-2.642-0.206-4.361-0.67l-0.649,2.404c1.943,0.524,3.275,0.628,4.816,0.749c0.425,0.033,0.876,0.068,1.371,0.114l0.121,0.012L143.897,210.039z" />
    <path fill="none" stroke="#650000" stroke-width="0.8494" d="M72.001,185.523c-2.473-0.39-8.728,5.031-6.711,11.771 M72.378,179.479c-3.339,21.121,17.143,12.94,17.284,5.825 M88.486,188.355c0.273,2.775,0.434,10.527-2.433,12.508c-2.867,1.982-6.457,2.216-9.259,1.265 M82.141,192.651c-0.281,2.728-3.017,9.521-8.347,8.588 M39.042,163.436c2.787,0.275,4.18,2.48,4.777,4.409s0.995,3.031,0.995,3.031 M41.417,179.127c1.194,0.551,3.384,0,3.384,0 M42.58,182.099c2.636,0.827,5.273-0.551,5.273-0.551 M54.966,194.022c2.787-0.827,4.578-2.48,4.578-2.48 M51.981,162.211c-1.592,1.929-1.393,5.511-1.393,5.511 M84.824,162.333c0.398,3.582-1.194,5.511-2.19,5.511c-0.995,0-2.107,1.337-1.495,3.487 M88.981,161.782c-1.791,2.48-2.19,5.236-1.592,7.44c0.597,2.204,0.031,2.845,0.031,2.845 M67.706,182.173c-3.185,0.855-4.482,6.683-2.785,9.818 M96.966,173.907h-2.19c0,0-1.393,3.031-3.782,2.204s-0.199,0-0.199,0 M85.222,171.379c3.408,0.088,2.723,2.803,0.199,2.527c0.199,3.307-3.767,2.89-3.427,0.357c-2.385,0.072-3.363-3.273,0.101-2.81 M165.887,173.91c0.702-2.137,3.93-4.081,3.93-4.081l0,0 M161.196,173.799c1.404-2.526,3.93-4.081,3.93-4.081 M154.344,174.034c2.133-1.285,2.732-1.793,3.432-2.455c0.756-0.74,2.246-2.137,2.246-2.137 M148.394,173.954c1.562-0.816,2.771-1.295,3.817-2.07c1.313-0.921,2.22-2.167,2.22-2.167 M149.675,167.208c-4.962-1.689-7.182-5.043-7.182-5.043 M157.936,160.057c-3.286,1.371-9.966,0.777-10.247,0.777 M98.481,203.402c0.983-3.49,2.825-4.276,5.13-5.417c2.386-0.971,6.018-3.91,3.772-1.773c-2.246,2.138-5.486,3.498-6.609,4.275s-1.825,2.51-1.252,3.303 M93.768,190.189c2.105,3.498,0.805,8.365-1.862,9.726 M100.786,178.142c3.418,1.419,3.539,4.76,4.032,6.734c-1.205-0.557-2.08-0.29-2.984-0.701 M99.439,180.064c2.322,3.176,3.206,5.119,3.34,6.226c0.219,1.921,0.23,6.66-5.257,6.583c0.511-1.412,1.157-5.139,0.279-6.635 M98.15,189.642c0,3.109-2.147,4.385-3.13,4.773 M89.838,175.81c0.14,3.692-6.597,6.412-6.457,0.777 M83.362,176.781c-0.143,2.72-3.85,3.303-5.133,0.972c-0.998-1.555-1.568-2.332-2.281-2.526s-0.633-2.457-0.777-2.79c-0.087-0.453-0.548-1.621-0.779-2.06 M47.128,160.017c0.281,1.749-0.14,2.137-0.561,3.692s0.14,4.275,0.14,4.275 M46.387,208.789c1.404-0.389,4.351,0,4.351,0 M51.62,213.382c0.842-1.555,2.807-2.915,2.807-2.915 M67.379,215.449c0.702-0.972,0.702-4.081,0.702-4.081 M72.5,215.426c1.117-1.275,1.178-4.011,1.178-4.011 M76.57,215.357c1.123-2.138,0.939-4.607,0.939-4.607 M82.948,215.59c0.702-1.166,0.702-3.886,0.702-3.886 M128.438,209.426c-2.527-0.583-4.071,2.915-4.071,2.915 M131.756,208.86c-0.281,2.526-2.246,4.858-2.246,4.858 M135.737,208.649c-0.14,2.138-2.386,5.052-2.386,5.052 M140.69,207.795c-0.37,2.843-2.39,4.974-2.39,4.974 M144.338,206.793c0.14,2.526-1.123,6.412-1.965,7.19 M148.689,207.871c0.421,1.36,0,3.303,0,3.303 M121.241,202.571c1.684,0.389,2.667,2.332,2.667,2.332 M118.365,207.449c0.885-3.059,4.699-1.564,5.161-0.744 M190.397,193.355c-1.404-0.194-3.509,0.583-3.509,0.583 M196.924,196.035c-1.965,0.777-4.211,0.972-4.211,0.972 M199.449,200.516c-1.684-0.194-2.948-0.194-2.948-0.194 M202.723,204.738c-1.684-0.194-4.351,0-4.351,0 M201.428,210.203c-0.561-1.555-2.246-1.943-2.246-1.943 M184.883,213.82c0.421-2.332,3.21-4.2,4.755-4.2c1.544,0,1.544,0,1.544,0 M182.566,208.665c1.684-0.583,4.351-0.777,4.351-0.777 M73.373,199.494c1.684-1.36,3.01-4.162,3.01-4.162 M93.908,165.511c-1.684,1.749-1.825,1.943-1.825,1.943 M95.593,168.815c-2.246,0.194-2.367,0.094-2.367,0.094 M87.597,167.504c1.661-0.609,5.525-0.097,5.469,1.319c0.002,1.739-1.511,1.845-5.503,0.2l0.034-1.277V167.504L87.597,167.504L87.597,167.504L87.597,167.504z M82.362,167.684c0.207-2.066-3.827-4.103-4.81-2.951c-1.197,1.904,2.198,3.602,3.099,3.602c0.842,0,0.343,0.108,0.343,0.108 M93.318,175.418c-1.527,4.227-0.254,8.102-0.254,8.102 M75.251,176.475c-1.272,1.057-2.29,0.705-2.29,0.705 M68.877,177.539c-4.687,2.468-5.488,4.649-4.757,9.847 M100.723,170.434c-1.342,0.61-1.144,3.792-1.144,3.792l0,0 M72.182,166.004c1.433,1.012,0.86,4.047,0.86,4.047 M77.726,176.663c-0.158,3.861-2.25,5.919-2.25,5.919 M75.616,174.867c-1.077,4.208,0.302,7.588,0.302,7.588 M86.271,179.794c-0.255,3.82,1.597,6.196,1.597,6.196 M88.555,178.387c0.618,4.316-1.109,7.404-1.109,7.404 M101.313,175.953c0.417,0.208,1.485,0.017,3.448,0.84c-0.812,1.197-2.907,1.893-3.724,1.543 M106.188,201.65c-2.415,0.824-3.547,0.881-4.337,0.152 M108.877,199.62c-2.119,0.824-3.325,1.107-4.377,0.434 M112.462,197.138c-1.409,0.824-2.211,1.107-2.911,0.434 M114.947,195.22c-1.724,0.824-2.706,1.107-3.563,0.434 M46.921,160.017c0.281,1.749-0.14,2.137-0.561,3.692s0.14,4.275,0.14,4.275 M52.257,162.211c-1.592,1.929-1.393,5.511-1.393,5.511 M39.249,163.055c2.853,0.275,4.28,2.48,4.891,4.409s1.019,3.031,1.019,3.031" />
  </g>
  <g>
    <path fill="#0000FF" stroke="#650000" stroke-width="0.7849" d="M124.951,136.169c-0.657,1.063,1.146,5.778,3.935,5.659c-1.819-2.916-1.627-6.308-1.627-6.308L124.951,136.169L124.951,136.169L124.951,136.169L124.951,136.169z M118.026,131.063c-1.005,0.148-3.432,6.348,0.437,8.559c0.124-3.849,1.945-6.133,1.945-6.133l-2-1.722l0,0L118.026,131.063L118.026,131.063L118.026,131.063z M117.55,127.365c-0.977-1.027-5.201,1.956-5.027,6.407c2.596-2.968,5.669-2.736,5.669-2.736L117.55,127.365L117.55,127.365L117.55,127.365z M122.434,123.767c-0.069-1.396-3.743-3.009-5.672-0.218c2.774,0.315,4.354,2.92,4.354,2.92L122.434,123.767L122.434,123.767L122.434,123.767L122.434,123.767z M196.526,136.75c-0.067,1.279,0.26,1.724,0.888,2.442s1.34,2.851,1.34,2.851s2.012-5.619,1.509-6.374C199.759,134.916,196.651,136.714,196.526,136.75L196.526,136.75z M185.881,134.424c-1.001-0.193-2.896,4.453-1.319,7.64c0.793-3.693,2.959-5.3,2.959-5.3L185.881,134.424L185.881,134.424L185.881,134.424z M180.996,133.027c-0.78-0.89-4.152,1.694-4.014,5.552c2.072-2.571,4.526-2.37,4.526-2.37L180.996,133.027L180.996,133.027L180.996,133.027z M183.555,127.062c-0.537-1.186-4.326-0.208-5.075,3.513c2.553-1.534,4.835-0.27,4.835-0.27L183.555,127.062L183.555,127.062L183.555,127.062z M57.631,124.456c0.364-1.305-2.471-4.92-5.072-3.522c2.416,1.911,3.052,5.197,3.052,5.197L57.631,124.456L57.631,124.456L57.631,124.456L57.631,124.456z M46.767,132.613c-0.946-1.178-4.914,2.174-4.678,7.242c2.421-3.352,5.347-3.057,5.347-3.057L46.767,132.613L46.767,132.613L46.767,132.613z M47.114,125.443c-0.407-1.669-5.053-1.44-6.642,3.137c3.297-1.278,5.743,0.964,5.743,0.964L47.114,125.443L47.114,125.443L47.114,125.443z M51.846,138.98c-0.254,1.233,0,1.761,0.509,2.642s0.891,3.17,0.891,3.17s2.799-4.932,2.417-5.812C55.282,138.099,51.974,138.98,51.846,138.98z M40.316,82.27c0-1.761-4.455-3.603-7.017,0.03c3.419,0.249,5.218,3.457,5.218,3.457L40.316,82.27L40.316,82.27L40.316,82.27z M35.692,89.284c-0.946-1.178-4.914,2.174-4.678,7.242c2.421-3.352,5.347-3.057,5.347-3.057L35.692,89.284L35.692,89.284L35.692,89.284L35.692,89.284z M51.861,81.664c0.43-1.658-3.312-5.476-6.611-3.257c3.156,1.835,4.066,5.696,4.066,5.696L51.861,81.664L51.861,81.664L51.861,81.664z M57.144,87.716c0.742-0.95-0.653-5.924-3.433-6.254c1.561,3.189,1.087,6.527,1.087,6.527L57.144,87.716L57.144,87.716L57.144,87.716L57.144,87.716z" />
    <path fill="#FFCD00" stroke="#650000" stroke-width="0.7849" d="M71.994,93.552c-2.797-3.254-0.033-9.189,2.474-6.658c-1.313-2.429,0.834-4.352,1.809-3.135c-0.453-1.977,1.606-3.287,2.616-1.463c-0.363-2.205,2.691-3.495,3.483-1.086c0.053-2.167,3.038-3.878,3.697-0.704c0.581-2.443,3.909-2.763,4.185,0.708c0.971-2.019,3.466-1.871,3.611,1.062c1.079-1.379,3.866,0.685,3.391,3.125c1.722-0.373,3.825,3.113,1.727,5.682c3.723-1.986,4.602,4.452,2.34,7.374c1.17,0.714,1.273,0.084,2.305,0.619c1.032,0.536,2.904,1.418,4.617,1.798c1.548,0,7.225-0.179,8.386-0.357c1.161-0.179,2.748-0.785,4.645-1.429c1.986-0.644,4.859-0.668,7.48-1.304c2.077-0.233,60.384,0.947,62.062,0.768c1.677-0.179,4.125-1.791,3.996-3.755c-0.129-1.965-2.061-3.389-3.996-3.567c-1.935-0.179-11.87-0.179-13.676,0.179s-4.387,1.25-5.677,2.5c-0.62,0.4-1.645,1.911-2.513,2.906c-0.813,0.685-3.108,0.786-3.108-0.107c0-0.584-0.193,0.112-0.757,0.339c-0.732,0.458-4.034,0.584-3.888,0c0.258-0.661-0.017-0.869-0.886-0.179c-0.645,0.536-5.209,0.733-6.047,0.203c0.503-0.84,0.507-0.792-0.865-0.101c-0.868,0.381-4.464,0.68-4.722-0.053c-0.035-0.578-0.442-0.295-0.949-0.131c-4.075,1.066-4.466-0.168-3.821-0.704s1.622-3.601,0.59-3.423c-1.032,0.179-7.483,1.429-9.676,1.786s-18.063,0-20.256-0.179c-2.193-0.179-4.644-2.243-4.774-5.179c-0.23-4.71,3.613-5.894,5.935-6.608s8.128-1.786,10.451-1.786c2.322,0,8.946,0.822,10.753,0.107c1.806-0.714,7.292-2.71,8.842-2.858c2.287-0.212,8.837,0.562,11.959,4.316c-1.625,0.738-2.39,1.173-0.545,0.506c1.677-0.357,8.877-1.857,10.554-2.25c5.806-0.25,4.284,0.643,1.445,1.357c-0.947,3.02-9.479,7.235-12.188,7.771s-8.459,0.143-9.745-0.091c-1.29-0.097-7.395-0.402-9.617-1.842c-3.591-2.436-10.225-4.037-13.134-3.981c-2.721,0.054-10.484,0.87-10.451,3.572c-0.041,4.746,7.225,5.001,10.322,4.822c3.096-0.179,10.838-0.536,13.031-1.429s6.938-1.112,9.518-1.112s6.351,0.577,7.513,0.398c1.161-0.179,3.871-0.219,5.161-1.112s4.095-1.827,6.934-1.827s23.902-0.811,26.74-0.633c4.109-0.028,7.011,4.463,7.061,8.282c0.023,1.786-0.851,4.425-1.594,4.834c1.275,0.118,4.465,0.477,5.518,0.697c1.976,0.392,5.18,2.57,5.547,4.554c-1.501-0.912-3.923-2.289-6.107-2.439c-0.427,0.005-46.406-0.077-50.02-0.055c9.825,1.161,17.333,8.728,19.21,13.061c1.677,2.679,5.806,1.607,7.354,1.25s3.354-1.965,4.645-3.215c1.29-1.25,3.307-1.567,4.218-1.25c2.005-0.179,2.362,1.965,1.588,3.036c-0.774,1.072,0.128,0.631,2.193,0.631c2.064,0,3.884,0.769,5.102,2.391c-1.161,1.072-1.746,0.193-0.069,0.371c1.677,0.179,3.702,3.255,2.451,4.123c-1.093,0.542-1.419,0.343,0,0.521c2.116,0.179,2.693,1.549,2.967,3.984c-1.791,0.328-0.903-0.233,0,0.66s2.219,4.848-1.032,5.001c-1.161-0.536-1.14-0.64-0.893,0.576c0.229,1.25-0.398,4.247-2.204,4.247c-2.503,0.482-4.774-0.893-5.032-2.5s-0.224,3.102-3.772,3.845c-3.35,0.745-5.13-1.166-5.388-2.059s-0.129-0.179-1.419-0.357c-1.29-0.179-2.916-0.195-3.613-2.322c0-1.25,0.251-2.898,2.55-3.121c1.032-0.179,1.321-1.523,0.546-1.702c-0.774-0.179-0.129-2.858,1.548-2.143c1.677,0.714,5.548,0.893,6.451,1.786s1.161-0.714-0.258-2.143c-1.419-1.429-10.064-4.287-12.386-3.215c-5.408,2.725-14.45,2.322-15.998,1.965s-6.02,0.617-8.128-5.894c-1.71-6.649-8.209-9.935-11.177-10.292c-14.638-1.378-13.843-0.318-4.35,0.131c-0.071,1.241-0.415,3.783,1.124,4.155c2.58-0.357,7.951-1.496,9.241-0.425c1.29,1.072,2.58,1.965,2.322,4.465s0.129,1.786-1.032,2.858s-0.645,3.215,1.161,3.929s2.58,1.607,3.742,2.679c1.161,1.072-0.516,3.215-1.548,2.5c-1.032-0.714-1.032-0.714-1.161,0.714c-0.129,1.429-1.411,4.133-3.592,4.331c-0.458-0.173-0.331-0.912-0.279-1.473c0.129-1.25-0.436,1.553-1.11,2.331c-0.429,0.525-4.082,1.552-5.114,1.016c0.461-1.119,0.195-0.662-0.709-0.126c-0.881,0.351-5.637,1.012-3.518-1.256c0.55-0.826-0.756,1.032-1.476,1.356c-0.605,0.377-3.427,0.608-3.427-0.463c-0.895,0.788-3.027,0.788-3.354,0.179c-0.645-0.714-0.706,0.536-1.867,0.714c-1.161,0.179-3.681-0.179-3.81-1.607c-0.129-1.429,0.258-0.536-1.161-0.357c-3.455,2.292-5.161-0.893-5.161-1.965s-0.129-2.322,0.258-3.036s-2.404-0.93-1.548-2.337c0.962-1.72,1.972-2.981,3.871-2.664c0.903,0.179,0.774-0.357,0.387-1.072c-0.387-0.714,1.032-1.072,2.709-0.357c1.677,0.714,2.838,2.5,3.354,4.108c0.516,1.607,4.516,0.357,6.193,0.536c1.677,0.179,1.806-2.679,0.774-3.572s-3.871-4.108-5.032-5.18c-1.161-1.072-0.387-4.822,0.645-5.715c6.008-4.062,2.709-5.358,0.516-5.001c-2.193,0.357-7.83,2.613-9.636,4.577c-1.806,1.965-15.84,11.594-17.13,12.666s-3.167,1.332-3.941,0.082s-1.29-0.357-1.161,1.429c1.025,6.746-5.032,8.896-6.094,8.811c-0.739-0.076-1.798-0.488-2.561-1.123c-0.753,3.77-4.083,4.145-7.091,3.772c-0.046-0.445,0.561-1.276,0.23-0.958c-0.995,1.295-4.05,1.159-6.674,0.962c-0.175-0.788,0.905-1.743,0.389-1.207c-0.881,1.658-2.395,1.36-4.849,1.184c-0.029-0.349,1.137-1.518,0.594-0.818c-1.074,1.175-3.311,0.807-5.048,0.836c-0.206-0.263,0.898-2.11-0.112-0.889c-0.965,1.041-3.008,1.215-4.961,0.936c-0.347-0.878,0.406-0.887,0.614-1.438c0.516-0.893-0.258,0-0.903,0s-1.548,0.179-1.935-0.714s-0.165,0.893-0.54,1.38c-0.375,0.422-0.797,1.412-2.088,1.77c-1.29,0.357-4.645,0.714-5.161-0.893c-0.695-0.74-1.032-2.322-0.516-3.215c0.516-0.893-2.457,1.723-3.742,1.965c-3.778,0.73-4.258-5.18-2.58-5.715c1.677-0.536,1.419-1.429,0.516-2.143c-0.903-0.714-1.419-3.572-0.258-4.465s3.848-1.388,5.548-0.357c0.994,0.683,3.123,3.025,2.709,1.25c-0.288-1.097,0.448-2.493,1.272-3.092c0.715-0.658,2.915-0.826,3.502,0.592c1.36,3.287,2.322,4.702,4,4.644c3.573-0.977,8.402-2.083,9.821-2.083c1.821-0.433,11.462-1.378,11.462-2.271c-5.782,2.001-8.119-0.589-8.764-0.411c-0.645,0.179-2.233-0.58-2.233-1.078c0-1.072,1.456-0.944-0.608-0.587c-1.236-0.102-2.337-0.159-3.377-1.449c-0.17-0.659,1.367-2.924,1.925-4.829c-1.332-0.361-4.278,2.038-5.243,4.153c-0.677-0.811-0.951-0.074-3.368,0.517c-1.14,0.497-2.995,0.319-4.027-0.217s-5.076-3.601-3.12-3.995c-0.515-0.252-1.106-0.396-1.496-0.504c-1.419-0.606-2.761-1.784-2.348-2.107c-0.36-0.537,0.411-0.535-0.157-0.642c-0.774-0.179-2.68-1.569-2.191-2.106c-0.489-0.323-1.649-0.821-2.14-1.072c-0.903-0.536-1.808-2.395-1.937-3.288c-0.832,0.08-2.608-1.495-1.806-1.965c-1.356-1.007-2.51-2.665-1.607-3.2c-0.791-0.624-1.344-1.763-0.793-1.336c-0.823-1.007-0.568-2.072,0.078-2.072c0.645,0,0.387-2.858-0.774-2.858s-3.029,0.902-4.387,0c-1.117-0.855-2.064-4.644-1.032-6.251c1.032-1.607,3.096-3.394,4.129-3.215c1.032,0.179,0.516,0.536,0.258-1.072c-0.258-1.607,1.457-2.815,2.58-3.215c1.362-0.623,4-0.179,4.774,0.536c0.774,0.714,1.032,0.714,1.032-0.536c0-0.878,0.997-1.336,1.884-1.567c1.477-0.348,2.632,0.071,3.148,0.674c0.802,1.149,1.29,2.5,0.258,3.572s-0.136,0.163,1.541-0.194c1.08-0.357,3.029,0.103,3.362,1.265c0.448,1.25,0.774,3.394-0.387,4.465c-1.161,1.072-2.838,3.751-1.935,4.644s3.742,4.822,4.387,5.358s1.419,1.786,2.451,1.607c1.032-0.179,2.193-0.357,3.096-0.536c3.584-0.721,5.2-1.096,0.6-0.949c1.033-1.46,3.196-1.89,4.134-2.147C68.935,96.535,71.994,93.909,71.994,93.552L71.994,93.552z" />
    <path stroke="#650000" stroke-width="0.8265" d="M78.007,100.091c1.722,3.006,5.827,1.202,6.887,2.405c1.06,1.202-1.029,5.39-1.692,7.795c-1.53,2.071-4.938,1.936-6.191,0.399c0.675-2.872,0.731-8.995,0.863-9.196L78.007,100.091L78.007,100.091L78.007,100.091L78.007,100.091L78.007,100.091L78.007,100.091z" />
    <path fill="none" stroke="#650000" stroke-width="0.7849" stroke-opacity="0.3" d="M94.336,105.691c1.272,2.466,1.647,6.652,0.209,8.683 M89.756,111.327c1.272,0.705,3.054,4.932,2.799,6.341c-0.254,1.409-0.254,1.409-0.254,1.409 M89.247,113.088c0.763,2.114,1.781,5.284,1.527,6.341s-0.254,1.057-0.254,1.057 M84.666,115.202c0.509,2.114,0.254,5.636-0.509,6.341c-0.763,0.704-0.763,0.704-0.763,0.704 M83.394,115.554c-0.763,2.466-1.527,5.989-1.527,5.989 M71.18,108.861c-1.272,1.057-3.054,3.523-3.054,3.523 M72.707,112.384c-2.036-1.409-4.326,1.057-4.326,1.057" />
    <path fill="none" stroke="#650000" stroke-width="1.5243" stroke-linecap="round" d="M91.304,90.505c-0.254,1.594-0.254,1.594-0.254,1.594 M80.836,87.628c-0.299,1.198-0.829,2.43-0.829,2.43" />
    <path opacity="0.0892" fill="#650000" enable-background="new    " d="M56.35,114.235l-0.379-0.89l2.588-1.102c2.18-0.928,2.18-0.928,3.658-4.852l0.458-1.212l0.904,0.344l-0.457,1.21c-1.532,4.067-1.624,4.31-4.184,5.401L56.35,114.235z M69.246,105.223c0.085-0.088,2.095-2.181,3.639-4.319c0.275-0.38,0.189-0.911-0.191-1.185c-0.38-0.274-0.91-0.189-1.185,0.191c-1.472,2.038-3.466,4.115-3.486,4.135c-0.325,0.338-0.315,0.875,0.023,1.2c0.165,0.159,0.377,0.238,0.589,0.238C68.857,105.483,69.08,105.396,69.246,105.223z M55.848,119.087l-0.258-0.932c1.485-0.412,3.708-1.356,4-2.164l0.91,0.329C59.934,117.884,56.525,118.899,55.848,119.087z M87.784,111.374l-3.551,3.906c-0.508-1.841-1.391,0.049-1.461,1.179c-0.171,1.243-0.141,1.404-0.66,2.412c-0.162,0.251,0.019,1.526-0.162,0.789l3.357,2.316c0.96-1.951,0.78-1.329,1.145-1.911c1.031-2.085,1.144-2.165,1.516-4.69C88.084,113.798,88.11,112.829,87.784,111.374L87.784,111.374z M75.889,120.86L75.889,120.86l1.23-3.265c-0.972-0.364-0.329-0.161,0.262-0.275c0.648-0.208,0.595,0.11,1.114-0.396c0.129-0.155,1.28,0.838,1.461-0.385l1.426,0.095c-0.263,0.383-0.533,1.599-0.831,1.949c-1.075,1.007,0.136,1.235-1.181,1.681C78.547,120.439,76.656,121.081,75.889,120.86L75.889,120.86z M143.554,113.708c0.423-3.211,0.087-1.148-0.664,0.259c-0.946,1.409-1.751,2.156-3.009,2.735c-0.356,0.096-0.698,0.148-1.059,0.176l0.379,8.163c0.825-0.086,1.614-0.24,2.424-0.478c2.547-1.263,4.371-2.791,6.328-5.615c1.071-1.937,1.671-3.194,2.102-5.621L143.554,113.708z M191.594,123.523c-0.367-0.232-0.731-0.504-1.116-0.791c-0.531-0.397-1.081-0.807-1.678-1.137l-0.116-0.064l-0.129-0.032c-0.331-0.082-0.63-0.163-0.913-0.239c-1.056-0.284-1.969-0.53-3.442-0.55h-4.463l-0.274,0.216c-0.725,0.574-1.228,1.045-1.551,1.356l-0.415-0.15l-0.13,0.356c-0.034,0.092-0.069,0.188-0.102,0.286l-0.043,0.118l0.005,0.002c-0.144,0.482-0.181,0.995,0.365,1.351c0.7,0.457,1.272-0.093,1.615-0.422c0.253-0.243,0.654-0.629,1.234-1.105h3.746c1.208,0.017,1.932,0.211,2.933,0.481c0.256,0.069,0.525,0.141,0.818,0.215c0.44,0.256,0.878,0.583,1.339,0.927c0.398,0.297,0.81,0.605,1.243,0.879L191.594,123.523z M178.688,122.561c0.001,0,0.001,0.001,0.002,0.001l-0.422-0.153C178.406,122.426,178.55,122.472,178.688,122.561z M70.883,117.468L70.883,117.468l0.415-0.575l0.475-0.775c-0.47-0.247-0.403-0.093,0.215-0.368c0.656-0.393,0.646-0.784,1.082-1.47c0.101-0.203,0.322-0.402,0.677-0.617l2.813,2.697c-0.187,0.487,0.094,0.177-0.141,0.636c-0.913,1.377-0.959,1.693-2.285,2.517C72.869,119.458,70.707,118.305,70.883,117.468L70.883,117.468z M95.585,117.336l-1.377-5.424c-1.077,1.024-0.4,0.313-0.06-0.601c0.295-1.075,0.381-1.893,0.299-3.049c-0.048-0.312-0.109-0.605-0.183-0.908l3.078-1.407c0.161,0.696,0.289,1.377,0.391,2.093c0.132,2.359-0.002,4.18-0.58,6.383C96.694,115.713,96.373,116.471,95.585,117.336L95.585,117.336z M98.56,108.818c-1.32-0.026-0.465,0.048,0.176,0.567c0.663,0.694,1.048,1.333,1.416,2.399c0.077,0.308,0.136,0.61,0.186,0.931l3.197-1.237c-0.125-0.73-0.272-1.421-0.456-2.122c-0.781-2.146-1.587-3.614-2.923-5.059c-0.886-0.748-1.451-1.148-2.461-1.268L98.56,108.818z M92.757,121.514L92.757,121.514L92.757,121.514l-2.441-2.476c-0.934-0.389-1.162-0.781-0.961-2.013c0.088-1.398-0.041-2.396-0.51-3.707c-0.163-0.342-0.339-0.654-0.537-0.971l3.924-3.135c0.441,0.735,0.83,1.468,1.194,2.256c0.909,2.692,1.278,4.884,1.135,7.737C94.306,120.932,93.607,120.121,92.757,121.514L92.757,121.514z M205.01,130.221c-0.367-0.232-0.731-0.504-1.115-0.791c-0.531-0.397-1.081-0.807-1.678-1.137l-0.116-0.064l-0.129-0.032c-0.331-0.082-0.63-0.163-0.913-0.239c-1.056-0.284-1.969-0.53-3.428-0.55l-0.028,2.008c1.208,0.017,1.932,0.212,2.934,0.481c0.256,0.069,0.525,0.141,0.818,0.215c0.44,0.256,0.878,0.583,1.339,0.927c0.398,0.297,0.81,0.605,1.243,0.879L205.01,130.221z M196.99,117.294c-0.387-0.127-0.779-0.294-1.193-0.471c-0.582-0.248-1.184-0.505-1.826-0.671l-0.137-0.035l-0.141,0.004c-0.336,0.009-0.64,0.01-0.927,0.012c-1.077,0.005-2.008,0.01-3.441,0.382l0.505,1.943c1.189-0.309,1.926-0.313,2.945-0.318c0.258-0.001,0.528-0.003,0.821-0.009c0.455,0.131,0.921,0.329,1.412,0.539c0.435,0.186,0.885,0.378,1.354,0.532L196.99,117.294z M162.974,122.817l-0.046-1.512c-0.74,0.024-1.171-0.112-1.824-0.316c-0.157-0.049-0.322-0.1-0.5-0.152c-0.274-0.203-0.552-0.464-0.844-0.74c-0.263-0.248-0.536-0.505-0.823-0.733l-0.94,1.185c0.237,0.188,0.475,0.412,0.726,0.649c0.353,0.333,0.718,0.677,1.119,0.953l0.103,0.071l0.12,0.034c0.214,0.06,0.407,0.121,0.589,0.177c0.662,0.207,1.241,0.388,2.118,0.388C162.837,122.82,162.904,122.819,162.974,122.817z M173.695,100.624c-3.552-0.109-6.525-0.186-9.179-0.254c-1.456-0.038-2.816-0.073-4.125-0.11c-1.868-0.047-4.38-0.121-6.903-0.194c-2.283-0.067-4.576-0.134-6.411-0.182l-0.044,1.664c1.833,0.048,4.124,0.115,6.406,0.182c2.526,0.074,5.04,0.148,6.908,0.195c1.308,0.037,2.669,0.072,4.126,0.109c2.651,0.069,5.621,0.145,9.171,0.254L173.695,100.624z M131.586,105.999c0.155-0.035,0.317-0.072,0.492-0.115c0.289,0.045,0.601,0.139,0.93,0.237c0.317,0.095,0.645,0.193,0.984,0.257l0.281-1.486c-0.261-0.05-0.538-0.132-0.83-0.22c-0.426-0.127-0.866-0.259-1.328-0.309l-0.136-0.014l-0.132,0.034c-0.215,0.055-0.41,0.099-0.595,0.141c-0.717,0.163-1.336,0.304-2.234,0.839l0.774,1.3C130.484,106.25,130.923,106.15,131.586,105.999z M44.596,98.588L44.596,98.588l-1.93-1.495c0.56-1.321,0.182-0.489-0.227-0.055c-0.466,0.385-0.8,0.511-1.243,0.447c-0.116-0.048-0.222-0.113-0.33-0.193l-0.49,1.45c0.25,0.173,0.242,2.301,0.508,2.403c0.908,0.09,1.386,0.162,2.337-0.594C43.795,99.964,44.14,99.558,44.596,98.588L44.596,98.588z M73.432,135.344c-0.145,3.097-4.116,2.277-5.806,2.286l0.475-0.814c0.209-0.002,1.677-1.012,2.251-1.327L73.432,135.344L73.432,135.344L73.432,135.344z M77.276,133.941c-0.124,4.371-3.51,3.214-4.951,3.227l0.405-1.148c0.178-0.002,1.431-1.428,1.92-1.873L77.276,133.941L77.276,133.941z M83.468,134.138c-0.17,6.494-4.822,4.775-6.802,4.794l0.556-1.706c0.244-0.003,1.965-2.122,2.637-2.784L83.468,134.138L83.468,134.138z M89.59,134.039c-0.17,6.494-4.822,4.775-6.802,4.794l0.556-1.706c0.244-0.003,1.965-2.122,2.637-2.784L89.59,134.039L89.59,134.039L89.59,134.039z M67.429,134.039c-0.145,6.494-4.116,4.775-5.806,4.794l0.475-1.706c0.209-0.003,1.677-2.122,2.251-2.784L67.429,134.039L67.429,134.039z M150.259,126.898l-0.402-1.572c-0.86,0.219-1.406,0.197-2.162,0.166c-0.189-0.008-0.388-0.016-0.602-0.021c-0.342-0.128-0.697-0.314-1.071-0.51c-0.337-0.176-0.686-0.359-1.048-0.51l-0.624,1.498c0.296,0.123,0.599,0.282,0.919,0.45c0.452,0.236,0.919,0.481,1.415,0.649l0.12,0.041l0.127,0.002c0.252,0.004,0.481,0.014,0.697,0.023c0.265,0.011,0.518,0.021,0.775,0.021C148.951,127.135,149.518,127.088,150.259,126.898z M143.897,132.562c0.939-0.096,1.867-0.289,2.765-0.476c0.668-0.139,1.3-0.271,1.928-0.363l-0.363-2.463c-0.701,0.103-1.398,0.249-2.073,0.389c-0.832,0.173-1.62,0.337-2.393,0.424c-0.46-0.042-0.883-0.075-1.284-0.106c-1.534-0.12-2.642-0.206-4.361-0.67l-0.649,2.404c1.943,0.524,3.275,0.628,4.816,0.749c0.425,0.033,0.876,0.068,1.371,0.114l0.121,0.012L143.897,132.562z" />
    <path fill="none" stroke="#650000" stroke-width="0.8494" d="M72.001,108.046c-2.473-0.39-8.728,5.031-6.711,11.771 M72.378,102.003c-3.339,21.121,17.143,12.94,17.284,5.825 M88.486,110.878c0.273,2.775,0.434,10.527-2.433,12.508c-2.867,1.982-6.457,2.216-9.259,1.265 M82.141,115.174c-0.281,2.728-3.017,9.521-8.347,8.588 M39.042,85.959c2.787,0.275,4.18,2.48,4.777,4.409s0.995,3.031,0.995,3.031 M41.417,101.65c1.194,0.551,3.384,0,3.384,0 M42.58,104.622c2.636,0.827,5.273-0.551,5.273-0.551 M54.966,116.545c2.787-0.827,4.578-2.48,4.578-2.48 M51.981,84.734c-1.592,1.929-1.393,5.511-1.393,5.511 M84.824,84.857c0.398,3.582-1.194,5.511-2.19,5.511c-0.995,0-2.107,1.337-1.495,3.487 M88.981,84.306c-1.791,2.48-2.19,5.236-1.592,7.44c0.597,2.204,0.031,2.845,0.031,2.845 M67.706,104.696c-3.185,0.855-4.482,6.683-2.785,9.818 M96.966,96.43h-2.19c0,0-1.393,3.031-3.782,2.204s-0.199,0-0.199,0 M85.222,93.902c3.408,0.088,2.723,2.803,0.199,2.527c0.199,3.307-3.767,2.89-3.427,0.357c-2.385,0.072-3.363-3.273,0.101-2.81 M165.887,96.433c0.702-2.137,3.93-4.081,3.93-4.081l0,0 M161.196,96.322c1.404-2.526,3.93-4.081,3.93-4.081 M154.344,96.557c2.133-1.285,2.732-1.793,3.432-2.455c0.756-0.74,2.246-2.137,2.246-2.137 M148.394,96.478c1.562-0.816,2.771-1.295,3.817-2.07c1.313-0.921,2.22-2.167,2.22-2.167 M149.675,89.731c-4.962-1.689-7.182-5.043-7.182-5.043 M157.936,82.581c-3.286,1.371-9.966,0.777-10.247,0.777 M98.481,125.925c0.983-3.49,2.825-4.276,5.13-5.417c2.386-0.971,6.018-3.91,3.772-1.773c-2.246,2.138-5.486,3.498-6.609,4.275s-1.825,2.51-1.252,3.303 M93.768,112.712c2.105,3.498,0.805,8.365-1.862,9.726 M100.786,100.665c3.418,1.419,3.539,4.76,4.032,6.734c-1.205-0.557-2.08-0.29-2.984-0.701 M99.439,102.587c2.322,3.176,3.206,5.119,3.34,6.226c0.219,1.921,0.23,6.66-5.257,6.583c0.511-1.412,1.157-5.139,0.279-6.635 M98.15,112.165c0,3.109-2.147,4.385-3.13,4.773 M89.838,98.333c0.14,3.692-6.597,6.412-6.457,0.777 M83.362,99.305c-0.143,2.72-3.85,3.303-5.133,0.972c-0.998-1.555-1.568-2.332-2.281-2.526s-0.633-2.457-0.777-2.79c-0.087-0.453-0.548-1.621-0.779-2.06 M47.128,82.54c0.281,1.749-0.14,2.137-0.561,3.692s0.14,4.275,0.14,4.275 M46.387,131.312c1.404-0.389,4.351,0,4.351,0 M51.62,135.906c0.842-1.555,2.807-2.915,2.807-2.915 M67.379,137.973c0.702-0.972,0.702-4.081,0.702-4.081 M72.5,137.949c1.117-1.275,1.178-4.011,1.178-4.011 M76.57,137.88c1.123-2.138,0.939-4.607,0.939-4.607 M82.948,138.113c0.702-1.166,0.702-3.886,0.702-3.886 M128.438,131.949c-2.527-0.583-4.071,2.915-4.071,2.915 M131.756,131.383c-0.281,2.526-2.246,4.858-2.246,4.858 M135.737,131.172c-0.14,2.138-2.386,5.052-2.386,5.052 M140.69,130.319c-0.37,2.843-2.39,4.974-2.39,4.974 M144.338,129.316c0.14,2.526-1.123,6.412-1.965,7.19 M148.689,130.395c0.421,1.36,0,3.303,0,3.303 M121.241,125.095c1.684,0.389,2.667,2.332,2.667,2.332 M118.365,129.972c0.885-3.059,4.699-1.564,5.161-0.744 M190.397,115.878c-1.404-0.194-3.509,0.583-3.509,0.583 M196.924,118.558c-1.965,0.777-4.211,0.972-4.211,0.972 M199.449,123.04c-1.684-0.194-2.948-0.194-2.948-0.194 M202.723,127.261c-1.684-0.194-4.351,0-4.351,0 M201.428,132.726c-0.561-1.555-2.246-1.943-2.246-1.943 M184.883,136.344c0.421-2.332,3.21-4.2,4.755-4.2c1.544,0,1.544,0,1.544,0 M182.566,131.189c1.684-0.583,4.351-0.777,4.351-0.777 M73.373,122.017c1.684-1.36,3.01-4.162,3.01-4.162 M93.908,88.035c-1.684,1.749-1.825,1.943-1.825,1.943 M95.593,91.338c-2.246,0.194-2.367,0.094-2.367,0.094 M87.597,90.027c1.661-0.609,5.525-0.097,5.469,1.319c0.002,1.739-1.511,1.845-5.503,0.2l0.034-1.277V90.027L87.597,90.027L87.597,90.027L87.597,90.027z M82.362,90.208c0.207-2.066-3.827-4.103-4.81-2.951c-1.197,1.904,2.198,3.602,3.099,3.602c0.842,0,0.343,0.108,0.343,0.108 M93.318,97.941c-1.527,4.227-0.254,8.102-0.254,8.102 M75.251,98.998c-1.272,1.057-2.29,0.705-2.29,0.705 M68.877,100.063c-4.687,2.468-5.488,4.649-4.757,9.847 M100.723,92.958c-1.342,0.61-1.144,3.792-1.144,3.792l0,0 M72.182,88.528c1.433,1.012,0.86,4.047,0.86,4.047 M77.726,99.187c-0.158,3.861-2.25,5.919-2.25,5.919 M75.616,97.39c-1.077,4.208,0.302,7.588,0.302,7.588 M86.271,102.317c-0.255,3.82,1.597,6.196,1.597,6.196 M88.555,100.91c0.618,4.316-1.109,7.404-1.109,7.404 M101.313,98.477c0.417,0.208,1.485,0.017,3.448,0.84c-0.812,1.197-2.907,1.893-3.724,1.543 M106.188,124.173c-2.415,0.824-3.547,0.881-4.337,0.152 M108.877,122.143c-2.119,0.824-3.325,1.107-4.377,0.434 M112.462,119.661c-1.409,0.824-2.211,1.107-2.911,0.434 M114.947,117.744c-1.724,0.824-2.706,1.107-3.563,0.434 M46.921,82.54c0.281,1.749-0.14,2.137-0.561,3.692s0.14,4.275,0.14,4.275 M52.257,84.734c-1.592,1.929-1.393,5.511-1.393,5.511 M39.249,85.578c2.853,0.275,4.28,2.48,4.891,4.409s1.019,3.031,1.019,3.031" />
  </g>
</svg>
