<svg xmlns="http://www.w3.org/2000/svg" width="450px" height="300px" viewBox="0 0 450 300">
  <path fill="#012169" d="M0,0h450v300H0V0z" />
  <path fill="#FFFFFF" d="M49.844,37.5H0V75h49.844L0,99.922V112.5h25.156L93.75,78.203V112.5h37.5V78.203l68.594,34.297H225l0,0V99.922L175.156,75H225V37.5h-49.844L225,12.578V0l0,0h-25.156L131.25,34.297V0h-37.5v34.297L25.156,0H0v12.578L49.844,37.5z" />
  <path fill="#C8102E" d="M133.229,37.5l75-37.5H225l-75,37.5H133.229z M75,37.5L0,0v8.385L58.229,37.5H75z M75,75L0,112.5h16.771l75-37.5H75z M150,75l75,37.5v-8.385L166.771,75H150z M101.25,112.5h22.5v-45H225V45H123.75V0h-22.5v45H0v22.5h101.25V112.5z" />
  <g>
    <path fill="#C8102E" stroke="#010101" stroke-width="0.4161" d="M315.583,161.955c0,0,0.508-1.629,1.086-1.988c0.176-0.108,0.415,0.061,0.689-0.026c0.294-0.095,0.952-0.258,1.033-0.557c0.083-0.304-0.318-1.005-0.318-1.005s-0.917-0.781-1.403-0.848c-0.532-0.073-1.722,0.476-1.722,0.476l-0.344,1.431L315.583,161.955L315.583,161.955L315.583,161.955z M340.196,186.082c0,0-1.955,0.299-2.413-0.169c-0.143-0.144-0.039-0.369-0.121-0.555c-0.098-0.22-0.243-0.406-0.482-0.434c-0.38-0.042-0.745,0.446-0.941,0.773c-0.264,0.436-0.29,1.569-0.29,1.569l0.772,1.012l2.368-0.166L340.196,186.082z" />
    <path fill="#C8102E" stroke="#010101" stroke-width="0.4161" d="M355.306,175.354c0,0-4.252,3.153-5.781,4.811c-0.366,0.397-0.895,0.949-1.033,1.469c-0.122,0.456-0.017,1.122,0.143,1.566c0.176,0.492,0.491,1.271,0.987,1.438c0.453,0.154,1.517-0.491,1.517-0.491s-0.538,1.071-0.96,1.319c-0.312,0.182-0.841,0.209-1.196,0.141c-0.267-0.051-0.799-0.427-0.799-0.427s0.008,0.64-0.144,0.883c-0.204,0.325-0.877,0.807-0.877,0.807s0.02-0.479,0.014-0.672c-0.008-0.329-0.095-0.714-0.27-0.991c-0.106-0.169-0.58-0.322-0.58-0.322s0.21,0.348,0.258,0.514c0.103,0.354,0.179,0.856,0.128,1.222c-0.028,0.206-0.278,0.437-0.257,0.644c0.029,0.277,0.01,0.439,0.249,0.58c0.184,0.109,0.427,0.245,0.619,0.153c0.125-0.06,0.424-0.179,0.465-0.312c0.032-0.111,0.147-0.357,0.147-0.357s0.184,0.391,0.163,0.754c-0.01,0.198-0.176,0.389-0.251,0.504c-0.039,0.06-0.154,0.325-0.465,0.41c-0.303,0.082-0.669,0.042-0.737,0.029c0,0-0.602-0.036-0.823-0.154c-0.339-0.182-0.698-0.59-0.893-0.923c-0.111-0.184-0.095-0.504-0.213-0.683c-0.098-0.148-0.36-0.233-0.45-0.386c-0.099-0.17-0.099-0.157-0.099-0.157s0.179,0.032,0.259,0.351c0.09,0.352,0.29,1.287,0.29,1.287l-0.858-0.143l-0.568-0.455c0,0-0.194-0.15-0.182-0.24c0.013-0.095,0.226-0.102,0.258-0.193c0.08-0.224-0.258-0.514-0.258-0.514s0.313,0.305,0.232,0.533c-0.031,0.083-0.227,0.095-0.232,0.182c-0.011,0.321,0.361,0.446,0.781,0.724c0.304,0.203,0.685,0.325,0.764,0.555c0.071,0.209-0.192,0.708-0.192,0.708l-1.545,0.772c0,0-0.676,0.026-0.901-0.13c-0.363-0.251-0.998-1.222-0.998-1.222l-0.096,0.064v0.966c0,0,0.742,0.679,0.643,1.028c-0.07,0.249-0.772,0.386-0.772,0.386l-1.995,0.129c0,0-0.443-0.309-0.514-0.516c-0.109-0.312,0.128-1.093,0.128-1.093l-0.772,0.256c0,0-0.291,0.975-0.643,1.159c-0.172,0.09-0.462,0.003-0.644-0.064c-0.351-0.128-1.03-0.708-1.03-0.708l-0.579-2.445c0,0,0.313-0.414,0.516-0.45c0.427-0.077,1.351,0.514,1.351,0.514s1.447-0.43,1.931-0.837c0.511-0.431,0.793-1.354,1.222-1.865c0.29-0.345,0.711-0.793,1.095-1.03c0.14-0.088,0.351-0.173,0.514-0.194c0.347-0.042,0.82,0.04,1.158,0.13c0.326,0.087,0.696,0.399,1.03,0.45c0.172,0.026,0.579-0.064,0.579-0.064s-1.179-0.242-1.673-0.386c-0.609-0.178-1.364-0.633-1.995-0.708c-0.193-0.023-0.462,0.133-0.644,0.064c-0.344-0.131-0.701-0.558-0.836-0.9c-0.022-0.054,0.041-0.153,0-0.194c-0.15-0.15-0.504,0.058-0.708,0c-0.458-0.13-1.026-0.487-1.351-0.837c-0.283-0.303-0.644-0.807-0.644-1.222c0.003-0.328,0.287-0.73,0.516-0.965c0.325-0.335,1.351-0.772,1.351-0.772s-0.462,0.641-0.514,0.965c-0.038,0.232-0.011,0.584,0.128,0.772c0.077,0.105,0.261,0.162,0.386,0.194c0.542,0.137,1.867,0.064,1.867,0.064s0.58-1.071,0.901-1.48c0.405-0.516,1.023-1.148,1.545-1.545c0.283-0.214,0.705-0.436,1.03-0.579c0.391-0.173,1.029-0.17,1.351-0.45c0.195-0.17,0.293-0.532,0.386-0.772c0.102-0.262,0.262-0.621,0.258-0.902c-0.01-0.567-0.58-1.801-0.58-1.801s-14.645,6.537-21.311,6.33c-1.224-0.038-2.836-0.695-3.837-1.403c-0.504-0.358-1.31-1.591-1.31-1.591s-1.03,0.514-1.217,0.936c-0.135,0.309-0.014,0.803,0.093,1.124c0.118,0.347,0.656,1.029,0.656,1.029s-1.08-0.322-1.403-0.654c-0.342-0.351-0.555-1.017-0.656-1.498c-0.092-0.439-0.034-0.857,0.187-1.247c0.162-0.285,0.65-0.861,0.65-0.861s-0.672-1.046-0.924-1.559c-0.222-0.45-0.567-1.572-0.567-1.572s-0.411,0.093-0.563,0.187c-0.134,0.083-0.304,0.232-0.375,0.375c-0.099,0.203-0.21,0.554-0.093,0.748c0.124,0.206,0.749,0.281,0.749,0.281s-0.288,0.355-0.468,0.375c-0.375,0.039-0.909-0.252-1.124-0.561c-0.32-0.465-0.329-1.326-0.187-1.873c0.086-0.331,0.399-0.707,0.654-0.935c0.262-0.235,1.03-0.563,1.03-0.563s-0.552-0.609-0.656-0.936c-0.076-0.241,0.067-0.599,0-0.842c-0.087-0.315-0.547-0.609-0.561-0.936c-0.044-0.966,1.403-2.901,1.403-2.901s-0.881,1.696-1.591,1.966c-0.319,0.121-1.122-0.188-1.122-0.188l-0.656-1.778c0,0,0.077-0.622,0.281-0.749c0.479-0.297,1.871,0.188,1.871,0.188l-1.217-0.375v-1.403l1.03-0.469c0,0-1.182,0.619-1.686,0.469c-0.286-0.086-0.654-0.749-0.654-0.749l0.281-1.405c0,0,0.303-0.641,0.561-0.654c0.693-0.037,1.685,1.591,1.685,1.591l-1.029-1.217l0.375-0.563l1.029,1.03l-1.029-1.124l0.093-1.029h0.375c0,0-0.704-0.181-0.842-0.406c-0.163-0.264-0.227-0.641-0.063-0.905c0.255-0.405,1.466-0.624,1.466-0.624s1.119-0.044,1.403,0.249c0.242,0.251,0.326,0.592,0.281,0.937c-0.038,0.285-0.53,0.81-0.53,0.81s0.334,1.695,0.624,2.371c0.338,0.788,0.959,1.767,1.498,2.433c0.511,0.633,1.454,1.237,1.964,1.871c0.783,0.973,1.585,2.447,2.154,3.557c0.72,1.412,2.058,4.867,2.058,4.867l17.501-3.931l7.58,0.281l5.147,2.152L355.306,175.354z" />
    <path fill="#C8102E" stroke="#010101" stroke-width="0.3468" d="M316.669,158.251c0.017,0.213,0.141,0.504,0.302,0.647c0.122,0.108,0.358,0.21,0.517,0.172c0.213-0.051,0.417-0.125,0.503-0.326c0.233-0.548,0.322-1.249,0.13-1.811c-0.147-0.425-0.548-0.957-0.949-1.164c-0.185-0.095-0.358-0.176-0.561-0.128c-0.204,0.047-0.691,0.258-0.691,0.258s0.456,0.165,0.603,0.301c0.167,0.154,0.323,0.43,0.389,0.647c0.082,0.272-0.041,0.475-0.071,0.758C316.819,157.804,316.65,158.05,316.669,158.251L316.669,158.251L316.669,158.251z M311.566,156.156c0,0,0.115-0.736,0.431-0.991c0.318-0.257,0.884-0.443,1.293-0.431c0.28,0.009,0.654,0.16,0.863,0.345c0.401,0.351,0.732,0.854,0.819,1.38c0.038,0.22,0.067,0.495-0.042,0.689c-0.127,0.223-0.391,0.341-0.647,0.345c-0.184,0.003-0.436-0.254-0.561-0.388c-0.322-0.348-0.259-1.021-0.647-1.294c-0.119-0.084-0.326-0.124-0.474-0.129c-0.131-0.004-0.302,0.061-0.431,0.086C311.975,155.808,311.566,156.156,311.566,156.156L311.566,156.156L311.566,156.156z M311.652,161.374c0.132-0.025,0.347-0.025,0.431-0.129c0.121-0.152,0.118-0.468,0.044-0.647c-0.106-0.253-0.217-0.463-0.475-0.56c-0.144-0.055-0.801,0.076-0.949,0.128c-0.363,0.131-0.593,0.307-0.775,0.647c-0.167,0.309-0.235,0.829-0.13,1.165c0.082,0.262,0.38,0.529,0.603,0.689c0.135,0.099,0.517,0.216,0.517,0.216s-0.242-0.696-0.173-0.991c0.041-0.172,0.193-0.389,0.345-0.475C311.239,161.335,311.486,161.404,311.652,161.374L311.652,161.374L311.652,161.374z M311.997,164.823c0.175-0.128,0.538,0.062,0.691,0.216c0.16,0.163,0.264,0.508,0.214,0.733c-0.054,0.251-0.341,0.512-0.56,0.647c-0.307,0.189-0.807,0.358-1.164,0.301c-0.379-0.061-0.852-0.379-1.078-0.69c-0.242-0.335-0.367-0.923-0.344-1.336c0.01-0.181,0.216-0.561,0.216-0.561s0.165,0.596,0.344,0.777c0.251,0.249,0.727,0.439,1.078,0.473C311.577,165.402,311.892,164.899,311.997,164.823L311.997,164.823z M336.24,186.995c-0.27,0.028-0.611-0.188-0.88-0.191c-0.408-0.003-1.333,0.262-1.333,0.262s0.423-0.581,0.666-0.762c0.296-0.217,0.752-0.488,1.119-0.499c0.281-0.007,0.693,0.122,0.88,0.333c0.121,0.138,0.225,0.43,0.143,0.595C336.749,186.908,336.434,186.976,336.24,186.995L336.24,186.995L336.24,186.995z M335.169,188.9c0.207-0.006,0.485,0.07,0.667,0.169c0.187,0.102,0.472,0.274,0.526,0.486c0.035,0.136-0.061,0.332-0.141,0.445c-0.057,0.08-0.173,0.153-0.262,0.191c-0.189,0.077-0.492-0.002-0.669,0.105c-0.153,0.093-0.296,0.314-0.363,0.486c-0.096,0.242-0.168,0.351-0.143,0.612c0.019,0.2,0.264,0.804,0.264,0.804s-0.683-0.312-0.87-0.529c-0.272-0.317-0.444-0.715-0.424-1.142c0.011-0.27,0.19-0.608,0.344-0.825c0.189-0.267,0.529-0.558,0.809-0.718C334.978,188.944,335.088,188.903,335.169,188.9L335.169,188.9L335.169,188.9z M339.235,190.896c0.076-0.092,0.242-0.165,0.363-0.169c0.296-0.009,0.752,0.118,0.918,0.363c0.127,0.187,0.048,0.53,0,0.749c-0.07,0.328-0.255,0.751-0.459,1.016c-0.188,0.246-0.797,0.653-0.797,0.653s0.154-0.71,0.119-1.014c-0.031-0.283-0.3-0.61-0.313-0.895C339.054,191.382,339.098,191.064,339.235,190.896L339.235,190.896L339.235,190.896z M343.271,189.35c0.153-0.223,0.603-0.242,0.87-0.218c0.23,0.02,0.38,0.118,0.532,0.291c0.201,0.227,0.319,0.664,0.291,0.966c-0.019,0.188-0.163,0.418-0.291,0.557c-0.15,0.162-0.249,0.338-0.459,0.411c-0.241,0.083-0.845,0.096-0.845,0.096s0.382-0.405,0.434-0.628c0.057-0.244,0.007-0.609-0.121-0.822c-0.069-0.116-0.293-0.15-0.363-0.266C343.261,189.636,343.206,189.446,343.271,189.35L343.271,189.35L343.271,189.35z M345.559,174.111c-0.582,0.232-1.196,0.86-1.607,1.332c-0.223,0.257-0.596,0.965-0.596,0.965s0.904-0.105,1.285-0.184c0.755-0.159,1.708-0.647,2.479-0.689c0.683-0.038,1.593,0.178,2.25,0.367c0.748,0.216,2.387,1.01,2.387,1.01s-1.545-2.568-2.662-3.029C348.112,173.476,346.547,173.719,345.559,174.111L345.559,174.111z" />
    <path fill="#C8102E" stroke="#010101" stroke-width="0.4161" d="M316.628,186.152c0.109-0.145,0.309-0.31,0.481-0.369c0.137-0.047,0.342-0.041,0.481,0c0.37,0.111,0.715,0.567,1.075,0.708c0.586,0.228,2.066,0.34,2.066,0.34l-1.571,1.839l-2.49,0.226l-0.453-0.778c0,0-0.063-0.628-0.014-0.89C316.265,186.885,316.418,186.428,316.628,186.152L316.628,186.152L316.628,186.152z M357.786,187.15c0,0-1.247,0.143-1.698-0.096c-0.309-0.165-0.394-0.769-0.704-0.93c-0.299-0.153-0.813-0.169-1.121-0.032c-0.23,0.103-0.545,0.641-0.545,0.641l0.577,1.634l0.8,0.128l1.364-0.026L357.786,187.15L357.786,187.15L357.786,187.15z" />
    <path fill="#C8102E" stroke="#010101" stroke-width="0.4161" d="M329.632,168.135l-9.644,17.238l-1.109,2.732l-0.854,0.17c0,0-1.08-0.36-1.536-0.257c-0.304,0.069-0.852,0.598-0.852,0.598l0.939,2.133c0,0,0.455,0.325,0.682,0.341c0.243,0.018,0.768-0.255,0.768-0.255l0.342-0.768c0-0.137,1.696-1.507,2.104-1.622c0.099-0.028,0.096-0.306,0-0.342c-0.105-0.039-0.245,0.312-0.455,0.51c-0.274,0.259-0.339,0.487-0.474,0.596c-0.513,0.416-0.469,0.481-0.579,1.029c-0.048,0.238,0.255,0.768,0.255,0.768l2.732,0.341c0,0,0.858-0.481,0.939-0.854c0.093-0.437-0.505-0.927-0.598-1.365c-0.069-0.325-0.328-1.053,0-1.109c0.312-0.053-0.157,0.616-0.047,1.119c0.135,0.618,0.815,1.1,0.815,1.1l1.109,0.085c0,0,1.218-1.011,1.451-1.62c0.037-0.096,0.061-0.261,0-0.342c-0.29-0.38-1.536-0.427-1.536-0.427s-0.048-0.198,0.029-0.312c0.172-0.255,0.825-0.114,0.825-0.114l0.255-1.792l0.427,1.109c0,0,0.593-0.81,0.739-1.309c0.109-0.367,0.122-0.915,0-1.28c-0.08-0.243-0.112-0.511-0.112-0.511s0.596,0.511,0.796,0.939c0.119,0.255,0.029,1.081,0.029,1.081s0.361-0.438,0.453-0.66c0.197-0.472,0.385-1.167,0.315-1.674c-0.055-0.397-0.351-0.879-0.598-1.194c-0.29-0.373-0.397-0.482-0.397-0.482s0.179,0.019,0.442,0.204c0.288,0.204,0.673,0.592,0.893,0.961c0.216,0.358,0.257,1.365,0.257,1.365l0.446-0.874l0.151-1.003l-0.341-2.219c0,0,1.256-1.59,2.047-1.792c0.915-0.233,2.129,0.715,3.073,0.683c0.906-0.031,2.056-0.525,2.901-0.854c1.355-0.527,3.018-1.557,4.353-2.133c1.004-0.433,2.346-1.039,3.414-1.281c1.177-0.265,2.853-0.685,4.01-0.341c0.717,0.214,1.606,0.88,1.963,1.536c0.542,0.994,0.156,2.561,0.169,3.691c0.003,0.188-0.332,0.437-0.294,1.033c0.038,0.621,0.444,1.588,0.277,1.762c-0.294,0.302-1.16,0.469-1.16,0.469s0.421,0.363,0.931,0.436c0.407,0.057,0.908-0.154,1.01-0.252c0.255-0.243,0.466-0.72,0.519-0.823c0.27-0.523,0-1.963,0-1.963s0.029,2.167,0.598,2.817c0.251,0.287,0.698,0.288,0.908,0.606c0.226,0.342,0.44,0.737,0.166,1.043c-0.399,0.444-1.138,0.807-1.138,0.807s0.675,0.219,1.294,0.06c0.386-0.099,0.724-0.369,0.903-0.724c0.395-0.786,0.566-2.033,0.427-2.901c-0.082-0.508-0.768-1.536-0.768-1.536s0.602,1.939,1.28,2.389c0.472,0.313,1.484,0.243,1.484,0.243s-0.492,0.928-0.63,1.465c-0.216,0.846,0.257,2.901,0.257,2.901s-1.115,0.455-1.622,0.513c-0.332,0.038-0.812-0.236-1.111-0.086c-0.216,0.109-0.427,0.683-0.427,0.683l1.195,2.133c0,0,0.679,0.287,0.94,0.17c0.439-0.197,0.495-0.989,0.835-1.371c0.336-0.376,1.212-0.933,1.212-0.933l-0.598,2.047l0.427,0.597h1.963c0,0,0.614-0.732,0.598-1.109c-0.021-0.519-0.939-1.451-0.939-1.451s0.51,0.048,0.759,0.188c0.312,0.175,0.606,0.751,0.606,0.751h0.94l1.109-0.852c0,0,0.166-0.711,0-0.939c-0.293-0.404-1.577-0.513-1.577-0.513l0.979-1.195l-0.598-1.023c0,0,1.349,0.794,1.963,0.682c0.394-0.072,0.841-0.497,1.024-0.852c0.153-0.297,0.085-1.111,0.085-1.111s-0.283,0.568-0.511,0.683c-0.206,0.103-0.609,0.167-0.768,0c-0.299-0.317,0.086-1.451,0.086-1.451s1.018-0.243,1.364-0.511c0.248-0.192,0.592-0.542,0.599-0.854c0.006-0.333-0.599-0.938-0.599-0.938s0.089,0.495-0.085,0.686c-0.175,0.192-0.612,0.435-0.854,0.336c-0.46-0.187-0.939-1.365-0.939-1.365s0.905-0.45,1.08-0.9c0.069-0.178,0.061-0.628-0.115-0.873c-0.267-0.37-0.479-0.472-0.479-0.472s0.188,0.589-0.059,0.796c-0.248,0.207-0.701,0.367-1.024,0.341c-0.548-0.045-1.25-0.447-1.622-0.854c-0.449-0.491-0.625-1.19-0.883-1.804c-0.077-0.179-0.182-0.523-0.182-0.523s0.92-0.063,1.291-0.245c0.261-0.126,0.653-0.642,0.714-0.927c0.089-0.423-0.153-1.115-0.517-1.346c-0.303-0.194-0.889-0.038-0.889-0.038s0.417,0.379,0.557,0.586c0.099,0.147-0.162,0.538-0.254,0.689c-0.076,0.124-0.335,0.117-0.476,0.085c-0.7-0.153-1.324-0.848-1.748-1.427c-0.303-0.409-0.513-1.62-0.513-1.62s1.358-0.101,1.878-0.342c0.841-0.389,1.851-1.207,2.39-1.963c0.427-0.6,0.733-1.577,0.852-2.304c0.137-0.833,0.072-1.986-0.085-2.817c-0.143-0.747-0.465-1.735-0.854-2.39c-0.353-0.592-1.536-1.706-1.536-1.706s-0.643-0.401-0.768-0.683c-0.117-0.257-0.17-0.712,0-0.939c0.112-0.148,0.449-0.282,0.598-0.17c0.143,0.108,0.426,1.024,0.426,1.024s0.399-0.224,0.599-0.597c0.158-0.297-0.041-0.799-0.172-1.111c-0.099-0.236-0.286-0.561-0.511-0.682c-0.407-0.219-1.135-0.277-1.587-0.188c-0.584,0.115-1.198,0.506-1.587,0.956c-0.281,0.323-0.539,0.938-0.582,1.365c-0.022,0.232,0.035,0.819,0.035,0.819s-2.915-0.28-4.301-0.222c-1.387,0.059-3.396,0.538-4.864,0.598c-0.615,0.025-1.447,0.039-2.049-0.086c-0.914-0.188-2.164-0.539-2.901-1.109c-0.35-0.27-0.692-0.786-0.854-1.195c-0.21-0.527-0.264-1.285-0.017-1.798c0.194-0.404,0.606-0.739,1.04-0.846c0.449-0.111,1.151-0.167,1.537,0.084c0.191,0.127,0.386,0.459,0.341,0.684c-0.047,0.232-0.369,0.451-0.598,0.511c-0.252,0.067-0.852-0.17-0.852-0.17s-0.117,0.47,0.085,0.737c0.262,0.35,0.931,0.566,1.365,0.511c0.402-0.05,0.978-0.415,1.24-0.724c0.386-0.455,0.723-1.469,0.723-1.469s2.1,0.214,2.987,0.086c1.147-0.165,2.344-0.363,3.372-0.896c0.567-0.296,1.462-0.785,1.819-1.317c0.398-0.593,0.568-1.533,0.411-2.229c-0.141-0.621-0.669-1.094-1.281-1.268c-0.468-0.131-1.323,0.27-1.323,0.27s0.768,0.07,1.024,0.256c0.271,0.195,0.579,0.469,0.672,0.79c0.044,0.147-0.07,0.603-0.148,0.736c-0.163,0.275-0.5,0.447-0.79,0.586c-0.426,0.202-1.091,0.22-1.562,0.224c-0.632,0.006-1.61-0.542-2.225-0.693c-0.45-0.111-1.685,0.016-1.685,0.016s0.804-1.09,0.81-1.504c0.007-0.519-0.034-1.23-0.373-1.622c-0.248-0.286-0.737-0.533-1.111-0.598c-0.331-0.057-0.571-0.067-0.79,0.188c-0.134,0.156-0.355,0.463-0.319,0.666c0.053,0.294,0.187,0.465,0.187,0.465s0.179-0.288,0.411-0.465c0.122-0.093,0.388-0.09,0.511,0c0.132,0.095,0.376,0.527,0.345,0.686c-0.093,0.52-0.956,1.105-1.415,1.365c-0.699,0.4-1.75,0.001-2.525,0.217c-0.829,0.232-1.971,0.577-2.646,1.111c-0.647,0.51-1.357,1.438-1.622,2.218c-0.284,0.835-0.277,2.079-0.073,2.938c0.2,0.847,0.78,1.915,1.365,2.56c0.682,0.752,1.89,1.46,2.815,1.877c0.726,0.328,1.769,0.542,2.56,0.603c0.745,0.06,1.733-0.103,2.476-0.176c1.1-0.108,3.671-0.341,3.671-0.341s-1.855,0.585-2.476,1.109c-0.423,0.359-0.95,0.988-1.024,1.536c-0.054,0.402,0.134,1.001,0.427,1.281c0.27,0.258,1.195,0.341,1.195,0.341s-0.634-0.608-0.598-0.939c0.011-0.108,0.151-0.225,0.257-0.256c0.249-0.076,0.593,0.197,0.852,0.17c0.72-0.073,1.719-0.417,2.219-0.939c0.303-0.316,0.511-1.365,0.511-1.365s-0.364,1.607,0,2.133c0.249,0.36,0.973,0.746,1.402,0.835c0.476,0.099,1.131-0.063,1.585-0.238c0.304-0.116,0.74-0.443,0.768-0.768c0.028-0.312-0.598-0.854-0.598-0.854s0.127,0.471,0,0.598c-0.163,0.163-0.552,0.082-0.768,0c-0.255-0.096-0.57-0.35-0.682-0.598c-0.096-0.21-0.095-0.558,0-0.768c0.14-0.315,0.536-0.632,0.852-0.768c0.59-0.253,1.524-0.372,2.135-0.17c0.74,0.244,1.588,1.022,1.963,1.706c0.421,0.773,0.624,2.045,0.426,2.901c-0.153,0.664-0.743,1.457-1.28,1.878c-0.516,0.405-2.049,0.768-2.049,0.768s-2.818-0.012-3.536-0.165c-1.945-0.412-3.236-1.249-5.211-1.488c-0.762-0.092-2.017-0.194-2.785-0.214c-1.306-0.034-3.341,0.106-4.641-0.021c-2.2-0.214-7.187-0.726-7.187-0.726l-2.84-0.715L329.632,168.135z" />
    <path fill="none" stroke="#010101" stroke-width="0.3468" d="M338.95,182.528c0,0,0.488-0.148,0.676-0.258c0.172-0.099,0.514-0.418,0.514-0.418 M341.267,181.949c0,0-0.463,0.097-0.612,0.224c-0.166,0.143-0.335,0.424-0.354,0.644c-0.019,0.233,0.258,0.739,0.258,0.739 M341.75,182.238c0,0-0.418,0.238-0.482,0.418c-0.096,0.268,0.053,0.67,0.16,0.934c0.058,0.14,0.29,0.417,0.29,0.417 M342.65,182.4c0,0-0.389,0.367-0.45,0.578c-0.057,0.195-0.01,0.487,0.064,0.676c0.099,0.249,0.547,0.707,0.547,0.707 M340.881,188.993c0,0,0.057-0.548,0.096-0.739c0.054-0.261,0.611-0.644,0.611-0.644 M338.532,189.701c0,0-0.014-0.38,0.064-0.514c0.109-0.185,0.58-0.418,0.58-0.418 M316.74,175.592c0,0,0.549-0.527,0.751-0.751c0.163-0.181,0.397-0.417,0.6-0.549c0.124-0.081,0.45-0.201,0.45-0.201 M315.239,172.341c0,0,0.449-0.17,0.65-0.201c0.297-0.044,0.72,0.106,1.001,0c0.338-0.128,0.673-0.52,0.901-0.8c0.153-0.188,0.401-0.701,0.401-0.701 M314.789,170.389c0,0,0.734,0.004,1.046-0.253 M315.156,166.353c0,0,0.392,2.211,1.143,2.872c0.529,0.468,1.718,0.689,1.718,0.689 M342.58,154.174c0,0,1.039-0.141,1.486-0.131c0.501,0.01,1.037,0.121,1.485,0.35c0.339,0.172,0.89,0.655,1,1.02c0.042,0.141-0.087,0.481-0.087,0.481 M347.124,154.174c0,0,1.209,0.688,1.759,0.911c0.468,0.188,2.085,0.443,2.085,0.443 M350.181,154.043c0,0,0.858,0.507,1.268,0.612c0.495,0.127,1.703,0.087,1.703,0.087 M348.042,152.208c0,0-0.771,0.482-1.137,0.612c-0.264,0.093-0.644,0.236-0.917,0.175c-0.175-0.039-0.481-0.35-0.481-0.35 M355.526,160.095c0,0,0.507-0.047,0.717,0c0.697,0.159,2.151,1.024,2.151,1.024s-0.336-1.067-0.307-1.536c0.028-0.436,0.175-1.052,0.46-1.383c0.226-0.26,0.691-0.433,1.024-0.512c0.09-0.022,0.307,0,0.307,0 M349.706,165.617c0,0,0.265-0.637,0.498-0.842c0.261-0.229,0.962-0.437,1.276-0.583c0.209-0.098,0.5-0.261,0.615-0.46c0.069-0.121,0.051-0.461,0.051-0.461 M353.828,162.417l-0.407,1.269 M357.726,171.936c0,0-0.927-0.426-1.405-0.544c-0.423-0.106-1.026,0.099-1.45,0c-0.354-0.085-1.089-0.545-1.089-0.545 M353.828,172.75c0,0,0.946,0.173,1.269,0.408c0.49,0.355,0.644,1.188,1.052,1.632c0.267,0.291,0.653,0.538,0.82,0.81c0.143,0.233,0.347,0.841,0.347,0.841s0.248-0.656,0.238-1c-0.003-0.132-0.008-0.969-0.008-0.969s0.836,1.189,1.36,1.496c0.156,0.091,0.589,0.136,0.589,0.136 M360.875,179.997c0,0,0.624,0.378,0.921,0.462c0.254,0.071,0.871,0.076,0.871,0.076 M363.154,183.558c0,0-0.242-0.787-0.436-1.077c-0.216-0.319-0.587-0.704-0.923-0.896c-0.124-0.071-0.46-0.128-0.46-0.128 M360.67,182.558c0,0,0.778,0.289,1,0.564c0.325,0.405,0.45,1.128,0.691,1.588c0.122,0.232,0.272,0.561,0.462,0.742c0.146,0.141,0.589,0.334,0.589,0.334 M361.464,185.299c0,0-0.699-1.096-0.871-1.332c-0.144-0.198-0.564-0.462-0.564-0.462 M336.395,168.972l0.72,1.507 M337.304,168.741l0.472,1.221 M338.167,168.683l0.466,0.771 M338.921,168.517l0.415,0.777 M358.724,181.687l-0.466,0.679l-1.059,0.699c0,0,0.159,0.255,0.326,0.356c0.106,0.066,0.355,0.115,0.474,0.074c0.222-0.074,0.523-0.217,0.667-0.399c0.073-0.092,0.118-0.372,0.118-0.372 M355.048,179.03c0,0,0.146,0.886,0.38,1.173c0.217,0.268,0.67,0.463,1,0.57c0.283,0.09,0.551,0.156,0.828,0.051c0.243-0.092,0.742-0.586,0.742-0.586s-0.182,0.692-0.379,0.914c-0.261,0.293-0.755,0.563-1.138,0.638c-0.251,0.05-0.603-0.021-0.845-0.103c-0.325-0.111-0.984-0.586-0.984-0.586 M353.133,180.963c0,0,0.037,0.89,0.242,1.208c0.16,0.248,0.532,0.436,0.707,0.672c0.165,0.223,0.309,0.479,0.398,0.742c0.093,0.281,0.255,1.194,0.255,1.194 M356.137,172.299c0,0,0.707,0.644,0.923,0.988c0.232,0.369,0.527,1.351,0.527,1.351 M335.854,178.703c0,0-1.195-0.2-1.651-0.436c-0.361-0.187-0.812-0.532-1.042-0.869c-0.255-0.374-0.478-1.434-0.478-1.434 M337.2,177.964c0,0-1.403-0.1-1.899-0.373c-0.291-0.16-0.653-0.44-0.868-0.695c-0.242-0.284-0.608-1.086-0.608-1.086 M338.634,177.355c0,0-1.87-0.43-2.607-0.781c-0.355-0.169-1.144-0.973-1.144-0.973 M335.755,175.137c0,0,0.503,0.554,0.794,0.654c0.264,0.092,0.605,0.198,0.88,0.239c0.246,0.037,0.729,0.054,0.729,0.054 M336.94,174.879c0,0,0.28,0.323,0.436,0.392c0.197,0.088,0.527,0.083,0.737,0.13c0.204,0.045,0.695,0,0.695,0 M338.156,174.618c0,0,0.73,0.125,1.043,0.175c0.181,0.028,0.608,0.086,0.608,0.086 M339.676,174.184c0,0,1.008,0.061,1.434,0.131c0.226,0.036,0.739,0.173,0.739,0.173 M340.937,173.62c0,0,0.981,0.148,1.39,0.261c0.294,0.08,0.955,0.347,0.955,0.347l0,0 M342.761,173.23c0,0,0.676,0.09,0.956,0.173c0.261,0.078,0.614,0.192,0.836,0.35c0.217,0.151,0.596,0.65,0.596,0.65" />
    <path fill="#C8102E" stroke="#010101" stroke-width="0.3468" d="M317.403,186.455c-0.262-0.3-0.675-0.474-1.072-0.461c-0.342,0.013-0.756,0.297-1.023,0.511c-0.275,0.223-0.644,0.579-0.74,0.92c-0.051,0.179-0.041,0.325,0.051,0.487c0.086,0.151,0.332,0.434,0.332,0.434s0.053-0.37,0.153-0.485c0.15-0.175,0.469-0.271,0.691-0.332c0.23-0.066,0.557-0.032,0.791-0.077c0.164-0.031,0.397-0.063,0.536-0.153c0.151-0.099,0.345-0.285,0.383-0.46C317.531,186.722,317.482,186.544,317.403,186.455L317.403,186.455L317.403,186.455z M317.122,188.831c0.106,0.187,0.114,0.519,0.026,0.715c-0.077,0.173-0.307,0.341-0.485,0.408c-0.23,0.089-0.593-0.072-0.817,0.026c-0.27,0.116-0.54,0.437-0.691,0.689c-0.098,0.165-0.179,0.422-0.179,0.613c0,0.248,0.23,0.793,0.23,0.793s-0.844-0.641-0.997-1.048c-0.121-0.323-0.054-0.822,0.051-1.15c0.095-0.296,0.341-0.651,0.563-0.87c0.207-0.203,0.541-0.427,0.817-0.51c0.265-0.08,0.654-0.099,0.921-0.026C316.753,188.526,317.023,188.658,317.122,188.831L317.122,188.831L317.122,188.831z M321.109,190.772c-0.031-0.283-0.261-0.49-0.536-0.561c-0.304-0.08-0.807-0.074-1.048,0.127c-0.175,0.146-0.112,0.519-0.154,0.742c-0.051,0.274-0.148,0.64-0.153,0.92c-0.004,0.286,0.031,0.676,0.128,0.946c0.058,0.162,0.162,0.391,0.306,0.485c0.207,0.137,0.817,0.128,0.817,0.128s-0.466-0.341-0.536-0.563c-0.064-0.2,0.02-0.498,0.102-0.691c0.132-0.312,0.462-0.644,0.691-0.893C320.908,191.213,321.136,191.044,321.109,190.772L321.109,190.772L321.109,190.772z M324.941,189.113c0.294,0.148,0.59,0.32,0.742,0.613c0.164,0.321,0.146,0.871,0,1.201c-0.093,0.208-0.222,0.408-0.41,0.536c-0.198,0.135-0.715,0.358-0.715,0.358s0.134-0.425,0.153-0.613c0.023-0.222,0.07-0.541-0.025-0.742c-0.122-0.261-0.615-0.369-0.715-0.638c-0.061-0.167-0.032-0.449,0.077-0.589c0.117-0.149,0.398-0.225,0.587-0.229C324.731,189.008,324.855,189.068,324.941,189.113L324.941,189.113L324.941,189.113z M354.439,186.799c-0.197-0.198-0.643-0.19-0.92-0.153c-0.326,0.044-0.468,0.098-0.739,0.283c-0.238,0.163-0.577,0.401-0.689,0.665c-0.119,0.281,0,1.021,0,1.021s0.56-0.729,0.893-0.92c0.363-0.209,0.708,0.002,1.096-0.156c0.14-0.057,0.37-0.118,0.434-0.255C354.577,187.151,354.542,186.904,354.439,186.799L354.439,186.799z M354.07,188.856c0.283,0.012,0.417-0.052,0.612,0.153c0.17,0.179,0.313,0.558,0.23,0.792c-0.05,0.14-0.278,0.208-0.408,0.281c-0.219,0.121-0.574,0.169-0.767,0.331c-0.16,0.135-0.322,0.386-0.382,0.587c-0.048,0.162-0.038,0.398,0,0.561c0.039,0.175,0.193,0.28,0.28,0.434c0.028,0.048-0.437,0-0.638-0.102c-0.209-0.105-0.453-0.329-0.561-0.536c-0.156-0.294-0.079-0.586-0.051-0.918c0.025-0.314,0.283-0.53,0.459-0.791c0.181-0.265,0.532-0.544,0.816-0.69C353.773,188.9,353.943,188.851,354.07,188.856z M357.822,190.898c0,0,0.468-0.251,0.689-0.28c0.122-0.016,0.203-0.016,0.306,0.051c0.22,0.14,0.449,0.478,0.459,0.74c0.014,0.351-0.354,0.743-0.536,1.046c-0.124,0.207-0.357,0.663-0.357,0.663s-0.593-1.341-0.625-1.616C357.719,191.173,357.808,190.925,357.822,190.898L357.822,190.898L357.822,190.898z M362.058,188.422c0.175-0.058,0.444-0.048,0.614,0.026c0.208,0.09,0.459,0.32,0.536,0.535c0.106,0.297,0.006,0.751-0.102,1.048c-0.144,0.392-0.791,1.148-0.791,1.148s0.016-0.664-0.026-0.944c-0.025-0.173-0.047-0.424-0.153-0.563c-0.13-0.169-0.507-0.172-0.612-0.357c-0.069-0.12-0.06-0.335,0-0.459C361.613,188.67,361.863,188.488,362.058,188.422L362.058,188.422L362.058,188.422z" />
    <path fill="#C8102E" stroke="#010101" stroke-width="0.4161" d="M319.745,157.954c0,0-0.206-0.679-0.148-0.966c0.108-0.56,0.815-1.086,0.965-1.635c0.101-0.366,0-1.263,0-1.263s1.077,0.099,1.486,0.297c0.342,0.165,0.755,0.514,0.755,0.514s0.034-0.442,0.137-0.737c0.119-0.342,0.498-0.637,0.605-0.982c0.093-0.301,0.064-0.95,0.064-0.95s0.936,0.348,1.189,0.669c0.101,0.128,0.148,0.52,0.148,0.52s0.702-0.825,0.743-1.263c0.023-0.259-0.297-0.817-0.297-0.817s1.068,0.248,1.336,0.595c0.249,0.322,0.223,1.338,0.223,1.338s0.243-0.72,0.446-0.966c0.315-0.382,1.338-0.966,1.338-0.966l-0.148,1.486c0,0,0.627-0.298,0.892-0.223c0.621,0.181,1.188,0.986,1.486,1.56c0.105,0.201,0.148,0.743,0.148,0.743s0.587-0.809,0.966-0.966c0.267-0.111,0.965,0,0.965,0s-0.204,0.782-0.148,1.115c0.108,0.64,0.896,1.288,0.966,1.932c0.031,0.274-0.223,0.892-0.223,0.892s1.04,1.601,1.263,2.378c0.255,0.88-0.095,2.03,0.344,2.834c0.106,0.195,0.372,0.434,0.595,0.446c0.259,0.013,0.622-0.235,0.622-0.235s-0.047,0.68-0.223,0.892c-0.172,0.207-0.817,0.372-0.817,0.372s0.13,0.545,0.148,0.892c0.02,0.348-0.115,1.112,0.108,1.473c0.204,0.331,0.596,0.571,0.976,0.489c0.095-0.02,0.353,0.013,0.453-0.096c0.211-0.231,0.246-0.678,0.246-0.678s0.172,0.643,0.074,0.892c-0.132,0.338-0.348,0.555-0.65,0.758c-0.306,0.204-1.182,0.255-1.357,0.58c-0.3,0.555,0.411,1.46,0.297,2.081c-0.083,0.452-0.68,0.883-0.743,1.338c-0.054,0.385,0.02,0.817,0.236,1.141c0.169,0.254,0.399,0.564,0.696,0.625c0.201,0.042,0.582-0.006,0.73-0.148c0.184-0.175,0.296-0.477,0.344-0.727c0.037-0.198,0.074-0.667,0.074-0.667s0.354,0.646,0.354,0.965c0.003,0.27-0.109,0.611-0.28,0.818c-0.245,0.297-0.682,0.608-1.04,0.743c-0.398,0.151-0.994,0.23-1.412,0.148c-0.372-0.071-1.115-0.593-1.115-0.593s-0.023,0.575-0.074,0.816c-0.071,0.345-0.108,0.88-0.372,1.115c-0.238,0.213-1.04,0.223-1.04,0.223s0.323,1.281,0.669,1.709c0.151,0.188,0.442,0.367,0.669,0.446c0.254,0.089,0.638,0.16,0.892,0.075c0.315-0.107,0.647-0.459,0.817-0.743c0.095-0.157,0.148-0.594,0.148-0.594s0.173,1.026,0,1.412c-0.209,0.46-0.785,0.952-1.263,1.115c-0.318,0.108-0.793,0.02-1.115-0.074c-0.22-0.066-0.447-0.307-0.669-0.372c-0.342-0.101-1.189-0.075-1.189-0.075s0.105,0.729,0.076,1.039c-0.034,0.345-0.192,0.785-0.299,1.115c-0.057,0.182-0.162,0.414-0.101,0.595c0.117,0.353,0.548,0.663,0.918,0.669c0.261,0.004,0.624-0.216,0.743-0.446c0.144-0.277-0.074-1.04-0.074-1.04s0.545,0.802,0.52,1.189c-0.016,0.259-0.236,0.589-0.446,0.743c-0.294,0.219-0.822,0.28-1.189,0.297c-0.291,0.013-0.695-0.035-0.965-0.149c-0.309-0.129-0.66-0.428-0.892-0.669c-0.379-0.39-0.79-1.004-1.04-1.486c-0.121-0.232-0.462-0.628-0.462-0.628s-0.456-0.022-0.727-0.041c-0.303-0.02-0.729-0.108-0.966-0.297c-0.242-0.192-0.389-0.611-0.52-0.892c-0.14-0.3-0.372-1.04-0.372-1.04s-1.138,0.749-1.336,1.263c-0.106,0.271-0.026,0.694,0.074,0.966c0.103,0.284,0.389,0.593,0.593,0.817c0.16,0.175,0.595,0.52,0.595,0.52s-1.001,0.105-1.41,0c-0.542-0.138-1.416-0.699-1.813-1.094c-0.36-0.359-0.654-0.912-0.842-1.384c-0.197-0.492-0.243-1.609-0.243-1.609l0.125-1.036c0,0-0.491,0.494-0.571,0.813c-0.071,0.281,0,0.966,0,0.966s-0.552-1.17-0.669-1.709c-0.085-0.392-0.156-0.943-0.074-1.338c0.061-0.291,0.446-0.892,0.446-0.892s-0.704-1.215-0.892-1.782c-0.242-0.732-0.492-1.759-0.446-2.527c0.038-0.606,0.595-1.932,0.595-1.932l-0.817,0.223c0,0-0.943-0.95-1.039-1.487c-0.128-0.702,0.325-1.642,0.593-2.303c0.135-0.332,0.453-0.71,0.595-1.04c0.184-0.427,0.446-1.487,0.446-1.487s-0.783-0.307-0.965-0.593c-0.206-0.322-0.148-1.263-0.148-1.263s0.538,0.438,0.816,0.52c0.214,0.061,0.563-0.243,0.563-0.243s-0.426-0.866-0.488-1.392c-0.034-0.291,0.016-0.705,0.148-0.966C319.204,158.369,319.745,157.954,319.745,157.954L319.745,157.954L319.745,157.954z" />
    <path fill="#C8102E" stroke="#010101" stroke-width="0.3468" d="M324.793,162.031c0,0-0.047,1.355,0.007,1.757c0.044,0.318,0.364,0.74,0.364,0.74s0.357-0.358,0.401-0.68c0.057-0.409,0.038-1.783,0.038-1.783L324.793,162.031L324.793,162.031L324.793,162.031z M329.137,162.021c0,0-0.047,1.355,0.007,1.759c0.044,0.316,0.364,0.739,0.364,0.739s0.357-0.358,0.401-0.68c0.057-0.41,0.038-1.783,0.038-1.783L329.137,162.021L329.137,162.021L329.137,162.021z M325.572,162.563c0,0,0.071,1.925,0.522,2.729c0.257,0.462,1.218,1.416,1.218,1.416s1.116-1.094,1.391-1.55c0.472-0.784,0.383-2.798,0.383-2.798l-0.732-1.011l-2.158,0.034L325.572,162.563z" />
    <path fill="#C8102E" stroke="#010101" stroke-width="0.3468" d="M323.821,160.557c0,0-0.28,0.194-0.106,0.557c0.124,0.259,0.737,0.595,0.809,0.777c0.074,0.185,0.166,0.71,0.166,0.71s0.635,0.181,0.861,0.118c0.291-0.08,0.587-0.397,0.864-0.519c0.248-0.109,0.864-0.259,0.864-0.259l-0.086-1.816c-0.02,0.023-0.909-0.908-1.196-1.269c-0.103-0.131-0.402,0.131-0.358,0.292c0.147,0.56,1.591,0.96,1.55,0.986c0,0,1.422-0.5,1.441-1.05c0.003-0.109-0.169-0.322-0.259-0.259c-0.36,0.249-1.127,1.362-1.182,1.301l0.086,1.816c0,0,0.648,0.157,0.865,0.251c0.219,0.095,0.466,0.426,0.696,0.491c0.328,0.095,1.151-0.251,1.151-0.251s-0.048-0.433,0-0.594c0.076-0.251,0.584-0.579,0.758-0.898c0.154-0.29-0.108-0.482-0.108-0.482" />
    <path fill="none" stroke="#010101" stroke-width="0.3468" d="M325.747,156.889c0.227,0.517-0.3,1.247-1.177,1.632c-0.877,0.385-1.772,0.277-1.999-0.239c-0.226-0.516,0.302-1.247,1.179-1.632C324.626,156.265,325.521,156.373,325.747,156.889z M328.156,156.711c-0.227,0.516,0.3,1.246,1.177,1.631s1.773,0.279,1.999-0.239c0.226-0.516-0.302-1.246-1.179-1.631C329.276,156.088,328.382,156.194,328.156,156.711z M327.277,156.558c0,0,0.551,0.167,0.676,0.299c0.245,0.251,0.278,0.783,0.551,1.001c0.128,0.105,0.392,0.265,0.532,0.355c0.079,0.05,0.185,0.223,0.423,0.304c0.288,0.101,0.731,0.016,0.884,0.079c0.497,0.207,1.266,1.04,1.431,1.553c0.053,0.166-0.061,0.404-0.124,0.566c-0.154,0.411-0.544,0.874-0.712,1.279c-0.071,0.17-0.151,0.408-0.172,0.592c-0.016,0.131,0.004,0.31,0.025,0.442c0.013,0.09,0.022,0.22,0.073,0.296c0.098,0.144,0.355,0.144,0.443,0.296 M325.746,156.952c0,0,0.131,0.224-0.007,0.574c-0.111,0.278-0.479,0.685-0.614,0.761c-0.433,0.239-1.046,0.418-1.386,0.558c-0.345,0.141-0.699,0.339-0.751,0.37c-0.134,0.08-0.379,0.067-0.488,0.178c-0.257,0.262-0.446,0.791-0.399,1.154c0.086,0.666,1.137,1.2,1.243,1.864c0.122,0.778-0.721,1.741-0.711,2.53c0.006,0.404,0.466,0.533,0.401,0.933c-0.042,0.243-0.49,1.02-0.49,1.02s0.923-0.535,1.199-0.887c0.169-0.216,0.354-0.843,0.354-0.843s-0.296,1.316-0.178,1.865c0.131,0.6,0.667,1.349,0.667,1.349s0.053-0.554,0.167-0.852c0.083-0.21,0.675-0.321,0.675-0.321s-0.198,0.583-0.222,0.844c-0.016,0.173-0.019,0.415,0.044,0.577c0.109,0.283,0.397,0.595,0.621,0.799c0.095,0.084,0.355,0.221,0.355,0.221s-0.214-0.587-0.178-0.842c0.029-0.195,0.31-0.577,0.31-0.577s0.132,0.855,0.267,1.198c0.067,0.172,0.207,0.392,0.264,0.568c0.134,0.42,0.029,0.627-0.032,1.064c-0.025,0.184-0.222,0.718-0.222,0.718s0.832-0.421,1.029-0.765c0.132-0.231,0.173-0.66,0.184-0.926c0.007-0.178,0.008-0.188,0.008-0.188s0.304,0.347,0.354,0.532c0.067,0.245,0.023,0.302-0.032,0.549c-0.077,0.336-0.262,0.565-0.267,0.911c-0.004,0.258,0.143,0.605,0.31,0.8c0.341,0.395,1.332,0.756,1.332,0.756s-0.392-0.755-0.443-1.109c-0.038-0.265,0.172-0.53,0.265-0.781c0.138-0.367,0.611-0.702,0.755-1.065c0.105-0.262,0.144-0.65,0.132-0.933c-0.011-0.3-0.108-0.698-0.222-0.976c-0.124-0.305-0.577-0.931-0.577-0.931s-0.089-0.061,0.153,0.14c0.186,0.156,0.702,0.558,0.78,0.702c0.132,0.249,0.286,0.838,0.286,0.838s0.275-0.689,0.291-1.059c0.013-0.332-0.359-0.982-0.359-0.982l-0.175-0.439c0,0,0.605,0.404,0.755,0.666c0.175,0.306,0.339,1.036,0.339,1.036s0.487-0.893,0.45-1.303c-0.021-0.225-0.106-0.484-0.203-0.689c-0.09-0.194-0.455-0.641-0.455-0.641s0.593,0.127,0.73,0.297c0.156,0.195,0.474,0.831,0.474,0.831s0.32-0.572,0.373-1.173c0.041-0.468-0.297-1.323-0.481-1.459l-1.221-0.89" />
    <path fill="#000000" stroke="#010101" stroke-width="0.3468" d="M321.151,154.992c0,0,0.401,0.334,0.421,0.536c0.023,0.23-0.397,0.463-0.344,0.689c0.041,0.184,0.488,0.194,0.497,0.383c0.019,0.421-1.033,0.956-1.033,0.956s0.526-1.206,0.574-1.76C321.287,155.553,321.151,154.992,321.151,154.992L321.151,154.992L321.151,154.992z M332.325,154.706c0,0-0.198,1.106,0.085,1.501c0.206,0.285,0.513,0.798,0.513,0.798s-0.272,0.001-0.367-0.058c-0.233-0.144-0.246-0.344-0.38-0.64c-0.093-0.205-0.309-0.565-0.353-0.876C331.785,155.17,332.325,154.706,332.325,154.706L332.325,154.706z" />
    <path fill="#C8102E" stroke="#010101" stroke-width="0.3468" d="M325.683,157.241c0,0.614-0.497,1.112-1.111,1.112c-0.614,0-1.111-0.497-1.112-1.111v-0.001c0-0.613,0.497-1.11,1.111-1.11c0.614-0.001,1.112,0.495,1.112,1.109V157.241z M330.394,157.036c0.003,0.614-0.495,1.112-1.109,1.112s-1.112-0.497-1.112-1.111v-0.001c0-0.613,0.497-1.11,1.111-1.11c0.614-0.001,1.111,0.495,1.111,1.109L330.394,157.036L330.394,157.036z" />
    <path fill="#010101" d="M329.375,156.082c-0.085-0.001-0.159,0.012-0.235,0.022c-0.15,0.018-0.277,0.042-0.277,0.042l0.108,0.473c0,0,0.103-0.02,0.226-0.035c0.121-0.015,0.275,0.006,0.251-0.004c-0.01-0.004,0.089,0.105,0.096,0.129c0.023,0.08,0.01,0.376-0.031,0.456c-0.013,0.028-0.127,0.128-0.134,0.13c0.037-0.012-0.083-0.001-0.173-0.017c-0.089-0.016-0.164-0.034-0.164-0.034s-0.245-0.029-0.28,0.051c-0.047,0.106,0.141,0.36,0.141,0.36s0.096,0.022,0.211,0.042c0.117,0.022,0.235,0.057,0.408,0c0.207-0.067,0.335-0.198,0.42-0.372c0.117-0.233,0.144-0.504,0.066-0.759c-0.055-0.181-0.153-0.336-0.36-0.428C329.55,156.093,329.459,156.082,329.375,156.082L329.375,156.082L329.375,156.082z M324.654,156.238c-0.083,0-0.157,0.012-0.233,0.022c-0.15,0.017-0.278,0.042-0.278,0.042l0.109,0.473c0,0,0.103-0.02,0.226-0.035c0.121-0.014,0.274,0.006,0.251-0.004c-0.01-0.004,0.087,0.105,0.095,0.129c0.025,0.08,0.011,0.376-0.029,0.456c-0.013,0.028-0.127,0.127-0.134,0.13c0.037-0.012-0.083-0.002-0.173-0.018s-0.165-0.035-0.165-0.035s-0.246-0.029-0.28,0.053c-0.047,0.105,0.14,0.36,0.14,0.36s0.098,0.022,0.213,0.044c0.117,0.02,0.235,0.057,0.408,0c0.207-0.069,0.334-0.2,0.42-0.373c0.115-0.233,0.144-0.504,0.066-0.759c-0.057-0.181-0.153-0.335-0.36-0.428C324.83,156.249,324.739,156.238,324.654,156.238L324.654,156.238L324.654,156.238z" />
    <path fill="#C8102E" stroke="#010101" stroke-width="0.3468" d="M329.174,155.337c0,0-0.383,0.06-0.542,0.122c-0.31,0.124-0.624,0.407-0.663,0.739c-0.022,0.173,0.045,0.321,0.17,0.442c0.135,0.131,0.354,0.115,0.542,0.124c0.275,0.013,0.616-0.204,0.886-0.172c0.386,0.047,0.889,0.283,1.18,0.541c0.137,0.121,0.167,0.418,0.32,0.517c0.137,0.089,0.395,0.147,0.541,0.073c0.15-0.076,0.229-0.328,0.271-0.491c0.019-0.079,0.022-0.194,0-0.271c-0.035-0.118-0.137-0.255-0.222-0.344c-0.106-0.11-0.418-0.295-0.418-0.295 M322.449,156.484c0,0-0.322,0.675-0.394,0.985c-0.045,0.194-0.124,0.478-0.05,0.664c0.077,0.194,0.309,0.494,0.516,0.466c0.122-0.016,0.166-0.235,0.222-0.344c0.121-0.239,0.148-0.63,0.32-0.836c0.21-0.252,0.615-0.491,0.934-0.566c0.347-0.082,0.826,0.111,1.182,0.098c0.194-0.006,0.466-0.01,0.64-0.098c0.168-0.084,0.443-0.443,0.443-0.443s-0.159-0.402-0.296-0.517c-0.173-0.144-0.49-0.217-0.714-0.245c-0.278-0.037-0.654,0.039-0.934,0.073c-0.134,0.018-0.443,0.074-0.443,0.074" />
    <path fill="none" stroke="#010101" stroke-width="0.3468" d="M319.126,162.489c0,0,0.552,0.108,0.777,0.042c0.462-0.137,1.018-0.552,1.3-0.944c0.061-0.086,0.105-0.335,0.105-0.335 M318.601,168.865c0,0-0.156-0.994-0.063-1.404c0.082-0.369,0.336-0.829,0.587-1.112c0.507-0.571,2.097-1.447,2.097-1.447 M321.307,166.327c0,0-1.127,0.941-1.489,1.449c-0.179,0.249-0.44,0.922-0.44,0.922 M321.412,168.802c0,0-0.586,0.783-0.777,1.154c-0.232,0.453-0.471,1.097-0.587,1.594c-0.105,0.45-0.179,1.068-0.167,1.531c0.013,0.508,0.252,1.825,0.252,1.825 M320.98,177.031c0,0,0.748-0.733,0.752-1.383c0.003-0.474-0.582-1.108-0.667-1.574c-0.086-0.46,0.07-1.275,0.286-1.692c0.082-0.157,0.428-0.405,0.428-0.405 M325.116,178.746c0,0,0.653-0.803,0.644-1.215c-0.019-0.893-0.978-1.715-0.835-2.598c0.029-0.179,0.322-0.489,0.388-0.825c0.048-0.243-0.042-0.677-0.077-0.772c-0.102-0.275-0.81-0.5-0.81-0.5 M324.154,182.188c0,0-0.851-0.726-1.188-1.176c-0.31-0.413-0.51-0.87-0.529-1.108c-0.035-0.437-0.032-0.778,0.054-1.208c0.173-0.868,1.052-1.811,1.182-2.687c0.038-0.257-0.159-0.627-0.055-0.866c0.093-0.211,0.475-0.291,0.596-0.488c0.115-0.184,0.188-0.488,0.163-0.704c-0.017-0.144-0.217-0.433-0.217-0.433 M322.968,171.029c0,0-0.32,0.589-0.379,0.866c-0.055,0.271-0.124,0.674,0,0.921c0.137,0.27,0.676,0.326,0.813,0.596c0.131,0.261,0.13,0.712,0,0.975c-0.109,0.217-0.65,0.487-0.65,0.487s-0.297-1.055-0.271-1.517c0.008-0.169,0.162-0.541,0.162-0.541 M329.467,174.277c0,0,0.475,1.043,0.392,1.513c-0.06,0.342-0.554,0.679-0.541,1.029c0.006,0.153,0.27,0.433,0.27,0.433s-0.386,0.169-0.541,0.108c-0.206-0.08-0.357-0.388-0.433-0.596c-0.141-0.382,0.038-0.82-0.178-1.167c-0.099-0.16-0.648-0.452-0.648-0.452s0.577,1.938,0.37,2.611c-0.134,0.436-0.934,0.316-1.076,0.854c-0.082,0.317-0.051,0.833,0.163,1.083c0.178,0.207,0.577,0.3,0.819,0.176c0.229-0.117,0.434-0.464,0.434-0.464s0.166,0.66,0.023,0.896c-0.117,0.192-0.52,0.558-0.52,0.558 M330.518,177.814c0,0-0.207,0.516-0.172,0.742c0.079,0.494,0.857,1.428,0.857,1.428 M332.116,176.9l-0.229-1.086l-0.114-1.769 M332.459,171.647c0,0-0.274,0.93-0.172,1.313c0.182,0.686,1.428,1.884,1.428,1.884 M333.772,166.681c0,0,0.034,0.851,0.229,1.141c0.274,0.411,1.542,0.8,1.542,0.8 M332.687,168.221c0,0,1.312,1.384,1.656,2.113c0.336,0.714,0.571,2.569,0.571,2.569" />
    <path fill="#010101" d="M327.12,162.047c-0.064,2.298,0.022,3.161,0.022,3.161l0.147,0.467l0.173-0.498c0,0-0.082-0.832-0.017-3.121L327.12,162.047z" />
  </g>
  <g>
    <path fill="#C8102E" stroke="#010101" stroke-width="0.4161" d="M315.583,117.803c0,0,0.508-1.629,1.086-1.988c0.176-0.108,0.415,0.061,0.689-0.026c0.294-0.095,0.952-0.258,1.033-0.557c0.083-0.304-0.318-1.005-0.318-1.005s-0.917-0.781-1.403-0.848c-0.532-0.073-1.722,0.476-1.722,0.476l-0.344,1.431L315.583,117.803L315.583,117.803L315.583,117.803z M340.196,141.929c0,0-1.955,0.299-2.413-0.169c-0.143-0.144-0.039-0.369-0.121-0.555c-0.098-0.22-0.243-0.406-0.482-0.434c-0.38-0.042-0.745,0.446-0.941,0.773c-0.264,0.436-0.29,1.569-0.29,1.569l0.772,1.012l2.368-0.166L340.196,141.929z" />
    <path fill="#C8102E" stroke="#010101" stroke-width="0.4161" d="M355.306,131.202c0,0-4.252,3.153-5.781,4.811c-0.366,0.397-0.895,0.949-1.033,1.469c-0.122,0.456-0.017,1.122,0.143,1.566c0.176,0.492,0.491,1.271,0.987,1.438c0.453,0.154,1.517-0.491,1.517-0.491s-0.538,1.071-0.96,1.319c-0.312,0.182-0.841,0.209-1.196,0.141c-0.267-0.051-0.799-0.427-0.799-0.427s0.008,0.64-0.144,0.883c-0.204,0.325-0.877,0.807-0.877,0.807s0.02-0.479,0.014-0.672c-0.008-0.329-0.095-0.714-0.27-0.991c-0.106-0.169-0.58-0.322-0.58-0.322s0.21,0.348,0.258,0.514c0.103,0.354,0.179,0.856,0.128,1.222c-0.028,0.206-0.278,0.437-0.257,0.644c0.029,0.277,0.01,0.439,0.249,0.58c0.184,0.109,0.427,0.245,0.619,0.153c0.125-0.06,0.424-0.179,0.465-0.312c0.032-0.111,0.147-0.357,0.147-0.357s0.184,0.391,0.163,0.754c-0.01,0.198-0.176,0.389-0.251,0.504c-0.039,0.06-0.154,0.325-0.465,0.41c-0.303,0.082-0.669,0.042-0.737,0.029c0,0-0.602-0.036-0.823-0.154c-0.339-0.182-0.698-0.59-0.893-0.923c-0.111-0.184-0.095-0.504-0.213-0.683c-0.098-0.148-0.36-0.233-0.45-0.386c-0.099-0.171-0.099-0.157-0.099-0.157s0.179,0.032,0.259,0.351c0.09,0.352,0.29,1.287,0.29,1.287l-0.858-0.143l-0.568-0.455c0,0-0.194-0.15-0.182-0.24c0.013-0.095,0.226-0.102,0.258-0.193c0.08-0.224-0.258-0.514-0.258-0.514s0.313,0.305,0.232,0.533c-0.031,0.083-0.227,0.095-0.232,0.182c-0.011,0.321,0.361,0.446,0.781,0.724c0.304,0.203,0.685,0.325,0.764,0.555c0.071,0.209-0.192,0.708-0.192,0.708l-1.545,0.772c0,0-0.676,0.026-0.901-0.13c-0.363-0.251-0.998-1.222-0.998-1.222l-0.096,0.064v0.966c0,0,0.742,0.679,0.643,1.028c-0.07,0.249-0.772,0.386-0.772,0.386l-1.995,0.129c0,0-0.443-0.309-0.514-0.516c-0.109-0.312,0.128-1.093,0.128-1.093l-0.772,0.256c0,0-0.291,0.975-0.643,1.159c-0.172,0.09-0.462,0.003-0.644-0.064c-0.351-0.128-1.03-0.708-1.03-0.708l-0.579-2.445c0,0,0.313-0.414,0.516-0.45c0.427-0.077,1.351,0.514,1.351,0.514s1.447-0.43,1.931-0.837c0.511-0.431,0.793-1.354,1.222-1.865c0.29-0.345,0.711-0.793,1.095-1.03c0.14-0.088,0.351-0.173,0.514-0.194c0.347-0.042,0.82,0.04,1.158,0.13c0.326,0.087,0.696,0.399,1.03,0.45c0.172,0.026,0.579-0.064,0.579-0.064s-1.179-0.242-1.673-0.386c-0.609-0.178-1.364-0.633-1.995-0.708c-0.193-0.023-0.462,0.133-0.644,0.064c-0.344-0.131-0.701-0.558-0.836-0.9c-0.022-0.054,0.041-0.153,0-0.194c-0.15-0.15-0.504,0.058-0.708,0c-0.458-0.13-1.026-0.487-1.351-0.837c-0.283-0.303-0.644-0.807-0.644-1.222c0.003-0.328,0.287-0.73,0.516-0.965c0.325-0.335,1.351-0.772,1.351-0.772s-0.462,0.641-0.514,0.965c-0.038,0.232-0.011,0.584,0.128,0.772c0.077,0.105,0.261,0.162,0.386,0.194c0.542,0.137,1.867,0.064,1.867,0.064s0.58-1.071,0.901-1.48c0.405-0.516,1.023-1.148,1.545-1.545c0.283-0.214,0.705-0.436,1.03-0.579c0.391-0.173,1.029-0.17,1.351-0.45c0.195-0.17,0.293-0.532,0.386-0.772c0.102-0.262,0.262-0.621,0.258-0.902c-0.01-0.567-0.58-1.801-0.58-1.801s-14.645,6.537-21.311,6.33c-1.224-0.038-2.836-0.695-3.837-1.403c-0.504-0.358-1.31-1.591-1.31-1.591s-1.03,0.514-1.217,0.936c-0.135,0.309-0.014,0.803,0.093,1.124c0.118,0.347,0.656,1.029,0.656,1.029s-1.08-0.322-1.403-0.654c-0.342-0.351-0.555-1.017-0.656-1.498c-0.092-0.439-0.034-0.857,0.187-1.247c0.162-0.285,0.65-0.861,0.65-0.861s-0.672-1.046-0.924-1.559c-0.222-0.45-0.567-1.572-0.567-1.572s-0.411,0.093-0.563,0.187c-0.134,0.083-0.304,0.232-0.375,0.375c-0.099,0.203-0.21,0.554-0.093,0.748c0.124,0.206,0.749,0.281,0.749,0.281s-0.288,0.355-0.468,0.375c-0.375,0.039-0.909-0.252-1.124-0.561c-0.32-0.465-0.329-1.326-0.187-1.873c0.086-0.331,0.399-0.707,0.654-0.935c0.262-0.235,1.03-0.563,1.03-0.563s-0.552-0.609-0.656-0.936c-0.076-0.241,0.067-0.599,0-0.842c-0.087-0.315-0.547-0.609-0.561-0.936c-0.044-0.966,1.403-2.901,1.403-2.901s-0.881,1.696-1.591,1.966c-0.319,0.121-1.122-0.188-1.122-0.188l-0.656-1.778c0,0,0.077-0.622,0.281-0.749c0.479-0.297,1.871,0.188,1.871,0.188l-1.217-0.375v-1.403l1.03-0.469c0,0-1.182,0.619-1.686,0.469c-0.286-0.086-0.654-0.749-0.654-0.749l0.281-1.405c0,0,0.303-0.641,0.561-0.654c0.693-0.037,1.685,1.591,1.685,1.591l-1.029-1.217l0.375-0.563l1.029,1.03l-1.029-1.124l0.093-1.029h0.375c0,0-0.704-0.181-0.842-0.406c-0.163-0.264-0.227-0.641-0.063-0.905c0.255-0.405,1.466-0.624,1.466-0.624s1.119-0.044,1.403,0.249c0.242,0.251,0.326,0.592,0.281,0.937c-0.038,0.285-0.53,0.81-0.53,0.81s0.334,1.695,0.624,2.371c0.338,0.788,0.959,1.767,1.498,2.433c0.511,0.633,1.454,1.237,1.964,1.871c0.783,0.973,1.585,2.447,2.154,3.557c0.72,1.412,2.058,4.867,2.058,4.867l17.501-3.931l7.58,0.281l5.147,2.152L355.306,131.202z" />
    <path fill="#C8102E" stroke="#010101" stroke-width="0.3468" d="M316.669,114.099c0.017,0.213,0.141,0.504,0.302,0.647c0.122,0.108,0.358,0.21,0.517,0.172c0.213-0.051,0.417-0.125,0.503-0.326c0.233-0.548,0.322-1.249,0.13-1.811c-0.147-0.425-0.548-0.957-0.949-1.164c-0.185-0.095-0.358-0.176-0.561-0.128c-0.204,0.047-0.691,0.258-0.691,0.258s0.456,0.165,0.603,0.301c0.167,0.154,0.323,0.43,0.389,0.647c0.082,0.272-0.041,0.475-0.071,0.758C316.819,113.651,316.65,113.898,316.669,114.099L316.669,114.099L316.669,114.099z M311.566,112.003c0,0,0.115-0.736,0.431-0.991c0.318-0.257,0.884-0.443,1.293-0.431c0.28,0.009,0.654,0.16,0.863,0.345c0.401,0.351,0.732,0.854,0.819,1.38c0.038,0.22,0.067,0.495-0.042,0.689c-0.127,0.223-0.391,0.341-0.647,0.345c-0.184,0.003-0.436-0.254-0.561-0.388c-0.322-0.348-0.259-1.021-0.647-1.294c-0.119-0.084-0.326-0.124-0.474-0.129c-0.131-0.004-0.302,0.061-0.431,0.086C311.975,111.655,311.566,112.003,311.566,112.003L311.566,112.003L311.566,112.003z M311.652,117.221c0.132-0.025,0.347-0.025,0.431-0.129c0.121-0.152,0.118-0.468,0.044-0.647c-0.106-0.253-0.217-0.463-0.475-0.56c-0.144-0.055-0.801,0.076-0.949,0.128c-0.363,0.131-0.593,0.307-0.775,0.647c-0.167,0.309-0.235,0.829-0.13,1.165c0.082,0.262,0.38,0.529,0.603,0.689c0.135,0.099,0.517,0.216,0.517,0.216s-0.242-0.696-0.173-0.991c0.041-0.172,0.193-0.389,0.345-0.475C311.239,117.182,311.486,117.252,311.652,117.221L311.652,117.221L311.652,117.221z M311.997,120.67c0.175-0.128,0.538,0.062,0.691,0.216c0.16,0.163,0.264,0.508,0.214,0.733c-0.054,0.251-0.341,0.512-0.56,0.647c-0.307,0.19-0.807,0.358-1.164,0.301c-0.379-0.061-0.852-0.379-1.078-0.69c-0.242-0.335-0.367-0.923-0.344-1.336c0.01-0.181,0.216-0.561,0.216-0.561s0.165,0.596,0.344,0.777c0.251,0.249,0.727,0.439,1.078,0.473C311.577,121.249,311.892,120.747,311.997,120.67L311.997,120.67z M336.24,142.843c-0.27,0.028-0.611-0.188-0.88-0.191c-0.408-0.003-1.333,0.262-1.333,0.262s0.423-0.581,0.666-0.762c0.296-0.217,0.752-0.488,1.119-0.499c0.281-0.007,0.693,0.122,0.88,0.333c0.121,0.138,0.225,0.43,0.143,0.595C336.749,142.756,336.434,142.824,336.24,142.843L336.24,142.843L336.24,142.843z M335.169,144.747c0.207-0.006,0.485,0.07,0.667,0.169c0.187,0.102,0.472,0.274,0.526,0.486c0.035,0.136-0.061,0.332-0.141,0.445c-0.057,0.08-0.173,0.153-0.262,0.191c-0.189,0.077-0.492-0.002-0.669,0.105c-0.153,0.093-0.296,0.314-0.363,0.486c-0.096,0.242-0.168,0.351-0.143,0.612c0.019,0.2,0.264,0.804,0.264,0.804s-0.683-0.312-0.87-0.529c-0.272-0.317-0.444-0.715-0.424-1.142c0.011-0.27,0.19-0.608,0.344-0.825c0.189-0.267,0.529-0.558,0.809-0.718C334.978,144.791,335.088,144.75,335.169,144.747L335.169,144.747L335.169,144.747z M339.235,146.744c0.076-0.092,0.242-0.165,0.363-0.169c0.296-0.009,0.752,0.118,0.918,0.363c0.127,0.187,0.048,0.53,0,0.749c-0.07,0.328-0.255,0.751-0.459,1.016c-0.188,0.246-0.797,0.653-0.797,0.653s0.154-0.71,0.119-1.014c-0.031-0.283-0.3-0.61-0.313-0.895C339.054,147.229,339.098,146.911,339.235,146.744L339.235,146.744L339.235,146.744z M343.271,145.198c0.153-0.223,0.603-0.242,0.87-0.218c0.23,0.02,0.38,0.118,0.532,0.291c0.201,0.227,0.319,0.664,0.291,0.966c-0.019,0.188-0.163,0.418-0.291,0.557c-0.15,0.162-0.249,0.338-0.459,0.411c-0.241,0.083-0.845,0.096-0.845,0.096s0.382-0.405,0.434-0.628c0.057-0.244,0.007-0.609-0.121-0.822c-0.069-0.116-0.293-0.15-0.363-0.266C343.261,145.483,343.206,145.294,343.271,145.198L343.271,145.198L343.271,145.198z M345.559,129.959c-0.582,0.232-1.196,0.86-1.607,1.332c-0.223,0.257-0.596,0.965-0.596,0.965s0.904-0.105,1.285-0.184c0.755-0.159,1.708-0.647,2.479-0.689c0.683-0.038,1.593,0.178,2.25,0.367c0.748,0.216,2.387,1.01,2.387,1.01s-1.545-2.568-2.662-3.029C348.112,129.323,346.547,129.567,345.559,129.959L345.559,129.959z" />
    <path fill="#C8102E" stroke="#010101" stroke-width="0.4161" d="M316.628,141.999c0.109-0.145,0.309-0.31,0.481-0.369c0.137-0.047,0.342-0.041,0.481,0c0.37,0.111,0.715,0.567,1.075,0.708c0.586,0.228,2.066,0.34,2.066,0.34l-1.571,1.839l-2.49,0.226l-0.453-0.778c0,0-0.063-0.628-0.014-0.89C316.265,142.732,316.418,142.276,316.628,141.999L316.628,141.999L316.628,141.999z M357.786,142.997c0,0-1.247,0.143-1.698-0.096c-0.309-0.165-0.394-0.769-0.704-0.93c-0.299-0.153-0.813-0.169-1.121-0.032c-0.23,0.103-0.545,0.641-0.545,0.641l0.577,1.634l0.8,0.128l1.364-0.026L357.786,142.997L357.786,142.997L357.786,142.997z" />
    <path fill="#C8102E" stroke="#010101" stroke-width="0.4161" d="M329.632,123.983l-9.644,17.238l-1.109,2.732l-0.854,0.17c0,0-1.08-0.36-1.536-0.257c-0.304,0.069-0.852,0.598-0.852,0.598l0.939,2.133c0,0,0.455,0.325,0.682,0.341c0.243,0.018,0.768-0.255,0.768-0.255l0.342-0.768c0-0.137,1.696-1.507,2.104-1.622c0.099-0.028,0.096-0.306,0-0.342c-0.105-0.039-0.245,0.312-0.455,0.51c-0.274,0.259-0.339,0.487-0.474,0.596c-0.513,0.416-0.469,0.481-0.579,1.029c-0.048,0.238,0.255,0.768,0.255,0.768l2.732,0.341c0,0,0.858-0.481,0.939-0.854c0.093-0.437-0.505-0.927-0.598-1.365c-0.069-0.325-0.328-1.053,0-1.109c0.312-0.053-0.157,0.616-0.047,1.119c0.135,0.618,0.815,1.1,0.815,1.1l1.109,0.085c0,0,1.218-1.011,1.451-1.62c0.037-0.096,0.061-0.261,0-0.342c-0.29-0.38-1.536-0.427-1.536-0.427s-0.048-0.198,0.029-0.312c0.172-0.255,0.825-0.114,0.825-0.114l0.255-1.792l0.427,1.109c0,0,0.593-0.81,0.739-1.309c0.109-0.367,0.122-0.915,0-1.28c-0.08-0.243-0.112-0.511-0.112-0.511s0.596,0.511,0.796,0.939c0.119,0.255,0.029,1.081,0.029,1.081s0.361-0.438,0.453-0.66c0.197-0.472,0.385-1.167,0.315-1.674c-0.055-0.397-0.351-0.879-0.598-1.194c-0.29-0.373-0.397-0.482-0.397-0.482s0.179,0.019,0.442,0.204c0.288,0.204,0.673,0.592,0.893,0.961c0.216,0.358,0.257,1.365,0.257,1.365l0.446-0.874l0.151-1.003l-0.341-2.219c0,0,1.256-1.59,2.047-1.792c0.915-0.233,2.129,0.715,3.073,0.683c0.906-0.031,2.056-0.525,2.901-0.854c1.355-0.527,3.018-1.557,4.353-2.133c1.004-0.433,2.346-1.039,3.414-1.281c1.177-0.265,2.853-0.685,4.01-0.341c0.717,0.214,1.606,0.88,1.963,1.536c0.542,0.994,0.156,2.561,0.169,3.691c0.003,0.188-0.332,0.437-0.294,1.033c0.038,0.621,0.444,1.588,0.277,1.762c-0.294,0.302-1.16,0.469-1.16,0.469s0.421,0.363,0.931,0.436c0.407,0.057,0.908-0.154,1.01-0.252c0.255-0.243,0.466-0.72,0.519-0.823c0.27-0.523,0-1.963,0-1.963s0.029,2.167,0.598,2.817c0.251,0.287,0.698,0.288,0.908,0.606c0.226,0.342,0.44,0.737,0.166,1.043c-0.399,0.444-1.138,0.807-1.138,0.807s0.675,0.219,1.294,0.06c0.386-0.099,0.724-0.369,0.903-0.724c0.395-0.786,0.566-2.033,0.427-2.901c-0.082-0.508-0.768-1.536-0.768-1.536s0.602,1.939,1.28,2.389c0.472,0.313,1.484,0.243,1.484,0.243s-0.492,0.928-0.63,1.465c-0.216,0.846,0.257,2.901,0.257,2.901s-1.115,0.455-1.622,0.513c-0.332,0.038-0.812-0.236-1.111-0.086c-0.216,0.109-0.427,0.683-0.427,0.683l1.195,2.133c0,0,0.679,0.287,0.94,0.17c0.439-0.197,0.495-0.989,0.835-1.371c0.336-0.376,1.212-0.933,1.212-0.933l-0.598,2.047l0.427,0.597h1.963c0,0,0.614-0.732,0.598-1.109c-0.021-0.519-0.939-1.451-0.939-1.451s0.51,0.048,0.759,0.188c0.312,0.175,0.606,0.751,0.606,0.751h0.94l1.109-0.852c0,0,0.166-0.711,0-0.939c-0.293-0.404-1.577-0.513-1.577-0.513l0.979-1.195l-0.598-1.023c0,0,1.349,0.794,1.963,0.682c0.394-0.072,0.841-0.497,1.024-0.852c0.153-0.297,0.085-1.111,0.085-1.111s-0.283,0.568-0.511,0.683c-0.206,0.103-0.609,0.167-0.768,0c-0.299-0.317,0.086-1.451,0.086-1.451s1.018-0.243,1.364-0.511c0.248-0.192,0.592-0.542,0.599-0.854c0.006-0.333-0.599-0.938-0.599-0.938s0.089,0.495-0.085,0.686c-0.175,0.192-0.612,0.435-0.854,0.336c-0.46-0.187-0.939-1.365-0.939-1.365s0.905-0.45,1.08-0.901c0.069-0.178,0.061-0.628-0.115-0.873c-0.267-0.37-0.479-0.472-0.479-0.472s0.188,0.589-0.059,0.796c-0.248,0.207-0.701,0.367-1.024,0.341c-0.548-0.045-1.25-0.447-1.622-0.854c-0.449-0.491-0.625-1.19-0.883-1.804c-0.077-0.179-0.182-0.523-0.182-0.523s0.92-0.063,1.291-0.245c0.261-0.126,0.653-0.642,0.714-0.927c0.089-0.423-0.153-1.115-0.517-1.346c-0.303-0.194-0.889-0.038-0.889-0.038s0.417,0.379,0.557,0.586c0.099,0.147-0.162,0.538-0.254,0.689c-0.076,0.124-0.335,0.117-0.476,0.085c-0.7-0.153-1.324-0.848-1.748-1.427c-0.303-0.409-0.513-1.62-0.513-1.62s1.358-0.101,1.878-0.342c0.841-0.389,1.851-1.207,2.39-1.963c0.427-0.6,0.733-1.577,0.852-2.304c0.137-0.833,0.072-1.986-0.085-2.817c-0.143-0.747-0.465-1.735-0.854-2.39c-0.353-0.592-1.536-1.706-1.536-1.706s-0.643-0.401-0.768-0.683c-0.117-0.257-0.17-0.712,0-0.939c0.112-0.148,0.449-0.282,0.598-0.17c0.143,0.108,0.426,1.024,0.426,1.024s0.399-0.224,0.599-0.597c0.158-0.297-0.041-0.799-0.172-1.111c-0.099-0.236-0.286-0.561-0.511-0.682c-0.407-0.219-1.135-0.277-1.587-0.188c-0.584,0.115-1.198,0.506-1.587,0.956c-0.281,0.323-0.539,0.938-0.582,1.365c-0.022,0.232,0.035,0.819,0.035,0.819s-2.915-0.28-4.301-0.222c-1.387,0.059-3.396,0.538-4.864,0.598c-0.615,0.025-1.447,0.039-2.049-0.086c-0.914-0.188-2.164-0.539-2.901-1.109c-0.35-0.27-0.692-0.786-0.854-1.195c-0.21-0.527-0.264-1.285-0.017-1.798c0.194-0.404,0.606-0.739,1.04-0.846c0.449-0.111,1.151-0.167,1.537,0.084c0.191,0.127,0.386,0.459,0.341,0.684c-0.047,0.232-0.369,0.451-0.598,0.511c-0.252,0.067-0.852-0.17-0.852-0.17s-0.117,0.47,0.085,0.737c0.262,0.35,0.931,0.566,1.365,0.511c0.402-0.05,0.978-0.415,1.24-0.724c0.386-0.455,0.723-1.469,0.723-1.469s2.1,0.214,2.987,0.086c1.147-0.165,2.344-0.363,3.372-0.896c0.567-0.296,1.462-0.785,1.819-1.317c0.398-0.593,0.568-1.533,0.411-2.229c-0.141-0.621-0.669-1.094-1.281-1.268c-0.468-0.131-1.323,0.27-1.323,0.27s0.768,0.07,1.024,0.256c0.271,0.195,0.579,0.469,0.672,0.79c0.044,0.147-0.07,0.603-0.148,0.736c-0.163,0.275-0.5,0.447-0.79,0.586c-0.426,0.202-1.091,0.22-1.562,0.224c-0.632,0.006-1.61-0.542-2.225-0.693c-0.45-0.111-1.685,0.016-1.685,0.016s0.804-1.09,0.81-1.504c0.007-0.519-0.034-1.23-0.373-1.622c-0.248-0.286-0.737-0.533-1.111-0.598c-0.331-0.057-0.571-0.067-0.79,0.188c-0.134,0.156-0.355,0.463-0.319,0.666c0.053,0.294,0.187,0.465,0.187,0.465s0.179-0.288,0.411-0.465c0.122-0.093,0.388-0.09,0.511,0c0.132,0.095,0.376,0.527,0.345,0.686c-0.093,0.52-0.956,1.105-1.415,1.365c-0.699,0.4-1.75,0.002-2.525,0.217c-0.829,0.232-1.971,0.577-2.646,1.111c-0.647,0.51-1.357,1.438-1.622,2.218c-0.284,0.835-0.277,2.079-0.073,2.938c0.2,0.847,0.78,1.915,1.365,2.56c0.682,0.752,1.89,1.46,2.815,1.877c0.726,0.328,1.769,0.542,2.56,0.603c0.745,0.06,1.733-0.103,2.476-0.176c1.1-0.108,3.671-0.341,3.671-0.341s-1.855,0.585-2.476,1.109c-0.423,0.358-0.95,0.988-1.024,1.536c-0.054,0.402,0.134,1.001,0.427,1.281c0.27,0.258,1.195,0.341,1.195,0.341s-0.634-0.608-0.598-0.939c0.011-0.108,0.151-0.225,0.257-0.256c0.249-0.076,0.593,0.197,0.852,0.17c0.72-0.073,1.719-0.417,2.219-0.939c0.303-0.316,0.511-1.365,0.511-1.365s-0.364,1.607,0,2.133c0.249,0.36,0.973,0.746,1.402,0.835c0.476,0.099,1.131-0.063,1.585-0.238c0.304-0.116,0.74-0.443,0.768-0.768c0.028-0.312-0.598-0.854-0.598-0.854s0.127,0.471,0,0.598c-0.163,0.163-0.552,0.082-0.768,0c-0.255-0.096-0.57-0.35-0.682-0.598c-0.096-0.21-0.095-0.558,0-0.768c0.14-0.315,0.536-0.632,0.852-0.768c0.59-0.253,1.524-0.372,2.135-0.17c0.74,0.244,1.588,1.022,1.963,1.706c0.421,0.773,0.624,2.045,0.426,2.901c-0.153,0.664-0.743,1.457-1.28,1.878c-0.516,0.405-2.049,0.768-2.049,0.768s-2.818-0.012-3.536-0.165c-1.945-0.412-3.236-1.249-5.211-1.488c-0.762-0.092-2.017-0.194-2.785-0.214c-1.306-0.034-3.341,0.106-4.641-0.021c-2.2-0.214-7.187-0.726-7.187-0.726l-2.84-0.715L329.632,123.983z" />
    <path fill="none" stroke="#010101" stroke-width="0.3468" d="M338.95,138.375c0,0,0.488-0.148,0.676-0.258c0.172-0.099,0.514-0.418,0.514-0.418 M341.267,137.797c0,0-0.463,0.097-0.612,0.224c-0.166,0.143-0.335,0.424-0.354,0.644c-0.019,0.233,0.258,0.739,0.258,0.739 M341.75,138.085c0,0-0.418,0.238-0.482,0.418c-0.096,0.268,0.053,0.67,0.16,0.934c0.058,0.14,0.29,0.417,0.29,0.417 M342.65,138.247c0,0-0.389,0.367-0.45,0.578c-0.057,0.195-0.01,0.487,0.064,0.676c0.099,0.249,0.547,0.707,0.547,0.707 M340.881,144.841c0,0,0.057-0.548,0.096-0.739c0.054-0.261,0.611-0.644,0.611-0.644 M338.532,145.549c0,0-0.014-0.38,0.064-0.514c0.109-0.185,0.58-0.418,0.58-0.418 M316.74,131.439c0,0,0.549-0.527,0.751-0.751c0.163-0.181,0.397-0.417,0.6-0.549c0.124-0.081,0.45-0.201,0.45-0.201 M315.239,128.188c0,0,0.449-0.17,0.65-0.201c0.297-0.044,0.72,0.106,1.001,0c0.338-0.128,0.673-0.52,0.901-0.8c0.153-0.188,0.401-0.701,0.401-0.701 M314.789,126.237c0,0,0.734,0.004,1.046-0.253 M315.156,122.201c0,0,0.392,2.211,1.143,2.872c0.529,0.468,1.718,0.689,1.718,0.689 M342.58,110.022c0,0,1.039-0.141,1.486-0.131c0.501,0.01,1.037,0.121,1.485,0.35c0.339,0.172,0.89,0.655,1,1.02c0.042,0.141-0.087,0.481-0.087,0.481 M347.124,110.022c0,0,1.209,0.688,1.759,0.911c0.468,0.188,2.085,0.443,2.085,0.443 M350.181,109.891c0,0,0.858,0.507,1.268,0.612c0.495,0.127,1.703,0.087,1.703,0.087 M348.042,108.056c0,0-0.771,0.482-1.137,0.612c-0.264,0.093-0.644,0.236-0.917,0.175c-0.175-0.039-0.481-0.35-0.481-0.35 M355.526,115.942c0,0,0.507-0.047,0.717,0c0.697,0.159,2.151,1.024,2.151,1.024s-0.336-1.067-0.307-1.536c0.028-0.436,0.175-1.052,0.46-1.383c0.226-0.26,0.691-0.433,1.024-0.512c0.09-0.022,0.307,0,0.307,0 M349.706,121.465c0,0,0.265-0.637,0.498-0.842c0.261-0.229,0.962-0.437,1.276-0.583c0.209-0.098,0.5-0.261,0.615-0.46c0.069-0.121,0.051-0.461,0.051-0.461 M353.828,118.265l-0.407,1.269 M357.726,127.783c0,0-0.927-0.426-1.405-0.544c-0.423-0.106-1.026,0.099-1.45,0c-0.354-0.085-1.089-0.545-1.089-0.545 M353.828,128.597c0,0,0.946,0.173,1.269,0.408c0.49,0.355,0.644,1.188,1.052,1.632c0.267,0.291,0.653,0.538,0.82,0.81c0.143,0.233,0.347,0.841,0.347,0.841s0.248-0.656,0.238-1c-0.003-0.132-0.008-0.969-0.008-0.969s0.836,1.189,1.36,1.496c0.156,0.091,0.589,0.136,0.589,0.136 M360.875,135.844c0,0,0.624,0.378,0.921,0.462c0.254,0.071,0.871,0.076,0.871,0.076 M363.154,139.405c0,0-0.242-0.787-0.436-1.077c-0.216-0.319-0.587-0.704-0.923-0.896c-0.124-0.071-0.46-0.128-0.46-0.128 M360.67,138.406c0,0,0.778,0.289,1,0.564c0.325,0.405,0.45,1.128,0.691,1.588c0.122,0.232,0.272,0.561,0.462,0.742c0.146,0.141,0.589,0.334,0.589,0.334 M361.464,141.147c0,0-0.699-1.096-0.871-1.332c-0.144-0.198-0.564-0.462-0.564-0.462 M336.395,124.819l0.72,1.507 M337.304,124.589l0.472,1.221 M338.167,124.531l0.466,0.771 M338.921,124.365l0.415,0.777 M358.724,137.535l-0.466,0.679l-1.059,0.699c0,0,0.159,0.255,0.326,0.355c0.106,0.066,0.355,0.115,0.474,0.074c0.222-0.074,0.523-0.217,0.667-0.399c0.073-0.092,0.118-0.372,0.118-0.372 M355.048,134.878c0,0,0.146,0.886,0.38,1.173c0.217,0.268,0.67,0.463,1,0.57c0.283,0.09,0.551,0.156,0.828,0.051c0.243-0.092,0.742-0.586,0.742-0.586s-0.182,0.692-0.379,0.914c-0.261,0.293-0.755,0.563-1.138,0.638c-0.251,0.05-0.603-0.021-0.845-0.103c-0.325-0.111-0.984-0.586-0.984-0.586 M353.133,136.81c0,0,0.037,0.89,0.242,1.208c0.16,0.248,0.532,0.436,0.707,0.672c0.165,0.223,0.309,0.479,0.398,0.742c0.093,0.281,0.255,1.194,0.255,1.194 M356.137,128.146c0,0,0.707,0.644,0.923,0.988c0.232,0.369,0.527,1.351,0.527,1.351 M335.854,134.55c0,0-1.195-0.2-1.651-0.436c-0.361-0.187-0.812-0.532-1.042-0.869c-0.255-0.374-0.478-1.434-0.478-1.434 M337.2,133.811c0,0-1.403-0.1-1.899-0.373c-0.291-0.16-0.653-0.44-0.868-0.695c-0.242-0.284-0.608-1.086-0.608-1.086 M338.634,133.202c0,0-1.87-0.43-2.607-0.781c-0.355-0.169-1.144-0.973-1.144-0.973 M335.755,130.985c0,0,0.503,0.554,0.794,0.654c0.264,0.092,0.605,0.198,0.88,0.239c0.246,0.037,0.729,0.054,0.729,0.054 M336.94,130.727c0,0,0.28,0.323,0.436,0.392c0.197,0.088,0.527,0.083,0.737,0.13c0.204,0.045,0.695,0,0.695,0 M338.156,130.466c0,0,0.73,0.125,1.043,0.175c0.181,0.028,0.608,0.086,0.608,0.086 M339.676,130.031c0,0,1.008,0.061,1.434,0.131c0.226,0.036,0.739,0.173,0.739,0.173 M340.937,129.468c0,0,0.981,0.148,1.39,0.261c0.294,0.08,0.955,0.347,0.955,0.347l0,0 M342.761,129.077c0,0,0.676,0.09,0.956,0.173c0.261,0.078,0.614,0.192,0.836,0.35c0.217,0.151,0.596,0.65,0.596,0.65" />
    <path fill="#C8102E" stroke="#010101" stroke-width="0.3468" d="M317.403,142.302c-0.262-0.3-0.675-0.474-1.072-0.461c-0.342,0.013-0.756,0.297-1.023,0.511c-0.275,0.223-0.644,0.579-0.74,0.92c-0.051,0.179-0.041,0.325,0.051,0.487c0.086,0.151,0.332,0.434,0.332,0.434s0.053-0.37,0.153-0.485c0.15-0.175,0.469-0.271,0.691-0.332c0.23-0.066,0.557-0.032,0.791-0.077c0.164-0.031,0.397-0.063,0.536-0.153c0.151-0.099,0.345-0.285,0.383-0.46C317.531,142.569,317.482,142.391,317.403,142.302L317.403,142.302L317.403,142.302z M317.122,144.679c0.106,0.187,0.114,0.519,0.026,0.715c-0.077,0.173-0.307,0.341-0.485,0.408c-0.23,0.089-0.593-0.072-0.817,0.026c-0.27,0.116-0.54,0.437-0.691,0.689c-0.098,0.165-0.179,0.422-0.179,0.613c0,0.248,0.23,0.793,0.23,0.793s-0.844-0.641-0.997-1.048c-0.121-0.323-0.054-0.822,0.051-1.15c0.095-0.296,0.341-0.651,0.563-0.87c0.207-0.203,0.541-0.427,0.817-0.51c0.265-0.08,0.654-0.099,0.921-0.026C316.753,144.374,317.023,144.506,317.122,144.679L317.122,144.679L317.122,144.679z M321.109,146.62c-0.031-0.283-0.261-0.49-0.536-0.561c-0.304-0.08-0.807-0.074-1.048,0.127c-0.175,0.146-0.112,0.519-0.154,0.742c-0.051,0.274-0.148,0.64-0.153,0.92c-0.004,0.286,0.031,0.676,0.128,0.946c0.058,0.162,0.162,0.391,0.306,0.485c0.207,0.137,0.817,0.128,0.817,0.128s-0.466-0.341-0.536-0.563c-0.064-0.2,0.02-0.498,0.102-0.691c0.132-0.312,0.462-0.644,0.691-0.893C320.908,147.06,321.136,146.891,321.109,146.62L321.109,146.62L321.109,146.62z M324.941,144.96c0.294,0.148,0.59,0.32,0.742,0.613c0.164,0.321,0.146,0.871,0,1.201c-0.093,0.209-0.222,0.408-0.41,0.536c-0.198,0.135-0.715,0.358-0.715,0.358s0.134-0.425,0.153-0.613c0.023-0.222,0.07-0.541-0.025-0.742c-0.122-0.261-0.615-0.369-0.715-0.638c-0.061-0.167-0.032-0.449,0.077-0.589c0.117-0.149,0.398-0.225,0.587-0.229C324.731,144.855,324.855,144.915,324.941,144.96L324.941,144.96L324.941,144.96z M354.439,142.646c-0.197-0.198-0.643-0.189-0.92-0.153c-0.326,0.044-0.468,0.098-0.739,0.283c-0.238,0.163-0.577,0.401-0.689,0.665c-0.119,0.281,0,1.021,0,1.021s0.56-0.729,0.893-0.92c0.363-0.209,0.708,0.002,1.096-0.156c0.14-0.057,0.37-0.118,0.434-0.255C354.577,142.999,354.542,142.751,354.439,142.646L354.439,142.646z M354.07,144.704c0.283,0.012,0.417-0.052,0.612,0.153c0.17,0.179,0.313,0.558,0.23,0.792c-0.05,0.14-0.278,0.208-0.408,0.281c-0.219,0.121-0.574,0.169-0.767,0.331c-0.16,0.135-0.322,0.386-0.382,0.587c-0.048,0.162-0.038,0.398,0,0.561c0.039,0.175,0.193,0.28,0.28,0.434c0.028,0.048-0.437,0-0.638-0.102c-0.209-0.105-0.453-0.329-0.561-0.536c-0.156-0.294-0.079-0.586-0.051-0.918c0.025-0.314,0.283-0.53,0.459-0.791c0.181-0.265,0.532-0.544,0.816-0.69C353.773,144.747,353.943,144.698,354.07,144.704z M357.822,146.745c0,0,0.468-0.251,0.689-0.28c0.122-0.016,0.203-0.016,0.306,0.051c0.22,0.14,0.449,0.478,0.459,0.74c0.014,0.351-0.354,0.743-0.536,1.046c-0.124,0.207-0.357,0.663-0.357,0.663s-0.593-1.341-0.625-1.616C357.719,147.021,357.808,146.773,357.822,146.745L357.822,146.745L357.822,146.745z M362.058,144.269c0.175-0.058,0.444-0.048,0.614,0.026c0.208,0.09,0.459,0.32,0.536,0.535c0.106,0.297,0.006,0.751-0.102,1.048c-0.144,0.392-0.791,1.148-0.791,1.148s0.016-0.664-0.026-0.944c-0.025-0.173-0.047-0.424-0.153-0.563c-0.13-0.169-0.507-0.172-0.612-0.357c-0.069-0.12-0.06-0.335,0-0.459C361.613,144.517,361.863,144.335,362.058,144.269L362.058,144.269L362.058,144.269z" />
    <path fill="#C8102E" stroke="#010101" stroke-width="0.4161" d="M319.745,113.801c0,0-0.206-0.679-0.148-0.966c0.108-0.56,0.815-1.086,0.965-1.635c0.101-0.366,0-1.263,0-1.263s1.077,0.099,1.486,0.297c0.342,0.165,0.755,0.514,0.755,0.514s0.034-0.442,0.137-0.737c0.119-0.342,0.498-0.637,0.605-0.982c0.093-0.301,0.064-0.95,0.064-0.95s0.936,0.348,1.189,0.669c0.101,0.128,0.148,0.52,0.148,0.52s0.702-0.825,0.743-1.263c0.023-0.259-0.297-0.817-0.297-0.817s1.068,0.248,1.336,0.595c0.249,0.322,0.223,1.338,0.223,1.338s0.243-0.72,0.446-0.966c0.315-0.382,1.338-0.966,1.338-0.966l-0.148,1.486c0,0,0.627-0.298,0.892-0.223c0.621,0.181,1.188,0.986,1.486,1.56c0.105,0.201,0.148,0.743,0.148,0.743s0.587-0.809,0.966-0.966c0.267-0.111,0.965,0,0.965,0s-0.204,0.782-0.148,1.115c0.108,0.64,0.896,1.288,0.966,1.932c0.031,0.274-0.223,0.892-0.223,0.892s1.04,1.601,1.263,2.378c0.255,0.88-0.095,2.03,0.344,2.834c0.106,0.195,0.372,0.434,0.595,0.446c0.259,0.013,0.622-0.235,0.622-0.235s-0.047,0.68-0.223,0.892c-0.172,0.207-0.817,0.372-0.817,0.372s0.13,0.545,0.148,0.892c0.02,0.348-0.115,1.112,0.108,1.473c0.204,0.331,0.596,0.571,0.976,0.489c0.095-0.02,0.353,0.013,0.453-0.096c0.211-0.231,0.246-0.678,0.246-0.678s0.172,0.643,0.074,0.892c-0.132,0.338-0.348,0.555-0.65,0.758c-0.306,0.204-1.182,0.255-1.357,0.58c-0.3,0.555,0.411,1.46,0.297,2.081c-0.083,0.452-0.68,0.883-0.743,1.338c-0.054,0.385,0.02,0.817,0.236,1.141c0.169,0.254,0.399,0.564,0.696,0.625c0.201,0.042,0.582-0.006,0.73-0.148c0.184-0.175,0.296-0.477,0.344-0.727c0.037-0.198,0.074-0.667,0.074-0.667s0.354,0.646,0.354,0.965c0.003,0.27-0.109,0.611-0.28,0.818c-0.245,0.297-0.682,0.608-1.04,0.743c-0.398,0.151-0.994,0.23-1.412,0.148c-0.372-0.071-1.115-0.593-1.115-0.593s-0.023,0.575-0.074,0.816c-0.071,0.345-0.108,0.88-0.372,1.115c-0.238,0.213-1.04,0.223-1.04,0.223s0.323,1.281,0.669,1.709c0.151,0.188,0.442,0.367,0.669,0.446c0.254,0.089,0.638,0.16,0.892,0.075c0.315-0.107,0.647-0.459,0.817-0.743c0.095-0.157,0.148-0.594,0.148-0.594s0.173,1.026,0,1.412c-0.209,0.46-0.785,0.952-1.263,1.115c-0.318,0.108-0.793,0.02-1.115-0.074c-0.22-0.066-0.447-0.307-0.669-0.372c-0.342-0.101-1.189-0.075-1.189-0.075s0.105,0.729,0.076,1.039c-0.034,0.345-0.192,0.785-0.299,1.115c-0.057,0.182-0.162,0.414-0.101,0.595c0.117,0.353,0.548,0.663,0.918,0.669c0.261,0.004,0.624-0.216,0.743-0.446c0.144-0.277-0.074-1.04-0.074-1.04s0.545,0.802,0.52,1.189c-0.016,0.259-0.236,0.589-0.446,0.743c-0.294,0.219-0.822,0.28-1.189,0.297c-0.291,0.013-0.695-0.035-0.965-0.149c-0.309-0.129-0.66-0.428-0.892-0.669c-0.379-0.39-0.79-1.004-1.04-1.486c-0.121-0.232-0.462-0.628-0.462-0.628s-0.456-0.022-0.727-0.041c-0.303-0.02-0.729-0.108-0.966-0.297c-0.242-0.192-0.389-0.611-0.52-0.892c-0.14-0.3-0.372-1.04-0.372-1.04s-1.138,0.749-1.336,1.263c-0.106,0.271-0.026,0.694,0.074,0.966c0.103,0.284,0.389,0.593,0.593,0.817c0.16,0.175,0.595,0.52,0.595,0.52s-1.001,0.105-1.41,0c-0.542-0.138-1.416-0.699-1.813-1.094c-0.36-0.359-0.654-0.912-0.842-1.384c-0.197-0.492-0.243-1.609-0.243-1.609l0.125-1.036c0,0-0.491,0.494-0.571,0.813c-0.071,0.281,0,0.966,0,0.966s-0.552-1.17-0.669-1.709c-0.085-0.392-0.156-0.943-0.074-1.338c0.061-0.291,0.446-0.892,0.446-0.892s-0.704-1.215-0.892-1.782c-0.242-0.732-0.492-1.759-0.446-2.527c0.038-0.606,0.595-1.932,0.595-1.932l-0.817,0.223c0,0-0.943-0.95-1.039-1.487c-0.128-0.702,0.325-1.642,0.593-2.303c0.135-0.332,0.453-0.71,0.595-1.04c0.184-0.427,0.446-1.487,0.446-1.487s-0.783-0.307-0.965-0.593c-0.206-0.322-0.148-1.263-0.148-1.263s0.538,0.438,0.816,0.52c0.214,0.061,0.563-0.243,0.563-0.243s-0.426-0.866-0.488-1.392c-0.034-0.291,0.016-0.705,0.148-0.966C319.204,114.217,319.745,113.801,319.745,113.801L319.745,113.801L319.745,113.801z" />
    <path fill="#C8102E" stroke="#010101" stroke-width="0.3468" d="M324.793,117.879c0,0-0.047,1.355,0.007,1.757c0.044,0.318,0.364,0.74,0.364,0.74s0.357-0.358,0.401-0.68c0.057-0.409,0.038-1.783,0.038-1.783L324.793,117.879L324.793,117.879L324.793,117.879z M329.137,117.869c0,0-0.047,1.355,0.007,1.759c0.044,0.316,0.364,0.739,0.364,0.739s0.357-0.358,0.401-0.68c0.057-0.41,0.038-1.783,0.038-1.783L329.137,117.869L329.137,117.869L329.137,117.869z M325.572,118.411c0,0,0.071,1.925,0.522,2.729c0.257,0.462,1.218,1.416,1.218,1.416s1.116-1.094,1.391-1.55c0.472-0.784,0.383-2.798,0.383-2.798l-0.732-1.011l-2.158,0.034L325.572,118.411z" />
    <path fill="#C8102E" stroke="#010101" stroke-width="0.3468" d="M323.821,116.404c0,0-0.28,0.194-0.106,0.557c0.124,0.259,0.737,0.595,0.809,0.777c0.074,0.185,0.166,0.71,0.166,0.71s0.635,0.181,0.861,0.118c0.291-0.08,0.587-0.397,0.864-0.519c0.248-0.109,0.864-0.259,0.864-0.259l-0.086-1.816c-0.02,0.023-0.909-0.908-1.196-1.269c-0.103-0.131-0.402,0.131-0.358,0.292c0.147,0.56,1.591,0.96,1.55,0.986c0,0,1.422-0.5,1.441-1.05c0.003-0.109-0.169-0.322-0.259-0.259c-0.36,0.249-1.127,1.362-1.182,1.301l0.086,1.816c0,0,0.648,0.157,0.865,0.251c0.219,0.095,0.466,0.426,0.696,0.491c0.328,0.095,1.151-0.251,1.151-0.251s-0.048-0.433,0-0.594c0.076-0.251,0.584-0.579,0.758-0.898c0.154-0.29-0.108-0.482-0.108-0.482" />
    <path fill="none" stroke="#010101" stroke-width="0.3468" d="M325.747,112.736c0.227,0.517-0.3,1.247-1.177,1.632c-0.877,0.385-1.772,0.277-1.999-0.239c-0.226-0.516,0.302-1.247,1.179-1.632C324.626,112.113,325.521,112.22,325.747,112.736z M328.156,112.558c-0.227,0.516,0.3,1.246,1.177,1.631c0.877,0.385,1.773,0.279,1.999-0.239c0.226-0.516-0.302-1.246-1.179-1.631C329.276,111.935,328.382,112.041,328.156,112.558z M327.277,112.406c0,0,0.551,0.167,0.676,0.299c0.245,0.251,0.278,0.783,0.551,1.001c0.128,0.105,0.392,0.265,0.532,0.356c0.079,0.05,0.185,0.223,0.423,0.304c0.288,0.101,0.731,0.016,0.884,0.079c0.497,0.207,1.266,1.04,1.431,1.553c0.053,0.166-0.061,0.404-0.124,0.566c-0.154,0.411-0.544,0.874-0.712,1.279c-0.071,0.17-0.151,0.408-0.172,0.592c-0.016,0.131,0.004,0.31,0.025,0.442c0.013,0.09,0.022,0.22,0.073,0.296c0.098,0.144,0.355,0.144,0.443,0.296 M325.746,112.799c0,0,0.131,0.224-0.007,0.574c-0.111,0.278-0.479,0.685-0.614,0.761c-0.433,0.239-1.046,0.418-1.386,0.558c-0.345,0.141-0.699,0.339-0.751,0.37c-0.134,0.08-0.379,0.067-0.488,0.178c-0.257,0.262-0.446,0.791-0.399,1.154c0.086,0.666,1.137,1.2,1.243,1.864c0.122,0.778-0.721,1.741-0.711,2.53c0.006,0.404,0.466,0.533,0.401,0.933c-0.042,0.243-0.49,1.02-0.49,1.02s0.923-0.535,1.199-0.887c0.169-0.216,0.354-0.843,0.354-0.843s-0.296,1.316-0.178,1.865c0.131,0.6,0.667,1.349,0.667,1.349s0.053-0.554,0.167-0.852c0.083-0.21,0.675-0.321,0.675-0.321s-0.198,0.583-0.222,0.844c-0.016,0.173-0.019,0.415,0.044,0.577c0.109,0.283,0.397,0.595,0.621,0.799c0.095,0.084,0.355,0.221,0.355,0.221s-0.214-0.587-0.178-0.842c0.029-0.195,0.31-0.577,0.31-0.577s0.132,0.855,0.267,1.198c0.067,0.172,0.207,0.392,0.264,0.568c0.134,0.42,0.029,0.627-0.032,1.064c-0.025,0.184-0.222,0.718-0.222,0.718s0.832-0.421,1.029-0.765c0.132-0.231,0.173-0.66,0.184-0.925c0.007-0.178,0.008-0.188,0.008-0.188s0.304,0.347,0.354,0.532c0.067,0.245,0.023,0.302-0.032,0.549c-0.077,0.336-0.262,0.565-0.267,0.911c-0.004,0.258,0.143,0.605,0.31,0.8c0.341,0.395,1.332,0.756,1.332,0.756s-0.392-0.755-0.443-1.109c-0.038-0.265,0.172-0.53,0.265-0.781c0.138-0.367,0.611-0.702,0.755-1.065c0.105-0.262,0.144-0.65,0.132-0.933c-0.011-0.3-0.108-0.698-0.222-0.976c-0.124-0.305-0.577-0.931-0.577-0.931s-0.089-0.061,0.153,0.14c0.186,0.156,0.702,0.558,0.78,0.702c0.132,0.249,0.286,0.838,0.286,0.838s0.275-0.689,0.291-1.059c0.013-0.332-0.359-0.982-0.359-0.982l-0.175-0.439c0,0,0.605,0.404,0.755,0.666c0.175,0.306,0.339,1.036,0.339,1.036s0.487-0.893,0.45-1.303c-0.021-0.225-0.106-0.484-0.203-0.689c-0.09-0.194-0.455-0.641-0.455-0.641s0.593,0.127,0.73,0.297c0.156,0.195,0.474,0.831,0.474,0.831s0.32-0.571,0.373-1.173c0.041-0.468-0.297-1.323-0.481-1.459l-1.221-0.89" />
    <path fill="#000000" stroke="#010101" stroke-width="0.3468" d="M321.151,110.839c0,0,0.401,0.334,0.421,0.536c0.023,0.23-0.397,0.463-0.344,0.689c0.041,0.184,0.488,0.194,0.497,0.383c0.019,0.421-1.033,0.956-1.033,0.956s0.526-1.206,0.574-1.76C321.287,111.4,321.151,110.839,321.151,110.839L321.151,110.839L321.151,110.839z M332.325,110.553c0,0-0.198,1.106,0.085,1.501c0.206,0.285,0.513,0.798,0.513,0.798s-0.272,0.002-0.367-0.058c-0.233-0.144-0.246-0.344-0.38-0.64c-0.093-0.205-0.309-0.565-0.353-0.876C331.785,111.017,332.325,110.553,332.325,110.553L332.325,110.553z" />
    <path fill="#C8102E" stroke="#010101" stroke-width="0.3468" d="M325.683,113.089c0,0.614-0.497,1.112-1.111,1.112c-0.614,0-1.111-0.497-1.112-1.111v-0.002c0-0.613,0.497-1.11,1.111-1.11c0.614-0.002,1.112,0.495,1.112,1.109V113.089z M330.394,112.883c0.003,0.614-0.495,1.112-1.109,1.112s-1.112-0.497-1.112-1.111v-0.002c0-0.613,0.497-1.11,1.111-1.11c0.614-0.001,1.111,0.495,1.111,1.109L330.394,112.883L330.394,112.883z" />
    <path fill="#010101" d="M329.375,111.929c-0.085-0.001-0.159,0.012-0.235,0.022c-0.15,0.018-0.277,0.042-0.277,0.042l0.108,0.473c0,0,0.103-0.02,0.226-0.035c0.121-0.015,0.275,0.006,0.251-0.004c-0.01-0.004,0.089,0.105,0.096,0.129c0.023,0.08,0.01,0.376-0.031,0.456c-0.013,0.028-0.127,0.128-0.134,0.13c0.037-0.012-0.083-0.002-0.173-0.017c-0.089-0.016-0.164-0.034-0.164-0.034s-0.245-0.029-0.28,0.051c-0.047,0.106,0.141,0.36,0.141,0.36s0.096,0.022,0.211,0.042c0.117,0.022,0.235,0.057,0.408,0c0.207-0.067,0.335-0.198,0.42-0.372c0.117-0.233,0.144-0.504,0.066-0.759c-0.055-0.181-0.153-0.336-0.36-0.428C329.55,111.941,329.459,111.929,329.375,111.929L329.375,111.929L329.375,111.929z M324.654,112.085c-0.083,0-0.157,0.012-0.233,0.022c-0.15,0.017-0.278,0.042-0.278,0.042l0.109,0.473c0,0,0.103-0.02,0.226-0.035c0.121-0.015,0.274,0.006,0.251-0.004c-0.01-0.004,0.087,0.105,0.095,0.129c0.025,0.08,0.011,0.376-0.029,0.456c-0.013,0.028-0.127,0.127-0.134,0.13c0.037-0.012-0.083-0.001-0.173-0.018c-0.09-0.016-0.165-0.035-0.165-0.035s-0.246-0.029-0.28,0.053c-0.047,0.105,0.14,0.36,0.14,0.36s0.098,0.022,0.213,0.044c0.117,0.02,0.235,0.057,0.408,0c0.207-0.069,0.334-0.2,0.42-0.373c0.115-0.233,0.144-0.504,0.066-0.759c-0.057-0.181-0.153-0.335-0.36-0.428C324.83,112.097,324.739,112.085,324.654,112.085L324.654,112.085L324.654,112.085z" />
    <path fill="#C8102E" stroke="#010101" stroke-width="0.3468" d="M329.174,111.185c0,0-0.383,0.06-0.542,0.122c-0.31,0.124-0.624,0.407-0.663,0.739c-0.022,0.173,0.045,0.321,0.17,0.442c0.135,0.131,0.354,0.115,0.542,0.124c0.275,0.013,0.616-0.204,0.886-0.172c0.386,0.047,0.889,0.283,1.18,0.541c0.137,0.121,0.167,0.418,0.32,0.517c0.137,0.089,0.395,0.147,0.541,0.073c0.15-0.076,0.229-0.328,0.271-0.491c0.019-0.079,0.022-0.194,0-0.271c-0.035-0.118-0.137-0.255-0.222-0.344c-0.106-0.11-0.418-0.295-0.418-0.295 M322.449,112.331c0,0-0.322,0.675-0.394,0.985c-0.045,0.194-0.124,0.478-0.05,0.664c0.077,0.194,0.309,0.494,0.516,0.466c0.122-0.016,0.166-0.235,0.222-0.344c0.121-0.239,0.148-0.63,0.32-0.836c0.21-0.252,0.615-0.491,0.934-0.566c0.347-0.082,0.826,0.111,1.182,0.098c0.194-0.006,0.466-0.01,0.64-0.098c0.168-0.084,0.443-0.443,0.443-0.443s-0.159-0.402-0.296-0.517c-0.173-0.144-0.49-0.217-0.714-0.245c-0.278-0.037-0.654,0.039-0.934,0.073c-0.134,0.018-0.443,0.074-0.443,0.074" />
    <path fill="none" stroke="#010101" stroke-width="0.3468" d="M319.126,118.336c0,0,0.552,0.108,0.777,0.042c0.462-0.137,1.018-0.552,1.3-0.944c0.061-0.086,0.105-0.335,0.105-0.335 M318.601,124.713c0,0-0.156-0.994-0.063-1.404c0.082-0.369,0.336-0.829,0.587-1.112c0.507-0.571,2.097-1.447,2.097-1.447 M321.307,122.175c0,0-1.127,0.941-1.489,1.448c-0.179,0.249-0.44,0.922-0.44,0.922 M321.412,124.65c0,0-0.586,0.783-0.777,1.154c-0.232,0.453-0.471,1.097-0.587,1.594c-0.105,0.45-0.179,1.068-0.167,1.531c0.013,0.508,0.252,1.825,0.252,1.825 M320.98,132.879c0,0,0.748-0.733,0.752-1.383c0.003-0.474-0.582-1.108-0.667-1.574c-0.086-0.46,0.07-1.275,0.286-1.692c0.082-0.157,0.428-0.405,0.428-0.405 M325.116,134.594c0,0,0.653-0.803,0.644-1.215c-0.019-0.893-0.978-1.715-0.835-2.598c0.029-0.179,0.322-0.489,0.388-0.825c0.048-0.243-0.042-0.677-0.077-0.772c-0.102-0.275-0.81-0.5-0.81-0.5 M324.154,138.036c0,0-0.851-0.726-1.188-1.176c-0.31-0.413-0.51-0.87-0.529-1.108c-0.035-0.437-0.032-0.778,0.054-1.208c0.173-0.868,1.052-1.811,1.182-2.687c0.038-0.257-0.159-0.627-0.055-0.866c0.093-0.211,0.475-0.291,0.596-0.488c0.115-0.184,0.188-0.488,0.163-0.704c-0.017-0.144-0.217-0.433-0.217-0.433 M322.968,126.877c0,0-0.32,0.589-0.379,0.866c-0.055,0.271-0.124,0.674,0,0.921c0.137,0.27,0.676,0.326,0.813,0.596c0.131,0.261,0.13,0.713,0,0.975c-0.109,0.217-0.65,0.487-0.65,0.487s-0.297-1.055-0.271-1.517c0.008-0.169,0.162-0.541,0.162-0.541 M329.467,130.125c0,0,0.475,1.043,0.392,1.513c-0.06,0.342-0.554,0.679-0.541,1.029c0.006,0.153,0.27,0.433,0.27,0.433s-0.386,0.169-0.541,0.108c-0.206-0.08-0.357-0.388-0.433-0.596c-0.141-0.382,0.038-0.82-0.178-1.167c-0.099-0.16-0.648-0.452-0.648-0.452s0.577,1.938,0.37,2.611c-0.134,0.436-0.934,0.316-1.076,0.854c-0.082,0.317-0.051,0.833,0.163,1.083c0.178,0.207,0.577,0.3,0.819,0.176c0.229-0.117,0.434-0.464,0.434-0.464s0.166,0.66,0.023,0.896c-0.117,0.192-0.52,0.558-0.52,0.558 M330.518,133.661c0,0-0.207,0.516-0.172,0.742c0.079,0.494,0.857,1.428,0.857,1.428 M332.116,132.747l-0.229-1.086l-0.114-1.769 M332.459,127.494c0,0-0.274,0.93-0.172,1.313c0.182,0.686,1.428,1.884,1.428,1.884 M333.772,122.529c0,0,0.034,0.851,0.229,1.141c0.274,0.411,1.542,0.8,1.542,0.8 M332.687,124.069c0,0,1.312,1.384,1.656,2.113c0.336,0.714,0.571,2.569,0.571,2.569" />
    <path fill="#010101" d="M327.12,117.895c-0.064,2.298,0.022,3.161,0.022,3.161l0.147,0.467l0.173-0.498c0,0-0.082-0.832-0.017-3.121L327.12,117.895z" />
  </g>
</svg>
