<svg xmlns="http://www.w3.org/2000/svg" width="450px" height="300px" viewBox="0 0 450 300">
  <path fill="#FFFFFF" d="M0,0h450v300H0V0z" />
  <path fill="#FC7F45" d="M364.422,153.61l-15.54-55.828c-0.139-0.502-0.399-0.963-0.756-1.342l-37.41-39.713c-0.397-0.419-0.896-0.724-1.449-0.885l-59.859-17.267c-0.567-0.162-1.159-0.167-1.728-0.014l-51.223,13.813c-0.497,0.133-0.953,0.385-1.332,0.731l-47.196,43.166c-0.479,0.438-0.815,1.012-0.962,1.644l-13.238,56.979c-0.11,0.477-0.111,0.974-0.001,1.451l12.087,52.376c0.127,0.549,0.398,1.057,0.782,1.469l40.288,43.166c0.403,0.431,0.915,0.743,1.484,0.902l57.555,16.115c0.283,0.081,0.575,0.12,0.867,0.12c0.222,0,0.447-0.024,0.667-0.07l56.981-12.086c0.593-0.126,1.137-0.416,1.573-0.839l39.713-38.562c0.401-0.39,0.695-0.88,0.85-1.418l17.841-62.16C364.579,154.789,364.581,154.184,364.422,153.61z" />
  <path fill="#0C3F92" d="M415.482,195.378c-2.946-1.048-5.284-1.604-7.546-2.142c-8.404-1.998-15.662-3.724-49.736-30.696c-4.371-2.965-8.228-6.454-11.956-9.829c-6.813-6.17-13.252-11.996-21.776-13.706c-0.99-0.198-2.016-0.317-3.067-0.388c-0.535-4.788-1.372-9.484-2.476-14.079c16.133,0.571,31.273,10.326,40.981,18.246c1.046,0.776,2.227,1.708,3.532,2.738c10.589,8.353,28.326,22.324,48.465,14.794c0.44-0.166,0.73-0.586,0.726-1.055c-0.004-0.468-0.301-0.885-0.743-1.042c-3.61-1.283-6.286-1.615-8.875-1.933c-7.404-0.915-15.058-1.861-47.208-27.308c-2.172-1.474-4.321-2.997-6.467-4.52c-10.781-7.645-21.771-15.421-35.933-16.962c-17.357-41.963-58.716-71.572-106.876-71.572c-54.536,0-100.343,37.968-112.454,88.851c-1.513,1.268-3.027,2.537-4.521,3.793c-18.39,15.46-37.406,31.447-60.927,43.492c-0.49,0.253-0.723,0.824-0.549,1.347c0.154,0.462,0.584,0.763,1.057,0.763c0.063,0,0.126-0.004,0.19-0.015c18.763-3.225,38.996-7.818,61.706-18.013c0.276,7,1.18,13.838,2.652,20.468c-17.938,11.848-36.483,24.089-52.802,27.721c-0.502,0.113-0.864,0.556-0.873,1.07c-0.009,0.516,0.337,0.97,0.836,1.1c5.734,1.488,11.506,2.251,17.465,2.251c12.754,0,26.381-3.523,42.314-10.907c17.891,40.759,58.616,69.31,105.906,69.31c60.694,0,110.579-47.023,115.224-106.546c9.567-3.596,15.152,1.287,21.603,6.955c1.268,1.111,2.565,2.251,3.963,3.39l1.251,0.933c11.169,8.341,45.167,33.727,66.929,25.589c0.44-0.166,0.73-0.586,0.726-1.055C416.221,195.951,415.925,195.535,415.482,195.378z M206.529,42.617c44.304,0,82.487,26.604,99.486,64.663c-9.808,0.467-21.116,3.921-34.723,12.076c-1.907,1.152-4.033,2.561-6.282,4.053c-16.22,10.756-40.731,27.009-67.967,5.616c-4.337-3.424-8.56-7.479-12.644-11.402c-17.623-16.922-35.844-34.422-69.635-9.586c-3.925,3.001-7.784,6.092-11.593,9.204C117.578,73.94,158.452,42.617,206.529,42.617z M118.406,141.648c1.591-0.94,3.325-2.059,5.202-3.271c11.132-7.186,26.381-17.028,46.305-12.944c10.028,2.057,20.545,9.446,35.37,21.549c34.385,25.133,57.872,10.512,82.955-9.698c7.701-7.643,15.843-11.328,23.895-12.418c1.16,4.59,2.012,9.299,2.567,14.098c-8.228,1.317-18.417,5.801-32.022,13.955c-2.802,1.691-6.127,4.107-9.646,6.665c-16.388,11.914-38.839,28.232-57.409,10.794c-3.113-2.456-6.041-4.957-8.875-7.373c-17.657-15.067-32.913-28.086-71.31-10.18c-11.054,4.01-23.075,11.513-35.758,19.832c-1.255-6.359-1.943-12.915-2.035-19.615C104.346,149.773,111.249,146.03,118.406,141.648z M206.529,260.46c-44.64,0-83.076-27.004-99.878-65.526c6.323-3.196,13.009-6.961,20.146-11.33c2.275-1.344,5.222-3.342,8.635-5.654c12.795-8.668,32.131-21.772,43.427-18.961c8.225,2.042,11.184,4.547,19.093,11.243c2.049,1.737,4.42,3.743,7.184,5.99c15.173,15.871,32.653,22.669,51.969,20.235c18.447-2.334,34.239-12.568,44.319-20.815c5.079-5.041,9.431-8.691,13.241-11.251C308.282,218.411,262.236,260.46,206.529,260.46z" />
</svg>
