<svg xmlns="http://www.w3.org/2000/svg" width="450px" height="300px" viewBox="0 0 450 300">
  <rect fill="#012169" width="450" height="300" />
  <path fill="#FFFFFF" d="M225,37.5h-49.843L225,12.578V0h-25.157L131.25,34.297V0h-37.5v34.297L25.157,0H0v12.578L49.843,37.5H0V75h49.843L0,99.922V112.5l0,0h25.156L93.75,78.203V112.5h37.5V78.203l68.594,34.297H225V99.922L175.157,75H225V37.5z" />
  <path fill="#C8102E" d="M91.77,75l-75,37.5H0l0,0L75,75H91.77z M58.23,37.5H75L0,0v8.385L58.23,37.5z M123.75,112.5v-45H225V45H123.75V0h-22.5v45H0v22.5h101.25v45H123.75z M225,0h-16.77l-75,37.5H150L225,0z M166.77,75H150l75,37.5v-8.385L166.77,75z" />
  <g>
    <path fill="#6A4C2D" stroke="#000000" stroke-width="0.3726" d="M331.601,196.836c0,0-1.248,3.294-1.96,3.294s-3.294-1.423-3.294-1.423s-1.87,3.029-2.85,3.204c-0.98,0.179-3.562-0.443-3.562-0.443s-2.493,0-2.582-0.358c-0.089-0.354,0.089-1.066,0.089-1.066s-3.561,2.847-4.363,2.668c-0.801-0.175-3.473-3.558-3.473-3.558l-0.445,1.781l-5.075-0.179l-4.452-2.85c0,0-2.493,4.095-2.582,4.005c-0.089-0.089-4.363,0.98-4.363,0.98l-0.267-0.801l-2.849-1.692c0,0,2.226-3.115,2.226-3.204s-1.069-0.447-1.069-0.447l-1.603,1.338l-3.295,2.135l-3.295-1.513l1.425-2.672l0.178-1.96l2.582-3.916l31.609-30.721l15.582,28.761L331.601,196.836L331.601,196.836z" />
    <path fill="#FFFFFF" stroke="#000000" stroke-width="0.3726" d="M354.058,198.699l8.227-0.298l-3.502-1.729l31.351-1.181l-4.43-1.688l-3.923-5.317l-16.245-1.222c0,0-1.222-0.928-3.208-0.466c-0.082-1.263-1.602-2.91-1.602-2.91l-10.001-0.76l-6.245,4.263l4.218,10.802L354.058,198.699L354.058,198.699z" />
    <linearGradient id="Gradient_GS_1" gradientUnits="userSpaceOnUse" x1="-170.6859" y1="246.8938" x2="-169.7259" y2="273.9058" gradientTransform="matrix(0.9378 0 0 -0.4048 497.4485 203.1467)">
      <stop offset="0" style="stop-color:#474747" />
      <stop offset="1" style="stop-color:#FF5500" />
    </linearGradient>
    <path fill="url(#Gradient_GS_1)" stroke="#000000" stroke-width="0.3726" d="M322.044,106.562l0.827-2.817c0,0,1.449-2.444,1.449-3.525c0-1.077,1.081-2.359,1.081-2.359s3.312-0.954,4.017,1.077c3.566-5.388,7.75-0.25,7.75-0.25l1.159-1.367l2.362-2.899c0,0,3.357,3.148,3.398,3.685c0.041,0.54,0.578,0.168,0.578,0.168l3.648-0.291c0,0,1.729,1.356,1.367,3.935c1.285,0.76,2.444,5.22,2.444,5.22S322.044,106.562,322.044,106.562z" />
    <path fill="#656263" stroke="#000000" stroke-width="0.3726" d="M354.061,140.081c0.63-0.384,2.612-1.013,2.37-3.912c-0.242-2.899-2.754-3.238-4.155-3.141c-1.405,0.097-2.66,1.304-2.66,1.304l-4.639-2.947c0,0,2.321-14.643,4.784-15.56c2.34-1.688,2.754-2.418,2.754-2.802c0-0.388-0.868-1.356-0.868-1.356l-15.128-1.788l-14.304,1.692c0,0-1.11,1.692-0.965,2.37c0.145,0.674,0.194,1.401,2.754,3.383c2.835,2.18,4.784,14.692,4.784,14.692s-4.009,1.979-4.251,1.736c-0.242-0.238-1.449-0.481-2.079-0.384c-0.626,0.097-2.705,1.159-2.705,3.912c0,2.757,2.079,4.352,2.079,4.352s13.674-1.595,15.705,2.172C339.519,139.262,352.515,140.856,354.061,140.081z" />
    <path fill="#000000" stroke="#000000" stroke-width="0.4658" stroke-linejoin="round" stroke-opacity="0.9785" d="M368.794,124.861c0,0,0.153-1.591,1.285-2.347c1.136-0.756,8.704-1.136,10.522,0c1.815,1.136,2.496,6.737,2.496,6.737s1.136,1.967,1.211,3.406s0.227,2.422,0.227,2.422s6.055,7.873,6.129,14.986c0.682,4.844,0.529,17.784-1.36,22.703c-0.078,6.133-2.649,10.142-2.649,10.142s0.604,1.058,0.529,2.195c-0.078,1.136-0.682,2.195-0.682,2.195l8.853,4.389l-3.253-1.211c0,0,3.331,2.802,3.253,2.727c-0.075-0.078-3.707-1.744-3.707-1.744l2.195,2.195c-0.075-0.075-5.373-2.422-5.373-2.422s2.496,2.347,2.347,2.273c-0.153-0.075-4.013-1.893-4.013-1.893s2.422,2.575,2.347,2.422s-3.48-1.513-3.48-1.513l0.149,1.285c0,0-2.724-0.153-2.724-2.195c-1.364-0.756-2.269-1.818-2.269-1.818l-6.282-1.058l-7.117-21.268l1.666-35.948l0.455-1.815L368.794,124.861L368.794,124.861z" />
    <path fill="#FFBB00" stroke="#000000" stroke-width="0.3701" d="M364.04,239.745c0,0-3.644-7.664-5.459-7.772c-1.639-3.126,5.697-28.675,19.889-30.132c7.802,0.641,0.641,8.995-4.49,6.424c0.641,2.247,3.204,5.462,3.204,5.462S367.032,218.115,364.04,239.745L364.04,239.745z M315.184,240.862c0,0,3.018-8.726,4.848-8.834c1.833-0.108-4.848-29.081-19.387-29.298c-7.863,0.648-0.646,9.047,4.524,6.461c-0.646,2.265-3.231,5.496-3.231,5.496S312.17,219.102,315.184,240.862z" />
    <path fill="#00713D" stroke="#000000" stroke-width="0.3726" d="M328.523,186.362c-0.037-0.071-3.611,1.122-1.297,5.011c0.175-1.505,1.785-2.418,1.785-2.418s-2.452,2.91,0.142,5.362c0.317-2.314,1.788-3.048,1.788-3.048s-1.822,5.362,0.034,6.446c0.212-2.139,1.576-3.081,1.576-3.081s-1.647,4.799-0.175,5.883c0.175-1.818,1.401-2.627,1.401-2.627s-0.734,4.978,1.192,5.328c0.037-1.755,1.438-3.469,1.438-3.469s-0.633,4.061,2.381,4.24c0.037-1.543,0.596-3.294,0.596-3.294s1.367,4.307,3.365,3.607c-0.034-1.259,0.034-3.644,0-3.644c-0.037,0,1.259,4.099,3.644,3.331c-0.35-1.159,0.138-2.526,0.138-2.526s1.263,2.56,3.54,1.718c0.388-0.771-0.104-2.277-0.104-2.277s3.327,3.435,4.345,1.367c1.017-2.068-2.664-2.768-2.664-2.768h2.489c0,0-0.805-2.101-4.169-2.56c1.155-0.525,2.347-0.138,2.347-0.138s-0.7-2.631-4.136-2.91c1.334-0.455,2.806-0.138,2.806-0.138s-0.458-2.489-4.24-3.189c0.596-0.667,2.206-0.455,2.206-0.455s-1.505-2.347-3.223-2.21C344.009,188.046,328.486,186.329,328.523,186.362L328.523,186.362z" />
    <path fill="none" stroke="#3EC26D" stroke-width="0.4657" stroke-linecap="round" stroke-linejoin="round" d="M343.833,199.012c0,0,1.367,0.667,1.334,1.263 M344.642,197.928c0,0,1.751,1.226,1.718,2.135 M346.181,197.294c0,0,1.405,0.876,1.472,2.243 M348.528,197.857c0,0,0.704,1.505,0.458,1.785 M349.933,198.662c0.104,1.192-0.108,1.297-0.108,1.297 M332.655,191.128c0,0,1.647,1.051,1.509,2.522 M332.551,192.391c0,0,0.771,0.734,0.596,1.226 M334.586,191.165c0,0,1.084,1.505,0.734,2.556 M336.441,192.145c0,0,0.492,0.946,0.037,1.472 M337.317,192.599c0,0,0.596,0.946,0.071,1.263 M336.653,195.718c0,0,1.539,0.35,1.751,1.505 M337.563,194.667c0,0,1.613,0.104,1.788,1.822 M339.701,194.071c0.034,0,1.084,1.859,0.909,2.452 M341.769,194.246c0,0,0.417,1.788,0.104,2.347 M343.099,194.947c0,0.037,0.034,2.068,0.034,2.068 M341.069,192.145c0,0,1.013,0.384,0.943,1.367 M342.011,191.232c0,0,1.297,0.738,1.159,2.139 M343.521,190.64c0,0,1.122,1.33,0.7,2.802 M345.48,190.953c0,0-0.417,1.647-0.246,2.314 M346.673,192.074c0,0-0.734,0.563-0.35,1.263 M340.297,198.487c0,0,0.242,1.263,0,1.472 M338.684,197.753c0,0,0.805,1.401,0.525,2.101 M336.966,197.682c0,0,0.913,1.051,0.876,1.893 M335.565,197.89c0,0,0.842,0.809,0.771,1.263 M334.831,199.116c0,0,0.805,0.842,0.768,1.017" />
    <path fill="#FFFFFF" stroke="#000000" stroke-width="0.3726" d="M317.401,141.594c3.864-0.071,7.728-0.138,11.592-0.209c0,0,7.657,0,8.484,2.485c1.449-3.312,8.07-3.104,8.07-3.104c4.002-0.138,8.003-0.276,12.001-0.414c0.071,9.658,0.138,19.316,0.209,28.973c-2.344,11.241-10.485,19.178-19.453,22.557c-10.694-3.45-17.453-12.486-19.658-22.766C318.228,159.945,317.815,150.768,317.401,141.594L317.401,141.594z" />
    <path fill="#006B00" stroke="#000000" stroke-width="0.3726" d="M321.53,141.486l16.883,44.988l15.251-45.968c-4.732,0.306-14.882-0.745-16.141,3.57C335.569,140.216,324.891,141.773,321.53,141.486z" />
    <path fill="#FFC900" stroke="#006B00" stroke-width="0.2568" stroke-linecap="round" d="M333.021,165.843c0.652,0.339,0.633-12.21,1.487-12.598c0.242-1.04,0.365-1.494,0.671-2.597c-0.734-1.3-4.02-1.237-5.239-0.13c0.548,1.751,0.79,2.336,0.79,2.336C332.376,155.518,332.048,166.126,333.021,165.843z" />
    <path fill="#CDAD56" stroke="#000000" stroke-width="0.4658" stroke-linejoin="round" d="M328.497,68.851c0,0,1.196-1.356,1.248-1.68c0.056-0.325,5.421-0.542,8.618-6.505c1.788-3.144,0-1.301,0-1.301l-0.108-1.518c0,0,2.224-2.114,1.412-3.252c-0.816-1.138-0.544,1.464-1.844,1.41c-1.3-0.054-0.596-2.819-0.596-2.819s-0.108-0.325-0.488-0.488c-0.544,0.054-0.38,1.03-0.868,1.138c-0.488,0.108-0.92-2.277-0.92-2.277s-0.812-1.084-1.52,2.331c0.38,3.632,2.713,2.927,2.713,5.313c0,2.385-2.06,4.228-2.657,4.282c-0.596,0.054-0.38-2.006-0.38-2.006s-0.324-0.976-0.54-0.976c-0.216,0,1.192-0.217,0.976-2.927c-0.488-3.252-0.868,0.759-1.736,0.596c-0.868-0.162-0.216-2.981,0.108-3.306s-0.38-1.68-2.277,1.789c-0.164,1.68-0.38-0.434-0.76-0.325c-0.648,1.355-0.54,2.331,0.38,3.578c1.356,1.247,2.224,2.493,2.169,3.144c-0.052,0.651-0.76,2.114-1.733,2.114c-0.976,0,0.052-1.789,0-2.385c-0.056-0.596-1.68-2.764-1.68-2.764s-1.14-1.843-1.032-1.897c0.108-0.054-0.108-0.325-0.648,1.572c-0.544,1.897-1.196-1.247-1.196-1.247s-0.756,2.331,0.868,3.74c-1.245-0.162-1.353,0.325-1.353,0.325c0,0.651,1.68,0.921,1.897,2.06c0.216,1.139-1.736,1.789-1.736,1.789s0.816,1.138,3.089-1.084c0.056,1.409-0.864,2.385-0.864,2.385C327.793,68.001,328.389,67.965,328.497,68.851L328.497,68.851z M321.06,68.851c0,0-1.013-1.504-1.058-1.8c-0.048-0.296-4.985,0.374-7.321-5.648c-1.519-2.861,0-1.184,0-1.184l0.092-1.381c0,0-1.617-1.978-0.926-3.014s0.406,1.332,1.294,1.337c1.104-0.049,0.506-2.565,0.506-2.565s0.092-0.296,0.414-0.444c0.459,0.049,0.649,1.533,1.063,1.632c0.414,0.099,1.271-1.746,1.539-2.126c0.38-0.054,0.365-1.529,0.965,1.579c-0.32,3.305-3.059,2.664-3.059,4.834c0,2.17,1.747,3.847,2.254,3.897c0.507,0.049,0.324-1.825,0.324-1.825s0.276-0.888,0.458-0.888c0.186,0-1.61,0.345-1.423-2.122c0.414-2.309,1.33,0.149,2.068,0c0.738-0.148-0.086-2.442,0.127-2.792c0.048-0.35,1.133-1.854,1.554,1.465c0.138,1.529,0.973-1.316,1.293-1.217c0.555,1.233-0.242,2.88-1.025,4.014c-1.151,1.134-1.673,2.377-1.625,2.969c0.045,0.592,0.317,1.327,1.148,1.327c0.827,0,0.279-1.031,0.324-1.574c0.045-0.543,1.427-2.299,1.427-2.299c0.272-0.433,0.045-1.243,0.332-1.618c0.451,0.005,0.637-0.621,1.095,1.105c0.462,1.726,1.013-1.135,1.013-1.135s0.645,2.121-0.738,3.404c1.058-0.148,1.151,0.296,1.151,0.296c0,0.592-0.503,0.838-0.689,1.874c-0.186,1.036,0.551,1.628,0.551,1.628s-0.689,1.036-2.623-0.987c-0.048,1.282,0.738,2.17,0.738,2.17C321.656,68.078,321.153,68.045,321.06,68.851z" />
    <path fill="#FFC900" d="M350.846,148.197c-1.01-0.917-1.129-0.116-1.625-0.32c-0.246-0.101-0.436-0.328-0.648-0.537c-0.183-0.19-0.402-0.268-0.645-0.369c-0.093,0.272-0.183,0.54-0.276,0.812c-0.093,0.272,0.257,0.723,0.25,1.129c-0.071,0.604-0.317,1.107-1.077,1.312c0.216-0.428,0.339-0.447,0.272-0.972c-0.03-0.261-0.764-0.727-0.674-0.972c0.134-0.399,0.365-0.857,0.194-1.256c-0.309,0.212-0.719,0.101-1.028,0.231c-0.265,0.116-0.279,0.604-0.645,0.805c-0.373,0.175-1.196,0.089-1.885-0.302c0.421-0.317,0.768-0.104,1.189-0.421c0.209-0.16,0.201-0.842,0.41-1.002c0.212-0.16,0.715-0.328,0.924-0.488c-0.19-0.216-0.179-0.555-0.369-0.771c-0.186-0.216-1.025-0.171-1.215-0.384c-0.38-0.432-0.306-0.999-0.686-1.427c0.98,0.35,0.838,0.827,1.084,0.79c0.462-0.224,0.924-0.265,1.166-0.164c0.246,0.104,0.708,0.708,0.95,0.809c0.093-0.272,0.227-0.615,0.317-0.887c0.093-0.272-0.41-0.741-0.32-1.013c0.186-0.54,0.641-1.021,0.823-1.565c0.067,0.525,0.153,0.965,0.22,1.487c0.034,0.261,0.548,0.399,0.581,0.66c0.034,0.265-0.268,0.868-0.238,1.133c0.283-0.056,0.689-0.019,0.969-0.075c0.283-0.056,0.469-0.708,0.749-0.764c0.563-0.112,0.969-0.078,1.539,0.03c-0.421,0.391-0.745,0.365-1.01,0.723c-0.209,0.16,0.082,0.686-0.525,1.054c-0.227,0.134-0.827-0.026-1.04,0.134c0.19,0.216,0.38,0.428,0.57,0.645c0.186,0.216,1.036,0.317,1.226,0.533C350.749,147.22,350.95,147.735,350.846,148.197L350.846,148.197z M324.887,148.64c1.01-0.917,1.129-0.116,1.628-0.32c0.242-0.104,0.432-0.332,0.645-0.537c0.183-0.19,0.402-0.268,0.645-0.373c0.093,0.272,0.186,0.544,0.276,0.816c0.093,0.272-0.253,0.719-0.246,1.125c0.067,0.607,0.313,1.107,1.073,1.315c-0.216-0.428-0.339-0.451-0.272-0.972c0.034-0.261,0.764-0.727,0.674-0.976c-0.134-0.395-0.365-0.857-0.194-1.256c0.313,0.216,0.719,0.104,1.032,0.231c0.261,0.119,0.279,0.607,0.641,0.809c0.376,0.175,1.2,0.089,1.885-0.302c-0.421-0.32-0.768-0.104-1.189-0.425c-0.209-0.156-0.197-0.842-0.41-0.999c-0.209-0.16-0.712-0.332-0.924-0.492c0.19-0.212,0.179-0.555,0.369-0.771c0.19-0.212,1.028-0.168,1.215-0.384c0.38-0.428,0.309-0.995,0.686-1.427c-0.98,0.35-0.835,0.827-1.081,0.794c-0.466-0.224-0.928-0.268-1.17-0.164c-0.242,0.101-0.708,0.704-0.95,0.809c-0.093-0.272-0.224-0.615-0.317-0.887c-0.093-0.272,0.414-0.741,0.32-1.013c-0.183-0.544-0.641-1.021-0.823-1.565c-0.067,0.522-0.153,0.961-0.22,1.487c-0.034,0.261-0.548,0.399-0.581,0.66c-0.03,0.261,0.272,0.868,0.238,1.129c-0.283-0.056-0.689-0.019-0.969-0.071c-0.279-0.06-0.466-0.712-0.749-0.768c-0.563-0.112-0.965-0.078-1.539,0.03c0.421,0.395,0.745,0.365,1.01,0.727c0.209,0.16-0.082,0.686,0.525,1.054c0.227,0.134,0.831-0.026,1.04,0.134c-0.19,0.212-0.38,0.428-0.566,0.645c-0.19,0.216-1.04,0.317-1.226,0.529C324.984,147.664,324.782,148.178,324.887,148.64L324.887,148.64z" />
    <path fill="#FFC900" stroke="#006B00" stroke-width="0.2568" stroke-linecap="round" stroke-linejoin="round" d="M349.94,151.096c-0.917,0.712-6.822,2.206-6.886,7.337c-0.06,5.131,1.036,6.301-0.06,6.431c-2.131,0-2.437-5.716-2.377-8.249c0.063-2.534,0.123-2.142,0.123-2.142s1.461,0.387,1.341,1.625c-0.123,1.233,1.461-3.055,0.913-4.222c0.973,0.972,2.254,0.585,2.254,0.518c0-0.063-0.73-0.842-1.036-1.427s1.095,0.324,1.095,0.324s0.06-0.976-1.159-0.909c-1.584,0,0.246-0.522,0.246-0.522s0.913,0.846,1.524-0.063c-0.671-0.715-1.647-1.107-1.647-1.107s-0.853-1.621-2.008-1.945c-1.341-0.328-1.159,0.581-2.683,0.455c-0.302,0.581-0.302,0.648,0.306,0.842c-1.036,0.715-0.488,2.142-0.488,2.142s1.647-0.712,1.584,0.455c-0.06,1.17-0.972,0.976-1.584,0.261c-0.548-0.324-0.73,0.324-0.73,0.324l0.853,0.909c0,0-1.643-0.063-2.072,1.04c0.913-0.063,1.401,0.197,1.401,0.197s-1.889,0.842-2.072,1.297c-0.183,0.455-0.242-0.518-0.302-0.518c-0.063,0-1.829-0.652-1.829-0.652l-0.611,2.809c0,0,1.222,1.218,1.889,0.827c0.671-0.387,1.889-1.557,2.619-1.233c-2.131,1.625-4.263,3.961-5.421,4.289c-0.302-0.261-1.338-1.3-1.766-0.782c-0.425,0.522-0.119,1.17,0.428,1.107c0.548-0.067-1.766,0.518-1.282,1.494c0.488,0.972,0.428,0.909,0.853,0.648c0.428-0.261-0.365-0.324,1.218-0.779c1.584-0.455,1.524-0.909,1.524-0.909s-0.306,0.712-1.159,0.909c-0.853,0.194-1.52,0.194-1.338,0.455c0.183,0.257,0.548,0.712,0.425,0.972c-0.123,0.261,1.766-1.364,2.254-0.063c1.278-0.067,2.131-1.625,1.524-2.534c0.06,0.972,0.671,1.3,0.302,1.755c-0.365,0.455,2.865-1.494,1.282-2.664c0.425,0.972,0.488,1.755,0.488,1.755s0.73-0.067,0.913-0.328c0.183-0.257-0.365,0.715-0.123,0.909c0.242,0.197,1.401,1.3,0.913,2.079c-0.302-0.455-0.365-1.17-0.73-1.103c-0.365,0.063-1.889,1.17-2.802,1.233c-0.913,0.063,1.095,3.379,1.095,3.379s-1.401-0.197-1.584-0.067c-0.183,0.13-1.095-1.17-1.278-0.388c-0.306,0.972,0.306,0.581,0.306,0.581s-0.794-0.388-1.218,0.067c-0.428,0.455-0.853,0.909-0.548,1.103c0.302,0.194,1.643,0.194,1.826,0.13c0.183-0.063-1.524,0.13-1.643,0.324c-0.123,0.194-0.365,0.909,0,1.17c0.365,0.261,1.278-0.13,1.338-0.324c0.063-0.197,0.123,0.712,0.123,0.712s1.584,0.13,1.584-1.49c0-1.625,0.123,1.166,0.123,1.166s1.584,0.261,1.643-1.364c0.063-1.621,0.183,1.107,0.183,1.107s1.036-0.328,1.036-0.585c0-0.261-0.06,3.245-0.79,4.222c-1.159-0.782-1.889,0.518-1.889,0.518s0.06,1.882-0.063,2.336c-0.119,0.455,0.794-0.257,0.853-0.455c0.063-0.194,1.159-0.712,1.218-0.842c0.063-0.13,0.365-0.779,0.365-0.779s-0.242,0.909-0.667,1.04c-0.428,0.127-0.853,0.581-0.671,0.972c0.183,0.391,0.853,0.648,1.095,1.04c0.242,0.388,1.095-2.273,1.095-2.273l0.063,0.585c0,0,1.095-0.261,1.218-0.779c0.119-0.522-1.159-0.976-0.123-1.818c1.036-0.846,0,0.779,0,0.779s0.365,1.233,0.607,1.233c0.246,0,0.853-2.34,0.246-2.921c-0.611-0.585,0.913,0.712,0.913,0.712s0.853-2.403-0.06-2.727c-0.917-0.324-1.341-0.455-1.341-0.455s0.488-0.648,0.242-0.712c-0.242-0.067,1.282,1.427,1.524,1.036c0.246-0.387,0.611-1.557-1.155-2.206c-1.77-0.648-0.063-2.47-0.063-2.47s1.099,1.3,1.889,0.585c0.79-0.712-0.06-0.712-0.06-0.712s2.251-1.431,2.314-2.146c-0.428-0.063-1.159,0.067-1.159,0.067s1.282-0.846,0.976-2.21c-0.488,0.715-1.159,0.715-1.159,0.715s1.099-1.103,0.913-2.142c-0.667,0.518-0.607,0.909-1.036,0.779c-0.425-0.13-1.155-4.222,0.551-4.482c1.703-0.257,0.79,2.016,0.85,2.016c0.063,0,2.56-1.04,0-2.727c0.611-0.197,1.889,0.972,1.889,0.972s-0.548-2.858-3.29-1.103c0.671-0.715,1.099-1.17,1.647-1.04s2.496-0.067,2.496-0.648c-0.484-0.391-1.52,0.194-2.072,0C345.857,153.625,350.306,153.301,349.94,151.096L349.94,151.096z" />
    <path fill="none" stroke="#006B00" stroke-width="0.2568" stroke-linecap="round" stroke-linejoin="round" d="M330.628,152.781c0,0,2.437-1.364,3.655,0.327 M335.258,155.704c-0.062,0-0.854,0.844-1.037,0.844 M336.904,158.431c0,0,2.252,0.195,3.715-2.208 M339.339,157.716c0,0,0.183,1.3,0.549,1.3c0.364,0-0.609,0.325-0.975,0.064c0.426,0.585,0.67,1.625,0,2.013 M338.181,174.083c0,0-0.792,0.908-1.767,0.974 M339.096,169.926c0,0-0.487-2.596-0.183-3.247c0.183-0.844,0.975-1.169,1.584-2.272 M338.851,168.042c0,0-0.609,1.559-3.289,1.039 M339.583,164.146c0,0,0.181,2.079-2.254,1.3 M336.597,154.796c0,0-0.975,0.908-0.609,2.142" />
    <path fill="#006B00" d="M340.252,152.522c0,0,1.279-0.52,1.524-0.781c0.243-0.259,0.671-0.778,0.792-1.169c0.121-0.388-0.854-0.974-0.366-1.818c0.304-0.39,0.73-0.455,1.462,0c0.73,0.454-0.67-1.429-1.401-1.493c-0.732-0.065-1.22,0.519-1.401,0.389c-0.183-0.13,0.06,0.52-0.245,0.52c-0.304,0,0.609,0.519,0.549,0.845c-0.062,0.325,0.973,1.428,0.913,1.688C342.019,150.963,340.556,152.456,340.252,152.522z" />
    <path fill="#FFC900" stroke="#FFC900" stroke-width="0.2568" stroke-linecap="round" stroke-linejoin="round" d="M341.167,148.235c0.555-0.135,0.645,0.015,0.547,0.519C341.454,148.615,341.358,148.497,341.167,148.235z" />
    <path fill="#FFC900" stroke="#006B00" stroke-width="0.2568" stroke-linecap="round" stroke-linejoin="round" d="M337.276,177.169c0,0-0.205,1.36,0.296,1.472c-0.026-0.526,0.107-0.885,0.231-1.025C337.695,177.564,337.299,177.178,337.276,177.169L337.276,177.169z M336.146,175.496c-0.462-0.07-1.24,0.337-1.017,0.829c0.376-0.344,0.722,0.028,0.985-0.322C336.193,175.905,336.171,175.619,336.146,175.496L336.146,175.496z M336.142,174.524c0,0-0.726-0.123-0.828,0.414c0.501-0.068,0.651-0.125,0.818-0.013C336.179,174.811,336.134,174.552,336.142,174.524L336.142,174.524z M333.064,166.865c0,0,0.436,0.174,0.559,0.649C333.969,167.285,334.134,166.277,333.064,166.865z M331.985,168.021c0.018-0.008,0.913-0.588,1.005-0.034c-0.189,0.202-0.273,0.333-0.42,0.378C332.455,168.365,332.224,167.987,331.985,168.021z M331.896,169.898c0.016-0.008,0.575-0.535,0.79-0.185c0.213,0.352-0.173,0.333-0.173,0.333S332.316,169.951,331.896,169.898z M331.106,159.445c-0.008,0-0.716-0.291-1.013,0.235c0.47,0.062,0.635,0.238,0.848,0.414C330.883,159.874,330.786,159.541,331.106,159.445z M329.733,163.382c0,0,0.032-0.885,0.426-1.245c0.223,0.132,0.288,0.342,0.438,0.605C330.3,162.811,329.904,162.831,329.733,163.382L329.733,163.382z M331.623,162.75c0,0-0.78,0.386-0.525,0.808c0.255-0.291,0.535-0.202,0.535-0.21S331.633,162.761,331.623,162.75z M330.497,154.278c-0.281,0.335,0.346,1.063,1.003,0.957C331.665,154.446,330.662,154.034,330.497,154.278z M331.221,153.674c0,0,0.123,0.624,0.69,0.456c-0.09-0.481-0.485-0.842-0.485-0.842C331.402,153.43,331.508,153.648,331.221,153.674z M331.599,155.481c0,0,0.312,0.358,0.929-0.378c-0.279,0.087-0.772-0.176-0.772-0.176S331.757,155.436,331.599,155.481z M330.461,152.848c-0.279,0.333,0.117,0.798,0.774,0.694C331.4,152.753,330.626,152.605,330.461,152.848z" />
    <linearGradient id="Gradient_GS_2" gradientUnits="userSpaceOnUse" x1="-252.1333" y1="154.8106" x2="-252.0673" y2="142.3006" gradientTransform="matrix(0.7648 0 0 -0.4964 527.7253 221.5045)">
      <stop offset="0" style="stop-color:#B50000" />
      <stop offset="1" style="stop-color:#FFC500" />
    </linearGradient>
    <path fill="url(#Gradient_GS_2)" d="M330.725,149.732c0,0,2.623-0.749,4.017,0.376c1.39,1.122,1.39,0.104,1.39,0.104s2.034,0.749,2.623,0.589c0.589-0.16-0.428,0.056,0.373-0.428c0.805-0.481-1.606,0.108-1.818-0.909c-0.376-0.641,0.052-1.446-0.801-1.177c-0.589-0.749,0.373-1.282,0.16-2.087c-0.589,0.428-0.913-0.16-1.394,0.909c-1.122-0.212-0.16-1.766-1.39-1.926c0,1.125-0.909,1.177-0.965,1.822C332.387,147.377,330.032,148.77,330.725,149.732z" />
    <path fill="#C01500" stroke="#000000" stroke-width="0.3726" d="M300.546,235.042c1.701-0.41,10.919,2.038,14.474,5.846c-0.756-6.785-2.635-11.983-2.635-11.983s-5.493-1.569-6.247-0.812C305.032,229.256,301.71,232.747,300.546,235.042z M297.736,203.699c-0.646,0.108-1.293,0.54-1.939,1.617c-0.754,1.829-1.293,6.461-2.37,7.538c-1.077,1.077-2.047,1.185-2.047,2.157c0,0.969,0.108,3.23,3.016,4.091c2.908,0.108,7.54-4.631,7.54-4.631s2.37-2.586,3.339-5.384C299.675,211.025,295.69,205.853,297.736,203.699L297.736,203.699z M378.742,233.962c-1.688-0.406-11.01,2.027-14.539,5.813c0.749-6.744,2.616-11.916,2.616-11.916c0.652-0.175,5.392-1.557,6.14-0.805C374.055,228.209,377.587,231.681,378.742,233.962z M381.354,202.801c0.641,0.108,0.868,0.95,1.393,2.023c0.745,1.818,1.517,4.471,2.586,5.541c1.069,1.073,2.031,2.657,2.031,3.622c0,0.965-0.224,2.265-3.111,3.122c-2.884,0.108-7.068-3.599-7.068-3.599s-2.351-2.567-3.312-5.354C379.432,210.086,383.031,205.123,381.354,202.801L381.354,202.801z" />
    <path fill="#FFBB00" stroke="#000000" stroke-width="0.3726" d="M294.505,229.122c0,0,5.816,3.983,5.924,5.816c15.619-23.161,55.473-30.378,78.198-1.617c3.018-3.987,6.14-5.276,6.14-5.276C360.858,196.806,313.247,200.685,294.505,229.122z" />
    <path fill="#1E5AA6" stroke="#000000" stroke-width="0.3609" d="M356.036,140.458l-3.876,4.909c0.721-2.188,1.599-4.854,1.599-4.854L356.036,140.458z M351.971,145.607l0.08,0.093c0.051-0.155,0.06-0.183,0.11-0.333L351.971,145.607z M352.051,145.7c-1.371,4.162-2.952,8.961-2.952,8.961l2.676,3.032l5.074-6.393L352.051,145.7z M351.774,157.693l-4.52,5.694l4.905,5.903l4.689-5.847L351.774,157.693z M318.795,141.598l4.291,4.645c-0.848-2.154-1.85-4.701-1.85-4.701L318.795,141.598z M323.247,146.654l-4.72,5.891l5.208,5.661l2.706-3.436C326.44,154.769,324.761,150.502,323.247,146.654z M323.085,146.243c0.074,0.188,0.085,0.216,0.162,0.411l0.101-0.126L323.085,146.243z M323.734,158.206l-4.72,5.994l4.903,5.454l4.636-6.211L323.734,158.206z M329.097,186.858c2.042,1.68,4.3,3.037,6.342,3.905l3.146-4.013l-4.917-5.689L329.097,186.858z M341.725,190.383c2.258-1.14,4.032-2.441,5.965-4.009l-4.626-5.339l-4.479,5.715L341.725,190.383z M332.51,170.814l-3.434,4.579l-5.159-5.739l-3.658,4.9c0.995,2.44,2.422,5.149,3.957,7.154l4.785-6.047l4.666,5.398l1.88-2.385L332.51,170.814z M343.733,170.705l-2.713,7.97l2.043,2.358l4.47-5.703l5.086,5.621c1.539-2.008,2.694-4.229,3.689-6.669l-4.149-4.992l-4.638,5.783L343.733,170.705z M329.365,162.359l-0.812,1.028l2.332,2.929L329.365,162.359z M346.419,162.508l-1.17,3.469c0.048-0.056,1.882-2.496,1.882-2.496L346.419,162.508z" />
    <path fill="none" stroke="#FFF700" stroke-width="0.3726" stroke-linecap="round" stroke-linejoin="round" d="M372.203,125.259c0,0,2.25-1.926,3.853-1.982 M372.527,124.991c0.052-0.052,13.432-1.926,13.857-2.355 M372.58,125.099c0.052-0.056,14.982-1.285,14.982-1.285 M372.527,125.151c0,0,15.891-0.749,16.856,0.056 M372.472,125.099c0,0,15.575,0.108,15.843,0.481 M372.527,125.099l14.982,1.23 M372.367,125.207c0.052,0,15.251,1.338,16.748,3.264 M389.917,131.199c-0.052-0.052-5.19-6.155-17.605-6.047 M372.367,125.259c0,0,8.615,0.589,11.342,3.584 M372.527,125.151c0,0,5.563-1.069,11.398,5.943" />
    <linearGradient id="Gradient_GS_3" gradientUnits="userSpaceOnUse" x1="377.2422" y1="160.1219" x2="388.2329" y2="160.5816">
      <stop offset="0" style="stop-color:#D5DFFF" />
      <stop offset="1" style="stop-color:#FFFFFF" />
    </linearGradient>
    <path fill="url(#Gradient_GS_3)" stroke="#000000" stroke-width="0.3726" d="M369.021,131.519c0,0,7.72,0.306,7.72,1.062s-5.753,2.195-5.827,5.373c-0.075,3.178,4.389,3.406,4.691,7.415c0.302,4.013-3.48,4.617-4.236,5.678c-0.76,0.529-2.575,6.204-2.347,9.535c0.227,3.331,1.211,14.606,2.951,16.879c1.364,1.058,3.406,4.464,5.6,3.406c2.195-1.062,0.682-4.918,0.455-5.98c-0.227-1.058,0.909-2.798,0.909-4.389s-0.835-2.876-0.756-3.253c0.075-0.38,6.129,1.438,5.749,7.415c-0.376,5.98-2.798,4.162-2.798,4.162s0.756,7.344-1.136,8.328c-3.406,1.815-5.902-0.38-5.902-0.38l0.32,1.494l-2.59-1.341c0,0-3.331-4.769-4.087-6.889c-0.756-2.116-1.666-11.577-1.364-13.622c0.302-2.042,0.529-14.002,0.38-14.606c-0.153-0.607-0.756-10.597-0.38-12.11C366.752,138.181,369.096,131.519,369.021,131.519z" />
    <path fill="#FF7000" stroke="#000000" stroke-width="0.3726" d="M360.697,129.552c0,0,5.373-5.22,8.477-4.617c1.587,0,0.074,1.136,0.074,1.136s2.724,0.227,3.104,1.438c0.075,0.529-1.289,0.682-1.289,0.682s1.136,0.227,1.211,1.211C372.352,130.386,360.772,129.626,360.697,129.552z" />
    <path fill="none" stroke="#000000" stroke-width="0.3726" d="M360.999,129.325c0,0,5.753-0.756,8.175-3.178 M366.827,127.737c0,0,4.236-0.153,4.236,0.455" />
    <path fill="#FFFFFF" stroke="#000000" stroke-width="0.4658" stroke-linejoin="round" d="M381.887,189.645c0,0,3.633-0.835,4.617-2.12C387.111,187.07,390.289,192.294,381.887,189.645z" />
    <path fill="none" stroke="#FFFFFF" stroke-width="0.4658" stroke-linecap="round" d="M380.903,159.598c0,0,0.455,2.802-0.831,4.691c-0.682,0.756-2.727,2.046-2.727,2.955c0,0.905,0.756,2.116,0.607,3.178c-0.153,1.058-1.285,2.12-1.211,3.026c0,0.909,1.285,5.753,1.133,5.827 M374.245,150.518c0,0-2.876,0.984-3.484,3.86" />
    <path fill="#C75B00" stroke="#000000" stroke-width="0.3726" d="M373.03,127.737c0,0,0.987,2.724,4.166,0.149C375.151,125.088,373.03,127.812,373.03,127.737z" />
    <path fill="#000000" d="M375.379,127.623c0,0.146-0.152,0.265-0.341,0.265c-0.188,0-0.341-0.119-0.341-0.265c0-0.146,0.152-0.265,0.341-0.265C375.227,127.358,375.379,127.476,375.379,127.623z" />
    <path fill="#0000FF" stroke="#000000" stroke-width="0.3726" d="M354.132,132.406c0,0,7.519,2.057,8.369-8.723c-1.632-4.68-3.901-14.751-0.425-17.658c-3.193-2.198-6.666,0.071-6.666,0.071c-0.212,0.496-3.052,4.538,0.779,11.629c-9.077-2.411-5.388,6.17-5.388,6.17c0.354-1.349,5.175-2.623,6.383,4.255C357.679,129.854,353.92,132.477,354.132,132.406z M362.572,123.754c0,0,7.944-4.255,7.728-14.252c-6.737,0.142-9.147,8.86-9.147,8.86L362.572,123.754z M317.684,126.519c0.496-2.623,2.552-3.901,4.184-1.42c2.198,0.428,4.397-8.577-3.406-7.091c2.198-11.77-4.395-16.167-4.395-16.167s-2.34,13.048-1.277,15.459c1.064,2.411-1.56-4.467-9.998-6.383c-0.142,9.859,9.431,14.468,9.431,14.468S314.92,127.868,317.684,126.519z" />
    <path fill="none" stroke="#000000" stroke-width="0.3726" d="M318.463,117.938c0,0-3.685,3.122-2.835,7.377 M312.863,117.513c0,0-0.851,3.048,0.993,7.374 M312.296,125.882c0,0,1.702-2.765,5.389,0.779" />
    <path fill="#FFFFFF" stroke="#000000" stroke-width="0.3726" d="M347.042,121.414c0,0,6.029,6.524,9.93,6.453c0.708,1.915-1.774,3.696-2.765,4.546c-1.986-0.637-3.782,0.116-8.391-5.555C346.103,123.24,347.112,121.556,347.042,121.414z M326.973,123.259c0,0-5.883,5.105-9.218,3.473c-2.482,1.49-5.389-1.133-5.389-1.133s3.403,12.549,15.602,3.473C327.756,126.306,327.115,123.471,326.973,123.259z M355.198,106.238c0.779-2.411,2.34-4.326,3.685-4.538c-0.354-1.844,2.839-9.997,12.128-13.119c0.566,4.184-3.972,8.298-3.972,8.298s13.686-2.34,16.45-5.816c-0.283,1.561-3.048,11.275-17.658,11.204c5.533,5.25-1.77,9.434-4.892,8.156C366.685,106.026,359.311,103.403,355.198,106.238z M313.005,106.734c0-0.071-5.602,0-2.269,5.675c-2.482,0.779-8.013-2.835-4.184-7.661c-12.551-0.283-17.657-6.308-17.657-11.841c3.688,3.83,12.481,2.269,15.601,4.609c-3.829-3.543-3.049-8.439-3.049-8.439s10.708,3.193,12.622,12.694C313.43,103.615,313.147,106.875,313.005,106.734z" />
    <path fill="none" stroke="#000000" stroke-width="0.3726" d="M358.812,101.7c0,0,5.462-2.906,8.51-4.892 M304.391,97.27c2.066,2.101,7.376,2.731,10.071,5.071" />
    <path fill="#CCCCCD" stroke="#CCCCCC" stroke-width="0.3726" d="M359.878,102.836c2.765-1.774,3.756-1.774,6.029-1.42c-1.632,0.212-1.632,0.283-1.632,0.283s-0.142,0.212,0.85,1.136C363.991,102.549,362.996,101.912,359.878,102.836z M306.835,103.474c0,0,4.396-0.566,5.669,0.991c-1.72,0-2.293-0.425-4.777,0.499c0.701-0.358,0.509-0.995,0.892-0.995S307.027,103.474,306.835,103.474z" />
    <path fill="#923F00" stroke="#000000" stroke-width="0.3726" d="M328.747,69.081c0,0,2.411-2.128,5.034-0.213c-1.185,3.542-5.459,2.198-5.459,2.198s0.142,1.773-0.283,2.623c0.853,0.643,1.557,2.766,1.557,2.766s4.397-1.064,5.321,0.851c1.684-0.232,2.906,0,2.906,0s3.406-0.851,4.609-0.851c1.207,0,5.034,0.993,5.388,1.702c0.358,0.709,1.632,5.46,2.485,5.389c0.85-0.071-2.057,1.135-2.839-0.071c-0.779-1.206-0.566,1.56-0.566,1.56s2.411,2.553,2.694,3.12c0.283,0.566-1.487,5.175-0.142,8.369c-1.181,0.108-1.274,1.345-1.274,1.345c-0.067,1.405-1.844,1.774-1.844,1.774l-0.425-1.915l-1.207,0.712l0.496-1.49c0,0,1.632-3.972,1.774-5.246c0.142-1.278-1.49-3.547-2.765-3.547c-1.278,0-2.198,4.043-2.198,4.043s-0.637,3.048-0.425,3.331c0.212,0.283-0.853-0.991-0.853-0.991s-0.566,1.844-0.991,2.411c-0.425,0.566-1.349,0.779-1.349,0.779s-0.637-1.844-0.425-2.552s3.476-3.473,3.193-5.459c-0.287-1.986,0-1.49-0.075-1.561c-0.071-0.071-1.699-1.489-1.77-2.269c-0.071-0.78-2.128,0.993-4.821,0.425c-0.827,1.441-0.924,5.033-0.924,5.033s-0.283,4.326,0.283,4.825c0.57,0.496-1.416,1.557-1.416,1.557l-1.42,1.915c0,0-0.496-1.203-0.496-1.133c0,0.071-0.995,0.708-0.995,0.708l0.57-1.42c-0.037-1.073,1.379-4.005,1.379-6.487c0-2.482,0.179-5.141,0.179-5.141s-2.623-0.142-2.552,2.552c0.071,2.698-0.637,2.839-0.496,3.618c0.142,0.779,0.85,2.977,0.637,3.618c-0.212,0.637-1.062,0.85-1.062,0.85l-0.212,0.354c0,0-2.623,1.207-2.552,1.703c0.071,0.496-0.071-1.42-0.071-1.42l-0.145-2.057c0,0,1.561-0.991,1.561-3.473c0-2.482-0.358-2.835-0.287-3.402c0.071-0.57,0.428-2.627,0.358-2.839c-0.071-0.213-1.487,0.567-1.915,0.567c-0.425,0,0.782-1.489,0.924-2.553c0.142-1.064-1.42,0.993-2.694-0.213c0.592-1.309,1.487-1.702,1.628-2.695c0.142-0.993-0.991,0.851-1.986,0.142c0.082-0.952,1.066-1.773,1.066-1.773s-0.809-0.099-1.136,0c-0.637-0.213,0.712-1.206,0.782-2.624s-0.782-1.986-0.782-2.056s-1.416-1.277-1.628-1.773c-0.212-0.496-0.212-1.064-0.212-1.064s-2.344,1.702-5.108-1.914c2.534-2.162,5.25-0.567,5.25-0.567s0.708-1.986,3.968-1.844C328.251,67.45,328.888,69.294,328.747,69.081L328.747,69.081z" />
    <path fill="#0000FF" stroke="#000000" stroke-width="0.3726" d="M346.587,105.761c0.056,0,6.021,0.179,6.081,3.368c0.06,3.186-1.829,2.362-1.889,2.362c-0.06,0-4.371-0.533-4.371-0.533L346.587,105.761z" />
    <path fill="#FFFEFF" stroke="#000000" stroke-width="0.3726" d="M340.797,104.874c0,0,7.441-0.056,7.027,3.189c-0.414,3.249-2.303,2.601-2.303,2.601l-3.603-0.298C341.918,110.367,340.797,104.874,340.797,104.874z M326.508,105.761c-0.06,0-6.025,0.179-6.085,3.368c-0.056,3.186,1.833,2.362,1.893,2.362s4.371-0.533,4.371-0.533L326.508,105.761z" />
    <path fill="#0000FF" stroke="#000000" stroke-width="0.3726" d="M336.605,104.521l4.311,0.354c0,0,2.597,0.354,2.482,2.835c-0.119,2.482-2.66,2.541-2.66,2.541l-4.192-0.238C336.545,110.013,336.605,104.521,336.605,104.521z M332.294,104.874c0,0-7.441-0.056-7.027,3.189c0.414,3.249,2.303,2.601,2.303,2.601l3.603-0.298C331.173,110.367,332.294,104.874,332.294,104.874z" />
    <path fill="#FFFFFF" stroke="#000000" stroke-width="0.3726" d="M336.49,104.521l-4.311,0.354c0,0-2.601,0.354-2.482,2.835c0.119,2.482,2.657,2.541,2.657,2.541l4.192-0.238L336.49,104.521z" />
    <path fill="#5E0043" stroke="#000000" stroke-width="0.3726" d="M348.033,140.376c0,0,3.1-4.568,4.408-4.08c1.14,0.38,0.272,3.916-0.272,4.244L348.033,140.376z M326.783,141.192c-0.976-1.36-2.392-5.112-3.696-4.08c-1.144,0.38-0.272,3.916,0.272,4.244L326.783,141.192z M329.418,117.565l1.159-1.449l5.801,2.947l5.895-2.612l1.159,1.211l-6.573,4.639C336.858,122.301,329.418,117.565,329.418,117.565z" />
    <path fill="#474747" stroke="#474747" stroke-width="0.4658" stroke-linejoin="round" d="M324.812,117.487c0.469,0.592,4.218,5.149,4.896,8.92c0.674,3.771-0.388-5.172-0.388-5.172s4.639,2.273,4.784,3.722c0.145,1.449,2.217-0.097,2.318-0.347l-13.432-8.723L324.812,117.487z M347.731,117.226c0,0-4.881,6.427-4.3,13.432c-1.006-3.353-0.194-8.89-0.194-8.89l-1.062,0.678c0,0-1.11,4.736-2.515,5.459c-0.235-0.563-0.19-0.771-0.19-0.771s-1.498,1.93-1.788,2.124c-0.291,0.194,0.097,6.524,0.097,6.524s0.503,4.59,1.081,4.542c-0.659,0.32-1.468,0.823-1.468,0.823l-0.6-12.251l1.371-1.379c0,0,1.837-2.221,1.982-4.397c-0.797,0.678-1.692,0.872-1.692,0.872s-0.242,3.093-0.965,3.525c-0.727,0.436-0.745,1.244-0.745,1.244l-0.171-4.043C336.572,124.719,347.731,117.226,347.731,117.226z M348.331,112.42c0,0-3.819-1.621-3.819-0.216c0,1.401,0.108,1.546,0.723,2.448c0.611,0.898-0.469,1.476-0.469,1.476s-0.145-0.395-0.361-1.01c-0.216-0.611-2.269-1.043-2.448-1.762c-0.179-0.723,0.432-1.874-0.794-2.016c-1.222-0.145-2.411,0.503-2.664,1.908c-0.253,1.405-1.837,4.68-1.837,4.68l0.216-7.452c2.69,0.19,7.683,0.779,11.525,1.222c-1.151-0.179,0.432,0.075,0.399,0.469C348.692,112.49,348.293,112.524,348.331,112.42z M334.824,110.545c-0.682,0-4.106,0.395-4.97,0.902c-0.864,0.503,1.405,1.293,1.118,1.979c-0.287,0.686-0.324,2.053-1.405,1.766c-1.081-0.291-4.717-2.09-4.825-2.701c-0.108-0.611-0.864-0.648-0.864-0.648S334.321,110.437,334.824,110.545z" />
    <path fill="none" stroke="#000000" stroke-width="0.4658" stroke-linecap="round" d="M336.568,124.667l0.946,19.327" />
    <path fill="#B4B6B9" stroke="#000000" stroke-width="0.3726" d="M321.649,114.953l14.919,9.762l13.436-9.036c0,0,2.802-1.546,2.56-2.657c-0.238-1.114-1.207-0.678-1.692-0.484c-0.481,0.194-14.062,9.811-14.062,9.811l-14.449-9.136c0,0-1.062-0.335-1.256,0.339C320.911,114.23,321.504,114.614,321.649,114.953z" />
    <path fill="none" stroke="#000000" stroke-width="0.3726" d="M328.836,132.156c0,0,6.04,3.722,8.022,3.819c1.982,0.097,8.264-4.833,8.264-4.833 M324.682,133.896c0,0,2.221,1.308,3.044,5.269c7.247-0.533,9.52,2.031,9.52,2.031s5.943-2.85,8.7-2.321c0.965-2.027,3.719-4.639,3.719-4.639 M336.471,110.013l-0.026,8.834 M329.418,98.898c0,0-4.184,6.792-4.266,7.001 M337.127,98.73c0,0,1.822,2.485,1.613,3.189c0.745,0.581,1.576,2.903,1.576,2.903 M344.169,98.317c0,0-3.935,5.552-3.812,5.965" />
    <path fill="#000000" d="M324.008,71.918c-0.089,0.31-0.591,0.431-1.12,0.268c-0.53-0.162-0.887-0.545-0.798-0.856c0.089-0.31,0.591-0.431,1.12-0.268C323.74,71.225,324.097,71.608,324.008,71.918z M325.598,71.809c0.089,0.31,0.591,0.431,1.12,0.268s0.887-0.545,0.798-0.856c-0.089-0.31-0.591-0.431-1.12-0.268C325.866,71.115,325.509,71.498,325.598,71.809z" />
    <path fill="#FF7000" stroke="#000000" stroke-width="0.3726" stroke-linejoin="round" d="M371.663,186.809c0,0-1.461,0.276-1.412,0.41c0.045,0.138-4.244,0.276-4.333,0.138c-0.093-0.138-0.641,0.73-0.641,0.73l0.686-0.41c0,0,1.047,1.092,1.367,1.002s-0.138,0.41-0.045,0.503c0.089,0.089,0.41-0.183,0.41-0.183l7.087-0.119C374.782,188.881,371.663,186.809,371.663,186.809z" />
    <path fill="#FF7000" stroke="#000000" stroke-width="0.4658" stroke-linejoin="round" d="M374.305,189.015l-5.79,0.168c0,0-1.457,1.323-1.55,1.639c-0.089,0.32,0.958,0.41,0.958,0.41l0.32,1.095l0.73-0.272c0,0,4.922,0.73,9.442-0.276c2.28-0.797,2.679-1.755,1.081-2.336C377.9,188.862,374.349,189.037,374.305,189.015L374.305,189.015z" />
    <linearGradient id="Gradient_GS_4" gradientUnits="userSpaceOnUse" x1="6.3598" y1="-131.0286" x2="-17.2676" y2="-109.0086" gradientTransform="matrix(1.5914 0 0 -0.2385 383.0572 169.809)">
      <stop offset="0" style="stop-color:#D5DFFF" />
      <stop offset="1" style="stop-color:#FFFFFF" />
    </linearGradient>
    <path fill="url(#Gradient_GS_4)" stroke="#000000" stroke-width="0.3726" d="M354.479,200.894l10.422-0.466l-1.941-1.647l28.187-1.136l-0.972-2.239l-31.559,1.267l3.797,1.774l-8.525,0.253l0.253,0.887l-2.236-0.086C351.904,199.5,354.393,200.469,354.479,200.894L354.479,200.894z" />
    <linearGradient id="Gradient_GS_5" gradientUnits="userSpaceOnUse" x1="368.9253" y1="134.7875" x2="364.0268" y2="144.6958">
      <stop offset="0" style="stop-color:#D5DFFF" />
      <stop offset="1" style="stop-color:#FFFFFF" />
    </linearGradient>
    <path fill="url(#Gradient_GS_5)" stroke="#000000" stroke-width="0.3726" d="M366.163,143.323c-0.831-0.414-4.471-0.909-8.529,1.74l0.168,9.356c0,0,5.958-3.23,8.857-2.485C366.491,149.035,366.491,145.313,366.163,143.323z" />
    <path fill="none" stroke="#000000" stroke-width="0.3726" d="M308.539,171.726l-24.575,24.398 M319.492,171.905l-19.946,26.268 M318.601,165.049l-26.624,32.234 M291.175,196.836l2.582-3.026 M323.676,181.254l-10.329,14.248 M312.901,197.372l0.267,5.429 M328.393,186.239l-10.951,13.715 M326.437,198.885l4.453-7.303 M328.128,190.159l-5.343,6.055 M326.526,184.462l-3.651,4.449 M321.805,177.96c0,0-11.13,16.294-10.952,17.631 M320.647,175.825c-0.265,0.175-9.615,12.553-9.615,12.553 M310.497,192.294l-1.692,2.049 M306.668,197.462l-2.582,3.383" />
    <path fill="#8A9396" stroke="#2B2B2B" stroke-width="0.3726" d="M307.323,134.224c0,0-0.754,2.37,0,3.555c0.754,1.185,5.493,10.772,5.493,10.772s3.233-3.987,4.418-4.095c1.185-0.104,0.645,10.343,0.645,10.343s-1.938,1.829-3.122,1.721c-1.186-0.108,2.906,4.095,2.798,7.649c-0.108,3.555-5.384,21.22-7.323,21.54c-1.939,0.324,0.862-3.23,0.754-4.199c-0.108-0.969-0.646-0.324-1.077-1.401c-0.431-1.077,0.646-2.694,0.431-3.771c-0.215-1.077-1.185-0.861-1.293-1.613c-0.108-0.756,0.646-0.969,0.539-1.833c-0.108-0.861-1.293-0.645-1.185-1.401c0.108-0.753,0.215-0.428,0.108-1.829c-0.108-1.401-0.323,0.969-1.508,1.077c-1.185,0.108-2.154,2.802-2.154,2.802s-2.37,3.338-4.739,1.829c1.4,3.018,0.323,4.311-0.215,4.415c-0.538,0.108,0.431,2.37-0.862,2.478c-1.293,0.108,0.969,5.064-0.538,5.496c1.616,0.753,0.323,1.721,0.323,1.721s-3.733,0.313-2.908,5.172c-10.987-3.879-16.372-10.556-16.265-17.341c0.108-6.789,2.262-12.925,7.54-15.187c1.508-5.604,4.093-11.636,4.093-11.636s-0.431-2.478-0.108-4.091c0.323-1.617,1.831-3.23,1.831-3.23s-0.216-3.879-0.108-5.816c0.108-1.941,0.861-2.802,0.969-3.879c0.108-1.077-0.323-6.573,0.754-7.541c1.077-0.969,3.124-0.861,4.201-1.505c1.077-0.648,2.477-1.833,3.878-1.725c1.4,0.108,2.585,1.077,2.585,1.077s5.278,0,5.601,2.046c0.323,2.049-1.077,2.802-1.077,2.802S310.554,131.534,307.323,134.224L307.323,134.224z" />
    <path fill="#CECFCF" stroke="#2B2B2B" stroke-width="0.3726" d="M302.637,126.762c0.169,0.312-0.216,0.848-0.86,1.197c-0.644,0.349-1.303,0.378-1.472,0.066c-0.169-0.312,0.216-0.848,0.86-1.197S302.468,126.449,302.637,126.762z" />
    <path fill="none" stroke="#000000" stroke-width="0.3726" d="M309.691,128.397l-2.635,1.975" />
    <path fill="none" stroke="#2B2B2B" stroke-width="0.2329" d="M310.267,127.573c0.082,0,2.141,1.811,2.058,3.044 M310.762,126.832c0,0,1.4,0.987,1.729,1.975 M309.618,130.871c0,0,1.308,5.842-0.256,9.874 M310.02,128.315c0,0,2.552,3.376,2.223,7.575 M310.103,126.254c0,0-5.022,8.152-4.364,13.257 M310.432,126.008c0,0-6.669,3.953-7.904,16.879 M300.058,143.629c0,0,3.705-15.396,10.292-17.62" />
    <path fill="none" stroke="#2B2B2B" stroke-width="0.3726" d="M306.608,123.776c0,0-1.488,0.406-1.691,1.013c-0.203,0.611-1.082,1.218-1.556,1.013c-0.474-0.201-1.353-0.946-1.353-0.946 M310.803,125.874c0,0-4.127-1.218-5.548,0.812c-1.421,2.027-1.082,3.178-0.338,3.379" />
    <path fill="#000000" d="M301.742,127.306c0,0.197-0.179,0.357-0.4,0.357c-0.221,0-0.4-0.16-0.4-0.357c0-0.197,0.179-0.357,0.4-0.357C301.563,126.949,301.742,127.109,301.742,127.306z M311.44,125.759c0,0.487-0.348,0.881-0.778,0.881s-0.778-0.394-0.778-0.881s0.348-0.881,0.778-0.881S311.44,125.272,311.44,125.759z" />
    <path fill="#2B2B2B" stroke="#2B2B2B" stroke-width="0.3726" stroke-linecap="round" stroke-linejoin="round" d="M312.902,148.815c0,0,3.542-4.445,4.365-4.281c0.823,0.164,0.574,10.291,0.574,10.291s-2.634,1.975-3.208,1.893c-0.578-0.082,2.962,4.777,2.88,6.588c-0.082,1.811-0.164,1.811-0.164,1.811s0-1.069-0.823-2.798c-0.823-1.729-0.332-3.707-5.682-8.071c-1.318-2.716,2.635,1.647,3.457,0.987C315.125,154.579,312.82,148.897,312.902,148.815L312.902,148.815z M298.151,128.985c0,0-2.233,2.232-1.15,2.504c1.082,0.268,2.233-1.759,2.233-1.759s0,3.45,0.947,2.906c0.947-0.54,3.721-2.5,3.721-2.5s0.947-0.071,1.15,0c0.203,0.067,2.571,2.094,4.127,1.353c-0.879,2.299-1.894,2.571-1.894,2.571s-1.624,2.098-3.721,1.621c-2.097-0.473-2.639-1.353-2.639-1.353s-1.759,0.138-2.3-0.674c-0.541-0.812-0.744-1.285-0.744-1.285s-1.015,1.013-1.285,0.54C296.325,132.436,296.595,129.66,298.151,128.985z M299.428,136.288c0,0,1.683,2.59,3.689,3.301c2.006,0.712-1.392,1.326-3.398-0.03c-1.456-1.975-1.068-3.398-1.068-3.398S299.04,135.77,299.428,136.288z M313.83,151.565c0,0-4.725-6.569-6.084-6.927c-1.359-0.354,1.035-0.645,2.492,0.745c1.456,1.39-0.388-2.265-0.388-2.265L313.83,151.565z M298.976,189.525c1.812-0.484,9.708,4.531,11.488,5.794c1.78,1.259,5.503,0.451,5.503,0.451s-1.718,1.036-2.784,1.297c-1.068,0.257,3.172,0.257,3.172,0.257s-10.097,2.783-20.356-2.619C295.06,190.498,298.199,189.559,298.976,189.525z M310.529,153.182c0,0-1.327-0.257-2.006-1.036c-0.68-0.775-1.651-2.686-2.654-3.495c-1.003-0.809-6.019-3.558-7.832-3.365c-1.812,0.194-2.363-0.194-2.589-0.421c-0.227-0.227-0.971,0.097-0.841,1.036c0.13,0.939-1.392,3.011-0.841,3.979c0.55,0.972,3.139,4.918,3.657,5.049c0.518,0.13,0.194,2.299,0.194,2.299s2.297,2.329,2.88,2.459c0.582,0.13,1.165,0.551,1.1,1.099c-0.065,0.551-2.524,3.562-2.524,3.562s-2.654,1.39-2.686,2.169c-0.032,0.775,0.647,2.392,2.751,2.91c2.103,0.518,7.767,0.097,8.058-0.387c0.291-0.484,0.744-3.398,0.55-3.689c-0.194-0.291-1.586-1.166-2.298-1.036c-0.712,0.13-1.359,0.712-1.294,0.842c0.065,0.13-1.003,0.678-1.003,0.16s2.103-2.847,2.297-2.653c0.195,0.194,3.172,0.484,3.722,1.975c0.55,1.487,0.55,2.556,2.103,2.396c1.553-0.164,3.721-1.587,3.915-4.564c0.194-2.977-1.746-4.985-2.232-5.276c-0.486-0.291-2.104-1.263-2.233-1.714C310.593,155.026,310.27,153.54,310.529,153.182L310.529,153.182z M282.536,166.324c0,0,5.016-1.297,6.311-1.263c1.294,0.03,6.181,2.295,7.605,3.689c1.424,1.39,4.336,4.691,6.246,4.4c1.909-0.291,2.46-0.678,2.46-0.678l-0.744,1.423c0,0-1.553,0.421-2.33,0.227c-0.777-0.194-2.298-0.682-3.819-2.169c-1.521-1.49-6.214-5.503-10.194-5.213c-3.981,0.294-6.278,4.21-6.278,4.21s0.032-1.911,0.194-2.332s-0.841,0.905-0.841,0.905L282.536,166.324L282.536,166.324z M301.014,170.206c0.032,0.03,1.262,0.354,3.333,0.354c2.071,0,3.172-0.905,3.172-0.905l-0.129-0.809l0.323-1.133c0,0,1.586,1.617,1.553,1.941c-0.032,0.324-0.647,0.455-0.647,0.455l-0.227-0.779l-0.55,0.682c0,0-3.01,2.392-4.66,2.038c-1.651-0.358-3.172-1.423-2.751-1.684C300.853,170.109,301.079,170.206,301.014,170.206z M293.701,174.446c0,0-1.812-0.034-2.621,0.354c-0.809,0.387-1.1,0.876-1.651,0.809c-0.55-0.063-0.971-0.775-0.809-1.066c0.227-0.455,1.294-1.036,3.333-0.876C293.992,173.832,293.701,174.446,293.701,174.446L293.701,174.446z M300.044,179.365c0-0.097-0.13-2.653-1.133-3.689c-1.003-1.036-2.233-1.036-2.783-0.909c-0.55,0.13,2.039,1.263,2.298,2.008c0.259,0.745,1.1,2.817,0.874,3.335c-0.227,0.514-0.647-1.457-2.233-2.008s-3.786-0.257-3.333,0.455c0.453,0.712,2.233,0.063,3.139,1.584s1.586,3.141,1.586,3.141l0.291-1.103l0.809-0.224l0.097-2.105L300.044,179.365L300.044,179.365z M298.749,187.648l-1.651-3.301c0,0-0.518-2.101-1.909-2.686c-1.392-0.581-3.236-0.484-3.269,0.227c-0.032,0.712,2.977,1.617,3.172,2.008c0.194,0.388,0.097,1.036-0.162,1.066c-0.259,0.034-1.586-0.484-2.265-0.324c-0.68,0.164-1.068,1.036-2.071,0.779c-1.003-0.261-1.845-3.461-1.456-3.786c0.388-0.324-0.744,0.581-0.971-0.261c-0.227-0.842,0.324-3.461-0.065-3.786c-0.388-0.324-2.265-1.457-2.297-1.684c-0.032-0.224,0.097-12.877,10.679-2.392c-4.531-5.373-6.311-4.792-7.152-4.821c-0.615,0-4.725,0.354-5.76,5.596c-1.036,5.242-2.265,1.975-2.265,1.975s-0.227,2.265,0.874,2.914c1.1,0.645-0.518,2.522-0.518,2.522s-1.974-4.821-1.683-6.927c-0.388,1.684-0.356,5.857,2.136,10.422c2.913,3.074,5.664,5.924,12.977,9.125C298.943,188.426,298.749,187.715,298.749,187.648L298.749,187.648z" />
    <path fill="#8A9396" stroke="#2B2B2B" stroke-width="0.4658" stroke-linejoin="round" d="M291.824,187.681c0,0,2.136,0.257,2.718,1.36c0.583,1.099,0.842,2.783,0.842,2.783c0.356-0.712,0.518-1.326,1.23-1.844s1.23-0.585,1.198-0.972c-0.032-0.387-2.265-2.75-3.398-2.88c-1.133-0.13-3.107,1.23-3.107,1.23S290.95,187.875,291.824,187.681L291.824,187.681z" />
    <path fill="none" stroke="#8A9396" stroke-width="0.4658" stroke-linecap="round" d="M296.702,193.248c0,0,5.535,2.522,14.652,2.686" />
    <path fill="none" stroke="#2B2B2B" stroke-width="0.4658" stroke-linecap="round" d="M315.181,167.553c0,0-0.473,4.646-4.047,13.812" />
    <path fill="none" stroke="#2B2B2B" stroke-width="0.3726" d="M314.469,170.411c0,0-1.073,3.335-4.05,5.835" />
    <path fill="#000000" d="M301.441,227.328l0.562,1.018l-1.497,1.693l-0.307-0.271l0.094-0.107c0.038-0.043,0.062-0.081,0.07-0.114c0.008-0.033,0.007-0.062-0.004-0.088c-0.011-0.028-0.041-0.064-0.089-0.107l-1.256-1.11c-0.053-0.047-0.096-0.075-0.129-0.085c-0.032-0.011-0.061-0.012-0.089-0.002c-0.027,0.009-0.059,0.035-0.097,0.078l-0.104,0.118l-0.307-0.271l0,0l0.958-1.085l0.307,0.271l-0.084,0.095c-0.047,0.053-0.074,0.089-0.081,0.107c-0.012,0.035-0.012,0.068,0,0.099c0.011,0.03,0.04,0.067,0.088,0.109l1.267,1.12c0.051,0.045,0.084,0.07,0.099,0.077c0.016,0.005,0.035,0.003,0.055-0.005c0.019-0.009,0.048-0.035,0.085-0.077c0.126-0.142,0.208-0.272,0.246-0.391c0.04-0.12,0.049-0.25,0.028-0.391c-0.021-0.143-0.08-0.302-0.177-0.476L301.441,227.328z M303.423,225.16c0.076,0.153,0.12,0.308,0.133,0.463c0.012,0.153-0.008,0.294-0.061,0.421c-0.054,0.127-0.146,0.255-0.278,0.386l-0.177,0.175c-0.048,0.048-0.083,0.076-0.104,0.085c-0.02,0.008-0.038,0.009-0.054,0.003s-0.049-0.035-0.1-0.086l-0.478-0.483l0.095-0.094c0.086-0.086,0.147-0.136,0.182-0.151s0.074-0.015,0.116-0.001c0.043,0.013,0.095,0.051,0.155,0.112l0.09,0.091l0.268-0.266l-0.881-0.89l-0.268,0.266l0.079,0.08c0.073,0.073,0.115,0.129,0.128,0.166c0.012,0.036,0.01,0.074-0.007,0.114c-0.016,0.038-0.064,0.096-0.143,0.175l-0.106,0.104l-0.519-0.525l0.321-0.318c0.1-0.099,0.197-0.173,0.294-0.225c0.096-0.053,0.208-0.077,0.335-0.072c0.128,0.005,0.269,0.038,0.423,0.101l0.176-0.368l-0.898-0.428l-1.756,1.737l0.288,0.291l0.094-0.093c0.053-0.053,0.094-0.083,0.122-0.091c0.027-0.009,0.054-0.008,0.081,0.003c0.028,0.01,0.073,0.046,0.134,0.109l1.134,1.146c0.07,0.07,0.109,0.116,0.119,0.136c0.015,0.035,0.015,0.07,0.001,0.104c-0.014,0.034-0.056,0.086-0.127,0.155l-0.053,0.052l0.288,0.291l1.819-1.8l-0.497-1.055L303.423,225.16z M300.389,225.732L300.389,225.732L300.389,225.732L300.389,225.732z M306.654,223.063c0.051,0.264,0.028,0.52-0.068,0.77c-0.096,0.247-0.269,0.479-0.521,0.694c-0.332,0.284-0.682,0.425-1.05,0.424c-0.444-0.002-0.824-0.187-1.14-0.555c-0.293-0.343-0.422-0.719-0.385-1.129c0.038-0.41,0.238-0.771,0.6-1.08c0.357-0.305,0.738-0.444,1.145-0.415c0.407,0.028,0.757,0.212,1.048,0.553C306.48,222.553,306.603,222.799,306.654,223.063z M306.008,223.627c-0.01-0.254-0.124-0.507-0.341-0.761c-0.153-0.178-0.307-0.306-0.462-0.384c-0.154-0.078-0.301-0.11-0.44-0.096c-0.139,0.014-0.259,0.065-0.361,0.152v0c-0.171,0.146-0.252,0.327-0.244,0.541c0.011,0.27,0.126,0.532,0.344,0.787c0.218,0.255,0.449,0.406,0.695,0.453c0.211,0.039,0.4-0.013,0.568-0.156C305.935,224.019,306.015,223.84,306.008,223.627z M310.158,220.81c-0.028,0.012-0.052,0.018-0.074,0.016c-0.023-0.003-0.044-0.013-0.065-0.03s-0.059-0.067-0.117-0.149l-0.972-1.397c-0.033-0.048-0.049-0.081-0.047-0.102c0.001-0.021,0.015-0.042,0.043-0.061c0.059-0.041,0.132-0.064,0.218-0.069c0.114-0.007,0.231,0.011,0.352,0.053c0.061,0.021,0.177,0.078,0.348,0.169l0.245-0.339l-0.894-0.642l-0.232,0.161l0.027,0.102l-1.371,0.953l-0.081-0.065l-0.23,0.16l0.293,1.06l0.398-0.108c-0.029-0.202-0.043-0.328-0.042-0.376c0.001-0.123,0.023-0.233,0.065-0.33c0.043-0.097,0.094-0.167,0.155-0.208c0.03-0.021,0.054-0.029,0.07-0.026c0.017,0.004,0.039,0.026,0.067,0.067l0.993,1.429c0.055,0.079,0.086,0.135,0.092,0.169c0.005,0.032,0.001,0.062-0.014,0.087c-0.016,0.025-0.063,0.064-0.142,0.119l-0.071,0.05l0.234,0.336l1.185-0.824l-0.234-0.336C310.251,220.753,310.185,220.796,310.158,220.81z M313.085,217.998c0.038,0.167,0.045,0.327,0.021,0.481c-0.024,0.152-0.076,0.284-0.157,0.395c-0.082,0.111-0.202,0.214-0.36,0.31l-0.212,0.129c-0.058,0.035-0.098,0.055-0.121,0.058c-0.021,0.003-0.039,0-0.053-0.01s-0.04-0.045-0.077-0.107l-0.352-0.581l0.114-0.069c0.104-0.063,0.175-0.098,0.212-0.104c0.038-0.006,0.075,0.003,0.113,0.026c0.039,0.023,0.08,0.071,0.125,0.145l0.066,0.109l0.323-0.196l-0.649-1.071l-0.323,0.196l0.058,0.096c0.054,0.088,0.082,0.152,0.086,0.191c0.003,0.038-0.008,0.074-0.033,0.109c-0.025,0.033-0.085,0.079-0.18,0.136l-0.127,0.077l-0.383-0.632l0.387-0.234c0.12-0.073,0.233-0.123,0.338-0.15c0.106-0.03,0.22-0.027,0.342,0.008c0.123,0.034,0.253,0.1,0.387,0.197l0.257-0.317l-0.773-0.626l-2.113,1.28l0.212,0.35l0.113-0.068c0.064-0.039,0.111-0.059,0.14-0.06c0.028-0.002,0.054,0.005,0.078,0.022c0.025,0.016,0.06,0.062,0.105,0.137l0.836,1.379c0.051,0.085,0.079,0.138,0.084,0.16c0.006,0.038-0.002,0.071-0.023,0.101c-0.022,0.03-0.075,0.07-0.16,0.121l-0.064,0.039l0.212,0.35l2.189-1.326l-0.237-1.141L313.085,217.998z M317.043,216.825l0.189,0.363l-0.842,0.438l-1.432-0.693l-0.218,0.114l0.272,0.523c0.047,0.09,0.082,0.146,0.105,0.165c0.022,0.019,0.048,0.029,0.076,0.03c0.028,0,0.076-0.018,0.142-0.053l0.12-0.063l0.189,0.363l-1.284,0.668l-0.189-0.363l0.117-0.061c0.061-0.032,0.102-0.061,0.12-0.086c0.019-0.028,0.028-0.058,0.027-0.091c-0.002-0.018-0.023-0.067-0.064-0.146l-0.769-1.478c-0.03-0.058-0.056-0.096-0.079-0.115c-0.022-0.021-0.045-0.029-0.071-0.025c-0.037,0.002-0.075,0.013-0.114,0.033l-0.052,0.029l-0.098,0.051l-0.195-0.375l1.619-0.842c0.104-0.054,0.223-0.104,0.355-0.149c0.134-0.046,0.267-0.062,0.4-0.05c0.134,0.012,0.254,0.052,0.36,0.121c0.106,0.069,0.191,0.165,0.255,0.288c0.104,0.2,0.116,0.399,0.038,0.597c-0.078,0.197-0.204,0.365-0.379,0.503l0.867,0.348l0.037,0.017c0.057,0.024,0.106,0.04,0.146,0.046c0.039,0.005,0.076,0.004,0.109-0.002c0.033-0.006,0.076-0.023,0.127-0.049L317.043,216.825z M315.359,216.029c0.011-0.073-0.002-0.147-0.042-0.222c-0.036-0.069-0.085-0.119-0.147-0.149c-0.061-0.032-0.131-0.043-0.21-0.032c-0.078,0.01-0.191,0.054-0.341,0.132l-0.433,0.225l0.353,0.68l0.39-0.203c0.153-0.08,0.26-0.153,0.321-0.22C315.313,216.172,315.348,216.101,315.359,216.029z M312.995,216.055L312.995,216.055L312.995,216.055L312.995,216.055z M320.328,215.38l0.164,0.375l-0.869,0.381l-1.383-0.786l-0.225,0.099l0.237,0.54c0.041,0.093,0.072,0.151,0.094,0.172c0.021,0.02,0.046,0.032,0.073,0.035c0.028,0.002,0.077-0.013,0.146-0.043l0.124-0.055l0.164,0.375l-1.326,0.581l-0.164-0.375l0.12-0.053c0.063-0.028,0.105-0.054,0.126-0.078c0.021-0.026,0.032-0.056,0.033-0.089c0-0.018-0.018-0.068-0.054-0.15l-0.669-1.526c-0.026-0.06-0.05-0.099-0.071-0.12c-0.02-0.022-0.043-0.032-0.069-0.03c-0.037-0.001-0.076,0.008-0.116,0.025l-0.054,0.026l-0.101,0.044l-0.17-0.387l0,0l1.671-0.733c0.108-0.047,0.229-0.089,0.365-0.125c0.137-0.037,0.271-0.045,0.402-0.023c0.133,0.021,0.25,0.069,0.351,0.145s0.18,0.178,0.235,0.305c0.09,0.206,0.09,0.406-0.002,0.599c-0.091,0.191-0.228,0.35-0.412,0.477l0.842,0.405l0.036,0.019c0.056,0.028,0.103,0.047,0.143,0.056c0.039,0.008,0.075,0.01,0.109,0.005c0.034-0.004,0.077-0.018,0.13-0.041L320.328,215.38z M318.701,214.474c0.016-0.072,0.007-0.147-0.027-0.225c-0.031-0.071-0.077-0.124-0.136-0.158c-0.059-0.036-0.128-0.051-0.208-0.046c-0.078,0.005-0.194,0.041-0.349,0.109l-0.447,0.196h0l0.307,0.702l0.402-0.176c0.158-0.069,0.27-0.135,0.335-0.198C318.645,214.613,318.685,214.545,318.701,214.474z M323.442,214.239l0.14,0.385l-1.316,0.48l-0.14-0.385l0.079-0.031c0.073-0.027,0.121-0.055,0.143-0.084c0.022-0.031,0.028-0.06,0.018-0.088c-0.009-0.024-0.039-0.068-0.092-0.134l-0.174-0.223l-0.847,0.309l-0.001,0.319c0.001,0.068,0.004,0.111,0.011,0.129c0.008,0.021,0.022,0.038,0.043,0.05c0.022,0.011,0.052,0.015,0.09,0.01c0.024-0.003,0.088-0.023,0.19-0.06l0.14,0.385l-1.076,0.393l-0.14-0.385c0.069-0.025,0.117-0.05,0.145-0.073s0.047-0.051,0.058-0.082c0.013-0.032,0.02-0.085,0.021-0.159l0.06-2.504h0l0.624-0.228l1.619,1.842c0.087,0.098,0.152,0.154,0.197,0.168C323.278,214.286,323.348,214.275,323.442,214.239z M321.81,213.816l-0.55-0.667l-0.006,0.87L321.81,213.816z M327.248,213.12c-0.049,0.014-0.091,0.017-0.125,0.01c-0.025-0.005-0.047-0.019-0.067-0.042c-0.013-0.015-0.03-0.058-0.05-0.129l-0.465-1.615c-0.025-0.088-0.028-0.152-0.009-0.192c0.021-0.041,0.069-0.073,0.145-0.095l0.141-0.04l-0.113-0.394l-1.309,0.377l-0.014,1.879l-0.992-1.589l-1.287,0.37l0,0l0.113,0.394l0.155-0.045c0.053-0.015,0.094-0.02,0.122-0.013c0.028,0.007,0.053,0.023,0.074,0.049c0.016,0.019,0.034,0.065,0.055,0.139l0.459,1.595c0.021,0.075,0.03,0.128,0.024,0.161c-0.004,0.031-0.018,0.057-0.042,0.078c-0.022,0.02-0.069,0.04-0.142,0.061l-0.114,0.033l0.113,0.394l1.164-0.335l-0.113-0.394l-0.137,0.039c-0.058,0.017-0.103,0.024-0.133,0.021c-0.029-0.005-0.055-0.016-0.076-0.033c-0.02-0.018-0.035-0.047-0.047-0.086l-0.498-1.729l1.328,2.089l0.394-0.113l0.015-2.557l0.504,1.75c0.02,0.068,0.026,0.117,0.02,0.147c-0.005,0.028-0.02,0.052-0.043,0.072c-0.024,0.02-0.074,0.041-0.152,0.064l-0.106,0.031l0.113,0.394l1.368-0.394l-0.113-0.394L327.248,213.12z M331.685,210.153c0.071,0.101,0.117,0.213,0.141,0.336c0.047,0.249-0.01,0.475-0.171,0.68c-0.159,0.204-0.407,0.337-0.743,0.4l-0.497,0.093l0.102,0.544c0.013,0.068,0.026,0.11,0.039,0.127c0.017,0.024,0.04,0.04,0.067,0.048c0.029,0.008,0.074,0.006,0.135-0.006l0.148-0.028l0.075,0.403l-1.418,0.265l-0.075-0.403l0.098-0.018c0.086-0.016,0.142-0.033,0.168-0.051c0.025-0.018,0.042-0.041,0.05-0.07c0.007-0.03,0.003-0.088-0.013-0.172l-0.299-1.6c-0.017-0.089-0.033-0.146-0.049-0.172c-0.017-0.027-0.039-0.045-0.066-0.052c-0.026-0.01-0.073-0.008-0.142,0.005l-0.14,0.026l-0.075-0.403l1.537-0.287c0.195-0.036,0.36-0.046,0.495-0.03c0.137,0.015,0.258,0.054,0.365,0.117C331.524,209.969,331.614,210.051,331.685,210.153z M331.068,210.633c-0.025-0.133-0.096-0.23-0.214-0.288c-0.087-0.044-0.206-0.052-0.356-0.024l-0.323,0.06l0.154,0.826l0.248-0.046c0.152-0.028,0.26-0.064,0.325-0.108c0.065-0.045,0.113-0.104,0.144-0.176C331.078,210.804,331.085,210.722,331.068,210.633z M335.686,211.661l0.051,0.406l-0.941,0.117l-1.101-1.148l-0.244,0.03l0.073,0.585c0.013,0.101,0.026,0.165,0.041,0.192c0.015,0.025,0.035,0.043,0.06,0.055c0.027,0.009,0.077,0.01,0.152,0l0.135-0.017l0.051,0.406l-1.436,0.179l-0.051-0.406l0.131-0.016c0.069-0.009,0.116-0.022,0.143-0.039c0.028-0.019,0.047-0.044,0.057-0.076c0.005-0.018,0.002-0.071-0.009-0.159l-0.206-1.653c-0.008-0.065-0.019-0.109-0.034-0.135c-0.013-0.027-0.032-0.043-0.057-0.048c-0.036-0.011-0.075-0.014-0.119-0.009l-0.059,0.009l-0.109,0.014l-0.052-0.419l1.811-0.226c0.117-0.015,0.245-0.02,0.385-0.016c0.142,0.004,0.272,0.034,0.392,0.092c0.121,0.058,0.22,0.137,0.295,0.239c0.075,0.102,0.122,0.221,0.139,0.359c0.028,0.223-0.03,0.414-0.172,0.573c-0.141,0.157-0.318,0.271-0.531,0.34l0.692,0.628l0.029,0.028c0.045,0.043,0.086,0.074,0.121,0.094c0.035,0.018,0.069,0.031,0.103,0.036s0.079,0.005,0.137-0.002L335.686,211.661z M334.423,210.106c-0.01-0.077-0.038-0.141-0.086-0.19c-0.046-0.051-0.108-0.086-0.186-0.103c-0.076-0.018-0.198-0.016-0.365,0.005l-0.484,0.06v0l0.095,0.76l0.436-0.054c0.171-0.021,0.297-0.053,0.378-0.094c0.082-0.043,0.14-0.097,0.174-0.161C334.421,210.264,334.434,210.19,334.423,210.106z M338.648,209.308c0.307,0.269,0.474,0.627,0.499,1.075c0.017,0.301-0.034,0.572-0.154,0.812c-0.119,0.241-0.293,0.431-0.52,0.572c-0.226,0.139-0.504,0.218-0.835,0.237c-0.436,0.025-0.801-0.075-1.092-0.299c-0.353-0.27-0.543-0.648-0.57-1.132c-0.026-0.451,0.1-0.828,0.378-1.131c0.279-0.304,0.656-0.469,1.132-0.496C337.954,208.918,338.342,209.039,338.648,209.308z M338.327,210.44c-0.013-0.234-0.058-0.43-0.135-0.585c-0.075-0.156-0.173-0.27-0.292-0.343c-0.119-0.073-0.245-0.105-0.38-0.097c-0.225,0.013-0.398,0.107-0.522,0.283c-0.155,0.221-0.222,0.499-0.203,0.834c0.019,0.335,0.112,0.595,0.278,0.781c0.144,0.159,0.326,0.232,0.546,0.22c0.222-0.013,0.394-0.106,0.518-0.28C338.283,211.044,338.346,210.773,338.327,210.44z M342.351,209.448c0.05,0.112,0.075,0.231,0.074,0.357c-0.001,0.253-0.1,0.465-0.297,0.635c-0.195,0.17-0.463,0.254-0.806,0.252l-0.505-0.003l-0.003,0.554c-0.001,0.069,0.004,0.113,0.014,0.132c0.013,0.027,0.032,0.047,0.057,0.06c0.027,0.013,0.071,0.02,0.134,0.02l0.151,0.001l-0.003,0.409l-1.443-0.009l0.003-0.41l0.1,0.001c0.088,0.001,0.146-0.005,0.174-0.018c0.028-0.013,0.049-0.032,0.062-0.059c0.013-0.028,0.02-0.085,0.02-0.172l0.01-1.628c0-0.091-0.005-0.15-0.016-0.178c-0.011-0.03-0.029-0.051-0.055-0.064c-0.024-0.014-0.071-0.022-0.14-0.022l-0.142-0.001l0.003-0.409l0,0l1.564,0.009c0.198,0.001,0.362,0.023,0.492,0.065c0.131,0.04,0.243,0.102,0.336,0.185C342.229,209.237,342.301,209.335,342.351,209.448z M341.655,209.803c0.001-0.136-0.051-0.244-0.155-0.323c-0.077-0.06-0.193-0.09-0.345-0.091l-0.329-0.002v0l-0.005,0.84l0.253,0.002c0.154,0.001,0.267-0.014,0.34-0.045c0.072-0.032,0.131-0.081,0.175-0.145C341.632,209.972,341.654,209.893,341.655,209.803z M345.874,211.688l0.127,0.009l-0.028,0.409l-0.946-0.065l-0.861-1.338l-0.246-0.017l-0.041,0.589c-0.007,0.102-0.006,0.167,0.003,0.196c0.009,0.028,0.026,0.049,0.049,0.065c0.025,0.014,0.074,0.024,0.149,0.029l0.135,0.009l-0.028,0.409l-1.444-0.1l0.028-0.409l0.131,0.009c0.069,0.005,0.118,0.001,0.148-0.011c0.031-0.013,0.054-0.035,0.07-0.063c0.008-0.016,0.015-0.069,0.022-0.158l0.115-1.662c0.004-0.065,0.002-0.111-0.007-0.139c-0.008-0.029-0.024-0.048-0.047-0.059c-0.033-0.018-0.071-0.028-0.115-0.031l-0.059-0.002l-0.11-0.008l0.029-0.421l0,0l1.821,0.125c0.117,0.008,0.244,0.027,0.381,0.058c0.138,0.031,0.261,0.086,0.367,0.166c0.108,0.08,0.189,0.177,0.244,0.291c0.055,0.114,0.077,0.241,0.067,0.379c-0.015,0.224-0.108,0.401-0.279,0.53c-0.169,0.127-0.364,0.205-0.586,0.232l0.559,0.749l0.023,0.033c0.036,0.051,0.07,0.089,0.101,0.115c0.031,0.025,0.062,0.043,0.094,0.055C345.771,211.676,345.816,211.684,345.874,211.688z M344.776,210.264c0.088-0.027,0.156-0.068,0.202-0.124c0.048-0.056,0.075-0.127,0.081-0.211c0.005-0.078-0.011-0.145-0.048-0.203c-0.036-0.059-0.09-0.105-0.163-0.137c-0.072-0.032-0.191-0.054-0.359-0.065l-0.487-0.034v0l-0.053,0.764l0.438,0.03C344.56,210.296,344.69,210.289,344.776,210.264z M347.606,210.003c0.01-0.081,0.022-0.136,0.037-0.162c0.016-0.028,0.037-0.047,0.062-0.057c0.027-0.011,0.078-0.012,0.154-0.003l0.131,0.016l0.049-0.407l-1.432-0.174l0,0l-0.049,0.407l0.131,0.016c0.076,0.009,0.123,0.021,0.141,0.034c0.026,0.019,0.043,0.044,0.051,0.075c0.009,0.03,0.008,0.09-0.003,0.181l-0.198,1.633c-0.009,0.077-0.022,0.128-0.038,0.154c-0.014,0.024-0.035,0.041-0.062,0.05c-0.027,0.008-0.081,0.007-0.164-0.003l-0.116-0.014l-0.049,0.407l1.432,0.174l0.049-0.407l-0.156-0.019c-0.059-0.007-0.102-0.021-0.13-0.041c-0.023-0.014-0.037-0.034-0.044-0.061c-0.007-0.026-0.005-0.084,0.006-0.172L347.606,210.003z M350.913,212.404c0.033,0.034,0.099,0.059,0.198,0.075l-0.07,0.404l-1.38-0.238l0.07-0.404l0.084,0.012c0.077,0.013,0.132,0.013,0.166-0.002c0.034-0.016,0.054-0.038,0.059-0.067c0.004-0.025,0-0.079-0.013-0.162l-0.04-0.28l-0.889-0.153l-0.16,0.276c-0.033,0.059-0.051,0.098-0.055,0.118c-0.004,0.022,0,0.044,0.013,0.065c0.014,0.021,0.038,0.039,0.073,0.053c0.023,0.01,0.088,0.024,0.195,0.042l-0.07,0.404l-1.129-0.195l0.07-0.404c0.072,0.013,0.127,0.015,0.162,0.009c0.036-0.007,0.066-0.021,0.091-0.042c0.027-0.021,0.059-0.064,0.097-0.128l1.298-2.143l0.655,0.113l0.487,2.403C350.852,212.289,350.881,212.37,350.913,212.404z M349.906,211.3l-0.146-0.852l-0.438,0.751h0L349.906,211.3z M353.491,212.274l-0.059-1.872l-1.299-0.326v0l-0.1,0.397l0.156,0.039c0.053,0.013,0.091,0.03,0.112,0.05c0.021,0.02,0.034,0.047,0.039,0.08c0.004,0.024-0.003,0.074-0.022,0.148l-0.404,1.609c-0.019,0.075-0.039,0.126-0.06,0.151c-0.019,0.024-0.044,0.04-0.075,0.047c-0.029,0.006-0.08,0-0.153-0.019l-0.115-0.029l-0.1,0.397l1.175,0.295l0.1-0.397l-0.138-0.035c-0.059-0.015-0.101-0.031-0.125-0.049c-0.023-0.019-0.039-0.041-0.049-0.067c-0.008-0.025-0.007-0.058,0.003-0.098l0.438-1.745l0.099,2.473l0.397,0.1l1.297-2.203l-0.443,1.766c-0.017,0.069-0.036,0.114-0.056,0.137c-0.019,0.022-0.043,0.035-0.074,0.041c-0.031,0.005-0.085-0.002-0.163-0.021l-0.107-0.027l-0.1,0.397l1.381,0.347l0.1-0.397l-0.163-0.041c-0.049-0.012-0.087-0.031-0.113-0.055c-0.019-0.016-0.031-0.04-0.037-0.071c-0.004-0.02,0.003-0.065,0.021-0.137l0.409-1.63c0.022-0.089,0.052-0.146,0.089-0.17c0.038-0.025,0.096-0.028,0.173-0.009l0.142,0.036l0.1-0.397l-1.321-0.332L353.491,212.274z M359.796,213.99c-0.241,0.094-0.522,0.083-0.844-0.035l-0.474-0.173l-0.19,0.52c-0.024,0.065-0.034,0.108-0.031,0.129c0.003,0.03,0.014,0.055,0.033,0.076c0.021,0.021,0.061,0.042,0.119,0.064l0.142,0.052l-0.141,0.385l-1.355-0.495l0.141-0.385l0.094,0.034c0.082,0.03,0.139,0.044,0.17,0.042s0.057-0.014,0.078-0.035c0.022-0.022,0.047-0.074,0.077-0.155l0.559-1.529c0.031-0.085,0.046-0.143,0.045-0.173c0-0.032-0.01-0.058-0.03-0.079c-0.018-0.022-0.059-0.044-0.124-0.068l-0.134-0.049l0.141-0.385v0l1.469,0.537c0.186,0.068,0.333,0.144,0.441,0.227c0.11,0.082,0.195,0.178,0.254,0.287c0.061,0.11,0.096,0.226,0.105,0.35c0.009,0.122-0.007,0.243-0.051,0.361C360.203,213.731,360.038,213.896,359.796,213.99z M359.529,212.873c-0.053-0.083-0.151-0.15-0.294-0.202l-0.309-0.113l-0.288,0.789l0.237,0.087c0.145,0.053,0.256,0.077,0.335,0.073c0.079-0.006,0.15-0.032,0.214-0.078c0.064-0.047,0.112-0.114,0.143-0.199C359.612,213.103,359.6,212.984,359.529,212.873z M363.391,214.053c0.074,0.112,0.118,0.231,0.13,0.357c0.012,0.126-0.01,0.253-0.066,0.379c-0.091,0.206-0.239,0.34-0.443,0.403c-0.202,0.062-0.412,0.068-0.63,0.018l0.27,0.895l0.01,0.039c0.017,0.06,0.035,0.108,0.055,0.143c0.021,0.034,0.044,0.062,0.07,0.084s0.065,0.045,0.118,0.069l0.116,0.052l-0.166,0.375l-0.867-0.384l-0.353-1.551l-0.225-0.1l-0.239,0.539c-0.041,0.093-0.062,0.155-0.063,0.185c0,0.029,0.007,0.055,0.024,0.078c0.018,0.022,0.062,0.048,0.13,0.078l0.124,0.055l-0.166,0.375l-1.323-0.586l0.166-0.375l0.12,0.053c0.063,0.028,0.111,0.041,0.142,0.04c0.033-0.002,0.063-0.014,0.088-0.035c0.013-0.013,0.038-0.06,0.074-0.141l0.674-1.523c0.026-0.06,0.04-0.104,0.04-0.133c0.002-0.03-0.006-0.054-0.024-0.071c-0.025-0.028-0.057-0.051-0.097-0.069l-0.055-0.022l-0.101-0.045l0.171-0.386v0l1.669,0.738c0.107,0.047,0.22,0.109,0.338,0.185C363.222,213.849,363.318,213.942,363.391,214.053z M362.765,214.3c-0.013-0.068-0.049-0.129-0.107-0.184c-0.056-0.054-0.162-0.116-0.315-0.184l-0.446-0.197l-0.31,0.701l0.402,0.178c0.158,0.07,0.282,0.108,0.372,0.114c0.092,0.005,0.169-0.011,0.232-0.048c0.064-0.037,0.113-0.094,0.148-0.171C362.772,214.437,362.78,214.368,362.765,214.3z M366.791,216.024c0.123,0.389,0.079,0.782-0.131,1.178c-0.142,0.266-0.326,0.471-0.553,0.614c-0.227,0.144-0.474,0.216-0.741,0.219c-0.265,0.001-0.544-0.076-0.836-0.231c-0.386-0.205-0.645-0.48-0.778-0.823c-0.161-0.414-0.128-0.835,0.1-1.264c0.212-0.398,0.515-0.655,0.91-0.771c0.396-0.115,0.804-0.06,1.225,0.164v0C366.401,215.331,366.669,215.635,366.791,216.024z M366.118,216.254c0.016-0.172-0.007-0.32-0.071-0.444s-0.155-0.217-0.274-0.28c-0.199-0.106-0.396-0.115-0.593-0.029c-0.247,0.109-0.449,0.311-0.607,0.607c-0.158,0.296-0.213,0.567-0.168,0.812c0.04,0.211,0.158,0.368,0.353,0.471c0.196,0.104,0.392,0.114,0.588,0.029c0.232-0.102,0.427-0.301,0.584-0.596C366.04,216.618,366.103,216.427,366.118,216.254z M368.129,219.323c-0.006-0.022-0.006-0.046,0.002-0.071s0.038-0.081,0.091-0.166l0.9-1.444c0.031-0.049,0.056-0.077,0.075-0.084c0.02-0.008,0.044-0.003,0.073,0.015c0.061,0.038,0.111,0.096,0.15,0.173c0.051,0.102,0.082,0.217,0.091,0.344c0.005,0.065-0.001,0.193-0.018,0.386l0.408,0.092l0.237-1.075l-0.24-0.149l-0.083,0.066l-1.417-0.883l0.028-0.1l-0.238-0.148l0,0l-0.859,0.688l0.257,0.322c0.175-0.106,0.284-0.169,0.329-0.187c0.113-0.048,0.223-0.071,0.329-0.07s0.19,0.021,0.253,0.06c0.031,0.019,0.048,0.038,0.051,0.054s-0.009,0.046-0.035,0.088l-0.92,1.477c-0.051,0.082-0.091,0.132-0.119,0.151c-0.028,0.018-0.056,0.025-0.086,0.021c-0.029-0.005-0.084-0.032-0.166-0.083l-0.074-0.046l-0.217,0.348l1.225,0.763l0.217-0.348c-0.109-0.068-0.175-0.112-0.198-0.131C368.151,219.365,368.136,219.344,368.129,219.323z M372.575,220.468l0.27-0.957l-2.009-1.437l-0.238,0.333l0.107,0.077c0.061,0.044,0.098,0.079,0.11,0.105c0.013,0.025,0.017,0.052,0.01,0.08c-0.005,0.029-0.033,0.08-0.084,0.151l-0.939,1.311c-0.058,0.081-0.096,0.127-0.114,0.141c-0.032,0.021-0.066,0.027-0.102,0.018c-0.036-0.008-0.094-0.041-0.175-0.099l-0.06-0.043l-0.238,0.333l2.081,1.489l0.956-0.668l-0.238-0.335c-0.138,0.101-0.283,0.171-0.434,0.209c-0.149,0.038-0.291,0.042-0.426,0.011c-0.134-0.032-0.276-0.101-0.427-0.209l-0.202-0.144c-0.055-0.04-0.089-0.069-0.101-0.088c-0.011-0.018-0.015-0.036-0.012-0.053c0.003-0.017,0.026-0.055,0.068-0.113l0.395-0.552l0.109,0.078c0.099,0.071,0.159,0.122,0.179,0.154c0.021,0.032,0.027,0.07,0.02,0.114c-0.006,0.045-0.034,0.102-0.084,0.172l-0.074,0.104l0.307,0.22l0.729-1.018l-0.307-0.22l-0.065,0.091c-0.06,0.084-0.107,0.135-0.142,0.154c-0.034,0.018-0.071,0.022-0.113,0.013c-0.04-0.01-0.106-0.047-0.197-0.112l-0.121-0.086l0.43-0.601l0.368,0.263c0.114,0.081,0.204,0.165,0.271,0.252c0.069,0.086,0.111,0.192,0.127,0.318c0.017,0.127,0.008,0.271-0.029,0.434L372.575,220.468z M370.836,218.074L370.836,218.074L370.836,218.074L370.836,218.074z M374.706,223.401c0.028-0.014,0.056-0.018,0.083-0.011c0.029,0.007,0.071,0.033,0.125,0.078l0.084,0.069l0.262-0.32l-1.117-0.917l-0.262,0.32l0.13,0.106c0.059,0.048,0.094,0.086,0.106,0.112c0.013,0.027,0.016,0.056,0.01,0.088c-0.005,0.022-0.031,0.061-0.079,0.119l-0.069,0.084c-0.055,0.067-0.111,0.109-0.17,0.127c-0.059,0.018-0.136,0.013-0.233-0.013c-0.096-0.026-0.183-0.071-0.262-0.135c-0.112-0.092-0.188-0.207-0.229-0.347c-0.04-0.141-0.035-0.301,0.016-0.481c0.052-0.179,0.152-0.359,0.3-0.539c0.135-0.164,0.275-0.282,0.422-0.354c0.148-0.073,0.291-0.103,0.43-0.089c0.14,0.014,0.262,0.064,0.366,0.149c0.073,0.06,0.134,0.139,0.183,0.235c0.05,0.098,0.08,0.201,0.089,0.309c0.011,0.109-0.001,0.289-0.034,0.54l0.383,0.149l0.415-0.927l-0.23-0.188l-0.144,0.052c-0.036-0.101-0.094-0.205-0.174-0.313c-0.078-0.108-0.167-0.203-0.268-0.286c-0.208-0.171-0.443-0.278-0.706-0.321c-0.261-0.044-0.513-0.018-0.758,0.078c-0.244,0.096-0.458,0.257-0.642,0.481c-0.186,0.226-0.304,0.472-0.354,0.736c-0.049,0.265-0.03,0.519,0.059,0.762c0.088,0.243,0.237,0.45,0.446,0.621c0.119,0.098,0.248,0.175,0.386,0.232c0.138,0.057,0.287,0.093,0.445,0.11l-0.048,0.235l0.336,0.276l0.588-0.717C374.641,223.45,374.679,223.413,374.706,223.401z M376.853,226.238c0.009,0.047,0.05,0.104,0.124,0.171l-0.28,0.299l-1.023-0.956l0.28-0.299l0.063,0.056c0.057,0.053,0.103,0.083,0.14,0.09c0.037,0.006,0.066-0.002,0.086-0.024c0.017-0.019,0.043-0.066,0.078-0.142l0.12-0.256l-0.659-0.616l-0.285,0.143c-0.06,0.031-0.097,0.054-0.11,0.068c-0.015,0.017-0.024,0.037-0.025,0.061c0,0.025,0.01,0.053,0.031,0.084c0.014,0.021,0.06,0.068,0.14,0.142l-0.28,0.299l-0.837-0.782l0.28-0.299c0.054,0.05,0.097,0.082,0.131,0.096s0.067,0.019,0.1,0.015c0.034-0.003,0.084-0.021,0.151-0.053l2.26-1.08l0,0l0.485,0.453l-0.91,2.277C376.865,226.108,376.845,226.192,376.853,226.238z M376.961,223.97l-0.778,0.388l0.433,0.404L376.961,223.97z M380.674,226.444l-0.097,0.043l-1.151-1.21l0.052-0.09l-0.193-0.203h0l-1.003,0.451l0.168,0.376c0.196-0.059,0.318-0.092,0.366-0.099c0.122-0.018,0.233-0.013,0.336,0.014c0.102,0.028,0.179,0.068,0.23,0.121c0.025,0.027,0.037,0.048,0.036,0.065c-0.001,0.017-0.02,0.043-0.056,0.077l-1.26,1.2c-0.07,0.066-0.121,0.105-0.153,0.116c-0.031,0.01-0.061,0.01-0.089-0.001c-0.027-0.012-0.073-0.052-0.14-0.122l-0.06-0.063l-0.297,0.282l0.995,1.045l0.297-0.282c-0.089-0.093-0.142-0.152-0.159-0.177c-0.016-0.025-0.025-0.049-0.027-0.071c0-0.023,0.006-0.046,0.02-0.069c0.014-0.023,0.057-0.069,0.129-0.138l1.233-1.173c0.042-0.04,0.073-0.061,0.093-0.062c0.021-0.003,0.043,0.009,0.067,0.033c0.05,0.052,0.084,0.121,0.102,0.205c0.024,0.112,0.025,0.23,0.002,0.356c-0.012,0.064-0.05,0.187-0.114,0.369l0.372,0.191l0.499-0.981L380.674,226.444z" />
  </g>
</svg>
