<svg xmlns="http://www.w3.org/2000/svg" width="450px" height="300px" viewBox="0 0 450 300">
  <path fill="#4997D0" d="M0,0h450v300H0V0z" />
  <path fill="#FFFFFF" d="M150,0h150v300H150V0z" />
  <g>
    <g>
      <path fill="none" stroke="#24420E" stroke-width="0.2048" d="M211.9,186.3c1.2-0.2,2-0.5,2.8-0.8 M215.8,183.6c0.6,0.7,1.1,1.4,1.4,2.2 M213.4,183.4c0.7,0.6,1.1,1.3,1.5,1.9 M191.6,121.3c-0.5,0.8-1.4,1.3-2.2,1.6 M189.2,122.8c0-0.6-0.1-1.4,0-2.1 M188.3,123.1c0.1,0.2,0.2,0.7,0.3,0.9 M189.6,124.5c-0.2,0-0.7,0.1-0.9,0.2 M186.8,124.2c0,1.2,0.1,2.6,0.2,3.7 M186.2,127.4c0.2,0.3,0.4,0.7,0.7,0.9 M184.8,131.4c0.2,0.4,0.4,1,0.6,1.9 M187.1,131.1c-0.2,0.1-0.6,0.4-0.9,0.7 M187,133.8c-0.5,0.4-1,0.7-1.6,1 M183.6,153.8c0.5,0.9,1.1,1.7,1.9,2.2 M185.7,156.8c-0.6-0.1-1-0.3-1.4-0.4 M186.4,160.2l0.8,0.4 M187,162.3c0.6,0.4,1.2,1.1,1.8,1.8 M188.1,165.5c0.6,0.1,1.2,0.3,1.5,0.5 M189.1,167.1h1 M190.6,164.6c-0.1,0.7-0.1,1.4-0.2,2 M190.9,167.4l0.2-0.8 M193.3,169.4l-0.1,1.5 M211.6,184l-0.5,0.8 M209.9,182.9l-0.3-0.9 M263,130.8c0.3,0.3,0.5,0.4,1.1,0.9 M261,122.8c0-0.6-0.3-1.7-0.4-2.3 M262.2,121.8c0,0.9-0.1,1.8-0.5,2.6 M259.8,124.2c0.8,0.7,1.6,1.4,2.5,1.8 M264,126.6c0,0.9-0.1,1.9-0.3,2.8 M263.8,130.1l0.6-1.1 M263.6,134.7c0.7,0.1,1.3,0.9,1.6,1.6 M265.4,135.8l0.8-1 M267,149.1c-0.4,0.6-0.7,1.1-1.1,1.6 M264,150.7c0.4,0.7,0.7,1.4,1.2,1.9 M266.4,155.4c-0.6,0.8-1.3,1.5-2.1,1.9 M264.4,159.4c-0.5,0.4-1.1,1.4-1.7,2.2 M266.6,152.1l-1,0.4 M264.9,149l0.6,0.5 M261.2,167.1c-0.4-0.1-0.7,0-1,0 M259.2,166.2l0.3,0.8 M255.9,169.4c-0.1,0.9,0,1.8,0.1,2.6 M258,167.8l0.5,1.1 M260.3,168.7l-1.2,0.2 M244.6,180.8l-0.4,0.8 M249.8,179.7c-0.7,0.1-1.3,0-1.9-0.1 M245.3,182.4c-0.4-0.2-0.9-0.3-1.4-0.4 M237,183.2c-0.4,0.4-0.9,1.1-1.4,1.9 M235.3,183c-1.1,0.6-1.5,1.7-2.1,2.7 M234.6,187.1c-0.7-0.2-1.6-0.6-2.5-1 M239.9,185.8c-1.1-0.6-2.2-0.5-3.3-0.7 M241.6,184.9c-1.7-0.3-3.3-0.3-4.8-0.1 M240.4,183.6l-0.7-0.3 M237.2,185.9l-1.1-0.6 M263.3,162.3c-0.6,0.4-1.2,1.1-1.8,1.8 M262.4,126.8l-1-0.3" />
      <path fill="#406325" stroke="#24420E" stroke-width="0.0769" d="M227.9,189.8c-0.4-0.6-1-0.9-1.5-1.2c-3.6-1.9-7.2-2.7-11.3-3.4c-0.9-0.2-1.9-1-2.9-1.5c-2.3-1.1-4.9-1.5-7.2-2.7c-0.1-0.1-0.7-0.4-1-0.7c-0.9-1-2.5-1.4-3.5-2.3c-3.9-3.7-8.1-7.1-10.2-12c-2.6-5.9-5.9-12.1-5.4-18.9c0.3-4.3-0.4-8.6,0.7-12.7c1.6-6,3.6-12,7.2-17l-0.6,0.4c-3.7,5-5.7,11-7.2,17c-1.1,4.1-0.4,8.4-0.7,12.7c-0.4,6.8,2.8,12.9,5.4,18.9c2.1,4.9,6.3,8.3,10.2,12c1,0.9,2.6,1.3,3.5,2.3c0.3,0.3,0.9,0.7,1,0.7c2.3,1.1,4.9,1.6,7.2,2.6c1,0.5,1.9,1.3,2.9,1.5c4.1,0.7,7.7,1.5,11.3,3.4c0.6,0.3,1.2,0.7,1.5,1.2L227.9,189.8" />
      <path fill="#67923D" stroke="#24420E" stroke-width="0.0769" d="M190.4,153.8c3.1,6.1,2.1,11.1,0.1,11C189.2,161.9,189.8,154.7,190.4,153.8z M201.7,191.4c7.1,0.1,11.3-3.4,10.2-5.3C208.7,186.3,202.3,190.4,201.7,191.4z M208.9,171.7c0,0.7,0.8,3.1,2.1,5.7c-1.3-1.4-3.1-2.7-5.3-4c0.1,1.2,4.2,8.7,7.5,10.7c0.6-0.3,0.8-1,0.6-1.9c0.6,0.8,1.2,1.4,1.7,1.9C217.8,183,216,176.7,208.9,171.7z M193,169.6c1.8,0.1,2.8-4.4,0.2-9.8C192.7,160.5,191.9,166.9,193,169.6z M205.8,180.9c0.5-3.7-2.7-11.4-3.6-12.2C200.9,176.5,203.7,181.7,205.8,180.9z M209.5,183.2c-4,0.2-11.5,5.2-12.2,6.4C205.7,189.7,210.7,185.5,209.5,183.2z M175.8,157.3c0.7,0.8,7.5,3.5,10.7,3C187.2,158.3,182.6,155.9,175.8,157.3z M185.5,155.8c1.4,0.9,4.3-2.2,4.9-7.8C189.5,148.4,185.9,153.2,185.5,155.8z M196.5,165.1c-0.3,1.2,1.1,9.5,3.4,12.4C202.2,176.9,201.8,170.9,196.5,165.1z M195,121.5c-1.2,0.4-7.1,6-8.1,9.4c0.4,0.4,1,0.4,1.7,0.2c-0.9,0.8-1.6,1.6-2,2.4c1.4,1.8,6.7-0.6,9.8-7.5c-0.6,0-2.6,1.1-4.6,2.5C193.1,126.9,194.3,124.6,195,121.5z" />
      <path fill="#406325" stroke="#24420E" stroke-width="0.0769" d="M175.9,147.3c1,0.1,6.6,3.8,7.9,6.4C182.8,155.2,178.5,153.1,175.9,147.3z M188.2,165.4c-2.3-1.7-8.9-2.5-9.8-2.2C183.2,167,187.9,167.1,188.2,165.4z M190.4,153.8c0.6,5.8,0.6,10.5,0.1,11C192.5,164.8,193.5,159.9,190.4,153.8z M187.2,124.4c1.2-3.1,0.3-10.5-0.2-11.5C184,119.3,185.2,124.6,187.2,124.4z M185.1,131.4c0.4-3.6-2.6-11-3.4-11.8C180.3,127.1,183,132.1,185.1,131.4z M184.3,149.3c-0.5-3.8-5.8-10.6-6.9-11.2C178.1,146.1,182.3,150.6,184.3,149.3z M195.8,174.1c-2.1-2.6-9.1-5.3-10.2-5.2C189.7,174.6,194.9,176,195.8,174.1z M205.8,180.9c-0.6-0.4-2.2-5.6-3.5-12.1C200.9,176.5,203.6,181.6,205.8,180.9z M189.6,120.8c1.5-2.2,2-8.3,1.6-9.1C187.8,116.3,187.9,120.6,189.6,120.8z M208.9,171.7c4,6.2,6.8,11.5,6.6,12.4C217.7,183,216,176.7,208.9,171.7z M201.8,191.4c7.1,0.1,11.2-3.4,10.2-5.3C211.7,186.8,207.4,189.1,201.8,191.4z M184.8,138.2c-0.1-0.3-0.8-4.2-4.7-8.6C180.3,136.6,183,139.2,184.8,138.2z M200.1,178.4c-2.9-2.1-11-3.2-12.1-2.8C193.9,180.5,199.7,180.6,200.1,178.4z M184.8,138.2L184.8,138.2C184.8,138.3,184.8,138.3,184.8,138.2z M192.4,118c2.1-1.6,4.3-7.3,4.3-8.2C192,113.1,190.9,117.2,192.4,118z M193.2,159.7c0.3,5.2,0.2,9.4-0.2,9.8C194.8,169.6,195.8,165.2,193.2,159.7z M186.6,133.6c1.4,1.8,6.6-0.6,9.8-7.5C191.6,130.5,187.3,133.6,186.6,133.6z M205.6,173.4c4.4,5.2,7.5,9.8,7.5,10.6C215.1,182.8,212.8,177.3,205.6,173.4z M196.6,165.1c2.4,6.3,3.8,11.6,3.4,12.3C202.2,176.8,201.8,170.9,196.6,165.1z M209.5,183.3c-0.3,0.8-5.5,3.6-12.2,6.3C205.8,189.7,210.7,185.6,209.5,183.3z M185.5,155.8c1.4,0.9,4.3-2.2,4.8-7.8C188.2,152.3,186,155.6,185.5,155.8z M195.1,121.6c-3.8,5.3-7.3,9.3-8.1,9.4C188.7,132.4,193.3,128.9,195.1,121.6z M187.2,162.3c-0.3-0.8-1-1.7-1.8-2.6c0.6,0.2,1,0.4,1.1,0.6c0.4-1.2-1.1-2.5-3.7-3.1c-1.6-1.3-3-2.2-3.5-2.3c0.3,0.7,0.6,1.4,0.9,2c-1.3,0-2.8,0.1-4.4,0.4c1.9,0.3,3.7,0.7,5.2,1.1C183.3,162.2,186.2,163.5,187.2,162.3z" />
      <path fill="#67923D" stroke="#24420E" stroke-width="0.0769" d="M181.7,119.7c1.2,6.3,2.8,11.3,3.4,11.7C183,132.1,180.3,127.1,181.7,119.7z M187.2,124.4c-0.5-0.5-0.6-5.4-0.2-11.4C184,119.3,185.2,124.5,187.2,124.4z M189.5,120.8c-0.3-0.5,0.4-4.4,1.6-9.1C187.8,116.3,187.9,120.6,189.5,120.8z M192.3,118c-0.1-0.5,1.6-4.1,4.2-8.1C192,113.1,190.9,117.2,192.3,118z M195.7,174.1c-0.7,0.2-5-2-10.2-5.2C189.8,174.6,194.8,176,195.7,174.1z M184.3,149.3c-0.8-0.2-3.8-5-6.9-11.2C178.1,146.1,182.3,150.6,184.3,149.3z M183.8,153.7c-0.6,0-4-2.7-7.9-6.4C178.5,153.1,182.7,155.2,183.8,153.7z M188.2,165.4c-0.5,0.3-4.8-0.6-9.8-2.2C183.2,167.1,187.9,167.1,188.2,165.4z M196.2,174c1.6-0.5,1.1-4.9-3.2-9C192.9,165.9,194.4,172,196.2,174z M188,175.7c5.9,4.8,11.6,4.9,12,2.8C199.4,178.8,194.2,177.7,188,175.7z M187,151.5c-0.5,1-0.3,8,1.4,10.8C190.4,162.1,190.8,157.1,187,151.5z M184.5,138.3c1.5,0.8,5.4-0.6,8.6-4.7c-1-0.1-6.9,1.8-9,4c-0.8-1.2-2.2-3.8-4-7.9C180.3,136.3,182.8,139,184.5,138.3z M179.2,154.9c2.3,6.4,6.6,9,7.9,7.4C186.4,162.3,183,159.2,179.2,154.9z" />
      <path fill="#406325" stroke="#24420E" stroke-width="0.0769" d="M193.1,133.6c-3.3,4.2-7.2,5.5-8.6,4.7c0.6,2.5,0.9,5.6,0.4,7.8c-2.1,0.5-4.2-4.8-2-12c0.5,0.6,1.1,2,1.5,3.7C185.7,137.9,188,136.5,193.1,133.6z M188.3,162.2c2-0.2,2.5-5.2-1.4-10.7C188.2,157.1,188.7,161.7,188.3,162.2z M193.1,165c2.1,4.6,3.4,8.4,3.1,9C197.9,173.5,197.3,169.1,193.1,165z" />
      <path fill="#67923D" stroke="#24420E" stroke-width="0.0769" d="M184.6,147.1c-2.8,0.6-4.1-5.6-1.9-12.7C183.2,140.7,184.1,146.6,184.6,147.1z" />
      <path fill="#67923D" stroke="#24420E" stroke-width="0.0769" d="M184.1,147.1c-0.3-3.5,3.2-10.8,4.2-11.6C189.2,142.9,186.2,147.8,184.1,147.1z" />
      <path fill="#406325" stroke="#24420E" stroke-width="0.0769" d="M184.1,147c2.1,0.8,5.1-4.1,4.1-11.5C186.6,141.7,184.8,146.6,184.1,147z" />
      <path fill="#67923D" stroke="#24420E" stroke-width="0.0769" d="M184.8,151.5c0-3.6,4-10.4,4.9-11.1C190.1,148,186.7,152.6,184.8,151.5z" />
      <path fill="#406325" stroke="#24420E" stroke-width="0.0769" d="M184.8,151.6c2,1,5.3-3.4,4.9-11C187.6,146.6,185.4,151.3,184.8,151.6z" />
      <path fill="#406325" stroke="#24420E" stroke-width="0.0769" d="M222.4,189.8c0.4-0.6,1-0.9,1.5-1.2c3.6-1.9,7.2-2.7,11.3-3.4c0.9-0.2,1.9-1,2.9-1.5c2.3-1.1,4.9-1.5,7.2-2.7c0.1-0.1,0.7-0.4,1-0.7c0.9-1,2.5-1.4,3.5-2.3c3.9-3.7,8.1-7.1,10.2-12c2.6-5.9,5.9-12.1,5.4-18.9c-0.3-4.3,0.4-8.6-0.7-12.7c-1.6-6-3.6-12-7.2-17l0.6,0.4c3.7,5,5.7,11,7.2,17c1,4.1,0.4,8.4,0.7,12.7c0.4,6.8-2.8,12.9-5.4,18.9c-2.1,4.9-6.3,8.3-10.2,12c-1,0.9-2.6,1.3-3.5,2.3c-0.3,0.3-0.9,0.7-1,0.7c-2.3,1.1-4.9,1.6-7.2,2.6c-1,0.5-1.9,1.3-2.9,1.5c-4.1,0.7-7.7,1.5-11.3,3.4c-0.6,0.3-1.2,0.7-1.5,1.2L222.4,189.8" />
      <path fill="#406325" stroke="#24420E" stroke-width="0.0769" d="M258.8,153.6c0.7,1,2,9.2,0.7,12.6C257.3,166.5,255.7,160.8,258.8,153.6z M256.2,169.5c1.1-2.6,0.3-9.1-0.2-9.8C253.4,165.1,254.4,169.6,256.2,169.5z M264.1,134.8c-1.5-2.9-7.9-6.8-9-6.8C258,134.2,262.8,136.4,264.1,134.8z M263.3,131c-0.8-2.8-5.8-7.5-6.8-7.8C258,129.3,261.9,132.2,263.3,131z M265.5,138c-1.7-1.9-7.1-3.7-8-3.6C260.8,138.6,264.9,139.5,265.5,138z M260.4,148.7c-0.3,5.6,2.3,9.1,3.7,8.4C264.1,154.4,261.2,149.2,260.4,148.7z M264.2,159.7c2.9,0.5,8.9-1.9,9.5-2.6C267.7,155.8,263.7,157.9,264.2,159.7z M239.6,185.9c2.1,2.6,9.2,5.2,10.4,5.1C245.8,185.3,240.5,184,239.6,185.9z M259.4,139.6c-0.4,7.6,3,12.1,5,11.1C264.4,147.1,260.4,140.3,259.4,139.6z" />
      <path fill="#67923D" stroke="#24420E" stroke-width="0.0769" d="M234.5,182.9c1-3.7,7-9.9,8.2-10.4C241,180.5,236.2,184.5,234.5,182.9z M272,140.3c-0.9,0.5-5,5.9-5.4,8.9C268.1,150.1,271.5,146.6,272,140.3z M248,168.7c-0.9,0.8-4,8.5-3.6,12.2C246.6,181.6,249.4,176.4,248,168.7z M259.5,166.1c-0.5-0.5-0.9-5.9-0.7-12.6C255.7,160.8,257.2,166.4,259.5,166.1z M234.5,186.6c-1,1.9,3.2,5.4,10.2,5.3C244.1,191,237.8,186.8,234.5,186.6z M254.5,174.1c0.9,1.9,6,0.4,10.2-5.2C263.6,168.8,256.6,171.5,254.5,174.1z M261.9,112.6c-0.5,0.8-1,6.9,0,9.4C263.7,122,264.5,117.7,261.9,112.6z M255.1,110.6c-0.1,1.1,2.4,8.2,4.9,10.4C261.9,120.1,260.6,114.9,255.1,110.6z M261.1,167c0.4,2,5.9,2,11.4-2.6C271.5,164,263.8,165,261.1,167z M269.9,122.8c-0.9,0.7-4.7,7.8-4.7,11.4C267.2,135,270.4,130.3,269.9,122.8z M274.2,148.7c-1,0.1-6.9,4-8.3,6.8C267.1,157.1,271.5,154.8,274.2,148.7z M265.4,137.1c1.5,1.4,4.8-0.5,6.7-7.2C267.2,133.2,265.6,136.9,265.4,137.1z M265.4,137.1L265.4,137.1C265.4,137.2,265.4,137.1,265.4,137.1z M265.6,138c-1.1,0.3-3.1-0.8-7.9-3.6C260.9,138.7,264.9,139.5,265.6,138z M264.3,159.7c0.3-0.5,4.4-1.7,9.5-2.6C267.8,155.8,263.7,157.9,264.3,159.7z M249.5,179.3c0.5,2.5,7,2.4,13.7-3.1C261.9,175.7,252.7,176.8,249.5,179.3z M256.2,169.5c-0.4-0.5-0.6-4.7-0.2-9.8C253.4,165.2,254.4,169.6,256.2,169.5z M264.1,134.8c-0.7,0.1-4.6-2.8-9-6.8C258,134.2,262.8,136.5,264.1,134.8z M264.1,157.1c-0.5-0.2-2.1-3.8-3.7-8.4C260.2,154.3,262.7,157.8,264.1,157.1z M256.5,123.2c1.5,6.1,5.3,9,6.8,7.8C262.6,130.9,259.7,127.6,256.5,123.2z M239.6,185.9c0.7-0.2,5.2,1.9,10.3,5.1C245.8,185.3,240.6,184,239.6,185.9z M259.4,139.7c-0.4,7.6,2.9,12.1,4.9,11C263.7,150.4,261.5,145.7,259.4,139.7z" />
      <path fill="#406325" stroke="#24420E" stroke-width="0.0769" d="M272.1,129.9c-1.9,6.7-5.2,8.6-6.6,7.2C266.2,137.1,268.5,134.7,272.1,129.9z M262,121.9c1.7,0,2.5-4.2-0.1-9.4C262.4,117.5,262.4,121.5,262,121.9z M269.9,122.8c-1.9,6.2-4,11-4.6,11.3C267.3,135,270.5,130.3,269.9,122.8z M260,120.9c1.9-0.8,0.6-6-4.9-10.3C258.2,115.8,260.2,120.2,260,120.9z M274.3,148.7c-4,3.9-7.6,6.8-8.3,6.7C267.1,157,271.5,154.8,274.3,148.7z M272,140.3c-2.5,4.9-4.8,8.6-5.4,8.8C268.2,150.1,271.5,146.6,272,140.3z M249.5,179.3c0.5,2.5,7,2.3,13.7-3.1C256.1,178.4,250.2,179.7,249.5,179.3z M254.5,174.1c0.9,1.8,6,0.4,10.2-5.2C259.6,172.1,255.2,174.3,254.5,174.1z M251.5,165.8c-1.5,2.1-2.5,4.1-3.1,6c0-0.9-0.1-1.9-0.3-3c-1.3,6.5-2.9,11.8-3.5,12.1c1.2,0.4,2.7-1.1,3.4-4.1c0.2,0.9,0.7,1.5,1.4,1.6C251.3,175.3,251.9,166.9,251.5,165.8z M261.1,167c0.4,2,5.8,2,11.4-2.6C266.7,166.3,261.7,167.3,261.1,167z M234.4,186.6c-1,1.9,3.1,5.4,10.2,5.3C239,189.6,234.7,187.3,234.4,186.6z M242.7,172.5c-3.8,5.8-7.4,10.2-8.2,10.3C236.3,184.4,241,180.5,242.7,172.5z M252.7,175.7c1.5-2.3,2-8.6,1.7-9.4C250.9,171,251,175.4,252.7,175.7z M261.9,162.3c1.7-2.7,1.8-9.8,1.4-10.8C259.4,157,259.9,162.1,261.9,162.3z" />
      <path fill="#67923D" stroke="#24420E" stroke-width="0.0769" d="M263.7,126.8c-1-2.8,0-9.4,0.6-10.2C266.7,122.3,265.5,126.9,263.7,126.8z M236.4,183.1c1.8,1.7,6.8-2.1,8.8-10.3C244,173.2,237.6,179.3,236.4,183.1z M249.3,178.4c-0.4-0.7,0.4-6.1,2.1-12.6C246.8,172.1,247,178.1,249.3,178.4z M268.9,135.8c-1.2,1.1-3.5,6.9-3.1,10.6C267.6,147,270.1,142.5,268.9,135.8z M262,163.6c1.3,1.5,5.7-1,8-7.4C268.9,156.3,263.2,160.7,262,163.6z M263.3,151.5c-3.9,5.5-3.4,10.5-1.4,10.7C261.5,161.6,262.1,157,263.3,151.5z M252.7,175.6c-0.3-0.5,0.3-4.5,1.7-9.4C250.9,171,251,175.4,252.7,175.6z" />
      <path fill="#406325" stroke="#24420E" stroke-width="0.0769" d="M265.8,147.2c2.4,0.9,4.3-4.6,3.1-11.2C267.7,141.6,266.4,146.9,265.8,147.2z" />
      <path fill="#406325" stroke="#24420E" stroke-width="0.0769" d="M266.1,147c0.3-3.5-3.2-10.8-4.2-11.6C261,142.8,264.1,147.8,266.1,147z M263.7,126.8c1.8,0.2,3-4.4,0.6-10.2C264.4,121.9,264.1,126.3,263.7,126.8z M236.5,183.1c1.8,1.7,6.7-2.1,8.8-10.2C241.1,178.6,237.3,182.9,236.5,183.1L236.5,183.1z M262.1,163.6c1.3,1.6,5.6-1,7.9-7.4C266.2,160.5,262.8,163.6,262.1,163.6z" />
      <path fill="#67923D" stroke="#24420E" stroke-width="0.0769" d="M266.1,147c-2.1,0.8-5.1-4.1-4.1-11.5C263.6,141.7,265.4,146.6,266.1,147z" />
      <path fill="#BA1F3E" stroke="#511124" stroke-width="0.1022" d="M186.5,127.1c0,0.3-0.2,0.5-0.5,0.5s-0.5-0.2-0.5-0.5s0.2-0.5,0.5-0.5S186.5,126.9,186.5,127.1z M189.9,123.7c-0.3,0-0.5,0.2-0.5,0.5s0.2,0.5,0.5,0.5s0.5-0.2,0.5-0.5C190.5,124,190.2,123.7,189.9,123.7z M188.7,122.7c0-0.3-0.2-0.5-0.5-0.5s-0.5,0.2-0.5,0.5s0.2,0.5,0.5,0.5S188.7,123,188.7,122.7z M184,155.6c-0.3,0-0.6,0.3-0.6,0.6s0.3,0.6,0.6,0.6s0.6-0.3,0.6-0.6S184.3,155.6,184,155.6z M185.2,148.1c-0.3,0-0.6,0.3-0.6,0.6s0.3,0.6,0.6,0.6s0.6-0.3,0.6-0.6S185.5,148.1,185.2,148.1z M191.4,165.6c-0.3,0-0.6,0.3-0.6,0.6s0.3,0.6,0.6,0.6s0.6-0.3,0.6-0.6S191.7,165.6,191.4,165.6z M188.6,166.5c-0.3,0-0.6,0.3-0.6,0.6s0.3,0.6,0.6,0.6s0.6-0.3,0.6-0.6C189.2,166.7,189,166.5,188.6,166.5z M209.4,181.1c-0.3,0-0.6,0.3-0.6,0.6s0.3,0.6,0.6,0.6s0.6-0.3,0.6-0.6C210,181.4,209.7,181.1,209.4,181.1z M210.8,184.4c-0.3,0-0.6,0.3-0.6,0.6s0.3,0.6,0.6,0.6s0.6-0.3,0.6-0.6C211.4,184.7,211.1,184.4,210.8,184.4z M264.7,129.4c0.3,0,0.5-0.2,0.5-0.5s-0.2-0.5-0.5-0.5s-0.5,0.2-0.5,0.5S264.4,129.4,264.7,129.4z M267,134.4c0-0.3-0.2-0.5-0.5-0.5s-0.5,0.2-0.5,0.5s0.2,0.5,0.5,0.5S267,134.7,267,134.4z M267.1,151.4c-0.3,0-0.6,0.3-0.6,0.6s0.3,0.6,0.6,0.6s0.6-0.3,0.6-0.6S267.4,151.4,267.1,151.4z M264.7,148.1c-0.3,0-0.6,0.3-0.6,0.6s0.3,0.6,0.6,0.6s0.6-0.3,0.6-0.6S265,148.1,264.7,148.1z M257.8,166.8c-0.3,0-0.6,0.3-0.6,0.6s0.3,0.6,0.6,0.6s0.6-0.3,0.6-0.6S258.1,166.8,257.8,166.8z M260.7,168.1c-0.3,0-0.6,0.3-0.6,0.6s0.3,0.6,0.6,0.6s0.6-0.3,0.6-0.6C261.3,168.4,261.1,168.1,260.7,168.1z M240.8,183.3c-0.3,0-0.6,0.3-0.6,0.6s0.3,0.6,0.6,0.6s0.6-0.3,0.6-0.6C241.4,183.5,241.2,183.3,240.8,183.3z M237.6,185.6c-0.3,0-0.6,0.3-0.6,0.6s0.3,0.6,0.6,0.6s0.6-0.3,0.6-0.6S237.9,185.6,237.6,185.6z M261.1,125.7c-0.3,0-0.5,0.2-0.5,0.5s0.2,0.5,0.5,0.5s0.5-0.2,0.5-0.5C261.6,125.9,261.4,125.7,261.1,125.7z" />
      <path fill="#406325" stroke="#24420E" stroke-width="0.0769" d="M191.8,121.9c3.4-1.1,8.8-7.2,9.1-8.4C193.6,115.4,190.3,120.2,191.8,121.9L191.8,121.9z M260.1,124.1c-0.8-3.3-6.2-8.9-7.3-9.3C254.1,121.9,258.4,125.4,260.1,124.1z" />
      <path fill="#67923D" stroke="#24420E" stroke-width="0.0769" d="M191.8,121.9c-1.6-1.7,1.8-6.4,9.1-8.3C195.8,117.5,191.9,121.1,191.8,121.9L191.8,121.9z M260.1,124.1c-1.7,1.4-6-2.2-7.3-9.3C256.2,120,259.4,124,260.1,124.1z" />
    </g>
    <path fill="#4C0505" stroke="#4C0505" stroke-width="0.1022" d="M223,112.2l-1.8,2.1c-0.6,2.5,0.8,4.3,3.6,5.9c2.2,1.4,6.4,1.7,7.6,0.6l-6.4-6.1L223,112.2L223,112.2z" />
    <g>
      <path fill="#8C959D" stroke="#485654" stroke-width="0.051" d="M203.6,167c-0.1,0.5,0.4,1.1,1,1c0.2,0,0.3-0.3,0.1-0.2s-0.4,0-0.6-0.2c-0.2-0.2-0.3-0.6-0.2-0.9L203.6,167L203.6,167L203.6,167z M205,168c-0.5,0.6-1.2,0.8-1.6,0.4c-0.3-0.3-0.4-0.6-0.2-0.9c-0.2,0.2-0.4,0.4-0.5,0.6c0,0,0.3,0.6,0.8,0.8c0.6,0.3,1.4-0.1,1.9-0.7c0.4-0.4,0.7-1.1,0.4-1.7c-0.2-0.3-0.6-0.7-0.9-0.8c-0.2,0.2-0.3,0.4-0.5,0.5c0.2-0.1,0.5-0.1,0.8,0.1C205.7,166.8,205.4,167.5,205,168L205,168L205,168z" />
      <path fill="#6C301E" stroke="#351710" stroke-width="0.1022" stroke-linejoin="round" d="M241.5,126.2l-18.8,18.5c-1.4,1.4-17.8,17.1-19.3,18.5c-0.5,0.6-2,2.3-2.1,2.5c-1,1.1-2.1,2.5-3.4,3.8c-0.2,0.3-0.5,0.2-0.8,0.4c-0.9,0.5-1.7,1.4-2.4,2.1l-5.7,6.3c-0.4,0.4-0.5,0.6-0.2,0.9l3.1,4.1c0.6,0.6,1.2,0.9,1.5,0.4c1.5-2.6,5.1-6.4,6.5-9.5c0.8-1.8,1.9-5.2,2.6-6c0.9-1,3.4-3.6,5.5-6c0.1-0.2,0.3-0.3,0.4-0.5l0.4-0.5c11-11.2,23.8-24.9,33.1-34.5C241.6,126.3,241.9,126.6,241.5,126.2L241.5,126.2z" />
      <path fill="#8C959D" stroke="#485654" stroke-width="0.0511" d="M202.4,163.2c-0.6,0-0.9-0.3-1.3-0.7c0.6,0.2,1.1,0.4,1.6,0.2L202.4,163.2L202.4,163.2z" />
      <path fill="#B2B6BA" stroke="#485654" stroke-width="0.1022" d="M261.1,112.5l-14.9,12.3c-0.1,0.2-0.3,0.1-0.4,0l-1.4-1.1c0,0,0,0,0-0.1s0-0.2,0-0.2l0.7-0.7c0.1-0.1,0.1-0.2-0.1-0.3c-0.1-0.1-0.2-0.2-0.3-0.3c-0.1-0.1-0.2,0-0.3,0.1l-0.7,0.7c-0.3,0-0.6,0.3-0.6,0.6c-9,8.8-16.8,16.6-25.8,25.2L206.8,159c-0.4,0.5-2,1.4-3.1,2.1c-0.4,0.2-0.7,0.5-0.9,0.7l-0.9,2.6c-0.3,0.6-1.1,1.9-1.2,2c1.1,1.1,1.1,1,1.8,1.8c0.9-0.9,3.1-3.3,5.2-5.6c0.2-0.2,0.2-0.2,0.4-0.4c-0.2-0.2-0.4-0.6-0.6-0.8c-0.2-0.2-0.4-0.4-0.6-0.5c-0.1-0.1-0.2-0.2-0.3-0.3s0.1-0.2,0.2-0.3c12.4-12,25.8-25.2,36.7-35.9c0.2,0.1,0.3,0,0.5,0l1.3,1.5c0.3,0.3,0.6,0.3,0.8,0.2L261.1,112.5L261.1,112.5z" />
      <path fill="none" stroke="#485654" stroke-width="0.0769" d="M205.4,162.9c0.2,0,0.3,0.1,0.3,0.3s-0.1,0.3-0.3,0.3s-0.3-0.1-0.3-0.3S205.2,162.9,205.4,162.9z M203.6,164.7c0.2,0,0.3,0.1,0.3,0.3s-0.1,0.3-0.3,0.3s-0.3-0.1-0.3-0.3S203.5,164.7,203.6,164.7z" />
      <path fill="#485654" d="M202,164.2c0.1,0,0.2,0,0.3,0s0.2,0,0.3-0.1l0,0c0.1-0.4,0.2-0.7,0.3-1.1c0.1-0.4,0.2-0.7,0.4-1.1l0,0c-0.1-0.1-0.2-0.2-0.3-0.2c0.1,0,0.3,0.1,0.4,0.2l0,0l0,0c-0.1,0.4-0.2,0.7-0.3,1.1c-0.1,0.4-0.2,0.7-0.4,1.1l0,0l0,0c-0.1,0-0.2,0.1-0.3,0.1C202.2,164.3,202.1,164.3,202,164.2L202,164.2z M206.7,160.5c-0.1-0.1-0.3-0.2-0.4-0.4c-0.1-0.1-0.3-0.3-0.4-0.4c0.1,0.1,0.3,0.2,0.4,0.4C206.4,160.2,206.6,160.3,206.7,160.5z" />
      <path fill="#8C959D" stroke="#485654" stroke-width="0.0511" d="M235.4,130.8l1.6,1.6l0.3-0.3l-1.6-1.6L235.4,130.8z" />
    </g>
    <g>
      <path fill="#B2B6BA" stroke="#485654" stroke-width="0.1022" d="M238.4,178.1c-9.7-14.1-24.4-25.6-35.7-31.9c1.7-0.1,5.4,1.8,6.9,2.8c11.2,7.2,20.8,16.8,30.8,28c-0.6,0.6-1,0.9-1.6,1.4L238.4,178.1L238.4,178.1z" />
      <path fill="#8C959D" d="M239.3,178l-0.7,0.6c-10.8-13.9-25.8-27.2-35.9-32.4C216.8,152.7,228.7,165.8,239.3,178L239.3,178L239.3,178z" />
      <path fill="#485654" d="M239.3,178l-0.7,0.6l0,0l0,0c-2.5-3.2-5.1-6.3-7.9-9.2c-2.8-3-5.6-5.8-8.6-8.6s-6.1-5.4-9.3-7.9c-1.6-1.2-3.3-2.4-4.9-3.6c-1.7-1.1-3.4-2.2-5.2-3.1v-0.1c3.7,1.7,7.2,3.8,10.5,6.2s6.4,5,9.4,7.8s5.8,5.7,8.6,8.7C234,171.9,236.6,174.9,239.3,178L239.3,178z M239.3,178c-2.7-3.1-5.4-6.1-8.2-9.1s-5.6-5.9-8.6-8.6c-3-2.8-6.1-5.4-9.4-7.8s-6.8-4.5-10.5-6.2v-0.1c1.8,0.9,3.5,2,5.2,3.1s3.3,2.3,4.9,3.6c3.2,2.5,6.3,5.1,9.3,7.9c3,2.8,5.9,5.6,8.6,8.6s5.4,6.1,7.9,9.3l0,0L239.3,178L239.3,178z" />
      <path fill="#FAB81C" stroke="#6C301E" stroke-width="0.1022" d="M242.6,175.8c-0.9,0.2-1.8,0.6-2.5,1c-0.1,0.6-0.9,1.4-1.7,1.6c-0.1-0.2-0.2-0.2-0.3-0.4H238c-0.1,0-0.2,0.1-0.3,0.2c-0.3-0.1-0.6,0.1-0.8,0.5s0.2,1.1,0.6,1.4c0.4,0.3,0.6,0.5,1.1,0.4s0.8-0.6,0.9-0.7c1.7,2.1,3.1,3.2,5.3,5c1,0,1.5-0.6,1.2-1.3c-0.1-0.2-0.4-0.4-0.6-0.3c0-0.1,0-0.1,0-0.2c1.1-1.1,1.6-2.4,0.4-4.6C244.9,176.4,243.7,175.8,242.6,175.8L242.6,175.8L242.6,175.8z M245.5,177.9c0.2,0.4,0.3,0.6,0.5,1c0.7,1.4,0.1,3.1-1.1,3.6c-0.1,0,0,0-0.1,0c0.2-0.3-0.4-1-0.7-0.8c0.1-0.4-0.3-0.9-0.7-0.8c0.2-0.3-0.2-0.9-0.7-0.7c0.2-0.4-0.1-0.9-0.6-0.8c0.1-0.4-0.2-0.8-0.6-0.8c0-0.3-0.1-0.5-0.2-0.7c0.5-0.4,1.1-1,1.6-1.3C244.2,176.2,245,177.3,245.5,177.9L245.5,177.9L245.5,177.9z" />
      <path fill="#FAB81C" stroke="#6C301E" stroke-width="0.0511" d="M246,179.4c-0.2-0.1-0.4-0.4-0.3-0.5c0.1-0.2,0.3-0.2,0.6-0.1s0.4,0.4,0.3,0.5C246.6,179.5,246.3,179.5,246,179.4L246,179.4L246,179.4z" />
      <path fill="#FAB81C" stroke="#6C301E" stroke-width="0.0511" d="M245.9,178.9c-0.2-0.1-0.4-0.4-0.3-0.5c0.1-0.2,0.3-0.2,0.6-0.1s0.4,0.4,0.3,0.5C246.4,179,246.1,179.1,245.9,178.9L245.9,178.9L245.9,178.9z" />
      <path fill="#FAB81C" stroke="#6C301E" stroke-width="0.0511" d="M245.6,178.4c-0.2-0.1-0.4-0.4-0.3-0.5c0.1-0.2,0.3-0.2,0.6-0.1s0.4,0.4,0.3,0.5C246.1,178.5,245.9,178.5,245.6,178.4L245.6,178.4L245.6,178.4z" />
      <path fill="#FAB81C" stroke="#6C301E" stroke-width="0.0511" d="M245.2,177.9c-0.2-0.1-0.4-0.4-0.3-0.5c0.1-0.2,0.3-0.2,0.6-0.1s0.4,0.4,0.3,0.5C245.8,178,245.5,178.1,245.2,177.9L245.2,177.9z" />
      <path fill="#FAB81C" stroke="#6C301E" stroke-width="0.0511" d="M244.8,177.5c-0.2-0.1-0.4-0.4-0.3-0.5v-0.1c0.1,0.1,0.3,0.1,0.3-0.1c0-0.1-0.1-0.1,0-0.1s0.2,0.1,0.3,0.1c0.2,0.1,0.4,0.4,0.3,0.5C245.3,177.5,245,177.6,244.8,177.5L244.8,177.5z" />
      <path fill="#6C301E" d="M239.7,179.8c0.1-0.2,0.1-0.4,0.3-0.6c0.1-0.2,0.2-0.4,0.4-0.5s0.3-0.3,0.5-0.4c0.2-0.1,0.4-0.2,0.6-0.3c-0.2,0.1-0.4,0.2-0.6,0.3c-0.2,0.1-0.3,0.3-0.4,0.4C240,179.1,239.8,179.4,239.7,179.8L239.7,179.8z M239.8,179.9c0.2,0,0.4,0,0.6-0.1c0.2-0.1,0.3-0.2,0.5-0.3c0.1-0.1,0.3-0.2,0.4-0.4c0.1-0.1,0.2-0.3,0.3-0.5c-0.1,0.2-0.2,0.4-0.3,0.5s-0.3,0.3-0.4,0.4c-0.2,0.1-0.3,0.2-0.5,0.3C240.1,179.9,239.9,180,239.8,179.9L239.8,179.9z M240.3,180.6c0.2,0,0.4,0,0.6,0s0.4-0.1,0.5-0.3c0.2-0.1,0.3-0.2,0.4-0.4c0.1-0.1,0.2-0.3,0.4-0.5c-0.1,0.2-0.2,0.3-0.3,0.5c-0.1,0.1-0.3,0.3-0.4,0.4c-0.2,0.1-0.3,0.2-0.5,0.2C240.7,180.7,240.5,180.7,240.3,180.6L240.3,180.6z M241,181.4c0.2,0,0.4,0,0.5-0.1c0.2-0.1,0.3-0.1,0.5-0.2c0.1-0.1,0.3-0.2,0.4-0.4c0.1-0.1,0.2-0.3,0.3-0.4c-0.2,0.3-0.4,0.6-0.7,0.8c-0.1,0.1-0.3,0.2-0.5,0.2C241.4,181.4,241.2,181.4,241,181.4L241,181.4z M241.7,182.1c0.4,0,0.7-0.2,1-0.4c0.1-0.1,0.3-0.2,0.4-0.4s0.2-0.3,0.3-0.4c-0.1,0.2-0.2,0.3-0.3,0.5c-0.1,0.1-0.2,0.3-0.4,0.4s-0.3,0.2-0.5,0.2C242.1,182.1,241.9,182.1,241.7,182.1L241.7,182.1z M242.4,182.7c0.2,0,0.3-0.1,0.5-0.1s0.3-0.1,0.5-0.2c0.1-0.1,0.3-0.2,0.4-0.3c0.1-0.1,0.2-0.3,0.3-0.4c-0.1,0.2-0.2,0.3-0.3,0.4s-0.3,0.2-0.4,0.3C243.1,182.6,242.8,182.7,242.4,182.7L242.4,182.7z M243.2,183.4c0.2,0,0.3,0,0.5-0.1c0.2,0,0.3-0.1,0.4-0.2c0.1-0.1,0.3-0.2,0.4-0.3s0.2-0.2,0.3-0.4c-0.1,0.1-0.1,0.3-0.3,0.4c-0.1,0.1-0.2,0.2-0.4,0.3c-0.1,0.1-0.3,0.1-0.5,0.2C243.5,183.4,243.3,183.4,243.2,183.4z M244,184.1c0.1,0,0.3,0,0.4-0.1c0.3-0.1,0.6-0.2,0.8-0.5c0.1-0.1,0.2-0.2,0.3-0.4c-0.1,0.3-0.3,0.5-0.6,0.7c-0.1,0.1-0.3,0.1-0.4,0.2S244.2,184.1,244,184.1z" />
    </g>
    <path fill="#67923D" stroke="#24420E" stroke-width="0.0769" d="M203.4,180.6c-3.7-1.6-12.6-0.3-13.7,0.4C197.3,184.8,203.6,183.2,203.4,180.6z M245.1,182.2c3.7-1.6,12.6-0.3,13.7,0.4C251.2,186.4,245,184.8,245.1,182.2z" />
    <path fill="#406325" stroke="#24420E" stroke-width="0.0769" d="M203.3,180.7c0.1,2.6-6,4.2-13.6,0.4C196.9,181.6,202.7,181.3,203.3,180.7z M245.2,182.2c-0.1,2.6,6,4.2,13.6,0.4C251.6,183.1,245.8,182.9,245.2,182.2z M208.6,183c-2.3,1.7-8.7,2.6-9.6,2.2C203.7,181.3,208.3,181.2,208.6,183z M241.3,185c2.5,2.2,9.9,3.8,11,3.5C247.4,183.5,241.9,183,241.3,185z" />
    <path fill="#67923D" stroke="#24420E" stroke-width="0.0769" d="M208.6,182.9c-0.3-1.7-4.9-1.6-9.6,2.2C203.9,183.6,208.1,182.6,208.6,182.9z M241.4,185c0.6-2.1,6-1.6,10.9,3.5C246.7,186.2,242,184.7,241.4,185z" />
    <g>
      <radialGradient id="Gradient_GT_1" cx="209.7272" cy="-319.8724" r="7.7503" gradientTransform="matrix(1 0 0 -1 0 -166)" gradientUnits="userSpaceOnUse">
        <stop offset="0.216" style="stop-color:#F9F0AA" />
        <stop offset="1" style="stop-color:#B07E09" />
      </radialGradient>
      <path fill="url(#Gradient_GT_1)" stroke="#999270" stroke-width="0.0769" d="M212,158.5c0,0-2.9,0.3-3.7-3.7c-0.9-4.3,2.5-4.7,2.5-4.7s3.8-0.4,6.2-0.4l1.1,8.4L212,158.5L212,158.5z" />
      <radialGradient id="Gradient_GT_2" cx="211.6678" cy="-322.0877" r="5.1145" gradientTransform="matrix(1 0 0 -1 0 -166)" gradientUnits="userSpaceOnUse">
        <stop offset="0.216" style="stop-color:#F9F0AA" />
        <stop offset="1" style="stop-color:#B07E09" />
      </radialGradient>
      <path fill="url(#Gradient_GT_2)" stroke="#999270" stroke-width="0.0769" d="M212.4,157.2c0,0-1.9,0.4-2.2-2.6c-0.3-2.1,1-2.4,1-2.4l4.3,0.7v3.9L212.4,157.2L212.4,157.2z" />
      <radialGradient id="Gradient_GT_3" cx="212.8641" cy="-320.0477" r="4.5844" gradientTransform="matrix(1 0 0 -1 0 -166)" gradientUnits="userSpaceOnUse">
        <stop offset="0.216" style="stop-color:#F9F0AA" />
        <stop offset="1" style="stop-color:#B07E09" />
      </radialGradient>
      <path fill="url(#Gradient_GT_3)" stroke="#999270" stroke-width="0.0769" d="M211.1,152.2c0,0,2.8-0.2,4.2-0.4l0.6,2.7l-3.3,0.2C212.6,154.7,212.4,152.3,211.1,152.2L211.1,152.2z" />
      <radialGradient id="Gradient_GT_4" cx="214.8703" cy="-319.3042" r="8.1347" gradientTransform="matrix(1 0 0 -1 0 -166)" gradientUnits="userSpaceOnUse">
        <stop offset="0.216" style="stop-color:#F9F0AA" />
        <stop offset="1" style="stop-color:#B07E09" />
      </radialGradient>
      <path fill="url(#Gradient_GT_4)" stroke="#999270" stroke-width="0.0769" d="M210.5,150.2c0,0,3.6-0.9,4,3c0.1,1-0.4,3.4-2.2,4l6.5-0.7l-0.6-7l-2.2,0.2C216.1,149.7,211.4,149.8,210.5,150.2L210.5,150.2z" />
      <path fill="#F9F0AA" stroke="#999270" stroke-width="0.0769" d="M212,158.5c0,0,24.3-1.6,26.8-1.5c7.4-4.1,0-19.9-6.2-28.8c0.7-2-14-6.5-20.6-6.1c-0.8,0.1-1.6,0.1-2.4,0.2c-3.6,0.4-3.6,5-2.2,7.9c1.4,2.8,14.2,25.8,5.2,28.3H212L212,158.5z" />
      <linearGradient id="Gradient_GT_5" gradientUnits="userSpaceOnUse" x1="222.1488" y1="-296.8575" x2="221.4227" y2="-284.1036" gradientTransform="matrix(1 0 0 -1 0 -166)">
        <stop offset="0.216" style="stop-color:#B07E09;stop-opacity:0" />
        <stop offset="1" style="stop-color:#B07E09" />
      </linearGradient>
      <path fill="url(#Gradient_GT_5)" stroke="#999270" stroke-width="0.0769" d="M238,137.5c-1.6-3.4-3.6-6.7-5.5-9.4c0.7-2-14-6.5-20.6-6.1c-0.8,0.1-1.6,0.1-2.4,0.2c-3.6,0.4-3.6,5-2.2,7.9c0.4,0.9,2,3.8,3.7,7.4" />
      <linearGradient id="Gradient_GT_6" gradientUnits="userSpaceOnUse" x1="226.3679" y1="-314.4366" x2="227.4783" y2="-328.4648" gradientTransform="matrix(1 0 0 -1 0 -166)">
        <stop offset="0.216" style="stop-color:#B07E09;stop-opacity:0" />
        <stop offset="1" style="stop-color:#B07E09" />
      </linearGradient>
      <path fill="url(#Gradient_GT_6)" stroke="#999270" stroke-width="0.0769" d="M213.3,142.9c2.6,6.9,4.1,14.1-0.8,15.4l-0.6,0.1c0,0,24.3-1.6,26.8-1.5c4-2.2,3.6-7.9,1.5-14" />
      <radialGradient id="Gradient_GT_7" cx="209.0513" cy="-293.6664" r="6.1022" gradientTransform="matrix(1 0 0 -1 0 -166)" gradientUnits="userSpaceOnUse">
        <stop offset="0.216" style="stop-color:#F9F0AA" />
        <stop offset="1" style="stop-color:#B07E09" />
      </radialGradient>
      <path fill="url(#Gradient_GT_7)" stroke="#999270" stroke-width="0.0769" d="M209.7,123.5c-1.7,0-2.2,1.7-2.2,2.7c0.1,2.8,2.2,2.9,2.2,2.9l2.8-0.2l1.3-5.7L209.7,123.5z" />
      <linearGradient id="Gradient_GT_8" gradientUnits="userSpaceOnUse" x1="211.6213" y1="-292.3187" x2="213.4143" y2="-288.1248" gradientTransform="matrix(1 0 0 -1 0 -166)">
        <stop offset="0.216" style="stop-color:#F9F0AA" />
        <stop offset="1" style="stop-color:#B07E09" />
      </linearGradient>
      <path fill="url(#Gradient_GT_8)" stroke="#999270" stroke-width="0.0769" d="M209.7,123.5l4.1-0.2l0.4,4.3l-3.6,0.2C210.7,127.7,211.8,124.3,209.7,123.5L209.7,123.5z" />
      <linearGradient id="Gradient_GT_9" gradientUnits="userSpaceOnUse" x1="221.9184" y1="-286.5768" x2="223.1442" y2="-302.1387" gradientTransform="matrix(1 0 0 -1 0 -166)">
        <stop offset="0.216" style="stop-color:#F9F0AA" />
        <stop offset="1" style="stop-color:#B07E09" />
      </linearGradient>
      <path fill="url(#Gradient_GT_9)" stroke="#999270" stroke-width="0.0769" d="M232.6,128.1c3.1-0.5,3.1-4.7,0.9-6.4c-7.3-0.3-16.8-0.1-23.7,0.4c0.8,0,3,0.2,3.2,3.1c0.1,1.3-0.6,2.6-1.4,3.3c-0.9,0.7-1.8,0.7-1.8,0.7c0.1,0,1,0,1.7,0c0.4,0,1.2-0.1,1.4-0.1C222.7,127.7,232.5,128.1,232.6,128.1L232.6,128.1L232.6,128.1L232.6,128.1z" />
      <path fill="#B07E09" d="M221.6,141.1c0-0.1-0.1-0.2-0.1-0.4c-0.2-0.4-0.4-0.9-0.5-1.3c0-0.1-0.2-0.2-0.3-0.1c-0.1,0-0.3,0.1-0.3-0.1c0-0.1,0.2-0.1,0.3-0.2c0.1-0.1,0.3-0.1,0.4-0.2c0.1,0,0.1,0.1,0.2,0.1l0.8,1.9c0.1,0.2,0.2,0.3,0.4,0.3c0.1,0,0.3,0,0.3,0.2c-0.1,0.1-0.2,0-0.4,0.1c-0.2,0-0.5,0-0.7,0c-0.1,0-0.3,0.1-0.4,0c-0.1-0.1-0.1-0.2,0.1-0.2C221.4,141.3,221.6,141.3,221.6,141.1z M226.6,141.2c-0.2,0-0.4,0-0.6,0.1c-0.1,0-0.2-0.2,0-0.2s0.2-0.2,0.1-0.3c-0.2-0.5-0.4-0.9-0.6-1.4c-0.1-0.2-0.2-0.4-0.4-0.4c-0.1,0-0.3-0.1-0.2-0.2c0.3,0,0.5,0,0.8,0s0.7,0,1,0.1c0.7,0.2,1.3,0.9,1.4,1.6c0,0.3-0.1,0.6-0.3,0.7C227.4,141.2,227,141.2,226.6,141.2z M226.5,140.5L226.5,140.5c0.1,0.2,0.1,0.4,0.3,0.4c0.1,0.1,0.3,0.1,0.5,0c0.2,0,0.3-0.2,0.3-0.4c0-0.4-0.1-0.7-0.3-1s-0.5-0.6-0.9-0.6c-0.1,0-0.3,0-0.5,0c0,0.1,0,0.1,0.1,0.2L226.5,140.5z M225.4,134.2c0.1-0.1,0-0.2,0-0.3c0-0.2,0.2-0.2,0.3-0.2s0.3,0,0.3,0.1c0.2,0.4,0.4,0.9,0.5,1.4c0.1,0.2,0.1,0.4,0.2,0.5c0,0.2-0.2,0.1-0.3,0.2c0,0.1,0.1,0.2,0.2,0.1c0.2,0,0.5-0.1,0.8,0c0.1,0,0.3,0.1,0.3-0.1c0-0.2-0.2-0.1-0.3-0.1s-0.2-0.2-0.2-0.3l0,0l-0.6-1.4c0-0.1-0.1-0.2-0.1-0.3c0.1-0.1,0.3-0.1,0.4-0.1c0.2,0,0.4,0.2,0.4,0.3s0.2,0.2,0.3,0.1c-0.1-0.1-0.1-0.3-0.2-0.5c0-0.1-0.1-0.2-0.2-0.2c-0.6,0-1.3,0.1-1.9,0.1c-0.1,0-0.2,0-0.2,0.1c0.1,0.1,0.1,0.3,0.2,0.4C225.2,134.1,225.3,134.3,225.4,134.2z M223.7,141.2c-0.1,0-0.3,0-0.4-0.1c0-0.2-0.1-0.3-0.3-0.3s-0.2,0.2-0.1,0.3c0.1,0.2,0.4,0.2,0.6,0.3c0.3,0,0.6-0.1,0.8-0.3s0.1-0.5,0-0.7c-0.2-0.5-0.7-0.8-1.2-0.7c-0.1,0-0.3,0-0.3,0.1c-0.1-0.2-0.1-0.4-0.2-0.6c0.2,0,0.5,0,0.8,0c0,0,0,0,0.1,0s0.2-0.1,0.2-0.3c0-0.1,0-0.3-0.2-0.4c-0.1,0,0,0.2-0.2,0.2c-0.3,0-0.6,0-1,0l0,0c-0.1,0-0.1,0-0.1,0.1c0.1,0.3,0.2,0.6,0.3,0.9c0.1,0.1,0.1,0.2,0.2,0.3c0.1,0,0.2-0.1,0.4-0.1s0.5,0.1,0.6,0.3s0.2,0.4,0.2,0.6C224,141.1,223.8,141.2,223.7,141.2z M222.5,133.6c0.1-0.1,0.3,0,0.4,0c0.4,0,0.8-0.1,1.1,0c0.4,0.1,0.7,0.5,0.7,0.9c0,0.2-0.1,0.4-0.3,0.4c-0.1,0,0.1,0.1,0.1,0.1c0.3,0.1,0.5,0.4,0.7,0.7c0,0.1,0.2,0.3,0.3,0.1c0-0.2,0.3,0,0.2,0.1c0,0.2-0.2,0.3-0.3,0.3c-0.2,0-0.4-0.1-0.5-0.3c-0.2-0.3-0.3-0.6-0.6-0.8c-0.1-0.1-0.3-0.1-0.4-0.1c0,0.1,0,0.1,0.1,0.2c0.1,0.2,0.1,0.4,0.3,0.6c0.1,0.1,0.3,0.2,0.4,0.2c0.2,0,0.1,0.3-0.1,0.2c-0.3,0-0.6,0-0.8,0c-0.1,0.1-0.4,0-0.3-0.2c0.1,0,0.3-0.1,0.2-0.2c-0.1-0.4-0.3-0.8-0.5-1.2l-0.1-0.3c-0.1-0.2-0.1-0.4-0.3-0.4C222.7,133.8,222.5,133.8,222.5,133.6z M223.5,133.9c0.1,0.2,0.2,0.5,0.3,0.7v0.1c0.1,0.1,0.3,0.1,0.4,0.1c0.2,0,0.2-0.2,0.1-0.4c-0.1-0.2-0.2-0.5-0.4-0.6C223.8,133.8,223.5,133.7,223.5,133.9z M231.3,146.2c-0.1,0.2,0.2,0.2,0.3,0.2c0.3-0.1,0.6,0,0.8,0c0.2,0.1,0.2-0.2,0-0.2s-0.4-0.1-0.4-0.2c-0.2-0.6-0.4-1.1-0.5-1.7c-0.1-0.2,0.1-0.3,0.2-0.3c0.1-0.2-0.2-0.2-0.4-0.2s-0.4,0-0.5,0.1l-0.2,1.7v0.1l-1-1.3c-0.1-0.1-0.2-0.3-0.3-0.4c-0.2-0.1-0.5,0-0.7,0c-0.2-0.1-0.2,0.2,0,0.2s0.3,0.1,0.3,0.3l0,0l0.5,1.5c0.1,0.1,0.1,0.4-0.1,0.4c-0.2,0-0.2,0.2,0,0.2s0.5-0.1,0.7,0c0.1,0.1,0.3-0.1,0.1-0.2c-0.2,0-0.4-0.1-0.4-0.2c-0.1-0.4-0.3-0.9-0.4-1.4v-0.1l1.3,1.7c0.1,0.1,0.1,0.2,0.2,0.1c0.1-0.1,0-0.2,0-0.4c0-0.5,0.1-0.9,0.1-1.4c0-0.1,0-0.1,0-0.2c0.1,0.5,0.3,1,0.5,1.5C231.6,146.1,231.4,146.2,231.3,146.2z M228.4,135.8c0.1,0,0.2-0.1,0.2-0.2c0-0.2,0-0.4,0-0.6v-1.7c0.1-0.1,0.2,0,0.3,0.1c0.6,0.7,1.1,1.4,1.7,2.1c0.1,0.1,0.2,0.2,0.4,0.2c0.1,0,0.2,0.2,0,0.2s-0.5,0-0.7,0c-0.1,0-0.2,0.1-0.3,0s0-0.2,0.1-0.2c0.2-0.1,0-0.2-0.1-0.3s-0.2-0.2-0.3-0.4c-0.1,0-0.2,0-0.3,0c-0.2,0-0.3,0-0.5,0l0,0c-0.1,0-0.1,0.1-0.1,0.2c0,0.1,0,0.3,0,0.4c0.1,0.1,0.2,0.1,0.4,0.1c0.1,0.1,0.1,0.2-0.1,0.2c-0.2,0-0.4,0-0.6,0C228.5,136,228.3,135.9,228.4,135.8z M228.9,133.9v0.1c0,0.3,0,0.5,0,0.8c0.2,0,0.4,0,0.6,0l0,0c0.1,0,0-0.1,0-0.1L228.9,133.9z M230.4,133.3c0.3,0,0.5,0,0.8,0s0.7,0,1,0.1c0.7,0.2,1.2,0.8,1.4,1.6c0.1,0.3,0,0.6-0.3,0.8s-0.8,0.2-1.2,0.2c-0.2,0-0.4,0-0.7,0c-0.1,0-0.2-0.2,0-0.2s0.2-0.2,0.1-0.3l-0.5-1.4l0,0c-0.1-0.2-0.2-0.4-0.4-0.5C230.5,133.5,230.2,133.4,230.4,133.3z M231.3,133.5c0,0.1,0,0.1,0,0.2l0.5,1.4c0.1,0.2,0.1,0.4,0.3,0.5c0.1,0.1,0.3,0.1,0.5,0c0.2,0,0.3-0.2,0.3-0.4c0-0.4-0.1-0.7-0.3-1s-0.5-0.6-0.9-0.6C231.6,133.5,231.5,133.5,231.3,133.5z M227.9,138.7c0.2,0,0.3,0.2,0.4,0.3c0.2,0.4,0.4,0.9,0.5,1.4c0,0.1,0.1,0.3,0.1,0.4c0,0.2-0.3,0.1-0.2,0.2c0.1,0.1,0.3,0,0.4,0.1c0.5,0,1,0,1.4-0.1c0.1,0,0.2,0,0.2-0.1c-0.1-0.1-0.1-0.3-0.1-0.4c0-0.1-0.1-0.3-0.2-0.2c-0.1,0.1,0.1,0.3,0,0.4c-0.1,0.1-0.3,0.1-0.4,0.1c-0.2,0-0.4,0-0.5-0.1c-0.1-0.2-0.2-0.5-0.3-0.7c-0.1-0.1,0-0.1,0.1-0.1s0.3,0,0.4,0.2c0,0.1,0.2,0.3,0.3,0.1c-0.1-0.2-0.2-0.4-0.2-0.5c-0.1-0.1,0-0.3-0.2-0.4c-0.2,0,0,0.2-0.1,0.3s-0.2,0.1-0.4,0.1c-0.1-0.2-0.2-0.4-0.2-0.6c0-0.1-0.1-0.2,0-0.3c0.2,0,0.4,0,0.6,0c0.1,0,0.2,0.1,0.3,0.2c0,0.1,0.2,0.3,0.3,0.1c-0.1-0.1-0.1-0.3-0.2-0.4c0-0.1-0.1-0.3-0.2-0.2l0,0l-1.3,0.1c-0.2,0-0.3,0-0.5,0C227.6,138.7,227.8,138.7,227.9,138.7z M226.1,144.2c0.1,0,0.1-0.2-0.1-0.2c-0.3,0-0.6,0.1-0.8,0.1c-0.1,0-0.2,0-0.3,0.1c0,0.2,0.2,0.1,0.3,0.2c0.2,0.1,0.2,0.2,0.3,0.4l0.4,1.1c0.1,0.2,0.1,0.4,0.2,0.6c0,0.2-0.2,0.1-0.3,0.2c-0.1,0.1,0.1,0.2,0.2,0.2c0.2,0,0.5-0.1,0.8-0.1c0.1,0,0.2,0,0.3,0c0-0.2-0.2-0.2-0.3-0.2s-0.2-0.1-0.2-0.2c-0.1-0.3-0.2-0.7-0.3-1c-0.1-0.2-0.2-0.5-0.2-0.7C225.8,144.3,225.9,144.2,226.1,144.2z M233.6,143.7c0.3,0.1,0.6,0.4,0.6,0.7c0,0.2-0.1,0.3-0.3,0.4c0.1,0,0.1,0.1,0.2,0.1c0.2,0.1,0.5,0.3,0.6,0.5s0.1,0.4,0,0.6c-0.2,0.2-0.4,0.2-0.7,0.2c-0.4,0-0.7,0-1.1,0.1c-0.1,0-0.2-0.2,0-0.2s0.2-0.2,0.1-0.3l-0.4-1.4c-0.1-0.2-0.1-0.4-0.3-0.4c-0.1,0-0.3,0-0.3-0.2c0-0.1,0.3,0,0.4-0.1C232.8,143.7,233.2,143.6,233.6,143.7z M233.8,145.1c-0.2-0.1-0.3-0.1-0.5,0c-0.1,0.1,0,0.1,0,0.2l0.1,0.3c0.1,0.2,0.1,0.4,0.2,0.5c0.1,0.1,0.3,0.1,0.4,0c0.1,0,0.2-0.1,0.2-0.2C234.2,145.5,234.1,145.2,233.8,145.1z M232.9,143.9c0,0.1,0,0.1,0,0.2l0.2,0.6c0,0.1,0.2,0,0.2,0.1c0.1,0,0.3-0.1,0.3-0.2c0-0.2-0.1-0.4-0.2-0.6C233.3,143.9,233.1,143.9,232.9,143.9z M234.9,150.2c-0.2,0-0.1,0.2-0.1,0.3s-0.1,0.2-0.2,0.2c-0.2,0-0.3,0-0.5,0c-0.1,0-0.2,0-0.3,0.1c0-0.1,0-0.2,0.1-0.3c0.2-0.3,0.6-0.4,0.8-0.8c0.1-0.2,0.1-0.4,0-0.6c-0.1-0.3-0.3-0.5-0.6-0.5c-0.3-0.1-0.6-0.1-0.8,0.1c-0.2,0.1-0.3,0.4-0.2,0.7c0.1,0.2,0.2,0.4,0.4,0.3c0.1,0,0.2-0.2,0.1-0.3c-0.1-0.2-0.2-0.1-0.3-0.2c-0.1-0.1,0-0.3,0.1-0.4c0.2-0.1,0.5-0.1,0.7,0.1c0.1,0.2,0.1,0.4,0.1,0.6c0,0.2-0.2,0.4-0.4,0.5c-0.2,0.2-0.4,0.4-0.5,0.7c0,0.1-0.1,0.2,0,0.4c0.1,0.1,0.2,0,0.3-0.1c0.3,0,0.5,0,0.8,0c0.1,0,0.3,0,0.4-0.1c0.2-0.1,0.2-0.4,0.2-0.5C235.1,150.4,235.1,150.2,234.9,150.2z M229,145.9c0-0.1-0.1-0.2-0.2-0.2c0,0.1,0.1,0.3-0.1,0.4c-0.1,0.1-0.4,0.1-0.6,0.1c-0.1,0-0.3,0-0.3-0.2c-0.1-0.2-0.2-0.5-0.2-0.7c-0.1-0.1,0.1-0.1,0.2-0.1c0.1,0,0.3,0.1,0.4,0.2c0,0.1,0.2,0.2,0.2,0.1c-0.1-0.2-0.2-0.4-0.2-0.6c0-0.1,0-0.3-0.2-0.3s0,0.2-0.1,0.3s-0.2,0.1-0.4,0.1c-0.1-0.2-0.1-0.4-0.2-0.6c0-0.1-0.1-0.2,0-0.3c0.2,0,0.4,0,0.6,0c0.2,0,0.2,0.1,0.3,0.3c0,0.1,0.2,0.2,0.2,0.1c0-0.1-0.1-0.2-0.1-0.4c0-0.1,0-0.3-0.2-0.2l0,0l-1.3,0.1c-0.2,0-0.3,0-0.5,0c-0.1,0.1,0.1,0.2,0.2,0.2c0.2,0,0.3,0.2,0.3,0.3c0.2,0.5,0.3,0.9,0.4,1.4c0,0.1,0.1,0.3,0.1,0.4c-0.1,0.1-0.3,0.1-0.2,0.2c0.1,0.1,0.3,0,0.4,0c0.5,0,1-0.1,1.4-0.1c0.1,0,0.2,0,0.2-0.1C229.1,146.2,229.1,146.1,229,145.9z M230.8,151c-0.1,0-0.3-0.1-0.3-0.3l-0.4-1.9c0-0.1-0.1-0.2-0.1-0.1c-0.2,0.1-0.4,0.1-0.5,0.2c-0.1,0.1-0.3,0-0.3,0.2c0,0.1,0.2,0.1,0.3,0.1s0.3,0,0.3,0.1c0.1,0.4,0.2,0.9,0.3,1.3c0,0.1,0.1,0.2,0.1,0.4c0,0.1-0.2,0.2-0.3,0.2s-0.2,0.1-0.1,0.2c0.1,0,0.3,0,0.4,0c0.3,0,0.5,0,0.8,0c0.1,0,0.3,0.1,0.3-0.1C231,150.9,230.9,151,230.8,151z M225.7,150.1c0.1,0.3,0.1,0.8-0.1,1.1c-0.2,0.3-0.7,0.4-1,0.4s-0.6,0-0.9,0.1c-0.1,0.1-0.3,0-0.2-0.2c0.1,0,0.3-0.1,0.3-0.2c0-0.2-0.1-0.5-0.2-0.7l-0.2-0.8c0-0.2-0.1-0.4-0.3-0.4c-0.1,0-0.3,0-0.2-0.2c0.1-0.1,0.3,0,0.5,0c0.4,0,0.8-0.1,1.2,0C225,149.1,225.5,149.6,225.7,150.1z M225,149.8c-0.1-0.3-0.4-0.5-0.7-0.6c-0.2,0-0.4-0.1-0.5,0c0,0.1,0,0.1,0,0.2l0.3,1.4c0.1,0.1,0.1,0.3,0.2,0.4c0.1,0.1,0.3,0.1,0.4,0c0.2,0,0.4-0.2,0.4-0.4C225.2,150.5,225.1,150.1,225,149.8z M228,150.6c-0.1,0.1,0,0.3-0.1,0.4c-0.1,0.1-0.4,0.1-0.6,0.1c-0.1,0-0.3,0-0.3-0.1c-0.1-0.2-0.1-0.5-0.2-0.7c-0.1-0.1,0.1-0.1,0.2-0.1c0.1,0,0.3,0,0.3,0.2c0,0.1,0.2,0.2,0.2,0.1c0-0.2-0.1-0.4-0.2-0.6c0-0.1,0-0.3-0.2-0.3s0,0.2-0.1,0.3s-0.3,0.1-0.4,0.1c-0.1-0.2-0.1-0.4-0.2-0.6c0-0.1-0.1-0.2,0-0.3c0.2,0,0.4,0,0.6,0c0.1,0,0.2,0.2,0.3,0.3c0,0.1,0.2,0.2,0.2,0.1c0-0.1-0.1-0.2-0.1-0.4c0-0.1,0-0.3-0.2-0.2c-0.5,0-0.9,0.1-1.4,0.1c-0.1,0-0.3,0-0.4,0c-0.1,0.1,0.1,0.2,0.2,0.2c0.2,0,0.2,0.2,0.3,0.3c0.1,0.5,0.2,1,0.4,1.5c0,0.1,0.1,0.3-0.1,0.3c-0.1,0-0.3,0.1-0.1,0.2c0.1,0.1,0.2,0,0.4,0c0.5,0,1-0.1,1.4-0.1c0.1,0,0.2,0,0.2-0.1s-0.1-0.3-0.1-0.5C228.2,150.7,228.1,150.5,228,150.6z M233,150.4c0.1,0.2,0,0.5-0.2,0.6c-0.3,0.2-0.6,0.2-0.9,0.1c-0.3-0.1-0.5-0.3-0.6-0.6c-0.1-0.2,0-0.5,0.2-0.6c0.1-0.1,0.2-0.1,0.1-0.1c-0.2-0.1-0.5-0.3-0.5-0.6c-0.1-0.2,0.1-0.5,0.3-0.6c0.4-0.2,1-0.1,1.2,0.3c0.1,0.2,0.1,0.4,0,0.6c-0.1,0.1-0.1,0.2-0.3,0.2c0.2,0.1,0.4,0.2,0.6,0.4C232.9,150.2,233,150.3,233,150.4L233,150.4z M231.7,149.4c0.1,0.1,0.3,0.1,0.4,0.2c0-0.1,0.1-0.2,0.1-0.3s0-0.1,0-0.2l0,0c0-0.2-0.1-0.4-0.3-0.4c-0.1,0-0.3,0-0.4,0.2C231.5,149.1,231.5,149.2,231.7,149.4z M232.6,150.5c-0.1-0.2-0.3-0.4-0.5-0.4c-0.1,0-0.2-0.1-0.3-0.1c-0.1,0.1-0.2,0.3-0.1,0.5c0.1,0.2,0.2,0.4,0.5,0.5c0.2,0,0.4-0.1,0.4-0.2C232.6,150.6,232.6,150.5,232.6,150.5z M239.6,145.6c0-0.1-0.1-0.3-0.2-0.2c0,0.1,0.1,0.3-0.1,0.4c-0.1,0.1-0.4,0.1-0.6,0.1c-0.1,0-0.3,0-0.3-0.2c-0.1-0.2-0.1-0.5-0.2-0.7c-0.1-0.1,0.1-0.1,0.2-0.1c0.1,0,0.3,0.1,0.3,0.2c0,0.1,0.2,0.2,0.2,0.1c-0.1-0.2-0.2-0.4-0.2-0.6c0-0.1,0-0.3-0.2-0.3c-0.1,0.1,0,0.2-0.1,0.3s-0.2,0.1-0.4,0.1c-0.1-0.2-0.1-0.4-0.2-0.6c0-0.1-0.1-0.2,0-0.3c0.2,0,0.4,0,0.6,0c0.2,0,0.2,0.2,0.3,0.3c0,0.1,0.2,0.2,0.2,0.1c0-0.1-0.1-0.3-0.1-0.4c0-0.1,0-0.3-0.2-0.2l0,0c-0.5,0-0.9,0-1.4,0c-0.1,0-0.3,0-0.5,0c-0.1,0.1,0.1,0.2,0.2,0.2c0.2,0,0.2,0.2,0.3,0.3c0.1,0.5,0.3,1,0.4,1.4c0,0.1,0.1,0.2,0,0.4c-0.1,0.1-0.4,0-0.2,0.2c0.1,0.1,0.3,0,0.4,0c0.5,0,1,0,1.5,0c0.1,0,0.2,0,0.2-0.1C239.6,145.9,239.6,145.7,239.6,145.6z M237.4,146c-0.1,0.2-0.3,0.2-0.5,0.2s-0.3-0.2-0.4-0.3c-0.2-0.2-0.3-0.6-0.5-0.8c-0.1-0.1-0.3-0.1-0.4-0.1c0,0.1,0,0.1,0,0.2c0.1,0.2,0.1,0.4,0.2,0.6c0.1,0.1,0.2,0.2,0.4,0.2c0.1,0,0.2,0.3,0,0.2c-0.3,0-0.6,0-0.9,0c-0.1,0-0.2,0.1-0.3-0.1c-0.1-0.2,0.2-0.1,0.3-0.2c0-0.1,0-0.3-0.1-0.4c-0.1-0.4-0.2-0.9-0.4-1.3l0,0c-0.1-0.2-0.1-0.4-0.3-0.4c-0.1,0-0.3,0-0.3-0.2c0.1-0.1,0.3,0,0.4-0.1c0.3,0,0.6-0.1,0.9,0c0.4,0,0.7,0.3,0.8,0.7c0.1,0.2,0,0.4-0.2,0.6c0,0.1-0.2,0.1-0.2,0.1c0.3,0.1,0.5,0.3,0.7,0.6c0.1,0.1,0.1,0.3,0.2,0.4c0.1,0.1,0.1-0.1,0.2-0.1C237.4,145.7,237.4,145.9,237.4,146z M236.1,144.5c0-0.2-0.1-0.4-0.3-0.6c-0.1-0.1-0.3-0.1-0.5-0.1c-0.1,0.1,0,0.2,0,0.2l0.2,0.6c0.1,0.1,0.3,0.1,0.4,0.1C236,144.8,236.1,144.6,236.1,144.5z M236.7,150.7c-0.1,0-0.3-0.1-0.3-0.3l0,0c-0.1-0.6-0.3-1.3-0.4-1.9c0-0.1-0.1-0.2-0.1-0.1c-0.2,0.1-0.4,0.1-0.6,0.2c-0.1,0-0.3,0-0.3,0.2c0.1,0.1,0.2,0,0.3,0s0.2,0,0.3,0.1c0.1,0.4,0.2,0.9,0.3,1.3c0,0.1,0.1,0.2,0.1,0.4c0,0.1-0.2,0.2-0.3,0.2s-0.2,0.1-0.1,0.2c0.1,0,0.3,0,0.4,0c0.3,0,0.6,0,0.8,0c0.1,0,0.3,0,0.2-0.1C236.9,150.7,236.8,150.8,236.7,150.7z M217.2,145.5c-0.2-0.1-0.4-0.2-0.5-0.4c0-0.1,0-0.2,0-0.2c0.1-0.1,0.3-0.1,0.5-0.1s0.4,0.2,0.5,0.4c0,0.1,0.2,0.2,0.2,0.1c0-0.1-0.1-0.2-0.2-0.4c-0.1-0.1,0-0.2-0.1-0.3s-0.2,0.1-0.3,0c-0.2-0.1-0.5-0.1-0.7,0s-0.4,0.2-0.4,0.4c0,0.3,0.2,0.6,0.4,0.8c0.3,0.2,0.6,0.2,0.9,0.4c0.2,0.1,0.4,0.3,0.4,0.6c0,0.2-0.2,0.3-0.4,0.3c-0.3,0-0.6-0.2-0.8-0.5c0-0.1-0.2-0.2-0.2-0.1c0.1,0.1,0.1,0.3,0.2,0.4c0.1,0.1,0,0.3,0.1,0.4c0.2,0.1,0.1-0.2,0.2-0.1c0.3,0.1,0.6,0.1,0.8,0.1c0.2-0.1,0.4-0.2,0.4-0.5c0-0.2-0.1-0.5-0.2-0.6C218,145.8,217.6,145.7,217.2,145.5z M217.4,136.5c-0.1-0.2-0.1-0.4-0.2-0.6c0-0.1-0.3-0.2-0.2,0c0,0.1,0.1,0.4-0.1,0.4c-0.2,0.1-0.3,0.1-0.5,0.1s-0.3-0.1-0.3-0.3c-0.2-0.5-0.4-1-0.6-1.5c-0.1-0.1-0.2-0.3,0-0.4c0.2,0,0.2-0.2,0.1-0.2c-0.3,0-0.5,0.1-0.8,0.1c-0.1,0-0.3,0-0.4,0c0,0.2,0.1,0.2,0.3,0.2s0.3,0.2,0.3,0.4l0,0l0.6,1.3c0.1,0.1,0.1,0.3,0.1,0.4c0,0.1-0.3,0-0.3,0.2c0.1,0.2,0.3,0,0.5,0c0.5,0,0.9-0.1,1.4-0.1C217.2,136.6,217.4,136.6,217.4,136.5z M216.9,134.2c0.2,0,0.3,0.2,0.3,0.4c0.2,0.4,0.4,0.8,0.5,1.3c0.1,0.1,0.1,0.3,0.1,0.4c0,0.2-0.3,0.1-0.3,0.2c0,0.1,0.2,0.2,0.3,0.1c0.2,0,0.5-0.1,0.7-0.1c0.1,0,0.3,0.1,0.3-0.1c0-0.2-0.2-0.1-0.3-0.1s-0.2-0.2-0.2-0.3c-0.2-0.5-0.4-1.1-0.7-1.6c-0.1-0.1-0.1-0.3,0.1-0.3c0.2,0,0.1-0.2,0-0.2c-0.3,0-0.6,0.1-0.8,0.1c-0.1,0-0.2,0-0.3,0C216.5,134.2,216.7,134.2,216.9,134.2z M218,133.9c0-0.1,0.3,0,0.4-0.1c0.4,0,0.8-0.1,1.2,0c0.3,0.1,0.6,0.4,0.7,0.7c0,0.2-0.1,0.3-0.2,0.4c0.1,0,0.2,0.1,0.2,0.1c0.3,0.1,0.5,0.3,0.6,0.5s0.2,0.4,0,0.6c-0.2,0.2-0.4,0.2-0.7,0.2c-0.4,0-0.7,0-1.1,0.1c-0.1,0-0.2-0.2,0-0.2s0.2-0.2,0.1-0.3l-0.6-1.4l0,0c-0.1-0.2-0.1-0.4-0.3-0.4C218.2,134.1,218,134.1,218,133.9z M219.8,135.2c-0.1,0-0.3,0-0.4,0c0,0.1,0,0.1,0.1,0.2l0.1,0.2c0.1,0.2,0.1,0.4,0.3,0.5c0.1,0.1,0.3,0,0.4,0c0.1,0,0.2-0.2,0.2-0.3C220.4,135.6,220.2,135.3,219.8,135.2z M218.9,134.1c0,0.1,0.1,0.1,0.1,0.2l0.3,0.6c0,0.1,0.2,0,0.3,0s0.2-0.1,0.2-0.2c0-0.2-0.1-0.4-0.3-0.6C219.3,134,219.1,134,218.9,134.1z M220.5,133.9c0.2,0,0.3,0.2,0.3,0.3c0.2,0.4,0.4,0.8,0.5,1.3c0.1,0.2,0.1,0.3,0.2,0.5c0,0.2-0.2,0.1-0.3,0.3c0,0.2,0.3,0.1,0.4,0.1c0.5,0,1-0.1,1.4-0.1c0.1,0,0.2,0,0.2-0.1c-0.1-0.1-0.1-0.2-0.1-0.4c0-0.1,0-0.3-0.2-0.3s0,0.3-0.1,0.4c-0.1,0.1-0.3,0.1-0.4,0.2c-0.2,0-0.4,0-0.5-0.1c-0.1-0.2-0.2-0.5-0.3-0.7c0-0.1-0.1-0.2,0-0.1c0.2,0,0.4,0,0.4,0.1c0.1,0.1,0.2,0.3,0.3,0.2c-0.1-0.2-0.2-0.3-0.2-0.5c-0.1-0.1-0.1-0.3-0.2-0.4c-0.2-0.1-0.1,0.2-0.1,0.3c-0.1,0.1-0.3,0.1-0.4,0.1c-0.1-0.2-0.2-0.4-0.3-0.6c0-0.1-0.1-0.2-0.1-0.3c0.2,0,0.4,0,0.6,0c0.1,0,0.3,0.1,0.3,0.2c0.1,0.1,0.2,0.3,0.3,0.2c0-0.1-0.1-0.3-0.2-0.4c-0.1-0.1-0.1-0.3-0.2-0.2l0,0l-1.3,0.1c-0.2,0-0.3,0-0.5,0C220.2,133.9,220.4,134,220.5,133.9z M223.1,144.4c0.1,0,0.3,0,0.3,0.1c0.1,0.4,0.3,0.9,0.4,1.4c0.1,0.2,0.1,0.4,0.1,0.5c0,0.2-0.2,0.1-0.3,0.2c0,0.1,0.1,0.2,0.2,0.1c0.2,0,0.5-0.1,0.8-0.1c0.1,0,0.3,0.1,0.3-0.1c0-0.2-0.2-0.1-0.3-0.1s-0.2-0.2-0.2-0.3l0,0l-0.5-1.5c0-0.1-0.1-0.2-0.1-0.3c0.1-0.1,0.3-0.1,0.4-0.1c0.2,0,0.3,0.2,0.4,0.4c0,0.1,0.2,0.2,0.2,0.1c-0.1-0.1-0.1-0.3-0.2-0.5c0-0.1-0.1-0.2-0.2-0.2c-0.6,0-1.3,0.1-1.9,0.1c-0.1,0-0.2,0-0.2,0.1c0.1,0.1,0.1,0.3,0.2,0.5c0,0.1,0.1,0.2,0.2,0.1c0-0.1,0-0.2,0-0.4C222.8,144.4,223,144.4,223.1,144.4z M221.7,145.9c0.1,0.1,0.1,0.3,0.1,0.4c0,0.1,0.1,0.3,0.3,0.3c0.1,0,0.3,0,0.3,0.1s-0.2,0.1-0.3,0.1c-0.2,0-0.5,0-0.7,0.1c-0.1,0-0.3,0.1-0.3-0.1c0-0.2,0.2-0.1,0.3-0.2c0-0.1,0-0.2-0.1-0.4c-0.2-0.5-0.3-0.9-0.5-1.4c-0.1-0.1-0.1-0.3-0.3-0.3c-0.1,0-0.3,0-0.3-0.2c0.1-0.1,0.2,0,0.3,0c0.3,0,0.7-0.1,1-0.1c0.4,0,0.7,0.2,0.8,0.6c0.1,0.2,0.1,0.4,0,0.6c-0.2,0.2-0.5,0.3-0.7,0.3C221.6,145.7,221.7,145.8,221.7,145.9z M221.9,145.5c0.1,0,0.2-0.2,0.2-0.3c0-0.2-0.1-0.4-0.3-0.6c-0.1-0.1-0.4-0.1-0.5-0.1c-0.1,0.1,0,0.1,0,0.2c0.1,0.3,0.2,0.5,0.3,0.8C221.6,145.5,221.8,145.5,221.9,145.5z M220.6,146.2c0,0.1,0.1,0.3,0,0.4c-0.1,0.1-0.4,0.1-0.5,0.1s-0.3,0-0.3-0.1c-0.1-0.2-0.2-0.5-0.3-0.7c-0.1-0.1,0-0.1,0.1-0.1s0.3,0,0.4,0.2c0,0.1,0.2,0.3,0.3,0.1c-0.1-0.2-0.2-0.4-0.2-0.6c0-0.1,0-0.3-0.2-0.3s0,0.2-0.1,0.3s-0.2,0.1-0.4,0.1c-0.1-0.2-0.1-0.4-0.2-0.6c0-0.1-0.1-0.2,0-0.3c0.2,0,0.4,0,0.6,0c0.2,0,0.2,0.1,0.3,0.3c0,0.1,0.2,0.2,0.2,0.1c0-0.1-0.1-0.2-0.1-0.4c0-0.1,0-0.3-0.2-0.2l-1.3,0.1c-0.2,0-0.3,0-0.5,0c-0.1,0.1,0.1,0.2,0.2,0.2c0.2,0,0.3,0.2,0.3,0.3c0.2,0.5,0.3,0.9,0.5,1.4c0,0.1,0.1,0.3,0.1,0.4s-0.3,0.1-0.2,0.2c0.1,0.1,0.3,0,0.4,0c0.5,0,0.9-0.1,1.4-0.1c0.1,0,0.2,0,0.2-0.1c-0.1-0.2-0.1-0.3-0.1-0.5C220.8,146.3,220.7,146.1,220.6,146.2z" />
    </g>
    <path fill="#448127" stroke="#34541F" stroke-width="0.1022" d="M236.1,175.4c-0.3-0.4-0.6-0.8-0.9-1.1c-4,5.3-9,10-15.3,13.4C226.9,185.7,231.5,180.5,236.1,175.4z M228.8,192.2c2.5-5.1,5.5-10.1,8.5-15.1c-0.3-0.4-0.7-0.8-1-1.2C232.9,181.5,228.9,188.3,228.8,192.2L228.8,192.2z M248.4,138.5c-0.5-2-1.1-4.1-2-6.1c-1.2-2.6-3.1-5.1-5.6-7.9c-4.4-4.8-8.8-9.4-15-12.8v-0.1l0,0h0.1l-0.1-0.1h0.2l-0.1-0.1h0.2l-0.2-0.2h0.2L226,111h0.2l-0.1-0.2h0.2l-0.2-0.2l0.3-0.1l-0.2-0.1h0.2l-0.2-0.1l0.3-0.1l-0.2-0.1l0.3-0.1l-0.3-0.2l0.3-0.1l-0.3-0.1l0.3-0.2l-0.3-0.1l0.2-0.3h-0.3l0.1-0.3H226l0,0l0.2-0.2l-0.3,0.1l0.1-0.3l-0.3,0.2l0.1-0.3l-0.3,0.2v-0.3l-0.3,0.2V108l-0.2,0.2v-0.3l-0.2,0.3v-0.3l-0.2,0.3l-0.1-0.3l-0.2,0.3l-0.1-0.3l-0.1,0.3l-0.1-0.3l-0.1,0.3l-0.1-0.3l-0.1,0.3l-0.1-0.3l-0.1,0.3l-0.1-0.3l-0.1,0.4l-0.1-0.3l-0.1,0.4L223,108v0.4l-0.2-0.3v0.4l-0.2-0.3v0.3l-0.2-0.2l0.1,0.3l-0.2-0.1l0.1,0.3l-0.2-0.1l0.1,0.3l-0.3,0l0.1,0.2l0,0H222l0.1,0.2c-0.2,0.5-0.2,1.1-0.2,1.7c0,0.1,0.3,0.2,0.3,0.3c0.1,0.2,0.1,0.3,0.1,0.3c-0.8,1.2-1.4,2.1-1.5,3.5c0.6-0.8,1.2-1.7,2.1-1.7c-0.4,0.7-0.6,2.9-0.1,3.2l0.4-0.6c0,0.5,0.1,0.8,0.2,1.1c0.1-0.3,0.3-0.6,0.4-0.8c0,0.7,0.1,1.3,0.3,1.6c0.2-0.3,0.5-0.6,0.8-0.7c-0.1,0.4-0.2,0.8-0.2,1.3c0.3-0.5,0.6-0.8,0.9-1.2c-0.2,0.7,0,1.3,0.2,2.1c0.2-1,0.3-1.1,0.7-1.5c0.1,0.9-0.1,1.7,0.1,2.2c0.4-0.8,0.7-0.7,0.9-1.2c-0.1,0.7-0.2,1.5,0,2.2c0.2-0.7,0.6-1,0.9-1.2c0,1,0.3,0.9-0.4,1.7c0.3,0.1,1.2-0.2,1.7-0.4c-0.2,0.6-0.2,1-0.4,1.4c0.5-0.2,0.9-0.7,1.4-1.1c-0.2,0.6-0.7,1.3-0.4,1.9c0.1-0.6,0.6-1.1,1.1-1.2c-0.1,0.3-0.1,1-0.6,1.3c1.1,0.1,1.6-0.7,2.2-1.3c-0.1,0.6-0.1,1.2,0.7,2c-0.2-1.1,0.1-0.9,0.6-1.6c0.2,1,0.5,2.1,1.6,2.8c-0.4-1.1-0.5-1.6-0.3-2.3c0.1,0.7,0.8,1.5,0.9,2.2c0.1-0.7,0.2-1.4,0.4-1.9c0.3,0.8,0.6,1.7,0.6,2.6c0.2-0.5,0.4-0.9,0.5-1.4c9.2,9.7,11.3,22,1.2,34.9c3.6-2.5,4.6-6.4,6.6-9.7c-2,4.4-2.9,9.2-6.3,12.9c3.4-2.9,4.1-5.6,6.1-8.4c-2.2,5.9-5.1,12.3-9.3,18.2c0.7,0.8,1.5,1.6,2.2,2.4c0.6-1.1,1.3-2.1,1.9-3.2C244.8,164.6,252,154.3,248.4,138.5L248.4,138.5z" />
    <path fill="#EAC102" stroke="#A08307" stroke-width="0.1022" d="M221.8,110.3c-0.5,0.1-0.6,0.3-1,0.7c0.4,0.1,0.8,0.1,1.2,0.1c0.1,0,0.2-0.2,0.1-0.3l-0.1-0.4c0-0.1-0.3-0.1-0.4,0L221.8,110.3z" />
    <path fill="#A08307" d="M220.8,111c0.2-0.1,0.3-0.1,0.5-0.1s0.3-0.1,0.5-0.1c-0.2,0.1-0.3,0.1-0.5,0.1S221,110.9,220.8,111z" />
    <path fill="#000000" stroke="#000000" stroke-width="0.0459" d="M223.9,109.9c0.221,0,0.4,0.179,0.4,0.4s-0.179,0.4-0.4,0.4s-0.4-0.179-0.4-0.4S223.679,109.9,223.9,109.9z" />
    <path fill="#DDDDDD" d="M224,110.2c0.055,0,0.1,0.045,0.1,0.1s-0.045,0.1-0.1,0.1s-0.1-0.045-0.1-0.1S223.945,110.2,224,110.2z" />
    <path fill="#34541F" d="M235.7,178.3l1.2-1.9L235.7,178.3c-0.3,0.7-0.7,1.3-1.1,1.9c-0.7,1.3-1.5,2.5-2.2,3.8s-1.4,2.6-2,3.9c-0.3,0.7-0.6,1.3-0.9,2c-0.3,0.7-0.5,1.4-0.8,2.1c0.2-0.7,0.5-1.4,0.7-2.1c0.3-0.7,0.5-1.4,0.8-2c0.6-1.3,1.2-2.7,1.9-4s1.4-2.6,2.2-3.8C234.9,179.5,235.3,178.9,235.7,178.3z M241.4,167.6c0.6-1.1,1.2-2.2,1.7-3.3l0.8-1.7l0.8-1.7l-1.7,3.3C242.5,165.3,242,166.4,241.4,167.6c-0.7,1-1.3,2.1-1.9,3.2c-0.3,0.5-0.6,1.1-1,1.6c-0.3,0.5-0.7,1-1,1.5c0.7-1,1.4-2,2.1-3.1C240.2,169.7,240.8,168.6,241.4,167.6z M246.8,147.8c-0.1,0.3-0.1,0.6-0.2,0.9c-0.5,2.4-1.3,4.8-2.3,7.1c-0.5,1.1-1.1,2.2-1.8,3.3c-0.7,1-1.4,2.1-2.2,3c0.8-0.9,1.6-1.9,2.2-3c0.7-1,1.3-2.1,1.8-3.3c1.1-2.2,1.8-4.6,2.4-7.1c0.1-0.3,0.1-0.6,0.2-0.9c0.2-0.9,0.2-1.9,0.3-2.8c0.1-1.2,0.1-2.5,0-3.7s-0.3-2.5-0.6-3.7s-0.7-2.4-1.2-3.5c0.5,1.2,0.8,2.3,1.1,3.5s0.5,2.4,0.6,3.7c0.1,1.2,0.1,2.5,0,3.7C247,146,246.9,146.9,246.8,147.8z M232.3,178.7c0.6-0.6,1.1-1.3,1.7-1.9c0.5-0.7,1-1.3,1.5-2c-0.5,0.7-1,1.3-1.6,2C233.3,177.4,232.8,178,232.3,178.7c-1.2,1.2-2.4,2.4-3.7,3.5s-2.7,2.1-4.1,3c-0.7,0.5-1.5,0.9-2.2,1.3c-0.8,0.4-1.5,0.8-2.3,1.1c0.8-0.3,1.6-0.7,2.3-1.1c0.8-0.4,1.5-0.8,2.2-1.2c1.5-0.9,2.8-1.9,4.1-3C229.9,181.2,231.1,180,232.3,178.7z M243.6,153.6c0.5-1.1,1-2.2,1.4-3.3c0.2-0.6,0.4-1.1,0.6-1.7l0.2-0.4c0-0.1,0.1-0.3,0.1-0.4c0.1-0.3,0.2-0.6,0.3-0.8c0.2-1.2,0.4-2.4,0.4-3.6c0-1.2-0.1-2.4-0.3-3.6c-0.2-1.2-0.5-2.4-0.8-3.5c-0.3-1.2-0.8-2.3-1.2-3.4c0.5,1.1,0.9,2.3,1.2,3.4c0.3,1.2,0.6,2.3,0.8,3.5s0.3,2.4,0.3,3.6c0,1.2-0.1,2.4-0.4,3.6l0,0c-0.1,0.3-0.2,0.6-0.3,0.9c-0.1,0.1-0.1,0.3-0.1,0.4l-0.2,0.4c-0.2,0.6-0.4,1.1-0.6,1.7C244.5,151.4,244.1,152.5,243.6,153.6c-0.6,1-1.2,2.1-1.8,3.1s-1.4,1.9-2.3,2.7c0.9-0.8,1.6-1.7,2.3-2.7C242.5,155.7,243.1,154.6,243.6,153.6z M239.3,169.6c0.3-0.4,0.6-0.8,0.8-1.2c0.5-0.8,0.9-1.7,1.4-2.5c0.4-0.9,0.9-1.7,1.3-2.6c0.8-1.7,1.7-3.5,2.3-5.3c0.7-1.8,1.2-3.6,1.6-5.5c0.4-1.9,0.7-3.8,0.9-5.7s0.2-3.8,0-5.8c-0.2-1.9-0.7-3.8-1.3-5.6c-0.7-1.8-1.5-3.5-2.4-5.2c0.9,1.7,1.8,3.4,2.4,5.2c0.7,1.8,1.1,3.7,1.3,5.6c0.2,1.9,0.2,3.8,0,5.7s-0.5,3.8-0.9,5.7s-0.9,3.7-1.6,5.5c-0.7,1.8-1.5,3.5-2.3,5.3c-0.4,0.9-0.8,1.7-1.3,2.6c-0.4,0.9-0.9,1.7-1.4,2.5C239.8,168.8,239.5,169.2,239.3,169.6l-0.9,1.2c-0.6,0.8-1.1,1.6-1.7,2.3c0.6-0.8,1.1-1.6,1.7-2.3L239.3,169.6z M226.3,113.1c-0.4-0.1-0.8-0.2-1.3-0.2c0.2,0,0.4,0,0.7,0C225.9,112.9,226.1,113,226.3,113.1c0.5,0.1,0.9,0.2,1.3,0.4c0.8,0.4,1.6,0.8,2.3,1.4c0.7,0.5,1.4,1.1,2,1.8c0.3,0.3,0.6,0.6,0.9,1c0.2,0.2,0.4,0.5,0.5,0.7c0,0,0,0,0.1,0c0.2,0.2,0.4,0.3,0.6,0.5c0.2,0.2,0.4,0.3,0.5,0.5c0.2,0.2,0.3,0.4,0.5,0.6l0.1,0.1H235c-0.4-0.1-0.7-0.2-1.1-0.3c-0.2-0.1-0.4-0.2-0.6-0.3c0.1,0.1,0.2,0.3,0.3,0.4l0.1,0.1l-0.1-0.1c-0.4-0.1-0.7-0.3-1-0.5s-0.7-0.4-1-0.6c-0.2-0.1-0.4-0.3-0.7-0.4c0,0.1,0.1,0.1,0.1,0.2l0,0c0.1,0.1,0.2,0.1,0.3,0.2c0.2,0.2,0.4,0.4,0.6,0.6c0.2,0.2,0.4,0.4,0.5,0.7v0.1h-0.1c-0.2,0-0.4-0.1-0.6-0.1s-0.4-0.2-0.5-0.2c-0.3-0.1-0.5-0.3-0.8-0.4c0.2,0.2,0.3,0.4,0.4,0.6v0.1h-0.1c-0.3,0-0.5-0.1-0.7-0.2s-0.4-0.2-0.7-0.3c-0.2-0.1-0.4-0.3-0.6-0.4c-0.2-0.2-0.4-0.3-0.6-0.5c0.2,0.2,0.4,0.3,0.6,0.4c0.2,0.1,0.4,0.3,0.6,0.4s0.4,0.2,0.6,0.3c0.1,0,0.2,0.1,0.3,0.1s0.2,0,0.2,0c-0.1-0.2-0.3-0.4-0.4-0.6c-0.2-0.2-0.4-0.4-0.6-0.6c-0.2-0.2-0.4-0.4-0.7-0.5s-0.5-0.3-0.7-0.4c0.1,0,0.2,0.1,0.3,0.2c-0.1,0-0.1-0.1-0.2-0.1c-0.1-0.1-0.3-0.2-0.4-0.3c-0.1-0.1-0.3-0.2-0.4-0.4c0.1,0.1,0.3,0.2,0.4,0.3c0.1,0.1,0.3,0.2,0.4,0.3c0.3,0.2,0.6,0.3,0.9,0.5c0.6,0.3,1.2,0.6,1.8,0.9c-0.1-0.2-0.2-0.3-0.3-0.4s-0.2-0.3-0.3-0.4c-0.3-0.2-0.6-0.4-1-0.6l0.9,0.5l0,0c-0.3-0.3-0.6-0.6-0.9-0.9c-0.3-0.3-0.7-0.6-1-0.9s-0.7-0.6-1-0.8c0.4,0.2,0.7,0.5,1.1,0.8c0.4,0.3,0.7,0.6,1,0.8c0.3,0.3,0.7,0.6,1,0.9c0.1,0.1,0.1,0.2,0.2,0.2l0.8,0.5c0.3,0.2,0.7,0.4,1,0.6c0.2,0.1,0.3,0.2,0.5,0.3c0.1,0.1,0.2,0.1,0.3,0.2c-0.1-0.2-0.2-0.4-0.3-0.6c-0.2-0.2-0.3-0.4-0.5-0.6s-0.4-0.4-0.6-0.6l0,0c-0.2-0.1-0.4-0.2-0.7-0.3c-0.3-0.2-0.6-0.3-0.9-0.5c-0.1-0.1-0.3-0.2-0.4-0.3c-0.1-0.1-0.3-0.2-0.4-0.4c0.1,0.1,0.3,0.2,0.4,0.3c0.1,0.1,0.3,0.2,0.4,0.3c0.3,0.2,0.6,0.3,0.9,0.5c0.6,0.3,1.2,0.6,1.8,0.8c-0.1-0.2-0.2-0.4-0.3-0.5c-0.2-0.2-0.3-0.4-0.5-0.6s-0.4-0.3-0.6-0.5c-0.2-0.1-0.4-0.3-0.6-0.4c0.5,0.2,0.9,0.5,1.3,0.8c0.2,0.2,0.4,0.4,0.5,0.6c0.1,0.1,0.1,0.2,0.2,0.2c0.1,0.1,0.3,0.2,0.4,0.2c-0.2-0.2-0.3-0.4-0.5-0.6c-0.3-0.3-0.6-0.7-0.9-1c-0.6-0.6-1.3-1.2-2-1.8c-0.7-0.5-1.5-1-2.3-1.4C227.1,113.4,226.7,113.2,226.3,113.1z M231,118.6c0.1,0.1,0.2,0.3,0.2,0.4v0.1l-0.1-0.1c-0.3-0.1-0.6-0.3-0.9-0.5c-0.3-0.2-0.6-0.3-0.9-0.5c0,0,0,0-0.1,0c0.2,0.1,0.3,0.2,0.5,0.4c0.2,0.2,0.3,0.3,0.5,0.5c0.3,0.2,0.7,0.4,1,0.5c0.2,0.1,0.3,0.2,0.5,0.2c0.1,0.1,0.3,0.1,0.4,0.1c-0.1-0.2-0.3-0.4-0.4-0.6c-0.2-0.2-0.4-0.4-0.6-0.6C231,118.7,231,118.7,231,118.6z M233.5,118.5l0.1,0.1C233.5,118.6,233.5,118.6,233.5,118.5c-0.1-0.1-0.1-0.1-0.2-0.2c-0.1-0.1-0.3-0.2-0.4-0.3c0.1,0.1,0.1,0.3,0.2,0.4v0.1H233c-0.3-0.1-0.6-0.3-1-0.4c0,0-0.1,0-0.1-0.1c0.2,0.1,0.4,0.3,0.5,0.4c0.2,0.2,0.4,0.4,0.6,0.6c0,0.1,0.1,0.1,0.1,0.2c0.2,0.1,0.5,0.2,0.8,0.4c0.3,0.1,0.6,0.2,0.9,0.3c-0.1-0.2-0.2-0.3-0.4-0.5s-0.3-0.4-0.5-0.5C233.7,118.8,233.6,118.7,233.5,118.5z M247.9,138.8c-0.4-2.1-1-4.1-1.9-6s-2-3.7-3.3-5.4c1.3,1.7,2.4,3.5,3.3,5.4C246.8,134.7,247.4,136.8,247.9,138.8c0.3,2.1,0.5,4.2,0.5,6.3s-0.2,4.2-0.4,6.3c-0.1,0.5-0.1,1-0.2,1.6c-0.1,0.5-0.2,1-0.3,1.6c-0.2,1-0.5,2.1-0.8,3.1c-0.6,2-1.4,4-2.3,5.9c-0.9,1.9-2,3.7-3,5.6c-1,1.8-2.1,3.6-3.3,5.4c1.1-1.8,2.2-3.6,3.3-5.4c1.1-1.8,2.1-3.7,3.1-5.5c0.9-1.9,1.8-3.9,2.4-5.9c0.3-1,0.6-2,0.8-3.1c0.1-0.5,0.2-1,0.3-1.6c0.1-0.5,0.2-1,0.2-1.6c0.3-2.1,0.4-4.2,0.4-6.3C248.5,143,248.3,140.9,247.9,138.8z M228.2,117.8L228.2,117.8L228.2,117.8L228.2,117.8z" />
  </g>
</svg>
