<svg xmlns="http://www.w3.org/2000/svg" width="450px" height="300px" viewBox="0 0 450 300">
  <path fill="#DE2910" d="M0,0h450v300H0V0z" />
  <path fill="#FFFFFF" d="M246,62.6c-48.9-3.3-72.3,61.3-25.3,85.3c-4.8-3.8-8.5-9.6-10.4-16.4c-2.7-9.7-1.1-20.1,4.2-28.6l1.1,0.7c-5.1,8.1-6.6,18.2-4,27.5c1.9,6.9,5.9,12.9,11,16.5c-8.6-9.4-5.1-24.7,8.2-30.7c8.8-4,15.9-20.3,9.4-30.4C234.4,77.6,235.8,67.8,246,62.6z M222.1,100.5l-3,4.6l-1.1-5.4l-5.3-1.4l4.8-2.7l-0.3-5.5l4,3.7l5.1-2l-2.3,5l3.5,4.3L222.1,100.5z M225.6,145.3c2.2-5.8,6.5-11.1,12.4-15c8.4-5.5,18.8-7.3,28.5-4.8l-0.3,1.3c-9.3-2.4-19.3-0.7-27.4,4.7c-6,4-10.4,9.6-12.3,15.6c6.3-11.1,21.9-12.5,31.7-1.7c6.5,7.1,24.2,8.9,31.8-0.4c6.8-8.3,16.5-9.9,24.7-1.9C302.7,95.4,234,93.1,225.6,145.3z M275.3,132.7l-3,4.6l-1.1-5.4l-5.3-1.4l4.8-2.7l-0.3-5.5l4,3.7l5.1-2l-2.3,5l3.5,4.3L275.3,132.7z M229.7,149.1c6.2,0.3,12.6,2.8,18.1,7.2c7.8,6.3,12.7,15.6,13.4,25.6l-1.3,0.1c-0.6-9.6-5.3-18.6-12.9-24.6c-5.6-4.5-12.4-7-18.6-6.9c12.5,2.6,18.6,16.9,11.4,29.6c-4.8,8.4-1,25.7,10.3,30.1c10,3.9,14.6,12.7,9.4,22.9C300.9,207,281.9,141,229.7,149.1z M261,193.2l-3,4.6l-1.1-5.4l-5.3-1.4l4.8-2.7l-0.3-5.5l4,3.7l5.1-2l-2.3,5l3.5,4.3L261,193.2z M227.3,154.2c1.7,5.9,1.3,12.8-1.2,19.4c-3.5,9.4-10.9,16.9-20.2,20.6l-0.5-1.2c8.9-3.6,16-10.8,19.4-19.9c2.5-6.7,2.8-13.9,0.8-19.9c1.4,12.7-10.3,23-24.7,20c-9.4-2-24.8,7-25.5,19.1c-0.6,10.7-7.5,17.8-18.9,16C194.2,239.8,251.1,201.3,227.3,154.2z M199,198.4l-3,4.6l-1.1-5.4l-5.3-1.4l4.8-2.7l-0.3-5.5l4,3.7l5.1-2l-2.3,5l3.5,4.3L199,198.4z M202.9,158.3c-10-0.5-19.5-5.1-25.9-12.8l1-0.8c6.2,7.4,15.3,11.9,24.9,12.3c7.2,0.3,14.1-1.6,19.1-5.4c-11.6,5.3-25-2.7-26.6-17.3c-1-9.6-14.3-21.4-26-18.3c-10.4,2.7-19.2-1.7-21.1-13c-18.3,45.5,35.9,87.7,73.3,50.5C216.6,156.9,209.9,158.6,202.9,158.3z M172.1,145.7l-1.1-5.4l-5.3-1.4l4.8-2.7l-0.3-5.5l4,3.7l5.1-2l-2.3,5l3.5,4.3L175,141L172.1,145.7z" />
</svg>
