<svg xmlns="http://www.w3.org/2000/svg" width="450px" height="300px" viewBox="0 0 450 300">
  <path fill="#006699" d="M0,0h450v300H0V0z" />
  <path fill="#FFFFFF" d="M0,161.538h450v23.077H0V161.538z M0,230.769h450v-23.077H0V230.769z M0,276.923h450v-23.077H0V276.923z M0,23.077v23.077h450V23.077H0z M0,92.308h450V69.231H0V92.308z M0,138.461h450v-23.077H0V138.461z" />
  <path fill="#DD0000" d="M0,0h120v300H0V0z" />
  <path fill="#FFFFFF" d="M79.072,156.197l30.858-22.42H71.787L60,97.5l-11.787,36.277H10.07l30.858,22.42l-11.787,36.276L60,170.053l30.859,22.42L79.072,156.197z" />
</svg>
