<svg xmlns="http://www.w3.org/2000/svg" width="450px" height="300px" viewBox="0 0 450 300">
  <path fill="#FFFFFF" d="M450,300H0V0h450V300z" />
  <path fill="#000000" d="M177.305,235.16c-2.853-0.351-6.577-0.591-9.525-1.401c-2.45-0.747-3.35-1.894-3.919-4.423c-2.597-2.843-2.612-6.436-3.008-9.946c-0.08-0.712-0.603-1.514-1.16-2.005c-1.751-1.544-1.702-4.262-0.139-5.981c0.745-0.819,0.994-2.214,1.178-3.393c0.433-2.773,0.68-5.574,1.026-8.361c0.204-1.644,0.919-2.781,2.762-3.037c0.509-0.071,0.967-0.722,1.388-1.164c0.404-0.425,0.634-1.144,1.108-1.35c3.63-1.503-1.73-4.128,2.542-8.329c0.841-0.85,1.596-1.911,2.02-3.019c0.932-2.433,2.521-3.314,5.101-2.928c3.057,0.458,4.858-0.501,5.057-3.848c0.396-6.135,2.087-12.361,0.703-18.483c-0.964-4.505-2.492-8.9-2.203-13.605c0.029-0.479-0.066-0.992,0.074-1.432c0.72-2.254,0.764-4.112-1.726-5.519c-0.734-0.415-1.006-2.086-1.028-3.19c-0.021-1.035-0.103-1.591-1.223-1.698c-2.866-0.188-2.109-3.691-3.885-5.138c-2.51-2.176-3.767-4.905-4.155-8.141c-0.075-0.621-0.477-1.209-0.759-1.798c-0.71-1.482-1.3-2.951-0.685-4.656c0.156-0.434-0.017-1.043-0.177-1.526c-0.812-2.447-0.882-4.73,1.36-6.587c-1.185-2.256-0.702-4.118,1.094-5.805c0.442-0.415,0.519-1.253,0.684-1.916c0.184-0.743,0.007-1.858,0.456-2.206c2.091-1.619,0.991-3.879,1.546-5.779c-0.166-0.102-0.331-0.205-0.497-0.307c-0.355,0.553-0.676,1.132-1.073,1.653c-0.741,0.973-1.367,2.142-2.332,2.81c-1.441,0.997-3.824,0.662-4.455-0.868c-1.08-2.618-3.813-3.755-4.928-6.168c-1.026-2.22-2.45-3.921-4.501-5.285c-2.434-1.542-4.623-4.752-3.778-7.62c0.777-1.978,2.178-3.787,3.616-5.401c0.887-0.996,1.643-1.837,1.579-3.223c-0.148-3.224,1.58-5.075,4.435-6.232c2.667-1.055,5.252-2.405,6.401-5.208c1.377-2.459,3.166-5.643,6.705-5.296c0.642,0.063,1.51-0.382,2-0.867c2.187-2.166,6.648-2.379,8.78-0.13c1.155,1.219,2.425,1.681,4.013,2.025c2.901,0.627,5.723,1.618,8.673,2.486c1.167-1.936,2.57-4.016,3.674-6.243c0.354-0.714,0.081-1.872-0.193-2.736c-1.558-4.061,0.233-9.567,5.339-9.106c1.031,0.009,2.248-0.246,3.206-0.629c2.547,0.67,4.84-0.969,7.336-0.792c0.982,0.082,2.005-0.292,2.94-0.488c2.59,0.195,5.248,0.248,7.803,0.593c2.044-0.818,4.06-0.165,6.116-0.041c2.504,0.151,5.041-0.309,7.567-0.425c3.315-0.152,7.063,2.243,6.454,5.8c-0.087,0.506,0.189,1.208,0.53,1.632c1.672,2.078,1.936,4.425,1.597,6.955c-0.072,0.535-0.075,1.397,0.236,1.615c1.968,1.381,2.706,3.45,3.434,5.559c0.09,0.26,0.308,0.475,0.237,0.369c2.383-0.632,4.558-1.148,6.689-1.807c0.801-0.247,1.673-0.67,2.218-1.277c4.474-4.986,12.125-5.497,17.139-0.998c1.813,1.627,3.745,3.203,4.045,5.955c0.05,0.463,1.08,0.987,1.746,1.183c1.892,0.558,3.883,0.811,5.737,1.461c2.631,0.923,4.242,2.784,3.87,5.742c-0.267,2.126,0.899,3.467,2.132,4.891c5.109,5.807,4.954,7.817-1.197,12.557c-2.019,1.857-4.729,3.132-5.315,6.222c-0.053,0.281-0.206,0.594-0.412,0.787c-1.865,1.746-3.646,3.605-5.666,5.153c-1.564,1.199-4.039-0.104-4.989-2.401c-0.251-0.607-0.239-1.423-0.655-1.832c-0.395-0.389-1.234-0.57-1.792-0.448c-0.264,0.058-0.635,1.202-0.434,1.565c1.282,2.32,2.78,4.522,4.054,6.847c0.668,1.413,0.823,3.136,1.032,4.697c0.424,2.841,0.927,5.673,1.232,8.526c0.082,0.769-0.452,1.595-0.659,2.406c-0.712,2.347-0.952,4.969-1.823,7.226c-0.856,1.493-1.937,2.767-1.599,4.742c0.102,0.594-0.837,1.573-1.526,2.049c-1.148,0.793-1.712,1.78-2.253,3.057c-1.719,3.718-4.137,7.129-5.658,10.967c-0.097,0.211-0.015,0.536-0.151,0.692c-2.113,2.428-1.284,5.352-1.283,8.083c0.001,4.594-0.527,9.087-1.874,13.478c-0.779,2.54-0.886,4.918,0.36,7.473c1.17,2.397,1.709,5.099,2.558,7.656c0.872,3.134,1.594,2.55,4.605,2.581c2.993-0.36,4.94,0.905,6.012,3.706c0.24,0.629,0.731,1.258,1.275,1.658c2.193,1.611,2.759,2.97,1.88,5.533c-0.354,1.03-0.092,1.479,0.651,2.249c1.205,1.25,1.846,3.05,3.068,4.275c2.82,2.825,4.141,6.153,4.28,10.08c0.019,0.53,0.575,1.168,1.054,1.532c2.103,1.598,2.054,4.4-0.035,6.085c-0.677,0.546-1.306,1.451-1.464,2.285c-0.653,3.436-1.125,6.905-4.068,9.329c-1.655,5.177-6.152,6.28-10.636,7.375c-1.527,0.373-2.681,0.6-2.273,2.85c0.45,2.487-2.579,5.654-5.743,6.28c-2.516,0.498-5.105,0.667-7.671,0.862c-21.591,0.199-43.204,0.272-64.802,0.393c-3.415,0.014-6.835-0.137-10.244-0.347c-3.001-0.185-5.296-1.796-6.51-4.443C177.053,238.603,177.394,236.925,177.305,235.16z M240.098,126.966c0.955,1.257,1.951,2.479,3.023,3.638c0.65-0.774,1.749-1.496,1.847-2.335c0.153-1.309-0.372-2.697-0.687-4.492c-2.931,3.497,1.403,3.867-0.92,5.935c-1.213-1.019-2.239-1.881-3.266-2.743c-1.066-0.536-2.25-0.732-2.095-2.56c0.091-1.074-0.904-2.243-2.805-2.265c1.006,1.489,1.164,2.648,1.548,4.258c0.221,0.806,0.467,1.608,0.749,2.395c0.105,0.757,1.342,1.995,0.314,2.22c-0.782-0.499-1.563-0.998-2.613-1.669c0.781,2.192,1.562,2.602,3.19,1.994c1.692-0.631,2.029-1.419,1.27-3.212C239.394,127.52,238.996,126.997,240.098,126.966z M163.657,81.921c-1.272-0.436-1.039-0.167-1.481,0.987c-0.743-1.164-1.387-2.173-2.032-3.183c-0.254,0.147-0.507,0.294-0.761,0.44c0.458,0.965,0.917,1.93,1.375,2.895c-0.083,0.098-0.166,0.197-0.249,0.295c-4.667-3.772-1.145,0.39,0.505,2.583c1.981-1.318,4.709-3.094,7.092-3.964c1.412-0.489,1.851-1.021,1.063-2.295c-0.91-1.471-1.873-2.93-2.994-4.239c-0.572-0.668-1.541-0.998-2.331-1.48c-0.084,0.146-0.168,0.292-0.253,0.439c0.514,0.448,1.101,0.838,1.521,1.362c0.443,0.552,0.664,1.277,1.089,1.847c1.976,2.656,1.989,2.646-0.85,4.449c-0.353,0.225-0.685,0.523-1.071,0.632c-0.111,0.032-0.376-0.476-0.57-0.736c1.131-0.597,2.241-1.188,2.567-2.536c0.025-0.063-0.415-0.312-0.639-0.475c-0.179,0.463-0.357,0.925-0.555,1.438C163.091,79.449,163.451,80.755,163.657,81.921z M264.229,114.371c0.745,1.889,1.522,3.61,3.24,4.821c0.12-0.125,0.241-0.25,0.361-0.376c-1.654-2.611-1.812-3.541-0.737-5.44c0.377-0.666,0.961-1.212,1.433-1.827c1.266-1.65,0.917-3.6-0.965-4.727c-0.681,2.278-1.308,4.54-2.068,6.756c-0.126,0.368-0.832,0.538-1.27,0.8c-1.733-2.11-1.936-3.209-0.887-5.002c1.251-1.782,2.543-3.736,0.423-5.774c-0.857,1.628-1.614,3.065-2.368,4.495c-2.316-1.289-2.559-3.129-0.728-4.925c1.331-1.306,1.269-1.85-0.331-2.775c-0.643,0.771-1.321,1.521-1.927,2.325c-1.177,1.56-0.733,4.224,1.026,5.194c1.168,0.644,1.57,1.419,1.622,2.694C261.142,112.712,262.216,113.87,264.229,114.371z M240.096,112.214c0.771-0.454,1.91-0.724,2.246-1.396c1.023-2.048-1.091-2.733-2.304-3.799c1.117-0.702,2.077-1.177,2.86-1.856c0.344-0.298,0.624-1.27,0.427-1.497c-1.674-1.922-3.464-3.742-5.311-5.689c-0.946,2.922-0.587,3.973,1.626,5.308c1.822,1.099,1.822,1.673-0.055,2.859c-0.931-1.129-1.87-2.269-2.81-3.409c-0.205,1.15,0.172,2.065,0.12,2.956c-0.1,1.716,0.63,2.661,2.169,3.263c1.601,0.626,2.046,1.748,1.036,3.265c-0.531-0.4-1.095-0.763-1.584-1.209c-0.845-0.77-1.643-1.59-2.461-2.39c-0.173,0.163-0.347,0.325-0.52,0.488c0.529,0.813,1.5,1.625,1.504,2.44c0.009,2.248,1.36,3.395,2.867,4.648c1.387,1.153,1.177,1.979-0.613,3.007c-4.288-6.156-3.232-4.646-2.043,1.489c1.988,0.356,3.457,1.62,3.641,4.226c0.485-0.597,1.015-1.235,0.886-1.682c-0.333-1.151-0.958-2.217-1.517-3.426c2.846-1.962,3.375-3.933,0.16-6.276C240.138,113.32,240.195,112.665,240.096,112.214z M259.186,89.548c-0.015-2.196,0.764-3.691,3.059-4.472c0.919-0.313,1.654-1.561,2.174-2.542c0.591-1.114-0.211-1.981-1.47-1.677c-1.145,0.277-2.253,0.712-2.83,0.9c-0.503,1.181-0.622,2.188-1.188,2.662c-1.956,1.638-1.928,3.619,0.253,5.131c0,2.923,2.744,4.915,2.684,7.884c-0.009,0.464,0.361,1.153,0.758,1.371c2.753,1.517,3.167,5.464,6.597,6.282c0.352,0.084,0.537,0.756,0.86,1.098c1.368,1.452,2.66,3.002,4.186,4.268c0.671,0.557,1.182,0.849,1.297,1.845c0.2,1.734,2.163,2.644,3.239,1.834c-0.63-0.467-1.915-1.109-1.84-1.422c0.213-0.881,0.976-1.635,1.548-2.421c0.135-0.186,0.371-0.299,0.563-0.443c1.148-0.86,1.253-1.891,0.404-3.465c-1.121,1.036-2.088,1.956-3.088,2.838c-0.324,0.286-0.736,0.473-1.108,0.705c-0.202-0.461-0.646-0.98-0.553-1.371c0.4-1.909,2.007-3.23,2.999-4.806c0.307-0.553,0.195-1.338,0.271-2.019c-0.227-0.066-0.453-0.132-0.68-0.199c-1.414,1.667-2.822,3.34-4.248,4.997c-0.283,0.329-0.682,0.863-0.955,0.821c-0.372-0.057-0.804-0.515-0.983-0.904c-1.103-2.57,2.062-3.502,3.418-4.989c0.593-0.614,1.036-1.333,0.034-2.116c-0.835-0.653-1.579-0.914-2.309,0.019c-0.692,0.885-1.372,1.793-1.935,2.761c-0.424,0.729-0.729,1.851-1.724,1.191c-2.012-1.781-0.795-3.366,1.037-4.604c2.065-1.418,2.097-2.439-0.135-3.819c-1.513,1.527-3.037,3.064-4.825,4.869c-1.231-1.934-0.679-4.109,1.611-5.071c1.875-0.815,2.2-1.869,1.307-3.508c-1.942,0.87-3.888,1.741-6.084,2.725c0-0.495-0.053-0.995,0.009-1.481c0.34-2.661,3.346-1.871,4.681-3.416c-0.663-0.836-1.242-1.567-1.971-2.486C262.527,87.55,260.856,88.549,259.186,89.548z M206.598,197.132c0.055,0.507,0.111,1.013,0.203,1.86c0.961-1.2,1.715-2.143,2.47-3.085c-1.098-0.056-1.879,0.585-2.664,1.215c0.076-1.314-0.897-1.019-1.615-1.006c-6.41,0.12-12.819,0.244-19.228,0.409c-1.261,0.033-2.517,0.247-3.775,0.378c0.002,0.159,0.005,0.317,0.007,0.476c0.712,0.149,1.424,0.298,1.713,0.358c0.314,1.755,0.483,3.288,0.879,4.76c0.51,1.895,1.166,3.753,1.837,5.599c0.208,0.573,0.61,1.447,1.028,1.513c3.021,0.473,6.069,0.772,9.107,1.132c1.433,0.169,1.725-0.586,1.655-1.839c-0.092-2.19-0.015-4.485,0.236-6.647c0.381-0.156,0.953-0.229,1.278-0.551c1.404-1.388,2.838-2.768,4.061-4.309C204.751,196.188,205.561,196.141,206.598,197.132z M179.953,75.154c-1.739-0.844-3.478-1.689-5.461-2.652c0.361,0.894,0.54,1.927,1.114,2.644c1.381,1.723,2.958,3.287,4.434,4.936c1.322,1.477,1.226,2.294-0.03,3.219c-1.494-1.304-2.924-2.552-4.354-3.8c-0.252,0.168-0.504,0.337-0.755,0.505c0.41,1.101,0.67,2.293,1.274,3.275c1.778,2.579,5.492,3.656,2.74,7.128c-0.211,0.319-0.331,0.699-0.497,1.06c1.67,0.625,3.047,0.068,3.772-1.705c0.36-0.88,0.289-1.951,0.344-2.939c0.105-1.904-2.022-0.974-2.752-2.066c0.311-0.194,0.53-0.376,0.782-0.479c2.164-0.891,2.869-2.348,1.923-4.534c-0.35-0.808-1.267-1.354-1.83-2.092c-0.545-0.714-2.135-1.198-0.707-2.49c1.21,1.121,2.059,0.969,2.65-0.476c1.278-3.073-0.253-5.675-2.837-7.589c0.373-0.114,0.574-0.251,0.693-0.2c0.973,0.418,1.93,0.872,2.892,1.315c1.336-1.942,1.269-2.396-1.009-6.472c0.701,0.089,1.305,0.166,2.251,0.285c-0.502-1.333-0.935-2.351-0.502-3.612c1.321-2.869,0.991-5.607-0.571-8.23c-1.041-1.748-3.02-2.644-4.939-1.952c-1.263,0.455-2.295,1.548-3.586,2.466c-0.941-0.96-2.294-1.816-4.216-1.092c2.264,1.25,2.394,1.413,2.373,2.926c-0.173-0.072-0.373-0.095-0.478-0.207c-1.047-1.119-2.239-1.229-3.322-0.216c-1.086,1.015-0.866,2.219-0.127,3.432c0.738,1.213,1.712,1.627,3.131,1.605c1.55-0.024,3.235,0.142,3.939,1.891c0.691,1.719-0.512,2.631-1.717,3.522c-0.257,0.19-0.306,0.663-0.451,1.006c0.38,0.094,0.778,0.314,1.137,0.261c3.96-0.814,5.26-6.445,1.231-8.143c-0.481-0.255-0.95-0.531-1.77-0.99c2.733-0.227,5.166,2.018,5.605,4.686c1.041,8.141-11.418,3.947-2.021,7.661c0.394,0.195,0.465,1.042,0.684,1.591c-0.54,0.212-1.066,0.485-1.625,0.618c-0.518,0.123-1.071,0.095-1.609,0.133c0.353,0.672,0.543,1.624,1.099,1.95c0.783,0.458,1.888,0.33,2.76,0.687C181.645,73.062,181.188,73.627,179.953,75.154z M271.433,70.483c-0.671-0.566-1.847-1.096-1.891-1.708c-0.061-0.832,0.606-1.846,1.222-2.555c0.419-0.482,1.343-0.486,1.936-0.868c1.925-0.988,1.728-3.126,2.12-4.989c-0.51,0.402-0.997,0.786-1.666,1.313c0.172-1.306,0.285-2.355,0.452-3.395c0.203-1.263,0.912-1.867,2.152-1.266c2.701,1.479,4.949-2.308,3.458-4.634c-0.709,0.625-1.315,1.16-2.297,2.025c0.535-1.547,0.878-2.538,1.222-3.529c-0.149-0.046-0.297-0.091-0.446-0.137c-0.805,0.916-1.61,1.833-2.415,2.749c-0.558-0.256-0.313-0.652-0.07-1.075c1.296-2.1,0.791-3.473-1.551-4.188c-4.513-1.378-8.37,0.51-9.982,4.883c-0.119,0.323-0.266,0.636-0.327,0.779c-1.535,0-2.905,0-4.574,0c0.778-0.615,1.342-1.062,1.907-1.508c-1.678,0.358-3.298,0.827-4.727,1.635c-2.183,1.235-3.985,2.894-4.456,5.563c-0.37,2.095,0.741,4.224,2.757,4.937c-0.405-1.747,0.668-2.441,2.032-2.541c2.211-0.162,4.278-0.416,5.415-2.676c0.016-0.032,0.222,0.032,0.34,0.051c0.299,1.696-0.658,2.838-1.756,3.894c-1.439,1.385-3.094,1.191-4.271,0.604c-1.212,1.737-2.682,2.995-2.721,4.999c0.064,0.505,0.933,0.908,1.639,1.529c0.26-2.24,0.863-2.692,2.872-2.837c0.912-0.066,2.434-0.125,2.607-0.588c0.911-2.432,2.723-4.743,1.648-7.614c0-1.495,0-2.991,0-4.486c0.191-0.03,0.383-0.061,0.574-0.091c0.359,1.532,0.717,3.063,1.076,4.595c0.168-0.016,0.337-0.031,0.505-0.047c0.452-0.716,0.905-1.432,1.357-2.147c0.194,0.079,0.388,0.157,0.582,0.236c-0.434,1.133-0.809,2.293-1.316,3.392c-0.672,1.458-1.632,2.808-2.124,4.317c-0.453,1.39,0.766,1.851,1.879,2.043c1.25,0.216,1.267-0.606,1.276-1.559c0.019-2.108,1.109-3.181,3.132-3.783c1.464-0.615,2.452-1.537,3.569-2.857c0.217,3.391-1.075,5.241-3.932,6.195c-1.595,0.532-2.048,2.822-1.111,4.588c0.821,1.548,2.233,1.818,3.9,0.746c-0.126,0.567-0.067,1.318-0.413,1.668c-2.686,2.743-4.93-2.554-6.312,0.904c-0.373,1.133-0.669,2.468-0.424,3.588c0.516,2.359,1.927,2.863,4.168,1.852c0.505-0.228,1.041-0.389,1.648-0.613c0.507,1.807-0.626,2.413-1.629,2.997c-1.799,1.047-2.704,2.493-2.35,4.602c0.247,1.472,1.143,1.965,2.641,1.478c-2.583-2.71-0.513-3.903,2.204-5.086c2.561-1.147,3.547-3.571,2.531-6.404c-0.26,0.155-0.588,0.242-0.733,0.454c-1.293,1.892-3.366,1.531-5.202,1.766c-0.393,0.05-0.856-0.444-1.287-0.687c0.237-0.385,0.385-0.952,0.729-1.122c1.012-0.5,2.083-0.904,3.164-1.237c3-0.923,4.834-4.323,4.008-7.522C271.812,67.468,271.092,68.354,271.433,70.483z M165.519,72.624c1.474,1.824,2.939,3.671,4.325,5.564c0.585,0.809,1.529,2.125,1.252,2.626c-0.527,0.953-1.785,2.034-2.793,2.09c-3.15,0.176-4.192,2.902-6.154,4.522c0.939-0.281,1.878-0.562,3.122-0.934c-0.302,0.8-0.525,1.222-0.614,1.67c-0.108,0.549-0.285,1.534-0.115,1.608c0.595,0.26,1.351,0.349,1.997,0.231c0.464-0.084,0.832-0.628,1.274-0.917c0.424-0.277,0.89-0.49,1.666-0.908c0.338-1.484,1.037-3.147,3.415-3.234c0.177-0.006,0.564-1.031,0.434-1.453c-0.465-1.511-0.102-2.768,0.606-4.117c0.352-0.671,0.228-1.63,0.198-2.455c-0.065-1.817-0.671-3.756-0.224-5.421c1.066-3.968-1.432-7.326-5.606-7.02c-0.581,0.043-1.169,0.006-1.753,0.006c-0.513-1.128,4.569-1.63,5.484-2.236c0.595-0.243,1.015-0.912,1.514-1.389c-0.541-0.387-1.03-0.96-1.632-1.128c-1.974-0.551-3.689-1.398-4.827-3.193c-0.164-0.259-0.54-0.383-1.023-0.708c-1.072,2.547-3.37,3.187-5.578,3.982c-0.674,0.243-1.462,0.447-1.925,0.93c-0.656,0.683-1.535,1.639-1.484,2.424c0.181,2.776-0.984,4.68-3.081,6.285c-1.155,0.954-2.256,2.959-1.919,4.414c0.28,0.706,1.57,1.727,1.883,1.566c0.854-0.439,1.455-1.402,2.1-2.203c0.76-0.944,1.272-2.233,2.229-2.842c1.832-1.166,1.962-2.77,2.022-4.802c-0.646,0.318-1.076,0.53-1.497,0.737c-1.094-1.867-0.548-3.983,1.139-4.791c1.734-0.831,4.336,0.781,5.352,3.437c-0.678,0.216-1.412,0.323-2.003,0.671c-0.691,0.406-1.772,1.007-1.789,1.551c-0.062,2.046-1.43,3.046-2.717,4.2c-0.357,0.321-0.582,0.789-0.868,1.19c1.795-0.567,3.211-1.783,4.836-2.218c1.633-0.437,3.475-0.096,5.225-0.096c0.007,0.198,0.015,0.396,0.022,0.594c-1.796,0.349-3.651,0.521-5.371,1.098c-1.672,0.561-3.192,1.563-4.801,2.324c-1.981,0.937-3.235,2.573-2.558,4.415c0.642-0.998,1.284-1.995,1.926-2.993c0.152,0.146,0.305,0.292,0.457,0.437c-0.541,1.064-1.081,2.128-1.622,3.192c0.093,0.057,0.187,0.113,0.28,0.17c0.84-0.923,1.681-1.845,2.521-2.768c0.094,0.095,0.189,0.19,0.283,0.285c-0.485,0.994-0.969,1.988-1.454,2.982c0.166,0.074,0.332,0.147,0.499,0.221c1.23-1.805,2.501-3.583,3.677-5.423C162.726,73.426,163.852,72.601,165.519,72.624z M236.859,166.908c0.345,0.38,0.89,0.709,1.003,1.149c0.911,3.535,1.813,7.075,2.552,10.648c0.288,2.605,2.173,1.595,3.144,3.368c0.876,2.07,2.082,4.094,1.641,6.509c-0.013,0.073,0.108,0.17,0.16,0.247c0.304-0.288,0.611-0.578,0.858-0.812c0.465,0.643,0.842,1.164,1.285,1.777c0.817-1.076-0.792-2.86,1.118-2.824c1.832,0.035,0.706,1.713,1.055,2.665c0.496-1.086,0.483-2.083-0.165-3.191c-0.975-1.666-1.984-0.231-3.038-0.008c0.105-3.636,1.225-3.906-2.227-5.829c-1.361-0.825-1.535-2.011-0.614-3.293c0.348-0.485,0.675-1.195,0.595-1.741c-0.347-2.364-0.423-4.897-1.379-7.018c-2.625-5.483-1.332-10.811,0.225-16.264c1.496-5.894,2.765-12.278,0.753-18.204c-0.362-0.989-0.986-1.479-2.159-0.475c-1.518,1.298-3.193,2.572-5.022,3.298c-1.371,0.544-1.525,1.033-1.327,2.303c1.375,8.842,1.524,17.611-1.158,26.317c-0.904,2.933-1.53,6.113-1.413,9.146c0.088,2.278-0.099,4.295-0.848,6.385c-0.296,0.828-0.194,1.799-0.273,2.704c0.289,0.027,0.578,0.053,0.867,0.08c1.433-8.296,2.867-16.592,4.3-24.888c0.217,0.028,0.434,0.056,0.651,0.085c0.299,2.641,0.168,5.264-0.59,7.862c-2.11,5.301-1.404,10.718-0.686,16.309c-0.413-0.114-0.459-0.507-0.663-0.622c-0.303-0.171-0.718-0.146-1.085-0.204c-0.061,0.436-0.302,1.172-0.155,1.26c1.047,0.624,0.377,1.276,0.214,1.999c-0.259,1.151-0.446,2.342-0.441,3.515c0.001,0.38,0.699,0.756,1.078,1.135c0.183-0.147,0.365-0.293,0.548-0.44c-0.43-1.026-0.944-2.153-0.304-3.208c0.103-0.191,0.796-0.319,0.935-0.182c0.888,0.958,0.606,1.912,0.625,3.306c2.013-1.575,0.827-3.12,0.821-4.677c1.427,1.513,1.857,3.503,3.606,4.631c-0.022-0.516-0.076-1.034-0.057-1.549c0.022-0.6-0.011-1.251,0.223-1.772c0.098-0.219,1.107-0.344,1.201-0.195c0.611,0.995,0.662,2.239,0.592,3.386c1.443-3.236,0.512-4.646-2.853-4.372c0.898-0.934,1.509-1.684,1.53-2.916c-1.275-1.715-2.761,1.147-3.454,2.384c-1.133-2.346-0.373-4.288-0.371-6.214C237.983,174.621,237.233,170.762,236.859,166.908z M258.186,211.822c0.866-0.605,1.208-1.903,1.989-0.84c-2.098,2.566-4.196,5.132-6.294,7.698c0.032,0.151,0.064,0.303,0.095,0.454c0.549-0.185,1.32-0.203,1.607-0.584c1.113-1.48,2.051-3.09,3.096-4.623c0.544-0.798,1.176-1.536,1.769-2.302c0.165,0.13,0.331,0.26,0.496,0.39c-1.858,2.919-3.716,5.838-5.574,8.757c0.169,0.115,0.337,0.229,0.506,0.344c2.811-0.93,2.484-4.351,4.465-5.999c-0.318,1.454-0.747,2.855-1.299,4.204c-1.966,4.343,2.563,5.282,0.831,8.559c-0.685-0.891-1.264-1.643-1.924-2.502c-0.896,1.999-1.66,3.705-2.425,5.411c0.124,0.058,0.247,0.116,0.371,0.174c0.712-1.443,1.424-2.887,2.136-4.33c0.235,0.045,0.47,0.089,0.705,0.134c-0.105,1.424-0.21,2.848-0.316,4.288c2.48,0.507,2.941,0.103,3.239-2.545c0.145-1.283,0.677-2.518,0.966-3.79c0.208-0.917,0.758-2.337,0.37-2.704c-1.413-1.338-0.163-1.921,0.408-2.801c0.484-0.746,0.967-1.547,1.198-2.392c0.382-1.394,0.56-2.844,0.89-4.629c2.088,3.263,0.979,5.991-0.846,9.096c1.855-0.132,3.408,0.051,4.729-0.419c1.337-0.476,2.442-1.599,3.724-2.491c-0.976,2.719-3.59,5.1-5.833,4.554c-2.756-0.671-3.518,0.384-3.775,2.729c-0.155,1.412-0.548,2.803-0.642,4.216c-0.07,1.055,0.931,1.791,1.623,1.174c5.322-4.302,1.046-5.82,7.966-9.676c-1.896,3.093-3.792,6.186-5.797,9.456c2.488,0.345,3.388,0.124,3.503-1.225c0.29-3.414,3.275-5.063,4.735-7.7c1.017-1.835,2.203-3.424,1.365-5.603c-1.857-5.275-4.676-4.186-9.384-3.467c-2.1-2.886-1.815-2.181-0.218-4.588c1.347-2.166-0.251-4.409-2.713-3.164c-2.771,1.785-5.151,4.162-7.764,6.177c-0.033,0.027-0.189-0.096-0.405-0.213c0.539-0.841,1.07-1.671,1.748-2.731c-0.52-0.21-0.983-0.397-1.624-0.656c1.518-0.363,2.54-0.437,3.4-0.848c1.771-0.847,1.952-2.582,2.058-4.295c0.501,0.398,1.198,1.244,1.471,1.124c2.209-0.97,3.894,1.579,6.028,0.812c0.107-0.038,0.561,0.396,0.534,0.559c-0.191,1.177-0.33,2.392-0.75,3.495c-0.408,1.073-0.175,1.66,0.879,1.839c1.38,0.235,2.782,0.341,4.343,0.522c0-3.373,0.138-6.426-0.087-9.453c-0.064-0.861-1.033-1.863-1.847-2.422c-3.355-2.308-7.272-1.845-11.142-2.168c0.08,2.04,2.342,3.691,0.577,5.7c-0.39,0.033-0.779,0.066-1.164,0.098c0.3-0.854,0.82-1.617,0.747-2.32c-0.077-0.75-0.687-1.458-1.112-2.156c-0.361-0.592-0.79-1.142-1.037-1.492c-0.433,1.212-0.531,2.462-1.207,3.063c-0.507,0.452-2.283,0.418-2.568-0.012c-0.601-0.908-0.594-2.216-0.831-3.333c-1.534,0.499-1.79,1.46-0.798,4.516c-2.233,1.37-1.312,3.202-0.509,5.059c-0.595,0.054-1.013,0.092-1.219,0.11c0.575,0.651,1.156,1.307,1.736,1.964c-0.761,0.319-1.522,0.638-2.283,0.957c1.587,0.157,3.181-0.413,4.713-0.799c0.071,0.242,0.142,0.484,0.213,0.726c-1.049,0.526-2.098,1.052-3.147,1.578c0.068,0.17,0.136,0.341,0.205,0.511c0.689-0.036,1.764-0.933,2.164-0.176c-1.971,1.443-4.244,2.583-0.032,1.677c1.123,2.295-1.578,2.604-2.052,4.103c1.893-0.637,3.488-1.586,4.198-3.594C257.637,212.612,257.911,212.217,258.186,211.822z M197.948,71.927c-0.367-0.055-0.935,0.018-1.065-0.187c-0.429-0.677-0.7-1.455-1.059-2.255c-1.37,1.745-1.368,3.222,0.035,4.878c0.949,1.12,1.579,2.542,2.185,3.903c0.293,0.657,0.202,1.484,0.284,2.233c-0.154,0.019-0.307,0.037-0.461,0.056c-0.861-1.498-1.723-2.996-2.642-4.596c-0.206,0.327-0.327,0.464-0.387,0.624c-1.511,3.846,3.041,6.408,1.792,10.179c-0.812-1.084-1.482-1.979-2.152-2.874c-0.213,0.087-0.426,0.174-0.639,0.261c-0.351,2.839,2.227,5.584,0.368,8.947c-0.44-1.971-0.79-3.542-1.127-5.056c-0.19,0.487-2.164,2.514-1.044,2.077c0.289,2.339,0.578,4.678,0.867,7.017c-0.234,0.062-0.468,0.124-0.702,0.186c-0.375-0.672-0.75-1.344-1.142-2.046c-1.118,0.367-1.305,1.053-0.876,2.082c0.506,1.217,1.03,2.444,1.336,3.717c0.122,0.507-0.318,1.149-0.502,1.729c-0.443-0.219-0.886-0.437-1.395-0.688c-1.954,2.268,2.61,3.533,0.633,5.899c-0.2,0.269-0.064,0.945,0.131,1.325c1.007,1.961,1.599,3.939,0.918,6.165c-0.623,2.037-0.993,2.304-3.041,1.666c-1.153-0.359-1.846-0.161-1.865,1.179c3.357,1.278,3.645,2.064,1.637,4.492c3.245-0.073,1.747-3.049,2.8-4.832c0.828,2.734,0.327,5.517,2.493,7.352c0.104-1.111,0.184-2.297-0.314-3.143c-1.603-2.719,0.073-5.689-0.874-8.472c-0.431-1.265-0.228-2.781-0.151-4.174c0.094-3.793,0.513-8.037,1.64-11.54c1.271-2.613,1.639-5.49,2.928-8.06c1.042-2.077,2.368-4.203,2.638-6.421c0.269-2.209,1.207-4.769-0.778-6.919c-0.409-0.443-0.165-1.485-0.231-2.25c-0.07-0.821-0.149-1.641-0.225-2.462c0.015-1.361,0.038-2.723,0.038-4.084c0-0.345,0.048-0.787-0.135-1.019c-0.961-1.214-0.647-2.424-0.244-3.74c0.914-2.981-0.763-6.692-3.632-7.804c-2.06-0.737-4.291-1.106-6.453-1.524c0.011-0.2,0.023-0.4,0.034-0.601c1.389-0.073,2.779-0.146,4.168-0.219c-1.213-1.289-3.028-2.934-4.72-2.197c-0.36,0.288-0.427,1.196-0.317,1.772c0.392,2.046,0.137,3.913-1.017,5.68c-0.253,0.388-0.43,1.092-0.248,1.451c0.759,1.502,0.904,2.92,0.127,4.472c-0.198,0.396,0.13,1.032,0.139,1.559c0.025,1.401,0.235,2.851-0.053,4.191c-0.331,1.541,0.075,2.459,1.453,3.002c1.739,0.558,3.861,0.471,4.119,2.884c-3.288,0.555-5.324-0.872-6.417-3.623c-0.595,2.069-1.448,3.859-1.795,5.842c0.19,3.579,2.295,6.182,5.855,7.235c1.228,0.363,1.619,1.068,0.882,2.671c-2.163-1.101-4.244-2.161-6.411-3.265c0.125-0.113,0.006-0.049-0.043,0.049c-0.078,0.156-0.186,0.356-0.147,0.502c0.516,1.913,0.472,4.087,2.811,5.067c1.133,0.475,1.691,1.434,0.742,2.848c-0.496-0.392-0.899-0.724-1.316-1.037c-0.637-0.478-1.348-1.439-2.063-0.321c-0.628,0.982-2.656,1.693-1.044,3.363c0.913,0.946,2.002,1.731,2.847,2.728c0.3,0.354,0.113,1.12,0.149,1.698c-0.599,0.023-1.373,0.29-1.758,0.015c-0.631-0.452-1.008-1.256-1.551-1.991c-0.699,0.896-1.38,1.77-2.1,2.694c0.899,1.309,2.33,1.869,3.459,2.919c0.739,0.642,1.517,1.579,0.553,2.405c-0.421,0.36-1.582,0.009-2.341-0.229c-0.5-0.157-0.882-0.689-1.308-1.046c-3.529,3.94,1.618,3.758,2.303,6.982c0.075,0.46-1.05,1.115-1.634,1.683c0.096-0.283,0.191-0.566,0.287-0.849c-0.692-0.383-1.374-0.785-2.078-1.143c-0.442-0.224-1.096-0.66-1.335-0.506c-0.358,0.231-0.577,0.888-0.608,1.38c-0.13,2.004,1.428,2.678,2.829,3.528c2.783,1.666,2.831,1.917,1.128,4.662c1.357,0.103,2.681-0.438,3.195-1.976c0.787-2.356-1.179-3.185-2.541-4.008c4.375-2.8,3.848-2.675,1.471-6.934c1.719-0.077,3.265,0.171,3.934-1.852c0.516-1.614-0.906-2.135-1.902-2.858c-1.169-0.932-2.369-1.41-0.073-1.422c1.543,0.074,2.945-0.253,3.509-1.87c0.491-1.407-0.545-3.082-2.044-3.884c-0.625-0.335-1.099-0.951-1.642-1.439c0.104-0.15,0.208-0.301,0.312-0.451c1.38,0.821,2.918,1.468,4.063,0.057c1.343-1.656,0.664-3.426-0.704-5.218c1.763,0.233,2.972,0.026,3.588-1.612c0.668-1.78-0.297-2.611-2.118-3.459c1.012-0.287,1.706-0.285,2.069-0.63c1.468-1.305,2.893-3.523,0.118-4.274c-0.737-0.23-1.425-0.618-2.461-1.082c2.05-0.957,3.717-1.374,3.885-3.589c0.002-0.42-0.932-0.836-1.433-1.268c-0.652-0.56-1.309-1.116-1.93-1.709c-0.375-0.358-0.616-1.021-1.034-1.142c-2.362-0.685-2.418-2.921-3.338-4.592c1.279,0.747,2.342,1.622,3.778,2.039c2.213,0.84,2.576,1.554,1.602,4.241c1.143-0.76,2.169-1.087,2.566-1.775c1.036-1.796-0.489-3.007-1.301-4.488C195.841,65.991,196.538,69.245,197.948,71.927z M268.551,182.013c0.634,1.523,1.263,3.49,2.503,4.516c1.609,1.033,2.391,2.204,2.115,4.146c-0.053,0.372,0.604,1.139,1.04,1.234c1.496,0.326,2.171-0.921,1.406-3.013c-0.374,0.848-0.645,1.462-0.916,2.075c-0.637-1.775-1.093-3.518-1.108-5.266c-0.016-1.997-0.872-3.01-2.741-3.333c-3.641-0.186-6.617-2.294-6.807-6.169c0.917,1.276,1.835,2.553,2.753,3.829c-0.22-2.005-0.767-3.76-1.329-5.51c-0.778-2.942-2.438-5.845-2.276-8.942c0.288-2.254,0.641-4.509,1.135-6.727c1.028-4.624,1.124-9.267,0.455-13.929c-0.225-1.57-0.615-3.148-2.841-4.289c1.564,10.109-0.925,19.532-1.841,29.118c-0.428-1.518-0.556-3.05-0.503-4.575c0.186-5.264,0.694-10.533,0.559-15.786c-0.077-2.989-1.103-5.969-1.851-8.915c-0.163-0.64-0.954-1.127-1.472-1.67c-1.491-1.4-2.79-3.137-4.301-4.466c-1.767-1.083-2.317-1.843-1.215-3.629c1.657-2.738,4.372-5.536,3.931-9.034c-0.368-2.007-0.719-4.187-0.288-6.119c0.355-1.593,1.852-2.932,2.842-4.384c0.161,0.037,0.322,0.075,0.483,0.112c-0.641,2.736-1.69,5.396-2.246,8.134c-0.175,1.065,0.391,2.053,1.707,2.071c3.207,0.012,0.684,4.402,4.299,4.791c0.265,0.031,0.631,0.424,0.7,0.71c0.91,3.76,4.691,4.196,7.128,6.178c0.038,0.031,0.184-0.071,0.28-0.112c-3.606-2.113-0.294-4.516,0.935-6.988c0.506-1.022,0.228-1.823-0.995-2.063c-1.131,2.177-2.2,4.234-3.324,6.399c0.055,0.008-0.144,0.032-0.282-0.049c-2.299-1.342-2.579-3.475-0.733-5.502c1.422-1.561,1.525-2.745,0.349-3.606c-0.959,1.284-1.939,2.552-2.867,3.857c-0.578,0.814-1.105,0.725-1.755,0.099c-1.153-1.111-0.914-2.855,0.612-4.22c2.024-1.811,2.052-2.056,0.5-4.391c-1.095,1.287-2.149,2.616-3.315,3.838c-0.316,0.331-0.972,0.339-1.472,0.495c-0.189-0.642-0.679-1.389-0.5-1.904c0.301-0.867,0.967-1.638,1.583-2.36c1.821-2.135,1.247-5.95-1.177-7.526c-0.427,0.812-0.856,1.628-1.286,2.444c-0.151-0.059-0.301-0.119-0.452-0.178c0.106-1.106,0.384-2.228,0.287-3.316c-0.323-3.608,0.231-6.889,2.692-9.75c0.822-0.955,0.829-2.176-0.488-3.214c-1.043,1.956-3.156,3.277-2.228,5.951c-3.065-3.146-0.335-5.533,1.112-8.426c0.252-0.573,0.044-1.348,0.044-2.032c-0.219-0.022-0.439-0.045-0.658-0.067c-0.936,1.498-1.871,2.996-3.069,4.914c0-0.997,0.104-1.492-0.018-1.923c-0.498-1.762-0.163-3.093,1.202-4.508c0.813-0.842,0.777-2.502,1.122-3.795c-0.271-0.114-0.542-0.229-0.812-0.343c-1.136,1.488-2.272,2.976-3.407,4.465c-0.191-0.074-0.383-0.148-0.574-0.223c0.283-1.213,0.17-2.85,0.927-3.557c1.891-1.767,1.446-4.076,2.028-6.132c0.088-0.311-0.139-1.007-0.302-1.034c-0.388-0.064-1.059,0.036-1.203,0.297c-1.02,1.995-1.892,3.476-1.975,5.872c-1.287-1.938-1.274-4.388,0.074-5.778c1.665-1.716,1.358-3.896,1.969-5.855c-0.141-0.081-0.281-0.161-0.422-0.241c-0.763,0.98-1.526,1.96-2.289,2.941c-0.211-0.102-0.423-0.204-0.634-0.305c2.694-2.828,2.632-6.339,2.826-9.799c-1.455,2.958-2.112,6.18-3.281,9.245c-0.57,1.233-0.068,2.823-0.537,3.987c-1.21,2.43,0.312,4.444,1.037,6.419c0.631,1.719,1.393,3.238,1.022,5.131c-0.094,0.48,0.166,1.205,0.519,1.569c2.482,2.565,2.377,6.291,4.174,9.159c0.199,0.318,0.004,0.944-0.125,1.394c-1.424,4.021,1.218,3.2,0.618,6.248c-0.6,2.366,0.84,5.25-1.758,7.117c-0.069,0.05-0.096,0.241-0.062,0.338c0.896,2.56,0.326,4.897-0.494,7.435c-0.561,1.735-0.435,3.628-2.132,4.857c-0.67,1.82-1.445,3.861-1.344,5.868c1.231,6.462,0.723,13.219-0.64,19.598c-1.063,4.603,0.203,8.62,1.845,12.69c2.268,5.624,4.516,11.257,6.892,16.836c1.155,2.713,2.512,5.377,5.05,7.124c0.865,0.596,1.827,0.584,1.992-0.74c0.229-1.845,0.302-3.71,0.451-5.701c1.794,1.85,1.755,4.234,1.502,6.756c2.482-1.315,2.482-1.315,3.334-0.147c-0.633,0.205-1.509,0.072-1.045,0.875c0.76-0.276,1.801-0.334,2.217-0.874c0.748-0.97-0.195-1.536-0.977-2.073c-1.421-0.976-2.414-2.222-2.808-4.011c-0.152-0.689-1.054-1.663-1.682-1.716c-4.561-0.353-4.57-6.256-5.718-9.605c-0.119-0.451-0.083-0.942-0.119-1.415c0.178-0.037,0.355-0.073,0.533-0.11c0.186,0.511,0.378,1.02,0.556,1.533C262.4,177.12,263.605,182.149,268.551,182.013z M187.258,219.613c2.013,0.817,4.123,2.049,6.391,2.514c4.38,0.899,7.772,2.909,9.897,6.883c-0.361,0.688-1.264,1.154-0.88,1.906c0.935-0.135,1.917-0.147,2.776-0.479c0.271-0.105,0.462-1.186,0.256-1.612c-2.264-5.308-3.722-1.545-3.142-5.402c-5.119-0.945-6.364-4.986-7.397-9.34c2.157-0.339,4.563-0.41,6.573-1.453c1.035-0.515,0.928-1.079-0.139-1.476c0.295-0.485,0.559-0.92,0.829-1.365c-0.386-0.2-0.66-0.342-0.905-0.468c0.613-0.819,1.144-1.528,1.891-2.526c-0.827,0.198-1.2,0.287-1.572,0.376c-0.205-0.23-0.41-0.46-0.615-0.69c0.923-0.478,1.846-0.956,2.77-1.434c-0.151-0.159-0.302-0.318-0.453-0.478c-0.515,0.215-1.031,0.431-1.975,0.825c0.77-1.377,1.319-2.361,1.868-3.342c-2.106-0.761,2.847-0.993,1.805-4.364c-3.105,3.431-6.794,5.131-5.618,10.341c1.044,6.196-3.951,3.963-7.64,3.145c-0.798-0.127-1.76-0.242-2.437,0.08c-2.014,0.957-3.44-0.766-5.638-0.54c1.815-1.28,3.111-2.141,0.217-1.525c0.3-0.71,0.523-1.239,0.794-1.882c-0.558-0.16-1.002-0.287-1.496-0.428c0.383-0.578,0.67-1.01,1.198-1.806c-2.195,0.349-0.879-1.16-1.309-1.823c-0.458,0.025-0.869,0.048-1.441,0.079c0.458-0.716,0.795-1.243,1.224-1.916c-0.62-0.114-1.046-0.192-1.492-0.274c0.288-0.77,0.536-1.435,0.887-2.372c-0.798,0.231-1.216,0.352-1.776,0.515c0.001-2.497,0.258-2.243-1.39-0.862c-0.447-0.796-0.708-1.988-1.291-2.174c-2.678-0.854-5.57,1.492-5.759,4.277c-0.107,1.572-0.488,3.144-0.907,4.672c-0.355,1.297,0.309,2.445,2.055,2.762c0.204-2.195,0.407-4.365,0.618-6.628c2.534,3.735-0.682,7.709,0.449,11.551c0.469-0.124,0.866-0.229,1.784-0.471c-1.881,2.654-3.511,4.337-1.513,7.439c0.155,0.235,0.213,0.741,0.068,0.92c-0.211,0.26-0.676,0.295-0.985,0.498c-0.975,0.64-2.412,1.105-2.805,2.012c-1.629,3.755,0.595,6.903,4.82,7.052c-0.285-1.286-1.756-2.435-0.411-4.133c0.263,0.486,0.518,0.79,0.599,1.135c0.695,2.96,1.361,3.538,4.41,3.558c4.44,0.029,8.882-0.031,13.321,0.043c1.655,0.028,2.915-0.133,3.697-1.939c0.686-1.585,0.158-3.023-1.577-3.334c-1.413-0.388-2.705-1.363-4.124-1.76c-1.12-0.311-2.614,0.263-3.089-1.471c-0.041-0.151-0.637-0.19-0.979-0.214c-2.439-0.169-4.877-0.365-7.319-0.444c-1.211-0.016-2.478,1.211-3.226,1.912c-0.857,0.551-1.469,1.278-2.038,1.246c-1.439-0.081-1.707,0.464-1.423,1.696c0.062,0.267-0.102,0.586-0.162,0.881c-0.222,0.005-0.444,0.01-0.666,0.016c-0.08-1.153-0.413-2.372-0.135-3.431c0.141-0.535,1.353-0.977,2.142-1.118c2.906-0.52,4.47-2.642,3.893-5.454c-0.069-0.335,0.028-0.704,0.028-0.701c1.74,1.212,3.315,2.709,5.186,3.711c0.58,0.256,1.329,0.814,1.731,0.634C186.376,220.863,186.825,220.078,187.258,219.613z M195.231,127.606c-0.191,0.053-0.383,0.105-0.574,0.158c-0.234,0.853-0.227,1.909-0.745,2.521c-1.699,2.01-3.281,4.438-5.49,5.608c-2.244,1.189-2.761,2.379-2.293,4.529c1.49,8.12,1.754,16.15-0.911,24.139c-1.219,3.766-1.678,7.777-2.481,11.677c0.177,0.043,0.354,0.085,0.531,0.128c0.395-1.473,0.79-2.946,1.184-4.42c0.151,0.035,0.302,0.07,0.453,0.105c0.609,1.777-2.733,8.26-0.229,8.325c0.583-2.066,1.165-4.133,1.748-6.199c0.193,0.036,0.385,0.073,0.578,0.109c-0.312,2.008-0.624,4.016-0.96,6.178c2.257-0.85,2-3.304,3.459-4.57c0.14,2.755-1.658,5.221-3.404,7.119c-1.225,1.161-2.7,0.176-4.035-0.364c-2.82-0.755-1.072,2.894-0.663,4.15c-2.874,0.523-3.389,1.186-2.207,3.746c0.401-1.058,0.711-1.875,1.053-2.776c1.511,1.249-0.02,2.446-0.036,3.657c0.332-0.037,0.52-0.014,0.669-0.081c2.635-1.18,4.898-3.155,7.983-3.406c0.986-0.08,1.868-0.958,1.65-2.341c-0.991,0.55-1.877,1.042-2.763,1.534c-0.148-0.155-0.296-0.309-0.444-0.464c5.613-4.84,5.785-11.945,7.556-18.385c0.159,0.043,0.318,0.085,0.476,0.128c0.074,0.691,0.149,1.382,0.214,1.988c1.443-2.958,3.099-5.919,4.47-8.954c1.438-6.806-0.23-9.491-1.802-15.833c-0.857-3.34-1.344-6.679-0.282-10.102c0.175-0.563-0.331-1.364-0.59-2.029C196.589,131.535,195.609,129.675,195.231,127.606z M236.378,73.979c0.174,0.075,0.347,0.149,0.521,0.224c0.326-0.701,0.587-1.443,0.997-2.091c0.356-0.562,0.885-1.451,1.332-1.448c2.39,0.018,2.318-1.477,2.299-3.157c-0.014-1.271-0.051-2.656,0.414-3.788c0.485-1.181,0.437-1.987-0.311-2.946c-1.474-1.892-1.171-3.725,0.757-5.056c1.855-1.28,1.962-1.907,0.985-3.996c-0.6-1.282-1.207-2.613-1.469-3.987c-0.406-2.126-1.111-3.893-3.28-4.757c-9.63-4.968-20.134-4.935-29.17,1.212c-2.399,1.334-1.234,4.06-2.35,6.066c-2.216,3.824-2.259,3.799,1.013,6.778c2.264,2.063,2.37,3.634-0.074,5.557c-0.276,0.223-0.597,0.39-1.098,0.712c1.89,1.63,1.957,3.435,1.631,5.436c-0.184,1.127,0.162,2.593,1.551,2.632c2.013,0.055,3.071,1,3.779,2.691c0.092,0.221,0.432,0.338,0.66,0.505c1.602-2.349,1.157-3.615-1.381-4.205c-2.137-0.243-3.538-1.295-3.031-3.611c0.124-0.719-0.218-1.544-0.455-2.287c-0.458-1.12-1.218-0.916,0.092-1.89c1.893,2.335,3.365,5.65,6.968,4.72c2.933-0.572,5.442-1.823,7.387-4.124c2.365-2.777,1.638,3.277,9.723,3.358c2.621,0.092,4.667-0.832,6.1-3.07c0.278-0.433,0.715-0.765,1.079-1.143c0.135,0.119,0.269,0.238,0.404,0.357c-1.992,2.631-1.179,7.085-5.619,7.903C236.039,71.875,236.209,72.927,236.378,73.979z M228.556,150.128c0-1.317,0.13-2.654-0.061-3.943c-0.847-2.364-3.984-2.134-6.083-2.008c-1.363,0.062-1.702,0.501-1.688,1.626c0.026,2.093,0.192,4.192,0.093,6.278c-0.39,7.49-1.027,14.968-1.382,22.462c-0.036,0.711,0.177,1.438,0.113,2.142c-0.36,3.915,0.322,7.679,1.422,11.417c0.325,1.104,0.905,1.439,1.929,1.389c2.092-0.102,4.188-0.154,6.277-0.29c1.851-0.12,2.152-0.602,1.603-2.412c-0.939-2.356-2.183-4.28-0.908-6.833c1.592-3.491,1.036-7.287,1.524-10.934c0.06-0.451-0.074-0.96-0.231-1.403C229.167,161.956,228.678,156.068,228.556,150.128z M203.779,178.972c0.19,0.162,0.38,0.323,0.57,0.485c0.723-0.535,1.608-0.95,2.122-1.64c0.866-1.431,1.1-3.307,1.581-4.921c0.714,0.013,0.491,0.837,0.46,1.342c-0.634,2.741-0.364,6.043-4.346,6.711c-0.425,0.071-0.661,1.27-0.984,1.946c0.643,0.343,1.818,0.604,2.102,1.289c-0.01,1.072-0.141,2.144-0.266,3.655c-1.688-2.743-2.115-3.057-3.211-2.623c-1.102,0.437-1.982,2.315-1.555,3.691c0.14,0.451,0.809,0.738,1.237,1.1c0.12-0.131,0.24-0.262,0.36-0.393c-0.054-0.222-0.154-0.443-0.155-0.665c-0.002-0.755-0.054-1.53,0.118-2.248c0.037-0.154,1.29-0.276,1.366-0.117c0.401,1.051,0.367,2.28,1.092,3.229c0.498-0.286,1.295-0.469,1.437-0.878c0.385-1.111,0.36-2.363,0.738-3.477c0.981-3.138,2.702-6.113,3.64-9.234c0.239-1.4,0.056-2.872,0.056-4.312c0.16-0.027,0.32-0.053,0.48-0.079c0.36,1.734,0.721,3.467,1.081,5.201c0.163,0.004,0.326,0.009,0.489,0.013c0.879-5.117,0.659-7.932,2.578-0.844c1.683-3.557-0.057-6.883-0.04-10.353c0.346,0.589,0.693,1.179,1.04,1.768c0.134-0.061,0.268-0.122,0.402-0.183c-0.456-1.403-0.817-2.845-1.383-4.201c-2.142-5.124-2.529-10.407-1.726-15.854c0.476-4.963,1.161-8.565-3.395-11.758c-0.862-0.618-2.499-0.194-3.697-0.355c-2.182-0.203-2.576-0.035-2.5,2.18c0.142,4.118,0.095,8.325,0.95,12.319c2.025,9.138,1.38,18.04,1.458,27.336c-0.502-0.269-0.805-0.432-1.225-0.656C204.338,177.351,204.059,178.161,203.779,178.972z M275.303,76.435c0,2.038,0.081,3.912-0.025,5.776c-0.09,1.584,0.526,2.729,2.048,3.036c1.763,0.356,2.96,1.217,3.306,3.071c0.075,0.402,0.241,1.051,0.483,1.111c1.08,0.268,2.313,0.725,3.28,0.428c1.161-0.356,0.505-1.417,0.121-2.26c-0.45-0.989-0.741-2.05-1.112-3.109c-3.932,0.099-4.883-0.154-5.74-1.623c-0.702-1.204-0.647-2.373,0.291-3.612c0.264,0.287,0.466,0.508,0.967,1.054c0.543-1.101,1.06-2.036,1.472-3.015c0.369-0.876,0.393-2.01,0.982-2.653c0.786-0.859,1.931-1.816,2.992-1.907c2.16-0.185,5.277,3.808,5.101,6.242c-1.608-0.86-1.599-3.445-4.047-3.658c1.256,1.51,2.326,2.83,3.435,4.116c0.689,0.799,1.085,2.234,2.508,1.572c0.156-0.073-0.441-1.926-0.813-2.906c-0.235-0.62-0.703-1.151-1.067-1.722c0.134-0.085,0.267-0.169,0.401-0.254c1.045,1.204,2.091,2.409,3.417,3.938c0.451-2.766-2.087-3.282-2.284-5.255c1.449,1.182,2.898,2.364,4.457,3.635c0.407-1.856-0.472-3.065-2.455-4.043c-0.524-0.258-0.934-0.766-1.343-1.209c-0.039-0.042,0.339-0.653,0.469-0.633c0.963,0.168,2,0.344,2.537,1.269c1.592,1.944,1.768,1.964,4.066,0.216c-0.82-1.263-1.418-2.832-2.542-3.773c-1.888-1.581-2.919-3.403-3.126-5.807c-0.066-0.767-0.359-1.513-0.533-2.273c-0.358-1.556-1.301-2.452-2.865-2.873c-2.428-0.654-4.833-1.4-7.219-2.194c-1.195-0.398-2.023-0.11-2.881,0.776c-0.813,0.839-1.763,1.59-2.766,2.19c-2.128,1.062-0.678,5.592,1.579,4.481c1.975-0.961,3.325,0.099,4.763,1.004c0.408,0.257,0.619,0.828,0.92,1.255c-2.194,0.274-4.386-0.385-6.576-0.302c-1.31,0.024-1.799,0.988-1.643,2.282c0.107,0.885,0.247,1.791,0.17,2.67c-0.183,2.087,0.35,2.563,2.438,1.931c1.112-0.337,2.201-0.75,3.3-1.129c0.089,0.189,0.177,0.378,0.266,0.567C280.047,74.488,278.575,76.994,275.303,76.435z M225.897,232.793c14.353,0.229,26.652-13.341,21.587-27.677c-8.995-25.479-51.772-14.17-42.2,13.917C208.208,227.116,216.818,232.694,225.897,232.793z M206.136,70.199c-0.194-0.034-0.388-0.067-0.582-0.101c0-1.896-0.386-3.897,0.095-5.661c0.639-2.34,0.385-4.262-0.748-6.338c-1.212-2.221-1.382-4.563,0.231-6.789c0.302-0.417,0.605-1.02,0.539-1.485c-0.408-2.855,0.957-4.739,3.046-6.459c1.55-1.276,1.353-3.361-0.153-4.297c-0.364-0.226-0.769-0.388-1.511-0.756c2.68-0.582,3.386,2.048,5.174,2.401c0.127-0.13,0.254-0.261,0.381-0.391c-0.937-1.102-1.873-2.204-2.81-3.306c0.099-0.129,0.199-0.259,0.298-0.388c1.47,1.125,2.941,2.25,4.51,3.451c-0.024-2.038-2.388-5.201-3.986-5.45c-1.52-0.079-2.957,1.163-4.423,1.283c-3.283,0.246-4.451,1.808-3.525,5.06c0.507-0.165,1.012-0.329,1.516-0.492c-1.205,1.857-0.705,3.482,0.047,5.232c0.764,1.778,0.065,3.748-1.509,4.705c0.464-1.531,0.884-2.981-0.501-4.126c-3.048,2.059-3.896,6.705-0.964,8.969c0.967,0.747,1.715,1.832,2.4,2.87c0.554,0.84,0.477,1.699-0.812,2.128c-0.539-0.741-1.577-1.541-1.471-2.141c0.313-1.78-0.803-1.939-2.227-2.236c0.079,1.639,0.449,3.201,0.708,4.782c0.122,0.743,0.303,1.676-0.022,2.253c-0.822,1.457-0.626,2.376,0.999,2.289c1.173-0.063,2.321-0.899,3.439-1.469c0.338-0.172,0.542-0.608,0.807-0.923c-0.446,2.858-2.013,4.534-5.296,4.632c0.414,1.371,0.547,2.583,1.127,3.52c0.605,0.977,1.689,1.646,2.472,2.531c0.635,0.718,1.096,0.701,1.981,0.277c2.082-0.997,2.522-5.109,1.374-7.903C206.541,67.305,206.338,68.752,206.136,70.199z M235.019,39.797c0.747-2.579,2.53-4.726,5.053-3.743c0.131,0.047,0.202,0.728,0.152,0.747c-1.612,0.738-3.008-0.085-3.599,2.108c-0.604,2.19,2.423,2.455,3.817,3.205c1.807,0.67,3.108,2.288,2.747,4.145c-0.448,2.305,0.304,4.025,1.634,5.794c1.853,2.465,1.986,4.797,0.326,6.776c-1.533,1.827-1.806,3.556-0.479,5.539c0.093,0.14,0.012,0.396,0.012,0.688c-0.651-0.261-1.165-0.468-1.706-0.685c-0.677,3.665,1.089,7.456,4.065,8.021c-0.495-1.952-0.944-3.72-1.392-5.487c0.121-0.067,0.243-0.135,0.364-0.202c0.639,0.918,1.278,1.836,1.917,2.754c0.183-0.035,0.365-0.071,0.548-0.106c-0.065-0.79-0.129-1.58-0.203-2.477c1.456,0.333,1.414-0.558,1.303-1.739c-0.166-1.765-0.161-3.548-0.174-5.324c-0.01-1.306,0.135-2.649-1.69-2.818c1.872-4.971,1.448-6.646-2.014-8.072c-0.102-2.137,0.065-1.538-1.826-0.652c2.784-4.536,2.59-4.185,0.596-8.78c-0.209-0.826-0.549-1.586-1.582-1.159c-1.033,0.428-0.956,1.233-0.463,2.084c0.158,0.551,1.522,2.003,0.711,2.184c-1.476-1.042-2.953-2.084-4.448-3.139c1.666-1.115,4.504-1.937,4.671-3.704C241.899,31.146,232.031,34.771,235.019,39.797z M275.848,201.72c-0.191-0.007-0.383-0.014-0.574-0.02c-0.161,0.83-0.402,1.653-0.47,2.49c-0.447,5.439,1.332,10.382,3.736,15.102c-2.187,1.125-2.538,3.214-1.188,6.633c0.096-1.964,0.179-3.641,0.261-5.318c0.182,0.003,0.365,0.007,0.547,0.01c0.193,2.458,0.386,4.915,0.58,7.373c0.293-0.007,0.586-0.014,0.879-0.022c0-2.344,0-4.689,0-7.033c0.282,0.002,0.564,0.004,0.845,0.006c0,2.179,0,4.359,0,6.538c2.579,1.321,2.063-29.142-0.544-27.421c0,2.336,0,4.672,0,7.007c-1.32-2.576-0.408-5.664-1.928-8.113c-0.26,0.038-0.521,0.077-0.781,0.115c0.144,3.122,0.288,6.244,0.432,9.366c-0.246,0.024-0.491,0.049-0.737,0.073C276.552,206.244,276.2,203.982,275.848,201.72z M249.791,230.044c1.205-1.201,2.278-1.879,2.763-2.851c0.681-1.364,0.981-2.933,1.323-4.442c0.12-0.531,0.079-1.285-0.221-1.694c-2.575-3.465-1.806-7.538-3.184-11.412c-0.618,0.513-0.477,0.379-0.572,0.925c-0.036,3.762-0.145,7.491-2.317,10.818c-0.332,0.509-0.194,1.324-0.258,1.864c-3.071,2.817-6.13,5.622-9.052,8.302c3.007,0,6.303,0.019,9.599-0.009C249.227,231.533,250.066,230.981,249.791,230.044z M175.273,87.374c-1.834,2.633-1.392,5.543,1.003,7.247c0.436,0.31,1.08,0.615,1.184,1.033c0.141,0.569-0.144,1.244-0.246,1.874c-0.559-0.131-1.204-0.131-1.653-0.428c-0.526-0.347-0.837-1.005-1.329-1.426c-0.271-0.231-0.875-0.458-1.06-0.322c-0.329,0.242-0.665,0.787-0.619,1.159c0.287,1.996,2.152,3.278,3.054,4.971c0.239,0.424-0.152,1.203-0.255,1.821c-0.518-0.224-1.175-0.319-1.528-0.697c-0.944-1.011-1.757-2.143-2.622-3.227c-0.239,0.075-0.478,0.149-0.718,0.224c0,0.886-0.29,1.913,0.059,2.629c0.797,1.636,1.953,3.094,2.867,4.68c1.063,1.963,0.838,2.273-1.014,3.462c-0.5-1.226-0.746-2.169-1.255-2.939c-0.26-0.394-0.99-0.479-1.507-0.703c-0.152,0.485-0.574,1.11-0.408,1.431c0.643,1.238,1.286,2.581,2.282,3.503c1.237,1.145,1.979,2.022,0.293,3.555c0.929-0.111,2.122-0.312,2.192-0.71c0.2-1.14-0.056-2.359-0.114-3.259c0.935-0.727,2.727-1.487,2.749-2.295c0.028-1.045-1.339-2.141-2.142-3.187c-0.357-0.465-0.805-0.861-1.212-1.289c0.902-0.056,1.527,0.248,2.181,0.457c1.589,0.507,2.911-0.06,3.521-1.547c0.605-1.476-0.198-2.364-1.383-3.093c-0.672-0.414-1.286-0.924-2.032-1.467c0.379-0.196,0.499-0.314,0.577-0.291c1.707,0.506,3.163,0.113,3.967-1.494c0.762-1.524,0.026-2.841-1.977-4.096c-1.279-0.801-2.161-1.84-2.396-3.838c0.809,0.62,1.206,0.925,1.65,1.265C177.72,88.753,177.503,88.453,175.273,87.374z M234.6,68.318c-0.149-0.004-0.298-0.008-0.447-0.012c-0.897,1.146-1.835,2.261-2.683,3.443c-3.135,4.372-8.913,4.098-11.639-0.547c-0.566-0.787-2.277-3.741-2.911-1.558c-0.424,4.146-1.865,8.551,3.987,8.678c2.969,0,5.944,0.086,8.907-0.065C236.621,78.112,234.827,73.153,234.6,68.318z M216.617,163.552c0.878,0.579,0.784-1.144,1.078-1.732c1.551-6.058,1.33-12.192,0.828-18.345c-0.057-0.694-0.033-1.505,0.274-2.095c0.841-1.614,0.511-2.703-0.98-3.737c-1.231-0.854-2.649-0.647-2.78,0.803c-0.247,2.723-0.649,5.544-0.2,8.191c0.662,3.898,1.356,7.743,1.261,11.721C216.056,160.084,216.431,161.82,216.617,163.552z M231.646,107.046c1.824,0.699,2.844,0.133,3.416-1.316c0.634-1.607-0.57-1.847-1.668-2.328c-1.424-0.74-2.031-2.778-3.229-3.738c-2.034-1.403-3.883-2.841-4.001-5.587c-0.007-0.166-0.276-0.321-0.683-0.766c0.447,4.167,1.937,5.009-2.901,6.06c-1.39,0.365-3.257,0.31-2.907,2.711c-0.159,0.981-1.821,1.668-2.694,2.131c-0.944,0.582-1.524,3.062-0.72,4.05c0.5,0.615,1.545,0.788,2.345,1.16c-0.678-2.653-0.585-3.073,1.115-4.146c2.124-1.34,4.796-2.229,4.382-5.808C225.95,104.223,233.872,103,231.646,107.046z M222.199,136.157c-0.67-0.218-1.392-0.392-1.382-0.459c0.084-0.568,0.163-1.227,0.503-1.651c1.252-1.558,2.604-3.036,4.232-4.905c0.423,1.001,1.029,1.928,1.191,2.928c0.292,1.803,0.932,3.068,2.965,3.199c0.421,0.027,0.826,0.291,1.273,0.458c-0.326,0.87-0.582,1.55-0.837,2.231c0.17,0.097,0.339,0.194,0.509,0.292c0.532-0.789,1.191-1.534,1.499-2.402c0.071-0.2-1.073-0.816-1.644-1.259c-0.668-0.52-1.321-1.06-1.98-1.592c0.111-0.141,0.222-0.281,0.333-0.422c0.21,0.058,0.439,0.082,0.628,0.18c1.954,1.012,3.426,0.772,4.173-0.694c1.683-2.967-2.546-2.365-2.935-4.665c0.449-1.389-0.332-1.978-1.281-2.6c-0.801-0.525-1.541-1.143-2.344-1.665c-0.759-0.494-1.241-1.763-2.55-0.788c-0.797,0.593-2.013,0.73-2.631,1.432c-0.979,1.113-1.725,2.479-2.336,3.842c-0.223,0.497,0.129,1.334,0.402,1.932c0.12,0.264,0.698,0.32,1.067,0.471c1.271-3.816,1.562-4.439,4.933-6.618c0.456,0.809,0.998,1.768,1.539,2.727c-0.42,0.618,0.138,1.378,1.633,2.081c1.551,0.646,4.092,3.303,1.945,4.536c-1.754-1.331-3.305-2.493-4.841-3.677c-1.069-0.824-2.306-0.397-2.626,0.457c-0.616,1.646-1.865,1.972-3.226,2.45c-1.209,0.424-2.175,2.763-1.597,3.798C219.625,137.223,220.797,136.623,222.199,136.157z M166.55,230.736c0.981,0.402,0.817-1.098,1.025-1.784c0.278-2.856,0.577-5.713,0.748-8.576c0.109-1.823,0.77-3.445,2.34-4.182c1.832-0.86,2.393-2.144,2.009-3.857c-0.342-1.524-0.645-3.536-1.707-4.29c-1.147-0.815-1.072-1.588-1.237-2.547c-0.189-1.099-0.387-2.196-0.581-3.293c-0.169,0.022-0.338,0.044-0.507,0.066c0,1.458,0,2.916,0,4.374c-0.12,0.003-0.239,0.005-0.359,0.008c-0.313-2.041-0.626-4.082-0.939-6.123c-0.277,0.026-0.553,0.053-0.829,0.079C167.686,210.655,167.757,220.697,166.55,230.736z M202.852,158.866c-1.054-0.254-0.888,1.25-1.137,2.039c-0.512,3.905-0.708,7.878-1.573,11.701c-0.757,3.347-2.221,6.54-3.443,9.774c-0.341,0.904-0.999,1.288-1.995,0.605c-0.358-0.246-0.946-0.157-1.743-0.262c1.452,2.581-0.529,5.185,1.078,7.336c0.16-0.423,0.173-0.833,0.099-1.226c-0.352-1.893,0.399-3.372,1.974-4.254c3.045-1.378,0.896-5.244,4.459-6.093c2.704-0.623,3.475-1.57,3.468-4.345c-0.003-1.249-0.059-2.54-0.372-3.739c-0.85-3.247-0.96-6.495-0.505-9.801C203.238,160.048,202.964,159.446,202.852,158.866z M232.272,160.105c0.206-0.024,0.412-0.049,0.618-0.073c3.154-6.742,2.196-13.507-0.138-20.21c-2.718,0.91-2.793,1.035-2.647,3.523c0.148,2.506,0.064,5.039,0.399,7.517C230.925,153.966,231.668,157.026,232.272,160.105z M231.872,120.721c0.134,0.124,0.268,0.248,0.402,0.373c0.796-0.832,1.751-1.57,2.324-2.534c0.308-0.518,0.083-2.028-0.107-2.066c-2.435-0.488-3.567-2.657-5.362-3.856c-2.497-1.668-5.126-2.853-5.049-6.32c-1.504,0.664-3.555,0.861-4.034,2.512c-0.094,1.621-0.829,2.452-2.412,2.436c-0.171,1.354-0.471,2.584-0.441,3.806c0.031,1.264,0.399,2.504,1.532,2.439c0.758-1.619,1.078-3.16,2.012-4.079c1.144-1.126,2.343-1.955,1.678-3.939c0.77,0.604,1.352,1.179,1.768,1.857c1.231,2.005,2.773,3.585,5.099,4.299c0.555,0.171,1.054,0.567,1.541,0.911C232.794,117.953,232.947,118.591,231.872,120.721z M265.075,70.562c-1.227-0.54-2.367-1.074-3.535-1.537c-0.384-0.152-0.877-0.247-1.259-0.144c-2.272,0.498-4.457,2.023-5.789,3.831c-1.384,2.223-0.078,3.897,3.37,4.184c-0.593,0.888-1.112,1.612-1.575,2.371c-1.104,1.812-0.381,3.324,1.822,3.495c-1.075-2.083,0.36-2.5,1.853-2.9c2.99-0.451,1.743-2.459,1.271-4.635c-0.835,0.261-1.65,0.562-2.49,0.765c-1.103,0.268-2.669,0.68-2.944-0.661c-0.296-1.446,1.369-1.517,2.449-1.646C260.971,73.361,263.247,72.173,265.075,70.562z M203.111,214.265c-1.764,0.13-3.12,0.157-4.441,0.385c-0.284,0.049-0.652,0.837-0.621,1.258c0.082,1.12,0.008,2.543,0.651,3.255c0.789,0.873,1.398,2.346,3.139,2.195c0.493-0.043,1.251,0.734,1.572,1.31c1.298,2.324,2.464,4.722,3.706,7.078c0.15,0.284,0.455,0.672,0.705,0.685c1.326,0.068,2.658,0.032,4.426,0.032c-0.529-0.605-0.658-0.799-0.829-0.943c-3.893-3.275-6.723-7.25-8.161-12.175c-0.168-0.575-0.628-1.066-0.987-1.651C202.431,215.421,202.657,215.037,203.111,214.265z M247.148,134.502c-0.151,0.042-0.302,0.085-0.453,0.127c-0.086,1.489-0.084,2.99-0.272,4.466c-0.869,8.59-2.907,16.795-2.573,25.503c0.494-0.35,0.64-0.397,0.675-0.487c0.171-0.446,0.335-0.897,0.461-1.357C247.29,153.585,249.185,143.88,247.148,134.502z M213.048,176.57c-0.227,0.948-0.528,1.74-0.585,2.548c-0.115,3.397-3.027-0.639-3.962,2.549c-0.498,1.974-1.019,3.948-1.369,5.951c-0.11,0.63,0.296,1.35,0.471,2.05c0.754-1.305,1.195-3.005,1.905-3.125c2.193-0.372,0.688,2.003,1.549,2.817c1.45-1.545,1.145-2.466-1.384-4.265c0.761-0.927,1.517-1.848,2.526-3.075c0.577,2.589,1.08,4.848,1.606,7.204c0.542-3.365,1.003-3.61,3.949-5.389c-1.025-1.657-1.956,0.66-3.145,0.298c0.508-1.012,0.966-1.923,1.625-3.236c-1.073,0.342-1.748,0.558-2.424,0.773C215.022,179.833,214.817,178.228,213.048,176.57z M283.382,226.526c0.485,0.604,0.897-1.897,1.008-2.276c0.452-3.545,0.93-7.093,1.188-10.655c0.129-1.788-0.191-3.609-0.316-5.415c0.106-0.537-0.538-2.04,0.173-2.004c-0.79-2.811-1.58-5.623-2.37-8.434c-0.212-0.032-0.424-0.065-0.636-0.097c-0.127,0.711-0.405,1.432-0.358,2.131C282.656,208.691,283.706,217.58,283.382,226.526z M220.21,83.386c-1.744,1.67-1.844,2.298-0.74,4.06c0.923,1.474,2.462,1.975,3.898,1.534c1.858-0.571,3.603-0.431,5.434-0.218c1.616,0.187,3.261-0.286,3.64-1.909c0.275-1.18-0.413-2.583-0.672-3.887c-0.186,0.027-0.371,0.054-0.557,0.081c-0.29,0.541-0.581,1.081-0.753,1.401c-1.274-0.577-2.422-1.097-3.887-1.761c0.51,1.71,2.542,2.572,1.112,4.185c-0.805,0.909-3.313,1.072-4.015,0.287c-1.668-1.866,0.551-2.623,1.348-3.782c-0.121-0.119-0.243-0.238-0.364-0.357c-0.844,0.616-1.689,1.232-2.689,1.961c0.095-0.59,0.159-0.994,0.27-1.687c-0.573,0.679-0.931,1.103-1.446,1.712C220.548,84.331,220.389,83.885,220.21,83.386z M223.905,115.227c-0.612,0.543-2.35,1.386-2.355,2.238c-0.01,1.734-0.937,2.041-2.081,2.364c-1.067,0.301-1.704,0.834-1.619,2.004c0.093,1.274,0.279,2.489,2.253,2.944c-1.122-1.709-0.679-3.067,0.742-3.633c2.161-0.861,3.298-2.182,3.198-4.52c-0.002-0.051,0.189-0.11,0.356-0.201c0.161,0.125,0.457,0.233,0.509,0.412c0.943,3.236,3.32,4.909,6.281,6.149c1.69,0.708,2.181,2.394,1.663,4.156c3.123-0.704,2.408-3.204,0.147-4.209c-1.214-0.693-3.112-0.796-2.229-3.055c0.071-0.183-0.508-0.722-0.875-0.956C228.07,117.759,226.216,116.644,223.905,115.227z M201.666,73.717c-0.132,2.099,0.757,3.561,2.248,4.783c0.696,0.571,1.493,1.323,1.696,2.131c0.524,2.081,1.932,3.099,3.78,3.984c-0.651-2.83-0.287-3.553,2.24-4.673c1.21-0.536,1.68-1.35,1.077-2.837c-0.773,0.707-1.39,1.27-2.357,2.153c0.449-4.351,0.173-4.045-1.654-0.349c-0.534-2.075-0.939-3.645-1.343-5.215c-0.962-0.109-1.124,1.214-1.608,1.859c-0.763,1.534-1.071,1.57-2.218,0.24C202.919,75.09,202.287,74.408,201.666,73.717z M239.854,75.855c0.325,1.168,0.578,2.078,0.97,3.483c-1.051-0.741-1.633-1.151-2.215-1.562c-0.004,0.736,0.094,1.479,0.502,1.742c2.008,1.292,2.002,2.718,0.268,4.373c1.702,0.5,2.387-0.583,3.198-1.422c0.797-0.824,1.539-1.72,2.428-2.432c3.04-2.439,2.506-6.763-1.632-7.415c1.362,2.21,1.585,1.838-1.021,1.689c1.933,2.856,2.07,3.773,0.905,4.955c-0.428-1.312-0.879-2.695-1.33-4.078c-0.743,0.115-0.686,0.958-1.025,1.572C240.526,76.436,240.288,76.23,239.854,75.855z M244.182,196.217c-0.116,0.178-0.232,0.355-0.348,0.533c1.008,0.989,2.016,1.978,3.278,3.218c-0.294,2.054,1.353,5.072,3.498,5.511c0.456-3.046,0.911-6.085,1.387-9.261C249.264,196.217,246.723,196.217,244.182,196.217z M247.257,164.603c-1.438,4.21-0.812,8.653-0.574,12.998c0.048,0.569,1.059,1.174,1.749,1.508c0.248,0.12,1.224-0.479,1.25-0.801C250.069,173.581,248.887,169.091,247.257,164.603z M183.403,138.117c-1.726,2.283-0.707,14.445,1.587,19.792C184.227,151.122,187.07,144.505,183.403,138.117z M224.107,92.089c-4.415-0.018-7.762,3-8.1,7.07c-0.151,1.817,0.482,2.627,2.215,2.658c-0.641-1.622-0.397-2.972,1.364-3.607C222.418,97.187,223.443,94.892,224.107,92.089z M287.516,85.489c2.199-0.812,2.372-1.027,1.797-2.886c-0.484,0.299-0.617,0.942-1.001,1.353c-0.296,0.317-0.905,0.343-1.375,0.498c-1.103-1.207,0.091-0.743,0.793-1.53c0.43-0.427,0.784-0.978,0.999-1.541c0.056-0.146-0.73-0.812-0.786-0.772c-0.78,0.57-1.404,1.338-1.972,2.107c-0.089,0.093-0.312,0.06-0.496,0.087c-0.044-1.709,0.375-1.829-1.298-1.066c-0.203-0.644-0.374-1.188-0.545-1.731c-0.771,0.452-1.524,0.931-2.264,1.431c0.026-0.571-0.134-1.241,0.11-1.694c1.025-1.907,2.171-3.75,3.273-5.616c-0.202-0.141-0.404-0.281-0.606-0.422c-1.594,1.992-2.812,4.238-4.104,6.41c-1.186,1.557-1.098,2.139,0.883,2.44c1.97,0.3,3.459,1.093,4.58,2.77c0.484,0.724,1.34,1.2,2.028,1.789C288.196,86.762,287.603,86.134,287.516,85.489z M216.292,134.069c-0.817,0.355-1.641,0.205-2.489,0.062c0.126-0.539,0.141-1.143,0.408-1.6c0.292-0.5,0.917-0.805,1.22-1.302c0.733-1.198,1.363-2.459,2.034-3.694c-0.154-0.095-0.308-0.189-0.462-0.284c-1.608,0.698-3.217,1.395-4.825,2.093c-0.2-0.229-0.4-0.458-0.6-0.687c1.993-2.313,4.554-4.314,4.547-7.697c-0.814,0.774-1.775,1.548-2.559,2.471c-1.376,1.685-3.043,3.569-2.639,5.906c0.03,0.225,1.255,0.303,1.934,0.43c0.258,0.048,0.526,0.045,0.946,0.077c-0.713,1.755-3.323,3.207-0.751,5.123C214.265,135.867,215.483,135.511,216.292,134.069z M164.845,227.369c0.739,0.439,0.715-1.558,0.959-2.065c1.318-6.601,0.893-13.232,0.143-19.836c-0.217-1.91-1.064-3.758-1.718-5.601c-0.09-0.253-0.731-0.312-1.117-0.46c0.051,0.402,0.049,0.82,0.168,1.2c0.127,0.408,0.358,0.787,0.562,1.168c0.95,1.776,0.943,3.751,1.191,5.673c0.598,2.599,0.048,5.236,0.114,7.864C165.353,219.363,165.892,223.372,164.845,227.369z M233,101.358c0.145,0.161,0.29,0.321,0.436,0.482c0.578-0.305,1.49-0.482,1.668-0.941c0.428-1.106,0.981-2.325-0.182-3.478c-1.131-1.121-2.349-2.257-3.111-3.62c-0.805-1.441-1.686-2.204-3.357-2.043c-0.735,0.071-1.49-0.057-2.35-0.101c1.647,2.382,3.469,4.393,5.661,6.191C233.031,98.804,234.118,99.546,233,101.358z M178.442,125.599c3.342-1.811,3.459-2.737,0.445-5.875c-0.083-0.086-0.227-0.155-0.249-0.252c-0.117-0.529-0.205-1.065-0.331-1.757c-0.54-0.453-1.29-1.082-2.15-1.804c-0.352,2.239-0.367,4.151,1.804,5.43c0.954,0.562,1.962,1.604,0.912,2.562c-0.59,0.539-2.058,0.277-3.085,0.106c-0.47-0.078-0.804-0.837-1.251-1.229c-0.3-0.263-0.69-0.422-1.311-0.787c0.261,1.961,1.121,2.983,2.471,3.701c1.508,0.801,1.582,1.731,0.29,2.87c-0.491,0.435-1.02,0.733-0.414,1.322c0.848-0.487,1.903-0.808,2.478-1.517C178.485,127.834,178.304,126.801,178.442,125.599z M231.362,114.049c2.848,0.801,4.464-2.443,2.749-4.259c-2.054-1.703-4.289-3.195-6.509-4.689c-0.502-0.338-1.216-0.364-1.832-0.534c-0.046,0.736-0.344,1.579-0.088,2.188c0.697,1.656,2.137,2.474,3.88,2.857C232.249,110.202,232.849,111.556,231.362,114.049z M258.364,124.394c-0.168-0.04-0.337-0.079-0.505-0.119c-3.124,2.972-2.696,6.25,0.978,7.493c-0.567,3.199,0.877,4.177,4.564,3.411c0.326,1.299,0.457,2.678,1.06,3.807c0.242,0.453,1.517,0.356,2.322,0.509c-2.445-1.562-2.465-1.747-0.746-4.15c0.353-0.494,0.451-1.17,0.794-2.115c-1.548,0.423-2.704,0.527-3.629,1.045c-1.139,0.638-2.092,0.678-2.879-0.289c-1.267-1.583,0.922-2.643,1.465-4.031c-0.663-0.114-1.004-0.001-1.246,0.22c-1.067,0.974-2.071,1.051-3.14-0.023c-1.116-1.121-0.431-1.938,0.215-2.976C258.102,126.396,258.132,125.332,258.364,124.394z M271.758,111.983c-0.602,1.075-0.973,1.967-1.54,2.707c-2.129,2.776-1.441,6.039,1.664,7.753c1.521,1.05,1.824,2.885,3.887,1.072c-6.493-1.821,4.222-4.966,0.052-8.068c-1.252,2.186-2.443,4.264-3.634,6.344c-1.792-1.051-2.159-1.985-1.409-3.673C271.683,116.085,273.509,114.324,271.758,111.983z M212.256,80.737c-3.756,2.148,0.072,3.847,1.234,5.967c1.08,1.592,2.082,2.008,4.151,1.311c-1.794-2.273,1.305-3.499,1.258-5.75c-0.731,0.663-1.278,1.158-1.91,1.731c-0.245-0.521-0.414-0.879-0.594-1.262c-0.455,0.253-0.862,0.479-1.581,0.879C215.668,80.745,212.641,82.29,212.256,80.737z M225.347,67.219c-0.851,0.306-1.633,0.638-2.444,0.869c-1.849,0.526-2.461,2.354-1.22,3.739c2.045,2.284,7.059,1.781,8.545-0.894c0.27-0.485,0.284-1.112,0.416-1.674c-0.73,0.36-1.106,0.816-1.513,1.242c-1.825,1.907-6.546,2.409-7.001-0.431c1.97,0.733,1.545,0.837,2.487-0.863c1.463,1.86,2.836,2.056,3.93,0.641c0.702-0.908,0.801-1.592-0.629-1.854C227.02,67.83,226.158,67.47,225.347,67.219z M275.032,91.654c-1.272,0.281-2.289,0.847-2.802,0.549c-1.148-0.669-1.022-1.932-0.458-3.035c0.323-0.632,0.771-1.204,1.203-1.774c0.501-0.59,1.375-1.155,0.944-2.033c-0.078-0.161-0.523-0.23-0.788-0.201c-2.057,0.225-3.852,3.272-3.437,5.793c0.332,2.013,1.888,2.752,4.435,2.119c0.072-0.018,0.18,0.11,0.416,0.265c-0.491,0.518-0.958,1.011-1.412,1.49c1.044,2.588,2.97,3.728,4.845,2.961c-0.701-0.488-1.601-0.867-2.103-1.542c-0.399-0.536-0.676-1.672-0.376-2.126C276.527,92.563,275.554,92.005,275.032,91.654z M182.641,126.433c-2.795,2.702,2.905,2.241,0.711,5.57c-0.167,0.254-0.257,0.559-0.432,0.951c2.072-0.449,2.332-0.757,2.752-2.488c0.122-0.504,0.478-1.111,0.907-1.354c4.323-2.515,0.523-5.365-2.287-6.959c1.103-1.396-0.743,0.006-1.612,0.322c1.789,1.489,3.608,2.601,3.716,4.934C186.134,130.23,183.588,127.338,182.641,126.433z M173.678,187.361c-0.116,0.977-0.225,1.895-0.334,2.813c0.136,0.03,0.271,0.059,0.407,0.089c0.434-0.52,0.516-1.817,1.359-1.474c-0.084,1.123-0.168,2.247-0.265,3.553c1.489-0.305,1.988-1.01,2.068-2.372c0.057-0.97,0.593-1.926,0.995-2.854c1.265-1.505,1.356-3.337,1.89-5.224c-1.3-0.848-2.408-0.772-3.046,0.634c-0.436,0.96-0.544,2.163-0.473,3.236c0.122,1.86,0.072,2.004-1.715,1.651C174.339,187.368,174.103,187.384,173.678,187.361z M237.336,80.066c-0.23,0.914-0.46,1.828-0.748,2.974c-0.471-0.526-0.726-0.811-1.216-1.358c0,1.087,0,1.857,0,2.628c-0.132,0.066-0.265,0.132-0.397,0.198c-0.424-0.747-0.847-1.495-1.271-2.242c-0.281,0.158-0.561,0.317-0.842,0.475c0.561,1.91,2.707,3.8,0.04,5.698c2.806,1.183,6.709-1.94,5.309-4.613c-0.141-0.288-0.244-0.866-0.1-0.98C239.882,81.434,237.791,80.978,237.336,80.066z M218.778,90.811c-1.416,0-2.708-0.023-3.997,0.019c-0.253,0.008-0.571,0.209-0.734,0.418c-1.424,1.943-3.928,3.999-2.903,6.65c0.255,0.627,1.308,0.93,2.006,1.377c0.137-0.119,0.275-0.239,0.412-0.358c-1.044-1.442-0.251-2.309,0.703-3.254C215.776,94.165,217.171,92.552,218.778,90.811z M214.165,106.417c-2.901,3.217-4.639,4.401-4.053,9.003c0.021,0.428,0.981,0.809,1.511,1.211c-1.501-5.131,4.06-3.048,3.449-6.616C214.802,108.87,214.498,107.734,214.165,106.417z M201.628,134.325c-2.515,2.378-2.196,11.702,0.25,16.163C201.693,145.085,202.067,139.872,201.628,134.325z M242.454,97.635c-1.408-2.684-3.867-4.05-6.188-5.781c-0.484-0.327-1.323-0.131-1.999-0.174c-0.221,2.286,1.422,3.787,3.473,4.484c0.967,0.376,1.701,1.338,2.558,2.014c0.329,0.26,0.801,0.708,1.047,0.621C241.739,98.658,242.001,98.143,242.454,97.635z M272.956,181.419c1.063,2.062,2.121,4.205,3.505,6.077c0.873,1.131,1.58,2.191,1.172,3.745c-0.345,1.316,0.457,1.104,0.901,1.024c0-1.314-0.061-2.331,0.059-3.326c0.02-0.168,1.139-0.438,1.205-0.33c0.45,0.738,0.754,1.565,1.053,2.246c0.538-2.227,0.385-2.668-1.773-3.567c-1.7-0.708-2.717-1.671-2.754-3.706C276.281,181.277,275.145,180.704,272.956,181.419z M287.18,220.67c0.194,0.015,0.388,0.03,0.583,0.044c1.283-6.25,1.338-12.49-0.033-18.718c-0.183,0.001-0.366,0.002-0.55,0.004C287.18,208.224,287.18,214.447,287.18,220.67z M175.395,180.641c-0.176-0.137-0.352-0.275-0.528-0.412c-0.461,0.459-1.18,0.842-1.339,1.389c-0.687,2.363-0.989,4.906-4.133,5.893c2.382,0.764,2.514,1.758,0.926,4.137c-0.559-0.194-1.252-1.153-1.595-0.323c0.743,0.504,1.469,1.396,2.231,1.428c1.388,0.058,1.289-1.239,1.355-2.267c0.072-1.117-0.197-2.741,0.421-3.251C174.94,185.416,174.294,182.735,175.395,180.641z M251.185,231.04c0.051,0.187,0.102,0.373,0.153,0.56c0.997-0.418,2.214-0.61,2.935-1.311c1.979-2.197,2.52-5.333,3.487-8.092c-2.514,0.136-3.318,1.439-3.308,3.458c0.002,0.328-0.211,0.685-0.4,0.981C253.111,228.112,252.143,229.574,251.185,231.04z M204.606,126.231c0.249,0.051,0.497,0.102,0.745,0.154c0.642-2.195,3.771-3.44,2.523-6.103c-0.973-0.257-1.951-0.245-2.379-0.724c-0.278-0.31,0.01-1.659,0.455-1.985c1.59-1.167,1.252-2.496,0.747-4.032c-3.173,5.773-3.173,5.773-0.762,7.481C205.47,122.844,205.038,124.538,204.606,126.231z M203.099,180.153c-5.255-0.409-2.105,3.937-5.709,5.232c-2.073,0.798-2.583,2.689-1.133,5.236c-0.238-2.398-0.534-2.828,1.149-4.388c1.133,1.329,1.416,1.883,1.201,3.652c0.188,0.005,0.377,0.011,0.565,0.016c0.054-0.953,0.012-1.924,0.189-2.854C199.917,184.327,201.557,182.696,203.099,180.153z M208.716,99.199c-0.365-1.115-0.672-2.048-0.983-2.999c-1.289,1.167-2.645,2.228-3.796,3.478c-1.619,1.757-1.127,4.07,0.964,4.6C204.16,101.14,206.628,100.352,208.716,99.199z M209.639,88.295c-2.852,2.096-7.06,3.301-4.364,7.37c-0.373-4.396,4.659-0.713,4.523-4.784C209.775,90.126,209.707,89.374,209.639,88.295z M212.259,107.245c-1.279-2.127-0.178-3.409,1.315-4.641c0.246-0.203-0.044-1.055-0.086-1.607c-0.965,0.096-2.183-0.141-2.841,0.359c-1.225,0.931-1.753,2.427-1.157,4.007C209.883,106.404,210.422,107.426,212.259,107.245z M207.372,104.873c-2.657,1.216-4.46,3.62-4.201,5.511c0.156,1.134,0.581,2.123,1.414,2.211c0.546-1.344,0.681-2.887,1.446-3.32C208.015,108.154,207.752,106.713,207.372,104.873z M214.18,115.571c-4.22,6.219-4.22,6.219-3.475,7.169c1.216-0.754,2.452-1.41,3.549-2.246C216.506,118.877,215.116,117.649,214.18,115.571z M162.807,222.802c2.121-0.819,0.205-16.162,0-19.104C162.807,210.066,162.807,216.434,162.807,222.802z M235.475,32.612c-2.786-0.815-4.754,1.334-4.336,4.783c0.053,0.546,0.535,1.05,0.818,1.573c0.39-0.398,0.908-0.733,1.145-1.207C233.932,36.101,234.664,34.393,235.475,32.612z M188.547,108.258c-3.011,2.342,0.485,2.757,0.482,5.212c-0.087,0.429-0.819,0.963-1.306,1.008c-0.478,0.044-0.987-0.525-1.522-0.72c-0.34-0.124-0.75-0.054-1.129-0.071c-0.01,0.273-0.114,0.589-0.013,0.812c1.017,2.367,6.671,0.924,5.245-2.169C189.721,111.029,189.173,109.712,188.547,108.258z M194.773,222.949c-0.093,0.204-0.186,0.409-0.279,0.613c1.001,0.522,2.122,0.899,2.967,1.606c0.814,0.681,1.725,1.637,1.887,2.591c0.156,0.92-0.592,1.993-0.963,3.058c1.162,0.137,2.464,0.219,3.127-1.335c0.635-1.49-0.076-2.655-1.222-3.407C198.527,224.918,196.619,223.98,194.773,222.949z M221.606,36.306c-0.096-0.03-0.192-0.059-0.288-0.089c0-0.534,0.211-1.227-0.046-1.567c-0.459-0.606-1.197-1.388-1.825-1.395c-1.099-0.012-1.352,0.968-1.086,1.975c0.18,1.488,1.411,2.341,2.337,3.385C221,37.846,221.303,37.076,221.606,36.306z M217.57,37.528c-0.282-1.06-0.397-2.04-0.82-2.862c-0.235-0.457-0.985-0.65-1.504-0.962c-0.342,0.567-1.003,1.163-0.955,1.695c0.082,0.907,0.507,1.836,0.986,2.637c0.321,0.538,0.983,0.872,1.493,1.297C217.04,38.726,217.309,38.117,217.57,37.528z M199.267,120.299c1.123-1.48,2.207-2.803,3.168-4.211c0.694-1.018,0.514-1.918-0.701-2.401C200.1,115.586,197.53,117.526,199.267,120.299z M242.225,93.625c1.452,1.56,2.759,2.698,1.74,4.978c1.03-0.39,2.167-0.772,2.427-1.477c0.597-1.621-0.594-2.895-1.728-3.796C244.214,92.971,243.059,93.5,242.225,93.625z M248.863,181.381c0.741,2.603,1.417,5.148,2.225,7.65c0.13,0.404,0.847,0.618,1.293,0.92c0.136-0.136,0.272-0.272,0.408-0.408c-1.151-1.206-0.951-2.274,0.221-3.135c-0.464-0.283-1.005-0.42-1.157-0.742C250.985,184.335,250.999,180.931,248.863,181.381z M227.078,35.255c0.143,0.664,0.255,1.563,0.554,2.395c0.13,0.36,0.644,0.582,0.984,0.867c0.248-0.309,0.645-0.587,0.716-0.932c0.24-1.169,0.461-2.36,0.478-3.546c0.006-0.416-0.588-1.173-0.928-1.184c-0.53-0.017-1.19,0.363-1.576,0.778C227.046,33.914,227.16,34.543,227.078,35.255z M168.979,112.379c-0.586,3.013,2.419,3.568,2.73,6.491c0.016,0.446-1.066,0.931-1.77,1.493c1.163,0.596,2.523,0.406,3.005-0.471c0.39-0.711-0.024-2.115-0.501-2.982c-0.529-0.962-1.894-1.34-1.84-2.847C170.619,113.601,169.713,113.107,168.979,112.379z M201.806,91.024c0.244-0.02,0.488-0.039,0.732-0.059c0.351-0.736,0.585-1.563,1.075-2.191c1.649-2.113,1.506-3.573-0.268-4.989C202.47,86.047,201.288,88.451,201.806,91.024z M197.944,114.726c0.619-0.947,0.956-2.022,1.68-2.462c1.869-1.136,1.535-2.88,1.784-4.608C198.588,109.013,197.277,111.687,197.944,114.726z M245.939,105.15c3.278-1.427,1.149-4.063-0.712-5.347c-0.307-0.218-1.303,0.534-2.454,1.056C244.863,101.894,246.289,102.861,245.939,105.15z M246.753,111.689c3.648-1.154,1.185-3.934-0.802-5.026c-0.398-0.237-1.383,0.508-2.493,0.969c1.716,1.007,2.88,1.69,4.134,2.425C247.324,110.579,247.104,111.007,246.753,111.689z M247.121,118.09c1.684-1.975-0.17-2.649-1.364-4.237c-0.308-0.585-0.487-1.238-0.722-1.862c-0.958,0.032-1.255,1.552-1.623,1.972C244.793,115.499,245.975,116.815,247.121,118.09z M249.574,101.71c-0.059,0.281-0.119,0.562-0.178,0.843c0.793-0.436,2.279-0.926,2.25-1.298c-0.085-1.094-0.646-2.229-1.29-3.161c-0.229-0.331-1.235-0.125-1.886-0.164C248.695,99.233,249.083,100.483,249.574,101.71z M275.579,223.823c-0.651,0.865-1.329,1.367-1.403,1.946c-0.173,1.348-0.055,2.734-0.055,4.461C277.274,229.556,276.469,226.543,275.579,223.823z M171.774,220.811c-2.05-0.902-2.451-0.679-2.606,1.173c-0.18,2.145-0.41,4.286-0.563,6.433c-0.035,0.495,0.151,1.005,0.236,1.509c0.181-0.001,0.362-0.001,0.543-0.002C170.345,226.976,168.407,223.254,171.774,220.811z M245.377,91.718c1.146,1.586,1.813,3.439,3.485,4.489C251.054,93.93,248.318,91.284,245.377,91.718z M225.643,35.918c0.208-1.093-0.453-1.799-1.02-2.667c-0.548,0.611-1.459,1.174-1.549,1.846c-0.105,0.78,0.453,1.685,0.842,2.478c0.15,0.305,0.76,0.701,0.93,0.613C225.628,37.747,225.761,36.761,225.643,35.918z M201.556,94.2c-2.38,1.346-3.46,4.091-2.466,5.356c0.727-0.735,1.403-1.572,2.228-2.219C202.751,96.213,202.837,95.67,201.556,94.2z M203.855,191.198c-2.274-0.532-4.669,0.406-4.192,3.172C202.603,194.358,202.443,193.573,203.855,191.198z M208.628,126.221c-0.26-0.657-1.471,0.974-2.013,1.104c-2.618,1.194-1.444,7.302,1.595,4.396C204.562,131.472,207.859,127.774,208.628,126.221z M224.936,134.488c-1.657,2.094-1.784,4.392-0.316,5.706C226.242,135.71,226.828,136.395,224.936,134.488z M190.322,125.641c0.524,2.144,0.765,4.17-2.283,5.289c2.789,0.108,4.276-0.947,4.42-2.655C192.573,126.919,192.248,125.816,190.322,125.641z M198.916,191.546c-1.672-0.312-3.1-0.103-3.839,1.514c-0.202,0.442,0.15,1.137,0.248,1.716C197.902,194.466,197.801,193.755,198.916,191.546z M213.441,231.547c-1.468,0.525-2.921,0.985-4.317,1.58c-0.449,0.192-0.746,0.74-1.113,1.125c0.395,0.316,0.765,0.843,1.192,0.895C211.456,235.408,212.016,233.155,213.441,231.547z M208.087,191.372c-1.774-0.669-3.407-0.068-3.742,1.597c-0.087,0.432,0.237,1.241,0.58,1.386C206.634,194.713,207.284,192.461,208.087,191.372z M246.865,191.6c0.9,1.069,1.572,2.06,2.447,2.816c0.382,0.329,1.182,0.175,1.792,0.24c-0.075-0.523,0.016-1.164-0.257-1.547C249.972,191.882,248.806,191.126,246.865,191.6z M194.423,191.67c-2.411-0.533-4.122,0.807-3.762,3.404c0.716-0.23,1.585-0.256,2.009-0.703C193.405,193.6,193.865,192.567,194.423,191.67z M203.615,121.992c-0.744-0.747-1.297-1.654-2.162-0.582c-0.449,0.899-0.806,1.852-1.102,2.814c-0.083,0.269,0.088,0.707,0.289,0.94c0.125,0.144,0.688,0.164,0.781,0.039C202.156,124.21,202.825,123.17,203.615,121.992z M251.456,192.037c2.435,3.031,3.102,3.367,4.759,2.392C254.976,192.341,253.477,191.588,251.456,192.037z M243.231,191.436c1.034,1.473,1.373,3.367,3.394,3.308C248.294,193.216,245.162,190.93,243.231,191.436z M208.83,239.253c-1.167,0.054-2.013,0.093-3.302,0.153c0.465,1.155,0.679,2.078,1.198,2.772c0.197,0.264,1.521,0.164,1.604-0.05C208.646,241.311,208.665,240.379,208.83,239.253z M198.464,107.157c1.978-2.407,2.323-3.127,2.328-6.342C198.509,102.833,197.699,105.332,198.464,107.157z M208.909,231.577c-1.18,0.351-2.509,0.646-3.736,1.176c-0.346,0.149-0.558,1-0.519,1.505c0.024,0.311,0.61,0.751,0.996,0.813c0.351,0.056,0.893-0.22,1.138-0.523C207.53,233.633,208.168,232.633,208.909,231.577z M252.111,113.479c1.862-1.68,0.488-4.951-1.993-3.988C250.162,111.102,251.293,112.086,252.111,113.479z M179.104,130.994c1.222,2.523,1.454,2.472-0.23,4.579c1.192,0.508,2.105,0.362,2.593-0.919C181.979,133.31,181.156,131.773,179.104,130.994z M260.186,191.89c0.557,0.983,0.942,1.874,1.527,2.605c0.3,0.376,0.958,0.466,1.454,0.685c0.158-0.51,0.564-1.099,0.431-1.517C263.08,192.033,261.845,191.536,260.186,191.89z M229.179,239.437c0.35,1.456,0.389,2.916,2.204,2.549c0.422-0.086,1.044-1.013,0.963-1.438C231.993,238.672,230.557,239.415,229.179,239.437z M213.063,242.296c-0.179-1.334,0.302-2.888-1.607-2.916c-0.378-0.006-1.106,1.034-1.096,1.582C210.39,242.645,211.661,242.457,213.063,242.296z M240.457,92.974c0.4-0.12,1.416-0.139,1.602-0.541c0.364-0.787,0.38-1.797,0.304-2.695c-0.031-0.371-0.669-0.69-1.03-1.033C240.372,90.091,240.543,91.133,240.457,92.974z M249.24,104.386c0.768,1.224,1.087,2.354,2.366,2.961c0.304-0.452,0.865-0.902,0.867-1.356C252.483,104.312,251.42,103.758,249.24,104.386z M216.43,189.47c-0.196-0.353-0.527-0.696-0.557-1.063c-0.044-0.536,0.02-1.143,0.255-1.612c0.108-0.216,0.892-0.37,1.086-0.21c0.415,0.343,0.702,0.884,0.926,1.394c0.101,0.229-0.189,0.622-0.097,0.863c0.136,0.353,0.455,0.636,0.696,0.949c0.169-0.312,0.515-0.651,0.472-0.931c-0.098-0.64-0.255-1.35-0.631-1.847c-0.456-0.602-1.107-1.238-1.788-1.41c-0.318-0.08-1.16,0.831-1.308,1.409C215.252,187.919,214.822,189.097,216.43,189.47z M197.588,56.303c-0.079-2.437-2.36-4.714-5.104-4.797C194.342,53.253,195.904,54.721,197.588,56.303z M218.324,241.361c-0.991-0.9-1.482-1.658-2.118-1.808c-0.389-0.092-1.378,0.709-1.429,1.181c-0.099,0.921,0.473,1.76,1.613,1.614C216.879,242.286,217.324,241.888,218.324,241.361z M244.602,238.988c0.126,1.318,0.495,2.087,1.345,2.993c0.519-0.455,1.302-0.832,1.468-1.392c0.121-0.409-0.454-1.241-0.933-1.545C246.065,238.778,245.346,238.988,244.602,238.988z M194.748,120.504c1.821-1.797,1.758-4.213,0-5.932C194.748,116.576,194.748,118.294,194.748,120.504z M259.645,195.261c0.17-2.775-1.44-3.818-4.241-3.267C256.959,193.043,258.271,194.054,259.645,195.261z M217.356,177.266c0.273-0.017,0.546-0.034,0.818-0.051c-0.182-2.699-0.365-5.397-0.547-8.096c-0.09,0.013-0.181,0.025-0.271,0.038C217.356,171.86,217.356,174.563,217.356,177.266z M189.989,191.732c-1.808,0.105-2.82,0.667-3.448,2.186c-0.138,0.335,0.07,0.812,0.118,1.224c0.58-0.141,1.405-0.093,1.692-0.462C189.03,193.81,189.452,192.741,189.989,191.732z M264.177,192.364c0.418,0.555,0.725,0.911,0.972,1.304c0.252,0.4,0.345,0.981,0.69,1.221c0.465,0.324,1.105,0.399,1.67,0.581c0.111-0.348,0.385-0.74,0.307-1.038C267.444,193.025,266.005,192.176,264.177,192.364z M204.655,242.178c-0.723-1.003,0.535-2.685-1.481-2.809c-0.368-0.023-1.109,0.954-1.143,1.503C201.937,242.391,202.972,242.565,204.655,242.178z M200.567,241.975c-1.186-0.837,0.291-3.033-1.992-2.827c-0.275,0.025-0.661,1.318-0.606,1.991C198.085,242.568,199.036,242.628,200.567,241.975z M246.569,123.385c0.979-2.102-1.206-2.634-1.869-4.133c-0.573,0.695-1.001,1.214-1.383,1.676C244.436,121.773,245.401,122.502,246.569,123.385z M233.493,240.195c-0.004,0.24-0.009,0.48-0.013,0.72c0.536,0.358,1.05,0.944,1.614,0.996c0.38,0.035,1.248-0.856,1.175-1.029c-0.256-0.604-0.738-1.272-1.308-1.521C234.652,239.227,233.994,239.892,233.493,240.195z M185.349,192.342c-2.01-0.441-3.783,1.254-2.635,3.07c0.448-0.175,1.079-0.222,1.309-0.55C184.571,194.083,184.929,193.171,185.349,192.342z M239.689,191.391c0.667,0.993,1.341,2.06,2.096,3.067c0.152,0.203,0.766,0.34,0.896,0.219c0.254-0.238,0.461-0.692,0.432-1.034C242.984,192.123,241.4,191.166,239.689,191.391z M198.625,168.491c-2.109,2.009-2.704,4.796-1.749,7.075C197.423,173.352,197.995,171.039,198.625,168.491z M253.517,232.185c-0.091,0.184-0.182,0.368-0.274,0.552c0.361,0.662,0.599,1.456,1.124,1.94c0.357,0.329,1.116,0.223,1.694,0.312c0.039-0.523,0.298-1.356,0.077-1.512C255.353,232.922,254.404,232.598,253.517,232.185z M251.726,171.106c-0.15,0.049-0.299,0.097-0.449,0.146c0.705,2.012-0.345,4.594,1.898,6.108c0.182-0.059,0.365-0.118,0.547-0.178C253.057,175.156,252.391,173.131,251.726,171.106z M248.984,239.101c0.792,0.875-0.375,2.643,1.545,2.518c0.469-0.03,1.311-1.185,1.222-1.688C251.478,238.388,250.241,238.988,248.984,239.101z M236.547,232.321c-0.488,0.652,0.34,1.848,0.607,2.534c0.24,0.405,0.75,0.713,1.207,0.894c0.177,0.07,0.76-0.313,0.775-0.517C239.452,233.455,237.714,233.101,236.547,232.321z M243.007,233.083c0.627,0.756,1.253,1.513,1.88,2.269c0.396-0.433,1.177-0.93,1.118-1.287C245.776,232.689,244.705,232.437,243.007,233.083z M197.131,121.815c-1.204,2.203-0.544,3.893,1.6,4.476C198.136,124.629,197.633,123.222,197.131,121.815z M247.394,89.992c0.424-1.724-0.643-2.701-1.724-3.826C245.122,89.439,245.215,89.652,247.394,89.992z M169.448,218.564c0.151,0.248,0.302,0.495,0.453,0.743c0.785-0.272,1.99,0.913,2.312-0.806c0.101-0.539-0.366-1.184-0.572-1.781C170.91,217.335,170.179,217.95,169.448,218.564z M255.496,185.572c0.134,1.314,0.273,2.577,0.376,3.818c0.182,0.203,0.427,0.537,0.606,0.513c0.285-0.038,0.66-0.266,0.78-0.517C257.838,188.174,257.003,186.336,255.496,185.572z M253.491,241.993c0.916-0.456,1.641-0.639,2.07-1.098c0.244-0.261,0.2-1.236-0.057-1.426c-0.503-0.372-1.246-0.42-2.012-0.636C253.491,239.96,253.491,240.662,253.491,241.993z M166.055,197.979c3.692,2.134,3.855,2.254,4.705,6.312C171.717,200.965,170.334,199.038,166.055,197.979z M239.335,232.314c0.53,1.013,0.823,1.648,1.185,2.241c0.242,0.396,0.525,0.918,0.897,1.032c0.256,0.078,0.989-0.444,0.992-0.705c0.007-0.512-0.205-1.212-0.582-1.501C241.242,232.933,240.444,232.764,239.335,232.314z M215.453,232.107c-0.909,0.499-1.708,0.811-2.332,1.332c-0.315,0.263-0.507,0.959-0.393,1.357c0.089,0.311,0.778,0.695,1.118,0.627C215.111,234.855,215.024,233.509,215.453,232.107z M183.945,232.339c-0.07,0.249-0.141,0.498-0.211,0.748c0.869,0.536,1.739,1.072,2.525,1.557c0.374-1.167,0.619-1.931,0.88-2.745C186.166,232.032,185.055,232.185,183.945,232.339z M250.112,125.524c1.375-3.041,1.416-2.903-0.95-4.983c-0.072,0.104-0.144,0.207-0.216,0.311C249.278,122.181,249.61,123.51,250.112,125.524z M268.489,192.552c0.864,1.375,0.999,2.567,2.554,2.896c0.164-0.409,0.528-0.856,0.457-1.22C271.213,192.75,270.065,192.555,268.489,192.552z M211.75,191.166c-1.51-0.416-2.411,0.361-3.04,1.437c-0.191,0.326,0.112,0.94,0.188,1.422C210.438,193.684,210.859,192.403,211.75,191.166z M203.304,126.999c-2.335,1.115-2.524,2.789-0.802,3.89C202.779,129.545,203.041,128.272,203.304,126.999z M196.067,241.676c-0.715-0.897-1.29-1.62-1.865-2.342c-0.254,0.327-0.794,0.792-0.714,0.959c0.385,0.8,0.938,1.52,1.432,2.268C195.201,242.344,195.481,242.128,196.067,241.676z M219.973,238.943c-1.166,2.007-1.505,1.888,0.209,3.117C221.719,240.615,221.39,240.776,219.973,238.943z M250.499,119.259c0.402-0.569,1.094-1.171,0.982-1.457C248.547,111.495,249.148,114.576,250.499,119.259z M187.278,131.379c-0.862,1.316-1.626,2.481-2.392,3.651C187.52,134.664,188.479,133.398,187.278,131.379z M240.985,239.206c0.445,1.106,0.781,1.942,1.118,2.778c0.453-0.278,1.252-0.511,1.296-0.843C243.55,239.996,242.988,239.23,240.985,239.206z M218.969,234.301c-0.766-0.674-1.234-1.375-1.585-1.321c-0.439,0.068-1.089,0.758-1.085,1.174c0.005,0.458,0.574,1.108,1.044,1.286C217.616,235.544,218.179,234.882,218.969,234.301z M196.685,99.401c0.414-1.203,0.828-2.406,1.342-3.901C195.862,96.258,195.479,97.244,196.685,99.401z M196.821,234.668c-0.094-1.026-0.175-1.906-0.313-3.411c-0.811,0.92-1.787,1.531-1.785,2.138C194.727,234.357,195.568,235.01,196.821,234.668z M228.365,233.424c-0.585,0.684-0.939,1.099-1.293,1.513c0.482,0.323,0.966,0.901,1.444,0.895c0.447-0.006,0.886-0.63,1.328-0.982C229.44,234.462,229.037,234.073,228.365,233.424z M223.007,233.812c-0.717,1.499,1.094,2.292,2.324,1.901c0.222-0.045,0.309-0.742,0.459-1.138C224.863,234.32,223.935,234.066,223.007,233.812z M203.053,232.384c-0.087-0.179-0.174-0.358-0.26-0.536c-0.683,0.63-1.863,1.212-1.929,1.901c-0.09,0.94,0.902,1.523,1.935,1.262C202.893,234.047,202.973,233.215,203.053,232.384z M197.742,93.87c2-1.088,2.502-2.761,1.328-4.884C198.6,90.714,198.207,92.159,197.742,93.87z M259.057,241.366c0.183,0.167,0.366,0.333,0.549,0.5c0.633-0.467,1.267-0.934,1.9-1.402C258.765,237.725,259.754,238.203,259.057,241.366z M199.073,235.098c0.423-1.402,0.708-2.346,0.993-3.289c-0.097-0.12-0.194-0.24-0.291-0.36c-0.737,0.624-1.475,1.247-2.212,1.871C198.028,233.867,198.493,234.414,199.073,235.098z M223.832,239.105c-0.6,0.74-1.187,1.211-1.106,1.41c0.232,0.566,0.736,1.02,1.132,1.519C225.326,240.77,224.885,240.768,223.832,239.105z M191.589,241.45c-0.508-0.792-0.916-1.429-1.325-2.066c-0.298,0.418-0.923,0.944-0.828,1.233c0.207,0.625,0.782,1.129,1.206,1.683C190.9,242.068,191.158,241.836,191.589,241.45z M237.551,239.469c0.492,0.996,0.862,1.745,1.232,2.494c0.393-0.415,1.094-0.813,1.12-1.25C239.97,239.605,239.208,239.221,237.551,239.469z M161.312,211.641c-1.447,1.436-1.423,2.697,0,4.369C161.312,214.51,161.312,213.24,161.312,211.641z M225.596,239.938c0.724,0.867,1.243,1.489,1.762,2.11c0.326-0.306,0.955-0.646,0.926-0.913C228.165,240.052,227.567,239.391,225.596,239.938z M196.741,104.88c-0.222-0.066-0.444-0.132-0.666-0.198c-0.297,0.839-0.684,1.662-0.841,2.527c-0.052,0.286,0.486,0.679,0.754,1.023c0.251-0.297,0.676-0.572,0.718-0.896C196.812,106.529,196.741,105.7,196.741,104.88z M246.959,232.339c-0.355,0.696,0.344,1.482,0.595,2.145c0.171,0.296,0.51,0.617,0.82,0.676c0.259,0.049,0.759-0.205,0.843-0.437c0.121-0.331,0.108-0.954-0.107-1.12C248.46,233.096,247.685,232.748,246.959,232.339z M233.495,232.867c0.256,1.34,0.229,2.104,1.25,2.872c0.303-0.329,0.816-0.626,0.871-0.993C235.826,233.361,234.815,233.116,233.495,232.867z M248.059,126.637c-0.472,1.346-0.862,2.458-1.316,3.752C248.843,129.501,249.38,128.052,248.059,126.637z M263.139,232.354c0.911,0.946,1.566,1.626,2.221,2.307c0.167-0.399,0.526-0.829,0.467-1.19C265.643,232.352,264.905,231.922,263.139,232.354z M261.934,235.049c0.247-0.034,0.494-0.069,0.741-0.103c-0.087-0.729,0.003-1.554-0.323-2.154c-0.22-0.405-1.027-0.491-1.571-0.72c-0.089,0.156-0.179,0.312-0.268,0.468C260.986,233.377,261.46,234.213,261.934,235.049z M272.54,192.717c-0.273,0.632,0.792,1.591,1.13,2.164c0.234,0.273,0.702,0.346,1.063,0.509c0.076-0.515,0.385-1.342,0.187-1.489C274.22,193.38,273.347,193.092,272.54,192.717z M222.169,234.712c-1.547-1.06-1.561-1.605-2.836-0.297C220.538,235.764,220.335,235.754,222.169,234.712z M258.695,235.276c1.354-1.842,0.836-2.687-1.528-2.951C257.65,233.257,258.124,234.172,258.695,235.276z M231.175,233.332c-0.249,0.248-0.498,0.496-0.747,0.743c0.428,0.568,0.856,1.136,1.284,1.703C233.291,234.181,232.56,234.557,231.175,233.332z M273.042,226.731c-0.332-0.035-0.664-0.069-0.997-0.104c-0.181,1.262-0.362,2.523-0.543,3.785c0.276,0.036,0.551,0.073,0.827,0.109C272.568,229.258,272.805,227.995,273.042,226.731z M181.522,192.538c-1.453,0.07-2.164,0.77-2.174,2.099c-0.002,0.279,0.316,0.56,0.487,0.84C180.918,194.837,180.957,193.698,181.522,192.538z M254.217,183.715c0.875-3.079-0.528-5.426-3.332-4.817c0.013,0.177,0.026,0.355,0.039,0.532C254.013,180.032,254.14,180.181,254.217,183.715z M195.308,113.012c1.235-2.268,1.077-2.654-1.03-2.91C194.657,111.172,194.983,112.092,195.308,113.012z M290.316,213.541c1.542-1.472,1.557-2.327,0-3.4C290.316,211.333,290.316,212.309,290.316,213.541z M257.529,135.188c-0.46-0.752-0.92-1.504-1.38-2.255c-0.254,0.205-0.692,0.381-0.73,0.62C255.238,134.699,255.843,135.304,257.529,135.188z M176.613,195.65c0.895-1.125,1.55-1.948,2.272-2.855C176.864,192.55,176.327,193.129,176.613,195.65z M192.659,231.728c-0.561,0.728-1.253,1.438-1.169,1.548c0.48,0.619,1.145,1.093,1.748,1.617c0.124-0.145,0.247-0.291,0.37-0.436C193.363,233.75,193.117,233.043,192.659,231.728z M194.825,103.29c2.463-0.814,2.631-1.132,1.7-2.868C195.903,101.472,195.364,102.381,194.825,103.29z M215.103,191.302c-2.307-0.143-3.128,0.631-2.788,2.558C213.253,193,214.081,192.239,215.103,191.302z M189.762,232.359c-0.664-0.836-1.132,0.582-1.697,0.994C190.087,234.934,190.354,235.023,189.762,232.359z M173.541,196.403c0.511-1.131,0.905-2.001,1.32-2.921C172.856,193.798,172.448,194.543,173.541,196.403z M198.985,128.187c-0.308,0.133-0.616,0.266-0.924,0.399c0.423,0.949,0.846,1.899,1.269,2.848c0.271-0.117,0.541-0.235,0.812-0.352C199.756,130.118,199.371,129.152,198.985,128.187z M171.185,194.204c-0.143-0.134-0.287-0.268-0.43-0.402c-0.435,0.496-1.047,0.933-1.241,1.511c-0.119,0.354,0.402,0.923,0.857,1.843C170.755,195.763,170.97,194.984,171.185,194.204z M251.163,232.445c-0.732,0.291-0.394,0.792-0.243,1.39c0.312,1.281,1.519,1.781,1.473,0.836C252.356,233.911,251.6,233.186,251.163,232.445z M269.727,234.314c0.184-0.015,0.368-0.03,0.552-0.045c0.063-0.484,0.307-1.046,0.141-1.432c-0.195-0.454-0.745-0.755-1.141-1.122c-0.129,0.112-0.258,0.223-0.387,0.335C269.17,232.805,269.449,233.559,269.727,234.314z M174.44,231.279c-0.808,0.288-1.449,0.517-2.519,0.899C174.59,233.948,173.947,234.292,174.44,231.279z M195.231,181.094c0.301,0.025,0.601,0.05,0.902,0.075c0.085-0.893,0.17-1.787,0.254-2.68c-0.27-0.028-0.54-0.057-0.809-0.085C195.462,179.3,195.346,180.197,195.231,181.094z M279.615,195.721c0.207,0.103,0.415,0.207,0.622,0.31c0.249-0.516,0.74-1.067,0.67-1.535c-0.056-0.374-0.795-0.645-1.498-1.156C279.506,194.469,279.56,195.095,279.615,195.721z M257.872,198.165c-0.298-0.705-0.843-1.143-1.47-1.551c-0.248,0.349-0.688,0.698-0.689,1.047C256.05,199.118,256.867,198.592,257.872,198.165z M253.908,132.294c0.295-0.142,0.59-0.284,0.885-0.426c-0.345-0.728-0.691-1.457-1.036-2.185c-0.25,0.109-0.501,0.218-0.751,0.326C253.307,130.772,253.608,131.533,253.908,132.294z M159.705,63.459c-0.03,0.243-0.059,0.486-0.089,0.729c0.961,0.156,1.922,0.312,2.884,0.468c0.038-0.296,0.075-0.592,0.113-0.889C161.643,63.664,160.674,63.562,159.705,63.459z M164.596,77.941c-0.132-0.208-0.264-0.415-0.397-0.623c-0.931,0.592-1.861,1.184-2.792,1.776c0.129,0.202,0.257,0.404,0.386,0.606C162.728,79.114,163.662,78.527,164.596,77.941z M286.694,79.471c0.108-0.253,0.215-0.506,0.323-0.759c-0.946-0.393-1.891-0.787-2.837-1.18c-0.086,0.203-0.172,0.407-0.257,0.61C284.846,78.585,285.77,79.028,286.694,79.471z M265.282,238.655c-0.361,0.977-0.643,1.742-0.975,2.639C266.31,240.61,266.545,240.002,265.282,238.655z M176.73,231.214c-1.542,2.319-1.429,1.339,0.774,2.851C177.195,232.926,177.046,232.378,176.73,231.214z M277.249,195.902c1.263-1.362,1.03-1.926-0.807-2.433C276.7,194.249,276.934,194.956,277.249,195.902z M179.829,232.008c-0.19-0.222-0.381-0.444-0.572-0.666c-0.25,0.48-0.801,1.061-0.682,1.418c0.186,0.558,0.826,0.965,1.58,1.759C179.999,233.322,179.914,232.665,179.829,232.008z M185.431,239.843c-0.283,0.167-0.566,0.334-0.849,0.501c0.449,0.652,0.898,1.305,1.347,1.957c0.216-0.138,0.431-0.275,0.647-0.413C186.194,241.207,185.813,240.525,185.431,239.843z M181.692,231.991c-0.272,0.296-0.543,0.592-0.815,0.888C183.553,235.123,183.637,234.56,181.692,231.991z M260.763,139.048c0.589-1.589-0.144-1.774-1.439-1.364C259.804,138.139,260.283,138.593,260.763,139.048z M195.595,261.719c0.861-0.248,1.692-0.243,2.055-0.652c0.49-0.553,0.793-1.42,0.816-2.163c0.009-0.294-0.941-0.873-1.466-0.887c-3.118-0.086-6.24-0.027-9.36-0.053c-1.189-0.01-1.567,0.599-1.556,1.685c0.023,2.398,0.021,4.796-0.009,7.194c-0.009,0.683-0.148,1.364-0.256,2.287c-3.019-1.268-1.328-3.953-2.187-5.74c-1.551-0.032-5.621-0.939-4.399,1.852c0.722,1.059,1.589,2.018,2.15,3.306c-0.315-0.174-0.719-0.276-0.932-0.534c-1.369-1.658-2.813-3.275-3.995-5.061c-0.713-1.077-0.628-2.184,1.134-2.437c0.427-0.061,1.097-0.834,1.05-1.203c-0.06-0.478-0.651-1.035-1.15-1.277c-0.748-0.363-2.203,0.348-2.071-1.163c0.03-0.337,1.548-0.774,2.383-0.777c11.822-0.051,23.644-0.035,35.465-0.035c0.703,0,1.405,0,2.366,0c-1.107-2.069-2.245-3.551-4.576-3.52c-1.07,0.014-1.824-0.533-1.622-1.609c0.049-0.26,1.515-0.648,1.935-0.374c1.416,0.923,2.907,1.93,3.898,3.257c1.245,1.667,2.561,2.385,4.657,2.289c3.593-0.163,7.2-0.079,10.799-0.003c0.591,0.012,1.171,0.516,1.756,0.793c-0.507,0.36-0.977,0.946-1.527,1.033c-1.163,0.184-1.272,0.897-1.271,1.799c-0.056,3.13,0.165,6.093-0.184,9.238c-2.131-0.573-1.894-2.252-2.187-3.889c-2.499,1.185-4.554,0.627-5.828-1.696c-0.347-0.632-0.315-1.908,0.108-2.445c1.432-1.818,3.479-1.839,5.642-1.205c0.369-1.108,0.094-1.722-1.038-1.736c-2.46-0.03-4.92-0.008-7.381-0.015c-1.176-0.003-1.332,0.755-1.327,1.689c-0.027,3.13,0.118,6.093-0.129,9.244c-3.67-0.714,0.167-6.038-4.082-5.075c-0.846,0.245-1.478,1.234-1.775,2.065c-0.951-0.728-1.963-1.392-2.833-2.207c-0.59-0.552-0.698-1.211,0.262-1.708c1.428-0.739,0.988-2.131,0.702-3.183c-0.118-0.433-1.324-0.614-2.06-0.818c-0.39-0.108-0.838,0.014-1.254-0.026c-1.149-0.11-1.592,0.314-1.545,1.533c0.094,2.454,0.042,4.915,0.027,7.373c-0.004,0.631-0.093,1.261-0.155,2.029c-1.923-0.464-2.114-1.802-2.081-3.396C199.057,266.127,197.091,264.359,195.595,261.719z M200.2,257.757c-0.121,0.149-0.242,0.299-0.363,0.448c1.501,2.454,0.2,3.931-1.88,5.145c4.271,2.462,4.701-1.507,4.407-4.717C202.348,258.307,200.957,258.047,200.2,257.757z M213.655,257.991c-1.207-0.193-1.789,0.191-1.675,1.527c0.104,1.216-0.083,2.41,1.768,2.399c1.45-0.009,1.814-0.647,1.823-1.961C215.58,258.559,215.208,257.742,213.655,257.991z M180.446,258.016c-0.286,3.903-0.199,3.64,1.709,3.762c1.333,0.085,2.005-0.927,1.688-2.541C183.407,257.019,181.725,258.298,180.446,258.016z M227.41,262.127c-0.028-0.189-0.056-0.379-0.083-0.568c-0.684-0.1-1.454-0.446-2.032-0.243c-0.942,0.331-1.774,0.998-2.604,1.592c-0.075,0.054,0.224,0.879,0.31,0.872c0.945-0.076,1.923-0.13,2.808-0.433C226.412,263.139,226.882,262.547,227.41,262.127z M272.425,269.027c-0.349-0.774-0.875-1.519-1.003-2.328c-0.267-1.42,0.417-4.001-0.843-4.941c-1.158,0.006-2.369,0.155-3.441,0.566c-0.345,0.132-0.635,1.373-0.407,1.845c0.561,1.164,1.44,2.175,2.185,3.252c0.249,0.36,0.479,0.732,0.491,1.261c-2.015-1.538-3.999-3.144-4.335-5.874c-0.191-1.553,0.598-2.69,2.254-2.934c1.004-0.148,2.042-0.071,3.039-0.243c0.338-0.058,0.598-0.571,0.894-0.875c-0.29-0.249-0.575-0.708-0.871-0.715c-2.638-0.058-5.282-0.099-7.915,0.031c-0.373,0.018-0.974,0.972-1,1.515c-0.166,3.107,0.069,6.102-0.158,9.23c-2.086-0.312-1.7-1.98-2.005-3.382c-3.229,0.759-5.12-0.968-6.835-3.472c0.688-0.284,1.383-0.366,1.721-0.756c0.533-0.616,1.012-1.415,1.116-2.189c0.036-0.268-1.111-0.995-1.724-1.002c-5.225-0.061-4.327-0.531-4.4,4.147c-0.034,2.195-0.006,4.392-0.006,6.588c-0.249,0.09-0.499,0.18-0.748,0.269c-0.393-0.719-1.001-1.402-1.13-2.166c-0.197-1.167-0.095-2.391-0.061-3.589c0.038-1.336-0.483-1.913-1.911-1.511c0,0.17-0.06,0.367,0.009,0.492c0.804,1.464,0.712,2.782-0.689,3.814c-1.15,0.846-2.823,0.55-3.958-0.948c-1.012-1.334-1.711-2.905-2.548-4.371c0.191-0.128,0.382-0.256,0.574-0.384c1.042,1.027,1.594,2.546,2.661,3.494c0.487,0.412,1.442,0.274,2.186,0.383c-0.087-0.701-0.009-1.482-0.303-2.082c-0.347-0.709-1.014-1.261-1.543-1.882c0.044-0.186,0.087-0.373,0.131-0.559c1.031,0,2.08,0.116,3.088-0.038c0.758-0.116,1.464-0.576,2.194-0.883c-0.759-0.276-1.506-0.738-2.281-0.79c-1.793-0.119-3.604,0.042-5.396-0.085c-0.625-0.044-1.213-0.601-1.819-0.924c0.617-0.309,1.232-0.884,1.851-0.888c10.687-0.062,21.236-0.039,31.941-0.042c-1.026-1.966-2.066-3.45-4.301-3.498c-1.255-0.027-2.094-0.443-1.9-1.959c1.584-0.633,2.861,0.03,3.976,0.964c2.061,1.571,2.749,4.989,5.933,4.56c0.369-0.041,0.815,0.605,1.226,0.933c-0.385,0.294-0.782,0.852-1.154,0.836c-1.715-0.075-1.953,0.862-1.92,2.269c0.065,2.857,0.02,5.716,0.02,8.574C273.015,268.837,272.72,268.932,272.425,269.027z M257.055,257.772c-0.123,0.148-0.246,0.296-0.37,0.444c1.278,2.363,0.072,3.865-1.81,5.1c4.53,2.399,4.413-1.665,4.359-4.721C259.223,258.296,257.817,258.045,257.055,257.772z M194.051,259.698c-2.617-0.049-4.053,0.626-4.387,2.212c-0.457,2.172,2.156,6.182,4.784,6.861c-0.96-1.19-1.89-2.058-2.448-3.122c-0.461-0.879-0.831-2.093-0.572-2.958c0.165-0.549,1.533-0.811,2.404-1.05c0.556-0.153,1.188-0.029,1.936-0.029C195.982,260.189,195.346,259.722,194.051,259.698z M259.32,209.293c-0.158-0.089-0.317-0.179-0.475-0.268c-0.477,0.948-4.973,5.956-1.482,3.983C258.252,211.898,258.737,210.574,259.32,209.293z M196.071,144.102c-0.452,8.859-1.593,17.602-4.352,26.078c-0.063,0.194,0.024,0.436,0.047,0.738c3.937-3.845,7.046-22.382,4.599-26.962C196.262,144.003,196.074,144.048,196.071,144.102z M216.234,60.452c-1.687-0.914-2.177-2.855-0.96-4.206c0.783,3.606,3.28,4.449,6.456,4.161c-0.65-0.345-1.277-0.745-1.954-1.025c-2.555-0.824-3.934-4.808-0.799-5.921c-1.784,4.604,0.99,4.507,4.502,5.886c2.79,1.123,7.83-1.453,8.444-4.287c0.073-0.335,0.419-0.611,0.638-0.915c0.293,0.259,0.714,0.461,0.857,0.785c0.714,1.615-0.323,3.349-2.096,3.581c-0.647,0.085-1.299,0.136-1.949,0.203c3.196,1.489,4.935,0.463,6.053-3.221c1.49,0.895,1.776,2.449,0.71,3.855c-1.22,1.609-3.285,2.127-5.545,1.37c-0.809-0.271-1.602-0.586-2.403-0.882c-0.085,0.194-0.17,0.388-0.255,0.582c1.025,0.482,2.022,1.044,3.082,1.43c3.334,1.215,5.426-1.073,7.686-3.315c0.063,2.435-0.865,3.778-2.746,4.301c-3.447,1.054-6.611-0.062-9.562-1.892c2.579,4.605,11.326,5.657,13.566,0.417c0.283-0.626,0.404-1.778,0.04-2.164c-1.568-1.666-1.762-4.586-4.287-4.902c1.695-1.085,3.51-2.246,5.324-3.407c-0.104-0.192-0.209-0.384-0.313-0.577c-0.599,0.2-1.303,0.262-1.779,0.624c-2.207,1.674-4.605,1.619-7.195,1.239c-1.631-0.239-1.85-0.963-1.585-2.288c0.837-4.179,4.932-5.647,8.148-2.908c0.792,0.675,1.557,1.382,2.334,2.074c0.133-0.141,0.266-0.283,0.399-0.424c-0.895-1.02-1.689-2.155-2.704-3.038c-2.451-2.131-5.1-2.466-7.213-0.765c-3.856,3.112-3.957,4.725-2.165,8.488c0.828,2.545-2.517,1.955-4.031,2.024c-2.917-0.039-3.297-0.677-2.23-3.344c2.028-3.852-1.829-8.018-5.742-8.204c-3.766-0.19-5.113,3.165-7.48,5.032c2.185-0.824,3.978-2.589,6.234-3.178c2.127-0.559,4.042,1.371,3.818,3.985c-1.522-1.628-2.813-4.164-5.211-2.894c-1.64,0.881-3.067,2.158-4.586,3.264c0.099,0.181,0.199,0.363,0.298,0.544c1.035-0.546,2.096-1.048,3.098-1.65c2.787-1.89,4.306,0.263,6.277,2.06c-3.508,3.048-7.235,0.146-10.934,0.177c2.863,1.002,5.291,3.578,7.774,2.422c-0.997,1.042-2.635,2.617-4.11,4.332c-2.801,3.472,0.235,10.762,5.282,8.256c-4.266-1.607-4.266-1.607-4.688-2.596c4.35,1.777,8.132,0.813,11.486-2.155c-3.336,0.697-5.693,3.098-9.301,1.264c-1.392-0.687-2.605-1.649-2.438-3.272c1.613,0.941,3.11,2.193,4.831,2.716c1.887,0.574,3.823-0.077,5.913-1.492c-0.831-0.109-1.164-0.153-1.497-0.196C219.905,61.331,218.039,61.431,216.234,60.452z M239.744,49.508c-3.937-4.953-7.107-2.831-8.529,1.757c0.645-0.244,1.36-0.536,1.666-1.064c2.28-4.422,3.243-0.86,6.697-0.13C239.633,49.884,239.689,49.696,239.744,49.508z M192.889,63.239c-0.352,0.035-0.692,0.191-1.202,0.339c2.513,1.523,5.092,0.647,5.167-1.547c0.081-2.341-2.949-5.938-5.108-6.319C193.073,57.715,198.149,63.002,192.889,63.239z M184.655,76.259c0.035,0.654-0.039,1.338,0.124,1.958c0.638,2.424,2.257,3.768,4.761,3.924c0.551,0.034,1.124-0.287,1.686-0.444c-0.32-0.529-0.522-1.235-0.988-1.544c-2.897-1.461-3.965,0.014-5.155-3.951C184.941,76.221,184.798,76.24,184.655,76.259z M193.548,62.123c-0.346-1.737-1.792-1.797-3.119-2.097c-1.367-0.309-2.71-0.719-4.116-1.099C186.382,61.566,190.535,63.593,193.548,62.123z M255.146,204.876c0.821,0.016,1.712,0.238,2.445-0.008c0.782-0.263,1.135-0.989,0.49-1.881c-0.283-0.392-0.325-0.958-0.481-1.459c-1.927-0.152-2.66,0.27-3.16,1.909c0.353-0.069,0.67-0.131,0.813-0.159C255.217,203.812,255.181,204.344,255.146,204.876z M291.023,61.495c-1.215-0.828-2.073,0.055-2.705,0.914c-1.06,1.44-1.973,2.988-2.947,4.491c0.864-0.109,1.51-0.424,1.955-0.92c1.282-1.431,2.585-2.086,4.192-0.493C292.647,64.233,292.484,62.359,291.023,61.495z M291.016,71.652c-0.715-1.897-4.46-3.927-6.833-3.573c1.846,1.52,6.093,1.136,4.058,5.329C290.436,73.515,291.459,72.829,291.016,71.652z M291.928,70.269c-0.752-1.5-0.856-2.857,0.155-4.214c0.055-0.073-0.278-0.435-0.431-0.662C287.396,68.959,287.133,67.351,291.928,70.269z M171.573,70.849c-1.832,0.328-3.814,0.67-5.785,1.066c-0.132,0.026-0.181,0.463-0.269,0.709C168.121,73.335,170.661,73.91,171.573,70.849z M165.586,85.361c2.498,0.587,4.24-0.286,4.545-2.219c-1.577,0.57-3.158,1.142-4.739,1.714C165.457,85.024,165.521,85.192,165.586,85.361z M206.115,211.472c0.217-18.957,26.458-25.034,36.979-10.774c7.445,9.704,3.418,23.309-8.368,28.267C222.186,234.534,206.021,225.858,206.115,211.472z M210.205,220.514c0.158,0.246,0.273,0.658,0.48,0.71c1.202,0.305,1.742,1.046,1.799,2.26c0.01,0.218,0.389,0.42,0.597,0.629c2.692,1.576,5.324,3.267,8.292,4.314c1.74,0.233,3.476,0.492,5.221,0.679c0.386,0.041,0.794-0.202,1.2-0.261c1.216-0.166,2.441-0.272,3.66-0.416c2.956-1.068,5.606-2.722,8.289-4.315c0.21-0.208,0.587-0.405,0.601-0.625c0.075-1.199,0.585-1.965,1.799-2.263c0.204-0.05,0.319-0.465,0.475-0.712c0.67-1.522,1.443-3.099,2.101-4.592c-0.208-1.33-0.343-2.626,0.635-3.759c0.093-0.107,0.111-0.404,0.03-0.517c-1.131-1.457-0.617-3.242-0.961-4.803c-0.73-0.962-1.744-1.795-1.313-3.252c0.051-0.172-0.317-0.466-0.49-0.704c-0.155-0.247-0.269-0.662-0.473-0.712c-1.123-0.277-1.808-0.806-1.73-2.093c0.015-0.25-0.435-0.528-0.671-0.793c-2.685-1.589-5.342-3.232-8.29-4.316c-1.74-0.226-3.477-0.48-5.222-0.656c-1.549,0.444-3.24,0.47-4.858,0.657c-2.955,1.072-5.597,2.747-8.294,4.316c-0.204,0.204-0.579,0.404-0.584,0.613c-0.034,1.332-0.623,2.136-1.957,2.405c-0.144,0.029-0.224,0.378-0.334,0.579c-0.728,1.262-0.259,3.066-1.799,3.96c-0.293,1.654,0.102,3.442-0.967,4.946c-0.028,0.039-0.025,0.135,0.005,0.173c0.976,1.249,0.946,2.665,0.72,4.126C208.859,217.514,209.537,219.048,210.205,220.514z M253.251,59.565c-0.442,0.268-0.781,0.707-1.167,1.067c0.235,0.238,0.523,0.711,0.694,0.672c0.543-0.124,1.35-0.315,1.507-0.701c0.642-1.588,1.882-1.566,3.251-1.58c2.18-0.022,3.418-1.593,3.187-3.896C258.23,56.602,255.728,58.063,253.251,59.565z M205.134,39.424c0.534,0.305,1.338,0.499,1.522,0.947c0.173,0.42-0.31,1.11-0.504,1.682c0.95-0.087,1.755-0.421,2.278-1.006c0.201-0.225-0.087-1.333-0.421-1.499c-0.845-0.42-1.842-0.534-2.778-0.77C205.199,38.993,205.166,39.209,205.134,39.424z M232.275,76.109c2.086-0.593,2.68-2.252,1.403-4.444C233.161,73.301,232.721,74.694,232.275,76.109z M220.132,76.893c1.773,1.281,3.758,0.884,4.146-0.82C222.832,76.359,221.561,76.61,220.132,76.893z M219.345,76.342c-0.339-1.001-0.678-2.003-1.017-3.004c-0.243,0.073-0.486,0.145-0.729,0.218c0.273,1.014,0.545,2.028,0.818,3.042C218.726,76.512,219.036,76.427,219.345,76.342z M208.4,206.839c4.281,1.011,8.561,2.022,12.842,3.033c0.037-0.083,0.074-0.167,0.111-0.25c-3.82-2.081-7.614-4.191-11.148-6.738c3.946,1.903,7.891,3.806,11.837,5.71c0.061-0.043,0.122-0.086,0.184-0.129c-2.84-2.615-5.63-5.285-8.417-7.956c-0.324-0.313-0.479-0.802-0.712-1.209c2.869,2.434,5.739,4.868,8.605,7.305c0.431,0.366,0.843,0.754,1.479,0.935c-2.01-3.384-4.02-6.768-6.031-10.152c0.164-0.105,0.329-0.21,0.493-0.315c9.529,14.256,7.189,13.003,3.722-2.109c0.382,0.643,0.895,1.243,1.124,1.937c1.067,3.237,2.055,6.501,3.45,9.772c0-3.842,0-7.685,0-11.527c0.25-0.003,0.5-0.006,0.751-0.009c0.026,18.829-0.501,11.928,4.767-0.174c-3.404,14.69-5.38,16.111,3.692,2.133c0.188,0.111,0.375,0.223,0.562,0.334c-2.063,3.452-4.126,6.904-6.376,10.67c3.659-3.099,7.026-5.95,10.392-8.801c-0.753,0.903-1.435,1.878-2.271,2.696c-2.294,2.244-4.653,4.421-6.873,6.817c4.013-1.977,8.026-3.954,12.038-5.93c-0.473,0.428-0.887,0.957-1.427,1.268c-3.289,1.893-6.607,3.737-9.863,5.809c4.362-1.038,8.725-2.077,13.087-3.115c-0.562,0.388-1.072,0.954-1.694,1.133c-16.77,4.816-11.417,3.066,1.697,3.383c0.001,0.231,0.002,0.462,0.003,0.693c-4.09,0-8.179,0-12.269,0c-0.01,0.161-0.021,0.322-0.031,0.483c3.42,0.924,6.851,1.81,10.251,2.801c0.738,0.215,1.366,0.804,2.045,1.221c-17.466-3.775-16.228-5.349-1.797,3.96c-3.728-1.612-8.468-4.433-11.999-5.593c3.059,3.037,6.491,5.734,9.105,9.179c-3.448-2.678-6.549-5.662-10.086-8.248c2.011,3.383,4.021,6.766,6.032,10.149c-0.164,0.106-0.327,0.211-0.491,0.317c-9.03-13.756-7.051-12.138-3.728,2.112c-0.383-0.655-0.899-1.268-1.127-1.973c-1.12-3.057-1.74-6.567-3.079-9.471c-0.162,0.02-0.323,0.039-0.484,0.059c0,3.737,0,7.475,0,11.212c-0.22-0.002-0.44-0.004-0.661-0.006c0-3.714,0-7.428,0-11.142c-0.576-0.297-0.766,0.373-0.966,0.802c-0.955,3.09-1.866,6.195-2.849,9.276c-0.149,0.465-0.608,0.832-0.924,1.244c3.443-14.437,5.266-15.509-3.733-2.108c-0.16-0.104-0.32-0.207-0.48-0.311c1.992-3.349,3.985-6.698,5.977-10.047c-0.379-0.576-1.082,0.745-1.558,0.964c-2.823,2.394-5.651,4.781-8.477,7.171c2.556-3.444,6.04-6.01,8.906-9.23c-3.932,1.881-7.865,3.762-11.798,5.642c3.618-2.429,7.423-4.392,10.983-6.923c-4.262,0.989-8.524,1.978-12.786,2.968c0.62-0.4,1.189-0.976,1.868-1.172c3.361-0.97,6.751-1.84,10.131-2.744c-0.003-0.183-0.007-0.365-0.01-0.548c-4.042,0-8.084,0-12.126,0c-0.002-0.256-0.005-0.512-0.007-0.768c4.115,0,8.23,0,12.345,0c0.014-0.153,0.029-0.306,0.043-0.459c-3.404-0.927-6.819-1.816-10.204-2.81C209.704,207.843,209.077,207.256,208.4,206.839z M226.286,215.412c5.265-0.18,5.176-6.995-0.062-7.103C220.951,208.405,221.086,215.395,226.286,215.412z M229.103,211.754c-0.058,3.545-5.438,3.543-5.602,0.066C223.805,208.49,228.811,208.238,229.103,211.754z M226.364,213.98c0.751-1.033,1.606-1.702,1.544-2.272c-0.059-0.541-1.145-1.424-1.658-1.347c-0.651,0.097-1.434,0.928-1.656,1.607C224.481,212.31,225.48,213.016,226.364,213.98z" />
</svg>
