<svg xmlns="http://www.w3.org/2000/svg" width="450px" height="300px" viewBox="0 0 450 300">
  <path fill="#FD241E" d="M0,0h450v300H0V0z" />
  <path fill="#FFFFFF" d="M36.298,36.358h377.404v227.284H36.298V36.358z" />
  <path fill="#F1C91A" stroke="#80370B" stroke-width="0.6" d="M219.132,60.816c3.312,0,5.997,2.685,5.997,5.997c0,3.312-2.685,5.997-5.997,5.997s-5.997-2.685-5.997-5.997C213.135,63.501,215.82,60.816,219.132,60.816z M231.161,60.816c3.312,0,5.997,2.685,5.997,5.997c0,3.312-2.685,5.997-5.997,5.997s-5.997-2.685-5.997-5.997S227.849,60.816,231.161,60.816z M225.277,50.245c3.312,0,5.997,2.685,5.997,5.997s-2.685,5.997-5.997,5.997s-5.997-2.685-5.997-5.997S221.965,50.245,225.277,50.245z M165.935,85.422c3.312,0,5.997,2.685,5.997,5.997s-2.685,5.997-5.997,5.997s-5.997-2.685-5.997-5.997S162.623,85.422,165.935,85.422z M225,145.57c2.162,0,3.914,1.753,3.914,3.914c0,2.162-1.753,3.914-3.914,3.914c-2.162,0-3.914-1.753-3.914-3.914C221.086,147.323,222.838,145.57,225,145.57z M289.107,90.418c0,3.312-2.685,5.997-5.997,5.997s-5.997-2.685-5.997-5.997s2.685-5.997,5.997-5.997S289.107,87.105,289.107,90.418z M160.939,208.594c0-3.312,2.685-5.997,5.997-5.997s5.997,2.685,5.997,5.997s-2.685,5.997-5.997,5.997S160.939,211.906,160.939,208.594z M284.111,213.59c-3.312,0-5.997-2.685-5.997-5.997s2.685-5.997,5.997-5.997s5.997,2.685,5.997,5.997S287.423,213.59,284.111,213.59z M136.457,155.521c0-3.312,2.685-5.997,5.997-5.997s5.997,2.685,5.997,5.997s-2.685,5.997-5.997,5.997C139.142,161.518,136.457,158.833,136.457,155.521z M136.457,143.491c0-3.312,2.685-5.997,5.997-5.997s5.997,2.685,5.997,5.997s-2.685,5.997-5.997,5.997C139.142,149.488,136.457,146.803,136.457,143.491z M125.885,149.376c0-3.312,2.685-5.997,5.997-5.997s5.997,2.685,5.997,5.997s-2.685,5.997-5.997,5.997S125.885,152.688,125.885,149.376z M231.161,238.196c-3.312,0-5.997-2.685-5.997-5.997s2.685-5.997,5.997-5.997s5.997,2.685,5.997,5.997C237.158,235.511,234.473,238.196,231.161,238.196z M219.132,238.196c-3.312,0-5.997-2.685-5.997-5.997s2.685-5.997,5.997-5.997s5.997,2.685,5.997,5.997S222.444,238.196,219.132,238.196z M225.016,248.767c-3.312,0-5.997-2.685-5.997-5.997s2.685-5.997,5.997-5.997s5.997,2.685,5.997,5.997S228.328,248.767,225.016,248.767z M313.836,143.491c0,3.312-2.685,5.997-5.997,5.997s-5.997-2.685-5.997-5.997s2.685-5.997,5.997-5.997S313.836,140.179,313.836,143.491z M313.836,155.521c0,3.312-2.685,5.997-5.997,5.997s-5.997-2.685-5.997-5.997s2.685-5.997,5.997-5.997S313.836,152.209,313.836,155.521z M324.408,149.636c0,3.312-2.685,5.997-5.997,5.997s-5.997-2.685-5.997-5.997s2.685-5.997,5.997-5.997S324.408,146.324,324.408,149.636z" />
  <path fill="#F1C91A" stroke="#80370B" stroke-width="0.6" stroke-linecap="round" stroke-linejoin="round" d="M165.381,153.725h8.957l3.975,3.975l3.975-3.975h7.926v-8.438h-7.926l-3.975-3.975l-3.975,3.975h-8.957V153.725z M179.867,110.316l6.334,6.334v5.621h5.622l5.604,5.604l5.966-5.966l-5.604-5.604v-5.621h-5.622l-6.334-6.334L179.867,110.316z M185.833,194.662l6.334-6.334h5.622v-5.621l5.604-5.604l-5.966-5.966l-5.604,5.604H186.2v5.621l-6.334,6.334L185.833,194.662z M229.242,209.148v-8.957l3.975-3.975l-3.975-3.975v-7.926h-8.438v7.926l-3.975,3.975l3.975,3.975v8.957H229.242z M270.179,188.696l-6.334-6.334v-5.622h-5.621l-5.604-5.604l-5.966,5.966l5.604,5.604v5.622h5.621l6.334,6.334L270.179,188.696z M284.665,145.287h-8.957l-3.975-3.975l-3.975,3.975h-7.926v8.438h7.926l3.975,3.975l3.975-3.975h8.957V145.287z M264.213,104.35l-6.334,6.334h-5.622v5.621l-5.604,5.604l5.966,5.966l5.604-5.604h5.621v-5.621l6.334-6.334L264.213,104.35z M220.804,89.864v8.957l-3.975,3.975l3.975,3.975v7.926h8.438v-7.926l3.975-3.975l-3.975-3.975v-8.957H220.804z" />
  <path fill="none" stroke="#80370B" stroke-width="0.6" stroke-linecap="round" stroke-linejoin="round" d="M165.37,149.499h24.818 M182.847,107.32l17.549,17.549 M182.837,191.682l17.549-17.549 M225.016,209.159V184.34 M267.198,191.692l-17.549-17.549 M284.675,149.513h-24.818 M267.209,107.33l-17.549,17.549 M225.03,89.853v24.818" />
  <path fill="#F1C91A" stroke="#80370B" stroke-width="0.6" stroke-linecap="round" stroke-linejoin="round" d="M178.322,152.224l-2.725-2.725l2.725-2.725l2.725,2.725L178.322,152.224z M190.078,118.405v-3.854h3.854v3.854H190.078z M193.922,184.45h-3.854v-3.854h3.854V184.45z M227.74,196.207l-2.725,2.725l-2.725-2.725l2.725-2.725L227.74,196.207z M259.967,180.607v3.854h-3.854v-3.854H259.967z M271.724,146.788l2.725,2.725l-2.725,2.725l-2.725-2.725L271.724,146.788z M256.124,114.562h3.854v3.854h-3.854V114.562z M222.305,102.805l2.725-2.725l2.725,2.725l-2.725,2.725L222.305,102.805z" />
  <path fill="#F1C91A" stroke="#80370B" stroke-width="0.6" stroke-linecap="round" stroke-linejoin="round" d="M249.475,137.287c-0.974-0.981-3.402-3.561-8.32-3.967c-4.919-0.406-9.758,1.554-12.235,4.099c-2.477,2.544-3.367,5.7-1.133,9.044c2.234,3.343,5.06,5.431,6.943,4.179s1.193-3.942-0.948-5.111c-1.822-0.995-3.815-2.811-1.507-5.624c2.308-2.813,8.031-3.502,10.101-2.345c2.07,1.157,8.715,6.609,9.343,7.828C251.293,142.044,249.475,137.287,249.475,137.287L249.475,137.287z M198.94,141.327c0.02,1.382-0.023,4.924,3.235,8.631c3.259,3.706,8.103,5.655,11.652,5.543s6.38-1.766,7.093-5.723s0.128-7.422-2.096-7.828s-3.595,2.009-2.865,4.337c0.621,1.98,0.795,4.672-2.819,5.094s-8.212-3.054-8.899-5.323c-0.687-2.27-1.685-10.807-1.291-12.12C200.934,136.642,198.94,141.327,198.94,141.327L198.94,141.327z M230.688,176.248c1.194-0.696,4.303-2.395,5.935-7.053c1.632-4.658,0.954-9.835-0.884-12.873s-4.668-4.694-8.467-3.374c-3.798,1.32-6.531,3.529-5.793,5.666c0.737,2.137,3.514,2.148,5.185,0.37c1.421-1.512,3.682-2.984,5.822-0.042c2.14,2.942,1.366,8.654-0.275,10.366c-1.641,1.712-8.592,6.769-9.929,7.07C225.627,176.808,230.688,176.248,230.688,176.248L230.688,176.248z" />
  <path fill="#F1C91A" stroke="#80370B" stroke-width="0.6" d="M225,72.591c-42.462,0-76.894,34.431-76.894,76.894c0,42.462,34.431,76.894,76.894,76.894s76.894-34.431,76.894-76.894C301.894,107.022,267.462,72.591,225,72.591z M225.3,90.066c32.114,0.152,58.434,25.906,59.1,58.2c0.676,32.806-25.375,59.942-58.181,60.619c-32.806,0.676-59.942-25.375-60.619-58.181c-0.676-32.806,25.375-59.943,58.181-60.619C224.294,90.074,224.79,90.063,225.3,90.066L225.3,90.066z M224.269,114.394c-19.381,0.4-34.768,16.432-34.369,35.812c0.4,19.381,16.45,34.768,35.831,34.369s34.768-16.432,34.369-35.812C259.7,129.382,243.65,113.994,224.269,114.394z M225,122.7c14.793,0,26.794,12,26.794,26.794c0,14.793-12,26.775-26.794,26.775s-26.794-11.982-26.794-26.775C198.206,134.7,210.207,122.7,225,122.7z" />
  <path fill="none" stroke="#80370B" stroke-width="0.6" d="M224.398,120.29c16.124-0.332,29.464,12.469,29.796,28.593s-12.469,29.464-28.593,29.796s-29.464-12.469-29.796-28.593S208.275,120.622,224.398,120.29z M225,85.78c35.183,0,63.705,28.521,63.705,63.705S260.183,213.189,225,213.189s-63.705-28.521-63.705-63.705S189.817,85.78,225,85.78z" />
</svg>
