<svg xmlns="http://www.w3.org/2000/svg" width="450px" height="300px" viewBox="0 0 450 300">
  <path fill="#FFFFFF" d="M450.443,0.148v300h-450" />
  <path fill="#012169" d="M450,260.881v29.435c-5.042,4.044-9.374,9.684-22.77,9.684c-26.783,0-33.481-19.901-53.57-19.901c-13.392,0-20.089,19.901-33.481,19.901c-26.786,0-33.482-19.901-53.572-19.901c-13.393,0-20.089,19.901-33.482,19.901c-26.786,0-33.482-19.901-53.571-19.901c-13.394,0-20.09,19.901-33.482,19.901c-26.785,0-33.483-19.901-53.572-19.901C99.107,280.099,92.41,300,79.018,300c-26.786,0-33.482-19.901-53.571-19.901C12.053,280.099,8.035,294.28,0,294.28v-25.621c8.035,0,12.053-14.182,25.447-14.182c20.089,0,26.786,19.902,53.571,19.902c13.393,0,20.089-19.902,33.482-19.902c20.089,0,26.786,19.902,53.572,19.902c13.393,0,20.089-19.902,33.482-19.902c20.089,0,26.785,19.902,53.571,19.902c13.393,0,20.089-19.902,33.482-19.902c20.09,0,26.786,19.902,53.572,19.902c13.392,0,20.089-19.902,33.481-19.902c20.09,0,26.787,19.902,53.57,19.902C440.626,274.379,444.958,264.926,450,260.881z M427.23,224.625c-26.783,0-33.481-19.902-53.57-19.902c-13.392,0-20.089,19.902-33.481,19.902c-26.786,0-33.482-19.902-53.572-19.902c-13.393,0-20.089,19.902-33.482,19.902c-26.786,0-33.482-19.902-53.571-19.902c-13.394,0-20.09,19.902-33.482,19.902c-26.785,0-33.482-19.902-53.572-19.902c-13.393,0-20.089,19.902-33.482,19.902c-26.786,0-33.482-19.902-53.571-19.902c-13.393,0-17.411,14.182-25.447,14.182v25.621c8.035,0,12.053-14.181,25.447-14.181c20.089,0,26.786,19.901,53.571,19.901c13.393,0,20.089-19.901,33.482-19.901c20.089,0,26.786,19.901,53.572,19.901c13.393,0,20.089-19.901,33.482-19.901c20.089,0,26.785,19.901,53.571,19.901c13.393,0,20.089-19.901,33.482-19.901c20.09,0,26.786,19.901,53.572,19.901c13.392,0,20.089-19.901,33.481-19.901c20.09,0,26.787,19.901,53.57,19.901c13.396,0,17.728-5.64,22.77-9.684v-29.435C444.958,215.173,440.626,224.625,427.23,224.625z M427.23,174.872c-26.783,0-33.481-19.902-53.57-19.902c-13.392,0-20.089,19.902-33.481,19.902c-26.786,0-33.482-19.902-53.572-19.902c-13.393,0-20.089,19.902-33.482,19.902c-26.786,0-33.482-19.902-53.571-19.902c-13.394,0-20.09,19.902-33.482,19.902c-26.785,0-33.482-19.902-53.572-19.902c-13.393,0-20.089,19.902-33.482,19.902c-26.786,0-33.482-19.902-53.571-19.902c-13.393,0-17.411,14.182-25.447,14.182v25.621c8.035,0,12.053-14.181,25.447-14.181c20.089,0,26.786,19.901,53.571,19.901c13.393,0,20.089-19.901,33.482-19.901c20.089,0,26.786,19.901,53.572,19.901c13.393,0,20.089-19.901,33.482-19.901c20.089,0,26.785,19.901,53.571,19.901c13.393,0,20.089-19.901,33.482-19.901c20.09,0,26.786,19.901,53.572,19.901c13.392,0,20.089-19.901,33.481-19.901c20.09,0,26.787,19.901,53.57,19.901c13.396,0,17.728-5.64,22.77-9.684v-29.435C444.958,165.419,440.626,174.872,427.23,174.872zM199.554,130.838c20.089,0,26.785,19.901,53.571,19.901c13.393,0,20.089-19.901,33.482-19.901c20.09,0,26.786,19.901,53.572,19.901c13.392,0,20.089-19.901,33.481-19.901c20.09,0,26.787,19.901,53.57,19.901c13.396,0,17.728-5.64,22.77-9.684V111.62c-5.042,4.045-9.374,13.498-22.77,13.498c-26.783,0-33.481-19.902-53.57-19.902c-13.392,0-20.089,19.902-33.481,19.902c-26.786,0-33.482-19.902-53.572-19.902c-13.393,0-20.089,19.902-33.482,19.902c-26.786,0-33.482-19.902-53.571-19.902V130.838zM199.554,81.085c20.089,0,26.785,19.901,53.571,19.901c13.393,0,20.089-19.901,33.482-19.901c20.09,0,26.786,19.901,53.572,19.901c13.392,0,20.089-19.901,33.481-19.901c20.09,0,26.787,19.901,53.57,19.901c13.396,0,17.728-5.64,22.77-9.684V61.867c-5.042,4.045-9.374,13.498-22.77,13.498c-26.783,0-33.481-19.902-53.57-19.902c-13.392,0-20.089,19.902-33.481,19.902c-26.786,0-33.482-19.902-53.572-19.902c-13.393,0-20.089,19.902-33.482,19.902c-26.786,0-33.482-19.902-53.571-19.902V81.085zM199.554,31.331c20.089,0,26.785,19.901,53.571,19.901c13.393,0,20.089-19.901,33.482-19.901c20.09,0,26.786,19.901,53.572,19.901c13.392,0,20.089-19.901,33.481-19.901c20.09,0,26.787,19.901,53.57,19.901c13.396,0,17.728-5.64,22.77-9.684V12.113c-5.042,4.045-9.374,13.498-22.77,13.498c-26.783,0-33.481-19.902-53.57-19.902c-13.392,0-20.089,19.902-33.481,19.902c-26.786,0-33.482-19.902-53.572-19.902c-13.393,0-20.089,19.902-33.482,19.902c-26.786,0-33.482-19.902-53.571-19.902V31.331z" />
  <path fill="#012169" d="M0,0h225v150H0V0z" />
  <path fill="#FFFFFF" d="M225,15.613L168.395,53.35H225V96.65h-56.605L225,134.387V150h-23.418l-67.431-44.954V150H90.85v-44.954L23.418,150H0v-15.612L56.606,96.65H0V53.35h56.606L0,15.612V0h23.418L90.85,44.954V0h43.301v44.954L201.582,0H225V15.613z" />
  <path fill="#C8102E" d="M64.412,53.35L0,10.408V0l80.024,53.35H64.412z M134.15,53.35h10.825L225,0h-15.612L134.15,50.158V53.35zM0,150h15.613L90.85,99.842V96.65H80.024L0,150z M225,87.99V62.01h-99.51V0H99.51v62.01H0v25.98h99.51V150h25.98V87.99H225zM160.588,96.65h-15.612L225,150v-10.408L160.588,96.65z" />
  <g>
    <path fill="#A24300" stroke="#000000" stroke-width="0.616" d="M333.783,78.995l-2.069,204.161c-0.28,11.585,10.345,11.631,10.345,0L339.99,78.995H333.783z" />
    <g>
      <path fill="#006D00" stroke="#000000" stroke-width="0.75" d="M355.828,154.951l-6.742-7.398l-1.664,7.473l-2.929-10.822l-2.738,5.449l-0.485-11.522l-2.738,5.449l-0.485-11.522l-2.738,5.449l-1.56-13.546l-2.738,5.449l-1.56-13.546l-2.738,5.449l-1.56-13.546l-0.78-6.773l1.369-2.725l3.519,1.325l5.667,5.373l11.335,10.747l-7.036-2.649l11.335,10.747l-7.037-2.649l11.335,10.747l-7.036-2.649l10.26,8.722l-7.037-2.649l10.26,8.722l-7.036-2.649l7.816,9.422l-8.111-4.673L355.828,154.951z M276.86,58.335l11.005,4.197l-3.2-8.322l9.622,9.48l-0.908-6.803l7.784,11.361l-0.908-6.803l7.784,11.361l-0.908-6.803l10.076,12.881l-0.908-6.803l10.076,12.881l-0.908-6.803l10.076,12.881l5.038,6.441l0.455,3.402l-4.13,0.362l-8.713-2.677l-17.427-5.354l8.259-0.724l-17.427-5.354l8.259-0.724l-17.427-5.354l8.259-0.724l-15.135-3.835l8.259-0.724l-15.135-3.835l8.259-0.724L273.638,65.5l10.551,0.795L276.86,58.335z" />
      <path fill="none" stroke="#000000" stroke-width="0.75" d="M355.828,154.951l-30.087-56.684 M346.262,115.712l-16.222-9.347l-3.328,14.946 M350.56,123.809l-16.222-9.347l-3.328,14.946 M354.858,131.907l-16.222-9.347l-3.328,14.946 M358.082,137.98l-15.148-7.322l-4.402,12.922 M361.305,144.053l-15.148-7.322l-4.402,12.922 M362.085,150.827l-13.778-10.047l-0.884,14.246 M276.86,58.335l64.172,42.549 M310.762,93.214l21.102,1.591l-6.4-16.644 M301.595,87.136l21.102,1.591l-6.4-16.644 M292.427,81.058l21.102,1.591l-6.4-16.644 M285.552,76.499l18.81,0.071l-4.108-15.125 M278.676,71.94l18.81,0.071l-4.108-15.125 M273.638,65.5l19.264,3.472l-8.238-14.763" />
      <path fill="#006D00" stroke="#000000" stroke-width="0.75" d="M404.779,72.547l-9.168,6.706l10.116,1.125l-14.111,3.347l7.53,2.242l-15.289,1.109l7.53,2.242l-15.29,1.109l7.53,2.242l-17.876,2.226l7.53,2.242l-17.876,2.226l7.53,2.242l-17.876,2.226l-8.938,1.113l-3.765-1.121l1.409-3.355l6.582-5.589L353.507,83.7l-2.817,6.71l13.163-11.178l-2.817,6.71L374.2,74.764l-2.817,6.71l10.577-10.061l-2.817,6.71l10.576-10.061l-2.817,6.71l11.755-7.823l-5.403,7.827L404.779,72.547z" />
      <path fill="none" stroke="#000000" stroke-width="0.75" d="M404.779,72.547l-72.426,31.275 M353.508,83.7l-10.807,15.654l20.233,2.251 M363.854,79.232l-10.807,15.654l20.233,2.251 M374.2,74.764l-10.807,15.654l20.233,2.251 M381.96,71.413l-8.22,14.537l17.646,3.368 M389.72,68.062l-8.22,14.537l17.646,3.368 M398.658,66.949l-11.985,13.416l19.054,0.013" />
      <path fill="#006D00" stroke="#000000" stroke-width="0.75" d="M403.289,140.273l-11.409-3.307l4.08,8.033l-10.598-8.677l1.634,6.702l-8.97-10.696l1.634,6.702l-8.97-10.696l1.634,6.702l-11.415-12.028l1.634,6.702l-11.415-12.028l1.634,6.702l-11.415-12.028l-5.708-6.014l-0.818-3.351l4.074-0.688l8.964,1.975l17.927,3.951l-8.146,1.375l17.927,3.951l-8.146,1.375l17.927,3.951l-8.146,1.375l15.482,2.619l-8.146,1.375l15.482,2.619l-8.146,1.375l13.854,4.638l-10.591,0.044L403.289,140.273z M284.415,144.233l5.726-8.005l-8.733,1.26l10.789-6.124l-6.898-0.31l12.403-4.399l-6.898-0.31l12.403-4.4l-6.898-0.31l14.238-5.969l-6.898-0.31l14.238-5.969l-6.898-0.31l14.238-5.969l7.119-2.985l3.449,0.155l-0.221,3.295l-3.891,6.435l-7.782,12.869l0.442-6.59l-7.782,12.869l0.442-6.59l-7.782,12.869l0.442-6.59l-5.947,11.299l0.442-6.59l-5.947,11.299l0.442-6.59l-7.561,9.575l2.277-8.16L284.415,144.233z M388.256,38.717l-11.071,7.411l-1.816-7.946l-6.533,10.988l-1.171-5.288l-5.337,11.27l-0.75-5.189l-4.14,11.553l-2.368-5.571L350.916,70l-2.368-5.571l-4.153,14.055l-2.368-5.571l-4.153,14.055l-2.077,7.028l1.184,2.786l4.445-1.458l7.705-5.7l15.409-11.399l-8.889,2.914l15.409-11.399l-8.889,2.914l15.409-11.399l-8.889,2.914l15.397-8.896l-10.506,2.533l16.593-8.614l-10.085,2.632l12.162-9.66l-10.519,5.036L388.256,38.717z" />
      <path fill="none" stroke="#000000" stroke-width="0.75" d="M403.289,140.273l-68.466-37.283 M365.787,108.228l-21.183,0.088l8.159,16.066 M375.568,113.554l-21.183,0.088l8.159,16.066 M385.349,118.881l-21.183,0.088l8.159,16.066 M392.684,122.875l-18.738,1.419l5.714,14.735 M400.02,126.87l-18.738,1.419l5.714,14.735 M405.728,132.884l-19.555-1.931l9.787,14.047 M284.415,144.233l51.383-43.958 M323.903,122.874l4.554-16.319l-17.466,2.519 M316.562,129.154l4.554-16.319l-17.466,2.519 M309.222,135.434l4.554-16.319l-17.466,2.519 M303.717,140.143l2.719-14.749l-15.631,0.95 M298.212,144.853l2.719-14.749l-15.631,0.949 M291.092,147.838l6.168-14.594l-15.852,4.244 M383.951,42.713L367.956,56.48l-30.974,40.303 M361.158,79.935l-17.655,8.363l-1.488-12.881 M367.948,71.514l-17.925,8.3l-1.488-12.881 M374.334,62.997l-17.79,8.331l-1.353-12.849 M379.629,56.729l-16.564,6.115l-1.922-10.477 M385.733,50.652l-17.777,5.828l-0.692-10.187 M388.098,44.907l-16.437,8.411l3.174-12.756" />
      <path fill="#006D00" stroke="#000000" stroke-width="0.75" d="M328.26,24.83l4.944,11.285l6.375-5.965l-1.099,12.303l4.21-3.986l-2.291,12.007l3.791-4.09l-3.483,11.712l5.403-3.691l-4.992,13.852l5.403-3.691l-4.992,13.852l5.403-3.691l-4.992,13.852l-2.496,6.926l-2.701,1.846l-2.907-3.236l-3.112-8.316l-6.224-16.633l5.813,6.471l-6.224-16.633l5.813,6.471l-6.224-16.633l5.813,6.471l-7.733-14.492l7.425,6.87l-8.925-14.787l7.006,6.766l-4.51-13.693l5.916,9.011L328.26,24.83z M261.913,107.886l14.458-10.012l-7.241-3.733l12.666,2.163l-4.349-5.735l12.307,4.598l-4.35-5.735l12.307,4.598l-4.349-5.735l14.84,5.03l-4.349-5.735l14.482,7.466l-4.349-5.735l14.84,5.031l7.241,3.733l2.175,2.868l-2.892,2.002l-7.958,1.137l-12.842,5.296l2.351-4.591l-15.916,2.275l5.783-4.005l-16.274,4.71l5.783-4.005l-13.741,5.142l6.142-6.44l-14.099,7.577l6.142-6.44l-11.566,8.01l6.5-8.875L261.913,107.886z" />
      <path fill="none" stroke="#000000" stroke-width="0.75" d="M329.506,30.169l5.285,18.915l1.95,48.268 M326.348,72.141l9.983,15.049l9.091-10.321 M325.669,61.912l10.252,15.116l9.091-10.321 M325.392,51.784l10.117,15.083l8.957-10.355 M324.682,44.063l10.418,12.642l8.001-8.077 M323.165,36.142l11.627,12.942l6.776-8.38 M324.636,30.181l8.915,14.544l5.038-12.305 M266.489,105.197l14.948-6.458l7.958-1.137l6.643-0.114l11.448,0.707l10.321,0.45l20.436,2.306 M316.543,107.23l11.421-7.02l-11.639-9.138 M303.713,106.183l14.094-7.538l-11.639-9.138 M294.58,105.976l12.906-7.781l-11.736-8.478 M277.471,108.047l11.925-10.445l-9.61-5.281 M272.173,108.752l9.264-10.013l-7.387-2.743 M285.428,106.909l11.773-9.416l-9.446-6.396" />
    </g>
    <g>
      <path opacity="0.995" fill="#FFFFFF" enable-background="new    " d="M339.009,194.291h28.445c0,0,1.872-4.249,2.082-6.132c0.253-2.261,0.245-2.987-0.277-5.07c-0.541-2.158-1.327-3.641-2.679-5.083c-1.275-1.36-3.071-2.202-4.911-2.662c-1.641-0.41-3.495-0.585-4.934-0.265c-2.734,0.607-4.51,1.568-7.482,2.579c-2.144,0.729-3.782,0.979-5.95,1.111c-1.326,0.081-2.859-0.275-4.295-0.605L339.009,194.291z M334.769,194.291h-28.446c0,0-1.871-4.249-2.082-6.132c-0.253-2.261-0.245-2.987,0.277-5.07c0.541-2.158,1.327-3.641,2.679-5.083c1.275-1.36,3.071-2.202,4.911-2.662c1.641-0.41,3.495-0.585,4.934-0.265c2.734,0.607,4.51,1.568,7.482,2.579c2.144,0.729,3.782,0.979,5.95,1.111c1.326,0.081,2.858-0.275,4.295-0.605L334.769,194.291z" />
      <path fill="#FFFFFF" d="M333.02,220.091c-4.031,0.051-8.062,0.137-12.061,0.41c-2.952,0.239-6.316,0.513-9.189,0.957l-0.73,0.137c-1.809,0.376-2.063,2.701-1.111,3.966c1.936,2.615,13.41,4.65,26.963,4.65c13.537,0,25.011-2.034,26.947-4.65c0.952-1.265,0.698-3.59-1.111-3.966l-0.73-0.137c-2.857-0.444-6.237-0.718-9.189-0.957c-3.999-0.274-8.03-0.359-12.061-0.41h-3.856H333.02z" />
      <path d="M339.574,222.587L339.574,222.587c-1.031,0.188-1.968,0.41-2.856,0.667c-0.698,0.205-1.365,0.427-1.984,0.667c0.159-0.359,0.428-0.718,1.143-0.991c-0.587,0.017-1.397-0.222-1.682-0.342c0.286-0.137,1.063-0.376,1.65-0.359c-0.73-0.274-1.031-0.633-1.238-0.992c0.698,0.256,1.412,0.496,2.174,0.718C337.653,222.194,338.574,222.416,339.574,222.587z M324.053,221.441c0.19,0.359,0.508,0.701,1.254,0.957c-0.603,0-1.365,0.274-1.635,0.41c0.286,0.12,1.095,0.325,1.682,0.291c-0.698,0.291-0.968,0.667-1.127,1.026c0.619-0.256,1.27-0.513,1.968-0.735c0.889-0.291,1.825-0.53,2.841-0.752c-1-0.137-1.92-0.325-2.793-0.547C325.466,221.903,324.736,221.681,324.053,221.441z M318.578,223.185L318.578,223.185C318.578,223.185,318.578,223.185,318.578,223.185C318.578,223.185,318.578,223.185,318.578,223.185z M313.516,222.365c0.222,0.342,0.555,0.667,1.317,0.855c-0.587,0.051-1.333,0.376-1.603,0.53c0.302,0.085,1.111,0.239,1.698,0.171c-0.682,0.342-0.92,0.735-1.047,1.111c0.603-0.308,1.238-0.615,1.92-0.889c0.857-0.359,1.777-0.684,2.777-0.957c-1-0.068-1.952-0.188-2.841-0.342C314.96,222.706,314.214,222.553,313.516,222.365z M345.303,221.322c0.143,0.376,0.413,0.735,1.111,1.026c-0.587-0.017-1.397,0.188-1.682,0.308c0.27,0.137,1.047,0.393,1.635,0.41c-0.746,0.239-1.047,0.598-1.254,0.957c0.682-0.256,1.412-0.479,2.19-0.667c0.873-0.222,1.809-0.393,2.809-0.547c-1.031-0.205-1.968-0.462-2.841-0.735C346.572,221.835,345.922,221.595,345.303,221.322z M357.76,222.792c-0.682-0.291-1.317-0.581-1.92-0.889c0.127,0.376,0.381,0.769,1.063,1.111c-0.603-0.085-1.412,0.068-1.714,0.171c0.27,0.154,1.016,0.479,1.619,0.53c-0.762,0.188-1.095,0.513-1.333,0.855c0.714-0.188,1.46-0.359,2.238-0.496c0.889-0.154,1.825-0.256,2.825-0.325C359.538,223.459,358.617,223.134,357.76,222.792z" />
      <path fill="#CCCCCC" d="M336.892,225.048c-16.155,0-25.947,1.009-25.138,1.778c5.665,2.547,16.822,3.368,25.138,3.385c8.3-0.017,19.456-0.838,25.122-3.385C362.823,226.057,353.031,225.048,336.892,225.048L336.892,225.048z" />
      <path fill="none" stroke="#000000" stroke-width="0.5" d="M361.982,226.877c0.143-0.41-0.492-0.53-1.158-0.615c-2.587-0.359-5.459-0.598-8.014-0.803c-3.999-0.274-8.03-0.359-12.061-0.41h-3.856h-3.872c-4.031,0.051-8.062,0.137-12.061,0.41c-2.555,0.205-5.427,0.444-8.014,0.803c-0.667,0.085-1.301,0.205-1.158,0.615 M333.02,220.091c-4.031,0.051-8.062,0.137-12.061,0.41c-2.952,0.239-6.316,0.513-9.189,0.957l-0.73,0.137c-1.809,0.376-2.063,2.701-1.111,3.966c1.936,2.615,13.41,4.65,26.963,4.65c13.537,0,25.011-2.034,26.947-4.65c0.952-1.265,0.698-3.59-1.111-3.966l-0.73-0.137c-2.857-0.444-6.237-0.718-9.189-0.957c-3.999-0.274-8.03-0.359-12.061-0.41h-3.856H333.02z" />
      <path fill="#FED100" stroke="#000000" stroke-width="0.5" d="M312.594,173.583c-2.116,0.506-4.36,1.51-6.129,3.395c-1.639,1.748-2.729,3.811-3.358,6.317c-0.588,2.345-0.606,3.74-0.345,6.076c0.336,3.005,2.053,6.021,2.053,6.021l2.958-0.569c0,0-1.783-4.047-1.983-5.84c-0.241-2.154-0.234-2.844,0.264-4.828c0.515-2.055,1.264-3.467,2.551-4.841c1.214-1.295,2.925-2.097,4.677-2.535c1.563-0.39,3.328-0.557,4.699-0.253c2.604,0.578,4.295,1.494,7.126,2.456c2.042,0.694,3.602,0.932,5.667,1.058c1.263,0.077,2.722-0.262,4.091-0.576c1.368-0.314,2.514-0.64,2.514-0.64l-0.77-3.182c0,0-1.094,0.312-2.383,0.608c-1.289,0.296-2.899,0.536-3.277,0.513c-1.946-0.119-3.089-0.294-4.919-0.916c-2.62-0.891-4.475-1.878-7.433-2.543C316.604,172.859,314.559,173.114,312.594,173.583z M312.594,173.583c-2.116,0.506-4.36,1.51-6.129,3.395c-1.639,1.748-2.729,3.811-3.358,6.317c-0.588,2.345-0.606,3.74-0.345,6.076c0.336,3.005,2.053,6.021,2.053,6.021l2.958-0.569c0,0-1.783-4.047-1.983-5.84c-0.241-2.154-0.234-2.844,0.264-4.828c0.515-2.055,1.264-3.467,2.551-4.841c1.214-1.295,2.925-2.097,4.677-2.535c1.563-0.39,3.328-0.557,4.699-0.253c2.604,0.578,4.295,1.494,7.126,2.456c2.042,0.694,3.602,0.932,5.667,1.058c1.263,0.077,2.722-0.262,4.091-0.576c1.368-0.314,2.514-0.64,2.514-0.64l-0.77-3.182c0,0-1.094,0.312-2.383,0.608c-1.289,0.296-2.899,0.536-3.277,0.513c-1.946-0.119-3.089-0.294-4.919-0.916c-2.62-0.891-4.475-1.878-7.433-2.543C316.604,172.859,314.559,173.114,312.594,173.583z M361.174,173.583c2.116,0.506,4.36,1.51,6.129,3.395c1.639,1.748,2.729,3.811,3.358,6.317c0.588,2.345,0.606,3.74,0.345,6.076c-0.336,3.005-2.053,6.021-2.053,6.021l-2.958-0.569c0,0,1.783-4.047,1.983-5.84c0.241-2.154,0.234-2.844-0.264-4.828c-0.515-2.055-1.264-3.467-2.551-4.841c-1.214-1.295-2.925-2.097-4.677-2.535c-1.563-0.39-3.328-0.557-4.699-0.253c-2.604,0.578-4.295,1.494-7.126,2.456c-2.042,0.694-3.602,0.932-5.667,1.058c-1.263,0.077-2.722-0.262-4.091-0.576c-1.368-0.314-2.514-0.64-2.514-0.64l0.77-3.182c0,0,1.094,0.312,2.383,0.608c1.289,0.296,2.899,0.536,3.277,0.513c1.946-0.119,3.089-0.294,4.919-0.916c2.62-0.891,4.475-1.878,7.433-2.543C357.163,172.859,359.209,173.114,361.174,173.583z M361.174,173.583c2.116,0.506,4.36,1.51,6.129,3.395c1.639,1.748,2.729,3.811,3.358,6.317c0.588,2.345,0.606,3.74,0.345,6.076c-0.336,3.005-2.053,6.021-2.053,6.021l-2.958-0.569c0,0,1.783-4.047,1.983-5.84c0.241-2.154,0.234-2.844-0.264-4.828c-0.515-2.055-1.264-3.467-2.551-4.841c-1.214-1.295-2.925-2.097-4.677-2.535c-1.563-0.39-3.328-0.557-4.699-0.253c-2.604,0.578-4.295,1.494-7.126,2.456c-2.042,0.694-3.602,0.932-5.667,1.058c-1.263,0.077-2.722-0.262-4.091-0.576c-1.368-0.314-2.514-0.64-2.514-0.64l0.77-3.182c0,0,1.094,0.312,2.383,0.608c1.289,0.296,2.899,0.536,3.277,0.513c1.946-0.119,3.089-0.294,4.919-0.916c2.62-0.891,4.475-1.878,7.433-2.543C357.163,172.859,359.209,173.114,361.174,173.583z" />
      <path fill="#C8102E" stroke="#000000" stroke-width="0.5" d="M358.664,216.261l1.952-6.14l0.788-2.542l1.954-1.308l1.979-4.845l0.932-1.267l0.144-4.464c0,0-1.367-3.166-3.483-4.303c-3.026-1.627-7.134-1.403-7.134-1.403s-0.949-2.703-2.689-3.755c-1.74-1.052-3.673-1.306-5.701-1.306s-5.669,1.954-7.637,2.528c-1.023,0.299-3.335,1.306-3.335,1.306s-2.311-1.007-3.335-1.306c-1.969-0.574-5.609-2.528-7.637-2.528s-3.898,0.215-5.701,1.306c-1.677,1.014-3.98,3.755-3.98,3.755s-2.636-0.385-4.488,0.815c-2.31,1.497-3.938,4.647-3.938,4.647l0.16,4.877l0.364,1.864l1.493,1.848l1.946,3.733l1.394,3.682l1.492,4.805H358.664z" />
      <path fill="#FED100" stroke="#000000" stroke-width="0.5" d="M341.381,172.504c0,2.675-2.013,4.844-4.497,4.844s-4.497-2.169-4.497-4.844c0-2.675,2.013-4.844,4.497-4.844S341.381,169.829,341.381,172.504L341.381,172.504z M341.381,172.504c0,2.675-2.013,4.844-4.497,4.844s-4.497-2.169-4.497-4.844c0-2.675,2.013-4.844,4.497-4.844S341.381,169.829,341.381,172.504L341.381,172.504z M332.888,167.636c0.445-0.607,0.976-1.057,1.407-1.674c0.452-0.648,0.798-1.467,0.975-2.294c-0.787,0.211-1.547,0.583-2.148,1.07c-0.573,0.464-0.991,1.036-1.554,1.515v-7.769c0.563,0.479,0.981,1.052,1.554,1.515c0.602,0.487,1.362,0.859,2.148,1.07c-0.177-0.827-0.523-1.646-0.975-2.294c-0.431-0.617-0.962-1.067-1.407-1.674h7.991c-0.445,0.607-0.976,1.057-1.407,1.674c-0.452,0.648-0.798,1.467-0.975,2.294c0.787-0.211,1.547-0.583,2.148-1.07c0.573-0.464,0.991-1.036,1.554-1.515v7.769c-0.563-0.479-0.981-1.052-1.554-1.515c-0.602-0.487-1.362-0.859-2.148-1.07c0.177,0.827,0.523,1.646,0.975,2.294c0.431,0.617,0.962,1.067,1.407,1.674H332.888z" />
      <path fill="#FED100" stroke="#000000" stroke-width="0.5" d="M335.923,167.288v4.066h-3.775v2.07h9.472v-2.07h-3.782v-4.066H335.923z M335.412,176.347h2.944c0.827,0,1.498,0.722,1.498,1.614v14.896c0,0.891-0.671,1.614-1.498,1.614h-2.944c-0.827,0-1.498-0.722-1.498-1.614v-14.896C333.913,177.069,334.584,176.347,335.412,176.347z" />
      <path fill="#FED100" stroke="#000000" stroke-width="0.5" d="M333.689,176.329c0.525,0,0.947,0.388,0.947,0.871v16.418c0,0.482-0.422,0.871-0.947,0.871s-0.947-0.388-0.947-0.871v-16.418C332.742,176.717,333.164,176.329,333.689,176.329z M340.078,176.329L340.078,176.329c0.523,0,0.947,0.39,0.947,0.871v16.418c0,0.481-0.424,0.871-0.947,0.871l0,0c-0.523,0-0.947-0.39-0.947-0.871v-16.418C339.131,176.719,339.555,176.329,340.078,176.329z" />
      <path fill="#FFFFFF" stroke="#000000" stroke-width="0.5" d="M369.375,191.872c0,0.99,0.733,1.793,1.637,1.793c0.904,0,1.637-0.803,1.637-1.793s-0.733-1.793-1.637-1.793C370.108,190.079,369.375,190.882,369.375,191.872L369.375,191.872z M370.163,187.635c0,0.99,0.733,1.793,1.637,1.793c0.904,0,1.637-0.803,1.637-1.793c0-0.99-0.733-1.793-1.637-1.793C370.896,185.842,370.163,186.645,370.163,187.635L370.163,187.635z M369.925,183.153c0,0.99,0.733,1.793,1.637,1.793s1.637-0.803,1.637-1.793c0-0.99-0.733-1.793-1.637-1.793S369.925,182.163,369.925,183.153L369.925,183.153z M368.325,178.901c0,0.99,0.733,1.793,1.637,1.793c0.904,0,1.637-0.803,1.637-1.793c0-0.99-0.733-1.793-1.637-1.793C369.058,177.109,368.325,177.911,368.325,178.901L368.325,178.901z M365.338,175.569c0,0.99,0.733,1.793,1.637,1.793c0.904,0,1.637-0.803,1.637-1.793c0-0.99-0.733-1.793-1.637-1.793C366.071,173.776,365.338,174.579,365.338,175.569L365.338,175.569z M361.604,173.385c0,0.99,0.733,1.793,1.637,1.793c0.904,0,1.637-0.803,1.637-1.793c0-0.99-0.733-1.793-1.637-1.793C362.337,171.593,361.604,172.395,361.604,173.385L361.604,173.385z M357.336,172.236c0,0.99,0.733,1.793,1.637,1.793s1.637-0.803,1.637-1.793c0-0.99-0.733-1.793-1.637-1.793S357.336,171.246,357.336,172.236L357.336,172.236z M352.962,172.466c0,0.99,0.733,1.793,1.637,1.793c0.904,0,1.637-0.803,1.637-1.793c0-0.99-0.733-1.793-1.637-1.793C353.695,170.673,352.962,171.476,352.962,172.466L352.962,172.466z M341.12,175.798c0,0.99,0.733,1.793,1.637,1.793c0.904,0,1.637-0.803,1.637-1.793s-0.733-1.793-1.637-1.793C341.853,174.006,341.12,174.808,341.12,175.798L341.12,175.798z M348.802,173.73c0,0.99,0.733,1.793,1.637,1.793c0.904,0,1.637-0.803,1.637-1.793c0-0.99-0.733-1.793-1.637-1.793C349.535,171.937,348.802,172.74,348.802,173.73L348.802,173.73z M344.961,174.994c0,0.99,0.733,1.793,1.637,1.793c0.904,0,1.637-0.803,1.637-1.793c0-0.99-0.733-1.793-1.637-1.793C345.694,173.201,344.961,174.004,344.961,174.994L344.961,174.994z M304.392,191.872c0,0.99-0.733,1.793-1.637,1.793c-0.904,0-1.637-0.803-1.637-1.793s0.733-1.793,1.637-1.793C303.659,190.079,304.392,190.882,304.392,191.872L304.392,191.872z M303.604,187.635c0,0.99-0.733,1.793-1.637,1.793c-0.904,0-1.637-0.803-1.637-1.793c0-0.99,0.733-1.793,1.637-1.793C302.871,185.842,303.604,186.645,303.604,187.635L303.604,187.635z M303.842,183.153c0,0.99-0.733,1.793-1.637,1.793c-0.904,0-1.637-0.803-1.637-1.793c0-0.99,0.733-1.793,1.637-1.793C303.109,181.361,303.842,182.163,303.842,183.153L303.842,183.153z M305.442,178.901c0,0.99-0.733,1.793-1.637,1.793c-0.904,0-1.637-0.803-1.637-1.793c0-0.99,0.733-1.793,1.637-1.793C304.709,177.109,305.442,177.911,305.442,178.901L305.442,178.901z M308.429,175.569c0,0.99-0.733,1.793-1.637,1.793s-1.637-0.803-1.637-1.793c0-0.99,0.733-1.793,1.637-1.793S308.429,174.579,308.429,175.569L308.429,175.569z M312.163,173.385c0,0.99-0.733,1.793-1.637,1.793c-0.904,0-1.637-0.803-1.637-1.793c0-0.99,0.733-1.793,1.637-1.793C311.43,171.593,312.163,172.395,312.163,173.385L312.163,173.385z M316.431,172.236c0,0.99-0.733,1.793-1.637,1.793c-0.904,0-1.637-0.803-1.637-1.793c0-0.99,0.733-1.793,1.637-1.793C315.698,170.443,316.431,171.246,316.431,172.236L316.431,172.236z M320.805,172.466c0,0.99-0.733,1.793-1.637,1.793c-0.904,0-1.637-0.803-1.637-1.793c0-0.99,0.733-1.793,1.637-1.793C320.072,170.673,320.805,171.476,320.805,172.466L320.805,172.466z M332.647,175.798c0,0.99-0.733,1.793-1.637,1.793c-0.904,0-1.637-0.803-1.637-1.793s0.733-1.793,1.637-1.793C331.914,174.006,332.647,174.808,332.647,175.798L332.647,175.798z M324.966,173.73c0,0.99-0.733,1.793-1.637,1.793s-1.637-0.803-1.637-1.793c0-0.99,0.733-1.793,1.637-1.793S324.966,172.74,324.966,173.73L324.966,173.73z M328.806,174.994c0,0.99-0.733,1.793-1.637,1.793c-0.904,0-1.637-0.803-1.637-1.793c0-0.99,0.733-1.793,1.637-1.793C328.073,173.201,328.806,174.004,328.806,174.994L328.806,174.994z M338.865,162.369c0,1.198-0.887,2.169-1.981,2.169c-1.094,0-1.981-0.971-1.981-2.169c0-1.198,0.887-2.169,1.981-2.169C337.978,160.2,338.865,161.171,338.865,162.369L338.865,162.369z M338.521,176.733c0,0.99-0.733,1.793-1.637,1.793c-0.904,0-1.637-0.803-1.637-1.793c0-0.99,0.733-1.793,1.637-1.793C337.788,174.94,338.521,175.743,338.521,176.733L338.521,176.733z M338.521,180.298c0,0.99-0.733,1.793-1.637,1.793c-0.904,0-1.637-0.803-1.637-1.793c0-0.99,0.733-1.793,1.637-1.793C337.788,178.505,338.521,179.307,338.521,180.298L338.521,180.298z M338.521,183.867c0,0.99-0.733,1.793-1.637,1.793c-0.904,0-1.637-0.803-1.637-1.793s0.733-1.793,1.637-1.793C337.788,182.075,338.521,182.877,338.521,183.867L338.521,183.867z M338.521,187.437c0,0.99-0.733,1.793-1.637,1.793c-0.904,0-1.637-0.803-1.637-1.793c0-0.99,0.733-1.793,1.637-1.793C337.788,185.645,338.521,186.447,338.521,187.437L338.521,187.437z M338.521,191.007c0,0.99-0.733,1.793-1.637,1.793c-0.904,0-1.637-0.803-1.637-1.793c0-0.99,0.733-1.793,1.637-1.793C337.788,189.214,338.521,190.017,338.521,191.007L338.521,191.007z" />
      <path fill="#FED100" stroke="#000000" stroke-width="0.5" d="M366.29,202.338c-1.576,3.796-2.839,7.502-4.076,11.316h-6.635h-18.773h-19.377h-6.031c-1.196-3.686-2.416-7.652-3.919-11.316c0,0,3.163,4.767,5.531,5.92c1.316,0.64,2.961,0.831,4.321,0.31c1.793-0.686,4.177-4.189,4.177-4.189s2.144,2.703,3.601,3.414c1.367,0.667,2.966,0.694,4.465,0.621c1.327-0.065,2.796-0.118,3.889-0.931c1.655-1.23,3.313-5.431,3.313-5.431s1.604,3.305,2.881,4.5c1.054,0.986,2.377,1.722,3.745,2.017c1.369,0.295,2.864,0.2,4.177-0.31c1.78-0.691,4.609-3.569,4.609-3.569s1.947,2.602,3.313,3.258c1.322,0.636,2.912,0.823,4.321,0.465c1.491-0.378,2.744-1.541,3.889-2.638C364.734,204.797,366.29,202.338,366.29,202.338L366.29,202.338z" />
      <path fill="#FED100" stroke="#000000" stroke-width="0.5" d="M336.884,204.489c0,0-1.159,1.921-1.871,2.578c-0.99,0.912-1.64,1.461-2.911,1.892c-1.269,0.431-3.039,0.673-4.367,0.595c-1.285-0.076-2.607-0.477-3.765-1.081c-1.007-0.525-2.61-2.055-2.61-2.055c-0.78,1.09-1.772,1.855-2.717,2.42c-1.208,0.723-2.402,0.788-3.656,0.716c-2.549-0.148-4.927-1.863-6.835-5.341c-1.237-3.151-2.66-6.342-4.436-9.688c2.048-0.781,4.434-1.197,7.081-1.332c-1.077,3.268-2.193,6.451-1.798,9.081c2.224-1.794,2.943-4.237,3.709-6.659l2.585,9.807c-1.569-0.296-0.735-0.646-4.855-1.487c0.826,1.677,2.716,3.748,4.8,3.952c1.401,0.137,2.419-0.329,3.309-1.161c0.64-0.598,1.223-1.388,1.216-2.279c-0.004-0.51-0.009-1.02-0.013-1.53c-0.003-0.328-0.378-0.792-0.682-0.796c-0.29-0.004-0.37,0.502-0.448,0.803c-0.155,0.602,0.156,1.273,0,1.875c-0.172,0.664-0.502,1.187-1.044,1.553c-0.451,0.305-1.541,0.375-1.541,0.375l0.348-1.446c0.246-1.02-0.674-1.812-0.895-2.839c-0.142-0.661-0.221-1.4,0-2.035c0.239-0.687,0.722-1.356,1.342-1.66c0.226-0.111,0.498-0.126,0.746-0.107c0.351,0.027,1.044,0.268,1.044,0.268s-0.199-1.034-0.149-1.66c0.06-0.76,0.658-2.168,0.994-2.839c0.559-1.114,1.447-2.118,1.548-2.226c0.097,0.105,1.06,1.071,1.69,2.141c0.379,0.644,0.768,1.575,0.877,2.329c0.09,0.621,0.058,1.935,0.058,1.935s1.024-0.453,1.372-0.506c0.246-0.038,0.518-0.043,0.751,0.051c0.638,0.257,1.164,0.888,1.446,1.556c0.261,0.617,0.231,1.36,0.131,2.03c-0.154,1.041-0.722,1.846-0.411,2.845l0.441,1.417c0,0-1.092,0.012-1.562-0.258c-0.564-0.324-0.927-0.822-1.142-1.471c-0.195-0.589-0.082-1.31-0.419-1.816c-0.149-0.224-0.359-0.473-0.647-0.447c-0.303,0.027-0.516,0.561-0.529,0.888l-0.054,1.378c-0.016,0.423,0.163,0.863,0.373,1.205c0.515,0.839,1.283,1.348,2.148,1.726c0.938,0.409,1.783,0.567,2.795,0.579c0.844,0.011,2.311-0.138,3.11-0.429c0.985-0.358,1.564-0.814,2.327-1.576c0.43-0.429,0.717-1.053,0.906-1.651c0.218-0.688,0.139-1.876,0.139-1.876c-0.98,0.4-1.832,0.938-2.601,1.567c-0.868,0.71-1.629,1.537-2.345,2.41l-0.07-11.856c1.021,1.213,1.763,2.3,2.785,3.214c0.86,0.769,1.302,1.063,2.161,1.363c-0.246-0.954-0.329-1.532-0.963-2.486c-0.879-1.322-1.735-2.742-2.799-4.065c1.96-0.352,3.918-0.446,5.904-0.446s3.944,0.095,5.904,0.446c-1.064,1.322-1.92,2.742-2.799,4.065c-0.634,0.954-0.717,1.532-0.963,2.486c0.86-0.301,1.302-0.594,2.161-1.363c1.021-0.914,1.763-2.001,2.785-3.214l-0.07,11.856c-0.717-0.874-1.477-1.7-2.345-2.41c-0.768-0.629-1.62-1.167-2.601-1.567c0,0-0.078,1.188,0.139,1.876c0.189,0.598,0.476,1.221,0.906,1.651c0.762,0.762,1.341,1.217,2.327,1.576c0.8,0.291,2.266,0.44,3.11,0.429c1.012-0.013,1.857-0.17,2.795-0.579c0.866-0.378,1.633-0.887,2.148-1.726c0.21-0.342,0.389-0.782,0.373-1.205l-0.054-1.378c-0.013-0.327-0.226-0.861-0.529-0.888c-0.289-0.026-0.498,0.222-0.647,0.447c-0.338,0.507-0.225,1.228-0.419,1.816c-0.215,0.649-0.578,1.147-1.142,1.471c-0.47,0.27-1.562,0.258-1.562,0.258l0.441-1.417c0.311-0.999-0.257-1.805-0.411-2.845c-0.099-0.67-0.13-1.413,0.131-2.03c0.283-0.668,0.808-1.299,1.447-1.556c0.233-0.094,0.505-0.089,0.751-0.051c0.348,0.053,1.372,0.506,1.372,0.506s-0.032-1.314,0.058-1.935c0.109-0.754,0.498-1.685,0.877-2.329c0.629-1.07,1.592-2.035,1.69-2.141c0.101,0.108,0.99,1.112,1.548,2.226c0.336,0.671,0.934,2.079,0.994,2.839c0.05,0.627-0.149,1.66-0.149,1.66s0.693-0.241,1.044-0.268c0.248-0.019,0.52-0.004,0.746,0.107c0.62,0.304,1.104,0.973,1.342,1.66c0.221,0.635,0.142,1.374,0,2.035c-0.221,1.027-1.141,1.818-0.895,2.839l0.348,1.446c0,0-1.09-0.07-1.541-0.375c-0.542-0.366-0.872-0.89-1.044-1.553c-0.156-0.602,0.155-1.272,0-1.875c-0.077-0.301-0.158-0.808-0.448-0.803c-0.304,0.005-0.68,0.468-0.682,0.796c-0.004,0.51-0.009,1.02-0.013,1.53c-0.008,0.891,0.576,1.681,1.216,2.279c0.891,0.832,1.908,1.299,3.309,1.161c2.084-0.204,3.974-2.275,4.8-3.952c-4.121,0.841-3.286,1.191-4.855,1.487l2.585-9.807c0.766,2.422,1.485,4.865,3.709,6.659c0.395-2.63-0.722-5.813-1.798-9.081c2.647,0.135,5.034,0.551,7.081,1.332c-1.777,3.346-3.199,6.537-4.436,9.688c-1.908,3.478-4.286,5.193-6.835,5.341c-1.254,0.073-2.448,0.008-3.656-0.716c-0.945-0.566-1.938-1.331-2.717-2.42c0,0-1.604,1.529-2.61,2.055c-1.158,0.604-2.48,1.006-3.765,1.081c-1.328,0.078-3.098-0.164-4.367-0.595c-1.271-0.432-1.922-0.981-2.911-1.892C338.042,206.41,336.884,204.489,336.884,204.489L336.884,204.489z" />
      <path fill="#000000" d="M353.023,204.409l-0.03-0.053c-0.035-0.649,0.169-1.761,0.169-1.761c0.114-0.553,0.554-1.145,1.1-1.358c0.294-0.115,0.651-0.159,0.968,0.008c0.193,0.102,0.349,0.181,0.477,0.324c0.128,0.143,0.207,0.332,0.293,0.6c0.125,0.393,0.071,0.802,0.007,1.153c-0.105,0.579-0.093,1.085,0.059,1.477c0.107,0.277,0.323,0.484,0.601,0.663c-0.052-0.198-0.089-0.294-0.117-0.513c-0.042-0.325,0.009-0.661,0.125-0.955c0.201-0.512,0.479-0.916,0.667-1.366c0.179-0.429,0.273-0.915,0.242-1.374c-0.026-0.379-0.129-0.77-0.33-1.042c-0.217-0.295-0.549-0.54-0.88-0.608c-0.294-0.061-0.778,0.047-1.166,0.182c-0.388,0.134-0.682,0.284-0.682,0.284l-0.345,0.174l0.059-0.403c0.202-1.354,0.38-2.042,0-3.309c-0.156-0.521-0.417-1.095-0.858-1.761c-0.214-0.323-0.453-0.709-0.726-1.066c-0.71,0.871-1.205,1.754-1.488,2.645c-0.309,0.976-0.322,2.274-0.249,3.317l0.029,0.419l-0.33-0.213c0,0-0.375-0.248-0.828-0.482c-0.453-0.234-1.006-0.44-1.239-0.419c-0.44,0.041-0.733,0.268-1.019,0.663c-0.243,0.336-0.295,0.627-0.345,1.09c-0.031,0.293,0.037,0.843,0.081,1.2c0.051,0.419,0.28,0.86,0.345,1.39c0.021,0.175,0.072,0.313,0.11,0.482c0.038,0.169,0.057,0.368,0.015,0.6c-0.03,0.161-0.074,0.277-0.132,0.474c0.112-0.059,0.19-0.088,0.249-0.134c0.217-0.168,0.306-0.467,0.447-0.829c0.076-0.195,0.093-0.37,0.103-0.576c0.01-0.206,0.019-0.449,0.117-0.719c0.167-0.46,0.365-1.007,0.799-1.342c0.356-0.275,0.83-0.351,1.246-0.213c0.247,0.082,0.423,0.246,0.55,0.434c0.127,0.189,0.212,0.395,0.301,0.6c0.113,0.263,0.181,0.656,0.235,1.003c0.053,0.347,0.081,0.64,0.081,0.64l0.007,0.032l-0.007,0.039l-0.303,1.085l-0.386-0.094l0.293-1.037c-0.002-0.02-0.031-0.271-0.081-0.592c-0.051-0.334-0.129-0.732-0.198-0.892c-0.091-0.21-0.172-0.393-0.264-0.529c-0.092-0.136-0.185-0.223-0.345-0.276c-0.287-0.095-0.659-0.037-0.902,0.15c-0.308,0.238-0.494,0.697-0.66,1.153c-0.072,0.198-0.078,0.376-0.088,0.584c-0.01,0.208-0.02,0.451-0.125,0.719c-0.129,0.332-0.237,0.74-0.586,1.011c-0.258,0.2-0.726,0.395-0.726,0.395l-0.411,0.182l0.147-0.45c0,0,0.207-0.66,0.249-0.892c0.03-0.161,0.017-0.277-0.015-0.419s-0.09-0.307-0.117-0.529c-0.051-0.419-0.28-0.86-0.345-1.39c-0.042-0.345-0.125-0.891-0.081-1.303c0.051-0.48,0.126-0.897,0.425-1.311c0.327-0.453,0.743-0.769,1.298-0.821c0.439-0.041,0.978,0.214,1.452,0.458c0.304,0.157,0.397,0.229,0.55,0.324c-0.05-1.001-0.035-2.154,0.271-3.119c0.324-1.023,0.88-2.031,1.723-3.009l0.147-0.166l0.147,0.166c0.392,0.454,0.66,0.953,0.902,1.319c0.461,0.697,0.747,1.315,0.916,1.879c0.363,1.21,0.23,2.036,0.059,3.151c0.133-0.061,0.18-0.094,0.411-0.174c0.415-0.144,0.92-0.279,1.356-0.19c0.446,0.092,0.848,0.386,1.122,0.758c0.272,0.369,0.388,0.841,0.418,1.279c0.037,0.543-0.075,1.099-0.279,1.587c-0.211,0.505-0.49,0.907-0.667,1.358c-0.089,0.227-0.133,0.491-0.103,0.726c0.046,0.353,0.22,0.924,0.22,0.924l0.125,0.403l-0.381-0.134c-0.608-0.222-1.007-0.625-1.202-1.129c-0.195-0.504-0.194-1.093-0.081-1.721c0.06-0.33,0.092-0.66,0.007-0.924c-0.078-0.244-0.135-0.363-0.205-0.442s-0.179-0.138-0.367-0.237c-0.173-0.091-0.441-0.077-0.66,0.008c-0.363,0.141-0.796,0.664-0.836,1.034C353.488,203.329,353.316,203.995,353.023,204.409z M364.458,203.638l0.103-0.221l-0.22-0.079c-1.637-0.558-3.149-0.136-4.574,0.513c0.576-1.695,1.015-3.388,1.327-5.085c1.554,3.008,2.873,3.992,4.113,4.604l0.227,0.111l0.051-0.269c0.37-2.054,0.399-4.79-1.166-8.86c1.753,0.098,3.496,0.324,5.227,1.153l0.161-0.395c-1.9-0.91-3.799-1.136-5.674-1.224l-0.323-0.016l0.132,0.316c1.606,4.017,1.607,6.631,1.283,8.647c-1.191-0.625-2.397-1.568-3.937-4.73l-0.271-0.553l-0.103,0.616c-0.334,1.993-0.856,3.99-1.561,5.986l-0.176,0.49l0.44-0.221c1.44-0.704,2.895-1.162,4.464-0.719l0.039,0.026L364.458,203.638z M309.785,203.701c1.567-0.44,3.019,0.016,4.457,0.719l0.44,0.221l-0.169-0.489c-0.705-1.996-1.227-3.992-1.561-5.986l-0.103-0.616l-0.271,0.553c-1.54,3.164-2.752,4.105-3.944,4.73c-0.324-2.016-0.316-4.63,1.29-8.647l0.125-0.316l-0.315,0.016c-1.875,0.088-3.774,0.314-5.674,1.224l0.161,0.395c1.733-0.829,3.472-1.055,5.227-1.153c-1.564,4.07-1.535,6.806-1.166,8.86l0.044,0.269l0.235-0.111c1.239-0.612,2.56-1.593,4.113-4.596c0.312,1.694,0.752,3.385,1.327,5.077c-1.425-0.649-2.937-1.072-4.574-0.513l-0.22,0.079l0.103,0.221l-0.042,0.023L309.785,203.701L309.785,203.701z M322.66,204.656l-0.229-0.923c0.004-0.039,0.026-0.261,0.073-0.569c0.051-0.334,0.136-0.732,0.205-0.892c0.091-0.21,0.172-0.393,0.264-0.529c0.092-0.136,0.185-0.223,0.345-0.276c0.287-0.095,0.652-0.037,0.894,0.15c0.308,0.238,0.501,0.697,0.667,1.153c0.072,0.198,0.078,0.376,0.088,0.584c0.01,0.208,0.02,0.451,0.125,0.719c0.129,0.332,0.237,0.74,0.586,1.011c0.258,0.2,0.726,0.395,0.726,0.395l0.403,0.182l-0.139-0.45c0,0-0.207-0.66-0.249-0.892c-0.03-0.161-0.017-0.277,0.015-0.419c0.032-0.142,0.083-0.307,0.11-0.529c0.051-0.419,0.28-0.86,0.345-1.39c0.042-0.345,0.132-0.891,0.088-1.303c-0.051-0.48-0.126-0.897-0.425-1.311c-0.328-0.453-0.743-0.769-1.298-0.821c-0.439-0.041-0.978,0.214-1.452,0.458c-0.304,0.157-0.397,0.229-0.55,0.324c0.05-1.001,0.035-2.154-0.271-3.119c-0.324-1.023-0.88-2.031-1.723-3.009l-0.147-0.166l-0.147,0.166c-0.392,0.454-0.667,0.953-0.909,1.319c-0.461,0.697-0.74,1.315-0.909,1.879c-0.363,1.21-0.23,2.036-0.059,3.151c-0.133-0.061-0.178-0.093-0.411-0.174c-0.415-0.144-0.92-0.279-1.356-0.19c-0.446,0.092-0.848,0.386-1.122,0.758c-0.272,0.369-0.388,0.841-0.418,1.279c-0.037,0.543,0.075,1.099,0.279,1.587c0.211,0.505,0.49,0.907,0.667,1.358c0.089,0.227,0.126,0.491,0.095,0.726c-0.046,0.353-0.213,0.924-0.213,0.924l-0.125,0.403l0.381-0.134c0.608-0.222,1.007-0.625,1.202-1.129c0.195-0.504,0.194-1.093,0.081-1.721c-0.06-0.33-0.092-0.66-0.007-0.924c0.078-0.244,0.135-0.363,0.205-0.442s0.171-0.138,0.359-0.237c0.173-0.091,0.449-0.077,0.667,0.008c0.363,0.141,0.758,0.67,0.836,1.034c0,0,0,0.008,0,0.008c0.002,0.011,0.189,1.139,0.161,1.65l0.47,0.09c-0.039-0.715-0.243-1.827-0.243-1.827c-0.114-0.553-0.547-1.145-1.092-1.358c-0.294-0.115-0.659-0.159-0.975,0.008c-0.193,0.102-0.341,0.18-0.469,0.324c-0.128,0.143-0.215,0.332-0.301,0.6c-0.125,0.393-0.071,0.802-0.007,1.153c0.105,0.579,0.093,1.085-0.059,1.477c-0.107,0.277-0.316,0.484-0.594,0.663c0.052-0.198,0.089-0.294,0.117-0.513c0.042-0.325-0.009-0.661-0.125-0.955c-0.201-0.512-0.479-0.916-0.667-1.366c-0.179-0.429-0.28-0.915-0.249-1.374c0.026-0.379,0.129-0.77,0.33-1.042c0.217-0.295,0.556-0.54,0.887-0.608c0.294-0.061,0.77,0.047,1.158,0.182c0.388,0.134,0.689,0.284,0.689,0.284l0.345,0.174l-0.066-0.403c-0.202-1.354-0.372-2.042,0.007-3.309c0.156-0.521,0.409-1.095,0.85-1.761c0.214-0.324,0.46-0.709,0.733-1.066c0.71,0.871,1.206,1.754,1.488,2.645c0.309,0.976,0.314,2.274,0.242,3.317l-0.022,0.419l0.33-0.213c0,0,0.368-0.248,0.821-0.482c0.453-0.234,1.013-0.441,1.246-0.419c0.44,0.041,0.733,0.268,1.019,0.663c0.243,0.336,0.295,0.627,0.345,1.09c0.031,0.293-0.044,0.843-0.088,1.2c-0.051,0.419-0.273,0.86-0.337,1.39c-0.021,0.175-0.072,0.313-0.11,0.482c-0.038,0.169-0.065,0.368-0.022,0.6c0.03,0.161,0.074,0.277,0.132,0.474c-0.112-0.059-0.19-0.088-0.249-0.134c-0.218-0.168-0.306-0.467-0.447-0.829c-0.076-0.195-0.086-0.37-0.095-0.576s-0.019-0.449-0.117-0.719c-0.167-0.46-0.365-1.007-0.799-1.342c-0.356-0.275-0.83-0.351-1.246-0.213c-0.247,0.082-0.43,0.246-0.557,0.434c-0.127,0.189-0.205,0.395-0.293,0.6c-0.113,0.263-0.181,0.656-0.235,1.003c-0.053,0.347-0.088,0.64-0.088,0.64v0.032l0.007,0.039l0.237,0.947l0.117,0.014L322.66,204.656L322.66,204.656z M337.833,201.159l0.007-0.268l0.242,0.063c1.115,0.301,1.968,0.708,2.676,1.161c0.898,0.574,1.561,1.218,2.258,1.84l0.117-7.131c-0.594,0.707-1.152,1.463-1.972,2.069c-0.67,0.494-1.926,1.144-3.101,1.287l-0.279,0.032l0.059-0.292c0.165-0.804,0.161-1.362,0.535-2.314c0.355-0.903,1.105-2.213,2.595-4.406c-1.289-0.153-2.412-0.324-4.091-0.324c-1.678,0-2.795,0.17-4.083,0.324c1.491,2.193,2.24,3.503,2.595,4.406c0.375,0.952,0.37,1.51,0.535,2.314l0.059,0.292l-0.279-0.032c-1.175-0.143-2.431-0.793-3.101-1.287c-0.817-0.603-1.38-1.357-1.972-2.061l0.117,7.115c0.694-0.619,1.364-1.26,2.258-1.832c0.708-0.452,1.553-0.86,2.668-1.161l0.249-0.063v0.268l-0.402,0.303c-0.942,0.286-1.695,0.63-2.311,1.024c-0.986,0.63-1.698,1.367-2.536,2.085l-0.315,0.269l-0.007-0.434l-0.125-8.133l-0.015-0.537l0.352,0.379c0.774,0.84,1.354,1.757,2.258,2.424c0.558,0.412,1.651,0.962,2.654,1.153c-0.112-0.648-0.161-1.154-0.462-1.919c-0.352-0.896-1.078-2.209-2.734-4.619l-0.205-0.3l0.345-0.039c1.427-0.159,2.605-0.371,4.457-0.371l0,0c1.852,0,3.03,0.212,4.457,0.371l0.352,0.039l-0.205,0.3c-1.656,2.411-2.389,3.724-2.742,4.619c-0.302,0.767-0.342,1.276-0.454,1.927c1.003-0.191,2.089-0.749,2.646-1.161c0.904-0.667,1.492-1.584,2.265-2.424l0.345-0.379l-0.007,0.537l-0.132,8.133v0.434l-0.323-0.269c-0.838-0.718-1.543-1.454-2.529-2.085c-0.616-0.394-1.369-0.738-2.309-1.019L337.833,201.159z" />
      <path fill="#FFFFFF" stroke="#000000" stroke-width="0.616" d="M338.685,200.504c0,1.089-0.806,1.972-1.801,1.972c-0.995,0-1.801-0.883-1.801-1.972s0.806-1.972,1.801-1.972C337.878,198.532,338.685,199.415,338.685,200.504z M308.385,201.244c-0.995,0-1.801,0.883-1.801,1.972c0,1.089,0.806,1.972,1.801,1.972c0.995,0,1.801-0.883,1.801-1.972C310.186,202.127,309.38,201.244,308.385,201.244z M365.382,201.244c-0.995,0-1.801,0.883-1.801,1.972c0,1.089,0.806,1.972,1.801,1.972c0.995,0,1.801-0.883,1.801-1.972C367.183,202.127,366.377,201.244,365.382,201.244z" />
      <path fill="#FED100" stroke="#000000" stroke-width="0.5" d="M323.496,203.186l0.564,0.93l-0.467,0.991l-3.959,0.231l-0.682-0.923l0.586-0.997L323.496,203.186z M354.23,203.418l-3.959-0.231l-0.564,0.93l0.467,0.99l3.959,0.231l0.682-0.923L354.23,203.418z" />
      <path fill="#FED100" stroke="#000000" stroke-width="0.5" d="M336.774,210.033c8.917-0.005,17.833,0.516,26.711,1.575l-1.625,8.418c-8.83-0.854-16.058-1.082-24.986-1.158 M336.993,210.033c-8.917-0.005-17.833,0.516-26.711,1.575l1.625,8.418c8.83-0.854,16.058-1.082,24.986-1.158" />
      <path fill="#FED100" stroke="#000000" stroke-width="0.5" d="M319.61,210.236l-0.007,0.006h-0.007c-3.171,0.246-6.841,0.514-10.043,0.984c-0.453,0.583-0.49,1.115,0.334,1.54c3.075-0.451,6.699-0.726,9.873-0.972c4.304-0.269,8.643-0.437,12.971-0.483h8.301c2.589,0,8.057,0.17,12.971,0.489c4.892,0.317,9.888,0.965,9.888,0.965c0.853-0.469,0.76-0.993,0.296-1.54c0,0-5.042-0.666-10.036-0.99c-4.971-0.322-10.432-0.489-13.119-0.489h-8.301C328.35,209.761,323.977,209.983,319.61,210.236z" />
      <path fill="#FED100" stroke="#000000" stroke-width="0.5" d="M320.822,218.925l-0.007,0.006h-0.007c-2.948,0.246-6.361,0.514-9.338,0.984c-0.421,0.583-0.456,1.115,0.31,1.54c2.859-0.451,6.229-0.726,9.18-0.972c4.002-0.269,8.036-0.348,12.061-0.394h7.719c2.407,0,7.491,0.081,12.061,0.4c4.549,0.317,9.194,0.965,9.194,0.965c0.793-0.469,0.707-0.993,0.276-1.54c0,0-4.688-0.666-9.332-0.99c-4.623-0.322-9.7-0.4-12.199-0.4h-7.719C328.949,218.539,324.883,218.673,320.822,218.925z" />
      <path fill="none" stroke="#000000" stroke-width="0.25" d="M331.933,211.928h9.9c0.197,0,0.357,0.132,0.357,0.294v5.197c0,0.162-0.16,0.294-0.357,0.294h-9.9c-0.197,0-0.357-0.132-0.357-0.294v-5.197C331.577,212.06,331.737,211.928,331.933,211.928z" />
      <path fill="#012169" stroke="#A0892C" stroke-width="0.25" d="M333.331,212.688h7.105c0.339,0,0.614,0.227,0.614,0.506v3.254c0,0.28-0.275,0.506-0.614,0.506h-7.105c-0.339,0-0.614-0.227-0.614-0.506v-3.254C332.717,212.914,332.992,212.688,333.331,212.688z" />
      <path fill="#012169" stroke="#000000" stroke-width="0.25" d="M340.87,216.806c-0.111,0.091-0.264,0.148-0.435,0.148h-7.105c-0.17,0-0.324-0.056-0.435-0.148c-0.111-0.091-0.179-0.218-0.179-0.358v-3.254c0-0.14,0.068-0.267,0.179-0.358c0.056-0.046,2.139,0.954,4.162,1.962C339.02,215.776,340.925,216.761,340.87,216.806z M340.87,212.836c0.111,0.091,0.179,0.218,0.179,0.358v3.254c0,0.14-0.068,0.267-0.179,0.358s-0.264,0.148-0.435,0.148h-7.105c-0.17,0-0.324-0.056-0.435-0.148C332.786,216.715,340.759,212.744,340.87,212.836z M340.87,216.806c-0.111,0.091-0.264,0.148-0.435,0.148h-7.105c-0.17,0-0.324-0.056-0.435-0.148c-0.056-0.046,1.969-1.091,3.992-2.098C336.889,214.708,340.981,216.715,340.87,216.806L340.87,216.806z" />
      <path fill="none" stroke="#000000" stroke-width="0.25" d="M333.331,212.688h7.105c0.339,0,0.614,0.227,0.614,0.506v3.254c0,0.28-0.275,0.506-0.614,0.506h-7.105c-0.339,0-0.614-0.227-0.614-0.506v-3.254C332.717,212.914,332.992,212.688,333.331,212.688z" />
      <path fill="#012169" stroke="#000000" stroke-width="0.25" d="M334.549,213.661h4.669v2.181h-4.669V213.661z" />
      <path fill="#FED100" stroke="#000000" stroke-width="0.3" d="M321.273,213.076l2.902-0.307c1.208-0.128,2.341,0.707,2.531,1.865l0.036,0.22c0.19,1.158-0.636,2.2-1.844,2.328l-2.902,0.307c-1.208,0.128-2.341-0.707-2.531-1.865l-0.036-0.22C319.24,214.246,320.065,213.204,321.273,213.076z M352.494,213.076l-2.902-0.307c-1.208-0.128-2.341,0.707-2.531,1.865l-0.036,0.22c-0.19,1.158,0.636,2.2,1.844,2.328l2.902,0.307c1.208,0.128,2.341-0.707,2.531-1.865l0.036-0.22C354.527,214.246,353.702,213.204,352.494,213.076z" />
      <path fill="#306947" stroke="#000000" stroke-width="0.3" d="M321.46,213.663l2.724-0.288c0.928-0.098,1.798,0.543,1.943,1.432l0,0c0.146,0.889-0.488,1.689-1.416,1.788l-2.724,0.288c-0.928,0.098-1.798-0.543-1.944-1.432v0C319.898,214.561,320.532,213.761,321.46,213.663z M352.307,213.663l-2.724-0.288c-0.928-0.098-1.798,0.543-1.944,1.432l0,0c-0.146,0.889,0.488,1.689,1.416,1.788l2.724,0.288c0.928,0.098,1.798-0.543,1.943-1.432v0C353.869,214.561,353.235,213.761,352.307,213.663z" />
      <path fill="#FED100" stroke="#000000" stroke-width="0.3" d="M311.244,219.007l4.085-3.715l-4.987-1.85l-0.076,3.047L311.244,219.007z M362.523,219.007l-4.085-3.715l4.987-1.85l0.076,3.047L362.523,219.007z" />
      <path fill="#C8102E" d="M311.12,218.242l2.962-2.693l-3.616-1.341l-0.774,2.125L311.12,218.242z M362.647,218.242l-2.962-2.693l3.616-1.341l0.774,2.125L362.647,218.242z" />
      <path fill="none" stroke="#000000" stroke-width="0.3" d="M314.088,215.533l-4.406,0.823 M359.679,215.533l4.406,0.823" />
      <path fill="none" stroke="#000000" stroke-width="0.3" d="M311.12,218.242l2.962-2.693l-3.616-1.341l-0.816,2.091L311.12,218.242z M362.647,218.242l-2.962-2.693l3.616-1.341l0.816,2.091L362.647,218.242z" />
      <path fill="#FFFFFF" stroke="#000000" stroke-width="0.3" d="M328.119,213.324c0-0.542,0.401-0.982,0.897-0.982c0.495,0,0.897,0.44,0.897,0.982c0,0.542-0.401,0.982-0.897,0.982C328.521,214.306,328.119,213.866,328.119,213.324z M329.2,215.422c-0.495,0-0.897,0.44-0.897,0.982s0.402,0.982,0.897,0.982s0.897-0.44,0.897-0.982S329.695,215.422,329.2,215.422z M316.95,215.017c0.495,0,0.897-0.44,0.897-0.982c0-0.542-0.401-0.982-0.897-0.982c-0.495,0-0.897,0.44-0.897,0.982C316.053,214.577,316.455,215.017,316.95,215.017z M317.133,216.133c-0.495,0-0.897,0.44-0.897,0.982s0.402,0.982,0.897,0.982c0.495,0,0.897-0.44,0.897-0.982S317.629,216.133,317.133,216.133z M344.751,212.342c-0.495,0-0.897,0.44-0.897,0.982c0,0.542,0.401,0.982,0.897,0.982c0.495,0,0.897-0.44,0.897-0.982C345.648,212.782,345.246,212.342,344.751,212.342z M344.568,215.422c-0.495,0-0.897,0.44-0.897,0.982s0.402,0.982,0.897,0.982s0.897-0.44,0.897-0.982S345.063,215.422,344.568,215.422z M356.817,215.017c0.495,0,0.897-0.44,0.897-0.982c0-0.542-0.402-0.982-0.897-0.982c-0.495,0-0.897,0.44-0.897,0.982C355.92,214.577,356.322,215.017,356.817,215.017z M356.634,216.133c-0.495,0-0.897,0.44-0.897,0.982s0.402,0.982,0.897,0.982s0.897-0.44,0.897-0.982S357.129,216.133,356.634,216.133z" />
    </g>
  </g>
</svg>
