<svg xmlns="http://www.w3.org/2000/svg" width="450px" height="300px" viewBox="0 0 450 300">
  <path fill="#FFFFFF" d="M0,0h450v300H0V0z" />
  <path fill="#D81921" d="M210.177,0v135.027H0v29.947h210.177V300h29.646V164.973H450v-29.947H239.823V0H210.177L210.177,0z" />
  <path fill="#000000" d="M119.202,52.995c0.013,0,1.329-0.054,3.835-0.054c2.701,0,4.649-0.538,6.722-1.858c2.478-1.577,5.597-1.742,8.597-1.688c0.269,0.005,0.482,0.227,0.477,0.495c-0.005,0.269-0.237,0.478-0.495,0.477c-2.849-0.053-5.796,0.097-8.057,1.536c-2.244,1.428-4.342,2.01-7.245,2.01c-2.483,0-3.781,0.053-3.794,0.053c-0.007,0-0.014,0-0.021,0c-0.259,0-0.474-0.204-0.485-0.466C118.725,53.233,118.934,53.006,119.202,52.995z M87.788,62.685c0.105,0.153,0.226,0.21,0.355,0.21c0.187,0,0.392-0.119,0.593-0.237c4.364-2.549,6.809-2.731,8.093-2.435l0.108,0.012c1.54,0,1.874-0.049,3.266-1.594c1.432-1.59,2.906-2.641,4.781-3.409c2.124-0.87,5.876-2.299,5.914-2.314l-0.342-0.898c-0.038,0.014-3.8,1.448-5.936,2.323c-1.988,0.815-3.618,1.977-5.13,3.655c-1.134,1.259-1.226,1.276-2.498,1.276c-1.067-0.233-2.346-0.128-3.827,0.31c0.553-0.306,1.168-0.661,1.99-1.193c2.015-1.304,2.85-1.844,7.666-3.708l-0.347-0.896c-4.908,1.9-5.767,2.456-7.841,3.798c-1.069,0.692-1.782,1.079-2.471,1.453c-0.632,0.343-1.23,0.667-2.054,1.195c-1.195,0.719-1.96,1.534-2.12,1.711C87.843,62.063,87.55,62.34,87.788,62.685z M60.564,34.013c0.021-0.018,2.054-1.818,2.798-1.176c0.118,0.102,0.35,0.387,0.052,0.885c-0.452,1.52,0.431,2.747,0.607,2.911l0.18,0.196c0.735,0.062,1.526,0.13,2.338,0.202c0.903,0.079,1.755,0.155,1.88,0.155l0.281,0.018l0.142,0.229c0.984,1.578,1.966,2.234,2.613,2.505c0.774,0.315,1.753-0.104,2.045-0.663c0.334-0.639-0.343-1.205-0.773-1.484c-0.35-0.223-1.159-0.282-1.941-0.338c-1.55-0.112-3.671-0.265-3.604-2.123c0.032-0.578,0.264-1.05,0.689-1.404c0.566-0.472,1.404-0.649,2.255-0.684c-0.048-0.565-0.026-1.487,0.112-3.003l0.018-0.201c-0.244-0.589-0.308-1.404,0.334-2.374c0.52-0.78,1.927-0.952,4.564-0.556l0.383,0.057l0.03,0.386c0.046,0.593,0.014,3.169-0.01,3.543l-0.035,0.969c0.206,0.07,0.409,0.14,0.602,0.207c0.883,0.308,1.716,0.598,2.258,0.618c0.76,0,2.19,0.365,2.796,1.346c0.249,0.402,0.452,1.067,0.001,1.969c-0.239,0.43-0.513,0.781-0.817,1.059l-3.748,12.971c-0.02,0.087-1.914,8.699,3.928,11.007c1.764,0.118,2.432-0.114,2.432-0.114l0.3-0.12c0.101-0.131,0.201-0.308,0.277-0.518c0.125-0.346,0.098-0.543,0.09-0.566c0,0-0.053-0.009-0.183,0.056c-0.835,0.417-2.219,0.354-2.509-0.116c-0.049-0.08-0.18-0.36,0.193-0.64c0.414-0.311,0.94-2.111,1.221-3.351c-0.333-0.014-0.896-0.055-1.466-0.169c-0.891-0.178-1.759-0.696-1.796-0.717l-0.226-0.135l0.153-0.214c0.008-0.012,0.866-1.213,1.377-1.895c0.126-0.169,0.127-0.233,0.128-0.233c-0.045-0.076-0.398-0.178-0.655-0.252c-0.169-0.049-0.357-0.103-0.558-0.17c-0.836-0.279-0.988-0.473-1.028-0.641c-0.014-0.058-0.01-0.112,0.004-0.158c0.013-0.238,0.119-1.191,1.01-1.548c0.551-0.22,0.682-1.182,0.787-1.954c0.03-0.224,0.059-0.436,0.096-0.617c0.125-0.624,0.156-0.969,0.164-1.097l-0.921-1.659l0.148-0.13c0.014-0.012,1.377-1.205,2.05-1.879c0.452-0.451,0.752-0.828,0.898-1.023l-1.416-1.77l0.201-0.151c0.03-0.023,0.747-0.553,1.825-0.733c0.733-0.122,1.796-1.613,2.649-2.811c0.211-0.297,0.415-0.583,0.608-0.841c0.464-1.497,1.702-2.08,2.278-2.276l-0.635-1.27l0.124-0.124c0.024-0.024,0.594-0.578,2.207-0.757c1.142-0.127,1.983-0.525,2.873-0.945c0.276-0.13,0.552-0.261,0.838-0.384c1.051-0.45,3.098-1.166,3.657-1.36l0.181-1.265h2.788c1.191,0,2.698-0.84,2.936-0.978c0.172-0.193,1.041-1.093,1.966-0.724c0.405,0.162,1.484-0.073,2.627-0.322c1.023-0.223,2.182-0.475,3.28-0.553c1.849-0.132,3.136,0.297,3.702,0.505c-0.004-1.242,0.076-1.937,0.473-2.052c0.342-0.1,0.593,0.306,0.688,0.458c0.803,1.285,3.306,2.128,4.468,2.294c1.041,0.149,2.186,0.541,2.528,0.664l1.789-0.894l1.984,2.164c0.342,0.17,2.781,1.371,3.871,1.682c0.952,0.272,1.887,1.288,2.389,1.834c0.086,0.093,0.181,0.197,0.237,0.251l1.701-0.039l-0.027,0.274c-0.062,0.62-0.042,1.722,0.279,2.044c0.812,0.869,2.163,2.802,2.129,4.586c0.479,1.064,1.398,1.37,1.894,1.536c0.43,0.143,0.693,1.008,0.812,1.511c0.08,0.339,0.314,1.47-0.029,1.813c-0.042,0.042-0.084,0.174-0.061,0.404c0.043,0.437,0.29,0.947,0.539,1.113c0.601,0.401,0.796,1.351,0.796,1.749c0,0.283,0,1.146,0.146,1.438c0.184,0.368,0.413,2.228-0.218,2.859c-0.337,0.337,0.129,1.877,0.407,2.797c0.061,0.202,0.119,0.395,0.17,0.573c0.344,1.202,0.545,3.005-0.016,4.128c-0.493,0.987-0.465,1.401,0.157,2.334c0.708,1.061,4.609,8.516,5.272,10.008c0.58,1.381,1.082,2.93,0.414,3.938c-0.441,0.665-1.306,0.991-2.63,0.995c-0.173,0.012-1.211,0.027-1.836,0.023c-0.001,0.04-0.002,0.079-0.003,0.118c-0.018,0.763-0.034,1.422,0.626,2.217c1.591,0.854,1.764,1.847,1.627,2.534c-0.196,0.983-1.13,1.806-1.846,2.061c0.444,0.93,0.885,3.139,0.253,3.885l-0.034,0.04l-0.048,0.023c-0.601,0.28-2.597,0.252-3.15,0.237c-0.988,1.226-0.685,2.8-0.393,4.324c0.155,0.805,0.3,1.565,0.24,2.231c-0.112,1.233-0.706,2.239-1.764,2.99c-3.114,2.211-9.647,1.738-13.232,0.894c-0.608,3.259-3.234,5.257-5.731,6.778c-3.945,2.667-5.069,8.823-5.254,10.03l-0.024,0.155l-0.152,0.042c-1.414,0.39-2.733,0.564-3.966,0.564c-6.506,0-10.593-4.842-13.451-8.228c-0.48-0.569-0.933-1.106-1.356-1.572c-0.871-0.958-1.628-1.956-2.431-3.013c-2.38-3.137-4.841-6.38-10.614-9.05l-0.561-0.388l0.002-0.128c0.003-0.216,0.195-0.41,0.66-0.878c1.388-1.399,5.069-5.106,6.829-13.683c-0.201-0.063-0.696-0.105-1.038-0.135c-0.865-0.074-1.455-0.124-1.5-0.481c-0.071-0.187-0.041-0.601,1.667-2.309c0.464-0.464,0.569-0.798,0.588-0.971l-3.353-0.176l0.072-0.286c0.016-0.065,0.405-1.6,1.108-2.654c0.199-0.298,0.204-0.904,0.014-1.62c-0.139-0.52-0.36-1.028-0.618-1.477c-0.014,0.012-0.025,0.028-0.04,0.04c-0.165,0.124-0.373,0.186-0.596,0.186c-0.083,0-0.167-0.012-0.253-0.029c0.066,0.085,0.353,0.466,0.353,0.466l-0.168,0.28c-0.742,1.237-1.65,2.955-2.086,5.28c-0.394,2.103-1.597,5.768-5.215,6.678c-2.992,0.831-4.661,1.985-5.102,3.53c-0.316,1.103-0.632,2.552-0.941,4.305c-0.002,0.007-0.004,0.018-0.005,0.026c1.72,2.2,3.894,4.11,8.891,6.046l0.096,0.037l0.339,0.339l-0.178,0.321c-1.055,1.898-1.716,4.085-2.221,6.255l6.201,5.569l0.021,0.183c0.093,0.807-0.492,2.534-1.479,3.722c-0.708,0.852-1.544,1.334-2.414,1.393c-0.1,0.007-0.199,0.01-0.297,0.01c-1.996,0-3.522-1.42-4.048-3.777l-0.247-0.469c-1.332-2.531-3.386-4.64-6.463-6.639l-0.208-0.135l-0.013-0.248c-0.165-3.242-0.953-7.052-1.682-8.147c-3.99-5.812-1.735-9.381-1.275-10.002l0.004-0.072c0.045-0.765,0.074-2.614,0.074-4.717c0.048-3.356,2.544-4.289,4.747-5.111l0.218-0.082c1.499-0.562,4.617-1.731,5.319-2.995c0.338-0.608,0.927-1.434,1.569-2.235c-0.338,0.079-0.667,0.113-0.989,0.113c-1.153,0-2.225-0.441-3.326-0.894c-2.309-0.951-2.539-1.079-3.645-1.695l-0.227-0.126c-1.542-0.857-3.314-5.128-3.505-6.234c-0.717-3.851-3.402-10.936-7.982-21.058l-0.252-0.682C59.396,36.201,59.126,35.313,60.564,34.013z M74.615,28.013c-2.693-0.357-3.147,0.092-3.211,0.189c-0.421,0.636-0.457,1.181-0.114,1.715c0.105,0.163,0.242,0.316,0.397,0.458c0.093,0.06,0.182,0.127,0.263,0.188c0.141,0.107,0.308,0.233,0.504,0.361c0.76,0.432,1.637,0.696,2.111,0.761l0.023-0.634l0.001-0.016C74.606,30.794,74.632,28.919,74.615,28.013z M79.947,36.298c-0.26-0.432-1.144-1.126-1.61-1.282l0.154-0.462c0.45,0.15,1.316,0.754,1.751,1.324c0.026-0.044,0.053-0.084,0.079-0.13c0.196-0.393,0.207-0.721,0.032-1.004c-0.357-0.577-1.373-0.885-1.986-0.885c-0.706-0.025-1.565-0.324-2.56-0.671c-0.678-0.237-1.38-0.481-2.096-0.66c-0.744-0.186-1.315-0.483-1.746-0.762c-0.255-0.147-0.498-0.313-0.722-0.495l-0.107,0.108c-0.041,0.734-0.061,1.488-0.03,1.861c0.069,0.011,0.136,0.021,0.204,0.033c0.156,0.014,0.309,0.03,0.456,0.048c0.33,0.041,0.683,0.16,1.039,0.327c0.731,0.273,1.441,0.711,2.221,1.491c0.327,0.327,1.19,1.131,2.17,1.581c0.518,0.201,1.019,0.295,1.441,0.306c0.033-0.003,0.067-0.002,0.1-0.007c0.1-0.014,0.197-0.039,0.292-0.07c-0.27-0.432-1.14-1.115-1.601-1.268l0.154-0.462c0.501,0.167,1.523,0.898,1.883,1.52C79.634,36.625,79.796,36.478,79.947,36.298z M129.276,63.053c0.07,0.674,0.847,0.894,1.923,1.197c1.046,0.295,2.479,0.7,3.131,1.525l0.859-0.678c-0.911-1.144-2.574-1.582-3.816-1.936c1.002-0.302,1.918-0.685,2.752-1.142c-0.067,0.911,0.22,2.039,1.176,2.208c-0.019,0.058,0.146,0.003,0.199,0.026c0.341-0.067,0.712-0.256,0.931-0.642c0.472-0.838,0.487-2.342-0.288-2.994c0.603-0.524,1.145-1.1,1.61-1.74l-0.885-0.642c-1.534,2.115-3.943,3.536-7.161,4.225l-0.48,0.103L129.276,63.053z M89.071,64.508c-0.109-0.181-0.098-0.44,0.106-0.574c0.323-0.227,0.688-0.527,0.9-0.82c0.27-0.034,0.552-0.101,0.776-0.173c0.606-0.234,1.619-0.173,2.316-0.319c1.377-0.197,2.358-0.478,3.919-0.423c0.81-0.09,0.788,0.965-0.013,0.851c-0.412-0.008-1.367-0.02-1.745,0.109c-0.707,0.065-1.379,0.213-2.033,0.305c-0.415,0.063-0.844,0.128-1.332,0.14c-0.606,0.005-0.873,0.194-1.438,0.299c-0.297,0.32-0.723,0.63-0.859,0.727c-0.026,0.018-0.055,0.03-0.084,0.041c0.544,0.154,1.752,0.391,2.592,0.485c1.288,0.143,3.436,0.143,4.295-0.716s2.863-0.716,2.863-0.716s1.432,2.72,2.577,3.15c2.22,0.913,3.203,4.384,4.295,5.726c1.307,1.933,3.901,1.862,5.011,0.286c1.002-1.145,0.054-1.27-2.112,0.144c-1.575,0.232-3.041-2.577-3.614-4.152s-1.288-2.291-2.72-2.863c-1.432-0.573-2.863-3.436-2.434-5.297c4.008-8.303,11.22-1.539,11.774-0.251c1.038,0.214,8.089-2.129,7.552-2.183l-3.15-0.859c-0.859,0,4.438-0.286,5.87-0.286s4.295-0.429,5.583-1.145s8.446-3.293,10.737-4.152s1.861-2.863,1.432-4.008c0.859-0.143-2.72,0.286-2.72,0.286s1.575-0.859,2.291-1.288c0.931-0.269,0.429-1.575,0-2.434c-0.429-0.859-2.72-0.143-2.72-0.143s0.573-0.43,1.861-1.575c1.002-0.859,0-2.291-1.145-3.15s-0.917-1.053-1.544-1.68c-6.123,1.676-13.774,5.688-15.492,6.69c-4.009,1.933-3.239,2.416-0.805,2.058c1.432-0.143,13.767-3.725,11.62-3.009c-2.846,1.737-14.25,4.53-15.968,4.53s-3.006,0-4.581,0.573c-1.575,0.573-4.653,1.808-6.228,2.094c-1.575,0.286,1.647,0.34,1.647,0.34s-2.147,1.145-3.865,1.288c-1.718,0.143-7.874,3.579-8.733,4.724s-4.867,3.006-6.299,4.152s-1.718,3.436-0.859,3.293C87.127,64.493,88.376,64.494,89.071,64.508z M104.261,59.645c1.712-0.74,5.22,1.223,5.991,2.441c0.128,0.207,0.531,0.26,0.763,0.008c0.253-0.305-0.031-0.788-0.125-0.947c-1.099-1.591-4.554-3.39-6.974-2.51c-1.099,0.452-2.229,1.752-1.369,5.376c0.174,0.515,0.808,0.61,1.091,0.18c0.15-0.232,0.136-0.546-0.036-0.865C103.234,61.928,103.056,60.165,104.261,59.645z M108.622,68.43c-0.035-0.225-0.089-0.452-0.127-0.682c-0.054-0.495-0.162-1.26-0.501-1.583c-0.179-0.246-0.381-0.271-0.523-0.473l-0.137-0.066c-0.318-0.232-0.689-0.402-0.95-0.744c-0.11-0.116-0.207-0.228-0.262-0.367c-0.007-0.083,0.051-0.281,0.08-0.415c0.065-0.098,0.163-0.347,0.311-0.394c0.332-0.051,0.57-0.358,0.525-0.691c-0.162-0.715-0.904-0.666-1.48-0.142c-0.241,0.296-0.501,0.639-0.575,1.036c-0.067,0.26-0.145,0.626-0.042,0.964c0.355,0.991,1.305,1.482,2.09,2.059c0.029,0.042,0.074,0.093,0.099,0.134l0.028,0.172c0.061,0.177,0.089,0.462,0.118,0.689c0.052,0.33,0.128,0.608,0.158,0.924c0.208,0.413,0.494,0.682,0.964,0.804c0.304,0.067,0.631,0.072,0.888,0.073h0.247c0.226-0.244,0.518-0.408,0.747-0.664l0.153-0.174v-0.636c0-0.339-0.275-0.615-0.615-0.615c-0.402-0.004-0.663,0.367-0.615,0.749C109.064,68.553,108.803,68.493,108.622,68.43z M86.379,66.834c0.098-0.073,0.141-0.184,0.123-0.312c-0.043-0.3-0.387-0.599-0.896-0.791c-0.795-0.212-1.14-0.858-0.972-1.818c0.002-0.012,0.199-0.906,0.479-1.27c0.156-0.434,0.126-0.615,0.088-0.65c-0.018-0.017-0.202-0.149-1.172,0.29c-0.794,0.485-0.879,1.225-0.809,1.76c0.157,1.212,1.192,2.402,2.439,2.778C85.947,66.95,86.217,66.955,86.379,66.834z M78.685,108.427l-0.003-0.023c0.65-0.084,2.089-1.259,2.397-1.669c0.253-0.336,0.301-0.495,0.303-0.495c0,0,0,0,0,0.001l0.576,0.074c-0.01,0.08-0.071,0.313-0.415,0.77c-0.351,0.467-1.769,1.648-2.645,1.866c0.084,0.177,0.183,0.358,0.299,0.534l-0.017-0.07c0.735-0.178,2.296-1.474,2.645-1.915c0.336-0.425,0.413-0.548,0.415-0.55l0.496,0.302c-0.014,0.022-0.1,0.158-0.456,0.608c-0.368,0.466-1.824,1.702-2.756,2.053c0.107,0.12,0.227,0.231,0.356,0.334c0.825-0.253,2.323-1.38,2.682-1.801l0.423-0.496l0.5,0.427l-0.423,0.496c-0.305,0.357-1.473,1.303-2.465,1.788c0.356,0.136,0.767,0.207,1.246,0.176c0.757-0.052,1.36-0.597,1.733-1.045c0.787-0.947,1.222-2.242,1.262-2.823l-5.394-4.844l-0.941,5.67C78.542,107.961,78.599,108.181,78.685,108.427z M69.759,91.858c0.888,1.332,1.65,5.351,1.834,8.394c0.224,0.148,0.437,0.3,0.652,0.45c-0.012-0.253-0.015-0.518-0.015-0.781c0-0.138,0.004-0.299,0.007-0.455c0.005-0.212,0.011-0.503,0.005-0.554l-0.109-0.386h0.511l0.182,0.221c0.029,0.103,0.028,0.272,0.018,0.732c-0.004,0.152-0.007,0.308-0.007,0.442c0,0.429,0.006,0.899,0.058,1.253c0.183,0.137,0.37,0.274,0.546,0.413c0.002-0.035,0.003-0.07,0.003-0.108c0-0.477,0.1-1.753,0.111-2.106l0.608,0.009l-0.008,0.221c-0.01,0.218-0.093,1.849-0.131,2.47c0.141,0.119,0.279,0.239,0.415,0.36c0-0.005,0-0.008,0-0.012c0.015-0.502,0.066-0.911,0.115-1.306c0.042-0.335,0.085-0.682,0.105-1.084l0.607,0.03c-0.021,0.425-0.066,0.783-0.109,1.129c-0.05,0.399-0.097,0.776-0.111,1.24c0,0.216,0.023,0.323,0.048,0.447c0.012,0.06,0.026,0.125,0.037,0.203c0.234,0.23,0.46,0.462,0.676,0.698c-0.022-0.159-0.039-0.336-0.045-0.55c0-0.439,0.029-0.754,0.058-1.059c0.022-0.234,0.044-0.469,0.056-0.801c0.046-0.29,0.073-0.495,0.088-0.614c0.016-0.121,0.045-0.41,0.34-0.387c0.236,0.016,0.278,0.214,0.285,0.351l0.001,0.139c0,0-0.07,0.324-0.11,0.567c-0.009,0.309-0.032,0.556-0.055,0.802c-0.029,0.305-0.056,0.593-0.056,0.994c0.011,0.371,0.059,0.619,0.111,0.883c0.034,0.177,0.069,0.359,0.092,0.575c0.19,0.238,0.373,0.48,0.546,0.724c-0.14-0.44-0.216-0.949-0.253-1.273l0.002-1.578c0.05-0.462,0.109-1.223,0.109-1.402h0.608c0,0.219-0.063,1.012-0.111,1.435l-0.002,1.509c0.053,0.446,0.137,0.846,0.235,1.145c0.072-0.361,0.144-0.728,0.218-1.104c0.596-3.057,1.269-6.501,2.772-9.435c-6.392-2.572-8.232-5.234-10.354-8.305c-0.651-0.943-1.322-1.914-2.165-2.951C67.602,84.557,66.732,87.447,69.759,91.858z M78.891,69.896c-0.727,1.308-2.855,2.319-5.828,3.433l-0.219,0.082c-2.187,0.817-4.076,1.523-4.115,4.207c0,1.972-0.026,3.733-0.066,4.596l0.919,1.301c-0.001-0.03-0.003-0.056-0.003-0.088c-0.169-0.516-0.063-1.182-0.012-1.508l0.014-0.092l0.602,0.081l-0.016,0.107c-0.042,0.264-0.14,0.882,0,1.253l0.019,0.107c0,0.381,0.037,0.582,0.089,0.862l0.013,0.279l0.176,0.249c-0.001-0.055-0.003-0.109-0.003-0.167l0.029-0.422c0.042-0.595,0.081-1.157,0.081-1.803l0.003-0.044c0.046-0.312,0.073-0.533,0.088-0.66c0.016-0.135,0.042-0.414,0.339-0.399c0.237,0.014,0.279,0.21,0.286,0.355l0.001,0.15c0,0-0.069,0.338-0.11,0.621c-0.001,0.658-0.04,1.225-0.082,1.824l-0.028,0.4c0,0.391,0.03,0.71,0.062,1.046c0.002,0.017,0.003,0.033,0.005,0.05l0.385,0.545c-0.003-0.033-0.005-0.067-0.007-0.101c-0.028-0.37-0.058-0.753-0.058-1.198c0.012-0.409,0.063-0.724,0.113-1.028c0.043-0.267,0.088-0.544,0.112-0.925c0.04-0.25,0.066-0.434,0.082-0.55c0.023-0.162,0.071-0.435,0.347-0.412c0.218,0.016,0.27,0.177,0.282,0.327l0.003,0.274c0,0-0.083,0.26-0.111,0.427c-0.022,0.382-0.07,0.674-0.115,0.956c-0.049,0.299-0.095,0.58-0.105,0.94c0,0.268,0.013,0.512,0.029,0.753c0.19-0.907,0.382-1.704,0.575-2.377c0.542-1.897,2.432-3.271,5.789-4.203c3.103-0.781,4.157-4.043,4.508-5.917c0.431-2.3,1.29-4.032,2.038-5.314c-0.146-0.185-0.308-0.378-0.477-0.57c-0.531,2.122-1.908,5.335-2.973,6.471l-1.14,1.216l-0.355-0.332l1.14-1.216c1.044-1.114,2.486-4.546,2.93-6.572c-0.176-0.184-0.355-0.36-0.53-0.52c-0.146,0.197-0.285,0.376-0.413,0.542c-0.545,0.701-0.905,1.165-1.116,2.061l-0.304,1.291l-0.474-0.111l0.304-1.292c0.236-1,0.643-1.523,1.205-2.248c0.131-0.169,0.275-0.358,0.425-0.559c-0.158-0.123-0.309-0.225-0.446-0.299c-0.057,0.067-0.116,0.137-0.17,0.2c-0.58,0.675-0.963,1.121-1.146,2.095l-0.228,1.216l-0.478-0.09l0.228-1.216c0.163-0.869,0.473-1.371,0.894-1.892C80.861,67.104,79.464,68.867,78.891,69.896z M68.876,58.182c0.185,1.073,1.925,4.947,3.019,5.555l0.228,0.127c1.065,0.593,1.286,0.717,3.542,1.645c2.328,0.958,3.876,1.596,6.467-1.018l0.111-0.613c-0.814,0.215-2.022,0.372-3.226,0.372c-1.184,0-2.357-0.151-3.124-0.547l-1.594-0.823l0.223-0.432l1.594,0.823c1.414,0.729,4.693,0.564,6.223,0.076l0.051-0.279c-0.318,0.042-0.707,0.065-1.138,0.065c-1.731,0-4.135-0.359-5.301-1.218l-1.444-1.064l0.288-0.392l1.444,1.064c1.31,0.965,4.701,1.311,6.243,1.037l0.067-0.369c-0.467,0.054-1.163,0.084-2.149,0.014L80.328,62.2l-0.068-0.026c-6.713-2.572-4.616-12.063-4.588-12.185l3.47-12.01c-0.17,0.021-0.632,0.032-0.679,0.032c-0.6,0-1.193-0.179-1.743-0.439c-0.68-0.283-1.353-0.702-1.927-1.276c-0.553-0.553-1.5-1.33-2.344-1.74c-0.387-0.144-0.787-0.235-1.229-0.31c-1.276-0.11-2.259,0.04-2.726,0.43c-0.215,0.179-0.323,0.406-0.34,0.702c-0.028,0.78,0.812,0.972,2.703,1.109c0.944,0.069,1.836,0.133,2.397,0.49c1.766,1.145,1.295,2.396,1.109,2.752c-0.09,0.172-0.207,0.329-0.342,0.471c-1.119,2.634-0.745,9.885-0.485,10.705l0.286,0.905l-0.61,0.193l-0.286-0.905c-0.258-0.817-0.643-7.026,0.225-10.303c-0.646,0.272-1.409,0.313-2.066,0.045c-0.75-0.314-1.854-1.033-2.941-2.693c-0.307-0.023-0.849-0.07-1.69-0.144c-1.599-0.141-4.053-0.358-5.321-0.413C65.557,47.412,68.16,54.337,68.876,58.182z M60.452,36.003c0.689,0.495,1.75,0.676,2.436,0.707c-0.379-0.657-0.709-1.665-0.512-2.802c-0.639,0.359-1.567,1.052-1.868,1.697C60.408,35.819,60.424,35.937,60.452,36.003z M68.429,45.607l-0.335,1.146l0.467,0.137l0.335-1.146c0.341-1.167,0.292-3.019,0.176-3.98l-0.483,0.058C68.701,42.743,68.75,44.511,68.429,45.607z M66.228,38.657l-0.16,0.459c0.652,0.227,1.525,0.707,1.783,1.06l0.307,0.419l0.392-0.287l-0.307-0.419C67.884,39.398,66.849,38.873,66.228,38.657z M358.152,52.995c0.013,0,1.329-0.054,3.835-0.054c2.701,0,4.649-0.538,6.722-1.858c2.478-1.577,5.597-1.742,8.597-1.688c0.269,0.005,0.482,0.227,0.477,0.495c-0.005,0.269-0.237,0.478-0.495,0.477c-2.849-0.053-5.796,0.097-8.057,1.536c-2.244,1.428-4.342,2.01-7.245,2.01c-2.483,0-3.781,0.053-3.794,0.053c-0.007,0-0.014,0-0.021,0c-0.259,0-0.474-0.204-0.485-0.466C357.675,53.233,357.884,53.006,358.152,52.995z M326.738,62.685c0.105,0.153,0.226,0.21,0.355,0.21c0.187,0,0.392-0.119,0.593-0.237c4.364-2.549,6.809-2.731,8.093-2.435l0.108,0.012c1.54,0,1.874-0.049,3.266-1.594c1.432-1.59,2.906-2.641,4.781-3.409c2.124-0.87,5.876-2.299,5.914-2.314l-0.342-0.898c-0.038,0.014-3.8,1.448-5.936,2.323c-1.988,0.815-3.618,1.977-5.13,3.655c-1.134,1.259-1.226,1.276-2.498,1.276c-1.067-0.233-2.346-0.128-3.827,0.31c0.553-0.306,1.168-0.661,1.99-1.193c2.015-1.304,2.85-1.844,7.666-3.708l-0.347-0.896c-4.908,1.9-5.767,2.456-7.841,3.798c-1.069,0.692-1.782,1.079-2.471,1.453c-0.632,0.343-1.23,0.667-2.054,1.195c-1.195,0.719-1.96,1.534-2.12,1.711C326.793,62.063,326.5,62.34,326.738,62.685z M299.514,34.013c0.021-0.018,2.054-1.818,2.798-1.176c0.118,0.102,0.35,0.387,0.052,0.885c-0.452,1.52,0.431,2.747,0.607,2.911l0.18,0.196c0.735,0.062,1.526,0.13,2.338,0.202c0.903,0.079,1.755,0.155,1.88,0.155l0.281,0.018l0.142,0.229c0.984,1.578,1.966,2.234,2.613,2.505c0.774,0.315,1.753-0.104,2.045-0.663c0.334-0.639-0.343-1.205-0.773-1.484c-0.35-0.223-1.159-0.282-1.941-0.338c-1.55-0.112-3.671-0.265-3.604-2.123c0.032-0.578,0.264-1.05,0.689-1.404c0.566-0.472,1.404-0.649,2.255-0.684c-0.048-0.565-0.026-1.487,0.112-3.003l0.018-0.201c-0.244-0.589-0.308-1.404,0.334-2.374c0.52-0.78,1.927-0.952,4.564-0.556l0.383,0.057l0.03,0.386c0.046,0.593,0.014,3.169-0.01,3.543l-0.035,0.969c0.206,0.07,0.409,0.14,0.602,0.207c0.883,0.308,1.716,0.598,2.258,0.618c0.76,0,2.19,0.365,2.796,1.346c0.249,0.402,0.452,1.067,0.001,1.969c-0.239,0.43-0.513,0.781-0.817,1.059l-3.747,12.971c-0.02,0.087-1.914,8.699,3.928,11.007c1.764,0.118,2.432-0.114,2.432-0.114l0.3-0.12c0.101-0.131,0.201-0.308,0.277-0.518c0.125-0.346,0.098-0.543,0.09-0.566c0,0-0.053-0.009-0.183,0.056c-0.835,0.417-2.219,0.354-2.509-0.116c-0.049-0.08-0.18-0.36,0.193-0.64c0.414-0.311,0.94-2.111,1.221-3.351c-0.333-0.014-0.896-0.055-1.466-0.169c-0.891-0.178-1.759-0.696-1.796-0.717l-0.226-0.135l0.153-0.214c0.008-0.012,0.866-1.213,1.377-1.895c0.126-0.169,0.127-0.233,0.128-0.233c-0.045-0.076-0.398-0.178-0.655-0.252c-0.169-0.049-0.357-0.103-0.558-0.17c-0.836-0.279-0.988-0.473-1.028-0.641c-0.014-0.058-0.01-0.112,0.004-0.158c0.013-0.238,0.119-1.191,1.01-1.548c0.551-0.22,0.682-1.182,0.787-1.954c0.03-0.224,0.059-0.436,0.096-0.617c0.125-0.624,0.156-0.969,0.164-1.097l-0.921-1.659l0.148-0.13c0.014-0.012,1.377-1.205,2.05-1.879c0.452-0.451,0.752-0.828,0.898-1.023l-1.416-1.77l0.201-0.151c0.03-0.023,0.747-0.553,1.825-0.733c0.733-0.122,1.796-1.613,2.649-2.811c0.211-0.297,0.415-0.583,0.608-0.841c0.464-1.497,1.702-2.08,2.278-2.276l-0.635-1.27l0.124-0.124c0.024-0.024,0.594-0.578,2.207-0.757c1.142-0.127,1.983-0.525,2.873-0.945c0.276-0.13,0.552-0.261,0.838-0.384c1.051-0.45,3.098-1.166,3.657-1.36l0.181-1.265h2.788c1.191,0,2.698-0.84,2.936-0.978c0.172-0.193,1.041-1.093,1.966-0.724c0.405,0.162,1.484-0.073,2.627-0.322c1.023-0.223,2.182-0.475,3.28-0.553c1.849-0.132,3.136,0.297,3.702,0.505c-0.004-1.242,0.076-1.937,0.473-2.052c0.342-0.1,0.593,0.306,0.688,0.458c0.803,1.285,3.306,2.128,4.468,2.294c1.041,0.149,2.186,0.541,2.528,0.664l1.789-0.894l1.984,2.164c0.342,0.17,2.781,1.371,3.871,1.682c0.952,0.272,1.887,1.288,2.389,1.834c0.086,0.093,0.181,0.197,0.237,0.251l1.701-0.039l-0.027,0.274c-0.062,0.62-0.042,1.722,0.279,2.044c0.812,0.869,2.163,2.802,2.129,4.586c0.479,1.064,1.398,1.37,1.894,1.536c0.43,0.143,0.693,1.008,0.812,1.511c0.08,0.339,0.314,1.47-0.029,1.813c-0.042,0.042-0.084,0.174-0.061,0.404c0.043,0.437,0.29,0.947,0.539,1.113c0.601,0.401,0.796,1.351,0.796,1.749c0,0.283,0,1.146,0.146,1.438c0.184,0.368,0.413,2.228-0.218,2.859c-0.337,0.337,0.129,1.877,0.407,2.797c0.061,0.202,0.12,0.395,0.17,0.573c0.344,1.202,0.545,3.005-0.016,4.128c-0.493,0.987-0.465,1.401,0.157,2.334c0.708,1.061,4.609,8.516,5.272,10.008c0.58,1.381,1.082,2.93,0.414,3.938c-0.441,0.665-1.306,0.991-2.63,0.995c-0.173,0.012-1.211,0.027-1.836,0.023c-0.001,0.04-0.002,0.079-0.003,0.118c-0.018,0.763-0.034,1.422,0.626,2.217c1.591,0.854,1.764,1.847,1.627,2.534c-0.196,0.983-1.13,1.806-1.846,2.061c0.444,0.93,0.885,3.139,0.253,3.885l-0.034,0.04l-0.048,0.023c-0.601,0.28-2.597,0.252-3.15,0.237c-0.988,1.226-0.685,2.8-0.393,4.324c0.155,0.805,0.3,1.565,0.24,2.231c-0.112,1.233-0.706,2.239-1.764,2.99c-3.114,2.211-9.647,1.738-13.232,0.894c-0.608,3.259-3.234,5.257-5.731,6.778c-3.945,2.667-5.069,8.823-5.254,10.03l-0.024,0.155l-0.152,0.042c-1.414,0.39-2.733,0.564-3.966,0.564c-6.506,0-10.593-4.842-13.451-8.228c-0.48-0.569-0.933-1.106-1.356-1.572c-0.871-0.958-1.628-1.956-2.431-3.013c-2.38-3.137-4.841-6.38-10.614-9.05l-0.561-0.388l0.002-0.128c0.003-0.216,0.195-0.41,0.66-0.878c1.388-1.399,5.069-5.106,6.829-13.683c-0.201-0.063-0.696-0.105-1.038-0.135c-0.865-0.074-1.455-0.124-1.5-0.481c-0.071-0.187-0.041-0.601,1.667-2.309c0.464-0.464,0.569-0.798,0.588-0.971l-3.353-0.176l0.072-0.286c0.016-0.065,0.405-1.6,1.108-2.654c0.199-0.298,0.204-0.904,0.014-1.62c-0.139-0.52-0.36-1.028-0.618-1.477c-0.014,0.012-0.025,0.028-0.04,0.04c-0.165,0.124-0.373,0.186-0.596,0.186c-0.082,0-0.167-0.012-0.253-0.029c0.066,0.085,0.353,0.466,0.353,0.466l-0.168,0.28c-0.742,1.237-1.65,2.955-2.086,5.28c-0.394,2.103-1.597,5.768-5.215,6.678c-2.992,0.831-4.661,1.985-5.102,3.53c-0.316,1.103-0.632,2.552-0.941,4.305c-0.002,0.007-0.004,0.018-0.005,0.026c1.72,2.2,3.894,4.11,8.891,6.046l0.096,0.037l0.339,0.339l-0.178,0.321c-1.055,1.898-1.716,4.085-2.221,6.255l6.201,5.569l0.021,0.183c0.093,0.807-0.492,2.534-1.479,3.722c-0.708,0.852-1.544,1.334-2.414,1.393c-0.1,0.007-0.199,0.01-0.297,0.01c-1.996,0-3.522-1.42-4.048-3.777l-0.247-0.469c-1.332-2.531-3.386-4.64-6.463-6.639l-0.208-0.135l-0.013-0.248c-0.165-3.242-0.953-7.052-1.682-8.147c-3.988-5.813-1.733-9.382-1.273-10.002l0.004-0.072c0.045-0.765,0.074-2.614,0.074-4.717c0.048-3.356,2.544-4.289,4.747-5.111l0.218-0.082c1.499-0.562,4.617-1.731,5.319-2.995c0.338-0.608,0.927-1.434,1.569-2.235c-0.338,0.079-0.667,0.113-0.989,0.113c-1.153,0-2.225-0.441-3.326-0.894c-2.309-0.951-2.539-1.079-3.645-1.695l-0.227-0.126c-1.542-0.857-3.314-5.128-3.505-6.234c-0.717-3.851-3.402-10.936-7.982-21.058l-0.252-0.682C298.346,36.201,298.077,35.313,299.514,34.013z M313.565,28.013c-2.693-0.357-3.147,0.092-3.211,0.189c-0.421,0.636-0.457,1.181-0.114,1.715c0.105,0.163,0.242,0.316,0.397,0.458c0.093,0.06,0.182,0.127,0.263,0.188c0.141,0.107,0.308,0.233,0.504,0.361c0.76,0.432,1.637,0.696,2.111,0.761l0.023-0.634l0.001-0.016C313.556,30.794,313.582,28.919,313.565,28.013z M318.897,36.298c-0.26-0.432-1.144-1.126-1.61-1.282l0.154-0.462c0.45,0.15,1.316,0.754,1.751,1.324c0.026-0.044,0.053-0.084,0.079-0.13c0.196-0.393,0.207-0.721,0.032-1.004c-0.357-0.577-1.373-0.885-1.986-0.885c-0.706-0.025-1.565-0.324-2.56-0.671c-0.678-0.237-1.38-0.481-2.096-0.66c-0.744-0.186-1.315-0.483-1.746-0.762c-0.255-0.147-0.498-0.313-0.722-0.495l-0.107,0.108c-0.041,0.734-0.061,1.488-0.03,1.861c0.069,0.011,0.136,0.021,0.204,0.033c0.156,0.014,0.309,0.03,0.456,0.048c0.33,0.041,0.683,0.16,1.039,0.327c0.731,0.273,1.441,0.711,2.221,1.491c0.327,0.327,1.19,1.131,2.17,1.581c0.518,0.201,1.019,0.295,1.441,0.306c0.033-0.003,0.067-0.002,0.1-0.007c0.1-0.014,0.197-0.039,0.292-0.07c-0.27-0.432-1.14-1.115-1.601-1.268l0.154-0.462c0.501,0.167,1.523,0.898,1.883,1.52C318.584,36.625,318.746,36.478,318.897,36.298z M368.227,63.053c0.07,0.674,0.847,0.894,1.923,1.197c1.046,0.295,2.479,0.7,3.131,1.525l0.859-0.678c-0.911-1.144-2.574-1.582-3.816-1.936c1.002-0.302,1.918-0.685,2.752-1.142c-0.067,0.911,0.22,2.039,1.176,2.208c-0.019,0.058,0.146,0.003,0.199,0.026c0.341-0.067,0.712-0.256,0.931-0.642c0.472-0.838,0.487-2.342-0.288-2.994c0.603-0.524,1.145-1.1,1.61-1.74l-0.885-0.642c-1.534,2.115-3.943,3.536-7.161,4.225l-0.48,0.103L368.227,63.053z M328.021,64.508c-0.109-0.181-0.098-0.44,0.106-0.574c0.323-0.227,0.688-0.527,0.9-0.82c0.27-0.034,0.552-0.101,0.776-0.173c0.606-0.234,1.619-0.173,2.316-0.319c1.377-0.197,2.358-0.478,3.919-0.423c0.81-0.09,0.788,0.965-0.013,0.851c-0.412-0.008-1.367-0.02-1.745,0.109c-0.707,0.065-1.379,0.213-2.033,0.305c-0.415,0.063-0.844,0.128-1.332,0.14c-0.606,0.005-0.873,0.194-1.438,0.299c-0.297,0.32-0.723,0.63-0.859,0.727c-0.026,0.018-0.055,0.03-0.084,0.041c0.544,0.154,1.752,0.391,2.592,0.485c1.288,0.143,3.436,0.143,4.295-0.716s2.863-0.716,2.863-0.716s1.432,2.72,2.577,3.15c2.22,0.913,3.203,4.384,4.295,5.726c1.307,1.933,3.901,1.862,5.011,0.286c1.002-1.145,0.054-1.27-2.112,0.144c-1.575,0.232-3.041-2.577-3.614-4.152c-0.573-1.575-1.288-2.291-2.72-2.863c-1.432-0.573-2.863-3.436-2.434-5.297c4.008-8.303,11.22-1.539,11.774-0.251c1.038,0.214,8.089-2.129,7.552-2.183l-3.15-0.859c-0.859,0,4.438-0.286,5.87-0.286s4.295-0.429,5.583-1.145s8.446-3.293,10.737-4.152s1.861-2.863,1.432-4.008c0.859-0.143-2.72,0.286-2.72,0.286s1.575-0.859,2.291-1.288c0.931-0.269,0.429-1.575,0-2.434c-0.429-0.859-2.72-0.143-2.72-0.143s0.573-0.43,1.861-1.575c1.002-0.859,0-2.291-1.145-3.15s-0.917-1.053-1.544-1.68c-6.123,1.676-13.774,5.688-15.492,6.69c-4.009,1.933-3.239,2.416-0.805,2.058c1.432-0.143,13.767-3.725,11.62-3.009c-2.846,1.737-14.25,4.53-15.968,4.53s-3.006,0-4.581,0.573s-4.653,1.808-6.228,2.094c-1.575,0.286,1.647,0.34,1.647,0.34s-2.147,1.145-3.865,1.288c-1.718,0.143-7.874,3.579-8.733,4.724s-4.867,3.006-6.299,4.152c-1.432,1.145-1.718,3.436-0.859,3.293C326.077,64.493,327.326,64.494,328.021,64.508z M343.211,59.645c1.712-0.74,5.22,1.223,5.991,2.441c0.128,0.207,0.531,0.26,0.763,0.008c0.253-0.305-0.031-0.788-0.125-0.947c-1.099-1.591-4.554-3.39-6.974-2.51c-1.099,0.452-2.229,1.752-1.369,5.376c0.174,0.515,0.808,0.61,1.091,0.18c0.15-0.232,0.136-0.546-0.036-0.865C342.185,61.928,342.006,60.165,343.211,59.645z M347.572,68.43c-0.035-0.225-0.089-0.452-0.126-0.682c-0.054-0.495-0.162-1.26-0.501-1.583c-0.179-0.246-0.381-0.271-0.523-0.473l-0.137-0.066c-0.318-0.232-0.689-0.402-0.95-0.744c-0.11-0.116-0.207-0.228-0.262-0.367c-0.007-0.083,0.051-0.281,0.08-0.415c0.065-0.098,0.163-0.347,0.311-0.394c0.332-0.051,0.57-0.358,0.525-0.691c-0.162-0.715-0.904-0.666-1.48-0.142c-0.241,0.296-0.501,0.639-0.575,1.036c-0.067,0.26-0.145,0.626-0.042,0.964c0.355,0.991,1.305,1.482,2.09,2.059c0.029,0.042,0.074,0.093,0.099,0.134l0.028,0.172c0.061,0.177,0.089,0.462,0.118,0.689c0.052,0.33,0.128,0.608,0.158,0.924c0.208,0.413,0.494,0.682,0.964,0.804c0.304,0.067,0.631,0.072,0.888,0.073h0.247c0.226-0.244,0.518-0.408,0.747-0.664l0.153-0.174v-0.636c0-0.339-0.275-0.615-0.615-0.615c-0.402-0.004-0.663,0.367-0.615,0.749C348.015,68.553,347.753,68.493,347.572,68.43z M325.33,66.834c0.098-0.073,0.141-0.184,0.123-0.312c-0.043-0.3-0.387-0.599-0.896-0.791c-0.795-0.212-1.14-0.858-0.972-1.818c0.002-0.012,0.199-0.906,0.479-1.27c0.156-0.434,0.126-0.615,0.088-0.65c-0.018-0.017-0.202-0.149-1.172,0.29c-0.794,0.485-0.879,1.225-0.809,1.76c0.157,1.212,1.192,2.402,2.439,2.778C324.898,66.95,325.167,66.955,325.33,66.834z M317.635,108.427l-0.003-0.023c0.65-0.084,2.089-1.259,2.397-1.669c0.253-0.336,0.301-0.495,0.303-0.495c0,0,0,0,0,0.001l0.576,0.074c-0.01,0.08-0.071,0.313-0.415,0.77c-0.351,0.467-1.769,1.648-2.645,1.866c0.084,0.177,0.183,0.358,0.299,0.534l-0.017-0.07c0.735-0.178,2.296-1.474,2.645-1.915c0.336-0.425,0.413-0.548,0.415-0.55l0.496,0.302c-0.014,0.022-0.1,0.158-0.456,0.608c-0.368,0.466-1.824,1.702-2.756,2.053c0.107,0.12,0.227,0.231,0.356,0.334c0.825-0.253,2.323-1.38,2.682-1.801l0.423-0.496l0.5,0.427l-0.423,0.496c-0.305,0.357-1.473,1.303-2.465,1.788c0.356,0.136,0.767,0.207,1.246,0.176c0.757-0.052,1.36-0.597,1.733-1.045c0.787-0.947,1.222-2.242,1.262-2.823l-5.394-4.844l-0.941,5.67C317.492,107.961,317.55,108.181,317.635,108.427z M308.709,91.858c0.888,1.332,1.65,5.351,1.834,8.394c0.224,0.148,0.437,0.3,0.652,0.45c-0.012-0.253-0.015-0.518-0.015-0.781c0-0.138,0.004-0.299,0.007-0.455c0.005-0.212,0.011-0.503,0.005-0.554l-0.109-0.386h0.511l0.182,0.221c0.029,0.103,0.028,0.272,0.018,0.732c-0.004,0.152-0.007,0.308-0.007,0.442c0,0.429,0.006,0.899,0.058,1.253c0.183,0.137,0.37,0.274,0.546,0.413c0.002-0.035,0.003-0.07,0.003-0.108c0-0.477,0.1-1.753,0.111-2.106l0.608,0.009l-0.008,0.221c-0.01,0.218-0.093,1.849-0.131,2.47c0.141,0.119,0.279,0.239,0.415,0.36c0-0.005,0-0.008,0-0.012c0.015-0.502,0.066-0.911,0.115-1.306c0.042-0.335,0.085-0.682,0.105-1.084l0.607,0.03c-0.021,0.425-0.066,0.783-0.109,1.129c-0.05,0.399-0.097,0.776-0.111,1.24c0,0.216,0.023,0.323,0.048,0.447c0.012,0.06,0.026,0.125,0.037,0.203c0.234,0.23,0.46,0.462,0.676,0.698c-0.022-0.159-0.039-0.336-0.045-0.55c0-0.439,0.029-0.754,0.058-1.059c0.022-0.234,0.044-0.469,0.056-0.801c0.046-0.29,0.073-0.495,0.088-0.614c0.016-0.121,0.045-0.41,0.34-0.387c0.236,0.016,0.278,0.214,0.285,0.351l0.001,0.139c0,0-0.07,0.324-0.11,0.567c-0.009,0.309-0.032,0.556-0.055,0.802c-0.029,0.305-0.056,0.593-0.056,0.994c0.011,0.371,0.059,0.619,0.111,0.883c0.034,0.177,0.069,0.359,0.092,0.575c0.19,0.238,0.373,0.48,0.546,0.724c-0.14-0.44-0.216-0.949-0.253-1.273l0.002-1.578c0.05-0.462,0.109-1.223,0.109-1.402h0.608c0,0.219-0.063,1.012-0.111,1.435l-0.002,1.509c0.053,0.446,0.137,0.846,0.235,1.145c0.072-0.361,0.144-0.728,0.218-1.104c0.596-3.057,1.268-6.501,2.772-9.435c-6.392-2.572-8.232-5.234-10.354-8.305c-0.651-0.943-1.322-1.914-2.165-2.951C306.552,84.557,305.683,87.447,308.709,91.858z M317.841,69.896c-0.727,1.308-2.855,2.319-5.828,3.433l-0.219,0.082c-2.187,0.817-4.076,1.523-4.115,4.207c0,1.972-0.026,3.733-0.066,4.596l0.919,1.301c-0.001-0.03-0.003-0.056-0.003-0.088c-0.169-0.516-0.063-1.182-0.012-1.508l0.014-0.092l0.602,0.081l-0.016,0.107c-0.042,0.264-0.14,0.882,0,1.253l0.019,0.107c0,0.381,0.037,0.582,0.089,0.862l0.013,0.279l0.176,0.249c-0.001-0.055-0.003-0.109-0.003-0.167l0.029-0.422c0.042-0.595,0.081-1.157,0.081-1.803l0.003-0.044c0.046-0.312,0.073-0.533,0.088-0.66c0.016-0.135,0.042-0.414,0.339-0.399c0.237,0.014,0.279,0.21,0.286,0.355l0.001,0.15c0,0-0.069,0.338-0.11,0.621c-0.001,0.658-0.04,1.225-0.082,1.824l-0.028,0.4c0,0.391,0.03,0.71,0.062,1.046c0.002,0.017,0.003,0.033,0.005,0.05l0.385,0.545c-0.003-0.033-0.005-0.067-0.007-0.101c-0.028-0.37-0.058-0.753-0.058-1.198c0.012-0.409,0.063-0.724,0.113-1.028c0.043-0.267,0.088-0.544,0.112-0.925c0.04-0.25,0.066-0.434,0.082-0.55c0.023-0.162,0.071-0.435,0.347-0.412c0.218,0.016,0.27,0.177,0.282,0.327l0.003,0.274c0,0-0.083,0.26-0.111,0.427c-0.022,0.382-0.07,0.674-0.115,0.956c-0.049,0.299-0.095,0.58-0.105,0.94c0,0.268,0.013,0.512,0.029,0.753c0.19-0.907,0.382-1.704,0.575-2.377c0.542-1.897,2.432-3.271,5.789-4.203c3.103-0.781,4.157-4.043,4.508-5.917c0.431-2.3,1.29-4.032,2.038-5.314c-0.146-0.185-0.308-0.378-0.477-0.57c-0.531,2.122-1.908,5.335-2.973,6.471l-1.14,1.216l-0.355-0.332l1.14-1.216c1.044-1.114,2.486-4.546,2.93-6.572c-0.176-0.184-0.355-0.36-0.53-0.52c-0.146,0.197-0.285,0.376-0.413,0.542c-0.545,0.701-0.905,1.165-1.116,2.061l-0.304,1.291l-0.474-0.111l0.304-1.292c0.236-1,0.643-1.523,1.205-2.248c0.131-0.169,0.275-0.358,0.425-0.559c-0.158-0.123-0.309-0.225-0.446-0.299c-0.057,0.067-0.116,0.137-0.17,0.2c-0.58,0.675-0.963,1.121-1.146,2.095l-0.228,1.216l-0.478-0.09l0.228-1.216c0.163-0.869,0.473-1.371,0.894-1.892C319.811,67.104,318.415,68.867,317.841,69.896z M307.827,58.182c0.185,1.073,1.925,4.947,3.019,5.555l0.228,0.127c1.065,0.593,1.286,0.717,3.542,1.645c2.328,0.958,3.876,1.596,6.467-1.018l0.111-0.613c-0.814,0.215-2.022,0.372-3.226,0.372c-1.184,0-2.357-0.151-3.124-0.547l-1.594-0.823l0.223-0.432l1.594,0.823c1.414,0.729,4.693,0.564,6.223,0.076l0.051-0.279c-0.318,0.042-0.707,0.065-1.138,0.065c-1.731,0-4.135-0.359-5.301-1.218l-1.444-1.064l0.288-0.392l1.444,1.064c1.31,0.965,4.701,1.311,6.243,1.037l0.067-0.369c-0.467,0.054-1.163,0.084-2.149,0.014l-0.072-0.005l-0.068-0.026c-6.713-2.572-4.616-12.063-4.588-12.185l3.47-12.01c-0.17,0.021-0.632,0.032-0.679,0.032c-0.6,0-1.193-0.179-1.743-0.439c-0.68-0.283-1.353-0.702-1.927-1.276c-0.553-0.553-1.5-1.33-2.344-1.74c-0.387-0.144-0.787-0.235-1.229-0.31c-1.276-0.11-2.259,0.04-2.726,0.43c-0.215,0.179-0.323,0.406-0.34,0.702c-0.028,0.78,0.812,0.972,2.703,1.109c0.944,0.069,1.836,0.133,2.397,0.49c1.766,1.145,1.295,2.396,1.109,2.752c-0.09,0.172-0.207,0.329-0.342,0.471c-1.119,2.634-0.745,9.885-0.485,10.705l0.286,0.905l-0.61,0.193l-0.286-0.905c-0.258-0.817-0.643-7.026,0.225-10.303c-0.646,0.272-1.409,0.313-2.066,0.045c-0.75-0.314-1.854-1.033-2.941-2.693c-0.307-0.023-0.849-0.07-1.69-0.144c-1.599-0.141-4.053-0.358-5.321-0.413C304.507,47.412,307.111,54.337,307.827,58.182z M299.402,36.003c0.689,0.495,1.75,0.676,2.436,0.707c-0.379-0.657-0.709-1.665-0.512-2.802c-0.639,0.359-1.567,1.052-1.868,1.697C299.358,35.819,299.374,35.937,299.402,36.003z M307.38,45.607l-0.335,1.146l0.467,0.137l0.335-1.146c0.341-1.167,0.292-3.019,0.176-3.98l-0.483,0.058C307.651,42.743,307.7,44.511,307.38,45.607z M305.178,38.657l-0.16,0.459c0.652,0.227,1.525,0.707,1.783,1.06l0.307,0.419l0.392-0.287l-0.307-0.419C306.834,39.398,305.799,38.873,305.178,38.657z M358.152,216.071c0.013,0,1.329-0.054,3.835-0.054c2.701,0,4.649-0.538,6.722-1.858c2.478-1.577,5.597-1.742,8.597-1.688c0.269,0.005,0.482,0.227,0.477,0.495c-0.005,0.269-0.237,0.478-0.495,0.477c-2.849-0.053-5.796,0.097-8.057,1.536c-2.244,1.428-4.342,2.01-7.245,2.01c-2.483,0-3.781,0.053-3.794,0.053c-0.007,0-0.014,0-0.021,0c-0.259,0-0.474-0.204-0.485-0.466C357.675,216.309,357.884,216.082,358.152,216.071z M326.738,225.761c0.105,0.153,0.226,0.21,0.355,0.21c0.187,0,0.392-0.119,0.593-0.237c4.364-2.549,6.809-2.731,8.093-2.435l0.108,0.012c1.54,0,1.874-0.049,3.266-1.594c1.432-1.59,2.906-2.641,4.781-3.409c2.124-0.87,5.876-2.299,5.914-2.314l-0.342-0.898c-0.038,0.014-3.8,1.448-5.936,2.323c-1.988,0.815-3.618,1.977-5.13,3.655c-1.134,1.259-1.226,1.276-2.498,1.276c-1.067-0.233-2.346-0.128-3.827,0.31c0.553-0.306,1.168-0.661,1.99-1.193c2.015-1.304,2.85-1.844,7.666-3.708l-0.347-0.896c-4.908,1.9-5.767,2.456-7.841,3.798c-1.069,0.692-1.782,1.079-2.471,1.453c-0.632,0.343-1.23,0.667-2.054,1.195c-1.195,0.719-1.96,1.534-2.12,1.711C326.793,225.138,326.5,225.416,326.738,225.761z M299.514,197.089c0.021-0.018,2.054-1.818,2.798-1.176c0.118,0.102,0.35,0.387,0.052,0.885c-0.452,1.52,0.431,2.747,0.607,2.911l0.18,0.196c0.735,0.061,1.526,0.13,2.338,0.202c0.903,0.079,1.755,0.155,1.88,0.155l0.281,0.018l0.142,0.229c0.984,1.578,1.966,2.234,2.613,2.505c0.774,0.315,1.753-0.104,2.045-0.663c0.334-0.639-0.343-1.205-0.773-1.484c-0.35-0.223-1.159-0.282-1.941-0.338c-1.55-0.112-3.671-0.265-3.604-2.123c0.032-0.578,0.264-1.05,0.689-1.404c0.566-0.472,1.404-0.649,2.255-0.684c-0.048-0.565-0.026-1.487,0.112-3.003l0.018-0.201c-0.244-0.589-0.308-1.404,0.334-2.374c0.52-0.78,1.927-0.952,4.564-0.556l0.383,0.057l0.03,0.386c0.046,0.593,0.014,3.169-0.01,3.543l-0.035,0.969c0.206,0.07,0.409,0.14,0.602,0.207c0.883,0.308,1.716,0.598,2.258,0.618c0.76,0,2.19,0.365,2.796,1.346c0.249,0.402,0.452,1.067,0.001,1.969c-0.239,0.43-0.513,0.781-0.817,1.059l-3.747,12.971c-0.02,0.087-1.914,8.699,3.928,11.007c1.764,0.118,2.432-0.114,2.432-0.114l0.3-0.12c0.101-0.131,0.201-0.308,0.277-0.518c0.125-0.346,0.098-0.543,0.09-0.566c0,0-0.053-0.009-0.183,0.056c-0.835,0.417-2.219,0.354-2.509-0.116c-0.049-0.08-0.18-0.36,0.193-0.64c0.414-0.311,0.94-2.111,1.221-3.351c-0.333-0.014-0.896-0.055-1.466-0.169c-0.891-0.178-1.759-0.696-1.796-0.717l-0.226-0.135l0.153-0.214c0.008-0.012,0.866-1.213,1.377-1.895c0.126-0.169,0.127-0.233,0.128-0.233c-0.045-0.076-0.398-0.178-0.655-0.252c-0.169-0.049-0.357-0.103-0.558-0.17c-0.836-0.279-0.988-0.473-1.028-0.641c-0.014-0.058-0.01-0.112,0.004-0.158c0.013-0.238,0.119-1.191,1.01-1.548c0.551-0.22,0.682-1.182,0.787-1.954c0.03-0.224,0.059-0.436,0.096-0.617c0.125-0.624,0.156-0.969,0.164-1.097l-0.921-1.659l0.148-0.13c0.014-0.012,1.377-1.205,2.05-1.879c0.452-0.451,0.752-0.828,0.898-1.023l-1.416-1.77l0.201-0.151c0.03-0.023,0.747-0.553,1.825-0.733c0.733-0.122,1.796-1.613,2.649-2.811c0.211-0.297,0.415-0.583,0.608-0.841c0.464-1.497,1.702-2.08,2.278-2.276l-0.635-1.27l0.124-0.124c0.024-0.024,0.594-0.578,2.207-0.757c1.142-0.127,1.983-0.525,2.873-0.945c0.276-0.13,0.552-0.261,0.838-0.384c1.051-0.45,3.098-1.166,3.657-1.36l0.181-1.265h2.788c1.191,0,2.698-0.84,2.936-0.978c0.172-0.193,1.041-1.093,1.966-0.724c0.405,0.162,1.484-0.073,2.627-0.322c1.023-0.223,2.182-0.475,3.28-0.553c1.849-0.132,3.136,0.297,3.702,0.505c-0.004-1.242,0.076-1.937,0.473-2.052c0.342-0.1,0.593,0.306,0.688,0.458c0.803,1.285,3.306,2.128,4.468,2.294c1.041,0.149,2.186,0.541,2.528,0.664l1.789-0.894l1.984,2.164c0.342,0.17,2.781,1.371,3.871,1.682c0.952,0.272,1.887,1.288,2.389,1.834c0.086,0.093,0.181,0.197,0.237,0.251l1.701-0.039l-0.027,0.274c-0.062,0.62-0.042,1.722,0.279,2.044c0.812,0.869,2.163,2.802,2.129,4.586c0.479,1.064,1.398,1.37,1.894,1.536c0.43,0.143,0.693,1.008,0.812,1.511c0.08,0.339,0.314,1.47-0.029,1.813c-0.042,0.042-0.084,0.174-0.061,0.404c0.043,0.437,0.29,0.947,0.539,1.113c0.601,0.401,0.796,1.351,0.796,1.749c0,0.283,0,1.146,0.146,1.438c0.184,0.368,0.413,2.228-0.218,2.859c-0.337,0.337,0.129,1.877,0.407,2.797c0.061,0.202,0.12,0.395,0.17,0.573c0.344,1.202,0.545,3.005-0.016,4.128c-0.493,0.987-0.465,1.401,0.157,2.334c0.708,1.061,4.609,8.516,5.272,10.008c0.58,1.381,1.082,2.93,0.414,3.938c-0.441,0.665-1.306,0.991-2.63,0.995c-0.173,0.012-1.211,0.027-1.836,0.023c-0.001,0.04-0.002,0.079-0.003,0.118c-0.018,0.762-0.034,1.422,0.626,2.217c1.591,0.854,1.764,1.847,1.627,2.534c-0.196,0.983-1.13,1.806-1.846,2.061c0.444,0.93,0.885,3.139,0.253,3.885l-0.034,0.04l-0.048,0.023c-0.601,0.28-2.597,0.252-3.15,0.237c-0.988,1.226-0.685,2.8-0.393,4.324c0.155,0.805,0.3,1.565,0.24,2.231c-0.112,1.233-0.706,2.239-1.764,2.99c-3.114,2.211-9.647,1.738-13.232,0.894c-0.608,3.259-3.234,5.257-5.731,6.778c-3.945,2.667-5.069,8.823-5.254,10.03l-0.024,0.155l-0.152,0.042c-1.414,0.39-2.733,0.564-3.966,0.564c-6.506,0-10.593-4.842-13.451-8.228c-0.48-0.569-0.933-1.106-1.356-1.572c-0.871-0.958-1.628-1.956-2.431-3.013c-2.38-3.137-4.841-6.38-10.614-9.05l-0.561-0.388l0.002-0.128c0.003-0.216,0.195-0.41,0.66-0.878c1.388-1.399,5.069-5.106,6.829-13.683c-0.201-0.063-0.696-0.105-1.038-0.135c-0.865-0.074-1.455-0.124-1.5-0.481c-0.071-0.187-0.041-0.601,1.667-2.309c0.464-0.464,0.569-0.798,0.588-0.971l-3.353-0.176l0.072-0.286c0.016-0.065,0.405-1.6,1.108-2.654c0.199-0.298,0.204-0.904,0.014-1.62c-0.139-0.52-0.36-1.028-0.618-1.477c-0.014,0.012-0.025,0.028-0.04,0.04c-0.165,0.124-0.373,0.186-0.596,0.186c-0.082,0-0.167-0.012-0.253-0.029c0.066,0.085,0.353,0.466,0.353,0.466l-0.168,0.28c-0.742,1.237-1.65,2.955-2.086,5.28c-0.394,2.103-1.597,5.768-5.215,6.678c-2.992,0.831-4.661,1.985-5.102,3.53c-0.316,1.103-0.632,2.552-0.941,4.305c-0.002,0.007-0.004,0.018-0.005,0.026c1.72,2.2,3.894,4.11,8.891,6.046l0.096,0.037l0.339,0.339l-0.178,0.321c-1.055,1.897-1.716,4.085-2.221,6.255l6.201,5.569l0.021,0.183c0.093,0.807-0.492,2.534-1.479,3.722c-0.708,0.852-1.544,1.334-2.414,1.393c-0.1,0.007-0.199,0.01-0.297,0.01c-1.996,0-3.522-1.42-4.048-3.777l-0.247-0.469c-1.332-2.531-3.386-4.64-6.463-6.639l-0.208-0.135l-0.013-0.248c-0.165-3.242-0.953-7.052-1.682-8.147c-3.988-5.813-1.733-9.382-1.273-10.002l0.004-0.072c0.045-0.765,0.074-2.614,0.074-4.717c0.048-3.356,2.544-4.289,4.747-5.111l0.218-0.082c1.499-0.562,4.617-1.731,5.319-2.995c0.338-0.608,0.927-1.434,1.569-2.235c-0.338,0.079-0.667,0.113-0.989,0.113c-1.153,0-2.225-0.441-3.326-0.894c-2.309-0.951-2.539-1.079-3.645-1.695l-0.227-0.127c-1.542-0.857-3.314-5.128-3.505-6.234c-0.717-3.851-3.402-10.936-7.982-21.058l-0.252-0.682C298.346,199.277,298.077,198.389,299.514,197.089z M313.565,191.089c-2.693-0.357-3.147,0.092-3.211,0.189c-0.421,0.636-0.457,1.181-0.114,1.715c0.105,0.163,0.242,0.316,0.397,0.458c0.093,0.06,0.182,0.126,0.263,0.188c0.141,0.107,0.308,0.233,0.504,0.361c0.76,0.432,1.637,0.696,2.111,0.761l0.023-0.634l0.001-0.016C313.556,193.87,313.582,191.995,313.565,191.089z M318.897,199.374c-0.26-0.432-1.144-1.126-1.61-1.282l0.154-0.462c0.45,0.15,1.316,0.754,1.751,1.324c0.026-0.044,0.053-0.084,0.079-0.13c0.196-0.393,0.207-0.721,0.032-1.004c-0.357-0.577-1.373-0.885-1.986-0.885c-0.706-0.025-1.565-0.324-2.56-0.671c-0.678-0.237-1.38-0.481-2.096-0.66c-0.744-0.186-1.315-0.483-1.746-0.762c-0.255-0.147-0.498-0.313-0.722-0.495l-0.107,0.108c-0.041,0.734-0.061,1.488-0.03,1.861c0.069,0.011,0.136,0.021,0.204,0.033c0.156,0.014,0.309,0.03,0.456,0.048c0.33,0.041,0.683,0.16,1.039,0.327c0.731,0.273,1.441,0.711,2.221,1.491c0.327,0.327,1.19,1.131,2.17,1.581c0.518,0.201,1.019,0.295,1.441,0.306c0.033-0.003,0.067-0.002,0.1-0.007c0.1-0.014,0.197-0.039,0.292-0.07c-0.27-0.432-1.14-1.115-1.601-1.268l0.154-0.462c0.501,0.167,1.523,0.898,1.883,1.52C318.584,199.701,318.746,199.554,318.897,199.374z M368.227,226.129c0.07,0.674,0.847,0.894,1.923,1.197c1.046,0.295,2.479,0.7,3.131,1.525l0.859-0.678c-0.911-1.144-2.574-1.582-3.816-1.936c1.002-0.302,1.918-0.685,2.752-1.142c-0.067,0.911,0.22,2.039,1.176,2.208c-0.019,0.058,0.146,0.003,0.199,0.026c0.341-0.067,0.712-0.256,0.931-0.642c0.472-0.838,0.487-2.342-0.288-2.994c0.603-0.524,1.145-1.1,1.61-1.74l-0.885-0.642c-1.534,2.115-3.943,3.536-7.161,4.226l-0.48,0.103L368.227,226.129z M328.021,227.584c-0.109-0.181-0.098-0.44,0.106-0.574c0.323-0.227,0.688-0.527,0.9-0.821c0.27-0.034,0.552-0.101,0.776-0.173c0.606-0.234,1.619-0.173,2.316-0.319c1.377-0.197,2.358-0.478,3.919-0.423c0.81-0.09,0.788,0.965-0.013,0.851c-0.412-0.008-1.367-0.02-1.745,0.109c-0.707,0.065-1.379,0.213-2.033,0.305c-0.415,0.063-0.844,0.128-1.332,0.14c-0.606,0.005-0.873,0.194-1.438,0.299c-0.297,0.32-0.723,0.63-0.859,0.727c-0.026,0.018-0.055,0.03-0.084,0.041c0.544,0.154,1.752,0.391,2.592,0.485c1.288,0.143,3.436,0.143,4.295-0.716c0.859-0.859,2.863-0.716,2.863-0.716s1.432,2.72,2.577,3.15c2.22,0.913,3.203,4.384,4.295,5.726c1.307,1.933,3.901,1.862,5.011,0.286c1.002-1.145,0.054-1.27-2.112,0.144c-1.575,0.232-3.041-2.577-3.614-4.152c-0.573-1.575-1.288-2.291-2.72-2.863c-1.432-0.573-2.863-3.436-2.434-5.297c4.008-8.303,11.22-1.539,11.774-0.251c1.038,0.214,8.089-2.129,7.552-2.183l-3.15-0.859c-0.859,0,4.438-0.286,5.87-0.286s4.295-0.429,5.583-1.145s8.446-3.293,10.737-4.152s1.861-2.863,1.432-4.008c0.859-0.143-2.72,0.286-2.72,0.286s1.575-0.859,2.291-1.288c0.931-0.269,0.429-1.575,0-2.434c-0.429-0.859-2.72-0.143-2.72-0.143s0.573-0.43,1.861-1.575c1.002-0.859,0-2.291-1.145-3.15s-0.917-1.053-1.544-1.68c-6.123,1.676-13.774,5.688-15.492,6.69c-4.009,1.933-3.239,2.416-0.805,2.058c1.432-0.143,13.767-3.725,11.62-3.009c-2.846,1.737-14.25,4.53-15.968,4.53s-3.006,0-4.581,0.573c-1.575,0.573-4.653,1.808-6.228,2.094c-1.575,0.286,1.647,0.34,1.647,0.34s-2.147,1.145-3.865,1.288s-7.874,3.579-8.733,4.724s-4.867,3.006-6.299,4.152c-1.432,1.145-1.718,3.436-0.859,3.293C326.077,227.569,327.326,227.57,328.021,227.584z M343.211,222.721c1.712-0.74,5.22,1.223,5.991,2.441c0.128,0.207,0.531,0.26,0.763,0.008c0.253-0.305-0.031-0.788-0.125-0.947c-1.099-1.591-4.554-3.39-6.974-2.51c-1.099,0.452-2.229,1.752-1.369,5.376c0.174,0.515,0.808,0.61,1.091,0.18c0.15-0.232,0.136-0.546-0.036-0.865C342.185,225.004,342.006,223.241,343.211,222.721z M347.572,231.506c-0.035-0.225-0.089-0.452-0.126-0.682c-0.054-0.495-0.162-1.26-0.501-1.583c-0.179-0.246-0.381-0.271-0.523-0.473l-0.137-0.066c-0.318-0.232-0.689-0.402-0.95-0.744c-0.11-0.116-0.207-0.228-0.262-0.367c-0.007-0.083,0.051-0.281,0.08-0.415c0.065-0.098,0.163-0.347,0.311-0.394c0.332-0.051,0.57-0.358,0.525-0.691c-0.162-0.715-0.904-0.666-1.48-0.142c-0.241,0.296-0.501,0.639-0.575,1.036c-0.067,0.26-0.145,0.626-0.042,0.964c0.355,0.991,1.305,1.482,2.09,2.059c0.029,0.042,0.074,0.093,0.099,0.134l0.028,0.172c0.061,0.177,0.089,0.462,0.118,0.689c0.052,0.33,0.128,0.608,0.158,0.924c0.208,0.413,0.494,0.682,0.964,0.804c0.304,0.067,0.631,0.072,0.888,0.073h0.247c0.226-0.244,0.518-0.408,0.747-0.664l0.153-0.174v-0.636c0-0.339-0.275-0.615-0.615-0.615c-0.402-0.004-0.663,0.367-0.615,0.749C348.015,231.629,347.753,231.569,347.572,231.506z M325.33,229.91c0.098-0.073,0.141-0.184,0.123-0.312c-0.043-0.3-0.387-0.599-0.896-0.791c-0.795-0.212-1.14-0.858-0.972-1.818c0.002-0.012,0.199-0.906,0.479-1.27c0.156-0.434,0.126-0.615,0.088-0.65c-0.018-0.017-0.202-0.149-1.172,0.29c-0.794,0.485-0.879,1.225-0.809,1.76c0.157,1.212,1.192,2.402,2.439,2.778C324.898,230.026,325.167,230.031,325.33,229.91z M317.635,271.503l-0.003-0.023c0.65-0.084,2.089-1.259,2.397-1.669c0.253-0.336,0.301-0.495,0.303-0.495c0,0,0,0,0,0.001l0.576,0.074c-0.01,0.08-0.071,0.313-0.415,0.77c-0.351,0.467-1.769,1.648-2.645,1.866c0.084,0.177,0.183,0.358,0.299,0.534l-0.017-0.07c0.735-0.178,2.296-1.474,2.645-1.915c0.336-0.425,0.413-0.548,0.415-0.55l0.496,0.302c-0.014,0.022-0.1,0.158-0.456,0.608c-0.368,0.466-1.824,1.702-2.756,2.053c0.107,0.12,0.227,0.231,0.356,0.334c0.825-0.253,2.323-1.38,2.682-1.801l0.423-0.496l0.5,0.427l-0.423,0.496c-0.305,0.357-1.473,1.303-2.465,1.788c0.356,0.136,0.767,0.207,1.246,0.176c0.757-0.052,1.36-0.597,1.733-1.045c0.787-0.947,1.222-2.242,1.262-2.823l-5.394-4.844l-0.941,5.67C317.492,271.037,317.55,271.257,317.635,271.503z M308.709,254.934c0.888,1.332,1.65,5.351,1.834,8.394c0.224,0.148,0.437,0.3,0.652,0.45c-0.012-0.253-0.015-0.518-0.015-0.781c0-0.138,0.004-0.299,0.007-0.455c0.005-0.212,0.011-0.503,0.005-0.554l-0.109-0.386h0.511l0.182,0.221c0.029,0.103,0.028,0.272,0.018,0.732c-0.004,0.152-0.007,0.308-0.007,0.442c0,0.429,0.006,0.899,0.058,1.253c0.183,0.137,0.37,0.274,0.546,0.413c0.002-0.035,0.003-0.07,0.003-0.108c0-0.477,0.1-1.753,0.111-2.106l0.608,0.009l-0.008,0.221c-0.01,0.218-0.093,1.849-0.131,2.47c0.141,0.119,0.279,0.239,0.415,0.36c0-0.005,0-0.008,0-0.012c0.015-0.503,0.066-0.911,0.115-1.306c0.042-0.335,0.085-0.682,0.105-1.084l0.607,0.03c-0.021,0.425-0.066,0.783-0.109,1.129c-0.05,0.399-0.097,0.776-0.111,1.24c0,0.216,0.023,0.323,0.048,0.447c0.012,0.06,0.026,0.125,0.037,0.203c0.234,0.23,0.46,0.462,0.676,0.698c-0.022-0.159-0.039-0.336-0.045-0.55c0-0.439,0.029-0.754,0.058-1.059c0.022-0.234,0.044-0.469,0.056-0.801c0.046-0.29,0.073-0.496,0.088-0.614c0.016-0.121,0.045-0.41,0.34-0.387c0.236,0.016,0.278,0.214,0.285,0.351l0.001,0.139c0,0-0.07,0.324-0.11,0.567c-0.009,0.309-0.032,0.556-0.055,0.802c-0.029,0.305-0.056,0.593-0.056,0.994c0.011,0.371,0.059,0.619,0.111,0.883c0.034,0.177,0.069,0.359,0.092,0.575c0.19,0.238,0.373,0.48,0.546,0.724c-0.14-0.44-0.216-0.949-0.253-1.273l0.002-1.578c0.05-0.462,0.109-1.223,0.109-1.402h0.608c0,0.219-0.063,1.012-0.111,1.435l-0.002,1.509c0.053,0.446,0.137,0.846,0.235,1.145c0.072-0.361,0.144-0.728,0.218-1.104c0.596-3.057,1.268-6.501,2.772-9.435c-6.392-2.572-8.232-5.234-10.354-8.305c-0.651-0.943-1.322-1.914-2.165-2.951C306.552,247.633,305.683,250.523,308.709,254.934z M317.841,232.971c-0.727,1.308-2.855,2.319-5.828,3.433l-0.219,0.082c-2.187,0.817-4.076,1.523-4.115,4.207c0,1.972-0.026,3.733-0.066,4.596l0.919,1.301c-0.001-0.03-0.003-0.056-0.003-0.088c-0.169-0.516-0.063-1.182-0.012-1.508l0.014-0.092l0.602,0.081l-0.016,0.107c-0.042,0.264-0.14,0.882,0,1.253l0.019,0.107c0,0.381,0.037,0.582,0.089,0.862l0.013,0.279l0.176,0.249c-0.001-0.055-0.003-0.109-0.003-0.167l0.029-0.422c0.042-0.595,0.081-1.157,0.081-1.803l0.003-0.044c0.046-0.312,0.073-0.533,0.088-0.66c0.016-0.135,0.042-0.414,0.339-0.399c0.237,0.014,0.279,0.21,0.286,0.355l0.001,0.15c0,0-0.069,0.338-0.11,0.621c-0.001,0.658-0.04,1.225-0.082,1.824l-0.028,0.4c0,0.391,0.03,0.71,0.062,1.046c0.002,0.017,0.003,0.033,0.005,0.05l0.385,0.545c-0.003-0.033-0.005-0.067-0.007-0.101c-0.028-0.37-0.058-0.753-0.058-1.198c0.012-0.409,0.063-0.724,0.113-1.028c0.043-0.267,0.088-0.544,0.112-0.925c0.04-0.25,0.066-0.434,0.082-0.55c0.023-0.162,0.071-0.435,0.347-0.412c0.218,0.016,0.27,0.177,0.282,0.327l0.003,0.274c0,0-0.083,0.26-0.111,0.427c-0.022,0.382-0.07,0.674-0.115,0.956c-0.049,0.299-0.095,0.58-0.105,0.94c0,0.268,0.013,0.512,0.029,0.753c0.19-0.907,0.382-1.704,0.575-2.377c0.542-1.897,2.432-3.271,5.789-4.203c3.103-0.781,4.157-4.043,4.508-5.917c0.431-2.3,1.29-4.032,2.038-5.314c-0.146-0.184-0.308-0.378-0.477-0.57c-0.531,2.122-1.908,5.335-2.973,6.471l-1.14,1.216l-0.355-0.332l1.14-1.216c1.044-1.114,2.486-4.546,2.93-6.572c-0.176-0.184-0.355-0.36-0.53-0.52c-0.146,0.197-0.285,0.376-0.413,0.542c-0.545,0.701-0.905,1.165-1.116,2.061l-0.304,1.291l-0.474-0.111l0.304-1.292c0.236-1,0.643-1.523,1.205-2.248c0.131-0.169,0.275-0.358,0.425-0.559c-0.158-0.123-0.309-0.225-0.446-0.299c-0.057,0.067-0.116,0.137-0.17,0.2c-0.58,0.675-0.963,1.121-1.146,2.095l-0.228,1.216l-0.478-0.09l0.228-1.216c0.163-0.869,0.473-1.371,0.894-1.892C319.811,230.18,318.415,231.943,317.841,232.971z M307.827,221.258c0.185,1.073,1.925,4.947,3.019,5.555l0.228,0.127c1.065,0.593,1.286,0.717,3.542,1.645c2.328,0.958,3.876,1.596,6.467-1.018l0.111-0.613c-0.814,0.215-2.022,0.372-3.226,0.372c-1.184,0-2.357-0.151-3.124-0.547l-1.594-0.823l0.223-0.432l1.594,0.823c1.414,0.729,4.693,0.564,6.223,0.076l0.051-0.279c-0.318,0.042-0.707,0.065-1.138,0.065c-1.731,0-4.135-0.359-5.301-1.218l-1.444-1.064l0.288-0.392l1.444,1.064c1.31,0.965,4.701,1.311,6.243,1.037l0.067-0.369c-0.467,0.054-1.163,0.084-2.149,0.014l-0.072-0.005l-0.068-0.026c-6.713-2.572-4.616-12.063-4.588-12.185l3.47-12.01c-0.17,0.021-0.632,0.032-0.679,0.032c-0.6,0-1.193-0.179-1.743-0.439c-0.68-0.283-1.353-0.702-1.927-1.276c-0.553-0.553-1.5-1.33-2.344-1.74c-0.387-0.144-0.787-0.235-1.229-0.31c-1.276-0.11-2.259,0.04-2.726,0.43c-0.215,0.179-0.323,0.406-0.34,0.702c-0.028,0.78,0.812,0.972,2.703,1.109c0.944,0.069,1.836,0.133,2.397,0.49c1.766,1.145,1.295,2.396,1.109,2.752c-0.09,0.172-0.207,0.329-0.342,0.471c-1.119,2.634-0.745,9.885-0.485,10.705l0.286,0.905l-0.61,0.193l-0.286-0.905c-0.258-0.817-0.643-7.026,0.225-10.303c-0.646,0.272-1.409,0.313-2.066,0.045c-0.75-0.314-1.854-1.033-2.941-2.693c-0.307-0.023-0.849-0.07-1.69-0.144c-1.599-0.141-4.053-0.358-5.321-0.413C304.507,210.487,307.111,217.413,307.827,221.258z M299.402,199.079c0.689,0.495,1.75,0.676,2.436,0.707c-0.379-0.657-0.709-1.665-0.512-2.802c-0.639,0.359-1.567,1.052-1.868,1.697C299.358,198.895,299.374,199.013,299.402,199.079z M307.38,208.683l-0.335,1.146l0.467,0.137l0.335-1.146c0.341-1.167,0.292-3.019,0.176-3.98l-0.483,0.058C307.651,205.819,307.7,207.587,307.38,208.683z M305.178,201.733l-0.16,0.459c0.652,0.227,1.525,0.707,1.783,1.06l0.307,0.419l0.392-0.287l-0.307-0.419C306.834,202.474,305.799,201.949,305.178,201.733z M119.244,216.071c0.013,0,1.329-0.054,3.835-0.054c2.701,0,4.649-0.538,6.722-1.858c2.478-1.577,5.597-1.742,8.597-1.688c0.269,0.005,0.482,0.227,0.477,0.495c-0.005,0.269-0.237,0.478-0.495,0.477c-2.849-0.053-5.796,0.097-8.057,1.536c-2.244,1.428-4.342,2.01-7.245,2.01c-2.483,0-3.781,0.053-3.794,0.053c-0.007,0-0.014,0-0.021,0c-0.259,0-0.474-0.204-0.485-0.466C118.768,216.309,118.976,216.082,119.244,216.071z M87.831,225.761c0.105,0.153,0.226,0.21,0.355,0.21c0.187,0,0.392-0.119,0.593-0.237c4.364-2.549,6.809-2.731,8.093-2.435l0.108,0.012c1.54,0,1.874-0.049,3.266-1.594c1.432-1.59,2.906-2.641,4.781-3.409c2.124-0.87,5.876-2.299,5.914-2.314l-0.342-0.898c-0.038,0.014-3.8,1.448-5.936,2.323c-1.988,0.815-3.618,1.977-5.13,3.655c-1.134,1.259-1.226,1.276-2.498,1.276c-1.067-0.233-2.346-0.128-3.827,0.31c0.553-0.306,1.168-0.661,1.99-1.193c2.015-1.304,2.85-1.844,7.666-3.708l-0.347-0.896c-4.908,1.9-5.767,2.456-7.841,3.798c-1.069,0.692-1.782,1.079-2.471,1.453c-0.632,0.343-1.23,0.667-2.054,1.195c-1.195,0.719-1.96,1.534-2.12,1.711C87.886,225.138,87.592,225.416,87.831,225.761z M60.606,197.089c0.021-0.018,2.054-1.818,2.798-1.176c0.118,0.102,0.35,0.387,0.052,0.885c-0.452,1.52,0.431,2.747,0.607,2.911l0.18,0.196c0.735,0.061,1.526,0.13,2.338,0.202c0.903,0.079,1.755,0.155,1.88,0.155l0.281,0.018l0.142,0.229c0.984,1.578,1.966,2.234,2.613,2.505c0.774,0.315,1.753-0.104,2.045-0.663c0.334-0.639-0.343-1.205-0.773-1.484c-0.35-0.223-1.159-0.282-1.941-0.338c-1.55-0.112-3.671-0.265-3.604-2.123c0.032-0.578,0.264-1.05,0.689-1.404c0.566-0.472,1.404-0.649,2.255-0.684c-0.048-0.565-0.026-1.487,0.112-3.003l0.018-0.201c-0.244-0.589-0.308-1.404,0.334-2.374c0.52-0.78,1.927-0.952,4.564-0.556l0.383,0.057l0.03,0.386c0.046,0.593,0.014,3.169-0.01,3.543l-0.035,0.969c0.206,0.07,0.409,0.14,0.602,0.207c0.883,0.308,1.716,0.598,2.258,0.618c0.76,0,2.19,0.365,2.796,1.346c0.249,0.402,0.452,1.067,0.001,1.969c-0.239,0.43-0.513,0.781-0.817,1.059l-3.748,12.971c-0.02,0.087-1.914,8.699,3.928,11.007c1.764,0.118,2.432-0.114,2.432-0.114l0.3-0.12c0.101-0.131,0.201-0.308,0.277-0.518c0.125-0.346,0.098-0.543,0.09-0.566c0,0-0.053-0.009-0.183,0.056c-0.835,0.417-2.219,0.354-2.509-0.116c-0.049-0.08-0.18-0.36,0.193-0.64c0.414-0.311,0.94-2.111,1.221-3.351c-0.333-0.014-0.896-0.055-1.466-0.169c-0.891-0.178-1.759-0.696-1.796-0.717l-0.226-0.135l0.153-0.214c0.008-0.012,0.866-1.213,1.377-1.895c0.126-0.169,0.127-0.233,0.128-0.233c-0.045-0.076-0.398-0.178-0.655-0.252c-0.169-0.049-0.357-0.103-0.558-0.17c-0.836-0.279-0.988-0.473-1.028-0.641c-0.014-0.058-0.01-0.112,0.004-0.158c0.013-0.238,0.119-1.191,1.01-1.548c0.551-0.22,0.682-1.182,0.787-1.954c0.03-0.224,0.059-0.436,0.096-0.617c0.125-0.624,0.156-0.969,0.164-1.097l-0.921-1.659l0.148-0.13c0.014-0.012,1.377-1.205,2.05-1.879c0.452-0.451,0.752-0.828,0.898-1.023l-1.416-1.77l0.201-0.151c0.03-0.023,0.747-0.553,1.825-0.733c0.733-0.122,1.796-1.613,2.649-2.811c0.211-0.297,0.415-0.583,0.608-0.841c0.464-1.497,1.702-2.08,2.278-2.276l-0.635-1.27l0.124-0.124c0.024-0.024,0.594-0.578,2.207-0.757c1.142-0.127,1.983-0.525,2.873-0.945c0.276-0.13,0.552-0.261,0.838-0.384c1.051-0.45,3.098-1.166,3.657-1.36l0.181-1.265h2.788c1.191,0,2.698-0.84,2.936-0.978c0.172-0.193,1.041-1.093,1.966-0.724c0.405,0.162,1.484-0.073,2.627-0.322c1.023-0.223,2.182-0.475,3.28-0.553c1.849-0.132,3.136,0.297,3.702,0.505c-0.004-1.242,0.076-1.937,0.473-2.052c0.342-0.1,0.593,0.306,0.688,0.458c0.803,1.285,3.306,2.128,4.468,2.294c1.041,0.149,2.186,0.541,2.528,0.664l1.789-0.894l1.984,2.164c0.342,0.17,2.781,1.371,3.871,1.682c0.952,0.272,1.887,1.288,2.389,1.834c0.086,0.093,0.181,0.197,0.237,0.251l1.701-0.039l-0.027,0.274c-0.062,0.62-0.042,1.722,0.279,2.044c0.812,0.869,2.163,2.802,2.129,4.586c0.479,1.064,1.398,1.37,1.894,1.536c0.43,0.143,0.693,1.008,0.812,1.511c0.08,0.339,0.314,1.47-0.029,1.813c-0.042,0.042-0.084,0.174-0.061,0.404c0.043,0.437,0.29,0.947,0.539,1.113c0.601,0.401,0.796,1.351,0.796,1.749c0,0.283,0,1.146,0.146,1.438c0.184,0.368,0.413,2.228-0.218,2.859c-0.337,0.337,0.129,1.877,0.407,2.797c0.061,0.202,0.12,0.395,0.17,0.573c0.344,1.202,0.545,3.005-0.016,4.128c-0.493,0.987-0.465,1.401,0.157,2.334c0.708,1.061,4.609,8.516,5.272,10.008c0.58,1.381,1.082,2.93,0.414,3.938c-0.441,0.665-1.306,0.991-2.63,0.995c-0.173,0.012-1.211,0.027-1.836,0.023c-0.001,0.04-0.002,0.079-0.003,0.118c-0.018,0.762-0.034,1.422,0.626,2.217c1.591,0.854,1.764,1.847,1.627,2.534c-0.196,0.983-1.13,1.806-1.846,2.061c0.444,0.93,0.885,3.139,0.253,3.885l-0.034,0.04l-0.048,0.023c-0.601,0.28-2.597,0.252-3.15,0.237c-0.988,1.226-0.685,2.8-0.393,4.324c0.155,0.805,0.3,1.565,0.24,2.231c-0.113,1.233-0.706,2.239-1.764,2.99c-3.114,2.211-9.647,1.738-13.232,0.894c-0.608,3.259-3.234,5.257-5.731,6.778c-3.945,2.667-5.069,8.823-5.254,10.03l-0.024,0.155l-0.152,0.042c-1.414,0.39-2.733,0.564-3.966,0.564c-6.506,0-10.593-4.842-13.451-8.228c-0.48-0.569-0.933-1.106-1.356-1.572c-0.871-0.958-1.628-1.956-2.431-3.013c-2.38-3.137-4.841-6.38-10.614-9.05l-0.561-0.388l0.002-0.128c0.003-0.216,0.195-0.41,0.66-0.878c1.388-1.399,5.069-5.106,6.829-13.683c-0.201-0.063-0.696-0.105-1.038-0.135c-0.865-0.074-1.455-0.124-1.5-0.481c-0.071-0.187-0.041-0.601,1.667-2.309c0.464-0.464,0.569-0.798,0.588-0.971l-3.353-0.176l0.072-0.286c0.016-0.065,0.405-1.6,1.108-2.654c0.199-0.298,0.204-0.904,0.014-1.62c-0.139-0.52-0.36-1.028-0.618-1.477c-0.014,0.012-0.025,0.028-0.04,0.04c-0.165,0.124-0.373,0.186-0.596,0.186c-0.083,0-0.167-0.012-0.253-0.029c0.066,0.085,0.353,0.466,0.353,0.466l-0.168,0.28c-0.742,1.237-1.65,2.955-2.086,5.28c-0.394,2.103-1.597,5.768-5.215,6.678c-2.992,0.831-4.661,1.985-5.102,3.53c-0.316,1.103-0.632,2.552-0.941,4.305c-0.002,0.007-0.004,0.018-0.005,0.026c1.72,2.2,3.894,4.11,8.891,6.046l0.096,0.037l0.339,0.339l-0.178,0.321c-1.055,1.897-1.716,4.085-2.221,6.255l6.201,5.569l0.021,0.183c0.093,0.807-0.492,2.534-1.479,3.722c-0.708,0.852-1.544,1.334-2.414,1.393c-0.1,0.007-0.199,0.01-0.297,0.01c-1.996,0-3.522-1.42-4.048-3.777l-0.247-0.469c-1.332-2.531-3.386-4.64-6.463-6.639l-0.208-0.135l-0.013-0.248c-0.165-3.242-0.953-7.052-1.682-8.147c-3.988-5.813-1.733-9.382-1.273-10.002l0.004-0.072c0.045-0.765,0.074-2.614,0.074-4.717c0.048-3.356,2.544-4.289,4.747-5.111l0.218-0.082c1.499-0.562,4.617-1.731,5.319-2.995c0.338-0.608,0.927-1.434,1.569-2.235c-0.338,0.079-0.667,0.113-0.989,0.113c-1.153,0-2.225-0.441-3.326-0.894c-2.309-0.951-2.539-1.079-3.645-1.695l-0.227-0.127c-1.542-0.857-3.314-5.128-3.505-6.234c-0.717-3.851-3.402-10.936-7.982-21.058l-0.252-0.682C59.439,199.277,59.169,198.389,60.606,197.089z M74.657,191.089c-2.693-0.357-3.147,0.092-3.211,0.189c-0.421,0.636-0.457,1.181-0.114,1.715c0.105,0.163,0.242,0.316,0.397,0.458c0.093,0.06,0.182,0.126,0.263,0.188c0.141,0.107,0.308,0.233,0.504,0.361c0.76,0.432,1.637,0.696,2.111,0.761l0.023-0.634l0.001-0.016C74.649,193.87,74.675,191.995,74.657,191.089z M79.989,199.374c-0.26-0.432-1.144-1.126-1.61-1.282l0.154-0.462c0.45,0.15,1.316,0.754,1.751,1.324c0.026-0.044,0.053-0.084,0.079-0.13c0.196-0.393,0.207-0.721,0.032-1.004c-0.357-0.577-1.373-0.885-1.986-0.885c-0.706-0.025-1.565-0.324-2.56-0.671c-0.678-0.237-1.38-0.481-2.096-0.66c-0.744-0.186-1.315-0.483-1.746-0.762c-0.255-0.147-0.498-0.313-0.722-0.495l-0.107,0.108c-0.041,0.734-0.061,1.488-0.03,1.861c0.069,0.011,0.136,0.021,0.204,0.033c0.156,0.014,0.309,0.03,0.456,0.048c0.33,0.041,0.683,0.16,1.039,0.327c0.731,0.273,1.441,0.711,2.221,1.491c0.327,0.327,1.19,1.131,2.17,1.581c0.518,0.201,1.019,0.295,1.441,0.306c0.033-0.003,0.067-0.002,0.1-0.007c0.1-0.014,0.197-0.039,0.292-0.07c-0.27-0.432-1.14-1.115-1.601-1.268l0.154-0.462c0.501,0.167,1.523,0.898,1.883,1.52C79.677,199.701,79.839,199.554,79.989,199.374z M129.319,226.129c0.07,0.674,0.847,0.894,1.923,1.197c1.046,0.295,2.479,0.7,3.131,1.525l0.859-0.678c-0.911-1.144-2.574-1.582-3.816-1.936c1.002-0.302,1.918-0.685,2.752-1.142c-0.067,0.911,0.22,2.039,1.176,2.208c-0.019,0.058,0.146,0.003,0.199,0.026c0.341-0.067,0.712-0.256,0.931-0.642c0.472-0.838,0.487-2.342-0.288-2.994c0.603-0.524,1.145-1.1,1.61-1.74l-0.885-0.642c-1.534,2.115-3.943,3.536-7.161,4.226l-0.48,0.103L129.319,226.129z M89.114,227.584c-0.109-0.181-0.098-0.44,0.106-0.574c0.323-0.227,0.688-0.527,0.9-0.821c0.27-0.034,0.552-0.101,0.776-0.173c0.606-0.234,1.619-0.173,2.316-0.319c1.377-0.197,2.358-0.478,3.919-0.423c0.81-0.09,0.788,0.965-0.013,0.851c-0.412-0.008-1.367-0.02-1.745,0.109c-0.707,0.065-1.379,0.213-2.033,0.305c-0.415,0.063-0.844,0.128-1.332,0.14c-0.606,0.005-0.873,0.194-1.438,0.299c-0.297,0.32-0.723,0.63-0.859,0.727c-0.026,0.018-0.055,0.03-0.084,0.041c0.544,0.154,1.752,0.391,2.592,0.485c1.288,0.143,3.436,0.143,4.295-0.716c0.859-0.859,2.863-0.716,2.863-0.716s1.432,2.72,2.577,3.15c2.22,0.913,3.203,4.384,4.295,5.726c1.307,1.933,3.901,1.862,5.011,0.286c1.002-1.145,0.054-1.27-2.112,0.144c-1.575,0.232-3.041-2.577-3.614-4.152s-1.288-2.291-2.72-2.863c-1.432-0.573-2.863-3.436-2.434-5.297c4.008-8.303,11.22-1.539,11.774-0.251c1.038,0.214,8.089-2.129,7.552-2.183l-3.15-0.859c-0.859,0,4.438-0.286,5.87-0.286s4.295-0.429,5.583-1.145s8.446-3.293,10.737-4.152s1.861-2.863,1.432-4.008c0.859-0.143-2.72,0.286-2.72,0.286s1.575-0.859,2.291-1.288c0.931-0.269,0.429-1.575,0-2.434c-0.429-0.859-2.72-0.143-2.72-0.143s0.573-0.43,1.861-1.575c1.002-0.859,0-2.291-1.145-3.15s-0.917-1.053-1.544-1.68c-6.123,1.676-13.774,5.688-15.492,6.69c-4.009,1.933-3.239,2.416-0.805,2.058c1.432-0.143,13.767-3.725,11.62-3.009c-2.846,1.737-14.25,4.53-15.968,4.53s-3.006,0-4.581,0.573c-1.575,0.573-4.653,1.808-6.228,2.094s1.647,0.34,1.647,0.34s-2.147,1.145-3.865,1.288s-7.874,3.579-8.733,4.724s-4.867,3.006-6.299,4.152c-1.432,1.145-1.718,3.436-0.859,3.293C87.169,227.569,88.418,227.57,89.114,227.584z M104.303,222.721c1.712-0.74,5.22,1.223,5.991,2.441c0.128,0.207,0.531,0.26,0.763,0.008c0.253-0.305-0.031-0.788-0.125-0.947c-1.099-1.591-4.554-3.39-6.974-2.51c-1.099,0.452-2.229,1.752-1.369,5.376c0.174,0.515,0.808,0.61,1.091,0.18c0.15-0.232,0.136-0.546-0.036-0.865C103.277,225.004,103.099,223.241,104.303,222.721z M108.665,231.506c-0.035-0.225-0.089-0.452-0.127-0.682c-0.054-0.495-0.162-1.26-0.501-1.583c-0.179-0.246-0.381-0.271-0.523-0.473l-0.137-0.066c-0.318-0.232-0.689-0.402-0.95-0.744c-0.11-0.116-0.207-0.228-0.262-0.367c-0.007-0.083,0.051-0.281,0.08-0.415c0.065-0.098,0.163-0.347,0.311-0.394c0.332-0.051,0.57-0.358,0.525-0.691c-0.162-0.715-0.904-0.666-1.48-0.142c-0.241,0.296-0.501,0.639-0.575,1.036c-0.067,0.26-0.145,0.626-0.042,0.964c0.355,0.991,1.305,1.482,2.09,2.059c0.029,0.042,0.074,0.093,0.099,0.134l0.028,0.172c0.061,0.177,0.089,0.462,0.118,0.689c0.052,0.33,0.128,0.608,0.158,0.924c0.208,0.413,0.494,0.682,0.964,0.804c0.304,0.067,0.631,0.072,0.888,0.073h0.247c0.226-0.244,0.518-0.408,0.747-0.664l0.153-0.174v-0.636c0-0.339-0.275-0.615-0.615-0.615c-0.402-0.004-0.663,0.367-0.615,0.749C109.107,231.629,108.846,231.569,108.665,231.506z M86.422,229.91c0.098-0.073,0.141-0.184,0.123-0.312c-0.043-0.3-0.387-0.599-0.896-0.791c-0.795-0.212-1.14-0.858-0.972-1.818c0.002-0.012,0.199-0.906,0.479-1.27c0.156-0.434,0.126-0.615,0.088-0.65c-0.018-0.017-0.202-0.149-1.172,0.29c-0.794,0.485-0.879,1.225-0.809,1.76c0.157,1.212,1.192,2.402,2.439,2.778C85.99,230.026,86.259,230.031,86.422,229.91z M78.728,271.503l-0.003-0.023c0.65-0.084,2.089-1.259,2.397-1.669c0.253-0.336,0.301-0.495,0.303-0.495c0,0,0,0,0,0.001l0.576,0.074c-0.01,0.08-0.071,0.313-0.415,0.77c-0.351,0.467-1.769,1.648-2.645,1.866c0.084,0.177,0.183,0.358,0.299,0.534l-0.017-0.07c0.735-0.178,2.296-1.474,2.645-1.915c0.336-0.425,0.413-0.548,0.415-0.55l0.496,0.302c-0.014,0.022-0.1,0.158-0.456,0.608c-0.368,0.466-1.824,1.702-2.756,2.053c0.107,0.12,0.227,0.231,0.356,0.334c0.825-0.253,2.323-1.38,2.682-1.801l0.423-0.496l0.5,0.427l-0.423,0.496c-0.305,0.357-1.473,1.303-2.465,1.788c0.356,0.136,0.767,0.207,1.246,0.176c0.757-0.052,1.36-0.597,1.733-1.045c0.787-0.947,1.222-2.242,1.262-2.823l-5.394-4.844l-0.941,5.67C78.584,271.037,78.642,271.257,78.728,271.503z M69.801,254.934c0.888,1.332,1.65,5.351,1.834,8.394c0.224,0.148,0.437,0.3,0.652,0.45c-0.012-0.253-0.015-0.518-0.015-0.781c0-0.138,0.004-0.299,0.007-0.455c0.005-0.212,0.011-0.503,0.005-0.554l-0.109-0.386h0.511l0.182,0.221c0.029,0.103,0.028,0.272,0.018,0.732c-0.004,0.152-0.007,0.308-0.007,0.442c0,0.429,0.006,0.899,0.058,1.253c0.183,0.137,0.37,0.274,0.546,0.413c0.002-0.035,0.003-0.07,0.003-0.108c0-0.477,0.1-1.753,0.111-2.106l0.608,0.009l-0.008,0.221c-0.01,0.218-0.093,1.849-0.131,2.47c0.141,0.119,0.279,0.239,0.415,0.36c0-0.005,0-0.008,0-0.012c0.015-0.503,0.066-0.911,0.115-1.306c0.042-0.335,0.085-0.682,0.105-1.084l0.607,0.03c-0.021,0.425-0.066,0.783-0.109,1.129c-0.05,0.399-0.097,0.776-0.111,1.24c0,0.216,0.023,0.323,0.048,0.447c0.012,0.06,0.026,0.125,0.037,0.203c0.234,0.23,0.46,0.462,0.676,0.698c-0.022-0.159-0.039-0.336-0.045-0.55c0-0.439,0.029-0.754,0.058-1.059c0.022-0.234,0.044-0.469,0.056-0.801c0.046-0.29,0.073-0.496,0.088-0.614c0.016-0.121,0.045-0.41,0.34-0.387c0.236,0.016,0.278,0.214,0.285,0.351l0.001,0.139c0,0-0.07,0.324-0.11,0.567c-0.009,0.309-0.032,0.556-0.055,0.802c-0.029,0.305-0.056,0.593-0.056,0.994c0.011,0.371,0.059,0.619,0.111,0.883c0.034,0.177,0.069,0.359,0.092,0.575c0.19,0.238,0.373,0.48,0.546,0.724c-0.14-0.44-0.216-0.949-0.253-1.273l0.002-1.578c0.05-0.462,0.109-1.223,0.109-1.402h0.608c0,0.219-0.063,1.012-0.111,1.435l-0.002,1.509c0.053,0.446,0.137,0.846,0.235,1.145c0.072-0.361,0.144-0.728,0.218-1.104c0.596-3.057,1.269-6.501,2.772-9.435c-6.392-2.572-8.232-5.234-10.354-8.305c-0.651-0.943-1.322-1.914-2.165-2.951C67.644,247.633,66.775,250.523,69.801,254.934z M78.934,232.971c-0.727,1.308-2.855,2.319-5.828,3.433l-0.219,0.082c-2.187,0.817-4.076,1.523-4.115,4.207c0,1.972-0.026,3.733-0.066,4.596l0.919,1.301c-0.001-0.03-0.003-0.056-0.003-0.088c-0.169-0.516-0.063-1.182-0.012-1.508l0.014-0.092l0.602,0.081l-0.016,0.107c-0.042,0.264-0.14,0.882,0,1.253l0.019,0.107c0,0.381,0.037,0.582,0.089,0.862l0.013,0.279l0.176,0.249c-0.001-0.055-0.003-0.109-0.003-0.167l0.029-0.422c0.042-0.595,0.081-1.157,0.081-1.803l0.003-0.044c0.046-0.312,0.073-0.533,0.088-0.66c0.016-0.135,0.042-0.414,0.339-0.399c0.237,0.014,0.279,0.21,0.286,0.355l0.001,0.15c0,0-0.069,0.338-0.11,0.621c-0.001,0.658-0.04,1.225-0.082,1.824l-0.028,0.4c0,0.391,0.03,0.71,0.062,1.046c0.002,0.017,0.003,0.033,0.005,0.05l0.385,0.545c-0.003-0.033-0.005-0.067-0.007-0.101c-0.028-0.37-0.058-0.753-0.058-1.198c0.012-0.409,0.063-0.724,0.113-1.028c0.043-0.267,0.088-0.544,0.112-0.925c0.04-0.25,0.066-0.434,0.082-0.55c0.023-0.162,0.071-0.435,0.347-0.412c0.218,0.016,0.27,0.177,0.282,0.327l0.003,0.274c0,0-0.083,0.26-0.111,0.427c-0.022,0.382-0.07,0.674-0.115,0.956c-0.049,0.299-0.095,0.58-0.105,0.94c0,0.268,0.013,0.512,0.029,0.753c0.19-0.907,0.382-1.704,0.575-2.377c0.542-1.897,2.432-3.271,5.789-4.203c3.103-0.781,4.157-4.043,4.508-5.917c0.431-2.3,1.29-4.032,2.038-5.314c-0.146-0.184-0.308-0.378-0.477-0.57c-0.531,2.122-1.908,5.335-2.973,6.471l-1.14,1.216l-0.355-0.332l1.14-1.216c1.044-1.114,2.486-4.546,2.93-6.572c-0.176-0.184-0.355-0.36-0.53-0.52c-0.146,0.197-0.285,0.376-0.413,0.542c-0.545,0.701-0.905,1.165-1.116,2.061l-0.304,1.291l-0.474-0.111l0.304-1.292c0.236-1,0.643-1.523,1.205-2.248c0.131-0.169,0.275-0.358,0.425-0.559c-0.158-0.123-0.309-0.225-0.446-0.299c-0.057,0.067-0.116,0.137-0.17,0.2c-0.58,0.675-0.963,1.121-1.146,2.095l-0.228,1.216l-0.478-0.09l0.228-1.216c0.163-0.869,0.473-1.371,0.894-1.892C80.903,230.18,79.507,231.943,78.934,232.971z M68.919,221.258c0.185,1.073,1.925,4.947,3.019,5.555l0.228,0.127c1.065,0.593,1.286,0.717,3.542,1.645c2.328,0.958,3.876,1.596,6.467-1.018l0.111-0.613c-0.814,0.215-2.022,0.372-3.226,0.372c-1.184,0-2.357-0.151-3.124-0.547l-1.594-0.823l0.223-0.432l1.594,0.823c1.414,0.729,4.693,0.564,6.223,0.076l0.051-0.279c-0.318,0.042-0.707,0.065-1.138,0.065c-1.731,0-4.135-0.359-5.301-1.218l-1.444-1.064l0.288-0.392l1.444,1.064c1.31,0.965,4.701,1.311,6.243,1.037l0.067-0.369c-0.467,0.054-1.163,0.084-2.149,0.014l-0.072-0.005l-0.068-0.026c-6.713-2.572-4.616-12.063-4.588-12.185l3.47-12.01c-0.17,0.021-0.632,0.032-0.679,0.032c-0.6,0-1.193-0.179-1.743-0.439c-0.68-0.283-1.353-0.702-1.927-1.276c-0.553-0.553-1.5-1.33-2.344-1.74c-0.387-0.144-0.787-0.235-1.229-0.31c-1.276-0.11-2.259,0.04-2.726,0.43c-0.215,0.179-0.323,0.406-0.34,0.702c-0.028,0.78,0.812,0.972,2.703,1.109c0.944,0.069,1.836,0.133,2.397,0.49c1.766,1.145,1.295,2.396,1.109,2.752c-0.09,0.172-0.207,0.329-0.342,0.471c-1.119,2.634-0.745,9.885-0.485,10.705l0.286,0.905l-0.61,0.193l-0.286-0.905c-0.258-0.817-0.643-7.026,0.225-10.303c-0.646,0.272-1.409,0.313-2.066,0.045c-0.75-0.314-1.854-1.033-2.941-2.693c-0.307-0.023-0.849-0.07-1.69-0.144c-1.599-0.141-4.053-0.358-5.321-0.413C65.599,210.487,68.203,217.413,68.919,221.258z M60.494,199.079c0.689,0.495,1.75,0.676,2.436,0.707c-0.379-0.657-0.709-1.665-0.512-2.802c-0.639,0.359-1.567,1.052-1.868,1.697C60.451,198.895,60.466,199.013,60.494,199.079z M68.472,208.683l-0.335,1.146l0.467,0.137l0.335-1.146c0.341-1.167,0.292-3.019,0.176-3.98l-0.483,0.058C68.743,205.819,68.793,207.587,68.472,208.683z M66.271,201.733l-0.16,0.459c0.652,0.227,1.525,0.707,1.783,1.06l0.307,0.419l0.392-0.287l-0.307-0.419C67.926,202.474,66.891,201.949,66.271,201.733z" />
</svg>
