<svg xmlns="http://www.w3.org/2000/svg" width="450px" height="300px" viewBox="0 0 450 300">
  <path fill="#024FA2" d="M0,0h450v300H0V0z" />
  <path fill="#FFFFFF" d="M0,50h450v200H0V50z" />
  <path fill="#ED1C27" d="M139.5,130.043h46.923l-37.961,27.58l14.5,44.626L125,174.669l-37.961,27.58l14.5-44.626l-37.961-27.58H110.5L125,85.417L139.5,130.043z M450,58.333v183.333H0V58.333H450z M191.667,150c0-36.819-29.848-66.667-66.667-66.667S58.333,113.181,58.333,150S88.181,216.667,125,216.667S191.667,186.819,191.667,150z" />
</svg>
