<svg xmlns="http://www.w3.org/2000/svg" width="450px" height="300px" viewBox="0 0 450 300">
  <path fill="#FFFFFF" d="M0,0h450v300H0V0z" />
  <path fill="#727376" d="M311.625,210.84l-0.44-14.85l21.582-0.125l-0.252,2.957c0,0-8.117-0.44-16.171-0.125c0,0.944,0.252,8.997,0.315,9.627c4.027,0.189,16.421-0.44,16.421-0.44l0.063,2.893h-0.063L311.625,210.84z M147.154,210.713l-0.063,0.063l1.006,2.769c0,0,4.657-0.189,11.389-0.252c0.692,7.11,0.818,9.124,0.818,12.773l4.341-2.014c0,0,0.629-8.18,0.629-10.822c0.377,0,12.018-0.063,12.018-0.063l0.315-2.579C161.438,211.279,147.154,210.713,147.154,210.713z M138.597,226.032l3.209-1.728l1.133-29.572l-5.286-0.378C137.653,194.354,138.532,220.642,138.597,226.032z M124.198,208.686c0.269-0.337,5.654-7.348,5.654-7.348l-2.454-3.587c0,0-2.516,0.504-3.46,0.504c-1.447,0-8.62-0.252-8.62-0.252l0.63,3.145c0,0,7.172-0.44,8.619-0.503c-2.391,4.593-10.445,16.611-10.445,16.611l2.202,0.881c0,0,2.581-2.894,6.419-7.613c1.195,1.447,3.776,4.719,4.908,7.11l0.126,0.315l2.642-3.965l-0.125-0.125C130.106,213.673,126.469,210.16,124.198,208.686z M138.598,226.065v-0.033h-0.001l-0.061,0.033H138.598z M131.929,206.372l0.063,0.063c-2.076-0.126-4.53-0.315-4.53-0.315l0.252,3.461c0,0,3.963-0.692,4.341-0.755c0.252,5.285,0.252,15.541,0.252,15.541l3.083-1.511v-0.125c0.063-0.944,0.943-26.489,0.943-26.489l-4.907-0.945C131.426,195.297,131.677,199.073,131.929,206.372z M291.554,198.256v-0.064l0.125-2.265c-3.083,0-9.815-0.44-11.576-0.503l0.44,3.02C280.543,198.444,288.219,198.382,291.554,198.256z M185.158,195.487L185.158,195.487L185.158,195.487L185.158,195.487z M152,209.077l-0.063-0.063c0,0,7.613-3.461,11.073-5.348c3.02,1.762,8.243,4.719,9.942,5.663l0.188,0.063l1.826-3.65c0,0-8.558-3.271-9.25-3.523c0.566-0.315,6.984-3.587,6.984-3.587l-3.397-3.02c-2.831,1.195-17.869,0.44-17.869,0.44l0.252,2.579c0,0,10.759,0.064,11.64,0.064c-4.53,4.09-13.905,9.186-13.905,9.186L152,209.077z M206.425,207.127h0.063l-0.125-2.706c-2.517,0.315-12.647,0.378-16.108,0.19v-2.266c4.908,0,10.193,0.063,15.981,0.315v-2.642c-4.782,0.189-8.934,0.377-15.918,0.125v-1.951c4.216,0.126,11.137,0.19,16.045,0.064l0.063-2.581c-9.501,0.189-18.435,0.252-21.267-0.188l0.566,11.451C188.555,207.001,197.994,206.875,206.425,207.127z M270.098,194.732l-0.063-0.063l-0.003,0.059L270.098,194.732z M270.033,194.728l-5.471-0.374c0,0,0.88,26.363,0.943,31.711l3.46-1.761l0.567-15.478c1.762,0.315,5.159,0.818,5.159,0.818c0.126-1.07,0.251-3.335,0.251-3.335s-3.648,0.252-5.347,0.378L270.033,194.728z M184.968,215.433l0.442,2.517c8.431-0.252,16.359-0.064,16.359-0.064s0.377,6.355,0.314,8.18l3.964-1.888l1.006-8.809C207.053,215.369,189.373,215.496,184.968,215.433z M298.663,226.065l3.46-1.761l1.133-29.572l-5.537-0.378C297.72,194.354,298.6,220.717,298.663,226.065z M324.651,219.962c0.005-0.186,0.312-7.423,0.312-7.423l-5.536-0.44c0,0,0.377,6.103,0.566,7.928c-4.908,0-13.276-0.315-13.276-0.315l0.315,3.02c0,0,16.485-0.377,29.761-0.188l0.189-2.894C336.982,219.648,331.508,219.899,324.651,219.962z M262.233,201.401l-2.957-3.46c-1.07,0.189-2.516,0.503-3.963,0.44c-3.398-0.063-7.174-0.189-9.376-0.315l0.693,3.335c5.474-0.252,9.627-0.629,9.627-0.629c-1.51,2.643-7.866,11.199-11.892,16.359l2.076,1.006c1.636-1.447,4.341-4.405,7.173-7.425c1.384,1.384,4.09,4.153,6.481,7.173l2.139-4.278c-1.95-1.51-5.034-3.46-6.984-4.719c2.831-3.083,5.537-6.103,6.922-7.55L262.233,201.401z M294.26,203.603h-0.064l-2.957-3.083c-0.944,0.252-2.768,0.44-4.278,0.44c-3.524-0.063-6.543-0.252-8.934-0.252l0.755,3.335c3.272-0.252,9.122-0.818,9.122-0.818c-1.887,3.02-7.235,9.627-11.136,14.22l2.202,1.007c1.887-1.636,4.405-4.027,6.922-6.481c3.586,3.272,6.355,6.481,6.355,6.481l2.264-4.153c-2.139-1.51-4.971-3.271-6.669-4.278L294.26,203.603z M215.611,209.769l-1.321-13.717l4.719,0.44l0.125,4.279c1.133,0,4.404,0.063,5.914,0l-0.125-5.097l4.593,0.44l-0.755,13.717v-0.063C223.601,209.518,215.611,209.769,215.611,209.769z M219.449,207.567l5.851-0.063l-0.125-4.153c-0.897-0.047-2.678-0.094-4.336-0.088c-0.553,0.002-1.092,0.01-1.58,0.026h0.064L219.449,207.567z M181.068,209.957h-0.063l1.006,2.769c14.912-0.566,28.817-0.315,28.817-0.315l0.315-2.579C194.973,210.524,181.068,209.957,181.068,209.957z M225.866,222.353v0.125l-0.378-2.453c5.285,0.126,12.458-0.127,12.458-0.127l0.755-6.795c-4.404,0.378-19.002,0.063-19.002,0.063l0.63,2.642c2.391,0,11.639-0.125,13.59-0.125l-0.188,2.266c-2.831-0.063-10.318-0.189-13.59-0.378l1.447,7.235c6.04-0.126,17.617-0.125,17.617-0.125l0.252-2.769C236.248,222.416,229.704,222.416,225.866,222.353z M235.178,199.387c-1.384-0.252-3.649-0.691-4.215-0.691l0.127,3.208l4.153-0.378c0,1.007,0.063,2.077,0.063,3.209c-1.447-0.063-3.524,0.063-4.53-0.063l-0.063,2.768l4.656-0.503c0.063,1.573,0.062,3.273,0.125,5.16l3.272-1.385c0.126-1.321,1.196-11.073,1.511-15.981l-5.286-0.378C235.052,196.053,235.115,197.689,235.178,199.387z" />
  <path fill="#F58430" d="M151.961,274.395c41.458-29.188,110.378-37.782,162.466-0.807l-3.922,19.694H151.961V274.395z M265.646,36.583c-0.176-0.185-0.353-0.185-0.529-0.37c-0.882-0.185-1.763,0.555-2.997,1.479l-1.058,0.739c-3.526,2.033-6.347,11.276-6.876,15.158c-0.176,0-0.176,0.185-0.353,0.185c-2.116-3.882-6.171-7.579-10.403-8.133c1.587,6.655,7.229,26.619,14.634,24.77c3.703-0.924,11.637-17.376,11.637-26.619v-0.37c0-4.806-2.116-6.47-4.055-7.209L265.646,36.583L265.646,36.583z" />
  <path fill="#027EC2" d="M10.67,263.425c-5.912,0.009-8.565,0.048-10.67,0.083v36.491h238.955l9.13-13.884C158.749,265.172,48.771,263.366,10.67,263.425L10.67,263.425z M225.975,141.764c0.882,0.185,1.939,0.185,2.468,0.924c0.529,0.555-0.529,1.294-0.353,2.033c0,1.664,0.529,2.958,0.529,4.621c0,0.185-0.176,0.555-0.353,0.739l-1.058,1.109c-1.234,0.924-2.997,0.555-4.408,0.924c-1.939,0.555-4.055,0.924-5.995,1.109c-3.526,0.37-7.053-0.37-10.579-0.555c-1.411,0-2.821,0.185-4.055,0.555c-1.587,0.37-3.35,0.37-4.937,0.37c-8.64-0.37-17.103-0.555-25.742-0.37c-1.587,0-3.174,0.185-4.761,0.37c-6.876,0.37-13.929,0.37-20.805,0.555c-2.468,0-4.761,0.185-7.229,0c-1.411,0-2.645,0-3.879,0.185c-5.113,0.185-10.403,0.555-15.516,0.37h-5.995c-5.818,0.37-11.637,1.294-17.279,0.924c-4.232-0.185-8.287-1.294-12.166-3.327c-2.645-1.479-4.761-3.512-6.171-5.73c1.058-1.294,2.468-1.849,4.055-2.218c3.879-1.109,7.405-1.849,11.284-2.588c3.35-0.555,6.347-0.924,9.521-1.109c41.611-3.882,88.159-2.403,106.319-1.109c6.171,0.37,11.813,1.294,17.632,2.588L225.975,141.764z" />
  <path fill="#00AC83" d="M168.832,300H450v-32.072C352.684,257.289,248.603,274.731,168.832,300z M315.544,138.252c-9.345,0.37-12.342-0.185-21.334,2.958c-1.234,0.37-2.292,1.294-3.35,2.588c0.176,2.033-1.058,5.176,0.705,5.915c0.176,0,0,0.37,0.176,0.555c0.529,0.555,1.058,0.555,1.587,1.294c0.353,0.555,0.705,0,1.058,0.185c0.176,0.185,0.176,0.555,0.353,0.555c0.882,0.37,1.763,0.185,2.645,0.739c0.529,0.37,0.882,0.37,1.411,0.37c0.353-0.185,0.705,0.555,0.705,0.739c1.763,0.739,3.174,0,4.937,0c5.113,0,4.232-0.555,9.345-0.739c4.408,0,8.463,0.555,12.871,0.555c2.292,0,4.937,0,7.229-0.185c4.055-0.185,8.287,0.37,12.342,0.555c2.116,0,4.408,0.739,6.524,0.924c2.292,0,4.408-0.555,6.7-0.185c0.705,0,1.411,0,2.116,0.37s1.411,0.739,2.116,0.739c1.939,0.185,3.703-0.555,5.642-1.479c1.234-0.37,2.292-0.555,3.35-1.294c0.529-0.185,1.058-1.109,1.234-2.033c0.529-1.664,1.058-3.327,0.353-5.176c-0.176,0-0.353,0.185-0.529,0c-0.176-0.37-0.176-1.109-0.353-1.109c-0.882-0.37-1.587-0.37-2.468-0.555c-1.058-0.185-2.292-0.739-3.35-0.924c-5.113-1.294-34.382-5.915-52.014-5.176v-0.186H315.544z" />
  <path fill="#373435" d="M331.06,112.372c-0.353,0.185-0.529,0.555-0.705,0.739v0.555c-0.353,0-0.529,0-0.529-0.185c-0.529,0.739-1.234,1.294-1.763,2.033c-0.529-0.185-0.705,0.185-1.058,0.185c-0.529,0,0,0.739-0.529,0.739s-1.058,0.185-1.234,0.555c-0.529,0.185-2.292-0.185-2.821,0.185l-0.176-0.185c-0.353,0.185-0.529,0.555-1.058,0.555c0-0.185,0-0.555-0.176-0.555c-0.353,0.739-1.411,1.294-2.116,0.924c-0.176-0.555-0.176-0.924-0.705-1.109c-0.176-1.664-0.176-2.958-1.058-4.252c0.176,0,0.176-0.185,0.176-0.37c-0.524-1.71-0.977-3.612-2.116-4.991c0.176-0.185-0.353-0.37-0.176-0.739c-0.353-0.37-0.529-0.739-1.058-1.109c-0.353,0-0.353,0.185-0.529,0.37c-0.176,1.109-1.234,2.033-1.411,3.142l-0.176-0.185c-0.176,0.739-0.882,1.109-0.882,1.849c-0.353,0.185-0.529,0.924-1.058,1.109v0.37c-1.411,1.294-2.116,3.512-3.879,4.436c-0.353,0.924-1.411,1.109-1.939,2.218c-0.705,0-1.587,0.185-2.292,0.555c-0.529-0.185-1.234-0.739-1.763-0.185c0-0.185-0.353-0.185-0.529-0.185l-0.176,0.185c-0.529-0.555-1.234,0-2.116-0.185c-1.587-1.294-3.35-1.849-5.113-2.958c-0.529,0,0-0.739-0.529-0.739c-0.176,0-0.529,0-0.705-0.185c0-0.739,0.176-1.294-0.529-1.849l0.176-0.185c0-0.185-0.176-0.185-0.529-0.185c-0.176-1.664-1.058-2.958-1.234-4.436c-0.922-0.433-0.396-1.919-1.058-2.588c-0.176-1.109,0.705-1.849,0.176-2.958c0-0.185,0-0.555,0.176-0.739c-0.176-1.294,0-2.033,0.176-3.327c-0.176,0-0.176-0.185-0.176-0.554c0.811-1.824,0.273-3.528,1.586-5.176l-0.176-0.185c0.529-0.555,0.176-1.294,1.058-1.664c0-0.185,0-0.555-0.176-0.555c0-0.555,0.529-0.739,0.705-0.924c0.176-0.555,1.234-2.403,1.763-2.773l-0.176-0.37c0.915-1.281,3.651-0.965,4.761-0.185c0.353,0.555,0,1.109,0.353,1.849h0.353c0.026,0.27-0.142,0.846,0.353,0.739c0.176,0.739,0.529,1.479,0.353,2.218c0,0.185,0.176,0.185,0.353,0.185c-0.176,0.555,0.353,0.924,0.353,1.479c-0.353,0.555,0,1.294-0.176,2.033c0.963,3.048,0.429,6.828,3.35,8.873h2.468c0-0.555,0.529,0,0.529-0.555c0.529,0,1.411-0.185,1.763-0.924h0.353c0.353-0.739,1.058-1.294,1.763-1.294c1.058-1.294,1.94-2.403,2.997-3.697c0-0.555,0.176-0.924,0.529-1.294c0.422-3.058,2.164-6.278,2.116-9.427c0.176,0,0.353,0,0.353-0.185c-0.176-0.924,0.353-1.479,0.882-2.033c0.353,0,0.705,0,1.058-0.555v-0.555c1.058,0,2.116,0.739,2.821,1.664h1.234c0,0.555,0.176,0.555,0.529,0.739c1.058,0,3.35-0.185,4.408,0.185c0,0.739,1.058,0.555,1.234,1.294s0.176,1.479,0.705,2.218c0,0.185,0,0.555-0.353,0.739c0.529,0.739,1.058,2.033,0.353,2.773c0.176,0.924,0,2.218,0.529,3.327c-0.529,0.555-0.176,1.294-0.176,1.664c0.529,0.924,0.529,2.218,0.705,3.512c1.058,1.294,0.705,2.773,1.587,4.067v1.479c0.529,0,0,0.739,0.529,0.739C331.765,109.045,331.06,110.894,331.06,112.372z M253.128,135.294h0.22C253.216,135.202,253.128,135.109,253.128,135.294z M248.445,143.07c-0.019-0.007-0.041-0.013-0.078-0.013C248.367,143.162,248.397,143.143,248.445,143.07z M254.983,128.367l-0.092-0.097C254.891,128.355,254.93,128.376,254.983,128.367z M274.286,108.121c-0.486,0.371-0.842,1.324-0.176,1.479l-0.353,0.37l0.353,0.37l-0.353,0.37c0.353,0,0.353,0.37,0.353,0.739c-0.529,0.739,0.529,1.664-0.353,2.588c0.353,0.37,0.353,0.739,0.353,1.109c-0.882,0.739-0.353,2.403-1.058,3.512l0.353,0.37l-0.353,0.37l-0.353-0.37c-1.231,0.552,1.096,1.923,0,2.773l0.353,0.37c-1.338,0.88-1.218,2.4-2.116,3.512c0.353,0.37,0.353,0.739,0.353,0.924c-0.529,0.739-0.882,1.479-1.587,2.033c0,0.37,0.353,0.924-0.353,1.294l0.353,0.37c-0.353,0.739-0.529,1.664-0.882,2.403c0.353,0,0.353,0.37,0.353,0.739c-0.882,0.739-1.939,1.479-1.587,2.773c-0.529,1.109-1.411,1.479-1.939,2.403c0.353,0.739-1.058,0.924-1.058,1.664s-0.882,0.37-0.529,1.109l0.353,0.37h-0.529c-0.353,0.739-0.353,0.739-0.882,1.109c0,0.37,0,0.739-0.353,0.739c-0.529,0.37-0.882,0.924-1.411,1.664c0.353,0.37-1.058,1.109-0.705,1.109c-0.353,0.37-0.705,0.555-0.705,1.294c-0.619-0.059-0.771,0.203-0.705,0.739c-2.907,2.675-6.402,4.465-9.168,7.394c-0.705,0.37-1.234,0.555-1.94,0.924s-0.353,1.294-1.058,0.924c0-0.37-0.882,0.37-1.234,0.37c-0.705,0.555-1.763,0.185-2.292,0.185c0-0.37-0.353-0.185-0.705-0.555l-0.353,0.37c-0.353-0.37-1.058-1.109-1.234-1.109c-0.353-0.37,0.353-0.739,0-0.739l0.353-0.37c0-0.37-0.529-0.37-0.882-0.37c-0.529-0.739,0.705-0.185,0.353-0.924l-1.234-0.185c-0.353-0.739-0.882-0.739-1.058-1.294c0-0.739,1.411-0.555,1.411-1.294c0.705,0,0.353,0,1.058-0.37l-0.176-0.555c0.705-0.37,0.529-0.924,0.882-0.924c0,0.37,0.176,0,0.529,0c1.478,0.123-0.113-1.542,1.763-1.294c1.411-1.294,0.529-0.37,1.939-2.033v-0.739c0.353-0.37,0.353-0.924,1.058-1.294c0,0.37,0,0.739,0.176,0.739c1.058-0.555,0.353-0.924,0.176-1.664c0.353-0.37,0.353-0.37,0.705-0.555c0,0.331,0.42,0.071,0.254,0.013c0.122-0.185,0.374-0.752,0.627-0.752c0.705-1.294,0.176,0.185,1.411-2.033c0.176-0.185,0.882-0.555,0.882-0.739c0,0,0.705-0.37,0.529-0.739c0-0.185,0-0.37-0.529,0c0.353-0.739,1.411-1.664,1.587-2.403c0.745,0.313,0.364-0.689,0.652-1.008c-0.094-0.003-0.182-0.049-0.255-0.101h0.837c0.705-0.555-0.882-0.555-0.353-1.294c0-0.37-0.176-0.555-0.353-0.555c0-0.37-0.176-0.555,0.176-0.555l0.353,0.37c0.353-0.37-0.353-1.479,0.353-1.849v-1.109c0.882-0.739,0.529-0.555,0.882-1.664l-0.26-0.273c0.178-0.033,0.532-0.467,0.26-0.467v-0.739c0.529-0.37,1.058-2.588,1.058-3.327c0,0.739-0.705-1.479-0.176-1.294c0.882-1.479,0.353-3.327,0.353-4.991c-0.705-0.185,0.529-0.739,0.176-1.294c-0.353,0-0.705,0-0.705-0.185c0.353-0.37,0.353-0.37,0.529-0.739c0-0.37,0-0.739-0.353-0.555c0-0.37,0-0.739,0.176-0.739c0-0.37,0-0.739-0.353-0.555c0.577-0.449,0.808-1.372-0.176-0.924c0.097-0.815-0.283-1.463-0.56-2.126c-0.144,0.447-0.182,0.489-0.674,0.833c-0.455-0.301-0.533-0.18-0.529,0.37c-0.705,0-1.411,1.294-2.292,1.109c-0.176,0.37-0.529,0.739-0.705,0.924h-0.882c-0.176,0.555-0.882,0.555-1.058,0.924c-1.587,0.37-2.821,1.479-4.232,1.849c-0.176,0.185-0.176,0.185-0.529,0.37c-0.176-0.185-0.705-0.185-1.058-0.185c-0.529,0.739-1.587,0.555-2.468,1.109v0.555c-0.353-0.185-0.529-0.185-0.529-0.37c-0.529,0.555-1.411-0.37-1.939-0.185c-0.176,0.37-0.176,0.37-0.529,0.555c-1.18-0.603-2.577,1.032-3.703,0.185c0,0.555-0.882,0-0.882,0.555c0,0-5.29,0.739-8.463,0.37c-0.529-0.555-2.997,0.185-3.526-0.37h-0.529c0-0.37,0-0.555-0.353-0.555c-0.529,0.185-0.705-0.37-1.234-0.185l-0.353,0.185c0-0.185-0.176-0.185-0.529-0.185c-0.705,0.555-1.234-0.185-2.116-0.37c0,0.185,0-0.37-0.353-0.37c-0.529-0.555-1.234-0.924-2.116-0.924c-0.176-0.37-0.705-0.555-1.058-1.109l-0.353,0.185c0-0.185-0.176-0.185-0.529-0.185c-0.705-0.924-0.882-0.555-1.763-0.739l-0.882-0.739c-0.314-0.725-0.357-0.883-1.41-1.294c-0.353-0.185-0.882-0.739-1.058-1.294c-0.353-0.37-1.234-1.109-1.234-1.109l1.058,0.185l-0.529-1.109c0.176-0.555-0.705-0.37-0.705-0.555c-0.529-0.185,0.176-0.739-0.176-1.294c-0.176,0-0.705-0.37-0.705-0.555c0.353-0.555-0.529-0.924-0.882-1.479c0-0.37,0.176-0.739-0.176-0.739c-0.529-0.739,0.529-0.739-0.353-1.294c0-1.109-0.176-2.958-0.353-4.067c0.176-2.218,0.705-3.143,0.705-5.176c0.705-0.555,0.705-1.664,1.058-2.588c0.353,0,0.705-0.739,0.705-0.924c-0.353,0-0.353-0.37-0.353-0.555c0.176-0.185,0.529-0.37,0.529-0.924c0.176,0,0.529,0,0.529-0.185c-0.176-0.37,0.353-0.739,0.353-0.924c1.587-1.109,2.645-2.588,4.055-3.882h0.529c0.529,0,0-0.739,0.529-0.739c1.587,0,2.292-0.924,3.174-1.664h0.882c0.176-0.37,1.058-0.37,1.587-0.555c0-0.739,1.058,0,1.058-0.555c1.763,0.739,3.526-0.185,5.113,0.37c0.529-0.37,1.058-0.185,1.587-0.185c0.176,0.555,1.058-0.185,1.058,0.555c0.176-0.37,0.176-0.37,0.529-0.555l0.353,0.185l0.353-0.185c1.058,0.555,2.116,1.294,3.174,1.479c0,0.555,0.705,0.739,1.058,1.294h0.529c0.988,0.833,1.087,1.64,1.939,2.403c-0.176,0.739,0.353,1.294,0.353,2.033c0.176,0.37,0.176,0.37,0.529,0.555c0,1.664,0.705,2.588,0.353,4.436c-0.529,0.37-0.176,1.479-0.529,1.664c0,0.924-0.882,1.849-1.411,2.588c-0.353,1.664-0.353,2.033-1.411,2.773c0.353,0.185-0.529,0.924-0.529,1.109c-1.058,0.185-0.529,0.739-1.411,1.294c-0.176,0-0.353,0.37-0.705,0.924c0,0.185-0.705,0.739-0.705,0.924c-0.705,0.739-2.116,0.555-2.645,1.294c-0.783,0.365-2.206,0.895-0.882,1.664v0.555c0.705,0.37,1.234,1.109,2.116,1.109c0.882,0.739,1.587,0.924,2.997,0.739c0.176,0.555,0.705,0.555,1.058,0.739c1.411,0,2.645,0.739,4.055,0.185c0,0.37,0.882-0.185,0.882,0.37c1.587-0.37,2.997-0.185,4.584-0.37c0.176-0.37,1.411,0,1.587-0.555c0,0.185,0.176,0.185,0.529,0.185c1.587-0.555,2.821-0.924,4.408-1.664c0.705-1.294,2.116-1.109,2.997-2.033l0.353,0.185c0.353-0.739,0.529-1.479,1.411-1.664c0.176-0.555,0.705-0.555,0.882-0.924c0.176,0,0.529,0,0.529,0.185c0.498-0.174,0.691-0.997,1.448-1.247c-0.009-0.077-0.019-0.154-0.037-0.232c0.353-0.37-0.529-0.739-0.529-1.109c-0.705-1.664-0.529-2.958-1.058-4.621c-0.529,0.555-1.058-4.621-1.587-6.655c-0.882-1.294-0.353-2.773-0.705-4.252c0.353,0,0.705,0,0.705-0.37c-0.353-0.924,0.529-1.479,0.705-2.588c0.705,0,1.234-0.555,2.116,0c0.705-0.37,0.176-1.109,0.176-1.479c1.411-0.185,2.292-0.37,3.703-0.555c0,0.37,0,0.739,0.353,0.739c1.058-0.185,1.411,0.555,2.468,0.37c0,0.37,0,0.739,0.353,0.739c0.705-0.185,1.058,0.185,1.411,0.555c0.353,0,0.705,0,0.705-0.37l0.353,0.37l0.353-0.37c0.353,0.37,0.705,0.185,1.058,0.185c0.353,0.37,0.529,1.294,1.058,0.924c1.508,2.711,3.995,4.899,4.584,7.949c1.939,1.849,1.587,5.176,2.821,7.394c-0.529,0.739-0.176,1.849-0.353,2.588c0.353,0.37,0.353,0.37,0.705,0.555C273.228,104.794,274.462,106.457,274.286,108.121z M223.154,90.745c0-0.185-0.176-0.185-0.529-0.185c-1.411,0.555-2.821,0.924-3.879,2.033v0.555c-0.529,0.555-0.882,1.294-1.234,1.849l0.353,0.37c-0.882,0.555-0.176,1.849-1.058,2.403c0,0.37,0,0.555,0.353,0.555c-0.353,0.739,0.529,1.294,0,1.849c0.176,0,0.529,0,0.529,0.185c-0.176,0.555,0.353,1.294,0.353,1.849c0,0.185,0.176,0.185,0.529,0.185c2.821-2.033,4.232-4.991,4.408-7.209l-0.353-0.185c0.529-0.37,0-0.924,0.529-1.109C223.506,92.963,224.035,91.854,223.154,90.745z M270.759,92.039c-0.106-0.254-0.248-0.491-0.353-0.739L270.759,92.039z M174.137,53.22l0.049,0.102C174.233,53.266,174.238,53.22,174.137,53.22z M189.488,53.614c-0.003-0.008,0.001-0.012-0.011-0.025c-0.032,0.034-0.033,0.043-0.036,0.055c0.015,0.001,0.02-0.003,0.03-0.005C189.478,53.632,189.481,53.624,189.488,53.614z M202.701,58.026c0-0.37-0.176-2.033,0-2.218c0-0.37-0.705-0.185-0.529-0.37c-0.341-0.227-0.289-0.633,0-0.924c-0.176-0.739-0.882,0.185-1.058-0.37l0.529-0.924c-0.353-0.555-1.411-0.924-1.939-1.109c-0.353,0.37-0.353,0.185-0.882,0.555l-0.176-0.37c-0.529,0.37-0.882,0-1.058,0.185c0.176,0.185-0.176,0.185-0.353,0.37c-0.176,0.185-0.353,0.37-0.529,0.37c-0.38-0.41-0.898-0.309-1.234,0.185c-1.587,0.185-4.937,0.37-5.29-0.185c-0.353,0.185-0.353,0.185-0.705,0.185c0.079,0.082,0.049,0.16,0.011,0.21c0.005,0.013,0,0.022-0.017,0.025c-0.025,0.023-0.035,0.023-0.03,0.005c-0.178-0.007-0.712-0.149-0.846,0.13c-1.234,0-3.879,0.37-3.35,0c-0.705,0-1.763,0.37-2.292,0c-0.159,0.836-0.891-0.28-1.161-0.093c-0.053-0.082-0.526-0.052-0.25,0.093v0.37c-0.705,0.185-0.882-0.555-1.587-0.185c-0.176-0.185-0.353-0.185-0.176-0.555c-0.176-0.185-0.353-0.185-0.529,0l0.176,0.37c-0.353,0.185-1.058-0.739-1.587-0.37c-0.176-0.185-0.529-0.185-0.705-0.37c-0.882,0.555-1.763,0.555-2.821,0.555l-0.128-0.268c-0.118,0.14-0.527,0.347-0.401,0.083c-0.353,0-0.353,0-0.529-0.185c-0.504,0.353-2.277,0.369-2.901,0.37c-0.02-0.117-1.154-0.841-1.154-0.37c-1.411,0.555-2.997-0.37-4.408-0.37c-0.176-0.555-0.705,0.37-1.234,0c0.586-1.393-1.791,0.572-1.763-0.555c-0.353,0-0.529,0-0.705,0.185c-0.353,0-0.529,0-0.529-0.37c-0.417,0.189-1.485,1.401-1.234,0.185c-1.234,0.185-1.94-0.924-3.174-0.555c0-0.185-0.176-0.37-0.529-0.37c-1.058,0.739-2.468,0-3.526,0.37c-0.176-0.555-0.705-0.37-1.411-0.37c-0.353,0.185-0.529-0.37-0.882-0.37c-1.234-0.555-2.468-0.37-3.703-0.555c0.529-0.555-3.879-0.555-5.642-0.924c-1.058-0.555-2.292,0-3.526-0.37c0,0.37-0.176,0.555-0.353,0.555c-0.882-0.37-1.234,0.555-2.292,0.924c-0.176,0.555-0.705,0.924-0.529,1.294c-0.353,0.555-0.529,0.739-0.705,0.739c-0.176,1.109-0.353,1.109-0.705,2.218c0.353,0,0.529,0,0.529,0.37c-0.176,0.924,0.353,1.109,0,2.033c0.353,0,0.529,0,0.529,0.37c-0.176,0.555,0,0.924,0.353,1.109c0,0.37-0.176,0.555-0.353,0.555l0.176,0.37l-0.353,0.185c0.176,0.37,0.176,0.555,0,0.924c0.176,0.37,1.058,0.37,0.705,0.924c2.116,1.294,3.703,2.773,5.818,3.697c0.372-0.203,1.007-0.202,1.411-0.185c1.411,1.479,4.232,1.109,5.995,2.033c0.705-0.555,1.587-0.185,2.116-0.555c0.176,0.37,0.176,0.37,0.529,0.555c1.723-0.788,3.348,1.142,4.761-0.37c0.353,0,0.529,0,0.529,0.37l0.353-0.185l0.176,0.37l0.353-0.185c-0.176,0.37,0.176,0.37,0.529,0.37c0.705-0.555,1.234,0.185,2.116-0.555c0.176,0.37,0.529,0.37,0.705,0.37c0.882-0.739,1.234,0,2.292-0.37l0.176,0.37l0.353-0.185l-0.176-0.37c0.176-0.37,0.353-0.185,0.705-0.185c0.312,0.218,0.504,0.56,0.789,0.694c0.24,0.978,0.54,2.096,0.798,2.818c0.175,0.042,1.012,0.876,0.529,1.479c0.353,0.555,0.705,1.294,1.058,1.849c-0.176,0-0.353,0.185-0.353,0.555c0.385,1.202,0.198,2.348,0.882,3.697l-0.176,0.555c-0.176,0.37,0.176,0.924,0.176,0.924c0.176,0.924,0,0.185,0.705,0.924c-0.529,0.739,0.353,2.033-0.176,2.773c0.353,0.37,0.353-0.185,0.353,0.185c-0.176,0.185-0.176,0.185-0.176,0.37c-0.176,0.185,0.176,0.37,0.353,0.37c0.176,0.555-0.176,0.924,0.176,1.479c0.176,0,0,0.739,0.176,0.739c0,0.555,0.705,0.555,0.176,0.924c-0.176,0-0.176,0.924-0.353,1.664c0.176,0.185,0,1.479,0,1.664c0.176,0,0.353-0.185,0.353,0s0,0.185-0.176,0.37c0.535,0.564-0.082,1.861-0.529,2.403c-0.176,1.479,0.529,2.588-0.529,3.143c0.353,0.37,0,0.739-0.176,0.924c-0.353,0.185-0.176,0.924-0.529,0.924c-0.353,0.924-0.529,0.739-0.882,1.664c-0.529,0.37-0.705,0.739-1.234,1.109c-0.176,0.185-0.176,0.185-0.176,0.37c0,0.185-0.353,0.185-0.529,0.185c-0.353,0.37-1.587,0.924-1.763,1.479l0.176,0.185c-1.355,0.6-2.603,1.474-4.055,1.849c-0.705-0.185-1.411,0.37-2.116,0.185c-0.353,0.185-0.529,0.37-0.882,0.555c-0.353-0.185-0.882,0.185-1.234-0.185c-0.353-0.185-0.353,0.555-0.705,0.555c-0.202,0.052-0.374-0.223-0.529-0.37c-0.529,0.37-1.058,0-1.587,0.185l-0.176-0.185c-0.529,0.37-1.058,0-1.411,0.37c-0.529-0.37-1.587-0.37-2.292-0.37c0-0.185-0.176-0.185-0.353-0.37l-0.353,0.185c-0.197-0.24-1.775-0.166-2.116-0.185l-0.176-0.185l-0.353,0.185c-0.353-0.37-2.292-0.555-2.821-1.109c-1.287,0.764-5.296-0.861-5.466-0.739l-0.176-0.37c-0.705,0.37-1.763,0-1.939-0.555c-0.176,0-0.529,0-0.705-0.185c-0.176-0.555-1.587-0.37-1.94-1.109c0,0-0.705-0.555-1.058-0.924c-0.529,0.37-1.587-1.109-1.939-1.294h-0.705l-0.353-0.924l-1.058-0.924c-0.353-0.924-0.882-0.185-1.058-0.924l-0.529,1.294c-0.176-0.555-0.882-0.739-1.234-0.739c-0.353,0-0.882,0.739-1.234,0.185c-0.081,0.304-1.464,1.918-2.292,1.479c-0.176,0.924-0.176,0.924,0.529,2.958c0.353,0,0.705,2.033,1.058,2.033c-0.176-0.739,0.882,1.664,1.234,1.849c0.238-0.021,0.97,0.255,0.529,0.739c0.314,0.314,1.775,0.887,1.058,1.479c0.705,0,1.234,0.555,1.939,0.739c0.176,0.185,0,0.37,0,0.555c0.176,0,0.353,0.185,0.529,0c0.529,0,0.176,0.555,0.176,0.924l0.353-0.185c0,0.37,0.529,0.555,0.529,0.555c0.705,1.109,3.879,2.403,4.761,3.327l0.353-0.185c0.176,0.555,1.763,0.739,1.763,1.294l0.353-0.185c0.176,0.185,2.292,0.739,2.821,1.109c0.353-0.185-0.176-0.555,0.176-0.739c0.353,0.37,1.058,1.109,1.411,1.294c0,0,0.882,0,1.587,0.185c1.069,1.064,3.011,0.135,4.055,1.109l0.353-0.185l0.176,0.185c0.705-0.37,1.058,0,1.411-0.37l0.176,0.185l0.353-0.185c0.176,0.185,0.176,0.185,0.176,0.555c0.882,0.185,1.763,0.555,2.645,0.185c0.442,0.612,0.751,0.235,1.234,0c0.705,0.185,0.705,0.37,1.587,0.37l0.176,0.185c0.882-0.555,1.587-0.37,2.468-0.185c0.176-0.37,0.705,0.185,0.882-0.37l0.176,0.37c0.705-0.555,1.94-0.185,2.645-0.37l0.176,0.37c0.353-0.185,0.176,0,0.176,0c0.705-0.37,2.292-0.37,2.645-0.739c0.882,0.185,0.882,0.37,2.116,0.185c0.176,0,0.705,0.185,1.058,0.185c1.058-0.739,1.763-0.739,2.645-0.185c1.058-0.185,2.468-0.924,3.35-1.479c0.615,0.162,1.086,0.351,1.587-0.37c1.058-0.37,1.94-0.739,2.821-1.479c0.176,0.37,0.705-0.185,0.882,0c0.176-0.185,0.176-0.185,0.176-0.37c0.529,0.185,0.882-0.555,1.411-0.37c0.176-0.185,0.176-0.185,0.176-0.37c0.705-0.185,0.529-0.555,1.234-0.739c0.705-0.37,1.587-2.033,2.997-2.588c0-0.555,0.882-0.739,1.058-1.109c0.176-0.185,0.353-0.185,0.529-0.185l-0.176-0.185c0.353-0.185,0.176-0.924,0.529-0.555c0.176-0.185,0.529-0.739,0.353-0.924c0.705-0.555,0.705-2.403,1.763-2.773c0.176-0.185,0.176-0.185,0.176-0.37c0.353-0.555,0.176-1.664,0.529-1.849c0-0.185,0-0.37,0.176-0.37c0.353-0.924,0.529-2.218,0.705-3.327c-0.176,0-0.176-0.185,0-0.555c0.176,0,0.353-0.185,0.353-0.37c-0.176,0-0.176-0.37,0-0.555l0.353-0.185c-0.353-0.185,0-0.739-0.353-0.739l0.353-0.185c-0.353-1.109,0.176-2.218-0.176-3.143l0.353-0.185c-0.529-0.555-0.353-1.294,0-1.849c-0.176-0.37,0-0.555,0-0.739c-0.529-0.37,0.176-0.739-0.176-1.109c0.176-0.739-0.529-1.294,0-2.033c-0.353-0.555-0.353-0.739-0.705-1.294c0-0.185,0.176-0.555,0.176-0.739c-0.176,0-0.353-0.185-0.353-0.37c0.353-0.37,0-0.739,0.176-1.109c-0.353,0-0.176-0.555-0.353-0.739c-0.176-1.294-0.529-2.218-1.058-3.142c0.353-0.37-0.353-2.218-0.353-2.773l-0.353-0.185c-0.176-0.555-0.353-0.924-0.705-1.109v-0.555c-0.443,0.128-0.349-0.635-0.353-0.924l-0.176,0.185c-0.353-0.37-0.529-0.924-0.529-1.479c-0.705-1.109-1.058-2.033-2.292-3.697c-0.529,0.37,0-0.924-0.529-0.555c-0.529-1.479-1.058-1.849-1.94-2.588v-0.162c0.109-0.014,0.225-0.023,0.353-0.023c0.353,0.555,1.234-0.555,1.587-0.185c0.529,0.185,0.529-0.37,0.882,0v0.37l0.353-0.37c0.705,0,0.705,0,1.234-0.185c0.176,0.185,0.529,0.37,0.705,0c0.529-0.185,1.058-0.185,1.763-0.37c0.176,0.37,0.705-0.185,0.529,0c0.353-0.185,0.705-0.185,1.234,0.185c0.176-0.185,0.353-0.37,0.529-0.37c0.349,0.21,0.716,0.347,0.882-0.185c3.174-0.37,4.937-1.849,8.111-1.849c0.529-0.185,1.058-0.555,1.587-0.739s1.058,0.37,1.234-0.185c-0.176-0.185,0.705-0.37,0.882-0.555c0.705,0,1.234-1.479,1.587-2.033c-0.176-0.185,0-0.37,0-0.739C202.351,58.026,202.701,58.026,202.701,58.026z" />
</svg>
