<svg xmlns="http://www.w3.org/2000/svg" width="450px" height="300px" viewBox="0 0 450 300">
  <path fill="#FFFFFF" d="M0,0h450v300H0V0z" />
  <path fill="#267842" d="M126.45,218.545L0,296.909V152.5h104.982C105.483,177.03,113.346,199.749,126.45,218.545z M222.45,30.032V0H4.251l125.144,77.414C150.843,49.221,184.478,30.808,222.45,30.032z M227.45,269.968V300h218.299l-125.244-77.414C299.057,250.779,265.422,269.192,227.45,269.968z M323.45,81.455c13.104,18.796,20.967,41.515,21.469,66.045H450V3.091L323.45,81.455z M302.701,87.113c0.868,1.074,0.702,2.648-0.371,3.516c-0.463,0.374-1.018,0.556-1.571,0.556c-0.729,0-1.451-0.317-1.945-0.928c-16.941-20.945-42.087-33.751-68.991-35.132c-1.379-0.071-2.439-1.246-2.369-2.625s1.243-2.441,2.625-2.369C258.398,51.586,284.868,65.065,302.701,87.113z M322.45,152.503c-1.38-0.064-2.554,0.99-2.625,2.369c-0.859,16.717-6.143,32.966-15.281,46.991c-0.754,1.157-0.427,2.705,0.73,3.459c0.421,0.274,0.894,0.406,1.362,0.406c0.817,0,1.618-0.4,2.097-1.136c9.619-14.763,15.181-31.868,16.085-49.464C324.889,153.749,323.829,152.574,322.45,152.503z M220.078,244.875c-26.904-1.382-52.05-14.187-68.991-35.132c-0.868-1.073-2.442-1.24-3.516-0.372c-1.073,0.868-1.24,2.443-0.372,3.516c17.833,22.048,44.303,35.527,72.623,36.981c0.044,0.002,0.087,0.003,0.13,0.003c1.322,0,2.426-1.036,2.495-2.372C222.518,246.121,221.457,244.946,220.078,244.875z M144.626,94.678c-1.156-0.754-2.706-0.427-3.459,0.73c-9.619,14.763-15.181,31.867-16.085,49.464c-0.071,1.379,0.99,2.554,2.369,2.625c0.044,0.002,0.087,0.003,0.13,0.003c1.322,0,2.426-1.037,2.495-2.372c0.859-16.717,6.142-32.967,15.281-46.991C146.109,96.98,145.783,95.432,144.626,94.678z M224.95,35.833l-2.5,1.667v-5L224.95,35.833z M227.45,37.5l1.667,2.5l3.333-2.5H227.45z M222.45,37.5v5h5v-5H222.45z M227.45,32.5l-2.5,3.333l2.5,1.667V32.5z M227.45,47.5v-5l-2.5,1.667L227.45,47.5z M222.45,47.5l2.5-3.333l-2.5-1.667V47.5z M217.45,42.5h5l-1.667-2.5L217.45,42.5z M217.45,37.5l3.333,2.5l1.667-2.5H217.45z M232.45,42.5l-3.333-2.5l-1.667,2.5H232.45z M252.075,45.708l-2.817-3.07l-2.098,2.151L252.075,45.708z M243.164,38.956L243.164,38.956L243.164,38.956L243.164,38.956L243.164,38.956z M242.245,43.871l4.915,0.919l0.919-4.915l-4.915-0.919L242.245,43.871z M242.245,43.871L242.245,43.871L242.245,43.871L242.245,43.871z M248.079,39.875L248.079,39.875L248.079,39.875L248.079,39.875L248.079,39.875z M248.079,39.875l1.179,2.764l3.736-1.845L248.079,39.875z M247.16,44.79L247.16,44.79L247.16,44.79L247.16,44.79L247.16,44.79z M248.998,34.96l-3.07,2.817l2.151,2.098L248.998,34.96z M238.249,38.037l2.817,3.07l2.098-2.151L238.249,38.037z M237.33,42.952l4.915,0.919l-1.179-2.764L237.33,42.952z M244.083,34.041l-0.919,4.915l2.764-1.179L244.083,34.041z M242.245,43.871l-0.919,4.915l3.07-2.817L242.245,43.871L242.245,43.871z M246.241,49.705l0.919-4.915l-2.764,1.179L246.241,49.705z M267.92,46l1.806-4.662l-3.535,2.205L267.92,46l-4.662-1.806l0,0l2.933-0.651l-1.127-4.011l-1.806,4.662l-4.662-1.806l2.205,3.535l2.457-1.729l-1.806,4.662l0,0l-0.651-2.933l-4.011,1.127l4.662,1.806l-1.806,4.662l3.535-2.205l-1.729-2.457l4.662,1.806l0,0l-2.933,0.651l1.127,4.011l1.806-4.662l4.662,1.806l-2.205-3.535l-2.457,1.729L267.92,46L267.92,46l0.651,2.933l4.011-1.127L267.92,46z M286.3,55.667l2.632-4.251l-3.88,1.518L286.3,55.667L286.3,55.667l-4.251-2.632l3.003-0.101l-0.371-4.15l-2.632,4.251l-4.251-2.632l1.518,3.88l2.733-1.248l0,0l-2.632,4.251l-0.101-3.003l-4.15,0.371l4.251,2.632l-2.632,4.251l3.88-1.518l-1.248-2.733l0,0l4.251,2.632l-3.003,0.101l0.371,4.15l2.632-4.251l4.251,2.632l-1.518-3.88l-2.733,1.248l0,0L286.3,55.667l0.101,3.003l4.15-0.371L286.3,55.667z M291.83,65.504l3.695,3.368l0.453-2.97L291.83,65.504z M295.851,75.936l3.368-3.695l-2.97-0.453L295.851,75.936z M302.262,61.482l-3.368,3.695l2.97,0.453L302.262,61.482z M299.22,72.241l3.695,3.368l-0.779-4.093L299.22,72.241z M305.957,64.851l-4.093,0.779l0.725,2.916L305.957,64.851z M306.283,71.914l-3.695-3.368l-0.453,2.97L306.283,71.914z M295.198,61.809l0.779,4.093l2.916-0.725L295.198,61.809z M298.893,65.177l-3.368,3.695l3.695,3.368l3.368-3.695L298.893,65.177z M292.156,72.567l4.093-0.779l-0.725-2.916L292.156,72.567z M342.179,158.352l-4.979-0.461l1.429,2.643L342.179,158.352z M337.662,152.912L334.865,156l2.336,1.89L337.662,152.912z M337.201,157.891L337.201,157.891L337.201,157.891L337.201,157.891L337.201,157.891z M336.739,162.869l0.461-4.979l-4.979-0.461l2.643-1.429l-2.182-3.55l-0.461,4.979l-4.979-0.461l3.088,2.797l1.89-2.336l-0.461,4.979l0,0l-1.429-2.643l-3.55,2.182l4.979,0.461l-0.461,4.979l2.797-3.088l-2.336-1.89L336.739,162.869l-2.643,1.429l2.182,3.55L336.739,162.869l4.979,0.461l-3.088-2.797L336.739,162.869z M329.031,177.014l-1.368,4.809l4.809,1.368l1.368-4.809L329.031,177.014z M331.103,188l1.368-4.809l-2.861,0.919L331.103,188z M326.294,186.632l3.317-2.522l-1.948-2.287L326.294,186.632z M337.281,184.559l-2.522-3.317l-2.287,1.948L337.281,184.559z M330.399,172.204l-1.368,4.809l2.861-0.919L330.399,172.204z M335.208,173.573l-3.317,2.522l1.948,2.287L335.208,173.573z M322.853,180.454l4.809,1.368l-0.919-2.861L322.853,180.454z M333.84,178.382l0.919,2.861l3.89-1.492L333.84,178.382z M324.221,175.645l2.522,3.317l2.287-1.948L324.221,175.645z M326.77,197.908l2.229-4.476l-3.724,1.87L326.77,197.908l-4.476-2.229l0,0l2.981-0.378l-0.752-4.098l-2.229,4.476l-4.476-2.229l1.87,3.724l2.606-1.495l-2.229,4.476l0,0l-0.378-2.981l-4.098,0.752l4.476,2.229l-2.229,4.476l3.724-1.87l-1.495-2.606l4.476,2.229l0,0l-2.981,0.378l0.752,4.098l2.229-4.476l4.476,2.229l-1.87-3.724l-2.606,1.495L326.77,197.908L326.77,197.908l0.378,2.981l4.098-0.752L326.77,197.908z M312.243,212.788L312.243,212.788L312.243,212.788L312.243,212.788z M310.207,223.782l3.013-3.99l-2.999-0.177L310.207,223.782z M317.21,222.805l-1.153-4.004l-2.837,0.991L317.21,222.805z M315.243,212.965l0.014-4.167l-3.013,3.99l0,0L315.243,212.965z M313.22,219.792L313.22,219.792L313.22,219.792L313.22,219.792z M308.253,209.775l1.153,4.004l2.837-0.991L308.253,209.775z M316.233,215.802l3.013-3.99l-4.004,1.153L316.233,215.802l-3.99-3.013l-3.013,3.99l0.177-2.999l-4.167-0.014l3.99,3.013l-3.013,3.99l4.004-1.153l-0.991-2.837l0,0l3.99,3.013L316.233,215.802l-0.177,2.999l4.167,0.014L316.233,215.802z M207.655,256.129l1.179,2.764l3.736-1.845L207.655,256.129z M206.736,261.044L206.736,261.044L206.736,261.044L206.736,261.044L206.736,261.044z M211.651,261.963l-2.817-3.07l-2.098,2.151L211.651,261.963z M202.74,255.21L202.74,255.21L202.74,255.21L202.74,255.21L202.74,255.21z M197.825,254.292l2.817,3.07l2.098-2.151L197.825,254.292z M196.906,259.206l4.915,0.919l-1.179-2.764L196.906,259.206z M201.821,260.125L201.821,260.125L201.821,260.125L201.821,260.125L201.821,260.125z M200.902,265.04l3.07-2.817l-2.151-2.098L200.902,265.04z M203.659,250.295l-0.919,4.915l2.764-1.179L203.659,250.295z M207.655,256.129L207.655,256.129L207.655,256.129L207.655,256.129z M201.821,260.125l4.915,0.919l0.919-4.915l-4.915-0.919L201.821,260.125z M205.817,265.959l0.919-4.915l-2.764,1.179L205.817,265.959z M207.655,256.129l0.919-4.915l-3.07,2.817L207.655,256.129L207.655,256.129z M188.449,251.144l1.806-4.662l-3.535,2.205L188.449,251.144l-4.662-1.806l0,0l2.933-0.651l-1.127-4.011l-1.806,4.662l-4.662-1.806l2.205,3.535l2.457-1.729L181.98,254l0,0l-0.651-2.933l-4.011,1.127L181.98,254l-1.806,4.662l3.535-2.205L181.98,254l4.662,1.806l0,0l-2.933,0.651l1.127,4.011l1.806-4.662l4.662,1.806l-2.205-3.535l-2.457,1.729L188.449,251.144L188.449,251.144l0.651,2.933l4.011-1.127L188.449,251.144z M170.484,242.714l2.632-4.251l-3.88,1.518L170.484,242.714L170.484,242.714l-4.251-2.632l3.003-0.101l-0.371-4.15l-2.632,4.251l-4.251-2.632l1.518,3.88l2.733-1.248l-2.632,4.251l-0.101-3.003l-4.15,0.371l4.251,2.632l-2.632,4.251l3.88-1.518l-1.248-2.733l0,0l4.251,2.632l-3.003,0.101l0.371,4.15l2.632-4.251l4.251,2.632l-1.518-3.88l-2.733,1.248l0,0L170.484,242.714l0.101,3.003l4.15-0.371L170.484,242.714z M154.375,231.128l-0.453,2.97l4.148,0.398L154.375,231.128z M143.617,228.086l3.695,3.368l0.453-2.97L143.617,228.086z M154.049,224.064l-3.368,3.695l2.97,0.453L154.049,224.064z M143.943,235.149l4.093-0.779l-0.725-2.916L143.943,235.149z M154.702,238.191l-0.779-4.093l-2.916,0.725L154.702,238.191z M147.638,238.518l3.368-3.695l-2.97-0.453L147.638,238.518z M157.744,227.433l-4.093,0.779l0.725,2.916L157.744,227.433z M150.68,227.759l-3.368,3.695l3.695,3.368l3.368-3.695L150.68,227.759z M146.985,224.391l0.779,4.093l2.916-0.725L146.985,224.391z M107.721,141.648l4.979,0.461l-1.429-2.643L107.721,141.648z M112.238,147.088l2.797-3.088l-2.336-1.89L112.238,147.088z M118.139,137.592l0.461-4.979l-2.797,3.088L118.139,137.592l-4.979-0.461l2.643-1.429l-2.182-3.55l-0.461,4.979l-4.979-0.461l3.088,2.797l1.89-2.336l-0.461,4.979l4.979,0.461L115.035,144l2.182,3.55l0.461-4.979l4.979,0.461l-3.088-2.797l-1.89,2.336L118.139,137.592L118.139,137.592l1.429,2.643l3.55-2.182L118.139,137.592z M112.699,142.109L112.699,142.109L112.699,142.109L112.699,142.109L112.699,142.109z M111.251,120.25l4.809,1.368l-0.919-2.861L111.251,120.25z M114.692,126.427l3.317-2.522l-1.948-2.287L114.692,126.427z M125.679,124.355l-2.522-3.317l-2.287,1.948L125.679,124.355z M119.501,127.796l1.368-4.809l-2.861,0.919L119.501,127.796z M112.619,115.441l2.522,3.317l2.287-1.948L112.619,115.441z M118.797,112l-1.368,4.809l2.861-0.919L118.797,112z M122.238,118.177l0.919,2.861l3.89-1.492L122.238,118.177z M117.429,116.809l-1.368,4.809l4.809,1.368l1.368-4.809L117.429,116.809z M123.606,113.368l-3.317,2.522l1.948,2.287L123.606,113.368z M129.835,99.845l2.229-4.476l-3.724,1.87L129.835,99.845l-4.476-2.229l0,0l2.981-0.378l-0.752-4.098l-2.229,4.476l-4.476-2.229l1.87,3.724l2.606-1.495l-2.229,4.476l0,0l-0.378-2.981l-4.098,0.752l4.476,2.229l-2.229,4.476l3.724-1.87l-1.495-2.606l4.476,2.229l0,0l-2.981,0.378l0.752,4.098l2.229-4.476l4.476,2.229l-1.87-3.724l-2.606,1.495L129.835,99.845L129.835,99.845l0.378,2.981l4.098-0.752L129.835,99.845z M137.657,87.212l3.013-3.99l-0.177,2.999l4.167,0.014l-3.99-3.013l3.013-3.99l-4.004,1.153l0.991,2.837l0,0l-3.99-3.013l-3.013,3.99l0.177-2.999l-4.167-0.014l3.99,3.013l-3.013,3.99l4.004-1.153l-0.991-2.837L137.657,87.212z M137.657,87.212L137.657,87.212L137.657,87.212L137.657,87.212z M136.68,80.208L136.68,80.208L136.68,80.208L136.68,80.208z M134.657,87.035l-0.014,4.167l3.013-3.99l0,0L134.657,87.035z M141.647,90.225l-1.153-4.004l-2.837,0.991L141.647,90.225z M132.69,77.195l1.153,4.004l2.837-0.991L132.69,77.195z M139.693,76.218l-3.013,3.99l2.999,0.177L139.693,76.218z" />
  <path fill="#13547D" d="M227.45,30.032V0h218.299L320.506,77.414C299.057,49.221,265.422,30.808,227.45,30.032z M126.45,81.455L0,3.091V147.5h104.982C105.483,122.97,113.346,100.251,126.45,81.455z M344.918,152.5c-0.502,24.53-8.365,47.249-21.469,66.045L450,296.909V152.5H344.918z M129.394,222.586L4.251,300H222.45v-30.032C184.478,269.192,150.843,250.779,129.394,222.586z M322.32,147.5c-1.322,0-2.426-1.037-2.495-2.372c-0.859-16.717-6.143-32.966-15.281-46.991c-0.754-1.157-0.427-2.705,0.73-3.459c1.156-0.754,2.706-0.427,3.459,0.73c9.619,14.763,15.181,31.867,16.085,49.464c0.071,1.379-0.99,2.554-2.369,2.625C322.406,147.499,322.363,147.5,322.32,147.5z M230.078,249.869c28.32-1.454,54.79-14.934,72.622-36.981c0.868-1.074,0.702-2.648-0.371-3.516c-1.074-0.868-2.648-0.702-3.516,0.372c-16.941,20.945-42.087,33.75-68.991,35.132c-1.379,0.071-2.439,1.246-2.369,2.625c0.069,1.335,1.173,2.372,2.495,2.372C229.991,249.872,230.035,249.871,230.078,249.869z M144.626,205.322c1.157-0.754,1.484-2.303,0.73-3.459c-9.138-14.025-14.422-30.274-15.281-46.991c-0.071-1.379-1.246-2.431-2.625-2.369c-1.379,0.071-2.439,1.246-2.369,2.625c0.904,17.597,6.466,34.701,16.085,49.464c0.479,0.736,1.28,1.136,2.097,1.136C143.731,205.728,144.205,205.597,144.626,205.322z M151.087,90.257c16.942-20.945,42.088-33.751,68.991-35.132c1.379-0.071,2.439-1.246,2.369-2.625s-1.245-2.44-2.625-2.369c-28.32,1.454-54.79,14.933-72.623,36.981c-0.868,1.074-0.702,2.648,0.372,3.516c0.463,0.374,1.018,0.556,1.571,0.556C149.87,91.185,150.593,90.868,151.087,90.257z M248.079,260.125l1.179-2.764l3.736,1.845L248.079,260.125z M256.789,252.95l4.011,1.127l0.651-2.933L256.789,252.95z M269.726,258.663L267.92,254l-1.729,2.457L269.726,258.663z M244.396,254.031l2.764,1.179l-0.919-4.915L244.396,254.031z M247.16,255.21l2.098,2.151l2.817-3.07L247.16,255.21z M241.326,251.214l0.919,4.915l2.151-2.098L241.326,251.214z M248.998,265.04l-0.919-4.915l-2.151,2.098L248.998,265.04z M238.249,261.963l4.915-0.919l-2.098-2.151L238.249,261.963z M244.083,265.959l1.845-3.736l-2.764-1.179L244.083,265.959z M243.164,261.044l4.915-0.919l-0.919-4.915l-4.915,0.919L243.164,261.044z M237.33,257.048l3.736,1.845l1.179-2.764L237.33,257.048z M332.471,116.809l2.287,1.948l2.522-3.317L332.471,116.809z M306.217,79.231l3.013,3.99l0.991-2.837L306.217,79.231z M326.782,138.053l3.55,2.182l1.429-2.643L326.782,138.053z M327.243,143.032l4.979-0.461l-1.89-2.336L327.243,143.032z M332.683,147.549l2.182-3.55l-2.643-1.429L332.683,147.549z M329.031,122.986l1.368,4.809l1.492-3.89L329.031,122.986l4.809-1.368l-1.368-4.809l-4.809,1.368l1.948-2.287l-3.317-2.522l1.368,4.809l-4.809,1.368l3.89,1.492l0.919-2.861L329.031,122.986l-2.287-1.948l-2.522,3.317L329.031,122.986z M259.645,246.482l1.806,4.662l1.729-2.457L259.645,246.482z M305.24,86.235l4.167-0.014l-0.177-2.999L305.24,86.235z M308.253,90.225l3.99-3.013l-2.837-0.991L308.253,90.225z M341.718,136.669l-4.979,0.461l1.89,2.336L341.718,136.669z M331.299,132.613l0.461,4.979l2.336-1.89L331.299,132.613z M302.915,224.391l-3.695,3.368l2.916,0.725L302.915,224.391z M342.179,141.648l-3.55-2.182l-1.429,2.643L342.179,141.648z M295.525,231.128l3.368,3.695l3.695-3.368l-3.368-3.695L295.525,231.128z M302.136,228.484l0.453,2.97l3.695-3.368L302.136,228.484z M336.278,132.152l-2.182,3.55l2.643,1.429L336.278,132.152z M317.837,95.369l2.229,4.476l1.495-2.606L317.837,95.369z M328.999,106.567l-2.229-4.476l-1.495,2.606L328.999,106.567z M325.275,104.698l-2.981-0.378l2.229,4.476L325.275,104.698z M315.59,102.073l4.098,0.752l0.378-2.981L315.59,102.073z M310.207,76.218l0.014,4.167l2.999-0.177L310.207,76.218z M322.312,93.14l-0.752,4.098l2.981,0.378L322.312,93.14z M329.017,95.387l-4.476,2.229l2.606,1.495L329.017,95.387z M331.246,99.863l-4.098-0.752l-0.378,2.981l-2.229-4.476l-4.476,2.229l2.229,4.476l4.476-2.229L331.246,99.863z M331.103,112l-1.492,3.89l2.861,0.919L331.103,112z M315.243,87.035l4.004,1.153l-3.013-3.99l3.99-3.013l-4.167,0.014l0.177,2.999l-3.013-3.99l-3.99,3.013l3.013,3.99l3.99-3.013L315.243,87.035z M334.759,118.757l-0.919,2.861l4.809-1.368L334.759,118.757z M317.21,77.195l-3.99,3.013l2.837,0.991L317.21,77.195z M317.818,106.549l4.476-2.229l-2.606-1.495L317.818,106.549z M312.243,87.212l3.013,3.99l-0.014-4.167L312.243,87.212z M335.208,126.427l-1.368-4.809l-1.948,2.287L335.208,126.427z M336.739,137.131l-4.979,0.461l0.461,4.979l4.979-0.461L336.739,137.131z M287.919,237.45l-4.251,2.632l2.733,1.248L287.919,237.45z M283.667,240.082l-2.632-4.251l-0.371,4.15L283.667,240.082l-4.251,2.632l-4.251,2.632l4.15,0.371l0.101-3.003l2.632,4.251l-2.733-1.248l-1.518,3.88l4.251-2.632l4.251-2.632L283.667,240.082z M302.262,238.518l-0.398-4.148l-2.97,0.453L302.262,238.518z M286.3,244.333L286.3,244.333L286.3,244.333L286.3,244.333L286.3,244.333z M276.784,238.463l2.632,4.251l1.248-2.733L276.784,238.463z M305.957,235.149l-3.368-3.695l-0.725,2.916L305.957,235.149z M270.776,247.532l-4.662,1.806l2.457,1.729L270.776,247.532z M295.198,238.191l3.695-3.368l-2.916-0.725L295.198,238.191z M261.451,251.144l1.806,4.662l-2.457-1.729l-2.205,3.535l4.662-1.806l1.806,4.662l1.127-4.011l-2.933-0.651L267.92,254l-1.806-4.662L261.451,251.144z M264.308,244.676l-1.127,4.011l2.933,0.651L264.308,244.676z M284.681,251.216l0.371-4.15l-3.003-0.101L284.681,251.216z M288.932,248.584l-2.632-4.251l-1.248,2.733L288.932,248.584z M268.571,251.067L267.92,254l4.662-1.806L268.571,251.067z M290.551,241.701l-4.15-0.371l-0.101,3.003L290.551,241.701z M334.865,144l2.797,3.088l-0.461-4.979L334.865,144z M292.156,227.433l3.368,3.695l0.725-2.916L292.156,227.433z M291.83,234.496l4.148-0.398l-0.453-2.97L291.83,234.496z M295.851,224.064l0.398,4.148l2.97-0.453L295.851,224.064z M217.45,257.5l3.333,2.5l1.667-2.5H217.45z M222.45,257.5v5h5v-5H222.45z M232.45,262.5l-3.333-2.5l-1.667,2.5H232.45z M227.45,267.5v-5l-2.5,1.667L227.45,267.5z M222.45,252.5v5l2.5-1.667L222.45,252.5z M222.45,267.5l2.5-3.333l-2.5-1.667V267.5z M227.45,257.5l1.667,2.5l3.333-2.5H227.45z M227.45,252.5l-2.5,3.333l2.5,1.667V252.5z M217.45,262.5h5l-1.667-2.5L217.45,262.5z M136.68,219.792l3.013,3.99l-0.014-4.167L136.68,219.792L136.68,219.792z M136.68,219.792l3.99-3.013l-3.013-3.99l-3.99,3.013l0,0l0.991-2.837l-4.004-1.153l3.013,3.99l-3.99,3.013l4.167-0.014l-0.177-2.999L136.68,219.792z M136.68,219.792L136.68,219.792L136.68,219.792L136.68,219.792z M134.644,208.798l0.014,4.167l2.999-0.177L134.644,208.798z M132.69,222.805l3.99-3.013l-2.837-0.991L132.69,222.805z M143.683,220.769l-3.013-3.99l-0.991,2.837L143.683,220.769z M137.657,212.788L137.657,212.788L137.657,212.788L137.657,212.788L137.657,212.788z M140.67,216.779L140.67,216.779L140.67,216.779L140.67,216.779z M141.647,209.775l-3.99,3.013l2.837,0.991L141.647,209.775z M140.67,216.779l3.99-3.013l-4.167,0.014L140.67,216.779L140.67,216.779z M125.377,191.204l-0.752,4.098l2.981,0.378L125.377,191.204z M132.082,193.451l-4.476,2.229l2.606,1.495L132.082,193.451z M129.835,200.155l4.476-2.229l-4.098-0.752L129.835,200.155L129.835,200.155l-2.229-4.476l-4.476,2.229l1.495-2.606l-3.724-1.87l2.229,4.476l-4.476,2.229l4.098,0.752l0.378-2.981l2.229,4.476l-2.606-1.495l-1.87,3.724l4.476-2.229l2.229,4.476l0.752-4.098l-2.981-0.378l0,0L129.835,200.155l-1.495,2.606l3.724,1.87L129.835,200.155z M127.606,195.68L127.606,195.68L127.606,195.68L127.606,195.68L127.606,195.68z M116.06,178.382l1.368,4.809l4.809-1.368l-1.948,2.287l3.317,2.522l-1.368-4.809l4.809-1.368l-3.89-1.492l-0.919,2.861l-1.368-4.809l2.287,1.948l2.522-3.317l-4.809,1.368l-1.368-4.809l-1.492,3.89l2.861,0.919L116.06,178.382l1.948-2.287l-3.317-2.522L116.06,178.382l-4.809,1.368l3.89,1.492L116.06,178.382L116.06,178.382z M117.429,183.191L117.429,183.191L117.429,183.191L117.429,183.191L117.429,183.191z M118.797,188l1.492-3.89l-2.861-0.919L118.797,188z M112.619,184.559l4.809-1.368l-2.287-1.948L112.619,184.559z M123.118,161.947l-3.55-2.182l-1.429,2.643L123.118,161.947z M118.601,167.387l-0.461-4.979l-2.336,1.89L118.601,167.387z M113.161,162.869l0.461,4.979l2.182-3.55L113.161,162.869l4.979-0.461l-0.461-4.979l1.89,2.336l3.088-2.797l-4.979,0.461l-0.461-4.979l-2.182,3.55l2.643,1.429l0,0l-4.979,0.461l2.336-1.89l-2.797-3.088l0.461,4.979l-4.979,0.461l3.55,2.182l1.429-2.643l0,0L113.161,162.869L113.161,162.869l-1.89-2.336l-3.088,2.797L113.161,162.869z M118.139,162.408L118.139,162.408L118.139,162.408L118.139,162.408L118.139,162.408z M157.744,72.567l-3.368-3.695l-0.725,2.916L157.744,72.567z M143.943,64.851l3.368,3.695l0.725-2.916L143.943,64.851z M153.923,65.902l0.453,2.97l3.695-3.368L153.923,65.902z M143.617,71.914l4.148-0.398l-0.453-2.97L143.617,71.914z M147.312,68.546l3.368,3.695l3.695-3.368l-3.368-3.695L147.312,68.546z M147.638,61.482l0.398,4.148l2.97-0.453L147.638,61.482z M154.049,75.936l-0.398-4.148l-2.97,0.453L154.049,75.936z M146.985,75.609l3.695-3.368l-2.916-0.725L146.985,75.609z M154.702,61.809l-3.695,3.368l2.916,0.725L154.702,61.809z M160.968,51.416l2.632,4.251l1.248-2.733L160.968,51.416z M159.349,58.299l4.15,0.371l0.101-3.003L159.349,58.299z M163.6,55.667L163.6,55.667L163.6,55.667L163.6,55.667L163.6,55.667z M170.585,54.283l-0.101,3.003l-2.632-4.251L170.585,54.283l1.518-3.88l-4.251,2.632l-2.632-4.251l-0.371,4.15l3.003,0.101l-4.251,2.632l2.632,4.251l0,0L163.5,58.67l-1.518,3.88l4.251-2.632l2.632,4.251l0.371-4.15l-3.003-0.101l4.251-2.632l0,0l-1.248,2.733l3.88,1.518l-2.632-4.251l4.251-2.632L170.585,54.283z M177.318,47.806l4.011,1.127L181.98,46L177.318,47.806z M181.98,46L181.98,46L181.98,46L181.98,46L181.98,46z M180.174,41.337L181.98,46l1.729-2.457L180.174,41.337z M188.449,48.856l-1.806-4.662l2.457,1.729l2.205-3.535l-4.662,1.806l-1.806-4.662l-1.127,4.011l2.933,0.651L181.98,46l1.806,4.662l-2.457-1.729l-2.205,3.535l4.662-1.806l1.806,4.662l1.127-4.011l-2.933-0.651L188.449,48.856z M188.449,48.856L188.449,48.856L188.449,48.856L188.449,48.856L188.449,48.856z M193.111,47.05l-4.011-1.127l-0.651,2.933L193.111,47.05z M190.255,53.518l-1.806-4.662l-1.729,2.457L190.255,53.518z M200.642,42.638l-2.817,3.07l4.915-0.919l0,0L200.642,42.638z M202.74,44.79L202.74,44.79L202.74,44.79L202.74,44.79z M208.834,41.107l-1.179,2.764l-0.919-4.915l-4.915,0.919l0.919,4.915l4.915-0.919l0,0l-2.151,2.098l3.07,2.817l-0.919-4.915l4.915-0.919L208.834,41.107z M203.659,49.705l1.845-3.736l-2.764-1.179L203.659,49.705z M200.902,34.96l0.919,4.915l2.151-2.098L200.902,34.96z M196.906,40.794l3.736,1.845l1.179-2.764L196.906,40.794z M205.817,34.041l-1.845,3.736l2.764,1.179L205.817,34.041z M211.651,38.037l-4.915,0.919l2.098,2.151L211.651,38.037z M206.736,38.956L206.736,38.956L206.736,38.956L206.736,38.956L206.736,38.956z M201.821,39.875L201.821,39.875L201.821,39.875L201.821,39.875L201.821,39.875z M210.302,93.042c-12.33,1.213-34.366,6.643-42.129,10.398c-4.339,2.08-9.191,6.701-10.96,10.398c-3.254,6.759-2.854,13.344,1.37,22.645c3.768,8.376,5.937,15.309,5.937,19.179c0,3.235,0,3.293,3.539,6.643l3.539,3.351l-2.398,2.657c-1.313,1.444-2.398,2.831-2.398,3.119c0,0.289,0.514,0.982,1.142,1.56c1.598,1.502,1.427,2.022-0.685,2.022c-2.341,0-5.994,1.04-6.508,1.791c-0.171,0.289,0.057,1.213,0.571,1.964c0.856,1.329,0.799,1.386-0.97,2.542c-1.028,0.635-2.398,1.733-3.026,2.426c-0.97,1.098-0.97,1.271-0.114,1.906c0.799,0.578,0.799,0.809-0.457,2.253c-1.941,2.311-2.341,4.448-1.085,5.372c1.085,0.809,5.766,0.809,7.022,0c0.343-0.231,1.313,0,2.055,0.52c1.37,0.924,1.541,0.867,3.711-0.347l2.341-1.271l1.37,1.502c1.598,1.791,2.797,1.906,5.081,0.693c0.856-0.462,2.341-0.751,3.311-0.693c1.427,0.116,1.998,0.578,3.197,2.831c2.283,4.217,4.281,4.275,6.222,0.116c1.142-2.368,1.941-2.542,1.941-0.347c0,2.831,2.512,3.986,4.909,2.137c0.571-0.462,1.256-0.867,1.484-0.867s1.199,1.56,2.112,3.408c1.541,3.062,4.053,5.835,5.195,5.835c0.228,0,1.028-0.462,1.713-1.04c1.028-0.809,1.37-1.849,1.598-4.333c0.114-1.849,0.343-3.293,0.514-3.293c0.114,0,1.541,0.693,3.14,1.502c1.655,0.867,5.423,2.022,8.449,2.657c6.279,1.271,8.163,2.311,11.189,6.123c1.199,1.502,2.569,3.004,3.083,3.408c1.884,1.56,6.736,0.289,7.992-2.08c0.285-0.635,0.571-2.368,0.571-3.87c0-1.618,0.457-3.408,1.085-4.506c0.571-0.982,1.199-3.351,1.37-5.315c0.4-4.853,2.112-7.972,7.136-12.651c9.134-8.55,16.84-17.215,19.752-22.356c2.226-3.87,6.394-8.434,8.962-9.705c2.398-1.271,3.653-1.502,3.083-0.52c-0.228,0.289-0.228,1.213-0.057,1.964c0.457,1.849,2.968,2.657,6.165,1.964c3.368-0.809,4.795-1.849,6.165-4.564c0.685-1.386,2.169-2.946,3.596-3.813c2.626-1.675,3.825-2.946,3.825-4.102c0-0.462-1.941-2.715-4.339-4.968c-2.398-2.311-6.508-6.759-9.077-9.936C270.128,101.014,243.526,89.807,210.302,93.042L210.302,93.042z M232.451,95.295c14.614,1.791,28.086,7.221,39.846,16.002c4.51,3.351,12.673,10.976,14.443,13.518l1.085,1.56l-4.281-1.386c-2.398-0.751-4.738-1.386-5.195-1.386s-1.941-1.04-3.254-2.368c-3.14-3.062-9.134-6.586-14.671-8.607c-11.474-4.275-22.663-4.506-49.95-1.098c-6.85,0.867-12.216,1.213-18.267,1.098c-13.758-0.231-14.785-0.173-16.726,0.809c-2.112,1.098-2.968,2.484-2.968,4.968c0,4.679,3.825,8.145,13.016,11.554c2.683,1.04,4.681,2.773,4.281,3.813c-0.685,1.791-2.283,2.022-9.191,1.329c-5.766-0.578-6.964-0.52-8.791,0.231c-2.341,0.982-3.254,3.062-2.341,5.199c0.343,0.693,2.283,3.466,4.396,6.123c2.112,2.657,3.711,5.141,3.596,5.488c-0.114,0.347-1.598,0.809-3.254,1.098c-1.655,0.231-3.368,0.693-3.825,1.04c-1.313,1.155-0.856,3.639,0.97,5.43c0.97,0.924,1.713,2.137,1.713,2.715c0,0.809-0.628,0.578-3.083-1.386l-3.026-2.368l-0.343-4.159c-0.4-4.621-1.941-9.358-6.279-19.352c-2.74-6.239-2.911-6.932-2.911-11.554c-0.057-4.159,0.171-5.43,1.484-8.203c3.768-8.145,11.988-12.305,34.879-17.446C206.648,95.007,221.776,94.024,232.451,95.295L232.451,95.295z M275.323,126.201c6.051,0.924,11.531,2.715,15.699,5.199c2.626,1.56,11.703,9.647,12.159,10.86c0.228,0.578-1.484,2.137-2.341,2.137c-0.285,0-0.97-1.155-1.541-2.542c-1.37-3.119-3.311-3.986-11.132-4.968c-12.901-1.675-33.452,0.462-45.212,4.679c-15.527,5.546-23.862,12.882-27.173,23.858c-0.685,2.195-1.941,4.795-2.854,5.892c-1.77,2.022-4.966,3.351-7.193,3.004c-1.085-0.116-0.742-0.578,2.455-2.888c6.051-4.448,6.451-7.625,1.142-10.283c-2.626-1.329-3.425-1.444-10.846-1.444c-6.337,0.058-9.077,0.347-13.244,1.386c-2.911,0.693-5.423,1.502-5.594,1.791c-0.114,0.231,0.856,0.578,2.283,0.693c3.768,0.462,7.592,2.946,8.905,5.835c1.598,3.639,1.541,12.362-0.114,14.5c-1.37,1.791-2.968,1.906-4.909,0.347c-0.799-0.635-2.226-1.155-3.14-1.155c-2.398,0-5.594,1.675-6.279,3.235c-0.571,1.271-0.685,1.271-2.226,0.52c-0.856-0.462-2.112-0.867-2.683-0.867c-1.541,0-4.11,2.195-4.11,3.466c0,1.329-1.484,2.657-1.827,1.618c-0.228-0.578-0.742-0.52-2.398,0.289c-1.713,0.809-2.341,0.867-3.026,0.347c-0.856-0.751-0.571-3.582,0.628-5.141c0.343-0.462,1.142-1.849,1.77-3.062c0.571-1.213,1.598-2.484,2.226-2.831c1.998-1.04,6.051-5.257,6.051-6.354c0-0.52-0.571-1.386-1.256-1.849c-1.598-1.155-1.028-1.733,1.827-1.791c2.512-0.058,4.795-1.791,5.366-4.102c0.571-2.195-0.742-6.123-2.683-8.261c-1.37-1.502-1.541-1.849-0.685-1.502c2.626,0.982,3.254,0.924,5.823-0.635c1.541-0.867,6.622-3.639,11.303-6.123l8.563-4.506h-7.136c-7.764,0-12.958-0.982-15.356-2.773c-1.598-1.213-3.825-4.621-3.311-5.084c0.171-0.173,3.596,0,7.65,0.347c6.279,0.635,8.334,0.578,14.5-0.173c9.648-1.271,21.008-3.408,33.053-6.297c5.48-1.271,12.159-2.831,14.842-3.466C254.657,125.45,266.075,124.757,275.323,126.201L275.323,126.201z M291.021,146.593c0.342,0.231,0.799,1.733,0.97,3.408c0.343,2.946,0.285,3.004-1.313,3.351c-0.913,0.231-2.226,0.173-2.911,0c-0.97-0.347-1.142-0.751-0.913-2.022c0.171-0.867,0.057-1.849-0.285-2.195c-0.457-0.462-0.057-0.982,1.313-1.791C290.051,146.016,290.165,145.958,291.021,146.593L291.021,146.593z" />
</svg>
