<svg xmlns="http://www.w3.org/2000/svg" width="450px" height="300px" viewBox="0 0 450 300">
  <path fill="#FFFFFF" d="M0,0h450v300H0V0z" />
  <path fill="#CC0000" d="M450,150H21.4v-21.4H450V150z M450,107.1H21.4V85.7H450V107.1z M450,64.3H21.4V42.9H450V64.3z M450,21.4H21.4V0H450V21.4z" />
  <path fill="#000066" d="M0,0h225v182.1H0V0z" />
  <path fill="#CC0000" d="M450,278.6H0v-21.4h450V278.6z M450,235.7H0v-21.4h450V235.7z M450,192.9H0v-21.4h450V192.9z" />
  <path fill="#FFCC00" d="M146,37.8l4.3,29.2l16.5-24.5l-8.9,28.2l25.5-14.9l-20.2,21.6l29.5-2.4l-27.5,10.7l27.5,10.7L163.2,94l20.2,21.6l-25.5-14.9l8.9,28.2l-16.5-24.5l-4.3,29.2l-4.3-29.2l-16.5,24.5l8.9-28.2l-25.5,14.9L128.7,94l-29.5,2.4l27.5-10.7L99.3,75.1l29.5,2.4l-20.2-21.6L134,70.7l-8.9-28.2L141.7,67L146,37.8z M122,39c-25.8-11.4-56,0.2-67.4,26s0.2,56,26,67.4c13.2,5.9,28.3,5.9,41.5,0c-25.8,18.5-61.7,12.6-80.2-13.2S29.2,57.5,55,39C75,24.6,102,24.6,122,39z" />
</svg>
