<svg xmlns="http://www.w3.org/2000/svg" width="450px" height="300px" viewBox="0 0 450 300">
  <path fill="#007168" d="M0,0h450v149.938H0V0z" />
  <path fill="#FCE100" d="M0,150.281h450V300H0V150.281z" />
  <path fill="#FFFFFF" d="M0,93.75h450v112.5H0V93.75z" />
  <path fill="#000000" d="M0,103.125h450v93.625H0V103.125z" />
  <path fill="#D21034" d="M0,0v300l196.875-150L0,0z" />
  <path fill="#FCE100" d="M102.185,206.242l-36.577-26.78L29.08,206.25l14.166-43.062L6.483,136.726l45.332,0.166L65.621,93.75l13.851,43.165l45.297-0.201l-36.772,26.511L102.185,206.242z" />
  <path fill="#FFFFFF" stroke="#000000" stroke-width="0.7873" stroke-linecap="round" stroke-linejoin="round" d="M33.862,176.214h26.349c2.12,2.378,6.85,3.348,11.356-0.028c8.259-4.522,24.236,0.028,24.236,0.028l3.146-3.343l-7.669-25.17l-2.753-2.95c0,0-5.899-3.539-17.108-2.359c-11.208,1.18-15.141-0.393-15.141-0.393s-9.832,1.18-12.585,2.556c-0.303,0.245-3.146,3.146-3.146,3.146L33.862,176.214z" />
  <path fill="none" stroke="#000000" stroke-width="0.7873" stroke-linecap="round" stroke-linejoin="round" d="M39.171,169.725c0,0,25.17-3.146,32.446,6.489c-4.109,2.812-7.727,3.043-11.602,0.197c0.617-1.029,9.045-9.832,30.479-6.882 M66.111,144.555l-0.197,27.726 M88.527,144.948l4.72,22.024 M43.953,144.602l-2.619,11.358" />
  <path fill="#000000" stroke="#000000" stroke-width="0.7873" stroke-linecap="round" stroke-linejoin="round" d="M16.748,179.233l6.197,7.265c0.728,0.434,1.374,0.406,2.02,0l9.184-11.02l3.857-4.776c0.597-0.707,0.788-1.497,0.735-2.204l7.374-6.552c0.603,0.042,0.962,0.11,1.566,0.151c-0.713-0.185-1.236-0.532-0.674-1.313l1.653-1.286l1.286,1.653c0,0-1.836,2.388-2.02,2.388c-0.184,0-2.02,0-2.02,0l-3.857,3.49l1.686,1.49l2.538,6.959l3.123-2.205l-2.021-7.163l4.408-4.776l-1.653-2.572l1.102-1.469c0,0,15.256,9.605,21.134,7.034c0.159,0.057,0.355-6.85,0.355-6.85s-15.796-1.653-16.163-4.776c-0.367-3.122,3.49-3.489,3.49-3.489l-1.653-2.388l0.368-1.286l2.755,3.49l6.245-5.327l36.734,41.877c2.005-0.813,2.434-1.304,2.572-3.306c-0.052-0.05-36-41.326-36-41.326l2.755-2.938c0.543-0.612,0.734-0.872,0.734-1.837l4.224-3.673c1.27,0.436,2.08,1.198,2.755,2.204l11.614-9.843c0.306,0.306,1.236,0.612,1.867,0.268l19.201-18.431l-20.927,14.781l-0.734-0.551c0-0.612,0.759-0.764,0-1.837c-0.813-0.976-2.021,0.918-2.204,0.918c-0.184,0-3.029-1.006-3.653-2.279l-0.205,3.381l-5.327,4.959l-4.041-0.184l-5.878,5.694l-0.734,2.204l0.918,1.837c0,0-3.123,2.755-3.123,2.571c0-0.183-0.631-0.812-0.658-0.893l2.679-2.413l0.367-1.653l-0.894-1.396c-0.271,0.197-3.698,3.784-3.882,3.416c-0.306-0.343-9.918-11.204-9.918-11.204l0.55-2.02l-6.244-6.796c-2.277-0.786-5.878-0.918-6.612,4.041c-0.572,1.165-5.327,0.184-5.327,0.184l-2.571,0.551l-14.51,20.571l8.082,9.734l16.531-20.939l0.491-5.932l3.469,3.878c1.156,0.149,2.258,0.162,3.306-0.367l9.794,10.932l-1.631,1.591c0.551,0.612,0.93,1.003,1.481,1.616c0.551-0.367,1.077-0.808,1.628-1.176c0.184,0.246,0.49,0.711,0.674,0.956c-0.821,0.447-1.396,1.041-2.217,1.488c-1.313-0.856-2.581-1.922-2.485-3.618l-5.51,4.592l-0.184,0.918l-16.347,13.592l-1.469,0.184l-0.367,4.224l10.653-8.816v-1.286l1.102,0.918l8.265-6.612c0,0,0.551,0.734,0.368,0.734c-0.184,0-7.347,6.612-7.347,6.612l-0.183,0.734l-1.286,1.102l-0.735-0.551l-9.918,8.816h-1.469l-5.51,5.511c-1.421,0.123-2.653,0.274-3.857,1.102L16.748,179.233z" />
</svg>
