<svg xmlns="http://www.w3.org/2000/svg" width="450px" height="300px" viewBox="0 0 450 300">
  <path fill="#009543" d="M0,0h450v300H0V0z" />
  <path fill="#ED4135" d="M0,0h450v200H0V0z" />
  <path fill="#0035AD" d="M0,0h450v100H0V0z" />
  <path fill="#FAE600" stroke="#000000" stroke-width="3.3333" d="M155,51.68c54.301,0,98.32,44.019,98.32,98.32s-44.019,98.32-98.32,98.32S56.68,204.301,56.68,150S100.699,51.68,155,51.68z" />
  <path fill="#000000" d="M193.152,241.286c0,0-37.611,15.38-77.739-1.007c-1.874,1.622,15.19-15.666,21.139-20.358c3.374-2.66,9.83-4.111,16.447-4.283v-4.582c-5.119-1.37-9-7.881-9-15.723s3.881-14.353,9-15.723v-1.453c-4.981,0.756-9.967,4.276-12.225,9.859c-4.911,12.14-9.108,17.317-9.108,17.317s2.607-10.973,3.925-25.091c0.607-6.499,6.087-11.052,17.409-11.528v-2.047h-14.667v-4H153v-1.999c-6.412-0.612-11.333-4.105-11.333-8.335c0-4.23,4.921-7.723,11.333-8.335V142h-14.667v-4H153v-2.014c-7.69-0.12-17.428-1.303-18-12.32c-0.391-7.513-3-15-3-15s5.547,6.665,7.667,11c3.805,7.781,8.263,9.359,13.333,9.619v-2.785c-6.412-0.967-11.333-6.485-11.333-13.167c0-6.682,4.921-12.2,11.333-13.167V88.994c-4.413,2.705-7.694,3.268-8.763,4.139c-2.439,1.985-3.468,1.849-3.468,1.849c0.174-1.792,0.336-9.119,0.463-9.825c0.957-5.304,5.745-7.691,11.768-10.363V52h4v21.012c4.051-1.851,8.372-4.086,12.32-7.505c1.805-1.563,1.676-1.849,1.676-1.849L171,63.667c-0.004-0.009,1.155,1.913-1.275,6.291c-4.409,7.94-8.823,12.928-12.725,16.164v14.045c6.412,0.967,11.333,6.485,11.333,13.167c0,6.682-4.921,12.2-11.333,13.167v2.785c5.07-0.26,9.528-1.838,13.333-9.619c2.12-4.335,7.667-11,7.667-11s-2.609,7.487-3,15c-0.572,11.017-10.31,12.2-18,12.32V138h14.667v4H157v1.998c6.412,0.612,11.333,4.105,11.333,8.335c0,4.23-4.921,7.723-11.333,8.335v1.999h14.667v4H157v2.047c11.321,0.476,16.802,5.029,17.409,11.528c1.318,14.119,3.925,25.091,3.925,25.091s-4.197-5.177-9.108-17.317c-2.259-5.583-7.245-9.103-12.225-9.859v1.453c5.119,1.37,9,7.881,9,15.723s-3.881,14.353-9,15.723v4.635c5.983,0.316,11.613,1.706,14.676,4.23C178.954,225.921,193.152,241.286,193.152,241.286z" />
</svg>
