<svg xmlns="http://www.w3.org/2000/svg" width="450px" height="300px" viewBox="0 0 450 300">
  <path fill="#103A8F" d="M0,0h450v300H0V0z" />
  <path fill="#F1D14A" d="M383.38,160C376.289,78.745,308.095,15,225,15S73.711,78.745,66.62,160H383.38z" />
  <path fill="#4D9639" d="M188.288,273.452c-1.539-1.544-4.171-2.691-5.85-2.548c-9.267,0.79-13.172-2.42-10.743-8.832c0.912-2.408,0.567-4.864-1.258-8.955c-1.554-3.484-2.895-11.021-3.511-19.733c-0.913-12.929-1.331-14.48-5.043-18.722c-2.256-2.578-3.612-5.331-3.065-6.22c1.142-1.854,17.534-9.539,20.348-9.539c2.766,0,16.772-13.724,19.401-19.01c1.232-2.478,4.323-5.876,6.869-7.55c5.732-3.771,7.079-5.886,8.277-12.999c0.807-4.791,0.43-6.223-2.583-9.816c-1.94-2.314-3.527-4.762-3.527-5.44c0-2.193-12.954-14.05-17.028-15.585c-2.679-1.009-5.339-1.051-8.259-0.13c-2.369,0.748-9.573,2.693-16.008,4.323s-12.819,3.558-14.187,4.286c-3.123,1.66-39.219,2.611-42.937,1.132c-4.463-1.776-12.805-10.039-14.376-14.239c-2.071-5.54-1.865-6.383,1.918-7.826c2.351-0.897,3.83-2.993,4.884-6.92c1.264-4.711,2.208-5.774,5.759-6.486c2.502-0.502,4.52-1.902,4.912-3.406c0.863-3.311,3.856-3.241,8.204,0.191c4.156,3.281,7.066,2.214,3.81-1.397c-1.989-2.206-5.444-20.486-4.123-21.813c0.262-0.263,1.724,0.191,3.248,1.01s3.734,1.117,4.912,0.664c1.339-0.516,4.534,1.29,8.534,4.823c7.618,6.729,13.661,8.658,23.905,7.631c10.031-1.006,24.326-6.856,25.23-10.326c0.739-2.835-4.947-8.646-10.049-10.271c-3.109-0.99-3.572-3.47-1.109-5.942c4.714-4.731,21.066,0.315,30.82,9.511c2.487,2.344,5.285,3.343,9.928,3.542c9.217,0.396,25.019,2.936,29.865,4.8c2.271,0.874,5.475,3.162,7.119,5.085l2.989,3.496l32.111-1.584c17.661-0.871,34.824-1.981,38.139-2.466c5.941-0.869,12.786,0.505,21.846,4.388c5.872,2.516,5.787,6.22-0.268,11.75c-2.608,2.382-5.136,6.132-5.618,8.333c-1.202,5.492-4.388,6.9-11.508,5.086c-5.751-1.465-12.201-0.423-20.115,3.249c-3.863,1.792-13.428,11.379-21.393,21.441c-3.713,4.691-7.862,8.882-9.219,9.315c-4.031,1.284-7.805,29.096-5.751,42.381c1.81,11.707,3.979,15.639,10.28,18.64c6.094,2.902,14.155,10.919,15.207,15.123c2.155,8.617-1.925,12.381-12.84,11.848c-6.749-0.33-15.297,2.047-27.903,7.761c-4.921,2.23-11.068,4.474-13.66,4.987c-4.41,0.873-23.701,13.111-34.486,21.878C204.222,277.38,192.762,277.942,188.288,273.452z" />
  <path fill="#FFFFFF" d="M248.007,185.849c-1.576-2.011-2.866-5.248-2.866-7.194s-1.14-6.077-2.532-9.18c-1.393-3.103-3.571-8.005-4.84-10.893s-2.307-8.633-2.307-12.767c0-7.21,0.254-7.729,6.223-12.736c7.985-6.699,8.073-9.615,0.346-11.541c-3.232-0.806-9.144-3.009-13.137-4.895c-7.773-3.673-8.815-6.113-5.898-13.814c1.917-5.059,4.691-5.633,9.602-1.99c4.114,3.052,4.386,3.076,9.13,0.806c8.873-4.246,29.992-2.156,32.448,3.211c0.524,1.145,2.349,4.987,4.056,8.538c2.498,5.196,2.801,7.024,1.551,9.367c-0.854,1.601-2.085,2.911-2.736,2.911s-1.557,1.492-2.013,3.315c-0.456,1.823-3.012,5.239-5.681,7.59c-4.279,3.77-4.852,5.059-4.848,10.909c0.004,5.745-1.985,16.023-7.126,36.816C255.815,190.629,252.219,191.223,248.007,185.849z" />
</svg>
