<svg xmlns="http://www.w3.org/2000/svg" width="450px" height="300px" viewBox="0 0 450 300">
  <path fill="#DB161B" d="M0,0h450v300H0V0z" />
  <path fill="#FFFFFF" d="M150,0h300v100H150V0z" />
  <path fill="#008000" d="M150,200h300v100H150V200z" />
  <g>
    <g>
      <path fill="#FFFFFF" stroke="#DB161B" stroke-width="0.189" d="M34.535,51.32h16.119c0.888,0,1.607,0.675,1.607,1.507v7.593c0,0.833-0.72,1.507-1.607,1.507H34.535c-0.888,0-1.607-0.675-1.607-1.507v-7.593C32.927,51.995,33.646,51.32,34.535,51.32z" />
      <path fill="#FFFFFF" stroke="#DB161B" stroke-width="0.176" d="M34.948,51.76h15.293c0.842,0,1.525,0.618,1.525,1.382v6.96c0,0.764-0.683,1.382-1.525,1.382H34.948c-0.842,0-1.525-0.618-1.525-1.382v-6.96C33.423,52.379,34.106,51.76,34.948,51.76z" />
      <path fill="#FFFFFF" stroke="#DB161B" stroke-width="0.111" d="M41.952,54.415l0.926,0.03l0.042,0.42l0.758,0.385l0.59-0.48l0.715,0.385l-0.674,0.42l0.168,0.58l0.842-0.03V56.9l-0.674-0.035L44.31,57.35l0.758,0.55l-0.59,0.45l-0.632-0.485L42.92,58.06l0.042,0.71l-1.01,0.065l-0.126-0.68L40.983,57.8l-0.464,0.485l-0.716-0.355l0.422-0.55l-0.506-0.355h-0.716l-0.042-1l0.716,0.065l0.505-0.58l-0.59-0.45l0.758-0.52l0.548,0.42l0.926-0.125L41.952,54.415z" />
      <path fill="#FFFFFF" stroke="#DB161B" stroke-width="0.6665" d="M42.232,55.638c1.338,0.021,1.338,1.721,0,1.742C40.894,57.359,40.894,55.659,42.232,55.638z" />
      <path fill="#FFFFFF" stroke="#DB161B" stroke-width="0.176" d="M35.902,52.205l-1.487,1.325 M36.893,52.205l-1.487,1.325 M37.884,52.205l-1.487,1.325 M38.876,52.205l-1.487,1.325 M39.868,52.205l-1.487,1.325 M40.859,52.205l-1.487,1.325 M41.851,52.205l-1.487,1.325 M42.842,52.205l-1.487,1.325 M43.834,52.205l-1.487,1.325 M44.826,52.205l-1.487,1.325 M45.817,52.205L44.33,53.53 M46.808,52.205l-1.487,1.325 M42.842,52.205l-1.487,1.325 M47.8,52.205l-1.487,1.325 M48.792,52.205l-1.487,1.325 M49.783,52.205l-1.487,1.325 M50.775,52.205l-1.488,1.325 M49.287,52.205l1.488,1.325 M48.296,52.205l1.487,1.325 M47.304,52.205l1.487,1.325 M46.312,52.205L47.8,53.53 M45.321,52.205l1.487,1.325 M44.329,52.205l1.487,1.325 M43.338,52.205l1.487,1.325 M42.347,52.205l1.487,1.325 M41.355,52.205l1.487,1.325 M40.363,52.205l1.487,1.325 M39.372,52.205l1.487,1.325 M38.381,52.205l1.487,1.325 M42.347,52.205l1.487,1.325 M37.389,52.205l1.487,1.325 M36.397,52.205l1.487,1.325 M35.406,52.205l1.487,1.325 M34.415,52.205l1.487,1.325 M35.902,59.715l-1.487,1.33 M36.893,59.715l-1.487,1.33 M37.884,59.715l-1.487,1.33 M38.876,59.715l-1.487,1.33 M39.868,59.715l-1.487,1.33 M40.859,59.715l-1.487,1.33 M41.851,59.715l-1.487,1.33 M42.842,59.715l-1.487,1.33 M43.834,59.715l-1.487,1.33 M44.826,59.715l-1.487,1.33 M45.817,59.715l-1.487,1.33 M46.808,59.715l-1.487,1.33 M42.842,59.715l-1.487,1.33 M47.8,59.715l-1.487,1.33 M48.792,59.715l-1.487,1.33 M49.783,59.715l-1.487,1.33 M50.775,59.715l-1.488,1.33 M49.287,59.715l1.488,1.33 M48.296,59.715l1.487,1.33 M47.304,59.715l1.487,1.33 M46.312,59.715l1.487,1.33 M45.321,59.715l1.487,1.33 M44.329,59.715l1.487,1.33 M43.338,59.715l1.487,1.33 M42.347,59.715l1.487,1.33 M41.355,59.715l1.487,1.33 M40.363,59.715l1.487,1.33 M39.372,59.715l1.487,1.33 M38.381,59.715l1.487,1.33 M42.347,59.715l1.487,1.33 M37.389,59.715l1.487,1.33 M36.397,59.715l1.487,1.33 M35.406,59.715l1.487,1.33 M34.415,59.715l1.487,1.33" />
    </g>
    <g>
      <path fill="#FFFFFF" stroke="#DB161B" stroke-width="0.189" d="M115.543,51.32H99.424c-0.888,0-1.607,0.674-1.607,1.507v7.593c0,0.832,0.719,1.507,1.607,1.507h16.119c0.888,0,1.607-0.674,1.607-1.507v-7.593C117.15,51.995,116.431,51.32,115.543,51.32z" />
      <path fill="#FFFFFF" stroke="#DB161B" stroke-width="0.176" d="M115.129,51.76H99.836c-0.842,0-1.525,0.618-1.525,1.382v6.96c0,0.764,0.683,1.382,1.525,1.382h15.293c0.842,0,1.525-0.618,1.525-1.382v-6.96C116.654,52.379,115.971,51.76,115.129,51.76z" />
      <path fill="#FFFFFF" stroke="#DB161B" stroke-width="0.111" d="M108.123,54.415l-0.926,0.03l-0.042,0.42l-0.758,0.385l-0.59-0.48l-0.715,0.385l0.674,0.42l-0.169,0.58l-0.842-0.03V56.9l0.674-0.035l0.337,0.485l-0.758,0.55l0.59,0.45l0.632-0.485l0.926,0.195l-0.042,0.71l1.01,0.065l0.127-0.68l0.842-0.355l0.464,0.485l0.716-0.355l-0.422-0.55l0.506-0.355h0.716l0.042-1l-0.716,0.065l-0.505-0.58l0.59-0.45l-0.758-0.52l-0.548,0.42l-0.926-0.125L108.123,54.415z" />
      <path fill="#FFFFFF" stroke="#DB161B" stroke-width="0.6665" d="M108.863,56.509c-0.02,1.144-2.015,1.144-2.035,0C106.848,55.365,108.843,55.365,108.863,56.509z" />
      <path fill="#FFFFFF" stroke="#DB161B" stroke-width="0.176" d="M114.176,52.205l1.487,1.325 M113.184,52.205l1.487,1.325 M112.193,52.205l1.487,1.325 M111.201,52.205l1.487,1.325 M110.21,52.205l1.487,1.325 M109.218,52.205l1.487,1.325 M108.226,52.205l1.488,1.325 M107.234,52.205l1.488,1.325 M106.243,52.205l1.488,1.325 M105.251,52.205l1.488,1.325 M104.26,52.205l1.488,1.325 M103.268,52.205l1.488,1.325 M107.234,52.205l1.488,1.325 M102.277,52.205l1.488,1.325 M101.285,52.205l1.488,1.325 M100.294,52.205l1.488,1.325 M99.302,52.205l1.488,1.325 M100.79,52.205l-1.488,1.325 M101.782,52.205l-1.488,1.325 M102.774,52.205l-1.488,1.325 M103.765,52.205l-1.488,1.325 M104.757,52.205l-1.488,1.325 M105.748,52.205l-1.488,1.325 M106.74,52.205l-1.488,1.325 M107.731,52.205l-1.488,1.325 M108.723,52.205l-1.488,1.325 M109.714,52.205l-1.488,1.325 M110.706,52.205l-1.488,1.325 M111.697,52.205l-1.487,1.325 M107.731,52.205l-1.488,1.325 M112.688,52.205l-1.487,1.325 M113.68,52.205l-1.487,1.325 M114.671,52.205l-1.487,1.325 M115.663,52.205l-1.487,1.325 M114.176,59.715l1.487,1.33 M113.184,59.715l1.487,1.33 M112.193,59.715l1.487,1.33 M111.201,59.715l1.487,1.33 M110.21,59.715l1.487,1.33 M109.218,59.715l1.487,1.33 M108.226,59.715l1.488,1.33 M107.234,59.715l1.488,1.33 M106.243,59.715l1.488,1.33 M105.251,59.715l1.488,1.33 M104.26,59.715l1.488,1.33 M103.268,59.715l1.488,1.33 M107.234,59.715l1.488,1.33 M102.277,59.715l1.488,1.33 M101.285,59.715l1.488,1.33 M100.294,59.715l1.488,1.33 M99.302,59.715l1.488,1.33 M100.79,59.715l-1.488,1.33 M101.782,59.715l-1.488,1.33 M102.774,59.715l-1.488,1.33 M103.765,59.715l-1.488,1.33 M104.757,59.715l-1.488,1.33 M105.748,59.715l-1.488,1.33 M106.74,59.715l-1.488,1.33 M107.731,59.715l-1.488,1.33 M108.723,59.715l-1.488,1.33 M109.714,59.715l-1.488,1.33 M110.706,59.715l-1.488,1.33 M111.697,59.715l-1.487,1.33 M107.731,59.715l-1.488,1.33 M112.688,59.715l-1.487,1.33 M113.68,59.715l-1.487,1.33 M114.671,59.715l-1.487,1.33 M115.663,59.715l-1.487,1.33" />
    </g>
    <g>
      <path fill="#FFFFFF" stroke="#DB161B" stroke-width="0.2825" d="M63.255,73.56c-24.057,23.525-34.319,26.5-29.503,28.395C38.568,103.85,54.06,91.71,70.18,75.58C86.3,59.455,96.17,45.102,91.355,43.207C86.54,41.311,88.84,48.537,63.255,73.56z" />
      <path fill="#FFFFFF" stroke="#DB161B" stroke-width="0.165" d="M43.004,90.655l8.426,2.21c-7.931,7.515-16.854,10.61-19.333,9.285C29.618,100.825,36.559,97.73,43.004,90.655L43.004,90.655z" />
      <path fill="#FFFFFF" stroke="#DB161B" stroke-width="0.165" d="M43.004,91.54l6.94,1.77c-7.727,7.225-15.368,9.28-17.346,8.4C30.61,100.825,36.726,98.34,43.004,91.54z" />
      <path fill="none" stroke="#DB161B" stroke-width="0.165" d="M68.895,72.53c-0.02,0.115-0.075,0.62-0.125,0.82c0,0.28-0.03,0.49-0.06,0.71c-0.08,0.19-0.065,0.365-0.31,0.435c-0.259,0.353-0.69,0.51-1.11,0.71c-0.513,0.236-0.912-0.029-1.29-0.325c-0.045-0.175-0.08-0.43-0.125-0.6c0.153,0.403,0.186,0.943-0.12,1.305 M66.615,76.185c-0.02-0.015-0.04-0.035-0.06-0.055c0.07,0.063,0.092,0.081,0.059,0.064c-0.417-0.254-0.722-0.328-1.109-0.389c-0.456,0.003-1.266-0.034-1.66,0.11c-0.175,0.155-0.435,0.24-0.615,0.38c-0.34,0.232-0.502,0.688-0.805,0.93c-0.065,0.25-0.21,0.24-0.305,0.435c0.29,0.02,0.525,0.055,0.675,0.215c0.26,0.12-0.215-0.115-0.305-0.215c-0.205-0.055-0.255-0.11-0.555-0.11c-0.423-0.106-0.735,0.22-1.17,0.22 M63.29,78.915c-0.125,0.005-0.7,0.1-0.925,0c-0.25-0.06-0.4-0.18-0.555-0.385c-0.075-0.145,0,0.265,0,0.44c-0.025,0.32-0.135,0.325-0.305,0.545c-0.376,0.217-0.686,0.455-1.11,0.6c-0.185,0.075-0.405,0.155-0.555,0.27c-0.205,0.13-0.185,0.29-0.305,0.49c0.02,0.27,0.07,0.42,0.245,0.55c0.053,0.293,0.937,0.857,0.305,0.925c-0.21,0.08-0.325,0.015-0.55,0 M59.41,82.73c-0.15-0.03-0.69-0.19-0.925-0.27h-0.86c-0.335,0.02-0.4,0.11-0.68,0.215c-0.18,0.165-0.305,0.28-0.555,0.385c-0.13,0.15-0.39,0.405-0.49,0.6c-0.075,0.185-0.125,0.435-0.125,0.71c0.005,0.315,0.1,0.37,0.125,0.655c0.06,0.207,0.278,0.65,0.49,0.76 M56.475,86.5c-0.025,0-0.085,0.14-0.175,0.26c-0.195,0.2-0.22,0.215-0.525,0.215c-0.27-0.01-0.245-0.105-0.435-0.175c-0.283-0.331-0.484-0.827-0.79-1.16c-0.08-0.035-0.11-0.07-0.215-0.085c0.555,0.128,0.709,0.69,0.74,1.205c0.03,0.387-0.072,0.694-0.39,0.905c-0.337,0.347-0.655,0.691-1.18,0.775c-0.26-0.02-0.335-0.09-0.525-0.175c-0.288-0.201-0.57-0.345-0.745-0.645c-0.392-0.119-0.622,0.124-0.83,0.385c-0.075,0.035-0.19,0.14-0.265,0.175 M51.66,88.28c0.07,0.03,0.32,0.205,0.435,0.27c0.323,0.622,0.386,1.426,0,2.04c-0.356,0.311-0.673,0.399-1.195,0.38c-0.17,0.055-0.49,0.08-0.655,0c-0.841-0.19-1.476-0.764-1.902-1.505c0.146,0.458,0.427,0.759,0.49,1.235c0.103,0.41,0.071,0.992-0.055,1.395v0.165 M43.621,93.115v0.08c0-0.21-0.006-0.105,0.088,0.31c0.165,0.185,0.552,0.235,0.875,0.155c0.283-0.205,0.274-0.365,0.787-0.465c0.495,0.03,0.685,0.16,0.962,0.31c0.329,0.145,0.481,0.22,0.7,0.545c0.109,0.265,0.169,0.445-0.175,0.545c-0.273,0.175-0.598,0.27-0.962,0.315c-0.404,0-0.695-0.045-0.875,0.155c-0.278,0.255-0.262,0.41-0.262,0.855c-0.093,0.14-0.112,0.55-0.175,0.705c-0.243,0.1-0.386,0.155-0.787,0.155c-0.234-0.503-0.252-1.386-0.525-1.795c-0.326-0.364-0.654-0.675-1.137-0.855c0.343,0.155,0.392,0.325,0.437,0.7c-0.437,0.284-1.36,0.383-1.661-0.155c-0.101,0.67-0.392,1.034-0.7,1.635c0.077,0.38,0.243,0.395,0.263,0.86c0.14,0.465,0.196,0.939,0.787,0.935c-1.232,0.105-1.786-0.943-2.886-1.17c-0.404,0-0.695-0.04-0.874,0.155c-0.465,0.281-0.794,1.27-0.437,1.715c0.584,1.071-1.061,1.355-1.836,1.015" />
      <path fill="#FFFFFF" stroke="#DB161B" stroke-width="0.2235" d="M90.705,52.33c25.722-44.779,18.216-46.669-7.05-3.248L90.705,52.33z" />
      <path fill="#FFFFFF" stroke="#DB161B" stroke-width="0.1965" d="M90,52.005c24.771-43.041,18.747-44.541-5.64-2.598" />
      <path fill="#FFFFFF" stroke="#DB161B" stroke-width="0.223" d="M88.23,42.73c-1.255,2.078-2.58,4.454-3.87,6.676L90,52.005c1.285-2.224,2.69-4.565,3.865-6.678L88.23,42.73z" />
      <path fill="#FFFFFF" stroke="#DB161B" stroke-width="0.223" d="M88.705,43.447c-1.25,2.078-2.125,3.669-3.41,5.891l4.225,1.946c1.29-2.221,2.24-3.777,3.415-5.89L88.705,43.447z" />
      <path fill="#FFFFFF" stroke="#DB161B" stroke-width="0.2235" d="M91.772,45.854l-2.819-1.298l-2.503,4.32l2.819,1.298L91.772,45.854z" />
      <path fill="#FFFFFF" stroke="#DB161B" stroke-width="0.223" d="M91.775,45.856l-5.32,3.021 M89.27,50.175l-0.315-5.618 M104.515,23.864l-2.82-1.299" />
      <path fill="#DB161B" stroke="#DB161B" stroke-width="0.6665" stroke-miterlimit="3.9998" d="M104.169,20.43c1.055-0.23,1.376,1.139,0.329,1.403C103.444,22.063,103.123,20.694,104.169,20.43z" />
    </g>
    <g>
      <path fill="#FFFFFF" stroke="#DB161B" stroke-width="0.2825" d="M86.862,73.561c24.057,23.525,34.319,26.5,29.503,28.394c-5.531,6.188-67.965-52.653-57.603-58.748C63.577,41.311,61.277,48.537,86.862,73.561z" />
      <path fill="#FFFFFF" stroke="#DB161B" stroke-width="0.165" d="M98.687,92.865c7.93,7.515,16.853,10.61,19.332,9.285c2.479-1.325-4.461-4.42-10.906-11.495L98.687,92.865z" />
      <path fill="#FFFFFF" stroke="#DB161B" stroke-width="0.165" d="M107.112,91.54l-6.94,1.77c7.727,7.225,15.368,9.28,17.346,8.4C119.507,100.825,113.391,98.34,107.112,91.54z" />
      <path fill="none" stroke="#DB161B" stroke-width="0.165" d="M81.222,72.53c0.02,0.115,0.075,0.62,0.125,0.82c0,0.28,0.03,0.49,0.06,0.71c0.08,0.19,0.065,0.365,0.31,0.435c0.261,0.355,0.689,0.509,1.11,0.71c0.514,0.236,0.911-0.029,1.29-0.325c0.045-0.175,0.08-0.43,0.125-0.6c-0.153,0.402-0.186,0.944,0.12,1.305 M83.502,76.185c0.02-0.015,0.04-0.035,0.06-0.055c-0.145,0.13-0.085,0.07,0.25-0.105c0.235-0.11,0.49-0.17,0.8-0.22c0.453,0.003,1.269-0.034,1.66,0.11c0.175,0.155,0.435,0.24,0.615,0.38c0.34,0.233,0.501,0.688,0.805,0.93c0.065,0.25,0.21,0.24,0.305,0.435c-0.29,0.02-0.525,0.055-0.675,0.215c-0.26,0.12,0.215-0.115,0.305-0.215c0.205-0.055,0.255-0.11,0.555-0.11c0.423-0.106,0.735,0.22,1.17,0.22 M86.827,78.915c0.125,0.005,0.7,0.1,0.925,0c0.25-0.06,0.4-0.18,0.555-0.385c0.075-0.145,0,0.265,0,0.44c0.025,0.32,0.135,0.325,0.305,0.545c0.376,0.217,0.686,0.455,1.11,0.6c0.185,0.075,0.405,0.155,0.555,0.27c0.205,0.13,0.185,0.29,0.305,0.49c-0.02,0.27-0.07,0.42-0.245,0.55c-0.053,0.293-0.937,0.857-0.305,0.925c0.21,0.08,0.325,0.015,0.55,0 M90.707,82.73c0.15-0.03,0.69-0.19,0.925-0.27h0.86c0.335,0.02,0.4,0.11,0.68,0.215c0.18,0.165,0.305,0.28,0.555,0.385c0.13,0.15,0.39,0.405,0.49,0.6c0.075,0.185,0.125,0.435,0.125,0.71c-0.005,0.315-0.1,0.37-0.125,0.655c-0.059,0.205-0.278,0.65-0.49,0.76 M93.642,86.5c0.025,0,0.085,0.14,0.175,0.26c0.195,0.2,0.22,0.215,0.525,0.215c0.27-0.01,0.245-0.105,0.435-0.175c0.283-0.331,0.484-0.827,0.79-1.16c0.08-0.035,0.11-0.07,0.215-0.085c-0.555,0.128-0.709,0.69-0.74,1.205c-0.03,0.387,0.073,0.693,0.39,0.905c0.337,0.347,0.655,0.692,1.18,0.775c0.26-0.02,0.335-0.09,0.525-0.175c0.288-0.202,0.569-0.345,0.745-0.645c0.392-0.119,0.622,0.124,0.83,0.385c0.075,0.035,0.19,0.14,0.265,0.175 M98.457,88.28c-0.07,0.03-0.32,0.205-0.435,0.27c-0.323,0.622-0.386,1.426,0,2.04c0.354,0.31,0.674,0.399,1.195,0.38c0.17,0.055,0.49,0.08,0.655,0c0.841-0.191,1.475-0.764,1.902-1.505c-0.146,0.458-0.427,0.759-0.49,1.235c-0.103,0.41-0.071,0.992,0.055,1.395v0.165 M106.496,93.115v0.08c0-0.21,0.005-0.105-0.088,0.31c-0.165,0.185-0.552,0.235-0.874,0.155c-0.283-0.205-0.274-0.365-0.787-0.465c-0.496,0.03-0.685,0.16-0.962,0.31c-0.33,0.145-0.482,0.22-0.7,0.545c-0.109,0.265-0.169,0.445,0.175,0.545c0.274,0.175,0.599,0.27,0.962,0.315c0.83-0.076,1.19,0.187,1.137,1.01c0.093,0.14,0.112,0.55,0.175,0.705c0.243,0.1,0.385,0.155,0.787,0.155c0.234-0.501,0.253-1.388,0.525-1.795c0.327-0.364,0.655-0.675,1.137-0.855c-0.343,0.155-0.392,0.325-0.437,0.7c0.436,0.284,1.359,0.383,1.661-0.155c0.101,0.67,0.393,1.033,0.7,1.635c-0.077,0.38-0.243,0.395-0.263,0.86c-0.14,0.465-0.196,0.939-0.787,0.935c1.233,0.105,1.786-0.943,2.886-1.17c0.404,0,0.695-0.04,0.875,0.155c0.465,0.281,0.794,1.27,0.437,1.715c-0.584,1.071,1.06,1.354,1.836,1.015" />
      <path fill="#FFFFFF" stroke="#DB161B" stroke-width="0.2235" d="M59.412,52.33c-25.704-44.744-18.239-46.704,7.05-3.248L59.412,52.33z" />
      <path fill="#FFFFFF" stroke="#DB161B" stroke-width="0.1965" d="M60.117,52.005c-24.754-43.007-18.768-44.573,5.64-2.598" />
      <path fill="#FFFFFF" stroke="#DB161B" stroke-width="0.223" d="M61.887,42.73c1.255,2.079,2.58,4.454,3.87,6.676l-5.64,2.599c-1.285-2.224-2.69-4.565-3.865-6.678L61.887,42.73z" />
      <path fill="#FFFFFF" stroke="#DB161B" stroke-width="0.223" d="M61.412,43.448c1.25,2.079,2.125,3.669,3.41,5.891l-4.225,1.946c-1.29-2.221-2.24-3.777-3.415-5.89L61.412,43.448z" />
      <path fill="#FFFFFF" stroke="#DB161B" stroke-width="0.2235" d="M58.345,45.854l2.819-1.298l2.502,4.32l-2.819,1.298L58.345,45.854z" />
      <path fill="#FFFFFF" stroke="#DB161B" stroke-width="0.223" d="M58.342,45.856l5.32,3.021 M60.847,50.175l0.315-5.618 M45.602,23.864l2.82-1.299" />
      <path fill="#DB161B" stroke="#DB161B" stroke-width="0.6665" stroke-miterlimit="3.9998" d="M45.94,20.428c1.047,0.264,0.726,1.633-0.329,1.403C44.565,21.568,44.886,20.199,45.94,20.428z" />
    </g>
    <path fill="#FFFFFF" stroke="#DB161B" stroke-width="0.2035" d="M67.63,42.479c0,15.471,0.09,21.301-1.05,22.101c-1.08,0.855-31.174,0-31.174,4.42s24.789,8.84,32.224,8.84c9.915,0,14.875-4.42,14.875-13.26V42.479H67.63z" />
    <path fill="#FFFFFF" stroke="#DB161B" stroke-width="0.176" d="M67.63,46.899v2.21c4.931,0.737,9.944,0.737,14.875,0v-2.21C77.574,47.636,72.561,47.636,67.63,46.899z M67.63,42.479v2.21c4.931,0.736,9.944,0.736,14.875,0v-2.21C77.574,43.215,72.561,43.215,67.63,42.479z" />
    <path fill="#FFFFFF" stroke="#DB161B" stroke-width="0.176" d="M67.63,44.689v2.21c4.931,0.737,9.944,0.737,14.875,0v-2.21C77.574,45.425,72.561,45.425,67.63,44.689z M67.63,49.109v2.211c4.96,0.735,9.915,0.735,14.875,0v-2.211C77.574,49.846,72.561,49.846,67.63,49.109z" />
    <path fill="#FFFFFF" stroke="#DB161B" stroke-width="2.2315" d="M68.306,45.468c0.89,0.012,0.89,0.942,0,0.954C67.416,46.41,67.416,45.481,68.306,45.468z M71.01,45.706c0.89,0.012,0.89,0.942,0,0.954C70.12,46.648,70.12,45.718,71.01,45.706z M73.715,45.945c0.89,0.012,0.89,0.942,0,0.954C72.825,46.887,72.825,45.957,73.715,45.945z M76.419,45.945c0.89,0.012,0.89,0.942,0,0.954C75.529,46.887,75.529,45.957,76.419,45.945z M79.122,45.706c0.89,0.012,0.89,0.942,0,0.954C78.232,46.648,78.232,45.718,79.122,45.706z M81.827,45.468c0.89,0.012,0.89,0.942,0,0.954C80.937,46.41,80.937,45.481,81.827,45.468z" />
    <path fill="#FFFFFF" stroke="#DB161B" stroke-width="0.176" d="M67.63,53.53l14.875,11.935 M69.115,53.53l13.39,10.605 M71.1,53.97l11.405,8.84 M72.59,53.97l9.915,7.515 M74.075,53.97l8.43,6.19 M75.56,53.97l6.945,4.865 M77.05,53.97l5.455,3.535 M78.535,53.97l3.97,2.655 M80.025,53.97l2.48,1.77 M81.51,53.97l0.995,0.885 M67.63,54.855L82.505,66.79 M82.505,53.53l-16.36,13.26 M81.015,53.53L66.64,65.02 M79.035,53.97L67.63,62.81 M77.545,53.97l-9.915,7.515 M76.06,53.97l-8.43,6.19 M74.57,53.97l-6.94,4.865 M73.085,53.97l-5.455,3.535 M71.595,53.97l-3.965,2.655 M70.11,53.97l-2.48,1.77 M68.62,53.97l-0.99,0.885 M82.505,54.855l-16.36,13.26 M82.505,56.18l-16.36,13.26 M82.505,57.505L66.145,70.77 M82.505,58.835l-16.36,13.26 M82.505,60.16l-16.36,13.26 M82.505,61.485l-16.36,13.26 M82.505,62.81l-16.36,13.26 M82.505,64.14L66.145,77.4 M82.505,65.465L67.135,77.84 M82.505,66.79L68.62,77.84 M82.005,68.56L71.1,77.4 M81.51,70.325L72.59,77.4 M80.52,72.535l-4.46,3.535 M67.63,56.18l14.375,11.495 M67.63,57.505L82.005,69 M67.63,58.835l13.88,11.05 M67.63,60.16l13.88,11.05 M67.63,61.485l13.385,10.61 M67.135,62.37L80.52,72.98 M67.135,63.695L79.53,73.42 M66.64,64.58l12.395,9.725 M66.145,65.465l11.895,9.28 M66.145,66.79l11.4,8.84 M66.145,68.115l9.915,7.955" />
    <path fill="#FFFFFF" stroke="#DB161B" stroke-width="0.176" d="M67.63,51.32v2.21c4.96,0.735,9.915,0.735,14.875,0v-2.21C77.545,52.055,72.59,52.055,67.63,51.32z M66.145,69.44l8.92,7.075 M66.145,70.77l7.93,6.185 M66.145,72.095l6.94,5.305 M66.145,73.42L71.1,77.4 M66.145,74.745l3.965,3.095 M66.145,76.07l2.475,1.77" />
    <path fill="#FFFFFF" stroke="#DB161B" stroke-width="2.2315" d="M68.306,52.098c0.89,0.012,0.89,0.942,0,0.954C67.416,53.04,67.416,52.111,68.306,52.098z M71.01,52.336c0.89,0.012,0.89,0.942,0,0.954C70.12,53.278,70.12,52.349,71.01,52.336z M73.715,52.575c0.89,0.012,0.89,0.942,0,0.954C72.825,53.517,72.825,52.587,73.715,52.575z M76.419,52.575c0.89,0.012,0.89,0.942,0,0.954C75.529,53.517,75.529,52.587,76.419,52.575z M79.122,52.336c0.89,0.012,0.89,0.942,0,0.954C78.232,53.278,78.232,52.349,79.122,52.336z M81.827,52.098c0.89,0.012,0.89,0.942,0,0.954C80.937,53.04,80.937,52.111,81.827,52.098z" />
    <path fill="#FFFFFF" stroke="#DB161B" stroke-width="0.176" d="M46.312,74.305L64.16,65.02 M45.321,73.86l16.854-8.84 M44.826,72.98l15.369-7.96 M44.329,72.095l13.385-7.075 M43.338,71.21l12.392-6.19 M43.834,69.885l8.426-4.42 M43.338,69l6.445-3.535 M43.338,67.675l4.462-2.21 M47.8,74.745l16.855-8.84 M49.287,75.19l15.863-8.4 M50.775,75.63l14.87-7.955 M52.26,76.07l12.395-6.63 M54.245,76.07l10.905-5.745 M55.73,76.515l9.42-4.865 M57.22,76.955l7.435-3.975 M59.2,76.955l5.95-3.095 M61.185,77.4l3.965-2.21 M63.17,77.4l2.475-1.33" />
    <path fill="#FFFFFF" stroke="#DB161B" stroke-width="0.176" d="M66.64,64.58h-2.48c-0.825,4.382-0.825,8.879,0,13.26h2.48C65.81,73.459,65.81,68.961,66.64,64.58z M37.389,70.77l5.949-4.42 M37.389,67.675l5.949,5.305" />
    <path fill="#FFFFFF" stroke="#DB161B" stroke-width="0.1255" d="M46.312,65.465l-2.974,0.44c-0.661,2.8-0.661,5.155,0,7.955l2.974,0.885C45.652,71.945,45.652,68.265,46.312,65.465L46.312,65.465z" />
    <path fill="#FFFFFF" stroke="#DB161B" stroke-width="0.2155" d="M82.485,43.363v-2.229c-2.225,0.019-3.715-1.307-3.715-2.653L71.345,38.5c0,1.326-1.485,2.653-3.715,2.653v2.21H82.485z" />
    <path fill="#FFFFFF" stroke="#DB161B" stroke-width="0.182" d="M71.875,35.848h6.367V38.5h-6.367V35.848z M72.405,33.196h5.306v2.652h-5.306V33.196z M72.405,30.545h5.306v2.652h-5.306V30.545z" />
    <path fill="#FFFFFF" stroke="#DB161B" stroke-width="0.182" d="M72.935,27.008h4.244v3.536h-4.244V27.008z" />
    <path fill="#FFFFFF" stroke="#DB161B" stroke-width="0.19" d="M72.755,23.914h4.61v3.094h-4.61V23.914z" />
    <path fill="#FFFFFF" stroke="#DB161B" stroke-width="0.6665" d="M75.315,16.843c3.395,0,6.147,1.88,6.147,4.199c-0.287,5.561-12.01,5.558-12.295,0C69.168,18.723,71.92,16.843,75.315,16.843z" />
    <path fill="#FFFFFF" stroke="#DB161B" stroke-width="0.179" d="M78.39,20.82c0,1.16,1.535,3.094,1.535,3.094c-2.142,1.559-7.308,1.977-9.22,0c0,0,1.535-1.935,1.535-3.094s-1.535-2.652-1.535-2.652c2.408-1.725,6.81-1.723,9.22,0C79.925,18.168,78.39,19.661,78.39,20.82z" />
    <path fill="#FFFFFF" stroke="#DB161B" stroke-width="0.179" d="M77.365,20.82c0,1.16,1.535,3.536,1.535,3.536c-1.11,0.76-1.89,0.884-3.585,0.884s-2.785,0.126-3.585-0.884c0,0,1.535-2.377,1.535-3.536c0-1.159-1.535-3.094-1.535-3.094c1.11-0.76,1.89-0.884,3.585-0.884s2.475,0.124,3.585,0.884C78.9,17.726,77.365,19.661,77.365,20.82z" />
    <path fill="#FFFFFF" stroke="#DB161B" stroke-width="0.182" d="M71.345,38.5h7.425l-3.71,3.979L71.345,38.5z" />
    <path fill="#FFFFFF" stroke="#DB161B" stroke-width="0.6665" d="M69.168,19.938c2.028,0.047,2.028,2.605,0,2.652C67.139,22.542,67.139,19.984,69.168,19.938z M81.462,19.938c2.028,0.047,2.028,2.605,0,2.652C79.434,22.542,79.434,19.984,81.462,19.938z M75.315,19.938c2.028,0.047,2.028,2.605,0,2.652C73.287,22.542,73.287,19.984,75.315,19.938z M75.315,15.517c2.028,0.047,2.028,2.605,0,2.652C73.287,18.122,73.287,15.564,75.315,15.517z M70.813,40.712c2.101,0.048,2.1,2.605,0,2.652C68.713,43.316,68.713,40.759,70.813,40.712z M79.302,40.712c2.101,0.048,2.1,2.605,0,2.652C77.202,43.316,77.202,40.759,79.302,40.712z M75.058,39.827c2.802,0.064,2.801,3.473,0,3.536C72.256,43.3,72.257,39.891,75.058,39.827z" />
    <path fill="#FFFFFF" stroke="#DB161B" stroke-width="0.165" d="M67.504,54.86h10.164c0.342,0,0.619,0.21,0.619,0.469v1.714c0,0.259-0.277,0.469-0.619,0.469H67.504c-0.342,0-0.619-0.21-0.619-0.469v-1.714C66.885,55.07,67.162,54.86,67.504,54.86z" />
    <path fill="#FFFFFF" stroke="#DB161B" stroke-width="0.165" d="M81.76,52.65c-1.375,0-2.48,1.03-2.48,2.31v2.01c0.091,3.053,4.869,3.053,4.96,0v-2.01C84.24,53.68,83.135,52.65,81.76,52.65z M81.76,53.535c-0.825,0-1.49,0.825-1.49,1.85v1.165c0.049,2.434,2.928,2.439,2.975,0v-1.165C83.245,54.36,82.585,53.535,81.76,53.535z M68.87,53.095c-0.825,0-1.485,0.82-1.485,1.845v2.05c0.048,2.443,2.922,2.444,2.97,0v-2.05C70.355,53.915,69.695,53.095,68.87,53.095z M68.87,52.21c-1.375,0-2.48,1.03-2.48,2.31v2.895c0.091,3.053,4.869,3.054,4.96,0V54.52C71.35,53.24,70.245,52.21,68.87,52.21z" />
    <path fill="#FFFFFF" stroke="#DB161B" stroke-width="0.165" d="M64.905,53.975c-1.077,0.015-1.601,1.198-1.49,2.33c0,1.025,0.665,1.85,1.49,1.85c1.077-0.015,1.595-1.199,1.485-2.33C66.39,54.8,65.73,53.975,64.905,53.975z M64.905,53.095c-1.375,0-2.48,1.03-2.48,2.31v1.325c0.092,3.053,4.865,3.053,4.96,0v-1.325C67.385,54.125,66.275,53.095,64.905,53.095z" />
    <path fill="#FFFFFF" stroke="#DB161B" stroke-width="0.165" d="M58.955,52.755c-1.485,0-2.675,0.92-2.675,2.065v2.29c0.087,2.727,5.263,2.727,5.35,0v-2.29C61.63,53.675,60.44,52.755,58.955,52.755z M58.955,51.765c-2.47,0-4.46,1.155-4.46,2.585v3.235c0.16,3.409,8.76,3.408,8.92,0V54.35C63.415,52.92,61.425,51.765,58.955,51.765z M91.18,53.195c-1.485,0-2.68,0.925-2.68,2.07v2.29c0.089,2.724,5.265,2.729,5.355,0v-2.29C93.855,54.12,92.66,53.195,91.18,53.195z M91.18,52.21c-2.475,0-4.465,1.15-4.465,2.58v3.235c0.159,3.407,8.765,3.41,8.925,0V54.79C95.64,53.36,93.65,52.21,91.18,52.21L91.18,52.21z" />
    <path fill="#FFFFFF" stroke="#DB161B" stroke-width="0.165" d="M83.073,54.86h5.303c0.178,0,0.323,0.21,0.323,0.469v1.714c0,0.259-0.145,0.469-0.323,0.469h-5.303c-0.178,0-0.323-0.21-0.323-0.469v-1.714C82.75,55.07,82.895,54.86,83.073,54.86z" />
    <path fill="#FFFFFF" stroke="#DB161B" stroke-width="0.165" d="M77.489,54.42h3.093c0.104,0,0.188,0.28,0.188,0.625v2.285c0,0.346-0.085,0.625-0.188,0.625h-3.093c-0.104,0-0.188-0.28-0.188-0.625v-2.285C77.3,54.7,77.384,54.42,77.489,54.42z" />
    <path fill="#FFFFFF" stroke="#DB161B" stroke-width="0.165" d="M61.129,54.42h3.093c0.104,0,0.188,0.28,0.188,0.625v2.285c0,0.346-0.085,0.625-0.188,0.625h-3.093c-0.104,0-0.188-0.28-0.188-0.625v-2.285C60.94,54.7,61.025,54.42,61.129,54.42z" />
    <path fill="#FFFFFF" stroke="#DB161B" stroke-width="0.165" d="M50.407,53.975h6.188c0.208,0,0.376,0.35,0.376,0.782v2.857c0,0.431-0.168,0.782-0.376,0.782h-6.188c-0.208,0-0.376-0.35-0.376-0.782v-2.857C50.03,54.325,50.199,53.975,50.407,53.975z" />
    <path fill="#FFFFFF" stroke="#DB161B" stroke-width="0.165" d="M93.51,54.42h5.745c0.193,0,0.35,0.35,0.35,0.782v2.857c0,0.431-0.157,0.782-0.35,0.782H93.51c-0.193,0-0.35-0.35-0.35-0.782v-2.857C93.16,54.77,93.316,54.42,93.51,54.42z" />
  </g>
</svg>
