<svg xmlns="http://www.w3.org/2000/svg" width="450px" height="300px" viewBox="0 0 450 300">
  <path fill="#012169" d="M0,0h450v300H0V0z" />
  <path fill="#FFFFFF" d="M225,37.5h-49.843L225,12.578V0h-25.157L131.25,34.297V0h-37.5v34.297L25.157,0H0v12.578L49.843,37.5H0V75h49.843L0,99.922V112.5l0,0h25.156L93.75,78.203V112.5h37.5V78.203l68.594,34.297H225V99.922L175.157,75H225V37.5z" />
  <path fill="#C8102E" d="M91.77,75l-75,37.5H0l0,0L75,75H91.77z M58.23,37.5H75L0,0v8.385L58.23,37.5z M123.75,112.5v-45H225V45H123.75V0h-22.5v45H0v22.5h101.25v45H123.75z M225,0h-16.77l-75,37.5H150L225,0z M166.77,75H150l75,37.5v-8.385L166.77,75z" />
  <g>
    <path fill="#128BBF" d="M374.803,133.879c-0.072,25.443-4.117,52.854-37.302,65.911c-33.187-13.057-37.232-40.468-37.304-65.911H374.803z" />
    <path fill="#E8ECE9" d="M337.501,199.79c15.044-5.918,24.362-15.577,29.773-25.876c-0.853-0.288-2.552-0.314-3.24-0.067c-0.816-0.053-32.082-2.356-35.754-3.693c-3.194-1.162-15.382,0.988-21.07,3.005C312.517,184.114,321.71,193.577,337.501,199.79z" />
    <path fill="#69522B" d="M314.308,184.016c0.507-0.164,1.476-0.125,1.857-0.056c0.449,0.081,0.531,0.122,0.694-0.365c0.163-0.486,0.531-0.365,0.816-0.122c0.286,0.243,1.019,0.122,1.304-0.284c0.286-0.403,0.367-0.363,0.653-0.081c0.286,0.284,0.408,0.203,0.694,0.122c0.286-0.079,0.775-0.403,1.02-0.849s0.611-0.608,0.815-0.365s0.408,0.365,0.694,0.324c0.286-0.04,0.367,0.243,0.327,0.606c-0.041,0.365,0.122,0.446,0.816-0.12c0.612,0.606,0.815,0.363,0.815-0.284c0-0.648-0.162-3.036-0.407-3.36s-0.49-1.256-0.531-1.985c-0.077-1.376-0.082-1.457-1.755-2.307c0-0.486-0.122-0.689-1.304-0.608c0.041-0.162-0.163-0.648-0.408-0.851s-0.286-0.284-0.163-0.849c0.49,0.04,1.02-0.04,1.306-0.446c0.284-0.405,1.223-0.324,1.794-0.081c0.571,0.243,1.306,0.284,2.406,0.122c0.408-0.324,1.102-0.689,1.837-1.094c0.733-0.405,0.937-0.567,0.978-1.134c0.105-1.454-0.408-3.117-0.816-3.885c-0.407-0.77-0.529-1.742-1.1-2.957c-0.622-1.323-0.612-1.659-1.306-2.469c-0.19-0.223-0.408-0.405-0.449-0.849c-0.041-0.446-0.204-1.053-0.692-1.499c-1.234-1.123-1.714-4.738-2.204-7.409c-0.281-1.531-0.082-5.141-0.733-5.708c-1.102-0.891-1.632-0.729-2.367-1.013c-0.531-0.729-0.774-2.186-1.264-3.482c-0.775,0.122-1.306,0.932-1.837,1.215c-0.531,0.284-0.612,0.284-0.612,1.013c0,0.728-0.408,1.74-1.141,2.874c-0.735,1.133-1.959,0.81-2.978,2.51c-2.245-2.712-2.285-3.482-2.449-4.251c-0.163-0.768-0.531-0.93-1.794-2.024c0-0.324-0.163-1.619-0.041-2.348c-0.939-0.77-1.633-0.648-2.08-0.081c-0.449,0.567-0.775,1.416-1.469,1.74c-0.416,0.525-1.67,1.849-2.697,3.426C301.471,158.844,304.675,172.83,314.308,184.016L314.308,184.016z" />
    <path fill="#BCA76B" d="M374.803,133.879c0.028-9.584-0.509-18.889-0.264-27.043c-12.401-5.507-28.718-6.64-37.039-6.64c-8.323,0-24.64,1.133-37.04,6.64c0.245,8.154-0.29,17.459-0.264,27.043H374.803z" />
    <path fill="#7FB8C1" d="M320.735,184.73c-0.775,0.324-2.081,0.405-2.814-0.081c0.978-0.081,3.631-0.851,3.915-1.094c0.653,0.446,1.796,1.053,2.285,1.053c-0.939,0.203-1.551,0.081-1.796-0.081c0.122,0.284,0.449,0.729,0.653,0.77C322.08,185.256,321.061,185.054,320.735,184.73z M319.674,185.864L319.674,185.864L319.674,185.864L319.674,185.864z M325.772,186.733c-0.449,0.243-2.712,0.851-3.549,0.689c-0.349-0.067,0.163-0.243,0.633-0.304c-0.959,0.081-1.449-0.385-0.877-0.869c-0.224,0-1.957-0.284-2.304-0.385C321.224,188.637,324.997,187.725,325.772,186.733z M324.731,188.9c0.51,0.162,2,0.061,2.285-0.689c-0.837,0.506-3.202-0.061-4.039,0.081c0.003,0.001,0.005,0.002,0.007,0.003c-0.593-0.142-1.391-0.154-1.761,0.037c0.36,0.318,1.521,0.323,2.143,0.112c0.077,0.033,0.105,0.063,0.018,0.11C323.733,188.535,324.223,188.738,324.731,188.9z M327.547,190.195c-1.02,0.02-2.775,0.243-3.202,0.587c-0.02-0.284,0.165-0.678,0.571-0.957c0.026,0.006,0.05,0.005,0.076,0.01c-0.361-0.073-0.74-0.194-1.158-0.389c0.633,0.1,2.896-0.182,3.59-0.446c0.733,0.243,2.182,0.626,2.508,0.586c-0.254,0.156-0.594,0.221-0.943,0.233c0.015,0,0.029,0.001,0.044,0.001c0.41,0.232,0.961,0.556,1.491,0.597C329.974,190.64,327.954,190.417,327.547,190.195z M325.641,189.913c-0.051-0.001-0.104-0.006-0.155-0.01C325.537,189.907,325.59,189.911,325.641,189.913z M326.753,189.793c0.057-0.013,0.115-0.027,0.173-0.042C326.868,189.766,326.811,189.78,326.753,189.793z M326.185,189.894c0.036-0.004,0.073-0.012,0.109-0.017C326.258,189.882,326.222,189.89,326.185,189.894z M328.45,189.798c0.05,0.005,0.098,0.012,0.149,0.015C328.548,189.81,328.5,189.803,328.45,189.798z M328.051,189.741c0.048,0.009,0.094,0.018,0.146,0.026C328.146,189.759,328.099,189.75,328.051,189.741z M327.729,189.668c0.032,0.009,0.066,0.017,0.101,0.025C327.796,189.685,327.76,189.676,327.729,189.668z M323.631,185.499c1.223,0.648,2.896,0.365,5.017-0.365c0.589-0.203,0.27-0.604-0.245-0.365c-1.304,0.608-3.861,0.72-4.568,0.486C323.1,185.013,323.147,185.244,323.631,185.499z M336.174,182.827c0.082-0.223-0.061-0.81,0.184-1.013c-3.141,1.457-5.222,1.902-9.586,0.567c-0.407-0.125-0.694,0-0.245,0.284c0.449,0.282,2.855,0.93,3.427,0.971c0.571,0.041,0.367,0.304,0.02,0.405c-0.347,0.101-0.449,0.344,0.02,0.162c0.469-0.182,3.091-0.251,4.161,0.304c0.468,0.243,0.59,0.203,0.549,0.02c-0.041-0.182,0.204-0.304,0.551-0.344c0.347-0.041,0.551-0.162,0.286-0.263c-0.265-0.101-0.306-0.162-0.102-0.263s0.224-0.203-0.082-0.263c-0.306-0.061-0.51-0.142-0.224-0.284C335.419,182.969,335.848,182.866,336.174,182.827z M339.907,180.64c-0.449-0.081-1.306-0.486-1.917-0.849c-1.755,1.7-5.059,2.514-6.855,2.388c-0.57-0.041-0.447,0.162,0.041,0.203c1.725,0.142,4.447-0.324,6.773-1.742c0.447,0.203,1.427,0.486,2.121,0.486C340.764,181.126,340.356,180.721,339.907,180.64z M328.301,177.118c-0.242,0.042-1.284,0.284-1.57,0.263c-0.286-0.02-0.571,0.061-0.551,0.263c0.02,0.203,0.102,0.324-0.327,0.284c-0.429-0.04-0.796,0.122-0.898,0.243c-0.102,0.122-0.184,0.243,0.245,0.284c0.429,0.04,0.653,0.081,1.143-0.142c0.003-0.001,0.005-0.003,0.008-0.004c-0.085,0.062-0.07,0.194,0.176,0.389c1.03,0.818,2.549,1.355,3.794,1.094c0.606-0.129,0.755-0.506-0.041-0.446c-0.796,0.061-3.001-0.685-3.447-0.972l0,0c-0.161-0.103-0.344-0.125-0.448-0.082c0.474-0.223,0.932-0.547,1.448-0.566C328.362,177.705,328.892,177.016,328.301,177.118z M330.566,180.863c-0.755-0.121-2.172-0.095-2.774-0.04c-0.449,0.04-1.061-0.02-1.326-0.182c-0.265-0.162-0.347-0.466,0.449-0.385c0.794,0.081,0.898-0.081,0.204-0.182c-0.694-0.101-1.653,0.182-0.714,0.77c0.939,0.587,2.998-0.041,4.304,0.324c1.304,0.365,4.078,0.628,6.711-1.478c0.135-0.107,0.367-0.404-0.143-0.241c-1.687,0.534-3.406,0.344-4.1,0.162c-0.694-0.182-1.326-0.223-0.857,0.223c0.469,0.444,1.979,0.748,2.835,0.525C332.115,181.045,331.319,180.984,330.566,180.863z M333.992,178.232c0.531-0.223,0.306-0.466,0.835-0.142c0.531,0.324,1.082,0.547,1.469,0.547s0.531,0,0.102-0.243c-0.428-0.243-0.633-0.304-0.673-0.506c-0.041-0.203-0.102-0.324,0.286-0.203s0.837,0.344,1.143,0.182c0.306-0.162,0.876-0.527,1.386-0.527c0.755-0.02,2.592,0.162,3.182,0.527c0.571-0.446,0.469-0.587,0.877-0.506c0.408,0.081,0.918,0.223,1.143,0.101s0.388-0.101,0.633-0.061c0.243,0.041,0.774-0.061,1.08-0.243c0.306-0.182,0.939-0.425,1.306-0.425s0.815-0.081,0.143-0.182c-0.673-0.101-1.694,0.101-2.041,0.223c-0.345,0.122-1.386,0.203-1.998,0.203s-1.447,0.304-2.141,0.122s-1.653-0.061-2.061-0.061l0,0c-0.735-0.061-1.202,0.162-1.406,0.243s-0.571,0.122-0.959,0.061c-0.388-0.061-0.898-0.101-1.02-0.203s-0.122-0.182,0.204-0.243c0.326-0.061,0.429-0.284-0.02-0.203c-0.449,0.081-1.651,0.041-2.284-0.162c-0.633-0.201-0.898-0.221-1.163-0.122c-0.265,0.101-0.224,0.385,0.163,0.405c0.388,0.02,1.265,0.101,1.571,0.385s0.265,0.304-0.082,0.162c-0.347-0.142-0.979-0.061-0.327,0.405c-0.347,0.02-0.959-0.203-1.286-0.344c-0.327-0.142-0.794-0.162-0.447,0.304C331.952,178.191,333.462,178.454,333.992,178.232z M343.742,178.11c1.835,0.182,3.957-0.486,4.649-1.215c0.201-0.21,0.179-0.559-0.286-0.223c-1.223,0.891-2.692,1.094-4.445,1.215C343.15,177.923,343.307,178.066,343.742,178.11z M361.283,179.832c-0.124-0.162,0-0.405,0.529-0.567c0.531-0.162,0.163-0.527-0.529-0.405c-0.694,0.122-3.672,0.081-4.161-0.284c-0.49-0.365-0.816-0.405-1.102-0.284c-0.286,0.122-0.571,0.081-0.449-0.527c-1.549,0.608-1.917,0-2.733,0.081s-1.245-0.061-2.08-0.162c-0.837-0.101-1.02,0.284-0.816,0.506s-0.102,0.284-0.388,0.243s-0.898-0.263-1.428-0.223c-0.143,0.01-0.372,0.137-0.601,0.276c0.229-0.139,0.458-0.266,0.601-0.276c-0.733,0.041-3.792,0.203-4.18,0.162c-0.388-0.04-0.592,0-0.837,0.142s-0.388,0.203-0.694,0.081s-0.857-0.284-1.162-0.101c-0.306,0.182-0.939,0.02-1.49,0.243c0.531,0.02,2.366,0.486,2.957,0.689c0.449-0.04,0.571-0.142,0.49-0.304c-0.082-0.162-0.143-0.344,0.673-0.304c0.815,0.04,2.692,0.02,3.039,0.02l0,0c0.694,0.304,1.508,0.587,1.998,0.466s0.857-0.203,1.592,0.203c0.733,0.404,1.06,0.203,1.713-0.121s0.816-0.365,1.306-0.081c0.49,0.284-0.041,0.486-0.735,0.566c-0.694,0.081-0.775,0.04-1.143,0.405s-0.327,0.284,0.245,0.446c0.571,0.162,1.061-0.041,1.714-0.243c0.629-0.195,1.625-0.051,2.136,0.105c-0.736,0.544-2.117,0.766-2.707,0.766c-0.592,0-0.673,0.203-0.204,0.263c0.469,0.061,0.98,0.122,1.184,0.061c0.204-0.061,0.326-0.081,0.631,0.061c0.306,0.142,0.959,0.223,1.531,0.04c0.571-0.182,1.508-0.263,1.896-0.243s0.816,0.041,0.041-0.182c-0.774-0.223-2.039-0.061-2.345,0.02c-0.306,0.081-1.143,0.02-0.694-0.122s0.837-0.365,1.061-0.547c-0.138-0.034-0.233-0.069-0.333-0.103c0.002,0.001,0.005,0.001,0.007,0.002c0.49,0.162,0.612,0.162,1.102,0.081c0.49-0.081,0.653-0.203,1.549-0.04c0.898,0.162,0.979,0.081,1.306-0.162s0.449-0.446,1.102-0.365C361.527,180.195,361.404,179.992,361.283,179.832z M349.371,180.053c-0.934,0.132-1.185-0.464-2.161-0.343c-0.326,0.041-0.877,0.444-0.122,0.383c0.753-0.061,1.57,0.344,2.304,0.284S349.799,179.992,349.371,180.053z M348.289,180.762c-0.672,0.243-0.184,0.425,0.306,0.284s1.571,0.263,2.02,0.122s0.041-0.405-0.388-0.324C349.799,180.924,348.781,180.584,348.289,180.762z M343.07,181.261c-0.006-0.004-0.016-0.01-0.022-0.014c-0.306-0.203-0.375-0.136-0.449,0.02c-0.08,0.168-0.182,0.304-0.281,0.447c-0.189,0.09-0.363,0.15-0.495,0.161c-0.509,0.04-2.039-0.101-2.427-0.243s-0.857-0.101-0.306,0.284s1.918,0.648,2.468,0.527c0.045-0.01,0.093-0.021,0.139-0.031c-1.123,0.917-2.646,0.978-3.158,0.961l0,0c-0.651-0.02-0.855,0.203,0,0.223c1.258,0.03,2.896-0.126,3.991-1.317c0.234-0.01,0.457,0.011,0.639,0.123c0.429,0.263,1.224,0.768,1.692,0.667c0.469-0.1,1.428-0.1,1.734,0.041c0.306,0.142,0.837,0.567,0.041,0.324c-0.796-0.243-1.449-0.041-1.816-0.203c0.408,0.567,1.334,1.478,2.122,1.478c0.184,0,0.306,0.324-0.082,0.506c0.388,0.182,1.284,0.324,1.753-0.101c-0.122,0.162-0.061,0.263,0.143,0.365c0.204,0.101,0.449,0.243,0.082,0.284s-1.202,0.142-1.447,0.041c0.794,0.505,2.855,1.315,4.956,0.91c0.4-0.076,0.612-0.241-0.041-0.223c-1.347,0.041-1.427,0.02-1.672-0.12c-0.245-0.143-0.204-0.263,0.184-0.385c0.386-0.122,1.366-0.263,1.774-0.263s0.816-0.162-0.02-0.162s-1.855,0-2.263-0.142s-0.714-0.324-0.286-0.608c0.429-0.284,0.878-0.203,1.082-0.466c-1.347-0.02-3-0.729-2.081-1.376c0.213-0.151,0.143-0.162-0.204-0.203c-0.347-0.041-1.366-0.324-1.794-0.567s-0.143-0.446,0.204-0.506c-0.796,0.142-2.388-0.284-3.447-1.073C343.648,180.804,343.376,181.041,343.07,181.261z M358.324,182.827c-0.917,0.16-2.488-0.284-2.957-0.668c-0.633,0.466-1.549,0.91-2.488,0.95c0.857,0.304,1.571,1.175,2.121,1.134c-0.672,0.223-3.61-0.243-4.486-1.013c-0.877-0.768-0.877-0.182-0.265,0.365s1.692,1.377,3.814,1.094c0.531,0.142,1.427-0.02,2.161-0.425c1.224,0.344,2.814,0.122,3.345-0.324c-0.796,0-1.753-0.284-2.182-0.648C357.775,183.292,358.141,183.049,358.324,182.827z M355.694,187.239c0.265-0.122,0.469-0.466,0.531-0.689c-0.367,0.203-2.121,0.324-2.692,0.203s-0.816-0.061-0.673,0.162s0.204,0.425-0.265,0.365c-0.469-0.061-1.306,0.041-1.651,0.162c-0.347,0.122-0.775,0.425-0.041,0.304c0.733-0.122,1.406-0.263,1.957-0.122c0.551,0.142,2.508,0.182,2.896,0.02s0.122-0.162-0.061-0.162S355.428,187.361,355.694,187.239z M339.703,184.932c0.204,0.284,0.653,0.729,1.388,0.891c-0.612,0.243-2.612,0.484-3.183,0.404c0.287,0.203,0.694,0.324,1.102,0.324c-0.367,0.365-2.488,1.256-3.467,1.499c0.49,0.081,1.469,0.04,2.204-0.041c-0.022,0.018-0.06,0.041-0.089,0.062c0.281-0.171,0.556-0.365,0.822-0.588c0.531-0.446,0.887-0.296,0.367,0.162c-1.1,0.972-3.835,2.307-6.445,2.348c-1.063,0.017-1.549-0.486-0.571-0.566c0.272-0.023,0.559-0.044,0.853-0.066c-0.975-0.048-1.667-0.305-2.035-0.784c0.692,0.405,1.508,0.284,2.161,0.203c-0.286-0.041-0.49-0.284-0.694-0.689c0.49,0.162,1.428,0.162,2.204-0.04c-0.367,0-0.653-0.284-0.857-0.567c0.612,0.081,1.794-0.081,2.651-0.567c-0.326-0.041-1.102-0.203-1.753-0.122c0.051-0.03,0.125-0.071,0.211-0.118c-0.086,0.047-0.16,0.088-0.211,0.118c-0.694,0.203-1.143,0.365-1.959,0.446s-0.286,0.486,0.694,0.851c-1.102,0.081-3.345-0.527-4.202-1.013c0.163-0.284,0.041-0.81-0.122-1.335c0.653,0.162,2.406,0,3.059-0.446c-1.549,0.162-1.672-0.446-1.304-0.527s1.345-0.162,1.876,0.122s1.551,0.284,3.019,0.324c-0.408,0.182-0.775,0.324-1.091,0.42s-0.581,0.147-0.785,0.147c0.204,0,0.469-0.051,0.785-0.147s0.683-0.238,1.091-0.42c0.653-0.041,3.1-0.689,3.835-1.013l0,0c2.163,1.175,3.631,0.972,4.692,0.689c-0.449-0.081-1.102-0.324-1.632-0.729c0.571,0.284,2.774,0.608,3.916,0.527c0.651-0.047,0.612,0.365,0.286,0.446C345.133,185.477,342.273,185.742,339.703,184.932z M335.379,186.147c-0.281,0.075-0.816,0.009-1.247-0.111c-0.173-0.048-0.329-0.104-0.445-0.163c0.117,0.059,0.273,0.116,0.445,0.163C334.563,186.156,335.098,186.222,335.379,186.147L335.379,186.147z M350.534,188.758c0.204-0.203,0.509-0.385,0.794-0.466c-0.407-0.081-1.692-0.04-1.998,0.122c0.122-0.243,0.347-0.547,0.592-0.648c-1.612,0-3.569-0.02-4.284-0.405c1.143,0.122,2.408-0.547,2.937-0.547c-0.896-0.02-1.876-0.223-2.121-0.587l0,0c-0.49,0.182-1.857,0.405-2.263,0.344c-0.408-0.061-1-0.081-1.326,0.122c-0.327,0.203-0.347,0.324,0.102,0.365c0.449,0.041,1.02,0.081,1.306,0.061c-0.367,0.203-0.612,0.486-0.694,0.608c0.653-0.162,1.855,0.122,2.202,0.324c-0.265,0.081-0.571-0.02-0.796-0.142c1.102,1.154,4.365,1.154,4.896,0.952c-0.245,0.182-0.469,0.365-0.714,0.425c0.918,0.162,1.978,0.142,3.019-0.466C351.838,188.88,350.799,188.779,350.534,188.758z M340.234,187.827c0.531-0.162,1.224-0.527,2.121-0.709l0,0c-0.796,0.162-1.998,0.486-2.325,0.668c-0.327,0.182-0.673,0.284,0.041,0.284s2.651,0.081,3.08,0.142c-1.082-0.162-2.549-0.203-2.835-0.203C340.03,188.009,339.703,187.989,340.234,187.827z M342.722,189.062c0.551,0.405,1.632,0.727,2.182,0.667c0.551-0.061,0.612-0.223-0.02-0.223c-0.631,0-1.611-0.545-2.121-0.93c-0.49,0.425-1.735,0.425-2.019,0.425C341.376,189.103,341.987,189.325,342.722,189.062z M349.84,190.863c-0.347,0.223-0.143,0.365,0.326,0.425c0.469,0.061,1.102,0.425,0.245,0.304s-2.549-0.121-2.957-0.061c-0.408,0.061-0.633-0.142-0.041-0.223c0.592-0.081,0.998-0.284,1.284-0.446c-0.49,0.122-1.427,0.122-1.713,0.041s-0.469-0.243-0.143-0.324c0.326-0.081,0.102-0.203-0.245-0.162s-1.224,0.405-1.714,0.871c-0.774-0.203-1.876-0.243-2.896-0.162c-2.039-0.81-3.692-0.446-4.527-0.04c0.286,0,0.57,0.142,0.917,0.324c-0.327,0.142-1.243,0.203-1.631,0.101c1.041,0.81,2.284,0.628,3.08,0.405c-0.143,0.162-0.347,0.365-0.796,0.608c-0.449,0.241-0.184,0.344,0.184,0.424c0.367,0.081,0.775,0.101,1.877,0.122c1.713-0.14,3.243-0.059,3.976-0.282c0.735-0.223,2.612-0.101,2.979-0.203c-1.632,0.262-1.959,0.404-2.041,0.667c-0.082,0.263,0.531,0.486,0.918,0.486c-0.735-0.041-1.653,0.729-1.734,1.033c-0.978-0.567-1.447,0.101-1.549,0.324c-0.404-0.16-1.728-0.12-2.427,0.451c0.91,0.174,2.167,0.248,2.57,0.58c-0.449,0.022-1.408,0-1.633,0.062c-0.224,0.059-0.102,0.201,0.306,0.424c-1.386-0.081-3.774,0.506-4.507,1.134c0.264-0.628,1.08-1.478,2.366-1.478c-0.735-0.262-3.08-0.282-3.835,0.182c-0.224-0.243-0.49-0.647-0.51-0.809c-1.243,0.707-3.692-0.304-4.67-1.195c1.264,0.486,2.937,0.851,4.16,0.446c0.694,0.608,2.122,0.648,2.896,0.486c0.155-0.032,0.306-0.058,0.457-0.082c-0.003,0-0.005,0-0.008,0.001c0.551-0.122,0.449-0.486-0.367-0.567l0,0c-0.651-0.02-0.51-0.061-0.204-0.344c0.306-0.284,0.224-0.587-0.184-0.689c-0.407-0.101-1.957-0.425-3.548-0.304c0.651-0.081,1.815-0.707,2.427-0.748c-1.286-0.203-4.651,0.12-6.119,0.647c-0.02-0.223-0.082-0.545-0.184-0.748c-0.51,0.262-2,0.444-2.488,0.181c-0.49-0.262-0.51-0.484-0.083-0.545l0,0c1.505-0.213,2.53-0.689,2.979-1.134c0.265,0.243,1.366,0.486,2.57,0.122c-0.245,0.182-0.265,0.527-0.163,0.709c0.673,0.061,1.122-0.101,1.978-0.101c-0.408,0.041-1.1-0.284-1.468-0.648c0.651,0.122,2.039,0,2.855-0.162c-0.286-0.243-0.612-0.689-0.531-1.053c0.775,0.162,2.57-0.405,3.345-1.416c-0.082,1.254,4.243,1.7,6.649,1.497c-0.25,0.138-0.646,0.534-0.979,0.878c0.365-0.37,0.695-0.685,0.979-0.878l0,0c0.551-0.02,1.753,0.041,2.182-0.02c-0.286,0.142-0.651,0.405-0.733,0.527c1.386-0.162,3.282-0.263,3.833-0.182C350.881,190.215,350.187,190.64,349.84,190.863z M340.634,195.406c-0.039-0.01-0.08-0.019-0.118-0.028C340.556,195.389,340.593,195.394,340.634,195.406z M340.05,190.904c-0.337-0.375-0.625-0.062-0.469,0.162c0.755,1.094,1.611,1.499,3.325,1.438c0.637-0.023,0.143-0.377-0.122-0.385C341.518,192.078,340.723,191.653,340.05,190.904z M364.586,176.713c0.245,0.648-0.896,1.499-1.508,1.742c0.245,0.405,0.163,1.013-0.367,1.134c0.122,0.363-0.286,0.363-0.775,0.565s-0.735,0.365-0.896,0.608c0.264-0.142,0.631-0.263,0.835-0.203c0.204,0.061,0.245,0.365-0.122,0.446s-0.611,0.284-0.735,0.446c0.531-0.203,1.286-0.101,0.775,0.243l0,0c-0.509,0.344-1.182,0.952-0.735,1.801c0.053-0.028,0.104-0.061,0.155-0.09c1.995-2.396,3.703-4.915,5.166-7.532c0.017-0.09,0.033-0.176,0.044-0.251C365.851,176.107,364.953,176.591,364.586,176.713z M322.876,174.142c0.388,0,0.388,0.142,0.612,0.709c1.998-1.073,2.631-0.628,3.365,0.547c0.735,1.173,2.876,1.538,3.978,1.153c0.422-0.146,0.286-0.565-0.224-0.424c-0.51,0.142-2.57-0.203-2.835-0.365c-0.265-0.162-0.327-0.365,0.082-0.689c0.143,0.203,0.692,0.142,1.121,0.547c0.265-0.304,1.286-0.628,2.224-1.013c-0.49-0.101-1.571-0.567-2.265-1.114c-1.406,0.101-2.488-0.606-3.1-1.031c-1.325,0.971-2.957,1.214-3.508,1.193S322.488,174.142,322.876,174.142z M326.323,175.074c-0.341,0.084-1.306,0.608-1.651,0.648c-0.347,0.041-0.959,0.527-0.327,0.547c0.631,0.02,1.447-0.668,1.896-0.729C326.69,175.479,326.731,174.972,326.323,175.074z M329.954,176.935c-0.245,0.02-0.551-0.041-0.755-0.122s-0.265-0.041-0.204,0.162l0,0c0.061,0.203,0.061,0.425,0,0.567s-0.061,0.324,0.204,0.122c0.265-0.203,0.429-0.446,0.694-0.304s0.939,0.122,1.243,0.081c0.308-0.041,0.408-0.101-0.039-0.284C330.647,176.976,330.198,176.915,329.954,176.935z M350.167,176.976c1.325,0.731,2.753,0.952,4.343,0.81c0.617-0.055,0.124-0.315-0.121-0.304c-1.408,0.061-3.219-0.307-4.12-0.729C349.922,176.591,349.799,176.773,350.167,176.976z M354.042,177.118c0.794-0.243,2.223-0.385,2.549-0.324c0.327,0.061,0.694-0.081-0.061-0.263c-0.755-0.181-2.508-0.241-3.059-0.14c-0.551,0.1-2.265,0.16-2.835,0.1c0.245,0.04,0.407,0.081,0.551,0.243C352.573,176.692,353.614,176.713,354.042,177.118z M356.571,177.28c0.898-0.142,1.937,0.223,2.345,0.405c0.408,0.182,0.694,0.344,1.224,0.122c0.531-0.223,1.753-0.284,2.325-0.648c0.775-0.365,1.408-0.829,1.939-1.254c-0.265,0.02-1.061,0.162-1.388,0.243c-1.57,0.389-1.143-0.142-1.816,0.101c0.286,0.343-0.06,0.626-0.284,0.404c-0.224-0.221-0.979-0.404-1.408-0.505c-0.245,0.324-0.959,0.284-1.265,0.221C357.755,177.199,357.244,176.875,356.571,177.28L356.571,177.28z" />
    <path fill="none" stroke="#000000" stroke-width="0.75" d="M374.803,133.879c-0.072,25.443-4.117,52.854-37.302,65.911c-33.187-13.057-37.232-40.468-37.304-65.911H374.803z" />
    <path fill="#CFA763" d="M302.214,144.972c0.408,0.648,1.143,1.762,1.224,2.368c0.286-0.587,0.51-0.849,0.571-1.214s0.49-1.073,0.327-1.458s-0.286-0.689,0.163-0.405c0.447,0.284,0.361,0.774,0.264,1.499c-0.264,1.983-1.1,2.388-1.223,3.725c1.204,2.814,0.306,3.826,1.611,6.579c0.204,0.122,0.749-0.095,0.912-0.055c0.692-0.486,1.21-0.31,2.188-0.108c0.979,0.203,1.51,0.89,1.51,1.497c0,0.608,0,0.77,0.204,1.134s0.612,0.932,0.531,1.337c-0.082,0.403,0.082,0.647,0.204,0.849c0.122,0.203-0.041,0.648-0.163,0.932c-0.122,0.284-0.082,0.648,0.408,1.256c0.49,0.606,1.631,3.158,1.631,4.655c0,1.499,0.082,2.187,0.694,2.469c0.612,0.284,0.816,0.527,0.735,1.175c-0.082,0.648,0.286,4.008,0.367,4.535c0.082,0.527,0.286,0.405,0.531,0.689c0.243,0.282,0.407,0.606,1.223,0.606s1.604-0.108,2.135-0.026c0.735,1.013,1.184,2.388,1.347,3.239s0.149,2.011,0.435,2.011s0.571,0.041,0.49-1.013s-0.163-1.215-0.531-1.74c-0.367-0.527-0.571-0.77-0.367-1.094c0.204-0.324,0.245-0.851,0.163-1.256s-0.204-1.011,0.49-0.203c0.694,0.81,0.898,1.013,1.102,1.296c0.204,0.284,0.284,0.81,0.245,1.296c-0.041,0.484,0.039,0.687,0.325,0.444c0.286-0.241,0.653,0.162,0.49,0.689c-0.163,0.527,0.041,0.851,0.531,1.013c0.49,0.162,0.694,0.284,0.816,0.648c0.122,0.365,0.531,0.525,0.531-0.203c0-0.729-0.286-2.268-0.49-2.753c-0.204-0.486-0.367-1.539-0.408-2.147s-0.163-0.768-0.449-0.89s-0.531-0.324-0.571-0.608s-0.286-0.385-0.469-0.385s-0.345-0.142-0.447-0.344s-0.204-0.223-0.408-0.243c-0.204-0.02-0.531,0.101-0.633-0.223s-0.245-0.79-0.449-1.053s-0.388-0.344-0.408-1.254c-0.02-0.911-0.041-1.033-0.326-1.357c-0.286-0.324-0.775-1.173-0.979-1.538c-0.202-0.365-0.407-0.729-0.407,0.041c0,0.768,0,1.173,0.488,1.457c0.49,0.284,0.612,0.284,0.408,0.689s0,0.689,0.082,0.972c0.082,0.284,0.245,0.567,0,0.849c-0.245,0.284-0.49,0.203-0.449-0.241c0.041-0.446-0.122-0.972-0.325-1.337c-0.204-0.365-0.367-0.608-0.612-0.405s-0.449-0.041-0.286-0.203s0.122-0.284,0-0.405c-0.122-0.122-0.163-0.243,0.041-0.486c0.204-0.243,0.204-0.365,0.082-0.93c-0.122-0.567-1.02-3.401-1.428-4.049c-0.408-0.648-0.367-1.134,0.163-0.486c0.531,0.648,0.98,1.215,1.02,1.74c0.041,0.527,0.163,0.851,0.327,1.053c0.163,0.203,0.286,0.122,0.367-0.324c0.082-0.446,0.408-0.284-0.163-1.133c-0.571-0.851-1.632-2.268-2.041-4.819c-0.408-2.55-0.571-4.251-0.979-4.939c-0.407-0.689-0.529-0.851-0.57-1.499s0-1.296-0.286-1.781c-0.286-0.486-0.49-0.567-0.531,0.162c-0.041,0.728,0.041,2.348,0.245,2.631s0.082,1.011,0.041,1.416c-0.041,0.405-0.683,0.805,0.653,1.62c0.531,0.324,0.447,0.77,0.367,1.053c-0.082,0.282-0.163,0.241-0.449-0.203c-0.286-0.446-0.571-0.81-0.857-1.053c-0.286-0.243-0.327-0.405-0.286-0.972s0.163-0.972,0-1.173c-0.163-0.203-0.245-0.041-0.327,0.282c-0.082,0.324-0.163,1.215-0.327,1.458c-0.163,0.243-0.245,0.081-0.367-0.446s0.041-1.335,0.327-2.267c0.286-0.932,0.449-1.904,0.204-3.117c-0.245-1.215-0.122-1.58-1.061-2.591c-0.937-1.013-1.998-1.985-2.447-3.239c-0.449-1.256-0.531-2.349-1.02-2.916c-0.488-0.566-1.182-1.295-1.631-1.497c0-0.972,0-1.418,0-1.862c0-0.446-0.204-0.729-0.735-0.648c-0.531,0.081-0.857,0.527-1.182,1.133c-0.327,0.608-0.571,0.324-1.02,1.377S302.214,143.838,302.214,144.972L302.214,144.972z M305.151,156.834c0.327,0.203,0.639,0.338,1.129,0.095s1.075-0.944,1.728-0.255c0.651,0.687,1.019,1.821,1.019,2.712c0,0.89,0,2.55,1.02,3.482c1.02,0.93,1.549,1.902,1.59,3.117c0.041,1.214,0.49,3.077,0.612,3.563c0.122,0.484,0.408,1.052,0.735,1.376c0.326,0.324,0.571,1.256,0.612,2.226c0.041,0.972-0.122,1.661,0,2.147s0,0.891-0.367,0.648c-0.367-0.243-0.449-0.365-0.653-0.77s-0.449-0.324-0.245,0.284s0.816,1.173,1.347,1.173c0.531,0,0.694,0.081,1.02,0.405c0.325,0.324,0.366,0.486,0.937,0.486s0.653,0,1.184,0.162s0.531,0.081,0.816,0s0.57,0.162,0.774,0.689c0.204,0.527,0.694,1.983,0.694,2.388s0,0.81,0.286,1.215s0.204,0.81-0.122,0.567c-0.327-0.243-0.327-0.162-0.571-0.122s-0.408-0.081-0.733-0.284c-0.326-0.203-0.122-0.162-0.449-0.648s-0.531-0.648-0.531-0.284c0,0.365-0.041,0.81-0.286,0.608c-0.245-0.203-0.367-0.203-0.571,0s-0.286,0.365-0.531-0.041s-0.531-0.405-0.775-0.486c-0.245-0.081-0.245-0.081-0.366-0.446c-0.122-0.365-0.49-0.446-0.816-0.446s-0.49-0.162-0.531-0.405c-0.041-0.241-0.245-0.404-0.408-0.525s-0.082-0.405-0.122-0.689c-0.041-0.284-0.286-0.162-0.449-0.243s-0.286-0.04-0.286-0.446s-0.163-0.527-0.286-0.81c-0.121-0.284,0-0.567,0.082-0.89c0.082-0.324,0.041-0.527-0.202-0.81c-0.245-0.284-0.041-0.567-0.694-1.134s-0.979-0.081-1.184-1.416c-0.204-1.337-0.612-4.089-0.98-4.535c-0.367-0.446-0.611-0.77-0.978-0.891c-0.367-0.122-0.612-0.041-0.653-0.81c-0.041-0.768-0.286-1.74-0.775-2.226s-0.694-0.648-0.939-0.851s-0.326-0.567,0-1.254c0.327-0.689,0.204-1.62,0.163-2.066c-0.041-0.444-0.163-1.011-0.082-1.497c0.082-0.486,0.041-1.094-0.082-1.418C305.11,157.158,304.947,157.077,305.151,156.834L305.151,156.834z M314.982,145.323c-0.553,0.706-1.141,1.296-1.902,1.835c-0.761,0.541-1.741,0.972-1.198,1.89c0.545,0.918,0.979,1.027,1.088,1.728c0.11,0.701,0.273,1.296,0.816,1.458c0.545,0.16,0.761,0.053,0.761,1.187s0,1.566,0.49,1.997c0.49,0.432,0.435,0.863,0.653,1.89c0.217,1.025,0.217,3.239,0.87,4.75c0.653,1.511,2.122,4.373,1.959,4.967s-0.381,1.025,0.272,1.726c0.653,0.703,1.088,1.728,1.143,2.321c0.053,0.595,0.163,0.81,0.815,0.595c0.653-0.217,0.979-0.433,1.198-0.703c0.217-0.27,0.651-0.215,1.251,0.107c0.598,0.324,1.523,0.648,2.066,0.324c0.545-0.324,0.816-0.809,1.306-0.809c0.761-0.541,1.033-1.675,1.196-1.997c0.163-0.324,0.055-0.324-0.272-0.648c-0.327-0.324-0.163-0.865-0.218-1.404c-0.053-0.541-0.272-1.349-0.925-2.538c-0.651-1.187-1.033-2.645-1.468-3.022c-0.435-0.379-0.653-1.296-0.708-1.728c-0.053-0.432-0.543-0.81-0.87-1.134c-0.327-0.322-0.653-0.809-1.033-2.698c-0.381-1.89-0.653-3.239-0.653-3.563s-0.055-0.379-0.381-0.486c-0.327-0.107-0.49-0.648-0.38-0.918c0.108-0.27-0.11-0.539-0.218-0.863s0-0.918,0.218-1.242c0.217-0.324,0.163-1.242-0.055-1.997c-0.218-0.756-0.435-1.404-1.306-1.513c-0.87-0.107-1.033-0.322-1.359-1.025c-0.327-0.701-0.653-1.943-0.761-2.214c-0.108-0.27-0.272-0.324-0.925,0.217c-0.653,0.539-0.87,0.718-0.87,1.728c0,0.648,0.108,0.863,0.325,1.242c0.218,0.377,0.273,0.486,0.436,1.511c0.163,1.025,1.088,2.645-0.11,3.563c-1.196,0.918-1.033,1.134-0.978,1.781c0.053,0.648-0.327,1.08-0.545,0.162c-0.217-0.918,0-1.457,0.653-1.888c0.653-0.433,1.251-0.972,0.816-1.566c-0.436-0.594-0.598-1.997-0.653-2.645C315.472,145.053,315.363,144.837,314.982,145.323L314.982,145.323z" />
    <path fill="#D7C99C" d="M317.553,178.981c-0.245,0.486-0.531,0.324-0.775,0.081c-0.245-0.243-0.531-0.243-0.408-0.689s0.082-0.527-0.245-0.77c-0.038-0.028-0.075-0.053-0.113-0.078c-0.102-0.003-0.221-0.003-0.377-0.003c-0.571,0-0.612-0.162-0.937-0.486c-0.074-0.072-0.138-0.131-0.201-0.181c-0.006,0.078-0.003,0.181-0.003,0.302c0,0.446,0,0.365-0.449,0.486c-0.449,0.122-0.367-0.446-0.449-0.81c-0.022-0.093-0.047-0.162-0.071-0.218c-0.491-0.093-1.009-0.608-1.195-1.158c-0.204-0.608,0.041-0.689,0.245-0.284s0.286,0.527,0.653,0.77c0.367,0.243,0.49-0.162,0.367-0.648c-0.039-0.156-0.049-0.337-0.044-0.537c-0.088-0.157-0.207-0.285-0.364-0.354c-0.653-0.284-0.449-0.365-0.408-0.891c0.041-0.525-0.082-0.525-0.49-0.243c-0.408,0.284-0.449-0.04-0.449-0.849c0-0.81-0.531-0.81-0.651-0.243c-0.122,0.567-0.327,0.203-0.571-0.608c-0.245-0.81-0.571-1.013-0.612-0.243c-0.035,0.651-0.217,0.807-0.644,0.446c0.075,0.47,0.141,0.91,0.195,1.256c0.204,1.335,0.531,0.849,1.184,1.416c0.653,0.567,0.449,0.851,0.694,1.134c0.243,0.284,0.284,0.486,0.202,0.81c-0.082,0.322-0.202,0.606-0.082,0.89c0.122,0.284,0.286,0.405,0.286,0.81s0.122,0.365,0.286,0.446c0.102,0.05,0.234,0.022,0.33,0.062c0.105-0.137,0.201-0.305,0.323-0.427c0.49-0.486,1.224,0.04,1.469,0.648s0.529,0.77,0.896,0.284c0.367-0.486,0.245-0.405,0.653,0.041c0.408,0.446,0.571,0.365,0.571,0.365s0.408-0.162,0.694,0.081s0.449,0.203,0.978-0.567C318.572,178.252,317.798,178.495,317.553,178.981L317.553,178.981z M305.954,160.356c0.19,0.271,0.19,0.486-0.028,0.865c-0.217,0.377-0.272,0.837-0.082,1.214c0.179,0.357,0.093,1.094-0.573,1.315c-0.013-0.011-0.025-0.022-0.039-0.033c-0.245-0.203-0.326-0.567,0-1.254c0.327-0.689,0.204-1.62,0.163-2.066c-0.035-0.388-0.133-0.871-0.104-1.31c0.397-0.416,0.881-0.421,0.689,0.245C305.763,160.087,305.763,160.087,305.954,160.356z M311.637,165.985c-0.041-1.215-0.57-2.187-1.59-3.117c-0.796-0.728-0.97-1.896-1.008-2.798c-0.598-0.363-0.851-0.198-0.801,0.477c0.053,0.727,0.788,1.08,0.68,2.131c-0.108,1.053-0.108,0.784,0.408,1.296c0.516,0.513,0.706,0.999,0.435,1.215c-0.272,0.215-0.3,0.594,0.082,0.728c0.38,0.136,0.408,0.541,0.353,0.918c-0.055,0.379,0.3,0.46,0.516,0.729c0.218,0.269,0.245,0.918,0.028,1.296c-0.218,0.377-0.245,0.971,0.135,0.648c0.381-0.324,0.545-0.028,0.843,0.484c0.259,0.442,0.476,0.304,0.757,0.17c-0.097-0.204-0.176-0.416-0.226-0.614C312.126,169.062,311.678,167.199,311.637,165.985z M308.618,148.671c-0.231-1.226,0.045-1.577,0.449-1.606c-0.237-0.419-0.584-1.823-0.851-2.725c-0.443-0.178-0.64,0.182-0.686,0.768c-0.053,0.701-0.217,0.539-0.598,0.647c-0.38,0.109-0.218,0.433-0.653,0.486c-0.435,0.055-0.49,0.217-0.217,0.486c0.272,0.27,0.053,0.541-0.163,1.08c-0.218,0.541-0.326,0.648,0.272,0.865c0.598,0.215,0.543,0,0.49,0.918c-0.055,0.918-0.272,1.673,0.053,2.159c0.328,0.486,0.545,0.377,0.436-0.217c-0.108-0.594-0.326-1.457,0.108-1.457s0.761-0.217,0.381-0.757c-0.381-0.539-0.816-0.539-0.761-1.187c0.053-0.648-0.165-1.835,0.272-1.134c0.435,0.703,0.598,1.513,0.816,1.89C308.183,149.264,308.763,149.429,308.618,148.671z M327.492,167.942c-0.326-0.324-0.163-0.865-0.218-1.404c-0.053-0.541-0.272-1.349-0.924-2.538c-0.651-1.187-1.033-2.645-1.468-3.022c-0.435-0.379-0.653-1.296-0.708-1.728c-0.053-0.432-0.543-0.81-0.87-1.134c-0.327-0.323-0.653-0.809-1.033-2.698c-0.298-1.477-0.529-2.622-0.615-3.208c-0.391,0.618-0.658,0.77-0.799,0.346c-0.163-0.484-0.381-0.756-0.598-0.432c-0.218,0.324-0.273-0.27-0.273-0.539c0-0.271-0.053-0.324-0.327-0.324c-0.272,0-0.053-0.432-0.163-1.242c-0.108-0.81-0.272-0.918-0.38,0.055c-0.108,0.971-0.653,1.564-0.435,1.781c0.217,0.217,0.108,0.648-0.11,1.296c-0.217,0.647-0.108,1.025,0.055,1.457s-0.108,1.242-0.218,1.944c-0.108,0.701,0.436,1.402,0.6,0.215c0.162-1.187,0.053-2.374,0.543-2.807c0.49-0.432,1.088-1.295,1.033,0.541c-0.053,1.835-0.108,1.728-0.488,2.159c-0.381,0.432-0.708,0.539-0.326,1.242c0.38,0.701,0.435,0.756,0.38,1.835c-0.053,1.08-0.053,1.511,0.381,2.052c0.435,0.539,0.543,0.594,0.653,1.187c0.108,0.594,0.488,1.404,0.978,1.835c0.49,0.432,1.034,1.673,1.088,2.538c0.055,0.863,0.816,1.08,1.523,1.673c0.708,0.594-0.162,1.025-0.706,0.756c-0.543-0.269-0.326,0-0.653,0.377c-0.326,0.379-0.435,0.433-0.706-0.215s-1.198-1.08-1.632-1.242c-0.435-0.162-0.815-0.865-1.196-1.566c-0.326-0.603-0.973-1.044-1.563-1.089c0.163,0.455,0.251,0.812,0.204,0.982c-0.163,0.594-0.381,1.025,0.272,1.726c0.653,0.703,1.088,1.728,1.143,2.321c0.053,0.595,0.163,0.81,0.815,0.595c0.653-0.216,0.979-0.433,1.198-0.703c0.217-0.27,0.651-0.215,1.251,0.107c0.598,0.324,1.523,0.648,2.066,0.324c0.545-0.324,0.816-0.809,1.306-0.809c0.761-0.541,1.033-1.675,1.196-1.997C327.927,168.266,327.819,168.266,327.492,167.942z M317.81,159.196c0.381-0.809-0.053-0.863-0.651-1.08c-0.6-0.215-0.6-0.756-0.926-1.619c-0.327-0.863-0.272-1.242-0.053-1.728c0.217-0.486,0.053-0.863-0.381-0.972c-0.435-0.107-0.327-0.432-0.163-0.971c0.163-0.541,0.272-0.648-0.38-0.486c-0.494,0.122-0.614,0.213-0.761,0.391c0.036,0.156,0.053,0.372,0.053,0.689l0,0c0,1.134,0,1.566,0.49,1.997c0.49,0.432,0.435,0.863,0.653,1.89c0.217,1.025,0.217,3.239,0.87,4.75c0.195,0.45,0.463,1.022,0.738,1.617c0.361-0.282,0.675-0.766,0.786-1.023c0.162-0.379-0.326-1.134-0.708-1.781C316.996,160.222,317.431,160.006,317.81,159.196z" />
    <path fill="none" stroke="#000000" stroke-width="0.3232" d="M324.823,152.982l-1.304,14.263 M328.728,161.718c-0.533,2.413-1.234,5.153-1.946,7.477 M345.792,154.85c0.989,0.919,2.316,1.134,3.787,1.846 M352.342,161.157l-0.723,5.496 M351.635,161.4l-1.296,5.642 M327.875,161.889c-0.612,2.345-1.432,4.484-2.219,6.655 M325.573,159.969c-1.82,2.071-3.63,3.724-5.572,5.303 M335.578,151.539l5.866-5.075 M332.945,156.554c1.175,0.825,2.489,1.565,4.28,2.019 M332.115,148.884c0.73,1.155,1.587,2.278,4.146,2.946 M330.448,137.339c-0.792,1.053-2.059,2.034-3.717,2.84 M332.551,144.462c0.835,0.809,2.01,1.279,3.213,1.723 M332.55,162.128c0.591,2.907,1.1,5.215,1.775,7.62 M332.084,169.689c3.049-3.13,5.652-6.493,7.342-10.333 M345.647,148.04c0.977,1.046,1.994,1.805,3.587,2.237 M349.882,144.295c0.827,1.484,1.847,2.584,2.802,3.813 M340.874,139.656c-0.102,1.476-0.998,2.958-1.624,4.237 M342.983,140.384c-1.086,1.208-2.135,2.504-3.62,3.247 M343.169,135.123c-0.746,0.507-1.783,1.102-2.597,1.401 M354.289,146.347c-0.899,1.069-1.8,2.325-3.282,3.247 M354.455,155.249c-1.151,1.09-2.185,2.357-3.504,3.193 M361.117,161.543c-2.063,1.618-4.175,3.137-6.461,4.308 M355.754,166.061c1.937-1.208,3.645-2.873,5.363-4.518 M355.195,146.569c0.372,0.972,1.239,2.035,2.098,2.728 M357.771,160.322l2.894,5.415 M365.002,166.019c-0.853-0.895-1.524-1.975-2.04-3.209 M361.765,157.507c-0.68-1.863-1.526-4.916-1.872-7.337 M357.655,152.001c1.054,0.719,2.134,2.635,3.636,4.137 M359.639,149.268c-0.781-2.055-1.41-5.412-1.52-7.914 M356.531,161.325l1.662,4.338 M358.184,139.328c-1.43-0.366-2.787-1.38-3.001-2.194 M348.848,140.753c0.928,0.071,4.173-2.355,4.669-3.62 M357.117,160.703l2.288,4.887 M356.937,162.347l1.666-0.628 M357.216,163.261l1.778-0.743 M357.948,165.094l1.937-0.823 M355.957,155.471l2.337,2.504 M351.006,161.535l-1.614,5.453 M350.56,162.751l1.631-0.024 M350.162,164.094l1.901,0.055 M349.726,165.485l2.059,0.39 M345.821,159.429l3.234,7.779 M329.445,161.854c-0.353,2.454-0.911,5.589-1.536,7.951 M344.174,135.123c0.701,0.537,1.994,0.985,3.248,1.175 M342.721,154.88c-1.482,1.067-3.049,1.8-4.67,2.311 M346.915,168.765l-2.577-6.759 M344.848,159.794l2.966,7.707 M344.483,161.788l1.969-0.68 M345.673,139.675c0.831,1.578,2.158,2.846,4.103,3.729 M342.156,148.709c-1.04,0.683-1.985,1.519-3.353,1.939 M339.833,159.688c-0.297,3.546-1.719,6.756-2.68,10.103 M341.117,159.716c-0.318,3.448-1.387,6.688-2.261,9.927 M342.178,159.408c-0.414,3.83-0.874,7.028-1.73,10.215 M339.75,160.971l2.149,0.446 M339.247,162.981l2.484,0.056 M338.856,164.432l2.568,0.726 M338.159,166.72l3.015-0.139 M337.629,168.562l3.181-0.084 M336.885,159.603c-0.337,3.628,2.005,7.068,3.173,10.116 M346.599,167.817l2.042-0.608 M346.113,166.723l2.309-0.973 M345.383,164.996l2.383-0.705 M344.848,163.368l2.334-0.608 M329.189,144.744c-0.885,0.775-2.555,1.786-3.289,1.687 M327.384,141.947c-2.186,8.291-5.01,17.089-7.682,24.116 M334.291,161.581c0.681,2.945,1.568,5.637,2.424,8.147 M333.403,161.479c0.373,2.833,1.159,5.577,1.98,8.232 M334.664,162.439l-2.149,0.446 M335.005,164.077l-2.149,0.446 M335.483,165.855l-2.183-0.105 M336.13,167.562l-2.252,0.339 M326.064,167.218l2.261,0.446 M326.689,165.375l2.036,0.446 M327.238,163.954l1.887,0.484 M327.583,162.678l1.699,0.333 M330.688,155.728c-1.846,1.423-3.685,2.86-5.773,3.678 M330.968,148.964c-1.686,1.218-3.361,2.722-5.168,3.458 M331.072,136.42c1.495,1.654,2.685,2.548,3.947,3.62" />
    <path fill="#666666" d="M356.166,175.156c-0.22,0.067-0.475,0.015-0.689,0.106c-0.201,0.194-0.402,0.429-0.565,0.665c-0.793,0.687-2.658,0.577-3.519,0.191c-0.358-0.185-0.825-0.064-1.108,0.096c-0.227,0.127-0.272,0.361-0.53,0.433c-0.156,0.205-0.846,0.181-1.109,0.096c-0.601,0.038-0.969-0.156-1.398-0.289c-0.284-0.201-0.738-0.348-1.061-0.049c-0.202,0.215-0.478,0.358-0.819,0.433c-1.097,0.074-1.899-0.104-2.795-0.577c-0.988-0.06-1.187,0.707-2.266,0.531c-0.525-0.021-1.163,0.071-1.494-0.144c-0.425-0.047-0.698-0.291-1.012-0.433c-0.31-0.244-0.886,0.012-1.157,0.144c-0.464,0.072-0.635,0.435-1.22,0.386c-1.037-0.112-1.545-0.81-2.685-0.819c-0.395,0.492-1.566,0.444-2.121,0.29c-0.788-0.024-1.167-0.853-1.737-1.296c-0.951-0.941-1.9-1.884-2.85-2.825c0.164-0.505,0.221-0.593-0.041-0.923c0.108-0.504-0.236-0.572-0.096-1.078c0.214-0.387-0.385-0.32-0.53-0.53c-1.291-0.672-2.666-1.405-3.856-2.263c-0.79-0.466-1.516-1.106-2.459-1.348c-0.264-0.009-0.345-0.599,0.142-0.579c0.348,0.01,0.562,0.231,0.822,0.386c0.695,0.293,1.448,0.486,2.169,0.819c0.874,0.418,1.856,0.868,2.651,1.397c0.533,0.428,1.366,0.69,1.881,1.109c0.248,0.077,1.816,0.867,1.737,0.773c4.953,1.057,10.006,0.57,15.039,0.789c2.149-0.961,4.359-1.272,5.323-3.67c2.011-0.368,4.023-0.735,6.034-1.103c-0.114-0.122,10.592-0.375,10.817,0.523c0.096,0.379,0.385,1.141,0.038,1.32c-0.227,0.118-10.11-1.258-10.263-0.37C355.253,169.882,355.852,172.665,356.166,175.156L356.166,175.156L356.166,175.156L356.166,175.156z" />
    <path fill="#333333" stroke="#000000" stroke-width="0.6465" d="M365.749,169.993c0.375,1.264-0.603,2.181-1.605,2.765c-0.374,0.459-0.658,1.008-0.918,1.54c-0.2,0.457-0.281,1.141-0.849,1.278c-0.969,0.256-1.995,0.219-2.935-0.048c-1.33,0.867-1.954,0.864-2.885,0.008c-0.419-0.406-0.71-0.679-1.217-0.985c-0.361-0.391-0.424-0.918-0.441-1.427c-0.235-1.466-0.579-2.921-0.472-4.419c0.026-0.97,0.068-1.914,0.417-2.832c0.414-0.231,1.046-0.185,1.548-0.303c2.771-0.16,5.618,0.079,8.361,0.558c2.289,0.463,0.867,0.834,0.915,2.33C365.662,168.985,365.704,169.472,365.749,169.993z" />
    <path fill="#FFFFFF" d="M362.883,157.534l-1.536,5.593l1.615-0.315l1.694,0.945l2.56-0.512l1.3,0.197c0.402-1.797,1.339-3.648,1.339-5.436l-1.064,0.158l-1.694,0.591l-1.339-0.512l-1.064-0.748L362.883,157.534z" />
    <path fill="#C8102E" d="M365.325,158.203c-0.268,0.516-0.529,1.036-0.591,1.654c0,0-0.75-0.261-1.141-0.315c-0.416-0.056-1.26,0-1.26,0l-0.01,0.035l-0.364,1.323c0.038-0.005,1.031-0.127,1.477-0.059c0.332,0.051,0.945,0.355,0.945,0.355c-0.165,0.71-0.331,1.419-0.495,2.13l0.315,0.176l0.685,0.207l0.02-0.004l0.289-0.059c0.133-0.729,0.239-1.481,0.562-2.018c0,0,1.039,0.278,1.615,0.236c0.397-0.029,1.214-0.116,1.417-0.138c0.058-0.45,0.116-0.902,0.196-1.344c-0.202,0.055-1.079,0.27-1.573,0.222c-0.446-0.043-1.259-0.473-1.259-0.473c0.118-0.46,0.328-0.919,0.551-1.379L365.325,158.203z" />
    <path fill="#472B1F" d="M370.481,157.889c-0.088-0.021-0.882-0.196-1.322-0.166c-1.164,0.121-2.242,1.41-3.258,0.265c-0.903-1.076-3.016-0.498-3.788-0.317l-1.468,5.89l0.527-0.138c0.499-0.131,1.414-0.306,1.749-0.22c0.632,0.187,0.96,0.724,1.683,0.834c0.933,0.169,1.758-0.372,2.644-0.471c0.799-0.039,1.822,0.214,2.458,0.364v-1.902l1.1-4.062L370.481,157.889z M367.186,162.923c-0.865,0.068-1.631,0.597-2.477,0.475c-0.619-0.123-0.958-0.666-1.626-0.821c-0.475-0.104-1.087,0.015-1.552,0.101l1.113-4.466c0.549-0.117,1.596-0.304,2.049-0.201c0.702,0.192,1.16,1.01,1.966,1.103c0.929,0.148,1.706-0.647,2.554-0.746c0.104-0.007,0.242,0.003,0.389,0.02c-0.778,1.355-0.802,3.078-1.096,4.631C368.059,162.945,367.55,162.885,367.186,162.923z" />
    <path fill="#000000" d="M349.193,167.981c-0.379,0.899-0.985,2.149-1.738,2.925c2.47,0.478,4.459-0.211,6.684-0.59c-0.249-0.952-0.242-2.008-0.148-3.097C352.222,167.399,350.963,167.801,349.193,167.981z" />
    <path fill="#333333" d="M349.397,168.226c-0.312,0.796-0.551,1.618-1.17,2.304c2.027,0.423,3.683-0.188,5.509-0.521c-0.349-0.738-0.246-1.541-0.121-2.348C352.163,167.821,350.85,168.067,349.397,168.226L349.397,168.226z" />
    <path fill="#BCA76B" stroke="#472B1F" stroke-width="0.1855" d="M353.924,136.879l-0.168,29.215l2.127-0.126l-0.893-29.183L353.924,136.879z M362.688,157.888l-0.67,0.039l-2.126,7.523l0.985,0.039L362.688,157.888z M343.117,134.125l-0.612,35.907l2.127-0.127l-0.399-35.775L343.117,134.125z M330.346,136.613l-0.047,33.554l1.841-0.127l-1.067-33.62L330.346,136.613z" />
    <path fill="#BCA76B" stroke="#472B1F" stroke-width="0.1939" d="M362.017,157.927c-0.294-0.164-0.505-0.645-0.355-0.945c0.172-0.341,0.737-0.423,1.103-0.315c0.402,0.118,0.962,0.549,0.827,0.945C363.42,158.119,362.485,158.187,362.017,157.927z M331.548,135.463c-0.374-0.192-1.365-0.228-1.759,0.238c-0.211,0.251-0.035,1.09,0.228,1.098c0.533,0.014,1.209,0.051,1.422-0.179C331.66,136.38,331.802,135.593,331.548,135.463z M355.193,136.145c-0.381-0.131-1.385-0.158-1.784,0.164c-0.214,0.172-0.035,0.748,0.232,0.754c0.541,0.009,1.226,0.035,1.442-0.122C355.306,136.774,355.451,136.235,355.193,136.145L355.193,136.145z" />
    <path fill="#000000" d="M366.315,166.526c0.019,0.073,0.009,0.146-0.03,0.212c-0.1,0.168-0.294,0.076-0.425,0.012c-1.844-0.404-3.795-0.627-5.704-0.744c-1.423-0.085-3.519,0.064-5.361,0.236c-2.025,0.239-4.29,0.211-6.11,1.199c-0.563,0.554-0.624,1.5-1.111,2.133c-0.49,0.618-2.092,1.589-2.998,2.133c-5.224,0.114-9.842,0.05-15.933-0.834c-0.334-0.404-1.136-1.241-1.5-1.602l1.324,0.488l2.077,0.049c4.518-0.314,9.807,0.015,15.233-0.583c0.242-0.035,0.543-0.002,0.74-0.132c0.615-0.532,0.772-1.558,1.463-2.047c2.004-1.11,4.47-0.866,6.663-1.29c2.427-0.3,4.615-0.498,6.986-0.431c1.385,0.103,2.908-0.006,4.133,0.693C366.02,166.167,366.264,166.33,366.315,166.526z M332.5,176.332c-0.259,0.198-0.566,0.216-0.877,0.198c-1.351-0.117-2.764-0.893-3.511-2.07c-0.167-0.184-0.456-0.34-0.566-0.562c-0.318-0.567-0.844-0.958-1.291-1.418c-0.266-0.14-0.304-0.484-0.618-0.53c-0.538-0.103-0.205-0.604-0.042-0.984c0.019,0.187-0.02-0.162,0.127-0.083c-0.074,0.108-0.041-0.065,0.077-0.072c0.285-0.032,0.325,0.247,0.42,0.475c0.011,0.378,0.433,0.426,0.719,0.482c0.324,0.937,1.091,1.521,1.757,2.24c1.002,1.022,2.164,2.084,3.666,2.13C332.49,176.192,332.752,176.16,332.5,176.332z M329.753,172.468l3.913,0.411c6.592,0.047,13.221,0.377,19.778-0.478c0.772-0.223,0.809-1.011-0.131-0.783c-8.054,0.955-17.156,1.03-25.256,0.197L329.753,172.468z M354.617,175.15c-4.475,0.013-8.936,0.61-13.429,0.638c-3.133-0.409-6.567-0.017-9.697-0.426c-0.407-0.076-1.287-0.254-1.219-0.886c0.149-0.626,0.639-0.611,1.007-0.618c0.51-0.046,0.935,0.157,1.323,0.425c0.864,0.716,0.22-0.108,0.917-0.234c0.336,0.022,0.617-0.123,0.948,0.018c0.336,0.091,0.655,0.519,0.883,0.777c0.047,0.074,0.324,0.255,0.326,0.12c0.087-0.347,0.1-0.928,0.755-0.877c0.812,0.044,1.813,0.044,2.327,0.775c0.003,0.007,0.005,0.012,0.004,0.015l0.037-0.002l0.065,0.048c0.094,0.057,0.085-0.368,0.192-0.442c0.171-0.267,0.507-0.201,0.725-0.351c0.322-0.084,0.717-0.237,1.157-0.13c0.478,0.229,1.084,0.555,1.201,1.122c0.288-0.406,0.604-0.315,1.057-0.727c0.401-0.789,1.709-0.599,2.325-0.179c0.247,0.345,0.391,0.274,0.435,0.412c-0.012-0.023,0.084-0.071,0.136-0.098c0.185-0.091,0.279-0.187,0.589-0.332c0.702-0.625,1.906-0.122,2.597,0.251c0.134,0.102,0.462,0.182,0.415-0.097c-0.102-0.956,1.347-0.618,1.865-0.572c0.565-0.047,1.066,0.105,1.183,0.672c0.04,0.018,0.245,0.021,0.383-0.015c-0.299-0.267-0.358-0.455-0.485-0.683l0.208-0.102c0.374-0.174,0.54,0.051,0.77,0.129c0.119,0.032,0.435,0.234,0.553,0.334c0.323,0.133,0.329,0.119,0.692,0.128C355.429,174.406,355.221,175.252,354.617,175.15z M324.449,168.704l2.564,1.782l-0.173,0.218l-8.129-4.912C320.778,166.455,322.619,167.571,324.449,168.704z" />
    <path fill="#BCA76B" stroke="#472B1F" stroke-width="0.2243" d="M326.327,147.009c0.604,2.336,3.445,1.989,3.359-0.137 M325.783,152.989c0.654,2.861,3.733,2.436,3.639-0.168 M325.573,159.969c0.708,3.099,4.043,2.638,3.941-0.181 M326.442,140.742c0.587,2.176,3.351,1.851,3.267-0.127 M338.377,151.469c0.671,3.142,3.83,2.674,3.734-0.184 M338.524,157.968c0.671,3.142,3.83,2.674,3.734-0.184 M338.721,144.674c0.671,3.142,3.83,2.674,3.734-0.184 M338.721,137.437c0.671,3.142,3.83,2.674,3.734-0.184 M349.692,150.479c0.671,3.142,3.83,2.674,3.734-0.184 M349.288,140.704c0.697,2.856,3.727,2.379,3.587-0.227 M349.397,159.334c0.744,3.206,3.976,2.672,3.827-0.255" />
    <path fill="#BCA76B" stroke="#472B1F" stroke-width="0.3351" d="M341.272,151.373c0.88,3.609,4.985,3.083,4.854-0.201 M328.733,146.963c0.792,3.133,4.485,2.674,4.367-0.175 M328.61,152.957c0.916,4.216,5.193,3.599,5.055-0.235 M328.628,159.875c0.851,4.11,5.16,3.76,5.123-0.198 M328.975,140.676c0.771,2.5,4.363,2.134,4.247-0.139 M341.419,157.872c0.88,3.609,4.985,3.083,4.854-0.201 M341.616,137.342c0.881,3.609,4.985,3.083,4.854-0.201 M341.616,144.579c0.881,3.609,4.985,3.083,4.854-0.201 M352.587,150.383c0.88,3.609,4.985,3.083,4.854-0.201 M352.07,140.57c0.907,3.28,4.846,2.732,4.664-0.261 M352.365,159.183c0.796,4.783,5.169,3.068,4.975-0.293" />
    <path fill="#BCA76B" stroke="#472B1F" stroke-width="0.287" d="M344.736,151.365c0.876,2.648,3.218,1.816,3.777-0.204 M332.052,146.935c0.874,1.96,2.47,2.139,3.767-0.151 M331.982,152.895c0.855,2.412,2.413,2.63,3.682-0.185 M332.285,159.867c0.926,2.611,2.614,2.849,3.986-0.201 M332.006,140.67c0.767,1.833,2.166,2,3.305-0.14 M344.884,157.864c0.876,2.648,3.183,2.126,3.777-0.204 M345.081,137.334c0.876,2.648,2.476,2.889,3.777-0.204 M345.081,144.571c0.876,2.648,3.525,2.202,3.777-0.204 M355.401,140.507c0.888,2.403,2.137,1.937,3.629-0.246 M356.052,150.374c0.876,2.648,2.185,2.16,3.777-0.204 M355.918,159.113c0.947,2.697,2.279,2.174,3.871-0.276" />
    <path fill="#BCA76B" stroke="#472B1F" stroke-width="0.2778" d="M349.776,136.165l-11.529,0.494l0.013,0.823l11.621-0.425L349.776,136.165z M349.776,143.403l-11.529,0.494l0.013,0.823l11.621-0.425L349.776,143.403z M349.431,150.198l-11.529,0.494l0.013,0.823l11.621-0.425L349.431,150.198z M349.579,156.697l-11.529,0.494l0.013,0.823l11.621-0.425L349.579,156.697z M336.26,145.826l-10.35,0.453l0.012,0.755l10.433-0.39L336.26,145.826z M336.552,151.831l-11.784,0.45l0.013,0.75l11.878-0.387L336.552,151.831z M337.225,158.573l-13.127,0.538l0.016,0.897l13.232-0.463L337.225,158.573z M336.115,139.861l-10.087,0.343l0.012,0.57l10.169-0.294L336.115,139.861z M359.896,139.367l-11.077,0.634l0.028,0.751l11.167-0.574L359.896,139.367z M360.713,157.833l-11.817,0.713l0.029,0.843l11.912-0.643L360.713,157.833z M360.747,149.207l-11.529,0.494l0.013,0.823l11.621-0.425L360.747,149.207z" />
    <path fill="#BCA76B" stroke="#472B1F" stroke-width="0.1607" d="M345.916,141.044l-4.137,0.129l0.012,1.088l4.17-0.016L345.916,141.044z M345.745,148.04l-3.679,0.121l0.01,1.02l3.708-0.014L345.745,148.04z M345.976,154.847l-3.999,0.13l0.013,1.094l4.031-0.016L345.976,154.847z M332.945,143.801l-3.768,0.1l0.012,0.842l3.797-0.012L332.945,143.801z M332.945,149.907l-3.768,0.1l0.012,0.842l3.797-0.012L332.945,149.907z M333.187,156.555l-4.008,0.1l0.012,0.839l4.04-0.012L333.187,156.555z M356.741,145.074l-4.384,0.129l0.013,1.088l4.418-0.016L356.741,145.074z M356.771,154.346l-4.384,0.129l0.013,1.088l4.418-0.016L356.771,154.346z" />
    <path fill="none" stroke="#000000" stroke-width="0.3232" d="M357.739,169.803l-0.064-2.711 M358.568,167.123v2.774 M360.098,169.93v-2.902 M361.79,167.272v2.786 M362.81,167.251l0.031,2.839 M364.149,167.544v2.642 M364.85,167.507l-0.031,2.966 M358.09,170.982l-0.031,2.551 M357.228,171.109v2.424 M359.462,171.046l-0.096,2.424 M360.29,171.015l-0.031,2.424 M361.534,170.982l-0.159,2.359 M362.714,171.301l-0.446,2.169" />
    <path fill="none" stroke="#000000" stroke-width="0.6465" d="M354.461,170.196c3.767-0.168,8.27-0.603,11.301,0.579 M354.701,171.451c3.473-0.512,7.517-0.801,10.481,0.337 M355.086,173.959c2.503-0.561,5.853-0.692,8.228-0.096 M355.34,174.551c2.503,0.561,5.45,0.692,7.825,0.096 M354.517,167.265c3.721-0.441,7.442,0.092,11.163,0.462" />
    <path fill="none" stroke="#000000" stroke-width="0.75" d="M374.803,133.879c0.028-9.584-0.509-18.889-0.264-27.043c-12.401-5.507-28.718-6.64-37.039-6.64c-8.323,0-24.64,1.133-37.04,6.64c0.245,8.154-0.29,17.459-0.264,27.043H374.803z" />
    <g>
      <path fill="#66452B" stroke="#000000" stroke-width="0.0313" d="M339.442,119.858	c0,0,1.189,1.485,1.312,2.383c0.027,0.199-0.133,0.386-0.138,0.587c-0.008,0.316,0.187,0.617,0.172,0.932	c-0.047,1.016-0.582,1.949-0.829,2.936c-0.209,0.835-0.552,2.521-0.552,2.521l0.76-0.069l0.138-1.278c0,0,0.398-1.449,0.587-2.176	c0.131-0.505,0.203-1.029,0.38-1.52c0.117-0.325,0.368-0.597,0.449-0.932c0.105-0.437,0.233-0.944,0.035-1.347	c-0.069-0.14-0.272-0.163-0.38-0.276c-0.259-0.27-0.454-0.599-0.622-0.932c-0.17-0.339-0.38-1.071-0.38-1.071	C340.216,119.675,339.442,119.858,339.442,119.858L339.442,119.858z M335.262,118.309c0,0,1.34,1.992,1.7,3.065	c0.177,0.525,0.243,1.096,0.206,1.649c-0.067,1.01-0.458,1.975-0.773,2.937c-0.219,0.667-0.699,1.173-0.433,1.822	c0.128,0.313,0.254,0.6,0.588,0.548c0.205-0.032,0.302-0.283,0.464-0.412c0.116-0.092,0.224-0.201,0.361-0.257	c0.193-0.08,0.468,0.042,0.618-0.103c0.126-0.122,0.214-0.38,0.103-0.515c-0.098-0.12-0.309-0.006-0.464,0	c-0.224,0.009-0.475,0.162-0.67,0.051c-0.201-0.114-0.309-0.618-0.309-0.618s0.401-1.104,0.618-1.649	c0.18-0.45,0.47-0.865,0.567-1.34c0.031-0.152-0.011-0.309,0-0.464c0.017-0.242-0.062-0.543,0.103-0.721	c0.107-0.116,0.406,0.044,0.464-0.103c0.221-0.563-0.807-0.932-1.03-1.494c-0.084-0.21-0.03-0.456-0.103-0.67	c-0.16-0.465-0.721-1.288-0.721-1.288L335.262,118.309z" />
      <path fill="#FFFFFF" d="M352.319,118.618c-1.184-0.482-1.699,1.133-2.847,0.874c-1.068,0.31-1.948-0.389-2.872-0.777	c-1.389-0.05-2.835,0.022-4.071,0.727c-0.675,0.367-1.479-0.199-2.013-0.013l-0.062,0.116l-0.08,0.072l0.005-0.036l-0.153,0.169	l-0.785,0.108l-0.198-0.134l-0.706-0.721l-0.955,0.03l-0.765-0.275l-0.677-0.041l-1.468-0.886l-0.849-0.676	c-0.823-0.409-1.425-1.175-2.191-1.638c-0.592-0.834-1.353-1.668-1.316-2.765c-0.093-1.134-0.39-2.702,0.148-3.779	c-0.387-0.845-0.929-1.073-1.356-1.905c-0.309-1.151-1.477-1.812-0.776-2.688c0.779-0.693,1.325-1.511,2.33-1.87	c0.833-0.193,1.678-0.112,2.478,0.174c1.035,0.121,1.603,1.005,2.149,1.769c0.661,1.029,1.104,2.195,1.288,3.41	c0.477,0.998,1.746,1.201,2.676,1.627c0.802,0.379,1.602,0.703,2.267,1.312c0,0,1.902,1.602,2.655,2.595	c0.581,0.687,0.936,1.623,1.788,2.053C347.163,116.731,352.302,118.217,352.319,118.618z" />
      <path fill="#000000" d="M352.364,118.652c-0.205,0.027-0.378-0.156-0.59-0.116c-0.166,0.036-0.274,0.198-0.468,0.168	c-0.085,0.249-0.409,0.211-0.558,0.417c-0.36,0.264-0.824,0.602-1.285,0.389c-0.457-0.105-0.939,0.079-1.384-0.111	c-0.463-0.25-0.787-0.429-1.319-0.577c-0.109-0.052-0.097-0.086-0.215-0.109c0.214,0.005,0.431,0.007,0.623-0.096	c0.193-0.107,0.403-0.141,0.608-0.216c0.263,0.003,0.385-0.352,0.107-0.426c-0.31-0.173-0.626-0.316-0.919-0.502	c-0.453,0.033-1.155,0.266-0.934-0.255c-0.993-0.072-2.036,0.141-2.991-0.192c-0.989-0.485-2.064-0.784-3.122-1.073	c-1.036-0.056-2.258,0.184-3.053-0.667c-0.826-0.482-2.033-0.135-2.791-0.836c-0.766-0.652-1.226-1.551-1.197-2.556	c-0.152-0.986-0.519-2.313,0.585-2.892c0.721-0.219,1.41-0.031,1.846-0.755c0.219-0.021,0.484-0.076,0.67-0.007	c0.252,0.309,0.619,0.324,0.972,0.217c3.127,1.218,6.282,2.902,7.964,5.947c0.835,1.478,2.554,2.055,3.991,2.73	c0.581,0.293,1.22,0.5,1.84,0.688c0.217,0.044,0.305,0.288,0.563,0.252c0.251,0.044,0.478,0.096,0.663,0.272	C352.11,118.403,352.359,118.534,352.364,118.652z M336.95,108.456c0.221,0.004-0.194-0.097-0.338-0.496	c-0.075-0.555-0.199-1.08-0.398-1.602c-0.281-0.617-0.66-1.864-1.233-2.208c0.037-0.09-0.002-0.212-0.105-0.309	c-0.426-0.508-0.65-0.838-1.328-1.042c-0.908-0.333-1.952-0.579-2.907-0.341c-0.347,0.077-0.656,0.283-0.88,0.557	c-0.391,0.546-1.078,0.793-1.426,1.364c0.649,0.432,0.928-0.6,1.55-0.711c1.285-0.029,2.695,1.009,4.288,0.699	c-0.266,0.697,0.528,1.229,0.668,1.885c0.21,0.302,0.218,0.711,0.468,0.981c0.258,0.299,0.509,0.619,0.66,0.986	C336.305,108.244,336.63,108.337,336.95,108.456z" />
      <path fill="#69737C" d="M337.029,114.234c-0.505-0.068-1.016-0.171-1.432-0.484c-0.327-0.195-1.136-0.67-0.612-1.041	c0.436-0.052,0.935,0.166,1.325-0.135c0.586-0.123,1.206-0.134,1.748-0.423c0.504-0.274,1.099-0.091,1.625-0.259	c0.392-0.208,0.336-0.992,0.934-0.859c0.549-0.14,0.388,0.913-0.102,0.578c-0.303,0.425,0.547,0.568,0.772,0.831	c0.453,0.514-0.544,0.63-0.633,1.012c-0.63,0.184-1.091-0.607-1.721-0.386c-0.117,0.211,0.015,0.644-0.441,0.538	c-0.526-0.321-0.981,0.04-1.5,0.104C337.145,113.826,336.815,114.248,337.029,114.234L337.029,114.234z M347.968,118.008	c-0.296-0.156-0.676-0.024-1.005-0.004c-0.221,0.003-0.44,0.014-0.647-0.079c-0.326-0.008-0.943-0.36-1.038,0.108	c0.021,0.203,0.554,0.289,0.113,0.352c-0.447,0.064-0.848-0.139-1.257-0.283c-0.167-0.156-0.522-0.354-0.434,0.024	c0.142,0.327-0.21,0.479-0.492,0.468c-0.4-0.029-0.845-0.137-1.136-0.428c-0.209,0.259,0.295,0.624,0.594,0.643	c0.298,0.253-0.45,0.153-0.619,0.118c-0.252-0.043-0.536-0.076-0.755,0.08c-0.349,0.079-0.358,0.42,0.048,0.383	c0.39,0.128,0.828,0.244,1.215,0.043c0.42-0.245,0.874-0.42,1.355-0.502c0.378-0.084,0.756-0.142,1.14-0.175	c0.509-0.058,1.021-0.051,1.536-0.051c0.4,0.214,0.794,0.029,1.149-0.159c0.219-0.068,0.879-0.317,0.398-0.507	C348.073,118.059,348.023,117.962,347.968,118.008L347.968,118.008z M334.868,107.458c-0.011-0.276-0.389-0.168-0.505-0.02	c-0.186,0.184-0.291,0.441-0.514,0.588c-0.329,0.24-0.764,0.274-1.092,0.516c-0.188,0.194-0.333,0.441-0.585,0.562	c-0.258,0.139-0.539,0.295-0.674,0.569c-0.059,0.201-0.195,0.48,0.015,0.64c0.27,0.102,0.011,0.346,0.026,0.521	c0.126,0.185,0.431,0.258,0.622,0.126c0.646-0.28,0.917-1.012,1.558-1.302c0.231-0.057,0.409-0.211,0.566-0.378	c0.166-0.136,0.026-0.399,0.277-0.445c0.229-0.087,0.351-0.304,0.497-0.485c0.136-0.21-0.111-0.406-0.079-0.63	C334.969,107.624,334.957,107.516,334.868,107.458z" />
      <path fill="#66452B" stroke="#000000" stroke-width="0.0313" d="M338.815,129.411	c-0.464,0-0.927,0-1.391,0c-0.23-0.092-0.391-0.478-0.684-0.325c-0.255,0.098-0.51,0.219-0.753,0.35	c-0.235,0.128-0.434,0.298-0.588,0.512c-0.029,0.147-0.459,0.313-0.097,0.318c0.314,0.025,0.507-0.297,0.81-0.339	c0.239-0.096,0.501-0.036,0.751-0.052c0.203,0.049,0.432,0.051,0.652,0.049c0.247-0.019,0.48,0.027,0.72,0.02	c0.349,0.031-0.129,0.244-0.241,0.292c-0.273,0.124-0.577,0.16-0.869,0.224c-0.289,0.002-0.587-0.01-0.853,0.119	c-0.268,0.124-0.537,0.255-0.784,0.425c-0.135,0.075-0.479,0.256-0.139,0.259c0.253,0.031,0.497-0.031,0.736-0.106	c0.417-0.156,0.849-0.258,1.288-0.328c0.287-0.065,0.552-0.189,0.841-0.241c0.177,0,0.649-0.087,0.5,0.224	c-0.181,0.217-0.438,0.369-0.694,0.482c-0.216,0.125-0.416,0.321-0.687,0.314c-0.205-0.072-0.636,0.086-0.324,0.292	c0.157,0.282,0.49,0.088,0.695-0.016c0.241-0.12,0.478-0.215,0.732-0.313c0.284-0.106,0.576-0.216,0.848-0.339	c0.227-0.143,0.511-0.194,0.719-0.352c0.247-0.144,0.54-0.261,0.658-0.546c0.074-0.232,0.251-0.375,0.473-0.452	c0.253-0.064,0.522-0.024,0.779-0.081c0.289-0.001,0.206-0.523-0.061-0.536c-0.233-0.152-0.432-0.33-0.67-0.464	c-0.281-0.102-0.578-0.175-0.884-0.146c-0.253,0.018-0.451,0.177-0.575,0.386c-0.157,0.184-0.193,0.507-0.502,0.435	C339.081,129.513,338.943,129.462,338.815,129.411L338.815,129.411z M332.032,131.143c0,0,0.263-0.972,0.606-1.308	c0.697-0.684,2.681-1.181,2.681-1.181c-0.847,0.33-1.862,0.085-2.681,0.319c-0.683,0.213-1.851,1.085-1.851,1.085	s0.433-0.928,0.766-1.308c0.982-1.074,2.551-1.199,3.734-1.021l1.34,0.191c0,0,0.228,0.138,0.128,0.342	c-0.211,0.427-0.847,0.67-1.276,0.875C334.274,129.751,332.781,130.23,332.032,131.143z" />
      <path fill="#69737C" stroke="#000000" stroke-width="0.0313" d="M336.117,127.728	c-1.08,0.731-3.572,2.036-3.479,2.106c0,0,2.124-0.486,3.095-0.958c0.337-0.164,0.81-0.282,0.926-0.638	c0.059-0.182-0.03-0.439-0.191-0.543C336.369,127.632,336.214,127.662,336.117,127.728z M341.273,122.069	c-0.262-0.017-0.3,0.463-0.311,0.725c-0.008,0.182-0.009,0.505,0.172,0.518c0.231,0.017,0.289-0.391,0.311-0.622	C341.466,122.476,341.487,122.083,341.273,122.069L341.273,122.069z M340.167,129.149c0.008-0.211-0.259-0.099-0.374-0.061	c-0.261,0.06-0.486,0.208-0.716,0.341c-0.178,0.117-0.371,0.209-0.554,0.318c-0.362,0.173-0.689,0.411-1.051,0.583	c-0.154,0.075-0.312,0.146-0.478,0.181c-0.135,0.026-0.086,0.112,0.029,0.102c0.249,0.053,0.509,0.025,0.747-0.06	c0.266-0.083,0.568-0.152,0.825-0.26c0.138-0.126,0.424-0.171,0.583-0.263c0.133-0.085,0.479-0.137,0.621-0.204	c0.238-0.124,0.14-0.296,0.412-0.298c0.17,0,0.193-0.258,0.026-0.291C340.205,129.215,340.176,129.187,340.167,129.149	L340.167,129.149z M337.715,131.428c0.191-0.052,0.395-0.043,0.583-0.112c0.232-0.06,0.461-0.135,0.687-0.214	c0.108-0.053,0.216-0.106,0.324-0.16c0.191-0.135,0.321-0.336,0.447-0.528c0.086-0.163,0.168-0.33,0.25-0.495	c0.038-0.134-0.125-0.193-0.207-0.096c-0.123,0.088-0.236,0.189-0.363,0.272c-0.124,0.105-0.273,0.176-0.389,0.291	c-0.139,0.164-0.208,0.378-0.364,0.528c-0.073,0.075-0.158,0.132-0.254,0.174c-0.197,0.107-0.415,0.165-0.615,0.266	C337.78,131.375,337.742,131.396,337.715,131.428L337.715,131.428z" />
      <path fill="none" stroke="#000000" stroke-width="0.0313" d="M340.321,117.351	c0.078,0.124,0.121,0.274,0.129,0.419c0.023,0.179,0.067,0.354,0.09,0.532c-0.012,0.186-0.205,0.297-0.236,0.48	c-0.011,0.122,0.007,0.247-0.021,0.368c-0.044,0.198,0.019,0.406-0.056,0.599c-0.094,0.181-0.361,0.044-0.528,0.091	c-0.161,0.037-0.358,0.046-0.455-0.116c-0.138-0.148-0.258-0.311-0.413-0.443c-0.187-0.182-0.381-0.364-0.503-0.599	c-0.112-0.157-0.207-0.325-0.315-0.484c-0.036-0.068-0.074-0.153-0.101-0.21 M338.537,119.003	c-0.159,0.001-0.314,0.051-0.478,0.03c-0.159,0-0.318,0-0.476,0c-0.117-0.047-0.346-0.048-0.457-0.124	c-0.13-0.026-0.193-0.103-0.308-0.151c-0.085-0.061-0.162,0.004-0.268-0.012c-0.072-0.132-0.228-0.297-0.313-0.388	c-0.091-0.048-0.192-0.081-0.263-0.183c-0.098-0.024-0.173-0.185-0.211-0.237c-0.074-0.086-0.094-0.201-0.166-0.294	c-0.068-0.099-0.092-0.194-0.163-0.298c-0.014-0.022-0.004-0.05,0-0.072 M336.55,118.746c-0.036,0.228-0.294-0.003-0.409-0.03	c-0.095-0.047-0.18-0.103-0.29-0.137c-0.08-0.061-0.188-0.103-0.271-0.142c-0.099-0.062-0.225-0.102-0.3-0.179	c-0.142-0.032-0.247-0.172-0.381-0.209c-0.122-0.116-0.259-0.201-0.395-0.291c-0.14-0.111-0.3-0.208-0.434-0.346	c-0.128-0.111-0.237-0.229-0.247-0.399c-0.011-0.162-0.057-0.32-0.115-0.441c0.016-0.086-0.047-0.116-0.033-0.194" />
      <path fill="#000000" d="M332.676,105.16c0.037,0.184-0.574,0.262-0.674,0.237c-0.545,0.086-0.961-0.288-1.388-0.57	c-0.102-0.01-0.155,0.063-0.239,0.181c-0.316,0.438-1.079,0.361-1.578,0.388c0.125,0.068,1.154,0.47,0.406,0.668	c-0.63-0.023-1.265,0.176-1.91,0.112c-1.184-0.178-2.105,0.506-3.265,0.393c-0.296-0.09-1.716,0.242-1.389-0.306	c0.101-0.162,0.316-0.331,0.477-0.331c0.851-0.279,1.741-0.426,2.621-0.607c1.009-0.195,1.986-0.611,3.027-0.53	c0.568-0.09,1.103-0.408,1.673-0.468c0.203-0.02,0.395-0.04,0.563-0.147c0.45-0.592,1.679-0.222,1.975,0.248	C333.277,104.808,332.471,104.832,332.676,105.16z" />
      <path fill="#FFFFFF" d="M331.972,103.939c0.063-0.048-0.254-0.244-0.018-0.296c0.25-0.299,0.642-0.053,0.932,0.039	c0.559,0.176,1.147,0.394,1.519,0.873c0.536,0.619,0.656,1.465,1.081,2.148c0.182,0.327,0.298,0.684,0.419,1.036	c0.088,0.28,0.516,0.571,0.293,0.873c-0.263,0.16-0.53-0.054-0.778-0.119c-0.337-0.035-0.173,0.341,0.048,0.385	c0.239,0.095,0.313,0.476-0.029,0.454c-0.327-0.039-0.651-0.064-0.972-0.114c-0.255-0.138,0.068-0.394,0.211-0.486	c0.191-0.115,0.444-0.268,0.407-0.528c0.004-0.471-0.322-0.857-0.393-1.314c-0.085-0.342-0.167-0.69-0.337-1.002	c-0.147-0.734-0.807-1.24-1.485-1.465c-0.291-0.149-0.6-0.278-0.878-0.441C331.985,103.968,331.979,103.954,331.972,103.939	L331.972,103.939z" />
      <path fill="#BCA76B" d="M347.154,118.871c0.686,0.035,0.876-0.23,1.315-0.338c0.159-0.009,0.336,0.048,0.478-0.05	c0.309-0.332,0.829-0.044,1.197,0.04c0.266,0.198,0.644,0.144,0.252,0.426c-0.265,0.038-0.577,0.103-0.707,0.393	c-0.172,0.219-0.525,0.13-0.772,0.176c-0.26,0.063-0.493-0.093-0.757-0.09C347.916,119.157,347.352,119.13,347.154,118.871z	 M334.416,104.308c0.691,0.334,0.795,1.222,1.143,1.846c-0.008,0.166,0.286,0.466,0.04,0.534	c-0.246-0.054-0.356-0.308-0.485-0.497c-0.179-0.408-0.276-0.839-0.492-1.229C334.547,104.804,334.335,104.492,334.416,104.308z	 M332.216,103.488c-0.132-0.073-0.244-0.186-0.389-0.255c-0.142,0.057-0.025-0.094-0.095-0.071	c-0.034-0.123-0.112-0.21-0.206-0.299c0.003-0.03-0.06-0.069,0.002-0.069c0.25,0.002,0.478,0.086,0.743,0.054	c0.051-0.018,0.058,0.048,0.112,0.029c0.036,0.007,0.047,0.038,0.088,0.024c0.085,0.004,0.097,0.094,0.143,0.143	c0.083,0.044,0.122,0.206,0.129,0.249C332.776,103.416,332.316,103.565,332.216,103.488z" />
      <path fill="#000000" d="M334.005,105.021c-0.375-0.03-0.75,0.145-1.121,0.026c-0.279-0.037-0.498,0.174-0.739,0.274	c-0.312-0.031-0.377,0.416-0.653,0.394c-0.238-0.028-0.52-0.212-0.736-0.127c0.829,0.26,1.441,0.895,2.212,1.242	c0.209,0.09,0.451,0.298,0.358,0.551c-0.094,0.295-0.535,0.347-0.552,0.682c-0.05,0.293-0.372,0.418-0.476,0.683	c-0.114,0.206-0.378,0.329-0.398,0.582c0.064,0.314,0.429,0.077,0.419-0.154c0.055-0.201,0.234-0.513,0.483-0.384	c0.204,0.288,0.454-0.202,0.699-0.085c0.113,0.17,0.376,0.259,0.489,0.034c0.166-0.065,0.427-0.173,0.269-0.409	c-0.005-0.242,0.294-0.225,0.43-0.363c0.189-0.086,0.388-0.331,0.182-0.508c-0.186-0.258,0.014-0.628-0.219-0.868	c-0.177-0.275,0.005-0.619-0.142-0.904C334.378,105.46,334.278,105.058,334.005,105.021z" />
      <path fill="#69737C" d="M344.075,115.227c-0.428-0.008-0.774,0.32-1.199,0.35c-0.514,0.072,0.134,0.304,0.292,0.416	c0.408,0.271,0.894,0.364,1.348,0.522c0.425,0.203,0.904,0.328,1.372,0.246c0.436-0.102,0.113-0.535-0.009-0.775	c-0.261-0.374-0.704-0.563-1.032-0.87C344.61,114.904,344.255,114.981,344.075,115.227L344.075,115.227z M340.077,113.934	c-0.311,0.187-0.669,0.274-1.031,0.265c-0.322,0.119-0.874-0.172-0.988,0.256c-0.155,0.348,0.264,0.495,0.487,0.647	c0.655,0.378,1.428,0.359,2.16,0.391c0.2,0.013,0.834-0.075,0.498-0.321c-0.367-0.28-0.64-0.654-0.932-1.005	C340.199,114.097,340.119,114.03,340.077,113.934L340.077,113.934z M343.748,114.173c-0.147-0.021-0.285-0.083-0.426-0.124	c-0.194-0.065-0.359-0.194-0.544-0.284c-0.249-0.142-0.494-0.294-0.753-0.417c-0.126-0.045-0.102-0.182,0.036-0.165	c0.138,0.004,0.186-0.215,0.319-0.072c0.169,0.102,0.329,0.217,0.459,0.368c0.157,0.13,0.304,0.289,0.51,0.337	C343.499,113.897,343.738,113.978,343.748,114.173L343.748,114.173z M343.253,114.852c0,0-0.664,0.173-0.973,0.046	c-0.228-0.068-0.463-0.112-0.674-0.224c-0.259-0.13-0.54-0.247-0.744-0.461c-0.164-0.207,0.039-0.533,0.303-0.448	c0.162-0.046,0.095-0.415,0.342-0.251c0.339,0.153,0.678,0.321,0.97,0.554c0.176,0.168,0.373,0.313,0.541,0.489	C343.101,114.65,343.253,114.852,343.253,114.852z M338.299,110.184c0.444,0.114,0.958,0.321,1.23,0.712	c0.39,0.474-0.371,0.732-0.715,0.464c-0.564-0.276-1.132-0.56-1.737-0.732c-0.579,0.075,0.257,0.41,0.418,0.563	c0.256,0.152,0.475,0.443,0.471,0.733c-0.382,0.296-0.872-0.02-1.292-0.061c-0.46-0.053-0.717-0.455-1.007-0.763	c-0.21-0.219-0.453-0.349-0.735-0.222c0,0.385,0.28,0.48,0.458,0.805c0.157,0.196,0.766,0.693,0.178,0.697	c-0.429-0.118-0.825-0.4-1.054-0.791c-0.262-0.271-0.467-0.833,0.073-0.904c0.464-0.28,1.01-0.418,1.552-0.417	c0.59-0.054,1.188,0.041,1.768-0.113C337.99,110.179,338.366,109.985,338.299,110.184z" />
      <path fill="#FFFFFF" d="M331.159,104.684l0.306-0.139l0.167-0.278C332.051,104.907,331.625,104.953,331.159,104.684z	 M332.033,103.346c-0.106,0.047-0.222,0.089-0.341,0.072c-0.148,0.055-0.248,0.199-0.421,0.199	c-0.213-0.078-0.181-0.108-0.287-0.195c-0.105-0.074-0.27-0.077-0.237-0.237c0.004-0.106,0.014-0.297,0.165-0.258	c0.21,0.022,0.404-0.02,0.601-0.058C331.7,102.999,331.856,103.193,332.033,103.346z M332.616,103.044	c0.264-0.177,0.578-0.057,0.839,0.065c0.362,0.173,0.774,0.328,1.036,0.646c0.058,0.066,0.002,0.188-0.085,0.12	c-0.443-0.199-0.927-0.306-1.362-0.528C332.909,103.249,332.643,103.221,332.616,103.044z M343.785,116.137	c-0.668,0.152-1.476,0.032-1.968-0.456c-0.112-0.159,0.115-0.173,0.22-0.19c0.44-0.148,0.846,0.058,1.239,0.24	C343.47,115.832,343.732,115.907,343.785,116.137z M345.889,116.01c0.029,0.183-0.295,0.009-0.41,0.069	c-0.573,0.041-1.042-0.415-1.598-0.499c-0.765-0.207,0.028-0.61,0.4-0.658c0.242-0.013,0.451,0.149,0.674,0.228	C345.32,115.333,345.872,115.525,345.889,116.01z M333.813,110.521c-0.406,0.743,0.113,1.644,0.883,1.859	c0.161,0.051,0.521,0.221,0.625-0.008c0.133-0.084,0.025-0.155-0.065-0.182c-0.353-0.105-0.495-0.488-0.691-0.771	C334.336,111.118,333.988,110.858,333.813,110.521z M337.71,112.059c-0.247-0.023-0.642-0.127-0.937-0.212	c-0.686-0.207-1.02-0.908-1.622-1.253c-0.3-0.091-0.423,0.331-0.231,0.514c0.164,0.262,0.404,0.467,0.589,0.716	c0.512,0.507,1.209,0.833,1.933,0.851C337.805,112.682,338.362,112.088,337.71,112.059z M336.846,114.039	c-0.791,0.237-0.988-0.751-1.603-0.964c-0.591-0.089-0.385,0.562-0.078,0.784C335.414,114.142,336.961,114.806,336.846,114.039z	 M339.015,113.407c0.184,0.081,0.311,0.317,0.19,0.5c-0.458,0.533-1.335,0.262-1.863-0.039c-0.227-0.075-0.252-0.341-0.401-0.494	c-0.093-0.173,0.219-0.257,0.349-0.207c0.36,0.183,0.656,0.508,1.094,0.551C338.71,113.829,338.863,113.674,339.015,113.407z	 M340.91,112.932c0.159,0.167,0.061,0.48-0.163,0.532c-0.66,0.19-1.315-0.301-1.796-0.671	C338.933,111.912,340.485,113.056,340.91,112.932z" />
      <path fill="none" stroke="#000000" stroke-width="0.0313" d="M341.52,110.801	c0.964,0.782,1.901,1.601,2.655,2.595c0.581,0.687,0.936,1.623,1.788,2.053c1.201,1.282,6.339,2.768,6.356,3.169	c-1.184-0.482-1.699,1.133-2.847,0.874c-1.068,0.31-1.948-0.389-2.872-0.777c-1.389-0.05-2.835,0.022-4.071,0.727	c-0.675,0.367-1.479-0.199-2.013-0.013l-0.062,0.116l-0.08,0.072 M333.824,117.154c-0.823-0.409-1.425-1.175-2.191-1.638	c-0.592-0.834-1.353-1.668-1.316-2.765c-0.093-1.134-0.39-2.702,0.148-3.779c-0.387-0.845-0.929-1.073-1.356-1.905	c-0.309-1.151-1.477-1.812-0.776-2.688c0.779-0.693,1.325-1.511,2.33-1.87c0.833-0.193,1.678-0.112,2.478,0.174	c1.035,0.121,1.603,1.005,2.149,1.769c0.661,1.029,1.104,2.195,1.288,3.41c0.477,0.998,1.746,1.201,2.676,1.627	c0.802,0.379,1.602,0.703,2.267,1.312" />
    </g>
  </g>
</svg>
