<svg xmlns="http://www.w3.org/2000/svg" width="450px" height="300px" viewBox="0 0 450 300">
  <path fill="#012169" d="M0,0h450v300H0V0z" />
  <path fill="#FFD100" d="M421.664,232.401v2.25l-339.32-2.835c-4.484-0.037,42.156-24.858,81.192-56.65C214.697,133.5,324.885,66.789,357.279,55.949c3.386-1.133-6.944,5.768-8.285,8.004c-34.585,40.935-6.981,118.181,36.243,157.012C398.235,230.906,397.569,231.427,421.664,232.401z M79.531,236.331L79.531,236.331c0,0-3.291,2.351-3.281,4.102c0.011,1.943,3.691,4.512,3.691,4.512l334.686,3.691l6.152-4.102l-8.613-5.332L79.531,236.331z" />
  <path fill="#FFFFFF" d="M74.489,61.99h8.594l2.656-8.174l2.656,8.174h8.594l-6.953,5.052l2.656,8.174l-6.953-5.052l-6.953,5.052l2.656-8.174L74.489,61.99z M133.882,105.546l5.794-4.21h-7.162l-2.213-6.811l-2.213,6.811h-7.162l5.794,4.21l-2.213,6.811l5.794-4.21l5.794,4.21L133.882,105.546z M36.406,114.296l-2.656-8.174l-2.656,8.174H22.5l6.953,5.052l-2.656,8.174l6.953-5.052l6.953,5.052l-2.656-8.174L45,114.296H36.406z M88.837,196.381l-3.098-9.536l-3.098,9.536H72.614l8.112,5.894l-3.098,9.536l8.112-5.893l8.112,5.893l-3.098-9.536l8.112-5.893H88.837z" />
</svg>
