<svg xmlns="http://www.w3.org/2000/svg" width="450px" height="300px" viewBox="0 0 450 300">
  <path fill="#E70013" d="M0,0h450v300H0V0z" />
  <path fill="#FFFFFF" d="M225,75c-41.421,0-75,33.579-75,75s33.579,75,75,75s75-33.579,75-75S266.421,75,225,75z M225,206.25c-31.066,0-56.25-25.184-56.25-56.25S193.934,93.75,225,93.75c17.95,0.027,34.809,8.619,45.379,23.126C262.094,109.258,251.255,105.02,240,105c-24.853,0-45,20.147-45,45s20.147,45,45,45c11.255-0.017,22.096-4.252,30.383-11.869C259.81,197.637,242.95,206.226,225,206.25z M267.3,169.838l-23.314-7.576L229.575,182.1v-24.521L206.25,150l23.325-7.579V117.9l14.41,19.839l23.319-7.577l-14.412,19.839L267.3,169.838z" />
</svg>
