<svg xmlns="http://www.w3.org/2000/svg" width="450px" height="300px" viewBox="0 0 450 300">
  <path fill="#000000" d="M0,0h450v300H0V0z" />
  <path fill="#FCDC04" d="M0,50h450v75H0V50z M0,200h450v100H0V200z" />
  <path fill="#D90000" d="M0,100h450v50H0V100z M0,250h450v50H0V250z" />
  <g>
    <path fill="#FFFFFF" d="M225,103.25c25.819,0,46.75,20.931,46.75,46.75s-20.931,46.75-46.75,46.75s-46.75-20.931-46.75-46.75S199.181,103.25,225,103.25z" />
    <path fill="#FCDC04" stroke="#000000" stroke-width="0.5" d="M219.686,112.706l0.426-6.17c0,0,6.277-0.372,9.681,3.723c0.053-0.053-3.351,4.787-3.351,4.787L219.686,112.706z" />
    <path fill="#D90000" stroke="#000000" stroke-width="0.5" d="M216.76,114.195l-3.032-5.585c1.17-1.17,3.139-2.075,6.277-2.075c0,0.213-0.319,6.117-0.319,6.117L216.76,114.195z M226.548,114.993l3.085-4.787c2.075,2.181,2.925,3.723,3.245,6.064c0.053,0.053-4.893,1.223-4.893,1.17C227.984,117.387,226.601,115.046,226.548,114.993z" />
    <path fill="#000000" d="M233.191,162.637c0.829-0.649,5.037-0.009,7.664,0.579l0.682,0.152l-19.17-24.546c-0.15-0.762-1.681-9.09,1.841-13.105c4.629-3.831,4.26-7.882,4.072-8.221l-0.007-0.011c-0.354-2.099-2.094-3.991-4.458-4.836c-2.559-0.914-5.278-0.386-7.299,1.439c-2.113,2.553-1.412,4.667-1.035,5.429c-1.62,0.45-6.571,1.916-6.836,3.079c-0.014,0.063-0.013,0.124-0.004,0.183c1.687-0.405,6.479-1.523,7.178-1.325c0.133,0.038,0.21,0.176,0.172,0.309c-0.038,0.133-0.177,0.208-0.309,0.172c-0.411-0.118-3.602,0.537-6.634,1.261c1.127,0.424,4.573-0.041,6.522-0.356c-0.689,0.751-1.648,2.067-1.467,3.199c0.106,0.664,0.573,1.167,1.38,1.497l-0.021,0.154c-0.764,0.722-7.721,7.518-7.963,15.453c-0.119,3.901,1.38,7.481,4.456,10.641l0.127,0.131l0.164-0.082c0.037-0.019,0.121-0.061,0.295-0.326c0.925,1.076,4.457,4.949,8.239,5.965c2.281,2.34,3.171,3.195,3.571,3.467c0.213,1.814,0.59,6.12,0.14,7.353c-1.781-0.295-11.256-0.647-12.803-0.06c-0.155,0.047-0.377,0.088-0.635,0.135c-1.985,0.364-6.115,1.12-4.911,8.972l0.132,0.86l0.345-0.799c0.566-1.311,1.098-2.537,1.457-3.363c0.076,1.056,0.337,2.554,1.181,3.292l0.453,0.396l-0.039-0.601c-0.134-2.08,0.412-3.738,0.807-4.638c0.136,1.174,0.449,3.051,1.092,3.479c0.112,0.075,0.239,0.093,0.356,0.052c0.301-0.104,0.443-0.531,0.7-1.308c0.541-1.632,1.449-4.361,4.265-4.023c3.713,0.448,6.599,0.406,7.415,0.383c0.558,4.718,1.245,11.67,1.046,13.118c-3.173-0.607-10.784,0.271-11.333,2.468l-0.083,0.33l0.34-0.02c3.192-0.189,5.164,0.034,6,0.169c-0.921,0.901-3.181,3.371-2.186,5.029l0.177,0.294l0.226-0.258c0.014-0.017,1.465-1.656,4.257-3.099c2.574-1.331,6.85-2.761,12.598-2.03l0.519,0.066l-0.274-0.445c-1.576-2.561-6.085-2.603-7.176-2.575c-0.788-6.071-1.194-12.738-0.482-13.08c1.036-0.499,5.281-0.114,6.859,0.078c0.523,0,1.047-0.598,1.333-1.191c0.442-0.914,0.395-1.854-0.127-2.512c-0.946-1.196-3.167-4.911-2.993-6.376C233.028,162.848,233.089,162.717,233.191,162.637z M219,119.9c-0.497,0-0.9-0.403-0.9-0.9s0.403-0.9,0.9-0.9s0.9,0.403,0.9,0.9S219.497,119.9,219,119.9z M231.34,170.063c-0.045,0.592-0.333,0.79-0.5,0.854c-0.352,0.137-0.832,0.182-1.311,0.182c-0.899,0-1.799-0.159-1.856-0.169l-0.2-0.036l-0.177-6.607l0.387,0.223C230.2,165.961,231.443,168.715,231.34,170.063z" />
    <path fill="#9CA69C" d="M219.911,125.662l0.426,0.236c-0.293,1.03-0.656,2.059-1.006,3.054c-1.396,3.965-2.715,7.71-0.264,12.107l0.228,0.41l-0.468-0.039c-0.331-0.027-1.112-0.09-1.511-0.114c0.063,0.336,0.293,1.051,0.518,1.649l0.144,0.384l-2.052-0.241l0.914,1.698l-1.601-0.4c0.153,0.475,0.367,1.227,0.365,1.712l0.069,0.138l-0.176,0.153c-0.226,0.155-0.857-0.309-1.255-0.64c-0.001,0.022-0.003,0.044-0.004,0.065c-0.024,0.362-0.061,0.909-0.192,1.58l-0.139,0.71l-0.329-0.644C208.78,138.1,219.799,125.786,219.911,125.662z M222.495,123.377c1.475-0.262,3.029-2.127,3.393-4.071c0.331-1.764-0.314-3.239-1.818-4.154l-0.45-0.274l0.073,0.522c0.006,0.04,0.537,4.042-1.6,5.188c-0.073,0.052-0.193,0.113-0.333,0.185c-0.589,0.305-1.575,0.816-1.362,1.67c0.111,0.487,0.289,0.793,0.561,0.962c0.17,0.105,0.354,0.145,0.554,0.145c0.265,0,0.555-0.069,0.871-0.145L222.495,123.377z M223.184,152.504l-0.323-0.433l-0.152,0.656c-0.215,0.905-0.788,3.309,0.156,5.249l0.104,0.213l0.218-0.092c2.62-1.1,3.737-0.762,4.555-0.233l0.292-0.405C225.882,155.727,225.043,155,223.184,152.504z" />
    <path fill="#D90000" d="M217.096,123.485c-0.286-0.199-0.58-0.403-0.83-0.645c-0.628,0.591-1.842,2.054-1.671,3.12c0.077,0.484,0.425,0.848,1.062,1.11c2.067-0.57,2.233-0.99,2.393-1.395c0.068-0.173,0.145-0.365,0.32-0.566C218.336,124.346,217.76,123.946,217.096,123.485z" />
    <path fill="#9CA69C" stroke="#000000" stroke-width="0.5" d="M242.611,165.472c0,0-3.83-9.255-13.617-11.596c-9.787-2.341-8.511-12.766-7.713-13.404c0.426-0.904,0.745-2.287,3.564-0.957s15.798,7.872,17.66,8.191C244.367,148.025,242.771,165.685,242.611,165.472z" />
    <path fill="#D90000" stroke="#000000" stroke-width="0.5" stroke-linejoin="round" d="M233.303,153.823c-0.16,0.106,13.085,7.819,9.096,14.468c3.777-2.5,2.553-6.862,2.553-6.862s3.085,8.032-4.415,11.968c0.798,0.692,1.33,0.532,1.33,0.532l-1.277,1.277c0,0-0.585,0.957,4.468-1.49c-1.383,1.117-1.489,1.915-1.489,1.915s0.372,1.064,3.67-1.809c-2.66,2.873-3.245,4.362-3.245,4.309c7.181-0.638,22.819-23.989-4.947-30.905c1.49,1.543,1.276,1.33,1.276,1.33l-7.023,1.667L233.303,153.823z" />
    <path fill="#FFFFFF" stroke="#000000" stroke-width="0.5" stroke-linejoin="round" d="M233.888,151.536c1.809,1.276,2.447,1.702,2.659,2.341c-1.649-0.372-3.138-0.266-3.138-0.266s-3.564-3.404-4.202-3.67c-0.479,0-3.245-1.755-3.245-1.755c-1.383-0.692-2.659-5.479,2.447-4.096c5.266,2.5,6.01,2.713,6.01,2.713c2.092,0.656,3.932,1.233,6.025,1.889c1.206,1.348,2.663,2.774,3.869,4.122c0,0-6.436-3.192-7.234-3.245c1.755,1.436,2.766,3.404,2.766,3.404C237.806,152.387,236.034,151.855,233.888,151.536z" />
  </g>
</svg>
