<svg xmlns="http://www.w3.org/2000/svg" width="450px" height="300px" viewBox="0 0 450 300">
  <path fill="#FFFFFF" d="M0,0h450v300H0V0z" />
  <path fill="#012169" d="M79.688,43.438L22.675,0h57.012v43.438H79.688z M117.188,106.562V150H174.2L117.188,106.562z M0,17.276V50h42.95L0,17.276z M196.875,50V37.5V17.276L153.925,50H196.875z M117.188,0v43.438L174.2,0H117.188z M79.688,150v-43.438L22.675,150H79.688z M0,225h450v-37.5H0V225z M0,100v32.724L42.95,100H0z M196.875,75v25h-42.95l42.95,32.724V112.5H450V75H196.875z" />
  <path fill="#C8102E" d="M131.25,50h-14.062v-0.803L181.758,0h15.117L131.25,50z M65.625,50L0,0v11.517L50.508,50H65.625z M196.875,37.5V60h-87.188V0h-22.5v60H0v30h87.188v60H15.116l64.571-49.197V100H65.625L0,150l0,0l0,0v37.5h450V150H196.875v-11.517L146.367,100H131.25l65.625,50h-87.188V90h87.188V75H450V37.5H196.875z M0,300h450v-37.5H0V300z" />
</svg>
