<svg xmlns="http://www.w3.org/2000/svg" width="450px" height="300px" viewBox="0 0 450 300">
  <path fill="#CE1126" d="M0,0h450v300H0V0z" />
  <path fill="#002B7F" d="M0,0h225v150H0V0z" />
  <path fill="#FFFFFF" d="M95.833,18.359h12.732L112.5,6.25l3.934,12.109h12.732l-10.301,7.484l3.934,12.109L112.5,30.468l-10.301,7.484l3.934-12.109L95.833,18.359z M70.601,55.859L66.667,43.75l-3.935,12.109H50l10.301,7.484l-3.934,12.109l10.301-7.484l10.301,7.484l-3.935-12.109l10.301-7.484H70.601z M165.343,55.868L175,48.852h-11.936L159.375,37.5l-3.689,11.352H143.75l9.657,7.016l-3.688,11.352l9.657-7.016l9.657,7.016L165.343,55.868z M137.876,83.588l-2.459-7.568l-2.459,7.568H125l6.438,4.677l-2.459,7.568l6.438-4.677l6.438,4.677l-2.459-7.568l6.438-4.677H137.876z M117.418,119.259l-4.918-15.136l-4.918,15.136H91.667l12.876,9.355l-4.918,15.136l12.876-9.355l12.876,9.355l-4.918-15.136l12.876-9.355H117.418z" />
</svg>
