<svg xmlns="http://www.w3.org/2000/svg" width="450px" height="300px" viewBox="0 0 450 300">
  <path fill="#244AA5" d="M0,0h450v300H0V0z" />
  <path fill="#D0A650" d="M227.271,95.067c1.757,2.051,2.934,4.1,2.934,6.593c-1.475,0.729-3.514,1.027-4.69,2.345c7.326-1.028,8.785,7.467,16.989,4.243c0.298,1.176,1.474,2.203,2.933,1.759l0.879-2.34c3.216-0.879,2.337,4.392,5.866,3.365c1.758,1.467,0.582,3.953,1.758,5.718c0,2.047,0.879,3.804,1.757,5.561c0.879-1.02,1.459-2.487,3.514-2.047c1.459,1.608,2.636,3.075,2.933,4.832c-0.595,3.373-1.474,6.298,2.04,8.055v1.027c2.353,1.027,7.624-1.027,7.624,3.075c-0.299,1.467,1.459,0.149,2.055,1.027c1.459-0.588,3.514-0.29,5.271-0.29c1.459,3.075-1.757,5.271-2.635,8.055c1.459,1.459,0.879,4.102,0.581,5.851l-0.879,0.44c2.337,0.439,5.271-0.282,7.326,1.035l3.812,1.459c1.757-1.019,3.797-1.176,6.149-1.019c1.757,1.318-0.596,3.514,0.879,4.534c2.055,0,3.812,0.298,4.094,2.056l0.298,0.58c1.459-2.636,5.569-0.879,7.326-2.776c2.933,0,3.513,3.216,4.972,4.973c0.596,4.549-4.972,6.604-3.216,11.137c-1.176,2.196-3.514,3.953-5.271,6.008c0.58,0.298,0.282,1.02,0.282,1.459c-1.757,1.036-0.282,4.11-2.635,4.394c-0.282,1.913-3.796,1.176-2.635,3.23c2.352,3.075-1.161,4.973-1.161,7.765c-1.475,1.616-4.408-1.475-4.408,1.616c-1.757,0.439-3.514-1.616-4.675,0.142c-0.596,2.055,1.161,2.776,0.879,4.832c2.918-0.298,3.797,2.635,4.973,4.393l2.933,2.933c-2.933,2.337-6.745-0.298-10.26,1.019c-0.879-0.439,0-1.6-0.879-2.039c-0.879-1.036-2.635-1.036-4.094-1.319c0.282,1.319-2.353,1.757-1.176,3.357c0,0.439,0.58,1.757-0.581,1.757c-2.353,0.737-2.055-2.039-4.11-1.02c-2.635,1.02-0.58,4.973-4.392,4.534c0.58,3.53-5.851,5.867-1.459,8.942c0.58,0.581,0.282,1.757,0.282,2.635c-2.636,2.353-7.311,1.475-10.244,0.596c-2.353-0.596-0.879-3.529-1.757-5.129c-0.879-1.474-3.514-2.494-3.514-4.549c-1.758-0.722-3.232-1.175-4.408-2.636c-4.094,3.953-9.081,7.765-14.934,7.906c-2.635,1.318-4.11,6.605-8.204,4.407c-1.608,2.636-6.448,0-6.738,3.797c-1.906,0.737-1.027,3.231-2.196,4.392c-0.44,2.933,0,5.427,2.486,7.185c1.027,2.196-2.196,2.196-0.879,4.251c0.298,0.722,0,1.757-0.439,2.055c-0.879,0.439-1.168,0.879-0.879,1.757c-0.729,0-1.027,0.439-1.608,1.019c-0.737,1.459-3.075,2.196-4.69,3.216c-1.608,0.439-2.784-0.722-3.804-1.757c-0.298,1.616-1.616,2.494-3.224,2.494c-2.345,0-1.906-2.055-3.663-2.933c0.729-2.636-1.616-3.797-0.879-6.15c1.905-1.459,5.122-2.494,4.243-5.568c-2.047-2.479-1.318-6.15-3.365-9.083c-1.318-1.161-3.514-2.918-2.785-5.71c1.906-2.196,0-4.832-1.027-7.169c-0.439-1.913-1.608-3.67-1.608-5.867c-3.224-1.898-3.373-6.887-7.914-7.326c-3.224,0-3.804-4.095-7.028-3.812c-0.298-0.58-1.027-1.019-1.616-1.6c-2.337,1.6-5.271-0.439-8.197,0.282c-1.906-3.216,1.608-7.609-3.521-9.522v-2.039c0.588,0.282,0.879-0.299,1.027-0.596c0.29-2.196-3.663-2.479-2.047-4.973c-0.879-0.737-1.906-1.035-1.318-2.494c-2.204-4.534-8.793-4.094-10.259-8.643c1.176-1.019,1.176-2.055,1.616-2.933c-1.028-1.757-1.318-3.656-1.028-5.553c1.028-0.298,1.608-1.616,2.196-2.651c-1.318-0.878-2.926-2.196-4.393-1.757c-2.635-0.439-4.542-2.479-6.887-3.655c-0.588-0.581-0.29-1.616-0.29-2.337c3.223-1.036-0.439-5.577,3.514-4.988c1.028-1.318,3.224-1.757,4.832-2.784c1.616-0.29,2.933,0.298,4.541,0.737c1.318,1.749,3.663,1.02,4.98,2.486c1.318-0.298,2.934-1.028,4.542-0.298c0-2.487,1.169-3.953,2.933-5.711c0.29-1.02,1.898-1.757,3.216-2.337c2.495,0.581,5.42,0.581,7.185-1.176c1.169,0.737,2.196-0.729,3.514-0.729c1.607-0.298,2.926,0.141,4.102,0.879c0.141-2.934,5.271-0.44,6.298-3.953c1.169-2.345-3.224-3.224-2.934-5.279c-0.729-2.345,1.028-3.514,1.906-5.122c1.027-0.44,2.196-1.027,3.514-0.737c3.373-1.169,0.737-8.055,6.157-5.561c0,0.73-0.298,1.608,0.141,1.757c1.906,0,2.198-2.198,3.522-2.933c0.58-2.047-0.737-4.541,1.02-6.15c0.879-0.149,1.616-0.439,2.196-1.176c0-1.608-0.879-2.486-2.196-3.514c-0.439,0.732-1.608,0.149-2.343,0.44c0-1.757-1.022-2.926-1.32-4.542c-0.879-0.439-1.318-1.168-1.02-2.196c1.318-1.318,0-4.541,3.075-3.81c1.169-1.021,3.224-0.292,4.393-2.049c3.075-1.757,7.176-1.757,9.522-4.98c1.027,0.149,2.196-0.879,3.224,0C224.486,94.044,227.271,93.306,227.271,95.067" />
  <path fill="#FFFFFF" d="M249.95,55.35L245.9,42.9l-4,12.45h-13.1l10.6,7.7l-4.05,12.45l10.55-7.7l10.6,7.7l-4.05-12.45l10.6-7.7H249.95z M291.15,62.6l-4.05-12.4l-4,12.4H270l10.6,7.7l-4.05,12.45l10.55-7.7l10.6,7.7l-4.05-12.45l10.6-7.7L291.15,62.6z M330.45,76.9l-4-12.4l-4.05,12.4h-13.1l10.6,7.7l-4.05,12.45l10.6-7.7l10.55,7.7l-4.05-12.45l10.6-7.7H330.45z M208.1,55.35l-4-12.45l-4.05,12.45h-13.1l10.6,7.7L193.5,75.5l10.6-7.7l10.55,7.7l-4.05-12.45l10.6-7.7H208.1z M166.9,62.6l-4-12.4l-4.05,12.4h-13.1l10.6,7.7l-4.05,12.45l10.6-7.7l10.55,7.7L169.4,70.3l10.6-7.7L166.9,62.6z M127.6,76.9l-4.05-12.4l-4,12.4h-13.1l10.6,7.7L113,97.05l10.55-7.7l10.6,7.7L130.1,84.6l10.6-7.7H127.6z" />
</svg>
