<svg xmlns="http://www.w3.org/2000/svg" width="450px" height="300px" viewBox="0 0 450 300">
  <path fill="#FFFFFF" d="M0,0h450v300H0V0z" />
  <path fill="#000000" d="M0,0h450l-29.348,150H29.348L0,0z" />
  <path fill="#FCD116" d="M225,150l-97.826-32.609l49.852-9.541l-42.404-27.897l49.709,10.262l-28.503-41.997l41.997,28.503l-10.262-49.709l27.897,42.404L225,19.565l9.541,49.852l27.897-42.404l-10.262,49.709l41.997-28.503L265.67,90.215l49.709-10.262l-42.404,27.897l49.852,9.541L225,150z" />
  <path fill="#0072C6" d="M29.348,117.391h391.304v65.217H29.348V117.391z" />
  <path fill="#CE1126" d="M0,0l225,300L450,0v300H0V0z" />
</svg>
