<svg xmlns="http://www.w3.org/2000/svg" width="450px" height="300px" viewBox="0 0 450 300">
  <path fill="#000000" d="M0,0h450v300H0V0z" />
  <path fill="#CC092F" d="M0,0h450v150H0V0z" />
  <path fill="#FFCB00" d="M195.429,102.898h18.322l5.556-17.269l5.705,17.269h18.32l-14.717,10.963l5.704,17.568l-15.013-10.662l-14.865,10.662l5.705-17.567L195.429,102.898z M262.401,197.353l-14.413-11.265c14.563-11.862,24.026-30.032,24.026-50.303c0-30.933-22.072-56.912-51.206-63.068l2.252-10.513c4.055,0.902,8.812,2.609,12.716,3.958l3.755-6.304c4.05,1.95,8.559,3.902,12.311,6.304l-2.852,6.759c3.755,2.404,8.288,6.126,10.808,9.056l5.638-4.405c3.004,3.302,6.609,6.754,9.161,10.36l-5.105,5.256c3.297,4.84,4.572,7.067,7.002,12.644l7.164-1.68c1.353,4.204,3.407,9.351,4.16,13.704l-6.783,2.666c0.81,3.383,1.859,9.292,1.792,14.263c-0.005,0.299-0.028,0.638-0.028,0.939l7.083,1.01c-0.3,4.356-0.448,9.312-1.352,13.667h-7.357c-1.05,4.503-2.405,10.01-4.055,14.212l6.154,3.607c-1.951,3.902-3.9,8.559-6.454,12.313l-6.757-2.852c-2.555,3.753-5.405,7.355-8.559,10.661l4.353,5.705C264.656,195.098,263.604,196.15,262.401,197.353 M230.72,196l10.886,6.56c-1.015,0.928-4.056,2.503-4.862,2.822l1.78,6.833c-4.204,1.354-8.71,3.304-13.362,4.206l-2.702-6.757c-4.355,0.9-8.708,1.5-13.214,1.5l-0.904,7.057c-4.203-0.299-9.309,0-13.964-1.051v-7.055c-4.206-0.753-8.26-1.803-12.162-3.156l-3.455,6.161c-3.604-1.505-8.408-3.307-12.314-5.708l2.554-6.757c-3.155-1.654-6.008-3.755-8.71-5.86l6.758-8.559c11.113,8.861,25.076,14.114,40.394,14.114C215.553,200.351,223.508,199.002,230.72,196 M276.096,213.406l-71.865-54.691l-0.655,0.933l71.68,54.786l-4.254,5.324l-69.876-44.82c-18.919-11.863-18.169-21.172-14.264-31.233l3.304-8.109c1.803,10.512,12.611,18.472,23.874,27.329l63.457,48.749L276.096,213.406z M294.138,229.706c-0.616,0-1.115-0.499-1.115-1.115c0-0.001,0-0.003,0-0.004c-0.001-0.616,0.498-1.115,1.114-1.116c0,0,0.001,0,0.001,0c0.618,0,1.12,0.5,1.12,1.116c0,0.618-0.5,1.119-1.118,1.12C294.139,229.706,294.138,229.706,294.138,229.706 M289.843,226.552c-0.617-0.001-1.117-0.501-1.118-1.117c0-0.617,0.5-1.118,1.117-1.118c0.617,0,1.118,0.5,1.118,1.117C290.961,226.051,290.46,226.552,289.843,226.552L289.843,226.552 M285.448,223.049c-0.616,0-1.118-0.5-1.118-1.115c0.019-0.617,0.534-1.102,1.151-1.084c0.591,0.018,1.066,0.493,1.084,1.084C286.565,222.549,286.065,223.049,285.448,223.049 M300.225,229.249l-21.533-16.682l-6.257,8.064l18.705,13.117c1.503,1.05,1.65,5.859,7.203,6.611c2.257,0.298,3.754-1.355,3.754-1.355C304.518,236.057,303.858,232.002,300.225,229.249" />
</svg>
