<svg xmlns="http://www.w3.org/2000/svg" width="450px" height="300px" viewBox="0 0 450 300">
  <path fill="#FFFFFF" d="M0,0h450v300H0V0z" />
  <path fill="#FD9730" d="M0,0v300h450l-53.5-57.5l-151.25-67.75H133l53-34.25L87.75,42L0,0z" />
  <path fill="#1983DD" d="M200.5,133.75l62.75-9.25L252.7,165l164.05,46.5L450,300V0H89.75L200.5,133.75z" />
  <path fill="#FFFFFF" d="M311.488,17.532l8.639,7.778l10.067-5.812l-4.728,10.619l8.638,7.778l-11.56-1.215L317.816,47.3l-2.417-11.37l-11.56-1.215l10.067-5.812L311.488,17.532z M293.246,85.523l8.639,7.778l10.067-5.812l-4.728,10.619l8.638,7.778l-11.56-1.215l-4.728,10.619l-2.417-11.37l-11.56-1.215l10.067-5.812L293.246,85.523z M385.238,26.542l8.639,7.778l10.067-5.812l-4.728,10.619l8.638,7.778l-11.56-1.215l-4.728,10.619l-2.417-11.37l-11.56-1.215l10.067-5.812L385.238,26.542z M388.332,170.285l8.639,7.778l10.067-5.812l-4.728,10.619l8.638,7.778l-11.56-1.215l-4.728,10.619l-2.417-11.37l-11.56-1.215l10.067-5.812L388.332,170.285z M383.472,82.704l4.319,3.889l5.033-2.906l-2.364,5.31l4.319,3.889L389,92.279l-2.364,5.31l-1.209-5.685l-5.78-0.608l5.033-2.906L383.472,82.704z" />
</svg>
