<svg xmlns="http://www.w3.org/2000/svg" width="450px" height="300px" viewBox="0 0 450 300">
  <path fill="#FFFFFF" d="M0,0h450v300H0V0z" />
  <path fill="#012169" d="M93.75,0v34.297L25.156,0H93.75z M131.25,78.203V112.5h68.594L131.25,78.203z M93.75,112.5V78.203L25.156,112.5H93.75z M131.25,0v34.297L199.844,0H131.25z M0,75v24.922L49.844,75H0z M0,12.578V37.5h49.844L0,12.578z M175.156,75L225,99.922V75H175.156z M175.155,37.5H225V12.578L175.155,37.5z" />
  <path fill="#C8102E" d="M123.75,45H225v22.5H123.75v45h-22.5v-45H0V45h101.25V0h22.5V45z M150,75l75,37.5v-8.385L166.77,75H150z M75,37.5L0,0v8.385L58.23,37.5H75z M225,0h-16.77l-75,37.5H150L225,0z M0,112.5h16.771l75-37.5H75L0,112.5z" />
  <g>
    <linearGradient id="Gradient_AQ_BR_1" gradientUnits="userSpaceOnUse" x1="-71.6903" y1="305.1014" x2="-69.1527" y2="302.6552" gradientTransform="matrix(1.3241 0 0 1.3241 444.0438 -270.8753)">
      <stop offset="0" style="stop-color:#DE1010" />
      <stop offset="1" style="stop-color:#8E1116" />
    </linearGradient>
    <path fill="url(#Gradient_AQ_BR_1)" stroke="#000000" stroke-width="0.3581" stroke-linecap="round" stroke-linejoin="round" d="M343.666,130.511c1.886,0.755,3.912,0.883,5.267,4.029l6.741,0.105l-1.185-4.766l-5.898-1.633L343.666,130.511z" />
    <path fill="#D6F7FF" d="M355.392,219.492l0.546-0.037l0.503-0.098l1.795-0.365v5.938l-1.565,0.041l-0.681-0.63l-0.572,0.049L355.392,219.492z M362.449,216.701h2.791v7.162h-2.791V216.701z" />
    <path fill="#02BED7" d="M346.149,219.181c0.988,0.335,1.989,0.505,2.911,1.712l0.039,4.503l-1.945,1.646l-1.004,0.04v-7.901H346.149z" />
    <path fill="none" stroke="#000000" stroke-width="0.3581" stroke-linecap="round" stroke-linejoin="round" d="M349.466,218.312c5.052,3.116,6.024,0.387,10.112,0.79 M343.278,219.681c2.18-0.665,3.313-1.144,6.056,1.251" />
    <path fill="#02BED7" d="M352.152,219.471l1.501-1.238l1.448,1.238v4.74l-0.579-0.053l-1.444,1.586l-0.926,0.126V219.471z M359.209,218.523h2.554v5.451l-0.79,0.658l-1.264,1.159l-0.5-0.395L359.209,218.523L359.209,218.523z M366.003,217.127h3.397v4.714l-0.966-0.017l-0.061,0.886l-0.725-0.011l-0.249,1.223h-1.396V217.127z M386.513,215.304h4.915v5.586h-4.915V215.304z M395.338,210.313h3.874v7.038l-2.238-0.118l-0.104,0.808l-1.298,0.018l-0.234,1.303L395.338,210.313L395.338,210.313z M401.632,208.489h2.98v4.096l-0.689-0.074l-0.062,0.591l-1.259-0.068l-0.001,0.631h-0.969V208.489z" />
    <path fill="none" stroke="#000000" stroke-width="0.3581" stroke-linecap="round" stroke-linejoin="round" d="M407.846,207.489v4.003h-0.632l-0.105,1.053h-3.265v0.527h-1.264v0.737l-0.632-0.105v2.633l-0.843-0.105v0.737h-1.053v0.421l-3.16-0.211v0.843h-1.369v2.949l-20.645-0.105l-0.105,1.369l-1.053-0.105v0.632h-1.685v-0.843l-3.581-0.105v0.948h-0.843l-0.211,1.159l-5.793,0.105l-1.896,1.791l-0.843-0.948l-2.317,0.105l-0.211-0.632l-1.896-0.105l-1.58,1.58h-2.739l-0.527-0.843l-2.423,2.107h-1.053l-0.843-0.263h-2.317l-0.026-0.369l-4.635-0.053l-0.079-22.172L407.846,207.489z" />
    <path fill="#ADEFF7" stroke="#000000" stroke-width="0.3581" stroke-linecap="round" stroke-linejoin="round" d="M361.823,189.569l2.905,0.149l0.223,0.819l1.788-0.223l0.596,1.936l1.378,0.857l3.165,0.037l0.074,0.894l3.054-0.149l0.074,0.745h1.713l0.074,1.192l1.192,0.447h2.905l15.492,4.618l0.67,1.415h2.383l0.521,0.596h1.862l0.968,0.745l0.745,0.447l1.192-0.149l0.149,0.968l1.639-0.372l0.298,0.894l0.986-0.149l-0.017,2.979l-3.352,0.074l-0.149,0.521h-1.862v0.596h-1.043v1.788l-4.096,0.074l0.074,0.447h-1.564v2.085l-0.596-0.223v1.788l-3.277-0.149l-0.074,0.819l-4.022,0.074l-47.071-5.288C332.546,196.642,354.181,196.37,361.823,189.569z" />
    <path fill="#FFFFFF" d="M344.916,202.38c20.143-0.253,24.994,0.111,31.505,9.31l-36.569-3.352l-0.521-4.394L344.916,202.38z" />
    <path fill="#D6F7FF" d="M363.499,195.565c-0.908,0.063-6.401,4.198-4.99,4.171c8.894-0.169,13.608-1.106,12.215-0.149c-7.383,5.069,3.656,2.869,5.549,3.836c-1.95,1.216-0.48,1.315,2.011,2.234l11.172,6.554c3.458,0.231,4.903-1.452,5.214-3.128c2.322,1.405,1.894,0.356,8.677-2.085c1.356-0.488-2.984-3.37-3.91-1.229c-0.923,2.135-1.659-2.466-5.958,0.074l-2.309-5.549l-10.761-3.843l-2.334,0.001C372.413,200.608,374.53,194.8,363.499,195.565z" />
    <path fill="#FFCA18" stroke="#000000" stroke-width="0.3581" stroke-linecap="round" stroke-linejoin="round" d="M275.099,213.8c0.718,2.339,0.332,4.386,5.481,4.109c1.032,1.365,1.228,3.844,3.382,3.711h3.724c1.005,1.292,2.01,2.584,3.426,3.054c0.754-0.212,1.231-0.792,1.564-1.564l0.447,0.894l16.013-0.074l3.575,0.67c3.302,2.363,6.608,2.218,9.906,1.788c1.395-0.182,2.781-0.214,4.171-0.149c1.649,1.365,3.463,1.897,5.809,0.193c1.678,1.133,3.561,1.106,5.66-0.149l0.283-1.76l1.022-1.014l-0.003-1.664l-4.355-4.841L275.099,213.8z" />
    <path fill="#01640B" stroke="#000000" stroke-width="0.3581" stroke-linecap="round" stroke-linejoin="round" d="M317.954,191.431l-8.267-0.223l-13.257,3.947l0.372,3.426c-1.339-1.129-2.782-1.627-4.32-1.564c0.942,0.919,1.142,1.837,0.894,2.756c-1.688-1.545-3.376-1.489-5.065-1.49c1.56,1.018,2.386,2.036,2.756,3.054c-1.801-0.973-3.735-1.283-5.735-1.266c0.796,0.694,1.709,1.31,1.936,2.383c-1.142-0.734-2.284-0.805-3.426-0.968l0.372,2.532l-7.895,4.096c-1.475,0.252-3.003,0.399-4.096,1.415c1.548,2.039,3.333,3.671,6.256,3.352c-0.369,0.619-1.322,1.019-3.277,1.043c1.492,1.434,3.445,2.445,7.299,1.713c-0.024,0.397-0.6,0.794-1.415,1.192c3.254,1.832,4.66,0.789,6.182-0.074l-0.745,2.011l8.342-0.372l19.886,1.49l3.947,1.713H329.2c0.645,0.668,1.291,0.519,1.936,0c1.269-0.527,2.706-0.633,4.171-0.67c1.668,0.277,3.085,0.671,4.283,1.043v-16.832L317.954,191.431z" />
    <path fill="#936100" d="M281.728,217.003h2.607v4.655c-0.819,0.146-1.521-0.147-2.141-0.745l-0.465-0.838v-3.072H281.728z M286.848,221.639l0.782-0.037l1.471,1.75v-4.897h-2.253L286.848,221.639L286.848,221.639z M292.714,223.296l0.521,0.763h3.687v-5.586l-4.225,0.119L292.714,223.296z M307.259,223.876l2.844,0.237l2.546,0.468c1.239,0.805,2.553,1.387,3.932,1.771v-6.583l-9.295-0.658L307.259,223.876z M321.913,226.496l1.984-0.277h1.612v-5.135h-3.595v5.412H321.913z M330.373,227.463l2.232-1.02l0.724,0.369v-6.174h-2.949L330.373,227.463z M335.303,220.479l0.013,6.794l2.962-1.001l0.158-1.488l1.132-1.435v-2.87H335.303z" />
    <path fill="none" stroke="#000000" stroke-width="0.656" stroke-linecap="round" stroke-linejoin="round" d="M383.997,204.658c13.294,0.45,1.599,16.203,1.043,18.64c-9.91-0.675-17.028-8.981-45.977-8.64 M338.954,214.655c-17.742,0.213-23.795,9.501-41.783,9.477c-11.274-12.672-7.507-17.611-0.18-17.69 M288.366,206.894c0.105,0.794,0.974,0.653,1.043,1.564 M288.962,205.87c1.339,0.314,3.497-0.873,3.78,1.378 M291.457,202.891c1.303-0.217,2.197,1.427,3.91,1.378 M294.045,201.141c1.624-0.31,2.711,0.56,3.594,1.881c-0.341-0.812-0.298-1.855-1.08-2.402 M299.948,199.39c1.304,0.841,1.859,1.939,2.141,3.091 M304.156,199.241c0.893,0.73,0.625,2.04,0.689,3.184 M308.811,201.122l1.378,1.229 M305.794,207.639c0.562-0.003,3.107-0.268,3.091,0.596 M308.308,205.805c1.34-0.074,2.719-0.115,2.951,1.341 M312.944,204.66c0.624,0.142,1.195,0.378,1.378,1.303 M317.041,204.548c-0.074,0.633,0.397,0.894,1.415,0.782 M320.653,205.256c0.619,0.232,1.222,0.488,1.452,1.303 M323.148,203.356c-0.026,0.771,0.571,0.83,1.229,0.819 M312.386,198.776c3.963,0.254,3.374-1.609,4.227,0.577 M318.456,195.108c1.012-0.192,0.526,1.861,0.652,2.998c-0.558-0.851-1.031-1.787-1.918-2.309 M283.188,215.963c0.67-0.814,2.288-0.277,2.475-1.053 M286.111,217.201c0.761,0.082,1.324-0.016,1.317-0.632 M323.398,219.07c0.696-0.083,1.527-0.383,1.554,0.606l0.053-2.844 M326.084,218.386c0.901-0.083,1.988,0.749,2.595,0.605c0.4-0.095,0.591-0.749,0.381-1.895 M330.955,217.201c1.237,0.948,1.834,0.276,2.423,1.317 M336.195,217.175c0.74-0.248,1.006,0.011,0.764,0.816 M337.38,216.358l0.843,0.237" />
    <path fill="none" stroke="#A5D371" stroke-width="0.656" stroke-linecap="round" stroke-linejoin="round" d="M280.732,212.406c1.978-0.05,3.969-0.113,5.511,0.223 M286.765,210.022c0.065,0.974,1.284,1.106,1.173,1.843 M290.321,204.045c0.05,0.303-0.43,0.668,1.994,0.97c0.38,0.047,1.507,0.353,2.084,1.358 M292.76,201.755c1.262-0.076,3.609,1.151,3.687,1.862 M298.197,199.595c1.256,0.583,0.611,2.591,1.303,3.966 M302.312,198.739c2.028,1.809,1.095,5.231,0.521,4.785 M305.85,199.781c0.697,1.229,0.506,2.237,0.67,3.333 M305.738,204.622c1.48,0.058,0.673,0.836,2.104,0.763 M303.318,205.87c0.075,0.756,1.584,0.6,2.421,0.652 M306.893,209.948c0.984,0.092,1.949,0.19,3.221,0.186 M310.486,208.179c1.037,0.112,2.794-0.151,2.719,0.54 M313.54,206.41c-0.059,1.046,1.562,1.027,1.899,1.936 M316.519,206.447c-0.035,1.021,0.735-0.176,1.266,0.745 M309.295,200.414l0.931,0.857 M311.269,198.739c0.838,1.532,2.17,2.911,3.65,4.245 M315.998,196.355c1.159,1.728,2.606,5.278,1.08,5.4 M320.69,196.783c0.242,0.379,0.076,3.202-0.074,3.221 M325.569,202.388c0.639-0.207,1.146-0.701,1.192-1.303 M325.494,203.505c-0.063,0.725,0.553,0.847,1.378,0.782 M323.8,199.725c0.061,1.546-0.695,1.464-0.633,2.718 M325.452,218.965c0.523-0.135,0.205,0.762,1.448,0.922 M329.718,217.464c0.752,0.191,0.268,2.315,1.211,2.212 M333.852,217.254c0.052,0.876-0.177,2.114,0.316,2.423 M337.433,218.307c0.028,0.608-0.22,1.467,0.527,1.422" />
    <path fill="#008E8E" stroke="#000000" stroke-width="0.5964" stroke-linecap="round" stroke-linejoin="round" d="M390.139,200.841c-1.756,1.199-3.246,2.576-4.582,4.055l2.528,1.922c1.597-1.86,2.735-3.543,4.607-5.716c0.082-0.095-0.714-0.099-0.565-0.284l-4.46,5.711l1.972,1.737l5.793-8.084c-1.07,3.057-4.334,6.145-0.764,9.137c-0.372-4.738,1.876-5.283,2.159-9.111L390.139,200.841z" />
    <linearGradient id="Gradient_AQ_BR_2" gradientUnits="userSpaceOnUse" x1="-242.8928" y1="345.8156" x2="-237.0948" y2="345.8156" gradientTransform="matrix(1.22 0 0 1.3404 588.5239 -252.2113)">
      <stop offset="0" style="stop-color:#5A2118" />
      <stop offset="1" style="stop-color:#BB1E1E" />
    </linearGradient>
    <path fill="url(#Gradient_AQ_BR_2)" d="M301.792,211.32c0,2.53-2.151,4.58-4.804,4.58c-2.653,0-4.804-2.051-4.804-4.58c0-2.53,2.151-4.58,4.804-4.58S301.792,208.791,301.792,211.32z" />
    <linearGradient id="Gradient_AQ_BR_3" gradientUnits="userSpaceOnUse" x1="-145.0894" y1="346.599" x2="-138.8559" y2="346.599" gradientTransform="matrix(1.3644 0 0 1.3518 576.8547 -259.1485)">
      <stop offset="0" style="stop-color:#5D241B" />
      <stop offset="1" style="stop-color:#BA1D1D" />
    </linearGradient>
    <path fill="url(#Gradient_AQ_BR_3)" d="M388.746,209.384c0,2.509-2.259,4.543-5.046,4.543s-5.046-2.034-5.046-4.543s2.259-4.543,5.046-4.543S388.746,206.875,388.746,209.384z" />
    <path fill="#FFF231" stroke="#000000" stroke-width="0.3581" stroke-linecap="round" stroke-linejoin="round" d="M296.95,207.745c5.742,0.107,3.076,5.053-1.788,3.538l1.75,4.767l4.953-0.559c1.233-0.96,3.992-10.022-4.953-9.533 M383.905,205.96c-4.598-0.175-6.736,4.384,1.117,5.139l-1.117,3.684l-6.591-2.607c-1.144-4.777-0.815-8.419,6.574-8.005" />
    <linearGradient id="Gradient_AQ_BR_4" gradientUnits="userSpaceOnUse" x1="7.1737" y1="450.3115" x2="40.7253" y2="442.4361" gradientTransform="matrix(1.3241 0 0 1.3241 284.1763 -380.1844)">
      <stop offset="0" style="stop-color:#FFF231" />
      <stop offset="1" style="stop-color:#FFFFFF" />
    </linearGradient>
    <path fill="url(#Gradient_AQ_BR_4)" d="M296.95,205.958c0.438,0.814,0.441,1.318,0,1.788c-5.804,0.134-5.807,7.224,0.074,7.895c4.73,0.54,22.713-9.776,41.485-10.278c0.094,2.105,0.228,5.207,0.403,8.809c-17.742,0.213-23.795,9.501-41.783,9.477C285.856,210.976,289.623,206.037,296.95,205.958L296.95,205.958z" />
    <linearGradient id="Gradient_AQ_BR_5" gradientUnits="userSpaceOnUse" x1="45.2958" y1="446.2845" x2="66.4899" y2="447.7301" gradientTransform="matrix(1.3241 0 0 1.3241 284.1763 -380.1844)">
      <stop offset="0" style="stop-color:#FFFFFF" />
      <stop offset="1" style="stop-color:#FFF231" />
    </linearGradient>
    <path fill="url(#Gradient_AQ_BR_5)" d="M383.868,205.958c-0.551-0.464-0.466-1.275,0-1.788c13.294,0.45,1.599,16.203,1.043,18.64c-9.91-0.675-17.196-9.055-46.145-8.714c-0.089-3.24-0.114-4.517-0.312-8.735c24.734-0.657,44.595,8.252,46.233,8.268C387.708,213.658,390.129,206.072,383.868,205.958z" />
    <path fill="none" stroke="#000000" stroke-width="0.3581" stroke-linecap="round" stroke-linejoin="round" d="M297.086,207.749c-5.804,0.134-5.807,7.224,0.074,7.895c4.73,0.54,22.713-9.776,41.485-10.278 M339.049,214.175c-17.742,0.213-23.795,9.501-41.783,9.477c-11.274-12.672-7.502-17.62-0.175-17.699 M383.707,204.16c13.294,0.45,1.599,16.203,1.043,18.64c-9.91-0.675-17.28-8.953-46.228-8.612 M338.144,205.379c24.734-0.657,44.744,8.224,46.382,8.24c3.021,0.029,5.442-7.557-0.819-7.671" />
    <path fill="#CA1214" d="M299.172,222.092l-0.049-5.108c1.189,0.02,3.372-0.668,3.323,1.22c0.004,0.748-0.387,1.291-1.153,1.452c0.146,0.078,0.257,0.157,0.333,0.237c0.363,0.35,0.927,1.552,1.195,2.008l-0.689,0.036l-0.558-1.034c-0.316-0.507-0.437-0.962-0.935-1.133c-0.155-0.035-0.755,0.021-0.941,0.025l0.022,2.268L299.172,222.092z M299.693,219.209c0.744-0.08,2.252,0.159,2.189-0.976c0.057-1.141-1.522-0.695-2.205-0.714C299.676,217.519,299.693,219.209,299.693,219.209z M303.351,221.707l-0.639-5.025l2.958-0.683l0.075,0.593l-2.417,0.558l0.196,1.539l2.263-0.523l0.075,0.59l-2.263,0.523l0.218,1.71l2.511-0.58l0.075,0.593L303.351,221.707z M306.675,219.233l0.494-0.213c0.188,1.172,1.854,1.007,2.215,0.067c0.156-0.446-0.041-0.971-0.566-1.009c-0.22-0.043-1.374,0.027-1.6-0.077c-2.117-0.915,0.345-3.901,1.849-2.427c0.165,0.191,0.279,0.43,0.342,0.717l-0.504,0.209c-0.151-0.985-1.398-0.801-1.825-0.197c-0.39,0.742,0.059,1.207,0.983,1.083c1.735-0.346,2.481,1.389,1.384,2.54C308.546,220.817,306.863,220.641,306.675,219.233z M310.923,219.541l-1.043-4.906l2.897-1.041l0.123,0.579l-2.367,0.851l0.319,1.503l2.217-0.797l0.122,0.576l-2.217,0.797l0.355,1.67l2.46-0.884l0.123,0.579L310.923,219.541z M314.209,218.347l0.444-5.464l0.569-0.214l2.725,4.276l-0.602,0.226l-0.796-1.306l-1.67,0.626l-0.108,1.645L314.209,218.347z M314.914,215.908l1.354-0.508c-0.306-0.517-0.998-1.632-1.228-2.105C315.094,213.943,314.956,215.243,314.914,215.908z M318.383,216.772l-1.052-4.903c0.785-0.167,2.545-1.321,3.163-0.501c0.371,0.421,0.474,1.149,0.238,1.658c-0.109,0.546-1.139,0.708-0.383,0.892c0.424,0.228,1.212,1.216,1.563,1.575l-0.667,0.242l-0.749-0.828c-0.408-0.396-0.628-0.8-1.137-0.81c-0.16,0.014-0.735,0.248-0.915,0.306l0.467,2.177L318.383,216.772z M318.325,213.841c0.716-0.306,2.225-0.511,1.948-1.596c-0.196-1.143-1.665-0.18-2.296-0.026C317.977,212.219,318.325,213.841,318.325,213.841z M324.994,212.681l0.565,0.002c-0.017,0.574-0.146,1.046-0.387,1.419c-2.344,2.837-4.556-1.934-2.823-3.78c0.805-0.95,2.318-0.918,2.782,0.355l-0.5,0.314c-1.024-1.942-2.792,0.188-2.264,1.671C322.514,214.848,325.007,214.931,324.994,212.681z M326.522,214.052l-0.415-5.069l0.545-0.088l0.17,2.082l2.141-0.347l-0.17-2.082l0.545-0.088l0.415,5.069l-0.545,0.088l-0.195-2.389l-2.141,0.347l0.195,2.389L326.522,214.052z M332.833,212.897l1.966-5.118h0.73l2.095,5.118h-0.772l-0.597-1.55h-2.14l-0.562,1.55H332.833z M334.31,210.795h1.735C334.822,207.753,335.489,207.871,334.31,210.795z M338.164,212.897v-5.118h0.695l2.688,4.018v-4.018h0.649v5.118h-0.695l-2.688-4.022v4.022H338.164z M343.338,212.897v-5.118c2.148-0.036,4.221-0.301,4.231,2.531C347.562,213.169,345.495,212.942,343.338,212.897z M344.016,212.293c1.666,0.073,2.89,0.059,2.856-1.994c0.041-2.01-1.284-1.982-2.856-1.916C344.016,208.382,344.016,212.293,344.016,212.293z M349.634,212.757l0.246-4.954c2.104,0.075,3.662,0.077,3.557,2.698C353.299,213.131,351.707,212.979,349.634,212.757z M350.252,212.212c1.616,0.197,2.493,0.127,2.579-1.763c0.112-1.852-0.859-2.002-2.391-2.022C350.44,208.427,350.252,212.212,350.252,212.212z M354.223,213.127l0.439-4.937l0.587,0.068l-0.439,4.937L354.223,213.127z M355.841,211.699l0.558,0.035c-0.153,1.11,1.424,1.792,2.185,1.085c0.547-0.801-0.185-1.218-1.009-1.544c-1.424-0.344-1.858-2.175-0.413-2.68c1.089-0.311,2.488,0.449,2.306,1.698l-0.566-0.043c0.14-0.943-1.086-1.38-1.756-1.023c-0.673,0.581-0.218,1.14,0.646,1.437c1.609,0.391,2.223,2.266,0.598,2.944C357.155,213.983,355.628,213.085,355.841,211.699z M363.378,212.992l0.55,0.292c-0.214,0.502-0.503,0.856-0.867,1.064c-3.017,1.345-3.97-3.84-1.45-4.815c1.21-0.434,2.564,0.414,2.591,1.746l-0.596,0.022c-0.224-2.062-2.697-1.503-2.785,0.324C360.219,213.486,362.489,215.108,363.378,212.992z M364.707,212.623c0.651-3.509,5.009-2.073,4.153,1.091C368.199,217.086,363.928,215.722,364.707,212.623z M365.296,212.796c-0.675,2.39,2.557,3.365,2.975,0.75C368.974,211.114,365.759,209.989,365.296,212.796z M370.292,216.731l-0.488-5.298l0.616,0.191l0.262,3.82c0.029,0.905,0.008,0.9,0.457,0.142l2.016-3.112l0.581,0.18l-2.86,4.257L370.292,216.731z M373.08,217.612l1.222-4.766l3.099,1.002l-0.144,0.562l-2.532-0.818l-0.374,1.46l2.371,0.766l-0.143,0.559l-2.371-0.766l-0.416,1.622l2.631,0.851l-0.144,0.562L373.08,217.612z M377.077,218.911l1.205-4.771c0.557,0.221,2.338,0.634,2.742,1.012c0.922,0.848,0.201,2.667-1.178,2.296c0.608,0.555,0.756,1.916,1.012,2.668l-0.714-0.227c-0.281-0.774-0.356-2.087-0.995-2.582c-0.148-0.09-0.777-0.266-0.969-0.333l-0.535,2.119L377.077,218.911z M378.318,216.426c0.71,0.15,2.197,1.055,2.48-0.079c0.318-1.081-1.413-1.216-2.081-1.5L378.318,216.426z M382.614,220.647l0.481-2.03l-1.006-3.26l0.694,0.208c1.078,3.085,0.078,3.214,2.593,0.776l0.664,0.199l-2.374,2.248l-0.481,2.03C383.184,220.818,382.614,220.647,382.614,220.647z" />
    <path fill="#FEC717" stroke="#000000" stroke-width="0.3581" stroke-linecap="round" d="M316.752,132.732l0.378,7.071l-12.14,8.64l-1.48-10.599c3.738-3.235,7.344-6.903,12.118-8.034" />
    <linearGradient id="Gradient_AQ_BR_6" gradientUnits="userSpaceOnUse" x1="-56.5177" y1="318.1334" x2="-54.7793" y2="320.665" gradientTransform="matrix(1.3241 0 0 1.3241 444.0438 -270.8753)">
      <stop offset="0" style="stop-color:#000000" />
      <stop offset="1" style="stop-color:#FFFFFF" />
    </linearGradient>
    <path fill="url(#Gradient_AQ_BR_6)" stroke="#000000" stroke-width="0.3581" stroke-linecap="round" stroke-linejoin="round" d="M364.877,151.287c5.377-0.675,9.052-5.676,12.103-12.773l-4.283,25.733c-2.405,1.319-4.689,2.759-7.001,4.171L364.877,151.287z" />
    <g>
      <path fill="none" stroke="#000000" stroke-width="0.4343" stroke-linecap="round" stroke-linejoin="round" d="M338.298,205.785c-3.707-0.219-29.233-10.655-28.994-36.038v-36.038h28.994h28.994v36.038C367.531,195.13,342.005,205.566,338.298,205.785z" />
      <path fill="none" d="M254.114,161.179c0.103-1.111,0.193-3.157,0.053-5.285c-5.018,3.83-6.862-5.228-12.247-0.134c-3.614,3.418-4.79-1.018-7.208-0.683s-2.167,5.589,0.251,5.255c2.418-0.335,3.343,4.027,6.957,0.609C247.305,155.846,249.096,165.008,254.114,161.179z M196.315,155.146c-0.103,1.111-0.035,3.051,0.105,5.18c5.018-3.83,6.599,5.465,11.984,0.371c3.614-3.418,4.79,1.018,7.208,0.683c2.418-0.335,2.167-5.589-0.251-5.255s-3.343-4.027-6.957-0.609C203.019,160.61,201.333,151.316,196.315,155.146L196.315,155.146z M254.277,145.748c0.103,1.831,0.028,2.22,0,5.082c-5.018,3.83-6.614-5.369-12.087-0.632c-1.058,0.76-2.258,2.239-3.392,0.809c-1.134-1.429-0.589,0.673-1.08-3.927c-0.491-4.601,0.607,1.295,4.472-1.964C247.663,140.379,249.258,149.578,254.277,145.748z M196.468,149.766c-0.103-1.831-0.028-2.22,0-5.082c5.018-3.83,6.614,5.369,12.087,0.632c1.058-0.76,2.258-2.239,3.392-0.809c1.134,1.429,0.589-0.673,1.08,3.927c0.491,4.601-0.607-1.295-4.472,1.964C203.082,155.135,201.487,145.936,196.468,149.766L196.468,149.766z M254.16,134.974c0.147,1.226,0.094,3.591,0.026,4.998c-5.018,3.83-6.614-5.369-12.087-0.632s-5.499-0.261-0.026-4.998C247.546,129.605,249.141,138.804,254.16,134.974z M196.401,139.227c-0.147-1.226-0.042-3.564,0.026-4.972c5.018-3.83,6.745,5.343,12.218,0.606s5.499,0.261,0.026,4.998S201.419,135.397,196.401,139.227z" />
      <path fill="none" d="M229.637,148.331l5.144,6.081 M231.151,145.881l6.445,4.005 M231.837,143.542l6.52,1.818 M232.073,141.057l8.043-1.113 M231.542,138.57l10.086-4.711 M230.888,147.477l2.752,1.964 M231.992,144.767l3.093,1.335 M232.486,142.244h3.056 M232.194,139.721l3.5-0.965 M230.836,137.058l13.048-9.312 M229.792,135.044l5.327-6.321 M228.38,132.799l2.459-4.776 M229.685,133.265l1.968-3.05 M231.085,135.388l2.753-2.366 M227.195,131.191l1.093-3.461 M221.253,147.46l-5.554,6.9 M220.111,145.457l-6.929,4.154 M219.351,143.454l-7.227,1.855 M218.742,141.005l-8.304-1.113 M219.198,138.705l-10.347-4.897 M220.194,137.072l-13.011-9.275 M220.187,146.792l-3.347,2.597 M219.046,144.492l-3.652,1.558 M218.59,142.192c-0.304,0-3.652,0-3.652,0 M218.286,139.67l-3.5-0.965 M221.299,135.362l-5.949-5.736" />
      <path fill="none" d="M367.144,168.058c0.103-1.111,0.193-3.157,0.053-5.285c-5.018,3.83-6.862-5.228-12.247-0.134c-3.614,3.418-4.79-1.018-7.208-0.683s-2.167,5.589,0.251,5.255c2.418-0.335,3.343,4.027,6.957,0.609C360.335,162.725,362.126,171.887,367.144,168.058z M309.345,162.025c-0.103,1.111-0.035,3.051,0.105,5.18c5.018-3.83,6.599,5.465,11.984,0.371c3.614-3.418,4.79,1.018,7.208,0.683c2.418-0.335,2.167-5.589-0.251-5.255c-2.418,0.334-3.343-4.027-6.957-0.609C316.049,167.489,314.363,158.195,309.345,162.025L309.345,162.025z M367.307,152.627c0.103,1.831,0.028,2.22,0,5.082c-5.018,3.83-6.614-5.369-12.087-0.632c-1.058,0.76-2.258,2.239-3.392,0.809c-1.134-1.429-0.589,0.673-1.08-3.927c-0.491-4.601,0.607,1.295,4.472-1.964C360.693,147.258,362.288,156.457,367.307,152.627z M309.498,156.645c-0.103-1.831-0.028-2.22,0-5.082c5.018-3.83,6.614,5.369,12.087,0.632c1.058-0.76,2.258-2.239,3.392-0.809c1.134,1.429,0.589-0.673,1.08,3.927c0.491,4.601-0.607-1.295-4.472,1.964C316.112,162.014,314.517,152.815,309.498,156.645L309.498,156.645z M367.19,141.853c0.147,1.226,0.094,3.591,0.026,4.998c-5.018,3.83-6.614-5.369-12.087-0.632c-5.473,4.737-5.499-0.261-0.026-4.998S362.171,145.683,367.19,141.853z M309.431,146.106c-0.147-1.226-0.042-3.564,0.026-4.972c5.018-3.83,6.745,5.343,12.218,0.606c5.473-4.737,5.499,0.261,0.026,4.998S314.449,142.276,309.431,146.106z" />
      <path fill="none" d="M342.667,155.21l5.144,6.081 M344.181,152.76l6.445,4.005 M344.867,150.421l6.52,1.818 M345.103,147.936l8.043-1.113 M344.572,145.449l10.086-4.711 M343.918,154.356l2.752,1.964 M345.022,151.646l3.093,1.335 M345.516,149.123h3.056 M345.224,146.6l3.5-0.965 M343.866,143.937l13.048-9.312 M342.822,141.923l5.327-6.321 M341.41,139.678l2.459-4.776 M342.715,140.144l1.968-3.05 M344.115,142.267l2.753-2.366 M340.225,138.07l1.093-3.461 M334.283,154.339l-5.554,6.9 M333.141,152.336l-6.929,4.154 M332.381,150.333l-7.227,1.855 M331.772,147.884l-8.304-1.113 M332.228,145.584l-10.347-4.897 M333.224,143.951l-13.011-9.275 M333.217,153.671l-3.347,2.597 M332.076,151.371l-3.652,1.558 M331.62,149.071c-0.304,0-3.652,0-3.652,0 M331.316,146.549l-3.5-0.965 M334.329,142.241l-5.949-5.736" />
      <path fill="#FFFFFF" stroke="#000000" stroke-width="0.4343" stroke-linecap="round" stroke-linejoin="round" d="M338.298,205.785c-3.707-0.219-29.233-10.655-28.994-36.038v-36.038h28.994h28.994v36.038C367.531,195.13,342.005,205.566,338.298,205.785z" />
      <path fill="#012169" d="M367.197,162.773c0.14,2.129,0.05,4.174-0.053,5.285c-5.018,3.83-6.809-5.333-12.195-0.24c-3.614,3.418-4.539-0.943-6.957-0.609c-2.418,0.335-2.669-4.92-0.251-5.255s3.594,4.102,7.208,0.683C360.335,157.545,362.179,166.602,367.197,162.773z M328.391,163.005c-2.418,0.335-3.343-4.027-6.957-0.609c-5.385,5.093-7.071-4.201-12.089-0.371c-0.103,1.111-0.035,3.051,0.105,5.18c5.018-3.83,6.599,5.465,11.984,0.371c3.614-3.418,4.79,1.018,7.208,0.683C331.061,167.925,330.81,162.67,328.391,163.005z M367.307,152.627c-5.018,3.83-6.614-5.369-12.087-0.632c-3.865,3.259-4.963-2.637-4.472,1.964s-0.055,2.498,1.08,3.927s2.334-0.049,3.392-0.809c5.473-4.737,7.068,4.462,12.087,0.632C367.335,154.848,367.41,154.458,367.307,152.627z M324.977,151.386c-1.134-1.429-2.334,0.049-3.392,0.809c-5.473,4.737-7.068-4.462-12.087-0.632c-0.028,2.862-0.103,3.251,0,5.082c5.018-3.83,6.614,5.369,12.087,0.632c3.865-3.259,4.963,2.637,4.472-1.964C325.566,150.713,326.112,152.815,324.977,151.386z M355.13,146.219c5.473-4.737,7.068,4.462,12.087,0.632c0.068-1.407,0.121-3.772-0.026-4.998c-5.018,3.83-6.614-5.369-12.087-0.632C349.63,145.958,349.657,150.956,355.13,146.219z M321.702,146.738c5.473-4.737,5.447-9.735-0.026-4.998s-7.2-4.435-12.218-0.606c-0.068,1.407-0.173,3.746-0.026,4.972C314.45,142.276,316.229,151.475,321.702,146.738z" />
      <path fill="#DE1010" d="M338.368,133.806H318.91l19.458,68.503l19.476-68.503H338.368z" />
      <path fill="none" stroke="#FFE600" stroke-width="0.9533" stroke-linecap="round" stroke-linejoin="round" d="M342.667,155.21l5.144,6.081 M344.181,152.76l6.445,4.005 M344.867,150.422l6.52,1.818 M345.103,147.936l8.043-1.113 M344.572,145.449l10.086-4.711 M343.866,143.937l13.048-9.312 M342.822,141.924l5.327-6.321 M341.41,139.678l2.459-4.776 M334.283,154.339l-5.554,6.9 M333.142,152.336l-6.929,4.154 M332.381,150.333l-7.227,1.855 M331.772,147.884l-8.304-1.113 M332.229,145.584l-10.347-4.897 M333.224,143.951l-13.011-9.275 M334.329,142.241l-5.949-5.736" />
      <path fill="none" stroke="#FFB400" stroke-width="0.4767" stroke-linecap="round" stroke-linejoin="round" d="M343.919,154.356l2.752,1.964 M345.023,151.646l3.093,1.335 M345.516,149.123h3.056 M345.225,146.6l3.5-0.965 M342.715,140.144l1.968-3.05 M344.115,142.267l2.753-2.366 M340.225,138.07l1.093-3.461 M333.218,153.672l-3.347,2.597 M332.077,151.372l-3.652,1.558 M331.62,149.071c-0.304,0-3.652,0-3.652,0 M331.316,146.549l-3.5-0.965" />
      <path fill="#FEF600" stroke="#694A02" stroke-width="0.2383" d="M340.443,157.508c-0.27-1.802,5.342-5.738,1.284-11.263c-0.901,2.363,1.042,3.955-1.421,7.24c2.087-4.901-0.068-3.883,1.267-7.767c0.633-3.086-0.626-5.386-2.769-6.793c0.576,5.416-3.647,4.141-3.054,9.757c-0.345-1.465-0.424-2.93-0.372-4.394c-4.671,7.639,0.176,6.588,0.596,13.183c0.279-0.046,0.46,0.183,0.485-0.224c0.099-2.299-0.439-3.234-1.207-6.582c0.628,2.152,2.081,4.068,1.862,6.827c0.382,0.058,0.588,0.05,1.105-0.063c0.156-4.329-2.566-6.456-0.546-10.658c-1.094,4.44,1.227,6.885,1.154,10.731l0.391,0.001c0.034-2.185,0.13-3.486,0.735-4.158c-0.245,1.671-0.23,2.536-0.177,4.161L340.443,157.508z" />
      <path fill="#FFF700" stroke="#694A02" stroke-width="0.2979" stroke-linejoin="round" d="M338.377,189.347l-1.558-0.007c-0.568-9.875-0.729-19.749-3.668-29.624l5.226,0.007l5.226,0.007c-2.939,9.875-3.101,19.749-3.668,29.624L338.377,189.347z M338.377,159.691l5.738,0.049c-1.198-2.479-3.338-2.736-5.738-2.73c-2.4-0.029-4.54,0.228-5.738,2.707L338.377,159.691z M338.377,195.811c1.781-1.922,2.309-4.354,1.403-4.419c-0.411-0.03-0.968-0.036-1.403-0.05c-0.435,0.008-0.992,0.015-1.403,0.044C336.069,191.452,336.597,193.89,338.377,195.811z" />
      <path fill="#FFF700" stroke="#694A02" stroke-width="0.2979" stroke-linejoin="round" d="M338.377,191.743c1.996-0.022,2.962-1.419,1.945-2.234c-0.34-0.272-1.586-0.191-1.945-0.194c-0.359-0.004-1.605-0.079-1.945,0.194C335.415,190.324,336.382,191.721,338.377,191.743z" />
      <path fill="none" stroke="#694A02" stroke-width="0.2979" stroke-linecap="round" stroke-linejoin="round" d="M335.691,160.776c0.492,3.222,0.772,5.545,0.708,10.129 M341.064,160.776c-0.492,3.222-0.772,5.545-0.708,10.129" />
      <path fill="#FFF700" stroke="#694A02" stroke-width="0.8342" stroke-linecap="round" stroke-linejoin="round" d="M338.377,160.946v24.072" />
      <path fill="#FFF700" stroke="#694A02" stroke-width="0.5958" stroke-linecap="round" stroke-linejoin="round" d="M333.5,158.672h0.812 M342.408,158.672h0.812" />
    </g>
    <g>
      <path fill="#EE1D17" stroke="#000000" stroke-width="0.3581" stroke-linecap="round" d="M280.546,206.918c0.93,1.971,0.291,3.652-0.053,5.556c-0.624-2.167-1.666-3.406-2.87-3.687C277.734,207.514,278.352,206.385,280.546,206.918z M280.704,206.997c0.11-0.155,1.823,2.14,2.212,5.003c1.583-1.098,1.125-3.206,0.606-5.556C282.815,206.591,281.736,206.655,280.704,206.997z M283.891,206.339c0.677,1.5,1.649,3.073,1.975,4.924c0.733-1.587,1.106-3.33,0.342-5.477L283.891,206.339z M305.776,168.285c0.111,1.076,0.995,3.039-3.084,2.532c3.11,1.93,5.149,2.222,5.056-1.931L305.776,168.285z M308.363,169.895c0.331,2.311-0.03,3.966-1.063,5.108c2.286-0.309,3.908-1.331,3.529-4.503L308.363,169.895z M311.643,170.562l-0.583,2.485c1.793-0.217,1.701-1.062,2.533-1.599L311.643,170.562z M312.206,192.188c0.787,1.099,1.543,1.882,2.085,3.128c-0.198-1.537-0.014-3.304-0.95-3.873L312.206,192.188z M306.601,195.763c1.605,0.305,2.625,1.683,3.649,3.054c0.078-1.893,0.08-3.796-1.303-5.884C307.541,193.329,306.433,193.988,306.601,195.763z M310.083,193.826l2.327,3.203c0.427-1.49,0.268-2.929-0.447-4.32L310.083,193.826z M319.9,135.478l1.698,2.581l-0.053-3.371L319.9,135.478z M322.481,135.215c-0.142,1.102,0.283,1.887,0.764,2.989c0.335-1.216,0.463-2.431,0.592-3.647L322.481,135.215z M324.706,134.53c-0.082,0.865-0.103,1.703,0.026,2.567c1.341-0.792,1.569-1.637,1.303-1.975L324.706,134.53z" />
      <path fill="#FFC718" stroke="#000000" stroke-width="0.3581" stroke-linecap="round" d="M272.964,145.314c-16.408-4.458-0.96-14.274-6.554-17.801C276.309,132.047,264.972,135.173,272.964,145.314z M279.756,202.363c2.884,0.222,6.908-1.861,6.925,4.161c-1.12-0.288-1.967,0.135-2.528,0.685C283.793,203.485,281.363,203.781,279.756,202.363L279.756,202.363z" />
      <path fill="#FFC718" stroke="#000000" stroke-width="0.3581" stroke-linecap="round" d="M289.501,168.15c4.836,0.253,3.262-1.021,6.778-0.447c5.603,1.635,6.155,5.429,4.769,10.8c-3.269,8.112-2.411,6.792,1.463,8.116c2.915,0.996,3.323,3.356,6.95,1.789c1.698-0.733,3.824,1.6,4.301,3.463c-0.539,0.137-0.932,0.471-1.173,1.005c-0.896-1.832-1.982-1.948-3.016-2.532c1.306,0.668,2.8,1.147,2.867,3.054c-0.867-0.12-1.541,0.268-2.011,1.192c-1.907-2.418,0.027-3.791-5.884-3.203c0.919,0.215,5.322-1.408,4.916,2.532c-1.854-0.369-2.526,0.531-2.346,2.346c-1.028,1.455-6.401,0.928-4.096-2.495c-0.759,1.399-1.032,3.005-2.905,3.761c-2.508-2.421-1.417-2.851-0.708-4.953c-1.774,6.061-6.68,2.534-3.724-1.229c-3.07,4.406-5.719,2.927-7.225,0.223c5.326-0.518,2.812-1.995,5.586-1.825c-3.559,0.413-5.768-4.476-1.75-7.15c-0.104-3.875,0.489-4.876-3.054-3.91l-3.389-12.364L289.501,168.15z" />
      <path fill="#FFC718" stroke="#000000" stroke-width="0.3581" stroke-linecap="round" d="M293.423,175.477c-0.53-8.934,6.91-12.185,6.846-7.952c-0.051,3.344-4.72,1.856-5.056,14.062" />
      <path fill="#FFC718" stroke="#000000" stroke-width="0.3581" stroke-linecap="round" d="M284.135,145.687c1.402,8.063-1.757,17.645-6.778,24.355c-7.044,9.414-15.351-1.314-6.48-2.383c4.155-0.501,6.269-0.594,7.15-2.963c-3.005-0.628-6.681-0.536-9.021,0.089c7.875-1.467,10.121-2.123,11.33-6.064c-2.875,0.334-5.796,0.804-9.086,2.383c2.844-4.02,5.194,1.549,11.951-8.552c-2.912-4.571-5.589,1.885-8.376,3.19c5.79-9.353,1.416-15.2-4.841-19.216c-0.559,3.345,0.043,5.962,2.011,8.044c-7.019-4.243-10.483,6.613-2.309,6.554c-2.803-5.629,6.936-4.338-0.074,4.618c-4.312,5.508-11.756,18.568-4.32,22.046c-3.225,0.174-5.943,3.251-4.096,8.64c6.197-9.086,4.151-1.818,7.225-9.31c-2.824,6.19-0.128,6.732,2.979,6.852c-3.239-7.45,4.214-1.333,9.086-13.928c-4.917,10.151-2.261,5.893-2.979,13.183c-4.292,2.755-8.081,1.095-7.373,6.554c-1.859,1.263-5.928,4.595-2.234,7.746c1.338-3.374,3.176-4.051,5.214-3.65c-6.502-0.742-6.615,9.333-2.234,9.087c0.549-1.697,1.199-3.089,2.383-4.32c-3.899,4.879-2.223,7.242,1.043,7.671c0.106-1.826,0.847-3.114,1.862-4.171c-2.833,3.395-2.291,5.361,2.085,7.225c0.156-1.486,0.908-2.187,2.607-1.639c0.396-1.759-1.083-2.796-2.458-3.873c1.136,1.038,2.666,1.838,2.756,3.856c0.974-0.428,1.889-0.52,2.793-0.351c0.014-5.494-5.479-3.351-5.4-11.921c0.095-10.341,10.489-5.966,11.895-18.545c0.351-3.142-2.591-3.863-2.436-8.789c-0.15,6.213,4.918,6.342,2.532-1.639c-1.372-4.59,7.311-5.437,9.608-14.077l-13.928-13.555L284.135,145.687z" />
      <path fill="none" stroke="#000000" stroke-width="0.3581" stroke-linecap="round" d="M296.946,152.502c-1.807,3.542-5.136,6.685-9.608,9.347" />
      <path fill="#FEC717" stroke="#000000" stroke-width="0.3581" stroke-linecap="round" d="M302.309,140.175c7.054,11.767,16.434,30.838,10.651,31.877c-2.66,0.478-0.746-3.505-0.894-5.586c0,0-0.145,1.715-0.372,2.905c-0.531,2.777-2.982,2.618-3.612,0.41c-0.091-0.318,1.303-5.921,1.303-5.921s-0.957,3.971-1.601,5.083c-0.75,1.296-3.365-0.447-3.761-2.03c-0.444-1.775,2.83-5.288,2.83-5.288c-1.739,2.003-2.917,3.678-4.692,1.341c-2.509-3.303,1.641-4.184,3.277-6.107c-2.492,1.968-4.423,4.218-6.331,1.936c-2.083-2.492,1.971-3.625,3.873-5.437l-4.767,3.501c-0.515-1.668,0.131-2.694,1.043-3.575l-6.033,0.149c0.268-2.581-1.851-4.479-2.83-6.703l0.372-9.98l9.608,0.596L302.309,140.175z" />
      <path fill="#FEC617" stroke="#000000" stroke-width="0.3581" stroke-linecap="round" d="M296.906,120.009c-0.197,2.952,2.72,2.154,2.703,0.746c-0.015-1.191-0.521-2.17-2.961-1.731c-2.114,0.38-1.646-3.246-5.363-2.607c-4.526,0.407-5.313-1.745-6.48-3.128c-1.503,1.207-1.597,2.616,0.372,4.32c-1.259-0.224-2.166-0.918-2.83-1.936c-2.173,2.03-1.598,4.801,1.415,4.394c-2.182-0.206-4.187,0.198-4.651,0.525c-3.042,2.148-0.693,10.299,5.023,6.625c-5.14,1.75-3.388,5.903-8.044,7.82c1.465,4.32,3.969,0.879,6.182,0.447c-5.07,3.407-2.5,5.526-2.532,9.682c2.271-0.884,2.653-3.387,3.649-5.363c-0.384,3.645-0.496,7.97-2.011,8.789c5.297,2.401,6.956-3.824,5.437-7.225c2.172,4.839,1.568,7.742-0.521,9.608c9.612,2.223,5.81-6.233,5.958-11.544c0.935,7.704,7.258,5.552,5.809,11.619c3.875-0.811,7.989-5.615,0.074-12.215c3.338,1.974,5.945,4.874,8.306,8.707c1.81-10.446-3.582-13.694-9.423-14.535v-6.312C300.46,121.359,296.506,122.806,296.906,120.009L296.906,120.009z" />
      <path fill="none" stroke="#000000" stroke-width="0.3581" stroke-linecap="round" d="M283.469,180.164c4.233,1.792-0.62,4.602-3.476,7.189 M277.492,183.193c0.937,6.629-5.473,0.055-3.713,8.453 M270.685,194.094c0.688-0.307,1.465-0.348,2.515-0.204c-0.294,5.419-0.058,4.763,3.739,6.524 M273.167,193.844c0.498-0.304,0.731-0.599,0.599-1.271 M283.912,165.294c1.46,0.005,0.404,1.679,1.099,2.365 M287.003,118.967c1.845,2.759,2.489-0.966,4.857-0.948c2.684,0.02,1.756,2.628-0.239,2.586c-1.815,0.111,1.461-1.617-1.229,0.056 M294.525,184.379c-2.618,0.598-0.752,3.704,1.862,3.054c-0.611,4.583,1.546,2.099,4.692,3.575 M297.076,132.969c-1.096,0.374-1.7-0.044-2.041-0.597c-0.222-0.36-0.301-0.732-0.436-1.135c0.183,0.526,0.553,1.323,0.27,1.187c-0.293-0.141-1.322,0.255-1.886-0.057c-0.32-0.177-0.518-0.665-0.842-1.13c0.354,0.566,0.773,1.15,0.706,1.146c-0.373-0.024-1.359,0.287-1.847-0.069c-0.366-0.267-0.332-0.55-0.61-1.152c0.257,0.669,0.239,0.706,0.341,0.946c0.469,1.101-4.543-0.049-4.109-1.359c0.145-0.438,1.721-0.982,2.364-1.51c-0.367,0.439-1.961,0.96-2.24,1.345c-0.499,0.297-0.184-2.226,0.295-2.737c0.213-0.227,1.798-0.357,2.326-0.46c-0.617,0.072-2.487,0.676-2.389,0.27c0.137-0.563,0.364-1.941,0.459-2.542c0.055-0.351,0.624-0.217,1.114-0.357c-0.496-0.087-0.979,0.328-1.017,0.074c-0.12-0.809-0.203-3.557-1.422-4.423" />
      <path fill="#000000" d="M284.593,124.002l0.031,0.089c-1.033,0.694-1.922,0.988-2.402,0.971c-1.321-0.018-1.354-1.419-0.519-2.105C281.947,122.707,283.226,122.182,284.593,124.002z M295.962,125.081c-2.002-1.872-5.364,1.321-5.248,3.01c-0.078,1.326,1.279,1.915,2.971,1.82c0.823,0,1.794-0.039,2.419-0.672C297.036,128.348,296.797,125.845,295.962,125.081z M290.367,120.604c-0.865-0.824,0.98-1.838,1.968-1.784c1.651,0.046,0.866,1.554-0.553,1.872C291.313,120.799,290.791,120.857,290.367,120.604z M293.193,119.156c0.005,0.007,0.011,0.014,0.016,0.022C293.204,119.17,293.198,119.163,293.193,119.156z M293.03,118.996c0.011,0.007,0.022,0.015,0.032,0.023C293.054,119.008,293.044,119,293.03,118.996z M290.209,120.425c0.004,0.008,0.011,0.014,0.016,0.022C290.22,120.439,290.213,120.433,290.209,120.425z M290.356,120.584C290.377,120.6,290.367,120.592,290.356,120.584C290.365,120.595,290.375,120.603,290.356,120.584z" />
      <path fill="#F01818" stroke="#000000" stroke-width="0.3581" stroke-linecap="round" d="M294.285,126.881c2.906-0.027,1.932,1.511,2.197,0.386c-0.65,1.792,4.102-0.434,4.523-2.397c0.589,4.752-4.473,5.297-4.674,3.866c-0.92,0.637-1.673,0.797-2.437,0.385C293.223,128.76,293.523,126.888,294.285,126.881L294.285,126.881z" />
    </g>
    <path fill="#D6F7FF" d="M299.721,103.653c-7.381-4.624,4.529-7.695,3.538-0.857C303.116,103.777,300.647,104.234,299.721,103.653z M301.992,105.962c0.457,0.609,2.268-1.14,1.936-1.639C303.608,103.84,301.093,104.764,301.992,105.962z M298.79,112.219c-1.196,1.02-0.359,5.272,0.894,4.394C300.993,115.695,299.643,111.492,298.79,112.219z M307.839,113.112c-5.317,2.088-4.638,4.635,0.819,1.452C309.684,113.967,316.269,109.802,307.839,113.112z M310.446,119.22c1.951-1.005,2.036-2.011,3.054-3.016c-1.167-0.298-2.57-2.03-3.203-2.085c-0.435-0.038-3.126,2.147-3.091,2.532C307.237,116.984,309.601,116.956,310.446,119.22z M312.941,118.4c-2.334,1.365-3.582,2.616-3.412,3.208c0.172,0.598,2.603-1.034,3.859,0.367C315.559,119.778,317.427,117.507,312.941,118.4z M322.288,118.289c-2.933,2.907-1.921,8.274,1.75,3.575c-3.655,4.218,0.791,4.95,1.564,2.979c-2.376,4.166,1.627,2.734,3.128,0.894L322.288,118.289z M300.838,110.766c-0.124-2.15-0.971-1.816-0.894-0.074C300.089,113.972,300.898,111.804,300.838,110.766z M364.892,119.372c-0.073,1.142-3.565,0.921-5.288,1.378c-1.031,0.273-6.887-3.617-2.78-3.813c0.575-0.028,3.445,1.22,3.445,1.22c-0.435-2.459,2.48-0.494,3.335,0.497C364.034,119.152,364.935,118.708,364.892,119.372z M365.823,109.503c-7.211-2.186-2.472,4.128-6.685,6.353c2.724-0.409,3.951,1.391,7.057-1.437C367.833,112.928,362.419,114.593,365.823,109.503z M377.181,109.987c0.736-1.134,0.999-2.715-0.968-2.197c-2.372,0.624-0.832,1.847,0.074,2.57c-1.715,1.994,0.706,3.961,1.378,4.543c0.5,0.433-0.149-2.011-0.149-2.011C378.728,111.771,379.369,110.049,377.181,109.987z M374.634,98.801c5.994-3.207,1.474-2.9-1.356-1.708c-0.899,0.349-1.652,0.921-2.874,2.355c-1.826,2.143-1.703,4.191,0.074,4.022c2.997-0.285,2.133-0.717,0.857-2.234C370.847,100.656,372.882,99.668,374.634,98.801z" />
    <path fill="none" stroke="#000000" stroke-width="0.3581" stroke-linecap="round" stroke-linejoin="round" d="M324.262,122.795l-0.67,0.782 M302.477,114.714l0.894,0.633 M298.525,115.576l1.014,0.435 M312.947,106.19l-0.124,0.773 M312.643,107.824l-0.186,1.043 M312.382,109.686l-0.112,0.857 M315.473,108.755c-0.215,0.258-0.506,1.021-0.525,1.488 M311.524,114.492l-1.002-1.157 M301.734,116.58c-0.29,0.088-0.579,0.165-0.86-0.27 M303.072,117.097l1.005,0.261 M307.43,116.799l0.745,0.67 M309.217,118.624c0.433,0.08,0.856,0.213,1.192,0.782 M363.039,104.143l0.06,0.929 M363.17,106.024l-0.019,0.912 M360.44,107.044l0.279,1.099 M376.092,110.572l-0.887,0.345 M374,111.413l-0.824,0.277 M365.077,111.485l-0.459,0.676 M365.227,115.052l-0.782,0.596 M363.192,107.928l-0.074,0.856 M374.071,113.102c0.397,0.376,0.853,0.236,1.331-0.096 M361.28,115.35l0.968-1.005 M362.942,113.814l0.799-0.924 M377.063,112.891l-0.869,0.033 M321.316,121.947l0.745-0.447 M325.226,125.447l0.372-0.521" />
    <path fill="none" stroke="#000000" stroke-width="0.3581" stroke-linecap="round" stroke-linejoin="round" d="M328.85,125.823c-1.013,2.464-2.277,4.751-5.161,5.898c0.09-2.052-0.323-4.241,1.211-5.898c-1.456,2.108-3.391,3.419-6.109,3.423c-0.094-2.045,0.902-3.677,2.844-4.951c-1.683,0.7-2.65,1.588-4.055,0.632c0.275-1.638,1.969-1.951,3.213-2.686c-1.918,0.984-3.893,1.543-5.951,1.475l-6.846,4.845l-4.371-1.369c-1.873-5.238,2.34-5.78,6.32-7.215c-4.981-1.465-13.089-1.327-14.957-4.687c0.737-0.352,1.58-0.385,2.528-0.105c-3.563-2.83-3.388-4.295-2.581-5.53c2.585-0.125,4.655,2.066,6.688,4.424c-1.265-2.082-3.88-3.814-1.896-6.741c2.278,0.493,3.757,4.5,5.635,6.794c-2.639-4.504-4.238-9.613-9.69-12.482l1.633-3.581l4.582,0.382c4.05,1.449,5.7,9.245,8.163,13.996c-0.879-4.689-1.298-9.302,2.265-11.112c0.87,1.107,0.746,2.52,0.737,3.897c0.438-2.805,2.279-3.938,4.529-4.582c1.776,3.704-0.002,5.699-1.791,7.689c1.561-1.134,3.009-3.177,4.898-1.685c0.011,1.649-1.6,2.588-3.107,3.634l-2.475,1.317l0.158,2.739l2.739,1.369l6.32,2.475L328.85,125.823z M358.053,114.977c6.485-3.796-2.388-5.824-1.8-10.167c1.304,0.068,2.634,0.024,3.649,1.341c-2.1-2.098-2.926-4.258-0.968-6.554c1.598,0.105,2.99,0.852,3.798,3.426c0.355-1.311,1.016-2.233,2.458-2.16c3.446,2.423,1.389,4.923,0.447,9.533c2.094-7.25,3.156-15.563,13.439-14.342c-4.394,4.352-6.709,10.102-9.864,15.161c3.076-2.287,5.817-5.048,10.502-5.065c0.306,1.144,0.423,2.316-2.681,3.947c2.257-0.562,4.54-2.007,6.703,0.521c-1.809,2.359-3.936,2.176-6.033,2.234c2.167,0.201,3.541,1.315,3.724,3.798c-6.876-1.988-8.134,0.319-17.447,0.475c2.183,0.976,5.706,2.178,6.616,4.99l0.032,3.473l-1.49,2.458l-8.565-2.607c-1.564-0.283-3.128-1.323-4.692-2.383c0.081,2.754-1.175,4.506-2.234,6.405l-8.416-7.597l5.809-5.511L358.053,114.977z" />
    <path fill="#FEC717" stroke="#000000" stroke-width="0.3581" stroke-linecap="round" d="M315.59,129.821c2.677-0.624,5.721-0.45,9.36,1.044c1.946,0.799,1.334,2.799,1.192,4.469c-0.372-0.29-0.821-0.401-1.49,0c0.045-1.527-0.991-2.746-1.564-4.096c0.449,1.44,1.457,2.88,0.819,4.32c-0.554-0.516-1.035-0.373-1.49,0c-0.322-2.786-1.654-3.101-2.83-3.798c1.458,0.958,2.635,2.005,1.936,3.649c-0.614-0.065-1.24-0.136-1.273,0.67c-1.068-1.481-2.148-2.937-3.508-3.349" />
    <g>
      <path fill="#008E8E" stroke="#000000" stroke-width="0.5964" stroke-linecap="round" stroke-linejoin="round" d="M382.345,198.682c-9.308,0.402-8.316,1.623-10.006,3.423c1.08-1.309,5.368-1.113,8.163-2.265c-3.243,1.41-4.927,3.261-5.846,5.345c2.612-1.806,4.665-3.244,7.478-4.714c-0.922,0.6-4.337,2.261-3.871,4.266c2.949-2.627,7.452-3.766,9.822-4.45L382.345,198.682z" />
      <path fill="#FFFFFF" stroke="#000000" stroke-width="0.3581" stroke-linecap="round" stroke-linejoin="round" d="M381.065,188.562c-2.168-0.037-3.775,14.252,8.216,11.744C388.623,195.236,387.898,190.202,381.065,188.562z" />
      <path fill="#ADADAD" d="M381.381,189.036c-0.602,10.207,0.692,9.816,6.978,10.059C387.853,193.999,385.746,190.343,381.381,189.036z" />
      <path fill="#FFFFFF" stroke="#000000" stroke-width="0.3581" stroke-linecap="round" stroke-linejoin="round" d="M387.88,173.896c-6.81,8.261-2.617,22.346,1.49,27.483c2.361-0.043,4.982-0.068,7.15,0.056c1.728-1.016,3.363-2.757,4.692-4.525l-1.713-20.556L387.88,173.896z" />
      <path fill="#ADADAD" d="M387.749,199.107c8.159,1.296,5.416-6.505,6.302-11.433c0.079-1.279-0.958-4.612-0.548-5.213l2.607-4.543l2.16,2.197l1.341,18.769l-3.128,2.681l-7.224-0.074L387.749,199.107z" />
      <path fill="none" stroke="#000000" stroke-width="0.3581" stroke-linecap="round" stroke-linejoin="round" d="M387.88,173.902c-6.81,8.261-2.617,22.346,1.49,27.483c2.361-0.043,4.982-0.068,7.15,0.056c1.728-1.016,3.363-2.757,4.692-4.525l-1.713-20.556L387.88,173.902z" />
      <path fill="#FFFFFF" d="M377.968,131.269c-1.983,15.613-6.697,10.629-6.418,25.77c0.289,15.666,5.506,32.832,13.406,34.782c7.647-15.842,4.965-32.622,7.448-48.933l-3.433-11.608l-6.214-1.475L377.968,131.269z" />
      <path fill="#FFF700" d="M378.078,131.05c-0.386,3.49-1.02,6.786-2.232,9.796c0.967-0.455,2.068-0.563,3.312-0.672c5.324,0.255,3.422,6.495,6.936,1.571c0.728-1.02,5.056-3.545,5.056-3.545c-0.844-2.429-1.688-5.247-2.532-7.932L378.078,131.05z" />
      <path fill="#CEEFEF" d="M372.008,163.339c5.544-4.269,5.126,3.827,14.694-1.369l-0.105,18.485c-3.599,1.825-7.198,0.349-10.796,0.369C373.967,174.995,372.318,169.167,372.008,163.339z" />
      <path fill="#A5E7E7" d="M388.229,174.346c-5.991,10.395-10.049,6.897-12.692-0.843c-0.093,2.288,0.019,4.258,0,6.372c1.596,5.492,5.591,10.916,9.427,12.218C387.223,186.705,390.759,180.262,388.229,174.346z" />
      <path fill="none" stroke="#000000" stroke-width="0.7752" stroke-linecap="round" stroke-linejoin="round" d="M373.746,163.55c3.451,7.227,7.048,7.474,10.006,3.687" />
      <path fill="#FFC618" d="M378.896,140.193c1.672-0.918,1.538-6.542,2.37-5.602c3.702,4.184,3.297-0.064,4.109,4.57c0.111,0.627,0.25,1.245,0.92,2.303C382.495,147.013,384.536,140.343,378.896,140.193L378.896,140.193z" />
      <path fill="#EFAD10" d="M379.002,140.16c5.846-1.21,2.722,1.946,7.294,1.29C382.771,146.857,384.398,140.779,379.002,140.16z" />
      <path fill="none" stroke="#000000" stroke-width="0.3581" stroke-linecap="round" stroke-linejoin="round" d="M377.977,131.163c-1.983,15.613-6.631,10.958-6.352,26.099c0.289,15.666,5.506,32.832,13.406,34.782c7.647-15.842,4.965-32.622,7.448-48.933l-3.499-11.845l-6.149-1.238L377.977,131.163z" />
      <path fill="#008C8D" stroke="#000000" stroke-width="0.3581" stroke-linecap="round" stroke-linejoin="round" d="M379.173,121.465c9.884,1.348,9.657,5.357,9.816,9.845c-0.916-0.063-2.053-0.141-3.203-0.112c-0.624,5.417-3.137,4.829-4.245,0.037h-3.575c-0.098-1.39-0.054-3.07-0.356-4.561" />
      <path fill="#EF1818" stroke="#000000" stroke-width="0.3581" stroke-linecap="round" stroke-linejoin="round" d="M377.602,126.648c-1.988-5.002-6.077-9.256-9.467-13.417c6.458,2.141,8.621,7.027,11.076,8.242" />
      <path fill="#EF1818" d="M377.703,126.428c4.37-0.349,2.174-4.055,1.452-4.783C377.192,122.853,377.28,125.356,377.703,126.428z" />
      <path d="M385.955,123.342c-0.128-0.118-0.341,0.017-0.291,0.183c0.235,0.842,0.404,1.651,0.538,2.443c-1.168-0.977-2.633-1.422-4.002-1.401c-0.628-0.078-0.868,0.064-1.271-0.177c-0.54-0.321-0.866-0.054-1.179,0.69c-0.43,1.074,0.53,1.331,0.973,1.765c0.622,3.399,3.527,3.204,5.706,0.859c0.096,1.231,0.064,2.391-0.111,3.465c-0.019,0.101,0.063,0.204,0.166,0.208l2.532,0.149c0.097,0.008,0.189-0.075,0.189-0.173C389.311,128.024,388.218,125.328,385.955,123.342z M384.657,126.487c0.037,1.732-2.66,1.641-2.693-0.01C381.986,125.462,384.621,125.547,384.657,126.487z M385.992,131.058c-0.268,2.363-1.424,4.028-2.184,3.948c-0.717,0.092-2.031-1.545-2.445-3.897c1.316,0.161,3.128,0.436,4.45-0.09C385.876,130.996,385.943,131.014,385.992,131.058z M381.05,130.468c0.459,1.128-1.311,1.212-1.142,0.187c0.044-0.466-0.437-1.402,0.301-1.467C380.927,129.067,380.89,129.936,381.05,130.468z" />
      <path fill="#DE1010" d="M376.897,122.249c0.721,1.177,1.149,2.606,1.527,4.078c1.06-0.853,1.296-0.981,1.918-2.104c-0.291-1.834-0.74-1.723-1.248-1.897C378.38,122.081,377.762,122.168,376.897,122.249z" />
      <path stroke="#000000" stroke-width="0.3581" stroke-linecap="round" stroke-linejoin="round" d="M391.113,138.508c-1.853,0.248-3.218,1.326-4.371,2.765c1.142,2.548-0.075,2.515-1.106,2.686c0.177,1.299,0.737,2.598,1.896,3.897c-1.053-0.286-2.107-0.417-3.16-0.421c1.739,1.598,2.297,3.195,3.107,4.793c-0.843-0.487-1.685-0.58-2.528-0.579c1.055,1.394,1.603,3.106,2.107,4.845l-2.054-0.105c0.677,2.241,1.287,4.905,0.612,7.279c-1.229,4.318-0.575,7.609,0.439,10.372c2.609,7.106,6.01,11.303,7.797,15.949c1.072-3.331,2.237-6.55,2.633-10.691c1.928,3.547,1.779,8.624,1.821,13.587c0.061,7.205,0.959,8.542,6.131,10.218C401.032,200.363,406.404,154.34,391.113,138.508z" />
      <path fill="#008E8E" stroke="#008E8E" stroke-width="0.1198" stroke-linecap="round" stroke-linejoin="round" d="M390.218,145.38c1.839,13.735-2.368,15.307-1.788,22.859c0.36,4.698,2.165,9.338,4.474,13.849c0.665-8.438,0.042-25.616-0.421-28.018c1.784,0.353,2.066,0.964,2.37,13.797c0.125,5.331-0.351,17.451-1.422,18.329c0,0-7.106-10.794-7.11-17.221c-0.002-2.687,1.545-8.752,1.98-14.117C388.716,149.788,387.271,146.907,390.218,145.38L390.218,145.38z M402.752,201.416c-0.894-2.372-0.859-5.961-0.997-13.265c-0.058-3.074-0.116-6.753-0.373-11.382c-0.701-12.669-3.847-31.146-10.954-36.233c0.007,1.16,0.099,2.373,1.896,4.635c-0.579-0.472-1.159-0.331-1.738-0.263c6.176,5.818,6.404,13.789,7.373,21.277c0.736,5.689,1.45,12.518,1.963,18.596C400.741,194.481,399.544,200.097,402.752,201.416L402.752,201.416z" />
    </g>
    <path fill="#003994" d="M377.655,95.94c3.621,4.211,1.862,5.781-2.212,6.214c1.189,1.728,3.793,2.779,5.372,0c1.719,1.119,1.829,3.31,2.37,5.214c1.069-1.512,3.35-1.705,1.685-5.898c2.678,0.665,2.981-0.904,3.423-2.001C383.958,100.624,383.571,95.616,377.655,95.94L377.655,95.94z M368.539,121.679c-1.71-0.043-3.343,0.088-3.95,2.528c-1.3-1.614-2.916-2.276-4.634-2.633c0.123,1.51,0.349,2.917,0.211,4.687c-1.071,0.387-2.319,0.337-3.529,0.053c3.737,6.332,16.453,5.636,14.114-4.266C370.792,132.11,363.962,125.498,368.539,121.679L368.539,121.679z M303.239,124.024c0.455,6.627,8.772,1.502,2.905-0.41c1.297-1.003,3.404-1.147,4.432,0.559c0.91-2.518,3.039-3.004,6.033-2.048c-0.744,1.318-1.262,2.67-3.24,3.798c1.142-0.024,1.971,0.263,2.719,0.633C312.264,131.59,300.512,130.311,303.239,124.024z M302.358,98.556c-8.59-3.774-14.298,1.652-15.431,6.636c1.191-0.29,2.072-0.836,2.844-1.843c-0.099,1.879,0.157,3.13,0.948,5.214c1.455-0.997,2.619-1.467,3.002-4.108c2.676,2.718,4.293-0.172,4.951-0.632C293.794,99.847,299.125,97.929,302.358,98.556z" />
    <path fill="#012169" stroke="#012169" stroke-width="0.1198" stroke-linecap="round" d="M306.237,123.565c1.567,0.282,3.746,1.43,4.767,2.86c1.297-2.017,3.216-3.32,5.605-4.245l-0.466,0.875l-0.689,1.117l-0.745,0.801l-0.708,0.577l-0.447,0.317l1.136,0.093l1.471,0.559l-2.123,1.825l-2.141,0.931l-2.7,0.391l-3.128-0.335l-1.397-0.67l-1.545-1.49l-0.372-1.154l0.168-1.322l0.335-0.708l0.298,1.527l0.875,1.359l0.875,0.447h1.154l1.099-0.503l0.521-0.726l0.056-1.117l-0.466-0.577L306.237,123.565z M316.717,115.141c-2.328-1.771-0.449-4.206,1.005-5.027c-3.28-0.479-5.831,3.995-1.862,5.772c-4.486-0.265-5.643,0.369-6.517,1.08c0.856,2.508,6.042,2.25,9.161,0.931c-1.045,0.78-1.636,1.913-1.788,3.389c3.551,0.047,4.605-1.826,5.958-3.538L316.717,115.141z M377.892,101.733c1.105-0.372,2.162-0.814,2.818-1.843c0.947,0.576,1.758,1.97,2.607,3.134c-0.174-0.799-0.653-1.598-0.421-2.396l2.133,1.106c-0.642-0.932-1.821-1.649-0.816-3.239l-1.949-1.448l-2.107-0.895c-0.805-0.142-1.611-0.177-2.416-0.217l1.152,1.692c0.292,0.478,0.619,0.933,0.658,1.58l-0.105,0.948c0.024,0.283-0.043,0.533-0.316,0.711L377.892,101.733z M366.906,124.812c-0.954,2.982-2.182,3.811-3.976,0.211c-0.269,1.832-1.2,1.751-2.08,1.817l4.714,3.502l1.369-0.303l1.002-0.406l1.131-0.713c0.595-0.561,0.802-1.281,1.225-1.91l0.568-2.171l-0.305-2.87l0.039,2.686l-0.369,1.238c-0.154,0.36-0.321,0.71-0.579,1.001c-0.255,0.233-0.526,0.39-0.816,0.448l-0.816-0.263l-0.711-0.79L366.906,124.812z M292.167,98.424c0.013,1.299-0.154,2.598-0.421,3.897c1.034-1.886,3.096-1.374,4.924-1.409l0.369-1.106l1.461-0.922l1.501-0.355l2.37,0.105l-1.949-0.79l-2.725-0.5l-2.357,0.039l-2.028,0.5L292.167,98.424z" />
    <path fill="#003994" stroke="#003994" stroke-width="0.1198" stroke-linecap="round" d="M309.411,116.891c2.301,1.156,7.784,0.453,12.184,0.447l-3.947-1.713l-1.806,0.242l-3.035-0.074c-0.947,0.105-1.826,0.345-2.7,0.596L309.411,116.891z M314.65,115.122c-0.792-2.815,0.649-4.561,3.035-5.057l-1.452,0.085c-0.682,0.296-1.253,0.723-1.788,1.192l-0.577,1.341l-0.074,1.024L314.65,115.122z" />
    <path fill="none" stroke="#000000" stroke-width="0.3581" stroke-linecap="round" stroke-linejoin="round" d="M377.655,95.94c3.621,4.211,1.862,5.781-2.212,6.214c1.189,1.728,3.793,2.779,5.372,0c1.719,1.119,1.829,3.31,2.37,5.214c1.069-1.512,3.35-1.705,1.685-5.898c2.678,0.665,2.981-0.904,3.423-2.001C383.958,100.624,383.571,95.616,377.655,95.94L377.655,95.94z M368.539,121.679c-1.71-0.043-3.343,0.088-3.95,2.528c-1.3-1.614-2.916-2.276-4.635-2.633c0.123,1.51,0.349,2.917,0.211,4.687c-1.071,0.387-2.319,0.337-3.529,0.053c3.737,6.332,16.267,5.636,13.928-4.266C370.605,132.11,363.962,125.498,368.539,121.679L368.539,121.679z M303.239,124.024c0.455,6.627,8.772,1.503,2.905-0.41c1.297-1.003,3.404-1.147,4.432,0.559c0.91-2.518,3.039-3.004,6.033-2.048c-0.744,1.318-1.262,2.67-3.24,3.798c1.142-0.024,1.971,0.263,2.719,0.633C312.264,131.59,300.512,130.311,303.239,124.024z M316.717,115.141c-2.328-1.771-0.449-4.206,1.005-5.027c-3.28-0.479-5.831,3.995-1.862,5.772c-4.486-0.265-5.643,0.369-6.517,1.08c0.856,2.508,6.042,2.25,9.161,0.931c-1.045,0.78-1.636,1.913-1.788,3.389c3.551,0.048,4.605-1.826,5.958-3.538L316.717,115.141z M302.239,98.595c-8.59-3.774-14.18,1.613-15.312,6.596c1.191-0.29,2.072-0.836,2.844-1.843c-0.099,1.879,0.157,3.13,0.948,5.214c1.455-0.997,2.619-1.467,3.002-4.108c2.676,2.718,4.293-0.172,4.951-0.632C293.794,99.847,299.007,97.968,302.239,98.595L302.239,98.595z" />
    <g>
      <path stroke="#000000" stroke-width="0.3581" stroke-linecap="round" stroke-linejoin="round" d="M329.022,127.696l-1.297,8.268l9.006,2.107l4.371-7.373l4.266-1.949l5.451-0.416l4.242,2.439c-1.469-3.488-2.028-5.47-5.508-7.131l-0.149-15.268l-4.618-4.096l-16.013-0.074c-3.553,4.073-8.217,7.073-12.773,10.129c-1.145,0.768-0.576,1.54,0.036,1.733C321.222,117.692,326.737,120.753,329.022,127.696L329.022,127.696z" />
      <path fill="#A5E7E7" d="M334.382,131.329c2.136-2.105,4.412-4.085,7.314-5.424l-4.096-9.086h-8.416l4.767,8.118l-1.771,0.811" />
      <path fill="#CEEFEF" d="M332.143,118.266c1.272-0.012,2.545,0.036,3.817,0.023l2.979,7.429l-2.942,1.825C335.294,124.264,333.463,121.326,332.143,118.266z" />
      <path fill="#FFFFFF" d="M334.024,118.276l1.974-0.005l2.979,7.411l-1.601,1.005C336.414,123.649,335.379,120.724,334.024,118.276z" />
      <path fill="#CEEFEF" d="M334.691,131.678c1.143-1.163,2.797-2.788,4.529-3.875c0.898,0.266,1.594,0.78,2.424,1.319c-2.136,1.343-3.893,2.959-4.977,5.214C335.902,133.482,335.249,132.739,334.691,131.678z" />
      <path fill="#CEEFEF" d="M347.806,124.123l-3.871-0.005c0.036,1.388,0.781,2.474,2.212,3.213c2.456-0.601,4.224-0.337,5.688,0.079C350.513,126.185,349.196,124.939,347.806,124.123z" />
      <path fill="#00C0DD" d="M350.439,124.171l-2.789-0.05c1.452,0.866,2.606,2.024,3.711,3.237c1.148,0.351,2.148,1.29,3.16,2.186C353.333,126.457,351.983,125.099,350.439,124.171z" />
      <path fill="#FEF600" d="M346.239,127.358l-1.713,0.559c-2.548-2.072-3.338-8.751-4.506-14.319l1.899-0.242C342.429,114.796,342.638,123.73,346.239,127.358z M343.725,109.594l-1.713,0.652v2.625l1.694-0.708L343.725,109.594z" />
      <path fill="#797979" d="M341.807,107.211l-0.782,5.437l-4.692,0.372l2.383-5.884L341.807,107.211z" />
      <path fill="#CEEFEF" d="M334.903,110.426l-7.9-0.072c1.135-2.337,3.457-3.846,6.509-4.598c0.249-0.137,0.17-0.408,0-0.46l-6.166,0.365l1.448-1.475l6.557,0.026l0.003,3.055L334.903,110.426z" />
      <path fill="#FFFFFF" d="M328.848,108.002l2.085,2.113l-3.975-0.019C327.607,109.081,328.067,108.623,328.848,108.002z" />
      <path fill="#FFFFFF" d="M339.349,107.509c-0.039,2.3-0.695,3.932-2.234,5.102l-2.421,0.261l-0.186-5.102L339.349,107.509z" />
      <path fill="#940010" stroke="#000000" stroke-width="0.3581" stroke-linecap="round" stroke-linejoin="round" d="M320.432,112.276l13.332,0.261l-0.186,0.857l-15.231,1.192L320.432,112.276z" />
      <path fill="#494949" d="M322.601,109.985l11.963,0.009l-0.019,1.071l-12.252,0.019L322.601,109.985z" />
      <path fill="#FEF600" stroke="#000000" stroke-width="0.3581" stroke-linecap="round" stroke-linejoin="round" d="M315.963,116c8.675-0.267,17.069-1.377,25.323-2.905l-0.019-1.806c-1.405,0.343-3.849,0.718-5.53,0.838l-0.074-3.761l5.958-0.447l0.745-1.639l-9.273,0.67l0.071,1.527c0.666,0.596,0.771,2.234,0.13,2.792l0.059,1.267c-4.651,0.708-9.192,1.088-13.704,1.378l5.027-4.078l-2.094-0.032c-2.181,1.584-4.533,3.181-6.719,4.608c-0.147,0.124-0.22,0.205-0.346,0.349c-0.147,0.165-0.174,0.389-0.113,0.605C315.525,115.643,315.738,115.827,315.963,116L315.963,116z" />
      <path fill="none" stroke="#000000" stroke-width="0.3581" stroke-linecap="round" stroke-linejoin="round" d="M328.899,124.356l0.843,2.423l-2.054,9.216l9.006,2.107l4.371-7.373l4.266-1.949l5.451-0.416l4.242,2.439c-1.469-3.488-2.028-5.47-5.508-7.131l-0.149-15.268l-4.618-4.096l-16.013-0.074c-3.536,4.032-8.174,7.063-12.773,10.129c-0.943,0.629-0.519,1.379,0.023,1.601c2.416,0.99,6.389,0.853,9.622,2.942C328.837,120.991,328.899,124.356,328.899,124.356L328.899,124.356z" />
      <path fill="#FEF600" stroke="#000000" stroke-width="0.3581" stroke-linecap="round" stroke-linejoin="round" d="M328.959,127.544c-1.216,0.314-3.75,7.138-3.154,9.073c0.442,0.719,1.562,1.545,3.675,1.652c-1.003,0.913-1.711,2.19-2.155,3.243c1.915,1.461,2.652,1.784,6.144,2.142c0.256-1.04,0.586-2.66,0.479-4.491c1.217,0.301,2.433,0.581,3.65,0.298c1.244-7.908,14.219-14.915,17.844-5.788c0.147-12.46-17.786-6.095-19.334,2.884l-7.076-0.894C330.09,132.956,330.283,130.25,328.959,127.544L328.959,127.544z" />
      <path fill="#FFC918" stroke="#000000" stroke-width="0.3581" stroke-linecap="round" stroke-linejoin="round" d="M332.12,125.579l-5.283-8.649c-1.855,0.019-6.499,0.028-8.408-0.071c-1.609-0.528,0.295,0.002-2.355-0.86c12.81,4.524,12.018,11.607,15.268,18.396c1.024-1.005,2.083-1.906,3.105-2.914" />
      <path fill="none" stroke="#000000" stroke-width="0.3581" stroke-linecap="round" stroke-linejoin="round" d="M330.961,135.962c-0.159,1.813-0.712,3.535-1.29,5.069 M332.949,136.251c0.037,1.529-0.552,3.912-1.027,5.345" />
    </g>
    <path fill="#003994" d="M351.455,105.639c0.147,11.174,9.073,5.883,10.322,11.85c-2.318,1.375-4.774,0.784-7.373-1.843c2.298,2.2,3.144,4.839,2.423,7.952c-2.178-0.647-4.761-0.456-4.793-5.53c-0.432,2.315-0.61,4.77-3.002,6.004c-1.954-3.21-2.291-7.113-0.316-12.008c-1.312,1.873-2.578,3.81-4.845,4.319c-0.356-3.591-0.435-5.757,3.792-10.164c-1.558,1.78-2.937,3.828-5.846,3.581c-0.235-2.429,0.291-4.503,2.159-5.951L351.455,105.639z" />
    <path fill="#012169" d="M342.133,106.456c1.698,0.149,5.448-1.346,5.161,3.028c-0.066,1.008-0.378,1.975-1.027,2.765c1.409-0.997,2.203,0.178,3.002,2.633c0.51,1.57,0.237,3.95,0.237,3.95c0.359-1.497,0.597-2.723,2.736-1.766c0.891,0.399,1.625,2.053,2.873,3.609c-0.791-1.676-1.629-3.353-0.711-5.029c1.948,2.145,4.987,3.293,7.32,1.843c-0.881-1.053-4.541-0.087-6.109-2.238c0.952-0.805,2.076-0.752,3.16-0.895l-2.949-0.948l-1.369-0.685l-1.606-1.396l-0.895-1.817l-0.632-3.897l-7.426-1.764C342.728,104.807,342.406,105.635,342.133,106.456z" />
    <path fill="none" stroke="#000000" stroke-width="0.3581" stroke-linecap="round" stroke-linejoin="round" d="M351.455,105.639c0.147,11.174,9.073,5.883,10.322,11.85c-2.318,1.375-4.774,0.784-7.373-1.843c2.298,2.2,3.144,4.839,2.423,7.952c-2.178-0.647-4.761-0.456-4.793-5.53c-0.432,2.315-0.61,4.77-3.002,6.004c-1.954-3.21-2.291-7.113-0.316-12.008c-1.312,1.873-2.578,3.81-4.845,4.319c-0.356-3.591-0.435-5.757,3.792-10.164c-1.558,1.78-2.937,3.828-5.846,3.581c-0.235-2.429,0.291-4.503,2.159-5.951L351.455,105.639z" />
    <path fill="#FFFFFF" d="M326.917,100.755c-6.644,0.303-6.911,9.982,1.043,5.176c3.991-2.415,14.14-1.19,19.141-0.037c7.831,1.806,7.64-2.678,2.272-4.729C344.604,99.343,332.348,100.508,326.917,100.755z" />
    <path fill="#003994" d="M333.285,104.591l-2.532-4.022c-1.774-0.07-3.863-0.12-5.567,0.503l3.296,4.599 M343.228,105.168l-1.788-5.009l-5.642,0.037l2.421,4.45 M346.84,100.532c3.974,0.482,6.401,2.811,6.358,4.244c-0.035,1.191-2.083,2.151-6.098,1.109L346.84,100.532z" />
    <path fill="none" stroke="#000000" stroke-width="0.3581" stroke-linecap="round" stroke-linejoin="round" d="M326.917,100.755c-6.644,0.303-6.911,9.982,1.043,5.176c3.991-2.415,14.14-1.19,19.141-0.037c7.831,1.806,7.64-2.678,2.272-4.729C344.604,99.343,332.348,100.508,326.917,100.755z" />
    <g>
      <path fill="none" stroke="#878383" stroke-width="0.2383" stroke-linecap="round" stroke-linejoin="round" d="M338.208,98.151c4.603-5.342,8.739-11.593,11.007-16.958c1.501,1.826,3.506,2.82,6.32,2.581c-0.826,5.07-2.322,9.832-4.055,14.483 M316.401,95.593l10.089-8.027 M312.985,93.976c5.468-3.279,9.742-6.907,13.532-10.676 M326.569,84.985c2.189,4.447,3.839,8.997,7.742,13.114 M326.727,83.669c2.982,4.964,5.325,10.173,10.006,14.483 M329.203,97.888c2.957-3.07,5.993-6.117,8.479-9.322 M337.682,81.931c-1.64,3.095-6.389,7.629-10.981,10.428 M337.734,86.197c-3.335,3.494-7.172,6.548-11.06,9.559 M352.954,97.993c-5.308-6.239-10.227-12.651-14.904-19.17c3.602,6.61,7.185,13.223,11.744,19.697 M337.945,78.771c2.87,6.565,5.261,13.22,9.164,19.591 M355.535,83.721c0.433,2.942,0.676,5.931,1.633,8.742" />
      <path fill="#FFFFFF" stroke="#847B7B" stroke-width="0.5601" d="M342.016,95.501h5.291v2.489h-5.291V95.501z M332.497,95.5h5.348v2.559h-5.348V95.5z" />
      <path fill="#FFF6C7" stroke="#514B4B" stroke-width="0.5601" d="M342.582,92.547h1.806v2.964h-1.806V92.547z" />
      <path fill="#EBB927" d="M310.719,92.633l11.454,5.552l-0.24,0.495l-11.454-5.552C310.39,92.847,310.485,92.692,310.719,92.633z M358.897,91.811l-9.406,3.636v-8.308l6.471-3.402c0.026-0.138-0.044-0.275-0.172-0.316l-6.299,3.311v-5.697c-0.167-0.125-0.404-0.11-0.55,0V98.52h0.55v-2.536l9.584-3.705C359.184,92.114,359.104,91.865,358.897,91.811z M326.83,93.585v-3.198l3.175,1.013c0.135-0.069,0.172-0.338,0.167-0.524l-3.343-1.066v-1.881l3.175,1.013c0.131-0.1,0.181-0.321,0.167-0.524l-3.343-1.066V83.61l3.175,1.012c0.122-0.128,0.182-0.331,0.167-0.524l-3.343-1.066v-4.455c-0.167-0.141-0.404-0.124-0.55,0v4.28l-3.807-1.214c-0.183,0.154-0.213,0.32-0.168,0.524l3.974,1.267v3.742l-3.807-1.214c-0.138,0.12-0.22,0.287-0.168,0.524l3.974,1.267v1.881l-3.807-1.214c-0.144,0.108-0.199,0.33-0.168,0.524l3.974,1.267v3.237l-5.961-1.478c-0.148,0.137-0.188,0.353-0.133,0.534l6.093,1.511v4.252h0.55v-4.115l4.92,1.22c0.137-0.113,0.181-0.321,0.133-0.534L326.83,93.585z M338.133,88.214v-1.702l3.914,1.06c0.148-0.104,0.226-0.309,0.144-0.531l-4.059-1.099v-3.936l3.914,1.06c0.125-0.107,0.2-0.323,0.144-0.531l-4.059-1.099v-3.998c-0.176-0.148-0.426-0.131-0.579,0v3.841l-4.742-1.284c-0.155,0.123-0.195,0.318-0.144,0.531l4.886,1.323v3.936l-4.742-1.284c-0.166,0.108-0.233,0.328-0.144,0.531l4.886,1.323v1.702l-4.742-1.284c-0.196,0.106-0.231,0.359-0.144,0.531l4.886,1.323v9.596h0.579v-9.439l3.914,1.06c0.164-0.092,0.241-0.295,0.144-0.531L338.133,88.214z" />
      <path fill="#012169" d="M359.527,84.71c0.036,0.658,0.096,1.382,0.111,2.099c-1.425-1.423-2.418-0.463-4.171-0.697c-0.035-0.433,0.012-1.774-0.011-2.098C359.518,84.038,358.208,83.398,359.527,84.71z" />
      <path fill="#FFFFFF" d="M357.387,84.338h-0.428l0.428-0.214v-0.108h-0.216l-0.589,0.295v-0.295h-0.322v0.295l-0.59-0.295h-0.216v0.108l0.428,0.214h-0.428v0.322h0.428l-0.428,0.214v0.108l0,0h0.216l0.59-0.295v0.295h0.322v-0.295l0.59,0.295h0.216v-0.108l-0.428-0.214h0.428v-0.322H357.387z" />
      <path fill="#C8102E" d="M356.242,84.66l-0.645,0.322h-0.144l0,0l0.645-0.322H356.242z M355.954,84.338h0.144l-0.645-0.322v0.072L355.954,84.338z M356.517,84.983v-0.387h0.87v-0.193h-0.87v-0.387h-0.193v0.387h-0.87v0.193h0.87v0.387H356.517z M357.387,84.016h-0.144l-0.645,0.322h0.144L357.387,84.016z M356.887,84.66h-0.144l0.645,0.322V84.91L356.887,84.66z" />
      <path fill="#000000" stroke="#000000" stroke-width="0.0604" stroke-linecap="round" stroke-linejoin="round" d="M319.717,97.607h37.546v3.519l-33.916-0.037L319.717,97.607z" />
      <path fill="#424242" stroke="#424242" stroke-width="0.0434" stroke-linecap="round" d="M322.394,99.401h34.186v0.554h-34.186V99.401z" />
      <path fill="#949494" stroke="#949494" stroke-width="0.0434" stroke-linecap="round" d="M322.394,98.787h34.186v0.554h-34.186V98.787z" />
    </g>
  </g>
</svg>
