<svg xmlns="http://www.w3.org/2000/svg" width="450px" height="300px" viewBox="0 0 450 300">
  <path fill="#009EDB" d="M0,0h450v300H0V0z" />
  <path fill="#FFFFFF" d="M110.864,144.278c-2.451-4.904-2.451-4.904-2.451-9.807c-1.226,0-1.456,0.23-2.165,0.037c-0.709-0.191-0.977,4.522-3.276,3.602c-0.383-0.46,1.648-3.869-0.555-5.286c-0.709-0.461,0.172-3.258-0.134-4.484c0,0-2.796,1.455-4.903-3.677c-1.035-1.342-2.452,1.225-2.452,1.225s0.613,1.571-0.498,1.954c-1.571-1.15-2.721-0.547-4.712-2.127c-1.992-1.58,0.422-3.39-3.371-4.731c2.452-6.129,2.452-4.904,8.581-7.355c-3.678-2.452-3.678-2.452-6.129-6.13c-3.678-1.226-4.904-2.451-8.582-4.903c-4.903-6.13-7.355-18.389-7.355-26.97c3.103-2.874,7.355,9.807,13.485,13.485l8.581,3.678c4.903,2.452,6.129,4.903,9.807,7.355l11.033,3.678c4.903,3.677,7.355,8.581,11.033,9.807c3.984,0,4.752-2.295,6.029-2.438c7.207-0.37,10.885-1.298,12.322-3.463c1.455-1.724,4.942,0.996,14.749-2.681l-1.225-4.904c0,0,2.605-2.145,6.129-1.226c-0.096-2.241-0.326-8.217,3.146-10.914c-2.108-2.212-0.694-3.797-0.694-3.797s1.954-1.877,2.183-2.874c-1.034-5.402,0.897-5.485,1.33-7.075c0.432-1.589-1.668-1.045-1.075-3.235c0.591-2.191,4.143-2.711,4.618-4.516c0.477-1.805-1.013-2.71-0.927-3.141c0.766-1.724,0.116-5.785,0-7.356c6.59-1.762,8.735-7.126,11.033-4.904c1.226-7.356,2.452-9.808,9.807-9.808c1.035-2.26-2.682-4.176-1.226-4.904c2.452-0.306,4.329-0.153,7.204,3.563c0.907,1.178,1.072-1.724,1.991-2.031c0.919-0.306,3.12-0.311,3.447-1.762c0.346-1.494,0.844-3.448,2.07-5.9c1.034-1.992,1.839,0.766,2.758,4.674c5.173,0.191,16.857,1.341,21.76,2.682c3.678,0.958,6.13-0.958,9.654-1.341c2.605,2.605,5.057,0.651,6.436,6.206c1.947,2.997,5.133,0.268,5.823,1.149c4.1,11.302,18.198,3.678,19.27,3.869c1.8,0,3.999,5.053,5.416,4.928c2.303-0.388,1.651-1.959,3.663-1.326c-0.537,4.252,3.947,9.156,3.947,12.336c0,0,1.091,0.536,2.102-0.407c1.01-0.943,1.939-3.366,2.839-3.309c2.145,0.307,3.015,0.582,5.487,1.014c6.647,2.271,10.033,2.783,12.615,3.947c1.201,2.198,2.365,3.324,4.799,2.913c2.012,1.351,0.544,3.121,1.732,3.236c2.452-1.226,3.256-2.567,5.708-1.341c2.452,1.226,4.904,3.678,6.13,6.13c0,1.225-1.226,6.129,0,13.485c0.613,2.452,0.91,4.396,3.544,8.601c-0.7,4.32,3.314,11.589,3.314,13.428c0,2.451-1.954,3.716-3.18,6.168c4.904,3.678,0,9.807-2.451,13.485c18.389,3.678,9.807,11.033,24.518,7.355c-3.678,8.581-2.376,7.893,1.302,16.474c-7.356,4.904-0.152,6.397-5.056,12.527c-0.307,0.383,2.91,5.326,7.432,5.326c-1.226,9.807-4.904,6.129-3.678,20.841c-9.654-0.191-5.747,10.995-12.259,9.807c0.383,7.011,3.716,7.624,2.452,14.711c-4.903,1.226-4.903,1.226-7.355,4.904l-3.678-1.226c-1.226,6.129-3.677,7.355,0,13.485c0,0-4.75,0.153-6.129,0c-0.116,2.107,2.107,2.682,2.452,4.903c-0.192,0.881-6.973,4.75-12.259,4.904c-1.379,3.027,3.677,6.245,3.371,7.777c-5.747,1.11-8.275,8.16-8.275,8.16s2.95,1.188,2.452,2.452c-1.57-1.15-2.452-1.226-4.903-1.226c-1.226,0.307-4.214-0.075-7.079,4.76c-3.145,1.037-4.629,0.662-7.014,3.817c-1.056-3.005-2.575,0.028-4.432,1.194c-1.856,1.167-4.355,4.069-4.691,3.945c0.077-0.844,1.15-3.908,1.15-3.908l-6.13,1.226c0,0-0.273,0.027-0.755,0.076c-0.482,0.048-0.353-3.578-1.515-3.447c-1.161,0.132-4.485,4.56-5.618,4.699c-1.131,0.138-1.489-1.409-2.464-1.274c-0.974,0.135-2.875,4.671-3.565,4.791c-0.69,0.12-3.428-2.757-5.774-2.355c-12.068,4.253-13.984-8.389-15.861-1.263c-2.528-1.342-2.09-0.563-4.66,0.11c-1.639,0.423-1.789-2.167-3.246-2.127c-2.917,0.082-2.764,2.841-4.354,2.017c-1.302-5.747-9.157-4.713-9.922-7.164c-0.623-2.557,3.403-2.545,4.705-4.277c0.996-2.5-1.04-3.449,3-5.86c5.265-3.561,2.239-4.905,3.161-7.581c1.651-3.864,1.661-4.808,0.282-8.217c0,0-4.1-11.033-4.904-11.033c-2.451-0.689-2.451,4.06-6.053,5.364c-7.355,2.451-20.342-6.207-22.603-6.207c-2.068,0.039-11.649,2.269-11.287-2.508c-1.432,4.645-6.7,1.091-7.025,1.091c-4.904,0-3.027,3.793-6.322,3.639c-1.495-0.498-16.588-1.379-16.588-1.379v2.452l-9.807-4.904l-8.581-2.451c-7.355-2.452-3.677-8.582-15.937-4.904v-7.355h-6.129c2.451-14.712,0-7.355-1.226-20.841l-4.904,1.226c-4.903-6.628,6.819-5.364-3.677-9.807c0,0,0.191-7.318-2.452-4.904c-0.536,0.307,1.226,3.678,1.226,3.678c-9.807-1.226-12.259-3.678-12.259-13.485c0,0,8.084,1.15,7.355,0c-1.149-1.839-2.643-13.792-2.375-14.596c-0.115-1.609,7.509-5.67,6.034-9.54C108.106,144.315,110.864,144.278,110.864,144.278 M360.264,182.923c-0.002,0-0.004,0-0.006,0c-0.255-0.002-0.491-0.132-0.629-0.347c-0.526-0.817-0.575-1.901-0.131-2.901c0.132-0.295,0.439-0.468,0.758-0.446c0.322,0.028,0.59,0.259,0.667,0.573c0.031,0.128,0.088,0.262,0.148,0.405c0.217,0.517,0.544,1.298-0.177,2.379C360.753,182.797,360.516,182.923,360.264,182.923z M80.959,110.018c-0.287,0-0.553-0.164-0.68-0.426c-0.411-0.846-0.749-1.093-0.876-1.186c-0.087-0.063-0.217-0.159-0.307-0.338c-0.113-0.226-0.106-0.493,0.019-0.713c0.125-0.219,0.351-0.362,0.603-0.38c0.11-0.007,1.093-0.057,1.682,0.649c0.265,0.317,0.531,0.891,0.292,1.825c-0.079,0.307-0.341,0.533-0.657,0.565C81.009,110.017,80.984,110.018,80.959,110.018z M70.83,91.783c-0.025,0-0.051-0.001-0.076-0.004c-0.316-0.032-0.578-0.258-0.657-0.565c-0.227-0.887,0.044-1.436,0.311-1.74c0.66-0.751,1.838-0.631,1.969-0.615c0.243,0.03,0.457,0.176,0.574,0.392c0.116,0.216,0.12,0.475,0.012,0.695c-0.135,0.272-0.371,0.368-0.498,0.419c-0.191,0.078-0.589,0.239-0.955,0.993C71.382,91.619,71.117,91.783,70.83,91.783z M70.83,88.028c-0.025,0-0.051-0.001-0.076-0.004c-0.316-0.032-0.578-0.258-0.657-0.565c-0.193-0.754-0.126-1.331,0.206-1.763c0.497-0.648,1.354-0.659,2.043-0.667c0.112-0.001,0.224-0.003,0.333-0.007c0.272-0.009,0.519,0.121,0.663,0.345c0.145,0.224,0.161,0.508,0.042,0.747c-0.146,0.296-0.409,0.384-0.583,0.443c-0.304,0.102-0.937,0.316-1.291,1.045C71.382,87.864,71.117,88.028,70.83,88.028z" />
</svg>
