<svg xmlns="http://www.w3.org/2000/svg" width="450px" height="300px" viewBox="0 0 450 300">
  <path fill="#74ACDF" d="M0,0h450v300H0V0z" />
  <path fill="#FFFFFF" d="M0,100h450v100H0V100z" />
  <path fill="#F6B40E" stroke="#85340A" stroke-width="0.667" d="M265.9,149.5l-26.1-1c5-0.2,8-3.2,12.7-2.8c5.1,0.5,7.9-2.3,9.9-3c2-0.6,3.1,0.7,3.4,0.1c0.3-0.6-1.3-1.8-4.1-1.4c-2.8,0.4-3.6,2.5-9.8,2c-5.6-0.5-7.3,2-11.9,1.9l22.9-10.5c0,0,0.7-0.3,0.5-0.8s-0.9-0.2-0.9-0.2l-24.5,9.1c4.5-2.1,6.2-6.1,10.7-7.5c4.8-1.5,6.4-5.2,8-6.5c1.6-1.3,3.2-0.6,3.2-1.2c0-0.6-1.9-1.2-4.3,0.2c-2.4,1.4-2.4,3.7-8.3,5.6c-5.4,1.7-6,4.7-10.3,6.3l17.2-18.5c0,0,0.5-0.5,0.2-0.9c-0.4-0.4-0.9,0.2-0.9,0.2l-19.2,17.8c3.4-3.7,3.4-7.9,7-11c3.9-3.3,4-7.2,4.9-9.1c0.9-1.8,2.7-1.7,2.5-2.3c-0.2-0.6-2.2-0.4-3.9,1.9s-0.8,4.4-5.5,8.4c-4.3,3.7-3.7,6.6-7.1,9.8l8.8-23.7c0,0,0.3-0.7-0.2-0.9c-0.5-0.2-0.8,0.5-0.8,0.5l-10.9,23.8c1.7-4.7,0.1-8.6,2.3-12.8c2.4-4.5,0.9-8.2,1-10.3c0.2-2.1,1.8-2.6,1.4-3.1c-0.4-0.5-2.2,0.5-2.9,3.2s1,4.3-1.9,9.8c-2.6,5-0.9,7.6-2.8,11.7l-0.9-25.2c0,0,0-0.8-0.5-0.8s-0.5,0.8-0.5,0.8l-1,26.1c-0.2-5-3.2-8-2.8-12.7c0.5-5.1-2.3-7.9-3-9.9c-0.6-2,0.7-3.1,0.1-3.4c-0.6-0.3-1.8,1.3-1.4,4.1c0.4,2.8,2.5,3.6,2,9.8c-0.5,5.6,2,7.3,1.9,11.9l-10.3-23c0,0-0.3-0.7-0.8-0.5s-0.2,0.9-0.2,0.9l9.1,24.5c-2.1-4.5-6.1-6.2-7.5-10.7c-1.5-4.8-5.2-6.4-6.5-8s-0.6-3.2-1.2-3.2c-0.6,0-1.2,1.9,0.2,4.3s3.7,2.4,5.6,8.3c1.7,5.4,4.7,6,6.3,10.3l-18.5-17.2c0,0-0.5-0.5-0.9-0.2c-0.4,0.4,0.2,0.9,0.2,0.9l17.8,19.2c-3.7-3.4-7.9-3.4-11-7c-3.3-3.9-7.2-4-9.1-4.9c-1.8-0.9-1.7-2.7-2.3-2.5s-0.4,2.2,1.9,3.9c2.3,1.7,4.4,0.8,8.4,5.5c3.7,4.3,6.6,3.7,9.8,7.1l-23.7-8.8c0,0-0.7-0.3-0.9,0.2s0.5,0.8,0.5,0.8l23.8,10.9c-4.7-1.7-8.6-0.1-12.8-2.3c-4.5-2.4-8.2-0.9-10.3-1c-2.1-0.2-2.6-1.8-3.1-1.4c-0.5,0.4,0.5,2.2,3.2,2.9s4.3-1,9.8,1.9c5,2.6,7.6,0.9,11.7,2.8l-25.2,0.9c0,0-0.8,0-0.8,0.5s0.8,0.5,0.8,0.5l26.1,1c-5,0.2-8,3.2-12.7,2.8c-5.1-0.5-7.9,2.3-9.9,3c-2,0.6-3.1-0.7-3.4-0.1c-0.3,0.6,1.3,1.8,4.1,1.4c2.8-0.4,3.6-2.5,9.8-2c5.6,0.5,7.3-2,11.9-1.9l-23,10.4c0,0-0.7,0.3-0.5,0.8s0.9,0.2,0.9,0.2l24.5-9.1c-4.5,2.1-6.2,6.1-10.7,7.5c-4.8,1.5-6.4,5.2-8,6.5s-3.2,0.6-3.2,1.2c0,0.6,1.9,1.2,4.3-0.2c2.4-1.4,2.4-3.7,8.3-5.6c5.4-1.7,6-4.7,10.3-6.3l-17.2,18.5c0,0-0.5,0.5-0.2,0.9c0.4,0.4,0.9-0.2,0.9-0.2l19.2-17.8c-3.4,3.7-3.4,7.9-7,11c-3.9,3.3-4,7.2-4.9,9.1c-0.9,1.8-2.7,1.7-2.5,2.3s2.2,0.4,3.9-1.9c1.7-2.3,0.8-4.4,5.5-8.4c4.3-3.7,3.7-6.6,7.1-9.8l-8.8,23.7c0,0-0.3,0.7,0.2,0.9s0.8-0.5,0.8-0.5l10.9-23.8c-1.7,4.7-0.1,8.6-2.3,12.8c-2.4,4.5-0.9,8.2-1,10.3c-0.2,2.1-1.8,2.6-1.4,3.1c0.4,0.5,2.2-0.5,2.9-3.2s-1-4.3,1.9-9.8c2.6-5,0.9-7.6,2.8-11.7l0.9,25.2c0,0,0,0.8,0.5,0.8s0.5-0.8,0.5-0.8l1-26.1c0.2,5,3.2,8,2.8,12.7c-0.5,5.1,2.3,7.9,3,9.9c0.6,2-0.7,3.1-0.1,3.4c0.6,0.3,1.8-1.3,1.4-4.1c-0.4-2.8-2.5-3.6-2-9.8c0.5-5.6-2-7.3-1.9-11.9l10.5,22.9c0,0,0.3,0.7,0.8,0.5s0.2-0.9,0.2-0.9l-9.1-24.5c2.1,4.5,6.1,6.2,7.5,10.7c1.5,4.8,5.2,6.4,6.5,8s0.6,3.2,1.2,3.2c0.6,0,1.2-1.9-0.2-4.3c-1.4-2.4-3.7-2.4-5.6-8.3c-1.7-5.4-4.7-6-6.3-10.3l18.5,17.2c0,0,0.5,0.5,0.9,0.2c0.4-0.4-0.2-0.9-0.2-0.9l-17.8-19.2c3.7,3.4,7.9,3.4,11,7c3.3,3.9,7.2,4,9.1,4.9c1.8,0.9,1.7,2.7,2.3,2.5c0.6-0.2,0.4-2.2-1.9-3.9c-2.3-1.7-4.4-0.8-8.4-5.5c-3.7-4.3-6.6-3.7-9.8-7.1l23.7,8.8c0,0,0.7,0.3,0.9-0.2c0.2-0.5-0.5-0.8-0.5-0.8l-23.8-10.9c4.7,1.7,8.6,0.1,12.8,2.3c4.5,2.4,8.2,0.9,10.3,1c2.1,0.2,2.6,1.8,3.1,1.4c0.5-0.4-0.5-2.2-3.2-2.9s-4.3,1-9.8-1.9c-5-2.6-7.6-0.9-11.7-2.8l25.2-0.9c0,0,0.8,0,0.8-0.5C266.7,149.5,265.9,149.5,265.9,149.5z" />
  <path fill="#85340A" d="M228.6,164.7c-0.2,5.8,3,8.8,1.7,12.7c0.6-5-2.5-7.4-2.7-12.8L228.6,164.7z M219.4,177.4c2.7-3.1,0.9-7.1,3.3-12.4l-1-0.5C220,169.6,221.9,173,219.4,177.4z M225.8,154.4l9.9,21.6l-9.8-26.3l-0.9,0.4l0,0l0,0l-0.7-0.7L205.2,170l17.4-16.2l-8.3,22.3l9.9-21.6l0.9,23.8L225.8,154.4z M216.5,162.2c-3.6,4-3.2,7.9-7.1,11c3.7-1.8,3.6-6.2,7.8-10.2L216.5,162.2z M212.5,158c-4.9,2.3-6,6.1-10.8,7.4c4.1-0.3,5.7-4.4,11.1-6.4L212.5,158z M197.6,155.3c5,0.6,7.4-2.5,12.8-2.7l-0.1,1.1C204.5,153.5,201.5,156.7,197.6,155.3z M224.9,150L224.9,150l0.8-0.8l-20.6-19.1l16.2,17.4l-22.3-8.3l21.6,9.9l-23.8,0.9l23.8,0.9l-21.6,9.9l26.3-9.8L224.9,150L224.9,150z M197.6,144.4c3.1,2.7,7.1,0.9,12.4,3.3l0.5-1C205.4,145,202,146.9,197.6,144.4z M212,142.2l0.8-0.7c-4-3.6-7.9-3.2-11-7.1C203.7,138.1,208.1,138,212,142.2z M217,137.5c-2.3-4.9-6.1-6-7.4-10.8c0.3,4.1,4.4,5.7,6.4,11.1L217,137.5z M221.4,135.3c0.2-5.8-3-8.8-1.7-12.7c-0.6,5,2.5,7.4,2.7,12.8L221.4,135.3z M230.6,122.6c-2.7,3.1-0.9,7.1-3.3,12.4l1,0.5C230,130.4,228.1,127,230.6,122.6z M233.5,137.8c3.6-4,3.2-7.9,7.1-11c-3.7,1.8-3.6,6.2-7.8,10.2L233.5,137.8z M225,150l0.7,0.7l19.1-20.6l-17.4,16.2l8.3-22.3l-9.9,21.6l-0.9-23.8l-0.9,23.8l-9.9-21.6l9.8,26.3L225,150L225,150L225,150z M237.2,141l0.4,1c4.9-2.3,6-6.1,10.8-7.4C244.2,134.8,242.6,139,237.2,141z M252.4,144.7c-5-0.6-7.4,2.5-12.8,2.7l0.1-1.1C245.5,146.5,248.5,143.3,252.4,144.7z M253.1,150l-23.8-0.9l21.6-9.9l-26.3,9.8l0.4,0.9l0,0l0,0l-0.7,0.7l20.6,19.1l-16.2-17.4l22.3,8.3l-21.6-9.9L253.1,150z M239.5,153.2c5.1,1.8,8.5-0.1,12.9,2.4c-3.1-2.7-7.1-0.9-12.4-3.3L239.5,153.2z M238,157.8l-0.8,0.7c4,3.6,7.9,3.2,11,7.1C246.3,161.9,241.9,162,238,157.8z M233,162.5c2.3,4.9,6.1,6,7.4,10.8c-0.3-4.1-4.4-5.7-6.4-11.1L233,162.5z" />
  <path fill="#F6B40E" stroke="#85340A" stroke-width="0.9" d="M225,133.3c9.223,0,16.7,7.477,16.7,16.7s-7.477,16.7-16.7,16.7s-16.7-7.477-16.7-16.7S215.777,133.3,225,133.3z" />
  <path fill="#85340A" d="M227.8,148c1.3,1.2,4.1,1.3,6-0.1c-0.8-0.9-2-1.4-3.2-1.4l0,0C229.5,146.4,228.5,146.9,227.8,148z M233,147.7c-0.5,0.5-1.1,0.8-1.7,1c0.3-0.2,0.5-0.6,0.5-1s-0.2-0.7-0.5-0.9C232.1,146.9,232.8,147.3,233,147.7z M229.9,146.8c-0.3,0.2-0.4,0.5-0.4,0.9s0.2,0.8,0.6,1c-0.6-0.1-1.3-0.3-1.8-0.7C228.7,147.3,229.3,147,229.9,146.8z M234.7,147.8c-0.3,0.1-1.5-1.8-3.8-1.8c-0.8,0-1.5,0-2.3,0.6s-1.3,0.9-1.5,1c-0.3,0.1-0.4-0.3-0.3-0.4c0.1-0.1,0.5,0,1.3-0.6s1.2-1,2.8-1l0,0C233.5,145.6,235,147.7,234.7,147.8z M235.5,146.4L235.5,146.4L235.5,146.4L235.5,146.4z M235.5,146.4c-2.9-2.6-6.7-2.9-8.7-1c-0.5,0.7-0.8,1.4-1,2.1c-0.3,1.5,0.2,3,1.3,4.7c-0.1,0-0.4,0.1-0.5,0.3c-1-1.9-1.4-3.9-1-5.8c0.1-0.5,0.2-1,0.4-1.5C228.8,142.8,232.7,142.6,235.5,146.4z M234,148.5L234,148.5c-2.2,1.7-4.4,1.5-5.6,0.8c-1.3-0.8-1.3-1-1-1s0.5,0.3,1.5,0.8C229.9,149.5,231.4,149.5,234,148.5z M228.2,153c0-0.3-0.2-0.6-0.5-0.7c0.5,0.1,0.9,0.6,0.9,1.1c0,0.6-0.5,1.1-1.2,1.1c-0.4,0-0.7-0.2-0.9-0.5c-0.4,0.3-1.1,0.4-1.4,0.4H225c-0.3,0-0.9,0-1.4-0.4c-0.2,0.3-0.6,0.5-0.9,0.5c-0.6,0-1.2-0.5-1.2-1.1s0.4-1,0.9-1.1l0,0c-0.3,0.1-0.5,0.4-0.5,0.7c0,0.4,0.3,0.8,0.8,0.8c0.4,0,0.7-0.3,0.8-0.7c0.1,0.2,0.6,1,1.6,1s1.5-0.8,1.6-1c0,0.4,0.4,0.7,0.8,0.7C227.9,153.8,228.2,153.5,228.2,153z M222.8,156.4c-0.9,0.5-1.4,1-2,1.3c1.2-0.8,1.7-1.9,2.9-1.9c0.3,0,0.8,0.1,1.3,0.4l0,0c0.5-0.3,1-0.4,1.3-0.4c1.3,0,1.8,1.2,3,1.9c-0.6-0.3-1.2-0.8-2.1-1.3c-0.9-0.5-1.7,0.1-2.2,0.1l0,0C224.5,156.5,223.7,155.9,222.8,156.4z M225,157.4L225,157.4c-0.5,0-0.9-0.2-1.7-0.2l0,0c-0.5,0-1.2,0.1-2.1,0.4c-0.1,0-0.3,0-0.4,0c2.7,0.3,1.4,1.8,4.2,1.8l0,0c2.8,0,1.5-1.5,4.2-1.8c-0.2,0-0.3,0-0.5,0C226.3,156.9,225.8,157.4,225,157.4z M225,159.1L225,159.1c-2.2,0-1.5-1.5-3.7-1.4l0,0c2.2-0.5,2.8,0.3,3.8,0.3l0,0c1,0,1.5-0.7,3.7-0.3C226.5,157.6,227.2,159.1,225,159.1z M221.2,157.6L221.2,157.6L221.2,157.6L221.2,157.6z M227.3,161.8c-0.3-1.1-1.2-1.8-2.3-1.8s-2.1,0.8-2.3,1.8c0-1.3,1-2.3,2.3-2.3S227.3,160.5,227.3,161.8z M214.6,146.4L214.6,146.4L214.6,146.4L214.6,146.4z M214.6,146.4c2.8-3.8,6.7-3.6,9.5-1.3c0.2,0.5,0.3,1,0.4,1.5c0.3,1.9,0,3.9-1,5.8c-0.1-0.1-0.4-0.3-0.5-0.3c1.1-1.6,1.6-3.2,1.3-4.7c-0.1-0.8-0.5-1.5-1-2.1C221.3,143.5,217.6,143.8,214.6,146.4z M219.3,146c-2.3,0-3.6,1.9-3.8,1.8c-0.3-0.1,1.3-2.2,3.8-2.2l0,0c1.7,0,2.1,0.4,2.8,1c0.8,0.6,1.2,0.5,1.3,0.6s0,0.5-0.3,0.4s-0.8-0.4-1.5-1C220.8,146,220,146,219.3,146z M216.3,148c0.7,0.6,1.8,0.9,3,0.9l0,0l0,0c1,0,2.1-0.4,3-1c-0.8-0.9-2-1.4-3.2-1.4l0,0C218,146.4,216.9,146.9,216.3,148z M221.4,147.7c-0.4,0.4-0.9,0.7-1.4,0.9c0.3-0.2,0.4-0.5,0.4-0.9s-0.2-0.7-0.4-0.9C220.8,147,221.3,147.3,221.4,147.7z M218.7,146.7c-0.3,0.2-0.5,0.6-0.5,0.9c0,0.5,0.3,0.9,0.7,1c-0.7,0-1.4-0.3-2-0.8C217.3,147.2,218,146.9,218.7,146.7z M221.8,149.2c-1.3,0.8-3.5,0.9-5.6-0.8l0,0c2.6,1,4.1,1,5.1,0.5s1.3-0.8,1.5-0.8C223.1,148.2,223.1,148.5,221.8,149.2z" />
</svg>
