<svg xmlns="http://www.w3.org/2000/svg" width="450px" height="300px" viewBox="0 0 450 300">
  <path fill="#FFFFFF" d="M0,0h450v300H0V0z" />
  <path fill="#003087" d="M450,0v300H0L450,0z" />
  <path fill="#FFD700" d="M0,125V0h187.5L0,125z" />
  <path fill="#101820" d="M189.677,135.127l10.323-5.96l-10.323-5.96c-2.831-31.115-27.603-55.886-58.717-58.717L125,54.167l-5.96,10.323c-31.115,2.831-55.886,27.603-58.717,58.717L50,129.167l10.323,5.96c2.831,31.115,27.603,55.886,58.717,58.717l5.96,10.323l5.96-10.323C162.074,191.013,186.846,166.241,189.677,135.127z M125,185.417c-31.066,0-56.25-25.184-56.25-56.25s25.184-56.25,56.25-56.25s56.25,25.184,56.25,56.25S156.066,185.417,125,185.417z" />
  <path fill="#D50032" d="M146.651,129.167l10.825-18.75h-21.651L125,91.667l-10.825,18.75H92.524l10.825,18.75l-10.825,18.75h21.651L125,166.667l10.825-18.75h21.651L146.651,129.167z" />
</svg>
