<svg xmlns="http://www.w3.org/2000/svg" width="450px" height="300px" viewBox="0 0 450 300">
  <path fill="#ED1C24" d="M0,80h450v220H0V80z" />
  <path fill="#034EA2" d="M0,80h450v145H0V80z" />
  <path fill="#FFDD00" d="M0,0h450v150H0V0z" />
  <g>
    <path fill="#FFDD00" stroke="#000000" stroke-width="0.1431" d="M193.2,116.5l2.6,2.6c-4.8-4.9-10.3-10.7-13.2-13.6c-0.6-0.6-0.7,11.7-0.6,25.3l11,11.1C193.1,133.4,193.2,116.5,193.2,116.5L193.2,116.5z M255.4,116.5c0,0,0,17,0.1,25.5l11-11.1c0.1-13.6,0-25.9-0.6-25.3c-2.9,2.9-8.5,8.7-13.2,13.6L255.4,116.5L255.4,116.5z" />
    <path fill="#ED1C24" stroke="#000000" stroke-width="0.1431" d="M199.3,138.6l3.9-11.9l-4.1-4C199.2,122.5,198.9,130.5,199.3,138.6L199.3,138.6z M184.2,107.4l-0.9-0.9c-0.1,0.2-0.2,0.6-0.3,1.3c-0.3,1.4-0.1,6.1-0.2,7.7c-0.2,1.6-0.6,3.7-0.6,4.8c0,0,0,0,0,0.1c0,1.2,0.3,2.5,0.3,2.5s0.7,0.4,0.8,0s0.2-2.7,0.2-3.2s0.1-0.8,0.6-3s0.2-3.6,0.1-5C183.7,110.1,184.2,107.4,184.2,107.4L184.2,107.4z M185.1,105c-0.6,0.2-2.2,0.5-2.6,0.6c-0.1,0-0.1,0-0.1,0c2.3,0,3.2,1.4,3.2,1.4l0.8-0.9C187.1,104.9,185.8,104.7,185.1,105z M182.3,105.6L182.3,105.6c0.3,0.6,1.5,2.6,2.8,1.9l0.5-0.4C185.5,107.1,184.6,105.7,182.3,105.6z M249.3,138.6c0.2-8.1,0.1-15.9,0.1-16l-4.1,4L249.3,138.6L249.3,138.6z M264.4,107.4c0,0,0.5,2.7,0.2,4.1c-0.1,1.4-0.3,2.7,0.1,5c0.3,2.3,0.6,2.6,0.6,3c0,0.5,0.1,2.8,0.2,3.2c0.1,0.4,0.8,0,0.8,0s0.3-1.4,0.3-2.5c0,0,0,0,0-0.1c0-0.9-0.3-3.2-0.6-4.8c-0.2-1.6,0.1-6.3-0.2-7.7c-0.2-0.7-0.2-1.1-0.3-1.3L264.4,107.4L264.4,107.4z M262.1,106l0.8,0.9c0,0,0.9-1.4,3.2-1.4c0,0,0,0-0.1,0c-0.5-0.1-2.1-0.4-2.6-0.6C262.8,104.7,261.4,104.9,262.1,106z M262.9,107.1l0.5,0.4c1.4,0.7,2.4-1.2,2.8-1.8l0.1-0.1C263.8,105.7,262.9,107.1,262.9,107.1z" />
    <path fill="#034EA2" stroke="#000000" stroke-width="0.1431" d="M193.1,142l4,4l1.8-4.6l0.3-2.8c-0.2-8.1-0.1-16-0.1-16l1.1,1.1c-1.3-1.3-2.9-2.9-4.5-4.6l-2.6-2.6C193.2,116.5,193.1,133.4,193.1,142L193.1,142z M182.3,105.4c0,0-1,2.8-1,5s-0.2,5.3-0.3,5.7c0,0.4-0.5,2.1-0.5,3.5c0,0.5,0.1,0.5,0.2,0.7c0,0,0.7,0.5,1.1-0.2c0,0,0,0,0-0.1c0-0.9,0.5-3.2,0.6-4.8c0.2-1.6-0.1-6.3,0.2-7.7c0.2-0.7,0.2-1.1,0.3-1.3c0.1-0.2,0.1-0.4,0.1-0.4L182.3,105.4L182.3,105.4z M182.5,105.6c0,0,2.3-1.3,2.6-1.3s0.3,0.6,0.5,0.8c0.1,0.2,0,0.7-1.1,0.7C183.2,105.8,183.6,105.7,182.5,105.6z M186.1,104c-0.3-1.6-1.9-1.3-1.9-1.3c-1.6,0.2-1.8,2.2-1.8,2.7c0,0.1,0,0.1,0,0.1c3.8-3.3,3.2,0.1,3.2,0.1C186,105.1,186.1,104,186.1,104L186.1,104z M255.5,142c-0.1-8.5-0.1-25.5-0.2-25.5l-2.6,2.6c-1.6,1.6-3.2,3.3-4.5,4.6l1.1-1.1c0,0,0.1,8-0.1,16l0.3,2.8l1.8,4.6L255.5,142L255.5,142z M266.3,105.4l-0.9,0.7c0,0,0,0,0.1,0.4c0.1,0.2,0.2,0.6,0.3,1.3c0.3,1.4,0.1,6.1,0.2,7.7c0.2,1.6,0.6,3.7,0.6,4.8c0,0,0,0,0,0.1c0.3,0.6,1.1,0.2,1.1,0.2c0.1-0.2,0.2-0.2,0.2-0.7c0-1.4-0.5-3.2-0.5-3.5c0-0.5-0.3-3.5-0.3-5.7S266.3,105.4,266.3,105.4L266.3,105.4z M264.1,105.8c-1.1,0-1.3-0.4-1.1-0.7c0.1-0.4,0.1-0.8,0.5-0.8c0.3,0,2.6,1.3,2.6,1.3C264.9,105.7,265.2,105.8,264.1,105.8z M262.4,104c0,0,0.2,1.1,0.6,1.6c0,0-0.6-3.3,3.2-0.1c0,0,0,0,0-0.1c0-0.5-0.2-2.5-1.8-2.7C264.4,102.8,262.8,102.4,262.4,104L262.4,104z" />
    <path fill="#B1BABF" stroke="#000000" stroke-width="0.1431" d="M172.3,200.1C172.3,200.2,172.3,200.2,172.3,200.1c0,0.1-1,0.6-2.1,0.7c0,0-0.9,3-2.1,4c1.4-0.9,3.6-1.8,4-1.8c0-0.9,0.2-1.9,0.7-2.2h0.1l0,0C172.9,200.5,172.7,200.3,172.3,200.1L172.3,200.1z M179.8,192.5l1.1,1.4l-7.2,6.9h-0.5l-0.8-0.8v-0.6L179.8,192.5z M181.3,104C181.2,104,181.2,104,181.3,104c-0.1,0-0.7-1.3-0.8-2.7c0,0-3.7-1.3-4.8-2.8c1,1.8,2.1,4.6,2.1,5.3c1,0,2.2,0.2,2.6,0.9v0.1l0,0C180.7,104.6,180.9,104.4,181.3,104z M182.3,100.3c0,0-0.1-0.1-0.1-0.2c0.2,1.1,0.1,2.1-0.3,3.2c-0.1,0.4-0.3,0.6-0.5,0.8c-0.2,0.4-0.5,0.6-0.8,0.8c-1.3,0.9-3,1.2-4.6,0.5c0,0,0.1,0,0.1,0.1c0.1,0.1,0.2,0.2,0.5,0.2c2.6,1.5,5.5,0.9,6.4-1.3C183.4,103.2,183.2,101.7,182.3,100.3L182.3,100.3z M276.1,200.1c-0.2,0.2-0.5,0.4-0.7,0.7l0,0h0.1c0.6,0.4,0.7,1.3,0.7,2.2c0.6,0,2.8,0.9,4,1.8c-1.1-0.9-2.1-4-2.1-4C277.1,200.7,276.1,200.2,276.1,200.1C276.1,200.2,276.1,200.2,276.1,200.1L276.1,200.1z M276.2,199.4v0.6l-0.8,0.8H275l-7.2-6.9l1.1-1.4L276.2,199.4z M268.1,104.9L268.1,104.9L268.1,104.9c0.5-0.8,1.6-1.1,2.6-1.1c0.1-0.7,1-3.5,2.1-5.3c-1.1,1.5-4.8,2.8-4.8,2.8c-0.1,1.4-0.7,2.6-0.7,2.6s0,0-0.1,0C267.5,104.4,267.9,104.6,268.1,104.9z M266.3,100.3c-0.8,1.4-1,2.9-0.5,4.2c0.9,2.1,3.8,2.7,6.4,1.3c0.1-0.1,0.2-0.1,0.5-0.2c0,0,0,0,0.1-0.1c-1.6,0.7-3.3,0.5-4.6-0.5c-0.3-0.2-0.6-0.5-0.8-0.8c-0.2-0.2-0.3-0.6-0.5-0.8c-0.5-0.9-0.6-2.1-0.3-3.2C266.3,100.2,266.3,100.2,266.3,100.3L266.3,100.3z" />
    <path fill="none" stroke="#000000" stroke-width="0.0719" d="M168.8,204.3l3.9-3.7 M172.2,202.9l-1.9-2.2 M173,200.2l7.1-6.7 M175.9,98.9l4.9,5.6 M177.8,103.8l2.8-2.5 M275.9,200.4l3.9,3.7 M278.2,200.7l-1.9,2.2 M268.4,193.4l7.1,6.7 M267.6,104.5l4.9-5.6 M268,101.3l2.8,2.5" />
    <path fill="#E8B909" stroke="#000000" stroke-width="0.1431" d="M182.2,124.4c-1,0-1.6-0.1-2.3-0.1c0.1-1.5,0.2-3.6,1.4-3.5C182.4,120.8,182.3,122.9,182.2,124.4z M267.3,120.7c1.1-0.1,1.4,2,1.4,3.5c-0.7,0-1.3,0.1-2.3,0.1C266.3,122.9,266.1,120.8,267.3,120.7z" />
    <path fill="#E8B909" stroke="#000000" stroke-width="0.1431" d="M183.8,126.4c-1,0-1.6,0-2.3,0c0-1.5,0-3.6,1.1-3.6C183.8,122.9,183.8,125,183.8,126.4L183.8,126.4z M264.8,126.4c0-1.5,0-3.6,1.1-3.6s1.1,2.1,1.1,3.6C266.4,126.4,265.8,126.5,264.8,126.4L264.8,126.4z" />
    <path fill="none" stroke="#000000" stroke-width="0.1431" d="M180.8,122c0,0-0.2,2.1-0.2,2.2 M181.4,122.1c0,0,0,1.6-0.1,2.3 M182.3,124.2c0,0-0.1,2.1-0.1,2.2 M182.9,124.2c0,0,0.1,1.6,0,2.3 M268,124.3c0-0.1-0.2-2.2-0.2-2.2 M267.3,124.3c-0.1-0.7-0.1-2.3-0.1-2.3 M266.4,126.4c0-0.1-0.1-2.2-0.1-2.2 M265.7,126.4c-0.1-0.7,0-2.3,0-2.3" />
    <path fill="#39B54A" stroke="#000000" stroke-width="0.1075" d="M193.6,122.4c0,0-0.1-2.9,0-3.3s2.6-2.3,1.8-7.4c0,0-0.5-1.6-0.2-2.1c0,0-2.2,4.3-2.4,5.5c-0.2,1.3,0.1,3.4,0.2,3.9c0.1,0.5,0.3,1.9,0.3,1.9 M196.1,119c0-1.1,0.1-1.8,1-2.3c0.8-0.6,1.7-0.8,2.1-1.9c-0.2,0.4-0.1,0.8-0.2,1.2c-0.1,0.5-0.2,0.8-0.5,1.3c-0.2,0.6-0.7,1.3-1,1.8 M192.4,122.4c0.6-1.4,1.5-2.5,2.9-3.2c1-0.5,2.2-0.6,3.3-0.7c0.7,0,1.4,0,1.9-0.2c0.5-0.1,1.4-0.4,1.6-0.8c-1.9,1.1-3,3.3-5,4.1c-1.6,0.7-3.8,0.4-5.3,1.5 M202.6,114.9c0.3-0.4,0.2-1.6,0.5-2.2c0.2-0.7,0.8-1.3,1.1-2c-0.2,0.7,0,1.6-0.2,2.3c-0.2,0.8-0.9,1.5-1.4,2.2 M191.4,137.7c0.8,1.2,1.7,3.2,0.7,4.6c-0.2-0.4-0.2-1.1-0.7-1.3c-0.2-0.2-0.8-0.1-1-0.2c-0.9-0.4-0.7-1.3-1.3-1.8l-0.1-0.4l2.3-1.2L191.4,137.7L191.4,137.7z M187.8,134c0.3-0.5,0.5-1.3,0.8-1.8c0.3-0.7,1-1.3,1.8-1.5c0.9-0.4,1.7-0.5,2.6-0.5c0.9,0,1.9,0.4,2.6,0.2c-1.5,0.6-3.4,0.6-4.8,1.5c-0.9,0.6-1.8,1.5-2.5,2.3c-0.6,0.7-0.8,1.4-1.1,2.2 M191.4,131.1c0.5-0.6,1.1-0.5,1.8-0.6 M187.2,137.3c0.2-0.2,0.3-0.6,0.5-0.9c0.2-0.5,0.6-0.8,0.8-1.2c0.6-0.8,1.1-1.5,1.8-2.2c0.6-0.6,1.5-1.1,2.3-1.3s2.2,0,2.8-0.6c-0.5,0.6-0.7,1.2-1.1,1.8c-0.8,0.8-1.5,1.6-2.5,2.1c-0.7,0.4-1.6,0.8-2.4,1.1c-0.7,0.1-1.8,0.1-2.3,0.9c0,0,0.1,0,0.1,0.1c0.1-0.1,0.2-0.2,0.3-0.2 M198.4,118.7c0.6-0.8,1.4-1.5,2.2-2.1c0.6-0.5,1-1.1,1.7-1.4c1.8-0.7,3.8,0.7,5.6,0.7c-0.8,0.4-1.5,0.8-2.4,1.1c-0.9,0.2-1.7,0.4-2.6,0.4c-1.6,0-3.7,0-4.6,1.6 M191.1,128.2c0.8-0.1,1-1.4,1.3-2.1c0.2-0.8,0.5-1.9,1-2.6c0.3-0.5,0.9-0.8,1.4-1.2c0.6-0.4,0.9-0.6,1.5-0.7c0.9-0.1,1.8-0.2,2.8-0.2c0.8,0,1.7,0.1,2.5-0.2c-0.8,0.2-1.7,0.9-2.2,1.6c-0.8,1.1-1.4,2.1-2.5,2.8c-1,0.7-2.4,1.1-3.6,1.4c-0.7,0.2-1.8,0.5-2.1,1.3 M190,130.3c0.6,0,0.9-0.8,1-1.1c0.2-0.5,0.5-1.1,0.9-1.4c0.2-0.2,0.8-0.4,1.1-0.6c0.5-0.2,0.7-0.2,1.1-0.2c0.7,0,1.4,0,2.1,0c0.7,0,1.4,0.2,1.9,0c-0.7,0.1-1.4,0.5-1.7,0.8c-0.7,0.6-1.1,1.1-2.1,1.4s-1.8,0.4-2.8,0.6C191.1,129.8,190.2,129.9,190,130.3 M186.4,138.5c0,0-4.8-5.3-2.2-11.7c0,0,0.1,1.8,0.2,2.1c0.1,0.2,2.9,4.3,2.4,8c-0.3,3.5-0.2,2.1-0.2,2.1L186.4,138.5L186.4,138.5z M194.6,117.3c0,0,1.1-2.7,1.4-2.9c0.2-0.2,3.4-0.8,4.9-5.6c0,0,0.2-1.8,0.7-2c0,0-3.8,2.7-4.6,3.7c-0.7,1.1-1.4,3-1.4,3.5c-0.1,0.5-0.6,1.8-0.6,1.8 M188.4,119c0,0,0.2-1.6,0.1-1.9c-0.1-0.2-1.9-1.3-1.3-4.2c0,0,0.3-0.9,0.2-1.2c0,0,1.5,2.5,1.6,3.2s-0.2,1.9-0.2,2.1c-0.1,0.4-0.2,1.1-0.2,1.1 M188.2,126.4c0,0,0.2-3.4,0.3-3.7c0.1-0.4,2.8-2.3,2.5-8.3c0,0-0.2-2,0-2.5c0,0-2.5,4.7-2.9,6.1c-0.3,1.5-0.2,3.9-0.2,4.5c0.1,0.6,0.1,2.2,0.1,2.2 M188.1,122.8c0,0-0.9-1.6-1.3-2.6c-0.3-0.9-0.8-1.8-1-1.9s2.1,1.2,2.3,1.6 M188.2,128.2c0,0,0.2-3.5,1.8-4.5c0,0,1.5-0.8,2.2-1.4c0,0,0.9-1.3,0.3-0.5c-0.6,0.8-0.9,5.4-1,5.6c0,0.2-0.6,2.1-1.7,3.4c-1,1.3-1.6,2.1-1.8,2.7c-0.2,0.5-0.5,1.8-0.5,1.8 M194.4,118c1.4-0.7,1.7-2.2,3-2.9c0.8-0.5,1.8-0.6,2.6-0.8c0.7-0.1,1.5-0.2,1.9-0.8c-0.6,0.7-1.3,1.3-1.9,1.9c-0.7,0.7-1.3,1.2-2.2,1.5c-0.7,0.2-1.5,0.1-2.2,0.4c-0.6,0.2-0.9,0.7-1.4,1.1L194.4,118L194.4,118z M203.1,114.6c0.9-0.9,0.9-2.5,2.3-3c0.7-0.4,1.5-0.5,2.1-1.1C206.3,112.4,204.9,113.6,203.1,114.6 M202.7,114.7c0.7-0.2,1.1-0.8,1.8-1.2s1.4-0.1,2.1-0.2c0.8-0.1,1.4-0.2,2.2-0.5C207.4,114.7,204.6,113.4,202.7,114.7 M186.8,138.8c0.2-0.5,0.3-1.1,0.7-1.5c0.5-0.5,1.1-0.9,1.7-1.3c1.6-0.8,3.8-0.5,5-1.8c-0.6,1.6-2.6,3.2-4.1,3.7c-0.7,0.2-1.3,0.6-1.9,0.7c-0.6,0.1-1.3,0-1.7,0.1 M187.1,137.4c0,0,0.2-3.9,0.1-4.3c-0.1-0.5-2.9-3-1.8-9.7c0,0,0.6-2.2,0.3-2.8c0,0,2.3,5.6,2.4,7.3c0.1,1.7-0.2,4.5-0.5,5c-0.1,0.7-0.5,2.5-0.5,2.5" />
    <path fill="none" stroke="#000000" stroke-width="0.1075" d="M188.1,132.3c0.6-0.5,0.7-1.3,0.9-2c0.2-0.8,0.6-1.5,0.8-2.3c0.1-0.8,0.3-1.5,0.7-2.3c0.3-0.8,0.9-1.4,1.4-2.1 M200.2,119.8c-1.4,0.5-2.5,1.2-4,1.3 M194.9,110.9c0,0.6-0.2,1.3-0.3,1.9s-0.2,1.2-0.3,1.8c-0.2,0.7-0.6,1.4-0.7,2.2c-0.1,0.6-0.1,1.3-0.1,1.9 M193.3,119.1c0-0.6,0.7-1.3,1-1.6 M193.6,116.9c0.1-0.4-0.3-1.2-0.3-1.6 M193.6,117.6c0-0.9,1.1-1.3,1.1-2.1 M193.9,115.4c-0.1-0.5-0.8-0.8-0.6-1.4 M194.2,114.6c0.1-0.4,0.3-0.6,0.5-0.8c0.1-0.2,0.5-0.5,0.6-0.7 M194.5,113.5c0-0.6-0.2-1.1-0.1-1.6 M192.5,122.7c1-1.1,2.3-1.9,3.8-2.2c1.1-0.4,2.4-0.7,3.3-1.3 M196.3,120.6c0.3,0.2,1,0.6,1.5,0.5 M197.7,120c0.3,0,0.9,0.2,1.1,0.1 M196.5,120.3c-0.3-0.7,0.6-0.8,0.8-1.2 M203.2,114c-0.1-0.7,0.5-1.2,0.6-1.9 M190.3,138.6c1,0.8,1.7,2,1.6,3.3 M190.2,138.6c0.2,0.7,0,1.3,0.1,1.9c0,0,0-0.1,0.1-0.1 M190.6,138.7c0.7,0.5,1.1,0.8,1.5,1.5 M187.8,134.6c0.3-0.9,1.1-2.1,1.9-2.7c0.8-0.6,1.8-0.9,2.9-0.9 M188.4,133.4c0.5-0.4,1.3-0.7,1.6-1.2 M187.7,136.4c0.3-0.1,0.8-0.7,1-1.1c0.5-0.5,0.9-0.8,1.5-1.2c0.7-0.5,1.4-0.8,2.1-1.2c0.6-0.2,1.1-0.5,1.6-0.9 M189.9,134.5c0.5-0.1,0.9-0.4,1.5-0.5c0.2,0,0.6,0,0.9-0.1 M190.6,134c0.3-0.6,0.9-0.9,1.1-1.5 M199.4,117.7c1-0.2,2.1-0.9,3.1-1.4c1-0.4,2.2-0.2,3.1-0.5 M202.5,116.5c0.7-0.2,1.6,0.2,2.3,0.2 M201.5,116.8c0.3-0.4,0.7-0.6,1-0.8c0.2-0.2,0.7-0.4,0.7-0.7 M192.2,127.2c1.4-1.4,1.8-3.3,3.8-3.9c1.3-0.4,3.1-0.5,3.9-1.5 M193.2,125.9c0.5-0.4,0.9-0.7,1.5-0.7s1.3,0.1,1.7-0.1 M196.2,123.5c0.3-0.1,0.7,0.1,1,0.1s0.7-0.2,1-0.2 M195,123.8c0.2-0.7,0.6-1.1,0.9-1.6 M190.9,129.8c1-0.7,1.6-1.8,3.1-2c0.9-0.1,2.4-0.1,3.1-0.7 M191.9,129.1c0.3-0.2,0.8-0.2,1.3-0.2s0.9,0.1,1.4,0 M194.1,127.9c0.2,0,0.6,0.1,0.8,0.1s0.6-0.1,0.8-0.1 M193.2,128c0.2-0.4,0.5-0.6,0.8-0.9 M186.4,138.1c0,0-0.6-4.1-1.4-5.3c-0.8-1.2-0.9-3.5-0.8-4 M185.1,132.3c0.2-0.2,0.5-0.6,0.5-0.9 M185.8,134c0.2-0.2,0.2-0.7,0.3-0.9 M185.6,134.8c-0.2-0.4-1.1-0.4-1.3-0.7 M184.8,133c-0.2-0.4-1.1-0.5-1.1-0.9 M184.2,130.6c-0.3-0.2-0.5-0.5-0.6-0.9 M186.1,136.4c-0.3-0.5-0.8-0.6-1.1-0.8 M186.1,135.5c0.1-0.4,0.5-0.7,0.5-1.1 M200.8,107.8c-0.2,0.6-0.7,0.9-1,1.4s-0.7,0.9-1,1.3c-0.6,0.5-1.1,1.1-1.6,1.6c-0.3,0.5-0.7,1.2-0.9,1.6 M195.7,114.2c0.2-0.5,1.1-0.8,1.7-0.9 M197,112.4c0.3-0.2,0.2-1.3,0.3-1.6 M196.8,112.6c0.2-0.8,1.9-0.1,2.3-0.8 M197.9,111.3c0.1-0.5-0.3-1.2,0-1.5 M198.6,110.6c0.2-0.2,0.6-0.4,0.8-0.5s0.6-0.1,0.8-0.4 M199.3,109.9c0.2-0.5,0.3-1.1,0.6-1.5 M187.6,112.6c0,0.4,0.1,0.7,0.2,1.1c0.1,0.4,0.1,0.7,0.2,0.9c0.2,0.4,0.3,0.8,0.5,1.3c0.1,0.4,0,0.7,0,1.2 M188.6,117.2c0-0.4-0.5-0.7-0.8-0.9 M188.5,116c-0.1-0.2,0.2-0.7,0.3-0.9 M188.6,116.1c0.1-0.5-1.3-0.6-1.3-1.1 M188.3,115.2c0.1-0.2,0.7-0.5,0.5-0.8 M188.1,114.7c-0.1-0.2-0.2-0.4-0.3-0.5s-0.3-0.2-0.5-0.4 M187.9,114.1c0-0.4,0.1-0.6,0.1-0.9 M190.8,113.4c-0.1,0.7-0.3,1.4-0.5,2.1c-0.1,0.7-0.2,1.3-0.6,2c-0.3,0.8-0.7,1.6-0.9,2.5c-0.2,0.7-0.2,1.5-0.3,2.2 M188.4,122.7c0-0.7,0.8-1.4,1.1-1.8 M188.7,120.1c0.2-0.5-0.2-1.4-0.2-2 M188.7,120.4c0-1.1,1.7-0.9,1.8-2 M189.3,118.4c0-0.6-0.7-1.1-0.5-1.6 M189.8,117.5c0.1-0.4,0.3-0.6,0.6-0.9c0.2-0.2,0.5-0.5,0.7-0.7 M190.1,116.3c0.1-0.7,0-1.3,0-2 M187.9,121.3c-0.3-0.8-0.8-1.8-1.5-2.2 M187.7,121.1c-0.1-0.4-0.5-0.6-0.7-0.8 M187.7,120.6c-0.1-0.2-0.1-0.7-0.2-0.9 M189.8,128.3c0.5-0.7,1-0.7,1.7-1.2 M189,130.5c0.3-0.6,1.1-0.5,1.4-1.2 M189.2,128.9c0.2-0.8-0.5-1.2-0.6-1.9 M190,126.6c-0.3-0.9-0.3-1.5,0-2.3 M188.4,126.1c0-0.9,0.3-2.1,0.7-2.8c0.2-0.5,0.6-0.9,0.8-1.4c0.2-0.4,0.3-0.8,0.8-0.9 M190.8,122.4c-1.6,0.9-3.1,2.7-2.6,4.8 M195.7,116.9c0.7-0.5,1.1-1.2,1.8-1.4c0.8-0.4,1.7-0.5,2.5-0.8 M196.8,116.1c0.6-0.4,1.5,0,1.9-0.4 M197.7,115.5c0.2-0.2,0.7-0.5,0.9-0.7 M194.7,121.3c-0.8,0.4-2.3,0.6-2.6,1.5 M203.5,114c0.6-0.1,0.9-0.8,1.3-1.3c0.3-0.6,0.9-0.7,1.5-0.9 M189.2,132.4c0.3-0.5,0.7-1.1,1-1.4 M186.9,138.8c0.5-0.2,0.8-0.7,1.3-1.1c0.6-0.4,1.1-0.6,1.7-0.8c0.7-0.2,1.5-0.5,2.2-0.8c0.2-0.1,1-0.5,1.1-0.8 M188.4,137.8c0.5,0.1,0.9,0.5,1.5,0.2 M189.7,137.1c0.9,0,1.6,0.1,2.5-0.2 M188.5,137.8c0.2-0.2,0.2-0.5,0.3-0.8c0.2-0.2,0.5-0.5,0.6-0.7 M190.1,136.9c0.2-0.2,0.3-0.5,0.7-0.6c0.2-0.2,0.7-0.2,0.8-0.5 M186.4,138.6c0.1-0.7,0.6-1.2,0.8-1.8c0.2-0.4,0.3-1.2,0.3-1.5 M186,122.3c0,0.8,0.2,1.6,0.2,2.5c0.1,0.8,0.1,1.5,0.3,2.2c0.2,0.9,0.6,2,0.7,2.9s0.1,1.8,0.1,2.7 M187.5,133.1c0.1-0.7-0.7-1.6-1.1-2.2 M187.2,130.2c-0.1-0.5,0.5-1.6,0.5-2.2 M187.4,130.5c0.2-1.2-1.8-1.4-1.8-2.5 M186.9,128.3c0.1-0.6,0.9-1.1,0.7-1.8 M186.6,127.1c-0.1-0.4-0.3-0.8-0.6-1.2c-0.2-0.4-0.5-0.6-0.6-0.9 M186.3,125.7c0-0.8,0.2-1.4,0.2-2.2" />
    <path fill="#FFDF4F" stroke="#000000" stroke-width="0.0719" d="M190.7,120.6c0,0.2,0.2,0.2,0.3,0.2v-0.1c0.2,0.1,0.8,0.1,0.5-0.2c0.2,0,0.6-0.2,0.2-0.5c0.2-0.2,0.2-0.5,0-0.7l-0.1,0.1c0-0.2-0.2-0.4-0.3-0.2v0.1c-0.1-0.1-0.3-0.1-0.5,0c0,0,0.1,0,0.1,0.1c-0.1,0-0.2,0-0.2,0s0,0.1,0,0.2l0,0c-0.1,0-0.2,0.1-0.2,0.4c0,0,0.1,0,0.2,0.1C190.5,120.2,190.5,120.5,190.7,120.6L190.7,120.6c-0.2,0.1,0.2,0.1,0.3,0 M191.1,122.8c0,0.2,0.2,0.2,0.3,0.2v-0.1c0.2,0.1,0.8,0.1,0.5-0.2c0.2,0,0.6-0.2,0.2-0.5c0.2-0.2,0.2-0.5,0-0.7l-0.1,0.1c0-0.2-0.2-0.2-0.3-0.2v0.1c-0.1-0.1-0.3-0.1-0.5,0c0,0,0.1,0,0.1,0.1c-0.1,0-0.2,0-0.2,0s0,0.1,0,0.2l0,0c-0.1,0-0.2,0.1-0.2,0.4c0,0,0.1,0,0.2,0.1C190.9,122.4,190.9,122.7,191.1,122.8L191.1,122.8c-0.2,0.1,0.2,0.1,0.3,0 M194.7,121.3c0.1,0.2,0.3,0.4,0.7,0.4v-0.1c0.3,0.1,0.7-0.1,0.5-0.5c0.2,0,0.2-0.2,0.1-0.4c-0.1,0-0.1,0-0.2,0c0.3-0.5-0.9-0.9-0.9-0.4c-0.2,0-0.6,0.1-0.2,0.4C194.4,120.8,194.4,121.1,194.7,121.3 M197.5,123.5c0.1,0.2,0.3,0.4,0.7,0.4v-0.1c0.3,0.1,0.7-0.1,0.5-0.5c0.2,0,0.2-0.2,0.1-0.4c-0.1,0-0.1,0-0.2,0c0.3-0.5-0.9-0.9-0.9-0.4c-0.2,0-0.6,0.1-0.2,0.4C197.1,123,197.1,123.4,197.5,123.5 M195.8,124.8c0.1,0.2,0.3,0.4,0.7,0.4V125c0.3,0.1,0.7-0.1,0.5-0.5c0.2,0,0.2-0.2,0.1-0.4c-0.1,0-0.1,0-0.2,0c0.3-0.5-0.9-0.9-0.9-0.4c-0.2,0-0.6,0.1-0.2,0.4C195.4,124.3,195.4,124.7,195.8,124.8 M193.6,125c0.1,0.2,0.3,0.4,0.7,0.4v-0.1c0.3,0.1,0.7-0.1,0.5-0.5c0.2,0,0.2-0.2,0.1-0.4c-0.1,0-0.1,0-0.2,0c0.3-0.5-0.9-0.9-0.9-0.4c-0.2,0-0.6,0.1-0.2,0.4C193.2,124.4,193.1,124.8,193.6,125 M191.8,126.9c0.1,0.2,0.3,0.4,0.7,0.4v-0.1c0.3,0.1,0.7-0.1,0.5-0.5c0.2,0,0.2-0.2,0.1-0.4c-0.1,0-0.1,0-0.2,0c0.3-0.5-0.9-0.9-0.9-0.4c-0.2,0-0.6,0.1-0.2,0.4C191.5,126.4,191.5,126.8,191.8,126.9 M200.3,120.3c0.1,0.2,0.3,0.4,0.7,0.4v-0.1c0.3,0.1,0.7-0.1,0.5-0.5c0.2,0,0.2-0.2,0.1-0.4c-0.1,0-0.1,0-0.2,0c0.3-0.5-0.9-0.9-0.9-0.4c-0.2,0-0.6,0.1-0.2,0.4C199.9,119.7,199.9,120.1,200.3,120.3 M203.3,115.8c0.1,0.2,0.3,0.4,0.7,0.4V116c0.3,0.1,0.7-0.1,0.5-0.5c0.2,0,0.2-0.2,0.1-0.4c-0.1,0-0.1,0-0.2,0c0.3-0.5-0.9-0.8-0.9-0.4c-0.2,0-0.6,0.1-0.2,0.4C203,115.2,203,115.5,203.3,115.8 M200.9,115.5c0.1,0.2,0.3,0.4,0.7,0.4v-0.1c0.3,0.1,0.7-0.1,0.5-0.5c0.2,0,0.2-0.2,0.1-0.4c-0.1,0-0.1,0-0.2,0c0.3-0.5-0.9-0.8-0.9-0.4c-0.2,0-0.6,0.1-0.2,0.4C200.5,115,200.4,115.4,200.9,115.5 M194.6,128.5c0.1,0.2,0.3,0.4,0.7,0.4v-0.1c0.3,0.1,0.7-0.1,0.5-0.5c0.2,0,0.2-0.2,0.1-0.4c0,0-0.1,0-0.2,0c0.3-0.5-0.9-0.9-0.9-0.4c-0.2,0-0.6,0.1-0.2,0.4C194.1,128,194.1,128.4,194.6,128.5 M191.9,129.5c0.1,0.2,0.3,0.4,0.7,0.4v-0.1c0.3,0.1,0.7-0.1,0.5-0.5c0.2,0,0.2-0.2,0.1-0.4c0,0-0.1,0-0.2,0c0.3-0.5-0.9-0.9-0.9-0.4c-0.2,0-0.6,0.1-0.2,0.4C191.6,128.9,191.6,129.3,191.9,129.5 M191.8,133.4c0.1,0.2,0.3,0.4,0.7,0.4v-0.1c0.3,0.1,0.7-0.1,0.5-0.5c0.2,0,0.2-0.2,0.1-0.4c-0.1,0-0.1,0-0.2,0c0.3-0.5-0.9-0.9-0.9-0.4c-0.2,0-0.6,0.1-0.2,0.4C191.5,132.8,191.5,133.2,191.8,133.4 M189.5,135c0.1,0.2,0.3,0.4,0.7,0.4v-0.1c0.3,0.1,0.7-0.1,0.5-0.5c0.2,0,0.2-0.2,0.1-0.4c0,0-0.1,0-0.2,0c0.3-0.5-0.9-0.9-0.9-0.4c-0.2,0-0.6,0.1-0.2,0.4C189.2,134.5,189.1,134.8,189.5,135L189.5,135 M196.7,118.4c0.1,0.2,0.3,0.4,0.7,0.4v-0.1c0.3,0.1,0.7-0.1,0.5-0.5c0.2,0,0.2-0.2,0.1-0.4c-0.1,0-0.1,0-0.2,0c0.3-0.5-0.9-0.8-0.9-0.4c-0.2,0-0.6,0.1-0.2,0.4C196.3,117.9,196.3,118.2,196.7,118.4" />
    <path fill="#DE2126" d="M190.9,119.7c0.1,0.1,0.1,0.4,0.3,0.4c0.1-0.1,0.1-0.2,0.1-0.4c-0.1,0-0.5,0-0.2,0.1 M191.4,121.8c0.1,0.1,0.1,0.4,0.3,0.4c0-0.1,0.1-0.2,0.1-0.4c-0.1,0-0.3,0-0.2,0.1 M195.2,120.8C195.2,121.5,195.7,120.3,195.2,120.8C195.2,120.8,195.3,120.8,195.2,120.8 M197.9,123C197.9,123.7,198.5,122.5,197.9,123C197.9,123,198,123,197.9,123 M196.2,124.3C196.2,125,196.8,123.8,196.2,124.3C196.2,124.3,196.3,124.3,196.2,124.3 M194,124.4C194,125.2,194.6,124.1,194,124.4C194,124.5,194,124.4,194,124.4 M192.3,126.4C192.3,127.1,192.9,125.9,192.3,126.4L192.3,126.4 M200.7,119.7C200.7,120.6,201.2,119.4,200.7,119.7C200.7,119.8,200.8,119.7,200.7,119.7 M203.8,115.2C203.8,115.9,204.3,114.8,203.8,115.2C203.8,115.3,203.9,115.2,203.8,115.2 M201.2,115C201.2,115.8,201.9,114.6,201.2,115C201.2,115,201.4,115,201.2,115 M194.9,128C194.9,128.8,195.6,127.6,194.9,128C194.9,128,195,128,194.9,128 M192.4,128.9C192.4,129.7,193,128.5,192.4,128.9C192.4,129,192.4,128.9,192.4,128.9 M192.3,132.8C192.3,133.6,192.9,132.4,192.3,132.8L192.3,132.8 M189.9,134.5C190,135.2,190.6,134,189.9,134.5C189.9,134.5,190,134.5,189.9,134.5 M197.1,117.9C197.1,118.7,197.7,117.5,197.1,117.9C197.1,118,197.2,117.9,197.1,117.9" />
    <path fill="#009C4F" stroke="#000000" stroke-width="0.1348" d="M257.6,109.1C257.6,109.1,257.7,109.1,257.6,109.1C257.7,109.1,257.6,109.1,257.6,109.1z M263.5,135.2c-0.2-4.2-2.2-20.6-5.8-26.1c0.3,0.5,2.1,3.9,3.2,14.5c-2.8-8.9-6.8-15.4-6.8-15.4c1.9,4,4.9,12.7,6.8,20.4c-3.3-10.2-8.9-19.8-8.9-19.8c2.8,5.2,4.9,11.6,6.3,17.1c-3.8-8.5-8.8-16.6-9.7-18.1c1,1.8,5.5,10.9,7.3,16c0.2,0.7,0.5,1.4,0.7,2.2c-3.3-7.2-7.6-15.2-11.7-19.3c0,0,7.6,11.8,9.9,19.9c0.1,0.2,0.1,0.5,0.2,0.9c-3.7-5.7-7.9-11.3-10.1-14c2.5,3.5,6.1,9.9,8.9,16.7c-3.1-5.1-6.3-9.2-6.3-9.2c4.7,6.2,8.3,16.7,8.5,21.5L263.5,135.2z" />
    <path fill="none" stroke="#000000" stroke-width="0.083" d="M257.4,141.4c-0.9-4.4-3.2-9.2-5.3-13.3 M259.2,139.4c-2.1-6-5.7-13-9.7-19.2 M260.1,137.3c-2.5-6.3-9-22.5-12.9-27.5 M260.9,136.6c-1.8-6.8-5.8-16.3-7.9-20.6 M261.7,135.6c-1.9-7.5-4.6-15.7-6.1-19.2 M262.6,135c-0.6-6-3.7-16-6-21.2 M261.9,127.6c-0.2-2.9-1.2-9-1.8-11.6" />
    <path fill="#B1BABF" stroke="#000000" stroke-width="0.1431" d="M184.8,213.1C184.8,213.1,184.7,213.2,184.8,213.1c0,0.1-1,0.6-2.1,0.7c0,0-0.9,3-2.1,4c1.4-0.9,3.6-1.8,4-1.8c0-0.9,0.2-1.9,0.7-2.2h0.1l0,0C185.3,213.5,185.1,213.3,184.8,213.1L184.8,213.1z M199.4,200.8l-13.4,13h-0.5l-0.8-0.8v-0.6l13.5-13.1L199.4,200.8 M263.7,213.1c-0.2,0.2-0.5,0.5-0.7,0.7l0,0h0.1c0.6,0.4,0.7,1.3,0.7,2.2c0.6,0,2.8,0.9,4,1.8c-1.1-0.9-2.1-4-2.1-4C264.7,213.7,263.8,213.2,263.7,213.1C263.8,213.2,263.7,213.1,263.7,213.1L263.7,213.1z M249.1,200.8l1.1-1.4l13.5,13.1v0.6l-0.8,0.8h-0.5L249.1,200.8" />
    <path fill="#FFDD00" stroke="#000000" stroke-width="0.1431" d="M195.7,190.4c-8.8-5.7-10.3-23.2-10.2-25.5s0.2-30.2,0.2-30.2l2.6,2.7c-4.8-4.9-10.3-10.7-13.2-13.6c-0.9-0.9-0.2,36.4-0.2,53.1c0,7.8,4.8,35.3,32.7,21.4c0,0,14-5.2,18-11.2c-0.9,0-1.9-0.1-2.9-0.2c-0.5,0.2-0.9,0.5-1.4,0.7C205.4,198.4,195.7,190.4,195.7,190.4L195.7,190.4z M252.8,190.4c0,0-9.6,8.1-25.6-2.9c-0.5-0.2-0.9-0.5-1.4-0.7c-0.9,0.1-1.9,0.2-2.9,0.2c4,6.1,18,11.2,18,11.2c27.9,13.8,32.7-13.7,32.7-21.4c0-16.6,0.7-54-0.2-53.1c-2.9,2.9-8.5,8.7-13.2,13.6l2.6-2.7c0,0,0.1,27.9,0.2,30.2C263.1,167.3,261.7,184.6,252.8,190.4L252.8,190.4z" />
    <path fill="#ED1C24" stroke="#000000" stroke-width="0.1431" d="M196.9,152.9c-0.1-0.8-0.1-3.9-0.1-7.1c-1.8-1.9,0.3,0.5-3.9-4l-1.1-1.3c0,0,0,0.4,0,0.6c0,2.6-0.2,18.6,1,27.2c1.4,9.3,9.3,18.5,17.1,20.8c2.6,0.8,6.8,0.4,11.7-1.6c0.3-0.2,0.7-0.5,1-0.7C208.3,184.7,198.6,171.3,196.9,152.9L196.9,152.9z M175.4,144.3c0.1-0.4,0.2-3.2,0.2-3.7c0-0.6,0.1-0.9,0.6-3.7c0.3-2.8,0.2-4.5,0.1-6.1c-0.2-1.8,0.3-5.4,0.3-5.4l-1-0.8c-0.1,0.2-0.2,0.7-0.3,1.5c-0.3,1.6-0.1,7.4-0.2,9.3c-0.2,2-0.6,4.6-0.6,5.7c0,0,0,0,0,0.1c0,1.4,0.3,3,0.3,3 M177.5,122.9c-0.6,0.2-2.2,0.5-2.6,0.6c-0.1,0-0.1,0-0.1,0c2.3,0,3.2,1.4,3.2,1.4l0.8-0.9C179.5,122.8,178.2,122.7,177.5,122.9z M174.8,123.5L174.8,123.5c0.3,0.6,1.5,2.6,2.8,1.9l0.5-0.4C178,125,177,123.5,174.8,123.5L174.8,123.5z M251.6,152.9c-1.7,18.5-11.3,31.9-25.4,34c0.3,0.2,0.7,0.5,1,0.7c4.8,2.1,9.1,2.5,11.7,1.6c7.8-2.3,15.8-11.5,17.1-20.8c1.3-8.5,1-24.7,1-27.2c0-0.2,0-0.6,0-0.6l-1.1,1.3c-4.4,4.5-2.1,2.1-3.9,4C251.7,149,251.6,152.1,251.6,152.9L251.6,152.9z M273.8,144.1c0,0,0.3-1.6,0.3-3c0,0,0,0,0-0.1c0-1.2-0.3-3.9-0.6-5.7c-0.2-1.9,0.1-7.6-0.2-9.3c-0.2-0.8-0.2-1.3-0.3-1.5l-1,0.8c0,0,0.6,3.6,0.3,5.4c-0.1,1.8-0.3,3.3,0.1,6.1c0.3,2.8,0.6,3.2,0.6,3.7c0,0.6,0.1,3.4,0.2,3.7 M269.7,124.1l0.8,0.9c0,0,0.9-1.4,3.2-1.4c0,0,0,0-0.1,0c-0.5-0.1-2.1-0.4-2.6-0.6C270.4,122.7,269.1,122.8,269.7,124.1z M273.9,123.5c-2.3,0-3.2,1.4-3.2,1.4l0.5,0.4C272.4,126.1,273.4,124.1,273.9,123.5L273.9,123.5L273.9,123.5z" />
    <path fill="#034EA2" stroke="#000000" stroke-width="0.1431" d="M185.5,164.8c-0.1,2.3,1.4,19.8,10.2,25.5c0,0,9.6,8.1,25.7-2.9c-4.8,2.1-8.8,2.5-11.5,1.6c-7.8-2.3-15.9-11.5-17.3-20.8c-1.4-9.3-1-27.5-1-27.5l1.1,1.1c-1.3-1.3-2.9-2.9-4.5-4.6l-2.6-2.7C185.8,134.6,185.6,162.5,185.5,164.8L185.5,164.8z M174.6,123.7c0,0-0.9,3-0.9,5.7s-0.2,6.3-0.3,6.9c0,0.6-0.8,4.3-0.3,5.6l0.5,0.7c0,0,0.7-0.4,0.7-1.5c0,0,0,0,0-0.1c0-1.2,0.5-3.7,0.6-5.7c0.2-2-0.1-7.6,0.2-9.3c0.2-0.8,0.2-1.3,0.3-1.5s0.1-0.4,0.1-0.4L174.6,123.7L174.6,123.7z M174.9,123.5c0,0,1.8-2,2.2-2c0.3-0.1,0.5,0.4,0.7,0.7s0.2,0.7-0.9,0.9C175.7,123.5,175.9,123.2,174.9,123.5L174.9,123.5z M178,120.9c-0.8-1.4-2.2-0.6-2.2-0.6c-1.4,0.7-1,2.7-0.9,3.2c0,0.1,0,0.1,0,0.1c2.6-4.2,3.1-0.9,3.1-0.9C178.1,122,178,120.9,178,120.9z M263,164.8c-0.1-2.3-0.2-30.2-0.2-30.2l-2.6,2.7c-1.6,1.6-3.2,3.3-4.5,4.6l1.1-1.1c0,0,0.3,18.3-1,27.5c-1.4,9.3-9.5,18.5-17.3,20.8c-2.5,0.8-6.5,0.4-11.5-1.6c16,11,25.7,2.9,25.7,2.9C261.7,184.6,263.1,167.3,263,164.8L263,164.8z M273.9,123.7l-1,0.5c0,0,0,0.1,0.1,0.4c0.1,0.2,0.2,0.7,0.3,1.5c0.3,1.6,0.1,7.4,0.2,9.3c0.2,2,0.6,4.6,0.6,5.7c0,0,0,0,0,0.1c0.1,1.1,0.7,1.5,0.7,1.5l0.5-0.7c0.5-1.3-0.2-5-0.3-5.6c-0.1-0.6-0.3-4.2-0.3-6.9C274.8,126.8,273.9,123.7,273.9,123.7L273.9,123.7z M273.6,123.5c-1-0.2-0.8,0-1.9-0.4c-1-0.4-1-0.7-0.9-0.9c0.1-0.2,0.3-0.8,0.7-0.7C271.8,121.6,273.6,123.5,273.6,123.5L273.6,123.5z M270.7,122.8c0,0,0.5-3.4,3.1,0.9c0,0,0,0,0-0.1c0.1-0.5,0.5-2.5-0.9-3.2c0,0-1.4-0.8-2.2,0.6C270.7,120.9,270.5,122,270.7,122.8z" />
    <path fill="#E8B909" stroke="#000000" stroke-width="0.1658" d="M174.5,146.3c0.1-1.5,0.2-3.6-0.9-3.6c-1.1-0.1-1.3,2-1.4,3.5C172.9,146.2,173.5,146.2,174.5,146.3 M274,146.3c1,0,1.6-0.1,2.4-0.1c-0.1-1.5-0.2-3.6-1.4-3.5C273.9,142.8,274,144.8,274,146.3" />
    <path fill="none" stroke="#000000" stroke-width="0.1431" d="M173.1,143.9c0,0-0.2,2.1-0.2,2.2 M173.7,143.9c0,0,0,1.6-0.1,2.3 M275.7,146.1c0-0.1-0.2-2.2-0.2-2.2 M275,146.2c-0.1-0.7-0.1-2.3-0.1-2.3" />
    <path fill="#E8B909" stroke="#000000" stroke-width="0.1658" d="M175.2,144.9c0,0,0.1,1.6,0,2.3 M174.6,144.9c0,0-0.1,2.1-0.1,2.2 M176.1,147.1c-1,0-1.6,0-2.3,0c0-1.5,0-3.6,1.1-3.6C176.1,143.6,176.1,145.7,176.1,147.1L176.1,147.1z M273.3,147.1c-0.1-0.7,0-2.3,0-2.3 M274,147.1c0-0.1-0.1-2.2-0.1-2.2 M272.5,147.1c0-1.5,0-3.6,1.1-3.6s1.1,2.1,1.1,3.6C274.1,147.1,273.5,147.3,272.5,147.1L272.5,147.1z" />
    <path fill="#B1BABF" stroke="#000000" stroke-width="0.1075" d="M174.8,122.5c-0.3-0.4-0.7-0.6-1.1-0.6c0.1-0.2,0-0.5-0.1-0.6c-0.2-0.2-0.9-0.1-1.5,0.5s-0.7,1.2-0.3,1.5c0.1,0.1,0.3,0.2,0.6,0.1c0.1,0.4,0.2,0.8,0.6,1.2c0.7,0.7,1.7,0.8,2.2,0.2C175.7,124.3,175.4,123.2,174.8,122.5L174.8,122.5z M171.2,126.3c0,0-1-0.6-1.1-1.8c-0.1-0.8,0.5-1.6,0.9-2c0.2,0.1,0.3,0.2,0.3,0.2l0.2-0.1l0.8-0.8l0.5-0.5c0.2-0.2,0.3-0.5,0.3-0.5l-0.1-0.2c0.7-0.7,2.1-2.5,1.4-2.8c-0.6-0.4-2.2,0.9-2.8,1.4l-0.2-0.1c-0.1,0-0.2,0.1-0.3,0.2c-0.2-0.5-0.9-2.1-1.1-3.7c0,0-5.6-1.8-7.5-3.9c1.7,2.6,3.3,6.8,3.6,7.8c1.5,0,3.2,0.2,3.9,1.1c-0.1,0.1-0.2,0.2-0.2,0.4c0,0.1,0,0.2,0.1,0.5c-0.2,0.2-0.9,0.9-1.8,1.1c-1,0.2-2.1-0.9-2.1-0.9l0,0c-0.1,0.4-0.2,0.8-0.2,1.3c0,2.2,1.7,4.1,3.9,4.1C170.3,126.6,170.9,126.5,171.2,126.3L171.2,126.3L171.2,126.3z M273.8,122.5c-0.7,0.7-0.9,1.8-0.3,2.3c0.6,0.6,1.5,0.4,2.2-0.2c0.3-0.4,0.6-0.7,0.6-1.2c0.2,0.1,0.5,0,0.6-0.1c0.3-0.4,0.1-0.9-0.3-1.5c-0.5-0.6-1.3-0.7-1.5-0.5c-0.1,0.1-0.2,0.4-0.1,0.6C274.4,122,274.1,122.2,273.8,122.5L273.8,122.5z M277.3,126.3L277.3,126.3c0.3,0.2,0.9,0.4,1.4,0.4c2.2,0,3.9-1.9,3.9-4.1c0-0.5-0.1-0.8-0.2-1.3l0,0c0,0-0.9,1.2-2.1,0.9c-0.9-0.1-1.6-0.8-1.8-1.1c0.1-0.1,0.1-0.4,0.1-0.5s-0.1-0.2-0.2-0.4c0.7-0.9,2.4-1.1,3.9-1.1c0.1-1.1,1.8-5.3,3.6-7.8c-1.8,2.2-7.5,3.9-7.5,3.9c-0.1,1.8-0.9,3.3-1.1,3.7c-0.1-0.1-0.2-0.2-0.3-0.2l-0.2,0.1c-0.6-0.5-2.2-1.9-2.8-1.4c-0.7,0.4,0.8,2.1,1.4,2.8l0.1,0.5c0,0.1,0.1,0.2,0.3,0.5l0.5,0.5l0.8,0.8l0.2,0.1c0.1,0,0.2-0.1,0.3-0.2c0.3,0.4,0.9,1.2,0.9,2C278.3,125.7,277.3,126.3,277.3,126.3L277.3,126.3z" />
    <path fill="none" stroke="#000000" stroke-width="0.1075" d="M170.2,120.9c0-0.7,0.6-1.3,1.3-1.2c0.7,0,1.1,0.6,1.1,1.3s-0.6,1.3-1.3,1.2C170.7,122.2,170.2,121.6,170.2,120.9z M277.2,122.2c-0.7,0-1.1-0.5-1.3-1.2c0-0.7,0.5-1.3,1.1-1.3c0.7,0,1.1,0.5,1.3,1.2C278.3,121.6,277.9,122.2,277.2,122.2z" />
    <path fill="none" stroke="#000000" stroke-width="0.0719" d="M181.2,217.3l3.9-3.9 M184.6,216l-1.9-2.2 M185.4,213.1l11.8-11.3 M163.1,112.2l7.7,7.8 M166,119.5l3.9-3.9 M166.6,121.8c-0.1,0.7,0.2,2.2,1,3s1.9,1.4,3.2,1.2 M263.4,213.4l3.9,3.9 M265.8,213.7l-1.9,2.2 M251.5,201.8l11.6,11.3 M277.8,119.7l7.7-7.8 M278.4,115.3l3.9,3.9 M277.8,126.1c1.3,0.1,2.5-0.5,3.2-1.2c0.8-0.8,1.1-2.2,1-3" />
    <path fill="#FFDD00" stroke="#000000" stroke-width="0.1431" d="M218.8,196.9c-2.2,0.1-6.3,0.6-6.3,0.6s-7.1,9.7-7.3,11.7s-0.2,3.7,4.6,3c0,0,2.3-0.5,4.2-0.6c2.1-0.7,2.3-0.2,2.5,0c0.2-0.7,0.6-2.6,1-4.6c0.9-4.1,2.3-9.3,2.6-9.8v-0.1C220,196.9,219.6,196.9,218.8,196.9z M228.4,197v0.1c0.3,0.6,1.6,5.7,2.6,9.8c0.5,2.1,0.9,3.9,1,4.6c0.2-0.1,0.5-0.7,2.5,0c1.9,0.1,4.2,0.6,4.2,0.6c4.8,0.7,4.8-0.9,4.6-3s-7.3-11.7-7.3-11.7s-4.1-0.5-6.3-0.6C229,196.9,228.5,196.9,228.4,197z" />
    <path fill="#ED1C24" stroke="#000000" stroke-width="0.1431" d="M220.7,193.4c0,0-0.1,0.7-0.2,1.9l1.9,0.9c0,0-0.2,2.8-0.2,4.5c-0.1,1.1-0.8,8.7-1.3,13.7c-0.2,1.6-0.2,3.2-0.3,3.9c0.1,1.5-1.1,2.9-1.1,2.9c-0.8,0.8-1.1,1.4-1.4,2c0,0.1,0,0.4,0,0.5s0,0.1,0,0.2c0.2,0.9,1.4,1.3,2.3,1.2c1.4-0.2,4-1.9,4-1.9l0.2-26.7L220.7,193.4L220.7,193.4z M227.9,193.4l-3.8,2.9l0.2,26.7c0,0,2.5,1.6,4,1.9c0.9,0.1,2.1-0.2,2.3-1.2c0-0.1,0-0.1,0-0.2s0-0.2,0-0.5c-0.1-0.5-0.6-1.2-1.4-2c0,0-1.3-1.4-1.1-2.9c-0.1-0.8-0.2-2.2-0.3-3.9c-0.5-5-1.3-12.6-1.3-13.7c-0.1-1.6-0.2-4.5-0.2-4.5l1.9-0.9C228,194.1,227.9,193.4,227.9,193.4L227.9,193.4z" />
    <path fill="#034EA2" stroke="#000000" stroke-width="0.1431" stroke-linecap="round" d="M220.4,195.2c-0.1,0.5-0.1,1.2-0.2,1.9v0.1l0,0c-0.3,0.6-1.7,5.7-2.6,9.8c-0.5,2.1-1,4.6-1.3,5.3c-0.2,0.5-3.8,4.7-3.9,6.1c0,0.6,0.5,0.9,1.7,0.8c1.9-0.1,3.2-0.5,4.2-0.7c1.1-0.2,1.7-0.4,2.1,0.4c0,0,0-0.2,0.1-0.7c0.1-0.8,0.2-2.1,0.3-3.9c0.5-5,1.3-12.6,1.3-13.7c0.1-1.6,0.2-4.5,0.2-4.5L220.4,195.2L220.4,195.2z M228.1,195.2l-1.9,0.9c0,0,0.2,2.8,0.2,4.5c0.1,1.1,0.8,8.7,1.3,13.7c0.2,1.8,0.3,3.2,0.3,3.9c0,0.5,0.1,0.7,0.1,0.7c0.3-0.8,0.9-0.7,2.1-0.4c0.9,0.2,2.3,0.6,4.2,0.7c1.3,0.1,1.7-0.2,1.7-0.8c-0.1-1.4-3.7-5.6-3.9-6.1c-0.2-0.7-0.8-3.3-1.3-5.3c-0.9-4.1-2.2-9.3-2.6-9.8l0,0V197C228.2,196.3,228.1,195.7,228.1,195.2L228.1,195.2z" />
    <path fill="#EBC900" stroke="#000000" stroke-width="0.1425" d="M216.4,211.4c-0.1-0.1,0-0.5-2.6,0.2c-0.6,2.7-1.3,6.7-1.3,6.7c0-1.4,2.8-4.2,3.7-5.4C216.4,212.3,216.5,211.8,216.4,211.4L216.4,211.4z M232.3,211.4c-0.2,0.4-0.1,0.9,0.3,1.5c0.8,1.3,3.7,4.1,3.7,5.4c0,0-0.7-4-1.3-6.7C232.3,210.8,232.4,211.3,232.3,211.4L232.3,211.4z" />
    <path fill="#023F88" stroke="#000000" stroke-width="0.1444" d="M220.2,219.5c0.1-0.2,0.2-0.7,0.2-0.7c-0.3-0.8-0.9-0.7-2.2-0.4c-0.1,1.6-0.1,3.4-0.2,4.7c0.1-0.6,0.5-1.2,1.4-2C219.3,221.2,219.9,220.6,220.2,219.5z M229.3,221.2c0.8,0.8,1.3,1.4,1.4,2c-0.1-1.3-0.2-3-0.2-4.7c-1.3-0.2-1.8-0.4-2.2,0.4c0,0,0.1,0.5,0.2,0.7C228.6,220.6,229.3,221.2,229.3,221.2z" />
  </g>
  <g>
    <path fill="#452C25" stroke="#000000" stroke-width="0.1828" d="M223,104.2c0,0-3,7-1.9,7.7c0,0,3.1-5.5,5.7-7.5c1.4-1.3,2.3,0,2.4-1.2c0.2-1.2-3.7-2.8-3.7-2.8l-2.5,3.5" />
    <path fill="#452C25" stroke="#000000" stroke-width="0.1478" d="M212,109.5c0,0-4.4,7.6-3.2,7.7s5.8-9.7,5.8-9.7l-1.6,0.2L212,109.5L212,109.5z" />
    <path fill="#452C25" stroke="#000000" stroke-width="0.1478" d="M213.4,107.4c0,0-4.6,7.5-3.4,7.6c1.1,0.1,6.1-9.6,6.1-9.6l-1.6,0.2L213.4,107.4L213.4,107.4z" />
    <path fill="#452C25" stroke="#000000" stroke-width="0.1478" d="M214.3,106c0,0-5.3,7-4.1,7.3c1.1,0.2,6.9-9,6.9-9l-1.6,0.1L214.3,106L214.3,106z" />
    <path fill="#452C25" stroke="#000000" stroke-width="0.1478" d="M215.7,104.9c0,0-6.1,6.3-5,6.7c1,0.4,8-8,8-8l-1.6-0.1L215.7,104.9z" />
    <path fill="#452C25" stroke="#000000" stroke-width="0.1478" d="M215.9,102.5c0,0-5.4,7-4.2,7.3c1.1,0.2,7.1-8.9,7.1-8.9l-1.6,0.1L215.9,102.5z" />
    <path fill="#452C25" stroke="#000000" stroke-width="0.1478" d="M214.5,108.5c0,0-5.3,7-4.1,7.3c1.1,0.2,6.9-9,6.9-9l-1.6,0.1L214.5,108.5L214.5,108.5z" />
    <path fill="#452C25" stroke="#000000" stroke-width="0.1478" d="M217.5,107.1c0,0-3.1,5.7-2.8,6c0.3,0.2,4-3.3,6-6.7c1.9-3.4-3.3,0.6-3.3,0.6" />
    <path fill="#452C25" stroke="#000000" stroke-width="0.1828" d="M220.5,105.9c0,0-3,7-1.9,7.7c0,0,3.8-4.2,4.8-7.6c0.1-0.4,0-0.2,0-0.2l-0.2-3.6l-2.5,3.5" />
    <path fill="#452C25" stroke="#000000" stroke-width="0.1828" d="M217.7,106.6c0,0-3,7-1.9,7.7c0,0,3.7-4.2,4.8-7.6c0.1-0.3,0-0.2,0-0.2l-0.2-3.6l-2.5,3.5" />
    <path fill="#452C25" stroke="#000000" stroke-width="0.1478" d="M216.3,105.9c0,0-6.1,6.3-5,6.7c1.1,0.4,8-8,8-8l-1.6-0.1L216.3,105.9L216.3,105.9z" />
    <path fill="#452C25" stroke="#000000" stroke-width="0.1478" d="M216.7,106.8c0,0-6.1,6.3-5,6.7c1,0.4,8-8,8-8l-1.6-0.1L216.7,106.8z" />
    <path fill="#452C25" stroke="#000000" stroke-width="0.1478" d="M217.2,107.8c0,0-6.1,6.3-5,6.7c1.1,0.4,8-8,8-8l-1.6-0.1L217.2,107.8z" />
    <path fill="#452C25" stroke="#000000" stroke-width="0.1478" d="M217.6,99.2c0,0-4.6,5.9-3.9,6.8c0.7,0.9,4.8-2.7,6.1-5.3c1.4-2.6-2.2-1.8-2.2-1.8L217.6,99.2z" />
    <path fill="#452C25" stroke="#000000" stroke-width="0.1478" d="M217.5,105.3c0,0-3.9,7.5-2.9,7s4.9-6.1,5.4-7.3s0.2-2.6,0.2-2.6l-3,1.9l0.2,1.4" />
    <path fill="#452C25" stroke="#000000" stroke-width="0.1262" d="M217.5,102.9c0,0,3.2-6,0,1.2c-3.2,7-4.5,5.9-4.5,5.9c-0.2-0.4,2.9-5.2,2.9-5.2s2.3-3.7,2.9-4" />
    <path fill="#452C25" stroke="#000000" stroke-width="0.1347" d="M221.1,103.4c-3.7,7-5,5.9-5,5.9c-0.2-0.4,3.2-5.2,3.2-5.2s2.5-3.6,3.2-4L221.1,103.4z" />
    <path fill="#452C25" stroke="#000000" stroke-width="0.1478" d="M221.2,102.5c0,0-3.7,7.7-2.8,8.3c0,0,2.6-3.7,3.8-6.2c0.1-0.3,0-0.2,0-0.2l1-5L221.2,102.5z" />
    <path fill="#452C25" stroke="#000000" stroke-width="0.1478" d="M224.9,100.8c0,0-3.7,7.7-2.8,8.3c0,0,3-3.5,3.8-6.2s-0.3-1.3-0.3-1.3L224.9,100.8z" />
    <path fill="#452C25" stroke="#000000" stroke-width="0.1478" d="M219.7,99.6c0,0-4.6,5.9-3.9,6.8c0.7,0.9,4.8-2.7,6.1-5.3c1.4-2.6-2.2-1.8-2.2-1.8L219.7,99.6z" />
  </g>
  <g>
    <path fill="#B1BABF" stroke="#000000" stroke-width="0.1431" d="M254.7,193.8c0,1.1-0.3,1.3-0.3,1.3H201v-2.4h53.4C254.4,192.6,254.7,192.7,254.7,193.8L254.7,193.8z" />
    <path fill="#B87510" stroke="#000000" stroke-width="0.1658" d="M204.8,193.9c0,0.4,0,0.7,0,1.1h39.5c0-0.3,0-0.7,0-1.1c0-0.4,0-0.8,0-1.3h-39.5C204.8,193,204.8,193.5,204.8,193.9L204.8,193.9z" />
    <path fill="#B76E11" stroke="#000000" stroke-width="0.1658" d="M204.8,192.6h39.5c0-0.6-0.1-1.2-0.1-1.8H205C204.9,191.4,204.9,192,204.8,192.6L204.8,192.6z" />
    <path fill="#AC620E" stroke="#000000" stroke-width="0.1658" d="M205,190.8h39.3c-0.1-0.6-0.2-1.2-0.2-1.7h-38.8C205.1,189.7,205,190.2,205,190.8L205,190.8z" />
    <path fill="#A2550B" stroke="#000000" stroke-width="0.1658" d="M242.8,187.3h-36.3c-0.7,0-1.2,1.2-1.2,1.8H244C243.9,188.5,243.4,187.3,242.8,187.3L242.8,187.3z" />
    <path fill="#B76E11" stroke="#000000" stroke-width="0.1658" d="M205,196.9h39.3c0.1-0.6,0.1-1.2,0.1-1.9h-39.5C204.9,195.6,204.9,196.2,205,196.9L205,196.9z" />
    <path fill="#AC620E" stroke="#000000" stroke-width="0.1658" d="M205.2,198.4h38.9c0.1-0.5,0.2-1,0.2-1.5H205C205,197.4,205.1,197.9,205.2,198.4L205.2,198.4z" />
    <path fill="#A2550B" stroke="#000000" stroke-width="0.1658" d="M206.5,200.1h36.3c0.7,0,1.2-1.1,1.3-1.6h-38.9C205.2,199,205.7,200.1,206.5,200.1L206.5,200.1z" />
    <path fill="#B1BABF" stroke="#000000" stroke-width="0.1658" d="M198.3,196c0,0,0.9-4.2-0.5-6.6c-1.4-2.4-3.2-3.1-3.6-2.9c-0.4,0.2,4.4-7.1,9.5-0.1c0,0-4.5,0.5-3.6,9.3" />
    <path fill="#D3DCE0" d="M194.9,186.6c1.4-1.6,4.6-3.9,8.1,0.1c0.4-0.2,0.7-0.2,0.7-0.2c-5.1-7-9.9,0.3-9.5,0.1C194.3,186.5,194.6,186.5,194.9,186.6L194.9,186.6" />
    <path fill="#B1BABF" stroke="#000000" stroke-width="0.1658" d="M197.5,194.5c-0.4,0.1-1.6,0.6-2.6,1.4c0,0-3.4-1.8-5.6-2c-0.2,0-0.4,0-0.5,0c0.2,0,0.3,0,0.5-0.1c2.2-0.5,4.9-1.7,5.6-2.2c0.8,0.8,1.8,1.6,2.7,1.6" />
    <path fill="none" stroke="#000000" stroke-width="0.1246" d="M189.3,193.8h8.3" />
    <path fill="none" stroke="#000000" stroke-width="0.1246" d="M194.8,191.6v4.3" />
    <path fill="#B1BABF" stroke="#000000" stroke-width="0.1658" d="M200.2,196c-0.1,1.3-0.4,2.3-0.9,2.3c-0.4,0-0.8-1-0.9-2.4" />
    <path fill="#B1BABF" stroke="#000000" stroke-width="0.1658" d="M197.2,191.7h4.1v4.2h-4.1V191.7z" />
    <path fill="none" stroke="#000000" stroke-width="0.1658" d="M198.1,192.5h2.4v2.6h-2.4V192.5z" />
    <path fill="none" stroke="#000000" stroke-width="0.1658" d="M198.8,193.3h1v1h-1V193.3z" />
    <path fill="none" stroke="#000000" stroke-width="0.1658" d="M203,186.7L203,186.7c0.5-0.2,0.7-0.2,0.7-0.2c-5.1-7-9.9,0.3-9.5,0.1c0.1,0,0.3,0,0.6,0.1h0.1" />
    <path fill="none" stroke="#000000" stroke-width="0.0833" d="M203,186.7c-3.5-4-6.8-1.6-8.2,0" />
    <path fill="#C69024" stroke="#000000" stroke-width="0.1713" d="M214.4,193.8c1.2,2.1,3.5,6.4,3.5,6.4l1.7-0.1c0,0-1-2-3.6-6.4s-4.3-6.5-4.3-6.5l-1.7,0.1C210,187.2,213.2,191.7,214.4,193.8L214.4,193.8z M234.9,193.8c-1.2,2.1-3.5,6.4-3.5,6.4l-1.7-0.1c0,0,1-2,3.6-6.4s4.3-6.5,4.3-6.5l1.7,0.1C239.3,187.2,236.1,191.7,234.9,193.8L234.9,193.8z" />
    <path fill="#C69024" stroke="#000000" stroke-width="0.1658" d="M209.8,200.1c-0.3-1.1-0.6-3.8-0.7-6.5c0-2.8,0.8-6.3,0.8-6.3h-2c0,0-0.8,3.6-0.8,6.3c0,2.8,0.3,5.4,0.7,6.5H209.8z M239.5,200.1c0.3-1.1,0.6-3.8,0.7-6.5c0-2.8-0.8-6.3-0.8-6.3h2c0,0,0.8,3.6,0.8,6.3c0,2.8-0.3,5.4-0.7,6.5H239.5z M221.5,200.1c-0.3-1.7-0.3-3.9-0.3-6.5s0.3-5.6,0.5-6.3h-2c-0.3,1.1-0.5,4.1-0.5,6.3c0,2.3,0.1,4.9,0.3,6.5H221.5L221.5,200.1z M227.6,200.1c0.3-1.7,0.3-3.9,0.3-6.5s-0.3-5.6-0.5-6.3h2c0.3,1.1,0.5,4.1,0.5,6.3c0,2.3-0.1,4.9-0.3,6.5H227.6L227.6,200.1z M234.1,193.8c1.2,2.1,3.5,6.4,3.5,6.4l1.7-0.1c0,0-1-2-3.6-6.4s-4.3-6.5-4.3-6.5l-1.7,0.1C229.7,187.2,233,191.7,234.1,193.8L234.1,193.8z M215.2,193.8c-1.2,2.1-3.5,6.4-3.5,6.4l-1.7-0.1c0,0,1-2,3.6-6.4s4.3-6.5,4.3-6.5l1.7,0.1C219.6,187.2,216.3,191.7,215.2,193.8L215.2,193.8z" />
  </g>
  <g>
    <linearGradient id="Gradient_EC_1" gradientUnits="userSpaceOnUse" x1="-267.4635" y1="27.6229" x2="-266.3822" y2="47.8479" gradientTransform="matrix(1.5066 0 0 -1.6065 627.658 195.3166)">
      <stop offset="0" style="stop-color:#FFFFFF" />
      <stop offset="1" style="stop-color:#1EA8D1" />
    </linearGradient>
    <path fill="url(#Gradient_EC_1)" d="M197.3,148.9c0,19.6,12.4,35.4,27.5,35.4s27.5-15.8,27.5-35.4s-12.4-35.4-27.5-35.4C209.6,113.5,197.3,129.3,197.3,148.9" />
    <path fill="#395054" stroke="#000000" stroke-width="0.1431" d="M240.2,146.1c1.1-0.8,2.3-0.8,3.8-1.3c1-0.4,2.2-0.4,3.2-0.6c0.9-0.2,3.6,1.5,4.5,1.9l0.1,2.5c0,0-4.5,0.5-6-0.1c-1.6-0.6-5.5-2.5-5.5-2.5" />
    <path fill="#006C3C" d="M231.9,148.2l14.6,19.2c0,0-0.2,0.8-3.1,5.4c-2.8,4.6-7,7.3-10.1,9s-7.1,2-12.8,1.4s-11.2-6.4-13.6-9.5c-2.4-3-3.3-6.1-3.3-6.1l3-17.2L231.9,148.2z" />
    <path fill="#6DBE45" stroke="#000000" stroke-width="0.1562" d="M213.5,152.2c-0.3,0.2-0.3,0.6-0.2,0.9c0.1,0.2,0.6,1.3,1.7,1.6c0.5,0.1,1.1,0.2,1.4,0.5c0.2,0.2,0.6,0.5,1.1,0.9c0.6,0.5,0.1,0.6,1.5,0.6s1.9,0.4,2.4,0.5c0.6,0.1,0.9,0.2,2.2,0.4c1.4,0.2,5.8,0,5.6,0.1c-0.1,0-4,0.8-4.2,1.1c-0.2,0.2-0.9-0.4-1.1-0.2c-0.2,0.2-0.6,0.5-0.9,0.7c-0.3,0.2-0.1,0.4,0.2,0.5s0.7,0.2,1.3,0.5c0.6,0.2,0.6,0.4,1.8,0.5c1.3,0.2,0.8,0,1.9,0.2c1.3,0.2,0.9,0.2,2.3,0.2c1.4,0,0.2,0.4,2.1,0.2c1.7-0.1,1.1,0,1.9,0c0.8,0,0.9,0.2,1.7,0.2s2.6,0.5,1.8,0.5c-0.5,0-1.3-0.2-2.1-0.1c-0.6,0-1-0.1-1.4,0.1c-0.2,0.2-0.6,0.5-1.4,1.1c-0.8,0.6-0.2,0.8,0.1,1.1c0.2,0.2,0.6,0.2,0.9,0.4c0.3,0.1,0.7,0.1,1.7,0.5s1.3,0.5,1.9,0.5c0.7,0,1.6,0.2,1.6,0.2s1.3,0.6,1.9,0.6c0.7,0,0.5,0.2,1.3,0.6c0.8,0.4,0.8,0.1,1.5,0.1s0.9,0.1,1.3,0.4c0.2,0.1,0.6,0.2,0.7,0.4c0,0,1.7-4.8,2.4-6.9c0.7-2.1,1.4-8.1,1.4-8.4s-0.9-0.9-1.3-0.8c-0.3,0.1-1.6,0.1-2.1,0.1H241c-0.3,0-0.6,0.2-1.3,0c-0.7-0.4-1.8-0.5-2.3-0.5c-0.3,0-2.1,0.1-2.4,0.1c-0.3,0-4.4-0.2-4.9-0.1c-0.7,0-1.9,0-2.6,0c-0.8,0-1.8,0-2.2-0.1c-0.3,0-1.8-0.1-2.2,0.1c-0.3,0.2-1.4,0.4-1.7,0.5c-0.5,0.1-1.6,0.4-2.3,0.4c-0.6,0-2.4,0.4-3,0.4C215.5,152.2,213.5,152.2,213.5,152.2 M212.6,153.2c0.5,0.6,0,0.2-1,0.7c-0.8,0.5,3.6,2.7,4,3.2s-0.2,0,0.5,0.2c0.6,0.2,1.4,0.5,0.8,0.7c-0.5,0.2-1.1,0.1-1.7,0.4s-0.2,0.2-1,0.5c-0.9,0.1-1,0.1-1.3,0.1s-0.1-0.1-0.7-0.1c-0.6,0-0.1,0.1-1.1,0.1c-0.1,0-1.5,0.1-1.5,0.2c0.7,0.1,2.3,0.1,3,0.2c0.3,0,0.8,0.2,1.4,0.4c0.3,0.1,0.6,0.2,0.9,0.6c0.2,0.2,0.3,0.4,0.6,0.4c0.2,0,0.8,0.2,0.2,0.5s-0.2,0.4-0.8,0.4s-0.9,0-0.9,0s-0.7,0.1-1,0c-0.2-0.1-0.7-0.4-0.7-0.1s0.1,0.4-0.2,0.4s-0.9-0.2-0.9-0.2s-0.2,0.2-0.9,0.2c-0.6,0-0.6,0-1.3,0s-1-0.1-1,0.1c0,0.4-0.6,0.2-0.5,0.5c0.1,0-0.8,0-0.7,0c1.3,0.4,1.5-0.1,3,0.2c1.5,0.5,0.5,0.2,1.6,0.6c1.1,0.4,1,0.1,1.5,0.5s0.7,0.2,0.9,0.5c0.2,0.2,0.3-0.1,0.5,0.4c0.1,0.5,0.6,0.8,0.2,0.9c-0.3,0.1-0.3,0.1-0.8,0.1s-0.2-0.1-0.9-0.2c-0.8,0-1.3-0.1-1.3-0.1s-0.5,0,0,0.2s0,0.5-0.5,0.7s-0.8,0.2-1,0.2s0,0-0.8,0.2s-0.6,0.2-1.1,0.5c-0.5,0.2-0.7,0.2-1.3,0.4c-0.6,0.1-0.5,0.1-0.9,0.2c-0.5,0.1-0.8,0.1-1,0.2c-0.2,0-0.8,0.1-0.8,0.1s-1.9-3.2-2.9-7c-0.9-3.9-1.4-10.3-1.4-10.7s1.4-0.4,1.8-0.1s2.8,0.4,3.8,0.5s3.7,0.5,3.9,0.6s0.8-0.4,1.4,0c0.5,0.4,2.1,1.4,2.1,1.4" />
    <path fill="#557176" stroke="#000000" stroke-width="0.1562" d="M198.6,151.4c0,0,0.1-0.7,1.7-0.7c1.6,0,1.1,0.2,3.1,0.4c1.9,0.2,3.3,0.2,3.9,0.4c0.7,0.1,2.1,0.2,2.5,0.4c0.5,0.2,1.4,0.6,1.4,0.6s-0.3,0.2,1,0.2c1.4,0,1-0.1,3-0.1c1.9,0,0.7,0.5,3.2,0s4.5-0.8,5.2-0.9c0.7-0.2-0.8-0.7,1.7-0.4s3.7,0.1,4,0.1s2.2,0.1,3,0.1s1.9,0,2.5,0.1c0.5,0.1,1.3-0.1,2.3,0.1c1,0.2,1.4-0.4,2.2,0.2c0.8,0.5,2.3,0.2,2.9,0.1c0.6-0.1,1.7,0,2.1,0s1.9,0.2,2.6,0.2c0.8,0,2.2-0.2,2.2-0.2l1.4,0.2c0,0,0.2-3.6,0.2-4s0.9-1.1-0.7-1.2c-5.7-0.6-3.6-0.9-7-1.2c-0.8-0.2-4.8-1.2-5.6-1.4s-5.3-1.5-6.5-1.5c-1.4,0-4.6,0.2-5.4,0.2c-0.8,0-7.9-0.2-8.9-0.2c0,0-2.6-0.9-3.3-1.2s-0.8-0.2-2.9-0.1c-2.1,0.1-2.6,0.4-4.6,0.1s-3.7,0-4.5,0.2s-2.2,0.7-2.2,0.7L198.6,151.4L198.6,151.4z" />
    <linearGradient id="Gradient_EC_2" gradientUnits="userSpaceOnUse" x1="-267.0016" y1="31.2323" x2="-266.8923" y2="8.398" gradientTransform="matrix(1.5066 0 0 -1.6065 627.658 195.3166)">
      <stop offset="0" style="stop-color:#FFFFFF" />
      <stop offset="0.1312" style="stop-color:#C1D3E8" />
      <stop offset="0.2994" style="stop-color:#88B0D5" />
      <stop offset="0.4634" style="stop-color:#5998C6" />
      <stop offset="0.6191" style="stop-color:#2C87BC" />
      <stop offset="0.7645" style="stop-color:#007DB5" />
      <stop offset="0.8956" style="stop-color:#0077B0" />
      <stop offset="1" style="stop-color:#0075AF" />
    </linearGradient>
    <path fill="url(#Gradient_EC_2)" stroke="#000000" stroke-width="0.0781" d="M207.9,159L207.9,159L207.9,159 M225.9,158.5L225.9,158.5L225.9,158.5L225.9,158.5 M226.1,158.4c0.2-0.1,0.8-0.2,1.3-0.2C226.9,158.3,226.5,158.4,226.1,158.4 M227.6,158c-0.1,0-0.1,0-0.2,0c0.9-0.2,1.9-0.4,2.1-0.5C229.4,157.7,228.5,157.9,227.6,158L227.6,158z M210.5,147.3c-0.3,0.2-1.7,0.8-2.4,1.2s-0.8,1.1-0.5,1.2c0.2,0.1,1.9,1.2,2.1,1.3c0.1,0.1-0.7,0.6-0.8,0.6c-0.1,0.1,0,0.2,0,0.2c0.9,1.2,4.2,1.3,3.7,1.6c-0.6,0.4-1.5,0.4-0.9,0.9c0.5,0.5,1.6,1.4,2.3,1.8c1,0.5,0.9,0.9,1.1,1.2c0.5,0.5,0.2,0.4,0.8,0.6s1.4,0.5,0.8,0.7c-0.5,0.2-1.1,0.1-1.7,0.4s-0.2,0.2-1,0.5c-0.9,0.1-1,0.1-1.3,0.1s-0.1-0.1-0.6-0.1s0.1,0-0.9,0c-0.9,0-2.8-0.5-3.2-0.5c0.5,0.1,2.5,0.7,3.2,0.8c0.7,0.2,0.6,0.1,1.1,0.2s1,0.2,1.4,0.4c0.3,0.1,0.6,0.2,0.9,0.6c0.2,0.2,0.3,0.4,0.6,0.4c0.2,0,0.8,0.2,0.2,0.5c-0.6,0.2-0.2,0.4-0.8,0.4s-0.9,0-0.9,0s-0.7,0.1-1,0c-0.2-0.1-0.7-0.4-0.7-0.1c0,0.2,0.1,0.4-0.2,0.4s-0.9-0.2-0.9-0.2s-0.2,0.2-0.9,0.2c-0.3,0-0.5,0-0.6,0s-0.2,0-0.6,0c-0.2,0-0.5,0-0.6,0c-0.2,0-0.3,0-0.5,0.1c-0.1,0.2,0.7,0.4-0.5,0.2c-1.1-0.2-0.7-0.2,0.5,0.2c1.3,0.4,0.3,0,1.8,0.5s0.5,0.2,1.6,0.6c1.1,0.4,1,0.1,1.5,0.5c0.6,0.4,0.7,0.2,0.9,0.5c0.2,0.2,0.3-0.1,0.5,0.4c0.1,0.5,0.6,0.8,0.2,0.9c-0.3,0.1-0.3,0.1-0.8,0.1s-0.2-0.1-0.9-0.2c-0.8,0-1.3-0.1-1.3-0.1s-0.5,0,0,0.2s0,0.5-0.5,0.7s-0.8,0.2-1,0.2s0,0-0.8,0.2s-0.6,0.2-1.1,0.5c-0.5,0.2-0.7,0.2-1.3,0.4c-0.6,0.1-0.5,0.1-0.9,0.2c-0.5,0.1-0.8,0.1-1,0.2c-0.2,0-0.5,0-0.5,0s0.9,3,3.3,6.1c2.4,3,7.9,8.9,13.6,9.5c5.7,0.6,9.7,0.4,12.8-1.4c3.1-1.8,7.3-4.5,10.1-9c2.8-4.6,3-5.2,3-5.2s-0.6-0.2-1-0.1s-0.5-0.8-1.1-0.8c-0.7,0-0.6,0.2-1.5-0.1c-0.8-0.4-0.6-0.5-1.3-0.6c-0.7,0-1.9-0.6-1.9-0.6s-0.9-0.2-1.6-0.2s-0.9-0.1-1.9-0.5s-1.4-0.4-1.7-0.5s-0.7-0.2-0.9-0.4s-0.9-0.5-0.1-1.1s1-0.9,1.4-1.1c0.3-0.1,0.9-0.6,1.5-0.6s0.6-0.2,1.4-0.2c0.8,0-0.5-0.4-1.3-0.2c-0.8,0-0.8,0.2-1.5,0.2s-0.2,0-2.1,0.1c-1.8,0.1-0.7,0-2.1,0c-1.4,0-1,0-2.3-0.2s-0.7-0.1-1.9-0.2c-1.3-0.2-1.3-0.2-1.8-0.5s-0.9-0.4-1.3-0.5c-0.3-0.1-0.6-0.2-0.2-0.5s1.6-1.3,1.9-1.4c0.1-0.1,0.3-0.1,0.7-0.2c-0.1,0-0.2,0-0.2,0.1H226c-0.2,0-0.7,0.1-1.5,0c-1.4-0.2-1.6-0.2-2.2-0.4c-0.6-0.1-1-0.5-2.4-0.5s-0.9-0.2-1.5-0.6c-0.6-0.5-0.9-0.7-1.1-0.9c-0.2-0.2-0.3-0.6-0.9-0.7c-1.3-0.4-2.3-1.3-2.2-1.4c0.2-0.4,0.7-0.5,0.2-0.9c-0.5-0.5-3.3-0.9-4.2-1.2c0,0,0-0.1,0.1-0.1c0.2-0.1,0.6-0.2,0.9-0.4c0.3-0.2,0-0.5-0.5-0.7c-0.7-0.4-1.7-0.8-2.2-1.2s0.6-1.1,1.6-1.4c1-0.5,3.7-2.7,4-3v-0.1C213.8,144.7,210.9,147,210.5,147.3" />
    <path fill="#FFFFFF" stroke="#000000" stroke-width="0.1431" d="M198,142c0,0,2.9-0.2,2.8,0.2c-0.1,0.5,0.1,0.5,0.9,0.5c0.8,0,2.9-0.2,3.1,0.1c0.2,0.4,2.3-0.1,3.1-0.2c0.8-0.1,1.4-0.1,1.7-0.2c0.3-0.1,1.3-0.2,1.3,0s0.2,0.9,0.2,0.9s0.9,0.8,1.5,0.8c0.7,0,0.9,0.2,1,0.5c0.1,0.2,0,0.7,0.6,0.5c0.6-0.1,0.1,0.1,1.4-0.4c1.4-0.5,0.8-0.1,1.1-0.4c0.3-0.2,0.8-0.5,1.4-0.4c0.7,0.1,1.1,0.5,1.4,0.4c0.2-0.1,0.7-0.2,1.6,0.2c0.9,0.5,1.9,0.6,2.6,0.7c0.8,0.1,1.3,0.2,1.6,0s1.4-0.2,1.7-0.2s-0.2-0.1,1.4,0.1c1.6,0.2,1.7,0.2,1.9,0s0.8-0.4,1-0.5s0.5-0.5,0.7-0.2c0.2,0.1,1,0.5,1.5,0.7c0.6,0.2,1.9,0.5,2.6,0.2c0.8-0.1,0.2-0.1,1.5,0.2c1.3,0.2,1.7,0.4,2.2,0.4s2.3-0.2,2.3-0.2l-0.7-0.1c-0.8-0.7-0.5-0.1-1.9-0.9c-1.5-0.8-0.9-0.5-3.1-1.1c-2.2-0.5-1.7-0.9-2.4-1.4s-0.8,0-1.5,0c-0.8,0-0.5-0.5-2.3-1.9s-1.7-1.1-2.4-1.5c-0.7-0.6-2.2-1.5-3-2.2s-2.4-0.6-3.1-0.6c-1.6,0-2.2-1.5-3.6-1.3c-0.6,0.1-1.7-0.8-3.2-1.2s-3.1,0.9-4.1,1.6c-1.1,0.7-3.8,2.2-5,3.3c-1.3,1.1-3.8,2.3-5.4,2.9C199.2,141.9,198,141.9,198,142" />
    <path fill="#949699" stroke="#000000" stroke-width="0.0719" d="M246.9,131.4c0.2,0.5,1.4,4.5,1.4,4.5c-3.9-4.3-13-7.4-23.6-7.4c-10.4,0-19.5,3-23.5,7.3c-0.1,0.1,0.6-2,1.4-3.9c0.8-1.9,1.7-3.7,1.7-3.7c4.7-2.9,12-4.8,20.4-4.8s15.8,1.9,20.4,4.9C245.1,128,246.6,130.4,246.9,131.4L246.9,131.4z" />
    <path fill="#FFDD00" stroke="#000000" stroke-width="0.1431" d="M231.3,125.9c0,0-1.6-0.5-2.5-0.7c0.5-0.4,1.7-1.1,2.1-1.6c0,0-2,0.2-2.8,0.3c0.3-0.4,1.2-1.7,1.5-2.3c0,0-2.1,0.9-2.5,1.4c0.1-0.5,0.5-2.1,0.5-2.8c0,0-1.7,1.8-2,2.3c-0.1-0.6-0.5-2.3-0.7-3c0,0-0.4,2.1-0.5,2.9c-0.2-0.3-1.1-1.9-1.6-2.4c0,0,0,2.2,0.2,2.8c-0.4-0.3-1.9-1.2-2.6-1.4c0,0,0.9,2,1.3,2.5c-0.6-0.2-2-0.5-2.6-0.4c0,0,1.3,1.2,1.9,1.7c-0.7,0.1-2,0.3-2.5,0.5c0,0,1.7,0.7,2.5,0.9c-0.6,0.3-1.7,1-2.2,1.3l2.9-0.1c0,0-1.4,1.6-1.7,2.5c0,0,2-0.9,2.7-1.2c-0.1,0.4-0.5,2.1-0.4,2.8c0,0,1.4-1.7,1.8-2.3c0,0.3,0.4,2.1,0.7,2.9c0,0,0.7-2.2,0.8-2.9c0.2,0.3,1.3,1.8,1.8,2.3c0,0-0.1-2.1-0.3-3c0.5,0.3,2,1,2.6,1.1c0,0-1-1.4-1.5-2.2c0.6,0.1,1.9,0.3,2.6,0.2c0,0-1.4-1.1-2.1-1.5C229.5,126.5,230.8,126.2,231.3,125.9z" />
    <path fill="#FFDD00" stroke="#000000" stroke-width="0.1431" d="M225,122.5c2.099,0,3.8,1.657,3.8,3.7s-1.701,3.7-3.8,3.7s-3.8-1.657-3.8-3.7S222.901,122.5,225,122.5z"/>
    <path fill="#000000" d="M223.7,125c0,0.2-0.1,0.4-0.3,0.4s-0.3-0.1-0.3-0.4c0-0.2,0.1-0.4,0.3-0.4C223.6,124.7,223.7,124.9,223.7,125 M226.8,125.1c0,0.2-0.1,0.4-0.3,0.4s-0.3-0.1-0.3-0.4c0-0.2,0.1-0.4,0.3-0.4C226.7,124.8,226.8,124.9,226.8,125.1" />
    <path fill="none" stroke="#000000" stroke-width="0.2138" d="M222.8,125c0.3-0.6,0.9-0.6,1.4,0 M225.8,125.1c0.3-0.6,0.9-0.6,1.4,0 M224.4,126.4c0.2,0,0.3,0.1,0.6,0.1c0.2,0,0.3-0.1,0.6-0.1 M225,127.5c0.4,0,0.8,0.1,0.8,0.1s-0.4,0.1-0.8,0.1c-0.4,0-0.8-0.1-0.8-0.1S224.5,127.5,225,127.5z M224.6,128.4c0.2,0,0.5,0,0.6,0" />
    <path fill="#FFDD00" stroke="#000000" stroke-width="0.18" d="M210.1,127.8l-0.3-0.7c0,0-1,0.1-1.5,0.9c0,0-0.7-0.8-1.8-0.4v1.1c0,0,0.8-1.2,1.6-0.4c0,0-0.3,1.6,0.6,1.5c0.9-0.1,0.2-1.4,0.1-1.5l-0.2-0.1C208.5,128.4,209,127.5,210.1,127.8 M208.6,129.1c0.1,0.2,0,0.5-0.1,0.5s-0.2-0.1-0.2-0.4c-0.1-0.2,0-0.5,0.1-0.5S208.5,128.9,208.6,129.1 M216.4,125c-0.1,0-0.2-0.2-0.6-0.1c0,0,0.2,0.2,0.2,0.4c0,0,0,0.2-0.2,0.2c0,0-0.8-0.1-1.5,0.4c0,0-0.5,0.1-0.5,0c0,0-0.1-0.1,0-0.2l0,0c0.1-0.1-0.5,0.1-0.3,0.4c0.1,0.2,0.5,0.4,0.8,0.4l0,0l0,0c0,0,0.2,0,0,0c0,0,0.8,1.8,1.3,1.5c0.5-0.2,0.6-1.8,0.5-2v-0.1l0,0c0,0,0-0.1,0,0C215.9,125.8,217.1,125.5,216.4,125 M215.3,127.2c-0.3,0.1-0.8-1.1-0.8-1.1c0.5-0.4,0.8-0.4,0.9-0.2c-0.1-0.1,0,0,0,0l0,0l0,0C215.6,125.9,215.7,127.2,215.3,127.2 M236.3,128.8L236.3,128.8c-0.3-0.1-0.5-0.5-0.5-0.7s0-0.3,0.1-0.5c-0.4-0.2-0.8-0.3-1.1-0.3c-0.1,0.1-0.1,0.2-0.2,0.2l0,0c-0.3,0.1-0.6,0.3-0.8,0.2c-0.1,0-0.1-0.1-0.2-0.1c-0.1-0.2-0.1-0.3,0-0.5s0.3-0.3,0.5-0.3s0.3,0,0.5,0.1c0-0.2,0-0.3,0-0.4v-0.1c-0.2-0.1-0.3-0.1-0.3-0.1h-0.1l0,0c-0.1-0.1-0.4-0.4-0.4-0.7c0-0.2,0.1-0.3,0.2-0.4c0.1,0,0.2-0.1,0.4,0l0,0l0.3,0.4c0,0,0.2,0.2,0.2,0.3v0.3c0.2,0.1,0.4,0.1,0.5,0.2c0.3,0.1,0.6,0.2,0.8,0.3c0.1-0.1,0.3-0.2,0.5-0.3c0.4-0.1,0.8-0.3,1.1,0l0,0c0.1,0.3,0,0.6-0.3,0.8c-0.3,0.1-0.6,0.1-0.9,0c-0.1,0-0.2,0-0.2-0.1c0,0.1-0.1,0.2-0.1,0.3l0,0l0,0l0,0c0.3,0.2,0.4,0.7,0.3,1C236.6,128.8,236.4,128.8,236.3,128.8z M236.2,127.8c0,0.1,0,0.2,0,0.4c0,0.1,0.1,0.4,0.2,0.4l0,0c0,0,0,0,0.1-0.1c0.1-0.2,0-0.5-0.1-0.6C236.2,127.8,236.2,127.8,236.2,127.8z M234,127.1c-0.1,0-0.2,0.1-0.2,0.1v0.1l0,0c-0.1,0.1-0.1,0.1,0,0.2l0,0c0.1,0.1,0.4-0.1,0.6-0.2l0.1-0.1C234.3,127.1,234.2,127.1,234,127.1z M234.8,127c0.3,0.1,0.7,0.2,1.2,0.4c0.1-0.2,0.1-0.3,0.1-0.4c-0.2-0.1-0.5-0.2-0.8-0.3c-0.1,0-0.3-0.1-0.5-0.2l0,0C234.8,126.7,234.8,126.8,234.8,127z M236.4,126.9c0.1,0.1,0.1,0.1,0.2,0.1h0.1c0.2,0.1,0.5,0.1,0.7,0c0.1-0.1,0.2-0.2,0.2-0.4c-0.2-0.1-0.4-0.1-0.8,0.1C236.7,126.7,236.5,126.8,236.4,126.9z M234.3,126c0.1,0,0.1,0,0.3,0v-0.1c0,0,0-0.1-0.1-0.1l-0.3-0.3c-0.1,0-0.1,0-0.1,0s0,0,0,0.1C234.1,125.7,234.2,125.9,234.3,126z M241.8,129.1c0,0-0.5-0.2-0.8,0.2c0,0-1.3-0.1-0.5-2c0,0-0.8,0.4-0.6,1.5c0,0,0.1,1.1,1.3,1.4c0,0,0.9,0.2,0.9-0.7C242.2,129.6,242,129.2,241.8,129.1 M241.5,129.9c-0.1,0-0.2-0.1-0.2-0.2c0-0.1,0.1-0.2,0.2-0.2s0.2,0.1,0.2,0.2C241.7,129.8,241.6,129.9,241.5,129.9 M241.1,128.8c0,0,0.6,0.1,0.8-0.5c0,0,1.3-0.1,0.8,1.9c0,0.1,0.7-0.5,0.2-1.6c0,0-0.3-0.9-1.5-1.2c0,0-0.9,0-0.8,0.9C240.7,128.3,240.8,128.8,241.1,128.8 M241.2,127.9c0.1,0,0.2,0,0.2,0.2c0,0.1,0,0.2-0.1,0.2s-0.2-0.1-0.2-0.2S241.1,127.9,241.2,127.9" />
    <path fill="#B1BABF" d="M236.5,114c0,0-5.3-3.3-12.2-3.2c-5,0.1-10.8,2.9-10.8,2.9c-5.7,3.4-10.5,9.6-13.4,17.1c-2.1,5.4-3.5,11.4-3.5,17.9c0,18.5,10.9,35.3,23.3,36.7c0,0,1.9,0.8,4.5,0.8s5-0.4,5-0.4c13.1-3.3,22.5-18.4,23.4-37.1C254,124.2,234,112.4,236.5,114 M229.4,183.6c0,0-2.6,0.5-4.9,0.5c-2.4,0-4.2-0.7-4.2-0.7c-11.6-3.2-20.7-17.1-20.7-34.1c0-6,1-11.8,2.8-16.7c2.6-6.9,7.1-12.2,12.4-15.5c0,0,5.3-3.3,9.7-3.3c6.2-0.1,10.9,3.5,10.9,3.5c8.7,5.5,14.7,17.7,14.7,31.8C250.1,166.4,241.2,180.6,229.4,183.6" />
    <path fill="#C69024" stroke="#080101" stroke-width="0.1538" d="M236.4,113.8C236.5,113.8,236.5,113.8,236.4,113.8l-1.6,3.7c0,0,0,0-0.1,0c-1.4-0.8-5.5-3.2-10.4-3c-4,0-8.5,2.5-9.5,3c0.3-0.8-1.8-3.6-1.8-3.6l0.5-0.4c0,0,5.7-3.4,10.8-3.4C231.2,110,236.4,113.8,236.4,113.8 M213.4,114.3c-9.6,5.9-16.4,19-16.4,34.2c0,18,9.4,33.1,22,36.7l-0.3,0.7c-12.7-3.6-22.1-19-22.1-37.2c0-15.3,6.6-28.6,16.3-34.7L213.4,114.3L213.4,114.3z M236.2,114.5c9.6,5.9,16.4,19,16.4,34.2c0,18-9.5,33.1-22,36.7l0.3,0.7c12.7-3.6,22.2-19,22.2-37.2c0-15.3-6.6-28.6-16.3-34.7h-0.1l-0.7,0.5L236.2,114.5L236.2,114.5z M214.6,117.5c-8.8,5.4-14.9,17.5-14.9,31.5c0,16.6,8.6,30.5,20.1,33.7l0.2,0.8l-0.5-0.2c-11.6-3.4-20.2-17.5-20.2-34.3c0-14.2,6.1-26.4,14.9-31.9h0.1l0.6,0.4H214.6L214.6,117.5z M234.9,117.5c8.8,5.4,14.9,17.5,14.9,31.5c0,16.6-8.6,30.6-20.1,33.7v0.7c0.1,0,0.3-0.1,0.5-0.1c11.5-3.5,20.1-17.5,20.1-34.3c0-14.2-6.1-26.4-14.9-32l0,0l-0.5-0.4l-0.2,0.7L234.9,117.5L234.9,117.5z M230.8,186c0,0-0.2-0.1-0.5-0.4c-0.2-1.2-0.8-1.6-0.8-1.6h-0.1c-0.1-0.4-0.2-0.9-0.1-1.4h-0.1c-1.5,0.4-3.2,0.6-4.9,0.6c-1.4,0-3-0.2-4.4-0.7h-0.2c0.2,0.5,0.1,0.9,0,1.4l0,0c0,0-0.6,0.5-0.8,1.4c-0.2,0.2-0.5,0.5-0.5,0.5c0.1,0,0.2,0.1,0.3,0.1c0,0,0,0,0,0.1c0,0.9,0.9,1.2,1.5,1.2c0.2,1.3,0.9,1.1,1.4,0.8c-0.1,0.1-0.1,0.1-0.1,0.1c0.1,0.8,0.5,0.9,1,1.3c0,0,0.3,0.2,0.5,0.4l0,0c0.5,0.6,0.8,2.2,1.4,2.2h0.1c0.6,0,0.9-1.5,1.4-2.2c0.1-0.1,0.5-0.4,0.5-0.4c0.5-0.4,0.9-0.5,1-1.3c0,0,0,0-0.1-0.1c0.5,0.2,1.3,0.4,1.4-0.8c0.6,0,1.5-0.2,1.5-1.2C230.6,186,230.7,186,230.8,186L230.8,186z" />
    <path fill="#C69024" stroke="#080101" stroke-width="0.1781" d="M237.1,114.1L237.1,114.1c-0.8,0.4-1.5,1.4-1.7,2.6c-0.1,0.4-0.1,0.8-0.1,1.2c0,0-0.9-0.5-0.9-0.6c0-0.2,0-0.6,0.1-0.9c0.2-1.3,1-2.3,1.9-2.7C236.4,113.6,237.1,114.1,237.1,114.1L237.1,114.1z M212.2,114.2L212.2,114.2c0.8,0.4,1.5,1.4,1.7,2.6c0.1,0.4,0.1,0.8,0.1,1.2c0,0,0.9-0.5,0.9-0.6c0-0.4,0-0.6-0.1-0.9c-0.2-1.3-1-2.3-1.9-2.7C212.9,113.8,212.2,114.2,212.2,114.2L212.2,114.2z" />
    <path fill="#C69024" stroke="#080101" stroke-width="0.1658" d="M231.4,185.8c-0.7-0.4-1.3-1.3-1.4-2.3c0-0.4-0.1-0.7,0-0.9l-0.8-0.1c-0.1,0.4-0.1,0.8,0,1.3c0.2,1.2,0.9,2.1,1.6,2.5L231.4,185.8L231.4,185.8z M218.2,185.8c0.7-0.4,1.3-1.3,1.4-2.3c0-0.4,0.1-0.7,0-0.9l0.8-0.1c0.1,0.4,0.1,0.8,0,1.3c-0.2,1.2-0.9,2.1-1.6,2.5L218.2,185.8z" />
    <path fill="#000000" d="M220.2,187c0.6-0.5,0.7-1.1,0.9-1.8v0.2c-0.1,0.7-0.3,1.4-0.9,1.8C220.2,187.2,220.1,187.1,220.2,187z M221.5,187.8c0,0.2,0,0.3,0,0.3c0.7-0.3,1-1.3,1.2-2c0-0.1,0-0.1,0-0.2C222.5,186.6,222.2,187.6,221.5,187.8z M223,189.9c0.5-0.7,0.7-1.3,0.8-2.2v-0.1c-0.1,0.8-0.3,1.5-0.7,2.1C223,189.7,223,189.8,223,189.9z M228.6,187c-0.6-0.4-0.8-1.1-0.9-1.8c0,0,0,0.1,0,0.2c0.2,0.7,0.3,1.4,0.9,1.8C228.6,187.2,228.7,187,228.6,187z M226.2,186.1c0,0,0,0.1,0,0.2c0.2,0.7,0.5,1.7,1.2,2c-0.1-0.2,0-0.3,0-0.3C226.7,187.7,226.4,186.7,226.2,186.1z M225.6,189.4c0.1,0.1,0.2,0.3,0.3,0.4v-0.1C225.8,189.6,225.7,189.5,225.6,189.4z M225.1,187.7C225.1,187.8,225.1,187.8,225.1,187.7L225.1,187.7L225.1,187.7z M225.9,189.9L225.9,189.9L225.9,189.9z M225.6,189.4c-0.3-0.5-0.4-1-0.5-1.6C225.2,188.4,225.3,188.9,225.6,189.4z" />
  </g>
  <g>
    <path fill="#452C25" stroke="#000000" stroke-width="0.1713" d="M206.9,95.2c0,0-1.3,3-0.6,3.3s2.5-0.2,4.1-2.9c1.5-2.7-0.9-1.7-0.9-1.7L206.9,95.2L206.9,95.2z" />
    <path fill="#452C25" stroke="#000000" stroke-width="0.1713" d="M215.1,97.2c0,0-0.2,4,0,4.3s2.2,0.3,2.3-2.7s-0.4-3.1-0.4-3.1L215.1,97.2" />
    <path fill="#452C25" stroke="#000000" stroke-width="0.1713" d="M216.2,92.4c0,0-1.4,4.5-0.1,5.4c1.4,0.9,2.5-4.4,2.5-5.6C218.8,91,216.2,92.4,216.2,92.4L216.2,92.4z" />
    <path fill="#452C25" stroke="#000000" stroke-width="0.1713" d="M217.2,98.1c0,0,0.3,4.2,1,4.3c0.8,0.2,2-1.2,2-2.3c0-1.1-1.3-3.6-1.3-3.6l-1.8,1.3" />
    <path fill="#452C25" stroke="#000000" stroke-width="0.1713" d="M217.3,93.1c0,0-1.4,4.5-0.1,5.4c1.4,0.9,2.5-4.4,2.5-5.6C219.8,91.7,217.3,93.1,217.3,93.1L217.3,93.1z" />
    <path fill="#452C25" stroke="#000000" stroke-width="0.1713" d="M217.4,85.9c0,0-2.1,2.2-2,3.3c0.1,1.2,3.1-1.6,3.3-2.2C219,86.6,217.4,85.9,217.4,85.9L217.4,85.9z" />
    <path fill="#452C25" stroke="#000000" stroke-width="0.1713" d="M216,84.8c0,0-1.7,3-1.2,4s2-0.7,2.8-1.8C218.3,85.9,216,84.8,216,84.8L216,84.8z" />
    <path fill="#452C25" stroke="#000000" stroke-width="0.1713" d="M212.2,85.2c0,0-1.1,4.1-0.3,4.5c1.6,0.8,2.7-2.8,2.8-4.2C214.9,84,212.2,85.2,212.2,85.2L212.2,85.2z" />
    <path fill="#452C25" stroke="#000000" stroke-width="0.1713" d="M214.6,85.2c0,0-2.1,2.2-2,3.3c0.1,1.2,3.1-1.6,3.3-2.2C216.2,85.9,214.6,85.2,214.6,85.2L214.6,85.2z" />
    <path fill="#452C25" stroke="#000000" stroke-width="0.1713" d="M179.2,85.5c0,0-4.3,2.2-4.7,3.1s13-1.4,20.3-6.6l-3-1.8L179.2,85.5L179.2,85.5z" />
    <path fill="#452C25" stroke="#000000" stroke-width="0.1713" d="M184.2,86.3c0,0-7.8,2.9-2.2,3c0,0,11.2-2.3,17.2-6.9l-1.5-2.2L184.2,86.3L184.2,86.3z" />
    <path fill="#452C25" stroke="#000000" stroke-width="0.1713" d="M195.7,78.5c0,0-8.3,4.2-7.3,4.7c0.9,0.5,6.8-0.8,9.8-2.8c3.1-1.9,4.4-3,4.4-3l-3.7-1L195.7,78.5L195.7,78.5z" />
    <path fill="#452C25" stroke="#000000" stroke-width="0.1713" d="M192.6,87.8c0,0-3,2.5-2.6,2.7c0.3,0.3,6.4-0.7,11.1-4.4l-0.6-2.2l-7.9,3.7" />
    <path fill="#452C25" stroke="#000000" stroke-width="0.1713" d="M187.4,87.3c0,0-2.8,2.2-2.2,2.4c0.6,0.2,3,1.9,13.6-5l1.2-0.8l-1.9-2.7L187.4,87.3L187.4,87.3z" />
    <path fill="#452C25" stroke="#000000" stroke-width="0.1713" d="M185.3,79.2c-8.9,3.1-17.9,9.3-17.9,9.3c0.9-0.3,23-9.2,23-9.2" />
    <path fill="#452C25" stroke="#000000" stroke-width="0.1713" d="M204.9,93.1c0,0-1.9,2.9-1.5,3.3c0.4,0.3,2.8,1.5,5.5-2.3c2.8-3.8-2.6-3.2-2.6-3.2L204.9,93.1L204.9,93.1z" />
    <path fill="#452C25" stroke="#000000" stroke-width="0.1713" d="M202.7,90.6c0,0-2.9,3.6-2.3,4.1c0.6,0.5,3.9,0.4,6.3-3c2.5-3.5,0.1-0.2,0.1-0.2l-0.7-3.2L202.7,90.6L202.7,90.6z" />
    <path fill="#452C25" stroke="#000000" stroke-width="0.1713" d="M199.9,88.9c0,0-2.8,3.3-2.5,3.9c0.3,0.5,4.1,0.3,7.2-2.9s0.6-4.5,0.6-4.5l-5.2,3.3" />
    <path fill="#452C25" stroke="#000000" stroke-width="0.1713" d="M195,89l-1.8,2.5c0,0,0.5,2.3,6.6-1.9c6.1-4.2,5.8-3.9,5.8-3.9l-3.3-0.6L195,89L195,89z" />
    <path fill="#452C25" stroke="#000000" stroke-width="0.1713" d="M175.5,85.5l-3.9,1.8c0,0-0.9,0.8,1.4,0.8c2.3,0.1,7-0.6,15.2-5.2c3.7-2.1,6.1-4.1,6.1-4.1l-3-1.1L175.5,85.5L175.5,85.5z" />
    <path fill="#452C25" stroke="#000000" stroke-width="0.1713" d="M168.8,87.9c0,0,5.6-0.6,7.8-2.1c0,0-0.5,0.7,2.4-0.4l16.2-7.9l-0.5-1.1c0,0-17.7,7.6-19,8C174.3,84.8,168.8,87.9,168.8,87.9L168.8,87.9z" />
    <path fill="#452C25" stroke="#000000" stroke-width="0.201" d="M209.4,95.1c0,0-0.6,4.4,0.1,4.6c0.7,0.2,2.5-1.2,3.3-3.9c0.8-2.7-3-2.4-3-2.4l-0.6,1.6" />
    <path fill="#452C25" stroke="#000000" stroke-width="0.1713" d="M212.3,96.9c0,0-0.3,3.2,0.1,3.6c0.4,0.3,1.5,0.4,2.8-2.2s0.7-1.6,0.7-1.6l-3-1.6L212.3,96.9L212.3,96.9z" />
    <path fill="#452C25" stroke="#000000" stroke-width="0.1713" d="M213.1,91.3c0,0-2.4,5.2-1,5.2c1.4-0.1,3.2-4,3.5-4.9C215.9,90.7,213.1,91.3,213.1,91.3L213.1,91.3z" />
    <path fill="#452C25" stroke="#000000" stroke-width="0.1713" d="M212.9,91.3c0,0-0.9,5.8,0.4,5.3c1.3-0.5,2-4.8,2.1-5.8C215.4,89.8,212.9,91.3,212.9,91.3L212.9,91.3z" />
    <path fill="#452C25" stroke="#000000" stroke-width="0.1713" d="M214.9,91.8c0,0-1.4,4.5-0.1,5.4c1.4,0.9,2.5-4.4,2.5-5.6C217.4,90.4,214.9,91.8,214.9,91.8L214.9,91.8z" />
    <path fill="#452C25" stroke="#000000" stroke-width="0.1713" d="M209.3,90.4c0,0-1.1,4.1-0.3,4.5c1.6,0.8,2.7-2.8,2.8-4.2C212,89.1,209.3,90.4,209.3,90.4L209.3,90.4z" />
    <path fill="#452C25" stroke="#000000" stroke-width="0.1713" d="M199.1,81.9c0,0-3.7,3-3.2,3.5c0.4,0.5,4.7-0.3,6.6-1.7s2.7-2,2.7-2l-3.3-2L199.1,81.9L199.1,81.9z" />
    <path fill="#452C25" stroke="#000000" stroke-width="0.1713" d="M202.3,78.8c0,0-2.3,1.9-1.9,2.4c0.4,0.5,4.7-1.2,5.4-2.1c0.8-0.8,0.7-1.7,0.7-1.7L202.3,78.8L202.3,78.8z" />
    <path fill="#452C25" stroke="#000000" stroke-width="0.1713" d="M204.5,78.4c0,0-3,2.7-2.2,3.6c0.8,1,5.2-3.3,5.8-3.8C208.7,77.7,204.5,78.4,204.5,78.4L204.5,78.4z" />
    <path fill="#452C25" stroke="#000000" stroke-width="0.1713" d="M203.3,77.3l-6.4,3c0,0-5.4,3.5-4.9,3.9c0.6,0.3,4.8-0.8,7.8-2.2c3-1.5,6.3-4,6.3-4" />
    <path fill="#452C25" stroke="#000000" stroke-width="0.1713" d="M205.1,80.8c0,0-6.9,6-5.9,6.6s4.8-1,7.9-3.9" />
    <path fill="#452C25" stroke="#000000" stroke-width="0.1713" d="M206.2,82.4c0,0-4.2,6.9-3.8,7.6s3.3-1.6,4.7-3.2c1.4-1.7,2.5-4.1,2.5-4.1" />
    <path fill="#452C25" stroke="#000000" stroke-width="0.1713" d="M208.2,83.3c0,0-4.2,7.9-3.8,8.6c0.5,0.7,3,0.1,4.4-3c1.5-3.1,1.3-5.1,1.3-5.1L208.2,83.3L208.2,83.3z" />
    <path fill="#452C25" stroke="#000000" stroke-width="0.1713" d="M210.7,83.7c0,0-4.7,9.8-3.8,10.7c0.9,1,6.2-7.4,6.4-8.6c0.4-2.1-2.7-2.3-2.7-2.3" />
    <path fill="#452C25" stroke="#000000" stroke-width="0.1713" d="M200.7,77.2c0,0-4.3,2-3.4,2.4c0.9,0.4,4.9-1.4,5.4-1.6C203.3,78,200.7,77.2,200.7,77.2L200.7,77.2z" />
    <path fill="#452C25" stroke="#000000" stroke-width="0.1713" d="M201.4,77.9c0,0-2.6,2.1-2.1,2.6c0.6,0.5,4.5-1.6,5.3-2.2C205.3,77.6,201.4,77.9,201.4,77.9L201.4,77.9z" />
    <path fill="#452C25" stroke="#000000" stroke-width="0.1818" d="M206.9,78.1c0,0-3.6,4.8-2.5,5s5.3-3.1,5.3-3.7C209.8,78.8,206.9,78.1,206.9,78.1L206.9,78.1z" />
    <path fill="#452C25" stroke="#000000" stroke-width="0.1713" d="M208.5,79.2c0,0-3.8,4.8-2.7,5.1c1.1,0.3,1.2-0.5,1.2-0.5s3-2.5,3.2-3.2S208.6,79.1,208.5,79.2" />
    <path fill="#452C25" stroke="#000000" stroke-width="0.1713" d="M209.7,80.3c0,0-2.8,4.8-2.1,5.1c0.7,0.3,1.9-0.9,3-2.3S209.7,80.3,209.7,80.3L209.7,80.3z" />
    <path fill="#452C25" stroke="#000000" stroke-width="0.1713" d="M210.4,82.5c0,0-1.7,3-1.2,4c0.4,1,2-0.7,2.8-1.8C212.8,83.6,210.4,82.5,210.4,82.5L210.4,82.5z" />
    <path fill="#452C25" stroke="#000000" stroke-width="0.1713" d="M211.1,90.9c0,0-1.1,4.1-0.3,4.5c1.6,0.8,2.7-2.8,2.8-4.2C213.8,89.7,211.1,90.9,211.1,90.9L211.1,90.9z" />
    <path fill="#452C25" stroke="#000000" stroke-width="0.1713" d="M196.2,77.1c0,0-10.9,3.9-10.6,5c0.4,1.1,11.4-3,13.2-4.2C200.5,76.8,196.3,77,196.2,77.1" />
    <path fill="#452C25" stroke="#000000" stroke-width="0.1546" d="M271.7,86.9l4.3,2.4c0,0,1.1,0.9-1.2,0.3c-2.3-0.5-7.2-2.2-16.5-8.2c-4.2-2.7-5.5-2.6-5.5-2.6l5.8,0.2L271.7,86.9L271.7,86.9z" />
    <path fill="#452C25" stroke="#000000" stroke-width="0.1546" d="M273.1,85.8l4.3,2.4c0,0,1.1,0.9-1.2,0.3c-2.3-0.5-7.2-2.2-16.5-8.2c-4.2-2.7-0.8,2.2-0.8,2.2l0.7-3.2L273.1,85.8L273.1,85.8z" />
    <path fill="#452C25" stroke="#000000" stroke-width="0.1506" d="M280.3,88.2c0,0-5.2-1-7-2.3c0,0,0.3,0.6-2.2-0.6c0,0,1,2.2-6.1-2.6c-7.1-4.8-4.6-2.4-4.6-2.4l2-0.5c0,0,10.9,4.3,12.1,4.8C275.6,85,280.3,88.2,280.3,88.2L280.3,88.2z" />
    <path fill="#452C25" stroke="#000000" stroke-width="0.1713" d="M253.4,90.1l1.7,2.5c0,0-0.6,2.3-6.6-2.2s-5.7-4.1-5.7-4.1l3.3-0.5l7.3,4.1" />
    <path fill="#452C25" stroke="#000000" stroke-width="0.1713" d="M245.6,91.4c0,0,2.8,3.6,2.2,4.1c-0.6,0.4-3.9,0.2-6.2-3.3s-0.1-0.2-0.1-0.2l0.2-5.8l4,5" />
    <path fill="#452C25" stroke="#000000" stroke-width="0.1713" d="M248.5,89.7c0,0,2.7,3.4,2.4,4c-0.3,0.5-4.1,0.2-7.1-3.2c-3-3.4-0.4-4.5-0.4-4.5L248.5,89.7" />
    <path fill="#452C25" stroke="#000000" stroke-width="0.1713" d="M263.7,87.7c0,0,7.6,3.3,2,3.1c0,0-11.1-3-16.8-7.9l1.6-2.2l13.1,6.8" />
    <path fill="#452C25" stroke="#000000" stroke-width="0.1713" d="M267.7,86.7c0,0,4.1,2.5,4.4,3.5c0.3,0.9-12.8-2.4-19.8-8.2l3.1-1.5L267.7,86.7L267.7,86.7z" />
    <path fill="#452C25" stroke="#000000" stroke-width="0.1713" d="M255.8,89c0,0,3,2.4,2.7,2.7c-0.3,0.3-6.4-0.6-11.1-4.3l0.6-2.2l8,3.6" />
    <path fill="#452C25" stroke="#000000" stroke-width="0.1713" d="M260.8,88.8c0,0,2.9,2,2.3,2.2s-2.9,2-13.9-4.4l-1.3-0.7l1.8-2.7L260.8,88.8" />
    <path fill="#452C25" stroke="#000000" stroke-width="0.1713" d="M249.6,82.7c0,0,3.6,3.2,3.1,3.7s-4.7-0.6-6.6-1.9c-1.9-1.4-3.2-3.2-3.2-3.2l4-0.8L249.6,82.7L249.6,82.7z" />
    <path fill="#452C25" stroke="#000000" stroke-width="0.1713" d="M245.3,77.4l6.5,3.9c0,0,5.3,3.8,4.8,4.1c-0.6,0.3-4.7-1-7.7-2.6s-6.4-5.1-6.4-5.1" />
    <path fill="#452C25" stroke="#000000" stroke-width="0.1713" d="M241.2,95.7c0,0,1.2,3.1,0.5,3.4s-2.5-0.3-3.9-3.1c-1.4-2.8,0.8-1.3,0.8-1.3L241.2,95.7L241.2,95.7z" />
    <path fill="#452C25" stroke="#000000" stroke-width="0.1713" d="M243.4,93.7c0,0,1.8,3,1.4,3.3c-0.4,0.3-2.8,1.4-5.4-2.5c-2.6-3.9,2.7-3.1,2.7-3.1L243.4,93.7L243.4,93.7z" />
    <path fill="#452C25" stroke="#000000" stroke-width="0.1713" d="M238,80.2c0,0,6.2,11.9,5.7,12.6c-0.5,0.6-3,0-4.3-3.2c-1.4-3.2-2.5-7.3-2.5-7.3L238,80.2L238,80.2z" />
    <path fill="#452C25" stroke="#000000" stroke-width="0.1713" d="M245.2,83.2c0,0,5.2,4.4,4.1,4.9c-1.1,0.6-2.8,0.3-5.8-2.7S245.2,83.2,245.2,83.2" />
    <path fill="#452C25" stroke="#000000" stroke-width="0.1713" d="M242.7,83.3c0,0,3.7,6.8,3.2,7.4s-3.2-1.7-4.6-3.4c-1.4-1.7-2.4-4.2-2.4-4.2" />
    <path fill="#452C25" stroke="#000000" stroke-width="0.1713" d="M239,80.7c0,0,2.6,4.9,1.9,5.2c-0.7,0.3-1.8-1-2.9-2.4C236.9,82,239,80.7,239,80.7z" />
    <path fill="#452C25" stroke="#000000" stroke-width="0.1713" d="M239.1,90.8c0,0,1.2,4.2,0.4,4.5c-1.6,0.8-2.8-3-3-4.3C236.5,89.4,239.1,90.8,239.1,90.8L239.1,90.8z" />
    <path fill="#452C25" stroke="#000000" stroke-width="0.1713" d="M235.8,97.4c0,0,0.2,3.1-0.2,3.4s-1.5,0.3-2.8-2.2c-1.2-2.6-0.7-1.6-0.7-1.6l3-1.5l0.7,1.7" />
    <path fill="#452C25" stroke="#000000" stroke-width="0.1713" d="M238.8,96.8c0,0,0.4,3.2-0.2,3.3c-0.7,0.1-2.5-1-3.2-3s3.1-1.6,3.1-1.6L238.8,96.8" />
    <path fill="#452C25" stroke="#000000" stroke-width="0.1713" d="M235.8,86.6c0,0,3.4,7.6,2.8,8.7c-1.1,2.1-4.1-4.6-5.1-7.2C232.5,85.1,235.8,86.6,235.8,86.6L235.8,86.6z" />
    <path fill="#452C25" stroke="#000000" stroke-width="0.1713" d="M234.2,87.8c0,0,5,8.2,2.4,8.8c-1.9,0.5-5.2-6.3-5.8-7.8C230.2,87.4,234.2,87.8,234.2,87.8L234.2,87.8z" />
    <path fill="#452C25" stroke="#000000" stroke-width="0.1713" d="M233.9,89.6c0,0,2.3,8,0.8,7.3s-3.2-6.7-3.5-8C231,87.5,233.9,89.6,233.9,89.6L233.9,89.6z" />
    <path fill="#452C25" stroke="#000000" stroke-width="0.1713" d="M241.9,78.2c0,0,3.5,5.3,2.4,5.5s-5.3-3.6-5.3-4.2C238.9,78.9,241.9,78.2,241.9,78.2L241.9,78.2z" />
    <path fill="#452C25" stroke="#000000" stroke-width="0.1713" d="M239.7,78.4c0,0,4.5,6.1,3.1,6.4s-1.4-0.7-1.4-0.7s-3.6-3.2-3.8-4S239.6,78.3,239.7,78.4" />
    <path fill="#452C25" stroke="#000000" stroke-width="0.1713" d="M248.1,78c0,0,4.2,2.2,3.3,2.6s-4.8-1.6-5.4-1.8C245.5,78.7,248.1,78,248.1,78L248.1,78z" />
    <path fill="#452C25" stroke="#000000" stroke-width="0.1713" d="M244.1,78.5c0,0,3.1,3.2,2.3,4.2c-0.8,1.1-5.1-4-5.7-4.7c-0.6-0.7,3.7,0.3,3.7,0.3" />
    <path fill="#452C25" stroke="#000000" stroke-width="0.1713" d="M236.7,82.9c0,0,4.9,9.6,4,10.6s-6.4-7.2-6.6-8.4c-0.2-1.2,2.6-2.4,2.6-2.4" />
    <path fill="#452C25" stroke="#000000" stroke-width="0.1999" d="M233.8,83.8c0,0,2,3,1.9,4.6s-3-2.3-3.2-3.1C232.2,84.6,233.8,83.8,233.8,83.8L233.8,83.8z" />
    <path fill="#452C25" stroke="#000000" stroke-width="0.1713" d="M237.9,82.2c0,0,1.5,3.1,1.1,4s-2.6-1.9-3.3-3C234.9,82.2,237.9,82.2,237.9,82.2L237.9,82.2z" />
    <path fill="#452C25" stroke="#000000" stroke-width="0.2057" d="M230.8,85.3c0,0,2.4,2.7,2.3,4.1c-0.1,1.4-3.6-2.1-3.9-2.7C228.8,86,230.8,85.3,230.8,85.3L230.8,85.3z" />
    <path fill="#452C25" stroke="#000000" stroke-width="0.1713" d="M246.3,77.6c0,0,3.7,3.3,3.1,3.8s-5.5-3-6.2-3.7C242.4,77,246.3,77.6,246.3,77.6L246.3,77.6z" />
    <path fill="#452C25" stroke="#000000" stroke-width="0.1713" d="M243.2,77.3l2.8,2.4c0,0,2.7,1.8,2.2,2.2c-0.5,0.5-4.6-1.4-5.3-2.3c-0.8-0.9-0.7-1.8-0.7-1.8L243.2,77.3L243.2,77.3z" />
    <path fill="#452C25" stroke="#000000" stroke-width="0.1713" d="M252.7,78.1c0,0,10.8,4.4,10.4,5.4c-0.4,1.1-11.3-3.5-13-4.7S252.6,78,252.7,78.1" />
    <path fill="#452C25" stroke="#000000" stroke-width="0.1713" d="M253.1,79.5c0,0,8.1,4.6,7.2,5s-6.7-1.1-9.8-3.2c-3-2-4.3-3.2-4.3-3.2l3.7-0.9L253.1,79.5L253.1,79.5z" />
    <path fill="#452C25" stroke="#000000" stroke-width="0.1713" d="M233.1,85.1c0,0,1.5,3.1,1.1,4s-2.6-2-3.3-3.1C230.1,84.9,233.1,85.1,233.1,85.1L233.1,85.1z" />
    <path fill="#452C25" stroke="#000000" stroke-width="0.1713" d="M233.4,92.1c0,0,1.3,4.5-0.1,5.4c-1.4,0.8-2.3-4.5-2.3-5.7C231,90.5,233.4,92.1,233.4,92.1L233.4,92.1z" />
    <path fill="#D9C0B9" stroke="#000000" stroke-width="0.1713" d="M232.5,113c0.1-0.3-0.7-1.3-0.7-1.3l0.5-0.6C233.3,112.2,232.5,113,232.5,113z M225.4,109.8c-0.6,0.2-0.3,1.7-0.3,1.6c-0.2-0.8,0.5-0.6,0.5-0.6l0.4-0.2l0.1-0.4l-0.2-0.4H225.4z M228.7,113.1c0.1,0,0.2,0.7,0.4,1.1c0.1,0.1,0.2,0.5,0.2,0.4s0-0.1,0.1-0.2s0.3-1.5,0.3-1.5l-0.5-0.3L228.7,113.1z M224.4,110.2h-0.6l-0.3,0.4l0.2,0.7c0.1-0.1,0.5-0.1,0.7-0.1c0.1,0.1,0.3,0.7,0.3,0.7c0.3-0.6-0.1-1.6-0.1-1.6L224.4,110.2z M218.7,114.5c0,0-0.1-1.2,0.8-1.5l-1-0.5C218.5,112.5,217.7,113.8,218.7,114.5z M216.5,111.8l-0.7,0.2c-0.2,0.6,0.5,1.2,0.5,0.9c-0.2-0.2,0.3-1.1,0.3-1.1H216.5z" />
    <path fill="#BD8759" stroke="#000000" stroke-width="0.1713" d="M228.2,104.3c0,0,0,2.4,0,2.9c0,0.4-0.1,1.1-0.3,1.5s-0.5,0.6-0.9,0.6s-1.4-0.1-1.7,0.3c-0.2,0.4-0.3,0.6-0.3,0.6s0.7-0.4,0.8,0s-0.2,0.7-0.2,0.7s0.6,0.1,1.2-0.2s0.8-0.4,1.1-0.4s0.4,0.3,0.4,0.3s0.2,0.8,0.1,1.3c-0.1,0.5-0.2,1.5,0.4,1.5c0,0,0.2-0.5,0.4-0.5c0.2-0.1,0.8,0.5,0.7,0.7c0,0,0.1-1-0.1-1.6c-0.2-0.6-0.3-1.2-0.3-1.2s1.7,0.6,1.8,0.8c0.2,0.2,0.6,0.6,0.7,0.5c0.2-0.1,0-0.5,0.3-0.7c0.3-0.1,0.4,0.2,0.4,0.2s-0.5-1.1-1.2-1.5c-0.8-0.4-1.2-0.4-1.5-0.7c-0.3-0.3-0.3-0.7-0.4-1.1c-0.1-0.4,0-3.7,0-3.7L228.2,104.3L228.2,104.3z M219.8,110.5c0,0-1.2,1-1.4,1.4c-0.1,0.4-0.2,0.9-0.2,0.9s1.1-0.1,1,0.5c0,0,0.4,0.2,0.9-1.1c0.6-1.3,1.1-1.9,1.5-1.9s0.9,0.4,1.2,0.7c0.2,0.3,0.6,0.5,1.1,0.3c0,0-0.5-0.7-0.2-0.9c0.3-0.2,0.8-0.1,0.8-0.1s-0.4-0.9-1.2-1s-1.4-0.3-1.2-0.7c0.2-0.3,1.2-3.1,1.2-3.1l-1.4-2l-0.6,1.8c0,0,0.2,1,0.2,1.3s-1.1,2.5-1.2,2.7s-3.1,1.3-3.4,1.4c-0.3,0.1-1.1,1-1.1,1l-0.1,0.7c0,0,0.5-0.4,0.7-0.2c0,0,0.3-0.4,0.7-0.3s0.2,0.2,0.2,0.2s0.5-0.4,0.7-0.5c0.1-0.2,0.1-0.2,0.1-0.2s0.5-0.1,0.9-0.2" />
    <path fill="none" stroke="#000000" stroke-width="0.171" d="M221.4,108c-0.1,0-0.2,0-0.3-0.1 M221.9,106.8c-0.2,0-0.3-0.1-0.4-0.2 M221.4,107.4c0.1,0.1,0.2,0.1,0.3,0.1 M220.4,109.3c0.1,0,0.1,0.1,0.2,0.1 M228.9,108.1c0.2,0,0.4,0.2,0.6,0.2 M229.2,107.5c-0.2,0-0.3,0-0.4-0.1 M229.3,106.8c-0.2,0-0.4,0-0.6-0.1 M228.6,109.2c0.2,0,0.4,0.1,0.6,0.2 M228.7,110c0.1,0,0.2,0,0.2,0.1 M228.8,112c0.1,0,0.2,0,0.3,0.1 M222.6,109.4c-0.2,0-0.3,0.1-0.3,0.3 M223.6,109.5c-0.2,0.1-0.4,0.3-0.4,0.6 M217.3,110.6c0.2,0.2,0.4,0.2,0.6,0.4 M230.7,109.8c-0.1,0.1-0.2,0.2-0.2,0.3 M231.3,110c-0.1,0-0.2,0.1-0.2,0.2" />
    <path fill="#452C25" stroke="#000000" stroke-width="0.1716" d="M233.6,94.3c0,0-0.4-1.7-0.7-2c-0.3-0.2,0.1-0.5,0.1-0.5s-0.7-1.7-1.2-2c-0.4-0.3,0.1-0.5,0.1-0.5s-0.8-1.2-1.3-1.6c-0.6-0.3,0-0.4,0-0.4s-0.6-1.6-1.9-2.3c0,0-0.9-0.9-1.8-1.2c-0.9-0.2-3.1-0.5-5.8-0.4c-2.8,0.1-4.1,2-4.1,2l-0.2,2.3l0.4-0.3l-0.6,2.8c-0.1,0.7,0.5,1.8,0.5,3.2c0,0.4,0,0.9,0.1,1.3c0.1,1.2,0.4,2.5,1,3.7c0,0.1,0.1,0.4,0.1,0.3c0.1-0.2,0.4,0.8,0.7,1.2c0,0,0.2,1.4,0.3,0.9c0.1-0.2,0.5,0.8,0.8,1.4c0.1,0.2,0.7,1.8,0.6,1.1c0-0.8,0.5,1.7,0.5,2l0.7-1l0.3,1.1l0.6-0.1l-0.2,1c0,0,1.5-1.2,1.6-1.7s0.1-0.8,0.1-0.8l0.5-0.5l0.8-1.2c0,0,1.9,1.5,2.1,2c0.2,0.5,0.4,1,0.4,1l0.5-0.5l0.4,1.1l0.3-0.5l0.3,0.7l0,0l0.2,0.5c0.1,0.1,0.4,0.2,1-0.8c0.8-1.4,0.8-2.4,0.8-2.7c0.1-0.2,0.4,0.4,0.4,0.4s0.7-1.3,0.6-2.2c-0.1-0.8,0.4-0.5,0.4-0.5s0.1-2.2,0-2.8c-0.1-0.5,0.4-0.4,0.4-0.4s-0.2-2.6-0.3-2.9C233,94.4,233.6,94.3,233.6,94.3L233.6,94.3z" />
    <path fill="#000000" d="M230.6,89.1c-0.2-0.3-0.4-0.8-0.8-0.9c-0.1,0,0-0.1,0-0.2c0.5,0.1,0.6,0.6,0.8,0.9C230.6,89,230.6,89.1,230.6,89.1z M230.9,92.2L230.9,92.2C230.9,92.2,230.9,92.3,230.9,92.2C230.9,92.3,230.9,92.2,230.9,92.2z M230.1,89.7c0,0.1,0,0.2,0,0.2c0.7,0.6,0.8,1.4,0.8,2.3C230.9,91.2,230.9,90.4,230.1,89.7z M231.6,90.6c0,0,0,0.1,0,0.2c0.4,0.7,0.4,1.4,0.4,2.1C232,92.1,232,91.3,231.6,90.6z M231.9,95.5c0.1-0.5,0.2-0.9,0.2-1.4c0-0.1,0-0.2,0-0.2c0,0.5-0.1,0.9-0.2,1.4V95.5z M231.6,97.2c0.1-0.3,0-0.6,0-0.9C231.6,96.6,231.6,96.9,231.6,97.2z M230.3,98.1c0.1-0.6,0.1-1.1,0-1.5C230.3,97.1,230.3,97.6,230.3,98.1z M232.5,96.2c0.2,0.2,0.3,0.5,0.4,0.8v-0.1C232.8,96.6,232.7,96.3,232.5,96.2L232.5,96.2z M232.4,92.6c0,0.1-0.1,0.2,0,0.2c0.2,0.2,0.4,0.4,0.6,0.6c0,0,0-0.1,0-0.2C232.8,93,232.7,92.8,232.4,92.6z M230.5,96.4c0.1-0.3,0.1-0.7,0.1-1.1C230.6,95.7,230.6,96,230.5,96.4z M230.5,96.6v0.2c0-0.1,0-0.3,0-0.4C230.5,96.5,230.5,96.5,230.5,96.6z M227.2,85.9C227.2,85.9,227.3,86,227.2,85.9L227.2,85.9c-0.1-0.2-0.3-0.3-0.5-0.4c-0.3-0.2-0.6-0.3-0.9-0.3c-0.1,0,0.2,0.2,0.2,0.2c0.2,0,0.3,0.2,0.5,0.2S227,85.8,227.2,85.9z M217.9,93.7L217.9,93.7C217.9,93.8,218,93.8,217.9,93.7z M218,94.1c0,0.1,0.1,0.3,0.1,0.4C218.1,94.4,218,94.2,218,94.1z M218.2,94.7c0-0.1-0.1-0.1-0.1-0.2c0,0.1,0.1,0.3,0.1,0.4C218.2,94.9,218.2,94.8,218.2,94.7z M218,94.1c0-0.1,0-0.2-0.1-0.3c0,0,0,0,0,0.1C217.9,94,218,94,218,94.1z M220.5,85c-0.4,0-0.8,0.1-1.1,0.2c0,0.1,0,0.2,0,0.2c0.4-0.1,0.8-0.1,1.1-0.2V85z M222.7,84.9c-0.4,0-0.8,0-1.1,0.2c0,0,0,0.1,0,0.2c0.3-0.2,0.7-0.2,1.1-0.2V84.9z M217.8,87.2c-0.1,0.1-0.1,0.2-0.1,0.2C217.8,87.4,217.8,87.2,217.8,87.2z M217.7,93.9c-0.1-0.3-0.1-0.6-0.1-0.8C217.6,93.4,217.6,93.7,217.7,93.9L217.7,93.9z M228.7,87.6L228.7,87.6v-0.2c-0.1-0.2-0.2-0.3-0.3-0.3v0.2C228.6,87.3,228.6,87.5,228.7,87.6z M228.6,90c0.2,0.2,0.4,0.6,0.5,0.9c0,0,0-0.1,0-0.2c-0.1-0.3-0.3-0.6-0.5-0.9C228.6,89.8,228.6,89.9,228.6,90z M228,87.8L228,87.8L228,87.8z M228.7,88.7c0,0,0-0.1,0-0.2c-0.2-0.2-0.4-0.5-0.7-0.7c0,0.1,0,0.2,0,0.2C228.2,88.2,228.4,88.4,228.7,88.7z M228.5,93.7c0.1-0.2,0.1-0.4,0.1-0.5c0,0.1-0.1,0.2-0.1,0.3C228.5,93.5,228.5,93.6,228.5,93.7z M228.7,92.4L228.7,92.4c0,0.2,0,0.5-0.1,0.8C228.7,92.9,228.8,92.7,228.7,92.4z M229.3,93.6c0,0.1,0,0.1,0,0.2c0,0.2,0,0.4,0,0.6v0.1C229.4,94.2,229.3,93.9,229.3,93.6z M231.7,98.7c0.2,0.6,0.2,1.1,0.2,1.7c0-0.6,0-1.2-0.2-1.9C231.7,98.6,231.7,98.7,231.7,98.7z M230.9,101.2c0.2-0.4,0.3-0.8,0.4-1.2v-0.1c-0.1,0.4-0.2,0.7-0.4,1.1C230.9,101,230.9,101.1,230.9,101.2z M231.3,99.9L231.3,99.9C231.2,99.9,231.3,99.9,231.3,99.9z M218.1,96.1c0.4,0.5,0.6,1,0.9,1.6c0,0,0-0.1,0-0.2c-0.3-0.5-0.5-1.1-0.9-1.6C218.1,95.9,218.1,96,218.1,96.1z M219.7,95.6v0.2c0.3,0.1,0.4,0.6,0.7,0.5v-0.2C220.1,96.1,220,95.7,219.7,95.6z M219.1,98.3c0.2,0.4,0.4,0.9,0.7,1.3c0,0,0-0.1,0-0.2c-0.2-0.4-0.4-0.9-0.7-1.3C219.1,98.2,219.1,98.3,219.1,98.3z M221.3,99.8c-0.2-0.4-0.4-0.8-0.7-1.1c0,0.1,0,0.1,0,0.2c0.3,0.3,0.5,0.7,0.7,1.1C221.3,100,221.3,99.9,221.3,99.8z M220.5,100.5c0.1,0.3,0.2,0.6,0.4,0.8c0,0,0-0.1,0-0.2c-0.1-0.3-0.2-0.6-0.4-0.8C220.5,100.3,220.5,100.4,220.5,100.5z M221.9,100.8c0.1,0.3,0.1,0.6,0.1,0.9c0-0.4,0-0.7-0.1-1.1C221.9,100.7,221.9,100.8,221.9,100.8z M221.3,102.1c0.1,0.4,0.2,0.8,0.4,1.2c0,0,0-0.1,0-0.2c-0.2-0.4-0.3-0.8-0.4-1.2C221.3,102,221.3,102.1,221.3,102.1z M222.8,96.6c-0.3-0.1-0.7-0.2-1.1-0.3c0,0-0.1,0.2,0,0.2c0.3,0.1,0.7,0.2,1.1,0.3V96.6z M221.9,97.9c0.4,0.2,0.8,0.4,1.3,0.6v-0.2c-0.4-0.2-0.8-0.4-1.3-0.6C221.9,97.8,221.9,97.9,221.9,97.9z M223,100.1c-0.2-0.2-0.5-0.5-0.7-0.7v0.2c0.2,0.2,0.4,0.5,0.7,0.7C223,100.3,223,100.2,223,100.1z M222.8,101.7c0.2,0.3,0.2,0.6,0.3,0.9v-0.1C223.1,102.2,223,101.8,222.8,101.7C222.8,101.5,222.7,101.6,222.8,101.7z M224,96.5C224,96.6,224,96.6,224,96.5c0,0.3,0.1,0.5,0.1,0.7c0,0,0-0.1,0-0.2C224.1,96.8,224,96.6,224,96.5L224,96.5z M226.7,95.9v0.2c0.1-0.2,0.2-0.4,0.3-0.6c0.1-0.1,0-0.2,0-0.2C226.9,95.5,226.8,95.7,226.7,95.9z M228.2,96.5c0.1-0.4,0.1-0.8,0.1-1.2c0,0.3,0,0.7-0.1,1V96.5z M229.5,99c-0.1,0.4-0.3,0.8-0.6,1v0.2c0.3-0.3,0.6-0.6,0.6-1V99z M226.4,97.2L226.4,97.2c-0.1,0.2-0.2,0.3-0.3,0.5v0.1v0.1c0.1-0.2,0.2-0.3,0.3-0.5C226.4,97.4,226.4,97.3,226.4,97.2z M226.4,100.4c0.2-0.1,0.3-0.3,0.4-0.5c0-0.1,0-0.1,0-0.2l0,0c-0.1,0.2-0.2,0.3-0.4,0.5V100.4z M225.3,99.4c0,0,0-0.1,0-0.2c-0.2,0.7-0.1,1.4,0.4,1.9V101C225.3,100.6,225.1,100,225.3,99.4z M224.2,99.6c0,0.2,0,0.5,0,0.7c0,0,0,0.1,0,0.2C224.3,100.2,224.3,99.8,224.2,99.6C224.2,99.5,224.2,99.5,224.2,99.6z M227.2,102.2c0.1-0.3,0.3-0.5,0.4-0.8c0,0,0-0.1,0-0.2c-0.1,0.3-0.2,0.6-0.4,0.8C227.2,102,227.2,102.1,227.2,102.2z M229.1,103.3c0.2-0.3,0.4-0.6,0.6-0.9c0-0.1,0-0.2,0-0.2c-0.2,0.3-0.4,0.6-0.6,0.9V103.3z M230.6,105.1c0-0.1,0-0.2,0-0.2S230.6,105,230.6,105.1C230.6,105,230.6,105.1,230.6,105.1z M230.8,103.4L230.8,103.4c0,0,0,0.1,0,0.2C230.8,103.6,230.8,103.5,230.8,103.4z M230.8,103.6c-0.1,0.4-0.1,0.8-0.1,1.2C230.7,104.5,230.7,104.1,230.8,103.6z M217.7,95c-0.1,0.6,0,1.1,0.2,1.7c0,0,0-0.1,0-0.2C217.7,96.1,217.7,95.6,217.7,95C217.8,95.1,217.7,95,217.7,95z" />
    <path fill="#DCDDDE" d="M217.8,89.1c0,0-0.2-1.7,0.3-1.8c0,0,0.2-1.5,2.2-1.3c0,0,0.7-1.1,1.8-0.5c0,0,1-0.5,1.7-0.2c0.6,0.3,1.3,0.8,1.4,0.9c0,0,0.9-0.2,1.3,0.2c0.4,0.3,0.2,1.4,0.2,1.4s1,0.8,1.1,1.4c0.1,0.7,0.1,0.9-0.1,1.1c0,0,0.4,0.3,0.3,0.9c-0.1,0.5-0.5,1.2-0.6,1.2s0.1,1.3-0.4,1.8c-0.4,0.4-0.8,0.5-1,0.6s-0.7,0.8-1.2,0.9s-1.1-0.7-1.2-1c-0.1-0.2-0.7-0.5-0.7-0.5s-1.4,1.5-2.4,1.3s-1.4-1-1.5-1.2s-0.3-1.2-0.3-1.2s-1.1-0.6-1-1.2s0.5-1.3,0.5-1.3L217.8,89.1L217.8,89.1z" />
    <path fill="#D9C0B9" stroke="#000000" stroke-width="0.1713" d="M209.5,92.9c0,0-0.9-1.6,1.6-2.4c0,0,0.8,0.4,0.9,0.7c0,0-0.4,0.8-1.9,0.9C210.2,92.2,209.5,92.4,209.5,92.9L209.5,92.9z M209.8,92.6c0,0,1,0.2,1.7-0.3c0.6-0.4,0.8-0.2,0.9-0.2c0,0,0-0.5-0.3-0.9c0,0-0.7,0.6-1.2,0.8C210.3,92.2,209.9,92.1,209.8,92.6L209.8,92.6z" />
    <path fill="#DBA05F" stroke="#000000" stroke-width="0.1713" d="M222.3,87.7c0,0-2.2,0.4-2.8,0.5s-1.9,0.3-2.3,0.3c-0.5,0-1.2-0.4-1.7-0.5s-2.1-0.3-2.7,0.3c-0.6,0.6-0.9,0.8-1.1,1c-0.2,0.2-0.9,0.8-0.9,1.2c0,0.3,0.2,0.7,0.6,0.7c0.4,0,1.1,0.8,1.1,0.9c0,0.3,1,0.6,2,0.6c1.7,0,2.6-0.9,5.1-0.6c1.4,0.2,4-0.9,4.4-1.6c0.5-0.7,0.7-1.4,0.3-2.1C223.8,87.6,222.4,87.7,222.3,87.7L222.3,87.7z" />
    <path fill="#C6262C" stroke="#000000" stroke-width="0.1713" d="M215,88.1c0,0,0-0.7-0.7-1s-1.4-0.3-1.7-0.3s-0.3,0.2-0.7,0.2c-0.3,0.1-0.7,0.2-0.7,0.2s0,0-0.2,0.3s-0.5,0.5-0.3,0.8s0.1,0.3,0.2,0.4c0.2,0.1-0.1-0.1-0.1-0.1s-1.2,0.4-0.9,1.1s0.6,0.4,0.7,0.4s0.7-0.3,0.7-0.3l1-0.9c0,0,1.1-0.4,1.2-0.5c0.1,0,0.7,0,0.7,0L215,88.1z" />
    <path fill="#000000" d="M213.2,90.3C213.2,90.4,213.2,90.4,213.2,90.3C213.2,90.4,213.2,90.4,213.2,90.3z M214,89.4c0-0.1,0.8-0.1,0.8-0.1s-0.4-0.1-0.7,0c-0.4,0.1-0.6,0.4-0.6,0.4c-0.1,0.1-0.2,0.2-0.2,0.2c-0.2,0.2-0.2,0.2-0.2,0.2v0.1c0.4-0.3,0.5-0.7,0.8-0.6c0,0,0,0-0.1,0c-0.2,0.1-0.4,0.3-0.4,0.5c0,0,0,0.1,0.1,0.1c-0.1,0-0.2,0.1-0.3,0.1c0.1,0,0.2-0.1,0.3-0.1l0,0c-0.1,0-0.1,0-0.2,0.1c0,0,0,0,0.1,0c0,0.1,0.4,0,0.9-0.5l-0.1-0.1c0,0,0,0-0.1,0.1v-0.1c0-0.1,0-0.1-0.1-0.1c0.2-0.1,0.3-0.1,0.3-0.1h0.1h0.1l0,0l0,0h0.1C214.7,89.4,214,89.5,214,89.4c0.1,0,0.8,0,0.8,0C214.8,89.3,214,89.3,214,89.4z M213.4,90.4L213.4,90.4C213.3,90.4,213.4,90.4,213.4,90.4z M213.4,90.3L213.4,90.3L213.4,90.3L213.4,90.3z" />
    <path fill="#5E3F17" d="M211.2,90.9c-0.4,0.2-1.1,0.2-1.2,0.8l0,0C210.1,91.3,210.7,91.3,211.2,90.9L211.2,90.9 M221.4,91.5c0.2,0,0.4-0.2,0.6-0.3 M211.3,89.1c0,0.1,0,0.2,0,0.3c0-0.2-0.2-0.3-0.4-0.3c0,0,0-0.2,0.1-0.2S211.2,88.9,211.3,89.1z M211.6,88.6c0,0,0,0.1,0,0.2c0.1,0.1,0.1,0.3,0.1,0.4v0.1C211.8,89.1,211.8,88.9,211.6,88.6z M211.7,89.3C211.7,89.3,211.7,89.4,211.7,89.3C211.8,89.4,211.7,89.4,211.7,89.3z M212.1,88.1c0.2,0.2,0.4,0.5,0.4,0.7c0,0,0,0,0-0.1l0,0c0-0.3-0.2-0.6-0.4-0.8V88.1z M212.9,87.9c0.1,0.1,0.2,0.2,0.2,0.4c0-0.2,0-0.4-0.2-0.6C212.9,87.7,212.9,87.8,212.9,87.9z M213.1,88.3c0,0.1,0,0.1,0,0.2C213.1,88.5,213.1,88.4,213.1,88.3L213.1,88.3z M214.3,87.8c0,0,0-0.1,0-0.2c-0.5-0.6-1.7-0.5-2.3-0.2c0,0.1,0.1,0.2,0,0.2C212.6,87.3,213.8,87.2,214.3,87.8z M210.6,89.6c0,0.1,0,0.1,0.1,0.2c0-0.1,0-0.3-0.1-0.4C210.6,89.4,210.6,89.5,210.6,89.6z M216.6,88.9c-0.2-0.2-0.6-0.5-0.9-0.4v0.2c0.3,0,0.7,0.2,0.9,0.4C216.6,89.1,216.6,89,216.6,88.9z M215.9,91c-0.1,0.1,0,0.2,0,0.2c0.4-0.2,0.7-0.6,0.8-1.1c0,0,0-0.1,0-0.2C216.5,90.3,216.3,90.7,215.9,91z M214,90.3c0,0.1,0,0.2,0,0.2c0.2-0.1,0.4-0.2,0.5-0.4V90v-0.1C214.4,90.1,214.2,90.2,214,90.3z M210.6,90.1L210.6,90.1C210.6,90,210.6,90,210.6,90.1L210.6,90.1z M213.8,90.5L213.8,90.5v-0.2c-0.1,0.1-0.2,0.2-0.3,0.2v0.2C213.6,90.7,213.7,90.7,213.8,90.5z M210.6,90c0.1-0.1,0.1-0.1,0.1-0.2l0,0C210.7,89.8,210.6,89.9,210.6,90z M212.2,89.4c-0.2,0-0.1,0.2-0.2,0.3v0.1v0.1c0.1-0.1,0.1-0.3,0.2-0.3S212.3,89.4,212.2,89.4z M222.7,89.3c0.1,0.3,0.1,0.6,0.1,0.8v0.1c0-0.4,0.1-0.8-0.1-1.1C222.7,89.2,222.7,89.3,222.7,89.3z M222.1,90.6c0.1-0.3,0.1-0.5,0.1-0.8c0,0.2,0,0.4-0.1,0.6C222.1,90.4,222.1,90.5,222.1,90.6z M220.4,91.8c0.1-0.2,0.1-0.3,0.1-0.5v-0.1c0,0.2,0,0.3-0.1,0.4C220.4,91.7,220.4,91.7,220.4,91.8z M223.2,88.7C223.2,88.7,223.2,88.8,223.2,88.7c0.1,0.2,0.1,0.3,0.1,0.4C223.3,89,223.3,88.8,223.2,88.7z M217.6,89L217.6,89c0.3,0.3,1.3,1,1.1,1.6c0,0,0,0.1,0,0.2C219.1,90,218.1,89.4,217.6,89z M223.8,89.9c0.3-0.6,0.2-1.3-0.2-1.8c0,0,0,0.1,0,0.2c0.3,0.4,0.5,1,0.2,1.5V89.9z M223.3,89.9c0.1-0.2,0.1-0.4,0.1-0.6c0,0.1,0,0.3-0.1,0.4V89.9z M216.7,91.8L216.7,91.8c0.2,0,0.3-0.2,0.4-0.4v-0.1C217.1,91.5,216.9,91.7,216.7,91.8z M213.5,92.3c0.4,0,0.8,0,1.3-0.2v-0.2c-0.4,0.1-0.8,0.2-1.3,0.2V92.3z M217.7,91.8c0.1-0.1,0.1-0.2,0.1-0.3C217.8,91.6,217.7,91.7,217.7,91.8C217.7,91.7,217.7,91.7,217.7,91.8z M212.7,90.1v0.2c0.1-0.2,0.4-0.3,0.5-0.5c0-0.1,0-0.1,0-0.2l0,0C213.1,89.8,212.9,89.9,212.7,90.1z M212.8,89.6c0,0.1,0,0.1,0,0.2c0.1-0.2,0.2-0.2,0.4-0.3v-0.2C213,89.4,212.9,89.4,212.8,89.6z M216.8,90.5c-0.2,0.7-0.7,1.1-1.2,1.5c-0.1,0.1,0,0.2,0,0.2c0.6-0.4,1.1-0.8,1.2-1.5C216.8,90.6,216.8,90.6,216.8,90.5z M212.6,92.1c0.2,0,0.4,0,0.6,0v-0.2c-0.2,0-0.4,0-0.6,0V92.1z" />
    <path fill="#DCDDDE" stroke="#000000" stroke-width="0.3" d="M217.1,86.1c-2.2,0.1-4.4-1.3-4.4-1.3c-2.7-0.5-2.9-3-2.9-3c-1.1-0.4-2-3.2-2-3.2c-1.7,1-3.8,0-3.8,0s0-0.4-1.9,0s-1.6-0.3-1.6-0.3s0.8-0.8-2.6,0c-3.4,0.8,0.3-1,0.3-1c-1,0.3-4.2,0.5-4.2,0.5c-1.2,0.1-2.4,0.6-3.7,1c-0.8,0.2-2.2,0.5-2.9,0.8c-1.9,0.8-5.7,2.5-8.8,3.8c-4.1,1.6-7.3,2.8-7.1,2.8c0.2-0.1,4.4-2.7,9.7-5.1c4.9-2.2,10.5-4.2,13.3-5.1c3.7-1.2,6.7-0.6,8.3,0c0.8,0.3,5.3-0.1,7.4,0.1c2,0.2,2.3,3.6,2.3,3.6c0.4,0.2,0.5,3.4,0.5,3.4s-1.1,0,0.2,0.2s3.7,2.1,3.7,2.1c0.8,0,0.9,0,0.9,0s0.5-0.6,1.1-0.8c0.7-0.2,1.2-0.5,2-0.6s1.8-0.1,2.5,0c0.8,0.1,1.6,0.1,2.7,0.3s1.2,0.2,1.5,0.4c0.3,0.1,0.6,0,0.6,0c1.3-0.6,3.9-1.6,4.4-1.4c0,0,0.9-0.2,1.5-0.6c0.5-0.4,1.7-1.3,1.7-1.3s-0.8-5.7,4.9-5.1c5.8,0.6,13.4,1.3,14.9,1.5c1.5,0.2,7,1.8,8.3,2.4c1.3,0.6,5.1,2.3,6.8,3.1c0.7,0.3,3.3,1.4,5.2,2.2c2.9,1.1,5,3,5,3c-1.8-0.8-3.3-1.6-4.7-2.3c-1.2-0.5-2.4-0.7-3.3-1.2c-2-0.9-3.5-1.7-4.8-2.2c-4.4-2.1-4.4-2.2-6.2-2.3c-1.2-0.1,0.9,1.5,0.9,1.5s-4.1-1.6-5.4-2.1c-1.3-0.6-2.4-0.8-3.6-0.7c-1.2,0.1-2.2-0.2-2.9-0.4s-4.9-0.4-5.6-0.5c-0.7-0.1-1.3-0.2-1.3-0.2l0.3,0.5l-2-0.3l-0.6,0.9c0,0-2,0.4-2.1-0.2c-0.2-0.6-1.2,2.8-1.7,3.9c-0.5,1-2.8,0.7-3.4,1.3c-0.6,0.6-1.8,1.1-2.1,1.2c-0.3,0.2-1.2,0.1-1.7,0.1c-0.8,0-0.1,0-1.3,0.2c0,0-1.1,0-1.5-0.2s-1.3-0.4-1.8-0.6c-0.6-0.2-4.1-0.2-4.6-0.2s-1.3,0.3-1.9,0.5s-1.5,0.8-1.5,0.9" />
  </g>
</svg>
