<svg xmlns="http://www.w3.org/2000/svg" width="450px" height="300px" viewBox="0 0 450 300">
  <path fill="#DF0B09" d="M450,300H0V0h450V300z" />
  <path fill="#1AA308" d="M450,66.667H0V33.333h450V66.667z M450,100H0v33.333h450V100z M450,166.667H0V200h450V166.667z M450,233.333H0v33.333h450V233.333z" />
  <g>
    <path fill="#1E40D5" d="M166.667,166.667H0V0h166.667V166.667z" />
    <path fill="#FFFFFF" d="M146.078,132.948H19.011l63.534-99.62L146.078,132.948z" />
    <path fill="#F18220" d="M93.264,112.341c-1.289,1.76-2.704,3.458-4.237,5.024c1.036,1.105,2.104,2.174,3.207,3.219c3.425,3.245,11.116,3.185,11.116,3.185v2.343c-3.645,0-9.173,0.12-14.06-0.721c-2.555-0.44-4.936-1.361-7.15-2.616c-2.214,1.255-4.595,2.176-7.15,2.616c-4.887,0.841-10.415,0.721-14.06,0.721v-2.343c0,0,7.691,0.06,11.116-3.185c1.103-1.045,2.171-2.114,3.207-3.219c-1.533-1.566-2.949-3.263-4.237-5.024c-6.697-9.148-10.086-19.866-10.086-21.2V81.127h13.139v10.015c2.344,7.092,5.023,12.697,8.072,17.432c3.049-4.734,5.728-10.34,8.072-17.432V81.127h13.139v10.015C103.35,92.475,99.961,103.193,93.264,112.341z M78.954,91.381h1.763V90.54h2.844v0.841h1.763V90.02h2.203V76.72l-4.14-4.14h-1.228h-0.04h-1.228l-4.14,4.14V90.02h2.203V91.381z" />
    <path fill="#000000" d="M86.405,109.588h3.565v3.565h-3.565V109.588z M89.343,108.767h3.633v-2.884h-3.633V108.767z M87.006,123.616h2.884v-3.633h-2.884V123.616z M83.601,116.858h2.884v-2.884h-2.884V116.858z M92.374,103.266h2.884v-3.633h-2.884V103.266z M95.258,87.776v2.884h2.884v-2.884H95.258z M93.816,97.39H96.7v-2.884h-2.884V97.39z M74.935,105.883h-3.633v2.884h3.633V105.883z M71.904,99.633H69.02v3.633h2.884V99.633z M69.02,87.776h-2.884v2.884h2.884V87.776z M70.462,94.506h-2.884v2.884h2.884V94.506z M77.873,109.588h-3.565v3.565h3.565V109.588z M80.677,113.974h-2.884v2.884h2.884V113.974z M74.388,123.616h2.884v-3.633h-2.884V123.616z M80.356,117.68v3.565h3.565v-3.565H80.356z" />
  </g>
</svg>
