<svg xmlns="http://www.w3.org/2000/svg" width="450px" height="300px" viewBox="0 0 450 300">
  <path fill="#FF9955" d="M0,0h450v300H0V0z" />
  <g>
    <path fill="#5087C6" d="M224.863,62.917l75.153,54.603l-28.707,88.348h-92.896l-28.705-88.348L224.863,62.917z" />
    <path fill="#F2C008" d="M217.745,138.982c0.566,0.261,1.07,0.281,1.42,0.057c0.247-0.158,0.327-0.374,0.327-0.454c0-0.687-0.125-1.231-0.326-1.418c-0.055-0.051-0.111-0.071-0.188-0.065c-0.323,0.023-0.404,0.083-0.416,0.093c-0.01,0.033,0.008,0.143,0.022,0.227c0.018,0.108,0.118,0.138,0.143,0.143c0.16,0.027,0.27,0.176,0.248,0.337c-0.023,0.161-0.169,0.275-0.33,0.257c-0.062-0.007-0.612-0.079-0.844-0.505c-0.098-0.181-0.169-0.489,0.051-0.93c0.2-0.401,0.562-0.627,1.018-0.637c0.638-0.013,1.3,0.399,1.519,0.792c0.107,0.191,0.146,0.441,0.164,0.715c0.061-0.059,0.126-0.114,0.2-0.161c0.248-0.157,0.536-0.202,0.836-0.129c1.015,0.247,1.325,1.325,1.383,1.569c0.123-0.06,0.263-0.075,0.407-0.036c0.169,0.046,0.313,0.157,0.402,0.289c0.052-0.019,0.107-0.032,0.163-0.032h0.218c0.107,0,0.208,0.037,0.294,0.101c0.076-0.045,0.16-0.077,0.251-0.077h0.339c0.085,0,0.163,0.028,0.235,0.067c0.083-0.057,0.179-0.091,0.281-0.091h0.218c0.059,0,0.114,0.013,0.167,0.033c0.098-0.145,0.255-0.26,0.433-0.298c0.115-0.024,0.248-0.016,0.371,0.044c0.058-0.243,0.367-1.322,1.382-1.569l0.011,0.012c0.3-0.072,0.591-0.027,0.825,0.117c0.074,0.047,0.141,0.103,0.203,0.164c0.018-0.275,0.057-0.526,0.164-0.718c0.219-0.394,0.882-0.806,1.519-0.792c0.455,0.01,0.817,0.236,1.017,0.637c0.22,0.441,0.149,0.749,0.051,0.93c-0.232,0.426-0.782,0.498-0.844,0.505c-0.159,0.018-0.3-0.093-0.326-0.251c-0.026-0.158,0.081-0.309,0.238-0.342c0.031-0.006,0.131-0.036,0.152-0.156c0.012-0.073,0.03-0.183,0.019-0.216c-0.013-0.011-0.096-0.07-0.416-0.093c-0.076-0.005-0.133,0.014-0.188,0.065c-0.201,0.188-0.326,0.731-0.326,1.418c0,0.08,0.08,0.296,0.327,0.454c0.35,0.224,0.854,0.204,1.42-0.057l-0.015,0.003c0.369-0.171,0.627-0.483,0.78-0.927c0.272-0.884,0.001-2.059-0.393-2.716c-0.577-0.962-2-0.585-2.171-0.499c-0.082,0.041-0.178,0.07-0.3,0.092c-0.098,0.017-0.197-0.014-0.267-0.085c-0.07-0.071-0.099-0.171-0.08-0.268c0.067-0.34,0.115-0.681,0.146-1.019c-0.128,0.105-0.27,0.231-0.415,0.381c-0.067,0.07-0.164,0.103-0.26,0.089s-0.179-0.074-0.223-0.16c-0.07-0.135-0.331-0.586-0.768-0.701c-0.621-0.163-1.881-0.132-1.894-0.131c-0.109,0.003-0.21-0.053-0.266-0.146c-0.036-0.059-0.046-0.128-0.037-0.194c-0.004-0.018-0.025-0.092-0.132-0.253c-0.089-0.134-0.455-0.271-0.701-0.325h-0.288c-0.246,0.053-0.611,0.19-0.702,0.325c-0.107,0.161-0.128,0.236-0.132,0.253c0.009,0.066-0.002,0.134-0.037,0.194c-0.056,0.093-0.157,0.149-0.266,0.146c-0.013,0-1.271-0.032-1.894,0.131c-0.397,0.105-0.65,0.49-0.74,0.65c-0.046,0.082-0.128,0.138-0.221,0.15c-0.093,0.013-0.187-0.019-0.253-0.086c-0.126-0.126-0.248-0.234-0.36-0.325c0.031,0.342,0.079,0.686,0.147,1.028c0.019,0.095-0.009,0.194-0.076,0.265c-0.067,0.071-0.164,0.104-0.26,0.091c-0.142-0.02-0.258-0.054-0.355-0.102c-0.171-0.085-1.595-0.462-2.172,0.499c-0.394,0.656-0.665,1.831-0.393,2.716C217.119,138.5,217.375,138.811,217.745,138.982z M224.89,132.547l-0.001-0.001c0.555,0,0.99,0.559,0.99,1.272c0,0.713-0.434,1.271-0.988,1.271c-0.555,0-0.989-0.558-0.989-1.271S224.335,132.547,224.89,132.547z M221.247,134.383c-0.011,0.01-0.022,0.022-0.031,0.034c0.209-0.266,0.815-0.689,1.615-0.394c0.564,0.209,1.304,0.629,1.532,1.125c0.016,0.035,0.023,0.066,0.034,0.099c0.007-0.001,0.015-0.003,0.018-0.004c0.018-0.003,0.037-0.005,0.055-0.005h0.781c0.019,0,0.037,0.002,0.055,0.005c0.004,0.001,0.013,0.003,0.021,0.004c0.01-0.033,0.018-0.065,0.034-0.1c0.228-0.497,0.968-0.916,1.532-1.125c0.769-0.284,1.355,0.096,1.585,0.361c0.014,0.009,0.023,0.02,0.032,0.032l-0.002,0.001c-0.008-0.01-0.021-0.022-0.03-0.032c-0.001,0-0.001-0.001-0.001-0.001c0.367,0.343,0.29,0.949,0.28,1.017c-0.023,0.157-0.165,0.268-0.322,0.255c-0.004,0-0.173-0.013-0.418-0.001c0.118,0.184,0.186,0.393,0.186,0.615c0,0.32-0.132,0.62-0.372,0.844c-0.234,0.219-0.544,0.34-0.873,0.34l0-0.005c-0.086,0-0.169-0.008-0.25-0.024c0.091,0.194,0.112,0.39,0.053,0.558c-0.153,0.428-0.771,0.612-1.044,0.565c-0.107-0.019-0.185-0.068-0.237-0.131c-0.155,0.068-0.35,0.119-0.599,0.119c-0.26,0-0.467-0.055-0.631-0.127c-0.052,0.067-0.132,0.12-0.244,0.139c-0.272,0.047-0.891-0.136-1.043-0.565c-0.059-0.166-0.04-0.36,0.048-0.551c-0.08,0.015-0.161,0.023-0.244,0.023c-0.686,0-1.245-0.531-1.245-1.183c0-0.228,0.075-0.436,0.194-0.615c-0.248-0.013-0.42,0-0.425,0l0,0h0c0,0,0,0,0,0l-0.001-0.003c-0.159,0.012-0.3-0.099-0.321-0.252C220.957,135.332,220.88,134.726,221.247,134.383z M239.146,203.384c0.198,0.239,0.229,0.574,0.077,0.845c-0.152,0.27-0.454,0.42-0.761,0.376c-0.032-0.005-0.804-0.118-2.24-0.597c-0.63-0.21-1.167-0.191-1.789-0.169c-0.575,0.021-1.169,0.042-1.852-0.122c-0.502-0.12-1.192-0.463-1.883-0.86c-0.03,0.035-0.061,0.07-0.097,0.099c-0.002,0.002-0.209,0.169-0.422,0.377c-0.06,0.118-0.144,0.478-0.176,0.767c-0.034,0.306-0.251,0.559-0.548,0.641c-0.297,0.081-0.613-0.028-0.797-0.274c-0.146-0.195-0.447-0.521-0.61-0.602c-0.197-0.099-0.863-0.278-1.384-0.393c-0.328,0.627-0.725,1.267-1.103,1.835c-0.139,0.208-0.373,0.334-0.624,0.334h-0.155c-0.251,0-0.485-0.125-0.624-0.334c-0.379-0.568-0.775-1.208-1.103-1.835c-0.521,0.115-1.187,0.294-1.384,0.393c-0.149,0.075-0.436,0.372-0.61,0.602c-0.184,0.246-0.5,0.354-0.797,0.273c-0.296-0.081-0.514-0.334-0.548-0.64c-0.033-0.29-0.116-0.649-0.176-0.767c-0.212-0.208-0.419-0.375-0.422-0.377c-0.037-0.029-0.067-0.064-0.097-0.099c-0.691,0.398-1.38,0.74-1.883,0.86c-0.683,0.164-1.278,0.143-1.852,0.122c-0.622-0.022-1.16-0.041-1.79,0.169c-1.436,0.479-2.208,0.592-2.24,0.597c-0.307,0.044-0.609-0.106-0.761-0.376c-0.152-0.271-0.121-0.606,0.077-0.845c0.286-0.345,2.651-3.17,4.157-4.144c-0.403-0.205-0.791-0.465-1.036-0.784c-0.223-0.29-0.485-0.71-0.762-1.155c-0.288-0.462-0.771-1.234-0.956-1.385c-0.443-0.344-1.451-1.051-1.461-1.058c-0.29-0.203-0.399-0.582-0.26-0.908c0.046-0.109,0.118-0.2,0.203-0.274c-0.093-0.119-0.151-0.266-0.159-0.424c-0.016-0.326,0.18-0.625,0.486-0.739c0.178-0.066,1.939-0.395,4.137,0.093c0.01-0.029,0.02-0.058,0.034-0.086c0.013-0.026,0.029-0.054,0.045-0.078c0.171-0.262,0.363-0.748,0.28-0.981c-0.121-0.341,0.017-0.72,0.33-0.901c0.313-0.182,0.711-0.114,0.946,0.161c0.497,0.58,1.295,1.481,1.513,1.668c0.027,0.023,0.053,0.045,0.079,0.067c0.112-0.261-0.164-1.051-0.484-1.571c-0.176-0.283-0.143-0.647,0.078-0.896c0.222-0.248,0.581-0.32,0.881-0.177c0.048,0.023,1.193,0.572,1.988,1.311c0.201,0.187,0.41,0.482,0.615,0.839c0.047-0.155,0.077-0.28,0.079-0.34c0-0.233-0.084-0.54-0.116-0.637c-0.108-0.325,0.017-0.681,0.304-0.867c0.287-0.186,0.664-0.154,0.915,0.078c0.452,0.415,0.965,0.943,1.281,1.445c0.251-0.45,0.434-0.742,0.459-0.78c0.138-0.217,0.377-0.349,0.634-0.349h0.155c0.257,0,0.496,0.131,0.634,0.349c0.024,0.038,0.207,0.33,0.459,0.78c0.316-0.501,0.83-1.029,1.281-1.444c0.251-0.231,0.626-0.262,0.913-0.078c0.287,0.184,0.413,0.541,0.306,0.865c-0.032,0.099-0.116,0.406-0.116,0.636c0.002,0.061,0.033,0.188,0.079,0.343c0.205-0.357,0.414-0.652,0.615-0.839c0.795-0.739,1.94-1.288,1.988-1.311c0.3-0.143,0.658-0.071,0.88,0.177c0.222,0.247,0.255,0.612,0.081,0.895c-0.321,0.521-0.597,1.312-0.485,1.573c0.026-0.022,0.052-0.044,0.079-0.067c0.218-0.187,1.016-1.087,1.513-1.668c0.235-0.275,0.633-0.342,0.946-0.16c0.313,0.181,0.451,0.56,0.33,0.901c-0.083,0.233,0.109,0.719,0.278,0.978c0.035,0.053,0.06,0.109,0.081,0.167c2.222-0.493,3.955-0.14,4.03-0.124c0.339,0.072,0.584,0.367,0.594,0.713c0.005,0.179-0.055,0.348-0.16,0.481c0.086,0.073,0.157,0.165,0.204,0.274c0.139,0.326,0.03,0.704-0.26,0.908c-0.01,0.007-1.018,0.714-1.461,1.058c-0.185,0.15-0.668,0.924-0.956,1.386c-0.277,0.445-0.539,0.865-0.762,1.155c-0.245,0.319-0.633,0.579-1.036,0.784l-0.003,0.004C236.494,200.219,238.861,203.045,239.146,203.384z M227.42,135.864c0.117,0.109,0.182,0.254,0.182,0.406c0,0.152-0.064,0.296-0.182,0.406c-0.123,0.115-0.287,0.178-0.464,0.178c-0.357,0.003-0.648-0.258-0.648-0.579l0.003-0.005c0-0.068,0.015-0.132,0.039-0.192c0.2-0.047,0.428-0.126,0.7-0.233c0.076-0.03,0.153-0.055,0.23-0.076C227.33,135.795,227.378,135.825,227.42,135.864z M223.969,137.349c0.229,0,0.355-0.102,0.42-0.188c0.174-0.23,0.086-0.541-0.006-0.869c-0.023-0.082-0.047-0.167-0.067-0.249c-0.015-0.064,0-0.087,0.006-0.096c0.035-0.054,0.133-0.093,0.185-0.107h0.707c0.061,0.016,0.154,0.057,0.186,0.108c0.006,0.01,0.02,0.032,0.006,0.095c-0.02,0.082-0.044,0.167-0.067,0.25c-0.093,0.328-0.18,0.638-0.006,0.868c0.065,0.086,0.191,0.188,0.421,0.188c0.082,0,0.224,0.073,0.338,0.213c0.09,0.111,0.107,0.199,0.103,0.219c-0.018,0.042-0.106,0.094-0.197,0.13v-0.03c0-0.134-0.089-0.252-0.219-0.289c-0.129-0.036-0.267,0.017-0.337,0.132c-0.003-0.003-0.153,0.204-0.564,0.204l0.004,0.006c-0.427,0-0.609-0.225-0.617-0.234c-0.079-0.1-0.215-0.142-0.336-0.1c-0.121,0.042-0.204,0.153-0.204,0.281v0.03c-0.09-0.036-0.178-0.088-0.197-0.13c-0.004-0.02,0.013-0.108,0.103-0.22C223.744,137.422,223.886,137.349,223.969,137.349z M225.892,135.459c-0.003-0.006,0-0.029,0.016-0.064c0.099-0.217,0.552-0.575,1.194-0.812c0.573-0.212,0.902,0.161,0.937,0.205c0.008,0.01,0.019,0.022,0.029,0.031c0.049,0.046,0.078,0.134,0.092,0.227c-0.325,0.005-0.842,0.047-1.328,0.238c-0.185,0.073-0.75,0.295-0.905,0.226C225.92,135.508,225.907,135.502,225.892,135.459z M222.891,135.287c-0.486-0.191-1.004-0.234-1.329-0.238c0.014-0.094,0.043-0.181,0.092-0.227c0.015-0.012,0.027-0.021,0.036-0.033l-0.004-0.001c0.041-0.049,0.367-0.412,0.935-0.202c0.643,0.238,1.095,0.596,1.194,0.812c0.016,0.035,0.018,0.057,0.016,0.064c-0.016,0.043-0.029,0.049-0.035,0.051C223.641,135.582,223.076,135.36,222.891,135.287z M214.704,160.566h-2.643v2.262h1.581c0.166,0,0.3,0.134,0.3,0.3v2.224h5.706v-18.911c0-0.166,0.134-0.3,0.3-0.3h1.2v-0.825c0-0.166,0.134-0.3,0.3-0.3h1.125v-0.825c0-0.166,0.134-0.3,0.3-0.3h3.975c0.166,0,0.3,0.134,0.3,0.3v0.825h1.125c0.166,0,0.3,0.134,0.3,0.3v0.825h1.2c0.166,0,0.3,0.134,0.3,0.3v18.911h5.707v-2.227c0-0.166,0.134-0.3,0.3-0.3h1.58v-2.261h-2.642c-0.166,0-0.3-0.134-0.3-0.3v-20.268c0-0.166,0.134-0.3,0.3-0.3h1.743v-5.448h-0.518c-0.166,0-0.3-0.134-0.3-0.3v-0.599h-1.906c-0.166,0-0.3-0.134-0.3-0.3v-1.699h-17.752v1.699c0,0.166-0.134,0.3-0.3,0.3h-1.906v0.599c0,0.166-0.134,0.3-0.3,0.3h-0.518v5.448h1.743c0.166,0,0.3,0.134,0.3,0.3v20.269C215.004,160.432,214.87,160.566,214.704,160.566z M216.861,135.031c0.666-1.11,2.057-1.005,2.704-0.818c-0.063-0.42-0.102-0.84-0.112-1.254c-0.003-0.105,0.05-0.204,0.139-0.261c0.089-0.057,0.201-0.062,0.295-0.015c0.003,0.002,0.326,0.183,0.725,0.533c0.196-0.249,0.49-0.517,0.9-0.625c0.527-0.139,1.388-0.155,1.812-0.154c0.039-0.099,0.091-0.204,0.17-0.323c0.267-0.401,0.971-0.56,1.109-0.587c0.019-0.004,0.039-0.006,0.059-0.006h0.353c0.02,0,0.04,0.002,0.059,0.006c0.138,0.028,0.842,0.186,1.109,0.587c0.079,0.118,0.131,0.224,0.17,0.323c0.424-0.001,1.285,0.015,1.812,0.154c0.438,0.115,0.744,0.414,0.938,0.674c0.408-0.367,0.748-0.564,0.765-0.574c0.094-0.053,0.209-0.052,0.302,0.004c0.092,0.056,0.148,0.157,0.145,0.265c-0.01,0.41-0.048,0.826-0.11,1.242c0.664-0.179,2.007-0.255,2.659,0.831l0.002,0.003c0.471,0.789,0.777,2.142,0.45,3.198c-0.186,0.604-0.561,1.05-1.085,1.292c-1.022,0.472-1.688,0.214-1.995,0.018c-0.247-0.158-0.436-0.388-0.532-0.627c-0.033,0.212-0.089,0.405-0.191,0.558c-0.25,0.375-0.752,0.55-1.195,0.705c-0.124,0.043-0.29,0.102-0.397,0.152c-0.002,0.005-0.004,0.009-0.005,0.011c-0.025,0.052-0.065,0.094-0.113,0.124c-0.027,0.112-0.054,0.294-0.073,0.426c-0.015,0.103-0.032,0.214-0.051,0.325c0.304,0.493,0.631,0.867,0.636,0.873c0.078,0.088,0.097,0.214,0.049,0.322c-0.049,0.108-0.155,0.177-0.274,0.177c-0.024,0-0.454-0.005-1.004-0.292c-0.049,0.018-0.1,0.032-0.157,0.037l-1.559,0.491c-0.029,0.009-0.06,0.014-0.09,0.014h-0.9c-0.032,0-0.063-0.005-0.094-0.015l-1.497-0.49c-0.057-0.005-0.109-0.019-0.158-0.037c-0.551,0.289-0.983,0.293-1.007,0.293c-0.124,0-0.236-0.077-0.281-0.194c-0.044-0.116-0.012-0.248,0.081-0.331c-0.009,0.008-0.017,0.016-0.026,0.026c0.005-0.006,0.335-0.384,0.639-0.88c-0.019-0.109-0.035-0.217-0.05-0.318c-0.019-0.131-0.045-0.31-0.072-0.423c-0.05-0.029-0.091-0.073-0.117-0.127c-0.001-0.002-0.003-0.007-0.006-0.012c-0.107-0.05-0.271-0.108-0.392-0.15c-0.443-0.155-0.945-0.33-1.194-0.705c-0.102-0.153-0.158-0.346-0.191-0.558c-0.097,0.239-0.285,0.468-0.532,0.626c-0.306,0.196-0.972,0.454-1.995-0.018c-0.523-0.242-0.899-0.689-1.085-1.293C216.082,137.17,216.388,135.818,216.861,135.031z M211.22,171.138h27.281v2.083H211.22V171.138z M215.464,165.912h18.792v2.083h-18.792V165.912z M177.119,146.694c-0.165,0-0.626-0.255-1.125-0.583h0.903c0.273,0,0.542-0.126,0.826-0.259c0.271-0.127,0.55-0.258,0.8-0.258c0.695,0,1.591-0.875,1.691-0.975c0.086-0.086,0.112-0.215,0.065-0.327c-0.047-0.112-0.156-0.185-0.277-0.185c-0.012,0-1.227-0.002-1.775-0.139c-0.326-0.082-0.927-0.539-1.328-0.888h1.699c1.453,0,2.242-1.217,2.517-2.012c0.58-0.048,2.293-0.212,3.836-0.583c1.964-0.471,3.113-6.081,3.252-6.796c0-0.002,0.002-0.007,0.002-0.008c0,0.001-0.001,0.001-0.001,0.002c0.001-0.003,0.002-0.008,0.002-0.012c0.031-0.16-0.072-0.316-0.232-0.35c-0.16-0.034-0.317,0.066-0.355,0.225c-0.002,0.011-0.288,1.149-1.345,1.81c-0.45,0.281-0.81,0.395-1.072,0.435c0.51-0.607,1.413-1.712,2.07-2.672c1.036-1.514,2.417-5.233,2.491-7.255c0.067-1.803,2.112-6.216,4.579-6.216c2.424,0,3.855,1.011,4.138,2.922c0.177,1.193-0.3,2.075-0.817,2.389c-0.364,0.221-0.762,0.191-1.15-0.089c-0.257-0.186-0.383-0.382-0.384-0.599c-0.003-0.466,0.545-0.977,0.757-1.134c0.069-0.052,0.113-0.131,0.12-0.217c0.007-0.086-0.023-0.171-0.083-0.233c-1.262-1.303-2.664-1.136-3.556-0.546c-1.119,0.741-1.848,2.446-1.075,4.272c0.122,0.288,0.127,0.552,0.017,0.809c-0.297,0.692-1.314,1.081-1.324,1.085c-0.077,0.029-0.14,0.089-0.172,0.166c-0.564,1.354-0.167,5.13,0.096,7.117l-1.347-1.925c-0.071-0.102-0.199-0.149-0.32-0.119c-0.121,0.031-0.21,0.133-0.224,0.257c-0.008,0.07-0.835,7.06-3.418,10.575c-2.129,2.898-6.088,3.345-7.344,3.413l0.261-0.938c0.03-0.109-0.003-0.225-0.086-0.301c-0.083-0.076-0.202-0.099-0.308-0.06C178.117,146.493,177.574,146.694,177.119,146.694z M176.693,143.08c-0.009,0.001-0.018,0.004-0.028,0.004l0.011-0.004H176.693z M215.671,130.994c0.001,0.01,0.006,0.019,0.006,0.029l-0.006,0.006V130.994z M213.302,168.526h23.119v2.082h-23.119V168.526z M226.549,144.491v0.825c0,0.166,0.134,0.3,0.3,0.3h1.125v0.825c0,0.166,0.134,0.3,0.3,0.3h1.2v18.611h-9.225v-18.611h1.2c0.166,0,0.3-0.134,0.3-0.3v-0.825h1.125c0.166,0,0.3-0.134,0.3-0.3v-0.825H226.549z M213.943,165.642c0,0.004,0.002,0.007,0.002,0.01l-0.002,0.003V165.642z M213.032,118.613c-0.4-1.247,0.018-2.43,0.427-2.837c0.07-0.07,0.205-0.181,0.321-0.143c0.128,0.042,0.146,0.095,0.153,0.116c0.054,0.162-0.106,0.49-0.203,0.63c-0.028,0.04-0.046,0.086-0.052,0.134c-0.089,0.697,0.16,1.133,0.384,1.376c0.356,0.385,0.942,0.596,1.567,0.566c0.725-0.035,1.613,0.717,1.894,1.01c0.085,0.088,0.215,0.116,0.329,0.071c0.114-0.046,0.188-0.156,0.188-0.278v-1.69h13.64v1.69c0,0.123,0.075,0.233,0.188,0.278c0.114,0.046,0.244,0.017,0.328-0.071c0.281-0.293,1.169-1.046,1.894-1.01c0.626,0.03,1.211-0.181,1.567-0.566c0.224-0.243,0.473-0.678,0.384-1.375c-0.006-0.048-0.024-0.094-0.052-0.134c-0.113-0.163-0.255-0.476-0.203-0.63c0.007-0.02,0.025-0.074,0.153-0.115c0.116-0.038,0.251,0.074,0.321,0.143c0.409,0.407,0.828,1.591,0.427,2.837c-0.323,1.007-1.43,3.35-4.709,3.35c-0.166,0-0.3,0.134-0.3,0.3v1.381h-13.639v-1.38c0-0.166-0.134-0.3-0.3-0.3C214.462,121.962,213.355,119.62,213.032,118.613z M223.373,136.078c0.023,0.061,0.037,0.124,0.037,0.19c0,0.152-0.064,0.296-0.181,0.406c-0.123,0.117-0.288,0.18-0.462,0.18l-0.002-0.002c-0.356,0-0.645-0.262-0.645-0.583c0-0.214,0.129-0.399,0.319-0.501c0.078,0.022,0.156,0.047,0.233,0.077C222.945,135.953,223.173,136.032,223.373,136.078z M223.456,92.694c0.001,0.009,0.005,0.016,0.005,0.025h-0.005V92.694z M216.243,107.101c-0.339-0.984-0.007-1.931,0.338-2.288c0.054-0.056,0.193-0.183,0.308-0.148c0.038,0.012,0.104,0.036,0.116,0.073c0.03,0.092-0.068,0.325-0.177,0.471c-0.03,0.041-0.05,0.089-0.057,0.139c-0.08,0.583,0.131,0.955,0.323,1.165c0.324,0.355,0.872,0.55,1.467,0.523c0.652-0.03,1.444,0.597,1.695,0.841c0.086,0.084,0.215,0.109,0.326,0.062c0.111-0.047,0.183-0.156,0.183-0.276v-1.236h8.194v1.236c0,0.121,0.072,0.229,0.183,0.276c0.111,0.047,0.24,0.022,0.326-0.062c0.251-0.244,1.046-0.871,1.694-0.841c0.595,0.027,1.143-0.169,1.467-0.523c0.192-0.21,0.403-0.582,0.323-1.165c-0.007-0.05-0.027-0.099-0.057-0.14c-0.108-0.146-0.207-0.379-0.176-0.471c0.012-0.036,0.078-0.061,0.116-0.073c0.115-0.035,0.253,0.092,0.307,0.148c0.345,0.358,0.677,1.304,0.338,2.288c-0.289,0.838-1.279,2.788-4.222,2.788c-0.08,0-0.156,0.032-0.212,0.088s-0.088,0.133-0.088,0.212v1.133h-8.194v-1.133c0-0.08-0.031-0.156-0.088-0.212c-0.056-0.056-0.133-0.088-0.212-0.088C217.522,109.889,216.532,107.939,216.243,107.101z M214.752,112.696c-0.328-0.859-0.091-1.759,0.312-2.205c0.075-0.083,0.271-0.271,0.455-0.22c0.08,0.022,0.137,0.054,0.146,0.081c0.027,0.086-0.083,0.312-0.195,0.449c0.012-0.015,0.025-0.027,0.039-0.039c-0.056,0.047-0.094,0.113-0.105,0.185c-0.066,0.437,0.038,0.825,0.304,1.121c0.345,0.386,0.96,0.599,1.644,0.571c0.89-0.037,1.906,0.843,1.916,0.852c0.088,0.078,0.214,0.096,0.322,0.048c0.107-0.049,0.176-0.155,0.176-0.273v-1.344h10.191v1.344c0,0.118,0.069,0.225,0.176,0.273c0.107,0.049,0.233,0.03,0.322-0.048c0.01-0.009,1.025-0.889,1.916-0.852c0.684,0.028,1.299-0.186,1.644-0.571c0.265-0.296,0.37-0.684,0.304-1.121c-0.008-0.054-0.031-0.105-0.066-0.147c-0.112-0.137-0.222-0.362-0.195-0.448c0.009-0.028,0.066-0.059,0.146-0.081c0.184-0.05,0.38,0.137,0.455,0.22c0.404,0.445,0.641,1.345,0.312,2.205c-0.321,0.841-1.424,2.797-4.714,2.797c-0.08,0-0.156,0.031-0.212,0.088s-0.088,0.133-0.088,0.212v1.175h-10.191v-1.174c0-0.08-0.031-0.156-0.088-0.212c-0.056-0.056-0.133-0.088-0.212-0.088C216.176,115.493,215.073,113.537,214.752,112.696z M222.655,89.959c0.236,0.708,1.34,0.545,1.465,0.524c0.079-0.013,0.149-0.057,0.196-0.123c0.046-0.065,0.065-0.146,0.05-0.225c-0.006-0.037-0.644-3.658-0.696-4.599c-0.036-0.642,0.517-0.992,0.688-1.084h1.007c0.173,0.093,0.723,0.441,0.688,1.084c-0.052,0.941-0.69,4.562-0.696,4.599c-0.014,0.079,0.004,0.16,0.05,0.225c0.046,0.065,0.117,0.109,0.196,0.123c0.125,0.021,1.229,0.184,1.465-0.524c0.237-0.711-0.158-0.933-0.204-0.956c-0.1-0.061-0.218-0.161-0.277-0.234c0.102-0.034,0.259-0.005,0.41,0.085c0.273,0.161,0.565,0.524,0.565,1.064c0,1.362-0.268,1.7-0.427,1.779c-0.018,0.009-0.029,0.015-0.044,0.022h-0.522c-0.166,0-0.3,0.134-0.3,0.3v0.4h-2.811v-0.4c0-0.166-0.134-0.3-0.3-0.3h-0.522c-0.015-0.007-0.026-0.013-0.044-0.022c-0.16-0.08-0.427-0.417-0.427-1.779c0-0.54,0.292-0.904,0.565-1.064c0.152-0.089,0.308-0.119,0.41-0.085c-0.061,0.073-0.183,0.177-0.297,0.245C222.814,89.026,222.418,89.247,222.655,89.959z M222.058,105.826v-0.839c0-0.166-0.134-0.3-0.3-0.3c-2.713,0-3.623-1.673-3.888-2.392c-0.274-0.744-0.065-1.531,0.271-1.895c0.111-0.12,0.226-0.178,0.306-0.155c0.06,0.017,0.085,0.036,0.089,0.042c0.019,0.052-0.064,0.241-0.156,0.356c-0.033,0.042-0.055,0.091-0.063,0.144c-0.059,0.398,0.038,0.75,0.279,1.017c0.3,0.333,0.824,0.518,1.399,0.493c0.6-0.026,1.33,0.514,1.56,0.724c0.088,0.08,0.215,0.101,0.323,0.053c0.109-0.048,0.179-0.156,0.179-0.275v-1.041h5.605v1.041c0,0.119,0.07,0.227,0.179,0.275c0.109,0.048,0.236,0.027,0.323-0.053c0.231-0.21,0.963-0.749,1.56-0.724c0.576,0.025,1.099-0.16,1.399-0.493c0.241-0.267,0.337-0.619,0.279-1.017c-0.008-0.053-0.029-0.103-0.063-0.144c-0.103-0.131-0.173-0.308-0.156-0.356c0.005-0.006,0.03-0.025,0.09-0.042c0.08-0.023,0.194,0.035,0.306,0.155c0.336,0.363,0.546,1.15,0.271,1.895c-0.265,0.719-1.175,2.392-3.888,2.392c-0.166,0-0.3,0.134-0.3,0.3v0.839H222.058z M221.651,76.6l-4.34-3.199l5.397,0.012c0.128,0,0.242-0.08,0.284-0.201l1.869-5.356l1.877,5.356c0.042,0.121,0.156,0.201,0.284,0.201l5.368-0.012l-4.396,3.139c-0.106,0.076-0.151,0.212-0.111,0.335l1.666,5.213l-4.519-3.05c-0.104-0.07-0.241-0.068-0.343,0.005l-4.518,3.25l1.594-5.364C221.797,76.806,221.753,76.675,221.651,76.6z M219.718,96.789c-0.055,0.347,0.029,0.657,0.242,0.896c0.28,0.314,0.782,0.489,1.342,0.466c0.669-0.027,1.441,0.62,1.448,0.627c0.089,0.075,0.214,0.093,0.32,0.044c0.106-0.049,0.174-0.155,0.174-0.272v-0.929h3.234v0.929c0,0.117,0.068,0.223,0.174,0.272c0.106,0.049,0.231,0.032,0.32-0.044c0.007-0.006,0.779-0.653,1.448-0.627c0.561,0.022,1.063-0.152,1.343-0.466c0.213-0.239,0.296-0.549,0.242-0.895c-0.009-0.055-0.032-0.107-0.069-0.149c-0.067-0.079-0.129-0.199-0.133-0.253c0.011-0.006,0.029-0.014,0.063-0.023c0.081-0.022,0.199,0.041,0.307,0.163c0.286,0.321,0.451,0.962,0.214,1.563c-0.245,0.62-1.087,2.064-3.608,2.064c-0.166,0-0.3,0.134-0.3,0.3v0.704h-3.234v-0.704c0-0.166-0.134-0.3-0.3-0.3c-2.521,0-3.363-1.444-3.608-2.064c-0.238-0.602-0.072-1.242,0.214-1.563c0.109-0.122,0.227-0.185,0.307-0.163c0.034,0.009,0.051,0.017,0.062,0.023c-0.004,0.054-0.066,0.174-0.134,0.254C219.751,96.683,219.727,96.735,219.718,96.789z M220.477,93.126c-0.051,0.333,0.03,0.63,0.234,0.858c0.261,0.291,0.721,0.453,1.231,0.432c0.495-0.02,1.099,0.409,1.29,0.576c0.088,0.078,0.214,0.096,0.321,0.047c0.107-0.049,0.176-0.155,0.176-0.273v-1.748h2.264v1.748c0,0.118,0.069,0.225,0.176,0.273c0.107,0.049,0.233,0.03,0.321-0.047c0.192-0.167,0.798-0.596,1.29-0.576c0.51,0.021,0.97-0.141,1.231-0.432c0.204-0.228,0.285-0.525,0.234-0.858c-0.008-0.054-0.031-0.105-0.067-0.147c-0.053-0.065-0.104-0.162-0.114-0.215c0.009-0.004,0.018-0.008,0.035-0.013c0.057-0.016,0.149,0.036,0.235,0.131c0.264,0.293,0.418,0.885,0.201,1.451c-0.22,0.573-0.977,1.905-3.243,1.905c-0.166,0-0.3,0.134-0.3,0.3v0.482h-2.264v-0.482c0-0.166-0.134-0.3-0.3-0.3c-2.266,0-3.022-1.332-3.243-1.905c-0.218-0.566-0.064-1.159,0.201-1.451c0.086-0.095,0.178-0.147,0.235-0.131c0.017,0.005,0.027,0.009,0.036,0.013c-0.011,0.052-0.061,0.15-0.115,0.216c-0.017,0.021-0.032,0.045-0.043,0.07C220.489,93.074,220.481,93.1,220.477,93.126z M223.246,101.422c0.001,0.01,0.006,0.018,0.006,0.028l-0.006,0.008V101.422z M229.111,138.832c-0.02,0.13-0.05,0.241-0.097,0.312c-0.129,0.193-0.501,0.333-0.823,0.446c0.066-0.197,0.146-0.443,0.244-0.75c0.08-0.252,0.168-0.33,0.207-0.337C228.745,138.487,228.954,138.65,229.111,138.832z M226.006,141.096c0.106,0.32,0.258,0.573,0.455,0.757l-1.226,0.387h-0.806l-1.172-0.384c0.198-0.184,0.35-0.439,0.456-0.759c0.07,0.037,0.146,0.059,0.229,0.059h0.218c0.042,0,0.083-0.006,0.123-0.017c0.101,0.142,0.251,0.232,0.421,0.232h0.339c0.168,0,0.317-0.089,0.418-0.228c0.032,0.007,0.065,0.013,0.098,0.013h0.218C225.859,141.155,225.936,141.133,226.006,141.096z M228.545,137.912c-0.313,0.05-0.543,0.302-0.684,0.748c-0.2,0.632-0.325,0.993-0.398,1.194c-0.032-0.015-0.065-0.032-0.096-0.055c-0.109-0.08-0.258-0.077-0.364,0.006c-0.049,0.039-0.131,0.099-0.245,0.17c-0.11,0.068-0.164,0.198-0.135,0.323c0.118,0.506,0.4,1.02,0.666,1.423c-0.126-0.072-0.26-0.161-0.397-0.278c-0.2-0.17-0.343-0.489-0.415-0.923c-0.014-0.087-0.066-0.163-0.141-0.208s-0.167-0.055-0.25-0.027c-0.043,0.014-0.09,0.029-0.153,0.047c-0.103,0.029-0.182,0.11-0.208,0.213c-0.002,0.006-0.003,0.006-0.004,0.01h-0.116c-0.064-0.077-0.162-0.119-0.263-0.108c-0.015,0.002-0.031,0.003-0.049,0.005c-0.146,0.013-0.287,0.133-0.298,0.279c-0.001,0.017-0.005,0.029-0.008,0.039h-0.226c-0.003-0.011-0.007-0.024-0.008-0.042c-0.009-0.145-0.122-0.263-0.266-0.279c-0.017-0.002-0.034-0.004-0.049-0.005c-0.019-0.002-0.036-0.003-0.05-0.005c-0.107-0.014-0.211,0.031-0.276,0.116h-0.11c-0.003-0.007-0.005-0.008-0.007-0.02c-0.021-0.108-0.101-0.195-0.205-0.228c-0.046-0.014-0.094-0.03-0.147-0.049c-0.084-0.03-0.177-0.02-0.253,0.025c-0.076,0.046-0.129,0.123-0.143,0.211c-0.07,0.447-0.216,0.775-0.42,0.949c-0.138,0.117-0.272,0.206-0.398,0.278c0.273-0.414,0.563-0.946,0.675-1.465c0.027-0.124-0.028-0.251-0.135-0.318c-0.081-0.05-0.158-0.103-0.229-0.157c-0.11-0.084-0.263-0.082-0.371,0.006c-0.034,0.028-0.073,0.048-0.112,0.066c-0.073-0.201-0.197-0.562-0.398-1.193c-0.141-0.446-0.371-0.697-0.683-0.748c-0.014-0.002-0.028,0.001-0.042,0c0.094-0.043,0.195-0.052,0.313-0.023c0.745,0.181,0.945,1.141,0.947,1.15c0.003,0.017,0.008,0.034,0.015,0.05c0.017,0.044,0.029,0.086,0.043,0.131c0.018,0.061,0.054,0.114,0.104,0.153c0.051,0.04,0.14,0.102,0.27,0.17c0.142,0.074,0.316,0.024,0.397-0.113c0.004-0.006,0.004-0.005,0.006-0.008c0.019,0.007,0.043,0.026,0.052,0.042c0.001,0.019,0.003,0.037,0.005,0.062c0.009,0.13,0.1,0.238,0.227,0.27c0.058,0.014,0.118,0.027,0.169,0.038c0.125,0.026,0.251-0.031,0.316-0.14h0.108c0.002,0.004,0.003,0.004,0.004,0.01c0.032,0.124,0.139,0.213,0.266,0.223c0.023,0.002,0.048,0.004,0.08,0.005c0.137,0.007,0.262-0.08,0.303-0.212c0-0.002,0.001-0.001,0.001-0.003h0.233c0.001,0.002,0.001,0.002,0.002,0.004c0.04,0.131,0.163,0.219,0.3,0.213c0.016-0.001,0.031-0.001,0.047-0.002c0.13-0.008,0.24-0.1,0.271-0.227c0.002-0.007,0.003-0.007,0.005-0.012h0.105c0.058,0.119,0.186,0.186,0.317,0.164c0.051-0.008,0.105-0.017,0.155-0.028c0.133-0.027,0.231-0.139,0.24-0.275c0.003-0.052,0.006-0.086,0.006-0.086c0.001-0.006,0-0.006,0-0.006c0.008-0.016,0.033-0.035,0.052-0.042c0.005,0.007,0.012,0.018,0.019,0.036c0.032,0.074,0.092,0.131,0.167,0.161c0.075,0.029,0.158,0.026,0.232-0.007c0.076-0.035,0.144-0.069,0.199-0.103c0.071-0.043,0.121-0.114,0.138-0.195s0.038-0.153,0.066-0.225c0.006-0.017,0.011-0.034,0.015-0.052c0.002-0.009,0.202-0.968,0.946-1.15c0.119-0.029,0.221-0.02,0.316,0.024C228.575,137.912,228.561,137.909,228.545,137.912z M224.502,133.816c0-0.384,0.206-0.671,0.389-0.671c0.183,0.003,0.39,0.288,0.39,0.672l-0.001-0.001c0,0.384-0.205,0.671-0.389,0.671C224.707,134.487,224.502,134.2,224.502,133.816z M221.286,138.841c0.097,0.306,0.177,0.552,0.243,0.748c-0.321-0.113-0.691-0.252-0.819-0.445c-0.048-0.072-0.078-0.184-0.098-0.315c0.157-0.181,0.364-0.342,0.467-0.325C221.118,138.51,221.206,138.589,221.286,138.841z M218.041,123.909c0.001,0.01,0.006,0.018,0.006,0.028l-0.006,0.006V123.909z M175.569,183.273c0.029,0.538-0.302,1.114-0.642,1.549c-0.214-1.113-0.338-2.058-0.41-2.73v-0.001C174.977,182.324,175.54,182.719,175.569,183.273z M210.403,125.335c-0.412-1.312,0.007-2.637,0.467-3.09c0.073-0.072,0.214-0.186,0.337-0.145c0.142,0.047,0.163,0.112,0.172,0.136c0.065,0.194-0.121,0.564-0.216,0.704c-0.027,0.039-0.044,0.085-0.05,0.132c-0.094,0.75,0.172,1.214,0.412,1.472c0.372,0.401,0.98,0.621,1.625,0.589c0.767-0.038,1.705,0.775,2.002,1.091c0.084,0.09,0.215,0.119,0.329,0.074c0.114-0.045,0.19-0.156,0.19-0.279v-1.774h18.383v1.774c0,0.123,0.075,0.234,0.19,0.279c0.115,0.045,0.245,0.016,0.329-0.074c0.297-0.316,1.235-1.129,2.002-1.091c0.646,0.032,1.253-0.188,1.625-0.589c0.24-0.258,0.505-0.723,0.412-1.472c-0.006-0.047-0.023-0.093-0.05-0.132c-0.122-0.18-0.275-0.529-0.216-0.704c0.008-0.024,0.03-0.088,0.171-0.135c0.123-0.041,0.264,0.073,0.337,0.145c0.461,0.453,0.88,1.779,0.467,3.09c-0.342,1.087-1.51,3.616-4.967,3.616c-0.166,0-0.3,0.134-0.3,0.3v1.478h-18.383v-1.478c0-0.166-0.134-0.3-0.3-0.3C211.913,128.951,210.745,126.422,210.403,125.335z M225.39,137.882l0.007-0.001v0.038C225.395,137.906,225.39,137.895,225.39,137.882z M181.069,196.262c0.33,0.601,0.454,1.249,0.496,1.756c-0.909-0.807-1.704-1.71-2.397-2.67l-0.002-0.002C179.852,195.408,180.723,195.632,181.069,196.262z M186.541,201.404c-1.127-0.606-2.327-1.352-3.568-2.27c0.655-0.154,1.5-0.226,2.053,0.143C185.705,199.73,186.237,200.723,186.541,201.404z M270.557,195.347c-0.693,0.957-1.488,1.86-2.397,2.67l-0.002,0.002c0.042-0.506,0.166-1.155,0.496-1.756C269,195.634,269.872,195.409,270.557,195.347z M176.487,187.912c0.192,0.468-0.033,1.098-0.304,1.593c-0.344-0.974-0.622-1.926-0.845-2.819C175.805,187.011,176.295,187.445,176.487,187.912z M192.68,203.731c-1.11-0.24-2.586-0.666-4.302-1.425l0.001,0c1.004-0.075,2.284-0.101,2.84,0.142C191.695,202.656,192.246,203.214,192.68,203.731z M261.341,202.306c-1.715,0.759-3.19,1.184-4.3,1.425c0.434-0.517,0.984-1.075,1.46-1.283C259.057,202.204,260.337,202.231,261.341,202.306z M266.752,199.137c-1.242,0.918-2.442,1.665-3.57,2.271l0-0.002c0.304-0.681,0.835-1.674,1.515-2.127C265.25,198.91,266.097,198.983,266.752,199.137z M178.306,192.349c0.149,0.567,0.066,1.164-0.052,1.614c-0.549-0.914-1.02-1.857-1.424-2.799C177.455,191.408,178.164,191.809,178.306,192.349z M283.449,135.652c0.655-0.46,1.397-0.981,1.907-2.357c0.596-1.608,0.144-5.335-0.152-7.279c-0.3,0.85-0.759,1.947-1.311,2.599c-0.875,1.035-1.216,3.511-1.219,3.536c-0.02,0.148-0.146,0.26-0.296,0.26c-0.15,0.001-0.277-0.109-0.298-0.258c-0.014-0.102-0.349-2.507,0.283-3.859l0.163-0.344c0.629-1.327,1.801-3.797,1.955-6.497c0.118-2.068-1.044-5.5-1.728-7.317c-0.099,0.777-0.299,1.76-0.707,2.577c-0.52,1.04-0.59,2.702-0.647,4.037c-0.024,0.569-0.045,1.06-0.096,1.446c-0.16,1.197,0.156,2.173,0.159,2.183c0.041,0.121-0.001,0.256-0.102,0.333c-0.102,0.078-0.242,0.083-0.349,0.011c-0.077-0.051-0.368-0.305-0.879-1.411c-0.267-0.578-0.23-1.416-0.18-2.575c0.056-1.295,0.133-3.07-0.188-5.317c-0.368-2.577-1.66-4.192-3.842-4.8l-0.063-0.018c-0.422-0.12-0.872-0.764-1.204-1.349c-0.002,0.301,0.036,0.605,0.167,0.815c0.329,0.527,0.279,1.143,0.21,1.995c-0.037,0.454-0.079,0.969-0.079,1.596c0,1.663,1.791,3.64,1.809,3.659c0.107,0.116,0.105,0.296-0.004,0.41c-0.109,0.114-0.289,0.124-0.41,0.023c-0.28-0.234-2.737-2.315-3.013-3.233c-0.125-0.416-0.123-0.657-0.121-1.022c0.003-0.45,0.008-1.13-0.231-2.709c-0.278-1.835-2.213-3.03-3.626-3.903c-0.679-0.419-1.168-0.722-1.387-1.033c-0.319-0.456-0.633-1.041-0.864-1.506c-0.21,0.961-0.427,2.295-0.236,2.87c0.274,0.821,1.661,2.027,2.491,2.747l0.342,0.299c0.829,0.737,1.108,1.734,1.12,1.776c0.033,0.122-0.014,0.252-0.118,0.325c-0.103,0.073-0.242,0.072-0.345-0.001c-0.17-0.12-4.173-2.962-4.882-4.026c-0.443-0.665-0.389-1.536-0.332-2.458c0.042-0.689,0.087-1.402-0.055-2.112c-0.198-0.992-1.627-2.18-2.888-3.229c-0.766-0.637-1.489-1.239-1.942-1.788c-0.242-0.293-0.518-0.576-0.802-0.841c0.504,0.906,0.809,2.121,1.067,3.153c0.331,1.323,1.679,3.942,1.692,3.969c0.064,0.123,0.034,0.275-0.071,0.365c-0.105,0.091-0.259,0.097-0.372,0.015c-0.019-0.014-1.895-1.378-2.908-2.053c-0.873-0.582-1.036-1.507-1.282-2.906c-0.081-0.461-0.173-0.983-0.303-1.569c-0.327-1.47-2.041-3.106-4.827-4.606c-0.334-0.18-0.629-0.395-0.883-0.611c0.396,1.015,0.931,2.187,1.4,2.613c0.934,0.85,1.98,3.26,2.118,3.586c0.008,0.016,0.013,0.028,0.015,0.032c-0.001-0.002-0.002-0.003-0.003-0.005c0.001,0.002,0.004,0.009,0.004,0.011c0.056,0.132,0.01,0.285-0.109,0.365c-0.119,0.08-0.278,0.064-0.38-0.037c-0.026-0.026-0.047-0.056-0.062-0.09c-0.007-0.015-0.694-1.511-2.751-3.239c-2.011-1.689-4.328-2.493-5.272-2.682c-0.7-0.14-1.71-1.251-2.281-1.942c-0.118,1.283,0.777,3.028,1.54,3.945c0.772,0.927,2.294,2.095,2.5,2.251c0.001,0,0.003,0.002,0.004,0.002c-0.001,0-0.001,0-0.002-0.001c0.013,0.01,0.02,0.015,0.021,0.016c0.129,0.096,0.158,0.277,0.068,0.409c-0.091,0.133-0.27,0.17-0.406,0.086c-0.006-0.004-0.623-0.384-1.129-0.384c-0.461,0-3.123,0.105-4.269,0.15c0.463,0.675,1.475,1.979,2.772,2.628c1.246,0.624,2.158,0.49,3.123,0.349c0.412-0.061,0.839-0.123,1.291-0.123c1.458,0,4.122,0.677,5.243,1.519c0.99,0.742,3.518,1.842,3.544,1.853c0.127,0.055,0.2,0.19,0.176,0.326c-0.024,0.136-0.137,0.239-0.276,0.248l-1.287,0.086c-0.031,0.002-0.062-0.001-0.093-0.008c-0.016-0.004-1.927-0.608-4.034-1.924c-1.442-0.901-3.089-0.771-3.827-0.648c0.319,0.523,0.898,1.46,1.131,1.751c0.277,0.346,2.102,1.448,3.606,1.783c0.575,0.128,1.545,0.157,2.571,0.188c1.671,0.051,3.565,0.108,4.615,0.606c1.653,0.783,3.927,2.88,4.023,2.969c0.098,0.091,0.124,0.237,0.063,0.356c-0.061,0.12-0.194,0.184-0.326,0.158c-0.055-0.011-1.363-0.278-2.349-0.995c-0.795-0.578-2.631-1.383-5.187-1.748c-1.384-0.198-2.257-0.069-2.723,0.058c1.206,1.01,2.452,2.025,2.643,2.123c0.454,0.227,2.499,1.197,3.457,1.436c0.989,0.247,3.943,0.676,5.268,0.764c0.884,0.059,1.98,0.745,2.743,1.309c0.123,0.091,0.158,0.259,0.081,0.391c-0.077,0.132-0.24,0.186-0.38,0.124c-1.134-0.496-3.542-0.336-4.333-0.283c-0.675,0.045-1.585-0.023-2.321-0.1c0.336,0.221,0.679,0.441,0.905,0.57c0.149,0.085,0.377,0.251,0.692,0.481c0.997,0.728,2.854,2.083,4.453,2.403c0.613,0.122,1.28,0.173,1.987,0.227c1.715,0.131,3.658,0.278,5.423,1.539c2.482,1.773,2.937,5.377,2.956,5.53c0.018,0.148-0.077,0.287-0.221,0.326c-0.145,0.038-0.296-0.036-0.353-0.174c-0.011-0.026-1.112-2.619-3.015-4.357c-1.481-1.352-5.131-1.264-6.558-1.172c0.297,0.365,0.713,0.934,1.104,1.668c0.619,1.159,2.619,2.494,4.326,3.303c1.798,0.851,5.022,3.378,6.149,5.719c1.157,2.403-0.764,7.731-0.847,7.956c-0.051,0.139-0.195,0.22-0.34,0.191c-0.145-0.028-0.248-0.158-0.242-0.306c0.002-0.043,0.161-4.367-0.592-7.294c-0.561-2.182-3.308-3.681-4.538-4.255c0.234,0.749,0.581,1.969,0.581,2.635c0,0.778,0.379,4.126,1.583,6.018c1.36,2.138,1.653,3.972,0.87,5.45c-0.571,1.079-3.22,2.012-5.341,2.605c-0.048,0.013-0.098,0.015-0.146,0.004c-0.622-0.139-1.163-0.529-1.564-1.128c-0.09-0.134-0.058-0.316,0.073-0.41c1.112-0.803,3.711-2.877,3.848-4.798c0.128-1.794-0.277-3.759-0.542-4.809c-0.674,1.407-2.142,4.432-2.737,5.374c-0.366,0.579-0.715,1.839-0.984,3.547c-0.025,0.156-0.167,0.267-0.324,0.252c-0.764-0.071-2.247-0.239-3.588-0.561c-1.949-0.468-3.094-5.99-3.248-6.777c-0.003-0.012-0.005-0.02-0.006-0.024c0,0.002,0.002,0.003,0.002,0.005c-0.001-0.005-0.003-0.013-0.004-0.018c-0.029-0.152,0.061-0.301,0.21-0.345c0.148-0.044,0.306,0.033,0.363,0.176c0.005,0.013,0.01,0.028,0.013,0.042c0.003,0.011,0.288,1.15,1.345,1.811c0.45,0.282,0.811,0.395,1.072,0.436c-0.509-0.607-1.413-1.713-2.07-2.673c-1.036-1.514-2.417-5.233-2.491-7.255c-0.067-1.803-2.112-6.216-4.579-6.216c-2.424,0-3.856,1.01-4.139,2.922c-0.177,1.193,0.3,2.075,0.817,2.39c0.365,0.222,0.762,0.191,1.15-0.089c0.257-0.186,0.383-0.382,0.384-0.599c0.004-0.466-0.545-0.977-0.756-1.134c-0.069-0.051-0.113-0.13-0.121-0.217c-0.007-0.086,0.023-0.171,0.084-0.233c1.262-1.303,2.664-1.136,3.556-0.546c1.119,0.741,1.848,2.447,1.076,4.272c-0.122,0.288-0.128,0.552-0.017,0.809c0.297,0.692,1.314,1.082,1.324,1.085c0.078,0.029,0.14,0.089,0.172,0.166c0.564,1.354,0.167,5.13-0.096,7.117l1.348-1.925c0.071-0.102,0.199-0.149,0.319-0.119c0.121,0.031,0.21,0.133,0.224,0.257c0.008,0.07,0.834,7.058,3.418,10.575c0.262,0.356,0.561,0.698,0.889,1.016c0.033,0.032,0.059,0.071,0.074,0.115c0.554,1.556,1.855,4.261,4.339,4.893c2.196,0.558,5.257,0.196,7.36-0.184c-1.121-0.095-2.37-0.3-3.169-0.73c-0.626-0.337-1.165-0.676-1.64-0.974c-0.794-0.499-1.421-0.893-2.055-1.042c-0.686-0.162-1.634-0.928-2.55-1.668c-0.583-0.471-1.184-0.956-1.499-1.084l-0.022-0.009c-0.152-0.062-0.225-0.235-0.164-0.388c0.061-0.153,0.234-0.228,0.388-0.169c0.005,0.002,0.01,0.005,0.015,0.007c-0.002-0.001-0.004-0.003-0.006-0.004l3.238,1.327c0.029,0.011,0.057,0.028,0.08,0.048c1.054,0.878,2.909,1.923,5.763,1.923c3.956,0,6.682-1.901,7.787-2.839c-1.918,0.027-6.885,0.12-8.899,0.371c-1.783,0.223-3.51-0.074-4.381-0.27c-0.054-0.012-0.119-0.054-0.159-0.093c-0.087-0.085-0.115-0.215-0.068-0.328c0.046-0.113,0.156-0.187,0.278-0.187c0.012,0,1.227-0.002,1.775-0.139l-0.014,0.007c0.09-0.021,0.252-0.087,0.543-0.279c0.048-0.032,0.104-0.049,0.161-0.05c1.717-0.023,4.788-0.096,6.059-0.327c2.141-0.389,3.948-1.439,4.957-2.881c0.816-1.166,1.645-3.092,2.072-4.152l-1.341,0.726c-0.973,0.524-1.219,1.672-1.221,1.683c-0.027,0.136-0.145,0.236-0.284,0.241c-0.139,0.004-0.263-0.087-0.3-0.221c-0.012-0.043-0.283-1.072,0.283-2.11C282.679,136.193,283.053,135.93,283.449,135.652z M257.861,103.502c-0.124,0.11-0.313,0.1-0.424-0.023c-1.376-1.538-3.431-2.049-3.451-2.054l0.003-0.002c-0.159-0.039-0.264-0.199-0.225-0.36c0.039-0.161,0.201-0.26,0.362-0.222c0.091,0.022,2.254,0.556,3.758,2.237C257.995,103.202,257.984,103.392,257.861,103.502z M265.588,109.028c-0.047,0.159-0.214,0.249-0.373,0.202c-0.584-0.174-1.15-0.532-1.592-1.008c-0.133-0.143-0.247-0.304-0.357-0.46c-0.213-0.301-0.415-0.586-0.714-0.679l0.001,0.003c-0.159-0.048-0.247-0.22-0.198-0.378c0.049-0.158,0.217-0.247,0.375-0.198c0.493,0.153,0.776,0.553,1.026,0.905c0.103,0.146,0.2,0.284,0.306,0.398c0.366,0.393,0.849,0.7,1.325,0.842C265.545,108.702,265.635,108.869,265.588,109.028z M274.577,117.488c-0.075,0.148-0.256,0.206-0.404,0.131c-0.898-0.459-1.935-1.62-2.517-2.505l-0.002,0.001c-0.09-0.138-0.051-0.326,0.087-0.417c0.138-0.091,0.324-0.053,0.415,0.086c0.558,0.848,1.523,1.91,2.289,2.301C274.594,117.16,274.653,117.341,274.577,117.488z M279.343,123.687c-0.03,0.163-0.185,0.272-0.349,0.242c-0.163-0.029-0.271-0.185-0.242-0.348c0.163-0.905-0.24-1.609-0.708-2.424c-0.109-0.19-0.222-0.387-0.328-0.589l0,0.003c-0.075-0.147-0.021-0.331,0.126-0.408c0.147-0.077,0.328-0.021,0.405,0.126c0.101,0.191,0.211,0.383,0.317,0.569C279.047,121.698,279.545,122.567,279.343,123.687z M280.555,141.039c-1.163,0.68-2.053,1.037-3.419,0.974c-0.1-0.005-0.19-0.058-0.242-0.143c-0.052-0.085-0.059-0.19-0.017-0.281c0.31-0.682,1.433-2,2.072-2.431c0.137-0.092,0.324-0.056,0.416,0.081c0.092,0.137,0.056,0.324-0.081,0.416c-0.429,0.288-1.185,1.132-1.61,1.755c0.948-0.046,1.671-0.36,2.578-0.89l-0.003-0.003c0.144-0.084,0.327-0.036,0.414,0.111C280.746,140.772,280.698,140.956,280.555,141.039z M281.433,135.022c-0.137,0.094-0.324,0.059-0.417-0.077s-0.059-0.323,0.077-0.417c-0.003,0.002-0.004,0.003-0.004,0.003c0.117-0.12,0.079-0.793,0.062-1.08c-0.009-0.15-0.017-0.292-0.017-0.41c0-1.415-0.354-2.107-0.997-3.365l0.002,0.002c-0.075-0.147-0.018-0.33,0.129-0.405c0.148-0.076,0.328-0.017,0.404,0.13c0.663,1.296,1.063,2.078,1.063,3.637c0,0.101,0.008,0.234,0.016,0.375C281.786,134.042,281.827,134.751,281.433,135.022z M271.006,169.032h-2.057v-1.2h1.8v-1.714h1.243v-1.843h-1.286v-1.885h-10.413v5.228h1.457v2.057h2.486v2.743h-1.115v-2.1h-2.185v-1.843h-1.328v-1.243h-1.672v-6.557h2.314v-1.286h2.057v-1.757c0,0,1.714-0.171,2.014-1.029s-0.686-1.286-0.686-1.286s0.3-0.214,1.072-1.157c0.771-0.943,1.243-2.186,0.771-4.371c-0.471-2.186-2.657-4.028-3.728-3.771c-1.071,0.257-1.071,1.671-0.171,1.843c0.9,0.172,0.814-0.3,0.814-0.3s0.6,0.343,0.643,1.714c0.043,1.371-2.271,2.571-3.256,3c-0.986,0.429-0.9,2.057-0.9,2.057h-0.986v-1.714h-2.743v-1.757h1.714c0.815,0,1.372-0.514,1.415-0.943c0.043-0.429-0.557-0.814-0.557-0.814s2.229-3,2.229-5.914s-1.072-3.943-2.314-3.986c-1.243-0.043-0.943,1.586-0.471,1.586c0.471,0,0.686-0.472,0.686-0.472s0.343,0.343,0.385,0.986c0.044,0.643-0.771,1.414-1.928,2.486c-1.157,1.071-1.2,3.128-1.2,3.128h-1.371v-1.414h-1.543v-2.057h1.2c0,0,1.414-0.6,1.414-1.114c0-0.514-0.343-1.114-0.343-1.114c0.172-1.2,0.9-1.071,1.757-3.3c0.857-2.229-0.729-5.1-1.885-5.443c-1.157-0.343-1.843,1.714-1.114,1.886c0.728,0.171,0.943-0.429,0.943-0.429s0.472,0.214,0.514,1.2c0.043,0.986-0.857,1.286-1.843,2.014c-0.986,0.728-0.858,1.929-0.858,1.929h-1.671v-2.057h-1.414v-1.757h1.543v-1.457c0,0,1.114-0.6,1.929-1.843c1.317-2.01-0.001-4.929-0.944-5.357c-0.943-0.428-1.414,0.686-1.071,1.2c0.343,0.514,0.728,0,0.728,0s0.214,0.386,0.129,1.285c-0.086,0.9-1.372,1.414-2.014,1.629c-0.643,0.215-0.385,1.928-0.385,1.928h-1.543v-1.543h-2.4v-1.286h1.157v-0.771h1.456v-1.2c0,0-0.214-0.043,0.857-0.6c1.072-0.557,1.029-1.8,1.029-2.957c0-1.157-1.2-2.614-1.457-2.314c-0.257,0.3,0.215,0.686,0.171,1.671c-0.043,0.986-0.685,1.286-1.114,1.286c-0.429,0-0.514,1.157-0.514,1.157h-1.715v-0.857h1.072v-1.071c0,0,1.243-1.114,1.243-2.186c0-1.072-0.129-2.614-0.6-2.614c-0.472,0-0.557,0.257-0.472,1.286c0.086,1.028-1.071,1.714-1.628,1.629c-0.557-0.085-1.543,0.086-1.543,0.086s0.085-0.429,0.514-0.514c0.428-0.086,1.071-1.071,0.986-1.628c-0.086-0.557-1.329-0.514-1.329-0.514s0-0.814,0.043-1.457c0.043-0.643-1.543-1.457-1.543-1.457v57h-33.243v-57.006c0,0-1.585,0.814-1.543,1.457c0.044,0.643,0.044,1.457,0.044,1.457s-1.243-0.043-1.329,0.514c-0.086,0.557,0.557,1.543,0.985,1.628c0.429,0.086,0.515,0.514,0.515,0.514s-0.986-0.171-1.543-0.086c-0.557,0.085-1.715-0.6-1.628-1.629c0.085-1.028,0-1.285-0.472-1.285c-0.471,0-0.6,1.543-0.6,2.614s1.243,2.186,1.243,2.186v1.071h1.072v0.857h-1.715c0,0-0.085-1.157-0.514-1.157c-0.428,0-1.071-0.3-1.114-1.286c-0.044-0.986,0.428-1.371,0.171-1.671c-0.257-0.3-1.457,1.157-1.457,2.314c0,1.157-0.043,2.4,1.029,2.957c1.071,0.557,0.857,0.6,0.857,0.6v1.2h1.456v0.771h1.157v1.286h-2.4v1.543h-1.543c0,0,0.257-1.714-0.385-1.928c-0.643-0.214-1.929-0.729-2.015-1.629c-0.085-0.9,0.129-1.285,0.129-1.285s0.386,0.514,0.728,0c0.343-0.514-0.128-1.628-1.071-1.2c-0.943,0.428-2.26,3.347-0.943,5.357c0.814,1.243,1.929,1.843,1.929,1.843v1.457h1.543v1.757h-1.415v2.057h-1.671c0,0,0.128-1.2-0.858-1.929c-0.985-0.729-1.885-1.028-1.843-2.014c0.043-0.986,0.515-1.2,0.515-1.2s0.214,0.6,0.943,0.429c0.729-0.171,0.043-2.229-1.115-1.886c-1.156,0.343-2.742,3.214-1.885,5.443c0.857,2.229,1.585,2.1,1.757,3.3c0,0-0.343,0.6-0.343,1.114s0.814,1.114,1.414,1.114s1.2,0,1.2,0v2.057h-1.543v1.414h-1.371c0,0-0.043-2.057-1.2-3.128c-1.157-1.071-1.972-1.843-1.928-2.486c0.043-0.643,0.386-0.986,0.386-0.986s0.214,0.472,0.685,0.472c0.472,0,0.772-1.628-0.471-1.586c-1.243,0.043-2.314,1.071-2.314,3.985s2.229,5.914,2.229,5.914s-0.6,0.386-0.557,0.814c0.043,0.429,0.6,0.943,1.414,0.943h1.714v1.757h-2.743v1.714h-0.985c0,0,0.085-1.628-0.9-2.057c-0.986-0.428-3.299-1.629-3.257-3s0.643-1.714,0.643-1.714s-0.086,0.471,0.814,0.3c0.9-0.171,0.9-1.586-0.171-1.843c-1.072-0.257-3.257,1.585-3.728,3.771c-0.472,2.186,0,3.429,0.771,4.371c0.772,0.943,1.072,1.157,1.072,1.157s-0.985,0.429-0.685,1.286c0.3,0.857,2.014,1.029,2.014,1.029v1.757h2.057v1.286h2.314v6.556h-1.672v1.243h-1.328v1.843h-2.186v2.1h-1.115v-2.743h2.486v-2.057h1.457v-5.228h-10.414v1.885h-1.286v1.843h1.243v1.715h1.8v1.2h-2.057v4.114h-10.971c0,0,0.656,2.291,1.75,5.529h1.066v2.035h1.966c0,0,0.154,4.896,1.417,9.342c1.34,2.887,2.806,5.536,4.302,7.35c5.443,6.6,13.071,8.271,16.542,8.271c3.482,0,6.182-1.299,6.182-1.299s4.502,0.258,7.834-1.172c1.006-0.878,2.39-2.197,2.568-2.956c0.284-1.209,0.143-2.134,0.143-2.134l1.625-0.188c-0.219-0.394-0.519-0.858-0.917-1.326l-1.278,0.305c0,0-0.257-0.617-1.352-1.423c-1.351-0.996-3.485-1.067-3.485-1.067s-0.356-1.067,0.071-1.067c0.083,0,0.252-0.013,0.479-0.029c1.542-0.984,6.909-3.922,16.06-3.922h4.29c9.182,0,14.556,2.958,16.076,3.932c0.147,0.01,0.262,0.019,0.325,0.019c0.427,0,0.071,1.067,0.071,1.067s-2.134,0.071-3.485,1.067c-1.094,0.806-1.352,1.423-1.352,1.423l-1.097-0.261c-0.397,0.461-0.703,0.916-0.93,1.302l1.458,0.168c0,0-0.142,0.925,0.142,2.134c0.17,0.723,1.433,1.955,2.422,2.828c3.353,1.572,8.117,1.3,8.117,1.3s2.7,1.299,6.182,1.299c3.471,0,11.099-1.671,16.542-8.271c1.499-1.819,2.969-4.477,4.313-7.373c1.256-4.439,1.41-9.318,1.41-9.318h1.966v-2.035h1.062c1.094-3.239,1.75-5.529,1.75-5.529h-10.965V169.032z M202.725,196.985c0.72,0.273,1.878,0.743,2.725,1.243c-0.094,0.029-0.187,0.058-0.282,0.088l0.001-0.003c-0.594,0.189-1.179,0.456-1.737,0.768l-1.827-0.432C201.925,198.074,202.299,197.499,202.725,196.985z M191.344,181.453L191.344,181.453C191.344,181.452,191.344,181.453,191.344,181.453l7.125,7.536c0,0-3.7,0.617-5.96-1.576C190.387,185.355,191.339,181.475,191.344,181.453L191.344,181.453z M192.967,189.607l-1.649,5.136c-0.939-0.357-1.864-0.822-2.721-1.427l0,0l-0.001-0.001c0,0,0.001,0.001,0.001,0.001l3.258-4.437C192.217,189.166,192.591,189.407,192.967,189.607z M190.165,186.541L190.165,186.541c0.211,0.572,0.481,1.103,0.832,1.529l-3.924,3.918c-0.467-0.498-0.874-1.032-1.228-1.585L190.165,186.541z M189.815,185.304l-4.959,3.228c-0.343-0.793-0.602-1.584-0.796-2.326l5.544-2.206l-0.001,0.002C189.65,184.419,189.719,184.863,189.815,185.304z M189.496,181.591l0.002,0c0,0-0.021,0.492,0.012,1.224l-5.863,1.349c-0.178-1.214-0.179-2.025-0.179-2.025L189.496,181.591z M194.804,204.935c-0.691-0.015-6.268-0.307-13.073-5.607c-7.65-5.958-8.186-17.806-8.205-18.307c-0.002-0.054,0.007-0.105,0.023-0.153h0.854c0.012,0.038,0.021,0.077,0.023,0.119c0,0.005,0.001,0.034,0.004,0.082c0.59,0.222,1.97,0.877,2.038,2.157c0.052,0.992-0.601,1.908-1.068,2.432c0.613,0.364,1.56,1.04,1.919,1.913c0.386,0.936-0.102,1.996-0.496,2.63c0.8,0.261,2.068,0.836,2.353,1.919c0.228,0.868,0.058,1.743-0.121,2.317c0.836,0.047,2.201,0.298,2.803,1.392c0.496,0.902,0.611,1.872,0.624,2.506c0.777-0.222,2.087-0.442,3.043,0.195c1.046,0.697,1.749,2.253,2.022,2.948c0.883-0.098,3.057-0.283,4.034,0.145c1.031,0.451,2.079,1.86,2.412,2.336l-0.002,0.003c0.411,0.054,0.69,0.069,0.813,0.072V204.935z M195.38,195.711c-0.673-0.081-1.386-0.201-2.113-0.374l-0.002-0.002l0.837-5.238c0.6,0.205,1.186,0.327,1.726,0.394L195.38,195.711z M197.378,195.858l-0.356-5.295c0.913-0.003,1.515-0.134,1.515-0.134l-0.001,0.001l1.371,5.343C199.908,195.773,198.892,195.899,197.378,195.858z M200.435,201.238c0.186-0.515,0.465-1.214,0.835-1.956v-0.001l1.146,0.423C201.656,200.213,200.978,200.762,200.435,201.238z M200.999,202.279c0,0-0.001,0.001-0.002,0.001l0-0.001C200.998,202.279,200.998,202.279,200.999,202.279c0.579-0.369,1.493-0.942,2.584-1.58l0.215,1.985C202.73,202.608,201.692,202.423,200.999,202.279z M206.857,202.423c-0.111,0.036-0.223,0.071-0.336,0.101c-0.579,0.156-1.268,0.206-1.976,0.194v-1.072c0-0.308-0.081-0.894-0.162-1.408c0.268-0.152,0.541-0.305,0.821-0.458l-0.001,0.002c0.408-0.222,0.846-0.414,1.305-0.585C206.957,200.105,206.913,201.652,206.857,202.423z M210.472,198.901l-0.002,0.001c0.201,1.029-0.915,2.274-2.505,3.069c0.006-0.036,0.013-0.068,0.019-0.106c0.081-0.513,0.001-1.899-0.485-2.989c1.018-0.289,2.036-0.468,2.852-0.577C210.386,198.471,210.426,198.669,210.472,198.901z M209.998,197.092v0.003c-0.834,0.126-1.95,0.381-3.234,0.741c-0.743-0.631-2.37-1.197-3.418-1.516c0.607-0.567,1.299-0.983,2.076-1.114C208.314,194.718,209.635,196.484,209.998,197.092z M260.228,181.591l6.029,0.548c0,0-0.001,0.811-0.179,2.025l-5.864-1.349l-0.001,0C260.246,182.083,260.225,181.591,260.228,181.591z M259.907,185.303c0.096-0.441,0.165-0.885,0.21-1.305l5.544,2.206c-0.194,0.742-0.454,1.532-0.797,2.326l-4.959-3.228L259.907,185.303z M258.724,188.072c0.354-0.426,0.624-0.957,0.831-1.53l4.32,3.863c-0.354,0.553-0.761,1.087-1.228,1.585L258.724,188.072L258.724,188.072z M261.125,193.317c-0.857,0.606-1.783,1.071-2.722,1.428l-1.649-5.136c0.376-0.2,0.75-0.441,1.112-0.728l0.001-0.001L261.125,193.317z M258.378,181.453C258.378,181.453,258.378,181.452,258.378,181.453L258.378,181.453L258.378,181.453c0.005,0.021,0.957,3.902-1.164,5.96c-2.261,2.192-5.96,1.576-5.96,1.576L258.378,181.453z M248.119,198.649l-1.827,0.432l-0.002,0.003c-0.558-0.309-1.143-0.576-1.734-0.768c-0.095-0.03-0.188-0.059-0.282-0.088c0.848-0.5,2.005-0.97,2.725-1.243C247.424,197.499,247.798,198.074,248.119,198.649z M244.3,195.206c0.777,0.131,1.469,0.548,2.076,1.114c-1.048,0.32-2.675,0.886-3.418,1.516v-0.003c-1.284-0.363-2.4-0.618-3.234-0.741C240.087,196.485,241.408,194.718,244.3,195.206z M241.737,201.867c0.006,0.037,0.012,0.069,0.018,0.104c0,0,0.001,0,0.001,0.001l-0.001,0.001c0,0,0-0.001,0-0.001c-1.589-0.798-2.705-2.043-2.507-3.068c0.045-0.232,0.085-0.43,0.121-0.602c0.815,0.11,1.834,0.289,2.852,0.577C241.735,199.968,241.656,201.355,241.737,201.867z M245.176,201.647v1.072c-0.708,0.013-1.397-0.038-1.976-0.194c-0.113-0.031-0.225-0.066-0.336-0.101c-0.056-0.771-0.1-2.318,0.349-3.226l-0.001-0.002c0.459,0.168,0.9,0.36,1.305,0.585c0.28,0.153,0.553,0.307,0.821,0.458C245.257,200.753,245.176,201.339,245.176,201.647z M245.923,202.683l0.215-1.985l0-0.001c1.092,0.639,2.007,1.212,2.586,1.581C248.031,202.422,246.992,202.607,245.923,202.683z M247.306,199.703L247.306,199.703L247.306,199.703C247.306,199.702,247.306,199.702,247.306,199.703l1.145-0.423c0.37,0.742,0.649,1.441,0.835,1.956C248.745,200.76,248.067,200.212,247.306,199.703z M252.343,195.858c-1.514,0.041-2.53-0.086-2.53-0.086l-0.001-0.001l1.371-5.343c0,0,0.602,0.131,1.515,0.134L252.343,195.858z M253.896,190.49c0.54-0.067,1.126-0.189,1.726-0.394l0.001,0.002l0.834,5.238c-0.727,0.173-1.44,0.293-2.113,0.374L253.896,190.49z M272.9,190.2c-0.394-0.634-0.881-1.693-0.496-2.63c0.359-0.872,1.306-1.548,1.919-1.913c-0.467-0.523-1.121-1.439-1.068-2.432c0.068-1.28,1.447-1.935,2.038-2.157c0.003-0.048,0.004-0.077,0.004-0.082c0.001-0.041,0.01-0.081,0.022-0.119h0.854c0.016,0.048,0.025,0.099,0.022,0.153c-0.019,0.501-0.555,12.349-8.205,18.307c-6.804,5.299-12.381,5.591-13.073,5.607v-0.901l-0.005-0.006c0.12-0.006,0.399-0.021,0.816-0.069c0.333-0.476,1.381-1.885,2.412-2.336c0.977-0.428,3.151-0.243,4.034-0.145c0.274-0.695,0.977-2.251,2.022-2.948c0.956-0.637,2.266-0.417,3.043-0.195c0.013-0.634,0.128-1.604,0.624-2.506c0.602-1.095,1.967-1.346,2.803-1.392c-0.178-0.574-0.349-1.45-0.121-2.317C270.833,191.036,272.1,190.461,272.9,190.2z M274.793,184.82c-0.339-0.435-0.669-1.01-0.641-1.548c0.029-0.554,0.592-0.949,1.052-1.181C275.132,182.763,275.009,183.708,274.793,184.82z M271.417,192.349L271.417,192.349c0.141-0.54,0.85-0.941,1.475-1.185c-0.404,0.942-0.875,1.886-1.424,2.799C271.351,193.513,271.267,192.916,271.417,192.349z M273.235,187.912L273.235,187.912c0.192-0.467,0.681-0.901,1.148-1.226c-0.224,0.894-0.501,1.845-0.845,2.819C273.268,189.01,273.043,188.38,273.235,187.912z" />
    <path fill="#ED1A3A" d="M249.001,174.712h-5.08c-0.675,0-1.224,0.54-1.224,1.203v0.516h-3.272v-0.514v-0.002c0-0.664-0.549-1.203-1.224-1.203h-5.08c-0.675,0-1.224,0.54-1.224,1.203v0.516h-3.272v-0.514v-0.002c0-0.664-0.549-1.203-1.224-1.203h-5.08c-0.675,0-1.224,0.54-1.224,1.203v0.516h-3.272v-0.514v-0.002c0-0.664-0.549-1.203-1.224-1.203h-5.08c-0.675,0-1.224,0.54-1.224,1.203v0.516h-3.272v-0.514v-0.002c0-0.664-0.549-1.203-1.224-1.203h-5.08c-0.675,0-1.224,0.54-1.224,1.203v2.233c0,0.664,0.549,1.204,1.224,1.204h5.08c0.675,0,1.224-0.54,1.224-1.204v-0.517h3.272v0.517c0,0.664,0.549,1.204,1.224,1.204h5.08c0.675,0,1.224-0.54,1.224-1.204v-0.517h3.272v0.517c0,0.664,0.549,1.204,1.224,1.204h5.08c0.675,0,1.224-0.54,1.224-1.204v-0.517h3.272v0.517c0,0.664,0.549,1.204,1.224,1.204h5.08c0.675,0,1.224-0.54,1.224-1.204v-0.517h3.272v0.517c0,0.664,0.549,1.204,1.224,1.204h5.08c0.675,0,1.224-0.54,1.224-1.204v-2.231v-0.002C250.225,175.251,249.676,174.712,249.001,174.712z M205.825,176.431h-0.237c-0.331,0-0.6,0.269-0.6,0.6c0,0.331,0.267,0.6,0.6,0.6h0.237v0.514c-0.002,0.002-0.007,0.008-0.024,0.008h-5.08c-0.016,0-0.022-0.006-0.024-0.008v-2.224c0.002-0.002,0.008-0.008,0.024-0.008h5.08c0.016,0,0.022,0.006,0.024,0.008V176.431z M216.625,176.431h-0.237c-0.331,0-0.6,0.269-0.6,0.6c0,0.331,0.267,0.6,0.6,0.6h0.237v0.514c-0.002,0.002-0.007,0.008-0.024,0.008h-5.08c-0.016,0-0.022-0.006-0.024-0.008v-0.514h0.087c0.331,0,0.6-0.269,0.6-0.6c0-0.331-0.269-0.6-0.6-0.6h-0.087v-0.509c0.002-0.002,0.008-0.008,0.024-0.008h5.08c0.016,0,0.022,0.006,0.024,0.008V176.431z M227.424,176.431h-0.237c-0.331,0-0.6,0.269-0.6,0.6c0,0.331,0.267,0.6,0.6,0.6h0.237v0.514c-0.002,0.002-0.007,0.008-0.024,0.008h-5.08c-0.016,0-0.022-0.006-0.024-0.008v-0.514h0.087c0.331,0,0.6-0.269,0.6-0.6c0-0.331-0.269-0.6-0.6-0.6h-0.087v-0.509c0.002-0.002,0.008-0.008,0.024-0.008h5.08c0.016,0,0.022,0.006,0.024,0.008V176.431z M238.225,176.431h-0.237c-0.331,0-0.6,0.269-0.6,0.6c0,0.331,0.267,0.6,0.6,0.6h0.237v0.514c-0.002,0.002-0.007,0.008-0.024,0.008h-5.08c-0.016,0-0.022-0.006-0.024-0.008v-0.514h0.087c0.331,0,0.6-0.269,0.6-0.6c0-0.331-0.269-0.6-0.6-0.6h-0.087v-0.509c0.002-0.002,0.008-0.008,0.024-0.008h5.08c0.016,0,0.022,0.006,0.024,0.008V176.431z M249.024,178.145c-0.002,0.002-0.007,0.008-0.024,0.008h-5.08c-0.016,0-0.022-0.006-0.024-0.008v-0.514h0.087c0.331,0,0.6-0.269,0.6-0.6c0-0.331-0.269-0.6-0.6-0.6h-0.087v-0.509c0.002-0.002,0.008-0.008,0.024-0.008h5.08c0.016,0,0.022,0.006,0.024,0.008V178.145z M188.569,174.712h-5.08c-0.675,0-1.224,0.54-1.224,1.203v0.516h-3.421v-0.514v-0.002c0-0.664-0.549-1.203-1.224-1.203h-5.08c-0.675,0-1.224,0.54-1.224,1.203v0.516h-2.586l0.395,1.2h2.191v0.517c0,0.664,0.549,1.204,1.224,1.204h5.08c0.675,0,1.224-0.54,1.224-1.204v-0.517h3.421v0.517c0,0.664,0.549,1.204,1.224,1.204h5.08c0.675,0,1.224-0.54,1.224-1.204v-2.231v-0.002C189.793,175.251,189.244,174.712,188.569,174.712z M177.643,176.431h-0.088c-0.331,0-0.6,0.269-0.6,0.6c0,0.331,0.269,0.6,0.6,0.6h0.088v0.514c-0.002,0.002-0.007,0.008-0.024,0.008h-5.08c-0.016,0-0.022-0.006-0.024-0.008v-0.514h0.085c0.331,0,0.6-0.269,0.6-0.6c0-0.331-0.269-0.6-0.6-0.6h-0.085v-0.509c0.002-0.002,0.008-0.008,0.024-0.008h5.08c0.016,0,0.022,0.006,0.024,0.008V176.431z M188.593,178.145c-0.002,0.002-0.007,0.008-0.024,0.008h-5.08c-0.016,0-0.022-0.006-0.024-0.008v-0.514h0.086c0.331,0,0.6-0.269,0.6-0.6c0-0.331-0.269-0.6-0.6-0.6h-0.086v-0.509c0.002-0.002,0.008-0.008,0.024-0.008h5.08c0.016,0,0.022,0.006,0.024,0.008V178.145z M278.407,176.431v-0.514c0-0.664-0.549-1.203-1.224-1.203h-5.08c-0.675,0-1.224,0.54-1.224,1.203v0.514h-3.422v-0.514c0-0.664-0.549-1.203-1.224-1.203h-5.08c-0.675,0-1.224,0.54-1.224,1.203v2.231v0.002c0,0.664,0.549,1.204,1.224,1.204h5.08c0.675,0,1.224-0.54,1.224-1.204v-0.519h3.422v0.517v0.002c0,0.664,0.549,1.204,1.224,1.204h5.08c0.675,0,1.224-0.54,1.224-1.204v-0.519h2.191l0.395-1.2H278.407z M266.257,176.431h-0.084c-0.331,0-0.6,0.269-0.6,0.6c0,0.331,0.269,0.6,0.6,0.6h0.084v0.512c-0.002,0.002-0.008,0.008-0.024,0.008h-5.08c-0.016,0-0.022-0.006-0.024-0.008v-2.223c0.002-0.002,0.008-0.008,0.024-0.008h5.08c0.016,0,0.022,0.006,0.024,0.008V176.431z M277.207,176.431h-0.082c-0.333,0-0.603,0.269-0.603,0.6c0,0.331,0.269,0.6,0.6,0.6h0.085v0.512c-0.002,0.002-0.008,0.008-0.024,0.008h-5.08c-0.016,0-0.022-0.006-0.024-0.008v-0.512h0.09c0.33,0,0.6-0.269,0.6-0.6c0-0.331-0.269-0.6-0.6-0.6h-0.09v-0.511c0.002-0.002,0.008-0.008,0.024-0.008h5.08c0.016,0,0.022,0.006,0.024,0.008V176.431z M226.637,201.137c0.257,0.823-1.698,3.755-1.698,3.755h-0.154h-0.001c0,0-1.955-2.932-1.698-3.755c0.257-0.824,1.441-0.308,1.441-0.308l0.309,1.492l0.36-1.492C225.196,200.828,226.38,200.313,226.637,201.137z M223.344,199.132c-0.774,0.102-2.006-0.308-3.138-1.44c-1.132-1.132-1.801-4.064-1.389-4.887c0.412-0.823-0.515-2.315-0.515-2.315s1.08,0.514,1.801,1.183c0.72,0.669,1.749,3.395,1.852,4.835C222.058,197.949,223.344,199.132,223.344,199.132z M214.907,193.37c2.16,0.514,1.955,2.315,3.138,3.858c1.183,1.543,1.903,1.594,1.903,1.594l0.002-0.001c0,0-1.597,0.412-2.523,0.258c-0.926-0.155-2.366-1.544-2.829-3.293c-0.463-1.749-3.55-2.572-3.55-2.572S212.747,192.856,214.907,193.37z M221.236,200.521c0,0-2.984,2.161-4.27,2.469c-1.286,0.308-2.315-0.155-3.704,0.308c-1.389,0.463-2.109,0.566-2.109,0.566s2.932-3.537,4.27-4.154C216.76,199.093,220.72,200.16,221.236,200.521L221.236,200.521z M221.902,200.778C221.902,200.778,221.902,200.779,221.902,200.778L221.902,200.778L221.902,200.778z M222.93,202.734c0,0-1.183,0.257-1.594,0.463c-0.412,0.206-0.875,0.823-0.875,0.823s-0.103-0.926-0.36-1.183c-0.257-0.257-0.515-0.463-0.515-0.463s2.159-1.288,2.315-1.595l0.771,0.052c0,0-0.257,0.978-0.103,1.389C222.724,202.631,222.93,202.734,222.93,202.734z M215.625,192.855c-0.003-0.003,0.615-0.93,0.357-1.65l0.003,0.004c0,0,1.234,1.441,1.594,1.749c0.36,0.308,0.617,0.514,0.617,0.514s0,1.234,0.412,2.315s1.646,2.418,1.646,2.418s-1.749-0.566-2.83-2.984l-0.669-1.492L215.625,192.855z M212.437,195.325c-0.463-0.36-1.491-1.08-1.491-1.08l-0.001,0c0,0,2.881,0.566,3.19,1.389c0.308,0.823,0.771,2.418,1.543,2.932s0.772,0.515,0.772,0.515s-1.646-0.412-2.161-1.081C213.775,197.331,212.9,195.685,212.437,195.325z M221.647,193.009c0,0,0.412-0.977,0.412-1.389s-0.155-0.874-0.155-0.874s1.286,1.183,1.337,1.697c0.052,0.515,0.052,0.72,0.052,0.72l-0.926,1.955c0.003-0.003-0.357-1.596-0.717-2.112L221.647,193.009z M224.94,191.261c0,0,1.955,3.087,2.109,5.247c0.154,2.16-2.006,2.984-2.006,2.984h-0.001h-0.359c0,0-2.161-0.824-2.006-2.984c0.154-2.16,2.109-5.247,2.109-5.247H224.94z M229.516,197.692c-1.132,1.132-2.361,1.542-3.135,1.44h-0.003c0,0,1.286-1.183,1.389-2.623c0.103-1.44,1.132-4.167,1.852-4.835c0.72-0.669,1.801-1.183,1.801-1.183s-0.926,1.492-0.514,2.315C231.316,193.628,230.647,196.56,229.516,197.692z M231.677,197.228c1.183-1.543,0.978-3.344,3.138-3.858s3.858-0.154,3.858-0.154s-3.087,0.823-3.55,2.572c-0.463,1.749-1.903,3.138-2.829,3.293c-0.922,0.154-2.503-0.254-2.519-0.258C229.797,198.821,230.511,198.749,231.677,197.228z M229.774,198.822c0,0,0.001,0,0.001,0C229.775,198.823,229.774,198.823,229.774,198.822L229.774,198.822z M238.572,203.865c0,0-0.72-0.103-2.109-0.566c-1.389-0.463-2.418,0-3.704-0.308c-1.286-0.308-4.27-2.469-4.27-2.469l-0.001-0.001c0.513-0.36,4.476-1.427,5.814-0.81C235.64,200.328,238.572,203.865,238.572,203.865z M227.821,200.779l-0.003,0c0,0-0.001-0.001-0.001-0.001L227.821,200.779z M230.136,202.374c0,0-0.257,0.206-0.514,0.463c-0.257,0.257-0.36,1.183-0.36,1.183s-0.463-0.617-0.874-0.823c-0.412-0.206-1.595-0.463-1.595-0.463s0.206-0.103,0.36-0.514c0.154-0.411-0.103-1.389-0.103-1.389l0.768-0.051C227.974,201.087,230.136,202.374,230.136,202.374z M233.737,191.209c0,0-0.001,0.001-0.001,0.001c0.001-0.002,0.001-0.003,0.001-0.005L233.737,191.209z M233.735,191.21c-0.254,0.719,0.361,1.642,0.361,1.645l-1.132,0.875l-0.669,1.492c-1.08,2.418-2.83,2.984-2.83,2.984s1.234-1.338,1.646-2.418s0.412-2.315,0.412-2.315s0.257-0.206,0.617-0.514C232.5,192.651,233.724,191.224,233.735,191.21z M238.777,194.245L238.777,194.245c-0.001,0-1.029,0.72-1.492,1.08c-0.463,0.36-1.337,2.006-1.852,2.675c-0.514,0.669-2.161,1.081-2.161,1.081s0,0,0.772-0.515s1.235-2.109,1.543-2.932C235.895,194.811,238.777,194.245,238.777,194.245z M227.818,190.745c0,0-0.154,0.463-0.154,0.874c0,0.407,0.403,1.368,0.411,1.387c-0.36,0.517-0.719,2.108-0.719,2.111l-0.926-1.955c0,0,0-0.206,0.052-0.72C226.533,191.928,227.818,190.745,227.818,190.745z M228.076,193.009c0,0-0.001-0.002-0.001-0.002c0,0,0.001-0.001,0.001-0.001V193.009z" />
    <path fill="#0DB14B" d="M166.446,125.5c-0.986-1.028-1.784-2.277-1.835-3.399c-0.043-0.946,0.263-1.561,0.627-1.956c0.211,0.312,0.48,0.557,0.742,0.666c0.616,0.254,1.156,0.089,1.466-0.063c0.295,0.393,0.959,1.108,1.904,1.108c0.978,0,1.578-0.609,1.815-0.911l1.214,0.147c0.21,0.34,0.81,1.271,1.336,1.716c0.599,0.507,1.611,0.329,1.996,0.236c0.321,0.221,1.236,0.825,1.893,0.989c0.029,0.007,0.057,0.007,0.085,0.012c-0.381,0.992-1.046,2.383-1.87,2.7c-0.017,0.006-0.038,0.013-0.056,0.02c-0.474-0.41-1.049-0.771-1.664-0.982c-1.122-0.385-1.962,0.006-2.437,0.436c-1.005-2.006-2.332-2.152-3.267-2.073v-0.005c-0.399,0.033-0.709,0.188-0.923,0.459c-0.211,0.267-0.273,0.59-0.288,0.832c-0.162,0.004-0.38,0.018-0.667,0.06C166.493,125.495,166.469,125.497,166.446,125.5z M167.062,135.65c0.193-0.402,0.546-0.672,1.05-0.802v0.003c1.384-0.355,3.03-0.51,3.557-0.555c0.203-0.366,0.795-1.198,2.061-1.362c0.279-0.036,0.55-0.046,0.808-0.031c0.26-0.72,0.472-1.5,0.472-2.017c0-0.226-0.005-0.441-0.013-0.641c-0.464,0.12-1.174,0.227-1.659-0.058c-0.403-0.237-0.671-0.43-0.841-0.569c-0.321,0.348-0.965,0.889-1.707,0.642c-0.653-0.217-1.546-1.013-2.027-1.474c-0.35,0.783-1.244,2.342-2.84,2.42c-1.035,0.051-1.814,0.032-2.377-0.06c-0.205,0.851-0.321,2.078,0.256,3.174c0.553,1.05,1.953,1.646,3.107,1.971C166.921,136.073,166.964,135.854,167.062,135.65z M187.558,111.382c-0.589-0.147-1.252-1.994-1.154-2.609c-0.027-0.196-0.692-0.754-1.416-1.195c-1,0.008-2.812-0.404-3.095-2.064c-0.053-0.308-0.062-0.599-0.045-0.875c-0.64-0.198-1.081-0.309-1.081-0.309c-2.028,1.398-2.554,3.475-2.619,4.955c0.497-0.112,0.892-0.056,1.175,0.177c0.354,0.292,0.428,0.766,0.424,1.134c0.339-0.008,0.892,0.082,1.839,0.398c1.643,0.548,1.925,2.063,1.832,3.026c0.387,0.032,1.042,0.128,1.685,0.393c1.566-0.764,3.337-2.307,3.337-2.307s-0.049-0.235-0.141-0.606C188.018,111.465,187.727,111.424,187.558,111.382z M205.979,98.866c-0.347,0.006-0.863-0.051-1.383-0.356c-0.6-0.353-0.695-1.098-0.677-1.631c-0.373,0.119-0.92,0.155-1.623-0.169c-0.508-0.234-0.686-0.579-0.747-0.828c-0.074-0.303-0.013-0.603,0.081-0.852c-0.478,0.064-1.135,0.099-1.634-0.077c-0.119-0.042-0.221-0.108-0.309-0.191c-0.616,0.963-1.058,2.759-1.201,3.989c0.579,0.129,1.119,0.459,1.457,1.135c0.201,0.401,0.343,0.774,0.444,1.114c0.839-0.088,2.188-0.204,3.5-0.204c0.984,0,1.791-0.261,2.377-0.541C205.966,99.829,205.947,99.251,205.979,98.866z M197.616,105.632c-0.546-0.785-0.634-1.609-0.633-2.074c-0.608,0.029-1.82-0.033-2.516-0.884c-0.641-0.783-0.782-1.523-0.809-1.905c-0.461-0.121-1.419-0.446-1.839-1.122c-0.818,0.525-1.826,1.366-2.369,2.561c-0.345,0.758-0.582,1.443-0.747,2.02c0.141,0.071,0.284,0.145,0.429,0.231c1.539,0.908,1.33,2.169,1.127,2.748c0.241,0.102,0.652,0.283,1.311,0.587c0.441,0.204,0.883,0.559,1.093,1.169c0.351,0.004,0.725-0.021,1.128-0.09c2.497-0.426,4.071-1.549,4.93-2.374C198.26,106.299,197.872,105.999,197.616,105.632z M172.493,143.59c-0.117-0.3-0.178-0.635-0.103-0.971c0.127-0.575,0.605-1.012,1.419-1.298c0.796-0.28,1.722-0.591,2.331-0.749c-0.085-0.146-0.155-0.325-0.167-0.532c-0.02-0.351,0.131-0.683,0.442-0.991c0.181-0.259,0.46-0.567,0.803-0.825c-0.198-0.996-0.609-2.022-0.894-2.66c-0.502,1.137-1.412,2.155-1.857,2.155c0,0-1.675,0-1.696-0.001l-1.005-0.072c-0.076,0.871-0.339,2.932-1.143,3.424c-0.603,0.368-1.314,0.378-1.757,0.335c0.03,0.392,0.005,0.96-0.323,1.329c-0.08,0.09-0.196,0.187-0.357,0.254C169.042,143.493,170.879,143.629,172.493,143.59z M181.931,117.759c-0.357,0.076-1.11,0.149-2.089-0.25c-1.174-0.478-1.168-2.316-1.105-3.124c-0.305,0.013-0.777,0.029-1.293,0.029c-0.94,0-2.503-0.161-3.288-1.141c-0.372,0.683-0.799,1.562-1.076,2.432c0.208,0.083,0.419,0.196,0.633,0.352c1.487,1.085,1.6,2.602,1.581,3.197l1.356,0.465c0.295-0.008,1.608-0.003,2.314,0.685c0.014,0.014,0.023,0.03,0.037,0.044c1.307-0.499,2.668-1.445,3.545-2.119C182.295,118.156,182.086,117.95,181.931,117.759z" />
    <path fill="#FFFFFF" d="M208.957,99.104c-0.219,0.508-0.734,1.058-1.522,1.081c-0.304,0.009-0.519-0.069-0.658-0.239c-0.301-0.367-0.216-1.097-0.158-1.347l0.11-0.471l-0.47,0.111c-0.005,0.001-0.69,0.149-1.361-0.245c-0.491-0.289-0.401-1.241-0.325-1.583l0.224-1.006c0,0-0.729,0.728-0.729,0.728c-0.019,0.017-0.535,0.489-1.523,0.033c-0.236-0.109-0.371-0.247-0.415-0.423c-0.085-0.343,0.183-0.791,0.294-0.935l0.525-0.683c0.001-0.001-0.835,0.208-0.835,0.208c-0.338,0.084-1.343,0.258-1.92,0.055c-0.18-0.064-0.22-0.266-0.221-0.425c-0.005-0.485,0.34-1.118,0.924-1.337c0.885-0.332,1.927,0.961,1.937,0.974l0.132,0.169l0.202-0.07c0.675-0.233,1.203-0.229,1.57,0.014c0.531,0.351,0.59,1.11,0.59,1.117l0.046,0.657c-0.006,0.006,0.459-0.459,0.459-0.459l0.007-0.005l-0.013,0.012c0.002-0.002,0.235-0.173,0.842,0.097c0.552,0.245,0.764,1.315,0.8,1.706l0.023,0.253c0,0,0.253,0.02,0.253,0.02c0,0,0.509,0.065,1.148,0.784C209.134,98.163,209.158,98.638,208.957,99.104z M200.094,103.232c0,0-0.146-0.117-0.146-0.118l0.04-0.182c0.002-0.011,0.237-1.142-0.581-2.777c-0.746-1.491-2.783-0.64-2.869-0.603l-0.237,0.102l-0.137-0.218c-0.027-0.043-0.266-0.443-0.458-1.353c-0.063-0.298-0.447-0.621-0.956-0.803c-0.545-0.195-1.076-0.177-1.353,0.045l-0.007,0.001c-0.876,0.705-1.278,1.323-1.158,1.791c0.163,0.665,1.34,1.035,1.779,1.122c0,0,0.264,0.052,0.264,0.054l-0.023,0.269c-0.003,0.034-0.062,0.832,0.678,1.736c0.717,0.875,2.31,0.64,2.326,0.638c0,0,0.405-0.064,0.405-0.063l-0.062,0.406c-0.002,0.01-0.154,1.064,0.508,2.015c0.311,0.446,0.897,0.767,1.568,0.857c0.692,0.093,1.352-0.071,1.808-0.451c0.123-0.103,0.179-0.22,0.178-0.371C201.656,104.706,200.697,103.713,200.094,103.232z M191.321,108.338c-1.177-0.543-1.558-0.688-1.561-0.689c0,0-0.331-0.124-0.33-0.125l0.176-0.306c0.078-0.136,0.723-1.357-0.777-2.242c-1.695-1-3.147-0.846-3.161-0.844h0.001l-0.001,0.002c0,0-0.399,0.048-0.396,0.045l0.066-0.395c0.001-0.008,0.126-0.789-0.309-1.174c-0.311-0.275-0.884-0.304-1.655-0.089c-0.226,0.246-1.147,1.36-0.886,2.891c0.277,1.623,2.484,1.568,2.577,1.565l0.088-0.003l0.076,0.045c0.71,0.422,1.883,1.223,1.77,1.846c-0.073,0.402,0.474,1.762,0.727,1.938c0.3,0.071,1.09,0.15,1.375,0.174l0.045,0.004l0.042,0.017c0.476,0.194,1.853,0.632,2.493,0.338c0.14-0.065,0.227-0.158,0.272-0.294C192.415,109.654,192.202,108.745,191.321,108.338z M185.208,115.12c-0.941-0.513-2.124-0.521-2.136-0.521h-0.3v-0.3v-0.032l0.007-0.031c0.018-0.084,0.423-2.073-1.383-2.675c-1.461-0.487-1.763-0.355-1.776-0.349c0.015-0.007,0.052-0.039,0.069-0.101l-0.591-0.066c0-0.023,0.005-0.047,0.009-0.07l-0.001,0.003c0.001-0.005,0.002-0.014,0.004-0.019c0-0.002,0-0.004,0.001-0.006c0.044-0.222,0.097-0.814-0.169-1.031c-0.207-0.17-0.646-0.12-1.236,0.139l-0.633,0.278l0.23-0.653c0.002-0.005,0.166-0.499-0.074-0.797c-0.194-0.241-0.637-0.327-1.281-0.248c-0.65,0.08-1.135,0.39-1.441,0.921c-0.509,0.885-0.425,2.2-0.087,2.988c0.47,1.097,2.098,1.26,3.027,1.26c0.863,0,1.602-0.046,1.609-0.046l0.367-0.023l-0.051,0.364c-0.094,0.673-0.153,2.496,0.7,2.843c1.116,0.455,1.843,0.195,1.871,0.184c0,0,0.222-0.086,0.222-0.086l0.134,0.197c0.037,0.055,0.934,1.341,2.069,0.698c0.82-0.464,1.243-1.37,1.238-2.026C185.602,115.652,185.532,115.297,185.208,115.12z M166.208,120.253c0.612,0.252,1.123-0.13,1.142-0.145c0,0,0.271-0.213,0.271-0.212l0.174,0.298c0.006,0.011,0.629,1.06,1.555,1.06c0.926,0,1.399-0.754,1.418-0.785l0.1-0.167l0.193,0.023l1.535,0.186l0.147,0.018l0.075,0.127c0.007,0.012,0.725,1.218,1.285,1.691c0.392,0.332,1.275,0.171,1.581,0.081l0.141-0.042l0.119,0.086c0.011,0.008,1.126,0.806,1.805,0.976c0.184,0.046,0.345,0.015,0.491-0.096c0.343-0.26,0.554-0.919,0.579-1.808c0.008-0.293-0.08-0.526-0.271-0.713c-0.491-0.479-1.556-0.534-1.924-0.514v-0.003l-0.059,0.006l-0.055-0.019l-1.628-0.558c0,0-0.234-0.08-0.234-0.081l0.034-0.245c0.01-0.071,0.225-1.75-1.322-2.878c-1.468-1.071-2.66,0.31-2.709,0.368c0,0-0.364,0.437-0.367,0.422l-0.155-0.547c-0.001-0.005-0.166-0.53-1.493-0.605c-0.216-0.012-0.399,0.02-0.558,0.078c0.089,0.413,0.477,1.049-0.929,1.301c-0.007,0.039-0.01,0.067-0.011,0.074l-0.025,0.239l-0.238,0.028c-0.605,0.072-1.344,0.289-1.43,0.915C165.359,119.428,165.896,120.125,166.208,120.253z M165.894,130.606c1.676-0.082,2.466-2.422,2.474-2.445l0.155-0.472l0.346,0.357c0.374,0.386,1.483,1.435,2.112,1.645c0.603,0.201,1.234-0.669,1.24-0.677c0,0,0.219-0.315,0.222-0.313l0.253,0.289c0.002,0.002,0.23,0.259,0.947,0.68c0.247,0.145,0.762,0.129,1.344-0.043c0.72-0.213,1.287-0.586,1.398-0.809c0.028-0.056,0.028-0.19-0.055-0.395c-0.284-0.694-1.292-1.683-2.425-2.072c-1.374-0.471-2.041,0.532-2.069,0.575l0.001-0.001v-0.008l-0.306,0.495l-0.224-0.53c-0.856-2.028-1.927-2.222-2.862-2.144c-0.228,0.019-0.392,0.094-0.5,0.231c-0.221,0.277-0.159,0.724-0.159,0.727c0,0,0.062,0.4,0.059,0.4l-0.401-0.058c-0.002,0-0.261-0.036-0.841,0.047c-0.699,0.1-1.339-0.045-1.366-0.051l-0.112-0.026l-0.066-0.094c-0.008-0.011-0.796-1.115-1.777-1.037c-0.946,0.076-1.266,1.64-1.306,2.551c-0.036,0.831,0.748,1.135,0.78,1.147l0.216,0.079l-0.02,0.229c-0.024,0.282-0.066,1.087,0.035,1.423C162.991,130.325,163.148,130.74,165.894,130.606z M174.435,137.118c0.238-0.101,1.137-1.045,1.512-2.254c0.109-0.353,0.071-0.633-0.117-0.857c-0.335-0.398-1.148-0.59-2.023-0.477c-1.24,0.16-1.65,1.123-1.667,1.164l0.001-0.002v-0.008l-0.07,0.183l-0.188,0.013c-0.02,0.002-2.039,0.143-3.62,0.55c-0.328,0.084-0.543,0.241-0.657,0.479c-0.234,0.486,0.001,1.233,0.112,1.479l0.135,0.298l-0.309,0.108c-0.018,0.006-1.76,0.629-2.487,1.954c-0.179,0.327-0.17,0.685,0.03,1.065c0.443,0.844,1.7,1.57,2.529,1.656c0.331,0.034,0.444-0.092,0.481-0.134c0.26-0.292,0.176-0.999,0.126-1.223l-0.107-0.475l0.473,0.118c0.01,0.002,1.003,0.243,1.725-0.198c0.485-0.296,0.807-2.08,0.88-3.251l0.019-0.302l0.302,0.022c0,0,1.303,0.093,1.281,0.092H174.435z M179.375,138.508c-1.271-0.809-2.428,0.824-2.476,0.894l0.001,0.008l-0.018,0.018l-0.023,0.022c-0.199,0.189-0.296,0.375-0.287,0.553c0.015,0.296,0.306,0.523,0.307,0.524c0,0,0.67,0.502,0.65,0.502l-0.837,0.037c-0.017,0.001-0.43,0.027-2.685,0.821c-0.605,0.213-0.952,0.502-1.032,0.86c-0.129,0.579,0.445,1.298,0.676,1.526l0.527,0.514h-0.696c-0.168,0.049-1.069,0.364-1.328,1.621c-0.074,0.357,0.012,0.53,0.083,0.63c0.355,0.498,1.567,0.655,3.102,0.855l1.169,0.158c0.923,0.134,1.652-0.047,2.167-0.538c0.678-0.646,0.846-1.701,0.794-2.253c-0.053-0.562-1.381-1.505-2.307-1.996l0.14-0.565c0.012,0,1.242-0.002,2.274-0.182c0.694-0.12,1.12-1.388,1.237-1.914C180.796,140.398,180.639,139.313,179.375,138.508z" />
    <path fill="#FFFFFF" d="M225.448,190.045c13.905,0,18.443,4.538,18.443,4.538s5.708-3.659,11.27-9.075c5.562-5.416,7.611-11.124,7.611-11.124h-10.246c0,0-3.367,5.416-6.294,7.904c-2.927,2.489-4.244,3.22-4.244,3.22s-5.562-3.659-15.955-3.659h-2.342c-10.392,0-15.955,3.659-15.955,3.659s-1.317-0.732-4.244-3.22c-2.927-2.488-6.294-7.904-6.294-7.904h-10.246c0,0,2.049,5.709,7.611,11.124c5.562,5.416,11.27,9.075,11.27,9.075s4.538-4.538,18.443-4.538h1.166H225.448z" />
    <path fill="#5087C6" d="M263.017,174.211c-0.056-0.08-0.148-0.127-0.245-0.127h-10.246c-0.104,0-0.2,0.054-0.255,0.142c-0.033,0.054-3.376,5.405-6.233,7.834c-2.321,1.973-3.629,2.838-4.047,3.097c-0.993-0.602-6.428-3.608-15.957-3.608h-2.342c-9.529,0-14.964,3.006-15.957,3.608c-0.418-0.26-1.727-1.125-4.047-3.097c-2.858-2.429-6.2-7.78-6.234-7.834c-0.055-0.088-0.151-0.142-0.255-0.142h-10.246c-0.098,0-0.189,0.047-0.245,0.127c-0.056,0.08-0.07,0.182-0.037,0.274c0.021,0.058,2.137,5.836,7.685,11.238c5.52,5.375,11.26,9.076,11.318,9.112c0.119,0.076,0.275,0.059,0.374-0.041c0.044-0.044,4.648-4.45,18.231-4.45h1.166h0.004c13.623,0,18.186,4.405,18.231,4.45c0.1,0.1,0.255,0.117,0.374,0.041c0.057-0.037,5.798-3.738,11.317-9.112c5.548-5.402,7.664-11.18,7.685-11.238C263.087,174.393,263.073,174.291,263.017,174.211z M254.95,185.293c-4.914,4.785-10,8.23-11.032,8.912c-0.979-0.838-5.938-4.46-18.472-4.46h-1.169h-0.002c-12.534,0-17.493,3.622-18.472,4.46c-1.032-0.682-6.118-4.127-11.031-8.912c-4.608-4.486-6.801-9.225-7.378-10.609h9.638c0.557,0.881,3.563,5.535,6.266,7.832c2.916,2.48,4.238,3.223,4.293,3.254c0.098,0.054,0.218,0.05,0.311-0.012c0.055-0.036,5.621-3.61,15.79-3.61h2.342c10.168,0,15.735,3.574,15.79,3.61c0.093,0.061,0.213,0.066,0.31,0.011c0.055-0.031,1.377-0.775,4.293-3.254c2.703-2.298,5.708-6.951,6.266-7.832h9.638C261.751,176.067,259.557,180.807,254.95,185.293z" />
    <path fill="#0054A6" d="M300.547,117.095L225.124,62.3l-0.264-0.192l-0.265,0.192l-75.423,54.798l-0.264,0.192l0.101,0.311l28.807,88.662l0.101,0.311h93.882l0.102-0.315l0.002,0.001l28.807-88.662l0.101-0.311L300.547,117.095z M271.146,205.673h-92.571l-28.605-88.04l74.891-54.414l74.891,54.414L271.146,205.673z" />
    <path fill="#231F20" d="M196.165,181.128c0.006-0.154-0.033-0.346-0.118-0.578c0.233,0.072,0.458,0.065,0.677-0.019c0.163-0.062,0.314-0.163,0.451-0.301c0.25-0.252,0.382-0.529,0.398-0.834c0.014-0.326-0.116-0.625-0.391-0.898l-1.343-1.333l-3.445,3.469l0.001,0.004l1.311,1.299c0.326,0.323,0.684,0.478,1.075,0.463c0.361-0.012,0.687-0.165,0.978-0.458C196.014,181.685,196.149,181.413,196.165,181.128z M195.849,177.976l0.748,0.742c0.223,0.222,0.342,0.425,0.357,0.609c0.014,0.183-0.062,0.359-0.228,0.527c-0.201,0.203-0.404,0.293-0.606,0.271c-0.182-0.021-0.378-0.136-0.587-0.343l-0.743-0.738L195.849,177.976z M195.354,181.524c-0.198,0.199-0.406,0.3-0.625,0.302c-0.219,0.003-0.435-0.101-0.647-0.312l-0.878-0.872l1.206-1.214l0.001-0.002l0.81,0.807c0.204,0.202,0.328,0.399,0.374,0.591C195.651,181.072,195.571,181.305,195.354,181.524z M199.777,181.079l-4.592,2.33l0.427,0.425l1.325-0.694l1.219,1.211l-0.001,0.002l-0.702,1.308l0.45,0.447l2.341-4.566L199.777,181.079z M198.419,183.785l-0.944-0.938l2.007-1.032L198.419,183.785z M199.318,186.687l1.546,1.535l-0.413,0.416l-1.958-1.945l3.445-3.469l0.417,0.405l-0.005,0.004L199.318,186.687z M204.986,186.251l0.001,0.001l-3.445,3.469l-0.412-0.41l3.445-3.469L204.986,186.251z M247.368,188.003c0.36,0.372,0.531,0.74,0.513,1.106c-0.016,0.294-0.147,0.56-0.393,0.799c-0.318,0.308-0.654,0.432-1.009,0.37c-0.266-0.045-0.506-0.177-0.718-0.396l-0.333-0.345l-0.004-0.002l0.391-0.379l0.237,0.244c0.196,0.202,0.381,0.31,0.556,0.324c0.157,0.013,0.311-0.055,0.463-0.203c0.18-0.175,0.256-0.358,0.225-0.551c-0.026-0.164-0.132-0.343-0.319-0.535l-2.512-2.591l0.417-0.405L247.368,188.003z M246.629,183.746l2.243,4.635l0.433-0.418l-0.669-1.338l1.234-1.197l0.001-0.001l1.296,0.729l0.456-0.442l-4.521-2.426L246.629,183.746z M249.313,185.153l-0.957,0.928l-0.993-2.027L249.313,185.153z M252.166,182.446l1.369,1.412l-0.417,0.405l-1.369-1.412l-3.198-0.968l0.485-0.47l2.521,0.827l-0.749-2.545l0.488-0.475l0.873,3.225L252.166,182.446z M257.332,180.18l0.456-0.442l-4.521-2.426l-0.473,0.458l2.244,4.635l0.433-0.419l-0.669-1.338l1.233-1.196L257.332,180.18z M254.518,180.106l-0.993-2.028l1.949,1.099L254.518,180.106z M215.144,185.027c-0.404-0.366-0.876-0.497-1.418-0.393l-1.711,0.329l0.922,4.8l-0.001,0.002l1.689-0.327c0.631-0.121,1.053-0.489,1.264-1.102c0.167-0.485,0.188-1.055,0.062-1.71C215.817,185.926,215.548,185.393,215.144,185.027z M215.308,188.228c-0.157,0.368-0.424,0.588-0.8,0.66l-1.106,0.212l-0.71-3.694l0.003,0l1.062-0.204c0.396-0.076,0.736,0.019,1.019,0.286c0.283,0.267,0.481,0.697,0.595,1.291C215.486,187.378,215.464,187.86,215.308,188.228z M219.72,188.747L219.72,188.747L219.72,188.747L219.72,188.747z M222.492,183.67l0.64-0.041l-0.819,4.952l-0.609,0.039l-1.238-3.983l-0.747,4.109l-0.609,0.039l-1.428-4.808l0.625-0.039l1.055,3.913l0.722-4.027l0.633-0.04l1.214,3.908L222.492,183.67z M225.358,183.682l0.582,0.009h-0.001l-0.076,4.889l-0.581-0.009L225.358,183.682z M230.412,183.918l-1.929-0.149l-0.377,4.875l0.581,0.045l0.159-2.058l-0.001-0.001l1.35,0.105c0.429,0.033,0.77-0.098,1.021-0.392c0.211-0.248,0.332-0.566,0.362-0.955c0.031-0.403-0.058-0.741-0.267-1.014C231.102,184.1,230.803,183.948,230.412,183.918z M230.985,185.347c-0.024,0.317-0.122,0.54-0.292,0.668c-0.153,0.116-0.369,0.163-0.648,0.142l-1.153-0.089l0.131-1.692l0.004-0.002l1.173,0.093c0.259,0.02,0.455,0.094,0.59,0.223C230.942,184.838,231.008,185.057,230.985,185.347z M235.281,184.526l-2.431,4.537l0.588,0.102l0.688-1.324l1.7,0.296l0.174,1.474l0.625,0.109l-0.695-5.081L235.281,184.526z M234.403,187.297L234.403,187.297l1.056-1.993l0.256,2.221L234.403,187.297z" />
  </g>
</svg>
