<svg xmlns="http://www.w3.org/2000/svg" width="450px" height="300px" viewBox="0 0 450 300">
  <path fill="#FF9955" d="M0,0h450v300H0V0z" />
  <path fill="#5087C6" d="M224.863,62.663l75.42,54.797l-28.809,88.662h-93.226L149.44,117.46L224.863,62.663z" />
  <path fill="#F2C008" d="M196.129,124.271c-0.003-0.466,0.545-0.977,0.757-1.134c0.069-0.052,0.113-0.131,0.12-0.217c0.007-0.086-0.023-0.171-0.083-0.233c-1.262-1.303-2.664-1.136-3.556-0.546c-1.119,0.741-1.848,2.447-1.075,4.272c0.122,0.288,0.127,0.552,0.017,0.808c-0.297,0.692-1.314,1.081-1.324,1.085c-0.077,0.029-0.14,0.089-0.172,0.166c-0.564,1.355-0.167,5.131,0.096,7.117l-1.348-1.925c-0.071-0.102-0.199-0.149-0.32-0.119c-0.121,0.031-0.21,0.133-0.224,0.256c-0.008,0.07-0.835,7.06-3.418,10.575c-2.135,2.905-6.098,3.346-7.343,3.413l0.26-0.938c0.03-0.109-0.003-0.225-0.086-0.302c-0.083-0.076-0.202-0.099-0.308-0.06c-0.005,0.002-0.549,0.203-1.003,0.203c-0.165,0-0.626-0.255-1.125-0.583h0.903c0.273,0,0.542-0.126,0.826-0.259c0.271-0.127,0.551-0.258,0.8-0.258c0.695,0,1.591-0.875,1.69-0.975c0.086-0.086,0.112-0.215,0.065-0.327s-0.156-0.185-0.277-0.185c-0.012,0-1.227-0.002-1.775-0.139c-0.328-0.082-0.923-0.538-1.323-0.888h1.694c1.456,0,2.24-1.218,2.514-2.012c0.566-0.047,2.283-0.209,3.839-0.583c1.968-0.472,3.116-6.098,3.252-6.798c0-0.001,0.002-0.006,0.002-0.006s-0.001,0-0.001,0.001c0-0.003,0.002-0.008,0.002-0.011c0.031-0.16-0.072-0.316-0.232-0.35c-0.16-0.034-0.317,0.066-0.355,0.225c-0.002,0.01-0.288,1.149-1.345,1.81c-0.451,0.282-0.807,0.392-1.069,0.432c0.508-0.605,1.407-1.704,2.067-2.669c1.036-1.514,2.417-5.233,2.492-7.255c0.067-1.803,2.112-6.216,4.579-6.216c2.424,0,3.855,1.011,4.138,2.922c0.177,1.193-0.3,2.075-0.817,2.389c-0.365,0.221-0.762,0.191-1.15-0.089C196.257,124.685,196.131,124.489,196.129,124.271z M282.456,136.602c-0.566,1.038-0.295,2.067-0.284,2.11c0.037,0.134,0.161,0.226,0.3,0.221c0.139-0.005,0.256-0.105,0.284-0.241c0.002-0.011,0.248-1.159,1.221-1.683l1.34-0.726c-0.427,1.059-1.255,2.984-2.072,4.152c-1.009,1.441-2.815,2.491-4.957,2.881c-1.271,0.231-4.342,0.304-6.059,0.327c-0.057,0.001-0.113,0.018-0.161,0.05c-0.291,0.192-0.453,0.258-0.543,0.279l0.014-0.007c-0.549,0.137-1.763,0.139-1.775,0.139c-0.122,0-0.232,0.074-0.278,0.187c-0.046,0.113-0.019,0.243,0.068,0.328c0.04,0.039,0.105,0.081,0.159,0.093c0.871,0.196,2.598,0.493,4.381,0.27c2.015-0.252,6.983-0.344,8.898-0.371c-1.104,0.937-3.829,2.839-7.786,2.839c-2.854,0-4.709-1.046-5.763-1.923c-0.023-0.019-0.052-0.036-0.08-0.048l-3.238-1.327c0.002,0.001,0.002,0.003,0.004,0.004c-0.004-0.001-0.009-0.005-0.012-0.006c-0.154-0.059-0.327,0.016-0.388,0.169s0.012,0.326,0.164,0.388l0.016,0.006c0.314,0.124,0.919,0.612,1.506,1.086c0.916,0.741,1.864,1.507,2.55,1.668c0.634,0.149,1.261,0.543,2.055,1.042c0.475,0.299,1.014,0.637,1.64,0.974c0.8,0.431,2.049,0.634,3.17,0.729c-2.103,0.381-5.163,0.744-7.36,0.185c-2.483-0.631-3.784-3.336-4.339-4.893c-0.016-0.043-0.041-0.082-0.074-0.115c-0.328-0.318-0.627-0.659-0.889-1.016c-2.584-3.517-3.409-10.505-3.418-10.575c-0.014-0.124-0.104-0.226-0.224-0.257c-0.121-0.031-0.248,0.017-0.32,0.119l-1.348,1.926c0.263-1.986,0.661-5.763,0.096-7.118c-0.032-0.077-0.094-0.137-0.172-0.166c-0.01-0.004-1.027-0.393-1.324-1.085c-0.11-0.256-0.104-0.521,0.017-0.808c0.773-1.825,0.044-3.531-1.076-4.272c-0.891-0.59-2.294-0.757-3.556,0.546c-0.06,0.062-0.091,0.147-0.084,0.233s0.051,0.165,0.121,0.217c0.211,0.157,0.76,0.668,0.756,1.134c-0.002,0.218-0.127,0.413-0.384,0.599c-0.388,0.28-0.785,0.311-1.15,0.089c-0.518-0.314-0.994-1.196-0.817-2.389c0.283-1.912,1.714-2.922,4.138-2.922c2.467,0,4.512,4.413,4.579,6.216c0.075,2.021,1.456,5.74,2.492,7.255c0.66,0.965,1.56,2.065,2.068,2.67c-0.262-0.04-0.618-0.15-1.07-0.433c-1.057-0.661-1.343-1.8-1.345-1.811c-0.003-0.014-0.008-0.029-0.013-0.042c-0.057-0.144-0.215-0.22-0.363-0.176c-0.148,0.043-0.239,0.193-0.21,0.345c0.001,0.004,0.002,0.012,0.003,0.016c0-0.001-0.002-0.002-0.002-0.003c0,0.002,0.004,0.015,0.005,0.019c0.146,0.75,1.292,6.312,3.249,6.782c1.341,0.322,2.824,0.489,3.588,0.561c0.157,0.015,0.3-0.096,0.324-0.252c0.269-1.708,0.618-2.968,0.984-3.547c0.596-0.943,2.064-3.97,2.737-5.374c0.265,1.05,0.67,3.015,0.542,4.809c-0.137,1.921-2.737,3.995-3.848,4.798c-0.131,0.094-0.164,0.276-0.073,0.41c0.401,0.599,0.941,0.989,1.564,1.128c0.048,0.011,0.099,0.009,0.146-0.004c2.121-0.593,4.77-1.527,5.341-2.605c0.783-1.479,0.49-3.313-0.87-5.45c-1.205-1.892-1.583-5.239-1.583-6.018c0-0.669-0.347-1.886-0.581-2.634c1.227,0.571,3.976,2.068,4.538,4.254c0.753,2.927,0.594,7.25,0.592,7.294c-0.006,0.148,0.097,0.278,0.242,0.306c0.145,0.028,0.289-0.053,0.34-0.191c0.082-0.226,2.004-5.553,0.847-7.956c-1.127-2.341-4.352-4.868-6.149-5.719c-1.708-0.809-3.708-2.144-4.326-3.303c-0.394-0.738-0.808-1.303-1.105-1.667c1.424-0.092,5.077-0.182,6.56,1.172c1.903,1.738,3.004,4.331,3.015,4.357c0.058,0.138,0.208,0.212,0.353,0.174c0.145-0.038,0.239-0.177,0.221-0.326c-0.018-0.152-0.473-3.756-2.956-5.53c-1.765-1.261-3.708-1.409-5.422-1.539c-0.707-0.054-1.375-0.105-1.987-0.227c-1.6-0.32-3.456-1.675-4.453-2.403c-0.315-0.23-0.543-0.396-0.692-0.481c-0.227-0.13-0.569-0.349-0.905-0.57c0.736,0.078,1.645,0.146,2.321,0.101c0.791-0.053,3.198-0.213,4.333,0.283c0.14,0.061,0.303,0.008,0.38-0.125c0.077-0.132,0.042-0.301-0.081-0.391c-0.763-0.565-1.859-1.251-2.743-1.31c-1.325-0.089-4.279-0.517-5.268-0.764c-0.958-0.24-3.002-1.209-3.457-1.436c-0.191-0.098-1.437-1.113-2.642-2.123c0.466-0.127,1.338-0.255,2.723-0.058c2.556,0.365,4.392,1.17,5.187,1.748c0.986,0.717,2.294,0.985,2.349,0.995c0.132,0.026,0.265-0.038,0.326-0.158c0.061-0.119,0.035-0.265-0.063-0.356c-0.096-0.089-2.37-2.186-4.023-2.969c-1.05-0.498-2.944-0.555-4.615-0.606c-1.027-0.031-1.996-0.061-2.571-0.188c-1.504-0.334-3.33-1.437-3.606-1.783c-0.234-0.292-0.813-1.229-1.131-1.751c0.738-0.123,2.385-0.253,3.827,0.648c2.107,1.317,4.018,1.921,4.034,1.924c0.03,0.008,0.061,0.01,0.093,0.008l1.287-0.086c0.138-0.009,0.252-0.112,0.276-0.248c0.024-0.137-0.049-0.271-0.176-0.326c-0.026-0.011-2.554-1.111-3.544-1.853c-1.121-0.841-3.785-1.519-5.243-1.519c-0.452,0-0.879,0.062-1.292,0.123c-0.965,0.141-1.876,0.275-3.123-0.349c-1.3-0.65-2.309-1.954-2.771-2.628c1.143-0.046,3.806-0.15,4.268-0.15c0.505,0,1.122,0.38,1.129,0.384c0.136,0.085,0.316,0.047,0.406-0.086c0.091-0.133,0.061-0.313-0.068-0.409c-0.001,0-0.017-0.013-0.021-0.016h0.001l-0.003-0.002c-0.13-0.098-1.706-1.297-2.501-2.252c-0.763-0.916-1.656-2.659-1.538-3.943c0.571,0.691,1.579,1.8,2.279,1.94c0.944,0.189,3.262,0.993,5.272,2.682c2.057,1.728,2.744,3.225,2.751,3.239c0.015,0.033,0.036,0.064,0.062,0.09c0.101,0.101,0.26,0.117,0.38,0.037c0.119-0.08,0.165-0.233,0.109-0.365c0-0.001-0.003-0.006-0.003-0.008c0,0.001,0.002,0.001,0.002,0.002c-0.001-0.002-0.009-0.018-0.011-0.023c-0.118-0.278-1.176-2.735-2.122-3.596c-0.47-0.427-1.004-1.6-1.4-2.617c0.255,0.217,0.548,0.433,0.884,0.614c2.786,1.5,4.5,3.136,4.827,4.606c0.13,0.586,0.222,1.109,0.303,1.569c0.246,1.399,0.409,2.324,1.282,2.906c1.013,0.675,2.889,2.039,2.908,2.053c0.112,0.082,0.266,0.076,0.372-0.015c0.105-0.091,0.135-0.242,0.071-0.365c-0.013-0.026-1.361-2.645-1.692-3.969c-0.258-1.031-0.563-2.241-1.067-3.148c0.284,0.265,0.561,0.544,0.802,0.836c0.452,0.55,1.176,1.151,1.942,1.788c1.261,1.049,2.689,2.237,2.888,3.229c0.142,0.71,0.098,1.423,0.055,2.112c-0.057,0.922-0.111,1.794,0.332,2.458c0.709,1.064,4.712,3.906,4.882,4.026c0.104,0.073,0.242,0.074,0.345,0.001c0.104-0.073,0.151-0.203,0.118-0.325c-0.011-0.042-0.291-1.039-1.12-1.776l-0.342-0.299c-0.829-0.72-2.217-1.926-2.491-2.747c-0.191-0.575,0.026-1.908,0.236-2.87c0.231,0.465,0.544,1.05,0.864,1.506c0.218,0.311,0.708,0.614,1.387,1.033c1.413,0.873,3.348,2.068,3.626,3.903c0.239,1.579,0.235,2.259,0.231,2.709c-0.002,0.365-0.004,0.607,0.121,1.022c0.275,0.918,2.733,2.999,3.013,3.233c0.121,0.102,0.3,0.092,0.409-0.023c0.109-0.114,0.111-0.294,0.005-0.41c-0.018-0.019-1.809-1.996-1.809-3.659c0-0.627,0.042-1.142,0.079-1.596c0.069-0.852,0.119-1.468-0.21-1.995c-0.131-0.21-0.17-0.514-0.167-0.816c0.332,0.585,0.782,1.229,1.204,1.349l0.063,0.018c2.181,0.608,3.474,2.223,3.842,4.8c0.321,2.248,0.244,4.022,0.188,5.317c-0.05,1.16-0.087,1.997,0.18,2.576c0.511,1.107,0.802,1.36,0.879,1.411c0.107,0.071,0.247,0.067,0.349-0.011s0.143-0.212,0.102-0.333c-0.003-0.009-0.319-0.985-0.159-2.182c0.052-0.386,0.072-0.878,0.096-1.446c0.056-1.335,0.127-2.997,0.647-4.037c0.409-0.818,0.608-1.799,0.707-2.577c0.684,1.815,1.847,5.246,1.729,7.317c-0.154,2.7-1.326,5.17-1.955,6.497l-0.163,0.344c-0.631,1.353-0.297,3.758-0.283,3.859c0.021,0.148,0.148,0.258,0.299,0.258c0.15-0.001,0.276-0.112,0.296-0.26c0.003-0.025,0.344-2.501,1.219-3.536c0.552-0.652,1.011-1.748,1.311-2.598c0.296,1.942,0.749,5.669,0.153,7.278c-0.51,1.376-1.252,1.897-1.907,2.357C283.053,135.93,282.679,136.193,282.456,136.602z M257.884,103.079c-1.504-1.681-3.667-2.215-3.758-2.237c-0.161-0.039-0.323,0.061-0.362,0.222s0.066,0.321,0.225,0.36l-0.003,0.002c0.02,0.005,2.075,0.516,3.451,2.054c0.11,0.124,0.3,0.134,0.424,0.023C257.984,103.392,257.995,103.202,257.884,103.079z M265.588,109.028c0.047-0.159-0.043-0.326-0.202-0.373c-0.476-0.142-0.959-0.449-1.325-0.842c-0.106-0.114-0.203-0.252-0.306-0.397c-0.25-0.353-0.532-0.752-1.026-0.905c-0.158-0.049-0.326,0.039-0.375,0.198s0.039,0.33,0.198,0.378l-0.001-0.003c0.299,0.093,0.5,0.377,0.714,0.679c0.11,0.156,0.224,0.316,0.357,0.46c0.443,0.476,1.008,0.834,1.592,1.008C265.374,109.277,265.541,109.186,265.588,109.028z M274.447,117.085c-0.766-0.391-1.731-1.453-2.289-2.301c-0.091-0.138-0.277-0.177-0.416-0.086s-0.177,0.279-0.087,0.417l0.001-0.001c0.582,0.885,1.619,2.047,2.517,2.505c0.148,0.075,0.328,0.017,0.404-0.131C274.653,117.341,274.594,117.16,274.447,117.085z M278.565,120.858c-0.106-0.186-0.217-0.378-0.317-0.569c-0.077-0.147-0.258-0.203-0.405-0.126s-0.201,0.261-0.126,0.408v-0.003c0.106,0.202,0.219,0.398,0.328,0.589c0.467,0.815,0.871,1.519,0.708,2.424c-0.029,0.163,0.079,0.319,0.242,0.348s0.319-0.079,0.349-0.242C279.545,122.567,279.047,121.698,278.565,120.858z M280.662,140.629c-0.087-0.147-0.27-0.195-0.414-0.111l0.003,0.003c-0.899,0.526-1.629,0.824-2.565,0.875c0.426-0.622,1.171-1.453,1.597-1.74c0.137-0.093,0.174-0.279,0.081-0.416s-0.279-0.174-0.416-0.081c-0.639,0.43-1.763,1.748-2.072,2.431c-0.041,0.091-0.035,0.196,0.017,0.281s0.143,0.138,0.242,0.143c1.367,0.063,2.256-0.293,3.419-0.974C280.698,140.956,280.746,140.772,280.662,140.629z M281.751,133.416c-0.008-0.141-0.016-0.274-0.016-0.375c0-1.56-0.4-2.342-1.063-3.637c-0.076-0.148-0.256-0.206-0.404-0.131c-0.147,0.075-0.204,0.258-0.129,0.405l-0.002-0.002c0.643,1.257,0.997,1.949,0.997,3.365c0,0.118,0.008,0.26,0.017,0.41c0.016,0.287,0.055,0.96-0.062,1.08c0,0,0.001-0.001,0.004-0.003c-0.136,0.094-0.171,0.281-0.077,0.417c0.094,0.137,0.281,0.171,0.417,0.077C281.827,134.751,281.786,134.042,281.751,133.416z M239.146,203.384c0.198,0.239,0.229,0.574,0.077,0.845c-0.151,0.27-0.454,0.42-0.761,0.376c-0.032-0.005-0.804-0.118-2.24-0.597c-0.63-0.21-1.167-0.191-1.789-0.169c-0.575,0.021-1.169,0.042-1.852-0.122c-0.502-0.12-1.192-0.463-1.882-0.86c-0.03,0.035-0.061,0.07-0.097,0.099c-0.002,0.002-0.209,0.169-0.422,0.377c-0.06,0.118-0.144,0.478-0.176,0.766c-0.034,0.306-0.251,0.56-0.548,0.641c-0.297,0.081-0.613-0.028-0.797-0.274c-0.146-0.195-0.447-0.521-0.61-0.602c-0.197-0.099-0.863-0.278-1.384-0.393c-0.328,0.627-0.725,1.267-1.103,1.835c-0.139,0.208-0.373,0.334-0.624,0.334h-0.155c-0.251,0-0.485-0.125-0.624-0.334c-0.379-0.568-0.775-1.208-1.103-1.835c-0.521,0.115-1.187,0.294-1.384,0.393c-0.149,0.075-0.436,0.372-0.61,0.602c-0.184,0.246-0.5,0.354-0.797,0.273c-0.296-0.081-0.514-0.334-0.548-0.64c-0.033-0.289-0.116-0.649-0.176-0.767c-0.212-0.208-0.419-0.375-0.422-0.377c-0.037-0.029-0.067-0.064-0.097-0.099c-0.691,0.398-1.38,0.74-1.883,0.86c-0.683,0.164-1.278,0.143-1.852,0.122c-0.622-0.022-1.159-0.041-1.789,0.169c-1.436,0.479-2.208,0.592-2.24,0.597c-0.307,0.044-0.609-0.106-0.761-0.376c-0.151-0.271-0.121-0.606,0.077-0.845c0.286-0.345,2.651-3.17,4.157-4.144c-0.403-0.205-0.791-0.465-1.036-0.784c-0.223-0.29-0.485-0.71-0.762-1.155c-0.288-0.462-0.771-1.234-0.956-1.385c-0.443-0.344-1.451-1.051-1.461-1.058c-0.29-0.203-0.399-0.582-0.26-0.908c0.047-0.109,0.118-0.2,0.203-0.274c-0.093-0.119-0.151-0.266-0.159-0.424c-0.016-0.326,0.18-0.625,0.486-0.739c0.178-0.066,1.939-0.395,4.137,0.093c0.01-0.029,0.02-0.058,0.034-0.086c0.013-0.026,0.029-0.054,0.045-0.078c0.171-0.262,0.363-0.748,0.28-0.981c-0.122-0.341,0.017-0.72,0.33-0.901c0.313-0.182,0.711-0.114,0.946,0.16c0.497,0.58,1.295,1.481,1.513,1.668c0.027,0.023,0.053,0.045,0.079,0.067c0.112-0.261-0.164-1.052-0.484-1.571c-0.175-0.283-0.143-0.647,0.078-0.896c0.222-0.248,0.581-0.32,0.881-0.177c0.048,0.023,1.193,0.572,1.988,1.311c0.201,0.187,0.41,0.482,0.615,0.839c0.047-0.155,0.077-0.28,0.079-0.341c0-0.233-0.084-0.54-0.116-0.637c-0.108-0.325,0.017-0.681,0.304-0.867s0.664-0.154,0.915,0.078c0.452,0.415,0.965,0.943,1.281,1.445c0.251-0.45,0.434-0.742,0.459-0.78c0.138-0.217,0.377-0.349,0.634-0.349h0.155c0.257,0,0.496,0.131,0.634,0.349c0.024,0.038,0.207,0.33,0.459,0.78c0.316-0.501,0.83-1.029,1.281-1.444c0.251-0.231,0.626-0.263,0.914-0.078c0.287,0.185,0.413,0.541,0.306,0.865c-0.032,0.099-0.116,0.406-0.116,0.636c0.002,0.061,0.033,0.188,0.08,0.343c0.205-0.357,0.414-0.652,0.615-0.839c0.795-0.739,1.94-1.288,1.988-1.311c0.3-0.143,0.658-0.07,0.88,0.177s0.255,0.612,0.081,0.895c-0.321,0.521-0.597,1.312-0.485,1.573c0.026-0.023,0.052-0.044,0.079-0.067c0.218-0.187,1.016-1.088,1.513-1.668c0.235-0.274,0.633-0.342,0.946-0.16c0.313,0.181,0.451,0.56,0.33,0.901c-0.083,0.233,0.109,0.719,0.278,0.978c0.035,0.053,0.06,0.109,0.081,0.166c2.222-0.493,3.955-0.14,4.03-0.124c0.339,0.072,0.584,0.367,0.594,0.713c0.005,0.179-0.055,0.348-0.16,0.481c0.086,0.073,0.157,0.165,0.204,0.274c0.139,0.326,0.03,0.704-0.26,0.908c-0.01,0.007-1.018,0.714-1.461,1.057c-0.185,0.15-0.668,0.924-0.956,1.386c-0.277,0.445-0.539,0.865-0.762,1.155c-0.245,0.319-0.633,0.579-1.036,0.784l-0.003,0.004C236.494,200.219,238.861,203.045,239.146,203.384z M271.005,173.14v-4.109h-2.057v-1.2h1.8v-1.714h1.243v-1.843h-1.286v-1.885h-10.413v5.228h1.457v2.057h2.485v2.743h-1.115v-2.1h-2.185v-1.843h-1.328v-1.243h-1.672v-6.557h2.315v-1.286h2.057v-1.757c0,0,1.714-0.171,2.014-1.029c0.3-0.857-0.685-1.286-0.685-1.286s0.3-0.214,1.072-1.157c0.771-0.943,1.243-2.185,0.771-4.371c-0.471-2.186-2.656-4.028-3.728-3.771c-1.071,0.257-1.071,1.671-0.171,1.843c0.9,0.172,0.814-0.3,0.814-0.3s0.6,0.343,0.643,1.714s-2.271,2.571-3.256,3c-0.986,0.429-0.9,2.057-0.9,2.057h-0.985v-1.714h-2.743v-1.757h1.714c0.814,0,1.372-0.514,1.414-0.943c0.043-0.429-0.557-0.814-0.557-0.814s2.229-3,2.229-5.914s-1.072-3.943-2.315-3.985c-1.243-0.043-0.943,1.586-0.471,1.586c0.471,0,0.685-0.472,0.685-0.472s0.343,0.343,0.385,0.986c0.043,0.643-0.771,1.414-1.928,2.486c-1.157,1.071-1.2,3.128-1.2,3.128h-1.371v-1.414h-1.543v-2.057h1.2c0,0,1.414-0.6,1.414-1.114s-0.343-1.114-0.343-1.114c0.172-1.2,0.9-1.071,1.757-3.3c0.857-2.229-0.729-5.1-1.885-5.443c-1.157-0.343-1.844,1.714-1.115,1.886c0.728,0.171,0.943-0.429,0.943-0.429s0.472,0.214,0.514,1.2c0.043,0.986-0.857,1.286-1.843,2.014s-0.858,1.929-0.858,1.929h-1.671v-2.057h-1.414v-1.757h1.543v-1.457c0,0,1.115-0.6,1.929-1.843c1.317-2.01-0.001-4.929-0.943-5.357c-0.943-0.428-1.414,0.686-1.071,1.2s0.728,0,0.728,0s0.214,0.386,0.129,1.285c-0.086,0.9-1.372,1.414-2.014,1.629c-0.643,0.214-0.385,1.928-0.385,1.928h-1.543v-1.543h-2.4v-1.286h1.157v-0.771h1.456v-1.2c0,0-0.214-0.043,0.857-0.6c1.072-0.557,1.029-1.8,1.029-2.957s-1.2-2.614-1.457-2.314c-0.257,0.3,0.214,0.686,0.171,1.671c-0.043,0.986-0.685,1.286-1.114,1.286s-0.515,1.157-0.515,1.157h-1.714v-0.857h1.072v-1.071c0,0,1.243-1.114,1.243-2.186s-0.129-2.614-0.6-2.614c-0.472,0-0.557,0.257-0.472,1.286c0.086,1.028-1.071,1.714-1.628,1.629c-0.557-0.086-1.543,0.086-1.543,0.086s0.086-0.429,0.514-0.514c0.428-0.086,1.071-1.071,0.986-1.628c-0.086-0.557-1.329-0.514-1.329-0.514s0-0.814,0.044-1.457c0.043-0.643-1.543-1.457-1.543-1.457v57h-33.243v-57.006c0,0-1.586,0.815-1.543,1.457c0.044,0.643,0.044,1.457,0.044,1.457s-1.243-0.043-1.329,0.514c-0.085,0.557,0.557,1.543,0.986,1.628c0.429,0.086,0.514,0.514,0.514,0.514s-0.985-0.171-1.543-0.086c-0.557,0.086-1.715-0.6-1.628-1.629c0.086-1.028,0-1.286-0.472-1.286c-0.471,0-0.6,1.543-0.6,2.614s1.243,2.186,1.243,2.186v1.071h1.072v0.857h-1.715c0,0-0.086-1.157-0.514-1.157c-0.428,0-1.071-0.3-1.114-1.286c-0.044-0.986,0.428-1.371,0.171-1.671s-1.457,1.157-1.457,2.314s-0.043,2.4,1.029,2.957c1.071,0.557,0.857,0.6,0.857,0.6v1.2h1.456v0.771h1.157v1.286h-2.4v1.543h-1.543c0,0,0.257-1.714-0.385-1.928c-0.643-0.214-1.929-0.729-2.015-1.629s0.129-1.286,0.129-1.286s0.385,0.514,0.728,0s-0.128-1.628-1.071-1.2s-2.26,3.347-0.943,5.357c0.815,1.243,1.929,1.843,1.929,1.843v1.457h1.543v1.757h-1.415v2.057h-1.671c0,0,0.128-1.2-0.858-1.929c-0.985-0.729-1.885-1.028-1.843-2.014s0.515-1.2,0.515-1.2s0.214,0.6,0.943,0.429c0.729-0.171,0.043-2.229-1.115-1.886c-1.156,0.343-2.742,3.214-1.885,5.443c0.857,2.229,1.586,2.1,1.757,3.3c0,0-0.343,0.6-0.343,1.114c0,0.514,0.814,1.114,1.414,1.114s1.2,0,1.2,0v2.057h-1.543v1.414h-1.371c0,0-0.043-2.057-1.2-3.128s-1.972-1.843-1.928-2.486c0.043-0.643,0.385-0.986,0.385-0.986s0.215,0.472,0.686,0.472c0.472,0,0.772-1.628-0.471-1.586s-2.315,1.071-2.315,3.985s2.229,5.914,2.229,5.914s-0.6,0.385-0.557,0.814s0.6,0.943,1.415,0.943h1.714v1.757h-2.743v1.714h-0.985c0,0,0.086-1.628-0.9-2.057c-0.985-0.428-3.299-1.629-3.256-3s0.643-1.714,0.643-1.714s-0.086,0.471,0.814,0.3c0.9-0.171,0.9-1.586-0.171-1.843c-1.072-0.257-3.257,1.585-3.728,3.771c-0.472,2.186,0,3.429,0.771,4.371c0.772,0.943,1.072,1.157,1.072,1.157s-0.985,0.429-0.685,1.286s2.014,1.029,2.014,1.029v1.757h2.057v1.286h2.315v6.557h-1.672v1.243h-1.328v1.843h-2.185v2.1h-1.115v-2.743h2.485v-2.057h1.457v-5.228h-10.414v1.885h-1.285v1.843h1.243v1.714h1.8v1.2h-2.057v4.114h-10.971c0,0,0.656,2.29,1.75,5.529h1.066v2.035h1.966c0,0,0.154,4.896,1.417,9.342c1.34,2.887,2.806,5.536,4.302,7.35c5.443,6.6,13.071,8.271,16.542,8.271c3.482,0,6.182-1.299,6.182-1.299s4.502,0.258,7.834-1.172c1.006-0.878,2.39-2.197,2.568-2.956c0.284-1.209,0.143-2.134,0.143-2.134l1.625-0.188c-0.219-0.394-0.519-0.858-0.917-1.326l-1.278,0.305c0,0-0.257-0.617-1.352-1.423c-1.351-0.996-3.485-1.067-3.485-1.067s-0.356-1.067,0.071-1.067c0.083,0,0.252-0.013,0.479-0.029c1.542-0.984,6.909-3.922,16.06-3.922h4.29c9.182,0,14.556,2.958,16.076,3.932c0.147,0.01,0.262,0.019,0.325,0.019c0.427,0,0.071,1.067,0.071,1.067s-2.134,0.071-3.485,1.067c-1.094,0.806-1.352,1.423-1.352,1.423l-1.097-0.261c-0.397,0.461-0.703,0.916-0.93,1.302l1.458,0.168c0,0-0.142,0.925,0.143,2.134c0.17,0.723,1.433,1.955,2.422,2.828c3.353,1.572,8.117,1.3,8.117,1.3s2.7,1.299,6.182,1.299c3.471,0,11.099-1.671,16.542-8.271c1.499-1.819,2.969-4.477,4.313-7.373c1.256-4.439,1.41-9.318,1.41-9.318h1.966v-2.036h1.062c1.094-3.239,1.75-5.529,1.75-5.529h-10.973V173.14z M221.76,76.927l-1.594,5.364l4.518-3.25c0.102-0.073,0.239-0.075,0.343-0.005l4.519,3.051l-1.666-5.213c-0.04-0.124,0.005-0.26,0.111-0.335l4.396-3.139l-5.368,0.012c-0.128,0-0.241-0.08-0.284-0.201l-1.877-5.356l-1.869,5.356c-0.042,0.121-0.156,0.201-0.284,0.201l-5.397-0.012l4.34,3.199C221.753,76.675,221.797,76.806,221.76,76.927z M223.174,144.491v0.825c0,0.166-0.134,0.3-0.3,0.3h-1.125v0.825c0,0.166-0.134,0.3-0.3,0.3h-1.2v18.611h9.225v-18.611h-1.2c-0.166,0-0.3-0.134-0.3-0.3v-0.825h-1.125c-0.166,0-0.3-0.134-0.3-0.3v-0.825H223.174z M214.704,160.566h-2.643v2.262h1.581c0.166,0,0.3,0.134,0.3,0.3v2.224h5.706v-18.911c0-0.166,0.134-0.3,0.3-0.3h1.2v-0.825c0-0.166,0.134-0.3,0.3-0.3h1.125v-0.825c0-0.166,0.134-0.3,0.3-0.3h3.975c0.166,0,0.3,0.134,0.3,0.3v0.825h1.125c0.166,0,0.3,0.134,0.3,0.3v0.825h1.2c0.166,0,0.3,0.134,0.3,0.3v18.911h5.707v-2.227c0-0.166,0.134-0.3,0.3-0.3h1.58v-2.26h-2.642c-0.166,0-0.3-0.134-0.3-0.3v-20.268c0-0.166,0.134-0.3,0.3-0.3h1.743v-5.448h-0.518c-0.166,0-0.3-0.134-0.3-0.3v-0.599h-1.906c-0.166,0-0.3-0.134-0.3-0.3v-1.699h-17.752v1.699c0,0.166-0.134,0.3-0.3,0.3h-1.907v0.599c0,0.166-0.134,0.3-0.3,0.3h-0.517v5.448h1.743c0.166,0,0.3,0.134,0.3,0.3v20.269C215.004,160.432,214.87,160.566,214.704,160.566z M215.464,167.995h18.792v-2.083h-18.792L215.464,167.995L215.464,167.995z M213.302,170.608h23.119v-2.082h-23.119V170.608z M211.22,173.221h27.28v-2.083h-27.28V173.221z M218.041,123.943l0.006-0.006c0-0.005-0.005-0.008-0.006-0.013V123.943z M217.741,121.962c0.166,0,0.3,0.134,0.3,0.3v1.38h13.639v-1.381c0-0.166,0.134-0.3,0.3-0.3c3.278,0,4.385-2.343,4.709-3.35c0.4-1.247-0.018-2.43-0.427-2.837c-0.07-0.07-0.205-0.181-0.321-0.143c-0.128,0.042-0.146,0.095-0.153,0.115c-0.052,0.154,0.091,0.468,0.203,0.63c0.028,0.04,0.046,0.086,0.052,0.134c0.089,0.697-0.16,1.133-0.384,1.375c-0.356,0.385-0.941,0.596-1.567,0.566c-0.725-0.035-1.613,0.717-1.894,1.01c-0.085,0.089-0.215,0.117-0.328,0.071s-0.188-0.156-0.188-0.278v-1.69h-13.64v1.69c0,0.122-0.074,0.233-0.188,0.278c-0.114,0.046-0.244,0.018-0.328-0.071c-0.281-0.293-1.169-1.045-1.894-1.01c-0.625,0.03-1.211-0.181-1.567-0.566c-0.224-0.243-0.473-0.678-0.384-1.375c0.006-0.048,0.024-0.094,0.052-0.134c0.098-0.14,0.258-0.468,0.203-0.63c-0.007-0.02-0.025-0.074-0.153-0.116c-0.116-0.038-0.251,0.074-0.321,0.143c-0.409,0.407-0.828,1.591-0.427,2.837C213.355,119.62,214.462,121.962,217.741,121.962z M219.466,115.493c0.079,0,0.156,0.032,0.212,0.088s0.088,0.133,0.088,0.212v1.174h10.191v-1.175c0-0.08,0.032-0.156,0.088-0.212s0.132-0.088,0.212-0.088c3.289,0,4.393-1.956,4.714-2.797c0.328-0.859,0.092-1.76-0.312-2.205c-0.075-0.083-0.271-0.271-0.455-0.22c-0.08,0.022-0.137,0.054-0.146,0.081c-0.027,0.086,0.083,0.312,0.195,0.448c0.035,0.042,0.058,0.093,0.066,0.147c0.066,0.437-0.038,0.825-0.304,1.121c-0.345,0.385-0.96,0.599-1.644,0.571c-0.89-0.037-1.906,0.843-1.915,0.852c-0.089,0.078-0.214,0.097-0.322,0.048c-0.107-0.048-0.176-0.155-0.176-0.273v-1.344h-10.191v1.344c0,0.118-0.069,0.225-0.176,0.273s-0.233,0.03-0.322-0.048c-0.01-0.009-1.025-0.889-1.916-0.852c-0.684,0.028-1.299-0.186-1.644-0.571c-0.265-0.296-0.37-0.684-0.304-1.121c0.011-0.073,0.048-0.139,0.105-0.185c-0.014,0.012-0.027,0.025-0.039,0.039c0.113-0.137,0.223-0.363,0.195-0.449c-0.009-0.028-0.066-0.059-0.146-0.081c-0.185-0.051-0.38,0.137-0.455,0.22c-0.404,0.446-0.641,1.346-0.312,2.205C215.073,113.537,216.176,115.493,219.466,115.493z M220.465,109.889c0.079,0,0.156,0.032,0.212,0.088s0.088,0.133,0.088,0.212v1.133h8.194v-1.133c0-0.08,0.032-0.156,0.088-0.212s0.132-0.088,0.212-0.088c2.943,0,3.933-1.95,4.222-2.788c0.339-0.984,0.007-1.931-0.338-2.288c-0.054-0.056-0.192-0.183-0.307-0.148c-0.038,0.011-0.104,0.036-0.116,0.073c-0.03,0.092,0.068,0.325,0.176,0.471c0.03,0.041,0.05,0.089,0.057,0.14c0.08,0.583-0.131,0.955-0.323,1.165c-0.324,0.354-0.872,0.55-1.467,0.523c-0.649-0.029-1.443,0.598-1.694,0.841c-0.086,0.084-0.215,0.109-0.326,0.062c-0.111-0.047-0.183-0.156-0.183-0.276v-1.236h-8.194v1.236c0,0.121-0.072,0.229-0.183,0.276c-0.111,0.047-0.24,0.023-0.326-0.062c-0.25-0.244-1.043-0.871-1.695-0.841c-0.595,0.027-1.143-0.169-1.467-0.523c-0.191-0.21-0.403-0.582-0.323-1.165c0.007-0.05,0.027-0.098,0.057-0.139c0.109-0.146,0.207-0.379,0.177-0.471c-0.012-0.036-0.078-0.061-0.116-0.073c-0.115-0.035-0.254,0.092-0.308,0.148c-0.344,0.358-0.677,1.304-0.338,2.288C216.532,107.939,217.522,109.889,220.465,109.889z M227.663,105.826v-0.839c0-0.166,0.134-0.3,0.3-0.3c2.713,0,3.623-1.673,3.888-2.392c0.274-0.744,0.065-1.532-0.271-1.895c-0.112-0.12-0.226-0.178-0.306-0.155c-0.06,0.017-0.085,0.036-0.089,0.042c-0.017,0.048,0.052,0.225,0.156,0.356c0.034,0.042,0.055,0.091,0.063,0.144c0.058,0.398-0.038,0.75-0.279,1.017c-0.301,0.333-0.824,0.518-1.4,0.493c-0.597-0.025-1.328,0.514-1.56,0.724c-0.088,0.08-0.214,0.101-0.323,0.053s-0.179-0.156-0.179-0.275v-1.041h-5.606v1.041c0,0.119-0.07,0.227-0.179,0.275c-0.109,0.048-0.236,0.027-0.323-0.053c-0.23-0.21-0.96-0.749-1.56-0.724c-0.576,0.024-1.099-0.16-1.399-0.493c-0.241-0.267-0.337-0.619-0.279-1.017c0.008-0.053,0.029-0.103,0.063-0.144c0.092-0.115,0.175-0.304,0.156-0.356c-0.004-0.006-0.029-0.025-0.089-0.042c-0.08-0.023-0.194,0.035-0.306,0.155c-0.336,0.363-0.546,1.151-0.271,1.895c0.265,0.719,1.175,2.392,3.888,2.392c0.166,0,0.3,0.134,0.3,0.3v0.839H227.663z M219.919,96.386c-0.012-0.006-0.03-0.014-0.061-0.022c-0.081-0.022-0.199,0.041-0.307,0.163c-0.286,0.321-0.451,0.961-0.214,1.563c0.245,0.62,1.088,2.064,3.608,2.064c0.166,0,0.3,0.134,0.3,0.3v0.704h3.234v-0.703c0-0.166,0.134-0.3,0.3-0.3c2.521,0,3.363-1.444,3.608-2.064c0.238-0.602,0.072-1.242-0.214-1.563c-0.109-0.122-0.226-0.185-0.307-0.163c-0.031,0.008-0.049,0.016-0.061,0.022c0.003,0.053,0.064,0.174,0.132,0.254c0.036,0.042,0.06,0.094,0.069,0.149c0.054,0.347-0.029,0.657-0.242,0.896c-0.28,0.314-0.782,0.489-1.343,0.466c-0.668-0.027-1.441,0.62-1.448,0.627c-0.089,0.076-0.214,0.093-0.32,0.044s-0.174-0.155-0.174-0.272v-0.929h-3.234v0.929c0,0.117-0.068,0.223-0.174,0.272s-0.231,0.032-0.32-0.044c-0.008-0.007-0.78-0.654-1.448-0.627c-0.561,0.022-1.062-0.152-1.342-0.466c-0.213-0.239-0.296-0.548-0.242-0.896c0.009-0.054,0.033-0.106,0.068-0.148C219.856,96.56,219.917,96.439,219.919,96.386z M220.543,92.98c0.055-0.067,0.103-0.164,0.112-0.215c-0.008-0.004-0.008-0.007-0.033-0.013c-0.057-0.016-0.149,0.036-0.235,0.131c-0.264,0.292-0.419,0.885-0.201,1.451c0.22,0.573,0.977,1.905,3.243,1.905c0.166,0,0.3,0.134,0.3,0.3v0.482h2.264v-0.482c0-0.166,0.134-0.3,0.3-0.3c2.266,0,3.023-1.332,3.243-1.905c0.218-0.566,0.064-1.159-0.201-1.451c-0.086-0.095-0.178-0.147-0.235-0.131c-0.024,0.007-0.024,0.009-0.032,0.013c0.009,0.051,0.057,0.148,0.111,0.214c0.035,0.042,0.058,0.093,0.067,0.147c0.051,0.333-0.03,0.63-0.234,0.858c-0.261,0.291-0.721,0.453-1.231,0.432c-0.492-0.02-1.098,0.409-1.29,0.576c-0.089,0.078-0.214,0.096-0.321,0.047s-0.176-0.155-0.176-0.273v-1.748h-2.264v1.748c0,0.118-0.069,0.225-0.176,0.273c-0.107,0.049-0.233,0.03-0.321-0.047c-0.191-0.167-0.795-0.596-1.29-0.576c-0.51,0.021-0.97-0.141-1.231-0.432c-0.204-0.228-0.285-0.525-0.234-0.858c0.004-0.026,0.011-0.052,0.022-0.076C220.51,93.025,220.525,93.001,220.543,92.98z M222.839,89.014c0.116-0.069,0.222-0.166,0.282-0.24c-0.102-0.029-0.248-0.007-0.395,0.08c-0.273,0.16-0.565,0.524-0.565,1.064c0,1.362,0.268,1.699,0.427,1.779c0.022,0.011,0.027,0.013,0.045,0.022h0.522c0.166,0,0.3,0.134,0.3,0.3v0.4h2.811v-0.4c0-0.166,0.134-0.3,0.3-0.3h0.521c0.018-0.009,0.023-0.011,0.045-0.022c0.159-0.08,0.427-0.417,0.427-1.779c0-0.54-0.292-0.904-0.565-1.064c-0.147-0.087-0.294-0.109-0.395-0.08c0.059,0.073,0.161,0.166,0.263,0.229c0.046,0.023,0.442,0.245,0.204,0.956c-0.236,0.708-1.34,0.545-1.465,0.524c-0.079-0.013-0.149-0.057-0.196-0.123c-0.046-0.065-0.065-0.146-0.05-0.225c0.006-0.037,0.644-3.658,0.696-4.599c0.036-0.644-0.517-0.992-0.688-1.084h-1.005c-0.168,0.09-0.724,0.439-0.688,1.084c0.052,0.941,0.69,4.562,0.696,4.599c0.014,0.079-0.004,0.16-0.05,0.225c-0.046,0.065-0.116,0.109-0.196,0.123c-0.125,0.021-1.229,0.183-1.465-0.524C222.418,89.247,222.814,89.026,222.839,89.014z M215.37,128.951c0.166,0,0.3,0.134,0.3,0.3v1.478h18.383v-1.478c0-0.166,0.134-0.3,0.3-0.3c3.458,0,4.626-2.528,4.967-3.616c0.412-1.312-0.007-2.637-0.467-3.09c-0.073-0.072-0.214-0.186-0.337-0.146c-0.141,0.047-0.163,0.111-0.171,0.135c-0.059,0.175,0.094,0.523,0.216,0.704c0.027,0.039,0.044,0.085,0.05,0.132c0.094,0.749-0.172,1.214-0.412,1.472c-0.372,0.401-0.979,0.621-1.625,0.589c-0.767-0.038-1.705,0.775-2.002,1.091c-0.084,0.09-0.215,0.119-0.329,0.074c-0.115-0.045-0.19-0.156-0.19-0.279v-1.775H215.67v1.775c0,0.123-0.075,0.234-0.19,0.279s-0.245,0.016-0.329-0.074c-0.297-0.317-1.235-1.129-2.002-1.091c-0.646,0.032-1.253-0.188-1.625-0.589c-0.24-0.258-0.505-0.723-0.412-1.472c0.006-0.047,0.023-0.093,0.05-0.132c0.095-0.139,0.282-0.509,0.216-0.703c-0.008-0.024-0.03-0.089-0.172-0.136c-0.123-0.041-0.264,0.073-0.337,0.146c-0.461,0.453-0.88,1.779-0.467,3.09C210.745,126.422,211.913,128.951,215.37,128.951z" />
  <path fill="#0DB14B" d="M205.102,96.049c-1.01-1.111-3.938-2.524-4.948-1.818c-1.01,0.707-1.717,3.938-1.717,5.251c0,0.077,0.005,0.151,0.012,0.221c-0.692,0.368-1.556,0.895-2.498,1.493c-0.951-0.963-1.963-1.818-2.865-2.219c0,0-2.625,1.009-3.635,3.231c-0.876,1.926-1.068,3.395-1.103,3.752c-0.552,0.357-1.152,0.761-1.783,1.202c-0.111-0.152-0.226-0.291-0.345-0.41c-1.414-1.414-5.453-2.423-5.453-2.423c-2.928,2.019-2.726,5.453-2.524,6.463c0.077,0.384,0.651,1.061,1.421,1.751c-0.389,0.338-0.77,0.677-1.138,1.014c-1.426-0.917-3.615-1.553-3.615-1.553s-2.019,3.029-2.12,5.15c-0.039,0.819,0.286,1.545,0.835,2.131c-0.199,0.335-0.394,0.681-0.583,1.037c-1.54-0.474-3.08-0.846-3.08-0.846h-3.635c0,0-1.818,0.404-1.717,2.625c0.083,1.839,2.173,4.022,3.807,5.007c-0.162,0.006-0.321,0.019-0.475,0.042c-2.726,0.404-4.039,2.928-4.039,2.928s-1.111,2.322-0.101,4.241s4.847,2.323,4.847,2.323s0.542-0.173,1.273-0.425c0.059,0.367,0.124,0.704,0.195,1.013c-0.418,0.307-0.725,0.595-0.863,0.825c-0.606,1.01-2.423,3.332-1.414,4.645c1.01,1.313,7.069,0.909,7.573,0.505c0.505-0.404,1.918-2.12,1.918-3.938c0-1.817-1.312-4.342-1.312-4.342c-1.127,0-2.611,0.5-3.909,1.13c-0.032-0.205-0.064-0.406-0.096-0.606c0.883-0.352,1.634-0.703,1.784-0.928c0.404-0.606,1.212-2.625,1.212-3.635s-0.101-1.818-0.101-1.818s-1.132-0.619-2.602-1.163c0.017-0.109,0.034-0.218,0.052-0.327c1.366-0.194,2.743-0.558,3.458-0.833c1.313-0.505,2.221-3.736,2.221-3.736s-1.465-1.365-3.243-2.083c0.144-0.166,0.301-0.35,0.473-0.551c0.665,0.266,1.409,0.413,2.163,0.413c2.423,0,6.058-3.231,6.058-3.231s-2.038-1.495-3.44-2.701c0.355-0.393,0.713-0.782,1.07-1.165c0.947,0.65,1.922,1.14,2.571,1.14c1.616,0,4.746-2.726,4.746-2.726s-0.407-1.982-1.148-3.639c0.545-0.337,1.166-0.726,1.835-1.149c0.79,0.933,2.243,1.971,4.666,1.557c4.14-0.707,5.756-3.332,5.756-3.332s-1.131-1.62-2.603-3.279c0.844-0.552,1.577-1.034,2.142-1.405c0.243,0.181,0.461,0.241,0.461,0.241s2.221-0.303,4.342-0.303s3.433-1.212,3.433-1.212s-1.209-2.421-2.217-3.534L205.102,96.049z" />
  <path fill="#FFFFFF" stroke="#5087C6" stroke-width="0.6" stroke-linecap="round" stroke-linejoin="round" d="M203.074,93.415c0,0-1.163-1.489-2.279-1.07c-1.116,0.419-1.488,2.047-0.697,2.326s2.093-0.046,2.093-0.046s-0.977,1.256,0.232,1.814c1.209,0.558,1.861-0.093,1.861-0.093s-0.326,1.442,0.465,1.907s1.581,0.279,1.581,0.279s-0.465,2,1.116,1.954c1.582-0.047,2.419-1.954,1.675-2.791s-1.349-0.884-1.349-0.884s-0.139-1.582-0.977-1.954c-0.837-0.372-1.163-0.047-1.163-0.047s-0.138-2.229-2.556-1.392L203.074,93.415z M193.213,97.09c0.781-0.627,2.605,0.047,2.791,0.93c0.186,0.884,0.419,1.256,0.419,1.256s2.372-1.023,3.256,0.744c0.884,1.768,0.605,2.977,0.605,2.977s2.512,2,1.395,2.93c-1.116,0.93-3.07,0.605-3.814-0.465c-0.744-1.07-0.558-2.233-0.558-2.233s-1.768,0.279-2.605-0.744c-0.837-1.023-0.744-1.954-0.744-1.954s-4.05-0.792-0.747-3.444L193.213,97.09z M183.211,102.253c0,0-1.349,1.302-1.023,3.209s2.884,1.814,2.884,1.814s1.721,1.023,1.628,1.535c-0.093,0.512,0.558,2.186,0.93,2.279s1.442,0.186,1.442,0.186s2.744,1.116,3.163-0.14c0.419-1.256,0.419-2.512-0.791-3.07s-1.581-0.698-1.581-0.698s0.93-1.581-0.884-2.651s-3.349-0.884-3.349-0.884s0.42-2.418-2.418-1.581L183.211,102.253z M177.583,109.789c0,0,0.605-1.721-1.675-1.442c-2.279,0.279-2.326,3.023-1.768,4.326s2.419,1.442,3.302,1.442s1.628-0.047,1.628-0.047s-0.372,2.651,0.884,3.163c1.256,0.511,2.093,0.186,2.093,0.186s1.07,1.581,2.465,0.791c1.396-0.791,1.861-2.791,0.837-3.349c-1.023-0.558-2.279-0.558-2.279-0.558s0.511-2.326-1.581-3.023c-2.093-0.698-2.093-0.232-2.093-0.232s0.513-2.28-1.814-1.254L177.583,109.789L177.583,109.789z M176.606,120.022c0,0,2.558-0.14,2.512,1.535s-0.698,2.372-1.442,2.186c-0.744-0.186-1.907-1.023-1.907-1.023s-1.256,0.372-1.86-0.139c-0.604-0.512-1.349-1.768-1.349-1.768l-1.535-0.186c0,0-0.558,0.93-1.675,0.93s-1.814-1.209-1.814-1.209s-0.651,0.512-1.442,0.186s-2-2.605,0.744-2.93c2.744-0.326,0.186-1.814,1.814-1.721c1.628,0.093,1.768,0.837,1.768,0.837s1.395-1.674,3.116-0.419c1.721,1.256,1.442,3.163,1.442,3.163l1.628,0.561V120.022z M171.583,126.766c0,0,0.791-1.256,2.419-0.698s2.977,2.233,2.651,2.884s-2.372,1.442-3.163,0.977s-1.023-0.744-1.023-0.744s-0.745,1.07-1.582,0.791s-2.232-1.721-2.232-1.721s-0.838,2.558-2.744,2.651s-3.07-0.046-3.209-0.512s-0.046-1.535-0.046-1.535s-1.023-0.372-0.977-1.442c0.047-1.07,0.419-2.744,1.581-2.837c1.163-0.093,2.047,1.163,2.047,1.163s0.605,0.139,1.256,0.047c0.651-0.093,0.93-0.047,0.93-0.047s-0.186-1.209,0.931-1.302c1.116-0.093,2.278,0.237,3.162,2.331L171.583,126.766L171.583,126.766z M171.862,134.581c0,0,0.465-1.163,1.907-1.349s2.884,0.372,2.465,1.721c-0.418,1.349-1.488,2.465-1.768,2.465s-1.675,0-1.675,0l-1.303-0.093c0,0-0.186,2.977-1.023,3.488c-0.837,0.512-1.954,0.232-1.954,0.232s0.419,1.861-0.93,1.721c-1.349-0.139-3.581-1.721-2.791-3.163s2.651-2.093,2.651-2.093s-0.883-1.954,0.744-2.372c1.628-0.419,3.675-0.561,3.675-0.561v0.004H171.862z M176.652,139.231c0,0,1.349-1.954,2.884-0.977c1.535,0.977,1.581,2.372,1.581,2.372s-0.419,2-1.489,2.186c-1.07,0.186-2.326,0.186-2.326,0.186s2.372,1.256,2.465,2.233s-0.419,3.535-3.303,3.117c-2.884-0.418-4.93-0.419-4.605-2c0.326-1.582,1.581-1.861,1.581-1.861s-2.046-2,0.465-2.884c2.512-0.884,2.791-0.837,2.791-0.837S175.768,140.067,176.652,139.231L176.652,139.231z" />
  <path fill="#ED1A3A" d="M249.001,174.712h-5.08c-0.675,0-1.224,0.54-1.224,1.203v0.516h-3.272v-0.514v-0.002c0-0.664-0.549-1.203-1.224-1.203h-5.08c-0.675,0-1.224,0.54-1.224,1.203v0.516h-3.272v-0.514v-0.002c0-0.664-0.549-1.203-1.224-1.203h-5.08c-0.675,0-1.224,0.54-1.224,1.203v0.516h-3.272v-0.514v-0.002c0-0.664-0.549-1.203-1.224-1.203h-5.08c-0.675,0-1.224,0.54-1.224,1.203v0.516h-3.272v-0.514v-0.002c0-0.664-0.549-1.203-1.224-1.203h-5.08c-0.675,0-1.224,0.54-1.224,1.203v2.233c0,0.664,0.549,1.204,1.224,1.204h5.08c0.675,0,1.224-0.54,1.224-1.204v-0.517h3.272v0.517c0,0.664,0.549,1.204,1.224,1.204h5.08c0.675,0,1.224-0.54,1.224-1.204v-0.517h3.272v0.517c0,0.664,0.549,1.204,1.224,1.204h5.08c0.675,0,1.224-0.54,1.224-1.204v-0.517h3.272v0.517c0,0.664,0.549,1.204,1.224,1.204h5.08c0.675,0,1.224-0.54,1.224-1.204v-0.517h3.272v0.517c0,0.664,0.549,1.204,1.224,1.204h5.08c0.675,0,1.224-0.54,1.224-1.204v-2.231v-0.002C250.224,175.251,249.676,174.712,249.001,174.712z M205.825,178.144c-0.001,0.001-0.006,0.009-0.024,0.009h-5.08c-0.018,0-0.023-0.008-0.024-0.009v-2.222c0.001-0.001,0.006-0.009,0.024-0.009h5.08c0.018,0,0.023,0.008,0.024,0.009v0.509h-0.237c-0.331,0-0.6,0.269-0.6,0.6c0,0.331,0.267,0.6,0.6,0.6h0.237V178.144z M216.625,178.144c-0.001,0.001-0.006,0.009-0.024,0.009h-5.08c-0.018,0-0.023-0.008-0.024-0.009v-0.513h0.087c0.331,0,0.6-0.269,0.6-0.6c0-0.331-0.269-0.6-0.6-0.6h-0.087v-0.509c0.001-0.001,0.006-0.009,0.024-0.009h5.08c0.018,0,0.023,0.008,0.024,0.009v0.509h-0.237c-0.331,0-0.6,0.269-0.6,0.6c0,0.331,0.267,0.6,0.6,0.6h0.237V178.144z M227.424,178.144c-0.001,0.001-0.006,0.009-0.024,0.009h-5.08c-0.018,0-0.023-0.008-0.024-0.009v-0.513h0.087c0.331,0,0.6-0.269,0.6-0.6c0-0.331-0.269-0.6-0.6-0.6h-0.087v-0.509c0.001-0.001,0.006-0.009,0.024-0.009h5.08c0.018,0,0.023,0.008,0.024,0.009v0.509h-0.237c-0.331,0-0.6,0.269-0.6,0.6c0,0.331,0.267,0.6,0.6,0.6h0.237V178.144z M238.224,178.144c-0.001,0.001-0.006,0.009-0.024,0.009h-5.08c-0.018,0-0.023-0.008-0.024-0.009v-0.513h0.087c0.331,0,0.6-0.269,0.6-0.6c0-0.331-0.269-0.6-0.6-0.6h-0.087v-0.509c0.001-0.001,0.006-0.009,0.024-0.009h5.08c0.018,0,0.023,0.008,0.024,0.009v0.509h-0.237c-0.331,0-0.6,0.269-0.6,0.6c0,0.331,0.267,0.6,0.6,0.6h0.237V178.144z M243.921,178.153c-0.018,0-0.023-0.008-0.024-0.009v-0.513h0.087c0.331,0,0.6-0.269,0.6-0.6c0-0.331-0.269-0.6-0.6-0.6h-0.087v-0.509c0.001-0.001,0.006-0.009,0.024-0.009h5.08c0.018,0,0.023,0.008,0.024,0.009v2.222c-0.001,0.001-0.006,0.009-0.024,0.009L243.921,178.153L243.921,178.153z M188.569,174.712h-5.08c-0.675,0-1.224,0.54-1.224,1.203v0.516h-3.421v-0.514v-0.002c0-0.664-0.549-1.203-1.224-1.203h-5.08c-0.675,0-1.224,0.54-1.224,1.203v0.516h-2.586l0.395,1.2h2.191v0.517c0,0.664,0.549,1.204,1.224,1.204h5.08c0.675,0,1.224-0.54,1.224-1.204v-0.517h3.421v0.517c0,0.664,0.549,1.204,1.224,1.204h5.08c0.675,0,1.224-0.54,1.224-1.204v-2.231v-0.002C189.793,175.251,189.244,174.712,188.569,174.712z M177.643,178.144c-0.001,0.001-0.006,0.009-0.024,0.009h-5.08c-0.018,0-0.023-0.008-0.024-0.009v-0.513h0.085c0.331,0,0.6-0.269,0.6-0.6c0-0.331-0.269-0.6-0.6-0.6h-0.085v-0.509c0.001-0.001,0.006-0.009,0.024-0.009h5.08c0.018,0,0.023,0.008,0.024,0.009v0.509h-0.088c-0.331,0-0.6,0.269-0.6,0.6c0,0.331,0.269,0.6,0.6,0.6h0.088V178.144z M183.489,178.153c-0.018,0-0.023-0.008-0.024-0.009v-0.513h0.086c0.331,0,0.6-0.269,0.6-0.6c0-0.331-0.269-0.6-0.6-0.6h-0.086v-0.509c0.001-0.001,0.006-0.009,0.024-0.009h5.08c0.018,0,0.023,0.008,0.024,0.009v2.222c-0.001,0.001-0.006,0.009-0.024,0.009L183.489,178.153L183.489,178.153z M280.994,176.431h-2.586v-0.514c0-0.664-0.549-1.203-1.224-1.203h-5.08c-0.675,0-1.224,0.54-1.224,1.203v0.514h-3.422v-0.514c0-0.664-0.549-1.203-1.224-1.203h-5.08c-0.675,0-1.224,0.54-1.224,1.203v2.231v0.002c0,0.664,0.549,1.204,1.224,1.204h5.08c0.675,0,1.224-0.54,1.224-1.204v-0.519h3.422v0.517v0.002c0,0.664,0.549,1.204,1.224,1.204h5.08c0.675,0,1.224-0.54,1.224-1.204v-0.519h2.191L280.994,176.431z M266.257,178.143c-0.001,0.001-0.006,0.009-0.024,0.009h-5.08c-0.018,0-0.023-0.008-0.024-0.009v-2.222c0.001-0.001,0.006-0.009,0.024-0.009h5.08c0.018,0,0.023,0.008,0.024,0.009v0.51h-0.084c-0.331,0-0.6,0.269-0.6,0.6c0,0.331,0.269,0.6,0.6,0.6h0.084V178.143z M277.207,178.143c-0.001,0.001-0.006,0.009-0.024,0.009h-5.08c-0.018,0-0.023-0.008-0.024-0.009v-0.512h0.09c0.33,0,0.6-0.269,0.6-0.6c0-0.331-0.269-0.6-0.6-0.6h-0.09v-0.51c0.001-0.001,0.006-0.009,0.024-0.009h5.08c0.018,0,0.023,0.008,0.024,0.009v0.51h-0.082c-0.333,0-0.603,0.269-0.603,0.6c0,0.331,0.269,0.6,0.6,0.6h0.085V178.143z" />
  <path fill="#5087C6" d="M193.992,203.959c-0.333-0.476-1.381-1.885-2.412-2.336c-0.977-0.428-3.151-0.243-4.034-0.145c-0.274-0.695-0.977-2.251-2.022-2.948c-0.956-0.637-2.266-0.417-3.043-0.195c-0.013-0.634-0.128-1.604-0.624-2.506c-0.602-1.095-1.967-1.345-2.803-1.392c0.179-0.574,0.349-1.45,0.121-2.318c-0.285-1.084-1.552-1.658-2.353-1.919c0.394-0.634,0.881-1.693,0.496-2.63c-0.359-0.872-1.306-1.548-1.919-1.913c0.467-0.523,1.12-1.44,1.068-2.432c-0.068-1.28-1.447-1.935-2.038-2.157c-0.003-0.048-0.004-0.077-0.004-0.082c-0.001-0.042-0.01-0.081-0.022-0.119h-0.854c-0.016,0.048-0.025,0.099-0.023,0.153c0.019,0.502,0.555,12.349,8.205,18.307c6.805,5.299,12.381,5.592,13.073,5.607v-0.901c-0.123-0.003-0.402-0.018-0.813-0.072L193.992,203.959z M174.517,182.093L174.517,182.093c0.46,0.232,1.023,0.627,1.052,1.181c0.029,0.538-0.302,1.115-0.642,1.549C174.713,183.71,174.589,182.765,174.517,182.093z M176.184,189.505c-0.344-0.974-0.622-1.926-0.845-2.819c0.467,0.326,0.957,0.76,1.149,1.226C176.68,188.38,176.454,189.01,176.184,189.505z M178.254,193.963c-0.549-0.914-1.02-1.857-1.424-2.799c0.625,0.245,1.333,0.645,1.476,1.185C178.455,192.916,178.372,193.513,178.254,193.963z M179.168,195.348l-0.002-0.002c0.686,0.062,1.557,0.286,1.903,0.916c0.33,0.601,0.455,1.249,0.496,1.756C180.656,197.211,179.861,196.308,179.168,195.348z M182.973,199.135c0.655-0.154,1.5-0.226,2.053,0.143c0.679,0.453,1.211,1.445,1.515,2.127C185.413,200.799,184.214,200.052,182.973,199.135z M188.378,202.306h0.002c1.003-0.075,2.284-0.101,2.84,0.142c0.476,0.208,1.026,0.766,1.461,1.283C191.57,203.491,190.094,203.065,188.378,202.306z M191.344,181.452v0.001V181.452L191.344,181.452z M191.344,181.453l7.125,7.536c0,0-3.7,0.617-5.96-1.576C190.384,185.352,191.341,181.465,191.344,181.453z M198.537,190.43l1.371,5.343c0,0-1.016,0.127-2.53,0.086l-0.356-5.295C197.936,190.56,198.538,190.429,198.537,190.43L198.537,190.43z M194.102,190.097c0.6,0.205,1.186,0.327,1.726,0.394l-0.447,5.221c-0.673-0.081-1.386-0.201-2.113-0.374l-0.002-0.002L194.102,190.097z M188.596,193.315c0,0,0.001,0,0.001,0.001l0,0L188.596,193.315z M191.855,188.879c0.363,0.287,0.736,0.528,1.112,0.728l-1.649,5.136c-0.939-0.357-1.864-0.822-2.721-1.427L191.855,188.879z M183.646,184.164c-0.178-1.214-0.179-2.025-0.179-2.025l6.029-0.548h0.002c0,0-0.021,0.492,0.012,1.224L183.646,184.164z M189.604,184l-0.001,0.002c0.048,0.417,0.117,0.861,0.213,1.302l-4.959,3.228c-0.343-0.794-0.602-1.584-0.797-2.326L189.604,184z M185.845,190.404l4.32-3.863l0.001-0.001c0.21,0.573,0.48,1.104,0.831,1.53l-3.924,3.918C186.605,191.49,186.199,190.957,185.845,190.404z M203.431,199.081l-1.827-0.432c0.321-0.575,0.694-1.15,1.12-1.664c0.72,0.273,1.878,0.743,2.725,1.243c-0.094,0.029-0.187,0.058-0.282,0.088l0.001-0.003C204.574,198.502,203.989,198.769,203.431,199.081z M206.763,197.836c-0.743-0.631-2.37-1.197-3.418-1.516c0.607-0.567,1.299-0.983,2.076-1.114c2.893-0.487,4.213,1.279,4.576,1.887v0.003C209.164,197.221,208.047,197.476,206.763,197.836z M206.508,199.197c0.449,0.908,0.406,2.455,0.349,3.226c-0.111,0.036-0.223,0.071-0.336,0.101c-0.579,0.156-1.268,0.206-1.976,0.194v-1.072c0-0.308-0.081-0.894-0.162-1.408c0.268-0.152,0.541-0.305,0.821-0.458l-0.001,0.002C205.611,199.56,206.049,199.368,206.508,199.197z M202.417,199.704c-0.76,0.509-1.439,1.058-1.981,1.534c0.186-0.515,0.465-1.214,0.835-1.956v-0.001L202.417,199.704z M210.469,198.902c0.201,1.029-0.915,2.274-2.505,3.069c0.006-0.036,0.013-0.068,0.019-0.106c0.081-0.513,0.001-1.899-0.485-2.989c1.018-0.289,2.036-0.468,2.852-0.578c0.036,0.172,0.076,0.37,0.121,0.602L210.469,198.902z M200.997,202.279h0.001l-0.001,0.001V202.279z M203.799,202.685c-1.069-0.077-2.107-0.261-2.8-0.405c0.579-0.369,1.493-0.942,2.585-1.58L203.799,202.685z M276.174,180.868h-0.854c-0.012,0.038-0.021,0.077-0.023,0.119c0,0.005-0.002,0.034-0.004,0.082c-0.59,0.222-1.97,0.877-2.038,2.157c-0.052,0.992,0.602,1.908,1.068,2.432c-0.613,0.365-1.56,1.04-1.919,1.913c-0.385,0.936,0.102,1.996,0.496,2.63c-0.8,0.261-2.068,0.836-2.353,1.919c-0.228,0.868-0.057,1.743,0.121,2.318c-0.836,0.047-2.201,0.297-2.803,1.392c-0.496,0.902-0.611,1.872-0.624,2.506c-0.777-0.222-2.087-0.442-3.043,0.195c-1.046,0.697-1.749,2.253-2.022,2.948c-0.883-0.098-3.057-0.283-4.034,0.145c-1.031,0.451-2.079,1.86-2.412,2.336c-0.417,0.048-0.696,0.063-0.816,0.069l0.005,0.006v0.901c0.692-0.015,6.268-0.307,13.073-5.607c7.65-5.958,8.185-17.806,8.205-18.307C276.199,180.967,276.19,180.916,276.174,180.868z M257.041,203.73c0.434-0.517,0.984-1.075,1.46-1.283c0.556-0.243,1.836-0.217,2.84-0.142C259.626,203.064,258.151,203.49,257.041,203.73z M263.182,201.408v-0.002c0.304-0.681,0.836-1.674,1.515-2.127c0.554-0.369,1.4-0.296,2.056-0.143C265.51,200.055,264.31,200.802,263.182,201.408z M268.16,198.017l-0.002,0.002c0.042-0.506,0.166-1.155,0.496-1.756c0.346-0.63,1.217-0.854,1.903-0.916C269.864,196.304,269.069,197.207,268.16,198.017z M271.468,193.963c-0.117-0.45-0.201-1.047-0.051-1.614h-0.001c0.142-0.54,0.851-0.94,1.476-1.185C272.488,192.106,272.017,193.049,271.468,193.963z M273.538,189.505c-0.27-0.495-0.495-1.125-0.303-1.593h-0.001c0.192-0.466,0.682-0.901,1.149-1.226C274.16,187.579,273.882,188.531,273.538,189.505z M274.793,184.82c-0.339-0.435-0.669-1.01-0.641-1.547c0.029-0.554,0.592-0.949,1.052-1.181C275.132,182.763,275.009,183.708,274.793,184.82z M258.379,181.453L258.379,181.453L258.379,181.453L258.379,181.453z M251.254,188.989l7.125-7.536c0.003,0.011,0.96,3.899-1.164,5.96C254.953,189.606,251.254,188.989,251.254,188.989z M260.213,182.815c0.033-0.732,0.012-1.224,0.015-1.224l6.029,0.548c0,0-0.001,0.811-0.179,2.025l-5.863-1.349H260.213z M257.867,188.88l3.258,4.437c-0.857,0.606-1.783,1.071-2.722,1.428l-1.649-5.136C257.131,189.409,257.504,189.168,257.867,188.88L257.867,188.88z M262.648,191.989l-3.924-3.918l0.001,0.001c0.354-0.426,0.624-0.957,0.831-1.53l4.32,3.863C263.521,190.957,263.115,191.491,262.648,191.989z M264.865,188.53l-4.959-3.228l0.002,0.001c0.096-0.441,0.165-0.885,0.21-1.305l5.544,2.206C265.467,186.946,265.208,187.737,264.865,188.53z M256.457,195.336c-0.728,0.173-1.44,0.293-2.114,0.374l-0.447-5.221c0.54-0.067,1.126-0.189,1.726-0.394l0.001,0.002L256.457,195.336z M251.184,190.428c0,0,0.602,0.131,1.515,0.134l-0.356,5.295c-1.514,0.041-2.53-0.086-2.53-0.086l-0.001-0.001L251.184,190.428z M246.138,200.697c1.092,0.639,2.007,1.212,2.586,1.581c-0.693,0.144-1.732,0.329-2.801,0.406l0.215-1.985V200.697z M247.306,199.702L247.306,199.702L247.306,199.702L247.306,199.702z M241.755,201.973v-0.001C241.756,201.972,241.756,201.972,241.755,201.973L241.755,201.973z M248.452,199.28c0.37,0.742,0.649,1.441,0.835,1.956c-0.542-0.476-1.22-1.025-1.98-1.534L248.452,199.28z M242.958,197.833c-1.284-0.363-2.4-0.618-3.234-0.741c0.363-0.607,1.683-2.374,4.576-1.887c0.777,0.131,1.469,0.547,2.076,1.114c-1.048,0.319-2.674,0.886-3.418,1.516L242.958,197.833L242.958,197.833z M242.222,198.879c-0.486,1.09-0.566,2.476-0.485,2.989c0.006,0.037,0.012,0.07,0.018,0.104c-1.59-0.798-2.705-2.043-2.507-3.068c0.045-0.232,0.085-0.43,0.121-0.602C240.185,198.411,241.203,198.59,242.222,198.879z M244.518,199.781c0.28,0.153,0.553,0.307,0.821,0.458c-0.081,0.514-0.162,1.1-0.162,1.408v1.072c-0.708,0.013-1.397-0.038-1.976-0.194c-0.113-0.031-0.225-0.066-0.336-0.101c-0.056-0.771-0.1-2.318,0.349-3.226l-0.001-0.002C243.672,199.364,244.113,199.556,244.518,199.781z M244.273,198.228c0.847-0.5,2.005-0.97,2.725-1.243c0.426,0.514,0.799,1.089,1.121,1.664l-1.827,0.432l-0.002,0.003c-0.558-0.309-1.143-0.576-1.734-0.768C244.46,198.285,244.367,198.257,244.273,198.228z" />
  <path fill="#ED1A3A" d="M224.785,204.892c0,0-1.955-2.932-1.698-3.755c0.257-0.824,1.441-0.308,1.441-0.308l0.309,1.492l0.36-1.492c0,0,1.183-0.515,1.441,0.308c0.257,0.823-1.698,3.755-1.698,3.755H224.785L224.785,204.892z M223.345,199.132c0,0-1.286-1.183-1.389-2.624c-0.103-1.44-1.132-4.167-1.852-4.835c-0.72-0.669-1.801-1.183-1.801-1.183s0.926,1.492,0.514,2.315s0.257,3.755,1.389,4.887C221.338,198.824,222.571,199.234,223.345,199.132z M219.949,198.823c0,0-0.72-0.051-1.904-1.594c-1.183-1.543-0.978-3.344-3.138-3.858s-3.858-0.154-3.858-0.154s3.087,0.823,3.55,2.572s1.903,3.138,2.829,3.292c0.926,0.155,2.523-0.258,2.523-0.258L219.949,198.823z M221.236,200.521c0,0-2.983,2.161-4.27,2.469c-1.286,0.308-2.315-0.154-3.704,0.308c-1.389,0.463-2.109,0.566-2.109,0.566s2.932-3.537,4.27-4.154C216.76,199.093,220.72,200.16,221.236,200.521L221.236,200.521z M221.902,200.779l0.771,0.052c0,0-0.257,0.978-0.103,1.389c0.154,0.411,0.36,0.514,0.36,0.514s-1.183,0.257-1.594,0.463c-0.412,0.206-0.874,0.823-0.874,0.823s-0.103-0.926-0.36-1.183s-0.514-0.463-0.514-0.463S221.749,201.084,221.902,200.779L221.902,200.779z M215.986,191.209c0,0,1.235,1.441,1.594,1.749c0.36,0.308,0.617,0.515,0.617,0.515s0,1.234,0.412,2.315c0.412,1.08,1.646,2.418,1.646,2.418s-1.749-0.566-2.83-2.983l-0.669-1.492l-1.132-0.875c-0.003-0.003,0.615-0.93,0.357-1.65L215.986,191.209z M210.946,194.245c0,0,2.881,0.566,3.19,1.389c0.308,0.823,0.771,2.418,1.543,2.932s0.772,0.515,0.772,0.515s-1.646-0.412-2.161-1.081s-1.389-2.315-1.852-2.675C211.975,194.965,210.946,194.245,210.946,194.245L210.946,194.245z M221.646,193.009c0,0,0.412-0.977,0.412-1.389s-0.154-0.874-0.154-0.874s1.286,1.183,1.337,1.697c0.052,0.514,0.052,0.72,0.052,0.72l-0.926,1.955c0.003-0.003-0.357-1.596-0.717-2.112L221.646,193.009z M225.043,199.492c0,0,2.161-0.824,2.006-2.984c-0.154-2.16-2.109-5.247-2.109-5.247h-0.155c0,0-1.955,3.087-2.109,5.247c-0.154,2.16,2.006,2.984,2.006,2.984h0.359H225.043z M226.378,199.132c0,0,1.286-1.183,1.389-2.624c0.103-1.44,1.132-4.167,1.852-4.835c0.72-0.669,1.801-1.183,1.801-1.183s-0.926,1.492-0.515,2.315c0.412,0.823-0.257,3.755-1.389,4.887c-1.132,1.132-2.361,1.542-3.135,1.44H226.378z M229.774,198.823c0,0,0.72-0.051,1.904-1.594c1.183-1.543,0.978-3.344,3.138-3.858s3.858-0.154,3.858-0.154s-3.087,0.823-3.55,2.572c-0.463,1.749-1.903,3.138-2.829,3.292C231.368,199.235,229.774,198.822,229.774,198.823L229.774,198.823z M228.49,200.521c0,0,2.983,2.161,4.27,2.469c1.286,0.308,2.315-0.154,3.704,0.308c1.389,0.463,2.109,0.566,2.109,0.566s-2.932-3.537-4.27-4.154C232.965,199.093,229.002,200.16,228.49,200.521L228.49,200.521z M227.821,200.779l-0.771,0.052c0,0,0.257,0.978,0.103,1.389s-0.36,0.514-0.36,0.514s1.183,0.257,1.594,0.463c0.412,0.206,0.874,0.823,0.874,0.823s0.103-0.926,0.36-1.183s0.514-0.463,0.514-0.463s-2.166-1.29-2.319-1.596L227.821,200.779z M233.737,191.209c0,0-1.234,1.441-1.594,1.749s-0.617,0.515-0.617,0.515s0,1.234-0.412,2.315c-0.412,1.08-1.646,2.418-1.646,2.418s1.749-0.566,2.83-2.983l0.669-1.492l1.132-0.875c0-0.003-0.618-0.93-0.36-1.65L233.737,191.209z M238.777,194.245c0,0-2.881,0.566-3.19,1.389c-0.308,0.823-0.771,2.418-1.543,2.932s-0.772,0.515-0.772,0.515s1.646-0.412,2.161-1.081s1.389-2.315,1.852-2.675C237.748,194.965,238.776,194.245,238.777,194.245L238.777,194.245z M228.076,193.009c0,0-0.412-0.977-0.412-1.389s0.154-0.874,0.154-0.874s-1.286,1.183-1.337,1.697c-0.052,0.514-0.052,0.72-0.052,0.72l0.926,1.955c0-0.003,0.36-1.596,0.72-2.112v0.003H228.076z" />
  <path fill="#FFFFFF" stroke="#5087C6" stroke-width="0.6" stroke-linecap="round" stroke-linejoin="round" d="M225.448,190.045c13.905,0,18.443,4.538,18.443,4.538s5.708-3.659,11.27-9.075s7.611-11.124,7.611-11.124h-10.246c0,0-3.367,5.416-6.294,7.904c-2.927,2.489-4.244,3.22-4.244,3.22s-5.562-3.659-15.955-3.659h-2.342c-10.392,0-15.955,3.659-15.955,3.659s-1.317-0.732-4.244-3.22s-6.294-7.904-6.294-7.904h-10.246c0,0,2.049,5.709,7.611,11.124c5.562,5.416,11.27,9.075,11.27,9.075s4.538-4.538,18.443-4.538h1.166H225.448z" />
  <path fill="#231F20" d="M192.394,180.634l3.445-3.469l1.343,1.333c0.275,0.273,0.405,0.572,0.391,0.898c-0.016,0.305-0.148,0.583-0.398,0.834c-0.138,0.139-0.288,0.239-0.451,0.301c-0.219,0.084-0.444,0.091-0.677,0.019c0.085,0.232,0.124,0.424,0.118,0.578c-0.015,0.285-0.151,0.556-0.406,0.814c-0.291,0.293-0.617,0.445-0.978,0.458c-0.391,0.014-0.749-0.14-1.075-0.464l-1.311-1.299L192.394,180.634z M194.41,179.428l-1.206,1.214l0.878,0.872c0.212,0.211,0.428,0.315,0.647,0.312c0.219-0.002,0.427-0.104,0.625-0.302c0.217-0.218,0.297-0.452,0.24-0.7c-0.045-0.192-0.17-0.389-0.374-0.591l-0.81-0.807L194.41,179.428z M195.85,177.976l-1.06,1.068l0.743,0.738c0.209,0.208,0.405,0.322,0.587,0.344c0.203,0.022,0.405-0.068,0.606-0.271c0.166-0.167,0.242-0.344,0.228-0.527c-0.014-0.184-0.133-0.387-0.357-0.609l-0.75-0.744L195.85,177.976z M198.157,184.351l-1.219-1.211l-1.325,0.694l-0.427-0.425l4.592-2.33l0.467,0.464l-2.341,4.566l-0.45-0.447l0.702-1.308L198.157,184.351z M197.473,182.845l0.947,0.94l1.063-1.969l-2.007,1.032L197.473,182.845z M202.351,183.634l-3.032,3.053l1.546,1.535l-0.413,0.416l-1.958-1.945l3.445-3.469l0.417,0.405L202.351,183.634z M204.988,186.253l-3.445,3.469l-0.412-0.41l3.445-3.469l0.411,0.408L204.988,186.253z M245.424,189.535l0.391-0.379l0.237,0.244c0.196,0.202,0.381,0.31,0.556,0.324c0.157,0.013,0.311-0.055,0.463-0.203c0.18-0.175,0.256-0.358,0.225-0.551c-0.026-0.164-0.132-0.343-0.319-0.535l-2.512-2.591l0.417-0.405l2.485,2.562c0.36,0.372,0.531,0.74,0.513,1.106c-0.016,0.294-0.147,0.56-0.393,0.799c-0.318,0.308-0.654,0.432-1.009,0.37c-0.266-0.045-0.506-0.177-0.718-0.396l-0.333-0.345H245.424z M249.871,185.428l-1.234,1.197l0.669,1.338l-0.433,0.418l-2.243-4.635l0.473-0.458l4.521,2.426l-0.456,0.442L249.871,185.428L249.871,185.428z M248.356,186.082l0.957-0.929l-1.949-1.099L248.356,186.082L248.356,186.082z M252.166,182.446l1.369,1.412l-0.417,0.405l-1.369-1.412l-3.198-0.968l0.485-0.47l2.521,0.827l-0.749-2.545l0.488-0.475l0.873,3.225L252.166,182.446z M256.035,179.452l-1.234,1.197l0.669,1.338l-0.433,0.419l-2.244-4.635l0.473-0.458l4.521,2.426l-0.456,0.442l-1.299-0.729L256.035,179.452z M254.518,180.106l0.957-0.929l-1.949-1.099L254.518,180.106L254.518,180.106z M212.938,189.763l-0.922-4.8l1.711-0.329c0.541-0.104,1.014,0.027,1.418,0.393c0.404,0.366,0.673,0.899,0.807,1.599c0.126,0.655,0.105,1.225-0.062,1.71c-0.211,0.613-0.632,0.981-1.264,1.102l-1.689,0.327L212.938,189.763z M212.692,185.407l0.71,3.694l1.106-0.212c0.376-0.072,0.643-0.293,0.8-0.66s0.178-0.85,0.063-1.448c-0.114-0.593-0.313-1.023-0.596-1.291c-0.283-0.267-0.623-0.363-1.019-0.286l-1.062,0.204L212.692,185.407z M219.721,188.746l-0.609,0.039l-1.428-4.808l0.625-0.039l1.054,3.913l0.722-4.027l0.633-0.04l1.214,3.908l0.56-4.021l0.64-0.041l-0.819,4.952l-0.609,0.039l-1.237-3.983L219.721,188.746L219.721,188.746z M225.94,183.691l-0.076,4.889l-0.581-0.009l0.076-4.889L225.94,183.691L225.94,183.691z M228.847,186.631l-0.159,2.058l-0.581-0.045l0.377-4.875l1.929,0.149c0.39,0.03,0.69,0.182,0.899,0.455c0.209,0.274,0.298,0.611,0.267,1.014c-0.03,0.389-0.151,0.708-0.362,0.956c-0.251,0.295-0.592,0.426-1.021,0.392L228.847,186.631L228.847,186.631z M229.024,184.375l-0.131,1.692l1.153,0.089c0.279,0.021,0.494-0.026,0.648-0.142c0.17-0.128,0.268-0.351,0.292-0.668c0.023-0.29-0.043-0.509-0.195-0.658c-0.134-0.129-0.331-0.203-0.59-0.223l-1.173-0.093L229.024,184.375z M235.828,188.137l-1.701-0.296l-0.688,1.324l-0.588-0.102l2.431-4.537l0.649,0.113l0.695,5.081L236,189.611l-0.174-1.476L235.828,188.137z M234.403,187.297l1.312,0.229l-0.256-2.221L234.403,187.297L234.403,187.297z" />
  <path fill="#F2C008" stroke="#5087C6" stroke-width="0.6" stroke-linecap="round" stroke-linejoin="round" d="M232.606,135.187c-0.669-1.114-2.228-0.78-2.562-0.613c-0.064,0.032-0.139,0.051-0.219,0.065c0.102-0.517,0.174-1.081,0.19-1.688c0,0-0.475,0.27-0.969,0.783c-0.094-0.184-0.407-0.709-0.958-0.854c-0.671-0.177-1.978-0.141-1.978-0.141s0.06-0.104-0.177-0.459c-0.212-0.318-0.918-0.459-0.918-0.459h-0.353c0,0-0.706,0.141-0.918,0.459c-0.237,0.355-0.177,0.459-0.177,0.459s-1.307-0.035-1.978,0.141c-0.498,0.131-0.802,0.574-0.925,0.793c-0.473-0.475-0.911-0.722-0.911-0.722c0.016,0.61,0.089,1.177,0.192,1.696c-0.097-0.014-0.188-0.036-0.263-0.074c-0.335-0.167-1.894-0.502-2.563,0.613c-0.669,1.114-0.947,3.398,0.502,4.067c1.448,0.668,2.173-0.223,2.173-0.669s-0.056-1.838-0.835-1.783s-0.724,0.334-0.669,0.669s0.39,0.39,0.39,0.39s-1.003-0.111-0.557-1.003c0.446-0.891,1.727-0.334,2.006,0.167c0.279,0.501,0,1.783,0.334,2.284c0.334,0.501,1.448,0.613,1.671,0.891c0.223,0.279,0.112,1.838,0.724,1.838l1.526,0.5h0.9l1.586-0.5c0.613,0,0.502-1.56,0.724-1.838c0.223-0.279,1.337-0.39,1.672-0.891c0.334-0.501,0.056-1.783,0.334-2.284c0.279-0.501,1.56-1.058,2.006-0.167c0.446,0.891-0.557,1.003-0.557,1.003s0.335-0.056,0.39-0.39s0.111-0.613-0.669-0.669s-0.836,1.337-0.836,1.783s0.724,1.337,2.173,0.669s1.173-2.952,0.504-4.065L232.606,135.187z M222.766,135.386c0.522,0,0.945,0.396,0.945,0.883s-0.423,0.883-0.945,0.883s-0.945-0.396-0.945-0.883S222.244,135.386,222.766,135.386z M226.957,135.386c0.522,0,0.945,0.396,0.945,0.883s-0.423,0.883-0.945,0.883s-0.945-0.396-0.945-0.883S226.435,135.386,226.957,135.386z" />
  <path fill="#F2C008" stroke="#5087C6" stroke-width="0.6" stroke-linecap="round" stroke-linejoin="round" d="M228.205,137.596c-0.947,0.231-1.169,1.384-1.169,1.384c-0.038,0.099-0.062,0.188-0.08,0.271c-0.041,0.025-0.097,0.055-0.168,0.086c-0.188-0.432-0.644-0.141-0.644,0.104c0,0-0.004,0.037-0.007,0.095c-0.045,0.009-0.095,0.018-0.144,0.026c-0.045-0.099-0.121-0.169-0.212-0.169h-0.218c-0.112,0-0.205,0.101-0.239,0.239c-0.013,0.001-0.027,0.001-0.041,0.002c-0.038-0.127-0.13-0.217-0.236-0.217h-0.339c-0.106,0-0.197,0.089-0.235,0.215c-0.024-0.001-0.048-0.003-0.072-0.005c-0.035-0.136-0.127-0.234-0.238-0.234h-0.218c-0.084,0-0.155,0.06-0.202,0.146c-0.055-0.011-0.108-0.023-0.158-0.035c-0.003-0.04-0.005-0.063-0.005-0.063c0-0.232-0.413-0.508-0.615-0.165c-0.104-0.055-0.178-0.104-0.225-0.141c-0.015-0.05-0.029-0.101-0.051-0.156c0,0-0.223-1.154-1.17-1.384c-0.947-0.231-1.226,1.154-1.226,1.154s0.892-1.231,1.281,0c0.39,1.231,0.502,1.461,0.502,1.461s0.273-0.021,0.483-0.191c0.06,0.046,0.144,0.106,0.253,0.174c-0.215,1-1.182,2.094-1.182,2.094s0.669,0,1.393-0.615c0.309-0.262,0.455-0.707,0.522-1.13c0.051,0.018,0.104,0.036,0.158,0.052c0.03,0.149,0.124,0.261,0.242,0.261h0.218c0.075,0,0.141-0.046,0.187-0.118c0.035,0.005,0.071,0.007,0.106,0.011c0.011,0.18,0.118,0.322,0.251,0.322h0.339c0.132,0,0.237-0.14,0.25-0.317c0.028-0.003,0.055-0.005,0.082-0.008c0.046,0.067,0.111,0.109,0.184,0.109h0.218c0.11,0,0.202-0.099,0.238-0.235c0.057-0.016,0.113-0.033,0.167-0.051c0.069,0.415,0.214,0.846,0.517,1.103c0.724,0.615,1.393,0.615,1.393,0.615s-0.945-1.068-1.175-2.057c0.121-0.074,0.213-0.141,0.274-0.19c0.206,0.151,0.456,0.17,0.456,0.17s0.111-0.231,0.501-1.461c0.39-1.231,1.281,0,1.281,0s-0.264-1.395-1.212-1.164L228.205,137.596z M225.697,137.881v0.312c0,0.156,0.669,0,0.78-0.312s-0.334-0.833-0.724-0.833s-0.167-0.469-0.056-0.938c0.111-0.469-0.446-0.573-0.446-0.573h-0.781c0,0-0.557,0.104-0.445,0.573c0.111,0.469,0.334,0.938-0.056,0.938s-0.835,0.521-0.724,0.833c0.111,0.312,0.78,0.469,0.78,0.312v-0.312c0,0,0.256,0.353,0.856,0.353C225.48,138.234,225.696,137.88,225.697,137.881L225.697,137.881z M228.274,134.602c0,0-0.469-0.596-1.275-0.298c-0.806,0.298-1.537,0.859-1.387,1.262c0.15,0.403,0.619,0.281,1.331,0c0.712-0.281,1.519-0.21,1.519-0.21s0.075-0.513-0.186-0.756L228.274,134.602z M221.449,134.602c0,0,0.469-0.596,1.275-0.298c0.806,0.298,1.537,0.859,1.387,1.262c-0.15,0.403-0.619,0.281-1.331,0c-0.712-0.281-1.519-0.21-1.519-0.21s-0.072-0.513,0.189-0.756L221.449,134.602z M224.89,132.845c0.38,0,0.689,0.435,0.689,0.971s-0.308,0.971-0.689,0.971s-0.689-0.435-0.689-0.971C224.201,133.279,224.509,132.845,224.89,132.845z" />
  <path fill="none" stroke="#0054A6" d="M224.863,62.663l75.42,54.797l-28.809,88.662h-93.226L149.44,117.46L224.863,62.663z" />
</svg>
