<?xml version="1.0" encoding="utf-8"?>
<!-- Generator: Adobe Illustrator 27.8.1, SVG Export Plug-In . SVG Version: 6.00 Build 0)  -->
<svg version="1.1" id="Layer_1" xmlns="http://www.w3.org/2000/svg" xmlns:xlink="http://www.w3.org/1999/xlink" x="0px" y="0px"
	 width="450px" height="300px" viewBox="0 0 450 300" enable-background="new 0 0 450 300" xml:space="preserve">
<path fill="#FFFFFF" d="M0,0h450v206.682H0V0z"/>
<path d="M136.656,103.687c0-48.864,39.554-88.479,88.344-88.479c48.788,0,88.344,39.615,88.344,88.479
	c0,48.863-39.555,88.479-88.344,88.479C176.211,192.166,136.656,152.55,136.656,103.687z M0,206.682h450V300H0V206.682z"/>
<path fill="#FF0000" d="M0,237.788h450v31.797H0V237.788z"/>
<path fill="#6262CE" d="M300.582,123.994c-1.905-24.005-7.847-61.219-45.455-77.363c-8.186,85.217-98.834,31.935-50.045-18.145
	c-19.837,13.652-49.093,37.408-44.269,78.046c77.893-35.524,76.741,69.646,8.972,52.44c21.741,10.353,56.94,23.811,89.724-0.69
	C189.801,108.589,281.602,56.701,300.582,123.994z"/>
</svg>
