<svg xmlns="http://www.w3.org/2000/svg" width="450px" height="300px" viewBox="0 0 450 300">
  <path fill="#239E46" d="M0,0h450v300H0V0z" />
  <path fill="#000000" d="M0,0h450v225H0V0z" />
  <path fill="#E70013" d="M0,0h450v75H0V0z" />
  <path fill="#FFFFFF" d="M251.541,176.491C244.753,183.292,235.368,187.5,225,187.5c-20.711,0-37.5-16.789-37.5-37.5s16.789-37.5,37.5-37.5c10.368,0,19.753,4.208,26.541,11.009c-5.342-3.83-11.884-6.092-18.959-6.092C214.588,117.417,200,132.005,200,150s14.588,32.583,32.583,32.583C239.657,182.583,246.199,180.321,251.541,176.491z M293.672,133.612l-19.265,6.26L262.5,123.484v20.257L243.235,150l19.265,6.26v20.257l11.907-16.388l19.265,6.26L281.765,150L293.672,133.612z" />
</svg>
