<svg xmlns="http://www.w3.org/2000/svg" width="450px" height="300px" viewBox="0 0 450 300">
  <path fill="#0F7562" d="M0,0h450v300H0V0z" />
  <path fill="#FFFFFF" d="M158.556,204.766h132.887c-0.776,0.849-1.57,1.681-2.378,2.5H160.934C160.126,206.447,159.333,205.615,158.556,204.766z M260,194.609c-13.573,0-25.9-5.333-35-14.018c-9.1,8.685-21.427,14.018-35,14.018h-39.472c1.162,1.709,2.38,3.378,3.654,5h38.162c12.441,0,23.834-4.484,32.656-11.92c8.822,7.436,20.215,11.92,32.656,11.92h38.162c1.274-1.622,2.492-3.291,3.654-5H260z M171.351,216.328h107.298c1.675-1.246,3.304-2.55,4.887-3.906H166.464C168.047,213.779,169.676,215.082,171.351,216.328z M225,234.062c11.73,0,22.934-2.246,33.21-6.328h-66.42C202.066,231.816,213.27,234.062,225,234.062z M186.082,225.234h77.837c3.114-1.496,6.126-3.169,9.029-5h-95.895C179.955,222.065,182.968,223.739,186.082,225.234z M258.281,186.484c-3.591,0-7.093-0.382-10.473-1.092c1.848,0.204,3.726,0.311,5.629,0.311c21.641,0,40.111-13.559,47.389-32.644c-7.039-2.925-14.759-4.543-22.857-4.543c-14.544,0-27.869,5.21-38.216,13.864c10.831-11.314,26.076-18.369,42.97-18.394c1.079-2.091,2.512-3.968,4.217-5.558c-0.902-0.041-1.808-0.068-2.72-0.068c-16.96,0-32.257,7.09-43.109,18.461c6.224-8.418,9.906-18.828,9.906-30.101c0-9.069-2.385-17.578-6.557-24.943c-0.923,3.075-2.556,5.843-4.706,8.116c3.112,6.571,4.856,13.917,4.856,21.671c0,11.67-3.947,22.414-10.574,30.981c5.394-8.057,8.543-17.744,8.543-28.169c0-15.34-6.813-29.089-17.578-38.387c-10.765,9.298-17.578,23.046-17.578,38.387c0,10.424,3.149,20.111,8.543,28.169c-6.627-8.567-10.574-19.311-10.574-30.981c0-7.754,1.744-15.1,4.856-21.671c-2.151-2.273-3.783-5.041-4.706-8.116c-4.171,7.365-6.557,15.874-6.557,24.943c0,11.273,3.682,21.684,9.906,30.101c-10.853-11.37-26.15-18.461-43.109-18.461c-0.912,0-1.818,0.028-2.72,0.068c1.704,1.59,3.138,3.467,4.217,5.558c16.894,0.025,32.139,7.079,42.97,18.394c-10.347-8.654-23.673-13.864-38.216-13.864c-8.098,0-15.818,1.618-22.857,4.543c7.277,19.085,25.748,32.644,47.389,32.644c1.903,0,3.781-0.107,5.629-0.311c-3.38,0.711-6.881,1.092-10.473,1.092c-13.685,0-26.097-5.428-35.218-14.241c-1.904,0.732-3.945,1.184-6.075,1.31c9.29,10.517,22.876,17.149,38.012,17.149c10.993,0,21.16-3.509,29.466-9.453h0.021c0.145-0.104,0.287-0.212,0.431-0.318c0.091-0.067,0.182-0.134,0.272-0.201c1.102-0.818,2.169-1.679,3.199-2.582c0.047-0.041,0.096-0.079,0.143-0.121c0-0.001-0.001-0.003-0.001-0.004c1.051-0.928,2.06-1.902,3.032-2.911c0.972,1.01,1.981,1.983,3.032,2.911c0,0.001-0.001,0.003-0.001,0.004c0.047,0.041,0.096,0.08,0.143,0.121c1.03,0.903,2.097,1.764,3.199,2.582c0.091,0.067,0.181,0.134,0.272,0.201c0.144,0.105,0.286,0.214,0.431,0.318h0.021c8.306,5.944,18.473,9.453,29.466,9.453c15.136,0,28.721-6.633,38.012-17.149c-2.13-0.126-4.171-0.578-6.075-1.31C284.378,181.057,271.966,186.484,258.281,186.484z" />
  <path fill="#FFDE23" d="M195.052,89.603l-8.286-0.145l-2.698,7.836l-2.423-7.925l-8.286-0.145l6.788-4.753l-2.423-7.925l6.618,4.987l6.788-4.753l-2.698,7.836L195.052,89.603z M163.609,110.864l-1.581-8.135l-3.502,7.511l-8.225-1.01l6.061,5.652l-3.502,7.511l7.248-4.018l6.061,5.652l-1.581-8.135l7.248-4.018L163.609,110.864z M269.852,84.471l2.423-7.925l-6.618,4.987l-6.788-4.753l2.698,7.836l-6.618,4.987l8.286-0.145l2.698,7.836l2.423-7.925l8.286-0.145L269.852,84.471z M293.639,114.881l6.061-5.652l-8.225,1.01l-3.502-7.511l-1.581,8.135l-8.225,1.01l7.248,4.018l-1.581,8.135l6.061-5.652l7.248,4.018L293.639,114.881z M228.701,67.953L225,56.562l-3.701,11.39h-11.977l9.689,7.04l-3.701,11.39l9.689-7.04l9.689,7.04l-3.701-11.39l9.689-7.04L228.701,67.953L228.701,67.953z" />
</svg>
