<svg xmlns="http://www.w3.org/2000/svg" width="450px" height="300px" viewBox="0 0 450 300">
  <path fill="#CD2A3E" d="M0,0h450v300H0V0z" />
  <path fill="#006233" d="M0,45h450v210H0V45z" />
  <path fill="#FFC400" d="M318.8,96.6c-0.2,51.6-42.1,93.2-93.8,93.2s-93.5-41.7-93.8-93.3c-2.1,7.8-3.2,16.1-3.2,24.5c0,53.5,43.4,96.9,96.9,96.9s96.9-43.4,96.9-96.9C321.9,112.7,320.8,104.4,318.8,96.6L318.8,96.6z M225,58.6l-8.4,25.9l-27.2,0l22,16l-8.4,25.9l22-16l22,16l-8.4-25.9l22-16l-27.2,0L225,58.6z" />
</svg>
