<svg xmlns="http://www.w3.org/2000/svg" width="450px" height="300px" viewBox="0 0 450 300">
  <path fill="#77CCFF" d="M0,0h450v300H0V0z" />
  <path fill="#002B7F" d="M216.313,126.889c-16.595-5.556-32.501-14.53-47.72-38.746c0-1.377-0.688-2.778-1.377-4.155c-4.155-6.22-6.933-7.597-7.621-3.467c-2.065,4.155-2.754,4.155-2.754,0c-4.844,0.713-9.687,0-13.842-3.442c-2.754-2.778-4.155-2.09-4.155,1.377c-3.442,0.688-3.442,2.065-4.155,4.155c-0.688,3.467-1.377,3.467-2.754,0c-2.065,0.688-6.221,1.377-13.842,1.377c-3.442,0-6.909-0.688-9.687-1.377c-2.754-1.377-6.22,2.065-10.375,5.532c-2.754,0-4.843,0.688-6.22,1.377c-2.778,1.377-5.532,1.377-8.31,0c-3.442,0-6.909,0-8.974,1.377c-3.467-1.377-8.31-1.377-11.776-0.688c-2.065,1.401-2.754,3.467-4.843,0.688c-1.377-1.377-2.754,0-3.442,1.401c-1.401,4.843-2.09,7.597-4.843,4.155c-3.467-2.778-5.532-2.09-6.933,0.688c-7.597,8.974-14.506,17.284-22.127,17.284C17.12,119.918,8.925,123.372,0,124.768v24.939h225v-19.645l-0.377-0.42C221.869,127.578,219.091,127.578,216.313,126.889z" />
  <path fill="#FFFFFF" d="M225,100v200h225V0L225,100z" />
  <path fill="#0484D6" d="M225,0h225v100H225V0z" />
  <path fill="#F5362F" d="M0,200h450v100H0V200z" />
</svg>
