<svg xmlns="http://www.w3.org/2000/svg" width="450px" height="300px" viewBox="0 0 450 300">
  <path fill="#007934" d="M0,0h450v300H0V0z" />
  <path fill="#FFFFFF" d="M136.957,0h176.087v300H136.957V0z" />
  <path fill="#007934" d="M226.624,52.455c-0.393,4.257-0.787,8.517-1.181,12.774c-1.442,0.217-2.883,0.434-4.325,0.651c0,0,3.004,1.687,3.528,3.381c0.488,1.737-3.711,1.152-3.67,1.174c0.005,0.028,3.49,2.898,3.685,3.989c-0.402,1.117-4.73,1.186-4.723,1.231c0,0,4.191,2.988,4.453,4.682c0.238,1.535,0.038,2.435,0,2.589c-0.293-0.25-7.051-5.929-11.41-4.272c-0.277,0.154-0.446,0.254-0.413,0.495c0.305,0.945,6.47,1.912,10.77,5.63c-0.107,0.93-12.255-2.96-12.704-0.523c0.38,0.687,13.074,2.517,14.013,4.173c-4.675,0.174-14.333-1.029-14.013,0.509c-0.977,1.776,9.122,0.773,13.359,2.221c1.242,1.403,1.122,2.582-1.039,2.73c-3.994-1.942-13.657-3.449-13.146-0.806c1.032,0.515,9.543,0.264,12.747,2.377c-4.543,1.028-19.948-2.085-20.046-0.566c0.439,0.709,2.876,3.823,7.071,3.692c4.213-0.073,14.064,1.599,14.568,3.112c-0.284,0.909-12.779-2.772-17.584-0.509c-4.98,2.346,14.282,0.924,17.428,3.791c3.146,2.867-6.288-0.269-6.288-0.269c0,0-13.1-1.817-15.066-0.905c-1.966,0.913-4.197,2.999-4.197,2.999s1.307,2.601,2.618,2.079c0.2-0.079,0.336-0.096,0.413-0.071c0.02-0.002,0.029,0.016,0.043,0.028c0.029,0.022,0.039,0.049,0.043,0.085c0.031,0.391-0.896,1.528-0.896,1.528s18.358,4.422,22.421,8.332c4.063,3.91-23.332-6.125-23.332-6.125c0,0-11.01,4.04,0.654,4.3c-1.3,1.891,0.539,3.055,0.654,3.126c0,0,19.403,4.044,21.369,7.172c1.966,3.128-13.237-3.003-16.645-4.696c-3.288-1.635-12.44,0.865-12.96,1.627c-0.034,0.065-0.008,0.135,0.043,0.184c0.586,0.642,4.671,1.527,4.794,2.631c-0.248,1.295-5.41,1.517-5.634,2.546c-0.146,1.16,24.517,6.135,31.057,11.656c6.553,5.474-19.263-6.522-19.263-6.522s1.442,1.954,0,2.476c-1.442,0.521-6.564-7.298-14.952-2.476c-1.528,1.984,7.324,3.559,9.575,3.777c-1.184,2.451-0.789,3.03,2.333,4.994c-0.399,0.118-6.167-3.002-6.787-3.041c0,0.261,0.654,3.395,0.654,3.395c-2.904-2.346-6.414-3.053-9.702-0.651c-0.005,0.139-0.029,2.388,3.272,3.777c-1.861,3.78,2.103,2.607,8.394,6.125c-9.35-2.43-10.099,2.084-3.414,3.126c7.187,1.425,27.675,1.054,30.346,9.265c-0.762,0.731-7.471-4.402-8.394-4.215c-0.236,0.519-0.455,2.773-0.455,2.773c-2.796-1.609-5.362-3.053-8.707-3.735c-0.262,0.521-0.207,1.261-0.469,1.782c-3.035-2.176-5.679-3.707-10.087-3.918c-0.175,0.695-0.352,1.398-0.526,2.094c0,0-3.674-4.562-10.884,0c-4.025,2.869,15.207,1.039,18.352,4.428c3.146,3.388,0.654,3.904,0.654,3.904c-2.621-0.956-5.232-1.902-7.853-2.857c0,0-9.315-1.703-11.936,0.382c-2.621,2.085,38.271,7.17,39.45,12.774c0.795,3.039-9.607-3.183-18.608-5.856c-0.348,0.995-0.705,1.99-1.053,2.985c-0.193-0.103-3.811-3.759-7.612-4.116c0.006,0.428,0.797,3.48,0.797,3.48c0,0-10.082-4.697-15.194-2.221c-5.255,2.864,19.242,3.271,20.202,6.761c-0.507,0.738-7.346-1.986-8.024-0.636c-0.787,1.564-11.925-2.863-11.794-0.778c0.131,2.085,1.579,3.254,1.579,3.254c0,0,23.199,2.214,23.986,4.951c0.786,2.737-12.847-1.556-12.847-1.556s-1.319,1.945-0.27,2.858c0.046,0.043,0.084,0.067,0.085,0.099c-0.001,0-0.012,0-0.014,0c-0.474-0.155-7.86-4.966-7.142-1.273c-2.89-1.144-10.353-4.689-9.304-1.952c1.033,2.697,20.497,6.536,21.07,6.649c-0.515,0.04-8.746,0.725-8.365,2.872c-11.046-6.681-11-2.687-10.755-2.348c-0.62-0.097-14.193-3.46-3.4,2.348c5.788,3.115,7.199,4.329,7.227,4.796c-0.057,0.424-0.848,0.236-1.053,0.269c0.12,0.234,1.008,2.53,0.953,2.957c-0.477,0.123-7.611-3.916-10.13-4.116c-2.491-0.261-14.29,3.254-1.707,8.728c12.583,5.474,20.312-1.306,27.258-0.523c6.947,0.782,10.23,1.957,9.575,4.173c-0.656,2.215-7.106-7.264-13.885,0.934c-7.712-1.517-12.943-2.395-8.963,3.239c-12.594-4.68-20.284,1.428-4.424,3.904c15.585,0.457,25.167-3.777,25.167-3.777c0,0,2.629,4.832,6.431,1.443c3.679-3.252,3.863,0.923,4.069,1.302c1.112-0.351,3.658-1.842,4.581-1.57c0,0,0,31.277,0,31.277c4.238,0.043,8.466,0.084,12.704,0.127c0,0-4.063-27.232-1.835-30.881c2.159-3.535,4.2-3.153,4.325-3.126c0,0,8.259,2.471,9.176,2.079c0.054-0.013,0.104-0.046,0.142-0.085c0.671-0.609-0.013-3.013,4.183-2.645c1.327-0.484,0.766-2.587,1.693-3.056c1.528-0.39,26.655,7.056,32.394,0.184c-1.442-3.779-6.429-0.258-7.74-0.127c-1.18,0-6.164-2.346-9.048,0c-2.621-1.955-14.54-3.254-14.54-3.254c-1.573-1.564,28.442,0.777,30.146-0.396c3.539-3.519-6.55-3.125-8.123-1.952c-2.796-1.694-6.31-1.569-8.451-0.396c-1.027-2.442-10.773-1.384-16.19-2.079c-1.734-1.011-1.445-1.592-0.27-2.221c11.316,0.478,22.574,1.947,33.945,1.443c3.073-3.984-3.869-5.487-8.123-2.094c-2.498-4.084-7.604-0.133-11.011-0.523c-3.408-0.391-1.835-4.556,2.49-3.904c4.325,0.652,12.06-0.266,13.501-2.221c1.441-1.955-0.861-3.935-7.995-2.079c-2.415-2.347-7.724-0.004-10.215,0.778c-3.313-1.838-11.022-0.256-13.643,0.396c-2.566-1.586,13.501-4.173,13.501-4.173c6.202-0.109,9.7-1.176,11.666-1.698c9.376-4.996-0.131-5.527-5.05-1.896c-3.054-2.371-5.954,0.205-8.707,1.118c-2.633,0.815-7.423,1.595-7.996,1.16c0.379-0.618,7.452-4.929,7.469-4.937c0,0,9.176-0.659,11.011-0.919c1.118-0.159,5.038-2.004,5.036-2.688c-0.033-0.425-1.666-0.386-6.616,0.863c-3.739,0.329-13.071,0.552-12.861-0.778c0.672-0.534,5.008-0.92,5.008-0.92c0,0,13.237-1.207,14.113-1.896c0.018-0.015,0.026-0.043,0.043-0.057c0.272-5.381-11.23-2.896-11.538-2.858c0.033-3.784-10.381-0.056-10.869,0c-0.565-0.33-0.78-0.631-0.669-1.089c0.261-0.78,1.835-1.386,1.835-1.386c2.884-0.695,7.195-0.912,8.323-1.825c0,0,8.139-0.071,9.105-2.221c-1.997-5.479-17.224,0.97-19.263,1.952c-2.748-0.067,1.899-4.461,1.963-4.555c0.526-0.177,12.651-0.754,18.48-8.601c0.41-4.839-6.943,2.73-6.943,2.73c-0.549-6.276-7.995,0.398-12.32,0.92c-4.325,0.521-4.452-1.957-1.437-2.348c3.014-0.391,6.419-0.135,8.123-4.696c1.704-4.562,6.822,0.266,7.74-1.429c0.889-1.641-1.675-3.041-1.835-3.126c0,0,3.798-3.921-2.362-3.791c-6.098,0.129-13.982-0.76-14.141-0.778c0.382-0.145,6.593-2.475,12.434-2.348c6.03,0.13,2.751-4.3-3.016-4.3c-5.767,0-8.778-1.952-8.778-1.952c3.277-1.216,6.554-2.433,9.831-3.65c-0.219-0.912-0.436-1.818-0.654-2.73c0,0,5.765-4.565-2.362-3.522c-8.126,1.043-9.048,1.174-9.048,1.174c0,0-15.997,2.437-16.375,2.476c-0.163-0.029-1.747-0.502-2.049-1.118c-0.154-0.653,0.4-0.811,1.778-1.231c4.696-1.241,19.157-3.924,21.867-3.281c0.835-0.752-1.944-5.546-8.764-6.225c-7.864-0.782-12.704,1.952-12.704,1.952s-5.117-1.831-0.398-3.395c4.718-1.564,12.192,0.523,12.192,0.523c0,0,8.384-2.48,1.437-3.522c-6.947-1.043-9.137,0.938-12.32,1.047c-1.271-1.577,10.906-1.949,11.666-3.254c-1.284-2.347-8.818,0-13.231,0c-1.877-0.792-2.001-2.08,0.128-2.872c4.5-0.174,8.73,0.089,13.231-0.085c-0.131-2.389,0.003-5.221-0.128-7.61c-5.708-1.037-12.402,0.759-15.607,0.608c0.857-2.607,13.182-3.28,14.554-3.989c2.832-3.519-11.821-0.054-12.178,0c-2.601-0.382-2.443-2.017-0.797-2.999c3.801-0.435,12.325,0.554,11.68-2.009c-0.494-2.401-5.91-1.116-8.138-0.594c-2.228,0.521-5.506,0.127-5.506,0.127c-1.427-1.91,12.849-1.129,12.719-2.603c-0.186-1.692-9.049-0.526-12.064-0.396c-2.313-1.609,10.923-2.626,11.538-2.872c0.494-4.332-9.176,0-11.011,0c-0.387-0.003-0.635-0.096-0.839-0.325c-0.63-0.731-0.071-2.405-0.071-2.405s3.446-1.54,3.656-1.91c0.001-0.003,0.013-0.011,0.014-0.014c0-0.007,0-0.021,0-0.028c-0.018-0.019-0.033-0.036-0.057-0.057c-0.416-0.304-2.776-1.103-3.101-1.118c-0.273-0.382,0.019-2.949,0-2.999c0,0,2.731-2.035,2.902-2.843c0.001-0.055,0.004-0.119-0.014-0.17c-0.588-0.659-3.65,0.603-3.671,0.537c0-0.869,0-1.734,0-2.603c0,0,2.498-0.27,2.76-1.443c0.023-0.167-0.001-0.341-0.114-0.467c-0.572-0.734-2.902-0.835-2.902-0.835C227.496,61.574,227.057,57.015,226.624,52.455z M224.291,97.128v1.797c-0.04-0.034-3.07-0.095-3.557-0.693c-0.058-0.12,0.059-0.228,0.157-0.297C221.927,97.212,223.864,97.304,224.291,97.128z M228.459,99.519c0.102,0,5.855,0.049,6.359,0.792c0.033,0.054,0.041,0.125,0.014,0.184c-0.439,0.928-6.26,1.485-6.26,1.485C228.573,101.981,228.459,99.519,228.459,99.519z M228.132,103.07c0.369,0.117,2.884,0.103,3.073,0.651c-0.309,0.745-2.749,0.855-2.846,0.877C228.207,104.435,228.146,103.077,228.132,103.07z M210.59,107.795c1.879-0.097,5.606,0.343,12.605,2.263c0,0.148,0.142,1.953,0.085,2.249c-0.095,0.097-12.729-3.662-13.914-3.565c-0.179,0.015-0.407-0.066-0.47-0.241c-0.027-0.046-0.015-0.106,0-0.156C209.141,107.97,209.555,107.886,210.59,107.795z M217.134,113.128c2.012-0.072,6.833,1.081,7.099,1.019c-0.013,0.397,0.246,2.226-0.057,2.589c-0.025,0.031-0.063,0.031-0.1,0.028C224.383,116.867,213.321,113.504,217.134,113.128z M236.938,118.079c1.921-0.037,3.278,0.126,2.774,0.707c-1.372,1.583-10.855,2.886-10.855,2.886l-0.171-2.886C228.889,118.756,233.71,118.141,236.938,118.079z M209.793,127.076c1.613-0.085,5.368,0.795,13.729,4.315l0.057,2.079c0,0-14.159-4.27-14.653-4.979C208.682,128.141,208.232,127.158,209.793,127.076z M237.536,130.174c0.55-0.017,1.123,0.007,0.754,0.453c-1.318,1.474-8.394,2.942-8.394,2.942c0.014,0.001-0.027-1.885,0.014-1.91C230.232,131.648,235.427,130.28,237.536,130.174z M206.493,130.428c2.114-0.111,6.887,1.003,17.584,6.04c-0.013,0.048,0.122,1.824,0.043,1.952c-0.634-0.203-19.249-6.705-19.249-6.705C204.851,131.644,204.571,130.53,206.493,130.428z M241.931,138.562c0.638-0.008,1.27-0.016,0.854,0.41c-1.688,1.516-12.45,3.352-12.832,3.381c-0.033,0.008-0.059-0.025-0.057-0.057c-0.109-0.351,0.149-1.599,0.156-1.782C230.752,140.52,238.988,138.685,241.931,138.562z M210.291,143.301c3.22-0.166,12.907,4.272,13.402,4.399c-0.065,0.212-0.035,1.842-0.114,2.079c-0.262-0.139-13.567-5.63-14.155-5.192C209.056,143.724,209.439,143.345,210.291,143.301z M238.915,144.461c0.613-0.013,1.56-0.054,1.295,0.241c-0.988,0.873-10.158,2.674-10.158,2.674s-0.043-1.689-0.043-1.853C230.269,145.467,236.19,144.581,238.915,144.461z M238.176,150.304c0.665-0.008,1.49-0.028,1.138,0.326c-0.99,0.849-8.764,2.476-8.764,2.476s-0.213-1.855-0.213-1.91C230.552,151.2,235.75,150.384,238.176,150.304z M205.369,150.77c1.876-0.118,6.524,0.651,17.997,4.796l0.384,2.235c0,0-19.103-6.132-19.647-6.323C204.17,150.961,204.484,150.877,205.369,150.77z M230.536,155.622c0.23,0.049,3.433,0.155,4.026,0.651c0.059,0.05,0.098,0.119,0.086,0.198c-0.395,0.862-3.87,1.1-3.87,1.118C230.778,157.589,230.614,156.091,230.536,155.622z M238.289,159.979c1.104-0.008,1.959,0.116,0.982,0.934c-2.744,2.238-8.721,2.674-8.721,2.674c0.014,0-0.027-2.49,0.014-2.461C230.904,161.085,235.814,160.038,238.289,159.979z M245.901,162.271c1.673-0.097,1.894,0.533,0.953,1.372c-0.933,0.873-15.806,5.559-15.806,5.559s-0.112-3.108-0.057-3.381C239.687,163.201,243.941,162.345,245.901,162.271z M236.284,171.07c0.975-0.001,2.238-0.08,1.892,0.594c-1.272,1.242-7.455,1.429-7.455,1.429v-1.542C231.882,171.512,234.466,171.138,236.284,171.07z M242.472,173.602c0.569-0.015,0.65,0.16,0.213,0.467c-2.47,1.746-11.751,3.537-11.751,3.537s0.115-1.22,0.171-1.514C231.363,176.088,240.251,173.656,242.472,173.602z M247.679,175.54c1.099,0,1.98,0.136,2.419,0.523c-0.035,0.378-0.728,1.941-3.187,2.645c-3.049-0.271-15.991,3.534-16.247,3.593c-0.061-0.212,0.173-1.579,0.156-1.584C235.281,178.065,243.389,175.581,247.679,175.54z M214.545,183.009c5.521,0.517,7.826,2.706,8.365,3.522C222.074,188.65,211.061,183.379,214.545,183.009z M246.626,183.377c0.438-0.02,0.808,0.164,0.825,0.622c-0.585,0.899-3.609,0.506-3.799,0.481C243.805,184.426,245.552,183.418,246.626,183.377z M234.633,189.432c0.628-0.019,1.366,0.039,1.024,0.736c-0.878,1.637-4.723,1.033-4.723,1.033c0.014-0.001-0.026-1.173,0.014-1.146C231.165,190.072,233.285,189.487,234.633,189.432z M211.985,193.746c1.183-0.059,2.217,0.712,3.301,1.33c2.415-0.491,7.369,0.382,7.369,0.382c-0.031,0.013,0.054,2.222-0.028,2.193c-0.451,0.078-6.257-0.174-7.554-0.99c-1.081-0.031-4.169-1.564-4.297-2.476C210.911,193.881,211.726,193.772,211.985,193.746z M237.379,194.821c0.908-0.049,1.293,0.231,0.583,1.231c-1.976,2.783-7.085,1.641-7.085,1.641l-0.213-1.726C232.466,196.037,235.76,194.908,237.379,194.821z M218.287,200.465c2.066-0.096,4.311,0.721,4.311,0.721c0.066,0.104,1.179,2.377,0.057,2.942c-1.153,0.6-6.662-0.469-6.985-2.674C216.318,200.775,217.278,200.512,218.287,200.465z M196.99,201.54c1.908-0.116,3.991,1.055,4.254,1.16c0,0.065-0.071,2.094-0.071,2.094s-3.74-1.037-4.923-3.126C196.487,201.603,196.74,201.555,196.99,201.54z M232.969,201.823c2.043,0.046,5.562,0.398,4.937,1.655c-1.043,1.255-6.971,0.113-6.971,0.113v-1.528C231.462,201.91,232.189,201.828,232.969,201.823z" />
</svg>
