<svg xmlns="http://www.w3.org/2000/svg" width="450px" height="300px" viewBox="0 0 450 300">
  <path fill="#FFFFFF" d="M0,0v300h450V0H0z" />
  <path fill="#E4002B" d="M90,0v300H0V0H90z M360,0v300h90V0H360z" />
  <path fill="#0032A0" d="M214.989,75.84l-16.693-12.016l20.568,0.091l6.27-19.589l6.27,19.589l20.568-0.091L235.278,75.84l6.442,19.533L225.133,83.21l-16.587,12.163L214.989,75.84z M334.922,125.847l-20.568,0.091l-6.27-19.589l-6.27,19.589l-20.568-0.091l16.693,12.016l-6.442,19.533l16.587-12.163l16.587,12.163l-6.442-19.533L334.922,125.847z M283.497,224.217l-6.27-19.589l-6.27,19.589l-20.568-0.091l16.693,12.016l-6.442,19.533l16.587-12.163l16.587,12.163l-6.442-19.533l16.693-12.016L283.497,224.217z M179.894,224.217l-6.27-19.589l-6.27,19.589l-20.568-0.091l16.693,12.016l-6.442,19.533l16.587-12.163l16.587,12.163l-6.442-19.533l16.693-12.016L179.894,224.217z M152.063,137.863l16.693-12.016l-20.568,0.091l-6.27-19.589l-6.27,19.589l-20.568-0.091l16.693,12.016l-6.442,19.533l16.587-12.163l16.587,12.163L152.063,137.863z M272.883,183.011c-0.046-0.123-0.096-0.243-0.143-0.366c1.874-7.04-7.598-15.31-26.907-30.957c-6.264-5.076-7.353-14.078-3.14-20.26c13.353-19.596-3.989-32.514-17.289-16.183c-4.364-5.358-9.169-7.574-13.177-7.431c-8.205,0.292-13.084,10.449-4.113,23.615c4.213,6.182,3.156,15.235-3.149,20.26c-20.462,16.306-30.249,24.122-27.478,31.153c-0.021,0.056-0.041,0.113-0.062,0.169c7.08,14.798,25.787,25.381,47.729,25.381C247.096,208.393,265.804,197.81,272.883,183.011z" />
</svg>
