<svg xmlns="http://www.w3.org/2000/svg" width="450px" height="300px" viewBox="0 0 450 300">
  <path fill="#EE252B" d="M450,149.995H214.746L0,300h450V149.995z" />
  <path fill="#FECE00" d="M450,150.005H214.746L0,0h450V150.005z" />
  <path fill="#FFFFFF" d="M0,0v300l224.739-150L0,0z" />
  <path fill="#000000" d="M72.248,176.171c-1.076,0.031-4.798-0.092-6.581,1.078c-1.784,1.17-3.168,2.248-4.552,4.68c-1.384,2.432-2.368,2.771-2.86,2.679c-0.492-0.092-2.153-0.523-2.091-2.648c0.062-2.124,1.138-2.987,1.753-3.017c0.615-0.031,1.23,0.185,0.615,0.708c-0.615,0.523-0.923,1.108-0.923,1.878s0.277,1.817,0.738,1.847c0.461,0.031,0.861-0.523,1.046-1.724c-0.062-3.725,0.246-3.726-0.338-3.972c-0.584-0.246-1.814-0.215-2.799,1.108c-0.984,1.324-1.292,3.294-0.584,4.68c0.554,1.201,1.23,1.755,1.23,1.755s-1.076,1.139-1.476,1.971s-0.031,3.325,0.369,3.879c0.4,0.554,1.415,1.416,2.153,1.509c0.738,0.092,1.169,0.092,1.169-1.385c0-1.478,0.154-3.479-0.123-3.51c-0.277-0.031-1.046,0.185-1.076,0.862c-0.031,0.677,0.605,1.325,0.646,1.817c0.062,0.739-0.523,1.139-1.169,0.708c-0.944-0.63-1.23-1.632-1.138-2.617c0.092-0.985,0.8-2.525,1.937-2.555c1.138-0.031,1.784,0.585,3.506,2.494c1.722,1.909,3.045,3.879,7.781,4.896c4.736,1.016,13.816,1.627,20.252,1.54c6.437-0.087,20.937-0.663,24.07-2.652c1.379-0.875,2.795-2.064,3.841-3.198c1.51-1.638,2.513-3.129,3.749-3.11c1.537,0.023,2.553,1.755,2.46,2.956c-0.092,1.201-1.076,2.032-1.63,2.217c-0.554,0.185-1.076-0.185-0.646-1.139c0.431-0.954,0.584-2.186-0.184-2.248c-0.769-0.062-0.677,0.123-0.707,0.862c-0.015,0.37,0.077,1.373,0.146,2.31c0.069,0.933,0.116,1.801,0.499,1.785c0.769-0.031,2.354-0.631,3.014-2.217c0.308-0.739,0.554-3.14-0.184-3.941c-0.738-0.801-1.23-1.139-1.23-1.139s1.63-1.63,1.63-3.91c-0.062-1.293-0.307-2.555-1.753-3.356c-1.445-0.801-2.225-0.519-2.368,0.031c-0.185,0.708-0.338,2.094,0.031,3.633c0.379,1.581,1.046,2.155,1.415,1.355c0.461-1,0.587-2.282-0.092-2.771c-0.984-0.708-0.8-1.416,0.031-1.324c0.83,0.092,2.06,0.954,2.03,2.586c-0.031,1.632-1.015,3.295-1.999,3.202c-0.984-0.092-2.183-1.386-3.229-3.141s-3.444-4.649-6.889-5.173c-3.444-0.523-21.22,0.185-22.573,0.185C87.809,176.633,73.324,176.14,72.248,176.171L72.248,176.171z M104.989,180.973c2.853,0.002,6.627,0.09,8.376,1.356c1.999,1.447,1.722,2.802,1.722,2.802s-3.66,0.409-11.054,0.45c-7.756,0.044-21.824-0.087-25.617,0c-4.001,0.092-11.211-0.204-13.673-0.45c0,0-0.215-1.416,1.661-2.709s3.352-1.57,9.872-1.385c6.52,0.185,13.07,0.216,13.901,0.246c0.83,0.031,10.764-0.308,13.655-0.308C104.193,180.974,104.582,180.973,104.989,180.973L104.989,180.973z M115.081,186.277c0,0,0.218,1.698-1.479,2.264c-1.696,0.566-6.263,1.872-15.44,1.872s-22.181-0.044-25.138-0.392c-2.957-0.348-8.437-0.74-8.176-3.701c6.132,0.348,24.355,0.261,25.356,0.261c1,0,11.09,0.218,16.657,0.044C112.428,186.451,115.081,186.277,115.081,186.277z M133.656,175.709l0.277,3.879c0,0-1.322,0.277-1.599-1.016c-0.277-1.293-0.4-1.724-0.4-1.724s-1.261,0-1.169,0.985c0.092,0.985-0.035,3.497,1.445,3.849c1.081,0.257,1.258-0.036,1.845-0.123c0.361,0.849,0.265,1.881,0.369,2.833c0,0-1.907,1.078-2.122,1.94c-0.215,0.862-0.123,2.278,0.185,2.371c0.308,0.092,0.461,0.092,0.615-0.554c0.154-0.647,0.185-1.693,0.953-2.001c0.769-0.308,0.8-0.185,0.8-0.185c0.108,0.108,0.354,2.094,0.092,2.463c0,0-1.814,1.232-2.307,1.293c-0.492,0.062-0.554,0.092-0.554,0.092s-0.677-2.555-0.308-3.51c0.369-0.954,1.968-1.693,2.153-2.34c0.185-0.647,0-1.293-0.738-1.17c-0.738,0.123-1.984,0.57-2.214,2.094c-0.269,1.778-0.031,5.203-0.031,5.327s0.031,0.523-0.892,0.708s-2.691,0.585-2.952,0.509c-0.272-0.053-0.83-3.188-0.554-3.588c0.277-0.4,0.738-0.708,1.784-0.431c1.046,0.277,1.076,1.262,1.138,2.001s0.83,1.016,0.923,0.123c0.092-0.893,0.246-3.633-1.384-3.818c-1.63-0.185-2.829,0.069-2.86-0.739c-0.019-0.493-0.151-1.802-0.062-1.909c0.313-0.372,1.445-0.123,2.03-1.016s0.535-2.562,0.461-3.171c-0.076-0.629-0.786-1.255-1.018,0.294c-0.163,1.085-0.403,1.503-1.134,1.522c-0.5,0.013-0.523-0.092-0.523-0.092l-0.246-2.617c0,0,1.169-0.493,2.307-0.554c1.138-0.062,1.199,0.585,1.199,0.985c0,0.4,0.338,3.233-0.185,3.756c-0.523,0.523-1.784,0.801-1.784,1.201s-0.246,0.862,0.738,0.831c0.984-0.031,2.522-0.4,2.553-2.432c0.034-2.248-1.076-4.834,0.123-5.203C131.811,176.201,133.656,175.709,133.656,175.709L133.656,175.709z M46.292,175.709l-0.277,3.879c0,0,1.322,0.277,1.599-1.016c0.277-1.293,0.4-1.724,0.4-1.724s1.261,0,1.169,0.985c-0.092,0.985,0.035,3.497-1.445,3.849c-1.081,0.257-1.258-0.036-1.845-0.123c-0.361,0.849-0.265,1.881-0.369,2.833c0,0,1.907,1.078,2.122,1.94c0.215,0.862,0.123,2.278-0.185,2.371c-0.308,0.092-0.461,0.092-0.615-0.554s-0.185-1.693-0.953-2.001c-0.769-0.308-0.8-0.185-0.8-0.185c-0.108,0.108-0.354,2.094-0.092,2.463c0,0,1.814,1.232,2.307,1.293c0.492,0.062,0.554,0.092,0.554,0.092s0.677-2.555,0.308-3.51c-0.369-0.954-1.968-1.693-2.153-2.34c-0.185-0.647,0-1.293,0.738-1.17c0.738,0.123,1.984,0.57,2.214,2.094c0.269,1.778,0.031,5.203,0.031,5.327s-0.031,0.523,0.892,0.708c0.923,0.185,2.691,0.585,2.952,0.509c0.272-0.053,0.83-3.188,0.554-3.588c-0.277-0.4-0.738-0.708-1.784-0.431c-1.046,0.277-1.076,1.262-1.138,2.001c-0.062,0.739-0.83,1.016-0.923,0.123c-0.092-0.893-0.246-3.633,1.384-3.818c1.63-0.185,2.829,0.069,2.86-0.739c0.019-0.493,0.151-1.802,0.062-1.909c-0.313-0.372-1.445-0.123-2.03-1.016c-0.584-0.893-0.535-2.562-0.461-3.171c0.076-0.629,0.786-1.255,1.018,0.294c0.163,1.085,0.403,1.503,1.134,1.522c0.5,0.013,0.523-0.092,0.523-0.092l0.246-2.617c0,0-1.169-0.493-2.307-0.554c-1.138-0.062-1.199,0.585-1.199,0.985c0,0.4-0.338,3.233,0.185,3.756c0.523,0.523,1.784,0.801,1.784,1.201s0.246,0.862-0.738,0.831c-0.984-0.031-2.522-0.4-2.553-2.432c-0.034-2.248,1.076-4.834-0.123-5.203C48.137,176.201,46.292,175.709,46.292,175.709L46.292,175.709z M140.546,161.887c0.721-0.035,1.322,0.452,1.841,0.878c0.385,0.315,0.656,0.76,0.818,1.214c0.148,0.413,0.31,0.775,0.404,1.203c0.187,0.85,0.297,1.703,0.298,2.567c0.001,0.899-0.075,1.823-0.376,2.674c-0.189,0.537-0.334,1.067-0.593,1.583c-0.362,0.721-0.896,1.394-1.619,1.707c-0.585,0.253-1.33,0.168-1.878-0.133c-0.753-0.414-1.234-1.2-1.605-1.952c-0.29-0.588-0.659-1.54-0.787-2.152c-0.086-0.41-0.214-0.781-0.175-1.229c0.067-0.75,0.077-1.486,0.232-2.103c0.134-0.532,0.195-1.077,0.434-1.555c0.53-1.062,1.252-2.168,2.387-2.66C140.118,161.846,140.339,161.897,140.546,161.887z M139.175,164.156c-0.381,0.341-0.6,0.826-0.81,1.285c-0.142,0.31-0.207,0.629-0.285,0.956c-0.258,1.08-0.063,2.221,0.246,3.282c0.24,0.823,0.513,1.724,1.16,2.301c0.236,0.211,0.571,0.419,0.876,0.365c0.287-0.051,0.473-0.239,0.689-0.468c0.199-0.211,0.392-0.364,0.51-0.617c0.385-0.824,0.77-1.676,0.899-2.577c0.133-0.926,0.194-1.903-0.065-2.814c-0.285-1.004-1.021-1.955-2.019-2.273C139.844,163.427,139.629,163.749,139.175,164.156L139.175,164.156z M39.389,161.887c-0.721-0.035-1.322,0.452-1.841,0.878c-0.385,0.315-0.655,0.76-0.818,1.214c-0.148,0.413-0.31,0.775-0.404,1.203c-0.187,0.85-0.297,1.703-0.298,2.567c-0.001,0.899,0.075,1.823,0.376,2.674c0.189,0.537,0.334,1.067,0.593,1.583c0.362,0.721,0.896,1.394,1.619,1.707c0.585,0.253,1.33,0.168,1.878-0.133c0.753-0.414,1.234-1.2,1.605-1.952c0.29-0.588,0.659-1.54,0.787-2.152c0.086-0.41,0.214-0.781,0.175-1.229c-0.067-0.75-0.077-1.486-0.232-2.103c-0.134-0.532-0.195-1.077-0.434-1.555c-0.53-1.062-1.252-2.168-2.387-2.66C39.816,161.846,39.595,161.897,39.389,161.887z M40.76,164.156c0.381,0.341,0.6,0.826,0.81,1.285c0.142,0.31,0.207,0.629,0.285,0.956c0.258,1.08,0.063,2.221-0.246,3.282c-0.24,0.823-0.513,1.724-1.16,2.301c-0.236,0.211-0.571,0.419-0.876,0.365c-0.287-0.051-0.473-0.239-0.689-0.468c-0.199-0.211-0.392-0.364-0.51-0.617c-0.385-0.824-0.77-1.676-0.899-2.577c-0.133-0.926-0.194-1.903,0.065-2.814c0.285-1.004,1.021-1.955,2.019-2.273C40.09,163.427,40.306,163.749,40.76,164.156L40.76,164.156z M67.161,105.86C67.253,106.117,67.243,105.546,67.161,105.86z M67.115,105.958c-2.325-0.003-4.694,0.281-6.838,1.228c-1.673,0.621-3.352,1.338-4.674,2.565c-2.296,1.964-4.286,4.36-5.418,7.185c-0.712,1.62-1.464,3.231-1.854,4.968c-0.685,2.753-0.93,5.581-1.331,8.382c-0.267,1.255-0.284,2.542-0.522,3.802c-0.181,1.743-0.247,3.497-0.471,5.235c-0.267,2.94-0.534,5.885-1.039,8.796c-0.253,1.35-0.334,2.737-0.716,4.06c-0.259,0.96-1.013,1.652-1.799,2.201c-1.17,0.891-2.73,1.493-4.193,1.021c-1.911-0.577-3.178-2.341-3.885-4.122c-1.093-2.702-1.204-5.662-1.346-8.536c-0.098-2.187,0.048-4.377,0.395-6.537c0.303-2.367,0.813-4.87,2.406-6.731c1.08-1.139,2.749-1.617,4.282-1.451c0.823,0.134,1.343,0.856,1.656,1.571c0.882,1.715,1.424,3.602,1.513,5.533c0.138,1.821-0.003,3.647,0.253,5.451c0.045,0.946-0.206,1.873-0.233,2.816c-0.154,2.111-0.465,4.39-1.899,6.051c-0.668,0.735-1.658,1.457-2.703,1.165c-0.85-0.255-1.212-1.163-1.623-1.866c-1.205-2.535-1.613-5.403-1.467-8.191c0.118-1.546,0.323-3.12,0.917-4.563c0.47-1.051,1.447-2.086,2.679-2.048c1.035,0.139,1.518,1.206,1.8,2.091c0.48,1.615,0.475,3.322,0.549,4.992c-0.008,1.474-0.151,3.002-0.777,4.352c-0.232,0.381-0.83,0.417-1.062,0.013c-0.572-0.738-0.517-1.729-0.76-2.592c-0.252-1.305-0.098-2.653-0.222-3.959c-0.027-0.39-0.362-0.947-0.817-0.799c-0.478,0.464-0.274,1.204-0.353,1.799c-0.085,1.929-0.092,3.913,0.568,5.755c0.261,0.9,0.481,2.048,1.439,2.46c0.807,0.217,1.54-0.502,1.842-1.188c0.869-1.894,1.146-3.98,1.312-6.035c0.127-2.558-0.31-5.209-1.488-7.499c-0.527-0.929-1.375-1.928-2.538-1.91c-1.122,0.008-2.054,0.772-2.626,1.701c-0.987,1.479-1.531,3.232-1.631,4.996c-0.27,2.597-0.21,5.229,0.078,7.815c0.257,1.907,0.941,3.715,1.686,5.477c0.498,1.119,1.477,2.194,2.784,2.224c1.44,0.055,2.671-0.955,3.483-2.044c1.252-1.677,1.519-3.81,1.863-5.817c0.359-2.35,0.266-4.735,0.31-7.11c0.036-2.502-0.242-5.002-0.866-7.429c-0.535-2.152-0.999-4.505-2.626-6.128c-0.637-0.613-1.436-1.302-2.389-1.115c-0.924,0.168-1.727,0.717-2.526,1.194c-1.017,0.629-1.759,1.598-2.286,2.658c-1.47,2.727-2.034,5.818-2.497,8.855c-0.435,2.257-0.848,4.502-0.948,6.801c-0.192,3.548-0.085,7.116-0.214,10.672c-0.065,3.814,0.218,7.637,1.094,11.356c0.704,3.336,1.236,6.801,2.844,9.839c0.865,1.717,1.91,3.43,3.528,4.512c1.03,0.531,2.231,0.221,3.286-0.008c1.314-0.313,2.46-1.152,3.288-2.203c0.797-1.217,0.981-2.702,1.198-4.108c0.306-1.454,0.497-2.926,0.462-4.413c0.022-1.996-0.193-3.969-0.79-5.874c-0.235-1.151-0.459-2.379-0.145-3.536c0.374-1.256,1.947-1.714,3.092-1.306c1.005,0.387,1.824,1.132,2.648,1.807c2.983,2.571,5.029,6.072,8.195,8.446c1.594,1.043,3.66,0.991,5.425,0.501c1.789-0.507,3.264-1.727,4.651-2.9c1.413-1.319,2.367-3.044,3.735-4.408c1.195-1.282,2.781-2.223,4.532-2.463c1.263-0.161,2.717-0.291,3.798,0.524c1.395,1.167,2.624,2.667,2.976,4.498c0.214,1.023,0.389,2.058,0.518,3.094c0.038,0.387-0.177,1.051-0.677,0.881c-0.629-0.316-0.842-1.075-1.271-1.586c-0.925-1.355-2.142-2.759-3.841-3.062c-1.308-0.23-2.61,0.407-3.472,1.36c-1.281,1.301-1.929,3.025-2.518,4.712c-0.181,0.503-0.693,1.078-0.328,1.619c0.47,0.309,1.094,0.206,1.63,0.243c8.598,0.478,17.21,0.099,25.813-0.056c2.227-0.053,4.459-0.031,6.683-0.063c0.527-0.219,0.477-0.961,0.358-1.426c-0.636-2.145-1.487-4.451-3.395-5.79c-0.996-0.741-2.421-0.985-3.524-0.352c-1.167,0.667-2.057,1.741-2.803,2.849c-0.369,0.491-0.598,1.109-1.059,1.52c-0.31,0.238-0.853,0.102-0.877-0.333c-0.237-1.218,0.161-2.443,0.445-3.618c0.342-1.313,0.994-2.54,1.951-3.507c0.628-0.642,1.24-1.439,2.188-1.582c2.548-0.459,5.211,0.575,7.001,2.401c1.157,1.084,1.994,2.44,2.955,3.685c1.725,1.997,4.046,3.587,6.692,3.929c1.683,0.25,3.571,0.01,4.895-1.127c2.529-1.984,4.186-4.821,6.537-6.99c1.261-1.262,2.639-2.661,4.478-2.96c1.669-0.149,2.995,1.728,2.574,3.285c-0.537,2.162-1.148,4.312-1.191,6.556c-0.123,1.85,0.208,3.679,0.503,5.503c0.173,1.035,0.098,2.123,0.631,3.066c0.549,1.207,1.509,2.242,2.733,2.791c1.164,0.506,2.488,0.894,3.758,0.601c1.083-0.342,1.911-1.211,2.614-2.063c1.507-1.986,2.368-4.381,3.1-6.734c0.542-1.859,0.872-3.77,1.354-5.645c0.366-1.567,0.494-3.18,0.785-4.759c0.43-3.495,0.166-7.047,0.222-10.57c-0.005-3.499,0.047-7.01-0.518-10.47c-0.5-3.297-1.063-6.604-2.052-9.787c-0.521-1.436-1.184-2.885-2.204-4.051c-0.824-0.895-1.977-1.405-3.108-1.816c-0.584-0.238-1.276-0.238-1.834,0.122c-1.67,1.02-2.661,2.852-3.112,4.721c-0.702,2.189-1.246,4.444-1.363,6.751c-0.152,2.536-0.104,5.09-0.089,7.634c0.112,2.235,0.535,4.461,1.289,6.57c0.642,1.598,1.861,3.136,3.592,3.579c1.062,0.257,2.196-0.214,2.838-1.081c1.003-1.269,1.443-2.874,1.9-4.399c0.803-2.902,0.842-5.941,0.716-8.928c-0.122-1.952-0.417-3.983-1.486-5.668c-0.526-0.864-1.158-1.83-2.22-2.069c-0.952-0.304-2.007,0.203-2.624,0.963c-1.044,1.287-1.496,2.945-1.832,4.53c-0.558,3.053-0.241,6.23,0.685,9.174c0.311,0.858,0.884,1.828,1.853,2.012c0.774,0.068,1.279-0.651,1.437-1.324c0.705-2.111,0.989-4.351,1.003-6.568c-0.037-0.612-0.007-1.253-0.207-1.837c-0.335-0.383-0.876-0.002-0.963,0.406c-0.248,0.8,0.04,1.647-0.186,2.457c-0.173,0.744-0.319,1.481-0.273,2.25c-0.057,0.738-0.258,1.519-0.738,2.094c-0.44,0.318-0.975-0.126-1.083-0.573c-0.563-1.352-0.42-2.855-0.498-4.286c0.004-1.783,0.091-3.605,0.64-5.313c0.295-0.828,1.081-1.628,2.028-1.457c1.218,0.21,1.964,1.385,2.387,2.452c0.579,1.593,0.636,3.313,0.758,4.986c0.115,2.921-0.49,5.921-2.022,8.432c-0.439,0.727-1.363,1.067-2.167,0.798c-1.473-0.478-2.344-1.933-2.848-3.314c-0.764-2.272-0.799-4.706-0.834-7.079c0.029-2.063,0.073-4.132,0.287-6.186c0.274-1.937,0.913-3.875,2.104-5.445c0.446-0.516,1.179-0.648,1.816-0.469c1.149,0.121,2.426,0.293,3.252,1.203c1.102,1.178,1.669,2.746,2.106,4.272c0.816,3.17,0.808,6.477,0.79,9.729c-0.028,2.452-0.144,4.954-1.024,7.272c-0.647,1.735-1.574,3.544-3.291,4.426c-1.134,0.668-2.556,0.641-3.734,0.103c-1.866-0.727-3.267-2.491-3.531-4.481c-0.342-2.085-0.39-4.198-0.767-6.278c-0.291-2.003-0.288-4.034-0.618-6.032c-0.136-1.164-0.095-2.333-0.335-3.488c-0.186-1.131-0.233-2.269-0.477-3.391c-0.098-0.948-0.102-1.879-0.292-2.818c-0.216-1.552-0.362-3.106-0.676-4.641c-0.184-1.212-0.395-2.431-0.889-3.562c-0.992-2.28-1.607-4.793-3.224-6.749c-1.276-1.599-2.553-3.238-4.229-4.447c-1.081-0.848-2.271-1.582-3.57-1.984c-1.608-0.517-3.223-1.103-4.913-1.183c-2.156-0.188-4.373-0.083-6.426,0.638c-1.72,0.569-3.364,1.471-4.566,2.848c-1.291,1.461-2.459,3.04-3.514,4.686c-1.239,1.965-2.156,4.13-2.704,6.39c-0.405,1.512-1.151,2.924-1.347,4.492c-0.155,1.262-0.533,2.477-0.779,3.72c-0.496,2.753-0.422,5.585-0.541,8.378c-0.121,4.073-0.142,8.155-0.494,12.217c-0.185,1.662-0.551,3.402-1.694,4.69c-0.633,0.806-1.547,1.426-2.593,1.485c-1.244,0.094-2.646-0.117-3.513-1.105c-1.388-1.472-1.972-3.508-2.089-5.489c-0.095-1.942-0.254-3.877-0.313-5.821c-0.087-5,0.139-10.033-0.774-14.97c-0.429-2.189-1.004-4.363-1.63-6.51c-0.751-2.343-1.334-4.799-2.753-6.854c-1.381-2.135-2.739-4.337-4.631-6.057c-1.042-0.966-2.329-1.588-3.675-2.005C69.862,106.353,68.507,105.995,67.115,105.958L67.115,105.958z M66.245,111.065c2.255-0.026,4.642,0.211,6.562,1.503c2.686,1.651,4.78,4.208,5.915,7.148c0.98,2.229,1.582,4.593,2.29,6.916c0.489,1.829,0.634,3.728,0.933,5.593c0.524,3.76,0.883,7.543,1.075,11.335c0.07,2.338-0.231,4.67-0.565,6.978c-0.23,1.288-1.343,2.306-2.627,2.487c-1.139,0.204-2.167-0.541-2.972-1.257c-1.668-1.619-2.588-3.809-3.632-5.844c-1.528-3.091-2.976-6.342-5.452-8.806c-1.091-1.03-2.391-2.031-3.919-2.2c-2.06-0.253-4.287-0.021-6.043,1.185c-2.609,1.695-4.265,4.439-6.028,6.933c-0.787,1.097-1.559,2.217-2.468,3.216c-0.465,0.389-1.249-0.005-1.175-0.621c-0.214-2.728,0.406-5.426,0.664-8.129c0.529-4.23,0.928-8.535,2.358-12.579c1.047-2.845,1.908-5.802,3.464-8.427c1.079-1.688,2.623-3.105,4.435-3.97c1.687-0.749,3.519-1.115,5.336-1.379C65.012,111.084,65.629,111.067,66.245,111.065L66.245,111.065z M114.165,111.127c2.211-0.01,4.421,0.497,6.462,1.345c2.781,1.156,4.736,3.694,5.896,6.406c0.931,2.177,1.76,4.398,2.514,6.641c0.716,2.131,1,4.373,1.446,6.571c0.469,2.311,0.631,4.667,0.865,7.01c0.185,1.848,0.646,3.674,0.666,5.535c0.006,0.61-0.143,1.334-0.618,1.732c-0.436,0.365-0.984-0.234-1.275-0.599c-1.438-1.806-2.702-3.738-4.036-5.615c-1.54-2.167-3.464-4.276-6.094-5.039c-1.712-0.497-3.699-0.555-5.365,0.198c-1.613,0.729-2.885,2.069-3.973,3.444c-2.133,2.697-3.296,5.986-4.904,8.999c-0.883,1.656-1.858,3.357-3.391,4.493c-0.869,0.644-1.397,0.814-1.967,0.822c-1.285,0.019-2.343-0.653-2.725-1.902c-0.618-2.024-0.507-4.153-0.592-6.232c-0.188-4.615,0.171-9.248,1.001-13.793c0.335-1.834,0.55-3.699,1.045-5.497c0.384-1.394,0.883-2.743,1.327-4.117c0.626-1.935,1.555-3.789,2.75-5.439c1.733-2.393,4.307-4.337,7.27-4.82C111.686,111.071,112.933,111.133,114.165,111.127z M62.107,137.998c1.728-0.001,3.415,0.814,4.523,2.137c1.317,1.452,2.414,3.094,3.409,4.78c0.848,1.509,1.363,3.171,1.776,4.843c0.242,0.82,0.67,1.713,0.402,2.575c-0.286,0.249-0.693-0.041-1.029,0.032c-1.737-0.099-3.455-0.34-5.195-0.368c-2.461-0.171-4.923-0.212-7.391-0.164c-2.857,0.01-5.715,0.094-8.571,0.123c-0.349,0.015-0.632-0.301-0.514-0.648c0.171-1.067,1.14-1.739,1.533-2.711c1.332-2.556,2.855-5.051,4.919-7.085c1.465-1.532,3.172-3.052,5.325-3.44C61.562,138.026,61.834,138,62.107,137.998z M117.52,138.335c0.585,0.234,1.338,0.401,1.987,0.603c1.187,0.388,2.474,0.682,3.458,1.493c1.128,1.069,2.05,2.327,3.055,3.506c1.097,1.478,1.958,3.113,2.916,4.68c0.416,0.817,0.902,1.601,1.288,2.43c0.166,0.365,0.029,0.883-0.426,0.925c-0.681,0.131-1.37-0.109-2.058-0.035c-4.366-0.049-8.734-0.3-13.098-0.076c-1.762,0.034-3.508,0.249-5.255,0.492c-0.553,0.049-1.112,0.055-1.663,0.08c-0.382-0.121-0.187-0.642-0.192-0.936c0.182-1.074,0.688-2.053,0.898-3.111c0.773-2.766,2.381-5.201,4.112-7.456c0.687-0.799,1.412-1.645,2.378-2.104c0.822-0.29,1.704-0.441,2.565-0.501L117.52,138.335z M59.218,153.24c3.844-0.018,7.625,0.761,11.397,1.387c1.679,0.209,3.34,0.536,5.019,0.748c2.247,0.448,4.499,0.898,6.768,1.186c0.363,0.133,0.904,0.31,0.949,0.758c-0.116,0.37-0.614,0.411-0.934,0.505c-1.621,0.228-3.058-0.787-4.62-0.952c-1.457-0.184-2.943-0.221-4.392-0.495c-2.09-0.343-4.209-0.366-6.304-0.699c-0.974-0.095-1.893-0.468-2.867-0.423c-1.651-0.14-3.262-0.549-4.917-0.626c-2.04-0.159-4.092-0.385-6.134-0.387c-1.166,0.063-2.333,0.143-3.498,0.216c-0.355,0.041-0.841,0.161-1.104-0.149c-0.025-0.355,0.495-0.258,0.709-0.366c1.769-0.44,3.588-0.618,5.407-0.634C56.203,153.264,57.711,153.248,59.218,153.24L59.218,153.24z M127.754,153.292c1.155,0.037,2.331,0.482,3.416,0.855c0.267,0.092,0.053,0.432-0.197,0.42c-1.401-0.062-2.787-0.214-4.189-0.217c-0.914-0.002-1.829-0.033-2.742,0.007l-2.014,0.09c-2.77,0.123-5.509,0.587-8.264,0.916c-1.753,0.21-3.502,0.527-5.262,0.712c-1.574,0.165-3.13,0.459-4.702,0.645c-1.993,0.236-3.944,0.687-5.903,1.125c-0.465,0.104-1.249,0.096-1.37-0.45c-0.113-0.511,0.585-0.814,1.032-0.874c1.321-0.178,2.634-0.428,3.95-0.615c2.291-0.326,4.566-0.758,6.833-1.217c3.46-0.701,6.794-1.138,10.309-1.422c0.784-0.063,2.026-0.041,2.823-0.033C121.983,153.238,126.665,153.257,127.754,153.292L127.754,153.292z M55.256,155.785c2.659,0.038,5.276,0.58,7.906,0.913c1.957,0.285,3.914,0.687,5.852,1.001c0.637,0.064,1.483,0.039,1.853,0.668c0.059,0.47-0.555,0.614-0.709,1.005c-1.487,2.126-3.275,4.257-5.772,5.194c-1.749,0.541-3.74,0.445-5.359-0.453c-2.786-1.525-4.821-4.042-6.854-6.415c-0.399-0.396-1.097-0.866-0.88-1.521c0.273-0.482,0.945-0.272,1.389-0.307C53.537,155.765,54.398,155.787,55.256,155.785z M122.79,155.816c1.883,0.079,3.792-0.125,5.654,0.219c0.346,0.128,0.216,0.566-0.036,0.72c-2.079,2.436-3.991,5.134-6.761,6.847c-1.667,1.083-3.77,1.678-5.724,1.091c-2.211-0.616-3.934-2.287-5.257-4.096c-0.552-0.745-1.163-1.474-1.574-2.305c0.022-0.418,0.583-0.32,0.862-0.432c2.33-0.472,4.733-0.582,7.014-1.254c1.842-0.407,3.727-0.584,5.597-0.783C122.639,155.819,122.714,155.818,122.79,155.816L122.79,155.816z M141.051,160.068c0.794,0.159,1.411,0.781,1.96,1.341c1.5,1.875,2.283,4.365,1.892,6.759c-0.207,1.634-0.385,3.317-1.062,4.837c-0.613,1.325-1.949,2.386-3.457,2.319c-1.116,0.016-2.163-0.6-2.772-1.522c-1.17-1.658-1.364-3.748-1.69-5.693c-0.282-1.737,0.047-3.532,0.821-5.103c0.415-0.78,0.836-1.616,1.538-2.177c0.685-0.481,1.601-0.477,2.373-0.47C140.684,160.171,140.864,160.048,141.051,160.068L141.051,160.068z M40.107,160.33c1.313,0.006,2.299,1.111,2.816,2.22c0.704,1.28,1.144,2.73,1.036,4.203c-0.042,1.915-0.172,3.884-0.876,5.684c-0.371,0.807-0.924,1.528-1.529,2.172c-0.799,0.733-2.01,0.808-3.022,0.573c-1.555-0.394-2.52-1.902-2.884-3.38c-0.535-2.323-0.708-4.745-0.443-7.116c0.274-1.574,1.154-3.061,2.449-4.001C38.396,160.233,39.286,160.39,40.107,160.33L40.107,160.33z" />
</svg>
