<svg xmlns="http://www.w3.org/2000/svg" width="450px" height="300px" viewBox="0 0 450 300">
  <path fill="#012169" d="M0,0h450v300H0V0z" />
  <path fill="#FFFFFF" d="M225,37.5h-49.843L225,12.578V0h-25.157L131.25,34.297V0h-37.5v34.297L25.157,0H0v12.578L49.843,37.5H0V75h49.843L0,99.922V112.5l0,0h25.156L93.75,78.203V112.5h37.5V78.203l68.594,34.297H225V99.922L175.157,75H225V37.5z" />
  <path fill="#C8102E" d="M91.77,75l-75,37.5H0l0,0L75,75H91.77z M58.23,37.5H75L0,0v8.385L58.23,37.5z M123.75,112.5v-45H225V45H123.75V0h-22.5v45H0v22.5h101.25v45H123.75z M225,0h-16.77l-75,37.5H150L225,0z M166.77,75H150l75,37.5v-8.385L166.77,75z" />
  <g>
    <path fill="#F7E017" stroke="#000000" stroke-width="0.225" stroke-linejoin="round" d="M300.27,156.81c-4.8,4.065-9.375,10.005-10.5,15.375c-3.165,15.105-7.365,18.465-13.845,15.225c0,8.115,7.11,8.73,10.23,3.99c0,7.605,2.76,14.205,8.985,19.83c2.625,2.37,3.12,0.75,1.875-1.875s-1.245-11.1-3.735-15.96c3.99,2.865,9.855,1.245,9.36-6.615c-5.115,3-10.2,2.88-10.725-4.245C291.27,174.18,294.525,162.045,300.27,156.81L300.27,156.81z M294.195,96.735c0.345-3-0.3-6.075-2.49-8.01c-4.23-3.72-8.37-2.49-11.46,0.51c-4.62-2.49-7.065,6.345-12.3,4.86c0.87,2.865,2.25,4.11,4.86,3.12c-2.745,2.49,0,5.49-3.24,8.475c5.865,1.875,8.985-1.365,8.73-6.99c2.25,1.995,5.73,1.875,7.605-0.375c-3.12-1.005-3.135-3.705-1.875-6.24C285.9,88.35,294.69,88.5,294.195,96.735L294.195,96.735z M324.195,132.51c-3.735,10.35-13.965,17.715-18.585,18.84c-7.86,1.905-23.88,9.69-28.17,13.695c-0.631-0.123-1.232-0.368-1.77-0.72c-2.115-1.5-3.87-6.36-0.12-10.485c11.73-10.98,24.33-6.24,32.19-13.725c-6.615,3.495-18.705,1.995-19.83-6.615c10.948,2.846,22.572-0.614,30.18-8.985C319.455,126.03,323.445,130.77,324.195,132.51z" />
    <path fill="#337321" stroke="#000000" stroke-width="0.225" stroke-linejoin="round" d="M275.55,153.84c-9.54,8.925-3.24,16.71,0.495,18.465c-0.99,6.24,4.86,5.49,4.74,10.725c2.37-1.365,3-4.995,2.625-7.86c3,3.24,10.605-0.375,12.225,5.61c1.005-6.615-4.11-13.215-10.47-12.6c2.625-2.37,1.125-6.24-1.365-7.23c-0.495,4.86-5.985,4.86-8.115,3.375C273.555,162.825,271.8,157.965,275.55,153.84L275.55,153.84z" />
    <path fill="#F7E017" stroke="#000000" stroke-width="0.225" stroke-linejoin="round" d="M296.19,210.6c-1.035,0.6-0.96,1.935-0.315,2.805c1.305,1.74-0.93,5.7,3.3,6.555c1.245,0.255,2.205-0.51,2.685-1.935c1.305-3.93-2.865-4.365-3.24-6.24C298.245,209.91,297.06,210.105,296.19,210.6z M365.73,153.975c15.345,12.855,16.335,23.07,13.965,29.07c-1.245-5.61-7.605-14.34-14.22-16.59L365.73,153.975L365.73,153.975z" />
    <path fill="#337321" stroke="#000000" stroke-width="0.225" stroke-linejoin="round" d="M307.725,140.13c-6.615,3.495-18.705,1.995-19.83-6.615c-1.125-8.61,7.23-12.48,9.48-13.59c3.495-1.755,6.24,1.365,5.115,4.995c2.952-1.019,4.519-4.238,3.5-7.191c-0.156-0.453-0.37-0.885-0.635-1.284c5.115,0.375,9.855-3.495,11.85-8.985c-1.8,1.71-6.69,0.555-10.71,0.3c1.245-1.365,1.23-4.035,0.855-5.415c-4.23,4.35-10.35,2.355-18.45,14.955c1.245-4.365,3.615-13.095,4.995-18.84c0.135-0.57,0.24-1.14,0.315-1.725c0.48-8.235-8.295-8.385-10.17-4.635c2.055,2.31,0.975,5.01,0.24,9.105c-0.87,4.86-2.745,16.095-4.365,19.83c-0.495-5.865-4.365-6.24-5.115-9.105c-1.125,0.75-1.74,2.745-1.5,4.11c-1.38-1.5-6.12,0.375-7.86-1.875c-1.875,3.735,1.125,7.485,4.245,9.105c-1.815,0.12-2.25,2.31-4.245,2.31c2.685,3.12,5.43,4.365,8.61,4.62s5.55,1.44,7.485,5.295C284.655,141.75,296.535,145.8,307.725,140.13z M300.27,156.81c-5.925,5.025-9,17.37-8.37,25.725c0.18,2.325,0.825,3.9,1.815,4.86c0.435-4.74,3.735-16.995,12.15-22.455c7.11-4.62,18.21-14.97,22.335-26.82c-0.784-2.18-2.336-3.998-4.365-5.115C319.74,144.195,308.805,149.565,300.27,156.81z M320.385,127.71c-2.933,4.086-6.92,7.3-11.535,9.3c0.863-1.055,1.344-2.372,1.365-3.735c-5.865,2.25-17.595,1.995-22.335,0.255c10.948,2.846,22.571-0.614,30.18-8.985C319.08,125.655,319.95,126.645,320.385,127.71z M338.295,146.73h28.44v33.675c0,28.695-15.96,45.66-32.19,54.63c-16.215-8.985-32.19-25.95-32.19-54.63V146.73h19.965c-0.078,2.52,0.717,4.989,2.25,6.99C329.28,153.255,334.605,149.73,338.295,146.73z" />
    <path fill="#006EC7" stroke="#000000" stroke-width="0.225" stroke-linejoin="round" d="M366.735,146.73v33.675c0,8.655-1.455,16.26-3.93,22.875l-28.245-51.825l-28.245,51.825c-2.674-7.327-4.005-15.076-3.93-22.875V146.73H366.735L366.735,146.73z" />
    <path fill="#F7E017" d="M363.66,200.805c-0.614,1.876-1.315,3.723-2.1,5.535l-27-50.19l-27,50.19c-0.791-1.809-1.492-3.656-2.1-5.535l29.115-53.97L363.66,200.805L363.66,200.805z" />
    <path fill="#F7E017" stroke="#000000" stroke-width="0.225" stroke-linejoin="round" d="M347.385,219.27c0.75,0.375,2.13,1.065,2.745,1.32c1.5-3,1.74-7.23,1.245-10.98c-1.62,4.125-7.11,3.99-8.61,6.48c0.915,0.465,1.77,1.065,2.505,1.59c-1.875,1.875-6.255,5.01-8.745,5.76v-26.76c0-1.875-0.63-3.435-0.63-4.995v-5.535c0-1.245-0.255-3.06-1.365-3.06c-1.125,0-1.365,1.815-1.365,3.06v5.535c0,1.56-0.63,3.375-0.63,4.995v26.76c-1.365-3.99-6.75-2.625-9.24-6.615c0.979-0.257,2.003-0.298,3-0.12c-1.875-6.36-6.99-6.855-7.98-8.73c0,2.625-1.125,8.73,0.63,11.355c0.484-0.552,1.057-1.018,1.695-1.38c2.115,4.62,11.655,4.635,13.905,12.24C336.345,227.385,342.84,224.145,347.385,219.27L347.385,219.27z" />
    <path fill="#F7E017" stroke="#000000" stroke-width="0.225" stroke-linejoin="round" d="M334.545,197.01c2.115,0,8.85-0.69,11.295-0.69c0.63,0,1.155-0.945,1.155-2.115c0-1.17-0.51-2.115-1.155-2.115c-2.43,0-9.165-0.69-11.295-0.69c-2.115,0-8.85,0.69-11.295,0.69c-0.63,0-1.155,0.945-1.155,2.115c0,1.17,0.51,2.115,1.155,2.115C325.695,196.32,332.43,197.01,334.545,197.01z" />
    <path fill="#F7E017" stroke="#000000" stroke-width="0.225" stroke-linejoin="round" d="M333.18,186.045c-0.482-0.382-1.08-0.589-1.695-0.585c-1.41,0-2.565,1.05-2.565,2.34s1.14,2.34,2.565,2.34c1.41,0,2.55-1.05,2.55-2.34c0-1.005,1.455-1.005,1.455,0c0,2.025-1.8,3.66-4.005,3.66c-2.22,0-4.005-1.635-4.005-3.66c0-2.025,1.8-3.66,4.005-3.66c0.66,0,1.29,0.15,1.845,0.405C333.285,184.875,333.18,185.505,333.18,186.045L333.18,186.045z M323.265,196.32c0.63,0,1.14-0.945,1.14-2.115c0-1.17-0.51-2.115-1.14-2.115" />
    <path fill="#F7E017" stroke="#000000" stroke-width="0.225" stroke-linejoin="round" d="M324.195,196.32c0.63,0,1.14-0.945,1.14-2.115c0-1.17-0.51-2.115-1.14-2.115 M330.36,196.755c0.765,0,1.38-1.14,1.38-2.55c0-1.41-0.615-2.55-1.38-2.55 M331.785,196.86c0.795,0,1.44-1.2,1.44-2.67c0-1.47-0.645-2.67-1.44-2.67 M336.585,196.89c0.81,0,1.455-1.215,1.455-2.7s-0.66-2.7-1.455-2.7 M338.085,196.815c0.795,0,1.44-1.17,1.44-2.61c0-1.44-0.645-2.61-1.44-2.61 M344.79,196.35c0.645,0,1.17-0.96,1.17-2.16s-0.525-2.16-1.17-2.16 M320.64,217.95c0.826-0.507,1.727-0.882,2.67-1.11 M346.02,218.205l-0.735-0.525 M347.385,219.27c1.74-1.875,3.195-3.99,4.005-6.42" />
    <path fill="#FFFFFF" stroke="#000000" stroke-width="0.225" stroke-linejoin="round" d="M328.83,170.55c0-0.615,0.495-0.87,1.08-1.305c0.705-0.525,0.99-0.78,1.62-0.78h8.19c0.6,0,0.75,0.15,0.75,0.72V180.3c0,0.555-0.135,0.72-0.75,0.72h-10.89v-10.59" />
    <path fill="#E5E5E5" stroke="#000000" stroke-width="0.225" stroke-linejoin="round" d="M337.695,181.995c1.08,0,0.885-0.03,1.635-0.78c0.795-0.78,0.72-0.72,0.72-1.44V169.59c0-0.525-0.135-0.675-0.69-0.675h-7.575c-0.6,0-0.855,0.24-1.5,0.735c-0.54,0.405-0.99,0.66-0.99,1.23v11.115H337.695z" />
    <path fill="#FFFFFF" stroke="#000000" stroke-width="0.225" stroke-linejoin="round" d="M338.505,181.755c0,0.555-0.135,0.72-0.75,0.72h-8.19c-0.615,0-0.735-0.15-0.735-0.72v-11.13c0-0.555,0.135-0.72,0.735-0.72h8.19c0.615,0,0.75,0.15,0.75,0.72V181.755z" />
    <path fill="#96877D" stroke="#000000" stroke-width="0.225" stroke-linejoin="round" d="M354.375,140.205c1.618,1.757,2.101,4.28,1.245,6.51h-2.37c0.99-3,0.375-5.85-3.87-6.225c-6.345-0.555-13.725,11.73-24.825,13.215c-3.24-3.87-3.075-11.235,1.05-14.73c-2.13-6.135-6.615-12.885-9.735-15.795c-1.952-0.327-3.932-0.462-5.91-0.405c1.62-3.495,6.24-7.17,9.99-8.67c0.6-0.885,1.26-1.74,1.86-2.505c0.375-4.8,23.205-2.55,28.065,0.435C349.89,117.42,352.005,135.345,354.375,140.205z" />
    <path fill="#000000" d="M327.405,144.39c1.68,0,5.4-1.65,6.885-2.835c-1.305,1.875-5.085,3.18-7.515,3.675c-1.095,1.305-1.845,4.68-1.785,6.555c-0.165-2.31,0.555-7.935,1.725-8.295c-0.54-8.31-3.9-15.165-8.625-19.83c2.25,0.63,6.855,0.63,9.975-1.62c4.11-2.745,14.85-7.545,18.78-5.49c0.315,0.69,0.495,2.25,0.255,3.24c-0.93-2.49-11.295,1.365-14.22,2.55c-2.805,1.305-4.05,3.06-3.06,6.99c-1.62-1.365-1.065-2.685-2.745-3.675c0.675,1.62,1.23,4.545,1.425,6.915c-0.63-1.68-1.74-5.295-4.185-7.425C326.43,129.255,328.275,139.14,327.405,144.39z M351.03,124.71l-1.875,1.005c-0.06,1.005,2.055,10.425,2.43,11.73c-0.87-0.435-1.875-0.63-2.31-0.75c-0.555-1.56-1.425-5.415-2.115-8.79l-1.38,0.555c0.195,1.365,1.38,6.99,1.56,8.295c-1.44,0.24-3.06,0.87-3.81,1.245c4.92-1.335,8.775-0.09,10.845,2.205C352.95,137.25,351.765,129.825,351.03,124.71z" />
    <path fill="#96877D" stroke="#000000" stroke-width="0.225" stroke-linejoin="round" d="M353.265,146.73c0.99-3,0.375-5.85-3.87-6.225c-3.285-0.285-6.855,2.91-11.07,6.225H353.265z M325.695,119.85c-2.751,0.188-5.514-0.086-8.175-0.81c0.147-0.609,0.353-1.201,0.615-1.77c-1.305,0.87-3.795,2.58-4.74,3.765C316.395,121.665,322.575,121.98,325.695,119.85z" />
    <path fill="none" stroke="#000000" stroke-width="0.225" stroke-linejoin="round" d="M325.62,138.99c0.69,1.995,1.14,3.915,1.2,5.625 M319.965,114.12c-1.125,1.65-2.115,3.42-2.445,4.92c2.115,0.69,6.3,1.065,8.175,0.81 M315.885,123.195c0.81,0.135,1.56,0.285,2.205,0.465c2.25,0.63,6.855,0.63,9.975-1.62c3.12-2.25,11.595-9.225,21.21-9.975 M313.41,121.035c3,0.63,9.18,0.93,12.285-1.185c7.23-4.92,14.22-7.8,21.21-8.175" />
    <path fill="#337321" stroke="#000000" stroke-width="0.225" stroke-linejoin="round" d="M365.73,153.975c10.47,7.23,18.21,14.22,20.46,25.44c2.25,11.22,6.495,14.22,11.73,11.22c-1.245,6.48-7.74,7.23-13.215,2.25c0.495,7.485-2.49,16.47-10.23,19.71c-0.495-4.485,2.475-8.04,1.62-11.73c-0.375-1.62-0.495-5.37,1.62-7.11c-4.11,1.365-10.605-1.245-11.22-7.365c4.74,2.25,10.845,2.625,13.215-3.375C382.065,177.045,381.075,166.815,365.73,153.975L365.73,153.975z M378.96,95.595c3.24-8.475,11.73-7.605,14.595-3.99c8.355-4.74,9.48,5.985,16.59,3.87c-0.12,1.995-2.49,3.87-5.115,3.735c2.745,2.49-1.125,6.24,4.74,8.475c-4.995,2.49-11.97-0.12-13.845-6.99c-1.62,3.24-7.485,3.24-9.855,0.63c5.115-1.365,4.74-6.105,1.875-7.98C385.05,91.455,379.95,92.22,378.96,95.595z M353.655,114.27c2.325,7.5,7.14,14.49,12.33,19.245c5.985,5.49,15.03,4.11,20.085-1.125c0.12,10.44-10.695,11.25-16.71,7.98c-2.655-1.44-4.8-0.69-2.25,1.62c3.87,3.495,12.33,6.09,22.32,8.235c17.46,3.735,11.235,17.595,6.12,17.46c1.47-0.03,2.67-1.56,0.555-3.465c-15.15-13.635-45.96-8.265-45.465-38.7c-3.24,7.98-16.59,4.86-10.35-4.62c1.995,1.62,5.49,1.74,6.495-0.75c0.78-1.935,0.27-5.31-3.225-8.22c0.57-0.045,1.815,0,1.68-1.44c0.15,0.84,0.915,2.085,2.88,1.665c0.555,0.885,1.155,1.47,1.95,1.155c0.15-0.06,0.63-0.3,0.435-1.185C350.655,113.805,352.62,114.39,353.655,114.27L353.655,114.27z" />
    <path fill="#F7E017" stroke="#000000" stroke-width="0.225" stroke-linejoin="round" d="M369.345,140.37c7.23,4.74,15.42,4.74,22.95-3.99c2.37-2.745,6.105-5.115,8.73-5.37c2.625-0.255,2.49-2.745,4.485-3.24c-1.245-0.375-1.74-1.875-3.615-1.68c4.68-1.62,3.3-5.37,5.61-7.17c-1.875,0.69-4.8-2.115-7.485,1.44c0.69-1.62-0.255-3.555-0.93-4.305c0.255,1.875-3.675,2.25-4.425,6.99c-0.42,2.655-1.875,2.49-2.115-1.62c-0.18-3.015-1.62-11.355-3.36-15.585c-1.74-4.245-2.145-10.065,0.225-10.935c-0.365-0.617-0.868-1.141-1.47-1.53c-2.895-1.89-7.98-1.125-8.985,2.25c-3.24,8.475,5.865,13.35,5.115,22.575c-1.365-6.855-12.48-8.61-12.345-15.345c-3.615,1.62-3.12,4.62-1.74,6.99c-2.25-3.495-7.365,2.25-11.73-2.49c-0.495,6.24,4.995,8.61,9.48,8.85c-2.25,3.99,0.75,7.365,3.735,8.475c0.12-6.99,14.445-4.125,14.595,7.86C386.19,142.74,375.21,143.61,369.345,140.37L369.345,140.37z M389.43,150.225c17.46,3.735,11.235,17.595,6.12,17.46c-3.255-0.075-6.36-2.805-6.555-5.175c-3.735,1.995-2.745,5.925,0.12,7.485c-7.86-0.93-11.16,4.245-11.355,9.915c1.44-2.625,5.805-2.805,7.425-2.25c1.62,0.555,5.805,0.87,7.485-1.005c-1.38,1.185,0.87,3.93-1.065,6.045c6.555-0.255,9.42-6.36,8.295-9.045C408.39,165.945,406.77,153.345,389.43,150.225L389.43,150.225z M376.14,209.49c1.14,0.705,0.99,2.205,0.225,3.15c-1.545,1.89,0.78,6.405-3.975,7.17c-1.41,0.225-2.445-0.675-2.91-2.28c-1.29-4.44,3.39-4.74,3.885-6.825C373.875,208.635,375.18,208.89,376.14,209.49L376.14,209.49z" />
    <path fill="#F7E017" stroke="#000000" stroke-width="0.225" stroke-linejoin="round" d="M371.85,217.545c1.53,0.78,2.85,1.86,2.04,6.84c-0.345,2.07-0.42,7.095,1.395,7.23c-1.14,0.51-3.525,1.005-4.455-0.315c-1.005,1.53-3.105,0.99-3.87-0.99c-1.155,0.855-2.625-0.735-2.565-2.055c-1.005,0.585-2.91-0.39-2.31-3.36c-1.2,0.375-2.7-0.525-3.225-1.305c1.755-0.285,6.225-2.475,7.35-4.32C367.32,217.44,370.065,216.645,371.85,217.545L371.85,217.545z M299.745,217.965c-1.395,0.645-2.625,1.56-2.055,6.045c0.225,1.86,0.12,6.36-1.5,6.42c0.99,0.495,3.12,1.035,3.99-0.12c0.84,1.41,2.745,1.005,3.495-0.75c0.99,0.81,2.37-0.555,2.37-1.74c0.87,0.555,2.625-0.255,2.175-2.925c1.065,0.375,2.43-0.375,2.925-1.065c-1.56-0.315-5.49-2.43-6.42-4.11C303.795,218.025,301.365,217.215,299.745,217.965L299.745,217.965z M350.64,125.535c-0.21,12.78,5.1,19.26,12.465,23.46c-2.73-1.635-1.545-7.245-5.235-9.06c0.87-0.06,2.25,1.185,4.425,0.69c-1.065-2.37-2.805-5.985-6.855-6.48c1.065-0.12,3.375,0.255,4.86-0.315C358.185,130.575,352.575,132.135,350.64,125.535L350.64,125.535z M349.32,113.37c-0.45-0.15-0.825-0.6-1.2-1.185c-1.965,0.42-2.73-0.825-2.88-1.665c0.12,1.44-1.11,1.38-1.695,1.425c3.51,2.91,4.02,6.285,3.24,8.22c-1.005,2.49-4.485,2.37-6.495,0.75c-0.255,5.295,6.615,7.05,9.105,0.375c0,1.125,1.44,1.005,1.815,2.49C352.98,120.915,351.63,116.79,349.32,113.37L349.32,113.37z" />
    <path fill="#337321" stroke="#000000" stroke-width="0.225" stroke-linejoin="round" d="M338.355,88.05c-2.785-2.754-4.375-6.493-4.425-10.41c0.12-2.745,1.245-5.745,5.235-4.485c-1.245,0-0.375,2.49-1.68,2.745c1.065,0.375,2.49-0.495,2.685-1.065c0.255,0.87,1.875,0.63,1.995,1.62c0.63-0.495-0.06-2.925-0.99-3.435c0.69-0.375,1.065-2.31,0.75-3.24c-0.63,0.12-1.56,1.005-1.74,2.25c0.315-1.005-0.06-3.495-1.815-3.87c-0.495,0.69-0.63,2.37,0.06,3.3c-1.62-0.375-3.99,0.69-4.56,2.055c0.12-1.65,0.36-4.005,1.38-5.49c0.345-0.495-0.495-1.365-1.155-0.18c-1.215-2.37-4.455-3.615-5.895-2.43s-3.36-0.555-4.545,1.305c-1.185,1.875-5.205,2.07-4.995,4.05c0.12,1.185-0.165,3.015-0.75,3.675c-1.44,1.62,0.69,2.805,1.065,4.245c-0.255-4.74,7.29-13.965,14.85-10.35c-0.69,1.185-1.29,3.555-1.5,6.42c-0.315,4.245,0.315,10.23,4.425,13.725C336.75,88.485,338.355,88.05,338.355,88.05z" />
    <path fill="#C8102E" stroke="#000000" stroke-width="0.225" stroke-linejoin="round" d="M340.59,73.2c-0.045-1.125,1.905-2.58,4.515-2.55c3.15,0.03,5.58,2.895,8.1,2.625c2.52-0.285,1.275,1.125,0.75,1.5c-0.525,0.375-0.84,0.93-0.66,1.62c0.18,0.69-0.135,1.14-1.155,0.495c-2.25-1.41-4.485,0.555-7.455-0.525C342.15,75.405,340.665,74.88,340.59,73.2z" />
    <path fill="#96877D" stroke="#000000" stroke-width="0.225" stroke-linejoin="round" d="M327.75,102.645c-1.245-3.93-5.985-8.235-8.295-9.225l-0.12-2.115c1.245-0.495,4.245-2.865,5.61-4.185c9.36,4.485,22.08-1.875,27.945-8.475l2.25,1.365l-1.125,1.5l-1.185-0.63c-2.59,2.836-5.404,5.46-8.415,7.845c2.175,0.555,5.16,0.93,5.985,0.885c5.235-3.75,9.345-7.11,11.34-7.365l1.68,2.25l-1.5,1.065l-1.185-0.69c-5.61,4.62-11.97,14.715-14.475,21.45C342.78,105.57,330.3,106.065,327.75,102.645z" />
    <path fill="#337321" stroke="#000000" stroke-width="0.225" stroke-linejoin="round" d="M332.805,74.955c-1.44-1.995-5.385-2.625-6.24,0.06c-0.375,1.185-0.93,2.43-1.875,3c-0.93,0.555-0.72,2.265-0.315,3c0.99,1.815,0.12,3.555,2.055,4.74c0-1.44,2.115-2.925,3.93-3.3s4.545-1.995,4.92-3.81C335.67,76.815,336.3,75.315,332.805,74.955L332.805,74.955z" />
    <path fill="#96877D" stroke="#000000" stroke-width="0.225" stroke-linejoin="round" d="M323.82,92.91h0.495l0.015,3.405c0.107,0.035,0.208,0.085,0.3,0.15l2.94-1.695l0.255,0.435l-2.955,1.71c0.015,0.105,0.03,0.225,0.015,0.33l2.94,1.695l-0.255,0.435l-2.97-1.68c-0.079,0.082-0.177,0.144-0.285,0.18v3.39h-0.495V97.86c-0.107-0.035-0.208-0.085-0.3-0.15l-2.94,1.695l-0.255-0.435l2.955-1.71c-0.015-0.105-0.03-0.225-0.015-0.33l-2.94-1.695l0.255-0.435l2.955,1.695c0.079-0.082,0.177-0.144,0.285-0.18C323.82,96.315,323.82,92.91,323.82,92.91z" />
    <path fill="#96877D" stroke="#000000" stroke-width="0.225" stroke-linejoin="round" d="M328.26,101.25c-2.297,2.307-6.03,2.314-8.337,0.017c-2.307-2.297-2.314-6.03-0.017-8.337c2.297-2.307,6.03-2.314,8.337-0.017c0.183,0.182,0.354,0.377,0.512,0.582c-0.358,1.023-0.59,2.086-0.69,3.165c-0.215-2.226-2.195-3.857-4.421-3.641c-2.226,0.215-3.857,2.195-3.641,4.421c0.201,2.08,1.952,3.666,4.042,3.66c1.843-0.019,3.451-1.255,3.945-3.03C328.005,98.85,328.035,100.635,328.26,101.25L328.26,101.25z" />
    <path fill="#337321" stroke="#000000" stroke-width="0.225" stroke-linejoin="round" d="M321.57,106.875c-0.375-0.435-1.065-1.62-0.99-2.49c0.779,0.008,1.53,0.296,2.115,0.81c-0.06-0.63-0.315-1.995-0.18-2.625c1.052,0.392,1.966,1.086,2.625,1.995c-0.235-1.064-0.275-2.162-0.12-3.24c0.75,0.435,1.995,1.62,2.25,2.43c0.055-1.313,0.349-2.604,0.87-3.81c0.555,0.555,1.44,1.065,1.995,1.815c0.12-1.005,0.63-2.19,1.365-2.49c0.876,1.048,1.437,2.322,1.62,3.675c0.555-0.18,1.305-1.125,1.62-1.62c0.443,0.728,0.598,1.594,0.435,2.43c0.69-0.63,1.5-1.5,1.68-2.25c0.782,0.581,1.368,1.387,1.68,2.31c-0.12-0.81-0.06-2.25-0.315-3.06c0.929,0.464,1.612,1.306,1.875,2.31c0.255-0.87,0.81-2.43,1.305-2.805c0.566,0.968,0.886,2.06,0.93,3.18c0.315-0.63,0.81-1.74,1.305-1.995c0.435,0.69,0.375,2.19,0.255,3c0.466-0.651,1.058-1.201,1.74-1.62c0.091,0.556,0.091,1.124,0,1.68c0.555-0.315,1.5-1.995,1.815-2.865c0.928,0.628,1.578,1.59,1.815,2.685c0.89-0.488,1.659-1.17,2.25-1.995c0,0.435,0.195,1.62-0.06,2.55c0.375-0.375,0.75-1.125,0.93-1.44c0.255,0.63,0.06,2.115-0.195,2.925c0.523-0.462,1.18-0.746,1.875-0.81c0.06,1.065-0.69,2.925-1.38,4.305C346.71,108.195,334.17,107.565,321.57,106.875z" />
    <path fill="#F7E017" d="M342.45,73.845c-0.03-0.465,0.99-1.5,2.835-1.485c2.205,0.015,4.245,1.635,6,1.515c1.77-0.12,0.9,0.465,0.525,0.615c-0.375,0.15-0.585,0.39-0.465,0.66c0.135,0.285-0.09,0.465-0.81,0.21c-1.575-0.57-3.15,0.225-5.22-0.21C343.53,74.745,342.495,74.535,342.45,73.845L342.45,73.845z" />
    <path fill="#F7E017" stroke="#000000" stroke-width="0.225" stroke-linejoin="round" d="M323.505,110.625c-1.875,2.25-3.735,1.875-4.11,0.435s1.005-2.115,0.495-3.375c-0.495-1.245,0.81-1.815,1.44-1.245c0.63,0.555,2.625-1.245,3.495,0.63s1.56,3.18,1.065,3.93C325.38,111.75,323.88,111.375,323.505,110.625L323.505,110.625z M331.545,107.25c-0.345-0.825,1.59-2.4,2.595-1.275c1.005,1.125,2.565-1.215,3.435,0.555c0.87,1.785,1.155,2.715,1.59,3.705c0.435,1.005-2.37,1.53-3.24,0.66c0.12,0.585-2.43,1.05-3.12-0.63C332.43,109.38,332.025,108.345,331.545,107.25L331.545,107.25z M344.52,108.285c-0.465-0.87,1.815-2.115,3-0.525c0.315-0.66,2.565-0.78,2.715,1.125l0.285,3.78c0.06,0.75-1.365,1.44-2.4-0.465c-1.845,0.375-2.685-0.66-2.895-1.74C345.094,109.705,344.857,108.973,344.52,108.285L344.52,108.285z" />
    <path fill="#337321" stroke="#000000" stroke-width="0.225" stroke-linejoin="round" d="M324.72,107.04c-0.285-0.63,1.59-1.875,2.865-0.93c1.275,0.93,3.045-0.81,3.81,0.87c1.53,3.405,1.62,3.645,1.155,4.305c-0.465,0.66-2.46,0.405-2.97-0.495c-0.09,0.63-1.815,0.525-2.715,0.03C325.845,110.25,325.125,108.165,324.72,107.04L324.72,107.04z M337.845,107.19c-0.435-0.96,2.49-1.815,3.78-0.12c0.66-0.6,2.085-0.63,2.895,1.215c0.81,1.845,0.93,2.865,0.345,3.33c-0.42,0.33-1.935,0.585-2.43-0.255c-0.69,0.435-2.805,0.06-3.27-1.125C338.7,109.065,338.295,108.03,337.845,107.19L337.845,107.19z M350.265,109.035c-0.06-0.87,1.53-1.275,2.115,0c0.6,1.275,2.49,0.12,2.655,2.25c0.03,0.405-0.225,1.965-0.81,2.715c-0.585,0.75-3.495,0-3.675-1.59C350.402,111.29,350.307,110.164,350.265,109.035L350.265,109.035z" />
    <path fill="none" stroke="#000000" stroke-width="0.225" stroke-linejoin="round" d="M278.13,91.8c0.63-0.93,1.335-1.8,2.115-2.565 M301.86,108.315c1.095-0.63,2.775-0.705,4.635-0.585 M300.18,230.31c-0.435-0.63-0.6-3.24-0.285-4.83 M303.675,229.56c-1.131-1.047-1.908-2.421-2.22-3.93 M306.045,227.82c-0.87-0.405-3-3.15-3.465-4.92 M308.22,224.88c-2.224-0.92-4.132-2.468-5.49-4.455 M344.415,88.725c-0.668-0.151-1.317-0.378-1.935-0.675c-1.005,0.93-3.495,1.74-6.675,1.875 M328.245,101.265c-0.84-4.65,0.495-9.795,2.865-11.355c5.175,3.435,14.04,3.435,19.275-0.315 M328.245,98.835c4.937,0.016,9.87,0.306,14.775,0.87c2.115,0.315,5.67,1.185,5.175,2.25 M330.09,98.175l1.155-1.14l-1.155-1.14l-1.14,1.125L330.09,98.175z M370.815,231.315c0.51-0.675,0.81-3.6,0.525-5.385 M366.96,230.325c1.31-1.116,2.233-2.618,2.64-4.29 M364.38,228.27c0.99-0.42,3.48-3.39,4.08-5.355 M362.07,224.91c1.155-0.195,4.77-2.355,6.315-4.74 M323.505,110.625c-0.69-0.93-1.62-2.43-2.805-0.81 M329.595,110.775c-0.485-0.63-0.865-1.334-1.125-2.085 M335.925,110.91c-0.586-0.424-1.076-0.965-1.44-1.59 M335.355,107.625c1.095,0.12,1.845,1.155,2.175,1.62c0.345,0.465,1.065,1.305,1.62,1.41 M342.435,111.375c-0.375-0.6-0.75-1.125-0.84-1.56 M341.625,107.07c0.347,0.454,0.639,0.947,0.87,1.47 M348.105,112.185c-0.428-0.884-1.099-1.628-1.935-2.145 M347.865,108.75c0.06,1.845,2.52,1.965,2.625,3.27 M352.38,109.035c0.265,0.53,0.394,1.118,0.375,1.71" />
  </g>
</svg>
