<svg xmlns="http://www.w3.org/2000/svg" width="450px" height="300px" viewBox="0 0 450 300">
  <path fill="#283595" d="M0,0h450v300H0V0z" />
  <path fill="#FDF100" d="M0,0h450v171.429H0V0z" />
  <path fill="#EC1A23" d="M0,0h450v128.571H0V0z" />
  <g>
    <path fill="#FFFFFF" stroke="#000000" stroke-width="0.905" d="M27.738,111.92l0.058-34.216h-1.384l0.057-2.712h1.269l0.058-12.809l1.558-0.057l0.116-13.906l-4.559-6.059l-0.057-12.983h6.231l-0.058,6.521l3.174,0.057l0.057-6.636l5.829,0.058v6.405h2.596l-0.115-6.52l6.693,0.057v12.752l-4.731,6.751l0.116,13.502l10.977,0.014l0.043,8.366l3.549,0.014l-0.116-8.28h11.353l0.014,8.309l3.909,0.044l-0.058-8.41l11.727,0.029v8.367h3.779v-8.381l10.949-0.044l-0.086-13.661l-4.731-6.693l0.029-12.55h6.217l0.058,6.434l3.174,0.014l-0.014-6.476l5.77,0.014l0.043,6.419l2.669,0.029l-0.014-6.448l6.318,0.029l0.014,12.853l-4.457,6.448l0.086,13.545l1.833,0.014l0.057,12.983l0.894,0.014l0.044,2.481l-1.01,0.029l0.058,0.014l-0.014,34.793l-34.864-0.201l0.012-24.399l-0.166-2.338l-0.869-2.643l-2.25-2.049l-2.546-1.9l-3.329-0.721l-3.079,0.039l-3.189,0.768l-2.286,1.994l-1.967,2.393l-0.99,2.544l-0.056,1.639v24.554L27.738,111.92L27.738,111.92z" />
    <path fill="none" stroke="#000000" stroke-width="0.905" d="M44.571,62.052l-0.694,0.041l0.041,8.609l-3.916-0.041v-8.65l-10.649,0.081 M100.701,62.159l0.684-0.015l-0.021,8.436h3.631l-0.041-8.364l10.893-0.041 M87.619,112.151l-0.057-2.193h-4.789l5.309-0.057v-3.058l-5.366,0.057l4.674-0.057v-3.174l-4.5-0.058l5.077-0.086l-0.014-2.64h-5.193h4.601v-3.174l-4.573-0.029l5.279,0.029l0.014-3.231l-5.366,0.014l4.631-0.014l-0.014-3.275H82.7l5.323-0.014l-0.043-3.116l-5.251-0.014l3.924-0.014l0.044-3.924l-4.024,1.529l4.875-1.861l-2.019-3.577l-4.039,2.871l3.144-2.279l-2.38-2.9l-2.971,2.756l3.894-3.636l-3.664-2.596l-2.279,4.514l1.919-3.807l-4.356-0.996l-1.039,4.054l1.356-5.164l-2.784,0.014 M57.281,111.92l0.057-1.961h4.789l-5.309-0.058v-3.058l5.366,0.057l-4.674-0.057v-3.174l4.5-0.058l-5.077-0.086l0.014-2.64h5.193H57.54v-3.174l4.573-0.029l-5.279,0.029l-0.014-3.231l5.366,0.014l-4.631-0.014l0.014-3.275h4.631l-5.323-0.014l0.043-3.116l5.251-0.014l-3.924-0.014l-0.044-3.924l4.024,1.529l-4.875-1.861l2.019-3.577l4.039,2.871l-3.144-2.279l2.38-2.9l2.971,2.756l-3.894-3.636l3.664-2.596l2.279,4.514l-1.919-3.807l4.356-0.996l1.039,4.054l-1.356-5.164l2.784,0.014 M117.846,77.646L82.65,77.733 M117.674,75.108l-36.957,0.116 M27.738,77.704h34.707 M27.854,74.992l36.351,0.174" />
    <path fill="none" stroke="#000000" stroke-width="0.452" d="M68.07,70.78l0.058,3.751 M59.3,70.896v4.096 M50.529,70.838l0.058,4.559 M41.586,70.896l-0.058,4.269 M33.162,70.896v4.039 M76.841,70.78l-0.058,3.751 M85.611,70.896v4.096 M94.381,70.838l-0.058,4.559 M103.325,70.896l0.057,4.269 M111.749,70.896v4.039 M55.247,109.785l0.057,2.539 M45.842,109.785v2.424 M50.689,105.342l0.116,4.443 M55.074,101.073v4.385 M46.015,101.188l-0.057,4.212 M41.572,105.574l0.057,4.269 M37.302,109.786l0.058,2.423 M33.09,105.458l-0.057,4.212 M37.302,101.073l-0.057,4.443 M33.033,97.149l-0.116,4.039 M41.514,97.034v4.154 M50.516,97.034l0.115,4.212 M55.131,92.417v4.501 M50.516,88.321v4.039 M55.016,83.994l0.058,4.386 M45.957,83.994l0.057,4.443 M37.244,84.109v4.096 M33.033,79.609l-0.058,4.5 M41.514,79.666l-0.057,4.328 M50.574,79.608v4.443 M55.074,77.704l0.058,1.789 M46.073,77.762l0.057,1.731 M37.244,77.762l0.058,1.846 M45.957,92.476v4.443 M37.187,92.418v4.616 M33.206,88.205v4.155 M41.514,88.321l0.057,4.212 M89.65,109.785l-0.057,2.539 M99.055,109.785v2.424 M94.208,105.342l-0.115,4.443 M89.823,101.073v4.385 M98.882,101.188l0.057,4.212 M103.325,105.574l-0.058,4.269 M107.594,109.786l-0.057,2.423 M111.806,105.458l0.058,4.212 M107.594,101.073l0.058,4.443 M111.864,97.149l0.116,4.039 M103.382,97.034v4.154 M94.381,97.034l-0.116,4.212 M89.766,92.417v4.501 M94.381,88.321v4.039 M89.881,83.994l-0.057,4.386 M98.939,83.994l-0.057,4.443 M107.652,84.109v4.096 M111.864,79.609l0.057,4.5 M103.382,79.666l0.058,4.328 M94.324,79.608v4.443 M89.824,77.704l-0.059,1.789 M98.824,77.762l-0.058,1.731 M107.652,77.762l-0.057,1.846 M98.939,92.476v4.443 M107.71,92.418v4.616 M111.691,88.205v4.155 M103.382,88.321l-0.057,4.212 M63.714,66.626l0.029,4.284 M46.404,66.626v4.241 M37.576,66.569l-0.043,4.356 M81.514,66.626l-0.029,4.256 M98.824,66.626v4.299 M107.652,66.569v4.414 M117.465,109.726l-29.248,0.173 M117.581,105.456H87.515 M117.524,101.245H87.924 M117.465,97.091H88.276 M117.465,92.534l-30.067-0.058 M117.465,88.264l-29.424,0.116 M117.406,84.167L86.93,84.052 M117.579,79.667L83.83,79.552 M27.795,109.728l28.85,0.173 M27.68,105.458h29.657 M27.737,101.246h29.196 M27.795,97.091h28.793 M27.795,92.533l29.657-0.057 M27.795,88.264l29.023,0.115 M27.853,84.166l30.061-0.115 M27.911,79.666l33.061-0.115 M76.99,62.068l-0.057,4.616 M94.568,62.068l-0.058,4.616 M112.081,62.068l-0.058,4.616 M68.079,62.068l0.058,4.616 M50.501,62.068l0.058,4.616 M32.988,62.068l0.058,4.616 M27.766,70.896l89.975,0.007 M105.139,66.667l12.484-0.009 M89.951,66.668l11.216-0.01 M74.632,66.729l11.215-0.011 M59.372,66.689l11.216-0.011 M43.871,66.709l11.966-0.174 M27.755,66.791l11.966-0.174 M39.995,69.769l4.009-0.052 M39.873,66.26l4.009-0.051 M39.873,63.037l4.009-0.052 M40.795,62.918l0.086,3.418 M36.857,59.705L36.959,62 M36.838,52.934l0.083,3.344 M36.865,46.269l0.086,3.116 M40.754,56.227l0.086,3.418 M32.918,56.29l0.086,3.418 M40.696,49.419l0.086,3.418 M32.86,49.481l0.086,3.418 M40.754,42.783l0.086,3.418 M32.918,42.846l0.086,3.418 M44.539,39.777l0.086,3.116 M36.865,39.604l0.086,3.116 M29.018,39.719l0.086,3.117 M40.76,36.373l0.086,3.116 M32.912,36.431l0.086,3.116 M44.77,33.084l0.086,3.116 M36.894,33.084l0.086,3.116 M29.076,33.084l0.086,3.116 M29.477,59.806l15.09-0.157 M29.518,56.46l15.09-0.157 M29.559,52.91l15.09-0.157 M29.396,49.606l15.09-0.157 M28.199,46.416l18.096-0.144 M25.392,42.859l22.811-0.127 M24.905,39.714l24.317-0.122 M24.865,36.349l24.316-0.122 M42.817,33.084l4.16-0.054l2.041-0.027 M33.986,33.003l6.201-0.081 M24.864,33.125l6.202-0.081 M105.143,69.763l-4.009-0.051 M105.266,66.254l-4.01-0.051 M105.266,63.031l-4.01-0.052 M104.343,62.912l-0.086,3.418 M108.281,59.699l-0.101,2.296 M108.301,52.929l-0.084,3.344 M108.273,46.263l-0.086,3.116 M104.384,56.221l-0.086,3.418 M112.22,56.284l-0.086,3.418 M104.441,49.412l-0.086,3.418 M112.278,49.476l-0.086,3.418 M104.384,42.777l-0.086,3.418 M112.22,42.84l-0.086,3.418 M100.599,39.771l-0.086,3.116 M108.273,39.598l-0.086,3.117 M116.121,39.714l-0.086,3.116 M104.379,36.367l-0.086,3.116 M112.226,36.425l-0.086,3.116 M100.369,33.078l-0.086,3.117 M108.244,33.078l-0.086,3.117 M116.063,33.078l-0.086,3.117 M115.661,59.799l-14.888-0.157 M115.62,56.454l-14.844-0.171 M115.579,52.904l-14.816-0.113 M115.742,49.599l-15.089-0.157 M116.939,46.41l-17.764-0.129 M119.746,42.853l-23.057-0.127 M120.234,39.709l-24.316-0.122 M120.274,36.343L95.958,36.22 M102.322,33.079l-4.161-0.055l-2.041-0.026 M111.152,32.997l-5.869-0.024 M120.274,33.119l-6.201-0.081" />
    <path fill="#FFD211" stroke="#000000" stroke-width="0.173" d="M73.076,23.023c6.833,0.016,7.077,6.837,2.632,7.869c1.786-2.398,1.879-3.974,1.35-5.25c0.109,1.488-0.22,2.579-1.596,2.727c1.059-3.938-2.441-3.497-2.754-3.886L73.076,23.023z" />
    <path fill="#FFD211" stroke="#000000" stroke-width="0.181" d="M71.866,15.714h0.378v-0.893l0.52-0.005l-0.003-0.492l-0.528-0.005l-0.002-0.576l-0.38-0.003l0.005,0.581l-0.571-0.005l0.011,0.489l0.566,0.005L71.866,15.714L71.866,15.714z M74.302,22.976l1.586-2.395c3.086-3.375-2.259-6.051-3.808-3.058c-1.851-2.925-6.83-0.53-3.693,3.116l1.529,2.315L74.302,22.976L74.302,22.976z" />
    <path fill="#FFD211" stroke="#000000" stroke-width="0.204" d="M72.769,16.371c0.013,0.397-0.3,0.73-0.697,0.742s-0.73-0.3-0.742-0.697c0-0.015,0-0.03,0-0.045c0.013-0.397,0.345-0.709,0.742-0.697C72.451,15.686,72.757,15.992,72.769,16.371z" />
    <path fill="#FFD211" stroke="#000000" stroke-width="0.181" d="M68.445,20.697l7.329-0.058 M70.869,22.979h2.504l0.066,24.885c-0.739,0.096-1.919,0.079-2.499-0.061C70.94,38.782,70.901,33.664,70.869,22.979L70.869,22.979z" />
    <path fill="#FFD211" stroke="#000000" stroke-width="0.173" d="M77.14,39.073c-2.492,0.268-1.907-3.439,1.146-2.836c2.318,0.794,3.771,3.729,3.401,5.752c-3.809,20.807-33.316-4.076-10.793-9.353l0.028,1.036c-8.243,1.837-7.47,15.621,4.254,12.381l-0.109,1.636c1.944-0.049,8.264-6.923,1.691-10.145C76.52,37.964,76.806,38.512,77.14,39.073z" />
    <path fill="#FFD211" stroke="#000000" stroke-width="0.173" d="M70.936,40.852c-1.408,2.191-5.19,8.271-7.868,4.002c-0.539,1.818,1.819,7.046,7.868-3.006C70.909,41.825,70.946,40.853,70.936,40.852z M73.417,33.346c2.171-0.185,1.413,1.551,0.014,1.609c-7.307,1.251-6.211-6.236-3.846-7.746l-1.473-0.627c0.919-0.666,1.902-2.126,2.754-1.991l0.007-1.575c-0.907,0.111-1.779,0.891-2.543,1.793l0.081-2.018c-2.11,2.994-2.991,5.181-2.804,6.741c1.643,13.684,17.677,2.976,7.789,2.941L73.417,33.346L73.417,33.346z" />
  </g>
</svg>
