<svg xmlns="http://www.w3.org/2000/svg" width="450px" height="300px" viewBox="0 0 450 300">
  <path fill="#ED2939" d="M0,0h450v220H0V0z" />
  <path fill="#FFFFFF" d="M0,150h450v150H0V150z M116.6,128.3c-5.8,2-12.1,3.1-18.6,3.1c-31.2,0-56.4-25.3-56.4-56.4S66.9,18.6,98,18.6c6.5,0,12.8,1.1,18.6,3.1C88.1,22.9,65.5,46.3,65.5,75S88.1,127.1,116.6,128.3z M109.6,61h-9.5l-2.9-9.5L94.3,61h-9.5l7.7,5.8l-2.9,9.5l7.7-5.9l7.7,5.9l-3-9.5L109.6,61z M169.8,61h-9.5l-2.9-9.5l-2.9,9.5H145l7.7,5.8l-2.9,9.5l7.7-5.9l7.7,5.9l-3-9.5L169.8,61z M139.7,38.7h-9.5l-2.9-9.5l-2.9,9.5h-9.5l7.7,5.8l-2.9,9.5l7.7-5.9L135,54l-3-9.5L139.7,38.7z M120.9,96.7h-9.5l-2.9-9.5l-2.9,9.5h-9.5l7.7,5.8l-2.9,9.5l7.7-5.9l7.7,5.9l-3-9.5L120.9,96.7z M158.5,96.7H149l-2.9-9.5l-2.9,9.5h-9.5l7.7,5.8l-2.9,9.5l7.7-5.9l7.7,5.9l-3-9.5L158.5,96.7z" />
</svg>
