<svg xmlns="http://www.w3.org/2000/svg" width="450px" height="300px" viewBox="0 0 450 300">
  <path fill="#EE1C25" d="M0,150h450v150H0V150z" />
  <path fill="#0B4EA2" d="M0,45h450v155H0V45z" />
  <path fill="#FFFFFF" d="M0,0h450v100H0V0z" />
  <path fill="#FFFFFF" d="M196.7,70.5H73.2l-0.4,4c-0.1,0.9-2.3,22-2.3,68.3c0,21.8,7.4,41,21.9,57.1c10.2,11.3,23.5,20.8,40.6,29.1l2,0.9l2-0.9c17.2-8.3,30.4-17.8,40.6-29.1c14.5-16.1,21.9-35.3,21.9-57.1c0-46.4-2.2-67.5-2.3-68.3L196.7,70.5L196.7,70.5z" />
  <path fill="#EE1C25" d="M135,225c-24.7-11.9-60-35.5-60-82.1S77.2,75,77.2,75h115.5c0,0,2.2,21.2,2.2,67.9C194.9,189.5,159.6,213.1,135,225L135,225z" />
  <path fill="#FFFFFF" d="M140.2,130.6c6.7,0.1,19.7,0.4,31.3-3.5c0,0-0.3,4.2-0.3,9s0.3,9,0.3,9c-10.6-3.6-23.8-3.6-31.3-3.5v25.8h-10.6v-25.8c-7.5-0.1-20.7,0-31.3,3.5c0,0,0.3-4.2,0.3-9s-0.3-9-0.3-9c11.6,3.9,24.6,3.6,31.3,3.5v-16.2c-6.1-0.1-14.9,0.2-24.8,3.6c0,0,0.3-4.2,0.3-9s-0.3-9-0.3-9c9.9,3.3,18.7,3.6,24.8,3.6c-0.3-10.2-3.3-23.2-3.3-23.2s6.1,0.5,8.6,0.5s8.6-0.5,8.6-0.5s-3,12.9-3.3,23.2c6.1,0.1,14.8-0.2,24.8-3.6c0,0-0.3,4.2-0.3,9s0.3,9,0.3,9c-9.9-3.3-18.7-3.6-24.8-3.6V130.6L140.2,130.6z" />
  <path fill="#0B4EA2" d="M135,164.5c-12.4,0-19.1,17.2-19.1,17.2s-3.7-8.2-13.8-8.2c-6.9,0-11.9,6.1-15.1,11.8c12.5,19.9,32.4,32.1,48,39.6c15.7-7.5,35.6-19.8,48.1-39.6c-3.2-5.6-8.3-11.8-15.1-11.8c-10.1,0-13.8,8.2-13.8,8.2S147.4,164.5,135,164.5L135,164.5z" />
</svg>
