<svg xmlns="http://www.w3.org/2000/svg" width="450px" height="300px" viewBox="0 0 450 300">
  <path fill="#009739" d="M0,0h450v300H0V0z" />
  <path fill="#FFD100" d="M0,85.714h450v128.571H0V85.714z" />
  <path fill="#EF3340" d="M150,150L0,300V0L150,150z" />
  <path fill="#000000" d="M278.818,139.039l-30.171,21.921l11.525,35.469L230,174.508l-30.171,21.921l11.525-35.469l-30.171-21.921h37.294L230,103.571l11.524,35.468H278.818z M377.647,160.96l30.171-21.921h-37.294L359,103.571l-11.524,35.468h-37.294l30.171,21.921l-11.525,35.469L359,174.508l30.171,21.921L377.647,160.96z" />
</svg>
