<svg xmlns="http://www.w3.org/2000/svg" width="450px" height="300px" viewBox="0 0 450 300">
  <path fill="#00843D" d="M0,0h450v300H0V0z" />
  <path fill="#D22630" d="M53.999,0h81v300h-81V0z" />
  <path fill="#383739" d="M109.133,196.347h-2.428v-1.49h2.428V196.347z M116.393,186.521h5.588v5.297h5.641v7.548h-5.641v5.323h-5.588v5.853h-16.261l-5.641,3.39l-5.614-3.39h-16.26v-5.853h-5.588v-5.323h-5.667v-7.548h5.667v-5.297h5.588v-5.853h16.261l5.614-3.39l5.641,3.39h16.261L116.393,186.521L116.393,186.521z M94.606,186.1h5.404v-2.681h-5.404V186.1z M91.797,186.314v2.681h5.404v-2.681H91.797z M100.01,191.891v-2.681h-5.405v2.681H100.01z M94.606,199.313v2.681h5.404v-2.681H94.606z M94.392,191.891v-2.681h-5.405v2.681H94.392z M88.988,199.313v2.681h5.404v-2.681H88.988z M88.988,186.1h5.404v-2.681h-5.404V186.1z M86.178,188.995h5.404v-2.681h-5.404V188.995z M75.149,188.579c0.308-0.205,7.385-4.898,7.925-5.256h-7.925V188.579z M83.074,207.88l-7.925-5.256v5.256H83.074z M84.831,200.052h-8.667l4.333,2.71L84.831,200.052z M83.781,196.943v-2.681h-5.405v2.681H83.781z M84.831,191.152l-4.334-2.71l-4.333,2.71H84.831z M91.582,204.89v-2.681h-5.404v2.681H91.582z M94.392,205.104h-5.405v2.681h5.405V205.104z M97.201,204.89v-2.681h-5.404v2.681H97.201z M100.01,205.104h-5.405v2.681h5.405V205.104z M102.82,202.208h-5.405v2.681h5.405V202.208z M102.82,186.314h-5.405v2.681h5.405V186.314z M112.834,191.152l-4.334-2.71l-4.334,2.71H112.834z M105.217,194.262v2.681h5.405v-2.681H105.217z M104.167,200.052l4.333,2.71l4.333-2.71H104.167z M113.849,202.624c-0.308,0.205-7.385,4.898-7.925,5.256h7.925V202.624z M113.849,183.323h-7.925c0.54,0.358,7.616,5.052,7.925,5.256V183.323z M96.094,191.295h2.428v-1.49h-2.428V191.295z M90.476,185.504h2.428v-1.49h-2.428V185.504z M98.522,199.909h-2.428v1.49h2.428V199.909z M90.476,191.295h2.428v-1.49h-2.428V191.295z M92.904,199.909h-2.428v1.49h2.428V199.909z M87.666,204.294h2.428v-1.49h-2.428V204.294z M87.666,188.4h2.428v-1.49h-2.428V188.4z M92.904,205.7h-2.428v1.49h2.428V205.7z M79.865,196.347h2.428v-1.49h-2.428V196.347z M101.332,186.91h-2.428v1.49h2.428V186.91z M101.332,202.804h-2.428v1.49h2.428V202.804z M120.174,176.865v5.858h5.583v5.314h5.658v15.129h-5.658v5.314h-5.583v5.858H99.875l-3.57,2.145l1.715,1.03h7.238l0.625-0.704h-6.56l1.848-1.861h9.383l-4.251,4.426h-8.8l-3.006-1.806l-3.006,1.806h-8.799l-4.251-4.426h9.383l1.848,1.861h-6.56l0.624,0.704h7.238l1.715-1.03l-3.57-2.145H68.824v-5.858h-5.583v-5.314h-5.658v-15.129h5.658v-5.314h5.583v-5.858h20.299l3.57-2.145l-1.715-1.031H83.74l-0.624,0.704h6.56l-1.848,1.861h-9.383l4.251-4.426h8.799l3.006,1.806l3.006-1.806h8.8l4.251,4.426h-9.383l-1.848-1.861h6.56l-0.625-0.704h-7.238l-1.715,1.031l3.57,2.145H120.174z M117.638,185.249v-5.853h-17.161l-5.985-3.602l-5.985,3.602H71.345v5.853h-5.561v5.323h-5.667v10.064h5.667v5.323h5.561v5.853h17.161l5.985,3.575l5.985-3.575h17.161v-5.853h5.588v-5.323h5.667v-10.064h-5.667v-5.323H117.638z M98.522,205.7h-2.428v1.49h2.428V205.7z M93.285,204.294h2.428v-1.49h-2.428V204.294z M100.899,82.805l3.323,2.495l-2.896,2.174l-1.906-1.431l1.108-0.832l0.798,0.599l0.681-0.511l-2.215-1.663l-4.185,3.142l2.293,1.721h-2.215l-1.185-0.89l-1.185,0.89H91.1l2.293-1.721l-4.185-3.142l-2.215,1.663l0.681,0.511l0.798-0.599l1.108,0.832l-1.905,1.431L84.779,85.3l3.323-2.495l-3.323-2.495l2.897-2.174l1.905,1.43l-1.108,0.831l-0.798-0.599l-0.681,0.512l2.215,1.663l4.185-3.142l-2.293-1.721h2.215L94.501,78l1.185-0.89h2.215l-2.293,1.721l4.185,3.142l2.215-1.663l-0.681-0.512l-0.798,0.599l-1.108-0.831l1.906-1.43l2.896,2.174L100.899,82.805z M98.683,82.805l-4.185-3.142l-4.185,3.142l4.185,3.142L98.683,82.805z M102.523,82.805l1.947,1.293l1.947-1.293l-1.947-1.293L102.523,82.805z M95.713,186.91h-2.428v1.49h2.428V186.91z M122.11,0h-1.775l1.529,1.43L122.11,0z M107.813,81.382h7.654v2.86h-7.654v0.689l-6.859,4.476H88.03l-6.833-4.476v-0.689h-7.68v-2.86h7.68v-0.689l6.833-4.502h12.924l6.859,4.502C107.813,80.693,107.813,81.382,107.813,81.382z M107.589,81.584v-0.779l-6.689-4.392H88.097l-6.689,4.392v0.779h-7.666v2.44h7.666v0.78l6.689,4.392H100.9l6.689-4.392v-0.78h7.666v-2.44H107.589z M84.529,81.512l-1.947,1.293l1.947,1.293l1.947-1.293L84.529,81.512z M70.267,8.886h4.9l9.324-5.244h20.017l9.324,5.244h4.9l6.133,3.694v5.062l6.491,3.98v9.568l-6.49,3.98v5.062l-6.134,3.694h-4.9l-9.324,5.244H84.49l-9.324-5.244h-4.9l-6.134-3.694V35.17l-6.49-3.98v-9.568l6.49-3.98V12.58L70.267,8.886z M71.059,32.902l-0.923-0.611v-1.676l0.582-0.696h1.976v-2.545h-2.103l-1.664,1.689l1.126-0.009l-1.951,1.587l-1.086-0.94v-0.453l-2.33-2.842l2.331-2.843V23.11l1.086-0.94l1.951,1.587l-1.126-0.009l1.664,1.689h2.103v-2.545h-1.976l-0.582-0.696V20.52l0.923-0.611l-1.431-0.535l-2.353,1.633v0.427l-3.932,4.972l3.932,4.971v0.427l2.353,1.633L71.059,32.902z M70.786,33.355l4.862,3.012v-2.113l1.736-1.638v-1.883l-2.78,2.622C74.604,33.355,70.786,33.355,70.786,33.355z M70.84,35.872l1.205,0.743l1.436-1.338l-1.203-0.745L70.84,35.872z M74.035,39.554l-1.203-0.745l-1.438,1.34l1.205,0.743L74.035,39.554z M76.202,38.531l2.811-2.652h-1.629v-0.346l-2.226,2.1H71.34l4.862,3.012C76.202,40.645,76.202,38.531,76.202,38.531z M78.903,38.287l4.862,3.012v-2.113l2.556-2.411l-1.21-0.742l-2.391,2.255h-3.817V38.287z M80.162,41.547l1.436-1.338l-1.203-0.745l-1.438,1.34L80.162,41.547z M93.739,46.803l-2.19-1.607h-0.352l-2.2-1.848l1.132-1.545l0.224,0.722l1.446,0.968h0.421l1.329-0.885V41.21l-3.83-2.351l-3.842,4.443h-1.342l-2.558-1.343l-0.548,1.334l2.83,1.469h4.162l2.117,2.041H93.739z M94.391,32.952l-4.924-3.282l-2.716,2.562v2.406l-2.192-1.358l-1.598,1.489l-1.583-0.976l1.6-1.492l-2.055-1.273h4.484l2.523-2.381l-3.203-2.134h-9.704l3.414,2.67v5.621h6.717l9.235,5.667v-7.519H94.391z M81.676,21.57h3.818l2.621,2.473l1.17-0.78l-2.747-2.592v-2.113L81.676,21.57z M83.168,20.394l1.203-0.746l-1.436-1.338l-1.205,0.743L83.168,20.394z M94.392,26.513h-5.77v1.955h3.437v1.82h2.334L94.392,26.513L94.392,26.513z M96.94,24.344v-1.82h-2.334v3.774h5.77v-1.955L96.94,24.344L96.94,24.344z M107.32,31.241h-3.818l-2.621-2.472l-1.17,0.78l2.747,2.591v2.113L107.32,31.241z M105.828,32.417l-1.203,0.745l1.436,1.338l1.205-0.743L105.828,32.417z M94.606,26.513v3.774h2.334v-1.819h3.436v-1.955H94.606z M107.568,43.294l-0.547-1.334l-2.558,1.343h-1.342l-3.842-4.443l-3.83,2.351v1.398l1.328,0.885h0.421l1.447-0.968l0.224-0.722l1.132,1.545L97.8,45.196h-0.352l-2.19,1.607h3.201l2.117-2.041h4.162L107.568,43.294z M110.04,40.804l-1.438-1.34l-1.203,0.745l1.436,1.338L110.04,40.804z M110.094,38.287h-3.818l-2.391-2.255l-1.21,0.742l2.556,2.411v2.113l0,0l0,0l0,0L110.094,38.287z M117.602,40.149l-1.438-1.34l-1.203,0.745l1.436,1.338L117.602,40.149z M117.656,37.633h-3.818l-2.226-2.1v0.346h-1.629l2.811,2.652v2.113L117.656,37.633z M118.156,35.872l-1.438-1.34l-1.203,0.745l1.436,1.338L118.156,35.872z M118.211,33.355h-3.818l-2.78-2.622v1.883l1.736,1.638v2.113L118.211,33.355z M117.938,19.909l0.923,0.611v1.676l-0.582,0.696h-1.976v2.545h2.103l1.664-1.689l-1.126,0.009l1.951-1.587l1.086,0.94v0.453l2.331,2.843l-2.331,2.842v0.453l-1.086,0.94l-1.951-1.587l1.126,0.009l-1.664-1.689h-2.103v2.545h1.976l0.582,0.696v1.676l-0.923,0.611l1.431,0.535l2.353-1.633v-0.427l3.932-4.971l-3.932-4.972v-0.427l-2.353-1.633L117.938,19.909z M118.211,19.456l-4.862-3.012v2.113l-1.736,1.638v1.883l2.78-2.622H118.211z M118.156,16.94l-1.205-0.743l-1.436,1.338l1.203,0.745L118.156,16.94z M114.962,13.257l1.203,0.745l1.438-1.34l-1.205-0.743L114.962,13.257z M112.795,14.28l-2.811,2.652h1.629v0.346l2.226-2.1h3.818l-4.862-3.012V14.28z M110.094,14.524l-4.862-3.012l0,0l0,0l0,0v2.113l-2.556,2.411l1.21,0.742l2.391-2.255h3.817V14.524z M108.835,11.265l-1.436,1.338l1.203,0.745l1.438-1.34L108.835,11.265z M95.258,6.008l2.19,1.607H97.8l2.199,1.848l-1.132,1.545l-0.224-0.722l-1.447-0.968h-0.421l-1.328,0.885v1.398l3.83,2.351l3.842-4.443h1.342l2.558,1.343l0.547-1.334l-2.83-1.469h-4.162l-2.117-2.041H95.258z M94.606,19.86l4.923,3.281l2.715-2.562v-2.406l2.192,1.358l1.598-1.489l1.583,0.976l-1.6,1.492l2.055,1.273h-4.485l-2.523,2.38l3.202,2.134h9.704l-3.414-2.67v-5.621h-6.717l-9.234-5.667v7.521H94.606z M94.392,22.524h-2.334v1.819h-3.436v1.955h5.77V22.524z M81.429,9.518l0.548,1.334l2.558-1.343h1.342l3.842,4.443l3.83-2.35v-1.398l-1.328-0.885H91.8l-1.447,0.968l-0.224,0.722l-1.132-1.545l2.199-1.848h0.352l2.19-1.607h-3.201L88.42,8.05h-4.162L81.429,9.518z M78.957,12.008l1.438,1.34l1.203-0.745l-1.436-1.338L78.957,12.008z M78.903,14.524h3.818l2.391,2.255l1.21-0.742l-2.556-2.411v-2.113L78.903,14.524z M71.394,12.662l1.438,1.34l1.203-0.745L72.6,11.919L71.394,12.662z M71.34,15.178h3.818l2.226,2.1v-0.346h1.629l-2.811-2.652v-2.113L71.34,15.178z M70.84,16.94l1.438,1.34l1.203-0.745l-1.436-1.338L70.84,16.94z M70.786,19.456h3.818l2.78,2.622v-1.883l-1.736-1.638v-2.113L70.786,19.456z M94.499,84.098l1.947-1.293l-1.947-1.293l-1.947,1.293L94.499,84.098z M99.951,137.428h2.649v3.549h-2.649v1.895h-1.918v2.078h-7.066v-2.078h-1.918v-1.895h-2.65v-3.549h2.65v-1.896h1.918v-2.078h7.066v2.078h1.918V137.428z M94.392,139.31h-2.823v1.444l2.823,1.605V139.31z M97.429,137.652l-2.823-1.605v3.049h2.823V137.652z M92.893,96.724l1.542,1.137l0.064,0.047l1.606-1.184l-1.606-1.184L92.893,96.724z M96.094,185.504h2.428v-1.49h-2.428V185.504z M115.719,117.865v1.866h1.866v2.356h-1.878v3.109h3.934v-2.713h2.356v1.866h1.866v2.356h-1.88v2.034l3.627,2.304l1.54-1.19l1.591,0.185l0.764,1.081l-1.369,1.047l1.369,1.047l-0.764,1.081l-1.591,0.184l-1.54-1.19l-3.627,2.304v0.188l3.627,2.304l1.54-1.19l1.591,0.185l0.764,1.08l-1.369,1.047l1.369,1.047l-0.764,1.08l-1.591,0.185l-1.54-1.19l-3.627,2.304v0.188l3.627,2.304l1.54-1.19l1.591,0.185l0.764,1.08l-1.369,1.047l1.369,1.047l-0.764,1.08l-1.591,0.185l-1.54-1.19l-3.627,2.304v2.035h1.88v2.356h-1.866v1.866h-2.356v-2.714h-3.934v3.109h1.878v2.356h-1.866v1.866h-2.356v-2.714h-7.581l-1.576,1.53c0.141,0.137,1.391,1.351,1.391,1.351l-1.596,1.479c-0.542-0.525-1.084-1.052-1.625-1.578l0,0c-0.136,0.132-1.625,1.578-1.625,1.578l-1.597-1.479c0,0,1.251-1.214,1.392-1.351l-1.576-1.53h-1.065l-1.576,1.53c0.141,0.137,1.391,1.351,1.391,1.351l-1.596,1.479c-0.542-0.525-1.084-1.052-1.625-1.578l0,0c-0.136,0.132-1.625,1.578-1.625,1.578l-1.597-1.479c0,0,1.251-1.214,1.392-1.351l-1.576-1.53h-1.065l-1.576,1.53c0.141,0.137,1.392,1.351,1.392,1.351l-1.597,1.479c0,0-1.49-1.446-1.625-1.578c-0.542,0.526-1.083,1.052-1.625,1.578l-1.597-1.479c0,0,1.251-1.214,1.392-1.351l-1.576-1.53h-7.582v2.714h-2.356v-1.866h-1.866v-2.356h1.877v-3.109h-3.933v2.714H67v-1.866h-1.866v-2.356h1.88v-2.034l-3.626-2.304l-1.541,1.19l-1.591-0.185l-0.764-1.08l1.369-1.047l-1.37-1.047l0.764-1.08l1.591-0.185l1.54,1.19l3.627-2.304v-0.188l-3.627-2.304l-1.54,1.19l-1.591-0.185l-0.764-1.08l1.37-1.047l-1.369-1.047l0.764-1.08l1.591-0.185l1.541,1.19l3.626-2.304v-0.188l-3.627-2.304l-1.54,1.19l-1.591-0.184l-0.764-1.081l1.37-1.047l-1.369-1.047l0.764-1.081l1.591-0.185l1.541,1.19l3.626-2.304v-2.034h-1.88v-2.356h1.866v-1.866h2.356v2.713h3.933v-3.109h-1.877v-2.356h1.866v-1.866h2.356v2.714h7.582l1.576-1.53c-0.141-0.137-1.392-1.351-1.392-1.351l1.597-1.479c0.542,0.525,1.084,1.052,1.625,1.578c0.136-0.132,1.625-1.578,1.625-1.578l1.597,1.479c0,0-1.251,1.214-1.392,1.351l1.576,1.53h1.065l1.576-1.53c-0.141-0.137-1.392-1.351-1.392-1.351l1.597-1.479c0,0,1.49,1.446,1.625,1.578l0,0c0.542-0.526,1.083-1.053,1.625-1.578l1.596,1.479c0,0-1.251,1.214-1.391,1.351l1.575,1.53h1.066l1.576-1.53c-0.141-0.137-1.392-1.351-1.392-1.351l1.597-1.479c0,0,1.49,1.446,1.625,1.578l0,0c0.542-0.526,1.083-1.053,1.625-1.578l1.596,1.479c0,0-1.251,1.214-1.391,1.351l1.576,1.53h7.581v-2.714h2.355V117.865z M67.015,144.843l-2.203,1.4l2.203,1.399V144.843z M67.015,137.804l-2.203,1.399l2.203,1.4V137.804z M67.015,130.765l-2.203,1.399l2.203,1.399V130.765z M121.983,133.563l2.203-1.399l-2.203-1.399V133.563z M121.983,140.602l2.203-1.399l-2.203-1.399V140.602z M121.983,147.641l2.203-1.399l-2.203-1.399V147.641z M113.223,137.456h3.343l1.321-1.533l-1.321-1.533h-3.343V137.456z M107.044,122.775l5.508,4.079v-4.079H107.044z M101.637,120.579h1.478l-0.739-0.718L101.637,120.579z M99.526,125.545h3.066v-0.554l-1.533-1.321l-1.533,1.321C99.526,124.991,99.526,125.545,99.526,125.545z M93.76,120.579h1.478l-0.739-0.718L93.76,120.579z M92.966,125.545h3.066v-0.555l-1.533-1.321l-1.533,1.321C92.966,124.99,92.966,125.545,92.966,125.545z M87.939,123.67l-1.533,1.321v0.554h3.066v-0.554L87.939,123.67z M85.883,120.579h1.478l-0.739-0.718L85.883,120.579z M76.43,126.854l5.509-4.079H76.43V126.854z M69.227,132.151l5.191-3.814h-5.19l0,0L69.227,132.151L69.227,132.151z M74.417,150.08l-5.191-3.841v3.841H74.417z M75.775,140.95h-3.343l-1.321,1.533l1.321,1.533h3.343V140.95z M75.775,134.39h-3.343l-1.321,1.533l1.321,1.533h3.343V134.39z M81.912,155.614l-5.482-4.052v4.052H81.912z M82.919,152.648l-6.224-5.217v-16.447l6.224-5.217h-3.125v2.358H75.98v22.166h3.814v2.357L82.919,152.648L82.919,152.648z M87.361,157.827h-1.478l0.739,0.718L87.361,157.827z M89.471,152.861h-3.066v0.555l1.533,1.321l1.533-1.321C89.471,153.416,89.471,152.861,89.471,152.861z M95.238,157.827H93.76l0.739,0.718L95.238,157.827z M96.032,152.861h-3.066v0.555l1.533,1.321l1.533-1.321C96.032,153.416,96.032,152.861,96.032,152.861z M101.059,154.736l1.532-1.32v-0.555h-3.065v0.555L101.059,154.736z M103.116,157.827h-1.478l0.739,0.718L103.116,157.827z M110.858,146.875c-0.472-0.388-0.931-0.776-1.404-1.165c-0.12,0.109-1.006,0.927-1.006,0.927l-1.351-0.185l-0.556-0.98c0,0,0.824-0.824,0.953-0.953c-0.129-0.129-0.953-0.953-0.953-0.953l0.556-0.98l1.351-0.185c0,0,0.886,0.819,1.006,0.927l1.483-1.245v-0.45l-1.483-1.245c-0.12,0.109-1.006,0.927-1.006,0.927l-1.351-0.159l-0.556-1.006c0,0,0.824-0.825,0.953-0.953c-0.129-0.129-0.953-0.953-0.953-0.953l0.556-0.98l1.351-0.159c0,0,0.886,0.792,1.006,0.9c0.497-0.41,0.987-0.81,1.483-1.218v-0.477l-1.483-1.218c-0.12,0.109-1.006,0.9-1.006,0.9l-1.351-0.159l-0.556-0.98c0,0,0.824-0.825,0.953-0.953c-0.129-0.129-0.953-0.953-0.953-0.953l0.556-0.98l1.351-0.185c0,0,0.886,0.819,1.006,0.927c0.475-0.391,0.956-0.774,1.43-1.165c-0.182-0.153-5.503-4.612-5.561-4.661h-1.192l-1.774,1.721l1.139,1.006l-0.212,1.377l-1.218,0.53l-1.192-0.953l-1.192,0.953l-1.218-0.53l-0.212-1.377l1.139-1.006l-1.695-1.642l-1.721,1.642l1.139,1.006l-0.212,1.377l-1.192,0.53l-1.218-0.953l-1.192,0.953l-1.218-0.53l-0.212-1.377l1.165-1.006l-1.721-1.642l-1.721,1.642l1.165,1.006l-0.238,1.377l-1.192,0.53l-1.192-0.953l-1.218,0.953l-1.192-0.53l-0.212-1.377l1.139-1.006l-1.801-1.721H83.66c-0.058,0.048-5.301,4.438-5.535,4.635c0.473,0.392,0.93,0.801,1.404,1.192c0.12-0.108,1.033-0.927,1.033-0.927l1.351,0.185l0.53,0.98c0,0-0.824,0.824-0.953,0.953c0.13,0.129,0.953,0.953,0.953,0.953l-0.53,0.98l-1.351,0.159c0,0-0.913-0.792-1.033-0.9l-1.483,1.245v0.424c0.499,0.413,0.982,0.832,1.483,1.245c0.12-0.108,1.033-0.9,1.033-0.9l1.351,0.159l0.53,0.98c0,0-0.824,0.824-0.953,0.953c0.13,0.129,0.953,0.953,0.953,0.953l-0.53,1.006l-1.351,0.159c0,0-0.913-0.818-1.033-0.927l-1.483,1.245v0.45l1.483,1.245c0.12-0.108,1.033-0.927,1.033-0.927l1.351,0.185l0.53,0.98c0,0-0.824,0.824-0.953,0.953c0.13,0.129,0.953,0.953,0.953,0.953l-0.53,0.98l-1.351,0.185c0,0-0.913-0.818-1.033-0.927c-0.472,0.389-0.933,0.777-1.404,1.165c0.234,0.197,5.477,4.586,5.535,4.635h1.218l1.774-1.721l-1.139-1.006l0.212-1.377l1.192-0.503l1.218,0.953l1.192-0.953l1.192,0.503l0.238,1.377l-1.165,1.006l1.721,1.642l1.721-1.642l-1.165-1.006l0.212-1.377l1.218-0.503l1.192,0.953l1.218-0.953l1.192,0.503l0.212,1.377l-1.139,1.006l1.695,1.668l1.721-1.668l-1.139-1.006l0.212-1.377l1.218-0.503l1.192,0.953l1.192-0.953l1.218,0.503l0.212,1.377l-1.139,1.006l1.774,1.721h1.192C105.381,151.461,110.624,147.071,110.858,146.875z M112.552,151.563l-5.481,4.052h5.481V151.563z M113.004,128.125h-3.787v-2.358h-3.125l6.197,5.217v16.447l-6.197,5.217h3.125v-2.357h3.787V128.125z M116.566,144.016l1.321-1.533l-1.321-1.533h-3.343v3.066L116.566,144.016L116.566,144.016z M119.783,146.213l-5.217,3.867h5.217V146.213z M114.566,128.337l5.217,3.84v-3.84H114.566z M119.433,66.719v2.915h7.994v26.341h-7.994v2.915h-7.994v2.915h-7.994v2.915H85.553v-2.915h-7.994V98.89h-7.994v-2.915h-7.994V69.634h7.994v-2.915h7.994v-2.915h7.994v-2.915h17.891v2.915h7.994v2.915H119.433z M117.102,72.598l1.776,1.285l0.005-1.704h-1.78L117.102,72.598L117.102,72.598z M119.227,81.779v-1.404h-10.62l-7.468-4.899H87.871l-7.495,4.899H69.783v1.404h-3.522v2.039h3.522v1.404h10.593l7.495,4.926h13.268l7.468-4.926h10.62v-1.404h3.522v-2.039H119.227z M114.369,89.119v0.871l0.946-0.876l-2.317-2.317l-2.317,2.317l0.946,0.876v-0.871l1.068-1.068v2.872l-1.018,0.874l1.321,1.134l1.321-1.134l-1.018-0.874v-2.872L114.369,89.119z M97.145,93.758V94.6l1.516-1.246l-2.164-1.998l0.726-1.003h-5.446l0.725,1.003l-2.164,1.998l1.516,1.246v-0.842l1.289-1.103V95.4l-1.796,1.324l3.153,2.324l3.153-2.324L95.856,95.4v-2.745L97.145,93.758z M77.371,89.119v0.871l0.946-0.876L76,86.796l-2.317,2.317l0.946,0.876v-0.871l1.068-1.068v2.872l-1.018,0.874L76,92.93l1.321-1.134l-1.018-0.874V88.05L77.371,89.119z M74.629,76.49v-0.871l-0.946,0.876L76,78.812l2.317-2.317l-0.946-0.876v0.871l-1.068,1.068v-2.872l1.018-0.874L76,72.678l-1.321,1.134l1.018,0.874v2.872L74.629,76.49z M91.853,71.85v-0.842l-1.516,1.246l2.164,1.998l-0.725,1.003h5.446l-0.726-1.003l2.164-1.998l-1.516-1.246v0.842l-1.288,1.103v-2.745l1.796-1.324l-3.153-2.324l-3.153,2.324l1.796,1.324v2.745L91.853,71.85z M111.626,76.49v-0.871l-0.946,0.876l2.317,2.317l2.317-2.317l-0.946-0.876v0.871l-1.068,1.068v-2.872l1.018-0.874l-1.321-1.134l-1.321,1.134l1.018,0.874v2.872L111.626,76.49z M109.108,69.947l1.983,1.26l0.005-1.881l1.902,1.708l1.902-1.708l0.005,1.881l1.982-1.26v-0.684h-7.779V69.947z M101.114,67.103l1.856,1.404l0.004-2.099l2.03,1.815l2.03-1.815l0.004,2.099l1.856-1.403v-0.755h-7.78V67.103z M88.099,64.093l2.562,2.335v-2.973l3.839,2.468l3.839-2.468v2.973l2.561-2.334v-0.66H88.1L88.099,64.093L88.099,64.093z M80.104,67.104l1.856,1.403l0.004-2.099l2.029,1.815l2.03-1.815l0.005,2.099l1.856-1.403v-0.755h-7.78V67.104z M72.11,69.947l1.983,1.26l0.005-1.881L76,71.034l1.902-1.708l0.005,1.881l1.983-1.26v-0.683h-7.78V69.947z M70.116,72.179l0.005,1.704l1.776-1.285V72.18L70.116,72.179L70.116,72.179z M65.897,93.429l-0.005-1.704l-1.776,1.286v0.418H65.897z M65.897,72.179h-1.781v0.419l1.776,1.285L65.897,72.179z M65.903,72.179l2.103,1.523l2.103-1.523H65.903z M70.109,93.429l-2.103-1.523l-2.103,1.523H70.109z M71.896,93.011l-1.776-1.286l-0.005,1.704h1.781V93.011z M79.89,95.661l-1.983-1.26l-0.005,1.881L76,94.574l-1.902,1.708l-0.005-1.881l-1.983,1.26v0.683h7.779L79.89,95.661L79.89,95.661z M87.884,98.505l-1.856-1.403l-0.005,2.099l-2.03-1.815l-2.029,1.815l-0.005-2.099l-1.856,1.403v0.755h7.78L87.884,98.505L87.884,98.505z M100.899,101.515l-2.561-2.334v2.973l-3.839-2.468l-3.839,2.468V99.18l-2.561,2.335v0.659h12.8L100.899,101.515L100.899,101.515z M108.893,98.505l-1.856-1.403l-0.004,2.099l-2.03-1.815l-2.03,1.815l-0.004-2.099l-1.856,1.403v0.755h7.78V98.505z M116.887,95.661l-1.983-1.26l-0.005,1.881l-1.902-1.708l-1.902,1.708l-0.005-1.881l-1.983,1.26v0.683h7.78V95.661z M118.883,93.429l-0.005-1.704l-1.776,1.286v0.419L118.883,93.429L118.883,93.429z M123.095,93.429l-2.103-1.523l-2.103,1.523H123.095z M123.102,72.179l0.005,1.704l1.775-1.285v-0.419H123.102z M123.102,93.429h1.78V93.01l-1.775-1.285L123.102,93.429z M118.889,72.179l2.103,1.523l2.103-1.523H118.889z M96.105,68.884L94.499,67.7l-0.064,0.047l-1.542,1.137l1.606,1.184L96.105,68.884z M128.829,156.225l-3.231,3.019l2.781,2.595l-1.854,1.721l-3.549-3.31l-7.786,7.15l7.786,7.15l3.549-3.284l1.854,1.695l-2.781,2.595l3.231,3.019l-1.536,1.457l7.707,7.177v-2.94l-4.555-4.237l1.536-1.457l-3.257-3.019l1.43-1.298v1.88h2.781v-2.251l-6.277-5.879h-3.178l-0.344,2.092h1.827l-1.986,1.854l-4.979-4.555l4.979-4.529l1.986,1.854h-1.827l0.344,2.066h3.178l6.277-5.879v-2.251h-2.781v1.88l-1.43-1.298l3.257-3.019l-1.536-1.43l4.555-4.264v-2.94l-7.707,7.203L128.829,156.225z M60.169,178.577l3.231-3.019l-2.781-2.595l1.854-1.695l3.549,3.284l7.786-7.15l-7.786-7.15l-3.549,3.31l-1.854-1.721l2.781-2.595l-3.231-3.019l1.536-1.43l-7.707-7.203v2.94l4.555,4.264l-1.536,1.43l3.257,3.019l-1.43,1.298v-1.88h-2.781v2.251l6.276,5.879h3.178l0.344-2.066h-1.827l1.986-1.854l4.979,4.529l-4.979,4.555l-1.986-1.854h1.827l-0.344-2.092h-3.178l-6.277,5.879v2.251h2.781v-1.88l1.43,1.298l-3.257,3.019l1.536,1.457l-4.555,4.237v2.94l7.707-7.177L60.169,178.577z M55.8,168.963h1.907l1.536-1.562l-1.536-1.536H55.8v-2.172l-1.801-1.827v11.07l1.801-1.827V168.963z M121.863,168.831l0.265-1.536l-0.265-1.51l-1.642,1.51L121.863,168.831z M67.135,165.785l-0.265,1.51l0.265,1.536l1.642-1.536L67.135,165.785z M55.8,225.362h1.907l1.536-1.562l-1.536-1.536H55.8v-2.172l-1.801-1.827v11.07l1.801-1.827V225.362z M121.863,225.229l0.265-1.536l-0.265-1.51l-1.642,1.51L121.863,225.229z M104.133,228.361l21.026,11.316v18.645l-21.026,11.315h-19.27l-21.026-11.315v-18.645l21.026-11.316h0.027H104.133z M87.969,241.923h0.065h5.755v3.973h-2.58v-1.589h0.999v-0.794h-2.701v1.519l4.99,3.041l4.99-3.041v-1.519h-2.701v0.794h0.999v1.589h-2.58v-3.973h5.821l-6.529-4.143L87.969,241.923z M79.146,240.035h2.074v-2.077h2.951v2.077h2.074v-5.453h-2.074v2.077H81.22v-2.077h-2.074V240.035z M77.29,250.157h-2.074v2.077h-2.951v-2.077h-2.074v5.452h2.074v-2.077h2.951v2.077h2.074V250.157z M77.29,242.39h-2.074v2.077h-2.951v-2.077h-2.074v5.452h2.074v-2.077h2.951v2.077h2.074V242.39z M86.246,257.964h-2.074v2.077H81.22v-2.077h-2.074v5.452h2.074v-2.077h2.951v2.077h2.074v-5.452H86.246z M87.928,253.312H85.08v-4.052h2.971v1.589h-1.39v0.874h1.848L92.976,249l-4.468-2.723H86.66v0.874h1.39v1.589h-2.97v-4.052h2.848v-2.738l-2.083,1.321h-2.669v11.458h2.669l2.083,1.321V253.312z M101.028,256.077h-5.821v-3.973h2.58v1.589h-0.999v0.794h2.701v-1.519l-4.99-3.041l-4.99,3.041v1.519h2.701v-0.794h-1v-1.589h2.58v3.973h-5.82l6.53,4.143L101.028,256.077z M101.069,256.05l2.083-1.321h2.669v-11.458h-2.638h-0.031l-2.083-1.321v2.738h2.848v4.052h-2.971v-1.589h1.39v-0.874h-1.848L96.021,249l4.468,2.723h1.848v-0.874h-1.39v-1.589h2.971v4.053h-2.848L101.069,256.05z M109.851,257.964h-2.074v2.077h-2.951v-2.077h-2.074v5.452h2.074v-2.077h2.951v2.077h2.074V257.964z M111.707,247.842h2.074v-2.077h2.951v2.077h2.074v-5.452h-2.074v2.077h-2.951v-2.077h-2.074V247.842z M111.707,255.609h2.074v-2.077h2.951v2.077h2.074v-5.452h-2.074v2.077h-2.951v-2.077h-2.074V255.609z M104.826,236.66v-2.077h-2.074v5.453h2.074v-2.077h2.951v2.077h2.074v-5.453h-2.074v2.077H104.826z M67.135,109.387l-0.265,1.51l0.265,1.536l1.642-1.536L67.135,109.387z M133.198,165.865h-1.907l-1.536,1.536l1.536,1.562h1.907v2.145l1.801,1.827v-11.07l-1.801,1.827V165.865z M128.829,212.623l-3.231,3.019l2.781,2.595l-1.854,1.721l-3.549-3.31l-7.786,7.15l7.786,7.15l3.549-3.284l1.854,1.695l-2.781,2.595l3.231,3.019l-1.536,1.457l7.707,7.177v-2.94l-4.555-4.237l1.536-1.457l-3.257-3.019l1.43-1.298v1.88h2.781v-2.251l-6.277-5.879h-3.178l-0.344,2.092h1.827l-1.986,1.854l-4.979-4.555l4.979-4.529l1.986,1.854h-1.827l0.344,2.066h3.178l6.277-5.879v-2.251h-2.781v1.88l-1.43-1.298l3.257-3.019l-1.536-1.43l4.555-4.264v-2.94l-7.707,7.203L128.829,212.623z M121.863,56.033l0.265-1.536l-0.265-1.51l-1.642,1.51L121.863,56.033z M133.198,53.067h-1.907l-1.536,1.536l1.536,1.562h1.907v2.145l1.801,1.827v-11.07l-1.801,1.827V53.067z M128.829,43.428l-3.231,3.019l2.781,2.595l-1.854,1.721l-3.549-3.31l-7.786,7.15l7.786,7.15l3.549-3.284l1.854,1.695l-2.781,2.595l3.231,3.019l-1.536,1.457L135,74.412v-2.94l-4.555-4.237l1.536-1.457l-3.257-3.019l1.43-1.298v1.88h2.781V61.09l-6.277-5.879h-3.178l-0.344,2.092h1.827l-1.986,1.854l-4.979-4.555l4.979-4.529l1.986,1.854h-1.827l0.344,2.066h3.178l6.277-5.879v-2.251h-2.781v1.88l-1.43-1.298l3.257-3.019l-1.536-1.43L135,37.732v-2.94l-7.707,7.203L128.829,43.428z M131.98,11.176l-3.257-3.019l1.43-1.298v1.88h2.781V6.488l-6.277-5.879h-3.178l-0.344,2.092h1.827l-1.986,1.854L117.997,0h-2.807l7.786,7.15l3.549-3.284l1.854,1.695l-2.781,2.595l3.231,3.019l-1.536,1.457L135,19.809v-2.94l-4.555-4.237L131.98,11.176z M121.863,112.433l0.265-1.536l-0.265-1.51l-1.642,1.51L121.863,112.433z M133.198,109.466h-1.907l-1.536,1.536l1.536,1.562h1.907v2.145l1.801,1.827v-11.07l-1.801,1.827V109.466z M67.135,222.184l-0.265,1.51l0.265,1.536l1.642-1.536L67.135,222.184z M128.829,99.827l-3.231,3.019l2.781,2.595l-1.854,1.721l-3.549-3.31l-7.786,7.15l7.786,7.15l3.549-3.284l1.854,1.695l-2.781,2.595l3.231,3.019l-1.536,1.457l7.707,7.177v-2.94l-4.555-4.237l1.536-1.457l-3.257-3.019l1.43-1.298v1.88h2.781v-2.251l-6.277-5.879h-3.178l-0.344,2.092h1.827l-1.986,1.854l-4.979-4.555l4.979-4.529l1.986,1.854h-1.827l0.344,2.066h3.178l6.277-5.879v-2.251h-2.781v1.88l-1.43-1.298l3.257-3.019l-1.536-1.43L135,94.131v-2.94l-7.707,7.203L128.829,99.827z M60.62,229.361l1.854-1.695l3.549,3.284l7.786-7.15l-7.786-7.15l-3.549,3.31l-1.854-1.721l2.781-2.595l-3.231-3.019l1.536-1.43l-7.707-7.203v2.94l4.555,4.264l-1.536,1.43l3.257,3.019l-1.43,1.298v-1.88h-2.781v2.251l6.276,5.879h3.178l0.344-2.066h-1.827l1.986-1.854L71,223.802l-4.979,4.555l-1.986-1.854h1.827l-0.344-2.092H62.34l-6.277,5.879v2.251h2.781v-1.88l1.43,1.298l-3.257,3.019l1.536,1.457l-4.555,4.237v2.94l7.707-7.177l-1.536-1.457l3.231-3.019L60.62,229.361z M133.198,222.263h-1.907l-1.536,1.536l1.536,1.562h1.907v2.145l1.801,1.827v-11.07l-1.801,1.827V222.263z M67.135,52.988l-0.265,1.51l0.265,1.536l1.642-1.536L67.135,52.988z M60.169,11.176L63.4,8.157l-2.78-2.596l1.854-1.695l3.549,3.284L73.808,0h-2.807l-4.979,4.555l-1.986-1.854h1.827l-0.344-2.092h-3.178l-6.277,5.879v2.251h2.781v-1.88l1.43,1.298l-3.257,3.019l1.536,1.457l-4.555,4.237v2.94l7.707-7.177L60.169,11.176z M68.663,0h-1.775l0.247,1.43L68.663,0z M55.8,56.166h1.907l1.536-1.562l-1.536-1.536H55.8v-2.172l-1.801-1.827v11.07l1.801-1.827V56.166z M60.169,65.779L63.4,62.76l-2.781-2.595l1.854-1.695l3.549,3.284l7.786-7.15l-7.786-7.15l-3.549,3.31l-1.854-1.721l2.781-2.595l-3.231-3.019l1.536-1.43l-7.707-7.203v2.94L58.553,42l-1.536,1.43l3.257,3.019l-1.43,1.298v-1.88h-2.781v2.251l6.276,5.879h3.178l0.344-2.066h-1.827l1.986-1.854l4.979,4.529l-4.979,4.555l-1.986-1.854h1.827l-0.344-2.092h-3.178l-6.277,5.879v2.251h2.781v-1.88l1.43,1.298l-3.257,3.019l1.536,1.457l-4.555,4.237v2.94l7.707-7.177L60.169,65.779z M55.8,1.562h1.907L59.242,0h-5.243v5.535L55.8,3.708V1.562z M129.755,0l1.536,1.562h1.907v2.145l1.801,1.827V0H129.755z M55.8,112.565h1.907l1.536-1.562l-1.536-1.536H55.8v-2.172l-1.801-1.827v11.07l1.801-1.827V112.565z M60.169,122.178l3.231-3.019l-2.781-2.595l1.854-1.695l3.549,3.284l7.786-7.15l-7.786-7.15l-3.549,3.31l-1.854-1.721l2.781-2.595l-3.231-3.019l1.536-1.43l-7.707-7.203v2.94l4.555,4.264l-1.536,1.43l3.257,3.019l-1.43,1.298v-1.88h-2.781v2.251l6.276,5.879h3.178l0.344-2.066h-1.827l1.986-1.854l4.979,4.529l-4.979,4.555l-1.986-1.854h1.827l-0.344-2.092h-3.178l-6.277,5.879v2.251h2.781v-1.88l1.43,1.298l-3.257,3.019l1.536,1.457l-4.555,4.237v2.94l7.707-7.177L60.169,122.178z" />
  <path fill="#FFC72C" d="M125.53,188.241v-5.297h-5.561v-5.853H99.815l-3.933-2.377l2.079-1.251h7.389l1.006,1.139h-6.515l1.43,1.43h8.792l-3.84-3.999h-8.66l-3.059,1.849l-3.059-1.849h-8.66l-3.84,3.999h8.792l1.43-1.43h-6.541l1.006-1.139h7.415l2.076,1.253l-3.93,2.375H69.041v5.853h-5.588v5.297h-5.667v14.698h5.667v5.323h5.588v5.853h20.154l3.913,2.365l-2.059,1.237h-7.415l-1.006-1.112h6.541l-1.43-1.43h-8.792l3.84,3.999h8.66l3.059-1.849l3.059,1.849h8.66l3.84-3.999h-8.792l-1.43,1.43h6.515l-1.006,1.112h-7.389l-2.062-1.235l3.916-2.367h20.154v-5.853h5.561v-5.323h5.667v-14.698H125.53z M129.105,200.847h-5.667v5.323h-5.588v5.853h-17.32l-6.03,3.621l-6.047-3.621h-17.32v-5.853h-5.561v-5.323h-5.667V190.36h5.667v-5.323h5.561v-5.853h17.32l6.047-3.638l6.03,3.638h17.32v5.853h5.588v5.323h5.667V200.847z M53.999,35.112L53.999,35.112L53.999,35.112L53.999,35.112z M53.998,204.307L53.998,204.307L53.998,204.307L53.998,204.307z M67.293,53.412l-0.185,1.086l0.185,1.086l1.165-1.086L67.293,53.412z M53.999,49.386V59.82l1.589-1.589v-2.304h2.039l1.324-1.324l-1.324-1.324h-2.039v-2.304L53.999,49.386z M67.293,109.811l-0.185,1.086l0.185,1.086l1.165-1.086L67.293,109.811z M66.021,104.143l-3.549,3.31L60.3,105.44l2.781-2.595l-3.231-3.019l1.536-1.43l-7.388-6.885v2.33l4.873,4.555l-1.536,1.43l3.257,3.019l-1.96,1.827v-2.198h-2.357v1.96l6.171,5.747h2.86l0.291-1.642H63.48l2.542-2.383l5.297,4.846l-5.297,4.846l-2.542-2.357h2.119l-0.292-1.668h-2.86l-6.171,5.747v1.96h2.357v-2.198l1.96,1.827l-3.257,3.019l1.536,1.457l-4.873,4.529v2.331l7.389-6.859l-1.536-1.457l3.231-3.019l-2.781-2.595l2.172-2.013l3.549,3.31l7.442-6.859L66.021,104.143z M53.999,105.785v10.434l1.589-1.589v-2.304h2.039l1.324-1.324l-1.324-1.324h-2.039v-2.304L53.999,105.785z M94.391,7.698l-0.95,0.727l0.95,0.727V7.698z M66.022,4.846L63.48,2.489h2.119l-0.292-1.668h-2.86l-6.171,5.747v1.96h2.357V6.329l1.96,1.827l-3.257,3.019l1.536,1.457l-4.873,4.529v2.331l7.389-6.859l-1.536-1.457l3.231-3.019l-2.781-2.595l2.172-2.013l3.549,3.31L73.463,0h-2.144L66.022,4.846z M88.335,7.835l1.895-1.827h-5.091l-9.324,5.244h-4.861L66.557,13.9v5.05l-6.49,3.98v3.368h3.089l3.905-4.939v-0.465l2.491-1.729l0.046-0.032l0.812,0.303l1.68-1.041l-1.6-1.492l1.583-0.976l1.598,1.489l2.143-1.328l-0.739-0.698h-4.484l2.055-1.273l-1.601-1.492l1.583-0.976l1.598,1.489l2.192-1.358v2.406l2.909,2.744h5.538l0.059-0.036l-2.287-2.157h-4.484l2.055-1.273l-1.601-1.492l1.583-0.976l1.598,1.489l2.192-1.358v2.406l2.531,2.388l3.024-1.856L85.78,9.722h-1.191l-2.72,1.429l-0.711-1.733l3.05-1.583C84.208,7.835,88.335,7.835,88.335,7.835z M53.998,91.511L53.998,91.511L53.998,91.511L53.998,91.511z M121.872,0h-1.219l1.051,0.98L121.872,0z M74.393,25.437l2.99-2.339v-0.726l-2.865-2.703h-3.487l0.495,0.185l-1.177,0.78v1.483l0.468,0.56h2.091v2.759h1.485V25.437z M69.042,26.298l-1.059-1.197l-1.059,1.197H69.042z M77.384,17.572l-1.522-1.436v2.329l1.522,1.436V17.572z M66.021,47.744l-3.549,3.31L60.3,49.041l2.781-2.595l-3.231-3.019l1.536-1.43l-7.388-6.885v2.33l4.873,4.555l-1.536,1.43l3.257,3.019l-1.96,1.827v-2.198h-2.357v1.96l6.171,5.747h2.86l0.291-1.642H63.48l2.542-2.383l5.297,4.846l-5.297,4.846l-2.542-2.357h2.119l-0.292-1.668h-2.86l-6.171,5.747v1.96h2.357v-2.198l1.96,1.827l-3.257,3.019l1.536,1.457l-4.873,4.529v2.331l7.389-6.859l-1.536-1.457l3.231-3.019l-2.781-2.595l2.172-2.013l3.549,3.31l7.442-6.859L66.021,47.744z M111.613,35.239l1.522,1.436v-2.329l-1.522-1.436V35.239z M67.293,166.209l-0.185,1.086l0.185,1.086l1.165-1.086L67.293,166.209z M119.955,26.513l1.059,1.197l1.059-1.197H119.955z M114.603,27.374l-2.99,2.339v0.726l2.865,2.703h3.487l-0.496-0.185l1.177-0.78v-1.483l-0.468-0.56h-2.091v-2.759h-1.484V27.374z M100.662,44.976l-1.895,1.827h5.092l9.324-5.244h4.861l4.397-2.648v-5.05l6.491-3.98v-3.368h-3.09l-3.905,4.939v0.465l-2.537,1.76l-0.812-0.303l-1.68,1.041l1.6,1.492l-1.583,0.976l-1.598-1.489l-2.143,1.328l0.739,0.698h4.484l-2.055,1.273l1.6,1.492l-1.583,0.976l-1.598-1.489l-2.192,1.358v-2.406l-2.909-2.744h-5.538l-0.059,0.036l2.287,2.157h4.484l-2.055,1.273l1.6,1.492l-1.583,0.976l-1.598-1.489l-2.192,1.358v-2.406l-2.531-2.388l-3.024,1.856l3.755,4.342h1.191l2.72-1.429l0.711,1.733l-3.05,1.583h-4.126V44.976z M134.999,5.217V0h-4.952l1.324,1.324h2.039v2.304L134.999,5.217z M118.516,25.651h-3.987l-3.131-2.449v-6.057h-7.326l-8.84-5.425v-1.632l1.478-0.985h0.551l1.563,1.046l0.12,0.388l0.762-1.04l-1.987-1.669h-0.344l-2.482-1.821h-0.29v1.42l1.303,0.996l-1.303,0.996v2.668l9.295,5.704h6.871v5.731l3.548,2.774h5.35l1.345-1.52l1.345,1.52h1.588l-2.18-2.659v-0.432l-0.863-0.75l-1.387,1.08l0.814-0.007v0.27L118.516,25.651z M94.605,45.113l0.951-0.727l-0.951-0.727V45.113z M55.588,3.628V1.324h2.039L58.951,0h-4.952v5.217L55.588,3.628z M53.999,162.184v10.434l1.589-1.589v-2.304h2.039l1.324-1.324l-1.324-1.324h-2.039v-2.304L53.999,162.184z M68.345,0h-1.219l0.167,0.98L68.345,0z M94.391,40.722l-9.295-5.704h-6.871v-5.731l-3.547-2.774h-5.351l-1.345,1.521l-1.345-1.521h-1.588l2.18,2.659v0.432l0.863,0.75l1.387-1.08l-0.814,0.006v-0.27l1.814-1.849h3.987l3.131,2.449v6.057h7.326l8.839,5.425v1.632l-1.478,0.985h-0.551l-1.563-1.046l-0.12-0.388l-0.762,1.04l1.987,1.669h0.309l0,0h0.035l2.482,1.821h0.29v-1.421l-1.302-0.996l1.302-0.996V40.722z M66.021,174.26l7.442-6.859l-7.442-6.859l-3.549,3.31l-2.172-2.013l2.781-2.595l-3.231-3.019l1.536-1.43l-7.388-6.885v2.33l4.873,4.555l-1.536,1.43l3.257,3.019l-1.96,1.827v-2.198h-2.357v1.96l6.171,5.747h2.86l0.291-1.642H63.48l2.542-2.383l5.297,4.846l-5.297,4.846l-2.542-2.357h2.119l-0.292-1.668h-2.86l-6.171,5.747v1.96h2.357v-2.198l1.96,1.827l-3.257,3.019l1.536,1.457l-4.873,4.529v2.331l7.389-6.859l-1.536-1.457l3.231-3.019l-2.781-2.595l2.172-2.013L66.021,174.26z M53.998,147.909L53.998,147.909L53.998,147.909L53.998,147.909z M121.705,224.779l0.185-1.086l-0.185-1.086l-1.165,1.086L121.705,224.779z M134.999,147.91l-7.388,6.885l1.536,1.43l-3.231,3.019l2.781,2.595l-2.172,2.013l-3.549-3.31l-7.442,6.859l7.442,6.859l3.549-3.31l2.172,2.013l-2.781,2.595l3.231,3.019l-1.536,1.457l7.389,6.859v-2.331l-4.873-4.529l1.536-1.457l-3.257-3.019l1.96-1.827v2.198h2.357v-1.96l-6.171-5.747h-2.86l-0.292,1.668h2.119l-2.542,2.357l-5.297-4.846l5.297-4.846l2.542,2.383H123.4l0.291,1.642h2.86l6.171-5.747v-1.96h-2.357v2.198l-1.96-1.827l3.257-3.019l-1.536-1.43l4.873-4.555L134.999,147.91L134.999,147.91z M121.705,168.381l0.185-1.086l-0.185-1.086l-1.165,1.086L121.705,168.381z M134.999,91.511L134.999,91.511L134.999,91.511L134.999,91.511z M134.999,116.22v-10.434l-1.589,1.589v2.304h-2.039l-1.324,1.324l1.324,1.324h2.039v2.304L134.999,116.22z M134.999,204.308L134.999,204.308L134.999,204.308L134.999,204.308z M134.999,147.909L134.999,147.909L134.999,147.909L134.999,147.909z M134.999,172.618v-10.434l-1.589,1.589v2.304h-2.039l-1.324,1.324l1.324,1.324h2.039v2.304L134.999,172.618z M134.999,204.308l-7.388,6.885l1.536,1.43l-3.231,3.019l2.781,2.595l-2.172,2.013l-3.549-3.31l-7.442,6.859l7.442,6.859l3.549-3.31l2.172,2.013l-2.781,2.595l3.231,3.019l-1.536,1.457l7.389,6.859v-2.331l-4.873-4.529l1.536-1.457l-3.257-3.019l1.96-1.827v2.198h2.357v-1.96l-6.171-5.747h-2.86l-0.292,1.668h2.119l-2.542,2.357l-5.297-4.846l5.297-4.846l2.542,2.383H123.4l0.291,1.642h2.86l6.171-5.747v-1.96h-2.357v2.198l-1.96-1.827l3.257-3.019l-1.536-1.43l4.873-4.555L134.999,204.308L134.999,204.308z M121.705,55.583l0.185-1.086l-0.185-1.086l-1.165,1.086L121.705,55.583z M131.663,11.176l-3.257-3.019l1.96-1.827v2.198h2.357v-1.96l-6.171-5.747h-2.86L123.4,2.489h2.119l-2.542,2.357L117.679,0h-2.144l7.442,6.859l3.549-3.31l2.172,2.013l-2.781,2.595l3.231,3.019l-1.536,1.457L135,19.491V17.16l-4.873-4.529L131.663,11.176z M134.999,35.112l-7.388,6.885l1.536,1.43l-3.231,3.019l2.781,2.595l-2.172,2.013l-3.549-3.31l-7.442,6.859l7.442,6.859l3.549-3.31l2.172,2.013l-2.781,2.595l3.231,3.019l-1.536,1.457L135,74.095v-2.331l-4.873-4.529l1.536-1.457l-3.257-3.019l1.96-1.827v2.198h2.357v-1.96l-6.171-5.747h-2.86l-0.292,1.668h2.119l-2.542,2.357l-5.297-4.846l5.297-4.846l2.542,2.383H123.4l0.291,1.642h2.86l6.171-5.747v-1.96h-2.357v2.198l-1.96-1.827l3.257-3.019l-1.536-1.43l4.873-4.555L134.999,35.112L134.999,35.112z M134.999,59.82V49.386l-1.589,1.589v2.304h-2.039l-1.324,1.324l1.324,1.324h2.039v2.304L134.999,59.82z M121.705,111.982l0.185-1.086l-0.185-1.086l-1.165,1.086L121.705,111.982z M134.999,91.512l-7.388,6.885l1.536,1.43l-3.231,3.019l2.781,2.595l-2.172,2.013l-3.549-3.31l-7.442,6.859l7.442,6.859l3.549-3.31l2.172,2.013l-2.781,2.595l3.231,3.019l-1.536,1.457l7.389,6.859v-2.331l-4.873-4.529l1.536-1.457l-3.257-3.019l1.96-1.827v2.198h2.357v-1.96l-6.171-5.747h-2.86l-0.292,1.668h2.119l-2.542,2.357l-5.297-4.846l5.297-4.846l2.542,2.383H123.4l0.291,1.642h2.86l6.171-5.747v-1.96h-2.357v2.198l-1.96-1.827l3.257-3.019l-1.536-1.43l4.873-4.555L134.999,91.512L134.999,91.512z M134.999,35.112L134.999,35.112L134.999,35.112L134.999,35.112z M104.616,291.118c-3.41-0.58-6.85-0.606-10.107,0.088c-3.257-0.694-6.696-0.668-10.107-0.088l0,0c-4.125,0.701-8.078,1.609-12.291,1.65c4.716,1.644,9.159,1.941,13.836,0.244c2.527-0.917,4.466-1.409,6.374-1.272c0.046,0.003,0.094,0.009,0.14,0.013c-2.581,0.822-5.012,2.14-7.172,4.065l1.475,1.18c2.82-2.974,5.435-4.334,7.745-4.912c2.31,0.578,4.925,1.938,7.745,4.912l1.475-1.18c-2.161-1.925-4.592-3.243-7.172-4.065c0.046-0.004,0.094-0.01,0.14-0.013c1.909-0.137,3.847,0.354,6.374,1.272c4.677,1.697,9.12,1.4,13.836-0.244C112.694,292.727,108.741,291.82,104.616,291.118L104.616,291.118z M81.379,290.898c-1.392-0.982-2.089-2.298-2.957-3.712c-1.13-1.766-2.197-3.025-4.395-3.309c0.882,0.992,1.396,2.22,2.058,3.355l0,0c0.568,0.973,1.318,1.792,2.247,2.438c-2.341,0.149-4.226-1.335-6.509-1.399c-1.41-0.04-2.749,0.398-4.186,0.267c1.706,1.151,3.493,2.157,5.57,2.426C75.91,291.312,78.4,290.632,81.379,290.898z M60.235,272.55c1.121,1.538,2.68,2.717,4.402,3.503c-0.339-1.347,0.297-2.361,1.003-3.43c0.85-1.287,1.265-2.551,0.572-4.033c-0.323,0.77-0.757,1.41-1.267,2.069c-0.753,1.028-1.249,1.942-1.365,3.26c-0.871-0.646-1.254-1.61-1.72-2.543c-0.71-1.336-1.856-2.454-3.172-3.184C59.037,269.691,59.307,271.276,60.235,272.55L60.235,272.55z M72.153,282.945c-0.598-1.063-1.261-2.111-1.63-3.281c-0.535,0.961-0.788,1.939-0.505,3.035l0,0c0.322,1.25,1.218,2.267,1.83,3.382c-1.649-0.512-3.105-1.406-4.596-2.248c-1.776-0.967-3.704-1.582-5.312-2.859c0.8,2.962,2.783,4.679,5.684,5.555c1.984,0.599,3.655,0.3,6.062,1.273C73.409,286.173,72.923,284.415,72.153,282.945z M67.315,282.21c-0.229-1.648,0.376-2.968,0.892-4.483c0.43-1.448,0.014-2.917-0.968-4.02c0.015,1.223-0.371,2.273-0.715,3.427c-0.24,0.854-0.446,1.7-0.4,2.593c-0.741-0.798-1.725-1.399-2.603-2.042c-1.195-0.967-2.589-1.649-3.566-2.88c0.146,1.812,0.921,3.289,2.394,4.392C63.905,280.36,65.782,280.986,67.315,282.21z M53.999,218.582v10.434l1.589-1.589v-2.304h2.039l1.324-1.324l-1.324-1.324h-2.039v-2.304L53.999,218.582z M60.57,265.412L60.57,265.412c0.4,1.704,1.754,2.989,2.077,4.756c0.646-1.842,1.242-3.387,0.797-5.402c-0.318-1.441-1.531-2.47-1.671-3.951C60.451,262.004,60.166,263.69,60.57,265.412z M67.293,222.607l-0.185,1.086l0.185,1.086l1.165-1.086L67.293,222.607z M117.193,288.271c-2.283,0.065-4.167,1.548-6.509,1.399c0.93-0.646,1.679-1.465,2.247-2.438l0,0c0.662-1.135,1.176-2.363,2.058-3.355c-2.198,0.284-3.265,1.543-4.395,3.309c-0.868,1.414-1.564,2.729-2.957,3.712c2.979-0.266,5.47,0.414,8.171,0.065c2.077-0.269,3.864-1.274,5.57-2.426C119.942,288.669,118.603,288.231,117.193,288.271z M125.497,277.684c-0.878,0.643-1.862,1.244-2.603,2.042c0.046-0.892-0.16-1.739-0.4-2.593l0,0c-0.344-1.154-0.73-2.204-0.715-3.427c-0.982,1.103-1.398,2.573-0.968,4.02c0.516,1.515,1.122,2.835,0.892,4.483c1.533-1.223,3.41-1.849,4.967-3.014c1.472-1.102,2.248-2.58,2.394-4.392C128.086,276.035,126.693,276.717,125.497,277.684z M59.851,234.975l3.231-3.019l-2.781-2.595l2.172-2.013l3.549,3.31l7.442-6.859l-7.442-6.859l-3.549,3.31l-2.172-2.013l2.781-2.595l-3.231-3.019l1.536-1.43l-7.388-6.885v2.33l4.873,4.555l-1.536,1.43l3.257,3.019l-1.96,1.827v-2.198h-2.357v1.96l6.171,5.747h2.86l0.291-1.642H63.48l2.542-2.383l5.297,4.846l-5.297,4.846l-2.542-2.357h2.119l-0.292-1.668h-2.86l-6.171,5.747v1.96h2.357v-2.198l1.96,1.827l-3.257,3.019l1.536,1.457l-4.873,4.529v2.331l7.389-6.859L59.851,234.975z M127.245,260.815c-0.14,1.481-1.353,2.509-1.671,3.951c-0.445,2.015,0.151,3.56,0.797,5.402c0.323-1.767,1.677-3.053,2.077-4.757l0,0C128.852,263.69,128.568,262.004,127.245,260.815z M127.158,271.376c-0.466,0.933-0.849,1.897-1.72,2.543c-0.116-1.318-0.611-2.232-1.365-3.26c-0.509-0.659-0.944-1.299-1.267-2.069c-0.693,1.482-0.279,2.746,0.572,4.033c0.706,1.069,1.342,2.083,1.003,3.43c1.721-0.786,3.28-1.966,4.402-3.503l0,0c0.928-1.274,1.198-2.859,1.547-4.358C129.014,268.923,127.868,270.04,127.158,271.376z M117.171,286.082c0.612-1.115,1.508-2.132,1.83-3.382l0,0c0.283-1.096,0.029-2.074-0.505-3.035c-0.369,1.17-1.032,2.218-1.63,3.281c-0.77,1.469-1.257,3.228-1.533,4.857c2.407-0.973,4.078-0.674,6.062-1.273c2.901-0.876,4.884-2.593,5.684-5.555c-1.608,1.277-3.536,1.892-5.312,2.859C120.276,284.676,118.821,285.57,117.171,286.082z M134.999,229.016v-10.434l-1.589,1.589v2.304h-2.039l-1.324,1.324l1.324,1.324h2.039v2.304L134.999,229.016z M61.785,80.883V69.836h7.998v-2.913h7.998V64.01h7.998v-2.913h17.452v2.913h7.998v2.913h7.998v2.913h7.997v11.047h-2.119v-8.929h-7.997v-2.913h-7.998v-2.913h-7.997l-0.002-2.913H87.885v2.913H79.9v0.821l-0.01-0.007v2.1h-7.988v0.773l-0.005-0.003v2.143h-7.993v0.49l-0.002-0.002v8.441L61.785,80.883L61.785,80.883z M125.106,84.725v8.919h-7.997v2.914h-7.998v2.913h-7.997l-0.001,2.913H87.884V99.47H79.9v-0.811l-0.01,0.007v-2.109h-7.988v-0.764l-0.005,0.003v-2.153h-7.992v-0.48l-0.002,0.002v-8.441h-2.117v11.037h7.998v2.914h7.998v2.913h7.998v2.913h17.452v-2.913h7.998v-2.913h7.998v-2.914h7.997V84.725H125.106z M98.123,66.913l2.776-2.53v10.871h-3.413l-0.705-0.975l2.206-2.036l-2.057-1.69v1.197l-0.86,0.736v-2.171l1.943-1.432l-3.514-2.591l-3.515,2.591l1.943,1.432v2.171l-0.86-0.736v-1.197l-2.057,1.69l2.206,2.036l-0.705,0.975h-3.412v-10.87l2.776,2.53v-3.066l3.624,2.33l0,0l0,0l3.624-2.33V66.913z M72.11,85.436h7.78v9.971l-2.196-1.396l-0.005,1.791L76,94.286l-1.689,1.517l-0.005-1.791l-2.196,1.396V85.436z M73.375,89.119l1.469,1.361v-1.273l0.64-0.639v2.256l-1.133,0.972L76,93.213l1.65-1.417l-1.133-0.972v-2.256l0.639,0.639v1.273l1.469-1.361L76,86.493L73.375,89.119z M77.694,71.597l2.196-1.396v9.971h-7.78v-9.971l2.196,1.396l0.005-1.792L76,71.323l1.689-1.517L77.694,71.597z M78.626,76.489l-1.469-1.361v1.273l-0.639,0.639v-2.256l1.133-0.972L76,72.395l-1.65,1.417l1.133,0.972v2.256l-0.64-0.639v-1.273l-1.469,1.361L76,79.115L78.626,76.489z M96.781,91.328l2.206,2.036l-2.057,1.69v-1.197l-0.86-0.736v2.171l1.943,1.432l-3.514,2.59l-3.515-2.59l1.943-1.432v-2.171l-0.86,0.736v1.197l-2.057-1.69l2.206-2.036l-0.705-0.974h-3.413v10.87l2.776-2.53v3.066l3.624-2.33l0,0l0,0l3.624,2.33v-3.066l2.776,2.53v-10.87h-3.413L96.781,91.328z M109.108,85.436h7.78v9.971l-2.196-1.396l-0.005,1.791l-1.689-1.517l-1.689,1.517l-0.005-1.791l-2.197,1.396L109.108,85.436L109.108,85.436z M110.372,89.119l1.469,1.361v-1.273l0.639-0.639v2.256l-1.133,0.972l1.65,1.417l1.65-1.417l-1.133-0.972v-2.256l0.64,0.639v1.273l1.469-1.361l-2.626-2.626L110.372,89.119z M114.691,71.597l2.196-1.396v9.971h-7.78v-9.971l2.197,1.396l0.005-1.792l1.689,1.517l1.689-1.517L114.691,71.597z M115.623,76.489l-1.469-1.361v1.273l-0.64,0.639v-2.256l1.133-0.972l-1.65-1.417l-1.65,1.417l1.133,0.972v2.256l-0.639-0.639v-1.273l-1.469,1.361l2.626,2.626L115.623,76.489z M103.865,80.31l-2.539-1.907l-1.549,1.163l0.751,0.563l0.798-0.599l1.038,0.779l-2.572,1.931l-4.542-3.41l2.007-1.507h-1.501l-1.257,0.943l-1.257-0.943h-1.501l2.007,1.507l-4.542,3.41l-2.572-1.931l1.038-0.779l0.798,0.599l0.751-0.563l-1.548-1.163l-2.539,1.906l3.323,2.494l-3.323,2.495l2.539,1.906l1.548-1.163l-0.751-0.564l-0.798,0.599l-1.038-0.779l2.572-1.931l4.542,3.41l-2.007,1.507h1.501l1.257-0.943l1.257,0.943h1.501l-2.007-1.507l4.542-3.41l2.572,1.931l-1.038,0.779l-0.798-0.599l-0.751,0.564l1.549,1.163l2.539-1.906l-3.323-2.495L103.865,80.31z M94.499,86.214l-4.542-3.41l4.542-3.41l4.542,3.41L94.499,86.214z M73.517,120.789v4.608h-6.276v27.595h6.276v4.608h41.975v-4.608h6.277v-27.595h-6.277v-4.608H73.517L73.517,120.789z M76.218,122.564h36.573v4.449l1.509,1.113h5.694v22.166h-5.72l-1.483,1.086v4.475H76.218v-4.449l-1.51-1.112h-5.72v-22.166h5.694l1.536-1.113V122.564L76.218,122.564z M89.686,125.545v-0.554l1.533-1.321l1.533,1.321v0.554H89.686z M99.311,125.545v-0.554l-1.533-1.321l-1.533,1.321v0.554H99.311z M71.111,139.203l1.321,1.533h3.342v-3.066h-3.342L71.111,139.203z M113.223,134.176h3.343l1.321-1.533l-1.321-1.533h-3.343V134.176z M117.887,139.203l-1.321-1.533h-3.343v3.066h3.343L117.887,139.203z M96.246,152.861v0.555l1.533,1.321l1.533-1.321v-0.555H96.246z M113.223,144.23v3.066h3.343l1.321-1.533l-1.321-1.533L113.223,144.23L113.223,144.23z M89.686,152.861v0.555l1.533,1.321l1.533-1.321v-0.555H89.686z M75.775,134.176v-3.066h-3.343l-1.321,1.533l1.321,1.533L75.775,134.176L75.775,134.176z M75.775,144.23h-3.343l-1.321,1.533l1.321,1.533h3.343V144.23z M94.392,133.669v2.142l-3.037,1.727v1.558h-4.742v-1.453h2.649v-1.895h1.919v-2.078L94.392,133.669L94.392,133.669z M94.606,144.738v-2.142l3.037-1.727v-1.558h4.742v1.453h-2.649v1.896h-1.919v2.078H94.606z M80.604,199.838h5.405v-2.681h-5.405V199.838z M82.092,197.753h2.428v1.49h-2.428V197.753z M80.39,191.366h-5.405v2.681h5.405V191.366z M78.902,193.451h-2.428v-1.49h2.428V193.451z M78.163,194.262h-5.405v2.681h5.405V194.262z M76.674,196.347h-2.428v-1.49h2.428V196.347z M74.986,199.838h5.405v-2.681h-5.405V199.838z M76.474,197.753h2.428v1.49h-2.428V197.753z M83.995,196.943H89.4v-2.681h-5.405V196.943z M85.483,194.857h2.428v1.49h-2.428V194.857z M114.012,191.366h-5.404v2.681h5.404V191.366z M112.523,193.451h-2.428v-1.49h2.428V193.451z M108.394,191.366h-5.404v2.681h5.404V191.366z M106.905,193.451h-2.428v-1.49h2.428V193.451z M98.833,183.205h-8.667l4.333-2.71L98.833,183.205z M105.003,194.262h-5.405v2.681h5.405V194.262z M103.514,196.347h-2.428v-1.49h2.428V196.347z M86.009,191.366h-5.405v2.681h5.405V191.366z M84.52,193.451h-2.428v-1.49h2.428V193.451z M90.165,192.105h8.667l-4.334,2.71L90.165,192.105z M110.835,194.262v2.681h5.405v-2.681H110.835z M114.751,196.347h-2.428v-1.49h2.428V196.347z M108.608,199.838h5.404v-2.681h-5.404V199.838z M110.096,197.753h2.428v1.49h-2.428V197.753z M102.989,199.838h5.404v-2.681h-5.404V199.838z M104.478,197.753h2.428v1.49h-2.428V197.753z M98.833,199.099h-8.667l4.333-2.71L98.833,199.099z M90.165,207.999h8.667l-4.334,2.71L90.165,207.999z M65.753,240.83v8.062h15.644v-7.41h3.934l5.63-3.572v-3.861l-3.691-2.707h0.327h5.143v5.44l1.652-1.048v-5.446h-9.047L65.753,240.83z M77.439,236.128v4.466H69.14L77.439,236.128z M77.504,248.056h-2.503v-2.077h-2.523v2.077h-2.503v-5.881h2.503v2.077h2.523v-2.077h2.503V248.056z M86.46,240.249h-2.503v-2.077h-2.523v2.077h-2.503v-5.881h2.503v2.077h2.523v-2.077h2.503V240.249z M107.6,249.106v7.411h-3.934l-5.63,3.572v3.861l3.692,2.707h-5.471v-5.44l-1.651,1.047v5.446h9.048l19.591-10.543v-8.062L107.6,249.106z M110.066,263.63h-2.503v-2.077h-2.523v2.077h-2.503v-5.881h2.503v2.077h2.523v-2.077h2.503V263.63z M111.493,249.942h2.503v2.077h2.523v-2.077h2.503v5.881h-2.503v-2.077h-2.523v2.077h-2.503V249.942z M111.559,261.871v-4.466h8.299L111.559,261.871z M96.478,231.568v5.614l-1.881-1.192v1.589l8.607,5.481h2.834v5.827h1.351v-7.203h-3.787l-5.773-3.655v-4.079l3.257-2.383L96.478,231.568L96.478,231.568z M81.621,249.1v7.203h3.761l5.8,3.681v4.079l-3.258,2.383h4.608v-5.614l1.853,1.192v-1.642l-8.607-5.429h-2.807V249.1H81.621L81.621,249.1z M111.785,236.493v3.893h7.23L111.785,236.493z M69.995,257.627l7.23,3.893v-3.893H69.995L69.995,257.627z" />
  <path fill="#00843D" d="M84.534,3.866L75.212,9.11h-4.873l-5.985,3.602v5.058l-6.488,3.972v9.322l6.488,3.972v5.085l5.959,3.602h4.899l9.322,5.244h19.915l9.322-5.244h4.899l5.985-3.602v-5.085l6.488-3.972v-9.322l-6.488-3.972v-5.058L118.67,9.11h-4.899l-9.322-5.244C104.449,3.866,84.534,3.866,84.534,3.866z M85.09,5.8h18.829l9.322,5.244h4.873l4.529,2.728v5.058l6.515,3.972v7.203l-6.515,3.972v5.058l-4.529,2.728h-4.873l-9.322,5.244H85.09l-9.322-5.244h-4.873l-4.555-2.728v-5.058l-6.488-3.972v-7.203l6.488-3.972v-5.058l4.555-2.728h4.873L85.09,5.8z M85.157,18.007l9.234-5.667v7.519l-4.924,3.282l-2.716-2.562v-2.406l-2.193,1.358l-1.598-1.489l-1.583,0.976l1.6,1.492l-2.055,1.273h4.484l2.524,2.381l-3.202,2.134h-9.704l3.414-2.67v-5.621C78.438,18.007,85.157,18.007,85.157,18.007z M104.268,26.513l-3.203,2.135l2.523,2.38h4.485l-2.055,1.273l1.6,1.492l-1.583,0.976l-1.598-1.489l-2.192,1.358v-2.406l-2.715-2.561l-4.923,3.281v7.519l9.234-5.667h6.717v-5.621l3.414-2.67L104.268,26.513z M99.712,23.262l2.747-2.591v-2.113l4.862,3.012h-3.818l-2.621,2.472L99.712,23.262z M107.266,19.054l-1.205-0.743l-1.436,1.338l1.203,0.746L107.266,19.054z M81.73,33.758l1.205,0.743l1.435-1.338l-1.203-0.745L81.73,33.758z M89.285,29.549l-1.17-0.78l-2.621,2.472h-3.818l4.862,3.012V32.14L89.285,29.549z M86.538,34.253L86.538,34.253L86.538,34.253L86.538,34.253z M101.19,90.354h-0.076v7.882l2.069-1.564l0.004,2.051l1.816-1.624l1.816,1.624l0.004-2.051l2.069,1.564v-12.8h-0.217L101.19,90.354z M106.161,93.011v-1.273l-0.639-0.639v2.256l1.133,0.972l-1.65,1.417l-1.65-1.417l1.133-0.972v-2.256l-0.64,0.639v1.273l-1.469-1.361l2.626-2.626l2.626,2.626L106.161,93.011z M85.81,66.886l-1.816,1.624l-1.816-1.624l-0.004,2.051l-2.069-1.565v12.8h0.216l7.487-4.918h0.077v-7.882l-2.069,1.565L85.81,66.886z M83.994,76.585l-2.626-2.626l1.469-1.361v1.273l0.639,0.639v-2.256l-1.133-0.972l1.65-1.417l1.65,1.417l-1.133,0.972v2.256l0.64-0.639v-1.273l1.469,1.361L83.994,76.585z M69.903,72.593L68.07,73.92l-0.064,0.046l-1.896-1.374l-0.005,1.709l-1.989-1.44v8.235h-2.331v3.413h2.331v8.235l1.989-1.44l0.005,1.709l1.896-1.374l1.896,1.374l0.005-1.709l1.989,1.44v-7.31h-2.332v-1.402h-3.519v-2.459h3.519v-1.402h2.332v-7.31l-1.989,1.44L69.903,72.593z M67.144,86.425L67.144,86.425c0.243-0.245,0.533-0.369,0.862-0.369s0.619,0.124,0.862,0.369c0.759,0.765,0.785,2.149,0.777,3.144c0,0-0.878-0.928-1.036-1.095c-0.11,0.191-0.603,1.042-0.603,1.042s-0.493-0.851-0.604-1.042c-0.158,0.167-1.036,1.095-1.036,1.095C66.359,88.574,66.385,87.19,67.144,86.425z M68.868,79.183c-0.243,0.245-0.533,0.369-0.862,0.369s-0.62-0.124-0.862-0.369l0,0c-0.759-0.765-0.785-2.149-0.778-3.144c0,0,0.878,0.928,1.036,1.095c0.111-0.191,0.604-1.042,0.604-1.042s0.493,0.851,0.603,1.042c0.158-0.167,1.036-1.095,1.036-1.095C69.653,77.034,69.628,78.418,68.868,79.183z M80.321,85.436h-0.216v12.8l2.069-1.564l0.004,2.051l1.816-1.624l1.816,1.624l0.005-2.051l2.069,1.564v-7.882h-0.077L80.321,85.436z M85.151,93.011v-1.273l-0.64-0.639v2.256l1.133,0.972l-1.65,1.417l-1.65-1.417l1.133-0.972v-2.256l-0.639,0.639v1.273l-1.469-1.361l2.626-2.626l2.626,2.626L85.151,93.011z M124.882,81.098v-8.235l-1.989,1.44l-0.005-1.709l-1.896,1.374l-0.064-0.046l-1.832-1.327l-0.005,1.709l-1.989-1.44v7.31h2.331v1.402h3.519v2.459h-3.519v1.402h-2.331v7.31l1.989-1.44l0.005,1.709l1.897-1.374l1.896,1.374l0.005-1.709l1.989,1.44v-8.235h2.331v-3.413L124.882,81.098L124.882,81.098z M121.854,79.183c-0.243,0.245-0.533,0.369-0.862,0.369s-0.619-0.124-0.862-0.369c-0.759-0.765-0.785-2.149-0.777-3.144c0,0,0.878,0.928,1.036,1.095c0.11-0.191,0.603-1.042,0.603-1.042s0.493,0.851,0.604,1.042c0.158-0.167,1.036-1.095,1.036-1.095C122.639,77.034,122.613,78.418,121.854,79.183z M121.595,88.475c-0.111,0.191-0.604,1.042-0.604,1.042s-0.493-0.851-0.603-1.042c-0.158,0.167-1.036,1.095-1.036,1.095c-0.008-0.996,0.018-2.379,0.777-3.144c0.243-0.245,0.533-0.369,0.862-0.369s0.62,0.124,0.862,0.369c0.759,0.765,0.785,2.149,0.778,3.144C122.632,89.57,121.754,88.642,121.595,88.475z M106.82,66.886l-1.816,1.624l-1.816-1.624l-0.004,2.051l-2.069-1.565v7.882h0.044h0.032l7.487,4.918h0.217v-12.8l-2.069,1.565L106.82,66.886z M105.004,76.585l-2.626-2.626l1.469-1.361v1.273l0.64,0.639v-2.256l-1.133-0.972l1.65-1.417l1.65,1.417l-1.133,0.972v2.256l0.639-0.639v-1.273l1.469,1.361L105.004,76.585z M94.498,67.967c0.106,0.078,1.057,0.779,1.245,0.917c-0.188,0.138-1.139,0.839-1.245,0.917c-0.106-0.078-1.057-0.779-1.245-0.917C93.441,68.746,94.393,68.045,94.498,67.967z M94.498,97.641c0.106-0.078,1.057-0.779,1.245-0.917c-0.188-0.138-1.139-0.839-1.245-0.917c-0.106,0.078-1.057,0.779-1.245,0.917C93.441,96.862,94.393,97.563,94.498,97.641z M84.529,81.769l1.559,1.036l-1.559,1.036l-1.559-1.036L84.529,81.769z M94.499,81.769l1.559,1.036l-1.559,1.036l-1.559-1.036L94.499,81.769z M104.469,81.769l-1.559,1.036l1.559,1.036l1.559-1.036L104.469,81.769z M59.787,140.295l1.428-1.092l-1.428-1.092l0.59-0.834l1.409-0.164l1.59,1.229l3.639-2.311v1.518l-2.603,1.654l2.603,1.653v1.518l-3.639-2.311l-1.59,1.229l-1.409-0.163L59.787,140.295z M60.376,134.09l1.409,0.164l1.59-1.229l3.639,2.311v-1.519l-2.603-1.653l2.603-1.653v-1.518l-3.639,2.311l-1.59-1.229l-1.409,0.164l-0.59,0.834l1.428,1.092l-1.428,1.092L60.376,134.09z M67.014,147.896l-2.603-1.654l2.603-1.653v-1.518l-3.639,2.311l-1.59-1.229l-1.409,0.163l-0.589,0.834l1.428,1.092l-1.428,1.092l0.59,0.834l1.409,0.164l1.59-1.229l3.639,2.311L67.014,147.896L67.014,147.896z M128.622,137.278l-1.409-0.164l-1.59,1.229l-3.639-2.311v1.518l2.603,1.654l-2.603,1.653v1.518l3.639-2.311l1.59,1.229l1.409-0.163l0.589-0.834l-1.428-1.092l1.428-1.092L128.622,137.278z M129.211,131.073l-0.589-0.834l-1.409-0.164l-1.59,1.229l-3.639-2.311v1.518l2.603,1.653l-2.603,1.653v1.519l3.639-2.311l1.59,1.229l1.409-0.164l0.589-0.834l-1.428-1.092L129.211,131.073z M128.622,144.317l-1.409-0.163l-1.59,1.229l-3.639-2.311v1.518l2.603,1.653l-2.603,1.654v1.518l3.639-2.311l1.59,1.229l1.409-0.164l0.589-0.834l-1.428-1.092l1.428-1.092L128.622,144.317z M115.505,118.079h-1.927v2.5h2.13v1.294h1.663v-1.927h-1.866V118.079z M121.985,126.49h1.664v-1.928h-1.866v-1.866h-1.927v2.5h2.13L121.985,126.49L121.985,126.49z M73.492,119.945h-1.866v1.927h1.664v-1.294h2.13v-2.5h-1.928V119.945z M115.708,157.827h-2.13v2.499h1.927v-1.866h1.866v-1.927h-1.663V157.827z M73.29,156.533h-1.664v1.927h1.866v1.866h1.928v-2.499h-2.13V156.533z M121.985,153.21h-2.13v2.499h1.927v-1.866h1.866v-1.927h-1.664L121.985,153.21L121.985,153.21z M67.013,125.196h2.13v-2.5h-1.927v1.866H65.35v1.928h1.663V125.196z M67.013,151.916H65.35v1.927h1.866v1.866h1.927v-2.499h-2.13V151.916z M105.287,117.702c-0.139-0.129-1.156-1.071-1.282-1.187c-0.133,0.129-1.628,1.581-1.628,1.581s-1.496-1.452-1.629-1.581l0,0c-0.126,0.116-1.143,1.058-1.282,1.187c0.144,0.139,1.388,1.347,1.388,1.347l-1.576,1.53h2.051l1.047-1.016l1.047,1.016h2.051l-1.576-1.53C103.899,119.049,105.143,117.841,105.287,117.702z M97.409,117.702c-0.139-0.129-1.156-1.071-1.282-1.187c-0.133,0.129-1.629,1.581-1.629,1.581s-1.496-1.452-1.628-1.581c-0.126,0.116-1.143,1.058-1.282,1.187c0.144,0.139,1.388,1.347,1.388,1.347l-1.576,1.53h2.051l1.047-1.016l1.047,1.016h2.051l-1.576-1.53C96.021,119.049,97.266,117.841,97.409,117.702z M89.533,117.702c-0.139-0.129-1.156-1.071-1.282-1.187c-0.133,0.129-1.629,1.581-1.629,1.581s-1.496-1.452-1.628-1.581c-0.126,0.116-1.143,1.058-1.282,1.187c0.144,0.139,1.388,1.347,1.388,1.347l-1.576,1.53h2.051l1.047-1.016l1.047,1.016h2.051l-1.576-1.53C88.145,119.049,89.389,117.841,89.533,117.702z M103.423,157.828l-1.047,1.016l-1.047-1.016h-2.051l1.576,1.53c0,0-1.244,1.208-1.388,1.347c0.139,0.129,1.156,1.071,1.282,1.187l0,0c0.133-0.129,1.629-1.581,1.629-1.581s1.495,1.452,1.628,1.581c0.126-0.117,1.143-1.059,1.282-1.187c-0.144-0.14-1.388-1.347-1.388-1.347l1.576-1.53H103.423z M95.546,157.828l-1.047,1.016l-1.047-1.016h-2.051l1.576,1.53c0,0-1.244,1.208-1.388,1.347c0.139,0.129,1.156,1.071,1.282,1.187c0.133-0.129,1.628-1.581,1.628-1.581s1.496,1.452,1.629,1.581c0.126-0.117,1.142-1.059,1.282-1.187c-0.144-0.14-1.388-1.347-1.388-1.347l1.576-1.53H95.546z M87.669,157.828l-1.047,1.016l-1.047-1.016h-2.051l1.576,1.53c0,0-1.244,1.207-1.388,1.347c0.139,0.129,1.156,1.071,1.282,1.187c0.133-0.129,1.628-1.581,1.628-1.581s1.495,1.452,1.629,1.581c0.126-0.117,1.143-1.059,1.282-1.187c-0.144-0.14-1.388-1.347-1.388-1.347l1.576-1.53H87.669z M106.689,122.78h-24.38c-0.056,0.041-13.007,9.607-13.094,9.671v13.505c0.086,0.064,13.037,9.629,13.094,9.671h24.38c0.056-0.042,13.008-9.607,13.094-9.671V132.45C119.696,132.387,106.745,122.821,106.689,122.78z M118.17,135.923l-1.413,1.64l1.413,1.64l-1.413,1.64l1.413,1.64l-1.413,1.64l1.413,1.64l-1.505,1.747h-3.441v2.989h-3.801v2.362h-6.616v0.653l-1.747,1.506l-1.64-1.413l-1.64,1.413l-1.64-1.413l-1.64,1.413l-1.64-1.413l-1.64,1.413l-1.64-1.413l-1.64,1.413l-1.747-1.506v-0.653h-6.616v-2.362h-3.801v-2.989h-3.441l-1.505-1.747l1.413-1.64l-1.413-1.64l1.413-1.64l-1.413-1.64l1.413-1.64l-1.413-1.64l1.413-1.64l-1.413-1.64l1.505-1.747h3.441v-2.989h3.801v-2.362h6.616v-0.653l1.747-1.505l1.64,1.413l1.64-1.413l1.64,1.413l1.64-1.413l1.64,1.413l1.64-1.413l1.64,1.413l1.64-1.413l1.747,1.505v0.653h6.509h0.107v2.362h3.801v2.989h3.441l1.505,1.747l-1.413,1.64L118.17,135.923z M105.747,125.768H83.263c-0.059,0.049-6.281,5.26-6.356,5.323v16.234c0.075,0.063,6.297,5.274,6.356,5.323h22.484c0.059-0.049,6.254-5.26,6.329-5.323v-16.234C112.001,131.028,105.806,125.817,105.747,125.768z M111.176,146.901l-5.773,4.82H83.58l-5.747-4.82v-15.387l5.747-4.846h21.822l5.773,4.846L111.176,146.901L111.176,146.901z M89.287,149.789l1.786,1.727h-1.719l-1.229-1.183l-1.229,1.183h-1.719l1.786-1.727l-1.23-1.082l0.18-1.141l0.977-0.422l1.235,0.987l0.067-0.053l1.168-0.934l0.977,0.422l0.18,1.141L89.287,149.789z M95.661,149.789l1.786,1.727h-1.719l-1.229-1.183l-1.229,1.183h-1.719l1.786-1.727l-1.23-1.082l0.18-1.141l0.977-0.422l1.234,0.987l0.067-0.053l1.168-0.934l0.977,0.422l0.18,1.141L95.661,149.789z M102.035,149.789l1.786,1.727h-1.719l-1.229-1.183l-1.229,1.183h-1.719l1.786-1.727l-1.23-1.082l0.18-1.141l0.977-0.422l1.168,0.934l0.067,0.053l1.234-0.987l0.977,0.422l0.18,1.141L102.035,149.789z M89.354,126.89h1.719l-1.786,1.727l1.23,1.082l-0.18,1.141l-0.977,0.422l-1.168-0.934l-0.067-0.053l-1.235,0.987l-0.977-0.422l-0.18-1.141l1.23-1.081l-1.786-1.727h1.719l1.229,1.183L89.354,126.89z M95.728,126.89h1.719l-1.786,1.727l1.23,1.082l-0.18,1.141l-0.977,0.422l-1.168-0.934l-0.067-0.053l-1.234,0.987l-0.977-0.422l-0.18-1.141l1.23-1.081l-1.786-1.727h1.719l1.229,1.183L95.728,126.89z M102.102,126.89h1.719l-1.786,1.727l1.23,1.081l-0.18,1.141l-0.977,0.422l-1.234-0.987l-0.067,0.053l-1.168,0.934l-0.977-0.422l-0.18-1.141l1.23-1.082l-1.786-1.727h1.719l1.229,1.183L102.102,126.89z M106.815,134.88c0.1-0.1,0.993-0.99,0.993-0.99s-0.893-0.89-0.993-0.99c0.06-0.112,0.364-0.671,0.406-0.75c0.096-0.012,1.067-0.134,1.154-0.145c0.068,0.061,1.076,0.975,1.076,0.975l1.499-1.235v1.338l-0.975,0.807l0.975,0.807v1.338l-1.499-1.236c0,0-1.008,0.914-1.076,0.975c-0.086-0.011-1.058-0.133-1.154-0.145C107.178,135.552,106.875,134.992,106.815,134.88z M106.815,140.193c0.1-0.1,0.993-0.99,0.993-0.99s-0.893-0.89-0.993-0.99c0.06-0.112,0.364-0.671,0.406-0.75c0.096-0.012,1.067-0.134,1.154-0.145c0.068,0.061,1.076,0.975,1.076,0.975l1.499-1.235v1.338l-0.975,0.807l0.975,0.807v1.339l-1.499-1.236c0,0-1.008,0.913-1.076,0.975c-0.086-0.011-1.058-0.133-1.154-0.145C107.178,140.864,106.875,140.305,106.815,140.193z M106.815,145.506c0.1-0.1,0.993-0.99,0.993-0.99s-0.893-0.889-0.993-0.99c0.06-0.112,0.364-0.671,0.406-0.75c0.096-0.012,1.067-0.134,1.154-0.145c0.068,0.061,1.076,0.975,1.076,0.975l1.499-1.236v1.338l-0.975,0.807l0.975,0.807v1.338l-1.499-1.235c0,0-1.008,0.913-1.076,0.975c-0.086-0.011-1.058-0.133-1.154-0.145C107.178,146.177,106.875,145.617,106.815,145.506z M82.184,132.901c-0.1,0.1-0.993,0.99-0.993,0.99s0.892,0.889,0.993,0.99c-0.061,0.112-0.364,0.671-0.406,0.75c-0.096,0.012-1.068,0.134-1.154,0.145c-0.068-0.061-1.076-0.975-1.076-0.975l-1.499,1.236v-1.338l0.975-0.807l-0.975-0.807v-1.338l1.499,1.235c0,0,1.008-0.914,1.076-0.975c0.086,0.011,1.058,0.133,1.154,0.145C81.821,132.229,82.124,132.789,82.184,132.901z M82.184,138.213c-0.1,0.1-0.993,0.99-0.993,0.99s0.892,0.889,0.993,0.99c-0.061,0.112-0.364,0.671-0.406,0.75c-0.096,0.012-1.068,0.134-1.154,0.145c-0.068-0.061-1.076-0.975-1.076-0.975l-1.499,1.236v-1.339l0.975-0.807l-0.975-0.807v-1.338l1.499,1.235c0,0,1.008-0.914,1.076-0.975c0.086,0.011,1.058,0.133,1.154,0.145C81.821,137.542,82.124,138.101,82.184,138.213z M82.184,143.526c-0.1,0.101-0.993,0.99-0.993,0.99s0.892,0.89,0.993,0.99c-0.061,0.112-0.364,0.671-0.406,0.75c-0.096,0.012-1.068,0.134-1.154,0.145c-0.068-0.061-1.076-0.975-1.076-0.975l-1.499,1.235v-1.338l0.975-0.807l-0.975-0.807v-1.338l1.499,1.236c0,0,1.008-0.914,1.076-0.975c0.086,0.011,1.058,0.133,1.154,0.145C81.821,142.855,82.124,143.414,82.184,143.526z M94.392,136.047l-2.823,1.605v1.444h2.823V136.047z M94.606,142.359l2.823-1.605v-1.444h-2.823V142.359z M121.754,192.04v-5.314h-5.583v-5.858h-16.1l-5.572-3.348l-5.572,3.348h-0.03h-16.07v5.858h-5.583v5.314h-5.658v7.123h5.658v5.314h5.583v5.858h16.1l5.572,3.348l5.572-3.348h16.1v-5.858h5.583v-5.314h5.658v-7.123H121.754z M114.064,183.109v5.67v0.199l-8.85-5.87L114.064,183.109L114.064,183.109z M85.964,186.1h2.809v-2.895h0.988l4.738-2.963l4.738,2.963h0.988v2.895h2.809v3.11h-2.809v2.895h-0.988l-4.738,2.962l-0.057-0.035l-4.681-2.927h-0.988v-2.895h-2.809V186.1z M74.935,188.779v-5.67h8.85l-8.85,5.87V188.779z M74.935,208.094v-5.67v-0.2l8.85,5.87H74.935z M80.497,203.015l-4.738-2.962h-0.988v-2.895h-2.228v-3.11h2.228v-2.896h0.988l4.681-2.927l0.057-0.036l4.738,2.962h0.988v2.896h3.391v3.11h-3.391v2.895h-0.988L80.497,203.015z M103.034,205.104h-2.809v2.895h-0.988l-4.738,2.962l-0.057-0.035l-4.681-2.927h-0.988v-2.895h-2.809v-3.11h2.809v-2.895h0.988l4.738-2.963l4.738,2.963h0.988v2.895h2.809V205.104z M114.064,202.424v5.67h-8.85l8.85-5.87V202.424z M116.454,197.157h-2.228v2.895h-0.988l-4.738,2.962l-4.738-2.962h-0.988v-2.895h-3.391v-3.11h3.391v-2.896h0.988l4.738-2.962l0.057,0.036l4.681,2.927h0.988v2.896h2.228V197.157z M84.932,228.576l-20.869,11.229v18.379l20.869,11.229h19.147l20.869-11.229v-18.379l-20.869-11.229L84.932,228.576L84.932,228.576z M85.302,230.085h18.406l19.757,10.62v16.605l-19.757,10.62H85.291l-19.756-10.62v-16.605L85.302,230.085z" />
  <path fill="#FFFFFF" d="M111.613,17.572l1.522-1.436v2.329l-1.522,1.436V17.572z M114.478,19.67l-2.865,2.703v0.726l2.99,2.339h1.485v-2.759h2.091l0.468-0.56v-1.483l-1.177-0.78l0.495-0.185h-3.487V19.67z M75.862,34.346v2.329l1.522-1.436V32.91L75.862,34.346z M122.441,18.951v-5.05l-4.397-2.648h-4.861l-9.324-5.244h-5.092l1.896,1.827h4.128l3.05,1.583l-0.711,1.733l-2.72-1.429h-1.191l-3.755,4.343l3.024,1.856l2.531-2.388v-2.406l2.192,1.358l1.598-1.489l1.583,0.976l-1.6,1.492l2.055,1.273h-4.484l-2.287,2.157l0.059,0.036h5.538l2.909-2.744v-2.406l2.192,1.358l1.598-1.489l1.583,0.976l-1.6,1.492l2.055,1.273h-4.484l-0.739,0.698l2.143,1.328l1.598-1.489l1.583,0.976l-1.6,1.492l1.68,1.041l0.812-0.303l0.046,0.032l2.491,1.729v0.465l3.905,4.939h3.09v-3.368L122.441,18.951z M84.207,44.976l-3.05-1.583l0.711-1.733l2.72,1.429h1.191l3.755-4.342L86.51,36.89l-2.531,2.387v2.406l-2.192-1.358l-1.598,1.489l-1.583-0.976l1.601-1.492l-2.055-1.273h4.484l2.287-2.157l-0.059-0.036h-5.538l-2.909,2.744v2.406l-2.192-1.358l-1.598,1.489l-1.583-0.976l1.601-1.492L70.59,37.42h4.484l0.739-0.698l-2.143-1.328l-1.598,1.489l-1.583-0.976l1.6-1.492l-1.68-1.041l-0.812,0.303l-2.537-1.76v-0.465l-3.905-4.939h-3.089v3.368l6.491,3.98v5.05l4.397,2.648h4.861l9.324,5.244h5.092l-1.895-1.827L84.207,44.976L84.207,44.976z M77.384,30.438v-0.726l-2.991-2.339h-1.485v2.759h-2.091l-0.468,0.56v1.483l1.177,0.78L71.03,33.14h3.487L77.384,30.438z M94.391,45.113l-0.95-0.727l0.95-0.727V45.113z M69.042,26.513l-1.059,1.197l-1.059-1.197H69.042z M97.413,44.982h-0.035l-2.482,1.821h-0.29v-0.372v-1.048l1.303-0.996l-1.303-0.996v-2.668l9.295-5.704h6.871v-5.731l3.548-2.774h5.35l1.345,1.521l1.345-1.521h1.589l-2.18,2.659v0.432l-0.863,0.75l-1.387-1.08l0.814,0.006v-0.27l-1.814-1.85h-3.987l-3.131,2.449v6.057h-7.326l-8.84,5.425v1.632l1.478,0.985h0.551l1.563-1.046l0.12-0.388l0.762,1.04l-1.987,1.669h-0.309V44.982z M121.014,25.102l-1.059,1.197h2.118L121.014,25.102z M91.619,7.829l2.482-1.821h0.29v1.42l-1.303,0.996l1.303,0.996v2.668l-9.295,5.704h-6.871v5.731l-3.548,2.774h-5.351l-1.345-1.52l-1.345,1.52H65.05l2.18-2.659v-0.432l0.863-0.75l1.387,1.08l-0.814-0.007v0.27l1.815,1.849h3.987l3.131-2.449v-6.057h7.326l8.84-5.425v-1.632L92.287,9.1h-0.551l-1.563,1.046l-0.12,0.388l-0.762-1.04l1.987-1.669C91.276,7.829,91.619,7.829,91.619,7.829z M94.605,9.152l0.951-0.727l-0.951-0.727V9.152z M88.407,26.298h-3.291l9.276-6.182v2.194h-2.548v1.819h-3.437C88.407,24.129,88.407,26.298,88.407,26.298z M97.154,22.31v1.819h3.436v2.169h3.291l-9.276-6.182v2.194C94.605,22.31,97.154,22.31,97.154,22.31z M100.59,26.513v2.169h-3.436v1.819h-2.548v2.194l9.276-6.182H100.59z M91.844,30.501v-1.819h-3.437v-2.169h-3.291l9.276,6.182v-2.194H91.844z M68.007,76.52c0.131,0.226,0.562,0.97,0.562,0.97s0.607-0.641,0.854-0.903c-0.03,1.124-0.277,2.013-0.706,2.445c-0.201,0.203-0.44,0.306-0.71,0.306s-0.509-0.103-0.71-0.305c-0.429-0.433-0.676-1.321-0.706-2.445c0.247,0.262,0.854,0.903,0.854,0.903C67.632,77.166,67.819,76.843,68.007,76.52L68.007,76.52z M84.298,72.156v2.872l1.068-1.068v-0.871l0.946,0.877l-2.317,2.317l-2.317-2.317l0.946-0.877v0.871l1.068,1.068v-2.872l-1.018-0.874l1.321-1.134l1.321,1.134L84.298,72.156z M120.991,76.52c-0.131,0.226-0.562,0.97-0.562,0.97s-0.607-0.641-0.854-0.903c0.03,1.124,0.277,2.013,0.706,2.445c0.201,0.203,0.44,0.306,0.71,0.306s0.509-0.103,0.71-0.305c0.429-0.433,0.676-1.321,0.706-2.445c-0.247,0.262-0.854,0.903-0.854,0.903C121.366,77.166,121.179,76.843,120.991,76.52L120.991,76.52z M104.7,72.156v2.872l-1.068-1.068v-0.871l-0.946,0.877l2.317,2.317l2.317-2.317l-0.946-0.877v0.871l-1.068,1.068v-2.872l1.018-0.874l-1.321-1.134l-1.321,1.134L104.7,72.156z M68.007,89.089c0.131-0.226,0.562-0.97,0.562-0.97s0.607,0.641,0.854,0.903c-0.03-1.124-0.277-2.013-0.706-2.445c-0.201-0.203-0.44-0.306-0.71-0.306s-0.509,0.103-0.71,0.305c-0.429,0.433-0.676,1.321-0.706,2.445c0.247-0.262,0.854-0.903,0.854-0.903C67.632,88.442,67.819,88.766,68.007,89.089L68.007,89.089z M84.298,93.452V90.58l1.068,1.068v0.871l0.946-0.877l-2.317-2.317l-2.317,2.317l0.946,0.877v-0.871l1.068-1.068v2.872l-1.018,0.874l1.321,1.134l1.321-1.134L84.298,93.452z M120.991,89.089c-0.131-0.226-0.562-0.97-0.562-0.97s-0.607,0.641-0.854,0.903c0.03-1.124,0.277-2.013,0.706-2.445c0.201-0.203,0.44-0.306,0.71-0.306s0.509,0.103,0.71,0.305c0.429,0.433,0.676,1.321,0.706,2.445c-0.247-0.262-0.854-0.903-0.854-0.903C121.366,88.442,121.179,88.766,120.991,89.089L120.991,89.089z M104.7,93.452V90.58l-1.068,1.068v0.871l-0.946-0.877l2.317-2.317l2.317,2.317l-0.946,0.877v-0.871l-1.068-1.068v2.872l1.018,0.874l-1.321,1.134l-1.321-1.134L104.7,93.452z M88.135,150.635l0.9,0.874h-1.827L88.135,150.635z M93.591,151.509h1.827l-0.927-0.874L93.591,151.509z M99.947,151.509h1.853l-0.927-0.874L99.947,151.509z M88.135,127.78l0.927-0.9h-1.88L88.135,127.78z M94.492,127.78l0.953-0.9h-1.88L94.492,127.78z M100.874,127.78l0.927-0.9h-1.853L100.874,127.78z M110.302,133.898l0.636,0.503v-1.033L110.302,133.898z M110.938,139.724v-1.059l-0.636,0.53L110.938,139.724z M110.938,145.047v-1.059l-0.636,0.53L110.938,145.047z M78.046,134.428l0.636-0.53l-0.636-0.556V134.428z M78.046,139.751l0.636-0.556l-0.636-0.53V139.751z M78.046,145.048l0.636-0.53l-0.636-0.556V145.048z M97.643,139.096v-1.558l-3.037-1.727v-2.142h3.212v2.078h1.919v1.895h2.649v1.453L97.643,139.096L97.643,139.096z M86.613,139.311h4.742v1.558l3.037,1.727v2.142H91.18v-2.078h-1.919v-1.896h-2.649L86.613,139.311z M90.705,184.243h1.97v1.033h-1.97V184.243z M96.323,185.276h1.97v-1.033h-1.97V185.276z M87.895,188.171h1.97v-1.033h-1.97V188.171z M93.514,188.171h1.97v-1.033h-1.97V188.171z M99.132,188.171h1.97v-1.033h-1.97V188.171z M90.705,191.067h1.97v-1.033h-1.97V191.067z M96.323,191.067h1.97v-1.033h-1.97V191.067z M76.703,193.223h1.97v-1.033h-1.97V193.223z M76.703,199.014h1.97v-1.033h-1.97V199.014z M85.712,196.118h1.97v-1.033h-1.97V196.118z M82.321,193.223h1.97v-1.033h-1.97V193.223z M80.094,196.118h1.97v-1.033h-1.97V196.118z M82.321,199.014h1.97v-1.033h-1.97V199.014z M74.475,196.118h1.97v-1.033h-1.97V196.118z M112.552,195.085v1.033h1.97v-1.033H112.552z M104.706,199.014h1.97v-1.033h-1.97V199.014z M106.934,196.118h1.97v-1.033h-1.97V196.118z M101.315,196.118h1.97v-1.033h-1.97V196.118z M110.325,193.223h1.97v-1.033h-1.97V193.223z M110.325,199.014h1.97v-1.033h-1.97V199.014z M104.706,193.223h1.97v-1.033h-1.97V193.223z M90.705,201.17h1.97v-1.033h-1.97V201.17z M96.323,201.17h1.97v-1.033h-1.97V201.17z M87.895,204.065h1.97v-1.033h-1.97V204.065z M93.514,204.065h1.97v-1.033h-1.97V204.065z M99.132,204.065h1.97v-1.033h-1.97V204.065z M90.705,206.961h1.97v-1.033h-1.97V206.961z M96.323,206.961h1.97v-1.033h-1.97V206.961z M92.74,266.659h-5.471l3.691-2.707v-3.861l-5.63-3.572h-3.934v-7.411H65.752v8.062l19.592,10.543h9.047v-5.445l-1.652-1.048L92.74,266.659L92.74,266.659z M77.439,261.871l-8.299-4.466h8.299C77.439,257.405,77.439,261.871,77.439,261.871z M77.504,255.823h-2.503v-2.077h-2.523v2.077h-2.503v-5.881h2.503v2.077h2.523v-2.077h2.503V255.823z M86.46,263.63h-2.503v-2.077h-2.523v2.077h-2.503v-5.881h2.503v2.077h2.523v-2.077h2.503V263.63z M103.653,230.286h-9.048v5.446l1.651,1.048v-5.44h5.471l-3.692,2.707v3.861l5.63,3.572h3.934v7.41h15.645v-8.062L103.653,230.286z M110.066,240.249h-2.503v-2.077h-2.523v2.077h-2.503v-5.881h2.503v2.077h2.523v-2.077h2.503V240.249z M119.021,248.056h-2.503v-2.077h-2.523v2.077h-2.503v-5.881h2.503v2.077h2.523v-2.077h2.503V248.056z M111.559,240.594v-4.466l8.299,4.466H111.559z M87.924,231.568l3.258,2.383v4.079l-5.8,3.655h-3.761v7.203h1.351v-5.827h2.807l8.607-5.455v-1.615l-1.853,1.192v-5.614L87.924,231.568L87.924,231.568z M106.038,249.1v5.853h-2.834l-8.607,5.429v1.642l1.881-1.192v5.614h4.608l-3.257-2.383v-4.079l5.773-3.681h3.787V249.1H106.038L106.038,249.1z M102.551,247.365v-1.303h-2.122L95.609,249l4.82,2.937h2.122v-1.303h-1.39v-1.16h2.542v3.624h-2.848v2.765h-5.434v-3.544h2.152v1.161h-1v1.223h3.13v-1.853l-5.205-3.172l-5.204,3.172v1.853h3.13v-1.223h-0.999v-1.161h2.151v3.544h-5.434v-2.765h-2.848v-3.624h2.542v1.161h-1.39v1.303h2.122l4.82-2.937l-4.82-2.937h-2.122v1.303h1.39v1.161h-2.542v-3.624h2.848v-2.765h5.434v3.544h-2.151v-1.161h0.999v-1.223h-3.13v1.853l5.205,3.172l5.205-3.172v-1.853h-3.129v1.223h0.999v1.161h-2.151v-3.544h5.434v2.765h2.848v3.624h-2.542v-1.161h1.388V247.365z M77.225,236.493l-7.23,3.893h7.23V236.493z M111.785,257.627v3.893l7.23-3.893H111.785z M246.029,67.585c0,20.612-16.715,37.328-37.327,37.328c-9.228,0-17.673-3.352-24.188-8.902c4.031,1.729,8.435,2.773,13.075,2.975c20.592,0.899,38.021-15.071,38.92-35.663c0.522-11.956-4.643-22.844-13.098-30.051l0,0C236.71,38.981,246.029,52.197,246.029,67.585z M187.808,60.71l1.615-4.972h5.228l-4.229-3.073l1.615-4.972l-4.229,3.073l-4.229-3.073l1.615,4.972l-4.229,3.073h5.228L187.808,60.71z M186.193,36.538l1.616,4.972l1.615-4.972h5.228l-4.229-3.073l1.615-4.972l-4.229,3.073l-4.229-3.073l1.615,4.972l-4.229,3.073C180.966,36.538,186.193,36.538,186.193,36.538z M205.161,46.377l1.616,4.972l1.615-4.972h5.228l-4.229-3.073l1.615-4.972l-4.229,3.073l-4.229-3.073l1.615,4.972l-4.229,3.073H205.161z M171.454,62.026l1.615-4.972l-4.229,3.073l-4.229-3.073l1.615,4.972l-4.229,3.073h5.228l1.616,4.972l1.615-4.972h5.228L171.454,62.026z M187.808,79.91l1.615-4.972h5.228l-4.229-3.073l1.615-4.972l-4.229,3.073l-4.229-3.073l1.615,4.972l-4.229,3.073h5.228L187.808,79.91z" />
</svg>
