<svg xmlns="http://www.w3.org/2000/svg" width="450px" height="300px" viewBox="0 0 450 300">
  <path fill="#E30A17" d="M0,0h450v300H0V0z" />
  <path fill="#FFFFFF" d="M257.48,120.684V91.69l-4.837-27.253l-4.837,27.253v28.994h-4.379h-4.379V96.069l4.379-4.379v-4.602h-4.379V63.731l-4.837-27.254l-4.837,27.254v23.356h-4.379h-4.379V63.731l-4.837-27.254l-4.837,27.254v23.356h-4.379v4.602l4.379,4.379v24.616h-4.379h-4.379V91.69l-4.837-27.253L192.51,91.69v28.994h-4.379v4.602l4.379,4.379v52.353c0,17.939,14.543,32.482,32.482,32.482s32.482-14.543,32.482-32.482v-52.353l4.379-4.379v-4.602L257.48,120.684L257.48,120.684z M239.049,129.665l4.379-4.379l4.379,4.379v29.233c-2.545-2.51-5.499-4.607-8.757-6.173L239.049,129.665L239.049,129.665z M234.213,157.23l7.299,12.643h-14.599L234.213,157.23z M220.619,96.069l4.379-4.379l4.379,4.379v24.616h-4.379h-4.379V96.069z M220.619,129.665l4.379-4.379l4.379,4.379v20.173c-1.433-0.193-2.893-0.302-4.379-0.302s-2.946,0.109-4.379,0.302V129.665z M215.782,157.23l7.299,12.643h-14.599L215.782,157.23z M202.189,129.665l4.379-4.379l4.379,4.379v23.06c-3.258,1.566-6.213,3.662-8.757,6.173L202.189,129.665L202.189,129.665z M199.268,186.244l7.299-12.643l7.299,12.643H199.268z M208.483,202.615l7.299-12.643l7.299,12.643H208.483z M217.698,186.244l7.299-12.643l7.299,12.643H217.698z M226.913,202.615l7.299-12.643l7.299,12.643H226.913z M236.129,186.244l7.299-12.643l7.299,12.643H236.129z M192.515,152.709h-28.389c0,0,4.172-9.205,14.195-9.205C188.344,143.504,192.515,152.709,192.515,152.709z M175.636,160.251c-11.122,0-16.879,11.864-16.879,11.864h33.759C192.515,172.115,186.758,160.251,175.636,160.251z M257.48,152.709h28.389c0,0-4.172-9.205-14.195-9.205S257.48,152.709,257.48,152.709z M257.48,172.115h33.759c0,0-5.757-11.864-16.879-11.864S257.48,172.115,257.48,172.115z M186.611,182.019C186.611,182.018,186.611,182.018,186.611,182.019v-4.56h-4.546v4.56h-4.534v-4.56h-4.54v4.56h-4.54v-4.56h-4.54v4.56c0,32.76,25.789,59.491,58.172,61.013v-22.748C202.274,218.787,186.611,202.203,186.611,182.019z M227.912,220.283v22.748c32.383-1.522,58.172-28.253,58.172-61.013v-4.56h-4.54v4.56h-4.54v-4.56h-4.54v4.56h-4.534v-4.56h-4.546v4.56l0,0C263.384,202.203,247.721,218.787,227.912,220.283z M148.74,185.063l9.99-0.277l-0.05-1.772l-9.99,0.277L148.74,185.063z M159.82,184.649c0.195,0.198,0.439,0.293,0.735,0.285s0.532-0.117,0.71-0.326c0.177-0.209,0.262-0.471,0.252-0.787c-0.008-0.315-0.107-0.573-0.296-0.771c-0.189-0.199-0.432-0.294-0.726-0.286c-0.296,0.008-0.536,0.117-0.718,0.326c-0.183,0.209-0.269,0.471-0.26,0.787C159.525,184.193,159.627,184.451,159.82,184.649z M149.4,192.206c0.207,0.423,0.461,0.773,0.764,1.053c0.303,0.278,0.642,0.478,1.014,0.6c0.372,0.122,0.761,0.16,1.167,0.114c0.364-0.041,0.679-0.128,0.948-0.26c0.267-0.133,0.497-0.3,0.688-0.502c0.191-0.201,0.355-0.431,0.49-0.693c0.134-0.26,0.246-0.545,0.334-0.853l0.409-1.415c0.058-0.212,0.119-0.418,0.183-0.62s0.141-0.383,0.231-0.541c0.09-0.159,0.199-0.289,0.326-0.391s0.286-0.163,0.478-0.185c0.364-0.041,0.667,0.068,0.906,0.328c0.239,0.259,0.387,0.627,0.441,1.103c0.048,0.425,0.016,0.818-0.097,1.18c-0.113,0.361-0.284,0.719-0.509,1.072l1.225,0.769c0.342-0.429,0.596-0.924,0.763-1.486c0.166-0.563,0.218-1.133,0.152-1.709c-0.056-0.486-0.176-0.925-0.365-1.32c-0.189-0.393-0.426-0.723-0.712-0.988c-0.286-0.266-0.608-0.463-0.967-0.59c-0.359-0.129-0.734-0.171-1.13-0.126c-0.364,0.041-0.682,0.136-0.952,0.285c-0.27,0.148-0.501,0.331-0.691,0.547c-0.191,0.216-0.349,0.452-0.472,0.707c-0.125,0.255-0.225,0.511-0.298,0.765l-0.438,1.433c-0.066,0.233-0.134,0.449-0.204,0.646c-0.07,0.198-0.15,0.372-0.241,0.52c-0.091,0.149-0.203,0.27-0.336,0.362c-0.133,0.091-0.301,0.149-0.503,0.172c-0.385,0.043-0.71-0.069-0.975-0.336c-0.267-0.267-0.432-0.684-0.495-1.251c-0.052-0.456-0.001-0.923,0.156-1.401c0.156-0.479,0.381-0.916,0.674-1.306l-1.316-0.898c-0.412,0.529-0.71,1.119-0.893,1.77c-0.182,0.651-0.235,1.312-0.159,1.979C149.058,191.294,149.194,191.784,149.4,192.206z M150.751,199.725l8.289-1.867l0.634,2.816l1.461-0.328l-1.661-7.364l-1.46,0.328l0.635,2.818l-8.289,1.868L150.751,199.725z M151.939,204.258l2.81-0.134l1.084,3.183l-2.308,1.609l0.599,1.765l8.413-6.303l-0.67-1.967l-10.51,0.141L151.939,204.258z M159.158,203.913c0.572-0.043,1.146-0.088,1.723-0.134l0.02,0.058c-0.476,0.312-0.954,0.628-1.436,0.95c-0.484,0.319-0.949,0.642-1.399,0.967l-1.044,0.727l-0.822-2.416l1.27-0.061C158.024,203.987,158.588,203.957,159.158,203.913z M155.495,213.631l3.928-1.917c0.504-0.247,1.004-0.522,1.5-0.828c0.498-0.305,0.975-0.593,1.433-0.861l0.028,0.054l-1.46,1.853l-3.685,5.268l0.798,1.635l8.98-4.386l-0.744-1.525l-3.899,1.906c-0.503,0.246-1.011,0.524-1.521,0.836c-0.511,0.312-0.991,0.601-1.44,0.866l-0.027-0.054l1.46-1.853l3.684-5.269l-0.798-1.633l-8.98,4.386L155.495,213.631z M161.392,224.193c0.303,0.459,0.633,0.852,0.989,1.179c0.354,0.326,0.729,0.564,1.121,0.714c0.392,0.149,0.794,0.205,1.207,0.164c0.412-0.041,0.827-0.199,1.245-0.473c0.56-0.37,0.904-0.815,1.032-1.332c0.128-0.518,0.092-1.041-0.109-1.568l0.051-0.033c0.368,0.281,0.79,0.411,1.266,0.391c0.474-0.02,0.912-0.163,1.312-0.427c0.381-0.252,0.655-0.54,0.821-0.863c0.166-0.322,0.239-0.669,0.219-1.041c-0.019-0.372-0.113-0.762-0.279-1.172c-0.166-0.408-0.393-0.83-0.68-1.263l-1.76-2.664l-8.339,5.508L161.392,224.193z M164.252,220.288l0.825,1.249c0.415,0.628,0.629,1.171,0.644,1.627c0.014,0.454-0.201,0.828-0.642,1.121c-0.467,0.308-0.924,0.372-1.367,0.189c-0.444-0.183-0.869-0.581-1.273-1.192l-0.825-1.249L164.252,220.288z M167.656,218.039l0.716,1.084c0.36,0.544,0.544,1.009,0.554,1.393s-0.189,0.711-0.596,0.981c-0.358,0.235-0.729,0.293-1.112,0.175c-0.385-0.118-0.769-0.471-1.157-1.058l-0.699-1.058L167.656,218.039z M168.331,233.052c0.43,0.24,0.891,0.366,1.386,0.377c0.494,0.011,1.016-0.107,1.563-0.351c0.549-0.246,1.135-0.639,1.76-1.178l4.244-3.668l-1.11-1.283l-4.349,3.758c-0.409,0.353-0.785,0.612-1.133,0.779c-0.349,0.166-0.667,0.252-0.956,0.26c-0.291,0.008-0.556-0.053-0.795-0.182c-0.239-0.13-0.46-0.311-0.659-0.541c-0.199-0.232-0.343-0.471-0.43-0.719c-0.087-0.248-0.104-0.513-0.05-0.795c0.053-0.281,0.188-0.579,0.407-0.897c0.217-0.316,0.531-0.65,0.94-1.004l4.346-3.757l-1.159-1.342l-4.242,3.667c-0.625,0.54-1.096,1.065-1.416,1.576c-0.318,0.511-0.509,1.012-0.569,1.503c-0.061,0.49-0.005,0.966,0.172,1.426c0.175,0.46,0.453,0.91,0.834,1.35C167.495,232.471,167.901,232.81,168.331,233.052z M176.113,240.717l1.01-1.107l-3.074-2.8l5.724-6.279l-1.311-1.195l-6.732,7.387L176.113,240.717z M183.068,245.789c0.459,0.303,0.916,0.536,1.372,0.696c0.454,0.161,0.893,0.233,1.313,0.218c0.42-0.016,0.811-0.123,1.176-0.323c0.363-0.199,0.683-0.506,0.958-0.923c0.372-0.562,0.515-1.104,0.429-1.631c-0.084-0.526-0.323-0.993-0.715-1.399l0.035-0.052c0.449,0.115,0.889,0.069,1.316-0.136c0.429-0.205,0.776-0.507,1.039-0.906c0.254-0.383,0.392-0.754,0.419-1.117c0.025-0.362-0.043-0.71-0.207-1.043c-0.164-0.335-0.402-0.658-0.716-0.969c-0.313-0.311-0.685-0.61-1.119-0.897l-2.664-1.762l-5.514,8.335L183.068,245.789z M184.171,241.076l1.249,0.826c0.628,0.415,1.039,0.83,1.23,1.244s0.14,0.841-0.153,1.282c-0.309,0.468-0.704,0.704-1.185,0.711c-0.48,0.005-1.025-0.194-1.638-0.6l-1.249-0.825L184.171,241.076z M186.423,237.674l1.083,0.716c0.545,0.359,0.895,0.715,1.056,1.065c0.159,0.349,0.104,0.727-0.166,1.136c-0.236,0.357-0.554,0.556-0.954,0.597s-0.892-0.133-1.479-0.521l-1.058-0.699L186.423,237.674z M192.936,251.227c0.49,0.053,0.965-0.012,1.424-0.197c0.458-0.183,0.892-0.497,1.3-0.937c0.408-0.441,0.794-1.032,1.157-1.773l2.462-5.039l-1.523-0.745l-2.523,5.162c-0.238,0.486-0.484,0.872-0.738,1.161c-0.255,0.289-0.515,0.495-0.778,0.615c-0.263,0.121-0.53,0.17-0.802,0.144c-0.271-0.024-0.543-0.104-0.819-0.239c-0.275-0.134-0.499-0.298-0.677-0.492c-0.177-0.194-0.296-0.43-0.357-0.711c-0.063-0.279-0.055-0.608,0.021-0.984c0.076-0.377,0.234-0.807,0.47-1.293l2.525-5.162l-1.593-0.779l-2.464,5.039c-0.362,0.741-0.589,1.41-0.682,2.005c-0.093,0.596-0.071,1.13,0.066,1.605c0.136,0.475,0.375,0.89,0.718,1.244s0.775,0.661,1.298,0.914C191.94,251.022,192.446,251.175,192.936,251.227z M195.47,240.219c0.229-0.075,0.402-0.232,0.519-0.469s0.134-0.472,0.056-0.704c-0.08-0.232-0.239-0.406-0.477-0.522c-0.238-0.117-0.471-0.133-0.698-0.052c-0.227,0.083-0.399,0.241-0.515,0.479c-0.117,0.239-0.136,0.469-0.059,0.695c0.077,0.225,0.234,0.395,0.473,0.511C195.007,240.273,195.241,240.293,195.47,240.219z M198.4,241.653c0.225-0.077,0.396-0.235,0.511-0.473c0.117-0.237,0.137-0.472,0.062-0.701s-0.232-0.402-0.469-0.518c-0.238-0.115-0.473-0.134-0.703-0.054c-0.232,0.079-0.406,0.237-0.522,0.475c-0.117,0.237-0.133,0.471-0.052,0.697c0.081,0.227,0.241,0.399,0.48,0.516C197.944,241.71,198.176,241.729,198.4,241.653z M200.51,254.317l1.231-3.503l4.921-4.927l-1.743-0.613l-1.871,2.049c-0.259,0.308-0.52,0.602-0.781,0.883c-0.26,0.281-0.531,0.578-0.813,0.889l-0.058-0.022c-0.025-0.418-0.047-0.817-0.064-1.197c-0.019-0.379-0.033-0.769-0.042-1.172l-0.178-2.768l-1.787-0.628l0.743,6.919l-1.231,3.503L200.51,254.317z M209.824,256.763c0.49-0.062,0.935-0.237,1.339-0.522c0.403-0.286,0.752-0.691,1.047-1.216c0.294-0.524,0.531-1.188,0.711-1.993l1.224-5.474l-1.656-0.369l-1.254,5.607c-0.118,0.528-0.267,0.961-0.448,1.301c-0.18,0.341-0.385,0.6-0.612,0.78c-0.229,0.178-0.478,0.286-0.747,0.326c-0.269,0.039-0.554,0.024-0.851-0.042c-0.299-0.066-0.556-0.174-0.775-0.322c-0.218-0.148-0.389-0.35-0.513-0.608c-0.125-0.258-0.195-0.578-0.208-0.962c-0.014-0.384,0.039-0.84,0.157-1.366l1.254-5.608l-1.73-0.387l-1.222,5.474c-0.181,0.804-0.246,1.509-0.199,2.108c0.05,0.601,0.195,1.115,0.439,1.547c0.242,0.43,0.571,0.777,0.986,1.042c0.416,0.266,0.908,0.461,1.475,0.589C208.807,256.794,209.336,256.827,209.824,256.763z M209.727,245.468c0.204-0.128,0.336-0.319,0.394-0.578c0.058-0.258,0.022-0.49-0.11-0.697c-0.131-0.206-0.327-0.339-0.585-0.397c-0.258-0.057-0.488-0.019-0.691,0.113c-0.201,0.133-0.331,0.328-0.39,0.586c-0.058,0.259-0.022,0.488,0.104,0.689c0.128,0.199,0.32,0.33,0.58,0.387C209.288,245.628,209.521,245.594,209.727,245.468z M212.911,246.178c0.201-0.128,0.33-0.32,0.389-0.578c0.058-0.259,0.024-0.491-0.103-0.697s-0.319-0.336-0.577-0.395c-0.26-0.057-0.492-0.02-0.698,0.111c-0.208,0.13-0.34,0.324-0.397,0.583c-0.058,0.259-0.02,0.488,0.112,0.691c0.132,0.202,0.328,0.332,0.586,0.389C212.48,246.341,212.71,246.306,212.911,246.178z M216.456,257.867l0.271-2.907l1.596-1.646l2.257,4.937l1.948,0.18l-3.011-6.403l3.42-3.595l-1.963-0.183l-3.966,4.189l-0.046-0.004l0.421-4.519l-1.765-0.166l-0.926,9.952L216.456,257.867z M228.361,258.212c0.438-0.171,0.809-0.395,1.112-0.674c0.301-0.278,0.529-0.598,0.682-0.959s0.225-0.745,0.213-1.153c-0.011-0.366-0.071-0.688-0.18-0.966c-0.11-0.277-0.256-0.52-0.441-0.727c-0.184-0.209-0.402-0.392-0.651-0.548c-0.248-0.156-0.522-0.292-0.822-0.406l-1.374-0.526c-0.206-0.076-0.407-0.155-0.602-0.235c-0.197-0.081-0.37-0.174-0.521-0.275c-0.15-0.103-0.271-0.223-0.361-0.358c-0.092-0.134-0.139-0.298-0.145-0.492c-0.01-0.366,0.124-0.658,0.404-0.875c0.279-0.217,0.659-0.332,1.138-0.346c0.427-0.012,0.817,0.053,1.168,0.197c0.35,0.142,0.692,0.342,1.024,0.598l0.87-1.156c-0.398-0.376-0.87-0.672-1.415-0.885c-0.547-0.214-1.111-0.313-1.69-0.297c-0.489,0.015-0.938,0.098-1.346,0.252c-0.408,0.155-0.757,0.364-1.044,0.625c-0.288,0.263-0.511,0.567-0.67,0.913c-0.158,0.347-0.231,0.718-0.22,1.115c0.009,0.366,0.077,0.691,0.203,0.973s0.288,0.528,0.488,0.735c0.197,0.209,0.419,0.385,0.663,0.532c0.244,0.147,0.489,0.267,0.737,0.361l1.392,0.556c0.227,0.085,0.435,0.172,0.627,0.258c0.19,0.087,0.357,0.182,0.497,0.285c0.141,0.103,0.25,0.224,0.332,0.365c0.08,0.14,0.123,0.313,0.128,0.517c0.011,0.387-0.128,0.701-0.416,0.943c-0.288,0.243-0.718,0.373-1.288,0.388c-0.459,0.014-0.92-0.077-1.383-0.274c-0.465-0.195-0.88-0.456-1.245-0.783l-1.005,1.237c0.492,0.454,1.054,0.8,1.688,1.038c0.634,0.235,1.286,0.345,1.958,0.326C227.423,258.475,227.922,258.382,228.361,258.212z M227.588,261.437c0.471-0.248,0.7-0.617,0.686-1.106c-0.01-0.316-0.115-0.555-0.319-0.718c-0.202-0.161-0.488-0.285-0.857-0.365l0.414-1.005l-1.068,0.03l-0.662,1.456c0.459,0.047,0.773,0.126,0.939,0.233s0.251,0.247,0.256,0.421c0.007,0.225-0.103,0.393-0.329,0.506c-0.227,0.114-0.65,0.199-1.271,0.258l0.176,0.76C226.437,261.841,227.116,261.684,227.588,261.437z M238.652,257.182l-0.202-1.484l-4.36,0.596l-0.399-2.922l3.558-0.486l-0.202-1.484l-3.558,0.486l-0.343-2.527l4.208-0.575l-0.204-1.484l-5.965,0.814l1.351,9.902L238.652,257.182z M242.637,256.304l-1.134-4.283l3.913-1.038l1.138,4.284l1.713-0.454l-2.564-9.661l-1.713,0.454l1.031,3.885l-3.914,1.036l-1.03-3.884l-1.713,0.454l2.561,9.659L242.637,256.304z M252.565,253.2l-3.5-9.361l-1.661,0.621l3.502,9.361L252.565,253.2z M256.725,251.453l-1.696-3.525l1.377-0.663l3.636,2.591l1.792-0.861l-3.957-2.725c0.453-0.445,0.741-0.955,0.864-1.534c0.122-0.579,0.018-1.214-0.315-1.902c-0.241-0.505-0.532-0.886-0.863-1.144c-0.334-0.258-0.697-0.419-1.091-0.486c-0.395-0.065-0.814-0.046-1.262,0.057c-0.449,0.103-0.906,0.266-1.376,0.492l-3.04,1.464l4.333,9.005L256.725,251.453z M253.006,243.728l1.281-0.616c0.616-0.296,1.134-0.422,1.557-0.376c0.422,0.045,0.761,0.328,1.012,0.852c0.248,0.514,0.271,0.978,0.068,1.392c-0.201,0.414-0.61,0.768-1.225,1.065l-1.281,0.616L253.006,243.728z M268.978,244.389c0.448-0.317,0.83-0.658,1.146-1.023c0.316-0.366,0.544-0.748,0.682-1.144s0.18-0.8,0.128-1.211s-0.221-0.821-0.509-1.229c-0.387-0.549-0.841-0.88-1.361-0.994c-0.522-0.113-1.043-0.061-1.564,0.156l-0.034-0.05c0.27-0.377,0.388-0.803,0.353-1.277c-0.034-0.473-0.189-0.906-0.464-1.298c-0.263-0.374-0.559-0.64-0.887-0.796c-0.327-0.155-0.676-0.218-1.047-0.187c-0.37,0.03-0.758,0.134-1.163,0.312c-0.403,0.179-0.819,0.416-1.244,0.716l-2.613,1.837l5.749,8.175L268.978,244.389z M262.643,238.306l1.064-0.748c0.533-0.376,0.992-0.574,1.376-0.594s0.716,0.168,0.999,0.568c0.247,0.35,0.315,0.719,0.208,1.106c-0.107,0.388-0.449,0.783-1.024,1.187l-1.038,0.73L262.643,238.306z M264.991,241.643l1.225-0.861c0.617-0.434,1.152-0.665,1.608-0.691c0.453-0.027,0.833,0.176,1.138,0.609c0.32,0.459,0.396,0.912,0.227,1.361c-0.167,0.45-0.552,0.886-1.153,1.308l-1.225,0.861L264.991,241.643z M278.358,236.675l-0.998-1.117l-3.28,2.934l-1.967-2.196l2.678-2.396l-1-1.115l-2.677,2.394l-1.701-1.902l3.166-2.833l-0.998-1.117l-4.486,4.014l6.664,7.449L278.358,236.675z M283.919,230.633l-1.112-1.004l-2.784,3.086l-6.308-5.69l-1.187,1.316l7.42,6.694L283.919,230.633z M288.788,224.049l-1.214-0.878l-2.58,3.564l-2.389-1.73l2.107-2.909l-1.213-0.878l-2.107,2.907l-2.068-1.496l2.493-3.44l-1.214-0.878l-3.531,4.876l8.094,5.862L288.788,224.049z M291.399,219.66c0.359-0.65,0.589-1.282,0.686-1.899c0.096-0.616,0.061-1.207-0.109-1.772c-0.17-0.567-0.478-1.099-0.924-1.597c-0.445-0.498-1.03-0.947-1.751-1.348c-1.443-0.8-2.731-1.027-3.868-0.678c-1.138,0.347-2.077,1.19-2.819,2.525l-1.297,2.339l8.737,4.85L291.399,219.66z M283.435,216.376l0.379-0.681c0.488-0.882,1.112-1.427,1.868-1.636c0.758-0.209,1.671-0.016,2.739,0.577c1.077,0.597,1.741,1.278,1.989,2.038c0.247,0.761,0.123,1.587-0.37,2.479l-0.379,0.681L283.435,216.376z M295.289,211.79l-9.156-4.008l-0.711,1.624l9.156,4.008L295.289,211.79z M297.456,206.03l-3.51-1.207l-4.961-4.889l-0.602,1.749l2.062,1.856c0.311,0.258,0.606,0.516,0.889,0.775c0.284,0.259,0.581,0.529,0.894,0.809l-0.02,0.058c-0.418,0.028-0.818,0.053-1.197,0.073s-0.769,0.037-1.172,0.049l-2.765,0.197l-0.616,1.792l6.912-0.791l3.511,1.207L297.456,206.03z M300.153,195.726l-1.461-0.332l-0.973,4.292l-2.875-0.653l0.794-3.503l-1.46-0.33l-0.795,3.502l-2.489-0.564l0.94-4.143l-1.461-0.331l-1.332,5.872l9.747,2.21L300.153,195.726z M300.954,189.007c-0.107-0.457-0.278-0.855-0.513-1.194c-0.232-0.339-0.518-0.609-0.855-0.811c-0.336-0.201-0.707-0.324-1.112-0.37c-0.365-0.041-0.692-0.024-0.982,0.045c-0.289,0.071-0.549,0.182-0.78,0.335c-0.233,0.153-0.445,0.343-0.634,0.568c-0.189,0.225-0.361,0.478-0.516,0.757l-0.712,1.289c-0.103,0.194-0.209,0.381-0.317,0.564c-0.107,0.183-0.221,0.342-0.345,0.476c-0.123,0.136-0.258,0.239-0.403,0.309c-0.147,0.071-0.316,0.096-0.509,0.075c-0.364-0.042-0.634-0.216-0.81-0.521c-0.178-0.307-0.237-0.699-0.184-1.175c0.047-0.426,0.165-0.802,0.355-1.129c0.191-0.327,0.437-0.638,0.735-0.932l-1.024-1.022c-0.427,0.342-0.785,0.768-1.072,1.279c-0.289,0.511-0.465,1.054-0.529,1.632c-0.054,0.486-0.034,0.942,0.062,1.368s0.255,0.8,0.475,1.122c0.221,0.323,0.491,0.586,0.811,0.791c0.32,0.203,0.68,0.328,1.073,0.373c0.365,0.039,0.696,0.018,0.992-0.066c0.296-0.085,0.562-0.212,0.796-0.38c0.233-0.168,0.44-0.364,0.619-0.585s0.332-0.448,0.461-0.678l0.743-1.302c0.114-0.212,0.229-0.407,0.341-0.583c0.113-0.178,0.229-0.328,0.351-0.453s0.258-0.218,0.408-0.278c0.151-0.06,0.326-0.079,0.529-0.056c0.384,0.042,0.677,0.224,0.876,0.543c0.201,0.32,0.269,0.764,0.206,1.331c-0.052,0.456-0.206,0.899-0.464,1.332c-0.259,0.433-0.575,0.807-0.948,1.123l1.084,1.168c0.52-0.425,0.94-0.935,1.263-1.528c0.323-0.596,0.521-1.226,0.594-1.894C301.086,189.973,301.061,189.465,300.954,189.007z M301.308,183.142l-9.99-0.263l-0.047,1.772l9.99,0.263L301.308,183.142z" />
</svg>
