<svg xmlns="http://www.w3.org/2000/svg" width="450px" height="300px" viewBox="0 0 450 300">
  <path fill="#FFFFFF" d="M0,0h450v300H0V0z" />
  <path fill="#BF0A30" d="M0,150h450v150H0V150z" />
  <path fill="#002868" d="M0,300h142.5L190,150L142.5,0H0V300z" />
  <path fill="#F3E529" d="M74.308,183.402l1.236,4.074l-2.494-0.009L74.308,183.402z M113.945,170.175c-0.753-0.934-1.42-1.451-2.003-1.55c-0.582-0.099-1.227,0.135-1.932,0.704l-0.68,0.548l3.881,4.817l0.667-0.538c0.569-0.459,0.923-0.848,1.062-1.168c0.139-0.32,0.149-0.692,0.032-1.117C114.856,171.446,114.514,170.881,113.945,170.175z M64.687,111.567l-0.77,4.185l2.478-0.285L64.687,111.567z M130.5,150.002c0,24.853-25.184,45.001-56.25,45.001S18,174.855,18,150.002c0-24.853,25.184-45.001,56.25-45.001S130.5,125.149,130.5,150.002z M78.381,119.608l3.445,0.609l0.481-2.722l2.109-1.549l1.54,5.001l4.243,0.75l-3.017-7.693l4.804-3.488l-4.578-0.809l-4.357,3.575l0.744-4.213l-3.445-0.609L78.381,119.608z M59.56,120.598l3.552-0.408l0.331-1.919l3.959-0.455l0.766,1.793l3.637-0.418l-5.52-10.761l-3.79,0.436L59.56,120.598z M35.759,121.11l8.224,8.178l2.888-1.849l-2.178-7.069l5.514,4.933l2.888-1.848l-4.002-10.88l-2.784,1.782l2.402,5.972l-4.886-4.382l-2.79,1.786l1.94,6.268l-4.418-4.682L35.759,121.11z M37.357,162.683l-2.287-2.657l-8.581,7.385l2.287,2.657L37.357,162.683z M46.934,173.194c-0.282-0.887-1-1.767-2.154-2.638c-0.941-0.711-1.77-1.152-2.489-1.324c-0.719-0.172-1.368-0.153-1.949,0.057c-0.581,0.21-1.047,0.546-1.397,1.011c-0.534,0.707-0.71,1.486-0.529,2.34c0.177,0.85,0.774,1.875,1.79,3.075c0.624,0.729,0.968,1.264,1.034,1.604c0.066,0.34,0.01,0.627-0.167,0.861c-0.186,0.246-0.458,0.382-0.815,0.406c-0.357,0.024-0.734-0.115-1.133-0.416c-0.534-0.403-0.807-0.897-0.818-1.479c-0.006-0.359,0.125-0.776,0.394-1.251l-2.781-1.84h0c-0.611,0.971-0.844,1.976-0.699,3.014c0.145,1.038,0.985,2.138,2.522,3.298c0.875,0.661,1.695,1.082,2.461,1.264c0.766,0.182,1.494,0.149,2.183-0.097c0.69-0.247,1.253-0.66,1.691-1.239c0.372-0.493,0.589-1.029,0.65-1.609c0.061-0.58-0.071-1.204-0.396-1.872c-0.325-0.668-0.998-1.594-2.019-2.779c-0.415-0.475-0.644-0.822-0.685-1.04c-0.049-0.217-0.019-0.398,0.09-0.542c0.149-0.197,0.358-0.303,0.626-0.316c0.268-0.013,0.565,0.102,0.889,0.347c0.394,0.298,0.634,0.624,0.718,0.978c0.084,0.354,0.008,0.761-0.23,1.22l2.748,1.834C47.06,175.036,47.215,174.081,46.934,173.194z M60.545,187.518l-5.23-1.568l2.451-8.174l-3.351-1.005l-3.252,10.844l8.581,2.573L60.545,187.518z M80.478,191.812l-4.213-11.337l-3.815-0.014l-4.297,11.305l3.576,0.013l0.555-1.867l3.985,0.015l0.549,1.871L80.478,191.812z M100.623,186.704l-3.342-10.817l-3.15,0.973l1.849,5.984l-5.922-4.725l-3.121,0.964l3.342,10.817l3.143-0.971l-1.835-5.94l5.886,4.688L100.623,186.704z M101.221,150.014c-1.538-2.376-3.776-4.753-4.755-5.172c-1.259-0.559-1.678-1.957-1.259-3.635c1.259-4.893-0.699-9.785-4.335-10.764c-1.818-0.419-5.594,0.28-8.391,1.398l-5.174,2.237l-7.552-5.592c-7.971-5.871-13.565-7.689-7.691-2.376c1.958,1.677,3.496,4.054,3.496,5.172c0,1.258,1.538,2.237,3.496,2.516c1.958,0.28,4.895,1.118,6.713,1.957c2.377,1.258,3.496,1.258,4.755,0c0.979-0.978,3.496-1.677,5.734-1.677c3.776,0,4.056,0.419,3.496,4.054c-0.419,3.075,0.28,4.613,3.356,7.129c2.098,1.678,3.916,4.054,3.916,5.172c0,1.538-0.839,1.118-2.657-1.118c-2.377-2.936-2.517-2.936-2.377-0.559c0.14,1.538,1.119,4.473,2.238,6.57c1.398,3.075,1.538,4.194,0,6.011c-1.818,2.237-9.09,3.075-7.831,0.839c0.42-0.699-1.818-1.118-5.174-0.839c-3.636,0.14-7.412-0.559-10.069-2.097c-2.237-1.398-6.573-2.936-9.509-3.355c-2.937-0.559-5.734-1.957-6.153-3.075c-0.419-0.979-1.538-1.957-2.657-1.957c-1.119,0-5.594-2.796-9.929-6.151c-4.335-3.495-8.531-5.871-9.09-5.452c-1.538,0.839-1.818,0.699,7.412,7.409c4.055,3.075,8.111,5.592,9.09,5.592c0.979,0,2.657,1.118,3.636,2.376c2.377,3.215,13.146,7.968,22.096,9.785c1.958,0.419,8.391,3.215,14.404,6.151c6.013,2.936,11.467,5.452,11.887,5.452c0.559,0,1.119-4.893,1.259-10.764C103.878,156.584,103.459,153.649,101.221,150.014z M104.612,127.398l-4.926-3.494l1.291-1.82l4.441,3.15l1.336-1.884l-4.441-3.15l1.041-1.468l4.787,3.395l1.398-1.972l-7.647-5.424l-6.55,9.234l7.786,5.522L104.612,127.398z M118.082,170.367c-0.204-0.692-0.685-1.509-1.444-2.451c-0.484-0.601-1.015-1.112-1.592-1.533c-0.577-0.421-1.189-0.705-1.836-0.851c-0.647-0.147-1.303-0.13-1.969,0.049c-0.666,0.179-1.397,0.59-2.195,1.233l-4.047,3.261l7.103,8.816l4.047-3.261c0.485-0.391,0.962-0.907,1.43-1.549c0.343-0.468,0.564-1.031,0.662-1.689C118.339,171.734,118.286,171.059,118.082,170.367z M71.411,71.11l-9.185,0l7.43,5.399l-2.838,8.735l7.431-5.398l7.431,5.398l-2.838-8.735l7.43-5.399l-9.185,0l-2.839-8.735L71.411,71.11z M71.411,221.11l-9.185,0l7.43,5.399l-2.838,8.735l7.431-5.398l7.431,5.398l-2.838-8.735l7.43-5.399l-9.185,0l-2.839-8.735L71.411,221.11z M158.286,146.11l-9.185,0l7.43,5.399l-2.838,8.735l7.431-5.398l7.431,5.398l-2.838-8.735l7.43-5.399l-9.185,0l-2.839-8.735L158.286,146.11z" />
</svg>
