<svg xmlns="http://www.w3.org/2000/svg" width="450px" height="300px" viewBox="0 0 450 300">
  <path fill="#FFFFFF" d="M0,0h450v300H0V0z" />
  <path fill="#227ADC" d="M0,0h450v184.375H0V0z" />
  <path fill="#01A9CD" d="M0,206.25h450V300H0V206.25z" />
  <path fill="#4E4418" d="M220.164,80.156c0,1.342,7.441-0.305,12.327,0.687c2.038,0.414,2.915,3.446,4.917,4.98c4.119,3.158,19.041,13.322,14.867,18.288c-6.034,7.179-20.17,12.444-36.155,16.908c-8.701,2.43-18.28,3.304-26.637,7.155c-15.65,7.212-32.375,31.524-31.291,35.418c0.712,2.558,7.51-3.473,16.379-8.339c5.539-3.039,9.742-7.161,17.613-9.932c10.934-3.849,22.673-4.441,34.551-7.717c21.14-5.832,40.491-13.561,46.363-16.232c3.297,2.041,9.802,6.949,16.021,10.534c6.26,3.608,6.92,2.984,9.843,5.56c2.081,1.834,4.58,4.604,6.18,6.331c6.096,6.58,10.321,10.476,15.96,8.427c2.991-1.087,0.353-7.303-2.955-12.215c-1.886-2.8-4.306-4.86-5.23-6.1c-2.432-3.263-9.639-7.552-12.255-14.582c-2.401-6.452-5.513-8.305-5.819-11.979c-0.646-7.748,21.182-22.567,32.404-30.897c14.827-11.005,24.26-23.483,28.008-25.641c8.671-4.993,16.198-8.445,25.675-11.5c9.289-2.994,11.065-7.047,11.065-7.907c0-0.911-19.654,2.075-32.37,3.042c-12.463,0.947-15.632,5.413-20.73,9.501c-11.654,9.343-24.338,19.437-39.049,30.312c-12.493,9.235-24.902,12.28-28.973,12.28c-7.639,0-14.057-7.212-21.817-10.105c-6.985-2.603-16.807-0.931-23.023-1.166C219.95,75.041,220.164,78.251,220.164,80.156z" />
  <path fill="#E8D2D2" d="M233.652,77.241c-0.067,0.917-0.417,2.32-2.955,2.007c0.008-1.138,3.217,1.245,7.103,5.383c5.706,6.077,14.879,10.313,17.569,18.86c12.082,13.475,27.234,23.228,43.119,31.326c6.059,3.089,10.65,16.15,19.652,17.109c-2.133-2.004-7.726-5.468-13.916-13.395c0.524-0.183-0.174-0.053,0.622-0.305c6.796,8.366,12.995,13.234,14.732,13.198c1.117-0.023-13.108-11.936-13.771-13.524c0.377-0.146,0.321-0.166,0.894-0.051c0.443,0.564,10.91,11.63,13.669,12.821c1.727,0.745-11.147-11.3-12.577-13.096c0.242,0.058-0.45,0.228,0.463,0.047c3.025,2.364,14.341,15.073,12.986,11.881c-0.595-1.401-10.625-10.575-11.861-12.499c0.226-0.1,0.309-0.169,0.809-0.416c0.838,1.098,9.237,10.214,10.991,11.664c-0.159-3.141-8.769-11.897-9.256-12.401c-5.334-5.512-11.615-12.034-13.973-19.322c-6.976-9.387-14.211-20.93-25.631-24.946c-2.665-0.442-9.818,1.147-6.169-2.19c1.466-1.063,10.017,0.323,1.504-1.941c-9.784-4.395-19.035-13.005-30.661-10.961C232.864,76.892,234.808,77.232,233.652,77.241z M240.83,119.96c0.672-0.562,1.061,2.828,2.299,1.927c1.238-0.901-1.636-2.696-0.076-3.573c1.649-0.927,0.482,2.856,3.312,2.855c0.221,0-1.285-3.519-0.741-3.717c1.474-0.537,2.888,4.222,3.035,3.718c0.359-1.224-0.453-5.069,0.032-5.078c0.694-0.013,1.884,5.217,2.107,4.567c0.421-1.23-1.424-5.124-0.168-5.642c0.577-0.238,1.692,4.507,3.184,5.296c0.988,0.523-2.428-5.166-1.017-6.077c0.338-0.218,2.331,5.27,2.578,5.258c0.537-0.027-2.248-5.295-1.362-5.832c0.705-0.427,2.941,4.663,3.724,3.67c0.355-0.45-2.225-2.651-2.142-3.826c0.033-0.467,2.363,1.202,2.225,0.612c-0.13-0.557-1.84-3.137-1.3-3.556c0.963-0.747,3.652,3.151,3.529,2.658c-0.404-1.617-3.762-5.432-3.363-5.261c4.791,2.055,11.399,10.396,11.837,11.036c0.037,0.054-2.239,1.243-3.08,1.046c-0.94-0.221-0.496-1.822-1.308-1.584c-0.998,0.293-0.458,2.258-1.361,2.177c-1.217-0.11-0.806-2.429-2.065-2.066c-0.71,0.205-0.861,2.641-1.549,3.098c-1.016,0.675-1.997,1.043-3.34,1.336c-1.548,0.338-0.702-1.519-2.311-0.968c-0.437,0.15,0.939,1.416,0.415,1.816c-1.364,1.043-1.826-0.726-2.575-0.5c-0.809,0.244-0.448,2.123-1.934,2.359c-1.597,0.253-2.219-1.484-2.985-0.959c-1.13,0.775-1.241,2.491-2.083,2.781c-0.911,0.313-0.482-2.549-1.284-2.095c-0.549,0.311-0.837,1.903-1.322,2.281c-1.899,1.48-3.63,2.01-3.747,1.824c-0.668-1.067,1.391-0.892,2.547-3.256C241.388,124.559,240.158,120.522,240.83,119.96z M289.948,101.961c4.063-4.47,4.573-4.593,6.116-6.766c-2.755-2.503-5.799-6.835-10.083-7.316c-1.525-0.171,7.623,6.092,6.447,6.586c-0.841,0.354-7.451-6.366-8.706-5.53c-0.984,0.655,7.208,6.569,6.535,6.95c-0.416,0.235-7.813-7.383-8.401-6.484c-0.362,0.553,6.837,7.661,6.433,7.786c-0.567,0.176-6.002-6.37-7.198-5.541c-0.976,0.676,5.937,6.035,5.545,6.171c-1.196,0.413-6.615-6.146-7.102-5.482C277.514,95.09,286.16,98.344,289.948,101.961z" />
  <path fill="#FFFFFF" d="M291.081,125.332c5.773,3.592,19.87,9.369,19.383,8.865c-5.334-5.512-10.154-10.381-12.512-17.669c-4.298-5.784-9.539-13.486-15.451-18.708c-3.683-3.253-8.316-5.347-11.035-6.017c-0.685-0.169-3.759,0.544-5.609-0.402c-2.007-1.026-5.121-1.774-6.251,1.355c-0.566,1.569,3.664,8.853,10.3,15.86C275.902,114.949,283.922,120.878,291.081,125.332z M236.538,83.101c2.055,1.32-0.4-2.652,1.731-1.399c2.897,1.703,6.98,4.346,16.103,8.264c6.249,2.684,9.199-4.242,6.683-5.73c-9.019-5.332-12.434-9.79-24.06-7.745C232.864,76.892,232.783,80.689,236.538,83.101z M163.826,156.68c0.763-1.465,3.228-4.16,4.93-5.508c1.702-1.348,2.641-1.348,1.878,0.117c-0.763,1.465-3.228,4.395-4.93,5.742C164.002,158.379,163.063,158.145,163.826,156.68z M168.4,149.12c0.382,0.32-0.226,1.629-1.358,2.924c-1.133,1.295-2.361,2.085-2.743,1.765s0.226-1.629,1.358-2.924C166.79,149.59,168.018,148.8,168.4,149.12z M172.86,151.581c0.382,0.32-0.226,1.629-1.358,2.924c-1.133,1.295-2.361,2.085-2.743,1.765c-0.382-0.32,0.226-1.629,1.358-2.924C171.25,152.051,172.478,151.261,172.86,151.581z M181.994,148.411c0.174,0.364-0.699,1.056-1.95,1.545c-1.25,0.489-2.405,0.591-2.578,0.227s0.699-1.056,1.95-1.545C180.666,148.149,181.82,148.047,181.994,148.411L181.994,148.411z M171.573,145.781c-3.345,3.75,2.609,2.956,5.751,1.641c3.638-1.523,3.801-2.435,8.04-3.984c4.167-1.523,7.949-2.776,8.92-3.105c0.952-0.322,0.724-1.818,1.576-1.944c0.914-0.135,0.715,1.318,1.29,1.305c1.01-0.023,0.485-2.085,1.329-2.063c0.559,0.015,0.703,2.202,1.964,2.045c1.313-0.164-0.161-2.137,0.734-2.21c0.828-0.068,0.743,1.97,1.608,1.828s-0.363-2.074,0.55-2.216c0.703-0.109,0.385,2.126,1.96,1.666c0.423-0.123-0.066-1.767,0.656-1.849c0.395-0.045,1.788,1.516,2.558,1.491c0.816-0.027,0.151-2.91,0.447-2.975c0.545-0.121,1.764,2.265,2.505,1.905c0.725-0.353,0.619-2.518,1.125-2.394c0.896,0.219,0.928,2.142,1.924,1.829c0.438-0.137-0.048-2.057,0.414-2.326c0.527-0.308,1.129,0.858,2.313,0.655c0.412-0.071,0.152-1.818,0.688-2.171c0.264-0.173,0.768,1.358,1.304,1.856c0.326,0.303,0.573-2.017,0.876-2.095c0.227-0.059,0.526,2.144,0.694,2.153c0.641,0.037,0.488-2.123,0.884-2.217c1.921-0.456,0.932,1.546,1.435,1.486c1.243-0.15,0.646-1.698,1.118-1.798c0.559-0.119,0.656,1.649,1.913,1.45c0.207-0.033,0.197-1.846,0.615-2.016c0.437-0.177,1.303,1.291,1.579,0.823c0.392-0.664,0.033-2.047,0.626-2.233c0.553-0.173,1.291,2.208,2.223,2.052s0.372-1.643,1.172-2.009c1.432-0.655,5.62,0.62,5.642-0.988c0.013-0.935-10.74-2.987-16.284-2.961c-1.836,0.009-1.41,1.366-2.075,1.34c-1.273-0.049-1.902-2.242-2.173-2.218c-1.536,0.14,0.519,3.036-0.291,3.074c-0.616,0.029-1.983-2.56-2.358-2.231c-0.577,0.507-0.098,2.51-0.798,2.698c-0.365,0.098-1.605-2.483-1.88-2.296c-0.978,0.665,0.127,3.141-0.837,3.326c-1.113,0.213-1.763-2.653-2.588-2.32c-1.195,0.482,0.143,1.938-0.843,2.113c-1.071,0.19-0.864-2.623-1.622-2.289c-1.29,0.568,0.518,2.911-0.403,3.068c-1.615,0.274-0.926-2.973-1.618-2.695c-2.019,0.812-0.28,1.765-0.445,3.129c-1.724,0.222-2.952-2.678-3.365-2.223c-0.612,0.675-0.059,1.616,0.102,3.341c-1.427,0.43-3.101-2.686-3.647-2.266c-0.984,0.757,0.167,2.479,0.584,3.534c-1.498,0.79-2.008-2.737-2.854-2.272c-0.846,0.465-0.479,2.993-0.338,3.937c-1.417-1.609-1.881-2.992-3.406-2.575c-1.49,0.408,0.995,4.384,1.238,5.559c-1.052,0.55-3.526-3.818-4.457-3.292c-0.931,0.526-0.723,0.335,1.621,5.728c-2.424-0.587-3.256-4.053-4.236-3.563c-0.981,0.49,0.077,3.933,0.2,4.757c-0.6-0.032-1.343,0.579-1.506-0.314c-0.401-2.2-1.309-3.219-1.524-3.164c-1.423,0.363-1.051,4.099-1.011,5.712c-1.04,0.949-1.657-3.406-1.806-3.307c-0.76,0.501-0.445,2.8-0.292,4.485c-2.435,0.284-2.645-3.589-3.223-2.895c-1.133,1.361,0.048,3.676-0.682,4.043c-0.438,0.22-1.194-0.979-2.049-1.26C172.566,144.892,171.821,145.503,171.573,145.781z M305.826,79.373c-0.408,0.18-1.597-2.478-1.904-1.635c-0.253,0.692,1.248,2.348,0.943,2.534c-0.36,0.22-2.112-1.91-2.46-1.717c-0.692,0.385,1.746,2.081,1.128,2.526c-0.619,0.445-1.387-2.283-2.188-1.27c-0.777,0.984,1.45,2.577,0.833,3.269c-0.433,0.486-1.414-1.85-2.305-0.853c-0.862,0.965,1.834,2.504,1.408,2.954c-1.181,1.248-1.622-2.218-2.665-0.89c-0.561,0.714,1.023,1.664,0.406,2.199c-0.792,0.686-2.422-2.828-3.678-1.824c-1.201,0.96,2.359,2.986,1.867,3.443c-0.433,0.402-3.24-2.152-3.578-1.79c-0.984,1.053,1.858,3.913,1.269,3.745c-1.505-0.429-3.541-3.799-4.491-3.16c-0.924,0.622,3.713,5.03,4.287,5.758c1.704,2.161,3.354,1.49,4.029,0.901c0.173-0.151-2.019-2.447-1.212-3.018c1.046-0.741,0.895,2.817,2.309,1.832s-2.11-2.144-0.24-3.452c0.289-0.202,1.595,2.344,2.662,1.739c1.055-0.598-1.558-2.152-0.675-2.695c0.409-0.252,2.03,2.22,2.66,1.677c0.529-0.456-1.032-2.758-0.809-3.037c0.196-0.246,2.197,1.513,2.308,1.39c0.874-0.971-1.305-2.899-0.279-3.572c0.66-0.432,1.402,2.967,2.412,2.34c1.009-0.627-0.648-1.875,0.17-2.504s1.563,1.427,2.85,0.554c1.935-1.313,3.038-2.127,3.069-2.148c0.319-0.221-2.16-2.414-4.623-3.528c-0.787-0.356-2.775-1.85-3.353-1.747C305.356,77.5,306.162,79.225,305.826,79.373z M317.939,79.508c0,0,1.434-1.326,4.456-3.98c0.306-0.269,1.494-0.104,1.766-0.611c0.219-0.409-0.485-1.502-0.195-1.713c0.533-0.387,1.952,0.506,2.48,0.187c1.348-0.815-1.004-0.925-0.245-1.53c0.408-0.325,1.184,0.733,2.152,0.425c0.547-0.174-1.539-1.264-1.007-1.729c0.366-0.319,2.193,0.807,2.982,0.629c0.721-0.164-0.923-1.767-0.616-2.357c0.536-1.029,3.701-0.559,5.274-1.818c0.839-0.671,2.147-3.198,4.708-6.083c0.933-1.051,2.704-1.095,3.87-2.169c1.704-1.569,2.85-4.14,4.256-5.377c1.213-1.068,3.118-1.31,4.275-2.151c4.025-2.925,6.808-5.283,8.405-6.424c3.949-2.823,5.299-4.82,6.838-7.061c-1.631-2.593-2.939-3.431-5.135-2.305c-2.104,1.078,0.72,4.104-0.37,4.757c-0.251,0.151-1.31-2.154-1.839-1.746c-0.513,0.396-0.493,3.511-0.967,3.307c-0.678-0.292-1.046-2.804-1.304-2.424c-0.514,0.757-0.114,4.05-0.734,4.32c-0.655,0.285-2.398-1.571-2.572-1.19c-0.422,0.927,1.167,3.087,0.368,3.052c-0.983-0.043-2.761-2.928-3.148-2.475c-0.649,0.758,1.352,3.487,0.58,3.466c-1.088-0.029-3.443-3.502-4.165-3.131c-1.11,0.571,0.452,3.684-0.58,3.794c-1.699,0.181-2.751-2.367-4.874-1.22c-2.192,1.184,2.689,3.768,2.186,4.177c-0.957,0.78-3.63-2.614-4.823-1.999c-0.18,0.093,0.741,2.675,0.343,2.774c-0.422,0.105-1.351-2.204-1.671-1.674c-0.456,0.758-0.288,2.901-0.784,3.105c-0.805,0.331-1.672-2.161-2.111-1.609c-0.36,0.454,0.642,1.902,0.336,2.309c-0.341,0.454-0.932-0.888-1.174-0.33c-0.089,0.206-0.042,1.967-0.226,2.129c-0.556,0.493-1.899-0.108-2.562,0.19c-0.641,0.288-0.314,1.877-0.774,2.425c-0.48,0.573-1.744,0.112-2.273,0.714c-0.525,0.597-0.276,1.675-0.772,2.294c-0.433,0.539-1.616,0.616-2.02,1.167c-0.223,0.304-0.337,2.335-0.887,2.943c-0.643,0.71-1.732,0.034-2.008,0.856c-0.328,0.974,0.351,2.771-0.707,4.106C319.984,72.921,317.939,79.508,317.939,79.508z M375.777,34.841c-0.021,0.369-1.394,0.59-3.066,0.493s-3.01-0.475-2.988-0.844c0.021-0.369,1.394-0.59,3.066-0.493C374.46,34.094,375.798,34.472,375.777,34.841z M374.266,36.994c0,0.37-1.201,0.67-2.682,0.67s-2.682-0.3-2.682-0.67s1.201-0.67,2.682-0.67S374.266,36.624,374.266,36.994L374.266,36.994z M373.434,39.015c0.046,0.335-0.837,0.719-1.972,0.858c-1.135,0.139-2.092-0.019-2.137-0.354c0-0.002,0-0.004-0.001-0.005c-0.046-0.335,0.837-0.719,1.972-0.858c1.135-0.139,2.092,0.019,2.137,0.354C373.434,39.012,373.434,39.013,373.434,39.015z" />
  <path fill="#F9B127" stroke="#4E4418" stroke-width="0.3905" d="M220.636,79.82c0,0.239,3.237,1.134,3.231-0.507c-0.006-1.524,1.7-1.708,2.868-1.728c2.275-0.039,6.055-0.593,6.055,0.789c-1.888,0-7.419-0.674-7.419,0.86c0,0.912,6.2,0.629,7.054,0.803c2.038,0.414,3.892-2.312,2.878-3.518c-0.953-1.134-8.274-0.665-10.981-0.665C221.547,75.853,220.636,77.915,220.636,79.82z" />
  <path fill="#000000" d="M242.668,77.325c-0.161-0.682-0.847-1.024-1.397-1.299c-0.793-0.436-1.233-0.102-1.985,0.013c-0.246,0.899-1.011,1.047-1.26,2.137c-0.111,0.477-0.36,0.956-0.025,1.408c0.305,0.403,0.857,0.446,2.043,0.446C241.616,79.967,242.878,78.338,242.668,77.325z" />
</svg>
