<svg xmlns="http://www.w3.org/2000/svg" width="450px" height="300px" viewBox="0 0 450 300">
  <path fill="#FFE000" d="M0,0h400v300H0V0z" />
  <path fill="#FFFFFF" d="M225,0h225v300H225V0z" />
  <g>
    <g>
      <path fill="#FFFFFF" stroke="#000000" stroke-width="0.5769" stroke-linecap="round" stroke-linejoin="round" d="	M320.6,112.2l2.9,0.7l4.6,0.8l2.1,0.2l-0.4,9c0,0-0.5,6-1.4,8.8c-0.6,2.1-2.8,6-2.8,6l-1.4,2.1l-8.2-7.1c0,0,1.4-2,1.9-3.1	c0.6-1.4,1.4-4.3,1.4-4.3l0.8-4.7l0.4-5.9L320.6,112.2z M310.3,139.5l7.4,6.5c0,0-1.5,1.3-2.4,1.8c-1.8,0.8-3.7,1.4-5.7,1.3	c-1.4,0-2.8-0.5-4-1.1c-2.8-1.3-6-2.6-7.8-5.2c-0.6-0.9-0.9-2.1-0.9-3.2c0-1.2,1.1-3.6,1.1-3.6s0.4,1.6,0.9,2.2	c0.8,1,2,1.7,3.2,2.2c0.9,0.4,1.8,0.7,2.8,0.8c1.2,0.1,2.5-0.1,3.7-0.6C309.3,140.3,310.3,139.5,310.3,139.5L310.3,139.5z	 M348.6,112.2l-2.9,0.7l-4.6,0.8l-2.1,0.2l0.4,9c0,0,0.5,6,1.4,8.8c0.6,2.1,2.8,6,2.8,6l1.4,2.1l8.2-7.1c0,0-1.4-2-1.9-3.1	c-0.6-1.4-1.4-4.3-1.4-4.3l-0.8-4.7l-0.4-5.9L348.6,112.2z M358.9,139.5l-7.4,6.5c0,0,1.5,1.3,2.4,1.8c1.8,0.8,3.7,1.4,5.7,1.3	c1.4,0,2.8-0.5,4-1.1c2.8-1.3,6-2.6,7.8-5.2c0.6-0.9,0.9-2.1,0.9-3.2c0-1.2-1.1-3.6-1.1-3.6s-0.4,1.6-0.9,2.2	c-0.8,1-2,1.7-3.2,2.2c-0.9,0.4-1.8,0.7-2.8,0.8c-1.2,0.1-2.5-0.1-3.7-0.6C359.9,140.3,358.9,139.5,358.9,139.5L358.9,139.5z" />
      <path fill="#FFFFFF" stroke="#000000" stroke-width="0.5769" stroke-linecap="round" stroke-linejoin="round" d="	M298.6,91.9c0,0,0.6,1.2,0.8,1.8c0.3,1.1,0.5,2.2,0.5,3.3c0,1.1-0.3,2.3-0.6,3.3c-0.5,1.6-1.1,3.2-1.9,4.7	c-0.5,1-1.1,1.9-1.5,2.8c-0.7,1.6-1.3,3.2-1.9,4.8c-0.5,1.3-1.2,2.6-1.6,4c-0.5,1.8-0.8,3.8-1.1,5.7c-0.2,1.6-0.4,3.3-0.4,4.9	c0,2,0,3.9,0.4,5.9c0.4,1.9,0.9,3.8,1.8,5.6c0.7,1.4,1.6,2.7,2.7,3.9c0.9,0.9,1.9,1.8,3,2.4c1,0.6,2.1,1,3.2,1.4	c1.5,0.6,4.6,1.7,4.6,1.7s-4.2-2.1-5.7-3.8c-1.2-1.4-1.9-3.4-2.3-5.2c-0.5-2.1-0.4-4.4-0.2-6.6c0.2-2.4,0.9-4.7,1.6-6.9	c0.8-2.4,1.8-4.7,2.8-6.9c0.7-1.7,1.5-3.3,2.2-4.9c0.8-2,1.6-3.9,2.2-6c0.4-1.2,0.9-2.5,1-3.8c0.1-1.4-0.1-2.8-0.4-4.2	c-0.5-1.9-1-3.9-2.1-5.5c-0.7-1-1.6-1.8-2.7-2.4c-1-0.5-2.3-1-3.4-0.8C299.1,91.3,298.6,91.9,298.6,91.9L298.6,91.9z M370.6,91.9	c0,0-0.6,1.2-0.8,1.8c-0.3,1.1-0.5,2.2-0.5,3.3c0,1.1,0.3,2.3,0.6,3.3c0.5,1.6,1.1,3.2,1.9,4.7c0.5,1,1.1,1.9,1.5,2.8	c0.7,1.6,1.3,3.2,1.9,4.8c0.5,1.3,1.2,2.6,1.6,4c0.5,1.8,0.8,3.8,1.1,5.7c0.2,1.6,0.4,3.3,0.4,4.9c0,2,0,3.9-0.4,5.9	c-0.4,1.9-0.9,3.8-1.8,5.6c-0.7,1.4-1.6,2.7-2.7,3.9c-0.9,0.9-1.9,1.8-3,2.4c-1,0.6-2.1,1-3.2,1.4c-1.5,0.6-4.6,1.7-4.6,1.7	s4.2-2.1,5.7-3.8c1.2-1.4,1.9-3.4,2.3-5.2c0.5-2.1,0.4-4.4,0.2-6.6c-0.2-2.4-0.9-4.7-1.6-6.9c-0.8-2.4-1.8-4.7-2.8-6.9	c-0.7-1.7-1.5-3.3-2.2-4.9c-0.8-2-1.6-3.9-2.2-6c-0.4-1.2-0.9-2.5-1-3.8c-0.1-1.4,0.1-2.8,0.4-4.2c0.5-1.9,1-3.9,2.1-5.5	c0.7-1,1.6-1.8,2.7-2.4c1-0.5,2.3-1,3.4-0.8C370.1,91.3,370.6,91.9,370.6,91.9L370.6,91.9z" />
      <path fill="#FFFFFF" stroke="#000000" stroke-width="0.5769" stroke-linecap="round" stroke-linejoin="round" d="	M308.1,104.2c0,0,0.8-3.2,0.9-4.9c0.1-1.4,0-2.8-0.1-4.3c-0.2-1.6-0.3-3.2-0.9-4.7s-1.6-2.9-2.8-4c-1.2-1.1-2.6-2-4.1-2.6	c-1.6-0.6-3.3-0.8-5-0.9c-1.5-0.1-2.9,0-4.4,0.2c-0.8,0.1-1.7,0.2-2.5,0.5c-0.7,0.2-2.1,1-2.1,1l5.4,8.8c0,0,1.7-1,2.6-1.2	c1-0.3,2-0.3,3.1-0.2c1,0.1,2.1,0.2,3.1,0.6c1.2,0.5,2.2,1.4,3.2,2.4c1.1,1.2,2.1,2.5,2.7,3.9s0.6,2.9,0.9,4.4	C308,103.5,308.1,104.2,308.1,104.2L308.1,104.2z M361.1,104.2c0,0-0.8-3.2-0.9-4.9c-0.1-1.4,0-2.8,0.1-4.3	c0.2-1.6,0.3-3.2,0.9-4.7s1.6-2.9,2.8-4c1.2-1.1,2.6-2,4.1-2.6c1.6-0.6,3.3-0.8,5-0.9c1.5-0.1,2.9,0,4.4,0.2	c0.8,0.1,1.7,0.2,2.5,0.5c0.7,0.2,2.1,1,2.1,1l-5.4,8.8c0,0-1.7-1-2.6-1.2c-1-0.3-2-0.3-3.1-0.2c-1,0.1-2.1,0.2-3.1,0.6	c-1.2,0.5-2.2,1.4-3.2,2.4c-1.1,1.2-2.1,2.5-2.7,3.9s-0.6,2.9-0.9,4.4C361.1,103.5,361.1,104.2,361.1,104.2L361.1,104.2z" />
      <path fill="#FFE000" stroke="#000000" stroke-width="0.5769" stroke-linecap="round" stroke-linejoin="round" d="	M309.1,97.1c0,0-1-3-1.9-4.2c-1-1.4-2.4-2.8-4-3.6c-1.7-0.8-5.6-1.1-5.6-1.1l2,3.8l-3.6-0.1l-1.9-3.1l-3.5,1.6l-1.7-2.8l3.7-1.7	l-1.7-2.7l3.7-0.3l1.6,2.7c0,0,2.9,0,4.2,0.3c0.9,0.2,1.9,0.5,2.7,1c0.8,0.4,1.6,1,2.2,1.6c0.8,0.8,1.6,1.6,2.1,2.6	c0.5,0.9,1.2,3,1.2,3L309.1,97.1z M284.7,86.1l5.7,8.4 M287.2,84.6l-2.7,1.6l-2.6,2l5.6,8.5l2.5-1.9l2.5-1.5L287.2,84.6z	 M297.7,120.4l3.2-6.6l3.5,1.4l1.4-3.4l-3.4-1.6l1.8-3.8l-2.5-1.1l-1.9,3.7l-3.5-1.4l-1.5,3.6l3.4,1.4L295,119L297.7,120.4z	 M323.5,118.4l3.3-0.1v3.8l3.2,0.2l-0.5,3.8l-2.9-0.2c0,0-0.5,2.3-0.9,3.3c-0.5,1.1-1.7,3.1-1.7,3.1l-3.5-0.9c0,0,1.3-2,1.8-3.1	c0.4-1,1-3,1-3l-3.6-0.4l0.6-3.6l3.3,0.2L323.5,118.4z M360.1,97.1c0,0,1-3,1.9-4.2c1-1.4,2.4-2.8,4-3.6c1.7-0.8,5.6-1.1,5.6-1.1	l-2,3.8l3.6-0.1l1.9-3.1l3.5,1.6l1.7-2.8l-3.7-1.7l1.7-2.7l-3.7-0.3l-1.6,2.7c0,0-2.9,0-4.2,0.3c-0.9,0.2-1.9,0.5-2.7,1	c-0.8,0.4-1.6,1-2.2,1.6c-0.8,0.8-1.6,1.6-2.1,2.6c-0.5,0.9-1.2,3-1.2,3L360.1,97.1z M384.5,86.1l-5.7,8.4 M382,84.6l2.7,1.6	l2.6,2l-5.6,8.5l-2.5-1.9l-2.5-1.5L382,84.6z M371.5,120.4l-3.2-6.6l-3.5,1.4l-1.4-3.4l3.4-1.6l-1.8-3.8l2.5-1.1l1.9,3.7l3.5-1.4	l1.5,3.6l-3.4,1.4l3.1,6.6L371.5,120.4z M345.8,118.4l-3.3-0.1v3.8l-3.2,0.2l0.5,3.8l2.9-0.2c0,0,0.5,2.3,0.9,3.3	c0.5,1.1,1.7,3.1,1.7,3.1l3.5-0.9c0,0-1.3-2-1.8-3.1c-0.4-1-1-3-1-3l3.6-0.4l-0.6-3.6l-3.3,0.2L345.8,118.4z" />
      <path fill="#FFFFFF" stroke="#000000" stroke-width="0.5769" stroke-linecap="round" stroke-linejoin="round" d="M316.2,66.3l-4.9,5.3l3,9.2l1.7,6.4l-5,4.7l9.1,12.7l29-2.8l9.3-10l-3.6-3.2l-0.1-7.8l3-9.2l-4.6-4.6L349,56c0,0-0.9-3.1-1.6-4.5c-0.4-0.8-1-1.6-1.6-2.3c-0.7-0.9-1.4-1.8-2.3-2.5c-0.8-0.7-1.7-1.1-2.6-1.6c-1-0.5-2-1.1-3-1.3c-1.1-0.3-3.4-0.3-3.4-0.3s-2.3,0-3.4,0.3s-2,0.8-3,1.3c-0.9,0.5-1.8,1-2.6,1.6c-0.9,0.7-1.6,1.6-2.3,2.5c-0.6,0.7-1.2,1.5-1.6,2.3c-0.7,1.4-1.6,4.5-1.6,4.5L316.2,66.3z" />
      <path fill="#FF0000" stroke="#000000" stroke-width="0.72" stroke-linecap="round" stroke-linejoin="round" d="M334.6,103.7c9.72,0,17.6,2.328,17.6,5.2s-7.88,5.2-17.6,5.2s-17.6-2.328-17.6-5.2S324.88,103.7,334.6,103.7z" />
      <path fill="#FFE000" stroke="#000000" stroke-width="0.5769" stroke-linecap="round" stroke-linejoin="round" d="M353.4,101.9c0,0-0.6-0.5-0.9-0.7c-0.7-0.4-1.4-0.8-2.1-1.1c-1-0.4-2.1-0.6-3.1-0.8c-1.2-0.3-2.4-0.6-3.6-0.7c-1.4-0.2-2.9-0.3-4.3-0.3c-1.5,0-4.6,0.2-4.6,0.2s-3.1-0.2-4.6-0.2s-2.9,0.1-4.3,0.3c-1.2,0.2-2.4,0.4-3.6,0.7c-1,0.2-2.1,0.4-3.1,0.8c-0.8,0.3-1.5,0.7-2.1,1.1c-0.3,0.2-0.9,0.7-0.9,0.7 M355.2,94.2c0,0-0.9-0.9-1.5-1.1c-0.4-0.1-0.9,0-1.2,0.3c-0.4,0.3-0.7,0.8-0.8,1.3c-0.1,0.5-0.1,1,0.1,1.4c0.1,0.4,0.4,0.8,0.8,0.9c0.9,0.3,2.8-0.4,2.8-0.4L355.2,94.2z M356.1,93.6c1,0,1.4,0.6,1.7,1.2 M314,94.2l-0.1,2.5c0,0,1.9,0.7,2.8,0.4c0.4-0.2,0.6-0.6,0.8-0.9c0.2-0.4,0.2-0.9,0.1-1.4s-0.4-1-0.8-1.3c-0.3-0.2-0.8-0.3-1.2-0.3C315,93.3,314,94.2,314,94.2L314,94.2z M313.1,93.6c-1,0-1.4,0.6-1.7,1.2 M347.1,95l-1.5-0.2 M322.1,95l1.5-0.2 M337.3,95c-0.5-0.1-1.4-0.8-1.4-0.8 M331.9,95c0.5-0.1,1.4-0.8,1.4-0.8 M358.6,90.7c0,0-0.8,0.6-1.3,0.7l-0.2,0.1c0,0-0.4,1-0.7,1.5s-1.2,1.1-1.2,1.1s-0.9-0.8-1.4-0.9c-0.4-0.1-0.8-0.1-1.1,0c-0.4,0.1-0.6,0.5-0.9,0.8c-0.2,0.4-0.5,0.8-0.5,1.3s0.7,1.5,0.7,1.5l-0.5,0.8L351,98c-1.1-0.3-2.3-0.7-3.4-1.4c-0.3-0.3-0.6-0.8-0.8-1.6c0,0,0.8-0.5,1-0.9c0.2-0.5,0.3-1.1,0-1.5c-0.3-0.5-1-0.7-1.5-0.7c-0.4,0-0.8,0.2-1.1,0.5c-0.3,0.3-0.5,0.8-0.5,1.2c0.1,0.4,0.9,1.1,0.9,1.1s-0.3,0.8-0.7,1c-1.1,0.5-1.8,0.7-2.7,0.9s-2,0.3-2.9,0c-0.6-0.2-1.2-0.5-1.6-1c-0.1-0.2-0.1-0.5-0.1-0.5s1.2-0.3,1.6-0.7c0.5-0.3,1-0.8,1-1.4c0.1-0.6-0.2-1.2-0.5-1.7s-0.8-0.8-1.4-1.1c-0.2-0.1-0.8-0.1-0.8-0.1s-0.1,0.1-0.2,0.2c-0.2,0.3-0.5,0.5-0.9,0.7l0,0l0,0c-0.1,0-0.1,0.1-0.2,0.1h-0.1c-0.2,0.1-0.4,0.1-0.4,0.1s0.7,0.2,0.9,0.5c0.1,0.2,0.2,0.4,0.2,0.6c0,0.1,0,0.3,0,0.4c0,0.2-0.1,0.4-0.1,0.6c-0.1,0.2-0.1,0.4-0.3,0.6c-0.1,0.1-0.2,0.2-0.3,0.2l0,0l0,0c-0.2,0.1-0.4,0.2-0.6,0.3c-0.2,0.1-0.8,0-0.8,0s1,0,1.4-0.3l0,0c0.3-0.2,0.5-0.5,0.6-0.9c0-0.1,0.1-0.3,0.1-0.4c0-0.2,0-0.4,0-0.6c-0.1-0.3-0.2-0.6-0.4-0.8c-0.4-0.4-1.7-0.4-1.7-0.4s-1.3,0.1-1.7,0.4c-0.2,0.2-0.3,0.5-0.4,0.8c0,0.2,0,0.4,0,0.6c0,0.1,0,0.3,0.1,0.4c0.1,0.3,0.3,0.7,0.6,0.9l0,0c0.4,0.3,1.4,0.3,1.4,0.3s-0.5,0.1-0.8,0c-0.2-0.1-0.4-0.2-0.6-0.3l0,0l0,0c-0.1-0.1-0.2-0.2-0.3-0.2c-0.1-0.2-0.2-0.4-0.3-0.6c-0.1-0.2-0.1-0.4-0.1-0.6c0-0.1,0-0.2,0-0.4c0-0.2,0.1-0.4,0.2-0.6c0.2-0.3,0.9-0.5,0.9-0.5s-0.2-0.1-0.4-0.1h-0.1c-0.1,0-0.1-0.1-0.2-0.1l0,0l0,0c-0.3-0.2-0.6-0.4-0.9-0.7c-0.1-0.1-0.2-0.2-0.2-0.2s-0.5,0-0.8,0.1c-0.5,0.2-1,0.6-1.4,1.1c-0.3,0.5-0.6,1.1-0.5,1.7s0.6,1,1,1.4s1.6,0.7,1.6,0.7s0,0.4-0.1,0.5c-0.4,0.5-1,0.8-1.6,1c-0.9,0.3-2,0.2-2.9,0c-1-0.2-1.7-0.4-2.7-0.9c-0.4-0.2-0.7-1-0.7-1s0.8-0.6,0.9-1.1c0.1-0.4-0.2-0.9-0.5-1.2c-0.3-0.3-0.7-0.5-1.1-0.5c-0.6,0-1.2,0.3-1.5,0.7c-0.3,0.4-0.2,1.1,0,1.5s1,0.9,1,0.9c-0.2,0.8-0.5,1.3-0.8,1.6c-1.1,0.7-2.3,1-3.4,1.4l-0.7-0.4l-0.5-0.8c0,0,0.7-0.9,0.7-1.5c0-0.4-0.2-0.9-0.5-1.3c-0.2-0.3-0.5-0.6-0.9-0.8c-0.3-0.1-0.7-0.1-1.1,0c-0.5,0.2-1.4,0.9-1.4,0.9s-0.9-0.7-1.2-1.1s-0.7-1.5-0.7-1.5l-0.2-0.1c-0.5-0.1-1.3-0.7-1.3-0.7l-0.8,0.2c0,0-0.7,0.4-0.8,0.8c0,0.5,0.7,0.7,1,1.1c0.3,0.3,0.5,0.7,0.8,1c0.2,0.3,0.5,0.6,0.6,1s-0.2,0.9,0,1.3c0.2,0.5,0.7,1,1.2,1.1s1.4-0.5,1.4-0.5v3.6l1.9,1.7l1.8,3.7l-0.7,0.9l0.2,1.8c1.4-1.7,3.7-2.5,5.8-3.1c2.8-0.8,8-0.9,10.4-0.8c0.8,0,1.3,0,1.3,0s8-0.3,11.8,0.8c2.1,0.6,4.5,1.4,5.8,3.1l0.2-1.8l-0.7-0.9l1.8-3.7l1.9-1.7v-3.6c0,0,0.9,0.6,1.4,0.5s1-0.6,1.2-1.1c0.2-0.4-0.1-0.9,0-1.3s0.4-0.7,0.6-1s0.5-0.7,0.8-1c0.3-0.4,1-0.6,1-1.1c0-0.3-0.8-0.8-0.8-0.8L358.6,90.7L358.6,90.7z M331.9,90.2c0.2,0.2,0.6,0.5,0.9,0.7l0,0c0.1,0.1,0.2,0.1,0.3,0.1c0.5,0.1,1.4,0.1,1.5,0.1l0,0l0,0c0,0,0.9,0.1,1.5-0.1c0.1,0,0.2-0.1,0.3-0.1l0,0c0.3-0.2,0.7-0.5,0.9-0.7c0.1-0.1,0.2-0.2,0.2-0.4c0.2-0.5,0.2-1.1,0-1.6c-0.3-0.6-0.9-0.8-1.5-1.1c-0.5-0.3-1.4-0.7-1.4-0.7s-1,0.4-1.4,0.7c-0.5,0.3-1.2,0.6-1.5,1.1c-0.2,0.5-0.2,1.1,0,1.6C331.7,90,331.8,90.1,331.9,90.2L331.9,90.2z M356.5,83.3c0,0-2-0.9-3-1.2c-1.9-0.6-3.8-0.9-5.8-1.3c-2.2-0.4-4.5-0.6-6.8-1.1c-0.7-0.2-1.4-0.5-2.1-0.6c-1-0.2-2-0.5-3-0.3c-0.5,0.1-1.4,0.8-1.4,0.8s-0.9-0.7-1.4-0.8c-1-0.2-2,0.1-3,0.3c-0.7,0.2-1.4,0.5-2.1,0.6c-2.2,0.5-4.5,0.6-6.8,1.1c-1.9,0.4-3.9,0.7-5.8,1.3c-1,0.3-3,1.2-3,1.2 M348.2,75.2c0,0,1-0.5,1.3-0.9c0.2-0.3,0.5-0.6,0.5-0.9c0-0.4-0.1-0.9-0.4-1.2c-0.3-0.3-0.7-0.4-1.1-0.4c-0.3,0-0.7,0.1-1,0.3c-0.3,0.2-0.5,0.6-0.5,1c0,0.3,0.1,0.7,0.2,1C347.4,74.5,348.2,75.2,348.2,75.2z M321,75.2c0,0,0.8-0.7,1-1.1c0.1-0.3,0.3-0.6,0.2-1c0-0.4-0.2-0.8-0.5-1c-0.2-0.2-0.6-0.3-1-0.3s-0.9,0.1-1.1,0.4c-0.3,0.3-0.4,0.8-0.4,1.2c0,0.3,0.2,0.7,0.5,0.9C320,74.7,321,75.2,321,75.2z M313.6,78.4l-2.1,2.8c0,0,0,0.7,0.1,1.1c0.2,0.4,1,1,1,1l0.1,3.8l-2,3.5h-0.2l1.3,0.7c0.1,0,0.1,0,0.2,0c0.8-0.1,1.3-0.9,2-1.3c0.9-0.5,1.8-0.9,2.7-1.3c1.3-0.5,2.6-1,3.9-1.4c1.7-0.5,3.4-1,5.1-1.3c1.3-0.2,2.6-0.3,4-0.3c0.4,0,0.9,0,1.3,0.1c1.2,0.1,3.5,0.6,3.5,0.6s2.3-0.5,3.5-0.6c1.8-0.1,3.5,0,5.3,0.2c1.7,0.2,3.4,0.8,5.1,1.3c1.3,0.4,2.6,0.9,3.9,1.4c0.9,0.4,1.9,0.8,2.7,1.3c0.7,0.4,1.2,1.3,2,1.3c0.1,0,0.1,0,0.2,0l1.3-0.7h-0.2l-2-3.5l0.1-3.8c0,0,0.8-0.6,1.1-1c0.2-0.3,0.1-1.1,0.1-1.1l-2.1-2.8c0,0-1.1,1.1-1.8,1.3c-0.4,0.1-0.8,0.1-1.2,0c-0.5-0.1-0.8-0.5-1.2-0.8c-0.8-0.7-1.7-1.4-2.3-2.2c-0.4-0.5-1-1.6-1-1.6s-2.3,1.8-3.7,2.2c-1.4,0.3-2.9,0.3-4.2-0.1c-0.3-0.1-0.9-0.6-0.9-0.6c-1.6-1-3.2-1.6-4.8-1.4c-1.6-0.2-3.2,0.4-4.8,1.4c0,0-0.6,0.4-0.9,0.6c-1.4,0.4-2.9,0.5-4.2,0.1c-1.4-0.4-3.7-2.2-3.7-2.2s-0.6,1.1-1,1.6c-0.7,0.8-1.5,1.5-2.3,2.2c-0.4,0.3-0.7,0.7-1.2,0.8c-0.4,0.1-0.8,0.1-1.2,0C314.7,79.5,313.6,78.4,313.6,78.4L313.6,78.4z M357.5,77.3c0,0,0.1-1,0-1.5c-0.1-0.4-0.3-0.9-0.6-1.3c-0.3-0.4-1-1.1-1-1.1 M355.6,78.4c0,0,0.6,0,0.9-0.1c0.5-0.2,1.1-1.1,1.1-1.1s1.2,0.8,1.9,0.7c0.3-0.1,0.6-0.3,0.8-0.6c0.2-0.3,0.3-0.7,0.2-1c-0.1-0.3-0.3-0.5-0.5-0.7c-0.4-0.3-1.1-0.3-1.4-0.8c-0.2-0.4-0.1-0.9,0-1.3c0.2-0.8,0.9-1.6,1.4-2.3c0.3-0.5,1-0.8,1-1.3c0-0.3-0.4-0.8-0.4-0.8s-0.9,0-1.4,0.1c-0.7,0.2-1.5,0.5-2,1.1c-0.4,0.5-0.6,1.2-0.8,1.7c-0.2,0.4-0.4,1.4-0.4,1.4s-1.1,0-1.6,0.2c-0.6,0.3-1.3,0.8-1.6,1.4c-0.2,0.5-0.2,1.1,0,1.6s0.6,0.9,1.1,1.2C354.4,78.2,355.6,78.4,355.6,78.4L355.6,78.4z M313.3,73.4c0,0-0.7,0.7-1,1.1s-0.5,0.8-0.6,1.3s0,1.5,0,1.5 M308.7,69.1c0,0-0.4,0.5-0.4,0.8c0.1,0.6,0.7,0.9,1,1.3c0.5,0.7,1.1,1.4,1.4,2.3c0.1,0.4,0.2,0.9,0,1.3c-0.3,0.5-1,0.4-1.4,0.8c-0.2,0.2-0.5,0.4-0.5,0.7c-0.1,0.3,0,0.7,0.2,1s0.4,0.6,0.8,0.6c0.7,0.1,1.9-0.7,1.9-0.7s0.6,0.9,1.1,1.1c0.3,0.1,0.9,0.1,0.9,0.1s1.2-0.2,1.8-0.5c0.5-0.3,0.9-0.7,1.1-1.2s0.2-1.1,0-1.6c-0.3-0.6-0.9-1.1-1.6-1.4c-0.5-0.2-1.6-0.2-1.6-0.2s-0.3-0.9-0.4-1.4c-0.2-0.6-0.4-1.3-0.8-1.7c-0.5-0.6-1.3-0.9-2-1.1C309.6,69.1,308.7,69.1,308.7,69.1L308.7,69.1z M333.1,71.7l1.5-0.4l1.5,0.4 M333.5,75.3c0,0-1.2-1.1-1.4-1.8c-0.1-0.3-0.1-0.7,0.1-1c0.2-0.4,1.1-0.8,1.1-0.8s-1.3-0.6-1.6-1.2c-0.2-0.3-0.2-0.8-0.1-1.1c0.2-0.6,0.6-1.1,1.1-1.5c0.6-0.5,2-0.9,2-0.9s1.4,0.5,2,0.9c0.5,0.4,0.9,0.9,1.1,1.5c0.1,0.4,0.1,0.8-0.1,1.1c-0.3,0.6-1.6,1.2-1.6,1.2s0.9,0.4,1.1,0.8c0.1,0.3,0.2,0.7,0.1,1c-0.2,0.7-1.4,1.8-1.4,1.8l-1.1,0.1L333.5,75.3z M337.6,70.4c0,0,2.4,1,3.2,2c0.2,0.3,0.4,0.6,0.4,1c-0.1,1.2-1.9,3.3-1.9,3.3l-3.6-1.5h-2.3l-3.6,1.5c0,0-1.8-2-1.9-3.3c0-0.3,0.2-0.7,0.4-1c0.8-1,3.2-2,3.2-2 M332,54.4l1.5-1.1h1.2h-1.2c0,0-0.6-0.4-0.8-0.8c-0.2-0.3-0.2-0.7-0.2-1.1c0.1-0.5,0.4-1,0.8-1.2s1.4-0.1,1.4-0.1s1-0.2,1.4,0.1c0.4,0.2,0.7,0.8,0.8,1.2c0.1,0.4,0,0.8-0.2,1.1s-0.8,0.8-0.8,0.8h-1.2h1.2l1.5,1.1 M346.7,55.3l-0.5,0.8 M352.1,52.5l-1.4,0.2 M352.2,54.3l-2.1,0.1 M349.9,52c0.3,0.2,0.8,0.5,0.8,0.8c0.1,0.6-0.1,1.3-0.6,1.7c-0.4,0.4-1.7,0.3-1.7,0.3 M315.8,60.8c0,0,2-0.5,3-0.8c1.5-0.3,2.9-0.8,4.4-1c1.7-0.3,3.4-0.5,5-0.6c2.1-0.2,6.3-0.1,6.3-0.1s4.2,0,6.3,0.1c1.7,0.1,3.4,0.3,5,0.6c1.5,0.3,2.9,0.7,4.4,1c1,0.2,3,0.8,3,0.8 M322.5,55.3l0.5,0.8 M317.1,52.5l1.4,0.2 M317,54.3l2.1,0.1 M317.9,57.3c0,0,2.3-0.6,3.4-0.8c1.2-0.3,2.5-0.5,3.8-0.7c1.5-0.2,2.9-0.3,4.4-0.3c1.7-0.1,5.2-0.1,5.2-0.1s3.5,0,5.2,0.1c1.5,0.1,2.9,0.2,4.4,0.3c1.3,0.2,2.5,0.4,3.8,0.7c1.1,0.2,3.4,0.8,3.4,0.8 M320.7,54.7c0,0-1.2,0.1-1.7-0.3c-0.4-0.4-0.7-1.1-0.6-1.7c0.1-0.4,1-0.9,1-0.9 M330.8,65.2c-2.2,0.1-4.3,0.3-6.5,0.7c-2.2,0.4-4.4,1-6.5,1.8c-2,0.7-4.1,4.1-5.8,2.7c-0.4-0.3,0.1-0.9,0.3-1.3c0.3-0.8,0.8-1.6,1.4-2.3c0.4-0.5,1.4-0.5,1.5-1.2c0.1-0.5-0.6-0.7-0.8-1.2c-0.2-0.6-0.3-1.2-0.1-1.8c0.2-0.7,1.2-1.1,1.4-1.8c0.2-0.6-0.5-1.4-0.1-2c0.4-0.8,2-0.5,2.2-1.3c0.1-0.4-0.7-0.5-0.8-0.9c-0.1-0.3,0.1-0.6,0-0.9c0-0.4,0.1-0.8-0.1-1.2c-0.1-0.3-0.7-0.4-0.8-0.7c-0.1-0.3,0-0.7,0.2-1c0.2-0.2,0.6,0.1,0.8-0.2c0.2-0.5-0.5-1-0.7-1.4c-0.2-0.6-0.6-1.1-0.7-1.8c-0.1-0.5-0.5-1.2-0.1-1.5c0.5-0.3,1,0.6,1.4,0.9c0.6,0.5,1.3,0.9,1.7,1.5c0.3,0.5,0.1,1.2,0.5,1.5c0.5,0.5,1.4,0.1,1.9,0.5c0.4,0.4,0.8,1,0.7,1.5c-0.1,0.5-1.4,0.5-1.2,1c0.1,0.6,1.2,0.6,1.9,0.5c0.4-0.1,0.6-0.4,0.9-0.6c0.2-0.2,0.4-0.4,0.7-0.5c0.3-0.1,1-0.2,1-0.2l-0.4-0.1c0,0-0.6-0.5-0.6-0.8c-0.1-0.3,0.1-0.7,0.3-0.9c0.2-0.3,0.6-0.4,1-0.4c0.3,0,0.6,0.1,0.8,0.3c0.2,0.2,0.3,0.6,0.3,0.9c0,0.3-0.2,0.5-0.4,0.7c-0.2,0.2-0.8,0.3-0.8,0.3l0.4,0.1l1.1,1.5l4.8-0.3c0,0,0.6-0.6,0.5-0.9c-0.1-0.3-0.5-0.5-1-0.5c-1.5,0.1-1.9-1.2-1.8-2.2c0-0.8,1-1.3,1.7-1.6s1.9,0.7,2.3,0c0.3-0.6-1-0.9-1.3-1.5c-0.1-0.3-0.1-0.6,0-0.9c0.3-0.7,1-1.1,1.7-1.4c0.3-0.1,0.9-0.2,0.9-0.2s0.6,0,0.9,0.2c0.7,0.3,1.4,0.7,1.7,1.4c0.1,0.3,0.1,0.6,0,0.9c-0.2,0.6-1.5,0.9-1.3,1.5c0.3,0.7,1.6-0.2,2.3,0c0.7,0.3,1.7,0.8,1.7,1.6c0.1,0.9-0.3,2.2-1.8,2.2c-0.6,0-0.9,0.1-1,0.5c-0.1,0.3,0.5,0.9,0.5,0.9l4.8,0.3l1.1-1.5l0.4-0.1c0,0-0.6-0.1-0.8-0.3c-0.2-0.2-0.4-0.4-0.4-0.7s0.1-0.6,0.3-0.9c0.2-0.2,0.5-0.3,0.8-0.3c0.4,0,0.8,0.1,1,0.4c0.2,0.2,0.4,0.6,0.3,0.9c-0.1,0.3-0.6,0.8-0.6,0.8l-0.4,0.1c0,0,0.7,0,1,0.2c0.3,0.1,0.5,0.3,0.7,0.5c0.3,0.2,0.6,0.5,0.9,0.6c0.6,0.1,1.7,0.2,1.9-0.5c0.1-0.5-1.1-0.5-1.2-1s0.2-1.2,0.7-1.5c0.5-0.4,1.4-0.1,1.9-0.5c0.4-0.4,0.2-1.1,0.5-1.5c0.4-0.6,1.1-1,1.7-1.5c0.5-0.3,1-1.2,1.4-0.9c0.4,0.2,0,1-0.1,1.5c-0.1,0.6-0.5,1.2-0.7,1.8c-0.2,0.5-0.9,1-0.7,1.4c0.1,0.2,0.6,0,0.8,0.2c0.2,0.2,0.3,0.7,0.2,1c-0.1,0.3-0.6,0.4-0.8,0.7c-0.2,0.4-0.1,0.8-0.1,1.2c0,0.3,0.1,0.6,0,0.9c-0.1,0.4-0.9,0.5-0.8,0.9c0.1,0.8,1.8,0.6,2.2,1.3c0.3,0.6-0.3,1.4-0.1,2c0.2,0.7,1.2,1.1,1.4,1.8c0.2,0.6,0.1,1.2-0.1,1.8c-0.1,0.4-0.9,0.7-0.8,1.2c0.1,0.6,1.1,0.7,1.5,1.2c0.6,0.7,1,1.4,1.4,2.3c0.2,0.4,0.7,1.1,0.3,1.3c-1.7,1.3-3.8-2-5.8-2.7c-2.1-0.8-4.3-1.3-6.5-1.8c-2.1-0.4-4.3-0.5-6.5-0.7c-1.2-0.1-3.8-0.1-3.8-0.1S332.1,65.1,330.8,65.2L330.8,65.2z M336.4,41.1h-1.8h-1.8 M335.8,35c0.5-1-0.4-1.8-1.2-2.5c-0.9,0.7-1.7,1.5-1.2,2.5 M335.9,43.4c0.7,0,1.5,0.8,2.1,0.3c0.2-0.2,0.1-0.7,0-1c-0.3-0.7-1.5-0.8-1.6-1.6c0-0.6,0.9-0.9,1.1-1.5c0.1-0.3,0.1-0.7,0-1c-0.5-1.2-2.6-1.2-3-2.5c-0.2-0.5,1.1-1.2,1.2-1.2c0.8-0.3,1.8,0.5,2.5,0.1c0.5-0.2,1.1-0.7,1.1-1.3s-0.7-1.1-1.2-1.4c-1.1-0.5-2.9,1.1-3.6,0.1c-0.6-0.9,1.6-2,1.3-3.1c-0.1-0.5-1.3-1-1.3-1s-1.1,0.4-1.3,1c-0.3,1.1,1.9,2.1,1.3,3.1c-0.7,1-2.5-0.5-3.6-0.1c-0.6,0.2-1.2,0.8-1.2,1.4c0,0.6,0.6,1.1,1.1,1.3c0.8,0.3,1.7-0.5,2.5-0.1c0.2,0.1,1.4,0.7,1.2,1.2c-0.4,1.2-2.5,1.3-3,2.5c-0.1,0.3-0.1,0.7,0,1c0.2,0.6,1.2,0.9,1.1,1.5c-0.1,0.7-1.3,0.9-1.6,1.6c-0.1,0.3-0.2,0.8,0,1c0.5,0.5,1.4-0.3,2.1-0.3c0.4,0,1.3,0,1.3,0S335.5,43.4,335.9,43.4z" />
      <path fill="none" stroke="#000000" stroke-width="0.5769" stroke-linecap="round" stroke-linejoin="round" d="M351.7,105.6c0,0-1.3-0.5-1.9-0.8c-1.2-0.4-2.4-0.8-3.6-1.2c-1.2-0.3-2.4-0.7-3.6-0.8c-2.6-0.3-7.9,0-7.9,0s-5.3-0.3-7.9,0c-1.2,0.1-2.4,0.5-3.6,0.8s-2.4,0.7-3.6,1.2c-0.7,0.2-1.9,0.8-1.9,0.8 M353.9,65.5c0,0-2.1-0.9-3.2-1.2c-0.9-0.3-1.8-0.6-2.8-0.9c-1.1-0.3-2.3-0.5-3.5-0.6c-1.7-0.2-3.4-0.4-5.1-0.5c-1.5-0.1-4.6-0.1-4.6-0.1s-3.1,0-4.6,0.1c-1.7,0.1-3.4,0.3-5.1,0.5c-1.2,0.2-2.4,0.3-3.5,0.6c-0.9,0.2-1.9,0.6-2.8,0.9c-1.1,0.4-3.2,1.2-3.2,1.2 M312.8,87.2c0,0,3.2-1.1,4.8-1.6c1.6-0.5,3.3-1.1,5-1.5c2-0.4,4.1-0.7,6.1-0.9c2-0.2,6-0.4,6-0.4s4,0.2,6,0.4c2,0.2,4.1,0.4,6.1,0.9c1.7,0.4,3.3,0.9,5,1.5c1.6,0.5,4.8,1.6,4.8,1.6" />
    </g>
    <g>
      <path fill="#CCCCCC" stroke="#000000" stroke-width="0.5769" stroke-linejoin="round" d="M276,96.7l18.2,15.6c0,0-0.9,2-1.3,3.1c-0.4,1-0.7,1.9-0.9,2.9c-0.4,1.5-0.7,4.5-0.7,4.5L270,103.3C270.3,98.8,272.8,97.2,276,96.7L276,96.7z M273.4,106.4l-4.4,4.9l2.7,2.6l-4.2,4.1l-2.7-2.7l-4.6,4.9v6.1l10.5,8.2l3.6-2.7l-0.2-5.8l2.8,1.6l2.8-1.7l0.1,5.2l-2.3-1.6l-2.5,3.2l-0.3,5.8l7.9,7l9.5-8.5l-0.7-2.5l-0.4-2.3l-0.2-4.5l0.4-4.9L273.4,106.4z M269,111.3l-0.1,5.4l2.8-2.8L269,111.3z M365.3,172.8c-2.5-3.1-10.7-9.5-15.6-16.3l-3,2.8l-4.4-4l-7-6.2l-32.9-29.2c0,0-0.3,0.8-0.5,1.2c-0.7,1.6-1.3,3.3-1.9,4.9c-0.4,1.2-1,3.5-1,3.5l29.5,25.6l6.8,6.3l4.5,4.4l-2,1.9c8.1,5.4,13.8,12.5,17,14.7s7.4,4.4,11,0.5C369.4,178.8,367.8,175.9,365.3,172.8z" />
      <path fill="#CCCCCC" stroke="#000000" stroke-width="0.5769" stroke-linejoin="round" d="M346.8,167.9l-6.3-2.9 M347.8,158.1c0.4,1.4,0.1,3,0.6,4.4s2.5,3.6,2.5,3.6s-1.3,0.2-1.9,0.4c-0.9,0.3-2.1,0.5-2.4,1.4c-0.2,0.8,0.7,1.4,1.3,2c0.5,0.6,1.2,1,1.9,1.4c1.1,0.6,2.2,1.4,3.5,1.6c1.6,0.3,4.5-1.9,4.8-0.4c0.1,0.7-1.3,0.2-1.9,0.5c-1.4,0.7-2.1,2.2-0.9,3.2c0.8,0.7,2,0.4,3.1,0.5c1,0.1,2.1-0.5,3,0c1,0.6,2.3,2,1.7,3c-0.5,1.1-2.6,1-3.6,0.3c-0.7-0.5-0.5-1.7-0.6-2.6c0-0.3,0-0.5,0-0.8" />
      <path fill="none" stroke="#000000" stroke-width="0.5769" stroke-linejoin="round" d="M283,139.2l-0.3,6.2 M279.3,120.2l0.1,5.7 M276.7,122.8l0.1,4.7 M274.3,121l0.1,5.2 M270.5,128.9l0.1,5.5 M275,132.7l7.9,6.6l8.1-7.1 M260.3,120.2l10.4,8.9l3.4-3l-2.7-2.3l3-2.8l2.3,2l2.6-2.7l3.4,3.3l-3.1,2.4l2.9,2.6l-2.7,2.5" />
      <path fill="#CCCCCC" stroke="#000000" stroke-width="0.5769" stroke-linejoin="round" d="M387.8,177.1c12.868,0,23.3,10.432,23.3,23.3s-10.432,23.3-23.3,23.3s-23.3-10.432-23.3-23.3S374.932,177.1,387.8,177.1z" />
      <path fill="#FFFFFF" stroke="#000000" stroke-width="0.5769" stroke-linejoin="round" d="M379.1,201.4c-4,0-7.3,3.3-7.3,7.3s3.3,7.3,7.3,7.3s7.3-3.3,7.3-7.3l2.5-0.1c0,4,3.3,7.3,7.3,7.3s7.3-3.3,7.3-7.3s-3.3-7.3-7.3-7.3l0.1-1.4c4,0,7.3-3.3,7.3-7.3s-3.3-7.3-7.3-7.3s-7.3,3.3-7.3,7.3l-2.5-0.2c0-4-3.3-7.3-7.3-7.3s-7.3,3.3-7.3,7.3s3.3,7.3,7.3,7.3L379.1,201.4z" />
      <path fill="#CCCCCC" stroke="#000000" stroke-width="0.5769" stroke-linejoin="round" d="M387.8,191.6c1.5,0,2.6,1.2,2.6,2.6s-1.2,2.6-2.6,2.6s-2.6-1.2-2.6-2.6S386.4,191.6,387.8,191.6z M394.1,197.7c1.5,0,2.6,1.2,2.6,2.6s-1.2,2.6-2.6,2.6s-2.6-1.2-2.6-2.6S392.6,197.7,394.1,197.7z M388,203.3c1.5,0,2.6,1.2,2.6,2.6s-1.2,2.6-2.6,2.6s-2.6-1.2-2.6-2.6S386.5,203.3,388,203.3z M381.5,197.7c1.5,0,2.6,1.2,2.6,2.6s-1.2,2.6-2.6,2.6s-2.6-1.2-2.6-2.6S380,197.7,381.5,197.7z" />
      <path fill="#FFFFFF" stroke="#000000" stroke-width="0.5769" stroke-linejoin="round" d="M387.4,214.5c-1,2-2.3,2.9-4,3.9c2.4,1,5.3,0.9,7.9,0C389.7,217.6,388.5,216.2,387.4,214.5z M373.6,200c-2-1-2.9-2.3-4-3.9c-1,2.4-0.9,5.3,0,7.9C370.5,202.3,371.8,201.1,373.6,200L373.6,200z M402.3,200.7c2-1,2.9-2.3,4-3.9c1,2.4,0.9,5.3,0,7.9C405.4,202.9,404.1,201.7,402.3,200.7L402.3,200.7z M388.2,186.1c-1-2-2.3-2.9-4-3.9c2.4-1,5.3-0.9,7.9,0C390.4,183,389.2,184.3,388.2,186.1z" />
      <path fill="#FFE000" stroke="#000000" stroke-width="0.5769" stroke-linejoin="round" d="M270,93.4l-7-3.1l-0.6,0.5l3.8,6.9c0,0,1.1-1.6,1.7-2.3C268.6,94.7,270,93.4,270,93.4L270,93.4z M281.9,101.8c0.6,5,1.3,10.1,2.9,15.1l5.6,5.1c-1.2-5.3-3.3-10.5-3.3-15.8L281.9,101.8z" />
      <path fill="#FFE000" stroke="#000000" stroke-width="0.5769" stroke-linejoin="round" d="M276,96.6c0,0,0.1-0.9,0-1.3c-0.2-0.7-0.6-1.3-1.2-1.8c-0.5-0.4-1-0.7-1.6-0.8c-0.6-0.1-1.3,0-2,0.2c-0.4,0.1-1.2,0.6-1.2,0.6l-2,2l-1.6,2.2c0,0-0.6,1-0.7,1.6s-0.2,1.2-0.1,1.8c0.2,0.7,0.6,1.4,1.1,1.8s1.2,0.7,1.9,0.7c0.5,0,1.5-0.3,1.5-0.3C270.3,99.9,271.8,97.4,276,96.6L276,96.6z M262.3,86.8c1.6,0,2.9,1.3,2.9,2.9s-1.3,2.9-2.9,2.9s-2.9-1.3-2.9-2.9S260.7,86.8,262.3,86.8z M290.4,109l-15.4-1.2l4.9,4.5l14,0.6l0.2-0.7L290.4,109z M309.3,126c-4,1.5-5.7,4-6.8,6.7c-1.1,0.1-2.2,0.1-2.6-0.7c1-6.2,5.4-8.2,6.4-8.6C309,122.8,308.5,124.9,309.3,126z M314.3,130.6c-4,1.5-5.7,4-6.8,6.7c-1.1,0.1-2.2,0.1-2.6-0.7c1-6.2,5.4-8.2,6.4-8.6C314,127.5,313.5,129.6,314.3,130.6L314.3,130.6z M370.6,177.8c-1.3,0-2.7,0.3-2.7,0.3c0,1.4-0.5,3-2.1,4.7c-1.4,1.5-2.8,2.1-4.3,2.2l0,0c0,0-0.5,3.2,0.5,4.2c1.1,1.2,4.9,0.7,4.9,0.7l0.3-0.2c1.4-2.7,3.4-5.2,5.7-7.2l0.1-0.2c0,0,0.5-3-0.4-3.9c-0.4-0.4-1.2-0.6-2,0V177.8z M405.8,178.3c1.8,0,3.2,1.4,3.2,3.2s-1.4,3.2-3.2,3.2s-3.2-1.4-3.2-3.2S404.1,178.3,405.8,178.3z M406.9,215.2c1.8,0,3.2,1.4,3.2,3.2s-1.4,3.2-3.2,3.2s-3.2-1.4-3.2-3.2S405.2,215.2,406.9,215.2z M371.2,217.2c1.8,0,3.2,1.4,3.2,3.2s-1.4,3.2-3.2,3.2s-3.2-1.4-3.2-3.2S369.4,217.2,371.2,217.2z" />
    </g>
    <g>
      <path fill="#FFE000" stroke="#000000" stroke-width="0.5769" stroke-linejoin="round" d="M393.3,96.7l-18.2,15.6c0,0,0.9,2,1.3,3.1c0.4,1,0.7,1.9,0.9,2.9c0.4,1.5,0.7,4.5,0.7,4.5l21.2-19.4C399,98.8,396.5,97.2,393.3,96.7L393.3,96.7z M395.9,106.4l4.4,4.9l-2.7,2.6l4.2,4.1l2.7-2.7l4.6,4.9v6.1l-10.5,8.2l-3.6-2.7l0.2-5.8l-2.8,1.6l-2.8-1.7l-0.1,5.2l2.3-1.6l2.5,3.2l0.3,5.8l-7.9,7l-9.6-8.5l0.7-2.5l0.4-2.3l0.2-4.5l-0.4-4.9L395.9,106.4z M400.2,111.3l0.1,5.4l-2.8-2.8L400.2,111.3z M370.4,129.4L340.9,155l-6.8,6.3l-4.5,4.4l2,1.9c-8.1,5.4-13.8,12.5-17.1,14.7c-3.2,2.2-7.4,4.4-11,0.5c-3.6-4-2-6.9,0.5-10s10.7-9.5,15.6-16.3l3,2.8l4.4-4l7-6.2l32.9-29.2c0,0,0.4,0.8,0.5,1.2c0.7,1.6,1.3,3.3,1.9,4.9C369.8,127.1,370.4,129.4,370.4,129.4z" />
      <path fill="#FFE000" stroke="#000000" stroke-width="0.5769" stroke-linejoin="round" d="M322.5,167.9l6.3-2.9 M321.4,158.1c-0.4,1.4-0.1,3-0.6,4.4s-2.5,3.6-2.5,3.6s1.3,0.2,1.9,0.4c0.9,0.3,2.1,0.5,2.4,1.4c0.2,0.8-0.7,1.4-1.3,2c-0.5,0.6-1.2,1-1.9,1.4c-1.1,0.6-2.2,1.4-3.5,1.6c-1.6,0.3-4.5-1.9-4.8-0.4c-0.1,0.7,1.3,0.2,1.9,0.5c1.4,0.7,2.1,2.2,0.9,3.2c-0.8,0.7-2,0.4-3.1,0.5c-1,0.1-2.1-0.5-3,0c-1,0.6-2.3,2-1.7,3c0.6,1.1,2.6,1,3.6,0.3c0.7-0.5,0.5-1.7,0.6-2.6c0-0.3,0-0.5,0-0.8" />
      <path fill="none" stroke="#000000" stroke-width="0.5769" stroke-linejoin="round" d="M386.3,139.2l0.3,6.2 M390,120.2l-0.1,5.7 M392.6,122.8l-0.1,4.7 M395,121l-0.1,5.2 M398.8,128.9l-0.1,5.5 M394.3,132.7l-7.9,6.6l-8.1-7.1 M409,120.2l-10.4,8.9l-3.4-3l2.7-2.3l-3-2.8l-2.3,2l-2.6-2.7l-3.4,3.3l3.1,2.4l-2.9,2.6l2.7,2.5" />
      <path fill="#FFE000" stroke="#000000" stroke-width="0.5769" stroke-linejoin="round" stroke-miterlimit="10.0004" d="M258.392,196.572c2.061-12.702,14.03-21.328,26.732-19.267s21.328,14.03,19.267,26.732c-2.061,12.702-14.03,21.328-26.732,19.267C264.957,221.243,256.331,209.274,258.392,196.572z" />
      <path fill="#FFFFFF" stroke="#000000" stroke-width="0.5769" stroke-linejoin="round" d="M290.2,201.4c4,0,7.3,3.3,7.3,7.3s-3.3,7.3-7.3,7.3s-7.3-3.3-7.3-7.3l-2.5-0.1c0,4-3.3,7.3-7.3,7.3s-7.3-3.3-7.3-7.3s3.3-7.3,7.3-7.3l-0.1-1.4c-4,0-7.3-3.3-7.3-7.3s3.3-7.3,7.3-7.3s7.3,3.3,7.3,7.3l2.5-0.2c0-4,3.3-7.3,7.3-7.3s7.3,3.3,7.3,7.3s-3.3,7.3-7.3,7.3L290.2,201.4z" />
      <path fill="#FFE000" stroke="#000000" stroke-width="0.5769" stroke-linejoin="round" d="M281.4,191.6c-1.5,0-2.6,1.2-2.6,2.6s1.2,2.6,2.6,2.6s2.6-1.2,2.6-2.6S282.9,191.6,281.4,191.6z M275.2,197.7c-1.5,0-2.6,1.2-2.6,2.6s1.2,2.6,2.6,2.6s2.6-1.2,2.6-2.6S276.6,197.7,275.2,197.7z M281.3,203.3c-1.5,0-2.6,1.2-2.6,2.6s1.2,2.6,2.6,2.6s2.6-1.2,2.6-2.6S282.8,203.3,281.3,203.3z M287.8,197.7c-1.5,0-2.6,1.2-2.6,2.6s1.2,2.6,2.6,2.6s2.6-1.2,2.6-2.6S289.3,197.7,287.8,197.7z" />
      <path fill="#FFFFFF" stroke="#000000" stroke-width="0.5769" stroke-linejoin="round" d="M281.9,214.5c1,2,2.3,2.9,3.9,3.9c-2.4,1-5.3,0.9-7.9,0C279.6,217.6,280.8,216.2,281.9,214.5z M295.7,200c2-1,2.9-2.3,3.9-3.9c1,2.4,0.9,5.3,0,7.9C298.8,202.3,297.5,201.1,295.7,200L295.7,200z M267,200.7c-2-1-2.9-2.3-3.9-3.9c-1,2.4-0.9,5.3,0,7.9C263.9,202.9,265.2,201.7,267,200.7L267,200.7z M281.1,186.1c1-2,2.3-2.9,3.9-3.9c-2.4-1-5.3-0.9-7.9,0C278.8,183,280.1,184.3,281.1,186.1z" />
      <path fill="#CCCCCC" stroke="#000000" stroke-width="0.5769" stroke-linejoin="round" d="M399.2,93.4l7-3.1l0.6,0.5l-3.8,6.9c0,0-1.1-1.6-1.7-2.3S399.2,93.4,399.2,93.4L399.2,93.4z M387.4,101.8c-0.6,5-1.3,10.1-2.9,15.1l-5.6,5.1c1.2-5.3,3.3-10.5,3.3-15.8L387.4,101.8z" />
      <path fill="#CCCCCC" stroke="#000000" stroke-width="0.5769" stroke-linejoin="round" d="M393.3,96.6c0,0-0.1-0.9,0-1.3c0.2-0.7,0.6-1.3,1.2-1.8c0.5-0.4,1.1-0.7,1.6-0.8c0.6-0.1,1.3,0,2,0.2c0.4,0.1,1.2,0.6,1.2,0.6l2,2l1.6,2.2c0,0,0.6,1,0.7,1.6s0.2,1.2,0.1,1.8c-0.2,0.7-0.6,1.4-1.1,1.8s-1.2,0.7-1.9,0.7c-0.5,0-1.5-0.3-1.5-0.3C399,99.9,397.5,97.4,393.3,96.6L393.3,96.6z M407,86.8c-1.6,0-2.9,1.3-2.9,2.9s1.3,2.9,2.9,2.9s2.9-1.3,2.9-2.9S408.6,86.8,407,86.8z M378.9,109l15.4-1.2l-4.9,4.5l-14.1,0.6l-0.2-0.7L378.9,109z M360,126c4,1.5,5.7,4,6.8,6.7c1.1,0.1,2.2,0.1,2.6-0.7c-1-6.2-5.4-8.2-6.4-8.6C360.3,122.8,360.8,124.9,360,126z M355,130.6c4,1.5,5.7,4,6.8,6.7c1.1,0.1,2.2,0.1,2.6-0.7c-1-6.2-5.4-8.2-6.4-8.6C355.3,127.5,355.8,129.6,355,130.6L355,130.6z M298.7,177.8c1.3,0,2.7,0.3,2.7,0.3c-0.1,1.4,0.5,3,2.1,4.7c1.4,1.5,2.8,2.1,4.3,2.2l0,0c0,0,0.5,3.2-0.5,4.2c-1.1,1.2-4.9,0.7-4.9,0.7l-0.3-0.2c-1.4-2.7-3.4-5.2-5.7-7.2l-0.1-0.2c0,0-0.6-3,0.4-3.9c0.4-0.4,1.2-0.6,2,0V177.8L298.7,177.8z M263.5,178.3c-1.8,0-3.2,1.4-3.2,3.2s1.4,3.2,3.2,3.2s3.2-1.4,3.2-3.2S265.2,178.3,263.5,178.3z M262.4,215.2c-1.8,0-3.2,1.4-3.2,3.2s1.4,3.2,3.2,3.2s3.2-1.4,3.2-3.2S264.1,215.2,262.4,215.2z M298.6,217.2c-1.7-0.3-3.4,0.9-3.6,2.6c-0.3,1.7,0.9,3.4,2.6,3.6c1.7,0.3,3.4-0.9,3.6-2.6C301.5,219.1,300.3,217.5,298.6,217.2z" />
    </g>
    <g>
      <path fill="#FA0204" stroke="#000000" stroke-width="0.5769" stroke-linejoin="round" d="M328.7,160.2c0.9-0.1,1.6,1.3,1.7,2.3c0.1,1.1-0.5,2.8-1.5,2.9c-1,0.1-1.7-1.4-1.7-2.5C327.2,161.8,327.8,160.3,328.7,160.2L328.7,160.2z M296.7,207.1c-0.8-0.4-2,0.5-2.4,1.4c-0.5,0.9-0.7,2.5,0.1,2.9c0.8,0.4,2.1-0.7,2.5-1.6C297.3,208.9,297.4,207.5,296.7,207.1L296.7,207.1z" />
      <path fill="#FA0204" stroke="#000000" stroke-width="0.5769" stroke-linejoin="round" d="M324.5,180.7c-0.8,0.2-1.2,1.7-1,2.6c0.2,1,1.1,2.3,1.9,2.1s1.2-1.8,0.9-2.8C326.2,181.7,325.3,180.5,324.5,180.7L324.5,180.7z M362.9,202.3c-0.8-0.3-1.9,0.7-2.3,1.6c-0.4,0.9-0.4,2.5,0.4,2.9c0.8,0.3,2-0.9,2.4-1.8C363.7,204.1,363.7,202.6,362.9,202.3L362.9,202.3z M341.8,222.8c-0.5,0.7,0.2,2,0.9,2.6c0.8,0.6,2.3,1.1,2.9,0.4c0.5-0.7-0.3-2.1-1.1-2.8C343.7,222.5,342.3,222.2,341.8,222.8L341.8,222.8z M372.4,213.9c-0.3,0.8,0.8,1.9,1.6,2.3c0.9,0.4,2.5,0.4,2.9-0.4c0.3-0.8-0.9-2-1.9-2.3C374.1,213,372.7,213.1,372.4,213.9L372.4,213.9z M330,193c-0.6,0.6-0.1,2,0.5,2.8c0.7,0.8,2.1,1.5,2.8,0.9c0.6-0.6,0-2.2-0.6-2.9C332,193,330.6,192.4,330,193L330,193z M337.6,148.2c0,1-0.8,1.3-2.4,1.3s-2.3-0.5-2.3-1.4s0.7-1.2,2.3-1.2C336.8,146.9,337.6,147.2,337.6,148.2z M339.6,160.7c-0.2,0.9-1.4,1.2-2.1,1c-0.8-0.2-1.7-1.3-1.5-2.2c0.2-1,1.5-1.2,2.2-0.9C338.9,158.7,339.8,159.8,339.6,160.7L339.6,160.7z M334.5,157.4c0.9,0.4,0.6,1.4,0,2s-2.3,1.1-3.2,0.7c-0.9-0.4-0.5-1.6,0.1-2.1C332.1,157.4,333.6,157,334.5,157.4L334.5,157.4z M331,161.8c0.8-0.1,1.5,1.1,1.5,1.9c0,0.9-0.5,2.3-1.4,2.4c-0.9,0.1-1.5-1.2-1.5-2.1C329.6,163.1,330.1,161.9,331,161.8L331,161.8z M333.2,163.6c0.8-0.1,1.5,1.1,1.5,1.9c0,0.9-0.5,2.3-1.4,2.4c-0.9,0.1-1.5-1.2-1.5-2.1C331.9,165,332.4,163.7,333.2,163.6L333.2,163.6z M347.3,159.1c-0.6,0.5-1.8,0.1-2.3-0.5s-0.9-1.9-0.3-2.4s1.9,0,2.4,0.6C347.5,157.4,347.9,158.6,347.3,159.1L347.3,159.1z M342.9,164.6c-0.2,0.8-1.4,1-2.2,0.8c-0.8-0.2-1.8-1.1-1.6-1.8c0.2-0.8,1.6-1,2.4-0.8C342.2,163,343.1,163.8,342.9,164.6z M329.6,170.3c-0.6,0.6-0.1,2,0.5,2.8c0.7,0.8,2.1,1.5,2.8,0.9c0.6-0.6,0-2.2-0.6-2.9C331.6,170.3,330.2,169.7,329.6,170.3L329.6,170.3z M328.3,172.7c-0.6,0.6-0.1,2,0.5,2.8c0.7,0.8,2.1,1.5,2.8,0.9c0.6-0.6,0-2.2-0.6-2.9C330.3,172.8,328.9,172.2,328.3,172.7L328.3,172.7z M339.1,168.8c0,0-0.3,4.8,1.5,5.1c1.1,0.2,1.9-2.7,1.9-2.7L339.1,168.8z M335.2,223.9c-0.5,0.7,0.2,2,0.9,2.6c0.8,0.6,2.3,1.1,2.9,0.4c0.5-0.7-0.3-2.1-1.1-2.8C337.1,223.6,335.7,223.2,335.2,223.9L335.2,223.9z M338.5,223.5c-0.5,0.7,0.2,2,0.9,2.6c0.8,0.6,2.3,1.1,2.9,0.4c0.5-0.7-0.3-2.1-1.1-2.8C340.4,223.2,339,222.8,338.5,223.5L338.5,223.5z M329.4,222.9c-0.7,0.4-0.5,2-0.1,2.8c0.5,0.9,1.8,1.9,2.5,1.4c0.8-0.5,0.5-2.1,0-3C331.3,223.3,330.1,222.5,329.4,222.9L329.4,222.9z M332.7,223.4c-0.7,0.4-0.5,2-0.1,2.8c0.5,0.9,1.8,1.9,2.5,1.4c0.8-0.5,0.5-2.1,0-3C334.6,223.9,333.4,223,332.7,223.4L332.7,223.4z M295.6,210.1c-0.8-0.3-1.9,0.8-2.2,1.7c-0.4,0.9-0.4,2.6,0.5,2.9s2-0.9,2.3-1.9C296.4,211.9,296.4,210.4,295.6,210.1L295.6,210.1z" />
      <path fill="#FA0204" stroke="#000000" stroke-width="0.577" d="M336.5,145.6c0,1-0.8,1.3-2.4,1.3s-2.3-0.5-2.3-1.4s0.7-1.2,2.3-1.2C335.6,144.3,336.5,144.6,336.5,145.6z M337.9,151.5c-0.3,0.9-1.2,1-2.7,0.5s-2-1.2-1.7-2.1c0.3-0.9,1.1-0.9,2.6-0.4C337.6,150,338.2,150.6,337.9,151.5L337.9,151.5z M338,154c-0.2,0.9-1.1,1.2-2.6,0.8c-1.5-0.3-2.2-0.9-2-1.9c0.2-0.9,1-1,2.5-0.7C337.4,152.6,338.1,153,338,154L338,154z M338.7,156.9c-0.2,0.9-1.1,1.2-2.6,0.8c-1.5-0.3-2.2-0.9-2-1.9c0.2-0.9,1-1,2.5-0.7C338.1,155.5,338.9,155.9,338.7,156.9L338.7,156.9z M345.9,152.9c-0.5-0.1-0.4-0.9-0.3-1.4c0.2-0.7,1.5-1.6,1.5-1.6s0.3,1,0.2,1.5C347.1,151.9,346.6,153,345.9,152.9L345.9,152.9z M344.2,154.3c-0.5-0.1-0.6-1-0.4-1.5c0.2-0.8,1.7-1.7,1.7-1.7s0.3,1.1,0.1,1.6C345.4,153.4,344.9,154.5,344.2,154.3L344.2,154.3z M342.3,157.1c-0.8-0.2-0.7-1.6-0.5-2.4c0.2-0.6,0.7-1.6,1.3-1.5c0.8,0.2,0.7,1.5,0.6,2.2C343.5,156.2,343,157.3,342.3,157.1L342.3,157.1z M340,159.3c-0.8-0.2-1.1-1.4-0.9-2.1c0.2-0.8,1-1.9,1.8-1.7s1.1,1.5,0.9,2.3C341.5,158.6,340.7,159.5,340,159.3z M324.3,151.8c0,0,0.9,0.5,1.3,0.9s0.9,0.6,0.7,1.2s-1,0.4-1.5,0C324.4,153.4,324.3,151.8,324.3,151.8L324.3,151.8z M328.8,153.4c0.9,0.2,0.9,1.3,0.4,1.9c-0.5,0.7-2,1.6-2.9,1.4c-1-0.2-0.9-1.4-0.3-2.1C326.5,154,327.9,153.2,328.8,153.4L328.8,153.4z M332,155.4c0.9,0.4,0.6,1.4,0,2s-2.3,1.1-3.2,0.7c-0.9-0.4-0.5-1.6,0.1-2.1C329.6,155.5,331.1,155.1,332,155.4L332,155.4z M335.3,159.1c0.9,0.1,1.1,1.3,0.8,2.1c-0.3,0.8-1.4,1.9-2.2,1.8c-0.9-0.1-1.1-1.5-0.8-2.3C333.5,159.9,334.5,158.9,335.3,159.1L335.3,159.1z M337.5,161.7c0.7,0.4,0.5,1.7,0.1,2.4c-0.5,0.8-1.8,1.6-2.5,1.1c-0.8-0.4-0.5-1.9,0-2.6C335.6,162,336.8,161.3,337.5,161.7L337.5,161.7z M322,154.5c0.8-0.1,1.3,1.1,1.3,1.9c0,0.9-0.6,2.2-1.4,2.3s-1.3-1.2-1.3-2.1C320.7,155.8,321.3,154.6,322,154.5L322,154.5z M324.5,156.7c0.8,0.2,0.9,1.4,0.6,2.2s-1.2,1.9-2,1.8c-0.8-0.2-0.9-1.6-0.6-2.4C322.9,157.5,323.8,156.6,324.5,156.7L324.5,156.7z M326.8,158.3c0.9,0.2,1.1,1.8,0.8,2.7c-0.3,1-1.5,2.4-2.4,2.2s-1-1.9-0.7-2.9C324.9,159.3,326,158.1,326.8,158.3L326.8,158.3z M346,161.4c-0.6,0.5-1.8,0.1-2.3-0.5s-0.9-1.9-0.3-2.4s1.9,0,2.4,0.6C346.3,159.7,346.6,160.9,346,161.4L346,161.4z M343.8,163.3c-0.6,0.5-1.8,0.1-2.3-0.5s-0.9-1.9-0.3-2.4s1.9,0,2.4,0.6C344,161.6,344.3,162.8,343.8,163.3L343.8,163.3z M339.7,164c0.7,0.5,0.5,1.9,0.1,2.7c-0.5,0.8-1.6,1.7-2.3,1.2c-0.7-0.5-0.5-2,0-2.9C337.9,164.3,339,163.6,339.7,164L339.7,164z M336.5,165.7c0.7,0.4,0.5,1.7,0.1,2.4c-0.5,0.8-1.8,1.6-2.5,1.1c-0.8-0.4-0.5-1.9,0-2.6C334.6,166,335.8,165.3,336.5,165.7L336.5,165.7z M327.8,175.1c-0.8,0.3-0.9,1.8-0.5,2.7c0.3,0.9,1.4,2.1,2.2,1.8c0.8-0.3,0.9-2,0.5-2.9C329.6,175.8,328.5,174.8,327.8,175.1L327.8,175.1z M325.9,177.7c-0.8,0.3-0.9,1.8-0.5,2.7c0.3,0.9,1.4,2.1,2.2,1.8c0.8-0.3,0.9-2,0.5-2.9C327.7,178.5,326.6,177.4,325.9,177.7L325.9,177.7z M322.7,183.6c-0.8,0.2-1.2,1.7-1,2.6c0.2,1,1.1,2.3,1.9,2.1s1.2-1.8,0.9-2.8C324.3,184.6,323.5,183.4,322.7,183.6L322.7,183.6z M321.1,186.5c-0.8,0-1.5,1.4-1.5,2.4s0.6,2.5,1.5,2.5s1.5-1.6,1.4-2.6C322.6,187.8,322,186.5,321.1,186.5L321.1,186.5z M319.3,190c-0.8,0-1.5,1.4-1.5,2.4s0.6,2.5,1.5,2.5s1.5-1.6,1.4-2.6C320.7,191.3,320.1,189.9,319.3,190L319.3,190z M317.1,193.2c-0.8,0-1.5,1.4-1.5,2.4s0.6,2.5,1.5,2.5s1.5-1.6,1.4-2.6C318.6,194.5,317.9,193.2,317.1,193.2L317.1,193.2z M314.9,195.9c-0.8,0-1.5,1.4-1.5,2.4s0.6,2.5,1.5,2.5s1.5-1.6,1.4-2.6C316.3,197.3,315.7,195.9,314.9,195.9L314.9,195.9z M312.5,198.5c-0.8,0-1.5,1.4-1.5,2.4s0.6,2.5,1.5,2.5s1.5-1.6,1.4-2.6C314,199.8,313.4,198.5,312.5,198.5L312.5,198.5z M310,200.6c-0.8,0-1.5,1.4-1.5,2.4s0.6,2.5,1.5,2.5s1.5-1.6,1.4-2.6C311.4,201.9,310.8,200.6,310,200.6L310,200.6z M307.5,202.9c-0.8,0-1.5,1.4-1.5,2.4s0.6,2.5,1.5,2.5s1.5-1.6,1.4-2.6C309,204.1,308.4,202.8,307.5,202.9L307.5,202.9z M304.7,204l-1,3.7c0,0,0.5,1.3,1.1,1.3c1-0.1,1.2-1.6,1.4-2.6C306.5,204.8,304.7,204,304.7,204z M363.1,206.3c0.3,1.1,2.8,2,2.8,2l-1.2-5C363.6,203.4,362.9,205.6,363.1,206.3z M360.1,200.1c-0.8,0-1.6,1.3-1.7,2.2c-0.1,1,0.4,2.5,1.3,2.6c0.9,0,1.6-1.4,1.7-2.5C361.5,201.5,361,200.1,360.1,200.1L360.1,200.1z M357.7,197.6c-0.8,0-1.6,1.3-1.7,2.2c-0.1,1,0.4,2.5,1.3,2.6c0.9,0,1.6-1.4,1.7-2.5C359.1,199.1,358.6,197.7,357.7,197.6L357.7,197.6z M355.5,194.8c-0.8,0-1.6,1.3-1.7,2.2c-0.1,1,0.4,2.5,1.3,2.6c0.9,0,1.6-1.4,1.7-2.5C356.8,196.3,356.3,194.9,355.5,194.8L355.5,194.8z M353.2,192.5c-0.8,0-1.6,1.3-1.7,2.2c-0.1,1,0.4,2.5,1.3,2.6c0.9,0,1.6-1.4,1.7-2.5C354.5,193.9,354,192.5,353.2,192.5L353.2,192.5z M351.3,189.2c-0.8,0-1.6,1.3-1.7,2.2c-0.1,1,0.4,2.5,1.3,2.6c0.9,0,1.6-1.4,1.7-2.5C352.7,190.7,352.2,189.3,351.3,189.2L351.3,189.2z M349.3,186.4c-0.8,0-1.6,1.3-1.7,2.2c-0.1,1,0.4,2.5,1.3,2.6c0.9,0,1.6-1.4,1.7-2.5C350.6,187.8,350.1,186.4,349.3,186.4L349.3,186.4z M347.4,183.3c-0.8,0-1.6,1.3-1.7,2.2c-0.1,1,0.4,2.5,1.3,2.6c0.9,0,1.6-1.4,1.7-2.5C348.8,184.7,348.3,183.3,347.4,183.3L347.4,183.3z M345.8,179.7c-0.8,0-1.6,1.3-1.7,2.2c-0.1,1,0.4,2.5,1.3,2.6c0.9,0,1.6-1.4,1.7-2.5C347.1,181.1,346.6,179.8,345.8,179.7L345.8,179.7z M344,176.5c-0.8,0-1.6,1.3-1.7,2.2c-0.1,1,0.4,2.5,1.3,2.6c0.9,0,1.6-1.4,1.7-2.5C345.3,177.9,344.8,176.5,344,176.5L344,176.5z M342.5,172.6c-0.8,0-1.6,1.3-1.7,2.2c-0.1,1,0.4,2.5,1.3,2.6c0.9,0,1.6-1.4,1.7-2.5C343.9,174.1,343.3,172.7,342.5,172.6L342.5,172.6z M344.9,222.6c-0.4,0.7,0.5,2,1.3,2.5c0.9,0.5,2.5,0.8,2.9,0s-0.6-2.1-1.5-2.6C346.8,222.1,345.3,221.9,344.9,222.6L344.9,222.6z M348.5,222c-0.4,0.7,0.5,2,1.3,2.5c0.9,0.5,2.5,0.8,2.9,0s-0.6-2.1-1.5-2.6C350.4,221.5,348.9,221.3,348.5,222L348.5,222z M351.6,221.1c-0.3,0.8,0.6,1.9,1.5,2.4c0.9,0.4,2.5,0.5,2.9-0.3s-0.8-2-1.7-2.4C353.4,220.4,352,220.4,351.6,221.1L351.6,221.1z M355,220.1c-0.3,0.8,0.6,1.9,1.5,2.4c0.9,0.4,2.5,0.5,2.9-0.3s-0.8-2-1.7-2.4C356.9,219.4,355.4,219.4,355,220.1L355,220.1z M358.4,219c-0.3,0.8,0.8,1.9,1.6,2.3c0.9,0.4,2.5,0.4,2.9-0.4c0.3-0.8-0.9-2-1.9-2.3C360.2,218.2,358.7,218.3,358.4,219L358.4,219z M361.9,217.9c-0.3,0.8,0.8,1.9,1.6,2.3c0.9,0.4,2.5,0.4,2.9-0.4c0.3-0.8-0.9-2-1.9-2.3C363.6,217.1,362.2,217.1,361.9,217.9L361.9,217.9z M365.2,216.5c-0.3,0.8,0.8,1.9,1.6,2.3c0.9,0.4,2.5,0.4,2.9-0.4c0.3-0.8-0.9-2-1.9-2.3C367,215.7,365.5,215.7,365.2,216.5L365.2,216.5z M368.8,215.1c-0.3,0.8,0.8,1.9,1.6,2.3c0.9,0.4,2.5,0.4,2.9-0.4c0.3-0.8-0.9-2-1.9-2.3C370.5,214.2,369.1,214.3,368.8,215.1L368.8,215.1z M372.8,211.1c-0.3,0.8,0.8,1.9,1.6,2.3c0.9,0.4,2.5,0.4,2.9-0.4c0.3-0.8-0.9-2-1.9-2.3C374.6,210.2,373.1,210.3,372.8,211.1L372.8,211.1z M372,210.2c0,0,2.4,0.4,2.7-0.5c0.3-1.2-2.8-2.3-2.8-2.3L372,210.2z M306.3,217.6c-0.7,0.4-0.5,2-0.1,2.8c0.5,0.9,1.8,1.9,2.5,1.4c0.8-0.5,0.5-2.1,0-3C308.2,218,307,217.1,306.3,217.6L306.3,217.6z M309.7,218.9c-0.7,0.4-0.5,2-0.1,2.8c0.5,0.9,1.8,1.9,2.5,1.4c0.8-0.5,0.5-2.1,0-3C311.6,219.4,310.4,218.5,309.7,218.9L309.7,218.9z M313,219.4c-0.7,0.4-0.5,2-0.1,2.8c0.5,0.9,1.8,1.9,2.5,1.4c0.8-0.5,0.5-2.1,0-3C314.9,219.9,313.7,219,313,219.4L313,219.4z M316.5,220.3c-0.7,0.4-0.5,2-0.1,2.8c0.5,0.9,1.8,1.9,2.5,1.4c0.8-0.5,0.5-2.1,0-3C318.4,220.8,317.2,219.9,316.5,220.3L316.5,220.3z M319.7,220.8c-0.7,0.4-0.5,2-0.1,2.8c0.5,0.9,1.8,1.9,2.5,1.4c0.8-0.5,0.5-2.1,0-3C321.7,221.2,320.5,220.4,319.7,220.8L319.7,220.8z M322.9,221.5c-0.7,0.4-0.5,2-0.1,2.8c0.5,0.9,1.8,1.9,2.5,1.4c0.8-0.5,0.5-2.1,0-3C324.8,221.9,323.6,221,322.9,221.5L322.9,221.5z M326.2,222.4c-0.7,0.4-0.5,2-0.1,2.8c0.5,0.9,1.8,1.9,2.5,1.4c0.8-0.5,0.5-2.1,0-3C328.1,222.8,326.9,221.9,326.2,222.4L326.2,222.4z M296.6,212.9c-0.8-0.2-1.8,1-2.1,1.9c-0.3,1-0.1,2.6,0.7,2.8c0.9,0.2,1.9-1.1,2.1-2.1C297.6,214.6,297.4,213.1,296.6,212.9L296.6,212.9z M299.2,214.1c-0.8-0.2-1.8,0.9-2.1,1.8c-0.3,1-0.2,2.6,0.6,2.8c0.9,0.2,1.9-1,2.2-2C300.2,215.8,300,214.3,299.2,214.1L299.2,214.1z M300.9,214.5c-0.8,0.2-1.1,1.7-0.9,2.6c0.2,1,1.1,2.3,2,2.1s1.1-1.9,0.9-2.8C302.6,215.5,301.8,214.3,300.9,214.5L300.9,214.5z M304,215.6c-0.8,0.2-1.1,1.7-0.9,2.6c0.2,1,1.1,2.3,2,2.1s1.1-1.9,0.9-2.8C305.7,216.6,304.8,215.4,304,215.6L304,215.6z M331.2,168.2c-0.6,0.6-0.1,2,0.5,2.8c0.7,0.8,2.1,1.5,2.8,0.9c0.6-0.6,0-2.2-0.6-2.9C333.1,168.2,331.8,167.7,331.2,168.2L331.2,168.2z M330.5,171.4c-0.6,0.6-0.1,2,0.5,2.8c0.7,0.8,2.1,1.5,2.8,0.9c0.6-0.6,0-2.2-0.6-2.9C332.4,171.4,331.1,170.9,330.5,171.4L330.5,171.4z M330.5,175.1c-0.6,0.6-0.1,2,0.5,2.8c0.7,0.8,2.1,1.5,2.8,0.9c0.6-0.6,0-2.2-0.6-2.9C332.5,175.1,331.1,174.5,330.5,175.1L330.5,175.1z M330.5,178.9c-0.6,0.6-0.1,2,0.5,2.8c0.7,0.8,2.1,1.5,2.8,0.9c0.6-0.6,0-2.2-0.6-2.9C332.4,178.9,331.1,178.3,330.5,178.9L330.5,178.9z M330.6,182.6c-0.6,0.6-0.1,2,0.5,2.8c0.7,0.8,2.1,1.5,2.8,0.9c0.6-0.6,0-2.2-0.6-2.9C332.6,182.6,331.2,182,330.6,182.6L330.6,182.6z M330,186.1c-0.6,0.6-0.1,2,0.5,2.8c0.7,0.8,2.1,1.5,2.8,0.9c0.6-0.6,0-2.2-0.6-2.9C332,186.1,330.6,185.5,330,186.1L330,186.1z M330.5,189.9c-0.6,0.6-0.1,2,0.5,2.8c0.7,0.8,2.1,1.5,2.8,0.9c0.6-0.6,0-2.2-0.6-2.9C332.4,189.9,331.1,189.3,330.5,189.9L330.5,189.9z M330.5,196.1c-0.6,0.6-0.1,2,0.5,2.8c0.7,0.8,2.1,1.5,2.8,0.9c0.6-0.6,0-2.2-0.6-2.9C332.4,196.1,331.1,195.5,330.5,196.1L330.5,196.1z M330.5,199.8c-0.6,0.6-0.1,2,0.5,2.8c0.7,0.8,2.1,1.5,2.8,0.9c0.6-0.6,0-2.2-0.6-2.9C332.4,199.8,331.1,199.2,330.5,199.8L330.5,199.8z M330.3,203.4c-0.6,0.6-0.1,2,0.5,2.8c0.7,0.8,2.1,1.5,2.8,0.9c0.6-0.6,0-2.2-0.6-2.9C332.2,203.4,330.9,202.8,330.3,203.4L330.3,203.4z M330.3,206.8c-0.6,0.6-0.1,2,0.5,2.8c0.7,0.8,2.1,1.5,2.8,0.9c0.6-0.6,0-2.2-0.6-2.9C332.3,206.8,330.9,206.2,330.3,206.8L330.3,206.8z M330.4,210.5c-0.6,0.6-0.1,2,0.5,2.8c0.7,0.8,2.1,1.5,2.8,0.9c0.6-0.6,0-2.2-0.6-2.9C332.4,210.5,331,209.9,330.4,210.5L330.4,210.5z M330.4,214.1c-0.6,0.6-0.1,2,0.5,2.8c0.7,0.8,2.1,1.5,2.8,0.9c0.6-0.6,0-2.2-0.6-2.9C332.4,214.1,331,213.5,330.4,214.1L330.4,214.1z M330.3,217.6c-0.6,0.6-0.1,2,0.5,2.8c0.7,0.8,2.1,1.5,2.8,0.9c0.6-0.6,0-2.2-0.6-2.9C332.3,217.6,330.9,217.1,330.3,217.6L330.3,217.6z M330.1,221.2c-0.6,0.6-0.1,2,0.5,2.8c0.7,0.8,2.1,1.5,2.8,0.9c0.6-0.6,0-2.2-0.6-2.9C332.1,221.2,330.7,220.7,330.1,221.2L330.1,221.2z M330.1,225.2c-0.6,0.6-0.1,2,0.5,2.8c0.7,0.8,2.1,1.5,2.8,0.9c0.6-0.6,0-2.2-0.6-2.9C332.1,225.2,330.7,224.6,330.1,225.2L330.1,225.2z M330,229.3c-0.6,0.6-0.1,2,0.5,2.8c0.7,0.8,2.1,1.5,2.8,0.9c0.6-0.6,0-2.2-0.6-2.9C332,229.3,330.6,228.7,330,229.3L330,229.3z M330,233.1c-0.6,0.6-0.1,2,0.5,2.8c0.7,0.8,2.1,1.5,2.8,0.9c0.6-0.6,0-2.2-0.6-2.9C332,233.1,330.6,232.6,330,233.1L330,233.1z M330,236.7c-0.6,0.6-0.1,2,0.5,2.8c0.7,0.8,2.1,1.5,2.8,0.9c0.6-0.6,0-2.2-0.6-2.9C332,236.7,330.6,236.1,330,236.7L330,236.7z M329.9,240.7c-0.6,0.6-0.1,2,0.5,2.8c0.7,0.8,2.1,1.5,2.8,0.9c0.6-0.6,0-2.2-0.6-2.9C331.8,240.7,330.5,240.1,329.9,240.7L329.9,240.7z M338.8,168.5c0.4,0.7-0.2,1.9-0.9,2.5c-0.7,0.6-2.1,1-2.6,0.3s0.3-2.1,1.1-2.6C337.1,168.1,338.4,167.9,338.8,168.5L338.8,168.5z M339.3,171.4c0.4,0.7-0.2,1.9-0.9,2.5c-0.7,0.6-2.1,1-2.6,0.3s0.3-2.1,1.1-2.6C337.5,171.1,338.9,170.8,339.3,171.4L339.3,171.4z M339.2,174.6c0.4,0.7-0.2,1.9-0.9,2.5c-0.7,0.6-2.1,1-2.6,0.3s0.3-2.1,1.1-2.6C337.5,174.3,338.8,174,339.2,174.6L339.2,174.6z M339.2,177.9c0.4,0.7-0.2,1.9-0.9,2.5c-0.7,0.6-2.1,1-2.6,0.3s0.3-2.1,1.1-2.6C337.4,177.6,338.8,177.3,339.2,177.9L339.2,177.9z M339.1,180.9c0.4,0.7-0.2,1.9-0.9,2.5c-0.7,0.6-2.1,1-2.6,0.3s0.3-2.1,1.1-2.6C337.4,180.6,338.7,180.3,339.1,180.9L339.1,180.9z M339.3,184.2c0.4,0.7-0.2,1.9-0.9,2.5c-0.7,0.6-2.1,1-2.6,0.3s0.3-2.1,1.1-2.6C337.5,183.8,338.9,183.5,339.3,184.2L339.3,184.2z M339.1,187.3c0.4,0.7-0.2,1.9-0.9,2.5c-0.7,0.6-2.1,1-2.6,0.3s0.3-2.1,1.1-2.6C337.3,186.9,338.6,186.6,339.1,187.3L339.1,187.3z M339,190.6c0.5,0.7-0.3,2-1,2.6c-0.8,0.6-2.4,1-2.9,0.3s0.4-2.1,1.2-2.7C337.1,190.2,338.5,189.9,339,190.6L339,190.6z M338.8,193.8c0.6,0.6,0.1,2-0.5,2.8c-0.7,0.8-2.1,1.5-2.8,0.9c-0.6-0.6,0-2.2,0.6-2.9C336.8,193.8,338.2,193.2,338.8,193.8L338.8,193.8z M338.9,197.5c0.6,0.6,0.1,2-0.5,2.8c-0.7,0.8-2.1,1.5-2.8,0.9c-0.6-0.6,0-2.2,0.6-2.9C336.9,197.5,338.3,196.9,338.9,197.5L338.9,197.5z M338.9,201.1c0.6,0.6,0.1,2-0.5,2.8c-0.7,0.8-2.1,1.5-2.8,0.9c-0.6-0.6,0-2.2,0.6-2.9C337,201.1,338.3,200.5,338.9,201.1L338.9,201.1z M338.8,205c0.6,0.6,0.1,2-0.5,2.8c-0.7,0.8-2.1,1.5-2.8,0.9c-0.6-0.6,0-2.2,0.6-2.9C336.9,205,338.2,204.4,338.8,205L338.8,205z M338.9,208.6c0.6,0.6,0.1,2-0.5,2.8c-0.7,0.8-2.1,1.5-2.8,0.9c-0.6-0.6,0-2.2,0.6-2.9C337,208.6,338.3,208,338.9,208.6L338.9,208.6z M338.8,212.2c0.6,0.6,0.1,2-0.5,2.8c-0.7,0.8-2.1,1.5-2.8,0.9c-0.6-0.6,0-2.2,0.6-2.9C336.9,212.3,338.2,211.7,338.8,212.2L338.8,212.2z M338.9,215.9c0.6,0.6,0.1,2-0.5,2.8c-0.7,0.8-2.1,1.5-2.8,0.9c-0.6-0.6,0-2.2,0.6-2.9C336.9,215.9,338.3,215.4,338.9,215.9L338.9,215.9z M338.9,219.6c0.6,0.6,0.1,2-0.5,2.8c-0.7,0.8-2.1,1.5-2.8,0.9c-0.6-0.6,0-2.2,0.6-2.9C336.9,219.6,338.3,219.1,338.9,219.6L338.9,219.6z M338.7,223.4c0.6,0.6,0.1,2-0.5,2.8c-0.7,0.8-2.1,1.5-2.8,0.9c-0.6-0.6,0-2.2,0.6-2.9C336.8,223.4,338.1,222.8,338.7,223.4L338.7,223.4z M338.9,226.8c0.6,0.6,0.1,2-0.5,2.8c-0.7,0.8-2.1,1.5-2.8,0.9c-0.6-0.6,0-2.2,0.6-2.9C337,226.8,338.3,226.2,338.9,226.8L338.9,226.8z M338.9,230.3c0.6,0.6,0.1,2-0.5,2.8c-0.7,0.8-2.1,1.5-2.8,0.9c-0.6-0.6,0-2.2,0.6-2.9C337,230.3,338.3,229.8,338.9,230.3L338.9,230.3z M338.8,234.2c0.6,0.6,0.1,2-0.5,2.8c-0.7,0.8-2.1,1.5-2.8,0.9c-0.6-0.6,0-2.2,0.6-2.9C336.9,234.2,338.2,233.6,338.8,234.2L338.8,234.2z M338.8,237.9c0.6,0.6,0.1,2-0.5,2.8c-0.7,0.8-2.1,1.5-2.8,0.9c-0.6-0.6,0-2.2,0.6-2.9C336.9,238,338.2,237.4,338.8,237.9L338.8,237.9z" />
      <path fill="#FA0204" stroke="#000000" stroke-width="0.5769" stroke-linejoin="round" d="M332.9,266.6c3.6,1,5.7,0.9,8.7,0.1l-3.1-5" />
      <path fill="#FFE000" stroke="#000000" stroke-width="0.5769" stroke-linejoin="round" d="M339.9,253.6l-5.7-1.5c0,0,0.1-6.3,3.7-5.8C340.9,246.9,340,253.7,339.9,253.6L339.9,253.6z M337.1,241.8c1.3,0,2.3,1,2.3,2.3s-1,2.3-2.3,2.3s-2.3-1-2.3-2.3S335.8,241.8,337.1,241.8z" />
      <path fill="#FA0204" stroke="#000000" stroke-width="0.5769" stroke-linejoin="round" d="M339.4,256.5c1.3,3.2,2,6,0.9,9.6 M341.6,266.7c-1.8-1.5-6.6-1-8.6-0.1c-0.8,0-3-15,4.6-14.6C344.5,252.4,342.1,266.8,341.6,266.7L341.6,266.7z" />
      <path fill="#FA0204" stroke="#000000" stroke-width="0.5769" stroke-linejoin="round" d="M326.7,269.9c3.5,2.2,6.7,2,9.8,0.1l-7.2-7.6" />
      <path fill="#FFE000" stroke="#000000" stroke-width="0.5769" stroke-linejoin="round" d="M331.8,244.5c1.3,0,2.3,1,2.3,2.3s-1,2.3-2.3,2.3s-2.3-1-2.3-2.3S330.5,244.5,331.8,244.5z M334.7,254.3l-5.9-0.1c0,0-0.8-4.8,2.9-5C334.7,249.1,334.8,254.3,334.7,254.3L334.7,254.3z" />
      <path fill="#FA0204" stroke="#000000" stroke-width="0.5769" stroke-linejoin="round" d="M331.9,268.9c-1.1-2.5-1.2-5.6-0.9-8.9 M329.2,269c-1.4-2.4-1.6-5.4-0.5-9.2 M336.5,270c-0.9-1.1-7.2-1.6-9.7-0.1c-0.9,0-3.3-16.9,5.2-16.5C339.8,253.8,337,270.1,336.5,270L336.5,270z" />
    </g>
  </g>
</svg>
