<svg xmlns="http://www.w3.org/2000/svg" width="450px" height="300px" viewBox="0 0 450 300">
  <path fill="#FFCC00" d="M0,0h450v300H0L0,0z" />
  <path fill="#00247D" d="M0,184.875l450,2.625V300H0L0,184.875z" />
  <path fill="#008033" d="M0,150h450v75H0L0,150z" />
  <path fill="#FDFDFD" d="M374.933,149.999H225.058c0.001-7.898,1.196-15.927,3.844-23.828c10.666-31.826,40.61-51.764,72.5-51.156c7.359,0.14,14.835,1.377,22.188,3.812l0.234,0.078C355.188,89.417,374.935,118.649,374.933,149.999z M231.514,178.682l-6.513-20.057l-6.513,20.057l-21.088-0.004l17.062,12.392l-6.52,20.055l17.058-12.398l17.058,12.398l-6.52-20.055l17.062-12.392L231.514,178.682z M81.513,178.682L75,158.625l-6.513,20.057l-21.088-0.004l17.062,12.392l-6.52,20.055L75,198.727l17.058,12.398l-6.52-20.055l17.062-12.392L81.513,178.682z M402.601,178.678l-21.088,0.004L375,158.625l-6.513,20.057l-21.088-0.004l17.062,12.392l-6.52,20.055L375,198.727l17.058,12.398l-6.52-20.055L402.601,178.678z" />
</svg>
