<svg xmlns="http://www.w3.org/2000/svg" width="450px" height="300px" viewBox="0 0 450 300">
  <path fill="#FFFFFF" d="M0,0h450v300H0V0z" />
  <g>
    <path fill="#369443" stroke="#010002" stroke-width="1.0588" d="M140.381,203.117c0,0-0.365-2.467,4.321-4.276c4.685-1.809,5.05-8.552,4.112-13.048c0,0-2.447,4.276-5.414,5.702c0,0-4.841,2.522-5.063,7.339c0,0-0.038,1.761-0.403,3.132c-0.199,0.75-2.342-6.031,1.718-11.074c4.19-5.205,5.362-9.43,2.03-17.653c0,0-0.312,4.989-3.592,7.84c-3.28,2.851-3.697,3.07-3.644,9.868c0,0,0.052,2.357-1.197,3.125c0,0-2.551-3.728-3.228-6.195c-0.677-2.467-0.989-3.509,1.926-6.36c0,0,9.339-6.035,2.603-19.243c0,0-0.208,4.55-3.436,7.237c-3.228,2.686-2.967,4.495-3.124,9.156c-0.156,4.66-0.469,4.331-0.833,4.989c0,0-5.934-10.91-1.354-16.721c4.581-5.812,7.132-7.018,2.082-17.818c0,0,0.224,5.537-3.818,8.279c-4.042,2.741-3.105,9.156-3.105,9.156s0.26,2.412-0.572,4.166c0,0-5.718-11.153-0.26-17.16c4.633-5.099,4.945-8.662,2.447-15.899c0,0-0.312,3.344-2.863,5.153c-2.551,1.809-4.581,3.618-4.112,10.581c0,0,0.208,4.879-0.416,6.25c0,0-2.395-4.441-3.071-7.346c-0.677-2.906-0.937-4.605,0.833-7.511c1.77-2.906,8.798-11.239,0.416-23.245c0,0-0.26,3.893-2.395,7.401c-2.134,3.509-1.145,7.675-0.677,10.855c0.469,3.18-1.093,6.25-1.093,6.25s-3.644-6.689-2.863-14.364c0.781-7.675-2.342-13.98-9.422-18.53c0,0-5.154,11.952,1.874,18.037c0,0,5.987,5.921,7.496,13.103c0,0-4.529-0.439-8.641-8.443c-4.112-8.004-12.65-6.743-13.223-6.798c0,0,1.406,12.39,14.524,15.899c0,0,8.381,1.426,9.943,7.566c0,0,1.405,4.222,1.978,6.469c0,0-2.655-1.042-5.102-4.66c-2.447-3.618-2.134-4.057-10.411-4.879c0,0-3.332-0.384-5.102-2.741c0,0,3.488,13.103,12.442,12.993c0,0,8.173-0.877,12.754,9.868c0,0-0.885-0.548-2.082-1.371c-1.197-0.822-4.217-2.357-10.203-1.645c-5.987,0.713-7.652-0.274-9.162-0.768c0,0,6.038,11.074,14.576,7.785c8.537-3.289,12.661,8.705,12.754,8.936c0,0-1.145-0.877-2.655-2.358c-1.51-1.48-4.644-3.306-10.568-1.426c0,0-4.268,1.645-8.59,0.329c0,0,4.165,8.059,13.899,6.689c9.734-1.371,12.181,7.182,12.181,7.182s-1.301-0.768-2.186-1.48c-0.885-0.713-4.165-2.577-11.192-0.493c-7.028,2.083-9.578-0.329-9.578-0.329s3.904,7.127,11.4,7.949c0,0,4.165-0.055,5.934-0.713c1.77-0.658,6.455-1.699,9.683,2.96c0,0-0.885,0.164-2.238-0.439c0,0-4.997-1.809-8.798,1.37c0,0-3.384,3.454-8.173,2.796c0,0,6.195,6.031,16.033,0.932c0,0,3.332-2.412,5.778-0.548C134.707,206.79,140.381,203.117,140.381,203.117L140.381,203.117z" />
    <path fill="#F4C53D" stroke="#010002" stroke-width="1.0588" d="M195.145,54.545c0,0-1.143-10.203,7.01-11.184c8.503-1.024,12.702,0.768,12.702,0.768l3.817,7.493l-1.319,5.044l-5.275,2.412c0,0,0.902-7.748-6.201-7.91c-1.8-0.041-2.857,0.673-5.704,0.221C197.314,50.934,195.783,54.079,195.145,54.545L195.145,54.545z" />
    <path fill="#F4C53D" stroke="#010002" stroke-width="1.0588" d="M252.512,79.8c-1.215,1.572-6.073,2.12-6.073,2.12s4.997,3.838,7.149,9.32c2.152,5.482-57.922,0.036-57.922,0.036s2.603-1.864,4.373-5.373c0,0-2.655,0.987-5.31-1.645c0,0,1.978,0.658,4.581-3.289c0,0,3.852-4.934,6.559-6.25c0,0-1.249,0.768-4.268-0.877c0,0,5.206-0.658,7.08-9.539c0,0,0.312-1.974,2.291-4.824c1.978-2.851,1.562,0.548,5.206-3.838c0,0,1.666-3.107,0.208-5.007c-1.458-1.901-3.019-1.206-6.073-3.034c-3.054-1.828-4.408-2.851-3.366-5.665c1.041-2.814,3.748-2.376,4.13-2.376c0.382,0,0.59-2.449,3.922-4.13c3.332-1.681,12.181-0.95,13.5-0.219c1.319,0.731,6.663,2.303,9.787,10.197c3.124,7.895-0.833,10.855,7.67,22.77c0,0-3.401,0.731-5.587,0.073C240.365,68.25,244.772,76.072,252.512,79.8L252.512,79.8z" />
    <path fill="#F4C53D" stroke="#010002" stroke-width="1.0588" d="M227.368,47.39c0,0-1.223-0.576-2.258-1.946c-1.452-1.923-4.691-2.851-6.435-1.042c0,0-1.77,1.974-3.332,2.083c0,0,1.77,0.548,2.993,1.672c1.223,1.124,2.499,1.946,4.321,1.699c1.822-0.247,2.109-1.206,2.967-1.782C226.483,47.499,227.368,47.39,227.368,47.39L227.368,47.39z" />
    <path fill="#0081C6" stroke="#010002" stroke-width="1.0588" d="M368.535,146.109l-14.317,30.783l-3.777-6.089l-30.227,35.717l-3.273-3.664l30.112-35.264l-6.091-3.269L368.535,146.109z" />
    <path fill="#0081C6" stroke="#010002" stroke-width="1.0588" d="M329.408,130.875l1.081,34.259l-6.049-3.509l-10.071,43.475l-4.155-2.985l9.803-41.651l-6.836,0.126L329.408,130.875z" />
    <path fill="#0081C6" stroke="#010002" stroke-width="1.0588" d="M355.475,123.512l-7.375,33.386l-4.981-5.039l-27.053,52.02l-4.169-2.434l27.235-51.913l-6.633-1.742L355.475,123.512z" />
    <path fill="#F4C53D" stroke="#010002" stroke-width="1.0588" d="M272.397,145.99c0,0,6.455,5.263,11.869,0c0,0,2.186,2.632,6.559,1.864c4.373-0.768,5.102-3.07,5.518-4.386c0,0,3.783,2.207,6.975,0.464c3.193-1.743,3.193-4.374,3.193-4.374s5.553,1.094,8.399-2.669c2.846-3.763,1.111-7.492-0.416-7.93c0,0,6.004,1.573,7.635-3.582c1.388-4.386-1.735-6.652-1.735-6.652s12.65-0.061,17.838-4.02c0,0,4.303-2.705,1.735-5.555c0,0,11.383-1.828,14.229-6.36c0,0,1.249-1.243,0.833-3.436c0,0-0.07-1.243-1.319-1.316c0,0,12.981-2.005,16.728-6.287c0,0,1.805-1.974,0.902-4.605c0,0-0.191-0.695-0.503-1.16c0,0,11.817-2.495,17.647-7.758c0,0,3.366-2.999,1.631-7.019c0,0,19.747-5.408,15.167-14.106c0,0,9.232-2.997,6.316-11.33c0,0,7.635-3.874,4.303-10.014c-3.188-5.876-12.979,1.023-24.573,4.231c0,0-31.371,9.877-46.82,12.505l-43.896,65.353L275,127.716L272.397,145.99L272.397,145.99z M177.811,145.991c0,0-6.455,5.263-11.869,0c0,0-2.186,2.632-6.559,1.864s-5.102-3.07-5.518-4.386c0,0-3.783,2.207-6.976,0.464c-3.193-1.743-3.193-4.375-3.193-4.375s-5.553,1.094-8.399-2.669c-2.846-3.763-1.111-7.492,0.416-7.93c0,0-6.004,1.573-7.635-3.582c-1.388-4.386,1.735-6.652,1.735-6.652s-12.65-0.061-17.838-4.02c0,0-4.303-2.705-1.735-5.555c0,0-11.383-1.828-14.229-6.36c0,0-1.249-1.243-0.833-3.436c0,0,0.07-1.243,1.319-1.316c0,0-12.981-2.005-16.728-6.287c0,0-1.805-1.974-0.902-4.605c0,0,0.191-0.695,0.503-1.16c0,0-11.817-2.495-17.647-7.758c0,0-3.366-2.999-1.631-7.019c0,0-19.748-5.408-15.167-14.106c0,0-9.232-2.997-6.316-11.33c0,0-7.635-3.874-4.303-10.014c3.188-5.876,12.98,1.023,24.573,4.231c0,0,31.371,9.877,46.82,12.505l43.896,65.353l25.612,9.868L177.811,145.991L177.811,145.991z M157.481,191.458c0,0-5.275,9.064-11.661,9.21c0,0-10.984-1.337-14.09,1.535c-2.166,2.003-4.373,3.655-5.275,8.772s1.735,6.214,2.36,6.433c0,0,0.486,3.655,4.095,2.705c0,0,0.208,3.801,6.594,1.974c6.386-1.828,9.023-1.243,10.273-7.602c1.249-6.36,2.403-6.256,3.54-7.018c1.527-1.024,4.396-1.991,6.524-3.216c1.912-1.101,9.232-4.825,11.73-5.117c2.499-0.292,1.943-8.699,1.943-8.699h-6.455l-3.124-4.605L157.481,191.458L157.481,191.458z M292.74,191.458c0,0,5.275,9.064,11.661,9.21c0,0,10.984-1.337,14.09,1.535c2.166,2.003,4.373,3.655,5.275,8.772c0.902,5.117-1.735,6.213-2.36,6.433c0,0-0.486,3.655-4.095,2.705c0,0-0.208,3.801-6.594,1.974c-6.386-1.828-9.023-1.243-10.273-7.602c-1.249-6.36-2.403-6.256-3.54-7.018c-1.527-1.024-4.396-1.991-6.525-3.216c-1.912-1.101-9.232-4.824-11.73-5.117c-2.499-0.292-1.944-8.699-1.944-8.699h6.455l3.124-4.605L292.74,191.458L292.74,191.458z" />
    <path fill="#F4C53D" stroke="#010002" stroke-width="1.0588" d="M272.085,97.855c0,0,4.114-3.089,11.453,0.548c0,0,2.471,1.701,4.414-0.163c1.624-1.558,1.776-4.429-0.458-6.087c-5.466-4.057-7.496-16.228,0.833-21.271c0,0,12.077-7.164,56.363-18.434c0,0,3.71-1.029,5.689-0.535c2.178,0.543,3.679,2.412,3.986,4.012c0,0,1.982,5.632-4.681,8.854c0,0-3.008,1.376-6.108,2.266c0,0,3.405-0.736,4.859,2.632c1.388,3.216-0.625,6.506-6.871,8.626c0,0-1.69,0.658-4.095,1.243c0,0,5.345,1.535,2.776,5.848c0,0-2.291,4.532-10.377,5.336c0,0,6.038,0.658,1.77,6.396c0,0-1.874,3.143-7.774,4.313c0,0,4.477,0.146,2.221,4.166c-2.256,4.02-7.564,6.287-12.788,6.652c0,0-2.829,0.146-4.807-0.293c0,0,4.963,2.485,2.047,6.652c0,0-2.152,2.96-7.531,2.814c0,0,1.396,4.653-2.551,6.414c-3.071,1.37-5.622-0.822-5.622-0.822s1.041,4.989-3.436,6.743c0,0-2.238,1.151-5.57,0c0,0-2.551,5.702-11.609,1.699C265.161,131.462,272.085,97.855,272.085,97.855z M178.123,97.855c0,0-4.114-3.089-11.453,0.548c0,0-2.471,1.701-4.414-0.163c-1.624-1.558-1.776-4.429,0.458-6.087c5.466-4.057,7.496-16.228-0.833-21.271c0,0-12.077-7.164-56.363-18.434c0,0-3.71-1.029-5.689-0.535c-2.178,0.543-3.679,2.412-3.986,4.012c0,0-1.982,5.632,4.681,8.854c0,0,3.008,1.376,6.108,2.266c0,0-3.405-0.736-4.859,2.632c-1.388,3.216,0.625,6.506,6.871,8.626c0,0,1.69,0.658,4.095,1.243c0,0-5.345,1.535-2.776,5.848c0,0,2.291,4.532,10.377,5.336c0,0-6.038,0.658-1.77,6.396c0,0,1.874,3.143,7.774,4.313c0,0-4.477,0.146-2.221,4.166c2.256,4.02,7.564,6.287,12.788,6.652c0,0,2.829,0.146,4.807-0.292c0,0-4.963,2.485-2.047,6.652c0,0,2.152,2.96,7.531,2.814c0,0-1.396,4.653,2.551,6.414c3.071,1.37,5.622-0.822,5.622-0.822s-1.041,4.989,3.436,6.743c0,0,2.238,1.151,5.57,0c0,0,2.551,5.702,11.609,1.699C185.047,131.462,178.123,97.855,178.123,97.855z M178.661,149.673c0,0-1.329,7.136-11.868,16.117c0,0-8.132,7.173-7.924,15.433c0.212,8.411-1.458,9.356-4.65,12.208c0,0,6.594,0.512,9.787-3.874c0,0-0.139,7.31-1.111,7.968c0,0,2.068,0.132,5.067-3.143c0,0,1.805-1.901,3.47-2.632c0,0-1.943,5.044-0.416,9.722c0,0,0.486-1.828,3.054-2.632c0,0,4.65-0.95,6.455-7.675c0,0,1.18-4.459,8.468-8.406c0,0,8.26-3.115,8.052-7.186C196.836,171.502,178.661,149.673,178.661,149.673z M271.56,149.673c0,0,1.329,7.136,11.868,16.117c0,0,8.132,7.173,7.923,15.433c-0.212,8.411,1.458,9.356,4.65,12.208c0,0-6.594,0.512-9.787-3.874c0,0,0.139,7.31,1.111,7.968c0,0-2.068,0.132-5.067-3.143c0,0-1.805-1.901-3.47-2.632c0,0,1.943,5.044,0.416,9.722c0,0-0.486-1.828-3.054-2.632c0,0-4.65-0.95-6.455-7.675c0,0-1.18-4.459-8.468-8.406c0,0-8.26-3.115-8.052-7.186C253.385,171.501,271.56,149.673,271.56,149.673L271.56,149.673z M233.275,241.676c0,0,1.892,8.35,8.468,7.675c0,0,4.65-0.439,4.303-8.187c0,0,6.871,3.655,7.982-5.409c0,0,6.247,1.462,6.178-7.018c0,0,5.831,1.024,5.136-6.506c0,0,6.316,1.681,6.316-5.409c0,0,14.784-2.452-16.033-30.555l-27.486,16.374L233.275,241.676L233.275,241.676z M216.944,241.676c0,0-1.892,8.35-8.468,7.675c0,0-4.65-0.439-4.303-8.187c0,0-6.871,3.655-7.982-5.409c0,0-6.247,1.462-6.178-7.018c0,0-5.831,1.024-5.136-6.506c0,0-6.316,1.681-6.316-5.409c0,0-14.784-2.452,16.033-30.555l27.486,16.374L216.944,241.676L216.944,241.676z" />
    <path fill="#F4C53D" stroke="#010002" stroke-width="1.0588" d="M230.221,204.206c0,0,4.581,4.064,7.843-2.003c0,0,4.442-0.219,5.136-3.582c0,0,3.61-0.366,4.303-3.801c0,0,4.928-0.512,4.789-4.678c0,0,8.959-0.692,0.003-10.835c-8.957-10.144-24.157,16.83-24.157,16.83L230.221,204.206z M219.999,204.206c0,0-4.581,4.064-7.843-2.003c0,0-4.442-0.219-5.136-3.582c0,0-3.61-0.366-4.303-3.801c0,0-4.928-0.512-4.789-4.678c0,0-8.959-0.692-0.003-10.835c8.957-10.144,24.157,16.829,24.157,16.829L219.999,204.206L219.999,204.206z M225.11,201.691c4.441,0,9.473,27.741,8.167,44.454c-0.474,6.07-3.726,11.028-8.167,11.028s-7.692-4.958-8.167-11.028C215.638,229.432,220.669,201.691,225.11,201.691" />
    <path fill="#F4C53D" stroke="#010002" stroke-width="1.0588" d="M225.11,192.371c3.394,0,6.145,4.074,6.145,9.101s-2.751,9.101-6.145,9.101s-6.145-4.074-6.145-9.101S221.717,192.371,225.11,192.371z" />
    <path fill="none" stroke="#010002" stroke-width="1.0588" d="M215.343,46.486c-6.924-0.329-4.268-6.926-4.268-6.926 M411.598,45.773c0,0-14.229,8.238-58.542,16.477 M405.282,57.103c0,0-38.511,12.563-56.446,14.106 M390.115,71.209c0,0-22.592,7.092-49.049,11.567 M370.837,85.986c0,0-25.525,6.131-37.711,7.149 M353.71,98.038c0,0-21.59,4.503-27.061,5.044 M339.967,109.149c0,0-15.756,2.394-22.027,2.266 M320.394,118.725c0,0-6.371-0.299-9.432-0.808 M314.494,128.959c0,0-5.414-1.462-8.607-3.509 M306.512,139.558c0,0-4.165-1.608-6.177-5.994 M296.344,143.468c0,0-3.228-2.887-3.436-6.104 M284.266,145.99c0,0,1.208-1.042,0.382-5.574 M285.828,133.765c0,0,0.625-1.297,0.416-3.344 M298.414,200.668c0,0,1.889,0.42,5.987,0 M308.594,68.872c0,0-7.288,2.924-9.717,6.944c-2.429,4.02-0.829,7.928,0,10.17c0.417,1.127,5.553,11.029-0.486,18.192 M308.49,111.963c0,0-0.035-0.037-2.603-0.841 M323.864,101.437c0,0-4.344,0.875-8.607,0.914 M329.868,90.728c0,0-5.102,0.512-9.891,0.439 M337.469,79.544c0,0-7.357,1.462-11.314,1.535 M343.577,67.044c0,0-9.074,2.59-15.826,3.509 M312.759,75.889c0,0,6.525,6.067-1.319,11.696c0,0,3.262,5.117-3.262,10.453 M309.913,100.56c0,0,0.972,9.757-10.967,9.758c0,0,2.291,8.699-9.232,8.407c0,0-1.319,6.944-9.648,5.555 M315.923,205.785c0,0,5.761-0.877,5.483,11.623 M312.452,208.636c0,0,5.206-0.658,4.859,11.477 M262.2,179.396c0,0,2.499,0.512,4.234,2.485c1.735,1.974,5.067,1.608,5.067,1.608s-1.805-1.462-2.429-5.117c-0.625-3.655-2.638-4.751-2.638-4.751 M272.395,170.16c0,0,2.499,0.512,4.234,2.485c1.735,1.974,5.067,1.608,5.067,1.608s-1.805-1.462-2.429-5.117c-0.625-3.655-2.638-4.751-2.638-4.751 M274.113,184.349c0,0,2.182,0.447,3.697,2.17c1.515,1.723,4.424,1.404,4.424,1.404s-1.576-1.277-2.121-4.468c-0.545-3.191-2.303-4.148-2.303-4.148 M246.047,241.164c0,0-0.694-14.693-13.428-35.745 M254.029,235.755c0,0,1.978-8.479-15.964-33.552c0,0,2.082-5.994-4.303-9.832 M260.206,228.738c0,0,0.555-9.174-17.005-30.116c0,0,1.551-5.409-4.812-9.722 M265.343,222.232c0,0-0.659-9.283-17.838-27.412c0,0,0.859-5.555-5.297-8.991 M271.659,216.823c0,0-1.249-10.599-19.365-26.681c0,0,0.625-4.166-5.414-8.406 M204.173,241.164c0,0,0.694-14.693,13.428-35.745 M196.191,235.755c0,0-1.978-8.479,15.964-33.552c0,0-2.082-5.994,4.303-9.832 M190.014,228.738c0,0-0.555-9.174,17.005-30.116c0,0-1.551-5.409,4.812-9.722 M184.877,222.232c0,0,0.659-9.283,17.838-27.412c0,0-0.859-5.555,5.297-8.991 M112.74,79.544c0,0,7.357,1.462,11.314,1.535 M106.632,67.044c0,0,9.074,2.59,15.826,3.509 M137.449,75.889c0,0-6.524,6.067,1.319,11.696c0,0-3.262,5.117,3.262,10.453 M140.295,100.56c0,0-0.972,9.757,10.967,9.758c0,0-2.291,8.699,9.232,8.407c0,0,1.319,6.944,9.648,5.555 M38.61,45.773c0,0,14.229,8.238,58.542,16.477 M44.927,57.103c0,0,38.511,12.563,56.446,14.106 M60.093,71.209c0,0,22.592,7.092,49.049,11.567 M79.371,85.986c0,0,25.525,6.131,37.711,7.149 M96.498,98.038c0,0,21.59,4.503,27.061,5.044 M110.241,109.149c0,0,15.756,2.394,22.027,2.266 M129.814,118.725c0,0,6.371-0.299,9.432-0.808 M135.714,128.959c0,0,5.414-1.462,8.607-3.509 M143.696,139.558c0,0,4.165-1.608,6.178-5.994 M153.865,143.469c0,0,3.228-2.887,3.436-6.104 M165.942,145.991c0,0-1.208-1.042-0.382-5.574 M164.38,133.765c0,0-0.625-1.297-0.417-3.344 M141.614,68.872c0,0,7.288,2.924,9.717,6.944c2.429,4.02,0.829,7.928,0,10.17c-0.417,1.127-5.553,11.029,0.486,18.192 M141.718,111.963c0,0,0.035-0.037,2.603-0.841 M126.344,101.437c0,0,4.344,0.875,8.607,0.914 M120.34,90.728c0,0,5.102,0.512,9.891,0.439 M151.789,200.668c0,0-1.889,0.42-5.987,0 M134.281,205.785c0,0-5.761-0.877-5.483,11.623 M137.751,208.636c0,0-5.206-0.658-4.859,11.476 M188.021,179.396c0,0-2.499,0.512-4.234,2.485c-1.735,1.974-5.067,1.608-5.067,1.608s1.805-1.462,2.429-5.117s2.638-4.751,2.638-4.751 M177.826,170.16c0,0-2.499,0.512-4.234,2.485c-1.735,1.974-5.067,1.608-5.067,1.608s1.805-1.462,2.429-5.117c0.625-3.655,2.638-4.751,2.638-4.751 M176.107,184.348c0,0-2.182,0.447-3.697,2.17c-1.515,1.723-4.424,1.404-4.424,1.404s1.576-1.277,2.121-4.468c0.545-3.191,2.303-4.148,2.303-4.148 M178.561,216.823c0,0,1.249-10.599,19.365-26.681c0,0-0.625-4.166,5.414-8.406" />
    <path fill="#FFFFFF" stroke="#010002" stroke-width="1.0588" d="M225.11,199.484c0,0,52.115-23.094,52.246-76.519H172.865C172.995,176.39,225.11,199.484,225.11,199.484z" />
    <path fill="#A60032" stroke="#010002" stroke-width="1.0588" d="M180.902,122.964V157.1c0,0,3.992,7.917,8.038,12.882v-47.018H180.902z M196.978,122.964v56.271c0,0,5.027,4.929,8.038,7.305v-63.576H196.978L196.978,122.964z M213.054,122.964v69.556c0,0,5.735,3.704,8.038,4.919v-74.475L213.054,122.964L213.054,122.964z M269.318,122.964V157.1c0,0-3.992,7.917-8.038,12.882v-47.018H269.318z M253.242,122.964v56.271c0,0-5.027,4.929-8.038,7.305v-63.576H253.242z M237.167,122.964v69.556c0,0-5.735,3.704-8.038,4.919v-74.475L237.167,122.964L237.167,122.964z" />
    <path fill="#162667" stroke="#010002" stroke-width="1.0588" d="M277.356,84.149c0,0-25.573,13.377-52.246-1.097c-26.673,14.473-52.246,1.097-52.246,1.097v38.815h104.491V84.149z" />
    <path fill="#0081C6" stroke="#010002" stroke-width="1.0588" d="M309.366,219.742l-2.027,8.285l5.548,5.527l-7.841,33.12l-6.974-9.368l-10.334,4.823l7.841-33.12l7.27-2.027l1.887-8.27C304.736,218.712,306.935,217.851,309.366,219.742L309.366,219.742z" />
    <path fill="#0081C6" stroke="#010002" stroke-width="1.0588" d="M311.223,214.278l-3.993,7.451l4.001,6.851l-15.713,29.854l-4.434-10.949l-11.167,1.842l15.713-29.854l7.52,0.024l3.856-7.474C307.005,212.022,309.809,212.016,311.223,214.278L311.223,214.278z" />
    <path fill="#0081C6" stroke="#010002" stroke-width="1.0588" d="M311.897,216.445l-10.622,13.495l2.435,7.623l-21.687,25.366l-1.982-11.719l-11.274-0.851l21.687-25.366l7.322,1.805l11.267-14.326C309.043,212.471,312.065,213.972,311.897,216.445L311.897,216.445z" />
    <path fill="#369443" stroke="#010002" stroke-width="1.0588" d="M139.302,218.254c0,0-0.156-4.44,5.466-4.769l16.553,23.025c0,0-0.625,1.48-8.12,1.316c0,0-0.794-0.005-1.21,0.872C151.35,240.044,139.302,218.254,139.302,218.254L139.302,218.254z" />
    <path fill="#0081C6" stroke="#010002" stroke-width="1.0588" d="M42.747,184.808c2.532-1.034,4.356-2.032,4.348-4.734c-0.002-0.644-0.36-2.069-1.078-4.276l-17.004-51.967c-1.007-3.087-1.768-4.922-2.121-5.599c-0.764-1.464-2.265-2.059-4.286-2.901h21.611c-2.348,1.109-4.488,1.99-4.468,4.479c0.008,0.95,0.275,2.291,0.826,4.021l13.026,40.779l13.013-40.779c0.551-1.73,0.836-3.071,0.827-4.021c-0.025-2.558-2.254-3.48-4.444-4.479h20.945c-1.915,0.767-3.476,1.369-4.278,2.901c-0.354,0.676-1.114,2.512-2.121,5.599l-17.004,51.967c-0.719,2.206-0.979,3.655-1.079,4.326c0,0-0.782,3.287,4.348,4.682L42.747,184.808L42.747,184.808z M405.105,179.463v-58.838c0-1.018-0.168-1.798-0.503-2.341c-0.336-0.542-1.796-2.107-3.881-2.952h19.474c-2.084,0.69-3.546,2.367-3.881,2.927c-0.336,0.56-0.503,1.349-0.503,2.367v58.838c0,1.052,0.173,1.858,0.521,2.418c0.347,0.56,1.778,1.926,3.863,2.927h-19.474c2.084-0.948,3.545-2.409,3.881-2.952C404.937,181.313,405.105,180.515,405.105,179.463z" />
  </g>
</svg>
