<svg xmlns="http://www.w3.org/2000/svg" width="450px" height="300px" viewBox="0 0 450 300">
  <path fill="#009543" d="M0,0h450v300H0V0z" />
  <path fill="#D21034" d="M0,0h450v150H0V0z" />
  <path fill="#000000" d="M450,176.842H237.58L0,300V0l237.58,123.158H450V176.842z" />
  <path fill="#FDCE12" d="M233.833,142.105H450v15.789H233.833L0,279.11v-17.409L215.48,150L0,38.298V20.89L233.833,142.105z M67.669,104.211c-9.312,0-38.084,6.67-38.084,36.687s28.216,32.796,33.776,32.796s26.409-5.003,24.046-27.516c0,6.393-7.228,19.873-22.379,19.873c-15.15,0-24.602-11.257-24.602-22.374c0-11.118,9.173-25.987,25.158-25.987c15.984,0,27.66,14.174,27.66,28.488c0,14.314-11.258,32.518-29.188,32.518v17.093c14.873,0,44.061-11.395,44.061-48.082C108.117,111.02,76.982,104.211,67.669,104.211z M77.868,153.351c-0.17-0.282-0.351-0.576-0.543-0.882c-1.082-0.272-5.051-1.359-5.456-2.799c-0.374-1.331,3.064,0.489,4.469,1.279c-0.206-0.307-0.421-0.623-0.646-0.946c-1.187-0.416-4.686-1.738-5.074-2.99c-0.35-1.128,2.174,0.095,3.477,0.788c-0.237-0.313-0.482-0.631-0.735-0.953c-1.248-0.335-4.8-1.402-5.4-2.858c-0.579-1.406,2.576,0.269,3.907,1.022c-0.428-0.509-0.87-1.024-1.335-1.546c-0.902-0.139-3.131-0.571-4.498-1.577c-1.368,1.006-3.597,1.439-4.498,1.577c-0.465,0.522-0.908,1.037-1.335,1.546c1.331-0.753,4.486-2.428,3.907-1.022c-0.6,1.456-4.152,2.524-5.4,2.858c-0.253,0.322-0.498,0.64-0.735,0.953c1.303-0.693,3.827-1.917,3.477-0.788c-0.389,1.253-3.887,2.574-5.074,2.99c-0.225,0.323-0.44,0.639-0.646,0.946c1.405-0.79,4.844-2.61,4.469-1.279c-0.405,1.439-4.373,2.527-5.456,2.799c-0.193,0.307-0.373,0.601-0.543,0.882c1.209-0.655,4.705-2.448,4.748-1.284c0.044,1.186-4.231,2.368-5.581,2.712c-0.808,1.44-1.199,2.307-1.215,2.344l-0.124,0.284l-1.361-0.881l0.134-0.218c0.583-0.954,1.219-1.952,1.894-2.972c-0.461-1.079-1.714-4.463-0.106-6.115c1.575-1.617,1.273,2.914,1.11,4.632c0.223-0.323,0.447-0.646,0.679-0.973c-0.266-1.277-0.976-5.253,0.245-6.212c1.216-0.955,0.912,3.332,0.777,4.79c0.252-0.343,0.52-0.689,0.781-1.034c-0.179-1.199-0.662-5.109,0.526-5.945c1.159-0.815,0.764,3.099,0.587,4.51c0.304-0.384,0.604-0.767,0.919-1.151c-0.144-1.257-0.414-4.825,0.995-5.808c1.39-0.969,0.67,2.756,0.342,4.223c0.318-0.368,0.647-0.734,0.975-1.1c-0.087-1.165-0.216-4.409,0.976-5.259c0.33-0.235,0.52-0.139,0.619,0.148c0.15-0.106,0.425-0.138,0.772-0.118c0.026-0.15,0.056-0.297,0.09-0.441c-1.527-0.138-3.347-0.468-3.727-1.256c-0.532-1.105,2.205-0.605,3.41-0.338c-0.326-0.269-0.654-0.538-0.991-0.807c-1.131-0.003-4.354-0.092-4.869-0.992c-0.481-0.841,2.205-0.359,3.476-0.091c-0.276-0.209-0.557-0.417-0.84-0.624c-1.128,0.032-4.404,0.037-4.878-0.952c-0.429-0.898,2.121-0.393,3.43-0.082c-0.316-0.22-0.635-0.44-0.959-0.658c-1.653-0.199-6.439-0.863-5.964-1.813c0.373-0.746,2.507-0.059,3.956,0.513c-0.321-0.2-0.636-0.403-0.964-0.6l0.039-0.068c-1.101-0.633-2.666-1.72-2.144-2.555c0.624-0.998,2.174,1.385,2.776,2.39c0.36,0.194,0.707,0.402,1.061,0.604c-0.778-0.986-2.109-2.82-1.074-2.629c1.116,0.207,2.426,2.702,2.921,3.728c0.27,0.169,0.538,0.34,0.805,0.513c-0.814-1.237-2.36-3.763-1.172-3.407c1.272,0.381,2.302,3.314,2.643,4.395c0.285,0.198,0.569,0.397,0.85,0.599c-0.677-1.214-1.95-3.724-0.678-3.327c1.358,0.424,1.99,3.37,2.178,4.45c0.306,0.236,0.616,0.468,0.917,0.709c-0.522-1.286-1.629-4.278-0.437-3.908c1.235,0.383,1.704,3.823,1.835,5.072c0.179,0.152,0.363,0.301,0.54,0.454c0.024-0.2,0.052-0.402,0.09-0.606c-0.434-1.336-0.772-2.922,0.298-2.419c0.2,0.094,0.372,0.238,0.523,0.411c0.152-0.172,0.323-0.316,0.523-0.411c1.07-0.504,0.733,1.082,0.298,2.419c0.037,0.203,0.066,0.406,0.09,0.606c0.177-0.154,0.361-0.302,0.54-0.454c0.131-1.249,0.6-4.688,1.835-5.072c1.192-0.37,0.085,2.623-0.437,3.908c0.3-0.241,0.611-0.473,0.917-0.709c0.188-1.08,0.82-4.026,2.178-4.45c1.273-0.398-0.001,2.112-0.678,3.327c0.28-0.202,0.565-0.401,0.85-0.599c0.34-1.081,1.371-4.013,2.643-4.395c1.188-0.356-0.358,2.17-1.172,3.407c0.266-0.173,0.535-0.344,0.805-0.513c0.496-1.027,1.805-3.522,2.921-3.728c1.035-0.192-0.296,1.643-1.074,2.629c0.353-0.201,0.701-0.41,1.061-0.604c0.602-1.005,2.152-3.388,2.776-2.39c0.522,0.835-1.044,1.923-2.144,2.555l0.039,0.068c-0.328,0.198-0.644,0.4-0.964,0.6c1.449-0.572,3.583-1.259,3.956-0.513c0.475,0.95-4.311,1.614-5.964,1.813c-0.324,0.218-0.643,0.438-0.959,0.658c1.309-0.31,3.859-0.815,3.43,0.082c-0.474,0.99-3.75,0.984-4.878,0.952c-0.282,0.207-0.564,0.415-0.84,0.624c1.271-0.268,3.957-0.75,3.476,0.091c-0.514,0.9-3.738,0.989-4.869,0.992c-0.336,0.268-0.665,0.537-0.991,0.807c1.205-0.267,3.942-0.767,3.41,0.338c-0.38,0.788-2.2,1.118-3.727,1.256c0.034,0.144,0.064,0.291,0.09,0.441c0.348-0.02,0.622,0.012,0.772,0.118c0.099-0.287,0.289-0.384,0.619-0.148c1.192,0.851,1.063,4.095,0.976,5.259c0.328,0.366,0.658,0.732,0.975,1.1c-0.328-1.467-1.047-5.191,0.342-4.223c1.41,0.982,1.139,4.551,0.995,5.808c0.315,0.384,0.615,0.768,0.919,1.151c-0.176-1.411-0.571-5.325,0.587-4.51c1.188,0.836,0.705,4.746,0.526,5.945c0.262,0.345,0.529,0.691,0.781,1.034c-0.135-1.458-0.439-5.745,0.777-4.79c1.221,0.959,0.51,4.935,0.245,6.212c0.231,0.327,0.456,0.65,0.679,0.973c-0.164-1.718-0.465-6.249,1.11-4.632c1.609,1.652,0.355,5.036-0.106,6.115c0.675,1.02,1.311,2.017,1.894,2.972l0.134,0.218l-1.361,0.881l-0.124-0.284c-0.016-0.037-0.407-0.904-1.215-2.344c-1.35-0.344-5.625-1.526-5.581-2.712C73.163,150.904,76.66,152.696,77.868,153.351z M69.309,139.096c0.045,0.683,0.038,1.306,0.025,1.688c0.308,0.316,0.61,0.634,0.909,0.952c-0.152-0.747-0.398-2.116-0.383-3.036C69.727,138.84,69.542,138.973,69.309,139.096z M67.644,137.568c-0.077,0.002-0.148,0.004-0.215,0.006c-0.136,0.121-0.266,0.242-0.4,0.363c0.004,0.147,0.006,0.278,0.006,0.399c0.226-0.061,0.462-0.12,0.7-0.176C67.701,137.964,67.67,137.765,67.644,137.568z M64.332,138.161c0.239,0.056,0.475,0.115,0.7,0.176c0-0.121,0.002-0.252,0.006-0.399c-0.134-0.121-0.264-0.242-0.4-0.363c-0.067-0.002-0.138-0.003-0.215-0.006C64.398,137.765,64.366,137.964,64.332,138.161z M61.824,141.736c0.3-0.318,0.601-0.636,0.909-0.952c-0.013-0.382-0.02-1.006,0.025-1.688c-0.233-0.123-0.418-0.256-0.551-0.396C62.222,139.621,61.975,140.989,61.824,141.736z M68.668,141.455c-0.358-0.372-0.726-0.746-1.103-1.122c-0.362-0.052-0.911-0.139-1.532-0.26c-0.621,0.12-1.17,0.207-1.532,0.26c-0.377,0.375-0.745,0.749-1.103,1.122c0.499-0.153,1.232-0.365,1.891-0.504c0.068-0.139,0.354-0.165,0.744-0.124c0.39-0.041,0.676-0.015,0.744,0.124C67.437,141.09,68.17,141.302,68.668,141.455z" />
</svg>
