<svg xmlns="http://www.w3.org/2000/svg" width="450px" height="300px" viewBox="0 0 450 300">
  <path fill="#DE2010" d="M267.857,96.429H375V300H267.857V96.429z" />
  <path fill="#EF7D00" d="M342.857,96.429H450V300H342.857V96.429z" />
  <path fill="#000000" d="M342.857,96.429h53.571V300h-53.571V96.429z" />
  <path fill="#198A00" d="M0,0h450v107.143H289.286V300H0V0z" />
  <path fill="#EF7D00" stroke="#000000" stroke-width="0.4821" stroke-linecap="round" stroke-linejoin="round" d="M410.662,36.072c0,0,18.429-7.223,20.215-8.712c0.812,0.894-7.388,9.978-23.3,13.329c14.451-3.127,26.791-12.956,29.307-12.658c0.731,0.149,0.568,9.606-32.555,17.796c22.894-5.51,36.208-15.637,36.046-14.52c0.162,0.223-2.273,7.967-22.325,13.999c5.602-1.192,20.783-9.68,20.621-8.042c0.487,0.67-14.694,18.541-42.134,12.733c21.92,5.212,36.126-7.372,38.156-7.148c0.406,0.074-4.059,11.02-31.661,11.69c13.233-1.266,9.417-0.075,9.417-0.075s-7.794,5.585-17.211,1.787c7.388,1.862,8.199,1.936,8.362,2.531c-0.487,0.744-6.576,1.862-12.421-1.043c4.708,1.787,8.93,2.085,9.011,2.755c-0.081,0.223-3.085,1.787-5.764,0.67c-2.679-1.117-27.359-15.041-27.359-15.041L409.12,35.55L410.662,36.072z M361.224,73.737c-3.698,0-3.8,3.018-3.8,3.018s-0.305,0.218-0.102,1.681c0.61-0.996,0.916-1.307,0.916-1.307c0.407,0.062,2.103,0.529,4.784-1.4c-2.443,2.334-0.984,3.205-0.984,3.205s-0.577,1.836,1.289,2.21c-0.576-0.747-0.237-1.401-0.237-1.401s2.612-0.249,2.443-3.174c0.102,2.645,1.663,3.298,1.663,3.298s0,1.463,1.696,1.587c-0.916-0.747-0.712-1.898-0.712-1.898s2.205-1.463,0.339-3.952c1.12-0.591,2.036-2.24,2.036-2.24s-1.527-0.591-2.239-1.089c-0.34-0.654-0.034-4.232-0.034-4.232l-0.916-4.637l-2.613,7.22C364.854,69.598,364.922,73.737,361.224,73.737z" />
  <path fill="#EF7D00" stroke="#000000" stroke-width="0.4821" stroke-linecap="round" stroke-linejoin="round" d="M379.488,63.324c0.081,0.075,2.76,2.83,5.358,2.681c0.974-0.744-2.03-2.383-2.03-2.755c1.055,0.894,5.52,4.393,8.362,3.127c1.136-1.489-2.03-1.266-5.521-5.287c2.435,1.489,8.525,4.766,11.366,3.5c1.218-1.191-6.332-4.915-8.849-7.819l-6.494-3.053l-8.849,6.627L379.488,63.324z M369.502,40.688c0,0,3.004-1.638,15.019-0.819c1.299,0.149,8.199-2.159,10.391-2.83c3.491-0.596,14.613-2.83,17.617-4.914c2.111-0.223-0.569,3.574-3.247,4.468c-2.842,1.191-13.152,4.468-16.805,4.021c4.384,0.074,1.949,3.351-5.358,1.787c3.491,1.787,2.192,2.085,2.192,2.085s-6.17,0.298-7.793-0.968c4.14,1.415,2.435,1.936,2.435,1.936s-4.221,0.372-6.17-0.447c3.004,0.819,1.461,1.34,1.461,1.34s-2.435,0.372-4.465-0.298C372.75,45.379,369.665,40.688,369.502,40.688z M374.32,64.868l0.441,7.282c0,0-0.238,0.374-0.441,0.591c-0.204,0.218-5.632-0.778-4.886,3.018c0,1.556,0.034,1.96,1.188,2.832c-0.306-1.027-0.204-1.742-0.204-1.742s1.527,0.84,3.019-1.463c-1.018,2.272-0.306,3.081-0.068,3.143c0.238,0.405-0.407,2.24,1.629,2.209c-0.78-0.685-0.407-1.68-0.407-1.68s2.137-0.311,1.391-3.858c0.78-0.716,1.086-0.031,1.086-0.031s0.237,2.116,2.103,1.68c0.849,0.436-0.136,1.587-0.136,1.587s1.357,0.031,1.764-1.027s0.882-2.956-1.357-3.734c-0.271-0.747,0.883-0.809,0.883-0.809s1.425,0.436,1.832,1.089s0.272-1.711-1.493-1.96c-2.171-0.062-2.307-0.467-2.307-0.56c0-0.094-0.373-5.29-0.543-6.784L374.32,64.868z" />
  <path fill="#EF7D00" stroke="#000000" stroke-width="0.4821" stroke-linecap="round" stroke-linejoin="round" d="M381.872,71.073c0.027-0.334-3.704-4.941-2.758-5.537c0.946,0.179,2.498,2.274,3.755,1.594c-0.381-0.817-1.504-0.357-2.779-2.448c-1.275-2.364-1.461-5.913-5.926-9.784c2.891,4.096,9.448,6.498,9.726,5.303c0.278-1.194-5.774-5.711-5.464-6.8c1.203,2.236,7.28,7.217,11.757,6.804c0.307-0.959-3.666-2.895-4.689-4.702c-2.86-1.762-10.514-7.813-10.667-9.217c-2.785-3.726-4.524-4.853-5.333-5.282c-0.313-0.338-0.391-0.661-0.453-0.867c-1.729-3.738,0.561-4.952,1.901-5.132c1.103-0.112,1.423,0.039,2.217-0.314c-0.94-0.337-1.88-0.653-2.819-0.99c1.225,0.824,4.355,0.099,3.677,2.473c1.372-0.479,4.292-3.665-3.309-4.384c-2.474-2.603-12.645-4.099-15.19,7.262c0.203,0.159,0.31,0.29,0.957,0.733c-3.212-1.428-11.876-2.529-14.998-2.992c-8.435-2.232-17.195-7.611-18.037-6.95c-1.126,0.459,5.096,5.768,4.773,5.886c-5.396-2.886-10.325-4.93-14.911-6.79c-3.227-1.106-6.458-3.682-6.815-3.192c-1.187,2.256,5.173,7.928,6.356,8.595c1.184,0.638,10.489,4.597,10.351,4.647c-14.015-5.835-16.365-6.893-17.069-7.565c-1.235-0.255-4.244-3.982-5.083-3.742c-0.459,0.414,0.462,6.302,7.15,8.945c1.09,0.729,14.336,5.087,14.206,5.429c-0.032,0.085-15.171-5.731-15.759-5.939c-2.919-1.05-6.5-4.729-7.17-4.316c-0.639,0.375,1.651,4.358,4.6,5.607c1.546,0.626,7.476,3.32,12.818,5.034c0.341,0.113-9.603-3.459-14.384-5.291c-2.168-1.104-3.189-2.479-3.519-2.183c-0.488,0.296,0.789,6.179,16.153,9.499c0.405,0.158,5.408-1.087,5.161-0.922c-0.062,0.041-4.968,1.021-5.446,0.988c-0.425-0.06-3.113,0.292-3.162,0.42c-0.162,0.398,0.974,2.505,8.907,2.065c1.014-0.056,6.518-1.838,6.055-1.455c-0.231,0.192-7.494,2.356-8.047,2.399c-0.48,0.062-3.032,0.307-3.126,0.556c-0.115,0.339,1.889,1.839,6.149,2.079c3.772,0.184,10.939-2.114,10.795-1.965c-0.144,0.149-6.909,2.275-7.086,2.405c-0.245,0.127-2.722,0.25-2.809,0.425c-0.202,0.434,3.574,3.672,14.74,0.216c-1.122,1.39-6.534,2.34-6.526,2.59c-0.025,0.182,1.192,1.261,3.085,1.647c0.946,0.193,2.241,0.154,3.425-0.018c2.125-0.39,4.365-1.161,7.211-3.574c0.34,0.757-7.109,4.215-6.759,4.544c1.615,1.374,6.981-0.177,7.332-0.357c0.352-0.18,10.332-5.342,10.298-5.94c0.155,0.766-12.867,7.255-12.726,7.522c0.836,1.223,5.284-0.064,5.497-0.177c0.212-0.112,5.677-2.82,5.827-2.9c0.149-0.08-6.423,3.528-5.837,4.077c-0.283,2.343,10.264-1.617,11.091-2.11c0.413-0.247-5.067,2.21-5.081,3.377c1.765,2.736,7.415,1.868,8.286,1.266c0.436-0.301-0.513,2.033-0.207,1.821c0.107-0.044,1.229-1.261,1.661-2.142c-0.138,0.764-0.757,1.969-1.118,3.351c-0.362,1.382-0.466,2.941-0.962,4.598c-0.114,0.728,3.482-1.423,2.96-6.564c0.308,2.674-1.135,7.674-0.758,7.934c0.755,0.52,2.844-2.49,3.055-4.526c0.62,1.028,1.922,3.174,3.041,3.668c-0.122-1.555,0.021-1.484-0.483-3.013c0.291-2.029,0.331-4.838,0.402-8.01c3.043,5.346,4.256,7.603,3.406,11.697c0.905,0.346,2.35-2.857,2.233-4.506C376.777,70.52,381.792,71.206,381.872,71.073z" />
  <path fill="none" stroke="#000000" stroke-width="0.4821" stroke-linecap="round" stroke-linejoin="round" d="M331.195,37.133c0,0-2.071,1.435-4.648,1.351c0.644,2.364,5.983,0.549,5.983,0.549s-2.577,2.617-4.418,3.039c1.104,0.844,5.752,0.549,6.535,0.127c0.782-0.422,2.163-2.068,2.163-2.068s-4.786,5.065-5.476,5.023c-0.092,0.591,5.016,0.38,6.075-0.507c1.058-0.886,3.728-2.195,3.728-2.195s-6.995,4.474-7.317,4.474c2.623,0.633,7.87-0.76,11.229-2.659c-4.97,3.039-5.43,3.588-7.961,4.601c2.255,0.464,3.405,1.857,11.045-1.182c4.372-1.899,6.857-5.361,6.857-5.361c-2.715,3.335-6.995,6.163-11.735,8.948c-0.276,0.506,5.062,2.575,11.873-3.926 M368.195,51.231c0,0,0.46,1.984,2.301,3.504c1.841,1.519,1.979,2.997,1.979,2.997 M367.274,38.315c0,0,0.644,1.773,2.531,2.912c1.933,1.14,4.833,4.727,5.063,5.361c0.223,0.766,1.334,6.289,1.242,6.88 M355.539,41.059c0.138,0.675-2.715,4.094,1.196,8.104c-3.544,3.967-3.543,4.474-3.543,4.474s1.979,1.013,5.522-1.773c5.844,6.585,3.897,9.598,3.897,9.598 M362.146,56.814c0,0-0.538-0.707,0.421-3.349c0.864,0.955,1.825,1.159,2.247,1.545c0.421,0.387,4.834,0.972,5.114,3.677 M367.334,32.021c0-0.199-0.889-1.947-4.204,0.238C364.907,32.359,366.662,33.293,367.334,32.021z M398.972,40.018c0.162,0.074,9.904,2.01,13.152,1.042c-4.14,5.063-12.421,1.638-12.421,1.638c4.059,1.117,4.222,1.042,5.52,2.085c0.406,0.968-7.469,0.521-10.067-0.819c7.225,2.085,7.388,1.936,7.632,2.755c0.325,1.117-11.853-0.298-12.908-1.787c3.247,2.308,5.033,2.755,6.819,3.798c-2.192,0.894-6.251,1.787-13.72-3.053c9.823,8.191,18.672,7.669,20.053,9.159c-3.41,4.617-16.643-2.755-22.732-6.478s13.314,9.01,15.101,8.786c-0.893,1.266-7.307,0.149-7.713-0.447 M401.489,48.581c-1.136,0.149-4.546,0.149-5.033,0.074 M328.341,35.782c0,0,7.409,3.588,10.538,3.335c-0.828,0.718-2.071,1.013-2.071,1.013c0.783,0.295,2.945,1.351,6.213,0.675c-0.782,0.718-1.795,1.52-1.795,1.52s2.807,0.971,5.983-0.549c-0.966,1.097-1.519,1.899-1.519,1.899l2.209,0.127" />
</svg>
