<?xml version="1.0" encoding="UTF-8"?>
<svg id="Layer_1" xmlns="http://www.w3.org/2000/svg" width="512" height="82" xmlns:xlink="http://www.w3.org/1999/xlink" version="1.1" viewBox="0 0 512 82">
  <!-- Generator: Adobe Illustrator 30.3.0, SVG Export Plug-In . SVG Version: 2.1.3 Build 182)  -->
  <defs>
    <linearGradient id="linear-gradient" x1=".006" y1="294.397" x2=".957" y2="295.347" gradientTransform="translate(0 24222) scale(73.741 -82)" gradientUnits="userSpaceOnUse">
      <stop offset="0" stop-color="#4080ff"/>
      <stop offset="1" stop-color="#0af"/>
    </linearGradient>
    <linearGradient id="linear-gradient1" x1="61.875" y1="32.129" x2="85.018" y2="6.394" gradientUnits="userSpaceOnUse">
      <stop offset="0" stop-color="#ff4040"/>
      <stop offset="1" stop-color="#ff6a00"/>
    </linearGradient>
  </defs>
  <path d="M32.95,80.932L3.921,64.223c-1.235-.711-2.197-1.662-2.887-2.852C.345,60.18,0,58.873,0,57.45V24.55C0,23.127.345,21.82,1.035,20.629c.69-1.19,1.652-2.141,2.887-2.852L32.95,1.068C34.184.356,35.491,0,36.87,0c1.379,0,2.686.356,3.92,1.068l19.045,10.962,6.094,13.523,7.812,3.106v28.791c0,1.423-.345,2.731-1.035,3.921-.69,1.19-1.652,2.141-2.887,2.852l-29.029,16.709c-1.234.712-2.541,1.068-3.92,1.068s-2.686-.356-3.92-1.068Z" fill="url(#linear-gradient)"/>
  <path d="M17.322,41l7.007,7.007c.317.341.481.745.493,1.214.012.469-.153.873-.493,1.214-.341.341-.744.511-1.208.511s-.867-.17-1.208-.511l-7.985-7.985c-.414-.414-.622-.898-.622-1.45s.207-1.036.622-1.45l7.985-7.985c.341-.341.744-.511,1.208-.511s.867.17,1.208.511c.341.341.511.745.511,1.214s-.17.873-.511,1.214c0,0-7.007,7.007-7.007,7.007ZM30.313,57.929c-.22-.422-.257-.857-.11-1.307l10.083-32.288c.147-.45.427-.784.842-1.005.414-.22.846-.257,1.295-.11.45.147.788.427,1.016.842.228.414.268.846.121,1.295l-10.105,32.31c-.147.45-.427.784-.842,1.005-.414.22-.846.257-1.295.11-.45-.147-.784-.431-1.005-.852ZM56.419,41l-7.007-7.007c-.341-.341-.511-.745-.511-1.214s.17-.873.511-1.214c.341-.341.744-.511,1.208-.511s.867.17,1.208.511l7.985,7.985c.414.414.622.898.622,1.45s-.207,1.036-.622,1.45l-7.985,7.985c-.341.341-.744.511-1.208.511s-.867-.17-1.208-.511c-.341-.341-.511-.745-.511-1.214s.17-.873.511-1.214c0,0,7.007-7.007,7.007-7.007Z" fill="#fff"/>
  <path d="M109.042,40.872h22.382l-1.082,5.476h-22.39l-3.586,18.018h-6.366l8.913-44.566h31.451l-1.082,5.538h-25.148l-3.092,15.534ZM148.528,35.641l.978-5.019h-5.857l-6.685,33.743h6.112l3.374-16.872c.764-3.904,2.238-6.769,4.425-8.595,2.185-1.824,4.955-2.738,8.308-2.738h.828c.255,0,.509.022.764.064l1.146-5.921c-3.565,0-6.557.573-8.977,1.719-1.678.795-3.146,2.007-4.416,3.618h0ZM195.886,37.116c1.294,2.165,1.942,4.733,1.942,7.703,0,3.82-.849,7.226-2.547,10.219-1.698,2.992-4.022,5.359-6.971,7.098-2.951,1.741-6.357,2.611-10.219,2.611-3.226,0-6.017-.605-8.372-1.815s-4.192-2.907-5.507-5.093c-1.316-2.186-1.974-4.743-1.974-7.672,0-3.82.849-7.226,2.547-10.219,1.697-2.992,4.043-5.348,7.035-7.067s6.398-2.578,10.219-2.578c3.183,0,5.963.594,8.34,1.783,2.376,1.188,4.212,2.865,5.507,5.029ZM191.653,45.138c0-2.97-.87-5.294-2.611-6.972-1.741-1.676-4.224-2.514-7.449-2.514-2.505,0-4.754.605-6.749,1.815-1.996,1.21-3.565,2.887-4.712,5.029-1.146,2.144-1.719,4.616-1.719,7.417,0,2.928.869,5.242,2.61,6.94,1.74,1.698,4.223,2.547,7.449,2.547,2.547,0,4.817-.615,6.812-1.846,1.995-1.231,3.555-2.918,4.68-5.061,1.124-2.144,1.687-4.594,1.687-7.354h0ZM258.184,32.087c-1.953-1.188-4.437-1.783-7.45-1.783-3.524,0-6.653.774-9.391,2.324-1.645.931-3.106,2.155-4.391,3.66-.223-.501-.471-.985-.766-1.432-.998-1.506-2.346-2.642-4.043-3.406-1.698-.765-3.692-1.146-5.985-1.146-2.928,0-5.593.594-7.99,1.783-1.38.684-2.619,1.601-3.725,2.735l.829-4.199h-5.857l-6.685,33.743h6.112l3.565-17.827c.721-3.649,2.101-6.355,4.138-8.117,2.038-1.761,4.605-2.643,7.704-2.643,3.056,0,5.167.85,6.335,2.547,1.167,1.698,1.453,4.074.859,7.13l-3.82,18.909h6.112l3.629-18.018c.721-3.565,2.101-6.217,4.139-7.958,2.037-1.74,4.605-2.611,7.704-2.611,3.054,0,5.166.85,6.333,2.547,1.167,1.698,1.434,4.074.797,7.13l-3.757,18.909h6.113l3.755-18.909c.679-3.183.627-5.91-.159-8.181-.786-2.269-2.154-4-4.105-5.188h0ZM292.88,19.289c-3.65,0-6.865.563-9.645,1.688-2.78,1.125-4.957,2.716-6.527,4.775-1.571,2.059-2.355,4.51-2.355,7.353,0,2.038.414,3.725,1.242,5.061.827,1.337,1.91,2.431,3.247,3.279,1.337.85,2.823,1.56,4.457,2.133s3.268,1.083,4.903,1.528c1.634.446,3.12.934,4.457,1.464,1.337.531,2.429,1.221,3.279,2.069.849.85,1.274,1.933,1.274,3.248,0,1.613-.499,2.982-1.496,4.106-.998,1.125-2.41,1.985-4.234,2.578-1.825.595-3.926.891-6.303.891-1.868,0-3.682-.212-5.444-.637-1.761-.423-3.417-1.018-4.966-1.783-1.55-.764-2.896-1.655-4.043-2.674l-2.801,5.093c1.06,1.019,2.472,1.933,4.234,2.738,1.76.807,3.713,1.455,5.857,1.942,2.143.487,4.339.732,6.589.732,3.735,0,7.013-.551,9.836-1.655,2.822-1.103,5.029-2.706,6.621-4.807s2.387-4.574,2.387-7.417c0-1.952-.413-3.565-1.242-4.839-.827-1.274-1.932-2.324-3.311-3.152-1.379-.827-2.875-1.506-4.488-2.037-1.613-.53-3.237-1.039-4.87-1.528-1.635-.488-3.131-1.007-4.488-1.56-1.36-.551-2.442-1.251-3.248-2.101-.806-.848-1.21-1.951-1.21-3.311.043-1.57.552-2.938,1.528-4.106.976-1.167,2.355-2.069,4.139-2.706,1.783-.637,3.884-.955,6.303-.955,2.249,0,4.413.298,6.494.891,2.079.595,3.947,1.486,5.602,2.674l2.547-5.22c-1.783-1.231-3.927-2.165-6.431-2.802-2.505-.637-5.136-.955-7.895-.955h0ZM322.104,37.467c1.995-1.21,4.266-1.815,6.812-1.815,2.165,0,4.021.393,5.571,1.178,1.548.786,2.747,2.005,3.597,3.661l5.156-2.866c-1.316-2.461-3.141-4.297-5.475-5.507-2.335-1.21-5.137-1.815-8.404-1.815-3.821,0-7.238.859-10.25,2.578-3.015,1.719-5.37,4.074-7.068,7.067s-2.546,6.399-2.546,10.219c0,2.929.657,5.486,1.973,7.672,1.315,2.186,3.172,3.884,5.571,5.093,2.397,1.21,5.231,1.815,8.499,1.815,3.056,0,5.899-.615,8.532-1.846,2.631-1.231,4.711-2.928,6.239-5.093l-4.457-3.183c-1.188,1.571-2.664,2.759-4.425,3.565-1.762.806-3.64,1.21-5.634,1.21-3.227,0-5.72-.849-7.481-2.547-1.762-1.697-2.643-4.011-2.643-6.94,0-2.801.573-5.273,1.72-7.417,1.146-2.143,2.716-3.82,4.711-5.029h0ZM357.479,35.641l.978-5.018h-5.858l-6.684,33.743h6.111l3.375-16.872c.765-3.904,2.238-6.769,4.425-8.595,2.186-1.824,4.955-2.738,8.309-2.738h.827c.255,0,.509.022.764.064l1.146-5.921c-3.565,0-6.557.573-8.977,1.719-1.677.794-3.146,2.007-4.415,3.618h0ZM403.595,30.623h6.111l-6.684,33.743h-5.858l.842-4.12c-.703.672-1.456,1.287-2.274,1.828-2.696,1.783-5.911,2.674-9.646,2.674-2.844,0-5.39-.584-7.639-1.751-2.25-1.167-4.022-2.834-5.317-4.998s-1.941-4.775-1.941-7.831c0-2.886.477-5.538,1.432-7.958s2.292-4.52,4.011-6.303c1.719-1.783,3.745-3.162,6.079-4.138s4.86-1.464,7.577-1.464c2.928,0,5.412.509,7.449,1.528,2.038,1.018,3.608,2.514,4.712,4.488.01.018.017.039.027.058l1.119-5.756h0ZM398.915,52.492c1.125-2.144,1.688-4.594,1.688-7.354,0-2.97-.871-5.294-2.611-6.972-1.74-1.676-4.223-2.514-7.449-2.514-2.505,0-4.754.605-6.748,1.815-1.996,1.21-3.565,2.887-4.711,5.029-1.147,2.144-1.72,4.616-1.72,7.417,0,2.928.87,5.242,2.611,6.94,1.739,1.698,4.222,2.547,7.449,2.547,2.546,0,4.816-.615,6.812-1.846,1.995-1.231,3.555-2.918,4.679-5.061ZM429.825,23.237h-6.111l-1.48,7.386h-5.778l-.955,5.029h5.725l-3.624,18.081c-.425,2.251-.329,4.202.286,5.858.615,1.655,1.655,2.928,3.12,3.82,1.464.891,3.215,1.337,5.252,1.337,1.315,0,2.663-.149,4.043-.446,1.378-.296,2.642-.849,3.788-1.655l-1.274-4.648c-.679.51-1.443.903-2.292,1.178-.85.277-1.698.414-2.547.414-1.825,0-3.067-.541-3.724-1.624-.659-1.082-.839-2.536-.541-4.361l3.613-17.954h9.693l1.019-5.029h-9.7s1.486-7.386,1.486-7.386ZM452.426,37.467c1.995-1.21,4.266-1.815,6.812-1.815,2.165,0,4.021.393,5.571,1.178,1.548.786,2.747,2.005,3.597,3.661l5.156-2.866c-1.316-2.461-3.141-4.297-5.475-5.507-2.335-1.21-5.137-1.815-8.404-1.815-3.821,0-7.238.859-10.25,2.578-3.015,1.719-5.37,4.074-7.068,7.067s-2.546,6.399-2.546,10.219c0,2.929.657,5.486,1.973,7.672,1.315,2.186,3.172,3.884,5.571,5.093,2.397,1.21,5.231,1.815,8.499,1.815,3.056,0,5.899-.615,8.532-1.846,2.631-1.231,4.711-2.928,6.239-5.093l-4.457-3.183c-1.188,1.571-2.664,2.759-4.425,3.565-1.762.806-3.64,1.21-5.634,1.21-3.227,0-5.72-.849-7.481-2.547-1.762-1.697-2.643-4.011-2.643-6.94,0-2.801.573-5.273,1.72-7.417,1.146-2.143,2.716-3.82,4.711-5.029h0ZM511.35,37.275c-.786-2.269-2.176-4-4.17-5.188-1.996-1.188-4.479-1.783-7.449-1.783-3.056,0-5.826.594-8.308,1.783-1.323.633-2.519,1.465-3.595,2.484l3.499-17.446h-6.112l-9.422,47.24h6.111l3.565-17.827c.722-3.649,2.165-6.355,4.33-8.117,2.165-1.761,4.88-2.643,8.149-2.643,3.183,0,5.389.85,6.621,2.547,1.23,1.698,1.528,4.074.891,7.13l-3.757,18.909h6.112l3.756-18.909c.637-3.183.562-5.91-.223-8.181Z"/>
  <path d="M77.404,23.454c1.077-.827,1.862-1.881,2.356-3.162h-12.065c.493,1.281,1.277,2.335,2.352,3.162,1.075.827,2.301,1.241,3.677,1.241s2.603-.414,3.68-1.241ZM71.15,16.943c.473-.476.709-1.053.709-1.733s-.238-1.255-.713-1.728c-.476-.473-1.053-.709-1.733-.709s-1.255.238-1.728.713-.709,1.053-.709,1.732.238,1.256.713,1.729c.476.473,1.053.709,1.732.709s1.256-.238,1.729-.713ZM79.768,16.943c.473-.476.709-1.053.709-1.733s-.238-1.255-.713-1.728c-.476-.473-1.053-.709-1.732-.709s-1.256.238-1.729.713c-.473.476-.709,1.053-.709,1.732s.238,1.256.713,1.729c.476.473,1.053.709,1.733.709s1.255-.238,1.728-.713ZM66.024,7.918l5.049-6.625c.335-.448.733-.778,1.194-.988.461-.21.947-.316,1.46-.316s.999.105,1.46.316c.461.21.859.539,1.194.988l5.049,6.625,7.72,2.607c.738.237,1.313.655,1.725,1.254.413.599.619,1.261.619,1.986,0,.335-.049.668-.147,1-.098.332-.258.651-.482.956l-5.027,6.977.187,7.405c.031.983-.293,1.812-.972,2.486-.679.674-1.47,1.012-2.374,1.012-.026,0-.339-.041-.937-.122l-8.015-2.298-8.015,2.298c-.156.062-.316.098-.482.108s-.317.014-.456.014c-.912,0-1.706-.337-2.381-1.012-.675-.674-.997-1.503-.966-2.486l.187-7.451-4.999-6.93c-.223-.306-.384-.626-.482-.959-.098-.334-.147-.668-.147-1.001,0-.704.205-1.359.615-1.965.41-.606.983-1.035,1.719-1.288l7.702-2.589Z" fill="url(#linear-gradient1)"/>
</svg>