<svg xmlns="http://www.w3.org/2000/svg" width="24" height="24" viewBox="0 0 24 24" fill="currentColor">
  <path d="M19.866,7.528c-.151-.261-.363-.47-.634-.626l-6.372-3.668c-.271-.156-.558-.234-.861-.234s-.59.078-.861.234l-6.372,3.668c-.271.156-.482.365-.634.626-.151.261-.227.548-.227.861v7.222c0,.312.076.599.227.861.151.261.363.47.634.626l6.372,3.668c.271.156.558.234.861.234s.59-.078.861-.234l6.372-3.668c.271-.156.482-.365.634-.626.151-.261.227-.548.227-.861v-7.222c0-.312-.076-.599-.227-.861ZM9.247,13.538c.07.075.106.164.108.266s-.033.192-.108.266c-.075.075-.163.112-.265.112s-.19-.037-.265-.112l-1.753-1.753c-.091-.091-.136-.197-.136-.318s.045-.227.136-.318l1.753-1.753c.075-.075.163-.112.265-.112s.19.037.265.112c.075.075.112.164.112.266s-.037.192-.112.266l-1.538,1.538,1.538,1.538ZM13.468,8.566l-2.218,7.093c-.032.099-.094.172-.185.221-.091.048-.186.056-.284.024-.099-.032-.172-.095-.221-.187-.048-.093-.056-.188-.024-.287l2.213-7.088c.032-.099.094-.172.185-.221.091-.048.186-.056.284-.024.099.032.173.094.223.185.05.091.059.186.027.284ZM17.036,12.318l-1.753,1.753c-.075.075-.163.112-.265.112s-.19-.037-.265-.112c-.075-.075-.112-.164-.112-.266s.037-.192.112-.266l1.538-1.538-1.538-1.538c-.075-.075-.112-.164-.112-.266s.037-.192.112-.266c.075-.075.163-.112.265-.112s.19.037.265.112l1.753,1.753c.091.091.136.197.136.318s-.045.227-.136.318Z" fill="url(#linear-gradient)"/>
</svg>