<svg xmlns="http://www.w3.org/2000/svg" width="450px" height="300px" viewBox="0 0 450 300">
  <path fill="#0038A8" d="M0,0h450v300H0V0z" />
  <path fill="#FFFFFF" d="M0,0h450v200H0V0z" />
  <path fill="#D52B1E" d="M0,0h450v100H0V0z" />
  <path fill="#FFFFFF" stroke="#000000" stroke-width="1.6759" d="M263,150c0,21-17,38-38,38s-38-17-38-38s17-38,38-38S263,129,263,150z" />
  <path fill="#000000" d="M201.1,165.2l-0.3-0.5c0-0.1-0.1-0.2-0.3-0.3c-0.1-0.1-0.2-0.1-0.3-0.1s-0.2,0-0.3,0.1s-0.2,0.2-0.2,0.3s0,0.3,0.2,0.5l0.3,0.6L201.1,165.2z M204.4,165l-4.1,2.5l-1.3-2.1c-0.2-0.4-0.4-0.7-0.4-1c-0.1-0.3,0-0.5,0.1-0.7s0.3-0.4,0.6-0.6c0.2-0.1,0.4-0.2,0.7-0.2c0.2,0,0.4,0.1,0.6,0.2c0.1,0.1,0.3,0.2,0.4,0.3c0-0.2-0.1-0.3-0.1-0.4c0-0.1,0-0.2,0.1-0.3c0.1-0.2,0.1-0.3,0.1-0.3l0.8-1.3l0.9,1.4l-0.9,1.4c-0.1,0.2-0.2,0.3-0.2,0.4c0,0.1,0,0.3,0.1,0.4l0.1,0.1l1.7-1L204.4,165z M197.1,161.7l-1.3-3.8l1-0.3l0.8,2.4l0.7-0.2l-0.7-2.2l0.9-0.3l0.7,2.2l0.9-0.3l-0.8-2.4l1-0.4l1.3,3.8L197.1,161.7z M197.2,154l-0.1-0.4c0-0.3-0.1-0.5-0.2-0.6c-0.1-0.1-0.3-0.1-0.4-0.1c-0.1,0-0.3,0.1-0.4,0.2c-0.1,0.1-0.1,0.3-0.1,0.6v0.4L197.2,154z M195.3,155.7l-0.3-2.5c-0.1-0.5,0-0.9,0.2-1.2s0.6-0.5,1-0.5c0.5-0.1,0.9,0,1.2,0.3s0.5,0.7,0.6,1.3l0.1,0.8l1.8-0.2l0.2,1.5L195.3,155.7z M195.2,146.3l0.2-1.5l2.9,0.3c0.3,0,0.5,0.1,0.8,0.2c0.2,0.1,0.5,0.3,0.6,0.5c0.2,0.2,0.3,0.4,0.3,0.6c0.1,0.3,0.1,0.6,0,1.1c0,0.3-0.1,0.5-0.1,0.8c-0.1,0.3-0.2,0.5-0.3,0.7s-0.3,0.3-0.5,0.5c-0.2,0.1-0.4,0.2-0.6,0.2c-0.3,0.1-0.6,0.1-0.8,0.1l-2.8-0.3l0.2-1.5l2.9,0.3c0.3,0,0.5,0,0.6-0.2c0.2-0.1,0.3-0.3,0.3-0.6s0-0.5-0.2-0.6c-0.1-0.2-0.3-0.3-0.6-0.3L195.2,146.3z M200,142.3l0.3-0.7c0.1-0.2,0.1-0.4,0-0.6c-0.1-0.1-0.2-0.2-0.3-0.3c-0.1,0-0.3,0-0.4,0c-0.1,0.1-0.2,0.2-0.3,0.5L199,142L200,142.3z M198.2,141.7l0.2-0.6c0.1-0.2,0.1-0.4,0-0.5c0-0.1-0.1-0.2-0.3-0.2c-0.1,0-0.2,0-0.4,0c-0.1,0.1-0.2,0.2-0.3,0.4l-0.2,0.6L198.2,141.7z M195.9,142.4l0.9-2.6c0.2-0.4,0.4-0.7,0.7-0.9s0.6-0.2,0.9-0.1c0.3,0.1,0.5,0.3,0.6,0.5s0.1,0.4,0.1,0.6c0.2-0.3,0.4-0.5,0.7-0.6c0.2-0.1,0.5-0.1,0.8,0c0.2,0.1,0.4,0.2,0.6,0.4c0.1,0.2,0.2,0.4,0.3,0.6c0,0.1,0,0.3,0,0.6c-0.1,0.3-0.1,0.6-0.2,0.7l-0.8,2.4L195.9,142.4z M198.4,136.3l0.8-1.3l3.1,1.9l1.2-2l1,0.6l-2,3.2L198.4,136.3z M201.5,131.6l1-1.1l3.7,3.1l-1,1.1L201.5,131.6z M208.2,129l1.2-0.5c0.2,0.3,0.3,0.7,0.3,1s0,0.6-0.2,0.9c-0.1,0.3-0.4,0.5-0.7,0.8c-0.4,0.3-0.8,0.5-1.1,0.6c-0.4,0.1-0.7,0.1-1.2-0.1c-0.4-0.1-0.8-0.4-1.2-0.9c-0.5-0.6-0.7-1.2-0.7-1.8s0.4-1.1,1-1.6c0.5-0.4,0.9-0.6,1.3-0.6c0.4,0,0.9,0.1,1.3,0.4l-0.8,1.1c-0.1-0.1-0.2-0.1-0.3-0.2c-0.1,0-0.3,0-0.4,0c-0.1,0-0.3,0.1-0.4,0.2c-0.3,0.2-0.4,0.5-0.3,0.8c0,0.2,0.2,0.5,0.4,0.9c0.3,0.4,0.6,0.6,0.9,0.7c0.3,0.1,0.5,0,0.7-0.2s0.3-0.4,0.3-0.6C208.4,129.5,208.3,129.2,208.2,129 M213.1,126.1l-1.3-1.3l0.3,1.8L213.1,126.1z M213.8,126.9l-1.5,0.8l0.2,0.8l-1.4,0.7l-0.6-5.1l1.4-0.7l3.8,3.5l-1.4,0.7L213.8,126.9z M219.7,121.9l0.4,2.6l0.4-0.1c0.3,0,0.5-0.1,0.6-0.2s0.2-0.2,0.2-0.4c0.1-0.2,0.1-0.5,0-0.8c-0.1-0.5-0.2-0.8-0.4-1s-0.5-0.2-0.9-0.2L219.7,121.9z M218,121l2.2-0.3c0.4-0.1,0.8-0.1,1.1,0s0.5,0.2,0.7,0.4c0.2,0.2,0.4,0.4,0.5,0.7c0.1,0.3,0.2,0.6,0.2,0.9c0.1,0.5,0.1,0.9,0,1.2c-0.1,0.3-0.2,0.6-0.4,0.8c-0.2,0.2-0.4,0.4-0.6,0.5c-0.3,0.1-0.6,0.2-0.9,0.3l-2.2,0.3L218,121z M224.6,120.1l4,0.3l-0.1,1l-2.5-0.2l-0.1,0.8l2.3,0.2l-0.1,1l-2.3-0.2l-0.1,0.9l2.6,0.2l-0.1,1.1l-4-0.3L224.6,120.1z M230.7,120.6l1.4,0.4l-1,3.5l2.2,0.6l-0.3,1.1l-3.7-1L230.7,120.6z M238.8,126l0.3,0.2c0.2,0.2,0.4,0.2,0.6,0.2c0.1,0,0.3-0.1,0.4-0.2c0.1-0.1,0.1-0.3,0.1-0.4s-0.2-0.3-0.4-0.4l-0.4-0.2L238.8,126z M238.7,123.4l2.1,1.4c0.4,0.3,0.7,0.6,0.8,1s0,0.7-0.3,1.1s-0.6,0.6-1,0.7s-0.8-0.1-1.3-0.4l-0.7-0.5l-1,1.5l-1.2-0.8L238.7,123.4z M243.9,130.8l0.8-1.6l-1.6,0.9L243.9,130.8z M243.4,131.7l-1.2-1.2l-0.7,0.4l-1.1-1.1l2.2-1l2.4-1.1l1.1,1.1l-2.1,4.7l-1.1-1.1L243.4,131.7z M247.9,133.8l0.3,0.5c0,0.1,0.1,0.2,0.3,0.3c0.1,0.1,0.2,0.1,0.3,0.1s0.2,0,0.3-0.1s0.2-0.2,0.2-0.3s0-0.3-0.2-0.5l-0.3-0.5L247.9,133.8z M244.6,134.1l4.1-2.6l1.3,2.1c0.2,0.4,0.4,0.7,0.5,0.9s0,0.5-0.1,0.7s-0.3,0.4-0.5,0.6c-0.2,0.1-0.4,0.2-0.7,0.2c-0.2,0-0.4,0-0.7-0.1c-0.2-0.1-0.3-0.2-0.4-0.3c0,0.2,0.1,0.3,0.1,0.4c0,0.1,0,0.2-0.1,0.3c0,0.1-0.1,0.2-0.1,0.3l-0.8,1.4l-0.9-1.4l0.8-1.5c0.1-0.2,0.2-0.3,0.2-0.4c0-0.1,0-0.3-0.1-0.4l-0.1-0.1l-1.6,1L244.6,134.1z M250.3,140.5l1.4-1.1l-1.8,0.1L250.3,140.5z M249.4,141.2l-0.6-1.6l-0.8,0.1l-0.5-1.4l5.1,0.1l0.6,1.5l-3.9,3.3l-0.5-1.5L249.4,141.2z M251.7,146.3l1-0.1l0.3,2.3l-2,0.2c-0.3-0.4-0.6-0.8-0.7-1.1c-0.2-0.3-0.3-0.7-0.3-1.2c-0.1-0.6,0-1,0.1-1.4s0.4-0.7,0.8-0.9c0.4-0.2,0.8-0.4,1.3-0.5s1,0,1.4,0.2s0.7,0.4,1,0.8c0.2,0.3,0.3,0.7,0.4,1.3c0.1,0.5,0.1,0.9,0,1.2s-0.2,0.5-0.4,0.7s-0.4,0.4-0.7,0.5l-0.4-1.4c0.2-0.1,0.3-0.2,0.4-0.4c0.1-0.1,0.1-0.3,0.1-0.5c-0.1-0.3-0.2-0.6-0.4-0.7c-0.3-0.2-0.6-0.2-1.1-0.2c-0.5,0.1-0.9,0.2-1.1,0.4c-0.2,0.2-0.3,0.5-0.2,0.9c0,0.2,0.1,0.3,0.1,0.5c0.1,0.1,0.2,0.3,0.3,0.5l0.5-0.1L251.7,146.3z M254.8,153.5l-0.2,1.5l-2.8-0.3c-0.3,0-0.5-0.1-0.8-0.2c-0.2-0.1-0.4-0.3-0.6-0.5c-0.2-0.2-0.3-0.4-0.3-0.6c-0.1-0.3-0.1-0.7,0-1.1c0-0.2,0.1-0.5,0.1-0.8c0.1-0.3,0.2-0.5,0.3-0.7s0.3-0.3,0.5-0.5c0.2-0.1,0.4-0.2,0.6-0.2c0.3-0.1,0.6-0.1,0.8,0l2.8,0.3l-0.2,1.5l-2.9-0.3c-0.3,0-0.5,0-0.6,0.1c-0.2,0.1-0.3,0.3-0.3,0.6s0,0.5,0.1,0.6c0.1,0.2,0.3,0.3,0.6,0.3L254.8,153.5z M250.4,159l1.8,0.1l-1.5-1.1L250.4,159z M249.3,158.9l0.5-1.6l-0.7-0.5l0.5-1.4l4,3.3l-0.5,1.5l-5.1,0.1l0.5-1.5L249.3,158.9z M251.9,163.4l-0.8,1.4h-1.9l0.9,1.7l-0.8,1.4l-1.5-3l-1.7-1l0.8-1.3l1.7,1L251.9,163.4z" />
  <path fill="none" stroke="#000000" stroke-width="0.6705" d="M256.8,150c0,17.6-14.3,31.8-31.8,31.8c-17.6,0-31.8-14.3-31.8-31.8c0-17.6,14.2-31.8,31.8-31.8S256.8,132.4,256.8,150L256.8,150z M248.7,149.9c0,13.1-10.6,23.7-23.7,23.7c-13.1,0-23.7-10.6-23.7-23.7c0-13.1,10.6-23.7,23.7-23.7C238.1,126.2,248.7,136.8,248.7,149.9L248.7,149.9z" />
  <path fill="#FEDF00" stroke="#000000" stroke-width="0.2736" d="M225,141.4l2,5.7l6,0.1l-4.8,3.6l1.7,5.8l-5-3.4l-5,3.4l1.7-5.8l-4.8-3.6l6-0.1L225,141.4z" />
  <path fill="#009B3A" stroke="#000000" stroke-width="0.343" d="M242.4,152.1c-0.8,0-1.2,1.4-1.2,1.4s-0.1,0.3-0.5,0.6s-0.2,0.7-0.2,1.4s-0.5,1.9-0.5,1.9l-0.2,0.4c0,0,0,0.3,0.3-0.3c0.5-1,1-0.7,1.2-1.7c0.1-0.8,1.4-1,1.4-1l-0.4-0.1c-1.3-0.6,0.1-2.1,0.3-2.4C243,152.1,243.2,152.1,242.4,152.1 M240.5,163.5c0,0-1.2-0.1-1.3-0.1s-0.8-0.1-1.7-0.1s-1.3,0.3-1.6,0.6s-1,1-1,1h0.4c1-0.7,1.7-0.5,2-0.5s0.7,0,1.7-0.3s0.9,0,0.8,0c-0.5,0.2-1,0.3-1.5,0.3c-0.7,0-1.4,0.2-1.6,0.2c-0.3,0-2.4,0.6-2.4,0.6s2.3,0.1,2.5,0.2c0.2,0.1,0.6,0.1,0.9-0.1c0.9-0.4,1.3-0.5,1.6-0.6c0.4-0.1,0.8-0.3,0.8-0.3s0.2-0.1,0.4-0.5C240.8,163.4,240.5,163.5,240.5,163.5 M241.6,157.2c0.1-0.4,0.5-1.2,0.9-1.5c0.2-0.2,0.6-0.3,0.9-0.4c0.1,0,0.7-0.1-0.1,0.2c-0.3,0.1-0.8,0.3-1,0.6c-0.3,0.8-0.5,1.5-1.1,2c-0.4,0.4-0.6,0.9-0.6,0.9l-0.4,0.1C240.9,158.7,241.3,157.8,241.6,157.2L241.6,157.2z M245.3,156.8c-0.4,0.1-0.6,0.3-0.6,0.3c-1,0.3-1.4,0.9-1.8,1.4c-0.2,0.3-0.5,0.5-1.6,0.9c-0.9,0.4-1.7,1-1.7,1s-0.3,0.1-0.2,0.2c0,0.1,0.3,0,0.3,0s1.9-0.3,2.8-0.8c0.5-0.3,0.8-0.6,1.3-1.3c0.2-0.3,0.5-1,0.5-0.6c0,1.1-1.6,2.1-2.4,2.4c-0.4,0.2-0.9,0.2-1.6,0.3c-0.7,0.1-1.1,0.1-1-0.1c0.1-0.2,0.1-0.3,0.3-0.5c0.3-0.4,1.1-0.5,1.7-0.8c0.7-0.3,1.3-0.7,1.6-1.1c0.3-0.4,0.4-0.5,0.5-0.9c0.2-0.8,0.3-1.3,0.5-1.6c0.8-1,0.9-1.3,1-1.8c0-0.1-0.4,0.2-0.7,0.4c-0.4,0.3-0.6,0.3-1.5,0.5s-0.9,0.8-1,1.1c0,0.1-0.4,0.6-0.6,0.7c-0.2,0.1-0.6,0.7-0.8,1.1c-0.1,0.3-0.3,0.5-0.5,0.4c-0.2,0,0.3-2,0.5-2.3c0.1-0.3,0.1-1,0.1-1.2s0-0.7-0.3-0.8c-0.4-0.1-0.4-0.5-0.4-0.5c-0.9,0.7-0.4,2-0.3,2.8c0.1,0.8-0.2,2.2-0.2,2.2c0.8,0.4,0.2,1.4-0.1,1.7s-0.8,0.4-1,0.7s-2,2.7-2,2.7l2.1-0.6c0,0,0.2,0-0.1-0.2s0.1-1.1,0.4-1.4c0.5-0.4,1.2-0.1,1.2-0.1s1,0.2,2.2-0.3c1-0.4,1.5-1.1,1.9-1.5c0.3-0.3,0.7-1.2,1-1.7C245.2,157.3,245.5,156.7,245.3,156.8 M235.9,166.2c-0.2,0.2-1,0.3-1.2,0.3s-1.1,0-1.4,0.1c-0.2,0-0.6,0.1-0.8,0.1C230.8,166.5,235.3,166.5,235.9,166.2 M231.4,164.9c0.1-0.2,0.7-1.5,0.9-1.8c0.2-0.4,0.7-1.3,1-1.7c0.1-0.2,0.7-0.8,0.8-0.6c-1,0.9-1.8,2.3-2.2,3.3C231.8,164.3,231.5,164.8,231.4,164.9c-0.1,0.2,0,0.5-0.2,0.5s-0.1,0.1-0.1,0.1S231.2,165.1,231.4,164.9L231.4,164.9z M237.9,165.9c0,0-0.8-0.1-1.3-0.3s-1.3-0.3-2-0.3s-1.3,0.2-1.9,0.4c-0.6,0.2-1.3,0.2-1.3,0.2s-0.4,0.1-0.2,0s0.8-0.6,0.8-0.6l0.4-0.6c0.1,0,2.2-2.8,2-3.5c0.3-0.5,0.7-1.5,0.6-1.7c-0.1-0.1-1.6,0.5-2,0.8s-0.7,1.1-0.8,1.5s-0.7,0.7-0.7,0.7c-0.5,0.3-0.8,1.5-1,2.4s-2.4,1.4-2.4,1.4s-0.6,0.2-0.1,0.4c0.1,0,0.3,0.4,0.5,0.4c0.3,0,1.6-0.6,1.8-0.5c0.5,0.1,0.9,0.2,1.4,0.4s1,0.3,1.3,0.1c0.4-0.1,0.9-0.1,1.3,0c0.4,0.1,0.8,0,1.1,0c0.3-0.1,1-0.5,1-0.5s0.8-0.3,1.2-0.5C238.2,166,237.9,165.9,237.9,165.9 M235,162.2c1-0.8,1.4-2.1,2.2-2.7c0.1,0.1,0.1,0.2,0,0.5s-0.3,0.4-0.4,0.5c-0.2,0.2-0.6,0.6-0.8,0.8c-0.1,0.2-0.3,0.5-0.7,0.8c-0.4,0.2-0.3,0.6-0.3,0.8s-0.7,0.6-1,1.2c-0.1,0.6-0.1,0.3-0.4,0.6C234.2,163.7,234.6,163.1,235,162.2 M232.9,164.9c-0.1,0.1-1.9,1.2-1.4,1c0.6-0.2,2.3-0.8,2.8-1c0.6-0.3,1-0.8,1.4-1.3c0.5-0.5,1.9-1.8,2.1-2.4c0.2-0.5,0.5-1.3-0.5-3c0,0-0.2,0.3-0.5,0.6c-0.4,0.3-0.9,0.7-0.9,0.7l-0.6,0.6C235.3,160.3,233.2,164.3,232.9,164.9 M239.8,153c0,0,0-0.1-0.1-0.3c-0.3-0.3-0.7-0.8-0.7-0.8c-0.6,0.3-0.8,1-0.8,1.2c0,0.3,0.1,0.9,0,1.5c0,0.2-0.1,0.4-0.4,1.2c-0.3,0.7,0,1.4,0.1,1.6c0.1,0.2,0.3,1,0.3,1s0.2-0.1,0.3-0.2c0.1,0,0.4,0,0.4,0s0.4-0.6,0.4-1c0-0.3,0-0.7-0.2-1.4c-0.2-1-0.2-1.3,0-1.8C239.2,153.4,239.8,153,239.8,153 M240.3,150.8c0.3,0.5,1,1.9,1.2,1.8c0.1-0.1,0-0.3,0-0.3s0-0.4-0.1-0.8c-0.1-0.5-0.1-1-0.3-1.4s-0.8-0.8-1-1.4c-0.2-0.6,0-1.7,0-1.8s0.1,0,0-0.2c-0.1-0.1-1-0.6-1-0.6s0.1,0.4,0,1c0,0.2-0.1,0.3-0.1,0.6s0.1,0.6,0.5,1.4C239.8,149.9,240,150.4,240.3,150.8 M245.9,144.3c0,0-0.3,0.4-0.4,0.5c-0.1,0.1-1.6,1.4-1.7,1.5c-0.1,0.1-0.9,0.3-1.6,2.3c-0.7,1.9-0.4,3.8-0.4,3.8h0.4l0.1-0.2c0,0,0.1-0.6,0.2-1.1c0.1-0.5,0.6-1.2,1-1.7c0.3-0.5,0.6-1.2,0.6-1.2c0.4-0.8,0.6-1.6,1-2.1c0,0.7-2.6,4.9-2.9,6.3l0.8-0.1c0.6-0.6,1.4-1.7,2-2.5c0.5-0.8,0.8-2,0.9-2.5C245.9,146.7,245.9,144.3,245.9,144.3 M240.7,144.7c-0.4-0.4-0.7-0.5-0.7-0.5s0.1,0.7,0.1,1.1c0,0.4,0,1.2,0,1.6c0,0.4-0.2,1,0.1,1.7c0.3,0.6,0.6,0.9,0.8,1.3c0.2,0.4,0.6,2.4,0.6,2.4s-0.1-2.7,0-3.4s0.1-1.9,0-2.5C241.4,145.8,241.1,145.1,240.7,144.7 M242.5,142.1c0.1-0.2,0.4-0.7,0.5-1.4c0-0.3,0.1-0.8,0.1-1.1c0-0.2-0.1-0.6,0-0.7c0.1,0,0,0.1,0.1,0.5c0,0.1-0.1,0.5-0.1,0.9c0,0.3,0,0.6-0.2,1.1c-0.1,0.4,0,0.9-0.1,1s-0.3,0.6-0.3,0.6s-0.1,0.4-0.1,0.8c0,0.4,0,0.8,0,0.8s0.2-0.3,0.6-0.4c0,0,0.1-0.6,0.1-0.8s0.2-1.5,0.4-1.9c0.2-0.6,0.3-1.6,0-2.7c-0.1-0.3-0.1-1.3-0.1-1.3s-0.4,0.3-0.6,1.4c-0.1,0.3,0.1,1.2,0,2.2c0,0.5-0.5,2.7-0.6,2.8 M241.1,136.5c0.2,0,0.2,0.2,0.2,0.4s0,0.5,0,0.6s0.1,0.5,0.1,0.8c0.1,0.2,0.2,0.3,0.1,0.8c0,0.3-0.4,0.7-0.2,1.2c0.1,0.3,0.3,0.6,0.4,0.8c0.1,0.2,0,0.6,0.1,0.9c0,0.3,0.2,0.5,0.2,0.5s-0.2,0.4-0.3-0.1c-0.1-0.6-0.1-0.9-0.2-1.1c-0.2-0.4-0.4-1.2-0.1-1.8c0-0.1,0.1-0.3,0.1-0.6s-0.2-0.7-0.2-1c0-0.2,0-0.7,0-0.9 M240.1,139.5c0,0.3,0.2,0.5,0.5,1.2c0.1,0.2,0.4,0.8,0.4,1s0.1,0.4,0.1,0.5s0,0.5,0,0.5v0.2c0,0-1-0.6-1.5-0.9c-0.5-0.3-1-0.8-1.3-1c-0.4-0.3-1.3-1.4-1.3-2.2l-0.4-0.4c0,0-0.3,1.9,1.2,3.1c0.4,0.3,0.9,0.7,1.9,1.2s0.9,0.9,1.3,1.7c0.4,0.9,0.7,1.4,0.7,1.6c0,0.3-0.1,4-0.1,4v0.3c0,0,0.9-3.5,1.3-3.9c0,0-0.9-0.1-0.8-1.5l-0.2-0.9c0,0-0.2-1.1,0.2-1.7c0,0,0.4-1.2,0.3-2.3c-0.1-0.6-0.1-0.8-0.2-1.4c-0.1-0.9-0.5-2.3-0.5-2.5c-0.1-0.5-0.2-0.5-0.3-0.9c0-0.1-0.1-0.6-0.3-0.6c-0.1,0-0.2,0.6-0.2,0.6s-0.2,0.6-0.2,0.8c-0.1,0.5-0.4,0.9-0.5,2c0,0.2,0,0.8-0.1,0.8C240.1,139,240.1,139.3,240.1,139.5 M240.9,144.2c0,0-0.2-0.3-0.3-0.5c-0.3-0.4-0.7-0.7-1.9-1.3s-1.5-1.6-2.1-2c-0.3-0.2-0.8-0.3-0.8-0.3s0.5,0.7,0.6,1c0.2,0.3,0.2,0.5,0.8,1.1s1.4,0.8,1.9,1C239.9,143.5,240.9,144.2,240.9,144.2 M237.2,138.6c0,0.1,0.3,1.1,1,1.9c1,1.2,2.9,2.1,2.9,2.1c-0.2-0.8-0.5-1.7-0.7-2.1C239.4,139.3,237.2,138.6,237.2,138.6S237.1,138.5,237.2,138.6 M239.9,139.2c0.5-1.1-1-2.2-1.4-2.9c0.2-0.1,0.3,0.2,0.5,0.4c0.2,0.3,0.9,1.3,0.9,1.3l0.2-1l-1.8-1.6c0,0.2-0.6,0.4-0.6,0.4C237.5,137.3,239.9,139.2,239.9,139.2 M236.7,136.6c-0.4,0.2-0.6,0.2-0.6,0.2l0.2,0.6l0.1,0.2c0,0,0.6,0.8,0.9,0.9c0.1,0.1,0.7,0.1,1.2,0.4c0.6,0.3,1.7,1.2,1.7,1.2s-1.8-2-2.4-3.5l-0.2-0.9H237C237,135.8,237.2,136.4,236.7,136.6 M230.1,135.4c0.3,0.3,0.6,0.5,1,0.7s1.5,0.9,2.4,1.1c0.2,0,1.3,0.2,1.3,0.2c0-0.5,0.5-0.5,0.5-0.5l-1.5-0.2c-1.2-0.1-2.1-0.6-2.8-1.4c1,0.6,2.3,1.5,3.4,1.4c4.6-0.4-1.4-0.6-1.9-0.9c-0.5-0.3-1-0.9-1-0.9l-1.3-0.1C230.1,134.8,229.4,134.8,230.1,135.4 M243.8,144.1c0.3,0.1,0.4,1,0.4,1s0-0.5,0-0.8s-0.1-1.2-0.1-1.2l-0.3,0.2c-0.3,0.3-0.5,0.7-0.5,0.7S243.5,144,243.8,144.1 M237.6,135.8c0,0,0,0,0.1,0c0.2-0.1,0.4-0.6,0.4-0.6c0.1-0.6-0.4-0.8-0.4-0.8c-0.8-0.2-0.8,0.5-0.8,0.5C236.7,135.8,237.4,135.8,237.6,135.8 M234.1,132.7c0,0.3,0.5,0.7,0.5,0.8c0.1,0.1,0.6,0.6,0.8,0.9c0.2,0.3,0.8,1.4,0.8,1.4s0.1,0,0.1-0.1c0.1-0.2-0.4-1.5-0.5-1.6c-0.2-0.4-0.5-0.7-0.8-1.1c-0.1,0-0.3-0.4-0.6-0.7c0.5,0.7,1.9,2.7,2.3,3.5c0,0,0-0.9-0.1-1.4c-0.2-1.5-0.6-1.9-0.7-2.1c-0.2-0.4-0.8-0.8-1.2-0.9c-0.4-0.1-0.9-0.3-1.4-0.5s-0.1,0.3,0.1,0.7C233.9,132,234.1,132.4,234.1,132.7 M232.2,135.1c0.5,0.4,0.7,0.7,1.8,0.9s1.1,0.1,1.1,0.1s0.5-0.3,0.3-0.5c-1.6-0.7-3-1.5-3.8-2.4c0,0,0.1-0.1,0.7,0.4c0.3,0.3,0.5,0.5,0.7,0.6c0.6,0.4,0.8,0.5,1.4,0.8c0.3,0.2,1.1,0.3,1.1,0.3s0.1-0.2,0.2-0.3c0.1,0-0.1-0.4-0.7-0.9c-0.4-0.3-0.7-0.6-1-1c0,0-0.8-0.2-1.6-0.3c-0.6-0.1-1.8-1-1.8-0.8c0,0.3,0.2,1,0.5,1.5C231.4,134.2,231.7,134.7,232.2,135.1" />
  <path fill="#009B3A" stroke="#000000" stroke-width="0.382" d="M243.4,144.1c-0.9,0-0.9,1-0.9,1s0-0.3,0,0s0.2,1.2,0.8,1.2c0.7,0.1,1-0.8,1-1.2C244.3,145,244.2,144.1,243.4,144.1 M239.3,162.5c0.2-0.1,0.2-0.1,0.5-0.4c0.3-0.3,0-0.9-0.4-0.9c-0.2,0-0.5,0-0.9,0.6s0.2,0.8,0.4,0.8C239,162.7,239.1,162.6,239.3,162.5 M238.1,158.8c-0.3,0.5-0.4,1-0.2,1.2c0,0,0.2,0.2,0.4,0.2s0.6-0.2,0.9-0.6c0.3-0.4,0.5-0.8-0.1-1.1C238.7,158.2,238.3,158.4,238.1,158.8 M240.6,154c0,0,0.3-0.1,0.5-0.4c0.2-0.4,0.2-0.8,0.2-0.8c-0.5-1-1.2-0.2-1.2-0.2C239.5,153.9,240.6,154,240.6,154 M242.2,153.8c-0.4,0.8,0.7,0.8,0.9,0.7c0.1-0.1,0.3-0.3,0.3-0.3c0.4-0.6,0-1-0.2-1C243,153,242.6,153,242.2,153.8 M235.5,138c0.3,0,0.5-0.1,0.6-0.4c0.1-0.4-0.1-0.6-0.5-0.7c-0.2-0.1-0.7-0.1-0.8,0.4c-0.2,0.4,0.5,0.7,0.5,0.7S235.3,138,235.5,138 M236,135.3c-0.4,0-0.5,0.3-0.4,0.9c0.1,0.6,1.1,0.3,1.1,0.3l0.2-0.1c0,0,0.1-0.1,0.1-0.6C236.8,135.4,236.4,135.3,236,135.3" />
  <path fill="#009B3A" stroke="#000000" stroke-width="0.2736" d="M223.5,166.8c-0.5,0.1-3.9,1.4-3.9,1.4l-1,0.4c1.3-0.3,2.3,0.4,2.3,0.4l3.8-1.8c0,0,0-0.1-0.1-0.1C224.6,167,223.9,166.6,223.5,166.8" />
  <path fill="#009B3A" stroke="#000000" stroke-width="0.35" d="M218.5,168.7c0,0-0.1,0.1,0,0.1c0.2,0.1,0.1,0.1,1,0.3c0.9,0.1,1.4-0.1,1.6-0.2C221.3,168.7,218.9,168.3,218.5,168.7 M230,169.1c0,0-0.4-0.1-0.1-0.4c0.2-0.3,0.9-0.4,1-0.4s0.5,0,0.8,0.1s0.7,0.3,0.5,0.5c-0.1,0.2-0.5,0.4-1,0.4c-0.4,0-0.7,0-0.8-0.1C230.1,169.2,230,169.1,230,169.1" />
  <path fill="#009B3A" stroke="#000000" stroke-width="0.38" d="M213,156.3l-0.2-1.1c0,0-0.2-2.9-0.5-3.5c-0.1-0.1,0-0.4-0.2-0.4c-0.4,0-0.4,0.9-0.4,1.8c-0.7,4.3,2.8,7.6,2.8,7.6L213,156.3z" />
  <path fill="#009B3A" stroke="#000000" stroke-width="0.2736" d="M232,168.5c0,0-3-1.6-3.2-1.6c-0.1,0-1.4-0.7-2-0.9c-0.4-0.1-1-0.2-1.2-0.2c-0.5,0-1.3,0.3-1.3,0.3l0.8,0.3c0,0,0.7,0.3,1.1,0.5c0.5,0.3,0.5,0.6,0.5,0.6l2.7,1.2l0.6,0.4C229.9,169.1,230.4,168.4,232,168.5 M226.3,167.1c0,0-1.2-0.5-2.3-1.1c-1.5-0.7-3.3-1.7-4.5-3.6c-1.5-2.3-2.9-3.5-3.2-3.7s-0.4-0.3-0.5-0.2s0,0.3,0.1,0.4c0.3,0.5,1.1,1.5,1.4,2c0.5,0.9,1.5,2,1.5,2.6c0,0.1-0.3-0.1-0.3-0.1s-2.3-0.8-3.3-3.6c-0.7-2.1-0.4-2.7-0.6-3.7c-0.3-1.8-0.3-2-1.2-4c0-0.1-0.6-0.9-0.6-0.7c-0.1,0.2,0.1,1.2,0.1,1.2l0.1,1.1c0,0-0.1,2.3-0.1,2.5c0,0.1-0.6,1.6,1.9,4.1c0,0,0,0.4-0.3,0c-0.2-0.3-2-1.6-2.6-3.9c-0.6-2.3-0.6-4.5-0.2-5.5c0.4-0.9,1.2-2.9,0.8-4.7c0-0.2-0.1-0.7-0.2-0.6c-0.1,0.1-0.3,1-0.4,1.3c-0.2,0.4-0.5,0.9-0.6,1.2c-0.2,0.5-1,1.3-0.9,2.8c0.2,1.7,0.3,1.9,0.5,2.5c0.1,0.2,0.2,0.8,0.1,0.8c-0.1,0.1-0.5-0.7-0.5-0.7s-1.6-3.1-0.6-5.6s3.5-4.9,3.5-4.9s2-1.7,2.4-2.1c0.2-0.1,0.1-0.3,0.1-0.2c-0.5,0.1-4.4,0.9-5.7,5.5c0,0-0.1,0.2-0.2,0.1c-0.1-0.1,0-0.3,0-0.3s0.9-3.3,3.2-4.8c2.6-1.6,2.3-1.4,3.2-1.9c0.5-0.3,1-0.8,1.6-1.8c0.1-0.1,0.3-0.7,0.3-0.8s-0.1,0-0.2,0.2c0,0-0.7,1.1-1.8,1.5s-2-0.2-3.1,1.1c-1.1,1.2-2,3-2,3s-0.3,0.4-0.4,0.4c-0.1,0,0.1-0.5,0.1-0.5s1.5-3.2,2.7-3.8s2.3-1.3,3-1.8c0.8-0.6,2.3-2.2,2.8-2.8c0.1-0.1,0.9-0.9,1-1.1c0.1-0.1,0.3-0.3,0.3-0.4c-0.1-0.1-0.8,0.3-0.8,0.3s-4,1.1-6.4,4.8c-0.1,0.2-0.4,0.5-0.5,0.7c-0.3,0.3-0.4,0.7-0.4,0.7c-0.2-0.1,1.4-2.1,1.4-2.1l0.3-1.3c0,0,0.5-1.9,1.4-3.2c0.1-0.1,0.7-0.7,0.8-0.8c0.2-0.2-0.4,0.2-0.3,0.1c0,0-3.7,2.6-3.7,6c0,0.6-0.4,1.1-0.9,1.9c-0.6,0.9-0.8,1.4-1.1,2.7c-0.1,0.5-0.2,1.1-0.3,1.6c0,0,0,0.5-0.1,0.4c-0.2,0-0.1-0.4-0.1-0.4s0.4-2.5,0.6-3.2c0.3-0.7,0.4-1.2,0.4-1.2s-0.2-1.9,0.3-2.9c0.4-0.9,1.2-2.1,1.4-2.4c0.1-0.1,0.5-1,0.6-1.9c0-0.1-0.1,0-0.3,0.4c-0.4,0.9-0.7,1.2-1.4,2c0,0-1.7,1.2-2.3,4.9c0,0,0,1.4-0.2,3.5c-0.2,1.6,0,3.1,0.2,3.9c0.1,0.5,0.3,0.5,0.2,0.6c-0.1,0,0.1,0-0.1-0.4c-0.2-0.5-0.4-1.3-0.4-2.3c0-1.9,0.2-3.5,0.2-3.5s0.1-3.1-1.2-4.5c-0.1-0.1,0.2,0.6,0.4,1.3c0.2,0.9-0.1,2.1-0.2,2.5c-0.1,0.5-0.9,2.5-0.6,4.4c0,0,0.7,3.3,1.7,4.8c0,0,0.6,0.7,0.1,0c-0.5-0.6-1.6-3.2-1.6-3.4c-0.1-0.2-0.8-1.8-1.5-2.4c-0.4-0.3-1.4-0.9-1.4-0.9s-0.5-0.4-0.1,0.1c0.3,0.4,0.8,1.2,1,1.6c0.4,0.7,0.8,1.4,1.2,2.2c0.3,0.7,1.1,2.9,1.1,2.9l0.5,1.4c0,0,0.8,0.5,1.3,1c0.4,0.4,1.1,1.4,1.8,3c0.3,0.7,0.9,1.4,0.9,1.4s-0.1,0.2-0.6-0.7s-1-2.6-2.2-3.9c-0.9-1-3.4-2-3.4-2s1.6,2.8,2,3.3c0.7,0.8,1.7,1.9,1.9,2.2c0.3,0.3,1.8,2.2,2,2.5c0.4,0.5,0.6,0.7,0.8,0.9c0.4,0.4,1.6,1.2,1.7,1.3c0,0.1,0,0-0.1-0.1c-0.5-0.3-1.1-0.8-1.8-1.2c-0.6-0.4-3.1-1.5-4.8-3.8c-0.4-0.7-0.6-1-0.7-0.9c-0.2,0.1,1.1,4.5,3.9,5.9c0,0,3,1.3,3.7,1.7c0.4,0.2,1.1,0.5,1.5,0.8c0.2,0.2-0.2,0.2-0.2,0.1c-1.6-0.1-3.9-0.3-5.3-1.2c0,0-0.6-0.4-0.1,0.2c0.4,0.5,1.1,1.6,2.6,2.3c1.5,0.6,3.6,1,4.3,1.1c0.8,0,3.5,0.1,4,0.2c0.5,0.2,1.4,0.7,1.9,0.9c0.4,0.1,1.8,0.7,1.8,0.7s0.4,0.2,0.6,0.3c0.2,0.1,1.3,0.1,1.3-0.1C226.6,167.3,226.3,167.1,226.3,167.1" />
</svg>
