<svg xmlns="http://www.w3.org/2000/svg" width="450px" height="300px" viewBox="0 0 450 300">
  <path fill="#FF9933" d="M0,0h450v300H0V0z" />
  <path fill="#FFFFFF" d="M0,100h450v100H0V100z" />
  <path fill="#128807" d="M0,200h450v100H0V200z" />
  <path fill="#000088" d="M225,110c-22.091,0-40,17.909-40,40s17.909,40,40,40s40-17.909,40-40S247.091,110,225,110z M247.664,176.669c-0.595-0.735-1.668-0.869-2.423-0.29c-0.755,0.579-0.903,1.652-0.346,2.417c-1.548,1.072-3.187,2.022-4.903,2.837c-0.382-0.869-1.388-1.279-2.269-0.914s-1.303,1.367-0.958,2.251c-1.763,0.629-3.591,1.122-5.472,1.464c-0.145-0.937-1.009-1.593-1.955-1.469c-0.944,0.124-1.608,0.979-1.508,1.92C226.898,184.96,225.954,185,225,185s-1.898-0.04-2.832-0.114c0.1-0.941-0.564-1.796-1.508-1.92c-0.945-0.124-1.81,0.531-1.955,1.469c-1.881-0.342-3.709-0.835-5.472-1.464c0.345-0.885-0.076-1.886-0.958-2.251c-0.881-0.365-1.887,0.045-2.269,0.914c-1.716-0.815-3.354-1.765-4.903-2.837c0.557-0.765,0.409-1.838-0.346-2.417c-0.754-0.579-1.828-0.445-2.423,0.29c-0.72-0.613-1.417-1.252-2.085-1.92s-1.308-1.365-1.92-2.085c0.735-0.595,0.869-1.668,0.29-2.423c-0.579-0.755-1.652-0.903-2.417-0.346c-1.072-1.548-2.022-3.187-2.837-4.903c0.869-0.382,1.279-1.388,0.914-2.269s-1.367-1.303-2.251-0.958c-0.629-1.763-1.122-3.591-1.464-5.472c0.937-0.145,1.593-1.009,1.469-1.955c-0.124-0.944-0.979-1.608-1.92-1.508C190.04,151.898,190,150.954,190,150s0.04-1.898,0.114-2.832c0.941,0.1,1.796-0.564,1.92-1.508c0.124-0.945-0.531-1.81-1.469-1.955c0.342-1.881,0.835-3.709,1.464-5.472c0.885,0.345,1.886-0.076,2.251-0.958c0.365-0.881-0.045-1.887-0.914-2.269c0.815-1.716,1.765-3.354,2.837-4.903c0.765,0.557,1.838,0.409,2.417-0.346c0.579-0.754,0.445-1.828-0.29-2.423c0.613-0.72,1.252-1.417,1.92-2.085s1.365-1.308,2.085-1.92c0.595,0.735,1.668,0.869,2.423,0.29s0.903-1.652,0.346-2.417c1.548-1.072,3.187-2.022,4.903-2.837c0.382,0.869,1.388,1.279,2.269,0.914s1.303-1.367,0.958-2.251c1.763-0.629,3.591-1.122,5.472-1.464c0.145,0.937,1.009,1.593,1.955,1.469c0.944-0.124,1.608-0.979,1.508-1.92C223.102,115.04,224.046,115,225,115s1.898,0.04,2.832,0.114c-0.1,0.941,0.564,1.796,1.508,1.92c0.945,0.124,1.81-0.531,1.955-1.469c1.881,0.342,3.709,0.835,5.472,1.464c-0.345,0.885,0.076,1.886,0.958,2.251c0.881,0.365,1.887-0.045,2.269-0.914c1.716,0.815,3.354,1.765,4.903,2.837c-0.557,0.765-0.409,1.838,0.346,2.417c0.754,0.579,1.828,0.445,2.423-0.29c0.72,0.613,1.417,1.252,2.085,1.92s1.308,1.365,1.92,2.085c-0.735,0.595-0.869,1.668-0.29,2.423c0.579,0.755,1.652,0.903,2.417,0.346c1.072,1.548,2.022,3.187,2.837,4.903c-0.869,0.382-1.279,1.388-0.914,2.269c0.365,0.881,1.367,1.303,2.251,0.958c0.629,1.763,1.122,3.591,1.464,5.472c-0.937,0.145-1.593,1.009-1.469,1.955c0.124,0.944,0.979,1.608,1.92,1.508C259.96,148.102,260,149.046,260,150s-0.04,1.898-0.114,2.832c-0.941-0.1-1.796,0.564-1.92,1.508c-0.124,0.945,0.531,1.81,1.469,1.955c-0.342,1.881-0.835,3.709-1.464,5.472c-0.885-0.345-1.886,0.076-2.251,0.958c-0.365,0.881,0.045,1.887,0.914,2.269c-0.815,1.716-1.765,3.354-2.837,4.903c-0.765-0.557-1.838-0.409-2.417,0.346c-0.579,0.754-0.445,1.828,0.29,2.423c-0.613,0.72-1.252,1.417-1.92,2.085C249.081,175.417,248.384,176.056,247.664,176.669z M235.748,159.051l14.001,15.698l-15.698-14.001l-4.366-5.557c-0.275,0.249-0.568,0.478-0.881,0.681l4.236,5.653l9.461,18.787l-11.539-17.587l-2.778-6.495c-0.329,0.168-0.671,0.314-1.027,0.429l2.627,6.554l4.276,20.595l-6.594-19.974l-1.002-6.989c-0.358,0.076-0.728,0.118-1.105,0.137L226.2,164l-1.2,21l-1.2-21l0.842-7.018c-0.376-0.019-0.746-0.061-1.105-0.137l-1.002,6.989l-6.594,19.974l4.276-20.595l2.627-6.554c-0.356-0.115-0.698-0.261-1.027-0.429l-2.778,6.495L207.5,180.311l9.461-18.787l4.236-5.653c-0.313-0.203-0.605-0.432-0.881-0.681l-4.366,5.557l-15.698,14.001l14.001-15.698l5.557-4.366c-0.249-0.275-0.478-0.568-0.681-0.881l-5.653,4.236l-18.787,9.461l17.587-11.539l6.495-2.778c-0.168-0.329-0.314-0.671-0.429-1.027l-6.554,2.627l-20.595,4.276l19.974-6.594l6.989-1.002c-0.076-0.358-0.118-0.728-0.137-1.105L211,151.2l-21-1.2l21-1.2l7.018,0.842c0.019-0.376,0.061-0.746,0.137-1.105l-6.989-1.002l-19.974-6.594l20.595,4.276l6.554,2.627c0.115-0.356,0.261-0.698,0.429-1.027l-6.495-2.778L194.689,132.5l18.787,9.461l5.653,4.236c0.203-0.313,0.432-0.605,0.681-0.881l-5.557-4.366l-14.001-15.698l15.698,14.001l4.366,5.557c0.275-0.249,0.568-0.478,0.881-0.681l-4.236-5.653l-9.461-18.787l11.539,17.587l2.778,6.495c0.329-0.168,0.671-0.314,1.027-0.429l-2.627-6.554l-4.276-20.595l6.594,19.974l1.002,6.989c0.358-0.076,0.728-0.118,1.105-0.137L223.8,136l1.2-21l1.2,21l-0.842,7.018c0.376,0.019,0.746,0.061,1.105,0.137l1.002-6.989l6.594-19.974l-4.276,20.595l-2.627,6.554c0.356,0.115,0.698,0.261,1.027,0.429l2.778-6.495l11.539-17.587l-9.461,18.787l-4.236,5.653c0.313,0.203,0.605,0.432,0.881,0.681l4.366-5.557l15.698-14.001l-14.001,15.698l-5.557,4.366c0.249,0.275,0.478,0.568,0.681,0.881l5.653-4.236l18.787-9.461l-17.587,11.539l-6.495,2.778c0.168,0.329,0.314,0.671,0.429,1.027l6.554-2.627l20.595-4.276l-19.974,6.594l-6.989,1.002c0.076,0.358,0.118,0.728,0.137,1.105L239,148.8l21,1.2l-21,1.2l-7.018-0.842c-0.019,0.376-0.061,0.746-0.137,1.105l6.989,1.002l19.974,6.594l-20.595-4.276l-6.554-2.627c-0.115,0.356-0.261,0.698-0.429,1.027l6.495,2.778l17.587,11.539l-18.787-9.461l-5.653-4.236c-0.203,0.313-0.432,0.605-0.681,0.881L235.748,159.051z" />
</svg>
