<svg xmlns="http://www.w3.org/2000/svg" width="450px" height="300px" viewBox="0 0 450 300">
  <path fill="#3E5EB9" d="M0,0h450v300H0V0z" />
  <path fill="#FFD900" d="M0,56.25h450v187.5H0V56.25z" />
  <path fill="#B10C0C" d="M0,75h450v150H0V75z" />
  <path fill="#FFFFFF" stroke="#000000" stroke-width="0.756" stroke-miterlimit="6" d="M369.638,115.71l-18.214,6.428l18.214,6.428l18.214-6.428L369.638,115.71z M352.185,128.572l-18.214,6.428l18.214,6.428l18.214-6.428L352.185,128.572z" />
  <path fill="#FFD900" stroke="#000000" stroke-width="0.756" stroke-miterlimit="6" d="M94.467,120h263.189c1.287,0,2.329,0.959,2.329,2.143v0c0,1.183-1.043,2.143-2.329,2.143H94.467c-1.287,0-2.33-0.959-2.33-2.143v0C92.137,120.959,93.18,120,94.467,120z M77.015,132.863h263.189c1.287,0,2.329,0.959,2.329,2.143v0c0,1.183-1.043,2.143-2.329,2.143H77.015c-1.287,0-2.33-0.959-2.33-2.143v0C74.685,133.822,75.728,132.863,77.015,132.863z" />
  <path fill="none" stroke="#000000" stroke-width="0.756" stroke-miterlimit="6" d="M353.58,124.283c1.07,0,2.144-1.072,2.144-2.143c0-1.071-1.073-2.143-2.143-2.143 M351.435,124.283c1.07,0,2.144-1.072,2.144-2.143c0-1.071-1.073-2.143-2.144-2.143 M349.29,124.283c1.07,0,2.144-1.072,2.144-2.143c0-1.071-1.073-2.143-2.143-2.143 M336.128,137.145c1.07,0,2.144-1.072,2.144-2.143s-1.073-2.143-2.143-2.143 M333.982,137.145c1.07,0,2.144-1.072,2.144-2.143s-1.073-2.143-2.143-2.143 M331.837,137.145c1.07,0,2.144-1.072,2.144-2.143s-1.073-2.143-2.143-2.143" />
  <path fill="#FFD900" stroke="#000000" stroke-width="0.81" stroke-miterlimit="6" d="M48.027,146.79h357.939c1.75,0,3.168,1.439,3.168,3.214v0c0,1.775-1.418,3.214-3.168,3.214H48.027c-1.75,0-3.168-1.439-3.168-3.214v0C44.859,148.229,46.277,146.79,48.027,146.79z" />
  <path fill="#FFFFFF" stroke="#000000" stroke-width="0.756" d="M332.138,150c-21.428,21.426-50.001,64.283-107.145,64.283c-50.001,0-85.71-42.856-107.145-64.283c21.429-21.43,57.141-64.287,107.145-64.287C282.134,85.713,310.703,128.569,332.138,150z" />
  <path fill="#000000" d="M220.794,194.149c0.771-4.202,18.484-3.625,18.712-7.31c0.222-3.696-16.395-6.014-15.909-10.142c0.391-4.39,8.579-4.827,8.874-11.648c0.176-11.837,10.228-11.449,10.164-15.293c-0.064-3.715-3.138-0.079-6.808-5.222c-3.602-4.934,0.514-19.883-3.229-20.047c-5.353-0.22-1.745-6.527-8.109-6.995c-6.035-0.421-1.274-3.006-6.975-9.418l0.007-0.005C210.159,99.27,225,85.709,225,85.709c-50.004,0-85.716,42.857-107.145,64.287c21.427,21.427,57.145,64.323,107.138,64.287c7.935-0.006,18.434-1.142,22.124-2.349C245.129,201.018,220.399,197.924,220.794,194.149z M163.047,172.858h-5.195v-17.143h5.195V172.858z M163.047,144.283h-5.195V127.14h5.195V144.283z M173.435,172.858h-5.195v-17.143h5.195V172.858z M173.435,144.283h-5.195V127.14h5.195V144.283z M183.83,172.858h-5.195v-17.143h5.195V172.858z M183.83,144.283h-5.195V127.14h5.195V144.283z M194.217,172.858h-5.195v-17.143h5.195V172.858z M194.217,144.283h-5.195V127.14h5.195V144.283z M204.605,172.858h-5.195v-17.143h5.195V172.858z M204.605,144.283h-5.195V127.14h5.195V144.283z M215,172.858h-5.195v-17.143H215V172.858z M215,144.283h-5.195V127.14H215V144.283z M293.57,172.858h-5.195v-17.143h5.195V172.858z M283.175,172.858h-5.195v-17.143h5.195V172.858z M272.788,172.858h-5.195v-17.143h5.195V172.858z M293.57,144.283h-5.195V127.14h5.195V144.283z M283.175,144.283h-5.195V127.14h5.195V144.283z M272.788,144.283h-5.195V127.14h5.195V144.283z M262.4,144.283h-5.195V127.14h5.195V144.283z M252.005,144.283h-5.195V127.14h5.195V144.283z M241.617,144.283h-5.195V127.14h5.195V144.283z M262.4,172.858h-5.195v-17.143h5.195V172.858z M252.005,172.858h-5.195v-17.143h5.195V172.858z M241.617,172.858h-5.195v-17.143h5.195V172.858z" />
  <path fill="#333333" stroke="#000000" stroke-width="0.6413" stroke-linejoin="round" d="M383.513,147.45c-3.246,5.622,2.491-1.87,16.489,7.542c2.594,1.749,4.861,6.367,4.861,9.57c-0.659-0.441-1.147-1.421-1.872-2.057c-1.016,1.018,0.97,5.683,1.26,7.887c-2.189-1.225-1.978-1.805-2.705-3.309c0.145,1.82-0.375,6.83,0.495,8.76c-1.725-0.493-1.61-1.881-2.51-2.16c0.612,2.184-0.534,4.561-0.23,7.016c-1.008-0.997-2.082-1.779-2.55-2.182c-0.078,1.169-1.939,4.242-1.98,5.348c-0.855-0.516-1.087-1.322-1.23-1.865c-1.063,1.335-4.84,6.268-5.082,7.773c-2.911-2.571-10.367-8.831-11.338-12.154c-0.858,1.886-2.1,2.523-4.555,3.9c-0.97-5.266-4.597-11.186-2.657-15.701c-1.375,0.815-2.507,1.63-3.88,2.633c1.302-7.628,7.94-16.572,17.49-21.001L383.513,147.45z M60.587,152.865c-0.181-1.637,0.169-1.833-0.839-3.068c1.466,0.613,1.522,2.244,3.305,1.087c0.654-0.339,0.94-0.35,0.145-2.169c1.859,0.087,7.947,2.174,8.922,2.222c2.56,0.118,7.233-2.689,10.477,0.762c3.114,3.147,2.074,6.413,2.074,10.771c-1.251-0.6-0.648-0.895-1.976-2.454c0.995,3.809-0.053,10.678-0.053,14.718c-0.511-0.974-0.436-0.551-0.936-1.56c-1.327,3.688-2.919,4.447-2.919,8.805c-0.479-1.709-0.017-1.348-0.549-2.247c-1.29,2.8-9.945,5.193-6.61,8.014c-3.01-1.765-4.33-1.579-5.695-3.167c-0.589,0.38-1.056,1.098-1.603,2.083c-5.292-2.435-3.4-7.688-7.547-11.196c-0.717,1.471-0.39,1.258-1.166,3.652c-0.84-3.326-1.069-5.439-2.013-7.883c-0.814,1.355-0.742,0.835-2.221,2.884c-0.612-4.051-1.608-5.007-1.214-7.688c-1.572,1.109-0.543,0.66-2.114,2.025c1.489-10.38,7.918-18.051,12.533-15.594L60.587,152.865z M190.35,97.125c-2.969,5.741,5.197-1.91,17.999,7.702c2.372,1.785,5.773,8.84,5.773,12.11c-2.725-0.58-7.552-3.27-7.552-3.27s5.664,5.673,5.664,12.213c-2.001-1.251-3.002-1.063-3.667-2.6c0,2.117,1.78,3.466,1.78,6.736c-1.218-0.978-2.519-1.846-3.89-2.595c1.888,3.27-3.44,9.613-0.773,11.731c-4.663-0.674-9.435-3.654-11.323-6.924c-1.001,0.674-1.109,1.733-1.148,2.861c0.147,0.122-7.099-5.378-6.433-7.491c-0.972,1.363-1.109,2.113-1.331,3.65c-2.661-2.625-5.102-5.25-5.99-8.644c-1.182,1.536-1.257,1.536-2.44,3.074c-0.887-5.379-0.887-5.187,0.887-9.796c-1.257,0.832-2.292,1.665-3.549,2.69c1.19-7.789,7.262-16.923,15.994-21.446L190.35,97.125z" />
  <path fill="#B3B3B3" d="M371.408,175.29c1.348-2.694,2.589-3.548,3.46-5.283c1.538-3.049,1.758-5.475,3.098-5.119c1.34,0.355,1.339,1.605-0.397,4.602C375.831,172.488,375.006,173.128,371.408,175.29z M380.52,181.71c-0.173-2.051,0.422-2.908,0.314-4.229c-0.185-2.324-1.135-3.919,0.1-4.033c1.236-0.113,1.814,0.68,1.817,3.022C382.755,178.813,382.392,179.428,380.52,181.71L380.52,181.71z M387.435,185.73c-0.54-2.863-0.135-4.133-0.482-5.979c-0.602-3.246-1.792-5.383-0.647-5.68s1.837,0.753,2.27,4.045C389.011,181.408,388.782,182.313,387.435,185.73L387.435,185.73z M394.628,165.667c-1.689-1.282-2.674-1.368-3.763-2.191c-1.918-1.445-2.889-2.992-3.507-2.225c-0.617,0.768-0.179,1.608,1.832,2.941C391.199,165.526,391.88,165.632,394.628,165.667L394.628,165.667z M393.435,175.17c-0.89-1.848-1.827-2.318-2.403-3.507c-1.017-2.09-1.019-3.898-2.123-3.435c-1.104,0.464-1.193,1.41-0.012,3.434C390.077,173.684,390.695,174.051,393.435,175.17z M54.076,169.807c1.364-3.342,2.593-4.391,3.474-6.543c1.556-3.781,1.81-6.805,3.117-6.344c1.307,0.461,1.286,2.018-0.463,5.734c-1.749,3.717-2.568,4.504-6.128,7.152V169.807z M59.238,178.17c0.547-2.996,1.41-4.087,1.764-6.017c0.63-3.393,0.278-5.92,1.493-5.786c1.215,0.133,1.489,1.414,0.681,4.789C62.368,174.531,61.81,175.33,59.238,178.17L59.238,178.17z M65.414,183.982c0.154-2.905,0.835-4.038,0.937-5.91c0.185-3.291-0.449-5.646,0.71-5.66s1.572,1.17,1.216,4.464C67.922,180.172,67.493,180.994,65.414,183.982L65.414,183.982z M78.675,164.985c-2.535-2.526-4.068-2.998-5.704-4.622c-2.882-2.853-4.273-5.532-5.299-4.583c-1.026,0.95-0.409,2.373,2.625,5.088C73.33,163.583,74.385,163.979,78.675,164.985z M77.13,174.75c-1.651-2.536-2.864-3.193-3.93-4.826c-1.88-2.868-2.527-5.333-3.592-4.722c-1.066,0.611-0.828,1.898,1.21,4.678C72.855,172.66,73.674,173.172,77.13,174.75L77.13,174.75z M183.03,125.175c0.475-3.956,1.509-5.447,1.818-7.994c0.551-4.48-0.103-7.756,1.485-7.673c1.588,0.082,2.045,1.735,1.26,6.207C186.808,120.186,186.146,121.272,183.03,125.175L183.03,125.175z M191.318,132.42c-0.322-3.337,0.295-4.758,0.09-6.909c-0.352-3.783-1.521-6.345-0.137-6.581c1.383-0.235,2.083,1.034,2.232,4.853C193.653,127.603,193.283,128.62,191.318,132.42L191.318,132.42z M204.255,138.33c-1.407-2.889-2.616-3.749-3.524-5.609c-1.605-3.267-1.94-5.935-3.177-5.452c-1.238,0.484-1.169,1.864,0.618,5.062C199.959,135.529,200.767,136.182,204.255,138.33z M208.732,112.463c-3.583-1.886-5.424-1.91-7.733-3.122c-4.066-2.125-6.434-4.526-7.273-3.204c-0.841,1.322,0.281,2.635,4.473,4.567S203.679,112.727,208.732,112.463L208.732,112.463z M210.045,123.27c-2.609-2.171-4.152-2.49-5.835-3.886c-2.965-2.45-4.44-4.857-5.43-3.881c-0.99,0.976-0.329,2.264,2.783,4.573C204.674,122.384,205.738,122.67,210.045,123.27L210.045,123.27z" />
</svg>
