<svg xmlns="http://www.w3.org/2000/svg" height="24px" viewBox="0 -960 960 960" width="24px" fill="#e3e3e3"><path d="M427.92-746.38q-21.77-21.77-21.77-52.08t21.77-52.08q21.77-21.77 52.08-21.77t52.08 21.77q21.77 21.77 21.77 52.08t-21.77 52.08q-21.77 21.76-52.08 21.76t-52.08-21.76ZM376.16-120v-491.54H169.23q-12.75 0-21.37-8.63-8.63-8.63-8.63-21.38 0-12.76 8.63-21.37 8.62-8.62 21.37-8.62h621.54q12.75 0 21.37 8.63 8.63 8.63 8.63 21.38 0 12.76-8.63 21.38-8.62 8.61-21.37 8.61H583.84V-120q0 12.75-8.62 21.37Q566.59-90 553.83-90q-12.75 0-21.37-8.63-8.61-8.62-8.61-21.37v-200h-87.7v200q0 12.77-8.63 21.38Q418.9-90 406.14-90q-12.75 0-21.37-8.63-8.61-8.62-8.61-21.37Z"/></svg>