<svg xmlns="http://www.w3.org/2000/svg" height="24px" viewBox="0 -960 960 960" width="24px" fill="currentColor"><path d="M450-130v-163.85H310.39q-20.77 0-35.58-14.8Q260-323.46 260-344.23q0-20.77 14.81-35.58 14.81-14.8 35.58-14.8H450v-170.78H190.39q-20.77 0-35.58-14.8Q140-595 140-615.77q0-20.77 14.81-35.58 14.81-14.8 35.58-14.8H450V-830q0-12.77 8.62-21.38Q467.23-860 480-860t21.38 8.62Q510-842.77 510-830v163.85h259.61q20.77 0 35.58 14.8Q820-636.54 820-615.77q0 20.77-14.81 35.58-14.81 14.8-35.58 14.8H510v170.78h139.61q20.77 0 35.58 14.8Q700-365 700-344.23q0 20.77-14.81 35.58-14.81 14.8-35.58 14.8H510V-130q0 12.77-8.62 21.38Q492.77-100 480-100t-21.38-8.62Q450-117.23 450-130Z"/></svg>