<svg xmlns="http://www.w3.org/2000/svg" width="24" height="24" viewBox="0 0 24 24" fill="currentColor">
  <path d="M6.72,8.182c-.309.016-.689.205-.908.47-.197.227-.371.598-.326.947.349.031.696-.174.916-.431.211-.266.356-.622.318-.985h0ZM8.996,8.615v5.665h.879v-1.936h1.217c1.112,0,1.892-.762,1.892-1.869s-.765-1.861-1.865-1.861h-2.123ZM9.875,9.356h1.013c.762,0,1.197.408,1.197,1.123s-.435,1.126-1.2,1.126h-1.01s0-2.249,0-2.249ZM6.622,9.666c-.464.01-.856.289-1.083.289-.242,0-.612-.272-1.012-.265-.53.013-1.013.306-1.268.77-.543.936-.143,2.325.386,3.089.257.377.566.793.974.778.385-.014.536-.25,1.003-.25s.604.25,1.011.242c.423-.007.688-.377.944-.756.295-.43.416-.846.423-.867-.007-.008-.815-.318-.822-1.247-.008-.778.634-1.148.664-1.17-.363-.536-.928-.596-1.124-.612-.032-.002-.063-.003-.095-.002h0ZM15.083,10.075c-1.021,0-1.656.55-1.704,1.295h.801c.074-.369.381-.604.871-.604.518,0,.828.274.828.733v.319l-1.131.066c-.981.056-1.535.499-1.535,1.221,0,.743.565,1.245,1.374,1.245.542,0,1.064-.29,1.304-.75h.02v.68h.813v-2.846c0-.828-.639-1.358-1.641-1.358ZM17.083,10.149l1.491,4.134s-.075.248-.075.255c-.129.423-.34.589-.733.589-.071,0-.212,0-.275-.015v.687c.062.011.275.02.345.02.856,0,1.264-.322,1.617-1.323l1.547-4.346h-.895l-1.044,3.361h-.015l-1.045-3.362h-.918ZM15.88,12.407v.326c0,.537-.464.946-1.056.946-.456,0-.754-.235-.754-.597,0-.353.287-.578.793-.612l1.017-.063Z"/>
</svg>
