<svg xmlns="http://www.w3.org/2000/svg" width="24" height="24" viewBox="0 0 24 24" fill="currentColor">
  <path d="M2.15,4.318c-.151,0-.303.001-.454.003-.15.005-.303.013-.452.04-.457.072-.851.359-1.06.772-.07.138-.114.278-.14.43-.028.148-.037.3-.04.45-.002.07-.003.139-.004.209v11.557c0,.07.002.138.003.207.004.15.013.303.04.452.027.15.072.291.142.429.138.271.359.492.63.63.138.07.278.115.43.142.148.027.3.036.45.04l.208.003h20.194l.207-.003c.15-.004.303-.013.452-.04.15-.027.291-.071.428-.141.272-.138.493-.359.631-.631.07-.138.115-.278.141-.43.027-.148.036-.3.04-.45.002-.07.003-.138.003-.208v-.246s0-11.312,0-11.312c0-.07-.002-.138-.004-.207-.002-.151-.015-.303-.04-.452-.098-.618-.582-1.102-1.2-1.201-.149-.025-.301-.038-.452-.04-.151-.004-.302-.005-.453-.003H2.15ZM2.15,4.83h19.942c.066,0,.131.002.197.003.115.004.25.01.375.032.109.02.2.05.287.094.175.089.318.232.407.407.046.091.078.188.094.288.022.123.028.258.031.374.002.065.003.13.003.197v11.552c0,.065,0,.13-.003.196-.003.115-.009.25-.032.375-.044.299-.23.557-.5.693-.09.046-.186.077-.286.094-.123.02-.248.03-.373.032l-.2.003H1.906c-.066,0-.133-.002-.196-.003-.126-.002-.251-.012-.375-.032-.109-.02-.2-.05-.288-.094-.175-.089-.318-.231-.406-.407-.046-.091-.077-.188-.094-.288-.02-.123-.031-.248-.032-.373-.001-.066-.002-.131-.002-.197V6.224c0-.065,0-.131.002-.197.004-.114.01-.248.032-.375.02-.108.05-.199.094-.287.089-.175.232-.317.407-.406.091-.045.187-.077.287-.094.125-.022.26-.029.375-.032.065-.002.131-.002.196-.003h.244ZM6.86,8.53c-.3.016-.668.199-.88.456-.191.22-.36.58-.316.918.338.03.675-.169.888-.418.205-.258.345-.603.308-.955h0ZM9.067,8.95v5.493h.852v-1.877h1.18c1.078,0,1.835-.739,1.835-1.812s-.742-1.805-1.808-1.805h-2.059ZM9.919,9.669h.982c.739,0,1.161.396,1.161,1.089s-.422,1.092-1.164,1.092h-.979v-2.181ZM6.765,9.969c-.45.01-.83.28-1.05.28-.235,0-.593-.264-.981-.257-.514.013-.982.297-1.23.747-.527.908-.139,2.255.374,2.995.249.366.549.769.944.754.373-.014.52-.242.973-.242s.586.242.98.235c.41-.007.667-.366.915-.733.286-.417.403-.82.41-.841-.007-.008-.79-.308-.797-1.209-.008-.754.615-1.113.644-1.135-.352-.52-.9-.578-1.09-.593-.031-.002-.061-.003-.092-.002h0ZM14.969,10.366c-.99,0-1.606.533-1.652,1.256h.777c.072-.358.369-.586.845-.586.502,0,.803.266.803.711v.309l-1.097.064c-.951.054-1.488.484-1.488,1.184,0,.72.548,1.207,1.332,1.207.526,0,1.032-.281,1.264-.727h.019v.659h.788v-2.76c0-.803-.62-1.317-1.591-1.317ZM16.909,10.438l1.446,4.009s-.073.24-.073.247c-.125.41-.33.571-.711.571-.069,0-.206,0-.267-.015v.666c.06.011.267.019.335.019.83,0,1.226-.312,1.568-1.283l1.5-4.214h-.868l-1.012,3.259h-.015l-1.013-3.26h-.89ZM15.742,12.627v.316c0,.521-.45.917-1.024.917-.442,0-.731-.228-.731-.579,0-.342.278-.56.769-.593l.986-.061Z"/>
</svg>