<svg xmlns="http://www.w3.org/2000/svg" width="24" height="24" viewBox="0 0 24 24" fill="currentColor">
  <path d="M20.995,7.593c.006-.553-.055-1.104-.18-1.642-.238-.982-.796-1.732-1.635-2.282-.427-.274-.907-.46-1.408-.544-.388-.067-.78-.104-1.173-.112-.03-.002-.062-.007-.093-.01H7.489c-.114.007-.227.013-.341.019-.56.032-1.117.092-1.645.3-1.002.397-1.725,1.089-2.149,2.085-.144.336-.219.694-.272,1.056-.042.294-.066.589-.075.885,0,.024-.005.046-.007.07v9.167c.007.105.013.212.02.318.037.611.115,1.218.373,1.78.487,1.065,1.303,1.765,2.425,2.101.315.095.642.14.97.171.416.04.832.045,1.25.045h8.272c.394,0,.787-.026,1.177-.075.616-.08,1.197-.262,1.721-.607.622-.402,1.112-.977,1.41-1.655.14-.315.22-.652.278-.993.085-.506.104-1.018.103-1.53-.002-2.85,0-5.696-.002-8.545,0,0-.002,0-.002,0ZM16.178,10.586v4.284c0,.313-.044.62-.183.904-.218.442-.57.721-1.041.855-.262.075-.529.118-.802.13-.712.034-1.33-.45-1.457-1.152-.11-.623.208-1.243.778-1.516.242-.12.502-.187.763-.243.283-.061.568-.115.85-.18.205-.047.343-.172.382-.387.01-.047.015-.096.015-.145,0-1.361,0-2.722-.002-4.082,0-.047-.007-.094-.019-.139-.03-.112-.112-.182-.228-.175-.12.008-.238.026-.356.049-.57.112-1.14.227-1.71.342l-1.744.352-1.03.208c-.012.002-.024.008-.036.01-.208.058-.283.152-.292.367-.001.031,0,.065,0,.097-.001,1.951,0,3.903-.002,5.854,0,.315-.035.627-.161.92-.208.48-.577.78-1.075.925-.262.075-.532.12-.806.129-.72.027-1.316-.45-1.44-1.158-.105-.609.172-1.264.865-1.556.268-.112.547-.174.831-.232.215-.045.431-.087.645-.133.287-.062.437-.242.45-.535v-.112c0-2.22,0-4.441.001-6.661,0-.092.01-.187.031-.277.052-.214.205-.336.409-.388.191-.049.386-.084.58-.124.55-.112,1.099-.222,1.65-.333l1.702-.345c.502-.1,1.005-.202,1.507-.302.165-.032.331-.066.497-.079.232-.019.392.127.416.361.006.055.009.111.009.167.002,1.432.002,2.866,0,4.299v.002h0Z"/>
</svg>
