<svg xmlns="http://www.w3.org/2000/svg" height="24px" viewBox="0 -960 960 960" width="24px" fill="#e3e3e3"><path d="M240-677.85V-590q0 12.77-8.62 21.38Q222.77-560 210-560t-21.38-8.62Q180-577.23 180-590v-153.84q0-15.47 10.35-25.81Q200.69-780 216.16-780H370q12.77 0 21.38 8.62Q400-762.77 400-750t-8.62 21.38Q382.77-720 370-720h-87.85l206.77 206.77q9.85 9.85 15.46 23.19 5.62 13.35 5.62 27.81V-210q0 12.77-8.62 21.38Q492.77-180 480-180t-21.38-8.62Q450-197.23 450-210v-252.85q0-2.3-.77-4.42t-2.69-4.04L240-677.85Zm480 0L601.23-558.46q-8.92 8.92-21.19 9.11-12.27.2-21.58-9.11-9.31-9.31-9.31-21.69 0-12.39 9.31-21.69L677.85-720H590q-12.77 0-21.38-8.62Q560-737.23 560-750t8.62-21.38Q577.23-780 590-780h153.84q15.47 0 25.81 10.35Q780-759.31 780-743.84V-590q0 12.77-8.62 21.38Q762.77-560 750-560t-21.38-8.62Q720-577.23 720-590v-87.85Z"/></svg>