<svg xmlns="http://www.w3.org/2000/svg" height="24px" viewBox="0 -960 960 960" width="24px" fill="#e3e3e3"><path d="M221.37-138.62Q212.75-130 200-130H86.15q-15.36 0-25.76-10.39Q50-150.79 50-166.15V-280q0-12.75 8.63-21.37Q67.26-310 80.01-310q12.76 0 21.37 8.63Q110-292.75 110-280v90h90q12.75 0 21.37 8.63 8.63 8.63 8.63 21.38 0 12.76-8.63 21.37Zm680.01-162.75Q910-292.75 910-280v113.85q0 15.36-10.39 25.76Q889.21-130 873.85-130H760q-12.75 0-21.37-8.63-8.63-8.63-8.63-21.38 0-12.76 8.63-21.37Q747.25-190 760-190h90v-90q0-12.75 8.63-21.37 8.63-8.63 21.38-8.63 12.76 0 21.37 8.63ZM178.08-240q-7.23 0-12.66-5.42-5.42-5.43-5.42-12.66v-443.84q0-7.23 5.42-12.66 5.43-5.42 12.66-5.42h43.84q7.23 0 12.66 5.42 5.42 5.43 5.42 12.66v443.84q0 7.23-5.42 12.66-5.43 5.42-12.66 5.42h-43.84ZM286-246q-6-6-6-14v-440q0-8 6-14t14-6q8 0 14 6t6 14v440q0 8-6 14t-14 6q-8 0-14-6Zm132.08 6q-7.23 0-12.66-5.42-5.42-5.43-5.42-12.66v-443.84q0-7.23 5.42-12.66 5.43-5.42 12.66-5.42h43.84q7.23 0 12.66 5.42 5.42 5.43 5.42 12.66v443.84q0 7.23-5.42 12.66-5.43 5.42-12.66 5.42h-43.84Zm120 0q-7.23 0-12.66-5.42-5.42-5.43-5.42-12.66v-443.84q0-7.23 5.42-12.66 5.43-5.42 12.66-5.42h83.84q7.23 0 12.66 5.42 5.42 5.43 5.42 12.66v443.84q0 7.23-5.42 12.66-5.43 5.42-12.66 5.42h-83.84ZM686-246q-6-6-6-14v-440q0-8 6-14t14-6q8 0 14 6t6 14v440q0 8-6 14t-14 6q-8 0-14-6Zm80 0q-6-6-6-14v-440q0-8 6-14t14-6q8 0 14 6t6 14v440q0 8-6 14t-14 6q-8 0-14-6ZM221.37-778.62Q212.75-770 200-770h-90v90q0 12.75-8.63 21.37Q92.74-650 79.99-650q-12.76 0-21.37-8.63Q50-667.25 50-680v-113.85q0-15.36 10.39-25.76Q70.79-830 86.15-830H200q12.75 0 21.37 8.63 8.63 8.63 8.63 21.38 0 12.76-8.63 21.37Zm517.26-42.76Q747.25-830 760-830h113.85q15.36 0 25.76 10.39Q910-809.21 910-793.85V-680q0 12.75-8.63 21.37-8.63 8.63-21.38 8.63-12.76 0-21.37-8.63Q850-667.25 850-680v-90h-90q-12.75 0-21.37-8.63-8.63-8.63-8.63-21.38 0-12.76 8.63-21.37Z"/></svg>