<svg xmlns="http://www.w3.org/2000/svg" height="24px" viewBox="0 -960 960 960" width="24px" fill="#e3e3e3"><path d="M187.39-237.15Q145-288.85 122.5-351 100-413.15 100-480t22.5-129q22.5-62.15 64.89-113.85 57.23 43.08 88.88 107.23 31.65 64.16 31.65 135.62 0 71.46-31.65 135.62-31.65 64.15-88.88 107.23Zm158.76 112.96q-63.76-24.2-115.46-70.2 64.39-53.15 100.5-127.26 36.12-74.12 36.12-158.35 0-84.23-36.12-158.35-36.11-74.11-100.5-127.26 51.7-46 115.46-70.2Q409.92-860 480-860q70.08 0 133.85 24.19 63.76 24.2 115.46 70.2-64.39 53.15-100.5 127.26-36.12 74.12-36.12 158.35 0 84.23 36.12 158.35 36.11 74.11 100.5 127.26-51.7 46-115.46 70.2Q550.08-100 480-100q-70.08 0-133.85-24.19Zm426.46-112.96q-57.23-43.08-88.88-107.23-31.65-64.16-31.65-135.62 0-71.46 31.65-135.62 31.65-64.15 88.88-107.23Q815-671.15 837.5-609 860-546.85 860-480t-22.5 129q-22.5 62.15-64.89 113.85Z"/></svg>