<svg xmlns="http://www.w3.org/2000/svg" width="24" height="24" viewBox="0 0 24 24" fill="currentColor">
  <path d="M16.969,16.927c.514.476,1.201.721,1.901.677.549.014,1.087-.153,1.531-.475.362-.235.636-.584.779-.99h2.585c-.275,1.158-.948,2.182-1.9,2.896-.914.607-1.994.914-3.091.88-.783.01-1.559-.137-2.284-.433-.656-.273-1.244-.687-1.723-1.211-.477-.549-.844-1.186-1.08-1.874-.265-.77-.394-1.579-.383-2.393-.005-.8.129-1.595.396-2.349.739-2.175,2.791-3.629,5.088-3.604.827-.017,1.645.177,2.376.563.661.362,1.231.87,1.668,1.485.446.645.766,1.369.943,2.133.194.821.263,1.666.205,2.508h-7.699c-.063.79.184,1.574.688,2.187ZM6.947,4.084c.648-.012,1.296.055,1.928.198.533.116,1.038.333,1.49.638.418.303.748.711.958,1.182.241.579.357,1.203.341,1.83.028.689-.148,1.371-.506,1.961-.376.557-.895,1.001-1.503,1.287.825.222,1.544.732,2.027,1.437.464.747.697,1.615.67,2.494.016.701-.129,1.396-.423,2.032-.272.556-.67,1.04-1.163,1.413-.507.37-1.077.644-1.683.807-.628.174-1.277.261-1.928.259H0V4.084h6.947ZM6.712,16.984c.308.004.616-.029.916-.099.274-.06.534-.173.766-.332.228-.158.411-.371.534-.619.142-.317.208-.663.191-1.009.063-.64-.174-1.273-.642-1.715-.49-.36-1.089-.539-1.696-.505h-3.54v4.279s3.471,0,3.471,0ZM20.347,11.017c-.436-.436-1.039-.662-1.654-.619-.404-.016-.804.074-1.163.259-.284.156-.535.367-.738.62-.181.237-.315.505-.396.792-.074.239-.12.485-.137.734h4.769c-.042-.65-.278-1.272-.679-1.785,0,0-.002-.001-.002,0ZM6.534,10.369c.51.021,1.011-.132,1.423-.433.399-.355.607-.88.56-1.413.013-.307-.048-.613-.178-.891-.111-.221-.283-.406-.495-.533-.215-.14-.458-.233-.711-.274-.275-.054-.555-.078-.835-.073h-3.057v3.631h3.293s0-.014,0-.014ZM21.62,5.122h-5.976v1.527h5.976v-1.527Z"/>
</svg>