<svg xmlns="http://www.w3.org/2000/svg" width="24" height="24" viewBox="0 0 24 24" fill="currentColor">
  <path d="M17.098,5.12c-2.064,1.554-4.283,4.706-5.098,6.397-.815-1.691-3.035-4.843-5.098-6.397-1.489-1.121-3.901-1.989-3.901.772,0,.551.315,4.632.5,5.295.642,2.303,2.983,2.891,5.066,2.535-3.64.622-4.566,2.68-2.566,4.739,3.798,3.911,5.459-.981,5.885-2.235.079-.231.115-.339.115-.244,0-.095.037.012.115.244.426,1.253,2.086,6.144,5.885,2.235,2-2.059,1.074-4.117-2.566-4.739,2.083.355,4.424-.232,5.066-2.535.185-.663.5-4.744.5-5.295,0-2.761-2.413-1.893-3.902-.772Z"/>
</svg>
