<svg xmlns="http://www.w3.org/2000/svg" width="24" height="24" viewBox="0 0 24 24" fill="currentColor">
  <path d="M5.202,2.857c2.752,2.065,5.711,6.253,6.798,8.501,1.087-2.247,4.046-6.436,6.798-8.501,1.985-1.491,5.202-2.644,5.202,1.026,0,.732-.42,6.156-.667,7.037-.856,3.061-3.978,3.842-6.755,3.37,4.854.826,6.089,3.562,3.422,6.299-5.065,5.196-7.28-1.304-7.847-2.97-.104-.305-.152-.448-.153-.327,0-.121-.05.022-.153.327-.568,1.666-2.782,8.166-7.847,2.97-2.667-2.737-1.432-5.473,3.422-6.3-2.777.473-5.899-.308-6.755-3.369-.247-.88-.667-6.305-.667-7.037C0,.213,3.217,1.366,5.202,2.857"/>
</svg>