<svg xmlns="http://www.w3.org/2000/svg" height="24px" viewBox="0 -960 960 960" width="24px" fill="#e3e3e3"><path d="M668.46-658.38q-3.85 0-7.5-.81t-7.5-3.04l-26.15-15q-17.85-10.31-38.39-4.85-20.54 5.47-30.46 23.31l-4.61 8 34.23 19.54q19.46 10.85 25.19 32.54 5.73 21.69-5.12 41.15l-25.84 45.69q23 36.77 36.23 77.27 13.23 40.5 13.23 84.27 0 116.16-81.73 196.92-81.73 80.77-198.27 80.77t-198.46-82.34q-81.92-82.35-81.92-198.89 0-117.3 82.27-198.03 82.26-80.73 199.96-80.73 4.92 0 10.34.19 5.43.19 10.35.58l25.46-44.7q10.85-20.07 32.54-25.8 21.69-5.74 41.77 5.73l28.07 15.84 5-8q21.85-39.54 66.23-51.38 44.39-11.85 83.93 11.23l25.53 14.38q6.7 3.85 11.16 10.85t4.46 15.31q0 12.77-8.62 21.38-8.61 8.62-21.38 8.62Zm120.15-3.31q8.62-8.62 21.39-8.62h40q12.77 0 21.38 8.62 8.62 8.61 8.62 21.38t-8.62 21.39q-8.61 8.61-21.38 8.61h-40q-12.77 0-21.39-8.61-8.61-8.62-8.61-21.39 0-12.77 8.61-21.38ZM590.92-821.23q-8.61-8.61-8.61-21.38v-40q0-12.77 8.61-21.39 8.62-8.61 21.39-8.61 12.77 0 21.38 8.61 8.62 8.62 8.62 21.39v40q0 12.77-8.62 21.38-8.61 8.62-21.38 8.62t-21.39-8.62Zm152.62 52.77q-8.31-8.31-8.31-20.69 0-12.39 8.31-20.69l29-29.39q8.31-8.31 21.07-8.5 12.77-.19 21.08 8.5 8.31 8.31 8.12 21.08-.2 12.77-8.5 21.07l-29 29q-8.31 8.31-20.89 8.12-12.57-.19-20.88-8.5Z"/></svg>