<svg xmlns="http://www.w3.org/2000/svg" height="24px" viewBox="0 -960 960 960" width="24px" fill="#e3e3e3"><path d="M302.31-100q-50.69 0-86.5-35.81T180-222.31V-730q0-54.15 37.92-92.08Q255.85-860 310-860h397.69q29.92 0 51.12 21.19Q780-817.61 780-787.69v485.61q0 7.23-5.54 12.96t-17.92 11.04q-17.46 6.23-28.16 21.16-10.69 14.92-10.69 34.61 0 19.31 10.5 34.54t27.96 21.23q11.31 4.46 17.58 12.46 6.27 8 6.27 17.31v6.15q0 12.77-8.62 21.7Q762.77-100 750-100H302.31Zm76.77-253.23q8.61-8.61 8.61-21.38V-770q0-12.77-8.61-21.38-8.62-8.62-21.39-8.62-12.77 0-21.38 8.62-8.62 8.61-8.62 21.38v395.39q0 12.77 8.62 21.38 8.61 8.62 21.38 8.62t21.39-8.62ZM302.31-160h373.77q-8.7-13.62-13.54-28.88-4.85-15.27-4.85-33.43 0-17.15 4.54-32.92 4.54-15.77 13.85-29.39H302.31q-26.77 0-44.54 18.27T240-222.31q0 26.77 17.77 44.54T302.31-160Z"/></svg>