<svg xmlns="http://www.w3.org/2000/svg" height="24px" viewBox="0 -960 960 960" width="24px" fill="#e3e3e3"><path d="M502.12-170.49q-30.58-30.48-30.58-74.04 0-43.55 30.49-74.12 30.48-30.58 74.03-30.58t74.13 30.49q30.58 30.48 30.58 74.03 0 43.56-30.49 74.13Q619.8-140 576.24-140q-43.55 0-74.12-30.49Zm105.61-42.55q13.04-13.04 13.04-31.58 0-18.53-13.04-31.57t-31.58-13.04q-18.54 0-31.57 13.04-13.04 13.04-13.04 31.57 0 18.54 13.04 31.58Q557.61-200 576.15-200t31.58-13.04Zm-89.69-265Q460-536.08 460-620q0-83.92 58.04-141.96Q576.08-820 660-820q83.92 0 141.96 58.04Q860-703.92 860-620q0 83.92-58.04 141.96Q743.92-420 660-420q-83.92 0-141.96-58.04ZM759.5-520.5Q800-561 800-620t-40.5-99.5Q719-760 660-760t-99.5 40.5Q520-679 520-620t40.5 99.5Q601-480 660-480t99.5-40.5ZM284.62-255.39q-59.66 0-102.14-42.48Q140-340.35 140-400t42.39-102.13q42.38-42.48 102.23-42.48 59.84 0 102.23 42.38 42.38 42.38 42.38 102.23t-42.48 102.23q-42.48 42.38-102.13 42.38Zm59.77-84.85q24.84-24.86 24.84-59.77 0-34.91-24.86-59.76t-59.77-24.85q-34.91 0-59.75 24.86Q200-434.9 200-399.99q0 34.91 24.86 59.76t59.77 24.85q34.91 0 59.76-24.86Zm231.76 95.62ZM660-620ZM284.62-400Z"/></svg>