<svg xmlns="http://www.w3.org/2000/svg" height="24px" viewBox="0 -960 960 960" width="24px" fill="#e3e3e3"><path d="M502.12-170.58q-30.58-30.57-30.58-74.04 0-43.46 30.58-74.03 30.57-30.58 74.03-30.58t74.04 30.58q30.58 30.57 30.58 74.03 0 43.47-30.58 74.04Q619.61-140 576.15-140q-43.46 0-74.03-30.58Zm15.92-307.46Q460-536.08 460-620q0-83.92 58.04-141.96Q576.08-820 660-820q83.92 0 141.96 58.04Q860-703.92 860-620q0 83.92-58.04 141.96Q743.92-420 660-420q-83.92 0-141.96-58.04ZM284.62-255.39q-59.85 0-102.23-42.38Q140-340.15 140-400t42.39-102.23q42.38-42.38 102.23-42.38 59.84 0 102.23 42.38 42.38 42.38 42.38 102.23t-42.38 102.23q-42.39 42.38-102.23 42.38Z"/></svg>