<svg xmlns="http://www.w3.org/2000/svg" height="24px" viewBox="0 -960 960 960" width="24px" fill="currentColor"><path d="m226.77-306.46 148.92-148.92q8.93-8.93 21.08-8.81 12.15.11 21.08 9.42 8.3 8.92 8.3 21.08 0 12.15-8.3 21.07L253.08-247.23q-10.85 10.84-25.31 10.84-14.46 0-25.31-10.84L120.69-329q-8.3-8.31-8.11-20.89.19-12.57 8.5-20.88 8.31-8.31 20.88-8.31 12.58 0 20.89 8.31l63.92 64.31Zm0-304.62L375.69-760q8.93-8.92 21.08-8.81 12.15.12 21.08 9.43 8.3 8.92 8.3 21.07 0 12.16-8.3 21.08L253.08-551.85Q242.23-541 227.77-541q-14.46 0-25.31-10.85l-81.77-81.77q-8.3-8.3-8.11-20.88.19-12.58 8.5-20.88 8.31-8.31 20.88-8.31 12.58 0 20.89 8.31l63.92 64.3Zm323.61 313.39q-12.77 0-21.38-8.62-8.62-8.61-8.62-21.38t8.62-21.39q8.61-8.61 21.38-8.61h280q12.77 0 21.39 8.61 8.61 8.62 8.61 21.39 0 12.77-8.61 21.38-8.62 8.62-21.39 8.62h-280Zm0-304.62q-12.77 0-21.38-8.61-8.62-8.62-8.62-21.39 0-12.77 8.62-21.38 8.61-8.62 21.38-8.62h280q12.77 0 21.39 8.62 8.61 8.61 8.61 21.38t-8.61 21.39q-8.62 8.61-21.39 8.61h-280Z"/></svg>