<svg xmlns="http://www.w3.org/2000/svg" height="24px" viewBox="0 -960 960 960" width="24px" fill="currentColor"><path d="m648.61-306.46 148.93-148.92q8.92-8.93 21.07-8.81 12.16.11 21.08 9.42 8.31 8.92 8.31 21.08 0 12.15-8.31 21.07L674.92-247.23q-10.84 10.84-25.31 10.84-14.46 0-25.3-10.84L542.54-329q-8.31-8.31-8.12-20.89.2-12.57 8.5-20.88 8.31-8.31 20.89-8.31 12.57 0 20.88 8.31l63.92 64.31Zm0-304.62L797.54-760q8.92-8.92 21.07-8.81 12.16.12 21.08 9.43 8.31 8.92 8.31 21.07 0 12.16-8.31 21.08L674.92-551.85Q664.08-541 649.61-541q-14.46 0-25.3-10.85l-81.77-81.77q-8.31-8.3-8.12-20.88.2-12.58 8.5-20.88 8.31-8.31 20.89-8.31 12.57 0 20.88 8.31l63.92 64.3ZM130-297.69q-12.77 0-21.38-8.62-8.62-8.61-8.62-21.38t8.62-21.39q8.61-8.61 21.38-8.61h280q12.77 0 21.38 8.61 8.62 8.62 8.62 21.39 0 12.77-8.62 21.38-8.61 8.62-21.38 8.62H130Zm0-304.62q-12.77 0-21.38-8.61-8.62-8.62-8.62-21.39 0-12.77 8.62-21.38 8.61-8.62 21.38-8.62h280q12.77 0 21.38 8.62 8.62 8.61 8.62 21.38t-8.62 21.39q-8.61 8.61-21.38 8.61H130Z"/></svg>