<svg xmlns="http://www.w3.org/2000/svg" height="24px" viewBox="0 -960 960 960" width="24px" fill="#e3e3e3"><path d="M191.54-115.39q-15.46 0-25.81-10.34-10.34-10.35-10.34-25.81v-90.38q0-29.93 21.19-51.12 21.19-21.19 51.11-21.19h47.39L299.77-490h-74.38q-12.77 0-21.39-8.62-8.61-8.61-8.61-21.38t8.61-21.38q8.62-8.62 21.39-8.62h509.22q12.77 0 21.39 8.62 8.61 8.61 8.61 21.38T756-498.62q-8.62 8.62-21.39 8.62h-74.38l24.69 175.77h47.39q29.92 0 51.11 21.19 21.19 21.19 21.19 51.12v90.38q0 15.46-10.34 25.81-10.35 10.34-25.81 10.34H191.54Zm124.62-482.3q-12.85 0-22.7-7.73-9.84-7.73-12.46-20.58l-33.38-150.15q-2-9.85 1.31-17.19 3.3-7.35 10.15-12.35 6.85-5 15.5-5.69 8.65-.69 17.27 4.15 15.69 7.69 32 11.96 16.31 4.27 34.61 4.27 27.46 0 51.73-9.31 24.27-9.3 44.96-24.23 5.85-3.84 12.12-5.77 6.27-1.92 12.73-1.92 6.46 0 12.73 1.92 6.27 1.93 12.12 5.77 20.69 14.93 44.96 24.23 24.27 9.31 51.34 9.31 18.31 0 34.43-4.58 16.11-4.57 32.57-12.65 9.23-3.84 17.77-3.04 8.54.81 15.39 5.81 6.84 5 10.46 12.54 3.61 7.54 1.61 16.77l-33.77 150.54q-2.61 12.84-12.46 20.38-9.84 7.54-22.69 7.54h-328.3Z"/></svg>