<svg xmlns="http://www.w3.org/2000/svg" width="24" height="24" viewBox="0 0 24 24" fill="currentColor">
  <path d="M3.5,15c0-.505.175-.933.525-1.283s.778-.525,1.283-.525h1.306c.171,0,.329.054.474.161.146.107.247.243.303.407.363.955.962,1.724,1.798,2.307.836.583,1.773.875,2.811.875s1.976-.292,2.811-.875c.836-.583,1.435-1.352,1.798-2.307.067-.164.17-.3.311-.407.14-.107.296-.161.466-.161h1.306c.505,0,.933.175,1.283.525s.525.778.525,1.283v3.385c0,.505-.175.933-.525,1.283s-.778.525-1.283.525H5.308c-.505,0-.933-.175-1.283-.525s-.525-.778-.525-1.283c0,0,0-3.385,0-3.385ZM3.5,5.616c0-.505.175-.933.525-1.283s.778-.525,1.283-.525h13.385c.505,0,.933.175,1.283.525s.525.778.525,1.283v3.385c0,.505-.175.933-.525,1.283-.35.35-.778.525-1.283.525h-1.306c-.17,0-.326-.054-.466-.161-.14-.107-.244-.243-.311-.407-.363-.955-.962-1.724-1.798-2.308-.836-.583-1.773-.875-2.811-.875s-1.976.292-2.811.875c-.836.583-1.435,1.353-1.798,2.307-.067.164-.17.3-.311.407-.14.107-.296.161-.466.161h-1.306c-.505,0-.933-.175-1.283-.525s-.525-.778-.525-1.283c0,0,0-3.384,0-3.384ZM9.466,11.466c.144-.144.322-.215.535-.215h1.25v-1.25c0-.213.072-.391.215-.535.144-.144.322-.215.535-.215s.391.072.535.215c.144.144.215.322.215.535v1.25h1.25c.213,0,.391.072.535.215.144.144.215.322.215.535s-.072.391-.215.535c-.143.144-.322.215-.535.215h-1.25v1.25c0,.213-.072.391-.215.535-.144.144-.322.215-.535.215s-.391-.072-.535-.215c-.144-.143-.215-.322-.215-.535v-1.25h-1.25c-.213,0-.391-.072-.535-.215-.144-.144-.215-.322-.215-.535s.072-.391.215-.535Z" />
</svg>