<svg xmlns="http://www.w3.org/2000/svg" height="24px" viewBox="0 -960 960 960" width="24px" fill="#e3e3e3"><path d="M240-100q-41.92 0-70.96-29.04Q140-158.08 140-200v-43.08q0-29.92 21.19-51.11 21.2-21.19 51.12-21.19H260v-472.31q0-29.92 21.19-51.12Q302.39-860 332.31-860h415.38q29.92 0 51.12 21.19Q820-817.61 820-787.69V-200q0 41.92-29.04 70.96Q761.92-100 720-100H240Zm480-60q17 0 28.5-11.5T760-200v-587.69q0-5.39-3.46-8.85t-8.85-3.46H332.31q-5.39 0-8.85 3.46t-3.46 8.85v472.31h287.69q29.93 0 51.12 21.19Q680-273 680-243.08V-200q0 17 11.5 28.5T720-160ZM397.69-612.31q-12.77 0-21.38-8.61-8.62-8.62-8.62-21.39 0-12.77 8.62-21.38 8.61-8.62 21.38-8.62h284.62q12.77 0 21.38 8.62 8.62 8.61 8.62 21.38t-8.62 21.39q-8.61 8.61-21.38 8.61H397.69Zm0 115.39q-12.77 0-21.38-8.62-8.62-8.61-8.62-21.38t8.62-21.39q8.61-8.61 21.38-8.61h284.62q12.77 0 21.38 8.61 8.62 8.62 8.62 21.39 0 12.77-8.62 21.38-8.61 8.62-21.38 8.62H397.69ZM240-160h380v-83.08q0-5.38-3.46-8.84-3.46-3.47-8.85-3.47H212.31q-5.39 0-8.85 3.47-3.46 3.46-3.46 8.84V-200q0 17 11.5 28.5T240-160Zm0 0h-40 420-380Z"/></svg>