<svg xmlns="http://www.w3.org/2000/svg" height="24px" viewBox="0 -960 960 960" width="24px" fill="#e3e3e3"><path d="M586.15-395.08 484.92-293.85Q474.08-283 460-283q-14.08 0-24.92-10.85l-330-329.23Q94.23-633.92 94.23-647q0-13.08 10.85-23.92l102.77-102.77q10.84-10.85 25.15-10.85 14.31 0 25.15 10.85l328 329.54Q597-433.31 597-419.62q0 13.7-10.85 24.54Zm136.77 280.16L572.46-265.39l42.15-42.15 150.47 150.46q8.3 8.31 8.5 20.89.19 12.57-8.5 21.27-8.7 8.69-21.08 8.69-12.38 0-21.08-8.69Zm-71.53-536.47q-36.77-36.76-36.77-88.61t36.77-88.61q36.76-36.77 88.61-36.77t88.61 36.77q36.77 36.76 36.77 88.61t-36.77 88.61q-36.76 36.77-88.61 36.77t-88.61-36.77Z"/></svg>