<svg xmlns="http://www.w3.org/2000/svg" height="24px" viewBox="0 -960 960 960" width="24px" fill="#e3e3e3"><path d="M600.77-140q-116.85 0-204.04-65.66-87.19-65.65-122.11-168.19h-110q-12.77 0-21.39-8.61-8.61-8.62-8.61-21.39 0-12.77 8.61-21.38 8.62-8.62 21.39-8.62h97q-3.77-23.61-3.27-48.73.5-25.11 3.27-43.57h-97q-12.77 0-21.39-8.62-8.61-8.61-8.61-21.38t8.61-21.39q8.62-8.61 21.39-8.61h110.77q34.53-102.54 121.53-168.19 87-65.66 203.85-65.66 56.08 0 106.65 16.42 50.58 16.43 94.04 46.89 10.54 7.31 11.35 19.58.8 12.26-8.12 20.57-9.31 9.31-22.07 9.62-12.77.3-23.31-6.77-34.54-22.16-74.58-34.23Q644.69-760 600.77-760q-92.31 0-160.66 49.31-68.34 49.31-100.03 124.54h228.38q12.77 0 21.39 8.61 8.61 8.62 8.61 21.39 0 12.77-8.61 21.38-8.62 8.62-21.39 8.62H322.62q-4.39 25.46-3.77 50.77.61 25.3 3.77 41.53h245.84q12.77 0 21.39 8.62 8.61 8.61 8.61 21.38t-8.61 21.39q-8.62 8.61-21.39 8.61H339.69q32.08 75.23 100.42 124.54Q508.46-200 600.77-200q43.92 0 84.15-12.38 40.23-12.39 74.39-34.54 10.54-7.08 23.31-6.46 12.76.61 22.07 9.92 8.92 8.31 8.12 20.57-.81 12.27-11.35 19.58-43.46 30.46-94.04 46.89Q656.85-140 600.77-140Z"/></svg>