<svg xmlns="http://www.w3.org/2000/svg" height="24px" viewBox="0 -960 960 960" width="24px" fill="currentColor"><path d="M480-140q-29.92 0-51.11-21.19-21.2-21.2-21.2-51.12v-565.15q0-21.31 11.66-39.08 11.65-17.77 31.34-26.61l113.46-49.69q36.54-15.85 68.89 5.92 32.34 21.77 32.34 60.77v6.15h122.31q29.92 0 51.12 21.19Q860-777.61 860-747.69v535.38q0 29.92-21.19 51.12Q817.61-140 787.69-140H480Zm-12.31-95.61L598.08-293q3.07-1.54 5.19-4.62 2.12-3.07 2.12-6.92v-521.61q0-6.54-5.58-10.2-5.58-3.65-11.73-.96L475-788q-3.08 1.54-5.19 4.62-2.12 3.07-2.12 6.92v540.85Zm72.77 33.69q.77.77 2.11 1.34 1.35.58 3.27.58h241.85q5.39 0 8.85-3.46t3.46-8.85v-535.38q0-5.39-3.46-8.85t-8.85-3.46H665.38v455.46q0 22.46-12.03 40.65-12.04 18.2-30.2 25.66l-82.69 36.31Zm-72.77-33.69v-549.31 549.31ZM132.31-755.38q-13.54 0-22.92-9.39-9.39-9.38-9.39-22.92 0-13.54 9.39-22.92 9.38-9.39 22.92-9.39 13.54 0 22.92 9.39 9.39 9.38 9.39 22.92 0 13.54-9.39 22.92-9.38 9.39-22.92 9.39Zm0 153.84q-13.54 0-22.92-9.38-9.39-9.39-9.39-22.93 0-13.53 9.39-22.92 9.38-9.38 22.92-9.38 13.54 0 22.92 9.38 9.39 9.39 9.39 22.92 0 13.54-9.39 22.93-9.38 9.38-22.92 9.38Zm-22.92 98.62q9.38-9.39 22.92-9.39 13.54 0 22.92 9.39 9.39 9.38 9.39 22.92 0 13.54-9.39 22.92-9.38 9.39-22.92 9.39-13.54 0-22.92-9.39Q100-466.46 100-480q0-13.54 9.39-22.92Zm22.92 209.07q-13.54 0-22.92-9.38-9.39-9.39-9.39-22.92 0-13.54 9.39-22.93 9.38-9.38 22.92-9.38 13.54 0 22.92 9.38 9.39 9.39 9.39 22.93 0 13.53-9.39 22.92-9.38 9.38-22.92 9.38Zm0 153.85q-13.54 0-22.92-9.39-9.39-9.38-9.39-22.92 0-13.54 9.39-22.92 9.38-9.39 22.92-9.39 13.54 0 22.92 9.39 9.39 9.38 9.39 22.92 0 13.54-9.39 22.92-9.38 9.39-22.92 9.39Zm130.92-9.39q-9.38-9.38-9.38-22.92 0-13.54 9.38-22.92 9.39-9.39 22.92-9.39 13.54 0 22.93 9.39 9.38 9.38 9.38 22.92 0 13.54-9.38 22.92-9.39 9.39-22.93 9.39-13.53 0-22.92-9.39Zm0-615.38q-9.38-9.38-9.38-22.92 0-13.54 9.38-22.92 9.39-9.39 22.92-9.39 13.54 0 22.93 9.39 9.38 9.38 9.38 22.92 0 13.54-9.38 22.92-9.39 9.39-22.93 9.39-13.53 0-22.92-9.39Z"/></svg>