<svg xmlns="http://www.w3.org/2000/svg" width="24" height="24" viewBox="0 0 24 24" fill="currentColor">
  <path d="M20.317,4.37c-1.556-.714-3.198-1.224-4.885-1.515-.031-.006-.063.009-.078.037-.211.375-.445.865-.608,1.25-1.845-.276-3.68-.276-5.487,0-.164-.393-.406-.874-.618-1.25-.016-.027-.047-.042-.078-.037-1.687.291-3.329.8-4.885,1.515-.013.006-.025.015-.032.028C.533,9.046-.319,13.58.099,18.058c.002.022.014.042.031.056,2.053,1.508,4.041,2.423,5.993,3.029.031.009.065-.002.084-.028.462-.63.873-1.295,1.226-1.994.019-.037.004-.083-.033-.102-.003-.001-.005-.003-.008-.004-.653-.248-1.274-.549-1.872-.892-.037-.022-.049-.069-.027-.105.005-.009.012-.016.02-.022.126-.094.252-.192.372-.291.022-.018.052-.022.078-.01,3.928,1.793,8.18,1.793,12.061,0,.026-.012.056-.009.079.01.12.099.246.198.373.292.034.026.041.074.015.108-.006.008-.013.015-.022.02-.598.349-1.225.648-1.873.891-.04.015-.059.059-.044.099.001.003.002.005.003.008.36.698.772,1.363,1.225,1.993.019.027.053.038.084.029,1.961-.607,3.95-1.522,6.002-3.029.018-.013.029-.033.031-.055.5-5.177-.838-9.674-3.549-13.66-.007-.013-.018-.023-.031-.029h0ZM8.02,15.331c-1.182,0-2.157-1.086-2.157-2.419s.956-2.419,2.157-2.419c1.211,0,2.176,1.095,2.157,2.419,0,1.333-.955,2.419-2.157,2.419ZM15.995,15.331c-1.182,0-2.157-1.086-2.157-2.419s.955-2.419,2.157-2.419c1.211,0,2.176,1.095,2.157,2.419,0,1.333-.946,2.419-2.157,2.419Z"/>
</svg>