<svg xmlns="http://www.w3.org/2000/svg" height="24px" viewBox="0 -960 960 960" width="24px" fill="currentColor"><path d="M243.85-180q-12.77 0-21.39-8.62-8.61-8.61-8.61-21.38t8.61-21.38q8.62-8.62 21.39-8.62h31.3l77.08-258.38q6.85-23.7 26.23-37.66Q397.85-550 421.54-550h116.92q23.69 0 43.08 13.96 19.38 13.96 26.23 37.66L684.85-240h31.3q12.77 0 21.39 8.62 8.61 8.61 8.61 21.38t-8.61 21.38q-8.62 8.62-21.39 8.62h-472.3Zm94.53-60h283.24L550-481.15q-1.15-4.24-4.42-6.54-3.27-2.31-7.5-2.31H421.92q-4.23 0-7.5 2.31-3.27 2.3-4.42 6.54L338.38-240ZM450-672.31v-120q0-12.77 8.62-21.38 8.61-8.62 21.38-8.62t21.38 8.62q8.62 8.61 8.62 21.38v120q0 12.77-8.62 21.39-8.61 8.61-21.38 8.61t-21.38-8.61q-8.62-8.62-8.62-21.39Zm206.92 60.93 85.39-85q8.31-8.31 20.57-8.43 12.27-.11 21.2 8.81 8.3 8.31 8.3 20.69 0 12.39-8.3 20.69l-85 86q-8.93 8.93-20.89 9.12-11.96.19-21.27-9.12-9.3-9.3-9.3-21.38 0-12.08 9.3-21.38ZM760-422.31h120q12.77 0 21.38 8.62 8.62 8.61 8.62 21.38t-8.62 21.39q-8.61 8.61-21.38 8.61H760q-12.77 0-21.38-8.61-8.62-8.62-8.62-21.39 0-12.77 8.62-21.38 8.61-8.62 21.38-8.62ZM260.92-569.23l-85-85.39q-8.3-8.3-8.42-20.57-.11-12.27 8.81-21.19 8.31-8.31 20.69-8.31t20.69 8.31l86 85q8.92 8.92 9.12 20.88.19 11.96-9.12 21.27-9.31 9.31-21.38 9.31-12.08 0-21.39-9.31ZM80-362.31q-12.77 0-21.38-8.61Q50-379.54 50-392.31q0-12.77 8.62-21.38 8.61-8.62 21.38-8.62h120q12.77 0 21.38 8.62 8.62 8.61 8.62 21.38t-8.62 21.39q-8.61 8.61-21.38 8.61H80ZM480-240Z"/></svg>