<svg xmlns="http://www.w3.org/2000/svg" height="24px" viewBox="0 -960 960 960" width="24px" fill="#e3e3e3"><path d="M181.23-220q-40.61 0-63.04-28.77-22.42-28.77-16.96-67.84L144-618.92q7.85-52.69 46.58-86.89Q229.31-740 282-740h396q52.69 0 91.42 34.19 38.73 34.2 46.58 86.89l42.77 302.31q5.46 39.07-16.96 67.84Q819.38-220 778.77-220q-17.15 0-31.5-5.77-14.35-5.77-26.65-18.08L624.46-340H335.54l-96.16 96.15q-12.3 12.31-26.65 18.08-14.35 5.77-31.5 5.77Zm16-66 114-114h337.54l114 114q2 2 15.23 6 11 0 17.5-6.5T800-304l-44-308q-4-29-26.19-48.5T678-680H282q-29.62 0-51.81 19.5T204-612l-44 308q-2 11 4.5 17.5T182-280q2.77 0 15.23-6Zm508.39-168.38q10.53-10.54 10.53-25.62 0-15.08-10.53-25.62-10.54-10.53-25.62-10.53-15.08 0-25.62 10.53-10.53 10.54-10.53 25.62 0 15.08 10.53 25.62 10.54 10.53 25.62 10.53 15.08 0 25.62-10.53Zm-80-120q10.53-10.54 10.53-25.62 0-15.08-10.53-25.62-10.54-10.53-25.62-10.53-15.08 0-25.62 10.53-10.53 10.54-10.53 25.62 0 15.08 10.53 25.62 10.54 10.53 25.62 10.53 15.08 0 25.62-10.53ZM480-480Zm-163.85-36.15V-470q0 10.31 6.77 17.08 6.77 6.77 17.08 6.77 10.31 0 17.08-6.77 6.77-6.77 6.77-17.08v-46.15H410q10.31 0 17.08-6.77 6.77-6.77 6.77-17.08 0-10.31-6.77-17.08-6.77-6.77-17.08-6.77h-46.15V-610q0-10.31-6.77-17.08-6.77-6.77-17.08-6.77-10.31 0-17.08 6.77-6.77 6.77-6.77 17.08v46.15H270q-10.31 0-17.08 6.77-6.77 6.77-6.77 17.08 0 10.31 6.77 17.08 6.77 6.77 17.08 6.77h46.15Z"/></svg>