<svg xmlns="http://www.w3.org/2000/svg" width="24" height="24" viewBox="0 0 24 24" fill="currentColor">
  <path d="M9.101,23.691v-7.98h-2.474v-3.667h2.474v-1.58c0-4.085,1.848-5.978,5.858-5.978.401,0,.955.042,1.468.103.384.04.765.105,1.141.195v3.325c-.217-.02-.435-.032-.653-.036-.244-.006-.489-.009-.733-.009-.707,0-1.259.096-1.675.309-.28.14-.515.356-.679.622-.258.42-.374.995-.374,1.752v1.297h3.919l-.386,2.103-.287,1.564h-3.246v8.245c5.942-.718,10.546-5.777,10.546-11.912C24,5.417,18.627.044,12,.044S0,5.417,0,12.044c0,5.628,3.874,10.35,9.101,11.647Z"/>
</svg>