<svg xmlns="http://www.w3.org/2000/svg" height="24px" viewBox="0 -960 960 960" width="24px" fill="currentColor"><path d="M388.46-542.31h44.62q15.07 0 25.23-10.15 10.15-10.16 10.15-25.23v-44.62q0-15.07-10.15-25.23-10.16-10.15-25.23-10.15h-62.31q-7.23 0-12.46 5.23T353.08-640v160q0 7.23 5.23 12.46t12.46 5.23q7.23 0 12.46-5.23t5.23-12.46v-62.31Zm0-35.38v-44.62h44.62v44.62h-44.62Zm199.23 115.38q15.08 0 25.23-10.15 10.16-10.16 10.16-25.23v-124.62q0-15.07-10.16-25.23-10.15-10.15-25.23-10.15h-60.77q-7.23 0-12.46 5.23T509.23-640v160q0 7.23 5.23 12.46t12.46 5.23h60.77Zm-43.08-35.38v-124.62h43.08v124.62h-43.08Zm158.47-44.62h30q7.23 0 12.46-5.23t5.23-12.46q0-7.23-5.23-12.46t-12.46-5.23h-30v-44.62h30q7.23 0 12.46-5.23t5.23-12.46q0-7.23-5.23-12.46t-12.46-5.23h-47.7q-7.23 0-12.46 5.23T667.69-640v160q0 7.23 5.23 12.46t12.46 5.23q7.23 0 12.46-5.23 5.24-5.23 5.24-12.46v-62.31ZM322.31-260Q292-260 271-281q-21-21-21-51.31v-455.38Q250-818 271-839q21-21 51.31-21h455.38Q808-860 829-839q21 21 21 51.31v455.38Q850-302 829-281q-21 21-51.31 21H322.31Zm0-60h455.38q4.62 0 8.46-3.85 3.85-3.84 3.85-8.46v-455.38q0-4.62-3.85-8.46-3.84-3.85-8.46-3.85H322.31q-4.62 0-8.46 3.85-3.85 3.84-3.85 8.46v455.38q0 4.62 3.85 8.46 3.84 3.85 8.46 3.85Zm-140 200Q152-120 131-141q-21-21-21-51.31v-485.38q0-12.77 8.62-21.39 8.61-8.61 21.38-8.61t21.39 8.61q8.61 8.62 8.61 21.39v485.38q0 4.62 3.85 8.46 3.84 3.85 8.46 3.85h485.38q12.77 0 21.39 8.61 8.61 8.62 8.61 21.39 0 12.77-8.61 21.38-8.62 8.62-21.39 8.62H182.31ZM310-800v480-480Z"/></svg>