<svg xmlns="http://www.w3.org/2000/svg" height="24px" viewBox="0 -960 960 960" width="24px" fill="currentColor"><path d="M258.62-258.62Q250-267.23 250-280v-400q0-12.77 8.62-21.38Q267.23-710 280-710t21.38 8.62Q310-692.77 310-680v400q0 12.77-8.62 21.38Q292.77-250 280-250t-21.38-8.62ZM538.15-480l162.93 162.92q8.3 8.31 8.5 20.89.19 12.57-8.5 21.27-8.7 8.69-21.08 8.69-12.38 0-21.08-8.69L479.15-454.69q-5.61-5.62-7.92-11.85-2.31-6.23-2.31-13.46t2.31-13.46q2.31-6.23 7.92-11.85l179.77-179.77q8.31-8.3 20.89-8.5 12.57-.19 21.27 8.5 8.69 8.7 8.69 21.08 0 12.38-8.69 21.08L538.15-480Z"/></svg>