<svg xmlns="http://www.w3.org/2000/svg" height="24px" viewBox="0 -960 960 960" width="24px" fill="currentColor"><path d="m216.16-664.46-52.93 52.31q-8.31 8.3-20.58 8.5-12.26.19-21.57-9.12-8.69-8.69-8.69-21.08 0-12.38 8.69-21.07l99.77-99.77q5.61-5.62 11.84-7.92 6.23-2.31 13.46-2.31 7.24 0 13.47 2.31 6.23 2.3 11.84 7.92l99.77 99.77q8.31 8.31 8.81 20.57.5 12.27-8.81 21.58-8.69 8.69-20.77 9-12.07.31-21.38-8.38l-52.93-52.31v368.92l52.93-52.31q8.31-8.3 20.57-8.5 12.27-.19 21.58 9.12 8.69 8.69 8.69 21.08 0 12.38-8.69 21.07l-99.77 99.77q-5.61 5.62-11.84 7.92-6.23 2.31-13.47 2.31-7.23 0-13.46-2.31-6.23-2.3-11.84-7.92l-99.77-99.77q-8.31-8.31-8.81-20.57-.5-12.27 8.81-21.58 8.69-8.69 20.77-9 12.07-.31 21.38 8.38l52.93 52.31v-368.92ZM517.31-220q-12.39 0-21-8.62-8.62-8.61-8.62-21.38t8.62-21.38q8.61-8.62 21.38-8.62h310.39q13.53 0 22.73 9.19 9.19 9.19 9.19 22.73 0 13.54-9.58 22.93-9.58 9.38-23.11 9.38l-310-4.23Zm.38-230q-12.77 0-21.38-8.62-8.62-8.61-8.62-21.38t8.62-21.38q8.61-8.62 21.38-8.62H830q12.77 0 21.38 8.62Q860-492.77 860-480t-8.62 21.38Q842.77-450 830-450H517.69Zm0-230q-12.77 0-21.38-8.81-8.62-8.8-8.62-21.57t8.43-21.2q8.42-8.42 21.19-8.42l310.38-4.23q13.54 0 22.92 9.19 9.39 9.19 9.39 22.73 0 13.54-9.39 22.93-9.38 9.38-22.92 9.38h-310Z"/></svg>