<svg xmlns="http://www.w3.org/2000/svg" width="24" height="24" viewBox="0 0 24 24" fill="currentColor">
  <path d="M23.6,9.593l-.034-.086L20.3.981c-.066-.167-.184-.309-.336-.405-.312-.193-.711-.172-1,.054-.14.113-.241.267-.29.44l-2.205,6.748H7.537L5.332,1.07c-.048-.174-.149-.328-.29-.441-.289-.226-.688-.247-1-.054-.152.096-.269.238-.336.405L.433,9.502l-.032.086c-.966,2.524-.146,5.383,2.012,7.01l.011.009.03.021,4.976,3.726,2.462,1.863,1.5,1.132c.36.274.859.274,1.22,0l1.5-1.132,2.462-1.863,5.006-3.749.013-.01c2.153-1.628,2.971-4.482,2.009-7.003Z"/>
</svg>