<svg xmlns="http://www.w3.org/2000/svg" width="24" height="24" viewBox="0 0 24 24" fill="currentColor">
  <path d="M3.963,7.235c-1.498,0-2.868.845-3.541,2.184-.563,1.12-.563,2.439,0,3.559.673,1.339,2.043,2.184,3.541,2.184,1.07,0,1.97-.352,2.627-.957.748-.69,1.18-1.71,1.18-2.916,0-.27-.024-.54-.07-.806h-3.736v1.526h2.14c-.088.493-.373.928-.79,1.205-.356.241-.814.379-1.35.379-1.034,0-1.911-.697-2.225-1.636-.166-.492-.166-1.025,0-1.517.314-.94,1.191-1.636,2.225-1.636.565-.009,1.111.204,1.52.594l1.132-1.13c-.717-.674-1.668-1.044-2.652-1.033h-.001ZM10.464,7.785v6.9h.886v-2.795h1.465c.603,0,1.11-.196,1.522-.588.415-.372.647-.907.635-1.464.008-.554-.223-1.085-.635-1.456-.407-.394-.955-.61-1.522-.598h-2.351ZM12.891,8.635c.312.005.609.137.823.365.466.453.476,1.197.023,1.663-.008.008-.015.015-.023.023-.229.237-.547.367-.877.357h-1.487v-2.408h1.487c.018,0,.036,0,.054,0ZM17.015,9.81c-.842,0-1.477.308-1.907.925l.781.491c.288-.417.68-.626,1.175-.626.316-.004.621.111.856.323.234.193.368.482.366.785v.202c-.34-.193-.774-.289-1.3-.289-.617,0-1.11.145-1.479.434-.37.288-.554.677-.554,1.165-.008.445.185.869.525,1.156.35.308.785.463,1.305.463.61,0,1.098-.27,1.465-.81h.038v.655h.848v-2.909c0-.61-.19-1.09-.568-1.44-.38-.35-.896-.525-1.551-.525ZM19.278,9.964l1.946,4.422-1.098,2.38h.915l2.959-6.803h-.965l-1.368,3.391h-.02l-1.406-3.39h-.963ZM17.132,12.332c.494,0,.88.11,1.156.33,0,.372-.147.696-.44.973-.264.265-.623.413-.997.414-.25.005-.494-.077-.69-.232-.185-.134-.294-.349-.293-.578,0-.257.12-.47.363-.647.24-.173.54-.26.9-.26h.001Z"/>
</svg>