<svg xmlns="http://www.w3.org/2000/svg" height="24px" viewBox="0 -960 960 960" width="24px" fill="currentColor"><path d="M89.99-220q-12.76 0-21.37-8.63Q60-237.25 60-250v-500q0-12.75 8.63-21.37Q77.26-780 90.01-780q12.76 0 21.37 8.63Q120-762.75 120-750v350h330v-240q0-24.54 17.73-42.27Q485.46-700 510-700h250q57.75 0 98.87 41.13Q900-617.75 900-560v310q0 12.75-8.63 21.37-8.63 8.63-21.38 8.63-12.76 0-21.37-8.63Q840-237.25 840-250v-90H120v90q0 12.75-8.63 21.37-8.63 8.63-21.38 8.63ZM207.5-487.55q-29.81-29.85-29.81-72.5 0-42.64 29.86-72.45 29.85-29.81 72.5-29.81 42.64 0 72.45 29.86 29.81 29.85 29.81 72.5 0 42.64-29.86 72.45-29.85 29.81-72.5 29.81-42.64 0-72.45-29.86ZM510-400h330v-160q0-33-23.5-56.5T760-640H510v240ZM310.04-529.96q12.27-12.27 12.27-30.04t-12.27-30.04q-12.27-12.27-30.04-12.27t-30.04 12.27q-12.27 12.27-12.27 30.04t12.27 30.04q12.27 12.27 30.04 12.27t30.04-12.27ZM280-560Zm230-80v240-240Z"/></svg>
