<svg xmlns="http://www.w3.org/2000/svg" width="24" height="24" viewBox="0 0 24 24" fill="currentColor">
  <path d="M5.285,0C2.373-.007.007,2.349,0,5.261c0,.008,0,.016,0,.024v13.43c-.007,2.912,2.349,5.278,5.261,5.285.008,0,.016,0,.024,0h13.43c2.912.007,5.278-2.349,5.285-5.261,0-.008,0-.016,0-.024V5.285C24.007,2.373,21.651.007,18.739,0c-.008,0-.016,0-.024,0H5.285ZM12,4.154c4.865,0,8.809,3.285,8.809,7.337h0c0,4.053-3.944,7.337-8.809,7.337-.844-.001-1.683-.103-2.492-.303-1.049.695-2.274,1.176-3.578,1.405.672-.65,1.193-1.378,1.54-2.155-2.651-1.324-4.275-3.708-4.279-6.283,0-4.052,3.943-7.337,8.808-7.338h.001"/>
</svg>