<svg xmlns="http://www.w3.org/2000/svg" width="24" height="24" viewBox="0 0 24 24" fill="currentColor">
  <path d="M8.273,3.064c-.958.045-1.612.198-2.183.422-.591.231-1.093.54-1.592,1.041-.499.501-.806,1.003-1.035,1.595-.222.573-.372,1.227-.414,2.186-.042.958-.051,1.266-.047,3.71.004,2.443.015,2.75.062,3.71.046.957.198,1.611.422,2.183.231.591.54,1.093,1.041,1.592.501.499,1.002.805,1.596,1.035.572.221,1.227.372,2.185.414.958.042,1.266.051,3.71.047s2.751-.015,3.711-.061,1.61-.199,2.182-.422c.591-.231,1.093-.54,1.592-1.041s.806-1.003,1.034-1.596c.222-.572.372-1.227.414-2.184.042-.96.052-1.267.047-3.711s-.015-2.75-.061-3.71-.198-1.612-.422-2.184c-.231-.591-.54-1.093-1.041-1.592s-1.003-.806-1.596-1.034c-.573-.222-1.227-.373-2.185-.414s-1.266-.052-3.71-.048c-2.444.004-2.75.015-3.71.062M8.378,19.332c-.877-.038-1.354-.184-1.671-.306-.42-.162-.72-.358-1.036-.671s-.511-.614-.675-1.034c-.123-.318-.272-.793-.313-1.671-.044-.948-.054-1.233-.059-3.636s.004-2.687.046-3.636c.037-.877.184-1.354.306-1.671.162-.421.357-.72.671-1.036s.614-.511,1.034-.675c.317-.124.793-.271,1.67-.313.949-.045,1.234-.054,3.636-.059,2.402-.005,2.688.004,3.637.046.877.038,1.354.183,1.671.306.42.162.72.357,1.036.671s.511.613.676,1.034c.124.316.271.792.312,1.669.045.949.055,1.234.06,3.636s-.004,2.688-.046,3.636c-.039.877-.184,1.354-.306,1.672-.162.42-.357.72-.672,1.036s-.614.511-1.034.675c-.317.123-.793.271-1.669.313-.949.044-1.234.054-3.637.059s-2.687-.004-3.636-.046M15.715,7.19c.001.597.485,1.079,1.082,1.078s1.079-.485,1.078-1.082c-.001-.597-.485-1.079-1.082-1.078h0c-.597.001-1.079.485-1.078,1.082M7.379,12.009c.005,2.552,2.078,4.617,4.63,4.612,2.552-.005,4.617-2.078,4.613-4.63-.005-2.552-2.078-4.617-4.63-4.612s-4.617,2.078-4.612,4.63M9.001,12.006c-.003-1.657,1.337-3.003,2.994-3.006,1.657-.003,3.003,1.337,3.006,2.994.003,1.657-1.337,3.003-2.994,3.006-1.657.003-3.003-1.336-3.006-2.993h0"/>
</svg>
