<svg xmlns="http://www.w3.org/2000/svg" width="24" height="24" viewBox="0 0 24 24" fill="currentColor">
  <path d="M7.03.084c-1.277.06-2.149.264-2.911.563-.789.308-1.457.72-2.123,1.388-.665.668-1.075,1.337-1.38,2.127-.295.764-.496,1.636-.552,2.914C.008,8.354-.005,8.764.001,12.023c.006,3.259.021,3.667.083,4.947.061,1.277.264,2.148.564,2.911.308.789.72,1.457,1.388,2.123.668.666,1.337,1.074,2.128,1.38.763.295,1.636.496,2.913.552,1.277.056,1.688.069,4.946.063,3.258-.006,3.668-.021,4.948-.081,1.28-.061,2.147-.265,2.91-.563.789-.309,1.458-.72,2.123-1.388.665-.668,1.074-1.338,1.379-2.128.296-.763.497-1.636.552-2.912.056-1.281.069-1.69.063-4.948-.006-3.258-.021-3.667-.082-4.946s-.264-2.149-.563-2.912c-.308-.789-.72-1.457-1.388-2.123-.668-.666-1.338-1.075-2.128-1.38-.764-.296-1.636-.497-2.913-.552C15.647.009,15.236-.005,11.977.001c-3.259.006-3.667.02-4.947.082M7.17,21.777c-1.17-.051-1.805-.245-2.229-.408-.561-.216-.96-.477-1.382-.895-.422-.418-.681-.819-.9-1.378-.164-.423-.362-1.058-.417-2.228-.059-1.264-.072-1.644-.079-4.848-.007-3.204.005-3.583.061-4.848.05-1.169.246-1.805.408-2.228.216-.561.476-.96.895-1.382.419-.422.818-.681,1.378-.9.423-.165,1.057-.361,2.227-.417,1.266-.06,1.645-.072,4.848-.079s3.583.005,4.85.061c1.169.051,1.805.244,2.228.408.561.216.96.475,1.382.895.422.419.682.818.9,1.379.165.422.362,1.056.417,2.226.06,1.266.074,1.645.08,4.848.006,3.203-.006,3.583-.061,4.848-.051,1.17-.245,1.806-.408,2.229-.216.56-.476.96-.895,1.381-.419.421-.818.681-1.378.9-.422.165-1.058.362-2.226.417-1.266.059-1.645.072-4.849.079s-3.583-.006-4.848-.061M16.953,5.586c.001.795.647,1.439,1.442,1.438.795-.001,1.439-.647,1.438-1.442-.001-.795-.647-1.439-1.442-1.438,0,0,0,0,0,0-.795.002-1.438.647-1.437,1.442M5.839,12.012c.007,3.403,2.771,6.156,6.173,6.149,3.403-.007,6.157-2.77,6.151-6.173-.007-3.403-2.771-6.156-6.174-6.15s-6.156,2.771-6.15,6.174M8,12.008c-.004-2.209,1.783-4.004,3.992-4.008,2.209-.004,4.004,1.783,4.008,3.992.004,2.209-1.783,4.003-3.992,4.008-2.209.005-4.003-1.782-4.008-3.991,0,0,0,0,0,0"/>
</svg>