<svg xmlns="http://www.w3.org/2000/svg" height="24px" viewBox="0 -960 960 960" width="24px" fill="#e3e3e3"><path d="m125.69-585.15 123.54-219.16q5.62-9.84 13.66-14.27 8.05-4.42 17.89-4.42t17.87 4.42q8.04 4.43 13.66 14.27l123.54 219.16q5 9.08 4.5 18.17-.5 9.09-5.17 17.27-4.66 8.17-12.65 13.17t-18.28 5H157.29q-10.29 0-18.28-5-7.99-5-12.65-13.17-4.67-8.18-5.17-17.27t4.5-18.17Zm49 411.61Q130.77-217.46 130.77-280q0-62.54 43.92-106.46 43.93-43.92 106.46-43.92 62.54 0 106.46 43.92 43.93 43.92 43.93 106.46 0 62.54-43.93 106.46-43.92 43.92-106.46 43.92-62.53 0-106.46-43.92Zm355.7 7.77v-228.46q0-15.37 10.39-25.76 10.39-10.39 25.76-10.39H795q15.36 0 25.76 10.39 10.39 10.39 10.39 25.76v228.46q0 15.37-10.39 25.76-10.4 10.39-25.76 10.39H566.54q-15.37 0-25.76-10.39-10.39-10.39-10.39-25.76Zm127.07-385.08-43.77-36.53q-60.53-49.93-88.65-84.77-28.12-34.85-28.12-76.23 0-40.39 27.47-67.54 27.46-27.16 69.07-27.16 25.46 0 47.61 12.12 22.16 12.12 39.7 34.88 17.54-22.38 40.08-34.69 22.53-12.31 47.61-12.31 41.08 0 68.62 27.77 27.53 27.77 27.53 68.08 0 41-28.11 75.46-28.12 34.46-88.65 84.39l-43.77 36.53q-9.87 8.85-23.32 8.85-13.45 0-23.3-8.85Z"/></svg>