<svg xmlns="http://www.w3.org/2000/svg" height="24px" viewBox="0 -960 960 960" width="24px" fill="#e3e3e3"><path d="M421.85-480 258.92-642.92q-8.3-8.31-8.5-20.89-.19-12.57 8.5-21.27 8.7-8.69 21.08-8.69 12.38 0 21.08 8.69l179.77 179.77q5.61 5.62 7.92 11.85 2.31 6.23 2.31 13.46t-2.31 13.46q-2.31 6.23-7.92 11.85L301.08-274.92q-8.31 8.3-20.89 8.5-12.57.19-21.27-8.5-8.69-8.7-8.69-21.08 0-12.38 8.69-21.08L421.85-480Zm279.53-221.38Q710-692.77 710-680v400q0 12.77-8.62 21.38Q692.77-250 680-250t-21.38-8.62Q650-267.23 650-280v-400q0-12.77 8.62-21.38Q667.23-710 680-710t21.38 8.62Z"/></svg>