<svg xmlns="http://www.w3.org/2000/svg" height="24px" viewBox="0 -960 960 960" width="24px" fill="currentColor"><path d="m298.77-215.77 52.92 53.31q8.31 8.31 8.31 20.57 0 12.27-8.92 21.2-8.31 8.69-21.08 8.5-12.77-.2-21.08-8.5l-99.76-99.77q-10.85-10.85-10.85-25.31 0-14.46 10.85-25.31l99.76-99.38q8.31-8.31 20.58-8.5 12.27-.19 21.58 8.5 9.3 9.31 9.3 21.38 0 12.08-9.3 21.39l-52.31 51.92h362.08l-52.54-52.54q-8.31-8.31-8.5-20.58-.19-12.26 9.11-21.57 8.69-8.69 21.08-8.69 12.38 0 21.08 8.69l99.38 99.38q10.85 10.85 10.85 25.31 0 14.46-10.85 25.31l-99.77 99.77q-8.31 8.3-20.58 8.5-12.26.19-21.57-8.5-9.31-9.31-9.31-21.39 0-12.07 9.31-21.38l52.31-52.31H298.77Zm-70.15-282.85Q220-507.23 220-520v-310q0-12.77 8.62-21.38Q237.23-860 250-860t21.38 8.62Q280-842.77 280-830v310q0 12.77-8.62 21.38Q262.77-490 250-490t-21.38-8.62Zm230 0Q450-507.23 450-520v-310q0-12.77 8.62-21.38Q467.23-860 480-860t21.38 8.62Q510-842.77 510-830v310q0 12.77-8.62 21.38Q492.77-490 480-490t-21.38-8.62Zm230 0Q680-507.23 680-520v-310q0-12.77 8.62-21.38Q697.23-860 710-860t21.38 8.62Q740-842.77 740-830v310q0 12.77-8.62 21.38Q722.77-490 710-490t-21.38-8.62Z"/></svg>