<svg xmlns="http://www.w3.org/2000/svg" width="24" height="24" viewBox="0 0 24 24" fill="currentColor">
  <path d="M19,3H5c-1.104,0-2,.895-2,2v14c0,1.104.895,2,2,2h14c1.104,0,2-.895,2-2V5c0-1.104-.895-2-2-2ZM8.442,18.5h-2.684v-8.667h2.684v8.667ZM7.087,8.698c-.877,0-1.587-.716-1.587-1.599s.71-1.599,1.587-1.599,1.587.716,1.587,1.599-.71,1.599-1.587,1.599ZM18.5,18.5h-2.671v-4.549c0-1.248-.474-1.945-1.461-1.945-1.074,0-1.635.726-1.635,1.945v4.549h-2.574v-8.667h2.574v1.167s.774-1.432,2.613-1.432,3.154,1.122,3.154,3.444v5.487h0Z"/>
</svg>
