<svg xmlns="http://www.w3.org/2000/svg" height="24px" viewBox="0 -960 960 960" width="24px" fill="currentColor"><path d="M377.69-180q-25.31 0-43.04-17.73t-17.73-43.04q0-25.31 17.73-43.04t43.04-17.73h421.54q25.31 0 43.04 17.73T860-240.77q0 25.31-17.73 43.04T799.23-180H377.69Zm0-239.23q-25.31 0-43.04-17.73T316.92-480q0-25.31 17.73-43.04t43.04-17.73h421.54q25.31 0 43.04 17.73T860-480q0 25.31-17.73 43.04t-43.04 17.73H377.69Zm0-239.23q-25.31 0-43.04-17.73t-17.73-43.04q0-25.31 17.73-43.04T377.69-780h421.54q25.31 0 43.04 17.73T860-719.23q0 25.31-17.73 43.04t-43.04 17.73H377.69Zm-259.96-17.73Q100-693.92 100-719.23t17.73-43.04Q135.46-780 160.77-780t43.04 17.73q17.73 17.73 17.73 43.04t-17.73 43.04q-17.73 17.73-43.04 17.73t-43.04-17.73Zm43.04 256.96q-25.31 0-43.04-17.73T100-480q0-25.31 17.73-43.04t43.04-17.73q25.31 0 43.04 17.73T221.54-480q0 25.31-17.73 43.04t-43.04 17.73Zm0 239.23q-25.31 0-43.04-17.73T100-240.77q0-25.31 17.73-43.04t43.04-17.73q25.31 0 43.04 17.73t17.73 43.04q0 25.31-17.73 43.04T160.77-180Z"/></svg>