<svg xmlns="http://www.w3.org/2000/svg" height="24px" viewBox="0 -960 960 960" width="24px" fill="#e3e3e3"><path d="M480-179.46q117.38-105.08 179.65-201.58 62.27-96.5 62.27-169.04 0-109.38-69.5-179.84-69.5-70.46-172.42-70.46-102.92 0-172.42 70.46-69.5 70.46-69.5 179.84 0 72.54 62.27 169.04 62.27 96.5 179.65 201.58Zm-23.38 53.04q-11.7-4.04-21.16-12.5-53.84-49.62-100.77-102.2-46.92-52.57-81.57-105.11-34.66-52.54-54.85-104.15-20.19-51.62-20.19-99.7 0-138.46 89.57-224.19Q357.23-860 480-860t212.35 85.73q89.57 85.73 89.57 224.19 0 48.08-20.19 99.5-20.19 51.43-54.65 104.16-34.47 52.73-81.39 105.11-46.92 52.39-100.77 102-9.46 8.46-21.34 12.69-11.89 4.23-23.58 4.23-11.69 0-23.38-4.03ZM480-557.69Zm0 158.54q50.54-46.54 78.04-74.04 27.5-27.5 42.96-45.96 14.85-18.47 20.77-33.93t5.92-34.3q0-33.31-23.88-57.39-23.89-24.08-57.2-24.08-19.46 0-37.42 7.93Q491.23-653 480-639.15q-11.23-13.85-28.88-21.77-17.66-7.93-37.73-7.93-33.31 0-57.2 24.08-23.88 24.08-23.88 57.39 0 19.46 5.61 34.11 5.62 14.65 20.08 33.12 15.46 18.46 42.54 45.96T480-399.15Z"/></svg>