<svg xmlns="http://www.w3.org/2000/svg" height="24px" viewBox="0 -960 960 960" width="24px" fill="#e3e3e3"><path d="M575.85-330.15q40.46-35.93 48.69-89.31 1.61-9.23-4.31-15.46t-15.77-6.23H355.15q-9.23 0-15.46 6.23t-4.61 15.46q8.23 53.38 48.88 89.31 40.66 35.92 96.04 35.92 55.38 0 95.85-35.92ZM480-100q-70.77 0-132.61-26.96-61.85-26.96-107.85-72.96-46-46-72.77-108.23-26.77-62.24-26.77-133v-346.54q0-29.92 21.19-51.12Q182.39-860 212.31-860h535.38q29.92 0 51.12 21.19Q820-817.61 820-787.69v346.54q0 70.76-26.77 133-26.77 62.23-72.77 108.23-46 46-107.85 72.96Q550.77-100 480-100Zm0-60q116 0 198-82.19t82-198.96v-346.54q0-5.39-3.46-8.85t-8.85-3.46H212.31q-5.39 0-8.85 3.46t-3.46 8.85v346.54q0 116.77 81.81 198.96Q363.62-160 480-160Zm0 0q-116.38 0-198.19-82.19T200-441.15V-800h560v358.85q0 116.77-82 198.96Q596-160 480-160ZM320.39-652.85q-18.77 14.47-25.62 36.54-2.62 8.23 2.81 14.96 5.42 6.74 15.27 6.74h101.23q9.23 0 14.84-6.74 5.62-6.73 3.62-14.96-7.23-22.07-26-36.54-18.77-14.46-43.08-14.46t-43.07 14.46Zm232.88 0q-18.58 14.47-25.81 36.16-2.61 8.23 2.81 14.96t15.27 6.73h101.23q9.23 0 14.65-6.73 5.43-6.73 3.43-14.96-7.24-21.69-25.81-36.16-18.58-14.46-42.89-14.46-24.3 0-42.88 14.46Z"/></svg>