<svg xmlns="http://www.w3.org/2000/svg" width="24" height="24" viewBox="0 0 24 24" fill="currentColor">
  <path d="M20.469,6.985c-.263-1.934-1.967-3.458-3.987-3.754-.341-.05-1.632-.232-4.623-.232h-.022c-2.992,0-3.634.182-3.974.232-1.964.287-3.757,1.657-4.192,3.614-.209.964-.232,2.032-.193,3.012.055,1.406.066,2.809.195,4.208.089.93.245,1.852.466,2.761.413,1.677,2.088,3.073,3.728,3.642,1.756.594,3.645.692,5.455.284.199-.046.396-.099.59-.16.439-.138.955-.293,1.333-.565.005-.004.01-.009.013-.014s.005-.012.005-.019v-1.357c0-.006-.002-.012-.004-.017-.002-.005-.007-.01-.011-.014s-.01-.006-.016-.008c-.006-.001-.012-.001-.018,0-1.159.274-2.348.411-3.539.409-2.051,0-2.603-.963-2.761-1.364-.127-.346-.208-.708-.24-1.075,0-.006,0-.013.004-.018.002-.005.007-.011.011-.014s.011-.007.017-.008.013-.001.019,0c1.14.272,2.309.409,3.482.409.282,0,.563,0,.845-.007,1.18-.033,2.423-.092,3.583-.317.029-.006.058-.011.083-.018,1.831-.347,3.572-1.439,3.749-4.202.007-.109.023-1.139.023-1.253,0-.384.125-2.722-.018-4.159v.002ZM17.651,13.881h-1.925v-4.663c0-.982-.413-1.483-1.255-1.483-.925,0-1.388.592-1.388,1.762v2.552h-1.913v-2.552c0-1.17-.464-1.762-1.389-1.762-.836,0-1.254.5-1.255,1.483v4.663h-1.923v-4.805c0-.982.253-1.762.76-2.34.523-.577,1.208-.873,2.06-.873.985,0,1.73.374,2.226,1.123l.479.795.48-.795c.496-.749,1.241-1.123,2.224-1.123.85,0,1.536.296,2.06.873.507.578.76,1.358.76,2.34l-.002,4.805h0Z"/>
</svg>
