<svg xmlns="http://www.w3.org/2000/svg" width="24" height="24" viewBox="0 0 24 24" fill="currentColor">
  <path d="M11.507,16.524c.043.037.09.074.136.11-.883.587-1.943.929-3.08.929-3.073,0-5.563-2.489-5.563-5.561s2.49-5.562,5.562-5.562c1.139,0,2.198.342,3.079.929-.045.038-.09.074-.124.113-1.317,1.138-2.071,2.787-2.071,4.521s.751,3.383,2.061,4.523ZM15.438,6.438c-1.14,0-2.198.342-3.079.929.045.038.09.074.124.113,1.317,1.138,2.071,2.787,2.071,4.521s-.751,3.38-2.061,4.523c-.043.037-.09.074-.136.11.883.587,1.941.929,3.08.929,3.073,0,5.563-2.489,5.563-5.561s-2.49-5.562-5.562-5.562Z"/>
</svg>
