<svg xmlns="http://www.w3.org/2000/svg" height="24px" viewBox="0 -960 960 960" width="24px" fill="#e3e3e3"><path d="M252.31-100Q222-100 201-121q-21-21-21-51.31v-83.08h-10q-12.77 0-21.38-8.61-8.62-8.62-8.62-21.39 0-12.15 10.46-17.69 10.46-5.54 19.54-12.3h10V-450h-10q-12.77 0-21.38-8.62Q140-467.23 140-480q0-12.15 10.46-17.69Q160.92-503.23 170-510h10v-134.62h-10q-12.77 0-21.38-8.61-8.62-8.62-8.62-21.38 0-12.16 10.46-17.7 10.46-5.54 19.54-12.3h10v-83.08Q180-818 201-839q21-21 51.31-21h455.38Q738-860 759-839q21 21 21 51.31v615.38Q780-142 759-121q-21 21-51.31 21H252.31Zm141.54-345.77V-310q0 10.31 6.77 17.08 6.77 6.77 17.07 6.77 10.31 0 17.08-6.77 6.77-6.77 6.77-17.08v-135.77q24.84-6.23 41.65-26T500-517v-139.15q0-7.23-5.23-12.46-5.23-5.24-12.46-5.24t-12.46 5.24q-5.23 5.23-5.23 12.46v131.77h-29.23v-131.77q0-7.23-5.24-12.46-5.23-5.24-12.46-5.24t-12.46 5.24q-5.23 5.23-5.23 12.46v131.77h-29.23v-131.77q0-7.23-5.23-12.46-5.23-5.24-12.46-5.24t-12.46 5.24q-5.23 5.23-5.23 12.46V-517q0 25.46 16.8 45.23 16.81 19.77 41.66 26Zm203.07-.38V-310q0 10.31 6.77 17.08 6.77 6.77 17.08 6.77 10.31 0 17.08-6.77 6.76-6.77 6.76-17.08v-343.54q0-9.84-6.53-15.07-6.54-5.24-17-5.24-11.85 0-26 6.62-14.16 6.62-27 20.23-15.08 15.85-23.12 35.62-8.04 19.76-8.04 42.84v86.23q0 15.46 10.35 25.81 10.34 10.35 25.81 10.35h23.84Z"/></svg>