<svg xmlns="http://www.w3.org/2000/svg" height="24px" viewBox="0 -960 960 960" width="24px" fill="currentColor"><path d="M292.31-60q-29.92 0-51.12-21.19Q220-102.39 220-132.31v-695.38Q220-858 241-879q21-21 51.31-21h376.92q29.92 0 51.11 21.19 21.2 21.2 21.2 51.12v126.31q16.46 4.3 27.46 17.19 11 12.88 11 29.96v75.38q0 17.08-11 29.97-11 12.88-27.46 17.19v399.38q0 29.92-21.2 51.12Q699.15-60 669.23-60H292.31ZM506-724q10.15-10.15 10.15-25.23T506-774.46q-10.15-10.15-25.23-10.15t-25.23 10.15q-10.15 10.15-10.15 25.23T455.54-724q10.15 10.15 25.23 10.15T506-724Z"/></svg>