<svg xmlns="http://www.w3.org/2000/svg" height="24px" viewBox="0 -960 960 960" width="24px" fill="#e3e3e3"><path d="M352.54-352.54Q300-405.08 300-480q0-74.92 52.54-127.46Q405.08-660 480-660q74.92 0 127.46 52.54Q660-554.92 660-480q0 74.92-52.54 127.46Q554.92-300 480-300q-74.92 0-127.46-52.54ZM80-450q-12.77 0-21.38-8.62Q50-467.23 50-480t8.62-21.38Q67.23-510 80-510h90q12.77 0 21.38 8.62Q200-492.77 200-480t-8.62 21.38Q182.77-450 170-450H80Zm710 0q-12.77 0-21.38-8.62Q760-467.23 760-480t8.62-21.38Q777.23-510 790-510h90q12.77 0 21.38 8.62Q910-492.77 910-480t-8.62 21.38Q892.77-450 880-450h-90ZM458.62-768.62Q450-777.23 450-790v-90q0-12.77 8.62-21.38Q467.23-910 480-910t21.38 8.62Q510-892.77 510-880v90q0 12.77-8.62 21.38Q492.77-760 480-760t-21.38-8.62Zm0 710Q450-67.23 450-80v-90q0-12.77 8.62-21.38Q467.23-200 480-200t21.38 8.62Q510-182.77 510-170v90q0 12.77-8.62 21.38Q492.77-50 480-50t-21.38-8.62ZM240.23-678.38l-50.31-48.93q-8.92-8.31-8.61-20.88.31-12.58 8.61-21.89 9.31-9.3 21.7-9.3 12.38 0 21.07 9.3L282-720.15q8.69 9.3 8.69 21.07T282-678q-8.31 9.31-20.38 8.81-12.08-.5-21.39-9.19Zm487.08 488.46L678-239.85q-8.69-9.3-8.69-21.38 0-12.08 8.69-20.77 8.31-9.31 20.38-8.81 12.08.5 21.39 9.19l50.31 48.93q8.92 8.31 8.61 20.88-.31 12.58-8.61 21.89-9.31 9.3-21.7 9.3-12.38 0-21.07-9.3ZM678-678q-9.31-8.31-8.81-20.38.5-12.08 9.19-21.39l48.93-50.31q8.31-8.92 20.88-8.61 12.58.31 21.89 8.61 9.3 9.31 9.3 21.7 0 12.38-9.3 21.07L720.15-678q-9.3 8.69-21.07 8.69T678-678ZM189.92-189.92q-9.3-9.31-9.3-21.7 0-12.38 9.3-21.07L239.85-282q9.3-8.69 21.38-8.69 12.08 0 20.77 8.69 8.92 8.31 8.42 20.38-.5 12.08-8.8 21.39l-48.93 50.31q-8.69 9.3-21.07 9-12.39-.31-21.7-9Z"/></svg>