<svg xmlns="http://www.w3.org/2000/svg" height="24px" viewBox="0 -960 960 960" width="24px" fill="#e3e3e3"><path d="M172.31-259.23q-29.92 0-51.12-21.19Q100-301.62 100-331.54v-296.92q0-29.92 21.19-51.12 21.2-21.19 51.12-21.19h296.92q29.92 0 51.11 21.19 21.2 21.2 21.2 51.12v296.92q0 29.92-21.2 51.12-21.19 21.19-51.11 21.19H172.31Zm473.23-9.39q-9.39-9.38-9.39-22.92 0-13.54 9.39-22.92 9.38-9.39 22.92-9.39 13.54 0 22.92 9.39 9.39 9.38 9.39 22.92 0 13.54-9.39 22.92-9.38 9.39-22.92 9.39-13.54 0-22.92-9.39Zm159.23 0q-9.39-9.38-9.39-22.92 0-13.54 9.39-22.92 9.38-9.39 22.92-9.39 13.54 0 22.92 9.39 9.39 9.38 9.39 22.92 0 13.54-9.39 22.92-9.38 9.39-22.92 9.39-13.54 0-22.92-9.39Zm0-188.46q-9.39-9.38-9.39-22.92 0-13.54 9.39-22.92 9.38-9.39 22.92-9.39 13.54 0 22.92 9.39Q860-493.54 860-480q0 13.54-9.39 22.92-9.38 9.39-22.92 9.39-13.54 0-22.92-9.39Zm0-188.46q-9.39-9.38-9.39-22.92 0-13.54 9.39-22.92 9.38-9.39 22.92-9.39 13.54 0 22.92 9.39Q860-682 860-668.46q0 13.54-9.39 22.92-9.38 9.39-22.92 9.39-13.54 0-22.92-9.39Zm-159.23 0q-9.39-9.38-9.39-22.92 0-13.54 9.39-22.92 9.38-9.39 22.92-9.39 13.54 0 22.92 9.39 9.39 9.38 9.39 22.92 0 13.54-9.39 22.92-9.38 9.39-22.92 9.39-13.54 0-22.92-9.39Z"/></svg>