<svg xmlns="http://www.w3.org/2000/svg" height="24px" viewBox="0 -960 960 960" width="24px" fill="#e3e3e3"><path d="M490.77-259.23q-29.92 0-51.11-21.19-21.2-21.2-21.2-51.12v-296.92q0-29.92 21.2-51.12 21.19-21.19 51.11-21.19h296.92q29.92 0 51.12 21.19Q860-658.38 860-628.46v296.92q0 29.92-21.19 51.12-21.2 21.19-51.12 21.19H490.77Zm-12.31-369.23v296.92q0 5.39 3.46 8.85 3.47 3.46 8.85 3.46h296.92q5.39 0 8.85-3.46t3.46-8.85v-296.92q0-5.39-3.46-8.85t-8.85-3.46H490.77q-5.38 0-8.85 3.46-3.46 3.46-3.46 8.85Zm-209.84-17.08q-9.39-9.38-9.39-22.92 0-13.54 9.39-22.92 9.38-9.39 22.92-9.39 13.54 0 22.92 9.39 9.39 9.38 9.39 22.92 0 13.54-9.39 22.92-9.38 9.39-22.92 9.39-13.54 0-22.92-9.39Zm-136.31 9.39q-13.54 0-22.92-9.39-9.39-9.38-9.39-22.92 0-13.54 9.39-22.92 9.38-9.39 22.92-9.39 13.54 0 22.92 9.39 9.39 9.38 9.39 22.92 0 13.54-9.39 22.92-9.38 9.39-22.92 9.39Zm0 188.46q-13.54 0-22.92-9.39Q100-466.46 100-480q0-13.54 9.39-22.92 9.38-9.39 22.92-9.39 13.54 0 22.92 9.39 9.39 9.38 9.39 22.92 0 13.54-9.39 22.92-9.38 9.39-22.92 9.39Zm0 188.46q-13.54 0-22.92-9.39Q100-278 100-291.54q0-13.54 9.39-22.92 9.38-9.39 22.92-9.39 13.54 0 22.92 9.39 9.39 9.38 9.39 22.92 0 13.54-9.39 22.92-9.38 9.39-22.92 9.39Zm136.31-9.39q-9.39-9.38-9.39-22.92 0-13.54 9.39-22.92 9.38-9.39 22.92-9.39 13.54 0 22.92 9.39 9.39 9.38 9.39 22.92 0 13.54-9.39 22.92-9.38 9.39-22.92 9.39-13.54 0-22.92-9.39ZM639.23-480Z"/></svg>