<svg xmlns="http://www.w3.org/2000/svg" height="24px" viewBox="0 -960 960 960" width="24px" fill="currentColor"><path d="M141.04-184.89Q100-225.92 100-283.85q0-57.92 41.04-98.96 41.04-41.03 98.96-41.03 23 0 43.08 6.84 20.07 6.85 36.92 20.54v-309.15q0-13.47 8.54-23.81 8.54-10.35 21.38-12.35l388.85-66.77q16.46-2.61 29.42 7.73 12.96 10.35 12.96 27.43v409.53q0 57.93-41.04 98.96-41.03 41.04-98.96 41.04-57.92 0-98.96-41.04-41.03-41.03-41.03-98.96 0-57.92 41.03-98.96 41.04-41.03 98.96-41.03 23 0 43.08 6.84 20.08 6.85 36.92 20.54v-173.08L380-583.84v299.99q0 57.93-41.04 98.96-41.04 41.04-98.96 41.04-57.92 0-98.96-41.04Z"/></svg>