<svg xmlns="http://www.w3.org/2000/svg" height="24px" viewBox="0 -960 960 960" width="24px" fill="currentColor"><path d="M332.5-129.96q-69.35-29.96-120.96-81.58-51.62-51.61-81.58-120.96T100-480.31q0-78.46 29.96-147.5t81.58-120.65q51.61-51.62 120.96-81.58T480.31-860q78.46 0 147.5 29.96t120.65 81.58q51.62 51.61 81.58 120.65T860-480.31q0 78.46-29.96 147.81-29.96 69.35-81.58 120.96-51.61 51.62-120.65 81.58T480.31-100q-78.46 0-147.81-29.96Zm-26.88-404.42q10.53-10.54 10.53-25.62 0-15.08-10.53-25.62-10.54-10.53-25.62-10.53-15.08 0-25.62 10.53-10.53 10.54-10.53 25.62 0 15.08 10.53 25.62 10.54 10.53 25.62 10.53 15.08 0 25.62-10.53Zm120-120q10.53-10.54 10.53-25.62 0-15.08-10.53-25.62-10.54-10.53-25.62-10.53-15.08 0-25.62 10.53-10.53 10.54-10.53 25.62 0 15.08 10.53 25.62 10.54 10.53 25.62 10.53 15.08 0 25.62-10.53Zm280 120q10.53-10.54 10.53-25.62 0-15.08-10.53-25.62-10.54-10.53-25.62-10.53-15.08 0-25.62 10.53-10.53 10.54-10.53 25.62 0 15.08 10.53 25.62 10.54 10.53 25.62 10.53 15.08 0 25.62-10.53ZM529.58-430.42Q550-450.85 550-480q0-13-4.58-24.92-4.57-11.93-12.96-21.54L591.08-674q5.07-11.77.11-23.42-4.96-11.66-16.73-16.73-11.15-5.08-22.81-.31-11.65 4.77-16.11 16.92L476.15-550q-27.69 1.92-46.92 21.92T410-480q0 29.15 20.42 49.58Q450.85-410 480-410t49.58-20.42ZM316.77-206.15q37.31-21.54 78.61-32.7Q436.69-250 480-250t84.62 11.15q41.3 11.16 78.61 32.7l53.08-38.93q-48.08-31.84-103.35-48.38Q537.69-310 480-310q-57.69 0-112.96 16.54-55.27 16.54-103.35 48.38l53.08 38.93Z"/></svg>