<svg xmlns="http://www.w3.org/2000/svg" height="24px" viewBox="0 -960 960 960" width="24px" fill="#e3e3e3"><path d="M332.55-129.9q-69.29-29.9-121.02-81.63-51.73-51.73-81.63-121.02-29.9-69.3-29.9-147.8 0-78.51 29.96-147.5 29.96-69 81.58-120.61 51.61-51.62 121-81.58T480.35-860q78.42 0 147.46 29.96t120.65 81.58q51.62 51.61 81.58 120.61Q860-558.86 860-480.35q0 78.5-29.96 147.85t-81.58 120.96q-51.61 51.62-120.61 81.58Q558.86-100 480.35-100q-78.5 0-147.8-29.9Zm260.41-163.56q55.27 16.54 103.35 48.38 49.84-45.61 76.77-106.46Q800-412.39 800-480q0-134-93-227t-227-93q-134 0-227 93t-93 227q0 67.69 26.62 128.81 26.61 61.11 77.07 106.11 48.08-31.84 103.35-48.38Q422.31-310 480-310q57.69 0 112.96 16.54Zm-197.58 54.61q-41.3 11.16-78.61 32.7 36.54 22.69 78.07 34.42Q436.37-160 480.03-160t85.16-11.73q41.5-11.73 78.04-34.42-37.31-21.54-78.56-32.7Q523.42-250 480.06-250q-43.37 0-84.68 11.15ZM280-523.85q15.08 0 25.62-10.53 10.53-10.54 10.53-25.62 0-15.08-10.53-25.62-10.54-10.53-25.62-10.53-15.08 0-25.62 10.53-10.53 10.54-10.53 25.62 0 15.08 10.53 25.62 10.54 10.53 25.62 10.53Zm145.62-130.53q10.53-10.54 10.53-25.62 0-15.08-10.53-25.62-10.54-10.53-25.62-10.53-15.08 0-25.62 10.53-10.53 10.54-10.53 25.62 0 15.08 10.53 25.62 10.54 10.53 25.62 10.53 15.08 0 25.62-10.53ZM680-523.85q15.08 0 25.62-10.53 10.53-10.54 10.53-25.62 0-15.08-10.53-25.62-10.54-10.53-25.62-10.53-15.08 0-25.62 10.53-10.53 10.54-10.53 25.62 0 15.08 10.53 25.62 10.54 10.53 25.62 10.53Zm-150.42 93.43Q550-450.85 550-480q0-13-4.58-24.92-4.57-11.93-12.96-21.54L591.08-674q5.07-11.77.11-23.42-4.96-11.66-16.79-16.73-11.09-5.08-22.72-.22-11.64 4.86-16.14 16.83L476.15-550q-27.69 1.92-46.92 21.92T410-480q0 29.15 20.42 49.58Q450.85-410 480-410t49.58-20.42ZM480-310Zm0-212.54ZM480-250Z"/></svg>