<svg xmlns="http://www.w3.org/2000/svg" height="24px" viewBox="0 -960 960 960" width="24px" fill="#e3e3e3"><path d="m733.23-183.62-61.38-62q-8.7-9.3-8.7-21.57t8.7-20.96q8.69-8.7 20.96-8.7 12.27 0 21.57 8.7l62 61.38q9.31 9.31 9.31 21.58 0 12.27-9.31 21.57-9.3 9.31-21.57 9.31t-21.58-9.31Zm-481.69 4.39q-61.38 0-104.92-43.54t-43.54-104.92q0-59.85 42.38-102.23 42.39-42.39 102.23-42.39 43 0 79.27 23.31 36.27 23.31 53.12 63.31l12.69 29.92h32.46q37 0 62.04 25.54t25.04 62.54q0 37-25.73 62.73-25.73 25.73-62.73 25.73H251.54Zm338.61-110.46q-6.69-57.23-46.84-97.46-40.16-40.23-97.77-47-26.39-49.77-72.73-80.12-46.35-30.34-103.19-36.5 22.92-67.61 80.73-108.42Q408.15-700 480-700q91.54 0 155.77 64.23T700-480q0 59.23-29.31 109.92-29.31 50.69-80.54 80.39ZM781.54-450q-12.77 0-21.39-8.62-8.61-8.61-8.61-21.38t8.61-21.38q8.62-8.62 21.39-8.62h87.69q12.77 0 21.38 8.62 8.62 8.61 8.62 21.38t-8.62 21.38Q882-450 869.23-450h-87.69ZM246.39-671.46l-62.77-62.77q-8.7-8.69-8.7-21.27t8.7-20.88q9.3-8.93 21.57-8.93t21.19 8.93L288.15-714q8.7 9.31 8.89 21.58.19 12.27-8.5 20.96-8.69 8.69-21.08 8.69-12.38 0-21.07-8.69Zm425.46-.39q-8.7-8.69-8.7-20.96 0-12.27 8.7-21.57l61.38-62q9.31-9.31 21.58-9.31 12.27 0 21.57 9.31 8.7 8.69 8.7 21.07 0 12.39-8.7 21.08L714-671.85q-8.69 8.7-21.08 8.7-12.38 0-21.07-8.7Zm-213.23-88.3q-8.62-8.62-8.62-21.39v-87.69q0-12.77 8.62-21.38 8.61-8.62 21.38-8.62t21.38 8.62Q510-882 510-869.23v87.69q0 12.77-8.62 21.39-8.61 8.61-21.38 8.61t-21.38-8.61Z"/></svg>