<svg xmlns="http://www.w3.org/2000/svg" height="24px" viewBox="0 -960 960 960" width="24px" fill="#e3e3e3"><path d="M567.38-505.62 302.69-770.31q-4.61-4.61-6.54-9.46-1.92-4.84-1.92-10.46 0-11.46 7.66-20.61Q309.54-820 323-820h307q12.77 0 21.38 8.62Q660-802.77 660-790q0 12.15-10.46 17.69Q639.08-766.77 630-760h-10v232.31q0 20.84-18.92 28.84-18.93 8-33.7-6.77ZM450-120v-220H327.16q-21.93 0-35.2-15.39-13.26-15.38-13.26-34.3 0-9.46 3.73-18.73t12.19-17.73L340-471.54v-62.92L106.31-769.39q-8.31-8.3-8.81-20.57t8.81-21.58q8.69-8.69 21.08-8.69 12.38 0 21.07 8.69l647.08 647.08q8.92 8.92 8.8 21.19-.11 12.27-9.42 21.57-9.31 8.7-21.08 9-11.76.31-21.07-9L534.46-340H510v220q0 12.77-8.62 21.38Q492.77-90 480-90t-21.38-8.62Q450-107.23 450-120Z"/></svg>