<svg xmlns="http://www.w3.org/2000/svg" height="24px" viewBox="0 -960 960 960" width="24px" fill="#e3e3e3"><path d="M421.23-260H225.39q-21.7 0-32.35-19.08-10.65-19.08 1.81-37.15L317.7-500h-9.54q-21.7 0-32.23-19.39-10.54-19.38 2.3-37.46L450.08-803q5.61-7.61 13.65-11.54 8.04-3.92 16.27-3.92t16.27 3.92q8.04 3.93 13.65 11.54l171.85 246.15q12.84 18.08 2.3 37.46Q673.54-500 651.84-500h-9.54l122.85 183.77q12.46 18.07 1.81 37.15T734.61-260H538.77v125.38q0 14.7-9.96 24.66-9.97 9.96-24.66 9.96h-46.76q-15.47 0-25.81-10.35-10.35-10.34-10.35-25.81V-260ZM270-320h160-76 252-76 160-420Zm0 0h420L530-560h76L480-740 354-560h76L270-320Z"/></svg>