<svg xmlns="http://www.w3.org/2000/svg" width="24" height="24" viewBox="0 0 24 24" fill="currentColor">
  <path d="M12,0C5.373,0,0,5.373,0,12c0,3.314,1.343,6.314,3.515,8.485l-2.286,2.286c-.454.454-.132,1.229.509,1.229h10.262c6.627,0,12-5.373,12-12S18.627,0,12,0ZM16.388,3.199c1.104,0,1.999.895,1.999,1.999s-.895,2-1.999,2c-.946,0-1.739-.657-1.947-1.539v.002c-1.147.162-2.032,1.15-2.032,2.341v.007c1.776.067,3.4.567,4.686,1.363.473-.363,1.064-.58,1.707-.58,1.547,0,2.802,1.254,2.802,2.802,0,1.117-.655,2.081-1.601,2.531-.088,3.256-3.637,5.876-7.997,5.876s-7.905-2.617-7.998-5.87c-.954-.447-1.614-1.415-1.614-2.538,0-1.548,1.255-2.802,2.803-2.802.645,0,1.239.218,1.712.585,1.275-.79,2.881-1.291,4.64-1.365v-.01c0-1.663,1.263-3.034,2.88-3.207.188-.911.993-1.595,1.959-1.595ZM8.303,11.575c-.784,0-1.459.78-1.506,1.797-.047,1.016.64,1.429,1.426,1.429s1.371-.369,1.418-1.385c.047-1.017-.553-1.841-1.338-1.841ZM15.709,11.575c-.786,0-1.385.824-1.338,1.841.047,1.017.634,1.385,1.418,1.385s1.473-.413,1.426-1.429c-.046-1.017-.721-1.797-1.506-1.797ZM12.006,15.588c-.974,0-1.907.048-2.77.135-.147.015-.241.168-.183.305.483,1.154,1.622,1.964,2.953,1.964s2.47-.81,2.953-1.964c.057-.137-.037-.29-.184-.305-.863-.087-1.795-.135-2.769-.135Z"/>
</svg>