<svg xmlns="http://www.w3.org/2000/svg" width="24" height="24" viewBox="0 0 24 24" fill="currentColor">
  <path d="M12,3C7.03,3,3,7.03,3,12c0,2.486,1.007,4.735,2.636,6.364l-1.715,1.714c-.34.341-.099.922.382.922h7.696c4.97,0,9-4.03,9-9S16.97,3,12,3ZM15.291,5.399c.828,0,1.499.671,1.499,1.499s-.671,1.5-1.499,1.5c-.71,0-1.304-.493-1.46-1.154h0c-.86.123-1.524.864-1.524,1.757v.005c1.332.05,2.55.425,3.515,1.022.355-.272.798-.435,1.28-.435,1.16,0,2.102.94,2.102,2.102,0,.838-.491,1.561-1.201,1.898-.066,2.442-2.728,4.407-5.998,4.407s-5.929-1.963-5.999-4.402c-.715-.335-1.21-1.061-1.21-1.904,0-1.161.941-2.102,2.102-2.102.484,0,.929.164,1.284.439.956-.592,2.161-.968,3.48-1.024v-.008c0-1.247.947-2.275,2.16-2.405.141-.683.745-1.196,1.469-1.196ZM9.227,11.681c-.588,0-1.094.585-1.13,1.348-.035.762.48,1.072,1.07,1.072s1.028-.277,1.064-1.039c.035-.763-.415-1.381-1.004-1.381ZM14.782,11.681c-.59,0-1.039.618-1.004,1.381.035.763.475,1.039,1.064,1.039s1.105-.31,1.07-1.072c-.034-.763-.541-1.348-1.13-1.348ZM12.004,14.691c-.73,0-1.43.036-2.077.101-.11.011-.181.126-.137.229.362.865,1.216,1.473,2.215,1.473s1.853-.607,2.215-1.473c.043-.103-.028-.217-.138-.229-.647-.065-1.346-.101-2.077-.101Z"/>
</svg>
