<svg xmlns="http://www.w3.org/2000/svg" height="24px" viewBox="0 -960 960 960" width="24px" fill="#e3e3e3"><path d="M149.39-764.77q-9.39-9.38-9.39-22.92 0-13.54 9.39-22.92 9.38-9.39 22.92-9.39 13.54 0 22.92 9.39 9.39 9.38 9.39 22.92 0 13.54-9.39 22.92-9.38 9.39-22.92 9.39-13.54 0-22.92-9.39Zm153.84 0q-9.38-9.38-9.38-22.92 0-13.54 9.38-22.92 9.39-9.39 22.92-9.39 13.54 0 22.93 9.39 9.38 9.38 9.38 22.92 0 13.54-9.38 22.92-9.39 9.39-22.93 9.39-13.53 0-22.92-9.39Zm153.85 0q-9.39-9.38-9.39-22.92 0-13.54 9.39-22.92Q466.46-820 480-820q13.54 0 22.92 9.39 9.39 9.38 9.39 22.92 0 13.54-9.39 22.92-9.38 9.39-22.92 9.39-13.54 0-22.92-9.39ZM149.39-610.92q-9.39-9.39-9.39-22.93 0-13.53 9.39-22.92 9.38-9.38 22.92-9.38 13.54 0 22.92 9.38 9.39 9.39 9.39 22.92 0 13.54-9.39 22.93-9.38 9.38-22.92 9.38-13.54 0-22.92-9.38Zm0 153.84Q140-466.46 140-480q0-13.54 9.39-22.92 9.38-9.39 22.92-9.39 13.54 0 22.92 9.39 9.39 9.38 9.39 22.92 0 13.54-9.39 22.92-9.38 9.39-22.92 9.39-13.54 0-22.92-9.39Zm615.38 0q-9.39-9.38-9.39-22.92 0-13.54 9.39-22.92 9.38-9.39 22.92-9.39 13.54 0 22.92 9.39Q820-493.54 820-480q0 13.54-9.39 22.92-9.38 9.39-22.92 9.39-13.54 0-22.92-9.39Zm0 153.85q-9.39-9.39-9.39-22.92 0-13.54 9.39-22.93 9.38-9.38 22.92-9.38 13.54 0 22.92 9.38 9.39 9.39 9.39 22.93 0 13.53-9.39 22.92-9.38 9.38-22.92 9.38-13.54 0-22.92-9.38ZM457.08-149.39q-9.39-9.38-9.39-22.92 0-13.54 9.39-22.92 9.38-9.39 22.92-9.39 13.54 0 22.92 9.39 9.39 9.38 9.39 22.92 0 13.54-9.39 22.92Q493.54-140 480-140q-13.54 0-22.92-9.39Zm153.84 0q-9.38-9.38-9.38-22.92 0-13.54 9.38-22.92 9.39-9.39 22.93-9.39 13.53 0 22.92 9.39 9.38 9.38 9.38 22.92 0 13.54-9.38 22.92-9.39 9.39-22.92 9.39-13.54 0-22.93-9.39Zm153.85 0q-9.39-9.38-9.39-22.92 0-13.54 9.39-22.92 9.38-9.39 22.92-9.39 13.54 0 22.92 9.39 9.39 9.38 9.39 22.92 0 13.54-9.39 22.92-9.38 9.39-22.92 9.39-13.54 0-22.92-9.39ZM760-631.54v-116.15q0-5.39-3.46-8.85t-8.85-3.46H631.54q-12.77 0-21.39-8.62-8.61-8.61-8.61-21.38t8.61-21.38q8.62-8.62 21.39-8.62h116.15q29.92 0 51.12 21.19Q820-777.61 820-747.69v116.15q0 12.77-8.62 21.39-8.61 8.61-21.38 8.61t-21.38-8.61q-8.62-8.62-8.62-21.39ZM140-212.31v-116.15q0-12.77 8.62-21.39 8.61-8.61 21.38-8.61t21.38 8.61q8.62 8.62 8.62 21.39v116.15q0 5.39 3.46 8.85t8.85 3.46h116.15q12.77 0 21.39 8.62 8.61 8.61 8.61 21.38t-8.61 21.38q-8.62 8.62-21.39 8.62H212.31q-29.92 0-51.12-21.19Q140-182.39 140-212.31Z"/></svg>