<svg xmlns="http://www.w3.org/2000/svg" height="24px" viewBox="0 -960 960 960" width="24px" fill="currentColor"><path d="M248.15-140q-21.84 0-41.61-14.85-19.77-14.84-26-36.31-25-86.3-40.42-146.26-15.43-59.97-24.35-103.39-8.92-43.42-12.35-75.77Q100-548.92 100-580q0-83.54 58.23-141.77Q216.46-780 300-780h210q27-36 66-58t84-22q16.54 0 28.27 11.73T700-820q0 4.08-1.12 7.96-1.11 3.89-2.34 7.73-4.39 11.77-8.46 25.46-4.08 13.7-7.62 34.77L784.54-640h39.3q15.47 0 25.81 10.35Q860-619.31 860-603.84v181.92q0 11.84-6.73 21.07t-18.58 13.46l-83.85 27.62-50.38 168.15q-7.23 23.7-26.31 37.66Q655.08-140 630.77-140h-58.46q-29.92 0-51.12-21.19Q500-182.39 500-212.31V-220H380v7.69q0 29.92-21.19 51.12Q337.61-140 307.69-140h-59.54Zm416.89-394.96q10.34-10.35 10.34-25.04t-10.34-25.04q-10.35-10.34-25.04-10.34t-25.04 10.34q-10.34 10.35-10.34 25.04t10.34 25.04q10.35 10.34 25.04 10.34t25.04-10.34ZM490-610q12.77 0 21.38-8.62Q520-627.23 520-640t-8.62-21.38Q502.77-670 490-670H350q-12.77 0-21.38 8.62Q320-652.77 320-640t8.62 21.38Q337.23-610 350-610h140Z"/></svg>