<svg xmlns="http://www.w3.org/2000/svg" height="24px" viewBox="0 -960 960 960" width="24px" fill="#e3e3e3"><path d="M818.46-342.31v-224.46l-303.92 165q-16.46 9.23-34.54 9.23t-34.54-9.23L139.77-568.46q-9.84-5.62-14.15-13.66-4.31-8.03-4.31-17.88t4.31-17.88q4.31-8.04 14.15-13.66l305.69-166.3q8.23-4.62 16.77-6.93 8.54-2.31 17.77-2.31t17.77 2.31q8.54 2.31 16.77 6.93l344.84 187.61q9.23 4.61 14.16 13.35 4.92 8.73 4.92 18.57v236q0 12.77-8.62 21.38-8.61 8.62-21.38 8.62t-21.38-8.62q-8.62-8.61-8.62-21.38Zm-373 157.08L257.77-286.7q-17.69-9.84-27.73-26.92Q220-330.69 220-350.77v-138.15l225.46 122.15q16.46 9.23 34.54 9.23t34.54-9.23L740-488.92v138.15q0 20.08-10.04 37.15-10.04 17.08-27.73 26.92L514.54-185.23q-8.23 4.61-16.77 6.92Q489.23-176 480-176t-17.77-2.31q-8.54-2.31-16.77-6.92Z"/></svg>