<svg xmlns="http://www.w3.org/2000/svg" height="24px" viewBox="0 -960 960 960" width="24px" fill="#e3e3e3"><path d="M594.61-180q-12.76 0-21.38-8.62-8.61-8.61-8.61-21.38t8.61-21.38q8.62-8.62 21.38-8.62h84.01L565.77-352.85q-8.92-8.92-8.81-21.19.12-12.27 9.42-21.58 9.31-9.3 21.39-9.3t21.38 9.3L720-284.15v-80.08q0-12.77 8.62-21.39 8.61-8.61 21.38-8.61t21.38 8.61Q780-377 780-364.23v148.07q0 15.47-10.35 25.81Q759.31-180 743.84-180H594.61Zm-405.69-8.92q-8.69-8.7-8.69-21.08 0-12.39 8.69-21.08L677.85-720h-83.24q-12.76 0-21.38-8.62-8.61-8.61-8.61-21.38t8.61-21.38q8.62-8.62 21.38-8.62h149.23q15.47 0 25.81 10.35Q780-759.31 780-743.84v148.07q0 12.77-8.62 21.39-8.61 8.61-21.38 8.61t-21.38-8.61Q720-583 720-595.77v-82.08L231.08-188.92q-8.31 8.3-20.89 8.5-12.57.19-21.27-8.5Zm-.61-540.39q-8.31-8.3-8.12-20.88.2-12.58 8.5-20.89 8.31-8.3 20.58-8.3 12.27 0 21.19 8.3l161.85 161.62q8.3 8.31 8.61 20.38.31 12.08-8.61 21-8.31 8.31-20.89 8.31-12.57 0-20.88-8.31L188.31-729.31Z"/></svg>