<svg xmlns="http://www.w3.org/2000/svg" height="24px" viewBox="0 -960 960 960" width="24px" fill="#e3e3e3"><path d="M456.15-60 119.62-90.62q-12.77-1.23-21.08-10.65-8.31-9.42-6.69-22.19 1.61-12.39 10.84-20.39t22-6.77l154.39 13.85 23.61-84.15-219.54-41.7q-12.38-2.23-19.26-12.27-6.89-10.03-4.66-22.19 2.62-12.77 12.66-19.65 10.03-6.88 22.8-4.65l224 42.69 21.62-75.93-255-68.77q-12.15-3.84-18.04-14.38-5.88-10.54-2.04-22.69 3.85-11.77 13.89-18.15 10.03-6.39 21.8-2.54l255.39 68.77 20-70.7-175.16-90.69q-11.15-5.69-14.99-17.54-3.85-11.84 2.23-23 6.07-11.15 17.73-14.8 11.65-3.66 22.8 2.03l240.93 125.47 3.38-82.31q1-13.54 6.77-24.66 5.77-11.11 16.69-19.19 8.69-6.07 18.43-9.42 9.73-3.35 19.03-2.12 9.31 1.23 16.2 5.5 6.88 4.27 10.73 12.96l95.84 202.77q8 17.08 8.81 35.16.81 18.07-4.19 36.15l-49.85 180Q597.23-115 553.38-85q-43.84 30-97.23 25Zm274.62-289.77q3.08-17.23 3.46-35.08.38-17.84-7.31-35.07L618.77-647.61l39.92-21.7-77.92-188.54q-4.46-11.15.19-22.61 4.66-11.46 15.81-16.31 11.77-5.07 23.11-.31 11.35 4.77 16.43 15.93l104.07 250.92 55.24-61.62q8.69-9.69 20.61-14.73 11.92-5.03 25.46-4.03 11.31 1.61 21.42 5.76 10.12 4.16 16.97 10.85 6.84 6.69 10.26 15.39 3.43 8.69.2 17.99l-60.23 214.77q-5.23 18.08-15.89 32.85-10.65 14.77-26.11 24.61l-57.54 38.62Zm-250-344.61-85.15-123.16q-7.31-10.54-5.08-22.31 2.23-11.76 12.77-18.84 10.54-7.31 22.5-5.27t19.27 12.58L546.38-705q-16.61-3.46-33.42-.19-16.81 3.27-32.19 10.81Zm-71.85 84.84L323.62-654l-34.08-40.38q-8.31-9.93-7-22 1.31-12.08 11.85-20.77 9.92-7.93 21.69-6.5 11.77 1.42 20.07 10.96l81.54 98.54q-3.46 5.69-5.5 12-2.04 6.3-3.27 12.61Z"/></svg>