<svg xmlns="http://www.w3.org/2000/svg" width="24" height="24" viewBox="0 0 24 24" fill="currentColor">
  <path d="M12,3c-.467,0-.925.034-1.372.104l.127.833c.825-.126,1.665-.126,2.49,0l.129-.833c-.454-.07-.914-.105-1.374-.104M9.864,3.255c-.894.219-1.75.573-2.536,1.051l.438.721c.712-.434,1.489-.755,2.299-.952,0,0-.201-.82-.201-.82ZM14.136,3.255l-.201.82c.811.197,1.587.518,2.299.952l.438-.721c-.787-.478-1.642-.832-2.536-1.051M12,4.687c-4.039,0-7.313,3.273-7.314,7.311,0,1.235.313,2.451.91,3.533.055.1.075.219.048.331l-.76,3.253,3.253-.76c.112-.025.23-.008.331.048,1.081.598,2.296.91,3.532.908,4.039,0,7.312-3.274,7.312-7.312s-3.274-7.312-7.312-7.312M6.681,4.738c-.743.544-1.398,1.199-1.942,1.942l.682.498c.494-.672,1.087-1.264,1.759-1.759l-.498-.682ZM17.319,4.738l-.498.682c.672.494,1.264,1.087,1.759,1.759l.682-.498c-.544-.743-1.199-1.398-1.942-1.942M4.306,7.327c-.478.787-.832,1.642-1.051,2.536l.82.201c.197-.811.518-1.586.952-2.299,0,0-.721-.438-.721-.438ZM19.693,7.327l-.721.438c.434.712.755,1.489.952,2.299l.82-.201c-.219-.895-.573-1.75-1.051-2.537M3.104,10.626c-.07.454-.104.914-.103,1.374,0,.467.034.925.104,1.372l.833-.127c-.063-.412-.094-.828-.094-1.245,0-.424.031-.839.094-1.245,0,0-.834-.129-.834-.129ZM20.895,10.627l-.833.127c.062.406.094.821.094,1.245,0,.636-.031.84-.094,1.245l.833.129c.139-.91.139-1.836,0-2.746M4.075,13.935l-.82.201c.164.673.406,1.325.72,1.943l-.199.855.822.191.27-1.154-.141-.274c-.285-.56-.504-1.152-.652-1.762M19.924,13.935c-.197.811-.518,1.587-.952,2.3l.721.438c.478-.787.832-1.642,1.051-2.537l-.82-.201ZM18.579,16.821c-.494.672-1.087,1.264-1.759,1.759l.498.682c.743-.544,1.398-1.199,1.942-1.942l-.682-.498ZM3.61,17.646l-.343,1.464c-.169.726.283,1.452,1.009,1.621.202.047.411.046.613,0l1.465-.341-.192-.821-1.465.341c-.272.063-.544-.106-.607-.379-.017-.075-.017-.154,0-.229l.34-1.465-.82-.19ZM16.234,18.972c-.712.434-1.489.755-2.299.952l.201.82c.894-.219,1.75-.573,2.536-1.051l-.438-.721ZM8.029,19.132l-1.155.27.192.821.854-.199c.61.311,1.262.555,1.943.721l.201-.82c-.61-.148-1.202-.367-1.762-.652,0,0-.273-.14-.273-.14ZM10.755,20.062l-.129.833c.91.139,1.836.139,2.746,0l-.127-.833c-.406.062-.821.094-1.245.094-.417,0-.833-.031-1.245-.094"/>
</svg>
