<svg xmlns="http://www.w3.org/2000/svg" height="24px" viewBox="0 -960 960 960" width="24px" fill="#e3e3e3"><path d="M542.61-464.46q80.31-56.31 126.31-124.08t46-134.46q0-37-13.77-57t-36.77-20q-52.77 0-90.3 79.88-37.54 79.89-37.54 189.12 0 19.39 1.46 35.92 1.46 16.54 4.61 30.62ZM162.46-314.92q-8.31 8.3-20.69 8.11-12.38-.19-20.69-8.5t-8.31-20.88q0-12.58 8.31-20.89L164-400l-43.31-43.31q-8.3-8.31-8.11-20.88.19-12.58 8.5-20.89 8.31-8.3 20.88-8.3 12.58 0 20.89 8.3l42.92 43.31 43.31-43.31q8.31-8.3 20.88-8.3 12.58 0 20.89 8.3 8.3 8.31 8.3 20.89 0 12.57-8.3 20.88L247.54-400l43.31 43.31q8.3 8.31 8.3 20.69t-8.3 20.69q-8.31 8.31-20.89 8.31-12.57 0-20.88-8.31l-43.31-42.92-43.31 43.31ZM605.31-320q-30 0-54.04-12.85-24.04-12.84-40.5-40-17.54 9.16-36.27 18.31-18.73 9.16-38.04 17.92-12.15 5.08-24 .5-11.85-4.57-16.31-16.73-4.46-12.15 1.31-23.5 5.77-11.34 17.92-16.42 19.31-8.77 37.23-17.61 17.93-8.85 34.85-18.39-5.77-22-8.65-48.58-2.89-26.57-2.89-57.34 0-142.08 53.35-233.69Q582.61-860 664.38-860q48.93 0 79.43 37.35 30.5 37.34 30.5 102.11 0 84.08-56.23 166.73-56.24 82.66-154.39 148.12 8.54 13.15 19.5 19.73t23.96 6.58q25.23 0 55.54-24.35t57.46-66.42q7.31-10.54 18.96-14.31 11.66-3.77 22.81 1.31 11.16 5.69 16.62 17.15 5.46 11.46 3.23 24.23-2.39 19.31-1.04 33.96 1.35 14.66 7.81 26.97 7.3-3.54 15.15-8.81 7.85-5.27 17.54-14.58 9.31-8.69 21.58-9.81 12.27-1.11 22.19 6.58 10.54 8.31 11.15 20.27.62 11.96-8.08 20.65-22.61 22.23-44.46 34.39Q801.77-320 781.84-320q-19.46 0-34.23-16.35-14.76-16.34-22.69-44.65-26.07 28.85-57.77 44.92Q635.46-320 605.31-320ZM149.58-149.96q-9.96-9.96-9.96-24.66 0-14.69 9.96-24.65 9.96-9.96 24.65-9.96 14.69 0 24.66 9.96 9.96 9.96 9.96 24.65 0 14.7-9.96 24.66-9.97 9.96-24.66 9.96t-24.65-9.96Zm152.69 0q-9.96-9.96-9.96-24.66 0-14.69 9.96-24.65 9.96-9.96 24.65-9.96 14.7 0 24.66 9.96t9.96 24.65q0 14.7-9.96 24.66T326.92-140q-14.69 0-24.65-9.96Zm152.69 0q-9.96-9.96-9.96-24.66 0-14.69 9.96-24.65 9.96-9.96 24.66-9.96 14.69 0 24.65 9.96 9.96 9.96 9.96 24.65 0 14.7-9.96 24.66T479.62-140q-14.7 0-24.66-9.96Zm152.69 0q-9.96-9.96-9.96-24.66 0-14.69 9.96-24.65 9.96-9.96 24.66-9.96 14.69 0 24.65 9.96 9.96 9.96 9.96 24.65 0 14.7-9.96 24.66T632.31-140q-14.7 0-24.66-9.96Zm152.7 0q-9.97-9.96-9.97-24.66 0-14.69 9.97-24.65 9.96-9.96 24.65-9.96 14.69 0 24.65 9.96 9.96 9.96 9.96 24.65 0 14.7-9.96 24.66T785-140q-14.69 0-24.65-9.96Z"/></svg>