<svg xmlns="http://www.w3.org/2000/svg" width="24" height="24" viewBox="0 0 24 24" fill="currentColor">
  <path d="M12,0c-.623,0-1.233.046-1.83.139l.17,1.111c1.1-.168,2.22-.168,3.32,0l.172-1.111c-.606-.093-1.219-.14-1.832-.139M9.152.34c-1.192.292-2.333.764-3.382,1.402l.584.961c.95-.579,1.985-1.007,3.066-1.27l-.268-1.093ZM14.848.34l-.268,1.094c1.081.263,2.116.691,3.066,1.27l.584-.962c-1.049-.638-2.19-1.11-3.382-1.402M12,2.25c-5.385,0-9.751,4.364-9.752,9.748,0,1.647.417,3.268,1.213,4.711.074.134.1.292.064.441l-1.013,4.338,4.338-1.013c.15-.034.307-.011.441.064,1.441.797,3.062,1.214,4.709,1.211,5.385,0,9.75-4.365,9.75-9.75S17.385,2.25,12,2.25M4.908,2.318c-.991.726-1.864,1.599-2.59,2.59l.909.664c.659-.896,1.449-1.686,2.345-2.345l-.664-.909ZM19.092,2.318l-.664.909c.896.659,1.686,1.449,2.345,2.345l.909-.664c-.726-.991-1.599-1.864-2.59-2.59M1.742,5.77c-.638,1.049-1.11,2.19-1.402,3.382l1.094.268c.263-1.081.691-2.115,1.269-3.066l-.961-.584ZM22.258,5.77l-.961.584c.579.95,1.007,1.985,1.27,3.066l1.093-.268c-.292-1.193-.764-2.334-1.402-3.383M.138,10.168c-.093.606-.139,1.219-.138,1.832,0,.623.046,1.233.139,1.83l1.111-.17c-.084-.549-.125-1.104-.125-1.66,0-.565.042-1.119.125-1.66l-1.112-.172ZM23.861,10.17l-1.111.17c.083.541.125,1.095.125,1.66,0,.848-.042,1.12-.125,1.66l1.111.172c.186-1.214.186-2.448,0-3.662M1.434,14.58l-1.094.268c.219.898.541,1.767.96,2.591l-.265,1.14,1.096.255.36-1.539-.188-.365c-.38-.747-.672-1.536-.87-2.35M22.566,14.58c-.263,1.082-.691,2.116-1.27,3.067l.962.584c.638-1.049,1.11-2.19,1.402-3.383l-1.094-.268ZM20.773,18.428c-.659.896-1.449,1.686-2.345,2.345l.664.909c.991-.726,1.864-1.599,2.59-2.59l-.909-.664ZM.814,19.528l-.457,1.952c-.225.968.377,1.936,1.345,2.161.269.063.548.062.817,0l1.954-.455-.256-1.095-1.953.455c-.363.084-.726-.142-.81-.505-.023-.1-.023-.205,0-.305l.454-1.954-1.094-.254ZM17.646,21.297c-.95.579-1.985,1.007-3.066,1.27l.268,1.093c1.192-.292,2.333-.764,3.382-1.402l-.584-.961ZM6.706,21.51l-1.54.36.256,1.095,1.139-.266c.814.415,1.683.74,2.591.961l.268-1.094c-.814-.198-1.603-.489-2.35-.869l-.364-.187ZM10.34,22.75l-.172,1.111c1.214.186,2.448.186,3.662,0l-.17-1.111c-.541.083-1.095.125-1.66.125-.556,0-1.111-.041-1.66-.125"/>
</svg>