<svg xmlns="http://www.w3.org/2000/svg" height="24px" viewBox="0 -960 960 960" width="24px" fill="currentColor"><path d="M655.38-297.69v-364.62q0-12.77 8.62-21.38 8.61-8.62 21.38-8.62t21.39 8.62q8.61 8.61 8.61 21.38v364.62q0 12.77-8.61 21.38-8.62 8.62-21.39 8.62-12.77 0-21.38-8.62-8.62-8.61-8.62-21.38Zm-410.76-37.7v-289.22q0-16.47 10.84-26.31 10.85-9.85 25.31-9.85 5 0 10.23 1t9.85 4.62l217.23 145.23q8.23 5.61 12.15 13.15t3.92 16.77q0 9.23-3.92 16.77-3.92 7.54-12.15 13.15L300.85-304.85q-4.62 3.62-9.85 4.62-5.23 1-10.23 1-14.46 0-25.31-9.85-10.84-9.84-10.84-26.31Zm60-144.61Zm0 100 150.61-100-150.61-100v200Z"/></svg>