<svg xmlns="http://www.w3.org/2000/svg" width="24" height="24" viewBox="0 0 24 24" fill="currentColor">
  <path d="M4.891,12.484h1.891v1.891c0,1.041-.85,1.891-1.891,1.891s-1.891-.85-1.891-1.891.85-1.891,1.891-1.891ZM9.625,12.484c-1.041,0-1.891.85-1.891,1.891v4.735c0,1.041.85,1.891,1.891,1.891s1.891-.85,1.891-1.891v-4.735c0-1.041-.85-1.891-1.891-1.891ZM9.625,3.001c-1.041,0-1.891.85-1.891,1.891s.85,1.891,1.891,1.891h1.891v-1.891c0-1.041-.85-1.891-1.891-1.891ZM9.625,7.735h-4.735c-1.041,0-1.891.85-1.891,1.891s.85,1.891,1.891,1.891h4.735c1.041,0,1.891-.85,1.891-1.891s-.85-1.891-1.891-1.891ZM20.999,9.625c0-1.041-.85-1.891-1.891-1.891s-1.891.85-1.891,1.891v1.891h1.891c1.041,0,1.891-.85,1.891-1.891ZM14.375,11.516c1.041,0,1.891-.85,1.891-1.891v-4.735c0-1.041-.85-1.891-1.891-1.891s-1.891.85-1.891,1.891v4.735c0,1.041.85,1.891,1.891,1.891ZM14.375,17.218h-1.891v1.891c0,1.041.85,1.891,1.891,1.891s1.891-.85,1.891-1.891-.85-1.891-1.891-1.891ZM19.109,12.484h-4.735c-1.041,0-1.891.85-1.891,1.891s.85,1.891,1.891,1.891h4.735c1.041,0,1.891-.85,1.891-1.891s-.85-1.891-1.891-1.891Z"/>
</svg>
