<svg xmlns="http://www.w3.org/2000/svg" width="24" height="24" viewBox="0 0 24 24" fill="currentColor">
  <path d="M20.936,16.103h0c-.125-.341-.364-.524-.635-.674-.051-.03-.098-.054-.138-.072-.081-.042-.164-.082-.246-.125-.846-.448-1.506-1.014-1.964-1.685-.13-.189-.243-.389-.337-.598-.039-.112-.037-.175-.009-.233.028-.044.065-.083.108-.113.145-.096.295-.194.397-.259.181-.117.325-.21.417-.276.347-.243.59-.501.742-.789.214-.403.242-.88.078-1.305-.23-.605-.802-.981-1.494-.981-.146,0-.292.015-.434.046-.038.008-.076.017-.113.026.007-.414-.003-.851-.04-1.281-.131-1.511-.66-2.304-1.212-2.936-.353-.396-.77-.731-1.232-.992-.838-.478-1.787-.721-2.822-.721s-1.981.243-2.819.721c-.464.26-.881.596-1.234.994-.552.632-1.081,1.426-1.212,2.936-.037.43-.046.869-.04,1.281-.037-.01-.075-.019-.113-.026-.143-.031-.289-.046-.434-.046-.693,0-1.265.376-1.495.981-.166.426-.138.903.076,1.307.152.289.395.547.742.789.092.064.236.157.417.276.098.064.241.157.381.249.049.032.091.074.122.123.029.06.031.125-.013.245-.093.205-.204.401-.332.586-.448.655-1.089,1.211-1.907,1.655-.434.23-.884.383-1.075.901-.143.391-.05.835.315,1.209.134.14.289.257.46.348.355.196.733.347,1.126.45.081.021.158.055.227.101.133.116.114.292.291.548.089.133.202.247.333.338.371.257.789.273,1.232.29.4.015.853.032,1.37.203.214.071.437.208.695.368.619.381,1.468.902,2.886.902s2.273-.524,2.897-.906c.256-.157.478-.293.686-.362.517-.171.97-.188,1.37-.203.442-.017.86-.033,1.232-.29.155-.109.285-.25.379-.414.127-.217.124-.368.244-.473.065-.044.137-.077.214-.097.397-.104.781-.257,1.141-.454.181-.097.345-.225.483-.378l.005-.005c.342-.366.428-.797.288-1.178ZM19.676,16.779h-.002c-.769.425-1.281.38-1.679.636-.338.218-.138.686-.383.856-.302.208-1.193-.015-2.345.365-.95.314-1.556,1.217-3.265,1.217s-2.301-.901-3.266-1.22c-1.15-.38-2.044-.157-2.345-.365-.245-.169-.046-.638-.383-.856-.398-.256-.91-.211-1.679-.633-.49-.271-.212-.438-.049-.517,2.787-1.349,3.232-3.432,3.251-3.587.024-.187.05-.334-.155-.525-.199-.184-1.082-.731-1.328-.902-.406-.283-.584-.566-.452-.914.092-.241.316-.331.552-.331.074,0,.149.008.221.025.445.097.877.32,1.127.38.03.008.061.012.092.013.133,0,.18-.067.171-.22-.029-.487-.097-1.436-.02-2.323.106-1.22.499-1.825.966-2.36.224-.257,1.279-1.372,3.296-1.372s3.074,1.11,3.298,1.366c.468.535.862,1.139.966,2.36.077.887.011,1.837-.02,2.323-.011.161.038.22.171.22.031,0,.062-.005.092-.013.25-.06.682-.283,1.127-.38.073-.016.147-.025.221-.025.237,0,.46.092.552.331.131.347-.046.631-.452.914-.245.171-1.129.718-1.328.902-.206.19-.179.338-.155.525.02.157.464,2.24,3.251,3.587.164.082.442.25-.047.523Z"/>
</svg>
