<svg xmlns="http://www.w3.org/2000/svg" width="24" height="24" viewBox="0 0 24 24" fill="currentColor">
  <path d="M23.999,14.165c-.052,1.796-1.612,3.169-3.4,3.169h-8.18c-.375-.003-.677-.308-.675-.683V7.862c-.016-.312.165-.601.452-.724,0,0,.75-.513,2.333-.513.972-.003,1.927.258,2.763.755,1.315.768,2.247,2.052,2.57,3.54.282-.08.574-.121.868-.12.884,0,1.73.358,2.347.992s.948,1.49.922,2.373ZM10.721,8.421c.247,2.98.427,5.697,0,8.672,0,.146-.119.265-.265.265s-.265-.119-.265-.265h0c-.395-2.946-.22-5.718,0-8.672,0-.146.119-.265.265-.265s.265.119.265.265ZM9.072,9.448c.285,2.659.37,4.986-.006,7.655-.018.152-.156.26-.308.242-.127-.015-.226-.115-.242-.242-.331-2.63-.256-5.02,0-7.655,0-.154.124-.278.278-.278s.278.124.278.278ZM7.409,9.191c.27,2.726.39,5.171,0,7.904,0,.147-.119.266-.266.266s-.266-.119-.266-.266c-.38-2.69-.257-5.21,0-7.904,0-.147.119-.266.266-.266s.266.119.266.266ZM5.762,9.961c.325,2.371.322,4.776-.008,7.147-.013.15-.145.261-.294.248-.132-.011-.236-.116-.248-.248-.306-2.373-.306-4.774,0-7.147,0-.152.123-.275.275-.275s.275.123.275.275ZM4.092,11.73c.421,1.865.228,3.5-.029,5.388,0,.142-.115.257-.257.257-.142,0-.257-.115-.257-.257-.21-1.858-.398-3.549,0-5.389.009-.15.138-.264.288-.255.137.008.247.118.255.255h0ZM2.437,11.457c.388,1.897.26,3.508-.01,5.412-.026.28-.514.283-.54,0-.244-1.878-.347-3.54-.01-5.412.023-.155.166-.262.321-.239.124.018.221.115.239.239ZM.769,12.368c.4,1.268.257,2.292-.026,3.572,0,.142-.115.257-.257.257-.142,0-.257-.115-.257-.257-.241-1.262-.354-2.312-.023-3.572.016-.155.155-.268.311-.252.133.014.239.119.252.252Z"/>
</svg>