<svg xmlns="http://www.w3.org/2000/svg" height="24px" viewBox="0 -960 960 960" width="24px" fill="#e3e3e3"><path d="M212.31-180Q182-180 161-201q-21-21-21-51.31v-455.38Q140-738 161-759q21-21 51.31-21h120q12.77 0 21.38 8.62 8.62 8.61 8.62 21.38v540q0 12.77-8.62 21.38-8.61 8.62-21.38 8.62h-120ZM450-130v-700q0-12.77 8.62-21.38Q467.23-860 480-860t21.38 8.62Q510-842.77 510-830v50h237.69Q778-780 799-759q21 21 21 51.31v455.38Q820-222 799-201q-21 21-51.31 21H510v50q0 12.77-8.62 21.38Q492.77-100 480-100t-21.38-8.62Q450-117.23 450-130Z"/></svg>