<svg xmlns="http://www.w3.org/2000/svg" height="24px" viewBox="0 -960 960 960" width="24px" fill="#e3e3e3"><path d="M212.31-180Q182-180 161-201q-21-21-21-51.31v-455.38Q140-738 161-759q21-21 51.31-21h120q12.77 0 21.38 8.62 8.62 8.61 8.62 21.38t-8.62 21.38q-8.61 8.62-21.38 8.62h-120q-4.62 0-8.46 3.85-3.85 3.84-3.85 8.46v455.38q0 4.62 3.85 8.46 3.84 3.85 8.46 3.85h120q12.77 0 21.38 8.62 8.62 8.61 8.62 21.38t-8.62 21.38q-8.61 8.62-21.38 8.62h-120ZM450-130v-700q0-12.77 8.62-21.38Q467.23-860 480-860t21.38 8.62Q510-842.77 510-830v50h237.69Q778-780 799-759q21 21 21 51.31v455.38Q820-222 799-201q-21 21-51.31 21H510v50q0 12.77-8.62 21.38Q492.77-100 480-100t-21.38-8.62Q450-117.23 450-130Zm60-110h237.69q4.62 0 8.46-3.85 3.85-3.84 3.85-8.46v-455.38q0-4.62-3.85-8.46-3.84-3.85-8.46-3.85H510v480Zm-310 0v-480 480Zm560 0v-480 480Z"/></svg>