<svg xmlns="http://www.w3.org/2000/svg" height="24px" viewBox="0 -960 960 960" width="24px" fill="currentColor"><path d="m480-389.46 71.61 43.31q9.85 6.23 19.58-.7 9.73-6.92 7.12-18.77l-18.85-81.23 63.39-54.77q9.23-8.23 5.42-19.38-3.81-11.15-16.27-12.15l-82.85-7L496.46-617q-4.61-10.85-16.46-10.85-11.85 0-16.46 10.85l-32.69 76.85-82.85 7q-12.46 1-16.27 12.15-3.81 11.15 5.42 19.38l63.39 54.77-18.85 81.23q-2.61 11.85 7.12 18.77 9.73 6.93 19.58.7L480-389.46ZM354.46-180H252.31q-29.92 0-51.12-21.19Q180-222.39 180-252.31v-102.15l-74.31-74.93q-10.23-10.84-15.46-23.99Q85-466.54 85-480t5.23-26.62q5.23-13.15 15.46-23.99L180-605.54v-102.15q0-29.92 21.19-51.12Q222.39-780 252.31-780h102.15l74.93-74.31q10.84-10.23 23.99-15.46Q466.54-875 480-875t26.62 5.23q13.15 5.23 23.99 15.46L605.54-780h102.15q29.92 0 51.12 21.19Q780-737.61 780-707.69v102.15l74.31 74.93q10.23 10.84 15.46 23.99Q875-493.46 875-480t-5.23 26.62q-5.23 13.15-15.46 23.99L780-354.46v102.15q0 29.92-21.19 51.12Q737.61-180 707.69-180H605.54l-74.93 74.31q-10.84 10.23-23.99 15.46Q493.46-85 480-85t-26.62-5.23q-13.15-5.23-23.99-15.46L354.46-180Z"/></svg>