<svg xmlns="http://www.w3.org/2000/svg" height="24px" viewBox="0 -960 960 960" width="24px" fill="#e3e3e3"><path d="M345.15-462.85q-8.61-8.61-8.61-21.38v-261.23l-92.69 92.69q-8.31 8.31-20.39 8.31-12.07 0-21.38-8.69-9.31-9.31-9.31-21.39 0-12.07 9.31-21.38l138.77-138.77q5.61-5.62 11.84-7.92 6.23-2.31 13.46-2.31 7.24 0 13.66 2.31 6.42 2.3 12.04 7.92l139.77 139.77q8.92 8.92 8.8 20.69-.11 11.77-9.42 21.08-9.31 8.69-21.08 9-11.77.3-21.07-9l-92.31-92.31v261.61q0 12.77-8.62 21.2-8.61 8.42-21.38 8.42t-21.39-8.62Zm235.04 345.08q-6.42-2.31-12.04-7.92L428.38-265.46q-8.92-8.93-8.8-20.69.11-11.77 9.42-21.08 9.31-8.69 21.08-9 11.77-.31 21.07 9l92.31 92.31v-261.62q0-12.77 8.62-21.19 8.61-8.42 21.38-8.42t21.39 8.61q8.61 8.62 8.61 21.39v261.23l92.69-92.7q8.31-8.3 20.39-8.3 12.07 0 21.38 8.69 9.31 9.31 9.31 21.38 0 12.08-9.31 21.39L619.15-125.69q-5.61 5.61-11.84 7.92-6.23 2.31-13.46 2.31-7.24 0-13.66-2.31Z"/></svg>