<svg xmlns="http://www.w3.org/2000/svg" height="24px" viewBox="0 -960 960 960" width="24px" fill="currentColor"><path d="M400-802.31H160q-12.77 0-21.38-8.61-8.62-8.62-8.62-21.39 0-12.77 8.62-21.38 8.61-8.62 21.38-8.62h240q12.77 0 21.38 8.62 8.62 8.61 8.62 21.38t-8.62 21.39q-8.61 8.61-21.38 8.61Zm-150 100h-90q-12.77 0-21.38-8.61-8.62-8.62-8.62-21.39 0-12.77 8.62-21.38 8.61-8.62 21.38-8.62h240q12.77 0 21.38 8.62 8.62 8.61 8.62 21.38t-8.62 21.39q-8.61 8.61-21.38 8.61h-90V-560q0 12.77-8.62 21.38Q292.77-530 280-530t-21.38-8.62Q250-547.23 250-560v-142.31Zm319.08 571.39q-8.31 8.3-20.89 8.5-12.57.19-21.27-8.5-8.69-8.7-8.69-21.08 0-12.38 8.69-21.08l256-256q8.31-8.3 20.89-8.5 12.57-.19 21.27 8.5 8.69 8.7 8.69 21.08 0 12.38-8.69 21.08l-256 256Zm-26.5-211.66q-14.89-14.88-14.89-37.42t14.89-37.42q14.88-14.89 37.42-14.89t37.42 14.89q14.89 14.88 14.89 37.42t-14.89 37.42q-14.88 14.89-37.42 14.89t-37.42-14.89Zm200 200q-14.89-14.88-14.89-37.42t14.89-37.42q14.88-14.89 37.42-14.89t37.42 14.89q14.89 14.88 14.89 37.42t-14.89 37.42q-14.88 14.89-37.42 14.89t-37.42-14.89ZM558.92-555.85q-25.84-25.84-25.84-62.61 0-36.77 25.84-63.23 25.85-26.46 62.62-26.46 12 0 21.88 2.07 9.89 2.08 18.89 7V-840q0-12.77 8.61-21.38 8.62-8.62 21.39-8.62H800q12.77 0 21.38 8.62Q830-852.77 830-840t-8.62 21.38Q812.77-810 800-810h-90v191.54q0 36.77-25.85 62.61Q658.31-530 621.54-530q-36.77 0-62.62-25.85ZM218.85-89.62q-36.77 0-63.58-27.42-26.81-27.42-26.81-64.19 0-16.46 7.31-33.42t21.15-30.43l48.93-48.15-20.93-21.31q-13.46-13.46-20.19-29.81-6.73-16.34-6.73-34.42 0-36.77 26.62-63Q211.23-468 248-468q37.54 0 63.77 25.85Q338-416.31 338-378.77q0 18.08-5.92 34.42-5.93 16.35-19.39 29.81l-21.31 21.31 41.85 41.85 34.31-34.31q8.92-8.92 21.19-8.81 12.27.12 21.58 9.42 8.69 9.31 9 21.08.3 11.77-9 21.08l-34.54 34.54 34.54 34.53q8.3 8.31 8.5 20.89.19 12.57-8.5 21.27-8.7 8.69-21.08 8.69-12.38 0-21.08-8.69l-34.53-34.54-48.93 48.92q-13.84 13.85-30.81 20.77-16.96 6.92-35.03 6.92ZM248-335.38l21.31-21.31q4.92-4.92 6.81-9.46Q278-370.69 278-378q0-13.62-9.08-21.81Q259.85-408 248-408q-11.46 0-20.73 8.19T218-378q0 6.08 2.27 11.42 2.27 5.35 6.81 9.89L248-335.38Zm-30.38 185.77q5.3 0 12.03-2.08 6.74-2.08 11.66-7l50.15-48.93-42.23-42.23-50.54 48.54q-4.92 4.92-7.58 10.46-2.65 5.54-2.65 12.08 0 11.85 8.65 20.5 8.66 8.66 20.51 8.66Z"/></svg>