<svg xmlns="http://www.w3.org/2000/svg" height="24px" viewBox="0 -960 960 960" width="24px" fill="#e3e3e3"><path d="M518.46-398q-89.31 0-132.38 10.42-43.08 10.42-74.31 41.66l-151 151q-8.31 8.3-20.58 8.5-12.27.19-21.57-8.5-9.31-9.31-9.31-21.39 0-12.07 9.31-21.38L269-388.08q30.23-30.23 40.77-73.84 10.54-43.62 10.54-133.46 0-55.7 24.85-109.39 24.84-53.69 70.53-99.38Q500.54-889 602.08-901q101.53-12 167.15 54.85 66.23 66.23 54.23 167.77-12 101.53-96.23 185.76-45.69 45.7-99.19 70.16Q574.54-398 518.46-398Zm-103.38-96q47 46.38 127 34 80-12.38 143-75.38 64-64 76.3-143.5 12.31-79.5-34.3-124.5-47.62-47.24-125.31-35.04-77.69 12.19-142.69 75.8-63 63-76.7 142.31Q368.69-541 415.08-494Zm209.04 392.96q-41.04-41.04-41.04-98.96 0-57.92 41.04-98.96Q665.15-340 723.08-340q57.92 0 98.96 41.04 41.04 41.04 41.04 98.96 0 57.92-41.04 98.96Q781-60 723.08-60q-57.93 0-98.96-41.04Zm155.46-42.46q23.5-23.5 23.5-56.5t-23.5-56.5q-23.5-23.5-56.5-23.5t-56.5 23.5q-23.5 23.5-23.5 56.5t23.5 56.5q23.5 23.5 56.5 23.5t56.5-23.5Zm-56.5-56.5Z"/></svg>