<svg xmlns="http://www.w3.org/2000/svg" height="24px" viewBox="0 -960 960 960" width="24px" fill="currentColor"><path d="M637.69-450q-12.77 0-21.38-8.62-8.62-8.61-8.62-21.38t8.62-21.38q8.61-8.62 21.38-8.62h240q12.77 0 21.39 8.62 8.61 8.61 8.61 21.38t-8.61 21.38q-8.62 8.62-21.39 8.62h-240Zm-460.31 95.85-46.77 122.84q-3.84 10.16-11.76 15.73-7.93 5.58-18.47 5.58-17.23 0-27.07-14.31-9.85-14.31-3.77-30.54l186-474.38q3.46-9.38 11.61-15.08 8.16-5.69 17.93-5.69h25.23q10.38 0 18.23 5.69 7.84 5.7 11.3 15.08l186.24 473.85q6.07 16.61-3.97 30.99Q512.08-210 494.85-210q-10.54 0-19.46-5.89-8.93-5.88-12.77-16.42l-46.16-121.84H177.38Zm21.7-59.85h195.69l-95.08-252h-4.77l-95.84 252Z"/></svg>