<svg xmlns="http://www.w3.org/2000/svg" width="24" height="24" viewBox="0 0 24 24" fill="currentColor">
  <path d="M16.309,11.343c-.078-.037-.156-.073-.236-.107-.139-2.56-1.538-4.026-3.887-4.04h-.032c-1.405,0-2.573.6-3.293,1.691l1.291.886c.537-.815,1.38-.989,2.001-.989h.021c.773.005,1.357.23,1.734.669.275.319.459.76.55,1.317-.686-.116-1.427-.152-2.22-.107-2.233.129-3.669,1.431-3.572,3.241.049.918.507,1.707,1.288,2.224.661.436,1.511.649,2.396.601,1.168-.064,2.084-.51,2.723-1.324.485-.619.793-1.421.928-2.431.557.336.969.778,1.197,1.31.388.903.41,2.388-.801,3.597-1.061,1.06-2.337,1.519-4.265,1.533-2.138-.016-3.756-.701-4.807-2.038-.985-1.252-1.493-3.059-1.513-5.374.019-2.314.528-4.122,1.513-5.374,1.052-1.336,2.669-2.022,4.807-2.039,2.154.016,3.799.705,4.891,2.048.536.659.939,1.487,1.205,2.453l1.514-.404c-.323-1.189-.83-2.213-1.52-3.063-1.4-1.722-3.446-2.604-6.084-2.623h-.01c-2.632.018-4.656.904-6.016,2.632-1.21,1.538-1.834,3.678-1.855,6.361v.013c.021,2.683.645,4.823,1.855,6.361,1.36,1.729,3.384,2.614,6.016,2.632h.01c2.34-.016,3.99-.629,5.349-1.986,1.777-1.776,1.724-4.002,1.138-5.369-.42-.98-1.222-1.776-2.317-2.302h0ZM12.268,15.142c-.978.055-1.995-.384-2.046-1.325-.037-.698.496-1.476,2.106-1.569.185-.011.365-.016.543-.016.584,0,1.131.057,1.628.165-.185,2.316-1.273,2.692-2.231,2.744h0Z"/>
</svg>
