<svg xmlns="http://www.w3.org/2000/svg" height="24px" viewBox="0 -960 960 960" width="24px" fill="#e3e3e3"><path d="M397.69-850q-12.77 0-21.38-8.62-8.62-8.61-8.62-21.38t8.62-21.38q8.61-8.62 21.38-8.62h164.62q12.77 0 21.38 8.62 8.62 8.61 8.62 21.38t-8.62 21.38q-8.61 8.62-21.38 8.62H397.69Zm103.69 433.69q8.62-8.61 8.62-21.38v-164.62q0-12.77-8.62-21.38-8.61-8.62-21.38-8.62t-21.38 8.62q-8.62 8.61-8.62 21.38v164.62q0 12.77 8.62 21.38 8.61 8.62 21.38 8.62t21.38-8.62ZM348-126.77q-61.85-26.77-108.15-73.08-46.31-46.3-73.08-108.15Q140-369.85 140-440t26.77-132q26.77-61.85 73.08-108.15 46.3-46.31 108.15-73.08Q409.85-780 480-780q60.08 0 115.73 20.39 55.65 20.38 103.35 58.38L727.85-730q8.3-8.31 20.88-8.5 12.58-.19 21.27 8.5t8.69 21.08q0 12.38-8.69 21.07l-28.77 28.77q38 47.7 58.38 103.35Q820-500.08 820-440q0 70.15-26.77 132-26.77 61.85-73.08 108.15-46.3 46.31-108.15 73.08Q550.15-100 480-100t-132-26.77ZM678-242q82-82 82-198t-82-198q-82-82-198-82t-198 82q-82 82-82 198t82 198q82 82 198 82t198-82ZM480-440Z"/></svg>