<svg xmlns="http://www.w3.org/2000/svg" height="24px" viewBox="0 -960 960 960" width="24px" fill="currentColor"><path d="M589.92-100q-22.07 0-41.96-8.23-19.88-8.23-35.73-24.08L348.16-296.62q-9.85-9.84-10.16-24.61-.31-14.77 9.54-25.62l3.69-3.69q11.69-11.69 27.85-15.34 16.15-3.66 32.69.57l75.15 19.23v-283.53q0-12.77 8.62-21.39 8.61-8.61 21.38-8.61t21.39 8.61q8.61 8.62 8.61 21.39v315.76q0 17.69-13.96 28.43-13.96 10.73-31.65 6.11l-68.16-17.61 121.46 122.23q7.54 7.54 16.27 11.11 8.73 3.58 19.04 3.58h153.16q37.23 0 63.61-26.38 26.39-26.39 26.39-63.62v-143.46q0-12.77 8.61-21.39 8.62-8.61 21.39-8.61 12.76 0 21.38 8.61 8.61 8.62 8.61 21.39V-250q0 62.15-43.92 106.08Q805.23-100 743.08-100H589.92Zm21-277.08q-8.61-8.61-8.61-21.38v-130.39q0-12.77 8.61-21.38 8.62-8.62 21.39-8.62 12.77 0 21.38 8.62 8.62 8.61 8.62 21.38v130.39q0 12.77-8.62 21.38-8.61 8.62-21.38 8.62t-21.39-8.62Zm115.39 0q-8.62-8.61-8.62-21.38v-82.69q0-12.77 8.62-21.39 8.61-8.61 21.38-8.61t21.39 8.61q8.61 8.62 8.61 21.39v82.69q0 12.77-8.61 21.38-8.62 8.62-21.39 8.62-12.77 0-21.38-8.62ZM743.08-160H554.61h188.47Zm-570.77-60Q142-220 121-241q-21-21-21-51.31v-455.38Q100-778 121-799q21-21 51.31-21h575.38Q778-820 799-799q21 21 21 51.31v118.84q0 12.77-8.62 21.39-8.61 8.61-21.38 8.61t-21.38-8.61q-8.62-8.62-8.62-21.39v-118.84q0-4.62-3.85-8.46-3.84-3.85-8.46-3.85H172.31q-4.62 0-8.46 3.85-3.85 3.84-3.85 8.46v455.38q0 4.62 3.85 8.46 3.84 3.85 8.46 3.85h72q12.77 0 21.38 8.62 8.62 8.61 8.62 21.38t-8.62 21.38q-8.61 8.62-21.38 8.62h-72Z"/></svg>