<svg xmlns="http://www.w3.org/2000/svg" width="24" height="24" viewBox="0 0 24 24" fill="currentColor">
  <path d="M18.858,3H5.139c-1.182.001-2.139.96-2.139,2.142v13.719c0,1.181.957,2.139,2.139,2.139h13.719c1.182,0,2.14-.957,2.142-2.139V5.142c-.001-1.182-.96-2.14-2.142-2.142ZM10.752,15.966c.001.392-.314.71-.706.712h-3.013c-.392,0-.709-.318-.709-.709V7.035c-.001-.392.314-.71.706-.712h3.013c.392,0,.709.318.709.709v.003s0,8.931,0,8.931ZM17.676,11.866c0,.393-.318.712-.712.712h-3.007c-.393,0-.712-.318-.712-.712v-4.83c0-.393.318-.712.712-.712h3.007c.393,0,.712.318.712.712v4.83Z"/>
</svg>
