<svg xmlns="http://www.w3.org/2000/svg" height="24px" viewBox="0 -960 960 960" width="24px" fill="#e3e3e3"><path d="M386.15-180q-15.36 0-25.76-10.4Q350-200.79 350-216.16v-88.07q0-15.37 10.39-25.76 10.4-10.4 25.76-10.4h437.69q15.37 0 25.76 10.4Q860-319.6 860-304.23v88.07q0 15.37-10.4 25.76-10.39 10.4-25.76 10.4H386.15ZM136.16-619.61q-15.37 0-25.76-10.4Q100-640.4 100-655.77v-88.07q0-15.37 10.4-25.76 10.39-10.4 25.76-10.4h117.69q15.36 0 25.76 10.4Q290-759.21 290-743.84v88.07q0 15.37-10.39 25.76-10.4 10.4-25.76 10.4H136.16Zm0 219.61q-15.37 0-25.76-10.39-10.4-10.4-10.4-25.76v-87.31q0-15.37 10.4-25.76 10.39-10.4 25.76-10.4h117.69q15.36 0 25.76 10.4Q290-538.83 290-523.46v87.31q0 15.36-10.39 25.76Q269.21-400 253.85-400H136.16Zm0 220q-15.37 0-25.76-10.4-10.4-10.39-10.4-25.76v-88.07q0-15.37 10.4-25.76 10.39-10.4 25.76-10.4h117.69q15.36 0 25.76 10.4Q290-319.6 290-304.23v88.07q0 15.37-10.39 25.76-10.4 10.4-25.76 10.4H136.16Zm249.99-220q-15.36 0-25.76-10.39Q350-420.79 350-436.15v-87.31q0-15.37 10.39-25.76 10.4-10.4 25.76-10.4h437.69q15.37 0 25.76 10.4 10.4 10.39 10.4 25.76v87.31q0 15.36-10.4 25.76Q839.21-400 823.84-400H386.15Zm0-219.61q-15.36 0-25.76-10.4Q350-640.4 350-655.77v-88.07q0-15.37 10.39-25.76 10.4-10.4 25.76-10.4h437.69q15.37 0 25.76 10.4 10.4 10.39 10.4 25.76v88.07q0 15.37-10.4 25.76-10.39 10.4-25.76 10.4H386.15Z"/></svg>