<svg xmlns="http://www.w3.org/2000/svg" width="24" height="24" viewBox="0 0 24 24" fill="currentColor">
  <path d="M9.112,8.262l-3.142,7.496h-2.05l-1.546-5.983c-.094-.368-.175-.503-.461-.658-.466-.253-1.236-.49-1.913-.638l.046-.217h3.3c.446,0,.825.324.894.764l.817,4.338,2.018-5.102h2.037ZM17.145,13.311c.008-1.979-2.736-2.088-2.717-2.972.006-.269.262-.555.822-.628.656-.062,1.317.054,1.913.336l.34-1.59c-.58-.218-1.194-.331-1.814-.333-1.917,0-3.266,1.02-3.278,2.479-.012,1.079.963,1.68,1.698,2.04.756.367,1.01.603,1.006.931-.005.504-.602.725-1.16.734-.975.015-1.54-.263-1.992-.473l-.351,1.642c.453.208,1.289.39,2.156.398,2.037,0,3.37-1.006,3.377-2.564M22.206,15.758h1.794l-1.565-7.496h-1.656c-.362-.003-.689.215-.826.55l-2.909,6.946h2.036l.405-1.12h2.488l.233,1.12ZM20.043,13.102l1.02-2.815.588,2.815h-1.608ZM11.883,8.262l-1.603,7.496h-1.94l1.605-7.496h1.938Z"/>
</svg>