<svg xmlns="http://www.w3.org/2000/svg" height="24px" viewBox="0 -960 960 960" width="24px" fill="currentColor"><path d="M233.08-126.15V-380h-23.85q-15.46 0-25.81-10.35-10.34-10.34-10.34-25.8V-600q0-29.15 20.42-49.58Q213.92-670 243.08-670h113.84q29.16 0 49.58 20.42 20.42 20.43 20.42 49.58v183.85q0 15.46-10.34 25.8Q406.23-380 390.77-380h-23.85v253.85q0 15.46-10.34 25.8Q346.23-90 330.77-90h-61.54q-15.46 0-25.81-10.35-10.34-10.34-10.34-25.8Zm14.65-606.2q-21.58-21.57-21.58-52.26 0-30.7 21.58-52.27 21.58-21.58 52.27-21.58 30.69 0 52.27 21.58 21.58 21.57 21.58 52.27 0 30.69-21.58 52.26-21.58 21.58-52.27 21.58-30.69 0-52.27-21.58ZM610-126.15V-320h-60q-17.69 0-28.73-14.58-11.04-14.57-5.19-32.27l76.69-256.07q6.85-22.54 25.27-34.81Q636.46-670 660-670t41.96 12.27q18.42 12.27 25.27 34.81l76.69 256.07q5.85 17.7-5.19 32.27Q787.69-320 770-320h-60v193.85q0 15.46-10.35 25.8Q689.31-90 673.85-90h-27.7q-15.46 0-25.8-10.35Q610-110.69 610-126.15Zm-2.27-606.2q-21.58-21.57-21.58-52.26 0-30.7 21.58-52.27 21.58-21.58 52.27-21.58 30.69 0 52.27 21.58 21.58 21.57 21.58 52.27 0 30.69-21.58 52.26-21.58 21.58-52.27 21.58-30.69 0-52.27-21.58Z"/></svg>