<svg xmlns="http://www.w3.org/2000/svg" width="24" height="24" viewBox="0 0 24 24" fill="currentColor">
  <path d="M8.691,2.188C3.891,2.188,0,5.476,0,9.53c0,2.212,1.17,4.203,3.002,5.55.209.151.295.421.213.665l-.39,1.48c-.019.07-.048.141-.048.213,0,.163.13.295.29.295.06-.002.117-.021.167-.054l1.903-1.114c.213-.136.475-.172.717-.098.922.268,1.877.403,2.837.403.276,0,.543-.027.811-.05-.857-2.578.157-4.972,1.932-6.446,1.703-1.415,3.882-1.98,5.853-1.838-.576-3.583-4.196-6.348-8.596-6.348ZM5.785,5.991c.642,0,1.162.529,1.162,1.18.004.646-.516,1.174-1.162,1.178h0c-.646-.004-1.166-.532-1.162-1.178,0,0,0,0,0-.001,0-.651.52-1.18,1.162-1.18h0ZM11.598,5.991c.642,0,1.162.529,1.162,1.18.004.646-.516,1.174-1.162,1.178h0c-.646-.004-1.166-.532-1.162-1.178h0c0-.651.52-1.18,1.162-1.18ZM16.938,8.858c-1.797-.052-3.746.512-5.28,1.786-1.72,1.428-2.687,3.72-1.78,6.22.942,2.453,3.666,4.229,6.884,4.229.826,0,1.622-.12,2.361-.336.202-.061.42-.031.598.082l1.584.926c.041.028.09.045.14.047.134,0,.24-.111.24-.247,0-.06-.023-.12-.038-.177l-.327-1.233c-.015-.051-.022-.103-.023-.156,0-.157.074-.305.201-.398,1.526-1.121,2.502-2.781,2.502-4.621,0-3.21-2.931-5.837-6.656-6.088v-.002c-.135-.01-.27-.027-.407-.03v-.002ZM14.408,12.132c.535,0,.969.44.969.982.004.539-.43.979-.969.983h0c-.539-.004-.973-.444-.969-.983h0c0-.542.434-.982.97-.982h-.001ZM19.252,12.132c.535,0,.969.44.969.982.004.539-.43.979-.969.983h0c-.539-.004-.973-.444-.969-.983h0c0-.542.434-.982.969-.982Z"/>
</svg>