<svg xmlns="http://www.w3.org/2000/svg" width="24" height="24" viewBox="0 0 24 24" fill="currentColor">
  <path d="M9.528,4.726c-3.698,0-6.528,2.509-6.528,5.245s2.444,4.32,2.444,4.32l-.397,1.506c-.052.199.16.363.339.261l1.785-1.012c.789.252,2.464.332,2.627.339-.117-.405-.175-.806-.175-1.179,0-2.112,1.838-5.085,5.924-5.085.093,0,.186.002.279.006-.543-2.603-3.245-4.403-6.297-4.403h0ZM7.095,9.084c-.448,0-.811-.363-.811-.811s.363-.811.811-.811.811.363.811.811-.363.811-.811.811ZM11.812,9.084c-.448,0-.811-.363-.811-.811s.363-.811.811-.811.811.363.811.811-.363.811-.811.811ZM21,13.877c0-2.396-2.812-4.151-5.453-4.151-3.736,0-5.321,2.698-5.321,4.481s1.585,4.481,5.321,4.481c.826,0,1.554-.119,2.186-.328l1.405.891c.111.07.252-.029.222-.157l-.319-1.384c1.327-.924,1.959-2.382,1.959-3.834h0ZM13.84,13.421c-.396,0-.717-.321-.717-.717s.321-.717.717-.717.717.321.717.717-.321.717-.717.717ZM17.424,13.421c-.396,0-.717-.321-.717-.717s.321-.717.717-.717.717.321.717.717-.321.717-.717.717Z"/>
</svg>
