<svg xmlns="http://www.w3.org/2000/svg" width="24" height="24" viewBox="0 0 24 24" fill="currentColor">
  <path d="M16.521,11.729c-.254-.076-.427-.128-.295-.46.287-.723.317-1.347.006-1.792-.584-.835-2.183-.79-4.016-.022,0-.001-.575.252-.428-.205.282-.906.24-1.665-.199-2.103-.994-.995-3.638.038-5.905,2.304-1.698,1.698-2.684,3.498-2.684,5.054,0,2.977,3.817,4.786,7.551,4.786,4.895,0,8.151-2.844,8.151-5.102,0-1.364-1.149-2.139-2.182-2.459ZM10.561,18.223c-2.979.294-5.552-1.053-5.746-3.009-.193-1.956,2.066-3.78,5.045-4.075,2.98-.295,5.552,1.052,5.746,3.008.193,1.957-2.065,3.782-5.045,4.076ZM20.769,10.942v.003c-.117.362-.506.56-.867.443-.363-.117-.562-.505-.444-.868.359-1.113.132-2.383-.708-3.314-.841-.93-2.08-1.286-3.225-1.043-.372.08-.739-.158-.818-.53-.08-.372.158-.739.53-.818,1.609-.343,3.354.157,4.535,1.467h0c1.182,1.309,1.501,3.094.997,4.66ZM17.956,7.92h0c.577.638.731,1.507.485,2.271-.101.312-.435.481-.747.382-.312-.101-.483-.436-.382-.747.121-.373.046-.799-.236-1.111-.282-.311-.697-.43-1.081-.349-.32.07-.635-.136-.704-.455-.069-.321.136-.637.456-.705.784-.167,1.633.076,2.209.714ZM10.859,12.644c-1.418-.369-3.021.337-3.636,1.587-.627,1.274-.021,2.689,1.412,3.151,1.484.479,3.233-.255,3.841-1.63.6-1.344-.149-2.729-1.617-3.108ZM9.776,15.899c-.288.46-.905.661-1.37.449-.458-.209-.593-.743-.305-1.191.285-.446.881-.646,1.343-.452.466.199.616.73.332,1.194ZM10.726,14.68c-.104.178-.335.264-.515.19-.178-.073-.233-.272-.132-.448.104-.174.326-.259.502-.189.18.066.245.268.145.447Z"/>
</svg>
