<svg xmlns="http://www.w3.org/2000/svg" width="24" height="24" viewBox="0 0 24 24" fill="currentColor">
  <path d="M17.472,14.382c-.297-.149-1.758-.867-2.03-.967-.273-.099-.471-.148-.67.15-.197.297-.767.966-.94,1.164-.173.199-.347.223-.644.075-.297-.15-1.255-.463-2.39-1.475-.883-.788-1.48-1.761-1.653-2.059-.173-.297-.018-.458.13-.606.134-.133.298-.347.446-.52.149-.174.198-.298.298-.497.099-.198.05-.371-.025-.52s-.669-1.612-.916-2.207c-.242-.579-.487-.5-.669-.51-.173-.008-.371-.01-.57-.01-.198,0-.52.074-.792.372-.272.297-1.04,1.016-1.04,2.479s1.065,2.875,1.213,3.074c.149.198,2.096,3.2,5.077,4.487.709.306,1.262.489,1.694.625.712.227,1.36.195,1.871.118.571-.085,1.758-.719,2.006-1.413.248-.694.248-1.289.173-1.413-.074-.124-.272-.198-.57-.347M12.05,21.785h-.004c-1.77,0-3.508-.476-5.031-1.378l-.361-.214-3.741.982.998-3.648-.235-.374c-.99-1.576-1.513-3.399-1.51-5.26,0-5.45,4.436-9.884,9.888-9.884,2.64,0,5.122,1.03,6.988,2.898,1.86,1.851,2.901,4.37,2.893,6.994-.003,5.45-4.437,9.884-9.885,9.884M20.463,3.488C18.237,1.248,15.208-.008,12.05,0,5.495,0,.16,5.335.157,11.892c0,2.096.547,4.142,1.588,5.945L.057,24l6.305-1.654c1.744.95,3.697,1.448,5.683,1.448h.005c6.554,0,11.89-5.335,11.893-11.893.01-3.156-1.243-6.186-3.48-8.413Z"/>
</svg>