<svg xmlns="http://www.w3.org/2000/svg" width="24" height="24" viewBox="0 0 24 24" fill="currentColor">
  <path d="M18.347,5.616c-1.684-1.686-3.923-2.614-6.309-2.616C7.122,3,3.12,7.001,3.119,11.919c0,1.572.41,3.107,1.191,4.459l-1.266,4.622,4.728-1.24c1.302.711,2.769,1.085,4.262,1.086h.004c4.916,0,8.918-4.001,8.919-8.919,0-2.384-.926-4.624-2.61-6.31h0ZM12.038,19.339h-.003c-1.33,0-2.635-.358-3.774-1.033l-.271-.161-2.806.736.749-2.736-.176-.28c-.742-1.18-1.134-2.544-1.133-3.945.002-4.087,3.327-7.413,7.417-7.413,1.98,0,3.841.773,5.241,2.174,1.4,1.401,2.17,3.264,2.169,5.244-.002,4.088-3.327,7.413-7.413,7.413h0ZM16.104,13.787c-.223-.112-1.319-.651-1.523-.725-.204-.075-.353-.112-.501.112-.149.223-.575.725-.706.874-.13.149-.26.167-.483.055-.223-.112-.941-.347-1.792-1.106-.662-.591-1.11-1.32-1.24-1.544-.13-.223-.013-.344.098-.454.1-.1.223-.26.334-.39.112-.13.148-.223.223-.372.075-.149.037-.279-.019-.39-.056-.112-.501-1.209-.687-1.655-.181-.435-.365-.375-.501-.383-.13-.006-.278-.008-.427-.008s-.39.055-.595.279c-.204.223-.78.762-.78,1.859s.798,2.157.91,2.306c.112.149,1.572,2.4,3.807,3.365.532.23.947.367,1.271.469.534.17,1.02.146,1.403.089.428-.064,1.319-.539,1.504-1.06s.186-.967.13-1.06-.204-.149-.428-.26h.001Z"/>
</svg>
