<svg xmlns="http://www.w3.org/2000/svg" height="24px" viewBox="0 -960 960 960" width="24px" fill="#e3e3e3"><path d="M422.65-154.96q-23.42-23.42-23.42-57.35 0-33.92 23.42-57.34 23.43-23.42 57.35-23.42t57.35 23.42q23.42 23.42 23.42 57.34 0 33.93-23.42 57.35-23.43 23.42-57.35 23.42t-57.35-23.42ZM617.5-505.23q64.81 24 117.11 66.39 15 11.53 15.5 29.88t-12.88 31.73q-12.77 12.77-31.42 12.88-18.66.12-33.66-10.8-39.53-30.23-88.61-47.54T480-440q-54.46 0-103.54 17.31-49.08 17.31-88.61 47.54-15 10.92-33.66 10.5-18.65-.43-31.42-13.2-12.77-13.38-12.58-31.73.2-18.34 15.2-29.88 52.3-42.38 117.11-66.08 64.81-23.69 137.5-23.69t137.5 24Zm93.77-222.42Q819.08-686.07 904-611.07q15 12.76 15.81 31.61.8 18.85-12.58 32.23-13.15 13.15-32 12.69-18.84-.46-34.23-13-73.15-62.84-165.35-97.65Q583.46-680 480-680q-103.46 0-195.65 34.81-92.2 34.81-165.35 97.65-15.39 12.54-34.23 13-18.85.46-32-12.69-13.38-13.38-12.58-32.23Q41-598.31 56-611.07q84.92-75 192.73-116.58Q356.54-769.23 480-769.23q123.46 0 231.27 41.58Z"/></svg>