<svg xmlns="http://www.w3.org/2000/svg" height="24px" viewBox="0 -960 960 960" width="24px" fill="#e3e3e3"><path d="M403.08-126.15v-206.16h-62.16q-19.02 0-29.89-15.77-10.88-15.77-3.64-33.84l97.69-246.46q9.59-23.12 29.74-36.6 20.14-13.48 45.08-13.48 24.95 0 45.17 13.48 20.22 13.48 29.85 36.6l97.69 246.46q7.24 18.07-3.64 33.84-10.87 15.77-29.89 15.77h-62.16v206.16q0 15.36-10.39 25.76Q536.13-90 520.77-90h-81.54q-15.36 0-25.76-10.39-10.39-10.4-10.39-25.76Zm24.84-619.47q-21.77-21.76-21.77-52.07t21.77-52.08q21.77-21.77 52.08-21.77t52.08 21.77q21.77 21.77 21.77 52.08t-21.77 52.07q-21.77 21.77-52.08 21.77t-52.08-21.77Z"/></svg>