<svg xmlns="http://www.w3.org/2000/svg" width="24" height="24" viewBox="0 0 24 24" fill="currentColor">
  <path d="M12,3c4.964,0,9,4.036,9,9s-4.036,9-9,9S3,16.964,3,12,7.036,3,12,3ZM12.138,12.706l-2.423,7.062c1.63.476,3.369.428,4.971-.138l-.055-.111-2.492-6.812h0ZM4.613,8.705c-1.78,3.989-.073,8.671,3.856,10.578l-3.856-10.578ZM19.11,8.116c.128,1.271-.065,2.554-.561,3.732l-2.478,7.145c3.79-2.202,5.134-7.023,3.032-10.869l.007-.007h0ZM12,3.907c-2.825,0-5.317,1.454-6.764,3.648l.526.007c.845,0,2.153-.097,2.153-.097.436-.028.485.609.055.665h-.062c-.132.021-.485.055-.865.069l2.942,8.772,1.772-5.31-1.26-3.462c-.436-.021-.845-.069-.845-.069-.436-.028-.388-.692.048-.665,0,0,.568.042,1.184.069l.249.014.692.014h.118c.845,0,2.042-.097,2.042-.097.436-.028.485.609.055.665h-.055c-.138.021-.485.055-.872.069l2.922,8.702.81-2.7c.415-1.045.616-1.918.616-2.61,0-1.004-.36-1.696-.665-2.229-.415-.672-.796-1.232-.796-1.897,0-.748.561-1.44,1.357-1.44l.104.007c-1.489-1.369-3.439-2.128-5.462-2.125h0Z"/>
</svg>
