<svg xmlns="http://www.w3.org/2000/svg" width="24" height="24" viewBox="0 0 24 24" fill="currentColor">
  <path d="M16.641,3c-.388,0-.556.244-.695.495,0,0-5.591,9.918-5.776,10.243.011.018,3.689,6.767,3.689,6.767.128.231.327.495.725.495h2.59c.158,0,.281-.058.347-.165.067-.113.067-.26-.007-.402l-3.659-6.687s-.003-.012,0-.017l5.749-10.163c.071-.143.073-.29.005-.401-.067-.107-.188-.166-.344-.166,0,0-2.623,0-2.624,0ZM5.736,6.555c-.158,0-.289.055-.355.162-.067.112-.059.254.015.398l1.755,3.038c.003.008.003.012,0,.016l-2.756,4.87c-.074.141-.07.286,0,.397.064.107.179.175.338.175h2.596c.389,0,.574-.261.709-.5l2.8-4.957-1.784-3.116c-.129-.236-.326-.494-.721-.494h-2.596s0,.012,0,.012Z"/>
</svg>
