<svg xmlns="http://www.w3.org/2000/svg" width="24" height="24" viewBox="0 0 24 24" fill="currentColor">
  <path d="M18.931,9.99l-1.441-.601,1.717-.913c2.192-1.148,3.038-3.855,1.89-6.047-.005-.01-.011-.021-.016-.031-1.164-2.199-3.891-3.038-6.09-1.874L4.792,5.929c-1.546.814-2.482,2.448-2.402,4.193.083,1.699,1.114,3.208,2.666,3.904.036.012,1.442.6,1.442.6l-1.706.901c-1.459.787-2.368,2.31-2.369,3.967.012,2.484,2.023,4.495,4.507,4.506.725,0,1.437-.174,2.08-.508l10.21-5.406c1.543-.815,2.475-2.449,2.39-4.192-.086-1.702-1.121-3.211-2.678-3.904h-.001ZM9.597,15.19v-6.366l6.007,3.184-6.007,3.182Z"/>
</svg>