<svg xmlns="http://www.w3.org/2000/svg" width="24" height="24" viewBox="0 0 24 24" fill="currentColor">
  <path d="M17.198,10.493l-1.081-.451,1.288-.685c1.644-.861,2.278-2.891,1.417-4.535-.004-.007-.008-.016-.012-.023-.873-1.649-2.918-2.278-4.567-1.405l-7.649,4.054c-1.159.61-1.861,1.836-1.801,3.145.062,1.274.835,2.406,1.999,2.928.027.009,1.081.45,1.081.45l-1.279.676c-1.094.59-1.776,1.732-1.777,2.975.009,1.863,1.517,3.371,3.38,3.379.544,0,1.078-.13,1.56-.381l7.657-4.054c1.157-.611,1.856-1.837,1.792-3.144-.064-1.276-.841-2.408-2.008-2.928,0,0,0,0,0,0ZM10.198,14.393v-4.774l4.505,2.388-4.505,2.386Z"/>
</svg>
