<svg xmlns="http://www.w3.org/2000/svg" width="24" height="24" viewBox="0 0 24 24" fill="currentColor">
  <path d="M23.498,6.186c-.276-1.039-1.084-1.853-2.122-2.136-1.871-.505-9.376-.505-9.376-.505,0,0-7.505,0-9.377.505-1.037.283-1.845,1.097-2.121,2.136-.502,1.884-.502,5.814-.502,5.814,0,0,0,3.93.502,5.814.276,1.039,1.084,1.853,2.122,2.136,1.871.505,9.376.505,9.376.505,0,0,7.505,0,9.377-.505,1.038-.283,1.846-1.096,2.122-2.136.501-1.884.501-5.814.501-5.814,0,0,0-3.93-.502-5.814ZM9.545,15.568v-7.136l6.273,3.568-6.273,3.568Z"/>
</svg>