<svg xmlns="http://www.w3.org/2000/svg" width="24" height="24" viewBox="0 0 24 24" fill="currentColor">
  <path d="M20.624,7.64c-.207-.78-.817-1.393-1.591-1.602-1.404-.378-7.032-.378-7.032-.378,0,0-5.629,0-7.032.378-.775.208-1.384.822-1.591,1.602-.376,1.413-.376,4.36-.376,4.36,0,0,0,2.948.376,4.36.207.78.817,1.393,1.591,1.601,1.404.378,7.032.378,7.032.378,0,0,5.629,0,7.032-.378.775-.208,1.384-.822,1.591-1.601.376-1.413.376-4.36.376-4.36,0,0,0-2.947-.376-4.36ZM10.159,14.677v-5.353l4.705,2.676-4.705,2.676Z"/>
</svg>
