<svg xmlns="http://www.w3.org/2000/svg" height="24px" viewBox="0 -960 960 960" width="24px" fill="#e3e3e3"><path d="M300-257.85 187.08-144.92q-8.31 8.3-20.89 8.5-12.57.19-21.27-8.5-8.69-8.7-8.69-21.08 0-12.39 8.69-21.08L257.85-300H170q-12.77 0-21.38-8.62Q140-317.23 140-330t8.62-21.38Q157.23-360 170-360h153.85q15.46 0 25.8 10.35Q360-339.31 360-323.85V-170q0 12.77-8.62 21.38Q342.77-140 330-140t-21.38-8.62Q300-157.23 300-170v-87.85Zm360 0V-170q0 12.77-8.62 21.38Q642.77-140 630-140t-21.38-8.62Q600-157.23 600-170v-153.85q0-15.46 10.35-25.8Q620.69-360 636.15-360H790q12.77 0 21.38 8.62Q820-342.77 820-330t-8.62 21.38Q802.77-300 790-300h-87.85l112.93 112.92q8.3 8.31 8.5 20.89.19 12.57-8.5 21.27-8.7 8.69-21.08 8.69-12.39 0-21.08-8.69L660-257.85ZM257.85-660 144.92-772.92q-8.3-8.31-8.5-20.89-.19-12.57 8.5-21.27 8.7-8.69 21.08-8.69 12.39 0 21.08 8.69L300-702.15V-790q0-12.77 8.62-21.38Q317.23-820 330-820t21.38 8.62Q360-802.77 360-790v153.85q0 15.46-10.35 25.8Q339.31-600 323.85-600H170q-12.77 0-21.38-8.62Q140-617.23 140-630t8.62-21.38Q157.23-660 170-660h87.85Zm444.3 0H790q12.77 0 21.38 8.62Q820-642.77 820-630t-8.62 21.38Q802.77-600 790-600H636.15q-15.46 0-25.8-10.35Q600-620.69 600-636.15V-790q0-12.77 8.62-21.38Q617.23-820 630-820t21.38 8.62Q660-802.77 660-790v87.85l112.92-112.93q8.31-8.3 20.89-8.5 12.57-.19 21.27 8.5 8.69 8.7 8.69 21.08 0 12.39-8.69 21.08L702.15-660Z"/></svg>