<svg xmlns="http://www.w3.org/2000/svg" height="24px" viewBox="0 -960 960 960" width="24px" fill="#e3e3e3"><path d="M242.15-200H330q12.77 0 21.38 8.62Q360-182.77 360-170t-8.62 21.38Q342.77-140 330-140H176.16q-15.47 0-25.81-10.35Q140-160.69 140-176.16V-330q0-12.77 8.62-21.38Q157.23-360 170-360t21.38 8.62Q200-342.77 200-330v87.85l112.92-112.93q8.31-8.3 20.89-8.5 12.58-.19 21.27 8.5t8.69 21.08q0 12.38-8.69 21.08L242.15-200Zm475.7 0L604.92-312.92q-8.3-8.31-8.5-20.89-.19-12.58 8.5-21.27t21.08-8.69q12.38 0 21.08 8.69L760-242.15V-330q0-12.77 8.62-21.38Q777.23-360 790-360t21.38 8.62Q820-342.77 820-330v153.84q0 15.47-10.35 25.81Q799.31-140 783.84-140H630q-12.77 0-21.38-8.62Q600-157.23 600-170t8.62-21.38Q617.23-200 630-200h87.85ZM200-717.85V-630q0 12.77-8.62 21.38Q182.77-600 170-600t-21.38-8.62Q140-617.23 140-630v-153.84q0-15.47 10.35-25.81Q160.69-820 176.16-820H330q12.77 0 21.38 8.62Q360-802.77 360-790t-8.62 21.38Q342.77-760 330-760h-87.85l112.93 112.92q8.3 8.31 8.5 20.89.19 12.58-8.5 21.27T334-596.23q-12.38 0-21.08-8.69L200-717.85Zm560 0L647.08-604.92q-8.31 8.3-20.89 8.5-12.58.19-21.27-8.5T596.23-626q0-12.38 8.69-21.08L717.85-760H630q-12.77 0-21.38-8.62Q600-777.23 600-790t8.62-21.38Q617.23-820 630-820h153.84q15.47 0 25.81 10.35Q820-799.31 820-783.84V-630q0 12.77-8.62 21.38Q802.77-600 790-600t-21.38-8.62Q760-617.23 760-630v-87.85Z"/></svg>