<svg xmlns="http://www.w3.org/2000/svg" width="24" height="24" viewBox="0 0 24 24" fill="currentColor">
  <path d="M20.089,10.038l-1.428.409c-.085.03-.173.047-.263.053-.048.003-.092.004-.133.004-.361,0-.69-.138-.95-.399-.267-.267-.402-.61-.39-.989l.033-1.296-.887-1.229c-.09-.123-.156-.257-.198-.398-.038-.128-.057-.259-.057-.389,0-.265.076-.513.221-.739l-3.178-1.829c-.271-.156-.558-.234-.86-.234s-.59.078-.86.234l-6.371,3.667c-.271.156-.482.365-.634.626-.151.261-.227.548-.227.861v7.221c0,.312.076.599.227.861.151.261.363.47.634.626l6.371,3.667c.271.156.558.234.86.234s.59-.078.86-.234l6.371-3.667c.271-.156.482-.365.634-.626s.227-.548.227-.861v-5.573h-.003,0ZM9.246,13.539c.07.075.106.164.108.266.003.103-.034.192-.108.266-.075.075-.163.112-.265.112s-.19-.037-.265-.112l-1.753-1.753c-.091-.091-.136-.197-.136-.318s.045-.227.136-.318l1.753-1.753c.075-.075.163-.112.265-.112s.19.037.265.112.112.164.112.266-.037.192-.112.266l-1.538,1.538,1.538,1.538v.002ZM13.467,8.568l-2.218,7.091c-.032.099-.094.172-.185.221-.091.048-.186.056-.284.024-.099-.032-.172-.095-.221-.187-.048-.093-.056-.188-.024-.287l2.213-7.087c.032-.099.094-.172.185-.221.091-.048.186-.056.284-.024.099.032.173.094.223.185.05.091.059.186.027.284h0ZM17.034,12.319l-1.753,1.753c-.075.075-.163.112-.265.112s-.19-.037-.265-.112-.112-.164-.112-.266.037-.192.112-.266l1.538-1.538-1.538-1.538c-.075-.075-.112-.164-.112-.266s.037-.192.112-.266c.075-.075.163-.112.265-.112s.19.037.265.112l1.753,1.753c.091.091.137.197.137.318s-.045.227-.137.318v-.002ZM20.837,7.779c.219-.168.379-.383.48-.644h-2.457c.1.261.26.476.479.644s.469.253.749.253.53-.084.75-.253h0ZM19.564,6.453c.096-.097.144-.214.144-.353s-.048-.256-.145-.352c-.097-.096-.214-.144-.353-.144s-.256.048-.352.145-.144.214-.144.353.048.256.145.352.214.144.353.144.256-.048.352-.145ZM21.319,6.453c.096-.097.144-.214.144-.353s-.048-.256-.145-.352c-.097-.096-.214-.144-.353-.144s-.256.048-.352.145c-.096.097-.144.214-.144.353s.048.256.145.352.214.144.353.144.256-.048.352-.145ZM18.52,4.615l1.028-1.349c.068-.091.149-.158.243-.201s.193-.064.297-.064.203.021.297.064c.094.043.175.11.243.201l1.028,1.349,1.572.531c.15.048.267.133.351.255s.126.257.126.405c0,.068-.01.136-.03.204s-.053.133-.098.195l-1.024,1.421.038,1.508c.006.2-.06.369-.198.506-.138.137-.299.206-.484.206-.005,0-.069-.008-.191-.025l-1.632-.468-1.632.468c-.032.013-.064.02-.098.022s-.065.003-.093.003c-.186,0-.347-.069-.485-.206-.137-.137-.203-.306-.197-.506l.038-1.518-1.018-1.412c-.045-.062-.078-.128-.098-.195-.02-.068-.03-.136-.03-.204,0-.143.042-.277.125-.4s.2-.211.35-.262l1.569-.527h.003Z" />
</svg>