<svg xmlns="http://www.w3.org/2000/svg" width="466" height="120" viewBox="0 0 466 120">
  <defs>
    <linearGradient id="baselayer-logo-child-theme-gradient" x1="0" x2="100%" y1="100%" y2="0" gradientUnits="objectBoundingBox">
      <stop offset="0" stop-color="#4080ff"/>
      <stop offset="1" stop-color="#0af"/>
    </linearGradient>
    <linearGradient id="baselayer-logo-child-theme-gradient-label" x1="0" x2="100%" y1="100%" y2="0" gradientUnits="objectBoundingBox">
      <stop offset="0" stop-color="#ff4040"/>
      <stop offset="1" stop-color="#ff6a00"/>
    </linearGradient>
  </defs>
  <path d="M146.848,35.471c1.466-1.954,2.199-4.35,2.199-7.186,0-3.264-1.309-5.735-3.925-7.411-2.617-1.675-6.295-2.513-11.032-2.513h-20.982l-9.475,45.111h22.809c4.151,0,7.772-.525,10.863-1.579,3.09-1.052,5.482-2.631,7.174-4.737,1.692-2.104,2.538-4.704,2.538-7.797,0-3.222-1.083-5.671-3.249-7.347-1.022-.791-2.2-1.388-3.523-1.805.295-.107.593-.199.884-.321,2.346-.988,4.252-2.459,5.719-4.414h0ZM136.797,55.997c-2.347,1.505-5.641,2.256-9.882,2.256h-15.432l3.136-15.015h15.815c3.158,0,5.595.462,7.31,1.385,1.715.924,2.572,2.525,2.572,4.801,0,2.879-1.174,5.069-3.519,6.573ZM136.086,37.05c-1.873.644-4.05.967-6.531.967h-13.845l3.015-14.436h13.942c2.978,0,5.28.462,6.904,1.386,1.625.925,2.437,2.374,2.437,4.35,0,1.933-.519,3.544-1.557,4.833-1.038,1.289-2.494,2.256-4.365,2.9h0ZM187.181,35.143c-.011-.019-.018-.04-.029-.059-1.174-1.997-2.843-3.512-5.009-4.543-2.166-1.031-4.805-1.547-7.919-1.547-2.888,0-5.573.495-8.054,1.483-2.482.988-4.636,2.384-6.463,4.189-1.828,1.804-3.249,3.931-4.264,6.38-1.016,2.449-1.523,5.135-1.523,8.055,0,3.094.688,5.735,2.064,7.927,1.376,2.191,3.259,3.878,5.652,5.06,2.391,1.181,5.099,1.772,8.122,1.772,3.97,0,7.388-.902,10.254-2.707.87-.548,1.671-1.171,2.418-1.851l-.895,4.171h6.226l7.107-34.155h-6.498l-1.19,5.826h.001ZM178.421,56.576c-2.122,1.247-4.535,1.869-7.242,1.869-3.43,0-6.069-.859-7.919-2.577-1.851-1.718-2.775-4.06-2.775-7.024,0-2.835.609-5.339,1.827-7.508s2.887-3.866,5.009-5.091c2.12-1.224,4.511-1.837,7.174-1.837,3.429,0,6.068.849,7.919,2.546,1.85,1.698,2.775,4.05,2.775,7.057,0,2.794-.599,5.274-1.794,7.444-1.196,2.17-2.854,3.877-4.974,5.123v-.002ZM208.065,39.37c0,1.117.474,1.987,1.422,2.609.947.623,2.176,1.107,3.688,1.45,1.511.344,3.113.677,4.806.999,1.692.322,3.293.773,4.805,1.353,1.511.58,2.741,1.418,3.689,2.513.947,1.095,1.421,2.589,1.421,4.479,0,2.364-.689,4.372-2.064,6.025-1.377,1.655-3.306,2.912-5.787,3.77-2.482.86-5.347,1.289-8.596,1.289-3.023,0-5.878-.377-8.562-1.128-2.685-.751-4.749-1.686-6.193-2.804l2.91-4.897c1.398,1.031,3.215,1.869,5.449,2.513,2.233.645,4.568.967,7.005.967,3.113,0,5.459-.451,7.039-1.353,1.579-.901,2.369-2.126,2.369-3.672,0-1.117-.474-1.966-1.421-2.546-.948-.581-2.178-1.032-3.689-1.353-1.512-.323-3.125-.645-4.839-.967-1.715-.323-3.316-.784-4.805-1.386-1.489-.601-2.719-1.471-3.689-2.61-.971-1.138-1.455-2.652-1.455-4.543,0-2.277.677-4.242,2.031-5.897,1.353-1.653,3.249-2.932,5.685-3.834s5.279-1.353,8.528-1.353c2.345,0,4.658.269,6.937.806,2.278.538,4.139,1.3,5.584,2.287l-2.572,4.898c-1.489-.987-3.158-1.685-5.008-2.094-1.851-.408-3.701-.612-5.55-.612-3.023,0-5.302.483-6.836,1.45s-2.301,2.181-2.301,3.641h-.001ZM262.684,30.767c-2.392-1.181-5.211-1.772-8.46-1.772-3.881,0-7.343.87-10.389,2.61-3.046,1.74-5.448,4.115-7.208,7.121-1.76,3.008-2.64,6.445-2.64,10.311,0,3.008.699,5.618,2.098,7.83,1.398,2.213,3.384,3.932,5.956,5.155,2.572,1.225,5.618,1.837,9.137,1.837,2.752,0,5.415-.419,7.987-1.256,2.572-.838,4.715-2.052,6.43-3.642l-2.776-4.446c-1.263,1.203-2.866,2.159-4.805,2.867-1.941.709-4.039,1.064-6.294,1.064-3.836,0-6.69-.848-8.562-2.546-1.873-1.697-2.809-4.092-2.809-7.186,0-.133.017-.255.019-.386h29.422c.136-.688.247-1.429.338-2.224.09-.794.136-1.579.136-2.352,0-3.094-.666-5.736-1.997-7.927-1.332-2.191-3.193-3.876-5.584-5.059h.001ZM242.041,41.077c1.127-2.169,2.718-3.866,4.772-5.091,2.053-1.224,4.433-1.837,7.141-1.837,2.301,0,4.274.441,5.922,1.321,1.646.881,2.853,2.149,3.621,3.802.596,1.286.827,2.805.715,4.544h-23.21c.269-.965.598-1.89,1.04-2.74h-.001ZM284.205,57.865h25.721l-1.152,5.607h-32.488l9.476-45.111h6.769l-8.326,39.504h0ZM349.52,29.317l-1.19,5.826c-.011-.019-.018-.04-.029-.059-1.173-1.997-2.842-3.512-5.008-4.543-2.166-1.031-4.805-1.547-7.919-1.547-2.888,0-5.573.495-8.054,1.483-2.482.988-4.636,2.384-6.463,4.189-1.827,1.804-3.249,3.931-4.264,6.38s-1.523,5.135-1.523,8.055c0,3.094.687,5.735,2.064,7.927,1.376,2.191,3.26,3.878,5.651,5.06,2.391,1.181,5.099,1.772,8.123,1.772,3.97,0,7.387-.902,10.254-2.707.87-.548,1.671-1.17,2.418-1.851l-.895,4.171h6.227l7.106-34.155h-6.498ZM339.57,56.576c-2.121,1.247-4.534,1.869-7.242,1.869-3.429,0-6.069-.859-7.919-2.577s-2.775-4.06-2.775-7.024c0-2.835.609-5.339,1.828-7.508,1.218-2.169,2.887-3.866,5.008-5.091,2.12-1.224,4.511-1.837,7.175-1.837,3.428,0,6.068.849,7.919,2.546,1.849,1.698,2.775,4.05,2.775,7.057,0,2.794-.599,5.274-1.794,7.444-1.196,2.17-2.854,3.877-4.975,5.123v-.002ZM400.146,29.317l-25.449,37.893c-1.58,2.32-3.069,4.145-4.467,5.478-1.399,1.331-2.854,2.276-4.365,2.835-1.513.558-3.215.838-5.11.838-1.716,0-3.406-.269-5.076-.806-1.669-.537-2.978-1.278-3.926-2.223l3.385-4.576c.768.73,1.658,1.299,2.673,1.708s2.154.612,3.418.612c1.489,0,2.831-.376,4.027-1.128,1.195-.752,2.425-2.073,3.688-3.963l1.84-2.697-8.675-33.971h6.497l6.878,27.354,18.097-27.354h6.565,0ZM426.745,30.767c-2.392-1.181-5.212-1.772-8.46-1.772-3.881,0-7.344.87-10.39,2.61-3.045,1.74-5.448,4.115-7.207,7.121-1.76,3.008-2.64,6.445-2.64,10.311,0,3.008.698,5.618,2.097,7.83,1.398,2.213,3.385,3.932,5.957,5.155,2.571,1.225,5.618,1.837,9.137,1.837,2.751,0,5.415-.419,7.987-1.256,2.571-.838,4.714-2.052,6.43-3.642l-2.775-4.446c-1.264,1.203-2.866,2.159-4.805,2.867-1.941.709-4.04,1.064-6.295,1.064-3.836,0-6.69-.848-8.562-2.546-1.873-1.697-2.809-4.092-2.809-7.186,0-.133.017-.255.019-.386h29.423c.136-.688.247-1.429.338-2.224.09-.794.136-1.579.136-2.352,0-3.094-.666-5.736-1.997-7.927-1.332-2.191-3.193-3.876-5.584-5.059h0ZM406.102,41.077c1.127-2.169,2.718-3.866,4.772-5.091,2.052-1.224,4.432-1.837,7.14-1.837,2.301,0,4.274.441,5.922,1.321,1.646.881,2.853,2.149,3.621,3.802.596,1.286.827,2.805.715,4.544h-23.21c.269-.965.598-1.89,1.04-2.74h0ZM466,28.994l-1.218,5.993c-.271-.043-.542-.064-.812-.064h-.881c-3.565,0-6.509.924-8.832,2.771-2.325,1.848-3.892,4.748-4.704,8.7l-3.587,17.078h-6.497l7.106-34.155h6.227l-1.039,5.08c1.349-1.63,2.911-2.858,4.694-3.662,2.572-1.16,5.753-1.74,9.543-1.74h0Z" />
  <path fill="url(#baselayer-logo-child-theme-gradient)" d="M73.728,32.056l-6.507,1.866c-.387.135-.789.216-1.198.241-.22.013-.42.018-.604.018-1.644,0-3.142-.629-4.329-1.816-1.216-1.215-1.83-2.779-1.776-4.505l.148-5.904-4.039-5.599c-.41-.562-.713-1.171-.901-1.812-.171-.583-.258-1.18-.258-1.773,0-1.208.345-2.338,1.007-3.367L40.79,1.068c-1.234-.712-2.541-1.068-3.92-1.068s-2.686.356-3.92,1.068L3.922,17.777c-1.235.711-2.197,1.662-2.887,2.852-.69,1.191-1.035,2.498-1.035,3.921v32.9c0,1.423.345,2.73,1.034,3.921.69,1.19,1.652,2.141,2.887,2.852l29.029,16.709c1.234.712,2.541,1.068,3.92,1.068s2.686-.356,3.92-1.068l29.029-16.709c1.235-.711,2.197-1.662,2.887-2.852s1.035-2.498,1.035-3.921v-25.39l-.013-.004Z" />
  <path fill="url(#baselayer-logo-child-theme-gradient-label)" d="M66.58,7.358l4.685-6.148c.311-.416.68-.722,1.108-.917S73.252,0,73.728,0s.927.097,1.355.293c.428.195.797.5,1.108.917l4.685,6.148,7.164,2.419c.685.22,1.218.608,1.601,1.164.383.556.574,1.17.574,1.843,0,.311-.045.62-.136.928s-.239.604-.447.887l-4.665,6.475.174,6.872c.029.912-.272,1.682-.902,2.307s-1.364.939-2.203.939c-.024,0-.315-.038-.87-.113l-7.438-2.133-7.438,2.133c-.145.058-.293.091-.447.1s-.294.013-.423.013c-.846,0-1.583-.313-2.21-.939-.626-.625-.925-1.395-.896-2.307l.174-6.915-4.639-6.431c-.207-.284-.356-.581-.447-.89-.091-.31-.136-.62-.136-.929,0-.653.19-1.261.571-1.824s.912-.96,1.595-1.195l7.147-2.403.002-.002h0Z" />
  <rect fill="url(#baselayer-logo-child-theme-gradient-label)" x="88.968" y="86.457" width="159.353" height="33.543" rx="16.772" ry="16.772" />
  <path fill="#fff" d="M17.322,41l7.007,7.007c.317.341.481.745.493,1.214s-.153.873-.493,1.214c-.341.341-.744.511-1.208.511s-.867-.17-1.208-.511l-7.985-7.985c-.414-.414-.622-.898-.622-1.45s.207-1.036.622-1.45l7.985-7.985c.341-.341.744-.511,1.208-.511s.867.17,1.208.511.511.745.511,1.214-.17.873-.511,1.214l-7.007,7.007ZM30.313,57.929c-.22-.422-.257-.857-.11-1.307l10.083-32.288c.147-.45.427-.784.842-1.005.414-.22.846-.257,1.295-.11.45.147.788.427,1.016.842.228.414.268.846.121,1.295l-10.105,32.31c-.147.45-.427.784-.842,1.005-.414.22-.846.257-1.295.11-.45-.147-.784-.431-1.005-.852ZM56.419,41l-7.007-7.007c-.341-.341-.511-.745-.511-1.214s.17-.873.511-1.214c.341-.341.744-.511,1.208-.511s.867.17,1.208.511l7.985,7.985c.414.414.622.898.622,1.45s-.207,1.036-.622,1.45l-7.985,7.985c-.341.341-.744.511-1.208.511s-.867-.17-1.208-.511c-.341-.341-.511-.745-.511-1.214s.17-.873.511-1.214l7.007-7.007ZM106.09,101.465c-.279.673-.418,1.405-.418,2.193s.139,1.519.418,2.192c.278.673.67,1.254,1.173,1.743s1.098.87,1.784,1.142c.686.273,1.43.408,2.233.408.775,0,1.502-.14,2.182-.418s1.291-.71,1.835-1.295l1.325,1.284c-.652.734-1.445,1.292-2.375,1.672-.932.381-1.955.571-3.069.571-1.088,0-2.09-.18-3.008-.54s-1.713-.87-2.386-1.53-1.2-1.431-1.581-2.315c-.38-.883-.571-1.856-.571-2.915s.19-2.033.571-2.916c.381-.884.911-1.655,1.591-2.315.68-.659,1.479-1.169,2.396-1.53.918-.359,1.92-.54,3.008-.54,1.101,0,2.117.188,3.049.561.931.374,1.723.928,2.375,1.662l-1.325,1.284c-.544-.57-1.155-.995-1.835-1.275-.68-.278-1.407-.418-2.182-.418-.802,0-1.547.137-2.233.408-.687.273-1.281.652-1.784,1.142s-.894,1.07-1.173,1.743ZM127.359,100.394c-.673-.34-1.451-.51-2.335-.51-.979,0-1.835.197-2.569.592-.508.272-.919.625-1.244,1.048v-5.861h-1.957v15.131h1.957v-5.567c0-.788.14-1.447.418-1.978.279-.53.676-.931,1.193-1.203.517-.272,1.122-.407,1.815-.407.924,0,1.641.265,2.151.795s.765,1.319.765,2.366v5.995h1.957v-6.22c0-1.061-.19-1.937-.571-2.63-.381-.693-.907-1.21-1.58-1.55ZM134.119,95.357c-.381,0-.697.122-.948.367s-.377.551-.377.918c0,.354.126.652.377.897.252.245.567.367.948.367.394,0,.714-.126.959-.377.245-.252.367-.561.367-.928,0-.354-.126-.65-.377-.887-.252-.238-.568-.357-.948-.357ZM133.14,110.794h1.957v-10.807h-1.957v10.807ZM138.829,110.794h1.957v-15.131h-1.957v15.131ZM152.757,95.663h1.958v15.131h-1.876v-1.712c-.37.507-.817.914-1.345,1.212-.734.415-1.571.622-2.508.622-1.047,0-1.982-.231-2.804-.693-.823-.462-1.472-1.108-1.948-1.937-.476-.829-.713-1.794-.713-2.896s.237-2.063.713-2.885c.476-.822,1.125-1.465,1.948-1.927.822-.462,1.757-.693,2.804-.693.91,0,1.733.204,2.467.611.506.281.938.666,1.305,1.142v-5.974ZM152.777,105.39c0-.775-.16-1.444-.479-2.008s-.755-1.003-1.305-1.316c-.551-.313-1.166-.469-1.845-.469-.693,0-1.312.156-1.856.469-.544.313-.979.751-1.305,1.316s-.489,1.234-.489,2.008c0,.762.163,1.431.489,2.009s.761,1.023,1.305,1.335c.544.314,1.162.469,1.856.469.679,0,1.295-.155,1.845-.469.55-.313.985-.757,1.305-1.335s.479-1.247.479-2.009ZM162.137,98.294h4.894v12.5h2.018v-12.5h4.894v-1.775h-11.807v1.775ZM183.987,100.394c-.673-.34-1.451-.51-2.335-.51-.979,0-1.835.197-2.569.592-.508.272-.919.625-1.244,1.048v-5.861h-1.957v15.131h1.957v-5.567c0-.788.14-1.447.418-1.978.279-.53.676-.931,1.193-1.203.517-.272,1.122-.407,1.815-.407.924,0,1.641.265,2.151.795s.765,1.319.765,2.366v5.995h1.957v-6.22c0-1.061-.19-1.937-.571-2.63-.381-.693-.907-1.21-1.58-1.55ZM198.852,102.525c.456.836.683,1.812.683,2.926,0,.081-.003.177-.01.285-.007.109-.017.211-.03.306h-8.774c.064.501.218.961.464,1.377.333.564.798,1.002,1.397,1.315.598.314,1.285.469,2.06.469.639,0,1.22-.108,1.743-.326.523-.217.982-.543,1.376-.979l1.081,1.265c-.489.57-1.098,1.006-1.825,1.305s-1.539.448-2.437.448c-1.155,0-2.172-.237-3.048-.713-.877-.477-1.557-1.129-2.039-1.958s-.724-1.781-.724-2.855.234-2.026.703-2.855c.469-.829,1.115-1.478,1.937-1.948.822-.469,1.75-.703,2.784-.703,1.047,0,1.971.231,2.773.693.802.462,1.43,1.111,1.886,1.948ZM191.134,103.279c-.22.405-.331.867-.389,1.357h6.916c-.047-.498-.183-.954-.41-1.366-.299-.544-.71-.969-1.234-1.275s-1.132-.459-1.825-.459c-.68,0-1.285.153-1.815.459-.53.306-.945.734-1.244,1.284ZM218.072,100.394c-.666-.34-1.434-.51-2.305-.51-1.088,0-2.039.252-2.855.755-.554.341-.985.764-1.313,1.256-.264-.51-.614-.933-1.072-1.246-.748-.51-1.638-.765-2.671-.765-.938,0-1.761.197-2.468.592-.522.291-.942.668-1.264,1.13v-1.62h-1.876v10.807h1.957v-5.567c0-.788.136-1.447.408-1.978.272-.53.652-.931,1.142-1.203.489-.272,1.053-.407,1.693-.407.897,0,1.587.265,2.07.795s.724,1.319.724,2.366v5.995h1.958v-5.567c0-.788.132-1.447.398-1.978s.643-.931,1.132-1.203c.489-.272,1.06-.407,1.713-.407.884,0,1.571.265,2.06.795s.734,1.319.734,2.366v5.995h1.958v-6.22c0-1.061-.187-1.937-.561-2.63s-.894-1.21-1.56-1.55ZM233.57,105.451c0,.081-.004.177-.011.285-.007.109-.017.211-.03.306h-8.774c.064.501.218.961.464,1.377.333.564.798,1.002,1.397,1.315.598.314,1.285.469,2.06.469.639,0,1.22-.108,1.743-.326.523-.217.982-.543,1.376-.979l1.081,1.265c-.49.57-1.098,1.006-1.825,1.305s-1.539.448-2.437.448c-1.155,0-2.172-.237-3.048-.713-.877-.477-1.557-1.129-2.039-1.958s-.724-1.781-.724-2.855.234-2.026.703-2.855c.469-.829,1.115-1.478,1.937-1.948.822-.469,1.75-.703,2.784-.703,1.047,0,1.971.231,2.773.693.802.462,1.431,1.111,1.886,1.948s.684,1.812.684,2.926ZM225.168,103.279c-.22.405-.331.867-.389,1.357h6.916c-.047-.498-.183-.954-.41-1.366-.299-.544-.71-.969-1.234-1.275s-1.132-.459-1.825-.459c-.68,0-1.285.153-1.815.459-.53.306-.945.734-1.244,1.284ZM68.13,18.842h11.196c-.458,1.188-1.187,2.167-2.186,2.934-.999.768-2.138,1.152-3.415,1.152s-2.414-.385-3.412-1.152c-.998-.767-1.725-1.745-2.183-2.934ZM77.73,16.395c.631,0,1.165-.221,1.604-.662.439-.442.658-.977.658-1.608s-.221-1.165-.662-1.604c-.442-.439-.977-.658-1.607-.658s-1.166.221-1.605.662c-.439.442-.658.977-.658,1.607s.221,1.166.662,1.605c.442.439.977.658,1.608.658ZM69.731,16.395c.63,0,1.166-.221,1.605-.662.439-.442.658-.977.658-1.608s-.221-1.165-.662-1.604c-.442-.439-.977-.658-1.608-.658s-1.165.221-1.604.662c-.439.441-.658.977-.658,1.607s.221,1.166.662,1.605c.442.439.977.658,1.607.658Z" />
</svg>