<svg xmlns="http://www.w3.org/2000/svg" width="466" height="82" viewBox="0 0 466 82">
  <defs>
    <linearGradient id="baselayer-logo-gradient" x1="0" x2="100%" y1="100%" y2="0" gradientUnits="objectBoundingBox">
      <stop offset="0" stop-color="#4080ff"/>
      <stop offset="1" stop-color="#0af"/>
    </linearGradient>
  </defs>
  <path d="M146.848,35.471c1.466-1.954,2.199-4.35,2.199-7.186,0-3.264-1.309-5.735-3.925-7.411-2.617-1.675-6.295-2.513-11.032-2.513h-20.982l-9.475,45.111h22.809c4.151,0,7.772-.525,10.863-1.579,3.09-1.052,5.482-2.631,7.174-4.737,1.692-2.104,2.538-4.704,2.538-7.797,0-3.222-1.083-5.671-3.249-7.347-1.022-.791-2.2-1.388-3.523-1.805.295-.107.593-.199.884-.321,2.346-.988,4.252-2.459,5.719-4.414ZM136.797,55.997c-2.347,1.505-5.641,2.256-9.882,2.256h-15.432l3.136-15.015h15.815c3.158,0,5.595.462,7.31,1.385,1.715.924,2.572,2.525,2.572,4.801,0,2.879-1.174,5.069-3.519,6.573ZM136.086,37.05c-1.873.644-4.05.967-6.531.967h-13.845l3.015-14.436h13.942c2.978,0,5.28.462,6.904,1.386,1.625.925,2.437,2.374,2.437,4.35,0,1.933-.519,3.544-1.557,4.833-1.038,1.289-2.494,2.256-4.365,2.9ZM187.181,35.143c-.011-.019-.018-.04-.029-.059-1.174-1.997-2.843-3.512-5.009-4.543-2.166-1.031-4.805-1.547-7.919-1.547-2.888,0-5.573.495-8.054,1.483-2.482.988-4.636,2.384-6.463,4.189-1.828,1.804-3.249,3.931-4.264,6.38-1.016,2.449-1.523,5.135-1.523,8.055,0,3.094.688,5.735,2.064,7.927,1.376,2.191,3.259,3.878,5.652,5.06,2.391,1.181,5.099,1.772,8.122,1.772,3.97,0,7.388-.902,10.254-2.707.87-.548,1.671-1.171,2.418-1.851l-.895,4.171h6.226l7.107-34.155h-6.498l-1.19,5.826ZM178.421,56.576c-2.122,1.247-4.535,1.869-7.242,1.869-3.43,0-6.069-.859-7.919-2.577-1.851-1.718-2.775-4.06-2.775-7.024,0-2.835.609-5.339,1.827-7.508,1.218-2.169,2.887-3.866,5.009-5.091,2.12-1.224,4.511-1.837,7.174-1.837,3.429,0,6.068.849,7.919,2.546,1.85,1.698,2.775,4.05,2.775,7.057,0,2.794-.599,5.274-1.794,7.444-1.196,2.17-2.854,3.877-4.974,5.123ZM208.065,39.37c0,1.117.474,1.987,1.422,2.609.947.623,2.176,1.107,3.688,1.45,1.511.344,3.113.677,4.806.999,1.692.322,3.293.773,4.805,1.353,1.511.58,2.741,1.418,3.689,2.513.947,1.095,1.421,2.589,1.421,4.479,0,2.364-.689,4.372-2.064,6.025-1.377,1.655-3.306,2.912-5.787,3.77-2.482.86-5.347,1.289-8.596,1.289-3.023,0-5.878-.377-8.562-1.128-2.685-.751-4.749-1.686-6.193-2.804l2.91-4.897c1.398,1.031,3.215,1.869,5.449,2.513,2.233.645,4.568.967,7.005.967,3.113,0,5.459-.451,7.039-1.353,1.579-.901,2.369-2.126,2.369-3.672,0-1.117-.474-1.966-1.421-2.546-.948-.581-2.178-1.032-3.689-1.353-1.512-.323-3.125-.645-4.839-.967-1.715-.323-3.316-.784-4.805-1.386-1.489-.601-2.719-1.471-3.689-2.61-.971-1.138-1.455-2.652-1.455-4.543,0-2.277.677-4.242,2.031-5.897,1.353-1.653,3.249-2.932,5.685-3.834s5.279-1.353,8.528-1.353c2.345,0,4.658.269,6.937.806,2.278.538,4.139,1.3,5.584,2.287l-2.572,4.898c-1.489-.987-3.158-1.685-5.008-2.094-1.851-.408-3.701-.612-5.55-.612-3.023,0-5.302.483-6.836,1.45-1.534.967-2.301,2.181-2.301,3.641ZM262.684,30.767c-2.392-1.181-5.211-1.772-8.46-1.772-3.881,0-7.343.87-10.389,2.61-3.046,1.74-5.448,4.115-7.208,7.121-1.76,3.008-2.64,6.445-2.64,10.311,0,3.008.699,5.618,2.098,7.83,1.398,2.213,3.384,3.932,5.956,5.155,2.572,1.225,5.618,1.837,9.137,1.837,2.752,0,5.415-.419,7.987-1.256,2.572-.838,4.715-2.052,6.43-3.642l-2.776-4.446c-1.263,1.203-2.866,2.159-4.805,2.867-1.941.709-4.039,1.064-6.294,1.064-3.836,0-6.69-.848-8.562-2.546-1.873-1.697-2.809-4.092-2.809-7.186,0-.133.017-.255.019-.386h29.422c.136-.688.247-1.429.338-2.224.09-.794.136-1.579.136-2.352,0-3.094-.666-5.736-1.997-7.927-1.332-2.191-3.193-3.876-5.584-5.059ZM242.041,41.077c1.127-2.169,2.718-3.866,4.772-5.091,2.053-1.224,4.433-1.837,7.141-1.837,2.301,0,4.274.441,5.922,1.321,1.646.881,2.853,2.149,3.621,3.802.596,1.286.827,2.805.715,4.544h-23.21c.269-.965.598-1.89,1.04-2.74ZM284.205,57.865h25.721l-1.152,5.607h-32.488l9.476-45.111h6.769l-8.326,39.504ZM349.52,29.317l-1.19,5.826c-.011-.019-.018-.04-.029-.059-1.173-1.997-2.842-3.512-5.008-4.543-2.166-1.031-4.805-1.547-7.919-1.547-2.888,0-5.573.495-8.054,1.483-2.482.988-4.636,2.384-6.463,4.189-1.827,1.804-3.249,3.931-4.264,6.38-1.015,2.449-1.523,5.135-1.523,8.055,0,3.094.687,5.735,2.064,7.927,1.376,2.191,3.26,3.878,5.651,5.06,2.391,1.181,5.099,1.772,8.123,1.772,3.97,0,7.387-.902,10.254-2.707.87-.548,1.671-1.17,2.418-1.851l-.895,4.171h6.227l7.106-34.155h-6.497ZM339.57,56.576c-2.121,1.247-4.534,1.869-7.242,1.869-3.429,0-6.069-.859-7.919-2.577s-2.775-4.06-2.775-7.024c0-2.835.609-5.339,1.828-7.508,1.218-2.169,2.887-3.866,5.008-5.091,2.12-1.224,4.511-1.837,7.175-1.837,3.428,0,6.068.849,7.919,2.546,1.849,1.698,2.775,4.05,2.775,7.057,0,2.794-.599,5.274-1.794,7.444-1.196,2.17-2.854,3.877-4.975,5.123ZM400.146,29.317l-25.449,37.893c-1.58,2.32-3.069,4.145-4.467,5.478-1.399,1.331-2.854,2.276-4.365,2.835-1.513.558-3.215.838-5.11.838-1.716,0-3.406-.269-5.076-.806-1.669-.537-2.978-1.278-3.926-2.223l3.385-4.576c.768.73,1.658,1.299,2.673,1.708s2.154.612,3.418.612c1.489,0,2.831-.376,4.027-1.128,1.195-.752,2.425-2.073,3.688-3.963l1.84-2.697-8.675-33.971h6.497l6.878,27.354,18.097-27.354h6.565ZM426.745,30.767c-2.392-1.181-5.212-1.772-8.46-1.772-3.881,0-7.344.87-10.39,2.61-3.045,1.74-5.448,4.115-7.207,7.121-1.76,3.008-2.64,6.445-2.64,10.311,0,3.008.698,5.618,2.097,7.83,1.398,2.213,3.385,3.932,5.957,5.155,2.571,1.225,5.618,1.837,9.137,1.837,2.751,0,5.415-.419,7.987-1.256,2.571-.838,4.714-2.052,6.43-3.642l-2.775-4.446c-1.264,1.203-2.866,2.159-4.805,2.867-1.941.709-4.04,1.064-6.295,1.064-3.836,0-6.69-.848-8.562-2.546-1.873-1.697-2.809-4.092-2.809-7.186,0-.133.017-.255.019-.386h29.423c.136-.688.247-1.429.338-2.224.09-.794.136-1.579.136-2.352,0-3.094-.666-5.736-1.997-7.927-1.332-2.191-3.193-3.876-5.584-5.059ZM406.102,41.077c1.127-2.169,2.718-3.866,4.772-5.091,2.052-1.224,4.432-1.837,7.14-1.837,2.301,0,4.274.441,5.922,1.321,1.646.881,2.853,2.149,3.621,3.802.596,1.286.827,2.805.715,4.544h-23.21c.269-.965.598-1.89,1.04-2.74ZM466,28.994l-1.218,5.993c-.271-.043-.542-.064-.812-.064h-.881c-3.565,0-6.509.924-8.832,2.771-2.325,1.848-3.892,4.748-4.704,8.7l-3.587,17.078h-6.497l7.106-34.155h6.227l-1.039,5.08c1.349-1.63,2.911-2.858,4.694-3.662,2.572-1.16,5.753-1.74,9.543-1.74Z" />
  <path fill="url(#baselayer-logo-gradient)" d="M32.95,80.932L3.921,64.223c-1.235-.711-2.197-1.662-2.887-2.852-.69-1.191-1.035-2.498-1.035-3.921V24.55c0-1.423.345-2.731,1.035-3.921.69-1.19,1.652-2.141,2.887-2.852L32.95,1.068C34.184.356,35.491,0,36.87,0c1.379,0,2.686.356,3.92,1.068l29.029,16.709c1.235.711,2.197,1.662,2.887,2.852.69,1.191,1.035,2.498,1.035,3.921v32.899c0,1.423-.345,2.731-1.035,3.921-.69,1.19-1.652,2.141-2.887,2.852l-29.029,16.709c-1.234.712-2.541,1.068-3.92,1.068s-2.686-.356-3.92-1.068Z" />
  <path fill="#fff" d="M17.322,41l7.007,7.007c.317.341.481.745.493,1.214.012.469-.153.873-.493,1.214-.341.341-.744.511-1.208.511s-.867-.17-1.208-.511l-7.985-7.985c-.414-.414-.622-.898-.622-1.45s.207-1.036.622-1.45l7.985-7.985c.341-.341.744-.511,1.208-.511s.867.17,1.208.511c.341.341.511.745.511,1.214s-.17.873-.511,1.214c0,0-7.007,7.007-7.007,7.007ZM30.313,57.929c-.22-.422-.257-.857-.11-1.307l10.083-32.288c.147-.45.427-.784.842-1.005.414-.22.846-.257,1.295-.11.45.147.788.427,1.016.842.228.414.268.846.121,1.295l-10.105,32.31c-.147.45-.427.784-.842,1.005-.414.22-.846.257-1.295.11-.45-.147-.784-.431-1.005-.852ZM56.419,41l-7.007-7.007c-.341-.341-.511-.745-.511-1.214s.17-.873.511-1.214c.341-.341.744-.511,1.208-.511s.867.17,1.208.511l7.985,7.985c.414.414.622.898.622,1.45s-.207,1.036-.622,1.45l-7.985,7.985c-.341.341-.744.511-1.208.511s-.867-.17-1.208-.511c-.341-.341-.511-.745-.511-1.214s.17-.873.511-1.214c0,0,7.007-7.007,7.007-7.007Z" />
</svg>