<svg xmlns="http://www.w3.org/2000/svg" height="24px" viewBox="0 -960 960 960" width="24px" fill="#e3e3e3"><path d="M450-100v-39.23q-125-12.85-210.46-98.31Q154.08-323 141.23-448H102q-12.77 0-21.38-8.62Q72-465.23 72-478t8.62-21.38Q89.23-508 102-508h39.23q12.85-125 98.31-210.46Q325-803.92 450-816.77V-856q0-12.77 8.62-21.38Q467.23-886 480-886t21.38 8.62Q510-868.77 510-856v39.23q125 12.85 210.46 98.31Q805.92-633 818.77-508H858q12.77 0 21.38 8.62Q888-490.77 888-478t-8.62 21.38Q870.77-448 858-448h-39.23q-12.85 125-98.31 210.46Q635-152.08 510-139.23V-100q0 12.77-8.62 21.38Q492.77-70 480-70t-21.38-8.62Q450-87.23 450-100Zm228-180q82-82 82-198t-82-198q-82-82-198-82t-198 82q-82 82-82 198t82 198q82 82 198 82t198-82Z"/></svg>