<svg xmlns="http://www.w3.org/2000/svg" width="512" height="82" viewBox="0 0 512 82">
  <defs>
    <linearGradient id="fromscratch-logo-child-icon-gradient" x1="-.929" y1="78.759" x2="71.348" y2="6.559" gradientUnits="userSpaceOnUse">
      <stop offset="0" stop-color="#4080ff"/>
      <stop offset="1" stop-color="#0af"/>
    </linearGradient>
    <linearGradient id="fromscratch-logo-child-star-gradient" x1="62.728" y1="54.184" x2="84.207" y2="78.068" gradientTransform="translate(0 84) scale(1 -1)" gradientUnits="userSpaceOnUse">
      <stop offset="0" stop-color="#ff4040"/>
      <stop offset="1" stop-color="#ff6a00"/>
    </linearGradient>
  </defs>
  <path d="M73.728,32.056l-6.507,1.866c-.387.135-.789.216-1.198.241-.22.013-.42.018-.604.018-1.644,0-3.142-.629-4.329-1.816-1.216-1.215-1.83-2.779-1.776-4.505l.148-5.904-4.039-5.599c-.41-.562-.713-1.171-.901-1.812-.171-.583-.258-1.18-.258-1.773,0-1.208.345-2.338,1.007-3.367L40.79,1.068c-1.234-.712-2.541-1.068-3.92-1.068s-2.686.356-3.92,1.068L3.922,17.777c-1.235.711-2.197,1.662-2.887,2.852-.69,1.191-1.035,2.498-1.035,3.921v32.9c0,1.423.345,2.73,1.034,3.921.69,1.19,1.652,2.141,2.887,2.852l29.029,16.709c1.234.712,2.541,1.068,3.92,1.068s2.686-.356,3.92-1.068l29.029-16.709c1.235-.711,2.197-1.662,2.887-2.852s1.035-2.498,1.035-3.921v-25.39l-.013-.004Z" fill="url(#fromscratch-logo-child-icon-gradient)"/>
  <path d="M17.322,41l7.007,7.007c.317.341.481.745.493,1.214s-.153.873-.493,1.214c-.341.341-.744.511-1.208.511s-.867-.17-1.208-.511l-7.985-7.985c-.414-.414-.622-.898-.622-1.45s.207-1.036.622-1.45l7.985-7.985c.341-.341.744-.511,1.208-.511s.867.17,1.208.511.511.745.511,1.214-.17.873-.511,1.214l-7.007,7.007ZM30.313,57.929c-.22-.422-.257-.857-.11-1.307l10.083-32.288c.147-.45.427-.784.842-1.005.414-.22.846-.257,1.295-.11.45.147.788.427,1.016.842.228.414.268.846.121,1.295l-10.105,32.31c-.147.45-.427.784-.842,1.005-.414.22-.846.257-1.295.11-.45-.147-.784-.431-1.005-.852ZM56.419,41l-7.007-7.007c-.341-.341-.511-.745-.511-1.214s.17-.873.511-1.214c.341-.341.744-.511,1.208-.511s.867.17,1.208.511l7.985,7.985c.414.414.622.898.622,1.45s-.207,1.036-.622,1.45l-7.985,7.985c-.341.341-.744.511-1.208.511s-.867-.17-1.208-.511c-.341-.341-.511-.745-.511-1.214s.17-.873.511-1.214l7.007-7.007Z" fill="#fff"/>
  <path d="M109.042,40.872h22.382l-1.082,5.476h-22.39l-3.586,18.018h-6.366l8.913-44.566h31.451l-1.082,5.538h-25.148s-3.092,15.534-3.092,15.534ZM148.528,35.641l.978-5.019h-5.857l-6.685,33.743h6.112l3.374-16.872c.764-3.904,2.238-6.769,4.425-8.595,2.185-1.824,4.955-2.738,8.308-2.738h.828c.255,0,.509.022.764.064l1.146-5.921c-3.565,0-6.557.573-8.977,1.719-1.678.795-3.146,2.007-4.416,3.618h0ZM195.886,37.116c1.294,2.165,1.942,4.733,1.942,7.703,0,3.82-.849,7.226-2.547,10.219-1.698,2.992-4.022,5.359-6.971,7.098-2.951,1.741-6.357,2.611-10.219,2.611-3.226,0-6.017-.605-8.372-1.815s-4.192-2.907-5.507-5.093c-1.316-2.186-1.974-4.743-1.974-7.672,0-3.82.849-7.226,2.547-10.219,1.697-2.992,4.043-5.348,7.035-7.067s6.398-2.578,10.219-2.578c3.183,0,5.963.594,8.34,1.783,2.376,1.188,4.212,2.865,5.507,5.029h0ZM191.653,45.138c0-2.97-.87-5.294-2.611-6.972-1.741-1.676-4.224-2.514-7.449-2.514-2.505,0-4.754.605-6.749,1.815-1.996,1.21-3.565,2.887-4.712,5.029-1.146,2.144-1.719,4.616-1.719,7.417,0,2.928.869,5.242,2.61,6.94,1.74,1.698,4.223,2.547,7.449,2.547,2.547,0,4.817-.615,6.812-1.846s3.555-2.918,4.68-5.061c1.124-2.144,1.687-4.594,1.687-7.354h.002ZM258.184,32.087c-1.953-1.188-4.437-1.783-7.45-1.783-3.524,0-6.653.774-9.391,2.324-1.645.931-3.106,2.155-4.391,3.66-.223-.501-.471-.985-.766-1.432-.998-1.506-2.346-2.642-4.043-3.406-1.698-.765-3.692-1.146-5.985-1.146-2.928,0-5.593.594-7.99,1.783-1.38.684-2.619,1.601-3.725,2.735l.829-4.199h-5.857l-6.685,33.743h6.112l3.565-17.827c.721-3.649,2.101-6.355,4.138-8.117,2.038-1.761,4.605-2.643,7.704-2.643,3.056,0,5.167.85,6.335,2.547,1.167,1.698,1.453,4.074.859,7.13l-3.82,18.909h6.112l3.629-18.018c.721-3.565,2.101-6.217,4.139-7.958,2.037-1.74,4.605-2.611,7.704-2.611,3.054,0,5.166.85,6.333,2.547,1.167,1.698,1.434,4.074.797,7.13l-3.757,18.909h6.113l3.755-18.909c.679-3.183.627-5.91-.159-8.181-.786-2.269-2.154-4-4.105-5.188h0ZM292.88,19.289c-3.65,0-6.865.563-9.645,1.688s-4.957,2.716-6.527,4.775c-1.571,2.059-2.355,4.51-2.355,7.353,0,2.038.414,3.725,1.242,5.061.827,1.337,1.91,2.431,3.247,3.279,1.337.85,2.823,1.56,4.457,2.133s3.268,1.083,4.903,1.528c1.634.446,3.12.934,4.457,1.464,1.337.531,2.429,1.221,3.279,2.069.849.85,1.274,1.933,1.274,3.248,0,1.613-.499,2.982-1.496,4.106-.998,1.125-2.41,1.985-4.234,2.578-1.825.595-3.926.891-6.303.891-1.868,0-3.682-.212-5.444-.637-1.761-.423-3.417-1.018-4.966-1.783-1.55-.764-2.896-1.655-4.043-2.674l-2.801,5.093c1.06,1.019,2.472,1.933,4.234,2.738,1.76.807,3.713,1.455,5.857,1.942,2.143.487,4.339.732,6.589.732,3.735,0,7.013-.551,9.836-1.655,2.822-1.103,5.029-2.706,6.621-4.807s2.387-4.574,2.387-7.417c0-1.952-.413-3.565-1.242-4.839-.827-1.274-1.932-2.324-3.311-3.152-1.379-.827-2.875-1.506-4.488-2.037-1.613-.53-3.237-1.039-4.87-1.528-1.635-.488-3.131-1.007-4.488-1.56-1.36-.551-2.442-1.251-3.248-2.101-.806-.848-1.21-1.951-1.21-3.311.043-1.57.552-2.938,1.528-4.106.976-1.167,2.355-2.069,4.139-2.706,1.783-.637,3.884-.955,6.303-.955,2.249,0,4.413.298,6.494.891,2.079.595,3.947,1.486,5.602,2.674l2.547-5.22c-1.783-1.231-3.927-2.165-6.431-2.802-2.505-.637-5.136-.955-7.895-.955h0v.002ZM322.104,37.467c1.995-1.21,4.266-1.815,6.812-1.815,2.165,0,4.021.393,5.571,1.178,1.548.786,2.747,2.005,3.597,3.661l5.156-2.866c-1.316-2.461-3.141-4.297-5.475-5.507-2.335-1.21-5.137-1.815-8.404-1.815-3.821,0-7.238.859-10.25,2.578-3.015,1.719-5.37,4.074-7.068,7.067s-2.546,6.399-2.546,10.219c0,2.929.657,5.486,1.973,7.672,1.315,2.186,3.172,3.884,5.571,5.093,2.397,1.21,5.231,1.815,8.499,1.815,3.056,0,5.899-.615,8.532-1.846,2.631-1.231,4.711-2.928,6.239-5.093l-4.457-3.183c-1.188,1.571-2.664,2.759-4.425,3.565-1.762.806-3.64,1.21-5.634,1.21-3.227,0-5.72-.849-7.481-2.547-1.762-1.697-2.643-4.011-2.643-6.94,0-2.801.573-5.273,1.72-7.417,1.146-2.143,2.716-3.82,4.711-5.029h.002ZM357.479,35.641l.978-5.018h-5.858l-6.684,33.743h6.111l3.375-16.872c.765-3.904,2.238-6.769,4.425-8.595,2.186-1.824,4.955-2.738,8.309-2.738h.827c.255,0,.509.022.764.064l1.146-5.921c-3.565,0-6.557.573-8.977,1.719-1.677.794-3.146,2.007-4.415,3.618h0ZM403.595,30.623h6.111l-6.684,33.743h-5.858l.842-4.12c-.703.672-1.456,1.287-2.274,1.828-2.696,1.783-5.911,2.674-9.646,2.674-2.844,0-5.39-.584-7.639-1.751-2.25-1.167-4.022-2.834-5.317-4.998s-1.941-4.775-1.941-7.831c0-2.886.477-5.538,1.432-7.958s2.292-4.52,4.011-6.303,3.745-3.162,6.079-4.138,4.86-1.464,7.577-1.464c2.928,0,5.412.509,7.449,1.528,2.038,1.018,3.608,2.514,4.712,4.488.01.018.017.039.027.058l1.119-5.756h0ZM398.915,52.492c1.125-2.144,1.688-4.594,1.688-7.354,0-2.97-.871-5.294-2.611-6.972-1.74-1.676-4.223-2.514-7.449-2.514-2.505,0-4.754.605-6.748,1.815-1.996,1.21-3.565,2.887-4.711,5.029-1.147,2.144-1.72,4.616-1.72,7.417,0,2.928.87,5.242,2.611,6.94,1.739,1.698,4.222,2.547,7.449,2.547,2.546,0,4.816-.615,6.812-1.846,1.995-1.231,3.555-2.918,4.679-5.061h0ZM429.825,23.237h-6.111l-1.48,7.386h-5.778l-.955,5.029h5.725l-3.624,18.081c-.425,2.251-.329,4.202.286,5.858.615,1.655,1.655,2.928,3.12,3.82,1.464.891,3.215,1.337,5.252,1.337,1.315,0,2.663-.149,4.043-.446,1.378-.296,2.642-.849,3.788-1.655l-1.274-4.648c-.679.51-1.443.903-2.292,1.178-.85.277-1.698.414-2.547.414-1.825,0-3.067-.541-3.724-1.624-.659-1.082-.839-2.536-.541-4.361l3.613-17.954h9.693l1.019-5.029h-9.7l1.486-7.386h0ZM452.426,37.467c1.995-1.21,4.266-1.815,6.812-1.815,2.165,0,4.021.393,5.571,1.178,1.548.786,2.747,2.005,3.597,3.661l5.156-2.866c-1.316-2.461-3.141-4.297-5.475-5.507-2.335-1.21-5.137-1.815-8.404-1.815-3.821,0-7.238.859-10.25,2.578-3.015,1.719-5.37,4.074-7.068,7.067s-2.546,6.399-2.546,10.219c0,2.929.657,5.486,1.973,7.672,1.315,2.186,3.172,3.884,5.571,5.093,2.397,1.21,5.231,1.815,8.499,1.815,3.056,0,5.899-.615,8.532-1.846,2.631-1.231,4.711-2.928,6.239-5.093l-4.457-3.183c-1.188,1.571-2.664,2.759-4.425,3.565-1.762.806-3.64,1.21-5.634,1.21-3.227,0-5.72-.849-7.481-2.547-1.762-1.697-2.643-4.011-2.643-6.94,0-2.801.573-5.273,1.72-7.417,1.146-2.143,2.716-3.82,4.711-5.029h.002ZM511.35,37.275c-.786-2.269-2.176-4-4.17-5.188-1.996-1.188-4.479-1.783-7.449-1.783-3.056,0-5.826.594-8.308,1.783-1.323.633-2.519,1.465-3.595,2.484l3.499-17.446h-6.112l-9.422,47.24h6.111l3.565-17.827c.722-3.649,2.165-6.355,4.33-8.117,2.165-1.761,4.88-2.643,8.149-2.643,3.183,0,5.389.85,6.621,2.547,1.23,1.698,1.528,4.074.891,7.13l-3.757,18.909h6.112l3.756-18.909c.637-3.183.562-5.91-.223-8.181h.002Z"/>
  <path d="M77.14,21.765c.999-.767,1.728-1.746,2.186-2.934h-11.196c.458,1.189,1.185,2.167,2.183,2.934.998.767,2.135,1.152,3.412,1.152s2.416-.384,3.415-1.152ZM71.336,15.722c.439-.442.658-.977.658-1.608s-.221-1.165-.662-1.604c-.442-.439-.977-.658-1.608-.658s-1.165.221-1.604.662-.658.977-.658,1.607.221,1.166.662,1.605c.442.439.977.658,1.607.658s1.166-.221,1.605-.662ZM79.334,15.722c.439-.442.658-.977.658-1.608s-.221-1.165-.662-1.604c-.442-.439-.977-.658-1.607-.658s-1.166.221-1.605.662c-.439.442-.658.977-.658,1.607s.221,1.166.662,1.605c.442.439.977.658,1.608.658s1.165-.221,1.604-.662ZM66.58,7.347l4.685-6.148c.311-.416.68-.722,1.108-.917.428-.195.879-.293,1.355-.293s.927.097,1.355.293c.428.195.797.5,1.108.917l4.685,6.148,7.164,2.419c.685.22,1.218.608,1.601,1.164.383.556.574,1.17.574,1.843,0,.311-.045.62-.136.928s-.239.604-.447.887l-4.665,6.475.174,6.872c.029.912-.272,1.682-.902,2.307-.63.625-1.364.939-2.203.939-.024,0-.315-.038-.87-.113l-7.438-2.133-7.438,2.133c-.145.058-.293.091-.447.1s-.294.013-.423.013c-.846,0-1.583-.313-2.21-.939-.626-.625-.925-1.395-.896-2.307l.174-6.915-4.639-6.431c-.207-.284-.356-.581-.447-.89-.091-.31-.136-.62-.136-.929,0-.653.19-1.261.571-1.824s.912-.96,1.595-1.195l7.147-2.403.002-.002Z" fill="url(#fromscratch-logo-child-star-gradient)"/>
</svg>