<svg xmlns="http://www.w3.org/2000/svg" height="24px" viewBox="0 -960 960 960" width="24px" fill="currentColor"><path d="M200-100q-12.77 0-21.38-8.62Q170-117.23 170-130t8.62-21.38Q187.23-160 200-160h560q12.77 0 21.38 8.62Q790-142.77 790-130t-8.62 21.38Q772.77-100 760-100H200Zm266.54-125.08q-6.23-2.31-11.85-7.92l-99.77-99.77q-8.3-8.31-8.8-20.58-.5-12.26 8.8-21.57 8.7-8.69 20.77-9 12.08-.31 21.39 8.38L450-323.23v-313.54l-52.92 52.31q-8.31 8.3-20.58 8.5-12.27.19-21.58-9.12-8.69-8.69-8.69-21.07 0-12.39 8.69-21.08L454.69-727q5.62-5.61 11.85-7.92 6.23-2.31 13.46-2.31t13.46 2.31q6.23 2.31 11.85 7.92l99.77 99.77q8.3 8.31 8.8 20.58.5 12.26-8.8 21.57-8.7 8.69-20.77 9-12.08.31-21.39-8.38L510-636.77v313.54l52.92-52.31q8.31-8.3 20.58-8.5 12.27-.19 21.58 9.12 8.69 8.69 8.69 21.07 0 12.39-8.69 21.08L505.31-233q-5.62 5.61-11.85 7.92-6.23 2.31-13.46 2.31t-13.46-2.31ZM200-800q-12.77 0-21.38-8.62Q170-817.23 170-830t8.62-21.38Q187.23-860 200-860h560q12.77 0 21.38 8.62Q790-842.77 790-830t-8.62 21.38Q772.77-800 760-800H200Z"/></svg>
