<svg xmlns="http://www.w3.org/2000/svg" width="450px" height="300px" viewBox="0 0 450 300">
  <path fill="#DA121A" d="M0,0h450v300H0V0z" />
  <path fill="#FCDD09" d="M0,0h450v200H0V0z" />
  <path fill="#078930" d="M0,0h450v100H0V0z" />
  <path fill="#0F47AF" d="M225,50c55.228,0,100,44.772,100,100s-44.772,100-100,100s-100-44.772-100-100S169.772,50,225,50z" />
  <path fill="#FCDD09" d="M235.951,125.279l-14.456-44.492L225,70l17.961,55.279h42.528l-9.176,6.667h-61.802l2.166-6.667H235.951z M247.9,121.316l25.471-35.057l-2.696-1.959l-25.471,35.057L247.9,121.316z M245.94,134.445h-7.01l19.098,58.777l9.176,6.667l-13.142-40.447l47.023-34.164h-11.342l-37.847,27.497L245.94,134.445z M301.6,173.136l-41.212-13.391l-1.03,3.17l41.212,13.391L301.6,173.136z M230.671,176.437l15.593-11.329l-2.166-6.667l-49.999,36.326l-3.505,10.787L225,180.557l47.023,34.164l-3.505-10.787L230.671,176.437z M223.333,230h3.333v-43.333h-3.333V230z M217.202,174.892l5.671-4.12l-49.999-36.326h-11.342l34.406,24.997l-17.961,55.279l9.176-6.667l14.456-44.492L217.202,174.892z M189.613,159.746l-41.213,13.39l1.03,3.17l41.212-13.391L189.613,159.746z M204.873,131.945l-5.956,18.331l5.671,4.12l19.098-58.777l-3.505-10.787l-13.142,40.447h-58.123l9.176,6.667L204.873,131.945L204.873,131.945z M204.796,119.356l-25.47-35.057l-2.697,1.959l25.47,35.057L204.796,119.356z" />
</svg>
