<svg xmlns="http://www.w3.org/2000/svg" width="450px" height="300px" viewBox="0 0 450 300">
  <path fill="#509E2F" d="M0,0h450v300H0V0z" />
  <path fill="#EF3340" d="M0,0h450v200H0V0z" />
  <path fill="#00B5E2" d="M0,0h450v100H0V0z" />
  <path fill="#FFFFFF" d="M245.982,177.026C237.771,187.941,224.71,195,210,195c-24.853,0-45-20.147-45-45s20.147-45,45-45c14.71,0,27.771,7.059,35.982,17.974C239.241,116.492,230.09,112.5,220,112.5c-20.711,0-37.5,16.789-37.5,37.5s16.789,37.5,37.5,37.5C230.09,187.5,239.241,183.508,245.982,177.026z M255.217,138.452l-12.894-6.129l6.129,12.894L235,150l13.451,4.783l-6.129,12.894l12.894-6.129L260,175l4.783-13.452l12.894,6.129l-6.129-12.894L285,150l-13.451-4.783l6.129-12.894l-12.894,6.129L260,125L255.217,138.452z" />
</svg>
