<svg xmlns="http://www.w3.org/2000/svg" width="450px" height="300px" viewBox="0 0 450 300">
  <path fill="#69B3E7" d="M0,0h450v300H0V0z" />
  <path fill="#012169" d="M0,0h225v150H0V0z" />
  <path fill="#FFFFFF" d="M225,0L225,0h-25.156L131.25,45.729V0h-37.5v45.729L25.156,0H0v16.771L49.844,50H0v50h49.844L0,133.229V150h25.156l68.594-45.729V150h37.5v-45.729L199.844,150H225l0,0v-16.771L175.156,100H225V50h-49.844L225,16.771V0z" />
  <path fill="#C8102E" d="M58.229,50L0,11.18V0l75,50H58.229z M225,0h-16.771l-75,50H150L225,0z M166.771,100H150l75,50v-11.18L166.771,100z M91.771,100H75L0,150h16.771L91.771,100z M101.25,150h22.5V90H225V60H123.75V0h-22.5v60H0v30h101.25V150z" />
  <g>
    <path fill="#FFFFFF" d="M276.9,71.97v102.545c0,33.54,60.6,53.455,60.6,53.455s60.6-19.917,60.6-53.455V71.97H276.9z" />
    <path fill="#C8102E" d="M345.9,154.172V111.57h52.2v-39.6H276.9v39.6h52.2v42.602h-52.2v16.8h52.2v53.8l8.4,3.198l8.4-3.198v-53.8h52.2v-16.8H345.9z" />
    <g>
      <path fill="#FFFFFF" stroke="#000000" stroke-width="0.4015" d="M286.615,90.625c3.762,0,6.811,2.454,6.811,5.481s-3.049,5.481-6.811,5.481s-6.811-2.454-6.811-5.481S282.853,90.625,286.615,90.625z" />
      <path fill="#FFFFFF" stroke="#000000" stroke-width="0.4025" d="M286.615,90.2c3.345,0,6.057,1.371,6.057,3.062s-2.712,3.062-6.057,3.062s-6.057-1.371-6.057-3.062S283.27,90.2,286.615,90.2z" />
      <path fill="#FFFFFF" stroke="#000000" stroke-width="0.4025" d="M286.615,96.322c3.345,0,6.057,1.371,6.057,3.062s-2.712,3.062-6.057,3.062s-6.057-1.371-6.057-3.062S283.27,96.322,286.615,96.322z" />
      <path fill="#FFFFFF" stroke="#000000" stroke-width="0.4025" d="M286.615,93.044c3.345,0,6.057,1.371,6.057,3.062s-2.712,3.062-6.057,3.062s-6.057-1.371-6.057-3.062S283.27,93.044,286.615,93.044z" />
      <path fill="#FEDD00" stroke="#000000" stroke-width="0.6" d="M395.1,103.715l-0.992-2.738c0,0-2.717-1.108-2.924-2.551c-0.484-3.847-1.857-5.289-3.915-5.839c-2.062-0.55-3.434,0.344-3.434,0.344c-0.62,0.893-3.713,0.893-5.43,0.961c-1.717,0.07-1.747-0.746-1.747-0.746c-1.334,0.01-1.895-0.971-1.895-0.971c-0.873-1.744-1.523-2.396-1.954-2.617c2.228,0.033,3.907-0.995,6.422-3.635c2.747-2.886,4.708-1.77,4.708-1.77c-1.333,2.695,0.443,2.456,0.443,2.456c3.64-1.853,0.48-6.525-0.619-6.319c-1.099,0.205-1.412-0.535-1.412-0.535c0.034,0.839-1.22,1.172-1.22,1.172c0.94-5.337-2.245-6.752-2.245-6.752c-0.482,0.481-0.758,1.442-0.758,1.442c-0.892,3.229-3.845,2.749-7.145,1.168c-3.296-1.579-12.09,1.65-14.836,2.749c-2.75,1.099-7.764,2.817-12.298,0.275c-4.532-2.543-5.634-2.062-7.419-1.58c-1.787,0.48-4.944,1.238-6.111,0.618c-1.169-0.618-2.501-0.656-2.501-0.656c0.318-0.178-0.179-0.923-0.179-0.923c-1.373-1.854,0.179-2.99,0.179-2.99s-2.557,0.72-1.54,5.085l0.467,0.655c0,0,0.343,1.373,1.1,1.786l-0.028,0.301c0,0,0.647-0.301,0.85,0.592c0.209,0.893,1.17,0.069,1.582-0.686c0,0-0.688,3.985,4.259,4.946c0,0-0.553-0.619-0.346-1.031c0.205-0.412-0.617-0.758-0.547-1.375c0.068-0.616-1.235-0.892-0.207-1.375c1.029-0.481,1.513-1.443,3.71-0.137s3.917,1.032,3.917,1.032s-1.34-2.751-0.602-2.749c0.739,0.001,4.061,4.115,5.697,3.911c1.636-0.202,4.796-2.057,6.377-1.37c0,0,0.136-0.824,6.18-1.855c6.046-1.031,13.503-4.043,16.299-1.403c0,0,0.327,2.091,1.493,2.641c0,0-0.209,4.327-7.693,1.921l-2.715-0.714c0,0-0.417-1.315-14.652,2.347c0,0-0.838,0.292-1.387,0.706c-0.551,0.41-1.307-0.207-4.124,0.823c-2.814,1.033-13.327,4.468-19.782,3.23l-0.008,0.017c-1.422-0.425-2.754-0.205-2.808-0.43c-0.07-0.275,0.757,0.07,0.757,0.07c-0.48-0.551-0.687-0.595-0.687-0.595c-5.427-0.595-4.468-3.047-4.468-3.047l0.277,0.756c0.893-1.167-0.346-3.915-0.346-3.915l-0.052,0.009c-0.014-0.085-0.029-0.169-0.05-0.25l0.449-0.31c2.611-2.199,5.634-2.611,5.634-2.611c-1.787-2.197-5.567-1.029-5.567-1.029c0.07-2.679-1.029-5.771-1.029-5.771c-3.712,0.412-5.839,3.503-5.839,3.503c-0.137-2.747-3.642-4.326-3.642-4.326c1.304,1.579,0.482,5.357,0.482,5.357l0.137,0.069c-0.217-0.005-0.344,0-0.344,0l-0.078,0.81l-0.128-0.054c0,0-1.304,0.48-2.815,3.915c0,0-0.153,0.812-0.737,1.544c-0.005-0.095,0.005-0.181-0.007-0.28c0,0-1.688,2.212-5.588,0c0,0-5.299-3.144-7.161-3.028s-3.087,0.989-2.968,1.513c0,0-4.252-0.35-5.707,2.095c0,0-3.202,1.165-0.465,3.785c0,0,0.367,1.139,1.163,1.749c0,0-0.113-2.392,0.467-1.689c0,0,0.151,0.236,0.437,0.401c0.076,0.335,0.333,1.267,0.902,1.742l0.41-0.13c0.062-0.596,0.191-1.35,0.324-1.667c0.062,0.008,0.112,0.016,0.135,0.017c-0.018,0.017-0.035,0.028-0.052,0.043l0.757,1.165l0.872-0.466c0.409-0.059,0.932,0.35,0.932,0.35l0.99-0.815c-0.006-0.009-0.012-0.011-0.018-0.02c0.975,0.163,1.241-1.727,1.241-1.727c0.876,0.23,1.695-0.028,2.392-0.45c0.425,1.567,3.896,3.248,3.896,3.248s0.06-0.005,0.149-0.013c-0.294,0.188-0.469,0.329-0.469,0.329c1.579,1.101,4.534,0.826,4.534,0.826c-1.235,0.482-1.063,2.768-1.063,2.768c-0.722,0.296-0.793,1.009-0.793,1.009c2.405,0.959,4.048,0.165,4.048,0.165c0.132,0.782-0.062,0.866-0.062,0.866c-0.961,2.06-1.373,4.052-1.373,4.052c0.021,0.009,0.046,0.014,0.066,0.021c-0.029,0.054-0.066,0.106-0.089,0.162c0,0-4.192,1.455-6.055,3.493c0,0-0.175-0.583-0.7-0.583c-0.524,0-2.154-1.337-2.911-1.571c-0.755-0.232-1.862,0.234-2.154-0.115c-0.263-0.318-0.145-2.703-0.649-3.088c0.002,0,0.01,0.002,0.01,0.002l-0.524-1.455c-0.349,0.756-1.804,0.581-1.804,0.581c-0.058,0.035-0.281,0.198-0.598,0.434c-0.29,0.016-0.625-0.085-0.625-0.085c-0.149,0.031-0.297,0.45-0.406,0.857c-0.058,0.043-0.118,0.088-0.176,0.133v-0.409c-0.29,0.233-0.872-0.116-1.106-0.116c-0.114,0-0.255,0.334-0.37,0.676c-0.592,0.11-1.377,0.139-1.377,0.139c-0.233,0.116-0.059,1.921-0.059,1.921c-1.687,0.932-0.873,2.329-0.873,2.329c0.932,4.541,8.675,2.503,9.258,3.087c0.581,0.583,1.921,0.697,2.62,0.697c0.697,0,1.57,1.689,2.561,1.864c0.991,0.175,0-1.339,4.591-2.435c4.589-1.097,6.12-2.979,6.12-2.979c1.438-0.277,1.838-2.024,1.945-2.73c0.014,0.325,0.052,0.685,0.104,1.095c0.207,1.58-0.885,2.156-0.885,2.156l3.977-1.194c1.579-0.412,1.373-1.787,1.373-1.787c1.511,4.328,4.259,4.603,4.259,4.603c0.55-1.649,0.482-2.131,0.482-2.131l1.236-0.067c0.05-0.932-0.772-1.613-1.249-1.93l1.935,1.174l0.754-0.137c0,0.687,1.031,1.304,1.031,1.304l0.139-0.891c0.893,1.168,2.542,0.755,2.542,0.755c-0.033-0.208-0.083-0.422-0.146-0.641c3.52,2.173,9.143-0.595,9.143-0.595c1.511,0.343,1.717-0.55,1.717-0.55c1.717,0.205,2.116-0.968,2.116-0.968c4.042-0.35,6.886-3.223,6.886-3.223c1.99-0.137,2.055-1.561,2.055-1.561s1.996,0.394,3.92-2.011c4.464-6.387,11.14-3.062,11.14-3.062l-3.86,0.244c-10.097-0.068-5.911,6.799-5.911,6.799l0.622-0.066c0.962,0.206,4.258,2.816,3.043,4.761c-0.019,0.034-0.046,0.065-0.068,0.097c-2.059,2.818-5.871,0.13-6.957-2.248c-1.1-2.404-3.299-1.853-3.299-1.853s-5.701,0.962-3.365,5.495l0.085,0.003c0.043,1.106,0.737,2.367,2.771,3.62c1.142,1.616,4.897,1.784,7.655,1.187c1.283-0.28,8.056-3.192,8.056-3.192c0.497-1.475,2.18-1.135,3.691-3.265s-2.13-2.886-2.954-4.052c-0.826-1.169,0.207-0.962,0.207-0.962c3.296,1.786,3.571-3.916,3.571-3.916c0.344,3.296,3.229,4.19,3.229,4.19c1.787-1.784,0.484-5.426,0.484-5.426c4.259,7.625,6.839,6.411,6.839,6.411c-2.293-1.42-1.139-3.32-1.139-3.32c2.059,8.105,10.511,1.031,10.511,1.031c-0.412,1.166,0.002,1.853,0.757,2.609c0.755,0.756,1.648,1.1,1.238,2.474c-0.413,1.373-4.327,1.1-4.327,1.1s-3.849-0.205-3.503,3.023c0.202,0.754,2.745,1.029,3.707,0.824c0,0-0.397,0.086,1.025,0.277c0.476,0.061,1.052,0.071,1.637,0.052c1.639-0.05,3.385-0.329,3.385-0.329c2.195-0.479,1.853-1.238,1.853-1.238c3.363-0.62,3.709-2.888,3.709-2.888L395.1,103.715z" />
      <path fill="#000000" d="M283.477,89.647c0.003-0.004,0.181-0.424,0.52-0.475c0.262-0.039,0.579,0.155,0.914,0.562l0.184-0.138c-0.008-0.014-0.907-1.323-0.548-2.248c0.16-0.412,0.557-0.695,1.178-0.835l-0.05-0.226c-0.701,0.161-1.153,0.49-1.343,0.979c-0.071,0.182-0.101,0.376-0.101,0.568c0,0.452,0.159,0.91,0.322,1.261c-0.203-0.128-0.401-0.181-0.592-0.152c-0.345,0.052-0.513,0.301-0.604,0.463L283.477,89.647z M389.5,107.64c-2.295,0.364-5.664,0.566-5.932-0.128c-0.047-0.124-0.055-0.619,1.824-1.843l-0.219-0.337c-1.568,1.021-2.199,1.759-1.98,2.323c0.481,1.25,5.4,0.536,6.382,0.379L389.5,107.64z M345.6,108.965c-0.523-0.8-0.288-1.897,0.699-3.262l-0.325-0.235c-1.097,1.509-1.336,2.762-0.711,3.717L345.6,108.965z M342.5,105.51c0.05,1.384,1.028,2.669,2.9,3.816l0.211-0.343c-1.753-1.072-2.662-2.245-2.709-3.487c-0.069-1.906,1.945-3.376,1.964-3.392l-0.235-0.327C344.541,101.842,342.422,103.385,342.5,105.51L342.5,105.51z M381.645,106.025c-0.629,0.929-0.419,2.055-0.41,2.102l0.394-0.077c-0.004-0.011-0.186-1.013,0.352-1.802c0.323-0.475,0.843-0.782,1.549-0.916l-0.073-0.395C382.639,105.092,382.031,105.457,381.645,106.025z M291.96,88.445l-0.124-0.031l-0.017,0.128c-0.004,0.013-0.179,1.232-0.732,1.564c-0.155,0.092-0.322,0.103-0.514,0.032l-0.939-0.571c-0.187-0.165-0.348-0.286-0.619-0.207c-0.054-0.07-0.269-0.362-0.269-0.831c0-0.052,0.004-0.108,0.011-0.164c0.067-0.55,0.451-1.081,1.145-1.576l-0.132-0.188c-0.752,0.538-1.169,1.121-1.242,1.74c-0.084,0.716,0.331,1.203,0.349,1.224l0.056,0.064l0.076-0.035c0.209-0.092,0.269-0.038,0.473,0.142l1.013,0.616c0.257,0.095,0.496,0.077,0.711-0.051c0.572-0.343,0.773-1.34,0.82-1.618c2.438,0.524,4.401-2.44,4.486-2.567l-0.195-0.126C296.299,86.022,294.296,89.058,291.96,88.445L291.96,88.445z M286.115,87.99c-0.122,0.494-0.038,0.979,0.244,1.441c0.269,0.439,0.535,0.672,0.811,0.709c0.337,0.047,0.607-0.203,0.844-0.422c0.173-0.162,0.337-0.313,0.472-0.302l0.208,0.074l0.057,0.736l0.213-0.799l-0.462-0.241c-0.236-0.017-0.434,0.166-0.645,0.363c-0.211,0.193-0.427,0.397-0.657,0.365c-0.2-0.028-0.416-0.231-0.645-0.603c-0.248-0.407-0.323-0.835-0.218-1.265c0.263-1.088,1.564-1.887,1.577-1.895l-0.118-0.196C287.739,85.988,286.401,86.809,286.115,87.99z M282.76,103.52c0.116-0.421,0.44-0.779,0.959-1.067c-0.103,0.01,0.509,0.508,1.034,0.452c0,0,0.213-0.115,0.341-0.184c0.139,0.12,1.048,0.947,1.048,1.996c0,0.221-0.04,0.447-0.139,0.677l0.213,0.089c0.665-1.575-1.007-2.972-1.023-2.987l-0.061-0.048l-0.103,0.067l-0.298,0.162c-0.43,0.045-0.989-0.409-0.994-0.413c-0.706,0.308-1.066,0.715-1.2,1.199L282.76,103.52z M290.525,99.5c-0.502,0.043-1.901,0.31-2.357,1.036c-0.165,0.263-0.19,0.553-0.07,0.866l0.184,0.488c0.436,1.172,0.888,2.383,1.381,2.656l0.112-0.2c-0.419-0.232-0.875-1.456-1.278-2.536l-0.182-0.488c-0.094-0.247-0.078-0.464,0.047-0.664c0.375-0.595,1.633-0.883,2.183-0.928c0.32-0.026,0.425,1.157,0.488,1.864l0.229-0.021C291.169,100.531,291.073,99.454,290.525,99.5L290.525,99.5z M286.69,100.65c-0.294,0.263-0.235,0.659-0.231,0.676c0.003,0.109,0.133,3.034,1.522,3.638l0.091-0.211c-1.257-0.548-1.384-3.422-1.385-3.451c0-0.017-0.041-0.308,0.158-0.483c0.211-0.187,0.629-0.202,1.21-0.042l0.061-0.221C287.447,100.373,286.967,100.403,286.69,100.65L286.69,100.65z M285.59,100.89c-0.614,0.428-0.589,1.649-0.589,1.7l0.23-0.004c0-0.013-0.023-1.151,0.49-1.507c0.191-0.132,0.443-0.137,0.751-0.014l0.085-0.212C286.174,100.696,285.848,100.709,285.59,100.89L285.59,100.89z M333.034,95.824l0.144-0.153l-0.158-0.139c-1.379-1.201-4.556-2.595-5.832-3.128c0.07-0.017,0.447-0.113,0.447-0.113l-0.442-0.247c-1.067-0.6-2.199-0.674-2.964-0.707l-0.004-0.006c-0.485-0.556-0.732-0.644-0.794-0.658c-2.773-0.306-3.79-1.083-4.159-1.683c-0.031-0.049-0.016-0.083-0.038-0.131c0.059-0.08,0.122-0.159,0.122-0.159c0.268-0.349,0.363-0.815,0.363-1.309c0-1.262-0.635-2.701-0.682-2.808l0.411-0.446l-0.085-0.13c-3.253-5.122-10.068-4.973-10.137-4.971l0,0l-0.097,0.004l-1.029,1.41c-0.537,0.51-1.334,1.518-2.199,3.481l0,0c-0.008,0.04-0.304,1.559-1.598,2.272c-0.974,0.535-2.26,0.491-3.82-0.133L300.307,86l0.019,0.188c0.004,0.039,0.107,0.932,0.949,1.586c0.107,0.083,0.222,0.155,0.343,0.222c0.012,0.253,0.046,0.978,0.057,1.187c-0.252,0.014-0.894-0.115-1.517-0.313l-0.617-0.196l0.397,0.512c0.323,0.415,0.364,0.929,0.368,1.166c-1.395,0.259-2.488,1.126-2.534,1.165l-0.205,0.169l0.217,0.152c1.2,0.836,3.077,0.908,4.04,0.887c-0.568,0.64-0.664,1.711-0.664,2.246c0,0.11,0.004,0.139,0.005,0.193c-0.682,0.368-0.784,1.059-0.788,1.091l-0.015,0.151l0.141,0.058c2.062,0.822,3.47,0.425,3.949,0.248c0.004,0.064,0.017,0.151,0.017,0.197c0,0.189-0.035,0.247-0.035,0.247c-1.013,2.124-1.438,4.143-1.443,4.162l-0.033,0.167l0.157,0.062c1.914,0.765,5.353-0.28,6.875-0.817c-0.2,0.344-0.316,0.732-0.316,1.214c0,0.404,0.049,0.859,0.116,1.366c0.017,0.128,0.025,0.247,0.025,0.362c0,1.14-0.77,1.571-0.807,1.591l0.153,0.37l3.977-1.195c0.92-0.239,1.265-0.782,1.412-1.244c1.57,3.722,4.033,4.057,4.142,4.07l0.16,0.014l0.05-0.151c0.383-1.144,0.471-1.724,0.488-2.005c0.266-0.012,1.231-0.066,1.231-0.066l0.01-0.181c0.002-0.031,0.002-0.061,0.002-0.091c0-0.329-0.103-0.62-0.245-0.882c0.248,0.15,0.688,0.417,0.688,0.417s0.455-0.083,0.659-0.12c0.172,0.665,0.962,1.187,1.064,1.249l0.256,0.154c0,0,0.094-0.606,0.134-0.87c0.982,0.879,2.377,0.617,2.443,0.601l0.176-0.045l-0.026-0.179c-0.2-1.344-1.102-2.943-1.633-3.798c1.745,0.794,4.925,0.736,5.082,0.731l0.237-0.008l-0.047-0.232c-0.282-1.412-2.047-3.636-2.785-4.52C330.737,98.048,332.939,95.921,333.034,95.824z M309.335,79.437c0.793,0.002,6.635,0.182,9.594,4.666c-0.028,0.03-0.067,0.073-0.106,0.115l-0.219,0.07c0.013,0.042,0.017,0.093,0.029,0.137c-0.101,0.11-0.199,0.218-0.283,0.309l-0.137-0.009c-0.822-0.829-4.072-3.734-9.543-4.377c0.028-0.038,0.058-0.08,0.09-0.124c0.063-0.037,0.1-0.053,0.103-0.054l-0.021-0.058C309.044,79.835,309.272,79.523,309.335,79.437z M313.302,87.194l-0.137,0.186l0,0c0.064,0.048,1.581,1.198,0.723,2.605l-0.071,0.115c-0.635,1.048-0.716,1.183-3.256,1.997c-2.513,0.803-2.973-0.45-3.609-2.182l-0.128-0.351c-0.101-0.27-0.174-0.54-0.227-0.807c0.059,0.113,0.13,0.221,0.213,0.32l-0.045,0.023l0,0c0.006,0.011,0.366,0.715,0.627,1.316l-0.01,0.252l0.077-0.094c0.082,0.197,0.148,0.374,0.179,0.499c0.083,0.332,0.508,0.711,1.013,0.899c0.504,0.19,0.977,0.159,1.33-0.087l0.662-0.551c0.221-0.212,0.294-0.272,0.473-0.241l0.008-0.05c0.33-0.016,0.692-0.067,1.091-0.163l-0.054-0.223c-0.846,0.202-1.521,0.216-2.021,0.051l-0.37-0.175c-0.053-0.035-0.106-0.069-0.152-0.11c-0.444-0.392-0.468-0.97-0.462-1.162c0.087,0.035,0.174,0.066,0.26,0.091c0.566,0.164,1.264,0.175,1.538-0.178c0.11-0.141,0.19-0.395-0.05-0.805c-0.875-1.488-2.29-0.905-2.368-0.874l0,0c-0.328,0.078-0.413,0.353-0.413,0.565c0,0.051,0.005,0.098,0.012,0.139c0.039,0.404,0.353,0.713,0.733,0.924c-0.706,0.278-1.264,0.283-1.657,0.011c-0.607-0.422-0.685-1.397-0.691-1.757c0.034-0.4,0.116-0.776,0.238-1.109l0.014,0.005c0.004-0.01,0.327-0.935,1.046-1.265c0.351-0.161,0.744-0.155,1.172,0.013l0.085-0.212c-0.487-0.196-0.942-0.198-1.354-0.008c-0.018,0.009-0.033,0.021-0.051,0.03c-0.089,0.01-0.173,0.02-0.193,0.022c-0.005-0.019-0.01-0.036-0.01-0.066c0-0.312,0.341-1.306,1.019-2.232c0.497-0.677,1.57-1.346,1.875-1.529c4.848,1.076,7.497,3.89,7.748,4.17c-0.182,0.759-0.639,1.392-1.021,1.918l-0.461,0.694c-0.41,0.808-0.857,0.942-1.332,1.084c-0.314,0.093-0.633,0.193-0.938,0.476C314.534,88.132,313.315,87.206,313.302,87.194z M308.548,87.734c0.014-0.005,0.024-0.012,0.04-0.016l0.023-0.007c0.052-0.023,1.306-0.568,2.095,0.775c0.14,0.239,0.163,0.422,0.066,0.546c-0.169,0.22-0.727,0.263-1.292,0.098l0,0c-0.1-0.029-0.202-0.067-0.302-0.11l0.003-0.026l-0.032,0.014c-0.199-0.089-0.387-0.204-0.529-0.347c0.361,0.107,0.926,0.113,0.926,0.113C308.617,88.543,308.534,87.987,308.548,87.734z M309.896,90.862c-0.1,0.129-0.278,0.366-0.415,0.545c0.004-0.19,0.026-0.457,0.054-0.73c0.043,0.02,0.08,0.038,0.121,0.057C309.731,90.783,309.811,90.825,309.896,90.862z M309.325,90.49c-0.148,1.257-0.058,1.287,0.033,1.315l0.08,0.025l0.09-0.106l0.593-0.782c0.155,0.047,0.322,0.08,0.504,0.096c-0.045,0.039-0.091,0.082-0.141,0.13l-0.635,0.529c-0.391,0.273-0.869,0.157-1.12,0.061c-0.473-0.175-0.815-0.514-0.871-0.74c-0.04-0.159-0.129-0.391-0.236-0.64l0.728-0.88c0.182-0.038,0.374-0.095,0.576-0.171c0.003,0.243,0.054,0.729,0.403,1.129L309.325,90.49L309.325,90.49z M307.654,89.613L307.654,89.613c0.088,0.01,0.151,0.016,0.276,0.029c-0.097,0.117-0.162,0.196-0.292,0.353C307.648,89.811,307.651,89.709,307.654,89.613z M307.412,89.908c-0.092-0.198-0.183-0.387-0.259-0.541c0.086,0.051,0.178,0.093,0.276,0.123L307.412,89.908z M300.597,86.346c1.538,0.573,2.828,0.605,3.821,0.056c1.387-0.767,1.691-2.338,1.703-2.404c0.809-1.835,1.561-2.809,2.072-3.315l0.104,0.01c0.607,0.059,1.179,0.155,1.732,0.266c-0.449,0.284-1.288,0.859-1.729,1.461l0,0c-0.548,0.748-1.057,1.853-1.057,2.371c0,0.099,0.019,0.177,0.061,0.226c0.004,0.005,0.023,0.007,0.029,0.014c-0.107,0.096-0.205,0.206-0.298,0.322c-0.037,0.045-0.07,0.089-0.102,0.134c-0.023,0.032-0.046,0.063-0.067,0.096c-0.063,0.096-0.117,0.188-0.16,0.271c-0.003,0.007-0.007,0.014-0.01,0.02c-0.063,0.124-0.105,0.222-0.125,0.275c-0.135,0.33-0.226,0.694-0.27,1.081l-0.011-0.001c0,0.008-0.001,0.043-0.001,0.095c-0.013,0.142-0.021,0.287-0.021,0.434c0,0.622,0.11,1.269,0.341,1.886l0.128,0.347c0.629,1.712,1.172,3.192,3.894,2.321c2.622-0.838,2.725-1.006,3.385-2.095l0.172-0.282c0.36-0.585,0.753-0.702,1.172-0.826c0.499-0.15,1.017-0.304,1.471-1.2l0.442-0.662c0.372-0.513,0.813-1.124,1.024-1.863l0.423-0.46c0.014,0.149,0.026,0.3,0.026,0.459c0,1.13-0.32,2.472-0.536,3.369l-0.158,0.697c-0.019,0.091-0.026,0.182-0.026,0.269c0,0.608,0.395,1.073,0.703,1.352c-0.37-0.08-0.883-0.256-1.076-0.685c-0.302-0.663-1.114-0.694-1.502-0.615l-0.271,0.055l0.231,0.154c0.365,0.244,0.376,0.527,0.401,1.147l0.097,1.179c0.058,0.402,0.236,0.709,0.53,0.912c0.257,0.175,0.558,0.2,0.833,0.22c-0.617,0.161-1.462,0.261-1.766-0.31c-0.572-1.066-2.146-1.351-2.212-1.364l-0.24-0.041l0.12,0.211c0.013,0.023,0.179,0.326,0.179,0.711c0,0.273-0.083,0.586-0.367,0.868c-0.558,0.563-0.643,1.583-0.643,2.148c0,0.11,0.005,0.126,0.007,0.193c-1.798-0.755-2.116-1.874-2.116-2.508c0-0.269,0.052-0.449,0.059-0.472l0.052-0.177l-0.182,0.031c-0.873,0.144-1.236,0.855-1.252,0.885c-0.499,1.496-1.855,2.68-2.345,3.074c0.016-0.125,0.033-0.271,0.033-0.448c0-0.467-0.101-1.063-0.525-1.488c-0.715-0.715-0.812-2.987-0.812-3.01l-0.016-0.41l-0.2,0.356c-0.791,1.417-3.1,0.736-3.122,0.73c-0.097-1.79,1.933-4.08,1.954-4.103l0.212-0.236l-0.313,0.046c-0.99,0.143-1.815,0.08-2.463-0.188l-0.003-0.057l-0.105,0.005c-0.176-0.082-0.342-0.176-0.49-0.291C300.866,87.166,300.667,86.621,300.597,86.346z M326.234,96.826c-0.417-0.324-4.48-3.473-6.434-3.841l-0.075,0.395l0,0c1.894,0.357,6.126,3.659,6.287,3.785c0.16,0.183,2.448,2.839,2.935,4.474c-0.844,0.008-4.093-0.021-5.228-0.986l-0.085,0.078l0.056-0.099c-0.019-0.009-1.745-0.998-1.86-2.488l-0.4,0.031c0.119,1.583,1.726,2.609,2.019,2.781c0.193,0.289,1.557,2.37,1.879,4.017c-0.442,0.058-1.5,0.101-2.126-0.716l-0.289-0.376c0,0-0.116,0.758-0.157,1.019c-0.302-0.228-0.683-0.569-0.683-0.934v-0.24c0,0-0.796,0.145-0.916,0.166c-0.106-0.064-1.425-0.864-1.883-1.141c-0.147-0.095-0.239-0.148-0.283-0.171c-0.18-0.237-1.765-2.369-1.765-4.05h-0.401c0,1.912,1.792,4.225,1.869,4.324l0.139-0.109l-0.087,0.158c0,0,0.224,0.134,0.289,0.174c0.403,0.263,1.093,0.835,1.163,1.594c-0.298,0.017-1.224,0.068-1.224,0.068l0.023,0.213v0.034c0,0.126-0.04,0.652-0.424,1.84c-0.579-0.138-2.684-0.872-3.929-4.437l-0.388,0.096c0.002,0.01,0.007,0.057,0.007,0.133c0,0.325-0.115,1.139-1.232,1.43c-0.007,0.002-2.075,0.624-3.226,0.968c0.215-0.308,0.412-0.73,0.412-1.342c0-0.13-0.008-0.27-0.026-0.419c-0.07-0.518-0.112-0.949-0.112-1.309c0-0.738,0.18-1.182,0.679-1.499c0.157-0.032,0.404-0.137,0.544-0.395c0.191-0.35,0.127-0.85-0.191-1.482l-0.36,0.177l0,0c0.316,0.631,0.283,0.951,0.202,1.108c-0.095,0.176-0.29,0.203-0.297,0.205l0.019,0.159l-0.073-0.146c-0.049,0.019-4.809,1.91-7.169,1.125c0.107-0.458,0.503-2.06,1.299-3.774c0.116-0.12,0.197-0.396,0.093-1.017l-0.043-0.264l-0.242,0.116c-0.016,0.007-1.526,0.682-3.709-0.118c0.044-0.179,0.16-0.5,0.617-0.69l0.134-0.054l-0.013-0.146c0-0.005-0.005-0.107-0.005-0.266c0-0.589,0.092-1.97,0.94-2.301l-0.09-0.388c-0.028,0.004-2.581,0.208-4.129-0.653c0.406-0.28,1.259-0.796,2.252-0.939l0.159-0.023l0.011-0.159c0.002-0.008,0.005-0.055,0.005-0.13c0-0.202-0.078-0.61-0.256-1.021c0.589,0.164,1.295,0.313,1.546,0.125l0.085-0.064l-0.059-1.25c0.607,0.223,1.346,0.287,2.207,0.193c-0.421,0.499-1.772,2.226-1.772,3.901c0,0.088,0.005,0.177,0.014,0.264c0.172,0.124,2.29,0.697,3.272-0.558c0.035,0.538,0.19,2.261,0.862,2.935c0.368,0.367,0.455,0.902,0.455,1.33c0,0.386-0.073,0.683-0.073,0.689l-0.076,0.307l0.256-0.186c0.082-0.059,2.029-1.486,2.651-3.353c-0.002,0.005,0.311-0.469,0.913-0.662c-0.013,0.082-0.023,0.165-0.023,0.281c0,0.722,0.316,2.032,2.418,2.836l0.172,0.066l-0.016-0.184c-0.002-0.004-0.014-0.148-0.014-0.363c0-0.527,0.073-1.496,0.575-1.999c0.331-0.33,0.43-0.702,0.43-1.024c0-0.254-0.056-0.459-0.113-0.61c0.424,0.107,1.427,0.431,1.836,1.195c0.593,1.111,2.669,0.227,2.758,0.19l-0.071-0.218c-0.008,0.002-0.873,0.196-1.418-0.179c-0.24-0.165-0.384-0.419-0.434-0.755l-0.096-1.155c-0.021-0.523-0.094-0.856-0.356-1.135c0.275-0.025,0.826-0.016,1.059,0.5c0.367,0.808,1.625,0.887,1.678,0.891l0.431,0.023l-0.362-0.234c-0.012-0.007-1.099-0.728-0.911-1.668l0.157-0.688c0.208-0.866,0.506-2.137,0.533-3.261c0.172,0.525,0.353,1.225,0.353,1.851c0,0.209-0.099,0.358-0.146,0.541c-0.026-0.068-0.25-0.683-0.25-0.683l-0.194,0.494c-0.009,0.028-0.263,0.692,0.191,1.441c0.6,0.989,2.093,1.622,4.442,1.879h-0.001c0,0.002,0.029,0.028,0.033,0.032c-0.097,0.013-0.17,0.04-0.193,0.061l-0.094,0.08l0.013,0.2c0.061,0.244,0.339,0.256,0.892,0.277c0.094,0.005,0.245,0.028,0.353,0.033c0.137,0.038,0.278,0.077,0.278,0.077s-0.038-0.044-0.047-0.054c0.535,0.037,1.137,0.169,1.79,0.413c-0.145,0.038-0.497,0.126-0.497,0.126l0.581,0.229c0.044,0.017,4.324,1.737,6.095,3.151C332.064,96.129,329.929,97.722,326.234,96.826z M308.512,87.503c0.002-0.002,0.023-0.009,0.023-0.009L308.512,87.503z M312.149,88.777c-0.073,0-0.136-0.062-0.136-0.137c0-0.074,0.062-0.136,0.136-0.136c0.075,0,0.136,0.062,0.136,0.136C312.285,88.715,312.224,88.777,312.149,88.777z M312.42,89.18c0,0.075-0.061,0.137-0.136,0.137s-0.134-0.062-0.134-0.137c0-0.073,0.059-0.135,0.134-0.135S312.42,89.107,312.42,89.18z M311.64,88.913c0,0.075-0.06,0.135-0.135,0.135s-0.135-0.06-0.135-0.135c0-0.075,0.06-0.135,0.135-0.135S311.64,88.838,311.64,88.913z M311.875,89.725c0,0.073-0.061,0.134-0.136,0.134c-0.073,0-0.134-0.061-0.134-0.134c0-0.076,0.061-0.137,0.134-0.137C311.814,89.588,311.875,89.649,311.875,89.725z M308.188,86.201c-0.073,0-0.136-0.062-0.136-0.136c0-0.073,0.062-0.136,0.136-0.136c0.077,0,0.137,0.062,0.137,0.136C308.325,86.14,308.264,86.201,308.188,86.201z M308.46,86.61c0,0.075-0.06,0.135-0.135,0.135s-0.135-0.06-0.135-0.135c0-0.075,0.06-0.135,0.135-0.135S308.46,86.535,308.46,86.61z M307.68,86.34c0,0.075-0.06,0.135-0.135,0.135s-0.135-0.06-0.135-0.135s0.06-0.135,0.135-0.135S307.68,86.265,307.68,86.34z M307.915,87.15c0,0.073-0.062,0.136-0.137,0.136c-0.073,0-0.134-0.062-0.134-0.136c0-0.076,0.061-0.137,0.134-0.137C307.852,87.013,307.915,87.074,307.915,87.15z M311.269,83.808c-0.085,1.063-0.918,1.681-0.918,1.681c1.693-2.032-0.066-3.114-0.066-3.114C310.665,81.9,311.358,82.746,311.269,83.808z M312.779,85.692c0.225-0.202,0.477-0.482,0.691-0.864c0.525-0.93,1.368-0.8,1.775-0.29c0.409,0.509,1.224,1.048,1.79,0.757l-0.029,0.071c-0.523,0.203-0.64,0.117-1.382-0.276s-1.179-1.046-1.935-0.233C313.361,85.209,313.041,85.486,312.779,85.692z M312.549,85.881c0.039,0.297,0.022,0.724-0.259,1.175c-0.509,0.815-0.496,0.772-0.496,0.772s0.612-1.121,0.379-1.588c-0.231-0.466,0.277-0.756,0.277-0.756s0.065,0.151,0.097,0.382c0.07-0.051,0.147-0.109,0.232-0.176C312.696,85.766,312.62,85.828,312.549,85.881z M314.685,86.285l0.01-0.017c0.277-0.172,0.566-0.318,0.855-0.098c0,0,0.422,0.131,0.044-0.161c-0.272-0.209-0.568-0.07-0.941,0.094c-0.708,0.043-1.044-0.485-1.136-0.67c0.513-0.3,1.123-0.6,1.308-0.455c0.334,0.263,1.121,0.902,1.601,0.715c0.481-0.191,0.465-0.263,0.465-0.263c-0.232,0.174-0.656,0.32-1.106-0.045c-0.45-0.364-0.829-0.857-1.396-0.567c-0.247,0.127-0.587,0.351-0.896,0.565c-0.002-0.004-0.007-0.015-0.007-0.015s0.002,0.013,0.003,0.018c-0.401,0.278-0.747,0.538-0.747,0.538s0.162-0.112,0.394-0.259c0.012,0.025,0.385,0.769,0.843,0.885c0.214,0.053,0.447-0.112,0.689-0.265C314.674,86.284,314.678,86.286,314.685,86.285z M314.182,86.286c-0.601,0.187-1.033-0.597-1.046-0.622c0.108-0.069,0.232-0.144,0.363-0.221c0.038,0.189,0.197,0.69,0.76,0.816C314.233,86.268,314.208,86.278,314.182,86.286z M314.65,85.59c0.071,0.276,0.056,0.401-0.236,0.401c-0.294,0-0.494-0.098-0.494-0.383C313.92,85.323,314.607,85.412,314.65,85.59z M310.398,85.228c-0.62-0.485-0.934-0.969-0.928-1.438l0,0c0.007-0.508,0.386-0.797,0.402-0.81l0.137,0.185c-0.004,0.003-0.306,0.236-0.31,0.629c-0.004,0.39,0.277,0.809,0.83,1.243c0.13-0.37,0.192-0.681,0.195-0.936c-0.015,0.176-0.161,0.315-0.344,0.315c-0.036,0-0.062-0.009-0.088-0.017c0.079,0.069,0.177,0.13,0.3,0.178l-0.085,0.212c-0.334-0.133-0.542-0.337-0.622-0.606c-0.149-0.502,0.222-1.039,0.24-1.063l0.186,0.134c-0.004,0.004-0.323,0.468-0.205,0.866c0.015,0.049,0.036,0.096,0.064,0.139c-0.013-0.047-0.02-0.099-0.02-0.162c0-0.188,0.038-0.365,0.231-0.365c0.177,0,0.317,0.13,0.341,0.296c-0.034-1.158-1.196-1.176-1.196-1.176c-0.115-0.11,0.057-0.269,0.057-0.269s0.704-0.211,1.153,0.626c0.447,0.838-0.266,2.003-0.266,2.003c0.019-0.047,0.03-0.088,0.046-0.134L310.398,85.228z M312.45,85.485L312.45,85.485L312.45,85.485L312.45,85.485z" />
      <path fill="#FFFFFF" stroke="#000000" stroke-width="0.175" d="M283.43,89.315c0.758-0.523,1.281,0.059,1.281,0.059c-0.292,0.58-0.175,1.98-0.175,1.98C283.546,90.595,283.43,89.315,283.43,89.315z M286.281,91.774l0.451-0.149c0,0,0.189-1.38,0.422-1.554c0.233-0.173-0.989,0.524-1.749,0.059C285.405,90.13,285.582,91.249,286.281,91.774z M287.155,90.07l0.739,1.138l0.889-0.438v0.001c0.409-0.059,0.932,0.35,0.932,0.35l0.99-0.815l0,0c-1.048-1.339-1.746-0.815-1.746-0.815l-0.175,1.277l-0.174-1.394C288.61,89.373,288.087,89.255,287.155,90.07L287.155,90.07z M283.719,100.434c-0.233,0.116-0.059,1.921-0.059,1.921l0,0c0.525,0.409,1.223,0.64,1.339,0.058c0.117-0.582-0.291-2.039-0.291-2.039C284.417,100.667,283.719,100.434,283.719,100.434z M290.182,98.22c-0.349,0.756-1.804,0.581-1.804,0.581c-0.29,0.176-0.233,1.69-0.233,1.69c0.931-0.991,2.561-0.815,2.561-0.815L290.182,98.22z M288.089,101.013c0,0,0-0.003,0-0.009V101.013z M287.158,99.15c-0.292,0.058-0.583,1.63-0.583,1.63l0,0c1.474-0.546,1.515,0.136,1.515,0.224l0.057-1.914C287.914,99.383,287.158,99.15,287.158,99.15z M285.468,99.618c-0.233,0-0.564,1.324-0.564,1.324l0.214,1.296c0.173-1.745,1.456-1.455,1.456-1.455v-1.048C286.284,99.967,285.702,99.618,285.468,99.618z" />
    </g>
    <g>
      <path fill="#00AD50" stroke="#000000" stroke-width="0.39" d="M307.58,130c0,0,3.957,3.675,2.923,6.879c0,0,2.543-5.466-0.188-7.068C307.58,128.209,307.486,129.437,307.58,130L307.58,130z" />
      <path fill="#862633" stroke="#000000" stroke-width="0.39" d="M302.585,133.575c0,0-1.035,1.417,0.094,2.453c0,0-1.224,1.787-0.28,3.298c0,0-0.755,1.601-0.566,3.298c0,0-0.661,2.638,0.752,3.865c0,0,1.509,0.754,2.17,0.094c0,0,1.318-1.978,0.469-4.054c0,0,0.943-1.695-0.094-3.863c0,0,0.283-1.225-0.565-2.637c0,0,0.565-0.944,0.093-1.697C304.658,134.332,302.775,132.351,302.585,133.575L302.585,133.575z" />
      <path fill="#00AD50" stroke="#000000" stroke-width="0.39" d="M303.715,128.96c0,0-4.711-9.045-8.01-9.424c-3.299-0.377-3.486-3.58-3.486-3.58s0.376,1.508,3.016,1.508c2.639,0,7.728,3.674,8.293,6.502c0.565,2.827,1.132,2.451,1.132,2.451L303.715,128.96L303.715,128.96z" />
      <path fill="#00AD50" stroke="#000000" stroke-width="0.39" d="M303.715,128.3c0,0,1.697-11.402,9.143-11.592c7.443-0.19,4.994,0.565,6.784-0.661c0,0-4.993,2.641-8.104,3.016c-3.109,0.377-5.654,6.406-5.56,7.539c0.094,1.13-1.696,3.298-2.544,2.545C302.586,128.394,303.715,128.3,303.715,128.3L303.715,128.3z" />
      <path fill="#00AD50" stroke="#000000" stroke-width="0.39" d="M305.41,132.545c0,0,1.696-4.523,4.618-3.014c0,0-2.263-4.337-6.315-0.567C303.713,128.964,305.504,131.413,305.41,132.545L305.41,132.545z" />
      <path fill="#00AD50" stroke="#000000" stroke-width="0.39" d="M299.755,128.015c0,0,2.451,10.085-1.319,13.193c0,0,0.094-5.18-2.168-8.291C294.008,129.806,298.529,126.416,299.755,128.015L299.755,128.015z" />
      <path fill="#00AD50" stroke="#000000" stroke-width="0.39" d="M300.04,129.81c0,0,4.43,4.242,4.714,5.655c0.283,1.414,1.318-4.24-0.754-5.841c-2.074-1.604-4.335-1.886-4.335-1.886L300.04,129.81z" />
      <path fill="#862633" stroke="#000000" stroke-width="0.39" d="M291.87,140.925c0,0,0.401,1.78,1.494,2.125c0,0,0.056,1.323,1.034,1.724c0,0-0.518,1.092,0.346,1.78c0,0-0.174,2.183,0.631,2.644c0,0,1.955-0.115,2.642-0.69c0,0,0.403-1.434-0.687-2.873c0,0,0.17-1.379-0.922-2.125c0,0,0.345-1.841-1.034-2.529c0,0-0.229-1.495-1.092-2.241C294.282,138.74,292.617,141.095,291.87,140.925L291.87,140.925z" />
      <path fill="#00AD50" stroke="#000000" stroke-width="0.39" d="M294.05,138.74c0,0-5.803-2.126-9.021,0.92c0,0,4.94,0.69,5.573,1.667C291.234,142.302,294.279,139.719,294.05,138.74L294.05,138.74z" />
      <path fill="#00AD50" stroke="#000000" stroke-width="0.39" d="M292.27,142.36c0,0-0.459-0.401-1.033-0.805c-0.575-0.401-5.458-1.723-6.15,2.988c0,0-1.782-4.654,0.804-5.286C288.479,138.624,290.547,140.119,292.27,142.36" />
      <path fill="#00AD50" stroke="#000000" stroke-width="0.39" d="M288.45,132.73c0,0,1.789,3.863,2.45,4.054c0.659,0.186,1.13-0.471,1.13-0.471S289.675,132.826,288.45,132.73z" />
      <path fill="#00AD50" stroke="#000000" stroke-width="0.39" d="M287.13,126.795c0,0-1.509-4.994-3.298-3.675c-1.79,1.319-1.319,4.899-1.319,4.899s-3.581-3.673-1.509-6.596C283.079,118.502,287.13,121.706,287.13,126.795L287.13,126.795z" />
      <path fill="#862633" stroke="#000000" stroke-width="0.39" d="M291.185,137.065c0,0,0,0.943,0.66,1.224c0.66,0.283,1.885,0.752,1.885,0.19c0-0.565-0.941-2.733-1.321-2.45C292.032,136.313,291.375,136.309,291.185,137.065L291.185,137.065z" />
      <path fill="#00AD50" stroke="#000000" stroke-width="0.39" d="M290.055,131.225c0,0-0.188-4.334,2.637-5.938c0,0,0.567,0.097,0.85-0.751c0,0-2.264,5.463-1.604,8.196l-0.094,0.377" />
      <path fill="#00AD50" stroke="#000000" stroke-width="0.39" d="M290.62,125.945c0,0,5.089-10.556,11.309-6.881c0,0-6.502,1.32-8.857,5.938l-2.357,3.484L290.62,125.945L290.62,125.945z" />
      <path fill="#00AD50" stroke="#000000" stroke-width="0.39" d="M287.885,129.81c0,0-1.508-7.067-2.45-8.008c-0.943-0.943-2.545-1.979-4.43-0.378c0,0,3.299-2.923,6.786-0.471c3.485,2.45,2.732,6.314,2.732,6.314l-0.376,4.901L287.79,130" />
      <path fill="#00AD50" stroke="#000000" stroke-width="0.39" d="M293.35,138.195c0,0-6.22-11.776-10.271-3.39c0,0-0.756,2.166,0.092,3.013c0,0-2.262-1.695-1.225-5.841c1.035-4.145,7.914-2.262,9.895,1.132c1.978,3.392,2.545,5.09,2.262,5.276C293.819,138.574,293.35,138.195,293.35,138.195L293.35,138.195z" />
      <path fill="#00AD50" stroke="#000000" stroke-width="0.39" d="M310.88,141.59c0,0,4.525-9.33,7.162-5.09c0,0,0.753,2.072-0.379,2.923c0,0-1.789-2.168-3.39,0.471c-1.603,2.638-0.943,2.451-0.943,2.451S311.634,142.816,310.88,141.59L310.88,141.59z" />
      <path fill="#00AD50" stroke="#000000" stroke-width="0.39" d="M317.66,139.42c0,0,2.45,1.318,1.604,3.956c0,0,3.296-6.312-1.226-6.879C318.039,136.497,318.888,138.477,317.66,139.42L317.66,139.42z" />
      <path fill="#00AD50" stroke="#000000" stroke-width="0.39" d="M317.945,133.015c0,0,5.938,1.695,6.126,4.242c0,0,1.038-4.903-2.356-6.41C321.716,130.848,317.662,131.508,317.945,133.015L317.945,133.015z" />
      <path fill="#00AD50" stroke="#000000" stroke-width="0.39" d="M320.585,125.19c2.545-4.994,5.749,1.602,5.749,1.602s1.13-5.182-2.072-6.126c-3.206-0.942-5.278,11.025-5.278,11.025l-3.77,0.848c0,0,1.037-10.458,6.691-11.402l0.659,0.095" />
      <path fill="#00AD50" stroke="#000000" stroke-width="0.39" d="M316.06,128.205c0,0-3.58-7.35-6.03-8.103c-2.451-0.754,1.321-1.885,2.828-0.472c1.505,1.412,4.333,3.204,4.051,6.974L316.06,128.205L316.06,128.205z" />
      <path fill="#00AD50" stroke="#000000" stroke-width="0.39" d="M312.385,138.29c0,0,1.036-4.993,3.863-6.501c2.827-1.509,5.466-0.942,5.466-0.942s-3.394,0.752-3.957,2.451c-0.566,1.695-1.509,1.789-1.509,1.789L312.385,138.29L312.385,138.29z" />
      <path fill="#862633" stroke="#000000" stroke-width="0.39" d="M310.88,141.59c0,0-1.601,3.016-1.226,3.486c0,0-1.695,2.45-1.036,3.675c0,0,1.697,1.319,2.451,0.753c0,0,1.976-2.731,1.412-4.24c0,0,1.319-1.789,0.85-2.919C313.331,142.345,311.353,142.438,310.88,141.59L310.88,141.59z" />
      <path fill="#000000" d="M302.59,136.205l0.179-0.358c0.346,0.172,1.382,0.556,1.617,0.09l0.36,0.179l-0.458,0.391C303.648,136.721,302.696,136.259,302.59,136.205z M305.262,139.101l-0.268-0.299c-0.762,0.676-2.54,0.334-2.56,0.329l-0.078,0.395C302.438,139.54,304.35,139.911,305.262,139.101z M301.95,142.46l-0.236,0.325c0.023,0.017,2.245,1.6,3.667-0.128l-0.311-0.256C303.889,143.835,302.029,142.518,301.95,142.46z M295.485,140.989l-0.229-0.021c-0.107,1.236-1.919,1.964-1.937,1.972l0.083,0.215C293.483,143.122,295.366,142.366,295.485,140.989z M296.516,143.539l-0.224-0.058c-0.262,1.054-1.89,1.177-1.907,1.179l0.016,0.229C294.474,144.884,296.213,144.754,296.516,143.539z M294.745,146.44l-0.013,0.231c0.083,0.004,2.03,0.104,2.691-0.974l-0.196-0.122C296.637,146.539,294.764,146.442,294.745,146.44z M312.326,145.134c-0.283,0.326-0.612,0.5-0.974,0.514c-0.803,0.029-1.552-0.704-1.559-0.713l-0.283,0.285l0,0c0.035,0.037,0.874,0.866,1.855,0.829c0.48-0.017,0.906-0.238,1.265-0.652L312.326,145.134z" />
    </g>
    <g>
      <path fill="#862633" stroke="#000000" stroke-width="0.21" d="M368.03,152.11c-0.104,0.04-0.209,0.103-0.304,0.202L368.03,152.11z" />
      <path fill="#862633" stroke="#000000" stroke-width="0.21" d="M374.96,150.375c-0.067-0.172-0.111-0.1-0.2-0.176c-0.127-0.104-0.2-0.438-0.311-0.563c-0.066-0.076-0.142-0.002-0.214-0.021c-0.162-0.356-0.353-0.732-0.523-1.076c0.026-0.04,0.043-0.087,0.047-0.16c0-0.014-0.08-0.289-0.085-0.301c-0.049-0.076-0.125-0.031-0.172-0.149c-0.052-0.118-0.013-0.351-0.031-0.49c-0.014-0.116-0.059-0.181-0.052-0.344c0.007-0.142,0.083-0.308,0.074-0.433c-0.004-0.078-0.095-0.254-0.123-0.32c-0.112-0.269-0.205-0.523-0.219-0.856c-0.014-0.301,0.047-0.485,0.069-0.746c0.028-0.313-0.137-0.464-0.137-0.753c0.002-0.221,0.095-0.469,0.122-0.667c0.037-0.271,0.04-0.664,0.017-0.942c-0.02-0.266-0.095-0.426-0.054-0.725c0.011-0.073,0.046-0.132,0.054-0.235c-0.002-0.073-0.002-0.144-0.002-0.215v-0.429c0-0.139,0.014-0.296,0.002-0.431c-0.012-0.113-0.078-0.229-0.078-0.318c0-0.153,0.097-0.226,0.076-0.433c-0.013-0.149-0.035-0.184-0.069-0.314c-0.066-0.247-0.021-0.496-0.061-0.76c-0.019-0.127-0.059-0.167-0.071-0.311c-0.017-0.17,0.035-0.229,0.052-0.35c0.017-0.12,0.035-0.278,0.019-0.405c-0.019-0.153-0.092-0.261-0.071-0.428l-0.056,1.891c-0.047-1.65-0.113-3.178-0.113-3.178l-2.509-1.178c0,0-0.212,4.607-0.158,5.248c0.05,0.643,0.266,5.038,0.158,5.574c-0.108,0.536-0.372,3.214-0.372,3.214s-1.227,0.857-1.707,1.82c-0.482,0.965-0.374,1.286-0.536,1.286l1.192-0.186l-0.888,0.593c0.183-0.069,0.376-0.054,0.553,0.086c0.02,0.017,0.153,0.13,0.17,0.13c0.047,0,0.112-0.119,0.169-0.14c0.185-0.062,0.341,0.284,0.516,0.257c0.094-0.014,0.223-0.113,0.299-0.214c0.064-0.085,0.088-0.235,0.155-0.292c0.061-0.052,0.211,0.008,0.275,0.008c0.175,0,0.353,0.005,0.528,0c0.233-0.007,0.422-0.335,0.638-0.521c0.2-0.169,0.348-0.228,0.562-0.215c0.235,0.017,0.446,0.236,0.685,0.25c0.181,0.009,0.306,0.031,0.452-0.158c0.101-0.132,0.172-0.328,0.268-0.466l0.593-0.092c0.118,0.049,0.238,0.103,0.338,0.099c0.151-0.007,0.308-0.026,0.458-0.002c0.057,0.007,0.17,0.141,0.217,0.108c0.032-0.025,0.086-0.205,0.118-0.259C375.009,150.616,374.986,150.435,374.96,150.375L374.96,150.375z" />
      <path fill="#862633" stroke="#000000" stroke-width="0.21" d="M369.885,152.025c0.151,0,0.29-0.035,0.417,0.076c0.021,0.04,0.04,0.079,0.059,0.116c0.041,0.028,0.085,0.034,0.125,0.017c0.085,0.058,0.103,0.09,0.196,0.112c0.087,0.019,0.182-0.003,0.269-0.002c0.11,0.003,0.163,0.041,0.266,0.083c0.179,0.073,0.297,0.003,0.452-0.108c0.179-0.132,0.245-0.031,0.417,0.134c0.129,0.123,0.103,0.112,0.219,0.028c0.017-0.04,0.038-0.078,0.058-0.112c0.058-0.024,0.116-0.04,0.175-0.05c0.096-0.045,0.191-0.04,0.282-0.074c0.095-0.037,0.165-0.143,0.266-0.124c0.087,0.017,0.187,0.088,0.269,0.115c0.08,0.028,0.115,0.043,0.181,0.092c0.119-0.247,0.384-0.32,0.553-0.439c0.176-0.122,0.339,0.026,0.532,0.028c0.103,0,0.144-0.059,0.217-0.083c0.082-0.03,0.175,0.013,0.254-0.019c0.083-0.031,0.099-0.112,0.191-0.122c0.17-0.021,0.36,0.257,0.53,0.309c0.095,0.032,0.538,0.131,0.473-0.194c-0.062-0.31-0.34-0.095-0.4-0.313c-0.032-0.124,0.033-0.299-0.005-0.438c-0.033-0.127-0.172-0.273-0.256-0.301c-0.104-0.033-0.165,0.076-0.254-0.009c-0.073-0.068-0.101-0.322-0.165-0.422c-0.086,0.062-0.139,0.12-0.252,0.097c-0.129-0.031-0.116-0.075-0.212-0.197c-0.209-0.261-0.329,0.157-0.521,0.091c-0.146-0.047-0.282-0.415-0.397-0.565c-0.061-0.08-0.233-0.339-0.322-0.281c-0.149,0.097-0.014,0.379-0.092,0.504c-0.056,0.087-0.254-0.002-0.325,0.012c-0.113,0.025-0.134,0.054-0.215,0.19c-0.165,0.273-0.261,0.49-0.518,0.459c-0.122-0.014-0.214-0.137-0.332-0.092c-0.127,0.049-0.198,0.184-0.337,0.2c-0.101,0.008-0.217,0.012-0.316-0.026c-0.097-0.044-0.207-0.226-0.296-0.277c-0.038-0.031-0.076-0.038-0.119-0.023c-0.011-0.005-0.145-0.083-0.146-0.083c-0.155-0.045-0.142-0.04-0.205,0.165c-0.037,0.127-0.05,0.257-0.097,0.377c-0.045,0.101-0.144,0.226-0.202,0.293c-0.108,0.116-0.16,0.085-0.301,0.127c-0.113,0.037-0.263,0.212-0.323-0.014c-0.09-0.341,0.25-0.85-0.129-0.761c-0.099,0.023-0.158,0.041-0.219,0.188c-0.067,0.169-0.013,0.278-0.043,0.463c-0.04,0.233-0.484,0.624-0.396,0.835c0.059,0.148,0.257-0.08,0.311-0.043c0.09,0.062,0.064,0.211,0.128,0.31c0.134,0.205,0.532-0.318,0.555-0.035" />
      <path fill="#862633" stroke="#000000" stroke-width="0.21" d="M368.275,150.2c-0.001-0.029-0.007-0.058-0.008-0.088c-0.106-0.019-0.226-0.132-0.323-0.134c-0.092-0.005-0.271,0.219-0.334,0.326c-0.194,0.322-0.14,0.76-0.467,0.753c-0.08-0.002-0.268-0.056-0.338-0.007c-0.123,0.087-0.045,0.344-0.045,0.52c0,0.165,0.075,0-0.013,0.214c-0.026,0.059-0.106,0.078-0.127,0.157c-0.066,0.28,0.167,0.191,0.269,0.188c0.264-0.002,0.527-0.002,0.788,0c0.158,0.003,0.254-0.052,0.401-0.11c0.097-0.033,0.304-0.031,0.386-0.118c0.029-0.033,0.125-0.254,0.139-0.306c0.021-0.108-0.02-0.238,0.005-0.328c0.041-0.158,0.183-0.098,0.209-0.311c0.068-0.524-0.491-0.132-0.403-0.647" />
      <path fill="#000000" d="M373.566,134.219c-0.139,0-0.27,0.033-0.395,0.082c-0.12-0.64-0.613-1.121-1.203-1.121c-0.268,0-0.514,0.102-0.716,0.27c-0.21-0.438-0.61-0.74-1.074-0.74c-0.681,0-1.234,0.637-1.234,1.42c0,0.316,0.093,0.606,0.246,0.842c-0.118,0.218-0.189,0.473-0.189,0.748c0,0.784,0.552,1.422,1.231,1.422c0.152,0,0.297-0.036,0.432-0.095c0.149,0.593,0.618,1.03,1.179,1.03c0.599,0,1.099-0.497,1.208-1.152c0.157,0.084,0.33,0.134,0.515,0.134c0.681,0,1.234-0.637,1.234-1.419C374.8,134.857,374.247,134.22,373.566,134.219z" />
      <path fill="#00AD50" stroke="#000000" stroke-width="0.39" d="M373.38,123.29c0,0,10.459-14.604,21.674,0.567c0,0,0.094,1.509-0.943,3.11l-0.283-1.224l-0.659,0.187l-0.188-0.754l-1.228-0.094l0.379-1.603l-1.321,1.037l0.19-1.132l-1.508,1.51l0.19-3.206l-1.603,2.733l0.188-1.883l-0.565,0.847l-0.34-1.098l-0.506,1.098l-0.756-0.564v0.754l-1.318-1.131l-0.471,1.507l-0.659-1.601l-0.189,1.13l-0.661-1.319l-0.092,1.414l-2.17-0.943l0.471,1.319l-1.034-0.752l0.188,0.752l-1.412-0.281l0.092,0.847l-1.508-0.283l0.284,0.753l-2.074-0.281l0.751,0.848l-0.209,0.345c0,0,11.33-3.736,12.084,10.398l-2.074,1.036l0.566-1.128l-0.566-0.379l-1.695-1.318l0.471-1.792l-0.565,0.19l-0.095-1.036l-0.282,0.188l-0.661-1.036l-0.188,0.377l-0.471-1.227l-0.471,0.85l-0.284-2.074l-0.752,1.321l-0.096-0.754l-0.283,0.471l-0.942-1.132l-0.28,0.754l-0.379-0.565l-0.281,0.659l-1.037-0.944v0.757l-0.659-0.567l-0.286,0.377l-1.599-0.848l-0.098,0.752l-0.846-0.752l-0.284,0.752c0,0,10.275,5.844,7.069,15.363l-0.567,1.224l-0.186-3.202l-0.942,1.695l0.655-3.675l-0.655,0.659l-0.097-1.412l-0.845,1.412l-0.287-1.601l-0.374,0.471l-0.568-2.451l-0.471,1.038l-0.753-2.733l-0.565,1.13l-0.377-2.354l-0.377,1.413l-1.132-2.074l-0.187,0.847l-0.659-1.695l-0.379,0.567c0,0-1.885-0.096-2.449-0.567c-0.565-0.469-2.168,2.828-2.168,2.828l0.189-1.98l-0.659,1.318v-1.318l-1.226,3.957l-0.283-2.827l-0.659,2.45l-0.284-0.752l-0.188,1.037l-0.377-0.379l-0.329,1.112l-0.615-0.452v1.507l-0.565-0.754l-0.471,2.262l-0.282-0.94v1.034l-0.471-0.563l-0.473,2.262l-0.659-0.942l-0.092,1.6l0.28,1.227l-0.753-0.377l0.284,1.976c0,0-2.922-5.464,0.566-10.742c3.484-5.275,8.197-6.689,8.197-6.689l-0.473-0.469l-0.094-0.473l-2.827,1.413l0.095-0.85l-0.755,0.661l-0.188-0.942l-0.473,0.848l-0.092-0.377l-0.661,1.038l-0.379-1.509l-0.47,1.792l-0.445-1.253l-0.968,2.665v-1.978l-0.754,2.074l-0.282-2.262l-0.565,2.637v-2.356l-0.85,2.356l-0.565-2.26l-0.377,2.166l-0.565-1.695l-0.567,2.543l-0.847-2.262l-0.471,3.394l-0.565-1.321l-0.095,2.451l-0.658-1.507l0.658,3.202l-0.848-1.224l0.284,1.978l-1.224-2.168l0.094,2.547l-0.661-0.85l-0.284,0.943c0,0-0.28-9.8,6.408-11.686c6.693-1.884,11.027,0.566,11.027,0.566l-2.543-2.072l0.282-0.661h-0.942l0.377-0.754l-1.978,0.095l0.565-0.754l-1.509,0.188v-0.47l-0.942,0.752l0.377-0.847l-1.319,0.847l-0.08-1.253l-0.674,1.067l-0.374-1.132l-3.017,3.014l0.848-3.109l-0.565,0.661l-0.094-0.661l-0.848,1.321l-0.189-0.943l-0.377,1.13l-0.284-1.318l-0.657,1.318l-0.661-1.223l-0.281,1.603l-0.473-0.85l-0.565,1.225l-0.752-0.755l-0.095,0.755l-1.508-0.66l0.377,1.132l-1.132-0.942l-0.284,1.507l-0.658-0.754l-0.471,1.886l-0.471-1.792l-0.471,1.414c0,0,5.893-15.143,20.802-5.263c0,0,1.624,1.588,2.001,2.718c0.377,1.132,0.095,0.19,0.095,0.19l-0.284-10.461l0.565,4.523l0.377-1.603l-0.094,2.356l1.506-3.299c0,0-1.789,5.466-1.13,7.445c0,0,0.661-6.313,2.924-7.068l-2.074,4.523l0.659-0.095l-0.471,0.944h0.565l-0.683,1.495l-0.353,0.767l0.376,0.753L373.38,123.29L373.38,123.29z" />
      <path fill="#000000" d="M374.923,129.682l-0.259,0.308c-1.565-1.321-2.497-0.328-2.537-0.287l-0.297-0.268C371.838,129.421,373.052,128.099,374.923,129.682z M371.601,126.877l2.138-2.801c0,0-0.985,0.329-1.328,0.443c0.139-0.241,0.57-1.003,0.57-1.003s-0.872,0.375-1.149,0.494c0.076-0.464,0.238-1.437,0.238-1.437l-0.398-0.067l-0.296,1.798l0,0l-0.061,0.362c0,0,0.538-0.229,0.727-0.31c-0.116,0.208-0.499,0.874-0.499,0.874s0.791-0.263,1.084-0.361c-0.473,0.619-1.344,1.759-1.344,1.759L371.601,126.877z M372.087,127.301c0,0-0.514,0.659-0.755,0.967c-0.203-0.362-0.956-1.693-1.313-2.323c0.045,0.017,0.604,0.242,0.604,0.242s-0.41-0.906-0.602-1.327c0.254,0.158,0.815,0.509,0.815,0.509v-1.434h-0.402v0.709c-0.313-0.195-1.331-0.831-1.331-0.831l0.277,0.607l0,0c0,0,0.264,0.584,0.463,1.019c-0.086-0.035-0.737-0.296-0.737-0.296l2.174,3.847c0,0,0.263-0.335,0.278-0.356c-0.219,0.562-0.438,1.128-0.438,1.128l0.376,0.146l0.937-2.411L372.087,127.301z M369.791,129.14c-0.476-0.229-1.076-0.193-1.781,0.11l0.16,0.368c0.589-0.252,1.074-0.294,1.442-0.118c0.431,0.207,0.562,0.652,0.563,0.655l0.388-0.104C370.558,130.025,370.387,129.427,369.791,129.14z M369.368,131.217l0.33,2.107l0.398-0.062l-0.33-2.107L369.368,131.217z M372.056,131.368l0.537,1.61l0.383-0.128l-0.537-1.61L372.056,131.368z M373.251,132.56l0.403,1.608l0.391-0.098l-0.403-1.608L373.251,132.56z" />
    </g>
    <g>
      <path fill="#00AD50" stroke="#000000" stroke-width="0.39" d="M293.205,182.68c0,0-0.109,0.216-0.697,0.91c-0.589,0.697-3.266,0.108-3.266,0.108c0.697,0.054,0.587-0.802,1.391-1.393c0.805-0.587,2.572,0.215,2.572,0.215V182.68z M293.688,183.297l-0.158-0.037c0,0-1.163,1.555-0.761,2.465c0.401,0.911,1.261,0.989,1.058,1.658c0,0,1.151-2.487,0.598-3.213C293.873,183.448,293.688,183.297,293.688,183.297z M291.76,180.215c-0.023-0.911-0.082-1.142-0.082-1.142l-0.108-0.118c0,0-1.855,0.575-2.063,1.547c-0.213,0.973,0.439,1.543-0.116,1.966C289.391,182.468,291.782,181.128,291.76,180.215z M292.5,179.586l0.16,0.009c0,0,0.88-1.733,0.326-2.559c-0.553-0.832-1.416-0.76-1.331-1.452c0,0-0.707,2.648-0.037,3.268C292.29,179.467,292.5,179.586,292.5,179.586z M289.582,178.751c0.873,0.263,1.114,0.278,1.114,0.278l0.145-0.064c0,0,0.043-1.938-0.816-2.444c-0.857-0.508-1.604-0.071-1.829-0.734C288.195,175.787,288.708,178.481,289.582,178.751z M296.206,183.694c-0.162-2.197-2.196-1.499-2.196-1.499l-0.16,0.214c1.177,0.376,2.248,2.732,2.248,2.732S296.366,185.889,296.206,183.694z" />
      <path fill="#000000" d="M295.798,183.256l-0.395,0.082c-0.002-0.009-0.299-0.781-1.489-0.726c-0.078,0.406-0.133,0.692-0.135,0.692l0.215,1.661l-0.286,0.037c0,0-0.213-1.66-0.213-1.707l0.158-0.837c-0.46,0.306-1.385,0.821-2.102,0.569l0.095-0.271l0,0c0.759,0.269,1.9-0.564,2.084-0.704l0.288-1.529l-2.357-1.192l-0.766,0.765l-0.283-0.284l0.672-0.672l-1.641-0.83l0.181-0.359l2.45,1.24l-0.751-1.628l0.365-0.168l0.963,2.088l1.244,0.629l0.096-0.509l0.284,0.052c0,0-0.045,0.239-0.112,0.593l0.013,0.007l-0.023,0.045c-0.1,0.53-0.243,1.288-0.362,1.914C295.285,182.195,295.753,183.036,295.798,183.256z" />
      <path fill="#FFFFFF" stroke="#000000" stroke-width="0.5" d="M314.715,183.135c1.517-0.85,1.822-3.829,1.822-3.829c-0.363,1.096-3.155,2.188-3.155,2.188c2.063-1.278,4.551-7.042,4.551-7.042c-0.667,2.065-6.069,3.763-9.53,5.706c-3.461,1.942-1.639,7.529-1.639,7.529c-0.97-0.668-2.853-3.641-3.216-6.255c-0.367-2.609-1.398-3.64-3.766-3.944c-2.369-0.304-3.764,2.366-3.764,2.366l-3.52,1.823l3.58,0.12c0,0,2.553,0.852,2.553,2.855c0,2.005-2.246,10.018,1.455,14.511c2.576,3.122,12.083,4.916,12.083,4.916 M307.735,189.325c0,0,0.728-3.583,3.096-3.461c2.368,0.121,3.035-2.67,4.432-3.096c1.396-0.424,8.621-2.366,9.41-5.828c0,0-0.668,5.708-7.284,8.561c0,0,5.341-1.762,5.949-2.915c0,0-2.369,5.1-8.136,5.889c0,0,5.403-0.424,6.193-1.88c0,0-2.429,3.217-6.435,3.643c0,0,3.703,1.517,4.675,0.242c0,0-2.004,2.368-4.494,2.548l0.67,0.183c0,0-2.368,2.794-4.979,0.911c-2.609-1.883-2.672,0.487-2.672,0.487 M313.125,194.725c0,0,3.049,5.101,3.353,7.833c0,0,5.829,6.436,8.014,6.798c0,0-1.033,0.424-2.915-1.153c0,0,1.579,1.639,1.883,1.7c0.302,0.062-1.276-0.122-1.519-0.548c0,0,0.669,0.974,1.093,1.095c0.426,0.122-0.424-0.121-0.424-0.121s-0.791-0.122-1.154-0.426c-0.365-0.302-0.122,0.788-0.122,0.788s-0.911-0.243-1.213-0.546c-0.304-0.302,0.122,0.67,0.122,0.67l-0.789-0.183l-0.546,0.363c0,0-0.061,0.365-0.428,0.061c-0.362-0.301-1.031,0-1.031,0s-0.487,0.426-0.728,0.122c-0.241-0.303-1.162,1.168-1.162,1.168l-3.823-9.227" />
      <path fill="#000000" d="M312.428,202.001l4.831,9.196l-0.507,0.267l-4.831-9.196L312.428,202.001z M312.708,201.589l8.266,9.255l0.429-0.383l-8.266-9.255L312.708,201.589z M313.818,200.818l-0.392,0.42l9.432,8.79l0.392-0.42L313.818,200.818z M297.134,180.191c0.022,0.007,0.056,0.007,0.102-0.001C297.174,180.193,297.134,180.191,297.134,180.191z M295.89,179.915L295.89,179.915c0,0,0.338,0.699,0.343,0.711c-0.034,0.002-0.382,1.129-0.382,1.129l0.277,0.085l0.375-1.227c-0.007-0.106-0.352-0.821-0.352-0.821L295.89,179.915z M298.254,180.527c-0.355-0.017-0.888-0.047-0.888-0.047s0,0,0.626,0.153c0.454,0.112,0.817-0.136,0.985-0.283C298.819,180.443,298.509,180.537,298.254,180.527z M299.08,180.25c0,0-0.018,0.019-0.043,0.044c-0.27-0.407-0.68-0.42-0.901-0.393c0.252,0.003,0.534,0.22,0.684,0.354c-0.143,0.083-0.337,0.096-0.533,0.077c0.105-0.001,0.19-0.086,0.19-0.191c0-0.106-0.086-0.191-0.191-0.191s-0.191,0.086-0.191,0.191s0.085,0.19,0.189,0.191c-0.354-0.035-0.7-0.17-0.739-0.186c0.148-0.036,0.308-0.1,0.431-0.217c0.307-0.293,0.828-0.108,1.243,0.49l0,0c0,0-0.616-1.102-1.151-0.688c-0.409,0.316-0.684,0.434-0.833,0.459c0.06-0.002,0.141-0.01,0.231-0.027l-0.025,0.008l0.043,0.033c0.668,0.462,1.272,0.095,1.337,0.053c0.066,0.059,0.108,0.102,0.108,0.102l0.101-0.06c-0.015,0.015-0.032,0.03-0.054,0.05C299.036,180.314,299.075,180.279,299.08,180.25z M298.119,179.904c0.005-0.001,0.012-0.001,0.017-0.002C298.13,179.902,298.124,179.903,298.119,179.904z M297.98,179.931c0,0,0.055-0.016,0.138-0.027C298.071,179.905,298.024,179.912,297.98,179.931z M299.014,197.413l-0.209-0.313c0,0-0.498,0.917-0.238,1.469c0.264,0.551,1.445,0.838,1.603,1.573c0.158,0.737,0.553,0.736,1.104,0.633c0.553-0.106,0.657-0.132,0.657-0.132S299.619,199.407,299.014,197.413z" />
    </g>
    <g>
      <path fill="#862633" stroke="#000000" stroke-width="0.24" d="M373.545,178.425c0,0,4.209-5.549,7.941-4.092c3.733,1.459,6.158,2.161,6.158,2.161s0.071,3.737-1.914,3.737c-1.98,0-3.878-3.733-5.683-2.623c-1.808,1.108-3.292,2.625-3.409,3.148C376.521,181.28,371.857,181.397,373.545,178.425L373.545,178.425z" />
      <path fill="#862633" stroke="#000000" stroke-width="0.39" d="M357.57,205.185c0,0-1.164,1.222-0.639,1.516c0.527,0.29,1.573-0.061,1.573-0.467C358.504,205.823,357.806,205.069,357.57,205.185L357.57,205.185z" />
      <path fill="#862633" stroke="#000000" stroke-width="0.39" d="M356.64,206.35c0,0-2.156-1.228-3.847,1.688c-1.693,2.915-3.091,7.639-4.082,8.281c-0.991,0.641,9.621-4.664,9.737-6.88c0,0,0.698-2.858-0.409-2.801C356.932,206.699,356.873,206.816,356.64,206.35L356.64,206.35z" />
      <path fill="none" stroke="#000000" stroke-width="0.24" d="M356.93,206.7c0,0-2.215,0.521-2.681,3.668c-0.466,3.152-3.557,4.783-3.731,4.898 M387.65,176.495c0,0-3.369,1.172-2.787,3.505" />
      <path fill="#FEDD00" stroke="#000000" stroke-width="0.24" d="M361.77,183.32c0,0,0.116-7.988,6.642-7.639c1.237,0.115,0.647,1.573,0.647,1.573s1.412-0.989,2.057,0.583c0,0,2.059-0.932,2.293,1.109c0,0,2.234-0.29,1.94,1.516c0,0,1.528-0.349,1.471,0.934c0,0,1.763-0.7,1.585,1.108c0,0,1.94-1.283,1.648,1.048c0,0,1.999-1.397,2.702,0.934c0.706,2.331-1.997,7.287-4.643,8.569l-11.601,0.195L361.77,183.32z" />
      <path fill="#00AD50" stroke="#000000" stroke-width="0.24" d="M357.92,193c0,0-1.106-7.406,3.324-9.736c0,0,0.818-0.176,1.283,0.874c0,0,2.333-0.991,2.392,0.989c0,0,1.165-0.932,1.457,0.35c0,0,2.507-0.523,2.041,1.342c0,0,2.098-0.583,1.923,1.223c0,0,2.1-0.757,1.748,0.817c0,0,2.215-0.523,1.691,1.283c0,0,2.741-0.29,1.925,1.633c0,0,2.041-0.524,1.573,1.05c0,0,2.683,0.467,1.457,2.158c-1.224,1.689-4.315,4.255-7.343,5.362l-7.384,2.541L357.92,193z" />
      <path fill="#00AD50" stroke="#000000" stroke-width="0.24" d="M355.53,200.46c0,0-1.808-6.178,1.634-7.755c0,0,0.638-0.176,0.755,0.467c0,0,0.76-0.992,1.343-0.116c0,0,1.747-0.817,2.158,0.466c0,0,1.165-0.992,1.749,0.464c0,0,1.108-0.464,1.108,0.701c0,0,1.516-0.641,1.516,0.758c0,0,1.455-0.583,1.165,0.991c0,0,2.216,0.349,1.575,1.399c0,0,1.985,0.523,1.224,1.342c0,0,2.156-0.233,0.991,1.224c0,0,1.633-0.523,0.701,1.285c-0.934,1.806-3.847,3.788-5.888,4.021l-5.812-1.216L355.53,200.46z" />
      <path fill="#00AD50" stroke="#000000" stroke-width="0.24" d="M357.685,205.355c0,0-3.847-3.731-2.038-4.838c0,0,0.813,0.231,1.106,1.048c0,0,0.932-1.34,1.459,0.058c0,0,1.4-0.466,1.4,0.469l1.106,0.817c0,0,1.285-0.118,1.052,0.699c0,0,1.399-0.176,1.34,0.583c0,0,1.226,0.058,1.109,0.872c0,0,2.096,0.35,1.165,1.402c0,0-3.673,0.756-6.237-0.292C359.146,206.172,357.802,205.704,357.685,205.355L357.685,205.355z" />
      <path fill="#000000" d="M367.6,185.42c-0.17-4.784,3.479-7.666,3.516-7.696l0.139,0.182c-0.037,0.029-3.592,2.843-3.424,7.506L367.6,185.42L367.6,185.42z M369.7,186.695l0.233,0.119c0.276-5.337,3.586-7.75,3.62-7.775l-0.136-0.186C373.384,178.879,369.933,181.453,369.7,186.695L369.7,186.695z M364,183.846c0.528-4.269,3.751-5.838,4.793-6.26l0.335-0.34l0.015-0.098c-0.045,0.012-4.729,1.467-5.371,6.67l0,0L364,183.846z M371.975,188.145l0.199,0.16c0.4-4.34,3.296-7.735,3.325-7.766l-0.17-0.154C375.298,180.417,372.383,183.729,371.975,188.145L371.975,188.145z M373.834,189.214c0.286-3.598,3.098-7.712,3.128-7.754l-0.19-0.129c-0.029,0.041-2.876,4.207-3.167,7.865L373.834,189.214z M375.68,190.58l0.162,0.165c2.222-2.162,2.654-7.97,2.67-8.217l-0.238,0.091C378.269,182.68,377.843,188.478,375.68,190.58L375.68,190.58z M380.053,183.552l-0.148,0.253c0.009,0.065,0.879,6.249-2.629,8.513l0.124,0.195C381.035,190.168,380.06,183.616,380.053,183.552z M379.905,183.805L379.905,183.805L379.905,183.805L379.905,183.805z M370.88,199.19L370.88,199.19l0.082,0.214c2.279-0.878,6.239-6.282,6.408-6.512l-0.186-0.137C377.142,192.812,373.097,198.336,370.88,199.19z M375.797,191.844l-0.183-0.139c-0.04,0.056-4.087,5.417-6.029,6.499l0,0l0.112,0.2C371.68,197.298,375.63,192.067,375.797,191.844z M373.884,190.195l-0.203-0.108c-0.031,0.059-3.16,5.948-5.22,7.658l0,0l0.148,0.176C370.703,196.182,373.754,190.438,373.884,190.195z M372.174,188.933l-0.17-0.154c-0.169,0.19-4.167,4.668-4.574,7.64l0.212,0.084C368.04,193.601,372.135,188.978,372.174,188.933z M367.43,196.42L367.43,196.42L367.43,196.42L367.43,196.42z M359.495,192.87c-0.343-4.101,3.091-8.618,3.125-8.664l-0.182-0.139c-0.037,0.044-3.536,4.718-3.186,8.91L359.495,192.87z M364.832,185.051c-0.163,0.194-3.976,4.928-3.392,8.325l0,0l0.228-0.04c-0.568-3.289,3.3-8.09,3.34-8.136L364.832,185.051z M368.5,186.899l-0.165-0.16c-0.037,0.038-3.707,3.871-3.59,7.721l0.23-0.007C364.862,190.7,368.463,186.937,368.5,186.899z M364.745,194.46L364.745,194.46L364.745,194.46L364.745,194.46z M357.04,201.18c-1.308-3.468,0.962-7.909,0.986-7.953l-0.207-0.106c-0.023,0.046-2.289,4.641-0.944,8.205L357.04,201.18z M358.335,201.485L358.335,201.485l0.219-0.071c-1.141-3.533,0.793-8.267,0.813-8.314l-0.214-0.088C359.135,193.058,357.17,197.873,358.335,201.485z M364.585,205.015L364.585,205.015l0.078,0.217c3.72-1.338,6.103-4.687,6.127-4.72l-0.188-0.134C370.58,200.412,368.24,203.704,364.585,205.015z M363.82,204.454c2.967-1.339,6.011-5.221,6.037-5.259l-0.038-0.316l-0.146,0.181c-0.028,0.037-3.036,3.869-5.947,5.183l0,0L363.82,204.454z M363.234,204.112c2.321-1.681,5.342-6.147,5.374-6.191l-0.243-0.048c-0.031,0.044-2.975,4.395-5.266,6.052l0,0L363.234,204.112z M361.319,193.468c-0.026,0.046-2.462,4.509-1.939,8.292l0,0l0.228-0.033c-0.513-3.707,1.886-8.104,1.912-8.148L361.319,193.468z M364.392,194.703l-0.228-0.032c-0.007,0.059-0.836,5.991-3.169,8.094l-0.043,0.034l0.155,0.17C363.5,200.809,364.359,194.949,364.392,194.703z M367.06,196.458l-0.224-0.043c-0.009,0.045-0.963,4.74-4.267,7.133l0.134,0.186C366.081,201.29,367.053,196.504,367.06,196.458z M362.568,203.548L362.568,203.548L362.568,203.548L362.568,203.548z M363.282,194.021c-0.397-4.03,3.148-8.43,3.183-8.473l-0.177-0.144c-0.035,0.04-3.263,4.046-3.263,7.936l0,0c0,0.219,0.011,0.437,0.031,0.659c-0.004-0.019-2.692,8.658-2.692,8.658l0.219,0.068L363.282,194.021z M365.907,195.46c1.363-1.622,4.502-7.307,4.534-7.364l-0.202-0.111c-0.032,0.057-3.159,5.725-4.534,7.385l0,0c-0.034,0.116-0.879,5.883-3.949,7.983l0.13,0.19C365.043,201.383,365.875,195.697,365.907,195.46z M356.64,201.59c0.023,0.119,0.536,2.948,1.123,3.946l0.235,0.017c-0.568-0.963-1.125-3.972-1.131-4.002L356.64,201.59z M358.095,201.625L358.095,201.625L358.095,201.625L358.095,201.625z M360.829,202.935l-0.224-0.05c-0.005,0.018-0.547,1.781-2.146,2.812c0.965-2.114,1.264-3.568,1.267-3.581l-0.226-0.045c-0.003,0.012-0.288,1.398-1.204,3.429c0.071-0.816,0.037-3.336,0.029-3.876l-0.231,0.002c0.025,1.408,0.032,3.718-0.047,3.923l0.212,0.186c0.004-0.011,0.008-0.034,0.012-0.053l0.124,0.056c-0.039,0.024-0.075,0.05-0.114,0.073l0.119,0.058l0.16,0.055C360.39,204.86,360.814,203.012,360.829,202.935z M359.746,206.137c2.338-0.398,3.409-1.811,3.456-1.877l-0.186-0.136c-0.011,0.015-1.131,1.499-3.543,1.826c1.422-0.547,2.353-2.205,2.398-2.285l-0.202-0.112c-0.011,0.023-1.214,2.164-2.885,2.332l-0.118,0.038l0.141,0.189c0.055-0.006,0.108-0.018,0.162-0.028l0.009,0.144c0.055-0.003,0.105-0.011,0.159-0.015l-0.015,0.071c0.155,0.035,3.917,0.716,5.172-1.195l-0.193-0.125C363.215,206.319,360.845,206.25,359.746,206.137z" />
    </g>
    <path fill="none" stroke="#000000" stroke-width="2.1" d="M276.9,71.97v102.545c0,33.54,60.6,53.455,60.6,53.455s60.6-19.917,60.6-53.455V71.97H276.9z" />
  </g>
</svg>
