<svg xmlns="http://www.w3.org/2000/svg" width="450px" height="300px" viewBox="0 0 450 300">
  <path fill="#CE1126" d="M0,0l420,30l30,270H0V0z" />
  <path fill="#CE1126" d="M0,0h450v300L0,0z" />
  <path fill="#FCD116" d="M363.2,136c-1.3-17-6.9-19.4-7.8-22s1.4,0.7,3.3,1.4c1.9,0.7-0.3-3.7-0.9-5.6c-0.5-1.9,5.8,4,7.3,4.5s-3.7-14.3-5.2-15.4s1.6,0.3,2.6,0.7s-9.6-16.2-11.9-16.2s1.9-0.9,3.1-0.9s-12.2-10.8-14.5-10.8s4.9-2.8,5.6-3c1.2,0.2-15.5-8.9-30.5,0.2c-0.9-0.7,7.1-6.2,7.3-8.5c0.1-0.6-2.6-1.9-2.8-2.6c-0.2-0.7,4.2-2.8,4.4-4.4c-1-1.4-3-0.9-4-1.2c-0.3-1.3,3.7-4.5,3.3-5.9c-0.3-0.8-3.1-1-3.8-0.5c-0.7,0.5,1.8-3.7,1.4-4.9c-0.3-0.5-1.7-0.2-3.1,0.2c-0.9-0.2,4.5-7.7,3.5-8.7s-15.7,7.7-21.1,17.4s-1.2,17.6-1.9,20.9c-0.7,3.3-1.6,6.6-3.8,6.6s-7.5-3.5-9.2-5.2s-2.1-3-4.5-3.7s-8,1.4-10.1,1.6s-10.3-1.6-10.8-1c-0.5,0.5,8,3.7,9.9,4.7s2.1,2.4,3.5,3.3s14.5,4.7,10.3,10.1c-3,3.8-9.9-3.8-18.3-4C256,83,250,91.2,247.6,94s-10.3,17.4-10.1,19s4.9-4.4,6.6-5.4c0.2,2.1-1.9,4.5-1.4,5.2s6.1-4.2,8-4.4c0.5,1.4-1,2.8-0.5,4.9c0.7,0.7,3.8-3.5,5.9-4.4c0.3,1.6-1.9,4.5-0.7,6.5c0.9,0.2,6.1-5.9,7.9-6.6c1.7-0.7-0.9,5.8,0,6.3c1.6-1,6.5-6.6,8-7.3c1.6-0.7-0.2,7.2,0.5,7.2c1.9-1.4,6.8-8,7.3-9.1S278.6,116,284,122c5.4,5.9,13.6,12.7,14.5,12.7c1-1.9-0.3-5.9,0.5-5.8c2.4,2.6,7,6.5,8,6.5s-0.7-4.2,0.7-4.2c2.8,2.6,10.8,12.9,26.5,17.6c-1-3-3.3-5.6-3.5-7c1,0.2,4.7,1.9,5.4,1.7c0.7-0.2-7.7-10.5-7.2-11.9c1.9-0.2,2.8,1,3.5,0.2c-0.9-1.4-8.2-9.6-8.2-11.5s2.3,0.3,3,0s-2.8-7.7-2.1-8.5c0.7-0.9,8.4,4.7,10.3,4.7c0.7,0,1-1,1.1-2.3c5.2,4.2,15.4,12.4,22.3,22.7c-0.1,2.2-0.4,4.5-1.1,6.8c-5.2,12.7-15.7,19.5-31.1,14c0.9,1.4,9.1,8.2,18,5.8c7.5-2.1,16.4-7.3,18.2-19.4c2,4.4,3.2,9,3.2,13.8c0,23-20.6,22.3-26.5,21.6c6.6,5.6,31.8,4.5,31.8-21.6C371.5,150.3,368,142.8,363.2,136z M336.6,110.7c0-0.8,0.1-1.3,0.3-1.4c0.9-0.3,7.3,3.7,8.7,3.7c1.4,0,1.2-3,1.7-2.6c0.4,0.3,8.4,8.2,10.9,19.4C350.2,120.6,340.8,113.5,336.6,110.7z" />
  <path fill="#FFFFFF" d="M145.4,206.3l-6.1,4.5l2.3,7.4l-6.1-4.6l-5.9,4.4l2.2-7.1l-6-4.5h7.4l2.3-7.5l2.3,7.5L145.4,206.3L145.4,206.3z M107.7,117.1l-4.4,14.3l11.8-8.7l12.1,9.2l-4.5-14.8l12.1-9h-14.9l-4.6-15l-4.7,15H95.7L107.7,117.1z M74,166.6l-4.6-15l-4.7,15H49.9l12,9.1L57.5,190l11.8-8.7l12.1,9.2l-4.5-14.8l12.1-9H74V166.6z M168.2,171.4l12.1-9h-14.9l-4.6-15l-4.7,15h-14.8l12,9.1l-4.4,14.3l11.8-8.7l12.1,9.2L168.2,171.4z M119.8,245.8l-4.6-15l-4.7,15H95.7l12,9.1l-4.4,14.3l11.8-8.7l12.1,9.2l-4.5-14.8l12.1-9h-15V245.8z" />
</svg>
