<svg xmlns="http://www.w3.org/2000/svg" width="450px" height="300px" viewBox="0 0 450 300">
  <path fill="#012169" d="M0,0v300h450V0H0z" />
  <path fill="#FFFFFF" d="M450,33.5L350.3,100H450v100h-99.7l99.7,66.5V300l0,0h-50.3l-137.2-91.5V300h-75v-91.5L50.3,300H0v-33.5L99.7,200H0V100h99.7L0,33.5V0h50.3l137.2,91.5V0h75v91.5L399.7,0H450l0,0V33.5z" />
  <path fill="#C8102E" d="M300,100h-33.5l150-100H450L300,100z M150,100L0,0l0,0v22.4L116.5,100H150z M0,300h33.5l150-100H150L0,300z M300,200l150,100v-22.4L333.5,200H300z M247.5,0h-45v120H0v60h202.5v120h45V180H450v-60H247.5V0z" />
</svg>
