<svg xmlns="http://www.w3.org/2000/svg" width="450px" height="300px" viewBox="0 0 450 300">
  <path fill="#012169" d="M0,0h450v300H0V0z" />
  <path fill="#FFFFFF" d="M225,16.8L175.2,50H225v50h-49.8l49.8,33.2V150l0,0h-25.2l-68.6-45.7V150H93.8v-45.7L25.2,150H0v-16.8L49.8,100H0V50h49.8L0,16.8V0h25.2l68.6,45.7V0h37.5v45.7L199.8,0H225l0,0V16.8z M355.7,75.9l-15-10.9l-15.1,10.9l5.8-17.7l-15.1-10.9h18.6l5.8-17.7l5.8,17.7H365l-15,10.9L355.7,75.9z M412.8,113.4l13.4-9.7h-16.6l-5.1-15.8l-5.1,15.8h-16.6l13.4,9.7l-5.1,15.8l13.4-9.7l13.4,9.7L412.8,113.4z M275.5,133.1l15.1-10.9H272l-5.8-17.7l-5.8,17.7h-18.6l15.1,10.9l-5.8,17.7l15.1-10.9l15.1,10.9L275.5,133.1z M351,251.9l16.7-12.2H347l-6.4-19.7l-6.4,19.7h-20.7l16.7,12.2l-6.4,19.7l16.7-12.2l16.7,12.2L351,251.9z" />
  <path fill="#C8102E" d="M350.6,68.9l-10-7.2l-10,7.2l3.8-11.7l-10-7.2h12.3l3.8-11.7l3.8,11.7h12.3l-10,7.2L350.6,68.9z M409.6,112.3l8.3-6h-10.3l-3.2-9.8l-3.2,9.8H391l8.3,6l-3.2,9.8l8.3-6l8.3,6L409.6,112.3z M272.4,132.1l10-7.2H270l-3.8-11.7l-3.8,11.7h-12.3l10,7.2l-3.8,11.7l10-7.2l10,7.2L272.4,132.1z M347.8,250.9l11.6-8.4H345l-4.4-13.7l-4.4,13.7h-14.4l11.6,8.4l-4.4,13.7l11.6-8.4l11.6,8.4L347.8,250.9z M150,50h-16.8l75-50H225L150,50z M75,50L0,0l0,0v11.2L58.2,50H75z M0,150h16.8l75-50H75L0,150z M150,100l75,50v-11.2L166.8,100H150z M123.8,0h-22.5v60H0v30h101.2v60h22.5V90H225V60H123.8V0z" />
</svg>
