<svg xmlns="http://www.w3.org/2000/svg" width="450px" height="300px" viewBox="0 0 450 300">
  <path fill="#D82126" d="M0,0h900v600H0V0z" />
  <path fill="#F8E92E" d="M439.228,193.394L390,0h120l-49.228,193.394c-3.543-0.354-7.136-0.537-10.772-0.537S442.771,193.04,439.228,193.394z M547.487,255.497L900,76.266V0h-30L535.04,234.829C539.925,241.193,544.113,248.119,547.487,255.497z M450,214.286c-47.339,0-85.714,38.376-85.714,85.714s38.376,85.714,85.714,85.714s85.714-38.376,85.714-85.714S497.339,214.286,450,214.286z M900,345v-90l-343.384,34.338c0.346,3.507,0.527,7.063,0.527,10.662s-0.181,7.154-0.527,10.662L900,345z M0,255v90l343.384-34.338c-0.346-3.507-0.527-7.063-0.527-10.662s0.181-7.154,0.527-10.662L0,255z M450,407.143c-3.636,0-7.229-0.183-10.772-0.537L390,600h120l-49.228-193.394C457.229,406.96,453.636,407.143,450,407.143z M547.487,344.503c-3.374,7.378-7.562,14.304-12.447,20.669L870,600h30v-76.266L547.487,344.503z M352.513,255.497c3.374-7.378,7.562-14.304,12.447-20.669L30,0H0v76.266L352.513,255.497z M352.513,344.503L0,523.734V600h30l334.96-234.829C360.075,358.807,355.887,351.881,352.513,344.503z" />
</svg>
