<svg xmlns="http://www.w3.org/2000/svg" width="450px" height="300px" viewBox="0 0 450 300">
  <path fill="#CF142B" d="M0,0h450v300H0V0z" />
  <path fill="#FFFFFF" d="M0,0h225v300H0V0z" />
  <g>
    <path fill="#CF142B" d="M94.444,41.414H71.871c0.171-0.653,0.203-1.341,0.108-2.005c-0.198-1.384-0.89-2.732-1.995-3.837c-1.105-1.105-2.453-1.797-3.837-1.995c-0.664-0.095-1.353-0.063-2.006,0.108V11.112H41.414v22.574c-0.654-0.171-1.342-0.203-2.006-0.108c-1.384,0.198-2.732,0.89-3.837,1.995c-1.105,1.105-1.797,2.453-1.995,3.837c-0.095,0.663-0.063,1.351,0.108,2.005c-0.304,0-22.573,0-22.573,0v22.729h22.573c-0.171,0.654-0.203,1.342-0.108,2.005c0.198,1.384,0.89,2.732,1.995,3.837c1.105,1.105,2.453,1.797,3.837,1.995c0.664,0.095,1.352,0.063,2.006-0.108v22.574H64.14V71.871c0.654,0.171,1.342,0.203,2.006,0.108c1.384-0.198,2.732-0.89,3.837-1.995c1.105-1.105,1.797-2.453,1.995-3.837c0.095-0.664,0.063-1.352-0.108-2.005h22.573V41.414H94.444z" />
    <path fill="#96877D" d="M12.627,42.929v19.698h22.726c0,3.787,3.788,7.575,7.576,7.575v22.727h19.696V70.202c3.788,0,7.576-3.788,7.576-7.575h22.726V42.928H70.201c0-3.787-3.788-7.576-7.576-7.576V12.626H42.929v22.727c-3.788,0-7.576,3.788-7.576,7.576C35.353,42.928,12.627,42.928,12.627,42.929z" />
    <path fill="#CCCCCC" d="M13.385,43.687v18.182h22.726c0,3.787,3.788,7.576,7.576,7.576v22.727h18.181V69.445c3.788,0,7.576-3.79,7.576-7.576H92.17V43.687H69.444c0-3.787-3.788-7.575-7.576-7.575V13.385H43.687v22.727c-3.788,0-7.576,3.788-7.576,7.575H13.385z" />
    <path fill="#96877D" d="M42.268,35.84c1.331,1.331,0.972,3.85-0.804,5.625c-1.775,1.775-4.293,2.135-5.625,0.804c-1.331-1.331-0.972-3.85,0.804-5.625C38.419,34.869,40.937,34.509,42.268,35.84z M69.715,42.269c-1.331,1.331-3.85,0.972-5.625-0.804c-1.775-1.775-2.135-4.293-0.804-5.625c1.331-1.331,3.85-0.972,5.625,0.804C70.687,38.42,71.047,40.938,69.715,42.269z M63.287,69.716c-1.331-1.331-0.972-3.85,0.804-5.625c1.775-1.775,4.293-2.135,5.625-0.804c1.331,1.331,0.972,3.85-0.804,5.625C67.136,70.688,64.618,71.048,63.287,69.716z M35.84,63.288c1.331-1.331,3.85-0.972,5.625,0.804c1.775,1.775,2.135,4.293,0.804,5.624c-1.331,1.331-3.85,0.972-5.625-0.804C34.868,67.137,34.508,64.619,35.84,63.288z" />
    <path fill="#D0D0D0" d="M69.984,65.7l-0.536,0.536l-2.143-1.071l1.072,2.143l-0.536,0.536l-2.143-4.286L69.984,65.7L69.984,65.7z M66.769,68.913l-0.536,0.536l-3.214-3.214l0.536-0.536L66.769,68.913z M65.699,35.572l0.536,0.536l-1.071,2.143l2.143-1.071l0.536,0.536l-4.286,2.143L65.699,35.572L65.699,35.572z M68.912,38.787l0.536,0.536l-3.214,3.214l-0.536-0.536L68.912,38.787z M39.856,69.984l-0.536-0.536l1.071-2.143l-2.143,1.071l-0.536-0.536l4.286-2.143L39.856,69.984L39.856,69.984z M36.643,66.77l-0.536-0.536l3.214-3.214l0.536,0.536L36.643,66.77z M35.571,39.857l0.536-0.536l2.143,1.071l-1.071-2.143l0.536-0.536l2.143,4.286L35.571,39.857L35.571,39.857z M38.786,36.644l0.536-0.536l3.214,3.214L42,39.858L38.786,36.644z" />
    <path fill="none" stroke="#96877D" stroke-width="0.257" d="M52.778,36.868c8.787,0,15.911,7.124,15.911,15.911S61.565,68.69,52.778,68.69s-15.911-7.124-15.911-15.911S43.99,36.868,52.778,36.868z M52.778,40.656c6.695,0,12.123,5.427,12.123,12.123s-5.427,12.123-12.123,12.123s-12.123-5.427-12.123-12.123S46.082,40.656,52.778,40.656z" />
    <path fill="#000000" d="M46.717,64.897c0.991,0.004,0.991,1.511,0,1.515C45.726,66.408,45.726,64.902,46.717,64.897z M58.838,64.897c0.991,0.004,0.991,1.511,0,1.515C57.847,66.408,57.847,64.902,58.838,64.897z M52.275,65.359v0.982h-1.01v0.982h1.01v0.982h1.01v-0.976h1.01V66.34h-1.01v-0.981L52.275,65.359z M37.977,56.7l1.042-0.248c-0.099-0.314-0.066-0.862-0.561-0.742l-0.017-0.072l0.897-0.214c0.06,0.124-0.105,0.069-0.2,0.166c-0.211,0.16,0.022,0.614,0.043,0.823l0.833-0.199c0.271-0.048,0.375-0.14,0.328-0.382c-0.014-0.093-0.058-0.094,0.049-0.113l0.271,1.138c-0.105,0.032-0.066,0.01-0.095-0.077c-0.077-0.254-0.179-0.257-0.465-0.191l-1.712,0.408c-0.32,0.043-0.39,0.213-0.306,0.475l-0.072,0.017l-0.47-1.972l0.576-0.164c0.06,0.108-0.156,0.134-0.228,0.252C37.667,55.853,37.939,56.405,37.977,56.7z M37.306,51.999c0.114-1.741,2.951-1.546,2.843,0.192C40.06,53.962,37.177,53.77,37.306,51.999L37.306,51.999z M37.45,52.045c-0.073,1.185,2.485,1.308,2.556,0.142C40.107,50.976,37.485,50.838,37.45,52.045z M41.397,47.07l-0.259,0.68l-1.519,0.409c-0.038,0.112-0.059,0.172-0.102,0.267c0.468,0.132,1.102,0.59,1.223,0.16c0.044-0.093,0.007-0.118,0.107-0.073l-0.415,1.091l-0.069-0.026c0.12-0.264,0.078-0.411-0.242-0.511c-0.21-0.052-1.785-0.747-1.964-0.687c-0.105,0.03-0.166,0.173-0.202,0.282l-0.069-0.026c0.302-0.612,0.472-2.041,1.412-1.737c0.361,0.145,0.474,0.47,0.413,0.875c0.281-0.088,1.179-0.269,1.383-0.43C41.257,47.25,41.288,46.985,41.397,47.07z M39.4,48.38c0.582-1.057-0.931-1.625-1.059-0.403C38.341,47.977,39.4,48.38,39.4,48.38z M45.198,39.353l0.527,0.684l-0.059,0.038c-0.58-0.585-1.598-0.124-1.587,0.662c-0.012,0.497,0.342,1.072,0.773,1.333c0.53,0.363,1.213,0.147,1.48-0.398c-0.144-0.159-0.502-0.96-0.734-0.898c-0.131,0.006-0.202,0.166-0.253,0.033l0.885-0.574l0.042,0.064c-0.232,0.133-0.193,0.27-0.04,0.5l0.453,0.7c-0.341,0.674-1.256,1.205-1.954,0.949c-1.397-0.433-1.226-2.637,0.266-2.808c0.179-0.03,0.234-0.086,0.138-0.245C45.135,39.394,45.198,39.353,45.198,39.353z M49.635,39.661l-1.02,0.271c-0.009,0.299-0.302,0.963,0.276,0.794l0.019,0.072l-0.829,0.22l-0.019-0.072c0.105-0.049,0.169-0.093,0.193-0.133c0.147-0.212,0.401-2.553,0.469-2.851l0.068-0.018l1.499,1.947c0.214,0.256,0.276,0.358,0.567,0.311l0.019,0.072l-1.039,0.276l-0.019-0.072C50.352,40.355,49.777,39.896,49.635,39.661z M49.542,39.531l-0.73-0.945l-0.175,1.186L49.542,39.531z M54.352,39.517l0.066,0.017l-0.262,0.73l-2.108-0.082l0.003-0.074c0.289,0.03,0.415-0.059,0.407-0.394l0.068-1.757c0.031-0.346-0.087-0.428-0.376-0.423l0.003-0.074l1.233,0.048l-0.003,0.074c-0.362-0.016-0.477,0.052-0.473,0.436c0.034,0.15-0.184,2.03,0.029,2.006C53.522,40.086,54.1,40.211,54.352,39.517z M57.981,40.488l0.059,0.034l-0.453,0.629l-2.003-0.662l0.023-0.071c0.27,0.109,0.415,0.058,0.501-0.266l0.552-1.669c0.126-0.324,0.035-0.435-0.244-0.51l0.023-0.071l1.171,0.387l-0.023,0.071c-0.344-0.116-0.473-0.082-0.576,0.288c-0.009,0.154-0.739,1.899-0.528,1.935C57.026,40.805,57.546,41.085,57.981,40.488z M60.905,42.037l-0.861-0.609c-0.235,0.184-0.933,0.385-0.433,0.72l-0.043,0.061l-0.7-0.496l0.043-0.061c0.105,0.049,0.18,0.071,0.226,0.064c0.257-0.023,2.217-1.327,2.49-1.465l0.057,0.041l-0.535,2.398c-0.06,0.328-0.098,0.441,0.124,0.635l-0.043,0.061l-0.877-0.621l0.043-0.061C60.831,43.032,60.816,42.297,60.905,42.037z M60.945,41.883l0.259-1.166l-1.023,0.625C60.181,41.342,60.946,41.883,60.945,41.883z M64.177,42.479l0.44,0.594l-0.65,2.555l1.262-0.936c0.284-0.19,0.272-0.325,0.09-0.547l0.06-0.044l0.565,0.762l-0.06,0.044c-0.157-0.24-0.296-0.283-0.549-0.073l-1.845,1.368l-0.043-0.058l0.693-2.75l-1.348,0.999c-0.286,0.19-0.272,0.325-0.09,0.547l-0.06,0.044l-0.565-0.762l0.06-0.044c0.158,0.24,0.296,0.283,0.549,0.073l1.522-1.128c0.06-0.268,0.065-0.377-0.092-0.6C64.117,42.523,64.177,42.478,64.177,42.479z M67.612,48.81l-0.592,0.242l-0.025-0.072c0.486-0.188,0.286-0.63,0.147-0.988l-1.962,0.694c-0.328,0.098-0.356,0.23-0.247,0.495l-0.07,0.025l-0.385-1.089l0.07-0.025c0.08,0.275,0.2,0.358,0.504,0.231l1.963-0.694l-0.109-0.309c-0.09-0.327-0.302-0.439-0.621-0.352l-0.025-0.072l0.613-0.183C66.87,46.713,67.613,48.81,67.612,48.81z M65.456,53.642l-0.038-0.726l1.224-0.987c-0.01-0.118-0.016-0.181-0.015-0.285c-0.483,0.068-1.246-0.094-1.183,0.347c-0.003,0.103,0.041,0.111-0.069,0.11l-0.061-1.166l0.074-0.004c-0.003,0.29,0.094,0.408,0.428,0.37c0.213-0.037,1.934-0.037,2.074-0.164c0.084-0.069,0.082-0.225,0.071-0.34l0.074-0.004c-0.029,0.682,0.392,2.058-0.59,2.159c-0.389,0.013-0.624-0.239-0.731-0.634c-0.221,0.194-0.97,0.722-1.091,0.952C65.511,53.421,65.59,53.675,65.456,53.642L65.456,53.642z M66.754,51.637c-0.105,1.202,1.508,1.111,1.132-0.059C67.886,51.578,66.754,51.637,66.754,51.637z M67.501,57.242l-0.241,0.919c-0.06-0.023-0.085,0.006-0.059-0.069c0.02-0.1-0.021-0.269-0.088-0.37c-0.107-0.173-0.9-0.989-1.055-1.166l-0.661-0.173c-0.326-0.102-0.422-0.009-0.483,0.272l-0.072-0.019l0.294-1.119c0.108,0.022,0.063,0.022,0.047,0.112c-0.149,0.42,0.582,0.41,0.935,0.545c0.31-0.142,1.603-0.432,1.749-0.702c0.02-0.023,0.036-0.058,0.049-0.108l0.072,0.019l-0.296,1.127l-0.072-0.019c0.094-0.287-0.048-0.437-0.375-0.296l-0.994,0.327l0.677,0.73c0.191,0.241,0.43,0.277,0.5-0.029C67.429,57.223,67.501,57.243,67.501,57.242z" />
    <g>
      <path fill="#96877D" stroke="#000000" stroke-width="0.1015" d="M61.425,55.095c0.266-0.067,0.705-0.013,0.705-0.013s0.038,0.183-0.077,0.243c0.128,0.074,0.589,0.051,0.589,0.051s-0.179,0.138-0.269,0.192c0.167,0.016,0.371,0.231,0.371,0.231s-0.384,0.064-0.551-0.026c0.102,0.205,0.09,0.384,0.09,0.384s-0.621-0.154-0.846-0.564 M60.385,54.745c-0.151,0.372-1.255-0.32-1.255-0.32s0.487,0.772,1.217,0.858" />
      <path fill="#96877D" stroke="#000000" stroke-width="0.1015" d="M46.59,61.83h12.938l0.999-0.794l-1.665-0.897L56.3,59.268l-1.025-0.564l-1.896,0.102l-1.589,0.846l-2.178,0.256L49.1,60.497l-1.614,0.128l-2.536-0.051l4.227,0.666l-3.484-0.179L46.59,61.83L46.59,61.83z" />
      <path fill="#96877D" stroke="#000000" stroke-width="0.1015" d="M53.56,58.115c-1.62-0.871-2.095,1.275-2.793,1.793c0.942,0.16,1.653-0.724,2.46-1.153c0.612,1.667,1.576,0.564,1.576,0.564s1.006,1.595,2.344,0.871c0.365,0.275,0.769,0.026,0.769,0.026s0.487,0.09,0.589-0.128c0.256,0.09,0.538-0.231,0.538-0.231s0.557,0.006,0.666-0.282c0.826,0.147,1.922-1.691,1.922-1.691l0.333-0.64l0.487-0.102c0,0,0.032-0.32-0.231-0.307c-0.006-0.192-0.173-0.295-0.41-0.256c0.045-0.115-0.128-0.205-0.128-0.205c-0.461,0.115-0.487,1.281-0.487,1.281s-0.807,0.615-1.102,0.769c-0.013-0.666-1.127-1.569-0.897-1.998c0.231-0.429,0.954,0.66,1.589,0.461c0.634-0.199,0.946-1.023,0.974-1.665c-0.179-0.436-0.615-1.153-0.615-1.153l-0.41-0.026l-0.359-0.871c0,0-0.756,0.493-0.743,0.922s0.794,0.794,0.794,0.794s-0.451,0.282-0.871,0.154c-0.038,0.436,0.512,0.352,0.717,0.359c0.102,0.314,0.41,0.487,0.41,0.487s0.192,0.48-0.307,0.436c-0.5-0.045-1.089-1.196-1.793-0.666c-0.749,0.564,0.333,1.589,0.333,1.589s-0.66,0.346-1.05,1.23C56.269,57.129,55.334,57.756,53.56,58.115L53.56,58.115z" />
      <path fill="#96877D" stroke="#000000" stroke-width="0.1015" d="M51.23,55.835c0.666,0.628,0.202,1.671,0.461,1.87c0.275,0.211,0.666-0.102,0.666-0.102c0.698,0.186,1.947-0.205,1.947-0.205c0.55,0.307,0.333-0.146,0.666-0.128c0.295,0.756,1.281,0.615,1.281,0.615s-0.903-0.922-1.46-1.179c-0.429,0.256-1.678,0.295-1.896,0.256c-0.243-0.043-0.09-0.339-0.205-0.512c0.459-0.447,0.096-1.556-0.154-1.973C51.519,53.799,50.302,54.961,51.23,55.835L51.23,55.835z M46.799,53.96c-0.838,0.226-2.292-1.083-2.971-0.58s-0.362,1.739,0.091,2.355c0.443,0.602-0.648,0.82-0.942,1.178c-0.277,0.336,0.091,0.725,0.091,0.725l0.308,0.199l-0.054,0.453l0.163,0.543c0,0,0.149,0.131,0.199-0.036c0.14,0.14,0.015,0.546,0.362,0.598c-0.124-0.26,0.091-0.978,0.091-0.978s0.607,0.045,0.761-0.217c0.154-0.263-0.145-0.833-0.145-0.833h0.181c-0.204-0.14-0.272-0.562-0.272-0.562s0.842-0.267,0.833-0.906s-1.368-1.318-0.87-1.649c0.553-0.367,1.513,0.951,2.337,0.344c0.816-0.601,0.29-0.018,0.29-0.018S47.625,53.737,46.799,53.96L46.799,53.96z" />
      <path fill="#96877D" stroke="#000000" stroke-width="0.1015" d="M51.125,44.986c-1.121-0.468-3.411-0.496-4.689-1.127c-0.56,0.035-0.81,0.477-0.833,0.653c-0.586-0.029-0.983,0.894-0.897,1.076c-1.066-0.432-1.563,1.255-1.217,1.601c-0.91,0.038-0.797,1.201-0.884,1.524c-0.291,0.708,0.065,0.946,0.64,0.692c0.086,0.307-0.035,0.48-0.295,0.538c1.579,1.807,2.471-1.112,3.856-1.102c1.729-0.506,2.408-1.358,2.408-1.358l0.679,0.09L51.125,44.986L51.125,44.986z" />
      <path fill="#96877D" stroke="#000000" stroke-width="0.1015" d="M52.572,42.039c0.913,0,1.653,0.74,1.653,1.653s-0.74,1.653-1.653,1.653s-1.653-0.74-1.653-1.653S51.659,42.039,52.572,42.039z" />
      <path fill="#96877D" stroke="#000000" stroke-width="0.1015" d="M49.665,56.705c-1.025-0.186-2.722-1.249-2.895-2.639c0.954-3.747,5.877-1.79,6.302-4.609c-0.108-1.859,0.225-3.7,1.256-5.256c0.48-0.609,1.102-0.769,1.102-0.769s0.111,0.397-0.051,0.666c0.813-0.09,1.928,0.365,2.69,0.41c0.224,0.455,0.205,0.621,0.154,0.897c-0.051,0.275-0.359,0.205-0.359,0.205c-0.199,0.189-0.438,0.381-0.974,0.282c-0.404,0.307-1.255,0.384-1.255,0.384s1.781,1.877,1.486,2.46c0.372,0.173,0.922,0.999,0.922,0.999s1.217-0.64,1.614-1.23c0.705,0,1.857,0.737,2.434,0.82c0.705,0.57,1.409,1.153,1.409,1.153s-0.839,0.551-1.204-0.179c-0.442,0.038-1.396-1.018-2.716-0.692c-0.038,1.172-1.332,1.998-1.332,1.998s1.208-0.169,1.87,0.231c0.685,0.576,1.691,1.358,1.691,1.358l0.897,1.537c0,0-0.82,0.141-1.127-0.922c-0.307,0.858-0.32-0.532-1.537-1.179c-0.372,0.045-0.557,0.07-0.871-0.179c-0.877,0.237-1.915,0.749-3.151,0.615c-0.877,0.275-1.518,1.006-2.408,1.409c-0.89,0.404-1.153,0.205-1.153,0.205l-0.717,0.026c-0.103,0.432-0.045,1.089-0.436,1.204c0.25,0.269-0.179,1.416-0.615,1.614c0.205,0.737,0.805,0.962,1.435,1.332c0,0,0.557-0.256,0.922,0.077s0.743,1.281,0.743,1.281s-0.76,0.051-0.999-0.051c-0.239-0.103-0.263-0.352-0.538-0.282c-1.736-1.544-2.651-0.93-2.818-1.281C49.263,58.241,49.844,57.301,49.665,56.705L49.665,56.705z" />
      <path fill="#96877D" stroke="#000000" stroke-width="0.1015" d="M45.495,49.827c0.091-0.113,0.725,0.127,0.725,0.127l1.159,0.725l2.355,1.522l0.833,1.214l-1.504-0.489l-2.083-1.794l-1.123-0.725C45.857,50.407,45.404,49.941,45.495,49.827L45.495,49.827z" />
      <path fill="#96877D" stroke="#000000" stroke-width="0.1015" d="M59.425,53.685c-0.813-0.205-2.818,2.229-2.818,2.229l1.512,1.64C58.118,57.554,58.163,54.761,59.425,53.685z" />
      <path fill="#96877D" stroke="#000000" stroke-width="0.1015" d="M49.512,46.895c-0.444,0.568-0.483,1.714,0.094,2.177c0.054,0.696,0.646,2.099,1.11,2.23c0.508,0.144,2.536,0.615,3.331,0.487c-0.152,1.287,0.858,2.32,1.793,2.998c-0.007,0.116-0.008,0.257,0.1,0.399c0.105,0.138,0.596,0.164,0.618,0.087c0.218,0.306,1.274,0.441,1.35,0.304c0.074-0.133-1.553-1.265-1.914-1.611c-0.307-0.572-0.887-1.847-1.025-2.87c-0.799-0.95-2.17-0.931-2.17-0.931l0.043-1.862l0.077-2.101l-0.743-0.384c0,0,0.15-0.068,0.231-0.154c0.18,0.078,0.52-0.285,0.564-0.387c0.171,0.061,0.326,0.06,0.356-0.032c0.026-0.081,0.057-0.44,0.119-0.625c0.561-0.494-0.082-1.54-0.939-1.557c-0.848-0.017-1.038,1.012-1.022,1.09c0.08,0.323,0.062,0.486,0,0.564c-0.064,0.08-0.359,0.256-0.359,0.256s-0.474-0.224-1.05,0s-1.223,0.525-1.255,0.897c-0.263,0.038-0.692,0.378-0.769,0.666c-0.231-0.045-0.532,0.147-1.025,0.948c-0.884,0.391-0.935,2.28-0.935,2.28s-0.239,0.347-0.25,0.532c-0.011,0.184,0.083,0.352,0.199,0.32c0.013,0.122,0.173,0.231,0.243,0.192c0.026,0.122,0.201,0.19,0.307,0.173c0.01,0.083,0.351,0.062,0.378-0.013c0.03-0.083-0.034-0.498,0.006-0.532c0.037-0.03,0.32,0.186,0.397,0.128c0.077-0.058-0.015-0.242-0.058-0.314c-0.038-0.064-0.282-0.135-0.339-0.436s0.154-0.717,0.154-0.717s0.961-0.756,1.07-1.403C48.922,47.766,49.305,47.133,49.512,46.895L49.512,46.895z" />
      <path fill="#96877D" stroke="#000000" stroke-width="0.1015" d="M47.84,44.185c0.219-0.536,1.012-0.487,1.012-0.487s0.283-0.746,1.352-0.301c0.402-0.311,1.46,0.135,1.46,0.135s0.396-0.528,0.916-0.468c0.962,0.112,1.123,0.994,1.063,1.147c-0.527,0.133-1.439-0.428-2.133-0.269c-0.405,0.229-1.062,0.471-1.307,0.801C49.561,44.81,48.876,44.151,47.84,44.185L47.84,44.185z" />
      <path fill="#96877D" stroke="#000000" stroke-width="0.1015" d="M49.845,45.076c0.24-0.147,0.829-0.406,1.23-0.09c0.42,0.452,1.063,0.871,1.063,0.871l0.73,0.307l0.333,0.205l-0.218,3.344c-0.676-0.692-1.309-0.813-1.793-1.627c-0.259-0.349-0.061-1.188-0.512-1.742C50.226,45.79,49.745,45.415,49.845,45.076L49.845,45.076z" />
      <path fill="#96877D" stroke="#000000" stroke-width="0.1015" d="M51.6,46.041c0,0,0.383-0.072,0.489,0.018c0.134,0.045,0.263,0.084,0.299,0.199c0.145,0.043,0.245,0.118,0.245,0.226c0.136,0.036,0.19,0.281,0.19,0.281l-0.127,0.19c0,0-0.145-0.136-0.163-0.281c-0.092-0.045-0.294-0.093-0.344-0.226c-0.159-0.016-0.26-0.097-0.29-0.236C51.752,46.247,51.6,46.041,51.6,46.041L51.6,46.041z" />
      <path fill="#96877D" stroke="#000000" stroke-width="0.1015" d="M54.84,43.859c-0.218-0.243-0.602-0.064-0.602-0.064l-1.025,1.768l-0.448,0.372l-0.038,1.384l0.371,1.294L52.97,49.61c0,0,0.516-0.484,0.576-0.756c0.058-0.259-0.192-1.102-0.192-1.102s-0.307-0.525,0.064-1.499C53.79,45.281,54.635,44.473,54.84,43.859L54.84,43.859z" />
      <path fill="#96877D" stroke="#000000" stroke-width="0.1015" d="M57.37,45.434c0,0-1.6,2.287-4.22,3.1c-0.724,0.173-0.461-1.691-0.461-1.691l-0.179,0.051c0,0-0.404,1.826,0.564,1.845c2.633-0.519,4.608-3.29,4.608-3.29l-0.315-0.014L57.37,45.434z M58.455,58.58c0,0-0.243,0.179-0.564,0c-0.167-0.384-0.615-0.41-0.615-0.41s-0.289-0.83-0.743-0.589c-0.07-0.429-0.564-0.205-0.564-0.205s-0.013-0.621-0.589-0.538c0.192-0.711-0.794-0.666-0.794-0.666s-0.032-0.801-1.486-0.64c3.132-1.403,5.611,2.203,5.611,2.203 M59.94,58.885c0,0,0.724,0.813,1.102,0.82c0.378,0.006,0.41-0.794,0.41-0.794s0.122,0.346,0.307,0.256c-0.019,0.243,0.231,0.307,0.231,0.307s-0.653,1.518-2.511,0.077 M54.275,59.195l-0.256,1.05c0,0-0.327,0.295-0.231,0.359c0.096,0.064,0.615-0.102,0.615-0.102s0.807-0.096,1.05-0.333c0.167,0.378,0.538,0.41,0.538,0.41s0.026-0.16-0.026-0.256c0.179,0.032,0.333-0.026,0.333-0.026s0.102-0.295-0.128-0.41c0.026-0.218,0.135-0.41-0.256-0.384c-0.288,0.307-0.999,0.66-1.179,0.538c-0.179-0.122,0.705-0.512,0.461-1.025" />
    </g>
  </g>
</svg>
