<svg xmlns="http://www.w3.org/2000/svg" width="450px" height="300px" viewBox="0 0 450 300">
  <path fill="#006400" d="M0,0h450v300H0V0z" />
  <path fill="#FFD200" d="M0,42.757h450v214.369H0V42.757z" />
  <path fill="#D40000" d="M0,85.631h450v128.621H0V85.631z" />
  <path fill="#000000" d="M0,128.505h450v42.874H0V128.505z" />
  <path fill="#000000" d="M211.982,149.942L12.06,0H0v300h11.904L211.982,149.942z" />
  <path fill="#FFFFFF" d="M0,0v300h0.156l199.922-149.942L0,0z" />
  <path fill="#D40000" d="M100.603,149.873l39.628-28.792H91.247L76.11,74.494l-15.137,46.587H11.989l39.629,28.792L36.481,196.46l39.629-28.793l39.63,28.793L100.603,149.873z" />
  <path fill="#FFD200" d="M72.662,102.71c-1.417-1.623-3.514-2.484-5.663-2.325c-2.148,0.158-4.097,1.319-5.26,3.132c-1.234-0.03-2.467,0.061-3.683,0.27c-1.137,0.196-2.124,0.897-2.682,1.908c-0.558,1.01-0.627,2.219-0.187,3.286l4.156-0.246c1.703,0.961,2.777,2.744,2.833,4.698l0.468,16.515c-0.803,1.659-1.209,3.482-1.185,5.325c0.028,2.219,0.204,4.433,0.528,6.628c0.324,2.205-0.4,4.434-1.96,6.026c-2.416,2.468-4.518,5.226-6.255,8.21c-1.334,2.293-1.099,5.173,0.589,7.219l4.735,18.322h35.541l1.972-15.546c0.837-6.6,4.601-12.472,10.247-15.989l1.399,0.397c0.94,0.266,1.936-0.169,2.379-1.04c0.442-0.871,0.206-1.933-0.563-2.535l-33.621-26.29l-0.884-11.065C75.364,107.057,74.345,104.638,72.662,102.71" />
  <path fill="#000000" d="M110.353,146.605l-33.46-26.164c-0.004-0.047-0.867-10.865-0.872-10.907h0.001c-0.217-2.612-1.278-5.138-3.017-7.124l-0.003-0.002c-0.221-0.252-0.458-0.489-0.704-0.704l0,0v-0.001c-1.465-1.274-3.41-1.932-5.373-1.772l-0.004-0.001c-2.157,0.169-4.178,1.325-5.416,3.127c-0.136-0.001-0.754,0.004-0.916,0.009v-0.002c-0.863,0.031-1.749,0.123-2.61,0.272l-0.018,0.004v-0.001h-0.002l0,0c-0.343,0.06-0.704,0.173-1.019,0.316l0,0c-0.824,0.372-1.518,1.008-1.965,1.818l0,0c0,0-0.19,0.379-0.25,0.538l0,0c-0.061,0.165-0.157,0.506-0.157,0.506c-0.212,0.867-0.149,1.79,0.199,2.633l0,0l0.448,0.284l4.018-0.238c1.488,0.88,2.441,2.492,2.489,4.245l0.465,16.408c-0.133,0.284-0.255,0.57-0.365,0.854l0,0c-0.096,0.243-0.18,0.493-0.258,0.742l0,0c0,0.002-0.001,0.003-0.002,0.005l0,0c-0.383,1.232-0.574,2.528-0.557,3.823l0,0c0,0,0,0,0,0.001l0,0c0.002,0.083,0.003,0.168,0.004,0.244l0,0c0.039,2.179,0.213,4.304,0.533,6.466l0,0c0.296,2.035-0.377,4.134-1.834,5.617l-0.001-0.001c-0.704,0.744-1.167,1.221-1.981,2.171h-0.002l0,0c-1.622,1.905-3.076,3.958-4.343,6.134h-0.002l0,0c-1.393,2.371-1.192,5.461,0.565,7.644l4.714,18.24l0.44,0.342H94.64l0.451-0.399c0,0,1.975-15.558,1.977-15.568h-0.001c0.798-6.322,4.429-12.086,9.868-15.528l1.195,0.339c0,0,0.341,0.078,0.489,0.089c0,0,0.329,0.007,0.486-0.011l0,0c0.002,0,0.005-0.001,0.005-0.001c0.806-0.098,1.546-0.589,1.933-1.351c0,0,0.136-0.308,0.181-0.47c0,0-0.042-0.012,0,0c0.046-0.158,0.072-0.32,0.084-0.474c0,0-0.008-0.001,0,0v-0.001C111.368,147.948,111.027,147.133,110.353,146.605z M61.019,109.48c-0.121-0.13-0.259-0.246-0.392-0.365l2.739-0.163l-0.054-0.913l-3.995,0.237l0,0l-3.805,0.226c-0.175-0.578-0.201-1.187-0.059-1.767l0,0c0.033-0.134,0.075-0.267,0.125-0.399h0.001c0.052-0.136,0.11-0.264,0.173-0.382h0.001l0.023-0.043l0,0c0.35-0.634,0.895-1.132,1.542-1.426l0,0c0.263-0.119,0.514-0.198,0.799-0.248l0,0l0.018-0.004l0,0c1.136-0.196,2.316-0.285,3.473-0.264l0,0c0.032,0,0.078,0.001,0.123,0.002l0.394-0.211c1.08-1.683,2.89-2.767,4.866-2.918l0,0c1.729-0.14,3.424,0.426,4.71,1.547l0,0c0.221,0.192,0.429,0.4,0.62,0.619l0,0c1.61,1.848,2.591,4.159,2.789,6.596h-0.001c0.004,0.019,0.864,10.815,0.867,10.842l-12.891,8.809l-0.449-15.839C62.592,111.934,62.004,110.538,61.019,109.48z M55.376,162.162c0.495,1.179,1.286,2.214,2.241,3.068h-2.299l-0.476-1.84L55.376,162.162z M55.554,166.143h5.612l2.971,8.682v6.395h-4.686L55.554,166.143z M94.239,181.22h-29.19v-6.013h29.953L94.239,181.22z M66.188,171.833l2.503,2.461h-3.772l-0.31-0.907L66.188,171.833z M72.3,171.833l2.503,2.461h-5.005L72.3,171.833z M78.411,171.833l2.503,2.461h-5.005L78.411,171.833z M84.523,171.833l2.503,2.461h-5.005L84.523,171.833z M90.635,171.833l2.503,2.461h-5.005L90.635,171.833z M64.593,174.751L64.593,174.751L64.593,174.751L64.593,174.751z M94.244,174.294l0.998-0.982l-0.125,0.982H94.244z M95.427,171.854l-1.736,1.708l-3.056-3.005l-3.056,3.005l-3.056-3.005l-3.056,3.005l-3.056-3.005l-3.055,3.005l-3.056-3.005l-3.056,3.005l-3.056-3.005l-1.907,1.875l-0.859-2.509l2.77-2.724c0,0,3.051,3.009,3.052,3.009l0,0l3.056-3.005l3.056,3.005l0,0l0,0l3.055-3.005l3.056,3.005l0,0l0,0l3.056-3.005l3.056,3.005l3.056-3.005l3.056,3.005l2.223-2.186L95.427,171.854z M96.099,166.563l-2.408,2.368l-2.835-2.788h5.296L96.099,166.563z M87.579,168.931l-2.835-2.788h5.67L87.579,168.931z M81.467,168.931l-2.835-2.788h5.67L81.467,168.931z M75.356,168.931l-2.835-2.788h5.67L75.356,168.931z M69.245,168.93l-2.826-2.787h5.66L69.245,168.93z M63.095,168.967l-0.966-2.824h3.838L63.095,168.967z M97.565,160.606c-0.342,0.864-0.634,1.76-0.869,2.671l0,0c-0.164,0.637-0.292,1.292-0.401,1.954H58.76c0.536-1.04,1.104-2.334,1.499-3.465c0.265,0.689,0.504,1.386,0.708,2.09h-0.001c0.145,0.503,0.221,0.794,0.338,1.293l0.904-0.111c-0.164-3.094,1.565-5.998,4.291-7.347l0,0l0.052-0.026l-0.002-0.005l0.003,0.006c1.848-0.905,3.716-1.761,5.594-2.59h28.576C99.416,156.758,98.351,158.619,97.565,160.606z M101.472,154.163H74.225c0.855-0.365,1.769-0.741,2.614-1.084l0,0l0.011-0.004v-0.001l0.007-0.001l0,0c1.086-0.439,2.143-1.054,3.053-1.773v-0.001v0.001c0.85-0.671,1.603-1.451,2.25-2.314c0.318,0.093,0.623,0.168,0.963,0.245v-0.002v0.002c0.254,0.057,0.772,0.158,0.772,0.158c1.209,0.222,2.435,0.331,3.656,0.324l0,0c0.175-0.001,0.359-0.011,0.548-0.03l0,0c0.309-0.031,0.612-0.086,0.904-0.163c1.566-0.412,2.897-1.468,3.662-2.93l13.111,3.72C104.167,151.413,102.726,152.712,101.472,154.163z M91.77,146.335c-0.782,1.373-2.206,2.29-3.762,2.442c0,0,0,0.002,0,0c0,0-0.299,0.023-0.461,0.023l0,0c-1.646,0.007-3.257-0.189-4.842-0.611c0.763-1.201,1.321-2.538,1.641-3.962L91.77,146.335z M106.859,150.142l-0.001-0.001l0,0L106.859,150.142L106.859,150.142z M110.233,149.284l-0.005,0.011l0,0c-0.296,0.578-0.902,0.907-1.53,0.859c-0.233,0.001-1.471-0.394-1.717-0.451l0,0l-29.953-8.498l-0.011,0.037l0.01-0.037c-1.744-0.491-3.208-1.691-4.044-3.28c-0.005,0.003,0,0,0,0c-0.839-1.595-0.989-3.463-0.421-5.16l0.009-0.029l-0.859-0.299c-0.009,0.024-0.019,0.053-0.019,0.053c-0.635,1.913-0.469,4.049,0.48,5.85l0,0c0.002,0.003,0.003,0.006,0.005,0.009l0,0l0,0l0,0c0.132,0.248,0.286,0.505,0.443,0.735l-0.002,0.001c0.159,0.232,0.343,0.467,0.529,0.683l0,0c0.949,1.097,2.204,1.906,3.62,2.31v0.001l6.703,1.902c-0.814,3.716-3.455,6.847-6.955,8.248l0.001,0.001c0,0-1.964,0.801-2.952,1.224l0,0c-2.492,1.063-4.952,2.19-7.378,3.378l-0.092,0.043c-2.279,1.125-3.976,3.273-4.559,5.746c-0.264-0.797-0.563-1.58-0.899-2.344l0,0l-0.853,0.05l0,0c-0.358,1.161-0.791,2.294-1.295,3.391c-0.663-5.597,2.366-11.115,7.359-13.573l0,0c0,0,0.06-0.03,0.061-0.031v-0.001c2.94-1.476,4.759-4.681,4.458-8.017c-0.089-1.012,0.455-1.971,1.35-2.409l-0.407-0.817c0,0-0.357,0.202-0.51,0.316l-0.001-0.001c-0.003,0.002-0.006,0.005-0.009,0.007l0,0c-0.919,0.687-1.439,1.813-1.337,2.982c0.267,2.976-1.347,5.822-3.967,7.131v-0.001c-0.007,0.003-0.045,0.023-0.045,0.023c-0.817,0.408-1.583,0.89-2.293,1.43l0,0c-0.006,0.005-0.012,0.009-0.018,0.013l0,0c-3.997,3.048-6.158,8.069-5.535,13.155c-0.807-0.885-1.412-1.946-1.746-3.096l-0.858-0.064l-0.724,1.667c-1.157-1.838-1.194-4.213-0.095-6.071l-0.002-0.001c1.233-2.117,2.657-4.125,4.25-5.998l-0.001-0.001c0.302-0.354,0.949-1.073,0.949-1.073c0.342-0.374,0.992-1.052,0.991-1.05c1.42-1.45,2.189-3.405,2.164-5.402l0,0c-0.004-0.324-0.03-0.653-0.078-0.983l0,0c-0.265-1.783-0.432-3.628-0.498-5.438c-0.103-1.935,0.04-3.618,0.726-5.386h-0.001c0.073-0.189,0.152-0.373,0.233-0.554l0.002,0.003l13.527-9.244l33.359,26.085c0.509,0.396,0.716,1.068,0.552,1.67h0.001C110.32,149.089,110.282,149.187,110.233,149.284z M65.703,107.696c0.408,0.407,0.971,0.661,1.591,0.663h0.001c0.627,0.003,1.2-0.253,1.613-0.667l0,0c0.407-0.408,0.661-0.971,0.663-1.591V106.1c0-0.001,0-0.008,0-0.009l0,0c0-0.625-0.255-1.193-0.666-1.604l0,0c-0.408-0.407-0.971-0.661-1.591-0.663h-0.001c-0.627-0.003-1.2,0.253-1.613,0.667l0,0c-0.407,0.408-0.661,0.971-0.663,1.591v0.001c0,0.003,0,0.009,0,0.013l0,0C65.037,106.718,65.292,107.285,65.703,107.696L65.703,107.696z M65.949,106.091c0.043-1.787,2.668-1.786,2.709,0.001l0,0C68.615,107.879,65.99,107.878,65.949,106.091z M71.714,139.687L71.714,139.687L71.714,139.687L71.714,139.687z M79.309,160.178c-0.001-1.075-0.438-2.049-1.142-2.753c0,0-0.002,0.002,0,0h-0.002c-2.383-2.434-6.671-0.691-6.646,2.756c-0.025,3.45,4.267,5.19,6.651,2.753c0,0-0.018-0.018,0,0v-0.002C78.874,162.228,79.311,161.251,79.309,160.178L79.309,160.178z M78.436,160.182h-0.04c0.001,0.821-0.333,1.569-0.871,2.108l-0.001-0.001c-1.805,1.868-5.131,0.526-5.092-2.108c-0.038-2.631,3.284-3.975,5.091-2.111l-0.001,0.001c0.54,0.54,0.876,1.288,0.875,2.111H78.436z M91.849,157.425h-0.002c-2.384-2.434-6.672-0.692-6.647,2.756c-0.025,3.45,4.268,5.19,6.651,2.753v-0.002c0.703-0.704,1.14-1.678,1.139-2.751h-0.02h0.02C92.991,159.106,92.554,158.129,91.849,157.425L91.849,157.425z M91.207,162.29L91.207,162.29c-1.806,1.867-5.132,0.525-5.093-2.109c-0.039-2.631,3.285-3.975,5.091-2.111l-0.001,0.001C92.352,159.128,92.353,161.231,91.207,162.29z" />
</svg>
