<svg xmlns="http://www.w3.org/2000/svg" width="450px" height="300px" viewBox="0 0 450 300">
  <path fill="#C8102E" d="M0,0h450v300H0V0z" />
  <path fill="#43B02A" d="M0,0l225,150L0,300V0z M450,0L225,150l225,150V0z" />
  <path fill="#FFFFFF" d="M225,73.5c-19.659,0-37.581,7.422-51.131,19.609L34.205,0H0v22.804l152.81,101.873c-2.781,7.928-4.31,16.445-4.31,25.323c0,8.878,1.529,17.395,4.31,25.323L0,277.196V300h34.205l139.664-93.109C187.419,219.078,205.341,226.5,225,226.5s37.581-7.422,51.131-19.609L415.795,300H450v-22.804L297.19,175.323c2.781-7.928,4.31-16.445,4.31-25.323c0-8.878-1.529-17.395-4.31-25.323L450,22.804V0h-34.205L276.131,93.109C262.581,80.922,244.659,73.5,225,73.5z" />
  <path fill="#C8102E" stroke="#43B02A" stroke-width="1.62" stroke-miterlimit="40" d="M225,94.02l4.73,8.19h9.454l-4.725,8.19l4.725,8.19h-9.454l-4.73,8.19l-4.73-8.19h-9.454l4.725-8.19l-4.725-8.19h9.455L225,94.02z M273.48,177.99l-9.457,0.001l-4.727,8.188l-4.73-8.187l-9.455-0.003l4.727-8.188l-4.728-8.191l9.457-0.001l4.727-8.188l4.73,8.187l9.455,0.003l-4.727,8.188L273.48,177.99z M176.52,177.99l4.728-8.191l-4.727-8.188l9.455-0.003l4.73-8.187l4.727,8.188l9.457,0.001l-4.728,8.191l4.727,8.188l-9.455,0.003l-4.73,8.187l-4.727-8.188L176.52,177.99z" />
</svg>
