<svg xmlns="http://www.w3.org/2000/svg" width="450px" height="300px" viewBox="0 0 450 300">
  <path fill="#C6363C" d="M0,0h450v250H0V0z" />
  <path fill="#0C4076" d="M0,100h450v150H0V100z" />
  <path fill="#FFFFFF" d="M0,200h450v100H0V200z" />
  <g>
    <g>
      <path fill="#EDB92E" stroke="#21231E" stroke-width="0.4" d="M200,71.3c0.6-1.4,0.1-3.2-0.1-3.7c-0.1-0.2,0.2-0.7,0.3-0.9c4.3-6,4.3-6.5,1.4-8.8c-2.6-2-8.6-4-12.9-5.3c-0.9-0.7-1.5-1.6-2.3-2.3c8.2,0.6,17.1,3.9,21.6,7.8c2.4,2-0.5,6.2-4.1,12.5C201.9,72.1,200.8,72.8,200,71.3L200,71.3z M121.4,71.3c-0.6-1.4-0.1-3.2,0.1-3.7c0.1-0.2-0.2-0.7-0.3-0.9c-4.3-6-4.3-6.5-1.4-8.8c2.7-2,8.6-4,12.9-5.3c0.9-0.7,1.5-1.6,2.3-2.3c-8.2,0.6-17.1,3.9-21.6,7.8c-2.4,2,0.5,6.2,4.1,12.5C119.6,72.1,120.6,72.8,121.4,71.3L121.4,71.3z" />
      <path fill="#EDB92E" stroke="#21231E" stroke-width="0.4" d="M201.3,71.7c0.2-0.5,0.3-1.1,0.4-1.5c0.2-0.9,0.1-1.8-0.2-2.7c1-1.4,2.1-2.9,2.9-4.4c0.6-1.1,1-2.2,0.7-3.5c-0.4-1.3-1.5-2.2-2.5-3c-1.2-0.9-2.8-1.8-4.5-2.4c-3.7-1.5-6.6-2.3-8.8-2.3l1.4,1.3c4,1.3,8.7,3,11,4.7c2.9,2.2,2.9,2.8-1.4,8.8c-0.1,0.2-0.4,0.7-0.3,0.9c0.2,0.4,0.6,2.4,0,3.8C200.2,72,200.8,71.7,201.3,71.7L201.3,71.7z M194.1,88.3c1.1-2.2,2.2-4.3,3.7-6.1c-3.9,2.9-5.9,2.4-6.2-1.3c-0.2-0.1-0.5-0.1-0.8-0.1c-3,4.6-5.8,3.9-8.6-1.9c-3.8,6-7.1,5.9-9.6-0.4c-4.4,5.5-8.1,5.5-11.1,0.1H160c-3,5.4-6.7,5.4-11.1-0.1c-2.6,6.3-5.8,6.4-9.6,0.4c-2.8,5.8-5.7,6.5-8.6,1.9c-0.3,0-0.6,0-0.8,0.1c-0.3,3.7-2.3,4.2-6.2,1.3c1.5,1.8,2.6,4,3.7,6.1c11.2-0.5,22.3-1,33.4-1.6C171.8,87.3,183,87.8,194.1,88.3L194.1,88.3z M120.1,71.7c-0.2-0.5-0.3-1.1-0.4-1.5c-0.2-0.9-0.1-1.8,0.2-2.7c-1-1.4-2.1-2.9-2.9-4.4c-0.6-1.1-1-2.2-0.7-3.5c0.4-1.3,1.5-2.2,2.5-3c1.2-0.9,2.8-1.8,4.5-2.4c3.7-1.5,6.6-2.3,8.8-2.3l-1.4,1.3c-4,1.3-8.7,3-11,4.7c-2.9,2.2-2.9,2.8,1.4,8.8c0.1,0.2,0.4,0.7,0.3,0.9c-0.2,0.4-0.6,2.4,0.1,3.8C121.2,72,120.7,71.7,120.1,71.7L120.1,71.7z" />
      <path fill="#EDB92E" stroke="#21231E" stroke-width="0.4" stroke-linejoin="round" d="M198.7,79.3l-1.2-0.2c-2.3,5.7-4.4,5.8-4.8,0.4c0.5-0.2,0.3-1.1,0.9-0.7c0.3,0.2,0.7-0.3,0.4-0.7c-0.7-0.5-1.2-0.4-1.8,0.1c-0.3-0.9-0.9-1.3-1.8-0.9c-0.4,0.2-0.2,0.8,0.1,0.8c0.6-0.1,0.3,0.5,0.5,0.9c-4.1,5.4-6.3,4.8-5.7-2.3c-1-0.2-2.1-0.4-3.2-0.8c-3.8,7.6-6.5,8-8.7,1.1c0.5-0.3,0.3-1.2,1-0.9c0.4,0.2,0.7-0.5,0.4-0.8c-0.8-0.7-1.7-0.4-2.3,0.4c-0.5-0.9-1.3-1.3-2.2-0.7c-0.4,0.2-0.1,1,0.3,0.8c0.8-0.2,0.4,0.8,1,1.2c-1.7,6.4-10.2,6.9-8.8-2.7c-0.8,0-1.5,0.1-2.2,0.1s-1.4-0.1-2.2-0.1c1.4,9.6-7.1,9.1-8.8,2.7c0.6-0.3,0.2-1.4,1-1.2c0.4,0.1,0.6-0.6,0.3-0.8c-0.9-0.6-1.7-0.2-2.2,0.7c-0.6-0.9-1.4-1.1-2.3-0.4c-0.3,0.3,0,1,0.4,0.8c0.7-0.3,0.5,0.6,1,0.9c-2.2,6.9-4.9,6.5-8.7-1.1c-1,0.4-2.2,0.6-3.2,0.8c0.5,7.1-1.6,7.7-5.7,2.3c0.2-0.4-0.1-1,0.5-0.9c0.4,0,0.5-0.6,0.1-0.8c-0.8-0.4-1.5,0-1.8,0.9c-0.6-0.5-1.2-0.6-1.8-0.1c-0.3,0.3,0.1,0.8,0.4,0.7c0.6-0.4,0.4,0.5,0.9,0.7c-0.4,5.4-2.5,5.3-4.8-0.4l-1.2,0.2c0,1.3,0.4,2.8,1.3,3.8c3.5,4.4,6.1,3.4,6.2-1.5c4.6,5.4,8,4.7,8.7-1c3.8,7.1,10,3.7,10.2-0.6c1.7,6.3,11.1,6.2,11.7-1c0.6,7.2,10,7.3,11.7,1c0.1,4.3,6.3,7.8,10.2,0.6c0.6,5.7,4.1,6.3,8.7,1c0.1,5,2.7,6,6.2,1.5C198.3,82.1,198.7,80.7,198.7,79.3L198.7,79.3z M165.3,45.1l1.1,2.8c10.9-0.2,17.4,1.4,19,4.6c1.4,2.6-1,6.9-4.5,11.8c-0.4,0.6-0.4,0.5,0,1c0.6,0.7,1.2,1.9,0.8,3c2.1,1.2,4.7,1.4,6.9,0.5c0.4-1,1.2-1.4,1.8-1.9c0.1-0.1,0.6-0.3,0.6-0.5c1.2-3.7,2.3-7.2,3.3-10.3C197.6,46,169.6,45.1,165.3,45.1L165.3,45.1z M156.1,45.1c0,0-1.2,2.5-1.1,2.8c-10.9-0.2-17.4,1.4-19,4.6c-1.4,2.6,1,6.9,4.5,11.8c0.4,0.6,0.4,0.5,0,1c-0.6,0.7-1.2,1.9-0.8,3c-2.1,1.2-4.7,1.4-6.9,0.5c-0.4-1-1.2-1.4-1.8-1.9c-0.1-0.1-0.6-0.3-0.6-0.5c-1.2-3.7-2.3-7.2-3.3-10.3C123.8,46,151.8,45.1,156.1,45.1L156.1,45.1z M192,98.7c-9.8-0.3-52.8-0.3-62.6,0l-2.2-10.2c17-1.8,47-2.1,66.9,0L192,98.7z" />
      <path fill="#FFFFFF" stroke="#21231E" stroke-width="0.4" d="M153.6,94.7c0,0.6-0.5,1-1,1c-0.6,0-1-0.5-1-1c0-0.6,0.5-1.1,1-1.1S153.6,94.1,153.6,94.7z M136.5,94.5c-0.6,0-1,0.5-1,1s0.5,1,1,1c0.6,0,1-0.5,1-1S137.1,94.5,136.5,94.5z M137,90.7c0-0.6-0.5-1.1-1-1.1c-0.6,0-1,0.5-1,1.1s0.5,1,1,1S137,91.3,137,90.7z M152.5,91.1c0.6,0,1-0.5,1-1.1s-0.5-1-1-1s-1,0.5-1,1C151.5,90.6,151.9,91.1,152.5,91.1z M168.9,93.6c-0.6,0-1.1,0.5-1.1,1.1s0.5,1,1.1,1s1-0.5,1-1C169.9,94.1,169.4,93.6,168.9,93.6z M184.9,94.5c-0.6,0-1,0.5-1,1s0.5,1,1,1c0.6,0,1-0.5,1-1S185.5,94.5,184.9,94.5z M185.5,89.6c-0.6,0-1,0.5-1,1.1s0.5,1,1,1c0.6,0,1-0.5,1-1C186.6,90.1,186.1,89.6,185.5,89.6z M168.9,89c-0.6,0-1,0.5-1,1c0,0.6,0.5,1.1,1,1.1c0.6,0,1-0.5,1-1.1S169.5,89,168.9,89z" />
      <path fill="#EDB92E" stroke="#21231E" stroke-width="0.4" stroke-linejoin="round" d="M156.3,45.4c-1.2-0.7-1.4,0.4-1.4,1.6c0.1,4.3,0.9,8.5-0.2,13.8c-0.5,2.1-1.2,3.3-0.5,3.7c1.9,1,2.7,2,2.4,2.5c0.6,1.1,1.9,0.8,4.1,0.5c2.1,0.3,3.5,0.5,4.1-0.5c-0.3-0.5,0.6-1.5,2.4-2.5c0.7-0.4,0-1.6-0.5-3.7c-1.2-5.3-0.3-9.4-0.2-13.8c0-1.2-0.2-2.3-1.4-1.6C162.7,46.9,158.7,46.9,156.3,45.4L156.3,45.4z M148.2,68c1.1-0.1,0.9,1.9,0.6,2.4c-0.3,0.6-0.6,0.6-0.9,0.1C147.6,70,147.1,68.1,148.2,68L148.2,68z M126.9,70.8c1.1-0.3,1.3,1.7,1.2,2.2c-0.1,0.6-0.4,0.7-0.9,0.3C126.9,72.9,125.9,71.2,126.9,70.8L126.9,70.8z M173.2,68c-1.1-0.1-0.9,1.9-0.6,2.4c0.3,0.6,0.6,0.6,0.9,0.1C173.8,70,174.3,68.1,173.2,68L173.2,68z M194.5,70.8c-1.1-0.3-1.3,1.7-1.2,2.2c0.1,0.6,0.4,0.7,0.9,0.3C194.6,72.9,195.6,71.2,194.5,70.8L194.5,70.8z" />
      <path fill="#FFFFFF" stroke="#21231E" stroke-width="0.4" d="M148.3,69.1c2.6-0.2,2,4.5,1.5,5.6c-0.7,1.4-1.3,1.4-2.2,0.2C146.9,73.8,145.6,69.3,148.3,69.1L148.3,69.1z M127.3,71.9c2.5-0.8,3,3.9,2.8,5.1c-0.3,1.5-0.9,1.7-2.1,0.7C127.1,76.8,124.7,72.7,127.3,71.9L127.3,71.9z M173.1,69.1c-2.6-0.2-2,4.5-1.5,5.6c0.7,1.4,1.3,1.4,2.2,0.2C174.5,73.8,175.8,69.2,173.1,69.1z M194.1,71.9c-2.5-0.8-3,3.9-2.8,5.1c0.3,1.5,0.9,1.7,2.1,0.7C194.4,76.8,196.7,72.7,194.1,71.9L194.1,71.9z" />
      <path fill="#FFFFFF" stroke="#21231E" stroke-width="0.4" d="M129.2,50.5c0,1.1-0.9,2-2,2c-1.1,0-2-0.9-2-2s0.9-2,2-2C128.3,48.5,129.2,49.4,129.2,50.5z M194.2,48.5c-1.1,0-2,0.9-2,2s0.9,2,2,2s2-0.9,2-2S195.3,48.5,194.2,48.5z M190.2,47.2c-1.1,0-2,0.9-2,2s0.9,2,2,2s2-0.9,2-2C192.3,48.1,191.4,47.2,190.2,47.2z M131.2,47.2c-1.1,0-2,0.9-2,2s0.9,2,2,2s2-0.9,2-2C133.2,48.1,132.3,47.2,131.2,47.2z" />
      <path fill="#EDB92E" stroke="#21231E" stroke-width="0.4" d="M127.1,89.6c-1.6,0.2-1.9-1.8,0-1.9c25.3-3.1,56-1.2,67.2,0c1.9,0.2,1.6,2.1,0,1.9C177.5,87.7,148.3,87,127.1,89.6z M158.2,66.6c-0.9-1.7-1.8-2.7-2.8-3.2c1.4-4.3,1.7-9.9,0.9-16.7c-0.1-1-0.3-1.5-0.7-1.5c-0.3,0-0.6,0.5-0.6,1.7c0.2,3.8,0.6,7.1,0.4,9.9c-0.1,2.5-0.7,4.6-1.4,6.9c-0.1,0.3,0.1,0.6,1.3,1.2c0.8,0.5,1.4,1.1,1.5,1.7c0.2-0.1,0.4-0.1,0.5,0C158,66.9,158.4,66.8,158.2,66.6L158.2,66.6z M163.3,66.6c0.9-1.7,1.8-2.7,2.8-3.2c-1.4-4.3-1.7-9.9-0.9-16.7c0.1-1,0.3-1.5,0.7-1.5s0.6,0.5,0.6,1.7c-0.2,3.8-0.6,7.1-0.4,9.9c0.1,2.5,0.8,4.6,1.4,6.9c0.1,0.3-0.1,0.6-1.3,1.2c-0.8,0.5-1.4,1.1-1.5,1.7c-0.2-0.1-0.4-0.1-0.5,0C163.4,66.9,163,66.8,163.3,66.6L163.3,66.6z M154.8,46.9c-5.7-0.5-11.5,0.1-17.2,2.3c-4.8,1.9-4.4,7.5,1.5,15.3c-0.5,1-0.8,2.2-0.9,3.6c0.6,0,1.1,0,1.6,0c-0.4-0.9,0.1-2.1,0.6-2.9c0.4-0.5,0.4-0.4,0-1c-3.5-4.9-5.8-9.2-4.5-11.8c1.7-3.2,8.1-4.8,19-4.6C154.9,47.5,154.9,47.2,154.8,46.9C154.9,47,154.8,47,154.8,46.9L154.8,46.9z M131.7,49c0.2,0.3,0.4,0.5,0.6,0.8c-3.2,1.8-4.5,3.6-4.2,5.5c0.1,0.3,1,3.7,3.2,10.3c1.5,1,2.6,1.9,3.3,2.8c-0.1,0.1,0.2,0.4,0.1,0.5c0.2,1-0.9,0.8-1.7,0.6c-0.4-1-1.5-2-2.1-2.4c-0.1-0.1-0.6-0.3-0.6-0.5c-1.2-3.7-2.3-7.2-3.3-10.3C126,52.8,128.1,50.6,131.7,49L131.7,49z M119.1,72.8l-0.1,0.7c-0.9,0.2-1.7,0.3-2.4,0.2C117.7,72.5,118.5,72.3,119.1,72.8L119.1,72.8z M166.6,46.9c5.7-0.5,11.5,0.1,17.2,2.3c4.8,1.9,4.4,7.5-1.5,15.3c0.5,1,0.8,2.2,0.9,3.6c-0.6,0-1.1,0-1.6,0c0.4-0.9-0.1-2.1-0.6-2.9c-0.3-0.5-0.4-0.4,0-1c3.5-4.9,5.8-9.2,4.5-11.8c-1.7-3.2-8.1-4.8-19-4.6C166.5,47.5,166.5,47.2,166.6,46.9C166.6,47,166.6,47,166.6,46.9L166.6,46.9z M189.7,49c-0.2,0.3-0.4,0.5-0.6,0.8c3.2,1.8,4.5,3.6,4.2,5.5c-0.1,0.3-1,3.7-3.2,10.3c-1.5,1-2.6,1.9-3.3,2.8c0.1,0.1-0.2,0.4-0.1,0.5c-0.2,1,0.9,0.8,1.7,0.6c0.4-1,1.5-2,2.1-2.4c0.1-0.1,0.6-0.3,0.6-0.5c1.2-3.7,2.3-7.2,3.3-10.3C195.5,52.8,193.3,50.6,189.7,49L189.7,49z M202.3,72.8l0.1,0.7c0.9,0.2,1.7,0.3,2.4,0.2C203.7,72.5,202.9,72.3,202.3,72.8L202.3,72.8z" />
      <path fill="#FFFFFF" stroke="#21231E" stroke-width="0.4" d="M153,42.6c1.1,0,2,0.9,2,2s-0.9,2-2,2s-2-0.9-2-2S151.9,42.6,153,42.6z M148.9,42.6c1.1,0,2,0.9,2,2s-0.9,2-2,2s-2-0.9-2-2S147.8,42.6,148.9,42.6z M144.8,42.9c1.1,0,2,0.9,2,2s-0.9,2-2,2s-2-0.9-2-2S143.6,42.9,144.8,42.9z M168.4,42.6c-1.1,0-2,0.9-2,2s0.9,2,2,2s2-0.9,2-2S169.5,42.6,168.4,42.6z M172.5,42.6c-1.1,0-2,0.9-2,2s0.9,2,2,2s2-0.9,2-2S173.6,42.6,172.5,42.6z M176.7,42.9c-1.1,0-2,0.9-2,2s0.9,2,2,2s2-0.9,2-2C178.7,43.8,177.8,42.9,176.7,42.9z" />
      <path fill="#FFFFFF" stroke="#21231E" stroke-width="0.4" d="M141,43.6c1.1,0,2,0.9,2,2s-0.9,2-2,2s-2-0.9-2-2S139.8,43.6,141,43.6z M137.1,44.8c1.1,0,2,0.9,2,2s-0.9,2-2,2s-2-0.9-2-2S136,44.8,137.1,44.8z M180.5,43.6c-1.1,0-2,0.9-2,2s0.9,2,2,2s2-0.9,2-2S181.6,43.6,180.5,43.6z M184.3,44.8c-1.1,0-2,0.9-2,2s0.9,2,2,2s2-0.9,2-2S185.4,44.8,184.3,44.8z" />
      <path fill="#FFFFFF" stroke="#21231E" stroke-width="0.4" d="M186.1,64.1c-1.2,0-2.1,0.9-2.1,2.1s0.9,2.1,2.1,2.1s2.1-0.9,2.1-2.1C188.3,65,187.3,64.1,186.1,64.1z M133.2,66.2c0,1.2,0.9,2.1,2.1,2.1s2.1-0.9,2.1-2.1s-0.9-2.1-2.1-2.1S133.2,65,133.2,66.2z M133.7,46.4c1.2,0,2.1,0.9,2.1,2.1s-0.9,2.1-2.1,2.1c-1.2,0-2.1-0.9-2.1-2.1S132.6,46.4,133.7,46.4z M187.7,46.4c-1.2,0-2.1,0.9-2.1,2.1s0.9,2.1,2.1,2.1c1.2,0,2.1-0.9,2.1-2.1C189.8,47.3,188.8,46.4,187.7,46.4z" />
      <path fill="#FFFFFF" stroke="#21231E" stroke-width="0.4" d="M133.6,60.6c1.2,0,2.1,0.9,2.1,2.1s-0.9,2.1-2.1,2.1s-2.1-0.9-2.1-2.1C131.6,61.6,132.5,60.6,133.6,60.6z M131.2,49.4c1.2,0,2.1,0.9,2.1,2.1s-0.9,2.1-2.1,2.1c-1.2,0-2.1-0.9-2.1-2.1C129.1,50.3,130.1,49.4,131.2,49.4z M187.8,60.6c-1.2,0-2.1,0.9-2.1,2.1s0.9,2.1,2.1,2.1s2.1-0.9,2.1-2.1C189.9,61.6,188.9,60.6,187.8,60.6z M190.2,49.4c-1.2,0-2.1,0.9-2.1,2.1s0.9,2.1,2.1,2.1c1.2,0,2.1-0.9,2.1-2.1C192.3,50.3,191.3,49.4,190.2,49.4z" />
      <path fill="#FFFFFF" stroke="#21231E" stroke-width="0.4" d="M204,68.5c-1.1,0-1.9,0.9-1.9,1.9c0,1.1,0.9,1.9,1.9,1.9s1.9-0.9,1.9-1.9S205.1,68.5,204,68.5z M205.9,64.9c-1.1,0-1.9,0.9-1.9,1.9c0,1.1,0.9,1.9,1.9,1.9c1.1,0,1.9-0.9,1.9-1.9C207.9,65.8,207,64.9,205.9,64.9z M207.7,61.3c-1.1,0-1.9,0.9-1.9,2c0,1.1,0.9,1.9,1.9,1.9s1.9-0.9,1.9-2S208.7,61.3,207.7,61.3z M115.5,70.4c0,1.1,0.9,1.9,1.9,1.9c1.1,0,1.9-0.9,1.9-1.9c0-1.1-0.9-1.9-1.9-1.9S115.5,69.3,115.5,70.4z M113.6,66.8c0,1.1,0.9,1.9,1.9,1.9s1.9-0.9,1.9-1.9c0-1.1-0.9-1.9-1.9-1.9S113.6,65.8,113.6,66.8z M111.9,63.2c0,1.1,0.9,1.9,1.9,1.9c1.1,0,1.9-0.9,1.9-2s-0.9-2-1.9-2C112.8,61.3,111.9,62.2,111.9,63.2z M115.9,54c1.1,0,2,0.9,2,2s-0.9,2-2,2s-2-0.9-2-2S114.8,54,115.9,54z M119.4,51.8c1.1,0,2,0.9,2,2s-0.9,2-2,2s-2-0.9-2-2C117.3,52.7,118.3,51.8,119.4,51.8z M123.3,50c1.1,0,2,0.9,2,2s-0.9,2-2,2s-2-0.9-2-2S122.2,50,123.3,50z M113.2,57.3c1.1,0,2,0.9,2,2s-0.9,2-2,2s-2-0.9-2-2S112.1,57.3,113.2,57.3z M132.1,57.1c1.2,0,2.1,0.9,2.1,2.1s-0.9,2.1-2.1,2.1s-2.1-0.9-2.1-2.1C130,58.1,130.9,57.1,132.1,57.1z M130.8,53.1c1.2,0,2.1,0.9,2.1,2.1s-0.9,2.1-2.1,2.1c-1.2,0-2.1-0.9-2.1-2.1S129.7,53.1,130.8,53.1z M205.5,54c-1.1,0-2,0.9-2,2s0.9,2,2,2s2-0.9,2-2S206.6,54,205.5,54z M202,51.8c-1.1,0-2,0.9-2,2s0.9,2,2,2s2-0.9,2-2S203.2,51.8,202,51.8z M198.1,50c-1.1,0-2,0.9-2,2s0.9,2,2,2s2-0.9,2-2S199.2,50,198.1,50z M208.2,57.3c-1.1,0-2,0.9-2,2s0.9,2,2,2s2-0.9,2-2S209.3,57.3,208.2,57.3z M189.3,57.1c-1.2,0-2.1,0.9-2.1,2.1s0.9,2.1,2.1,2.1s2.1-0.9,2.1-2.1C191.4,58.1,190.5,57.1,189.3,57.1z M190.6,53.1c-1.2,0-2.1,0.9-2.1,2.1s0.9,2.1,2.1,2.1c1.2,0,2.1-0.9,2.1-2.1C192.7,54,191.8,53.1,190.6,53.1z" />
      <path fill="#EDB92E" stroke="#21231E" stroke-width="0.4" d="M119,71.3c0.6,0.1,0.6,0.2,0.9,0.3c0.3,0.1,0.8,0,1.1-0.2c1.3-0.8,1.3,0.6,0.8,1.6c-0.4,0.7-0.2,1.6,0.2,2.2c0.4,0.8,0.3,1.1,0,1.3c-0.2,0.1-0.4,0.2-0.6,0.4c-0.3,0.4-0.6,0.3-0.7-0.2c-1.3-0.5-1.7-1.7-2.1-2.8C118.2,72.3,116.1,71.9,119,71.3L119,71.3z M153.2,92.2l7.5-3.8l7.5,3.8l-7.5,3.8L153.2,92.2z M136.5,93.2l7.3-4.2l7.7,3.3l-7.3,4.2L136.5,93.2z M127.8,90.2l7.8,3l-6.5,4.3C127.5,96.9,126.2,91.2,127.8,90.2L127.8,90.2z M184.9,93.2l-7.3-4.2l-7.7,3.3l7.3,4.2L184.9,93.2z M193.6,90.2l-7.8,3l6.5,4.3C193.9,96.9,195.2,91.2,193.6,90.2L193.6,90.2z M202.4,71.3c-0.6,0.1-0.6,0.2-0.9,0.3c-0.3,0.1-0.8,0-1.1-0.2c-1.3-0.8-1.3,0.6-0.8,1.6c0.4,0.7,0.2,1.6-0.2,2.2c-0.4,0.8-0.3,1.1,0,1.3c0.2,0.1,0.4,0.2,0.6,0.4c0.3,0.4,0.6,0.3,0.6-0.2c1.3-0.5,1.7-1.7,2.1-2.8C203.3,72.3,205.3,71.9,202.4,71.3L202.4,71.3z" />
      <path fill="#EDB92E" stroke="#21231E" stroke-width="0.4" d="M163.9,66.8c1.7-0.3,1.5,0.8,0.7,1.9c-0.4,0.6-1.3,1.2-1.7,1.7c-0.5,0.5-0.5,0.9-0.7,1.1c-0.7,0-1.2,0-1.5,0s-0.8,0-1.5,0c-0.2-0.1-0.2-0.5-0.7-1.1c-0.5-0.5-1.4-1.1-1.7-1.7c-0.8-1.2-1-2.2,0.7-1.9C157.9,66.8,163.5,66.8,163.9,66.8z M124,79.5c0.8-0.2,2,1.5,2.3,1.5c0.4-1-0.4-3.4-1.8-5.3c-1-0.3-1.1-0.9-1.2-2.4c-0.1-0.4-0.9-0.1-0.9,0.6c0,0.8-0.1,1.2,0.1,1.9c0.1,0.3,0,0.5-0.3,0.8C123.7,77.2,124.1,77.9,124,79.5L124,79.5z M197.4,79.5c-0.8-0.2-2,1.5-2.3,1.5c-0.4-1,0.4-3.4,1.8-5.3c1-0.3,1.1-0.9,1.2-2.4c0.1-0.4,0.9-0.1,0.9,0.6c0,0.8,0.1,1.2-0.1,1.9c-0.1,0.3,0,0.5,0.3,0.8C197.7,77.2,197.3,77.9,197.4,79.5z M153.8,70.5c-0.3-1.7,0.8-1.5,1.9-0.7c0.6,0.4,1.2,1.3,1.7,1.7c0.5,0.5,0.9,0.5,1,0.7c0,0.7,0,1.2,0,1.5l0,0c0,0.3,0,0.8,0,1.5c-0.1,0.2-0.5,0.2-1,0.7s-1.1,1.3-1.7,1.7c-1.2,0.8-2.2,1-1.9-0.7C153.9,76.4,153.9,70.9,153.8,70.5z M167.6,76.8c0.3,1.7-0.8,1.5-1.9,0.7c-0.6-0.4-1.2-1.3-1.7-1.7c-0.5-0.5-0.9-0.5-1.1-0.7c0-0.7,0-1.2,0-1.5l0,0c0-0.3,0-0.8,0-1.5c0.1-0.2,0.5-0.2,1.1-0.7c0.5-0.5,1.1-1.3,1.7-1.7c1.2-0.8,2.2-1,1.9,0.7C167.5,70.9,167.5,76.4,167.6,76.8z M138.9,68.1c1.6-0.6,1.6,0.7,1.1,2.1c-0.2,0.7-0.9,1.5-1.2,2.1s-0.2,1-0.4,1.2c-0.6,0.1-1.1,0.2-1.3,0.2l0,0c-0.2,0-0.7,0.1-1.3,0.2c-0.2-0.1-0.3-0.5-0.9-1c-0.5-0.5-1.4-0.9-1.9-1.5c-1-1.1-1.5-2.2,0-2.2C133.5,69.1,138.5,68.2,138.9,68.1z M131,72.8c-0.8-1.5,0.1-1.4,1.2-0.8c0.3,0.2,0.6,0.4,0.9,0.7c0.3,0.3,0.6,0.6,0.9,0.8c0.6,0.4,0.9,0.4,1.1,0.6c0.2,0.6,0.4,1.1,0.5,1.4l0,0c0.1,0.2,0.3,0.8,0.5,1.4c0,0.2-0.4,0.2-0.6,0.7c-0.2,0.4-0.4,1.2-0.7,1.6c-0.4,0.6-0.8,0.9-1.1,0.8C133.4,79.7,131.2,73.2,131,72.8z M144.3,77.5c0.5,1.6-0.4,1.4-1.6,0.8c-0.6-0.3-1.2-1.1-1.8-1.4c-0.5-0.4-0.9-0.4-1-0.5c-0.1-0.6-0.3-1.2-0.3-1.4l0,0c-0.1-0.2-0.2-0.8-0.3-1.4c0.1-0.2,0.4-0.3,0.8-0.8c0.4-0.5,0.7-1.5,1.2-2c0.9-1,1.9-1.4,2,0.5C143.2,71.6,144.1,77.1,144.3,77.5z M182.5,68.1c-1.6-0.6-1.6,0.7-1.1,2.1c0.2,0.7,0.9,1.5,1.2,2.1s1.4,1.3,1.7,1.4l0,0c0.2,0,0.7,0.1,1.3,0.2c0.2-0.1,0.3-0.5,0.9-1c0.5-0.5,1.4-0.9,1.9-1.5c1-1.1,1.5-2.2,0-2.2C187.9,69.1,182.9,68.2,182.5,68.1z M190.4,72.8c0.8-1.5-0.1-1.4-1.2-0.8c-0.3,0.2-0.6,0.4-0.9,0.7c-0.3,0.3-0.6,0.6-0.9,0.8c-0.6,0.4-0.9,0.4-1.1,0.6c-0.2,0.6-0.4,1.1-0.5,1.4l0,0c-0.1,0.2-0.3,0.8-0.5,1.4c0,0.2,0.4,0.2,0.6,0.7c0.2,0.4,0.4,1.2,0.7,1.6c0.4,0.6,0.8,0.9,1.1,0.8C188,79.7,190.2,73.2,190.4,72.8z M177.1,77.5c-0.5,1.6,0.4,1.4,1.6,0.8c0.6-0.3,1.2-1.1,1.8-1.4c0.5-0.4,0.9-0.4,1-0.5c0.1-0.6,0.3-1.2,0.3-1.4c0.1-0.2,0.2-0.8,0.3-1.4c-0.1-0.2-0.4-0.3-0.8-0.8c-0.4-0.5-0.7-1.5-1.2-2c-0.9-1-1.9-1.4-2,0.5C178.2,71.6,177.3,77.1,177.1,77.5z" />
      <path fill="#21231E" d="M162.9,73.9v0.3c1.2,0.2,2.3,0.7,3.1,1.4C165.5,74.8,164.2,74.1,162.9,73.9 M162.9,73.4v-0.3c1.2-0.2,2.3-0.7,3.1-1.4C165.5,72.5,164.2,73.2,162.9,73.4 M160.4,71.5h-0.3c-0.2-1.2-0.6-2.3-1.4-3.2C159.6,68.9,160.2,70.1,160.4,71.5 M161,71.5h0.3c0.1-1.2,0.6-2.3,1.4-3.2C161.8,68.9,161.2,70.1,161,71.5 M158.5,73.9v0.3c-1.2,0.2-2.3,0.7-3.1,1.4C155.9,74.8,157.2,74.1,158.5,73.9 M158.5,73.4v-0.3c-1.2-0.2-2.3-0.7-3.1-1.4C155.9,72.5,157.2,73.2,158.5,73.4 M162.9,73.4v-0.3c1.2-0.2,2.3-0.7,3.1-1.4C165.5,72.5,164.2,73.2,162.9,73.4 M162.9,73.9v0.3c1.2,0.2,2.3,0.7,3.1,1.4C165.5,74.8,164.2,74.1,162.9,73.9 M120.8,75.9l0.2-0.1c-0.5-0.7-0.6-1.4-0.4-2.1C120.1,74.3,120.2,75.1,120.8,75.9 M136.9,73.7c-0.1,0-0.2,0-0.3,0c-0.4-1.3-1.2-2.3-2.1-3.1C135.5,71,136.4,72.3,136.9,73.7 M137.4,73.6c0.1,0,0.2-0.1,0.2-0.1c-0.2-1.3,0-2.5,0.5-3.6C137.5,70.7,137.2,72.2,137.4,73.6 M135.8,75.8c0,0.1,0.1,0.2,0.1,0.3c-0.5,0.1-0.9,0.3-1.2,0.6c-0.3,0.3-0.6,0.6-0.8,1c0.1-0.5,0.3-0.9,0.6-1.2C134.8,76.2,135.3,76,135.8,75.8 M135.6,75.3c-0.1-0.1-0.1-0.2-0.1-0.3c-0.5,0-1-0.2-1.5-0.4c-0.5-0.2-1-0.5-1.5-0.9c0.4,0.4,0.9,0.8,1.4,1.1C134.4,75.1,135,75.2,135.6,75.3 M139.5,74.7c0-0.1,0-0.2,0-0.3c1.1-0.3,1.9-0.9,2.6-1.8C141.7,73.6,140.6,74.3,139.5,74.7 M139.6,75.2c0,0.1,0.1,0.2,0.1,0.3c1.1,0,2.1,0.4,3,1C142.1,75.7,140.8,75.2,139.6,75.2 M200.7,75.9l-0.2-0.1c0.5-0.7,0.6-1.4,0.4-2.1C201.3,74.3,201.2,75.1,200.7,75.9 M184.5,73.7c0.1,0,0.2,0,0.3,0c0.4-1.3,1.1-2.3,2.1-3.1C185.9,71,185,72.3,184.5,73.7 M184,73.6c-0.1,0-0.2-0.1-0.2-0.1c0.2-1.3,0-2.5-0.5-3.6C183.9,70.7,184.2,72.2,184,73.6 M185.6,75.8c0,0.1-0.1,0.2-0.1,0.3c0.5,0.1,0.9,0.3,1.2,0.6c0.3,0.3,0.6,0.6,0.8,1c-0.1-0.5-0.3-0.9-0.6-1.2S186.2,76,185.6,75.8 M185.9,75.3c0.1-0.1,0.1-0.2,0.1-0.3c0.5,0,1-0.2,1.6-0.4c0.5-0.2,1-0.5,1.5-0.9c-0.4,0.4-0.9,0.8-1.4,1.1C187,75.1,186.4,75.2,185.9,75.3 M181.9,74.7c0-0.1,0-0.2,0-0.3c-1.1-0.3-1.9-0.9-2.6-1.8C179.8,73.6,180.8,74.3,181.9,74.7 M181.8,75.2c0,0.1-0.1,0.2-0.1,0.3c-1.1,0-2.1,0.4-3,1C179.3,75.7,180.6,75.2,181.8,75.2" />
      <path fill="#EDB92E" stroke="#21231E" stroke-width="0.4" d="M120.4,76.2c0.2-0.2,0.5-0.3,0.7-0.4c0.4-0.2,0.8-0.2,1.3-0.1c1.8,0.6,2.7,3.8,0.6,4.6c-0.4,0.1-0.8-0.3-1.1-1.1c-0.4-1-0.9-1.8-1.4-2.2C120.2,76.7,120.2,76.3,120.4,76.2L120.4,76.2z M160.7,71.1c1.4,0,2.5,1.1,2.5,2.6s-1.1,2.6-2.5,2.6s-2.5-1.1-2.5-2.6S159.3,71.1,160.7,71.1z M137.1,72.7c1.3-0.1,2.6,1.1,2.8,2.5s-0.7,2.5-2,2.5s-2.4-1-2.7-2.4C134.9,73.9,135.8,72.7,137.1,72.7z M201,76.2c-0.2-0.2-0.5-0.3-0.7-0.4c-0.4-0.2-0.8-0.2-1.3-0.1c-1.9,0.6-2.7,3.8-0.6,4.6c0.4,0.1,0.8-0.3,1.1-1.1c0.4-1,0.9-1.8,1.4-2.2C201.2,76.7,201.2,76.3,201,76.2L201,76.2z M184.3,72.7c-1.3-0.1-2.6,1.1-2.8,2.5s0.7,2.5,2,2.5s2.5-1,2.7-2.4C186.5,73.9,185.6,72.7,184.3,72.7L184.3,72.7z" />
      <path fill="#EDB92E" stroke="#21231E" stroke-width="0.4" d="M119.5,71.4c1.1,0.4,1.2-0.2,2-0.2c-0.3,1.7-0.6,2.6-2.3,1.7c-1-0.5-2.2,0.2-2.4,0.8c-0.1,0.2-0.7-0.2-0.9-0.7C114.9,71.1,118,70.9,119.5,71.4L119.5,71.4z M201.9,71.4c-1.1,0.4-1.2-0.2-2-0.2c0.3,1.7,0.6,2.6,2.4,1.7c1-0.5,2.2,0.2,2.4,0.8c0.1,0.2,0.6-0.2,0.9-0.7C206.5,71.1,203.4,70.9,201.9,71.4L201.9,71.4z M121.3,76.4c1.8-0.7,3.1,2.7,1.4,3.3c-0.9,0.3-1-0.8-1.2-1.4C121.4,77.5,119.6,77,121.3,76.4L121.3,76.4z M160.7,71.8c1,0,1.9,0.8,1.9,1.9c0,1-0.8,1.9-1.9,1.9s-1.9-0.8-1.9-1.9C158.8,72.6,159.7,71.8,160.7,71.8z M137.2,73.4c1,0,1.9,0.8,2,1.8s-0.5,1.8-1.5,1.9c-0.9,0-1.8-0.8-2-1.8C135.6,74.3,136.2,73.4,137.2,73.4L137.2,73.4z M200.1,76.4c-1.8-0.7-3.1,2.7-1.4,3.3c0.9,0.3,1-0.8,1.1-1.4C200,77.5,201.8,77,200.1,76.4z M184.2,73.4c-1,0-1.9,0.8-2,1.8s0.5,1.8,1.5,1.9c0.9,0,1.8-0.8,2-1.8C185.8,74.3,185.2,73.4,184.2,73.4L184.2,73.4z" />
      <path fill="#C6363C" stroke="#21231E" stroke-width="0.4" d="M143.9,90.4c1.9-0.1,3.4,0.8,3.5,2s-1.4,2.3-3.2,2.4c-1.9,0.1-3.4-0.8-3.5-2S142,90.5,143.9,90.4z M177.5,90.4c-1.9-0.1-3.4,0.8-3.5,2s1.4,2.3,3.2,2.4s3.4-0.8,3.5-2C180.8,91.6,179.4,90.5,177.5,90.4L177.5,90.4z" />
      <path fill="#0C4076" stroke="#21231E" stroke-width="0.4" d="M160.7,89.9c1.9,0,3.4,1,3.4,2.2s-1.5,2.2-3.4,2.2s-3.4-1-3.4-2.2S158.9,89.9,160.7,89.9z M128,91.6c1.9-0.2,3.5,0.7,3.6,1.9c0.1,1.2-1.3,2.4-3.1,2.6c-1.2,0.1-1.9-0.9-2.1-2.1C126.2,92.9,126.7,91.7,128,91.6L128,91.6z M121.5,76.9c0.9-0.3,2.1,1.7,1,2.1c-0.7,0.3-1.3-0.1-1.6-0.7C120.7,77.7,120.9,77.1,121.5,76.9z M193.5,91.6c-1.9-0.2-3.5,0.7-3.6,1.9c-0.1,1.2,1.3,2.4,3.1,2.6c1.2,0.1,2-0.9,2.1-2.1C195.2,92.9,194.7,91.7,193.5,91.6z M160.7,36.2c3.1,0,5.7,2.5,5.7,5.7c0,3.1-2.5,5.7-5.7,5.7s-5.7-2.5-5.7-5.7C155.1,38.8,157.6,36.2,160.7,36.2z M160.7,72.5c0.6,0,1.2,0.5,1.2,1.2s-0.5,1.2-1.2,1.2s-1.2-0.5-1.2-1.2S160.1,72.5,160.7,72.5z M137.3,74.1c0.6,0,1.2,0.5,1.3,1.1s-0.3,1.2-0.9,1.2c-0.6,0-1.1-0.5-1.3-1.1C136.3,74.6,136.7,74.1,137.3,74.1L137.3,74.1z M199.9,76.9c-0.9-0.3-2.1,1.7-1,2.1c0.7,0.3,1.3-0.1,1.6-0.7C200.7,77.7,200.5,77.1,199.9,76.9z M184.1,74.1c-0.6,0-1.2,0.5-1.3,1.1c-0.1,0.7,0.3,1.2,0.9,1.2c0.6,0,1.1-0.5,1.3-1.1C185.1,74.6,184.7,74.1,184.1,74.1L184.1,74.1z" />
      <path fill="#FFFFFF" stroke="#21231E" stroke-width="0.4" d="M160.7,61.7c1.2,0,2.2,1,2.2,2.2c0,1.2-1,2.2-2.2,2.2s-2.2-1-2.2-2.2C158.5,62.7,159.5,61.7,160.7,61.7z" />
      <path fill="#FFFFFF" stroke="#21231E" stroke-width="0.4" d="M160.7,57.8c1.2,0,2.2,1,2.2,2.2s-1,2.2-2.2,2.2s-2.2-1-2.2-2.2S159.5,57.8,160.7,57.8z M160.7,43.4c1.2,0,2.2,1,2.2,2.2s-1,2.2-2.2,2.2s-2.2-1-2.2-2.2S159.5,43.4,160.7,43.4z" />
      <path fill="#FFFFFF" stroke="#21231E" stroke-width="0.4" d="M160.7,54.1c1.2,0,2.2,1,2.2,2.2s-1,2.2-2.2,2.2s-2.2-1-2.2-2.2S159.5,54.1,160.7,54.1z M160.7,46.7c1.2,0,2.2,1,2.2,2.2s-1,2.2-2.2,2.2s-2.2-1-2.2-2.2S159.5,46.7,160.7,46.7z" />
      <path fill="#FFFFFF" stroke="#21231E" stroke-width="0.4" d="M160.7,50.3c1.2,0,2.2,1,2.2,2.2s-1,2.2-2.2,2.2s-2.2-1-2.2-2.2S159.5,50.3,160.7,50.3z" />
      <path fill="#EDB92E" stroke="#21231E" stroke-width="0.4" d="M161.7,29.6c0.6,0,1-0.5,1-1c0-0.6-0.4-1-1-1c0-0.6-0.5-1-1-1c-0.6,0-1,0.5-1,1c-0.6,0-1,0.5-1,1c0,0.6,0.4,1,1,1v2.1h-1.8c0-0.6-0.5-1-1-1c-0.6,0-1,0.4-1,1c-0.6,0-1,0.5-1,1s0.5,1,1,1c0,0.5,0.5,1,1,1c0.6,0,1-0.4,1-1h1.8v7h2.1v-7h1.8c0,0.5,0.5,1,1,1c0.6,0,1-0.5,1-1c0.6,0,1-0.5,1-1c0-0.6-0.5-1-1-1c0-0.6-0.5-1-1-1s-1,0.5-1,1h-1.8v-2.1H161.7z" />
      <path fill="#EDB92E" stroke="#21231E" stroke-width="0.4" d="M160.7,36.2c0.4,0,0.7,0,1,0.1v4.5h-2.1v-4.5C160,36.2,160.4,36.2,160.7,36.2z" />
      <path fill="#EDB92E" stroke="#21231E" stroke-width="0.4" stroke-linejoin="round" d="M123.3,73.3c-0.1,0.3-0.2,0.6-0.2,1.1c0,0.4,0.1,0.7,0.4,1.1c0.2,0.3,0.6,0.6,1,0.8c0.2,0.1,0.5,0.5,0.8,1c0.2,0.4,0.4,0.9,0.4,1.3c0,1.2,0.3,2.2,0.8,2.4c0.3,0.1,0.5,0.1,0.8,0.1c-0.1-0.2-0.1-0.5-0.2-0.8c-0.2-0.4-0.5-0.8-0.5-1.2c0-0.3-0.2-0.5,0-1.1c0.1-0.4,0.3-0.5,0.3-0.9c-0.1-0.7-0.6-2-1.4-2S124.4,75,124,74C123.6,73.7,123.4,73.5,123.3,73.3L123.3,73.3z M164.7,66.7c-0.1,0.4-0.3,0.8-0.6,1.1c-0.5,0.5-1.4,0.2-2.2-0.5c-0.3-0.2-0.7-0.3-1.2-0.3c-0.4,0-0.9,0.1-1.1,0.3c-0.8,0.7-1.7,1-2.2,0.5c-0.3-0.3-0.5-0.8-0.6-1.1c0.2,0,0.4,0,0.8,0c0.4,0.1,0.9,0.1,1.1-0.2c0.2-0.2,0.1-0.3,0.4-0.8c0.2-0.3,0.5-0.6,0.7-0.8c0.3-0.2,0.6-0.1,0.9-0.1s0.6-0.1,0.9,0.1s0.5,0.4,0.7,0.8c0.3,0.5,0.2,0.6,0.4,0.8c0.3,0.2,0.7,0.2,1.1,0.2C164.2,66.7,164.5,66.7,164.7,66.7L164.7,66.7z M153.8,69.7c0.4,0.2,0.8,0.3,1.1,0.7c0.5,0.5,0.2,1.3-0.5,2.2c-0.2,0.3-0.3,0.7-0.3,1.2c0,0.4,0.1,0.9,0.3,1.2c0.7,0.8,1,1.7,0.5,2.2c-0.4,0.3-0.8,0.5-1.1,0.7c0-0.2,0-0.5,0-0.8c0.1-0.4,0.1-0.9-0.1-1.2c-0.2-0.2-0.3-0.1-0.8-0.4c-0.3-0.2-0.6-0.5-0.8-0.7c-0.2-0.3-0.1-0.6-0.1-0.9s-0.1-0.6,0.1-0.9c0.2-0.3,0.4-0.5,0.8-0.7c0.5-0.3,0.6-0.2,0.8-0.4c0.2-0.3,0.2-0.7,0.1-1.2C153.8,70.1,153.8,69.9,153.8,69.7L153.8,69.7z M167.6,77.6c-0.4-0.2-0.8-0.3-1.1-0.7c-0.5-0.5-0.2-1.3,0.5-2.2c0.2-0.3,0.3-0.7,0.3-1.2c0-0.4-0.1-0.9-0.3-1.2c-0.7-0.8-1-1.7-0.5-2.2c0.4-0.3,0.8-0.5,1.1-0.7c0,0.2,0,0.5,0,0.8c-0.1,0.4-0.1,0.9,0.1,1.2c0.2,0.2,0.3,0.1,0.8,0.4c0.3,0.2,0.6,0.5,0.8,0.7c0.2,0.3,0.1,0.6,0.1,0.9s0.1,0.6-0.1,0.9c-0.2,0.3-0.4,0.5-0.8,0.7c-0.5,0.3-0.6,0.2-0.8,0.4c-0.2,0.3-0.2,0.7-0.1,1.2C167.7,77.2,167.7,77.4,167.6,77.6L167.6,77.6z M139.6,67.9c-0.1,0.5-0.1,1-0.4,1.4c-0.4,0.7-1.2,0.4-2.1-0.2c-0.3-0.2-0.7-0.2-1.1-0.2c-0.4,0.1-0.8,0.3-0.9,0.5c-0.5,0.9-1.2,1.3-1.8,0.9c-0.4-0.3-0.7-0.8-0.9-1.1c0.2-0.1,0.4-0.1,0.7-0.1c0.4,0,0.8-0.1,1-0.3c0.1-0.2,0-0.3,0.2-1c0.1-0.4,0.2-0.8,0.4-1s0.5-0.2,0.8-0.2c0.3-0.1,0.5-0.2,0.8-0.1c0.3,0.2,0.6,0.4,0.9,0.8c0.4,0.6,0.4,0.7,0.6,0.8c0.3,0.2,0.7,0.1,1.1,0C139.2,68,139.4,67.9,139.6,67.9L139.6,67.9z M130.8,71.8c0.3,0.1,0.6,0.3,0.9,0.6c0.3,0.2,0.4,0.6,0.5,1s0,0.8-0.1,1.3c-0.1,0.3,0,0.7,0.2,1.2c0.2,0.4,0.4,0.9,0.6,1.2c0.8,0.8,1.4,1.7,1.1,2.2c-0.1,0.3-0.3,0.4-0.5,0.6c-0.1-0.2-0.3-0.4-0.4-0.7c-0.1-0.4-0.3-0.9-0.5-1.1s-0.2-0.4-0.7-0.8c-0.3-0.2-0.6-0.1-0.8-0.4c-0.4-0.5-1-1.8-0.4-2.3c0.5-0.6,0.7-0.9,0.3-1.8C130.8,72.2,130.8,72,130.8,71.8L130.8,71.8z M144.4,78.2c-0.4-0.1-0.8-0.2-1.1-0.5c-0.6-0.4-0.4-1.2,0.1-2.1c0.1-0.3,0.2-0.7,0.1-1.2s-0.2-0.9-0.5-1.1c-0.8-0.7-1.2-1.6-0.9-2.2c0.3-0.4,0.6-0.6,0.9-0.8c0.1,0.2,0.1,0.5,0.1,0.8c0,0.5,0.1,0.9,0.3,1.2c0.2,0.2,0.3,0.1,0.8,0.4c0.4,0.2,0.6,0.4,0.8,0.7s0.2,0.6,0.2,0.9c0.1,0.3,0.2,0.6,0.1,0.9c-0.1,0.3-0.3,0.6-0.6,0.8c-0.4,0.4-0.5,0.3-0.6,0.5c-0.1,0.3-0.1,0.7,0.1,1.1C144.4,77.8,144.4,78,144.4,78.2L144.4,78.2z M198.1,73.3c0.1,0.3,0.2,0.6,0.2,1.1c0,0.4-0.1,0.7-0.4,1.1c-0.2,0.3-0.6,0.6-1,0.8c-0.2,0.1-0.5,0.5-0.8,1c-0.2,0.4-0.4,0.9-0.4,1.3c0,1.2-0.3,2.2-0.8,2.4c-0.4,0.1-0.5,0.1-0.8,0.1c0.1-0.2,0.1-0.5,0.2-0.8c0.2-0.4,0.5-0.8,0.5-1.2c0-0.3,0.2-0.5,0-1.1c-0.1-0.4-0.3-0.5-0.3-0.9c0.1-0.7,0.6-2,1.4-2c0.8,0,1.1-0.1,1.5-1.1C197.8,73.7,198,73.5,198.1,73.3L198.1,73.3z M181.8,67.9c0.1,0.5,0.1,1,0.4,1.4c0.4,0.7,1.2,0.4,2.1-0.2c0.3-0.2,0.7-0.2,1.1-0.2c0.4,0.1,0.8,0.3,0.9,0.5c0.5,0.9,1.2,1.3,1.8,0.9c0.4-0.3,0.7-0.8,0.9-1.1c-0.2-0.1-0.4-0.1-0.7-0.1c-0.4,0-0.8-0.1-1-0.3c-0.1-0.2,0-0.3-0.2-1c-0.1-0.4-0.2-0.8-0.4-1s-0.5-0.2-0.8-0.2c-0.3-0.1-0.5-0.2-0.8-0.1c-0.3,0.2-0.6,0.4-0.9,0.8c-0.4,0.6-0.4,0.7-0.6,0.8c-0.3,0.2-0.7,0.1-1.1,0C182.2,68,182,67.9,181.8,67.9L181.8,67.9z M190.6,71.8c-0.3,0.1-0.6,0.3-0.9,0.6c-0.3,0.2-0.4,0.6-0.5,1s0,0.8,0.1,1.3c0.1,0.3,0,0.7-0.2,1.2c-0.2,0.4-0.4,0.9-0.6,1.2c-0.8,0.8-1.4,1.7-1.1,2.2c0.1,0.3,0.3,0.4,0.5,0.6c0.1-0.2,0.3-0.4,0.4-0.7c0.1-0.4,0.3-0.9,0.5-1.1s0.2-0.4,0.7-0.8c0.3-0.2,0.6-0.1,0.8-0.4c0.4-0.5,1-1.8,0.4-2.3c-0.5-0.6-0.7-0.9-0.3-1.8C190.6,72.2,190.6,72,190.6,71.8L190.6,71.8z M177,78.2c0.4-0.1,0.8-0.2,1.1-0.5c0.6-0.4,0.4-1.2-0.1-2.1c-0.1-0.3-0.2-0.7-0.1-1.2s0.3-0.9,0.5-1.1c0.8-0.7,1.2-1.6,0.9-2.2c-0.3-0.4-0.6-0.6-0.9-0.8c-0.1,0.2-0.1,0.5-0.1,0.8c0,0.5-0.1,0.9-0.3,1.2c-0.2,0.2-0.3,0.1-0.8,0.4c-0.4,0.2-0.6,0.4-0.8,0.7s-0.2,0.6-0.2,0.9s-0.2,0.6-0.1,0.9c0.1,0.3,0.3,0.6,0.6,0.8c0.4,0.4,0.5,0.3,0.6,0.5c0.1,0.3,0.1,0.7-0.1,1.1C177.1,77.8,177,78,177,78.2L177,78.2z M166.2,40.7c0.1,0.4,0.1,0.8,0.1,1.2c0,0.3,0,0.5-0.1,0.8c-1.9-0.1-3.7-0.1-5.6-0.1s-3.7,0-5.6,0.1c0-0.3-0.1-0.5-0.1-0.8c0-0.4,0-0.8,0.1-1.2c1.8-0.1,3.7-0.1,5.6-0.1S164.4,40.7,166.2,40.7L166.2,40.7z M193,98.9c0,0.4-0.3,0.9-1.5,1c-20,1.7-41.5,1.7-61.5,0c-1.1,0-1.5-0.6-1.5-1s0.4-1,1.5-1c20-1.7,41.5-1.7,61.5,0C192.5,97.8,193,98.4,193,98.9z" />
    </g>
    <path fill="none" stroke="#21231E" stroke-width="0.4" stroke-linecap="round" d="M137.6,99.2c2.6-0.2,5.1-0.3,7.7-0.4c2.6-0.1,5.1-0.2,7.7-0.2c2.6-0.1,5.1-0.1,7.7-0.1c2.6,0,5.1,0,7.7,0.1c2.6,0.1,5.1,0.1,7.7,0.2c2.6,0.1,5.1,0.2,7.7,0.4" />
    <path fill="none" stroke="#21231E" stroke-width="0.4" stroke-linecap="round" d="M137.6,99.3c2.6,0.2,5.1,0.3,7.7,0.4 M176.1,99.7c2.6-0.1,5.1-0.2,7.7-0.4" />
    <path fill="#C6363C" stroke="#FFFFFF" stroke-width="0.8" d="M104.5,100.2v90.9c0,16.3,6.3,31,16.5,41.8c10.2,10.7,24.2,17.3,39.7,17.3l0,0c15.5,0,29.6-6.6,39.7-17.3c10.2-10.7,16.5-25.5,16.5-41.8v-90.9L104.5,100.2z" />
    <g>
      <path fill="#FFFFFF" stroke="#21231E" stroke-width="0.4" d="M163.1,245c0.8-0.6,0.5-3.3,0.4-4.9c-0.4-8.5-0.7-22.8-1.2-42.9H159c-0.4,20.1-0.8,34.4-1.2,42.9c-0.1,1.7-0.4,4.3,0.4,4.9C158.9,245.5,162.5,245.5,163.1,245z" />
      <path fill="#FFFFFF" stroke="#21231E" stroke-width="0.4" d="M164.6,245c-0.9-0.6-1-3.3-1-4.9c-0.4-8.5-1.2-22.7-2.6-42.8l1.9-0.2c3.2,19.8,4.4,33.9,6.6,42.4c0.3,1.2,0.9,4.1-0.1,5.1C168.9,245.1,165.2,245.4,164.6,245z M156.8,245c0.9-0.6,1-3.3,1-4.9c0.4-8.5,1.2-22.7,2.6-42.8l-1.9-0.2c-3.2,19.8-4.4,33.9-6.6,42.4c-0.3,1.2-0.9,4.1,0.1,5.1C152.5,245.1,156.2,245.4,156.8,245z" />
      <path fill="#FFFFFF" stroke="#21231E" stroke-width="0.4" d="M170.8,244.2c-0.9-0.5-0.9-3.2-1.3-4.8c-2.2-8.5-3.4-22.6-6.6-42.4l1.8-0.3c5.1,19.3,6.6,32.9,10.6,41.3c0.4,1.2,1.4,4.2,0.4,5.3C175.1,244,171.5,244.6,170.8,244.2z M150.6,244.2c0.9-0.5,0.9-3.2,1.3-4.8c2.2-8.5,3.4-22.6,6.6-42.4l-1.8-0.3c-5.1,19.3-6.6,32.9-10.6,41.3c-0.4,1.2-1.4,4.2-0.4,5.3C146.3,244,149.9,244.6,150.6,244.2z" />
      <path fill="#FFFFFF" stroke="#21231E" stroke-width="0.4" d="M177.1,242.8c-1-0.4-1.1-3.3-1.8-4.8c-4-8.4-5.5-22.1-10.6-41.5l2.7-0.9c6,19.2,7.9,32.5,13.6,40.8c0.9,1.3,1.6,4,1,4.9C181.4,242,177.8,243.1,177.1,242.8z M144.4,242.8c1-0.4,1.1-3.3,1.8-4.8c4-8.4,5.5-22.1,10.6-41.5l-2.7-0.9c-6,19.2-7.9,32.5-13.6,40.8c-0.9,1.3-1.6,4-1,4.9C140.1,242,143.6,243.1,144.4,242.8z" />
      <path fill="#FFFFFF" stroke="#21231E" stroke-width="0.4" d="M176.9,222.2c-5.9-7.2-8.8-19.9-14.5-37.5h-3.3c-5.7,17.5-8.6,30.2-14.5,37.4c-1,1.3-1.8,4-1.3,4.8c0.4,0.6,3.5,1.4,4.2,1c0.9-0.5,1.5-3,2.1-4.6c3.4-6.7,6.6-18,11.2-33.3c4.6,15.3,7.8,26.5,11.2,33.3c0.5,1.6,1.1,4.2,2.1,4.7c0.7,0.3,3.9-0.5,4.2-1C178.7,226.2,177.9,223.4,176.9,222.2z" />
      <path fill="#FFFFFF" stroke="#21231E" stroke-width="0.4" d="M172.4,223.3c-4.5-7.2-5.8-20.7-10.1-38.9h-3.2c-4.4,18.1-5.6,31.7-10.1,38.9c-0.9,1.4-1.3,4.2-0.8,4.9c0.4,0.6,3.7,1.1,4.3,0.7c0.9-0.5,1.2-3.1,1.5-4.8c1.3-6.9,3.6-17.6,6.6-32.1c3.1,14.5,5.3,25.2,6.6,32.1c0.3,1.6,0.6,4.3,1.5,4.8c0.7,0.4,3.9-0.1,4.3-0.7C173.8,227.5,173.3,224.7,172.4,223.3z" />
      <path fill="#FFFFFF" stroke="#21231E" stroke-width="0.4" d="M167.9,224c-1.6-7.8-3.1-21.2-5.6-39.7h-3.2c-2.5,18.4-4,31.9-5.6,39.7c-0.3,1.6-0.9,4.2-0.2,5c0.5,0.5,3.8,0.8,4.4,0.4c0.8-0.6,0.8-3.2,0.9-4.9c0.4-5.4,1.1-13.2,2-23.2c0.9,10.1,1.6,17.8,2,23.2c0.1,1.7,0.1,4.3,0.9,4.9c0.6,0.4,3.9,0.2,4.4-0.4C168.8,228.3,168.3,225.7,167.9,224z" />
      <path fill="#FFFFFF" stroke="#21231E" stroke-width="0.4" d="M162.9,229.4c0.8-0.6,0.4-3.3,0.4-4.9c-0.4-8.5-0.7-22.8-1.1-42.9h-3.1c-0.4,20.1-0.7,34.4-1.1,42.9c-0.1,1.7-0.4,4.3,0.4,4.9C159.1,229.9,162.3,229.9,162.9,229.4z" />
      <path fill="#FFFFFF" stroke="#21231E" stroke-width="0.4" d="M173.1,210.5c-4.5-7.2-6.8-20-11.1-37.5h-2.5c-4.4,17.5-6.6,30.3-11.1,37.5c-0.8,1.3-1.4,4-1,4.8c0.3,0.6,2.7,1.4,3.2,1c0.7-0.5,1.2-3,1.6-4.7c2.6-6.8,5.1-18,8.6-33.3c3.5,15.3,5.9,26.5,8.6,33.3c0.4,1.6,0.9,4.2,1.6,4.6c0.5,0.3,3-0.4,3.2-1C174.5,214.5,173.9,211.7,173.1,210.5z" />
      <path fill="#FFFFFF" stroke="#21231E" stroke-width="0.4" d="M169.7,211.6c-3.4-7.2-4.4-20.7-7.7-38.9h-2.5c-3.3,18.1-4.3,31.7-7.7,38.9c-0.7,1.4-1,4.2-0.6,4.9c0.3,0.6,2.8,1.1,3.3,0.7c0.7-0.5,0.9-3.1,1.2-4.8c1-6.9,2.7-17.6,5.1-32.1c2.4,14.5,4.1,25.2,5.1,32.1c0.2,1.6,0.5,4.3,1.2,4.8c0.5,0.4,3-0.1,3.3-0.7C170.7,215.8,170.4,213,169.7,211.6z" />
      <path fill="#FFFFFF" stroke="#21231E" stroke-width="0.4" d="M155.2,212.4c-0.3,1.6-0.7,4.2-0.1,5c0.4,0.5,2.9,0.8,3.4,0.4c0.6-0.6,0.6-3.2,0.7-4.9c0.3-5.4,0.8-13.2,1.6-23.2c-0.4-5-0.8-10.7-1.2-16.9C157.6,191.1,156.4,204.6,155.2,212.4z M166.2,212.3c-1.2-7.8-2.4-21.2-4.3-39.7c-0.5,6.2-0.9,11.9-1.2,16.9c0.7,10.1,1.2,17.8,1.6,23.2c0.1,1.7,0.1,4.3,0.7,4.9c0.5,0.5,3,0.2,3.4-0.4C166.9,216.6,166.5,214,166.2,212.3z" />
      <path fill="#FFFFFF" stroke="#21231E" stroke-width="0.4" d="M161.1,218.2c0.3-0.1,0.9,0,1.3-0.5c0.6-0.6,0.3-3.3,0.3-4.9c-0.3-8.5-0.5-22.8-0.8-42.9h-2.4c-0.3,20.1-0.5,34.4-0.8,42.9c-0.1,1.7-0.3,4.3,0.3,4.9c0.4,0.5,1,0.4,1.3,0.5L161.1,218.2L161.1,218.2z" />
    </g>
    <g>
      <path fill="#FFFFFF" stroke="#21231E" stroke-width="0.4" d="M154.7,192c0,1.6,4,18.6,6.1,18.6s6.1-17,6.1-18.6H154.7z" />
      <path fill="#FFFFFF" stroke="#21231E" stroke-width="0.4" stroke-linejoin="round" d="M150.9,199.5c2.9,3.6,4,6.3,4.7,9.2c2.1-2.7,2.8-5.4,1.5-8.2L150.9,199.5z M170.5,199.5c-2.9,3.6-4,6.3-4.7,9.2c-2.1-2.7-2.8-5.4-1.5-8.2L170.5,199.5z" />
      <path fill="#FFFFFF" stroke="#21231E" stroke-width="0.4" stroke-linejoin="round" d="M151.7,196.8c2.9,3.6,5.8,6.4,6.5,9.3c2.1-2.7,3-5.4,1.6-8.2L151.7,196.8z M169.7,196.8c-2.9,3.6-5.8,6.4-6.5,9.3c-2.1-2.7-3-5.4-1.6-8.2L169.7,196.8z" />
      <path fill="#FFFFFF" stroke="#21231E" stroke-width="0.4" stroke-linejoin="round" d="M146.5,195.6c2.9,3.6,4,6.3,4.7,9.2c2.1-2.7,2.8-5.4,1.5-8.2L146.5,195.6z M174.9,195.6c-2.9,3.6-4,6.3-4.7,9.2c-2.1-2.6-2.8-5.4-1.5-8.2L174.9,195.6z" />
    </g>
    <g>
      <path fill="#FFFFFF" stroke="#21231E" stroke-width="0.4" d="M135,156.4c0.1,2.9-0.5,22.3-0.6,25c-0.2,2.7-1.4,4.6-2.7,5.7c-1.2-1.6-1.9-3.8-2.1-6.4c-0.1-1.3,0.2-19.7,0.3-23.5C132.1,151.5,133.7,151.3,135,156.4L135,156.4z M186.4,156.4c-0.1,2.9,0.4,22.3,0.6,25c0.2,2.7,1.4,4.6,2.7,5.7c1.2-1.6,1.9-3.8,2.1-6.4c0.1-1.3-0.2-19.7-0.3-23.5C189.4,151.5,187.7,151.3,186.4,156.4L186.4,156.4z" />
      <path fill="#FFFFFF" stroke="#21231E" stroke-width="0.4" d="M122.3,151.7l-0.8,26.7c-0.3,2.4,2.8,16.4,4.5,19.2c4.2-1.8,5.1-11.3,4.3-20.6s0.1-17.3,0.8-19c0.1-2.1-0.3-4.3-0.3-6.5C128.1,151.6,125,151.5,122.3,151.7L122.3,151.7z M199.1,151.7l0.8,26.7c0.3,2.4-2.8,16.4-4.5,19.2c-4.2-1.8-5.1-11.3-4.3-20.6s-0.1-17.3-0.8-19c-0.1-2.1,0.3-4.3,0.3-6.5C193.3,151.6,196.4,151.5,199.1,151.7L199.1,151.7z" />
      <path fill="#FFFFFF" stroke="#21231E" stroke-width="0.4" d="M117.4,156l0.6,26.7c-0.1,2.4,3.7,16.3,5.5,18.9c4.2-3.3,3.4-16.7,2.7-20.7c-1.3-8.1-1.1-17.5-0.6-19c-0.1-2.1-0.1-4.6-0.2-6.8C122.7,155.4,120.1,155.7,117.4,156L117.4,156z M204,156l-0.6,26.7c0.1,2.4-3.7,16.3-5.5,18.9c-4.2-3.3-3.4-16.7-2.7-20.7c1.3-8.1,1.1-17.5,0.6-19c0.1-2.1,0.1-4.6,0.2-6.8C198.7,155.4,201.4,155.7,204,156L204,156z" />
      <path fill="#FFFFFF" stroke="#21231E" stroke-width="0.4" d="M113.7,162.4l7-0.2c-0.6,2.9-0.1,12,1.1,18.8c1.1,6.5,2.7,23.2-4,27.2c-4.2-8.8-1-17.4-3.1-25.1C113.1,175,112.8,168.2,113.7,162.4L113.7,162.4z M207.7,162.4l-7-0.2c0.6,2.9,0.1,12-1.1,18.8c-1.1,6.5-2.7,23.2,4,27.2c4.2-8.8,1-17.4,3.1-25.1C208.3,175,208.7,168.2,207.7,162.4L207.7,162.4z" />
      <path fill="#FFFFFF" stroke="#21231E" stroke-width="0.4" d="M140.6,151.5c0,2.9-1.1,22.3-1.4,25c-0.2,2.7-1.5,4.5-2.8,5.6c-1.1-1.7-1.8-3.9-1.9-6.5c0-1.3,0.8-19.7,1-23.4C137.8,146.5,139.4,146.3,140.6,151.5L140.6,151.5z M180.9,151.5c0,2.9,1.1,22.3,1.4,25c0.2,2.7,1.5,4.5,2.8,5.6c1.1-1.7,1.8-3.9,1.9-6.5c0.1-1.3-0.8-19.7-1-23.4C183.6,146.5,182,146.3,180.9,151.5L180.9,151.5z" />
      <path fill="#FFFFFF" stroke="#21231E" stroke-width="0.4" d="M128.1,135.7c-0.2,6.2-0.3,19.8-0.3,21c0.1,2.6,1.1,5.9,2.2,7.6c1.3-1,2.6-2.8,2.8-5.6c0.2-2.2,0.3-13.2,0.3-18.7C131.8,139,128.1,135.8,128.1,135.7L128.1,135.7z M193.3,135.7c0.2,6.2,0.3,19.8,0.3,21c-0.1,2.6-1.1,5.9-2.2,7.6c-1.3-1-2.6-2.8-2.8-5.6c-0.2-2.2-0.3-13.2-0.3-18.7C189.6,139,193.3,135.8,193.3,135.7L193.3,135.7z" />
      <path fill="#FFFFFF" stroke="#21231E" stroke-width="0.4" d="M133.1,139.7c-0.1,6.7-0.1,17.3,0,18.2c0.1,2.6,0.7,4.8,1.9,6.5c1.3-1,2.7-2.9,3-5.6c0.1-1.7,0.6-8.9,0.7-14.4C136.8,143.9,134.6,140.9,133.1,139.7L133.1,139.7z M188.3,139.7c0.1,6.7,0.1,17.3,0,18.2c-0.1,2.6-0.7,4.8-1.9,6.5c-1.3-1-2.7-2.9-3-5.6c-0.1-1.7-0.6-8.9-0.7-14.4C184.6,143.9,186.9,140.9,188.3,139.7L188.3,139.7z" />
      <path fill="#FFFFFF" stroke="#21231E" stroke-width="0.4" d="M128.8,135.2l-4.8-6.9c-1,3.4-2.1,27.7-0.8,29.7c0.1,2.6,1,4.8,2.2,6.5c1.3-1,3.3-2.9,2.7-5.6C127.6,156.1,128.2,138,128.8,135.2L128.8,135.2z M192.6,135.2l4.8-6.9c1,3.4,2.1,27.7,0.8,29.7c-0.1,2.6-1,4.8-2.2,6.5c-1.3-1-3.3-2.9-2.7-5.6C193.8,156.1,193.2,138,192.6,135.2L192.6,135.2z" />
      <path fill="#FFFFFF" stroke="#21231E" stroke-width="0.4" d="M119,150.5c-0.2,3.8-0.4,6.3-0.3,7.6c0.1,2.6,0.7,4.8,1.9,6.5c1.3-1,3-2.8,2.8-5.6c-0.7-10.5,0.5-20.5,1.8-30c-1.1-0.8-3.1-1.7-4.2-2.6C118.8,139.3,118,147.3,119,150.5L119,150.5z M202.4,150.5c0.2,3.8,0.4,6.3,0.3,7.6c-0.1,2.6-0.7,4.8-1.9,6.5c-1.3-1-3-2.8-2.8-5.6c0.7-10.5-0.5-20.5-1.8-30c1.1-0.8,3.1-1.7,4.2-2.6C202.7,139.3,203.4,147.3,202.4,150.5L202.4,150.5z" />
      <path fill="#FFFFFF" stroke="#21231E" stroke-width="0.4" stroke-linejoin="round" d="M114.2,157.4l1.3,4.9c0.1,2.6,1.7,4.8,2.8,6.4c1.3-1,2.5-2.7,2.2-5.4c-1.9-15.6-1.2-25.9,2-38.6C115.2,129.7,111.7,140.4,114.2,157.4L114.2,157.4z M207.2,157.4l-1.3,4.9c-0.1,2.6-1.7,4.8-2.8,6.4c-1.3-1-2.5-2.7-2.2-5.4c1.9-15.6,1.2-25.9-2-38.6C206.3,129.7,209.7,140.4,207.2,157.4L207.2,157.4z" />
      <path fill="#FFFFFF" stroke="#21231E" stroke-width="0.4" d="M114.6,162.2l-6.8-2.2c-0.9,6.8,0.5,15.3,2.3,26.5c1.6,9.6,0.7,17.3-0.5,22.2c7.2-1,10.3-10.3,6.7-27.8C115.4,176.2,114.4,170.3,114.6,162.2L114.6,162.2z M206.8,162.2l6.8-2.2c0.9,6.8-0.5,15.3-2.3,26.5c-1.6,9.6-0.7,17.3,0.5,22.2c-7.2-1-10.3-10.3-6.7-27.8C206.1,176.2,207,170.3,206.8,162.2L206.8,162.2z" />
    </g>
    <g>
      <path fill="#FFFFFF" stroke="#21231E" stroke-width="0.4" stroke-linejoin="round" d="M114.3,122.3l4.4,0.8c-0.2,0.9-1.3,6.8-1.6,7.8c-1.7,8.1-2.8,17.7-1.5,28.2c0.5,3.9,1.3,7.1,2.5,9.6c-4.9-0.6-8-5.3-7.6-13.6c-0.8-9.7-0.5-17.4,1.1-23.2C112.2,130.1,113.7,123.7,114.3,122.3L114.3,122.3z M207.1,122.3l-4.5,0.8c0.2,0.9,1.4,6.8,1.6,7.8c1.7,8.1,2.8,17.7,1.5,28.2c-0.5,3.9-1.3,7.1-2.5,9.6c4.9-0.6,8-5.3,7.6-13.6c0.9-9.7,0.5-17.4-1.1-23.2C209.2,130.1,207.8,123.7,207.1,122.3L207.1,122.3z" />
      <path fill="#FFFFFF" stroke="#21231E" stroke-width="0.4" d="M113.7,131.9c-0.4,2.1-1.6,4.6-1.9,7.3c-0.9,8.9-0.9,20.1,1.8,27.2c-4.9-0.6-6.6-5-6.7-13.3c-0.1-6.9,1.6-24.4,1.6-24.4L113.7,131.9z M207.7,131.9c0.4,2.1,1.6,4.6,1.9,7.3c0.9,8.9,0.9,20.1-1.8,27.2c4.9-0.6,6.6-5,6.7-13.3c0.1-6.9,0.1-15-1.6-24.4L207.7,131.9z" />
      <path fill="#FFFFFF" stroke="#21231E" stroke-width="0.35" d="M123.8,129.9l-4.5-0.5c-0.8,4.3-1.5,7.3-1.6,8.8c-0.3,3,0.6,5.7,1.6,7.7c1.7-1,2.4-3.2,3.1-6.2C123.2,136.6,123.3,133.2,123.8,129.9L123.8,129.9z M197.6,129.9l4.5-0.5c0.8,4.3,1.5,7.3,1.6,8.8c0.3,3-0.6,5.7-1.6,7.7c-1.7-1-2.4-3.2-3.1-6.2C198.2,136.6,198.1,133.2,197.6,129.9L197.6,129.9z" />
      <path fill="#FFFFFF" stroke="#21231E" stroke-width="0.4" d="M135.5,139.5h-4c-0.1,3.7-0.2,6.2-0.2,7.4c0.1,2.5,0.8,4.7,1.9,6.3c1.2-1,2.4-2.8,2.6-5.4C135.9,145.2,135.6,142.4,135.5,139.5L135.5,139.5z M185.9,139.5h4c0.1,3.7,0.2,6.2,0.2,7.4c-0.1,2.5-0.8,4.7-1.9,6.3c-1.2-1-2.4-2.8-2.6-5.4C185.5,145.2,185.9,142.4,185.9,139.5L185.9,139.5z" />
      <path fill="#FFFFFF" stroke="#21231E" stroke-width="0.4" d="M139.8,141.4l-4,0.2c0,3.7,0,6.2,0.1,7.4c0.2,2.5,0.9,4.7,2.1,6.2c1.2-1.1,2.3-2.9,2.4-5.5S140,144.3,139.8,141.4L139.8,141.4z M181.6,141.4l4,0.2c0,3.7,0,6.2-0.1,7.5c-0.2,2.5-0.9,4.7-2.1,6.2c-1.2-1.1-2.3-2.9-2.4-5.5C181,147.1,181.4,144.2,181.6,141.4L181.6,141.4z" />
      <path fill="#FFFFFF" stroke="#21231E" stroke-width="0.4" d="M131.5,137.5l-4-0.3c-0.4,3.6-0.7,6.1-0.8,7.4c-0.1,2.5,0.4,4.7,1.3,6.4c1.3-0.9,2.6-2.6,3-5.2C131.4,143.1,131.2,140.3,131.5,137.5L131.5,137.5z M190,137.5l4-0.3c0.4,3.6,0.7,6.1,0.8,7.4c0.1,2.5-0.4,4.7-1.3,6.4c-1.3-0.9-2.6-2.6-3-5.2C190,143.1,190.2,140.3,190,137.5L190,137.5z" />
      <path fill="#FFFFFF" stroke="#21231E" stroke-width="0.4" d="M127.7,133.2l-4.4-1.8c-0.7,3-1.8,12.7,0,16.8c1.5-1,2.9-2.9,3.4-5.8C127.3,139.4,127.4,136.3,127.7,133.2L127.7,133.2z M193.7,133.2l4.4-1.8c0.8,3,1.8,12.7,0,16.8c-1.5-1-2.9-2.9-3.4-5.8C194.1,139.4,194,136.3,193.7,133.2L193.7,133.2z" />
      <path fill="#FFFFFF" stroke="#21231E" stroke-width="0.4" stroke-linecap="round" stroke-linejoin="round" d="M121.9,128.3l-7,0.6c-1.6,4-2.7,7.6-3.2,10.8c3.2-0.6,5.6-2.2,6.4-5.1C119.3,130.8,121.3,129,121.9,128.3L121.9,128.3z M199.5,128.3l7,0.6c1.6,4,2.7,7.6,3.2,10.8c-3.2-0.6-5.6-2.2-6.4-5.1C202.1,130.7,200.1,129,199.5,128.3L199.5,128.3z" />
    </g>
    <path fill="#FFFFFF" stroke="#21231E" stroke-width="0.4" stroke-linejoin="round" d="M178.9,138.3c0.5-0.1,1.1-0.3,1.6-0.5c-2.6-1.6-4.7-3.6-7.2-7.4c-2.6-4,1.1-11,2.7-14.8c3.2-2.4,6.2-5.8,7.1-10.4c0.4-2.5-6.4-1.6-11.1,0.6c-5.7,2.7-6.5,1.9-8.5,2.4c-0.7,3.5,0.8,3.8,2.2,3.6c-3.1,5-4.4,10.1-5.1,17.3c-0.6-7.2-1.9-12.2-5.1-17.3c1.5,0.2,3-0.1,2.2-3.6c-2-0.4-2.8,0.3-8.5-2.4c-4.7-2.2-11.4-3.1-11.1-0.6c1,4.6,4,8,7.1,10.4c1.5,3.8,5.2,10.8,2.7,14.8c-2.5,3.9-4.6,5.8-7.2,7.4c0.6,0.2,1.1,0.4,1.6,0.5c-0.4,0.5-3.7,1.6-4.1,1.3c-2.5-1.8-5-6-7.2-8.5c-6.1-6.9-9.2-12.3-8.1-16.6c1.5-4.7,7-9.9-0.2-9c-7.3,0.9-13.3,10.9-15.2,22.8c-0.7,4.4-1.1,8.2-1.6,11.2c4-1.4,5.7-2.8,6.8-4.6c-0.5,1.7-0.8,3.2-1.1,4.7c3.2-0.6,5.6-2.2,6.4-5.1c0.3-1.2,0.8-2.2,1.2-3c1,0.4,2.3,0.3,3.9-0.1c0.6,1.4,5.1,6.4,7.5,10.1c2.7,4.1,6.8,7.3,8.1,7.5c0.7,0.1,0.9-1.4,0.7-3.5c7.1,0.1,14.2,0.1,21.1-0.1c6.9,0.2,14,0.2,21.1,0.1c-0.1,2.1,0.1,3.6,0.7,3.5c1.3-0.2,5.4-3.3,8.1-7.5c2.4-3.7,6.9-8.6,7.5-10.1c1.6,0.4,2.9,0.4,3.9,0.1c0.4,0.8,0.9,1.8,1.2,3c0.8,2.9,3.2,4.5,6.4,5.1c-0.2-1.5-0.6-3.1-1.1-4.7c1.1,1.7,2.8,3.1,6.8,4.6c-0.5-3.1-0.9-6.8-1.6-11.2c-1.9-12-8-21.9-15.2-22.8c-7.3-0.9-1.8,4.3-0.2,9c1.1,4.3-2,9.7-8.1,16.6c-2.2,2.4-4.6,6.7-7.2,8.5C182.6,139.9,179.3,138.8,178.9,138.3L178.9,138.3z" />
    <path fill="none" stroke="#21231E" stroke-width="0.5" d="M140.9,107.2c0.6,1.2,1.4,2.7,2.7,3.4c1,0.6,2.1-0.3,2.9-1.8 M180.5,107.2c-0.6,1.2-1.4,2.7-2.7,3.4c-1,0.6-2.1-0.3-2.9-1.8" />
    <path fill="none" stroke="#21231E" stroke-width="0.5" stroke-linecap="round" d="M139.7,107.1c1.5-0.1,3,0.6,5,1.3c0.6,0.2,2.5,1,3.1,0.9 M181.7,107.1c-1.5-0.1-3,0.6-5,1.3c-0.6,0.2-2.5,1-3.1,0.9" />
    <path fill="#EDB92E" stroke="#21231E" stroke-width="0.4" d="M131.8,225c2.4,6.5-0.1,11.4-2.8,9.2c-0.7-0.6-1.3-1.9-0.6-1.9c3.9,1.5,3.8-5.2,0.2-5.9c-1.3-0.2-2.1,0.5-1.9,1.8c0,0.4-0.3,0.5-0.5,0.2C121.4,222.1,130,220.2,131.8,225z M135,225c-2.4,6.5,0.1,11.4,2.8,9.2c0.7-0.6,1.3-1.9,0.6-1.9c-3.9,1.5-3.8-5.2-0.2-5.9c1.3-0.2,2.1,0.5,1.9,1.8c0,0.4,0.3,0.5,0.5,0.2C145.4,222.1,136.8,220.2,135,225z M180.8,228.5c0.2,0.3,0.5,0.2,0.5-0.2c-0.3-1.3,0.6-2.1,1.9-1.8c3.5,0.7,3.7,7.4-0.2,5.9c-0.7,0-0.1,1.3,0.6,1.9c2.7,2.1,5.1-2.8,2.8-9.2C184.6,220.2,176,222.1,180.8,228.5z M189.6,225c-2.4,6.5,0.1,11.4,2.8,9.2c0.7-0.6,1.3-1.9,0.6-1.9c-3.9,1.5-3.8-5.2-0.2-5.9c1.3-0.2,2.1,0.5,1.9,1.8c0,0.4,0.3,0.5,0.5,0.2C200,222.1,191.4,220.2,189.6,225z" />
    <path fill="#EDB92E" stroke="#21231E" stroke-width="0.4" d="M133.1,213.4L133.1,213.4c-0.4,1.2-1.6,2.6-2.7,3.6c-1.6,1.6-1.2,4.1-0.1,5.4c1.2,1.4,1.7,3.1,1.9,4.3c0.2,0.8,0.5,2.5,0.3,5.2c-0.1,1.3-0.9,2-1.7,2.6c-0.4,0.3,0.2,1,1.4,2c0.1,0.1,0.5,0.4,0.7,1c0.1,0.2,0.7,0.2,0.7,0c0.2-0.7,0.6-0.9,0.7-1c1.3-0.9,1.8-1.7,1.4-2c-0.8-0.6-1.6-1.3-1.7-2.6c-0.2-2.7,0.1-4.4,0.3-5.2c0.2-1.3,0.8-2.9,1.9-4.3c1.1-1.3,1.5-3.8-0.1-5.4c-1-1.1-2.3-2.4-2.7-3.6l0,0c0-0.2-0.1-0.3-0.3-0.3S133.2,213.2,133.1,213.4L133.1,213.4z M187.8,213.4L187.8,213.4c-0.4,1.2-1.6,2.6-2.7,3.6c-1.6,1.6-1.2,4.1-0.1,5.4c1.2,1.4,1.7,3.1,1.9,4.3c0.2,0.8,0.5,2.5,0.3,5.2c-0.1,1.3-0.9,2-1.7,2.6c-0.4,0.3,0.2,1,1.4,2c0.1,0.1,0.5,0.4,0.7,1c0.1,0.2,0.7,0.2,0.7,0c0.2-0.7,0.6-0.9,0.7-1c1.3-0.9,1.8-1.7,1.4-2c-0.8-0.6-1.6-1.3-1.7-2.6c-0.2-2.7,0.1-4.4,0.3-5.2c0.2-1.3,0.8-2.9,1.9-4.3c1.1-1.3,1.4-3.8-0.1-5.4c-1-1.1-2.3-2.4-2.7-3.6l0,0c0-0.2-0.1-0.3-0.3-0.3S187.8,213.2,187.8,213.4L187.8,213.4z M146.8,118.8c-0.7,0.6-2.9,0.6-6,0.8c-5,0.2-7.9-1.3-8.5-4.5c1.9,2.2,4.1,3.3,6.6,2.7c3.4-0.8,5.4-1.4,6.1-1.3C145.5,116.7,146.3,117.6,146.8,118.8L146.8,118.8z M174.7,118.8c0.7,0.6,2.9,0.6,6,0.8c5,0.2,7.9-1.3,8.5-4.5c-1.9,2.2-4.1,3.3-6.6,2.7c-3.4-0.8-5.4-1.4-6.1-1.3C175.9,116.7,175.1,117.6,174.7,118.8L174.7,118.8z M137.2,195.1c-1.1,0.1-2.4,0.7-6.2,4c-1.7,3.4-3.4,6.9-5.7,9.9c-0.8,0.5-1.4,0.9-2.1,1.1c-0.7,0.2-5.5,0.1-5.6-0.1c-1.5-1.4-3.8-0.4-3.1,1.1c-0.6,0.6,0.7,2.6,1.8,1.8c1-0.8,4.4,0,5.5-0.4c-0.4,1-3.5,1.7-5.6,1.8c-1.9,0.1-1.8,2-1,3.5c0.9,0.6,0.2-0.1,0.5,0.3c0.9,1.3,2.8,1.1,2.8-0.1c0.1-1.3,4.6-3,5.3-4c-0.8,2-2.8,3.9-3.7,5.8c-1,1-1.7,1.2-0.3,3.3c1.5-0.2,1.6-0.6,2.5,0.3c2-0.2,2.3-0.8,2-2.4c-0.3-1.7,1.1-4.7,1.5-5.6c0.4-0.8,0.5-1.6,1-2.1c0.7-0.9,4.2-2.6,5.1-2.1c1.6,0.9,2.9,0.4,3.1-1.2c-0.5-0.4-0.1-2.7-1.3-2.8c-0.9-0.1-1.5,0.2-2.3,0.9c-1.4,1.1-2,1.7-2.5,1.6c-1.1-0.3,1.9-1.7,4.6-5.3C137.1,199.3,137.4,196.8,137.2,195.1L137.2,195.1z M184.2,195.1c1.1,0,2.4,0.7,6.2,4c1.7,3.4,3.4,6.9,5.7,9.9c0.8,0.5,1.4,0.9,2.1,1.1c0.7,0.2,5.5,0.1,5.6-0.1c1.5-1.4,3.8-0.4,3.1,1.1c0.6,0.6-0.7,2.6-1.8,1.8c-1-0.8-4.4,0-5.5-0.4c0.4,1,3.5,1.7,5.6,1.8c2,0.1,1.8,2,1,3.5c-0.9,0.6-0.2-0.1-0.5,0.3c-0.9,1.3-2.8,1.1-2.8-0.1c-0.1-1.3-4.6-3-5.3-4c0.8,2,2.8,3.9,3.7,5.8c1,1,1.6,1.2,0.3,3.3c-1.5-0.2-1.6-0.6-2.5,0.3c-2-0.2-2.4-0.8-2-2.4c0.4-1.7-1.1-4.7-1.5-5.6c-0.4-0.8-0.5-1.6-1-2.1c-0.7-0.9-4.2-2.6-5.1-2.1c-1.6,0.9-2.9,0.4-3.1-1.2c0.5-0.4,0.1-2.7,1.3-2.8c0.9-0.1,1.5,0.2,2.3,0.9c1.4,1.1,2,1.7,2.5,1.6c1.1-0.3-1.9-1.7-4.6-5.2C184.3,199.3,184,196.8,184.2,195.1L184.2,195.1z" />
    <path fill="#EDB92E" stroke="#21231E" stroke-width="0.4" d="M131.5,229h3.9c0.7,0,1.2,0.5,1.2,1.2c0,0.6-0.5,1.2-1.2,1.2h-3.9c-0.7,0-1.2-0.5-1.2-1.2S130.8,229,131.5,229z M186.1,229h3.9c0.7,0,1.2,0.5,1.2,1.2c0,0.6-0.5,1.2-1.2,1.2h-3.9c-0.7,0-1.2-0.5-1.2-1.2C184.9,229.5,185.4,229,186.1,229z M114.7,211.9c-1.3-0.8-2.1-0.8-2.6-0.2c-0.3,0.3-0.7,0.2-0.4-0.4c0.9-2.1,2.3-2.4,3.6-1.4c0.4,0.3,0.7,0.6,0.9,0.9C116,211.2,114.9,211.6,114.7,211.9L114.7,211.9z M134,210c1.4-1,2.8-1.2,3.5-0.6c0.4,0.3,0.8,0.1,0.4-0.4c-1.5-2.1-3.2-2.2-4.5-1c-0.4,0.4-0.6,0.7-0.9,1C133,209.5,134,210,134,210L134,210z M122.8,221.9c-0.9,1.7-1.3,2.9-1,3.9c0.2,0.5,0,1-0.6,0.6c-2.2-1.9-2.2-4.1-0.8-5.6c0.5-0.5,1-0.8,1.4-1.2C122.4,220.1,122.8,221.9,122.8,221.9L122.8,221.9z M117.2,217.4c-1.3,0.6-1.8,1.2-1.7,2.2c0,0.5-0.3,0.7-0.5,0.1c-1.6-3.8,0.1-4.5,2.5-4.3C117.6,216,117.2,217.4,117.2,217.4L117.2,217.4z M206.7,211.9c1.4-0.8,2.1-0.8,2.6-0.2c0.3,0.3,0.6,0.2,0.4-0.4c-0.9-2.1-2.3-2.4-3.6-1.4c-0.4,0.3-0.6,0.6-0.9,0.9C205.4,211.2,206.5,211.6,206.7,211.9L206.7,211.9z M187.4,210c-1.4-1-2.8-1.2-3.5-0.6c-0.4,0.3-0.8,0.1-0.4-0.4c1.5-2.1,3.2-2.2,4.5-1c0.4,0.4,0.6,0.7,0.9,1C188.4,209.5,187.5,210,187.4,210L187.4,210z M198.7,221.9c0.9,1.7,1.3,2.9,1,3.9c-0.2,0.5,0,1,0.6,0.6c2.2-1.9,2.2-4.1,0.8-5.6c-0.5-0.5-1-0.8-1.4-1.2C199,220.1,198.6,221.9,198.7,221.9L198.7,221.9z M204.2,217.4c1.3,0.6,1.8,1.2,1.7,2.2c0,0.5,0.3,0.7,0.5,0.1c1.6-3.8-0.1-4.5-2.5-4.3C203.8,216,204.2,217.4,204.2,217.4L204.2,217.4z M135.1,105.8c-5.6,0.6-5.3,4.2-0.1,9.4c1,1,1.3,1,1.6-0.1c0.4-1.8,2.4-2.8,3.4-1.5c0.7,0.9,0.6,1.5,2.9,1.1c3,2.5,5.4,4.3,1.5,4.1c-1.7-0.1-3,0.9-5.3,0.8c0.7,1.3,0.8,1.4,1.1,1.5c2.2,0.4,4.4-0.9,6.6-0.5c4.8,0.9-7.7-12.9-7.5-13.5C139.8,105.8,136.4,103.3,135.1,105.8L135.1,105.8z M186.3,105.8c5.6,0.6,5.3,4.2,0.1,9.4c-1,1-1.3,1-1.6-0.1c-0.4-1.8-2.4-2.8-3.4-1.5c-0.7,0.9-0.6,1.5-2.9,1.1c-3,2.5-5.4,4.3-1.5,4.1c1.7-0.1,3,0.9,5.3,0.8c-0.7,1.3-0.8,1.4-1.1,1.5c-2.2,0.4-4.4-0.9-6.6-0.5c-4.8,0.9,7.7-12.9,7.5-13.5C181.6,105.8,185.1,103.3,186.3,105.8L186.3,105.8z" />
    <path fill="none" stroke="#21231E" stroke-width="0.4" stroke-linecap="round" d="M155.7,111.9c-1.6-0.3-2.5-0.5-3.3-0.7 M186.2,105.6c-0.5,1.3-1.3,2.5-2.6,3.6 M135.2,105.6c0.5,1.3,1.3,2.5,2.6,3.6 M128.6,209c-0.9-0.5-0.9-1.1-0.7-1.4c0.5-0.8,1-0.4,1.9,0.3 M129.8,207.8c-0.9-0.5-0.9-1.1-0.7-1.4c0.5-0.8,1-0.4,1.9,0.3 M131,206.6c-1-0.7-1-1.4-0.8-1.9c0.5-1,1.1-0.5,2.1,0.4 M132.4,205.1c-1-0.8-1.1-1.6-0.8-2.1c0.6-1.2,1.1-0.6,2.2,0.5 M133.8,203.6c-0.9-0.8-1.2-1.6-0.8-2.3c0.7-1.1,1.1-0.6,2.2,0.5 M192.8,209c0.9-0.5,0.9-1.1,0.7-1.4c-0.5-0.8-1-0.4-1.9,0.3 M191.7,207.8c0.9-0.5,0.9-1.1,0.7-1.4c-0.5-0.8-1-0.4-1.9,0.3 M190.4,206.6c1-0.7,1-1.4,0.8-1.9c-0.5-1-1.1-0.5-2.1,0.4 M189,205.1c1-0.8,1.1-1.6,0.8-2.1c-0.6-1.2-1.1-0.6-2.2,0.5 M187.6,203.6c0.9-0.8,1.2-1.6,0.8-2.3c-0.7-1.1-1.1-0.6-2.2,0.5 M165.7,111.9c1.6-0.3,2.5-0.5,3.3-0.7 M140.9,137.8c3.2,1.1,6.1,0.9,8.2-1.2c0.3-0.3,0.7-0.7,1-1 M150.5,133.7c-0.3,2.1-0.8,3.9-1.6,5.6c2.2-0.6,4-1.6,5.1-3.2 M160.7,140.3c-1.7-2.1-2.8-4.6-2.9-7.3 M153.5,133.4c0.2,2.1,0.8,4,1.8,5.4c1.1-0.8,2.1-2.1,2.6-4.1 M180.5,137.8c-3.2,1.1-6.1,0.9-8.2-1.2c-0.3-0.3-0.7-0.7-1-1 M171,133.7c0.3,2.1,0.8,3.9,1.6,5.6c-2.2-0.6-4-1.6-5.1-3.2 M167.9,133.4c-0.2,2.1-0.8,4-1.8,5.4c-1.1-0.8-2.1-2.1-2.6-4.1 M160.7,140.3c1.7-2.1,2.8-4.6,2.9-7.3 M119.3,120.9c-2.5,1.8-7.2,14.8-7.5,18.7 M202.1,120.9c2.5,1.8,7.2,14.8,7.5,18.7 M114.4,195c0.2-4.5-0.6-9.4-1.4-13.5c-1.2-5.7-1.8-10.1-1.8-15.8 M207,195c-0.2-4.5,0.6-9.4,1.4-13.5c1.2-5.7,1.8-10.1,1.8-15.8" />
    <path fill="#21231E" d="M187.4,108.3c0-0.2-0.3-0.4-0.5-0.4s-0.4,0.2-0.4,0.5c0,0.2,0.3,0.4,0.5,0.4S187.4,108.6,187.4,108.3 M143.1,110.2l-0.7-0.7c-0.4-0.4-0.1-1.1,0.6-1.8c0.6,0.2,1,0.4,1.5,0.6C144.1,109.2,143.7,109.9,143.1,110.2 M178.4,110.2l0.7-0.7c0.4-0.4,0.1-1.1-0.6-1.8c-0.6,0.2-1,0.4-1.5,0.6C177.3,109.2,177.8,109.9,178.4,110.2 M134.1,108.3c0-0.2,0.3-0.4,0.5-0.4s0.4,0.2,0.4,0.5c0,0.2-0.3,0.4-0.5,0.4C134.2,108.8,134,108.6,134.1,108.3" />
    <g>
      <path fill="#FFFFFF" stroke="#21231E" stroke-width="0.4" stroke-linejoin="round" d="M138.9,193.3l0.1-3.7c-1.5-0.7-5.1,0-6.6,3.4c-1.9,4.2-3.7,6.4-6,8.4c3.3,0.6,6.1,0,7.9-2.5C136.8,195.8,138.1,193.8,138.9,193.3L138.9,193.3z M182.5,193.4l-0.1-3.7c1.5-0.7,5.1,0,6.6,3.4c1.9,4.2,3.7,6.4,6,8.4c-3.3,0.6-6.1,0-7.9-2.5C184.6,195.8,183.4,193.8,182.5,193.4L182.5,193.4z" />
      <path fill="#FFFFFF" stroke="#21231E" stroke-width="0.4" d="M141.6,193.8l-4-1.7c-1.6,3.3-2.7,5.5-3.2,6.7c-0.9,2.4-1.1,4.6-0.7,6.6c1.6-0.4,3.5-1.6,4.7-3.9C139.7,199.2,140.4,196.4,141.6,193.8L141.6,193.8z M179.8,193.8l4-1.7c1.6,3.3,2.7,5.5,3.2,6.7c0.9,2.4,1.1,4.6,0.7,6.6c-1.6-0.4-3.5-1.6-4.7-3.9C181.7,199.2,181,196.4,179.8,193.8L179.8,193.8z" />
      <path fill="#FFFFFF" stroke="#21231E" stroke-width="0.4" d="M142.7,193.8l-4.2-0.6c-0.8,3.6-1.3,6-1.4,7.3c-0.3,2.5,0,4.8,0.9,6.5c1.5-0.8,3-2.4,3.6-4.9C142.2,199.5,142.3,196.6,142.7,193.8L142.7,193.8z M178.7,193.8l4.2-0.6c0.8,3.6,1.3,6,1.4,7.3c0.3,2.5,0,4.8-0.9,6.5c-1.5-0.8-3-2.4-3.6-4.9C179.2,199.5,179.1,196.6,178.7,193.8L178.7,193.8z" />
      <path fill="#FFFFFF" stroke="#21231E" stroke-width="0.4" stroke-linejoin="round" d="M143.4,188.1h2.5c1.5,0.7,3,4.1,1.2,7.3c-2.2,4.1-2.9,6.8-3.2,9.9c-2.5-2.3-3.6-4.9-2.8-7.8C142.3,193.5,143.5,189,143.4,188.1L143.4,188.1z M178.1,188.1h-2.5c-1.5,0.7-3,4.1-1.2,7.3c2.2,4.1,2.9,6.8,3.2,9.9c2.5-2.3,3.6-4.9,2.8-7.8C179.1,193.5,177.9,189,178.1,188.1L178.1,188.1z" />
      <path fill="#FFFFFF" stroke="#21231E" stroke-width="0.4" d="M144.5,186.3l-4.1-1.4c-1.4,3.4-2.4,5.7-2.8,6.9c-0.8,2.4-0.9,4.7-0.4,6.6c1.6-0.5,3.6-1.5,4.7-3.9C143.1,192,143.5,189,144.5,186.3L144.5,186.3z M176.9,186.3l4.1-1.4c1.4,3.4,2.4,5.7,2.8,6.9c0.8,2.4,0.9,4.7,0.4,6.6c-1.6-0.5-3.6-1.5-4.7-3.9C178.3,192,177.9,189,176.9,186.3L176.9,186.3z" />
      <path fill="#FFFFFF" stroke="#21231E" stroke-width="0.4" stroke-linejoin="round" d="M141.7,183.5l-0.9-5.5c-0.9-0.2-2.2,1.9-3.4,3.2c-0.3,0.3-0.6,0.6-0.8,0.9c-0.5,0.8-0.9,1.6-1.1,2.7c-1,4.5-2.5,6.9-4.3,9.2c3.4-0.1,6-1.3,7.3-4C140.1,186.3,141,184.1,141.7,183.5L141.7,183.5z M179.7,183.5l0.9-5.5c0.9-0.2,2.2,1.9,3.4,3.2c0.3,0.3,0.6,0.6,0.8,0.9c0.5,0.8,0.9,1.6,1.1,2.7c1,4.5,2.5,6.9,4.3,9.2c-3.4-0.1-6-1.3-7.3-4C181.3,186.3,180.4,184.1,179.7,183.5L179.7,183.5z" />
    </g>
    <g>
      <path fill="#C6363C" d="M183.2,140.7v36.4c0,6.5-2.5,12.4-6.6,16.7s-9.7,6.9-15.9,6.9l0,0c-6.2,0-11.8-2.6-15.9-6.9c-4.1-4.3-6.6-10.2-6.6-16.7v-36.4L183.2,140.7L183.2,140.7z" />
      <path fill="#FFFFFF" stroke="#21231E" stroke-width="0.4" stroke-linejoin="round" d="M183.2,163v9.4h-17.8v27.8c-1.5,0.3-3.1,0.5-4.7,0.5c-1.6,0-3.2-0.2-4.7-0.5v-27.8h-17.8V163H156v-22.3h9.4V163H183.2z M146.5,156.7c0.7-0.3,1.2-1.1,0.7-2.3c-1-2.5-4.7-0.6-4.5,2.2c0.4,6.1,7.4,3.3,10.2,2.6V146c-2.9-0.8-9.9-3.6-10.2,2.6c-0.2,2.8,3.5,4.7,4.5,2.2c0.5-1.2,0-2-0.7-2.3c-0.8-0.3-1.5,0.3-1.3,1.2c-3-1.6,2.6-4.8,5.2-0.6c0.7,1.2-1.2,2.6-1.2,3.5s2,2.2,1.2,3.5c-2.5,4.3-8.2,1-5.2-0.6C145,156.4,145.8,157,146.5,156.7z M178.7,156.6c0.2-2.8-3.5-4.7-4.5-2.2c-0.5,1.2,0,2,0.7,2.3c0.8,0.3,1.5-0.3,1.3-1.2c3,1.6-2.7,4.8-5.2,0.6c-0.7-1.2,1.2-2.5,1.2-3.5s-2-2.3-1.2-3.5c2.6-4.3,8.2-1,5.2,0.6c0.2-0.9-0.5-1.5-1.3-1.2c-0.7,0.3-1.2,1.1-0.7,2.3c1,2.5,4.7,0.6,4.5-2.2c-0.4-6.1-7.4-3.3-10.2-2.6v13.2C171.3,159.9,178.3,162.7,178.7,156.6z M142.7,178.7c-0.2,2.8,3.5,4.7,4.5,2.2c0.5-1.2,0-2-0.7-2.3c-0.8-0.3-1.5,0.3-1.3,1.2c-3-1.5,2.7-4.8,5.2-0.6c0.7,1.2-1.2,2.6-1.2,3.5s2,2.3,1.2,3.5c-2.6,4.3-8.2,1-5.2-0.6c-0.2,0.9,0.5,1.5,1.3,1.2c0.7-0.3,1.2-1.1,0.7-2.3c-1-2.5-4.7-0.6-4.5,2.2c0.4,6.1,7.4,3.3,10.2,2.6v-13.2C150.1,175.4,143.1,172.6,142.7,178.7z M174.9,178.6c-0.7,0.3-1.2,1.1-0.7,2.3c1,2.5,4.7,0.6,4.5-2.2c-0.4-6.1-7.4-3.3-10.2-2.5v13.2c2.9,0.8,9.9,3.6,10.2-2.6c0.2-2.8-3.5-4.7-4.5-2.2c-0.5,1.2,0,2,0.7,2.3c0.8,0.3,1.5-0.3,1.3-1.2c3,1.6-2.6,4.8-5.2,0.6c-0.7-1.2,1.2-2.5,1.2-3.5s-2-2.2-1.2-3.5c2.5-4.3,8.2-1,5.2,0.6C176.4,179,175.7,178.4,174.9,178.6z" />
      <path fill="none" stroke="#21231E" stroke-width="0.8" d="M183.2,140.7v36.4c0,6.5-2.5,12.4-6.6,16.7s-9.7,6.9-15.9,6.9l0,0c-6.2,0-11.8-2.6-15.9-6.9c-4.1-4.3-6.6-10.2-6.6-16.7v-36.4L183.2,140.7L183.2,140.7z" />
    </g>
  </g>
</svg>
