<svg xmlns="http://www.w3.org/2000/svg" width="450px" height="300px" viewBox="0 0 450 300">
  <path fill="#FFFFFF" d="M0,0h450v300H0V0z" />
  <path fill="#001489" d="M0,0h450v90H0V0z" />
  <path fill="#009A44" d="M0,210h450v90H0V210z" />
  <path fill="#000000" d="M225,94.8c1.575-0.002,3.018,0.877,3.739,2.277c8.893,1.061,13.57,7.5,15.198,14.989c1.902,8.754-0.113,20.657-6.289,33.155l23.727,31.484c1.26-0.589,2.505-1.209,3.734-1.859l8.721,18.461c-30.623,15.856-67.038,15.856-97.661,0l8.721-18.461c1.229,0.65,2.474,1.27,3.734,1.859l23.727-31.484c-6.177-12.498-8.191-24.402-6.289-33.155c1.629-7.489,6.305-13.929,15.198-14.989C221.982,95.677,223.425,94.798,225,94.8z M234.396,140.904c4.811-10.741,6.375-20.925,4.854-27.659c-1.345-5.957-4.361-10.382-10.35-11.325v15.38l7.5,7.5h-6v10.8L234.396,140.904z M221.1,101.92c-5.989,0.943-9.005,5.368-10.35,11.325c-1.521,6.734,0.043,16.918,4.854,27.659l3.996-5.304v-10.8h-6l7.5-7.5V101.92z M187.8,182.743l-2.566,5.421l4.152-1.114L187.8,182.743z M185.711,190.521c1.904,0.819,3.834,1.578,5.786,2.277l-1.28-3.482L185.711,190.521z M195.155,189.707l5.384-1.704l-1.548-3.471c-2.222-0.675-4.416-1.436-6.579-2.282L195.155,189.707z M201.52,190.211l-5.534,1.752l0.959,2.604c2.422,0.711,4.87,1.329,7.339,1.854L201.52,190.211z M207.498,192.568l5.93-2.432l-1.42-2.684c-2.492-0.367-4.967-0.839-7.42-1.414L207.498,192.568z M214.559,192.268l-6.086,2.491l1.179,2.652c2.693,0.42,5.403,0.729,8.121,0.927L214.559,192.268z M220.538,193.95l7.398-3.868l-1.071-1.704c-3.148,0.066-6.297-0.034-9.434-0.3L220.538,193.95z M229.227,192.118l-7.564,3.954l1.329,2.507c3.378,0.068,6.757-0.035,10.125-0.311L229.227,192.118z M235.436,193.521l5.818-3.996l-1.688-2.32c-2.5,0.412-5.017,0.718-7.543,0.916L235.436,193.521z M242.668,191.464l-5.946,4.088l1.377,2.18c2.722-0.359,5.428-0.831,8.111-1.414L242.668,191.464z M248.079,191.245l4.843-4.296l-1.977-2.395c-2.146,0.651-4.315,1.221-6.504,1.709L248.079,191.245z M254.454,188.796l-4.955,4.398l1.436,1.971c2.358-0.637,4.692-1.361,6.996-2.17L254.454,188.796z M259.393,187.709l3.284-3.959l-1.43-3.027c-1.882,0.834-3.792,1.602-5.727,2.304L259.393,187.709z M263.812,186.145l-2.861,3.445l1.43,1.73c1.083-0.438,2.158-0.895,3.225-1.371L263.812,186.145z" />
</svg>
