<svg xmlns="http://www.w3.org/2000/svg" width="450px" height="300px" viewBox="0 0 450 300">
  <path fill="#3C8BDC" d="M0,0v300h450V0H0z" />
  <path fill="#0BAC24" d="M0,0h450v150H0V0z" />
  <path fill="#EB0433" d="M0,0v300l450-150L0,0z" />
  <path fill="#FBC724" d="M80.783,88.272c-0.815,0.012-1.838,0.145-3.015,0.43c-3.901,0.945-7.576,4.597-9.986,8.933c-0.74,0.913-2.77,1.73-3.713,1.84c-0.09-0.571,0.232-2.183,0.844-3.402c0.519-1.033,2.695-3.155,5.164-4.962l2.441-1.786l-3.175,0.352c-6.174,0.682-11.432,4.194-13.954,9.356c-0.654,1.339-1.343,3.914-1.641,6.103c-0.275,2.019-0.578,3.365-0.9,4.091c-0.172,0.388-0.281,0.458-0.281,0.458c-0.031-0.001-0.329-0.301-0.672-1.34c-0.53-1.607-0.331-3.391,0.894-6.886c0.45-1.284,0.902-2.817,0.094-2.817c-0.352,0-1.53,0.707-2.711,1.496c-4.303,2.876-6.91,8.384-7.263,15.163c-0.17,3.261-0.063,4.652,0.524,6.057c0.663,1.584,0.79,3.171,0.569,3.587c-1.423-0.609-3.071-7.611-2.331-11.355l0.67-3.393l-2.148,2.058c-1.954,1.872-3.783,4.971-4.88,8.231c-0.816,2.427-0.951,3.676-0.786,7.212c0.177,3.77,0.404,4.713,1.891,7.804c0.92,1.913,2.463,4.343,3.439,5.402c1.535,1.666,1.867,2.928,1.422,3.306c-0.996-0.384-4.293-3.83-5.289-5.752c-0.542-1.047-1.313-3.07-1.709-4.495l-1.05-3.769l-1.186,3.302c-0.505,1.408-0.887,4.125-1.028,7.211c-0.19,4.174-0.078,5.48,0.71,8.075c1.621,5.338,5.829,10.678,10.84,13.771c2.009,1.24,2.792,2.088,2.847,2.752c-0.219-0.016-0.572-0.11-1.23-0.342c-3.747-1.322-7.515-4.188-10.701-8.166l-2.117-2.642l0.287,3.571c0.959,11.923,9.815,22.45,21.147,25.121c1.57,0.37,3.344,0.682,3.997,0.686c0.839,0.005,2.358,1.169,2.629,1.781c-0.068,0.011-0.104,0.023-0.208,0.031c-1.627,0.118-6.18-0.42-9.705-1.248c-1.992-0.468-5.085-1.528-6.877-2.356c-1.471-0.679-2.705-1.141-3.107-1.116c-0.068,0.004-0.236,0.04-0.335,0.158c-0.175,0.209-0.091,0.395-0.03,0.5c4.547,7.788,12.79,14.26,22.167,17.422c5.875,1.981,10.02,2.552,19.718,2.733c5.2,0.097,9.644,0.174,10.014,0.17c-0.242,0.235-0.642,0.522-1.28,0.885c-0.927,0.529-2.917,1.892-4.432,3.031l-3.045,2.289l1.167,1.578c0.501,0.678,0.863,1.404,1.818,0.97c0.721-0.327,1.87-1.354,4.344-3.455c1.421-1.206,2.614-2.022,2.803-2.111c0.073,0.569-0.25,2.073-0.935,3.446c-0.328,0.658-0.6,1.304-0.597,1.553c0.001,0.057,0.005,0.207,0.156,0.325c0.18,0.141,1.432,0.293,2.815,0.449l2.982,0.336l-0.27-2.564c-0.119-1.126-0.045-2.595,0.146-3.256l0.205-0.708l3.601,3.412l0.108,0.104h0.01c1.942,1.835,3.696,3.398,4.243,3.735c0.062,0.038,0.18,0.107,0.311,0.107c0.385,0,1.067-0.581,1.614-1.163l1.243-1.324l-2.573-2.314c-1.273-1.144-3.622-2.862-5.219-3.819c-1.038-0.621-1.667-1.013-1.994-1.273c0.026-0.007,0.05-0.015,0.079-0.022c0.483-0.12,5.442-0.321,10.892-0.403c8.847-0.133,10.485-0.278,14.728-1.301c5.848-1.41,10.675-3.357,14.728-5.952c3.637-2.329,7.651-6.266,9.13-8.98l1.614-2.962l-3.218,1.605c-2.685,1.339-5.143,1.928-9.485,2.248c-1.94,0.143-4.472,0.361-5.629,0.483c-1.629,0.172-1.672,0.057-1.672-0.067c0-0.573,1.69-1.461,4.438-1.812c3.148-0.402,7.539-2.028,10.345-3.828c6.413-4.115,11.178-12.777,11.2-20.362l0.01-3.412l-1.45,2.093c-1.965,2.837-8.735,7.754-10.486,7.754c-0.454,0-0.468-0.109-0.24-0.493c0.218-0.367,0.657-0.831,1.337-1.337c5.065-3.772,9.277-9.249,11.08-14.43c1.185-3.403,1.158-11.123-0.034-15.176l-1.203-4.085l-1.112,3.743c-1.038,3.495-4.737,9.706-6.296,10.898c-0.162,0.124-0.237,0.148-0.258,0.149c-0.419,0.021-0.114-1.702,1.532-3.87c3.514-4.631,4.778-8.752,4.321-14.153c-0.327-3.872-2.164-8.583-4.702-12.089l-2.305-3.182l-0.338,5.584c-0.26,4.307-0.927,7.458-1.604,8.421c-0.142,0.202-0.226,0.22-0.226,0.22s-0.033-0.006-0.093-0.067c-0.388-0.388-0.415-1.82,0.22-5.838c1.214-7.689-1.645-15.074-7.693-19.864c-0.887-0.702-1.74-1.285-2.068-1.336c-0.069-0.011-0.247-0.019-0.382,0.122c-0.1,0.106-0.117,0.271-0.118,0.322c-0.008,0.396,0.299,1.862,0.721,3.5c0.783,3.044,0.887,5.754,0.459,6.617c-0.081,0.164-0.151,0.176-0.151,0.176s0.039,0.021-0.014-0.032c-0.3-0.303-0.72-1.423-1.282-3.645c-0.555-2.193-1.496-5-2.101-6.248c-2.118-4.367-6.804-8.287-11.479-9.602c-1.893-0.533-2.906-0.819-3.265-0.782c-0.129,0.013-0.39,0.102-0.426,0.381c-0.051,0.384,0.505,0.773,1.149,1.288c3.403,2.721,6.131,6.488,5.783,7.394c-0.082,0.215-0.28,0.338-1.22,0.16c-0.557-0.105-0.958-0.244-1.313-0.419c-0.044-0.16-0.108-0.321-0.193-0.48c-2.39-4.503-6.438-7.969-10.441-8.939c-4.709-1.141-6.958,0.16-3.218,1.861c1.925,0.875,3.161,2.186,3.161,3.352c0,0.643-0.426,0.453-1.681-0.75c-3.712-3.555-12.015-4.595-9.76-1.222c1.221,1.828,3.264,2.77,7.363,3.397c3.917,0.599,4.835,1.004,2.829,1.247c-2.853,0.346-4.105,0.25-5.345-0.409c-2.422-1.288-2.547-0.5-0.292,1.834c2.952,3.055,5.742,4.212,9.486,3.932c3.113-0.233,5.171-0.715,6.442-1.329c0.715,0.026,1.339,0.264,2.621,0.85c1.522,0.697,2.243,1.333,2.243,1.509c0,0.188-0.144,0.325-3.9,0.167c-2.358-0.099-4.606-0.349-4.97-0.512c-0.311-0.139-0.648-0.301-0.904-0.161c-0.483,0.264-0.113,0.879,0.271,1.622c1.087,2.102,3.892,4.594,6.631,5.943c2.207,1.087,3.074,1.236,7.31,1.253c4.335,0.018,4.665,0.106,5.578,0.965c0.585,0.549,0.996,1.278,0.996,1.58c0,0.326,0.105,0.398-2.114,0.168c-2.207-0.229-5.697-1.067-7.44-1.783c-0.186-0.076-0.483-0.133-0.683,0.112c-0.138,0.168-0.125,0.412-0.094,0.558c0.235,1.117,2.789,4.752,4.677,6.491c2.515,2.318,7.913,5.19,10.628,5.63c1.133,0.184,1.402,0.402,2.112,2.006c0.479,1.084,0.844,2.174,0.844,2.432c0,0.254-0.615,0.328-0.808,0.015c-0.24-0.388-1.437-0.705-2.594-0.878c-2.309-0.346-4.533-1.383-6.5-3.038l-1.395-1.173l-0.598,0.43l0.88,2.232c1.845,4.681,2.32,5.612,4.238,8.299c2.036,2.854,5.621,6.356,7.902,7.703c0.931,0.55,1.076,0.805,1.07,2.195c-0.003,0.861-0.095,1.506-0.248,1.941c-0.191,0.543-0.36,0.593-0.617,0.409c-0.342-0.244-1.784-1.263-3.209-2.265c-2.886-2.032-4.069-3.243-5.043-5.09l-0.697-1.322l-0.716,0.175l-0.014,2.863c-0.029,5.847,1.811,13.034,4.417,17.209c2.703,4.33,2.694,4.441,1.524,7.087c-0.432,0.978-0.802,1.58-1.122,1.89c-0.148,0.144-0.24,0.163-0.24,0.163c-0.017-0.003-0.157-0.119-0.267-0.683c-0.111-0.572-0.8-1.822-1.523-2.874c-1.965-2.856-2.993-5.535-3.338-8.67l-0.475-4.31l-1.51,3.35c-1.924,4.27-2.519,8.475-2.577,17.877l-0.054,8.654l-1.57,1.805c-1.192,1.37-2.179,2.259-2.882,2.685c-0.391,0.237-0.568,0.236-0.583,0.237c-0.006-0.032-0.013-0.077-0.007-0.156c0.017-0.232,0.111-0.578,0.319-1.071c0.372-0.882,0.773-3.808,0.954-6.604c0.197-3.041,0.683-6.137,1.221-7.819c0.451-1.411,0.783-2.707,0.766-3.088c-0.003-0.059-0.002-0.193-0.127-0.319c-0.23-0.23-0.536-0.105-0.691-0.023c-1.19,0.63-5.462,5.147-7.88,8.353c-1.566,2.077-4.036,6.1-5.49,8.941c-2.874,5.618-4.086,7.255-6.193,8.557c-1.111,0.687-7.875,3.583-8.736,3.808c-0.088-0.975-0.229-3.567-0.354-6.667c-0.255-6.325-0.553-9.041-1.389-12.579c-0.116-0.49-0.081-0.592,0.637-0.773c0.744-0.187,2.657-1.748,4.31-3.425l2.833-2.873l1.92,0.596c4.618,1.434,10.823-0.043,13.808-3.32c1.188-1.305,2.676-3.373,2.923-4.017c0.03-0.078,0.073-0.251,0.04-0.374c-0.1-0.377-0.463-0.328-0.62-0.253c-0.226,0.107-1.509,0.727-2.856,1.378c-2.37,1.146-4.046,1.574-4.671,1.48c-0.015-0.002-0.013-0.005-0.025-0.007c0.108-0.271,0.618-0.8,1.831-1.601c2.269-1.499,4.744-4.58,5.531-6.913c0.267-0.793,0.68-1.933-0.02-1.933c-0.198,0-1.001,0.327-1.871,0.691c-0.828,0.346-2.356,0.631-3.404,0.631c-2.638,0-4.419,0.657-5.689,2.198c-0.533,0.647-1.06,0.824-1.325,0.774c-0.171-0.032-0.375-0.217-0.206-0.848c0.155-0.579,0.278-1.731,0.282-2.564c0.004-1.021,0.297-1.585,1.523-2.707l1.641-1.502l-0.382-0.638l-1.452,0.505c-3.024,1.054-5.67,3.261-7.008,5.869c-1.139,2.22-1.267,2.922-1.096,5.921c0.125,2.189-0.002,3.563-0.35,4.245c-0.725,1.42-3.585,3.979-5.721,5.069c-1.647,0.84-1.436,0.73-1.701,0.233c-1.584-2.961-3.974-14.306-3.905-18.593c0.066-4.124,0.288-4.415,2.5-4.979c1.216-0.31,3.087-1.192,4.151-1.956c2.021-1.451,4.593-1.7,6.393-0.671c2.954,1.689,8.787,0.193,11.67-2.875c0.727-0.774,1.304-1.356,1.035-1.765c-0.294-0.447-1.04-0.031-1.96,0.449c-1.389,0.724-3.665,0.805-5.52,0.158c-0.789-0.275-1.076-0.547-1.096-0.62c0,0,0.376-0.349,1.727-0.53c2.569-0.343,5.45-2.14,7.377-4.564c0.743-0.935,1.432-1.801,1.432-2.043c0-0.471-0.286-0.383-0.378-0.389c-0.242-0.015-0.938,0.202-1.74,0.478c-1.261,0.433-1.824,0.425-3.716-0.113c-2.278-0.648-2.61-0.634-4.405,0.302c-0.855,0.446-1.357,0.702-1.647,0.8c-0.001,0-0.003,0-0.004,0.001c-0.002-0.054-0.004-0.112-0.004-0.188c0-0.459,0.45-1.094,2.657-3.371l1.586-1.634h-2.18c-2.079,0-5.193,1.709-6.267,3.448c-0.511,0.827-1.434,2.868-2.066,4.55c-1.521,4.051-2.834,5.634-5.57,6.844c-1.302,0.576-2.539,1.017-2.648,1.017c-0.121,0-0.037-0.925,2.092-4.873c2.483-4.607,4.45-9.215,5.323-12.491c0.67-2.515,1.196-3.204,4.003-5.103c1.969-1.332,2.148-1.377,4.652-1.143c4.267,0.398,6.592-0.095,8.801-1.986c0.762-0.653,1.326-1.24,1.638-1.683c0.666-0.946,0.197-1.591-0.983-1.099c-1.368,0.571-4.364,1.013-4.893,0.81c-0.417-0.16-0.421-0.331-0.393-0.406c0.06-0.161,0.353-0.429,0.976-0.565c2.102-0.462,6.047-4.427,6.047-6.226c0-0.462-0.256-0.849-0.806-0.66c-0.192,0.066-0.459,0.229-0.771,0.448c-0.534,0.374-1.735,0.617-3.288,0.617c-2.441,0-2.82,0.14-4.052,1.685c-0.454,0.569-0.837,0.942-1.115,1.179c-0.051-0.239-0.1-0.527-0.1-0.924c0-1.034,0.329-1.717,1.589-3.042l2.304-2.421h-2.073c-1.794,0-4.239,1.788-5.225,3.732c-0.459,0.906-1.015,3.108-1.26,4.916c-0.369,2.726-0.626,3.339-1.773,4.523c-1.117,1.153-1.736,1.404-1.795,1.367c0,0-0.107-0.246,0.047-0.975c1.37-6.509,1.269-9.352-0.53-14.376c-1.025-2.864-1.013-2.951-0.398-4.239c0.411-0.862,0.743-2.443,0.74-3.505c-0.005-2.059-1.628-6.084-2.927-7.159c-0.417-0.345-1.014-0.586-1.225,0.21c-0.116,0.436-0.127,1.296-0.127,2.836c0,3.038-0.074,2.977-0.501,2.977c-0.372,0-0.517-0.168-0.517-0.182c-0.014-0.481-1.2-1.946-2.528-3.355L90.6,94.311l-0.679,1.783c-0.669,1.759-0.195,3.404,1.433,5.451c0.548,0.689,0.898,1.211,1.068,1.578c0.186,0.402,0.141,0.364-0.026,0.363c-0.566-0.002-3.213-1.594-3.916-2.448c-0.207-0.252-0.419-0.514-0.672-0.528c-0.658-0.036-0.448,0.744-0.302,1.42c0.712,3.3,4.243,5.955,8.212,6.28c3.416,0.279,3.687,0.651,3.637,8.429c-0.034,5.284-0.199,6.531-1.583,11.929c-0.856,3.34-1.685,6.126-1.715,6.156c-0.347,0.347-2.201-0.543-4.808-2.982l-2.734-2.558l0.039-2.55c0.024-1.606-0.259-3.514-0.686-4.529c-0.62-1.472-4.175-5.671-5.424-6.519c-0.145-0.098-0.361-0.206-0.52-0.206c-0.834,0-0.306,1.272,0.148,2.199c0.431,0.88,0.911,2.415,1.067,3.415c0.231,1.476,0.141,1.434-0.019,1.434c-0.178,0-0.486-0.238-0.607-0.62c-0.47-1.481-2.755-2.463-5.161-2.463c-1.575,0-1.988-0.176-3.072-1.313l-2.305-2.419l0.587,2.653c0.649,2.928,2.223,5.366,4.428,6.802c1.515,0.987,1.874,1.535,1.847,1.583c-0.095,0.168-1.025,0.351-3.064,0.264l-4.2-0.177l1.717,1.864c2.13,2.311,4.339,2.936,9.914,2.947l4.874,0.01l2.739,2.405c3.684,3.234,3.803,3.707,2.571,5.659c-4.642,7.353-6.814,15.951-5.54,22.145c0.435,2.113,0.428,3.04,0.324,3.106c-0.058,0.038-0.776-0.366-2.249-1.809c-3.166-3.102-3.457-3.741-3.72-8.148c-0.331-5.557-2.187-8.51-6.652-10.471c-0.922-0.405-1.577-0.666-1.945-0.772c-0.589-0.169-1.211,0.114-0.618,0.729c0.122,0.127,0.356,0.309,0.665,0.525c0.452,0.317,1.01,1.152,1.234,1.891c0.807,2.662,0.783,3.999,0.604,4.096c-0.029,0.016-0.48-0.152-1.306-1.181c-1.26-1.571-1.679-1.754-3.862-1.754c-2.86,0-4.839-0.594-6.042-1.725l-1.671-1.569v1.852c0,2.817,4.299,7.735,8.045,9.399c1.008,0.448,1.647,1.04,1.647,1.079c0,0-0.003-0.003-0.09,0.04c-0.624,0.31-2.539,0.211-3.935-0.41c-1.903-0.846-4.017-1.516-4.666-1.454c-0.093,0.009-0.254,0.046-0.361,0.153c-0.165,0.165-0.153,0.384-0.125,0.514c0.18,0.859,2.242,3.288,3.501,4.176c4.405,3.103,9.038,3.876,12.765,2.02l1.664-0.828l1.967,2.062c0.946,0.992,1.743,1.92,2.009,2.319c0.006,0.009,0.012,0.019,0.017,0.027c0.005,0.007,0.009,0.014,0.013,0.021c0.004,0.006,0.007,0.012,0.01,0.018c0.003,0.005,0.006,0.009,0.008,0.013c0.002,0.004,0.003,0.007,0.005,0.01c0.001,0.003,0.003,0.005,0.004,0.007l-0.012-0.087c0,0.417,1.088,1.341,2.242,2.221c2.322,1.771,3.009,2.847,3.029,4.416c0.01,0.762,0.583,2.668,1.255,4.322c1.211,2.982,1.183,2.837,1.072,12.712c-0.054,4.758-0.165,8.647-0.253,9.601c-1.327-0.404-6.225-3.014-8.178-4.447c-2.349-1.724-4.932-4.972-7.69-9.711c-4.849-8.331-8.17-12.397-12.795-15.604c-0.679-0.471-1.264-0.792-1.635-0.915c-0.469-0.155-1.066-0.002-0.853,0.625c0.064,0.187,0.251,0.452,0.5,0.725c0.541,0.595,1.352,4.433,1.746,8.88c0.21,2.367,0.684,4.929,1.119,5.771c0.626,1.21,0.483,1.652,0.066,1.652c-0.037,0-1.219-0.88-2.484-2.076l-2.188-2.07l-0.064-6.138c-0.082-7.85-1.822-17.504-3.861-21.183c-0.133-0.241-0.255-0.452-0.361-0.579c-0.358-0.43-0.784-0.256-0.942,0.242c-0.099,0.312-0.18,0.889-0.3,1.792c-0.332,2.507-1.578,5.678-2.668,6.883c-0.458,0.506-1.031,1.867-1.329,3.041c-0.301,1.186-0.728,1.764-0.764,1.789c-0.01-0.007-0.021-0.015-0.034-0.025c-0.35-0.278-0.966-1.137-1.513-2.2l-1.159-2.254l1.533-2.398c3.428-5.359,5.132-11.593,5.09-18.589l-0.026-4.094l-0.73-0.142l-0.746,1.813c-0.977,2.373-1.545,2.981-3.896,4.173c-1.162,0.589-2.656,1.703-3.312,2.482c-0.692,0.823-1.161,1.128-1.351,1.125c-0.195-0.003-0.487-0.639-0.487-2.594c0-1.328,0.112-1.544,2.035-2.89c0.806-0.565,1.414-1.168,1.754-1.508c5.175-5.175,6.377-7.46,8.292-11.961c0.704-1.702,1.175-2.981,1.387-3.727c0.127-0.446,0.262-0.94-0.064-1.15c-0.486-0.313-0.934,0.475-1.469,1.42c-1.102,1.947-2.365,2.66-5.542,2.988c-1.337,0.138-2.768,0.523-3.149,0.982c-0.494,0.595-1.48,0.541-1.48,0.153c0-0.311,0.382-1.497,0.88-2.655c0.84-1.953,0.771-1.906,2.961-2.132c3.428-0.354,6.172-1.712,9.088-4.466c2.228-2.104,5.115-6.158,5.128-7.422c0.002-0.17-0.102-0.38-0.314-0.448c-0.364-0.115-0.862,0.254-1.309,0.664c-1.278,1.169-2.118,1.369-5.317,1.011c-2.398-0.268-2.591-0.426-2.659-0.902c-0.046-0.324,0.302-1.166,0.862-1.77l0.906-0.976l1.842,0.814c1.701,0.753,2.784,0.909,4.89,0.719c3.695-0.335,8.092-2.527,9.869-4.98c0.714-0.986,1.367-2.008,1.367-2.342c0-0.66-1.194-0.606-2.165-0.476c-0.913,0.123-2.958,0.09-4.534-0.078c-1.781-0.191-2.496-0.501-2.53-0.632c-0.019-0.075,0.433-0.559,1.975-1.274c1.433-0.664,1.993-1.135,3.927-1.122c1.27,0.425,3.147,1.033,5.484,1.246c3.743,0.28,6.534-0.878,9.486-3.932c2.255-2.334,2.13-3.122-0.292-1.833c-1.24,0.659-2.492,0.754-5.345,0.408c-2.005-0.243-1.088-0.648,2.829-1.247c4.099-0.627,6.142-1.569,7.363-3.396c2.255-3.373-6.048-2.334-9.76,1.222c-1.255,1.203-1.681,1.394-1.681,0.751c0-1.166,1.236-2.477,3.162-3.352C83.792,89.287,83.227,88.237,80.783,88.272L80.783,88.272z" />
</svg>
