<svg xmlns="http://www.w3.org/2000/svg" width="450px" height="300px" viewBox="0 0 450 300">
  <path fill="#0038A8" d="M0,0h450v222H0V0z" />
  <path fill="#CE1126" d="M0,150h450v150H0V150z" />
  <path fill="#FFFFFF" d="M259.8,150L0,300V0" />
  <path fill="#FCD116" d="M7,43.9l10.2-6.2L15,26l9,7.8L34.5,28l-4.6,11l8.7,8.2l-11.9-1L21.6,57l-2.7-11.6L7,43.9z M218.5,146.1l-0.2-11.9l-7.2,9.5l-11.4-3.5l6.8,9.8l-6.8,9.8l11.4-3.5l7.2,9.5l0.2-11.9l11.3-3.9L218.5,146.1z M26.7,253.8L21.6,243l-2.7,11.6L7,256.1l10.2,6.2L15,274l9-7.8l10.5,5.8l-4.6-11l8.7-8.2L26.7,253.8z M123.3,148c0-0.7-0.1-1.3-0.2-2l26.9-3.5l-3.2-3.2l-24.1,4.8c-0.8-3.9-2.3-7.6-4.5-10.8l20.4-13.6v-4.5l-21.5,16.5c-0.4-0.5-0.8-1-1.2-1.5l22.2-19.5v-5.5h-5.5l-19.5,22.2c-0.5-0.4-1-0.8-1.5-1.2l16.5-21.5h-4.5L110,125.1c-3.2-2.2-6.9-3.7-10.8-4.5l4.8-24.1l-3.2-3.2l-3.5,26.9c-0.6-0.1-1.3-0.1-2-0.2l1.9-29.5l-3.9-3.9l-3.9,3.9l1.9,29.5c-0.7,0-1.3,0.1-2,0.2l-3.5-26.9l-3.2,3.2l4.8,24.1c-3.9,0.8-7.6,2.3-10.8,4.5L63,104.7h-4.5L75,126.2c-0.5,0.4-1,0.8-1.5,1.2L54,105.2h-5.5v5.5l22.2,19.5c-0.4,0.5-0.8,1-1.2,1.5L48,115.2v4.5l20.4,13.6c-2.2,3.2-3.7,6.9-4.5,10.8l-24.1-4.8l-3.2,3.2l26.9,3.5c-0.1,0.6-0.1,1.3-0.2,2l-29.5-1.9L30,150l3.9,3.9l29.5-1.9c0,0.7,0.1,1.3,0.2,2l-26.9,3.5l3.2,3.2l24.1-4.8c0.8,3.9,2.3,7.6,4.5,10.8L48,180.3v4.5l21.5-16.5c0.4,0.5,0.8,1,1.2,1.5l-22.2,19.5v5.5H54l19.5-22.2c0.5,0.4,1,0.8,1.5,1.2l-16.5,21.5H63l13.6-20.4c3.2,2.2,6.9,3.7,10.8,4.5l-4.8,24.1l3.2,3.2l3.5-26.9c0.6,0.1,1.3,0.1,2,0.2l-1.9,29.5l3.9,3.9l3.9-3.9L95.3,180c0.7,0,1.3-0.1,2-0.2l3.5,26.9l3.2-3.2l-4.8-24.1c3.9-0.8,7.6-2.3,10.8-4.5l13.6,20.4h4.5l-16.5-21.5c0.5-0.4,1-0.8,1.5-1.2l19.5,22.2h5.5v-5.5l-22.2-19.5c0.4-0.5,0.8-1,1.2-1.5l21.5,16.5v-4.5l-20.4-13.6c2.2-3.2,3.7-6.9,4.5-10.8l24.1,4.8l3.2-3.2l-26.9-3.5c0.1-0.6,0.1-1.3,0.2-2l29.5,1.9l3.9-3.9l-3.9-3.9L123.3,148z" />
</svg>
