<svg xmlns="http://www.w3.org/2000/svg" width="450px" height="300px" viewBox="0 0 450 300">
  <path fill="#CE1126" d="M0,0h450v300H0V0z" />
  <path fill="#FFFFFF" d="M0,75h450v150H0V75z" />
  <path fill="#FF9C10" d="M250.456,135.818l-10.768,5.05l-0.045-4.689c0,0,9.854-8.793,11.953-10.416c0,1.804-1.14,3.201-1.14,3.201V135.818z M239.259,104.563c1.521,0.131,0.336,1.557,0.417,2.401c-0.008,3.826-0.015,7.653-0.022,11.479c5.07-8.954,10.14-17.908,15.209-26.862c-1.22-0.656-2.463-1.272-3.727-1.848c-2.358-1.001-4.772-1.872-7.202-2.68c-1.173-0.414-2.366-0.772-3.567-1.098c-0.263-0.066-0.528-0.125-0.792-0.188c-1.797,6.212-3.594,12.423-5.391,18.636C235.867,104.602,237.567,104.656,239.259,104.563z M250.28,138.522l-10.584,4.6l10.402-0.45L250.28,138.522z M258.49,93.668l-18.79,28.887l-0.023,11.176c4.203-3.999,8.428-7.977,12.618-11.989c0.795-1.126-2.524-1.677-0.865-3.049c1.503-0.474,1.758-2.902,0.175-3.369c-1.304-1.915,1.18-2.93,2.745-2.72c2.179,0.099,4.424-0.474,6.555,0.131c1.173,1.122,2.254-1.694,3.405-2.328c2.199-2.212,4.398-4.423,6.574-6.657C267.177,99.895,263.019,96.5,258.49,93.668z M284.355,124.434L263.6,133.12l0.188,10.284l24.676-2.935c-0.306-2.255-0.628-4.504-1.15-6.715c-0.691-2.924-1.573-5.802-2.639-8.607c-0.018-0.044-0.033-0.089-0.051-0.133C284.544,124.817,284.433,124.632,284.355,124.434z M289.467,148.958c-0.028-1.425-0.098-2.839-0.212-4.241l-25.839,1.924l0.182,13.888h24.273L289.467,148.958z M261.859,116.473c0.021,0.898,0.916,1.589,1.163,2.45c0.573,1.207-0.566,2.274-1.272,3.126c-0.572,0.787,0.66,1.188,1.07,1.652c0.902,0.926,0.116,2.376-0.844,2.914c1.157,0.692,1.741,1.987,1.996,3.264c6.169-3.209,12.337-6.418,18.506-9.627c-2.321-4.675-5.163-9.027-8.453-12.979C269.97,110.34,265.914,113.406,261.859,116.473z M183.295,129.51l2.684-2.77c0,0-1.729-1.177-1.643-2.26c0.033-1.096,1.739-1.262,1.772-2.451c0.031-1.096-1.933-1.227-1.954-2.323c-0.128-1.188,1.514-2.462,1.514-2.462l-10.485-9.026c-3.274,4.086-6.082,8.58-8.339,13.399L183.295,129.51z M184.024,143.032l-0.182-10.101l-18.69-7.332c-1.89,4.827-3.247,9.93-3.986,15.241L184.024,143.032z M178.547,104.363l8.33,9.134c0.305-1.132,2.813-1.304,5.367-1.124c2.556,0.18,4.593-0.169,4.593,1.635c0,1.803-1.297,1.547-1.297,2.81s1.943,1.157,1.943,2.779c0,1.623-1.409,1.292-1.416,2.549c-0.005,1.039,1.47,1.094,1.47,1.094l10.357,9.921l0.045-10.597l-17.982-27.873C185.797,97.463,181.971,100.71,178.547,104.363z M195.892,127.52c-0.183,1.443,1.095,1.263,1.095,1.263v7.214l10.905,5.547l0.091-5.772C203.906,133.007,195.952,124.514,195.892,127.52z M183.659,160.53v-14.25l-22.949-1.096c-0.126,1.691-0.211,3.395-0.211,5.12c0,3.418,0.253,6.775,0.739,10.053L183.659,160.53z M196.987,142.491l10.951,0.315l-10.951-4.644V142.491z M207.367,118.07c0,0,0.162-26.982,2.6-28.428l-1.813-3.298c-4.816,1.336-9.412,3.22-13.712,5.601L207.367,118.07z" />
  <path fill="#083D9C" d="M237.467,205.628c5.79-0.226,12.948,4.437,13.248,4.635l0.721,0.476c-8.07,3.731-17.012,5.824-26.435,5.824c-9.587,0-18.677-2.165-26.855-6.019c2.423-1.851,7.015-4.839,11.695-5.104c0.156-0.008,0.31-0.008,0.465-0.003l0.189,0.002c3.942,0,6.291,1.725,8.362,3.246c1.546,1.135,2.881,2.115,4.667,2.274c2.026,0.189,4.007-1.028,6.111-2.309C231.879,207.285,234.424,205.736,237.467,205.628z M276.557,190.117c-1.699-2.786-6.847-6.085-11.702-6.503c-2.886,0.102-5.236,1.587-7.509,3.022c-1.882,1.188-3.659,2.312-5.455,2.39c-1.848,0.062-3.88-1.087-6.05-2.318c-2.452-1.394-5.024-2.842-7.635-2.731c-2.487,0.094-4.971,1.368-7.372,2.6c-2.348,1.204-4.774,2.449-7.018,2.449c-2.032,0-3.899-1.107-5.875-2.281c-2.33-1.383-4.971-2.95-8.359-2.95c-3.367,0-5.764,1.673-7.879,3.149c-1.857,1.296-3.456,2.423-5.387,2.264c-2.047-0.161-4.091-1.51-6.069-2.812c-2.208-1.456-4.492-2.961-6.946-2.961c-2.815,0-6.499,2.326-9.459,4.195c-0.479,0.303-0.998,0.63-1.49,0.929c1.102,1.598,2.269,3.144,3.501,4.633l98.007,0.341C274.791,192.422,275.698,191.289,276.557,190.117z M243.4,196.338c-1.091,0.856-2.121,1.666-4.858,1.892c-3.221,0.259-5.15-0.746-7.191-1.816c-1.937-1.016-3.938-2.038-7.007-1.975c-3.377,0.102-6.011,1.247-8.334,2.258c-1.93,0.84-3.752,1.634-5.725,1.712c-2.259,0.095-4.904-1.131-7.472-2.31c-2.367-1.087-4.604-2.109-6.408-2.02c-2.974,0.155-11.901,3.728-15.034,5.015c1.499,1.415,3.063,2.756,4.687,4.022l77.468,0.331c1.017-0.779,2.004-1.596,2.974-2.434c-2.497-2.248-8.359-6.793-15.107-6.935C246.431,193.984,244.88,195.175,243.4,196.338z M271.252,176.853c-1.894,1.101-3.823,2.237-5.719,2.156c-2.561-0.115-3.066-0.57-3.766-1.199c-0.379-0.341-0.809-0.727-1.531-1.116l-0.654-0.353l-0.336,0.663c-0.839,1.659-3.859,3.682-4.952,4.321l-2.309,1.35h29.289c0.847-1.551,1.633-3.141,2.359-4.767c-1.806-1.637-4.074-3.235-6.135-3.332C275.35,174.471,273.264,175.684,271.252,176.853z M195.663,182.675l-2.308-1.351c-1.093-0.639-4.114-2.661-4.953-4.32l-0.335-0.663l-0.655,0.353c-0.723,0.39-1.152,0.775-1.531,1.116c-0.7,0.63-1.206,1.084-3.766,1.199c-1.856,0.074-3.823-1.056-5.717-2.156c-2.011-1.169-4.088-2.376-6.247-2.276c-1.444,0.068-2.988,0.878-4.406,1.917c0.89,2.121,1.889,4.181,2.982,6.181h24.263H195.663z M223.981,174.388c-7.444,0.192-12.021,7.428-12.212,7.736l-0.688,1.107l25.866-0.016l-0.735-1.121C235.991,181.757,230.686,173.819,223.981,174.388z M218.452,169.548c-1.149,1.266-1.024,2.719-1.018,2.779l0.063,0.655l12.846,0.006l0.033-0.689c0.003-0.062,0.058-1.505-1.137-2.759c-1.135-1.19-2.961-1.794-5.427-1.794C221.341,167.746,219.538,168.353,218.452,169.548z M263.185,164.719l-0.467,0.158l-0.023,0.492c-0.172,3.587-1.56,6.548-1.573,6.577l-0.496,1.045l24.295-0.192l2.542-7.152l-1.212-0.736c-0.041,0.043-4.046,4.283-7.807,4.283c-0.069,0-0.14-0.001-0.21-0.004c-1.474-0.063-3.145-1.046-4.913-2.086C270.377,165.372,267.046,163.406,263.185,164.719z M164.322,172.809l23.045,0.182l-0.495-1.044c-0.014-0.03-1.4-2.99-1.573-6.578l-0.023-0.492l-0.467-0.158c-3.857-1.312-7.192,0.654-10.136,2.385c-1.769,1.04-3.439,2.022-4.912,2.086c-3.084,0.131-6.395-2.72-7.57-3.838C162.766,167.895,163.471,170.387,164.322,172.809z" />
  <path fill="#CE1126" stroke="#630810" stroke-width="1.4489" stroke-linejoin="round" d="M212.13,135.278l-0.182-42.026c2.189-5.231,4.38-10.101,23.361-7.395c-19.345,1.443-10.221,22.546,0.73,22.005v33.73L212.13,135.278L212.13,135.278z M195.089,165.812c-0.974-0.273-0.398-36.664-0.398-36.664s-1.553-0.699-1.625-1.818c-0.071-1.13,2.112-1.233,2.112-2.679c0-1.445-2.23-0.879-2.274-2.334c0.01-1.391,2.38-1.199,2.274-2.485c-0.125-1.449-2.655-1.234-2.763-2.57c-0.082-1.061,1.81-1.986,2.335-2.463l-1.766-0.026l-3.982,0.08c-2.829,0.003,0.049,0.609,0.008,2.223c-0.026,1.054-1.435,1.755-1.561,2.671c-0.045,0.941,2.016,1.601,2.042,2.73c0.023,1.007-2.024,1.076-1.951,2.012c0.127,1.584,1.814,1.933,1.788,2.892c-0.026,0.958-2.27,1.323-2.276,2.087c0.078,1.479,0.325,37.421,0.325,37.421c3.575,18.31,24.213,22.968,30.064-1.123C212.241,174.279,198.339,171.754,195.089,165.812z M259.161,127.381c-0.026-0.959,1.661-1.308,1.788-2.892c0.074-0.936-1.974-1.004-1.951-2.012c0.026-1.129,2.086-1.79,2.042-2.73c-0.127-0.916-1.535-1.617-1.561-2.671c-0.042-1.613,2.836-2.22,0.007-2.223l-3.981-0.08l-1.675,0.026c0.526,0.477,1.687,1.178,1.605,2.328c-0.098,1.336-1.816,1.166-1.941,2.615c-0.106,1.286,2.083,1.184,2.092,2.575c-0.044,1.455-2.138,0.888-2.138,2.334s2.047,1.549,1.975,2.679c-0.071,1.119-1.625,1.818-1.625,1.818s0.576,36.391-0.398,36.664c-3.251,5.942-17.152,8.467-22.353-0.045l0,0c5.851,24.091,26.488,19.433,30.064,1.123c0,0,0.247-35.942,0.324-37.421C261.431,128.704,259.187,128.339,259.161,127.381z" />
  <path fill="#630810" d="M208.185,161.832l9.869-0.228l-0.789,1.56c-1.381,2.73-3.33,3.942-5.547,5.139l-0.233,0.126h-10.619l1.316-1.69c1.925-2.472,5.61-4.674,5.766-4.767L208.185,161.832z M239.857,161.972l-0.236-0.14l-9.868-0.228l0.788,1.56c1.381,2.73,3.329,3.942,5.547,5.139l0.232,0.126h10.619l-1.315-1.689C243.699,164.267,240.014,162.064,239.857,161.972z M251.01,158.941l-54.023-0.18c-0.001,0-0.002,0-0.003,0c-0.577,0-1.045,0.467-1.047,1.043c-0.002,0.578,0.465,1.049,1.043,1.051l54.022,0.18c0.002,0,0.003,0,0.004,0c0.576,0,1.045-0.467,1.047-1.043C252.055,159.414,251.588,158.943,251.01,158.941z M198.866,156.284c0.196,0.164,0.434,0.244,0.671,0.244c0.299,0,0.597-0.128,0.804-0.375l2.513-3.006l2.236,2.967c0.206,0.273,0.519,0.417,0.837,0.417c0.219,0,0.44-0.068,0.629-0.211c0.462-0.348,0.554-1.004,0.206-1.466l-2.529-3.357l3.044-3.642c0.371-0.443,0.312-1.104-0.132-1.475c-0.443-0.37-1.104-0.312-1.475,0.132l-1.498,1.792l0.063-1.81c0.02-0.578-0.432-1.062-1.01-1.083c-0.601-0.023-1.062,0.432-1.083,1.01l-0.077,2.202l-1.693-2.246c-0.347-0.461-1.003-0.553-1.466-0.206c-0.462,0.348-0.554,1.004-0.206,1.466l2.858,3.793l-2.826,3.38C198.364,155.254,198.422,155.914,198.866,156.284z M209.087,156.284c0.196,0.164,0.434,0.244,0.671,0.244c0.299,0,0.597-0.128,0.804-0.375l2.513-3.006l2.236,2.967c0.206,0.273,0.519,0.417,0.837,0.417c0.219,0,0.44-0.068,0.629-0.211c0.462-0.348,0.554-1.004,0.206-1.466l-2.529-3.357l3.044-3.642c0.371-0.443,0.312-1.104-0.132-1.475c-0.443-0.37-1.104-0.312-1.475,0.132l-1.498,1.792l0.063-1.811c0.02-0.578-0.432-1.062-1.01-1.083c-0.586-0.023-1.062,0.432-1.083,1.01l-0.077,2.202l-1.692-2.246c-0.347-0.461-1.003-0.553-1.466-0.206c-0.462,0.348-0.554,1.004-0.206,1.466l2.858,3.793l-2.826,3.38C208.584,155.254,208.643,155.914,209.087,156.284z M219.49,156.284c0.196,0.164,0.434,0.244,0.671,0.244c0.299,0,0.597-0.128,0.804-0.376l2.513-3.006l2.236,2.968c0.206,0.273,0.52,0.417,0.837,0.417c0.219,0,0.44-0.068,0.629-0.211c0.462-0.348,0.554-1.004,0.206-1.466l-2.529-3.357l3.044-3.642c0.371-0.443,0.312-1.104-0.132-1.475c-0.443-0.371-1.104-0.311-1.474,0.132l-1.498,1.792l0.063-1.811c0.02-0.578-0.432-1.062-1.01-1.083c-0.593-0.023-1.062,0.432-1.083,1.01l-0.077,2.202l-1.692-2.246c-0.347-0.461-1.004-0.553-1.466-0.206c-0.462,0.348-0.554,1.004-0.206,1.466l2.858,3.794l-2.826,3.38C218.987,155.254,219.046,155.914,219.49,156.284z M230.257,156.284c0.196,0.164,0.435,0.244,0.671,0.244c0.3,0,0.597-0.128,0.804-0.375l2.514-3.007l2.236,2.968c0.206,0.273,0.52,0.417,0.837,0.417c0.219,0,0.44-0.068,0.629-0.211c0.462-0.348,0.554-1.004,0.206-1.466l-2.53-3.357l3.044-3.642c0.371-0.443,0.312-1.104-0.131-1.475c-0.445-0.371-1.104-0.311-1.475,0.132l-1.499,1.794l0.063-1.813c0.021-0.578-0.432-1.062-1.01-1.083c-0.536-0.024-1.062,0.432-1.082,1.01l-0.076,2.202l-1.693-2.247c-0.348-0.462-1.003-0.554-1.466-0.206c-0.462,0.348-0.554,1.004-0.206,1.466l2.859,3.794l-2.826,3.38C229.755,155.254,229.813,155.914,230.257,156.284z M240.661,156.284c0.195,0.164,0.434,0.244,0.67,0.244c0.3,0,0.597-0.128,0.804-0.376l2.513-3.006l2.236,2.968c0.206,0.273,0.52,0.417,0.837,0.417c0.219,0,0.44-0.068,0.629-0.211c0.462-0.348,0.554-1.004,0.206-1.466l-2.53-3.357l3.044-3.642c0.371-0.443,0.312-1.104-0.132-1.475c-0.442-0.371-1.104-0.311-1.474,0.132l-1.499,1.793l0.063-1.812c0.021-0.578-0.432-1.062-1.01-1.083c-0.525-0.016-1.062,0.432-1.082,1.01l-0.077,2.202l-1.693-2.247c-0.348-0.46-1.003-0.554-1.466-0.206c-0.462,0.348-0.554,1.004-0.206,1.466l2.859,3.794l-2.825,3.38C240.158,155.254,240.217,155.914,240.661,156.284z" />
</svg>
