<svg xmlns="http://www.w3.org/2000/svg" width="92" height="92" viewBox="0 0 92 92" fill="currentColor">
  <path d="M73.976,39.516l-7.02,2.013c-.415.145-.845.232-1.283.258-.236.014-.451.02-.648.02-1.762,0-3.368-.674-4.641-1.947-1.304-1.302-1.962-2.979-1.904-4.83l.16-6.372-4.358-6.042c-.439-.603-.764-1.255-.966-1.942-.183-.625-.276-1.265-.276-1.902,0-1.351.392-2.616,1.164-3.758.226-.334.487-.636.769-.918l-13.927-8.016c-1.234-.712-2.54-1.068-3.92-1.068s-2.686.356-3.92,1.068L4.18,22.786c-1.235.711-2.197,1.662-2.886,2.852-.69,1.191-1.034,2.497-1.034,3.921v32.895c0,1.423.345,2.73,1.034,3.921.69,1.19,1.652,2.14,2.886,2.852l29.025,16.707c1.234.712,2.54,1.068,3.92,1.068s2.686-.356,3.92-1.068l29.025-16.707c1.235-.711,2.197-1.662,2.886-2.852.69-1.191,1.034-2.497,1.034-3.921v-22.933l-.014-.004ZM24.585,53.011c.317.341.481.745.493,1.214s-.153.873-.493,1.214c-.341.341-.743.511-1.207.511s-.866-.17-1.207-.511l-7.984-7.984c-.414-.414-.621-.898-.621-1.45s.207-1.035.621-1.45l7.984-7.984c.341-.341.743-.511,1.207-.511s.866.17,1.207.511c.341.341.511.745.511,1.214s-.17.873-.511,1.214l-7.006,7.006,7.006,7.006ZM43.813,30.363l-10.104,32.306c-.147.449-.427.784-.841,1.005-.414.22-.846.257-1.295.11-.449-.147-.784-.431-1.005-.852-.22-.422-.257-.857-.11-1.307l10.081-32.284c.147-.449.427-.784.841-1.005.414-.22.846-.257,1.295-.11.449.147.788.427,1.016.841.228.414.268.846.121,1.295ZM60.063,47.455l-7.984,7.984c-.341.341-.743.511-1.207.511s-.866-.17-1.207-.511c-.341-.341-.511-.745-.511-1.214s.17-.873.511-1.214l7.006-7.006-7.006-7.006c-.341-.341-.511-.745-.511-1.214s.17-.873.511-1.214c.341-.341.743-.511,1.207-.511s.866.17,1.207.511l7.984,7.984c.414.414.621.898.621,1.45s-.207,1.035-.621,1.45ZM77.653,28.462c1.077-.827,1.862-1.881,2.356-3.162h-12.063c.493,1.281,1.277,2.335,2.352,3.162,1.075.827,2.301,1.241,3.677,1.241s2.603-.414,3.68-1.241ZM71.4,21.952c.473-.476.709-1.053.709-1.733s-.238-1.255-.713-1.728c-.476-.473-1.053-.709-1.733-.709s-1.255.238-1.728.713-.709,1.053-.709,1.732.238,1.256.713,1.729c.476.473,1.053.709,1.732.709s1.256-.238,1.729-.713ZM80.016,21.952c.473-.476.709-1.053.709-1.733s-.238-1.255-.713-1.728c-.476-.473-1.053-.709-1.732-.709s-1.256.238-1.729.713c-.473.476-.709,1.053-.709,1.732s.238,1.256.713,1.729c.476.473,1.053.709,1.733.709s1.255-.238,1.728-.713ZM66.274,12.928l5.048-6.624c.335-.448.733-.778,1.194-.988.461-.21.947-.316,1.46-.316s.999.105,1.46.316c.461.21.859.539,1.194.988l5.048,6.624,7.719,2.607c.738.237,1.313.655,1.725,1.254.413.599.619,1.261.619,1.986,0,.335-.049.668-.147,1s-.258.651-.482.956l-5.026,6.976.187,7.404c.031.983-.293,1.812-.972,2.486-.679.674-1.47,1.012-2.374,1.012-.026,0-.339-.041-.937-.122l-8.014-2.298-8.014,2.298c-.156.062-.316.098-.482.108s-.317.014-.456.014c-.912,0-1.706-.337-2.381-1.012-.675-.674-.997-1.503-.966-2.486l.187-7.45-4.998-6.929c-.223-.306-.384-.626-.482-.959-.098-.334-.147-.668-.147-1.001,0-.704.205-1.359.615-1.965s.983-1.035,1.719-1.288l7.701-2.589.002-.002Z" />
</svg>