<svg xmlns="http://www.w3.org/2000/svg" width="450px" height="300px" viewBox="0 0 450 300">
  <path fill="#FFD520" d="M0,0h450v300H0V0z" />
  <path fill="#FF4E12" d="M0,300h450V0L0,300z" />
  <g>
    <path fill="#FFFFFF" stroke="#000000" stroke-width="0.26" d="M240.87,93.795c-2.493-0.885-4.104,0.402-4.023,3.622c0.079,3.22,1.771,5.071,4.265,3.864L240.87,93.795L240.87,93.795z" />
    <path fill="#FFFFFF" stroke="#000000" stroke-width="0.26" d="M243.06,87.765c-2.077-1.64-4.015-0.937-4.973,2.138c-0.958,3.075,0.048,5.371,2.798,5.029L243.06,87.765L243.06,87.765z" />
    <path fill="#FFFFFF" stroke="#000000" stroke-width="0.26" d="M246.52,81.93c-1.79-1.952-3.815-1.569-5.254,1.312c-1.438,2.882-0.812,5.309,1.958,5.412L246.52,81.93z M244.25,110.295c-3.059,1.127-3.382,5.312-1.448,7.888c1.932,2.576,5.473,3.059,7.404,0l-5.955-7.89L244.25,110.295z" />
    <path fill="#FFFFFF" stroke="#000000" stroke-width="0.26" d="M240.71,101.44c-2.898-0.966-5.508,2.926-5.956,6.439c-0.562,4.427-6.842,5.876-3.379,12.557c0.723-4.266,3.542-6.6,5.794-6.761c2.254-0.161,5.635-0.644,7.083-3.381L240.71,101.44z M249.885,118.665c-3.382,0.805-3.865,5.312-1.45,8.532c2.066,2.756,8.531,2.093,8.371-0.644L249.885,118.665z M259.465,145.79c0.16-2.898-4.506-4.025-6.76-3.461s-6.561-0.08-7.566-2.495c-0.804,1.932,0.363,4.025,3.623,5.07c2.467,0.792,2.415,2.576,1.689,3.381C252.303,148.607,257.776,148.607,259.465,145.79L259.465,145.79z" />
    <path fill="#FFFFFF" stroke="#000000" stroke-width="0.26" d="M256.81,127.28c-3.3-1.449-5.257,0.758-6.519,2.898c-1.852,3.139-7.566-0.885-9.498,3.3c2.617-1.126,5.279,1.277,6.519,2.093c3.542,2.334,10.383,1.61,11.35-3.863L256.81,127.28L256.81,127.28z" />
    <path fill="#FFFFFF" stroke="#000000" stroke-width="0.26" d="M258.74,131.14c-3.3,2.495-4.587,5.473-4.506,7.486c0.081,2.012,2.898,6.439,5.956,6.68C261.961,141.684,262.846,134.038,258.74,131.14L258.74,131.14z M245.06,146.675c0-1.208,1.771-1.69,2.977-1.288c1.208,0.402,3.059,1.61,2.415,2.898L245.06,146.675z M226.865,140.075c-0.321-1.449,2.012-3.944,5.152-2.576c3.137,1.368,3.542,4.025,2.252,5.071L226.865,140.075L226.865,140.075z" />
    <path fill="#FFFFFF" stroke="#000000" stroke-width="0.26" d="M234.51,142.73c-0.242-0.805,2.018-2.413,5.877-1.449c3.863,0.966,4.81,3.454,4.669,5.393L234.51,142.73L234.51,142.73z M226.465,140.075c2.012-1.529,1.25-4.428-0.565-5.312c-3.3-1.61-2.092-5.795-4.185-6.6c-2.092-0.805-4.104-2.254-4.185-3.702c-1.046,2.012-0.402,3.863,1.048,5.152c1.448,1.288-1.127,6.52,0.723,7.888L226.465,140.075L226.465,140.075z M183.32,138.95c-1.69-2.656-5.715-2.173-7.405-0.322c-1.69,1.852-1.449,4.588,0.161,5.795L183.32,138.95z M192.98,135.005c-0.644-3.542-4.91-3.944-7.244-3.059s-3.944,4.427-2.415,7.003L192.98,135.005L192.98,135.005z" />
    <path fill="#FFFFFF" stroke="#000000" stroke-width="0.26" d="M199.42,134.52c1.529-2.978-1.449-7.405-4.829-8.049c-2.822-0.537-6.158-0.523-7.244-3.3c-0.684,2.415,1.127,3.944,3.22,5.312c2.092,1.368-0.403,4.91,2.978,6.922L199.42,134.52L199.42,134.52z" />
    <path fill="#FFFFFF" stroke="#000000" stroke-width="0.26" d="M199.1,134.625c-0.704-2.133,0.725-4.971,3.616-4.773c2.893,0.199,4.54,2.3,3.265,4.928L199.1,134.625L199.1,134.625z" />
    <path fill="#FFFFFF" stroke="#000000" stroke-width="0.26" d="M205.535,134.785c-0.398-2.211,1.415-4.82,4.25-4.217c2.836,0.602,4.171,2.915,2.542,5.337L205.535,134.785z" />
    <path fill="#FFFFFF" stroke="#000000" stroke-width="0.26" d="M211.93,135.8c-0.288-2.229,1.654-4.744,4.456-4.001c2.803,0.743,4.021,3.12,2.271,5.458L211.93,135.8z M163.36,172.675c-5.393,0-6.71,1.284-7.486,6.842C154.908,186.439,164.326,187.244,163.36,172.675z" />
    <path fill="#FFFFFF" stroke="#000000" stroke-width="0.26" d="M165.775,165.43c-8.29-3.139-12.798,9.98-21.008,7.646c2.938,4.669,10.059,0.008,12.717,0.483C161.992,174.364,171.731,172.674,165.775,165.43L165.775,165.43z M160.38,183.38c-4.105-1.851-8.532,4.427-7.727,7.163C153.675,194.02,163.036,191.188,160.38,183.38z M141.225,210.425c2.254,0.641,4.99,1.931,4.508,6.277c-0.483,4.346-8.693,13.2-16.098,13.684s-10.062,9.417-16.42,6.921c5.956-1.125,5.956-7.887,10.624-9.979c-3.381-1.208-5.151,6.439-9.497,6.439s-6.439,6.921-11.752,6.438c-5.312-0.482-5.871,8.427-16.5,8.533c-8.13,0.079-18.19,9.577-21.812,5.473c7.888-1.127,11.071-5.498,15.776-10.304c7.566-7.725,16.098-4.265,18.995-11.107c-3.461,2.333-7.485,3.46-11.429,3.382c-4.951-0.102-10.383,7.887-15.937,4.346c3.219-0.402,5.312-1.77,8.693-5.312c3.462-3.627,8.541-1.283,12.557-4.99c6.278-5.796,11.671-0.967,17.707-8.21c-1.69-0.804-5.312-0.242-8.693,1.529c-3.381,1.771-7.727-1.208-11.59,0.885c0.482-4.748,9.497-2.031,15.132-5.312c6.359-3.702,11.631-2.617,16.661-2.173c-7.003-0.04-9.739-6.682-19.397-4.75c-4.213,0.844-7.566-5.794-11.752-2.415c0.12-2.493,4.507-4.507,9.015-2.092c4.507,2.415,6.324-2.113,15.293,3.542c3.702,2.333,10.061-1.45,14.085,1.046c-0.523-1.529-2.817-2.496-5.513-2.294c1.69-3.46,12.596-3.018,17.345,0.444L141.225,210.425z" />
    <path fill="#FFFFFF" stroke="#000000" stroke-width="0.26" d="M148.39,205.19c-3.542-2.736-8.451,0.564-11.832-0.725c0,2.253,1.127,5.635,4.829,6.922C142.514,210.583,147.585,206.156,148.39,205.19z" />
    <path fill="#FFFFFF" stroke="#000000" stroke-width="0.26" d="M153.945,197.385c-5.554-2.817-6.52,4.185-10.866,2.736c0.161,2.012,1.771,4.508,5.312,5.071L153.945,197.385L153.945,197.385z" />
    <path fill="#FFFFFF" stroke="#000000" stroke-width="0.26" d="M157.245,191.025c-8.21-3.22-9.257,4.669-14.085,3.139c1.127,2.736,8.049,4.185,11.59,3.22L157.245,191.025L157.245,191.025z M168.51,156.495c-2.174-3.059-6.761-0.564-7.486,3.059c-0.725,3.622,1.046,8.693,4.105,7.566L168.51,156.495L168.51,156.495z" />
    <path fill="#FFFFFF" stroke="#000000" stroke-width="0.26" d="M174.065,146.835c-3.783-0.885-8.13-0.483-7.646,3.22c-1.449,0.643-1.852,5.393,2.092,6.439L174.065,146.835L174.065,146.835z" />
    <path fill="#FFFFFF" stroke="#000000" stroke-width="0.26" d="M176.56,144.34c-3.702-4.346-7.831-4.245-10.141-2.415c-4.266,3.381-8.411,1.449-8.532,4.83c2.576-1.973,4.829,0.402,6.922-0.322c2.092-0.724,3.622,3.3,9.417,1.61L176.56,144.34L176.56,144.34z M167.625,209.3c0.564,1.046,4.025,1.529,5.715-0.242c2.24-2.348-0.242-8.855-3.783-9.337C166.015,199.238,165.693,207.046,167.625,209.3L167.625,209.3z" />
    <path fill="#FFFFFF" stroke="#000000" stroke-width="0.26" d="M163.6,209.46c5.07,1.85,7.244-2.335,4.508-4.99C167.383,205.355,164.727,208.575,163.6,209.46z" />
    <path fill="#FFFFFF" stroke="#000000" stroke-width="0.26" d="M144.605,216.38c-0.966,2.898-5.956,3.382-11.59,12.396c-5.634,9.014-11.027,5.232-12.396,11.429c6.761-5.473,12.071-1.837,16.097-7.244c6.117-8.21,11.154-7.031,13.523-12.557c3.38-7.887,18.191-7.727,18.995-20.122C164.244,199.316,148.468,212.678,144.605,216.38L144.605,216.38z M271.62,94.68c6.44,2.092,6.6,10.464,14.004,13.2c7.406,2.737,8.132,9.337,14.167,7.727c-5.634-1.53-5.232-8.049-11.107-9.659c-6.892-1.888-9.498-12.396-14.973-14.005 M301.16,138.385c1.127,2.576,0.966,7.163-3.059,8.371c2.173,1.368,5.392,0.08,7.163-2.898c-2.656,5.876-0.885,11.188,3.3,12.234c-2.013-4.105,2.496-6.037,1.048-8.693c2.656,1.127,4.99,4.749,4.909,7.003c3.462-3.863-2.575-9.015-1.448-12.637L301.16,138.385L301.16,138.385z M259.465,179.755c-3.944-3.461-5.627,0.905-7.566-0.604c-1.81-1.408-4.225-1.61-5.15-0.201c3.381,0.121,1.729,2.736,8.29,3.38c-6.561,0.443-5.352,7.768-9.74,7.405c4.669,4.427,7.083-3.944,10.867-2.575c-1.127,0.322,1.771,2.977-0.242,6.519c3.26-0.08,4.588-4.588,4.992-6.922L259.465,179.755L259.465,179.755z M172.615,217.345c-1.449-1.206-5.635-1.771-7.244-0.804c-1.61,0.964-1.046,1.206,0.885,1.368c1.932,0.161,4.426,3.286,0.242,3.46c-1.932,0.079-1.288,4.748-5.312,5.071c1.65,2.012,6.359,0.684,8.049-1.529c-0.322,1.81,2.092,3.46,1.127,5.633c2.978,0.323,1.247-6.036,5.956-5.715c-1.932,0.242-1.127,4.588,2.253,3.461c-2.012,0.967-0.966,3.3,1.288,2.738c-1.449,0.483-1.932,2.333,0.081,3.381C181.872,231.754,179.698,222.256,172.615,217.345L172.615,217.345z M347.925,128.535c6.16,0,11.154-4.995,11.154-11.156c0-6.16-4.994-11.155-11.154-11.155c-6.163,0-11.156,4.995-11.156,11.155C336.768,123.54,341.762,128.535,347.925,128.535z" />
    <path fill="#FFFFFF" stroke="#000000" stroke-width="0.26" d="M289.65,142.01c3.382-3.22,8.534-4.829,12.073-2.415c3.542,2.415,15.294,5.312,21.09,1.288c5.794-4.025,8.531-6.117,11.107-5.635c1.934,2.898,4.267,4.266,7.164,4.508c0.885,0.966,4.025,1.771,5.796,1.529c2.575,0.644,5.715-0.161,8.208-2.898c3.865,0.564,7.486-2.334,8.854-6.68c4.104-0.483,4.346-5.072,1.771-8.13c-2.415-0.482-0.562-8.613-9.337-7.003c3.704,2.254,0.885,6.761,3.945,8.854c-2.094,0-4.789,0.885-5.434,4.025c0.805-2.174-0.121-3.622-0.685-4.105c0.081-1.852-4.023-6.399-7.888-4.749c2.777,0.604,1.208,5.071,3.22,6.761c-1.45,0.08-2.979,0.805-3.865,2.092c-1.046-1.851-4.748-3.783-7.002-3.944c0-0.644-0.121-1.932-0.402-2.575c-1.007-1.932-1.852-4.226-1.45-7.164c-1.931,2.092-3.542,4.99-4.507,7.083c-3.058-2.092-10.625,0.966-14.167,1.771s-15.454-1.127-18.191-4.024c-2.735-2.897-8.048-4.668-13.038-6.117c-6.862-1.992-6.923-9.497-14.49-14.649C272.265,109.17,286.432,138.79,289.65,142.01L289.65,142.01z M210.77,213.16c5.956,0,10.786-4.829,10.786-10.785s-4.829-10.785-10.785-10.785s-10.785,4.829-10.785,10.785C199.985,208.331,204.814,213.16,210.77,213.16L210.77,213.16z" />
    <path fill="#FFFFFF" stroke="#000000" stroke-width="0.26" d="M185.01,204.87c2.173,2.818,5.876,2.657,7.405,2.415c1.288,3.38,5.393,3.3,7.163,5.15c1.771,1.852,7.807,1.692,9.577,0.644c-1.609-0.16-3.701-1.125-5.714-2.816c-2.429-2.04-1.288-6.117-3.22-7.566c1.449-1.61,1.691-4.266,1.368-5.312c1.53-0.885,2.656-2.335,2.818-3.059c2.656-0.161,4.99-1.529,5.956-2.575c1.368,1.288,4.829-0.403,6.682,1.77c0.402-5.312-4.669-8.13-8.05-6.359c-1.369-0.724-4.99-0.241-5.634,0.725c-1.127-0.484-4.266,1.126-5.715,2.173c1.61-0.885,1.851-3.542,1.207-4.508c1.368-0.564,2.898-2.415,3.059-3.783c1.932,0.322,4.829-0.966,6.117-0.644c-2.092-2.736-5.553-3.702-9.094-3.461c-3.663,0.202-5.232,2.777-5.714,5.554c-2.173,1.288-2.898,5.634-2.092,7.163c-1.248-0.04-2.415,1.167-2.898,1.852c-1.69-0.725-4.105-1.247-5.835-1.247 M183.16,186.6c-0.725-2.092,0.235-3.977,0.725-5.634c1.247-4.225,0.483-5.312-3.3-4.749C180.262,178.23,182.195,184.83,183.16,186.6z" />
    <path fill="#FFFFFF" stroke="#000000" stroke-width="0.26" d="M180.385,176.455c0.966,0.966,4.387,1.408,4.749-1.65c0.416-3.511-1.006-4.87-4.065-3.501C180.828,172.109,180.546,175.409,180.385,176.455L180.385,176.455z" />
    <path fill="#FFFFFF" stroke="#000000" stroke-width="0.26" d="M181.11,171.185c1.288,0.523,4.065,1.57,5.594-1.408c1.283-2.498-0.402-4.427-3.059-4.266C183.001,166.235,181.714,168.81,181.11,171.185L181.11,171.185z" />
    <path fill="#FFFFFF" stroke="#000000" stroke-width="0.26" d="M183.485,165.27c0.322,0.966,3.622,4.185,6.036,1.852c2.415-2.335,2.415-5.795-1.208-7.083C187.348,160.199,184.451,163.58,183.485,165.27L183.485,165.27z" />
    <path fill="#FFFFFF" stroke="#000000" stroke-width="0.26" d="M188.31,160.04c0.725,2.012,2.978,5.473,7.163,3.863c4.186-1.61,2.415-6.842,0.483-7.888C194.829,156.095,190.242,158.188,188.31,160.04z" />
    <path fill="#FFFFFF" stroke="#000000" stroke-width="0.26" d="M195.96,156.015c-0.322,1.771,0,6.6,5.714,6.52s4.105-6.761,2.656-7.727C201.996,154.807,198.053,154.887,195.96,156.015L195.96,156.015z" />
    <path fill="#FFFFFF" stroke="#000000" stroke-width="0.26" d="M204.57,155.045c-0.644,1.368-2.095,10.375,9.096,7.888C215.114,162.611,218.897,154.32,204.57,155.045z" />
    <path fill="#FFFFFF" stroke="#000000" stroke-width="0.26" d="M210.685,155.85c-1.125,1.126,1.771,10.222,9.337,8.693S221.231,154.401,210.685,155.85z" />
    <path fill="#FFFFFF" stroke="#000000" stroke-width="0.26" d="M217.125,157.22c-1.206,2.495,0.606,9.9,9.941,9.9C235.527,167.12,226.623,157.381,217.125,157.22z" />
    <path fill="#FFFFFF" stroke="#000000" stroke-width="0.26" d="M224.45,159.395c-0.606,1.383-1.348,9.234,9.658,9.9C242.077,169.778,240.146,158.509,224.45,159.395z" />
    <path fill="#FFFFFF" stroke="#000000" stroke-width="0.26" d="M236.285,162.695c-1.367,2.415-2.816,8.452,9.257,8.934C253.277,171.939,248.521,162.856,236.285,162.695z" />
    <path fill="#FFFFFF" stroke="#000000" stroke-width="0.26" d="M246.345,164.545c-1.771,2.415-0.467,7.152,4.023,8.049c5.635,1.127,6.439-4.185,2.577-6.761C249.08,163.257,246.345,164.545,246.345,164.545L246.345,164.545z" />
    <path fill="#FFFFFF" stroke="#000000" stroke-width="0.26" d="M251.82,165.67c-1.288,2.254-0.49,7.727,8.048,7.727C261.639,173.397,268.402,166.475,251.82,165.67z M185.74,270.635c6.915,0,12.521-5.607,12.521-12.521c0-6.917-5.606-12.523-12.521-12.523s-12.521,5.607-12.521,12.523C173.219,265.029,178.825,270.635,185.74,270.635z" />
    <path fill="#FFFFFF" stroke="#000000" stroke-width="0.26" d="M277.575,88.565c-0.966,0.966-2.977,3.864-3.382,4.99c-4.185,12.557,6.987,21.936,13.523,35.415c5.152,10.625,4.509,27.367-3.542,37.991c-2.754,3.635-1.931,4.669-5.473,8.371c-1.358,1.421-2.898,3.22-2.414,8.371c2.254-0.805,5.473,1.288,6.116,3.059c1.61-0.805,3.865-0.483,4.668,0.482c2.736-1.288,4.99-0.644,7.404,1.932c2.094-0.322,4.348,0,6.44,2.253c1.127-2.253,3.381-3.059,4.99-2.576c-0.16-2.898,2.737-4.99,5.312-3.863c-0.805-3.863,2.737-6.762,6.119-5.635c2.896-2.253,8.691-2.415,11.59,0.966c-5.152-1.449-4.99,4.025-9.337,3.542c1.127,3.22-1.771,5.071-4.667,6.117c1.85-0.885,3.862-1.932,4.507-0.805c1.61-1.408,4.829-0.885,5.635-0.161c2.132-0.684,4.186-0.161,5.15,2.415c2.898,1.771,4.83,6.278,2.738,9.659c-0.644-3.542-3.059-3.38-4.025-4.829c-2.254,0.805-4.509,0.805-5.152-0.644c-1.288,1.288-5.634,2.415-7.565,0.483c-0.725,2.898-3.22,5.312-6.118,5.312c0.806,2.253-1.448,6.118-3.219,8.049c2.737,1.448,1.931,4.669,1.288,6.6c4.185,0.643,0.644,4.346,7.888,6.76c-3.539,1.127-10.462,0-11.429-4.346c-3.542-0.16-5.957-3.702-5.794-7.406c-2.737-2.575-3.139-6.277,0.644-8.852c-3.221,0.966-4.992-4.185-9.66-2.092c-2.321,1.041-8.45-0.725-8.369-2.898c-0.967,1.61-6.841,0.967-7.648-1.77c-1.931,1.046-6.44-0.725-6.358-3.381c-2.496,1.127-5.875-0.885-5.715-3.461c-2.333-0.322-2.575-2.415-2.414-4.185c-2.094-0.967-1.53-2.979-0.725-5.393c-1.448-1.61-0.805-3.863,0.323-5.956c-1.61-1.61-1.288-3.542-0.806-5.795c-7.727-0.644-17.406-2.508-39.6-9.337c-33.484-10.303-42.499,13.844-35.094,28.976c8.544,17.46-0.966,21.25,1.932,34.29c3.059,0.643,4.668,3.219,4.508,5.956c1.81,0.079,3.098,1.769,2.454,4.99c1.529-0.281,3.501,0.16,4.789,1.447c1.127-2.092,4.83-2.575,6.762-0.16c4.185-0.324,6.278,3.058,6.117,7.243c2.253,4.025,1.448,8.936-0.967,12.073c0.242-1.689,0-4.104-0.079-5.552c-0.15-2.665-3.865-3.221-3.462-5.394c-1.932,0.161-3.783-0.885-4.427-2.333c-1.127,0.964-2.737,1.288-4.105,0.804c2.173,0.967,3.863,4.829,3.219,7.404c1.127,1.934,0.885,5.475-0.483,7.004c-0.644,3.138-3.059,4.265-6.197,2.896c1.771-1.125,2.415-3.137,2.334-4.829c-1.126-0.964-1.69-2.816-1.77-3.943c-3.139,0.483-7.486-2.173-8.287-3.223c-6.915,0-12.521,5.607-12.521,12.523c-0.322-2.577-3.58-5.115-3.178-7.288c-1.932-5.956,0.805-11.51,8.693-12.635c-0.965-2.254,2.415-4.59,1.127-7.165c-1.645-3.29-4.668-7.566-9.175-12.557c2.736-4.669,1.932-10.946,0.322-14.81c-2.311-5.548-4.508-4.185-12.717,4.829c-13.38,14.691-31.23,10.625-47.006,20.283c-4.192,2.566-8.37,3.542-3.864-0.965c4.507-4.508,16.42-9.014,24.147-12.878c14.47-7.236,26.723-19.318,31.552-42.82c11.348-55.23,53.12-37.025,79.52-26.723c24.785,9.673,20.284-12.235,7.727-25.435c-15.092-15.866-12.073-28.331-4.99-38.312c12.717-1.771,37.106,2.656,32.196,6.923V88.565z" />
    <path fill="#FFFFFF" stroke="#000000" stroke-width="0.26" d="M322.41,224.24c7.608,0,13.777-6.167,13.777-13.775c0-7.609-6.169-13.777-13.777-13.777s-13.777,6.168-13.777,13.777C308.633,218.074,314.802,224.24,322.41,224.24L322.41,224.24z" />
  </g>
  <g>
    <path fill="none" stroke="#000000" stroke-width="0.26" d="M269.85,89.205c-3.059,13.522-0.483,19.639,4.025,25.596c9.315,12.311,16.742,40.406,6.116,58.755" />
    <path fill="none" stroke="#000000" stroke-width="0.26" stroke-linecap="round" d="M285.945,157.705c1.288-0.483,3.702-2.012,4.267-4.669 M286.91,151.83c0.402-2.334,4.023-3.34,4.104-5.835 M286.99,142.73c-0.241-2.415,3.623-4.588,3.059-7.003 M284.9,134.04c-0.323-1.368,3.219-3.944,2.254-6.117 M282.245,125.59c-0.725-1.53,1.69-3.3,0.644-4.91 M278.38,118.825c-0.241-1.046,1.248-3.34,0.444-4.708 M274.515,110.86c0.321-0.402,1.61-1.368,1.085-2.576 M271.86,105.025c0.523-0.282,2.091-0.765,1.892-1.932" />
    <path fill="none" stroke="#000000" stroke-width="0.26" stroke-linecap="round" stroke-linejoin="round" d="M191.29,256.785c-3.22-1.127-7.244,0.483-8.049,3.221 M185.655,262.5c0.402-2.735,4.588-3.944,5.876-2.656c-2.656-1.448-3.944,3.703-1.61,3.865 M211.575,198.835c-1.931,0.966-2.493,4.508,0,7.165 M214.47,199.64c-1.367,1.127-1.288,4.508,0.725,5.312c-1.69-1.208,0-3.3,1.208-3.38c1.206-0.081,2.01,1.368,0.562,2.817 M327.56,207.605c-4.506-1.206-8.129,4.025-4.025,8.694c-0.079-4.508,3.14-7.486,7.083-6.682 M328.805,212.735c-1.108,0-1.731,0.867-1.731,1.71c0,0.886,0.764,1.732,2.013,1.732c0.806,0,1.45-0.925,1.45-1.65 M344.7,113.915c0.725,2.737,4.509,3.864,7.486,3.22 M352.185,115.365c-2.333,0.08-4.265-2.092-4.104-3.944c0,1.368,3.139,2.012,4.104,1.127" />
    <path fill="none" stroke="#000000" stroke-width="0.26" stroke-linecap="round" d="M192.415,207.285c-0.644-1.61,1.932-3.22,2.012-4.75c0.08-1.529,2.898-2.736,5.795,0.161 M198.855,185.555c-0.564,0.242-1.046,0.564-1.529,0.725 M204.41,194.325c-0.684,0.04-2.092-0.04-2.857-0.564 M201.595,197.385c-0.564,0.282-1.811,0.765-2.536,0.926 M173.985,246c-0.081,1.45,1.368,3.542,2.173,4.185 M180.265,242.54c-0.805,1.206-1.288,3.3-0.805,4.748 M192.255,247.37c-1.449-0.967-0.483-3.462-0.644-5.071c-0.161-1.61,1.69-4.185,5.312-2.012 M178.735,238.195c1.449-0.242,2.978-0.163,3.944,0.24 M197.085,233.605c-0.644,0.885-0.805,1.852-0.885,2.496 M203.845,233.445c-1.127,0-2.092,0.804-2.576,1.61 M188.23,192.235c1.288,0.443,4.628,2.495,4.749,4.628 M201.915,181.77c-3.944-0.081-5.473-4.105-2.495-4.105 M209,187.16c-1.529,0.644-0.804,3.3,1.368,4.588 M199.58,212.435c-0.765-0.965,0.242-3.781,2.736-2.938 M205.455,241.815c0.16-2.454,3.26-3.904,4.508-1.127 M194.025,248.815c-0.202-2.696,1.167-3.581,2.374-3.742c1.208-0.161,2.939,0.844,3.743,2.615 M170.04,250.83c0.161-1.61,1.529-3.3,2.978-3.059 M317.335,179.355c-1.048,0.765-1.731,4.185,2.252,4.508 M311.22,184.99c0,0.402,0.523,0.966,0.846,1.208 M330.215,191.43c-1.046-0.805-3.743,2.455-1.288,4.829 M304.62,218.475c-0.604-2.294,1.529-2.898,3.542-2.415 M299.47,202.215c1.207-0.805,2.415-1.69,3.944-2.092 M298.825,211.065c0-1.931,0.965-3.54,1.85-4.023 M305.905,188.855c-0.16,2.334,0.806,4.588,1.531,5.795 M325.065,189.015c-1.168,0.363-2.215,0.805-2.656,1.771 M323.775,195.615c0.565-0.483,1.208-1.046,1.49-1.449 M354.2,125.345c0,2.254-2.816,3.461-4.667,2.012 M360.32,125.425c1.246,0.966,5.552,0.04,4.546-2.455 M355.085,138.385c-0.885-0.161-2.415-1.127-3.059-1.932 M363.94,131.705c-1.448,0.322-2.415,0-3.14-0.322 M341.08,139.755c0.804,0,2.735-0.322,4.065-1.006 M338.665,125.51c-1.046-0.12-1.812,0.08-2.415,0.483 M354.885,129.45c-0.281,1.007-1.007,2.576-1.892,3.26" />
    <path fill="none" stroke="#000000" stroke-width="0.26" stroke-linecap="round" stroke-linejoin="round" d="M335.93,132.995c2.013-0.885,4.509,5.956,9.337,3.542 M345.67,129.45c-0.644,0.885-1.046,2.254-1.127,3.461" />
    <path fill="none" stroke="#000000" stroke-width="0.26" d="M249.405,118.99c0.644-0.08,1.771-0.322,2.012-1.127 M166.58,193.925c2.415,1.368,4.105,3.702,3.059,7.163 M277.25,111.585c0.725,0.483,3.462,0.483,4.991-0.08 M284.175,113.195c-0.082,1.127,0.241,5.393-1.931,6.278 M283.05,118.91c2.013,0.644,6.038,0.402,7.325-3.3 M287.555,118.745c1.046,1.61,1.366,4.749-1.771,6.439 M288.36,121.405c2.333,0.805,7.727,0.885,7.163-3.702 M293.675,121.405c1.61,2.254,8.694,4.91,7.566,0.242 M287.155,127.92c2.735,0.644,6.6-1.207,4.99-6.036 M299.87,124.3c0.402,1.852,9.417,3.783,8.211-0.402 M306.39,126.315c1.691,3.863,10.625,3.542,7.809-1.61 M312.75,128.725c1.771,2.173,9.66,0.885,6.521-4.346 M319.185,128.645c4.91,3.702,10.625-1.61,4.427-5.474 M326.43,127.44c4.348,3.461,9.66-2.817,5.877-4.588 M292.06,125.99c1.368,0.402,4.267,0.242,4.91-2.254 M295.885,125.425c-0.16,3.663,5.998,5.071,7.566,0.845 M301.4,128.565c1.127,2.415,6.519,3.38,7.404-0.081 M307.92,130.095c0.885,2.415,5.554,2.173,6.841-0.322 M313.07,131.385c1.448,3.139,7.404,3.139,8.773-1.449 M320.8,131.945c2.333,1.449,7.325,0.885,6.921-3.622 M326.755,131.545c3.46,2.818,8.371,0.081,5.957-4.669 M332.47,135.245c1.852-0.322,2.816-4.025,0.885-4.99 M289.57,135.89c3.862-2.092,4.587-5.634,1.931-9.095 M292.87,132.35c2.415,1.449,7.002-0.08,7.806-3.622 M296.17,132.75c1.366,1.77,1.608,3.944-0.163,5.956 M297.295,135.005c4.265-2.656,9.577,2.254,5.634,5.232 M302.205,134.765c0.966-0.242,2.656-2.012,2.816-4.025 M304.135,136.615c1.771-1.852,13.846,1.932,6.198,5.795 M309.77,131.545c2.333,0.885,3.542,4.186,0,5.312 M312.83,139.595c2.575-2.656,10.625-0.966,7.727,2.415 M318.625,138.545c1.448-4.91,10.06-1.852,7.244,0.161 M316.855,133.635c0.241,0.966,0.321,3.38-1.288,4.669 M324.1,132.67c0.321,0.805,0.241,2.334-0.483,3.3 M329.57,132.75c0.483,0.885,1.288,2.576-0.483,3.944 M260.675,95.725c0.079,4.588,1.69,7.646,7.888,4.749 M262.605,101.2c-3.059,4.105,0.402,8.532,6.44,4.105 M253.185,103.21c4.185,4.507,11.671,1.207,6.841-5.634 M265.1,107.075c-0.806,4.427,2.816,5.312,5.794,3.3 M249.485,103.935c0.762,4.451,5.312,7.968,9.739,5.232 M254.96,110.055c0,6.359,8.773,7.083,10.786,0.483 M262.605,114.56c2.816,5.795,8.934,3.461,10.946-0.08 M256.405,105.305c1.127,2.817,3.382,5.956,8.612,3.622 M240.31,103.935c0.725,2.334,4.91,5.151,9.74,1.932 M243.285,106.915c-2.577,3.783,2.575,7.325,8.773,1.69 M246.345,111.585c1.046,5.312,3.137,9.578,10.704,2.737 M253.265,117.055c2.738,3.38,6.923,5.473,10.867-0.242" />
    <path fill="none" stroke="#000000" stroke-width="0.26" d="M267.03,118.02c-0.241,4.024,0.562,6.036,3.702,5.876c2.475-0.127,4.829-2.092,6.198-4.185 M270.17,123.9c-0.082,4.588,3.54,8.21,10.302,3.541 M272.985,129.29c-1.288,3.461,2.575,9.095,10.142,6.197 M256.97,120.115c-0.482,4.427,3.623,7.405,10.223,1.69 M260.19,125.025c0.241,3.622,4.346,7.968,10.384,1.69 M263.085,129.615c-0.483,6.197,5.232,7.969,10.06,3.22 M254.475,125.025c1.288,0.08,2.333-1.046,2.977-1.852 M257.21,129.53c1.127,0.242,3.06-0.805,3.704-2.092 M260.03,136.855c1.288,1.368,5.634,0.402,6.196-1.449 M264.86,136.775c2.415,5.634,8.852,5.393,11.509-0.966 M275.16,138.065c1.207,3.3,4.267,5.393,9.257,4.266 M277.575,141.445c-2.816,4.588,0.885,9.98,7.163,4.669 M279.105,148.285c-0.321,2.898,2.335,6.197,5.957,6.6 M267.19,139.835c-0.966,6.52,3.702,9.659,9.579,6.197 M260.35,142.975c1.529,1.208,4.267,1.368,6.841,0.402 M270.33,147.16c-1.45,5.473,4.185,9.417,9.014,3.3 M262.525,143.86c0.082,2.817,2.819,5.876,7.566,4.99 M283.37,154.485c-3.221,2.173-3.865,6.036,0.644,8.531 M275.48,153.355c0.163,3.3,1.691,5.152,5.312,5.473 M270.735,151.665c-4.829,4.427-0.082,9.579,5.634,5.232 M274.115,158.265c-1.61,5.071,4.427,8.13,7.646,2.978 M264.135,147.48c-1.771,4.99,0.483,8.29,4.587,7.969 M257.775,146.515c0.241,2.978,2.816,4.025,5.715,3.38 M259.625,149.655c-2.173,4.185,1.127,6.439,5.475,4.829 M278.3,163.82c-0.725,2.656-0.323,4.588,3.621,5.473 M278.54,167.605c-4.75,2.174-5.152,6.762-1.45,9.739 M274.715,162.495c-2.493,2.254-2.013,6.157,0.725,7.686 M253.59,147.805c-2.738,2.697-0.121,10.141,5.914,6.077 M269.285,157.22c-3.704,3.059-2.013,8.613,4.104,7.083 M263.165,154.885c-1.931,5.473-0.079,7.405,4.267,7.486" />
    <path fill="none" stroke="#000000" stroke-width="0.26" d="M249.565,147.56c-3.3,2.495-2.415,6.036-0.965,7.646c1.449,1.61,4.184,0.885,5.07-1.208 M242.64,145.39c-3.702,4.749,0,10.383,5.234,8.693 M262.445,159.475c-3.784,1.368-6.669,4.803-4.348,7.807c1.369,1.771,7.325,2.012,9.015-4.829 M255.6,155.045c-2.173,3.139-1.45,6.117,2.575,7.646 M255.36,160.925c-2.335,1.288-3.865,2.818-3.3,5.635 M250.13,156.015c-0.885,3.783,0.16,6.117,2.493,7.244 M250.05,160.52c-3.623-0.242-5.473,1.288-4.266,4.829 M246.105,161.405c-3.542-1.288-4.107-4.346-2.577-7.566 M243.045,158.59c-3.865,0.161-5.554,2.092-5.554,4.749" />
    <path fill="none" stroke="#000000" stroke-width="0.26" d="M237.81,143.535c-2.816,1.208-3.702,4.99-2.656,7.083c1.048,2.092,4.348,2.254,6.361,0.885 M229.925,140.56c-2.575,2.898,0.402,8.532,4.992,7.163 M223.325,138.305c-2.415,3.38,0.242,9.015,6.439,7.405 M230.085,161.405c-0.644-4.025,3.542-6.68,8.694-1.449 M236.285,151.83c-1.529,1.368-2.252,3.542-2.012,5.312 M216.725,136.375c-2.656,4.508,0.565,8.613,6.279,7.003 M231.615,147.56c-3.783,3.783-2.496,7.566,0.321,9.739 M229.2,151.99c-5.714,0.08-6.036,6.68-1.367,8.773 M224.855,145.39c-2.333,1.61-3.059,6.036,0.967,7.807 M224.695,155.29c-2.415-1.127-5.312,0.242-5.071,3.059 M221.07,155.37c-2.173-5.152-8.531-4.266-7.967,1.046 M222.84,149.01c-1.367,0.242-4.104,1.046-5.15,3.139 M218.095,143.215c-2.575,2.898-0.565,6.359,1.529,7.083 M210.45,135.085c-0.484,3.461,0.885,5.152,5.232,4.829 M211.975,139.515c-1.691,4.185,0.562,6.036,4.908,5.795 M212.94,144.665c-2.575,3.059-0.804,6.359,1.69,7.727 M211.735,148.53c-4.587-0.564-5.312,4.749-3.783,7.244" />
    <path fill="none" stroke="#000000" stroke-width="0.26" d="M208.03,134.685c-2.816,1.208-4.426,4.749-2.896,6.922s4.588,1.449,6.278,0.322 M206.1,142.57c-2.334,3.542-0.242,6.197,2.254,7.244" />
    <path fill="none" stroke="#000000" stroke-width="0.26" d="M197.085,134.28c-1.851,1.932-0.725,5.876,3.783,5.956c3.629,0.065,5.473-3.38,4.346-5.795 M200.225,140.235c-1.449,3.22-0.564,6.68,4.91,6.117 M207.47,151.425c-3.38-1.529-7.888,0-5.956,4.025 M201.03,145.71c-1.368,1.932-0.885,4.669,0.644,6.359 M200.79,150.86c-2.254,0.402-4.427,1.61-3.059,5.152 M197.405,153.115c-2.898-0.885-6.6,1.208-4.346,4.185 M192.58,154.485c-2.495-0.402-5.473,2.253-3.059,4.91 M188.555,157.22c-2.254,0.564-4.91,3.139-2.576,5.152 M199.905,144.585c-3.22,1.449-3.542,5.071-2.012,7.727 M196.52,137.905c-4.829,1.852-4.749,8.29,0.564,10.303 M194.83,146.755c-2.898,1.69-3.461,4.91-1.529,7.003 M189.76,135.49c-1.932,0.644-1.771,6.6,3.38,6.439 M184.45,137.5c-3.863,2.576,0.805,9.095,7.083,4.427 M188.07,143.535c-0.564,2.656,0.161,5.554,4.427,5.876 M188.31,147.08c-3.059,1.126-3.622,7.405,1.932,7.888 M178.575,141.365c-3.944,3.622,3.22,6.761,5.876,1.529 M173.1,147.4c-1.932,2.334,4.829,8.452,7.807-1.771 M181.63,145.47c0.161,2.415,1.61,3.863,4.587,4.025 M186.14,151.83c-4.749,0.725-6.278,6.68-0.966,7.969 M177.365,151.025c-0.161,2.253,2.173,4.105,4.829,3.702 M184.61,159.635c-4.346,0.966-4.91,6.6-1.046,6.278 M181.55,171.145c-3.622-1.087-3.702-5.393-0.483-7.003" />
    <path fill="none" stroke="#000000" stroke-width="0.26" d="M178.575,167.36c-3.059,1.852-1.851,6.278-0.242,6.922c1.61,0.644,2.898-0.161,3.059-1.529 M181.15,178.95c0.322,2.092-7.445,1.288-3.461-5.232 M177.645,179.315c-2.615,4.105,1.65,7.445,4.346,3.944 M178.01,184.265c-1.046,3.3,2.938,5.675,5.513,3.099 M169.315,153.355c-1.449,2.978,5.795,4.105,6.278-2.012 M167.305,157.785c-1.449,5.795,9.497,4.588,6.68-2.898 M174.225,158.75c1.529,0.885,6.117,0.966,7.244-3.944 M178.17,158.91c0.322,1.529,1.69,3.38,2.978,3.944 M172.94,160.44c-0.483,3.139,2.656,5.715,6.278,5.473 M173.5,163.5c-1.77,2.415-2.334,7.083,3.22,7.405 M165.05,164.305c-0.885,2.495,4.346,5.071,7.405,0.966 M163.44,170.66c-0.443,1.892,4.266,4.427,6.922-3.622 M168.27,171.145c1.127,2.012,4.91,3.622,7.244-0.322 M171.73,173.24c-0.966,2.817,1.69,5.473,4.91,4.669 M165.695,172.595c-0.644,4.025,4.025,6.359,6.922,4.266 M162.635,174.365c-1.368,5.152,5.232,7.083,7.727,3.219 M168.675,179.115c0.242,2.898,4.749,5.393,8.29,2.978 M160.625,181.53c-0.322,1.288,5.071,2.576,5.876-1.932 M163.765,182.655c1.288,3.3,5.634,4.105,8.13,0.081 M170.445,184.345c0.564,3.059,4.508,4.749,7.969,2.656 M179.86,188.21c-0.885,4.105,3.38,7.405,6.036,5.152 M173.02,187.485c-1.288,4.508,4.346,7.083,7.486,4.588 M166.26,185.23c-0.322,4.185,2.978,6.68,6.761,4.829 M159.095,185.635c-1.127,2.736,4.829,4.99,7.646,2.656 M155.39,193.12c1.529,1.77,6.842,0,7.324-3.944 M161.27,192.07c1.932,2.254,6.52,3.461,8.371-1.368 M168.03,193.2c-0.081,3.461,6.117,5.956,8.13-0.402 M183.44,194.045c-0.564,1.69,0.765,4.387,3.542,4.708 M178.33,193c-0.402,1.932,2.415,4.628,5.393,3.542 M184.29,197.345c-0.805,2.092-0.121,5.111,2.696,5.07 M184.57,201.25c-2.092,1.77-1.208,4.91,1.811,5.031 M183.485,204.225c-2.978,2.011-1.932,6.439,2.012,6.199 M174.47,195.695c0,4.346,5.393,4.99,6.439,0.966 M178.815,199.235c-0.805,2.576,1.288,5.071,4.587,4.346 M179.46,230.305c0.725,1.048,3.702-0.723,2.898-2.493c-0.805-1.771-3.96-0.809-3.622,1.046 M181.63,227.085c0.402-3.542-3.783-4.104-4.829-1.046 M178.33,224.27c1.046-1.771-2.495-4.185-3.944-1.61 M175.675,221.61c0.966-2.577-3.059-3.702-3.38-1.368 M171.41,216.86c0.483-1.288,4.99-0.484,3.059,2.173 M177.93,222.255c1.771-1.61-1.207-4.91-3.059-3.702 M189.84,227.165c-1.409,0.16-2.858,1.085-1.811,4.065c0.725,2.066,3.824,2.173,4.266,0.925" />
    <path fill="none" stroke="#000000" stroke-width="0.26" d="M187.79,228.655c-1.368-0.885-4.346,0.604-2.978,3.502c1.03,2.182,3.622,1.288,4.025,0.161 M180.1,232.8c0.684,1.206,4.104,0.685,4.708-0.644 M182.435,228.815c0.725-0.484,2.052,0.118,2.334,0.723 M182.195,208.975c-2.334,1.529-0.885,6.198,2.736,4.99 M181.47,212.76c-1.852,1.448-0.161,5.956,3.3,4.266 M182.035,217.025c-1.288,1.288-0.04,4.869,3.3,4.185 M181.55,218.795c-0.725-0.323-2.616-0.081-3.421,1.125 M179.46,202.495c-1.77,1.69-0.926,5.152,2.374,5.433 M178.815,206.035c-2.536,1.248-2.536,6.277,2.535,6.479 M178.615,211.71c-1.408,1.127-0.725,5.473,2.898,4.908 M179.78,216.46c-0.523,0.523-0.604,1.852-0.161,2.415 M178.17,214.81c-1.288,0.04-2.978,0.967-3.421,2.294 M172.415,212.435c0.483-1.288,4.467-1.206,4.749,2.577 M177.565,210.505c-0.564,0.121-1.65,0.644-1.932,1.731 M175.835,198.715c-1.731,1.57-2.576,6.52,2.696,7.485 M172.335,208.935c0-1.329,3.582-2.456,4.829-0.484 M170.04,201.73c0.523,1.007,3.018,2.375,4.548,1.248 M157.08,193.845c-0.08,2.334,1.852,4.427,4.508,4.105s3.22-2.656,2.415-4.186 M161.99,198.03c-1.771,2.173,0.402,5.232,2.415,4.346 M164.005,196.5c1.046-0.402,4.508-0.885,5.554,0.725 M152.815,197.145c-0.805,1.208,4.186,2.415,5.876,0.08 M157,198.43c-0.161,1.61,0.644,4.346,4.749,3.22" />
    <path fill="none" stroke="#000000" stroke-width="0.26" d="M162.395,204.145c0.644-1.368-2.415-3.622-4.749-1.127s0.322,5.312,1.771,4.346 M151.69,198.755c-1.208,2.092,3.461,5.917,6.117,2.375" />
    <path fill="none" stroke="#000000" stroke-width="0.26" d="M148.59,202.375c-1.69,1.731,0.402,4.91,2.938,3.944c2.535-0.966,2.294-3.622,1.691-4.306" />
    <path fill="none" stroke="#000000" stroke-width="0.26" d="M145.33,205.595c-1.368,1.247-0.04,4.185,1.852,4.185c1.891,0,3.059-1.488,2.696-3.38 M153.015,205.355c-0.242,1.851,2.495,3.139,4.266,1.41 M157.365,203.38c0.242-0.402,0.04-1.087-0.361-1.409 M142.395,208.09c-1.569,1.248,1.811,4.708,3.944,1.529 M154.505,207.405c-1.007,0.965,0.604,3.5,2.213,2.735 M148.995,209.175c0.242,1.729,3.622,3.016,5.755,0.363 M150.845,210.905c-0.523,1.087,0.523,2.819,1.811,2.577 M182.88,220.85c-1.247,2.454,2.736,5.312,5.635,2.333 M185.775,224.51c-0.604,1.327,0.121,3.179,1.208,3.863 M181.995,227.285c0.282-1.208,2.012-2.335,3.582-1.771 M179.9,224.105c0.242-1.085,1.69-2.173,2.777-1.89 M274.675,173.88c-5.715,0.081-3.3,9.257,1.61,7.405 M272.825,180.645c-1.127,1.852,1.046,4.79,3.46,3.059 M275.645,184.065c-1.691,2.817,4.346,7.123,6.76,2.696 M280.475,188.45c0.079,2.656,7.806,4.346,6.681-0.966 M286.43,190.38c1.85,3.139,8.773,3.461,8.048-1.208 M292.95,192.395c1.45,2.092,8.211,3.38,7.969-0.966 M265.5,165.915c0.965,2.495,4.265,3.38,7.888,1.932 M263.41,167.685c2.254,1.449-1.046,8.049-4.506,5.393 M263.41,171.79c2.496,1.208,5.554,0.322,6.44-3.22 M268.32,171.305c0.241,1.852,2.898,3.3,6.358,2.576 M262.12,173.24c3.221,2.736-1.448,8.371-3.542,5.795 M263.33,175.33c1.529,1.127,5.473,0.483,5.875-2.495 M267.435,175.33c0.323,1.932,1.852,2.656,4.025,2.736 M262.445,177.985c1.608,2.254,5.634,2.898,7.404-0.08 M268.075,179.595c-0.16,2.173,2.254,3.944,4.75,3.461 M259.305,184.425c2.091,1.046,4.346-2.898,2.575-5.634 M261.72,188.61c2.496,0.161,2.816-3.622,0.483-5.715 M267.435,192.07c2.094-0.483,1.448-5.071-3.623-5.473 M273.79,195.455c2.013-0.564,0.402-5.635-5.15-5.312 M281.44,197.225c1.366-2.092-3.14-5.634-6.841-3.783 M285.22,200.12c2.496,0.725,4.185-5.876-3.702-4.829 M289.81,200.12c2.175-0.564,3.704-4.508-2.654-3.22 M294.64,200.445c1.931,0.966,2.816-4.669-3.06-3.139 M262.2,182.895c2.415,1.368,6.198-0.242,5.875-3.3 M267.11,182.255c0.806,1.449,0.483,4.266-1.046,4.99 M267.35,185.635c1.61,0.644,3.784,0.081,5.071-2.495 M270.17,185.635c0.482,1.127,0.644,3.38-0.404,4.508 M270.575,187.565c1.771,0.966,3.862-0.322,4.748-2.173 M274.195,187c1.288,0.805,2.415,4.588,0.241,6.117 M275.645,191.35c1.529,0.08,3.784,0.08,5.232-1.852 M279.83,190.545c1.368,0.402,2.977,2.656,2.415,4.669 M282.325,194.485c1.531-0.161,4.185-1.208,4.91-3.059 M286.51,192.635c1.29,0.725,2.175,2.253,2.013,4.025 M288.52,195.37c1.529-0.08,2.898-0.885,3.3-2.576 M291.42,193.925c1.127,0.402,2.496,1.69,2.577,3.22 M293.835,196.175c1.127-0.161,1.931-0.885,2.656-2.012 M299.55,194.005c1.45,1.449-0.482,6.279-3.46,5.393 M268.64,96.45c-2.979,1.771-11.431,1.207-7.246-5.795 M269.445,91.7c-5.875,2.334-13.121-2.173-5.554-7.083 M261.88,83.01c-4.91,0-8.21,7.888-1.608,10.625 M242.805,86.31c-1.288,2.495,3.3,5.231,6.439,2.737c2.432-1.933,2.252-7.163,0.804-9.176 M240.31,92.265c-1.61,5.312,10.223,5.634,8.371-2.817 M239.665,100.155c0.402,4.024,11.35,2.737,7.807-5.393 M248.76,92.505c0.885,1.207,3.3,3.3,7.404,2.897 M250.69,86.79c0.363,1.449,2.816,2.576,5.957,1.49 M140.865,209.255c-2.777,1.973,1.49,5.071,3.059,1.65 M138.69,210.785c-2.777,1.971,1.49,5.069,3.059,1.648 M136.395,212.275c-2.777,1.973,1.489,5.071,3.059,1.65 M133.98,213.645c-2.656,1.408,0.443,4.869,3.139,1.81 M131.365,214.975c-2.656,1.406,0.443,4.869,3.139,1.81 M144.85,210.825c-0.04,2.052,3.863,2.898,5.271-0.163 M147.305,212.72c-1.208,1.529,1.007,3.421,2.214,2.735 M142.11,212.435c-0.121,1.731,3.26,2.738,4.91,0.846 M143.965,214.25c-1.087,1.408,1.046,3.3,2.415,2.735 M139.86,214.005c0.12,1.368,2.052,2.938,4.145,2.052 M141.105,215.855c-0.805,0.725-0.402,2.417,0.725,2.94 M136.92,215.735c-0.322,1.248,1.811,3.462,3.984,2.012 M137.36,217.185c-1.288,1.007-1.127,2.535,0.523,2.735 M134.265,217.025c-0.161,0.844,0.926,2.212,2.294,2.052 M127.38,216.945c-1.287,0.684,2.013,4.185,4.065,0.925 M124.2,218.39c-1.61,0.766,2.375,4.629,4.145,0.685 M134.625,218.23c-1.248,0.281-2.053,2.094-1.007,2.816 M130.56,218.875c-0.161,0.725,1.368,1.931,2.617,1.49 M129.515,219.2c-1.208,0.765-0.564,2.896,0.845,2.575 M125.21,220.605c-1.127,0.844-0.363,2.535,1.207,2.133 M127.26,220.485c0.04,0.441,1.047,1.127,1.892,0.846 M121.305,219.76c-1.408,0.604-1.327,4.146,3.422,2.215 M118.125,221.17c-1.973,0.967-1.328,3.623,2.978,1.087 M121.465,222.46c-0.523,0.402-1.086,2.173,0.885,1.488 M117.845,223.3c-0.805,0.725-0.282,2.215,1.49,1.65 M113.7,223.545c-1.449,0.846,1.73,1.973,3.864-0.281 M114.665,224.59c-0.644,0.644-0.644,2.535,1.046,1.852 M110.56,225.355c-0.966,0.725,0.684,1.691,3.702,0.363 M111.765,226.4c-1.127,0.925-1.007,2.092,0.644,1.729 M108.425,226.925c-1.247,1.127,0.563,1.891,2.737,0.965 M108.465,228.175c-2.133,0.965-1.207,2.735,0.12,2.052 M179.7,234.33c-0.495,1.065,1.127,1.931,2.656,1.69c1.469-0.232,2.874-1.442,1.77-3.138 M184.205,234.975c1.449,1.127,4.025-0.16,4.025-1.852" />
  </g>
  <g>
    <path fill="#FFFFFF" stroke="#000000" stroke-width="0.26" d="M272.985,64.415c-6.44-3.22-19.8-9.176-23.583-4.347c3.46-1.449,13.602,0.081,21.973,7.807L272.985,64.415L272.985,64.415z" />
    <path fill="#FFFFFF" stroke="#000000" stroke-width="0.26" d="M276.89,64.075c-7.446-8.674-11.832-6.732-17.185-9.719c-5.029-2.807-13.04-3.381-14.592,1.083c7.348-3.578,14.094,1.924,18.238,2.59c5.691,0.914,8.904,5.314,10.569,7.338L276.89,64.075L276.89,64.075z M304.94,62.965c-3.865-8.854-12.127-6.542-15.777-10.303c-5.31-5.473-18.752-10.544-24.306-6.761c12.233-0.644,17.444,8.432,23.986,11.59C293.511,59.746,298.501,64.575,304.94,62.965L304.94,62.965z" />
    <path fill="#FFFFFF" stroke="#000000" stroke-width="0.26" d="M290.455,62c-6.6-8.21-16.744-15.454-21.41-12.717c6.116,0.322,8.048,4.588,12.396,7.325C285.786,59.344,283.855,63.288,290.455,62z M259.06,76.49c-6.923-2.576-20.444-3.864-26.723,4.025C242.802,82.285,258.577,81.319,259.06,76.49z" />
    <path fill="#FFFFFF" stroke="#000000" stroke-width="0.26" d="M257.775,79.55c-6.923-3.22-12.329,1.277-18.835,0.644c-12.394-1.207-21.248-0.483-22.375,5.473c7.083-6.358,18.996-1.127,23.825-2.414c4.829-1.288,22.698-0.161,28.332,2.254C265.823,81.965,261.317,80.999,257.775,79.55z M279.505,61.115c-1.608-5.312-1.529-10.946,6.44-10.544c-2.013-2.495-9.417-3.783-10.625,5.554c-8.773-6.439-18.352-7.566-20.121-2.012c4.506-3.863,11.509-1.047,19.879,8.451C275.803,62.162,277.734,61.357,279.505,61.115L279.505,61.115z" />
    <path fill="#FFFFFF" stroke="#000000" stroke-width="0.26" d="M267.435,68.44c-4.99-3.219-11.752-8.451,0.082-10.544c-5.071-2.736-12.477-1.529-11.671,7.808c-13.523-5.473-23.234-3.626-25.275,1.771c-2.255,5.956,6.119,9.257,7.566,5.474c-1.529,0.644-6.76-1.127-4.025-4.507c2.738-3.38,16.762-0.842,30.104,6.118C267.918,76.49,280.635,76.168,267.435,68.44L267.435,68.44z" />
    <path fill="#FFFFFF" stroke="#000000" stroke-width="0.26" d="M263.89,77.295c-3.85-7.861-16.34-0.725-18.857-8.339C241.594,80.112,262.794,73.939,263.89,77.295z M343.335,85.825c2.618,1.301,4.884-0.744,0.877-2.349c2.621,1.3,4.906-0.696,0.9-2.301c2.621,1.3,4.906-0.696,0.9-2.301C344.943,79.949,343.414,83.893,343.335,85.825z M344.7,70.695c5.796-6.117-0.482-8.21,6.6-14.488c5.796-5.137,1.106-8.56,6.602-12.556c1.771-1.287,5.634-3.863,5.957-6.439c2.333,5.795-7.246,6.6-6.602,15.937c0.41,5.945-3.608,5.425-5.15,15.454C351.784,70.695,350.336,75.364,344.7,70.695L344.7,70.695z" />
    <path fill="#FFFFFF" stroke="#000000" stroke-width="0.26" d="M347.28,73.43c3.219-6.922,6.914-6.789,8.691-9.498c3.382-5.152,10.544,0.885,16.582-3.702c-1.046,6.519-9.175,4.185-12.716,8.371C356.295,72.786,353.397,74.718,347.28,73.43L347.28,73.43z" />
    <path fill="#FFFFFF" stroke="#000000" stroke-width="0.26" d="M348.085,75.685c5.635-4.507,9.788-1.5,13.684-3.864c9.819-5.956,13.764,1.207,22.538-1.61c-2.335,5.634-15.294,0.805-20.927,4.991C357.743,79.387,337.944,83.412,348.085,75.685z M331.665,107.8c-0.082-2.576-2.496-5.876-5.877-6.278c-3.379-0.402-4.829-3.944-7.404-4.105c-2.575-0.161-4.267-5.312-7.809-5.232c-3.542,0.08-4.99,4.669,3.3,8.854C322.167,105.225,331.342,110.054,331.665,107.8L331.665,107.8z M321.2,109.975c-3.542,0.161-4.025,5.312-7.404,5.474c4.667,2.495,8.048-1.127,10.462-4.346L321.2,109.975L321.2,109.975z" />
    <path fill="#FFFFFF" stroke="#000000" stroke-width="0.26" d="M324.1,110.615c-3.059,2.576-3.944,7.968,0.483,9.497c-2.656-3.662,4.668-5.312,2.414-8.693L324.1,110.615L324.1,110.615z" />
    <path fill="#FFFFFF" stroke="#000000" stroke-width="0.26" d="M327.155,110.78c-2.415,4.669,3.784,5.231,2.173,8.773c3.542-0.805,4.106-7.485,0.885-9.257L327.155,110.78z" />
    <path fill="#FFFFFF" stroke="#000000" stroke-width="0.26" d="M303.49,100.795c5.796-0.322,11.096,2.813,14.65,7.888c2.254,3.219,9.819,4.507,12.396,1.932c2.575-2.575,1.127-8.049-5.312-6.278c-1.61-2.737-6.279-1.771-8.531-4.024C314.438,98.059,305.744,91.62,303.49,100.795L303.49,100.795z" />
    <path fill="#FFFFFF" stroke="#000000" stroke-width="0.26" stroke-linecap="round" d="M325.225,104.34c-1.529,0.322-2.013,2.978-1.048,4.346 M328.525,105.95c0.483,0.805,0.16,1.932-0.082,2.495 M312.67,101.04c2.977,0.161,3.542,2.335,6.76,3.139" />
    <path fill="#FFFFFF" stroke="#000000" stroke-width="0.26" d="M310.7,93.715c10.285,2.576,18.446,4.829,23.507,7.727c5.06,2.897,12.896,3.702,19.752,1.771c6.857-1.932,20.077-3.702,19.425,4.829c3.594-4.267-0.979-8.854-10.121-9.66c0.165-4.185-4.315-7.968-7.535-5.474c2.979-0.402,5.55,5.151-0.325,7.405c1.142-4.185-3.021-7.968-7.346-6.117c2.775,0.805,5.582,5.458-0.627,7.244c-3.919,1.127-9.632-0.322-13.875-2.897C329.31,95.968,305.477,86.632,310.7,93.715L310.7,93.715z" />
    <path fill="#FFFFFF" stroke="#000000" stroke-width="0.26" d="M336.655,89.53c-3.219,1.449-1.127,4.829-6.116,6.761c-4.991,1.932-8.452,6.358-7.325,10.142c3.382-7.405,9.337-7.083,11.429-9.98C336.736,93.555,339.794,89.289,336.655,89.53L336.655,89.53z" />
    <path fill="#FFFFFF" stroke="#000000" stroke-width="0.26" d="M337.54,90.01c-0.16,5.876-4.785,3.735-2.979,11.993c0.565,2.576,1.61,6.761-0.16,10.947c5.191-3.783,1.852-11.73,4.185-14.729c1.128-1.449,2.575-3.702,3.14-5.634c-1.208,3.38-1.127,9.659,2.173,11.269c-2.656-6.279,7.164-11.429,0.402-18.674C343.336,86.952,340.276,90.091,337.54,90.01L337.54,90.01z M321.12,84.135c0.806,1.207,1.61,4.266,0.885,5.956c1.611-0.966,3.947-3.461,4.669-5.151c3.3,0.483,4.587,4.588,1.45,6.358c1.931,0,5.232,0,7.082-2.173C332.954,86.631,325.952,82.767,321.12,84.135L321.12,84.135z" />
    <path fill="#FFFFFF" stroke="#000000" stroke-width="0.26" d="M271.055,72.59c-0.521-0.475-1.4-0.926-2.977-1.25c-4.873-0.999-2.357-5.392,1.792-5.353c8.852-9.659,13.823-2.213,24.608-5.271c3.775-1.07,6.366-0.754,8.423,0.136c4.829-3.22,10.494-2.32,14.6,1.463c0.457-0.725,1.069-1.279,1.929-1.519c3.781-1.05,6.84,2.174,7.885,6.36c2.948-0.547,6.315,0.912,8.529,2.925c3.067-1.575,5.179-1.645,5.957-0.026c2.737-1.287,6.284-2.095,8.054,2.251c1.771,4.346-4.185,3.059-5.152,12.235c-0.595,5.66-6.921,7.887-11.913,4.507c-7.983-5.409-15.775-6.279-19.639,1.932c-3.862,8.21-6.889,12.98-16.259,10.302c-3.379-0.966-7.727,0.322-10.462,4.024c-2.737,3.702-6.923,0.241-11.913,0.644c6.277-0.965,3.873-2.545,9.337-2.897c4.99-0.322,3.703-4.99,6.921-5.634c-12.556,3.22-12.073-1.449-22.375,1.771c4.507-5.795,11.59-2.576,15.132-5.956c-9.337-0.161-13.513-6.261-17.708-3.702c-6.6,4.025-3.704,15.482-20.927,14.488c-8.371-0.483-13.684,0.644-18.673,5.635c8.694-18.03,20.519-8.125,26.24-13.844c3.381-3.381,5.956-5.956,7.726-9.176c0.623-1.133,1.467-1.781,2.521-2.032C248.384,80.094,257.049,73.073,271.055,72.59L271.055,72.59z" />
    <path fill="#FFFFFF" stroke="#000000" stroke-width="0.26" stroke-linecap="round" d="M341.795,70.055c0.219,0.452,0.331,1.04,0.331,1.767c0,3.541-5.312,3.702-5.633,8.935c-0.169,2.737-0.483,4.266-2.336,3.943c-1.85-0.322-3.461-3.219-1.69-6.6" />
    <path fill="none" stroke="#000000" stroke-width="0.26" d="M273.71,67.315c-1.333-0.937-2.667-1.317-3.862-1.328 M302.87,60.825c4.263,1.845,6.341,6.273,12.534,6.49c5.961,0.209,9.66,8.854,19.639,3.219c0.271-0.152,0.535-0.295,0.792-0.427 M317.5,62.315c-0.89,1.415-1.091,3.389-0.848,5.122 M298.02,80.515c-7.565,0-9.498,3.864-9.498,7.566s3.542,8.532,9.821,8.532c6.277,0,9.659-3.864,9.659-8.049S304.137,80.515,298.02,80.515L298.02,80.515z M299.385,96.45c-0.16-2.092-3.944-1.771-3.784-3.381c0.16-1.61,2.094-2.254,2.094-4.507s3.379-2.415,4.506-0.644c1.128,1.771,4.509,5.231,5.233,3.461 M302.205,87.92c-1.771,1.771-2.575,5.393-0.241,8.21 M304.62,90.655c-0.562,1.207-0.723,3.059-0.079,4.185 M334.68,84.74c5.917,0.483,6.923-6.037,2.496-6.439 M327.4,67.155c-2.052-2.616-6.76-3.501-6.841,2.052 M319.995,75.525c-2.013-4.99-7.164-5.715-9.902-3.22c-2.277,2.077-2.333,7.486,2.577,8.613C314.36,78.906,317.66,76.249,319.995,75.525L319.995,75.525z M317.78,72.385c-2.898-2.576-7.164,2.294-3.3,6.761 M262.655,84.58c1.94-0.46,4.775,0.489,9.123,2.534c2.737,1.288,10.948,4.025,16.098,1.288c-5.312,1.932-9.336-6.118-13.361-5.151s-11.389,2.455-14.487-0.483c7.565,0.483,11.634-5.51,20.281-0.322c2.417,1.449,5.475,2.415,8.211,2.254c-7.082-8.532-16.419-3.059-17.385-9.98c4.267,4.588,14.69-1.047,20.002,7.566 M272.571,75.804c-0.996-1.24-0.452-2.274-1.521-3.251" />
    <path fill="#000000" d="M327.4,67.155c-1.771-1.892-5.634-0.402-4.548,3.421C323.698,68.805,325.508,67.316,327.4,67.155z M316.455,77.465c1.219-0.885,2.477-1.612,3.538-1.941c-0.579-1.432-1.415-2.513-2.379-3.267C316.693,71.621,314.047,75.179,316.455,77.465z" />
    <path fill="none" stroke="#000000" stroke-width="0.26" d="M311.7,70.935c-2.898-1.932-5.554-1.771-6.44-0.161c-2.091-0.08-3.823,1.449-3.904,4.507 M305.825,76.57c-3.46-2.374-8.211-1.489-7.888,3.824 M295.845,83.41c1.69-1.368,4.104-2.334,5.957,0.08 M321.685,78.18c-0.644,0.885-1.127,2.254-0.082,4.346c-1.288-1.69-4.506-1.69-7.969,2.817 M329.33,77.94c-4.185,0.483-4.104,3.219-0.725,4.427 M299.55,67.715c-3.542-0.725-6.116,1.368-1.207,3.139 M306.31,65.3c-4.991-1.207-7.004,0.08-4.75,1.207 M291.9,85.345c-0.16,1.771,0.804,4.105,3.702,1.449 M292.87,90.655c0,0.483-0.082,1.046-0.404,1.449 M281.275,67.07c-3.059-0.885-3.621-3.702-0.079-3.461 M280.23,73.59c-3.382-1.127-3.382-4.427-0.565-4.105 M286.51,71.9c-3.944-0.966-4.104-3.702-1.125-3.3 M286.99,63.53c-2.091-0.161-5.312,2.174,0.082,3.542 M292.87,68.2c-4.91-0.725-4.829,1.288-1.934,2.576 M296.57,63.53c-3.784-0.724-5.071,1.53-2.496,2.495 M284.66,77.455c-0.927-0.765-1.69-4.427,2.735-3.34 M293.835,76.33c-2.977-0.805-5.794,2.092-3.059,3.783 M297.775,72.87c-3.138-0.563-5.794,0.322-4.104,1.449 M327.23,67.155c-1.769,0.327-3.354,1.367-4.381,3.42" />
  </g>
</svg>
