<svg xmlns="http://www.w3.org/2000/svg" width="450px" height="300px" viewBox="0 0 450 300">
  <path fill="#171796" d="M0,0h450v300H0V0z" />
  <path fill="#FFFFFF" d="M0,0h450v200H0V0z" />
  <path fill="#FF0000" d="M0,0h450v100H0V0z" />
  <path fill="#FF0000" d="M225,227.6L225,227.6c32.1,0,58.3-26.2,58.3-58.3V99H166.7v70.3C166.7,201.4,193,227.6,225,227.6L225,227.6z" />
  <path fill="#FFFFFF" d="M225,226.6L225,226.6c31.5,0,57.2-25.8,57.2-57.2v-68.3H167.8v68.3C167.8,200.9,193.5,226.6,225,226.6z" />
  <path fill="#FF0000" d="M236,151.6v24.2h-22v-24.2H236z M258,200v-24.1l21.6-0.1c0.2-2.1,0.4-4.3,0.4-6.5v-17.6h-22v24.1h-22V200H258z M270.5,200H258v13.2C262.9,209.5,267.1,205.1,270.5,200z M214,175.8h-22v-24.2h22v-24.2h-22v-24.1h-22v24.2h22v24.2h-22v17.7l0,0c0,2.2,0.1,4.4,0.4,6.5H192V200h22v23.2c2.4,0.5,4.7,0.8,7.1,1c2.6,0.2,5.2,0.2,7.7,0c2.5-0.1,4.9-0.5,7.1-1V200h-22v-24.2H214z M192,213.2V200h-12.6C182.8,205.1,187.1,209.5,192,213.2z M258,127.4h22v-24.2h-22V127.4h-22v-24.1h-22v24.2h22v24.2h22V127.4z" />
  <path fill="#FFFFFF" d="M281.2,99.2l13.6-30.9l-10.4-16.8L267.2,58l-12.1-13.9l-16,9.2L225,41.6l-14.2,11.7l-16-9.2l-12.1,13.8l-17.2-6.4l-10.4,16.8l13.6,31C186,91.5,205,87.2,225,87.2S264,91.5,281.2,99.2L281.2,99.2z" />
  <g>
    <path fill="#0093DD" d="M183.1,59.3L183.1,59.3L166,53l-9.6,15.4l3.6,8.3l9.3,21c6.9-3.1,14.1-5.6,21.6-7.5l-2.3-17L183.1,59.3L183.1,59.3z" />
    <path fill="#FFFFFF" stroke="#000000" stroke-width="0.175" stroke-miterlimit="10" d="M182.1,74.6c0.6,1.2,1,2.5,1,3.9c0,4.6-3.8,8.3-8.4,8.3c-4.1,0-7.4-2.9-8.2-6.8c1.4,2.6,4.2,4.3,7.3,4.3c4.6,0,8.4-3.8,8.4-8.4C182.2,75.4,182.2,75,182.1,74.6L182.1,74.6z" />
    <path fill="#000000" d="M174.5,63l-0.1,0.2l-0.5,2.9l2.3,2.1h0.1h-0.2l-2.9,1l-0.5,3l-0.1,0.2v-0.1l-2.4-2l-2.8,1h-0.2v-0.1l0.6-3l-2.2-2l-0.2-0.1h0.2l2.8-1l0.7-3.1v-0.1V62l2.3,2l3-1H174.5z" />
    <path fill="#F7DB17" d="M171,67.2l4.8,1l-2.7,1L171,67.2z M171,67.2l4.9,0.9l-2.2-1.9L171,67.2z M168.6,65.2l-2.7,1l4.8,0.9L168.6,65.2z M170.7,67.2l-4.9-1l2.2,1.9L170.7,67.2z M174.2,63.2l-2.7,0.9L171,67L174.2,63.2z M168,68.2l-0.5,2.8l3.2-3.8L168,68.2z M167.5,71.1l2.7-0.9l0.5-2.9L167.5,71.1z M173.7,66.2l0.5-2.8l-3.2,3.8L173.7,66.2z M169.2,62.3l-0.6,2.8l2.2,1.9L169.2,62.3z M170.3,70.2l2.2,1.9l-1.6-4.7L170.3,70.2z M172.5,72l0.6-2.8l-2.2-1.9L172.5,72z M171.4,64.2l-2.2-1.9l1.6,4.7L171.4,64.2z" />
  </g>
  <g>
    <path fill="#171796" d="M211,54.7L211,54.7l-15.9-9l-12,13.7l7.9,31.1c7.3-1.8,14.9-3.2,22.5-3.8L213,67.6L211,54.7L211,54.7z" />
    <path fill="#FF0000" d="M213.6,78.5c-8.1,0.7-16.8,2.2-24.5,4.1l-2-7.8c8.2-2,16.6-3.5,25.2-4.2L213.6,78.5z M211,54.7c-9.5,0.8-18.8,2.3-27.8,4.6l2,7.7c8.6-2.2,18.1-3.8,27.1-4.6L211,54.7z" />
  </g>
  <g>
    <path fill="#0093DD" d="M239.1,54.7L239.1,54.7L225,43.2l-14,11.5l2.6,32c3.8-0.3,7.5-0.5,11.4-0.5s7.7,0.2,11.5,0.5l2.4-16.1L239.1,54.7L239.1,54.7z" />
    <path fill="#F7DB17" stroke="#000000" stroke-width="0.1" stroke-miterlimit="10" d="M228.7,71.1c-0.1-0.1-0.2,0.1-0.2,0.2s0,0.2,0,0.3c0,0.1,0.1,0,0.2-0.1v-0.1l0,0C228.8,71.2,228.8,71.1,228.7,71.1L228.7,71.1z M221.3,71.1c0.1-0.1,0.2,0.1,0.2,0.2s0,0.2,0,0.3c-0.1,0.1-0.1-0.1-0.2-0.2C221.2,71.2,221.2,71.1,221.3,71.1L221.3,71.1z M228,72.4l-0.1,0.1c0,0,0,0.1,0.1,0.1l0.1-0.1C228.1,72.4,228,72.4,228,72.4z M222,72.4l-0.1,0.1c0,0.1,0,0.1,0.1,0.1l0.1-0.1C222.1,72.5,222.1,72.4,222,72.4z M228.4,71.9c-1.1-0.2-2.2-0.2-3.4-0.2s-2.2,0.1-3.4,0.2v0.2c1.1-0.1,2.2-0.2,3.4-0.2s2.2,0.1,3.3,0.2C228.4,72.1,228.5,71.9,228.4,71.9L228.4,71.9z M221.6,71.8c1.1-0.1,2.2-0.2,3.4-0.2c1.1,0,2.2,0.1,3.4,0.2l0.1-0.2h-0.1c-0.1-0.1-0.1-0.2,0-0.4s0.2-0.2,0.4-0.2c0,0.1,0.1,0.1,0.1,0.2l0.6-1.1c-0.3,0.2-0.5,0.3-0.9,0.3c-0.4,0.1-0.6,0.2-0.5,0.4c0,0.2-0.1,0.2-0.3,0.1c-0.5-0.2-0.8,0.1-1,0.5c-0.1,0.3-0.2,0.2-0.2,0c0-0.1,0-0.2,0-0.3c0-0.3-0.1-0.4-0.3-0.3s-0.2,0.1-0.2-0.1c0-0.1,0.1-0.2,0.1-0.3c0-0.1-0.1-0.2-0.2-0.2c-0.2-0.3-0.7-0.7-1-1.1c-0.2,0.3-0.5,0.7-0.8,1.1c-0.1,0-0.2,0.1-0.2,0.2c0,0.2,0.1,0.2,0.1,0.3c0,0.1,0,0.2-0.2,0.1s-0.3,0-0.3,0.3c0,0.1,0,0.2,0,0.3c0,0.3-0.1,0.3-0.2,0c-0.1-0.4-0.5-0.8-1-0.5c-0.2,0.1-0.3,0.2-0.2-0.1s-0.1-0.4-0.5-0.4c-0.4-0.1-0.5-0.2-0.9-0.3l0.6,1c0-0.1,0-0.1,0.1-0.1c0.1-0.1,0.2,0.1,0.4,0.2c0.1,0.2,0,0.3,0,0.4l0,0L221.6,71.8L221.6,71.8z M228.1,73.2L228.1,73.2c-0.1,0.1-0.1,0.1-0.2,0.2s-0.2,0.2-0.3,0.3c0,0,0,0.1,0,0s0-0.1,0-0.1c0.1-0.1,0.2-0.2,0.3-0.2c0-0.1,0.1-0.1,0.1-0.2c-0.1,0-0.3-0.1-0.4-0.1c-0.1,0.1-0.2,0.1-0.4,0.2s-0.1,0.1-0.2,0.2c0,0,0,0.1,0,0v-0.1c0-0.1,0.1-0.2,0.2-0.2c0-0.1,0.1-0.1,0.1-0.1c-0.1,0-0.3-0.1-0.5-0.1c0,0,0,0.1-0.1,0.1c0,0.1,0,0.1-0.1,0.1c0,0,0,0.1,0,0s0-0.1,0-0.1c0-0.1,0-0.1,0.1-0.1l0,0c-0.1,0-0.2,0-0.4,0l0,0c0,0.1,0,0.1-0.1,0.1c0,0.1,0,0.1,0,0.1v0.1v-0.1c0-0.1,0-0.1,0-0.1V73c-0.1,0-0.4,0-0.5,0l0,0c0,0,0,0.1-0.1,0.1s0,0.1,0,0.1s0,0.1,0,0v-0.1c0-0.1,0-0.1,0.1-0.1c0,0,0,0,0-0.1c-0.2,0-0.4,0-0.5,0c-0.2,0-0.4,0-0.5,0c0,0,0,0,0,0.1s0,0.1,0.1,0.1v0.1l0,0c0-0.1,0-0.1,0-0.1s0-0.1-0.1-0.1l0,0c-0.1,0-0.4,0-0.5,0v0.1c0,0.1,0,0.1,0,0.1v0.1c0,0,0,0,0-0.1s0-0.1,0-0.1c0-0.1,0-0.1-0.1-0.1l0,0c-0.1,0-0.2,0-0.4,0l0,0c0,0.1,0,0.1,0.1,0.1v0.1c0,0.1,0,0,0,0c0-0.1,0-0.1-0.1-0.1c0-0.1,0-0.1-0.1-0.1l0,0c-0.1,0-0.4,0-0.5,0.1c0,0.1,0.1,0.1,0.2,0.1c0.1,0.1,0.2,0.2,0.2,0.2v0.1l0,0c0-0.1-0.1-0.2-0.2-0.2c-0.1-0.1-0.2-0.1-0.4-0.2l0,0c-0.1,0-0.2,0-0.4,0.1c0,0.1,0.1,0.1,0.1,0.2c0.1,0.1,0.2,0.2,0.3,0.2v0.1l0,0c-0.1-0.1-0.2-0.2-0.3-0.3c0-0.1-0.1-0.2-0.2-0.2c-0.3-0.2-0.5-0.2-0.9-0.2c-0.2,0-0.5,0-0.7-0.1c0,0.2,0.1,0.2,0.2,0.3s0.2,0.2,0.3,0.2c0,0,0,0,0,0.1c0,0.2,0.1,0.4,0.2,0.6c0.1,0.1,0.1,0.2,0.3,0.2c-0.1-0.1-0.2-0.2-0.2-0.3c-0.1-0.2-0.1-0.4-0.1-0.6v-0.1v0.1c0,0.2,0,0.4,0.1,0.6s0.2,0.3,0.5,0.5c0,0.1,0,0.1,0,0.1c-0.2-0.1-0.5-0.2-0.5-0.3c-0.1-0.2-0.2-0.3-0.2-0.6c-0.1-0.1-0.2-0.2-0.4-0.2c0-0.1-0.1-0.2-0.1-0.3c0,0.7,0.2,1.2,0.7,1.7c0.1,0.1,0.2,0.2,0.4,0.3s0.1,0.2,0,0.2h-0.1c0.1,0.1,0.2,0.1,0.4,0.2s0.3,0.2,0.4,0.4v0.1c0,0,0,0,0-0.1c0-0.2-0.1-0.2-0.3-0.3c-0.1-0.1-0.4-0.2-0.6-0.2c-0.2,0-0.5,0-0.7,0c0,0.1,0.1,0.1,0.2,0.1c0.1,0.1,0.3,0.2,0.5,0.2c0.1,0.1,0.2,0.1,0.4,0.2s0.2,0.2,0.2,0.2v0.1c0,0.1,0,0,0,0c0-0.1-0.1-0.2-0.2-0.2c-0.1-0.1-0.2-0.1-0.3-0.1c-0.2-0.1-0.4-0.1-0.5-0.2s-0.2-0.1-0.2-0.2c0.2,0.6,0.6,0.8,1.2,1c0,0,0,0,0.1,0.1l0,0c0.1,0.1,0.2,0.1,0.4,0.1c0.1,0,0.2,0.1,0.4,0.1c0,0,0,0,0,0.1s0,0.1,0,0.1c-0.1,0-0.2-0.1-0.4-0.1c-0.1,0-0.1-0.1-0.2-0.1h-0.1c-0.4,0-0.6,0.3-0.6,0.8l0,0c0.1-0.1,0.2-0.2,0.4-0.3c0.1-0.1,0.4-0.2,0.5-0.1c0,0,0,0,0,0.1s0,0.1,0,0.1c-0.1-0.1-0.3,0-0.5,0.1c-0.1,0.1-0.3,0.2-0.5,0.3c0,0.2-0.1,0.4-0.3,0.6c0.1,0.1,0.1,0.1,0.2,0.1c0.1-0.1,0.2-0.1,0.4-0.2s0.2-0.1,0.4-0.1c0,0,0,0,0,0.1s0,0.1,0,0.1c-0.1,0-0.2,0.1-0.4,0.1c-0.1,0.1-0.2,0.1-0.4,0.2c0.4,0.1,0.7,0,1-0.1c0.1-0.1,0.1-0.1,0.2-0.1c0.1-0.1,0.1-0.1,0.2-0.1c0.1-0.1,0.2-0.1,0.2-0.1s0,0,0,0.1s0,0.1,0,0.1c-0.1,0-0.2,0.1-0.4,0.1c0,0.1-0.1,0.1-0.2,0.2c0,0.1-0.1,0.1-0.1,0.1c-0.1,0.2-0.2,0.2-0.3,0.4c0,0.1-0.1,0.2-0.1,0.3c0.1-0.2,0.2-0.3,0.3-0.4c0.1-0.2,0.3-0.3,0.5-0.4l0,0c0,0.1,0,0.1,0,0.1c-0.2,0.1-0.4,0.2-0.5,0.3s-0.2,0.3-0.3,0.5c0,0.1,0,0,0,0.2c0.1-0.2,0.3-0.3,0.5-0.4c0.2-0.2,0.4-0.2,0.6-0.2c0,0,0,0,0,0.1s0,0.1,0,0.1c-0.1-0.1-0.4,0.1-0.5,0.2c-0.2,0.2-0.4,0.3-0.5,0.6c0.2,0.1,0.5-0.1,0.8-0.2c0.1-0.1,0.2-0.2,0.4-0.2c0-0.1,0-0.1,0.1-0.1c0-0.1,0.1-0.1,0.1-0.2c0,0,0-0.1,0,0s0,0.1,0,0.1c0,0.1-0.1,0.1-0.1,0.2s-0.1,0.1-0.1,0.2c0,0,0,0.1,0,0c-0.1,0.1-0.2,0.2-0.2,0.3c-0.1,0.3,0,0.6-0.2,0.8c0.1-0.1,0.2-0.1,0.2-0.2c0.1-0.1,0.1-0.2,0.2-0.3c0-0.2,0.1-0.3,0.2-0.4s0.2-0.2,0.4-0.2c0,0,0,0,0,0.1s0,0.1,0,0.1c-0.1,0.1-0.2,0.2-0.4,0.2s-0.2,0.2-0.2,0.3s-0.1,0.2-0.2,0.3c0,0.1-0.1,0.2-0.2,0.2c0.1,0,0.1,0,0.2,0s0.3-0.1,0.4-0.2s0.1-0.2,0.2-0.3c0,0,0-0.1,0,0V81c0,0.2-0.1,0.2-0.2,0.3c-0.1,0.1-0.2,0.1-0.3,0.2c0.2,0,0.5-0.1,0.7-0.2c0.1-0.1,0.1-0.2,0.2-0.3c0-0.1,0.1-0.2,0.1-0.2s0.1-0.2,0.2-0.2c0,0,0,0,0,0.1s0,0.1,0,0.1c-0.1,0.1-0.1,0.1-0.2,0.2c0,0.1-0.1,0.2-0.1,0.2c0,0.1-0.1,0.3-0.1,0.4c0,0.3,0,0.6,0.1,0.9c0.1-0.1,0.1-0.2,0.2-0.3l0,0c0-0.2,0-0.3,0-0.5s0-0.3,0-0.5v-0.1c0,0,0,0,0,0.1c0,0.2,0,0.3,0,0.5s0,0.2,0,0.4c0.1-0.1,0.1-0.1,0.1-0.2s0.1-0.2,0.1-0.3s0-0.2,0-0.3v-0.1c0,0,0,0,0,0.1s0,0.2,0,0.3c0,0.1,0,0.2,0,0.3c0.1-0.1,0.1-0.1,0.2-0.2c0-0.1,0-0.2,0-0.3s0-0.2,0-0.3c0-0.1,0-0.1,0-0.1v0.1c0,0.1,0,0.2,0,0.2s0,0.2,0,0.3s0,0.2,0.2,0.3c0.1,0.1,0.2,0.2,0.3,0.4c0-0.2,0-0.4,0-0.6s-0.1-0.4-0.1-0.6V81l0,0c0.1,0.2,0.1,0.3,0.2,0.6c0,0.2,0,0.4,0,0.7c0.1-0.1,0.5-0.4,0.5-0.9c0-0.1,0-0.1,0-0.1V80l0,0c0,0.1,0,0.1,0,0.2s0,0.1,0,0.1s0-0.1,0.1-0.1l0.1,0.1c0-0.1,0-0.2,0-0.2c0-0.2,0-0.2,0-0.3v-0.1v0.1c0,0.1,0,0.2,0,0.3c0,0.1,0,0.2,0.1,0.3c0,0,0,0,0,0.1s0,0.1,0.1,0.1c0-0.1,0-0.2,0-0.4s0-0.3,0-0.5v-0.1v0.1c0,0.2,0,0.3,0,0.5s0,0.3,0,0.5l0,0c0.1,0.1,0.1,0.2,0.2,0.3c0.1-0.3,0.1-0.6,0.1-0.9c0-0.1-0.1-0.3-0.1-0.4s-0.1-0.2-0.1-0.2c0-0.1-0.1-0.2-0.2-0.2c0,0,0,0,0-0.1s0-0.1,0-0.1c0.1,0.1,0.1,0.1,0.2,0.2c0,0.1,0.1,0.2,0.1,0.2c0.1,0,0.1,0.2,0.2,0.3c0.2,0.1,0.5,0.2,0.6,0.2c-0.1-0.1-0.2-0.1-0.3-0.2s-0.2-0.2-0.2-0.3v-0.1l0,0c0,0.2,0.1,0.2,0.2,0.3c0.1,0.1,0.5,0.2,0.6,0.2c-0.1-0.1-0.1-0.1-0.2-0.2s-0.1-0.2-0.2-0.3c0-0.2-0.1-0.2-0.2-0.3s-0.2-0.2-0.4-0.2c0,0,0,0,0-0.1s0-0.1,0-0.1c0.1,0.1,0.3,0.2,0.4,0.2s0.2,0.2,0.2,0.4s0.1,0.2,0.2,0.3c0,0.1,0.1,0.2,0.2,0.2c-0.1-0.3-0.1-0.6-0.2-0.8c0-0.2-0.4-0.4-0.3-0.4c0-0.1,0.2,0.2,0.4,0.2c0.2,0.1,0.5,0.2,0.8,0.2c-0.2-0.2-0.4-0.4-0.5-0.6c-0.2-0.2-0.4-0.2-0.5-0.2c0,0,0,0,0-0.1s0-0.1,0-0.1c0.2-0.1,0.4,0.1,0.6,0.2c0.1,0.1,0.3,0.2,0.5,0.4c0-0.1,0,0,0-0.1c-0.1-0.2-0.2-0.3-0.4-0.5s-0.3-0.3-0.5-0.3c0,0,0,0,0-0.1s0-0.1,0,0c0.2,0.1,0.4,0.2,0.5,0.4c0.1,0.2,0.2,0.3,0.3,0.4c0-0.1,0-0.2-0.1-0.3c0-0.2-0.1-0.3-0.3-0.4c-0.1-0.1-0.3-0.2-0.3-0.2s0,0-0.1-0.1s-0.2-0.1-0.2-0.1s0,0,0-0.1s0-0.1,0-0.1s0.1,0.1,0.2,0.1l0.1,0.1c0.1,0,0.2,0.1,0.3,0.1c0.3,0.1,0.6,0.2,1,0.1c-0.1-0.1-0.2-0.1-0.4-0.2s-0.2-0.1-0.4-0.1c0,0,0,0,0-0.1s0-0.1,0-0.1c0.1,0,0.3,0.1,0.4,0.1c0.1,0.1,0.2,0.1,0.4,0.2c0.1,0.1,0.1,0,0.2-0.1c-0.2-0.2-0.2-0.3-0.3-0.6l0,0c-0.1-0.2-0.3-0.3-0.5-0.3c-0.1-0.1-0.3-0.2-0.5-0.1c0,0,0,0,0-0.1s0-0.1,0-0.1c0.2-0.1,0.4,0,0.5,0.1s0.3,0.2,0.4,0.3c0,0,0,0,0-0.1c0-0.4-0.3-0.7-0.6-0.8c-0.1,0-0.3,0.1-0.3-0.1c0-0.1,0.1-0.1,0.4-0.2c0.5-0.2,1-0.4,1.2-1c-0.1,0.1-0.1,0.1-0.3,0.2c-0.1,0.1-0.3,0.2-0.5,0.2c-0.1,0.1-0.2,0.1-0.3,0.1c-0.1,0.1-0.1,0.1-0.2,0.2c0,0,0,0.1,0,0s0-0.1,0-0.1c0-0.1,0.1-0.2,0.2-0.2c0.1-0.1,0.2-0.1,0.4-0.2s0.4-0.1,0.5-0.2s0.1-0.1,0.2-0.1c-0.2,0-0.5,0-0.7,0c-0.2,0.1-0.5,0.2-0.6,0.2s-0.3,0.2-0.3,0.3v0.1v-0.1c0-0.2,0.1-0.3,0.4-0.4c0.1-0.1,0.2-0.1,0.4-0.2h-0.1c-0.1,0-0.1-0.1,0-0.2s0.3-0.2,0.4-0.3c0.4-0.5,0.6-1.1,0.7-1.7c0,0.1-0.1,0.2-0.1,0.3c-0.1,0.1-0.2,0.2-0.4,0.2c0,0.2-0.1,0.4-0.2,0.6c-0.1,0.2-0.3,0.2-0.5,0.3c0,0-0.1-0.1,0-0.1c0.2-0.2,0.4-0.3,0.4-0.5c0.1-0.2,0.1-0.4,0.1-0.6v-0.1c0,0,0,0,0,0.1c0,0.2,0,0.4-0.1,0.6c0,0.2-0.1,0.2-0.2,0.3c0.1-0.1,0.2-0.2,0.3-0.2c0.1-0.2,0.2-0.3,0.2-0.6V72c0.1-0.1,0.2-0.1,0.3-0.2s0.1-0.2,0.2-0.3c-0.2,0.1-0.5,0.1-0.7,0.1C228.7,73,228.5,73.1,228.1,73.2L228.1,73.2z M228.1,72.9c-1-0.2-2-0.2-3-0.2s-2,0.1-3,0.2V73c0,0.1,0,0.1,0.2,0.1c1-0.1,1.9-0.2,2.9-0.2s2,0.1,3,0.2C228.1,73.1,228.1,72.9,228.1,72.9L228.1,72.9z M222,72.8c1-0.1,2-0.2,3-0.2s2,0.1,3,0.2v-0.2c0,0,0,0-0.1,0s-0.2-0.1-0.2-0.2s0.1-0.2,0.2-0.2s0.1,0.1,0.1,0.1l0.1-0.2c-1-0.1-2.1-0.2-3.2-0.2c-1.1,0-2.1,0.1-3.2,0.2l0.1,0.2c0-0.1,0.1-0.1,0.1-0.1c0.1,0,0.2,0.1,0.2,0.2s-0.1,0.2-0.2,0.2l0,0L222,72.8L222,72.8L222,72.8z M226.6,72.2c-0.1,0-0.2,0.1-0.2,0.2s0.1,0.2,0.2,0.2s0.2-0.1,0.2-0.2S226.7,72.2,226.6,72.2z M226.6,72.3l-0.1,0.1c0,0.1,0,0.1,0.1,0.1l0.1-0.1C226.7,72.3,226.6,72.3,226.6,72.3z M225,72.2c-0.1,0-0.2,0.1-0.2,0.2s0.1,0.2,0.2,0.2s0.2-0.1,0.2-0.2S225.1,72.2,225,72.2z M225,72.2l-0.1,0.1c0,0,0,0.1,0.1,0.1l0.1-0.1C225,72.3,225,72.2,225,72.2z M223.4,72.2c-0.1,0-0.2,0.1-0.2,0.2s0.1,0.2,0.2,0.2s0.2-0.1,0.2-0.2S223.5,72.2,223.4,72.2z M223.4,72.3l-0.1,0.1c0,0,0,0.1,0.1,0.1l0.1-0.1C223.5,72.3,223.5,72.3,223.4,72.3z M234.7,56.4c-0.1-0.1-0.2,0.1-0.2,0.2s0,0.2,0,0.3s0.1,0,0.2-0.1v-0.1l0,0C234.8,56.6,234.8,56.5,234.7,56.4L234.7,56.4z M227.3,56.4c0.1-0.1,0.2,0.1,0.2,0.2s0,0.2,0,0.3c-0.1,0.1-0.1-0.1-0.2-0.2C227.2,56.6,227.2,56.5,227.3,56.4L227.3,56.4z M234,57.8l-0.1,0.1c0,0,0,0.1,0.1,0.1l0.1-0.1C234.1,57.8,234,57.8,234,57.8z M228,57.8l-0.1,0.1c0,0.1,0,0.1,0.1,0.1l0.1-0.1C228.1,57.9,228.1,57.8,228,57.8z M234.4,57.3c-1.1-0.2-2.2-0.2-3.4-0.2s-2.2,0.1-3.4,0.2v0.2c1.1-0.1,2.2-0.2,3.4-0.2s2.2,0.1,3.3,0.2C234.4,57.5,234.5,57.3,234.4,57.3L234.4,57.3z M227.6,57.2c1.1-0.1,2.2-0.2,3.4-0.2c1.1,0,2.2,0.1,3.4,0.2l0.1-0.2h-0.1c-0.1-0.1-0.1-0.2,0-0.4s0.2-0.2,0.4-0.2c0,0.1,0.1,0.1,0.1,0.2l0.6-1.1c-0.3,0.2-0.5,0.3-0.9,0.3c-0.4,0.1-0.6,0.2-0.5,0.4c0,0.2-0.1,0.2-0.3,0.1c-0.5-0.2-0.8,0.1-1,0.5c-0.1,0.3-0.2,0.2-0.2,0c0-0.1,0-0.2,0-0.3c0-0.3-0.1-0.4-0.3-0.3c-0.2,0.1-0.2,0.1-0.2-0.1c0-0.1,0.1-0.2,0.1-0.3s-0.1-0.2-0.2-0.2c-0.2-0.3-0.7-0.7-1-1.1c-0.2,0.3-0.5,0.7-0.8,1.1c-0.1,0-0.2,0.1-0.2,0.2c0,0.2,0.1,0.2,0.1,0.3s0,0.2-0.2,0.1c-0.2-0.1-0.3,0-0.3,0.3c0,0.1,0,0.2,0,0.3c0,0.3-0.1,0.3-0.2,0c-0.1-0.4-0.5-0.8-1-0.5c-0.2,0.1-0.3,0.2-0.2-0.1s-0.1-0.4-0.5-0.4c-0.4-0.1-0.5-0.2-0.9-0.3l0.6,1c0-0.1,0-0.1,0.1-0.1c0.1-0.1,0.2,0.1,0.4,0.2c0.1,0.2,0,0.3,0,0.4l0,0L227.6,57.2L227.6,57.2z M234.1,58.5C234.1,58.6,234.1,58.6,234.1,58.5c-0.1,0.1-0.1,0.1-0.2,0.2s-0.2,0.2-0.3,0.3c0,0,0,0.1,0,0s0-0.1,0-0.1c0.1-0.1,0.2-0.2,0.3-0.2c0-0.1,0.1-0.1,0.1-0.2c-0.1,0-0.3-0.1-0.4-0.1c-0.1,0.1-0.2,0.1-0.4,0.2s-0.1,0.1-0.2,0.2c0,0,0,0.1,0,0v-0.1c0-0.1,0.1-0.2,0.2-0.2c0-0.1,0.1-0.1,0.1-0.1c-0.1,0-0.3-0.1-0.5-0.1c0,0,0,0.1-0.1,0.1c0,0.1,0,0.1-0.1,0.1c0,0,0,0.1,0,0s0-0.1,0-0.1c0-0.1,0-0.1,0.1-0.1l0,0c-0.1,0-0.2,0-0.4,0l0,0c0,0.1,0,0.1-0.1,0.1c0,0.1,0,0.1,0,0.1v0.1v-0.1c0-0.1,0-0.1,0-0.1v-0.1c-0.1,0-0.4,0-0.5,0l0,0c0,0,0,0.1-0.1,0.1s0,0.1,0,0.1s0,0.1,0,0v-0.1c0-0.1,0-0.1,0.1-0.1c0,0,0,0,0-0.1c-0.2,0-0.4,0-0.5,0c-0.2,0-0.4,0-0.5,0c0,0,0,0,0,0.1s0,0.1,0.1,0.1v0.1l0,0c0-0.1,0-0.1,0-0.1s0-0.1-0.1-0.1l0,0c-0.1,0-0.4,0-0.5,0v0.1c0,0.1,0,0.1,0,0.1v0.1c0,0,0,0,0-0.1s0-0.1,0-0.1c0-0.1,0-0.1-0.1-0.1l0,0c-0.1,0-0.2,0-0.4,0l0,0c0,0.1,0,0.1,0.1,0.1v0.1c0,0.1,0,0,0,0c0-0.1,0-0.1-0.1-0.1c0-0.1,0-0.1-0.1-0.1l0,0c-0.1,0-0.4,0-0.5,0.1c0,0.1,0.1,0.1,0.2,0.1c0.1,0.1,0.2,0.2,0.2,0.2v0.1l0,0c0-0.1-0.1-0.2-0.2-0.2c-0.1-0.1-0.2-0.1-0.4-0.2l0,0c-0.1,0-0.2,0-0.4,0.1c0,0.1,0.1,0.1,0.1,0.2c0.1,0.1,0.2,0.2,0.3,0.2V59l0,0c-0.1-0.1-0.2-0.2-0.3-0.3c0-0.1-0.1-0.2-0.2-0.2c-0.3-0.2-0.5-0.2-0.9-0.2c-0.2,0-0.5,0-0.7-0.1c0,0.2,0.1,0.2,0.2,0.3s0.2,0.2,0.3,0.2c0,0,0,0,0,0.1c0,0.2,0.1,0.4,0.2,0.6c0.1,0.1,0.1,0.2,0.3,0.2c-0.1-0.1-0.2-0.2-0.2-0.3c-0.1-0.2-0.1-0.4-0.1-0.6v-0.1v0.1c0,0.2,0,0.4,0.1,0.6s0.2,0.3,0.5,0.5c0,0.1,0,0.1,0,0.1c-0.2-0.1-0.5-0.2-0.5-0.3c-0.1-0.2-0.2-0.3-0.2-0.6c-0.1-0.1-0.2-0.2-0.4-0.2c0-0.1-0.1-0.2-0.1-0.3c0,0.7,0.2,1.2,0.7,1.7c0.1,0.1,0.2,0.2,0.4,0.3s0.1,0.2,0,0.2h-0.1c0.1,0.1,0.2,0.1,0.4,0.2c0.2,0.1,0.3,0.2,0.4,0.4v0.1c0,0,0,0,0-0.1c0-0.2-0.1-0.2-0.3-0.3c-0.1-0.1-0.4-0.2-0.6-0.2c-0.2,0-0.5,0-0.7,0c0,0.1,0.1,0.1,0.2,0.1c0.1,0.1,0.3,0.2,0.5,0.2c0.1,0.1,0.2,0.1,0.4,0.2s0.2,0.2,0.2,0.2v0.1c0,0.1,0,0,0,0c0-0.1-0.1-0.2-0.2-0.2c-0.1-0.1-0.2-0.1-0.3-0.1c-0.2-0.1-0.4-0.1-0.5-0.2c-0.1-0.1-0.2-0.1-0.2-0.2c0.2,0.6,0.6,0.8,1.2,1c0,0,0,0,0.1,0.1l0,0c0.1,0.1,0.2,0.1,0.4,0.1c0.1,0,0.2,0.1,0.4,0.1c0,0,0,0,0,0.1s0,0.1,0,0.1c-0.1,0-0.2-0.1-0.4-0.1c-0.1,0-0.1-0.1-0.2-0.1h-0.1c-0.4,0-0.6,0.3-0.6,0.8l0,0c0.1-0.1,0.2-0.2,0.4-0.3c0.1-0.1,0.4-0.2,0.5-0.1c0,0,0,0,0,0.1s0,0.1,0,0.1c-0.1-0.1-0.3,0-0.5,0.1c-0.1,0.1-0.3,0.2-0.5,0.3c0,0.2-0.1,0.4-0.3,0.6c0.1,0.1,0.1,0.1,0.2,0.1c0.1-0.1,0.2-0.1,0.4-0.2s0.2-0.1,0.4-0.1c0,0,0,0,0,0.1s0,0.1,0,0.1c-0.1,0-0.2,0.1-0.4,0.1c-0.1,0.1-0.2,0.1-0.4,0.2c0.4,0.1,0.7,0,1-0.1c0.1-0.1,0.1-0.1,0.2-0.1c0.1-0.1,0.1-0.1,0.2-0.1c0.1-0.1,0.2-0.1,0.2-0.1s0,0,0,0.1s0,0.1,0,0.1c-0.1,0-0.2,0.1-0.4,0.1c0,0.1-0.1,0.1-0.2,0.2c0,0.1-0.1,0.1-0.1,0.1c-0.1,0.2-0.2,0.2-0.3,0.4c0,0.1-0.1,0.2-0.1,0.3c0.1-0.2,0.2-0.3,0.3-0.4c0.1-0.2,0.3-0.3,0.5-0.4l0,0c0,0.1,0,0.1,0,0.1c-0.2,0.1-0.4,0.2-0.5,0.3s-0.2,0.3-0.3,0.5c0,0.1,0,0,0,0.2c0.1-0.2,0.3-0.3,0.5-0.4c0.2-0.2,0.4-0.2,0.6-0.2c0,0,0,0,0,0.1s0,0.1,0,0.1c-0.1-0.1-0.4,0.1-0.5,0.2c-0.2,0.2-0.4,0.3-0.5,0.6c0.2,0.1,0.5-0.1,0.8-0.2c0.1-0.1,0.2-0.2,0.4-0.2c0-0.1,0-0.1,0.1-0.1c0-0.1,0.1-0.1,0.1-0.2c0,0,0-0.1,0,0s0,0.1,0,0.1c0,0.1-0.1,0.1-0.1,0.2s-0.1,0.1-0.1,0.2c0,0,0,0.1,0,0c-0.1,0.1-0.2,0.2-0.2,0.3c-0.1,0.3,0,0.6-0.2,0.8c0.1-0.1,0.2-0.1,0.2-0.2c0.1-0.1,0.1-0.2,0.2-0.3c0-0.2,0.1-0.3,0.2-0.4s0.2-0.2,0.4-0.2c0,0,0,0,0,0.1s0,0.1,0,0.1c-0.1,0.1-0.2,0.2-0.4,0.2s-0.2,0.2-0.2,0.3s-0.1,0.2-0.2,0.3c0,0.1-0.1,0.2-0.2,0.2c0.1,0,0.1,0,0.2,0s0.3-0.1,0.4-0.2s0.1-0.2,0.2-0.3c0,0,0-0.1,0,0v0.1c0,0.2-0.1,0.2-0.2,0.3c-0.1,0.1-0.2,0.1-0.3,0.2c0.2,0,0.5-0.1,0.7-0.2c0.1-0.1,0.1-0.2,0.2-0.3c0-0.1,0.1-0.2,0.1-0.2s0.1-0.2,0.2-0.2c0,0,0,0,0,0.1s0,0.1,0,0.1c-0.1,0.1-0.1,0.1-0.2,0.2c0,0.1-0.1,0.2-0.1,0.2c0,0.1-0.1,0.3-0.1,0.4c0,0.3,0,0.6,0.1,0.9c0.1-0.1,0.1-0.2,0.2-0.3l0,0c0-0.2,0-0.3,0-0.5s0-0.3,0-0.5v-0.1c0,0,0,0,0,0.1c0,0.2,0,0.3,0,0.5s0,0.2,0,0.4c0.1-0.1,0.1-0.1,0.1-0.2s0.1-0.2,0.1-0.3s0-0.2,0-0.3v-0.1c0,0,0,0,0,0.1s0,0.2,0,0.3c0,0.1,0,0.2,0,0.3c0.1-0.1,0.1-0.1,0.2-0.2c0-0.1,0-0.2,0-0.3s0-0.2,0-0.3c0-0.1,0-0.1,0-0.1v0.1c0,0.1,0,0.2,0,0.2s0,0.2,0,0.3s0,0.2,0.2,0.3c0.1,0.1,0.2,0.2,0.3,0.4c0-0.2,0-0.4,0-0.6s-0.1-0.4-0.1-0.6v-0.1l0,0c0.1,0.2,0.1,0.3,0.2,0.6c0,0.2,0,0.4,0,0.7c0.1-0.1,0.5-0.4,0.5-0.9c0-0.1,0-0.1,0-0.1v-0.1l0,0c0,0.1,0,0.1,0,0.2s0,0.1,0,0.1s0-0.1,0.1-0.1l0.1,0.1c0-0.1,0-0.2,0-0.2c0-0.2,0-0.2,0-0.3v-0.1v0.1c0,0.1,0,0.2,0,0.3c0,0.1,0,0.2,0.1,0.3c0,0,0,0,0,0.1s0,0.1,0.1,0.1c0-0.1,0-0.2,0-0.4s0-0.3,0-0.5v-0.1v0.1c0,0.2,0,0.3,0,0.5s0,0.3,0,0.5l0,0c0.1,0.1,0.1,0.2,0.2,0.3c0.1-0.3,0.1-0.6,0.1-0.9c0-0.1-0.1-0.3-0.1-0.4s-0.1-0.2-0.1-0.2c0-0.1-0.1-0.2-0.2-0.2c0,0,0,0,0-0.1s0-0.1,0-0.1c0.1,0.1,0.1,0.1,0.2,0.2c0,0.1,0.1,0.2,0.1,0.2c0.1,0,0.1,0.2,0.2,0.3c0.2,0.1,0.5,0.2,0.6,0.2c-0.1-0.1-0.2-0.1-0.3-0.2S233,66.1,233,66v-0.1l0,0c0,0.2,0.1,0.2,0.2,0.3c0.1,0.1,0.5,0.2,0.6,0.2c-0.1-0.1-0.1-0.1-0.2-0.2s-0.1-0.2-0.2-0.3c0-0.2-0.1-0.2-0.2-0.3s-0.2-0.2-0.4-0.2c0,0,0,0,0-0.1s0-0.1,0-0.1c0.1,0.1,0.3,0.2,0.4,0.2s0.2,0.2,0.2,0.4s0.1,0.2,0.2,0.3c0,0.1,0.1,0.2,0.2,0.2c-0.1-0.3-0.1-0.6-0.2-0.8c0-0.2-0.4-0.4-0.3-0.4c0-0.1,0.2,0.2,0.4,0.2c0.2,0.1,0.5,0.2,0.8,0.2c-0.2-0.2-0.4-0.4-0.5-0.6c-0.2-0.2-0.4-0.2-0.5-0.2c0,0,0,0,0-0.1s0-0.1,0-0.1c0.2-0.1,0.4,0.1,0.6,0.2c0.1,0.1,0.3,0.2,0.5,0.4c0-0.1,0,0,0-0.1c-0.1-0.2-0.2-0.3-0.4-0.5s-0.3-0.3-0.5-0.3c0,0,0,0,0-0.1s0-0.1,0,0c0.2,0.1,0.4,0.2,0.5,0.4c0.1,0.2,0.2,0.3,0.3,0.4c0-0.1,0-0.2-0.1-0.3c0-0.2-0.1-0.3-0.3-0.4c-0.1-0.1-0.3-0.2-0.3-0.2s0,0-0.1-0.1s-0.2-0.1-0.2-0.1s0,0,0-0.1s0-0.1,0-0.1s0.1,0.1,0.2,0.1l0.1,0.1c0.1,0,0.2,0.1,0.3,0.1c0.3,0.1,0.6,0.2,1,0.1c-0.1-0.1-0.2-0.1-0.4-0.2s-0.2-0.1-0.4-0.1c0,0,0,0,0-0.1s0-0.1,0-0.1c0.1,0,0.3,0.1,0.4,0.1c0.1,0.1,0.2,0.1,0.4,0.2c0.1,0.1,0.1,0,0.2-0.1c-0.2-0.2-0.2-0.3-0.3-0.6l0,0c-0.1-0.2-0.3-0.3-0.5-0.3c-0.1-0.1-0.3-0.2-0.5-0.1c0,0,0,0,0-0.1s0-0.1,0-0.1c0.2-0.1,0.4,0,0.5,0.1s0.3,0.2,0.4,0.3c0,0,0,0,0-0.1c0-0.4-0.3-0.7-0.6-0.8c-0.1,0-0.3,0.1-0.3-0.1c0-0.1,0.1-0.1,0.4-0.2c0.5-0.2,1-0.4,1.2-1c-0.1,0.1-0.1,0.1-0.3,0.2c-0.1,0.1-0.3,0.2-0.5,0.2c-0.1,0.1-0.2,0.1-0.3,0.1c-0.1,0.1-0.1,0.1-0.2,0.2c0,0,0,0.1,0,0s0-0.1,0-0.1c0-0.1,0.1-0.2,0.2-0.2c0.1-0.1,0.2-0.1,0.4-0.2c0.2-0.1,0.4-0.1,0.5-0.2c0.1-0.1,0.1-0.1,0.2-0.1c-0.2,0-0.5,0-0.7,0c-0.2,0.1-0.5,0.2-0.6,0.2S234,61,234,61.1v0.1v-0.1c0-0.2,0.1-0.3,0.4-0.4c0.1-0.1,0.2-0.1,0.4-0.2h-0.1c-0.1,0-0.1-0.1,0-0.2c0.1-0.1,0.3-0.2,0.4-0.3c0.4-0.5,0.6-1.1,0.7-1.7c0,0.1-0.1,0.2-0.1,0.3c-0.1,0.1-0.2,0.2-0.4,0.2c0,0.2-0.1,0.4-0.2,0.6c-0.1,0.2-0.3,0.2-0.5,0.3c0,0-0.1-0.1,0-0.1c0.2-0.2,0.4-0.3,0.4-0.5c0.1-0.2,0.1-0.4,0.1-0.6v-0.1c0,0,0,0,0,0.1c0,0.2,0,0.4-0.1,0.6c0,0.2-0.1,0.2-0.2,0.3c0.1-0.1,0.2-0.2,0.3-0.2c0.1-0.2,0.2-0.3,0.2-0.6v-0.1c0.1-0.1,0.2-0.1,0.3-0.2c0.1-0.1,0.1-0.2,0.2-0.3c-0.2,0.1-0.5,0.1-0.7,0.1C234.7,58.4,234.5,58.4,234.1,58.5L234.1,58.5z M234.1,58.3c-1-0.2-2-0.2-3-0.2s-2,0.1-3,0.2v0.1c0,0.1,0,0.1,0.2,0.1c1-0.1,1.9-0.2,2.9-0.2s2,0.1,3,0.2C234.1,58.4,234.1,58.3,234.1,58.3L234.1,58.3z M228,58.2c1-0.1,2-0.2,3-0.2s2,0.1,3,0.2V58c0,0,0,0-0.1,0s-0.2-0.1-0.2-0.2s0.1-0.2,0.2-0.2s0.1,0.1,0.1,0.1l0.1-0.2c-1-0.1-2.1-0.2-3.2-0.2c-1.1,0-2.1,0.1-3.2,0.2l0.1,0.2c0-0.1,0.1-0.1,0.1-0.1c0.1,0,0.2,0.1,0.2,0.2s0,0.2-0.1,0.2l0,0V58.2L228,58.2L228,58.2z M232.6,57.6c-0.1,0-0.2,0.1-0.2,0.2s0.1,0.2,0.2,0.2s0.2-0.1,0.2-0.2S232.7,57.6,232.6,57.6z M232.6,57.7l-0.1,0.1c0,0.1,0,0.1,0.1,0.1l0.1-0.1C232.7,57.7,232.6,57.7,232.6,57.7z M231,57.5c-0.1,0-0.2,0.1-0.2,0.2s0.1,0.2,0.2,0.2s0.2-0.1,0.2-0.2S231.1,57.5,231,57.5z M231,57.6l-0.1,0.1c0,0,0,0.1,0.1,0.1l0.1-0.1C231,57.7,231,57.6,231,57.6z M229.4,57.6c-0.1,0-0.2,0.1-0.2,0.2s0.1,0.2,0.2,0.2s0.2-0.1,0.2-0.2S229.5,57.6,229.4,57.6z M229.4,57.7l-0.1,0.1c0,0,0,0.1,0.1,0.1l0.1-0.1C229.5,57.7,229.5,57.7,229.4,57.7z M222.7,56.4c-0.1-0.1-0.2,0.1-0.2,0.2s0,0.2,0,0.3s0.1,0,0.2-0.1v-0.1l0,0C222.8,56.6,222.8,56.5,222.7,56.4L222.7,56.4z M215.3,56.4c0.1-0.1,0.2,0.1,0.2,0.2s0,0.2,0,0.3c-0.1,0.1-0.1-0.1-0.2-0.2C215.2,56.6,215.2,56.5,215.3,56.4L215.3,56.4z M222,57.8l-0.1,0.1c0,0,0,0.1,0.1,0.1l0.1-0.1C222.1,57.8,222,57.8,222,57.8z M216,57.8l-0.1,0.1c0,0.1,0,0.1,0.1,0.1l0.1-0.1C216.1,57.9,216.1,57.8,216,57.8z M222.4,57.3c-1.1-0.2-2.2-0.2-3.4-0.2s-2.2,0.1-3.4,0.2v0.2c1.1-0.1,2.2-0.2,3.4-0.2s2.2,0.1,3.3,0.2C222.4,57.5,222.5,57.3,222.4,57.3L222.4,57.3z M215.6,57.2c1.1-0.1,2.2-0.2,3.4-0.2c1.1,0,2.2,0.1,3.4,0.2l0.1-0.2h-0.1c-0.1-0.1-0.1-0.2,0-0.4s0.2-0.2,0.4-0.2c0,0.1,0.1,0.1,0.1,0.2l0.6-1.1c-0.3,0.2-0.5,0.3-0.9,0.3c-0.4,0.1-0.6,0.2-0.5,0.4c0,0.2-0.1,0.2-0.3,0.1c-0.5-0.2-0.8,0.1-1,0.5c-0.1,0.3-0.2,0.2-0.2,0c0-0.1,0-0.2,0-0.3c0-0.3-0.1-0.4-0.3-0.3c-0.2,0.1-0.2,0.1-0.2-0.1c0-0.1,0.1-0.2,0.1-0.3s-0.1-0.2-0.2-0.2c-0.2-0.3-0.7-0.7-1-1.1c-0.2,0.3-0.5,0.7-0.8,1.1c-0.1,0-0.2,0.1-0.2,0.2c0,0.2,0.1,0.2,0.1,0.3s0,0.2-0.2,0.1c-0.2-0.1-0.3,0-0.3,0.3c0,0.1,0,0.2,0,0.3c0,0.3-0.1,0.3-0.2,0c-0.1-0.4-0.5-0.8-1-0.5c-0.2,0.1-0.3,0.2-0.2-0.1s-0.1-0.4-0.5-0.4c-0.4-0.1-0.5-0.2-0.9-0.3l0.6,1c0-0.1,0-0.1,0.1-0.1c0.1-0.1,0.2,0.1,0.4,0.2c0.1,0.2,0,0.3,0,0.4l0,0L215.6,57.2L215.6,57.2z M222.1,58.5C222.1,58.6,222.1,58.6,222.1,58.5c-0.1,0.1-0.1,0.1-0.2,0.2s-0.2,0.2-0.3,0.3c0,0,0,0.1,0,0s0-0.1,0-0.1c0.1-0.1,0.2-0.2,0.3-0.2c0-0.1,0.1-0.1,0.1-0.2c-0.1,0-0.3-0.1-0.4-0.1c-0.1,0.1-0.2,0.1-0.4,0.2s-0.1,0.1-0.2,0.2c0,0,0,0.1,0,0v-0.1c0-0.1,0.1-0.2,0.2-0.2c0-0.1,0.1-0.1,0.1-0.1c-0.1,0-0.3-0.1-0.5-0.1c0,0,0,0.1-0.1,0.1c0,0.1,0,0.1-0.1,0.1c0,0,0,0.1,0,0s0-0.1,0-0.1c0-0.1,0-0.1,0.1-0.1l0,0c-0.1,0-0.2,0-0.4,0l0,0c0,0.1,0,0.1-0.1,0.1c0,0.1,0,0.1,0,0.1v0.1v-0.1c0-0.1,0-0.1,0-0.1v-0.1c-0.1,0-0.4,0-0.5,0l0,0c0,0,0,0.1-0.1,0.1s0,0.1,0,0.1s0,0.1,0,0v-0.1c0-0.1,0-0.1,0.1-0.1c0,0,0,0,0-0.1c-0.2,0-0.4,0-0.5,0c-0.2,0-0.4,0-0.5,0c0,0,0,0,0,0.1s0,0.1,0.1,0.1v0.1l0,0c0-0.1,0-0.1,0-0.1s0-0.1-0.1-0.1l0,0c-0.1,0-0.4,0-0.5,0v0.1c0,0.1,0,0.1,0,0.1v0.1c0,0,0,0,0-0.1s0-0.1,0-0.1c0-0.1,0-0.1-0.1-0.1l0,0c-0.1,0-0.2,0-0.4,0l0,0c0,0.1,0,0.1,0.1,0.1v0.1c0,0.1,0,0,0,0c0-0.1,0-0.1-0.1-0.1c0-0.1,0-0.1-0.1-0.1l0,0c-0.1,0-0.4,0-0.5,0.1c0,0.1,0.1,0.1,0.2,0.1c0.1,0.1,0.2,0.2,0.2,0.2v0.1l0,0c0-0.1-0.1-0.2-0.2-0.2c-0.1-0.1-0.2-0.1-0.4-0.2l0,0c-0.1,0-0.2,0-0.4,0.1c0,0.1,0.1,0.1,0.1,0.2c0.1,0.1,0.2,0.2,0.3,0.2V59l0,0c-0.1-0.1-0.2-0.2-0.3-0.3c0-0.1-0.1-0.2-0.2-0.2c-0.3-0.2-0.5-0.2-0.9-0.2c-0.2,0-0.5,0-0.7-0.1c0,0.2,0.1,0.2,0.2,0.3s0.2,0.2,0.3,0.2c0,0,0,0,0,0.1c0,0.2,0.1,0.4,0.2,0.6c0.1,0.1,0.1,0.2,0.3,0.2c-0.1-0.1-0.2-0.2-0.2-0.3c-0.1-0.2-0.1-0.4-0.1-0.6v-0.1v0.1c0,0.2,0,0.4,0.1,0.6s0.2,0.3,0.5,0.5c0,0.1,0,0.1,0,0.1c-0.2-0.1-0.5-0.2-0.5-0.3c-0.1-0.2-0.2-0.3-0.2-0.6c-0.1-0.1-0.2-0.2-0.4-0.2c0-0.1-0.1-0.2-0.1-0.3c0,0.7,0.2,1.2,0.7,1.7c0.1,0.1,0.2,0.2,0.4,0.3s0.1,0.2,0,0.2h-0.1c0.1,0.1,0.2,0.1,0.4,0.2c0.2,0.1,0.3,0.2,0.4,0.4v0.1c0,0,0,0,0-0.1c0-0.2-0.1-0.2-0.3-0.3c-0.1-0.1-0.4-0.2-0.6-0.2c-0.2,0-0.5,0-0.7,0c0,0.1,0.1,0.1,0.2,0.1c0.1,0.1,0.3,0.2,0.5,0.2c0.1,0.1,0.2,0.1,0.4,0.2s0.2,0.2,0.2,0.2v0.1c0,0.1,0,0,0,0c0-0.1-0.1-0.2-0.2-0.2c-0.1-0.1-0.2-0.1-0.3-0.1c-0.2-0.1-0.4-0.1-0.5-0.2c-0.1-0.1-0.2-0.1-0.2-0.2c0.2,0.6,0.6,0.8,1.2,1c0,0,0,0,0.1,0.1l0,0c0.1,0.1,0.2,0.1,0.4,0.1c0.1,0,0.2,0.1,0.4,0.1c0,0,0,0,0,0.1s0,0.1,0,0.1c-0.1,0-0.2-0.1-0.4-0.1c-0.1,0-0.1-0.1-0.2-0.1h-0.1c-0.4,0-0.6,0.3-0.6,0.8l0,0c0.1-0.1,0.2-0.2,0.4-0.3c0.1-0.1,0.4-0.2,0.5-0.1c0,0,0,0,0,0.1s0,0.1,0,0.1c-0.1-0.1-0.3,0-0.5,0.1c-0.1,0.1-0.3,0.2-0.5,0.3c0,0.2-0.1,0.4-0.3,0.6c0.1,0.1,0.1,0.1,0.2,0.1c0.1-0.1,0.2-0.1,0.4-0.2s0.2-0.1,0.4-0.1c0,0,0,0,0,0.1s0,0.1,0,0.1c-0.1,0-0.2,0.1-0.4,0.1c-0.1,0.1-0.2,0.1-0.4,0.2c0.4,0.1,0.7,0,1-0.1c0.1-0.1,0.1-0.1,0.2-0.1c0.1-0.1,0.1-0.1,0.2-0.1c0.1-0.1,0.2-0.1,0.2-0.1s0,0,0,0.1s0,0.1,0,0.1c-0.1,0-0.2,0.1-0.4,0.1c0,0.1-0.1,0.1-0.2,0.2c0,0.1-0.1,0.1-0.1,0.1c-0.1,0.2-0.2,0.2-0.3,0.4c0,0.1-0.1,0.2-0.1,0.3c0.1-0.2,0.2-0.3,0.3-0.4c0.1-0.2,0.3-0.3,0.5-0.4l0,0c0,0.1,0,0.1,0,0.1c-0.2,0.1-0.4,0.2-0.5,0.3s-0.2,0.3-0.3,0.5c0,0.1,0,0,0,0.2c0.1-0.2,0.3-0.3,0.5-0.4c0.2-0.2,0.4-0.2,0.6-0.2c0,0,0,0,0,0.1s0,0.1,0,0.1c-0.1-0.1-0.4,0.1-0.5,0.2c-0.2,0.2-0.4,0.3-0.5,0.6c0.2,0.1,0.5-0.1,0.8-0.2c0.1-0.1,0.2-0.2,0.4-0.2c0-0.1,0-0.1,0.1-0.1c0-0.1,0.1-0.1,0.1-0.2c0,0,0-0.1,0,0s0,0.1,0,0.1c0,0.1-0.1,0.1-0.1,0.2s-0.1,0.1-0.1,0.2c0,0,0,0.1,0,0c-0.1,0.1-0.2,0.2-0.2,0.3c-0.1,0.3,0,0.6-0.2,0.8c0.1-0.1,0.2-0.1,0.2-0.2c0.1-0.1,0.1-0.2,0.2-0.3c0-0.2,0.1-0.3,0.2-0.4s0.2-0.2,0.4-0.2c0,0,0,0,0,0.1s0,0.1,0,0.1c-0.1,0.1-0.2,0.2-0.4,0.2s-0.2,0.2-0.2,0.3s-0.1,0.2-0.2,0.3c0,0.1-0.1,0.2-0.2,0.2c0.1,0,0.1,0,0.2,0s0.3-0.1,0.4-0.2s0.1-0.2,0.2-0.3c0,0,0-0.1,0,0v0.1c0,0.2-0.1,0.2-0.2,0.3c-0.1,0.1-0.2,0.1-0.3,0.2c0.2,0,0.5-0.1,0.7-0.2c0.1-0.1,0.1-0.2,0.2-0.3c0-0.1,0.1-0.2,0.1-0.2s0.1-0.2,0.2-0.2c0,0,0,0,0,0.1s0,0.1,0,0.1c-0.1,0.1-0.1,0.1-0.2,0.2c0,0.1-0.1,0.2-0.1,0.2c0,0.1-0.1,0.3-0.1,0.4c0,0.3,0,0.6,0.1,0.9c0.1-0.1,0.1-0.2,0.2-0.3l0,0c0-0.2,0-0.3,0-0.5s0-0.3,0-0.5v-0.1c0,0,0,0,0,0.1c0,0.2,0,0.3,0,0.5s0,0.2,0,0.4c0.1-0.1,0.1-0.1,0.1-0.2s0.1-0.2,0.1-0.3s0-0.2,0-0.3v-0.1c0,0,0,0,0,0.1s0,0.2,0,0.3c0,0.1,0,0.2,0,0.3c0.1-0.1,0.1-0.1,0.2-0.2c0-0.1,0-0.2,0-0.3s0-0.2,0-0.3c0-0.1,0-0.1,0-0.1v0.1c0,0.1,0,0.2,0,0.2s0,0.2,0,0.3s0,0.2,0.2,0.3c0.1,0.1,0.2,0.2,0.3,0.4c0-0.2,0-0.4,0-0.6s-0.1-0.4-0.1-0.6v-0.1l0,0c0.1,0.2,0.1,0.3,0.2,0.6c0,0.2,0,0.4,0,0.7c0.1-0.1,0.5-0.4,0.5-0.9c0-0.1,0-0.1,0-0.1v-0.1l0,0c0,0.1,0,0.1,0,0.2s0,0.1,0,0.1s0-0.1,0.1-0.1l0.1,0.1c0-0.1,0-0.2,0-0.2c0-0.2,0-0.2,0-0.3v-0.1v0.1c0,0.1,0,0.2,0,0.3c0,0.1,0,0.2,0.1,0.3c0,0,0,0,0,0.1s0,0.1,0.1,0.1c0-0.1,0-0.2,0-0.4s0-0.3,0-0.5v-0.1v0.1c0,0.2,0,0.3,0,0.5s0,0.3,0,0.5l0,0c0.1,0.1,0.1,0.2,0.2,0.3c0.1-0.3,0.1-0.6,0.1-0.9c0-0.1-0.1-0.3-0.1-0.4s-0.1-0.2-0.1-0.2c0-0.1-0.1-0.2-0.2-0.2c0,0,0,0,0-0.1s0-0.1,0-0.1c0.1,0.1,0.1,0.1,0.2,0.2c0,0.1,0.1,0.2,0.1,0.2c0.1,0,0.1,0.2,0.2,0.3c0.2,0.1,0.5,0.2,0.6,0.2c-0.1-0.1-0.2-0.1-0.3-0.2S221,66.1,221,66v-0.1l0,0c0,0.2,0.1,0.2,0.2,0.3c0.1,0.1,0.5,0.2,0.6,0.2c-0.1-0.1-0.1-0.1-0.2-0.2s-0.1-0.2-0.2-0.3c0-0.2-0.1-0.2-0.2-0.3s-0.2-0.2-0.4-0.2c0,0,0,0,0-0.1s0-0.1,0-0.1c0.1,0.1,0.3,0.2,0.4,0.2s0.2,0.2,0.2,0.4s0.1,0.2,0.2,0.3c0,0.1,0.1,0.2,0.2,0.2c-0.1-0.3-0.1-0.6-0.2-0.8c0-0.2-0.4-0.4-0.3-0.4c0-0.1,0.2,0.2,0.4,0.2c0.2,0.1,0.5,0.2,0.8,0.2c-0.2-0.2-0.4-0.4-0.5-0.6c-0.2-0.2-0.4-0.2-0.5-0.2c0,0,0,0,0-0.1s0-0.1,0-0.1c0.2-0.1,0.4,0.1,0.6,0.2c0.1,0.1,0.3,0.2,0.5,0.4c0-0.1,0,0,0-0.1c-0.1-0.2-0.2-0.3-0.4-0.5s-0.3-0.3-0.5-0.3c0,0,0,0,0-0.1s0-0.1,0,0c0.2,0.1,0.4,0.2,0.5,0.4c0.1,0.2,0.2,0.3,0.3,0.4c0-0.1,0-0.2-0.1-0.3c0-0.2-0.1-0.3-0.3-0.4c-0.1-0.1-0.3-0.2-0.3-0.2s0,0-0.1-0.1s-0.2-0.1-0.2-0.1s0,0,0-0.1s0-0.1,0-0.1s0.1,0.1,0.2,0.1l0.1,0.1c0.1,0,0.2,0.1,0.3,0.1c0.3,0.1,0.6,0.2,1,0.1c-0.1-0.1-0.2-0.1-0.4-0.2s-0.2-0.1-0.4-0.1c0,0,0,0,0-0.1s0-0.1,0-0.1c0.1,0,0.3,0.1,0.4,0.1c0.1,0.1,0.2,0.1,0.4,0.2c0.1,0.1,0.1,0,0.2-0.1c-0.2-0.2-0.2-0.3-0.3-0.6l0,0c-0.1-0.2-0.3-0.3-0.5-0.3c-0.1-0.1-0.3-0.2-0.5-0.1c0,0,0,0,0-0.1s0-0.1,0-0.1c0.2-0.1,0.4,0,0.5,0.1s0.3,0.2,0.4,0.3c0,0,0,0,0-0.1c0-0.4-0.3-0.7-0.6-0.8c-0.1,0-0.3,0.1-0.3-0.1c0-0.1,0.1-0.1,0.4-0.2c0.5-0.2,1-0.4,1.2-1c-0.1,0.1-0.1,0.1-0.3,0.2c-0.1,0.1-0.3,0.2-0.5,0.2c-0.1,0.1-0.2,0.1-0.3,0.1c-0.1,0.1-0.1,0.1-0.2,0.2c0,0,0,0.1,0,0s0-0.1,0-0.1c0-0.1,0.1-0.2,0.2-0.2c0.1-0.1,0.2-0.1,0.4-0.2c0.2-0.1,0.4-0.1,0.5-0.2c0.1-0.1,0.1-0.1,0.2-0.1c-0.2,0-0.5,0-0.7,0c-0.2,0.1-0.5,0.2-0.6,0.2S222,61,222,61.1v0.1v-0.1c0-0.2,0.1-0.3,0.4-0.4c0.1-0.1,0.2-0.1,0.4-0.2h-0.1c-0.1,0-0.1-0.1,0-0.2c0.1-0.1,0.3-0.2,0.4-0.3c0.4-0.5,0.6-1.1,0.7-1.7c0,0.1-0.1,0.2-0.1,0.3c-0.1,0.1-0.2,0.2-0.4,0.2c0,0.2-0.1,0.4-0.2,0.6c-0.1,0.2-0.3,0.2-0.5,0.3c0,0-0.1-0.1,0-0.1c0.2-0.2,0.4-0.3,0.4-0.5c0.1-0.2,0.1-0.4,0.1-0.6v-0.1c0,0,0,0,0,0.1c0,0.2,0,0.4-0.1,0.6c0,0.2-0.1,0.2-0.2,0.3c0.1-0.1,0.2-0.2,0.3-0.2c0.1-0.2,0.2-0.3,0.2-0.6v-0.1c0.1-0.1,0.2-0.1,0.3-0.2c0.1-0.1,0.1-0.2,0.2-0.3c-0.2,0.1-0.5,0.1-0.7,0.1C222.7,58.4,222.5,58.4,222.1,58.5L222.1,58.5z M222.1,58.3c-1-0.2-2-0.2-3-0.2s-2,0.1-3,0.2v0.1c0,0.1,0,0.1,0.2,0.1c1-0.1,1.9-0.2,2.9-0.2s2,0.1,3,0.2C222.1,58.4,222.1,58.3,222.1,58.3L222.1,58.3z M216,58.2c1-0.1,2-0.2,3-0.2s2,0.1,3,0.2V58c0,0,0,0-0.1,0s-0.2-0.1-0.2-0.2s0.1-0.2,0.2-0.2s0.1,0.1,0.1,0.1l0.1-0.2c-1-0.1-2.1-0.2-3.2-0.2c-1.1,0-2.1,0.1-3.2,0.2l0.1,0.2c0-0.1,0.1-0.1,0.1-0.1c0.1,0,0.2,0.1,0.2,0.2s0,0.2-0.1,0.2l0,0V58.2L216,58.2L216,58.2z M220.6,57.6c-0.1,0-0.2,0.1-0.2,0.2s0.1,0.2,0.2,0.2s0.2-0.1,0.2-0.2S220.7,57.6,220.6,57.6z M220.6,57.7l-0.1,0.1c0,0.1,0,0.1,0.1,0.1l0.1-0.1C220.7,57.7,220.6,57.7,220.6,57.7z M219,57.5c-0.1,0-0.2,0.1-0.2,0.2s0.1,0.2,0.2,0.2s0.2-0.1,0.2-0.2S219.1,57.5,219,57.5z M219,57.6l-0.1,0.1c0,0,0,0.1,0.1,0.1l0.1-0.1C219,57.7,219,57.6,219,57.6z M217.4,57.6c-0.1,0-0.2,0.1-0.2,0.2s0.1,0.2,0.2,0.2s0.2-0.1,0.2-0.2S217.5,57.6,217.4,57.6z M217.4,57.7l-0.1,0.1c0,0,0,0.1,0.1,0.1l0.1-0.1C217.5,57.7,217.5,57.7,217.4,57.7z" />
    <path fill="#000000" d="M224.9,70.8c0.1,0,0.1,0.2,0.1,0.2s0.1,0,0.2,0c0-0.1,0.1-0.2,0.1-0.3c0.1-0.1,0.1-0.2,0.2-0.2v-0.1c-0.1,0-0.2-0.1-0.3-0.2c0,0-0.1-0.2-0.1-0.3H225c0,0.1-0.1,0.3-0.1,0.4c-0.1,0.1-0.2,0.2-0.2,0.2v0.1C224.8,70.7,224.8,70.8,224.9,70.8z M225,70.5c0-0.1,0-0.2,0.1-0.2c0,0,0.1,0.1,0.1,0.2s0.1,0.1,0.2,0.2c0,0-0.1,0.1-0.2,0.1s0,0.1-0.1,0.2c-0.1-0.1-0.1-0.2-0.1-0.2s-0.2,0-0.2-0.1C224.8,70.7,224.9,70.5,225,70.5z M226,78.9C226,79,226,79,226,78.9c-0.2,0.1-0.4,0.2-0.6,0.1c-0.1,0-0.2-0.1-0.3-0.2c0,0.1-0.2,0.2-0.3,0.2s-0.2,0-0.3,0h0.1c0.1,0,0.2-0.1,0.3-0.2V78c-0.2,0-0.3,0-0.5,0s-0.2-0.1-0.3-0.2c0-0.1,0-0.3,0-0.5l0,0l0,0c0,0.1,0,0.3,0,0.4s0.1,0.1,0.2,0.2c0.1,0,0.3,0,0.5,0c0.1,0,0.3,0,0.5,0c0.1-0.1,0.2-0.1,0.3-0.2c0-0.1,0.1-0.2,0.1-0.2v-0.1c0,0-0.1,0-0.2,0c0,0-0.1,0-0.2,0c0,0,0,0-0.1,0s0,0,0,0l0,0c0,0,0,0,0.1,0s0.2-0.1,0.2-0.1c0.1,0,0.2,0.1,0.2,0.1s0.1,0.1,0.1,0.2s0,0.2-0.1,0.3c-0.1,0.1-0.2,0.2-0.3,0.2s-0.2,0-0.4,0v0.7c0,0.1,0.2,0.2,0.3,0.2C225.6,79,225.8,78.9,226,78.9L226,78.9z M224.5,78.5l-0.9-0.5v-0.1c0.1,0,0.1,0,0.1,0l0.9,0.5C224.5,78.3,224.6,78.4,224.5,78.5L224.5,78.5z M225.2,79.3C225.2,79.4,225.2,79.4,225.2,79.3l-0.6,0.1c0,0,0,0,0-0.1l0,0H225.2L225.2,79.3z M224.3,79c0.1,0,0.1,0,0.2,0c-0.1,0-0.3,0-0.4,0C224,79,224,79,224.3,79C224.2,79,224.2,79,224.3,79z M226.3,78.4C226.4,78.5,226.3,78.5,226.3,78.4l-0.8,0.4l0,0c0-0.1,0-0.1,0-0.1L226.3,78.4C226.3,78.3,226.3,78.3,226.3,78.4z M224.5,78.8l-0.8-0.3l0,0c0-0.1,0-0.1,0-0.1L224.5,78.8C224.5,78.7,224.5,78.7,224.5,78.8L224.5,78.8z M226.4,77.8c0,0.1,0,0.1,0,0.1l-0.9,0.5c0,0,0,0-0.1,0c-0.1-0.1,0-0.1,0-0.1l0.9-0.5C226.2,77.8,226.3,77.8,226.4,77.8z M223.4,74.2C223.4,74.1,223.4,74.1,223.4,74.2c0.2-0.1,0.4,0,0.7,0.1s0.5,0.3,0.7,0.5c0,0,0,0,0,0.1c-0.1,0-0.1,0-0.1,0c-0.2-0.2-0.5-0.3-0.7-0.5C223.8,74.2,223.6,74.2,223.4,74.2L223.4,74.2z M225.5,74.8c0.2-0.2,0.5-0.3,0.7-0.5c0.2-0.1,0.4-0.1,0.5-0.1l0,0l0,0c-0.2,0-0.3,0-0.5,0.2C226,74.5,225.8,74.7,225.5,74.8C225.6,74.8,225.5,74.9,225.5,74.8L225.5,74.8z M227.5,74.3C227.4,74.2,227.4,74.3,227.5,74.3c-0.2,0.1-0.2,0.2-0.3,0.2c-0.1,0.1-0.2,0.1-0.3,0.2c-0.2,0-0.3,0-0.5,0.1s-0.3,0.2-0.5,0.3l0,0l0,0c-0.1,0-0.2,0-0.2,0c-0.1,0-0.2,0-0.2-0.1c-0.1-0.1-0.1-0.2-0.1-0.3c0-0.1,0-0.2,0-0.3c0-0.2,0-0.3,0-0.4s0.1-0.2,0.2-0.3c0,0,0,0-0.1-0.1c0-0.1-0.1,0-0.1,0c0,0.1-0.1,0.2-0.2,0.3s0,0.2,0,0.4l0,0c0-0.2,0-0.3,0-0.4s-0.1-0.2-0.2-0.3c0,0,0,0-0.2,0v0.1c0,0.1,0.1,0.2,0.2,0.3c0,0.1,0,0.2,0,0.4c0,0.1,0,0.2,0,0.4c0,0.1-0.1,0.2-0.1,0.3l-0.2,0.1c-0.1,0.1-0.1,0.1-0.2,0c0,0.1,0.1,0.3,0.1,0.4c0-0.1,0-0.2,0-0.3c0.1,0,0.2,0,0.2,0c0.1,0,0.2,0,0.2-0.1c0.1-0.1,0.2-0.2,0.2-0.4l0,0c0,0.1,0,0.2,0.2,0.3c0,0.1,0.1,0.2,0.2,0.2c0.1,0,0.1,0,0.2,0c0,0.2,0,0.3,0,0.5c0,0,0,0,0.1,0c0,0,0.1,0,0.1-0.1l0,0c0-0.2,0-0.2,0-0.4l0,0l0.1-0.1l0,0c0,0.2,0.1,0.3,0.3,0.3c0,0-0.1,0-0.1,0.1c0,0-0.1,0.1-0.2,0.1H226h0.1c0,0,0.1,0,0.2-0.1c0.1,0,0.2-0.1,0.3-0.1s0.2-0.1,0.2-0.2s0.1-0.1,0.1-0.2l0,0c0,0.1-0.1,0.2-0.1,0.2s-0.1,0.1-0.2,0.2c0,0,0.1-0.1,0.1-0.2s-0.1-0.2-0.2-0.3c0.1-0.1,0.3-0.1,0.4-0.1c0,0.1,0,0.1,0,0.2c0,0,0,0,0-0.1v-0.2c0.1,0,0.2-0.1,0.3-0.2c0.1,0,0.2-0.1,0.2-0.2C227.5,74.3,227.5,74.3,227.5,74.3z M226.5,75.2c0,0.1,0,0.1-0.1,0.2C226.4,75.4,226.5,75.3,226.5,75.2c0,0-0.1-0.1-0.2-0.1c0,0-0.1,0-0.1,0.1c0,0,0,0.2,0.1,0.2c-0.1,0-0.2-0.1-0.2-0.2s0.1-0.2,0.2-0.2C226.5,75,226.5,75.2,226.5,75.2z M224,75.5c-0.1,0-0.1,0-0.1-0.1c0.1-0.1,0.2-0.1,0.2-0.2c0,0,0,0,0-0.1c0.1,0,0.1,0.1,0.2,0.1l0,0l0,0l-0.1-0.1c0-0.1-0.1-0.2-0.3-0.2l0,0h-0.1c-0.2-0.1-0.3-0.2-0.5-0.2c-0.1-0.1-0.2-0.2-0.3-0.2c0-0.1-0.2-0.1-0.2-0.2c0,0,0,0-0.1,0c0,0.1,0,0.1,0,0.1c0.1,0,0.1,0.1,0.2,0.2c0.1,0,0.2,0.1,0.3,0.1c0,0.1,0,0.2,0,0.2c0,0.1,0.1,0.2,0.1,0.2c0.1,0.1,0.1,0.2,0.2,0.2c0.1,0,0.2,0.1,0.4,0.2c0.1,0,0.2,0,0.2,0.1s0.2,0,0.2,0.1h0.1v-0.1h-0.1C224.2,75.6,224.1,75.5,224,75.5z M223.9,75.4C223.9,75.4,224,75.3,223.9,75.4c0-0.2-0.1-0.2-0.1-0.2s-0.1,0-0.1,0.1v0.1l0,0l-0.1-0.1c0-0.1,0.1-0.2,0.2-0.2c0.1,0,0.2,0.1,0.2,0.2C224,75.3,224,75.4,223.9,75.4z M223.4,75c0,0,0-0.1,0-0.2c0.1,0,0.3,0.1,0.4,0.1c-0.1,0-0.2,0.1-0.2,0.3C223.4,75.2,223.4,75.1,223.4,75z M224.2,75.3L224.2,75.3L224.2,75.3L224.2,75.3L224.2,75.3z M224.4,75.7L224.4,75.7L224.4,75.7L224.4,75.7z M224.3,76.5c0,0-0.1-0.1-0.1-0.2s0.1-0.2,0.2-0.3c0.1-0.1,0.2-0.2,0.2-0.2s0,0,0.1,0c0,0,0,0,0,0.1c-0.1,0.1-0.2,0.2-0.2,0.2C224.5,76.2,224.4,76.3,224.3,76.5C224.4,76.5,224.4,76.5,224.3,76.5z M230.9,56.2c0.1,0,0.1,0.2,0.1,0.2s0.1,0,0.2,0c0-0.1,0.1-0.2,0.1-0.3c0.1-0.1,0.1-0.2,0.2-0.2v-0.1c-0.1,0-0.2-0.1-0.3-0.2c0,0-0.1-0.2-0.1-0.3H231c0,0.1-0.1,0.3-0.1,0.4c-0.1,0.1-0.2,0.2-0.2,0.2V56C230.8,56.1,230.8,56.1,230.9,56.2z M231,55.9c0-0.1,0-0.2,0.1-0.2c0,0,0.1,0.1,0.1,0.2c0,0.1,0.1,0.1,0.2,0.2c0,0-0.1,0.1-0.2,0.1s0,0.1-0.1,0.2c-0.1-0.1-0.1-0.2-0.1-0.2s-0.2,0-0.2-0.1C230.8,56.1,230.9,55.9,231,55.9z M232,64.3C232,64.4,232,64.4,232,64.3c-0.2,0.1-0.4,0.2-0.6,0.1c-0.1,0-0.2-0.1-0.3-0.2c0,0.1-0.2,0.2-0.3,0.2s-0.2,0-0.3,0h0.1c0.1,0,0.2-0.1,0.3-0.2v-0.8c-0.2,0-0.3,0-0.5,0s-0.2-0.1-0.3-0.2c0-0.1,0-0.3,0-0.5l0,0l0,0c0,0.1,0,0.3,0,0.4c0,0.1,0.1,0.1,0.2,0.2c0.1,0,0.3,0,0.5,0c0.1,0,0.3,0,0.5,0c0.1-0.1,0.2-0.1,0.3-0.2c0-0.1,0.1-0.2,0.1-0.2v-0.1c0,0-0.1,0-0.2,0c0,0-0.1,0-0.2,0c0,0,0,0-0.1,0s0,0,0,0l0,0c0,0,0,0,0.1,0s0.2-0.1,0.2-0.1c0.1,0,0.2,0.1,0.2,0.1s0.1,0.1,0.1,0.2c0,0.1,0,0.2-0.1,0.3s-0.2,0.2-0.3,0.2s-0.2,0-0.4,0v0.7c0,0.1,0.2,0.2,0.3,0.2C231.6,64.4,231.8,64.3,232,64.3L232,64.3z M230.5,63.8l-0.9-0.5v-0.1c0.1,0,0.1,0,0.1,0l0.9,0.5C230.5,63.7,230.6,63.8,230.5,63.8C230.5,63.9,230.5,63.9,230.5,63.8z M231.2,64.7C231.2,64.8,231.2,64.8,231.2,64.7l-0.6,0.1c0,0,0,0,0-0.1l0,0H231.2L231.2,64.7z M230.3,64.4c0.1,0,0.1,0,0.2,0c-0.1,0-0.3,0-0.4,0C230,64.4,230,64.4,230.3,64.4C230.2,64.4,230.2,64.4,230.3,64.4z M232.3,63.8C232.4,63.8,232.3,63.8,232.3,63.8l-0.8,0.4l0,0c0-0.1,0-0.1,0-0.1L232.3,63.8C232.3,63.7,232.3,63.7,232.3,63.8z M230.5,64.1l-0.8-0.3l0,0c0-0.1,0-0.1,0-0.1L230.5,64.1L230.5,64.1L230.5,64.1z M232.4,63.2c0,0.1,0,0.1,0,0.1l-0.9,0.5c0,0,0,0-0.1,0c-0.1-0.1,0-0.1,0-0.1l0.9-0.5C232.2,63.2,232.3,63.2,232.4,63.2z M229.4,59.6C229.4,59.5,229.4,59.5,229.4,59.6c0.2-0.1,0.4,0,0.7,0.1s0.5,0.3,0.7,0.5c0,0,0,0,0,0.1c-0.1,0-0.1,0-0.1,0c-0.2-0.2-0.5-0.3-0.7-0.5C229.8,59.6,229.6,59.6,229.4,59.6L229.4,59.6z M231.5,60.1c0.2-0.2,0.5-0.3,0.7-0.5c0.2-0.1,0.4-0.1,0.5-0.1l0,0l0,0c-0.2,0-0.3,0-0.5,0.2S231.8,60.1,231.5,60.1C231.6,60.2,231.5,60.3,231.5,60.1L231.5,60.1z M233.5,59.7C233.4,59.6,233.4,59.7,233.5,59.7c-0.2,0.1-0.2,0.2-0.3,0.2c-0.1,0.1-0.2,0.1-0.3,0.2c-0.2,0-0.3,0-0.5,0.1s-0.3,0.2-0.5,0.3l0,0l0,0c-0.1,0-0.2,0-0.2,0c-0.1,0-0.2,0-0.2-0.1c-0.1-0.1-0.1-0.2-0.1-0.3s0-0.2,0-0.3c0-0.2,0-0.3,0-0.4c0-0.1,0.1-0.2,0.2-0.3c0,0,0,0-0.1-0.1c0-0.1-0.1,0-0.1,0c0,0.1-0.1,0.2-0.2,0.3s0,0.2,0,0.4l0,0c0-0.2,0-0.3,0-0.4c0-0.1-0.1-0.2-0.2-0.3c0,0,0,0-0.2,0v0.1c0,0.1,0.1,0.2,0.2,0.3c0,0.1,0,0.2,0,0.4c0,0.1,0,0.2,0,0.4c0,0.1-0.1,0.2-0.1,0.3l-0.2,0.1c-0.1,0.1-0.1,0.1-0.2,0c0,0.1,0.1,0.3,0.1,0.4c0-0.1,0-0.2,0-0.3c0.1,0,0.2,0,0.2,0c0.1,0,0.2,0,0.2-0.1c0.1-0.1,0.2-0.2,0.2-0.4l0,0c0,0.1,0,0.2,0.2,0.3c0,0.1,0.1,0.2,0.2,0.2c0.1,0,0.1,0,0.2,0c0,0.2,0,0.3,0,0.5c0,0,0,0,0.1,0c0,0,0.1,0,0.1-0.1l0,0c0-0.2,0-0.2,0-0.4l0,0l0.1-0.1l0,0c0,0.2,0.1,0.3,0.3,0.3c0,0-0.1,0-0.1,0.1c0,0-0.1,0.1-0.2,0.1H232h0.1c0,0,0.1,0,0.2-0.1c0.1,0,0.2-0.1,0.3-0.1s0.2-0.1,0.2-0.2s0.1-0.1,0.1-0.2l0,0c0,0.1-0.1,0.2-0.1,0.2s-0.1,0.1-0.2,0.2c0,0,0.1-0.1,0.1-0.2c0-0.1-0.1-0.2-0.2-0.3c0.1-0.1,0.3-0.1,0.4-0.1c0,0.1,0,0.1,0,0.2c0,0,0,0,0-0.1v-0.2c0.1,0,0.2-0.1,0.3-0.2c0.1,0,0.2-0.1,0.2-0.2C233.5,59.7,233.5,59.7,233.5,59.7z M232.5,60.6c0,0.1,0,0.1-0.1,0.2C232.4,60.8,232.5,60.7,232.5,60.6c0,0-0.1-0.1-0.2-0.1c0,0-0.1,0-0.1,0.1c0,0,0,0.2,0.1,0.2c-0.1,0-0.2-0.1-0.2-0.2s0.1-0.2,0.2-0.2C232.5,60.4,232.5,60.6,232.5,60.6z M230,60.9c-0.1,0-0.1,0-0.1-0.1c0.1-0.1,0.2-0.1,0.2-0.2c0,0,0,0,0-0.1c0.1,0,0.1,0.1,0.2,0.1l0,0l0,0l-0.1-0.1c0-0.1-0.1-0.2-0.3-0.2l0,0h-0.1c-0.2-0.1-0.3-0.2-0.5-0.2c-0.1-0.1-0.2-0.2-0.3-0.2c0-0.1-0.2-0.1-0.2-0.2c0,0,0,0-0.1,0c0,0.1,0,0.1,0,0.1c0.1,0,0.1,0.1,0.2,0.2c0.1,0,0.2,0.1,0.3,0.1c0,0.1,0,0.2,0,0.2c0,0.1,0.1,0.2,0.1,0.2c0.1,0.1,0.1,0.2,0.2,0.2c0.1,0,0.2,0.1,0.4,0.2c0.1,0,0.2,0,0.2,0.1s0.2,0,0.2,0.1h0.1V61h-0.1C230.2,61,230.1,60.9,230,60.9z M229.9,60.8C229.9,60.8,230,60.7,229.9,60.8c0-0.2-0.1-0.2-0.1-0.2s-0.1,0-0.1,0.1v0.1l0,0l-0.1-0.1c0-0.1,0.1-0.2,0.2-0.2c0.1,0,0.2,0.1,0.2,0.2C230,60.7,230,60.8,229.9,60.8z M229.4,60.4c0,0,0-0.1,0-0.2c0.1,0,0.3,0.1,0.4,0.1c-0.1,0-0.2,0.1-0.2,0.3C229.4,60.6,229.4,60.5,229.4,60.4z M230.2,60.7L230.2,60.7L230.2,60.7L230.2,60.7L230.2,60.7z M230.4,61.1L230.4,61.1L230.4,61.1L230.4,61.1z M230.3,61.8c0,0-0.1-0.1-0.1-0.2c0-0.1,0.1-0.2,0.2-0.3c0.1-0.1,0.2-0.2,0.2-0.2s0,0,0.1,0c0,0,0,0,0,0.1c-0.1,0.1-0.2,0.2-0.2,0.2C230.5,61.6,230.4,61.7,230.3,61.8C230.4,61.8,230.4,61.8,230.3,61.8z M218.9,56.2c0.1,0,0.1,0.2,0.1,0.2s0.1,0,0.2,0c0-0.1,0.1-0.2,0.1-0.3c0.1-0.1,0.1-0.2,0.2-0.2v-0.1c-0.1,0-0.2-0.1-0.3-0.2c0,0-0.1-0.2-0.1-0.3H219c0,0.1-0.1,0.3-0.1,0.4c-0.1,0.1-0.2,0.2-0.2,0.2V56C218.8,56.1,218.8,56.1,218.9,56.2z M219,55.9c0-0.1,0-0.2,0.1-0.2c0,0,0.1,0.1,0.1,0.2c0,0.1,0.1,0.1,0.2,0.2c0,0-0.1,0.1-0.2,0.1s0,0.1-0.1,0.2c-0.1-0.1-0.1-0.2-0.1-0.2s-0.2,0-0.2-0.1C218.8,56.1,218.9,55.9,219,55.9z M220,64.3C220,64.4,220,64.4,220,64.3c-0.2,0.1-0.4,0.2-0.6,0.1c-0.1,0-0.2-0.1-0.3-0.2c0,0.1-0.2,0.2-0.3,0.2s-0.2,0-0.3,0h0.1c0.1,0,0.2-0.1,0.3-0.2v-0.8c-0.2,0-0.3,0-0.5,0s-0.2-0.1-0.3-0.2c0-0.1,0-0.3,0-0.5l0,0l0,0c0,0.1,0,0.3,0,0.4c0,0.1,0.1,0.1,0.2,0.2c0.1,0,0.3,0,0.5,0c0.1,0,0.3,0,0.5,0c0.1-0.1,0.2-0.1,0.3-0.2c0-0.1,0.1-0.2,0.1-0.2v-0.1c0,0-0.1,0-0.2,0c0,0-0.1,0-0.2,0c0,0,0,0-0.1,0s0,0,0,0l0,0c0,0,0,0,0.1,0s0.2-0.1,0.2-0.1c0.1,0,0.2,0.1,0.2,0.1s0.1,0.1,0.1,0.2c0,0.1,0,0.2-0.1,0.3s-0.2,0.2-0.3,0.2s-0.2,0-0.4,0v0.7c0,0.1,0.2,0.2,0.3,0.2C219.6,64.4,219.8,64.3,220,64.3L220,64.3z M218.5,63.8l-0.9-0.5v-0.1c0.1,0,0.1,0,0.1,0l0.9,0.5C218.5,63.7,218.6,63.8,218.5,63.8C218.5,63.9,218.5,63.9,218.5,63.8z M219.2,64.7C219.2,64.8,219.2,64.8,219.2,64.7l-0.6,0.1c0,0,0,0,0-0.1l0,0H219.2L219.2,64.7z M218.3,64.4c0.1,0,0.1,0,0.2,0c-0.1,0-0.3,0-0.4,0C218,64.4,218,64.4,218.3,64.4C218.2,64.4,218.2,64.4,218.3,64.4z M220.3,63.8C220.4,63.8,220.3,63.8,220.3,63.8l-0.8,0.4l0,0c0-0.1,0-0.1,0-0.1L220.3,63.8C220.3,63.7,220.3,63.7,220.3,63.8z M218.5,64.1l-0.8-0.3l0,0c0-0.1,0-0.1,0-0.1L218.5,64.1L218.5,64.1L218.5,64.1z M220.4,63.2c0,0.1,0,0.1,0,0.1l-0.9,0.5c0,0,0,0-0.1,0c-0.1-0.1,0-0.1,0-0.1l0.9-0.5C220.2,63.2,220.3,63.2,220.4,63.2z M217.4,59.6C217.4,59.5,217.4,59.5,217.4,59.6c0.2-0.1,0.4,0,0.7,0.1s0.5,0.3,0.7,0.5c0,0,0,0,0,0.1c-0.1,0-0.1,0-0.1,0c-0.2-0.2-0.5-0.3-0.7-0.5C217.8,59.6,217.6,59.6,217.4,59.6L217.4,59.6z M219.5,60.1c0.2-0.2,0.5-0.3,0.7-0.5c0.2-0.1,0.4-0.1,0.5-0.1l0,0l0,0c-0.2,0-0.3,0-0.5,0.2S219.8,60.1,219.5,60.1C219.6,60.2,219.5,60.3,219.5,60.1L219.5,60.1z M221.5,59.7C221.4,59.6,221.4,59.7,221.5,59.7c-0.2,0.1-0.2,0.2-0.3,0.2c-0.1,0.1-0.2,0.1-0.3,0.2c-0.2,0-0.3,0-0.5,0.1s-0.3,0.2-0.5,0.3l0,0l0,0c-0.1,0-0.2,0-0.2,0c-0.1,0-0.2,0-0.2-0.1c-0.1-0.1-0.1-0.2-0.1-0.3s0-0.2,0-0.3c0-0.2,0-0.3,0-0.4c0-0.1,0.1-0.2,0.2-0.3c0,0,0,0-0.1-0.1c0-0.1-0.1,0-0.1,0c0,0.1-0.1,0.2-0.2,0.3s0,0.2,0,0.4l0,0c0-0.2,0-0.3,0-0.4c0-0.1-0.1-0.2-0.2-0.3c0,0,0,0-0.2,0v0.1c0,0.1,0.1,0.2,0.2,0.3c0,0.1,0,0.2,0,0.4c0,0.1,0,0.2,0,0.4c0,0.1-0.1,0.2-0.1,0.3l-0.2,0.1c-0.1,0.1-0.1,0.1-0.2,0c0,0.1,0.1,0.3,0.1,0.4c0-0.1,0-0.2,0-0.3c0.1,0,0.2,0,0.2,0c0.1,0,0.2,0,0.2-0.1c0.1-0.1,0.2-0.2,0.2-0.4l0,0c0,0.1,0,0.2,0.2,0.3c0,0.1,0.1,0.2,0.2,0.2c0.1,0,0.1,0,0.2,0c0,0.2,0,0.3,0,0.5c0,0,0,0,0.1,0c0,0,0.1,0,0.1-0.1l0,0c0-0.2,0-0.2,0-0.4l0,0l0.1-0.1l0,0c0,0.2,0.1,0.3,0.3,0.3c0,0-0.1,0-0.1,0.1c0,0-0.1,0.1-0.2,0.1H220h0.1c0,0,0.1,0,0.2-0.1c0.1,0,0.2-0.1,0.3-0.1s0.2-0.1,0.2-0.2s0.1-0.1,0.1-0.2l0,0c0,0.1-0.1,0.2-0.1,0.2s-0.1,0.1-0.2,0.2c0,0,0.1-0.1,0.1-0.2c0-0.1-0.1-0.2-0.2-0.3c0.1-0.1,0.3-0.1,0.4-0.1c0,0.1,0,0.1,0,0.2c0,0,0,0,0-0.1v-0.2c0.1,0,0.2-0.1,0.3-0.2c0.1,0,0.2-0.1,0.2-0.2C221.5,59.7,221.5,59.7,221.5,59.7z M220.5,60.6c0,0.1,0,0.1-0.1,0.2C220.4,60.8,220.5,60.7,220.5,60.6c0,0-0.1-0.1-0.2-0.1c0,0-0.1,0-0.1,0.1c0,0,0,0.2,0.1,0.2c-0.1,0-0.2-0.1-0.2-0.2s0.1-0.2,0.2-0.2C220.5,60.4,220.5,60.6,220.5,60.6z M218,60.9c-0.1,0-0.1,0-0.1-0.1c0.1-0.1,0.2-0.1,0.2-0.2c0,0,0,0,0-0.1c0.1,0,0.1,0.1,0.2,0.1l0,0l0,0l-0.1-0.1c0-0.1-0.1-0.2-0.3-0.2l0,0h-0.1c-0.2-0.1-0.3-0.2-0.5-0.2c-0.1-0.1-0.2-0.2-0.3-0.2c0-0.1-0.2-0.1-0.2-0.2c0,0,0,0-0.1,0c0,0.1,0,0.1,0,0.1c0.1,0,0.1,0.1,0.2,0.2c0.1,0,0.2,0.1,0.3,0.1c0,0.1,0,0.2,0,0.2c0,0.1,0.1,0.2,0.1,0.2c0.1,0.1,0.1,0.2,0.2,0.2c0.1,0,0.2,0.1,0.4,0.2c0.1,0,0.2,0,0.2,0.1s0.2,0,0.2,0.1h0.1V61h-0.1C218.2,61,218.1,60.9,218,60.9z M217.9,60.8C217.9,60.8,218,60.7,217.9,60.8c0-0.2-0.1-0.2-0.1-0.2s-0.1,0-0.1,0.1v0.1l0,0l-0.1-0.1c0-0.1,0.1-0.2,0.2-0.2c0.1,0,0.2,0.1,0.2,0.2C218,60.7,218,60.8,217.9,60.8z M217.4,60.4c0,0,0-0.1,0-0.2c0.1,0,0.3,0.1,0.4,0.1c-0.1,0-0.2,0.1-0.2,0.3C217.4,60.6,217.4,60.5,217.4,60.4z M218.2,60.7L218.2,60.7L218.2,60.7L218.2,60.7L218.2,60.7z M218.4,61.1L218.4,61.1L218.4,61.1L218.4,61.1z M218.3,61.8c0,0-0.1-0.1-0.1-0.2c0-0.1,0.1-0.2,0.2-0.3c0.1-0.1,0.2-0.2,0.2-0.2s0,0,0.1,0c0,0,0,0,0,0.1c-0.1,0.1-0.2,0.2-0.2,0.2C218.5,61.6,218.4,61.7,218.3,61.8C218.4,61.8,218.4,61.8,218.3,61.8z" />
  </g>
  <g>
    <path fill="#0093DD" d="M280.6,97.8l13-29.4L284,53l-17,6.3l-5.7,10.8l-2.2,20.3C266.5,92.2,273.7,94.8,280.6,97.8L280.6,97.8z" />
    <path fill="#FFFFFF" d="M263.7,70.5c8.5,2.2,17.5,5.3,25.5,8.8l-5.1,11.3c-7.3-3.2-15.5-6.1-23.4-8.1L263.7,70.5z" />
    <path fill="#FF0000" d="M288,81.1c-7.8-3.4-16.4-6.4-24.8-8.6l-1.9,7.8c8,2.1,16.1,4.9,23.5,8.1L288,81.1z" />
    <path fill="#000000" d="M266,78.6c0.2-0.2,0.5-0.1,0.7-0.1c0.2-0.1,0.4-0.1,0.6-0.1c0.1-0.1,0.2-0.1,0.4-0.1c0-0.1,0.1-0.1,0-0.2c0-0.1-0.1-0.2-0.1-0.2c-0.4-0.2-0.5-0.6-0.6-0.9c-0.2-0.1-0.3-0.2-0.4-0.2s-0.2,0-0.3-0.1c-0.5,0.1-0.6-0.1-0.8-0.2c-0.1-0.1-0.3-0.2-0.4-0.3c0-0.1-0.1-0.2-0.1-0.2c-0.1-0.2-0.1-0.4,0.1-0.4c0.1,0,0.3,0,0.4-0.1s0.4-0.1,0.5-0.1c0.2,0,0.4-0.2,0.5-0.3c0-0.1,0-0.2,0-0.2c0-0.1,0-0.2,0.1-0.1c0.2,0,0.5,0.2,0.5,0.3c0.3,0.1,0.5,0.2,0.8,0.4c0.4,0,0.7,0.2,0.8,0.3c0,0.1-0.1,0.2-0.3,0.4c0,0.1,0,0.1,0,0.1c0.1,0.1,0.2,0.2,0.2,0.3c0.2,0.1,0.5,0.2,0.6,0.4c0.6-0.1,1.6,0.3,3,1.2c0.9,0.2,1.8,0.4,2.5,0.8c0.1,0,0.4,0,0.5,0c1.5-0.2,2.9-0.1,4.2,0.9c0.5,0.1,1,0.2,1.4,0.4c0.3,0.2,0.6,0.2,1,0.2c0.5,0.1,1.1,0.2,1.6,0.4c0.6,0.2,1.2,0.3,1.5,0.8c0.2,0.3,0.2,0.6-0.1,0.7c-0.2,0.4-0.6,0.4-1.1,0.2c-0.4,0.1-0.9-0.2-1.2-0.6c-0.5-0.2-1-0.5-1.5-0.8c-0.2-0.2-0.5-0.3-0.8-0.3c-0.2-0.1-0.4-0.1-0.5,0c0,0.1,0,0.1,0,0.1c0.1,0.1,0.2,0.3,0.2,0.5s0,0.4,0,0.6s0.1,0.4,0.4,0.6c0.1,0.1,0.4,0.2,0.6,0.2C281,83,281,83,281,83.1c0.1,0.3,0.1,0.8,0.3,1.1c0,0.1,0.1,0.2,0.2,0.2c0.4,0.2,0.2,0.6-0.1,0.6c-0.3,0.2-0.5,0.4-0.9,0.5c-0.2,0.1-0.4,0-0.4-0.2c-0.1,0-0.2-0.1-0.3-0.2c-0.3-0.2,0-0.6,0.6-0.4c0-0.1,0-0.1,0.1-0.1c0-0.2,0-0.4,0-0.6c0-0.1-0.1-0.1-0.2-0.1c-0.2-0.1-0.5-0.2-0.7-0.3c-0.4-0.3-0.9-0.6-1.5-0.9c-0.5,0-0.8-0.2-1.1-0.4c-0.1,0-0.3,0-0.5,0c-0.1-0.1-0.2,0-0.4,0.1c-0.1,0.2-0.3,0.2-0.5,0.1s-0.5,0-0.6,0c-0.1,0.1-0.2,0.1-0.4,0.1c-0.2,0-0.5,0-0.6,0.1c-0.1,0.2-0.2,0.2-0.4,0.1c-0.1-0.1-0.2-0.1-0.2-0.2c-0.1-0.1-0.3-0.1-0.3-0.2c-0.3-0.1-0.4-0.2-0.4-0.2c-0.4-0.1-0.2-0.4,0-0.4c0.3,0,0.5,0.1,0.9,0.1c0.2,0.1,0.5,0.1,0.8-0.2c0.1-0.1,0.1-0.2,0.4-0.3c-0.5-0.1-0.9-0.1-1.1-0.3c-0.8-0.4-1.3-0.6-1.8-0.2c-0.1,0.1-0.2,0.1-0.4,0.1c-0.1-0.1-0.2-0.1-0.4,0c-0.2,0.1-0.5,0.1-0.8-0.1c-0.4,0.1-0.8,0.1-1.1,0.1c-0.3,0.2-0.5,0.2-0.7,0.1c-0.1-0.1-0.3-0.2-0.4-0.2c-0.2-0.1-0.3-0.1-0.3-0.2c-0.2-0.1-0.3-0.2-0.3-0.2c-0.1-0.2,0-0.2,0-0.3c0.2-0.1,0.4-0.1,0.6,0c0.1,0.1,0.2,0.2,0.3,0.2c0.1,0,0.3,0,0.4,0.1c0.1-0.2,0.3-0.2,0.6-0.1c0.1-0.1,0.3-0.2,0.5-0.2c0-0.1,0-0.1,0-0.1c-0.2-0.1-0.4-0.2-0.5-0.4c-0.4,0-0.7-0.2-1-0.3c-0.2,0-0.4-0.1-0.6-0.2c-0.1,0-0.3,0-0.5,0c-0.3,0.1-0.6,0.1-0.9,0c-0.2,0-0.4,0-0.5,0c-0.2,0.2-0.4,0.2-0.6,0.2c-0.1-0.2-0.3-0.2-0.5-0.3c-0.1-0.1-0.2-0.2-0.2-0.2c-0.2-0.2-0.1-0.2,0-0.3c0.1-0.1,0.4-0.1,0.6,0.1C265.8,78.6,265.9,78.6,266,78.6L266,78.6z" />
    <path fill="#FFFFFF" d="M275.7,81.6c0-0.1,0-0.1-0.2-0.1c-0.5-0.1-1,0-1.4-0.2s-0.8-0.5-1.2-0.4c0.1-0.2,0.3-0.2,0.5-0.2c0.2-0.1,0.5-0.1,0.9,0c0.5,0.1,0.9,0.2,1.2,0.3c0.3,0.1,0.5,0.2,0.6,0.4v0.1c0.1,0.1,0.2,0.2,0.3,0.2c0,0.1,0.1,0.2,0.2,0.2c-0.1,0-0.3,0-0.5-0.1C276,81.7,275.9,81.7,275.7,81.6L275.7,81.6z" />
    <path fill="#000000" d="M276.8,59.2v0.2l0.6,3l-2.3,2l-0.1,0.1l0.1,0.1l2.9,1l0.6,3v0.2l0.1-0.1l2.4-2l2.9,1l0.1,0.1v-0.2l-0.6-3l2.3-2l0.1-0.1h-0.1l-2.9-1l-0.6-3v-0.2l-0.1,0.1l-2.4,2l-2.9-1L276.8,59.2z" />
    <path fill="#F7DB17" d="M280.2,63.4l-4.9,0.9l2.1-1.9L280.2,63.4z M285.5,62.3l-2.7-0.9l-2.2,1.9L285.5,62.3z M283.4,64.3l2.1-1.9l-4.9,1L283.4,64.3z M275.3,64.5l2.7,1l2.2-1.9L275.3,64.5z M279.8,60.4l-2.7-1l3.2,3.8L279.8,60.4z M280.6,63.5l3.3,3.8l-0.5-2.8L280.6,63.5z M281.1,66.4l2.7,0.9l-3.2-3.8L281.1,66.4z M280.3,63.3l-3.3-3.8l0.5,2.8L280.3,63.3z M282.7,61.3l-0.5-2.8l-1.7,4.7L282.7,61.3z M278.8,68.3l2.2-1.9l-0.5-2.9L278.8,68.3z M278.2,65.5l0.5,2.8l1.7-4.7L278.2,65.5z M282.1,58.5l-2.2,1.9l0.5,2.9L282.1,58.5z" />
  </g>
  <g>
    <path fill="#171796" d="M267,59.3L267,59.3l-12-13.7l-15.8,9l-2.6,32c7.7,0.7,15.2,1.9,22.5,3.8L267,59.3L267,59.3z" />
    <path fill="#F7DB17" stroke="#000000" stroke-width="0.25" stroke-miterlimit="10" d="M247.8,62.5c0.1,0,0.3,0.1,0.4,0.2c0.3,0.2,0.6,0.2,1.2,0.3c0.3,0,0.2,0.2-0.2,0.5c-0.2,0.3-0.6,0.5-1,0.5c-0.6,0.4-0.9,0.1-1-0.1c0,0.2,0,0.4-0.1,0.5c0,0.1,0,0.2,0,0.2c0.1,0.2,0.1,0.3,0.1,0.4s0,0.2,0.1,0.2c0.1,0.1,0.2,0.2,0.2,0.4c0,0.1,0,0.2,0.1,0.3c0.1,0.1,0.2,0.2,0.4,0.3c0.4,0.2,0.5,0.4,0.6,0.8c0.3,0.1,0.4,0.3,0.5,0.6c0.1,0.1,0.3,0.2,0.4,0.3c0.5,0,1.1,0,1.6,0.1s0.9,0.3,1.2,0.8c0.2,0.1,0.5,0.1,0.8,0c0.2-0.1,0.5-0.2,0.8-0.2c0.5-0.1,1-0.1,1.5,0.1c0.3,0.1,0.5,0.2,0.8,0.4c0.3,0.3,0.8,0.3,1.1,0.1c0.5-0.2,1-0.2,1.5,0c0.2-0.1,0.5-0.2,0.7-0.1c0.2-0.2,0.4-0.2,0.6-0.2c0.4,0,0.6,0.1,0.5,0.5c0,0.1-0.1,0.2-0.2,0.3c-0.1,0.3-0.5,0.4-0.9,0.4c0,0.2-0.1,0.4-0.3,0.5c0.2,0.6,0,0.8-0.4,0.8c-0.1,0.2-0.2,0.2-0.5,0.2c-0.1,0.2-0.4,0.3-0.5,0.3c0,0.2,0.1,0.2,0.2,0.3c0.2,0.4-0.1,0.6-0.5,0.6c0.1,0.2,0.1,0.6,0,0.8c0.4,0.2,0.5,0.5,0.1,0.7c0.2,0.4,0.1,0.8-0.4,1.1c0,0.2,0,0.5-0.2,0.7c-0.1,0.1-0.3,0.1-0.1,0.3c0.2,0.3,0.1,0.8-0.1,0.8c0,0-0.1,0-0.1,0.1s0,0.1-0.1,0.1c-0.4,0.2-0.7,0.4-1,0.7c0,0.1-0.1,0.1-0.1,0c-0.2,0.5-0.6,0.9-1.1,1.4c0,0.3-0.2,0.6-0.6,0.8c0,0.1-0.1,0.2-0.2,0.2c0.2,0.2,0.2,0.4,0.1,0.6c-0.2,0.2-0.5,0.5-0.8,0.6c-0.6,0.2-1,0.2-1.2-0.1c-0.2-0.2-0.1-0.3,0-0.4c-0.4,0.1-0.5-0.2-0.5-0.4c0-0.2,0-0.1,0.2-0.1s0.4-0.1,0.6-0.2c0.1-0.2,0.2-0.2,0.3-0.3c0-0.4,0.4-0.7,0.7-0.8c0.3-0.1,0.6-0.4,0.9-0.8c0.1-0.3,0.4-0.6,0.5-0.9c-0.1-0.2-0.1-0.3-0.1-0.5c-0.1-0.1-0.2-0.2-0.4-0.3c-0.2,0-0.4-0.2-0.5-0.3c0,0-0.1,0-0.2-0.1c-0.1,0.1-0.2,0.2-0.5,0.2c-0.2,0.2-0.5,0.4-0.7,0.6c-0.1,0.2-0.2,0.3-0.5,0.3c-0.5,0.1-0.9,0.8-1.2,1.1c-0.1,0.1-0.2,0.2-0.2,0.4c0,0.3-0.1,0.7-0.3,0.7s-0.2-0.1-0.2-0.1c-0.1,0-0.1,0-0.2,0c0.1,0.2,0.1,0.3,0,0.6c-0.1,0.2-0.4,0.2-0.5,0.2c-0.4,0.1-0.7,0-1-0.2c-0.3-0.1-0.3-0.3-0.3-0.4c-0.2-0.1-0.2-0.2-0.2-0.3c0-0.1,0.1-0.2,0.3-0.2c0.1-0.1,0.2-0.1,0.4-0.1c0.4-0.4,0.8-0.7,1.1-0.9c0.1-0.2,0.2-0.3,0.5-0.4c0-0.3,0.3-0.6,0.5-0.9c0-0.2,0-0.2,0.1-0.4c0-0.1,0-0.1,0-0.2c-0.1-0.2-0.2-0.4-0.1-0.7c0-0.1,0-0.2,0-0.3c-0.6,0.4-0.9,0.2-1-0.1c-0.2,0.2-0.5,0.3-0.6,0c-0.2,0.1-0.5,0.2-0.7,0.1c-0.1,0.1-0.3,0.1-0.5,0.2c0,0.2-0.1,0.3-0.3,0.4c0,0.3-0.1,0.6-0.3,0.9c-0.1,0.3-0.2,0.7-0.5,0.9c0,0.1,0,0.2,0,0.3c0,0.3,0,0.6-0.3,0.7c0,0.2-0.1,0.3-0.2,0.4c0,0.1,0,0.1,0,0.2c0.1,0.2,0.1,0.4-0.1,0.7c-0.2,0.1-0.4,0.2-0.5,0.3c-0.2,0.1-0.5,0.1-0.6,0c-0.4-0.1-0.3-0.2-0.2-0.3c-0.1,0.1-0.2,0.1-0.4,0c-0.1-0.1-0.1-0.1-0.2-0.2c0-0.2-0.1-0.2,0.1-0.3s0.4-0.2,0.5-0.3c0-0.2,0.1-0.2,0.2-0.2c0.1-0.2,0.2-0.4,0.4-0.4c0.1-0.3,0.2-0.7,0.5-0.9c0-0.1,0.1-0.2,0-0.3c0-0.1,0-0.2,0-0.2c0-0.1,0.1-0.1,0-0.1c-0.1-0.2,0-0.5,0.1-0.7s0.4-0.9,0.2-1.2c0-0.2,0-0.3,0-0.6c0,0-0.1,0-0.1-0.1c-0.1-0.1-0.2,0-0.4,0.2c-0.1,0.2-0.1,0.3-0.2,0.3c0,0.5-0.4,0.9-0.6,1c0,0.2-0.1,0.4,0,0.7c0,0.2,0,0.4-0.1,0.4c-0.1,0.1-0.2,0.1-0.4,0.3c0,0.1,0,0.2,0,0.2c0.2,0.2,0.1,0.4,0,0.6c-0.4,0.4-0.9,0.3-1.4,0.2c-0.4-0.2-0.5-0.3-0.5-0.4c-0.5-0.1-0.4-0.4,0-0.6c0.5-0.2,0.9-0.4,1.1-0.8c0-0.5,0.1-0.8,0.4-0.9c0-0.3,0.1-0.6,0.2-0.8s0.2-0.5,0.1-0.8c-0.3-0.2-0.3-0.3,0-0.6c0.1-0.1,0.1-0.1,0-0.2c-0.2,0-0.1-0.2-0.1-0.3c0-0.1,0-0.2-0.1-0.2c-0.4-0.1-0.3-0.2-0.1-0.4c0-0.1,0.1-0.2,0-0.2c0-0.1-0.1-0.2-0.1-0.3c-0.2-0.2-0.1-0.3,0-0.6c-0.1-0.1-0.2-0.3-0.2-0.5c-0.5,0-0.6-0.2-0.4-0.6c0.1-0.2,0.2-0.3,0.4-0.4c0.1-0.2,0.2-0.3,0.1-0.5c-0.1-0.3,0.3-0.6,0.6-0.8c0-0.1,0-0.2-0.1-0.2c-0.2-0.2-0.1-0.3,0-0.6c0-0.1,0-0.2-0.1-0.2c-0.5,0.1-0.5-0.2-0.2-0.7c-0.3-0.2-0.2-0.4,0.3-0.9c0-0.1,0-0.2,0-0.2c-0.2,0-0.5,0.1-0.6,0.2c-0.2,0.2-0.4,0.1-0.6,0.1c0-0.1-0.1-0.2-0.2-0.2c-0.1-0.1-0.1-0.2-0.1-0.4c-0.6,0.1-0.7-0.4-0.4-0.7c0.2-0.2,0.4-0.3,0.4-0.5c0.1-0.4,0.5-0.7,0.8-1c0-0.1,0-0.2,0-0.3c-0.1-0.1-0.3-0.2-0.5-0.2c0-0.2-0.1-0.3-0.4-0.4c-0.1,0-0.1-0.2-0.1-0.2c0,0.1,0-0.1,0.1-0.3l0,0c0.5-0.2,1.1-0.2,1.6,0.2c0.2,0.1,0.4,0.2,0.5,0.3H247.8z" />
    <path fill="#000000" stroke="#000000" stroke-width="0.25" stroke-miterlimit="10" d="M244.4,61.8c0,0,0.5-0.3,0.8-0.5c0.4-0.2,0.8-0.5,1.1-0.7c0.5-0.3,1.1-0.5,1.7-0.5c0.6-0.1,1.2-0.1,1.8,0c0.5,0,1,0.2,1.5,0.5c0.4,0.2,0.9,0.4,1.2,0.6c0.5,0.2,0.9,0.5,1.3,0.7c0.5,0.2,1.2,0.3,1.9,0.3c0.4,0,0.6,0,1,0c0.2,0,0.4,0.1,0.1,0.2c-2,1.2-3.7,0.2-5.1-0.3c0.5,0.3,1,0.7,1.4,1c0.5,0.5,1.1,1,2.1,1.5c0.6,0.3,1.3,0.5,2.2,0.5c0.3,0,0.6,0,1-0.1c0.2-0.1,0.2,0,0.2,0.1s0,0.2-0.1,0.2c-0.5,0.3-1,0.4-1.6,0.5c-1,0.1-2.2-0.3-3.2-0.8c-0.9-0.4-1.4-1-2-1.5s-1.2-0.8-1.9-0.9s-1.2-0.1-1.8,0C247.8,62.5,244.2,62.5,244.4,61.8z" />
    <path fill="#000000" stroke="#000000" stroke-width="0.05" stroke-miterlimit="10" d="M253,75.8v0.1V76c-0.1,0.1-0.1,0.1-0.2,0.1C252.8,76.1,253,76,253,75.8C253,75.9,253,75.8,253,75.8z M254.2,78.7c-0.1,0.1-0.1,0.1-0.2,0.2c-0.1,0-0.2,0.1-0.3,0.2v0.1l0,0c0.1-0.1,0.2-0.2,0.3-0.2C254.2,78.9,254.2,78.8,254.2,78.7L254.2,78.7z M255,77.9C255,77.9,254.9,78,255,77.9C255,78,255,78,255,77.9c0,0,0.1-0.1,0.2-0.1c-0.1,0-0.1,0,0,0C255.1,77.8,255,77.8,255,77.9z M254.5,77.9c0,0.1-0.1,0.2-0.2,0.2l0,0l0,0C254.4,78.1,254.5,78,254.5,77.9c0.1,0,0.2-0.1,0.2-0.2c0,0,0,0,0-0.1C254.6,77.8,254.5,77.8,254.5,77.9z M255.3,76.9C255.2,76.9,255.2,76.9,255.3,76.9C255.3,77,255.3,77,255.3,76.9C255.3,76.9,255.4,76.8,255.3,76.9c0.1-0.1,0.1-0.1,0.2-0.2h-0.1C255.3,76.8,255.3,76.8,255.3,76.9z M256,76.8c-0.1,0.1-0.1,0.2-0.1,0.2c0,0.1,0,0.2-0.1,0.2v0.1l0,0c0-0.1,0.1-0.2,0.1-0.3C256.1,77,256.1,76.9,256,76.8L256,76.8z M256.4,72.8L256.4,72.8C256.3,72.8,256.3,72.8,256.4,72.8c0,0.1,0,0.2-0.1,0.4c0,0.1,0,0.2-0.1,0.3c-0.1,0.2-0.1,0.2-0.1,0.4c0-0.3,0-0.6-0.2-0.9l0,0c0.2,0.4,0.2,0.8,0.2,1.2l0,0l0,0l0,0c0-0.2,0.1-0.4,0.2-0.6c0-0.1,0.1-0.2,0.1-0.3C256.4,73.1,256.4,73,256.4,72.8z M255.3,73.8C255.3,73.7,255.3,73.7,255.3,73.8c0-0.1,0-0.1,0-0.2c0,0,0,0-0.1,0C255.2,73.6,255.2,73.6,255.3,73.8C255.2,73.7,255.2,73.7,255.3,73.8C255.2,73.8,255.2,73.8,255.3,73.8L255.3,73.8z M255.4,75.3L255.4,75.3c0,0-0.1-0.2-0.1-0.3c0-0.2-0.1-0.3-0.1-0.5c-0.1,0-0.1,0,0,0c0,0.2,0,0.3,0.1,0.5s0,0.3,0,0.5l0,0C255.3,75.5,255.4,75.4,255.4,75.3c0.1,0,0.1,0,0.2-0.1c0,0,0,0,0-0.1l0,0C255.5,75.2,255.5,75.2,255.4,75.3z M255.8,74.8c0,0.1,0,0.2,0,0.4c0,0.1,0,0.2,0,0.3l0,0l0,0c0-0.1,0-0.2,0-0.3C255.9,75,255.9,75,255.8,74.8L255.8,74.8z M256.5,75c0-0.1,0-0.2,0-0.3c0,0,0,0-0.1,0C256.4,74.8,256.4,75,256.5,75c-0.1,0.1-0.1,0.2-0.1,0.3c0,0.2,0,0.2,0,0.4c0,0.1,0.1,0.2,0.1,0.4l0,0l0,0c0-0.1-0.1-0.2-0.1-0.3c0-0.1,0-0.2,0-0.4C256.5,75.3,256.5,75.1,256.5,75z M256.7,73.8c0,0.1,0,0.2,0,0.2l0,0l0,0C256.7,74,256.7,74,256.7,73.8l0.1-0.1c0,0,0,0,0-0.1C256.7,73.8,256.7,73.8,256.7,73.8z M256.4,72.2v0.1l0,0V72.2C256.5,72.2,256.5,72.2,256.4,72.2C256.4,72,256.4,72.1,256.4,72.2z M256.4,72C256.5,72,256.5,72,256.4,72c0-0.2,0-0.3,0-0.4s0.1-0.2,0.2-0.2c0-0.3,0-0.4,0-0.5c-0.1,0-0.1,0-0.1,0c0,0.1,0,0.2,0,0.2v0.2c0,0-0.1,0.2-0.2,0.2C256.4,71.6,256.3,71.8,256.4,72L256.4,72z M256,71.3L256,71.3L256,71.3L256,71.3z M255.4,70.4C255.3,70.5,255.4,70.5,255.4,70.4c0.2,0.1,0.3,0.3,0.5,0.4C255.8,70.7,255.6,70.5,255.4,70.4z M256,71.5L256,71.5c0.1-0.1,0-0.1,0-0.1c-0.1,0-0.2-0.1-0.3-0.1l0,0c0,0.5,0,0.8,0,1.1c-0.1,0.2-0.2,0.5-0.5,0.6c0-0.2,0.1-0.3,0.1-0.5s0-0.4,0-0.5s0-0.1,0-0.1V72c0,0.1,0,0.3,0,0.5c0,0.1,0,0.3-0.1,0.5l0,0c0.3-0.1,0.5-0.3,0.6-0.6c0.1-0.2,0.1-0.7,0-1.1C255.8,71.3,255.9,71.4,256,71.5z M256,71.3c0-0.2-0.1-0.3-0.1-0.5C255.9,71,256,71.1,256,71.3z M258.5,69.8L258.5,69.8c0,0-0.1,0.1,0,0.1l0,0C258.6,69.9,258.6,69.8,258.5,69.8C258.6,69.8,258.6,69.8,258.5,69.8L258.5,69.8C258.5,69.8,258.6,69.8,258.5,69.8z M257.9,69.8C257.8,69.8,257.8,69.8,257.9,69.8c0,0.2,0,0.2,0.1,0.2s0.1,0,0.1,0.1l0,0l0,0c-0.1,0-0.1-0.1-0.1-0.2S257.9,69.8,257.9,69.8z M256.7,70.1c0,0.1,0.1,0.2,0.1,0.4c0,0.1,0,0.2,0,0.3l0,0l0,0c0-0.1,0-0.3,0-0.4C256.9,70.3,256.8,70.2,256.7,70.1z M252.9,70.8C253,70.8,253,70.8,252.9,70.8c0-0.1,0-0.1,0-0.2v-0.1c-0.1,0-0.1,0-0.1,0v0.1C252.9,70.7,252.9,70.7,252.9,70.8L252.9,70.8z M253.7,70.3L253.7,70.3L253.7,70.3L253.7,70.3L253.7,70.3c0-0.1,0-0.2,0-0.2c-0.1,0-0.1,0,0,0.1C253.6,70.2,253.7,70.3,253.7,70.3z M255,71.3C255,71.3,255,71.2,255,71.3c0-0.1,0-0.1,0-0.1c0-0.1,0-0.1,0-0.1s0,0-0.1,0.1L255,71.3L255,71.3L255,71.3z M255.5,70.1L255.5,70.1C255.6,70.2,255.6,70.1,255.5,70.1C255.6,70.1,255.6,70.1,255.5,70.1c0-0.1,0-0.1,0-0.1S255.5,70,255.5,70.1L255.5,70.1z M252.1,70.1L252.1,70.1L252.1,70.1z M252.4,71C252.4,71.1,252.4,71.1,252.4,71C252.5,71.1,252.5,71,252.4,71c0-0.1,0-0.2,0-0.2c0-0.1,0-0.2-0.2-0.2c0.1,0.1,0.1,0.2,0.1,0.2L252.4,71z M252.3,70.5c0,0,0-0.1-0.1-0.2c0,0,0-0.1,0-0.2l0,0c0,0.1,0,0.1,0,0.2S252.2,70.5,252.3,70.5z M253.7,72.5c0.1,0.2,0.3,0.4,0.5,0.5l0,0c-0.1-0.2-0.1-0.5-0.1-0.7s0.1-0.4,0.2-0.6c0,0,0.1-0.2,0.2-0.2c0-0.1,0-0.2,0-0.3c0-0.1,0-0.1,0-0.1v0.1c0,0,0,0.1,0,0.2s-0.1,0.1-0.2,0.2c-0.2,0.2-0.2,0.4-0.2,0.6s0.1,0.4,0.1,0.5C254,72.8,253.9,72.6,253.7,72.5c0-0.2-0.1-0.5,0-0.6c0-0.2,0-0.3,0-0.5s0-0.3-0.2-0.5c0,0,0,0,0,0.2c0.1,0.1,0.1,0.2,0.1,0.4c0,0.1,0,0.2,0,0.4C253.5,72.2,253.6,72.4,253.7,72.5z M253,72.6L253,72.6c0,0.1,0,0.1,0,0.2s0,0,0,0l0,0C253.1,72.8,253.1,72.8,253,72.6C253.1,72.7,253.1,72.7,253,72.6c0.1-0.1,0.2-0.1,0.2-0.2c0.1-0.1,0.2-0.2,0.2-0.2s0,0,0-0.1l0,0c-0.1,0.1-0.2,0.2-0.2,0.2c-0.1,0-0.2,0.1-0.2,0.2c-0.1,0-0.1,0.1-0.2,0.1l-0.1,0.1c0.1-0.1,0.2-0.2,0.2-0.4c0-0.1,0.1-0.3,0.1-0.4c0,0,0,0-0.1,0c0,0.1,0,0.3-0.1,0.4c0,0.2-0.2,0.3-0.3,0.5l0,0c0,0,0.1,0,0.2-0.1C252.9,72.8,252.9,72.7,253,72.6z M252.2,72C252.3,72,252.3,72,252.2,72v-0.2c-0.1,0-0.1,0-0.1,0L252.2,72L252.2,72z M252.5,72L252.5,72c-0.1,0.1-0.3,0.2-0.4,0.3c-0.2,0.1-0.2,0.2-0.4,0.2c-0.1,0-0.2,0.1-0.3,0.2c0,0,0,0.1-0.1,0.2c0-0.1,0-0.2,0.1-0.3c0-0.1,0.2-0.3,0.3-0.4c0.2-0.2,0.2-0.4,0.2-0.5c0-0.2,0-0.4-0.1-0.6c-0.1,0-0.1,0-0.1,0.1c0.1,0.2,0.2,0.3,0.1,0.5s-0.1,0.3-0.2,0.5c-0.2,0.1-0.2,0.2-0.3,0.4c0,0.2-0.1,0.3-0.2,0.5c0,0,0,0.1,0,0c0.1-0.1,0.1-0.2,0.2-0.3s0.2-0.1,0.3-0.1c0.2-0.1,0.3-0.2,0.4-0.2C252.3,72.3,252.4,72.2,252.5,72L252.5,72z M253.4,73.5c-0.1-0.2-0.1-0.2-0.1-0.2s0,0,0-0.1C253.2,73.2,253.2,73.3,253.4,73.5C253.3,73.5,253.4,73.5,253.4,73.5c0.1,0.2,0.1,0.4,0.1,0.5s0,0.2,0,0.4c0-0.2-0.1-0.2-0.2-0.4c-0.1-0.1-0.3-0.3-0.5-0.5l0,0c0,0.1,0,0.1,0,0.1c0.2,0.1,0.4,0.3,0.5,0.4c0.2,0.2,0.2,0.4,0.2,0.6l0,0c0-0.2,0-0.4,0-0.6C253.5,74,253.5,73.8,253.4,73.5L253.4,73.5z M254,73.4C254,73.3,253.9,73.3,254,73.4c0-0.1-0.1-0.1-0.1-0.2C253.8,73.3,253.9,73.3,254,73.4C253.9,73.4,253.9,73.4,254,73.4L254,73.4L254,73.4z M254.5,73.4c0,0.2-0.1,0.3-0.1,0.5s-0.1,0.3-0.2,0.5l0,0l0,0c0-0.1,0.1-0.3,0.2-0.5C254.5,73.8,254.5,73.6,254.5,73.4L254.5,73.4z M255,76c0,0,0,0,0-0.1l0,0C254.9,75.9,254.9,76,255,76C254.9,76,254.9,76,255,76L255,76z M254.5,75.1L254.5,75.1L254.5,75.1z M254.4,75.6C254.4,75.7,254.4,75.7,254.4,75.6C254.5,75.7,254.5,75.7,254.4,75.6c0,0,0.1-0.1,0.1-0.2s0-0.2,0-0.2s0,0-0.1,0c0,0.1,0,0.1,0,0.2C254.5,75.5,254.4,75.5,254.4,75.6z M254,75.2L254,75.2L254,75.2L254,75.2L254,75.2z M253.1,74.9V75l0,0c0,0.1,0,0,0,0S253.2,75,253.1,74.9l0.1-0.1l0,0C253.2,74.8,253.1,74.8,253.1,74.9z M252,76c0,0,0,0.1,0,0.2s0,0,0,0l0,0C252,76.2,252,76.1,252,76c0.2,0,0.2-0.1,0.2-0.1C252,75.9,252,76,252,76z M249.1,78.8L249.1,78.8C249,79,249,79,249,79l0,0l0,0c0.1,0,0.1,0,0.1-0.1C249.1,78.9,249.2,78.9,249.1,78.8L249.1,78.8z M249.6,78.6L249.6,78.6c-0.1,0-0.1,0.1-0.2,0.1l0,0l0,0c0.1,0,0.1,0,0.1,0C249.6,78.7,249.7,78.7,249.6,78.6C249.6,78.5,249.5,78.5,249.6,78.6z M250.2,78.1C250.2,78.1,250.2,78.2,250.2,78.1l-0.1,0.1l0,0l0,0l0,0C250.2,78.2,250.2,78.2,250.2,78.1C250.2,78.2,250.2,78.1,250.2,78.1z M251.1,76c0,0.1,0,0.2,0,0.3l0,0l0,0C251.2,76.2,251.2,76.2,251.1,76c0,0,0-0.1,0.1-0.2l0,0C251.2,75.8,251.1,75.9,251.1,76z M251.8,69.5c0,0,0-0.1,0-0.2l0,0V69.5c-0.1,0-0.1,0.1-0.2,0.2l0,0l0,0C251.7,69.7,251.7,69.6,251.8,69.5z M251.2,69.3C251.2,69.4,251.2,69.4,251.2,69.3C251.2,69.4,251.2,69.3,251.2,69.3c0.1-0.1,0.1-0.2,0.1-0.3c0-0.1,0-0.2-0.1-0.3c0,0,0,0-0.1,0c0,0.1,0.1,0.2,0.1,0.3C251.2,69.2,251.2,69.2,251.2,69.3z M250.3,69.8C250.4,69.8,250.4,69.8,250.3,69.8c0-0.1-0.1-0.1-0.2-0.2c0-0.1,0-0.1,0-0.2l0,0l0,0v0.2C250.1,69.7,250.2,69.7,250.3,69.8z M251.2,71.5L251.2,71.5L251.2,71.5c0,0.1,0,0.1,0,0.1V71.5L251.2,71.5L251.2,71.5C251.2,71.4,251.2,71.4,251.2,71.5z M250,70.2c0.2,0.2,0.2,0.5,0.2,0.6c0,0.2,0,0.5,0,0.8l0,0l0,0c0-0.1,0-0.2,0-0.2l0,0l0,0c0-0.1,0-0.3,0-0.4C250.3,70.6,250.2,70.4,250,70.2z M250.7,71c0,0.1-0.1,0.1-0.1,0.2C250.6,71.2,250.6,71.1,250.7,71z M250.5,71.2L250.5,71.2L250.5,71.2z M250.8,70.5c0,0.2,0,0.4-0.1,0.5C250.7,70.9,250.8,70.8,250.8,70.5z M250.9,70.1c0,0.2-0.1,0.2-0.2,0.4C250.9,70.4,250.9,70.2,250.9,70.1z M250.5,71.3L250.5,71.3L250.5,71.3C250.4,71.3,250.5,71.3,250.5,71.3z M251.3,70.8C251.3,70.9,251.3,70.9,251.3,70.8C251.4,70.9,251.4,70.8,251.3,70.8c0.1-0.2,0-0.3,0-0.5s-0.2-0.3-0.3-0.5l0,0c0,0.1,0,0.2,0,0.3c0-0.1,0-0.1,0-0.2c0.1,0.1,0.2,0.2,0.2,0.4C251.3,70.5,251.3,70.7,251.3,70.8z M250.7,73.2c0,0.1,0,0.2,0,0.2v0.2l0,0l0,0c0-0.1,0-0.2,0-0.2S250.8,73.3,250.7,73.2L250.7,73.2z M249.4,73.8C249.3,73.8,249.3,73.8,249.4,73.8V74l0,0l0,0C249.4,74,249.4,73.9,249.4,73.8z M250.4,72.6c-0.1,0.2-0.1,0.2-0.2,0.4c-0.1,0.1-0.2,0.3-0.2,0.5c0,0.1,0,0.3,0,0.4l0,0l0,0c0-0.1,0-0.3,0-0.5c0-0.1,0.1-0.2,0.2-0.4C250.3,72.8,250.4,72.7,250.4,72.6c0.1-0.1,0.1-0.2,0.1-0.3l0,0C250.5,72.3,250.5,72.5,250.4,72.6z M250.2,71.8L250.2,71.8c0,0.1,0,0.2-0.1,0.3c0,0.1-0.1,0.2-0.2,0.4c-0.1,0.1-0.2,0.2-0.2,0.3s-0.1,0.2-0.1,0.3v0.1l0,0c0-0.2,0.1-0.2,0.1-0.4c0-0.1,0.2-0.2,0.2-0.3c0.1-0.1,0.2-0.2,0.2-0.3C250.2,72,250.2,71.9,250.2,71.8z M248.7,72.5c0,0.2,0,0.5-0.1,0.6s-0.2,0.3-0.4,0.4c0,0,0,0,0,0.1l0,0c0.2-0.2,0.3-0.3,0.4-0.5C248.8,73,248.8,72.8,248.7,72.5L248.7,72.5z M246.9,73.6C246.8,73.6,246.8,73.6,246.9,73.6c0,0.1,0,0.1,0,0.2c0,0,0,0,0,0.1l0,0l0,0c0,0,0,0,0-0.1S246.9,73.7,246.9,73.6z M246.8,74.2L246.8,74.2c0,0.2-0.1,0.3-0.1,0.4c-0.1,0.1-0.1,0.2-0.2,0.3v-0.2c0-0.1-0.1-0.2-0.1-0.3c-0.1-0.2-0.2-0.2-0.2-0.4c0-0.1,0-0.3,0-0.5l0,0c0,0.1,0,0.3,0,0.5c0.1,0.1,0.1,0.2,0.2,0.4c0.1,0.1,0.1,0.2,0.1,0.3c0,0.1,0,0.2,0,0.3l0,0c0.1-0.1,0.2-0.2,0.3-0.4C246.8,74.5,246.8,74.4,246.8,74.2L246.8,74.2z M246.3,75.7c0,0.1-0.1,0.1-0.1,0.2s0,0.1,0,0.2c0.1,0,0.1,0,0.1,0c0-0.1,0-0.2,0-0.2S246.3,75.8,246.3,75.7C246.3,75.8,246.4,75.7,246.3,75.7C246.3,75.6,246.3,75.7,246.3,75.7z M246.2,76.6L246.2,76.6c0,0.2-0.1,0.2-0.1,0.4c0,0,0,0,0.1,0C246.2,76.8,246.2,76.8,246.2,76.6L246.2,76.6z M245.9,77.8c0,0-0.1,0.2-0.2,0.2s-0.1,0.1-0.1,0.2c0.1,0,0.1-0.1,0.2-0.1S245.9,78,245.9,77.8C246,77.8,246,77.8,245.9,77.8L245.9,77.8z M244.8,74.2L244.8,74.2C244.9,74.2,244.9,74.2,244.8,74.2l0.1-0.1c-0.1,0-0.1,0-0.1,0V74.2z M243.7,76.7L243.7,76.7v0.1c0,0,0,0,0,0.1c0,0,0,0,0.1,0c0-0.1,0-0.1,0-0.1L243.7,76.7C243.8,76.7,243.8,76.7,243.7,76.7z M246.7,72.9c0,0.1,0.1,0.2,0.2,0.2c0.1,0,0.1,0.1,0.1,0.1c0-0.1-0.1-0.2-0.2-0.2C246.7,73,246.7,72.9,246.7,72.9z M247.2,72.9C247.2,72.9,247.2,73,247.2,72.9c0,0.1,0,0.2,0,0.3c0,0.1,0,0.2,0,0.2s0,0,0,0.1s0,0.1,0,0s0-0.2,0-0.3S247.2,73,247.2,72.9L247.2,72.9z M247,73.3c0,0.1,0,0.1,0.1,0.2l0,0C247.1,73.4,247.1,73.3,247,73.3z M246.8,72C246.7,71.8,246.7,71.8,246.8,72c-0.1,0.1-0.1,0.4-0.1,0.6c0,0.1,0,0.2,0.1,0.3c0-0.1,0-0.2,0-0.3C246.7,72.4,246.7,72.2,246.8,72z M247,73.2C247,73.2,247,73.3,247,73.2C247,73.3,247,73.2,247,73.2z M246.5,71.5c0-0.2,0-0.3,0-0.5c-0.1,0,0,0,0,0C246.5,71.2,246.5,71.4,246.5,71.5c-0.1,0.2-0.1,0.3-0.2,0.5c-0.1,0.2-0.1,0.5-0.1,0.7s0,0.4,0.2,0.6l0,0l0,0c-0.1-0.2-0.2-0.4-0.2-0.6s0-0.4,0.1-0.6C246.4,71.8,246.5,71.7,246.5,71.5z M245,73.1C245,73,245,73,245,73.1c-0.1,0.2-0.1,0.2-0.1,0.4c0,0.1,0.1,0.2,0.2,0.3l0,0l0,0c-0.1-0.1-0.1-0.2-0.1-0.3C245,73.3,245,73.2,245,73.1z M244.4,73.2c0-0.1,0-0.1,0-0.2l0,0C244.5,73,244.4,73.1,244.4,73.2v0.1c0,0.1,0.1,0.2,0.1,0.2l0,0l0,0c-0.1,0-0.1-0.1-0.1-0.2C244.4,73.3,244.4,73.2,244.4,73.2z M244.5,72.8C244.4,72.8,244.4,72.8,244.5,72.8L244.5,72.8z M248.2,68.5L248.2,68.5L248.2,68.5c0-0.2,0-0.3-0.1-0.5c0-0.2,0-0.3,0-0.5c-0.1,0-0.1,0-0.1,0c0,0.2,0,0.4,0,0.5C248.1,68.2,248.1,68.3,248.2,68.5z M247.5,68c0.1,0.1,0.2,0.3,0.2,0.5c0,0.1,0.1,0.3,0.1,0.5l0,0l0,0c0-0.2,0-0.4-0.1-0.6C247.8,68.2,247.7,68.1,247.5,68L247.5,68z M245.3,67.9c-0.2,0.3-0.4,0.5-0.4,0.8s0,0.4,0.2,0.6c0.1,0.2,0.1,0.4,0.1,0.5c0,0.2,0,0.4-0.1,0.5l0,0c0,0.1,0,0,0,0c0-0.1,0.1-0.3,0.1-0.5c0-0.1,0-0.3-0.1-0.5c-0.1-0.1-0.2-0.3-0.2-0.5C245.1,68.5,245.2,68.3,245.3,67.9C245.4,68,245.3,68,245.3,67.9z M245.2,67.7c0-0.2,0-0.2,0-0.4c-0.1,0,0,0-0.1,0C245.2,67.4,245.2,67.5,245.2,67.7c-0.1,0-0.2,0.2-0.3,0.3c-0.1,0.1-0.2,0.2-0.2,0.4c0,0.1,0,0.3,0,0.5l0,0l0,0c0-0.2,0-0.3,0-0.5s0.2-0.2,0.2-0.4C245.2,68,245.2,67.8,245.2,67.7z M246.5,67.7c0-0.1,0-0.1,0-0.2s0-0.1,0-0.2c0,0,0,0,0,0.1v0.1V67.7L246.5,67.7L246.5,67.7z M246.2,68.5L246.2,68.5C246.3,68.5,246.3,68.5,246.2,68.5c0.1-0.2,0.1-0.3,0-0.4c0-0.1-0.1-0.2-0.1-0.3c0-0.2,0-0.3,0.1-0.5c0-0.1,0.2-0.2,0.2-0.2c0-0.1,0-0.1,0-0.1c-0.2,0-0.2,0.1-0.3,0.3c-0.1,0.2-0.1,0.3-0.1,0.5c-0.2,0.2-0.4,0.5-0.4,0.8s0.1,0.6,0.3,1l0,0l0,0c-0.2-0.3-0.3-0.6-0.3-0.9s0.1-0.5,0.4-0.8l0.1,0.2C246.2,68.2,246.2,68.3,246.2,68.5z M246,66.7c0,0.1,0,0.3-0.2,0.4c0,0-0.1,0.1-0.1,0.2v0.2l0,0l0,0c0-0.1,0-0.2,0-0.2l0.1-0.2C246.1,67,246.1,66.8,246,66.7c0.1-0.1,0.1-0.1,0.1-0.1C246,66.5,246,66.5,246,66.7C246,66.6,246,66.6,246,66.7z M249.7,70.8C249.7,70.9,249.7,70.9,249.7,70.8C249.8,70.9,249.8,70.8,249.7,70.8c0.1-0.1,0-0.1,0-0.2s0-0.1-0.1-0.2l0,0c0,0.1,0.1,0.2,0.1,0.2C249.7,70.7,249.7,70.8,249.7,70.8z M249.4,72.7c0-0.1,0.1-0.2,0.1-0.4c0.1-0.1,0.2-0.2,0.2-0.4c0-0.2,0-0.2,0-0.4l0,0c0,0.1,0,0.2,0,0.4c0,0.2-0.1,0.2-0.2,0.4C249.4,72.3,249.4,72.5,249.4,72.7C249.3,72.6,249.3,72.7,249.4,72.7L249.4,72.7z M249.6,71.5L249.6,71.5L249.6,71.5z M249.3,72c0-0.2,0-0.5,0-0.8s-0.2-0.5-0.4-0.8c0.1,0.3,0.3,0.5,0.3,0.7C249.4,71.3,249.4,71.6,249.3,72C249.2,72,249.2,72,249.3,72L249.3,72z M248.1,72.8c0,0.1-0.1,0.1-0.1,0.2C248.1,72.9,248,72.8,248.1,72.8z M248.8,71.7c-0.1,0.1-0.1,0.2-0.2,0.4C248.7,72,248.8,71.8,248.8,71.7L248.8,71.7z M248.3,72.5c-0.1,0-0.2,0.2-0.2,0.2C248.2,72.7,248.3,72.6,248.3,72.5z M248,72.8c0-0.1-0.1-0.2-0.1-0.3c-0.1-0.2-0.2-0.3-0.2-0.5s0.1-0.3,0.2-0.5c0-0.2,0.1-0.2,0.2-0.4c0-0.1,0-0.2,0-0.4c0-0.1,0-0.1,0-0.1v0.1c0,0.1,0,0.2,0,0.3s-0.1,0.2-0.2,0.3c-0.1,0.2-0.2,0.4-0.2,0.5c0,0.2,0,0.4,0.2,0.6C247.8,72.5,247.8,72.6,248,72.8V73l0,0c0,0,0-0.1,0.1-0.1l0,0C248,72.9,248,72.8,248,72.8z M248.6,72.1c-0.1,0.1-0.2,0.3-0.3,0.4C248.4,72.3,248.5,72.2,248.6,72.1z M246.9,71.2c0,0.1,0,0.3,0,0.4c0,0.2,0,0.2,0.1,0.4l0,0l0,0c0-0.2-0.1-0.2-0.1-0.4C246.9,71.4,246.9,71.2,246.9,71.2C246.9,71,246.9,71.1,246.9,71.2z M245.7,71.8L245.7,71.8c0,0.2,0,0.2,0,0.2S245.8,71.9,245.7,71.8L245.7,71.8L245.7,71.8C245.8,71.7,245.8,71.7,245.7,71.8L245.7,71.8z M245.9,71.2C245.9,71.2,245.9,71.3,245.9,71.2C246,71.3,246,71.3,245.9,71.2c0.1,0,0.2-0.2,0.2-0.2c0-0.1,0-0.2,0-0.3c0,0,0,0,0-0.1c0,0.1,0,0.2,0,0.3C246.1,71,246,71.2,245.9,71.2z M245.7,70.5c0.1-0.2,0.1-0.3,0.1-0.6c0-0.1,0-0.1,0-0.1v0.1C245.8,70.1,245.7,70.3,245.7,70.5c-0.1,0.1-0.2,0.2-0.3,0.3c-0.2,0.2-0.3,0.4-0.4,0.7c0,0.3,0,0.7,0.2,1.1c0,0,0,0,0-0.1c-0.1-0.4-0.2-0.8-0.1-1c0-0.2,0.2-0.5,0.3-0.6S245.6,70.7,245.7,70.5z M244.6,71.9C244.5,71.8,244.5,71.8,244.6,71.9c-0.1,0-0.1,0.1-0.1,0.2s0,0.2,0.1,0.2l0,0l0,0c0,0-0.1-0.1-0.1-0.2C244.6,72,244.6,72,244.6,71.9z M247.4,69.9C247.4,69.9,247.4,70,247.4,69.9c0,0.1,0.1,0.3,0.1,0.5c0,0.1,0,0.3-0.1,0.5l0,0l0,0c0.1-0.2,0.2-0.4,0.2-0.5C247.6,70.2,247.5,70,247.4,69.9z M248.4,69.7c0,0.1,0,0.2,0,0.3l0,0C248.4,69.9,248.5,69.8,248.4,69.7z M248.2,69.8c0.1,0.2,0.1,0.3,0.1,0.5l0,0c0-0.1,0-0.2,0-0.3C248.4,69.9,248.3,69.8,248.2,69.8c0-0.2,0-0.3-0.2-0.4c0,0,0-0.1,0,0l0,0C248.1,69.5,248.2,69.7,248.2,69.8z M249,69.6c0,0.1,0,0.2,0,0.3c0,0.1,0.1,0.2,0.1,0.3l0,0l0,0C249,70.1,249,70,249,70C249.1,69.8,249.1,69.7,249,69.6c0-0.2,0-0.5,0-0.6c0-0.2-0.1-0.4-0.2-0.5c0.1,0.2,0.2,0.3,0.2,0.5S249,69.3,249,69.6z M247.3,68.7c0-0.1,0-0.2,0.1-0.3c0,0,0,0-0.1,0C247.3,68.4,247.2,68.5,247.3,68.7c-0.1,0.1-0.1,0.2-0.1,0.4l0,0l0,0C247.3,68.9,247.3,68.8,247.3,68.7z M244.7,70.2c0,0.2-0.1,0.5-0.2,0.6c-0.1,0.2-0.3,0.3-0.5,0.4l0,0l0,0c0.2-0.1,0.4-0.2,0.5-0.5C244.6,70.7,244.7,70.5,244.7,70.2L244.7,70.2z M244.5,69.8C244.5,69.9,244.5,69.8,244.5,69.8c0.1-0.1,0.2-0.2,0.2-0.3c0-0.1,0-0.2,0-0.3l0,0v0.2C244.7,69.4,244.5,69.7,244.5,69.8L244.5,69.8z M246.5,69.8L246.5,69.8c0-0.2,0-0.4,0-0.5v-0.1c0-0.1,0-0.1,0-0.1l0,0c0,0.1,0,0.1,0,0.2V69.8C246.4,69.8,246.4,69.8,246.5,69.8L246.5,69.8L246.5,69.8z M247,70c0,0.2-0.1,0.4-0.2,0.7v0.1l0,0C247,70.5,247.1,70.2,247,70c0-0.2,0-0.5-0.2-0.8c-0.1-0.2-0.1-0.3-0.1-0.5c0-0.1,0-0.2,0.1-0.4l0,0l0,0l0,0c0-0.2,0-0.3,0-0.5c0.1-0.1,0.1-0.2,0.2-0.3c0.1-0.1,0.2-0.2,0.2-0.2c0-0.1,0-0.2,0-0.3c0,0,0,0-0.1,0.1c0,0.1,0,0.1,0,0.2c0,0-0.1,0.1-0.2,0.2c-0.1,0.1-0.2,0.2-0.2,0.4c0,0.1,0,0.2,0,0.3c-0.1,0.1-0.2,0.3-0.2,0.5s0.1,0.3,0.1,0.5C247,69.5,247,69.7,247,70z M244.2,63.3c0.2-0.1,0.3-0.2,0.5-0.2c-0.1,0-0.1,0.1-0.1,0.1c0,0.1,0,0.2,0.1,0.2s0.2-0.1,0.2-0.2c0-0.1,0-0.1-0.1-0.1l0,0c0.2,0,0.4,0,0.6,0.1c-0.2,0.2-0.5,0.3-0.6,0.3c-0.2,0-0.3,0-0.5-0.1l0,0l0,0c0.2,0.1,0.3,0.2,0.5,0.1c0.2,0,0.5-0.1,0.7-0.4c0.1,0,0.2,0,0.2,0c0.1,0,0.2,0,0.2,0l0,0c0-0.1,0-0.1,0-0.1c-0.1,0-0.1,0-0.2,0c-0.1,0-0.1,0-0.2,0c-0.2-0.1-0.5-0.1-0.7-0.1C244.6,63,244.3,63.1,244.2,63.3C244,63.2,244,63.2,244.2,63.3L244.2,63.3z M245.9,64.1c0.1,0,0.2-0.1,0.3-0.2c0.1,0,0.2-0.2,0.2-0.2l0,0l0,0c-0.1,0-0.2,0.1-0.2,0.2C246.1,64,246,64,245.9,64.1C245.9,64.2,245.9,64.2,245.9,64.1z M248.3,63.2c0,0,0.1,0,0.1,0.1l0,0l0,0C248.5,63.2,248.4,63.2,248.3,63.2c-0.1,0-0.1,0-0.2,0l0,0C248.2,63.2,248.3,63.2,248.3,63.2z M247.2,63c0,0,0.2,0,0.3,0l0,0l0,0C247.4,62.8,247.2,62.9,247.2,63c-0.2,0-0.2,0-0.3,0.2c0,0,0,0,0.1,0.1C247,63.2,247,63.1,247.2,63z M247,63.4C247,63.5,247,63.5,247,63.4s0-0.1,0.1-0.2c0,0,0.1,0,0.2,0l0,0l0,0c0,0-0.1,0-0.2,0.1C247,63.3,247,63.3,247,63.4z M244.7,64.3c0-0.1,0-0.1,0.1-0.2c0-0.1,0-0.1-0.1-0.1C244.7,64.1,244.6,64.2,244.7,64.3c-0.1,0-0.1,0.1-0.1,0.2l0,0l0,0C244.7,64.5,244.7,64.4,244.7,64.3z M245.4,64.5L245.4,64.5v-0.1c0,0,0,0-0.1,0L245.4,64.5C245.3,64.5,245.3,64.5,245.4,64.5z M245,63.8c0.1,0,0.2,0,0.2,0c0.1,0,0.2,0,0.2,0l0,0l0,0h-0.2C245.2,63.8,245,63.7,245,63.8L245,63.8z M245.2,62.7c0,0,0,0,0.1-0.1c0,0,0.1,0,0.2,0c0-0.1,0-0.1,0-0.1s-0.1,0-0.2,0S245.1,62.6,245.2,62.7C245.1,62.7,245.1,62.7,245.2,62.7C245.2,62.8,245.2,62.7,245.2,62.7z M244.6,62.7L244.6,62.7l0.1-0.1c0,0,0,0,0-0.1c0,0-0.1,0-0.1,0.1C244.6,62.6,244.6,62.6,244.6,62.7C244.5,62.7,244.5,62.7,244.6,62.7C244.6,62.8,244.6,62.7,244.6,62.7z M244.2,62.8L244.2,62.8c0.1-0.1,0.1-0.1,0.2-0.2c0,0,0,0,0-0.1c0,0,0,0-0.1,0.1C244.2,62.7,244.2,62.7,244.2,62.8C244.1,62.8,244.1,62.8,244.2,62.8L244.2,62.8z M243.7,63.3c0,0,0-0.1,0.1-0.1c0-0.1,0.1-0.1,0.1-0.1l0,0c0,0-0.1,0-0.1,0.1C243.7,63.2,243.7,63.2,243.7,63.3C243.6,63.2,243.6,63.3,243.7,63.3L243.7,63.3z M243.8,63L243.8,63L243.8,63z M243.9,63.6c-0.1,0-0.2,0.1-0.2,0.1l-0.1,0.1l0,0l0,0l0.1-0.1C243.9,63.7,243.9,63.7,243.9,63.6z M243.4,64v-0.2c-0.1,0-0.1,0-0.1,0L243.4,64C243.3,64,243.3,64,243.4,64L243.4,64z M243.9,65C243.9,65.1,243.9,65.1,243.9,65C244,65.1,244,65,243.9,65C244,65,244,65,243.9,65c0.1-0.2,0.1-0.3,0.1-0.4c-0.1-0.1-0.1-0.1-0.1,0C243.9,64.8,243.9,64.9,243.9,65L243.9,65z M243.7,64.3C243.5,64.3,243.5,64.3,243.7,64.3c-0.1,0-0.1,0.2-0.1,0.2l0,0l0,0C243.7,64.5,243.7,64.4,243.7,64.3z M243.6,61.8c0-0.1-0.1-0.1-0.1-0.2c0-0.1-0.2-0.1-0.2-0.1s0,0,0,0.1c0,0,0.1,0,0.1,0.1C243.5,61.8,243.5,61.8,243.6,61.8C243.5,61.9,243.5,61.9,243.6,61.8L243.6,61.8z M246.5,66.5C246.5,66.5,246.4,66.5,246.5,66.5C246.5,66.6,246.5,66.5,246.5,66.5c0.1,0,0.2-0.2,0.2-0.3c0-0.1-0.1-0.2-0.1-0.4l0,0c0,0.1,0.1,0.2,0.1,0.4C246.6,66.2,246.5,66.3,246.5,66.5z M246.5,65.7L246.5,65.7C246.5,65.7,246.4,65.7,246.5,65.7z M245.8,66.6c0.1-0.1,0.2-0.2,0.2-0.3c0.1-0.1,0.2-0.3,0.2-0.5c0-0.1,0-0.3,0-0.5l0,0l0,0c0,0.2,0,0.3,0,0.5s-0.1,0.2-0.2,0.4C245.8,66.3,245.8,66.4,245.8,66.6c-0.2,0-0.2,0.2-0.3,0.3c0,0,0,0,0.1,0.1C245.6,66.9,245.7,66.8,245.8,66.6z M244.1,66.6C244.2,66.7,244.2,66.7,244.1,66.6c0.1,0,0.1,0,0.1-0.1s0.1,0,0.2-0.1c0,0,0,0,0-0.1l0,0c0,0-0.1,0-0.2,0.1C244.2,66.5,244.1,66.5,244.1,66.6z M244.2,66.2L244.2,66.2L244.2,66.2c-0.1,0-0.2,0-0.2,0.1s-0.1,0.2-0.1,0.2c0,0.1,0,0,0,0s0.1-0.1,0.1-0.2C244.1,66.2,244.2,66.2,244.2,66.2z M245.6,65.2L245.6,65.2L245.6,65.2c-0.1,0-0.1,0-0.2,0s-0.1,0-0.2-0.1c-0.1,0.1,0,0.1,0,0.1c0.1,0,0.2,0,0.2,0S245.5,65.2,245.6,65.2z M244.6,65L244.6,65L244.6,65L244.6,65L244.6,65z M259.7,69.5L259.7,69.5C259.6,69.5,259.6,69.5,259.7,69.5c0,0.1,0,0.1,0,0.2l0,0V69.5C259.8,69.6,259.7,69.5,259.7,69.5z M243.4,77.5c-0.1,0-0.2,0-0.2,0c-0.1-0.1-0.2-0.1-0.2-0.2c0,0.1,0.1,0.2,0.2,0.2C243.2,77.5,243.2,77.5,243.4,77.5L243.4,77.5L243.4,77.5z" />
    <path fill="#FF0000" stroke="#000000" stroke-width="0.1" stroke-miterlimit="10" d="M253.2,80.1c-0.4-0.1-0.8-0.1-1.1-0.1c0,0.1-0.1,0.2-0.2,0.2c-0.2,0.1-0.5,0.1-0.8,0.1c0,0.2,0.1,0.3,0.3,0.3c0.4-0.2,0.5,0,0.5,0c0,0.1-0.1,0.1-0.4,0.3c0,0-0.1,0.1-0.1,0.2c0.2,0.4,0.9,0.2,1.3,0.1c0.2,0,0.6-0.3,0.8-0.6c0-0.1,0-0.2-0.2-0.4C253.3,80.3,253.2,80.2,253.2,80.1z M243.5,77.2h-0.4l-0.2-0.2l-0.2-0.2c-0.2,0.1-0.4,0.3-0.6,0.3c-0.1,0-0.3,0.1-0.4,0.2c0,0,0.1,0.3,0.2,0.2c0.2-0.1,0.4-0.1,0.1,0.2c0,0,0.2,0.3,0.2,0.4c0.3,0.2,0.9,0.2,1.2,0c0.2-0.2,0.6-0.5,0.4-0.7C243.7,77.3,243.5,77.2,243.5,77.2z M249.1,79.2c0,0-0.8-0.2-1-0.2H248c-0.2,0-0.2,0.1-0.3,0.1c0,0-0.2,0-0.2,0.1s0.1,0.1,0.2,0.2c0,0,0.2,0,0.3,0s0.2,0,0.3-0.1c0,0,0-0.1,0.1,0v0.1c-0.1,0-0.2,0.1-0.3,0.1s-0.2,0-0.3,0c0,0.2,0.1,0.2,0.2,0.3c0.3,0.2,1.3,0.3,1.5-0.1c0-0.1,0-0.2-0.1-0.3C249,79.3,249.4,79.4,249.1,79.2z M245.1,79.1c-0.1,0-0.2,0-0.4-0.1c0,0,0,0,0-0.1l-0.4-0.1c0,0-0.1,0.1-0.1,0.2c-0.2,0.2-0.4,0.1-0.6,0.2c-0.2,0.1,0.1,0.3,0.2,0.4c0.1,0.1,0.2,0,0.3-0.1c0.2-0.1,0.3,0,0.2,0c0,0.2-0.1,0.1-0.1,0.2s0.3,0.2,0.5,0.2s0.7-0.2,0.9-0.3c0.1-0.1,0.2-0.3,0.1-0.5C245.4,79.1,245.2,79.1,245.1,79.1z" />
    <path fill="#FF0000" d="M255.3,62.7c0.1-0.1,0.2-0.2,0.2-0.2v-0.2c0.4,0,0.8,0,1,0C256.2,62.5,255.8,62.6,255.3,62.7z M254.8,62.8c0.2,0,0.4,0,0.5,0v-0.1c0-0.1,0.2-0.1,0.2-0.2c0-0.1,0-0.1,0-0.2c-0.2,0-0.5,0-0.8-0.1c0,0,0,0.1,0.1,0.3c0,0.1,0,0.2-0.2,0.3C254.6,62.8,254.7,62.8,254.8,62.8z M251.3,63c-0.1,0-0.1,0-0.1,0.1c-0.1,0-0.2-0.1-0.3-0.2c-0.6-0.3-1.2-0.5-1.9-0.5c0.2-0.2,0.3-0.5,0.2-0.7c0-0.1-0.2-0.3-0.3-0.4h-0.1c0.2,0.1,0.3,0.3,0.4,0.4c0,0.2,0,0.4-0.2,0.6c0,0,0,0,0,0.1c-0.4,0-0.8,0-1.1,0.2c-0.3,0-0.7,0.1-1,0.2c-0.1-0.1-0.2-0.1-0.4-0.1h-0.2c-0.4-0.1-0.8-0.1-1.3-0.3l0,0c0.2-0.2,0.2-0.2,0.4-0.4c0.2-0.1,0.8-0.3,1-0.1c0.1,0.1,0.2,0.2,0.3,0.4c0,0,0,0,0.1,0c0,0,0,0,0-0.1c0-0.2-0.2-0.3-0.3-0.5c-0.2-0.1-0.3-0.1-0.5,0c0.1-0.1,0.2-0.2,0.5-0.2c0.2,0,0.5,0,0.8-0.1c0,0,0.3,0.1,0.5,0.2c0.1,0.1,0.2,0.3,0.2,0.5l0,0l0,0c0-0.2-0.2-0.5-0.2-0.6c-0.1-0.1-0.2-0.2-0.4-0.2c0.2,0,0.4-0.1,0.5-0.1s0.3,0,0.4,0c0-0.1,0-0.1,0-0.1c-0.1,0-0.3,0-0.4,0c-0.2,0-0.4,0-0.6,0.1c-0.1-0.2-0.2-0.3-0.4-0.4c0,0-0.1,0-0.2,0c0.5-0.2,0.9-0.3,1.3-0.4c0.2,0.1,0.3,0.2,0.4,0.2c0-0.1,0-0.2-0.2-0.2c0.4,0,0.9,0,1.3,0c0.2,0,0.2,0.1,0.3,0.2c0,0.1,0.1,0.3,0,0.5l0,0l0,0c0-0.2,0-0.4-0.1-0.5c0-0.1-0.1-0.2-0.2-0.2h0.1c0.5,0,0.9,0.1,1.3,0.4c0.1,0.1,0.1,0.2,0.1,0.3s-0.1,0.2-0.2,0.3c0,0,0,0,0,0.1s0,0,0.1,0c0.1-0.1,0.2-0.2,0.2-0.4c0-0.1,0-0.2,0-0.2c0.3,0.2,0.8,0.3,1.1,0.5c0,0.1,0,0.2,0,0.2c0,0.1-0.1,0.2-0.3,0.2c0,0,0,0,0,0.1c0,0,0,0,0.1,0s0.3-0.1,0.3-0.2c0-0.1,0.1-0.2,0-0.3c0.2,0.2,0.5,0.2,0.7,0.4c0,0.1,0,0.2,0,0.2s-0.1,0.2-0.2,0.2c0,0,0,0,0,0.1c0,0,0,0,0.1,0c0.1-0.1,0.2-0.1,0.3-0.2c0,0,0-0.1,0-0.2c0.1,0.1,0.1,0.1,0.2,0.1c0.2,0.1,0.5,0.1,0.8,0.2c0,0.1,0.1,0.1,0,0.2c0,0.1,0,0.1-0.2,0.2c0,0,0,0,0,0.1c-1-0.1-1.8-0.5-2.6-0.8c-0.1,0-0.2-0.1-0.3-0.1l0.1,0.1c0.2,0.1,0.5,0.3,0.7,0.5c0,0.2-0.1,0.4-0.2,0.5C251.7,63,251.5,63,251.3,63z M250.8,61.7c-0.1,0-0.1-0.1-0.2-0.1c0.1,0.2,0.1,0.4,0.1,0.5c0,0.2-0.1,0.3-0.3,0.4c0,0,0,0,0,0.1s0,0,0.1,0c0.2-0.2,0.4-0.3,0.4-0.5C250.8,61.9,250.8,61.8,250.8,61.7z M252.2,62.5c0,0.2-0.1,0.4-0.2,0.5c-0.2,0.1-0.3,0.1-0.5,0.1c0.4,0.3,0.8,0.6,1.1,0.9c0,0,0,0,0.2-0.1c0.2,0,0.3,0,0.4,0l0.1-0.1v-0.1c0-0.1,0-0.2,0-0.2c-0.1-0.1-0.2-0.2-0.3-0.3C252.6,62.9,252.4,62.7,252.2,62.5z M254.6,64.3L254.6,64.3c-0.2-0.1-0.3-0.2-0.5-0.3c-0.3-0.1-0.6-0.3-0.9-0.6v0.1c0,0.1,0,0.2-0.1,0.2c0,0.3-0.1,0.3-0.1,0.3c-0.1,0-0.2,0-0.4,0c0.3,0.2,0.6,0.5,0.9,0.6c0.1,0,0.2,0.1,0.4,0.2c0,0,0.1,0,0.1-0.1c0.2,0,0.5,0,0.6-0.1C254.6,64.5,254.6,64.5,254.6,64.3z M255.5,65c0,0,0-0.1,0-0.2c-0.2-0.1-0.5-0.2-0.8-0.3c0,0.2-0.1,0.3-0.2,0.3c-0.1,0-0.3,0.1-0.5,0.1c0.4,0.2,0.8,0.4,1.3,0.5c0-0.1,0-0.1,0-0.1C255.4,65.2,255.5,65.2,255.5,65z M258.2,65.1c-0.5,0.1-0.9,0.1-1.3,0.1c0,0-0.1,0.1-0.1,0.2s-0.1,0.1-0.3,0.2c0.6,0,1.3-0.1,1.8-0.4C258.5,65,258.2,65.1,258.2,65.1z M256.4,65.5c0,0,0,0,0.1,0c0,0,0.1,0,0.1-0.1C256.5,65.5,256.4,65.5,256.4,65.5L256.4,65.5z M256.4,65.5c0.2,0,0.2-0.2,0.3-0.2s0-0.1,0-0.2c-0.3,0-0.6-0.1-1-0.2c0,0.2,0,0.2,0,0.3c0,0.1-0.2,0.2-0.3,0.2C255.7,65.5,256,65.5,256.4,65.5L256.4,65.5z M244.8,62.2c0.2-0.2,0.2-0.3,0.4-0.4c0.1-0.1,0.3-0.1,0.4-0.2c0.2-0.2,0.4-0.2,0.6-0.4c0.2,0,0.5-0.1,0.8-0.1c-0.1-0.2-0.2-0.2-0.3-0.4c-0.2,0-0.3,0-0.5,0c-0.4,0.1-0.7,0.3-1,0.5c0,0,0,0,0.1,0s0.2,0,0.2,0s0,0,0,0.1c0,0-0.2,0-0.3,0s-0.1,0-0.2,0l0,0c-0.3,0.2-0.5,0.4-0.8,0.6C244.5,62.1,244.7,62.2,244.8,62.2L244.8,62.2z" />
  </g>
</svg>
