<svg xmlns="http://www.w3.org/2000/svg" width="450px" height="300px" viewBox="0 0 450 300">
  <path fill="#DE2910" d="M0,0h450v300H0V0z" />
  <path fill="#FFDE00" d="M117.8,61.1L91.3,80.3l10.1,31.1L75,92.2l-26.5,19.2l10.1-31.1L32.2,61.1h32.7L75,30l10.1,31.1H117.8z M147.8,35.3l5.6,9.3l1-10.9l10.6-2.4L155,27l1-10.9l-7.2,8.2l-10-4.3l5.6,9.3l-7.2,8.2L147.8,35.3z M175.9,64l1.5,10.8l5.1-9.6l10.7,1.9l-7.6-7.8l5.1-9.6l-9.8,4.8l-7.6-7.8l1.5,10.8l-9.8,4.8L175.9,64z M185.5,106.6l8.6-6.7l-10.9,0.4L179.5,90l-3,10.5l-10.9,0.4l9,6.1l-3,10.5l8.6-6.7l9,6.1L185.5,106.6z M154.8,131.9l0.5-10.9l-6.8,8.5l-10.2-3.8l6,9.1l-6.8,8.5l10.5-2.9l6,9.1l0.5-10.9l10.5-2.9L154.8,131.9z" />
</svg>
