<svg xmlns="http://www.w3.org/2000/svg" width="450px" height="300px" viewBox="0 0 450 300">
  <path fill="#000000" d="M0,0h450v300H0V0z" />
  <path fill="#CE1126" d="M164.175,92.5c8.855-25.051,32.742-43,60.825-43s51.97,17.949,60.825,43H164.175z M275.348,32.795c1.625-2.815,2.528-6.046,0.652-7.129s-4.223,1.315-5.848,4.129c-3.917,6.784-5.133,10.81-9.152,21.852C268.553,42.645,271.431,39.578,275.348,32.795z M266.298,55.021c4.966-10.649,6.529-14.554,11.022-20.971c1.864-2.662,4.411-4.847,6.186-3.604s0.593,4.383-1.271,7.045C277.741,43.908,274.606,46.713,266.298,55.021z M255.429,48.746c3.041-11.35,3.902-15.467,7.213-22.566c1.374-2.945,3.502-5.539,5.466-4.623s1.345,4.213-0.028,7.159C264.768,35.815,262.168,39.121,255.429,48.746z M249.625,46.342c2.04-11.572,2.539-15.748,5.218-23.109c1.112-3.054,3.006-5.823,5.042-5.082c2.036,0.741,1.708,4.08,0.596,7.134C257.803,32.646,255.5,36.166,249.625,46.342z M237.503,43.094c0-11.75-0.234-15.95,1.126-23.664c0.564-3.201,1.949-6.257,4.083-5.88c2.134,0.376,2.39,3.722,1.826,6.922C243.178,28.186,241.521,32.052,237.503,43.094z M243.635,44.453c1.024-11.705,1.157-15.909,3.184-23.476c0.841-3.139,2.487-6.063,4.58-5.502s2.057,3.916,1.215,7.055C250.588,30.097,248.601,33.804,243.635,44.453z M231.275,42.274c-1.024-11.705-1.623-15.869-0.94-23.672c0.283-3.238,1.397-6.403,3.555-6.214c2.158,0.189,2.705,3.499,2.422,6.737C235.629,26.928,234.316,30.924,231.275,42.274z M284.088,38.914c2.089-2.49,4.816-4.444,6.476-3.051s0.209,4.418-1.88,6.908c-5.035,6.001-8.403,8.521-17.404,16.074C277.156,48.669,279.053,44.915,284.088,38.914z M290.407,44.35c2.298-2.298,5.185-4.007,6.718-2.475c1.532,1.532-0.177,4.419-2.475,6.717c-5.539,5.539-9.113,7.756-18.738,14.496C282.651,53.463,284.868,49.889,290.407,44.35z M310.285,70.921c2.945-1.374,6.243-1.992,7.159-0.028s-1.678,4.092-4.623,5.466c-7.099,3.31-11.216,4.171-22.566,7.213C299.879,76.832,303.185,74.232,310.285,70.921z M323.524,87.6c0.561,2.093-2.363,3.739-5.502,4.58c-0.42,0.112-0.828,0.218-1.228,0.319h-16.138c6.348-2.973,9.903-4.531,15.813-6.115C319.609,85.544,322.964,85.508,323.524,87.6z M313.715,78.518c3.054-1.112,6.393-1.44,7.134,0.596s-2.028,3.931-5.082,5.042c-7.361,2.679-11.537,3.178-23.109,5.218C302.834,83.5,306.354,81.197,313.715,78.518z M296.229,50.316c2.49-2.089,5.515-3.54,6.908-1.88s-0.561,4.387-3.051,6.476c-6.001,5.035-9.755,6.932-19.93,12.807C287.708,58.718,290.228,55.351,296.229,50.316z M301.508,56.766c2.662-1.864,5.802-3.046,7.045-1.271s-0.941,4.322-3.604,6.186c-6.417,4.493-10.322,6.056-20.971,11.022C292.287,64.394,295.092,61.259,301.508,56.766z M306.205,63.652c2.815-1.625,6.046-2.528,7.129-0.652s-1.315,4.223-4.129,5.848c-6.784,3.917-10.81,5.133-21.852,9.152C296.355,70.447,299.422,67.569,306.205,63.652z M197.385,22.531c-0.841-3.139-0.877-6.494,1.215-7.055c2.093-0.561,3.739,2.363,4.58,5.502c2.027,7.566,2.16,11.77,3.184,23.476C201.399,33.804,199.412,30.097,197.385,22.531z M155.35,48.593c-2.298-2.298-4.007-5.185-2.475-6.717c1.532-1.532,4.419,0.177,6.717,2.475c5.539,5.539,7.756,9.113,14.496,18.738C164.463,56.349,160.889,54.132,155.35,48.593z M146.863,48.436c1.393-1.66,4.418-0.209,6.908,1.88c6.001,5.035,8.521,8.403,16.074,17.404c-10.176-5.875-13.93-7.772-19.93-12.807C147.425,52.823,145.471,50.095,146.863,48.436z M136.665,63c1.083-1.876,4.315-0.973,7.129,0.652c6.784,3.917,9.851,6.795,18.852,14.348c-11.041-4.019-15.068-5.235-21.852-9.152C137.98,67.223,135.582,64.876,136.665,63z M141.447,55.495c1.243-1.775,4.383-0.593,7.045,1.271c6.417,4.493,9.221,7.628,17.529,15.936c-10.649-4.966-14.554-6.529-20.971-11.022C142.388,59.817,140.204,57.27,141.447,55.495z M126.476,87.6c0.561-2.093,3.916-2.057,7.055-1.215c5.91,1.583,9.465,3.142,15.813,6.115h-16.138c-0.401-0.101-0.809-0.207-1.228-0.319C128.838,91.339,125.915,89.693,126.476,87.6z M132.557,70.893c0.916-1.964,4.213-1.345,7.159,0.028c7.099,3.311,10.405,5.911,20.03,12.65c-11.35-3.041-15.467-3.902-22.566-7.213C134.234,74.985,131.641,72.857,132.557,70.893z M129.151,79.114c0.741-2.036,4.08-1.708,7.134-0.596c7.361,2.679,10.881,4.982,21.057,10.857c-11.572-2.04-15.748-2.539-23.109-5.218C131.179,83.045,128.41,81.15,129.151,79.114z M213.688,19.125c-0.283-3.238,0.264-6.548,2.422-6.737c2.158-0.189,3.272,2.976,3.555,6.214c0.683,7.804,0.084,11.967-0.94,23.672C215.684,30.924,214.371,26.928,213.688,19.125z M189.518,25.285c-1.112-3.054-1.44-6.393,0.596-7.134s3.931,2.028,5.042,5.082c2.679,7.361,3.178,11.537,5.218,23.109C194.5,36.166,192.197,32.646,189.518,25.285z M205.462,20.472c-0.564-3.201-0.308-6.546,1.826-6.922s3.519,2.68,4.083,5.88c1.36,7.714,1.126,11.914,1.126,23.664C208.479,32.052,206.822,28.186,205.462,20.472z M161.316,42.771c-2.089-2.49-3.54-5.515-1.88-6.908s4.387,0.561,6.476,3.051c5.035,6.001,6.932,9.755,12.807,19.93C169.718,51.292,166.351,48.772,161.316,42.771z M225,42c-2.04-11.572-3-15.667-3-23.5c0-3.25,0.833-6.5,3-6.5s3,3.25,3,6.5C228,26.333,227.04,30.428,225,42z M167.766,37.492c-1.864-2.662-3.046-5.802-1.271-7.045c1.775-1.243,4.322,0.941,6.186,3.604c4.493,6.417,6.056,10.322,11.022,20.971C175.394,46.713,172.259,43.908,167.766,37.492z M174.652,32.795c-1.625-2.815-2.528-6.046-0.652-7.129s4.223,1.315,5.848,4.129c3.917,6.784,5.133,10.81,9.152,21.852C181.447,42.645,178.569,39.578,174.652,32.795z M181.921,28.715c-1.374-2.945-1.992-6.243-0.028-7.159s4.092,1.678,5.466,4.623c3.311,7.099,4.171,11.216,7.213,22.566C187.832,39.121,185.232,35.815,181.921,28.715z M0,100h450v200H0V100z" />
  <path fill="#339E35" d="M0,200h450v100H0V200z" />
</svg>
