<svg xmlns="http://www.w3.org/2000/svg" width="450px" height="300px" viewBox="0 0 450 300">
  <path fill="#f00" d="M450,0H0v300h450V0Z" />
  <path fill="#000" d="M307.439,186.41c-1.635-2.898-7.554-2.884-8.409.378l-11.949.332,7.09-5.048c2.646,1.563,6.36-.174,7.104-3.013,1.055-1.254,2.356-1.844,4.917-.993-1.32-2.338-3.18-3.036-6.539-1.449-3.064-2.322-7.103.494-6.49,2.832l-9.433,6.418c-6.847-2.043-19.247-5.224-19.247-5.224,1.476-1.553,2.974-2.996,4.448-4.571.532-.922-.281-1.996-1.411-2.22-11.064-2.283-17.399-6.744-21.237-18.08-1.605-4.748,1.866-6.166,3.058-3.262,1.65,4.039,3.471,8.453,8.439,11.871,1.713,1.198,6.814.22,3.797-2.642-3.124-2.574-4.469-3.681-6.009-9.939,0-3.171,3.231-4.592,5.034-1.553,1.929,6.234,2.126,8.918,5.617,12.934,2.646,3.039,6.096,5.082,7.809,5.036,3.082-.043,6.185-3.373,2.063-5.79-6.054-2.418-8.266-5.723-9.157-8.875-.975-5.5.09-8.163,3.408-5.457,4.706,5.347,13.689,15.307,18.394,19.945,5.274,4.039,11.324,4.17,16.14.067,2.757-3.173,1.779-6.588-2.538-5.857-9.74.822-17.115-4.014-25.207-17.084-1.584-2.95-2.019-7.188,1.476-4.035,4.033,5.457,9.913,10.095,15.381,12.091,5.488,1.972,10.02.883,11.778-.843,2.118-2.118,1.561-7.454-2.104-6.167-3.016,1.065-7.267,1.33-11.691-.378-4.428-1.731-9.026-5.457-13.907-11.779-1.671-3.571-1.127-6.588,2.256-4.749,8.006,6.791,18.332,12.291,23.602,8.986,3.884-2.418,3.949-8.631-.975-8.23-9.916,1.351-13.668-.843-23.192-9.251-2.168-1.62-2.018-5.726,1.431-3.106,8.006,5.17,18.939,7.187,23.235,4.482,3.863-2.418,3.297-9.808-3.21-7.191-5.208,3.173-10.956,3.084-22.475-5.145-2.906-2.418-.738-5.57,1.647-4.216,9.264,5.28,22.759,7.542,26.271-3.195,1.366-4.103-1.106-6.5-4.729-3.66-7.961,7.365-16.986,3.748-22.038.043-1.447-.853-4.101-5.169.561-4.368,12.063,2.751,23.994.355,26.164-8.187,1.259-2.773-1.217-7.677-5.62-3.571-5.791,5.723-11.931,5.922-19.653,5.879-3.928-.822-3.97-5.148-.673-5.79,6.096.131,12.105-2.532,16.921-5.237,4.708-2.706,8.613-6.5,9.85-11.758.759-4.702-3.776-9.694-6.508-4.702-4.036,7.298-12.974,14.176-22.911,15.418-.517-.866-1.821-3.085-3.426-2.461-2.918,1.131-6.394,2.645-9.974,4.345-7.716,3.664-10.932,5.43-10.005,11.76.967,6.606-4.125,10.78-8.331,9.627-3.669-.987-5.692-4.301-5.035-10.049.527-4.58,5.124-10.119,10.305-13.024,3.354-1.877,8.418-2.904,14.514-4.258,3.71-.731,5.599-2.174,5.815-3.684,0,0-2.536,1.856-6.595,1.577-1.919-.137-3.205-.981-3.689-1.843,1.411-.287,3.97.046,6.269.046,3.058-.024,10.158-.709,12.042-5.014.586-2.84-1.28-3.35-3.016-1.531-1.866,1.966-2.634,3.733-6.377,4.393-2.277.401-4.556.866-7.485.156,1.65-1.96,4.272-3.965,6.508-3.596.735.123,1.713.801,2.496,2.021.478-3.106-.371-6.613-8.679-5.148.132-2.351-4.816-3.372-7.787-3.326-1.692.043-5.142,1.043-7.635,2.238-3.949,1.223-7.853,2.109-12.454,2.443,2.67,2.283,3.169,2.418,5.835,4.347-4.033,1.507-7.157,4.614-8.568,6.656,0,0,4.708-.132,5.901.4-4.927,1.44-7.14,2.305-9.743,4.968.912.156,2.277.422,2.864.645.61.22.451.621-.042.997-1.061.81-5.446,5.903-6.726,7.123-1.28-1.22-5.665-6.313-6.726-7.123-.493-.376-.652-.777-.042-.997.586-.223,1.952-.489,2.864-.645-2.604-2.663-4.816-3.528-9.743-4.968,1.193-.532,5.901-.4,5.901-.4-1.411-2.042-4.535-5.148-8.568-6.656,2.667-1.929,3.166-2.064,5.835-4.347-4.601-.333-8.505-1.22-12.454-2.443-2.493-1.195-5.943-2.195-7.635-2.238-2.971-.046-7.919.975-7.787,3.326-8.308-1.464-9.157,2.043-8.679,5.149.783-1.22,1.761-1.899,2.496-2.021,2.236-.37,4.858,1.635,6.508,3.595-2.93.709-5.208.244-7.486-.156-3.743-.66-4.511-2.427-6.377-4.393-1.736-1.819-3.602-1.309-3.016,1.531,1.884,4.305,8.983,4.989,12.042,5.014,2.299,0,4.858-.333,6.269-.046-.484.862-1.77,1.706-3.689,1.843-4.059.279-6.595-1.577-6.595-1.577.216,1.51,2.104,2.953,5.815,3.684,6.096,1.354,11.16,2.382,14.514,4.259,5.181,2.904,9.779,8.444,10.305,13.024.657,5.747-1.366,9.061-5.034,10.049-4.206,1.153-9.299-3.021-8.331-9.627.927-6.33-2.289-8.096-10.005-11.76-3.579-1.7-7.056-3.214-9.974-4.346-1.605-.623-2.909,1.596-3.426,2.462-9.937-1.242-18.876-8.12-22.911-15.418-2.733-4.992-7.267,0-6.508,4.702,1.238,5.259,5.142,9.052,9.85,11.758,4.816,2.706,10.825,5.368,16.921,5.237,3.297.642,3.255,4.968-.673,5.79-7.722.043-13.862-.156-19.653-5.879-4.403-4.106-6.879.798-5.62,3.571,2.17,8.541,14.101,10.938,26.164,8.187,4.663-.801,2.009,3.516.561,4.369-5.052,3.705-14.077,7.322-22.038-.043-3.623-2.84-6.096-.444-4.729,3.66,3.513,10.737,17.007,8.475,26.271,3.195,2.386-1.354,4.553,1.798,1.647,4.216-11.519,8.23-17.267,8.319-22.475,5.145-6.508-2.617-7.073,4.772-3.21,7.191,4.296,2.706,15.228.688,23.234-4.482,3.45-2.62,3.599,1.486,1.431,3.106-9.524,8.407-13.276,10.602-23.192,9.251-4.924-.4-4.858,5.811-.975,8.23,5.27,3.304,15.596-2.195,23.601-8.985,3.384-1.84,3.928,1.177,2.257,4.748-4.881,6.322-9.48,10.049-13.907,11.779-4.424,1.709-8.675,1.443-11.691.379-3.666-1.287-4.223,4.049-2.105,6.167,1.758,1.726,6.29,2.816,11.778.843,5.468-1.996,11.348-6.634,15.381-12.091,3.495-3.152,3.061,1.085,1.476,4.035-8.092,13.069-15.467,17.906-25.207,17.084-4.317-.731-5.294,2.684-2.538,5.857,4.816,4.103,10.867,3.972,16.14-.067,4.706-4.638,13.689-14.598,18.394-19.945,3.318-2.706,4.383-.043,3.408,5.457-.891,3.152-3.103,6.457-9.157,8.875-4.123,2.418-1.02,5.747,2.063,5.79,1.713.046,5.163-1.996,7.809-5.035,3.492-4.017,3.689-6.701,5.617-12.935,1.803-3.039,5.034-1.617,5.034,1.553-1.539,6.258-2.885,7.365-6.009,9.939-3.017,2.862,2.084,3.84,3.797,2.642,4.968-3.418,6.789-7.833,8.439-11.871,1.193-2.904,4.664-1.485,3.059,3.262-3.838,11.336-10.173,15.796-21.237,18.08-1.13.223-1.944,1.297-1.412,2.22,1.474,1.575,2.972,3.017,4.449,4.571,0,0-12.401,3.181-19.248,5.224l-9.433-6.418c.613-2.338-3.426-5.154-6.49-2.833-3.36-1.586-5.219-.888-6.539,1.449,2.561-.851,3.862-.262,4.917.992.744,2.839,4.457,4.576,7.104,3.013l7.09,5.049-11.949-.333c-.855-3.262-6.774-3.276-8.409-.378-2.151,0-3.587,1.203-4.324,4.017,2.34-1.739,3.354-1.53,4.554-1.201,1.404,2.487,6.217,2.357,7.548,0l11.473.321-6.703,3.849c-3.86-2.279-8.847,1.143-7.914,4.701-1.624,1.35-1.841,3.294-.804,6.046.561-1.908,1.626-3.693,3.283-4.722,3.514.963,6.893-.166,6.893-3.733l9.317-5.274,9.223,3.625c0,2.466,3.679,4.331,6.837,3.024,2.213.264,2.527,2.246,2.896,3.771,1.209-2.191,1.434-4.462-1.367-6.399,0-2.836-3.573-4.599-6.533-2.964l-7.818-2.778c7.021-2.289,19.915-4.605,19.915-4.605,1.758,1.684,3.162,2.924,4.92,4.431.933.577,2.251.547,3.686-1.327,4.383-6.503,8.526-18.34,14.861-19.969,2.329-.6,5.13.978,4.535,6.188-.906,7.921-6.703,14.506-13.994,19.434-4.057,2.706-5.77,1.51-8.915,1.354-4.057.465-5.142,2.483-1.8,5.28,3.1,1.641,5.898,1.862,8.156,1.419,1.952-.355,4.23-2.929,5.856-4.326,1.824-2.152,4.861.4,2.801,2.929-3.755,4.57-7.528,7.566-12.15,7.499-4.881.688-3.969,3.482-.738,4.836,5.815,2.461,11.085-2.131,13.734-5.17,2.06-2.283,3.537-2.372,3.166,1.177-2.039,6.454-4.837,8.961-9.393,9.273-3.689-.333-3.731,2.574-1.041,4.549,6.159,4.347,10.628-3.063,12.711-7.545,1.474-4.06,3.754-2.128,3.991,1.198.045,4.461-3.15,9.088-5.786,11.373-2.63,2.284,11.365,16.814,11.365,16.814,0,0,13.996-14.531,11.361-16.816-2.636-2.285-5.831-6.913-5.786-11.373.236-3.326,2.517-5.259,3.991-1.198,2.084,4.482,6.553,11.892,12.711,7.545,2.691-1.975,2.649-4.882-1.041-4.549-4.556-.312-7.354-2.819-9.393-9.273-.371-3.549,1.106-3.461,3.166-1.177,2.649,3.039,7.919,7.631,13.734,5.17,3.231-1.354,4.143-4.149-.738-4.836-4.622.067-8.394-2.929-12.15-7.499-2.059-2.529.978-5.081,2.802-2.929,1.626,1.397,3.904,3.971,5.856,4.326,2.257.443,5.055.223,8.156-1.419,3.342-2.797,2.257-4.815-1.8-5.28-3.145.156-4.858,1.351-8.914-1.354-7.292-4.929-13.089-11.514-13.994-19.434-.595-5.21,2.206-6.787,4.535-6.188,6.334,1.629,10.478,13.467,14.861,19.969,1.435,1.874,2.753,1.905,3.686,1.327,1.758-1.507,3.162-2.746,4.92-4.431,0,0,12.894,2.317,19.915,4.605l-7.818,2.778c-2.96-1.635-6.533.128-6.533,2.964-2.801,1.937-2.576,4.208-1.367,6.4.369-1.526.683-3.508,2.896-3.772,3.158,1.306,6.838-.558,6.838-3.024l9.222-3.625,9.317,5.275c0,3.566,3.378,4.695,6.894,3.733,1.656,1.029,2.721,2.813,3.282,4.722,1.037-2.752.821-4.695-.804-6.046.932-3.558-4.054-6.98-7.914-4.701l-6.703-3.849,11.473-.321c1.332,2.357,6.144,2.487,7.548,0,1.2-.329,2.214-.538,4.554,1.201-.737-2.814-2.172-4.017-4.324-4.017ZM255.117,62.145c2.165-.001,3.541.692,3.541,1.619,0,.941-1.375,1.777-3.541,1.777-2.178,0-3.524-.767-3.524-1.707,0-.926,1.346-1.689,3.524-1.689ZM194.884,65.541c-2.166,0-3.541-.836-3.541-1.777,0-.927,1.376-1.62,3.541-1.619,2.178,0,3.524.763,3.524,1.689,0,.94-1.346,1.707-3.524,1.707Z" />
</svg>
