<svg xmlns="http://www.w3.org/2000/svg" width="450px" height="300px" viewBox="0 0 450 300">
  <path fill="#FFFFFF" d="M0,0h450v300H0V0z" />
  <path fill="#0038B8" d="M450,28.125V75H0V28.125H450z M0,271.875h450V225H0V271.875z M168.75,182.476L187.5,150l-18.75-32.476h37.5L225,85.048l18.75,32.476h37.5L262.5,150l18.75,32.476h-37.5L225,214.952l-18.75-32.476H168.75z M231.842,182.476h-13.684L225,194.327L231.842,182.476z M256.546,160.312l-6.842,11.851h13.685L256.546,160.312z M249.704,127.837l6.842,11.851l6.842-11.851C263.388,127.837,249.704,127.837,249.704,127.837z M218.158,117.524h13.684L225,105.673L218.158,117.524z M199.408,150l12.796,22.163h25.592L250.592,150l-12.796-22.163h-25.592L199.408,150z M193.454,139.688l6.842-11.851h-13.684L193.454,139.688z M186.612,172.163h13.684l-6.842-11.851L186.612,172.163z" />
</svg>
