<svg xmlns="http://www.w3.org/2000/svg" height="24px" viewBox="0 -960 960 960" width="24px" fill="#e3e3e3"><path d="M481.81-556.19q13.34-13.35 13.34-32.81t-13.34-32.81q-13.35-13.34-32.81-13.34t-32.81 13.34q-13.34 13.35-13.34 32.81t13.34 32.81q13.35 13.34 32.81 13.34t32.81-13.34ZM820.85-95q-35.46 0-104.35-36.16-68.88-36.15-147.58-94.23-21.3 7.7-43.88 11.54Q502.46-210 479-210q-112.77 0-190.88-78.12Q210-366.23 210-479q0-23.46 4.15-46.54 4.16-23.08 11.85-44.38-57.08-78.31-92.96-146.31-35.88-68-35.88-103.08 0-20.07 11.15-31.92 11.15-11.85 29.84-11.85 19.54 0 57.66 16.66 38.11 16.65 94.34 49.42 10.54 6.08 13.7 18.35 3.15 12.27-2.93 22.8-6.07 10.54-18.03 13.89-11.97 3.35-22.5-2.73-24.77-14.46-48.35-26.12-23.58-11.65-48.19-22.96 19.92 42.62 43.11 82.85 23.19 40.23 49.66 79.46 36.46-54 94.3-85.77Q408.77-749 479-749q112.77 0 191.38 78.62Q749-591.77 749-479q0 70.23-32.08 128.27-32.07 58.04-86.07 94.5 39.61 26.85 80.53 50.54 40.93 23.69 83.93 43.38-10.69-24-22.66-47.57-11.96-23.58-26.42-48.35-6.08-10.54-2.73-23t13.88-18.54q10.54-6.08 23-2.73t18.54 13.88q33.62 57.7 49.66 94.77 16.03 37.08 16.03 56.62 0 20.54-12.15 31.38Q840.31-95 820.85-95Zm-247.2-279.35q9.96-9.96 9.96-24.65 0-14.69-9.96-24.65-9.96-9.96-24.65-9.96-14.69 0-24.65 9.96-9.96 9.96-9.96 24.65 0 14.69 9.96 24.65 9.96 9.96 24.65 9.96 14.69 0 24.65-9.96Zm46.08-134.69q8.12-8.11 8.12-20.34 0-12.24-8.12-20.35-8.11-8.12-20.35-8.12-12.23 0-20.34 8.12-8.12 8.11-8.12 20.35 0 12.23 8.12 20.34 8.11 8.12 20.34 8.12 12.24 0 20.35-8.12Z"/></svg>