<svg xmlns="http://www.w3.org/2000/svg" height="24px" viewBox="0 -960 960 960" width="24px" fill="#e3e3e3"><path d="M208.85-137.69q-29 0-48.93-20.12Q140-177.92 140-206.92v-116.93q0-9.84 6.66-17 6.65-7.15 16.5-9.15 39.76-8.38 66.57-38.62 26.81-30.23 26.81-72.53 0-39.77-26.81-70.08-26.81-30.31-66.57-40.46-9.85-2.62-16.5-9.96Q140-589 140-598.85v-116.53q0-28.77 20.04-49t48.42-20.23h126.23q6.62-47.93 42.16-80.5 35.54-32.58 84.3-32.58 48.16 0 83.7 32.58 35.53 32.57 42.76 80.5h125.85q28.39 0 48.62 20.23 20.23 20.23 20.23 49v136.69q34.84 14.15 56.27 46.23Q860-500.38 860-461.15q0 39.07-21.42 70.96-21.43 31.88-56.27 46.57v136.7q0 29-20.23 49.11-20.23 20.12-48.62 20.12H208.85Z"/></svg>