<svg xmlns="http://www.w3.org/2000/svg" height="24px" viewBox="0 -960 960 960" width="24px" fill="#e3e3e3"><path d="M208.85-197.69h504.61q3.85 0 6.35-2.69 2.5-2.7 2.5-6.54V-359q0-11 5.88-20.23 5.89-9.23 16.5-13.08l14.54-6.77q18.31-6.84 29.54-23.53Q800-439.31 800-461.15q0-21.62-11.23-38.43t-29.54-24.04l-13.92-6.15q-10.62-3.85-16.81-12.77-6.19-8.92-6.19-20.54v-152.3q0-4.24-2.5-6.74t-6.35-2.5H565.69q-13.46 0-23.23-8.34-9.77-8.35-11.77-21.81l-3.07-20.92q-3.77-25.85-22.39-43.92-18.61-18.08-44.08-18.08-26.07 0-44.69 18.08-18.61 18.07-22.38 43.92L391-754.77q-2 13.46-11.77 21.81-9.77 8.34-23.23 8.34H208.46q-3.46 0-5.96 2.5t-2.5 6.74V-624q51.77 17.15 84.15 62.04 32.39 44.88 32.39 100.81 0 57.3-32.19 102.19-32.2 44.88-84.35 61.27v90.77q0 3.84 2.5 6.54 2.5 2.69 6.35 2.69Zm0 60q-29 0-48.93-20.12Q140-177.92 140-206.92v-116.93q0-9.84 6.66-17 6.65-7.15 16.5-9.15 39.76-8.38 66.57-38.62 26.81-30.23 26.81-72.53 0-39.77-26.81-70.08-26.81-30.31-66.57-40.46-9.85-2.62-16.5-9.96Q140-589 140-598.85v-116.53q0-28.77 20.04-49t48.42-20.23h126.23q6.62-47.93 42.16-80.5 35.54-32.58 84.3-32.58 48.16 0 83.7 32.58 35.53 32.57 42.76 80.5h125.85q28.39 0 48.62 20.23 20.23 20.23 20.23 49v136.69q34.84 14.15 56.27 46.23Q860-500.38 860-461.15q0 39.07-21.42 70.96-21.43 31.88-56.27 46.57v136.7q0 29-20.23 49.11-20.23 20.12-48.62 20.12H208.85ZM500-461.15Z"/></svg>