<svg xmlns="http://www.w3.org/2000/svg" width="450px" height="300px" viewBox="0 0 450 300">
  <path fill="#002395" d="M0,0h450v300H0V0z" />
  <path fill="#FFFFFF" d="M23.258,19.693L29.656,0h20.705l6.398,19.693l-16.75-12.17L23.258,19.693z M77.506,45.022l16.75,12.171L87.858,37.5l16.75-12.17H83.904L77.506,5.636l-6.398,19.693H50.403l16.75,12.17l-6.398,19.693L77.506,45.022z M115.002,82.522l16.75,12.171L125.354,75l16.75-12.17h-20.705l-6.398-19.693l-6.398,19.693H87.9L104.65,75l-6.398,19.693L115.002,82.522z M152.499,120.022l16.75,12.171l-6.398-19.693l16.75-12.17h-20.705l-6.398-19.693L146.1,100.33h-20.705l16.75,12.17l-6.398,19.693L152.499,120.022z M189.997,157.522l16.75,12.171L200.349,150l16.75-12.17h-20.705l-6.398-19.693l-6.398,19.693h-20.705l16.75,12.17l-6.398,19.693L189.997,157.522z M227.494,195.022l16.75,12.171l-6.398-19.693l16.75-12.17h-20.705l-6.398-19.693l-6.398,19.693H200.39l16.75,12.17l-6.398,19.693L227.494,195.022z M264.99,232.522l16.75,12.171L275.342,225l16.75-12.17h-20.705l-6.398-19.693l-6.398,19.693h-20.705l16.75,12.17l-6.398,19.693L264.99,232.522z M302.487,270.022l16.75,12.171l-6.398-19.693l16.75-12.17h-20.705l-6.398-19.693l-6.398,19.693h-20.705l16.75,12.17l-6.398,19.693L302.487,270.022z M350.336,300l16.75-12.17h-20.705l-6.398-19.693l-6.398,19.693H312.88L329.63,300H350.336z" />
  <path fill="#FECB00" d="M393.99,300L93.99,0h300V300z" />
</svg>
