<svg xmlns="http://www.w3.org/2000/svg" width="450px" height="300px" viewBox="0 0 450 300">
  <path fill="#C62139" d="M0,0h450v300H0V0z" />
  <path fill="#00297B" d="M5.769,5.769h438.462v288.461H5.769V5.769z" />
  <g>
    <path fill="#92DBFC" d="M225.14,84.589c0,0-43.747,31.875-43.747,64.987c0,33.116,43.747,65.835,43.747,65.835s43.467-30.337,43.467-65.835C268.607,114.082,225.14,84.589,225.14,84.589L225.14,84.589z" />
    <path fill="#008CE7" d="M186.233,169.787c11.385,25.04,38.907,45.624,38.907,45.624s28.011-19.55,39.061-45.626" />
    <path fill="#CCCCCC" d="M264.353,162.56c-6.745,4.419-44.695,2.297-44.695,2.297l-2.122,4.947l45.187,0.128c0.188-0.679,0.64-1.485,0.797-2.171L264.353,162.56z" />
    <path fill="#FFDE52" d="M196.449,183.036c1.922,0.057,3.836,0.429,5.555,1.273c3.073,1.477,4.854,1.466,8.166,1.512c3.466,0.049,6.187,2.385,9.933,2.482c6.902,0.177,9.803,3.316,4.437,3.314c-2.535-0.002-7.968-1.561-10.595-1.233c-3.993,0.371-6.3,0.65-9.255,2.801C201.875,190.09,199.06,186.685,196.449,183.036L196.449,183.036z M210.102,198.792c1.712-1.072,2.89-1.91,4.55-1.956c3.227-0.091,4.328-1.919,8.058-1.917c4.239,0.712,9.984-0.466,13.347-1.149c5.97-1.26,3.138-5.084-0.476-6.472c-2.921-1.145-8.396-0.057-11.792-1.194c-2.571-0.92-0.451-2.385,0.932-2.697c1.395-0.234,2.892,0.188,4.628,0.447c3.1,0.25,6.993-0.016,9.716-0.402c5.627-0.789,5.395-2.301,8.111-2.337c1.982-0.084,3.491-0.623,4.842-1.508c1.588-0.97,3.242-2.962,5.163-2.882l1.13,0.044c-11.867,21.022-33.18,34.822-33.18,34.822S218.244,206.764,210.102,198.792L210.102,198.792z" />
    <path fill="#8C4200" stroke="#000000" stroke-width="0.0942" d="M237.382,183.394c0.736,2.608,1.516,3.495,4.509,4.165c2.955,0.67,7.469-1.961,4.671-4.514c-2.663-2.374-5.468-2.982-7.853-5.12c-3.701-3.36-8.777-10.305-11.189-16.873c-2.638-7.18-2.18-27.393-2.062-37.632c0.002-0.119,0.321-0.19,0.357-0.239c0.171-0.225,0.336,0.073,0.068-1.428c-0.07-0.385-0.403-0.783-0.401-1.172c0.002-0.694-2.617,0.758-3.307,1.996c-0.157,0.283,0.502,1.09,0.502,1.249c0.089,9.823-1.065,29.218,1.784,37.999c1.762,5.436,4.978,9.633,7.889,13.517C234.097,177.832,236.622,180.518,237.382,183.394L237.382,183.394z" />
    <path fill="#109421" stroke="#000000" stroke-width="0.0942" d="M197.95,120.518c0.186,0.234,0.159,1.245,0.159,1.245c0.152,0.084,2.619-1.923,2.619-1.833c0.002,0.422,0.058,1.293,0.058,1.293s2.554-2.224,2.66-1.989c0.118,0.263-0.01,1.552-0.01,1.552s1.699-1.715,2.011-2.025c0.225-0.221,0.188,0.279,0.21,1.085c0.005,0.144,2.786-1.879,2.955-1.914c0.36-0.071,0.471,1.05,0.451,1.331c-0.014,0.208,2.566-1.348,2.453-1.143l0.191,1.196c0.719-0.091,2.433-0.676,3.464-0.524c0.331,0.049,0.314,0.201,0.019,0.312c-4.968,1.841-8.789,4.618-11.015,8.486c-0.758,1.317-0.99,2.467-0.789,2.756c0,0,0.893-1.76,1.9-2.036c0.135-0.035,0.225,1.127,0.362,1.061c0,0,0.763-1.764,1.313-2.414c0.147-0.175,0.393,0.926,0.55,0.763c0,0,0.396-1.18,1.171-2.003c0.111-0.117,0.311,1.116,0.435,1.012c0.804-0.679,1.559-2.381,1.861-2.507c0.21-0.15,0.246,1.415,0.447,1.28c0,0,1.147-2.109,1.832-2.491c0.439-0.248,0.422,1.152,0.422,1.152c0.874-0.789,1.837-2.098,2.293-2.666c0.21-0.261,0.094,1.724,0.319,1.802c0.287,0.102,2.17-1.521,2.383-1.554c0.14-0.022,0.304,0.462-0.063,0.851c-0.029,0.031-2.327,2.458-2.327,2.458c0.447,0.077,0.62-0.038,0.941,0.04c0.954,0.23-1.786,1.669-1.74,1.939c0,0,1.32-0.022,0.879,0.212c-0.319,0.17-2.064,2.228-2.064,2.155c0-0.038,0.876,0.018,0.871,0.248c-0.007,0.427-1.451,2.626-1.465,2.613c-0.08-0.073,0.775-0.095,0.891,0.122c0.212,0.4-1.482,2.18-1.151,2.482c0.046,0.042,0.968,0.013,1.378,0.097c0.198,0.04,0.753,3.232,0.613,3.104c-0.031-0.031,0.594-2.993,0.973-3.895c0.232-0.546,0.973,0.825,1.033,0.703c-0.031,0-0.15-1.947-0.046-2.834c0.029-0.248,0.562,0.259,0.555,0.022c-0.019-0.537-0.068-1.112,0.053-1.636c0.092-0.396,0.546,0.714,0.722,0.416c0,0-0.55-1.928-0.321-2.471c0.152-0.358,0.519,0.867,0.76,0.915c0,0-0.135-1.499,0.118-1.886l0.765,0.752c0.167-0.241,0.135-2.575,0.29-2.794c0.128-0.183,0.922,0.875,1.04,0.71c0.106-0.15-0.336-1.883-0.237-2.02c0.14-0.197,1.011,0.482,1.028,0.469c0.355-0.327,0.343-1.143,0.492-1.446c0.401-0.82,2.699-0.926,2.969-0.343c0.133,0.283,0.041,0.648-0.012,1.088c0.022,0.018,1.151,0.093,1.161,0.013c0,0-0.135,0.966-0.056,2.029c0.012,0.141,1.147-0.035,1.161,0.106c0.104,1.001-0.147,1.094-0.147,1.094c0.01,0.073,0.765-0.106,0.777-0.029c0.082,0.489-0.089,1.083-0.427,1.656c-0.051,0.082,1.081-0.08,1.098,0.015c0.138,0.752,0.164,1.348,0.022,2.409c-0.012,0.086,1.108-0.749,1.125-0.663c0.169,0.893-0.027,1.857,0.075,2.781c0.024,0.214,0.741-0.639,0.806-0.391c0.065,0.243-0.159,2.012-0.051,2.111c0,0,1.2-0.055,1.306,0.038c0.951,0.818,0.77,2.246,0.77,2.246c0.261-0.177,0.162-1.897-0.101-3.47c-0.029-0.166,0.922-0.102,0.893-0.256c0,0-1.043-0.575-1.386-2.175c-0.072-0.343,1.007-0.272,1.007-0.272c-0.299-0.63-0.826-0.749-1.272-1.355c-0.145-0.199,1.12-0.29,1.12-0.347c0.002-0.603-1.067-0.891-1.62-1.519c-0.237-0.267,1.154-0.281,1.154-0.281c-0.408-0.519-1.753-0.747-2.438-1.435c-0.374-0.374,1.364-0.741,1.342-0.805c-0.191-0.55-1.825-0.723-2.617-1.344c-0.164-0.128,1.033-0.561,1.033-0.561c-0.121-0.234-2.73-1.806-1.403-1.662c0.56,0.062,1.697,0.791,1.786,0.681c0,0-0.048-0.917,0.068-1.028c0.437-0.416,1.943,1.764,2.455,1.676c0,0,0.188-1.561,0.42-1.603c0.55-0.095,1.221,2.272,1.765,2.272c0.072,0,0.113-1.368,0.393-1.443c0.316-0.084,0.671,1.534,1.072,1.892c0.372,0.329,0.377-1.264,0.594-0.962c0.369,0.489,0.459,1.508,0.963,1.956c0.328,0.292,0.389-1.406,0.753-1.178c0.422,0.263,0.323,1.143,0.799,1.576c0.227,0.206,0.379-1.121,0.637-0.926c0.229,0.17,0.384,1.793,0.63,2.049c0.314,0.327,0.676-0.855,1.002-0.668c0.234,0.137,0.179,1.541,0.396,1.841c0.444,0.623,0.676-0.754,0.97-0.542c0.205,0.144,0.649,1.757,0.835,1.886c0.413,0.287,0.64-0.734,0.954-0.59c0.227,0.102,0.686,2.18,0.874,2.126c0.123-0.035,0.427-4.735-1.547-6.718c-3.218-3.232-8.98-5.097-13.682-5.144c0,0,2.363-0.431,2.426-0.789c0.126-0.714,1.299-0.63,2.117-0.466c0.145,0.029,0.068-1.262,0.087-1.269c0.731-0.015,1.386,0.38,2.086,0.769c0.217,0.122-0.442-1.293-0.21-1.172c0.898,0.475,1.897,0.615,2.503,1.191c0.159,0.153-0.183-1.09-0.183-1.09c0.449-0.099,1.335,0.493,1.683,1.048c0.169,0.274-0.01-1.448,0.123-1.143c0,0,1.564,0.486,1.733,1.09c0,0,0.128-1.092,0.338-1.035c0.628,0.15,1.178,1.121,1.668,1.26c0,0-0.203-0.973-0.043-0.935c1.178,0.272,2.457,0.939,2.455,0.935c-0.664-1.521-3.182-3.115-7.611-3.541c-0.814-0.077-4.113-0.201-6.911,0.393c-2.293,0.486-4.104,0.763-3.732,0.431c1.516-1.359,3.966-1.525,4.64-1.841c0.483-0.225-1.625-0.97-1.207-1.077c0.415-0.091,2.298-0.234,2.298-0.234c0.408-0.292-1.369-0.862-1.103-1.287c0.531-0.851,3.672-0.077,3.94-0.4c0.087-0.108-1.349-0.886-1.289-1.001c0.229-0.431,3.025,0.318,3.09-0.057c0,0-0.847-0.579-1.451-1.054c-0.072-0.057,2.496-0.69,2.496-0.69c-0.048-0.044-0.439-0.296-1.028-0.506c-0.538-0.192,2.255-0.858,2.255-0.858c-3.539-1.481-12.724,2.732-14.547,7.105c-0.473,1.043-0.488-0.091-0.389-0.975c0.094-0.951,0.224-1.784,0.113-2.657c-0.034-0.259-0.751,0.687-0.799,0.435c-0.183-0.928,0.36-1.947,0.111-2.978c-0.082-0.347-1.033,1.023-1.159,0.676c-0.348-0.953,0.261-2.292,0.014-3.605c-0.097-0.513-0.997,1.099-1.299,0.639c-0.352-0.533-0.198-2.507-0.365-2.805c-0.135-0.239-0.937,0.946-1.004,0.723c-1.086-3.619,0.357-4.07-1.728-2.029c-0.072,0.071-0.536-2.14-0.616-2.065c-0.855,1.676-2.255-1.194-2.733-0.926c-0.357,0.203,0.975,1.313,0.99,1.813c0.007,0.241-1.226,0.256-1.226,0.256c0.027,0.413,2.346,1.572,2.421,2.025c0.06,0.374-1.641,0.281-1.641,0.281c0.053,0.506,1.987,0.988,2.093,1.525c0.06,0.296-0.905,0.363-0.874,0.663c0.051,0.462,1.868,1.375,1.929,1.846c0.041,0.327-1.161,0.462-1.19,0.767c-0.036,0.369,2.414,1.607,2.416,1.954c0.002,0.491-0.975,0.239-1.419,0.486c-0.625,0.347,2.006,1.753,2.117,2.153c0.087,0.351-1.052,0.042-1.091,0.363c-0.048,0.42,1.289,1.054,1.596,1.775c0.307,0.712-0.007,0.893-0.447,0.61c-0.881-0.568-4.434-4.025-5.378-4.947c-1.371-1.34-4.179-2.84-6.979-2.929c-0.292,0.082,1.506,1.247,1.518,1.669c0.002,0.108-0.809,0.27-0.772,0.303c0.497,0.455,2.045,0.997,2.045,0.997l-0.444,0.732c0.104,0.214,0.838,0.272,2.013,0.626c0,0-0.881,0.5-0.816,0.546c0.623,0.455,1.83,0.791,1.83,0.791l-1.188,0.365c-0.07,0.21,2.672,1.216,2.672,1.216s-0.857,0.676-0.818,0.712c0.21,0.192,2.226,0.619,2.226,0.619c0.034,0.031-1.424,0.447-1.415,0.455c0.529,0.484,1.987,0.641,2.327,1.441c0,0,0.2,0.455-0.377,0.369c-2.269-0.754-5.784-2.314-12.598-1.702c-6.967,0.831-12.275,6.377-12.183,6.93C195.196,121.823,197.687,120.187,197.95,120.518L197.95,120.518z" />
    <path fill="#8C4200" stroke="#000000" stroke-width="0.0901" stroke-linecap="round" stroke-linejoin="round" d="M222.874,118.823c0.91,0,1.647,0.738,1.647,1.647s-0.738,1.647-1.647,1.647c-0.91,0-1.647-0.738-1.647-1.647S221.964,118.823,222.874,118.823z" />
    <path fill="#8C4200" stroke="#000000" stroke-width="0.0901" stroke-linecap="round" stroke-linejoin="round" d="M222.718,121.527c0.91,0,1.647,0.738,1.647,1.647c0,0.91-0.738,1.647-1.647,1.647c-0.91,0-1.647-0.738-1.647-1.647C221.071,122.264,221.809,121.527,222.718,121.527z" />
    <path fill="#8C4200" stroke="#000000" stroke-width="0.0901" stroke-linecap="round" stroke-linejoin="round" d="M224.988,118.201c0.91,0,1.647,0.738,1.647,1.647c0,0.91-0.738,1.647-1.647,1.647c-0.91,0-1.647-0.738-1.647-1.647C223.34,118.938,224.078,118.201,224.988,118.201z" />
    <path fill="#8C4200" stroke="#000000" stroke-width="0.0901" stroke-linecap="round" stroke-linejoin="round" d="M225.236,120.501c0.91,0,1.647,0.738,1.647,1.647s-0.738,1.647-1.647,1.647c-0.91,0-1.647-0.738-1.647-1.647S224.326,120.501,225.236,120.501z" />
    <path fill="#8C4200" d="M212.743,160.866c0.161-0.22,0.322-0.126,0.484,0l0.35,16.069h-1.163L212.743,160.866z" />
    <path fill="#8C4200" d="M198.747,176.393c0,0,14.573,1.017,23.51-0.741c0,0,0.751,0.466-0.328,1.62c-1.079,1.152-3.809,1.399-5.308,1.647c0,0-0.36,0.741-0.331,1.125c0.031,0.385,0.946,0.345,1.395,0.261l0.449-0.082c0,0-0.21,1.441-5.726,1.634c-1.81,0.064-7.78,0.179-9.043-1.441c0,0,1.094,0.082,1.378,0s0.077-1.125-0.029-1.278c-0.104-0.15-3.87,0-5.847-1.676c-0.49-0.477-0.724-0.986-0.724-1.167C198.143,176.281,198.747,176.393,198.747,176.393z M206.341,179.194c0,0,3.988,0.466,8.577,0c0,0,0.121,0.796-0.089,1.099c-0.21,0.303-5.504,0.535-8.174,0.111C206.225,180.277,206.211,179.795,206.341,179.194z" />
    <path fill="#FDF9FF" d="M201.39,175.304c0,0,4.616-5.793,3.136-15.812c7.136,3.971,13.197,9.954,14.846,15.514C212.899,173.508,207.185,174.542,201.39,175.304L201.39,175.304z" />
    <path fill="#C62139" d="M225.148,80.769L225.148,80.769c0,0-46.302,31.564-46.302,68.782c0,37.223,46.302,69.679,46.302,69.679s46.005-29.78,46.005-69.679C271.154,109.654,225.148,80.769,225.148,80.769z M225.131,211.591c0,0-41.192-28.876-41.192-61.991c0-33.111,41.192-61.191,41.192-61.191s40.929,25.697,40.929,61.191C266.06,185.098,225.131,211.591,225.131,211.591z" />
    <path fill="#BD0728" d="M209.469,152.831c0.119-0.01,0.056,0.025,0.071,0.203c-1.673,1.06-4.222,1.563-6.317,0.963c-2.552-0.712-3.524-3.958-2.504-6.233c1.198-2.751,4.797-3.12,7.213-1.858c0.323,0.139,0.4,0.257,0.583,0.017c0,0,0.171,0.068,0.171,0.068l-0.925,2.23l-0.171-0.118c0.155-0.428-0.469-0.559-0.825-0.709c-1.433-0.501-3.482-0.454-4.112,1.216c-1.109,3.058,1.967,4.523,4.51,3.479c0,0,0-1.115,0-1.115l-1.835,0c-0.177,0.007-0.189,0.174-0.213,0.338c0,0-0.171,0-0.171,0v-2.365h0.171c0.019,0.203,0.09,0.304,0.213,0.304h4.197c0,0,0,0.203,0,0.203c-0.152,0.011-0.228,0.107-0.228,0.287c0,0,0,2.804,0,2.804C209.307,152.68,209.298,152.831,209.469,152.831z M218.198,145.418c0.268,0.043,0.356,0.087,0.375,0.307c0,0,0,4.578,0,4.578c0,0.66-0.147,1.133-0.442,1.418c-1.11,0.93-3.147,0.352-2.934-1.418c0,0,0-4.578,0-4.578c0.008-0.23,0.109-0.263,0.375-0.308c0,0,0-0.205,0-0.205h-2.76v0.205c0.267,0.043,0.357,0.087,0.375,0.307c0,0,0,4.578,0,4.578c-0.031,1.713,0.592,3.314,2.251,3.775c6.291,1.237,5.039-4.2,5.145-8.353c0.008-0.23,0.11-0.263,0.375-0.307c0,0,0-0.205,0-0.205h-2.76V145.418z M236.343,153.94c0.061,0.069,0.137,0.103,0.229,0.103c0,0,0,0.206,0,0.206h-3.004v-0.206c0.193-0.011,0.29-0.08,0.29-0.206c-0.13-0.426-0.414-1.115-0.518-1.546c0,0-3.614,0-3.614,0c-0.102,0.309-0.183,0.561-0.244,0.756c-0.051,0.354-0.543,1.026,0.03,0.996c0,0,0,0.206,0,0.206h-2.699c0,0,0-0.206,0-0.206c0.112-0.023,0.193-0.057,0.244-0.103c0.972-2.476,1.879-5.458,2.745-7.988c0.172-0.431,0.17-0.465-0.183-0.533c0,0,0-0.206,0-0.206h3.98v0.206c-0.404,0.063-0.282,0.207-0.137,0.67C234.358,148.557,235.311,151.507,236.343,153.94z M232.942,150.917l-1.479-4.089l-1.357,4.089H232.942z M249.684,145.607c0.049-0.057,0.166-0.097,0.352-0.12v-0.206h-3.976v0.206c0.787,0.071,0.005,1.077-0.132,1.598c-0.297,0.75-0.684,1.608-0.983,2.405c-0.228-0.565-0.515-1.338-0.763-1.958c-0.18-0.494-0.384-1.019-0.528-1.46c-0.152-0.369-0.116-0.537,0.264-0.584c0,0,0-0.206,0-0.206h-3.829v0.206c0.285,0.044,0.388,0.079,0.411,0.309c0,0,0,8.006,0,8.006c-0.017,0.237-0.115,0.269-0.411,0.309c0,0,0,0.206,0,0.206h2.582v-0.206c-0.295-0.043-0.404-0.06-0.411-0.309c0,0,0-6.425,0-6.425c0.064-0.054,2.582,6.734,2.612,6.734c0.027,0.015,2.592-6.802,2.641-6.631c0,0,0,6.322,0,6.322c0,0.08-0.024,0.149-0.073,0.206c-0.039,0.046-0.152,0.08-0.337,0.103l0,0.206h2.934v-0.206c-0.295-0.043-0.404-0.06-0.411-0.309c0,0,0-8.006,0-8.006C249.626,145.715,249.645,145.652,249.684,145.607z" />
  </g>
</svg>
