<svg xmlns="http://www.w3.org/2000/svg" width="450px" height="300px" viewBox="0 0 450 300">
  <path fill="#C60B1E" d="M0,0h450v300H0V0z" />
  <path fill="#FFC400" d="M0,75h450v150H0V75z" />
  <g>
    <g>
      <g>
        <path fill="#AD1519" stroke="#000000" stroke-width="0.156" stroke-linejoin="round" d="M100.8,133.3c0,0-0.3,0-0.5-0.1s-0.7-0.6-0.7-0.6l-0.4-0.3l-0.4-0.5c0,0-0.4-0.7-0.2-1.2c0.2-0.6,0.6-0.7,0.8-0.9c0.3-0.2,0.9-0.4,0.9-0.4s0.5-0.2,0.7-0.2s0.8-0.2,0.8-0.2s0.2-0.1,0.3-0.2c0.2-0.1,0.4-0.1,0.6-0.1c0.1,0,0.5-0.1,0.7-0.2c0.3,0,0.8,0.1,1,0.1s0.7,0,1,0c0.2,0,1.1-0.1,1.3-0.1c0.2,0,0.4,0,0.7,0c0.3,0,0.7,0.2,0.9,0.3c0.1,0.1,0.9,0.4,1.2,0.4c0.3,0.1,1.1,0.2,1.4,0.4s0.6,0.4,0.7,0.7c0.2,0.2,0.2,0.5,0.3,0.6s0.1,0.5,0,0.7s-0.3,0.5-0.3,0.5l-0.4,0.6l-0.5,0.4c0,0-0.3,0.3-0.6,0.3c-0.3,0-3-0.5-4.8-0.5S100.8,133.3,100.8,133.3L100.8,133.3L100.8,133.3z" />
        <path fill="#C8B100" stroke="#000000" stroke-width="0.156" d="M105.4,127.9c0.442,0,0.8,0.672,0.8,1.5s-0.358,1.5-0.8,1.5s-0.8-0.672-0.8-1.5S104.958,127.9,105.4,127.9z" />
        <path fill="#C8B100" stroke="#000000" stroke-width="0.156" d="M105.4,128c0.221,0,0.4,0.627,0.4,1.4s-0.179,1.4-0.4,1.4s-0.4-0.627-0.4-1.4S105.179,128,105.4,128z" />
        <path fill="#C8B100" stroke="#000000" stroke-width="0.156" d="M105.4,127.3c0.331,0,0.6,0.224,0.6,0.5c0,0.276-0.269,0.5-0.6,0.5s-0.6-0.224-0.6-0.5C104.8,127.524,105.069,127.3,105.4,127.3z" />
        <path fill="#C8B100" stroke="#000000" stroke-width="0.18" d="M106.2,127.6v0.3h-1.5v-0.3h0.6v-0.8h-0.4v-0.3h0.4v-0.3h0.4v0.3h0.4v0.3h-0.4v0.8H106.2" />
        <path fill="#C8B100" stroke="#000000" stroke-width="0.156" d="M105.4,133.2h-2.9l-0.1-0.7l-0.1-0.7l-0.1-0.9c-0.8-1.1-1.5-1.7-1.8-1.6c0.1-0.2,0.1-0.3,0.3-0.4c0.7-0.4,2.2,0.6,3.3,2.2c0.1,0.1,0.2,0.3,0.3,0.4h2.4c0.1-0.1,0.2-0.3,0.3-0.4c1.1-1.7,2.6-2.7,3.3-2.2c0.2,0.1,0.2,0.2,0.3,0.4c-0.2-0.1-1,0.5-1.8,1.6l-0.1,0.9l-0.1,0.7l-0.1,0.7H105.4L105.4,133.2z" />
        <path fill="none" stroke="#000000" stroke-width="0.156" d="M100.5,129.3c0.6-0.3,1.8,0.7,2.8,2.2 M110.3,129.3c-0.6-0.3-1.8,0.7-2.8,2.2" />
        <path fill="#C8B100" stroke="#000000" stroke-width="0.156" d="M101.2,134.6c-0.1-0.3-0.3-0.6-0.3-0.6c1.2-0.3,2.8-0.6,4.6-0.6c1.8,0,3.4,0.2,4.6,0.6c0,0-0.1,0.2-0.3,0.6c-0.1,0.2-0.2,0.5-0.2,0.5c-1.1-0.3-2.4-0.5-4.1-0.5s-3.3,0.2-4.1,0.5C101.3,135,101.2,134.8,101.2,134.6L101.2,134.6 M110.1,133.2l-0.3-0.3c0,0-0.3,0.2-0.8,0.1c-0.4-0.1-0.6-0.6-0.6-0.6s-0.5,0.4-0.9,0.4s-0.6-0.4-0.6-0.4s-0.4,0.3-0.8,0.3s-0.7-0.5-0.7-0.5s-0.4,0.5-0.8,0.5s-0.7-0.3-0.7-0.3s-0.2,0.4-0.6,0.4c-0.5,0.1-0.9-0.4-0.9-0.4s-0.3,0.4-0.6,0.6s-0.7-0.2-0.7-0.2s-0.1,0.2-0.1,0.3c-0.1,0.1-0.2,0.1-0.2,0.1l0.1,0.3c1.2-0.3,2.7-0.6,4.5-0.6s3.4,0.2,4.6,0.6L110.1,133.2L110.1,133.2L110.1,133.2z" />
        <path fill="#C8B100" stroke="#000000" stroke-width="0.156" d="M105.4,136c1.5,0,3.1-0.2,3.7-0.4c0.4-0.1,0.6-0.3,0.6-0.5c0-0.1-0.1-0.2-0.2-0.2c-0.9-0.3-2.4-0.5-4-0.5s-3.2,0.2-4,0.5c-0.1,0.1-0.2,0.1-0.2,0.2c0,0.2,0.2,0.4,0.6,0.5C102.3,135.8,103.9,136,105.4,136z M105.4,133.3c-1.8,0-3.4,0.2-4.6,0.6c-0.1,0-0.2,0-0.2-0.1s0-0.2,0.1-0.2c1.2-0.4,2.8-0.6,4.7-0.6c1.8,0,3.5,0.2,4.7,0.6c0.1,0,0.1,0.1,0.1,0.2c0,0.1-0.1,0.1-0.2,0.1C108.8,133.6,107.2,133.3,105.4,133.3z M99.3,132.4c0,0,0,0.1-0.1,0.2c0,0-0.2-0.3-0.4-0.4c-0.1-0.1-0.4-0.2-0.4-0.2c0-0.1,0.2-0.2,0.3-0.2c0.1,0,0.2,0,0.3,0.1v-0.1c0,0,0.1,0,0.2,0.2C99.4,132.2,99.3,132.4,99.3,132.4z M105.3,131.6h0.2l0.8,0.2l0.2-0.3l-0.2-0.4l-0.8,0.2l0.4-0.8l-0.5-0.3l-0.5,0.3l0.4,0.8l-0.7-0.2l-0.2,0.4l0.2,0.3L105.3,131.6z M111.9,131.8c-0.1,0-0.2,0-0.3,0.1v-0.1c0,0-0.1,0-0.2,0.2s0,0.4,0,0.4s0,0.1,0.1,0.2c0,0,0.2-0.3,0.4-0.4c0.1-0.1,0.4-0.2,0.4-0.2C112.2,131.9,112.1,131.8,111.9,131.8z M111.3,132.4l-0.1,0.3c0,0-0.3,0.5-0.6,0.7c-0.2,0.1-0.4,0.2-0.6,0.1c-0.2,0-0.3-0.2-0.4-0.4c-0.1,0.1-0.3,0.1-0.5,0.1c-0.4,0-0.7-0.2-0.8-0.5c-0.2,0.2-0.4,0.3-0.7,0.3c-0.3,0-0.6-0.1-0.8-0.4c-0.2,0.2-0.4,0.3-0.6,0.3c-0.3,0-0.6-0.2-0.8-0.4c-0.2,0.2-0.5,0.4-0.8,0.4c-0.2,0-0.5-0.1-0.7-0.3c-0.2,0.2-0.4,0.4-0.8,0.4c-0.3,0-0.5-0.1-0.7-0.3c-0.1,0.3-0.5,0.5-0.9,0.5c-0.2,0-0.3,0-0.5-0.1c-0.1,0.2-0.2,0.3-0.4,0.4c-0.2,0-0.4-0.1-0.6-0.1c-0.3-0.2-0.6-0.7-0.6-0.7v-0.1h-0.1l-0.1-0.1v-0.1l0.6-0.5l0.4,0.2l-0.1,0.4l-0.5,0.1c0.1,0.1,0.2,0.2,0.4,0.3c0.3,0.2,0.5,0.2,0.5,0.2c0.2,0,0.3-0.2,0.3-0.4v-0.2l0.1,0.2c0.1,0.2,0.3,0.3,0.5,0.3c0.3,0,0.6-0.3,0.6-0.6c0-0.1,0-0.2-0.1-0.3V132l-0.7,0.4l-0.3-0.3l0.2-0.4l0.8,0.1l-0.5-0.6l0.4-0.4l0.5,0.2l-0.2,0.8l0.7-0.4l0.3,0.3l-0.2,0.4l-0.8-0.1c0,0,0.1,0.1,0.1,0.2c0,0.4,0.3,0.6,0.7,0.6c0.3,0,0.6-0.2,0.7-0.5h0.1c0.1,0.2,0.3,0.4,0.6,0.4c0.4,0,0.7-0.3,0.7-0.6c0-0.1,0-0.2,0-0.2h0.3c0,0.1,0,0.1,0,0.2c0,0.3,0.3,0.6,0.7,0.6c0.3,0,0.5-0.2,0.6-0.4h0.1c0,0.3,0.3,0.5,0.7,0.5c0.4,0,0.7-0.3,0.7-0.6l0.1-0.2l-0.8,0.1l-0.2-0.4l0.3-0.3l0.7,0.4L108,131l0.5-0.2l0.4,0.4l-0.5,0.6l0.8-0.1l0.1,0.4l-0.3,0.3l-0.7-0.4v0.1c0,0.1-0.1,0.2-0.1,0.3c0,0.3,0.3,0.6,0.6,0.6c0.2,0,0.4-0.1,0.5-0.3h0.1c0,0.2,0.1,0.4,0.3,0.4c0,0,0.2,0,0.5-0.2c0.1-0.1,0.3-0.2,0.3-0.3l-0.7-0.1l-0.1-0.4l0.4-0.2L111.3,132.4z" />
        <path fill="#C8B100" stroke="#000000" stroke-width="0.156" d="M99.3,132.4c0.1-0.1,0.2-0.1,0.3,0c0.1,0.1,0.1,0.2,0.1,0.3c-0.1,0.1-0.2,0.1-0.3,0C99.2,132.7,99.2,132.5,99.3,132.4z M100.8,132.5c0-0.1,0-0.2,0.1-0.2s0.2,0.1,0.2,0.2s0,0.2-0.1,0.2S100.8,132.6,100.8,132.5z M102.3,131.5c0.2,0,0.3,0.1,0.3,0.3s-0.1,0.3-0.3,0.3s-0.3-0.1-0.3-0.3S102.1,131.5,102.3,131.5z M103.7,132c0-0.1,0-0.2,0.1-0.2s0.2,0.1,0.2,0.2c0,0.1,0,0.2-0.1,0.2C103.8,132.2,103.7,132.1,103.7,132z M105.4,131.2c0.2,0,0.3,0.1,0.3,0.3s-0.1,0.3-0.3,0.3s-0.3-0.1-0.3-0.3S105.2,131.2,105.4,131.2z M107.1,132c0-0.1-0.1-0.2-0.1-0.2c-0.1,0-0.2,0.1-0.2,0.2c0,0.1,0,0.2,0.1,0.2S107.1,132.1,107.1,132z M108.5,131.5c0.2,0,0.3,0.1,0.3,0.3s-0.1,0.3-0.3,0.3s-0.3-0.1-0.3-0.3S108.3,131.5,108.5,131.5z M110,132.5c0-0.1,0-0.2-0.1-0.2s-0.2,0.1-0.2,0.2s0,0.2,0.1,0.2S110,132.6,110,132.5z M111.4,132.4c-0.1-0.1-0.2-0.1-0.3,0s-0.1,0.2-0.1,0.3c0.1,0.1,0.2,0.1,0.3,0C111.5,132.7,111.5,132.5,111.4,132.4z" />
        <path fill="#FFFFFF" stroke="#000000" stroke-width="0.156" d="M103.9,133.7c0.1,0,0.3,0.1,0.3,0.2s-0.1,0.2-0.3,0.2s-0.3-0.1-0.3-0.2S103.8,133.7,103.9,133.7z M106.9,133.7c0.1,0,0.3,0.1,0.3,0.2s-0.1,0.2-0.3,0.2s-0.3-0.1-0.3-0.2S106.8,133.7,106.9,133.7z" />
        <path fill="#058E6E" stroke="#000000" stroke-width="0.156" d="M102.1,134.4c-0.1,0-0.2-0.1-0.2-0.2c0-0.1,0.1-0.2,0.2-0.2l0.8-0.1c0.1,0,0.2,0.1,0.2,0.1c0,0.1-0.1,0.2-0.2,0.2L102.1,134.4z M108.7,134.4c0.1,0,0.2-0.1,0.2-0.2c0-0.1-0.1-0.2-0.2-0.2l-0.8-0.1c-0.1,0-0.2,0.1-0.2,0.1c0,0.1,0.1,0.2,0.2,0.2L108.7,134.4z" />
        <path fill="#AD1519" stroke="#000000" stroke-width="0.156" d="M100.8,134.6l0.2-0.3l0.4,0.1l-0.2,0.3L100.8,134.6z M105.4,134.1h-0.6c-0.1,0-0.2-0.1-0.2-0.2c0-0.1,0.1-0.2,0.2-0.2h1.2c0.1,0,0.2,0.1,0.2,0.2c0,0.1-0.1,0.2-0.2,0.2H105.4 M109.9,134.6l-0.2-0.3h-0.4l0.2,0.4L109.9,134.6z M105.4,135.7c-1.5,0-2.8-0.1-3.8-0.4c1-0.3,2.3-0.4,3.8-0.4s2.8,0.2,3.8,0.4C108.2,135.6,106.9,135.7,105.4,135.7z" />
      </g>
      <g>
        <path fill="#AD1519" stroke="#000000" stroke-width="0.162" d="M194.9,132.2c0,0-0.4,0.5-0.8,0.5c-0.3,0.1-0.7-0.3-0.7-0.3s-0.3,0.3-0.6,0.4c-0.4,0.1-0.9-0.4-0.9-0.4s-0.3,0.5-0.6,0.6s-0.7-0.1-0.7-0.1s-0.1,0.2-0.4,0.4c-0.1,0.1-0.3,0-0.3,0l-0.4-0.2l-0.4-0.4l-0.4-0.1l-0.2-0.6c0-0.1-0.1-0.3-0.1-0.3c-0.1-0.4,0.5-0.8,1.4-1c0.5-0.1,0.9-0.1,1.2,0c0.3-0.3,1.1-0.5,1.9-0.5c0.8,0,1.4,0.2,1.8,0.4c0.4-0.3,1-0.4,1.8-0.4c0.9,0,1.6,0.2,1.9,0.5c0.3-0.1,0.7-0.1,1.2,0c0.9,0.2,1.5,0.6,1.4,1c0,0,0,0.2-0.1,0.3c0,0.1-0.2,0.6-0.2,0.6l-0.4,0.1l-0.4,0.4l-0.4,0.2c0,0-0.2,0.1-0.3,0c-0.3-0.1-0.4-0.4-0.4-0.4s-0.4,0.2-0.7,0.1s-0.6-0.6-0.6-0.6s-0.5,0.5-0.9,0.4s-0.6-0.4-0.6-0.4s-0.4,0.4-0.7,0.3C195.4,132.7,194.9,132.2,194.9,132.2L194.9,132.2z" />
        <path fill="#C8B100" stroke="#000000" stroke-width="0.156" d="M194.9,128.5c0.442,0,0.8,0.537,0.8,1.2s-0.358,1.2-0.8,1.2s-0.8-0.537-0.8-1.2S194.458,128.5,194.9,128.5z" />
        <path fill="#C8B100" stroke="#000000" stroke-width="0.156" d="M194.9,128.6c0.221,0,0.4,0.492,0.4,1.1s-0.179,1.1-0.4,1.1s-0.4-0.492-0.4-1.1S194.679,128.6,194.9,128.6z" />
        <path fill="#C8B100" stroke="#000000" stroke-width="0.156" d="M194.9,127.9c0.331,0,0.6,0.224,0.6,0.5s-0.269,0.5-0.6,0.5s-0.6-0.224-0.6-0.5S194.569,127.9,194.9,127.9z" />
        <path fill="#C8B100" stroke="#000000" stroke-width="0.18" d="M195.7,128.2v0.4h-1.5v-0.4h0.6v-0.8h-0.4V127h0.4v-0.3h0.4v0.3h0.4v0.3h-0.4v0.8h0.5V128.2z" />
        <path fill="none" stroke="#000000" stroke-width="0.156" stroke-linecap="round" d="M188.6,132c-0.1-0.2-0.1-0.4-0.1-0.6c0-0.9,0.8-1.7,1.7-1.7c0.3,0,0.6,0.1,0.8,0.2 M191.7,130.8c-0.1-0.2-0.2-0.3-0.2-0.5c0-0.7,0.7-1.2,1.6-1.2c0.4,0,0.7,0.1,1,0.3 M198.1,130.8c0.1-0.2,0.1-0.3,0.1-0.5c0-0.7-0.7-1.2-1.6-1.2c-0.4,0-0.7,0.1-1,0.3 M201.1,132c0.1-0.2,0.1-0.4,0.1-0.6c0-0.9-0.8-1.7-1.7-1.7c-0.3,0-0.6,0.1-0.8,0.2" />
        <path fill="none" stroke="#000000" stroke-width="0.126" d="M188.1,131c0.1,0,0.3,0.1,0.3,0.3s-0.1,0.3-0.3,0.3s-0.3-0.1-0.3-0.3S188,131,188.1,131z M188.2,130c0.1,0,0.3,0.1,0.3,0.3s-0.1,0.3-0.3,0.3s-0.3-0.1-0.3-0.3S188.1,130,188.2,130z M188.9,129.3c0.1,0,0.3,0.1,0.3,0.3s-0.1,0.3-0.3,0.3s-0.3-0.1-0.3-0.3S188.7,129.3,188.9,129.3z M189.7,128.9c0.1,0,0.3,0.1,0.3,0.3s-0.1,0.3-0.3,0.3s-0.3-0.1-0.3-0.3S189.5,128.9,189.7,128.9z M190.5,128.9c0.1,0,0.3,0.1,0.3,0.3s-0.1,0.3-0.3,0.3s-0.3-0.1-0.3-0.3S190.4,128.9,190.5,128.9z M191.2,129.1c0.1,0,0.3,0.1,0.3,0.3s-0.1,0.3-0.3,0.3s-0.3-0.1-0.3-0.3S191.1,129.1,191.2,129.1z M191.9,128.5c0.1,0,0.3,0.1,0.3,0.3s-0.1,0.3-0.3,0.3s-0.3-0.1-0.3-0.3S191.7,128.5,191.9,128.5z M192.7,128.2c0.1,0,0.3,0.1,0.3,0.3s-0.1,0.3-0.3,0.3s-0.3-0.1-0.3-0.3S192.6,128.2,192.7,128.2z M193.6,128.3c0.1,0,0.3,0.1,0.3,0.3s-0.1,0.3-0.3,0.3s-0.3-0.1-0.3-0.3S193.5,128.3,193.6,128.3z M196.2,128.3c0.1,0,0.3,0.1,0.3,0.3s-0.1,0.3-0.3,0.3s-0.3-0.1-0.3-0.3S196,128.3,196.2,128.3z M197,128.2c0.1,0,0.3,0.1,0.3,0.3s-0.1,0.3-0.3,0.3s-0.3-0.1-0.3-0.3S196.9,128.2,197,128.2z M197.9,128.5c0.1,0,0.3,0.1,0.3,0.3s-0.1,0.3-0.3,0.3s-0.3-0.1-0.3-0.3S197.7,128.5,197.9,128.5z M198.6,129.1c0.1,0,0.3,0.1,0.3,0.3s-0.1,0.3-0.3,0.3s-0.3-0.1-0.3-0.3S198.4,129.1,198.6,129.1z M199.2,128.9c0.1,0,0.3,0.1,0.3,0.3s-0.1,0.3-0.3,0.3s-0.3-0.1-0.3-0.3S199.1,128.9,199.2,128.9z M200.1,128.9c0.1,0,0.3,0.1,0.3,0.3s-0.1,0.3-0.3,0.3s-0.3-0.1-0.3-0.3S200,128.9,200.1,128.9z M200.9,129.3c0.1,0,0.3,0.1,0.3,0.3s-0.1,0.3-0.3,0.3s-0.3-0.1-0.3-0.3S200.8,129.3,200.9,129.3z M201.5,130c0.1,0,0.3,0.1,0.3,0.3s-0.1,0.3-0.3,0.3s-0.3-0.1-0.3-0.3S201.4,130,201.5,130z M201.6,131c0.1,0,0.3,0.1,0.3,0.3s-0.1,0.3-0.3,0.3s-0.3-0.1-0.3-0.3S201.5,131,201.6,131z" />
        <path fill="#C8B100" stroke="#000000" stroke-width="0.156" d="M190.6,134.6c-0.1-0.3-0.4-0.6-0.4-0.6c1.2-0.3,2.8-0.6,4.6-0.6s3.4,0.2,4.6,0.6c0,0-0.1,0.2-0.3,0.6c-0.1,0.2-0.2,0.5-0.2,0.5c-1.1-0.3-2.4-0.5-4.1-0.5c-1.7,0-3.3,0.2-4.1,0.5C190.8,135,190.7,134.8,190.6,134.6L190.6,134.6 M199.6,133.2l-0.4-0.3c0,0-0.3,0.2-0.8,0.1c-0.4-0.1-0.6-0.6-0.6-0.6s-0.5,0.4-0.9,0.4s-0.6-0.4-0.6-0.4s-0.4,0.3-0.8,0.3c-0.4,0-0.7-0.5-0.7-0.5s-0.4,0.5-0.8,0.5c-0.4,0-0.7-0.3-0.7-0.3s-0.2,0.4-0.6,0.4c-0.5,0.1-0.9-0.4-0.9-0.4s-0.3,0.4-0.6,0.6c-0.3,0.1-0.7-0.2-0.7-0.2s-0.1,0.2-0.1,0.3c-0.1,0.1-0.2,0.1-0.2,0.1l0.1,0.3c1.2-0.3,2.7-0.6,4.5-0.6s3.4,0.2,4.6,0.6L199.6,133.2L199.6,133.2L199.6,133.2z" />
        <path fill="#C8B100" stroke="#000000" stroke-width="0.156" d="M194.9,136c1.5,0,3.1-0.2,3.7-0.4c0.4-0.1,0.6-0.3,0.6-0.5c0-0.1-0.1-0.2-0.2-0.2c-0.9-0.3-2.4-0.5-4-0.5s-3.2,0.2-4,0.5c-0.1,0.1-0.2,0.1-0.2,0.2c0,0.2,0.2,0.4,0.6,0.5C191.8,135.8,193.4,136,194.9,136z M199.7,133.8c0,0.1-0.1,0.1-0.2,0.1c-1.2-0.3-2.8-0.6-4.6-0.6s-3.4,0.2-4.6,0.6c-0.1,0-0.2,0-0.2-0.1s0-0.2,0.1-0.2c1.2-0.4,2.8-0.6,4.7-0.6c1.8,0,3.5,0.2,4.7,0.6C199.7,133.6,199.7,133.7,199.7,133.8z M188.8,132c0.1,0.2,0,0.4,0,0.4s0,0.1-0.1,0.2c0,0-0.2-0.3-0.4-0.4c-0.1-0.1-0.4-0.2-0.4-0.2c0-0.1,0.2-0.2,0.3-0.2s0.2,0,0.3,0.1v-0.1C188.6,131.8,188.7,131.8,188.8,132z M194,131.9l-0.2-0.3l0.2-0.4l0.7,0.2l-0.4-0.8l0.5-0.3l0.5,0.3l-0.4,0.8l0.8-0.2l0.2,0.4l-0.2,0.3l-0.8-0.2l-0.1-0.1l0,0h-0.1l0,0l0,0l-0.1,0.1L194,131.9z M201.7,132c0,0-0.3,0.1-0.4,0.2c-0.2,0.2-0.4,0.5-0.4,0.4s-0.1-0.2-0.1-0.2s0-0.3,0-0.4c0.1-0.2,0.2-0.2,0.2-0.2v0.1c0.1-0.1,0.2-0.1,0.3-0.1C201.6,131.8,201.7,131.9,201.7,132z M199.8,132.1l0.1,0.4l0.7,0.1c-0.1,0.1-0.2,0.2-0.3,0.3c-0.3,0.2-0.5,0.2-0.5,0.2c-0.2,0-0.3-0.2-0.3-0.4h-0.1c-0.1,0.2-0.3,0.3-0.5,0.3c-0.4,0-0.6-0.3-0.6-0.6c0-0.1,0-0.2,0.1-0.3V132l0.7,0.4l0.3-0.3l-0.1-0.4l-0.8,0.1l0.5-0.6l-0.4-0.4l-0.5,0.2l0.2,0.8l-0.7-0.3l-0.3,0.3l0.2,0.4l0.8-0.1c0,0-0.1,0.1-0.1,0.2c0,0.4-0.3,0.6-0.7,0.6c-0.3,0-0.6-0.2-0.7-0.5h-0.1c-0.1,0.2-0.3,0.4-0.6,0.4c-0.4,0-0.7-0.3-0.7-0.6c0-0.1,0-0.2,0-0.2h-0.3c0,0.1,0,0.2,0,0.2c0,0.3-0.3,0.6-0.7,0.6c-0.3,0-0.6-0.2-0.6-0.4h-0.1c0,0.3-0.3,0.5-0.7,0.5s-0.7-0.3-0.7-0.6c0,0,0,0,0-0.1l-0.1-0.1l0.8,0.1l0.2-0.4l-0.3-0.3l-0.7,0.4l0.2-0.8l-0.5-0.2l-0.4,0.4l0.5,0.6l-0.8-0.1l-0.1,0.4l0.3,0.3l0.7-0.4v0.1c0,0.1,0.1,0.2,0.1,0.3c0,0.3-0.3,0.6-0.6,0.6c-0.2,0-0.4-0.1-0.5-0.3H191c0,0.2-0.1,0.4-0.3,0.4c0,0-0.2,0-0.5-0.2c-0.2-0.1-0.3-0.2-0.4-0.3l0.5-0.1l0.1-0.4L190,132l-0.6,0.5l0.2,0.3c0,0,0.3,0.5,0.6,0.7c0.1,0.1,0.4,0.2,0.6,0.1c0.2,0,0.3-0.2,0.4-0.4c0.1,0.1,0.3,0.1,0.5,0.1c0.4,0,0.7-0.2,0.8-0.5c0.2,0.2,0.4,0.3,0.7,0.3s0.6-0.1,0.8-0.4c0.2,0.2,0.4,0.3,0.6,0.3c0.3,0,0.6-0.2,0.8-0.4c0.2,0.2,0.5,0.4,0.8,0.4c0.2,0,0.5-0.1,0.6-0.3c0.2,0.2,0.5,0.4,0.8,0.4s0.5-0.1,0.7-0.3c0.1,0.3,0.5,0.5,0.8,0.5c0.2,0,0.3,0,0.5-0.1c0.1,0.2,0.2,0.3,0.4,0.4c0.2,0,0.4-0.1,0.6-0.1c0.3-0.2,0.6-0.7,0.6-0.7l0.1-0.3l-0.6-0.5L199.8,132.1z M198,131.8L198,131.8L198,131.8L198,131.8L198,131.8L198,131.8z" />
        <path fill="#C8B100" stroke="#000000" stroke-width="0.156" d="M188.8,132.4c0.1-0.1,0.2-0.1,0.3,0s0.1,0.2,0.1,0.3c-0.1,0.1-0.2,0.1-0.3,0C188.7,132.7,188.7,132.5,188.8,132.4z M190.3,132.5c0-0.1,0-0.2,0.1-0.2s0.2,0.1,0.2,0.2c0,0.1,0,0.2-0.1,0.2S190.4,132.6,190.3,132.5z M191.8,131.5c0.2,0,0.3,0.1,0.3,0.3s-0.1,0.3-0.3,0.3s-0.3-0.1-0.3-0.3S191.6,131.5,191.8,131.5z M193.2,132c0-0.1,0-0.2,0.1-0.2s0.2,0.1,0.2,0.2c0,0.1,0,0.2-0.1,0.2C193.3,132.2,193.2,132.1,193.2,132z M194.9,131.2c0.2,0,0.3,0.1,0.3,0.3s-0.1,0.3-0.3,0.3s-0.3-0.1-0.3-0.3S194.7,131.2,194.9,131.2z M196.6,132c0-0.1-0.1-0.2-0.1-0.2s-0.2,0.1-0.2,0.2c0,0.1,0,0.2,0.1,0.2C196.5,132.2,196.6,132.1,196.6,132z M198,131.5c0.2,0,0.3,0.1,0.3,0.3s-0.1,0.3-0.3,0.3s-0.3-0.1-0.3-0.3S197.8,131.5,198,131.5z M199.5,132.5c0-0.1,0-0.2-0.1-0.2s-0.2,0.1-0.2,0.2c0,0.1,0,0.2,0.1,0.2S199.5,132.6,199.5,132.5z M200.9,132.4c-0.1-0.1-0.2-0.1-0.3,0s-0.1,0.2-0.1,0.3c0.1,0.1,0.2,0.1,0.3,0C201,132.7,201,132.5,200.9,132.4z" />
        <path fill="#FFFFFF" stroke="#000000" stroke-width="0.126" d="M191.1,130c0.1,0,0.3,0.1,0.3,0.3s-0.1,0.3-0.3,0.3s-0.3-0.1-0.3-0.3S190.9,130,191.1,130z M198.7,130c0.1,0,0.3,0.1,0.3,0.3s-0.1,0.3-0.3,0.3s-0.3-0.1-0.3-0.3S198.6,130,198.7,130z M193.4,133.7c0.1,0,0.3,0.1,0.3,0.2s-0.1,0.2-0.3,0.2s-0.3-0.1-0.3-0.2S193.3,133.7,193.4,133.7z M196.4,133.7c0.1,0,0.3,0.1,0.3,0.2s-0.1,0.2-0.3,0.2s-0.3-0.1-0.3-0.2S196.3,133.7,196.4,133.7z" />
        <path fill="#058E6E" stroke="#000000" stroke-width="0.156" d="M191.6,134.4c-0.1,0-0.2-0.1-0.2-0.2c0-0.1,0.1-0.2,0.2-0.2l0.8-0.1c0.1,0,0.2,0.1,0.2,0.1c0,0.1-0.1,0.2-0.2,0.2L191.6,134.4z M198.2,134.4c0.1,0,0.2-0.1,0.2-0.2c0-0.1-0.1-0.2-0.2-0.2l-0.8-0.1c-0.1,0-0.2,0.1-0.2,0.1c0,0.1,0.1,0.2,0.2,0.2L198.2,134.4z" />
        <path fill="#AD1519" stroke="#000000" stroke-width="0.156" d="M190.3,134.6l0.2-0.3l0.4,0.1l-0.2,0.3L190.3,134.6z M194.3,134.1c-0.1,0-0.2-0.1-0.2-0.2c0-0.1,0.1-0.2,0.2-0.2h1.2c0.1,0,0.2,0.1,0.2,0.2c0,0.1-0.1,0.2-0.2,0.2H194.3z M199.4,134.6l-0.1-0.3h-0.4l0.2,0.4L199.4,134.6z M194.9,135.7c-1.5,0-2.8-0.1-3.8-0.4c1-0.3,2.3-0.4,3.8-0.4s2.8,0.2,3.8,0.4C197.7,135.6,196.4,135.7,194.9,135.7z" />
      </g>
      <path fill="#CCCCCC" stroke="#000000" stroke-width="0.234" d="M204.3,204.5h-18.7v-5.7h18.7V204.5z M114.8,198.8H96.1v5.7h18.7V198.8z M100.5,191h9.8v-47.8h-9.8V191z M190,191h9.8v-47.8H190V191z" />
      <path fill="#005BBF" stroke="#000000" stroke-width="0.234" d="M114.8,198.4c-0.9,0-1.8-0.2-2.4-0.5s-1.4-0.5-2.3-0.5s-1.7,0.2-2.3,0.5c-0.6,0.3-1.4,0.5-2.3,0.5s-1.8-0.2-2.4-0.5s-1.4-0.5-2.3-0.5s-1.7,0.2-2.3,0.5c-0.6,0.3-1.4,0.5-2.4,0.5v1.4c0.9,0,1.8-0.2,2.4-0.5s1.4-0.5,2.3-0.5s1.7,0.2,2.3,0.5c0.6,0.3,1.4,0.5,2.4,0.5c0.9,0,1.8-0.2,2.3-0.5c0.6-0.3,1.4-0.5,2.3-0.5s1.7,0.2,2.3,0.5c0.6,0.3,1.4,0.5,2.3,0.5L114.8,198.4L114.8,198.4z M114.8,201.3c-0.9,0-1.8-0.2-2.4-0.5s-1.4-0.5-2.3-0.5s-1.7,0.2-2.3,0.5s-1.4,0.5-2.3,0.5s-1.8-0.2-2.4-0.5s-1.4-0.5-2.3-0.5s-1.7,0.2-2.3,0.5c-0.6,0.3-1.4,0.5-2.4,0.5v1.4c0.9,0,1.8-0.2,2.4-0.5s1.4-0.5,2.3-0.5s1.7,0.2,2.3,0.5c0.6,0.3,1.4,0.5,2.4,0.5c0.9,0,1.8-0.2,2.3-0.5c0.6-0.3,1.4-0.5,2.3-0.5s1.7,0.2,2.3,0.5c0.6,0.3,1.4,0.5,2.3,0.5L114.8,201.3z M114.8,205.6c-0.9,0-1.7-0.2-2.3-0.5c-0.6-0.3-1.4-0.5-2.3-0.5s-1.7,0.2-2.3,0.5s-1.4,0.5-2.3,0.5s-1.8-0.2-2.4-0.5s-1.4-0.5-2.3-0.5s-1.7,0.2-2.3,0.5c-0.6,0.3-1.4,0.5-2.4,0.5v-1.4c0.9,0,1.8-0.2,2.4-0.5s1.4-0.5,2.3-0.5s1.7,0.2,2.3,0.5c0.6,0.3,1.4,0.5,2.4,0.5c0.9,0,1.8-0.2,2.3-0.5c0.6-0.3,1.4-0.5,2.3-0.5s1.7,0.2,2.3,0.5c0.6,0.3,1.4,0.5,2.4,0.5L114.8,205.6L114.8,205.6z M204.3,198.4c-0.9,0-1.8-0.2-2.4-0.5c-0.6-0.3-1.4-0.5-2.3-0.5c-0.9,0-1.7,0.2-2.4,0.5c-0.6,0.3-1.4,0.5-2.4,0.5c-0.9,0-1.8-0.2-2.4-0.5c-0.6-0.3-1.4-0.5-2.3-0.5c-0.9,0-1.7,0.2-2.3,0.5s-1.4,0.5-2.4,0.5v1.4c0.9,0,1.8-0.2,2.4-0.5c0.6-0.3,1.4-0.5,2.3-0.5c0.9,0,1.7,0.2,2.3,0.5s1.4,0.5,2.4,0.5c0.9,0,1.8-0.2,2.4-0.5c0.6-0.3,1.4-0.5,2.4-0.5c0.9,0,1.7,0.2,2.3,0.5s1.4,0.5,2.4,0.5V198.4L204.3,198.4z M204.3,201.3c-0.9,0-1.8-0.2-2.4-0.5c-0.6-0.3-1.4-0.5-2.3-0.5c-0.9,0-1.7,0.2-2.4,0.5s-1.4,0.5-2.4,0.5c-0.9,0-1.8-0.2-2.4-0.5c-0.6-0.3-1.4-0.5-2.3-0.5c-0.9,0-1.7,0.2-2.3,0.5s-1.4,0.5-2.4,0.5v1.4c0.9,0,1.8-0.2,2.4-0.5c0.6-0.3,1.4-0.5,2.3-0.5c0.9,0,1.7,0.2,2.3,0.5s1.4,0.5,2.4,0.5c0.9,0,1.8-0.2,2.4-0.5c0.6-0.3,1.4-0.5,2.4-0.5c0.9,0,1.7,0.2,2.3,0.5s1.4,0.5,2.4,0.5V201.3z M204.3,205.6c-0.9,0-1.7-0.2-2.4-0.5c-0.6-0.3-1.4-0.5-2.3-0.5c-0.9,0-1.7,0.2-2.4,0.5s-1.4,0.5-2.4,0.5c-0.9,0-1.8-0.2-2.4-0.5c-0.6-0.3-1.4-0.5-2.3-0.5c-0.9,0-1.7,0.2-2.3,0.5s-1.4,0.5-2.4,0.5v-1.4c0.9,0,1.8-0.2,2.4-0.5c0.6-0.3,1.4-0.5,2.3-0.5c0.9,0,1.7,0.2,2.3,0.5s1.4,0.5,2.4,0.5c0.9,0,1.8-0.2,2.4-0.5c0.6-0.3,1.4-0.5,2.4-0.5c0.9,0,1.7,0.2,2.3,0.5s1.4,0.5,2.4,0.5V205.6L204.3,205.6z" />
      <path fill="none" stroke="#000000" stroke-width="0.234" d="M107.5,143.3V191 M108.6,143.3V191 M197,143.3V191 M198.1,143.3V191"
      />
      <path fill="#C8B100" stroke="#000000" stroke-width="0.234" d="M98.6,197.9h13.7v-3.5H98.6V197.9z M98.8,139.4h13.4v-3.5H98.8V139.4L98.8,139.4z M100.2,192.5c0,0.1,0.1,0.2,0.1,0.4c0,0.9-0.8,1.6-1.7,1.6h13.8c-0.9,0-1.7-0.7-1.7-1.6c0-0.1,0-0.2,0.1-0.4c-0.1,0-0.2,0-0.3,0h-10C100.3,192.5,100.2,192.5,100.2,192.5z M100.4,191.6h10c0.3,0,0.6,0.2,0.6,0.5s-0.3,0.5-0.6,0.5h-10c-0.3,0-0.6-0.2-0.6-0.5S100.1,191.6,100.4,191.6z M100.2,141.8c0.1,0,0.1,0,0.2,0h10c0.1,0,0.2,0,0.3,0.1c-0.3-0.1-0.6-0.4-0.6-0.8s0.3-0.7,0.6-0.8c-0.1,0-0.2,0.1-0.3,0.1h-10c-0.1,0-0.2,0-0.3,0h0.1c0.4,0.1,0.6,0.4,0.6,0.8C100.7,141.3,100.5,141.6,100.2,141.8L100.2,141.8z M100.4,141.7h10c0.3,0,0.6,0.2,0.6,0.5s-0.3,0.5-0.6,0.5h-10c-0.3,0-0.6-0.2-0.6-0.5S100.1,141.7,100.4,141.7z M100.4,139.4h10c0.3,0,0.6,0.2,0.6,0.4s-0.3,0.4-0.6,0.4h-10c-0.3,0-0.6-0.2-0.6-0.4C99.8,139.6,100.1,139.4,100.4,139.4z M188.1,197.9h13.7v-3.5h-13.7V197.9z M188.2,139.4h13.4v-3.5h-13.4V139.4L188.2,139.4z M189.6,192.5c0,0.1,0.1,0.2,0.1,0.4c0,0.9-0.8,1.6-1.7,1.6h13.8c-0.9,0-1.7-0.7-1.7-1.6c0-0.1,0-0.2,0.1-0.4c-0.1,0-0.2,0-0.3,0h-10C189.8,192.5,189.7,192.5,189.6,192.5z M189.9,191.6h10c0.3,0,0.6,0.2,0.6,0.5s-0.3,0.5-0.6,0.5h-10c-0.3,0-0.6-0.2-0.6-0.5C189.3,191.8,189.6,191.6,189.9,191.6z M189.9,141.7h10c0.3,0,0.6,0.2,0.6,0.5s-0.3,0.5-0.6,0.5h-10c-0.3,0-0.6-0.2-0.6-0.5C189.3,141.9,189.6,141.7,189.9,141.7z M189.6,141.8c0.1,0,0.1,0,0.2,0h10c0.1,0,0.2,0,0.3,0.1c-0.4-0.1-0.6-0.4-0.6-0.8s0.3-0.7,0.6-0.8c-0.1,0-0.2,0.1-0.3,0.1h-10c-0.1,0-0.2,0-0.3,0h0.1c0.4,0.1,0.6,0.4,0.6,0.8C190.2,141.3,190,141.6,189.6,141.8L189.6,141.8z M189.9,139.4h10c0.3,0,0.6,0.2,0.6,0.4s-0.3,0.4-0.6,0.4h-10c-0.3,0-0.6-0.2-0.6-0.4C189.3,139.6,189.6,139.4,189.9,139.4z" />
      <path fill="#AD1519" stroke="#000000" stroke-width="0.234" stroke-linejoin="round" d="M120.2,155.2v5.9c-2.1-0.9-5.7-1.5-9.9-1.7c-1.4,0-3,0.2-4.7,0.4c-3.1,0.5-5.7,1.4-7.5,2.4c0.7,0.1,1.5,0.2,2.4,0.2v4.7c-2.7-0.2-4.5-0.9-4.7-2v0.1c0,0-2.2-4.9-2.2-5.1c-0.4-2.1,4.5-4.7,11-5.8c2-0.3,4-0.5,5.7-0.5C114.5,153.8,118.1,154.4,120.2,155.2z M114.6,169.6c0.5,0.9-3,3.5-7.8,5.8c-1.5,0.7-4.8,1.9-6.3,2.5c-1.1,0.4-2.2,0.9-3,1.4c0.9,0.7,1.4,1.7,1.4,2.8s-0.5,2-1.3,2.7c0.5-0.6-0.1-1.8-1.1-2.4c-0.6-0.4-1-0.7-1.1-1.1c0,0,0-0.1,0-0.2c0,0.1,0,0.1,0,0.2l-0.9-4.9c-0.3-0.8,2.4-2.3,6.1-3.7c1.7-0.6,3.1-1.2,4.8-2c4.3-1.9,7.7-4,8.4-5.3c-0.4,0.7-1.7,1.7-3.5,2.8v-4.7c1.7,0.3,3,0.7,3.6,1.2l0.1,0.1c0,0,0,0,0,0.1C114.2,165.6,114.6,169.6,114.6,169.6z M95.4,180.9L95.4,180.9L95.4,180.9z M114,164.9L114,164.9L114,164.9z M113.9,165.3c0-0.1,0.1-0.1,0.1-0.2C113.9,165.1,113.9,165.2,113.9,165.3z M195.8,154.3c-2-0.3-4-0.5-5.7-0.5c-4.1,0-7.7,0.5-9.9,1.3v5.9c2.1-0.9,5.7-1.5,9.9-1.7c1.4,0,3,0.2,4.7,0.4c3.1,0.5,5.7,1.4,7.5,2.4c-0.7,0.1-1.5,0.2-2.4,0.2v4.7c2.7-0.2,4.5-0.9,4.7-2v0.1c0,0,2.2-4.9,2.2-5.1C207.2,158,202.2,155.4,195.8,154.3z M205.9,176.3l-0.9,4.9l0,0c-0.1,0.4-0.5,0.6-1.1,1.1c-1,0.7-1.6,1.9-1.1,2.4c-0.8-0.7-1.3-1.6-1.3-2.7c0-1.1,0.5-2.1,1.4-2.8c-0.9-0.5-2-1-3-1.4c-1.5-0.5-4.7-1.7-6.3-2.5c-4.8-2.3-8.3-4.9-7.8-5.8c0,0,0.4-4,0.6-4.8c0,0,0,0,0-0.1l0.1-0.1c0.6-0.5,1.9-0.9,3.6-1.2v4.7c-1.8-1.1-3.1-2.1-3.5-2.8c0.7,1.2,4.1,3.4,8.4,5.3c1.7,0.8,3.2,1.4,4.9,2C203.5,174,206.2,175.5,205.9,176.3z M186.4,165.1c0,0.1,0,0.1,0.1,0.2C186.4,165.2,186.4,165.1,186.4,165.1z M186.4,164.9L186.4,164.9L186.4,164.9z M204.9,180.8C204.9,180.9,204.9,180.9,204.9,180.8C204.9,180.9,204.9,180.9,204.9,180.8z M205,181c0,0.1,0,0.1,0,0.1S205,181.1,205,181z" />
      <path fill="#C8B100" d="M99.7,156.5l-1.6,0.6l1.5,3.6c0.2-0.1,0.3-0.1,0.5-0.2s0.3-0.1,0.5-0.2l-0.7-1.6c1.2-0.4,2-1,1.6-1.9C101.2,156.3,100.6,156.2,99.7,156.5z M100.2,158.3c-0.1,0.1-0.3,0.1-0.4,0.2l-0.6-1.5l0.4-0.1c0.3-0.1,0.7,0.1,0.9,0.5C100.6,157.7,100.5,158,100.2,158.3z M106,158.7c0,0.1,0,0.2,0.1,0.2l-2.6,0.5l-0.9-3.8c0.2,0,0.4,0,0.5-0.1c0.2,0,0.3-0.1,0.5-0.1l0.8,3.4c0.6-0.1,1.1-0.3,1.6-0.4C106,158.6,106,158.7,106,158.7z M110.3,154.8c0.1,0,0.2,0,0.3,0c-0.6,1.3-1.2,2.6-1.7,4c-0.1,0-0.2,0-0.3,0c-0.1,0-0.2,0-0.3,0c-0.7-1.3-1.4-2.5-2.2-3.7c0.2,0,0.4,0,0.6,0s0.4,0,0.6-0.1c0.4,0.9,1,1.8,1.5,2.7c0.4-1,0.8-1.9,1.1-2.9C110.1,154.8,110.2,154.8,110.3,154.8z M112.7,155.8c-0.1,0.8,2.1,0.8,1.9,2.1c-0.1,0.7-0.9,1.1-2,1c-0.4,0-0.8-0.2-1.1-0.4c0.1-0.2,0.2-0.5,0.3-0.7h0.1c0.1,0.4,0.4,0.7,0.9,0.7c0.4,0,0.9-0.1,0.9-0.5c0.1-0.9-2-0.8-1.9-2.1c0.1-0.6,0.7-1.1,1.8-1c0.5,0.1,1,0.2,1.1,0.4c-0.1,0.2-0.2,0.3-0.3,0.5h-0.1c-0.1-0.3-0.4-0.5-0.8-0.6C113,155.2,112.8,155.5,112.7,155.8z M187.2,154.9c0.1,0,0.2,0,0.3-0.1c-0.5,1.4-0.9,2.7-1.3,4.1c-0.1,0-0.2,0-0.3,0s-0.2,0-0.3,0.1c-0.8-1.2-1.6-2.4-2.5-3.5c0.2,0,0.4,0,0.6-0.1c0.2,0,0.4-0.1,0.6-0.1c0.5,0.9,1.1,1.7,1.7,2.6c0.3-1,0.6-2,0.8-3C187,155,187.1,155,187.2,154.9z M191.5,158.3c0,0.1,0,0.2,0,0.2c0,0.1,0,0.2,0,0.2l-2.7-0.1l0.1-3.8c0.2,0,0.3,0,0.5,0s0.4,0,0.5,0l-0.1,3.4C190.4,158.3,191,158.3,191.5,158.3z M195.4,155.2c0,0.1,0,0.2-0.1,0.2c0,0.1,0,0.2,0,0.2c-0.4-0.1-0.8-0.1-1.3-0.2l-0.3,3.5c-0.2,0-0.3-0.1-0.5-0.1s-0.4,0-0.5,0l0.3-3.5c-0.5,0-1,0-1.3,0c0-0.1,0.1-0.2,0.1-0.2c0-0.1,0-0.2,0-0.2L195.4,155.2z M199.5,157.2c0.1-0.4-0.1-0.7-0.4-0.9c-0.3-0.2-0.8-0.3-1.1-0.4l-1.5-0.3l-0.9,3.8c0.2,0,0.4,0,0.5,0.1c0.2,0,0.3,0.1,0.5,0.1l0.4-1.8l0,0c0.1,0.2,0.2,0.5,0.3,0.7l0.5,1.3c0.2,0,0.4,0.1,0.6,0.1c0.2,0,0.4,0.1,0.6,0.2l-0.2-0.4c-0.3-0.6-0.6-1.2-0.8-1.8C198.8,157.9,199.4,157.7,199.5,157.2z M198.4,157c-0.1,0.6-0.6,0.8-1.3,0.5l0.4-1.5c0.4,0.1,1,0.2,1,0.6C198.4,156.8,198.4,156.9,198.4,157z M203.5,157.9c-0.1,0-0.2-0.1-0.2-0.1l-3.8,2.4c0.1,0,0.2,0.1,0.3,0.2c0.1,0,0.2,0.1,0.3,0.2c0.3-0.3,0.7-0.5,1-0.8l1.4,0.8c0,0.4-0.1,0.8-0.2,1.3c0.2,0.1,0.4,0.2,0.5,0.3c0.2,0.1,0.3,0.2,0.5,0.3l0.4-4.3C203.7,157.9,203.6,157.9,203.5,157.9z M202.6,160.1l-1.1-0.6l1.3-0.8L202.6,160.1z" />
    </g>
    <g>
      <path fill="#AD1519" stroke="#000000" stroke-width="0.156" d="M149.8,109.6c4,0,7.5,0.6,9.9,1.5c1.3,0.6,3.1,1,5,1.3c1.5,0.2,2.9,0.2,4.1,0.1c1.6,0,4,0.4,6.4,1.5c2,0.9,3.6,1.9,4.7,2.9l-0.9,0.8l-0.3,2.4l-2.6,2.9l-1.3,1.1l-3.1,2.4l-2,1.5l-19.8-2.3l-19.8,2.3l-2-1.5l-3.1-2.4l-1.3-1.1l-2.6-2.9l-0.3-2.4l-0.9-0.8c1.1-1,2.7-2.1,4.7-2.9c2.4-1,4.7-1.5,6.4-1.5c1.2,0.1,2.6,0.1,4.1-0.1c1.9-0.3,3.7-0.7,5-1.3C142.5,110.2,145.8,109.6,149.8,109.6L149.8,109.6z" />
      <g>
        <path fill="#C8B100" stroke="#000000" stroke-width="0.234" d="M150,102.8c1.1,0,2,0.7,2.2,1.6c0.1,0.8,0.6,7.4,1,8.6l-3.2,3l-3.3-3.1c0.4-1.1,0.9-7.7,1-8.6C148,103.5,149,102.8,150,102.8L150,102.8z" />
        <path fill="#C8B100" stroke="#000000" stroke-width="0.234" d="M150,103.8c0.6,0,1,0.3,1.1,0.8c0.1,0.8,0.6,7,1,8.1l-2.1,2l-2.1-2c0.4-1.1,0.8-7.3,1-8.1C149,104.1,149.5,103.8,150,103.8z M135.2,114.8l0.8,0.7l1.2-2c-1.4-0.8-2.3-2.3-2.3-3.9c0-0.2,0-0.4,0-0.6c0.1-2.6,3.3-4.8,7.3-4.8c2.1,0,4,0.6,5.3,1.5c0-0.4,0.1-0.8,0.1-1.1c-1.5-0.8-3.4-1.4-5.4-1.4c-4.6,0-8.2,2.6-8.4,5.7c0,0.2,0,0.4,0,0.6c0,1.7,0.8,3.2,2,4.2L135.2,114.8 M121.3,116.9c-0.9-1-1.4-2.3-1.4-3.7c0-0.8,0.2-1.7,0.6-2.4c1.3-2.6,5.3-4.5,10.1-4.5c1.3,0,2.5,0.1,3.7,0.4c-0.2,0.3-0.4,0.6-0.6,0.9c-0.9-0.2-2-0.3-3-0.3c-4.4,0-8,1.7-9.1,4c-0.3,0.6-0.4,1.2-0.4,1.9c0,1.4,0.7,2.6,1.7,3.5l-1.6,2.6l-0.8-0.7L121.3,116.9L121.3,116.9z M164.8,114.8l-0.8,0.7l-1.2-2c1.4-0.8,2.3-2.3,2.3-3.9c0-0.2,0-0.4,0-0.6c-0.1-2.6-3.3-4.8-7.3-4.8c-2.1,0-4,0.6-5.3,1.5c0-0.4-0.1-0.8-0.1-1.1c1.5-0.8,3.4-1.4,5.4-1.4c4.6,0,8.2,2.6,8.4,5.7c0,0.2,0,0.4,0,0.6c0,1.7-0.8,3.2-2,4.2L164.8,114.8 M178.7,116.9c0.9-1,1.4-2.3,1.4-3.7c0-0.8-0.2-1.7-0.6-2.4c-1.3-2.6-5.3-4.5-10.1-4.5c-1.3,0-2.5,0.1-3.7,0.4c0.3,0.3,0.5,0.6,0.6,0.9c0.9-0.2,2-0.3,3-0.3c4.4,0,8,1.7,9.1,4c0.3,0.6,0.4,1.2,0.4,1.9c0,1.4-0.6,2.6-1.7,3.5l1.6,2.6l0.9-0.7L178.7,116.9z M135.3,114.9c-1.6-1.2-2.6-2.8-2.6-4.6c0-2,1.3-3.8,3.4-5.1c-1.2,1-2,2.3-2.1,3.7c0,0.2,0,0.4,0,0.6c0,1.7,0.8,3.2,2,4.2L135.3,114.9 M122.9,108.3c-1.2,0.7-2,1.6-2.5,2.6c-0.3,0.7-0.6,1.5-0.6,2.4c0,1.4,0.5,2.7,1.4,3.7l-1,1.6c-0.9-1.2-1.4-2.6-1.4-4C118.9,111.9,120.5,109.8,122.9,108.3L122.9,108.3z M164.8,114.9c1.6-1.2,2.6-2.8,2.6-4.6c0-2-1.3-3.8-3.4-5.1c1.2,1,2,2.3,2.1,3.7c0,0.2,0,0.4,0,0.6c0,1.7-0.8,3.2-2,4.2L164.8,114.9 M177.1,108.3c1.1,0.7,2,1.6,2.5,2.6c0.4,0.7,0.6,1.5,0.6,2.4c0,1.4-0.6,2.7-1.4,3.7l1,1.6c0.9-1.2,1.4-2.6,1.4-4C181.1,111.9,179.5,109.8,177.1,108.3L177.1,108.3z" />
        <path fill="#005BBF" stroke="#000000" stroke-width="0.156" d="M150,97.9c1.491,0,2.7,1.119,2.7,2.5s-1.209,2.5-2.7,2.5s-2.7-1.119-2.7-2.5S148.509,97.9,150,97.9z" />
        <path fill="#C8B100" stroke="#000000" stroke-width="0.156" d="M149.3,93.3v1.4h-1.4v1.4h1.4V98v2.1h-1.8c0,0.1-0.1,0.2-0.1,0.3c0,0.3,0.1,0.7,0.2,1l0,0h4.9l0,0c0.1-0.3,0.2-0.6,0.2-1c0-0.1-0.1-0.2-0.1-0.3h-1.8V98v-1.9h1.4v-1.4h-1.4v-1.4L149.3,93.3L149.3,93.3z" />
      </g>
      <path fill="#FFFFFF" stroke="#000000" stroke-width="0.234" d="M150,112.3c0.6,0.1,1.1,0.5,1.1,1.1s-0.5,1.1-1.1,1.1s-1.2-0.5-1.2-1.1C148.9,112.8,149.5,112.4,150,112.3c-0.6-0.1-1.2-0.5-1.2-1.1s0.5-1.1,1.2-1.1s1.1,0.5,1.1,1.1C151.2,111.8,150.6,112.2,150,112.3z M150,109.8c0.5,0,0.9-0.4,0.9-0.9s-0.4-0.9-0.9-0.9s-0.9,0.4-0.9,0.9S149.5,109.8,150,109.8z M150,107.5c0.4,0,0.7-0.3,0.7-0.6c0-0.3-0.3-0.6-0.7-0.6s-0.7,0.3-0.7,0.6C149.4,107.3,149.7,107.5,150,107.5z M150,105.6c0.3,0,0.5-0.2,0.5-0.5s-0.2-0.5-0.5-0.5s-0.5,0.2-0.5,0.5S149.7,105.6,150,105.6z M119.4,118.6c-0.4,0-0.7,0.3-0.7,0.6s0.3,0.6,0.7,0.6s0.7-0.3,0.7-0.6S119.7,118.6,119.4,118.6z M119.1,117.6c0-0.3-0.3-0.6-0.7-0.6s-0.7,0.3-0.7,0.6s0.3,0.6,0.7,0.6S119.1,118,119.1,117.6z M118.5,115.8c0-0.3-0.3-0.6-0.7-0.6s-0.7,0.3-0.7,0.6s0.3,0.6,0.7,0.6S118.5,116.1,118.5,115.8z M117.8,114.4c0.4,0,0.7-0.3,0.7-0.6c0-0.3-0.3-0.6-0.7-0.6c-0.4,0-0.7,0.3-0.7,0.6C117.1,114.1,117.4,114.4,117.8,114.4z M118.3,112.5c0.4,0,0.7-0.3,0.7-0.6c0-0.3-0.3-0.6-0.7-0.6s-0.7,0.3-0.7,0.6C117.6,112.2,117.9,112.5,118.3,112.5z M119.3,110.7c0.4,0,0.7-0.3,0.7-0.6s-0.3-0.6-0.7-0.6c-0.4,0-0.7,0.3-0.7,0.6S118.9,110.7,119.3,110.7z M120.6,108c-0.4,0-0.7,0.3-0.7,0.6s0.3,0.6,0.7,0.6s0.7-0.3,0.7-0.6S121,108,120.6,108z M122.2,106.8c-0.4,0-0.7,0.3-0.7,0.6c0,0.3,0.3,0.6,0.7,0.6s0.7-0.3,0.7-0.6C122.9,107.1,122.6,106.8,122.2,106.8z M124.1,105.8c-0.4,0-0.7,0.3-0.7,0.6s0.3,0.6,0.7,0.6s0.7-0.3,0.7-0.6S124.4,105.8,124.1,105.8z M126,105.1c-0.4,0-0.7,0.3-0.7,0.6c0,0.3,0.3,0.6,0.7,0.6s0.7-0.3,0.7-0.6S126.4,105.1,126,105.1z M128.2,104.7c-0.4,0-0.7,0.3-0.7,0.6s0.3,0.6,0.7,0.6s0.7-0.3,0.7-0.6S128.6,104.7,128.2,104.7z M130.3,104.6c-0.4,0-0.7,0.3-0.7,0.6c0,0.3,0.3,0.6,0.7,0.6s0.7-0.3,0.7-0.6C130.9,104.9,130.6,104.6,130.3,104.6z M132.9,105.3c0-0.3-0.3-0.6-0.7-0.6s-0.7,0.3-0.7,0.6s0.3,0.6,0.7,0.6S132.9,105.6,132.9,105.3z M134.5,113.6c-0.4,0-0.7,0.3-0.7,0.6s0.3,0.6,0.7,0.6s0.7-0.3,0.7-0.6S134.9,113.6,134.5,113.6z M133.4,112c-0.4,0-0.7,0.3-0.7,0.6c0,0.3,0.3,0.6,0.7,0.6s0.7-0.3,0.7-0.6C134.1,112.2,133.8,112,133.4,112z M133.5,110.8c0-0.3-0.3-0.6-0.7-0.6s-0.7,0.3-0.7,0.6s0.3,0.6,0.7,0.6S133.5,111.2,133.5,110.8z M132.2,108.9c0,0.3,0.3,0.6,0.7,0.6s0.7-0.3,0.7-0.6s-0.3-0.6-0.7-0.6S132.2,108.6,132.2,108.9z M132.6,107c0,0.3,0.3,0.6,0.7,0.6s0.7-0.3,0.7-0.6c0-0.3-0.3-0.6-0.7-0.6S132.6,106.7,132.6,107z M134.3,105.9c0.4,0,0.7-0.3,0.7-0.6s-0.3-0.6-0.7-0.6s-0.7,0.3-0.7,0.6S133.9,105.9,134.3,105.9z M135.8,103.5c-0.4,0-0.7,0.3-0.7,0.6s0.3,0.6,0.7,0.6s0.7-0.3,0.7-0.6S136.2,103.5,135.8,103.5z M137.6,102.5c-0.4,0-0.7,0.3-0.7,0.6c0,0.3,0.3,0.6,0.7,0.6s0.7-0.3,0.7-0.6C138.3,102.7,138,102.5,137.6,102.5z M139.6,101.9c-0.4,0-0.7,0.3-0.7,0.6s0.3,0.6,0.7,0.6s0.7-0.3,0.7-0.6S140,101.9,139.6,101.9z M141.7,101.5c-0.4,0-0.7,0.3-0.7,0.6s0.3,0.6,0.7,0.6s0.7-0.3,0.7-0.6S142,101.5,141.7,101.5z M143.7,101.5c-0.4,0-0.7,0.3-0.7,0.6s0.3,0.6,0.7,0.6s0.7-0.3,0.7-0.6S144.1,101.5,143.7,101.5z M145.8,101.9c-0.4,0-0.7,0.3-0.7,0.6c0,0.3,0.3,0.6,0.7,0.6s0.7-0.3,0.7-0.6C146.5,102.2,146.2,101.9,145.8,101.9z M147.7,102.6c-0.4,0-0.7,0.3-0.7,0.6s0.3,0.6,0.7,0.6s0.7-0.3,0.7-0.6S148.1,102.6,147.7,102.6z M152.3,102.6c-0.4,0-0.7,0.3-0.7,0.6s0.3,0.6,0.7,0.6s0.7-0.3,0.7-0.6S152.6,102.6,152.3,102.6z M154.2,101.9c-0.4,0-0.7,0.3-0.7,0.6c0,0.3,0.3,0.6,0.7,0.6s0.7-0.3,0.7-0.6C154.9,102.2,154.6,101.9,154.2,101.9z M156.3,101.5c-0.4,0-0.7,0.3-0.7,0.6s0.3,0.6,0.7,0.6s0.7-0.3,0.7-0.6S156.7,101.5,156.3,101.5z M158.3,101.5c-0.4,0-0.7,0.3-0.7,0.6s0.3,0.6,0.7,0.6s0.7-0.3,0.7-0.6S158.7,101.5,158.3,101.5z M160.4,101.9c-0.4,0-0.7,0.3-0.7,0.6s0.3,0.6,0.7,0.6s0.7-0.3,0.7-0.6S160.8,101.9,160.4,101.9z M162.4,102.5c-0.4,0-0.7,0.3-0.7,0.6c0,0.3,0.3,0.6,0.7,0.6s0.7-0.3,0.7-0.6C163,102.7,162.7,102.5,162.4,102.5z M164.2,103.5c-0.4,0-0.7,0.3-0.7,0.6s0.3,0.6,0.7,0.6s0.7-0.3,0.7-0.6S164.5,103.5,164.2,103.5z M165.7,105.9c0.4,0,0.7-0.3,0.7-0.6s-0.3-0.6-0.7-0.6s-0.7,0.3-0.7,0.6S165.3,105.9,165.7,105.9z M166.7,106.4c-0.4,0-0.7,0.3-0.7,0.6c0,0.3,0.3,0.6,0.7,0.6s0.7-0.3,0.7-0.6C167.4,106.7,167.1,106.4,166.7,106.4z M166.5,108.9c0,0.3,0.3,0.6,0.7,0.6s0.7-0.3,0.7-0.6s-0.3-0.6-0.7-0.6S166.5,108.6,166.5,108.9z M167.2,110.2c-0.4,0-0.7,0.3-0.7,0.6s0.3,0.6,0.7,0.6s0.7-0.3,0.7-0.6S167.6,110.2,167.2,110.2z M166.6,112c-0.4,0-0.7,0.3-0.7,0.6c0,0.3,0.3,0.6,0.7,0.6s0.7-0.3,0.7-0.6C167.3,112.2,167,112,166.6,112z M165.5,113.6c-0.4,0-0.7,0.3-0.7,0.6s0.3,0.6,0.7,0.6s0.7-0.3,0.7-0.6S165.9,113.6,165.5,113.6z M167.7,104.7c-0.4,0-0.7,0.3-0.7,0.6s0.3,0.6,0.7,0.6s0.7-0.3,0.7-0.6S168.1,104.7,167.7,104.7z M169.8,104.6c-0.4,0-0.7,0.3-0.7,0.6c0,0.3,0.3,0.6,0.7,0.6s0.7-0.3,0.7-0.6C170.4,104.9,170.1,104.6,169.8,104.6z M171.8,104.7c-0.4,0-0.7,0.3-0.7,0.6s0.3,0.6,0.7,0.6s0.7-0.3,0.7-0.6S172.2,104.7,171.8,104.7z M174,105.1c-0.4,0-0.7,0.3-0.7,0.6c0,0.3,0.3,0.6,0.7,0.6s0.7-0.3,0.7-0.6S174.4,105.1,174,105.1z M175.9,105.8c-0.4,0-0.7,0.3-0.7,0.6s0.3,0.6,0.7,0.6s0.7-0.3,0.7-0.6S176.3,105.8,175.9,105.8z M177.8,106.8c-0.4,0-0.7,0.3-0.7,0.6c0,0.3,0.3,0.6,0.7,0.6s0.7-0.3,0.7-0.6C178.5,107.1,178.2,106.8,177.8,106.8z M179.4,108c-0.4,0-0.7,0.3-0.7,0.6s0.3,0.6,0.7,0.6s0.7-0.3,0.7-0.6S179.7,108,179.4,108z M180.7,110.7c0.4,0,0.7-0.3,0.7-0.6s-0.3-0.6-0.7-0.6s-0.7,0.3-0.7,0.6S180.4,110.7,180.7,110.7z M181.1,111.8c0,0.3,0.3,0.6,0.7,0.6s0.7-0.3,0.7-0.6c0-0.3-0.3-0.6-0.7-0.6S181.1,111.5,181.1,111.8z M181.6,113.8c0,0.3,0.3,0.6,0.7,0.6s0.7-0.3,0.7-0.6c0-0.3-0.3-0.6-0.7-0.6S181.6,113.4,181.6,113.8z M182.2,115.1c-0.4,0-0.7,0.3-0.7,0.6s0.3,0.6,0.7,0.6s0.7-0.3,0.7-0.6S182.5,115.1,182.2,115.1z M181.6,117c-0.4,0-0.7,0.3-0.7,0.6s0.3,0.6,0.7,0.6s0.7-0.3,0.7-0.6S181.9,117,181.6,117z M180.7,118.6c-0.4,0-0.7,0.3-0.7,0.6s0.3,0.6,0.7,0.6s0.7-0.3,0.7-0.6S181,118.6,180.7,118.6z" />
      <g>
        <path fill="#C8B100" stroke="#000000" stroke-width="0.234" d="M150.1,135.7c-7.4,0-13.9-0.9-18.6-2.3c-0.3-0.1-0.5-0.4-0.5-0.8c0-0.3,0.2-0.6,0.5-0.7c4.7-1.4,11.3-2.3,18.6-2.3c7.4,0,13.9,0.9,18.6,2.3c0.3,0.1,0.5,0.4,0.5,0.7s-0.2,0.6-0.5,0.8C164,134.8,157.4,135.7,150.1,135.7 M150,129.6c-7.4,0-14.1,0.9-18.8,2.4c0.4-0.2,0.4-0.7-0.1-1.9c-0.6-1.5-1.5-1.4-1.5-1.4c5.2-1.5,12.4-2.5,20.5-2.5s15.4,1,20.6,2.5c0,0-0.9-0.1-1.5,1.4c-0.5,1.2-0.5,1.7-0.1,1.9C164.3,130.6,157.5,129.7,150,129.6 M150.1,126.2c-8.1,0-15.3,1-20.5,2.5c-0.4,0.1-0.7,0-0.8-0.4c-0.1-0.3,0.1-0.7,0.4-0.8c5.2-1.6,12.6-2.6,20.9-2.6c8.3,0,15.7,1,20.9,2.6c0.4,0.1,0.5,0.5,0.4,0.8s-0.5,0.5-0.8,0.4C165.4,127.2,158.1,126.2,150.1,126.2 M150.1,119.9l0.7,0.1c-0.1,0.3-0.1,0.6-0.1,1c0,1.5,1.3,2.8,2.9,2.8c1.3,0,2.4-0.8,2.8-1.9c0.1,0,0.3-1,0.4-1c0.1,0,0.1,1.1,0.1,1.1c0.2,1.4,1.5,2.4,2.9,2.4c1.6,0,2.9-1.2,2.9-2.8c0-0.1,0-0.2,0-0.3l0.9-0.9l0.5,1.2c-0.2,0.4-0.3,0.8-0.3,1.2c0,1.5,1.3,2.7,2.8,2.7c1,0,1.8-0.5,2.3-1.2l0.6-0.8v0.9c0,0.9,0.4,1.8,1.3,1.9c0,0,1,0.1,2.4-1s2.1-2,2.1-2l0.1,1.1c0,0-1.1,1.8-2.4,2.5c-0.7,0.4-1.7,0.8-2.5,0.7c-0.9-0.1-1.5-0.8-1.8-1.6c-0.6,0.4-1.4,0.6-2.1,0.6c-1.7,0-3.2-0.9-3.8-2.3c-0.8,0.8-1.9,1.3-3.1,1.3c-1.3,0-2.6-0.6-3.3-1.5c-0.8,0.7-1.8,1.1-2.9,1.1c-1.5,0-2.8-0.7-3.6-1.8c-0.8,1.1-2.1,1.8-3.6,1.8c-1.1,0-2.2-0.4-2.9-1.1c-0.8,0.9-2,1.5-3.4,1.5c-1.3,0-2.3-0.5-3.1-1.3c-0.6,1.4-2.1,2.3-3.8,2.3c-0.8,0-1.5-0.2-2.1-0.6c-0.3,0.8-0.9,1.5-1.8,1.6c-0.8,0.1-1.8-0.3-2.5-0.7c-1.2-0.7-2.4-2.5-2.4-2.5l0.1-1.1c0,0,0.8,0.9,2.1,2c1.4,1.1,2.4,1,2.4,1c0.9-0.2,1.3-1,1.3-1.9v-0.9l0.6,0.8c0.5,0.7,1.4,1.2,2.3,1.2c1.6,0,2.8-1.2,2.8-2.7c0-0.4-0.1-0.8-0.3-1.2l0.5-1.2l0.9,0.9c0,0.1,0,0.2,0,0.3c0,1.5,1.3,2.8,2.9,2.8c1.4,0,2.7-0.9,2.9-2.4c0,0,0-1.1,0.1-1.1s0.4,1,0.4,1c0.4,1.1,1.5,1.9,2.8,1.9c1.6,0,2.9-1.2,2.9-2.8c0-0.3,0-0.7-0.1-1L150.1,119.9 M125,123.8c-0.1-0.2-0.2-0.4-0.4-0.6c-0.5-0.4-1.1-0.5-1.4-0.2c0,0-0.1,0.1-0.1,0.2c0,0-0.7-1.2-1.4-1.7c-0.8-0.4-2.1-0.3-2.1-0.3c0-1,0.8-1.7,1.8-1.7c0.6,0,1.2,0.2,1.5,0.7l0.1-0.6c0,0,0.8,0.2,1.2,1.1c0.4,0.9,0,2.3,0,2.3s0.2-0.6,0.5-1s1.1-0.8,1.5-1s0.8-0.5,0.8-0.5s0,0.1,0,0.4s0,0.5,0,0.5c0.7-0.1,1.6,0,2.3,0.3c-0.3,0.6-0.9,1.1-1.6,1.4c0,0,0.3,0.2,0.5,0.4c0.2,0.2,0.3,0.3,0.3,0.3s-0.5,0.1-0.8,0.1s-1.1,0.2-1.6,0.1C125.7,123.9,125.3,123.8,125,123.8 M135.7,121.1c-0.2-0.2-0.4-0.4-0.4-0.7c-0.1-0.3,0-0.5,0.1-0.7c0,0-0.5-0.3-1.1-0.4c-0.4-0.1-1.2-0.1-1.4-0.1s-0.7,0-0.7,0s0,0.1,0.2,0.3c0.2,0.3,0.3,0.4,0.3,0.4c-0.8,0.2-1.4,0.7-1.8,1.2c0.6,0.4,1.4,0.7,2.2,0.6c0,0-0.1,0.2-0.1,0.5s0,0.4,0,0.4s0.4-0.2,0.6-0.2c0.2-0.1,0.9-0.3,1.3-0.6C135.3,121.5,135.7,121.1,135.7,121.1 M135.4,115c0.6,0.4,1.2,1.1,1.4,1.8c0,0,0.1-0.2,0.4-0.3c0.4-0.2,0.6-0.2,0.6-0.2s-0.1,0.6-0.1,0.8c-0.1,0.2-0.1,0.8-0.2,1.4s-0.4,1-0.4,1c-0.2-0.2-0.6-0.3-0.9-0.2c-0.4,0.1-0.6,0.3-0.8,0.5c0,0-0.4-0.3-0.7-0.8s-0.6-1.1-0.7-1.2c-0.1-0.2-0.4-0.7-0.4-0.7s0.3-0.1,0.7,0s0.5,0.2,0.5,0.2C134.7,116.4,134.9,115.6,135.4,115 M137.4,120.8c0.1-0.2,0.2-0.5,0.1-0.7s-0.2-0.5-0.4-0.6c0,0,0.4-0.4,0.9-0.8c0.4-0.2,1.1-0.5,1.3-0.6s0.6-0.2,0.6-0.2s0,0.1,0,0.4c-0.1,0.3-0.1,0.5-0.1,0.5c0.8-0.1,1.6,0.2,2.2,0.6c-0.4,0.6-1.1,1.1-1.8,1.2c0,0,0.1,0.2,0.3,0.4c0.1,0.2,0.2,0.3,0.2,0.3s-0.5,0-0.7,0s-1,0-1.4-0.1C137.9,121.1,137.4,120.8,137.4,120.8 M149.1,119.9c-0.2-0.2-0.3-0.5-0.3-0.8s0.1-0.6,0.3-0.8c0,0-0.5-0.4-1.1-0.7c-0.5-0.2-1.3-0.3-1.6-0.4s-0.8-0.1-0.8-0.1s0,0.1,0.1,0.4s0.2,0.6,0.2,0.6c-0.9,0.1-1.7,0.5-2.3,1.1c0.6,0.6,1.4,1,2.3,1.1c0,0-0.1,0.2-0.2,0.6c-0.1,0.3-0.1,0.4-0.1,0.4s0.5-0.1,0.8-0.1c0.2-0.1,1.1-0.2,1.6-0.4C148.6,120.3,149.1,119.9,149.1,119.9 M150.1,113c0.6,0.6,1.1,1.4,1.2,2.3c0,0,0.1-0.2,0.6-0.3c0.4-0.2,0.8-0.1,0.8-0.1s-0.2,0.6-0.3,0.8s-0.2,0.9-0.5,1.5s-0.6,1.1-0.6,1.1c-0.2-0.3-0.6-0.4-1-0.4s-0.8,0.2-1,0.4c0,0-0.4-0.5-0.6-1.1c-0.3-0.6-0.4-1.3-0.5-1.5s-0.3-0.8-0.3-0.8s0.3-0.1,0.8,0.1c0.4,0.2,0.6,0.3,0.6,0.3C149,114.4,149.4,113.6,150.1,113z M151.1,119.9c0.2-0.2,0.3-0.5,0.3-0.8s-0.1-0.6-0.3-0.8c0,0,0.5-0.4,1.1-0.7c0.5-0.2,1.3-0.3,1.6-0.4c0.2-0.1,0.8-0.1,0.8-0.1s0,0.1-0.1,0.4s-0.2,0.6-0.2,0.6c0.9,0.1,1.7,0.5,2.3,1.1c-0.6,0.6-1.4,1-2.3,1.1c0,0,0.1,0.2,0.2,0.6c0.1,0.3,0.1,0.4,0.1,0.4l-0.8-0.1c-0.3-0.1-1.1-0.2-1.6-0.4C151.6,120.3,151.1,119.9,151.1,119.9 M162.8,120.8c-0.1-0.2-0.2-0.5-0.1-0.7c0.1-0.3,0.2-0.5,0.4-0.6c0,0-0.4-0.4-0.9-0.8c-0.4-0.2-1.1-0.5-1.3-0.6s-0.6-0.2-0.6-0.2s0,0.1,0,0.4c0.1,0.3,0.1,0.5,0.1,0.5c-0.8-0.1-1.6,0.2-2.2,0.6c0.4,0.6,1.1,1.1,1.8,1.2c0,0-0.1,0.2-0.3,0.4c-0.1,0.2-0.2,0.3-0.2,0.3h0.7c0.2,0,1,0,1.4-0.1C162.3,121.1,162.8,120.8,162.8,120.8 M164.8,115c-0.6,0.4-1.2,1.1-1.4,1.8c0,0-0.1-0.2-0.4-0.3c-0.4-0.2-0.6-0.2-0.6-0.2s0.1,0.6,0.2,0.8c0.1,0.2,0.1,0.8,0.2,1.4s0.4,1,0.4,1c0.2-0.2,0.6-0.3,0.9-0.2s0.6,0.3,0.8,0.5c0,0,0.4-0.3,0.7-0.8s0.6-1.1,0.7-1.2c0.1-0.2,0.4-0.7,0.4-0.7s-0.3-0.1-0.7,0s-0.5,0.2-0.5,0.2C165.5,116.4,165.2,115.6,164.8,115 M164.5,121.1c0.2-0.2,0.4-0.4,0.4-0.7c0.1-0.3,0-0.5-0.1-0.7c0,0,0.5-0.3,1.1-0.4c0.4-0.1,1.2-0.1,1.4-0.1s0.7,0,0.7,0s0,0.1-0.2,0.3c-0.2,0.3-0.3,0.4-0.3,0.4c0.8,0.2,1.4,0.7,1.8,1.2c-0.6,0.4-1.4,0.7-2.2,0.6c0,0,0.1,0.2,0.1,0.5s0,0.4,0,0.4s-0.4-0.2-0.6-0.2c-0.2-0.1-0.9-0.3-1.3-0.6C164.9,121.5,164.5,121.1,164.5,121.1 M175.2,123.8c0.1-0.2,0.2-0.4,0.4-0.6c0.5-0.4,1.1-0.5,1.4-0.2c0,0,0.1,0.1,0.1,0.2c0,0,0.7-1.2,1.4-1.7s2.1-0.3,2.1-0.3c0-1-0.8-1.7-1.8-1.7c-0.6,0-1.1,0.2-1.5,0.7l-0.1-0.6c0,0-0.8,0.2-1.2,1.1s0,2.3,0,2.3s-0.2-0.6-0.5-1s-1.1-0.8-1.5-1s-0.8-0.5-0.8-0.5s0,0.1,0,0.4s0,0.5,0,0.5c-0.8-0.1-1.6,0-2.3,0.3c0.3,0.6,0.8,1.1,1.6,1.4c0,0-0.3,0.2-0.5,0.4c-0.2,0.2-0.3,0.3-0.3,0.3s0.5,0.1,0.8,0.1s1.1,0.2,1.6,0.1C174.5,123.9,174.9,123.8,175.2,123.8" />
        <path fill="#FFFFFF" stroke="#000000" stroke-width="0.234" d="M129.8,123.6c-0.2-0.5,0-1,0.3-1.1s0.8,0.2,1,0.7s0,1-0.3,1.1C130.4,124.4,130,124,129.8,123.6 M142.7,121.1c-0.1-0.5,0.2-1,0.6-1c0.4,0,0.7,0.3,0.8,0.9c0.1,0.5-0.2,1-0.6,1C143.1,122,142.7,121.6,142.7,121.1 M157.6,121.1c0.1-0.5-0.2-1-0.6-1c-0.4,0-0.7,0.3-0.8,0.9c-0.1,0.5,0.2,1,0.6,1C157.1,122,157.5,121.6,157.6,121.1 M170.4,123.6c0.2-0.5,0-1-0.3-1.1s-0.8,0.2-1,0.7s0,1,0.3,1.1S170.2,124,170.4,123.6" />
        <path fill="#AD1519" stroke="#000000" stroke-width="0.234" d="M123.2,123c0.3-0.3,0.9-0.3,1.4,0.2c0.5,0.4,0.6,1,0.3,1.3c-0.3,0.3-0.9,0.2-1.4-0.2C123,123.9,122.9,123.3,123.2,123 M136.4,119c0.7,0,1.3,0.6,1.3,1.2s-0.6,1.2-1.3,1.2s-1.3-0.6-1.3-1.2S135.7,119,136.4,119z M150.1,117.9c0.7,0,1.3,0.6,1.3,1.2s-0.6,1.2-1.3,1.2s-1.3-0.6-1.3-1.2S149.4,117.9,150.1,117.9z M163.8,119c0.7,0,1.3,0.6,1.3,1.2s-0.6,1.2-1.3,1.2s-1.3-0.6-1.3-1.2S163.1,119,163.8,119z M177,123c-0.3-0.3-0.9-0.3-1.4,0.2c-0.5,0.4-0.6,1-0.3,1.3s0.9,0.2,1.4-0.2C177.2,123.9,177.3,123.3,177,123" />
      </g>
      <g>
        <path fill="#AD1519" stroke="#000000" stroke-width="0.234" stroke-linejoin="round" d="M150.1,134.7c-6.6,0-12.6-0.8-17.2-2c4.6-1.2,10.6-1.9,17.2-1.9c6.6,0,12.7,0.7,17.2,1.9C162.8,134,156.7,134.7,150.1,134.7L150.1,134.7z" />
        <path fill="none" stroke="#000000" stroke-width="0.03" d="M154.8,134.6V131 M153,134.7v-3.8 M151.7,134.7v-3.9" />
        <path fill="none" stroke="#000000" stroke-width="0.054" d="M150.6,134.8v-3.9" />
        <path fill="none" stroke="#000000" stroke-width="0.084" d="M149.5,134.8v-3.9" />
        <path fill="none" stroke="#000000" stroke-width="0.108" d="M148.5,134.8v-3.9" />
        <path fill="none" stroke="#000000" stroke-width="0.138" d="M147.5,134.8v-3.9" />
        <path fill="none" stroke="#000000" stroke-width="0.168" d="M146.6,134.8v-3.9" />
        <path fill="none" stroke="#000000" stroke-width="0.198" d="M144.9,134.6V131 M145.7,134.6v-3.8" />
        <path fill="none" stroke="#000000" stroke-width="0.222" d="M143.3,134.4v-3.3 M144.1,134.5V131" />
        <path fill="none" stroke="#000000" stroke-width="0.252" d="M141.2,134.2v-2.9 M141.9,134.3v-3.1 M142.6,134.4v-3.2" />
        <path fill="none" stroke="#000000" stroke-width="0.276" d="M140.5,134.2v-2.8" />
        <path fill="none" stroke="#000000" stroke-width="0.306" d="M139.8,134.1v-2.6" />
        <path fill="none" stroke="#000000" stroke-width="0.336" d="M139,134v-2.4" />
        <path fill="none" stroke="#000000" stroke-width="0.36" d="M137.5,133.8v-1.9 M138.3,133.9v-2.2" />
        <path fill="none" stroke="#000000" stroke-width="0.378" d="M136.8,133.6v-1.7" />
        <path fill="none" stroke="#000000" stroke-width="0.408" d="M136,133.5v-1.4" />
        <path fill="none" stroke="#000000" stroke-width="0.438" d="M135.3,133.3v-1.1" />
        <path fill="none" stroke="#000000" stroke-width="0.462" d="M134.5,133.2v-0.8" />
        <path fill="none" stroke="#000000" stroke-width="0.546" d="M133.6,133v-0.4" />
        <path fill="none" stroke="#000000" stroke-width="0.234" d="M132.1,133c4.6-1.3,11-2.1,18-2.1s13.4,0.8,18,2.1" />
        <path fill="#058E6E" stroke="#000000" stroke-width="0.234" d="M140.2,129l-1.4,0.2c-0.4,0-0.7-0.2-0.7-0.5c-0.1-0.3,0.2-0.6,0.6-0.7l1.4-0.2l1.4-0.2c0.4,0,0.7,0.2,0.7,0.5s-0.2,0.6-0.6,0.7L140.2,129 M160,129l1.4,0.2c0.4,0,0.7-0.2,0.7-0.5s-0.2-0.6-0.6-0.7l-1.4-0.2l-1.4-0.2c-0.4,0-0.7,0.2-0.7,0.5c-0.1,0.3,0.2,0.6,0.6,0.7L160,129" />
        <path fill="#FFFFFF" stroke="#000000" stroke-width="0.234" d="M134.4,129.2c0-0.4,0.3-0.6,0.7-0.6s0.7,0.3,0.7,0.6s-0.3,0.6-0.7,0.6S134.4,129.5,134.4,129.2 M144.3,128c0-0.3,0.3-0.6,0.7-0.6s0.7,0.3,0.7,0.6c0,0.3-0.3,0.6-0.7,0.6S144.3,128.4,144.3,128 M154.5,128c0-0.3,0.3-0.6,0.7-0.6s0.7,0.3,0.7,0.6c0,0.3-0.3,0.6-0.7,0.6S154.5,128.4,154.5,128 M164.4,129.2c0-0.4,0.3-0.6,0.7-0.6s0.7,0.3,0.7,0.6s-0.3,0.6-0.7,0.6S164.4,129.5,164.4,129.2" />
        <path fill="#AD1519" stroke="#000000" stroke-width="0.234" d="M130,130.3l0.7-0.9l2,0.3l-1.6,1.2L130,130.3z M150.1,128.5h-2c-0.4,0-0.7-0.3-0.7-0.6c0-0.3,0.3-0.6,0.7-0.6h4c0.4,0,0.7,0.3,0.7,0.6s-0.3,0.6-0.7,0.6H150.1 M170.1,130.3l-0.7-0.9l-2,0.3l1.6,1.2L170.1,130.3z" />
      </g>
    </g>
    <g>
      <g>
        <path fill="#CCCCCC" stroke="#000000" stroke-width="0.312" d="M150.3,206.6c-7.9,0-15.6-1.9-22.2-5.1c-4.8-2.4-8-7.2-8-12.7v-20h60.2v20c0,5.5-3.2,10.3-8,12.7C165.8,204.7,158.1,206.6,150.3,206.6L150.3,206.6z" />
        <path fill="#FFD691" stroke="#000000" stroke-width="0.312" d="M151.8,197.7c1.2,0.4,1.9,1.3,1.9,2.4c0,1.4-1.4,2.5-3.2,2.5s-3.2-1.1-3.2-2.5c0-1.1,0.6-2.3,1.9-2.4c0,0,0-0.1-0.1-0.3c-0.1-0.1-0.4-0.4-0.4-0.4s0.5-0.1,0.8,0s0.5,0.3,0.5,0.3s0.1-0.3,0.3-0.5s0.4-0.3,0.4-0.3s0.3,0.2,0.4,0.4c0.1,0.2,0.1,0.4,0.1,0.4s0.2-0.2,0.5-0.3c0.2-0.1,0.5-0.2,0.5-0.2s-0.1,0.3-0.1,0.4C151.8,197.4,151.8,197.7,151.8,197.7z" />
        <path fill="#AD1519" stroke="#000000" stroke-width="0.312" d="M150.4,202.4c-0.6-0.6-1-1.4-1-2.2c0-0.9,0.4-1.7,1-2.2c0.6,0.6,1,1.4,1,2.2S151,201.8,150.4,202.4" />
        <path fill="#058E6E" stroke="#000000" stroke-width="0.312" d="M150.2,204.2c0,0-2.4-1.6-3.4-1.8c-1.3-0.3-2.8-0.1-3.5-0.1c0,0,0.8,0.6,1.1,0.9s1.4,1,2.1,1.1C148.4,204.8,150.2,204.2,150.2,204.2 M150.9,204.3c0,0,1.5-1.6,3.1-1.8c1.9-0.3,3.1,0.2,3.9,0.4c0,0-0.6,0.3-0.9,0.5c-0.3,0.2-1.2,0.9-2.5,0.9s-2.8-0.1-3-0.1C151.2,204.3,150.9,204.3,150.9,204.3 M149.8,205.6c0,0,0.4-0.9,0.4-1.7c0-0.6-0.1-1.3-0.1-1.3h0.3h0.2c0,0,0.2,0.7,0.2,1.3s-0.1,1.4-0.1,1.4s-0.3,0.1-0.4,0.1C150.2,205.5,149.8,205.6,149.8,205.6z" />
      </g>
      <g>
        <path fill="#AD1519" stroke="#000000" stroke-width="0.312" d="M150.2,188.7c0,7.9-6.7,14.3-15,14.3s-15.1-6.4-15.1-14.3v-20h30.1V188.7" />
        <path fill="#C8B100" stroke="#000000" stroke-width="0.312" d="M120,188.5c0.1,4.2,1.8,7.4,3.4,9.4v-29.7H120V188.5L120,188.5z M126.7,200.5c0.9,0.5,2.2,1.3,3.6,1.7l-0.1-34.2h-3.5V200.5z M133.4,202.9c1.4,0.1,2.4,0.1,3.5,0V168h-3.5V202.9z M140,202.2c1.4-0.3,2.9-1.1,3.6-1.6V168h-3.5L140,202.2L140,202.2z M146.9,197.5c1.5-1.3,2.9-4.3,3.4-7.7l0.1-21.9h-3.5V197.5z" />
      </g>
      <g>
        <path fill="#AD1519" stroke="#000000" stroke-width="0.312" d="M180.4,168.7v20c0,7.9-6.8,14.3-15.1,14.3s-15.1-6.4-15.1-14.3v-20H180.4" />
        <path fill="#C8B100" stroke="#C8B100" stroke-width="0.156" d="M175.7,185.6c0.7-0.2,1.1-0.8,1.1-1.5s-0.5-1.3-1.1-1.5v-2.4l1.1-0.3v-2.7l-1.1-0.3v-2.4c0.6-0.2,1.1-0.8,1.1-1.5c0-0.9-0.7-1.5-1.6-1.5c-0.7,0-1.4,0.4-1.6,1.1h-1.9l-0.3-1h-2.8l-0.3,1h-1.6c-0.2-0.6-0.8-1.1-1.5-1.1l0,0c-0.7,0-1.3,0.5-1.5,1.1H162l-0.3-1h-2.8l-5.3,5.7v2.7l1.1,0.3v2.4c-0.7,0.2-1.2,0.8-1.2,1.5s0.5,1.3,1.2,1.5v1.6l-1,0.3l0.2,2.7l1,0.2c0.1,0.7,0.4,1.5,0.7,2.1l-0.1,0.1c-0.6,0.6-0.5,1.6,0.2,2.2c0.4,0.4,1,0.5,1.6,0.3c0.5,0.6,1.6,1.5,1.5,1.4l-0.2,1.1c0.8,0.5,1.6,0.9,2.5,1.3l0.8-0.7c-0.2-0.1,1.1,0.3,2,0.5c0.2,0.7,0.8,1.2,1.5,1.2l0,0c0.7,0,1.3-0.5,1.5-1.2c1-0.1,2.3-0.6,2-0.5l0.8,0.7c0.9-0.3,1.7-0.8,2.5-1.3l-0.2-1.1c-0.1,0.1,0.9-0.8,1.5-1.4c0.5,0.2,1.1,0.1,1.6-0.3c0.7-0.6,0.8-1.5,0.2-2.2l-0.1-0.1c0.3-0.7,0.5-1.4,0.7-2.1l1.1-0.2l0.2-2.7l-1-0.3v-1.7H175.7z M175.9,184.1c0,0.4-0.3,0.7-0.7,0.7s-0.7-0.3-0.7-0.7s0.3-0.7,0.7-0.7S175.9,183.8,175.9,184.1z M175.7,177.8v1.6h-1v-1.6H175.7z M174.5,174.5c0,0,0.1,0,0.2,0v2.4l-1,0.3v2.7l1,0.3v2.5c-0.5,0.2-0.9,0.5-1,1h-1.9l-0.3-1h-2.8l-0.3,1h-1.6c0-0.1-0.1-0.2-0.1-0.2l2.6-2.8l1,0.4l1.8-2l-0.6-0.9L174.5,174.5z M170.9,183.7v1h-1.7v-1H170.9z M168.9,179.3l1.1-1.2l0.8,0.6l-1.1,1.2L168.9,179.3z M169.2,172.6h1.7v1h-1.7V172.6z M165.6,174.5c0.5-0.1,0.9-0.5,1.1-1h1.6l0.3,1h2.8l0.3-1h1.9c0,0.1,0.1,0.2,0.2,0.4l-3.2,3.6l-1-0.4l-1.8,2l0.6,0.9l-2.5,2.8c0,0-0.1-0.1-0.2-0.1V179l1.1-0.3V176l-1.1-0.3L165.6,174.5z M165.2,176.5h0.5v1.6h-0.5l0,0h-0.5v-1.6H165.2L165.2,176.5z M159.4,172.6h1.7v1h-1.7V172.6z M158.5,173.5l0.3,1h2.8l0.3-1h1.6c0.2,0.5,0.6,0.9,1.1,1v1.2l-1.1,0.3v2.7l1.1,0.3v3.7c-0.1,0-0.1,0-0.2,0.1L162,180l0.6-0.9l-1.8-2l-1,0.4l-3.2-3.6L158.5,173.5z M161.4,179.3l-0.8,0.6l-1.1-1.2l0.8-0.6L161.4,179.3z M155.7,174.5l3.2,3.6l-0.6,0.9l1.8,2l1-0.4l2.6,2.8c0,0.1-0.1,0.2-0.1,0.2H162l-0.3-1h-2.8l-0.3,1h-1.9c-0.1-0.5-0.5-0.8-1-1v-2.5l1-0.3v-2.7l-1-0.3C155.6,177,155.7,174.5,155.7,174.5z M161.1,183.7v1h-1.7v-1H161.1z M154.6,177.8h1v1.6h-1V177.8z M154.4,184.1c0-0.4,0.3-0.7,0.7-0.7s0.7,0.3,0.7,0.7s-0.3,0.7-0.7,0.7S154.4,184.5,154.4,184.1z M157.1,192.3c-0.3-0.1-0.6-0.1-0.9-0.1c-0.2-0.6-0.4-1.2-0.5-1.8l1-0.3c0,0-0.1-1.2-0.1-1.4c0-0.3,0-1.3,0-1.3l-1-0.2v1.6c0,0.3,0,0.6,0,0.9l0,0h-1c0-0.3,0-0.6,0-0.9V188h1v-2.4c0.5-0.1,0.8-0.5,1-1h1.9l0.3,1h2.8l0.3-1h1.7c0,0.1,0.1,0.2,0.1,0.3l-2.4,2.7l-1-0.4l-1.8,2l0.6,0.9L157.1,192.3z M161.6,188.9l-1.1,1.2l-0.8-0.6l1.1-1.2L161.6,188.9z M160.8,197.9c-0.5-0.2-1-0.5-1.4-0.8l0.5-0.9c0.5,0.3,0.9,0.5,1.5,0.7L160.8,197.9z M164.7,190.2l-1.1,0.3v2.7l1.1,0.3v3.4c-0.4,0.1-0.8,0.4-1,0.8c-0.6-0.1-1.1-0.2-1.6-0.4l0.2-1c-0.9-0.3-1.8-0.7-2.5-1.2l-0.8,0.7l0,0l0,0l0,0c-0.4-0.3-0.8-0.7-1.2-1.1c0.4-0.5,0.4-1.2,0.1-1.7l2-2.2l1,0.4l1.8-2l-0.6-0.9l2.4-2.7h0.1v4.6H164.7z M165.6,192.6h-0.4l0,0h-0.4V191h0.4l0,0h0.4V192.6z M169.5,197.9L169,197c0.5-0.2,1-0.5,1.4-0.8l0.5,0.9C170.5,197.4,170,197.6,169.5,197.9z M171.2,195.7L171.2,195.7L171.2,195.7L171.2,195.7l-0.8-0.7c-0.7,0.5-1.6,1-2.5,1.2l0.2,1c-0.5,0.2-1.1,0.3-1.6,0.4c-0.2-0.4-0.5-0.7-0.9-0.8v-3.4l1.1-0.3v-2.7l-1.1-0.3v-4.6h0.1l2.4,2.7l-0.6,0.9l1.8,2l1-0.4l2,2.2c-0.3,0.5-0.3,1.2,0.1,1.7C172,195,171.6,195.4,171.2,195.7z M168.7,188.9l0.8-0.6l1.1,1.2l-0.8,0.6L168.7,188.9z M175.7,188.8c0,0.3,0,0.6,0,0.9h-1c0-0.3,0-0.6,0-0.9v-1.6l-1,0.2c0,0,0,1,0,1.3c0,0.2-0.1,1.4-0.1,1.4l1,0.3c-0.1,0.6-0.3,1.2-0.5,1.8c-0.3,0-0.6,0-0.9,0.1l-2-2.2l0.6-0.9l-1.8-2l-1,0.4l-2.4-2.7c0-0.1,0.1-0.2,0.1-0.3h1.7l0.3,1h2.8l0.3-1h1.9c0.2,0.5,0.5,0.8,1,1v2.4h1L175.7,188.8L175.7,188.8z" />
        <path fill="#058E6E" d="M163.6,184.2c0-0.9,0.7-1.6,1.6-1.6c0.9,0,1.6,0.7,1.6,1.6s-0.7,1.6-1.6,1.6S163.6,185,163.6,184.2" />
      </g>
      <g>
        <path fill="#AD1519" stroke="#000000" stroke-width="0.312" d="M120.1,168.8h30.1v-33.4h-30.1C120.1,135.3,120.1,168.8,120.1,168.8z" />
        <path fill="#C8B100" stroke="#000000" stroke-width="0.276" d="M130.4,143.1h-0.6v-0.6h-1v2.2h1v1.5h-2.1v4.4h1.1v8.9h-2.2v4.6h17.1v-4.6h-2.2v-8.9h1.1v-4.4h-2.1v-1.5h1v-2.2h-1v0.6H140v-0.6h-1v0.6h-0.7v-0.6h-1v2.2h1v1.5h-2.1v-4.9h1.1v-2.2h-1.1v0.6h-0.6v-0.6h-1v0.6H134v-0.6h-1v2.2h1.1v4.9H132v-1.5h1v-2.2h-1v0.6h-0.6v-0.6h-1.1v0.6H130.4z M126.7,164.1h17.1 M126.7,163h17.1 M126.7,161.9h17.1 M126.7,160.8h17.1 M126.7,159.6h17.1 M128.9,158.6h12.6 M128.9,157.5h12.6 M128.9,156.2h12.6 M128.9,155.1h12.6 M128.9,154h12.6 M128.9,152.9h12.6 M128.9,151.8h12.6 M127.8,150.7h14.8 M127.8,149.6h14.8 M127.8,148.4h14.8 M127.8,147.4h14.8 M129.9,146.2h10.7 M134.1,145.1h2.1 M134.1,144h2.1 M134.1,142.9h2.1 M134.1,141.8h2.1 M133,140.4h4.3 M129.9,145.1h2.2 M128.9,143.7h4.2 M128.9,164.1V163 M128.9,161.9v-1.1 M127.8,161.9v1.1 M129.9,163v-1.1 M131,164.1V163 M131,161.9v-1.1 M131,159.6v-1 M131,157.5v-1.2 M129.9,160.8v-1.2 M127.8,160.8v-1.2 M132.1,159.6v1.2 M133,159.6v-1 M129.9,157.5v1.1 M132.1,157.5v1.1 M134.1,157.5v1.1 M133,157.5v-1.2 M134.1,155.1v1.1 M134.1,152.9v1.1 M133,151.8v1.1 M134.1,150.7v1.1 M132.1,150.7v1.1 M129.9,150.7v1.1 M128.9,149.6v1.1 M131,149.6v1.1 M133,149.6v1.1 M134.1,148.4v1.1 M132.1,148.4v1.1 M129.9,148.4v1.1 M128.9,147.4v1.1 M133,147.4v1.1 M131,145.1v1.1 M140.5,145.1h-2.2 M141.5,143.7h-4.2 M141.5,164.1V163 M141.5,161.9v-1.1 M142.6,161.9v1.1 M140.5,163v-1.1 M139.4,164.1V163 M139.4,161.9v-1.1 M139.4,159.6v-1 M139.4,157.5v-1.2 M140.5,160.8v-1.2 M142.6,160.8v-1.2 M138.3,159.6v1.2 M137.3,159.6v-1 M140.5,157.5v1.1 M138.3,157.5v1.1 M136.2,157.5v1.1 M137.3,157.5v-1.2 M136.2,155.1v1.1 M136.2,152.9v1.1 M137.3,151.8v1.1 M136.2,150.7v1.1 M138.3,150.7v1.1 M140.5,150.7v1.1 M141.5,149.6v1.1 M139.4,149.6v1.1 M137.3,149.6v1.1 M136.2,148.4v1.1 M138.3,148.4v1.1 M140.5,148.4v1.1 M141.5,147.4v1.1 M137.3,147.4v1.1 M139.4,145.1v1.1 M135.1,157.5v-1.2 M135.1,152.9v-1.1 M135.1,155.1V154 M135.1,150.7v-1.1 M135.1,148.4v-1.1 M135.1,145.1V144 M135.1,142.9v-1.1 M129.9,144.7h2.2 M134.1,141.4h2.1 M138.3,144.7h2.2" />
        <path fill="#C8B100" stroke="#000000" stroke-width="0.276" d="M138,164.1v-2.9c0-0.6-0.3-2.2-2.9-2.2c-2.5,0-2.8,1.7-2.8,2.2v2.9H138z" />
        <path fill="#C8B100" stroke="#000000" stroke-width="0.276" d="M133.3,161.4l-1.4-0.1c0-0.6,0.1-1.4,0.6-1.7l1.2,1C133.6,160.7,133.3,161.1,133.3,161.4z M135.7,160l0.7-1.2c-0.3-0.1-0.8-0.3-1.2-0.3c-0.3,0-0.8,0.1-1.1,0.3l0.7,1.2H135.7L135.7,160z M137.1,161.4l1.4-0.1c0-0.6-0.1-1.4-0.6-1.7l-1.2,1C136.8,160.7,137.1,161.1,137.1,161.4z M133,156.5v-3.1c0-0.8-0.6-1.5-1.5-1.5s-1.5,0.7-1.5,1.5v3.1H133L133,156.5z M137.3,156.5v-3.1c0-0.8,0.6-1.5,1.5-1.5s1.5,0.7,1.5,1.5v3.1H137.3z M132.1,149l0.1-2.8h-2.6l0.3,2.8H132.1z M136.2,149l0.3-2.8h-2.6l0.1,2.8H136.2z M138.3,149l-0.3-2.8h2.8l-0.3,2.8H138.3L138.3,149z" />
        <path fill="#0039F0" d="M137.1,161.6v2.5h-3.8v-2.5c0-0.4,0.3-1.7,1.8-1.7C136.8,160,137.1,161.2,137.1,161.6z M131.5,152.2c-0.8,0-1.2,0.7-1.2,1.4v2.6h2.5v-2.6C132.8,152.9,132.3,152.2,131.5,152.2z M138.9,152.2c-0.8,0-1.2,0.7-1.2,1.4v2.6h2.5v-2.6C140.1,152.9,139.7,152.2,138.9,152.2z" />
      </g>
      <g>
        <path fill="#CCCCCC" stroke="#000000" stroke-width="0.312" d="M150.2,168.7h30.2v-33.4h-30.2V168.7z" />
        <path fill="#ED72AA" stroke="#000000" stroke-width="0.234" d="M170.1,142.2c0,0,0,0.4,0.1,0.8c0,0.4-0.1,0.7-0.1,1s0.1,0.4,0.2,0.6c0.1,0.2,0.1,0.6,0.1,0.6s-0.2-0.2-0.4-0.3c-0.2-0.2-0.4-0.3-0.4-0.3s0,0.4,0.1,0.6s0.1,0.5,0.3,0.7s0.5,0.5,0.6,0.8s0.1,0.9,0.1,0.9s-0.3-0.4-0.5-0.5s-0.8-0.4-0.8-0.4s0.5,0.5,0.5,0.9s-0.2,1-0.2,1s-0.2-0.4-0.5-0.7s-0.7-0.5-0.7-0.5s0.3,0.7,0.3,1.2s-0.1,1.5-0.1,1.5s-0.2-0.4-0.5-0.6c-0.2-0.2-0.5-0.4-0.6-0.5s0.3,0.4,0.3,0.7s0.2,1.4,1.1,2.8c0.6,0.8,1.4,2.3,3.3,1.8c1.9-0.5,1.2-3,0.8-4.1c-0.4-1.2-0.6-2.5-0.6-2.9s0.4-1.8,0.3-2c0-0.2-0.1-1.2,0.1-2c0.2-0.8,0.4-1.1,0.6-1.4s0.2-0.5,0.3-0.8c0-0.3,0-0.8,0-0.8s0.4,0.6,0.4,0.9c0.1,0.2,0.1,0.9,0.1,0.9s0.1-0.7,0.6-1s1.1-0.7,1.3-0.9c0.1-0.2,0.2-0.3,0.2-0.3s-0.1,1.1-0.4,1.6c-0.2,0.3-1.1,1.2-1.1,1.2s0.4-0.2,0.7-0.2s0.5,0,0.5,0s-0.4,0.3-0.9,1s-0.3,0.8-0.6,1.3s-0.6,0.6-1.1,0.9c-0.6,0.5-0.3,2.6-0.2,2.9c0.1,0.3,1.2,2.9,1.2,3.5s0.1,2-1,2.9c-0.7,0.6-1.8,0.6-2.1,0.7c-0.3,0.2-0.8,0.7-0.8,1.8s0.4,1.2,0.7,1.5s0.7,0.1,0.8,0.3s0.1,0.3,0.3,0.4c0.1,0.1,0.2,0.3,0.2,0.5c-0.1,0.2-0.6,0.7-0.7,1.1s-0.5,1.3-0.5,1.5s0,0.6,0.1,0.8c0,0,0.6,0.6,0.2,0.8c-0.2,0.1-0.5-0.1-0.6-0.1c-0.3,0.1-0.5,0.3-0.6,0.3c-0.2,0-0.2-0.1-0.2-0.5c0-0.3,0-0.4-0.1-0.4s-0.2,0.1-0.2,0.3s0,0.5-0.2,0.5s-0.4-0.3-0.5-0.3s-0.5-0.1-0.5-0.3s0.2-0.5,0.5-0.6c0.2-0.1,0.5-0.2,0.3-0.3s-0.3-0.1-0.5,0c-0.1,0.1-0.5,0-0.5-0.2s0.1-0.4,0-0.5c0-0.1-0.3-0.3,0.1-0.5c0.4-0.2,0.5,0.2,0.9,0.1s0.5-0.2,0.6-0.4s0.1-0.6-0.1-0.9c-0.2-0.3-0.5-0.3-0.6-0.5s-0.2-0.6-0.2-0.6s0.1,0.7,0,0.8c0,0.1,0,0.5,0,0.5s-0.2-0.3-0.4-0.5s-0.4-0.8-0.4-0.8s0,0.6,0,0.8s0.3,0.4,0.2,0.5s-0.5-0.4-0.6-0.5s-0.5-0.4-0.6-0.6s-0.3-0.7-0.3-0.9c0-0.1-0.1-0.8,0-0.9c0.1-0.2,0.3-0.7,0.3-0.7h-0.9c-0.5,0-0.8-0.1-0.9,0.2s-0.1,0.9,0.1,1.7c0.2,0.8,0.4,1.2,0.3,1.3c-0.1,0.1-0.4,0.5-0.5,0.5c-0.1,0.1-0.4,0-0.6,0c-0.1-0.1-0.3-0.2-0.8-0.2s-0.7,0-0.8,0c-0.2,0-0.5-0.2-0.7-0.2s-0.5,0.2-0.4,0.4c0.1,0.4-0.1,0.4-0.3,0.4s-0.3-0.1-0.5-0.1c-0.2-0.1-0.5,0-0.5-0.2s0.1-0.3,0.2-0.4c0.1-0.2,0.1-0.3,0-0.3s-0.3,0-0.4,0.1c-0.1,0.1-0.3,0.3-0.5,0.2s-0.3-0.3-0.3-0.6c0-0.4-0.4-0.7,0-0.7s0.9,0.3,0.9,0.1c0.1-0.2,0-0.3-0.2-0.5s-0.5-0.3-0.2-0.5s0.3-0.2,0.4-0.3s0.2-0.5,0.4-0.4c0.4,0.2,0,0.4,0.4,0.9c0.4,0.4,0.6,0.6,1.2,0.5c0.6-0.1,0.8-0.1,0.8-0.3s-0.1-0.5-0.1-0.6s0.1-0.6,0.1-0.6s-0.3,0.2-0.4,0.4c-0.1,0.2-0.2,0.5-0.2,0.5s-0.1-0.4-0.1-0.6c0-0.2,0.1-0.5,0.1-0.5c0-0.2-0.1-0.6-0.1-0.6s-0.1,0.4-0.2,0.6c-0.1,0.1-0.1,0.6-0.1,0.6s-0.4-0.4-0.3-0.9c0.1-0.4-0.1-1,0.1-1.2c0.1-0.2,0.4-1,1.2-1s1.4,0,1.7,0s1.2-0.2,1.2-0.2s-1.8-0.9-2.2-1.2s-1-1-1.2-1.3s-0.4-0.9-0.4-0.9s-0.3,0-0.6,0.2s-0.6,0.4-0.7,0.6s-0.4,0.6-0.4,0.6s0.1-0.6,0.1-0.7s0-0.5,0-0.5s-0.2,0.8-0.6,1.1s-0.9,0.7-0.9,0.7s0.1-0.4,0.1-0.5s0.1-0.6,0.1-0.6s-0.3,0.4-0.7,0.5s-1.1,0.1-1.1,0.3c-0.1,0.3,0.1,0.6,0,0.8s-0.3,0.3-0.3,0.3s-0.2-0.2-0.5-0.2c-0.2,0-0.4,0.1-0.4,0.1s-0.2-0.2-0.1-0.4c0.1-0.2,0.4-0.4,0.3-0.5c-0.1-0.1-0.4,0-0.5,0.1c-0.2,0.1-0.5,0.2-0.5-0.1s0.1-0.4,0-0.6c-0.1-0.2,0-0.3,0.1-0.4c0.1-0.1,0.7,0,0.7-0.1c0.1-0.1-0.1-0.3-0.5-0.4c-0.4-0.1-0.5-0.3-0.3-0.5s0.2-0.2,0.3-0.4s0.1-0.5,0.4-0.3c0.3,0.1,0.2,0.5,0.6,0.6s1.1-0.1,1.3-0.1s0.7-0.5,0.9-0.6s1-0.7,1-0.7s-0.5-0.3-0.6-0.5c-0.2-0.2-0.5-0.6-0.6-0.6s-0.9-0.4-1.1-0.4c-0.2,0-1-0.3-1-0.3s0.4-0.1,0.5-0.2c0.1-0.1,0.4-0.3,0.5-0.3s0.2,0,0.2,0s-0.7,0-0.9-0.1c-0.1-0.1-0.6-0.3-0.8-0.3s-0.5,0.1-0.5,0.1s0.5-0.3,0.8-0.4c0.4-0.1,0.7-0.1,0.7-0.1s-0.6-0.2-0.7-0.4c-0.1-0.2-0.3-0.5-0.4-0.6c-0.1-0.1-0.2-0.3-0.4-0.4c-0.2,0-0.5,0.2-0.7,0.2s-0.3-0.1-0.3-0.4c0-0.3,0-0.2-0.1-0.3s-0.3-0.5-0.1-0.6c0.3-0.1,0.8,0.1,0.9-0.1s-0.3-0.4-0.5-0.5s-0.6-0.3-0.4-0.5s0.4-0.2,0.5-0.4c0.1-0.1,0.2-0.6,0.4-0.4s0.5,0.8,0.7,0.7s0.2-0.5,0.1-0.7c0-0.2,0-0.5,0.2-0.5s0.3,0.3,0.6,0.3s0.7-0.1,0.6,0.1c0,0.2-0.2,0.4-0.4,0.6c-0.2,0.2-0.3,0.6-0.1,0.9c0.1,0.3,0.4,0.7,0.7,0.9s0.8,0.3,1.1,0.5s1.1,0.8,1.3,0.9c0.2,0.1,0.5,0.2,0.5,0.2s0.3-0.1,0.7-0.1s1.3,0.1,1.6-0.1c0.3-0.1,0.8-0.4,0.6-0.7c-0.1-0.3-0.9-0.6-0.8-0.8s0.3-0.3,0.8-0.3s1.1,0.1,1.2-0.6s0.2-1-0.5-1.1c-0.6-0.1-1.1-0.2-1.2-0.6c-0.1-0.5-0.2-0.6-0.1-0.7c0.1-0.1,0.4-0.2,0.9-0.2s1,0,1.2-0.1c0.1-0.1,0.2-0.4,0.4-0.6c0.2-0.1,0.9-0.2,0.9-0.2s0.9,0.4,1.7,1C169.4,141.4,170.1,142.2,170.1,142.2" />
        <path fill="none" stroke="#000000" stroke-width="0.234" d="M161.4,146c0,0-0.5,0.1-0.7,0.4c-0.2,0.3-0.2,0.6-0.2,0.6s0.4-0.3,0.9-0.2s0.6,0.2,0.8,0.2s0.8-0.2,0.8-0.2s-0.4,0.5-0.4,0.9c0.1,0.4,0.1,0.5,0.1,0.7c0,0.4-0.4,1-0.4,1s0.2-0.1,0.6-0.2s0.8-0.3,1.1-0.5c0.2-0.2,0.5-0.6,0.5-0.6s-0.1,0.6,0,0.9c0.1,0.3,0.1,1,0.1,1s0.3-0.2,0.5-0.4c0.1-0.1,0.4-0.2,0.5-0.4c0.1-0.1,0.2-0.6,0.2-0.6s0.1,0.5,0.2,0.8c0.2,0.2,0.4,1,0.4,1s0.2-0.5,0.4-0.7s0.4-0.5,0.4-0.6c0-0.2-0.1-0.5-0.1-0.5l0.2,0.5 M160.8,149.3c0,0,0.3-0.5,0.6-0.7s0.6-0.4,0.8-0.5c0.1,0,0.5-0.3,0.5-0.3 M163.2,151c0,0,0.6-0.3,0.9-0.4c0.4-0.2,0.7-0.7,0.7-0.7 M169.5,144.5c0,0-0.2-0.3-0.2-0.4c-0.1-0.1-0.1-0.3-0.1-0.3 M167,154.4c0,0,1.2,0.8,1.2,1.4c0,0.6-0.7,1.4-0.7,1.4" />
        <path fill="#000000" stroke="#000000" stroke-width="0.156" d="M164,141.6c0,0.1-0.1,0.2-0.1,0.2s-0.1-0.3-0.1-0.4c0-0.1,0-0.2,0-0.2s0.4,0,0.4,0.2C164.1,141.5,164,141.5,164,141.6z M166.9,140.8c-0.2-0.2-0.7-0.2-0.7-0.2v0.3h0.2c0,0,0,0.1,0,0.2c0,0.1,0.1,0.1,0.2,0.1c0.1,0,0.3,0,0.3,0c0.2,0.1,0.4,0.3,0.5,0.2C167.4,141.4,167.2,141,166.9,140.8z M163.9,144.1h0.4l-0.2-0.3L163.9,144.1z M164.3,144.1h0.5l-0.3-0.3L164.3,144.1z M164.2,142.5l0.4-0.2l-0.5-0.2L164.2,142.5z M164.8,142.6l0.4-0.3l-0.4-0.1V142.6z" />
        <path fill="#DB4446" stroke="#000000" stroke-width="0.234" d="M165.6,143c0,0-0.9,0.1-1.4-0.1c-0.5-0.1-1-0.4-1.4-0.8c-0.5-0.4-0.7-0.7-1-0.7c-0.8-0.1-1.4,0.2-1.4,0.2s0.6,0.2,1.1,0.8s0.9,0.9,1.2,0.9c0.4,0.1,1.6,0,1.9,0c0.4,0,1.1,0.1,1.1,0.1L165.6,143z M158.2,141.4c0,0.2,0,0.5-0.1,0.5c0,0-0.3,0-0.5,0s-0.5-0.2-0.5-0.2s0.2-0.2,0.4-0.5c0.1-0.2-0.1-0.6-0.1-0.6S158.1,140.6,158.2,141.4z M155.1,143c0,0,0.3-0.2,0.4-0.3c0.1-0.1,0.2-0.4,0.2-0.4s-0.3-0.5-0.8-0.4s-0.9,0.5-0.9,0.5s0.6,0,0.8,0.1C155,142.6,155.1,143,155.1,143z M155.3,144.6c0-0.2-0.2-0.5-0.2-0.5s-0.5,0.1-0.7,0.4c-0.3,0.3-0.2,0.8-0.2,0.8s0.3-0.3,0.6-0.3s0.7,0.1,0.7,0.1S155.3,144.8,155.3,144.6z M155.9,150c-0.4,0.1-0.7,0.6-0.7,0.6s0.4-0.1,0.6,0c0.2,0,0.4,0.3,0.4,0.3s0.2-0.2,0.3-0.3s0.2-0.3,0.2-0.3S156.4,150,155.9,150z M155.4,152.2c-0.3,0.3-0.3,0.8-0.3,0.8s0.3-0.3,0.5-0.2c0.2,0,0.5,0.2,0.5,0.2s0-0.3,0.1-0.4c0-0.2-0.1-0.5-0.1-0.5S155.8,151.9,155.4,152.2z M157.9,153.8c0,0-0.2-0.2-0.4-0.2s-0.5,0-0.5,0s0,0.5,0.2,0.8s0.7,0.4,0.7,0.4s-0.1-0.3-0.2-0.5C157.7,154,157.9,153.8,157.9,153.8z M161.4,157.9c0,0-0.3-0.4-0.7-0.4s-0.9,0.4-0.9,0.4s0.5,0,0.7,0.1c0.1,0.2,0.3,0.4,0.3,0.4s0.2-0.1,0.3-0.2C161.2,158.2,161.4,157.9,161.4,157.9z M160.1,159.6c0,0-0.6-0.1-0.8,0.2c-0.3,0.3-0.2,0.8-0.2,0.8s0.3-0.4,0.6-0.3c0.3,0,0.6,0.2,0.6,0.2s0-0.3-0.1-0.5C160.2,159.8,160.1,159.6,160.1,159.6z M161.2,162c0.2,0.3,0.6,0.5,0.6,0.5s-0.2-0.2-0.1-0.5c0-0.2,0.4-0.5,0.4-0.5l-0.9-0.2C161.3,161.3,161,161.7,161.2,162z M168.8,162.3c0-0.1-0.1-0.3-0.1-0.3s-0.5-0.1-0.8,0c-0.3,0.2-0.5,0.8-0.5,0.8s0.4-0.4,0.8-0.3c0.3,0,0.6,0.2,0.6,0.2S168.9,162.5,168.8,162.3z M169,163.9c0,0-0.4,0.4-0.2,0.7c0.1,0.3,0.4,0.7,0.4,0.7s0-0.5,0.1-0.6c0.2-0.2,0.6-0.2,0.6-0.2s-0.3-0.3-0.4-0.3C169.4,164,169,163.9,169,163.9z M171.8,164.4c0,0-0.4-0.1-0.5-0.1s-0.5,0.2-0.5,0.2s-0.2,0.5,0.2,0.8c0.3,0.3,0.7,0.3,0.7,0.3s-0.3-0.5-0.2-0.7C171.6,164.5,171.8,164.4,171.8,164.4z" />
        <path fill="#C8B100" stroke="#000000" stroke-width="0.156" d="M172.4,141.6c-0.2-0.2-0.5,0.1-0.5,0.1l-0.1-0.4h-0.3l-0.2,0.3l0.2,0.2c-0.3,0-0.7,0-0.7-0.3c0-0.1,0-0.1,0-0.1s-0.1,0-0.2,0c-0.1-0.1-0.1-0.3,0-0.4l0.1-0.1l0,0l0.1,0.4l0.3-0.1l0.1-0.3l-0.4-0.2l0.4-0.2l-0.1-0.3l-0.3-0.1l-0.2,0.4l-0.1-0.4l-0.3,0.1l-0.1,0.3l0.4,0.2l0,0c0,0-0.1,0-0.1,0.1c-0.2,0.1-0.4,0.2-0.5,0c-0.1-0.1-0.1-0.2-0.1-0.3c-0.1,0-0.2,0-0.3,0c-0.2-0.1-0.2-0.3-0.1-0.5c0-0.1,0.1-0.1,0.2-0.2l0.2,0.3l0.3-0.1l0.1-0.3l-0.4-0.1l0.4-0.2l-0.1-0.3h-0.4l-0.1,0.4l-0.2-0.3l-0.3,0.1l-0.1,0.3l0.4,0.1c0,0-0.1,0.1-0.2,0.2c-0.2,0.2-0.4,0.2-0.5,0c-0.1-0.1-0.1-0.2-0.1-0.2c-0.1,0-0.2,0-0.3,0c-0.2-0.1-0.2-0.3-0.1-0.5c0,0,0-0.1,0.1-0.1V139l0.3,0.3l0.3-0.2v-0.3l-0.4-0.1l0.4-0.3l-0.2-0.3h-0.4l-0.1,0.4l-0.3-0.3l-0.3,0.2v0.3l0.5,0.1H168l-0.1,0.1c-0.1,0.1-0.3,0.2-0.4,0.1c-0.1,0-0.1-0.2-0.1-0.2s0,0-0.1,0.1c-0.2,0.1-0.4-0.3-0.4-0.6l0.2,0.2l0.2-0.2V138h-0.5l0,0c0,0,0.2-0.3,0-0.5c-0.3-0.2-0.5-0.1-0.5,0c0,0,0.2,0.1,0.2,0.3c0.1,0.1,0.1,0.4,0.2,0.4l0,0v0.1l0.1,0.1l0,0c0,0,0.1,0.4,0,0.8c0,0.3-0.2,0.7-0.2,0.7c0.4,0.1,1.1,0.5,1.8,1s1.2,1.1,1.4,1.4c0,0,0.4-0.2,0.7-0.3c0.4-0.1,0.8-0.1,0.8-0.1l0,0l0.1,0.1l0,0c0,0,0.3,0,0.5,0c0.1,0,0.3,0.2,0.3,0.2C172.6,142,172.6,141.8,172.4,141.6z" />
        <path fill="#000000" stroke="#000000" stroke-width="0.03" d="M168.5,140c0,0,0.1,0.1,0,0.1h-0.1c0,0-0.1-0.1,0-0.1H168.5z M169,140.4l-0.2-0.2h-0.1v0.1l0.4,0.3h0.1v-0.1L169,140.4z M168,139.7l-0.2-0.1h-0.1v0.1H168l0.1,0.2h0.1v-0.1L168,139.7z M167.3,139.4v0.1h0.1v-0.1C167.4,139.3,167.3,139.3,167.3,139.4z M169.4,140.8v0.1h0.1v-0.1H169.4z M169.9,141.1h-0.1v0.1l0.3,0.3h0.1v-0.1L169.9,141.1z M170.5,141.7h-0.1v0.1h0.1V141.7z" />
        <path fill="#C8B100" stroke="#000000" stroke-width="0.156" d="M168.3,138.8c0.1-0.1,0.2-0.1,0.2-0.1c0.1,0,0.1,0.1,0.1,0.2s-0.2,0.1-0.2,0.1C168.3,138.9,168.3,138.8,168.3,138.8z M166.9,138.2c0-0.1,0.1-0.1,0.2-0.1c0.1,0,0.1,0.1,0.1,0.2s-0.1,0.1-0.2,0.1C166.9,138.4,166.9,138.3,166.9,138.2z M169.6,139.5c0.1-0.1,0.2-0.1,0.2,0c0.1,0.1,0.1,0.2,0,0.2s-0.2,0.1-0.2,0C169.5,139.7,169.5,139.6,169.6,139.5L169.6,139.5z M170.9,140.8c0.1-0.1,0.1-0.2,0-0.2c-0.1-0.1-0.2-0.1-0.2,0c-0.1,0.1-0.1,0.2,0,0.2S170.9,140.8,170.9,140.8L170.9,140.8z M171.8,141.9c0.1,0,0.1-0.1,0.1-0.2c0-0.1-0.1-0.1-0.2,0c-0.1,0.1-0.1,0.1-0.1,0.2C171.6,142,171.7,142,171.8,141.9z" />
      </g>
      <g>
        <path fill="#AD1519" stroke="#000000" stroke-width="0.366" d="M150.3,157.6c5.412,0,9.8,4.925,9.8,11s-4.388,11-9.8,11s-9.8-4.925-9.8-11S144.888,157.6,150.3,157.6z" />
        <path fill="#005BBF" stroke="#000000" stroke-width="0.366" d="M150.3,160.5c3.811,0,6.9,3.626,6.9,8.1s-3.089,8.1-6.9,8.1s-6.9-3.626-6.9-8.1S146.489,160.5,150.3,160.5z" />
        <path fill="#C8B100" stroke="#000000" stroke-width="0.204" stroke-linejoin="round" d="M147,163c0,0-0.8,0.9-0.8,1.7s0.3,1.5,0.3,1.5c-0.1-0.3-0.5-0.6-0.9-0.6c-0.5,0-0.9,0.4-0.9,0.9c0,0.1,0.4,1.1,0.4,1.1c0.1-0.2,0.3-0.3,0.6-0.3c0.4,0,0.6,0.3,0.6,0.6c0,0.1,0,0.1,0,0.1l-0.1,0.6l-0.5,1l0.6-0.2l0.5,0.6l0.5-0.6l0.6,0.2l-0.5-1l-0.1-0.6c0-0.1,0-0.1,0-0.1c0-0.3,0.3-0.6,0.6-0.6s0.5,0.1,0.6,0.3c0,0,0.4-0.9,0.4-1.1c0-0.5-0.4-0.9-0.9-0.9c-0.4,0-0.7,0.2-0.9,0.6c0,0,0.3-0.7,0.3-1.5C147.9,163.9,147,163,147,163L147,163z M153.4,163c0,0-0.8,0.9-0.8,1.7s0.3,1.5,0.3,1.5c-0.1-0.3-0.5-0.6-0.9-0.6c-0.5,0-0.9,0.4-0.9,0.9c0,0.1,0.4,1.1,0.4,1.1c0.1-0.2,0.3-0.3,0.6-0.3c0.4,0,0.6,0.3,0.6,0.6c0,0.1,0,0.1,0,0.1l-0.1,0.6l-0.5,1l0.6-0.2l0.5,0.6l0.5-0.6l0.6,0.2l-0.5-1l0.2-0.6c0-0.1,0-0.1,0-0.1c0-0.3,0.3-0.6,0.6-0.6s0.5,0.1,0.6,0.3c0,0,0.4-0.9,0.4-1.1c0-0.5-0.4-0.9-0.9-0.9c-0.4,0-0.7,0.2-0.9,0.6c0,0,0.3-0.7,0.3-1.5C154.2,163.9,153.4,163,153.4,163L153.4,163z M150.2,168.5c0,0-0.8,0.9-0.8,1.7s0.3,1.5,0.3,1.5c-0.1-0.3-0.5-0.6-0.9-0.6c-0.5,0-0.9,0.4-0.9,0.9c0,0.1,0.4,1.1,0.4,1.1c0.1-0.2,0.3-0.3,0.6-0.3c0.4,0,0.6,0.3,0.6,0.6c0,0.1,0,0.1,0,0.1h-0.7v0.6h0.6l-0.5,1l0.6-0.2l0.5,0.6l0.5-0.6l0.6,0.2l-0.5-1h0.6v-0.6h-0.7c0-0.1,0-0.1,0-0.1c0-0.3,0.3-0.6,0.6-0.6s0.5,0.1,0.6,0.3c0,0,0.4-0.9,0.4-1.1c0-0.5-0.4-0.9-0.9-0.9c-0.4,0-0.7,0.2-0.9,0.6c0,0,0.3-0.7,0.3-1.5C151,169.4,150.2,168.5,150.2,168.5L150.2,168.5z" />
        <path fill="#C8B100" stroke="#000000" stroke-width="0.204" d="M145.7,168.7h2.6v-0.6h-2.6V168.7z M152.1,168.7h2.6v-0.6h-2.6V168.7z M148.9,174.1h2.6v-0.6h-2.6V174.1z" />
      </g>
    </g>
  </g>
</svg>
