<svg xmlns="http://www.w3.org/2000/svg" width="450px" height="300px" viewBox="0 0 450 300">
  <path fill="#00ABC2" d="M0,0h450v300H0V0z" />
  <path fill="#FFEC2D" d="M249.142,166.365c-22.293,0-40.365-18.072-40.365-40.365s18.072-40.365,40.365-40.365s40.365,18.072,40.365,40.365S271.435,166.365,249.142,166.365z M249.142,80.13c2.4-0.03,3.3-1.53,3.3-3.33c0-2.4-3.3-13.83-3.3-13.83s-3.3,11.43-3.3,13.83C245.842,78.6,246.742,80.13,249.142,80.13z M298.342,122.7c-1.8,0-3.33,0.9-3.33,3.3c0.03,2.4,1.53,3.3,3.33,3.3c2.4,0,13.83-3.3,13.83-3.3S300.742,122.7,298.342,122.7z M245.842,175.2c0,2.4,3.3,13.83,3.3,13.83s3.3-11.43,3.3-13.83c0-1.8-0.9-3.33-3.3-3.33C246.742,171.9,245.842,173.4,245.842,175.2z M203.272,126c-0.03-2.4-1.53-3.3-3.33-3.3c-2.4,0-13.83,3.3-13.83,3.3s11.43,3.3,13.83,3.3C201.742,129.3,203.272,128.4,203.272,126z M266.695,83.622c2.229,0.891,3.634-0.151,4.323-1.814c0.918-2.217,2.244-14.04,2.244-14.04s-7.423,9.297-8.341,11.514C264.232,80.945,264.478,82.703,266.695,83.622z M295.859,141.779c-1.663-0.689-3.421-0.443-4.339,1.774c-0.891,2.229,0.151,3.634,1.814,4.323c2.217,0.918,14.04,2.244,14.04,2.244S298.077,142.698,295.859,141.779z M231.588,168.378c-2.229-0.891-3.634,0.151-4.323,1.814c-0.918,2.217-2.244,14.04-2.244,14.04s7.423-9.297,8.341-11.514C234.051,171.055,233.805,169.297,231.588,168.378z M206.763,108.446c0.891-2.229-0.151-3.634-1.814-4.323c-2.217-0.918-14.04-2.244-14.04-2.244s9.297,7.423,11.514,8.341C204.087,110.91,205.845,110.664,206.763,108.446z M281.577,93.565c1.718,1.676,3.415,1.252,4.688-0.021c1.697-1.697,7.446-12.113,7.446-12.113s-10.416,5.749-12.113,7.446C280.325,90.15,279.88,91.868,281.577,93.565z M286.265,158.456c-1.273-1.273-2.991-1.718-4.688-0.021c-1.676,1.718-1.252,3.415,0.021,4.688c1.697,1.697,12.113,7.446,12.113,7.446S287.962,160.153,286.265,158.456z M216.707,158.435c-1.718-1.676-3.415-1.252-4.688,0.021c-1.697,1.697-7.446,12.113-7.446,12.113s10.416-5.749,12.113-7.446C217.958,161.85,218.404,160.132,216.707,158.435z M216.707,93.565c1.676-1.718,1.252-3.415-0.021-4.688c-1.697-1.697-12.113-7.446-12.113-7.446s5.749,10.416,7.446,12.113C213.291,94.817,215.01,95.262,216.707,93.565z M291.52,108.446c0.946,2.206,2.676,2.463,4.339,1.774c2.217-0.918,11.514-8.341,11.514-8.341s-11.823,1.325-14.04,2.244C291.671,104.812,290.602,106.229,291.52,108.446z M273.262,184.232c0,0-1.325-11.823-2.244-14.04c-0.689-1.663-2.106-2.732-4.323-1.814c-2.206,0.946-2.463,2.676-1.774,4.339C265.839,174.935,273.262,184.232,273.262,184.232z M206.763,143.554c-0.946-2.206-2.676-2.463-4.339-1.774c-2.217,0.918-11.514,8.341-11.514,8.341s11.823-1.325,14.04-2.244C206.613,147.188,207.682,145.771,206.763,143.554z M231.588,83.622c2.206-0.946,2.463-2.676,1.774-4.339c-0.918-2.217-8.341-11.514-8.341-11.514s1.325,11.823,2.244,14.04C227.954,83.471,229.371,84.54,231.588,83.622z M258.09,81.011c2.36,0.439,3.535-0.857,3.886-2.622c0.468-2.354-0.538-14.208-0.538-14.208s-5.467,10.567-5.935,12.92C255.152,78.867,255.737,80.543,258.09,81.011z M298.04,132.362c-1.765-0.351-3.442,0.233-3.91,2.587c-0.439,2.36,0.857,3.535,2.622,3.886c2.354,0.468,14.208-0.538,14.208-0.538S300.394,132.83,298.04,132.362z M236.307,173.611c-0.468,2.354,0.538,14.208,0.538,14.208s5.466-10.567,5.935-12.92c0.351-1.765-0.233-3.442-2.587-3.91C237.833,170.55,236.658,171.845,236.307,173.611z M204.153,117.051c0.439-2.36-0.857-3.535-2.622-3.886c-2.354-0.468-14.208,0.538-14.208,0.538s10.567,5.466,12.92,5.935C202.009,119.989,203.685,119.405,204.153,117.051z M274.626,87.86c2.012,1.308,3.594,0.561,4.594-0.935c1.333-1.996,4.94-13.333,4.94-13.333s-9.094,7.67-10.427,9.666C272.732,84.755,272.63,86.527,274.626,87.86z M291.883,150.59c-1.497-1-3.269-1.102-4.602,0.894c-1.308,2.012-0.561,3.594,0.935,4.594c1.996,1.333,13.333,4.94,13.333,4.94S293.879,151.924,291.883,150.59z M224.551,168.742c1-1.497,1.102-3.269-0.894-4.602c-2.012-1.308-3.594-0.561-4.594,0.935c-1.333,1.996-4.94,13.333-4.94,13.333S223.218,170.737,224.551,168.742z M206.4,101.41c1.497,1,3.269,1.102,4.602-0.894c1.308-2.012,0.561-3.594-0.935-4.594c-1.996-1.333-13.333-4.94-13.333-4.94S204.404,100.076,206.4,101.41z M287.281,100.516c1.358,1.979,3.106,1.894,4.602,0.894c1.996-1.333,9.666-10.427,9.666-10.427s-11.337,3.606-13.333,4.94C286.72,96.922,285.948,98.52,287.281,100.516z M284.159,178.408c0,0-3.606-11.337-4.94-13.333c-1-1.497-2.598-2.269-4.594-0.935c-1.979,1.358-1.894,3.106-0.894,4.602C275.065,170.737,284.159,178.408,284.159,178.408z M211.002,151.484c-1.358-1.979-3.106-1.894-4.602-0.894c-1.996,1.333-9.666,10.427-9.666,10.427s11.337-3.606,13.333-4.94C211.563,155.078,212.335,153.48,211.002,151.484z M223.658,87.86c1.979-1.358,1.894-3.106,0.894-4.602c-1.333-1.996-10.427-9.666-10.427-9.666s3.606,11.337,4.94,13.333C220.064,88.422,221.662,89.194,223.658,87.86z M296.752,113.165c-1.765,0.351-3.09,1.532-2.622,3.886c0.498,2.348,2.144,2.938,3.91,2.587c2.354-0.468,12.92-5.935,12.92-5.935S299.106,112.697,296.752,113.165z M258.09,170.989c-2.348,0.498-2.938,2.144-2.587,3.91c0.468,2.354,5.935,12.92,5.935,12.92s1.007-11.854,0.538-14.208C261.625,171.845,260.444,170.52,258.09,170.989z M204.153,134.949c-0.498-2.348-2.144-2.938-3.91-2.587c-2.354,0.468-12.92,5.935-12.92,5.935s11.854,1.007,14.208,0.538C203.296,138.484,204.621,137.303,204.153,134.949z M240.193,81.011c2.348-0.498,2.938-2.144,2.587-3.91c-0.468-2.354-5.935-12.92-5.935-12.92s-1.007,11.854-0.538,14.208C236.658,80.155,237.839,81.48,240.193,81.011z M241.94,213.44L241.94,213.44L241.94,213.44L241.94,213.44z M251.53,220.66c1.43,0.04,2.87,0.36,4.28,0.12c0.34-0.09,0.87-0.11,1.07-0.31c-0.64-0.37-1.39-0.38-2.1-0.47h-5.72c-1.59-0.16-3.25-0.18-4.75-0.78c-0.4-0.16-0.77-0.54-1.15-0.13c-0.57,0.2-1.18,0.34-1.78,0.38c-1.05,0.08-2.1-0.14-3.07-0.53c0.7-0.97,1.54-1.82,2.31-2.72c-0.62-0.1-1.22-0.23-1.84-0.38c1.09-0.75,2.1-1.6,3.16-2.4c-1.08,0.06-2.13,0.2-3.16,0.53c-1.41,0.19-2.76,0.68-4.16,0.91l-0.56,0.09l-0.94,0.09c0.06,0.26,0.1,0.52,0.1,0.78c0,0.27-0.03,0.53-0.1,0.75c-0.06,0.21-0.25,0.47-0.4,0.63c-0.2,0.22-0.41,0.41-0.66,0.53c-0.24,0.12-0.51,0.17-0.78,0.19c-0.27,0.01-0.55,0-0.81-0.1c-0.27-0.09-0.52-0.26-0.75-0.46c-0.28,0.07-0.57,0.12-0.84,0.15c-0.28,0.03-0.54,0.03-0.79,0c-0.28-0.08-0.57-0.17-0.84-0.28c-0.272-0.113-0.533-0.25-0.78-0.41c-1.02,0.6-2.16,1.17-2.78,2.22c-0.35,0.48-0.42,1.03-0.5,1.6c-0.05,0.7,0.13,1.44,0.43,2.09c0.11,0.19,0.2-0.69,0.54-0.81c0.57-0.47,1.28-0.81,2-1c0.61-0.31,0.53,0.02,0.28,0.5c-0.06,0.25-0.4,1.2,0.06,0.72c2.03-0.9,4.28-1.08,6.47-1.25c3.18-0.33,6.37-0.4,9.56-0.44C245.53,220.51,248.53,220.55,251.53,220.66z M342.598,156.166c0.23-2.017-2.936-2.235-3.76-0.652c-4.189,4.036-7.98,8.801-13.343,11.331c5.136-4.958,9.383-10.828,13.088-16.912c0.794-1.81,2.929-3.986,1.771-5.995c-1.867-1.546-4.204-0.131-5.174,1.719c-3.256,4.251-5.729,9.213-9.916,12.675c3.666-6.996,7.461-14.444,7.554-22.514c-0.011-1.661-0.345-4.108-2.601-3.798c-1.789,0.321-1.364,2.998-2.101,4.352c-1.623,5.513-2.385,11.484-5.715,16.311c0.749-4.48,2.06-9.15,1.054-13.674c-0.47-2.022-3.735-1.152-3.314,0.849c-3.901,19.758-17.158,37.038-34.497,47.034c-7.939,4.492-16.807,7.388-25.829,8.701c-2.427,0.531-5.052,0.22-7.372,1.047c-5.621,4.31-9.024,11.522-16.141,13.78c-3.19,1.585-7.349,1.907-9.629,4.87c-0.197,0.379-0.24,0.818-0.232,1.238l0,0c1.544,1.414,2.669,0.007,4.055-0.762c-0.127,0.128-0.206,0.304-0.206,0.499c0,0.392,0.318,0.71,0.71,0.71s0.71-0.318,0.71-0.71c0-0.392-0.318-0.71-0.71-0.71c-0.049,0-0.092,0.018-0.139,0.028c0.014-0.006,0.027-0.014,0.041-0.02c5.308-1.825,9.938-5.016,14.504-8.203c2.766-2.289,5.164-5.258,8.879-6c7.247-2.191,14.95-1.925,22.224-3.947c5.539-7.584,14.948-10.29,22.829-14.649c1.77-0.55,2.453-2.006,3.019-3.614c3.008-4.749,7.107-8.957,11.953-11.832c2.293-1.253,5.029-1.975,7.625-1.402c-0.186,3.092-1.96,5.833-4.102,7.971c1.753-0.038,3.259-1.146,5.03-1.083c0.607,3.173-2.82,4.834-4.643,6.81c1.016,0.236,4.906,0.53,2.786,1.548c-2.702,1.875-5.787,3.162-8.281,5.34c2.301,0.413,2.563,0.902,0.223,1.735c-1.267,0.859-3.702,1.159-3.938,2.831c1.738,1.068-0.801,2.129-1.78,2.477c-1.873,0.436-3.839,1.249-1.352,2.672c-0.941,1.421-2.96,1.725-4.607,1.584c0.5,1.611,1.223,3.414-0.868,4.124c-4.687,3.543-10.188,6.121-16.08,6.71c7.361,0.566,14.942-0.8,21.232-4.803c0.83-0.982,5.185-2.037,2.749-2.863c-1.147-0.477-3.605-1.007-3.771-1.881c3.406-2.102,7.699-1.354,11.364-2.603c0.095-1.187-2.788-0.857-3.862-1.127c-2.563-0.21-2.413-0.864,0.059-1.106c3.127-0.828,6.668-0.991,9.298-3.029c-2.141-0.992-4.835-0.119-7.12-0.929c3.873-1.695,8.443-1.865,11.918-4.411c1.583-1.761-2.028-1.211-3.08-1.168c-2.145,0.373-3.137-0.653-0.7-1.545c4.161-3.068,9.43-5.061,12.353-9.509c0.692-0.996,1.63-3.996-0.578-2.917c-2.904,0.966-5.459,4.23-8.768,3.22C331.938,168.912,338.142,163.159,342.598,156.166z M278.131,213.882c-1.631,0.169-3.301-0.097-3.109,1.832c-0.31,1.523-3.53,1.013-2.635,2.317c1.009,1.651-1.826,2.661-2.996,3.373c-7.242,2.717-15.16,1.016-22.687,1.941c-4.375,0.371-9.577,2.042-10.822,6.804c3.195,0.85,5.875-1.865,8.415-3.388c0.764,0.412-0.479,3.192,0.717,4.162c2.476-0.194,4.063-2.884,5.494-4.721c1.213,1.377-0.564,3.48,0.542,4.721c2.847,0.268,4.033-3.081,6.073-4.429c1.365-0.231-0.567,3.011,0.505,3.887c1.959,0.831,3.983-0.565,4.614-2.463c0.919-2.683,1.766-0.697,2.119,0.992c1.142,1.913,3.347,0.11,4.175-1.156c1.016-2.591,2.003-0.315,3.332,0.769c2.805,0.443,3.682-2.872,5.417-4.334c-0.132,1.628,1.645,3.74,3.096,2.09c1.212-1.117,1.334-3.474,2.631-4.179c1.817,0.694,3.476,3.008,5.649,1.703v0.001c1.301-0.951,1.087-2.832,1.393-4.257c-0.445-2.714,1.827,1.017,3.343,0.771c3.173,1.097,7.114-1.397,6.563-4.95C292.667,215.106,285.444,213.566,278.131,213.882z M176.038,162.685c1.472,1.323,0.928-1.273,2.131-1.566c1.266,0.944,2.599,1.806,3.729,2.918c5.927,5.099,9.401,12.435,15.467,17.38c2.839,2.42,6.398,3.621,9.928,4.581c3.868,2.301,6.694,5.982,10.156,8.818c3.291,3.033,7.916,3.426,12.169,3.653c5.153,0.246,11.042,0.124,15.104,3.82c1.35-1.707,1.968-3.898,3.018-5.804l0.001-0.001c-1.193-0.073-2.389-0.109-3.58-0.213c-13.187-0.777-26.108-5.235-36.996-12.702c-13.22-9.122-23.364-22.716-27.882-38.172c-0.794-2.28-0.976-4.914-1.847-7.047c-1.078-0.887-2.729-0.443-2.905,1.024c-0.76,4.468,0.384,8.993,1.161,13.388c-3.518-5.23-4.283-11.643-6.037-17.567c-0.583-1.087-0.302-3.365-2.082-3.095c-2.12-0.064-2.22,2.3-2.305,3.863c0.093,8.064,3.949,15.441,7.56,22.448c-4.239-3.575-6.743-8.676-10.145-12.967c-0.878-1.488-2.596-2.67-4.328-1.802c-1.732,0.607-0.773,2.672-0.194,3.813c3.235,6.329,7.64,12.005,12.269,17.38c0.373,0.682,3.17,2.564,1.393,1.702c-5.009-2.644-8.641-7.164-12.663-11.037c-0.817-1.524-3.919-1.229-3.666,0.745c3.686,5.911,8.789,10.808,14.047,15.32c0.643,0.923,3.217,1.981,2.738,2.627c-3.607,0.573-6.047-3.107-9.419-3.553c-1.163,0.251,0.278,2.276,0.759,3.018c4.332,4.613,10.416,6.947,16.097,9.441c-1.992,0.843-4.24,0.178-6.332,0.178c-0.823,0.219-3.714-0.838-3.01,0.474c3.053,3.442,8.152,2.297,12.05,3.914c-0.953,0.802-2.279,0.974-3.472,1.179c-0.947,0.394-3.273,0.076-3.416,0.988c2.222,1.521,5.114,1.214,7.636,1.898c2.501,0.154,1.4,0.67-0.373,1.094c-0.943,0.409-2.648,0.446-3.098,1.249c2.935,1.835,6.582,2.054,9.92,2.723c-1.608,0.698-3.402,0.895-4.953,1.702c3.537,1.304,7.011,2.766,10.462,4.279c6.658,2.962,13.724,5.126,21.035,5.549c-2.516-0.476-4.971-1.232-7.398-2.043c-6.096-2.067-12.265-4.213-17.83-7.476c1.246-0.958,2.737-1.536,3.947-2.554c-2.411-0.083-4.82-0.844-6.932-2.015c-2.26-0.814,0.395-1.843,1.249-2.712c-0.169-0.852-2.331-0.972-3.294-1.464c-1.523,0.042-1.965-1.829-0.774-2.631c1.736-0.868-0.784-1.391-1.548-1.703c-1.317-0.716,0.249-2.335-0.387-3.173c-3.107-0.497-5.651-2.473-8.024-4.407c0.439-0.462,2.699-0.362,3.845-0.546c-2.39-1.737-4.494-3.919-6.136-6.379c0.613-0.46,2.81-0.073,4.046-0.199c-0.251-3.054-2.065-5.781-3.877-8.169C173.234,162.059,175.237,162.115,176.038,162.685z M42.85,96.762c4.843,0.534,7.414,3.764,7.414,7.893c0,2.564-0.47,4.173-1.652,6.628c0,0-9.534,19.827-13.246,27.496c-0.463,0.956-0.612,2.045-0.612,3.641c0,2.465,2.391,4.48,4.898,4.542c2.285,0.057,4.775-2.131,4.775-4.624c0-3.028-1.571-4.378-3.184-4.378c-1.985,0-2.776,0.816-2.776,2.21c0,0.971,0.469,1.391,1.143,1.391c1.702,0,1.224-2.291,1.224-2.291c0.845,0.185,1.54,1.049,1.143,2.128c0.642,0.142,1.221,0.486,1.653,0.982c-0.456,0.442-0.98,0.784-1.653,0.9c0.399,1.316-0.134,1.959-1.286,2.23c0.232-0.506,0.24-0.972,0.163-1.412c-1.813,0.516-4.592-0.305-4.592-3.437c0-3.109,2.158-5.728,6.204-5.074c-0.962-0.46-1.452-1.402-1.551-2.455c0.735,0.286,1.551,0.327,1.551,0.327c-0.473-0.834-1.13-1.553-1.102-3.191c0.75,0.341,1.447,0.973,2.408,0.573c-1.509-2.969,0.345-7.054,5.061-8.02c-1.726,2.023-2.571,4.208-2.571,6.383c0,7.049,1.959,8.233,1.959,13.134c0,2.025-1.032,4.207-3.07,5.71c1.337,0.374,2.201,1.044,2.7,1.951c-0.001,0-0.002,0.001-0.003,0.001c0.001,0,0.002,0.001,0.003,0.001c-0.499,0.907-1.363,1.576-2.7,1.951c2.038,1.503,3.07,3.685,3.07,5.71c0,4.901-1.959,6.085-1.959,13.134c0,2.175,0.845,4.36,2.571,6.383c-4.716-0.966-6.57-5.05-5.061-8.02c-0.961-0.4-1.658,0.232-2.408,0.573c-0.028-1.638,0.629-2.357,1.102-3.191c0,0-0.816,0.041-1.551,0.327c0.099-1.053,0.589-1.995,1.551-2.455c-4.046,0.654-6.204-1.964-6.204-5.074c0-3.132,2.779-3.952,4.592-3.437c0.077-0.44,0.069-0.905-0.163-1.412c1.152,0.271,1.684,0.914,1.286,2.23c0.673,0.116,1.197,0.458,1.653,0.9c-0.432,0.496-1.011,0.84-1.653,0.982c0.397,1.079-0.298,1.943-1.143,2.128c0,0,0.478-2.291-1.224-2.291c-0.674,0-1.143,0.42-1.143,1.391c0,1.394,0.791,2.21,2.776,2.21c1.613,0,3.184-1.35,3.184-4.378c0-2.493-2.49-4.681-4.775-4.624c-2.507,0.062-4.898,2.077-4.898,4.542c0,1.596,0.149,2.685,0.612,3.641c3.712,7.669,13.246,27.496,13.246,27.496c1.182,2.454,1.652,4.063,1.652,6.628c0,4.129-2.572,7.359-7.414,7.893c4.843,0.534,7.414,3.764,7.414,7.893c0,2.564-0.47,4.173-1.652,6.628c0,0-9.534,19.827-13.246,27.496c-0.463,0.956-0.612,2.045-0.612,3.641c0,2.465,2.391,4.48,4.898,4.542c2.285,0.057,4.775-2.131,4.775-4.624c0-3.028-1.571-4.378-3.184-4.378c-1.985,0-2.776,0.816-2.776,2.21c0,0.971,0.469,1.391,1.143,1.391c1.702,0,1.224-2.291,1.224-2.291c0.845,0.185,1.54,1.049,1.143,2.128c0.642,0.142,1.221,0.486,1.653,0.982c-0.456,0.442-0.98,0.784-1.653,0.9c0.399,1.316-0.134,1.959-1.286,2.23c0.232-0.506,0.24-0.972,0.163-1.411c-1.813,0.516-4.592-0.305-4.592-3.437c0-3.109,2.158-5.728,6.204-5.074c-0.962-0.46-1.452-1.402-1.551-2.455c0.735,0.286,1.551,0.327,1.551,0.327c-0.473-0.834-1.13-1.553-1.102-3.191c0.75,0.341,1.447,0.973,2.408,0.573c-1.509-2.969,0.345-7.054,5.061-8.02c-1.726,2.023-2.571,4.208-2.571,6.383c0,7.049,1.959,8.234,1.959,13.134c0,2.025-1.032,4.207-3.07,5.71c1.337,0.374,2.201,1.044,2.7,1.951c-0.001,0-0.002,0-0.003,0.001h0.002c-0.954,1.282-1.574,1.66-3.182,1.762c1.789,0.929,3.612,2.946,3.612,6.085c0,4.841-1.993,6.837-1.993,12.295c0,3.028,2.483,6.882,2.483,6.882c-4.389-0.439-6.564-4.503-5.326-7.75c-0.698-0.1-1.333,0.057-1.877,0.573c-0.321-0.9,0.186-1.945,0.865-2.845c-0.547-0.292-0.949-0.117-1.82,0.063c0.083-0.928,0.638-1.913,1.998-2.84c-3.945,1.025-6.373-1.725-6.373-4.604c0-2.174,1.524-3.733,3.013-3.733c0.481,0,1.188,0.198,1.587,0.496c0.281-0.598,0.136-1.4-0.153-1.998c1.091,0.289,1.784,0.937,1.291,2.286c0.839,0.077,1.505,0.36,1.959,0.9c-0.46,0.589-1.157,0.928-1.959,0.9c0.611,1.26-0.07,1.965-1.061,2.537c0,0,0.631-2.537-0.98-2.537c-0.724,0-1.384,0.236-1.384,1.303c0,0.929,0.812,2.216,2.69,2.134c1.877-0.082,3.4-1.295,3.4-4.292c0-2.765-2.23-4.14-5.169-4.229c-2.65-0.082-4.65,1.354-4.65,4.087c0,3.638,5.252,11.932,5.252,15.174c0,2.433-2.188,3.791-4.328,3.791c-1.333,0-2.563-0.635-3.485-1.294c-0.922,0.659-2.151,1.294-3.485,1.294c-2.141,0-4.328-1.358-4.328-3.791c0-3.242,5.252-11.536,5.252-15.174c0-2.734-2-4.169-4.65-4.087c-2.939,0.089-5.169,1.464-5.169,4.229c0,2.997,1.522,4.21,3.4,4.292s2.69-1.205,2.69-2.134c0-1.067-0.66-1.303-1.384-1.303c-1.61,0-0.98,2.537-0.98,2.537c-0.992-0.572-1.672-1.277-1.061-2.537c-0.802,0.028-1.499-0.311-1.959-0.9c0.454-0.54,1.12-0.823,1.959-0.9c-0.493-1.349,0.2-1.998,1.291-2.286c-0.289,0.598-0.434,1.4-0.153,1.998c0.399-0.298,1.106-0.496,1.587-0.496c1.489,0,3.013,1.558,3.013,3.733c0,2.879-2.428,5.629-6.373,4.604c1.36,0.928,1.915,1.913,1.998,2.84c-0.871-0.18-1.273-0.355-1.82-0.063c0.679,0.9,1.186,1.945,0.865,2.845c-0.545-0.516-1.179-0.674-1.877-0.573c1.237,3.247-0.938,7.311-5.326,7.75c0,0,2.483-3.854,2.483-6.882c0-5.458-1.993-7.453-1.993-12.295c0-3.139,1.822-5.156,3.612-6.085c-1.607-0.102-2.228-0.48-3.182-1.762h0.002c-0.001,0-0.002,0-0.003-0.001c0.499-0.907,1.363-1.576,2.7-1.951c-2.038-1.503-3.07-3.685-3.07-5.71c0-4.9,1.959-6.085,1.959-13.134c0-2.175-0.845-4.36-2.571-6.383c4.716,0.966,6.57,5.05,5.061,8.02c0.961,0.4,1.658-0.232,2.408-0.573c0.028,1.638-0.629,2.357-1.102,3.191c0,0,0.816-0.041,1.551-0.327c-0.099,1.053-0.589,1.995-1.551,2.455c4.046-0.654,6.204,1.964,6.204,5.074c0,3.132-2.779,3.953-4.592,3.437c-0.077,0.439-0.069,0.905,0.163,1.411c-1.152-0.271-1.684-0.913-1.286-2.23c-0.673-0.116-1.197-0.458-1.653-0.9c0.432-0.496,1.011-0.84,1.653-0.982c-0.397-1.079,0.298-1.943,1.143-2.128c0,0-0.478,2.291,1.224,2.291c0.674,0,1.143-0.42,1.143-1.391c0-1.394-0.791-2.21-2.776-2.21c-1.613,0-3.184,1.35-3.184,4.378c0,2.493,2.49,4.681,4.775,4.624c2.507-0.062,4.898-2.077,4.898-4.542c0-1.596-0.149-2.685-0.612-3.641c-3.712-7.669-13.246-27.496-13.246-27.496c-1.182-2.454-1.652-4.063-1.652-6.628c0-4.129,2.572-7.359,7.414-7.893c-4.843-0.534-7.414-3.764-7.414-7.893c0-2.564,0.47-4.173,1.652-6.628c0,0,9.534-19.827,13.246-27.496c0.463-0.956,0.612-2.045,0.612-3.641c0-2.465-2.391-4.48-4.898-4.542c-2.285-0.057-4.775,2.131-4.775,4.624c0,3.028,1.571,4.378,3.184,4.378c1.985,0,2.776-0.816,2.776-2.21c0-0.971-0.469-1.391-1.143-1.391c-1.702,0-1.224,2.291-1.224,2.291c-0.845-0.185-1.54-1.049-1.143-2.128c-0.642-0.142-1.221-0.486-1.653-0.982c0.456-0.442,0.98-0.784,1.653-0.9c-0.399-1.316,0.134-1.959,1.286-2.23c-0.232,0.506-0.24,0.972-0.163,1.412c1.813-0.516,4.592,0.305,4.592,3.437c0,3.109-2.158,5.728-6.204,5.074c0.962,0.46,1.452,1.402,1.551,2.455c-0.735-0.286-1.551-0.327-1.551-0.327c0.473,0.834,1.13,1.553,1.102,3.191c-0.75-0.341-1.447-0.973-2.408-0.573c1.509,2.969-0.345,7.054-5.061,8.02c1.726-2.023,2.571-4.208,2.571-6.383c0-7.049-1.959-8.233-1.959-13.134c0-2.025,1.032-4.207,3.07-5.71c-1.337-0.374-2.201-1.044-2.7-1.951c0.001,0,0.002-0.001,0.003-0.001c-0.001,0-0.002-0.001-0.003-0.001c0.499-0.907,1.363-1.577,2.7-1.951c-2.037-1.503-3.07-3.685-3.07-5.71c0-4.9,1.959-6.085,1.959-13.134c0-2.175-0.845-4.36-2.571-6.383c4.716,0.966,6.57,5.05,5.061,8.02c0.961,0.4,1.658-0.232,2.408-0.573c0.028,1.638-0.629,2.357-1.102,3.191c0,0,0.816-0.041,1.551-0.327c-0.099,1.053-0.589,1.995-1.551,2.455c4.046-0.654,6.204,1.964,6.204,5.074c0,3.132-2.779,3.952-4.592,3.437c-0.077,0.44-0.069,0.905,0.163,1.412c-1.152-0.271-1.684-0.914-1.286-2.23c-0.673-0.116-1.197-0.458-1.653-0.9c0.432-0.496,1.011-0.84,1.653-0.982c-0.397-1.079,0.298-1.943,1.143-2.128c0,0-0.478,2.291,1.224,2.291c0.674,0,1.143-0.42,1.143-1.391c0-1.394-0.791-2.21-2.776-2.21c-1.613,0-3.184,1.35-3.184,4.378c0,2.493,2.49,4.681,4.775,4.624c2.507-0.062,4.898-2.077,4.898-4.542c0-1.596-0.149-2.685-0.612-3.641c-3.712-7.669-13.246-27.496-13.246-27.496c-1.182-2.454-1.652-4.063-1.652-6.628c0-4.129,2.571-7.359,7.414-7.893c-4.843-0.534-7.414-3.764-7.414-7.893c0-2.564,0.47-4.173,1.652-6.628c0,0,9.534-19.827,13.246-27.496c0.463-0.956,0.612-2.045,0.612-3.641c0-2.465-2.391-4.48-4.898-4.542c-2.285-0.057-4.775,2.131-4.775,4.624c0,3.028,1.571,4.378,3.184,4.378c1.985,0,2.776-0.816,2.776-2.209c0-0.971-0.469-1.391-1.143-1.391c-1.702,0-1.224,2.291-1.224,2.291c-0.845-0.185-1.54-1.049-1.143-2.128c-0.642-0.142-1.221-0.486-1.653-0.982c0.456-0.442,0.98-0.784,1.653-0.9c-0.399-1.316,0.134-1.959,1.286-2.23c-0.232,0.506-0.24,0.972-0.163,1.411c1.813-0.516,4.592,0.305,4.592,3.437c0,3.109-2.158,5.728-6.204,5.074c0.962,0.46,1.452,1.402,1.551,2.455c-0.735-0.286-1.551-0.327-1.551-0.327c0.473,0.834,1.13,1.553,1.102,3.191c-0.75-0.341-1.447-0.973-2.408-0.573c1.509,2.969-0.345,7.054-5.061,8.02c1.726-2.023,2.571-4.208,2.571-6.383c0-7.049-1.959-8.234-1.959-13.134c0-2.025,1.032-4.207,3.07-5.71c-1.337-0.374-2.201-1.044-2.7-1.951c0.001,0,0.002,0,0.003-0.001H16.67c0.954-1.282,1.574-1.66,3.182-1.762c-1.789-0.929-3.612-2.946-3.612-6.085c0-4.841,1.993-6.837,1.993-12.295c0-3.028-2.483-6.882-2.483-6.882c4.389,0.439,6.564,4.503,5.326,7.75c0.698,0.1,1.333-0.057,1.877-0.573c0.321,0.9-0.186,1.945-0.865,2.845c0.547,0.292,0.949,0.117,1.82-0.063c-0.083,0.928-0.638,1.913-1.998,2.84c3.945-1.025,6.373,1.725,6.373,4.604c0,2.174-1.524,3.733-3.013,3.733c-0.481,0-1.188-0.198-1.587-0.496c-0.281,0.598-0.136,1.399,0.153,1.998c-1.091-0.289-1.784-0.937-1.291-2.286c-0.839-0.077-1.505-0.36-1.959-0.9c0.46-0.589,1.157-0.928,1.959-0.9c-0.611-1.26,0.07-1.965,1.061-2.537c0,0-0.631,2.537,0.98,2.537c0.724,0,1.384-0.236,1.384-1.303c0-0.929-0.812-2.216-2.69-2.134c-1.877,0.082-3.4,1.295-3.4,4.292c0,2.765,2.23,4.14,5.169,4.229c2.65,0.082,4.65-1.354,4.65-4.088c0-3.638-5.252-11.932-5.252-15.174c0-2.433,2.188-3.791,4.328-3.791c1.333,0,2.563,0.635,3.485,1.294c0.922-0.659,2.151-1.294,3.485-1.294c2.141,0,4.328,1.358,4.328,3.791c0,3.242-5.252,11.536-5.252,15.174c0,2.734,2,4.169,4.65,4.088c2.939-0.089,5.169-1.464,5.169-4.229c0-2.997-1.522-4.21-3.4-4.292c-1.878-0.082-2.69,1.205-2.69,2.134c0,1.067,0.66,1.303,1.384,1.303c1.61,0,0.98-2.537,0.98-2.537c0.992,0.572,1.672,1.277,1.061,2.537c0.802-0.028,1.499,0.311,1.959,0.9c-0.454,0.54-1.12,0.823-1.959,0.9c0.493,1.349-0.2,1.998-1.291,2.286c0.289-0.598,0.434-1.399,0.153-1.998c-0.399,0.298-1.106,0.496-1.587,0.496c-1.489,0-3.013-1.558-3.013-3.733c0-2.879,2.428-5.629,6.373-4.604c-1.36-0.928-1.915-1.913-1.998-2.84c0.871,0.18,1.273,0.355,1.82,0.063c-0.679-0.9-1.186-1.945-0.865-2.845c0.545,0.516,1.179,0.674,1.877,0.573c-1.238-3.247,0.938-7.311,5.326-7.75c0,0-2.483,3.854-2.483,6.882c0,5.458,1.993,7.454,1.993,12.295c0,3.139-1.822,5.156-3.612,6.085c1.607,0.102,2.228,0.48,3.182,1.762h-0.002c0.001,0,0.002,0,0.003,0.001c-0.499,0.907-1.363,1.576-2.7,1.951c2.038,1.503,3.07,3.685,3.07,5.71c0,4.9-1.959,6.085-1.959,13.134c0,2.175,0.845,4.36,2.571,6.383c-4.716-0.966-6.57-5.051-5.061-8.02c-0.961-0.4-1.658,0.232-2.408,0.573c-0.028-1.638,0.629-2.357,1.102-3.191c0,0-0.816,0.041-1.551,0.327c0.099-1.053,0.589-1.995,1.551-2.455c-4.046,0.654-6.204-1.964-6.204-5.074c0-3.132,2.779-3.953,4.592-3.437c0.077-0.439,0.069-0.905-0.163-1.411c1.152,0.271,1.684,0.913,1.286,2.23c0.673,0.116,1.197,0.458,1.653,0.9c-0.432,0.496-1.011,0.84-1.653,0.982c0.397,1.079-0.298,1.943-1.143,2.128c0,0,0.478-2.291-1.224-2.291c-0.674,0-1.143,0.42-1.143,1.391c0,1.394,0.791,2.209,2.776,2.209c1.613,0,3.184-1.35,3.184-4.378c0-2.493-2.49-4.681-4.775-4.624c-2.507,0.062-4.898,2.077-4.898,4.542c0,1.596,0.149,2.685,0.612,3.641c3.712,7.669,13.246,27.496,13.246,27.496c1.182,2.454,1.652,4.063,1.652,6.628C50.264,92.998,47.693,96.228,42.85,96.762z M32.264,32.25c1.731-4.276,5.043-10.115,3.862-11.581c-0.972-1.206-3.815,1.168-3.858,1.204l-0.002,0.002l-0.002,0.001l-0.002-0.001l-0.002-0.002c-0.043-0.036-2.886-2.41-3.858-1.204C27.221,22.134,30.532,27.974,32.264,32.25z M32.263,47.217c0,0.001,0.001,0.001,0.001,0.002c0-0.001,0.001-0.001,0.001-0.002c0.582-1.102,2.558-3.273,5.388-3.601c0.156-0.061,0.321-0.119,0.493-0.173c-2.555-0.587-4.702-1.547-5.882-3.539c-1.18,1.992-3.328,2.952-5.882,3.539c0.172,0.054,0.337,0.111,0.493,0.173C29.705,43.943,31.681,46.114,32.263,47.217z M32.264,267.75c-1.731,4.276-5.043,10.115-3.862,11.581c0.972,1.206,3.815-1.168,3.858-1.204l0.002-0.002l0.002-0.001l0.002,0.001l0.002,0.002c0.043,0.036,2.886,2.41,3.858,1.204C37.307,277.866,33.995,272.026,32.264,267.75z M32.265,252.783c0-0.001-0.001-0.001-0.001-0.002c0,0.001-0.001,0.001-0.001,0.002c-0.582,1.102-2.558,3.273-5.388,3.601c-0.156,0.061-0.321,0.119-0.493,0.173c2.555,0.587,4.702,1.547,5.882,3.539c1.18-1.992,3.328-2.952,5.882-3.539c-0.172-0.054-0.337-0.111-0.493-0.173C34.822,256.057,32.847,253.886,32.265,252.783z M41.489,206.671c-2.245,0-4.531,1.71-4.531,3.846c0,1.353,0.735,2.168,1.796,2.168c2.537,0,2.383-2.159,1.877-3.519c1.579,0.71,2.497,1.978,2.245,3.314c0.894,0.123,1.745,0.547,2.53,1.432c-0.618,0.78-1.372,1.37-2.53,1.391c0.506,2.074-0.882,2.951-2.245,3.437c0.431-1.522,0.714-3.273-1.877-3.273c-1.89,0-3.377-0.327-4.245-1.555c-0.051,1.637-0.204,8.102-0.204,8.102c-0.109,2.429,3.251,2.36,5.387,1.637c-0.806,2.798-2.459,4.311-6.286,3.928c0.929,0.389,1.919,1.262,1.919,2.946c-0.001,2.278-1.849,4.801-3.062,5.548v-0.011v0.011c-1.213-0.746-3.061-3.27-3.062-5.548c0-1.684,0.99-2.557,1.919-2.946c-3.826,0.383-5.48-1.13-6.286-3.928c2.136,0.723,5.497,0.793,5.387-1.637c0,0-0.153-6.465-0.204-8.102c-0.868,1.228-2.355,1.555-4.245,1.555c-2.591,0-2.309,1.751-1.877,3.273c-1.363-0.486-2.751-1.363-2.245-3.437c-1.159-0.021-1.913-0.611-2.53-1.391c0.785-0.886,1.636-1.31,2.53-1.432c-0.252-1.337,0.666-2.604,2.245-3.314c-0.506,1.36-0.66,3.519,1.877,3.519c1.061,0,1.796-0.815,1.796-2.168c0-2.136-2.286-3.846-4.531-3.846c-1.878,0-5.184,1.26-5.184,4.869c0,1.435,0.355,2.76,0.939,4.01c2.756,5.891,11.594,24.633,13.469,28.559c0,0.001,0.001,0.001,0.001,0.002c0-0.001,0.001-0.001,0.001-0.002c1.875-3.926,10.714-22.668,13.469-28.559c0.584-1.25,0.939-2.575,0.939-4.01C46.673,207.931,43.367,206.671,41.489,206.671z M32.264,209.08c1.358-3.474,4.791-5.439,7.948-5.842c-3.157-0.402-6.59-2.367-7.948-5.842c-1.358,3.474-4.791,5.439-7.948,5.842C27.472,203.64,30.906,205.605,32.264,209.08z M32.265,162.366c0-0.001-0.001-0.001-0.001-0.002c0,0.001-0.001,0.001-0.001,0.002c-1.875,3.926-10.714,22.668-13.469,28.559c-0.584,1.25-0.939,2.575-0.939,4.01c0,3.609,3.306,4.869,5.184,4.869c2.245,0,4.531-1.71,4.531-3.846c0-1.353-0.735-2.168-1.796-2.168c-2.537,0-2.383,2.158-1.877,3.519c-1.579-0.71-2.497-1.978-2.245-3.314c-0.894-0.123-1.745-0.547-2.53-1.432c0.618-0.78,1.372-1.37,2.53-1.391c-0.506-2.074,0.882-2.951,2.245-3.437c-0.431,1.522-0.714,3.273,1.877,3.273c1.89,0,3.377,0.327,4.245,1.555c0.051-1.637,0.204-8.102,0.204-8.102c0.109-2.429-3.251-2.36-5.387-1.637c0.806-2.798,2.459-4.311,6.286-3.928c-0.929-0.388-1.919-1.262-1.919-2.946c0.001-2.278,1.849-4.801,3.062-5.548v0.011v-0.011c1.213,0.746,3.061,3.27,3.062,5.548c0,1.684-0.99,2.558-1.919,2.946c3.826-0.383,5.48,1.13,6.286,3.928c-2.136-0.723-5.497-0.793-5.387,1.637c0,0,0.153,6.465,0.204,8.102c0.868-1.228,2.355-1.555,4.245-1.555c2.591,0,2.309-1.751,1.877-3.273c1.363,0.486,2.751,1.363,2.245,3.437c1.159,0.021,1.913,0.611,2.53,1.391c-0.785,0.886-1.636,1.309-2.53,1.432c0.252,1.336-0.666,2.604-2.245,3.314c0.506-1.36,0.66-3.519-1.877-3.519c-1.061,0-1.796,0.815-1.796,2.168c0,2.136,2.286,3.846,4.531,3.846c1.878,0,5.184-1.26,5.184-4.869c0-1.435-0.355-2.76-0.939-4.01C42.978,185.034,34.14,166.293,32.265,162.366z M32.265,146.307c0-0.001-0.001-0.001-0.001-0.002c0,0.001-0.001,0.001-0.001,0.002c-0.582,1.102-2.558,3.273-5.388,3.601c-0.083,0.032-0.173,0.061-0.261,0.091c0.087,0.03,0.178,0.059,0.261,0.092c2.83,0.328,4.806,2.499,5.388,3.601c0,0.001,0.001,0.001,0.001,0.002c0-0.001,0.001-0.001,0.001-0.002c0.582-1.102,2.558-3.273,5.388-3.601c0.083-0.032,0.173-0.061,0.261-0.092c-0.087-0.03-0.178-0.059-0.261-0.091C34.822,149.581,32.847,147.41,32.265,146.307z M41.489,100.195c-2.245,0-4.531,1.71-4.531,3.846c0,1.353,0.735,2.168,1.796,2.168c2.537,0,2.383-2.158,1.877-3.519c1.579,0.71,2.497,1.978,2.245,3.314c0.894,0.123,1.745,0.547,2.53,1.432c-0.618,0.78-1.372,1.37-2.53,1.391c0.506,2.074-0.882,2.95-2.245,3.437c0.431-1.522,0.714-3.273-1.877-3.273c-1.89,0-3.377-0.327-4.245-1.555c-0.051,1.637-0.204,8.102-0.204,8.102c-0.109,2.429,3.251,2.36,5.387,1.637c-0.806,2.798-2.459,4.311-6.286,3.928c0.929,0.388,1.919,1.262,1.919,2.946c-0.001,2.278-1.849,4.801-3.062,5.548v-0.011v0.011c-1.213-0.746-3.061-3.27-3.062-5.548c0-1.684,0.99-2.558,1.919-2.946c-3.826,0.383-5.48-1.13-6.286-3.928c2.136,0.723,5.497,0.793,5.387-1.637c0,0-0.153-6.465-0.204-8.102c-0.868,1.228-2.355,1.555-4.245,1.555c-2.591,0-2.309,1.751-1.877,3.273c-1.363-0.486-2.751-1.363-2.245-3.437c-1.159-0.021-1.913-0.611-2.53-1.391c0.785-0.886,1.636-1.309,2.53-1.432c-0.252-1.336,0.666-2.604,2.245-3.314c-0.506,1.36-0.66,3.519,1.877,3.519c1.061,0,1.796-0.815,1.796-2.168c0-2.136-2.286-3.846-4.531-3.846c-1.878,0-5.184,1.26-5.184,4.869c0,1.435,0.355,2.76,0.939,4.01c2.756,5.891,11.594,24.633,13.469,28.559c0,0.001,0.001,0.001,0.001,0.002c0-0.001,0.001-0.001,0.001-0.002c1.875-3.926,10.714-22.668,13.469-28.559c0.584-1.249,0.939-2.575,0.939-4.01C46.673,101.455,43.367,100.195,41.489,100.195z M32.264,102.604c1.358-3.474,4.791-5.439,7.948-5.842c-3.157-0.402-6.59-2.367-7.948-5.842c-1.358,3.474-4.791,5.439-7.948,5.842C27.473,97.164,30.906,99.129,32.264,102.604z M46.673,88.459c0-1.435-0.355-2.76-0.939-4.01C42.978,78.558,34.14,59.817,32.265,55.89c0-0.001-0.001-0.001-0.001-0.002c0,0.001-0.001,0.001-0.001,0.002c-1.875,3.926-10.714,22.668-13.469,28.559c-0.584,1.25-0.939,2.575-0.939,4.01c0,3.609,3.306,4.869,5.184,4.869c2.245,0,4.531-1.71,4.531-3.846c0-1.353-0.735-2.168-1.796-2.168c-2.537,0-2.383,2.159-1.877,3.519c-1.579-0.71-2.497-1.978-2.245-3.314c-0.894-0.123-1.745-0.547-2.53-1.432c0.618-0.78,1.372-1.37,2.53-1.391c-0.506-2.074,0.882-2.95,2.245-3.437c-0.431,1.522-0.714,3.273,1.877,3.273c1.89,0,3.377,0.327,4.245,1.555c0.051-1.637,0.204-8.102,0.204-8.102c0.109-2.429-3.251-2.36-5.387-1.637c0.806-2.798,2.459-4.311,6.286-3.928c-0.929-0.389-1.919-1.262-1.919-2.946c0.001-2.278,1.849-4.801,3.062-5.548v0.011v-0.011c1.213,0.746,3.061,3.27,3.062,5.548c0,1.684-0.99,2.558-1.919,2.946c3.826-0.383,5.48,1.13,6.286,3.928c-2.136-0.723-5.497-0.793-5.387,1.637c0,0,0.153,6.465,0.204,8.102c0.868-1.228,2.355-1.555,4.245-1.555c2.591,0,2.309-1.751,1.877-3.273c1.363,0.486,2.751,1.363,2.245,3.437c1.159,0.021,1.913,0.611,2.53,1.391c-0.785,0.886-1.636,1.309-2.53,1.432c0.252,1.336-0.666,2.604-2.245,3.314c0.506-1.36,0.66-3.519-1.877-3.519c-1.061,0-1.796,0.815-1.796,2.168c0,2.136,2.286,3.846,4.531,3.846C43.367,93.328,46.673,92.069,46.673,88.459z" />
</svg>
