<svg xmlns="http://www.w3.org/2000/svg" width="450px" height="300px" viewBox="0 0 450 300">
  <path fill="#FFFFFF" d="M0,0h450v300H0V0z" />
  <path fill="#CD2E3A" d="M225.5,75.951c40.896,0,74.049,33.153,74.049,74.049s-33.153,74.049-74.049,74.049S151.451,190.896,151.451,150S184.604,75.951,225.5,75.951z" />
  <path fill="#0047A0" d="M163.843,108.895c-11.334,17.077-6.8,40.047,10.276,51.381s40.047,6.8,51.381-10.276s34.304-21.61,51.381-10.276s21.61,34.304,10.276,51.381c-22.668,34.002-68.609,43.22-102.611,20.552C150.393,188.989,141.175,142.897,163.843,108.895z" />
  <path fill="none" stroke="#000000" stroke-width="12" d="M75.135,93.783l41.105-61.657 M90.55,104.059l41.105-61.657 M105.964,114.336l41.105-61.657 M304.083,247.321l41.105-61.657 M319.346,257.598l41.105-61.657 M334.76,267.874l41.105-61.657 M116.24,267.874l-41.105-61.657 M131.654,257.598L90.55,195.941 M146.917,247.321l-41.105-61.657 M345.036,114.336l-41.105-61.657 M360.45,104.059l-41.105-61.657 M375.865,93.783L334.76,32.126" />
  <path fill="none" stroke="#FFFFFF" stroke-width="6" d="M314.208,209.693l51.381,34.153 M103.395,231.907l15.414-10.276 M314.208,90.308l17.983-11.938 M347.605,68.093l15.414-10.276" />
</svg>
