<svg xmlns="http://www.w3.org/2000/svg" width="450px" height="300px" viewBox="0 0 450 300">
  <path fill="#FF0000" d="M0,0h450v300H0V0z" />
  <path fill="#FFFF00" d="M202.434,129.636c-5.588-3.472-11.516-6.351-17.612-8.721c-5.25,7.79-8.298,17.104-8.298,27.18c0,4.996,0.762,9.822,2.202,14.395c2.54-5.842,5.758-11.516,9.653-16.935C192.528,139.627,197.269,134.293,202.434,129.636L202.434,129.636z M187.532,117.358c6.605,2.286,12.955,5.25,19.052,8.721c1.355-1.185,2.794-2.202,4.149-3.218c-6.435-3.556-13.294-6.435-20.322-8.637C189.395,115.241,188.378,116.257,187.532,117.358z M193.459,111.346c7.621,2.032,14.903,4.826,21.761,8.467c1.609-1.016,3.218-1.948,4.742-2.879c-7.282-3.726-14.987-6.435-22.947-8.383C195.745,109.399,194.56,110.33,193.459,111.346L193.459,111.346z M200.656,106.266c8.383,1.693,16.511,4.403,24.132,8.129c7.705-3.726,15.834-6.435,24.132-8.129c-7.028-4.149-15.326-6.52-24.132-6.52S207.769,102.117,200.656,106.266L200.656,106.266z M252.561,108.637c-7.959,1.863-15.665,4.657-22.947,8.298c1.609,0.931,3.133,1.863,4.742,2.879c6.943-3.641,14.225-6.435,21.761-8.467C255.017,110.33,253.832,109.399,252.561,108.637L252.561,108.637z M259.166,114.31c-7.028,2.117-13.802,4.996-20.322,8.552c1.439,1.016,2.879,2.117,4.234,3.218c6.012-3.472,12.362-6.435,18.967-8.721C261.198,116.257,260.267,115.241,259.166,114.31L259.166,114.31z M264.754,120.999c-6.097,2.286-11.939,5.165-17.528,8.637c5.165,4.657,9.822,9.992,14.056,15.919c3.81,5.419,7.028,11.092,9.653,16.935c1.355-4.657,2.117-9.399,2.117-14.395C273.052,138.019,270.004,128.704,264.754,120.999L264.754,120.999z M260.605,154.191c-5.08-8.213-11.177-15.495-17.951-21.677c-1.524,1.101-3.133,2.202-4.572,3.302c11.431,10.669,20.66,24.047,26.503,39.627c1.355-2.032,2.625-4.149,3.641-6.266C266.109,164.098,263.569,159.102,260.605,154.191z M233.764,132.176c1.524-1.101,3.048-2.202,4.657-3.218c-1.355-1.185-2.794-2.286-4.234-3.387c-1.609,1.016-3.218,2.032-4.826,3.133h0.085C230.885,129.805,232.324,130.991,233.764,132.176L233.764,132.176z M224.788,125.402c1.609-1.016,3.302-2.032,4.826-2.964c-1.609-1.016-3.218-2.032-4.826-2.964c-1.609,0.931-3.133,1.948-4.742,2.964C221.655,123.37,223.179,124.386,224.788,125.402z M220.216,128.704c-1.609-1.101-3.133-2.117-4.742-3.133c-1.439,1.101-2.879,2.202-4.318,3.302c1.609,1.101,3.133,2.117,4.657,3.218C217.252,130.906,218.692,129.805,220.216,128.704L220.216,128.704z M224.788,132.091c-1.439,1.101-2.879,2.286-4.403,3.556c1.524,1.185,2.964,2.456,4.403,3.726c1.439-1.27,2.879-2.54,4.403-3.726C227.752,134.462,226.312,133.192,224.788,132.091z M224.788,147.926c-6.435,6.943-12.108,14.903-16.681,23.793c-3.133,5.927-5.588,12.108-7.451,18.29c7.113,3.98,15.326,6.351,24.132,6.351s17.019-2.371,24.132-6.351c-1.863-6.181-4.318-12.362-7.451-18.29C236.897,162.828,231.308,154.869,224.788,147.926L224.788,147.926z M196.846,180.017c5.504-14.056,13.633-26.334,23.624-36.494c-1.439-1.355-2.879-2.625-4.403-3.98c-11.6,11.262-20.914,25.233-26.588,41.406c1.609,1.778,3.302,3.387,5.165,4.911C195.322,183.912,196.084,181.964,196.846,180.017L196.846,180.017z M229.107,143.522c9.992,10.161,18.12,22.439,23.709,36.494c0.762,1.948,1.439,3.895,2.117,5.843c1.863-1.524,3.641-3.133,5.25-4.911c-5.758-16.173-15.072-30.144-26.672-41.406C231.986,140.898,230.546,142.168,229.107,143.522L229.107,143.522z M184.992,175.445c5.843-15.58,15.072-28.874,26.588-39.543c-1.524-1.185-3.048-2.286-4.657-3.387c-6.774,6.266-12.87,13.548-17.951,21.761c-2.964,4.826-5.504,9.822-7.621,14.903C182.367,171.38,183.637,173.412,184.992,175.445L184.992,175.445z M225.042,95.851c29.805,0,54.107,24.301,54.107,54.107s-24.301,54.107-54.107,54.107s-54.107-24.301-54.107-54.107S195.237,95.851,225.042,95.851z M248.92,83.997c-1.524,1.778-3.218,4.064-4.911,7.705c-0.423-0.931-0.423-2.032-0.169-3.218c0.423-3.895,1.524-6.266,3.556-9.568c0.677-1.185,1.355-2.202,1.693-3.472c1.27-3.81,1.016-8.891-1.778-12.87c0.423,4.488-0.931,8.213-2.456,10.5c-0.254,0.423-0.508,0.677-0.847,1.016c-1.609,1.609-3.387,3.218-5.673,6.943c-1.27,2.032-2.54,4.488-3.726,8.383c-0.508-0.847-0.677-1.863-0.593-3.048c-0.169-3.98,0.508-6.435,1.948-10.076c0.508-1.27,1.016-2.371,1.185-3.726c0.593-3.895-0.423-8.891-3.81-12.362c1.101,4.318,0.423,8.213-0.762,10.754c-0.254,0.423-0.423,0.762-0.677,1.101c-1.355,1.863-2.794,3.726-4.572,7.705c-0.847,2.286-1.778,4.911-2.286,8.891c-0.677-0.762-1.016-1.778-1.101-2.964c-0.762-3.895-0.508-6.435,0.339-10.246c0.339-1.27,0.677-2.456,0.593-3.81c0-3.98-1.778-8.721-5.673-11.685c1.778,4.149,1.693,8.129,0.931,10.838c-0.169,0.339-0.339,0.762-0.508,1.101c-1.016,2.117-2.202,4.149-3.302,8.383c-0.508,2.371-1.016,5.165-0.931,9.145c-0.677-0.677-1.185-1.609-1.524-2.71c-1.355-3.81-1.524-6.266-1.185-10.246c0.085-1.355,0.169-2.54,0-3.81c-0.677-3.98-3.218-8.383-7.451-10.669c2.371,3.81,2.879,7.79,2.54,10.5c-0.085,0.423-0.169,0.847-0.254,1.27c-0.677,2.202-1.524,4.403-1.947,8.806c-0.169,2.371-0.254,5.165,0.508,9.145c-0.847-0.593-1.439-1.439-1.948-2.456c-1.947-3.556-2.456-6.012-2.794-9.907c-0.085-1.355-0.169-2.54-0.677-3.81c-1.185-3.81-4.403-7.79-8.975-9.314c2.964,3.302,4.149,7.113,4.149,9.907c0,0.423,0,0.847-0.085,1.27c-0.339,2.286-0.762,4.657-0.508,8.975c0.254,2.371,0.593,5.165,1.948,8.975c-0.931-0.423-1.693-1.185-2.371-2.117c-2.456-3.133-3.302-5.504-4.234-9.314c-0.339-1.355-0.593-2.456-1.27-3.726c-1.778-3.472-5.588-6.943-10.33-7.79c3.387,2.879,5.165,6.52,5.673,9.229c0.085,0.423,0.085,0.847,0.085,1.27c0.085,2.286,0,4.657,0.931,8.975c0.593,2.286,1.355,4.996,3.302,8.467c-0.931-0.254-1.778-0.847-2.625-1.693c-2.964-2.71-4.234-4.911-5.673-8.552c-0.508-1.27-1.016-2.371-1.778-3.472c-2.371-3.133-6.605-5.927-11.516-6.012c3.895,2.286,6.181,5.504,7.113,8.129c0.085,0.423,0.169,0.847,0.254,1.27c0.423,2.286,0.677,4.657,2.286,8.721c0.931,2.202,2.202,4.742,4.657,7.875c-1.016-0.085-1.947-0.593-2.879-1.27c-3.302-2.202-4.911-4.234-7.028-7.536c-0.677-1.185-1.27-2.202-2.286-3.133c-2.794-2.794-7.451-4.911-12.278-4.234c4.149,1.693,6.943,4.572,8.298,7.028c0.169,0.339,0.339,0.762,0.508,1.185c0.762,2.117,1.355,4.403,3.556,8.213c1.27,2.032,2.879,4.318,5.843,7.113c-1.016,0-2.032-0.339-3.048-0.847c-3.641-1.693-5.504-3.387-8.044-6.351c-0.931-1.016-1.693-1.948-2.794-2.794c-3.218-2.286-8.129-3.641-12.786-2.202c4.403,1.016,7.621,3.387,9.229,5.588c0.339,0.339,0.508,0.677,0.677,1.101c1.101,2.032,2.117,4.234,4.911,7.536c1.524,1.863,3.472,3.895,6.774,6.181c-0.931,0.169-1.948,0-3.133-0.423c-3.81-1.016-5.927-2.456-8.891-4.996c-1.016-0.847-1.947-1.609-3.133-2.286c-3.556-1.778-8.637-2.286-13.04-0.169c4.488,0.254,8.044,2.202,10.076,4.064c0.254,0.339,0.508,0.593,0.762,1.016c1.439,1.778,2.71,3.81,6.012,6.689c1.778,1.524,4.064,3.218,7.705,4.996c-0.931,0.339-2.032,0.339-3.133,0.085c-3.98-0.423-6.266-1.524-9.653-3.556c-1.185-0.677-2.202-1.355-3.472-1.693c-3.81-1.27-8.806-1.016-12.786,1.778c4.403-0.423,8.213,0.931,10.5,2.456c0.339,0.254,0.677,0.508,0.931,0.847c1.693,1.609,3.302,3.387,6.943,5.673c2.032,1.27,4.572,2.625,8.383,3.726c-0.847,0.508-1.863,0.677-3.048,0.677c-3.98,0.085-6.435-0.593-10.076-2.032c-1.27-0.508-2.371-1.016-3.726-1.185c-3.895-0.593-8.891,0.423-12.362,3.81c4.318-1.101,8.298-0.423,10.754,0.762c0.423,0.254,0.762,0.423,1.101,0.677c1.863,1.355,3.726,2.794,7.79,4.572c2.202,0.847,4.826,1.778,8.806,2.286c-0.762,0.677-1.778,1.016-2.879,1.101c-3.98,0.847-6.435,0.508-10.33-0.339c-1.27-0.339-2.456-0.593-3.81-0.593c-3.98,0-8.721,1.778-11.6,5.673c4.064-1.778,8.044-1.693,10.754-0.931c0.423,0.169,0.762,0.339,1.185,0.508c2.032,1.016,4.149,2.202,8.383,3.302c2.286,0.508,5.08,1.016,9.06,0.931c-0.677,0.677-1.609,1.185-2.71,1.524c-3.726,1.355-6.266,1.524-10.161,1.185c-1.355-0.085-2.54-0.169-3.895,0c-3.895,0.677-8.298,3.218-10.584,7.536c3.726-2.456,7.705-2.964,10.5-2.625c0.423,0.085,0.762,0.169,1.185,0.254c2.202,0.762,4.403,1.524,8.806,1.947c2.371,0.169,5.165,0.254,9.145-0.508c-0.593,0.847-1.439,1.439-2.456,1.948c-3.472,1.947-6.012,2.456-9.907,2.794c-1.355,0.169-2.54,0.254-3.81,0.677c-3.81,1.185-7.705,4.403-9.314,8.975c3.387-2.964,7.197-4.064,9.992-4.149c0.423,0,0.847,0,1.27,0.085c2.202,0.339,4.572,0.762,8.975,0.508c2.371-0.169,5.165-0.593,8.891-1.948c-0.339,0.931-1.101,1.693-2.117,2.371c-3.133,2.456-5.504,3.302-9.314,4.234c-1.27,0.339-2.456,0.593-3.641,1.27c-3.556,1.778-6.943,5.588-7.79,10.33c2.794-3.387,6.435-5.165,9.145-5.673c0.423-0.085,0.847-0.085,1.27-0.085c2.286-0.085,4.742,0,8.975-0.931c2.286-0.593,4.996-1.355,8.552-3.302c-0.254,0.931-0.931,1.863-1.778,2.625c-2.71,2.964-4.911,4.234-8.552,5.673c-1.185,0.593-2.286,1.016-3.387,1.778c-3.218,2.371-6.012,6.605-6.097,11.516c2.286-3.895,5.588-6.181,8.213-7.113c0.423-0.085,0.762-0.169,1.185-0.254c2.286-0.423,4.657-0.677,8.721-2.286c2.202-0.931,4.742-2.202,7.959-4.572c-0.169,0.931-0.593,1.863-1.355,2.794c-2.202,3.302-4.149,4.911-7.536,7.028c-1.101,0.677-2.117,1.27-3.133,2.286c-2.794,2.794-4.826,7.451-4.149,12.278c1.609-4.149,4.488-6.943,6.943-8.298c0.423-0.169,0.762-0.339,1.185-0.508c2.202-0.677,4.488-1.355,8.213-3.556c2.032-1.27,4.318-2.879,7.113-5.842c0.085,1.016-0.254,2.032-0.847,3.048c-1.693,3.641-3.387,5.504-6.351,8.044c-1.016,0.931-1.947,1.693-2.71,2.794c-2.286,3.218-3.641,8.129-2.202,12.786c0.931-4.403,3.302-7.621,5.588-9.229c0.339-0.254,0.677-0.508,1.016-0.677c2.032-1.101,4.234-2.117,7.621-4.911c1.778-1.524,3.81-3.472,6.097-6.774c0.169,0.931,0,2.032-0.339,3.133c-1.101,3.81-2.456,5.927-5.08,8.891c-0.847,1.016-1.609,1.948-2.202,3.218c-1.778,3.556-2.371,8.552-0.254,12.955c0.339-4.488,2.202-8.044,4.149-9.992c0.254-0.339,0.593-0.593,0.931-0.847c1.863-1.439,3.81-2.71,6.689-6.012c1.524-1.778,3.218-4.064,4.996-7.705c0.339,0.931,0.339,2.032,0.169,3.133c-0.508,3.98-1.524,6.266-3.556,9.653c-0.762,1.185-1.355,2.202-1.778,3.472c-1.185,3.81-0.931,8.891,1.863,12.87c-0.423-4.488,0.847-8.298,2.456-10.584c0.254-0.339,0.508-0.677,0.762-0.931c1.609-1.693,3.387-3.302,5.758-6.943c1.185-2.032,2.54-4.572,3.641-8.383c0.508,0.847,0.677,1.863,0.677,3.048c0.169,3.98-0.508,6.435-2.032,10.076c-0.508,1.27-0.931,2.371-1.185,3.726c-0.593,3.895,0.423,8.891,3.81,12.362c-1.101-4.318-0.423-8.298,0.847-10.754c0.169-0.423,0.339-0.762,0.593-1.101c1.355-1.863,2.879-3.726,4.572-7.79c0.931-2.202,1.863-4.826,2.371-8.806c0.593,0.762,0.931,1.778,1.101,2.879c0.762,3.98,0.508,6.435-0.423,10.33c-0.339,1.27-0.593,2.456-0.593,3.81c0,3.98,1.863,8.721,5.758,11.6c-1.778-4.064-1.778-8.044-0.931-10.754c0.085-0.423,0.254-0.762,0.423-1.185c1.016-2.032,2.202-4.149,3.302-8.383c0.508-2.286,1.016-5.08,0.931-9.06c0.762,0.677,1.185,1.609,1.524,2.71c1.439,3.726,1.524,6.266,1.27,10.246c-0.169,1.27-0.254,2.456,0,3.81c0.593,3.98,3.133,8.383,7.451,10.669c-2.371-3.81-2.964-7.79-2.54-10.5c0-0.423,0.085-0.847,0.254-1.27c0.677-2.202,1.524-4.403,1.948-8.806c0.085-2.371,0.169-5.165-0.508-9.145c0.762,0.593,1.439,1.439,1.948,2.456c1.948,3.472,2.456,6.012,2.794,9.907c0.085,1.355,0.169,2.54,0.593,3.81c1.27,3.81,4.403,7.705,9.06,9.314c-2.964-3.387-4.149-7.197-4.234-9.992c0-0.423,0-0.847,0.085-1.27c0.339-2.202,0.847-4.572,0.508-8.975c-0.169-2.371-0.593-5.165-1.863-8.891c0.847,0.423,1.609,1.101,2.286,2.117c2.456,3.133,3.387,5.504,4.318,9.314c0.254,1.27,0.593,2.456,1.185,3.641c1.863,3.556,5.588,6.943,10.415,7.79c-3.472-2.794-5.25-6.435-5.758-9.145c-0.085-0.423-0.085-0.847-0.085-1.27c0-2.286,0.085-4.657-0.847-8.975c-0.593-2.286-1.439-4.996-3.387-8.552c1.016,0.254,1.863,0.931,2.625,1.778c2.964,2.71,4.234,4.911,5.758,8.552c0.508,1.185,0.931,2.286,1.778,3.387c2.371,3.218,6.605,6.012,11.431,6.097c-3.81-2.286-6.097-5.588-7.028-8.213c-0.169-0.423-0.254-0.762-0.339-1.185c-0.339-2.286-0.677-4.657-2.286-8.721c-0.931-2.202-2.117-4.742-4.572-7.875c1.016,0.085,1.948,0.508,2.879,1.27c3.302,2.202,4.911,4.149,6.943,7.536c0.677,1.101,1.355,2.202,2.286,3.133c2.794,2.794,7.451,4.826,12.278,4.149c-4.149-1.609-6.943-4.488-8.213-6.943c-0.254-0.423-0.423-0.762-0.508-1.185c-0.762-2.202-1.439-4.488-3.641-8.213c-1.27-2.032-2.879-4.318-5.758-7.113c0.931,0,1.948,0.254,3.048,0.847c3.556,1.693,5.504,3.387,8.044,6.351c0.847,1.016,1.609,1.948,2.71,2.71c3.218,2.371,8.129,3.641,12.786,2.286c-4.318-1.016-7.536-3.387-9.229-5.673c-0.254-0.339-0.508-0.677-0.677-1.016c-1.101-2.032-2.032-4.234-4.826-7.621c-1.609-1.778-3.556-3.81-6.859-6.097c1.016-0.169,2.032,0,3.133,0.339c3.81,1.101,5.927,2.54,8.975,5.08c1.016,0.847,1.948,1.609,3.133,2.202c3.556,1.778,8.552,2.371,12.955,0.254c-4.488-0.339-7.959-2.202-9.992-4.149c-0.339-0.254-0.593-0.593-0.847-0.931c-1.355-1.863-2.71-3.81-5.927-6.689c-1.863-1.524-4.149-3.218-7.705-4.996c0.931-0.339,1.948-0.339,3.133-0.169c3.895,0.508,6.266,1.524,9.568,3.641c1.185,0.677,2.202,1.27,3.472,1.693c3.81,1.185,8.891,0.931,12.87-1.863c-4.488,0.423-8.213-0.847-10.5-2.456c-0.339-0.254-0.677-0.508-1.016-0.762c-1.609-1.609-3.218-3.387-6.943-5.758c-2.032-1.185-4.488-2.54-8.383-3.641c0.847-0.508,1.948-0.677,3.048-0.677c4.064-0.169,6.52,0.508,10.076,2.032c1.27,0.508,2.371,0.931,3.726,1.185c3.895,0.593,8.891-0.423,12.362-3.81c-4.318,1.101-8.213,0.423-10.754-0.847c-0.339-0.169-0.762-0.339-1.101-0.593c-1.863-1.355-3.726-2.794-7.705-4.572c-2.202-0.847-4.911-1.778-8.891-2.371c0.762-0.593,1.778-0.931,2.964-1.101c3.895-0.762,6.435-0.508,10.246,0.423c1.27,0.339,2.456,0.593,3.81,0.593c3.98,0,8.721-1.863,11.685-5.673c-4.149,1.693-8.129,1.693-10.754,0.847c-0.423-0.085-0.847-0.254-1.185-0.423c-2.117-1.016-4.149-2.202-8.383-3.302c-2.371-0.508-5.08-1.016-9.145-0.931c0.677-0.762,1.609-1.185,2.71-1.524c3.81-1.439,6.351-1.524,10.246-1.27c1.355,0.169,2.54,0.254,3.895,0c3.895-0.593,8.298-3.133,10.584-7.451c-3.81,2.371-7.705,2.964-10.5,2.625c-0.423-0.085-0.847-0.169-1.27-0.339c-2.202-0.677-4.403-1.524-8.721-1.948c-2.371-0.085-5.25-0.169-9.145,0.593c0.508-0.847,1.355-1.524,2.456-2.032c3.472-1.948,5.927-2.456,9.822-2.794c1.355-0.085,2.54-0.169,3.81-0.593c3.81-1.27,7.79-4.403,9.314-9.06c-3.302,2.964-7.113,4.149-9.907,4.234c-0.423,0-0.847,0-1.27-0.085c-2.286-0.339-4.657-0.847-8.975-0.508c-2.371,0.169-5.165,0.593-8.975,1.948c0.423-0.931,1.185-1.693,2.117-2.371c3.133-2.456,5.504-3.387,9.314-4.318c1.355-0.254,2.456-0.593,3.726-1.185c3.472-1.863,6.943-5.588,7.79-10.415c-2.879,3.472-6.435,5.25-9.229,5.758c-0.423,0.085-0.847,0.085-1.27,0.085c-2.286,0-4.657-0.085-8.891,0.847c-2.371,0.593-5.08,1.439-8.552,3.387c0.254-1.016,0.847-1.863,1.693-2.625c2.71-2.964,4.911-4.234,8.552-5.758c1.27-0.508,2.371-0.931,3.472-1.778c3.133-2.371,5.927-6.605,6.012-11.431c-2.286,3.81-5.504,6.097-8.129,7.028c-0.423,0.169-0.847,0.254-1.27,0.339c-2.286,0.423-4.657,0.677-8.721,2.286c-2.117,0.931-4.657,2.117-7.875,4.572c0.085-0.931,0.593-1.948,1.27-2.879c2.202-3.302,4.234-4.911,7.536-6.943c1.185-0.677,2.202-1.355,3.133-2.286c2.794-2.794,4.911-7.451,4.234-12.278c-1.693,4.149-4.572,6.943-7.028,8.298c-0.339,0.169-0.762,0.339-1.101,0.423c-2.202,0.762-4.488,1.439-8.298,3.641c-2.032,1.27-4.318,2.879-7.113,5.758c0-0.931,0.339-1.948,0.847-2.964c1.693-3.641,3.387-5.504,6.351-8.129c1.016-0.847,1.948-1.609,2.794-2.71c2.286-3.218,3.641-8.129,2.202-12.786c-1.016,4.318-3.387,7.536-5.588,9.229c-0.339,0.254-0.677,0.508-1.101,0.677c-2.032,1.101-4.234,2.032-7.536,4.826c-1.863,1.609-3.895,3.556-6.097,6.859c-0.254-0.931-0.085-2.032,0.339-3.133c1.101-3.81,2.456-5.927,4.996-8.975c0.847-1.016,1.693-1.863,2.286-3.133c1.778-3.556,2.286-8.552,0.169-12.955c-0.254,4.488-2.117,7.959-4.064,9.992c-0.339,0.339-0.593,0.593-0.931,0.847C253.831,79.34,251.799,80.694,248.92,83.997L248.92,83.997z" />
</svg>
