<svg xmlns="http://www.w3.org/2000/svg" width="450px" height="300px" viewBox="0 0 450 300">
  <path fill="#20603D" d="M0,0h450v300H0V0z" />
  <path fill="#FAD201" d="M0,0h450v225H0V0z" />
  <path fill="#00A1DE" d="M0,0h450v150H0V0z" />
  <path fill="#E5BE01" d="M384.247,80.333l33.503-1.958l-33.503-1.958l31.855-10.562l-32.868,6.78l28.036-18.447l-29.994,15.056l22.306-25.075l-25.075,22.306l15.056-29.994l-18.447,28.036l6.78-32.868l-10.562,31.855L369.375,30l-1.958,33.503l-10.562-31.855l6.78,32.868L345.188,36.48l15.056,29.994l-25.075-22.306l22.306,25.075l-29.994-15.056l28.036,18.447l-32.868-6.78l31.855,10.562L321,78.375l33.503,1.958l-31.855,10.562l32.868-6.78l-28.036,18.447l29.994-15.056l-22.306,25.075l25.075-22.306l-15.056,29.994l18.447-28.036l-6.78,32.868l10.562-31.855l1.958,33.503l1.958-33.503l10.562,31.855l-6.78-32.868l18.447,28.036l-15.056-29.994l25.075,22.306l-22.306-25.075l29.994,15.056l-28.036-18.447l32.868,6.78L384.247,80.333z M369.375,93.375c-8.271,0-15-6.729-15-15s6.729-15,15-15s15,6.729,15,15S377.646,93.375,369.375,93.375z M382.959,78.375c0,7.49-6.094,13.583-13.584,13.583s-13.584-6.093-13.584-13.583s6.094-13.583,13.584-13.583S382.959,70.885,382.959,78.375z" />
</svg>
