<svg xmlns="http://www.w3.org/2000/svg" width="450px" height="300px" viewBox="0 0 450 300">
  <path fill="#FFFFFF" d="M0,0h450v300H0V0z" />
  <path fill="#01411C" d="M112.5,0v300H450V0H112.5z M314.068,82.654l14.481,16.291l19.968-8.738l-11.019,18.806l14.481,16.291l-21.291-4.668l-11.019,18.806l-2.14-21.691l-21.291-4.668l19.968-8.738L314.068,82.654z M281.25,240c-49.706,0-90-40.294-90-90c0-40.142,26.283-74.141,62.577-85.74c-1.49,1.153-2.953,2.359-4.382,3.629c-34.055,30.271-37.122,82.417-6.851,116.471c30.271,34.055,82.417,37.122,116.471,6.851c1.429-1.271,2.799-2.583,4.12-3.928C349.011,218.382,317.656,240,281.25,240z" />
</svg>
